<?xml version="1.0" encoding="utf-8"?>
<!-- Generator: Adobe Illustrator 18.0.0, SVG Export Plug-In . SVG Version: 6.00 Build 0)  -->
<!DOCTYPE svg PUBLIC "-//W3C//DTD SVG 1.1//EN" "http://www.w3.org/Graphics/SVG/1.1/DTD/svg11.dtd">
<svg version="1.1" id="Layer_1" xmlns="http://www.w3.org/2000/svg" xmlns:xlink="http://www.w3.org/1999/xlink" x="0px" y="0px"
	 viewBox="0 0 48 48" enable-background="new 0 0 48 48" xml:space="preserve">
<g>
	<path fill="#ED9322" d="M26.6,12.8c-0.1-0.2-0.2-0.3-0.4-0.4c-0.2-0.1-0.3-0.2-0.5-0.2c-0.2-0.1-0.4-0.1-0.6-0.1
		c-0.2,0-0.4-0.1-0.6-0.1c-0.2,0-0.3-0.1-0.5-0.2c-0.1-0.1-0.3-0.2-0.4-0.3c-0.1-0.1-0.2-0.3-0.2-0.4c0-0.1,0-0.2,0-0.3
		c0-0.1,0.1-0.2,0.2-0.3c0.1-0.1,0.2-0.2,0.3-0.2c0.1-0.1,0.3-0.1,0.5-0.1c0.2,0,0.3,0,0.5,0c0.2,0,0.3,0,0.4,0.1
		c0.1,0,0.2,0.1,0.3,0.1c0.1,0,0.1,0,0.2,0c0,0,0,0,0.1,0c0,0,0,0,0-0.1c0,0,0-0.1,0-0.1c0,0,0-0.1,0-0.2c0,0,0-0.1,0-0.1
		c0,0,0-0.1,0-0.1c0,0,0-0.1,0-0.1c0,0,0,0-0.1-0.1c0,0-0.1,0-0.2-0.1c-0.1,0-0.2,0-0.2-0.1c-0.1,0-0.2,0-0.3,0c-0.1,0-0.2,0-0.3,0
		l0-0.9c0,0,0,0,0-0.1c0,0,0,0-0.1,0c0,0-0.1,0-0.1,0c0,0-0.1,0-0.2,0c-0.1,0-0.1,0-0.2,0c0,0-0.1,0-0.1,0c0,0,0,0,0,0
		c0,0,0,0,0,0.1l0,0.9c-0.3,0.1-0.5,0.1-0.7,0.3c-0.2,0.1-0.4,0.2-0.5,0.4c-0.1,0.2-0.2,0.3-0.3,0.5c0,0.2-0.1,0.4,0,0.6
		c0,0.3,0.1,0.5,0.2,0.6c0.1,0.2,0.2,0.3,0.4,0.4c0.2,0.1,0.3,0.2,0.5,0.2c0.2,0.1,0.4,0.1,0.6,0.2c0.2,0,0.4,0.1,0.6,0.1
		c0.2,0,0.3,0.1,0.5,0.2c0.1,0.1,0.3,0.2,0.4,0.3c0.1,0.1,0.2,0.3,0.2,0.4c0,0.3,0,0.5-0.2,0.7c-0.2,0.2-0.5,0.3-1,0.4
		c-0.2,0-0.5,0-0.6,0c-0.2,0-0.3-0.1-0.5-0.1c-0.1,0-0.2-0.1-0.3-0.1c-0.1,0-0.1-0.1-0.2,0c0,0-0.1,0-0.1,0c0,0,0,0,0,0.1
		c0,0,0,0.1,0,0.1c0,0,0,0.1,0,0.2c0,0.1,0,0.2,0,0.2c0,0.1,0,0.1,0.1,0.1c0,0,0.1,0.1,0.2,0.1c0.1,0,0.2,0.1,0.3,0.1
		c0.1,0,0.2,0,0.3,0c0.1,0,0.3,0,0.4,0l0,1c0,0,0,0,0,0.1c0,0,0,0,0.1,0c0,0,0.1,0,0.1,0c0,0,0.1,0,0.2,0c0.1,0,0.1,0,0.1,0
		c0,0,0.1,0,0.1,0c0,0,0,0,0,0c0,0,0,0,0-0.1l0-1c0.3-0.1,0.6-0.1,0.8-0.3c0.2-0.1,0.4-0.3,0.6-0.4c0.2-0.2,0.3-0.4,0.3-0.6
		c0.1-0.2,0.1-0.4,0.1-0.7C26.7,13.1,26.7,12.9,26.6,12.8z"/>
	<path fill="none" d="M25.2,5.2L25.2,5.2c0,0-0.1,0-0.1,0c0,0,0,0,0,0c-4.8-0.1-7.3,2.4-8.3,4.3c-0.6,1.2-0.7,2.4-0.7,3.8
		c0,1.1-0.2,2.3-0.4,3.4c-0.1,0.7-0.7,1.5-0.6,2.2c0.3,0.2,0.5,0.4,0.8,0.5c0.3,0.1,0.8,0,1,0.2c0.5,0.3,0,0.9,0.3,1.3
		c0.1,0.2,0.8,0.3,1,0.4c-0.1,0.3-0.8,0.3-0.7,0.8c0,0.2,0.4,0.2,0.5,0.4c0.1,0.2,0.1,0.5,0.1,0.7c0,1-0.7,2,0.8,2.3
		c1.2,0.2,2.3-0.4,3,0.7c0.5,0.7,0.7,1.7,0.6,2.6l0,0.2l6.2-0.8l0.8-0.6c0-1.2-0.1-2.4-0.1-3.8c0-1.9,0.4-3.8,1.8-5.8l0,0
		c1-1.3,1.6-3,1.6-4.8C32.9,8.8,29.6,5.3,25.2,5.2z"/>
	<path fill="#0DB89A" d="M22.5,37.5v5.9H11.4c-0.8,0-1.5,0.7-1.5,1.5s0.7,1.5,1.5,1.5h25.2c0.8,0,1.5-0.7,1.5-1.5s-0.7-1.5-1.5-1.5
		H25.5v-5.9c0,0,0-0.1,0-0.1h-2.9C22.5,37.5,22.5,37.5,22.5,37.5z"/>
	<path fill="#06728D" d="M43.4,1.6H4.6c-2.3,0-4.1,1.8-4.1,4.1v27.6c0,2.3,1.8,4.1,4.1,4.1h17.9h2.9h17.9c2.3,0,4.1-1.8,4.1-4.1V5.7
		C47.5,3.5,45.7,1.6,43.4,1.6z M31.2,17.9c-1.4,2-1.8,3.9-1.8,5.8c0,1.4,0.2,2.6,0.1,3.8l-0.8,0.6l-6.2,0.8l0-0.2
		c0-0.8-0.2-1.9-0.6-2.6c-0.8-1.1-1.9-0.5-3-0.7c-1.5-0.3-0.7-1.3-0.8-2.3c0-0.2,0-0.5-0.1-0.7c-0.1-0.2-0.5-0.2-0.5-0.4
		c-0.1-0.5,0.6-0.5,0.7-0.8c-0.2-0.2-0.9-0.2-1-0.4c-0.3-0.4,0.2-1-0.3-1.3c-0.2-0.2-0.7-0.1-1-0.2c-0.3-0.1-0.6-0.3-0.8-0.5
		c-0.1-0.7,0.4-1.5,0.6-2.2c0.2-1.1,0.4-2.2,0.4-3.4c0-1.3,0.1-2.6,0.7-3.8c1-1.9,3.5-4.4,8.3-4.3c0,0,0,0,0,0c0,0,0.1,0,0.1,0l0,0
		c4.4,0.1,7.7,3.6,7.7,7.9C32.9,14.9,32.3,16.5,31.2,17.9L31.2,17.9z"/>
</g>
</svg>
