<?xml version="1.0" encoding="utf-8"?>
<!-- Generator: Adobe Illustrator 18.0.0, SVG Export Plug-In . SVG Version: 6.00 Build 0)  -->
<!DOCTYPE svg PUBLIC "-//W3C//DTD SVG 1.1//EN" "http://www.w3.org/Graphics/SVG/1.1/DTD/svg11.dtd">
<svg version="1.1" id="Layer_1" xmlns="http://www.w3.org/2000/svg" xmlns:xlink="http://www.w3.org/1999/xlink" x="0px" y="0px"
	 viewBox="0 0 48 48" enable-background="new 0 0 48 48" xml:space="preserve">
<g>
	<path fill="#F04B36" d="M31,17.7c-2.7,0-5.3,1.1-7.2,3c-1.9,1.9-3,4.5-3,7.2c0,2.7,1.1,5.3,3,7.2c1.9,1.9,4.5,3,7.2,3
		c2.7,0,5.3-1.1,7.2-3c1.9-1.9,3-4.5,3-7.2c0-2.7-1.1-5.3-3-7.2C36.3,18.8,33.7,17.7,31,17.7z"/>
	<path fill="#0DB89A" d="M18.2,42.7l3.7-3.7l-2-2l-5.7,5.7L18.2,42.7l-2.5,2.5c-0.5,0.5-1.5,0.5-2,0c-0.3-0.3-0.4-0.6-0.4-1
		c0-0.4,0.1-0.7,0.4-1l0.4-0.4l0,0h-0.4v-2.3l-1.4,1.4c0,0,0,0-0.1,0.1V0.7c0-0.1-0.1-0.2-0.2-0.2H5.4c-2.5,0-4.5,2-4.5,4.4v33.4
		c0,2.4,2,4.4,4.5,4.4h6.3c-0.2,0.4-0.3,0.9-0.3,1.4c0,0.9,0.4,1.7,1,2.4c0.6,0.6,1.5,1,2.4,1c0.9,0,1.7-0.4,2.4-1l3.8-3.8H18.2z"/>
	<path fill="#F7A93B" d="M42.6,0.5H14c-0.1,0-0.2,0.1-0.2,0.2v39.6l5.5-5.5c0.4-0.4,1-0.4,1.4,0l3.4,3.4c0.2,0.2,0.3,0.4,0.3,0.7
		c0,0.3-0.1,0.5-0.3,0.7l-3,3h21.7c2.5,0,4.5-2,4.5-4.4V4.9C47.1,2.5,45.1,0.5,42.6,0.5z M20.8,5.8h18.9c0.5,0,1,0.4,1,1
		c0,0.5-0.4,1-1,1H20.8c-0.5,0-1-0.4-1-1C19.8,6.2,20.3,5.8,20.8,5.8z M20.8,11.9h18.9c0.5,0,1,0.4,1,1c0,0.5-0.4,1-1,1H20.8
		c-0.5,0-1-0.4-1-1C19.8,12.3,20.3,11.9,20.8,11.9z M39.6,36.5C37.3,38.8,34.2,40,31,40c-3.2,0-6.3-1.3-8.6-3.6
		c-2.3-2.3-3.6-5.3-3.6-8.6c0-3.2,1.3-6.3,3.6-8.6c2.3-2.3,5.3-3.6,8.6-3.6c3.2,0,6.3,1.3,8.6,3.6c2.3,2.3,3.6,5.3,3.6,8.6
		C43.1,31.1,41.9,34.2,39.6,36.5z"/>
</g>
</svg>
