<?xml version="1.0" encoding="utf-8"?>
<!-- Generator: Adobe Illustrator 18.0.0, SVG Export Plug-In . SVG Version: 6.00 Build 0)  -->
<!DOCTYPE svg PUBLIC "-//W3C//DTD SVG 1.1//EN" "http://www.w3.org/Graphics/SVG/1.1/DTD/svg11.dtd">
<svg version="1.1" id="Layer_1" xmlns="http://www.w3.org/2000/svg" xmlns:xlink="http://www.w3.org/1999/xlink" x="0px" y="0px"
	 viewBox="0 0 48 48" enable-background="new 0 0 48 48" xml:space="preserve">
<g>
	<path fill="#394751" d="M42.2,5.8c-3.4-3.4-7.9-5.3-12.7-5.3c-4.8,0-9.3,1.9-12.7,5.3c-3.4,3.4-5.3,7.9-5.3,12.7
		c0,4.8,1.9,9.3,5.3,12.7c3.4,3.4,7.9,5.3,12.7,5.3c4.8,0,9.3-1.9,12.7-5.3C49.2,24.1,49.2,12.7,42.2,5.8z M40.9,29.8
		c-3,3-7,4.7-11.3,4.7c-4.3,0-8.3-1.7-11.3-4.7c-3-3-4.7-7-4.7-11.3c0-4.3,1.7-8.3,4.7-11.3c3-3,7-4.7,11.3-4.7
		c4.3,0,8.3,1.7,11.3,4.7C47.1,13.4,47.1,23.5,40.9,29.8z"/>
	<path fill="#F04B36" d="M30.7,6.9L30.7,6.9c0,0-0.1,0-0.1,0c0,0,0,0,0,0c-4.7-0.1-7.1,2.3-8.1,4.2c-0.6,1.1-0.6,2.4-0.6,3.7
		c0,1.1-0.2,2.2-0.4,3.3c-0.1,0.7-0.7,1.4-0.5,2.2c0.3,0.2,0.5,0.4,0.8,0.5c0.3,0.1,0.7,0,1,0.2c0.5,0.3,0,0.9,0.3,1.3
		c0.1,0.2,0.8,0.3,1,0.4c-0.1,0.3-0.8,0.3-0.7,0.8c0,0.2,0.4,0.2,0.5,0.4c0.1,0.2,0.1,0.4,0.1,0.7c0,0.9-0.7,2,0.8,2.2
		c1.2,0.2,2.2-0.4,3,0.7c0.5,0.7,0.7,1.7,0.6,2.5l0,0.2l6-0.8l0.7-0.6c0-1.2-0.1-2.3-0.1-3.7c0-1.9,0.4-3.7,1.8-5.6l0,0
		c1-1.3,1.6-2.9,1.6-4.7C38.2,10.3,34.9,6.9,30.7,6.9z M32.2,15.5c-0.1,0.2-0.2,0.4-0.3,0.6c-0.1,0.2-0.3,0.3-0.6,0.4
		c-0.2,0.1-0.5,0.2-0.8,0.3l0,1c0,0,0,0,0,0.1c0,0,0,0,0,0c0,0,0,0-0.1,0c0,0-0.1,0-0.1,0c-0.1,0-0.1,0-0.2,0c0,0-0.1,0-0.1,0
		c0,0,0,0-0.1,0c0,0,0,0,0-0.1l0-1c-0.1,0-0.3,0-0.4,0c-0.1,0-0.2,0-0.3,0c-0.1,0-0.2,0-0.3-0.1c-0.1,0-0.1-0.1-0.2-0.1
		c0,0-0.1-0.1-0.1-0.1c0,0,0-0.1,0-0.2c0-0.1,0-0.1,0-0.2c0,0,0-0.1,0-0.1c0,0,0-0.1,0-0.1c0,0,0,0,0.1,0c0,0,0.1,0,0.2,0
		c0.1,0,0.2,0.1,0.3,0.1c0.1,0,0.3,0.1,0.5,0.1c0.2,0,0.4,0,0.6,0c0.4-0.1,0.7-0.2,0.9-0.4c0.2-0.2,0.3-0.4,0.2-0.7
		c0-0.2-0.1-0.3-0.2-0.4c-0.1-0.1-0.2-0.2-0.4-0.3c-0.1-0.1-0.3-0.1-0.5-0.2c-0.2,0-0.4-0.1-0.5-0.1c-0.2,0-0.4-0.1-0.5-0.1
		c-0.2-0.1-0.3-0.1-0.5-0.2c-0.1-0.1-0.3-0.2-0.4-0.4c-0.1-0.2-0.2-0.4-0.2-0.6c0-0.2,0-0.4,0-0.6c0-0.2,0.1-0.3,0.2-0.5
		c0.1-0.1,0.3-0.3,0.5-0.4c0.2-0.1,0.4-0.2,0.7-0.2l0-0.9c0,0,0,0,0-0.1c0,0,0,0,0,0c0,0,0,0,0.1,0c0,0,0.1,0,0.1,0
		c0.1,0,0.1,0,0.2,0c0,0,0.1,0,0.1,0c0,0,0,0,0,0c0,0,0,0,0,0.1l0,0.9c0.1,0,0.2,0,0.3,0c0.1,0,0.2,0,0.3,0c0.1,0,0.2,0,0.2,0.1
		c0.1,0,0.1,0,0.2,0.1c0,0,0,0,0.1,0.1c0,0,0,0,0,0.1c0,0,0,0.1,0,0.1c0,0,0,0.1,0,0.1c0,0.1,0,0.1,0,0.1c0,0,0,0.1,0,0.1
		c0,0,0,0,0,0.1c0,0,0,0-0.1,0c0,0-0.1,0-0.2,0c-0.1,0-0.2-0.1-0.3-0.1c-0.1,0-0.2-0.1-0.4-0.1c-0.1,0-0.3,0-0.5,0
		c-0.2,0-0.4,0.1-0.5,0.1c-0.1,0.1-0.2,0.1-0.3,0.2c-0.1,0.1-0.1,0.2-0.2,0.3c0,0.1,0,0.2,0,0.3c0,0.2,0.1,0.3,0.2,0.4
		c0.1,0.1,0.2,0.2,0.4,0.3c0.1,0.1,0.3,0.1,0.5,0.2c0.2,0,0.4,0.1,0.5,0.1c0.2,0,0.4,0.1,0.5,0.1c0.2,0.1,0.3,0.1,0.5,0.2
		c0.1,0.1,0.3,0.2,0.4,0.4c0.1,0.2,0.2,0.4,0.2,0.6C32.3,15.1,32.2,15.3,32.2,15.5z"/>
	<path fill="#4DA0D8" d="M12.5,30.4c-0.1-0.1-0.3-0.1-0.3,0L1.7,40.9c-0.7,0.7-1.1,1.7-1.1,2.7c0,1,0.4,2,1.1,2.7
		c0.7,0.7,1.7,1.1,2.7,1.1c1,0,2-0.4,2.7-1.1l10.4-10.4c0,0,0.1-0.1,0.1-0.2c0-0.1,0-0.1-0.1-0.2L12.5,30.4z"/>
</g>
</svg>
