<?xml version="1.0" encoding="utf-8"?>
<!-- Generator: Adobe Illustrator 18.0.0, SVG Export Plug-In . SVG Version: 6.00 Build 0)  -->
<!DOCTYPE svg PUBLIC "-//W3C//DTD SVG 1.1//EN" "http://www.w3.org/Graphics/SVG/1.1/DTD/svg11.dtd">
<svg version="1.1" id="Layer_1" xmlns="http://www.w3.org/2000/svg" xmlns:xlink="http://www.w3.org/1999/xlink" x="0px" y="0px"
	 viewBox="0 0 48 48" enable-background="new 0 0 48 48" xml:space="preserve">
<g>
	<path fill="#F7A93B" d="M9.5,16.9c2.9,0,5.2-2.3,5.2-5.2c0-2.9-2.3-5.2-5.2-5.2c-2.9,0-5.2,2.3-5.2,5.2C4.3,14.6,6.7,16.9,9.5,16.9
		z"/>
	<path fill="#CFD0D1" d="M9.5,18.6c-5,0-9,4.7-9,10.5c0,0.1,0.1,0.2,0.2,0.2h17.6c0.1,0,0.2-0.1,0.2-0.2
		C18.6,23.3,14.5,18.6,9.5,18.6z"/>
	<path fill="#F7A93B" d="M40.4,8.7c2.2,0,4.1-1.8,4.1-4.1c0-2.3-1.8-4.1-4.1-4.1c-2.2,0-4.1,1.8-4.1,4.1C36.4,6.8,38.2,8.7,40.4,8.7
		z"/>
	<path fill="#0DB89A" d="M33.6,20.2h13.6c0.1,0,0.2-0.1,0.2-0.2c0-4.5-3.2-8.2-7.1-8.2c-3.9,0-7,3.7-7,8.2
		C33.4,20.1,33.5,20.2,33.6,20.2z"/>
	<path fill="#F7A93B" d="M36.4,31.9c0,2.3,1.8,4.1,4.1,4.1c2.2,0,4.1-1.8,4.1-4.1c0-2.3-1.8-4.1-4.1-4.1
		C38.2,27.8,36.4,29.7,36.4,31.9z"/>
	<path fill="#4DA0D8" d="M40.4,39c-3.9,0-7,3.7-7,8.2c0,0.1,0.1,0.2,0.2,0.2h13.6c0.1,0,0.2-0.1,0.2-0.2C47.5,42.7,44.3,39,40.4,39z
		"/>
	<path fill="#D14D37" d="M32.3,37.8H27V12.1h5c0.5,0,1-0.4,1-1c0-0.5-0.4-1-1-1h-6c-0.5,0-1,0.4-1,1V23h-4.9c-0.5,0-1,0.4-1,1
		c0,0.5,0.4,1,1,1H25v13.8c0,0.5,0.4,1,1,1h6.3c0.5,0,1-0.4,1-1C33.3,38.2,32.9,37.8,32.3,37.8z"/>
</g>
</svg>
