<?xml version="1.0" encoding="utf-8"?>
<!-- Generator: Adobe Illustrator 18.0.0, SVG Export Plug-In . SVG Version: 6.00 Build 0)  -->
<!DOCTYPE svg PUBLIC "-//W3C//DTD SVG 1.1//EN" "http://www.w3.org/Graphics/SVG/1.1/DTD/svg11.dtd">
<svg version="1.1" id="Layer_1" xmlns="http://www.w3.org/2000/svg" xmlns:xlink="http://www.w3.org/1999/xlink" x="0px" y="0px"
	 viewBox="0 0 48 48" enable-background="new 0 0 48 48" xml:space="preserve">
<g>
	<path fill="#FFCD74" d="M24,9.3c2.5,0,4.5-2,4.5-4.4c0-2.4-2-4.4-4.5-4.4c-2.5,0-4.5,2-4.5,4.4C19.5,7.3,21.5,9.3,24,9.3z"/>
	<path fill="#E77528" d="M24,10.7c-4.3,0-7.7,3.2-7.7,7.2c0,0.1,0.1,0.2,0.2,0.2h15c0.1,0,0.2-0.1,0.2-0.2
		C31.7,13.9,28.3,10.7,24,10.7z"/>
	<path fill="#FFCD74" d="M6.6,38.6c1.9,0,3.5-1.6,3.5-3.5c0-1.9-1.6-3.5-3.5-3.5c-1.9,0-3.5,1.6-3.5,3.5C3,37,4.6,38.6,6.6,38.6z"/>
	<path fill="#4DA0D8" d="M6.6,41.1c-3.3,0-6.1,2.8-6.1,6.2c0,0.1,0.1,0.2,0.2,0.2h11.6c0.1,0,0.2-0.1,0.2-0.2
		C12.6,43.8,9.9,41.1,6.6,41.1z"/>
	<path fill="#FFCD74" d="M27.5,35.1c0-1.9-1.6-3.5-3.5-3.5c-1.9,0-3.5,1.6-3.5,3.5c0,1.9,1.6,3.5,3.5,3.5
		C25.9,38.6,27.5,37,27.5,35.1z"/>
	<path fill="#0DB89A" d="M24,41.1c-3.3,0-6.1,2.8-6.1,6.2c0,0.1,0.1,0.2,0.2,0.2h11.6c0.1,0,0.2-0.1,0.2-0.2
		C30.1,43.8,27.3,41.1,24,41.1z"/>
	<path fill="#FFCD74" d="M41.4,38.6c1.9,0,3.5-1.6,3.5-3.5c0-1.9-1.6-3.5-3.5-3.5c-1.9,0-3.5,1.6-3.5,3.5
		C37.9,37,39.5,38.6,41.4,38.6z"/>
	<path fill="#06728D" d="M41.4,41.1c-3.3,0-6.1,2.8-6.1,6.2c0,0.1,0.1,0.2,0.2,0.2h11.6c0.1,0,0.2-0.1,0.2-0.2
		C47.5,43.8,44.8,41.1,41.4,41.1z"/>
	<path fill="#0DB89A" d="M41.7,23.7H25v-3.5c0-0.5-0.4-1-1-1s-1,0.4-1,1v3.5H6.3c-0.5,0-1,0.4-1,1v4.2c0,0.5,0.4,1,1,1
		c0.5,0,1-0.4,1-1v-3.2H23v3.2c0,0.5,0.4,1,1,1s1-0.4,1-1v-3.2h15.8v3.2c0,0.5,0.4,1,1,1c0.5,0,1-0.4,1-1v-4.2
		C42.7,24.1,42.3,23.7,41.7,23.7z"/>
</g>
</svg>
