<?xml version="1.0" encoding="utf-8"?>
<!-- Generator: Adobe Illustrator 18.0.0, SVG Export Plug-In . SVG Version: 6.00 Build 0)  -->
<!DOCTYPE svg PUBLIC "-//W3C//DTD SVG 1.1//EN" "http://www.w3.org/Graphics/SVG/1.1/DTD/svg11.dtd">
<svg version="1.1" id="Layer_1" xmlns="http://www.w3.org/2000/svg" xmlns:xlink="http://www.w3.org/1999/xlink" x="0px" y="0px"
	 viewBox="0 0 48 48" enable-background="new 0 0 48 48" xml:space="preserve">
<g>
	<path fill="#F04B36" d="M24,6c-5.8,0-10.4,4.7-10.4,10.4c0,5.8,4.7,10.4,10.4,10.4c5.8,0,10.4-4.7,10.4-10.4C34.4,10.7,29.8,6,24,6
		z M28.8,20.1c-0.1,0.5-0.4,0.9-0.7,1.2c-0.3,0.4-0.8,0.7-1.3,0.9c-0.5,0.3-1.1,0.4-1.8,0.6l0.1,2.2c0,0,0,0.1,0,0.1
		c0,0,0,0.1-0.1,0.1c0,0-0.1,0.1-0.2,0.1c-0.1,0-0.2,0-0.3,0.1c-0.2,0-0.3,0-0.4,0c-0.1,0-0.2,0-0.2,0c-0.1,0-0.1,0-0.1-0.1
		c0,0,0-0.1,0-0.1l-0.1-2.2c-0.3,0-0.6,0-0.9,0c-0.3,0-0.5-0.1-0.8-0.1c-0.2,0-0.4-0.1-0.6-0.2c-0.2-0.1-0.3-0.1-0.4-0.2
		c-0.1-0.1-0.1-0.1-0.2-0.3c0-0.1-0.1-0.3-0.1-0.5c0-0.1,0-0.3,0-0.4c0-0.1,0-0.2,0-0.2c0-0.1,0-0.1,0.1-0.1c0,0,0.1,0,0.2-0.1
		c0.1,0,0.2,0,0.4,0.1c0.2,0.1,0.4,0.2,0.7,0.2c0.3,0.1,0.6,0.1,1,0.2c0.4,0.1,0.9,0,1.4,0c0.9-0.1,1.6-0.4,2.1-0.8
		c0.4-0.4,0.6-1,0.5-1.6c-0.1-0.4-0.2-0.7-0.4-0.9c-0.2-0.2-0.5-0.4-0.8-0.6c-0.3-0.2-0.7-0.3-1.1-0.4c-0.4-0.1-0.8-0.2-1.2-0.3
		c-0.4-0.1-0.8-0.2-1.2-0.3c-0.4-0.1-0.8-0.3-1.1-0.5c-0.3-0.2-0.6-0.5-0.8-0.9c-0.2-0.4-0.4-0.8-0.5-1.4c-0.1-0.4,0-0.9,0.1-1.3
		c0.1-0.4,0.3-0.8,0.6-1.1c0.3-0.3,0.6-0.6,1.1-0.9c0.4-0.2,1-0.4,1.6-0.5l-0.1-2c0,0,0-0.1,0-0.1c0,0,0-0.1,0.1-0.1
		c0,0,0.1-0.1,0.2-0.1c0.1,0,0.2,0,0.3-0.1c0.1,0,0.3,0,0.4,0c0.1,0,0.2,0,0.2,0c0.1,0,0.1,0.1,0.1,0.1c0,0,0,0.1,0,0.1l0,2
		c0.2,0,0.4,0,0.6,0c0.2,0,0.4,0.1,0.6,0.1c0.2,0,0.4,0.1,0.5,0.1c0.2,0.1,0.3,0.1,0.3,0.2c0.1,0,0.1,0.1,0.1,0.1
		c0,0,0.1,0.1,0.1,0.2c0,0.1,0,0.1,0.1,0.2c0,0.1,0,0.2,0.1,0.3c0,0.1,0,0.2,0,0.3c0,0.1,0,0.2,0,0.2c0,0.1,0,0.1-0.1,0.1
		c0,0-0.1,0.1-0.1,0.1c-0.1,0-0.2,0-0.4-0.1c-0.2-0.1-0.4-0.1-0.6-0.2c-0.3-0.1-0.6-0.1-0.9-0.2c-0.3,0-0.7,0-1.1,0
		c-0.4,0.1-0.8,0.2-1.1,0.3c-0.3,0.1-0.5,0.3-0.7,0.5c-0.2,0.2-0.3,0.4-0.4,0.6c-0.1,0.2-0.1,0.5,0,0.7c0.1,0.4,0.2,0.7,0.4,1
		c0.2,0.2,0.5,0.4,0.8,0.6c0.3,0.1,0.7,0.3,1.1,0.3c0.4,0.1,0.8,0.2,1.2,0.3c0.4,0.1,0.8,0.2,1.2,0.3c0.4,0.1,0.8,0.3,1.1,0.5
		c0.3,0.2,0.6,0.5,0.8,0.9c0.2,0.4,0.4,0.8,0.5,1.4C29,19.1,28.9,19.6,28.8,20.1z"/>
	<path fill="#F7A93B" d="M38.3,25.6c2-2.6,3.2-5.9,3.2-9.5c0-8.5-6.5-15.4-15.2-15.5l0,0c-0.1,0-0.2,0-0.2,0c0,0,0,0,0,0v0
		C16.5,0.3,11.7,5.2,9.7,9c-1.2,2.3-1.3,4.8-1.3,7.4c0,2.3-0.4,4.5-0.8,6.7c-0.3,1.5-1.3,2.9-1.1,4.4c0.5,0.3,1,0.8,1.6,1
		c0.5,0.2,1.5,0,1.9,0.3c0.9,0.7,0,1.8,0.6,2.6c0.3,0.4,1.6,0.5,2,0.9c-0.3,0.6-1.6,0.6-1.4,1.5c0.1,0.4,0.8,0.5,1,0.8
		c0.2,0.4,0.1,0.9,0.1,1.3c0,1.9-1.3,4,1.5,4.5c2.4,0.4,4.5-0.8,6,1.5c0.9,1.4,1.3,3.4,1.3,5.1l-0.1,0.4l12.2-1.6l1.5-1.3
		c0.1-2.4-0.2-4.8-0.2-7.5C34.7,33.3,35.5,29.5,38.3,25.6L38.3,25.6z M24,28.8c-6.8,0-12.4-5.6-12.4-12.4C11.6,9.6,17.2,4,24,4
		c6.8,0,12.4,5.6,12.4,12.4C36.4,23.3,30.8,28.8,24,28.8z"/>
</g>
</svg>
