<?xml version="1.0" encoding="utf-8"?>
<!-- Generator: Adobe Illustrator 18.0.0, SVG Export Plug-In . SVG Version: 6.00 Build 0)  -->
<!DOCTYPE svg PUBLIC "-//W3C//DTD SVG 1.1//EN" "http://www.w3.org/Graphics/SVG/1.1/DTD/svg11.dtd">
<svg version="1.1" id="Layer_1" xmlns="http://www.w3.org/2000/svg" xmlns:xlink="http://www.w3.org/1999/xlink" x="0px" y="0px"
	 viewBox="0 0 48 48" enable-background="new 0 0 48 48" xml:space="preserve">
<g>
	<path fill="#0DB89A" d="M29.3,39.6c-2.2,1-4.5,1.4-7,1.4c-6.2,0-11.9-3.3-15.1-8.6l2.9,1.1c0.4,0.2,0.9,0,1-0.5
		c0.2-0.4,0-0.9-0.5-1l-4.6-1.8c-0.2-0.1-0.5-0.1-0.7,0c-0.2,0.1-0.4,0.3-0.4,0.5l-1.4,5.3c-0.1,0.4,0.1,0.9,0.6,1
		c0.1,0,0.1,0,0.2,0c0.4,0,0.7-0.2,0.8-0.6l0.8-3c3.5,5.6,9.7,9.1,16.3,9.1c2.6,0,5.2-0.5,7.6-1.6c0.4-0.2,0.6-0.7,0.4-1.1
		C30.2,39.6,29.7,39.4,29.3,39.6z"/>
	<path fill="#F04B36" d="M16.2,7.2c2-0.7,4.1-1.1,6.2-1.1c6.3,0,12,3.3,15.2,8.8l-2.6-1c-0.4-0.2-0.9,0-1,0.5c-0.2,0.4,0,0.9,0.5,1
		l4.6,1.8c0.1,0,0.2,0.1,0.3,0.1c0.1,0,0.2,0,0.4-0.1c0.2-0.1,0.4-0.3,0.4-0.5l1.4-5.3c0.1-0.4-0.1-0.9-0.6-1
		c-0.4-0.1-0.9,0.1-1,0.6L39,14.1c-3.4-6-9.7-9.6-16.6-9.6c-2.3,0-4.6,0.4-6.8,1.2c-0.4,0.2-0.6,0.6-0.5,1
		C15.3,7.1,15.8,7.3,16.2,7.2z"/>
	<path fill="#0DB89A" d="M45.9,32.6c1-1.3,1.6-3,1.6-4.8c0-4.3-3.3-7.7-7.6-7.8l0,0c0,0-0.1,0-0.1,0c0,0,0,0,0,0v0
		c-4.8-0.1-7.2,2.3-8.2,4.2c-0.6,1.2-0.7,2.4-0.7,3.7c0,1.1-0.2,2.2-0.4,3.3c-0.1,0.7-0.7,1.5-0.5,2.2c0.3,0.2,0.5,0.4,0.8,0.5
		c0.3,0.1,0.8,0,1,0.2c0.5,0.3,0,0.9,0.3,1.3c0.1,0.2,0.8,0.3,1,0.4c-0.1,0.3-0.8,0.3-0.7,0.8c0,0.2,0.4,0.2,0.5,0.4
		c0.1,0.2,0.1,0.5,0.1,0.7c0,1-0.7,2,0.8,2.3c1.2,0.2,2.3-0.4,3,0.7c0.5,0.7,0.7,1.7,0.6,2.6l0,0.2l6.1-0.8l0.7-0.6
		c0-1.2-0.1-2.4-0.1-3.8C44.1,36.5,44.5,34.5,45.9,32.6L45.9,32.6z"/>
	<path fill="#F04B36" d="M3.9,24.6c0,1.4-0.2,2.6-0.1,3.8L4.6,29l6.1,0.8l0-0.2c0-0.8,0.2-1.9,0.6-2.6c0.8-1.1,1.8-0.5,3-0.7
		c1.4-0.3,0.7-1.3,0.8-2.3c0-0.2,0-0.5,0.1-0.7c0.1-0.2,0.5-0.2,0.5-0.4c0.1-0.5-0.6-0.5-0.7-0.8c0.2-0.2,0.9-0.2,1-0.4
		c0.3-0.4-0.2-1,0.3-1.3c0.2-0.2,0.7-0.1,1-0.2c0.3-0.1,0.6-0.3,0.8-0.5c0.1-0.7-0.4-1.5-0.5-2.2c-0.2-1.1-0.4-2.2-0.4-3.3
		c0-1.3-0.1-2.6-0.7-3.7c-1-1.9-3.4-4.3-8.2-4.2v0c0,0,0,0,0,0c0,0-0.1,0-0.1,0l0,0c-4.3,0.1-7.6,3.5-7.6,7.8c0,1.8,0.6,3.5,1.6,4.8
		l0,0C3.5,20.8,3.9,22.7,3.9,24.6z"/>
</g>
</svg>
