<?xml version="1.0" encoding="utf-8"?>
<!-- Generator: Adobe Illustrator 18.0.0, SVG Export Plug-In . SVG Version: 6.00 Build 0)  -->
<!DOCTYPE svg PUBLIC "-//W3C//DTD SVG 1.1//EN" "http://www.w3.org/Graphics/SVG/1.1/DTD/svg11.dtd">
<svg version="1.1" id="Layer_1" xmlns="http://www.w3.org/2000/svg" xmlns:xlink="http://www.w3.org/1999/xlink" x="0px" y="0px"
	 viewBox="0 0 48 48" enable-background="new 0 0 48 48" xml:space="preserve">
<g>
	<path fill="#CFD0D1" d="M18.5,11c0.1,0.2,0.3,0.3,0.4,0.3h9.6c0.2,0,0.3-0.1,0.4-0.2l5.8-9.8c0.1-0.2,0.1-0.3,0-0.5
		c-0.1-0.2-0.3-0.2-0.4-0.2H13.7c-0.2,0-0.3,0.1-0.4,0.2c-0.1,0.1-0.1,0.3,0,0.5L18.5,11z"/>
	<path fill="#E77528" d="M43.9,37.4c-0.7-3-2.2-5.7-3.6-8.3L40,28.4c-2-3.7-3.8-7-6.4-10c-0.1-0.2-0.3-0.3-0.4-0.5
		c-1-1.2-2.3-2.8-3.8-3.3c-0.6-0.2-1.5-0.3-2.6-0.3c-1,0-2,0.1-3,0.1c-0.8,0.1-1.6,0.1-2.3,0.1c-0.4,0-0.9,0-1.4-0.1
		c-1.1-0.1-2.3-0.1-3.1,0.1c-2.3,0.5-3.9,3.1-4.9,4.8L12,19.6c-0.4,0.6-0.9,1.3-1.3,1.9c-0.6,0.7-1.1,1.5-1.6,2.3
		c-0.4,0.8-0.7,1.6-1.1,2.4c-0.2,0.6-0.5,1.2-0.8,1.9c-0.2,0.3-0.3,0.7-0.5,1c-0.7,1.4-1.4,2.8-1.8,4.3c-0.7,2.4-1.7,6.8-0.7,9.6
		c1.5,3.9,8.7,4.2,10.9,4.2h0.1c2.1,0,4.2,0.1,6.2,0.2c2,0.1,4.1,0.2,6.2,0.2c0.7,0,1.4,0,2.1,0c3.2-0.1,7.2-0.3,10.2-1.4
		C43.2,44.8,44.7,40.5,43.9,37.4z"/>
</g>
</svg>
