<?xml version="1.0" encoding="utf-8"?>
<!-- Generator: Adobe Illustrator 18.0.0, SVG Export Plug-In . SVG Version: 6.00 Build 0)  -->
<!DOCTYPE svg PUBLIC "-//W3C//DTD SVG 1.1//EN" "http://www.w3.org/Graphics/SVG/1.1/DTD/svg11.dtd">
<svg version="1.1" id="Layer_1" xmlns="http://www.w3.org/2000/svg" xmlns:xlink="http://www.w3.org/1999/xlink" x="0px" y="0px"
	 viewBox="0 0 48 48" enable-background="new 0 0 48 48" xml:space="preserve">
<g>
	<path fill="#E77528" d="M46.1,10H10.8L8.9,2.9c-0.1-0.5-0.5-0.9-1.1-1L2.2,0.5C1.5,0.4,0.7,0.9,0.5,1.6C0.4,2.4,0.8,3.2,1.6,3.4
		l4.8,1.1l7.3,28.2c0.2,0.6,0.7,1.1,1.4,1.1h21.6L35.5,37H15.2c-0.8,0-1.4,0.7-1.4,1.5c0,0.8,0.6,1.5,1.4,1.5h21.3
		c0.6,0,1.1-0.4,1.3-0.9l2.3-6.1c0.2-0.4,0.1-1-0.2-1.3c-0.3-0.4-0.7-0.6-1.2-0.6H16.2l-1-3.8h25.6c0.8,0,1.4-0.7,1.4-1.5
		c0-0.8-0.6-1.5-1.4-1.5H14.4L13.4,20h29.9c0.8,0,1.4-0.7,1.4-1.5s-0.6-1.5-1.4-1.5H12.6l-1.1-4.2h34.6c0.8,0,1.4-0.7,1.4-1.5
		C47.5,10.7,46.9,10,46.1,10z"/>
	<ellipse fill="#F04B36" cx="18.5" cy="44.8" rx="2.6" ry="2.7"/>
	<ellipse fill="#F04B36" cx="34" cy="44.8" rx="2.6" ry="2.7"/>
</g>
</svg>
