<?xml version="1.0" encoding="utf-8"?>
<!-- Generator: Adobe Illustrator 18.0.0, SVG Export Plug-In . SVG Version: 6.00 Build 0)  -->
<!DOCTYPE svg PUBLIC "-//W3C//DTD SVG 1.1//EN" "http://www.w3.org/Graphics/SVG/1.1/DTD/svg11.dtd">
<svg version="1.1" id="Layer_1" xmlns="http://www.w3.org/2000/svg" xmlns:xlink="http://www.w3.org/1999/xlink" x="0px" y="0px"
	 viewBox="0 0 48 48" enable-background="new 0 0 48 48" xml:space="preserve">
<g>
	<path fill="#F04B36" d="M46.2,36.5L28.7,21.3c2.5-6,0.8-13-4-17.2c-3-2.6-6.8-3.8-10.7-3.5C10.1,0.9,6.5,2.7,4,5.8
		C-1.3,12-0.5,21.5,5.7,26.9c3,2.6,6.8,3.8,10.7,3.5c2.4-0.2,4.6-1,6.6-2.2l6,5.2l-4.2,5.1c0,0.1-0.1,0.1-0.1,0.2
		c0,0.1,0,0.1,0.1,0.2l4.4,3.8c0.1,0.1,0.3,0.1,0.4,0l2-2.4l2.3,2l-1.1,1.4c-0.1,0.1-0.1,0.3,0,0.4l4.1,3.6c0.1,0,0.1,0.1,0.2,0.1
		c0.1,0,0.1,0,0.2-0.1l3.3-4c0.7,0.6,1.7,0.9,2.6,0.8c0,0,0,0,0,0c1-0.1,1.9-0.6,2.5-1.3l0.9-1C47.9,40.3,47.8,37.8,46.2,36.5z
		 M15.5,15.8c-1.8,2.1-4,3.5-5.8,3.7C9,19.5,8.4,19.4,7.9,19c-0.7-0.7-1-1.8-0.7-3.4c0.3-1.6,1.2-3.3,2.5-4.8c1.8-2.1,4-3.5,5.8-3.7
		c0.8-0.1,1.4,0.1,1.8,0.5C19,9,18.2,12.7,15.5,15.8z"/>
</g>
</svg>
