<?xml version="1.0" encoding="utf-8"?>
<!-- Generator: Adobe Illustrator 18.0.0, SVG Export Plug-In . SVG Version: 6.00 Build 0)  -->
<!DOCTYPE svg PUBLIC "-//W3C//DTD SVG 1.1//EN" "http://www.w3.org/Graphics/SVG/1.1/DTD/svg11.dtd">
<svg version="1.1" id="Layer_1" xmlns="http://www.w3.org/2000/svg" xmlns:xlink="http://www.w3.org/1999/xlink" x="0px" y="0px"
	 viewBox="0 0 48 48" enable-background="new 0 0 48 48" xml:space="preserve">
<g>
	<path fill="#F04B36" d="M42.9,6.5l-3,3c1.2,2,0.6,5-1.6,7.1c-1.4,1.4-3.1,2.2-4.8,2.2c-0.9,0-1.6-0.2-2.3-0.6L29.4,20l13,13
		C48.9,24,49.3,13.6,42.9,6.5z"/>
	<path fill="#0DB89A" d="M33.6,16.8c1.1,0,2.4-0.6,3.4-1.6c1.6-1.6,2.1-4,0.9-5.1c-0.5-0.5-1.2-0.6-1.7-0.6c-1.1,0-2.4,0.6-3.4,1.6
		c-0.8,0.8-1.4,1.9-1.5,2.9c-0.1,0.9,0.1,1.7,0.6,2.2C32.4,16.7,33.1,16.8,33.6,16.8z"/>
	<path fill="#4DA0D8" d="M28,18.6l1.9-1.9c-0.5-0.9-0.7-2-0.5-3.1c0.2-1.4,1-2.9,2.1-4c1.4-1.4,3.1-2.2,4.8-2.2
		c0.9,0,1.6,0.2,2.3,0.6l3-3c-3.3-3-7.5-4.6-12.1-4.6c-4.9,0-9.9,1.8-14.4,5.2L28,18.6z"/>
	<path fill="#06728D" d="M27.3,20.7C27.3,20.7,27.3,20.7,27.3,20.7C27.3,20.7,27.3,20.7,27.3,20.7L13.4,6.9
		c-0.8,0.7-1.6,1.4-2.3,2.1C0.2,19.9-2.9,36,4.6,43.4c2.7,2.7,6.5,4.1,11.1,4.1c7.9,0,16.8-4.1,23.3-10.6c0.8-0.8,1.4-1.5,2.1-2.3
		L27.3,20.7z"/>
</g>
</svg>
