<?xml version="1.0" encoding="utf-8"?>
<!-- Generator: Adobe Illustrator 18.0.0, SVG Export Plug-In . SVG Version: 6.00 Build 0)  -->
<!DOCTYPE svg PUBLIC "-//W3C//DTD SVG 1.1//EN" "http://www.w3.org/Graphics/SVG/1.1/DTD/svg11.dtd">
<svg version="1.1" id="Layer_1" xmlns="http://www.w3.org/2000/svg" xmlns:xlink="http://www.w3.org/1999/xlink" x="0px" y="0px"
	 viewBox="0 0 48 48" enable-background="new 0 0 48 48" xml:space="preserve">
<g>
	<path fill="#F7A93B" d="M24,9.7c2.2,0,4-1.8,4-4c0-2.2-1.8-4-4-4c-2.2,0-4,1.8-4,4C20,7.9,21.8,9.7,24,9.7z"/>
	<path fill="#99BF5B" d="M17.9,23.6h12.3c0.1,0,0.2-0.1,0.2-0.2v-4.2c0-3.6-2.9-6.5-6.4-6.5s-6.4,2.9-6.4,6.5v4.2
		C17.6,23.5,17.7,23.6,17.9,23.6z"/>
	<path fill="#4DA0D8" d="M14.1,17.3H8v-3.6c0-0.1-0.1-0.2-0.2-0.2c-0.1,0-0.2,0-0.3,0.1l-7,7c-0.1,0.1-0.1,0.3,0,0.3l7,7
		c0,0,0.1,0.1,0.2,0.1c0,0,0.1,0,0.1,0C8,27.9,8,27.9,8,27.8v-3.6h6c0.1,0,0.2-0.1,0.2-0.2v-6.3C14.3,17.4,14.2,17.3,14.1,17.3z"/>
	<path fill="#F04B36" d="M47.4,20.5l-7-7c-0.1-0.1-0.2-0.1-0.3-0.1c-0.1,0-0.2,0.1-0.2,0.2v3.6h-6c-0.1,0-0.2,0.1-0.2,0.2v6.3
		c0,0.1,0.1,0.2,0.2,0.2h6v3.6c0,0.1,0.1,0.2,0.2,0.2c0,0,0.1,0,0.1,0c0.1,0,0.1,0,0.2-0.1l7-7C47.5,20.8,47.5,20.6,47.4,20.5z"/>
	<path fill="#06728D" d="M31,38.7h-3.6v-6c0-0.1-0.1-0.2-0.2-0.2h-6.3c-0.1,0-0.2,0.1-0.2,0.2v6H17c-0.1,0-0.2,0.1-0.2,0.2
		c0,0.1,0,0.2,0.1,0.3l7,7c0,0,0.1,0.1,0.2,0.1s0.1,0,0.2-0.1l7-7c0.1-0.1,0.1-0.2,0.1-0.3C31.2,38.7,31.1,38.7,31,38.7z"/>
</g>
</svg>
