<?xml version="1.0" encoding="utf-8"?>
<!-- Generator: Adobe Illustrator 18.0.0, SVG Export Plug-In . SVG Version: 6.00 Build 0)  -->
<!DOCTYPE svg PUBLIC "-//W3C//DTD SVG 1.1//EN" "http://www.w3.org/Graphics/SVG/1.1/DTD/svg11.dtd">
<svg version="1.1" id="Layer_1" xmlns="http://www.w3.org/2000/svg" xmlns:xlink="http://www.w3.org/1999/xlink" x="0px" y="0px"
	 viewBox="0 0 48 48" enable-background="new 0 0 48 48" xml:space="preserve">
<g>
	<polygon fill="#0DB89A" points="39.2,25.4 41.5,27.7 37.8,31.4 41.5,35.1 45.2,31.4 47.5,33.6 47.5,25.4 	"/>
	<polygon fill="#F04B36" points="22.4,7.9 26.1,4.2 22.3,0.5 18.6,4.2 16.3,1.9 16.3,10.1 24.6,10.1 	"/>
	<path fill="#4DA0D8" d="M29.4,32.3c-0.4,0.4-0.9,0.8-1.4,1.1l10.3,10.2c0,0,0.1-0.1,0.1-0.1l2.8-2.8L31.2,30.6L29.4,32.3z"/>
	<path fill="#4DA0D8" d="M15.8,18.8l1.7-1.7L7.4,7.1L4.6,9.9c0,0-0.1,0.1-0.1,0.1l10.3,10.2C15.1,19.7,15.4,19.2,15.8,18.8z"/>
	<path fill="#F7A93B" d="M20.1,32.3L15.8,28c-1.6-1.6-2.2-3.7-1.8-5.7L3.2,11.5c-4,5.4-3.5,13.1,1.4,17.9l14.1,14
		c4.9,4.9,12.7,5.3,18.1,1.4L25.9,34.1C23.9,34.4,21.7,33.8,20.1,32.3z"/>
</g>
</svg>
