<?xml version="1.0" encoding="utf-8"?>
<!-- Generator: Adobe Illustrator 18.0.0, SVG Export Plug-In . SVG Version: 6.00 Build 0)  -->
<!DOCTYPE svg PUBLIC "-//W3C//DTD SVG 1.1//EN" "http://www.w3.org/Graphics/SVG/1.1/DTD/svg11.dtd">
<svg version="1.1" id="Layer_1" xmlns="http://www.w3.org/2000/svg" xmlns:xlink="http://www.w3.org/1999/xlink" x="0px" y="0px"
	 viewBox="0 0 48 48" enable-background="new 0 0 48 48" xml:space="preserve">
<g>
	<path fill="#0DB89A" d="M0.5,13.1c0,0.5,0.4,1,1,1h4.1v-2H1.5C0.9,12.1,0.5,12.6,0.5,13.1z"/>
	<path fill="#0DB89A" d="M0.5,20.4c0,0.5,0.4,1,1,1h4.1v-2H1.5C0.9,19.4,0.5,19.8,0.5,20.4z"/>
	<path fill="#0DB89A" d="M0.5,27.6c0,0.5,0.4,1,1,1h4.1v-2H1.5C0.9,26.6,0.5,27.1,0.5,27.6z"/>
	<path fill="#0DB89A" d="M0.5,34.9c0,0.5,0.4,1,1,1h4.1v-2H1.5C0.9,33.9,0.5,34.3,0.5,34.9z"/>
	<path fill="#06728D" d="M5.6,5.6v6.6h5.5c0.5,0,1,0.4,1,1c0,0.5-0.4,1-1,1H5.6v5.3h5.5c0.5,0,1,0.4,1,1c0,0.5-0.4,1-1,1H5.6v5.3
		h5.5c0.5,0,1,0.4,1,1c0,0.5-0.4,1-1,1H5.6v5.3h5.5c0.5,0,1,0.4,1,1c0,0.5-0.4,1-1,1H5.6v6.6c0,2.8,2.2,5.1,5,5.1h5.9v-47h-5.9
		C7.8,0.5,5.6,2.8,5.6,5.6z"/>
	<path fill="#4DA0D8" d="M42.5,0.5H18.4v47h24.2c2.7,0,5-2.3,5-5.1V5.6C47.5,2.8,45.3,0.5,42.5,0.5z M39.6,27.7H25.9
		c-0.5,0-1-0.4-1-1c0-0.5,0.4-1,1-1h13.8c0.5,0,1,0.4,1,1C40.6,27.2,40.2,27.7,39.6,27.7z M39.6,21.4H25.9c-0.5,0-1-0.4-1-1
		c0-0.5,0.4-1,1-1h13.8c0.5,0,1,0.4,1,1C40.6,20.9,40.2,21.4,39.6,21.4z"/>
</g>
</svg>
