<?xml version="1.0" encoding="utf-8"?>
<!-- Generator: Adobe Illustrator 18.0.0, SVG Export Plug-In . SVG Version: 6.00 Build 0)  -->
<!DOCTYPE svg PUBLIC "-//W3C//DTD SVG 1.1//EN" "http://www.w3.org/Graphics/SVG/1.1/DTD/svg11.dtd">
<svg version="1.1" id="Layer_1" xmlns="http://www.w3.org/2000/svg" xmlns:xlink="http://www.w3.org/1999/xlink" x="0px" y="0px"
	 viewBox="0 0 48 48" enable-background="new 0 0 48 48" xml:space="preserve">
<g>
	<path fill="#06728D" d="M0.6,37.9c-0.1,0.1-0.1,0.3,0,0.3l9.2,9.2c0,0,0.1,0.1,0.2,0.1c0.1,0,0.1,0,0.2-0.1l7-7l-9.6-9.6L0.6,37.9z
		 M11,39.7c0.3-0.3,0.9-0.3,1.2,0c0.3,0.3,0.3,0.9,0,1.2c-0.3,0.3-0.9,0.3-1.2,0C10.7,40.6,10.7,40,11,39.7z M8.3,35.8
		c0.3,0.3,0.3,0.9,0,1.2c-0.3,0.3-0.9,0.3-1.2,0c-0.3-0.3-0.3-0.9,0-1.2C7.4,35.4,8,35.4,8.3,35.8z"/>
	<path fill="#E77528" d="M46.2,11.9L36.1,1.8c-0.8-0.8-2-1.3-3.2-1.3c-1.2,0-2.3,0.5-3.2,1.3l-21,21c-0.8,0.8-1.3,2-1.3,3.2
		c0,1.2,0.5,2.3,1.3,3.2l10.1,10.1c0.8,0.8,2,1.3,3.2,1.3c1.2,0,2.3-0.5,3.2-1.3l21-21C47.9,16.5,47.9,13.6,46.2,11.9z M27.7,27.5
		l-7.5-7.5L32.1,8l7.5,7.5L27.7,27.5z"/>
</g>
</svg>
