<?xml version="1.0" encoding="utf-8"?>
<!-- Generator: Adobe Illustrator 18.0.0, SVG Export Plug-In . SVG Version: 6.00 Build 0)  -->
<!DOCTYPE svg PUBLIC "-//W3C//DTD SVG 1.1//EN" "http://www.w3.org/Graphics/SVG/1.1/DTD/svg11.dtd">
<svg version="1.1" id="Layer_1" xmlns="http://www.w3.org/2000/svg" xmlns:xlink="http://www.w3.org/1999/xlink" x="0px" y="0px"
	 viewBox="0 0 48 48" enable-background="new 0 0 48 48" xml:space="preserve">
<g>
	<path fill="#F04B36" d="M26.4,0.5c-0.1,0-0.2,0.1-0.2,0.2v20.9c0,0.1,0.1,0.2,0.2,0.2h20.8c0.1,0,0.2-0.1,0.2-0.2
		C47.5,10,38,0.5,26.4,0.5z"/>
	<path fill="#F7A93B" d="M42.4,26.1H23.5l12,16.1c4.4-3.9,7.2-9.5,7.2-15.8C42.7,26.2,42.6,26.1,42.4,26.1z"/>
	<path fill="#4DA0D8" d="M21.8,5.5c0-0.1-0.1-0.2-0.2-0.2C10,5.3,0.5,14.7,0.5,26.4S10,47.5,21.6,47.5c4.7,0,9-1.5,12.4-4.1
		L21.8,26.1V5.5z"/>
</g>
</svg>
