<?xml version="1.0" encoding="utf-8"?>
<!-- Generator: Adobe Illustrator 18.0.0, SVG Export Plug-In . SVG Version: 6.00 Build 0)  -->
<!DOCTYPE svg PUBLIC "-//W3C//DTD SVG 1.1//EN" "http://www.w3.org/Graphics/SVG/1.1/DTD/svg11.dtd">
<svg version="1.1" id="Layer_1" xmlns="http://www.w3.org/2000/svg" xmlns:xlink="http://www.w3.org/1999/xlink" x="0px" y="0px"
	 viewBox="0 0 48 48" enable-background="new 0 0 48 48" xml:space="preserve">
<g>
	<path fill="#06728D" d="M13.3,43.7h21.4V10.8h-0.9V8.1c0-2.1-2-3.8-4.4-3.8H18.6c-2.5,0-4.4,1.7-4.4,3.8v2.7h-0.9V43.7z M17.2,8.1
		c0-0.3,0.6-0.8,1.5-0.8h10.7c0.9,0,1.5,0.5,1.5,0.8v2.7H17.2V8.1z"/>
	<rect x="36.7" y="10.8" fill="#0DB89A" width="2.7" height="32.9"/>
	<path fill="#06728D" d="M42.1,10.8h-0.7v32.9h0.7c3,0,5.4-2.4,5.4-5.4v-22C47.5,13.2,45.1,10.8,42.1,10.8z"/>
	<path fill="#06728D" d="M6.6,10.8H5.9c-3,0-5.4,2.4-5.4,5.4v22c0,3,2.4,5.4,5.4,5.4h0.7V10.8z"/>
	<rect x="8.6" y="10.8" fill="#0DB89A" width="2.7" height="32.9"/>
</g>
</svg>
