<?xml version="1.0" encoding="utf-8"?>
<!-- Generator: Adobe Illustrator 18.0.0, SVG Export Plug-In . SVG Version: 6.00 Build 0)  -->
<!DOCTYPE svg PUBLIC "-//W3C//DTD SVG 1.1//EN" "http://www.w3.org/Graphics/SVG/1.1/DTD/svg11.dtd">
<svg version="1.1" id="Layer_1" xmlns="http://www.w3.org/2000/svg" xmlns:xlink="http://www.w3.org/1999/xlink" x="0px" y="0px"
	 viewBox="0 0 48 48" enable-background="new 0 0 48 48" xml:space="preserve">
<g>
	<path fill="#0DB89A" d="M13.1,35.9c0.1,0,0.2-0.1,0.2-0.2V16.9c0-0.1-0.1-0.2-0.2-0.2H6.1c-0.1,0-0.2,0.1-0.2,0.2v18.8
		c0,0.1,0.1,0.2,0.2,0.2H13.1z"/>
	<path fill="#4DA0D8" d="M27.5,35.9c0.1,0,0.2-0.1,0.2-0.2V16.9c0-0.1-0.1-0.2-0.2-0.2h-7.1c-0.1,0-0.2,0.1-0.2,0.2v18.8
		c0,0.1,0.1,0.2,0.2,0.2H27.5z"/>
	<path fill="#F04B36" d="M41.9,35.9c0.1,0,0.2-0.1,0.2-0.2V16.9c0-0.1-0.1-0.2-0.2-0.2h-7.1c-0.1,0-0.2,0.1-0.2,0.2v18.8
		c0,0.1,0.1,0.2,0.2,0.2H41.9z"/>
	<path fill="#06728D" d="M46.5,39h-45c-0.1,0-0.2,0.1-0.2,0.2v8c0,0.1,0.1,0.2,0.2,0.2h45c0.1,0,0.2-0.1,0.2-0.2v-8
		C46.7,39.2,46.6,39,46.5,39z"/>
	<path fill="#F7A93B" d="M47.4,12.1L24.1,0.5c-0.1,0-0.2,0-0.2,0L0.6,12.1c-0.1,0.1-0.2,0.2-0.1,0.3c0,0.1,0.1,0.2,0.2,0.2h46.5
		c0.1,0,0.2-0.1,0.2-0.2C47.5,12.3,47.5,12.2,47.4,12.1z"/>
</g>
</svg>
