<?xml version="1.0" encoding="utf-8"?>
<!-- Generator: Adobe Illustrator 18.0.0, SVG Export Plug-In . SVG Version: 6.00 Build 0)  -->
<!DOCTYPE svg PUBLIC "-//W3C//DTD SVG 1.1//EN" "http://www.w3.org/Graphics/SVG/1.1/DTD/svg11.dtd">
<svg version="1.1" id="Layer_1" xmlns="http://www.w3.org/2000/svg" xmlns:xlink="http://www.w3.org/1999/xlink" x="0px" y="0px"
	 viewBox="0 0 48 48" enable-background="new 0 0 48 48" xml:space="preserve">
<g>
	<path fill="#ED5F54" d="M41.1,27.7c0-1.5-0.8-2.5-2.6-2.5c-0.4,0-0.7,0-1,0.1v5.1c0.2,0,0.5,0,0.8,0C40.2,30.5,41.1,29.5,41.1,27.7
		z"/>
	<path fill="#ED5F54" d="M28.4,26.5c-0.1-0.4-0.2-0.8-0.3-1.2h0c-0.1,0.4-0.2,0.8-0.3,1.2l-0.6,1.9H29L28.4,26.5z"/>
	<path fill="#ED5F54" d="M34.8,26.4c0-0.8-0.6-1.2-1.5-1.2c-0.4,0-0.7,0-0.8,0.1v2.4h0.8C34.2,27.6,34.8,27.1,34.8,26.4z"/>
	<path fill="#4DA0D8" d="M43.9,13.1L14.4,0.9c-1.4-0.6-2.9-0.6-4.3,0C8.6,1.6,7.5,2.7,6.9,4.2l-6,15.4c-0.6,1.5-0.5,3.2,0.1,4.6
		c0.4-3.9,3.7-7,7.7-7h31.8c2.8,0,5.2,1.5,6.6,3.8l0-0.1C48.3,17.8,46.8,14.4,43.9,13.1z"/>
	<path fill="#F04B36" d="M40.5,19.1H8.7c-3.2,0-5.7,2.6-5.7,5.9v16.6c0,3.2,2.6,5.9,5.7,5.9h31.8c3.2,0,5.7-2.6,5.7-5.9V25
		C46.2,21.8,43.6,19.1,40.5,19.1z M36.8,24.7c0.5-0.1,1.1-0.1,1.7-0.1c1.2,0,2,0.3,2.6,0.8c0.6,0.5,0.9,1.3,0.9,2.3
		c0,1.1-0.3,1.9-0.9,2.5c-0.6,0.6-1.6,0.9-2.8,0.9c-0.6,0-1.1,0-1.5-0.1V24.7z M27.6,24.6h1l2.2,6.5h-0.9L29.2,29H27l-0.7,2.1h-0.8
		L27.6,24.6z M20.1,27.9c0-2,1.3-3.4,3.3-3.4c0.8,0,1.3,0.2,1.5,0.3l-0.2,0.7c-0.3-0.2-0.8-0.3-1.3-0.3c-1.5,0-2.5,1-2.5,2.7
		c0,1.6,0.9,2.6,2.4,2.6c0.5,0,1-0.1,1.3-0.3l0.2,0.7c-0.3,0.2-0.9,0.3-1.7,0.3C21.4,31.2,20.1,30,20.1,27.9z M31,43.3h-6.4
		c-0.5,0-1-0.4-1-1c0-0.5,0.4-1,1-1H31c0.5,0,1,0.4,1,1C32,42.8,31.6,43.3,31,43.3z M32.5,28.3v2.8h-0.8v-6.4c0.4-0.1,1-0.1,1.6-0.1
		c0.9,0,1.4,0.2,1.8,0.5c0.3,0.3,0.5,0.7,0.5,1.2c0,0.9-0.5,1.4-1.2,1.7v0c0.5,0.2,0.8,0.6,0.9,1.3c0.2,0.9,0.4,1.5,0.5,1.8H35
		c-0.1-0.2-0.2-0.7-0.4-1.6c-0.2-0.9-0.5-1.2-1.3-1.3H32.5z M41.1,43.3h-6.4c-0.5,0-1-0.4-1-1c0-0.5,0.4-1,1-1h6.4c0.5,0,1,0.4,1,1
		C42,42.8,41.6,43.3,41.1,43.3z"/>
</g>
</svg>
