<?xml version="1.0" encoding="utf-8"?>
<!-- Generator: Adobe Illustrator 18.0.0, SVG Export Plug-In . SVG Version: 6.00 Build 0)  -->
<!DOCTYPE svg PUBLIC "-//W3C//DTD SVG 1.1//EN" "http://www.w3.org/Graphics/SVG/1.1/DTD/svg11.dtd">
<svg version="1.1" id="Layer_1" xmlns="http://www.w3.org/2000/svg" xmlns:xlink="http://www.w3.org/1999/xlink" x="0px" y="0px"
	 viewBox="0 0 48 48" enable-background="new 0 0 48 48" xml:space="preserve">
<g>
	<path fill="#F04B36" d="M35.6,29.5H47v-9H35.6V29.5z M40.8,23.3c0.8,0,1.5,0.8,1.5,1.7c0,1-0.7,1.7-1.5,1.7c-0.8,0-1.5-0.8-1.5-1.7
		C39.3,24.1,40,23.3,40.8,23.3z"/>
	<path fill="#4DA0D8" d="M10.5,27.4C4.7,27.4,0,31.9,0,37.5s4.7,10,10.5,10c4.3,0,8.3-2.6,9.8-6.5c0.4-1.1,0.7-2.3,0.7-3.5
		C21,31.9,16.3,27.4,10.5,27.4z M14.5,38.4H6.5c-0.5,0-1-0.4-1-1c0-0.5,0.4-1,1-1h8.1c0.5,0,1,0.4,1,1C15.5,38,15.1,38.4,14.5,38.4z
		"/>
	<path fill="#F04B36" d="M37.4,2.2c0.3-0.1,0.6,0,0.8,0.1c0.5,0.3,0.8,0.8,0.9,1.5l1,5.4h1.7l-1-5.7c-0.2-1.2-0.8-2.1-1.7-2.7
		c-0.7-0.4-1.5-0.5-2.2-0.3L9.1,9.1l5.2,0.1L37.4,2.2z"/>
	<path fill="#06728D" d="M44.4,9.2h-2.5h-1.7H14.4L9.1,9.1c-0.7,0.2-1.4,0.7-1.8,1.5l0,0c-0.3,0.5-0.4,1-0.4,1.6V26
		c1.1-0.3,2.3-0.5,3.5-0.5c6.9,0,12.5,5.4,12.5,12c0,1.1-0.1,2.1-0.4,3.1h21.9c1.4,0,2.6-1.3,2.6-2.9v-6.5H34.8
		c-0.5,0-0.8-0.4-0.8-0.8V19.7c0-0.5,0.4-0.8,0.8-0.8H47v-6.7C47,10.6,45.8,9.2,44.4,9.2z"/>
</g>
</svg>
