<?xml version="1.0" encoding="utf-8"?>
<!-- Generator: Adobe Illustrator 18.0.0, SVG Export Plug-In . SVG Version: 6.00 Build 0)  -->
<!DOCTYPE svg PUBLIC "-//W3C//DTD SVG 1.1//EN" "http://www.w3.org/Graphics/SVG/1.1/DTD/svg11.dtd">
<svg version="1.1" id="Layer_1" xmlns="http://www.w3.org/2000/svg" xmlns:xlink="http://www.w3.org/1999/xlink" x="0px" y="0px"
	 viewBox="0 0 48 48" enable-background="new 0 0 48 48" xml:space="preserve">
<g>
	<path fill="#F04B36" d="M37.9,2.2c0.3-0.1,0.6,0,0.8,0.1c0.5,0.3,0.8,0.8,0.9,1.5l1,5.4h1.7l-1-5.7c-0.2-1.2-0.8-2.1-1.7-2.7
		c-0.7-0.4-1.5-0.5-2.2-0.3L9.6,9.1l5.2,0.1L37.9,2.2z"/>
	<path fill="#F7A93B" d="M44.9,9.2h-2.5h-1.7H14.9L9.6,9.1c-0.7,0.2-1.4,0.7-1.8,1.5l0,0c-0.3,0.5-0.4,1-0.4,1.6V26
		c1.1-0.3,2.3-0.5,3.5-0.5c6.9,0,12.5,5.4,12.5,12c0,1.1-0.1,2.1-0.4,3.1h21.9c1.4,0,2.6-1.3,2.6-2.9v-6.5H35.3
		c-0.5,0-0.8-0.4-0.8-0.8V19.7c0-0.5,0.4-0.8,0.8-0.8h12.2v-6.7C47.5,10.6,46.3,9.2,44.9,9.2z"/>
	<path fill="#E77528" d="M36.1,29.5h11.4v-9H36.1V29.5z M41.3,23.3c0.8,0,1.5,0.8,1.5,1.7c0,1-0.7,1.7-1.5,1.7
		c-0.8,0-1.5-0.8-1.5-1.7C39.8,24.1,40.5,23.3,41.3,23.3z"/>
	<path fill="#294E58" d="M11,27.4c-5.8,0-10.5,4.5-10.5,10s4.7,10,10.5,10c4.3,0,8.3-2.6,9.8-6.5c0.4-1.1,0.7-2.3,0.7-3.5
		C21.5,31.9,16.8,27.4,11,27.4z M16.7,35.3L11,41c-0.2,0.2-0.4,0.3-0.7,0.3c-0.2,0-0.4-0.1-0.6-0.2l-4.3-3.2
		c-0.4-0.3-0.5-0.9-0.2-1.4c0.3-0.4,1-0.5,1.4-0.2l3.6,2.7l5.1-5c0.4-0.4,1-0.4,1.4,0C17.1,34.3,17.1,35,16.7,35.3z"/>
</g>
</svg>
