<?xml version="1.0" encoding="utf-8"?>
<!-- Generator: Adobe Illustrator 18.0.0, SVG Export Plug-In . SVG Version: 6.00 Build 0)  -->
<!DOCTYPE svg PUBLIC "-//W3C//DTD SVG 1.1//EN" "http://www.w3.org/Graphics/SVG/1.1/DTD/svg11.dtd">
<svg version="1.1" id="Layer_1" xmlns="http://www.w3.org/2000/svg" xmlns:xlink="http://www.w3.org/1999/xlink" x="0px" y="0px"
	 viewBox="0 0 48 48" enable-background="new 0 0 48 48" xml:space="preserve">
<g>
	<path fill="#996363" d="M36.4,29.9h11.1v-9.1H36.4V29.9z M41.4,23.6c0.8,0,1.5,0.8,1.5,1.8c0,1-0.7,1.7-1.5,1.7
		c-0.8,0-1.5-0.8-1.5-1.7C39.9,24.4,40.6,23.6,41.4,23.6z"/>
	<path fill="#0DB89A" d="M16.5,30.4V25c0-3.9-2.8-7.1-6.1-7.1H9.8c-3.4,0-6.1,3.2-6.1,7.1v5.5c-1.9,1.8-3.2,4.4-3.2,7.3
		c0,5.4,4.3,9.8,9.6,9.8c5.3,0,9.6-4.4,9.6-9.8C19.6,34.8,18.4,32.2,16.5,30.4z M11,39.2v3.9H9.2v-3.9c-1-0.4-1.8-1.4-1.8-2.6
		c0-1.5,1.2-2.7,2.7-2.7c1.5,0,2.7,1.2,2.7,2.7C12.7,37.8,12,38.8,11,39.2z M14.5,29c-1.3-0.7-2.8-1.1-4.5-1.1
		c-1.6,0-3.1,0.4-4.5,1.1V25c0-2.8,1.9-5.1,4.2-5.1h0.5c2.3,0,4.2,2.3,4.2,5.1V29z"/>
	<path fill="#F04B36" d="M38.1,2.2c0.3-0.1,0.6,0,0.8,0.1c0.4,0.3,0.8,0.9,0.9,1.5l1,5.5h1.7l-1-5.8c-0.2-1.2-0.8-2.2-1.7-2.7
		c-0.7-0.4-1.4-0.5-2.2-0.3L10.4,9.2l5.1,0.1L38.1,2.2z"/>
	<path fill="#F7A93B" d="M45,9.4h-2.5h-1.7H15.6l-5.1-0.1C9.7,9.4,9.1,10,8.6,10.7l0,0c-0.3,0.5-0.4,1-0.4,1.6V16
		c0.5-0.1,1-0.2,1.5-0.2h0.5c4.5,0,8.1,4.1,8.1,9.1v4.6c2,2.2,3.2,5.1,3.2,8.1c0,1.2-0.2,2.3-0.5,3.4H45c1.4,0,2.5-1.3,2.5-3v-6.6
		h-12c-0.5,0-0.8-0.4-0.8-0.8V19.9c0-0.5,0.4-0.8,0.8-0.8h12v-6.8C47.5,10.7,46.4,9.4,45,9.4z"/>
</g>
</svg>
