<?xml version="1.0" encoding="utf-8"?>
<!-- Generator: Adobe Illustrator 18.0.0, SVG Export Plug-In . SVG Version: 6.00 Build 0)  -->
<!DOCTYPE svg PUBLIC "-//W3C//DTD SVG 1.1//EN" "http://www.w3.org/Graphics/SVG/1.1/DTD/svg11.dtd">
<svg version="1.1" id="Layer_1" xmlns="http://www.w3.org/2000/svg" xmlns:xlink="http://www.w3.org/1999/xlink" x="0px" y="0px"
	 viewBox="0 0 48 48" enable-background="new 0 0 48 48" xml:space="preserve">
<g>
	<path fill="#0DB89A" d="M44.3,0.5H3.7c-1.7,0-3.2,1.4-3.2,3.2v40.7c0,1.7,1.4,3.2,3.2,3.2h40.7c1.7,0,3.2-1.4,3.2-3.2V3.7
		C47.5,1.9,46.1,0.5,44.3,0.5z M26.3,5h6.2c0.5,0,1,0.4,1,1s-0.4,1-1,1h-6.2c-0.5,0-1-0.4-1-1S25.7,5,26.3,5z M15.8,5H22
		c0.5,0,1,0.4,1,1s-0.4,1-1,1h-6.2c-0.5,0-1-0.4-1-1S15.2,5,15.8,5z M5.2,5h6.2c0.5,0,1,0.4,1,1s-0.4,1-1,1H5.2c-0.5,0-1-0.4-1-1
		S4.7,5,5.2,5z M43,16.7c-0.5,0.2-1.1-0.1-1.2-0.7l-0.8-2.5l-7.6,23.6c-0.1,0.4-0.4,0.6-0.8,0.7c-0.4,0-0.8-0.2-1-0.5L26.9,29
		l-3.3,2.8c-0.3,0.2-0.6,0.3-0.9,0.2c-0.3-0.1-0.6-0.4-0.7-0.7l-1.9-7.3L14,38.2c-0.2,0.4-0.5,0.6-0.9,0.6c-0.4,0-0.8-0.3-0.9-0.6
		l-2.6-6.8l-3.5,6.9c-0.2,0.3-0.5,0.5-0.9,0.5c-0.2,0-0.3,0-0.4-0.1c-0.5-0.2-0.7-0.8-0.4-1.3l4.5-8.9c0.2-0.3,0.5-0.6,0.9-0.5
		c0.4,0,0.7,0.3,0.9,0.6l2.5,6.6l6.2-14.6c0.2-0.4,0.5-0.6,1-0.6c0.4,0,0.8,0.3,0.9,0.7l2.3,8.5l3-2.5c0.2-0.2,0.5-0.3,0.8-0.2
		c0.3,0.1,0.5,0.2,0.7,0.5l4.2,7.4l7.9-24.5c0.1-0.4,0.5-0.7,0.9-0.7c0,0,0,0,0,0c0.4,0,0.8,0.3,0.9,0.7l1.7,5.5
		C43.9,15.9,43.6,16.5,43,16.7z"/>
</g>
</svg>
