<?xml version="1.0" encoding="utf-8"?>
<!-- Generator: Adobe Illustrator 18.0.0, SVG Export Plug-In . SVG Version: 6.00 Build 0)  -->
<!DOCTYPE svg PUBLIC "-//W3C//DTD SVG 1.1//EN" "http://www.w3.org/Graphics/SVG/1.1/DTD/svg11.dtd">
<svg version="1.1" id="Layer_1" xmlns="http://www.w3.org/2000/svg" xmlns:xlink="http://www.w3.org/1999/xlink" x="0px" y="0px"
	 viewBox="0 0 48 48" enable-background="new 0 0 48 48" xml:space="preserve">
<g>
	<path fill="#E77528" d="M42.2,13.2c0-0.3,0-0.6-0.3-0.8L29.4,0.8c-0.2-0.2-0.4-0.2-0.6-0.2c-0.1-0.1-0.3-0.1-0.4-0.1H6.7
		c-0.5,0-1,0.4-1,1v45.1c0,0.5,0.4,1,1,1h34.6c0.5,0,1-0.4,1-1V13.4C42.3,13.3,42.2,13.3,42.2,13.2z M39.3,12.5l-10,0l0-9.2
		L39.3,12.5z M12.5,7h9.7c0.5,0,1,0.4,1,1c0,0.5-0.4,1-1,1h-9.7c-0.5,0-1-0.4-1-1C11.6,7.4,12,7,12.5,7z M12.5,11.2h9.7
		c0.5,0,1,0.4,1,1c0,0.5-0.4,1-1,1h-9.7c-0.5,0-1-0.4-1-1C11.6,11.6,12,11.2,12.5,11.2z M12.5,15.4h9.7c0.5,0,1,0.4,1,1
		c0,0.5-0.4,1-1,1h-9.7c-0.5,0-1-0.4-1-1C11.6,15.9,12,15.4,12.5,15.4z M35.5,42h-9.7c-0.5,0-1-0.4-1-1c0-0.5,0.4-1,1-1h9.7
		c0.5,0,1,0.4,1,1C36.4,41.6,36,42,35.5,42z M35.5,38.1h-9.7c-0.5,0-1-0.4-1-1c0-0.5,0.4-1,1-1h9.7c0.5,0,1,0.4,1,1
		C36.4,37.7,36,38.1,35.5,38.1z M37.7,19.4l-8.3,10.8c-0.2,0.2-0.5,0.4-0.8,0.4c-0.3,0-0.6-0.1-0.8-0.4l-2.7-3.5l-5.1,11.7
		C20,38.8,19.6,39,19.3,39c0,0,0,0,0,0c-0.4,0-0.7-0.2-0.9-0.6l-2.6-5.5L12,40.2c-0.2,0.3-0.5,0.5-0.9,0.5c-0.1,0-0.3,0-0.4-0.1
		c-0.5-0.2-0.7-0.8-0.4-1.3l4.7-9c0.2-0.3,0.5-0.5,0.9-0.5c0.4,0,0.7,0.2,0.9,0.6l2.5,5.4l4.9-11.2c0.1-0.3,0.4-0.5,0.8-0.6
		c0.3,0,0.7,0.1,0.9,0.4l2.9,3.8l7.6-9.9c0.3-0.4,0.9-0.5,1.3-0.2C38,18.3,38.1,18.9,37.7,19.4z"/>
</g>
</svg>
