<?xml version="1.0" encoding="utf-8"?>
<!-- Generator: Adobe Illustrator 18.0.0, SVG Export Plug-In . SVG Version: 6.00 Build 0)  -->
<!DOCTYPE svg PUBLIC "-//W3C//DTD SVG 1.1//EN" "http://www.w3.org/Graphics/SVG/1.1/DTD/svg11.dtd">
<svg version="1.1" id="Layer_1" xmlns="http://www.w3.org/2000/svg" xmlns:xlink="http://www.w3.org/1999/xlink" x="0px" y="0px"
	 viewBox="0 0 48 48" enable-background="new 0 0 48 48" xml:space="preserve">
<g>
	<path fill="#FFD69A" d="M9.7,33.8H1c-0.1,0-0.2,0.1-0.2,0.2v13.2c0,0.1,0.1,0.2,0.2,0.2h8.6c0.1,0,0.2-0.1,0.2-0.2V34.1
		C9.9,33.9,9.8,33.8,9.7,33.8z"/>
	<path fill="#CFD0D1" d="M22.1,18.5h-8.6c-0.1,0-0.2,0.1-0.2,0.2v28.5c0,0.1,0.1,0.2,0.2,0.2h8.6c0.1,0,0.2-0.1,0.2-0.2V18.8
		C22.3,18.6,22.2,18.5,22.1,18.5z"/>
	<path fill="#F04B36" d="M34.5,27.8h-8.6c-0.1,0-0.2,0.1-0.2,0.2v19.3c0,0.1,0.1,0.2,0.2,0.2h8.6c0.1,0,0.2-0.1,0.2-0.2V28
		C34.8,27.9,34.7,27.8,34.5,27.8z"/>
	<path fill="#F7A93B" d="M47,10h-8.6c-0.1,0-0.2,0.1-0.2,0.2v37c0,0.1,0.1,0.2,0.2,0.2H47c0.1,0,0.2-0.1,0.2-0.2v-37
		C47.2,10.1,47.1,10,47,10z"/>
	<path fill="#06728D" d="M37.3,1.4c0-0.3-0.2-0.5-0.4-0.7c-0.2-0.2-0.5-0.2-0.7-0.2l-6.3,0.9C29.3,1.5,29,2,29,2.5
		c0.1,0.5,0.6,0.9,1.1,0.8l4-0.6l-8.3,8.7L14.1,5.6c-0.4-0.2-0.8-0.1-1.1,0.1L2,15.6C1.6,16,1.6,16.6,2,17c0.2,0.2,0.5,0.3,0.7,0.3
		c0.2,0,0.5-0.1,0.7-0.3l10.4-9.4l11.8,5.9c0.4,0.2,0.8,0.1,1.1-0.2L35.7,4L36,7.4c0.1,0.5,0.5,0.9,1,0.9c0,0,0.1,0,0.1,0
		C37.7,8.1,38,7.7,38,7.1L37.3,1.4z"/>
</g>
</svg>
