<?xml version="1.0" encoding="utf-8"?>
<!-- Generator: Adobe Illustrator 18.0.0, SVG Export Plug-In . SVG Version: 6.00 Build 0)  -->
<!DOCTYPE svg PUBLIC "-//W3C//DTD SVG 1.1//EN" "http://www.w3.org/Graphics/SVG/1.1/DTD/svg11.dtd">
<svg version="1.1" id="Layer_1" xmlns="http://www.w3.org/2000/svg" xmlns:xlink="http://www.w3.org/1999/xlink" x="0px" y="0px"
	 viewBox="0 0 48 48" enable-background="new 0 0 48 48" xml:space="preserve">
<g>
	<path fill="#4DA0D8" d="M23,35.1V25h-9.8c0.1,3.6,0.6,7,1.4,10.1H23z"/>
	<path fill="#4DA0D8" d="M11.2,23c0.1-3.6,0.5-7,1.3-10.1H3.3c-1.6,3-2.6,6.5-2.8,10.1H11.2z"/>
	<path fill="#4DA0D8" d="M13,37.1H4.4c3.3,4.9,8.3,8.4,14.1,9.8C16.3,44.7,14.3,41.3,13,37.1z"/>
	<path fill="#4DA0D8" d="M13,10.9c1.3-4.1,3.1-7.5,5.4-9.8c-5.8,1.4-10.7,5-13.9,9.8H13z"/>
	<path fill="#4DA0D8" d="M23,47.4V37.1h-7.8C17,42.4,19.8,46.3,23,47.4z"/>
	<path fill="#4DA0D8" d="M11.2,25H0.5c0.2,3.6,1.1,7.1,2.8,10.1h9.2C11.7,32,11.3,28.6,11.2,25z"/>
	<path fill="#4DA0D8" d="M13.2,23H23V12.9h-8.5C13.7,16,13.2,19.4,13.2,23z"/>
	<path fill="#4DA0D8" d="M23,10.9V0.5c0,0-0.1,0-0.1,0c-3.2,1.2-6,5.1-7.7,10.4H23z"/>
	<path fill="#CFD0D1" d="M25,0.5V22L35,7.7c0.3-0.4,0.9-0.6,1.4-0.2c0.4,0.3,0.6,0.9,0.2,1.4L26.5,23.3l11.6,2
		c0.5,0.1,0.9,0.6,0.8,1.1c-0.1,0.5-0.5,0.8-1,0.8c-0.1,0-0.1,0-0.2,0L25,25v22.5C37.5,47,47.5,36.6,47.5,24
		C47.5,11.4,37.5,1,25,0.5z M33.9,6.3l-1.5,3c-0.2,0.3-0.5,0.5-0.9,0.5c-0.1,0-0.3,0-0.4-0.1c-0.5-0.2-0.7-0.8-0.4-1.3l1.5-3
		c0.2-0.5,0.8-0.7,1.3-0.4C33.9,5.2,34.1,5.8,33.9,6.3z M38.5,15.3c-0.2,0.1-0.4,0.2-0.6,0.2c-0.3,0-0.6-0.2-0.8-0.4
		c-0.3-0.5-0.2-1.1,0.3-1.4l2.8-1.9c0.5-0.3,1.1-0.2,1.4,0.3c0.3,0.5,0.2,1.1-0.3,1.4L38.5,15.3z M34.7,42.3
		c-0.2,0.1-0.3,0.1-0.5,0.1c-0.3,0-0.7-0.2-0.9-0.5L31.6,39c-0.3-0.5-0.1-1.1,0.4-1.4c0.5-0.3,1.1-0.1,1.4,0.4l1.7,2.9
		C35.3,41.4,35.2,42,34.7,42.3z M42.3,34.7c-0.2,0.3-0.5,0.5-0.9,0.5c-0.2,0-0.3,0-0.5-0.1L38,33.4c-0.5-0.3-0.6-0.9-0.3-1.4
		c0.3-0.5,0.9-0.6,1.4-0.3l2.9,1.7C42.4,33.7,42.6,34.3,42.3,34.7z M44.2,25h-3.4c-0.5,0-1-0.4-1-1c0-0.5,0.4-1,1-1h3.4
		c0.5,0,1,0.4,1,1C45.2,24.5,44.8,25,44.2,25z"/>
</g>
</svg>
