<?xml version="1.0" encoding="utf-8"?>
<!-- Generator: Adobe Illustrator 18.0.0, SVG Export Plug-In . SVG Version: 6.00 Build 0)  -->
<!DOCTYPE svg PUBLIC "-//W3C//DTD SVG 1.1//EN" "http://www.w3.org/Graphics/SVG/1.1/DTD/svg11.dtd">
<svg version="1.1" id="Layer_1" xmlns="http://www.w3.org/2000/svg" xmlns:xlink="http://www.w3.org/1999/xlink" x="0px" y="0px"
	 viewBox="0 0 48 48" enable-background="new 0 0 48 48" xml:space="preserve">
<g>
	<polygon fill="#0DB89A" points="38.8,38.5 38.2,38.5 38.2,40.4 38.8,40.4 38.8,43.6 47,43.6 47,35.4 38.8,35.4 	"/>
	<polygon fill="#0DB89A" points="38.8,23 38.2,23 38.2,25 38.8,25 38.8,28.1 47,28.1 47,19.9 38.8,19.9 	"/>
	<polygon fill="#0DB89A" points="38.8,4.4 38.8,7.6 38.2,7.6 38.2,9.5 38.8,9.5 38.8,12.6 47,12.6 47,4.4 	"/>
	<path fill="#4DA0D8" d="M38.6,9.5V7.6h-7.3V23h-4.4v-0.2c0-0.2,0-0.3,0-0.5v3.4c0-0.2,0-0.3,0-0.5V25h4.4v15.5h7.3v-1.9h-5.4V25
		h5.4V23h-5.4V9.5H38.6z"/>
	<path fill="#F04B36" d="M26.9,23.1L26.9,23.1L26.9,23.1L26.9,23.1L26.9,23.1l0-0.2c0-7-5.7-12.7-12.7-12.7c-3.2,0-6.3,1.2-8.7,3.4
		l-0.2,0.2l9,9.3h12.3L26.9,23.1z M16.8,19.6c-0.6,0-1.1-0.2-1.4-0.4l0.2-0.6c0.2,0.1,0.7,0.3,1.2,0.3c0.9,0,1.2-0.6,1.2-1.1
		c0-0.8-0.7-1.1-1.4-1.1h-0.4v-0.6h0.4c0.5,0,1.2-0.3,1.2-0.9c0-0.4-0.3-0.8-1-0.8c-0.4,0-0.9,0.2-1.1,0.4l-0.2-0.5
		c0.3-0.2,0.8-0.4,1.4-0.4c1.1,0,1.6,0.6,1.6,1.3c0,0.6-0.3,1-1,1.3v0c0.7,0.1,1.2,0.6,1.2,1.4C18.8,18.8,18.1,19.6,16.8,19.6z"/>
	<path fill="#06728D" d="M26.9,24.9L26.9,24.9l-12.5,0l-9.3,9l0.2,0.2c2.4,2.4,5.6,3.7,9,3.7c7,0,12.7-5.7,12.7-12.7L26.9,24.9
		L26.9,24.9L26.9,24.9L26.9,24.9z M17.6,34h-0.7v-4.8h0l-0.9,0.5l-0.1-0.6l1.2-0.6h0.6V34z"/>
	<path fill="#F7A93B" d="M4.2,14.7L4,14.9c-2.6,2.4-4,5.7-4,9.2c0,3.4,1.3,6.6,3.7,9l0.2,0.2l9.4-9.1L4.2,14.7z M3.2,26v-0.5L3.7,25
		c1.4-1.3,2-2,2-2.9c0-0.6-0.3-1.1-1.1-1.1c-0.5,0-0.9,0.3-1.2,0.5L3.3,21c0.4-0.3,0.9-0.6,1.5-0.6c1.2,0,1.7,0.8,1.7,1.6
		c0,1-0.7,1.8-1.9,2.9l-0.4,0.4v0h2.4V26H3.2z"/>
</g>
</svg>
