<?xml version="1.0" encoding="utf-8"?>
<!-- Generator: Adobe Illustrator 18.0.0, SVG Export Plug-In . SVG Version: 6.00 Build 0)  -->
<!DOCTYPE svg PUBLIC "-//W3C//DTD SVG 1.1//EN" "http://www.w3.org/Graphics/SVG/1.1/DTD/svg11.dtd">
<svg version="1.1" id="Layer_1" xmlns="http://www.w3.org/2000/svg" xmlns:xlink="http://www.w3.org/1999/xlink" x="0px" y="0px"
	 viewBox="0 0 48 48" enable-background="new 0 0 48 48" xml:space="preserve">
<g>
	<path fill="#F7A93B" d="M36.4,15.4c-1.6-0.5-3.2-0.8-4.8-0.8c-7,0-13.1,4.6-15.2,11.5c-2.6,8.6,2,17.9,10.4,20.6
		c1.6,0.5,3.2,0.8,4.8,0.8c7,0,13.1-4.6,15.2-11.5C49.4,27.4,44.7,18.2,36.4,15.4z M32.5,36.7l0,2.1l-1.2,0l0-2.1
		c-1.1,0-2.3-0.4-3-0.9l0.5-1.4c0.7,0.5,1.8,0.9,2.9,0.8c1.4,0,2.3-0.9,2.3-2c0-1.1-0.8-1.8-2.3-2.4c-2-0.8-3.3-1.7-3.3-3.5
		c0-1.7,1.1-3,2.9-3.3l0-2.1l1.2,0l0,2c1.2,0,2,0.3,2.6,0.7L34.5,26c-0.4-0.2-1.2-0.7-2.5-0.7c-1.5,0-2.1,1-2.1,1.8
		c0,1.1,0.8,1.6,2.5,2.3c2,0.8,3.1,1.9,3.1,3.7C35.6,34.8,34.5,36.3,32.5,36.7z"/>
	<path fill="#4DA0D8" d="M15.9,22.5c-1.1,0-2.2-0.4-2.9-0.8l0.5-1.4c0.7,0.5,1.8,0.9,2.9,0.8c0.1,0,0.2,0,0.3,0
		c0.6-0.9,1.2-1.8,1.9-2.5c-0.2-0.8-1-1.4-2.2-1.9c-2-0.8-3.3-1.7-3.3-3.5c0-1.7,1.1-3,2.9-3.3l0-2.1l1.2,0l0,2c1.2,0,2,0.3,2.6,0.7
		l-0.5,1.4c-0.4-0.2-1.2-0.7-2.5-0.7c-1.5,0-2.1,1-2.1,1.8c0,1.1,0.8,1.6,2.5,2.3c1.3,0.5,2.2,1.1,2.7,2c3.1-2.8,7.2-4.5,11.6-4.5
		c0.1,0,0.2,0,0.2,0C30.5,7.5,26.6,3,21.2,1.3c-1.6-0.5-3.2-0.8-4.8-0.8C9.4,0.5,3.3,5.1,1.2,12c-2.6,8.6,2,17.9,10.4,20.6
		c0.8,0.2,1.5,0.4,2.3,0.6c-0.3-2.5-0.1-5,0.7-7.5C15,24.5,15.4,23.5,15.9,22.5z"/>
</g>
</svg>
