<?xml version="1.0" encoding="utf-8"?>
<!-- Generator: Adobe Illustrator 18.0.0, SVG Export Plug-In . SVG Version: 6.00 Build 0)  -->
<!DOCTYPE svg PUBLIC "-//W3C//DTD SVG 1.1//EN" "http://www.w3.org/Graphics/SVG/1.1/DTD/svg11.dtd">
<svg version="1.1" id="Layer_1" xmlns="http://www.w3.org/2000/svg" xmlns:xlink="http://www.w3.org/1999/xlink" x="0px" y="0px"
	 viewBox="0 0 48 48" enable-background="new 0 0 48 48" xml:space="preserve">
<g>
	<path fill="#06728D" d="M44.3,0.5H3.7c-1.7,0-3.2,1.4-3.2,3.1v40.6c0,1.7,1.4,3.1,3.2,3.1h12.7v-21H32v21h12.3
		c1.7,0,3.2-1.4,3.2-3.1V3.6C47.5,1.9,46.1,0.5,44.3,0.5z M11.9,44.2H5.7V26.4h6.3V44.2z M11.9,22.3H5.7V4.1h6.3V22.3z M22.1,22.3
		h-6.3V4.1h6.3V22.3z M32.2,22.3h-6.3V4.1h6.3V22.3z M42.3,44.2h-6.3V26.4h6.3V44.2z M42.3,22.3h-6.3V4.1h6.3V22.3z"/>
	<rect x="17.6" y="27.6" fill="#F7A93B" width="12.9" height="19.9"/>
</g>
</svg>
