<?xml version="1.0" encoding="utf-8"?>
<!-- Generator: Adobe Illustrator 18.0.0, SVG Export Plug-In . SVG Version: 6.00 Build 0)  -->
<!DOCTYPE svg PUBLIC "-//W3C//DTD SVG 1.1//EN" "http://www.w3.org/Graphics/SVG/1.1/DTD/svg11.dtd">
<svg version="1.1" id="Layer_1" xmlns="http://www.w3.org/2000/svg" xmlns:xlink="http://www.w3.org/1999/xlink" x="0px" y="0px"
	 viewBox="0 0 48 48" enable-background="new 0 0 48 48" xml:space="preserve">
<g>
	<path fill="#4DA0D8" d="M47.5,47.5l0-0.3c-1.6-10.5-8.9-18.5-18.1-20.8c0,0.1,0,0.2,0,0.3l-2,5.9l2.6,14.4c0,0.1,0,0.3,0,0.4H47.5z
		"/>
	<path fill="#4DA0D8" d="M18.1,47.1l2.6-14.4l-2-5.9c0-0.1,0-0.2,0-0.3C9.4,28.7,2.2,36.8,0.5,47.2l0,0.3h17.6
		C18,47.4,18,47.2,18.1,47.1z"/>
	<path fill="#F04B36" d="M25.5,33.7h-0.3h-2.4h-0.3L20,47.4c0,0,0,0,0,0.1H28c0,0,0,0,0-0.1L25.5,33.7z"/>
	<path fill="#F04B36" d="M20.5,26C20.5,26.1,20.5,26.1,20.5,26l2,5.7h0.3h2.4h0.3l1.9-5.6c0,0,0,0,0,0c-1.1-0.2-2.3-0.3-3.5-0.3
		C22.8,25.7,21.6,25.9,20.5,26z"/>
	<path fill="#F7A93B" d="M24,24.1c5.1,0,9.2-5.3,9.2-11.8S29.1,0.5,24,0.5c-5.1,0-9.2,5.3-9.2,11.8S18.9,24.1,24,24.1z M20.4,5
		c0.4-0.4,1-0.4,1.4-0.1c0.4,0.4,0.4,1,0.1,1.4c-0.2,0.2-4.1,4.6-1.2,10.9c0.2,0.5,0,1.1-0.5,1.3c-0.1,0.1-0.3,0.1-0.4,0.1
		c-0.4,0-0.7-0.2-0.9-0.6C15.4,10.5,20.2,5.2,20.4,5z"/>
</g>
</svg>
