<?xml version="1.0" encoding="utf-8"?>
<!-- Generator: Adobe Illustrator 18.0.0, SVG Export Plug-In . SVG Version: 6.00 Build 0)  -->
<!DOCTYPE svg PUBLIC "-//W3C//DTD SVG 1.1//EN" "http://www.w3.org/Graphics/SVG/1.1/DTD/svg11.dtd">
<svg version="1.1" id="Layer_1" xmlns="http://www.w3.org/2000/svg" xmlns:xlink="http://www.w3.org/1999/xlink" x="0px" y="0px"
	 viewBox="0 0 48 48" enable-background="new 0 0 48 48" xml:space="preserve">
<g>
	<path fill="none" d="M36.2,28.7l-7.8-2.4c-0.5-0.2-1,0.1-1.2,0.6c-0.2,0.5,0.1,1,0.6,1.2l7.8,2.4c0.1,0,0.2,0,0.3,0
		c0.4,0,0.8-0.3,0.9-0.7C37,29.4,36.7,28.9,36.2,28.7z"/>
	<path fill="none" d="M34.4,38.5c-0.2-0.1-20.2-6.8-24.4-8.2c-3.5-1.1-3.2-5.2-3.1-5.5V9.6c0-0.5-0.4-1-1-1c-0.5,0-1,0.4-1,1l0,15.2
		c-0.2,2,0.5,6.1,4.5,7.4c4.2,1.3,24.2,8.1,24.4,8.2c0.1,0,0.2,0.1,0.3,0.1c0.4,0,0.8-0.3,0.9-0.7C35.2,39.2,34.9,38.6,34.4,38.5z"
		/>
	<path fill="none" d="M9.3,4.1c4.5,1.6,11.6,4,17.2,5.9L9.3,4.1z"/>
	<path fill="#0DB89A" d="M41.1,11c0-0.5-0.4-1-1-1H26.5l5.6,1.9h8C40.7,11.9,41.1,11.5,41.1,11z"/>
	<path fill="#F04B36" d="M41.1,20.9c0-3.4-2-6.1-5.8-7.9l-0.1,0c0,0-1.2-0.4-3-1L26.5,10C20.9,8.1,13.9,5.7,9.3,4.1L5.2,2.6
		c-2.7,1-4.7,3.6-4.7,6.7c0,0.1,0,0.2,0,0.2c0,0.3,0,0.6,0,0.8v17.2c0,3.7,2.3,6.9,5.7,8l28.3,10.2l0.1,0c0.3,0.1,0.7,0.1,1,0.1
		c3.1,0,5.4-2.7,5.4-6.3v-6v-1.9V20.9z M35,39.7c-0.1,0.4-0.5,0.7-0.9,0.7c-0.1,0-0.2,0-0.3-0.1c-0.2-0.1-20.2-6.8-24.4-8.2
		c-4-1.3-4.7-5.4-4.5-7.4l0-15.2c0-0.5,0.4-1,1-1c0.5,0,1,0.4,1,1v15.3c0,0.3-0.4,4.4,3.1,5.5c4.3,1.3,24.2,8.1,24.4,8.2
		C34.9,38.6,35.2,39.2,35,39.7z M36.8,29.9c-0.1,0.4-0.5,0.7-0.9,0.7c-0.1,0-0.2,0-0.3,0l-7.8-2.4C27.3,28,27,27.5,27.2,27
		c0.2-0.5,0.7-0.8,1.2-0.6l7.8,2.4C36.7,28.9,37,29.4,36.8,29.9z"/>
	<path fill="#0DB89A" d="M47.5,26.5V9.3c0-3.9-3.2-7.1-7.1-7.1H7.6c-0.9,0-1.7,0.2-2.5,0.4l4.2,1.5h31.1c2.9,0,5.2,2.3,5.2,5.2v17.2
		c0,2.6-2,4.8-4.5,5.1v1.9C44.7,33.2,47.5,30.2,47.5,26.5z"/>
</g>
</svg>
