<?xml version="1.0" encoding="utf-8"?>
<!-- Generator: Adobe Illustrator 18.0.0, SVG Export Plug-In . SVG Version: 6.00 Build 0)  -->
<!DOCTYPE svg PUBLIC "-//W3C//DTD SVG 1.1//EN" "http://www.w3.org/Graphics/SVG/1.1/DTD/svg11.dtd">
<svg version="1.1" id="Layer_1" xmlns="http://www.w3.org/2000/svg" xmlns:xlink="http://www.w3.org/1999/xlink" x="0px" y="0px"
	 viewBox="0 0 48 48" enable-background="new 0 0 48 48" xml:space="preserve">
<g>
	<path fill="#4DA0D8" d="M39.4,0.5H8.6c-4.4,0-8.1,3.2-8.1,7.2v17.7c0,0.1,0,0.1,0,0.2c0.1,0,0.2-0.1,0.4-0.1h46.2
		c0.1,0,0.3,0,0.4,0.1c0-0.1,0-0.1,0-0.2V7.7C47.5,3.7,43.9,0.5,39.4,0.5z M35,18.4l-5.6-6L18.7,23.3l-7.1-7.6L6.8,20l-2.4-2.6
		l8.2-7.6l6,6.7L29.2,5.7l5.5,5.4L40,5.7l3.6,3.5L35,18.4z"/>
	<path fill="#DD4A44" d="M39.4,32.6c3.6,0,6.7-2.2,7.7-5.2c0,0,0,0,0,0H0.9c0,0,0,0,0,0c1,3,4.1,5.2,7.7,5.2h14.4h2.2H39.4z"/>
	<path fill="#C99F4A" d="M25.1,34.7v-2.1h-2.2v1.9l-9.4,9.2c-0.4,0.4-0.4,1,0.1,1.4c0.2,0.2,0.5,0.3,0.7,0.3c0.3,0,0.6-0.1,0.8-0.3
		l7.8-7.6v9.1c0,0.5,0.5,1,1.1,1s1.1-0.4,1.1-1v-9l7.7,7.5c0.2,0.2,0.5,0.3,0.8,0.3c0.3,0,0.5-0.1,0.7-0.3c0.4-0.4,0.5-1,0.1-1.4
		L25.1,34.7z"/>
</g>
</svg>
