<?xml version="1.0" encoding="utf-8"?>
<!-- Generator: Adobe Illustrator 18.0.0, SVG Export Plug-In . SVG Version: 6.00 Build 0)  -->
<!DOCTYPE svg PUBLIC "-//W3C//DTD SVG 1.1//EN" "http://www.w3.org/Graphics/SVG/1.1/DTD/svg11.dtd">
<svg version="1.1" id="Layer_1" xmlns="http://www.w3.org/2000/svg" xmlns:xlink="http://www.w3.org/1999/xlink" x="0px" y="0px"
	 viewBox="0 0 48 48" enable-background="new 0 0 48 48" xml:space="preserve">
<g>
	<path fill="#06728D" d="M38.8,13.6L15.3,7.2c-0.5-0.1-1.1,0.2-1.2,0.7C14,8.4,14.3,9,14.8,9.1l23.5,6.4c0.1,0,0.2,0,0.3,0
		c0.4,0,0.8-0.3,1-0.7C39.6,14.3,39.3,13.8,38.8,13.6z"/>
	<path fill="#06728D" d="M36.8,19.2l-23.5-6.4c-0.5-0.1-1.1,0.2-1.2,0.7c-0.1,0.5,0.2,1.1,0.7,1.2l23.5,6.4c0.1,0,0.2,0,0.3,0
		c0.4,0,0.8-0.3,1-0.7C37.6,19.9,37.3,19.4,36.8,19.2z"/>
	<path fill="#F04B36" d="M35,35.4c-1.1-0.4-1.6-0.8-1.6-1.4c0-0.5,0.4-1,1.4-1c0.8,0,1.3,0.3,1.6,0.4l0.3-0.8
		c-0.4-0.2-0.9-0.4-1.7-0.4V31h-0.8v1.2c-1.2,0.2-1.9,1-1.9,2c0,1.1,0.8,1.6,2.1,2.1c0.9,0.4,1.4,0.8,1.4,1.4c0,0.7-0.6,1.2-1.5,1.2
		c-0.7,0-1.4-0.2-1.8-0.5l-0.3,0.8c0.4,0.3,1.2,0.5,2,0.5V41h0.8v-1.3c1.3-0.2,2-1.1,2-2.1C37,36.6,36.3,35.9,35,35.4z"/>
	<path fill="none" d="M13.6,23.1H5.4c-0.5,0-1,0.4-1,1v5.2c0,0.5,0.4,1,1,1c0.5,0,1-0.4,1-1v-4.3h7.2c0.5,0,1-0.4,1-1
		C14.6,23.6,14.1,23.1,13.6,23.1z"/>
	<ellipse fill="none" cx="34.6" cy="36" rx="8.5" ry="8.1"/>
	<path fill="#06728D" d="M12.2,2.7l31.5,8.6l-3.5,11.6l2.1,0l3.6-12c0.1-0.2,0-0.5-0.1-0.7c-0.1-0.2-0.3-0.4-0.6-0.5L11.8,0.5
		c-0.5-0.1-1.1,0.2-1.2,0.7l-5.4,18c0,0,0,0,0,0h2.1L12.2,2.7z"/>
	<path fill="#0DB89A" d="M47.3,22.9h-5l-2.1,0c0,0,0,0,0,0H24.1l-5.4-3.7c0,0-0.1,0-0.1,0H7.2H5.1H0.7c-0.1,0-0.2,0.1-0.2,0.2v27.8
		c0,0.1,0.1,0.2,0.2,0.2h46.5c0.1,0,0.2-0.1,0.2-0.2V23.1C47.5,23,47.4,22.9,47.3,22.9z M13.6,25.1H6.4v4.3c0,0.5-0.4,1-1,1
		c-0.5,0-1-0.4-1-1v-5.2c0-0.5,0.4-1,1-1h8.2c0.5,0,1,0.4,1,1C14.6,24.7,14.1,25.1,13.6,25.1z M34.6,44.1c-4.7,0-8.5-3.6-8.5-8.1
		c0-4.5,3.8-8.1,8.5-8.1c4.7,0,8.5,3.6,8.5,8.1C43.1,40.4,39.3,44.1,34.6,44.1z"/>
</g>
</svg>
