<?xml version="1.0" encoding="utf-8"?>
<!-- Generator: Adobe Illustrator 18.0.0, SVG Export Plug-In . SVG Version: 6.00 Build 0)  -->
<!DOCTYPE svg PUBLIC "-//W3C//DTD SVG 1.1//EN" "http://www.w3.org/Graphics/SVG/1.1/DTD/svg11.dtd">
<svg version="1.1" id="Layer_1" xmlns="http://www.w3.org/2000/svg" xmlns:xlink="http://www.w3.org/1999/xlink" x="0px" y="0px"
	 viewBox="0 0 48 48" enable-background="new 0 0 48 48" xml:space="preserve">
<g>
	<path fill="#0DB89A" d="M1,10.3l31.6,16.7C32.7,27,32.9,27,33,27c0.2,0,0.4-0.1,0.5-0.2l13.5-10.1c0.3-0.2,0.5-0.6,0.4-1
		c0-0.4-0.3-0.7-0.6-0.9l-31-14.3c-0.3-0.1-0.5-0.1-0.8,0L1,8.3c-0.3,0.2-0.5,0.6-0.5,1S0.7,10.1,1,10.3z M34.8,17.9
		c0.5-0.3,1.5-0.4,2.1-0.1c0.6,0.3,0.6,0.8,0.1,1.1c-0.5,0.3-1.5,0.4-2.1,0.1C34.3,18.8,34.3,18.3,34.8,17.9z M17.9,9.2
		c1.4-0.9,3.3-1.4,5.4-1.4c1.8,0,3.5,0.4,4.8,1c1.7,0.9,2.7,2.1,2.8,3.6c0,0.8-0.2,2.3-2.2,3.5c-1.4,0.9-3.3,1.4-5.4,1.4
		c-1.8,0-3.5-0.4-4.8-1c-1.7-0.9-2.7-2.1-2.8-3.6C15.7,11.9,15.9,10.4,17.9,9.2z M11,6.1c0.5-0.3,1.5-0.4,2.1-0.1
		c0.6,0.3,0.6,0.8,0.1,1.1c-0.5,0.3-1.5,0.4-2,0.1C10.5,7,10.5,6.5,11,6.1z"/>
	<path fill="#F7A93B" d="M46.9,21.8l-2.5-1.1l-10.9,8.1c-0.2,0.1-0.3,0.2-0.5,0.2c-0.1,0-0.3,0-0.4-0.1L3.9,13.6L1,15.2
		c-0.3,0.2-0.5,0.6-0.5,1c0,0.4,0.2,0.8,0.5,1l31.6,16.7c0.1,0.1,0.3,0.1,0.4,0.1c0.2,0,0.4-0.1,0.5-0.2l13.5-10.1
		c0.3-0.2,0.5-0.6,0.4-1C47.5,22.2,47.2,21.9,46.9,21.8z"/>
	<path fill="#F04B36" d="M46.9,28.5l-2.5-1.1l-10.9,8.1c-0.2,0.1-0.3,0.2-0.5,0.2c-0.1,0-0.3,0-0.4-0.1L3.9,20.4L1,22
		c-0.3,0.2-0.5,0.6-0.5,1c0,0.4,0.2,0.8,0.5,1l31.6,16.7c0.1,0.1,0.3,0.1,0.4,0.1c0.2,0,0.4-0.1,0.5-0.2l13.5-10.1
		c0.3-0.2,0.5-0.6,0.4-1C47.5,29,47.2,28.7,46.9,28.5z"/>
	<path fill="#E77528" d="M46.9,35.3l-2.5-1.1l-10.9,8.1c-0.2,0.1-0.3,0.2-0.5,0.2c-0.1,0-0.3,0-0.4-0.1L3.9,27.2L1,28.8
		c-0.3,0.2-0.5,0.6-0.5,1c0,0.4,0.2,0.8,0.5,1l31.6,16.7c0.1,0.1,0.3,0.1,0.4,0.1c0.2,0,0.4-0.1,0.5-0.2l13.5-10.1
		c0.3-0.2,0.5-0.6,0.4-1C47.5,35.8,47.2,35.5,46.9,35.3z"/>
	<path fill="#F04B36" d="M19.3,14.4c1.1,0.5,2.5,0.8,4,0.8c1.7,0,3.4-0.4,4.5-1.1c0.8-0.5,1.2-1.1,1.2-1.5c0-0.6-0.7-1.2-1.6-1.7
		c-1.1-0.5-2.5-0.8-4-0.8c-1.7,0-3.4,0.4-4.5,1.1c-0.8,0.5-1.2,1.1-1.2,1.5C17.7,13.2,18.3,13.9,19.3,14.4z M20.4,12.9
		c0.1,0.3,0.4,0.6,0.9,0.8c0.6,0.3,1.3,0.3,1.8,0c0.4-0.3,0.4-0.6-0.1-1.1c-0.6-0.6-0.8-1.1-0.1-1.5c0.6-0.4,1.6-0.4,2.6-0.1
		l0.8-0.5l0.5,0.3l-0.7,0.5c0.5,0.3,0.7,0.5,0.9,0.7l-0.7,0.2c-0.1-0.1-0.3-0.4-0.8-0.7c-0.7-0.3-1.3-0.2-1.6,0
		c-0.4,0.2-0.3,0.5,0.2,1.1c0.6,0.6,0.6,1.1-0.1,1.5c-0.6,0.4-1.7,0.5-2.7,0.1l-0.8,0.5l-0.5-0.3l0.8-0.5c-0.5-0.3-0.9-0.6-1-0.9
		L20.4,12.9z"/>
</g>
</svg>
