<?xml version="1.0" encoding="utf-8"?>
<!-- Generator: Adobe Illustrator 18.0.0, SVG Export Plug-In . SVG Version: 6.00 Build 0)  -->
<!DOCTYPE svg PUBLIC "-//W3C//DTD SVG 1.1//EN" "http://www.w3.org/Graphics/SVG/1.1/DTD/svg11.dtd">
<svg version="1.1" id="Layer_1" xmlns="http://www.w3.org/2000/svg" xmlns:xlink="http://www.w3.org/1999/xlink" x="0px" y="0px"
	 viewBox="0 0 48 48" enable-background="new 0 0 48 48" xml:space="preserve">
<g>
	<path fill="#F04B36" d="M31.6,16.6c0-0.1-0.1-0.1-0.2-0.1H12.1c-0.1,0-0.2,0.1-0.2,0.1c0,0.1,0,0.2,0,0.3c0.9,1.3,1.8,2.7,2.6,4
		c5,8.3,7.8,16.8,8.3,25c0,0.1,0.1,0.2,0.2,0.2h19.3c0,0,0,0,0,0c0.1,0,0.2-0.1,0.2-0.2c0,0,0-0.1,0-0.1
		C42,36.2,38.2,26.1,31.6,16.6z"/>
	<path fill="#06728D" d="M42.6,1.9H4.4C2,1.9,0,4.1,0,6.8v19.8c0,2.7,2,5,4.4,5h13.2c-1.2-3.2-2.8-6.4-4.8-9.6c-0.3-0.5-0.6-1-1-1.6
		H8.7v-7.2h29.6v7.2h-2c2.2,3.7,3.9,7.5,5.3,11.2h1.9c1.9,0,3.4-2.2,3.4-5V6.8C47,4.1,45,1.9,42.6,1.9z M14.7,8.8H8.4
		c-0.5,0-1-0.4-1-1c0-0.5,0.4-1,1-1h6.3c0.5,0,1,0.4,1,1C15.7,8.3,15.3,8.8,14.7,8.8z M24.5,8.8h-6.3c-0.5,0-1-0.4-1-1
		c0-0.5,0.4-1,1-1h6.3c0.5,0,1,0.4,1,1C25.5,8.3,25,8.8,24.5,8.8z"/>
</g>
</svg>
