<?xml version="1.0" encoding="utf-8"?>
<!-- Generator: Adobe Illustrator 18.0.0, SVG Export Plug-In . SVG Version: 6.00 Build 0)  -->
<!DOCTYPE svg PUBLIC "-//W3C//DTD SVG 1.1//EN" "http://www.w3.org/Graphics/SVG/1.1/DTD/svg11.dtd">
<svg version="1.1" id="Layer_1" xmlns="http://www.w3.org/2000/svg" xmlns:xlink="http://www.w3.org/1999/xlink" x="0px" y="0px"
	 viewBox="0 0 48 48" enable-background="new 0 0 48 48" xml:space="preserve">
<g>
	<path fill="#F7A93B" d="M46.5,41.8L31.8,27.1c1.7-2.8,2.6-6,2.6-9.3c0-9.6-7.6-17.4-17-17.4c-9.4,0-17,7.8-17,17.4
		s7.6,17.4,17,17.4c3.6,0,7-1.1,9.9-3.3L42,46.6c0.6,0.6,1.4,0.9,2.3,0.9c0.9,0,1.7-0.4,2.3-1C47.8,45.2,47.8,43.1,46.5,41.8z
		 M17.5,30.4c-6.8,0-12.3-5.6-12.3-12.6c0-6.9,5.5-12.6,12.3-12.6c6.8,0,12.3,5.6,12.3,12.6c0,3.3-1.2,6.4-3.4,8.7
		C24,29.1,20.9,30.4,17.5,30.4z"/>
</g>
</svg>
