<?xml version="1.0" encoding="utf-8"?>
<!-- Generator: Adobe Illustrator 18.0.0, SVG Export Plug-In . SVG Version: 6.00 Build 0)  -->
<!DOCTYPE svg PUBLIC "-//W3C//DTD SVG 1.1//EN" "http://www.w3.org/Graphics/SVG/1.1/DTD/svg11.dtd">
<svg version="1.1" id="Layer_1" xmlns="http://www.w3.org/2000/svg" xmlns:xlink="http://www.w3.org/1999/xlink" x="0px" y="0px"
	 viewBox="0 0 48 48" enable-background="new 0 0 48 48" xml:space="preserve">
<g>
	<path fill="#F04B36" d="M15.4,21.1c2.6,4.9,0.4,10.3,0.4,10.3c0,0.1,0,0.2,0,0.2c0,0.1,0.1,0.1,0.2,0.1c8.1,0.1,16.5,5.2,20.9,8.3
		l-13-16c-0.3-0.4-0.3-1,0.1-1.4c0.4-0.3,1-0.3,1.4,0.1l13,16c-2.2-5-5.4-14.2-3.8-22.2c0-0.1,0-0.2-0.1-0.2
		c-0.1-0.1-0.1-0.1-0.2-0.1c0,0-0.8,0.2-2.1,0.2c-2.1,0-5.3-0.4-8-2.6L15.4,21.1C15.4,21.1,15.4,21.1,15.4,21.1z"/>
	<path fill="#E77528" d="M43.1,40c-0.7-0.9-1.8-1.4-3-1.4c-0.6,0-1.1,0.1-1.6,0.4l0,0c-0.5,0.1-0.9,0.5-1.2,0.9
		c0,0.1-0.1,0.1-0.1,0.2c0,0,0,0,0,0c0,0-0.1,0.1-0.1,0.1L37,40.1c-1,1.4-1,3.4,0.1,4.7c0.7,0.9,1.8,1.4,3,1.4
		c0.9,0,1.8-0.3,2.4-0.9C44.2,44.1,44.5,41.6,43.1,40z"/>
	<path fill="#06728D" d="M10.2,18.2C10.2,18.2,10.2,18.2,10.2,18.2c0.1,0,0.1,0,0.2-0.1l1.3-1.1c1.1,0.7,2,1.6,2.7,2.4l8.6-7
		c-0.7-0.9-1.3-1.9-1.8-3.1l1.4-1.1c0.1-0.1,0.1-0.2,0-0.3l-5.9-7.3c0,0-0.1-0.1-0.2-0.1c-0.1,0-0.1,0-0.2,0.1L4.1,10.5
		c0,0-0.1,0.1-0.1,0.2c0,0.1,0,0.1,0.1,0.2l5.9,7.3C10.1,18.2,10.1,18.2,10.2,18.2z"/>
	<path fill="#0DB89A" d="M35.3,44.6H9c-0.8,0-1.4,0.6-1.4,1.4c0,0.8,0.6,1.4,1.4,1.4h26.3c0.8,0,1.4-0.6,1.4-1.4
		C36.8,45.3,36.1,44.6,35.3,44.6z"/>
</g>
</svg>
