<?xml version="1.0" encoding="utf-8"?>
<!-- Generator: Adobe Illustrator 18.0.0, SVG Export Plug-In . SVG Version: 6.00 Build 0)  -->
<!DOCTYPE svg PUBLIC "-//W3C//DTD SVG 1.1//EN" "http://www.w3.org/Graphics/SVG/1.1/DTD/svg11.dtd">
<svg version="1.1" id="Layer_1" xmlns="http://www.w3.org/2000/svg" xmlns:xlink="http://www.w3.org/1999/xlink" x="0px" y="0px"
	 viewBox="0 0 48 48" enable-background="new 0 0 48 48" xml:space="preserve">
<g>
	<path fill="#4DA0D8" d="M24,0.5c-8.6,0-15.5,7-15.5,15.5c0,5.3,2.6,10.1,7.1,13v1.4h16.9v-1.4c4.4-2.9,7.1-7.7,7.1-13
		C39.5,7.5,32.6,0.5,24,0.5z M25.8,7.6c-9.2-1.3-10.8,8.6-10.8,9c-0.1,0.5-0.5,0.8-1,0.8c0,0-0.1,0-0.1,0c-0.5-0.1-0.9-0.6-0.8-1.1
		c0-0.1,0.5-3.1,2.3-5.9c1.7-2.7,5-5.7,10.8-4.8c0.5,0.1,0.9,0.6,0.8,1.1C26.8,7.3,26.3,7.7,25.8,7.6z"/>
	<rect x="15.6" y="32.4" fill="#E8B944" width="16.9" height="1.9"/>
	<path fill="#E8B944" d="M15.6,40.6c0,1.7,1.4,3,3,3h0.7c0,2.1,2.1,3.9,4.7,3.9c2.6,0,4.6-1.7,4.7-3.9h0.7c1.7,0,3-1.4,3-3v-0.5
		H15.6V40.6z"/>
	<rect x="15.6" y="36.3" fill="#E8B944" width="16.9" height="1.9"/>
</g>
</svg>
