<?xml version="1.0" encoding="utf-8"?>
<!-- Generator: Adobe Illustrator 18.0.0, SVG Export Plug-In . SVG Version: 6.00 Build 0)  -->
<!DOCTYPE svg PUBLIC "-//W3C//DTD SVG 1.1//EN" "http://www.w3.org/Graphics/SVG/1.1/DTD/svg11.dtd">
<svg version="1.1" id="Layer_1" xmlns="http://www.w3.org/2000/svg" xmlns:xlink="http://www.w3.org/1999/xlink" x="0px" y="0px"
	 viewBox="0 0 48 48" enable-background="new 0 0 48 48" xml:space="preserve">
<g>
	<path fill="#F04B36" d="M24,30.4c-1.4,0-2.6,1.1-2.6,2.6c0,1,0.6,2,1.6,2.4l0.6,0.2v5c0,0.2,0.2,0.4,0.3,0.4c0.1,0,0.3-0.2,0.3-0.4
		v-5l0.6-0.2c1-0.4,1.6-1.3,1.6-2.4C26.6,31.6,25.4,30.4,24,30.4z"/>
	<path fill="none" d="M15.9,42.2c-1.4,0-1.6-1.1-1.6-1.3V25.1c0-0.5-0.4-1-1-1c-0.5,0-1,0.4-1,1l0,15.8c0.1,1.3,1.1,3.2,3.6,3.2
		c0.5,0,1-0.4,1-1C16.9,42.6,16.4,42.2,15.9,42.2z"/>
	<path fill="none" d="M24,28.5c-2.5,0-4.5,2-4.5,4.5c0,1.6,0.9,3.1,2.2,3.9v3.7c0,1.3,1,2.4,2.3,2.4c1.3,0,2.3-1.1,2.3-2.4v-3.7
		c1.4-0.8,2.2-2.3,2.2-3.9C28.5,30.5,26.5,28.5,24,28.5z"/>
	<path fill="#E77528" d="M35.9,20.3h-4.4H16.4h-4.4c-2.1,0-3.7,1.7-3.7,3.8v19.7c0,2.1,1.7,3.8,3.8,3.8h23.8c2.1,0,3.8-1.7,3.8-3.8
		V24.1C39.6,22,38,20.3,35.9,20.3z M15.9,44.1c-2.5,0-3.5-1.9-3.6-3.2l0-15.8c0-0.5,0.4-1,1-1c0.5,0,1,0.4,1,1v15.7
		c0,0.2,0.2,1.3,1.6,1.3c0.5,0,1,0.4,1,1C16.9,43.7,16.4,44.1,15.9,44.1z M26.3,36.9v3.7c0,1.3-1,2.4-2.3,2.4
		c-1.3,0-2.3-1.1-2.3-2.4v-3.7c-1.4-0.8-2.2-2.3-2.2-3.9c0-2.5,2-4.5,4.5-4.5c2.5,0,4.5,2,4.5,4.5C28.5,34.6,27.7,36.1,26.3,36.9z"
		/>
	<path fill="#06728D" d="M16.4,11.8c0-4.2,2.7-7,7-7h1.2c4.2,0,7,2.7,7,7v8.5h4.4v-8.5c0-6.2-5.1-11.3-11.3-11.3h-1.2
		c-6.2,0-11.3,5.1-11.3,11.3v8.5h4.4V11.8z"/>
</g>
</svg>
