<?xml version="1.0" encoding="utf-8"?>
<!-- Generator: Adobe Illustrator 18.0.0, SVG Export Plug-In . SVG Version: 6.00 Build 0)  -->
<!DOCTYPE svg PUBLIC "-//W3C//DTD SVG 1.1//EN" "http://www.w3.org/Graphics/SVG/1.1/DTD/svg11.dtd">
<svg version="1.1" id="Layer_1" xmlns="http://www.w3.org/2000/svg" xmlns:xlink="http://www.w3.org/1999/xlink" x="0px" y="0px"
	 viewBox="0 0 48 48" enable-background="new 0 0 48 48" xml:space="preserve">
<g>
	<rect x="33.9" y="24.4" fill="#F04B36" width="13.6" height="4.2"/>
	<rect x="33.9" y="29.5" fill="#06728D" width="13.6" height="4.2"/>
	<rect x="33.9" y="34.7" fill="#E8B944" width="13.6" height="4.2"/>
	<path fill="#F04B36" d="M22.4,23.9v-0.9c-0.5,0-1-0.2-1.3-0.4l0.2-0.6c0.3,0.2,0.8,0.4,1.3,0.4c0.6,0,1-0.4,1-0.8
		c0-0.5-0.3-0.8-1-1c-0.9-0.3-1.4-0.7-1.4-1.5c0-0.7,0.5-1.3,1.3-1.4v-0.9H23v0.8c0.5,0,0.9,0.2,1.1,0.3l-0.2,0.6
		c-0.2-0.1-0.5-0.3-1.1-0.3c-0.7,0-0.9,0.4-0.9,0.7c0,0.5,0.3,0.7,1.1,1c0.9,0.4,1.3,0.8,1.3,1.6c0,0.7-0.5,1.3-1.4,1.5v0.9H22.4z"
		/>
	<path fill="#0DB89A" d="M32.3,23.8c0-0.6,0.5-1,1-1h11.6V9.4c0-0.1-0.1-0.3-0.3-0.3H0.8c-0.1,0-0.3,0.1-0.3,0.3v21.9
		c0,0.1,0.1,0.3,0.3,0.3h31.5V23.8z M38.7,18.4c1.1,0,2,0.9,2,2c0,1.1-0.9,2-2,2c-1.1,0-2-0.9-2-2C36.8,19.3,37.7,18.4,38.7,18.4z
		 M6.4,22.3c-1.1,0-2-0.9-2-2c0-1.1,0.9-2,2-2c1.1,0,2,0.9,2,2C8.4,21.5,7.5,22.3,6.4,22.3z M22.7,25.7c-2.9,0-5.3-2.4-5.3-5.3
		c0-2.9,2.4-5.3,5.3-5.3c2.9,0,5.3,2.4,5.3,5.3C28,23.3,25.6,25.7,22.7,25.7z"/>
</g>
</svg>
