<?xml version="1.0" encoding="utf-8"?>
<!-- Generator: Adobe Illustrator 18.0.0, SVG Export Plug-In . SVG Version: 6.00 Build 0)  -->
<!DOCTYPE svg PUBLIC "-//W3C//DTD SVG 1.1//EN" "http://www.w3.org/Graphics/SVG/1.1/DTD/svg11.dtd">
<svg version="1.1" id="Layer_1" xmlns="http://www.w3.org/2000/svg" xmlns:xlink="http://www.w3.org/1999/xlink" x="0px" y="0px"
	 viewBox="0 0 48 48" enable-background="new 0 0 48 48" xml:space="preserve">
<g>
	<path fill="#F04B36" d="M44.6,8c-1.6,0-2.9,1.3-2.9,2.9c0,0.4,0.1,0.7,0.2,1l-1.2,1.2v2.8l2.5-2.4c0.4,0.2,0.9,0.3,1.3,0.3
		c1.6,0,2.9-1.3,2.9-2.9C47.5,9.3,46.2,8,44.6,8z"/>
	<path fill="#06728D" d="M3.7,31.4h36.8c0.1,0,0.2-0.1,0.2-0.2V15.9l-5.1,5c0,0.2,0.1,0.4,0.1,0.6c0,1.6-1.3,2.9-2.9,2.9
		c-1.6,0-2.9-1.3-2.9-2.9c0-0.1,0-0.3,0-0.4l-6.8-4.7c-0.4,0.2-0.8,0.3-1.2,0.3c-0.7,0-1.4-0.3-1.9-0.7l-8.6,3.4c0,0,0,0,0,0
		c0,1.6-1.3,2.9-2.9,2.9c-1.6,0-2.9-1.3-2.9-2.9c0-1.6,1.3-2.9,2.9-2.9c0.9,0,1.6,0.4,2.2,1l8.3-3.3c0-0.1,0-0.2,0-0.4
		c0-1.6,1.3-2.9,2.9-2.9c1.6,0,2.9,1.3,2.9,2.9c0,0.4-0.1,0.8-0.3,1.2l6.3,4.4c0.5-0.4,1.1-0.7,1.9-0.7c0.6,0,1.2,0.2,1.7,0.6l6.2-6
		V6c0-0.1-0.1-0.2-0.2-0.2H3.7C3.6,5.8,3.5,5.9,3.5,6v25.2C3.5,31.3,3.6,31.4,3.7,31.4z"/>
	<path fill="#E8B944" d="M43.5,34H0.7c-0.1,0-0.2,0.1-0.2,0.2V42c0,0.1,0.1,0.2,0.2,0.2h42.7c0.1,0,0.2-0.1,0.2-0.2v-7.7
		C43.7,34.1,43.6,34,43.5,34z M11.6,39.1H4.8c-0.5,0-1-0.4-1-1s0.4-1,1-1h6.9c0.5,0,1,0.4,1,1S12.2,39.1,11.6,39.1z M16.9,39.1h-2.8
		c-0.5,0-1-0.4-1-1s0.4-1,1-1h2.8c0.5,0,1,0.4,1,1S17.4,39.1,16.9,39.1z"/>
</g>
</svg>
