<?xml version="1.0" encoding="utf-8"?>
<!-- Generator: Adobe Illustrator 18.0.0, SVG Export Plug-In . SVG Version: 6.00 Build 0)  -->
<!DOCTYPE svg PUBLIC "-//W3C//DTD SVG 1.1//EN" "http://www.w3.org/Graphics/SVG/1.1/DTD/svg11.dtd">
<svg version="1.1" id="Layer_1" xmlns="http://www.w3.org/2000/svg" xmlns:xlink="http://www.w3.org/1999/xlink" x="0px" y="0px"
	 viewBox="0 0 48 48" enable-background="new 0 0 48 48" xml:space="preserve">
<g>
	<path fill="#F7A93B" d="M47.1,28.7c-0.5-0.8-1.3-1.3-2.3-1.3c-0.5,0-0.9,0.1-1.3,0.4l-12.6,7.4L25.2,33c0,0-0.2-0.1-0.3-0.3
		c-0.1-0.2-0.1-0.6,0.1-1c0.2-0.5,0.5-0.7,0.8-0.7c0.1,0,0.2,0,0.2,0.1l4,1.5c0.3,0.1,0.6,0.2,0.9,0.2c1.1,0,2.1-0.7,2.4-1.7
		c0.3-0.7,0.2-1.4,0-2c-0.3-0.6-0.8-1.1-1.5-1.4l-10.7-4.1c-0.4-0.2-0.9-0.2-1.3-0.1c-3.5,0.7-5.6,2.1-5.7,2.2l-0.1,0.1v11.3l0.3,0
		c0,0,2.6-0.2,3.4-0.2c1.7,0,3.9,0.6,3.9,0.6l8.5,3.4c0.3,0.1,0.6,0.2,1,0.2c0.5,0,0.9-0.1,1.3-0.4l13.7-8.1
		C47.5,31.6,47.9,30,47.1,28.7z"/>
	<path fill="#06728D" d="M0.5,39.3h11.8V25H0.5V39.3z M8,27.7c0.9,0,1.6,0.7,1.6,1.6c0,0.9-0.7,1.6-1.6,1.6c-0.9,0-1.6-0.7-1.6-1.6
		C6.4,28.4,7.1,27.7,8,27.7z"/>
	<path fill="#0DB89A" d="M19.6,21.5c0.3,0,0.5-0.1,0.8-0.1c0.5,0,1.1,0.1,1.6,0.3l7.3,2.8v-0.7c-1.1,0-2.2-0.4-2.8-0.8l0.4-1.2
		c0.7,0.4,1.6,0.8,2.7,0.8c1.3,0,2.2-0.8,2.2-1.8c0-1-0.7-1.6-2.1-2.2c-1.9-0.7-3-1.6-3-3.2c0-1.5,1.1-2.7,2.8-3v-1.9h1.1v1.8
		c1.1,0,1.9,0.3,2.4,0.6l-0.5,1.2c-0.4-0.2-1.1-0.6-2.3-0.6c-1.4,0-2,0.8-2,1.6c0,1,0.7,1.4,2.3,2.1c1.9,0.8,2.9,1.7,2.9,3.4
		c0,1.5-1,2.8-2.9,3.1V25l2.2,0.8c1.1,0.4,2,1.3,2.5,2.4c0.3,0.7,0.4,1.4,0.4,2.1l2.3-1.4c2.6-2.3,4.1-5.7,4.1-9.3
		c0-6.9-5.6-12.5-12.5-12.5c-6.9,0-12.5,5.6-12.5,12.5c0,0.8,0.1,1.6,0.2,2.4C17.9,21.9,18.7,21.7,19.6,21.5z"/>
</g>
</svg>
