<?xml version="1.0" encoding="utf-8"?>
<!-- Generator: Adobe Illustrator 18.0.0, SVG Export Plug-In . SVG Version: 6.00 Build 0)  -->
<!DOCTYPE svg PUBLIC "-//W3C//DTD SVG 1.1//EN" "http://www.w3.org/Graphics/SVG/1.1/DTD/svg11.dtd">
<svg version="1.1" id="Layer_1" xmlns="http://www.w3.org/2000/svg" xmlns:xlink="http://www.w3.org/1999/xlink" x="0px" y="0px"
	 viewBox="0 0 48 48" enable-background="new 0 0 48 48" xml:space="preserve">
<g>
	<path fill="#06728D" d="M45.3,0.9c-0.5-0.3-1.1-0.4-1.7-0.4c-1.6,0-3,0.9-3.7,2.4l-6.9,14c0,0,0,0,0,0l-8.5,17.5
		c0,0.1-0.1,0.1-0.1,0.2l-0.7,3.2c-0.1,0.4,0.1,0.9,0.5,1.1l4.1,2c0.1,0.1,0.3,0.1,0.4,0.1c0.3,0,0.6-0.1,0.7-0.3l2.1-2.5
		c0.1-0.1,0.1-0.1,0.1-0.2l8.5-17.5c0,0,0,0,0,0L40,21l7.1-14.6C48.1,4.4,47.3,1.9,45.3,0.9z M45.3,5.6l-7.1,14.6
		c-0.5,1.1-1.8,1.6-2.8,1.1c-1-0.5-1.4-1.8-0.9-2.9l7.1-14.6c0.4-0.8,1.1-1.3,2-1.3c0.3,0,0.6,0.1,0.9,0.2
		C45.4,3.2,45.9,4.5,45.3,5.6z"/>
	<path fill="#0DB89A" d="M42.1,21.2l-8.6,17.7c-0.1,0.2-0.2,0.4-0.4,0.6l-2.1,2.5c-0.4,0.5-1,0.8-1.7,1l-5.7,4.6h16
		c1.7,0,3.1-1.4,3.1-3.1V19.9L42.1,21.2L42.1,21.2z"/>
	<polygon fill="#F04B36" points="23.7,44.9 28.1,41.4 23.9,39.3 	"/>
	<polygon fill="#F7A93B" points="6.4,23.4 6.4,26 19.7,26 24.1,26 26.4,26 27.6,23.4 27.1,23.4 27.1,23.4 	"/>
	<path fill="#F7A93B" d="M16.7,35.9H6.4v2.6h14.4c0,0,0,0,0,0h0.9c-0.1-0.4-0.1-0.8,0-1.1l0.2-1l0-0.2l0,0l0.1-0.3L16.7,35.9
		L16.7,35.9z"/>
	<path fill="#0DB89A" d="M24.1,27.9h-4.3H5.4c-0.5,0-1-0.4-1-1v-4.5c0-0.5,0.4-1,1-1h16.4h5.2h1.5l2.4-4.8c0,0,0,0,0,0l0.1-0.3H3.6
		c-1.7,0-3.1,1.4-3.1,3.1v25c0,1.7,1.4,3.1,3.1,3.1h18.1l0.2-7h-5.2v0H5.4c-0.5,0-1-0.4-1-1v-4.5c0-0.5,0.4-1,1-1h15.4c0,0,0,0,0,0
		h1.6c0-0.2,0.1-0.3,0.2-0.4l2.7-5.6H24.1z"/>
</g>
</svg>
