<?xml version="1.0" encoding="utf-8"?>
<!-- Generator: Adobe Illustrator 18.0.0, SVG Export Plug-In . SVG Version: 6.00 Build 0)  -->
<!DOCTYPE svg PUBLIC "-//W3C//DTD SVG 1.1//EN" "http://www.w3.org/Graphics/SVG/1.1/DTD/svg11.dtd">
<svg version="1.1" id="Layer_1" xmlns="http://www.w3.org/2000/svg" xmlns:xlink="http://www.w3.org/1999/xlink" x="0px" y="0px"
	 viewBox="0 0 48 48" enable-background="new 0 0 48 48" xml:space="preserve">
<g>
	<path fill="#4DA0D8" d="M34.2,7.4c0.2,0,0.5-0.1,0.7-0.3l4.9-4.9c0.4-0.4,0.4-1,0-1.4c-0.4-0.4-1-0.4-1.4,0l-4.9,4.9
		c-0.4,0.4-0.4,1,0,1.4C33.7,7.3,33.9,7.4,34.2,7.4z"/>
	<path fill="#4DA0D8" d="M47,7.9c-0.4-0.4-1-0.4-1.4,0l-4.9,4.9c-0.4,0.4-0.4,1,0,1.4c0.2,0.2,0.4,0.3,0.7,0.3
		c0.2,0,0.5-0.1,0.7-0.3L47,9.3C47.4,8.9,47.4,8.3,47,7.9z"/>
	<path fill="#F04B36" d="M42.4,21.6h-1.2c-0.7-3.1-2.1-5.9-4-8.2l4-4c0.8-0.8,0.8-2,0-2.8c-0.8-0.8-2-0.8-2.8,0l-4.1,4.1
		c0.3,0.1,0.5,0.4,0.7,0.6c0.1,0.1,0.2,0.2,0.3,0.3c0,0,0.1,0.1,0.1,0.1c0.1,0,0.1,0.1,0.2,0.1c0,0,0.2,0.2,0.3,0.3
		c0.1,0.1,0.2,0.1,0.2,0.2c0.1,0.1,0.3,0.2,0.4,0.3c0,0,0,0.1,0.1,0.1c0.1,0.1,0.2,0.2,0.3,0.3c0.1,0.1,0.2,0.3,0.3,0.4l-4,4
		c-0.4,0.4-0.9,0.6-1.4,0.6c-0.2,0-0.4,0-0.6-0.1c0,0.1-0.1,0.1-0.1,0.2l-1.5,1.5c1.4,1.6,2.2,3.6,2.2,5.9c0,5-4,9-9,9c-5,0-9-4-9-9
		c0-5,4-9,9-9c2,0,3.9,0.7,5.3,1.8l1.6-1.6c0.1-0.1,0.1-0.1,0.2-0.1c-0.2-0.7,0-1.4,0.5-1.9l4-4c-2.2-1.7-4.8-3-7.7-3.6V5.9
		c0-1.3-1.1-2.4-2.4-2.4h-3.1c-1.3,0-2.4,1.1-2.4,2.4v1.2c-2.3,0.5-4.4,1.4-6.3,2.6l-0.8-0.8c-0.9-0.9-2.5-0.9-3.4,0L6.1,11
		c-0.5,0.5-0.7,1.1-0.7,1.7c0,0.6,0.2,1.2,0.7,1.7l0.8,0.8c-1.2,1.9-2.1,4-2.6,6.3H3.1c-1.3,0-2.4,1.1-2.4,2.4V27
		c0,1.3,1.1,2.4,2.4,2.4h1.2c0.5,2.3,1.4,4.4,2.6,6.3l-0.8,0.8c-0.5,0.4-0.7,1.1-0.7,1.7c0,0.6,0.2,1.2,0.7,1.7l2.2,2.2
		c0.5,0.4,1.1,0.7,1.7,0.7c0.6,0,1.2-0.2,1.7-0.7l0.8-0.8c1.9,1.2,4,2.1,6.3,2.6v1.2c0,1.3,1.1,2.4,2.4,2.4h3.1
		c1.3,0,2.4-1.1,2.4-2.4v-1.2c2.3-0.5,4.4-1.4,6.3-2.6l0.8,0.8c0.9,0.9,2.5,0.9,3.4,0l2.2-2.2c0.4-0.4,0.7-1.1,0.7-1.7
		c0-0.6-0.2-1.2-0.7-1.7l-0.8-0.8c1.2-1.9,2.1-4,2.6-6.3h1.2c1.3,0,2.4-1.1,2.4-2.4V24C44.8,22.6,43.7,21.6,42.4,21.6z"/>
	<path fill="#F7A93B" d="M26.7,19.7c-1.1-0.8-2.5-1.2-4-1.2c-3.9,0-7,3.2-7,7c0,3.9,3.2,7,7,7c3.9,0,7-3.2,7-7
		c0-1.7-0.6-3.3-1.6-4.5L23,26.1c-0.2,0.2-0.4,0.3-0.7,0.3c-0.2,0-0.5-0.1-0.7-0.3c-0.4-0.4-0.4-1,0-1.4L26.7,19.7z"/>
</g>
</svg>
