<?xml version="1.0" encoding="utf-8"?>
<!-- Generator: Adobe Illustrator 18.0.0, SVG Export Plug-In . SVG Version: 6.00 Build 0)  -->
<!DOCTYPE svg PUBLIC "-//W3C//DTD SVG 1.1//EN" "http://www.w3.org/Graphics/SVG/1.1/DTD/svg11.dtd">
<svg version="1.1" id="Layer_1" xmlns="http://www.w3.org/2000/svg" xmlns:xlink="http://www.w3.org/1999/xlink" x="0px" y="0px"
	 viewBox="0 0 48 48" enable-background="new 0 0 48 48" xml:space="preserve">
<g>
	<path fill="#4DA0D8" d="M6.1,41.4h35.7V10.6H6.1V41.4z M24,12.8c7.3,0,13.2,5.9,13.2,13.2c0,7.3-5.9,13.2-13.2,13.2
		S10.8,33.3,10.8,26C10.8,18.7,16.7,12.8,24,12.8z"/>
	<path fill="#F04B36" d="M24,37.2c6.2,0,11.2-5,11.2-11.2c0-6.2-5-11.2-11.2-11.2s-11.2,5-11.2,11.2C12.8,32.2,17.8,37.2,24,37.2z
		 M15.1,23.9c0.1-0.4,0.5-0.6,0.9-0.7l5.2-0.4l2-4.8c0.2-0.4,0.5-0.6,0.9-0.6c0.4,0,0.8,0.2,0.9,0.6l2,4.8l5.2,0.4
		c0.4,0,0.7,0.3,0.9,0.7c0.1,0.4,0,0.8-0.3,1.1l-3.9,3.4l1.1,4.9c0.1,0.1,0.1,0.3,0.1,0.4c0,0.5-0.4,1-1,1c0,0,0,0,0,0
		c-0.2,0-0.4,0-0.5-0.1L24,31.8l-4.4,2.7c-0.3,0.2-0.8,0.2-1.1,0c-0.3-0.2-0.5-0.6-0.4-1l1.2-5L15.4,25
		C15.1,24.7,14.9,24.3,15.1,23.9z"/>
	<path fill="#F7A93B" d="M21.3,28.2l-0.8,3.3l2.9-1.8c0.2-0.1,0.3-0.1,0.5-0.1s0.4,0,0.5,0.1l2.9,1.8l-0.8-3.3c-0.1-0.4,0-0.7,0.3-1
		l2.6-2.2l-3.4-0.3c-0.4,0-0.7-0.3-0.8-0.6L24,20.9l-1.3,3.2c-0.1,0.3-0.5,0.6-0.8,0.6L18.4,25l2.6,2.2
		C21.3,27.5,21.4,27.9,21.3,28.2z"/>
	<path fill="#06728D" d="M44.3,0.5H3.7c-1.7,0-3.2,1.4-3.2,3.2v40.7c0,1.7,1.4,3.2,3.2,3.2h40.7c1.7,0,3.2-1.4,3.2-3.2V3.7
		C47.5,1.9,46.1,0.5,44.3,0.5z M31.5,4.6h4.4c0.5,0,1,0.4,1,1c0,0.5-0.4,1-1,1h-4.4c-0.5,0-1-0.4-1-1C30.5,5.1,30.9,4.6,31.5,4.6z
		 M22.7,4.6H27c0.5,0,1,0.4,1,1c0,0.5-0.4,1-1,1h-4.4c-0.5,0-1-0.4-1-1C21.7,5.1,22.1,4.6,22.7,4.6z M13.9,4.6h4.4c0.5,0,1,0.4,1,1
		c0,0.5-0.4,1-1,1h-4.4c-0.5,0-1-0.4-1-1C12.9,5.1,13.4,4.6,13.9,4.6z M5.1,4.6h4.4c0.5,0,1,0.4,1,1c0,0.5-0.4,1-1,1H5.1
		c-0.5,0-1-0.4-1-1C4.2,5.1,4.6,4.6,5.1,4.6z M43.8,42.4c0,0.5-0.4,1-1,1H5.1c-0.5,0-1-0.4-1-1V9.6c0-0.5,0.4-1,1-1h37.7
		c0.5,0,1,0.4,1,1V42.4z"/>
</g>
</svg>
