<?xml version="1.0" encoding="utf-8"?>
<!-- Generator: Adobe Illustrator 18.0.0, SVG Export Plug-In . SVG Version: 6.00 Build 0)  -->
<!DOCTYPE svg PUBLIC "-//W3C//DTD SVG 1.1//EN" "http://www.w3.org/Graphics/SVG/1.1/DTD/svg11.dtd">
<svg version="1.1" id="Layer_1" xmlns="http://www.w3.org/2000/svg" xmlns:xlink="http://www.w3.org/1999/xlink" x="0px" y="0px"
	 viewBox="0 0 48 48" enable-background="new 0 0 48 48" xml:space="preserve">
<g>
	<path fill="#E77528" d="M46.9,22.3L23.7,0.6c-0.1-0.1-0.2-0.1-0.3,0L0.1,22.3C0,22.4,0,22.5,0,22.6l3.4,5.5c0,0.1,0.1,0.1,0.2,0.1
		c0,0,0,0,0,0c0.1,0,0.1,0,0.2-0.1L23.5,9.7l19.7,18.4c0.1,0.1,0.1,0.1,0.2,0.1c0.1,0,0.1-0.1,0.2-0.1l3.4-5.5
		C47,22.5,47,22.4,46.9,22.3z"/>
	<path fill="#294E58" d="M23.5,24.3c1.4,0,2.6-1.3,2.6-2.9c0-1.6-1.2-2.9-2.6-2.9c-1.4,0-2.6,1.3-2.6,2.9
		C20.9,23,22.1,24.3,23.5,24.3z"/>
	<path fill="#0DB89A" d="M7.3,27.6v19.7c0,0.1,0.1,0.2,0.2,0.2h11.3c0.1,0,0.2-0.1,0.2-0.2V36.2c0-2.5,2-4.6,4.5-4.6
		c2.5,0,4.5,2,4.5,4.6v11.1c0,0.1,0.1,0.2,0.2,0.2h11.3c0.1,0,0.2-0.1,0.2-0.2V27.6L23.5,12.4L7.3,27.6z M28.1,21.4
		c0,2.7-2.1,4.9-4.6,4.9s-4.6-2.2-4.6-4.9c0-2.7,2.1-4.9,4.6-4.9S28.1,18.7,28.1,21.4z"/>
</g>
</svg>
