<?xml version="1.0" encoding="utf-8"?>
<!-- Generator: Adobe Illustrator 18.0.0, SVG Export Plug-In . SVG Version: 6.00 Build 0)  -->
<!DOCTYPE svg PUBLIC "-//W3C//DTD SVG 1.1//EN" "http://www.w3.org/Graphics/SVG/1.1/DTD/svg11.dtd">
<svg version="1.1" id="Layer_1" xmlns="http://www.w3.org/2000/svg" xmlns:xlink="http://www.w3.org/1999/xlink" x="0px" y="0px"
	 viewBox="0 0 48 48" enable-background="new 0 0 48 48" xml:space="preserve">
<g>
	<path fill="#4DA0D8" d="M10,27.9c0.5,0,1-0.4,1-1v-4.1c0-0.5-0.4-1-1-1c-0.5,0-1,0.4-1,1v4.1C9.1,27.5,9.5,27.9,10,27.9z"/>
	<path fill="#6E3C3C" d="M15.3,27.9c0.5,0,1-0.4,1-1v-1.8c0-0.5-0.4-1-1-1s-1,0.4-1,1v1.8C14.3,27.5,14.8,27.9,15.3,27.9z"/>
	<path fill="#0DB89A" d="M20.6,27.9c0.5,0,1-0.4,1-1v-7.9c0-0.5-0.4-1-1-1c-0.5,0-1,0.4-1,1v7.9C19.6,27.5,20.1,27.9,20.6,27.9z"/>
	<path fill="#CE8931" d="M25.9,27.9c0.5,0,1-0.4,1-1V14.1c0-0.5-0.4-1-1-1c-0.5,0-1,0.4-1,1v12.8C24.9,27.5,25.3,27.9,25.9,27.9z"/>
	<path fill="#4DA0D8" d="M31.2,27.9c0.5,0,1-0.4,1-1v-5.8c0-0.5-0.4-1-1-1c-0.5,0-1,0.4-1,1v5.8C30.2,27.5,30.6,27.9,31.2,27.9z"/>
	<path fill="#F04B36" d="M36.4,27.9c0.5,0,1-0.4,1-1V11.2c0-0.5-0.4-1-1-1c-0.5,0-1,0.4-1,1v15.7C35.4,27.5,35.9,27.9,36.4,27.9z"/>
	<rect x="4.9" y="8.4" fill="none" width="38.1" height="21.4"/>
	<path fill="#0DB89A" d="M47.3,34.3c0.1,0,0.2-0.1,0.2-0.2V4.2c0-0.1-0.1-0.2-0.2-0.2H0.7C0.6,4,0.5,4.1,0.5,4.2v29.8
		c0,0.1,0.1,0.2,0.2,0.2h13.1h20.3H47.3z M4.9,29.9V8.4h38.1v21.4H4.9z"/>
	<path fill="#06728D" d="M42.6,36.9h-8.5v-2.6H13.9v2.6H5.4c-0.1,0-0.2,0.1-0.2,0.2v6.6c0,0.1,0.1,0.2,0.2,0.2h37.2
		c0.1,0,0.2-0.1,0.2-0.2v-6.6C42.9,37,42.8,36.9,42.6,36.9z"/>
</g>
</svg>
