<?xml version="1.0" encoding="utf-8"?>
<!-- Generator: Adobe Illustrator 18.0.0, SVG Export Plug-In . SVG Version: 6.00 Build 0)  -->
<!DOCTYPE svg PUBLIC "-//W3C//DTD SVG 1.1//EN" "http://www.w3.org/Graphics/SVG/1.1/DTD/svg11.dtd">
<svg version="1.1" id="Layer_1" xmlns="http://www.w3.org/2000/svg" xmlns:xlink="http://www.w3.org/1999/xlink" x="0px" y="0px"
	 viewBox="0 0 48 48" enable-background="new 0 0 48 48" xml:space="preserve">
<g>
	<path fill="#F04B36" d="M2.9,41.6h5.4c0.1,0,0.2-0.1,0.2-0.2v-6.8c0-0.1-0.1-0.2-0.2-0.2H2.9c-0.1,0-0.2,0.1-0.2,0.2v6.8
		C2.7,41.5,2.8,41.6,2.9,41.6z"/>
	<path fill="#465E6B" d="M2.9,33.1h5.4c0.1,0,0.2-0.1,0.2-0.2v-6.8c0-0.1-0.1-0.2-0.2-0.2H2.9c-0.1,0-0.2,0.1-0.2,0.2v6.8
		C2.7,33,2.8,33.1,2.9,33.1z"/>
	<path fill="#E2A14A" d="M2.9,24.6h5.4c0.1,0,0.2-0.1,0.2-0.2v-6.8c0-0.1-0.1-0.2-0.2-0.2H2.9c-0.1,0-0.2,0.1-0.2,0.2v6.8
		C2.7,24.6,2.8,24.6,2.9,24.6z"/>
	<path fill="#465E6B" d="M12.3,41.6h5.4c0.1,0,0.2-0.1,0.2-0.2v-6.8c0-0.1-0.1-0.2-0.2-0.2h-5.4c-0.1,0-0.2,0.1-0.2,0.2v6.8
		C12,41.5,12.1,41.6,12.3,41.6z"/>
	<path fill="#465E6B" d="M12.3,33.1h5.4c0.1,0,0.2-0.1,0.2-0.2v-6.8c0-0.1-0.1-0.2-0.2-0.2h-5.4c-0.1,0-0.2,0.1-0.2,0.2v6.8
		C12,33,12.1,33.1,12.3,33.1z"/>
	<path fill="#465E6B" d="M12.3,24.6h5.4c0.1,0,0.2-0.1,0.2-0.2v-6.8c0-0.1-0.1-0.2-0.2-0.2h-5.4c-0.1,0-0.2,0.1-0.2,0.2v6.8
		C12,24.6,12.1,24.6,12.3,24.6z"/>
	<path fill="#F04B36" d="M12.3,16.2h5.4c0.1,0,0.2-0.1,0.2-0.2V9.2C18,9.1,17.8,9,17.7,9h-5.4C12.1,9,12,9.1,12,9.2V16
		C12,16.1,12.1,16.2,12.3,16.2z"/>
	<path fill="#465E6B" d="M21.3,41.6h5.4c0.1,0,0.2-0.1,0.2-0.2v-6.8c0-0.1-0.1-0.2-0.2-0.2h-5.4c-0.1,0-0.2,0.1-0.2,0.2v6.8
		C21,41.5,21.2,41.6,21.3,41.6z"/>
	<path fill="#4DA0D8" d="M21.3,33.1h5.4c0.1,0,0.2-0.1,0.2-0.2v-6.8c0-0.1-0.1-0.2-0.2-0.2h-5.4c-0.1,0-0.2,0.1-0.2,0.2v6.8
		C21,33,21.2,33.1,21.3,33.1z"/>
	<path fill="#465E6B" d="M21.3,24.6h5.4c0.1,0,0.2-0.1,0.2-0.2v-6.8c0-0.1-0.1-0.2-0.2-0.2h-5.4c-0.1,0-0.2,0.1-0.2,0.2v6.8
		C21,24.6,21.2,24.6,21.3,24.6z"/>
	<path fill="#465E6B" d="M21.3,16.2h5.4c0.1,0,0.2-0.1,0.2-0.2V9.2C27,9.1,26.8,9,26.7,9h-5.4C21.2,9,21,9.1,21,9.2V16
		C21,16.1,21.2,16.2,21.3,16.2z"/>
	<path fill="#0DB89A" d="M30.3,41.6h5.4c0.1,0,0.2-0.1,0.2-0.2v-6.8c0-0.1-0.1-0.2-0.2-0.2h-5.4c-0.1,0-0.2,0.1-0.2,0.2v6.8
		C30,41.5,30.2,41.6,30.3,41.6z"/>
	<path fill="#465E6B" d="M30.3,33.1h5.4c0.1,0,0.2-0.1,0.2-0.2v-6.8c0-0.1-0.1-0.2-0.2-0.2h-5.4c-0.1,0-0.2,0.1-0.2,0.2v6.8
		C30,33,30.2,33.1,30.3,33.1z"/>
	<path fill="#CE8931" d="M30.3,24.6h5.4c0.1,0,0.2-0.1,0.2-0.2v-6.8c0-0.1-0.1-0.2-0.2-0.2h-5.4c-0.1,0-0.2,0.1-0.2,0.2v6.8
		C30,24.6,30.2,24.6,30.3,24.6z"/>
	<path fill="#294E58" d="M39.3,41.6h5.4c0.1,0,0.2-0.1,0.2-0.2v-6.8c0-0.1-0.1-0.2-0.2-0.2h-5.4c-0.1,0-0.2,0.1-0.2,0.2v6.8
		C39.1,41.5,39.2,41.6,39.3,41.6z"/>
	<path fill="#4DA0D8" d="M12.3,7.7h5.4c0.1,0,0.2-0.1,0.2-0.2V0.7c0-0.1-0.1-0.2-0.2-0.2h-5.4c-0.1,0-0.2,0.1-0.2,0.2v6.8
		C12,7.6,12.1,7.7,12.3,7.7z"/>
	<path fill="#0DB89A" d="M47.3,42.9H0.7c-0.1,0-0.2,0.1-0.2,0.2v4.2c0,0.1,0.1,0.2,0.2,0.2h46.5c0.1,0,0.2-0.1,0.2-0.2v-4.2
		C47.5,43,47.4,42.9,47.3,42.9z"/>
</g>
</svg>
