<?xml version="1.0" encoding="utf-8"?>
<!-- Generator: Adobe Illustrator 18.0.0, SVG Export Plug-In . SVG Version: 6.00 Build 0)  -->
<!DOCTYPE svg PUBLIC "-//W3C//DTD SVG 1.1//EN" "http://www.w3.org/Graphics/SVG/1.1/DTD/svg11.dtd">
<svg version="1.1" id="Layer_1" xmlns="http://www.w3.org/2000/svg" xmlns:xlink="http://www.w3.org/1999/xlink" x="0px" y="0px"
	 viewBox="0 0 48 48" enable-background="new 0 0 48 48" xml:space="preserve">
<g>
	<path fill="#06728D" d="M38.3,6.5v-2h2.4c0.1,0,0.2-0.1,0.2-0.2V0.7c0-0.1-0.1-0.2-0.2-0.2H7.3C7.1,0.5,7,0.6,7,0.7v3.5
		c0,0.1,0.1,0.2,0.2,0.2h2.4v2c0,6.6,3.2,12.7,8.1,15.5c0.3,0.4,1.1,1.6,1,2.6c-0.1,0.5-0.3,0.9-0.7,1.3c-5.1,2.7-8.3,8.8-8.3,15.6
		v2H7.3c-0.1,0-0.2,0.1-0.2,0.2v3.5c0,0.1,0.1,0.2,0.2,0.2h33.5c0.1,0,0.2-0.1,0.2-0.2v-3.5c0-0.1-0.1-0.2-0.2-0.2h-2.4v-2
		c0-6.8-3.3-12.9-8.3-15.6c-0.4-0.4-0.7-0.8-0.7-1.3c-0.1-1.1,0.7-2.2,1-2.6C35.2,19.2,38.3,13.1,38.3,6.5z M27.3,24.8
		c0.1,1,0.6,1.9,1.5,2.7c0,0,0.1,0.1,0.2,0.1c4.5,2.4,7.4,7.8,7.4,13.9v1.3H11.7v-1.3c0-6.1,2.9-11.6,7.4-13.9
		c0.1,0,0.1-0.1,0.2-0.1c0.9-0.7,1.4-1.6,1.5-2.7c0.2-1.9-1-3.6-1.6-4.3c-0.1-0.1-0.2-0.2-0.3-0.2c-4.4-2.4-7.2-7.8-7.2-13.8V5.2
		h24.7v1.3c0,6-2.8,11.4-7.2,13.8c-0.1,0.1-0.2,0.1-0.3,0.2C28.3,21.2,27.1,22.9,27.3,24.8z"/>
	<path fill="#F04B36" d="M31.7,12.6c0-0.1,0-0.2,0-0.3c-0.1-0.1-0.2-0.1-0.3-0.1l-12.3,4c-0.1,0-0.1,0.1-0.2,0.2
		c0,0.1,0,0.2,0.1,0.2c0.6,0.5,1.1,1,1.7,1.3l0.7,0.4L22,19c0.8,1,1.4,2.1,1.8,3.1c0,0.1,0.1,0.2,0.2,0.2c0.1,0,0.2-0.1,0.2-0.2
		c0.4-1.1,1-2.1,1.8-3.1l0.5-0.6l0.7-0.4C29.1,17,30.7,15,31.7,12.6z"/>
	<path fill="#F7A93B" d="M26.8,29.8l-0.3-0.3c-1.1-0.8-1.8-1.8-2.2-3c-0.1-0.2-0.4-0.2-0.5,0c-0.4,1.1-1.2,2.1-2.2,3l-0.3,0.2
		L20.9,30c-2.9,1.6-5.2,5.4-5.7,9.7c0,0.1,0,0.1,0.1,0.2c0,0.1,0.1,0.1,0.2,0.1h17.1c0.1,0,0.1,0,0.2-0.1c0-0.1,0.1-0.1,0.1-0.2
		c-0.5-4.4-2.7-8.2-5.7-9.7L26.8,29.8z"/>
</g>
</svg>
