<?xml version="1.0" encoding="utf-8"?>
<!-- Generator: Adobe Illustrator 18.0.0, SVG Export Plug-In . SVG Version: 6.00 Build 0)  -->
<!DOCTYPE svg PUBLIC "-//W3C//DTD SVG 1.1//EN" "http://www.w3.org/Graphics/SVG/1.1/DTD/svg11.dtd">
<svg version="1.1" id="Layer_1" xmlns="http://www.w3.org/2000/svg" xmlns:xlink="http://www.w3.org/1999/xlink" x="0px" y="0px"
	 viewBox="0 0 48 48" enable-background="new 0 0 48 48" xml:space="preserve">
<g>
	<path fill="#F04B36" d="M28.3,15.2c-4.3,0-7.8,3.5-7.8,7.8c0,4.3,3.5,7.8,7.8,7.8c4.3,0,7.8-3.5,7.8-7.8
		C36.2,18.7,32.6,15.2,28.3,15.2z M28.7,27.1v1.4h-0.9v-1.4c-0.8,0-1.6-0.3-2.1-0.6l0.3-0.9c0.5,0.3,1.2,0.6,1.9,0.6
		c1,0,1.6-0.6,1.6-1.3c0-0.7-0.5-1.2-1.5-1.6c-1.4-0.5-2.2-1.2-2.2-2.3c0-1.1,0.8-2,2-2.2v-1.4h0.8v1.3c0.8,0,1.4,0.2,1.8,0.5
		l-0.3,0.9c-0.3-0.2-0.8-0.5-1.7-0.5c-1,0-1.4,0.6-1.4,1.2c0,0.7,0.5,1.1,1.7,1.5c1.4,0.6,2.1,1.3,2.1,2.5
		C30.8,25.9,30.1,26.9,28.7,27.1z"/>
	<path fill="#F7A93B" d="M47.3,19.2h-1.9c-0.2-1.8-1.8-8.2-12.2-10c-3-0.5-5.3-0.8-7.2-0.8c-1.4,0-2.4,0.1-3.5,0.3
		c-1,0.1-2,0.3-3.4,0.3l-0.1,0c-2.5,0-7.2-1.9-7.4-5.5c0-0.1-0.1-0.2-0.2-0.2c-0.1,0-0.2,0.1-0.3,0.2l-0.4,3.8
		c0,0.1-1.6,10.8-10,13.3c-0.1,0-0.2,0.1-0.2,0.2v5.3c0,0.1,0.1,0.2,0.2,0.2h3.1c0.4,1.4,3,9.6,11.6,12v6c0,0.1,0.1,0.2,0.2,0.2H21
		c0.1,0,0.2-0.1,0.2-0.2v-5.4h8.3v5.4c0,0.1,0.1,0.2,0.2,0.2h5.2c0.1,0,0.2-0.1,0.2-0.2v-6.6c3.9-1.6,10.2-5.4,10.2-13.4l0-0.2h1.8
		c0.1,0,0.2-0.1,0.2-0.2v-4.6C47.5,19.3,47.4,19.2,47.3,19.2z M13.5,19.9c-1.2,0-2.2-1-2.2-2.2c0-1.2,1-2.2,2.2-2.2
		c1.2,0,2.2,1,2.2,2.2C15.8,18.9,14.8,19.9,13.5,19.9z M28.3,32.8c-5.4,0-9.8-4.4-9.8-9.8c0-5.4,4.4-9.8,9.8-9.8
		c5.4,0,9.8,4.4,9.8,9.8C38.1,28.4,33.7,32.8,28.3,32.8z"/>
</g>
</svg>
