<?xml version="1.0" encoding="utf-8"?>
<!-- Generator: Adobe Illustrator 18.0.0, SVG Export Plug-In . SVG Version: 6.00 Build 0)  -->
<!DOCTYPE svg PUBLIC "-//W3C//DTD SVG 1.1//EN" "http://www.w3.org/Graphics/SVG/1.1/DTD/svg11.dtd">
<svg version="1.1" id="Layer_1" xmlns="http://www.w3.org/2000/svg" xmlns:xlink="http://www.w3.org/1999/xlink" x="0px" y="0px"
	 viewBox="0 0 48 48" enable-background="new 0 0 48 48" xml:space="preserve">
<g>
	<path fill="#4DA0D8" d="M40.3,0.5H7.7c-0.1,0-0.2,0.1-0.2,0.2v46.5c0,0.1,0.1,0.2,0.2,0.2h32.6c0.1,0,0.2-0.1,0.2-0.2V0.7
		C40.6,0.6,40.4,0.5,40.3,0.5z M19.2,40.3h-6.6v-6.6h6.6V40.3z M19.2,27.6h-6.6V21h6.6V27.6z M35,40.3H22.5v-6.6H35V40.3z M35,27.6
		H22.5V21H35V27.6z M35.4,15.4H12.6V5.5h22.8V15.4z"/>
</g>
</svg>
