<?xml version="1.0" encoding="utf-8"?>
<!-- Generator: Adobe Illustrator 18.0.0, SVG Export Plug-In . SVG Version: 6.00 Build 0)  -->
<!DOCTYPE svg PUBLIC "-//W3C//DTD SVG 1.1//EN" "http://www.w3.org/Graphics/SVG/1.1/DTD/svg11.dtd">
<svg version="1.1" id="Layer_1" xmlns="http://www.w3.org/2000/svg" xmlns:xlink="http://www.w3.org/1999/xlink" x="0px" y="0px"
	 viewBox="0 0 48 48" enable-background="new 0 0 48 48" xml:space="preserve">
<g>
	<path fill="#CFD0D1" d="M2.3,7.1h38.5c0.5,0,1-0.4,1-1c0-0.5-0.4-1-1-1H2.3c-0.5,0-1,0.4-1,1C1.3,6.7,1.7,7.1,2.3,7.1z"/>
	<path fill="#CFD0D1" d="M5.7,2.8h31.7c0.5,0,1-0.4,1-1c0-0.5-0.4-1-1-1H5.7c-0.5,0-1,0.4-1,1C4.7,2.4,5.1,2.8,5.7,2.8z"/>
	<path fill="#F04B36" d="M22.2,14.6c-4.7,0-8.5,4.6-8.5,10.2c0,5.7,3.8,10.2,8.5,10.2c4.7,0,8.5-4.6,8.5-10.2
		C30.7,19.2,26.9,14.6,22.2,14.6z M22.7,30.6v2h-1.2v-1.9c-1.1,0-2.3-0.4-3-0.8l0.5-1.3c0.7,0.4,1.7,0.8,2.8,0.8
		c1.4,0,2.3-0.8,2.3-1.8c0-1-0.8-1.7-2.2-2.2c-2-0.8-3.2-1.6-3.2-3.2c0-1.6,1.2-2.7,2.9-3v-1.9h1.2V19c1.2,0,2,0.3,2.5,0.7l-0.5,1.2
		c-0.4-0.2-1.2-0.6-2.5-0.6c-1.5,0-2.1,0.9-2.1,1.6c0,1,0.7,1.5,2.4,2.1c2,0.8,3,1.8,3,3.4C25.8,28.9,24.8,30.3,22.7,30.6z"/>
	<path fill="#0DB89A" d="M46.5,36.7h-2.7l0-2.3h2.7c0.5,0,1-0.4,1-1c0-0.5-0.4-1-1-1h-2.7l0-22.5H0.5v29.6h43.3l0-1h2.7
		c0.5,0,1-0.4,1-1C47.5,37.2,47.1,36.7,46.5,36.7z M37.8,22.9c1.1,0,1.9,0.9,1.9,1.9c0,1.1-0.9,1.9-1.9,1.9c-1.1,0-1.9-0.9-1.9-1.9
		C35.9,23.8,36.7,22.9,37.8,22.9z M33.7,32.5h10.1v1.9H33.7c-0.5,0-1-0.4-1-1C32.7,32.9,33.2,32.5,33.7,32.5z M6.6,26.7
		c-1.1,0-1.9-0.9-1.9-1.9c0-1.1,0.9-1.9,1.9-1.9c1.1,0,1.9,0.9,1.9,1.9C8.5,25.9,7.6,26.7,6.6,26.7z M22.2,37
		c-5.8,0-10.5-5.5-10.5-12.2c0-6.7,4.7-12.2,10.5-12.2c5.8,0,10.5,5.5,10.5,12.2C32.7,31.6,28,37,22.2,37z M33.7,38.7
		c-0.5,0-1-0.4-1-1c0-0.5,0.4-1,1-1h10.1v1.9H33.7z"/>
	<path fill="#FFD69A" d="M46.5,40.9H33.7c-0.5,0-1,0.4-1,1c0,0.5,0.4,1,1,1h12.8c0.5,0,1-0.4,1-1C47.5,41.4,47.1,40.9,46.5,40.9z"/>
	<path fill="#FFD69A" d="M46.5,45.2H33.7c-0.5,0-1,0.4-1,1c0,0.5,0.4,1,1,1h12.8c0.5,0,1-0.4,1-1C47.5,45.6,47.1,45.2,46.5,45.2z"/>
</g>
</svg>
