<?xml version="1.0" encoding="utf-8"?>
<!-- Generator: Adobe Illustrator 18.0.0, SVG Export Plug-In . SVG Version: 6.00 Build 0)  -->
<!DOCTYPE svg PUBLIC "-//W3C//DTD SVG 1.1//EN" "http://www.w3.org/Graphics/SVG/1.1/DTD/svg11.dtd">
<svg version="1.1" id="Layer_1" xmlns="http://www.w3.org/2000/svg" xmlns:xlink="http://www.w3.org/1999/xlink" x="0px" y="0px"
	 viewBox="0 0 48 48" enable-background="new 0 0 48 48" xml:space="preserve">
<g>
	<path fill="#F04B36" d="M28.8,10.1C28,9.8,27.1,9.8,25.8,10c-1.1,0.2-1.7,0.2-2.1,0c-0.4-0.2-0.5-0.5,0.2-0.8
		C24.4,9,24.9,9,25.2,8.9l-0.4-0.4c-0.4,0-0.9,0.1-1.5,0.4l-0.9-0.4L22,8.8l0.9,0.4c-0.7,0.4-0.7,0.9,0.1,1.3c0.8,0.4,1.8,0.3,3.1,0
		c0.9-0.2,1.6-0.2,2.1,0c0.5,0.2,0.4,0.6-0.2,0.9c-0.5,0.2-1.1,0.4-1.7,0.4l0.4,0.4c0.5,0,1.2-0.2,1.8-0.4l0.9,0.4l0.6-0.3l-0.9-0.4
		C29.7,11,29.5,10.5,28.8,10.1z"/>
	<path fill="#0DB89A" d="M47.5,4.5l-19.9-4L0.5,15.3l22.7,8.5L47.5,4.5z M38,5.1c0.9,0,1.7,0.4,1.7,1c0,0.5-0.8,1-1.7,1
		c-0.9,0-1.7-0.4-1.7-1C36.3,5.6,37.1,5.1,38,5.1z M28.6,3c0.9,0,1.7,0.4,1.7,1c0,0.5-0.8,1-1.7,1c-0.9,0-1.7-0.4-1.7-1
		C26.9,3.4,27.7,3,28.6,3z M25.9,6.5c4,0,7.2,1.7,7.2,3.8c0,2.1-3.2,3.8-7.2,3.8c-4,0-7.2-1.7-7.2-3.8C18.6,8.2,21.9,6.5,25.9,6.5z
		 M11.2,15.7c-1.5,0-2.7-0.7-2.7-1.5c0-0.9,1.2-1.6,2.7-1.6c1.5,0,2.7,0.7,2.7,1.6C14,15,12.7,15.7,11.2,15.7z M18.6,18.3
		c0-0.9,1.2-1.5,2.7-1.5c1.5,0,2.7,0.7,2.7,1.5c0,0.9-1.2,1.5-2.7,1.5C19.8,19.8,18.6,19.1,18.6,18.3z"/>
	<path fill="#F04B36" d="M23.4,26.7c0.1,0.2-16.8-6.5-16.8-6.5l-6.1,3.3L23.2,32l24.3-19.4l-5.6-1.1L23.4,26.7z"/>
	<path fill="#0DB89A" d="M23.4,34.4c0.1,0.2-16.8-6.5-16.8-6.5l-6.1,3.3l22.7,8.5l24.3-19.4l-5.6-1.1L23.4,34.4z"/>
	<path fill="#06728D" d="M23.4,42.1c0.1,0.2-16.8-6.5-16.8-6.5L0.5,39l22.7,8.5l24.3-19.4L41.9,27L23.4,42.1z"/>
</g>
</svg>
