<?xml version="1.0" encoding="utf-8"?>
<!-- Generator: Adobe Illustrator 18.0.0, SVG Export Plug-In . SVG Version: 6.00 Build 0)  -->
<!DOCTYPE svg PUBLIC "-//W3C//DTD SVG 1.1//EN" "http://www.w3.org/Graphics/SVG/1.1/DTD/svg11.dtd">
<svg version="1.1" id="Layer_1" xmlns="http://www.w3.org/2000/svg" xmlns:xlink="http://www.w3.org/1999/xlink" x="0px" y="0px"
	 viewBox="0 0 48 48" enable-background="new 0 0 48 48" xml:space="preserve">
<g>
	<path fill="#CFD0D1" d="M46.1,44.7H3.3V1.9c0-0.8-0.6-1.4-1.4-1.4c-0.8,0-1.4,0.6-1.4,1.4v44.2c0,0.8,0.6,1.4,1.4,1.4h44.2
		c0.8,0,1.4-0.6,1.4-1.4C47.5,45.3,46.9,44.7,46.1,44.7z"/>
	<path fill="#566C7A" d="M8.9,20.4c2.3,0,4.1-1.8,4.1-4.1c0-0.2,0-0.4-0.1-0.6l4.3-1.8c0.8,1,1.9,1.6,3.2,1.6c1.7,0,3.1-1,3.7-2.4
		l3.1,2.5c-0.2,0.5-0.4,1.1-0.4,1.7c0,2.3,1.8,4.1,4.1,4.1c2.3,0,4.1-1.8,4.1-4.1c0-0.5-0.1-1-0.3-1.4l4.9-4.2
		c0.6,0.4,1.4,0.6,2.2,0.6c2.3,0,4.1-1.8,4.1-4.1C46,5.9,44.2,4,41.9,4c-2.3,0-4.1,1.8-4.1,4.1c0,0.8,0.2,1.5,0.6,2.1l-4.6,4
		c-0.7-0.7-1.7-1.1-2.8-1.1c-1,0-1.8,0.4-2.6,0.9l-3.9-3.2c-0.2-2-2-3.6-4.1-3.6c-2.3,0-4.1,1.8-4.1,4.1c0,0.3,0,0.6,0.1,0.8
		l-4.2,1.8c-0.7-1.1-2-1.8-3.4-1.8c-2.3,0-4.1,1.8-4.1,4.1C4.8,18.5,6.7,20.4,8.9,20.4z"/>
	<path fill="#566C7A" d="M8.9,40c2.3,0,4.1-1.8,4.1-4.1c0-0.2,0-0.3-0.1-0.5l4.5-1.6c0.8,0.9,1.9,1.4,3.1,1.4c1.8,0,3.2-1.1,3.8-2.7
		l5.9,3.3c-0.3,0.6-0.5,1.2-0.5,1.9c0,2.3,1.8,4.1,4.1,4.1c2.3,0,4.1-1.8,4.1-4.1c0-1-0.4-2-1-2.7l3.5-5.1c0.2,0,0.3,0.1,0.5,0.1
		c2.3,0,4.1-1.8,4.1-4.1c0-2.3-1.8-4.1-4.1-4.1c-2.3,0-4.1,1.8-4.1,4.1c0,1.4,0.7,2.7,1.8,3.4L35.5,34c-0.5-0.2-1-0.3-1.6-0.3
		c-0.9,0-1.7,0.3-2.3,0.7l-7-3.9c-0.3-2-2-3.5-4-3.5c-2.3,0-4.1,1.8-4.1,4.1c0,0.3,0.1,0.7,0.1,1l-4.2,1.5c-0.7-1.1-2-1.8-3.4-1.8
		c-2.3,0-4.1,1.8-4.1,4.1C4.8,38.2,6.7,40,8.9,40z"/>
	<circle fill="#E77528" cx="41.9" cy="8.1" r="4.6"/>
	<circle fill="#F04B36" cx="31.1" cy="17.3" r="4.6"/>
	<circle fill="#F7A93B" cx="41" cy="25.9" r="4.6"/>
	<circle fill="#4DA0D8" cx="34" cy="37.7" r="4.6"/>
	<circle fill="#294E58" cx="20.4" cy="31.2" r="4.6"/>
	<circle fill="#F04B36" cx="8.9" cy="35.8" r="4.6"/>
	<circle fill="#4DA0D8" cx="20.4" cy="11.5" r="4.6"/>
	<circle fill="#0DB89A" cx="8.9" cy="16.1" r="4.6"/>
</g>
</svg>
