<?xml version="1.0" encoding="utf-8"?>
<!-- Generator: Adobe Illustrator 18.0.0, SVG Export Plug-In . SVG Version: 6.00 Build 0)  -->
<!DOCTYPE svg PUBLIC "-//W3C//DTD SVG 1.1//EN" "http://www.w3.org/Graphics/SVG/1.1/DTD/svg11.dtd">
<svg version="1.1" id="Layer_1" xmlns="http://www.w3.org/2000/svg" xmlns:xlink="http://www.w3.org/1999/xlink" x="0px" y="0px"
	 viewBox="0 0 48 48" enable-background="new 0 0 48 48" xml:space="preserve">
<g>
	<path fill="#0DB89A" d="M22.3,47.5v-2.6l-0.5,0c-8.3-0.8-14.4-5.9-14.5-12.3H16c0.3,1.2,2.3,2.9,5.7,3.5l0.6,0.1v-7.9l-0.5,0
		c-8.4-0.8-14.5-6.1-14.5-12.5C7.3,9.2,13.4,4,21.8,3.2l0.5,0V0.5h3.4v2.6l0.5,0c8.3,0.8,14.4,5.9,14.5,12.3l-8.7,0
		c-0.3-1.2-2.3-2.9-5.7-3.5l-0.6-0.1v7.9l0.5,0c8.4,0.8,14.5,6.1,14.5,12.5c0,6.5-6.1,11.8-14.5,12.5l-0.5,0v2.6H22.3z M25.7,36.1
		l0.6-0.1c3.7-0.6,5.7-2.6,5.7-3.7c0-1.1-2-3.1-5.7-3.7l-0.6-0.1V36.1z M21.7,12C18,12.6,16,14.6,16,15.7c0,1.1,2,3.1,5.7,3.7
		l0.6,0.1v-7.7L21.7,12z"/>
</g>
</svg>
