<?xml version="1.0" encoding="utf-8"?>
<!-- Generator: Adobe Illustrator 18.0.0, SVG Export Plug-In . SVG Version: 6.00 Build 0)  -->
<!DOCTYPE svg PUBLIC "-//W3C//DTD SVG 1.1//EN" "http://www.w3.org/Graphics/SVG/1.1/DTD/svg11.dtd">
<svg version="1.1" id="Layer_1" xmlns="http://www.w3.org/2000/svg" xmlns:xlink="http://www.w3.org/1999/xlink" x="0px" y="0px"
	 viewBox="0 0 48 48" enable-background="new 0 0 48 48" xml:space="preserve">
<g>
	<path fill="#F04B36" d="M36.3,24.8c-6.2,0-11.2,5.1-11.2,11.3c0,6.3,5,11.3,11.2,11.3c6.2,0,11.2-5.1,11.2-11.3
		C47.5,29.9,42.5,24.8,36.3,24.8z M36.3,44.7c-4.6,0-8.4-3.8-8.4-8.5s3.8-8.5,8.4-8.5c4.6,0,8.4,3.8,8.4,8.5S40.9,44.7,36.3,44.7z"
		/>
	<path fill="#F04B36" d="M11.7,23.2c6.2,0,11.2-5.1,11.2-11.3c0-6.3-5-11.3-11.2-11.3C5.5,0.5,0.5,5.6,0.5,11.8
		C0.5,18.1,5.5,23.2,11.7,23.2z M11.7,3.3c4.6,0,8.4,3.8,8.4,8.5s-3.8,8.5-8.4,8.5s-8.4-3.8-8.4-8.5S7.1,3.3,11.7,3.3z"/>
	<path fill="#E77528" d="M46.1,1.6c-0.6-0.5-1.4-0.5-2,0L1.9,44.4c-0.5,0.6-0.5,1.5,0,2c0.3,0.3,0.6,0.4,1,0.4c0.4,0,0.7-0.1,1-0.4
		L46.1,3.6C46.6,3,46.6,2.1,46.1,1.6z"/>
</g>
</svg>
