<?xml version="1.0" encoding="utf-8"?>
<!-- Generator: Adobe Illustrator 18.0.0, SVG Export Plug-In . SVG Version: 6.00 Build 0)  -->
<!DOCTYPE svg PUBLIC "-//W3C//DTD SVG 1.1//EN" "http://www.w3.org/Graphics/SVG/1.1/DTD/svg11.dtd">
<svg version="1.1" id="Layer_1" xmlns="http://www.w3.org/2000/svg" xmlns:xlink="http://www.w3.org/1999/xlink" x="0px" y="0px"
	 viewBox="0 0 48 48" enable-background="new 0 0 48 48" xml:space="preserve">
<g>
	<path fill="#E77528" d="M46.6,26.6c-0.5-0.1-1,0.3-1.1,0.8C43.9,37.9,34.8,45.6,24,45.6c-10.9,0-20.2-8.1-21.6-18.8
		c-0.1-0.5-0.6-0.9-1.1-0.8C0.8,26,0.4,26.5,0.5,27C2,38.7,12.1,47.5,24,47.5c11.8,0,21.6-8.3,23.4-19.8
		C47.5,27.1,47.2,26.7,46.6,26.6z"/>
	<path fill="#E77528" d="M1.3,22c0,0,0.1,0,0.1,0c0.5,0,0.9-0.4,1-0.8C3.8,10.5,13.1,2.4,24,2.4c10.8,0,20,8,21.6,18.5
		c0.1,0.5,0.6,0.9,1.1,0.8c0.5-0.1,0.9-0.6,0.8-1.1C45.8,9.2,35.8,0.5,24,0.5C12.1,0.5,2,9.3,0.5,21C0.4,21.5,0.8,22,1.3,22z"/>
	<path fill="#4DA0D8" d="M24,14.4c-5.3,0-9.7,4.3-9.7,9.6s4.3,9.6,9.7,9.6c5.3,0,9.7-4.3,9.7-9.6S29.3,14.4,24,14.4z M24.5,29.1v1.7
		h-1.1v-1.7c-1,0-2-0.3-2.6-0.7l0.4-1.1c0.6,0.4,1.5,0.7,2.4,0.7c1.2,0,2-0.7,2-1.6c0-0.9-0.7-1.5-1.9-2C22.1,23.7,21,23,21,21.5
		c0-1.4,1-2.4,2.5-2.7v-1.7h1v1.6c1,0,1.7,0.3,2.2,0.6l-0.4,1.1c-0.4-0.2-1-0.6-2.1-0.6c-1.3,0-1.8,0.8-1.8,1.4
		c0,0.9,0.6,1.3,2.1,1.9c1.7,0.7,2.6,1.6,2.6,3.1C27.2,27.6,26.2,28.8,24.5,29.1z"/>
	<path fill="#F7A93B" d="M24,7.8C15,7.8,7.7,15.1,7.7,24S15,40.2,24,40.2c9,0,16.4-7.3,16.4-16.2S33,7.8,24,7.8z M24,35.5
		c-6.4,0-11.6-5.2-11.6-11.5S17.6,12.5,24,12.5c6.4,0,11.6,5.2,11.6,11.5S30.4,35.5,24,35.5z"/>
</g>
</svg>
