<?xml version="1.0" encoding="utf-8"?>
<!-- Generator: Adobe Illustrator 18.0.0, SVG Export Plug-In . SVG Version: 6.00 Build 0)  -->
<!DOCTYPE svg PUBLIC "-//W3C//DTD SVG 1.1//EN" "http://www.w3.org/Graphics/SVG/1.1/DTD/svg11.dtd">
<svg version="1.1" id="Layer_1" xmlns="http://www.w3.org/2000/svg" xmlns:xlink="http://www.w3.org/1999/xlink" x="0px" y="0px"
	 viewBox="0 0 48 48" enable-background="new 0 0 48 48" xml:space="preserve">
<g>
	<path fill="#F04B36" d="M36.2,8.6H11.8c-1.3,0-2.3,0.9-2.3,1.9v21.5c0,1.1,1.1,1.9,2.3,1.9h24.3c1.3,0,2.3-0.9,2.3-1.9V10.6
		C38.5,9.5,37.4,8.6,36.2,8.6z M29.1,19.8c0,0.5-0.4,1-1,1h-4.5c-0.4,1.2-1.2,2.2-2.1,3c0.2,0.7,0.2,1.4,0.2,2.1
		c0,3.5-1.9,6.2-4.3,6.2c-2.4,0-4.3-2.7-4.3-6.2c0-0.7,0.1-1.4,0.2-2.1c-1.7-1.3-2.6-3.4-2.6-5.6c0-3.9,3-7.1,6.7-7.1
		c2.7,0,5.2,1.8,6.2,4.4h4.5c0.5,0,1,0.4,1,1V19.8z"/>
	<path fill="#06728D" d="M17.1,19.8v-3.2c0-0.5,0.4-1,1-1h3.3c-0.8-1.5-2.4-2.5-4-2.5c-2.6,0-4.7,2.3-4.7,5.1c0,1.8,0.9,3.5,2.3,4.4
		l0.7,0.4l-0.3,0.7c-0.2,0.7-0.3,1.4-0.3,2.1c0,2.5,1.2,4.2,2.4,4.2c1.1,0,2.3-1.7,2.3-4.2c0-0.8-0.1-1.5-0.3-2.1L19.2,23l0.7-0.4
		c0.7-0.4,1.2-1,1.6-1.8h-3.3C17.6,20.8,17.1,20.4,17.1,19.8z"/>
	<path fill="#CFD0D1" d="M42.3,0.5H5.7c-2.9,0-5.2,2.1-5.2,4.7v32.3c0,2.6,2.3,4.7,5.2,4.7h36.5c2.9,0,5.2-2.1,5.2-4.7V5.2
		C47.5,2.6,45.2,0.5,42.3,0.5z M43.4,17.4c0,0.5-0.4,1-1,1h-2v5.2h2c0.5,0,1,0.4,1,1v4.7c0,0.5-0.4,1-1,1h-2v1.8
		c0,2.2-1.9,3.9-4.3,3.9H11.8c-2.4,0-4.3-1.8-4.3-3.9V10.6c0-2.2,1.9-3.9,4.3-3.9h24.3c2.4,0,4.3,1.8,4.3,3.9v1.1h2c0.5,0,1,0.4,1,1
		V17.4z"/>
	<rect x="40.5" y="25.6" fill="#EDB04B" width="1" height="2.7"/>
	<rect x="19.1" y="17.6" fill="#294E58" width="8" height="1.3"/>
	<rect x="40.5" y="13.7" fill="#EDB04B" width="1" height="2.7"/>
	<path fill="#E77528" d="M14.9,44.1H7.4c-0.1,0-0.2,0.1-0.2,0.2v2.9c0,0.1,0.1,0.2,0.2,0.2h7.4c0.1,0,0.2-0.1,0.2-0.2v-2.9
		C15.1,44.2,15,44.1,14.9,44.1z"/>
	<path fill="#E77528" d="M40.6,44.1h-7.4c-0.1,0-0.2,0.1-0.2,0.2v2.9c0,0.1,0.1,0.2,0.2,0.2h7.4c0.1,0,0.2-0.1,0.2-0.2v-2.9
		C40.8,44.2,40.7,44.1,40.6,44.1z"/>
</g>
</svg>
