<?xml version="1.0" encoding="utf-8"?>
<!-- Generator: Adobe Illustrator 18.0.0, SVG Export Plug-In . SVG Version: 6.00 Build 0)  -->
<!DOCTYPE svg PUBLIC "-//W3C//DTD SVG 1.1//EN" "http://www.w3.org/Graphics/SVG/1.1/DTD/svg11.dtd">
<svg version="1.1" id="Layer_1" xmlns="http://www.w3.org/2000/svg" xmlns:xlink="http://www.w3.org/1999/xlink" x="0px" y="0px"
	 viewBox="0 0 48 48" enable-background="new 0 0 48 48" xml:space="preserve">
<g>
	<path fill="#4DA0D8" d="M8.3,38.4h31.4V18.9H8.3V38.4z M24.8,33.8l1.6-1.4c2.7-2.3,4.1-3.6,4.1-5c0-1-0.6-1.7-2.1-1.7
		c-1.1,0-2,0.5-2.7,1l-0.8-2c0.9-0.7,2.4-1.2,4.1-1.2c2.8,0,4.4,1.5,4.4,3.7c0,2-1.5,3.5-3.3,5L29,33.2v0h4.7v2.3h-8.9V33.8z
		 M18.2,23.7h2.4v11.7h-2.8v-9.3h0l-2.4,1.1l-0.5-2.1L18.2,23.7z"/>
	<path fill="#EDB04B" d="M35.1,11c1,0,1.8-0.8,1.8-1.9V7.1h-3.5v2.1C33.3,10.2,34.1,11,35.1,11z"/>
	<path fill="#EDB04B" d="M12.9,11c1,0,1.8-0.8,1.8-1.9V7.1h-3.5v2.1C11.2,10.2,12,11,12.9,11z"/>
	<path fill="#D14D37" d="M41.6,6.8h-2.8V4.3c0-2.1-1.7-3.8-3.7-3.8c-2.1,0-3.7,1.7-3.7,3.8v2.5H16.7V4.3c0-2.1-1.7-3.8-3.7-3.8
		c-2.1,0-3.7,1.7-3.7,3.8v2.5H6.4c-3.2,0-5.9,2.5-5.9,5.5V42c0,3,2.6,5.5,5.9,5.5h35.3c3.2,0,5.9-2.5,5.9-5.5V12.3
		C47.5,9.3,44.9,6.8,41.6,6.8z M31.3,7.1h2V4.3c0-1,0.8-1.9,1.8-1.9c1,0,1.8,0.8,1.8,1.9v2.7h2v2.1c0,2.1-1.7,3.8-3.7,3.8
		c-2.1,0-3.7-1.7-3.7-3.8V7.1z M9.2,7.1h2V4.3c0-1,0.8-1.9,1.8-1.9c1,0,1.8,0.8,1.8,1.9v2.7h2v2.1c0,2.1-1.7,3.8-3.7,3.8
		c-2.1,0-3.7-1.7-3.7-3.8V7.1z M41.7,39.4c0,0.5-0.4,1-1,1H7.3c-0.5,0-1-0.4-1-1V17.9c0-0.5,0.4-1,1-1h33.4c0.5,0,1,0.4,1,1V39.4z"
		/>
	<path fill="#C4B98C" d="M41.6,6.8h-2.2v0h-2.7v0.2h2v2.1c0,2.1-1.7,3.8-3.7,3.8c-2.1,0-3.7-1.7-3.7-3.8V7.1h2V6.9H14.7v0.2h2v2.1
		c0,2.1-1.7,3.8-3.7,3.8c-2.1,0-3.7-1.7-3.7-3.8V7.1h2V6.9H6.9v0H6.4c-3.2,0-5.9,2.5-5.9,5.5V42c0,3,2.6,5.5,5.9,5.5h35.3
		c3.2,0,5.9-2.5,5.9-5.5V12.3C47.5,9.3,44.9,6.8,41.6,6.8z M41.7,39.4c0,0.5-0.4,1-1,1H7.3c-0.5,0-1-0.4-1-1V17.9c0-0.5,0.4-1,1-1
		h33.4c0.5,0,1,0.4,1,1V39.4z"/>
</g>
</svg>
