<?xml version="1.0" encoding="utf-8"?>
<!-- Generator: Adobe Illustrator 18.0.0, SVG Export Plug-In . SVG Version: 6.00 Build 0)  -->
<!DOCTYPE svg PUBLIC "-//W3C//DTD SVG 1.1//EN" "http://www.w3.org/Graphics/SVG/1.1/DTD/svg11.dtd">
<svg version="1.1" id="Layer_1" xmlns="http://www.w3.org/2000/svg" xmlns:xlink="http://www.w3.org/1999/xlink" x="0px" y="0px"
	 viewBox="0 0 48 48" enable-background="new 0 0 48 48" xml:space="preserve">
<g>
	<path fill="#0DB89A" d="M46.8,5.9l-3.2-1l0,0V3c0-0.1-0.1-0.2-0.2-0.3c-10.6-2.9-21.9-3-32.6-0.4l0.7,3.8l-0.4,0.1l0,3l1,1.1
		l-1.4,1.5c-0.8,0.9-1.4,1.6-1.8,2.1v3.2c0.3,1,0.7,2,1.2,2.9c0.4-0.1,0.7-0.2,1.1-0.3c0.5-1.6,1.3-4.6,1.8-7.8
		c-0.5-0.1-0.8-0.5-0.8-1c0-0.7,0.5-1.4,1.1-1.4c0.2,0,0.3,0.1,0.5,0.1c0.3-0.5,0.6-0.9,1.1-1.2c0.7-0.6,1.6-0.9,2.4-0.9
		c0.3,0,0.5,0,0.7,0.1c1.1,0.2,2.1,0.9,2.8,2c0.7,1,0.9,2.3,0.7,3.6c0,0.2-0.1,0.7-1,5.1c7.7-0.7,15.4,0,22.9,2c0.1,0,0.1,0,0.2-0.1
		c0.1-0.1,0.1-0.1,0.1-0.2V7.2l2,0.6v18.3c-3.3-2-12-5.9-27.6-5.4l0.1,2.2c19.5-0.6,27.9,6,27.9,6c0.2,0.1,0.4,0.2,0.6,0.2
		c0.2,0,0.3,0,0.4-0.1c0.3-0.2,0.5-0.6,0.5-1V6.9C47.5,6.4,47.2,6,46.8,5.9z M26.2,13.1c-2.4,0-4.4-1.3-4.4-3.6
		c0-2.3,1.9-4.6,4.4-4.6c2.4,0,4.4,2.3,4.4,4.6C30.6,11.7,28.6,13,26.2,13.1z M38.2,11.1c-0.6,0-1.1-0.4-1.1-1.1
		c0-0.7,0.5-1.4,1.1-1.4c0.6,0,1.1,0.7,1.1,1.4C39.3,10.7,38.8,11.1,38.2,11.1z"/>
	<path fill="#F7A93B" d="M5.7,34H15l0-0.2c0,0,2-9.3,3.3-15.5c0.7-3.3,1.1-5.1,1.1-5.5c0.1-0.7,0-1.4-0.4-2
		c-0.4-0.6-0.9-0.9-1.5-1.1c-0.6-0.1-1.2,0-1.7,0.4c-0.5,0.4-0.8,1-1,1.7c-0.6,4.1-1.9,9.3-2.8,10.4c-0.6,0.7-1.6,1.2-2,1.3
		c-1.6-1.1-4-7.2-3.7-9.4c0.1-0.6,1.3-2.2,2.9-3.9l-0.2-0.2l0.1-5.7c0,0,0,0,0.1,0L9.1,3.9c-0.4,0.1-0.7,0.3-1,0.6
		c-1.4,1.4-4.1,4-5.4,6.5c-0.6,0.8-1.9,2.8-2.1,4.2c-0.7,4.8,4.8,18.2,5.1,18.8L5.7,34z"/>
	<path fill="#F04B36" d="M20,36.8H4c-0.1,0-0.2,0.1-0.2,0.3v10.2c0,0.1,0.1,0.3,0.2,0.3h16c0.1,0,0.2-0.1,0.2-0.3V37.1
		C20.2,36.9,20.1,36.8,20,36.8z M14.9,44.1c-1,0-1.8-0.9-1.8-2c0-1.1,0.8-2,1.8-2c1,0,1.8,0.9,1.8,2C16.7,43.2,15.9,44.1,14.9,44.1z
		"/>
	<path fill="#4DA0D8" d="M26.5,8.9c-0.7-0.3-1-0.4-1-0.8c0-0.3,0.2-0.7,0.8-0.7c0.5,0,0.8,0.2,1,0.3c0.1-0.2,0.1-0.3,0.2-0.5
		c-0.2-0.2-0.6-0.3-1-0.4c0-0.2,0-0.5,0-0.7c-0.2,0-0.3,0-0.5,0c0,0.3,0,0.5,0,0.8c-0.7,0.1-1.2,0.7-1.2,1.4c0,0.7,0.5,0.9,1.3,1.2
		C26.7,9.7,27,10,27,10.4c0,0.4-0.4,0.7-1,0.7c-0.4,0-0.9-0.1-1.1-0.2c-0.1,0.2-0.1,0.4-0.2,0.5c0.3,0.1,0.8,0.2,1.2,0.2
		c0,0.3,0,0.5,0,0.8c0.2,0,0.3,0,0.5,0c0-0.3,0-0.5,0-0.8c0.8-0.1,1.3-0.5,1.3-1.1C27.7,9.8,27.3,9.3,26.5,8.9z"/>
</g>
</svg>
