<?xml version="1.0" encoding="utf-8"?>
<!-- Generator: Adobe Illustrator 18.0.0, SVG Export Plug-In . SVG Version: 6.00 Build 0)  -->
<!DOCTYPE svg PUBLIC "-//W3C//DTD SVG 1.1//EN" "http://www.w3.org/Graphics/SVG/1.1/DTD/svg11.dtd">
<svg version="1.1" id="Layer_1" xmlns="http://www.w3.org/2000/svg" xmlns:xlink="http://www.w3.org/1999/xlink" x="0px" y="0px"
	 viewBox="0 0 48 48" enable-background="new 0 0 48 48" xml:space="preserve">
<g>
	<path fill="#F7A93B" d="M17.8,14c0,0-0.1,0-0.1,0c0,0,0,0.1,0,0.1c0.9,4.8-1,10.4-2.3,13.4l7.8-9.7c0.2-0.2,0.6-0.3,0.8-0.1
		c0.2,0.2,0.3,0.6,0.1,0.8l-7.8,9.7c2.7-1.9,7.7-4.9,12.6-5c0,0,0.1,0,0.1-0.1c0,0,0-0.1,0-0.1c0,0-1.3-3.3,0.2-6.2c0,0,0,0,0,0
		l-5.4-4.3c-1.6,1.3-3.5,1.6-4.8,1.6C18.3,14.1,17.8,14,17.8,14z"/>
	<path fill="#4DA0D8" d="M14.3,27.4c-0.7,0-1.4,0.3-1.8,0.9c-0.8,1-0.7,2.5,0.3,3.3c0.4,0.3,0.9,0.5,1.5,0.5c0.7,0,1.4-0.3,1.8-0.9
		c0.7-0.8,0.7-2,0.1-2.9l0,0c0,0,0-0.1-0.1-0.1c0,0,0,0,0,0c0,0,0-0.1-0.1-0.1c-0.2-0.3-0.4-0.5-0.7-0.6l0,0
		C15,27.5,14.6,27.4,14.3,27.4z"/>
	<path fill="#06728D" d="M29.8,15.9c0.4-0.5,0.9-1,1.6-1.5l0.8,0.7c0,0,0.1,0,0.1,0c0,0,0,0,0,0c0,0,0.1,0,0.1-0.1l3.6-4.4
		c0,0,0-0.1,0-0.1c0,0,0-0.1-0.1-0.1l-7.4-6c0,0-0.1,0-0.1,0c0,0-0.1,0-0.1,0.1l-3.6,4.4c-0.1,0.1,0,0.2,0,0.2l0.8,0.7
		c-0.3,0.7-0.7,1.4-1.1,1.9L29.8,15.9z"/>
	<path fill="#0DB89A" d="M41.9,8.2h-2.6h-3l0.9,0.7c0.5,0.4,0.7,0.9,0.8,1.4c0.1,0.6-0.1,1.1-0.5,1.6L34,16.3
		c-0.4,0.4-0.8,0.7-1.3,0.8l-0.1,0l-0.2,0c-0.3,0-0.5-0.1-0.8-0.2c0,0.1-0.1,0.1-0.1,0.2l-0.3,0.3l-0.2,0.3
		c-1.1,2.1-0.2,4.5-0.1,4.6c0.3,0.6,0.2,1.4-0.2,2c-0.3,0.6-1,0.9-1.7,0.9c-3.7,0.1-7.7,2.1-10.3,3.8c0.2,1.2-0.1,2.4-0.9,3.3
		c-0.8,1-2.1,1.6-3.4,1.6c-1,0-2-0.3-2.7-1c-0.9-0.7-1.5-1.8-1.6-2.9c-0.1-1.2,0.2-2.3,0.9-3.2c0.8-0.9,1.9-1.5,3.1-1.6
		c1.1-2.9,2.3-7.2,1.6-10.8c-0.1-0.7,0.1-1.4,0.6-1.9c0.4-0.4,1-0.6,1.5-0.6h0.2l0.2,0c0,0,0.4,0.1,0.9,0.1c1,0,2.4-0.2,3.5-1.1
		l0.3-0.2l0.3-0.3c0-0.1,0.1-0.1,0.1-0.2c-0.4-0.6-0.5-1.4-0.2-2.1H22h-16c-3.1,0-5.6,2.6-5.6,5.7v24c0,3.1,2.5,5.7,5.6,5.7h35.9
		c3.1,0,5.6-2.6,5.6-5.7v-24C47.5,10.7,45,8.2,41.9,8.2z M37.3,37.2H18.6c-0.6,0-1-0.4-1-1c0-0.6,0.4-1,1-1h18.8c0.6,0,1,0.4,1,1
		C38.3,36.8,37.9,37.2,37.3,37.2z"/>
</g>
</svg>
