<?xml version="1.0" encoding="utf-8"?>
<!-- Generator: Adobe Illustrator 18.0.0, SVG Export Plug-In . SVG Version: 6.00 Build 0)  -->
<!DOCTYPE svg PUBLIC "-//W3C//DTD SVG 1.1//EN" "http://www.w3.org/Graphics/SVG/1.1/DTD/svg11.dtd">
<svg version="1.1" id="Layer_1" xmlns="http://www.w3.org/2000/svg" xmlns:xlink="http://www.w3.org/1999/xlink" x="0px" y="0px"
	 viewBox="0 0 48 48" enable-background="new 0 0 48 48" xml:space="preserve">
<g>
	<path fill="#F7A93B" d="M24.1,20.7c3.2,0,5.9-2.6,5.9-5.9s-2.6-5.9-5.9-5.9c-3.2,0-5.9,2.6-5.9,5.9S20.8,20.7,24.1,20.7z"/>
	<path fill="#F04B36" d="M8.9,26.4c-1.8,0-3.5-0.9-4.6-2.3c-0.1-0.1-0.2-0.1-0.3-0.1c-2.2,1.6-3.4,4.1-3.4,6.8c0,0,0,4.2,0,4.5
		c0,0.1,0.1,0.2,0.2,0.2h10.4c0-2.3,0-4.9,0-4.9c0-1.9,0.4-3.7,1.2-5.4C11.4,25.9,10.2,26.4,8.9,26.4z"/>
	<path fill="#F04B36" d="M44.1,24c-0.1-0.1-0.3-0.1-0.3,0.1c-1.1,1.5-2.7,2.3-4.6,2.3c-1.2,0-2.4-0.4-3.3-1.1
		c0.7,1.6,1.1,3.4,1.1,5.2c0,0,0,2.6,0,4.9h10.3c0.1,0,0.2-0.1,0.2-0.2c0-0.3,0-4.4,0-4.5C47.5,28.1,46.2,25.5,44.1,24z"/>
	<path fill="#06728D" d="M30.5,21.7c-0.1-0.1-0.3-0.1-0.3,0.1c-1.4,1.9-3.7,3.1-6.1,3.1s-4.6-1.2-6.1-3.1c-0.1-0.1-0.2-0.1-0.3-0.1
		c-2.8,2-4.5,5.3-4.5,8.8c0,0.1,0,8,0,8.4c0,0.1,0.1,0.2,0.2,0.2h21.2c0.1,0,0.2-0.1,0.2-0.2c0-0.4,0.1-8.3,0.1-8.4
		C35,27,33.3,23.7,30.5,21.7z"/>
	<path fill="#F7A93B" d="M8.9,22.4c2.5,0,4.5-2,4.5-4.5c0-2.5-2-4.5-4.5-4.5c-2.5,0-4.5,2-4.5,4.5C4.3,20.4,6.4,22.4,8.9,22.4z"/>
	<path fill="#F7A93B" d="M39.1,22.4c2.5,0,4.5-2,4.5-4.5c0-2.5-2-4.5-4.5-4.5c-2.5,0-4.5,2-4.5,4.5C34.6,20.4,36.7,22.4,39.1,22.4z"
		/>
</g>
</svg>
