<?xml version="1.0" encoding="utf-8"?>
<!-- Generator: Adobe Illustrator 18.0.0, SVG Export Plug-In . SVG Version: 6.00 Build 0)  -->
<!DOCTYPE svg PUBLIC "-//W3C//DTD SVG 1.1//EN" "http://www.w3.org/Graphics/SVG/1.1/DTD/svg11.dtd">
<svg version="1.1" id="Layer_1" xmlns="http://www.w3.org/2000/svg" xmlns:xlink="http://www.w3.org/1999/xlink" x="0px" y="0px"
	 viewBox="0 0 48 48" enable-background="new 0 0 48 48" xml:space="preserve">
<g>
	<path fill="#06728D" d="M25,2c-0.1,0-0.1,0.1-0.1,0.1v5.6c0,0.1,0.1,0.1,0.1,0.1c8.4,0,15.5,6.5,16.2,14.8c0,0.1,0.1,0.1,0.1,0.1
		h5.6c0,0,0.1,0,0.1,0c0,0,0-0.1,0-0.1C46.3,11,36.6,2,25,2z"/>
	<path fill="#0DB89A" d="M24.9,40.2c-8.4,0-15.5-6.6-16.1-15h3.3c0,0,0,0,0,0c0.1,0,0.1-0.1,0.1-0.1c0,0,0-0.1-0.1-0.1l-6-6
		c0,0-0.1,0-0.2,0l-6,6c0,0,0,0.1,0,0.1c0,0,0.1,0.1,0.1,0.1H3C3.6,36.9,13.2,46,24.9,46h0c0,0,0.1,0,0.1,0c0,0,0-0.1,0-0.1v-5.6
		C25.1,40.3,25,40.2,24.9,40.2z"/>
	<path fill="#4DA0D8" d="M47,25.3C46.9,25.3,46.9,25.3,47,25.3l-5.7,0c-0.1,0-0.1,0-0.1,0.1C40.5,32.8,35,38.8,27.7,40
		c-0.1,0-0.1,0.1-0.1,0.1v5.6c0,0,0,0.1,0,0.1c0,0,0.1,0,0.1,0c0,0,0,0,0,0C38.2,44.6,46.3,36,47,25.3C47,25.4,47,25.3,47,25.3z"/>
</g>
</svg>
