<?xml version="1.0" encoding="utf-8"?>
<!-- Generator: Adobe Illustrator 18.0.0, SVG Export Plug-In . SVG Version: 6.00 Build 0)  -->
<!DOCTYPE svg PUBLIC "-//W3C//DTD SVG 1.1//EN" "http://www.w3.org/Graphics/SVG/1.1/DTD/svg11.dtd">
<svg version="1.1" id="Layer_1" xmlns="http://www.w3.org/2000/svg" xmlns:xlink="http://www.w3.org/1999/xlink" x="0px" y="0px"
	 viewBox="0 0 48 48" enable-background="new 0 0 48 48" xml:space="preserve">
<g>
	<path fill="#F7A93B" d="M47.3,19.8H31.6c-0.1,0-0.2,0.1-0.2,0.2v23.5c0,0.1,0.1,0.2,0.2,0.2h15.7c0.1,0,0.2-0.1,0.2-0.2V20
		C47.5,19.9,47.4,19.8,47.3,19.8z M40,37.5v1.9h-1.2v-1.9c-1.1,0-2.2-0.4-2.8-0.8l0.4-1.2c0.7,0.4,1.6,0.8,2.7,0.8
		c1.3,0,2.2-0.8,2.2-1.8c0-1-0.7-1.7-2.1-2.2c-1.9-0.7-3.1-1.6-3.1-3.2c0-1.5,1.1-2.7,2.8-3v-1.9h1.2v1.8c1.1,0,1.9,0.3,2.4,0.7
		L42,27.8c-0.4-0.2-1.2-0.6-2.3-0.6c-1.4,0-2,0.9-2,1.6c0,1,0.7,1.5,2.3,2.1c1.9,0.8,2.9,1.7,2.9,3.4C42.9,35.8,41.9,37.2,40,37.5z"
		/>
	<path fill="#F04B36" d="M26.8,4.2h-26c-0.1,0-0.2,0.1-0.2,0.2v39c0,0.1,0.1,0.2,0.2,0.2h26c0.1,0,0.2-0.1,0.2-0.2v-39
		C27,4.3,26.9,4.2,26.8,4.2z M5.6,9.8h6v6.4h-6V9.8z M5.6,20.8h6v6.4h-6V20.8z M21.9,38.2H5.6v-6.4h16.3V38.2z M21.9,27.2h-6v-6.4h6
		V27.2z M21.9,16.2h-6V9.8h6V16.2z"/>
</g>
</svg>
