<?xml version="1.0" encoding="utf-8"?>
<!-- Generator: Adobe Illustrator 18.0.0, SVG Export Plug-In . SVG Version: 6.00 Build 0)  -->
<!DOCTYPE svg PUBLIC "-//W3C//DTD SVG 1.1//EN" "http://www.w3.org/Graphics/SVG/1.1/DTD/svg11.dtd">
<svg version="1.1" id="Layer_1" xmlns="http://www.w3.org/2000/svg" xmlns:xlink="http://www.w3.org/1999/xlink" x="0px" y="0px"
	 viewBox="0 0 48 48" enable-background="new 0 0 48 48" xml:space="preserve">
<g>
	<path fill="#06728D" d="M35.5,0.5h-23c-1.5,0-2.8,1.3-2.8,2.8v41.4c0,1.5,1.3,2.8,2.8,2.8h23c1.5,0,2.8-1.3,2.8-2.8V3.3
		C38.3,1.8,37,0.5,35.5,0.5z M22.7,4.7h2.5c0.6,0,1,0.4,1,1c0,0.6-0.4,1-1,1h-2.5c-0.6,0-1-0.4-1-1C21.7,5.1,22.2,4.7,22.7,4.7z
		 M14.1,10.7h19.8v17.7H14.1V10.7z M17.1,43.8h-2.5c-0.6,0-1-0.4-1-1c0-0.6,0.4-1,1-1h2.5c0.6,0,1,0.4,1,1
		C18.1,43.3,17.7,43.8,17.1,43.8z M17.1,39.2h-2.5c-0.6,0-1-0.4-1-1c0-0.6,0.4-1,1-1h2.5c0.6,0,1,0.4,1,1
		C18.1,38.7,17.7,39.2,17.1,39.2z M17.1,34.6h-2.5c-0.6,0-1-0.4-1-1s0.4-1,1-1h2.5c0.6,0,1,0.4,1,1S17.7,34.6,17.1,34.6z M25.3,43.8
		h-2.5c-0.6,0-1-0.4-1-1c0-0.6,0.4-1,1-1h2.5c0.6,0,1,0.4,1,1C26.3,43.3,25.8,43.8,25.3,43.8z M25.3,39.2h-2.5c-0.6,0-1-0.4-1-1
		c0-0.6,0.4-1,1-1h2.5c0.6,0,1,0.4,1,1C26.3,38.7,25.8,39.2,25.3,39.2z M25.3,34.6h-2.5c-0.6,0-1-0.4-1-1s0.4-1,1-1h2.5
		c0.6,0,1,0.4,1,1S25.8,34.6,25.3,34.6z M33.4,43.8h-2.5c-0.6,0-1-0.4-1-1c0-0.6,0.4-1,1-1h2.5c0.6,0,1,0.4,1,1
		C34.4,43.3,34,43.8,33.4,43.8z M33.4,39.2h-2.5c-0.6,0-1-0.4-1-1c0-0.6,0.4-1,1-1h2.5c0.6,0,1,0.4,1,1C34.4,38.7,34,39.2,33.4,39.2
		z M33.4,34.6h-2.5c-0.6,0-1-0.4-1-1s0.4-1,1-1h2.5c0.6,0,1,0.4,1,1S34,34.6,33.4,34.6z"/>
</g>
</svg>
