<?xml version="1.0" encoding="utf-8"?>
<!-- Generator: Adobe Illustrator 18.0.0, SVG Export Plug-In . SVG Version: 6.00 Build 0)  -->
<!DOCTYPE svg PUBLIC "-//W3C//DTD SVG 1.1//EN" "http://www.w3.org/Graphics/SVG/1.1/DTD/svg11.dtd">
<svg version="1.1" id="Layer_1" xmlns="http://www.w3.org/2000/svg" xmlns:xlink="http://www.w3.org/1999/xlink" x="0px" y="0px"
	 viewBox="0 0 48 48" enable-background="new 0 0 48 48" xml:space="preserve">
<g>
	<path fill="#F7A93B" d="M44.8,30C44.8,30,44.8,30,44.8,30c-0.3-1.1-1.2-1.9-2.2-1.9c-0.2,0-0.4,0-0.6,0.1c-0.3,0.1-0.6,0.2-0.8,0.5
		c-0.6-0.5-1.3-0.7-2-0.5c-0.4,0.1-0.7,0.3-1,0.6c-0.5-0.3-1.1-0.4-1.7-0.3c-0.1,0-0.3,0.1-0.4,0.2l-1.4-6.4
		c-0.3-1.1-1.2-1.9-2.2-1.9c-0.2,0-0.4,0-0.6,0.1c-1.2,0.3-2,1.7-1.7,3.1l2.2,9.9c0,0,0,0,0,0l0.6,2.6l-4.4-2
		c-0.3-0.1-0.6-0.2-0.8-0.2c-1,0-1.8,0.6-2.2,1.6c-0.5,1.3,0.1,2.8,1.2,3.3c2.7,1.4,6.6,3.6,7,3.8c0.4,0.5,1.1,2.4,1.3,3.1
		c0,0.1,0.1,0.2,0.2,0.2c0,0,0,0,0.1,0l12-3.3c0.1,0,0.2-0.2,0.2-0.3L44.8,30z"/>
	<path fill="#0DB89A" d="M15.1,27.1h9.2c0.1,0,0.2-0.1,0.2-0.2V16.6c0-0.1-0.1-0.2-0.2-0.2h-9.2c-0.1,0-0.2,0.1-0.2,0.2v10.2
		C14.8,27,14.9,27.1,15.1,27.1z"/>
	<path fill="#0DB89A" d="M1.9,27.1h9.2c0.1,0,0.2-0.1,0.2-0.2V16.6c0-0.1-0.1-0.2-0.2-0.2H1.9c-0.1,0-0.2,0.1-0.2,0.2v10.2
		C1.7,27,1.8,27.1,1.9,27.1z"/>
	<path fill="#0DB89A" d="M15.1,42.1h9.2c0.1,0,0.2-0.1,0.2-0.2V31.6c0-0.1-0.1-0.2-0.2-0.2h-9.2c-0.1,0-0.2,0.1-0.2,0.2v10.2
		C14.8,41.9,14.9,42.1,15.1,42.1z"/>
	<path fill="#0DB89A" d="M1.9,42.1h9.2c0.1,0,0.2-0.1,0.2-0.2V31.6c0-0.1-0.1-0.2-0.2-0.2H1.9c-0.1,0-0.2,0.1-0.2,0.2v10.2
		C1.7,41.9,1.8,42.1,1.9,42.1z"/>
	<path fill="#0DB89A" d="M28.2,12.4h9.2c0.1,0,0.2-0.1,0.2-0.2V1.9c0-0.1-0.1-0.2-0.2-0.2h-9.2c-0.1,0-0.2,0.1-0.2,0.2v10.2
		C28,12.3,28.1,12.4,28.2,12.4z"/>
	<path fill="#0DB89A" d="M15.1,12.4h9.2c0.1,0,0.2-0.1,0.2-0.2V1.9c0-0.1-0.1-0.2-0.2-0.2h-9.2c-0.1,0-0.2,0.1-0.2,0.2v10.2
		C14.8,12.3,14.9,12.4,15.1,12.4z"/>
	<path fill="#0DB89A" d="M1.9,12.4h9.2c0.1,0,0.2-0.1,0.2-0.2V1.9c0-0.1-0.1-0.2-0.2-0.2H1.9c-0.1,0-0.2,0.1-0.2,0.2v10.2
		C1.7,12.3,1.8,12.4,1.9,12.4z"/>
	<path fill="#C9C7C7" d="M31.6,44.7H1.9c-0.8,0-1.4,0.6-1.4,1.4c0,0.8,0.6,1.4,1.4,1.4h29.7c0.8,0,1.4-0.6,1.4-1.4
		C33.1,45.3,32.4,44.7,31.6,44.7z"/>
	<path fill="#C9C7C7" d="M41.8,26.6c0.8,0,1.4-0.6,1.4-1.4V1.9c0-0.8-0.6-1.4-1.4-1.4s-1.4,0.6-1.4,1.4v23.3
		C40.4,26,41,26.6,41.8,26.6z"/>
	<path fill="#0DB89A" d="M28.2,27.1h1.7l-0.8-3.4c-0.4-1.8,0.7-3.7,2.4-4.2c0.3-0.1,0.6-0.1,0.8-0.1c1.5,0,2.8,1.1,3.2,2.7l1.1,5
		h0.7c0.1,0,0.2-0.1,0.2-0.2V16.6c0-0.1-0.1-0.2-0.2-0.2h-9.2c-0.1,0-0.2,0.1-0.2,0.2v10.2C28,27,28.1,27.1,28.2,27.1z"/>
</g>
</svg>
