<?xml version="1.0" encoding="utf-8"?>
<!-- Generator: Adobe Illustrator 18.0.0, SVG Export Plug-In . SVG Version: 6.00 Build 0)  -->
<!DOCTYPE svg PUBLIC "-//W3C//DTD SVG 1.1//EN" "http://www.w3.org/Graphics/SVG/1.1/DTD/svg11.dtd">
<svg version="1.1" id="Layer_1" xmlns="http://www.w3.org/2000/svg" xmlns:xlink="http://www.w3.org/1999/xlink" x="0px" y="0px"
	 viewBox="0 0 48 48" enable-background="new 0 0 48 48" xml:space="preserve">
<g>
	<path fill="#F04B36" d="M23.3,35.7c0.6,0,1.1-0.5,1.1-1.1V18.9c0-0.6-0.5-1.1-1.1-1.1s-1.1,0.5-1.1,1.1v15.6
		C22.2,35.1,22.7,35.7,23.3,35.7z"/>
	<path fill="#4DA0D8" d="M30.5,35.7c0.6,0,1.1-0.5,1.1-1.1V10c0-0.6-0.5-1.1-1.1-1.1c-0.6,0-1.1,0.5-1.1,1.1v24.5
		C29.4,35.1,29.9,35.7,30.5,35.7z"/>
	<path fill="#374F5A" d="M16.2,35.7c0.6,0,1.1-0.5,1.1-1.1v-4.8c0-0.6-0.5-1.1-1.1-1.1c-0.6,0-1.1,0.5-1.1,1.1v4.8
		C15.1,35.1,15.6,35.7,16.2,35.7z"/>
	<path fill="#89AA47" d="M32.6,36.8H14.8c-0.6,0-1.1,0.5-1.1,1.1c0,0.6,0.5,1.1,1.1,1.1h17.7c0.6,0,1.1-0.5,1.1-1.1
		C33.7,37.3,33.2,36.8,32.6,36.8z"/>
	<path fill="#F7A93B" d="M34.8,0.5H13.2c-2.9,0-5.3,2.4-5.3,5.3v36.3c0,2.9,2.4,5.3,5.3,5.3h21.7c2.9,0,5.3-2.4,5.3-5.3V5.8
		C40.2,2.9,37.8,0.5,34.8,0.5z M19.9,3.7h7c0.5,0,1,0.4,1,1c0,0.5-0.4,1-1,1h-7c-0.5,0-1-0.4-1-1C18.9,4.1,19.4,3.7,19.9,3.7z
		 M17.9,44.3h-3.4c-0.5,0-1-0.4-1-1c0-0.5,0.4-1,1-1h3.4c0.5,0,1,0.4,1,1C18.9,43.9,18.5,44.3,17.9,44.3z M25.7,44.3h-3.4
		c-0.5,0-1-0.4-1-1c0-0.5,0.4-1,1-1h3.4c0.5,0,1,0.4,1,1C26.7,43.9,26.3,44.3,25.7,44.3z M33.5,44.3h-3.4c-0.5,0-1-0.4-1-1
		c0-0.5,0.4-1,1-1h3.4c0.5,0,1,0.4,1,1C34.5,43.9,34.1,44.3,33.5,44.3z M36.6,40.4c0,0.5-0.4,1-1,1H12.4c-0.5,0-1-0.4-1-1V7.6
		c0-0.5,0.4-1,1-1h23.2c0.5,0,1,0.4,1,1V40.4z"/>
</g>
</svg>
