<?xml version="1.0" encoding="utf-8"?>
<!-- Generator: Adobe Illustrator 18.0.0, SVG Export Plug-In . SVG Version: 6.00 Build 0)  -->
<!DOCTYPE svg PUBLIC "-//W3C//DTD SVG 1.1//EN" "http://www.w3.org/Graphics/SVG/1.1/DTD/svg11.dtd">
<svg version="1.1" id="Layer_1" xmlns="http://www.w3.org/2000/svg" xmlns:xlink="http://www.w3.org/1999/xlink" x="0px" y="0px"
	 viewBox="0 0 48 48" enable-background="new 0 0 48 48" xml:space="preserve">
<g>
	<path fill="#4DA0D8" d="M12.6,11.2c0-0.1-0.1-0.2-0.3-0.2H4.2C4.1,11,4,11,3.9,11.1c0,0.1,0,0.2,0.1,0.3l1.9,1.8
		C-1.6,21.5-1.2,34,6.7,41.9c0,0,0.1,0.1,0.2,0.1c0.1,0,0.1,0,0.2-0.1l3.8-3.7c0.1-0.1,0.1-0.3,0-0.3c-5.6-5.6-6-14.5-0.8-20.5
		l2.2,2.1c0,0,0.1,0.1,0.2,0.1c0.1,0,0.3-0.1,0.3-0.2c0,0,0-0.1,0-0.1L12.6,11.2z"/>
	<path fill="#F04B36" d="M44,36.6l-1.8-1.8c7.4-8.3,7.1-20.8-0.8-28.6c0,0-0.1-0.1-0.2-0.1c-0.1,0-0.1,0-0.2,0.1l-3.8,3.7
		c-0.1,0.1-0.1,0.3,0,0.3c5.6,5.6,6,14.5,0.8,20.5l-2.2-2.1c-0.1-0.1-0.2-0.1-0.3-0.1c-0.1,0-0.2,0.1-0.2,0.2v8
		c0,0.1,0.1,0.2,0.3,0.2l8.2,0c0,0,0,0,0,0c0.1,0,0.3-0.1,0.3-0.2C44.1,36.7,44.1,36.6,44,36.6z"/>
	<path fill="#06728D" d="M23,28.5c-5.3,0-9.7,4.3-9.7,9.5c0,5.2,4.3,9.5,9.7,9.5c5.3,0,9.7-4.3,9.7-9.5C32.7,32.7,28.4,28.5,23,28.5
		z M23.5,42.7v1.6h-1v-1.6c-0.9,0-1.8-0.3-2.4-0.7l0.4-1c0.6,0.4,1.4,0.7,2.3,0.7c1.1,0,1.9-0.6,1.9-1.5c0-0.8-0.6-1.4-1.8-1.8
		c-1.6-0.6-2.6-1.3-2.6-2.7c0-1.3,0.9-2.2,2.4-2.5v-1.6h1v1.5c0.9,0,1.6,0.3,2,0.5l-0.4,1c-0.3-0.2-1-0.5-2-0.5
		c-1.2,0-1.7,0.7-1.7,1.3c0,0.8,0.6,1.2,1.9,1.8c1.6,0.6,2.4,1.4,2.4,2.8C26,41.3,25.1,42.4,23.5,42.7z"/>
	<path fill="#E77528" d="M25.3,0.5c-5.3,0-9.7,4.3-9.7,9.5c0,5.2,4.3,9.5,9.7,9.5c5.3,0,9.7-4.3,9.7-9.5C35,4.8,30.7,0.5,25.3,0.5z
		 M27.1,8.1V9h-4.2c-0.1,0.3-0.1,0.7-0.1,1.1c0,0.4,0,0.7,0.1,1h4.2V12h-3.9c0.6,1.4,1.9,2.2,3.7,2.2c0.8,0,1.7-0.2,2.2-0.4l0.3,1.1
		c-0.5,0.2-1.5,0.5-2.8,0.5c-2.4,0-4.2-1.2-4.9-3.4H19v-0.9h2.4c0-0.3-0.1-0.6-0.1-1c0-0.4,0-0.8,0.1-1.1H19V8.1h2.7
		c0.7-2.1,2.6-3.4,5.2-3.4c1.3,0,2.1,0.3,2.5,0.5L29,6.2c-0.5-0.2-1.3-0.4-2.1-0.4c-1.8,0-3.1,0.8-3.7,2.3H27.1z"/>
</g>
</svg>
