<?xml version="1.0" encoding="utf-8"?>
<!-- Generator: Adobe Illustrator 18.0.0, SVG Export Plug-In . SVG Version: 6.00 Build 0)  -->
<!DOCTYPE svg PUBLIC "-//W3C//DTD SVG 1.1//EN" "http://www.w3.org/Graphics/SVG/1.1/DTD/svg11.dtd">
<svg version="1.1" id="Layer_1" xmlns="http://www.w3.org/2000/svg" xmlns:xlink="http://www.w3.org/1999/xlink" x="0px" y="0px"
	 viewBox="0 0 48 48" enable-background="new 0 0 48 48" xml:space="preserve">
<g>
	<path fill="#F04B36" d="M23.8,27.2v0.9c-0.8,0.1-1.4,0.7-1.4,1.5c0,0.8,0.6,1.2,1.5,1.6c0.7,0.3,1,0.6,1,1.1c0,0.5-0.4,0.9-1.1,0.9
		c-0.5,0-1-0.2-1.3-0.4l-0.2,0.6c0.3,0.2,0.9,0.4,1.4,0.4v0.9h0.6v-0.9c0.9-0.2,1.4-0.8,1.4-1.5c0-0.8-0.5-1.3-1.4-1.6
		c-0.8-0.3-1.1-0.6-1.1-1c0-0.4,0.3-0.8,1-0.8c0.6,0,0.9,0.2,1.1,0.3l0.2-0.6c-0.3-0.2-0.6-0.3-1.2-0.3v-0.9H23.8z"/>
	<ellipse fill="none" cx="38.6" cy="30.9" rx="1.2" ry="1.1"/>
	<path fill="none" d="M18.3,30.9c0,2.9,2.6,5.3,5.7,5.3c3.1,0,5.7-2.4,5.7-5.3c0-2.9-2.6-5.3-5.7-5.3C20.9,25.5,18.3,27.9,18.3,30.9
		z"/>
	<ellipse fill="none" cx="9.4" cy="30.9" rx="1.2" ry="1.1"/>
	<path fill="#0DB89A" d="M25,4.4v-3c0-0.5-0.4-1-1-1c-0.5,0-1,0.4-1,1v3C11.4,4.7,2,11,2,18.7C2,18.9,2.1,19,2.3,19h20.8
		c0,0.1,0,0.1,0,0.2v2.9H25v-2.9c0-0.1,0-0.1,0-0.2h20.8c0.1,0,0.2-0.1,0.2-0.2C46,11,36.6,4.7,25,4.4z"/>
	<path fill="none" d="M24,25.5c-3.1,0-5.7,2.4-5.7,5.3c0,2.9,2.6,5.3,5.7,5.3c3.1,0,5.7-2.4,5.7-5.3C29.7,27.9,27.1,25.5,24,25.5z"
		/>
	<ellipse fill="none" cx="38.6" cy="30.9" rx="1.2" ry="1.1"/>
	<ellipse fill="none" cx="9.4" cy="30.9" rx="1.2" ry="1.1"/>
	<path fill="#0DB89A" d="M23,42.7c0,1.6-1.3,2.9-2.9,2.9h-0.5c-1.6,0-2.9-1.3-2.9-2.9c0-0.5-0.4-1-1-1c-0.5,0-1,0.4-1,1
		c0,2.7,2.2,4.8,4.8,4.8h0.5c2.7,0,4.8-2.2,4.8-4.8v-3H23V42.7z"/>
	<path fill="#CFD0D1" d="M45,22.1H25H23H3c-0.1,0-0.2,0.1-0.2,0.2v17c0,0.1,0.1,0.2,0.2,0.2h20H25h20c0.1,0,0.2-0.1,0.2-0.2v-17
		C45.2,22.2,45.1,22.1,45,22.1z M9.4,32c-0.7,0-1.2-0.5-1.2-1.1c0-0.6,0.5-1.1,1.2-1.1c0.7,0,1.2,0.5,1.2,1.1
		C10.6,31.5,10,32,9.4,32z M24,36.2c-3.1,0-5.7-2.4-5.7-5.3c0-2.9,2.6-5.3,5.7-5.3c3.1,0,5.7,2.4,5.7,5.3
		C29.7,33.8,27.1,36.2,24,36.2z M38.6,32c-0.7,0-1.2-0.5-1.2-1.1c0-0.6,0.5-1.1,1.2-1.1c0.7,0,1.2,0.5,1.2,1.1
		C39.8,31.5,39.3,32,38.6,32z"/>
</g>
</svg>
