<?xml version="1.0" encoding="utf-8"?>
<!-- Generator: Adobe Illustrator 18.0.0, SVG Export Plug-In . SVG Version: 6.00 Build 0)  -->
<!DOCTYPE svg PUBLIC "-//W3C//DTD SVG 1.1//EN" "http://www.w3.org/Graphics/SVG/1.1/DTD/svg11.dtd">
<svg version="1.1" id="Layer_1" xmlns="http://www.w3.org/2000/svg" xmlns:xlink="http://www.w3.org/1999/xlink" x="0px" y="0px"
	 viewBox="0 0 48 48" enable-background="new 0 0 48 48" xml:space="preserve">
<g>
	<path fill="#F04B36" d="M33.1,23.9c0-0.1,0-0.1-0.1-0.2l-4.2-4.2c-0.1-0.1-0.3-0.1-0.4,0l-9,9c-0.1,0.1-0.1,0.3,0,0.3l4.2,4.2
		c0,0,0.1,0.1,0.2,0.1c0.1,0,0.1,0,0.2-0.1l9-9C33.1,24,33.1,24,33.1,23.9z"/>
	<path fill="#CFD0D1" d="M27.1,17L10.7,0.6c-0.1-0.1-0.3-0.1-0.4,0l-9.8,9.8c0,0-0.1,0.1-0.1,0.2c0,0.1,0,0.1,0.1,0.2L17,27.1
		c0,0,0.1,0.1,0.2,0.1c0.1,0,0.1,0,0.2-0.1l9.8-9.8C27.2,17.3,27.2,17.1,27.1,17z"/>
	<path fill="#F7A93B" d="M47.4,45.6c0,0-3.5-4.1-4.7-13.7c0-0.1-0.1-0.2-0.2-0.2c0,0-3.2-0.8-8.2-5.8c-0.1-0.1-0.3-0.1-0.3,0
		L25.9,34c-0.1,0.1-0.1,0.3,0,0.4c5,5,5.8,8.1,5.8,8.2c0,0.1,0.1,0.2,0.2,0.2c9.7,1.2,13.7,4.7,13.7,4.7c0,0,0.1,0.1,0.2,0.1
		c0.1,0,0.1,0,0.2-0.1l1.5-1.5C47.5,45.8,47.5,45.7,47.4,45.6z M38.3,38.3c-0.8,0.8-2.3,0.8-3.1,0c-0.4-0.4-0.6-1-0.6-1.6
		c0-0.6,0.2-1.1,0.6-1.6c0.4-0.4,1-0.6,1.6-0.6c0.6,0,1.1,0.2,1.6,0.6C39.1,36,39.1,37.4,38.3,38.3z"/>
</g>
</svg>
