<?xml version="1.0" encoding="utf-8"?>
<!-- Generator: Adobe Illustrator 18.0.0, SVG Export Plug-In . SVG Version: 6.00 Build 0)  -->
<!DOCTYPE svg PUBLIC "-//W3C//DTD SVG 1.1//EN" "http://www.w3.org/Graphics/SVG/1.1/DTD/svg11.dtd">
<svg version="1.1" id="Layer_1" xmlns="http://www.w3.org/2000/svg" xmlns:xlink="http://www.w3.org/1999/xlink" x="0px" y="0px"
	 viewBox="0 0 48 48" enable-background="new 0 0 48 48" xml:space="preserve">
<g>
	<path fill="#F7A93B" d="M47.4,35.4c0.1-0.3,0.1-0.6,0.1-0.9V13.4c0-0.6-0.2-1.2-0.4-1.7L36,21.4L47.4,35.4z"/>
	<path fill="#0DB89A" d="M24,29.4l21.8-19.2c-0.7-0.5-1.4-0.7-2.3-0.7h-39c-0.9,0-1.6,0.3-2.3,0.7L24,29.4z"/>
	<path fill="#4DA0D8" d="M34.5,22.8l-9.9,8.7c-0.2,0.2-0.4,0.2-0.7,0.2s-0.5-0.1-0.7-0.2l-9.9-8.7L1.6,37.3c0.7,0.8,1.7,1.2,2.9,1.2
		h39c1.1,0,2.1-0.5,2.9-1.2L34.5,22.8z"/>
	<path fill="#F7A93B" d="M0.9,11.7c-0.3,0.5-0.4,1.1-0.4,1.7v21.1c0,0.3,0,0.6,0.1,0.9l11.4-14L0.9,11.7z"/>
</g>
</svg>
