<?xml version="1.0" encoding="utf-8"?>
<!-- Generator: Adobe Illustrator 18.0.0, SVG Export Plug-In . SVG Version: 6.00 Build 0)  -->
<!DOCTYPE svg PUBLIC "-//W3C//DTD SVG 1.1//EN" "http://www.w3.org/Graphics/SVG/1.1/DTD/svg11.dtd">
<svg version="1.1" id="Layer_1" xmlns="http://www.w3.org/2000/svg" xmlns:xlink="http://www.w3.org/1999/xlink" x="0px" y="0px"
	 viewBox="0 0 48 48" enable-background="new 0 0 48 48" xml:space="preserve">
<g>
	<path fill="#E77528" d="M43.5,7c-2.6-2.6-6.1-4-9.8-4c-3.7,0-7.2,1.5-9.8,4.1l-12,12l-8.3,8.3C-0.5,31.5-0.5,38.1,3.4,42
		c2,2,4.5,2.9,7.1,2.9c2.7,0,5.4-1,7.4-3.1l15.2-15.2c0,0,0,0,0,0l5.2-5.2c1.4-1.4,2.1-3.2,2.2-5.1c0-1.9-0.7-3.7-2-5.1
		c-2.8-2.8-7.3-2.7-10.2,0.1L10,29.7c-0.6,0.6-0.6,1.4,0,2c0.3,0.3,0.6,0.4,1,0.4c0.4,0,0.7-0.1,1-0.4l18.4-18.4
		c1.7-1.7,4.5-1.8,6.2-0.1c0.8,0.8,1.2,1.9,1.2,3.1c0,1.2-0.5,2.3-1.3,3.1L31,24.8c0,0,0,0,0,0l-15,15c-3,3-7.7,3-10.6,0.2
		c-2.9-2.9-2.8-7.6,0.2-10.6l0.9-0.9c0,0,0,0,0,0L26,9.1c2.1-2.1,4.8-3.2,7.8-3.2c2.9,0,5.7,1.1,7.7,3.2c4.3,4.3,4.2,11.2-0.1,15.5
		l-16,16c-0.6,0.5-0.6,1.4,0,2c0.3,0.3,0.6,0.4,1,0.4s0.7-0.1,1-0.4l16-16C48.8,21.1,48.9,12.4,43.5,7z"/>
</g>
</svg>
