<?xml version="1.0" encoding="utf-8"?>
<!-- Generator: Adobe Illustrator 18.0.0, SVG Export Plug-In . SVG Version: 6.00 Build 0)  -->
<!DOCTYPE svg PUBLIC "-//W3C//DTD SVG 1.1//EN" "http://www.w3.org/Graphics/SVG/1.1/DTD/svg11.dtd">
<svg version="1.1" id="Layer_1" xmlns="http://www.w3.org/2000/svg" xmlns:xlink="http://www.w3.org/1999/xlink" x="0px" y="0px"
	 viewBox="0 0 48 48" enable-background="new 0 0 48 48" xml:space="preserve">
<g>
	<path fill="#0DB89A" d="M42.8,32.9c0-0.1-0.1-0.1-0.2-0.1H30.5H17.5H5.4c-0.1,0-0.1,0-0.2,0.1c0,0.1-0.1,0.1-0.1,0.2l2.1,14.2
		c0,0.1,0.1,0.2,0.2,0.2h33.1c0.1,0,0.2-0.1,0.2-0.2l2.1-14.2C42.9,33,42.9,33,42.8,32.9z"/>
	<path fill="#F04B36" d="M27,26c-0.3-5.1,3.6-9.5,3.7-9.5c0,0,0,0,0,0c1.9-1.8,3-4.1,3-6.7c0-5.1-4.3-9.3-9.6-9.3
		c-5.3,0-9.6,4.2-9.6,9.3c0,2.5,1.1,4.9,3,6.7c0,0,0,0,0,0c0,0,4,4.5,3.7,9.5c-0.1,2.6-1.4,4.9-3.6,6.9h13.1
		C28.3,30.8,27.1,28.5,27,26z"/>
</g>
</svg>
