<?xml version="1.0" encoding="utf-8"?>
<!-- Generator: Adobe Illustrator 18.0.0, SVG Export Plug-In . SVG Version: 6.00 Build 0)  -->
<!DOCTYPE svg PUBLIC "-//W3C//DTD SVG 1.1//EN" "http://www.w3.org/Graphics/SVG/1.1/DTD/svg11.dtd">
<svg version="1.1" id="Layer_1" xmlns="http://www.w3.org/2000/svg" xmlns:xlink="http://www.w3.org/1999/xlink" x="0px" y="0px"
	 viewBox="0 0 48 48" enable-background="new 0 0 48 48" xml:space="preserve">
<g>
	<path fill="#06728D" d="M0.9,44.9c-0.6,0.6-0.6,1.5,0,2.1c0.3,0.3,0.7,0.4,1.1,0.4c0.4,0,0.8-0.1,1.1-0.4l11.2-11.2l-2.1-2.1
		L0.9,44.9z"/>
	<path fill="#E77528" d="M47.4,21.9L26.1,0.6c-0.1-0.1-0.3-0.1-0.4,0l-4.7,4.7c-0.1,0.1-0.1,0.3,0,0.4l3.1,3.1L12.4,20.4
		c-1.2-0.2-2.5-0.4-3.8-0.4c-2.8,0-5.4,0.6-7.9,1.7c-0.1,0-0.1,0.1-0.1,0.2c0,0.1,0,0.2,0.1,0.2l11.6,11.6l2.1,2.1l11.6,11.6
		c0,0,0.1,0.1,0.2,0.1c0,0,0,0,0,0c0.1,0,0.1-0.1,0.2-0.1c1.7-3.7,2.1-7.7,1.3-11.7l11.7-11.7l3.1,3.1c0.1,0.1,0.3,0.1,0.4,0
		l4.7-4.7c0,0,0.1-0.1,0.1-0.2C47.5,22,47.5,21.9,47.4,21.9z"/>
</g>
</svg>
