<?xml version="1.0" encoding="utf-8"?>
<!-- Generator: Adobe Illustrator 18.0.0, SVG Export Plug-In . SVG Version: 6.00 Build 0)  -->
<!DOCTYPE svg PUBLIC "-//W3C//DTD SVG 1.1//EN" "http://www.w3.org/Graphics/SVG/1.1/DTD/svg11.dtd">
<svg version="1.1" id="Layer_1" xmlns="http://www.w3.org/2000/svg" xmlns:xlink="http://www.w3.org/1999/xlink" x="0px" y="0px"
	 viewBox="0 0 48 48" enable-background="new 0 0 48 48" xml:space="preserve">
<g>
	<ellipse fill="#D14D37" cx="19.4" cy="23.4" rx="1.6" ry="1.6"/>
	<ellipse fill="#D14D37" cx="28.6" cy="23.4" rx="1.6" ry="1.6"/>
	<ellipse fill="none" cx="21.2" cy="37.6" rx="1.6" ry="2.1"/>
	<path fill="none" d="M19.4,19.8c-2,0-3.6,1.6-3.6,3.6c0,2,1.6,3.6,3.6,3.6c2,0,3.6-1.6,3.6-3.6C23,21.4,21.4,19.8,19.4,19.8z"/>
	<path fill="none" d="M28.6,19.8c-2,0-3.6,1.6-3.6,3.6c0,2,1.6,3.6,3.6,3.6c2,0,3.6-1.6,3.6-3.6C32.1,21.4,30.5,19.8,28.6,19.8z"/>
	<ellipse fill="none" cx="26.8" cy="37.6" rx="1.6" ry="2.1"/>
	<path fill="#06728D" d="M5.6,9.4C4.4,5.4,8.9,1,8.9,0.9C9,0.8,9,0.7,8.9,0.6C8.9,0.5,8.7,0.5,8.6,0.5c-5.3,2.6-8,5.6-8.1,9
		c-0.2,5.9,7.3,11.4,12,14.2l2.3-8.5C9.5,14.1,6.4,12.1,5.6,9.4z"/>
	<path fill="#F7A93B" d="M24,9.9c-3.6,0-7,2-9.2,5.4l-2.3,8.5c0.1,3.8,1.5,7.5,4,10C16.2,34.9,16,36,16,37.1c0,5.7,3.6,10.4,8,10.4
		c4.4,0,8-4.7,8-10.4c0-1.1-0.1-2.2-0.5-3.3c2.5-2.5,3.9-6.1,4-10l-2.3-8.5C31,11.9,27.6,9.9,24,9.9z M21.2,39.7
		c-0.9,0-1.6-1-1.6-2.1s0.7-2.1,1.6-2.1c0.9,0,1.6,1,1.6,2.1S22.1,39.7,21.2,39.7z M19.4,27c-2,0-3.6-1.6-3.6-3.6
		c0-2,1.6-3.6,3.6-3.6c2,0,3.6,1.6,3.6,3.6C23,25.4,21.4,27,19.4,27z M26.8,39.7c-0.9,0-1.6-1-1.6-2.1s0.7-2.1,1.6-2.1
		c0.9,0,1.6,1,1.6,2.1S27.6,39.7,26.8,39.7z M28.6,27c-2,0-3.6-1.6-3.6-3.6c0-2,1.6-3.6,3.6-3.6c2,0,3.6,1.6,3.6,3.6
		C32.1,25.4,30.5,27,28.6,27z"/>
	<path fill="#06728D" d="M47.5,9.6c-0.1-3.4-2.9-6.5-8.1-9c-0.1-0.1-0.2,0-0.3,0.1c-0.1,0.1-0.1,0.2,0,0.3c0,0,4.5,4.4,3.3,8.5
		c-0.8,2.7-3.9,4.7-9.2,5.9l2.3,8.5C40.2,21,47.7,15.5,47.5,9.6z"/>
</g>
</svg>
