<?xml version="1.0" encoding="utf-8"?>
<!-- Generator: Adobe Illustrator 18.0.0, SVG Export Plug-In . SVG Version: 6.00 Build 0)  -->
<!DOCTYPE svg PUBLIC "-//W3C//DTD SVG 1.1//EN" "http://www.w3.org/Graphics/SVG/1.1/DTD/svg11.dtd">
<svg version="1.1" id="Layer_1" xmlns="http://www.w3.org/2000/svg" xmlns:xlink="http://www.w3.org/1999/xlink" x="0px" y="0px"
	 viewBox="0 0 48 48" enable-background="new 0 0 48 48" xml:space="preserve">
<g>
	<path fill="#06728D" d="M47.3,6.6h-6.9c-0.1,0-0.3,0.1-0.3,0.3v2.6h-7.3c-0.5-4.6-4.2-8.1-8.8-8.1c-4.5,0-8.3,3.6-8.8,8.1H8
		c0,0,0,0,0,0V6.9c0-0.1-0.1-0.3-0.3-0.3H0.7c-0.1,0-0.2,0.1-0.2,0.3v7.2c0,0.1,0.1,0.3,0.2,0.3h6.9c0.1,0,0.3-0.1,0.3-0.3v-2.6
		c0,0,0,0,0,0h7.3c0.1,1.2,0.5,2.3,1,3.3c-0.1,0.1-0.2,0.2-0.3,0.3L8.6,28c-0.1,0.2-0.1,0.4-0.1,0.6H6.1c-0.1,0-0.3,0.1-0.3,0.3V36
		c0,0.1,0.1,0.3,0.3,0.3H13c0.1,0,0.2-0.1,0.2-0.3v-7.2c0-0.1-0.1-0.3-0.2-0.3h-2.4l6.8-11.9c1.4,1.6,3.4,2.7,5.6,3v17.9h-2.5
		c-0.1,0-0.2,0.1-0.2,0.3V45c0,0.1,0.1,0.3,0.2,0.3h6.9c0.1,0,0.3-0.1,0.3-0.3v-7.2c0-0.1-0.1-0.3-0.3-0.3H25V19.6
		c2.2-0.3,4.1-1.4,5.6-3l6.8,11.9H35c-0.1,0-0.2,0.1-0.2,0.3V36c0,0.1,0.1,0.3,0.2,0.3h6.9c0.1,0,0.3-0.1,0.3-0.3v-7.2
		c0-0.1-0.1-0.3-0.3-0.3h-2.4c0-0.2,0-0.4-0.1-0.6l-7.4-12.8c-0.1-0.1-0.2-0.2-0.3-0.3c0.5-1,0.9-2.1,1-3.3h7.3v2.6
		c0,0.1,0.1,0.3,0.3,0.3h6.9c0.1,0,0.2-0.1,0.2-0.3V6.9C47.5,6.8,47.4,6.6,47.3,6.6z M24.4,14.9v1.5h-0.9v-1.4
		c-0.8,0-1.6-0.3-2.1-0.6l0.3-1c0.5,0.3,1.2,0.6,2,0.6c1,0,1.6-0.6,1.6-1.4c0-0.8-0.5-1.3-1.5-1.7c-1.4-0.6-2.3-1.2-2.3-2.5
		c0-1.2,0.8-2.1,2.1-2.3V4.7h0.9V6c0.8,0,1.4,0.3,1.8,0.5l-0.3,0.9C25.6,7.3,25.1,7,24.2,7c-1.1,0-1.5,0.7-1.5,1.2
		c0,0.7,0.5,1.1,1.7,1.6c1.4,0.6,2.1,1.3,2.1,2.6C26.6,13.6,25.8,14.6,24.4,14.9z"/>
	<rect x="38.5" y="5.9" fill="#F7A93B" width="9" height="9.3"/>
	<rect x="0.5" y="5.9" fill="#F7A93B" width="9" height="9.3"/>
	<rect x="5.2" y="28" fill="#F04B36" width="9" height="9.3"/>
	<rect x="33.1" y="28" fill="#F04B36" width="9" height="9.3"/>
	<rect x="19.5" y="37.3" fill="#4DA0D8" width="9" height="9.3"/>
</g>
</svg>
