<?xml version="1.0" encoding="utf-8"?>
<!-- Generator: Adobe Illustrator 18.0.0, SVG Export Plug-In . SVG Version: 6.00 Build 0)  -->
<!DOCTYPE svg PUBLIC "-//W3C//DTD SVG 1.1//EN" "http://www.w3.org/Graphics/SVG/1.1/DTD/svg11.dtd">
<svg version="1.1" id="Layer_1" xmlns="http://www.w3.org/2000/svg" xmlns:xlink="http://www.w3.org/1999/xlink" x="0px" y="0px"
	 viewBox="0 0 48 48" enable-background="new 0 0 48 48" xml:space="preserve">
<g>
	<path fill="#4DA0D8" d="M47,30c0-0.1-0.1-0.1-0.1-0.2c-0.1,0-0.1,0-0.2,0l-13.1,3.7c-0.1,0-0.2,0.2-0.2,0.3l2.9,13.5
		c0,0.1,0.1,0.1,0.1,0.2c0,0,0.1,0,0.1,0c0,0,0,0,0.1,0c2.6-0.6,5-1.9,6.9-3.8C47,40.1,48.3,34.9,47,30z"/>
	<path fill="#F04B36" d="M42.2,27.5c0.1,0,0.2-0.2,0.2-0.3c-0.6-2.4-1.9-4.5-3.6-6.2c-2.6-2.7-6.1-4.1-9.8-4.1
		c-3.7,0-7.2,1.5-9.8,4.1c-5.4,5.5-5.4,14.4,0,19.9c2.6,2.7,6.1,4.1,9.8,4.1c1,0,2-0.1,2.9-0.3c0.1,0,0.2-0.2,0.2-0.3l-2.8-13.3
		L42.2,27.5z"/>
	<path fill="#0DB89A" d="M7.5,23.1h7.7c0.7-1.3,1.6-2.5,2.6-3.6c0.1-0.1,0.3-0.2,0.4-0.4H7.5c-0.5,0-1-0.4-1-1c0-0.6,0.4-1,1-1h13.3
		c2.5-1.5,5.3-2.4,8.2-2.4c1.1,0,2.2,0.1,3.2,0.3V0.8c0-0.1-0.1-0.3-0.2-0.3H0.7c-0.1,0-0.2,0.1-0.2,0.3v36.1c0,0.1,0.1,0.2,0.2,0.2
		h13.7c-0.8-1.9-1.2-4-1.2-6H7.5c-0.5,0-1-0.4-1-1c0-0.6,0.4-1,1-1h5.8c0.1-1.3,0.5-2.7,0.9-4H7.5c-0.5,0-1-0.4-1-1
		S6.9,23.1,7.5,23.1z M7.5,5.3h16.9c0.5,0,1,0.4,1,1c0,0.6-0.4,1-1,1H7.5c-0.5,0-1-0.4-1-1C6.5,5.7,6.9,5.3,7.5,5.3z M7.5,11.2h16.9
		c0.5,0,1,0.4,1,1c0,0.6-0.4,1-1,1H7.5c-0.5,0-1-0.4-1-1C6.5,11.7,6.9,11.2,7.5,11.2z"/>
</g>
</svg>
