<?xml version="1.0" encoding="utf-8"?>
<!-- Generator: Adobe Illustrator 18.0.0, SVG Export Plug-In . SVG Version: 6.00 Build 0)  -->
<!DOCTYPE svg PUBLIC "-//W3C//DTD SVG 1.1//EN" "http://www.w3.org/Graphics/SVG/1.1/DTD/svg11.dtd">
<svg version="1.1" id="Layer_1" xmlns="http://www.w3.org/2000/svg" xmlns:xlink="http://www.w3.org/1999/xlink" x="0px" y="0px"
	 viewBox="0 0 48 48" enable-background="new 0 0 48 48" xml:space="preserve">
<g>
	<path fill="#F7A93B" d="M18.3,19.6c0,0.5,0.4,1,1,1h8.6l-1,1c-0.4,0.4-0.4,1,0,1.4c0.2,0.2,0.4,0.3,0.7,0.3c0.2,0,0.5-0.1,0.7-0.3
		l2.7-2.7c0.2-0.2,0.3-0.4,0.3-0.7c0-0.3-0.1-0.5-0.3-0.7l-2.7-2.7c-0.4-0.4-1-0.4-1.4,0c-0.4,0.4-0.4,1,0,1.4l1,1h-8.6
		C18.7,18.6,18.3,19.1,18.3,19.6z"/>
	<path fill="#4DA0D8" d="M38.4,25c-0.4,0.4-0.4,1,0,1.4l1,1H19.3c-0.5,0-1,0.4-1,1c0,0.5,0.4,1,1,1h20.1l-1,1c-0.4,0.4-0.4,1,0,1.4
		c0.2,0.2,0.4,0.3,0.7,0.3c0.2,0,0.5-0.1,0.7-0.3l2.7-2.7c0.2-0.2,0.3-0.4,0.3-0.7c0-0.3-0.1-0.5-0.3-0.7L39.7,25
		C39.4,24.6,38.7,24.6,38.4,25z"/>
	<path fill="#F04B36" d="M47.2,36.3l-2.7-2.7c-0.4-0.4-1-0.4-1.4,0c-0.4,0.4-0.4,1,0,1.4l1,1H19.3c-0.5,0-1,0.4-1,1c0,0.5,0.4,1,1,1
		h24.8l-1,1c-0.4,0.4-0.4,1,0,1.4c0.2,0.2,0.4,0.3,0.7,0.3c0.2,0,0.5-0.1,0.7-0.3l2.7-2.7c0.2-0.2,0.3-0.4,0.3-0.7
		C47.5,36.8,47.4,36.5,47.2,36.3z"/>
	<polygon fill="#566C7A" points="11.8,20.4 11.8,14.5 11.2,14.5 9.9,15.2 10,15.8 11,15.3 11.1,15.3 11.1,20.4 	"/>
	<path fill="#566C7A" d="M13.1,28.2h-2.6v0l0.5-0.4c1.2-1.2,2-2.1,2-3.1c0-0.8-0.5-1.7-1.8-1.7c-0.7,0-1.3,0.3-1.7,0.6l0.3,0.6
		c0.3-0.2,0.7-0.5,1.2-0.5c0.9,0,1.2,0.6,1.2,1.1c0,0.9-0.7,1.6-2.2,3.1l-0.6,0.6v0.5h3.7V28.2z"/>
	<path fill="#566C7A" d="M10.8,37.5c-0.6,0-1.1-0.2-1.3-0.4l-0.2,0.6c0.3,0.2,0.9,0.4,1.5,0.4c1.4,0,2.1-0.8,2.1-1.8
		c0-0.8-0.6-1.4-1.3-1.5v0c0.7-0.3,1.1-0.8,1.1-1.4c0-0.7-0.5-1.4-1.7-1.4c-0.6,0-1.2,0.2-1.5,0.5l0.2,0.6c0.3-0.2,0.7-0.4,1.2-0.4
		c0.7,0,1,0.4,1,0.9c0,0.7-0.7,1-1.3,1h-0.4v0.6h0.4c0.8,0,1.5,0.4,1.5,1.2C12.2,36.9,11.8,37.5,10.8,37.5z"/>
	<path fill="#CFD0D1" d="M35.1,42.7h-30V11.9h30V15H40V5c0-2.3-1.9-4.1-4.1-4.1H4.6C2.4,0.9,0.5,2.7,0.5,5v38c0,2.3,1.9,4.1,4.1,4.1
		h31.3c2.3,0,4.1-1.9,4.1-4.1v-2.3h-4.9V42.7z M16.6,5.4h2.6c0.5,0,1,0.4,1,1c0,0.5-0.4,1-1,1h-2.6c-0.5,0-1-0.4-1-1
		C15.7,5.9,16.1,5.4,16.6,5.4z M11.1,5.4h2.6c0.5,0,1,0.4,1,1c0,0.5-0.4,1-1,1h-2.6c-0.5,0-1-0.4-1-1C10.1,5.9,10.5,5.4,11.1,5.4z
		 M4.5,6.4c0-0.5,0.4-1,1-1h2.6c0.5,0,1,0.4,1,1c0,0.5-0.4,1-1,1H5.5C5,7.4,4.5,7,4.5,6.4z"/>
</g>
</svg>
