<?xml version="1.0" encoding="utf-8"?>
<!-- Generator: Adobe Illustrator 18.0.0, SVG Export Plug-In . SVG Version: 6.00 Build 0)  -->
<!DOCTYPE svg PUBLIC "-//W3C//DTD SVG 1.1//EN" "http://www.w3.org/Graphics/SVG/1.1/DTD/svg11.dtd">
<svg version="1.1" id="Layer_1" xmlns="http://www.w3.org/2000/svg" xmlns:xlink="http://www.w3.org/1999/xlink" x="0px" y="0px"
	 viewBox="0 0 48 48" enable-background="new 0 0 48 48" xml:space="preserve">
<g>
	<path fill="#E77528" d="M5.7,20.8c0-3.3,2.7-6.1,6.1-6.1h29.8L37.3,5c-0.9-2.1-3.3-3-5.4-2.1l-29,12.7c-1,0.4-1.8,1.2-2.2,2.3
		c-0.4,1-0.4,2.1,0.1,3.1l4.9,11.2V20.8z"/>
	<path fill="#4DA0D8" d="M43.4,16.7H11.8c-2.3,0-4.1,1.8-4.1,4.1v20.5c0,2.3,1.8,4.1,4.1,4.1h31.6c2.3,0,4.1-1.8,4.1-4.1V20.8
		C47.5,18.6,45.7,16.7,43.4,16.7z M23.3,22.1h5.4c0.5,0,1,0.4,1,1c0,0.5-0.4,1-1,1h-5.4c-0.5,0-1-0.4-1-1
		C22.3,22.5,22.7,22.1,23.3,22.1z M12.7,22.1h5.4c0.5,0,1,0.4,1,1c0,0.5-0.4,1-1,1h-5.4c-0.5,0-1-0.4-1-1
		C11.7,22.5,12.2,22.1,12.7,22.1z M11.5,29.7c0-0.5,0.4-1,1-1h25.1c0.5,0,1,0.4,1,1s-0.4,1-1,1H12.5C12,30.6,11.5,30.2,11.5,29.7z
		 M42.6,42h-5.4c-0.5,0-1-0.4-1-1c0-0.5,0.4-1,1-1h5.4c0.5,0,1,0.4,1,1C43.6,41.6,43.2,42,42.6,42z"/>
</g>
</svg>
