<?xml version="1.0" encoding="utf-8"?>
<!-- Generator: Adobe Illustrator 18.0.0, SVG Export Plug-In . SVG Version: 6.00 Build 0)  -->
<!DOCTYPE svg PUBLIC "-//W3C//DTD SVG 1.1//EN" "http://www.w3.org/Graphics/SVG/1.1/DTD/svg11.dtd">
<svg version="1.1" id="Layer_1" xmlns="http://www.w3.org/2000/svg" xmlns:xlink="http://www.w3.org/1999/xlink" x="0px" y="0px"
	 viewBox="0 0 48 48" enable-background="new 0 0 48 48" xml:space="preserve">
<g>
	<path fill="#4DA0D8" d="M8.5,29.7h7.7v-7.2H9.7C9,24.7,8.6,27.1,8.5,29.7z"/>
	<path fill="#4DA0D8" d="M9.7,39h6.6v-7.2H8.5C8.6,34.4,9,36.8,9.7,39z"/>
	<path fill="#4DA0D8" d="M10.4,20.5h5.9v-6.4C13.9,14.6,11.8,17,10.4,20.5z"/>
	<path fill="#4DA0D8" d="M6.5,31.8h-6c0.2,2.6,0.9,5.1,2.1,7.2h4.9C6.9,36.8,6.5,34.4,6.5,31.8z"/>
	<path fill="#4DA0D8" d="M27.1,39h4.9c1.2-2.2,2-4.6,2.1-7.2h-6C28,34.4,27.7,36.8,27.1,39z"/>
	<path fill="#4DA0D8" d="M7.5,22.5H2.6c-1.2,2.2-2,4.6-2.1,7.2h6C6.5,27.1,6.9,24.7,7.5,22.5z"/>
	<path fill="#4DA0D8" d="M26,31.8h-7.7V39h6.6C25.6,36.8,26,34.4,26,31.8z"/>
	<path fill="#4DA0D8" d="M16.2,47.5v-6.4h-5.9C11.8,44.5,13.9,46.9,16.2,47.5z"/>
	<path fill="#4DA0D8" d="M4,41.1c1.8,2.4,4.3,4.2,7.1,5.4c-1.2-1.4-2.2-3.2-3-5.4H4z"/>
	<path fill="#4DA0D8" d="M18.3,41.1v6.4c2.3-0.6,4.4-3,5.9-6.4H18.3z"/>
	<path fill="#4DA0D8" d="M23.4,46.4c2.8-1.1,5.3-3,7.1-5.4h-4.1C25.6,43.2,24.6,45,23.4,46.4z"/>
	<path fill="#4DA0D8" d="M24.9,22.5h-6.6v7.2H26C26,27.1,25.6,24.7,24.9,22.5z"/>
	<path fill="#4DA0D8" d="M18.3,14.1v6.4h5.9C22.7,17,20.7,14.6,18.3,14.1z"/>
	<path fill="#4DA0D8" d="M11.1,15.1c-2.8,1.1-5.3,3-7.1,5.4h4.1C8.9,18.4,9.9,16.5,11.1,15.1z"/>
	<path fill="#4DA0D8" d="M23.9,15.3c-0.2-0.1-0.4-0.2-0.5-0.2c0.2,0.2,0.4,0.5,0.6,0.8C24,15.7,24,15.5,23.9,15.3z"/>
	<path fill="#4DA0D8" d="M29.2,28.9L28.9,29l-0.4,0c-0.1,0-0.3,0-0.4-0.1c0,0.2,0,0.5,0,0.7h6c-0.1-0.8-0.2-1.7-0.3-2.5
		C31.7,28.1,30,28.7,29.2,28.9z"/>
	<path fill="#F04B36" d="M47,8.3c-0.9-2.8-2.8-5.1-5.4-6.5c-1.6-0.8-3.4-1.3-5.1-1.3c-4.1,0-7.8,2.2-9.7,5.9
		c-2.8,5.3,1.3,19.8,1.4,20.4c0,0.1,0.1,0.1,0.1,0.2c0,0,0.1,0,0.1,0c0,0,0.1,0,0.1,0c0.6-0.2,14.9-5,17.7-10.3
		C47.6,14.1,47.9,11.1,47,8.3z M42.1,13.8c-1,2-3.1,3.2-5.3,3.2c-1,0-1.9-0.2-2.8-0.7c-1.4-0.7-2.4-2-2.9-3.5
		c-0.5-1.5-0.3-3.1,0.4-4.6c1-2,3.1-3.2,5.3-3.2c1,0,1.9,0.2,2.8,0.7c1.4,0.7,2.4,2,2.9,3.5C43,10.8,42.8,12.4,42.1,13.8z"/>
</g>
</svg>
