<?xml version="1.0" encoding="utf-8"?>
<!-- Generator: Adobe Illustrator 18.0.0, SVG Export Plug-In . SVG Version: 6.00 Build 0)  -->
<!DOCTYPE svg PUBLIC "-//W3C//DTD SVG 1.1//EN" "http://www.w3.org/Graphics/SVG/1.1/DTD/svg11.dtd">
<svg version="1.1" id="Layer_1" xmlns="http://www.w3.org/2000/svg" xmlns:xlink="http://www.w3.org/1999/xlink" x="0px" y="0px"
	 viewBox="0 0 48 48" enable-background="new 0 0 48 48" xml:space="preserve">
<g>
	<path fill="#F04B36" d="M13.4,13.1h20.2c0.5,0,1-0.4,1-1s-0.4-1-1-1H13.4c-0.5,0-1,0.4-1,1S12.9,13.1,13.4,13.1z"/>
	<path fill="#F04B36" d="M13.4,18.8h20.2c0.5,0,1-0.4,1-1c0-0.5-0.4-1-1-1H13.4c-0.5,0-1,0.4-1,1C12.4,18.3,12.9,18.8,13.4,18.8z"/>
	<path fill="#F04B36" d="M13.4,24.5h20.2c0.5,0,1-0.4,1-1c0-0.5-0.4-1-1-1H13.4c-0.5,0-1,0.4-1,1C12.4,24,12.9,24.5,13.4,24.5z"/>
	<path fill="#06728D" d="M46.9,21.7L35.4,31.9l11.3,12.6c0.2-0.5,0.3-1,0.3-1.6V22.7C47,22.4,47,22,46.9,21.7z"/>
	<path fill="#4DA0D8" d="M13.2,33L1.4,46.2c0.8,0.8,1.9,1.3,3.2,1.3h37.8c1.2,0,2.4-0.5,3.2-1.3L33.8,33H13.2z"/>
	<path fill="#06728D" d="M0.1,21.9C0,22.1,0,22.4,0,22.7v20.3c0,0.6,0.1,1.1,0.3,1.6L11.5,32L0.1,21.9z"/>
	<path fill="#0DB89A" d="M13.1,30.9c0.1,0.1,0.1,0.1,0.1,0.2h20.2c0-0.1,0.1-0.1,0.2-0.2l4.5-4H8.7L13.1,30.9z"/>
	<path fill="#0DB89A" d="M6.5,25l1.4,1.2c0.3-0.2,0.5-0.5,0.5-0.8V6.7h30.3v19.4c0,0.1,0,0.3,0.1,0.4l1.8-1.6v0l5.5-4.9
		c-0.2-0.2-0.4-0.4-0.6-0.6l-4.9-4.2c0,0,0,0-0.1,0V5.7c0-0.5-0.4-1-1-1H28.8l-4.6-4c-0.4-0.3-0.9-0.3-1.3,0l-4.6,4c0,0,0,0,0,0H7.4
		c-0.5,0-1,0.4-1,1v9.4c-0.1,0-0.2,0-0.2,0l-4.8,4.1c0,0,0,0,0,0c-0.2,0.2-0.4,0.4-0.6,0.7L6.5,25L6.5,25z"/>
</g>
</svg>
