<?xml version="1.0" encoding="utf-8"?>
<!-- Generator: Adobe Illustrator 18.0.0, SVG Export Plug-In . SVG Version: 6.00 Build 0)  -->
<!DOCTYPE svg PUBLIC "-//W3C//DTD SVG 1.1//EN" "http://www.w3.org/Graphics/SVG/1.1/DTD/svg11.dtd">
<svg version="1.1" id="Layer_1" xmlns="http://www.w3.org/2000/svg" xmlns:xlink="http://www.w3.org/1999/xlink" x="0px" y="0px"
	 viewBox="0 0 48 48" enable-background="new 0 0 48 48" xml:space="preserve">
<g>
	<path fill="#F04B36" d="M38.2,29.7c-5.1,0-9.3,4-9.3,8.9c0,4.9,4.2,8.9,9.3,8.9c5.1,0,9.3-4,9.3-8.9C47.5,33.7,43.3,29.7,38.2,29.7
		z M37.7,44.3c-0.6,0-1-0.4-1-1c0-0.6,0.4-1,1-1c0.6,0,1,0.4,1,1C38.7,43.8,38.3,44.3,37.7,44.3z M39.3,38.2c-0.7,0.8-1,1.6-0.9,2.4
		l0,0.4h-1.3l0-0.4c-0.1-0.9,0.2-1.8,1-2.8c0.7-0.9,1.2-1.5,1.2-2.2c0-0.8-0.5-1.4-1.6-1.4c-0.6,0-1.3,0.2-1.7,0.5l-0.4-1
		c0.5-0.4,1.5-0.6,2.4-0.6c1.9,0,2.7,1.1,2.7,2.4C40.7,36.5,40.1,37.3,39.3,38.2z"/>
	<path fill="#4DA0D8" d="M33.6,11.8L13.3,6.3c-0.5-0.1-1.1,0.2-1.2,0.7C12,7.5,12.3,8,12.8,8.2L33,13.7c0.1,0,0.2,0,0.3,0
		c0.4,0,0.8-0.3,1-0.7C34.4,12.5,34.1,11.9,33.6,11.8z"/>
	<path fill="#4DA0D8" d="M31.8,16.6l-20.2-5.5c-0.5-0.1-1.1,0.2-1.2,0.7c-0.1,0.5,0.2,1.1,0.7,1.2l20.2,5.5c0.1,0,0.2,0,0.3,0
		c0.4,0,0.8-0.3,1-0.7C32.7,17.3,32.4,16.8,31.8,16.6z"/>
	<path fill="#4DA0D8" d="M10.7,2.7L37.5,10l-3,9.8l2.1,0l3.1-10.3c0.1-0.3,0-0.5-0.1-0.8c-0.1-0.2-0.3-0.4-0.6-0.5L10.3,0.5
		C9.8,0.4,9.2,0.7,9.1,1.2L4.4,16.6c0,0,0,0,0,0h2.1L10.7,2.7z"/>
	<path fill="#CFD0D1" d="M40.8,19.9h-4.1l-2.1,0c0,0,0,0,0,0H20.8l-4.6-3.1c0,0-0.1,0-0.1,0H6.4H4.4H0.7c-0.1,0-0.2,0.1-0.2,0.2
		v23.9c0,0.1,0.1,0.2,0.2,0.2h26.4c-0.2-0.8-0.3-1.6-0.3-2.5c0-6,5.1-10.8,11.3-10.8c1,0,1.9,0.1,2.9,0.4v-8
		C41,20,40.9,19.9,40.8,19.9z"/>
</g>
</svg>
