<?xml version="1.0" encoding="utf-8"?>
<!-- Generator: Adobe Illustrator 18.0.0, SVG Export Plug-In . SVG Version: 6.00 Build 0)  -->
<!DOCTYPE svg PUBLIC "-//W3C//DTD SVG 1.1//EN" "http://www.w3.org/Graphics/SVG/1.1/DTD/svg11.dtd">
<svg version="1.1" id="Layer_1" xmlns="http://www.w3.org/2000/svg" xmlns:xlink="http://www.w3.org/1999/xlink" x="0px" y="0px"
	 viewBox="0 0 48 48" enable-background="new 0 0 48 48" xml:space="preserve">
<g>
	<path fill="#0DB89A" d="M40.9,15.3h6.6v-3.1c0-2.3-1.9-4.1-4.2-4.1h-2.4V15.3z"/>
	<path fill="#0DB89A" d="M7.1,40.3H0.5v3.1c0,2.3,1.9,4.1,4.2,4.1h2.4V40.3z"/>
	<path fill="#0DB89A" d="M40.9,40.3v7.2h2.4c2.3,0,4.2-1.9,4.2-4.1v-3.1H40.9z"/>
	<path fill="#0DB89A" d="M7.1,15.3V8.1H4.7c-2.3,0-4.2,1.9-4.2,4.1v3.1H7.1z"/>
	<path fill="#F7A93B" d="M39.9,17.3c-0.6,0-1-0.4-1-1V8.1h-4.6h-3H16.8h-3H9.2v8.2c0,0.6-0.5,1-1,1H0.5v20.9h7.6c0.6,0,1,0.5,1,1
		v8.2h29.7v-8.2c0-0.6,0.5-1,1-1h7.6V17.3H39.9z"/>
	<path fill="#06728D" d="M16.8,5.2c0-0.8,1.3-1.7,3-1.7h8.3c1.7,0,3,0.9,3,1.7v2.9h3V5.2c0-2.6-2.7-4.7-6-4.7h-8.3
		c-3.3,0-6,2.1-6,4.7v2.9h3V5.2z"/>
</g>
</svg>
