<?xml version="1.0" encoding="utf-8"?>
<!-- Generator: Adobe Illustrator 18.0.0, SVG Export Plug-In . SVG Version: 6.00 Build 0)  -->
<!DOCTYPE svg PUBLIC "-//W3C//DTD SVG 1.1//EN" "http://www.w3.org/Graphics/SVG/1.1/DTD/svg11.dtd">
<svg version="1.1" id="Layer_1" xmlns="http://www.w3.org/2000/svg" xmlns:xlink="http://www.w3.org/1999/xlink" x="0px" y="0px"
	 viewBox="0 0 48 48" enable-background="new 0 0 48 48" xml:space="preserve">
<g>
	<polygon fill="#4DA0D8" points="29.7,33.2 29.7,44.4 39.8,33.2 	"/>
	<path fill="#06728D" d="M41.5,47.5c0.1,0,0.3-0.1,0.3-0.3V34.3L30,47.5H41.5z"/>
	<polygon fill="none" points="16.5,2.5 13.9,6 34.6,6.1 31.5,2.5 	"/>
	<path fill="none" d="M31.6,25.8H17.4c-0.6,0-1,0.5-1,1c0,0.6,0.4,1,1,1h14.3c0.6,0,1-0.4,1-1C32.6,26.2,32.2,25.8,31.6,25.8z"/>
	<polygon fill="none" points="13.8,6.1 34.7,6.1 34.6,6.1 13.9,6 	"/>
	<path fill="none" d="M31.6,19.4H17.4c-0.6,0-1,0.5-1,1s0.4,1,1,1h14.3c0.6,0,1-0.4,1-1S32.2,19.4,31.6,19.4z"/>
	<path fill="none" d="M31.6,13.1H17.4c-0.6,0-1,0.4-1,1c0,0.6,0.4,1,1,1h14.3c0.6,0,1-0.5,1-1C32.6,13.5,32.2,13.1,31.6,13.1z"/>
	<path fill="#06728D" d="M16.5,2.5h15l3.1,3.5l2.7,0l-4.6-5.2c-0.2-0.2-0.5-0.3-0.8-0.3h-16c-0.3,0-0.6,0.1-0.8,0.4L11.4,6l2.5,0
		L16.5,2.5z"/>
	<path fill="#E77528" d="M41.5,6.1h-4.2l-2.7,0l0,0H13.8L13.9,6l-2.5,0c0,0,0,0.1,0,0.1H6.5c-0.1,0-0.3,0.1-0.3,0.3v40.9
		c0,0.1,0.1,0.3,0.3,0.3h21c0,0,0-0.1,0-0.1V32.1c0-0.6,0.5-1.1,1.1-1.1h13.2V6.3C41.8,6.2,41.7,6.1,41.5,6.1z M31.6,27.8H17.4
		c-0.6,0-1-0.4-1-1c0-0.6,0.4-1,1-1h14.3c0.6,0,1,0.5,1,1C32.6,27.3,32.2,27.8,31.6,27.8z M31.6,21.4H17.4c-0.6,0-1-0.4-1-1
		s0.4-1,1-1h14.3c0.6,0,1,0.5,1,1S32.2,21.4,31.6,21.4z M31.6,15.1H17.4c-0.6,0-1-0.5-1-1c0-0.6,0.4-1,1-1h14.3c0.6,0,1,0.4,1,1
		C32.6,14.6,32.2,15.1,31.6,15.1z"/>
</g>
</svg>
