<?xml version="1.0" encoding="utf-8"?>
<!-- Generator: Adobe Illustrator 18.0.0, SVG Export Plug-In . SVG Version: 6.00 Build 0)  -->
<!DOCTYPE svg PUBLIC "-//W3C//DTD SVG 1.1//EN" "http://www.w3.org/Graphics/SVG/1.1/DTD/svg11.dtd">
<svg version="1.1" id="Layer_1" xmlns="http://www.w3.org/2000/svg" xmlns:xlink="http://www.w3.org/1999/xlink" x="0px" y="0px"
	 viewBox="0 0 48 48" enable-background="new 0 0 48 48" xml:space="preserve">
<g>
	<path fill="#E8B944" d="M25.7,35.1c-0.2,0.2-0.5,0.4-0.8,0.4H7.3c-0.6,0-1-0.4-1-1c0-0.6,0.4-1,1-1h17.6c0.2,0,0.4,0.1,0.5,0.2
		c-0.3-2-0.4-3.7-0.5-4.7c0,0,0,0,0,0H7.3c-0.6,0-1-0.4-1-1c0-0.6,0.4-1,1-1h17.6c0.1,0,0.2,0,0.3,0.1c0.1-0.2,0.3-0.3,0.4-0.5
		c0.4-0.3,0.9-0.5,1.5-0.5h0.2l0.3,0.1c0.4,0.1,0.8,0.2,1.3,0.2c1.3,0,2.4-0.5,3.3-1.2V0.7c0-0.1-0.1-0.2-0.3-0.2H0.3
		C0.1,0.5,0,0.6,0,0.7v41.4c0,0.1,0.1,0.2,0.3,0.2h27.6c-0.1-0.2-0.2-0.4-0.4-0.6C26.7,40.2,26.1,37.6,25.7,35.1z M7.3,7.4h17.6
		c0.6,0,1,0.4,1,1c0,0.6-0.4,1-1,1H7.3c-0.6,0-1-0.4-1-1C6.3,7.8,6.7,7.4,7.3,7.4z M7.3,13.9h17.6c0.6,0,1,0.4,1,1s-0.4,1-1,1H7.3
		c-0.6,0-1-0.4-1-1S6.7,13.9,7.3,13.9z M7.3,20.4h17.6c0.6,0,1,0.4,1,1c0,0.6-0.4,1-1,1H7.3c-0.6,0-1-0.4-1-1
		C6.3,20.9,6.7,20.4,7.3,20.4z"/>
	<path fill="#F04B36" d="M46.9,28.1C46.9,28,46.8,28,46.7,28c-0.6,0.1-1.2,0.2-1.7,0.2c-4.9,0-7.8-5.4-7.8-5.4
		c0-0.1-0.1-0.1-0.2-0.1s-0.2,0.1-0.2,0.1c0,0.1-2.9,5.4-7.8,5.4h0c-0.6,0-1.1-0.1-1.7-0.2c-0.1,0-0.2,0-0.2,0.1
		c-0.1,0.1-0.1,0.1-0.1,0.2c0,0.4,0.7,9.5,2.4,12.5c1.8,3.3,4,4.3,5.6,5c1,0.5,1.7,0.8,1.9,1.5c0,0.1,0.1,0.2,0.2,0.2
		c0.1,0,0.2-0.1,0.2-0.2c0.2-0.8,0.8-1.1,1.9-1.5c1.6-0.7,3.7-1.7,5.6-5c1.6-3,2.3-12.1,2.4-12.5C47,28.2,47,28.1,46.9,28.1z
		 M40.1,39.2h-6.5c-0.6,0-1-0.4-1-1s0.4-1,1-1h6.5c0.6,0,1,0.4,1,1S40.6,39.2,40.1,39.2z M41.2,34.5h-8.8c-0.6,0-1-0.4-1-1
		c0-0.6,0.4-1,1-1h8.8c0.6,0,1,0.4,1,1C42.2,34.1,41.8,34.5,41.2,34.5z"/>
</g>
</svg>
