<?xml version="1.0" encoding="utf-8"?>
<!-- Generator: Adobe Illustrator 18.0.0, SVG Export Plug-In . SVG Version: 6.00 Build 0)  -->
<!DOCTYPE svg PUBLIC "-//W3C//DTD SVG 1.1//EN" "http://www.w3.org/Graphics/SVG/1.1/DTD/svg11.dtd">
<svg version="1.1" id="Layer_1" xmlns="http://www.w3.org/2000/svg" xmlns:xlink="http://www.w3.org/1999/xlink" x="0px" y="0px"
	 viewBox="0 0 48 48" enable-background="new 0 0 48 48" xml:space="preserve">
<g>
	<path fill="#E77528" d="M20,29.3H6.7c-0.6,0-1-0.5-1-1c0-0.6,0.4-1,1-1h12c-1-1.2-1.8-2.6-2.5-4H6.7c-0.6,0-1-0.5-1-1
		c0-0.6,0.4-1,1-1h8.7c-0.5-1.6-0.8-3.4-0.8-5.2c0-0.1,0-0.2,0-0.4H0.8c-0.1,0-0.3,0.1-0.3,0.3v31.3c0,0.1,0.1,0.3,0.3,0.3h24.5
		c0.1,0,0.3-0.1,0.3-0.3V32.3c-1.9-0.8-3.5-1.9-5-3.2C20.3,29.2,20.1,29.3,20,29.3z M20,41.3H6.7c-0.6,0-1-0.5-1-1c0-0.6,0.4-1,1-1
		H20c0.6,0,1,0.5,1,1C21,40.9,20.5,41.3,20,41.3z M21,34.3c0,0.6-0.4,1-1,1H6.7c-0.6,0-1-0.5-1-1c0-0.6,0.4-1,1-1H20
		C20.5,33.3,21,33.7,21,34.3z"/>
	<path fill="#0DB89A" d="M33.1,0.5V15h14.4C47,7.2,40.8,1,33.1,0.5z"/>
	<path fill="#F7A93B" d="M16.6,16c0,8.3,6.4,15,14.5,15.5V0.5C23,1,16.6,7.8,16.6,16z"/>
	<path fill="#4DA0D8" d="M33.1,31.6C40.8,31.1,47,24.8,47.5,17H33.1V31.6z"/>
</g>
</svg>
