<?xml version="1.0" encoding="utf-8"?>
<!-- Generator: Adobe Illustrator 18.0.0, SVG Export Plug-In . SVG Version: 6.00 Build 0)  -->
<!DOCTYPE svg PUBLIC "-//W3C//DTD SVG 1.1//EN" "http://www.w3.org/Graphics/SVG/1.1/DTD/svg11.dtd">
<svg version="1.1" id="Layer_1" xmlns="http://www.w3.org/2000/svg" xmlns:xlink="http://www.w3.org/1999/xlink" x="0px" y="0px"
	 viewBox="0 0 48 48" enable-background="new 0 0 48 48" xml:space="preserve">
<g>
	<path fill="#0DB89A" d="M47.4,29.6c-0.1-0.1-0.1-0.1-0.2-0.1c-0.5,0.1-1.1,0.2-1.6,0.2c-4.5,0-7.1-4.9-7.2-5c0-0.1-0.1-0.1-0.2-0.1
		c-0.1,0-0.2,0.1-0.2,0.1c0,0-2.7,5-7.2,5c-0.5,0-1-0.1-1.6-0.2c-0.1,0-0.2,0-0.2,0.1C29,29.7,29,29.8,29,29.8
		c0,0.4,0.7,8.7,2.2,11.5c1.7,3,3.7,3.9,5.1,4.6c0.9,0.4,1.6,0.7,1.7,1.4c0,0.1,0.1,0.2,0.2,0.2c0.1,0,0.2-0.1,0.2-0.2
		c0.1-0.7,0.8-1,1.7-1.4c1.5-0.7,3.5-1.6,5.1-4.6c1.5-2.7,2.2-11.1,2.2-11.5C47.5,29.8,47.5,29.7,47.4,29.6z M41.1,39.9h-6
		c-0.6,0-1-0.4-1-1c0-0.6,0.4-1,1-1h6c0.6,0,1,0.4,1,1C42.1,39.4,41.7,39.9,41.1,39.9z M42.2,35.6h-8.1c-0.6,0-1-0.4-1-1
		c0-0.6,0.4-1,1-1h8.1c0.6,0,1,0.4,1,1C43.2,35.2,42.7,35.6,42.2,35.6z"/>
	<path fill="#F7A93B" d="M27.8,28.1c0.4-0.3,0.9-0.5,1.5-0.5h0.2l0.3,0.1c0.4,0.1,0.8,0.1,1.1,0.1c3.2,0,5.4-3.9,5.4-3.9
		c0.4-0.7,1.1-1.2,2-1.2c0.8,0,1.6,0.5,2,1.2c0,0,0.4,0.7,1.1,1.5c0.3-1.4,0.5-2.8,0.5-4.2c0-11.4-9.3-20.6-20.6-20.6
		C9.8,0.5,0.5,9.8,0.5,21.1c0,11.4,9.3,20.6,20.6,20.6c2.6,0,5.1-0.5,7.5-1.4c-1.1-3.6-1.6-9.1-1.7-10.4
		C26.9,29.3,27.2,28.6,27.8,28.1z M22.2,31.9v3.7h-2.2V32c-2,0-4.2-0.7-5.4-1.6l0.8-2.4c1.3,0.8,3.1,1.5,5.1,1.5
		c2.5,0,4.2-1.4,4.2-3.5c0-1.9-1.4-3.1-4-4.2c-3.6-1.4-5.8-3-5.8-6.1c0-2.9,2.1-5.1,5.3-5.7V6.7h2.2v3.4c2.1,0.1,3.6,0.6,4.6,1.2
		l-0.9,2.3c-0.7-0.4-2.2-1.2-4.4-1.2c-2.7,0-3.7,1.6-3.7,3c0,1.8,1.3,2.7,4.4,4c3.6,1.5,5.5,3.3,5.5,6.4
		C27.7,28.7,25.8,31.3,22.2,31.9z"/>
</g>
</svg>
