<?xml version="1.0" encoding="utf-8"?>
<!-- Generator: Adobe Illustrator 18.0.0, SVG Export Plug-In . SVG Version: 6.00 Build 0)  -->
<!DOCTYPE svg PUBLIC "-//W3C//DTD SVG 1.1//EN" "http://www.w3.org/Graphics/SVG/1.1/DTD/svg11.dtd">
<svg version="1.1" id="Layer_1" xmlns="http://www.w3.org/2000/svg" xmlns:xlink="http://www.w3.org/1999/xlink" x="0px" y="0px"
	 viewBox="0 0 48 48" enable-background="new 0 0 48 48" xml:space="preserve">
<g>
	<path fill="#F04B36" d="M37.2,18.7c-1,0-1.9,0.4-2.6,1.1c-0.7,0.7-1.1,1.6-1.1,2.6c0,1,0.4,1.9,1.1,2.6c1.4,1.4,3.9,1.4,5.3,0
		c0.7-0.7,1.1-1.7,1.1-2.7c0-1-0.4-1.9-1.1-2.6C39.1,19.1,38.2,18.7,37.2,18.7z"/>
	<path fill="#4DA0D8" d="M0.5,16.3v15.5c0,2.7,2.2,4.9,4.9,4.9h23.3V11.4H5.4C2.7,11.4,0.5,13.6,0.5,16.3z"/>
	<path fill="#F04B36" d="M42.6,11.4H30.7v25.2h11.9c2.7,0,4.9-2.2,4.9-4.9V16.3C47.5,13.6,45.3,11.4,42.6,11.4z M45.7,31
		c-0.2,0.2-0.5,0.3-0.7,0.3c-0.3,0-0.5-0.1-0.7-0.3l-3.8-3.8c-1,0.7-2.1,1-3.3,1c-1.5,0-3-0.6-4-1.7c-1.1-1.1-1.7-2.5-1.7-4.1
		c0-1.5,0.6-3,1.7-4c1.1-1.1,2.5-1.7,4-1.7c1.5,0,3,0.6,4,1.7c1.1,1.1,1.6,2.4,1.7,3.9c0,1.2-0.3,2.4-1,3.4l3.8,3.8
		C46.1,30,46.1,30.6,45.7,31z"/>
</g>
</svg>
