<?xml version="1.0" encoding="utf-8"?>
<!-- Generator: Adobe Illustrator 18.0.0, SVG Export Plug-In . SVG Version: 6.00 Build 0)  -->
<!DOCTYPE svg PUBLIC "-//W3C//DTD SVG 1.1//EN" "http://www.w3.org/Graphics/SVG/1.1/DTD/svg11.dtd">
<svg version="1.1" id="Layer_1" xmlns="http://www.w3.org/2000/svg" xmlns:xlink="http://www.w3.org/1999/xlink" x="0px" y="0px"
	 viewBox="0 0 48 48" enable-background="new 0 0 48 48" xml:space="preserve">
<g>
	<path fill="#F04B36" d="M45.3,0.5H2.8c-1.2,0-2.3,1-2.3,2.2v42.5c0,1.2,1,2.3,2.3,2.3h42.5c1.2,0,2.3-1,2.3-2.3V2.7
		C47.5,1.5,46.5,0.5,45.3,0.5z M18.5,38.6H8.2c-0.8,0-1.5-0.7-1.5-1.5c0-0.8,0.7-1.5,1.5-1.5h10.2c0.8,0,1.5,0.7,1.5,1.5
		C20,37.9,19.3,38.6,18.5,38.6z M18.5,33.7H8.2c-0.8,0-1.5-0.7-1.5-1.5c0-0.8,0.7-1.5,1.5-1.5h10.2c0.8,0,1.5,0.7,1.5,1.5
		C20,33.1,19.3,33.7,18.5,33.7z M18.5,16.3H8.2c-0.8,0-1.5-0.7-1.5-1.5c0-0.8,0.7-1.5,1.5-1.5h10.2c0.8,0,1.5,0.7,1.5,1.5
		C20,15.7,19.3,16.3,18.5,16.3z M39.3,37.2c0.6,0.6,0.6,1.5,0,2.1c-0.3,0.3-0.7,0.4-1.1,0.4c-0.4,0-0.8-0.1-1.1-0.4l-2.6-2.6
		l-2.6,2.6c-0.3,0.3-0.7,0.4-1.1,0.4c-0.4,0-0.8-0.1-1.1-0.4c-0.6-0.6-0.6-1.5,0-2.1l2.6-2.6L30,32.1c-0.6-0.6-0.6-1.5,0-2.1
		c0.6-0.6,1.5-0.6,2.1,0l2.6,2.6l2.6-2.6c0.6-0.6,1.5-0.6,2.1,0c0.6,0.6,0.6,1.5,0,2.1l-2.6,2.6L39.3,37.2z M39.8,16.3h-3.6V20
		c0,0.8-0.7,1.5-1.5,1.5c-0.8,0-1.5-0.7-1.5-1.5v-3.6h-3.6c-0.8,0-1.5-0.7-1.5-1.5c0-0.8,0.7-1.5,1.5-1.5h3.6V9.7
		c0-0.8,0.7-1.5,1.5-1.5c0.8,0,1.5,0.7,1.5,1.5v3.6h3.6c0.8,0,1.5,0.7,1.5,1.5C41.3,15.7,40.6,16.3,39.8,16.3z"/>
</g>
</svg>
