<?xml version="1.0" encoding="utf-8"?>
<!-- Generator: Adobe Illustrator 18.0.0, SVG Export Plug-In . SVG Version: 6.00 Build 0)  -->
<!DOCTYPE svg PUBLIC "-//W3C//DTD SVG 1.1//EN" "http://www.w3.org/Graphics/SVG/1.1/DTD/svg11.dtd">
<svg version="1.1" id="Layer_1" xmlns="http://www.w3.org/2000/svg" xmlns:xlink="http://www.w3.org/1999/xlink" x="0px" y="0px"
	 viewBox="0 0 48 48" enable-background="new 0 0 48 48" xml:space="preserve">
<g>
	<path fill="#294E58" d="M47.5,10.7l-1.6-9c-0.1-0.5-0.4-0.9-0.8-1.1c-0.4-0.2-0.9-0.1-1.3,0.1l-7.8,5c-0.7,0.4-0.8,1.3-0.4,2
		c0.4,0.7,1.3,0.8,2,0.4l3.7-2.4l-10.4,24l-16-14.3c-0.3-0.3-0.8-0.4-1.3-0.3c-0.5,0.1-0.8,0.4-1,0.9L0.6,45.5
		c-0.3,0.7,0.1,1.6,0.8,1.9c0.2,0.1,0.4,0.1,0.5,0.1c0.6,0,1.1-0.3,1.3-0.9l11.1-27.7l15.9,14.3c0.3,0.3,0.8,0.4,1.3,0.3
		c0.4-0.1,0.8-0.4,1-0.8L43.9,6.6l0.8,4.6c0.1,0.7,0.7,1.2,1.4,1.2c0.1,0,0.2,0,0.3,0C47.1,12.2,47.6,11.5,47.5,10.7z"/>
</g>
</svg>
