<?xml version="1.0" encoding="utf-8"?>
<!-- Generator: Adobe Illustrator 18.0.0, SVG Export Plug-In . SVG Version: 6.00 Build 0)  -->
<!DOCTYPE svg PUBLIC "-//W3C//DTD SVG 1.1//EN" "http://www.w3.org/Graphics/SVG/1.1/DTD/svg11.dtd">
<svg version="1.1" id="Layer_1" xmlns="http://www.w3.org/2000/svg" xmlns:xlink="http://www.w3.org/1999/xlink" x="0px" y="0px"
	 viewBox="0 0 48 48" enable-background="new 0 0 48 48" xml:space="preserve">
<g>
	<path fill="#F04B36" d="M47.3,43.7l-5-7.8c-0.4-0.7-1.3-0.9-2-0.4c-0.7,0.4-0.8,1.3-0.4,2l2.4,3.7l-24-10.4l14.3-16
		c0.3-0.3,0.4-0.8,0.3-1.3c-0.1-0.5-0.4-0.8-0.9-1L2.5,0.6C1.7,0.3,0.9,0.7,0.6,1.4C0.3,2.1,0.7,3,1.4,3.2l27.7,11.1L14.8,30.3
		c-0.3,0.3-0.4,0.8-0.3,1.3c0.1,0.4,0.4,0.8,0.8,1l26.1,11.3l-4.6,0.8c-0.8,0.1-1.3,0.9-1.2,1.7c0.1,0.7,0.7,1.2,1.4,1.2
		c0.1,0,0.2,0,0.3,0l9-1.6c0.5-0.1,0.9-0.4,1.1-0.8C47.6,44.6,47.5,44.1,47.3,43.7z"/>
</g>
</svg>
