<?xml version="1.0" encoding="utf-8"?>
<!-- Generator: Adobe Illustrator 18.0.0, SVG Export Plug-In . SVG Version: 6.00 Build 0)  -->
<!DOCTYPE svg PUBLIC "-//W3C//DTD SVG 1.1//EN" "http://www.w3.org/Graphics/SVG/1.1/DTD/svg11.dtd">
<svg version="1.1" id="Layer_1" xmlns="http://www.w3.org/2000/svg" xmlns:xlink="http://www.w3.org/1999/xlink" x="0px" y="0px"
	 viewBox="0 0 48 48" enable-background="new 0 0 48 48" xml:space="preserve">
<g>
	<rect x="0.5" y="0.5" fill="#294E58" width="1.9" height="47"/>
	<rect x="6" y="0.5" fill="#294E58" width="3.9" height="37.7"/>
	<rect x="13.4" y="0.5" fill="#294E58" width="1.9" height="37.7"/>
	<rect x="19.3" y="0.5" fill="#294E58" width="2.9" height="37.7"/>
	<rect x="26.3" y="0.5" fill="#294E58" width="1.9" height="37.7"/>
	<rect x="30.7" y="0.5" fill="#294E58" width="5.8" height="37.7"/>
	<rect x="39.1" y="0.5" fill="#294E58" width="1.9" height="37.7"/>
	<rect x="45.6" y="0.5" fill="#294E58" width="1.9" height="47"/>
	<path fill="#E77528" d="M7.3,39.6c-1.5,0-2.6,1.4-2.6,4c0,2.5,1,3.9,2.5,3.9c1.7,0,2.6-1.4,2.6-4C9.8,41,8.9,39.6,7.3,39.6z
		 M7.2,46.7c-0.9,0-1.5-1.1-1.5-3.1c0-2.1,0.7-3.2,1.5-3.2c1.1,0,1.5,1.2,1.5,3.1C8.8,45.5,8.3,46.7,7.2,46.7z"/>
	<polygon fill="#E77528" points="12.2,40.6 12.4,41.4 13.8,40.7 13.8,40.7 13.8,47.4 14.8,47.4 14.8,39.7 13.9,39.7 	"/>
	<path fill="#E77528" d="M19.8,46.5l0.6-0.6c1.6-1.6,2.6-2.7,2.6-4.1c0-1.1-0.7-2.2-2.3-2.2c-0.9,0-1.6,0.3-2.1,0.8l0.3,0.7
		c0.3-0.3,0.9-0.6,1.6-0.6c1.1,0,1.5,0.7,1.5,1.5c0,1.2-0.9,2.1-2.8,4l-0.8,0.8v0.6h4.8v-0.9L19.8,46.5L19.8,46.5z"/>
	<path fill="#E77528" d="M28.1,43.2L28.1,43.2c0.9-0.4,1.4-1,1.4-1.8c0-0.9-0.7-1.8-2.2-1.8c-0.8,0-1.6,0.3-2,0.6l0.3,0.8
		c0.3-0.2,0.9-0.5,1.5-0.5c0.9,0,1.3,0.5,1.3,1.2c0,0.9-0.9,1.3-1.7,1.3h-0.6v0.8h0.6c1,0,1.9,0.5,2,1.5c0,0.6-0.4,1.5-1.7,1.5
		c-0.7,0-1.4-0.3-1.7-0.5L25.1,47c0.4,0.2,1.1,0.5,2,0.5c1.8,0,2.8-1.1,2.8-2.3C29.8,44.1,29,43.4,28.1,43.2z"/>
	<path fill="#E77528" d="M36,39.7h-1.1l-3.4,4.9v0.7h3.5v2.1h1v-2.1h1.1v-0.8H36V39.7z M35.1,41.9v2.5h-2.5v0l1.8-2.6
		c0.2-0.4,0.4-0.7,0.6-1.1h0C35.1,41.1,35.1,41.5,35.1,41.9z"/>
	<path fill="#E77528" d="M42.3,42.9c-0.5-0.3-1-0.4-1.6-0.4c-0.3,0-0.4,0-0.6,0l0.3-2h2.9v-0.9h-3.6l-0.5,3.7c0.3,0,0.6-0.1,1-0.1
		c1.5,0,2.2,0.7,2.2,1.7c0,1-0.8,1.7-1.8,1.7c-0.7,0-1.3-0.2-1.6-0.4L38.6,47c0.4,0.2,1.1,0.5,1.9,0.5c1.6,0,2.8-1.1,2.8-2.6
		C43.3,43.9,42.8,43.3,42.3,42.9z"/>
</g>
</svg>
