<?xml version="1.0" encoding="utf-8"?>
<!-- Generator: Adobe Illustrator 18.0.0, SVG Export Plug-In . SVG Version: 6.00 Build 0)  -->
<!DOCTYPE svg PUBLIC "-//W3C//DTD SVG 1.1//EN" "http://www.w3.org/Graphics/SVG/1.1/DTD/svg11.dtd">
<svg version="1.1" id="Layer_1" xmlns="http://www.w3.org/2000/svg" xmlns:xlink="http://www.w3.org/1999/xlink" x="0px" y="0px"
	 viewBox="0 0 48 48" enable-background="new 0 0 48 48" xml:space="preserve">
<g>
	<path fill="#E77528" d="M43.2,4.8h-4.7c-2.3,0-4.2,1.9-4.2,4.3v29.1c0,2.3,1.9,4.3,4.2,4.3h4.7c2.3,0,4.3-1.9,4.3-4.3V9.1
		C47.5,6.8,45.6,4.8,43.2,4.8z M40.9,36.1c-0.7,0-1.2-0.5-1.2-1.2c0-0.7,0.5-1.2,1.2-1.2c0.7,0,1.2,0.5,1.2,1.2
		C42.1,35.6,41.5,36.1,40.9,36.1z M43.3,23.4h-4.8c-0.6,0-1-0.4-1-1c0-0.6,0.4-1,1-1h4.8c0.6,0,1,0.4,1,1
		C44.3,23,43.8,23.4,43.3,23.4z M43.3,18.4h-4.8c-0.6,0-1-0.4-1-1c0-0.6,0.4-1,1-1h4.8c0.6,0,1,0.4,1,1
		C44.3,17.9,43.8,18.4,43.3,18.4z M43.3,13.3h-4.8c-0.6,0-1-0.4-1-1c0-0.6,0.4-1,1-1h4.8c0.6,0,1,0.4,1,1
		C44.3,12.8,43.8,13.3,43.3,13.3z"/>
	<path fill="#06728D" d="M15.2,41.2h-4.4c-0.6,0-1,0.4-1,1c0,0.6,0.4,1,1,1h10.8c0.6,0,1-0.4,1-1c0-0.6-0.4-1-1-1h-4.4v-2.7h-2V41.2
		z"/>
	<path fill="#0DB89A" d="M26.8,15h-22c-2.3,0-4.3,1.9-4.3,4.3v14.9c0,2.3,1.9,4.2,4.3,4.2h10.5h2h9.5c2.3,0,4.3-1.9,4.3-4.2V19.3
		C31,16.9,29.1,15,26.8,15z"/>
</g>
</svg>
