<?xml version="1.0" encoding="utf-8"?>
<!-- Generator: Adobe Illustrator 18.0.0, SVG Export Plug-In . SVG Version: 6.00 Build 0)  -->
<!DOCTYPE svg PUBLIC "-//W3C//DTD SVG 1.1//EN" "http://www.w3.org/Graphics/SVG/1.1/DTD/svg11.dtd">
<svg version="1.1" id="Layer_1" xmlns="http://www.w3.org/2000/svg" xmlns:xlink="http://www.w3.org/1999/xlink" x="0px" y="0px"
	 viewBox="0 0 48 48" enable-background="new 0 0 48 48" xml:space="preserve">
<g>
	<path fill="#CFD0D1" d="M44.3,35.8V6c0-3-2.5-5.5-5.5-5.5H9.2C6.2,0.5,3.7,3,3.7,6v29.9H44.3z M12.7,6.5h22.4c0.5,0,1,0.4,1,1
		c0,0.5-0.4,1-1,1H12.7c-0.5,0-1-0.4-1-1C11.7,6.9,12.1,6.5,12.7,6.5z M12.7,13.7h22.4c0.5,0,1,0.4,1,1c0,0.5-0.4,1-1,1H12.7
		c-0.5,0-1-0.4-1-1C11.7,14.1,12.1,13.7,12.7,13.7z M12.7,20.9h22.4c0.5,0,1,0.4,1,1c0,0.5-0.4,1-1,1H12.7c-0.5,0-1-0.4-1-1
		C11.7,21.3,12.1,20.9,12.7,20.9z M12.7,28h22.4c0.5,0,1,0.4,1,1c0,0.5-0.4,1-1,1H12.7c-0.5,0-1-0.4-1-1C11.7,28.5,12.1,28,12.7,28z
		"/>
	<polygon fill="#F04B36" points="30.5,40.1 32.5,37.8 14.8,37.8 16.2,40.1 	"/>
	<path fill="#F7A93B" d="M34.9,37.8c0,0.1-0.1,0.2-0.2,0.3l-3,3.6c-0.2,0.2-0.5,0.4-0.8,0.4H15.6c-0.4,0-0.7-0.2-0.9-0.5L12.6,38
		c0-0.1,0-0.1-0.1-0.2H3.7V42c0,3,2.5,5.5,5.5,5.5h29.6c3,0,5.5-2.5,5.5-5.5v-4.2H34.9z"/>
</g>
</svg>
