<?xml version="1.0" encoding="utf-8"?>
<!-- Generator: Adobe Illustrator 18.0.0, SVG Export Plug-In . SVG Version: 6.00 Build 0)  -->
<!DOCTYPE svg PUBLIC "-//W3C//DTD SVG 1.1//EN" "http://www.w3.org/Graphics/SVG/1.1/DTD/svg11.dtd">
<svg version="1.1" id="Layer_1" xmlns="http://www.w3.org/2000/svg" xmlns:xlink="http://www.w3.org/1999/xlink" x="0px" y="0px"
	 viewBox="0 0 48 48" enable-background="new 0 0 48 48" xml:space="preserve">
<g>
	<path fill="#06728D" d="M43.9,10.6H25v4.2c0,0.5-0.4,1-1,1s-1-0.4-1-1v-4.2H4.1c-2,0-3.6,1.6-3.6,3.6v25.1c0,2,1.6,3.6,3.6,3.6
		h39.8c2,0,3.6-1.6,3.6-3.6V14.2C47.5,12.2,45.9,10.6,43.9,10.6z M14.4,16.3c2.3,0,4.2,1.9,4.2,4.2c0,2.3-1.9,4.2-4.2,4.2
		c-2.3,0-4.2-1.9-4.2-4.2C10.2,18.1,12.1,16.3,14.4,16.3z M23.8,37.1H5c-0.1,0-0.2-0.1-0.2-0.2c0-5.3,4.3-9.6,9.6-9.6
		c5.3,0,9.6,4.3,9.6,9.6C24,37,23.9,37.1,23.8,37.1z M40.3,31H28.1c-0.5,0-1-0.4-1-1c0-0.5,0.4-1,1-1h12.2c0.5,0,1,0.4,1,1
		C41.3,30.6,40.8,31,40.3,31z M40.3,23.4H28.1c-0.5,0-1-0.4-1-1c0-0.5,0.4-1,1-1h12.2c0.5,0,1,0.4,1,1C41.3,23,40.8,23.4,40.3,23.4z
		"/>
	<path fill="#F04B36" d="M25,6.1c0-0.5-0.4-1-1-1s-1,0.4-1,1v4.6H25V6.1z"/>
</g>
</svg>
