<?xml version="1.0" encoding="utf-8"?>
<!-- Generator: Adobe Illustrator 18.0.0, SVG Export Plug-In . SVG Version: 6.00 Build 0)  -->
<!DOCTYPE svg PUBLIC "-//W3C//DTD SVG 1.1//EN" "http://www.w3.org/Graphics/SVG/1.1/DTD/svg11.dtd">
<svg version="1.1" id="Layer_1" xmlns="http://www.w3.org/2000/svg" xmlns:xlink="http://www.w3.org/1999/xlink" x="0px" y="0px"
	 viewBox="0 0 48 48" enable-background="new 0 0 48 48" xml:space="preserve">
<g>
	<path fill="#F7A93B" d="M19.4,28.9L19.4,28.9c-0.2,0.8-0.4,1.6-0.7,2.4L17.4,35h3.9L20,31.3C19.8,30.4,19.6,29.6,19.4,28.9z"/>
	<polygon fill="none" points="18.4,27.4 14,40.5 15.7,40.5 17,36.4 21.7,36.4 23.1,40.5 24.9,40.5 20.4,27.4 	"/>
	<polygon fill="none" points="28.5,27.4 26.8,27.4 26.8,40.5 34,40.5 34,39.1 28.5,39.1 	"/>
	<path fill="none" d="M9.3,33c-1.8-0.7-2.6-1.3-2.6-2.5c0-0.9,0.7-2,2.5-2c1.2,0,2.1,0.4,2.5,0.6l0.5-1.4c-0.6-0.3-1.5-0.6-2.9-0.6
		c-2.5,0-4.2,1.5-4.2,3.6c0,1.9,1.3,3,3.4,3.7c1.8,0.7,2.5,1.4,2.5,2.6c0,1.3-1,2.2-2.7,2.2c-1.2,0-2.3-0.4-3-0.9l-0.4,1.4
		c0.7,0.5,2.1,0.8,3.3,0.8c3.1,0,4.6-1.8,4.6-3.8C12.6,35,11.5,33.9,9.3,33z"/>
	<polygon fill="none" points="37.6,34.3 42.7,34.3 42.7,32.9 37.6,32.9 37.6,28.8 43,28.8 43,27.4 35.9,27.4 35.9,40.5 43.3,40.5 
		43.3,39.1 37.6,39.1 	"/>
	<path fill="#F04B36" d="M24,4.1l14.3,14.4h4.2L25.1,0.9c-0.6-0.6-1.6-0.6-2.1,0L5.4,18.5h4.2L24,4.1z"/>
	<path fill="#F7A93B" d="M47.2,18.5h-4.7h-4.2H9.7H5.4H0.8c-0.1,0-0.3,0.1-0.3,0.3v28.5c0,0.1,0.1,0.3,0.3,0.3h46.5
		c0.1,0,0.3-0.1,0.3-0.3V18.8C47.5,18.6,47.4,18.5,47.2,18.5z M8.1,40.7c-1.3,0-2.6-0.4-3.3-0.8l0.4-1.4c0.8,0.5,1.9,0.9,3,0.9
		c1.7,0,2.7-0.9,2.7-2.2c0-1.2-0.7-1.9-2.5-2.6C6.3,33.7,5,32.6,5,30.7c0-2,1.7-3.6,4.2-3.6c1.3,0,2.3,0.3,2.9,0.6l-0.5,1.4
		c-0.4-0.2-1.3-0.6-2.5-0.6c-1.8,0-2.5,1.1-2.5,2c0,1.2,0.8,1.8,2.6,2.5c2.2,0.9,3.3,1.9,3.3,3.9C12.6,38.9,11.1,40.7,8.1,40.7z
		 M23.1,40.5l-1.4-4.1H17l-1.4,4.1H14l4.4-13.1h2l4.5,13.1H23.1z M34,40.5h-7.3V27.4h1.7v11.7H34V40.5z M43.3,40.5h-7.3V27.4h7v1.4
		h-5.4v4.1h5.1v1.4h-5.1v4.7h5.7V40.5z"/>
</g>
</svg>
