<?xml version="1.0" encoding="utf-8"?>
<!-- Generator: Adobe Illustrator 18.0.0, SVG Export Plug-In . SVG Version: 6.00 Build 0)  -->
<!DOCTYPE svg PUBLIC "-//W3C//DTD SVG 1.1//EN" "http://www.w3.org/Graphics/SVG/1.1/DTD/svg11.dtd">
<svg version="1.1" id="Layer_1" xmlns="http://www.w3.org/2000/svg" xmlns:xlink="http://www.w3.org/1999/xlink" x="0px" y="0px"
	 viewBox="0 0 48 48" enable-background="new 0 0 48 48" xml:space="preserve">
<g>
	<path fill="#E77528" d="M24,21.8c-5.6,0-10.1,4.5-10.1,10.1c0,5.6,4.5,10.1,10.1,10.1S34.1,37.5,34.1,32
		C34.1,26.4,29.6,21.8,24,21.8z M24,37.4c-3,0-5.5-2.5-5.5-5.5c0-3,2.5-5.5,5.5-5.5s5.5,2.5,5.5,5.5C29.5,35,27,37.4,24,37.4z"/>
	<path fill="#0DB89A" d="M24,28.5c-1.9,0-3.4,1.5-3.4,3.4s1.5,3.4,3.4,3.4c1.9,0,3.4-1.5,3.4-3.4S25.9,28.5,24,28.5z"/>
	<path fill="#294E58" d="M47.5,4.3c0-2.1-1.7-3.8-3.8-3.8H40v14c0,0.6-0.5,1-1,1H9c-0.6,0-1-0.5-1-1v-14H4.3c-2.1,0-3.8,1.7-3.8,3.8
		v39.3c0,2.1,1.7,3.8,3.8,3.8h39.3c2.1,0,3.8-1.7,3.8-3.8V4.3z M24,44.1c-6.7,0-12.2-5.5-12.2-12.2c0-6.7,5.5-12.2,12.2-12.2
		c6.7,0,12.2,5.5,12.2,12.2C36.2,38.7,30.7,44.1,24,44.1z"/>
	<rect x="10" y="0.5" fill="#F04B36" width="27.9" height="13"/>
</g>
</svg>
