<?xml version="1.0" encoding="utf-8"?>
<!-- Generator: Adobe Illustrator 18.0.0, SVG Export Plug-In . SVG Version: 6.00 Build 0)  -->
<!DOCTYPE svg PUBLIC "-//W3C//DTD SVG 1.1//EN" "http://www.w3.org/Graphics/SVG/1.1/DTD/svg11.dtd">
<svg version="1.1" id="Layer_1" xmlns="http://www.w3.org/2000/svg" xmlns:xlink="http://www.w3.org/1999/xlink" x="0px" y="0px"
	 viewBox="0 0 48 48" enable-background="new 0 0 48 48" xml:space="preserve">
<g>
	<path fill="#E77528" d="M43.8,0.5H19c-2,0-3.7,1.6-3.7,3.7v18.3c0,2,1.7,3.7,3.7,3.7h16.8l8.2,8.8c0,0.1,0.1,0.1,0.2,0.1
		c0,0,0.1,0,0.1,0c0.1,0,0.2-0.1,0.2-0.2v-8.7c1.8-0.2,3.2-1.8,3.2-3.6V4.2C47.5,2.1,45.8,0.5,43.8,0.5z M31.4,22.8
		c-5.3,0-9.6-4.3-9.6-9.6c0-5.3,4.3-9.6,9.6-9.6c5.3,0,9.6,4.3,9.6,9.6C41,18.5,36.7,22.8,31.4,22.8z"/>
	<path fill="#4DA0D8" d="M31.4,5.6c-4.2,0-7.6,3.4-7.6,7.6c0,4.2,3.4,7.6,7.6,7.6c4.2,0,7.6-3.4,7.6-7.6C39,9,35.6,5.6,31.4,5.6z
		 M31.8,17.8v1.6h-0.9v-1.5c-0.9,0-1.8-0.3-2.3-0.7l0.4-1c0.5,0.4,1.3,0.6,2.2,0.6c1.1,0,1.8-0.6,1.8-1.5c0-0.8-0.6-1.3-1.7-1.8
		c-1.5-0.6-2.5-1.3-2.5-2.6c0-1.2,0.9-2.2,2.3-2.4V7.1h0.9v1.4c0.9,0,1.5,0.3,1.9,0.5l-0.4,1c-0.3-0.2-0.9-0.5-1.9-0.5
		c-1.2,0-1.6,0.7-1.6,1.3c0,0.8,0.6,1.2,1.9,1.7c1.5,0.6,2.3,1.4,2.3,2.7C34.2,16.4,33.4,17.6,31.8,17.8z"/>
	<path fill="#06728D" d="M13.3,22.5V13H4.2c-2,0-3.7,1.6-3.7,3.7V35c0,1.8,1.4,3.4,3.2,3.6v8.7c0,0.1,0.1,0.2,0.2,0.2
		c0,0,0.1,0,0.1,0c0.1,0,0.1,0,0.2-0.1l8.2-8.8H29c2,0,3.7-1.6,3.7-3.7v-6.8H19C15.9,28.2,13.3,25.6,13.3,22.5z"/>
</g>
</svg>
