<?xml version="1.0" encoding="utf-8"?>
<!-- Generator: Adobe Illustrator 18.0.0, SVG Export Plug-In . SVG Version: 6.00 Build 0)  -->
<!DOCTYPE svg PUBLIC "-//W3C//DTD SVG 1.1//EN" "http://www.w3.org/Graphics/SVG/1.1/DTD/svg11.dtd">
<svg version="1.1" id="Layer_1" xmlns="http://www.w3.org/2000/svg" xmlns:xlink="http://www.w3.org/1999/xlink" x="0px" y="0px"
	 viewBox="0 0 48 48" enable-background="new 0 0 48 48" xml:space="preserve">
<g>
	<path fill="#0DB89A" d="M43.8,0.5H19c-2,0-3.7,1.6-3.7,3.7v18.3c0,2,1.7,3.7,3.7,3.7h16.8l8.2,8.8c0,0.1,0.1,0.1,0.2,0.1
		c0,0,0.1,0,0.1,0c0.1,0,0.2-0.1,0.2-0.2v-8.7c1.8-0.2,3.2-1.8,3.2-3.6V4.2C47.5,2.1,45.8,0.5,43.8,0.5z M41,19.8H22.2
		c-0.6,0-1-0.4-1-1s0.4-1,1-1H41c0.6,0,1,0.4,1,1S41.5,19.8,41,19.8z M41,14.2H22.2c-0.6,0-1-0.4-1-1c0-0.6,0.4-1,1-1H41
		c0.6,0,1,0.4,1,1C42,13.8,41.5,14.2,41,14.2z M41,8.7H22.2c-0.6,0-1-0.4-1-1c0-0.6,0.4-1,1-1H41c0.6,0,1,0.4,1,1
		C42,8.2,41.5,8.7,41,8.7z"/>
	<path fill="#F04B36" d="M13.3,22.5V13H4.2c-2,0-3.7,1.6-3.7,3.7V35c0,1.8,1.4,3.4,3.2,3.6v8.7c0,0.1,0.1,0.2,0.2,0.2
		c0,0,0.1,0,0.1,0c0.1,0,0.1,0,0.2-0.1l8.2-8.8H29c2,0,3.7-1.6,3.7-3.7v-6.8H19C15.9,28.2,13.3,25.6,13.3,22.5z"/>
</g>
</svg>
