<?xml version="1.0" encoding="utf-8"?>
<!-- Generator: Adobe Illustrator 18.0.0, SVG Export Plug-In . SVG Version: 6.00 Build 0)  -->
<!DOCTYPE svg PUBLIC "-//W3C//DTD SVG 1.1//EN" "http://www.w3.org/Graphics/SVG/1.1/DTD/svg11.dtd">
<svg version="1.1" id="Layer_1" xmlns="http://www.w3.org/2000/svg" xmlns:xlink="http://www.w3.org/1999/xlink" x="0px" y="0px"
	 viewBox="0 0 48 48" enable-background="new 0 0 48 48" xml:space="preserve">
<g>
	<path fill="#0DB89A" d="M46.5,7.7c-0.5,0-1,0.4-1,1v34.9c0,1.1-0.8,2-1.7,2c-0.5,0-0.9-0.2-1.2-0.5l-0.2-0.2
		c-0.2-0.3-0.4-0.8-0.4-1.2c0-0.1,0-0.3-0.1-0.4c0-0.1,0-0.1,0-0.2V1.5c0-0.5-0.4-1-1-1H1.5c-0.5,0-1,0.4-1,1v45.1c0,0.5,0.4,1,1,1
		h42.4c1.8,0,3.2-1.3,3.6-3.1c0.1-0.1,0.1-0.3,0.1-0.4V8.7C47.5,8.1,47.1,7.7,46.5,7.7z M32.4,10.5c-1.2-0.5-1.9-1.1-1.9-2.2
		c0-1.2,0.9-2.1,2.3-2.1c0.7,0,1.3,0.2,1.6,0.4l-0.3,0.8C33.9,7.3,33.4,7,32.8,7c-1,0-1.4,0.6-1.4,1.2c0,0.7,0.4,1.1,1.4,1.5
		c1.2,0.5,1.8,1.2,1.8,2.3c0,1.2-0.8,2.3-2.5,2.3c-0.7,0-1.5-0.2-1.8-0.5l0.2-0.8c0.4,0.3,1,0.5,1.7,0.5c1,0,1.5-0.5,1.5-1.3
		C33.8,11.4,33.4,10.9,32.4,10.5z M16.3,6.3h3.9v0.8h-3v2.5H20v0.8h-2.8v2.8h3.1v0.8h-4.1V6.3z M9.3,6.3h1l2.3,4
		c0.5,0.9,1,1.7,1.3,2.5l0,0c-0.1-1-0.1-2-0.1-3.2V6.3h0.9v7.8h-0.9l-2.3-4c-0.5-0.9-1-1.8-1.3-2.6l0,0c0.1,1,0.1,1.9,0.1,3.2v3.3
		H9.3V6.3z M23.1,41.1H7.5c-0.5,0-1-0.4-1-1s0.4-1,1-1h15.5c0.5,0,1,0.4,1,1S23.6,41.1,23.1,41.1z M23.1,35.1H7.5c-0.5,0-1-0.4-1-1
		c0-0.5,0.4-1,1-1h15.5c0.5,0,1,0.4,1,1C24,34.7,23.6,35.1,23.1,35.1z M23.1,29.1H7.5c-0.5,0-1-0.4-1-1s0.4-1,1-1h15.5
		c0.5,0,1,0.4,1,1S23.6,29.1,23.1,29.1z M23.1,23.1H7.5c-0.5,0-1-0.4-1-1c0-0.5,0.4-1,1-1h15.5c0.5,0,1,0.4,1,1
		C24,22.6,23.6,23.1,23.1,23.1z M25.9,10.1c-0.2-1-0.4-1.8-0.5-2.6h0c-0.1,0.8-0.3,1.5-0.6,2.6l-1,4.1h-1L21,6.3h1l0.9,4
		c0.2,1,0.4,2,0.5,2.7h0c0.1-0.8,0.3-1.7,0.6-2.7l1-4h1l0.9,4c0.2,0.9,0.4,1.9,0.5,2.7h0c0.2-0.9,0.4-1.7,0.6-2.7l1-4h1l-2,7.8h-1
		L25.9,10.1z M36.3,40.2c0,0.5-0.4,1-1,1h-7.1c-0.5,0-1-0.4-1-1V21.3c0-0.5,0.4-1,1-1h7.1c0.5,0,1,0.4,1,1V40.2z"/>
	<rect x="29.2" y="22.3" fill="#F04B36" width="5.1" height="16.9"/>
</g>
</svg>
