<?xml version="1.0" encoding="utf-8"?>
<!-- Generator: Adobe Illustrator 18.0.0, SVG Export Plug-In . SVG Version: 6.00 Build 0)  -->
<!DOCTYPE svg PUBLIC "-//W3C//DTD SVG 1.1//EN" "http://www.w3.org/Graphics/SVG/1.1/DTD/svg11.dtd">
<svg version="1.1" id="Layer_1" xmlns="http://www.w3.org/2000/svg" xmlns:xlink="http://www.w3.org/1999/xlink" x="0px" y="0px"
	 viewBox="0 0 48 48" enable-background="new 0 0 48 48" xml:space="preserve">
<g>
	<path fill="#06728D" d="M45.4,36.9H2.6c-0.1,0-0.2,0.1-0.2,0.2v10.1c0,0.1,0.1,0.2,0.2,0.2h42.9c0.1,0,0.2-0.1,0.2-0.2V37.1
		C45.7,37,45.6,36.9,45.4,36.9z"/>
	<path fill="#4DA0D8" d="M2.6,35.5h42.9c0.1,0,0.1,0,0.2-0.1c0-0.1,0.1-0.1,0-0.2l-7.5-19.4c0-0.1-0.1-0.1-0.2-0.1H10
		c-0.1,0-0.2,0.1-0.2,0.1L2.4,35.2c0,0.1,0,0.2,0,0.2C2.4,35.5,2.5,35.5,2.6,35.5z"/>
	<rect x="14.7" y="5" fill="#F04B36" width="6.2" height="4.5"/>
	<path fill="#0DB89A" d="M10,14.3H38c0.1,0,0.2-0.1,0.2-0.2V0.7c0-0.1-0.1-0.2-0.2-0.2H10c-0.1,0-0.2,0.1-0.2,0.2v13.3
		C9.8,14.2,9.9,14.3,10,14.3z M33.8,3.7h1c0.5,0,0.9,0.4,0.9,0.9c0,0.5-0.4,0.9-0.9,0.9h-1c-0.5,0-0.9-0.4-0.9-0.9
		C32.9,4.1,33.3,3.7,33.8,3.7z M33.8,6.5h1c0.5,0,0.9,0.4,0.9,0.9c0,0.5-0.4,0.9-0.9,0.9h-1c-0.5,0-0.9-0.4-0.9-0.9
		C32.9,6.9,33.3,6.5,33.8,6.5z M33.8,9.3h1c0.5,0,0.9,0.4,0.9,0.9c0,0.5-0.4,0.9-0.9,0.9h-1c-0.5,0-0.9-0.4-0.9-0.9
		C32.9,9.7,33.3,9.3,33.8,9.3z M29.5,3.7h1c0.5,0,0.9,0.4,0.9,0.9c0,0.5-0.4,0.9-0.9,0.9h-1c-0.5,0-0.9-0.4-0.9-0.9
		C28.5,4.1,29,3.7,29.5,3.7z M29.5,6.5h1c0.5,0,0.9,0.4,0.9,0.9c0,0.5-0.4,0.9-0.9,0.9h-1c-0.5,0-0.9-0.4-0.9-0.9
		C28.5,6.9,29,6.5,29.5,6.5z M29.5,9.3h1c0.5,0,0.9,0.4,0.9,0.9c0,0.5-0.4,0.9-0.9,0.9h-1c-0.5,0-0.9-0.4-0.9-0.9
		C28.5,9.7,29,9.3,29.5,9.3z M25.1,3.7h1c0.5,0,0.9,0.4,0.9,0.9c0,0.5-0.4,0.9-0.9,0.9h-1c-0.5,0-0.9-0.4-0.9-0.9
		C24.2,4.1,24.6,3.7,25.1,3.7z M25.1,6.5h1c0.5,0,0.9,0.4,0.9,0.9c0,0.5-0.4,0.9-0.9,0.9h-1c-0.5,0-0.9-0.4-0.9-0.9
		C24.2,6.9,24.6,6.5,25.1,6.5z M25.1,9.3h1c0.5,0,0.9,0.4,0.9,0.9c0,0.5-0.4,0.9-0.9,0.9h-1c-0.5,0-0.9-0.4-0.9-0.9
		C24.2,9.7,24.6,9.3,25.1,9.3z M12.9,4.1c0-0.5,0.4-0.9,0.9-0.9h8c0.5,0,0.9,0.4,0.9,0.9v6.3c0,0.5-0.4,0.9-0.9,0.9h-8
		c-0.5,0-0.9-0.4-0.9-0.9V4.1z"/>
</g>
</svg>
