<?xml version="1.0" encoding="utf-8"?>
<!-- Generator: Adobe Illustrator 18.0.0, SVG Export Plug-In . SVG Version: 6.00 Build 0)  -->
<!DOCTYPE svg PUBLIC "-//W3C//DTD SVG 1.1//EN" "http://www.w3.org/Graphics/SVG/1.1/DTD/svg11.dtd">
<svg version="1.1" id="Layer_1" xmlns="http://www.w3.org/2000/svg" xmlns:xlink="http://www.w3.org/1999/xlink" x="0px" y="0px"
	 viewBox="0 0 48 48" enable-background="new 0 0 48 48" xml:space="preserve">
<g>
	<path fill="#F04B36" d="M29.1,4.5c0-0.1,0-0.1,0-0.2c0-0.1-0.1-0.1-0.1-0.2l-7.9-3.6c-0.1,0-0.1,0-0.2,0l-7.9,3.6
		C13,4.2,13,4.2,13,4.3c0,0.1,0,0.1,0,0.2l4.6,7.1l-5.9,22.7c0,0.1,0,0.1,0,0.2l9.2,12.9c0,0.1,0.1,0.1,0.2,0.1c0.1,0,0.2,0,0.2-0.1
		l9.2-12.9c0-0.1,0.1-0.1,0-0.2l-5.9-22.7L29.1,4.5z"/>
	<path fill="#0DB89A" d="M36.3,21.1l-8.6-8.7c-0.1-0.1-0.2-0.1-0.3,0c-0.1,0.1-0.1,0.2-0.1,0.3l4.3,12.9c0,0.1,0.1,0.2,0.2,0.2h4.3
		c0.1,0,0.2-0.1,0.2-0.2v-4.2C36.3,21.2,36.3,21.2,36.3,21.1z"/>
</g>
</svg>
