<?xml version="1.0" encoding="utf-8"?>
<!-- Generator: Adobe Illustrator 18.0.0, SVG Export Plug-In . SVG Version: 6.00 Build 0)  -->
<!DOCTYPE svg PUBLIC "-//W3C//DTD SVG 1.1//EN" "http://www.w3.org/Graphics/SVG/1.1/DTD/svg11.dtd">
<svg version="1.1" id="Layer_1" xmlns="http://www.w3.org/2000/svg" xmlns:xlink="http://www.w3.org/1999/xlink" x="0px" y="0px"
	 viewBox="0 0 48 48" enable-background="new 0 0 48 48" xml:space="preserve">
<g>
	<path fill="#0DB89A" d="M43.6,29.7c-3.1-2.6-6.7-3.9-11.4-3.9c-2.8,0-5.7,0.4-8.6,0.8c-2.8,0.4-5.7,0.8-8.5,0.8
		c-4.6,0-8.1-1.2-11.1-3.7c-0.1-0.1-0.2-0.1-0.2,0c-0.1,0-0.1,0.1-0.2,0.2c-1.1,5.8-2.1,11.6-3.2,17.4c0,0.1,0,0.2,0.1,0.2
		c3.1,2.6,6.7,3.9,11.4,3.9c2.8,0,5.7-0.4,8.6-0.8c2.8-0.4,5.7-0.8,8.5-0.8c4.6,0,8.1,1.2,11.1,3.7c0,0,0.1,0.1,0.2,0.1
		c0,0,0.1,0,0.1,0c0.1,0,0.1-0.1,0.2-0.2l3.2-17.4C43.7,29.8,43.7,29.7,43.6,29.7z M37.2,35.8c-0.1,0.5-0.5,0.8-1,0.8
		c-0.1,0-0.2,0-0.3,0c-0.6-0.2-1.1-0.8-0.9-1.4c0.1-0.5,0.5-0.9,1-0.9c0.1,0,0.2,0,0.3,0C36.9,34.5,37.3,35.2,37.2,35.8z M16.2,36.4
		c0.6-3,3.6-5.8,7-6.4c0.3,0,0.6-0.1,0.9-0.1c1.3,0,2.4,0.5,3.1,1.3c0.7,0.9,1,2.1,0.8,3.5c-0.6,3-3.6,5.8-7,6.4
		c-1.7,0.3-3.2-0.2-4-1.3C16.2,39,15.9,37.7,16.2,36.4z M9.3,36c-0.1,0.6-0.7,1-1.3,0.9c-0.6-0.2-1-0.9-0.9-1.5
		c0.1-0.5,0.5-0.8,1-0.8c0.1,0,0.2,0,0.3,0C9,34.8,9.4,35.4,9.3,36z"/>
	<path fill="#F04B36" d="M21.1,39.4c0.1-0.3,0.1-0.6,0.2-0.9c-0.6,0.1-1.1,0-1.4-0.2c0.1-0.2,0.2-0.4,0.3-0.6
		c0.3,0.2,0.8,0.3,1.3,0.2c0.7-0.1,1.2-0.5,1.3-1.1c0.1-0.5-0.2-0.7-0.9-0.9c-0.9-0.2-1.5-0.5-1.3-1.3c0.1-0.7,0.8-1.4,1.7-1.7
		c0.1-0.3,0.1-0.6,0.2-0.9c0.2,0,0.4-0.1,0.6-0.1c-0.1,0.3-0.1,0.6-0.2,0.9c0.6-0.1,0.9,0,1.2,0.1c-0.1,0.2-0.2,0.4-0.4,0.6
		c-0.2-0.1-0.5-0.2-1.2-0.1c-0.8,0.1-1.1,0.6-1.2,0.9c-0.1,0.5,0.2,0.7,1,0.9c0.9,0.2,1.3,0.6,1.2,1.4c-0.1,0.7-0.8,1.5-1.8,1.8
		c-0.1,0.3-0.1,0.6-0.2,0.9C21.5,39.3,21.3,39.3,21.1,39.4z"/>
	<path fill="#F7A93B" d="M19.2,12.2c-4,1-8.9,1.9-9.8,1.6c-0.5-0.2-1,0-1.3,0.4c-0.1,0.1-1.3,2.4-0.1,4.6c0.6,1.1,1.8,1.9,3.4,2.5
		l-2.3,3.2c0.6,0.2,1.3,0.5,2,0.6l2.4-3.3c0.6,0.1,1.2,0.2,1.8,0.2l5.6,1.5c0.5,0.1,1.1-0.2,1.2-0.7c0.1-0.5-0.2-1.1-0.7-1.2
		L15.8,20c-0.1,0-0.1,0-0.2,0c-3.1-0.2-5.1-0.9-5.8-2.1c-0.4-0.7-0.3-1.6-0.2-2.1c2.5,0.1,7.7-1.1,10.1-1.7
		c6.8-2.1,11.4,2.9,11.6,3.1c0.1,0.1,0.1,0.1,0.2,0.2c2.6,1.8,3.6,4,3.1,6.6c0.7,0.1,1.3,0.2,2,0.3c0.2-1.4,0.2-2.7-0.2-3.9L25,11.7
		C23.3,11.5,21.3,11.5,19.2,12.2z"/>
	<path fill="#06728D" d="M47.2,15.1L36.8,1l-0.1-0.2c-0.4-0.4-1-0.4-1.4,0l-10.1,9.7c-0.2,0.2-0.3,0.5-0.3,0.8
		c0,0.2,0.1,0.3,0.2,0.5l11.4,8.6l3.6,2.7c0.2,0.1,0.4,0.2,0.6,0.2c0.3,0,0.5-0.1,0.7-0.3l1-1.1l0,0l5-5.3
		C47.6,16.1,47.6,15.5,47.2,15.1z"/>
</g>
</svg>
