<?xml version="1.0" encoding="utf-8"?>
<!-- Generator: Adobe Illustrator 18.0.0, SVG Export Plug-In . SVG Version: 6.00 Build 0)  -->
<!DOCTYPE svg PUBLIC "-//W3C//DTD SVG 1.1//EN" "http://www.w3.org/Graphics/SVG/1.1/DTD/svg11.dtd">
<svg version="1.1" id="Layer_1" xmlns="http://www.w3.org/2000/svg" xmlns:xlink="http://www.w3.org/1999/xlink" x="0px" y="0px"
	 viewBox="0 0 48 48" enable-background="new 0 0 48 48" xml:space="preserve">
<g>
	<path fill="#F04B36" d="M38,29.3c-5.2,0-9.5,4.1-9.5,9.1c0,5,4.2,9.1,9.5,9.1c5.2,0,9.5-4.1,9.5-9.1C47.5,33.4,43.3,29.3,38,29.3z
		 M42,40.9c0.4,0.4,0.4,1,0,1.4c-0.2,0.2-0.5,0.3-0.7,0.3c-0.3,0-0.5-0.1-0.7-0.3L38,39.8l-2.5,2.5c-0.2,0.2-0.4,0.3-0.7,0.3
		c-0.3,0-0.5-0.1-0.7-0.3c-0.4-0.4-0.4-1,0-1.4l2.5-2.5l-2.5-2.5c-0.4-0.4-0.4-1,0-1.4c0.4-0.4,1-0.4,1.4,0L38,37l2.5-2.5
		c0.4-0.4,1-0.4,1.4,0c0.4,0.4,0.4,1,0,1.4l-2.5,2.5L42,40.9z"/>
	<path fill="#F7A93B" d="M26.6,38.4c0-4.4,2.7-8.2,6.6-10V0.7c0-0.1-0.1-0.2-0.2-0.2H0.8c-0.1,0-0.3,0.1-0.3,0.2v41.7
		c0,0.1,0.1,0.3,0.3,0.3h26.7C26.9,41.4,26.6,39.9,26.6,38.4z M7.9,7.4h17.9c0.6,0,1,0.4,1,1c0,0.6-0.4,1-1,1H7.9c-0.6,0-1-0.4-1-1
		C6.9,7.9,7.3,7.4,7.9,7.4z M7.9,14h17.9c0.6,0,1,0.4,1,1c0,0.6-0.4,1-1,1H7.9c-0.6,0-1-0.4-1-1C6.9,14.4,7.3,14,7.9,14z M7.9,20.6
		h17.9c0.6,0,1,0.4,1,1c0,0.6-0.4,1-1,1H7.9c-0.6,0-1-0.4-1-1C6.9,21,7.3,20.6,7.9,20.6z M7.9,27.2h17.9c0.6,0,1,0.4,1,1s-0.4,1-1,1
		H7.9c-0.6,0-1-0.4-1-1S7.3,27.2,7.9,27.2z M25.8,35.8H7.9c-0.6,0-1-0.4-1-1c0-0.6,0.4-1,1-1h17.9c0.6,0,1,0.4,1,1
		C26.8,35.3,26.3,35.8,25.8,35.8z"/>
</g>
</svg>
