<?xml version="1.0" encoding="utf-8"?>
<!-- Generator: Adobe Illustrator 18.0.0, SVG Export Plug-In . SVG Version: 6.00 Build 0)  -->
<!DOCTYPE svg PUBLIC "-//W3C//DTD SVG 1.1//EN" "http://www.w3.org/Graphics/SVG/1.1/DTD/svg11.dtd">
<svg version="1.1" id="Layer_1" xmlns="http://www.w3.org/2000/svg" xmlns:xlink="http://www.w3.org/1999/xlink" x="0px" y="0px"
	 viewBox="0 0 48 48" enable-background="new 0 0 48 48" xml:space="preserve">
<g>
	<path fill="#4DA0D8" d="M37.9,29.1c-5.3,0-9.6,4.1-9.6,9.2c0,5.1,4.3,9.2,9.6,9.2c5.3,0,9.6-4.1,9.6-9.2
		C47.5,33.3,43.2,29.1,37.9,29.1z M43.6,35.8l-6.4,6.4c-0.2,0.2-0.5,0.3-0.7,0.3c-0.2,0-0.5-0.1-0.7-0.3l-3.6-3.2
		c-0.4-0.4-0.4-1-0.1-1.4c0.4-0.4,1-0.4,1.4-0.1l2.9,2.6l5.7-5.7c0.4-0.4,1-0.4,1.4,0C44,34.8,44,35.4,43.6,35.8z"/>
	<path fill="#CFD0D1" d="M26.4,38.3c0-4.3,2.5-8,6.1-9.9V0.5h-32v41.6h26.6C26.6,40.9,26.4,39.6,26.4,38.3z M7.5,7h18.1
		c0.6,0,1,0.5,1,1c0,0.6-0.5,1-1,1H7.5c-0.6,0-1-0.5-1-1C6.5,7.4,6.9,7,7.5,7z M7.5,13.6h18.1c0.6,0,1,0.5,1,1c0,0.6-0.5,1-1,1H7.5
		c-0.6,0-1-0.5-1-1C6.5,14.1,6.9,13.6,7.5,13.6z M7.5,20.3h18.1c0.6,0,1,0.5,1,1c0,0.6-0.5,1-1,1H7.5c-0.6,0-1-0.5-1-1
		C6.5,20.7,6.9,20.3,7.5,20.3z M7.5,26.9h18.1c0.6,0,1,0.5,1,1c0,0.6-0.5,1-1,1H7.5c-0.6,0-1-0.5-1-1C6.5,27.4,6.9,26.9,7.5,26.9z
		 M25.5,35.6H7.5c-0.6,0-1-0.5-1-1c0-0.6,0.5-1,1-1h18.1c0.6,0,1,0.5,1,1C26.5,35.2,26.1,35.6,25.5,35.6z"/>
</g>
</svg>
