<?xml version="1.0" encoding="utf-8"?>
<!-- Generator: Adobe Illustrator 18.0.0, SVG Export Plug-In . SVG Version: 6.00 Build 0)  -->
<!DOCTYPE svg PUBLIC "-//W3C//DTD SVG 1.1//EN" "http://www.w3.org/Graphics/SVG/1.1/DTD/svg11.dtd">
<svg version="1.1" id="Layer_1" xmlns="http://www.w3.org/2000/svg" xmlns:xlink="http://www.w3.org/1999/xlink" x="0px" y="0px"
	 viewBox="0 0 48 48" enable-background="new 0 0 48 48" xml:space="preserve">
<g>
	<path fill="#F7A93B" d="M34.1,15.5c0-5.5-4.5-9.9-10.1-9.9c-5.6,0-10.1,4.4-10.1,9.9s4.5,9.9,10.1,9.9C29.6,25.5,34.1,21,34.1,15.5
		z"/>
	<path fill="#E77528" d="M31.4,33.2c-0.1,0-0.2,0-0.2,0.1c-0.1,0.1-0.1,0.1-0.1,0.2l1.3,9l-8.2-4.9c-0.1,0-0.2,0-0.3,0l-8.3,4.9
		l1.3-9c0-0.1,0-0.2-0.1-0.2c-0.1-0.1-0.1-0.1-0.2-0.1C8.3,35.4,2.8,41,2.8,47.3c0,0.1,0.1,0.2,0.3,0.2h41.9c0.1,0,0.3-0.1,0.3-0.2
		C45.2,41,39.7,35.4,31.4,33.2z"/>
	<path fill="#4DA0D8" d="M5.6,22c0.6,0,1-0.4,1-1v-7.1c0-0.5-0.4-1-1-1s-1,0.4-1,1V21C4.6,21.5,5,22,5.6,22z"/>
	<path fill="#4DA0D8" d="M42.4,22c0.6,0,1-0.4,1-1v-7.1c0-0.5-0.4-1-1-1c-0.6,0-1,0.4-1,1V21C41.4,21.5,41.9,22,42.4,22z"/>
	<path fill="#F04B36" d="M9.7,16.5c0.6,0,1-0.4,1-1c0-7.2,6-13.1,13.3-13.1c7.4,0,13.3,5.9,13.3,13.1C37.3,22.3,32,30,25,30.7v-1.6
		c0-0.5-0.4-1-1-1c-0.6,0-1,0.4-1,1v4.7c0,0.5,0.4,1,1,1c0.6,0,1-0.4,1-1v-1.1c8.3-0.7,14.3-9.3,14.3-17.1c0-8.3-6.9-15-15.4-15
		c-8.5,0-15.4,6.8-15.4,15C8.6,16.1,9.1,16.5,9.7,16.5z"/>
</g>
</svg>
