<?xml version="1.0" encoding="utf-8"?>
<!-- Generator: Adobe Illustrator 18.0.0, SVG Export Plug-In . SVG Version: 6.00 Build 0)  -->
<!DOCTYPE svg PUBLIC "-//W3C//DTD SVG 1.1//EN" "http://www.w3.org/Graphics/SVG/1.1/DTD/svg11.dtd">
<svg version="1.1" id="Layer_1" xmlns="http://www.w3.org/2000/svg" xmlns:xlink="http://www.w3.org/1999/xlink" x="0px" y="0px"
	 viewBox="0 0 48 48" enable-background="new 0 0 48 48" xml:space="preserve">
<g>
	<path fill="#0DB89A" d="M39.4,5.1c-2.7-0.9-5.3-1.3-7.3-1.1c-0.4,0-0.7,0.3-0.8,0.7l1.2,0.7C32.8,5.5,33,5.7,33.2,6
		c1.6,0,3.6,0.4,5.6,1.1c4.8,1.6,6.9,3.9,6.7,4.4c0,0-0.1,0.1-0.2,0.2c-1.1,0.6-4.1,0.5-7.7-0.8c-1.6-0.5-3-1.2-4.2-1.9l-0.3,2.1
		c1.1,0.6,2.4,1.2,3.8,1.7c2.3,0.8,4.5,1.2,6.3,1.2c1.2,0,2.2-0.2,2.9-0.5c0.8-0.4,1.1-1,1.2-1.4C48.2,9.5,43.8,6.6,39.4,5.1z"/>
	<path fill="#0DB89A" d="M32.7,40.7c-0.1-0.3-0.2-0.6-0.2-0.9h0c-0.1,0.3-0.1,0.6-0.2,0.9l-0.5,1.4h1.4L32.7,40.7z"/>
	<path fill="#0DB89A" d="M37.9,40.6c0-0.6-0.4-0.9-1.1-0.9c-0.3,0-0.5,0-0.6,0.1v1.8h0.6C37.5,41.5,37.9,41.1,37.9,40.6z"/>
	<path fill="#0DB89A" d="M44.3,22.6H14.8c-1.4,0-2.6,1.2-2.6,2.7v2.6h34.6v-2.6C46.9,23.8,45.7,22.6,44.3,22.6z"/>
	<rect x="12.2" y="29.8" fill="#CFD0D1" width="34.6" height="3.7"/>
	<path fill="#0DB89A" d="M43.1,41.6c0-1.2-0.6-1.9-1.9-1.9c-0.3,0-0.6,0-0.7,0.1v3.9c0.2,0,0.4,0,0.6,0
		C42.4,43.6,43.1,42.9,43.1,41.6z"/>
	<path fill="#0DB89A" d="M12.2,44.8c0,1.5,1.2,2.7,2.6,2.7h29.5c1.4,0,2.6-1.2,2.6-2.7v-9.3H12.2V44.8z M39.9,39.3
		c0.4-0.1,0.8-0.1,1.3-0.1c0.9,0,1.5,0.2,1.9,0.6c0.4,0.4,0.7,1,0.7,1.8c0,0.8-0.2,1.4-0.7,1.9c-0.4,0.5-1.2,0.7-2.1,0.7
		c-0.4,0-0.8,0-1.1-0.1V39.3z M35.6,39.3c0.3-0.1,0.7-0.1,1.2-0.1c0.6,0,1.1,0.1,1.4,0.4c0.2,0.2,0.4,0.6,0.4,0.9
		c0,0.6-0.4,1.1-0.9,1.2v0c0.4,0.1,0.6,0.5,0.7,1c0.2,0.7,0.3,1.2,0.4,1.3h-0.6c-0.1-0.1-0.2-0.6-0.3-1.2c-0.1-0.7-0.4-0.9-0.9-0.9
		h-0.6v2.1h-0.6V39.3z M32.1,39.2h0.7l1.6,4.9h-0.6l-0.5-1.5h-1.7l-0.5,1.5h-0.6L32.1,39.2z M28.5,39.1c0.6,0,1,0.1,1.1,0.2
		l-0.1,0.5c-0.2-0.1-0.6-0.2-0.9-0.2c-1.1,0-1.8,0.7-1.8,2c0,1.2,0.7,2,1.8,2c0.4,0,0.7-0.1,1-0.2l0.1,0.5c-0.2,0.1-0.7,0.2-1.2,0.2
		c-1.3,0-2.3-0.9-2.3-2.5C26,40.2,27,39.1,28.5,39.1z"/>
	<path fill="#FFD69A" d="M29.6,8.4c-0.3-0.4-0.2-1.1,0.2-1.4c0.4-0.3,1.1-0.3,1.4,0.2c0.5,0.6,1.2,1.2,2.2,1.8l0.2-1.5
		C33.7,7,33.5,6.4,33.2,6c-0.3,0-0.6,0-0.8,0c-0.5,0.1-1-0.4-1.1-0.9c0-0.1,0-0.3,0-0.4l-7.2-3.9c-0.7-0.4-1.8-0.4-2.5,0L1.3,11.5
		c-0.7,0.4-1,1.3-0.7,2.1l7.8,16C8.7,30,9,30.3,9.4,30.4c0.2,0.1,0.3,0.1,0.5,0.1c0.1,0,0.3,0,0.4-0.1v-5.2c0-2.6,2-4.7,4.5-4.7H29
		l1.9-1c0.7-0.4,1.3-1.3,1.4-2.1l0.9-6.3C31.6,10.3,30.3,9.3,29.6,8.4z"/>
</g>
</svg>
