<?xml version="1.0" encoding="utf-8"?>
<!-- Generator: Adobe Illustrator 18.0.0, SVG Export Plug-In . SVG Version: 6.00 Build 0)  -->
<!DOCTYPE svg PUBLIC "-//W3C//DTD SVG 1.1//EN" "http://www.w3.org/Graphics/SVG/1.1/DTD/svg11.dtd">
<svg version="1.1" id="Layer_1" xmlns="http://www.w3.org/2000/svg" xmlns:xlink="http://www.w3.org/1999/xlink" x="0px" y="0px"
	 viewBox="0 0 48 48" enable-background="new 0 0 48 48" xml:space="preserve">
<g>
	<path fill="#FFD69A" d="M24,11.2c3,0,5.5-2.4,5.5-5.4c0-3-2.5-5.4-5.5-5.4s-5.5,2.4-5.5,5.4C18.5,8.8,21,11.2,24,11.2z"/>
	<path fill="#F04B36" d="M40.4,26c0-6.9-7.4-12.5-16.4-12.5S7.6,19.1,7.6,26v0.3h32.8V26z"/>
	<path fill="#4DA0D8" d="M9.4,31.3H0.5c0.2,2.7,1.3,5.2,3,7.5h7.4C10.1,36.5,9.6,33.9,9.4,31.3z"/>
	<path fill="#4DA0D8" d="M11.8,40.8H5.3c2.8,2.6,6.5,4.7,10.8,5.8C14.4,45.1,12.9,43.1,11.8,40.8z"/>
	<path fill="#4DA0D8" d="M13.1,38.7h9.8v-7.5H11.6C11.7,34,12.2,36.5,13.1,38.7z"/>
	<path fill="#4DA0D8" d="M22.9,47.5v-6.7h-8.8C16.2,44.5,19.4,47.1,22.9,47.5z"/>
	<path fill="#4DA0D8" d="M34.9,38.7c0.9-2.2,1.5-4.8,1.6-7.5H25.1v7.5H34.9z"/>
	<path fill="#4DA0D8" d="M25.1,40.8v6.7c3.6-0.4,6.7-3,8.8-6.7H25.1z"/>
	<path fill="#4DA0D8" d="M38.6,31.3c-0.1,2.7-0.6,5.2-1.5,7.5h7.4c1.7-2.2,2.8-4.8,3-7.5H38.6z"/>
	<path fill="#4DA0D8" d="M31.8,46.6c4.3-1.1,8.1-3.2,10.8-5.8h-6.4C35.1,43.1,33.6,45.1,31.8,46.6z"/>
</g>
</svg>
