<?xml version="1.0" encoding="utf-8"?>
<!-- Generator: Adobe Illustrator 18.0.0, SVG Export Plug-In . SVG Version: 6.00 Build 0)  -->
<!DOCTYPE svg PUBLIC "-//W3C//DTD SVG 1.1//EN" "http://www.w3.org/Graphics/SVG/1.1/DTD/svg11.dtd">
<svg version="1.1" id="Layer_1" xmlns="http://www.w3.org/2000/svg" xmlns:xlink="http://www.w3.org/1999/xlink" x="0px" y="0px"
	 viewBox="0 0 48 48" enable-background="new 0 0 48 48" xml:space="preserve">
<g>
	<path fill="#4DA0D8" d="M47.4,32.1l-9.6-9.8c-0.1-0.1-0.3-0.1-0.4,0L28,32.1c-0.1,0.1-0.1,0.2-0.1,0.3c0,0.1,0.1,0.2,0.2,0.2h4.4
		v14.7c0,0.1,0.1,0.2,0.3,0.2h9.8c0.1,0,0.3-0.1,0.3-0.2V32.6h4.4c0.1,0,0.2-0.1,0.2-0.2C47.5,32.3,47.5,32.2,47.4,32.1z"/>
	<path fill="#F04B36" d="M10.5,22.3c-0.1-0.1-0.3-0.1-0.4,0l-9.6,9.8c-0.1,0.1-0.1,0.2-0.1,0.3c0,0.1,0.1,0.2,0.2,0.2h4.4v14.7
		c0,0.1,0.1,0.2,0.3,0.2h9.8c0.1,0,0.3-0.1,0.3-0.2V32.6h4.4c0.1,0,0.2-0.1,0.2-0.2c0-0.1,0-0.2-0.1-0.3L10.5,22.3z"/>
	<path fill="#06728D" d="M7.1,10.8H15v14.7c0,0.1,0.1,0.3,0.3,0.3h17.2c0.1,0,0.2-0.1,0.2-0.3V10.8h7.9c0.1,0,0.2-0.1,0.2-0.2
		c0-0.1,0-0.2-0.1-0.3L24,0.5c-0.1,0-0.2,0-0.3,0L6.9,10.3c-0.1,0.1-0.1,0.2-0.1,0.3C6.8,10.7,6.9,10.8,7.1,10.8z M23.7,14.4
		c-2.1-0.8-3.5-1.8-3.5-3.6c0-1.7,1.2-3.1,3.2-3.4V5.3h1.3v2c1.3,0,2.1,0.4,2.7,0.7l-0.5,1.4c-0.4-0.3-1.3-0.7-2.6-0.7
		c-1.6,0-2.2,1-2.2,1.8c0,1.1,0.8,1.6,2.6,2.4c2.2,0.9,3.3,2,3.3,3.8c0,1.7-1.2,3.2-3.3,3.6v2.2h-1.3v-2.1c-1.2,0-2.5-0.4-3.2-0.9
		l0.5-1.4c0.8,0.5,1.8,0.9,3,0.9c1.5,0,2.5-0.9,2.5-2.1C26.1,15.7,25.3,15,23.7,14.4z"/>
</g>
</svg>
