<?xml version="1.0" encoding="utf-8"?>
<!-- Generator: Adobe Illustrator 18.0.0, SVG Export Plug-In . SVG Version: 6.00 Build 0)  -->
<!DOCTYPE svg PUBLIC "-//W3C//DTD SVG 1.1//EN" "http://www.w3.org/Graphics/SVG/1.1/DTD/svg11.dtd">
<svg version="1.1" id="Layer_1" xmlns="http://www.w3.org/2000/svg" xmlns:xlink="http://www.w3.org/1999/xlink" x="0px" y="0px"
	 viewBox="0 0 48 48" enable-background="new 0 0 48 48" xml:space="preserve">
<g>
	<path fill="#06728D" d="M14.5,9.8c-0.4-0.4-1-0.4-1.4,0c-0.4,0.4-0.4,1,0,1.4l6.2,6c0.2,0.2,0.5,0.3,0.7,0.3c0.2,0,0.5-0.1,0.7-0.3
		l17.1-15c0.4-0.4,0.4-1,0.1-1.4c-0.4-0.4-1-0.4-1.4-0.1L20,15.1L14.5,9.8z"/>
	<polygon fill="#F7A93B" points="4,25.8 0.5,31.8 47.5,31.8 44,25.8 	"/>
	<polygon fill="#0DB89A" points="4,33.6 0.5,39.7 47.5,39.7 44,33.6 	"/>
	<polygon fill="#E77528" points="4,41.4 0.5,47.5 47.5,47.5 44,41.4 	"/>
	<path fill="#F04B36" d="M37.1,6.1h-2.3L21.3,17.9c-0.4,0.3-0.9,0.5-1.4,0.5c-0.5,0-1-0.2-1.4-0.6l-6.2-6c-0.4-0.4-0.6-0.9-0.6-1.4
		c0-0.5,0.2-1,0.6-1.4c0.4-0.4,0.9-0.6,1.4-0.6c0.5,0,1,0.2,1.4,0.6l4.9,4.7l8.8-7.7h-3.2H10.9l-10.4,18h47L37.1,6.1z"/>
</g>
</svg>
