<?xml version="1.0" encoding="utf-8"?>
<!-- Generator: Adobe Illustrator 18.0.0, SVG Export Plug-In . SVG Version: 6.00 Build 0)  -->
<!DOCTYPE svg PUBLIC "-//W3C//DTD SVG 1.1//EN" "http://www.w3.org/Graphics/SVG/1.1/DTD/svg11.dtd">
<svg version="1.1" id="Layer_1" xmlns="http://www.w3.org/2000/svg" xmlns:xlink="http://www.w3.org/1999/xlink" x="0px" y="0px"
	 viewBox="0 0 48 48" enable-background="new 0 0 48 48" xml:space="preserve">
<g>
	<path fill="#0DB89A" d="M46.5,37.4h-2.4V36c2.1-3.5,3.3-7.6,3.3-12C47.5,11,36.9,0.5,24,0.5C11,0.5,0.5,11,0.5,24
		C0.5,37,11,47.5,24,47.5c7.1,0,13.4-3.2,17.7-8.1h-8c-0.4,0-0.7-0.2-0.9-0.5c-0.2-0.3-0.1-0.7,0.1-1l9.5-12.6
		c0.3-0.3,0.7-0.5,1.1-0.3c0.4,0.1,0.7,0.5,0.7,0.9v10c-0.3,0.5-0.6,1-0.9,1.5c-0.5,0.7-0.9,1.4-1.5,2h0.5v3.9c0,0.5,0.4,1,1,1
		c0.5,0,1-0.4,1-1v-3.9h2.4c0.5,0,1-0.4,1-1C47.5,37.9,47.1,37.4,46.5,37.4z M31.5,44H20.6c-0.5,0-1-0.4-1-1c0-2.2,2.1-4.1,4.7-6.2
		c0.4-0.4,0.9-0.7,1.4-1.1c2-1.5,3.9-3,3.9-5c0-2.6-1.2-3.9-3.6-3.9c-3.2,0-4.2,3.7-4.3,3.9c-0.1,0.5-0.7,0.8-1.2,0.7
		c-0.5-0.1-0.8-0.6-0.7-1.2c0.5-1.8,2.3-5.3,6.1-5.3c3.5,0,5.6,2.2,5.6,5.8c0,3-2.5,4.9-4.7,6.6c-0.5,0.4-0.9,0.7-1.4,1.1
		c-1.6,1.3-3.1,2.6-3.7,3.8h9.6c0.5,0,1,0.4,1,1C32.5,43.5,32,44,31.5,44z"/>
	<polygon fill="#0DB89A" points="35.6,37.4 42.2,37.4 42.2,28.7 	"/>
</g>
</svg>
