<?xml version="1.0" encoding="utf-8"?>
<!-- Generator: Adobe Illustrator 18.0.0, SVG Export Plug-In . SVG Version: 6.00 Build 0)  -->
<!DOCTYPE svg PUBLIC "-//W3C//DTD SVG 1.1//EN" "http://www.w3.org/Graphics/SVG/1.1/DTD/svg11.dtd">
<svg version="1.1" id="Layer_1" xmlns="http://www.w3.org/2000/svg" xmlns:xlink="http://www.w3.org/1999/xlink" x="0px" y="0px"
	 viewBox="0 0 48 48" enable-background="new 0 0 48 48" xml:space="preserve">
<g>
	<path fill="#4DA0D8" d="M47.5,24c-4.8-7.5-13.8-12.2-23.5-12.2c-9.6,0-18.5,4.6-23.4,11.9c0,0,0,0.1,0,0.2c0,0.1,0,0.1,0,0.2
		c4.8,7.5,13.8,12.2,23.5,12.2c9.6,0,18.5-4.6,23.4-11.9c0,0,0-0.1,0-0.2C47.5,24.1,47.5,24,47.5,24z M24,33.9
		c-5.5,0-9.9-4.5-9.9-9.9s4.5-9.9,9.9-9.9s9.9,4.5,9.9,9.9S29.5,33.9,24,33.9z"/>
	<path fill="#0DB89A" d="M24,16.1c-4.4,0-7.9,3.6-7.9,7.9c0,4.4,3.6,7.9,7.9,7.9c4.4,0,7.9-3.6,7.9-7.9C31.9,19.6,28.4,16.1,24,16.1
		z M24.3,27.7v1.2h-0.8v-1.2c-0.7,0-1.4-0.2-1.8-0.5l0.3-0.8c0.4,0.3,1.1,0.5,1.7,0.5c0.9,0,1.4-0.5,1.4-1.2c0-0.7-0.5-1.1-1.4-1.4
		c-1.2-0.5-2-1-2-2.1c0-1,0.7-1.8,1.8-1.9v-1.2h0.7v1.2c0.7,0,1.2,0.2,1.6,0.4l-0.3,0.8c-0.3-0.1-0.7-0.4-1.5-0.4
		c-0.9,0-1.3,0.6-1.3,1c0,0.6,0.4,0.9,1.5,1.4c1.2,0.5,1.9,1.1,1.9,2.2C26.2,26.6,25.6,27.5,24.3,27.7z"/>
</g>
</svg>
