<?xml version="1.0" encoding="utf-8"?>
<!-- Generator: Adobe Illustrator 18.0.0, SVG Export Plug-In . SVG Version: 6.00 Build 0)  -->
<!DOCTYPE svg PUBLIC "-//W3C//DTD SVG 1.1//EN" "http://www.w3.org/Graphics/SVG/1.1/DTD/svg11.dtd">
<svg version="1.1" id="Layer_1" xmlns="http://www.w3.org/2000/svg" xmlns:xlink="http://www.w3.org/1999/xlink" x="0px" y="0px"
	 viewBox="0 0 48 48" enable-background="new 0 0 48 48" xml:space="preserve">
<g>
	<path fill="#4DA0D8" d="M3.2,17h41.5c0.5,0,1-0.4,1-1c0-0.5-0.4-1-1-1H3.2c-0.5,0-1,0.4-1,1C2.3,16.6,2.7,17,3.2,17z"/>
	<path fill="#F04B36" d="M5.6,13.2h36.8c0.5,0,1-0.4,1-1c0-0.5-0.4-1-1-1H5.6c-0.5,0-1,0.4-1,1C4.6,12.8,5.1,13.2,5.6,13.2z"/>
	<path fill="#06728D" d="M7.7,9.7h32.5c0.5,0,1-0.4,1-1c0-0.5-0.4-1-1-1H7.7c-0.5,0-1,0.4-1,1C6.7,9.3,7.2,9.7,7.7,9.7z"/>
	<path fill="#ED5F54" d="M24,24.5c-3,0-5.4,2.4-5.4,5.4c0,3,2.4,5.4,5.4,5.4c3,0,5.4-2.4,5.4-5.4C29.4,26.9,27,24.5,24,24.5z
		 M25.1,33.2h-0.9v-5.7h0l-1.1,0.6l-0.2-0.7l1.4-0.8h0.8V33.2z"/>
	<path fill="#0DB89A" d="M0.5,19.6v20.6h47V19.6H0.5z M7.2,33.3v1.1H6.5v-1.1c-0.6,0-1.3-0.2-1.7-0.5l0.3-0.7c0.4,0.3,1,0.5,1.6,0.5
		c0.8,0,1.3-0.4,1.3-1.1c0-0.6-0.4-1-1.2-1.3C5.6,29.8,5,29.3,5,28.3c0-0.9,0.6-1.6,1.6-1.7v-1.1h0.7v1.1c0.7,0,1.1,0.2,1.4,0.4
		l-0.3,0.7c-0.2-0.1-0.7-0.4-1.4-0.4c-0.8,0-1.2,0.5-1.2,0.9c0,0.6,0.4,0.8,1.3,1.2c1.1,0.5,1.7,1,1.7,2C8.9,32.3,8.3,33.1,7.2,33.3
		z M24,37.3c-4.1,0-7.4-3.3-7.4-7.4c0-4.1,3.3-7.4,7.4-7.4c4.1,0,7.4,3.3,7.4,7.4C31.4,34,28.1,37.3,24,37.3z M41.8,33.3v1.1h-0.7
		v-1.1c-0.6,0-1.3-0.2-1.7-0.5l0.3-0.7c0.4,0.3,1,0.5,1.6,0.5c0.8,0,1.3-0.4,1.3-1.1c0-0.6-0.4-1-1.2-1.3c-1.1-0.4-1.8-0.9-1.8-1.9
		c0-0.9,0.6-1.6,1.6-1.7v-1.1h0.7v1.1c0.7,0,1.1,0.2,1.4,0.4L43,27.6c-0.2-0.1-0.7-0.4-1.4-0.4c-0.8,0-1.1,0.5-1.1,0.9
		c0,0.6,0.4,0.8,1.3,1.2c1.1,0.5,1.7,1,1.7,2C43.5,32.3,42.9,33.1,41.8,33.3z"/>
</g>
</svg>
