<?xml version="1.0" encoding="utf-8"?>
<!-- Generator: Adobe Illustrator 18.0.0, SVG Export Plug-In . SVG Version: 6.00 Build 0)  -->
<!DOCTYPE svg PUBLIC "-//W3C//DTD SVG 1.1//EN" "http://www.w3.org/Graphics/SVG/1.1/DTD/svg11.dtd">
<svg version="1.1" id="Layer_1" xmlns="http://www.w3.org/2000/svg" xmlns:xlink="http://www.w3.org/1999/xlink" x="0px" y="0px"
	 viewBox="0 0 48 48" enable-background="new 0 0 48 48" xml:space="preserve">
<g>
	<path fill="#F04B36" d="M28.6,34.5c-4.3-6-6.4-12.7-6.1-17.7c-1.2,1.5-1.6,4.2-1,7.5c0.7,3.9,2.6,8.1,5.3,12
		c5.2,7.3,12.1,11,15.4,8.3C37.9,44.1,32.8,40.3,28.6,34.5z"/>
	<path fill="#F7A93B" d="M41.9,20.9c-4-5.6-8.9-9.2-12.7-9.2c-1.2,0-2.2,0.4-3,1.2c-3.2,3.2-1.3,12.3,4.1,19.9
		c4,5.6,8.9,9.2,12.7,9.2c1.2,0,2.1-0.4,2.8-1l0.2-0.2C49.1,37.3,47.2,28.4,41.9,20.9z M40.3,31.8l-1.2-1.2c-0.6,0.8-1.4,1.4-2,1.6
		l-0.5-1.1c0.6-0.2,1.4-0.7,1.9-1.5c0.7-1,0.7-2.1,0-2.8c-0.6-0.7-1.4-0.5-2.5,0.1c-1.5,0.9-2.6,1.3-3.6,0.2c-1-1-1.1-2.5-0.4-4
		L30.9,22l0.6-0.9l1.1,1.1c0.6-0.8,1.2-1.2,1.7-1.4l0.5,1.1c-0.3,0.1-1,0.5-1.6,1.3c-0.8,1.1-0.5,2-0.1,2.5c0.6,0.6,1.3,0.4,2.5-0.4
		c1.5-0.9,2.6-1,3.6,0c0.9,0.9,1.2,2.6,0.4,4.2l1.2,1.2L40.3,31.8z"/>
	<path fill="#0DB89A" d="M24.8,38.8c-2.6,1.2-5.8,1.9-9.2,1.9c-6.2,0-11.5-2.2-14.5-5.7c-0.4,0.9-0.6,1.7-0.6,2.7
		c0,5.4,6.8,9.8,15.1,9.8c5.3,0,10-1.8,12.7-4.5C27,41.8,25.9,40.4,24.8,38.8z"/>
	<path fill="#F7A93B" d="M15.6,38.3c2.9,0,5.6-0.5,7.9-1.4c-1.2-1.9-2.2-3.9-3-5.8c-1.5,0.3-3.2,0.5-4.9,0.5
		c-6.2,0-11.5-2.2-14.5-5.7c-0.4,0.9-0.6,1.7-0.6,2.7C0.5,33.9,7.3,38.3,15.6,38.3z"/>
	<path fill="#0DB89A" d="M15.6,29.1c1.4,0,2.8-0.1,4.1-0.4c-0.3-1-0.6-2.1-0.8-3.1c-0.2-1.2-0.3-2.4-0.3-3.5c-1,0.1-2,0.2-3,0.2
		c-6.2,0-11.5-2.2-14.5-5.7c-0.4,0.9-0.6,1.7-0.6,2.7C0.5,24.8,7.3,29.1,15.6,29.1z"/>
	<path fill="#F04B36" d="M15.6,20c1.1,0,2.1-0.1,3.1-0.2c0.3-2.4,1.2-4.4,2.6-5.9l2.8-2.9c0.1-0.1,0.2-0.2,0.2-0.3
		c1.4-1.4,3.2-2.2,5.3-2.2c0.2,0,0.5,0,0.7,0C29.2,4,23,0.5,15.6,0.5c-8.3,0-15.1,4.4-15.1,9.8S7.3,20,15.6,20z M15,10.2
		c-1.4-0.7-2.3-1.4-2.3-2.8c0-1.4,0.8-2.4,2.1-2.6V3h0.9v1.6c0.8,0,1.4,0.3,1.8,0.6l-0.3,1.1c-0.3-0.2-0.9-0.6-1.7-0.6
		c-1.1,0-1.5,0.8-1.5,1.4c0,0.9,0.5,1.3,1.7,1.9c1.4,0.7,2.1,1.5,2.1,3c0,1.3-0.8,2.5-2.2,2.8v1.7h-0.9v-1.7c-0.8,0-1.6-0.3-2.1-0.7
		l0.3-1.1c0.5,0.4,1.2,0.7,2,0.7c1,0,1.6-0.7,1.6-1.6C16.5,11.2,16,10.6,15,10.2z"/>
</g>
</svg>
