<?xml version="1.0" encoding="utf-8"?>
<!-- Generator: Adobe Illustrator 18.0.0, SVG Export Plug-In . SVG Version: 6.00 Build 0)  -->
<!DOCTYPE svg PUBLIC "-//W3C//DTD SVG 1.1//EN" "http://www.w3.org/Graphics/SVG/1.1/DTD/svg11.dtd">
<svg version="1.1" id="Layer_1" xmlns="http://www.w3.org/2000/svg" xmlns:xlink="http://www.w3.org/1999/xlink" x="0px" y="0px"
	 viewBox="0 0 48 48" enable-background="new 0 0 48 48" xml:space="preserve">
<g>
	<path fill="#06728D" d="M2.1,6.1H35c0.6,0,1-0.4,1-1c0-0.5-0.4-1-1-1H2.1c-0.6,0-1,0.4-1,1C1.1,5.7,1.5,6.1,2.1,6.1z"/>
	<path fill="#4DA0D8" d="M5,2.5h27.1c0.6,0,1-0.4,1-1c0-0.5-0.4-1-1-1H5c-0.6,0-1,0.4-1,1C4,2,4.4,2.5,5,2.5z"/>
	<path fill="#E77528" d="M44.2,30.1v-5.7c0-3.9-2.9-7-6.4-7h-0.5c-3.5,0-6.4,3.2-6.4,7v5.7c-2,1.8-3.3,4.5-3.3,7.4
		c0,5.5,4.5,10,10,10c5.5,0,10-4.5,10-10C47.5,34.6,46.2,32,44.2,30.1z M38.4,39v4h-1.9v-4c-1.1-0.4-1.9-1.4-1.9-2.6
		c0-1.5,1.3-2.8,2.8-2.8c1.6,0,2.8,1.2,2.8,2.8C40.3,37.6,39.5,38.6,38.4,39z M42.2,28.7c-1.4-0.7-3-1.2-4.7-1.2
		c-1.7,0-3.3,0.4-4.7,1.2v-4.3c0-2.8,2-5.1,4.4-5.1h0.5c2.4,0,4.4,2.3,4.4,5.1V28.7z"/>
	<path fill="#F04B36" d="M19.1,12.4c-3.9,0-7.1,3.8-7.1,8.5s3.2,8.5,7.1,8.5c3.9,0,7.1-3.8,7.1-8.5S23,12.4,19.1,12.4z M19.6,26.2
		V28h-1.1v-1.8c-1,0-2.1-0.3-2.7-0.8l0.4-1.2c0.6,0.4,1.6,0.7,2.5,0.7c1.3,0,2.1-0.7,2.1-1.7c0-1-0.7-1.5-2-2.1
		c-1.8-0.7-2.9-1.5-2.9-3c0-1.4,1-2.5,2.7-2.8v-1.8h1.1v1.7c1.1,0,1.8,0.3,2.3,0.6l-0.4,1.1c-0.4-0.2-1.1-0.6-2.2-0.6
		c-1.4,0-1.9,0.8-1.9,1.5c0,0.9,0.7,1.4,2.2,2c1.8,0.7,2.7,1.6,2.7,3.2C22.4,24.6,21.4,25.9,19.6,26.2z"/>
	<path fill="#F7A93B" d="M28.8,24.4c0-5,3.8-9,8.4-9h0.5V8.3H0.5v25.1h25.7c0.6-1.5,1.4-2.9,2.6-4.1V24.4z M5.8,22.5
		c-0.9,0-1.6-0.7-1.6-1.6c0-0.9,0.7-1.6,1.6-1.6s1.6,0.7,1.6,1.6C7.4,21.8,6.7,22.5,5.8,22.5z M19.1,31.3c-5,0-9.1-4.7-9.1-10.5
		c0-5.8,4.1-10.5,9.1-10.5c5,0,9.1,4.7,9.1,10.5C28.2,26.6,24.1,31.3,19.1,31.3z"/>
</g>
</svg>
