<?xml version="1.0" encoding="utf-8"?>
<!-- Generator: Adobe Illustrator 18.0.0, SVG Export Plug-In . SVG Version: 6.00 Build 0)  -->
<!DOCTYPE svg PUBLIC "-//W3C//DTD SVG 1.1//EN" "http://www.w3.org/Graphics/SVG/1.1/DTD/svg11.dtd">
<svg version="1.1" id="Layer_1" xmlns="http://www.w3.org/2000/svg" xmlns:xlink="http://www.w3.org/1999/xlink" x="0px" y="0px"
	 viewBox="0 0 48 48" enable-background="new 0 0 48 48" xml:space="preserve">
<g>
	<path fill="#0DB89A" d="M47.2,4.1c-0.2-0.7-0.7-1.3-1.3-1.6l-3.3-1.7c-1.4-0.7-3.2-0.1-4,1.4l-7.3,13.2h4l-1.4-0.7l6.4-11.5
		c0.3-0.5,1-0.8,1.4-0.6l3.3,1.7c0.2,0.1,0.3,0.3,0.4,0.5c0.1,0.3,0,0.6-0.1,0.9l-5.4,9.8H42l4.9-8.8C47.3,5.7,47.4,4.9,47.2,4.1z"
		/>
	<path fill="#06728D" d="M38,13.7c0.3,0,0.7-0.2,0.9-0.5l4.4-7.9c0.3-0.5,0.1-1.1-0.4-1.3c-0.5-0.3-1.1-0.1-1.3,0.4l-4.4,7.9
		c-0.3,0.5-0.1,1.1,0.4,1.3C37.7,13.7,37.9,13.7,38,13.7z"/>
	<path fill="#0DB89A" d="M26.2,29.3c-0.2,0.3-0.2,0.6-0.1,0.9c0.1,0.3,0.3,0.6,0.7,0.8l1.6,0.8c0.7,0.3,1.5,0.1,1.9-0.5l7.1-12.7
		l0,0l-4-2L26.2,29.3z"/>
	<path fill="#0DB89A" d="M25.6,32.5l-0.5,3.4l2.6-2.3c-0.1,0-0.2-0.1-0.3-0.1l-1.6-0.8C25.8,32.7,25.7,32.6,25.6,32.5z"/>
	<path fill="#F7A93B" d="M41.8,15.6l-2.3,4.1l-0.4-0.2L32,32.2c-0.2,0.3-0.4,0.5-0.6,0.7c-0.1,0.1-0.1,0.2-0.3,0.3L24.4,39
		c-0.2,0.2-0.4,0.2-0.6,0.2c-0.2,0-0.3,0-0.5-0.1c-0.4-0.2-0.6-0.6-0.5-1l1.2-8.6c0-0.2,0.1-0.3,0.2-0.4c0.1-0.3,0.2-0.6,0.3-0.9
		l7-12.7l-0.4-0.2l0-0.1H4.7c-2.2,0-4,1.7-4,3.9v24.4c0,2.1,1.8,3.9,4,3.9h35.6c2.2,0,4-1.7,4-3.9V19.2
		C44.4,17.6,43.3,16.2,41.8,15.6z M18.2,42.4H6.5c-0.5,0-1-0.4-1-1c0-0.5,0.4-1,1-1h11.7c0.5,0,1,0.4,1,1
		C19.2,41.9,18.7,42.4,18.2,42.4z M18.2,33.1H6.5c-0.5,0-1-0.4-1-1c0-0.5,0.4-1,1-1h11.7c0.5,0,1,0.4,1,1
		C19.2,32.7,18.7,33.1,18.2,33.1z M18.2,23.9H6.5c-0.5,0-1-0.4-1-1c0-0.5,0.4-1,1-1h11.7c0.5,0,1,0.4,1,1
		C19.2,23.5,18.7,23.9,18.2,23.9z"/>
	<polygon fill="#F7A93B" points="37.4,16.4 38.7,17.1 39.6,15.6 35.8,15.6 	"/>
</g>
</svg>
