<?xml version="1.0" encoding="utf-8"?>
<!-- Generator: Adobe Illustrator 18.0.0, SVG Export Plug-In . SVG Version: 6.00 Build 0)  -->
<!DOCTYPE svg PUBLIC "-//W3C//DTD SVG 1.1//EN" "http://www.w3.org/Graphics/SVG/1.1/DTD/svg11.dtd">
<svg version="1.1" id="Layer_1" xmlns="http://www.w3.org/2000/svg" xmlns:xlink="http://www.w3.org/1999/xlink" x="0px" y="0px"
	 viewBox="0 0 48 48" enable-background="new 0 0 48 48" xml:space="preserve">
<g>
	<path fill="#E77528" d="M41,0.5H7c-3.6,0-6.5,3-6.5,6.6v0.6c0,3.7,2.9,6.6,6.5,6.6h0.8V8.1c0-2.4,1.9-4.3,4.3-4.3h23.9
		c2.3,0,4.3,1.9,4.3,4.3v6.2H41c3.6,0,6.5-3,6.5-6.6V7.1C47.5,3.5,44.6,0.5,41,0.5z"/>
	<path fill="#0DB89A" d="M24,9.2c-3.3,0-6,2.7-6,6.1s2.7,6.1,6,6.1c3.3,0,6-2.7,6-6.1S27.3,9.2,24,9.2z"/>
	<path fill="#F04B36" d="M35.9,5.9H12.1c-1.2,0-2.2,1-2.2,2.3v37.1c0,1.3,1,2.3,2.2,2.3h23.9c1.2,0,2.2-1,2.2-2.3V8.1
		C38.2,6.9,37.2,5.9,35.9,5.9z M24,23.3c-4.4,0-8-3.6-8-8.1s3.6-8.1,8-8.1c4.4,0,8,3.6,8,8.1S28.4,23.3,24,23.3z"/>
</g>
</svg>
