<?xml version="1.0" encoding="utf-8"?>
<!-- Generator: Adobe Illustrator 18.0.0, SVG Export Plug-In . SVG Version: 6.00 Build 0)  -->
<!DOCTYPE svg PUBLIC "-//W3C//DTD SVG 1.1//EN" "http://www.w3.org/Graphics/SVG/1.1/DTD/svg11.dtd">
<svg version="1.1" id="Layer_1" xmlns="http://www.w3.org/2000/svg" xmlns:xlink="http://www.w3.org/1999/xlink" x="0px" y="0px"
	 viewBox="0 0 48 48" enable-background="new 0 0 48 48" xml:space="preserve">
<g>
	<path fill="#4DA0D8" d="M46.9,16.2c-0.5-0.2-1.1,0-1.3,0.5c0,0-1.4,2.9-4.6,3.5c0,0-0.1,0-0.1,0C38.8,13.3,30.7,8.1,21,8.1
		c-0.8,0-1.6,0.1-2.3,0.1c-2.7-3.2-6.8-3.7-9.1-3.7c-1.2,0-2,0.1-2,0.1c-0.1,0-0.2,0.1-0.2,0.2c0,0.1,0,0.2,0.1,0.2
		c1.5,1.5,3.1,4.7,3,8c-0.1,3.5-2.8,6.2-6.2,6.2c-0.8,0-1.6-0.2-2.3-0.5c-0.1,0-0.3,0-0.3,0.1c-0.7,1.6-1.1,3.3-1.1,5
		c0,1.1,0.2,2.2,0.5,3.3c0,0.1,0.1,0.2,0.2,0.2c4.4,0.7,7.6,4.4,7.6,8.8c0,0,0,0.1,0,0.1c0,0,0,0.1,0,0.1v6.9c0,0.1,0.1,0.2,0.2,0.2
		h4.8c0.1,0,0.2-0.1,0.2-0.2v-4.7c4.8,1.3,9.7,1.2,14.2-0.1v4.8c0,0.1,0.1,0.2,0.2,0.2h4.8c0.1,0,0.2-0.1,0.2-0.2v-7.1
		c5-3,7.8-7.5,7.8-12.4c0-0.6,0-1.1-0.1-1.6c0,0,0,0,0,0c4.2-0.8,6-4.5,6.1-4.6C47.6,17,47.4,16.5,46.9,16.2z M15.6,20.3
		c-1,0-1.9-0.9-1.9-2.1c0-1.2,0.8-2.1,1.9-2.1c1,0,1.9,0.9,1.9,2.1C17.5,19.4,16.7,20.3,15.6,20.3z M28.4,22.2
		c-0.6,0.6-1.5,0.6-2.1,0.1l-1.2-1.2v6.8c0,0.8-0.7,1.5-1.5,1.5c-0.8,0-1.5-0.7-1.5-1.5V21l-1.6,1.4c-0.3,0.2-0.6,0.4-1,0.4
		c-0.4,0-0.8-0.2-1.1-0.5c-0.5-0.6-0.5-1.5,0.1-2.1l4-3.5c0.6-0.5,1.4-0.5,2,0l3.7,3.5C28.9,20.7,29,21.6,28.4,22.2z"/>
</g>
</svg>
