<?xml version="1.0" encoding="utf-8"?>
<!-- Generator: Adobe Illustrator 18.0.0, SVG Export Plug-In . SVG Version: 6.00 Build 0)  -->
<!DOCTYPE svg PUBLIC "-//W3C//DTD SVG 1.1//EN" "http://www.w3.org/Graphics/SVG/1.1/DTD/svg11.dtd">
<svg version="1.1" id="Layer_1" xmlns="http://www.w3.org/2000/svg" xmlns:xlink="http://www.w3.org/1999/xlink" x="0px" y="0px"
	 viewBox="0 0 48 48" enable-background="new 0 0 48 48" xml:space="preserve">
<g>
	<path fill="#E8B944" d="M46.9,16.2c-0.5-0.2-1.1,0-1.3,0.5c0,0-1.4,2.9-4.6,3.5c0,0-0.1,0-0.1,0C38.8,13.3,30.7,8.1,21,8.1
		c-0.8,0-1.6,0.1-2.3,0.1c-2.7-3.2-6.8-3.7-9.1-3.7c-1.2,0-2,0.1-2,0.1c-0.1,0-0.2,0.1-0.2,0.2c0,0.1,0,0.2,0.1,0.2
		c1.5,1.5,3.1,4.7,3,8c-0.1,3.5-2.8,6.2-6.2,6.2c-0.8,0-1.6-0.2-2.3-0.5c-0.1,0-0.3,0-0.3,0.1c-0.7,1.6-1.1,3.3-1.1,5
		c0,1.1,0.2,2.2,0.5,3.3c0,0.1,0.1,0.2,0.2,0.2c4.4,0.7,7.6,4.4,7.6,8.8c0,0,0,0.1,0,0.1c0,0,0,0.1,0,0.1v6.9c0,0.1,0.1,0.2,0.2,0.2
		h4.8c0.1,0,0.2-0.1,0.2-0.2v-4.7c4.8,1.3,9.7,1.2,14.2-0.1v4.8c0,0.1,0.1,0.2,0.2,0.2h4.8c0.1,0,0.2-0.1,0.2-0.2v-7.1
		c5-3,7.8-7.5,7.8-12.4c0-0.6,0-1.1-0.1-1.6c0,0,0,0,0,0c4.2-0.8,6-4.5,6.1-4.6C47.6,17,47.4,16.5,46.9,16.2z M15.5,20.3
		c-1,0-1.9-0.9-1.9-2.1c0-1.2,0.8-2.1,1.9-2.1c1,0,1.9,0.9,1.9,2.1C17.4,19.4,16.6,20.3,15.5,20.3z M27.5,30.5v1.9h-1.2v-1.9
		c-1.1,0-2.3-0.4-3-0.8l0.5-1.2c0.7,0.4,1.7,0.8,2.8,0.8c1.4,0,2.3-0.8,2.3-1.8c0-1-0.8-1.7-2.2-2.2c-2-0.7-3.2-1.6-3.2-3.2
		c0-1.5,1.1-2.7,2.9-3v-1.9h1.2v1.8c1.2,0,2,0.3,2.5,0.7l-0.5,1.2c-0.4-0.2-1.2-0.6-2.4-0.6c-1.5,0-2.1,0.9-2.1,1.6
		c0,1,0.7,1.5,2.4,2.1c2,0.8,3,1.8,3,3.4C30.5,28.8,29.5,30.2,27.5,30.5z"/>
</g>
</svg>
