<?xml version="1.0" encoding="utf-8"?>
<!-- Generator: Adobe Illustrator 18.0.0, SVG Export Plug-In . SVG Version: 6.00 Build 0)  -->
<!DOCTYPE svg PUBLIC "-//W3C//DTD SVG 1.1//EN" "http://www.w3.org/Graphics/SVG/1.1/DTD/svg11.dtd">
<svg version="1.1" id="Layer_1" xmlns="http://www.w3.org/2000/svg" xmlns:xlink="http://www.w3.org/1999/xlink" x="0px" y="0px"
	 viewBox="0 0 48 48" enable-background="new 0 0 48 48" xml:space="preserve">
<g>
	<path fill="#F04B36" d="M30.5,23.4c-1.8,0-2.7,2.1-2.7,4.8c0,2.7,1,4.7,2.7,4.7c1.9,0,2.7-2,2.7-4.8C33.2,25.5,32.4,23.4,30.5,23.4
		z"/>
	<path fill="#F04B36" d="M19.5,19.4c0-2.6-0.7-4.7-2.7-4.7c-1.8,0-2.7,2.1-2.7,4.8c-0.1,2.7,0.9,4.7,2.7,4.7
		C18.7,24.2,19.5,22.2,19.5,19.4z"/>
	<path fill="#F04B36" d="M47.5,27.9c0-0.1,0-0.2-0.1-0.2l-5.7-5.8l3.8-7.2c0-0.1,0-0.2,0-0.2c0-0.1-0.1-0.1-0.2-0.1l-7.9-1.8
		l-0.6-8.1c0-0.1,0-0.2-0.1-0.2c-0.1,0-0.1-0.1-0.2,0l-7.6,2.8l-4.9-6.5c-0.1-0.1-0.3-0.1-0.4,0l-4.9,6.5l-7.6-2.8
		c-0.1,0-0.2,0-0.2,0c-0.1,0-0.1,0.1-0.1,0.2l-0.6,8.1l-7.9,1.8c-0.1,0-0.1,0.1-0.2,0.1c0,0.1,0,0.2,0,0.2l3.8,7.2l-5.7,5.8
		c-0.1,0.1-0.1,0.1-0.1,0.2c0,0.1,0.1,0.1,0.1,0.2L7.7,32L6,40c0,0.1,0,0.2,0.1,0.2c0.1,0.1,0.1,0.1,0.2,0.1l8-0.6l2.8,7.6
		c0,0.1,0.1,0.1,0.2,0.2c0,0,0,0,0.1,0c0.1,0,0.1,0,0.1-0.1l6.5-4.9l6.5,4.9c0.1,0,0.1,0.1,0.2,0c0.1,0,0.1-0.1,0.2-0.2l2.8-7.6
		l8,0.6c0.1,0,0.2,0,0.2-0.1C42,40.1,42,40,42,40l-1.7-8l7.1-3.9C47.4,28,47.5,28,47.5,27.9z M11.9,19.5c0-4.2,2.3-6.6,5-6.6
		c2.9,0,4.9,2.3,4.9,6.3c0,4.5-2.3,6.7-5,6.7C14.1,25.9,11.9,23.8,11.9,19.5z M18.4,34.8h-1.8l12.3-21.8h1.8L18.4,34.8z M30.4,34.6
		c-2.6,0-4.9-2.1-4.9-6.3c0-4.3,2.3-6.6,5.1-6.6c2.9,0,4.8,2.3,4.8,6.3C35.4,32.4,33.1,34.6,30.4,34.6z"/>
</g>
</svg>
