<?xml version="1.0" encoding="utf-8"?>
<!-- Generator: Adobe Illustrator 18.0.0, SVG Export Plug-In . SVG Version: 6.00 Build 0)  -->
<!DOCTYPE svg PUBLIC "-//W3C//DTD SVG 1.1//EN" "http://www.w3.org/Graphics/SVG/1.1/DTD/svg11.dtd">
<svg version="1.1" id="Layer_1" xmlns="http://www.w3.org/2000/svg" xmlns:xlink="http://www.w3.org/1999/xlink" x="0px" y="0px"
	 viewBox="0 0 48 48" enable-background="new 0 0 48 48" xml:space="preserve">
<g>
	<path fill="#4DA0D8" d="M47.5,27.9c0-0.1,0-0.2-0.1-0.2l-5.7-5.8l3.8-7.2c0-0.1,0-0.2,0-0.2c0-0.1-0.1-0.1-0.2-0.1l-7.9-1.8
		l-0.6-8.1c0-0.1,0-0.2-0.1-0.2c-0.1,0-0.2-0.1-0.2,0l-7.6,2.8l-4.9-6.5c-0.1-0.1-0.3-0.1-0.4,0l-4.9,6.5l-7.6-2.8
		c-0.1,0-0.2,0-0.2,0c-0.1,0-0.1,0.1-0.1,0.2l-0.6,8.1l-7.9,1.8c-0.1,0-0.1,0.1-0.2,0.1c0,0.1,0,0.2,0,0.2l3.8,7.2l-5.7,5.8
		c-0.1,0.1-0.1,0.1-0.1,0.2c0,0.1,0.1,0.1,0.1,0.2L7.7,32L6,40c0,0.1,0,0.2,0.1,0.2c0.1,0.1,0.1,0.1,0.2,0.1l8-0.6l2.8,7.6
		c0,0.1,0.1,0.1,0.2,0.2c0.1,0,0.2,0,0.2,0l6.5-4.9l6.5,4.9c0,0,0.1,0.1,0.1,0.1c0,0,0,0,0.1,0c0.1,0,0.1-0.1,0.2-0.2l2.8-7.6l8,0.6
		c0.1,0,0.2,0,0.2-0.1C42,40.1,42,40,42,40l-1.7-8l7.1-3.9C47.4,28,47.5,28,47.5,27.9z M19.3,29.4h-1.2l-2.8-4.6c-0.6-1-1.2-2-1.7-3
		l0,0c0.1,1.1,0.1,2.2,0.1,3.7v3.9h-1.1v-9.1h1.3l2.9,4.6c0.7,1.1,1.2,2,1.6,2.9l0,0c-0.1-1.2-0.1-2.3-0.1-3.7v-3.8h1.1V29.4z
		 M26.4,29.4h-5v-9.1h4.8v1h-3.7v2.9H26v1h-3.5v3.3h3.9V29.4z M35.6,29.4h-1.2l-1.1-4.7c-0.3-1.2-0.5-2-0.6-3h0
		c-0.2,0.9-0.4,1.8-0.7,3l-1.3,4.7h-1.2l-2.3-9.1h1.2l1.1,4.6c0.3,1.1,0.5,2.3,0.7,3.1h0c0.1-0.9,0.4-2,0.7-3.1l1.2-4.6h1.2l1.1,4.6
		c0.3,1.1,0.5,2.2,0.6,3.1h0c0.2-1,0.4-2,0.7-3.1l1.2-4.6h1.2L35.6,29.4z"/>
</g>
</svg>
