<?xml version="1.0" encoding="utf-8"?>
<!-- Generator: Adobe Illustrator 18.0.0, SVG Export Plug-In . SVG Version: 6.00 Build 0)  -->
<!DOCTYPE svg PUBLIC "-//W3C//DTD SVG 1.1//EN" "http://www.w3.org/Graphics/SVG/1.1/DTD/svg11.dtd">
<svg version="1.1" id="Layer_1" xmlns="http://www.w3.org/2000/svg" xmlns:xlink="http://www.w3.org/1999/xlink" x="0px" y="0px"
	 viewBox="0 0 48 48" enable-background="new 0 0 48 48" xml:space="preserve">
<g>
	<path fill="#0DB89A" d="M16.2,21.7c0-1.3-1-1.8-2.4-1.8c-0.7,0-1,0.1-1.3,0.1v3.6h1.3C15.3,23.6,16.2,22.8,16.2,21.7z"/>
	<path fill="#0DB89A" d="M13.7,24.7h-1.2v4.3c0.3,0,0.7,0.1,1.2,0.1c1.5,0,2.8-0.5,2.8-2.2C16.5,25.3,15.2,24.7,13.7,24.7z"/>
	<path fill="#0DB89A" d="M47.5,27.9c0-0.1,0-0.2-0.1-0.2l-5.7-5.8l3.8-7.2c0-0.1,0-0.2,0-0.2c0-0.1-0.1-0.1-0.2-0.1l-7.9-1.8
		l-0.6-8.1c0-0.1,0-0.2-0.1-0.2c-0.1,0-0.1-0.1-0.2,0l-7.6,2.8l-4.9-6.5c-0.1-0.1-0.3-0.1-0.4,0l-4.9,6.5l-7.6-2.8
		c-0.1,0-0.2,0-0.2,0c-0.1,0-0.1,0.1-0.1,0.2l-0.6,8.1l-7.9,1.8c-0.1,0-0.1,0.1-0.2,0.1c0,0.1,0,0.2,0,0.2l3.8,7.2l-5.7,5.8
		c-0.1,0.1-0.1,0.1-0.1,0.2c0,0.1,0.1,0.1,0.1,0.2L7.7,32L6,40c0,0.1,0,0.2,0.1,0.2c0.1,0.1,0.1,0.1,0.2,0.1l8-0.6l2.8,7.6
		c0,0.1,0.1,0.1,0.2,0.2c0.1,0,0.2,0,0.2,0l6.5-4.9l6.5,4.9c0,0,0.1,0.1,0.1,0.1c0,0,0,0,0.1,0c0.1,0,0.1-0.1,0.2-0.2l2.8-7.6l8,0.6
		c0.1,0,0.2,0,0.2-0.1C42,40.1,42,40,42,40l-1.7-8l7.1-3.9C47.4,28,47.5,28,47.5,27.9z M17.1,29.1c-0.8,0.7-2,1-3.8,1
		c-1,0-1.7-0.1-2.2-0.1V19c0.6-0.1,1.6-0.2,2.6-0.2c1.4,0,2.3,0.2,3,0.8c0.6,0.4,0.9,1.1,0.9,2c0,1.1-0.7,2-1.9,2.5v0
		c1,0.3,2.3,1.1,2.3,2.8C18,27.8,17.6,28.5,17.1,29.1z M28.1,25.4c0,3.4-1.8,4.8-4.2,4.8c-2.3,0-4-1.3-4-4.8v-6.6h1.4v6.6
		c0,2.5,1.1,3.6,2.6,3.6c1.6,0,2.7-1.1,2.7-3.6v-6.6h1.4V25.4z M34.5,25.3V30H33v-4.7l-3.5-6.4h1.6l1.6,3.1c0.4,0.8,0.8,1.5,1.1,2.3
		h0c0.3-0.7,0.7-1.5,1.1-2.3l1.6-3.1h1.6L34.5,25.3z"/>
</g>
</svg>
