<?xml version="1.0" encoding="utf-8"?>
<!-- Generator: Adobe Illustrator 18.0.0, SVG Export Plug-In . SVG Version: 6.00 Build 0)  -->
<!DOCTYPE svg PUBLIC "-//W3C//DTD SVG 1.1//EN" "http://www.w3.org/Graphics/SVG/1.1/DTD/svg11.dtd">
<svg version="1.1" id="Layer_1" xmlns="http://www.w3.org/2000/svg" xmlns:xlink="http://www.w3.org/1999/xlink" x="0px" y="0px"
	 viewBox="0 0 48 48" enable-background="new 0 0 48 48" xml:space="preserve">
<g>
	<path fill="#0DB89A" d="M23.6,41c0.2,0.1,0.4,0.2,0.6,0.2c0.3,0,0.6-0.1,0.8-0.4c0.3-0.4,0.2-1.1-0.3-1.4l-13.1-8.7
		c-0.5-0.3-1.1-0.2-1.4,0.2c-0.3,0.4-0.2,1.1,0.3,1.4L23.6,41z"/>
	<path fill="#0DB89A" d="M40.2,37.9l-17.3,7.5L6.4,34.1c-0.2-0.1-0.4-0.2-0.6-0.2H1.5c-0.6,0-1,0.4-1,1c0,0.5,0.5,1,1,1h4l16.7,11.4
		c0.2,0.1,0.4,0.2,0.6,0.2c0.1,0,0.3,0,0.4-0.1L41,39.7c0.5-0.2,0.7-0.8,0.5-1.3C41.3,37.9,40.7,37.7,40.2,37.9z"/>
	<path fill="#F04B36" d="M20.4,28.3c0.2,0,0.4,0,0.6,0c3.4,0,6.2-2.5,6.5-5.7c0.3-3.4-2.4-6.5-6-6.8c-3.6-0.3-6.8,2.3-7.1,5.7
		C14.1,25,16.8,28,20.4,28.3z"/>
	<path fill="#E8B944" d="M46,19.7c-1.1-1.3-2.7-2.1-4.4-2.2c-3.6-0.3-6.8,2.3-7.1,5.7c-0.1,1.7,0.4,3.3,1.5,4.6
		c1.1,1.3,2.7,2.1,4.5,2.2c0.2,0,0.4,0,0.6,0c3.4,0,6.2-2.5,6.5-5.7C47.6,22.6,47.1,21,46,19.7z"/>
	<path fill="#06728D" d="M32,13c0.2,0,0.4,0,0.6,0c3.4,0,6.2-2.5,6.5-5.7c0.2-1.7-0.4-3.3-1.5-4.6c-1.1-1.3-2.7-2.1-4.5-2.2
		c-3.6-0.3-6.8,2.3-7.1,5.7c-0.1,1.7,0.4,3.3,1.5,4.6C28.7,12.1,30.2,12.8,32,13z"/>
</g>
</svg>
