<?xml version="1.0" encoding="utf-8"?>
<!-- Generator: Adobe Illustrator 18.0.0, SVG Export Plug-In . SVG Version: 6.00 Build 0)  -->
<!DOCTYPE svg PUBLIC "-//W3C//DTD SVG 1.1//EN" "http://www.w3.org/Graphics/SVG/1.1/DTD/svg11.dtd">
<svg version="1.1" id="Layer_1" xmlns="http://www.w3.org/2000/svg" xmlns:xlink="http://www.w3.org/1999/xlink" x="0px" y="0px"
	 viewBox="0 0 48 48" enable-background="new 0 0 48 48" xml:space="preserve">
<g>
	<path fill="#0DB89A" d="M47.3,26.1H26.2c-0.1,0-0.2,0.1-0.2,0.2v20.9c0,0.1,0.1,0.2,0.2,0.2c11.8,0,21.3-9.5,21.3-21.2
		C47.5,26.2,47.4,26.1,47.3,26.1z"/>
	<path fill="#06728D" d="M11.8,40.4c1,0.5,2,1,3.1,1.3V20.8l-3.1-1V40.4z"/>
	<path fill="#06728D" d="M0.5,21.7c0,4.7,1.6,9.1,4.2,12.6v-17l-3.5-1.2C0.8,17.9,0.5,19.8,0.5,21.7z"/>
	<path fill="#F04B36" d="M12.1,2.9C7.4,5.3,3.7,9.4,1.9,14.3l18.4,6.2L12.1,2.9z"/>
	<path fill="#06728D" d="M6.7,36.6L6.7,36.6c0.9,0.9,2,1.8,3.1,2.6V19.1l-3.1-1V36.6z"/>
	<path fill="#06728D" d="M21.6,23l-4.7-1.6v20.8c1.6,0.4,3.2,0.6,4.9,0.6c0.1,0,0.2-0.1,0.2-0.2V23.1c0,0-0.1,0-0.1,0
		C21.9,23.1,21.8,23.1,21.6,23z"/>
	<path fill="#4DA0D8" d="M43.2,21.7c0-11.7-9.6-21.2-21.3-21.2c-2.8,0-5.5,0.6-8,1.5l8.8,18.9c0.1,0.2,0.1,0.4,0.1,0.5
		c0.1,0.1,0.2,0.3,0.2,0.5h20C43,21.9,43.2,21.8,43.2,21.7z"/>
</g>
</svg>
