<?xml version="1.0" encoding="utf-8"?>
<!-- Generator: Adobe Illustrator 18.0.0, SVG Export Plug-In . SVG Version: 6.00 Build 0)  -->
<!DOCTYPE svg PUBLIC "-//W3C//DTD SVG 1.1//EN" "http://www.w3.org/Graphics/SVG/1.1/DTD/svg11.dtd">
<svg version="1.1" id="Layer_1" xmlns="http://www.w3.org/2000/svg" xmlns:xlink="http://www.w3.org/1999/xlink" x="0px" y="0px"
	 viewBox="0 0 48 48" enable-background="new 0 0 48 48" xml:space="preserve">
<g>
	<path fill="#FFD69A" d="M24,0.5C11,0.5,0.5,11,0.5,24C0.5,37,11,47.5,24,47.5C37,47.5,47.5,37,47.5,24C47.5,11,37,0.5,24,0.5z
		 M24.8,32.3v2.8h-1.7v-2.7c-1.6,0-3.2-0.5-4.1-1.2l0.6-1.8c1,0.6,2.4,1.2,3.9,1.2c1.9,0,3.2-1.1,3.2-2.6c0-1.5-1-2.4-3-3.2
		c-2.7-1.1-4.4-2.3-4.4-4.7c0-2.2,1.6-3.9,4.1-4.3v-2.7h1.7v2.6c1.6,0.1,2.7,0.5,3.5,0.9l-0.7,1.8c-0.6-0.3-1.7-0.9-3.4-0.9
		c-2.1,0-2.9,1.2-2.9,2.3c0,1.4,1,2.1,3.3,3.1c2.8,1.1,4.2,2.5,4.2,4.9C29,29.8,27.6,31.8,24.8,32.3z"/>
</g>
</svg>
