<?xml version="1.0" encoding="utf-8"?>
<!-- Generator: Adobe Illustrator 18.0.0, SVG Export Plug-In . SVG Version: 6.00 Build 0)  -->
<!DOCTYPE svg PUBLIC "-//W3C//DTD SVG 1.1//EN" "http://www.w3.org/Graphics/SVG/1.1/DTD/svg11.dtd">
<svg version="1.1" id="Layer_1" xmlns="http://www.w3.org/2000/svg" xmlns:xlink="http://www.w3.org/1999/xlink" x="0px" y="0px"
	 viewBox="0 0 48 48" enable-background="new 0 0 48 48" xml:space="preserve">
<g>
	<path fill="#F04B36" d="M24,0.5C11,0.5,0.5,11,0.5,24C0.5,37,11,47.5,24,47.5S47.5,37,47.5,24C47.5,11,37,0.5,24,0.5z M27.2,20.9
		v1.6h-8.9c-0.1,0.5-0.1,1-0.1,1.5c0,0.8,0.1,1.5,0.2,2.1h8.8v1.6h-8.3c1.1,2.2,3.2,3.6,6.2,3.6c1.4,0,2.9-0.3,3.8-0.8l0.5,1.9
		c-0.9,0.4-2.6,0.9-4.8,0.9c-3.9,0-7.1-1.9-8.4-5.5h-3v-1.6h2.5c-0.1-0.6-0.2-1.3-0.2-2c0-0.6,0.1-1.1,0.1-1.6h-2.5v-1.6h2.9
		c1.2-3.8,4.5-6.3,9-6.3c2.3,0,3.7,0.5,4.3,0.8l-0.6,1.9c-0.9-0.4-2.2-0.8-3.7-0.8c-3.2,0-5.6,1.5-6.6,4.3H27.2z"/>
</g>
</svg>
