<?xml version="1.0" encoding="utf-8"?>
<!-- Generator: Adobe Illustrator 18.0.0, SVG Export Plug-In . SVG Version: 6.00 Build 0)  -->
<!DOCTYPE svg PUBLIC "-//W3C//DTD SVG 1.1//EN" "http://www.w3.org/Graphics/SVG/1.1/DTD/svg11.dtd">
<svg version="1.1" id="Layer_1" xmlns="http://www.w3.org/2000/svg" xmlns:xlink="http://www.w3.org/1999/xlink" x="0px" y="0px"
	 viewBox="0 0 48 48" enable-background="new 0 0 48 48" xml:space="preserve">
<g>
	<path fill="#CFD0D1" d="M47.3,26.2H26.6c-0.1,0-0.2,0.1-0.2,0.3v20.8c0,0.1,0.1,0.3,0.2,0.3c11.5,0,20.9-9.4,20.9-21
		C47.5,26.3,47.4,26.2,47.3,26.2z"/>
	<path fill="#06728D" d="M42.3,21.5c0-11.6-9.4-21-20.9-21c-11.5,0-20.9,9.4-20.9,21c0,11.6,9.4,21,20.9,21c0.1,0,0.2-0.1,0.2-0.3
		V21.8h20.4C42.2,21.8,42.3,21.7,42.3,21.5z"/>
</g>
</svg>
