<?xml version="1.0" encoding="utf-8"?>
<!-- Generator: Adobe Illustrator 18.0.0, SVG Export Plug-In . SVG Version: 6.00 Build 0)  -->
<!DOCTYPE svg PUBLIC "-//W3C//DTD SVG 1.1//EN" "http://www.w3.org/Graphics/SVG/1.1/DTD/svg11.dtd">
<svg version="1.1" id="Layer_1" xmlns="http://www.w3.org/2000/svg" xmlns:xlink="http://www.w3.org/1999/xlink" x="0px" y="0px"
	 viewBox="0 0 48 48" enable-background="new 0 0 48 48" xml:space="preserve">
<g>
	<path fill="#4DA0D8" d="M47.2,27h-9.9c-0.1,0-0.2,0.1-0.2,0.2c-1.1,4.9-5,8.8-9.9,9.9c-0.1,0-0.2,0.1-0.2,0.2v9.9
		c0,0.1,0,0.1,0.1,0.2c0,0,0.1,0.1,0.2,0.1c0,0,0,0,0,0c10.5-1.4,18.8-9.7,20.2-20.2c0-0.1,0-0.1-0.1-0.2C47.4,27,47.3,27,47.2,27z"
		/>
	<path fill="#F04B36" d="M24.1,10.8c6.2,0,11.5,4.2,13,10.3c0,0.1,0.1,0.2,0.2,0.2h9.9c0,0,0,0,0,0c0.1,0,0.2-0.1,0.2-0.2
		c0,0,0-0.1,0-0.1C45.9,9.3,35.9,0.5,24.1,0.5c-13,0-23.6,10.6-23.6,23.6c0,11.8,8.8,21.8,20.5,23.4c0,0,0,0,0,0
		c0.1,0,0.1,0,0.2-0.1c0.1,0,0.1-0.1,0.1-0.2v-9.9c0-0.1-0.1-0.2-0.2-0.2c-6.1-1.4-10.3-6.8-10.3-13C10.8,16.8,16.7,10.8,24.1,10.8z
		"/>
</g>
</svg>
