<?xml version="1.0" encoding="utf-8"?>
<!-- Generator: Adobe Illustrator 18.0.0, SVG Export Plug-In . SVG Version: 6.00 Build 0)  -->
<!DOCTYPE svg PUBLIC "-//W3C//DTD SVG 1.1//EN" "http://www.w3.org/Graphics/SVG/1.1/DTD/svg11.dtd">
<svg version="1.1" id="Layer_1" xmlns="http://www.w3.org/2000/svg" xmlns:xlink="http://www.w3.org/1999/xlink" x="0px" y="0px"
	 viewBox="0 0 48 48" enable-background="new 0 0 48 48" xml:space="preserve">
<g>
	<path fill="#0DB89A" d="M46.1,15.9C46.1,15.9,46.1,15.9,46.1,15.9l-19.1,0l-0.6,2.5h20.5C46.6,17.5,46.4,16.7,46.1,15.9z"/>
	<path fill="#0DB89A" d="M47.2,20.3H25.9l-0.6,2.5h22.2C47.5,22,47.4,21.2,47.2,20.3z"/>
	<path fill="#0DB89A" d="M43.8,11.3c-0.1,0-0.2,0-0.2,0H28l-0.6,2.5h17.8C44.8,13,44.3,12.2,43.8,11.3z"/>
	<path fill="#0DB89A" d="M37.7,4.9c-2.2-1.6-4.7-2.8-7.4-3.6l-0.8,3.6H37.7z"/>
	<path fill="#0DB89A" d="M30.9,33.8l1.5,2.5h11.1c0.1,0,0.3,0,0.4,0.1c0.5-0.8,1-1.7,1.4-2.6H30.9z"/>
	<path fill="#0DB89A" d="M28.3,29.3l1.5,2.5H46c0,0,0.1,0,0.1,0c0.3-0.8,0.5-1.7,0.7-2.5H28.3z"/>
	<path fill="#F7A93B" d="M23.4,25H0.5C1.1,37.5,11.4,47.5,24,47.5c4,0,7.8-1,11.1-2.8L23.4,25z"/>
	<path fill="#0DB89A" d="M33.6,38.3l3.2,5.4c2.2-1.5,4.2-3.3,5.8-5.4H33.6z"/>
	<path fill="#0DB89A" d="M39.4,6.9H29l-0.6,2.5h14c-0.8-0.9-1.6-1.8-2.5-2.7C39.8,6.8,39.6,6.9,39.4,6.9z"/>
	<path fill="#294E58" d="M23.2,23.1l5.2-22.2C27,0.6,25.5,0.5,24,0.5c-12.7,0-23,10-23.5,22.6H23.2z"/>
	<path fill="#0DB89A" d="M25.6,24.8l1.5,2.5h20.2c0.1-0.8,0.2-1.7,0.2-2.5H25.6z"/>
</g>
</svg>
