<?xml version="1.0" encoding="utf-8"?>
<!-- Generator: Adobe Illustrator 18.0.0, SVG Export Plug-In . SVG Version: 6.00 Build 0)  -->
<!DOCTYPE svg PUBLIC "-//W3C//DTD SVG 1.1//EN" "http://www.w3.org/Graphics/SVG/1.1/DTD/svg11.dtd">
<svg version="1.1" id="Layer_1" xmlns="http://www.w3.org/2000/svg" xmlns:xlink="http://www.w3.org/1999/xlink" x="0px" y="0px"
	 viewBox="0 0 48 48" enable-background="new 0 0 48 48" xml:space="preserve">
<g>
	<path fill="#4DA0D8" d="M10.2,7.6h15.7c0.5,0,1-0.4,1-1s-0.4-1-1-1H10.2c-0.5,0-1,0.4-1,1S9.7,7.6,10.2,7.6z"/>
	<path fill="#4DA0D8" d="M25.9,10.6H10.2c-0.5,0-1,0.4-1,1c0,0.5,0.4,1,1,1h15.7c0.5,0,1-0.4,1-1C26.9,11.1,26.4,10.6,25.9,10.6z"/>
	<path fill="#F04B36" d="M34.1,22.4c-7.2,0-13,5.6-13,12.6c0,6.9,5.9,12.6,13,12.6s13-5.6,13-12.6C47.1,28,41.3,22.4,34.1,22.4z
		 M34.7,41.6v2.3h-1.4v-2.2c-1.3,0-2.7-0.4-3.5-1l0.5-1.5c0.8,0.5,2,0.9,3.3,0.9c1.6,0,2.7-0.9,2.7-2.1c0-1.2-0.9-1.9-2.6-2.6
		c-2.3-0.9-3.7-1.9-3.7-3.8c0-1.8,1.3-3.2,3.4-3.5V26h1.4v2.1c1.4,0,2.3,0.4,2.9,0.8l-0.6,1.4c-0.5-0.3-1.4-0.7-2.9-0.7
		c-1.7,0-2.4,1-2.4,1.9c0,1.1,0.8,1.7,2.8,2.5c2.3,0.9,3.5,2.1,3.5,4C38.3,39.6,37.1,41.3,34.7,41.6z"/>
	<path fill="#CFD0D1" d="M33.2,18.5h-1.3H30h-12c-0.8,0-1.5-0.7-1.5-1.5v-0.5c0-1.1-0.9-1.9-2-1.9H6.1H4.2H2.9c-1.1,0-2,0.9-2,1.9
		v21.9c0,1.1,0.9,1.9,2,1.9h17.3c-0.7-1.7-1.1-3.6-1.1-5.5c0-8,6.7-14.5,15-14.5c0.4,0,0.8,0,1.1,0.1v0
		C35.2,19.4,34.3,18.5,33.2,18.5z"/>
	<path fill="#06728D" d="M6.1,2.4H30v16.1h1.9v-17c0-0.5-0.4-1-1-1H5.2c-0.5,0-1,0.4-1,1v13.2h1.9V2.4z"/>
</g>
</svg>
