<?xml version="1.0" encoding="utf-8"?>
<!-- Generator: Adobe Illustrator 18.0.0, SVG Export Plug-In . SVG Version: 6.00 Build 0)  -->
<!DOCTYPE svg PUBLIC "-//W3C//DTD SVG 1.1//EN" "http://www.w3.org/Graphics/SVG/1.1/DTD/svg11.dtd">
<svg version="1.1" id="Layer_1" xmlns="http://www.w3.org/2000/svg" xmlns:xlink="http://www.w3.org/1999/xlink" x="0px" y="0px"
	 viewBox="0 0 48 48" enable-background="new 0 0 48 48" xml:space="preserve">
<g>
	<path fill="#4DA0D8" d="M4.9,20.8v10.4h6.9c0.2,0,0.5,0.1,0.6,0.3l3.9,3.5h15.3l3.9-3.5c0.2-0.2,0.4-0.3,0.6-0.3h7v-9.8l2.1,9.6h2
		L45,20.4c-0.1-0.5-0.6-0.9-1.2-0.7c-0.3,0.1-0.5,0.2-0.6,0.5c0,0,0,0,0,0V0.7c0-0.1-0.1-0.2-0.2-0.2h-6.5v18.7l-3.6-4.7l-3.7,4.7
		V0.5h-24C5,0.5,4.9,0.6,4.9,0.7v18.8c-0.1-0.2-0.3-0.4-0.6-0.4c-0.5-0.1-1,0.2-1.2,0.7L0.7,31h2L4.9,20.8z"/>
	<path fill="#F04B36" d="M47.4,32.8c-0.2,0.2-0.5,0.4-0.8,0.4h-10l-3.9,3.5c-0.2,0.2-0.4,0.3-0.6,0.3H16c-0.2,0-0.5-0.1-0.6-0.3
		l-3.9-3.5h-10c-0.3,0-0.6-0.1-0.8-0.4c-0.1-0.1-0.1-0.2-0.1-0.3l1.9,14.1c0.1,0.5,0.5,0.9,1,0.9h41.3c0.5,0,0.9-0.4,1-0.9l1.9-14.1
		C47.5,32.6,47.4,32.7,47.4,32.8z"/>
</g>
</svg>
