<?xml version="1.0" encoding="utf-8"?>
<!-- Generator: Adobe Illustrator 18.0.0, SVG Export Plug-In . SVG Version: 6.00 Build 0)  -->
<!DOCTYPE svg PUBLIC "-//W3C//DTD SVG 1.1//EN" "http://www.w3.org/Graphics/SVG/1.1/DTD/svg11.dtd">
<svg version="1.1" id="Layer_1" xmlns="http://www.w3.org/2000/svg" xmlns:xlink="http://www.w3.org/1999/xlink" x="0px" y="0px"
	 viewBox="0 0 48 48" enable-background="new 0 0 48 48" xml:space="preserve">
<g>
	<rect x="0.5" y="10.9" fill="#4DA0D8" width="11" height="36.6"/>
	<rect x="12.6" y="26.8" fill="#F7A93B" width="11" height="20.7"/>
	<rect x="24.5" y="20.3" fill="#0DB89A" width="11" height="27.2"/>
	<rect x="36.5" y="33.9" fill="#CFD0D1" width="11" height="13.6"/>
	<path fill="#E77528" d="M36.3,17.9c0,0.5,0.4,1,1,1h6.3c0.3,0,0.6-0.1,0.7-0.3c0.2-0.2,0.3-0.5,0.2-0.8l-0.9-6.1
		c-0.1-0.5-0.6-0.9-1.1-0.8c-0.5,0.1-0.9,0.6-0.8,1.1l0.5,3.5L28.7,4.5c-0.3-0.3-0.8-0.3-1.2,0L20,9.7L6.2,0.7
		C5.7,0.4,5.1,0.5,4.8,1C4.5,1.4,4.7,2,5.1,2.3l14.4,9.4c0.3,0.2,0.8,0.2,1.1,0L28,6.5l13,10.4h-3.7C36.8,16.9,36.3,17.3,36.3,17.9z
		"/>
</g>
</svg>
