<?xml version="1.0" encoding="utf-8"?>
<!-- Generator: Adobe Illustrator 18.0.0, SVG Export Plug-In . SVG Version: 6.00 Build 0)  -->
<!DOCTYPE svg PUBLIC "-//W3C//DTD SVG 1.1//EN" "http://www.w3.org/Graphics/SVG/1.1/DTD/svg11.dtd">
<svg version="1.1" id="Layer_1" xmlns="http://www.w3.org/2000/svg" xmlns:xlink="http://www.w3.org/1999/xlink" x="0px" y="0px"
	 viewBox="0 0 48 48" enable-background="new 0 0 48 48" xml:space="preserve">
<g>
	<rect x="0.5" y="10.9" fill="#F04B36" width="11" height="36.6"/>
	<rect x="12.6" y="26.8" fill="#4DA0D8" width="11" height="20.7"/>
	<rect x="24.5" y="20.3" fill="#06728D" width="11" height="27.2"/>
	<rect x="36.5" y="33.9" fill="#E8B944" width="11" height="13.6"/>
	<path fill="#0DB89A" d="M6.4,9c0.1,0,0.1,0,0.2,0c0.5-0.1,0.9-0.6,0.8-1.2L6.7,4.2l14.4,10.4c0.4,0.3,0.8,0.2,1.2,0l7.4-5.7
		l14.5,8.6c0.2,0.1,0.3,0.1,0.5,0.1c0.3,0,0.7-0.2,0.8-0.5c0.3-0.5,0.1-1.1-0.4-1.4L30,6.9C29.7,6.7,29.3,6.7,29,7l-7.3,5.7L7.8,2.7
		l3.9-0.2c0.5,0,1-0.5,0.9-1c0-0.5-0.5-1-1-0.9L5.1,0.8C4.9,0.8,4.6,1,4.4,1.2C4.2,1.4,4.2,1.7,4.2,2l1.2,6.2C5.5,8.6,5.9,9,6.4,9z"
		/>
</g>
</svg>
