<?xml version="1.0" encoding="utf-8"?>
<!-- Generator: Adobe Illustrator 18.0.0, SVG Export Plug-In . SVG Version: 6.00 Build 0)  -->
<!DOCTYPE svg PUBLIC "-//W3C//DTD SVG 1.1//EN" "http://www.w3.org/Graphics/SVG/1.1/DTD/svg11.dtd">
<svg version="1.1" id="Layer_1" xmlns="http://www.w3.org/2000/svg" xmlns:xlink="http://www.w3.org/1999/xlink" x="0px" y="0px"
	 viewBox="0 0 48 48" enable-background="new 0 0 48 48" xml:space="preserve">
<g>
	<path fill="#CFD0D1" d="M46.1,44.6H3.3V1.9c0-0.8-0.6-1.4-1.4-1.4c-0.8,0-1.4,0.6-1.4,1.4v44.1c0,0.8,0.6,1.4,1.4,1.4h44.2
		c0.8,0,1.4-0.6,1.4-1.4C47.5,45.3,46.9,44.6,46.1,44.6z"/>
	<path fill="#0DB89A" d="M6.9,41.1h7.4c0.1,0,0.2-0.1,0.2-0.2V28.1c0-0.1-0.1-0.2-0.2-0.2H6.9c-0.1,0-0.2,0.1-0.2,0.2v12.7
		C6.6,41,6.7,41.1,6.9,41.1z"/>
	<path fill="#F04B36" d="M21.4,41.1h7.4c0.1,0,0.2-0.1,0.2-0.2V6c0-0.1-0.1-0.2-0.2-0.2h-7.4c-0.1,0-0.2,0.1-0.2,0.2v34.8
		C21.1,41,21.2,41.1,21.4,41.1z"/>
	<path fill="#4DA0D8" d="M35.8,41.1h7.4c0.1,0,0.2-0.1,0.2-0.2V15.4c0-0.1-0.1-0.2-0.2-0.2h-7.4c-0.1,0-0.2,0.1-0.2,0.2v25.4
		C35.6,41,35.7,41.1,35.8,41.1z"/>
</g>
</svg>
