<?xml version="1.0" encoding="utf-8"?>
<!-- Generator: Adobe Illustrator 18.0.0, SVG Export Plug-In . SVG Version: 6.00 Build 0)  -->
<!DOCTYPE svg PUBLIC "-//W3C//DTD SVG 1.1//EN" "http://www.w3.org/Graphics/SVG/1.1/DTD/svg11.dtd">
<svg version="1.1" id="Layer_1" xmlns="http://www.w3.org/2000/svg" xmlns:xlink="http://www.w3.org/1999/xlink" x="0px" y="0px"
	 viewBox="0 0 48 48" enable-background="new 0 0 48 48" xml:space="preserve">
<g>
	<path fill="#CFD0D1" d="M46.1,44.6H3.3V1.9c0-0.8-0.6-1.4-1.4-1.4c-0.8,0-1.4,0.6-1.4,1.4v44.1c0,0.8,0.6,1.4,1.4,1.4h44.2
		c0.8,0,1.4-0.6,1.4-1.4C47.5,45.3,46.9,44.6,46.1,44.6z"/>
	<path fill="#294E58" d="M40.7,43.5c0.8,0,1.4-0.6,1.4-1.4V30c0-0.8-0.6-1.4-1.4-1.4c-0.8,0-1.4,0.6-1.4,1.4v12.1
		C39.3,42.9,39.9,43.5,40.7,43.5z"/>
	<path fill="#E77528" d="M30.2,43.5c0.8,0,1.4-0.6,1.4-1.4V10.7c0-0.8-0.6-1.4-1.4-1.4c-0.8,0-1.4,0.6-1.4,1.4v31.4
		C28.8,42.9,29.5,43.5,30.2,43.5z"/>
	<path fill="#F04B36" d="M19.8,43.5c0.8,0,1.4-0.6,1.4-1.4V30c0-0.8-0.6-1.4-1.4-1.4c-0.8,0-1.4,0.6-1.4,1.4v12.1
		C18.4,42.9,19,43.5,19.8,43.5z"/>
	<path fill="#0DB89A" d="M9.4,43.5c0.8,0,1.4-0.6,1.4-1.4V10.7c0-0.8-0.6-1.4-1.4-1.4c-0.8,0-1.4,0.6-1.4,1.4v31.4
		C7.9,42.9,8.6,43.5,9.4,43.5z"/>
</g>
</svg>
