<?xml version="1.0" encoding="utf-8"?>
<!-- Generator: Adobe Illustrator 18.0.0, SVG Export Plug-In . SVG Version: 6.00 Build 0)  -->
<!DOCTYPE svg PUBLIC "-//W3C//DTD SVG 1.1//EN" "http://www.w3.org/Graphics/SVG/1.1/DTD/svg11.dtd">
<svg version="1.1" id="Layer_1" xmlns="http://www.w3.org/2000/svg" xmlns:xlink="http://www.w3.org/1999/xlink" x="0px" y="0px"
	 viewBox="0 0 48 48" enable-background="new 0 0 48 48" xml:space="preserve">
<g>
	<path fill="#CFD0D1" d="M46.1,44.6H3.3V1.9c0-0.8-0.6-1.4-1.4-1.4c-0.8,0-1.4,0.6-1.4,1.4v44.1c0,0.8,0.6,1.4,1.4,1.4h44.2
		c0.8,0,1.4-0.6,1.4-1.4C47.5,45.3,46.9,44.6,46.1,44.6z"/>
	<path fill="#0DB89A" d="M6,40.5h12c0.8,0,1.4-0.6,1.4-1.4s-0.6-1.4-1.4-1.4H6c-0.8,0-1.4,0.6-1.4,1.4S5.2,40.5,6,40.5z"/>
	<path fill="#F04B36" d="M6,30.2h31.3c0.8,0,1.4-0.6,1.4-1.4c0-0.8-0.6-1.4-1.4-1.4H6c-0.8,0-1.4,0.6-1.4,1.4
		C4.6,29.5,5.2,30.2,6,30.2z"/>
	<path fill="#06728D" d="M6,19.8h12c0.8,0,1.4-0.6,1.4-1.4c0-0.8-0.6-1.4-1.4-1.4H6c-0.8,0-1.4,0.6-1.4,1.4
		C4.6,19.2,5.2,19.8,6,19.8z"/>
	<path fill="#F7A93B" d="M6,9.5h31.3c0.8,0,1.4-0.6,1.4-1.4c0-0.8-0.6-1.4-1.4-1.4H6C5.2,6.6,4.6,7.2,4.6,8C4.6,8.8,5.2,9.5,6,9.5z"
		/>
</g>
</svg>
