<?xml version="1.0" encoding="utf-8"?>
<!-- Generator: Adobe Illustrator 18.0.0, SVG Export Plug-In . SVG Version: 6.00 Build 0)  -->
<!DOCTYPE svg PUBLIC "-//W3C//DTD SVG 1.1//EN" "http://www.w3.org/Graphics/SVG/1.1/DTD/svg11.dtd">
<svg version="1.1" id="Layer_1" xmlns="http://www.w3.org/2000/svg" xmlns:xlink="http://www.w3.org/1999/xlink" x="0px" y="0px"
	 viewBox="0 0 48 48" enable-background="new 0 0 48 48" xml:space="preserve">
<g>
	<path fill="#06728D" d="M42.9,23.1c-0.8,0-1.5,0.2-2.1,0.6L32.2,6.4c0,0,0-0.1-0.1-0.1c0.2-0.5,0.3-1,0.3-1.6
		c0-2.3-1.8-4.2-4.1-4.2c-2.3,0-4.1,1.9-4.1,4.2c0,1.5,0.8,2.8,1.9,3.6l-6.2,30.3c-0.2,0-0.5-0.1-0.7-0.1c-0.5,0-1,0.1-1.4,0.3
		L8.4,27.7c0.6-0.7,1-1.7,1-2.7c0-2.3-1.8-4.2-4.1-4.2c-2.3,0-4.1,1.9-4.1,4.2c0,2.3,1.8,4.2,4.1,4.2c0.2,0,0.4,0,0.5-0.1l9.8,11.6
		c-0.3,0.6-0.5,1.3-0.5,2c0,2.3,1.8,4.2,4.1,4.2c2.3,0,4.1-1.9,4.1-4.2c0-0.9-0.3-1.7-0.7-2.4L29,8.9c0.4-0.1,0.7-0.2,1-0.3
		l8.9,17.8c-0.1,0.3-0.1,0.6-0.1,0.9c0,2.3,1.8,4.2,4.1,4.2c2.3,0,4.1-1.9,4.1-4.2C47,25,45.1,23.1,42.9,23.1z"/>
	<ellipse fill="#F04B36" cx="28.5" cy="6.1" rx="5.5" ry="5.6"/>
	<ellipse fill="#294E58" cx="42" cy="27.3" rx="5.5" ry="5.5"/>
	<ellipse fill="#E77528" cx="6" cy="25.3" rx="5.5" ry="5.5"/>
	<ellipse fill="#4DA0D8" cx="19.2" cy="42" rx="5.5" ry="5.5"/>
</g>
</svg>
