<?xml version="1.0" encoding="utf-8"?>
<!-- Generator: Adobe Illustrator 18.0.0, SVG Export Plug-In . SVG Version: 6.00 Build 0)  -->
<!DOCTYPE svg PUBLIC "-//W3C//DTD SVG 1.1//EN" "http://www.w3.org/Graphics/SVG/1.1/DTD/svg11.dtd">
<svg version="1.1" id="Layer_1" xmlns="http://www.w3.org/2000/svg" xmlns:xlink="http://www.w3.org/1999/xlink" x="0px" y="0px"
	 viewBox="0 0 48 48" enable-background="new 0 0 48 48" xml:space="preserve">
<g>
	<path fill="#CFD0D1" d="M1.9,33.4c-0.8,0-1.4,0.6-1.4,1.4v11.3c0,0.8,0.6,1.4,1.4,1.4c0.8,0,1.4-0.6,1.4-1.4V34.8
		C3.4,34,2.7,33.4,1.9,33.4z"/>
	<path fill="#4DA0D8" d="M16.6,26.3c-0.8,0-1.4,0.6-1.4,1.4v18.4c0,0.8,0.6,1.4,1.4,1.4c0.8,0,1.4-0.6,1.4-1.4V27.7
		C18.1,26.9,17.4,26.3,16.6,26.3z"/>
	<path fill="#0DB89A" d="M31.4,18.7c-0.8,0-1.4,0.6-1.4,1.4v26c0,0.8,0.6,1.4,1.4,1.4c0.8,0,1.4-0.6,1.4-1.4v-26
		C32.8,19.3,32.1,18.7,31.4,18.7z"/>
	<path fill="#E77528" d="M46.1,3.1c-0.8,0-1.4,0.6-1.4,1.4v41.6c0,0.8,0.6,1.4,1.4,1.4c0.8,0,1.4-0.6,1.4-1.4V4.5
		C47.5,3.7,46.9,3.1,46.1,3.1z"/>
	<path fill="#F04B36" d="M31.4,1.4c-0.1-0.4-0.4-0.7-0.8-0.8c-0.4-0.1-0.8-0.1-1.1,0.1l-6,3.1c-0.7,0.4-1,1.2-0.6,1.9
		c0.4,0.7,1.2,1,1.9,0.6l3.2-1.6C21.2,24.7,3.9,21,3.1,20.8c-0.8-0.2-1.5,0.3-1.7,1.1c-0.2,0.8,0.3,1.5,1.1,1.7
		c0.1,0,1.8,0.4,4.3,0.4c6.4,0,18-2.3,23.5-17.7l1.2,2.9c0.2,0.6,0.8,0.9,1.3,0.9c0.2,0,0.4,0,0.5-0.1c0.7-0.3,1.1-1.1,0.8-1.9
		L31.4,1.4z"/>
</g>
</svg>
