<?xml version="1.0" encoding="utf-8"?>
<!-- Generator: Adobe Illustrator 18.0.0, SVG Export Plug-In . SVG Version: 6.00 Build 0)  -->
<!DOCTYPE svg PUBLIC "-//W3C//DTD SVG 1.1//EN" "http://www.w3.org/Graphics/SVG/1.1/DTD/svg11.dtd">
<svg version="1.1" id="Layer_1" xmlns="http://www.w3.org/2000/svg" xmlns:xlink="http://www.w3.org/1999/xlink" x="0px" y="0px"
	 viewBox="0 0 48 48" enable-background="new 0 0 48 48" xml:space="preserve">
<g>
	<path fill="#F04B36" d="M46.3,11.6H1.7c-0.7,0-1.2,0.6-1.2,1.3v22.3c0,0.7,0.6,1.3,1.2,1.3h44.5c0.7,0,1.2-0.6,1.2-1.3V12.8
		C47.5,12.1,46.9,11.6,46.3,11.6z M8.2,26c-1.1,0-2-0.9-2-2c0-1.1,0.9-2,2-2c1.1,0,2,0.9,2,2C10.1,25.1,9.2,26,8.2,26z M24,30.7
		c-3.7,0-6.7-3-6.7-6.7c0-3.7,3-6.7,6.7-6.7c3.7,0,6.7,3,6.7,6.7C30.7,27.7,27.7,30.7,24,30.7z M39.8,26c-1.1,0-2-0.9-2-2
		c0-1.1,0.9-2,2-2c1.1,0,2,0.9,2,2C41.8,25.1,40.9,26,39.8,26z"/>
</g>
</svg>
