<?xml version="1.0" encoding="utf-8"?>
<!-- Generator: Adobe Illustrator 18.0.0, SVG Export Plug-In . SVG Version: 6.00 Build 0)  -->
<!DOCTYPE svg PUBLIC "-//W3C//DTD SVG 1.1//EN" "http://www.w3.org/Graphics/SVG/1.1/DTD/svg11.dtd">
<svg version="1.1" id="Layer_1" xmlns="http://www.w3.org/2000/svg" xmlns:xlink="http://www.w3.org/1999/xlink" x="0px" y="0px"
	 viewBox="0 0 48 48" enable-background="new 0 0 48 48" xml:space="preserve">
<g>
	<path fill="#E77528" d="M17.2,0.5C8,0.5,0.5,7.8,0.5,16.7c0,8.9,7.5,16.2,16.7,16.2c1.7,0,3.4-0.3,5-0.8c0.6-2.4,1.9-4.6,3.7-6.4
		v-5.9c0-4.6,2.7-8.5,6.5-9.8C29.8,4.3,23.9,0.5,17.2,0.5z M18.1,25.3v2.9h-1.8v-2.9c-1.7,0-3.4-0.5-4.5-1.2l0.7-1.9
		c1,0.7,2.6,1.2,4.2,1.2c2.1,0,3.5-1.2,3.5-2.8c0-1.6-1.1-2.5-3.3-3.4c-3-1.1-4.8-2.4-4.8-4.9c0-2.3,1.7-4.1,4.4-4.5V5.1h1.8v2.7
		c1.7,0.1,2.9,0.5,3.8,1l-0.7,1.9c-0.6-0.3-1.8-1-3.7-1c-2.2,0-3.1,1.3-3.1,2.4c0,1.5,1.1,2.2,3.6,3.2c3,1.2,4.5,2.7,4.5,5.2
		C22.7,22.8,21.1,24.9,18.1,25.3z"/>
	<path fill="#06728D" d="M43.4,26.5v-6.7c0-4.6-3.3-8.3-7.4-8.3h-0.6c-4.1,0-7.4,3.7-7.4,8.3v6.7c-2.5,2.2-4.1,5.4-4.1,9
		c0,6.6,5.3,11.9,11.9,11.9c6.5,0,11.9-5.4,11.9-11.9C47.5,32,45.9,28.7,43.4,26.5z M36.8,37.4v4.8h-2.2v-4.8
		c-1.3-0.5-2.2-1.7-2.2-3.2c0-1.9,1.5-3.4,3.3-3.4c1.8,0,3.3,1.5,3.3,3.4C39,35.7,38,36.9,36.8,37.4z M41.4,25.1
		c-1.7-1-3.7-1.5-5.8-1.5c-2.1,0-4.1,0.6-5.8,1.5v-5.3c0-3.4,2.4-6.1,5.5-6.1H36c3,0,5.5,2.7,5.5,6.1V25.1z"/>
</g>
</svg>
