<?xml version="1.0" encoding="utf-8"?>
<!-- Generator: Adobe Illustrator 18.0.0, SVG Export Plug-In . SVG Version: 6.00 Build 0)  -->
<!DOCTYPE svg PUBLIC "-//W3C//DTD SVG 1.1//EN" "http://www.w3.org/Graphics/SVG/1.1/DTD/svg11.dtd">
<svg version="1.1" id="Layer_1" xmlns="http://www.w3.org/2000/svg" xmlns:xlink="http://www.w3.org/1999/xlink" x="0px" y="0px"
	 viewBox="0 0 48 48" enable-background="new 0 0 48 48" xml:space="preserve">
<g>
	<path fill="#06728D" d="M23.8,12.8c-2.4,0-4.4,1.4-4.6,3.2c-0.1,0.8,0.2,1.6,0.8,2.3c0.9,1,2.3,1.5,3.9,1.5c1.6,0,3-0.6,3.8-1.5
		c0.4-0.5,0.9-1.3,0.8-2.3C28.3,14.3,26.2,12.8,23.8,12.8z"/>
	<path fill="#E77528" d="M47.4,23.4L41.6,8.7c-0.3-0.9-1.3-1.5-2.3-1.5h-31C7.3,7.2,6.4,7.8,6,8.7L0.6,23.4C0.4,24,0.5,24.5,0.8,25
		c0.3,0.4,0.8,0.7,1.4,0.7h43.7c0.6,0,1.1-0.3,1.4-0.7C47.5,24.5,47.6,24,47.4,23.4z M12.5,15.1c-0.2,0.7-1,1.3-2,1.3
		c-0.9,0-1.5-0.6-1.3-1.3c0.2-0.7,1.1-1.3,1.9-1.3C12,13.8,12.6,14.4,12.5,15.1z M29.2,19.7c-1.2,1.4-3.2,2.2-5.3,2.2
		c-2.1,0-4-0.8-5.3-2.2c-1-1.1-1.5-2.5-1.3-3.8c0.3-2.9,3.1-5,6.5-5c3.4,0,6.3,2.1,6.6,5C30.6,17.2,30.2,18.6,29.2,19.7z M37.3,16.4
		c-0.9,0-1.8-0.6-2-1.3c-0.2-0.7,0.4-1.3,1.3-1.3c0.9,0,1.8,0.6,2,1.3C38.8,15.8,38.2,16.4,37.3,16.4z"/>
	<path fill="#0DB89A" d="M45.3,28.7H2.7c-0.5,0-1,0.4-1,1c0,0.5,0.4,1,1,1h42.5c0.5,0,1-0.4,1-1C46.3,29.2,45.8,28.7,45.3,28.7z"/>
	<path fill="#F04B36" d="M45.3,33.8H2.7c-0.5,0-1,0.4-1,1c0,0.5,0.4,1,1,1h42.5c0.5,0,1-0.4,1-1C46.3,34.2,45.8,33.8,45.3,33.8z"/>
	<path fill="#06728D" d="M45.3,38.9H2.7c-0.5,0-1,0.4-1,1c0,0.5,0.4,1,1,1h42.5c0.5,0,1-0.4,1-1C46.3,39.3,45.8,38.9,45.3,38.9z"/>
</g>
</svg>
