<?xml version="1.0" encoding="utf-8"?>
<!-- Generator: Adobe Illustrator 18.0.0, SVG Export Plug-In . SVG Version: 6.00 Build 0)  -->
<!DOCTYPE svg PUBLIC "-//W3C//DTD SVG 1.1//EN" "http://www.w3.org/Graphics/SVG/1.1/DTD/svg11.dtd">
<svg version="1.1" id="Layer_1" xmlns="http://www.w3.org/2000/svg" xmlns:xlink="http://www.w3.org/1999/xlink" x="0px" y="0px"
	 viewBox="0 0 48 48" enable-background="new 0 0 48 48" xml:space="preserve">
<g>
	<path fill="#F7A93B" d="M8.1,39.5h31.7V14.6H8.1V39.5z M24,16c6.1,0,11,5,11,11c0,6.1-5,11-11,11c-6.1,0-11-5-11-11
		C13,21,17.9,16,24,16z"/>
	<path fill="#4DA0D8" d="M24,36.2c5,0,9.1-4.1,9.1-9.1c0-5-4.1-9.1-9.1-9.1c-5,0-9.1,4.1-9.1,9.1C14.9,32.1,19,36.2,24,36.2z
		 M22.7,24.5l1.6-4l1.6,4l4.3,0.2l-3.3,2.7l1.1,4.2l-3.6-2.3l-3.6,2.3l1.1-4.2l-3.3-2.7L22.7,24.5z"/>
	<path fill="#06728D" d="M42.7,0.5H5.3c-2.6,0-4.8,2.2-4.8,4.8v37.4c0,2.6,2.2,4.8,4.8,4.8h37.4c2.6,0,4.8-2.2,4.8-4.8V5.3
		C47.5,2.7,45.3,0.5,42.7,0.5z M20.6,6.9h3.6v1.9h-3.6V6.9z M13.9,6.9h3.6v1.9h-3.6V6.9z M7.2,6.9h3.6v1.9H7.2V6.9z M41.8,40.4
		c0,0.5-0.4,1-1,1H7.2c-0.5,0-1-0.4-1-1V13.6c0-0.5,0.4-1,1-1h33.6c0.5,0,1,0.4,1,1V40.4z"/>
</g>
</svg>
