<?xml version="1.0" encoding="utf-8"?>
<!-- Generator: Adobe Illustrator 18.0.0, SVG Export Plug-In . SVG Version: 6.00 Build 0)  -->
<!DOCTYPE svg PUBLIC "-//W3C//DTD SVG 1.1//EN" "http://www.w3.org/Graphics/SVG/1.1/DTD/svg11.dtd">
<svg version="1.1" id="Layer_1" xmlns="http://www.w3.org/2000/svg" xmlns:xlink="http://www.w3.org/1999/xlink" x="0px" y="0px"
	 viewBox="0 0 48 48" enable-background="new 0 0 48 48" xml:space="preserve">
<g>
	<path fill="#9E926A" d="M12.2,35.8c0-0.1-0.1-0.2-0.2-0.2H2.6c-0.1,0-0.2,0.1-0.2,0.2L0.5,47.2c0,0.1,0,0.1,0.1,0.2
		c0,0.1,0.1,0.1,0.2,0.1h13c0,0,0,0,0,0c0.1,0,0.2-0.1,0.2-0.2c0,0,0-0.1,0-0.1L12.2,35.8z"/>
	<path fill="#F04B36" d="M28.9,35.8c0-0.1-0.1-0.2-0.2-0.2h-9.3c-0.1,0-0.2,0.1-0.2,0.2l-1.9,11.5c0,0.1,0,0.1,0.1,0.2
		c0,0.1,0.1,0.1,0.2,0.1h13c0,0,0,0,0,0c0.1,0,0.2-0.1,0.2-0.2c0,0,0-0.1,0-0.1L28.9,35.8z"/>
	<path fill="#0DB89A" d="M47.5,47.1l-1.8-11.4c0-0.1-0.1-0.2-0.2-0.2h-9.3c-0.1,0-0.2,0.1-0.2,0.2L34,47.2c0,0.1,0,0.1,0.1,0.2
		c0,0.1,0.1,0.1,0.2,0.1h13c0,0,0,0,0,0c0.1,0,0.2-0.1,0.2-0.2C47.5,47.2,47.5,47.2,47.5,47.1z"/>
	<path fill="#FFD69A" d="M9.1,29.7h13c0,0,0,0,0,0c0.1,0,0.2-0.1,0.2-0.2c0,0,0-0.1,0-0.1L20.5,18c0-0.1-0.1-0.2-0.2-0.2H11
		c-0.1,0-0.2,0.1-0.2,0.2L8.9,29.5c0,0.1,0,0.1,0.1,0.2C9,29.7,9,29.7,9.1,29.7z"/>
	<path fill="#E77528" d="M27.5,18l-1.9,11.5c0,0.1,0,0.1,0.1,0.2c0,0.1,0.1,0.1,0.2,0.1h13c0,0,0,0,0,0c0.1,0,0.2-0.1,0.2-0.2
		c0,0,0-0.1,0-0.1L37.3,18c0-0.1-0.1-0.2-0.2-0.2h-9.3C27.6,17.8,27.5,17.9,27.5,18z"/>
	<path fill="#F7A93B" d="M17.5,12.5h13c0,0,0,0,0,0c0.1,0,0.2-0.1,0.2-0.2c0,0,0-0.1,0-0.1L28.9,0.7c0-0.1-0.1-0.2-0.2-0.2h-9.3
		c-0.1,0-0.2,0.1-0.2,0.2l-1.9,11.5c0,0.1,0,0.1,0.1,0.2C17.3,12.4,17.4,12.5,17.5,12.5z"/>
</g>
</svg>
