<?xml version="1.0" encoding="utf-8"?>
<!-- Generator: Adobe Illustrator 18.0.0, SVG Export Plug-In . SVG Version: 6.00 Build 0)  -->
<!DOCTYPE svg PUBLIC "-//W3C//DTD SVG 1.1//EN" "http://www.w3.org/Graphics/SVG/1.1/DTD/svg11.dtd">
<svg version="1.1" id="Layer_1" xmlns="http://www.w3.org/2000/svg" xmlns:xlink="http://www.w3.org/1999/xlink" x="0px" y="0px"
	 viewBox="0 0 48 48" enable-background="new 0 0 48 48" xml:space="preserve">
<g>
	<path fill="#E8B944" d="M46.1,44.7H3.3V1.9c0-0.8-0.6-1.4-1.4-1.4S0.5,1.1,0.5,1.9v44.2c0,0.8,0.6,1.4,1.4,1.4h44.2
		c0.8,0,1.4-0.6,1.4-1.4C47.5,45.3,46.9,44.7,46.1,44.7z"/>
	<path fill="#06728D" d="M11.2,42.1c2.7,0,4.9-2.2,4.9-4.9c0-1.7-0.9-3.2-2.1-4c0,0,0,0,0,0l3.2-12.7c0.4,0.1,0.8,0.2,1.3,0.2
		c1.2,0,2.3-0.5,3.2-1.2c0,0,0.1,0,0.1,0.1l7.5,4.5c0,0,0,0,0,0c-0.1,0.3-0.1,0.6-0.1,1c0,2.7,2.2,4.9,4.9,4.9
		c2.7,0,4.9-2.2,4.9-4.9c0-1.4-0.6-2.6-1.5-3.5c0,0,0-0.1,0.1-0.1l6.8-15.1l0.5,2.4c0.1,0.7,0.7,1.1,1.4,1.1c0.1,0,0.2,0,0.3,0
		c0.8-0.2,1.3-0.9,1.1-1.7l-1.3-6.6c-0.1-0.4-0.4-0.8-0.8-1c-0.4-0.2-0.9-0.2-1.2,0L37.3,4c-0.7,0.3-1,1.2-0.6,1.9
		c0.3,0.7,1.2,1,1.9,0.6l3.3-1.6l-7,15.3c-0.3-0.1-0.6-0.1-0.9-0.1c-1.3,0-2.5,0.5-3.4,1.4l-7.4-4.5c0,0,0,0,0,0
		c0.1-0.4,0.2-0.8,0.2-1.3c0-2.7-2.2-4.9-4.9-4.9c-2.7,0-4.9,2.2-4.9,4.9c0,1.2,0.4,2.3,1.2,3.2c-0.1,0.1-0.2,0.3-0.2,0.5l-3.2,13
		c0,0,0,0,0,0c-2.7,0-4.9,2.2-4.9,4.9C6.4,39.9,8.6,42.1,11.2,42.1z"/>
	<circle fill="#0DB89A" cx="18.6" cy="15.9" r="5.4"/>
	<circle fill="#4DA0D8" cx="33.9" cy="24.9" r="5.4"/>
	<circle fill="#F04B36" cx="11" cy="37.4" r="5.4"/>
</g>
</svg>
