<?xml version="1.0" encoding="utf-8"?>
<!-- Generator: Adobe Illustrator 18.0.0, SVG Export Plug-In . SVG Version: 6.00 Build 0)  -->
<!DOCTYPE svg PUBLIC "-//W3C//DTD SVG 1.1//EN" "http://www.w3.org/Graphics/SVG/1.1/DTD/svg11.dtd">
<svg version="1.1" id="Layer_1" xmlns="http://www.w3.org/2000/svg" xmlns:xlink="http://www.w3.org/1999/xlink" x="0px" y="0px"
	 viewBox="0 0 48 48" enable-background="new 0 0 48 48" xml:space="preserve">
<g>
	<path fill="#06728D" d="M47.3,0.5H0.7c-0.1,0-0.2,0.1-0.2,0.2v46.5c0,0.1,0.1,0.2,0.2,0.2h19.5c0.1,0,0.2-0.1,0.2-0.2V33h7v14.3
		c0,0.1,0.1,0.2,0.2,0.2h19.5c0.1,0,0.2-0.1,0.2-0.2V0.7C47.5,0.6,47.4,0.5,47.3,0.5z M13.4,33v7.1h-7V33H13.4z M6.4,26.4v-7.1h7
		v7.1H6.4z M6.4,12.7V5.6h7v7.1H6.4z M27.5,19.3v7.1h-7v-7.1H27.5z M20.5,12.7V5.6h7v7.1H20.5z M41.6,33v7.1h-7V33H41.6z M34.6,26.4
		v-7.1h7v7.1H34.6z M34.6,12.7V5.6h7v7.1H34.6z"/>
</g>
</svg>
