<?xml version="1.0" encoding="utf-8"?>
<!-- Generator: Adobe Illustrator 18.0.0, SVG Export Plug-In . SVG Version: 6.00 Build 0)  -->
<!DOCTYPE svg PUBLIC "-//W3C//DTD SVG 1.1//EN" "http://www.w3.org/Graphics/SVG/1.1/DTD/svg11.dtd">
<svg version="1.1" id="Layer_1" xmlns="http://www.w3.org/2000/svg" xmlns:xlink="http://www.w3.org/1999/xlink" x="0px" y="0px"
	 viewBox="0 0 48 48" enable-background="new 0 0 48 48" xml:space="preserve">
<g>
	<polygon fill="#CFD0D1" points="43.8,15.3 7.5,15.3 7.5,35.8 9.4,35.8 9.4,17.3 43.8,17.3 	"/>
	<polygon fill="#4DA0D8" points="40.2,11.8 3.8,11.8 3.8,32.2 5.8,32.2 5.8,13.7 40.2,13.7 	"/>
	<polygon fill="#06728D" points="36.8,8.2 0.5,8.2 0.5,28.6 2.4,28.6 2.4,10.1 36.8,10.1 	"/>
	<path fill="#D48D2A" d="M29.6,23.5c-2.9,0-5.2,2.9-5.2,6.4c0,3.5,2.4,6.4,5.2,6.4c2.9,0,5.2-2.9,5.2-6.4
		C34.8,26.3,32.5,23.5,29.6,23.5z M29.9,33.8v1.4h-0.8v-1.4c-0.8,0-1.6-0.3-2.1-0.6l0.3-0.9c0.5,0.3,1.2,0.6,1.9,0.6
		c1,0,1.6-0.6,1.6-1.3c0-0.7-0.5-1.2-1.5-1.6c-1.4-0.5-2.2-1.2-2.2-2.3c0-1.1,0.8-2,2-2.2v-1.4H30v1.3c0.8,0,1.4,0.2,1.8,0.5
		l-0.3,0.9c-0.3-0.2-0.8-0.5-1.7-0.5c-1,0-1.4,0.6-1.4,1.2c0,0.7,0.5,1.1,1.7,1.5c1.4,0.6,2.1,1.3,2.1,2.5
		C32,32.6,31.3,33.6,29.9,33.8z"/>
	<path fill="#0DB89A" d="M11.7,19.8v20h35.8v-20H11.7z M16.7,31c-0.6,0-1.2-0.5-1.2-1.2c0-0.6,0.5-1.2,1.2-1.2
		c0.6,0,1.2,0.5,1.2,1.2C17.8,30.5,17.3,31,16.7,31z M29.6,38.1c-4,0-7.2-3.7-7.2-8.3c0-4.6,3.2-8.3,7.2-8.3c4,0,7.2,3.7,7.2,8.3
		C36.8,34.4,33.5,38.1,29.6,38.1z M42.5,31c-0.6,0-1.2-0.5-1.2-1.2c0-0.6,0.5-1.2,1.2-1.2c0.6,0,1.2,0.5,1.2,1.2
		C43.7,30.5,43.1,31,42.5,31z"/>
</g>
</svg>
