<?xml version="1.0" encoding="utf-8"?>
<!-- Generator: Adobe Illustrator 18.0.0, SVG Export Plug-In . SVG Version: 6.00 Build 0)  -->
<!DOCTYPE svg PUBLIC "-//W3C//DTD SVG 1.1//EN" "http://www.w3.org/Graphics/SVG/1.1/DTD/svg11.dtd">
<svg version="1.1" id="Layer_1" xmlns="http://www.w3.org/2000/svg" xmlns:xlink="http://www.w3.org/1999/xlink" x="0px" y="0px"
	 viewBox="0 0 48 48" enable-background="new 0 0 48 48" xml:space="preserve">
<g>
	<path fill="#E8B944" d="M3.2,29.2L1,29.8C1,30,1,30.2,1,30.4c0,0.1,0,0.2,0,0.3c0,5.2,3.7,9.5,8.3,9.5c4.6,0,8.3-4.2,8.3-9.5
		c0-0.1,0-0.2,0-0.3c0-0.2,0.1-0.3,0-0.5l-2.2-0.6H3.2z"/>
	<path fill="#E8B944" d="M47,29.8l-2.2-0.6H32.6l-2.2,0.6c-0.1,0.2,0,0.4,0,0.5c0,0.1,0,0.2,0,0.3c0,5.2,3.7,9.5,8.3,9.5
		c4.6,0,8.3-4.2,8.3-9.5c0-0.1,0-0.2,0-0.3C47,30.2,47,30,47,29.8z"/>
	<polygon fill="#4DA0D8" points="1,29.8 3.2,29.2 9.3,10.6 15.4,29.2 17.5,29.8 10.7,8.8 7.9,8.8 	"/>
	<path fill="#0DB89A" d="M42.2,8.8c0.8,0,1.4-0.6,1.4-1.4C43.6,6.6,43,6,42.2,6H25.4V1.9c0-0.8-0.6-1.4-1.4-1.4
		c-0.8,0-1.4,0.6-1.4,1.4V6H5.8C5,6,4.4,6.6,4.4,7.4c0,0.8,0.6,1.4,1.4,1.4h2.1h2.8h11.9v35.9h-8c-0.8,0-1.4,0.6-1.4,1.4
		s0.6,1.4,1.4,1.4h18.8c0.8,0,1.4-0.6,1.4-1.4s-0.6-1.4-1.4-1.4h-8V8.8h11.9h2.8H42.2z"/>
	<polygon fill="#4DA0D8" points="37.3,8.8 30.5,29.8 32.6,29.2 38.7,10.6 44.8,29.2 47,29.8 40.1,8.8 	"/>
</g>
</svg>
