<?xml version="1.0" encoding="utf-8"?>
<!-- Generator: Adobe Illustrator 18.0.0, SVG Export Plug-In . SVG Version: 6.00 Build 0)  -->
<!DOCTYPE svg PUBLIC "-//W3C//DTD SVG 1.1//EN" "http://www.w3.org/Graphics/SVG/1.1/DTD/svg11.dtd">
<svg version="1.1" id="Layer_1" xmlns="http://www.w3.org/2000/svg" xmlns:xlink="http://www.w3.org/1999/xlink" x="0px" y="0px"
	 viewBox="0 0 48 48" enable-background="new 0 0 48 48" xml:space="preserve">
<g>
	<path fill="#4DA0D8" d="M46.7,18.8c-0.2-0.8-0.9-1.2-1.7-1.1c-0.8,0.2-1.2,0.9-1.1,1.7c2.1,9.3-2.4,18.8-11,23.1
		c-8.1,4-17.7,2.4-24-4l4.2,0c0.8,0,1.4-0.6,1.4-1.4c0-0.8-0.7-1.4-1.4-1.4l-7.8,0.1c-0.4,0-0.8,0.2-1.1,0.5C4.1,36.6,4,37,4.1,37.4
		l1.7,8.1c0.1,0.7,0.7,1.1,1.4,1.1c0.1,0,0.2,0,0.3,0c0.8-0.2,1.3-0.9,1.1-1.7l-0.8-3.7c4.4,4.1,10.2,6.3,16,6.3
		c3.6,0,7.2-0.8,10.5-2.5C44,40.2,49.1,29.4,46.7,18.8z"/>
	<path fill="#F04B36" d="M4,28.5c-2.1-9.3,2.5-18.8,11-23c8.3-4.1,18.4-2.2,24.6,4.6l-4.2,0c-0.8,0-1.4,0.6-1.4,1.4
		c0,0.8,0.6,1.4,1.4,1.4c0,0,0,0,0,0l7.8-0.1c0.4,0,0.8-0.2,1.1-0.5c0.3-0.3,0.4-0.8,0.3-1.2l-1.7-8.1c-0.2-0.8-0.9-1.3-1.7-1.1
		C40.4,2.2,39.9,3,40,3.7l0.8,3.6c-7.1-7-18-8.9-27.1-4.4C4,7.8-1.1,18.5,1.2,29.1c0.1,0.7,0.7,1.1,1.4,1.1c0.1,0,0.2,0,0.3,0
		C3.7,30,4.2,29.2,4,28.5z"/>
	<path fill="#F7A93B" d="M24.4,11.4c-7.1,0-12.9,5.8-12.9,12.9c0,7.1,5.8,12.9,12.9,12.9c7.1,0,12.9-5.8,12.9-12.9
		C37.3,17.2,31.5,11.4,24.4,11.4z M25.1,32.3v2.8h-1.7v-2.7c-1.6,0-3.2-0.5-4.1-1.2l0.6-1.8c1,0.6,2.4,1.2,3.9,1.2
		c1.9,0,3.2-1.1,3.2-2.6c0-1.5-1-2.4-3-3.2c-2.7-1.1-4.4-2.3-4.4-4.6c0-2.2,1.6-3.9,4-4.3v-2.7h1.7v2.6c1.6,0.1,2.7,0.5,3.5,0.9
		l-0.7,1.8c-0.6-0.3-1.7-0.9-3.4-0.9c-2.1,0-2.8,1.2-2.8,2.3c0,1.4,1,2.1,3.3,3.1c2.8,1.1,4.2,2.5,4.2,4.9
		C29.4,29.9,27.9,31.9,25.1,32.3z"/>
</g>
</svg>
