<?xml version="1.0" encoding="utf-8"?>
<!-- Generator: Adobe Illustrator 18.0.0, SVG Export Plug-In . SVG Version: 6.00 Build 0)  -->
<!DOCTYPE svg PUBLIC "-//W3C//DTD SVG 1.1//EN" "http://www.w3.org/Graphics/SVG/1.1/DTD/svg11.dtd">
<svg version="1.1" id="Layer_1" xmlns="http://www.w3.org/2000/svg" xmlns:xlink="http://www.w3.org/1999/xlink" x="0px" y="0px"
	 viewBox="0 0 48 48" enable-background="new 0 0 48 48" xml:space="preserve">
<g>
	<path fill="#F04B36" d="M20.4,0.5H0.7c-0.1,0-0.2,0.1-0.2,0.2v19.6c0,0.1,0.1,0.2,0.2,0.2h19.6c0.1,0,0.2-0.1,0.2-0.2V0.7
		C20.6,0.6,20.5,0.5,20.4,0.5z M15.8,11.6h-4.2v4.2c0,0.5-0.4,1-1,1c-0.5,0-1-0.4-1-1v-4.2H5.4c-0.5,0-1-0.4-1-1c0-0.5,0.4-1,1-1
		h4.2V5.4c0-0.5,0.4-1,1-1c0.5,0,1,0.4,1,1v4.2h4.2c0.5,0,1,0.4,1,1C16.8,11.1,16.3,11.6,15.8,11.6z"/>
	<path fill="#4DA0D8" d="M20.4,27.4H0.7c-0.1,0-0.2,0.1-0.2,0.2v19.6c0,0.1,0.1,0.2,0.2,0.2h19.6c0.1,0,0.2-0.1,0.2-0.2V27.6
		C20.6,27.5,20.5,27.4,20.4,27.4z M14.9,40.4c0.4,0.4,0.4,1,0,1.4c-0.2,0.2-0.4,0.3-0.7,0.3c-0.3,0-0.5-0.1-0.7-0.3l-3-3l-3,3
		c-0.2,0.2-0.4,0.3-0.7,0.3c-0.3,0-0.5-0.1-0.7-0.3c-0.4-0.4-0.4-1,0-1.4l3-3l-3-3c-0.4-0.4-0.4-1,0-1.4c0.4-0.4,1-0.4,1.4,0l3,3
		l3-3c0.4-0.4,1-0.4,1.4,0c0.4,0.4,0.4,1,0,1.4l-3,3L14.9,40.4z"/>
	<path fill="#0DB89A" d="M47.3,0.5H27.6c-0.1,0-0.2,0.1-0.2,0.2v19.6c0,0.1,0.1,0.2,0.2,0.2h19.6c0.1,0,0.2-0.1,0.2-0.2V0.7
		C47.5,0.6,47.4,0.5,47.3,0.5z M42.6,11.6H32.2c-0.5,0-1-0.4-1-1c0-0.5,0.4-1,1-1h10.4c0.5,0,1,0.4,1,1
		C43.6,11.1,43.2,11.6,42.6,11.6z"/>
	<path fill="#06728D" d="M47.3,27.4H27.6c-0.1,0-0.2,0.1-0.2,0.2v19.6c0,0.1,0.1,0.2,0.2,0.2h19.6c0.1,0,0.2-0.1,0.2-0.2V27.6
		C47.5,27.5,47.4,27.4,47.3,27.4z M42.6,40.6H32.2c-0.5,0-1-0.4-1-1c0-0.5,0.4-1,1-1h10.4c0.5,0,1,0.4,1,1
		C43.6,40.1,43.2,40.6,42.6,40.6z M42.6,36.3H32.2c-0.5,0-1-0.4-1-1c0-0.5,0.4-1,1-1h10.4c0.5,0,1,0.4,1,1
		C43.6,35.8,43.2,36.3,42.6,36.3z"/>
</g>
</svg>
