<?xml version="1.0" encoding="utf-8"?>
<!-- Generator: Adobe Illustrator 18.0.0, SVG Export Plug-In . SVG Version: 6.00 Build 0)  -->
<!DOCTYPE svg PUBLIC "-//W3C//DTD SVG 1.1//EN" "http://www.w3.org/Graphics/SVG/1.1/DTD/svg11.dtd">
<svg version="1.1" id="Layer_1" xmlns="http://www.w3.org/2000/svg" xmlns:xlink="http://www.w3.org/1999/xlink" x="0px" y="0px"
	 viewBox="0 0 48 48" enable-background="new 0 0 48 48" xml:space="preserve">
<g>
	<path fill="#0DB89A" d="M0.8,21.5h46.4c0,0,0,0,0,0c0.1,0,0.2-0.1,0.2-0.2c0-0.1,0-0.1,0-0.1l-5.5-17C41.9,4,41.8,4,41.7,4H6.3
		C6.2,4,6.1,4,6.1,4.1l-5.6,17c0,0.1,0,0.2,0,0.2C0.6,21.5,0.7,21.5,0.8,21.5z M37.8,11.6c0.8,0,1.4,0.5,1.4,1.1
		c0,0.6-0.6,1.1-1.4,1.1c-0.8,0-1.4-0.5-1.4-1.1C36.4,12.1,37,11.6,37.8,11.6z M23.7,13.1c-2.6-0.5-4.2-1.1-4.2-2.2
		c0-1.1,1.5-1.9,3.8-2.1V7.4h1.6v1.3c1.5,0,2.5,0.2,3.3,0.5L27.5,10C27,9.8,26,9.5,24.4,9.5c-1.9,0-2.7,0.6-2.7,1.1
		c0,0.7,0.9,1,3.1,1.5c2.6,0.5,3.9,1.2,3.9,2.4c0,1-1.4,2-4,2.2v1.4h-1.6v-1.3c-1.5,0-3-0.2-3.9-0.6l0.6-0.9
		c0.9,0.3,2.2,0.6,3.6,0.6c1.8,0,3-0.5,3-1.3C26.5,13.9,25.5,13.4,23.7,13.1z M10.2,11.6c0.8,0,1.4,0.5,1.4,1.1
		c0,0.6-0.6,1.1-1.4,1.1c-0.8,0-1.4-0.5-1.4-1.1C8.7,12.1,9.4,11.6,10.2,11.6z"/>
	<path fill="#06728D" d="M1.5,27.6h45c0.5,0,1-0.4,1-1c0-0.5-0.4-1-1-1h-45c-0.5,0-1,0.4-1,1C0.5,27.2,0.9,27.6,1.5,27.6z"/>
	<path fill="#E77528" d="M46.5,31.1h-45c-0.5,0-1,0.4-1,1c0,0.5,0.4,1,1,1h45c0.5,0,1-0.4,1-1C47.5,31.6,47.1,31.1,46.5,31.1z"/>
	<path fill="#4DA0D8" d="M46.5,36.6h-45c-0.5,0-1,0.4-1,1c0,0.5,0.4,1,1,1h45c0.5,0,1-0.4,1-1C47.5,37,47.1,36.6,46.5,36.6z"/>
	<path fill="#F04B36" d="M46.5,42.1h-45c-0.5,0-1,0.4-1,1c0,0.5,0.4,1,1,1h45c0.5,0,1-0.4,1-1C47.5,42.5,47.1,42.1,46.5,42.1z"/>
</g>
</svg>
