<?xml version="1.0" encoding="utf-8"?>
<!-- Generator: Adobe Illustrator 18.0.0, SVG Export Plug-In . SVG Version: 6.00 Build 0)  -->
<!DOCTYPE svg PUBLIC "-//W3C//DTD SVG 1.1//EN" "http://www.w3.org/Graphics/SVG/1.1/DTD/svg11.dtd">
<svg version="1.1" id="Layer_1" xmlns="http://www.w3.org/2000/svg" xmlns:xlink="http://www.w3.org/1999/xlink" x="0px" y="0px"
	 viewBox="0 0 48 48" enable-background="new 0 0 48 48" xml:space="preserve">
<g>
	<path fill="#294E58" d="M28,21.2c-0.7-0.7-0.7-1.7-0.1-2.4l1.8-1.9c0.7-0.7,1.7-0.8,2.2-0.2c0.6,0.6,1.6,0.5,2.2-0.2l2.1-2.2
		c0.7-0.7,0.7-1.8,0-2.5L25.9,1c-0.7-0.7-1.8-0.7-2.4,0l-2.1,2.2c-0.7,0.7-0.8,1.7-0.2,2.3c0.6,0.6,0.5,1.6-0.2,2.3l-9.4,9.7
		c-0.7,0.7-1.7,0.8-2.2,0.2c-0.6-0.6-1.6-0.5-2.2,0.2L5,20.1c-0.7,0.7-0.7,1.8,0,2.5l10.4,10.7c0.7,0.7,1.8,0.7,2.4,0l2.1-2.2
		c0.7-0.7,0.8-1.7,0.2-2.3c-0.6-0.6-0.5-1.6,0.2-2.3l1.8-1.9c0.7-0.7,1.7-0.7,2.4,0.1l16.9,19.5c0.6,0.7,1.7,0.8,2.4,0.1L47,41
		c0.7-0.7,0.6-1.8-0.1-2.4L28,21.2z"/>
	<path fill="#F04B36" d="M0.5,45.7c0,1,0.8,1.8,1.7,1.8h27.1c0.9,0,1.7-0.8,1.7-1.8v-4.5c0-1-0.8-1.8-1.7-1.8H2.2
		c-0.9,0-1.7,0.8-1.7,1.8V45.7z"/>
</g>
</svg>
