<?xml version="1.0" encoding="utf-8"?>
<!-- Generator: Adobe Illustrator 18.0.0, SVG Export Plug-In . SVG Version: 6.00 Build 0)  -->
<!DOCTYPE svg PUBLIC "-//W3C//DTD SVG 1.1//EN" "http://www.w3.org/Graphics/SVG/1.1/DTD/svg11.dtd">
<svg version="1.1" id="Layer_1" xmlns="http://www.w3.org/2000/svg" xmlns:xlink="http://www.w3.org/1999/xlink" x="0px" y="0px"
	 viewBox="0 0 48 48" enable-background="new 0 0 48 48" xml:space="preserve">
<g>
	<path fill="#0DB89A" d="M37.9,24c0-7.7-6.2-13.9-13.9-13.9c-7.7,0-13.9,6.2-13.9,13.9S16.3,37.9,24,37.9
		C31.7,37.9,37.9,31.7,37.9,24z M24.7,31.8v2.6h-1.6v-2.6c-1.5,0-3-0.5-3.9-1.1l0.6-1.7c0.9,0.6,2.2,1.1,3.7,1.1c1.8,0,3-1,3-2.5
		c0-1.4-1-2.3-2.9-3c-2.6-1-4.2-2.2-4.2-4.4c0-2.1,1.5-3.7,3.8-4.1v-2.6h1.6V16c1.5,0.1,2.6,0.5,3.3,0.9l-0.6,1.7
		c-0.5-0.3-1.6-0.9-3.2-0.9c-2,0-2.7,1.2-2.7,2.2c0,1.3,0.9,2,3.2,2.9c2.6,1.1,3.9,2.4,3.9,4.7C28.8,29.5,27.4,31.4,24.7,31.8z"/>
	<path fill="#06728D" d="M21.7,8.8V4.9c0-0.1-0.1-0.2-0.2-0.2h-12V0.7c0-0.1-0.1-0.2-0.2-0.2c-0.1,0-0.2,0-0.3,0.1L0.6,9.1
		c-0.1,0.1-0.1,0.3,0,0.3l8.5,8.5c0,0,0.1,0.1,0.2,0.1c0,0,0.1,0,0.1,0c0.1,0,0.2-0.1,0.2-0.2v-3.9h3C14.8,11.2,18.1,9.3,21.7,8.8z"
		/>
	<path fill="#F04B36" d="M47.4,38.6l-8.5-8.5C38.9,30,38.8,30,38.7,30c-0.1,0-0.2,0.1-0.2,0.2v3.9h-3c-2.3,2.6-5.6,4.5-9.2,5v3.9
		c0,0.1,0.1,0.2,0.2,0.2h12v3.9c0,0.1,0.1,0.2,0.2,0.2c0,0,0.1,0,0.1,0c0.1,0,0.1,0,0.2-0.1l8.5-8.5C47.5,38.8,47.5,38.7,47.4,38.6z
		"/>
</g>
</svg>
