<?xml version="1.0" encoding="utf-8"?>
<!-- Generator: Adobe Illustrator 18.0.0, SVG Export Plug-In . SVG Version: 6.00 Build 0)  -->
<!DOCTYPE svg PUBLIC "-//W3C//DTD SVG 1.1//EN" "http://www.w3.org/Graphics/SVG/1.1/DTD/svg11.dtd">
<svg version="1.1" id="Layer_1" xmlns="http://www.w3.org/2000/svg" xmlns:xlink="http://www.w3.org/1999/xlink" x="0px" y="0px"
	 viewBox="0 0 48 48" enable-background="new 0 0 48 48" xml:space="preserve">
<g>
	<path fill="#F7A93B" d="M31,14.3c-9.1,0-16.5,7.4-16.5,16.5c0,9.1,7.4,16.5,16.5,16.5c9.1,0,16.5-7.4,16.5-16.5
		C47.5,21.7,40.1,14.3,31,14.3z M31.8,39.4v2.9H30v-2.9c-1.6,0-3.3-0.5-4.3-1.2l0.7-1.9c1,0.7,2.5,1.2,4.1,1.2c2,0,3.4-1.2,3.4-2.8
		c0-1.6-1.1-2.5-3.2-3.4C27.8,30.3,26,29,26,26.6c0-2.3,1.7-4.1,4.3-4.5v-2.9H32v2.7c1.7,0.1,2.9,0.5,3.7,1L35,24.8
		c-0.6-0.3-1.8-1-3.6-1c-2.2,0-3,1.3-3,2.4c0,1.5,1,2.2,3.5,3.2c2.9,1.2,4.4,2.7,4.4,5.2C36.3,36.9,34.7,39,31.8,39.4z"/>
	<path fill="#06728D" d="M33.5,7.9V0.9c0-0.1-0.1-0.2-0.2-0.2H0.7c-0.1,0-0.2,0.1-0.2,0.2v6.9H33.5z"/>
	<path fill="#4DA0D8" d="M12.5,30.8c0-1.6,0.2-3.2,0.6-4.7H0.5v7.1c0,0.1,0.1,0.2,0.2,0.2h12C12.6,32.5,12.5,31.7,12.5,30.8z"/>
	<path fill="#0DB89A" d="M17.7,18H0.5v6.1h13.3C14.7,21.8,16.1,19.7,17.7,18z"/>
	<path fill="#F04B36" d="M31,12.3c0.8,0,1.7,0.1,2.5,0.2V9.9h-33V16H20C23.1,13.7,26.9,12.3,31,12.3z"/>
</g>
</svg>
