<?xml version="1.0" encoding="utf-8"?>
<!-- Generator: Adobe Illustrator 18.0.0, SVG Export Plug-In . SVG Version: 6.00 Build 0)  -->
<!DOCTYPE svg PUBLIC "-//W3C//DTD SVG 1.1//EN" "http://www.w3.org/Graphics/SVG/1.1/DTD/svg11.dtd">
<svg version="1.1" id="Layer_1" xmlns="http://www.w3.org/2000/svg" xmlns:xlink="http://www.w3.org/1999/xlink" x="0px" y="0px"
	 viewBox="0 0 48 48" enable-background="new 0 0 48 48" xml:space="preserve">
<g>
	<rect x="0.5" y="39.8" fill="#4DA0D8" width="47" height="7.7"/>
	<path fill="#E77528" d="M47.3,0.5h-9.9c-0.1,0-0.2,0.1-0.2,0.2v33.4c0,0.1,0.1,0.2,0.2,0.2h9.9c0.1,0,0.2-0.1,0.2-0.2V0.7
		C47.5,0.6,47.4,0.5,47.3,0.5z"/>
	<path fill="#0DB89A" d="M19.1,34.4h9.9c0.1,0,0.2-0.1,0.2-0.2V11.5c0-0.1-0.1-0.2-0.2-0.2h-9.9c-0.1,0-0.2,0.1-0.2,0.2v22.6
		C18.8,34.2,18.9,34.4,19.1,34.4z"/>
	<path fill="#F04B36" d="M0.7,34.4h9.9c0.1,0,0.2-0.1,0.2-0.2V20.7c0-0.1-0.1-0.2-0.2-0.2H0.7c-0.1,0-0.2,0.1-0.2,0.2v13.4
		C0.5,34.2,0.6,34.4,0.7,34.4z"/>
</g>
</svg>
