<?xml version="1.0" encoding="utf-8"?>
<!-- Generator: Adobe Illustrator 18.0.0, SVG Export Plug-In . SVG Version: 6.00 Build 0)  -->
<!DOCTYPE svg PUBLIC "-//W3C//DTD SVG 1.1//EN" "http://www.w3.org/Graphics/SVG/1.1/DTD/svg11.dtd">
<svg version="1.1" id="Layer_1" xmlns="http://www.w3.org/2000/svg" xmlns:xlink="http://www.w3.org/1999/xlink" x="0px" y="0px"
	 viewBox="0 0 48 48" enable-background="new 0 0 48 48" xml:space="preserve">
<g>
	<path fill="#465E6B" d="M42,1.1c-2.7,0-4.8,2.2-4.8,4.9c0,1.6,0.8,3,1.9,3.8C34.7,27.6,33,35,32.3,38c-0.4-0.1-0.8-0.2-1.3-0.2
		c-0.2,0-0.4,0-0.6,0.1l-6.8-19.8c1.2-0.9,1.9-2.3,1.9-3.9c0-2.7-2.2-4.9-4.8-4.9c-2.7,0-4.8,2.2-4.8,4.9c0,0.6,0.1,1.1,0.3,1.6
		l-7.9,6.9c-0.8-0.7-1.8-1.1-3-1.1c-2.7,0-4.8,2.2-4.8,4.9c0,2.7,2.2,4.9,4.8,4.9s4.8-2.2,4.8-4.9c0-0.5-0.1-0.9-0.2-1.3l8-7
		c0.8,0.6,1.7,0.9,2.8,0.9c0,0,0.1,0,0.1,0l6.9,20.1c-0.9,0.9-1.6,2.1-1.6,3.5c0,2.7,2.2,4.9,4.8,4.9s4.8-2.2,4.8-4.9
		c0-1.1-0.4-2.1-1-2.9c0.8-3.3,4.3-18.1,7-29c0,0,0.1,0,0.1,0c2.7,0,4.8-2.2,4.8-4.9C46.8,3.3,44.6,1.1,42,1.1z"/>
	<ellipse fill="#E77528" cx="41.7" cy="6.3" rx="5.8" ry="5.8"/>
	<ellipse fill="#4DA0D8" cx="31.2" cy="41.7" rx="5.8" ry="5.8"/>
	<ellipse fill="#F04B36" cx="21" cy="14.3" rx="5.8" ry="5.8"/>
	<ellipse fill="#06728D" cx="6.3" cy="26.8" rx="5.8" ry="5.8"/>
</g>
</svg>
