<?xml version="1.0" encoding="utf-8"?>
<!-- Generator: Adobe Illustrator 18.0.0, SVG Export Plug-In . SVG Version: 6.00 Build 0)  -->
<!DOCTYPE svg PUBLIC "-//W3C//DTD SVG 1.1//EN" "http://www.w3.org/Graphics/SVG/1.1/DTD/svg11.dtd">
<svg version="1.1" id="Layer_1" xmlns="http://www.w3.org/2000/svg" xmlns:xlink="http://www.w3.org/1999/xlink" x="0px" y="0px"
	 viewBox="0 0 48 48" enable-background="new 0 0 48 48" xml:space="preserve">
<g>
	<path fill="#F7A93B" d="M47.3,39.8H0.7c-0.1,0-0.2,0.1-0.2,0.2v7.2c0,0.1,0.1,0.2,0.2,0.2h46.5c0.1,0,0.2-0.1,0.2-0.2V40
		C47.5,39.9,47.4,39.8,47.3,39.8z"/>
	<path fill="#0DB89A" d="M47.3,0.8h-9.9c-0.1,0-0.2,0.1-0.2,0.2v35.1c0,0.1,0.1,0.2,0.2,0.2h9.9c0.1,0,0.2-0.1,0.2-0.2V1
		C47.5,0.9,47.4,0.8,47.3,0.8z"/>
	<path fill="#F04B36" d="M19.1,14.8c-0.1,0-0.2,0.1-0.2,0.2v21.1c0,0.1,0.1,0.2,0.2,0.2h9.9c0.1,0,0.2-0.1,0.2-0.2V15
		c0-0.1-0.1-0.2-0.2-0.2H19.1z"/>
	<path fill="#E77528" d="M0.7,36.4h9.9c0.1,0,0.2-0.1,0.2-0.2V22.7c0-0.1-0.1-0.2-0.2-0.2H0.7c-0.1,0-0.2,0.1-0.2,0.2v13.4
		C0.5,36.2,0.6,36.4,0.7,36.4z"/>
	<path fill="#294E58" d="M2,15.6c0.1,0,0.3,0,0.4-0.1l28.1-8.2l-1.4,2.8c-0.4,0.7-0.1,1.6,0.7,2c0.2,0.1,0.4,0.2,0.7,0.2
		c0.5,0,1.1-0.3,1.3-0.8l3.1-6.3c0.2-0.4,0.2-0.8,0.1-1.2c-0.1-0.4-0.5-0.7-0.8-0.8l-6.3-2.5c-0.8-0.3-1.6,0.1-1.9,0.8
		c-0.3,0.8,0.1,1.6,0.8,1.9l2.9,1.1L1.6,12.7c-0.8,0.2-1.2,1.1-1,1.8C0.8,15.2,1.4,15.6,2,15.6z"/>
</g>
</svg>
