<?xml version="1.0" encoding="utf-8"?>
<!-- Generator: Adobe Illustrator 18.0.0, SVG Export Plug-In . SVG Version: 6.00 Build 0)  -->
<!DOCTYPE svg PUBLIC "-//W3C//DTD SVG 1.1//EN" "http://www.w3.org/Graphics/SVG/1.1/DTD/svg11.dtd">
<svg version="1.1" id="Layer_1" xmlns="http://www.w3.org/2000/svg" xmlns:xlink="http://www.w3.org/1999/xlink" x="0px" y="0px"
	 viewBox="0 0 48 48" enable-background="new 0 0 48 48" xml:space="preserve">
<g>
	<path fill="none" d="M40,10.3L29.5,21.9l-12.7-7.2L5.8,25.8c-0.6,0.6-0.5,1.5,0.1,2c0.3,0.3,0.6,0.4,1,0.4c0.4,0,0.8-0.2,1.1-0.5
		l9.3-9.5l12.8,7.3l12.1-13.4c0.5-0.6,0.5-1.5-0.2-2C41.4,9.6,40.5,9.7,40,10.3z"/>
	<path fill="#06728D" d="M25.5,1.9c0-0.8-0.7-1.4-1.5-1.4c-0.8,0-1.5,0.6-1.5,1.4v3.5h3V1.9z"/>
	<path fill="#06728D" d="M22.5,32.6v2.6L13,45.1c-0.6,0.6-0.5,1.5,0.1,2c0.3,0.2,0.6,0.4,1,0.4c0.4,0,0.8-0.2,1.1-0.5l7.3-7.6v6.7
		c0,0.8,0.7,1.4,1.5,1.4c0.8,0,1.5-0.6,1.5-1.4v-6.7l7.3,7.6c0.3,0.3,0.7,0.5,1.1,0.5c0.4,0,0.7-0.1,1-0.4c0.6-0.5,0.6-1.4,0.1-2
		l-9.5-9.9v-2.6c0,0,0,0,0-0.1L22.5,32.6C22.5,32.5,22.5,32.6,22.5,32.6z"/>
	<path fill="#0DB89A" d="M44.8,5.5H25.5h-3H3.2c-1.5,0-2.7,1.1-2.7,2.4v22.3c0,1.3,1.2,2.4,2.7,2.4h19.3h3h19.3
		c1.5,0,2.7-1.1,2.7-2.4V7.8C47.5,6.5,46.3,5.5,44.8,5.5z M42.2,12.1L30.1,25.5l-12.8-7.3L8,27.8c-0.3,0.3-0.7,0.5-1.1,0.5
		c-0.4,0-0.7-0.1-1-0.4c-0.6-0.5-0.6-1.4-0.1-2l10.9-11.2l12.7,7.2L40,10.3c0.5-0.6,1.5-0.7,2.1-0.2C42.7,10.6,42.8,11.5,42.2,12.1z
		"/>
</g>
</svg>
