<?xml version="1.0" encoding="utf-8"?>
<!-- Generator: Adobe Illustrator 18.0.0, SVG Export Plug-In . SVG Version: 6.00 Build 0)  -->
<!DOCTYPE svg PUBLIC "-//W3C//DTD SVG 1.1//EN" "http://www.w3.org/Graphics/SVG/1.1/DTD/svg11.dtd">
<svg version="1.1" id="Layer_1" xmlns="http://www.w3.org/2000/svg" xmlns:xlink="http://www.w3.org/1999/xlink" x="0px" y="0px"
	 viewBox="0 0 48 48" enable-background="new 0 0 48 48" xml:space="preserve">
<g>
	<path fill="#F7A93B" d="M34.5,17.2c2.7,0,4.8-2.2,4.8-4.8c0-2.7-2.2-4.8-4.8-4.8c-2.7,0-4.8,2.2-4.8,4.8
		C29.7,15,31.8,17.2,34.5,17.2z"/>
	<path fill="#F04B36" d="M47.4,33.7l-4.6-14.5c0-0.1-0.1-0.1-0.2-0.2l-3.7-0.9c-0.1,0-0.2,0-0.3,0.1l-4.2,7.6l-4.2-7.6
		c-0.1-0.1-0.2-0.1-0.3-0.1L26.4,19c-0.1,0-0.1,0.1-0.2,0.2l-4.6,14.5c-0.2,0.6-0.1,1.1,0.1,1.7c0.3,0.5,0.7,0.9,1.3,1.1
		c0.2,0.1,0.4,0.1,0.7,0.1c1,0,1.8-0.6,2.1-1.5l2.7-8.3v11.9c0,0.1,0.1,0.2,0.2,0.2h11.5c0.1,0,0.2-0.1,0.2-0.2V26.7l2.7,8.3
		c0.3,0.9,1.2,1.5,2.1,1.5c0.2,0,0.5,0,0.7-0.1c0.6-0.2,1.1-0.6,1.3-1.1C47.5,34.9,47.6,34.3,47.4,33.7z"/>
	<path fill="#0DB89A" d="M20,36.3c-0.5-1-0.6-2.1-0.3-3.1l4.6-14.5c0.2-0.7,0.8-1.3,1.5-1.4l0.6-0.2c-2.7-3.4-6.8-5.7-11.5-5.7
		c-8,0-14.6,6.5-14.6,14.6C0.5,34,7,40.5,15.1,40.5c2.8,0,5.4-0.8,7.6-2.2c-0.1,0-0.1,0-0.2,0C21.4,38,20.6,37.3,20,36.3z
		 M15.8,33.7v2.6h-1.6v-2.6c-1.5,0-3-0.5-3.9-1.1l0.6-1.7c0.9,0.6,2.2,1.1,3.6,1.1c1.8,0,3-1,3-2.5c0-1.4-1-2.3-2.9-3
		c-2.6-1-4.2-2.2-4.2-4.4c0-2.1,1.5-3.7,3.8-4.1v-2.6H16V18c1.5,0.1,2.6,0.5,3.3,0.9l-0.6,1.7c-0.5-0.3-1.6-0.9-3.2-0.9
		c-1.9,0-2.7,1.2-2.7,2.2c0,1.3,0.9,2,3.1,2.9c2.6,1.1,3.9,2.4,3.9,4.6C19.8,31.4,18.4,33.3,15.8,33.7z"/>
</g>
</svg>
