<?xml version="1.0" encoding="utf-8"?>
<!-- Generator: Adobe Illustrator 18.0.0, SVG Export Plug-In . SVG Version: 6.00 Build 0)  -->
<!DOCTYPE svg PUBLIC "-//W3C//DTD SVG 1.1//EN" "http://www.w3.org/Graphics/SVG/1.1/DTD/svg11.dtd">
<svg version="1.1" id="Layer_1" xmlns="http://www.w3.org/2000/svg" xmlns:xlink="http://www.w3.org/1999/xlink" x="0px" y="0px"
	 viewBox="0 0 48 48" enable-background="new 0 0 48 48" xml:space="preserve">
<path fill="#06728D" d="M42.3,13.9c0-0.1,0-0.1,0-0.2c0,0,0-0.1-0.1-0.1c0-0.1-0.1-0.1-0.1-0.2c0,0,0-0.1-0.1-0.1c0,0,0,0,0,0
	L28.5,0.8c-0.2-0.2-0.5-0.3-0.8-0.2H11.1c-3,0-5.4,2.4-5.4,5.4v36.2c0,3,2.4,5.4,5.4,5.4h25.8c3,0,5.4-2.4,5.4-5.4L42.3,13.9
	C42.3,14,42.3,14,42.3,13.9z M38.3,19l-5.4,13.7c-0.1,0.3-0.4,0.5-0.7,0.6c-0.3,0.1-0.7-0.1-0.9-0.3l-6.8-7.8l-3.7,10.3
	c-0.1,0.3-0.4,0.6-0.7,0.6c-0.3,0.1-0.7-0.1-0.9-0.3l-4.4-5l-3.2,7.4c-0.2,0.4-0.5,0.6-0.9,0.6c-0.1,0-0.3,0-0.4-0.1
	c-0.5-0.2-0.7-0.8-0.5-1.3l3.8-8.8c0.1-0.3,0.4-0.5,0.7-0.6c0.3-0.1,0.7,0.1,0.9,0.3l4.4,4.9l3.7-10.3c0.1-0.3,0.4-0.6,0.7-0.6
	c0.3-0.1,0.7,0.1,0.9,0.3l6.8,7.8l4.9-12.2c0.2-0.5,0.8-0.7,1.2-0.5C38.3,17.9,38.5,18.5,38.3,19z M28.8,13.1V3.7l10.1,9.4H28.8z"/>
</svg>
