<?xml version="1.0" encoding="utf-8"?>
<!-- Generator: Adobe Illustrator 18.0.0, SVG Export Plug-In . SVG Version: 6.00 Build 0)  -->
<!DOCTYPE svg PUBLIC "-//W3C//DTD SVG 1.1//EN" "http://www.w3.org/Graphics/SVG/1.1/DTD/svg11.dtd">
<svg version="1.1" id="Layer_1" xmlns="http://www.w3.org/2000/svg" xmlns:xlink="http://www.w3.org/1999/xlink" x="0px" y="0px"
	 viewBox="0 0 48 48" enable-background="new 0 0 48 48" xml:space="preserve">
<g>
	<path fill="#F04B36" d="M28,12.3c-1.1-0.8-2.4-0.9-4.3-0.6c-1.6,0.2-2.4,0.3-3-0.2c-0.5-0.3-0.6-0.9,0.4-1.4
		c0.9-0.4,1.7-0.5,2.1-0.5l-0.5-0.7c-0.6,0-1.3,0.2-2.2,0.5l-1.2-0.8L18.6,9l1.2,0.9c-1.1,0.7-1.1,1.6-0.1,2.3
		c1,0.7,2.4,0.7,4.3,0.4c1.4-0.2,2.3-0.2,2.9,0.3c0.7,0.5,0.5,1.1-0.4,1.6c-0.8,0.4-1.7,0.5-2.4,0.6l0.5,0.7c0.8,0,1.8-0.2,2.6-0.6
		l1.2,0.9l0.8-0.4l-1.2-0.9C29.1,13.9,28.9,12.9,28,12.3z"/>
	<path fill="#0DB89A" d="M1.1,14.9c-0.3,0.2-0.6,0.5-0.6,0.9c0,0.4,0.1,0.8,0.4,1l13.5,10.1C14.6,27,14.8,27,15,27
		c0.1,0,0.3,0,0.4-0.1l10.1-5.3v-0.2l-15-10.9L1.1,14.9z M11.1,17.9c0.6-0.3,1.5-0.3,2.1,0.1c0.5,0.3,0.5,0.8-0.1,1.1
		c-0.6,0.3-1.5,0.3-2.1-0.1C10.5,18.7,10.5,18.2,11.1,17.9z"/>
	<path fill="#0DB89A" d="M47.5,9.3c0-0.4-0.2-0.8-0.5-1l-14-7.7c-0.2-0.1-0.5-0.1-0.8,0l-8.5,3.9l14.4,10.5l8.9-4.7
		C47.3,10.1,47.5,9.7,47.5,9.3z M36.9,7.3c-0.6,0.3-1.5,0.3-2-0.1c-0.5-0.3-0.5-0.8,0.1-1.1c0.6-0.3,1.5-0.3,2.1,0.1
		C37.5,6.5,37.5,7,36.9,7.3z"/>
	<path fill="#06728D" d="M15,28.9c-0.2,0-0.4-0.1-0.5-0.2L3.6,20.6l-2.5,1.1c-0.3,0.2-0.6,0.5-0.6,0.9c0,0.4,0.1,0.8,0.4,1
		l13.5,10.1c0.2,0.1,0.3,0.2,0.5,0.2c0.1,0,0.3,0,0.4-0.1l10.1-5.3v-5l-10.1,5.3C15.3,28.9,15.1,28.9,15,28.9z"/>
	<path fill="#06728D" d="M47,15.2l-2.9-1.6l-5.9,3.1v5l8.8-4.6c0.3-0.2,0.5-0.6,0.5-1C47.5,15.8,47.3,15.4,47,15.2z"/>
	<path fill="#F04B36" d="M15,35.7c-0.2,0-0.4-0.1-0.5-0.2L3.6,27.4l-2.5,1.1c-0.3,0.2-0.6,0.5-0.6,0.9c0,0.4,0.1,0.8,0.4,1
		l13.5,10.1c0.2,0.1,0.3,0.2,0.5,0.2c0.1,0,0.3,0,0.4-0.1l10.1-5.3v-5l-10.1,5.3C15.3,35.7,15.1,35.7,15,35.7z"/>
	<path fill="#F04B36" d="M47,22l-2.9-1.6l-5.9,3.1v5l8.8-4.6c0.3-0.2,0.5-0.6,0.5-1C47.5,22.6,47.3,22.2,47,22z"/>
	<path fill="#E77528" d="M15,42.5c-0.2,0-0.4-0.1-0.5-0.2L3.6,34.2l-2.5,1.1c-0.3,0.2-0.6,0.5-0.6,0.9c0,0.4,0.1,0.8,0.4,1
		l13.5,10.1c0.2,0.1,0.3,0.2,0.5,0.2c0.1,0,0.3,0,0.4-0.1l10.1-5.3v-5l-10.1,5.3C15.3,42.5,15.1,42.5,15,42.5z"/>
	<path fill="#E77528" d="M47,28.8l-2.9-1.6l-5.9,3.1v5l8.8-4.6c0.3-0.2,0.5-0.5,0.5-1C47.5,29.3,47.3,29,47,28.8z"/>
</g>
</svg>
