<?xml version="1.0" encoding="utf-8"?>
<!-- Generator: Adobe Illustrator 18.0.0, SVG Export Plug-In . SVG Version: 6.00 Build 0)  -->
<!DOCTYPE svg PUBLIC "-//W3C//DTD SVG 1.1//EN" "http://www.w3.org/Graphics/SVG/1.1/DTD/svg11.dtd">
<svg version="1.1" id="Layer_1" xmlns="http://www.w3.org/2000/svg" xmlns:xlink="http://www.w3.org/1999/xlink" x="0px" y="0px"
	 viewBox="0 0 48 48" enable-background="new 0 0 48 48" xml:space="preserve">
<g>
	<path fill="#F7A93B" d="M16.2,17.2C7.5,17.2,0.5,24,0.5,32.4s7,15.1,15.7,15.1c8.6,0,15.7-6.8,15.7-15.1S24.8,17.2,16.2,17.2z
		 M16.9,39.9v2.6h-1.6V40c-1.5,0-3-0.5-3.9-1.1l0.6-1.7c0.9,0.6,2.2,1.1,3.7,1.1c1.8,0,3-1,3-2.4c0-1.4-1-2.2-2.9-2.9
		c-2.6-1-4.2-2.1-4.2-4.3c0-2,1.5-3.6,3.8-4v-2.5H17v2.4c1.5,0,2.6,0.4,3.3,0.9l-0.6,1.6c-0.5-0.3-1.6-0.8-3.2-0.8
		c-2,0-2.7,1.1-2.7,2.1c0,1.3,0.9,1.9,3.2,2.8c2.6,1,3.9,2.3,3.9,4.5C20.9,37.7,19.5,39.5,16.9,39.9z"/>
	<path fill="#F04B36" d="M30.5,10.9c9.5,0,17-2.3,17-5.2c0-2.9-7.5-5.2-17-5.2c-9.5,0-17,2.3-17,5.2C13.5,8.6,21,10.9,30.5,10.9z"/>
	<path fill="#0DB89A" d="M46.6,9.3l-0.2,0.1c-3.7,2.2-10.6,3-15.9,3c-5.2,0-12.2-0.8-15.9-3l-0.2-0.1l-0.1,0.1
		c-0.5,0.5-0.8,1.1-0.8,1.6c0,2.9,7.5,5.2,17,5.2c9.5,0,17-2.3,17-5.2c0-0.6-0.3-1.1-0.8-1.6L46.6,9.3z"/>
	<path fill="#465E6B" d="M16.9,15.3c-0.8-0.3-1.6-0.7-2.3-1l-0.2-0.1l-0.1,0.1c-0.4,0.4-0.6,0.8-0.7,1.2c0.8-0.1,1.7-0.2,2.6-0.2
		C16.4,15.3,16.6,15.3,16.9,15.3z"/>
	<path fill="#06728D" d="M46.6,14.2l-0.2,0.1c-3.7,2.2-10.6,3-15.9,3c-2.2,0-4.7-0.1-7.1-0.5c2.3,1,4.3,2.5,5.9,4.3
		c0.4,0,0.8,0,1.1,0c9.5,0,17-2.3,17-5.2c0-0.6-0.3-1.1-0.8-1.6L46.6,14.2z"/>
	<path fill="#E77528" d="M46.6,19.1l-0.2,0.1c-3.7,2.2-10.6,3-15.9,3c-0.1,0-0.1,0-0.2,0c0.9,1.2,1.6,2.4,2.2,3.8
		c8.6-0.3,15-2.5,15-5.2c0-0.6-0.3-1.1-0.8-1.6L46.6,19.1z"/>
	<path fill="#CFD0D1" d="M46.6,24l-0.2,0.1c-3.2,1.9-8.7,2.8-13.5,3c0.4,1.2,0.7,2.5,0.8,3.8c7.9-0.4,13.8-2.5,13.8-5.1
		c0-0.6-0.3-1.1-0.8-1.6L46.6,24z"/>
	<path fill="#4DA0D8" d="M46.6,28.9L46.4,29c-3,1.8-8,2.7-12.6,2.9c0,0.1,0,0.3,0,0.4c0,1.2-0.1,2.3-0.4,3.4
		c8.1-0.4,14.1-2.5,14.1-5.1c0-0.6-0.3-1.1-0.8-1.6L46.6,28.9z"/>
</g>
</svg>
