<?xml version="1.0" encoding="utf-8"?>
<!-- Generator: Adobe Illustrator 18.0.0, SVG Export Plug-In . SVG Version: 6.00 Build 0)  -->
<!DOCTYPE svg PUBLIC "-//W3C//DTD SVG 1.1//EN" "http://www.w3.org/Graphics/SVG/1.1/DTD/svg11.dtd">
<svg version="1.1" id="Layer_1" xmlns="http://www.w3.org/2000/svg" xmlns:xlink="http://www.w3.org/1999/xlink" x="0px" y="0px"
	 viewBox="0 0 48 48" enable-background="new 0 0 48 48" xml:space="preserve">
<g>
	<path fill="#E77528" d="M30.6,39.8c-0.1-0.1-0.2-0.1-0.3-0.1c-2,0.8-4.1,1.2-6.3,1.2c-5.5,0-10.6-2.6-13.8-7
		c-4.3-6-4.2-14.2,0.2-20l2.1,2.9c0.1,0.1,0.2,0.1,0.3,0.1c0.1,0,0.2-0.1,0.2-0.2l1.6-9.8c0-0.1-0.1-0.3-0.2-0.3L4.6,4.9
		c-0.1,0-0.2,0-0.3,0.1c-0.1,0.1,0,0.2,0,0.3l2.2,3c-7.3,8.2-8,20.5-1.6,29.4c4.4,6.1,11.6,9.8,19.1,9.8c3.5,0,7-0.8,10.1-2.3
		c0.1,0,0.1-0.1,0.1-0.2c0-0.1,0-0.1,0-0.2L30.6,39.8z"/>
	<path fill="#CFD0D1" d="M41.4,39.8c7.4-8.2,8.2-20.6,1.7-29.5C38.7,4.2,31.5,0.5,24,0.5c-3.5,0-7,0.8-10.1,2.3
		c-0.1,0-0.1,0.1-0.1,0.2c0,0.1,0,0.1,0,0.2l3.6,5c0.1,0.1,0.2,0.1,0.3,0.1c2-0.8,4.1-1.2,6.3-1.2c5.5,0,10.6,2.6,13.8,7
		c4.3,6,4.2,14.3-0.3,20.2l-2.2-3.1c-0.1-0.1-0.2-0.1-0.3-0.1c-0.1,0-0.2,0.1-0.2,0.2l-1.6,9.8c0,0.1,0,0.1,0,0.2
		c0,0.1,0.1,0.1,0.2,0.1l9.8,1.6c0,0,0,0,0,0c0.1,0,0.2,0,0.2-0.1c0.1-0.1,0-0.2,0-0.3L41.4,39.8z"/>
</g>
</svg>
