<?xml version="1.0" encoding="utf-8"?>
<!-- Generator: Adobe Illustrator 18.0.0, SVG Export Plug-In . SVG Version: 6.00 Build 0)  -->
<!DOCTYPE svg PUBLIC "-//W3C//DTD SVG 1.1//EN" "http://www.w3.org/Graphics/SVG/1.1/DTD/svg11.dtd">
<svg version="1.1" id="Layer_1" xmlns="http://www.w3.org/2000/svg" xmlns:xlink="http://www.w3.org/1999/xlink" x="0px" y="0px"
	 viewBox="0 0 48 48" enable-background="new 0 0 48 48" xml:space="preserve">
<g>
	<path fill="#0DB89A" d="M25,14.5h10.1l-0.7-0.9c-0.2-0.1-0.3-0.3-0.4-0.5L25,1.8V14.5z"/>
	<polygon fill="#F7A93B" points="37.8,14.5 46.8,14.5 38.7,2.8 36.1,12.4 	"/>
	<path fill="#0DB89A" d="M23,14.5V1.8l-9,11.3c-0.1,0.2-0.2,0.4-0.4,0.5l-0.7,0.9H23z"/>
	<polygon fill="#9E926A" points="12.2,16.6 23,44.8 23,16.6 	"/>
	<polygon fill="#F7A93B" points="10.3,14.5 11.9,12.4 9.3,2.7 1.2,14.5 	"/>
	<path fill="#F04B36" d="M13.5,10.5l8-10H11c-0.1,0-0.1,0-0.2,0.1L13.5,10.5z"/>
	<polygon fill="#4DA0D8" points="38,16.6 26.2,47.4 47.5,16.6 	"/>
	<path fill="#F04B36" d="M34.5,10.5l2.7-9.8l0,0c0-0.1-0.1-0.1-0.2-0.1H26.6L34.5,10.5z"/>
	<polygon fill="#9E926A" points="25,16.6 25,44.8 35.8,16.6 	"/>
	<polygon fill="#4DA0D8" points="10.1,16.6 0.5,16.6 21.9,47.5 	"/>
</g>
</svg>
