<?xml version="1.0" encoding="utf-8"?>
<!-- Generator: Adobe Illustrator 18.0.0, SVG Export Plug-In . SVG Version: 6.00 Build 0)  -->
<!DOCTYPE svg PUBLIC "-//W3C//DTD SVG 1.1//EN" "http://www.w3.org/Graphics/SVG/1.1/DTD/svg11.dtd">
<svg version="1.1" id="Layer_1" xmlns="http://www.w3.org/2000/svg" xmlns:xlink="http://www.w3.org/1999/xlink" x="0px" y="0px"
	 viewBox="0 0 48 48" enable-background="new 0 0 48 48" xml:space="preserve">
<g>
	<path fill="#06728D" d="M18.8,11C12.5,11,7.5,16,7.5,22.3c0,6.2,5.1,11.3,11.3,11.3c6.2,0,11.3-5.1,11.3-11.3
		C30.1,16,25,11,18.8,11z M22.5,17.2l1.5-1.5c0.4-0.4,1-0.4,1.4,0c0.4,0.4,0.4,1,0,1.4l-1.5,1.5c-0.2,0.2-0.4,0.3-0.7,0.3
		c-0.3,0-0.5-0.1-0.7-0.3C22.1,18.2,22.1,17.6,22.5,17.2z M17.8,13.9c0-0.5,0.4-1,1-1c0.5,0,1,0.4,1,1v2.2c0,0.5-0.4,1-1,1
		c-0.5,0-1-0.4-1-1V13.9z M10.4,23.3c-0.5,0-1-0.4-1-1c0-0.5,0.4-1,1-1h2.2c0.5,0,1,0.4,1,1c0,0.5-0.4,1-1,1H10.4z M15.1,27.4
		l-1.5,1.5c-0.2,0.2-0.4,0.3-0.7,0.3c-0.3,0-0.5-0.1-0.7-0.3c-0.4-0.4-0.4-1,0-1.4l1.5-1.5c0.4-0.4,1-0.4,1.4,0
		C15.4,26.4,15.4,27,15.1,27.4z M15.1,18.6c-0.2,0.2-0.4,0.3-0.7,0.3c-0.3,0-0.5-0.1-0.7-0.3L12.1,17c-0.4-0.4-0.4-1,0-1.4
		c0.4-0.4,1-0.4,1.4,0l1.5,1.5C15.4,17.6,15.4,18.2,15.1,18.6z M19.8,30.7c0,0.5-0.4,1-1,1c-0.5,0-1-0.4-1-1v-2.2c0-0.5,0.4-1,1-1
		c0.5,0,1,0.4,1,1V30.7z M19,24.4c-1.2,0-2.1-1-2.1-2.1c0-1.2,1-2.1,2.1-2.1c1.2,0,2.1,1,2.1,2.1C21.2,23.5,20.2,24.4,19,24.4z
		 M25.4,28.9c-0.2,0.2-0.4,0.3-0.7,0.3c-0.3,0-0.5-0.1-0.7-0.3l-1.5-1.5c-0.4-0.4-0.4-1,0-1.4c0.4-0.4,1-0.4,1.4,0l1.5,1.5
		C25.8,27.9,25.8,28.5,25.4,28.9z M28.2,22.3c0,0.5-0.4,1-1,1H25c-0.5,0-1-0.4-1-1c0-0.5,0.4-1,1-1h2.2
		C27.7,21.3,28.2,21.7,28.2,22.3z"/>
	<path fill="#CFD0D1" d="M42.5,0.5h-37c-2.7,0-5,2-5,4.5v33.5c0,2.5,2.2,4.5,5,4.5h1.8c0,2.5,1.8,4.5,3.9,4.5c2.2,0,3.9-2,3.9-4.5
		h17.7c0,2.5,1.8,4.5,3.9,4.5c2.2,0,3.9-2,3.9-4.5h1.8c2.7,0,5-2,5-4.5V5C47.5,2.5,45.3,0.5,42.5,0.5z M18.8,35.6
		c-7.3,0-13.3-6-13.3-13.3C5.5,15,11.4,9,18.8,9C26.1,9,32,15,32,22.3C32,29.6,26.1,35.6,18.8,35.6z M40.5,35.2c0,0.5-0.4,1-1,1
		c-0.5,0-1-0.4-1-1V7.1c0-0.5,0.4-1,1-1c0.5,0,1,0.4,1,1V35.2z"/>
</g>
</svg>
