<?xml version="1.0" encoding="utf-8"?>
<!-- Generator: Adobe Illustrator 18.0.0, SVG Export Plug-In . SVG Version: 6.00 Build 0)  -->
<!DOCTYPE svg PUBLIC "-//W3C//DTD SVG 1.1//EN" "http://www.w3.org/Graphics/SVG/1.1/DTD/svg11.dtd">
<svg version="1.1" id="Layer_1" xmlns="http://www.w3.org/2000/svg" xmlns:xlink="http://www.w3.org/1999/xlink" x="0px" y="0px"
	 viewBox="0 0 48 48" enable-background="new 0 0 48 48" xml:space="preserve">
<g>
	<path fill="#F04B36" d="M24,28.6c5.8,0,10.5-4.7,10.5-10.4S29.8,7.7,24,7.7c-5.8,0-10.5,4.7-10.5,10.4S18.2,28.6,24,28.6z M24,12.7
		c3,0,5.4,2.4,5.4,5.4c0,3-2.4,5.4-5.4,5.4c-3,0-5.4-2.4-5.4-5.4C18.6,15.2,21,12.7,24,12.7z"/>
	<path fill="#06728D" d="M24,21.7c2,0,3.5-1.6,3.5-3.5c0-1.9-1.6-3.5-3.5-3.5c-2,0-3.5,1.6-3.5,3.5C20.5,20.1,22,21.7,24,21.7z"/>
	<path fill="none" d="M24,30.5c6.8,0,12.4-5.5,12.4-12.3c0-6.8-5.6-12.3-12.4-12.3c-6.8,0-12.4,5.5-12.4,12.3
		C11.6,25,17.2,30.5,24,30.5z"/>
	<path fill="#CFD0D1" d="M47.3,45.2l-9.9-14.7c-0.1-0.2-0.2-0.3-0.4-0.4l-1.9,2l4.9,7.3H8l4.9-7.3c0,0,0.1-0.1,0.1-0.2l-2-1.9
		c-0.1,0.1-0.3,0.2-0.4,0.4L0.7,45.2c-0.4,0.7-0.3,1.6,0.4,2c0.2,0.2,0.5,0.3,0.8,0.3c0.4,0,0.9-0.2,1.2-0.6l3-4.5h35.8l3,4.5
		c0.3,0.4,0.7,0.6,1.2,0.6c0.3,0,0.6-0.1,0.8-0.3C47.5,46.8,47.7,45.9,47.3,45.2z"/>
	<path fill="#0DB89A" d="M24,35.8c4.1,0,8-1.4,11-3.8c0,0.1,0,0.1,0.1,0.2l1.9-2c2.9-3.1,4.7-7.3,4.7-12c0-9.7-8-17.7-17.7-17.7
		c-9.8,0-17.7,7.9-17.7,17.7c0,4.6,1.8,8.8,4.7,12l2,1.9C16,34.4,19.9,35.8,24,35.8z M24,5.8c6.8,0,12.4,5.5,12.4,12.3
		c0,6.8-5.6,12.3-12.4,12.3c-6.8,0-12.4-5.5-12.4-12.3C11.6,11.3,17.2,5.8,24,5.8z"/>
</g>
</svg>
