<?xml version="1.0" encoding="utf-8"?>
<!-- Generator: Adobe Illustrator 18.0.0, SVG Export Plug-In . SVG Version: 6.00 Build 0)  -->
<!DOCTYPE svg PUBLIC "-//W3C//DTD SVG 1.1//EN" "http://www.w3.org/Graphics/SVG/1.1/DTD/svg11.dtd">
<svg version="1.1" id="Layer_1" xmlns="http://www.w3.org/2000/svg" xmlns:xlink="http://www.w3.org/1999/xlink" x="0px" y="0px"
	 viewBox="0 0 48 48" enable-background="new 0 0 48 48" xml:space="preserve">
<g>
	<path fill="#06728D" d="M24,0.5C11,0.5,0.5,11,0.5,24C0.5,37,11,47.5,24,47.5S47.5,37,47.5,24C47.5,11,37,0.5,24,0.5z M24,39.5
		c-8.5,0-15.5-6.9-15.5-15.5c0-8.5,6.9-15.5,15.5-15.5S39.5,15.5,39.5,24C39.5,32.5,32.5,39.5,24,39.5z"/>
	<path fill="#CFD0D1" d="M24,10.5c-7.4,0-13.5,6.1-13.5,13.5c0,7.4,6.1,13.5,13.5,13.5S37.5,31.4,37.5,24
		C37.5,16.6,31.4,10.5,24,10.5z M31.4,25H25v6.4c0,0.5-0.4,1-1,1s-1-0.4-1-1V25h-6.4c-0.5,0-1-0.4-1-1s0.4-1,1-1H23v-6.4
		c0-0.5,0.4-1,1-1s1,0.4,1,1V23h6.4c0.5,0,1,0.4,1,1S32,25,31.4,25z"/>
</g>
</svg>
