<?xml version="1.0" encoding="utf-8"?>
<!-- Generator: Adobe Illustrator 18.0.0, SVG Export Plug-In . SVG Version: 6.00 Build 0)  -->
<!DOCTYPE svg PUBLIC "-//W3C//DTD SVG 1.1//EN" "http://www.w3.org/Graphics/SVG/1.1/DTD/svg11.dtd">
<svg version="1.1" id="Layer_1" xmlns="http://www.w3.org/2000/svg" xmlns:xlink="http://www.w3.org/1999/xlink" x="0px" y="0px"
	 viewBox="0 0 48 48" enable-background="new 0 0 48 48" xml:space="preserve">
<g>
	<path fill="#F04B36" d="M36.4,19.2c-1.3,0-2.4,1.1-2.4,2.4c0,1.3,1.1,2.4,2.4,2.4c1.3,0,2.4-1.1,2.4-2.4
		C38.8,20.3,37.8,19.2,36.4,19.2z"/>
	<path fill="none" d="M36.4,16.2c-3,0-5.4,2.4-5.4,5.4c0,3,2.4,5.4,5.4,5.4c3,0,5.4-2.4,5.4-5.4C41.8,18.6,39.4,16.2,36.4,16.2z"/>
	<path fill="none" d="M10,24.6c-0.8,0-1.5,0.7-1.5,1.5v9.4c0,0.8,0.7,1.5,1.5,1.5c0.8,0,1.5-0.7,1.5-1.5v-9.4
		C11.5,25.3,10.9,24.6,10,24.6z"/>
	<path fill="none" d="M10,6.1c-0.8,0-1.5,0.7-1.5,1.5v9.4c0,0.8,0.7,1.5,1.5,1.5c0.8,0,1.5-0.7,1.5-1.5V7.6
		C11.5,6.8,10.9,6.1,10,6.1z"/>
	<path fill="#0DB89A" d="M41.1,0.5H6.9c-3.5,0-6.4,2.9-6.4,6.4v29.4c0,3.5,2.9,6.4,6.4,6.4h2.8h3h22.6h3h2.8c3.5,0,6.4-2.9,6.4-6.4
		V6.9C47.5,3.4,44.6,0.5,41.1,0.5z M11.5,35.6c0,0.8-0.7,1.5-1.5,1.5c-0.8,0-1.5-0.7-1.5-1.5v-9.4c0-0.8,0.7-1.5,1.5-1.5
		c0.8,0,1.5,0.7,1.5,1.5V35.6z M11.5,17.1c0,0.8-0.7,1.5-1.5,1.5c-0.8,0-1.5-0.7-1.5-1.5V7.6c0-0.8,0.7-1.5,1.5-1.5
		c0.8,0,1.5,0.7,1.5,1.5V17.1z M36.4,26.9c-3,0-5.4-2.4-5.4-5.4c0-3,2.4-5.4,5.4-5.4c3,0,5.4,2.4,5.4,5.4
		C41.8,24.5,39.4,26.9,36.4,26.9z"/>
	<path fill="#06728D" d="M35.3,46c0,0.8,0.7,1.5,1.5,1.5c0.8,0,1.5-0.7,1.5-1.5v-3.3h-3V46z"/>
	<path fill="#06728D" d="M9.7,46c0,0.8,0.7,1.5,1.5,1.5c0.8,0,1.5-0.7,1.5-1.5v-3.3h-3V46z"/>
</g>
</svg>
