<?xml version="1.0" encoding="utf-8"?>
<!-- Generator: Adobe Illustrator 18.0.0, SVG Export Plug-In . SVG Version: 6.00 Build 0)  -->
<!DOCTYPE svg PUBLIC "-//W3C//DTD SVG 1.1//EN" "http://www.w3.org/Graphics/SVG/1.1/DTD/svg11.dtd">
<svg version="1.1" id="Layer_1" xmlns="http://www.w3.org/2000/svg" xmlns:xlink="http://www.w3.org/1999/xlink" x="0px" y="0px"
	 viewBox="0 0 48 48" enable-background="new 0 0 48 48" xml:space="preserve">
<g>
	<path fill="#F04B36" d="M25.2,11.2c-5.1,0-9.3,4.2-9.3,9.3c0,5.1,4.2,9.3,9.3,9.3c5.1,0,9.3-4.2,9.3-9.3
		C34.5,15.3,30.4,11.2,25.2,11.2z"/>
	<path fill="none" d="M6.9,4.8c-0.8,0-1.5,0.7-1.5,1.5v7.6c0,0.8,0.7,1.5,1.5,1.5c0.8,0,1.5-0.7,1.5-1.5V6.3
		C8.4,5.4,7.7,4.8,6.9,4.8z"/>
	<path fill="none" d="M6.9,24.6c-0.8,0-1.5,0.7-1.5,1.5v7.6c0,0.8,0.7,1.5,1.5,1.5c0.8,0,1.5-0.7,1.5-1.5v-7.6
		C8.4,25.3,7.7,24.6,6.9,24.6z"/>
	<path fill="none" d="M25.2,8.2C18.5,8.2,13,13.7,13,20.4c0,6.8,5.5,12.3,12.3,12.3c6.8,0,12.3-5.5,12.3-12.3
		C37.5,13.7,32,8.2,25.2,8.2z"/>
	<path fill="none" d="M41.8,10c-0.8,0-1.5,0.7-1.5,1.5v14.6c0,0.8,0.7,1.5,1.5,1.5c0.8,0,1.5-0.7,1.5-1.5V11.5
		C43.3,10.6,42.7,10,41.8,10z"/>
	<path fill="#06728D" d="M30.1,42.4v4.9c0,0.1,0.1,0.2,0.2,0.2h8.5c0.1,0,0.2-0.1,0.2-0.2v-4.9h-8.6H30.1z"/>
	<path fill="#06728D" d="M8.9,47.3c0,0.1,0.1,0.2,0.2,0.2h8.5c0.1,0,0.2-0.1,0.2-0.2v-4.9h-9V47.3z"/>
	<path fill="#CFD0D1" d="M43.3,0.5H4.7c-2.3,0-4.2,1.8-4.2,4v33.9c0,2.2,1.9,4,4.2,4h4.2h9h12.2h0.4h8.6h4.2c2.3,0,4.2-1.8,4.2-4
		V4.5C47.5,2.3,45.6,0.5,43.3,0.5z M8.4,33.7c0,0.8-0.7,1.5-1.5,1.5c-0.8,0-1.5-0.7-1.5-1.5v-7.6c0-0.8,0.7-1.5,1.5-1.5
		c0.8,0,1.5,0.7,1.5,1.5V33.7z M8.4,13.8c0,0.8-0.7,1.5-1.5,1.5c-0.8,0-1.5-0.7-1.5-1.5V6.3c0-0.8,0.7-1.5,1.5-1.5
		c0.8,0,1.5,0.7,1.5,1.5V13.8z M25.2,32.7c-6.8,0-12.3-5.5-12.3-12.3c0-6.8,5.5-12.3,12.3-12.3c6.8,0,12.3,5.5,12.3,12.3
		C37.5,27.2,32,32.7,25.2,32.7z M43.3,26.1c0,0.8-0.7,1.5-1.5,1.5c-0.8,0-1.5-0.7-1.5-1.5V11.5c0-0.8,0.7-1.5,1.5-1.5
		c0.8,0,1.5,0.7,1.5,1.5V26.1z"/>
</g>
</svg>
