<?xml version="1.0" encoding="utf-8"?>
<!-- Generator: Adobe Illustrator 18.0.0, SVG Export Plug-In . SVG Version: 6.00 Build 0)  -->
<!DOCTYPE svg PUBLIC "-//W3C//DTD SVG 1.1//EN" "http://www.w3.org/Graphics/SVG/1.1/DTD/svg11.dtd">
<svg version="1.1" id="Layer_1" xmlns="http://www.w3.org/2000/svg" xmlns:xlink="http://www.w3.org/1999/xlink" x="0px" y="0px"
	 viewBox="0 0 48 48" enable-background="new 0 0 48 48" xml:space="preserve">
<g>
	<path fill="#0DB89A" d="M47.3,0.5H0.7c-0.1,0-0.2,0.1-0.2,0.2v13.1c0,0.1,0.1,0.2,0.2,0.2h46.5c0.1,0,0.2-0.1,0.2-0.2V0.7
		C47.5,0.6,47.4,0.5,47.3,0.5z"/>
	<path fill="#06728D" d="M46.6,17.7H1.4c-0.1,0-0.2,0.1-0.2,0.2c0,0.1,0,0.2,0.1,0.3l17.1,17v12.1c0,0.1,0.1,0.2,0.2,0.2h10.7
		c0.1,0,0.2-0.1,0.2-0.2V35.2l17.1-17c0.1-0.1,0.1-0.2,0.1-0.3C46.8,17.8,46.7,17.7,46.6,17.7z"/>
</g>
</svg>
