<?xml version="1.0" encoding="utf-8"?>
<!-- Generator: Adobe Illustrator 18.0.0, SVG Export Plug-In . SVG Version: 6.00 Build 0)  -->
<!DOCTYPE svg PUBLIC "-//W3C//DTD SVG 1.1//EN" "http://www.w3.org/Graphics/SVG/1.1/DTD/svg11.dtd">
<svg version="1.1" id="Layer_1" xmlns="http://www.w3.org/2000/svg" xmlns:xlink="http://www.w3.org/1999/xlink" x="0px" y="0px"
	 viewBox="0 0 48 48" enable-background="new 0 0 48 48" xml:space="preserve">
<g>
	<path fill="none" d="M19.5,31.3c0.8,0,1.5-0.6,1.5-1.4V13.7c0-0.8-0.7-1.4-1.5-1.4c-0.8,0-1.5,0.6-1.5,1.4v16.2
		C18.1,30.6,18.7,31.3,19.5,31.3z"/>
	<path fill="none" d="M27.6,31.3c0.8,0,1.5-0.6,1.5-1.4V9.5c0-0.8-0.7-1.4-1.5-1.4c-0.8,0-1.5,0.6-1.5,1.4v20.4
		C26.2,30.6,26.8,31.3,27.6,31.3z"/>
	<path fill="none" d="M11.5,31.3c0.8,0,1.5-0.6,1.5-1.4v-8.2c0-0.8-0.7-1.4-1.5-1.4c-0.8,0-1.5,0.6-1.5,1.4v8.2
		C10,30.6,10.6,31.3,11.5,31.3z"/>
	<path fill="none" d="M35.7,31.3c0.8,0,1.5-0.6,1.5-1.4V5.1c0-0.8-0.7-1.4-1.5-1.4c-0.8,0-1.5,0.6-1.5,1.4v24.8
		C34.3,30.6,34.9,31.3,35.7,31.3z"/>
	<path fill="none" d="M37.9,32.2H10.1c-0.8,0-1.5,0.6-1.5,1.4c0,0.8,0.7,1.4,1.5,1.4h27.9c0.8,0,1.5-0.6,1.5-1.4
		C39.4,32.8,38.8,32.2,37.9,32.2z"/>
	<path fill="#0DB89A" d="M22.5,44.6H11.4c-0.8,0-1.5,0.6-1.5,1.4c0,0.8,0.7,1.4,1.5,1.4h25.2c0.8,0,1.5-0.6,1.5-1.4
		c0-0.8-0.7-1.4-1.5-1.4H25.5v-6.3h-3V44.6z"/>
	<path fill="#F7A93B" d="M43.4,0.5H4.6c-2.3,0-4.1,1.9-4.1,4.3v29c0,2.4,1.8,4.3,4.1,4.3h17.9c0,0,0,0.1,0,0.1h3c0-0.1,0-0.1,0-0.1
		h17.9c2.3,0,4.1-1.9,4.1-4.3v-29C47.5,2.4,45.7,0.5,43.4,0.5z M34.3,5.1c0-0.8,0.7-1.4,1.5-1.4c0.8,0,1.5,0.6,1.5,1.4v24.8
		c0,0.8-0.7,1.4-1.5,1.4c-0.8,0-1.5-0.6-1.5-1.4V5.1z M26.2,9.5c0-0.8,0.7-1.4,1.5-1.4c0.8,0,1.5,0.6,1.5,1.4v20.4
		c0,0.8-0.7,1.4-1.5,1.4c-0.8,0-1.5-0.6-1.5-1.4V9.5z M18.1,13.7c0-0.8,0.7-1.4,1.5-1.4c0.8,0,1.5,0.6,1.5,1.4v16.2
		c0,0.8-0.7,1.4-1.5,1.4c-0.8,0-1.5-0.6-1.5-1.4V13.7z M10,21.6c0-0.8,0.7-1.4,1.5-1.4c0.8,0,1.5,0.6,1.5,1.4v8.2
		c0,0.8-0.7,1.4-1.5,1.4c-0.8,0-1.5-0.6-1.5-1.4V21.6z M37.9,35H10.1c-0.8,0-1.5-0.6-1.5-1.4c0-0.8,0.7-1.4,1.5-1.4h27.9
		c0.8,0,1.5,0.6,1.5,1.4C39.4,34.4,38.8,35,37.9,35z"/>
</g>
</svg>
