<?xml version="1.0" encoding="utf-8"?>
<!-- Generator: Adobe Illustrator 18.0.0, SVG Export Plug-In . SVG Version: 6.00 Build 0)  -->
<!DOCTYPE svg PUBLIC "-//W3C//DTD SVG 1.1//EN" "http://www.w3.org/Graphics/SVG/1.1/DTD/svg11.dtd">
<svg version="1.1" id="Layer_1" xmlns="http://www.w3.org/2000/svg" xmlns:xlink="http://www.w3.org/1999/xlink" x="0px" y="0px"
	 viewBox="0 0 48 48" enable-background="new 0 0 48 48" xml:space="preserve">
<g>
	<path fill="#4DA0D8" d="M24,5.3c-2.3,0-4.9,5.3-5.1,13.1h10.1C28.9,10.6,26.3,5.3,24,5.3z"/>
	<path fill="#4DA0D8" d="M18.9,20.3c0.2,7.7,2.8,13.1,5.1,13.1c2.3,0,4.9-5.3,5.1-13.1H18.9z"/>
	<path fill="#4DA0D8" d="M16.9,18.4c0.1-5.4,1.3-9.9,3.2-12.5c-5.8,1.6-10.1,6.5-10.5,12.5H16.9z"/>
	<path fill="#4DA0D8" d="M31.1,18.4h7.3c-0.4-6-4.7-11-10.5-12.5C29.7,8.4,30.9,13,31.1,18.4z"/>
	<path fill="#4DA0D8" d="M31.1,20.3c-0.1,5.4-1.3,9.9-3.2,12.5c5.8-1.6,10.1-6.5,10.5-12.5H31.1z"/>
	<path fill="#4DA0D8" d="M16.9,20.3H9.6c0.4,6,4.7,11,10.5,12.5C18.3,30.2,17.1,25.7,16.9,20.3z"/>
	<path fill="none" d="M24,3.4c-9,0-16.4,7.2-16.4,16c0,8.8,7.3,16,16.4,16c9,0,16.4-7.2,16.4-16C40.4,10.5,33,3.4,24,3.4z"/>
	<path fill="#CFD0D1" d="M43.4,0.5H4.6c-2.3,0-4.1,1.9-4.1,4.3v29c0,2.4,1.8,4.3,4.1,4.3h17.9h2.9h17.9c2.3,0,4.1-1.9,4.1-4.3v-29
		C47.5,2.4,45.7,0.5,43.4,0.5z M24,35.3c-9,0-16.4-7.2-16.4-16c0-8.8,7.3-16,16.4-16c9,0,16.4,7.2,16.4,16
		C40.4,28.1,33,35.3,24,35.3z"/>
	<path fill="#F04B36" d="M22.5,38.3v6.3H11.4c-0.8,0-1.5,0.6-1.5,1.4c0,0.8,0.7,1.4,1.5,1.4h25.2c0.8,0,1.5-0.6,1.5-1.4
		c0-0.8-0.7-1.4-1.5-1.4H25.5v-6.3c0-0.1,0-0.1,0-0.1h-2.9C22.5,38.2,22.5,38.3,22.5,38.3z"/>
</g>
</svg>
