<?xml version="1.0" encoding="utf-8"?>
<!-- Generator: Adobe Illustrator 18.0.0, SVG Export Plug-In . SVG Version: 6.00 Build 0)  -->
<!DOCTYPE svg PUBLIC "-//W3C//DTD SVG 1.1//EN" "http://www.w3.org/Graphics/SVG/1.1/DTD/svg11.dtd">
<svg version="1.1" id="Layer_1" xmlns="http://www.w3.org/2000/svg" xmlns:xlink="http://www.w3.org/1999/xlink" x="0px" y="0px"
	 viewBox="0 0 48 48" enable-background="new 0 0 48 48" xml:space="preserve">
<g>
	<path fill="#F04B36" d="M33.6,19.8c-0.6-0.2-0.8-0.4-0.8-0.8c0-0.3,0.2-0.6,0.7-0.6c0.4,0,0.7,0.1,0.9,0.2l0.2-0.4
		C34.3,18.1,34,18,33.6,18v-0.7h-0.4V18c-0.6,0.1-1,0.5-1,1.1c0,0.6,0.4,0.9,1.1,1.2c0.5,0.2,0.8,0.4,0.8,0.8c0,0.4-0.3,0.7-0.8,0.7
		c-0.4,0-0.7-0.1-1-0.3l-0.2,0.5c0.2,0.2,0.6,0.3,1,0.3v0.7h0.4v-0.7c0.7-0.1,1.1-0.6,1.1-1.2C34.6,20.4,34.3,20.1,33.6,19.8z"/>
	<path fill="#0DB89A" d="M19.3,12.3V28h28.2V12.3H19.3z M23.3,20.8c-0.4,0-0.7-0.3-0.7-0.7c0-0.4,0.3-0.7,0.7-0.7
		c0.4,0,0.7,0.3,0.7,0.7C23.9,20.5,23.6,20.8,23.3,20.8z M33.4,24.6c-2.3,0-4.1-2-4.1-4.4c0-2.4,1.9-4.4,4.1-4.4
		c2.3,0,4.1,2,4.1,4.4C37.5,22.6,35.7,24.6,33.4,24.6z M43.5,20.8c-0.4,0-0.7-0.3-0.7-0.7c0-0.4,0.3-0.7,0.7-0.7
		c0.4,0,0.7,0.3,0.7,0.7C44.2,20.5,43.9,20.8,43.5,20.8z"/>
	<path fill="#294E58" d="M17.2,35.2v4.6H9c-0.8,0-1.5,0.7-1.5,1.5c0,0.8,0.7,1.5,1.5,1.5h19.4c0.8,0,1.5-0.7,1.5-1.5
		c0-0.8-0.7-1.5-1.5-1.5h-8.2v-4.6c0,0,0,0,0-0.1L17.2,35.2C17.2,35.1,17.2,35.2,17.2,35.2z"/>
	<path fill="#CFD0D1" d="M36.9,10.3V8.7c0-1.9-1.4-3.5-3.2-3.5H3.7c-1.8,0-3.2,1.6-3.2,3.5v23c0,1.9,1.4,3.5,3.2,3.5h13.5h3h13.5
		c1.8,0,3.2-1.6,3.2-3.5V30H17.3V10.3H36.9z"/>
</g>
</svg>
