<?xml version="1.0" encoding="utf-8"?>
<!-- Generator: Adobe Illustrator 18.0.0, SVG Export Plug-In . SVG Version: 6.00 Build 0)  -->
<!DOCTYPE svg PUBLIC "-//W3C//DTD SVG 1.1//EN" "http://www.w3.org/Graphics/SVG/1.1/DTD/svg11.dtd">
<svg version="1.1" id="Layer_1" xmlns="http://www.w3.org/2000/svg" xmlns:xlink="http://www.w3.org/1999/xlink" x="0px" y="0px"
	 viewBox="0 0 48 48" enable-background="new 0 0 48 48" xml:space="preserve">
<g>
	<path fill="#E77528" d="M38.3,2.3c-1.9-1.6-4.7-2.2-7.4-1.7l-6,1.1c-4,0.8-7.2,4.3-7.2,8c0.7-0.1,1.3-0.2,2-0.2
		c2.8,0,5.5,0.8,7.9,2.4V9.7c0-0.6,0.4-1,1-1c0.6,0,1,0.4,1,1v28.5c0,0.6-0.4,1-1,1c-0.6,0-1-0.4-1-1V36c-2.4,1.6-5.1,2.4-7.9,2.4
		c-0.6,0-1.2-0.1-1.8-0.1c0.8,3.1,3.5,6,6.9,7l6,1.8c1,0.3,2,0.4,3,0.4c1.7,0,3.3-0.5,4.5-1.4c1.5-1.1,2.3-2.8,2.3-4.7V7.3
		C40.7,5.4,39.8,3.6,38.3,2.3z"/>
	<path fill="#F7A93B" d="M27.5,33.5L27.5,33.5l0.1-19l-0.1-0.1c-2.3-1.9-5-2.8-7.8-2.8c-6.8,0-12.4,5.5-12.4,12.4
		c0,6.8,5.5,12.4,12.4,12.4C22.5,36.4,25.2,35.4,27.5,33.5z"/>
</g>
</svg>
