<?xml version="1.0" encoding="utf-8"?>
<!-- Generator: Adobe Illustrator 18.0.0, SVG Export Plug-In . SVG Version: 6.00 Build 0)  -->
<!DOCTYPE svg PUBLIC "-//W3C//DTD SVG 1.1//EN" "http://www.w3.org/Graphics/SVG/1.1/DTD/svg11.dtd">
<svg version="1.1" id="Layer_1" xmlns="http://www.w3.org/2000/svg" xmlns:xlink="http://www.w3.org/1999/xlink" x="0px" y="0px"
	 viewBox="0 0 48 48" enable-background="new 0 0 48 48" xml:space="preserve">
<g>
	<rect x="18.8" y="12.5" fill="#0DB89A" width="4.9" height="35"/>
	<path fill="#F04B36" d="M10.2,43.4c0,2.3,1.7,4.1,3.8,4.1h2.9v-35h-6.7V43.4z"/>
	<path fill="#F04B36" d="M25.7,47.5H34c2.1,0,3.8-1.8,3.8-4.1V12.5H25.7V47.5z"/>
	<path fill="#06728D" d="M43.7,0.5H4.3c-2.1,0-3.8,1.8-3.8,4.1v14.1c0,2.3,1.7,4.1,3.8,4.1h3.9V10.5h31.6v12.3h3.9
		c2.1,0,3.8-1.8,3.8-4.1V4.6C47.5,2.3,45.8,0.5,43.7,0.5z M42.8,14.2c0,0.5-0.4,1-1,1c-0.5,0-1-0.4-1-1V9.1H7.1v5.1c0,0.5-0.4,1-1,1
		s-1-0.4-1-1V8.2c0-0.5,0.4-1,1-1h35.7c0.5,0,1,0.4,1,1V14.2z"/>
</g>
</svg>
