<?xml version="1.0" encoding="utf-8"?>
<!-- Generator: Adobe Illustrator 18.0.0, SVG Export Plug-In . SVG Version: 6.00 Build 0)  -->
<!DOCTYPE svg PUBLIC "-//W3C//DTD SVG 1.1//EN" "http://www.w3.org/Graphics/SVG/1.1/DTD/svg11.dtd">
<svg version="1.1" id="Layer_1" xmlns="http://www.w3.org/2000/svg" xmlns:xlink="http://www.w3.org/1999/xlink" x="0px" y="0px"
	 viewBox="0 0 48 48" enable-background="new 0 0 48 48" xml:space="preserve">
<g>
	<path fill="#0DB89A" d="M10.2,43.4c0,2.3,1.7,4.1,3.8,4.1H34c2.1,0,3.8-1.8,3.8-4.1V12.5H10.2V43.4z M24,40.1
		c-1.2,0-2.1-0.8-2.1-1.7c0-0.9,1-1.7,2.1-1.7c1.2,0,2.1,0.8,2.1,1.7C26.1,39.3,25.2,40.1,24,40.1z M24,16.1c5.5,0,9.9,3.8,9.9,8.5
		c0,4.7-4.4,8.5-9.9,8.5c-5.5,0-9.9-3.8-9.9-8.5C14.1,19.9,18.5,16.1,24,16.1z"/>
	<path fill="#294E58" d="M21.4,27.7c1.5,0,2.3-1.1,3-2.9c0.5-1.3,1.1-2,2.1-2c1,0,1.7,0.8,1.7,2.1c0,1-0.3,1.9-0.7,2.5l1.2,0.4
		c0.4-0.6,0.7-1.7,0.8-2.7h1.8v-1.1h-1.8c-0.3-1.8-1.6-2.8-3-2.8c-1.5,0-2.5,0.9-3.2,2.7c-0.6,1.5-1.1,2.2-2,2.2
		c-0.7,0-1.5-0.5-1.5-1.8c0-1.1,0.4-1.8,0.6-2.2l-1.1-0.4c-0.3,0.5-0.6,1.2-0.6,2.3h-1.7v1.1h1.8C18.9,26.7,20,27.7,21.4,27.7z"/>
	<path fill="#F04B36" d="M43.7,0.5H4.3c-2.1,0-3.8,1.8-3.8,4.1v14.1c0,2.3,1.7,4.1,3.8,4.1h3.9V10.5h31.6v12.3h3.9
		c2.1,0,3.8-1.8,3.8-4.1V4.6C47.5,2.3,45.8,0.5,43.7,0.5z M42.8,14.2c0,0.5-0.4,1-1,1c-0.5,0-1-0.4-1-1V9.1H7.1v5.1c0,0.5-0.4,1-1,1
		s-1-0.4-1-1V8.2c0-0.5,0.4-1,1-1h35.7c0.5,0,1,0.4,1,1V14.2z"/>
</g>
</svg>
