<?xml version="1.0" encoding="utf-8"?>
<!-- Generator: Adobe Illustrator 18.0.0, SVG Export Plug-In . SVG Version: 6.00 Build 0)  -->
<!DOCTYPE svg PUBLIC "-//W3C//DTD SVG 1.1//EN" "http://www.w3.org/Graphics/SVG/1.1/DTD/svg11.dtd">
<svg version="1.1" id="Layer_1" xmlns="http://www.w3.org/2000/svg" xmlns:xlink="http://www.w3.org/1999/xlink" x="0px" y="0px"
	 viewBox="0 0 48 48" enable-background="new 0 0 48 48" xml:space="preserve">
<g>
	<path fill="none" d="M25,28.8c-2.8-1.2-4-2-4-3.7c0-1.3,0.9-2.8,3.4-2.8c2.1,0,3.4,0.7,4.1,1.1l0.8-2.1c-0.9-0.6-2.3-1.1-4.2-1.1
		V17h-2v3.3c-3,0.5-4.9,2.5-4.9,5.2c0,2.8,2,4.3,5.4,5.6c2.4,1,3.7,2.1,3.7,3.9c0,1.8-1.6,3.2-3.9,3.2c-1.8,0-3.5-0.6-4.7-1.4
		l-0.8,2.2c1.1,0.8,3.1,1.4,5,1.4v3.3h2v-3.4c3.3-0.6,5.1-2.9,5.1-5.5C30.1,31.9,28.4,30.2,25,28.8z"/>
	<polygon fill="#0DB89A" points="40.9,0.6 33.5,0.6 33.5,9.2 40.9,16 	"/>
	<path fill="#F04B36" d="M42.3,17.2L42.3,17.2L42.3,17.2L40.9,16l-7.4-6.8l-9.4-8.6L24,0.5L5.8,17.2h0v0l-5.2,4.7
		c-0.1,0.1-0.1,0.2,0,0.3c0,0.1,0.1,0.1,0.2,0.1c0.1,0,0.1,0,0.2-0.1l0.2-0.2h4.6v25.4h36.5V22.1h4.6l0.2,0.2c0.1,0.1,0.3,0.1,0.3,0
		c0.1-0.1,0.1-0.3,0-0.3L42.3,17.2z M24.9,40.3v3.4h-2v-3.3c-1.9,0-3.8-0.6-5-1.4l0.8-2.2c1.2,0.8,2.9,1.4,4.7,1.4
		c2.3,0,3.9-1.3,3.9-3.2c0-1.8-1.3-2.9-3.7-3.9c-3.3-1.3-5.4-2.8-5.4-5.6c0-2.7,1.9-4.7,4.9-5.2V17h2v3.1c1.9,0.1,3.3,0.6,4.2,1.1
		l-0.8,2.1c-0.7-0.4-2-1.1-4.1-1.1c-2.5,0-3.4,1.5-3.4,2.8c0,1.7,1.2,2.5,4,3.7c3.3,1.4,5,3,5,5.9C30.1,37.3,28.3,39.7,24.9,40.3z"
		/>
</g>
</svg>
