<?xml version="1.0" encoding="utf-8"?>
<!-- Generator: Adobe Illustrator 18.0.0, SVG Export Plug-In . SVG Version: 6.00 Build 0)  -->
<!DOCTYPE svg PUBLIC "-//W3C//DTD SVG 1.1//EN" "http://www.w3.org/Graphics/SVG/1.1/DTD/svg11.dtd">
<svg version="1.1" id="Layer_1" xmlns="http://www.w3.org/2000/svg" xmlns:xlink="http://www.w3.org/1999/xlink" x="0px" y="0px"
	 viewBox="0 0 48 48" enable-background="new 0 0 48 48" xml:space="preserve">
<g>
	<path fill="#0DB89A" d="M45.1,10.5H2.9c-1.3,0-2.4,1.1-2.4,2.4V35c0,1.3,1.1,2.4,2.4,2.4h42.2c1.3,0,2.4-1.1,2.4-2.4V13
		C47.5,11.6,46.4,10.5,45.1,10.5z M4.4,25.5c-0.8,0-1.5-0.7-1.5-1.5c0-0.8,0.7-1.5,1.5-1.5c0.8,0,1.5,0.7,1.5,1.5
		C5.9,24.8,5.2,25.5,4.4,25.5z M41.1,34.5c0,0.5-0.4,1-1,1H7.9c-0.5,0-1-0.4-1-1V13.5c0-0.5,0.4-1,1-1h32.2c0.5,0,1,0.4,1,1V34.5z
		 M44.5,27c0,0.5-0.4,1-1,1c-0.5,0-1-0.4-1-1v-6c0-0.5,0.4-1,1-1c0.5,0,1,0.4,1,1V27z"/>
	<path fill="#F04B36" d="M15.1,29.9c0.3,0,0.6-0.1,0.8-0.4l2.5-3.5l1.7,2.2c0.2,0.3,0.5,0.4,0.9,0.4c0.3,0,0.6-0.2,0.8-0.5l3.3-5.7
		l1.6,3.5c0.1,0.3,0.4,0.5,0.8,0.6c0.3,0.1,0.7-0.1,0.9-0.3l8-9.1c0.4-0.4,0.3-1-0.1-1.4c-0.4-0.4-1-0.3-1.4,0.1l-7,8L26,19.8
		c-0.2-0.3-0.5-0.6-0.9-0.6c-0.4,0-0.7,0.2-0.9,0.5l-3.5,6.1l-1.6-2c-0.2-0.2-0.5-0.4-0.8-0.4c-0.3,0-0.6,0.2-0.8,0.4l-3.3,4.6
		c-0.3,0.4-0.2,1.1,0.2,1.4C14.7,29.9,14.9,29.9,15.1,29.9z"/>
	<path fill="#06728D" d="M35.5,30.4H12.4v-14c0-0.5-0.4-1-1-1c-0.5,0-1,0.4-1,1v16h25.1c0.5,0,1-0.4,1-1
		C36.5,30.8,36.1,30.4,35.5,30.4z"/>
</g>
</svg>
