<?xml version="1.0" encoding="utf-8"?>
<!-- Generator: Adobe Illustrator 18.0.0, SVG Export Plug-In . SVG Version: 6.00 Build 0)  -->
<!DOCTYPE svg PUBLIC "-//W3C//DTD SVG 1.1//EN" "http://www.w3.org/Graphics/SVG/1.1/DTD/svg11.dtd">
<svg version="1.1" id="Layer_1" xmlns="http://www.w3.org/2000/svg" xmlns:xlink="http://www.w3.org/1999/xlink" x="0px" y="0px"
	 viewBox="0 0 48 48" enable-background="new 0 0 48 48" xml:space="preserve">
<g>
	<path fill="#F04B36" d="M7.7,31.7h4.4c1.8,0,3.2-1.5,3.2-3.2V7.2c0-1.8-1.4-3.2-3.2-3.2H7.7C5.9,4,4.5,5.5,4.5,7.2v21.2
		C4.5,30.2,5.9,31.7,7.7,31.7z"/>
	<path fill="#CFD0D1" d="M19.9,47.5h23.3V32.1H19.9V47.5z M24.2,36.3h14.6c0.5,0,1,0.4,1,1c0,0.5-0.4,1-1,1H24.2c-0.5,0-1-0.4-1-1
		C23.2,36.8,23.7,36.3,24.2,36.3z M24.2,41h14.6c0.5,0,1,0.4,1,1c0,0.5-0.4,1-1,1H24.2c-0.5,0-1-0.4-1-1C23.2,41.5,23.7,41,24.2,41z
		"/>
	<path fill="none" d="M25,18.7H23c-0.5,0-1,0.4-1,1c0,0.5,0.4,1,1,1H25c0.5,0,1-0.4,1-1C25.9,19.2,25.5,18.7,25,18.7z"/>
	<path fill="none" d="M31.4,26.9h-1.9c-0.5,0-1,0.4-1,1c0,0.5,0.4,1,1,1h1.9c0.5,0,1-0.4,1-1C32.4,27.4,32,26.9,31.4,26.9z"/>
	<path fill="none" d="M31.4,22.8h-1.9c-0.5,0-1,0.4-1,1c0,0.5,0.4,1,1,1h1.9c0.5,0,1-0.4,1-1C32.4,23.3,32,22.8,31.4,22.8z"/>
	<path fill="none" d="M31.4,18.7h-1.9c-0.5,0-1,0.4-1,1c0,0.5,0.4,1,1,1h1.9c0.5,0,1-0.4,1-1C32.4,19.2,32,18.7,31.4,18.7z"/>
	<path fill="none" d="M25,26.9H23c-0.5,0-1,0.4-1,1c0,0.5,0.4,1,1,1H25c0.5,0,1-0.4,1-1C25.9,27.4,25.5,26.9,25,26.9z"/>
	<path fill="none" d="M25,22.8H23c-0.5,0-1,0.4-1,1c0,0.5,0.4,1,1,1H25c0.5,0,1-0.4,1-1C25.9,23.3,25.5,22.8,25,22.8z"/>
	<rect x="21.1" y="2.5" fill="none" width="20.9" height="3.7"/>
	<path fill="none" d="M37.9,26.9H36c-0.5,0-1,0.4-1,1c0,0.5,0.4,1,1,1h1.9c0.5,0,1-0.4,1-1C38.9,27.4,38.4,26.9,37.9,26.9z"/>
	<rect x="20.4" y="10.3" fill="none" width="20.2" height="5.6"/>
	<path fill="none" d="M37.9,18.7H36c-0.5,0-1,0.4-1,1c0,0.5,0.4,1,1,1h1.9c0.5,0,1-0.4,1-1C38.9,19.2,38.4,18.7,37.9,18.7z"/>
	<path fill="none" d="M37.9,22.8H36c-0.5,0-1,0.4-1,1c0,0.5,0.4,1,1,1h1.9c0.5,0,1-0.4,1-1C38.9,23.3,38.4,22.8,37.9,22.8z"/>
	<path fill="#06728D" d="M44.3,6.2H44h-2H21.1h-2h-1.9c0.1,0.3,0.1,0.7,0.1,1.1v21.2c0,2.9-2.3,5.2-5.2,5.2H7.7
		c-2.9,0-5.2-2.3-5.2-5.2V7.2c0-0.3,0-0.6,0.1-0.9C1.4,6.8,0.5,8,0.5,9.4V35c0,1.8,1.4,3.2,3.1,3.2v0H18v-8.1h27v8
		c1.4-0.3,2.4-1.6,2.4-3.1V9.4C47.5,7.6,46.1,6.2,44.3,6.2z M25,28.9H23c-0.5,0-1-0.4-1-1c0-0.5,0.4-1,1-1H25c0.5,0,1,0.4,1,1
		C25.9,28.5,25.5,28.9,25,28.9z M25,24.8H23c-0.5,0-1-0.4-1-1c0-0.5,0.4-1,1-1H25c0.5,0,1,0.4,1,1C25.9,24.4,25.5,24.8,25,24.8z
		 M25,20.7H23c-0.5,0-1-0.4-1-1c0-0.5,0.4-1,1-1H25c0.5,0,1,0.4,1,1C25.9,20.3,25.5,20.7,25,20.7z M31.4,28.9h-1.9c-0.5,0-1-0.4-1-1
		c0-0.5,0.4-1,1-1h1.9c0.5,0,1,0.4,1,1C32.4,28.5,32,28.9,31.4,28.9z M31.4,24.8h-1.9c-0.5,0-1-0.4-1-1c0-0.5,0.4-1,1-1h1.9
		c0.5,0,1,0.4,1,1C32.4,24.4,32,24.8,31.4,24.8z M31.4,20.7h-1.9c-0.5,0-1-0.4-1-1c0-0.5,0.4-1,1-1h1.9c0.5,0,1,0.4,1,1
		C32.4,20.3,32,20.7,31.4,20.7z M37.9,28.9H36c-0.5,0-1-0.4-1-1c0-0.5,0.4-1,1-1h1.9c0.5,0,1,0.4,1,1C38.9,28.5,38.4,28.9,37.9,28.9
		z M37.9,24.8H36c-0.5,0-1-0.4-1-1c0-0.5,0.4-1,1-1h1.9c0.5,0,1,0.4,1,1C38.9,24.4,38.4,24.8,37.9,24.8z M37.9,20.7H36
		c-0.5,0-1-0.4-1-1c0-0.5,0.4-1,1-1h1.9c0.5,0,1,0.4,1,1C38.9,20.3,38.4,20.7,37.9,20.7z M40.6,15.8H20.4v-5.6h20.2V15.8z"/>
	<polygon fill="#4DA0D8" points="21.1,2.5 42,2.5 42,6.2 44,6.2 44,0.5 19.1,0.5 19.1,6.2 21.1,6.2 	"/>
</g>
</svg>
