<?xml version="1.0" encoding="utf-8"?>
<!-- Generator: Adobe Illustrator 18.0.0, SVG Export Plug-In . SVG Version: 6.00 Build 0)  -->
<!DOCTYPE svg PUBLIC "-//W3C//DTD SVG 1.1//EN" "http://www.w3.org/Graphics/SVG/1.1/DTD/svg11.dtd">
<svg version="1.1" id="Layer_1" xmlns="http://www.w3.org/2000/svg" xmlns:xlink="http://www.w3.org/1999/xlink" x="0px" y="0px"
	 viewBox="0 0 48 48" enable-background="new 0 0 48 48" xml:space="preserve">
<g>
	<ellipse fill="#F04B36" cx="7.2" cy="38.1" rx="1.9" ry="2.1"/>
	<rect x="0.5" y="11.1" fill="#0DB89A" width="13.3" height="3.6"/>
	<rect x="0.5" y="1.3" fill="#0DB89A" width="13.3" height="7.8"/>
	<path fill="#0DB89A" d="M0.5,46.7h13.3v-30H0.5V46.7z M7.2,34c2.1,0,3.8,1.8,3.8,4.1c0,2.3-1.7,4.1-3.8,4.1c-2.1,0-3.8-1.8-3.8-4.1
		C3.4,35.8,5.1,34,7.2,34z"/>
	<ellipse fill="#06728D" cx="21.8" cy="38.1" rx="1.9" ry="2.1"/>
	<rect x="15.2" y="11.1" fill="#F04B36" width="13.3" height="3.6"/>
	<rect x="15.2" y="1.3" fill="#F04B36" width="13.3" height="7.8"/>
	<path fill="#F04B36" d="M15.2,46.7h13.3v-30H15.2V46.7z M21.8,34c2.1,0,3.8,1.8,3.8,4.1c0,2.3-1.7,4.1-3.8,4.1
		c-2.1,0-3.8-1.8-3.8-4.1C18,35.8,19.7,34,21.8,34z"/>
	<polygon fill="#F7A93B" points="43,10.4 29.8,12.1 30.2,15.6 43.5,13.9 	"/>
	<polygon fill="#F7A93B" points="41.8,0.7 41.8,0.5 28.6,2.5 29.5,10.1 42.8,8.4 	"/>
	<path fill="#0DB89A" d="M39.8,35.9c-0.1,0-0.2,0-0.3,0c-1,0.2-1.7,1.2-1.6,2.4c0.1,1.1,1.1,1.9,2.1,1.8c1-0.2,1.7-1.2,1.6-2.4
		C41.5,36.6,40.7,35.9,39.8,35.9z"/>
	<path fill="#F7A93B" d="M43.7,15.9l-13.2,1.7l3.8,29.7l0,0.2l13.2-2L43.7,15.9z M40.3,42c-0.2,0-0.4,0-0.5,0
		c-1.9,0-3.5-1.5-3.8-3.5c-0.3-2.2,1.2-4.3,3.2-4.6c2.1-0.3,4,1.3,4.3,3.5C43.9,39.6,42.4,41.7,40.3,42z"/>
</g>
</svg>
