<?xml version="1.0" encoding="utf-8"?>
<!-- Generator: Adobe Illustrator 18.0.0, SVG Export Plug-In . SVG Version: 6.00 Build 0)  -->
<!DOCTYPE svg PUBLIC "-//W3C//DTD SVG 1.1//EN" "http://www.w3.org/Graphics/SVG/1.1/DTD/svg11.dtd">
<svg version="1.1" id="Layer_1" xmlns="http://www.w3.org/2000/svg" xmlns:xlink="http://www.w3.org/1999/xlink" x="0px" y="0px"
	 viewBox="0 0 48 48" enable-background="new 0 0 48 48" xml:space="preserve">
<g>
	<path fill="#CFD0D1" d="M37.4,16.4H10.6v25.4h26.8V16.4z M12.7,23.1c0.4-0.4,1-0.4,1.4,0l1.9,1.9l5.9-5.7c0.4-0.4,1-0.4,1.4,0
		c0.4,0.4,0.4,1,0,1.4l-7.3,7.1l-3.2-3.2C12.3,24.1,12.3,23.5,12.7,23.1z M12.7,34.8c-0.4-0.4-0.4-1,0-1.4c0.4-0.4,1-0.4,1.4,0
		l1.9,1.9l5.9-5.7c0.4-0.4,1-0.4,1.4,0c0.4,0.4,0.4,1,0,1.4L15.9,38L12.7,34.8z M33.5,35.3H24c-0.5,0-1-0.4-1-1c0-0.5,0.4-1,1-1h9.5
		c0.5,0,1,0.4,1,1C34.4,34.8,34,35.3,33.5,35.3z M33.5,25.7H24c-0.5,0-1-0.4-1-1s0.4-1,1-1h9.5c0.5,0,1,0.4,1,1S34,25.7,33.5,25.7z"
		/>
	<path fill="#F04B36" d="M34.6,1.5c0-0.5-0.4-1-1-1c-0.5,0-1,0.4-1,1v3.2h1.9V1.5z"/>
	<path fill="#4DA0D8" d="M40.2,4.7h-5.6v4.1c0,0.5-0.4,1-1,1c-0.5,0-1-0.4-1-1V4.7H15.4v4.1c0,0.5-0.4,1-1,1c-0.5,0-1-0.4-1-1V4.7
		H7.8c-1.8,0-3.3,1.5-3.3,3.3v36.3c0,1.8,1.5,3.3,3.3,3.3h32.3c1.8,0,3.3-1.5,3.3-3.3V7.9C43.4,6.1,41.9,4.7,40.2,4.7z M39.3,43.8
		H8.7V14.5h30.7V43.8z"/>
	<path fill="#F04B36" d="M15.4,1.5c0-0.5-0.4-1-1-1c-0.5,0-1,0.4-1,1v3.2h1.9V1.5z"/>
</g>
</svg>
