<?xml version="1.0" encoding="utf-8"?>
<!-- Generator: Adobe Illustrator 18.0.0, SVG Export Plug-In . SVG Version: 6.00 Build 0)  -->
<!DOCTYPE svg PUBLIC "-//W3C//DTD SVG 1.1//EN" "http://www.w3.org/Graphics/SVG/1.1/DTD/svg11.dtd">
<svg version="1.1" id="Layer_1" xmlns="http://www.w3.org/2000/svg" xmlns:xlink="http://www.w3.org/1999/xlink" x="0px" y="0px"
	 viewBox="0 0 48 48" enable-background="new 0 0 48 48" xml:space="preserve">
<g>
	<rect x="6.4" y="15.3" fill="#F04B36" width="7.1" height="3.2"/>
	<path fill="#F7A93B" d="M9.7,47.3h28.6V29.8H9.7V47.3z M14.6,34.4h18.3c0.5,0,1,0.4,1,1s-0.4,1-1,1H14.6c-0.5,0-1-0.4-1-1
		S14,34.4,14.6,34.4z M14.6,40.1h18.3c0.5,0,1,0.4,1,1c0,0.5-0.4,1-1,1H14.6c-0.5,0-1-0.4-1-1C13.6,40.5,14,40.1,14.6,40.1z"/>
	<rect x="4.4" y="13.3" fill="none" width="11.1" height="7.2"/>
	<rect x="10.7" y="2.7" fill="none" width="26.6" height="5.9"/>
	<path fill="none" d="M36.3,15.9h-16c-0.5,0-1,0.4-1,1c0,0.5,0.4,1,1,1h16c0.5,0,1-0.4,1-1C37.3,16.3,36.9,15.9,36.3,15.9z"/>
	<path fill="#CFD0D1" d="M44.1,8.6h-4.8h-2H10.7h-2H3.9C2,8.6,0.5,10.2,0.5,12v21.3c0,1.9,1.5,3.4,3.4,3.4h3.8v-8.8h32.6v8.8h3.8
		c1.9,0,3.4-1.5,3.4-3.4V12C47.5,10.2,46,8.6,44.1,8.6z M15.5,20.5H4.4v-7.2h11.1V20.5z M36.3,17.9h-16c-0.5,0-1-0.4-1-1
		c0-0.5,0.4-1,1-1h16c0.5,0,1,0.4,1,1C37.3,17.4,36.9,17.9,36.3,17.9z"/>
	<polygon fill="#4DA0D8" points="10.7,2.7 37.3,2.7 37.3,8.6 39.3,8.6 39.3,0.7 8.7,0.7 8.7,8.6 10.7,8.6 	"/>
</g>
</svg>
