<?xml version="1.0" encoding="utf-8"?>
<!-- Generator: Adobe Illustrator 18.0.0, SVG Export Plug-In . SVG Version: 6.00 Build 0)  -->
<!DOCTYPE svg PUBLIC "-//W3C//DTD SVG 1.1//EN" "http://www.w3.org/Graphics/SVG/1.1/DTD/svg11.dtd">
<svg version="1.1" id="Layer_1" xmlns="http://www.w3.org/2000/svg" xmlns:xlink="http://www.w3.org/1999/xlink" x="0px" y="0px"
	 viewBox="0 0 48 48" enable-background="new 0 0 48 48" xml:space="preserve">
<g>
	<path fill="#4DA0D8" d="M35.6,24c0-0.5,0.4-1,1-1h4.2C40.3,14.5,33.5,7.7,25,7.2v4.2c0,0.5-0.4,1-1,1c-0.5,0-1-0.4-1-1V7.2
		C14.5,7.7,7.7,14.5,7.2,23h4.2c0.5,0,1,0.4,1,1s-0.4,1-1,1H7.2c0.5,8.5,7.3,15.3,15.8,15.8v-4.2c0-0.5,0.4-1,1-1c0.5,0,1,0.4,1,1
		v4.2c8.5-0.5,15.3-7.3,15.8-15.8h-4.2C36,25,35.6,24.5,35.6,24z M32.9,25h-5.7c-0.4,1.3-1.7,2.3-3.2,2.3c-1.8,0-3.3-1.5-3.3-3.3
		s1.5-3.3,3.3-3.3c0,0,0,0,0,0l3.7-11.3c0.2-0.5,0.7-0.8,1.2-0.6c0.5,0.2,0.8,0.7,0.6,1.2l-3.7,11.3c0.6,0.4,1,1,1.2,1.7h5.7
		c0.5,0,1,0.4,1,1S33.4,25,32.9,25z"/>
	<circle fill="#F04B36" cx="24" cy="24" r="1.3"/>
	<path fill="#0DB89A" d="M24,0.5C11,0.5,0.5,11,0.5,24C0.5,37,11,47.5,24,47.5C37,47.5,47.5,37,47.5,24C47.5,11,37,0.5,24,0.5z
		 M24,42.8C13.6,42.8,5.2,34.4,5.2,24S13.6,5.2,24,5.2c10.4,0,18.8,8.4,18.8,18.8S34.4,42.8,24,42.8z"/>
</g>
</svg>
