<?xml version="1.0" encoding="utf-8"?>
<!-- Generator: Adobe Illustrator 18.0.0, SVG Export Plug-In . SVG Version: 6.00 Build 0)  -->
<!DOCTYPE svg PUBLIC "-//W3C//DTD SVG 1.1//EN" "http://www.w3.org/Graphics/SVG/1.1/DTD/svg11.dtd">
<svg version="1.1" id="Layer_1" xmlns="http://www.w3.org/2000/svg" xmlns:xlink="http://www.w3.org/1999/xlink" x="0px" y="0px"
	 viewBox="0 0 48 48" enable-background="new 0 0 48 48" xml:space="preserve">
<g>
	<polygon fill="#06728D" points="47.5,43.3 43.3,39 43.3,42.3 5.7,42.3 5.7,4.7 9,4.7 4.7,0.5 0.5,4.7 3.7,4.7 3.7,44.3 43.3,44.3 
		43.3,47.5 	"/>
	<polygon fill="#F04B36" points="24.6,1.9 18.3,10.3 30.9,10.3 	"/>
	<polygon fill="#E77528" points="19.3,39 10.4,30 8.9,40.4 	"/>
	<polygon fill="#0DB89A" points="40.2,40.4 38.8,30 29.8,39 	"/>
	<path fill="#E8B944" d="M24.6,35.6c6.4,0,11.7-5.2,11.7-11.7c0-6.4-5.2-11.7-11.7-11.7s-11.7,5.2-11.7,11.7
		C12.9,30.4,18.1,35.6,24.6,35.6z M24.1,24.6c-2.3-0.9-3.7-1.9-3.7-3.9c0-1.9,1.3-3.3,3.4-3.6v-2.3h1.4V17c1.3,0,2.3,0.4,2.9,0.8
		l-0.6,1.5c-0.5-0.3-1.4-0.8-2.8-0.8c-1.7,0-2.4,1-2.4,1.9c0,1.2,0.8,1.7,2.8,2.5c2.3,0.9,3.5,2.1,3.5,4.1c0,1.8-1.2,3.4-3.5,3.8
		v2.3h-1.4v-2.3c-1.3,0-2.6-0.4-3.4-1l0.5-1.5c0.8,0.5,2,1,3.2,1c1.6,0,2.6-0.9,2.6-2.2C26.6,26,25.7,25.2,24.1,24.6z"/>
</g>
</svg>
