<?xml version="1.0" encoding="utf-8"?>
<!-- Generator: Adobe Illustrator 18.0.0, SVG Export Plug-In . SVG Version: 6.00 Build 0)  -->
<!DOCTYPE svg PUBLIC "-//W3C//DTD SVG 1.1//EN" "http://www.w3.org/Graphics/SVG/1.1/DTD/svg11.dtd">
<svg version="1.1" id="Layer_1" xmlns="http://www.w3.org/2000/svg" xmlns:xlink="http://www.w3.org/1999/xlink" x="0px" y="0px"
	 viewBox="0 0 48 48" enable-background="new 0 0 48 48" xml:space="preserve">
<g>
	<ellipse fill="#F04B36" cx="5.9" cy="39.8" rx="1.2" ry="1.3"/>
	<path fill="#06728D" d="M0.5,45.1h12.7V19.2H0.5V45.1z M7.2,21.1h1.9v14H7.2V21.1z M5.9,36.6c1.7,0,3.1,1.4,3.1,3.2
		c0,1.8-1.4,3.2-3.1,3.2c-1.7,0-3.1-1.4-3.1-3.2C2.8,38,4.2,36.6,5.9,36.6z"/>
	<path fill="#F7A93B" d="M45.5,23.3c1.1-0.5,2-1.5,2-2.8c0-1.7-1.4-3-3.2-3h-7c2.1-1.8,4.5-4.6,5.3-8.2c0.4-2.1,0.2-3.7-0.7-4.8
		c-1.2-1.5-3.2-1.6-3.6-1.6l-0.3,0l0,0.2c-0.1,1.5-0.3,4.4-7.4,8.6c-6.7,4-11.5,9.3-12.2,10h-3.5v17.6l0.3,0c0,0,0.3,0,0.7,0
		c1,0,2.9,0.1,4.8,0.8c0.9,0.3,2.3,0.4,4.1,0.4c3.1,0,6.4-0.4,6.4-0.4H41c1.8,0,3.2-1.3,3.2-3c0-1.1-0.6-2-1.5-2.5h0.4
		c1.8,0,3.2-1.3,3.2-3c0-1.1-0.6-2-1.6-2.6c1.5-0.3,2.6-1.5,2.6-3C47.5,24.8,46.7,23.7,45.5,23.3z M30,17.4c-3.8,2.2-6,6.5-6.1,6.5
		c-0.2,0.3-0.5,0.5-0.8,0.5c-0.2,0-0.3,0-0.4-0.1c-0.5-0.2-0.6-0.8-0.4-1.3c0.1-0.2,2.6-4.8,6.8-7.3c0.5-0.3,1-0.1,1.3,0.3
		C30.6,16.6,30.5,17.1,30,17.4z"/>
</g>
</svg>
