<?xml version="1.0" encoding="utf-8"?>
<!-- Generator: Adobe Illustrator 18.0.0, SVG Export Plug-In . SVG Version: 6.00 Build 0)  -->
<!DOCTYPE svg PUBLIC "-//W3C//DTD SVG 1.1//EN" "http://www.w3.org/Graphics/SVG/1.1/DTD/svg11.dtd">
<svg version="1.1" id="Layer_1" xmlns="http://www.w3.org/2000/svg" xmlns:xlink="http://www.w3.org/1999/xlink" x="0px" y="0px"
	 viewBox="0 0 48 48" enable-background="new 0 0 48 48" xml:space="preserve">
<g>
	<rect x="21.7" y="15.1" fill="#61A89A" width="4.6" height="0.6"/>
	<path fill="#4DA0D8" d="M19.7,15.1h-1.3H6.8V39h34.3V15.1h-9.3h-3.5v2.6h-8.6V15.1z M26.4,21.7h12.1v2H26.4V21.7z M26.4,27.6h12.1
		v2H26.4V27.6z M26.4,33.5h12.1v2H26.4V33.5z M22.7,36.2v1H7.6v-1c0-4.1,3-7.4,6.8-7.8c-2-0.4-3.5-2.1-3.5-4.3
		c0-2.4,1.9-4.3,4.2-4.3c2.3,0,4.2,1.9,4.2,4.3c0,2.1-1.5,3.9-3.5,4.3C19.7,28.8,22.7,32.2,22.7,36.2z"/>
	<rect x="21.7" y="9.3" fill="#0DB89A" width="4.6" height="3.7"/>
	<polygon fill="#0DB89A" points="28.3,9.3 28.3,13.1 31.8,13.1 43.2,13.1 43.2,41 4.8,41 4.8,13.1 18.4,13.1 19.7,13.1 19.7,9.3 
		0.5,9.3 0.5,44.8 47.5,44.8 47.5,9.3 	"/>
	<path fill="#F04B36" d="M17.4,24.2c0-1.3-1-2.3-2.2-2.3S13,22.9,13,24.2c0,1.3,1,2.3,2.2,2.3S17.4,25.5,17.4,24.2z"/>
	<path fill="#F04B36" d="M9.7,35.2h11c-0.5-2.7-2.7-4.8-5.5-4.8C12.4,30.4,10.1,32.5,9.7,35.2z"/>
	<polygon fill="#06728D" points="21.7,5.2 26.3,5.2 26.3,9.3 28.3,9.3 28.3,3.2 19.7,3.2 19.7,9.3 21.7,9.3 	"/>
</g>
</svg>
