<?xml version="1.0" encoding="utf-8"?>
<!-- Generator: Adobe Illustrator 18.0.0, SVG Export Plug-In . SVG Version: 6.00 Build 0)  -->
<!DOCTYPE svg PUBLIC "-//W3C//DTD SVG 1.1//EN" "http://www.w3.org/Graphics/SVG/1.1/DTD/svg11.dtd">
<svg version="1.1" id="Layer_1" xmlns="http://www.w3.org/2000/svg" xmlns:xlink="http://www.w3.org/1999/xlink" x="0px" y="0px"
	 viewBox="0 0 48 48" enable-background="new 0 0 48 48" xml:space="preserve">
<g>
	<path fill="#F04B36" d="M36.5,0.5h-25c-2.9,0-5.3,2.4-5.3,5.3v36.3c0,2.9,2.4,5.3,5.3,5.3h25c2.9,0,5.3-2.4,5.3-5.3V5.8
		C41.9,2.9,39.5,0.5,36.5,0.5z M18.1,40.5l-1.7,2.1l-1.1-5.5c0.6-0.6,1.2-1.6,1.7-1.7c0.5-0.1,1.5,0.6,2.3,0.9l1.1,5.5L18.1,40.5z
		 M18.7,32.1c-0.1,0.8,1.8,2.5,1.2,3.1c-0.6,0.6-2.4-1.1-3.2-0.9c-0.8,0.2-1.8,2.5-2.6,2.1c-0.8-0.3,0.3-2.6-0.1-3.3
		c-0.4-0.7-2.9-1-2.8-1.8c0.1-0.8,2.6-0.5,3.1-1.1c0.6-0.6,0-3.1,0.8-3.2c0.8-0.2,1.3,2.3,2.1,2.6c0.8,0.3,2.9-0.9,3.3-0.2
		C21,30,18.8,31.2,18.7,32.1z M36,40.5h-8.6c-0.5,0-1-0.4-1-1s0.4-1,1-1H36c0.5,0,1,0.4,1,1S36.5,40.5,36,40.5z M36,34.7h-8.6
		c-0.5,0-1-0.4-1-1s0.4-1,1-1H36c0.5,0,1,0.4,1,1S36.5,34.7,36,34.7z M36,28.9h-8.6c-0.5,0-1-0.4-1-1c0-0.5,0.4-1,1-1H36
		c0.5,0,1,0.4,1,1C37,28.5,36.5,28.9,36,28.9z M36,23.5H12.8c-0.5,0-1-0.4-1-1c0-0.5,0.4-1,1-1H36c0.5,0,1,0.4,1,1
		C37,23,36.5,23.5,36,23.5z M36,18.1H12.8c-0.5,0-1-0.4-1-1c0-0.5,0.4-1,1-1H36c0.5,0,1,0.4,1,1C37,17.7,36.5,18.1,36,18.1z
		 M36,12.8H12.8c-0.5,0-1-0.4-1-1c0-0.5,0.4-1,1-1H36c0.5,0,1,0.4,1,1C37,12.3,36.5,12.8,36,12.8z M36,7.4H12.8c-0.5,0-1-0.4-1-1
		c0-0.5,0.4-1,1-1H36c0.5,0,1,0.4,1,1C37,7,36.5,7.4,36,7.4z"/>
</g>
</svg>
