<?xml version="1.0" encoding="utf-8"?>
<!-- Generator: Adobe Illustrator 18.0.0, SVG Export Plug-In . SVG Version: 6.00 Build 0)  -->
<!DOCTYPE svg PUBLIC "-//W3C//DTD SVG 1.1//EN" "http://www.w3.org/Graphics/SVG/1.1/DTD/svg11.dtd">
<svg version="1.1" id="Layer_1" xmlns="http://www.w3.org/2000/svg" xmlns:xlink="http://www.w3.org/1999/xlink" x="0px" y="0px"
	 viewBox="0 0 48 48" enable-background="new 0 0 48 48" xml:space="preserve">
<g>
	<path fill="#E2A14A" d="M11.4,15.7c-0.3-0.3-0.6-0.4-1-0.4c-0.4,0-0.8,0.2-1,0.5l-4.7,5c-0.5,0.6-0.5,1.5,0.1,2
		c0.3,0.3,0.6,0.4,1,0.4c0.4,0,0.8-0.2,1.1-0.5L9,20.3v5.4c0,0.8,0.6,1.4,1.4,1.4c0.8,0,1.4-0.6,1.4-1.4v-5.3l2.3,2.4
		c0.6,0.6,1.5,0.6,2,0c0.6-0.6,0.6-1.5,0-2L11.4,15.7z"/>
	<path fill="#61A89A" d="M25,9c-0.3-0.3-0.6-0.4-1-0.4c-0.4,0-0.8,0.2-1,0.5l-4.7,5c-0.5,0.6-0.5,1.5,0.1,2c0.3,0.3,0.6,0.4,1,0.4
		c0.4,0,0.8-0.2,1.1-0.5l2.3-2.4v12.1c0,0.8,0.6,1.4,1.4,1.4c0.8,0,1.4-0.6,1.4-1.4v-12l2.3,2.4c0.6,0.6,1.5,0.6,2,0
		c0.6-0.6,0.6-1.5,0-2L25,9z"/>
	<path fill="#F04B36" d="M43.4,5.9l-4.8-5c-0.3-0.3-0.6-0.4-1-0.4c-0.4,0-0.8,0.2-1,0.5l-4.7,5c-0.5,0.6-0.5,1.5,0.1,2
		c0.3,0.3,0.6,0.4,1,0.4c0.4,0,0.8-0.2,1-0.5l2.3-2.4v20.1c0,0.8,0.6,1.4,1.4,1.4c0.8,0,1.4-0.6,1.4-1.4V5.6l2.3,2.4
		c0.6,0.6,1.5,0.6,2,0C43.9,7.4,44,6.5,43.4,5.9z"/>
	<path fill="#06728D" d="M46.7,28.8H1.3c-0.1,0-0.2,0.1-0.2,0.2v8.1c0,0.1,0.1,0.2,0.2,0.2h5.2v9.8c0,0.1,0.1,0.2,0.2,0.2h34.5
		c0.1,0,0.2-0.1,0.2-0.2v-9.8h5.2c0.1,0,0.2-0.1,0.2-0.2v-8.1C46.9,28.9,46.8,28.8,46.7,28.8z M20.5,38c0-1.9,1.6-3.5,3.5-3.5
		c1.9,0,3.5,1.6,3.5,3.5c0,1.9-1.6,3.5-3.5,3.5C22.1,41.5,20.5,40,20.5,38z"/>
</g>
</svg>
