<?xml version="1.0" encoding="utf-8"?>
<!-- Generator: Adobe Illustrator 18.0.0, SVG Export Plug-In . SVG Version: 6.00 Build 0)  -->
<!DOCTYPE svg PUBLIC "-//W3C//DTD SVG 1.1//EN" "http://www.w3.org/Graphics/SVG/1.1/DTD/svg11.dtd">
<svg version="1.1" id="Layer_1" xmlns="http://www.w3.org/2000/svg" xmlns:xlink="http://www.w3.org/1999/xlink" x="0px" y="0px"
	 viewBox="0 0 48 48" enable-background="new 0 0 48 48" xml:space="preserve">
<g>
	<path fill="#06728D" d="M46.1,42.4H1.9c-0.8,0-1.4-0.6-1.4-1.4c0-0.8,0.6-1.4,1.4-1.4h44.2c0.8,0,1.4,0.6,1.4,1.4
		C47.5,41.7,46.9,42.4,46.1,42.4z"/>
	<path fill="#F04B36" d="M46.3,22.7L44.6,5.9c0-0.1,0-0.1-0.1-0.2c-0.1,0-0.1-0.1-0.2,0L30.6,7.8c-0.1,0-0.2,0.1-0.2,0.2
		c0,0.1,0,0.2,0.1,0.2l3.8,3.7l-15.7,25c0,0.1,0,0.2,0,0.2c0,0.1,0.1,0.1,0.2,0.1h12c0.1,0,0.2,0,0.2-0.1l11.2-17.7l3.8,3.6
		c0,0,0.1,0.1,0.2,0.1C46.2,23.1,46.3,22.9,46.3,22.7C46.3,22.8,46.3,22.7,46.3,22.7z"/>
	<path fill="#99BF5B" d="M22.8,24.5c0.1,0.1,0.2,0.1,0.3,0c0.1,0,0.1-0.1,0.1-0.2l-1.1-11c0-0.1,0-0.1-0.1-0.2c-0.1,0-0.1-0.1-0.2,0
		l-8.9,1.4c-0.1,0-0.2,0.1-0.2,0.2c0,0.1,0,0.2,0.1,0.2l2.4,2.3L2.9,36.8c0,0.1,0,0.2,0,0.2c0,0.1,0.1,0.1,0.2,0.1h7.8
		c0.1,0,0.2,0,0.2-0.1l9.4-14.9L22.8,24.5z"/>
</g>
</svg>
