<?xml version="1.0" encoding="utf-8"?>
<!-- Generator: Adobe Illustrator 18.0.0, SVG Export Plug-In . SVG Version: 6.00 Build 0)  -->
<!DOCTYPE svg PUBLIC "-//W3C//DTD SVG 1.1//EN" "http://www.w3.org/Graphics/SVG/1.1/DTD/svg11.dtd">
<svg version="1.1" id="Layer_1" xmlns="http://www.w3.org/2000/svg" xmlns:xlink="http://www.w3.org/1999/xlink" x="0px" y="0px"
	 viewBox="0 0 48 48" enable-background="new 0 0 48 48" xml:space="preserve">
<g>
	<path fill="#F04B36" d="M26.8,42.3H21c-0.5,0-1,0.4-1,1c0,0.5,0.4,1,1,1h5.8c0.5,0,1-0.4,1-1C27.7,42.7,27.3,42.3,26.8,42.3z"/>
	<path fill="#845050" d="M26.8,45.6H21c-0.5,0-1,0.4-1,1c0,0.5,0.4,1,1,1h5.8c0.5,0,1-0.4,1-1C27.7,46,27.3,45.6,26.8,45.6z"/>
	<path fill="#99BF5B" d="M24,7.3c0.5,0,1-0.4,1-1V1.5c0-0.5-0.4-1-1-1s-1,0.4-1,1v4.9C23,6.9,23.5,7.3,24,7.3z"/>
	<path fill="#E2A14A" d="M12,12.2c0.2,0,0.5-0.1,0.7-0.3c0.4-0.4,0.4-1,0-1.4L9.3,6.9C9,6.5,8.4,6.5,8,6.9c-0.4,0.4-0.4,1,0,1.4
		l3.4,3.6C11.5,12.1,11.7,12.2,12,12.2z"/>
	<path fill="#E2A14A" d="M38.7,6.9l-3.4,3.6c-0.4,0.4-0.3,1,0,1.4c0.2,0.2,0.4,0.3,0.7,0.3c0.3,0,0.5-0.1,0.7-0.3l3.4-3.6
		c0.4-0.4,0.3-1,0-1.4C39.6,6.5,39,6.5,38.7,6.9z"/>
	<path fill="#99BF5B" d="M6.5,20.9h-5c-0.5,0-1,0.4-1,1c0,0.5,0.4,1,1,1h5c0.5,0,1-0.4,1-1C7.4,21.4,7,20.9,6.5,20.9z"/>
	<path fill="#99BF5B" d="M46.5,20.9h-5c-0.5,0-1,0.4-1,1c0,0.5,0.4,1,1,1h5c0.5,0,1-0.4,1-1C47.5,21.4,47.1,20.9,46.5,20.9z"/>
	<path fill="#0DB89A" d="M24,9.2c-7.2,0-13.1,5.7-13.1,12.7c0,4.7,2.6,9,6.9,11.2l2.7,7.3c0,0.1,0.1,0.2,0.2,0.2h6.5
		c0.1,0,0.2-0.1,0.2-0.2l2.7-7.3c4.3-2.2,6.9-6.5,6.9-11.2C37.1,14.9,31.2,9.2,24,9.2z M25.7,38.2c-0.1,0.5-0.5,0.8-0.9,0.8
		c0,0-0.1,0-0.1,0c-0.3,0-0.5-0.2-0.6-0.4c-0.1,0.2-0.4,0.3-0.6,0.4c0,0-0.1,0-0.1,0c-0.5,0-0.9-0.3-0.9-0.8L19.9,21
		c-0.1-0.5,0.3-1,0.8-1.1c0.5-0.1,1,0.3,1.1,0.8L24,36.5l2.2-15.8c0.1-0.5,0.6-0.9,1.1-0.8c0.5,0.1,0.9,0.6,0.8,1.1L25.7,38.2z"/>
</g>
</svg>
