<?xml version="1.0" encoding="utf-8"?>
<!-- Generator: Adobe Illustrator 18.0.0, SVG Export Plug-In . SVG Version: 6.00 Build 0)  -->
<!DOCTYPE svg PUBLIC "-//W3C//DTD SVG 1.1//EN" "http://www.w3.org/Graphics/SVG/1.1/DTD/svg11.dtd">
<svg version="1.1" id="Layer_1" xmlns="http://www.w3.org/2000/svg" xmlns:xlink="http://www.w3.org/1999/xlink" x="0px" y="0px"
	 viewBox="0 0 48 48" enable-background="new 0 0 48 48" xml:space="preserve">
<g>
	<path fill="#F04B36" d="M24,23.4c-5.3,0-9.6,4.5-9.6,9.9c0,5.5,4.3,9.9,9.6,9.9c5.3,0,9.6-4.5,9.6-9.9C33.6,27.8,29.3,23.4,24,23.4
		z M24.6,39.4v2.1h-1.2v-2c-1.1,0-2.3-0.4-3-0.9l0.5-1.3c0.7,0.5,1.7,0.9,2.8,0.9c1.4,0,2.3-0.8,2.3-2c0-1.1-0.8-1.8-2.2-2.4
		c-2-0.8-3.2-1.7-3.2-3.5c0-1.7,1.1-2.9,2.9-3.2v-2h1.2V27c1.2,0,2,0.4,2.5,0.7l-0.5,1.3c-0.4-0.2-1.2-0.7-2.4-0.7
		c-1.5,0-2.1,0.9-2.1,1.7c0,1,0.7,1.6,2.4,2.3c2,0.8,3,1.9,3,3.7C27.6,37.6,26.6,39.1,24.6,39.4z"/>
	<path fill="#F7A93B" d="M32.3,17.1h12.8c0,0,0,0,0,0c0.1,0,0.2-0.1,0.2-0.2c0-0.1-0.1-0.2-0.1-0.2L24.1,0.5c-0.1-0.1-0.2-0.1-0.3,0
		L2.7,16.6c-0.1,0.1-0.1,0.2-0.1,0.3c0,0.1,0.1,0.2,0.2,0.2h12.8L2.5,47.2c0,0.1,0,0.2,0,0.2c0,0.1,0.1,0.1,0.2,0.1h42.6
		c0.1,0,0.2,0,0.2-0.1c0-0.1,0.1-0.2,0-0.2L32.3,17.1z M24,45.2c-6.4,0-11.6-5.3-11.6-11.9c0-6.6,5.2-11.9,11.6-11.9
		c6.4,0,11.6,5.3,11.6,11.9C35.6,39.9,30.4,45.2,24,45.2z"/>
	<path fill="#99BF5B" d="M11.2,21c0-0.5-0.4-1-1-1H1.5c-0.5,0-1,0.4-1,1c0,0.5,0.4,1,1,1h8.8C10.8,21.9,11.2,21.5,11.2,21z"/>
	<path fill="#99BF5B" d="M46.5,20h-8.8c-0.5,0-1,0.4-1,1c0,0.5,0.4,1,1,1h8.8c0.5,0,1-0.4,1-1C47.5,20.4,47.1,20,46.5,20z"/>
</g>
</svg>
