<?xml version="1.0" encoding="utf-8"?>
<!-- Generator: Adobe Illustrator 18.0.0, SVG Export Plug-In . SVG Version: 6.00 Build 0)  -->
<!DOCTYPE svg PUBLIC "-//W3C//DTD SVG 1.1//EN" "http://www.w3.org/Graphics/SVG/1.1/DTD/svg11.dtd">
<svg version="1.1" id="Layer_1" xmlns="http://www.w3.org/2000/svg" xmlns:xlink="http://www.w3.org/1999/xlink" x="0px" y="0px"
	 viewBox="0 0 48 48" enable-background="new 0 0 48 48" xml:space="preserve">
<g>
	<rect x="16.4" y="11.8" fill="#F04B36" width="4.6" height="22.2"/>
	<rect x="9.2" y="19.5" fill="#61A89A" width="4.6" height="14.4"/>
	<rect x="24" y="15.5" fill="#0DB89A" width="4.6" height="18.4"/>
	<path fill="#95C3CE" d="M46.6,41.1L34.4,29c-0.1-0.1-0.2-0.2-0.4-0.3l-5.4,5.4c0.1,0.1,0.2,0.3,0.3,0.4l12.1,12.1
		c0.6,0.6,1.4,0.9,2.3,0.9c0.8,0,1.6-0.3,2.2-0.9l1.1-1.1C47.8,44.3,47.8,42.3,46.6,41.1z"/>
	<path fill="#06728D" d="M31.6,5.8c-3.4-3.4-8-5.3-12.9-5.3c-4.9,0-9.5,1.9-12.9,5.3c-7.1,7.1-7.1,18.7,0,25.8
		c3.4,3.4,8,5.3,12.9,5.3c3.5,0,7-1,9.9-2.9l5.4-5.4C38.7,21.5,37.7,11.9,31.6,5.8z M18.7,32.7c-7.7,0-14-6.3-14-14
		c0-7.7,6.3-14,14-14c7.7,0,14,6.3,14,14C32.7,26.5,26.5,32.7,18.7,32.7z"/>
</g>
</svg>
