<?xml version="1.0" encoding="utf-8"?>
<!-- Generator: Adobe Illustrator 18.0.0, SVG Export Plug-In . SVG Version: 6.00 Build 0)  -->
<!DOCTYPE svg PUBLIC "-//W3C//DTD SVG 1.1//EN" "http://www.w3.org/Graphics/SVG/1.1/DTD/svg11.dtd">
<svg version="1.1" id="Layer_1" xmlns="http://www.w3.org/2000/svg" xmlns:xlink="http://www.w3.org/1999/xlink" x="0px" y="0px"
	 viewBox="0 0 48 48" enable-background="new 0 0 48 48" xml:space="preserve">
<g>
	<path fill="#F04B36" d="M18.2,9.7l-2,5.9H17l0.6-1.8h2.1l0.6,1.8h0.8l-2-5.9H18.2z M17.8,13.1l0.6-1.7c0.1-0.4,0.2-0.7,0.3-1.1h0
		c0.1,0.3,0.2,0.7,0.3,1.1l0.6,1.7H17.8z"/>
	<polygon fill="#F04B36" points="20.6,10.4 22.4,10.4 22.4,15.6 23.2,15.6 23.2,10.4 25,10.4 25,9.7 20.6,9.7 	"/>
	<path fill="#F04B36" d="M30.2,9.7l-1,2.8c-0.3,0.7-0.5,1.4-0.6,2h0c-0.2-0.6-0.4-1.3-0.6-2l-1-2.8h-1l-0.4,5.9h0.7l0.2-2.5
		c0.1-0.9,0.1-1.9,0.1-2.6h0c0.2,0.7,0.4,1.5,0.7,2.3l1,2.8h0.6l1-2.8c0.3-0.8,0.5-1.5,0.7-2.2h0c0,0.7,0,1.7,0.1,2.5l0.1,2.6h0.7
		l-0.4-5.9H30.2z"/>
	<rect x="13.5" y="26.1" fill="#C17C87" width="6.6" height="9.3"/>
	<path fill="#4DA0D8" d="M35.2,0.5H12.8c-2.9,0-5.3,2.4-5.3,5.3v36.3c0,2.9,2.4,5.3,5.3,5.3h22.3c2.9,0,5.3-2.4,5.3-5.3V5.8
		C40.5,2.9,38.1,0.5,35.2,0.5z M12.9,5.9h22.2v14.3H12.9V5.9z M19.1,42.7h-5.2v-2h5.2V42.7z M22,37.4H11.5V24.1H22V37.4z M28,41.5
		h-2.6v-2H28V41.5z M28,36.4h-2.6v-2H28V36.4z M28,31.4h-2.6v-2H28V31.4z M28,26.4h-2.6v-2H28V26.4z M35.4,41.5h-2.6v-2h2.6V41.5z
		 M35.4,36.4h-2.6v-2h2.6V36.4z M35.4,31.4h-2.6v-2h2.6V31.4z M35.4,26.4h-2.6v-2h2.6V26.4z"/>
</g>
</svg>
