<?xml version="1.0" encoding="utf-8"?>
<!-- Generator: Adobe Illustrator 18.0.0, SVG Export Plug-In . SVG Version: 6.00 Build 0)  -->
<!DOCTYPE svg PUBLIC "-//W3C//DTD SVG 1.1//EN" "http://www.w3.org/Graphics/SVG/1.1/DTD/svg11.dtd">
<svg version="1.1" id="Layer_1" xmlns="http://www.w3.org/2000/svg" xmlns:xlink="http://www.w3.org/1999/xlink" x="0px" y="0px"
	 viewBox="0 0 48 48" enable-background="new 0 0 48 48" xml:space="preserve">
<g>
	<path fill="#0DB89A" d="M29.4,5.6c-5.1,0-9.2,4.5-9.2,10s4.1,10,9.2,10c5.1,0,9.2-4.5,9.2-10S34.5,5.6,29.4,5.6z M29.9,20.8v1.8h-1
		v-1.7c-0.9,0-1.9-0.3-2.4-0.8l0.4-1.1c0.6,0.4,1.4,0.7,2.3,0.7c1.1,0,1.9-0.7,1.9-1.7c0-0.9-0.6-1.5-1.8-2c-1.6-0.7-2.6-1.5-2.6-3
		c0-1.4,0.9-2.5,2.4-2.8V8.5h1v1.7c1,0,1.6,0.3,2.1,0.6l-0.4,1.1c-0.3-0.2-1-0.6-2-0.6c-1.2,0-1.7,0.8-1.7,1.5c0,0.9,0.6,1.3,2,2
		c1.6,0.7,2.5,1.6,2.5,3.1C32.4,19.2,31.5,20.5,29.9,20.8z"/>
	<path fill="#06728D" d="M29.4,0.5c-7.7,0-14,6.8-14,15.1c0,8.3,6.3,15.1,14,15.1c7.7,0,14-6.8,14-15.1C43.4,7.3,37.2,0.5,29.4,0.5z
		 M29.4,27.5c-6.1,0-11.1-5.3-11.1-11.9c0-6.6,5-11.9,11.1-11.9c6.1,0,11.1,5.3,11.1,11.9C40.5,22.1,35.6,27.5,29.4,27.5z"/>
	<path fill="#F04B36" d="M46.1,23.9c-0.8,0-1.4,0.6-1.4,1.4c0,10.7-8,19.3-17.9,19.3c-8.9,0-16.4-7.2-17.6-16.5l3,3.2
		c0.5,0.6,1.4,0.6,2,0.1c0.6-0.5,0.6-1.5,0-2l-5.6-6.1c-0.3-0.3-0.6-0.4-1-0.4c-0.4,0-0.8,0.2-1,0.4l-5.6,6.1
		c-0.5,0.6-0.5,1.5,0.1,2c0.3,0.3,0.6,0.4,1,0.4c0.4,0,0.7-0.1,1-0.4l3.3-3.6c1.2,11.1,9.9,19.7,20.6,19.7c11.4,0,20.7-10,20.7-22.2
		C47.5,24.5,46.9,23.9,46.1,23.9z"/>
</g>
</svg>
