<?xml version="1.0" encoding="utf-8"?>
<!-- Generator: Adobe Illustrator 18.0.0, SVG Export Plug-In . SVG Version: 6.00 Build 0)  -->
<!DOCTYPE svg PUBLIC "-//W3C//DTD SVG 1.1//EN" "http://www.w3.org/Graphics/SVG/1.1/DTD/svg11.dtd">
<svg version="1.1" id="Layer_1" xmlns="http://www.w3.org/2000/svg" xmlns:xlink="http://www.w3.org/1999/xlink" x="0px" y="0px"
	 viewBox="0 0 48 48" enable-background="new 0 0 48 48" xml:space="preserve">
<g>
	<path fill="#F04B36" d="M47.5,45.9l-2.9-5.7c0-0.1-0.1-0.1-0.2-0.1H3.7c-0.1,0-0.2,0.1-0.2,0.1l-2.9,5.7c0,0,0,0.1,0,0.1v1.2
		c0,0.1,0.1,0.2,0.2,0.2h46.5c0.1,0,0.2-0.1,0.2-0.2v-1.2C47.5,46,47.5,46,47.5,45.9z"/>
	<path fill="#0DB89A" d="M6.5,35.2h35c0.1,0,0.2,0,0.2-0.1c0-0.1,0-0.2,0-0.2L38.2,28c0-0.1-0.1-0.1-0.2-0.1H10
		c-0.1,0-0.2,0.1-0.2,0.1l-3.5,6.9c0,0.1,0,0.2,0,0.2C6.3,35.2,6.4,35.2,6.5,35.2z"/>
	<path fill="#06728D" d="M12.8,22.9h22.3c0.1,0,0.2,0,0.2-0.1c0-0.1,0-0.2,0-0.2l-3.5-6.9c0-0.1-0.1-0.1-0.2-0.1H16.4
		c-0.1,0-0.2,0.1-0.2,0.1l-3.5,6.9c0,0.1,0,0.2,0,0.2C12.7,22.9,12.7,22.9,12.8,22.9z"/>
	<path fill="#E8B944" d="M19.2,10.6h9.6c0.1,0,0.2,0,0.2-0.1c0-0.1,0-0.2,0-0.2l-3.5-6.9c0,0,0,0,0,0L24,0.5l-1.5,2.9c0,0,0,0,0,0
		L19,10.3c0,0.1,0,0.2,0,0.2C19,10.6,19.1,10.6,19.2,10.6z"/>
</g>
</svg>
