<?xml version="1.0" encoding="utf-8"?>
<!-- Generator: Adobe Illustrator 18.0.0, SVG Export Plug-In . SVG Version: 6.00 Build 0)  -->
<!DOCTYPE svg PUBLIC "-//W3C//DTD SVG 1.1//EN" "http://www.w3.org/Graphics/SVG/1.1/DTD/svg11.dtd">
<svg version="1.1" id="Layer_1" xmlns="http://www.w3.org/2000/svg" xmlns:xlink="http://www.w3.org/1999/xlink" x="0px" y="0px"
	 viewBox="0 0 48 48" enable-background="new 0 0 48 48" xml:space="preserve">
<g>
	<path fill="#06728D" d="M46.1,44.7H3.3V1.9c0-0.8-0.6-1.4-1.4-1.4c-0.8,0-1.4,0.6-1.4,1.4v44.2c0,0.8,0.6,1.4,1.4,1.4h44.2
		c0.8,0,1.4-0.6,1.4-1.4C47.5,45.3,46.9,44.7,46.1,44.7z"/>
	<path fill="#F04B36" d="M23,20.5c-2.6,14.9-6.5,15.8-6.5,15.8c0.1,0,0.1,0,0.1,0l0,2.8c0,0,0,0,0,0c1,0,6.1-0.9,9.2-18.2
		c1.8-10.4,5.1-11.4,5.5-11.5c0.4,0.1,3.8,0.9,5.6,11.5c3.1,17.3,8.2,18.2,9.2,18.2c0,0,0,0,0,0l0-2.8c0,0,0,0,0.1,0
		c0,0-3.9-0.9-6.5-15.8C37.6,8.6,33.3,6.9,31.6,6.7l0,0c-0.1,0-0.2,0-0.3,0c-0.1,0-0.2,0-0.3,0l0,0C29.4,6.9,25.1,8.6,23,20.5z"/>
	<path fill="#F7A93B" d="M4.9,36.3l0,2.8c0,0,0,0,0,0c1,0,6.1-0.9,9.2-18.2c1.8-10.4,5.1-11.4,5.5-11.5c0.2,0,1.4,0.3,2.7,2.5
		c0.3,0.4,0.7,0.7,1.2,0.7c0.2,0,0.5-0.1,0.7-0.2c0.7-0.4,0.9-1.3,0.5-1.9C22.9,7.5,21,6.9,20,6.7l0,0c-0.1,0-0.2,0-0.3,0
		c-0.1,0-0.2,0-0.3,0l0,0c-1.6,0.2-6,1.9-8.1,13.8C8.7,35.4,4.8,36.3,4.8,36.4C4.9,36.3,4.9,36.3,4.9,36.3z"/>
	<path fill="#F7A93B" d="M34.5,36.4c0,0-3.6-0.8-6.2-14.1c-0.2-0.8-0.9-1.3-1.7-1.1c-0.8,0.2-1.3,0.9-1.1,1.7
		c3.1,15.6,7.9,16.4,8.8,16.4c0,0,0,0,0,0l0-2.8C34.4,36.3,34.5,36.3,34.5,36.4z"/>
</g>
</svg>
