<?xml version="1.0" encoding="utf-8"?>
<!-- Generator: Adobe Illustrator 18.0.0, SVG Export Plug-In . SVG Version: 6.00 Build 0)  -->
<!DOCTYPE svg PUBLIC "-//W3C//DTD SVG 1.1//EN" "http://www.w3.org/Graphics/SVG/1.1/DTD/svg11.dtd">
<svg version="1.1" id="Layer_1" xmlns="http://www.w3.org/2000/svg" xmlns:xlink="http://www.w3.org/1999/xlink" x="0px" y="0px"
	 viewBox="0 0 48 48" enable-background="new 0 0 48 48" xml:space="preserve">
<g>
	<polygon fill="#010101" points="23,21.4 23,21.4 23,21.4 	"/>
	<path fill="#06728D" d="M21.5,22.4L6.8,21.3c0,6.6,3.7,12.5,9.5,15.4L21.5,22.4z"/>
	<path fill="#06728D" d="M33.7,6.1c-2.9-1.8-6.1-2.8-9.5-2.8C19.7,3.3,15.4,5,12.1,8l10.8,11.8L33.7,6.1z"/>
	<path fill="#06728D" d="M24.5,22.3L31,37.7c6.6-2.8,11.1-9.3,11.1-16.5c0-0.6,0-1.1-0.1-1.7L24.5,22.3z"/>
	<path fill="#0DB89A" d="M47.5,16.5C46.4,11.1,43.4,6.2,39,2.7L25.5,20L47.5,16.5z"/>
	<path fill="#E2A14A" d="M6.7,5.2c-3.4,3.7-5.6,8.4-6.2,13.4l19.9,1.5L6.7,5.2z"/>
	<path fill="#F04B36" d="M15.9,43.8c4.9,1.8,10.5,2,15.5,0.4l-8.3-19.9L15.9,43.8z"/>
</g>
</svg>
