<?xml version="1.0" encoding="utf-8"?>
<!-- Generator: Adobe Illustrator 18.0.0, SVG Export Plug-In . SVG Version: 6.00 Build 0)  -->
<!DOCTYPE svg PUBLIC "-//W3C//DTD SVG 1.1//EN" "http://www.w3.org/Graphics/SVG/1.1/DTD/svg11.dtd">
<svg version="1.1" id="Layer_1" xmlns="http://www.w3.org/2000/svg" xmlns:xlink="http://www.w3.org/1999/xlink" x="0px" y="0px"
	 viewBox="0 0 48 48" enable-background="new 0 0 48 48" xml:space="preserve">
<g>
	<path fill="#294E58" d="M7.5,22.3c-0.2-0.1-0.5-0.1-0.7,0l-5.6,2.8l6,2.3l5.4-2.6L7.5,22.3z"/>
	<path fill="#06728D" d="M8.1,47.5l4.9-2.1c0.3-0.1,0.6-0.5,0.6-0.9V26.4L8.1,29V47.5z"/>
	<path fill="#294E58" d="M0.5,44.2c0,0.4,0.2,0.7,0.5,0.9l5.3,2.4V29l-5.8-2.2V44.2z"/>
	<path fill="#E77528" d="M24.5,11.9c-0.2-0.1-0.5-0.1-0.7,0l-5.6,2.8l6,2.3l5.4-2.6L24.5,11.9z"/>
	<path fill="#F7A93B" d="M25.1,47.5l4.9-2.1c0.3-0.1,0.6-0.5,0.6-0.9V16l-5.4,2.6V47.5z"/>
	<path fill="#E77528" d="M17.5,44.2c0,0.4,0.2,0.7,0.5,0.9l5.3,2.4V18.6l-5.8-2.2V44.2z"/>
	<path fill="#D22B27" d="M41.5,0.6c-0.2-0.1-0.5-0.1-0.7,0l-5.6,2.8l6,2.3l5.4-2.6L41.5,0.6z"/>
	<path fill="#F04B36" d="M42.1,7.3v40.2l4.9-2.1c0.3-0.1,0.6-0.5,0.6-0.9V4.7L42.1,7.3z"/>
	<path fill="#D22B27" d="M34.5,44.2c0,0.4,0.2,0.7,0.5,0.9l5.3,2.4V7.3l-5.8-2.2V44.2z"/>
</g>
</svg>
