<?xml version="1.0" encoding="utf-8"?>
<!-- Generator: Adobe Illustrator 18.0.0, SVG Export Plug-In . SVG Version: 6.00 Build 0)  -->
<!DOCTYPE svg PUBLIC "-//W3C//DTD SVG 1.1//EN" "http://www.w3.org/Graphics/SVG/1.1/DTD/svg11.dtd">
<svg version="1.1" id="Layer_1" xmlns="http://www.w3.org/2000/svg" xmlns:xlink="http://www.w3.org/1999/xlink" x="0px" y="0px"
	 viewBox="0 0 48 48" enable-background="new 0 0 48 48" xml:space="preserve">
<g>
	<path fill="#E77528" d="M20.3,41.2H1.5c-0.1,0-0.2,0.1-0.2,0.2c-0.4,3.3-0.7,5.8-0.7,5.8c0,0.1,0,0.1,0.1,0.2
		c0,0.1,0.1,0.1,0.2,0.1h19.6c0.1,0,0.1,0,0.2-0.1c0,0,0.1-0.1,0.1-0.2l0-5.8C20.5,41.3,20.4,41.2,20.3,41.2z"/>
	<path fill="#0DB89A" d="M7.9,5.2h12c0.1,0,0.2-0.1,0.2-0.2V0.7c0-0.1,0-0.1-0.1-0.2c0,0-0.1-0.1-0.2-0.1l-12,0.1
		c-0.1,0-0.2,0.1-0.2,0.2l0,4.1C7.6,5.1,7.7,5.2,7.9,5.2z"/>
	<path fill="#E77528" d="M46.8,41.4c0-0.1-0.1-0.2-0.2-0.2H27.7c-0.1,0-0.2,0.1-0.2,0.2l0,5.8c0,0.1,0,0.1,0.1,0.2
		c0,0,0.1,0.1,0.2,0.1h19.6c0.1,0,0.1,0,0.2-0.1c0-0.1,0.1-0.1,0.1-0.2C47.5,47.2,47.2,44.7,46.8,41.4z"/>
	<path fill="#0DB89A" d="M28.2,5.2h12c0.1,0,0.2-0.1,0.2-0.2l0-4.1c0-0.1-0.1-0.2-0.2-0.2l-12-0.1c-0.1,0-0.1,0-0.2,0.1
		c0,0-0.1,0.1-0.1,0.2V5C27.9,5.1,28,5.2,28.2,5.2z"/>
	<path fill="#06728D" d="M27.5,38.1c0,0.1,0,0.1,0.1,0.2c0,0,0.1,0.1,0.2,0.1h18.8c0.1,0,0.1,0,0.2-0.1c0-0.1,0.1-0.1,0.1-0.2
		c-0.5-3.7-1-7-1.5-9.8c-1.1-6.7-4.5-11-5-11.6l0.1-9.1c0-0.1,0-0.1-0.1-0.2c0,0-0.1-0.1-0.2-0.1h-12c-0.1,0-0.2,0.1-0.2,0.2v5h-7.8
		v-5c0-0.1-0.1-0.2-0.2-0.2h-12c-0.1,0-0.1,0-0.2,0.1c0,0-0.1,0.1-0.1,0.2l0.1,9.1c-0.5,0.6-3.9,4.8-5,11.6c-0.5,2.8-1,6.1-1.5,9.8
		c0,0.1,0,0.1,0.1,0.2c0,0.1,0.1,0.1,0.2,0.1h18.8c0,0,0,0,0,0c0.1,0,0.3-0.1,0.3-0.2c0,0,0-0.1,0-0.1l-0.1-14.7l3.5-0.8l3.5,0.8
		L27.5,38.1z"/>
</g>
</svg>
