<?xml version="1.0" encoding="utf-8"?>
<!-- Generator: Adobe Illustrator 18.0.0, SVG Export Plug-In . SVG Version: 6.00 Build 0)  -->
<!DOCTYPE svg PUBLIC "-//W3C//DTD SVG 1.1//EN" "http://www.w3.org/Graphics/SVG/1.1/DTD/svg11.dtd">
<svg version="1.1" id="Layer_1" xmlns="http://www.w3.org/2000/svg" xmlns:xlink="http://www.w3.org/1999/xlink" x="0px" y="0px"
	 viewBox="0 0 48 48" enable-background="new 0 0 48 48" xml:space="preserve">
<g>
	<path fill="#294E58" d="M10.9,47.3c0,0.1,0.1,0.2,0.3,0.2h8.9c0.2,0,0.3-0.1,0.3-0.2V30.3h-9.5V47.3z"/>
	<path fill="#F04B36" d="M47.3,0.5c-0.1,0-0.2,0-0.3,0.1L28.8,16v14.3L47,45.7c0.1,0.1,0.2,0.1,0.3,0.1c0.1,0,0.2-0.1,0.2-0.2V0.7
		C47.5,0.6,47.4,0.6,47.3,0.5z"/>
	<path fill="#F7A93B" d="M5.1,16c-2.5,0-4.6,1.7-4.6,3.9v6.5c0,2.1,2.1,3.9,4.6,3.9h5.8h9.5h8.4V16H5.1z"/>
</g>
</svg>
