<?xml version="1.0" encoding="utf-8"?>
<!-- Generator: Adobe Illustrator 18.0.0, SVG Export Plug-In . SVG Version: 6.00 Build 0)  -->
<!DOCTYPE svg PUBLIC "-//W3C//DTD SVG 1.1//EN" "http://www.w3.org/Graphics/SVG/1.1/DTD/svg11.dtd">
<svg version="1.1" id="Layer_1" xmlns="http://www.w3.org/2000/svg" xmlns:xlink="http://www.w3.org/1999/xlink" x="0px" y="0px"
	 viewBox="0 0 48 48" enable-background="new 0 0 48 48" xml:space="preserve">
<g>
	<path fill="#4DA0D8" d="M16.5,15.1c0.2-0.2,0.5-0.4,0.8-0.4c0.3,0,0.6,0.1,0.8,0.4l9.6,11.7l6.5-4.9c0.3-0.3,0.8-0.3,1.2,0l6.5,4.7
		V8.6H6.2v20.7L16.5,15.1z M31.3,10.3c2.7,0,4.9,2.2,4.9,4.8s-2.2,4.8-4.9,4.8c-2.7,0-4.9-2.2-4.9-4.8S28.6,10.3,31.3,10.3z"/>
	<path fill="#CE8931" d="M34.7,23.8l-6.6,5c-0.4,0.3-1,0.3-1.4-0.2l-9.4-11.4l-10.8,15c-0.1,0.1-0.2,0.2-0.3,0.3v6.9h35.6V28.9
		L34.7,23.8z"/>
	<ellipse fill="#F7A93B" cx="31.3" cy="15.1" rx="2.9" ry="2.8"/>
	<path fill="#0DB89A" d="M40.9,0.5H7.1C3.5,0.5,0.5,3,0.5,6.1v35.9c0,3.1,3,5.6,6.6,5.6h33.8c3.6,0,6.6-2.5,6.6-5.6V6.1
		C47.5,3,44.5,0.5,40.9,0.5z M43.8,40.4c0,0.5-0.4,1-1,1H5.2c-0.5,0-1-0.4-1-1V7.6c0-0.5,0.4-1,1-1h37.6c0.5,0,1,0.4,1,1V40.4z"/>
</g>
</svg>
