<?xml version="1.0" encoding="utf-8"?>
<!-- Generator: Adobe Illustrator 18.0.0, SVG Export Plug-In . SVG Version: 6.00 Build 0)  -->
<!DOCTYPE svg PUBLIC "-//W3C//DTD SVG 1.1//EN" "http://www.w3.org/Graphics/SVG/1.1/DTD/svg11.dtd">
<svg version="1.1" id="Layer_1" xmlns="http://www.w3.org/2000/svg" xmlns:xlink="http://www.w3.org/1999/xlink" x="0px" y="0px"
	 viewBox="0 0 48 48" enable-background="new 0 0 48 48" xml:space="preserve">
<g>
	<path fill="#F04B36" d="M37.2,23.5c-5.7,0-10.3,4.4-10.3,9.8c0,5.4,4.6,9.8,10.3,9.8c5.7,0,10.3-4.4,10.3-9.8
		C47.5,27.9,42.9,23.5,37.2,23.5z M41.2,34.3h-7.9c-0.5,0-1-0.4-1-1c0-0.5,0.4-1,1-1h7.9c0.5,0,1,0.4,1,1
		C42.2,33.8,41.7,34.3,41.2,34.3z"/>
	<path fill="#06728D" d="M25,33.3c0-6.5,5.5-11.7,12.2-11.7c0.5,0,1.1,0,1.6,0.1V14c0,0,0-0.1,0-0.1c0-0.1,0-0.1,0-0.2
		c0,0,0-0.1-0.1-0.1c0-0.1-0.1-0.1-0.1-0.2c0,0-0.1-0.1-0.1-0.1c0,0,0,0,0,0L24.3,0.7c-0.2-0.2-0.5-0.3-0.8-0.2H6.1
		C3,0.5,0.5,2.9,0.5,5.9v36.2c0,3,2.5,5.4,5.6,5.4h27c1.9,0,3.7-1,4.7-2.5c-0.2,0-0.5,0-0.7,0C30.5,45.1,25,39.8,25,33.3z M24.6,3.6
		l10.7,9.5H24.6V3.6z M9.1,9h9.1c0.5,0,1,0.4,1,1c0,0.5-0.4,1-1,1H9.1c-0.5,0-1-0.4-1-1C8.1,9.4,8.6,9,9.1,9z M9.1,14.6h9.1
		c0.5,0,1,0.4,1,1c0,0.5-0.4,1-1,1H9.1c-0.5,0-1-0.4-1-1C8.1,15,8.6,14.6,9.1,14.6z M9.1,20.2h20.6c0.5,0,1,0.4,1,1c0,0.5-0.4,1-1,1
		H9.1c-0.5,0-1-0.4-1-1C8.1,20.6,8.6,20.2,9.1,20.2z M9.1,25.8h15.1c0.5,0,1,0.4,1,1c0,0.5-0.4,1-1,1H9.1c-0.5,0-1-0.4-1-1
		C8.1,26.2,8.6,25.8,9.1,25.8z M9.1,31.4h14.1c0.5,0,1,0.4,1,1c0,0.5-0.4,1-1,1H9.1c-0.5,0-1-0.4-1-1C8.1,31.8,8.6,31.4,9.1,31.4z
		 M24.2,38.9H9.1c-0.5,0-1-0.4-1-1c0-0.5,0.4-1,1-1h15.1c0.5,0,1,0.4,1,1C25.2,38.4,24.7,38.9,24.2,38.9z"/>
</g>
</svg>
