<?xml version="1.0" encoding="utf-8"?>
<!-- Generator: Adobe Illustrator 18.0.0, SVG Export Plug-In . SVG Version: 6.00 Build 0)  -->
<!DOCTYPE svg PUBLIC "-//W3C//DTD SVG 1.1//EN" "http://www.w3.org/Graphics/SVG/1.1/DTD/svg11.dtd">
<svg version="1.1" id="Layer_1" xmlns="http://www.w3.org/2000/svg" xmlns:xlink="http://www.w3.org/1999/xlink" x="0px" y="0px"
	 viewBox="0 0 48 48" enable-background="new 0 0 48 48" xml:space="preserve">
<g>
	<path fill="#EDB04B" d="M24,47.5c-0.7,0-1.2-0.5-1.2-1.2V1.7c0-0.7,0.5-1.2,1.2-1.2c0.7,0,1.2,0.5,1.2,1.2v44.6
		C25.2,47,24.7,47.5,24,47.5z"/>
	<g>
		<path fill="#4DA0D8" d="M24,13c-0.3,0-0.7-0.1-0.9-0.4L16.2,5c-0.4-0.5-0.4-1.2,0.1-1.7c0.5-0.4,1.2-0.4,1.7,0.1l6.9,7.7
			c0.4,0.5,0.4,1.2-0.1,1.7C24.6,12.9,24.3,13,24,13z"/>
		<path fill="#4DA0D8" d="M24,13c-0.3,0-0.6-0.1-0.8-0.3c-0.5-0.4-0.5-1.2-0.1-1.7l6.9-7.7c0.4-0.5,1.2-0.5,1.7-0.1
			c0.5,0.4,0.5,1.2,0.1,1.7l-6.9,7.7C24.7,12.9,24.3,13,24,13z"/>
	</g>
	<g>
		<path fill="#4DA0D8" d="M30.9,45c-0.3,0-0.7-0.1-0.9-0.4L23.1,37c-0.4-0.5-0.4-1.2,0.1-1.7c0.5-0.4,1.2-0.4,1.7,0.1l6.9,7.7
			c0.4,0.5,0.4,1.2-0.1,1.7C31.5,44.9,31.2,45,30.9,45z"/>
		<path fill="#4DA0D8" d="M17.1,45c-0.3,0-0.6-0.1-0.8-0.3c-0.5-0.4-0.5-1.2-0.1-1.7l6.9-7.7c0.4-0.5,1.2-0.5,1.7-0.1
			c0.5,0.4,0.5,1.2,0.1,1.7l-6.9,7.7C17.7,44.9,17.4,45,17.1,45z"/>
	</g>
	<path fill="#EDB04B" d="M46.3,25.2H1.7c-0.7,0-1.2-0.5-1.2-1.2c0-0.7,0.5-1.2,1.2-1.2h44.6c0.7,0,1.2,0.5,1.2,1.2
		C47.5,24.7,47,25.2,46.3,25.2z"/>
	<g>
		<path fill="#4DA0D8" d="M36.2,25.2c-0.3,0-0.7-0.1-0.9-0.4c-0.4-0.5-0.4-1.2,0.1-1.7l7.7-6.9c0.5-0.4,1.2-0.4,1.7,0.1
			c0.4,0.5,0.4,1.2-0.1,1.7L37,24.9C36.7,25.1,36.4,25.2,36.2,25.2z"/>
		<path fill="#4DA0D8" d="M43.8,32.1c-0.3,0-0.6-0.1-0.8-0.3l-7.7-6.9c-0.5-0.4-0.5-1.2-0.1-1.7c0.4-0.5,1.2-0.5,1.7-0.1l7.7,6.9
			c0.5,0.4,0.5,1.2,0.1,1.7C44.5,32,44.1,32.1,43.8,32.1z"/>
	</g>
	<g>
		<path fill="#4DA0D8" d="M4.2,32.1c-0.3,0-0.7-0.1-0.9-0.4c-0.4-0.5-0.4-1.2,0.1-1.7l7.7-6.9c0.5-0.4,1.2-0.4,1.7,0.1
			c0.4,0.5,0.4,1.2-0.1,1.7L5,31.8C4.8,32,4.5,32.1,4.2,32.1z"/>
		<path fill="#4DA0D8" d="M11.8,25.2c-0.3,0-0.6-0.1-0.8-0.3l-7.7-6.9c-0.5-0.4-0.5-1.2-0.1-1.7c0.4-0.5,1.2-0.5,1.7-0.1l7.7,6.9
			c0.5,0.4,0.5,1.2,0.1,1.7C12.5,25.1,12.2,25.2,11.8,25.2z"/>
	</g>
	<path fill="#C9C7C7" d="M8.2,41c-0.3,0-0.6-0.1-0.8-0.4c-0.5-0.5-0.5-1.2,0-1.7L38.9,7.4c0.5-0.5,1.2-0.5,1.7,0
		c0.5,0.5,0.5,1.2,0,1.7L9.1,40.6C8.8,40.9,8.5,41,8.2,41z"/>
	<g>
		<path fill="#E77528" d="M32.7,16.5C32.7,16.5,32.7,16.5,32.7,16.5c-0.7,0-1.2-0.6-1.2-1.3l0.5-10.5c0-0.7,0.6-1.2,1.3-1.1
			c0.7,0,1.2,0.6,1.1,1.3l-0.5,10.5C33.9,16,33.4,16.5,32.7,16.5z"/>
		<path fill="#E77528" d="M32.7,16.5c-0.6,0-1.2-0.5-1.2-1.1c0-0.7,0.5-1.2,1.1-1.3l10.5-0.5c0.6,0,1.2,0.5,1.3,1.1
			c0,0.7-0.5,1.2-1.1,1.3L32.7,16.5C32.8,16.5,32.8,16.5,32.7,16.5z"/>
	</g>
	<g>
		<path fill="#E77528" d="M14.7,44.4C14.7,44.4,14.7,44.4,14.7,44.4c-0.7,0-1.2-0.6-1.2-1.3l0.5-10.5c0-0.7,0.6-1.2,1.3-1.1
			c0.7,0,1.2,0.6,1.1,1.3l-0.5,10.5C15.9,43.9,15.4,44.4,14.7,44.4z"/>
		<path fill="#E77528" d="M4.8,34.5c-0.6,0-1.2-0.5-1.2-1.1c0-0.7,0.5-1.2,1.1-1.3l10.5-0.5c0.7,0,1.2,0.5,1.3,1.1
			c0,0.7-0.5,1.2-1.1,1.3L4.8,34.5C4.8,34.5,4.8,34.5,4.8,34.5z"/>
	</g>
	<path fill="#C9C7C7" d="M39.8,41c-0.3,0-0.6-0.1-0.8-0.4L7.4,9.1c-0.5-0.5-0.5-1.2,0-1.7c0.5-0.5,1.2-0.5,1.7,0l31.5,31.5
		c0.5,0.5,0.5,1.2,0,1.7C40.4,40.9,40.1,41,39.8,41z"/>
	<g>
		<path fill="#E77528" d="M43.2,34.5C43.2,34.5,43.2,34.5,43.2,34.5l-10.6-0.5c-0.7,0-1.2-0.6-1.1-1.3c0-0.7,0.6-1.2,1.3-1.1
			l10.5,0.5c0.7,0,1.2,0.6,1.1,1.3C44.4,34,43.9,34.5,43.2,34.5z"/>
		<path fill="#E77528" d="M33.3,44.4c-0.6,0-1.2-0.5-1.2-1.1l-0.5-10.5c0-0.7,0.5-1.2,1.1-1.3c0.6,0,1.2,0.5,1.3,1.1l0.5,10.5
			C34.5,43.9,34,44.4,33.3,44.4C33.3,44.4,33.3,44.4,33.3,44.4z"/>
	</g>
	<path fill="#E77528" d="M16.4,15.5c0-0.1,0-0.1,0-0.2c0,0,0,0,0-0.1c0,0,0,0,0-0.1L15.9,4.7c0-0.7-0.6-1.2-1.3-1.1
		c-0.7,0-1.2,0.6-1.1,1.3L14,14l-9.2-0.4c-0.7,0-1.2,0.5-1.3,1.1c0,0.7,0.5,1.2,1.1,1.3l10.5,0.5c0,0,0,0,0.1,0h0c0,0,0,0,0,0
		c0,0,0,0,0,0h0c0,0,0,0,0.1,0c0.1,0,0.1,0,0.2,0c0.1,0,0.2,0,0.3-0.1c0.1,0,0.1-0.1,0.2-0.1c0.1,0,0.1-0.1,0.2-0.1
		c0-0.1,0.1-0.1,0.1-0.2c0-0.1,0.1-0.1,0.1-0.2C16.4,15.6,16.4,15.6,16.4,15.5z"/>
	<g>
		<path fill="#0DB89A" d="M28.5,20.7C28.5,20.7,28.5,20.7,28.5,20.7c-0.7,0-1.2-0.6-1.2-1.3l0.3-5.4c0-0.7,0.6-1.2,1.3-1.1
			c0.7,0,1.2,0.6,1.1,1.3l-0.3,5.4C29.7,20.2,29.1,20.7,28.5,20.7z"/>
		<path fill="#0DB89A" d="M28.5,20.7c-0.6,0-1.2-0.5-1.2-1.1c0-0.7,0.5-1.2,1.1-1.3l5.4-0.3c0.6,0,1.2,0.5,1.3,1.1
			c0,0.7-0.5,1.2-1.1,1.3L28.5,20.7C28.5,20.7,28.5,20.7,28.5,20.7z"/>
	</g>
	<g>
		<path fill="#0DB89A" d="M19.2,35.1C19.2,35.1,19.2,35.1,19.2,35.1c-0.7,0-1.2-0.6-1.2-1.3l0.3-5.4c0-0.7,0.6-1.2,1.3-1.1
			c0.7,0,1.2,0.6,1.1,1.3L20.4,34C20.4,34.6,19.9,35.1,19.2,35.1z"/>
		<path fill="#0DB89A" d="M14.1,30c-0.6,0-1.2-0.5-1.2-1.1c0-0.7,0.5-1.2,1.1-1.3l5.4-0.3c0.7,0,1.2,0.5,1.3,1.1
			c0,0.7-0.5,1.2-1.1,1.3L14.1,30C14.1,30,14.1,30,14.1,30z"/>
	</g>
	<g>
		<path fill="#0DB89A" d="M33.9,30C33.9,30,33.9,30,33.9,30l-5.5-0.3c-0.7,0-1.2-0.6-1.1-1.3c0-0.7,0.6-1.2,1.3-1.1l5.4,0.3
			c0.7,0,1.2,0.6,1.1,1.3C35.1,29.5,34.6,30,33.9,30z"/>
		<path fill="#0DB89A" d="M28.8,35.1c-0.6,0-1.2-0.5-1.2-1.1l-0.3-5.4c0-0.7,0.5-1.2,1.1-1.3c0.6,0,1.2,0.5,1.3,1.1l0.3,5.4
			C30,34.5,29.5,35.1,28.8,35.1C28.8,35.1,28.8,35.1,28.8,35.1z"/>
	</g>
	<g>
		<path fill="#0DB89A" d="M19.5,20.7C19.5,20.7,19.5,20.7,19.5,20.7L14,20.4c-0.7,0-1.2-0.6-1.1-1.3c0-0.7,0.6-1.2,1.3-1.1l5.4,0.3
			c0.7,0,1.2,0.6,1.1,1.3C20.7,20.2,20.1,20.7,19.5,20.7z"/>
		<path fill="#0DB89A" d="M19.5,20.7c-0.6,0-1.2-0.5-1.2-1.1L18,14.1c0-0.7,0.5-1.2,1.1-1.3c0.7,0,1.2,0.5,1.3,1.1l0.3,5.4
			C20.7,20.1,20.2,20.7,19.5,20.7C19.5,20.7,19.5,20.7,19.5,20.7z"/>
	</g>
</g>
</svg>
