<?xml version="1.0" encoding="utf-8"?>
<!-- Generator: Adobe Illustrator 18.0.0, SVG Export Plug-In . SVG Version: 6.00 Build 0)  -->
<!DOCTYPE svg PUBLIC "-//W3C//DTD SVG 1.1//EN" "http://www.w3.org/Graphics/SVG/1.1/DTD/svg11.dtd">
<svg version="1.1" id="Layer_1" xmlns="http://www.w3.org/2000/svg" xmlns:xlink="http://www.w3.org/1999/xlink" x="0px" y="0px"
	 viewBox="0 0 48 48" enable-background="new 0 0 48 48" xml:space="preserve">
<g>
	<path fill="#E77528" d="M24,47.5c-0.7,0-1.2-0.5-1.2-1.2V1.7c0-0.7,0.5-1.2,1.2-1.2c0.7,0,1.2,0.5,1.2,1.2v44.6
		C25.2,47,24.7,47.5,24,47.5z"/>
	<g>
		<g>
			<path fill="#F04B36" d="M24,15.2c-0.3,0-0.7-0.1-0.9-0.4l-5.7-6.3C16.9,8,17,7.2,17.5,6.8c0.5-0.4,1.2-0.4,1.7,0.1l5.7,6.3
				c0.4,0.5,0.4,1.2-0.1,1.7C24.6,15.1,24.3,15.2,24,15.2z"/>
		</g>
		<g>
			<path fill="#F04B36" d="M24,15.2c-0.3,0-0.6-0.1-0.8-0.3c-0.5-0.4-0.5-1.2-0.1-1.7l5.7-6.3c0.4-0.5,1.2-0.5,1.7-0.1
				C31,7.2,31.1,8,30.6,8.5l-5.7,6.3C24.7,15,24.3,15.2,24,15.2z"/>
		</g>
	</g>
	<g>
		<g>
			<path fill="#F04B36" d="M29.7,41.5c-0.3,0-0.7-0.1-0.9-0.4l-5.7-6.3c-0.4-0.5-0.4-1.2,0.1-1.7c0.5-0.4,1.2-0.4,1.7,0.1l5.7,6.3
				c0.4,0.5,0.4,1.2-0.1,1.7C30.3,41.4,30,41.5,29.7,41.5z"/>
		</g>
		<g>
			<path fill="#F04B36" d="M18.3,41.5c-0.3,0-0.6-0.1-0.8-0.3c-0.5-0.4-0.5-1.2-0.1-1.7l5.7-6.3c0.4-0.5,1.2-0.5,1.7-0.1
				c0.5,0.4,0.5,1.2,0.1,1.7l-5.7,6.3C18.9,41.4,18.6,41.5,18.3,41.5z"/>
		</g>
	</g>
	<path fill="#E77528" d="M46.3,25.2H1.7c-0.7,0-1.2-0.5-1.2-1.2c0-0.7,0.5-1.2,1.2-1.2h44.6c0.7,0,1.2,0.5,1.2,1.2
		C47.5,24.7,47,25.2,46.3,25.2z"/>
	<g>
		<g>
			<path fill="#F04B36" d="M34,25.2c-0.3,0-0.7-0.1-0.9-0.4c-0.4-0.5-0.4-1.2,0.1-1.7l6.3-5.7c0.5-0.4,1.2-0.4,1.7,0.1
				c0.4,0.5,0.4,1.2-0.1,1.7l-6.3,5.7C34.6,25.1,34.3,25.2,34,25.2z"/>
		</g>
		<g>
			<path fill="#F04B36" d="M40.3,30.9c-0.3,0-0.6-0.1-0.8-0.3l-6.3-5.7c-0.5-0.4-0.5-1.2-0.1-1.7c0.4-0.5,1.2-0.5,1.7-0.1l6.3,5.7
				c0.5,0.4,0.5,1.2,0.1,1.7C41,30.8,40.7,30.9,40.3,30.9z"/>
		</g>
	</g>
	<g>
		<g>
			<path fill="#F04B36" d="M7.7,30.9c-0.3,0-0.7-0.1-0.9-0.4c-0.4-0.5-0.4-1.2,0.1-1.7l6.3-5.7c0.5-0.4,1.2-0.4,1.7,0.1
				c0.4,0.5,0.4,1.2-0.1,1.7l-6.3,5.7C8.2,30.8,8,30.9,7.7,30.9z"/>
		</g>
		<g>
			<path fill="#F04B36" d="M14,25.2c-0.3,0-0.6-0.1-0.8-0.3l-6.3-5.7c-0.5-0.4-0.5-1.2-0.1-1.7C7.2,17,8,16.9,8.5,17.4l6.3,5.7
				c0.5,0.4,0.5,1.2,0.1,1.7C14.6,25.1,14.3,25.2,14,25.2z"/>
		</g>
	</g>
	<path fill="#0DB89A" d="M8.2,41c-0.3,0-0.6-0.1-0.8-0.4c-0.5-0.5-0.5-1.2,0-1.7L38.9,7.4c0.5-0.5,1.2-0.5,1.7,0
		c0.5,0.5,0.5,1.2,0,1.7L9.1,40.6C8.8,40.9,8.5,41,8.2,41z"/>
	<g>
		<g>
			<path fill="#4DA0D8" d="M32.7,16.5C32.7,16.5,32.7,16.5,32.7,16.5c-0.7,0-1.2-0.6-1.2-1.3l0.5-10.5c0-0.7,0.6-1.2,1.3-1.1
				c0.7,0,1.2,0.6,1.1,1.3l-0.5,10.5C33.9,16,33.4,16.5,32.7,16.5z"/>
		</g>
		<g>
			<path fill="#4DA0D8" d="M32.7,16.5c-0.6,0-1.2-0.5-1.2-1.1c0-0.7,0.5-1.2,1.1-1.3l10.5-0.5c0.7,0,1.2,0.5,1.3,1.1
				c0,0.7-0.5,1.2-1.1,1.3L32.7,16.5C32.8,16.5,32.8,16.5,32.7,16.5z"/>
		</g>
	</g>
	<g>
		<g>
			<path fill="#4DA0D8" d="M14.7,44.4C14.7,44.4,14.7,44.4,14.7,44.4c-0.7,0-1.2-0.6-1.2-1.3l0.5-10.5c0-0.7,0.6-1.2,1.3-1.1
				c0.7,0,1.2,0.6,1.1,1.3l-0.5,10.5C15.9,43.9,15.4,44.4,14.7,44.4z"/>
		</g>
		<g>
			<path fill="#4DA0D8" d="M4.8,34.5c-0.6,0-1.2-0.5-1.2-1.1c0-0.7,0.5-1.2,1.1-1.3l10.5-0.5c0.7,0,1.2,0.5,1.3,1.1
				c0,0.7-0.5,1.2-1.1,1.3L4.8,34.5C4.8,34.5,4.8,34.5,4.8,34.5z"/>
		</g>
	</g>
	<path fill="#0DB89A" d="M39.8,41c-0.3,0-0.6-0.1-0.8-0.4L7.4,9.1c-0.5-0.5-0.5-1.2,0-1.7c0.5-0.5,1.2-0.5,1.7,0l31.5,31.5
		c0.5,0.5,0.5,1.2,0,1.7C40.4,40.9,40.1,41,39.8,41z"/>
	<g>
		<g>
			<path fill="#4DA0D8" d="M43.2,34.5C43.2,34.5,43.2,34.5,43.2,34.5l-10.6-0.5c-0.7,0-1.2-0.6-1.1-1.3c0-0.7,0.6-1.2,1.3-1.1
				l10.5,0.5c0.7,0,1.2,0.6,1.1,1.3C44.4,34,43.9,34.5,43.2,34.5z"/>
		</g>
		<g>
			<path fill="#4DA0D8" d="M33.3,44.4c-0.6,0-1.2-0.5-1.2-1.1l-0.5-10.5c0-0.7,0.5-1.2,1.1-1.3c0.7,0,1.2,0.5,1.3,1.1l0.5,10.5
				C34.5,43.9,34,44.4,33.3,44.4C33.3,44.4,33.3,44.4,33.3,44.4z"/>
		</g>
	</g>
	<g>
		<g>
			<path fill="#4DA0D8" d="M15.3,16.5C15.2,16.5,15.2,16.5,15.3,16.5L4.7,15.9c-0.7,0-1.2-0.6-1.1-1.3s0.6-1.2,1.3-1.1l10.5,0.5
				c0.7,0,1.2,0.6,1.1,1.3C16.4,16,15.9,16.5,15.3,16.5z"/>
		</g>
		<g>
			<path fill="#4DA0D8" d="M15.3,16.5c-0.6,0-1.2-0.5-1.2-1.1L13.5,4.8c0-0.7,0.5-1.2,1.1-1.3c0.7,0,1.2,0.5,1.3,1.1l0.5,10.5
				C16.5,15.9,16,16.4,15.3,16.5C15.3,16.5,15.3,16.5,15.3,16.5z"/>
		</g>
	</g>
</g>
</svg>
