<?xml version="1.0" encoding="utf-8"?>
<!-- Generator: Adobe Illustrator 18.0.0, SVG Export Plug-In . SVG Version: 6.00 Build 0)  -->
<!DOCTYPE svg PUBLIC "-//W3C//DTD SVG 1.1//EN" "http://www.w3.org/Graphics/SVG/1.1/DTD/svg11.dtd">
<svg version="1.1" id="Layer_1" xmlns="http://www.w3.org/2000/svg" xmlns:xlink="http://www.w3.org/1999/xlink" x="0px" y="0px"
	 viewBox="0 0 48 48" enable-background="new 0 0 48 48" xml:space="preserve">
<g>
	<path fill="#4DA0D8" d="M27.4,25.4l6.2,0L32.2,24l1.4-1.4l-6.2,0L43.9,6.1c0.6-0.6,0.6-1.4,0-2c-0.6-0.6-1.4-0.6-2,0L25.4,20.6
		l0-6.2L24,15.8l-1.4-1.4l0,6.2L6.1,4.1c-0.6-0.6-1.4-0.6-2,0c-0.6,0.6-0.6,1.4,0,2l16.5,16.5l-6.2,0l1.4,1.4l-1.4,1.4l6.2,0
		L4.1,41.9c-0.6,0.6-0.6,1.4,0,2c0.3,0.3,0.6,0.4,1,0.4c0.4,0,0.7-0.1,1-0.4l16.5-16.5l0,6.2l1.4-1.4l1.4,1.4l0-6.2l16.5,16.5
		c0.3,0.3,0.6,0.4,1,0.4c0.4,0,0.7-0.1,1-0.4c0.6-0.6,0.6-1.4,0-2L27.4,25.4z"/>
	<g>
		<path fill="#F7A93B" d="M22.6,9.8l0,4.6l1.4,1.4l1.4-1.4l0-4.6l6-5.4c0.6-0.5,0.6-1.4,0.1-2c-0.5-0.6-1.4-0.6-2-0.1L25.4,6l0-4.1
			c0-0.8-0.6-1.4-1.4-1.4c-0.8,0-1.4,0.6-1.4,1.4l0,4.1l-4.1-3.7c-0.6-0.5-1.5-0.5-2,0.1c-0.5,0.6-0.5,1.5,0.1,2L22.6,9.8z"/>
		<path fill="#F7A93B" d="M41.9,4.1c0.3-0.3,0.6-0.4,1-0.4C42.5,3.7,42.1,3.9,41.9,4.1L25.4,20.6L41.9,4.1z"/>
		<path fill="#F7A93B" d="M4.1,4.1c0.3-0.3,0.6-0.4,1-0.4C4.8,3.7,4.4,3.9,4.1,4.1z"/>
		<path fill="#F7A93B" d="M44.2,4.6c-0.1-0.2-0.2-0.3-0.3-0.5c-0.3-0.3-0.6-0.4-1-0.4c0.4,0,0.7,0.1,1,0.4C44,4.3,44.1,4.4,44.2,4.6
			z"/>
		<path fill="#F7A93B" d="M44.3,5.1c0,0.2,0,0.4-0.1,0.5C44.2,5.5,44.3,5.3,44.3,5.1z"/>
		<path fill="#F7A93B" d="M44.2,43.4c0.1-0.2,0.1-0.4,0.1-0.5C44.3,43,44.2,43.2,44.2,43.4z"/>
		<path fill="#F7A93B" d="M25.4,38.2l0-10.8l0,6.2L24,32.2l-1.4,1.4l0,4.6l-6,5.4c-0.6,0.5-0.6,1.4-0.1,2c0.3,0.3,0.7,0.5,1,0.5
			c0.3,0,0.7-0.1,0.9-0.4l4.1-3.7l0,4.1c0,0.8,0.6,1.4,1.4,1.4c0.8,0,1.4-0.6,1.4-1.4l0-4.1l4.1,3.7c0.3,0.2,0.6,0.4,0.9,0.4
			c0.4,0,0.8-0.2,1-0.5c0.5-0.6,0.5-1.5-0.1-2L25.4,38.2z"/>
		<path fill="#F7A93B" d="M46.1,25.4c0.8,0,1.4-0.6,1.4-1.4c0-0.8-0.6-1.4-1.4-1.4l-4.1,0l3.7-4.1c0.5-0.6,0.5-1.5-0.1-2
			c-0.6-0.5-1.5-0.5-2,0.1l-5.4,6l-10.8,0l6.2,0L32.2,24l1.4,1.4l-6.2,0l10.8,0l5.4,6c0.3,0.3,0.7,0.5,1,0.5c0.3,0,0.7-0.1,0.9-0.4
			c0.6-0.5,0.6-1.4,0.1-2L42,25.4L46.1,25.4L46.1,25.4z"/>
		<path fill="#F7A93B" d="M9.8,25.4l10.8,0l-6.2,0l1.4-1.4l-1.4-1.4l-4.6,0l-5.4-6c-0.5-0.6-1.4-0.6-2-0.1c-0.6,0.5-0.6,1.4-0.1,2
			L6,22.6l-4.1,0c-0.8,0-1.4,0.6-1.4,1.4c0,0.8,0.6,1.4,1.4,1.4l4.1,0l-3.7,4.1c-0.5,0.6-0.5,1.5,0.1,2c0.3,0.2,0.6,0.4,0.9,0.4
			c0.4,0,0.8-0.2,1-0.5L9.8,25.4z"/>
		<path fill="#F7A93B" d="M4.6,44.2c0.2,0.1,0.4,0.1,0.5,0.1h0C5,44.3,4.8,44.2,4.6,44.2z"/>
		<polygon fill="#F7A93B" points="22.6,27.4 6.1,43.9 22.6,27.4 		"/>
	</g>
</g>
</svg>
