<?xml version="1.0" encoding="utf-8"?>
<!-- Generator: Adobe Illustrator 18.0.0, SVG Export Plug-In . SVG Version: 6.00 Build 0)  -->
<!DOCTYPE svg PUBLIC "-//W3C//DTD SVG 1.1//EN" "http://www.w3.org/Graphics/SVG/1.1/DTD/svg11.dtd">
<svg version="1.1" id="Layer_1" xmlns="http://www.w3.org/2000/svg" xmlns:xlink="http://www.w3.org/1999/xlink" x="0px" y="0px"
	 viewBox="0 0 48 48" enable-background="new 0 0 48 48" xml:space="preserve">
<g>
	<path fill="#4DA0D8" d="M33.7,24l1.4-1.4h-2.9c-0.1,0-0.2,0-0.3,0c-0.6-3.3-3.2-5.9-6.5-6.5c0-0.1,0-0.2,0-0.3v-2.9L24,14.3
		l-1.4-1.4v2.9c0,0.1,0,0.2,0,0.3c-3.3,0.6-5.9,3.2-6.5,6.5c-0.1,0-0.2,0-0.3,0h-2.9l1.4,1.4l-1.4,1.4h2.9c0.1,0,0.2,0,0.3,0
		c0.6,3.3,3.2,5.9,6.5,6.5c0,0.1,0,0.2,0,0.3v2.9l1.4-1.4l1.4,1.4v-2.9c0-0.1,0-0.2,0-0.3c3.3-0.6,5.9-3.2,6.5-6.5
		c0.1,0,0.2,0,0.3,0h2.9L33.7,24z"/>
	<g>
		<path fill="#E77528" d="M19.3,30.4c-0.3-0.2-0.6-0.5-0.9-0.8C18.6,29.9,18.9,30.2,19.3,30.4z"/>
		<path fill="#E77528" d="M19.3,30.4c1,0.7,2.1,1.2,3.3,1.4c0,0,0,0,0,0C21.4,31.7,20.2,31.2,19.3,30.4z"/>
		<path fill="#E77528" d="M22.6,9.8v3.1l1.4,1.4l1.4-1.4V9.8l6-5.4c0.6-0.5,0.6-1.4,0.1-2c-0.5-0.6-1.4-0.6-2-0.1l-4.1,3.7v-4
			c0-0.8-0.6-1.4-1.4-1.4s-1.4,0.6-1.4,1.4v4l-4.1-3.7c-0.6-0.5-1.5-0.5-2,0.1c-0.5,0.6-0.5,1.5,0.1,2L22.6,9.8z"/>
		<path fill="#E77528" d="M31.6,21.4c-0.4-1.2-1.1-2.2-1.9-3.1C30.5,19.2,31.2,20.2,31.6,21.4z"/>
		<path fill="#E77528" d="M12.9,22.6H9.8l-5.4-6C3.9,16,3,16,2.4,16.5c-0.6,0.5-0.6,1.4-0.1,2l3.7,4.1h-4c-0.8,0-1.4,0.6-1.4,1.4
			c0,0.8,0.6,1.4,1.4,1.4h4l-3.7,4.1c-0.5,0.6-0.5,1.5,0.1,2c0.3,0.2,0.6,0.4,1,0.4c0.4,0,0.8-0.2,1.1-0.5l5.4-6h3.1l1.4-1.4
			L12.9,22.6z"/>
		<path fill="#E77528" d="M25.4,31.9C25.4,31.9,25.4,31.9,25.4,31.9c3.3-0.6,5.9-3.2,6.5-6.5c0.1,0,0.2,0,0.3,0h0
			c-0.1,0-0.2,0-0.3,0C31.3,28.7,28.7,31.3,25.4,31.9z"/>
		<path fill="#E77528" d="M47.5,24c0-0.8-0.6-1.4-1.4-1.4h-4l3.7-4.1c0.5-0.6,0.5-1.5-0.1-2c-0.6-0.5-1.5-0.5-2,0.1l-5.4,6h-3.1
			L33.7,24l1.4,1.4h3.1l5.4,6c0.3,0.3,0.7,0.5,1.1,0.5c0.3,0,0.7-0.1,1-0.4c0.6-0.5,0.6-1.4,0.1-2l-3.7-4.1h4
			C46.9,25.4,47.5,24.8,47.5,24z"/>
		<path fill="#E77528" d="M25.4,38.2v-3.1L24,33.7l-1.4,1.4v3.1l-6,5.4c-0.6,0.5-0.6,1.4-0.1,2c0.3,0.3,0.7,0.5,1.1,0.5
			c0.3,0,0.7-0.1,1-0.4l4.1-3.7v4c0,0.8,0.6,1.4,1.4,1.4s1.4-0.6,1.4-1.4v-4l4.1,3.7c0.3,0.2,0.6,0.4,1,0.4c0.4,0,0.8-0.2,1.1-0.5
			c0.5-0.6,0.5-1.5-0.1-2L25.4,38.2z"/>
		<path fill="#E77528" d="M16.1,25.4c-0.1,0-0.2,0-0.3,0C15.9,25.4,16,25.4,16.1,25.4c0.2,1.2,0.7,2.4,1.4,3.3
			C16.8,27.8,16.3,26.6,16.1,25.4z"/>
	</g>
	<circle fill="#FFFFFF" cx="24" cy="24" r="4.8"/>
</g>
</svg>
