<?xml version="1.0" encoding="utf-8"?>
<!-- Generator: Adobe Illustrator 18.0.0, SVG Export Plug-In . SVG Version: 6.00 Build 0)  -->
<!DOCTYPE svg PUBLIC "-//W3C//DTD SVG 1.1//EN" "http://www.w3.org/Graphics/SVG/1.1/DTD/svg11.dtd">
<svg version="1.1" id="Layer_1" xmlns="http://www.w3.org/2000/svg" xmlns:xlink="http://www.w3.org/1999/xlink" x="0px" y="0px"
	 viewBox="0 0 48 48" enable-background="new 0 0 48 48" xml:space="preserve">
<g>
	<path fill="#F04B36" d="M33,16.4c-0.4,0-0.7-0.1-1-0.4c-0.6-0.6-0.6-1.5,0-2.1L40.9,5c0.6-0.6,1.5-0.6,2.1,0c0.6,0.6,0.6,1.5,0,2.1
		L34.1,16C33.8,16.3,33.4,16.4,33,16.4z"/>
	<g>
		<path fill="#0DB89A" d="M36.1,13.4c-0.8,0-1.4-0.6-1.4-1.4L34.1,2c0-0.8,0.6-1.5,1.4-1.5c0.8,0,1.5,0.6,1.5,1.4l0.5,10
			C37.6,12.7,36.9,13.3,36.1,13.4C36.1,13.4,36.1,13.4,36.1,13.4z"/>
		<path fill="#0DB89A" d="M46,13.9C46,13.9,46,13.9,46,13.9l-10-0.5c-0.8,0-1.4-0.7-1.4-1.5c0-0.8,0.7-1.4,1.5-1.4l10,0.5
			c0.8,0,1.4,0.7,1.4,1.5C47.4,13.3,46.8,13.9,46,13.9z"/>
	</g>
	<path fill="#F04B36" d="M6.1,43.4c-0.4,0-0.7-0.1-1-0.4c-0.6-0.6-0.6-1.5,0-2.1l8.9-8.9c0.6-0.6,1.5-0.6,2.1,0
		c0.6,0.6,0.6,1.5,0,2.1L7.1,43C6.8,43.2,6.4,43.4,6.1,43.4z"/>
	<g>
		<path fill="#0DB89A" d="M12.4,47.5c-0.8,0-1.4-0.6-1.4-1.4l-0.5-10c0-0.8,0.6-1.5,1.4-1.5c0.8,0,1.5,0.6,1.5,1.4l0.5,10
			C13.9,46.8,13.3,47.4,12.4,47.5C12.5,47.5,12.4,47.5,12.4,47.5z"/>
		<path fill="#0DB89A" d="M11.9,37.5C11.9,37.5,11.9,37.5,11.9,37.5L1.9,37c-0.8,0-1.4-0.7-1.4-1.5c0-0.8,0.7-1.4,1.5-1.4l10,0.5
			c0.8,0,1.4,0.7,1.4,1.5C13.3,36.9,12.7,37.5,11.9,37.5z"/>
	</g>
	<path fill="#F04B36" d="M41.9,43.4c-0.4,0-0.7-0.1-1-0.4L32,34.1c-0.6-0.6-0.6-1.5,0-2.1c0.6-0.6,1.5-0.6,2.1,0l8.9,8.9
		c0.6,0.6,0.6,1.5,0,2.1C42.7,43.3,42.3,43.4,41.9,43.4z"/>
	<g>
		<path fill="#0DB89A" d="M36.1,37.5c-0.8,0-1.4-0.6-1.4-1.4c0-0.8,0.6-1.5,1.4-1.5l10-0.5c0.8,0,1.5,0.6,1.5,1.4
			c0,0.8-0.6,1.5-1.4,1.5L36.1,37.5C36.1,37.5,36.1,37.5,36.1,37.5z"/>
		<path fill="#0DB89A" d="M35.6,47.5C35.5,47.5,35.5,47.5,35.6,47.5c-0.9,0-1.5-0.7-1.4-1.5l0.5-10c0-0.8,0.7-1.4,1.5-1.4
			c0.8,0,1.4,0.7,1.4,1.5l-0.5,10C37,46.9,36.3,47.5,35.6,47.5z"/>
	</g>
	<path fill="#F04B36" d="M15,16.4c-0.4,0-0.7-0.1-1-0.4L5,7.1C4.5,6.5,4.5,5.6,5,5c0.6-0.6,1.5-0.6,2.1,0l8.9,8.9
		c0.6,0.6,0.6,1.5,0,2.1C15.7,16.3,15.3,16.4,15,16.4z"/>
	<g>
		<path fill="#0DB89A" d="M2,13.9c-0.8,0-1.4-0.6-1.4-1.4c0-0.8,0.6-1.5,1.4-1.5l10-0.5c0.8,0,1.5,0.6,1.5,1.4
			c0,0.8-0.6,1.5-1.4,1.5L2,13.9C2,13.9,2,13.9,2,13.9z"/>
		<path fill="#0DB89A" d="M11.9,13.4C11.9,13.4,11.9,13.4,11.9,13.4c-0.9,0-1.5-0.7-1.4-1.5l0.5-10c0-0.8,0.7-1.4,1.5-1.4
			c0.8,0,1.4,0.7,1.4,1.5l-0.5,10C13.3,12.8,12.7,13.4,11.9,13.4z"/>
	</g>
	<path fill="#4DA0D8" d="M46,25.5L46,25.5l-11,0c-0.8,0-1.4-0.6-1.4-1.5c0-0.8,0.6-1.4,1.5-1.4h0l11,0c0.8,0,1.4,0.6,1.4,1.5
		C47.5,24.8,46.9,25.5,46,25.5z"/>
	<g>
		<path fill="#E77528" d="M38.8,25.5c-0.3,0-0.7-0.1-1-0.4c-0.6-0.5-0.6-1.5-0.1-2l5.8-6.4c0.5-0.6,1.5-0.6,2-0.1
			c0.6,0.5,0.6,1.5,0.1,2L39.9,25C39.6,25.3,39.2,25.5,38.8,25.5z"/>
		<path fill="#E77528" d="M44.6,31.9c-0.4,0-0.8-0.2-1.1-0.5L37.8,25c-0.5-0.6-0.5-1.5,0.1-2c0.6-0.5,1.5-0.5,2,0.1l5.8,6.4
			c0.5,0.6,0.5,1.5-0.1,2C45.3,31.8,45,31.9,44.6,31.9z"/>
	</g>
	<path fill="#4DA0D8" d="M2,25.4c-0.8,0-1.5-0.6-1.5-1.4c0-0.8,0.6-1.5,1.4-1.5l11,0c0.8,0,1.5,0.6,1.5,1.4c0,0.8-0.6,1.5-1.4,1.5
		L2,25.4z"/>
	<g>
		<path fill="#E77528" d="M3.3,31.9c-0.3,0-0.7-0.1-1-0.4c-0.6-0.5-0.6-1.5-0.1-2L8.1,23c0.5-0.6,1.5-0.6,2-0.1
			c0.6,0.5,0.6,1.5,0.1,2l-5.8,6.4C4.1,31.7,3.7,31.9,3.3,31.9z"/>
		<path fill="#E77528" d="M9.2,25.4c-0.4,0-0.8-0.2-1.1-0.5l-5.8-6.4c-0.5-0.6-0.5-1.5,0.1-2C3,16,3.9,16,4.4,16.6l5.8,6.4
			c0.5,0.6,0.5,1.5-0.1,2C9.9,25.3,9.5,25.4,9.2,25.4z"/>
	</g>
	<path fill="#4DA0D8" d="M24,47.5L24,47.5c-0.8,0-1.5-0.6-1.5-1.5l0-11c0-0.8,0.6-1.4,1.5-1.4h0c0.8,0,1.4,0.6,1.4,1.5l0,11
		C25.5,46.9,24.8,47.5,24,47.5z"/>
	<g>
		<path fill="#E77528" d="M30.4,46.1c-0.3,0-0.7-0.1-1-0.4L23,39.9c-0.6-0.5-0.6-1.5-0.1-2c0.5-0.6,1.5-0.6,2-0.1l6.4,5.8
			c0.6,0.5,0.6,1.5,0.1,2C31.2,45.9,30.8,46.1,30.4,46.1z"/>
		<path fill="#E77528" d="M17.6,46.1c-0.4,0-0.8-0.2-1.1-0.5c-0.5-0.6-0.5-1.5,0.1-2l6.4-5.8c0.6-0.5,1.5-0.5,2,0.1
			c0.5,0.6,0.5,1.5-0.1,2l-6.4,5.8C18.3,46,17.9,46.1,17.6,46.1z"/>
	</g>
	<path fill="#4DA0D8" d="M24,14.4c-0.8,0-1.5-0.6-1.5-1.4l0-11c0-0.8,0.6-1.5,1.4-1.5c0.8,0,1.5,0.6,1.5,1.4l0,11
		C25.5,13.7,24.8,14.4,24,14.4z"/>
	<g>
		<path fill="#E77528" d="M24,10.6c-0.3,0-0.7-0.1-1-0.4l-6.4-5.8C16,3.9,16,3,16.5,2.4c0.5-0.6,1.5-0.6,2-0.1L25,8.1
			c0.6,0.5,0.6,1.5,0.1,2C24.8,10.5,24.4,10.6,24,10.6z"/>
		<path fill="#E77528" d="M24,10.6c-0.4,0-0.8-0.2-1.1-0.5c-0.5-0.6-0.5-1.5,0.1-2l6.4-5.8c0.6-0.5,1.5-0.5,2,0.1
			C32,3,32,3.9,31.4,4.4L25,10.2C24.7,10.5,24.3,10.6,24,10.6z"/>
	</g>
	<path fill="#FFCD74" d="M31.8,16.2c-2.1-2.1-4.9-3.2-7.8-3.2c-3,0-5.7,1.2-7.8,3.2c-4.3,4.3-4.3,11.4,0,15.7
		c2.1,2.1,4.9,3.2,7.8,3.2c3,0,5.7-1.2,7.8-3.2c2.1-2.1,3.2-4.9,3.2-7.8C35.1,21,33.9,18.3,31.8,16.2z M29.5,29.5
		C28,31,26.1,31.8,24,31.8c-2.1,0-4-0.8-5.5-2.3c-3-3-3-8,0-11c1.5-1.5,3.4-2.3,5.5-2.3c2.1,0,4,0.8,5.5,2.3
		c1.5,1.5,2.3,3.4,2.3,5.5C31.8,26.1,31,28,29.5,29.5z"/>
</g>
</svg>
