<?xml version="1.0" encoding="utf-8"?>
<!-- Generator: Adobe Illustrator 18.0.0, SVG Export Plug-In . SVG Version: 6.00 Build 0)  -->
<!DOCTYPE svg PUBLIC "-//W3C//DTD SVG 1.1//EN" "http://www.w3.org/Graphics/SVG/1.1/DTD/svg11.dtd">
<svg version="1.1" id="Layer_1" xmlns="http://www.w3.org/2000/svg" xmlns:xlink="http://www.w3.org/1999/xlink" x="0px" y="0px"
	 viewBox="0 0 48 48" enable-background="new 0 0 48 48" xml:space="preserve">
<g>
	<path fill="#4DA0D8" d="M32.8,30.7c1.2-1.5,1.9-3.3,2.2-5.3c0,0,0.1,0,0.1,0h1.6v-2.9h-1.6c0,0-0.1,0-0.1,0c-0.3-2-1-3.8-2.2-5.3
		l3.9-3.9c0.6-0.6,0.6-1.5,0-2.1c-0.6-0.6-1.5-0.6-2.1,0l-3.9,3.9c-1.5-1.2-3.3-1.9-5.3-2.2c0,0,0-0.1,0-0.1v-1.6h-2.9v1.6
		c0,0,0,0.1,0,0.1c-2,0.3-3.8,1-5.3,2.2l-3.9-3.9c-0.6-0.6-1.5-0.6-2.1,0c-0.6,0.6-0.6,1.5,0,2.1l3.9,3.9c-1.2,1.5-1.9,3.3-2.2,5.3
		c0,0-0.1,0-0.1,0h-1.6v2.9h1.6c0,0,0.1,0,0.1,0c0.3,2,1,3.8,2.2,5.3l-3.9,3.9c-0.6,0.6-0.6,1.5,0,2.1c0.3,0.3,0.7,0.4,1,0.4
		c0.4,0,0.7-0.1,1-0.4l3.9-3.9c1.5,1.2,3.3,1.9,5.3,2.2c0,0,0,0.1,0,0.1v1.6h2.9v-1.6c0,0,0-0.1,0-0.1c2-0.3,3.8-1,5.3-2.2l3.9,3.9
		c0.3,0.3,0.7,0.4,1,0.4c0.4,0,0.7-0.1,1-0.4c0.6-0.6,0.6-1.5,0-2.1L32.8,30.7z M24,31.8c-4.3,0-7.8-3.5-7.8-7.8s3.5-7.8,7.8-7.8
		c4.3,0,7.8,3.5,7.8,7.8S28.3,31.8,24,31.8z"/>
	<g>
		<path fill="#F04B36" d="M22.6,9.8v1.5h2.9V9.8l6-5.4C32,3.9,32,3,31.5,2.4c-0.5-0.6-1.5-0.6-2-0.1l-4,3.6V2c0-0.8-0.6-1.5-1.5-1.5
			c-0.8,0-1.5,0.6-1.5,1.5v4l-4-3.6c-0.6-0.5-1.5-0.5-2,0.1C16,3,16,3.9,16.6,4.4L22.6,9.8z"/>
		<path fill="#F04B36" d="M11.3,22.5H9.8l-5.4-6C3.9,16,3,16,2.4,16.5c-0.6,0.5-0.6,1.5-0.1,2l3.6,4H2c-0.8,0-1.5,0.6-1.5,1.5
			s0.6,1.5,1.5,1.5h4l-3.6,4c-0.5,0.6-0.5,1.5,0.1,2c0.3,0.3,0.6,0.4,1,0.4c0.4,0,0.8-0.2,1.1-0.5l5.4-5.9h1.5V22.5z"/>
		<path fill="#F04B36" d="M25.5,38.2v-1.5h-2.9v1.5l-6,5.4c-0.6,0.5-0.6,1.5-0.1,2c0.3,0.3,0.7,0.5,1.1,0.5c0.3,0,0.7-0.1,1-0.4
			l4-3.6v4c0,0.8,0.6,1.5,1.5,1.5c0.8,0,1.5-0.6,1.5-1.5v-3.9l4,3.6c0.3,0.3,0.6,0.4,1,0.4c0.4,0,0.8-0.2,1.1-0.5
			c0.5-0.6,0.5-1.5-0.1-2L25.5,38.2z"/>
		<path fill="#F04B36" d="M47.5,24c0-0.8-0.6-1.5-1.5-1.5h-4l3.6-4c0.5-0.6,0.5-1.5-0.1-2c-0.6-0.5-1.5-0.5-2,0.1l-5.4,6h-1.5v2.9
			h1.5l5.4,5.9c0.3,0.3,0.7,0.5,1.1,0.5c0.3,0,0.7-0.1,1-0.4c0.6-0.5,0.6-1.5,0.1-2l-3.6-4h4C46.9,25.5,47.5,24.8,47.5,24z"/>
	</g>
	<circle fill="#469B54" cx="24" cy="24" r="4.2"/>
</g>
</svg>
