<?xml version="1.0" encoding="utf-8"?>
<!-- Generator: Adobe Illustrator 18.0.0, SVG Export Plug-In . SVG Version: 6.00 Build 0)  -->
<!DOCTYPE svg PUBLIC "-//W3C//DTD SVG 1.1//EN" "http://www.w3.org/Graphics/SVG/1.1/DTD/svg11.dtd">
<svg version="1.1" id="Layer_1" xmlns="http://www.w3.org/2000/svg" xmlns:xlink="http://www.w3.org/1999/xlink" x="0px" y="0px"
	 viewBox="0 0 48 48" enable-background="new 0 0 48 48" xml:space="preserve">
<g>
	<path fill="#4DA0D8" d="M46.1,25.4H32c-0.8,0-1.4-0.6-1.4-1.4s0.6-1.4,1.4-1.4h14c0.8,0,1.4,0.6,1.4,1.4S46.9,25.4,46.1,25.4z"/>
	<path fill="#4DA0D8" d="M16,25.4h-14c-0.8,0-1.4-0.6-1.4-1.4s0.6-1.4,1.4-1.4h14c0.8,0,1.4,0.6,1.4,1.4S16.7,25.4,16,25.4z"/>
	<path fill="#4DA0D8" d="M24,47.5c-0.8,0-1.4-0.6-1.4-1.4V32c0-0.8,0.6-1.4,1.4-1.4s1.4,0.6,1.4,1.4v14C25.4,46.9,24.8,47.5,24,47.5
		z"/>
	<path fill="#4DA0D8" d="M24,17.4c-0.8,0-1.4-0.6-1.4-1.4v-14c0-0.8,0.6-1.4,1.4-1.4s1.4,0.6,1.4,1.4v14
		C25.4,16.7,24.8,17.4,24,17.4z"/>
	<path fill="#06728D" d="M39.6,41c-0.4,0-0.7-0.1-1-0.4l-9.9-9.9c-0.6-0.6-0.6-1.5,0-2c0.6-0.6,1.5-0.6,2,0l9.9,9.9
		c0.6,0.6,0.6,1.5,0,2C40.3,40.9,40,41,39.6,41z"/>
	<path fill="#06728D" d="M18.3,19.7c-0.4,0-0.7-0.1-1-0.4L7.4,9.4c-0.6-0.6-0.6-1.5,0-2c0.6-0.6,1.5-0.6,2,0l9.9,9.9
		c0.6,0.6,0.6,1.5,0,2C19,19.6,18.7,19.7,18.3,19.7z"/>
	<path fill="#06728D" d="M8.4,41c-0.4,0-0.7-0.1-1-0.4c-0.6-0.6-0.6-1.5,0-2l9.9-9.9c0.6-0.6,1.5-0.6,2,0c0.6,0.6,0.6,1.5,0,2
		l-9.9,9.9C9.1,40.9,8.8,41,8.4,41z"/>
	<path fill="#06728D" d="M29.7,19.7c-0.4,0-0.7-0.1-1-0.4c-0.6-0.6-0.6-1.5,0-2l9.9-9.9c0.6-0.6,1.5-0.6,2,0c0.6,0.6,0.6,1.5,0,2
		l-9.9,9.9C30.4,19.6,30.1,19.7,29.7,19.7z"/>
	<path fill="#0DB89A" d="M38.3,30.6c-0.2,0-0.3,0-0.5-0.1l-6.5-2.4c-0.7-0.3-1.1-1.1-0.9-1.8c0.3-0.7,1.1-1.1,1.8-0.9l6.5,2.4
		c0.7,0.3,1.1,1.1,0.9,1.8C39.4,30.3,38.9,30.6,38.3,30.6z"/>
	<path fill="#0DB89A" d="M16.3,22.6c-0.2,0-0.3,0-0.5-0.1l-6.6-2.4c-0.7-0.3-1.1-1.1-0.9-1.8c0.3-0.7,1.1-1.1,1.8-0.9l6.6,2.4
		c0.7,0.3,1.1,1.1,0.9,1.8C17.4,22.3,16.9,22.6,16.3,22.6z"/>
	<path fill="#0DB89A" d="M18.8,39.7c-0.2,0-0.3,0-0.5-0.1c-0.7-0.3-1.1-1.1-0.9-1.8l2.4-6.6c0.3-0.7,1.1-1.1,1.8-0.9
		c0.7,0.3,1.1,1.1,0.9,1.8l-2.4,6.6C19.9,39.3,19.4,39.7,18.8,39.7z"/>
	<path fill="#0DB89A" d="M26.8,17.7c-0.2,0-0.3,0-0.5-0.1c-0.7-0.3-1.1-1.1-0.9-1.8l2.4-6.5c0.3-0.7,1.1-1.1,1.8-0.9
		c0.7,0.3,1.1,1.1,0.9,1.8l-2.4,6.5C27.9,17.3,27.4,17.7,26.8,17.7z"/>
	<path fill="#F7A93B" d="M30.4,39.2c-0.5,0-1-0.3-1.3-0.8l-3-6.5c-0.3-0.7,0-1.6,0.7-1.9c0.7-0.3,1.6,0,1.9,0.7l3,6.5
		c0.3,0.7,0,1.6-0.7,1.9C30.8,39.1,30.6,39.2,30.4,39.2z"/>
	<path fill="#F7A93B" d="M20.6,18.1c-0.5,0-1-0.3-1.3-0.8l-3-6.5C16,10.1,16.3,9.3,17,9c0.7-0.3,1.6,0,1.9,0.7l3,6.5
		c0.3,0.7,0,1.6-0.7,1.9C21,18.1,20.8,18.1,20.6,18.1z"/>
	<path fill="#F7A93B" d="M10.2,31.8c-0.5,0-1-0.3-1.3-0.8c-0.3-0.7,0-1.6,0.7-1.9l6.4-3c0.7-0.3,1.6,0,1.9,0.7
		c0.3,0.7,0,1.6-0.7,1.9l-6.4,3C10.6,31.8,10.4,31.8,10.2,31.8z"/>
	<path fill="#F7A93B" d="M31.5,21.9c-0.5,0-1-0.3-1.3-0.8c-0.3-0.7,0-1.6,0.7-1.9l6.3-2.9c0.7-0.3,1.6,0,1.9,0.7
		c0.3,0.7,0,1.6-0.7,1.9l-6.3,2.9C31.9,21.9,31.7,21.9,31.5,21.9z"/>
	<path fill="#06728D" d="M27.1,15.5c-1-0.4-2-0.5-3.1-0.5c-5,0-9,4-9,9c0,5,4,9,9,9s9-4,9-9C33,20.2,30.6,16.8,27.1,15.5z M24,29.8
		c-3.2,0-5.8-2.6-5.8-5.8c0-3.2,2.6-5.8,5.8-5.8c0.7,0,1.3,0.1,2,0.3c2.3,0.8,3.8,3,3.8,5.5C29.8,27.2,27.2,29.8,24,29.8z"/>
	<path fill="#D57945" d="M25.1,21.1c-0.3-0.1-0.7-0.2-1.1-0.2c-1.7,0-3.1,1.4-3.1,3.1c0,1.7,1.4,3.1,3.1,3.1s3.1-1.4,3.1-3.1
		C27.1,22.7,26.3,21.5,25.1,21.1z"/>
</g>
</svg>
