<?xml version="1.0" encoding="utf-8"?>
<!-- Generator: Adobe Illustrator 18.0.0, SVG Export Plug-In . SVG Version: 6.00 Build 0)  -->
<!DOCTYPE svg PUBLIC "-//W3C//DTD SVG 1.1//EN" "http://www.w3.org/Graphics/SVG/1.1/DTD/svg11.dtd">
<svg version="1.1" id="Layer_1" xmlns="http://www.w3.org/2000/svg" xmlns:xlink="http://www.w3.org/1999/xlink" x="0px" y="0px"
	 viewBox="0 0 48 48" enable-background="new 0 0 48 48" xml:space="preserve">
<g>
	<polygon fill="#4DA0D8" points="24,9.9 20.2,12.2 21.2,7.9 17.9,5 22.3,4.6 24,0.5 25.7,4.6 30.2,5 26.8,7.9 27.8,12.2 	"/>
	<path fill="#0DB89A" d="M28.5,41.2h9.4c0.4,0,0.8-0.2,0.9-0.6c0.2-0.4,0.1-0.8-0.2-1.1l-7-7.8h3.9c0,0,0,0,0,0c0.6,0,1-0.5,1-1
		c0-0.3-0.1-0.6-0.3-0.8l-6.9-8.5h2.3c0,0,0,0,0,0c0.6,0,1-0.5,1-1c0-0.4-0.2-0.7-0.5-0.8l-7.5-7c-0.4-0.4-1-0.4-1.4,0l-7.6,7.1
		c-0.3,0.3-0.4,0.7-0.3,1.1c0.2,0.4,0.5,0.6,0.9,0.6h2.3l-7,8.7c-0.2,0.3-0.3,0.7-0.1,1.1c0.2,0.4,0.5,0.6,0.9,0.6h3.9l-7,7.8
		c-0.3,0.3-0.3,0.7-0.2,1.1c0.2,0.4,0.5,0.6,0.9,0.6h9.4v0L28.5,41.2L28.5,41.2z"/>
	<path fill="#E77528" d="M19.5,41.2v5.3c0,0.6,0.5,1,1,1h6.9c0.6,0,1-0.5,1-1v-5.3H19.5z"/>
</g>
</svg>
