<?xml version="1.0" encoding="utf-8"?>
<!-- Generator: Adobe Illustrator 18.0.0, SVG Export Plug-In . SVG Version: 6.00 Build 0)  -->
<!DOCTYPE svg PUBLIC "-//W3C//DTD SVG 1.1//EN" "http://www.w3.org/Graphics/SVG/1.1/DTD/svg11.dtd">
<svg version="1.1" id="Layer_1" xmlns="http://www.w3.org/2000/svg" xmlns:xlink="http://www.w3.org/1999/xlink" x="0px" y="0px"
	 viewBox="0 0 48 48" enable-background="new 0 0 48 48" xml:space="preserve">
<g>
	<path fill="#CFD0D1" d="M43.7,38.4c0.2-0.4,0.1-0.8-0.2-1.1l-10-11.3h6.1c0,0,0,0,0,0c0.5,0,1-0.4,1-1c0-0.3-0.1-0.6-0.3-0.7
		l-9.9-12.3h3.9c0,0,0,0,0,0c0.5,0,1-0.4,1-1c0-0.3-0.2-0.6-0.4-0.8L24.7,0.8c-0.4-0.4-1-0.4-1.3,0l-10.3,9.6
		c-0.3,0.3-0.4,0.7-0.2,1.1c0.1,0.4,0.5,0.6,0.9,0.6h3.9l-10,12.4c-0.2,0.3-0.3,0.7-0.1,1c0.2,0.3,0.5,0.6,0.9,0.6h6.1l-10,11.3
		c-0.3,0.3-0.3,0.7-0.2,1.1c0.1,0.3,0.3,0.5,0.6,0.5h38.2C43.4,38.8,43.6,38.7,43.7,38.4z"/>
	<path fill="#294E58" d="M18.3,38.9v7.6c0,0.5,0.4,1,1,1h9.4c0.5,0,1-0.4,1-1v-7.6H18.3z"/>
</g>
</svg>
