<?xml version="1.0" encoding="utf-8"?>
<!-- Generator: Adobe Illustrator 18.0.0, SVG Export Plug-In . SVG Version: 6.00 Build 0)  -->
<!DOCTYPE svg PUBLIC "-//W3C//DTD SVG 1.1//EN" "http://www.w3.org/Graphics/SVG/1.1/DTD/svg11.dtd">
<svg version="1.1" id="Layer_1" xmlns="http://www.w3.org/2000/svg" xmlns:xlink="http://www.w3.org/1999/xlink" x="0px" y="0px"
	 viewBox="0 0 48 48" enable-background="new 0 0 48 48" xml:space="preserve">
<g>
	<circle fill="none" cx="22.8" cy="31.5" r="2.5"/>
	<circle fill="none" cx="24" cy="23.4" r="1.2"/>
	<circle fill="none" cx="26.5" cy="11.5" r="1.2"/>
	<circle fill="none" cx="21.5" cy="12.8" r="1.2"/>
	<circle fill="none" cx="32.1" cy="32.7" r="1.2"/>
	<path fill="#F04B36" d="M17.7,46.5c0,0.5,0.4,1,1,1h10.7c0.5,0,1-0.4,1-1v-7.9H17.7V46.5z"/>
	<path fill="#E77528" d="M43.4,38c0.2-0.3,0.1-0.8-0.2-1l-8.2-9.2h4.5c0,0,0,0,0,0c0.5,0,1-0.4,1-1c0-0.3-0.2-0.6-0.4-0.8l-8.7-8.5
		l4.4-0.7c0.3-0.1,0.6-0.3,0.8-0.6c0.1-0.3,0.1-0.7-0.2-1L24.8,0.8c-0.4-0.5-1.1-0.5-1.5,0L11.5,15.3c-0.2,0.3-0.3,0.6-0.2,1
		c0.1,0.3,0.4,0.6,0.8,0.6l4.4,0.7l-8.8,8.6c-0.3,0.3-0.4,0.7-0.2,1.1c0.1,0.4,0.5,0.6,0.9,0.6h4.5L4.8,37c-0.3,0.3-0.3,0.7-0.2,1
		c0.2,0.3,0.5,0.6,0.9,0.6h12.2h12.6h12.2C42.9,38.6,43.2,38.4,43.4,38z M24,22.1c0.7,0,1.2,0.6,1.2,1.2c0,0.7-0.6,1.2-1.2,1.2
		c-0.7,0-1.2-0.6-1.2-1.2C22.8,22.7,23.3,22.1,24,22.1z M21.5,11.5c0.7,0,1.2,0.6,1.2,1.2S22.1,14,21.5,14c-0.7,0-1.2-0.6-1.2-1.2
		S20.8,11.5,21.5,11.5z M22.8,34c-1.4,0-2.5-1.1-2.5-2.5c0-1.4,1.1-2.5,2.5-2.5c1.4,0,2.5,1.1,2.5,2.5C25.3,32.9,24.2,34,22.8,34z
		 M26.5,12.8c-0.7,0-1.2-0.6-1.2-1.2c0-0.7,0.6-1.2,1.2-1.2c0.7,0,1.2,0.6,1.2,1.2C27.8,12.2,27.2,12.8,26.5,12.8z M32.1,33.9
		c-0.7,0-1.2-0.6-1.2-1.2c0-0.7,0.6-1.2,1.2-1.2c0.7,0,1.2,0.6,1.2,1.2C33.3,33.4,32.8,33.9,32.1,33.9z"/>
</g>
</svg>
