<?xml version="1.0" encoding="utf-8"?>
<!-- Generator: Adobe Illustrator 18.0.0, SVG Export Plug-In . SVG Version: 6.00 Build 0)  -->
<!DOCTYPE svg PUBLIC "-//W3C//DTD SVG 1.1//EN" "http://www.w3.org/Graphics/SVG/1.1/DTD/svg11.dtd">
<svg version="1.1" id="Layer_1" xmlns="http://www.w3.org/2000/svg" xmlns:xlink="http://www.w3.org/1999/xlink" x="0px" y="0px"
	 viewBox="0 0 48 48" enable-background="new 0 0 48 48" xml:space="preserve">
<g>
	<path fill="#06728D" d="M22.3,5.4V0.5h-7.2c-0.6,1.6-1.2,3.2-1.7,4.9H22.3z"/>
	<path fill="#E77528" d="M22.3,47.5v-4.9h-8.9c0.5,1.7,1.1,3.3,1.7,4.9H22.3z"/>
	<path fill="#F04B36" d="M22.3,8.7h-9.8c-2.3,9.9-2.3,20.7,0,30.6h9.8V8.7z"/>
	<path fill="#06728D" d="M25.7,5.4h8.9c-0.5-1.7-1.1-3.3-1.7-4.9h-7.2V5.4z"/>
	<path fill="#F04B36" d="M9,8.7H3.7c-4.3,9.8-4.3,20.7,0,30.6H9C6.7,29.4,6.7,18.6,9,8.7z"/>
	<path fill="#E77528" d="M25.7,42.6v4.9h7.2c0.6-1.6,1.2-3.2,1.7-4.9H25.7z"/>
	<path fill="#06728D" d="M38.2,5.4h4.4c-0.9-1.5-1.8-3-2.9-4.5l-0.3-0.4h-2.8C37.2,2.1,37.7,3.7,38.2,5.4z"/>
	<path fill="#E77528" d="M9.8,42.6H5.4c0.9,1.5,1.8,3,2.9,4.5l0.3,0.4h2.8C10.8,45.9,10.3,44.3,9.8,42.6z"/>
	<path fill="#E77528" d="M38.2,42.6c-0.5,1.7-1,3.3-1.6,4.9h2.8l0.3-0.4c1.1-1.5,2-3,2.9-4.5H38.2z"/>
	<path fill="#F04B36" d="M35.5,8.7h-9.8v30.6h9.8C37.9,29.4,37.9,18.6,35.5,8.7z"/>
	<path fill="#06728D" d="M9.8,5.4c0.5-1.7,1-3.3,1.6-4.9H8.6L8.3,0.9c-1.1,1.5-2,3-2.9,4.5H9.8z"/>
	<path fill="#F04B36" d="M44.3,39.3c4.3-9.8,4.3-20.7,0-30.6H39c2.2,9.9,2.2,20.7,0,30.6H44.3z"/>
</g>
</svg>
