<?xml version="1.0" encoding="utf-8"?>
<!-- Generator: Adobe Illustrator 18.0.0, SVG Export Plug-In . SVG Version: 6.00 Build 0)  -->
<!DOCTYPE svg PUBLIC "-//W3C//DTD SVG 1.1//EN" "http://www.w3.org/Graphics/SVG/1.1/DTD/svg11.dtd">
<svg version="1.1" id="Layer_1" xmlns="http://www.w3.org/2000/svg" xmlns:xlink="http://www.w3.org/1999/xlink" x="0px" y="0px"
	 viewBox="0 0 48 48" enable-background="new 0 0 48 48" xml:space="preserve">
<g>
	<path fill="#0DB89A" d="M24,4.5c-3.8,0-6.8,3.1-6.8,7s3.1,7,6.8,7c3.8,0,6.8-3.1,6.8-7S27.8,4.5,24,4.5z"/>
	<path fill="#F04B36" d="M16.4,11.4c0-2.5,1.2-4.7,3.1-6.1c-3.9-2.9-9.7-4.9-12-4.9c-4,0-7.1,4.8-7.1,10.9c0,6.1,3.1,10.9,7.1,10.9
		c2.3,0,7.8-1.8,11.8-4.7c0.1-0.1,0.1-0.1,0.2-0.2C17.7,16.1,16.4,13.9,16.4,11.4z"/>
	<path fill="#F04B36" d="M31.6,11.4c0-2.5-1.2-4.7-3.1-6.1c3.9-2.9,9.7-4.9,12-4.9c4,0,7.1,4.8,7.1,10.9c0,6.1-3.1,10.9-7.1,10.9
		c-2.3,0-7.8-1.8-11.8-4.7c-0.1-0.1-0.1-0.1-0.2-0.2C30.3,16.1,31.6,13.9,31.6,11.4z"/>
	<path fill="#F7A93B" d="M16.5,21c0,0,7.9,4.3,14.9,0v26.5l-7.8-8.2l-7.1,8.2V21z"/>
</g>
</svg>
