<?xml version="1.0" encoding="utf-8"?>
<!-- Generator: Adobe Illustrator 18.0.0, SVG Export Plug-In . SVG Version: 6.00 Build 0)  -->
<!DOCTYPE svg PUBLIC "-//W3C//DTD SVG 1.1//EN" "http://www.w3.org/Graphics/SVG/1.1/DTD/svg11.dtd">
<svg version="1.1" id="Layer_1" xmlns="http://www.w3.org/2000/svg" xmlns:xlink="http://www.w3.org/1999/xlink" x="0px" y="0px"
	 viewBox="0 0 48 48" enable-background="new 0 0 48 48" xml:space="preserve">
<g>
	<path fill="#F7A93B" d="M19.8,32.9c0,0,4.4,2.4,8.4,0v14.6L23.8,43l-4,4.5V32.9z"/>
	<path fill="#294E58" d="M24,23.9c-2,0-3.5,1.6-3.5,3.5c0,2,1.6,3.5,3.5,3.5s3.5-1.6,3.5-3.5C27.5,25.5,26,23.9,24,23.9z"/>
	<g>
		<path fill="#F04B36" d="M19.7,27.5c0-1.4,0.7-2.6,1.8-3.3c-2.2-1.6-5.5-2.7-6.8-2.7c-2.2,0-4,2.6-4,6c0,3.4,1.7,6,4,6
			c1.3,0,4.4-1,6.6-2.6c0,0,0.1-0.1,0.1-0.1C20.4,30.1,19.7,28.8,19.7,27.5z"/>
		<path fill="#F04B36" d="M28.3,27.5c0-1.4-0.7-2.6-1.8-3.3c2.2-1.6,5.5-2.7,6.8-2.7c2.2,0,4,2.6,4,6c0,3.4-1.7,6-4,6
			c-1.3,0-4.4-1-6.6-2.6c0,0-0.1-0.1-0.1-0.1C27.6,30.1,28.3,28.8,28.3,27.5z"/>
	</g>
	<path fill="#0DB89A" d="M24,0.5c-8.9,0-16.2,7.3-16.2,16.2c0,3,0.9,5.9,2.3,8.3c0.7-2.6,2.4-4.5,4.6-4.5c0.4,0,1,0.1,1.6,0.2
		c-0.7-1.2-1-2.6-1-4.1c0-4.8,3.9-8.7,8.7-8.7c4.8,0,8.7,3.9,8.7,8.7c0,1.5-0.4,2.9-1,4.1c0.6-0.2,1.2-0.2,1.6-0.2
		c2.1,0,3.9,1.8,4.6,4.5c1.5-2.4,2.3-5.3,2.3-8.3C40.2,7.8,32.9,0.5,24,0.5z"/>
</g>
</svg>
