<?xml version="1.0" encoding="utf-8"?>
<!-- Generator: Adobe Illustrator 18.0.0, SVG Export Plug-In . SVG Version: 6.00 Build 0)  -->
<!DOCTYPE svg PUBLIC "-//W3C//DTD SVG 1.1//EN" "http://www.w3.org/Graphics/SVG/1.1/DTD/svg11.dtd">
<svg version="1.1" id="Layer_1" xmlns="http://www.w3.org/2000/svg" xmlns:xlink="http://www.w3.org/1999/xlink" x="0px" y="0px"
	 viewBox="0 0 48 48" enable-background="new 0 0 48 48" xml:space="preserve">
<g>
	<path fill="#4DA0D8" d="M25.1,0.5H13.8c-3.1,0-5.7,2.5-5.7,5.6v2.4c0,2.2,1.3,4.1,3.2,5c0.7,0.4,1.6,0.6,2.5,0.6h11.4
		c1,0,2-0.3,2.8-0.7c1.7-1,2.9-2.8,2.9-4.9V6.1C30.8,3,28.3,0.5,25.1,0.5z"/>
	<path fill="#F7A93B" d="M39.9,39.8c-0.4-3.5-3.7-6-3.9-6.1l-8.1-6.2V14.2c-0.8,0.5-1.8,0.7-2.8,0.7H13.8c-0.9,0-1.7-0.2-2.5-0.6
		v17.4c0,0.3,0.1,0.6,0.4,0.7l16,12.9c0.1,0.1,2.4,2.1,5.3,2.1c0.2,0,0.4,0,0.6,0c1.9-0.2,3.6-1.2,5-3C39.6,43,40.1,41.4,39.9,39.8z
		 M19.2,34.9c-0.1,0.3-0.4,0.6-0.7,0.6c0,0-0.1,0-0.1,0c-0.4-0.1-0.6-0.5-0.6-0.8c1.6-7.9-4.1-9.5-4.4-9.5c-0.4-0.1-0.6-0.5-0.5-0.9
		c0.1-0.4,0.5-0.6,0.9-0.5C13.8,23.7,21,25.7,19.2,34.9z M35.1,35.9l-6.5,7.3c-0.1,0.2-0.4,0.2-0.6,0.2c-0.2,0-0.4-0.1-0.5-0.2
		c-0.3-0.3-0.3-0.7-0.1-1l6.5-7.3c0.3-0.3,0.7-0.3,1-0.1C35.3,35.2,35.3,35.6,35.1,35.9z"/>
</g>
</svg>
