<?xml version="1.0" encoding="utf-8"?>
<!-- Generator: Adobe Illustrator 18.0.0, SVG Export Plug-In . SVG Version: 6.00 Build 0)  -->
<!DOCTYPE svg PUBLIC "-//W3C//DTD SVG 1.1//EN" "http://www.w3.org/Graphics/SVG/1.1/DTD/svg11.dtd">
<svg version="1.1" id="Layer_1" xmlns="http://www.w3.org/2000/svg" xmlns:xlink="http://www.w3.org/1999/xlink" x="0px" y="0px"
	 viewBox="0 0 48 48" enable-background="new 0 0 48 48" xml:space="preserve">
<g>
	<path fill="#F04B36" d="M24,47.5c-0.8,0-1.4-0.6-1.4-1.4V30c0-0.8,0.6-1.4,1.4-1.4c0.8,0,1.4,0.6,1.4,1.4v16.1
		C25.5,46.9,24.8,47.5,24,47.5z"/>
	<path fill="#06728D" d="M22.9,13.6c-0.1-3,0.4-9,5.2-12.5c-3.4-1-7-0.7-10.2,0.8C16.3,8.3,20.5,12,22.9,13.6z"/>
	<path fill="#F04B36" d="M26.1,15.4c2.5,1.7,7,5.7,6.8,11.8c0.6-0.4,1.1-0.9,1.6-1.4c2.1-2.1,3.4-4.6,4-7.3
		C34.2,13.3,28.7,14.4,26.1,15.4z"/>
	<path fill="#659C41" d="M24.9,13.8c2.7-1.1,8.9-2.7,13.9,2.2c0.2-4-1.2-8.1-4.3-11.2c-1.2-1.2-2.7-2.2-4.2-2.9
		C25,4.8,24.7,11.1,24.9,13.8z"/>
	<path fill="#C4B98C" d="M21.7,15c-0.7-0.5-1.6-1.2-2.5-2c-2.1-2.1-4.1-5.4-3.5-10c-0.8,0.5-1.5,1.1-2.2,1.8c-2.2,2.2-3.6,5-4.1,7.8
		C13.3,16.7,18.8,15.8,21.7,15z"/>
	<path fill="#F7A93B" d="M24.7,16.8c-0.8,2.8-3.3,8.8-10.3,9.7c4.7,4,11.3,4.7,16.5,1.9C31.8,22.4,26.9,18.3,24.7,16.8z"/>
	<path fill="#4DA0D8" d="M12.6,24.7c6.8-0.1,9.3-5.2,10.1-8c-2.9,0.9-8.8,2-13.5-1.8C9.1,18.5,10.3,21.9,12.6,24.7
		C12.6,24.7,12.6,24.7,12.6,24.7z"/>
</g>
</svg>
