<?xml version="1.0" encoding="utf-8"?>
<!-- Generator: Adobe Illustrator 18.0.0, SVG Export Plug-In . SVG Version: 6.00 Build 0)  -->
<!DOCTYPE svg PUBLIC "-//W3C//DTD SVG 1.1//EN" "http://www.w3.org/Graphics/SVG/1.1/DTD/svg11.dtd">
<svg version="1.1" id="Layer_1" xmlns="http://www.w3.org/2000/svg" xmlns:xlink="http://www.w3.org/1999/xlink" x="0px" y="0px"
	 viewBox="0 0 48 48" enable-background="new 0 0 48 48" xml:space="preserve">
<g>
	<path fill="#F04B36" d="M24,0.5c-7.2,0-13,5.9-13,13.2C11,16,13,18,15.3,18c2.4,0,4.3-1.9,4.3-4.3c0-2.5,1.9-4.5,4.3-4.5
		c2.4,0,4.3,2,4.3,4.5v29.5c0,2.4,1.9,4.3,4.3,4.3c2.4,0,4.3-1.9,4.3-4.3V13.7C37,6.4,31.2,0.5,24,0.5z M13.3,12
		c-0.2,0.1-0.3,0.1-0.5,0.1c-0.3,0-0.7-0.2-0.9-0.5c-0.3-0.5-0.1-1.1,0.4-1.3l15.1-8.8c0.5-0.3,1.1-0.1,1.3,0.4
		c0.3,0.5,0.1,1.1-0.4,1.3L13.3,12z M27.9,10.4c-0.3,0-0.7-0.2-0.9-0.5c-0.3-0.5-0.1-1.1,0.4-1.3l5.5-3.2c0.5-0.3,1.1-0.1,1.3,0.4
		c0.3,0.5,0.1,1.1-0.4,1.3l-5.5,3.2C28.2,10.4,28.1,10.4,27.9,10.4z M35.6,39.4l-5.5,3.2c-0.2,0.1-0.3,0.1-0.5,0.1
		c-0.3,0-0.7-0.2-0.9-0.5c-0.3-0.5-0.1-1.1,0.4-1.3l5.5-3.2c0.5-0.3,1.1-0.1,1.3,0.4C36.2,38.5,36.1,39.1,35.6,39.4z M35.6,30.4
		l-5.5,3.2c-0.2,0.1-0.3,0.1-0.5,0.1c-0.3,0-0.7-0.2-0.9-0.5c-0.3-0.5-0.1-1.1,0.4-1.3l5.5-3.2c0.5-0.3,1.1-0.1,1.3,0.4
		C36.2,29.5,36.1,30.1,35.6,30.4z M36,20.9l-5.5,3.2c-0.2,0.1-0.3,0.1-0.5,0.1c-0.3,0-0.7-0.2-0.9-0.5c-0.3-0.5-0.1-1.1,0.4-1.3
		l5.5-3.2c0.5-0.3,1.1-0.1,1.3,0.4C36.6,20,36.4,20.6,36,20.9z M36,13.1l-5.5,3.2c-0.2,0.1-0.3,0.1-0.5,0.1c-0.3,0-0.7-0.2-0.9-0.5
		c-0.3-0.5-0.1-1.1,0.4-1.3l5.5-3.2c0.5-0.3,1.1-0.1,1.3,0.4C36.6,12.3,36.4,12.9,36,13.1z"/>
</g>
</svg>
