<?xml version="1.0" encoding="utf-8"?>
<!-- Generator: Adobe Illustrator 18.0.0, SVG Export Plug-In . SVG Version: 6.00 Build 0)  -->
<!DOCTYPE svg PUBLIC "-//W3C//DTD SVG 1.1//EN" "http://www.w3.org/Graphics/SVG/1.1/DTD/svg11.dtd">
<svg version="1.1" id="Layer_1" xmlns="http://www.w3.org/2000/svg" xmlns:xlink="http://www.w3.org/1999/xlink" x="0px" y="0px"
	 viewBox="0 0 48 48" enable-background="new 0 0 48 48" xml:space="preserve">
<g>
	<path fill="#F04B36" d="M33.2,6.9h-1.5C31.2,3.3,28,0.5,24,0.5c-4,0-7.2,2.8-7.7,6.4h-1.5c-0.8,0-1.5,0.7-1.5,1.5v8
		c0,0.8,0.7,1.5,1.5,1.5c0.8,0,1.5-0.7,1.5-1.5V9.8h15.5v6.5c0,0.8,0.7,1.5,1.5,1.5c0.8,0,1.5-0.7,1.5-1.5v-8
		C34.7,7.6,34,6.9,33.2,6.9z M24,3.4c2.3,0,4.3,1.5,4.8,3.5h-9.5C19.7,4.9,21.7,3.4,24,3.4z"/>
	<path fill="#E77528" d="M24,12.6c-9.6,0-17.4,7.8-17.4,17.4c0,9.6,7.8,17.4,17.4,17.4c9.6,0,17.4-7.8,17.4-17.4
		C41.4,20.4,33.6,12.6,24,12.6z M34.3,31.6h-1.2l1.2,1.4c0.4,0.4,0.3,1-0.1,1.4c-0.2,0.2-0.4,0.3-0.7,0.3c-0.3,0-0.5-0.1-0.7-0.3
		l-2.4-2.7h-2.6c-0.4,1.4-1.5,2.6-2.9,2.9v2.6l2.7,2.4c0.4,0.4,0.4,1,0.1,1.4c-0.2,0.2-0.5,0.3-0.7,0.3c-0.2,0-0.5-0.1-0.7-0.3
		L25,39.7v1.2c0,0.5-0.4,1-1,1c-0.5,0-1-0.4-1-1v-1.2l-1.4,1.2c-0.2,0.2-0.4,0.3-0.7,0.3c-0.3,0-0.5-0.1-0.7-0.3
		c-0.4-0.4-0.3-1,0.1-1.4l2.7-2.4v-2.6c-1.4-0.4-2.6-1.5-2.9-2.9h-2.6l-2.4,2.7c-0.2,0.2-0.5,0.3-0.7,0.3c-0.2,0-0.5-0.1-0.7-0.3
		c-0.4-0.4-0.4-1-0.1-1.4l1.2-1.4h-1.2c-0.5,0-1-0.4-1-1c0-0.5,0.4-1,1-1h1.2l-1.2-1.4c-0.4-0.4-0.3-1,0.1-1.4
		c0.4-0.4,1-0.3,1.4,0.1l2.4,2.7h2.6c0.4-1.4,1.5-2.6,2.9-2.9v-2.6l-2.7-2.4c-0.4-0.4-0.4-1-0.1-1.4c0.4-0.4,1-0.4,1.4-0.1l1.4,1.2
		v-1.2c0-0.5,0.4-1,1-1c0.5,0,1,0.4,1,1v1.2l1.4-1.2c0.4-0.4,1-0.3,1.4,0.1c0.4,0.4,0.3,1-0.1,1.4L25,24.1v2.6
		c1.4,0.4,2.6,1.5,2.9,2.9h2.6l2.4-2.7c0.4-0.4,1-0.4,1.4-0.1c0.4,0.4,0.4,1,0.1,1.4l-1.2,1.4h1.2c0.5,0,1,0.4,1,1
		C35.3,31.1,34.8,31.6,34.3,31.6z"/>
	<circle fill="#74BDAF" cx="24" cy="30.6" r="2.1"/>
</g>
</svg>
