<?xml version="1.0" encoding="utf-8"?>
<!-- Generator: Adobe Illustrator 18.0.0, SVG Export Plug-In . SVG Version: 6.00 Build 0)  -->
<!DOCTYPE svg PUBLIC "-//W3C//DTD SVG 1.1//EN" "http://www.w3.org/Graphics/SVG/1.1/DTD/svg11.dtd">
<svg version="1.1" id="Layer_1" xmlns="http://www.w3.org/2000/svg" xmlns:xlink="http://www.w3.org/1999/xlink" x="0px" y="0px"
	 viewBox="0 0 48 48" enable-background="new 0 0 48 48" xml:space="preserve">
<g>
	<path fill="#4DA0D8" d="M30.4,9.4c-0.8,0-1.5-0.7-1.5-1.5c0-2.5-2.2-4.5-4.9-4.5c-2.7,0-4.9,2-4.9,4.5c0,0.8-0.7,1.5-1.5,1.5
		c-0.8,0-1.5-0.7-1.5-1.5c0-4.1,3.5-7.4,7.8-7.4c4.3,0,7.8,3.3,7.8,7.4C31.8,8.7,31.2,9.4,30.4,9.4z"/>
	<path fill="#E77528" d="M33.2,17.8c-0.8,0-1.5-0.7-1.5-1.5V9.8H16.3v6.5c0,0.8-0.7,1.5-1.5,1.5c-0.8,0-1.5-0.7-1.5-1.5v-8
		c0-0.8,0.7-1.5,1.5-1.5h18.4c0.8,0,1.5,0.7,1.5,1.5v8C34.7,17.2,34,17.8,33.2,17.8z"/>
	<path fill="#0DB89A" d="M24,12.6c-9.6,0-17.4,7.8-17.4,17.4c0,9.6,7.8,17.4,17.4,17.4c9.6,0,17.4-7.8,17.4-17.4
		C41.4,20.4,33.6,12.6,24,12.6z M15.3,31.7c-0.9,0-1.7-0.7-1.7-1.7c0-0.9,0.7-1.7,1.7-1.7c0.9,0,1.7,0.7,1.7,1.7
		C16.9,31,16.2,31.7,15.3,31.7z M24,40.5c-0.9,0-1.7-0.7-1.7-1.7c0-0.9,0.7-1.7,1.7-1.7c0.9,0,1.7,0.7,1.7,1.7
		C25.7,39.7,24.9,40.5,24,40.5z M22.3,30.1c0-0.9,0.7-1.7,1.7-1.7c0.9,0,1.7,0.7,1.7,1.7c0,0.9-0.7,1.7-1.7,1.7
		C23.1,31.7,22.3,31,22.3,30.1z M24,23c-0.9,0-1.7-0.7-1.7-1.7s0.7-1.7,1.7-1.7c0.9,0,1.7,0.7,1.7,1.7S24.9,23,24,23z M32.7,31.7
		c-0.9,0-1.7-0.7-1.7-1.7c0-0.9,0.7-1.7,1.7-1.7c0.9,0,1.7,0.7,1.7,1.7C34.4,31,33.6,31.7,32.7,31.7z"/>
</g>
</svg>
