<?xml version="1.0" encoding="utf-8"?>
<!-- Generator: Adobe Illustrator 18.0.0, SVG Export Plug-In . SVG Version: 6.00 Build 0)  -->
<!DOCTYPE svg PUBLIC "-//W3C//DTD SVG 1.1//EN" "http://www.w3.org/Graphics/SVG/1.1/DTD/svg11.dtd">
<svg version="1.1" id="Layer_1" xmlns="http://www.w3.org/2000/svg" xmlns:xlink="http://www.w3.org/1999/xlink" x="0px" y="0px"
	 viewBox="0 0 48 48" enable-background="new 0 0 48 48" xml:space="preserve">
<g>
	<path fill="#0DB89A" d="M39.5,1c-0.2-0.3-0.5-0.5-0.9-0.5H9.4C9.1,0.5,8.8,0.7,8.6,1c-0.2,0.3-0.2,0.7,0,1L13,9.8
		c0.2,0.3,0.5,0.5,0.9,0.5h20.2c0.4,0,0.7-0.2,0.9-0.5L39.5,2C39.6,1.7,39.6,1.3,39.5,1z"/>
	<path fill="#F04B36" d="M35.1,12.2c-0.2-0.2-0.4-0.3-0.7-0.3H13.6c-0.3,0-0.5,0.1-0.7,0.3c-5.8,6.1-9.8,16.1-9.8,21.1
		c0,7.8,9.4,14.2,20.9,14.2c11.5,0,20.9-6.4,20.9-14.2C44.9,28.2,41,18.5,35.1,12.2z M34.2,26.5l-5.3,4.6l1.5,6.6
		c0.1,0.1,0.1,0.3,0.1,0.4c0,0.5-0.4,1-1,1c0,0,0,0,0,0c-0.2,0-0.4,0-0.5-0.1l-6-3.6l-6,3.6c-0.2,0.1-0.3,0.1-0.5,0.1
		c-0.2,0-0.4-0.1-0.6-0.2c-0.3-0.2-0.5-0.6-0.4-1l1.6-6.8l-5.3-4.6c-0.3-0.3-0.4-0.7-0.3-1.1c0.1-0.4,0.5-0.6,0.9-0.7l7-0.6l2.7-6.5
		c0.2-0.4,0.5-0.6,0.9-0.6h0c0.4,0,0.8,0.2,0.9,0.6l2.7,6.5l7,0.6c0.4,0,0.7,0.3,0.9,0.7C34.7,25.8,34.5,26.3,34.2,26.5z"/>
</g>
</svg>
