<?xml version="1.0" encoding="utf-8"?>
<!-- Generator: Adobe Illustrator 18.0.0, SVG Export Plug-In . SVG Version: 6.00 Build 0)  -->
<!DOCTYPE svg PUBLIC "-//W3C//DTD SVG 1.1//EN" "http://www.w3.org/Graphics/SVG/1.1/DTD/svg11.dtd">
<svg version="1.1" id="Layer_1" xmlns="http://www.w3.org/2000/svg" xmlns:xlink="http://www.w3.org/1999/xlink" x="0px" y="0px"
	 viewBox="0 0 48 48" enable-background="new 0 0 48 48" xml:space="preserve">
<g>
	<path fill="#06728D" d="M18.3,8.1C18.3,8.1,18.3,8.1,18.3,8.1l0,2.4c0,2.9,2.4,5.3,5.3,5.3h0.9c2.9,0,5.3-2.4,5.3-5.3V8.2
		c0,0,0-0.1,0-0.1H18.3z"/>
	<path fill="#0DB89A" d="M28.5,7.1c0,0,0-0.1,0-0.1V5.2c0-2.6-1.9-4.7-4.3-4.7h-0.6c-2.3,0-4.3,2.1-4.3,4.7l0,1.8"/>
	<path fill="#F04B36" d="M42.8,28.9c0-0.1,0-0.2,0-0.3c0-2.4-0.5-4.7-1.3-6.9c-7.7,2.6-14.3,3.5-19.6,3.5c-7.8,0-13.1-1.9-15.6-3.1
		c-0.7,2-1.2,4.2-1.2,6.5c0,0.2,0,0.3,0,0.5C7.6,30.4,20.6,36.4,42.8,28.9z M36.5,26.4l3.2-1.1c0.5-0.2,1,0.1,1.2,0.6
		c0.2,0.5-0.1,1-0.6,1.2l-3.2,1.1c-0.1,0-0.2,0.1-0.3,0.1c-0.4,0-0.8-0.2-0.9-0.6C35.7,27.1,36,26.6,36.5,26.4z M29,27.5l3.8-0.4
		c0.5,0,1,0.3,1,0.8c0.1,0.5-0.3,1-0.8,1l-3.8,0.4c0,0-0.1,0-0.1,0c-0.5,0-0.9-0.4-0.9-0.9C28.1,28,28.5,27.5,29,27.5z M10,27.7
		c-0.2,0.3-0.5,0.5-0.9,0.5c-0.1,0-0.3,0-0.4-0.1L6.4,27c-0.5-0.2-0.7-0.8-0.5-1.3c0.2-0.5,0.8-0.7,1.3-0.5l2.4,1.1
		C10.1,26.6,10.3,27.2,10,27.7z M16.6,29.4C16.6,29.4,16.6,29.4,16.6,29.4L12.8,29c-0.5-0.1-0.9-0.5-0.8-1c0.1-0.5,0.5-0.9,1-0.8
		l3.8,0.4c0.5,0.1,0.9,0.5,0.8,1C17.5,29,17.1,29.4,16.6,29.4z M20.1,28.8c0-0.5,0.4-0.9,0.9-0.9h4c0.5,0,0.9,0.4,0.9,0.9
		c0,0.5-0.4,0.9-0.9,0.9h-4C20.5,29.8,20.1,29.3,20.1,28.8z"/>
	<path fill="#4DA0D8" d="M21.9,34.5c-8.4,0-14-2-16.5-3.2c1.1,7.4,6.5,13.5,13.6,15.5c-4.1-4.1-3.6-9.1-3.6-9.4
		c0.1-0.5,0.5-0.9,1-0.8c0.5,0.1,0.9,0.5,0.8,1c0,0.3-0.6,6.1,5.4,9.7c0.1,0,0.1,0.1,0.2,0.2c0.4,0,0.8,0.1,1.2,0.1
		c0.4,0,0.8,0,1.2-0.1c0.1-0.1,0.1-0.1,0.2-0.2c6-3.6,5.4-9.6,5.4-9.7c-0.1-0.5,0.3-1,0.8-1c0.5-0.1,1,0.3,1,0.8
		c0,0.2,0.5,5.3-3.6,9.4c7.2-2,12.7-8.2,13.6-15.8C34.5,33.6,27.5,34.5,21.9,34.5z"/>
	<path fill="#F7A93B" d="M40.8,20.1c-2.1-4.1-5.7-7.4-10.1-9c-0.3,3.2-2.9,5.7-6.2,5.7h-0.9c-3.3,0-5.9-2.5-6.2-5.7
		c-4.5,1.7-8.2,5.1-10.3,9.4C11,22.2,22.5,26.1,40.8,20.1z"/>
</g>
</svg>
