<?xml version="1.0" encoding="utf-8"?>
<!-- Generator: Adobe Illustrator 18.0.0, SVG Export Plug-In . SVG Version: 6.00 Build 0)  -->
<!DOCTYPE svg PUBLIC "-//W3C//DTD SVG 1.1//EN" "http://www.w3.org/Graphics/SVG/1.1/DTD/svg11.dtd">
<svg version="1.1" id="Layer_1" xmlns="http://www.w3.org/2000/svg" xmlns:xlink="http://www.w3.org/1999/xlink" x="0px" y="0px"
	 viewBox="0 0 48 48" enable-background="new 0 0 48 48" xml:space="preserve">
<g>
	<path fill="#E2A14A" d="M18.3,8.1C18.3,8.1,18.3,8.1,18.3,8.1l0,2.4c0,2.9,2.4,5.3,5.3,5.3h0.9c2.9,0,5.3-2.4,5.3-5.3V8.2
		c0,0,0-0.1,0-0.1H18.3z"/>
	<path fill="#0DB89A" d="M28.5,7.1c0,0,0-0.1,0-0.1V5.2c0-2.6-1.9-4.7-4.3-4.7h-0.6c-2.3,0-4.3,2.1-4.3,4.7l0,1.8"/>
	<path fill="#F04B36" d="M41,20.4c-2.1-4.3-5.8-7.7-10.3-9.4c-0.3,3.2-2.9,5.7-6.2,5.7h-0.9c-3.3,0-5.9-2.5-6.2-5.7
		C12.8,12.8,9,16.2,7,20.6C9.5,22,21.2,27.2,41,20.4z M34.6,17.3c0.7,0,1.2,0.5,1.2,1.2c0,0.7-0.5,1.2-1.2,1.2
		c-0.7,0-1.2-0.5-1.2-1.2C33.3,17.9,33.9,17.3,34.6,17.3z M29.6,19.1c0.7,0,1.2,0.5,1.2,1.2c0,0.7-0.5,1.2-1.2,1.2
		c-0.7,0-1.2-0.5-1.2-1.2C28.4,19.6,29,19.1,29.6,19.1z M24,19.8c0.7,0,1.2,0.5,1.2,1.2c0,0.7-0.5,1.2-1.2,1.2
		c-0.7,0-1.2-0.5-1.2-1.2C22.8,20.3,23.3,19.8,24,19.8z M18.1,19.1c0.7,0,1.2,0.5,1.2,1.2c0,0.7-0.5,1.2-1.2,1.2
		c-0.7,0-1.2-0.5-1.2-1.2C16.8,19.6,17.4,19.1,18.1,19.1z M13.2,17.9c0.7,0,1.2,0.5,1.2,1.2c0,0.7-0.5,1.2-1.2,1.2
		c-0.7,0-1.2-0.5-1.2-1.2C12,18.4,12.5,17.9,13.2,17.9z"/>
	<path fill="#06728D" d="M41.8,22.3C34,25,27.4,26,22.1,26c-8.6,0-13.9-2.3-15.9-3.4c-0.7,1.9-1,4-1,6.1c0,0.1,0,0.3,0,0.4
		c0.2,0,0.4,0,0.5,0.1c0.1,0.1,12.9,8,36.7-0.1c0.2-0.1,0.3-0.1,0.5,0c0-0.1,0-0.3,0-0.4C42.9,26.4,42.5,24.3,41.8,22.3z"/>
	<path fill="#4DA0D8" d="M22,34.8c-9.1,0-14.7-2.4-16.6-3.5c1.1,7.4,6.5,13.4,13.6,15.4c-4.1-4.1-3.6-9.1-3.6-9.4
		c0.1-0.5,0.5-0.9,1-0.8c0.5,0.1,0.9,0.5,0.8,1c0,0.3-0.6,6.1,5.4,9.7c0.1,0,0.1,0.1,0.2,0.2c0.4,0,0.8,0.1,1.2,0.1
		c0.4,0,0.8,0,1.2-0.1c0.1-0.1,0.1-0.1,0.2-0.2c6-3.6,5.4-9.6,5.4-9.7c-0.1-0.5,0.3-1,0.8-1c0.5-0.1,1,0.3,1,0.8
		c0,0.2,0.5,5.3-3.6,9.4c7.1-2,12.6-8.1,13.6-15.6C34.5,33.9,27.6,34.8,22,34.8z M24,40.1c-0.7,0-1.2-0.5-1.2-1.2
		c0-0.7,0.5-1.2,1.2-1.2c0.7,0,1.2,0.5,1.2,1.2C25.2,39.5,24.7,40.1,24,40.1z"/>
</g>
</svg>
