<?xml version="1.0" encoding="utf-8"?>
<!-- Generator: Adobe Illustrator 18.0.0, SVG Export Plug-In . SVG Version: 6.00 Build 0)  -->
<!DOCTYPE svg PUBLIC "-//W3C//DTD SVG 1.1//EN" "http://www.w3.org/Graphics/SVG/1.1/DTD/svg11.dtd">
<svg version="1.1" id="Layer_1" xmlns="http://www.w3.org/2000/svg" xmlns:xlink="http://www.w3.org/1999/xlink" x="0px" y="0px"
	 viewBox="0 0 48 48" enable-background="new 0 0 48 48" xml:space="preserve">
<g>
	<path fill="#0DB89A" d="M18.3,8.1C18.3,8.1,18.3,8.1,18.3,8.1l0,2.4c0,2.9,2.4,5.3,5.3,5.3h0.9c2.9,0,5.3-2.4,5.3-5.3V8.2
		c0,0,0-0.1,0-0.1H18.3z"/>
	<path fill="#06728D" d="M28.5,7.1c0,0,0-0.1,0-0.1V5.2c0-2.6-1.9-4.7-4.3-4.7h-0.6c-2.3,0-4.3,2.1-4.3,4.7l0,1.8"/>
	<path fill="#F04B36" d="M30.6,11c-0.3,3.2-2.9,5.7-6.2,5.7h-0.9c-3.3,0-5.9-2.5-6.2-5.7c-7.1,2.7-12.2,9.6-12.2,17.6
		c0,8.6,5.8,15.9,13.8,18.1c-4.1-4.1-3.6-9.1-3.6-9.4c0.1-0.5,0.5-0.9,1-0.8c0.5,0.1,0.9,0.5,0.8,1c0,0.3-0.6,6.1,5.4,9.7
		c0.1,0,0.1,0.1,0.2,0.2c0.4,0,0.8,0.1,1.2,0.1c0.4,0,0.8,0,1.2-0.1c0.1-0.1,0.1-0.1,0.2-0.2c6-3.6,5.4-9.6,5.4-9.7
		c-0.1-0.5,0.3-1,0.8-1c0.5-0.1,1,0.3,1,0.8c0,0.2,0.5,5.3-3.6,9.4c7.9-2.2,13.8-9.5,13.8-18.1C42.9,20.6,37.8,13.7,30.6,11z
		 M10.7,28.7c-0.6,0-1.2-0.5-1.2-1.2c0-0.6,0.5-1.2,1.2-1.2c0.6,0,1.2,0.5,1.2,1.2C11.9,28.2,11.4,28.7,10.7,28.7z M17.5,28.7
		c-0.6,0-1.2-0.5-1.2-1.2c0-0.6,0.5-1.2,1.2-1.2c0.6,0,1.2,0.5,1.2,1.2C18.6,28.2,18.1,28.7,17.5,28.7z M17.6,21.7
		c-0.6,0-1.2-0.5-1.2-1.2c0-0.6,0.5-1.2,1.2-1.2c0.6,0,1.2,0.5,1.2,1.2C18.8,21.1,18.3,21.7,17.6,21.7z M24.2,42.8
		c-0.6,0-1.2-0.5-1.2-1.2c0-0.6,0.5-1.2,1.2-1.2c0.6,0,1.2,0.5,1.2,1.2C25.4,42.3,24.8,42.8,24.2,42.8z M24.2,35.8
		c-0.6,0-1.2-0.5-1.2-1.2c0-0.6,0.5-1.2,1.2-1.2c0.6,0,1.2,0.5,1.2,1.2C25.4,35.3,24.8,35.8,24.2,35.8z M24.2,28.7
		c-0.6,0-1.2-0.5-1.2-1.2c0-0.6,0.5-1.2,1.2-1.2c0.6,0,1.2,0.5,1.2,1.2C25.4,28.2,24.8,28.7,24.2,28.7z M24.2,21.7
		c-0.6,0-1.2-0.5-1.2-1.2c0-0.6,0.5-1.2,1.2-1.2c0.6,0,1.2,0.5,1.2,1.2C25.4,21.1,24.8,21.7,24.2,21.7z M30.7,28.7
		c-0.6,0-1.2-0.5-1.2-1.2c0-0.6,0.5-1.2,1.2-1.2c0.6,0,1.2,0.5,1.2,1.2C31.8,28.2,31.3,28.7,30.7,28.7z M30.7,21.7
		c-0.6,0-1.2-0.5-1.2-1.2c0-0.6,0.5-1.2,1.2-1.2c0.6,0,1.2,0.5,1.2,1.2C31.9,21.1,31.4,21.7,30.7,21.7z M37.4,28.7
		c-0.6,0-1.2-0.5-1.2-1.2c0-0.6,0.5-1.2,1.2-1.2c0.6,0,1.2,0.5,1.2,1.2C38.6,28.2,38,28.7,37.4,28.7z"/>
</g>
</svg>
