<?xml version="1.0" encoding="utf-8"?>
<!-- Generator: Adobe Illustrator 18.0.0, SVG Export Plug-In . SVG Version: 6.00 Build 0)  -->
<!DOCTYPE svg PUBLIC "-//W3C//DTD SVG 1.1//EN" "http://www.w3.org/Graphics/SVG/1.1/DTD/svg11.dtd">
<svg version="1.1" id="Layer_1" xmlns="http://www.w3.org/2000/svg" xmlns:xlink="http://www.w3.org/1999/xlink" x="0px" y="0px"
	 viewBox="0 0 48 48" enable-background="new 0 0 48 48" xml:space="preserve">
<g>
	<path fill="#F04B36" d="M18.3,8.1C18.3,8.1,18.3,8.1,18.3,8.1l0,2.4c0,2.9,2.4,5.3,5.3,5.3h0.9c2.9,0,5.3-2.4,5.3-5.3V8.2
		c0,0,0-0.1,0-0.1H18.3z"/>
	<path fill="#06728D" d="M28.5,7.1c0,0,0-0.1,0-0.1V5.2c0-2.6-1.9-4.7-4.3-4.7h-0.6c-2.3,0-4.3,2.1-4.3,4.7l0,1.8"/>
	<path fill="#0DB89A" d="M21.9,33.1c-8.6,0-14.2-1.8-16.7-2.8c0.7,7.9,6.3,14.4,13.7,16.5c-4.1-4.1-3.6-9.1-3.6-9.4
		c0.1-0.5,0.5-0.9,1-0.8c0.5,0.1,0.9,0.5,0.8,1c0,0.3-0.6,6.1,5.4,9.7c0.1,0,0.1,0.1,0.2,0.2c0.4,0,0.8,0.1,1.2,0.1
		c0.4,0,0.8,0,1.2-0.1c0.1-0.1,0.1-0.1,0.2-0.2c6-3.6,5.4-9.6,5.4-9.7c-0.1-0.5,0.3-1,0.8-1c0.5-0.1,1,0.3,1,0.8
		c0,0.2,0.5,5.3-3.6,9.4C36.6,44.7,42.2,38,42.8,30C34.6,32.3,27.6,33.1,21.9,33.1z"/>
	<path fill="#4DA0D8" d="M42.8,28c-0.3-7.8-5.3-14.4-12.2-17c-0.3,3.2-2.9,5.7-6.2,5.7h-0.9c-3.3,0-5.9-2.5-6.2-5.7
		c-7,2.6-12,9.3-12.2,17.1C8.1,29.5,21.1,34.2,42.8,28z M34,22.2l0.8-2l0.8,2l2.1,0.2l-1.6,1.4l0.5,2.1l-1.8-1.1L33,25.8l0.5-2.1
		l-1.6-1.4L34,22.2z M23.3,22.8l1.1-2.7l1.1,2.7l2.9,0.2L26.2,25l0.7,2.8l-2.5-1.5l-2.5,1.5l0.7-2.8l-2.2-1.9L23.3,22.8z M12.5,22.2
		l0.8-2l0.8,2l2.1,0.2l-1.6,1.4l0.5,2.1l-1.8-1.1l-1.8,1.1l0.5-2.1l-1.6-1.4L12.5,22.2z"/>
</g>
</svg>
