<?xml version="1.0" encoding="utf-8"?>
<!-- Generator: Adobe Illustrator 18.0.0, SVG Export Plug-In . SVG Version: 6.00 Build 0)  -->
<!DOCTYPE svg PUBLIC "-//W3C//DTD SVG 1.1//EN" "http://www.w3.org/Graphics/SVG/1.1/DTD/svg11.dtd">
<svg version="1.1" id="Layer_1" xmlns="http://www.w3.org/2000/svg" xmlns:xlink="http://www.w3.org/1999/xlink" x="0px" y="0px"
	 viewBox="0 0 48 48" enable-background="new 0 0 48 48" xml:space="preserve">
<g>
	<path fill="#06728D" d="M34,15.5V8c0-0.5-0.4-1-1-1H14.9c-0.5,0-1,0.4-1,1v7.4c2.8-2,6.3-3.3,10-3.3C27.7,12.2,31.2,13.5,34,15.5z"
		/>
	<path fill="#0DB89A" d="M17.7,6.3c0-3.2,2.8-5.8,6.3-5.8c3.5,0,6.3,2.6,6.3,5.8"/>
	<path fill="#4DA0D8" d="M40.8,34c-0.6-0.3-1.2-1.2-2.3-2.7c-0.6-0.8-1.6-2.3-2.1-2.8c-0.6,0.4-1.5,1.6-2.1,2.4
		c-1.7,2.1-2.8,3.3-4.1,3.3c-1.3,0-2.3-1.2-4-3.3c-0.6-0.8-1.6-2-2.1-2.4c-0.6,0.4-1.6,1.6-2.3,2.4c-1.8,2.1-2.8,3.3-4.2,3.3
		c-1.3,0-2.3-1.2-4-3.3c-0.6-0.7-1.5-1.9-2-2.4c-0.7,0.7-1.8,2.4-2.5,3.3c-0.9,1.4-1.4,2.1-1.9,2.4c0.2,0.9,0.5,1.9,0.9,2.7h31.7
		C40.3,35.9,40.6,35,40.8,34z"/>
	<path fill="#E77528" d="M7.2,30.8c2.1-3.1,3.1-4.4,4.3-4.4c1.3,0,2.3,1.2,4,3.4c0.6,0.8,1.6,2,2.1,2.4c0.6-0.4,1.6-1.7,2.3-2.5
		c1.8-2.1,2.8-3.3,4.2-3.3c1.3,0,2.3,1.2,4,3.3c0.6,0.8,1.6,2,2.1,2.4c0.6-0.4,1.6-1.6,2.2-2.4c1.7-2.1,2.8-3.3,4.1-3.3
		c1.2,0,2.1,1.1,4,3.9c0.2,0.3,0.4,0.7,0.7,1c0-0.3,0-0.6,0-0.9c0-5.7-2.8-10.8-7.1-13.9c-2.8-2-6.3-3.3-10-3.3
		c-3.7,0-7.2,1.2-10,3.3c-4.3,3.1-7.1,8.2-7.1,13.9c0,0.3,0,0.7,0.1,1C7,31.1,7.1,31,7.2,30.8z"/>
	<path fill="#F04B36" d="M9.1,38.8c3,5.2,8.5,8.7,14.9,8.7c6.4,0,12-3.5,14.9-8.7H9.1z"/>
</g>
</svg>
