<?xml version="1.0" encoding="utf-8"?>
<!-- Generator: Adobe Illustrator 18.0.0, SVG Export Plug-In . SVG Version: 6.00 Build 0)  -->
<!DOCTYPE svg PUBLIC "-//W3C//DTD SVG 1.1//EN" "http://www.w3.org/Graphics/SVG/1.1/DTD/svg11.dtd">
<svg version="1.1" id="Layer_1" xmlns="http://www.w3.org/2000/svg" xmlns:xlink="http://www.w3.org/1999/xlink" x="0px" y="0px"
	 viewBox="0 0 48 48" enable-background="new 0 0 48 48" xml:space="preserve">
<g>
	<path fill="#4DA0D8" d="M34,15.5V8c0-0.5-0.4-1-1-1H14.9c-0.5,0-1,0.4-1,1v7.4c2.8-2,6.3-3.3,10-3.3C27.7,12.2,31.2,13.5,34,15.5z"
		/>
	<path fill="#CFD0D1" d="M17.7,6.3c0-3.2,2.8-5.8,6.3-5.8c3.5,0,6.3,2.6,6.3,5.8"/>
	<path fill="#0DB89A" d="M31.8,15c-2.3-1.2-5-1.9-7.8-1.9c-3.7,0-7.2,1.2-10,3.3c-4.3,3.1-7.1,8.2-7.1,13.9c0,2.8,0.7,5.5,1.9,7.8
		L31.8,15z"/>
	<path fill="#F04B36" d="M38.2,20.7c-1.1-1.7-2.6-3.1-4.2-4.3c-0.2-0.1-0.4-0.2-0.5-0.4L9.7,39.8c1.2,1.9,2.8,3.5,4.7,4.7L38.2,20.7
		z"/>
	<path fill="#F7A93B" d="M39.2,22.4L16.1,45.6c2.4,1.2,5.1,1.9,7.9,1.9c9.5,0,17.2-7.7,17.2-17.2C41.2,27.5,40.5,24.8,39.2,22.4z"/>
</g>
</svg>
