<?xml version="1.0" encoding="utf-8"?>
<!-- Generator: Adobe Illustrator 18.0.0, SVG Export Plug-In . SVG Version: 6.00 Build 0)  -->
<!DOCTYPE svg PUBLIC "-//W3C//DTD SVG 1.1//EN" "http://www.w3.org/Graphics/SVG/1.1/DTD/svg11.dtd">
<svg version="1.1" id="Layer_1" xmlns="http://www.w3.org/2000/svg" xmlns:xlink="http://www.w3.org/1999/xlink" x="0px" y="0px"
	 viewBox="0 0 48 48" enable-background="new 0 0 48 48" xml:space="preserve">
<g>
	<path fill="#0DB89A" d="M29.7,12.9C27.9,12.3,26,12,24,12c-2,0-3.9,0.3-5.7,0.9c-7,2.4-12.1,9-12.1,16.8c0,9.8,8,17.8,17.8,17.8
		c9.8,0,17.8-8,17.8-17.8C41.8,21.9,36.7,15.3,29.7,12.9z M34.9,31.4c-1.5,3.3-4.7,5.5-9.5,6.6c-0.7,0.2-1.4,0.2-2,0.2
		c-4.1,0-7.1-3-8.2-6.1c-1.3-3.6-0.6-8.2,3.9-10.5c3.6-1.8,6.6-0.1,8.2,1.9c1.9,2.4,1.9,5.5,0.2,7.4c-2,2.2-4.7,2.4-6.4,2
		c-1.3-0.3-2.3-1.1-2.6-2.1c-0.5-1.8,0.1-3.6,1.3-4.5c1.1-0.8,2.6-0.8,3.9,0.1c0.4,0.3,0.5,0.8,0.2,1.2c-0.3,0.4-0.8,0.5-1.2,0.2
		c-0.7-0.5-1.4-0.5-1.9-0.1c-0.7,0.5-1,1.5-0.7,2.7c0.1,0.3,0.5,0.7,1.3,0.9c1.2,0.3,3.2,0.1,4.6-1.5c1.3-1.4,0.8-3.6-0.3-5.1
		c-1.2-1.6-3.4-2.8-6-1.4c-3.5,1.8-4,5.5-3,8.3c1.1,3,4.1,5.7,8.2,4.8c4.2-0.9,7-2.8,8.2-5.6c2.4-5.3-1.3-12.5-2.5-14.6
		c-0.2-0.4-0.1-1,0.3-1.2c0.4-0.2,1-0.1,1.2,0.3C33.9,18.1,37.5,25.5,34.9,31.4z"/>
	<path fill="#E77528" d="M28.7,7.3h-1.4c-0.7,1.1-1.9,1.9-3.3,1.9c-1.4,0-2.6-0.7-3.3-1.9h-1.4c-0.5,0-0.9,0.4-0.9,0.9V12
		C20.1,11.4,22,11,24,11c2,0,3.9,0.3,5.7,0.9V8.3C29.7,7.8,29.3,7.3,28.7,7.3z"/>
	<path fill="#06728D" d="M24,0.5c-2.2,0-3.9,1.8-3.9,3.9c0,0.8,0.2,1.5,0.6,2.1c0.7,1.1,1.9,1.9,3.3,1.9c1.4,0,2.6-0.7,3.3-1.9
		c0.4-0.6,0.6-1.3,0.6-2.1C27.9,2.3,26.2,0.5,24,0.5z"/>
</g>
</svg>
