<?xml version="1.0" encoding="utf-8"?>
<!-- Generator: Adobe Illustrator 18.0.0, SVG Export Plug-In . SVG Version: 6.00 Build 0)  -->
<!DOCTYPE svg PUBLIC "-//W3C//DTD SVG 1.1//EN" "http://www.w3.org/Graphics/SVG/1.1/DTD/svg11.dtd">
<svg version="1.1" id="Layer_1" xmlns="http://www.w3.org/2000/svg" xmlns:xlink="http://www.w3.org/1999/xlink" x="0px" y="0px"
	 viewBox="0 0 48 48" enable-background="new 0 0 48 48" xml:space="preserve">
<g>
	<path fill="#E77528" d="M40,36.2c4-3.9,6.3-9.4,6.3-14.8c0-11.5-10-20.8-22.3-20.8S1.7,9.8,1.7,21.3c0,5.6,2.4,10.9,6.7,14.8
		 M20.5,35.3v-7.2c0-0.5,0.4-0.9,0.9-0.9h5.2c0.5,0,0.9,0.4,0.9,0.9v7.2l11-0.1 M7.9,24.3c-0.5,0-1-0.4-1-0.9c0-0.5,0.4-0.9,1-0.9
		c0.6,0,1,0.4,1,0.9C8.9,23.9,8.4,24.3,7.9,24.3z M7.9,17.2c-0.5,0-1-0.4-1-0.9c0-0.5,0.4-0.9,1-0.9c0.6,0,1,0.4,1,0.9
		C8.9,16.7,8.4,17.2,7.9,17.2z M12.2,30.8c-0.6,0-1-0.4-1-0.9c0-0.5,0.4-0.9,1-0.9c0.5,0,1,0.4,1,0.9C13.1,30.4,12.7,30.8,12.2,30.8
		z M15.9,24.3c-0.6,0-1-0.4-1-0.9c0-0.5,0.4-0.9,1-0.9c0.6,0,1,0.4,1,0.9C16.8,23.9,16.4,24.3,15.9,24.3z M15.9,17.2
		c-0.6,0-1-0.4-1-0.9c0-0.5,0.4-0.9,1-0.9c0.6,0,1,0.4,1,0.9C16.8,16.7,16.4,17.2,15.9,17.2z M15.9,10.1c-0.6,0-1-0.4-1-0.9
		c0-0.5,0.4-0.9,1-0.9c0.6,0,1,0.4,1,0.9C16.8,9.7,16.4,10.1,15.9,10.1z M23.8,24.3c-0.6,0-1-0.4-1-0.9c0-0.5,0.4-0.9,1-0.9
		c0.5,0,1,0.4,1,0.9C24.8,23.9,24.4,24.3,23.8,24.3z M23.8,17.2c-0.6,0-1-0.4-1-0.9c0-0.5,0.4-0.9,1-0.9c0.5,0,1,0.4,1,0.9
		C24.8,16.7,24.4,17.2,23.8,17.2z M23.8,10.1c-0.6,0-1-0.4-1-0.9c0-0.5,0.4-0.9,1-0.9c0.5,0,1,0.4,1,0.9
		C24.8,9.7,24.4,10.1,23.8,10.1z M32.1,24.3c-0.5,0-1-0.4-1-0.9c0-0.5,0.4-0.9,1-0.9c0.6,0,1,0.4,1,0.9C33,23.9,32.6,24.3,32.1,24.3
		z M32.1,17.2c-0.5,0-1-0.4-1-0.9c0-0.5,0.4-0.9,1-0.9c0.6,0,1,0.4,1,0.9C33,16.7,32.6,17.2,32.1,17.2z M32.1,10.1
		c-0.5,0-1-0.4-1-0.9c0-0.5,0.4-0.9,1-0.9c0.6,0,1,0.4,1,0.9C33,9.7,32.6,10.1,32.1,10.1z M35.3,31.2c-0.6,0-1-0.4-1-0.9
		c0-0.5,0.4-0.9,1-0.9c0.5,0,1,0.4,1,0.9C36.3,30.7,35.8,31.2,35.3,31.2z M40,15.3c0.5,0,1,0.4,1,0.9c0,0.5-0.4,0.9-1,0.9
		c-0.6,0-1-0.4-1-0.9C39,15.7,39.5,15.3,40,15.3z M40,24.3c-0.6,0-1-0.4-1-0.9c0-0.5,0.4-0.9,1-0.9c0.5,0,1,0.4,1,0.9
		C41,23.9,40.6,24.3,40,24.3z"/>
	<rect x="8.1" y="36.9" fill="#0DB89A" width="31.9" height="10.6"/>
</g>
</svg>
