<?xml version="1.0" encoding="utf-8"?>
<!-- Generator: Adobe Illustrator 18.0.0, SVG Export Plug-In . SVG Version: 6.00 Build 0)  -->
<!DOCTYPE svg PUBLIC "-//W3C//DTD SVG 1.1//EN" "http://www.w3.org/Graphics/SVG/1.1/DTD/svg11.dtd">
<svg version="1.1" id="Layer_1" xmlns="http://www.w3.org/2000/svg" xmlns:xlink="http://www.w3.org/1999/xlink" x="0px" y="0px"
	 viewBox="0 0 48 48" enable-background="new 0 0 48 48" xml:space="preserve">
<g>
	<path fill="#4DA0D8" d="M35.6,36.1H9.1c-4.8,0-8.6-3.9-8.6-8.6v-0.4c0-4.8,3.9-8.6,8.6-8.6c0.5,0,1,0.4,1,1c0,0.5-0.4,1-1,1
		c-3.7,0-6.7,3-6.7,6.7v0.4c0,3.7,3,6.7,6.7,6.7h26.5c3.7,0,6.7-3,6.7-6.7v-0.4c0-0.5,0.4-1,1-1c0.5,0,1,0.4,1,1v0.4
		C44.3,32.3,40.4,36.1,35.6,36.1z"/>
	<path fill="#4DA0D8" d="M9.8,31.2c-1.8,0-3.5-0.9-4.5-2.4c-0.9-1.4-1-3.2-0.3-4.7c0.2-0.5,0.8-0.7,1.3-0.5c0.5,0.2,0.7,0.8,0.5,1.3
		c-0.4,1-0.4,2,0.2,2.9c0.6,0.9,1.7,1.5,2.8,1.5c2.4,0,4.4-2,4.4-4.4c0-2.4-2-4.4-4.4-4.4c-0.5,0-1-0.4-1-1c0-0.5,0.4-1,1-1
		c3.5,0,6.4,2.9,6.4,6.4S13.3,31.2,9.8,31.2z"/>
	<path fill="#4DA0D8" d="M19.3,36.1c-0.1,0-0.2,0-0.3-0.1c-0.5-0.2-0.8-0.7-0.6-1.2l2.3-6.2c0.2-0.5,0.7-0.8,1.2-0.6
		c0.5,0.2,0.8,0.7,0.6,1.2l-2.3,6.2C20,35.9,19.6,36.1,19.3,36.1z"/>
	<path fill="#4DA0D8" d="M36.2,36.1c-0.4,0-0.8-0.2-0.9-0.6l-2.3-6.2c-0.2-0.5,0.1-1.1,0.6-1.2c0.5-0.2,1.1,0.1,1.2,0.6l2.3,6.2
		c0.2,0.5-0.1,1.1-0.6,1.2C36.4,36.1,36.3,36.1,36.2,36.1z"/>
	<path fill="#F04B36" d="M47,15c-0.1-0.1-3.3-1.9-7.5-1.9c-3.9,0-7.4,1.5-10.4,4.3c-1.7-1.7-6.3-5.6-12-5.6c-2.8,0-5.5,0.9-8,2.8
		c-0.3,0.2-0.5,0.7-0.4,1.1c0.1,0.4,0.5,0.7,0.9,0.7c0,0,4.5,0.3,6.9,3.5c1.5,2,1.9,4.8,1.2,8.4c-0.1,0.3,0,0.6,0.2,0.8
		c0.2,0.2,0.5,0.4,0.8,0.4h17.6c0.4,0,0.8-0.3,0.9-0.7c0.9-3.2,4.4-11.6,9.4-11.8c0.4,0,0.8-0.3,0.9-0.7C47.6,15.7,47.4,15.2,47,15z
		"/>
</g>
</svg>
