<?xml version="1.0" encoding="utf-8"?>
<!-- Generator: Adobe Illustrator 18.0.0, SVG Export Plug-In . SVG Version: 6.00 Build 0)  -->
<!DOCTYPE svg PUBLIC "-//W3C//DTD SVG 1.1//EN" "http://www.w3.org/Graphics/SVG/1.1/DTD/svg11.dtd">
<svg version="1.1" id="Layer_1" xmlns="http://www.w3.org/2000/svg" xmlns:xlink="http://www.w3.org/1999/xlink" x="0px" y="0px"
	 viewBox="0 0 48 48" enable-background="new 0 0 48 48" xml:space="preserve">
<g>
	<path fill="#0DB89A" d="M45.9,31.2H5.5l-4.9-13c-0.2-0.5,0.1-1.1,0.6-1.2c0.5-0.2,1.1,0.1,1.2,0.6l4.4,11.8h39.1c0.5,0,1,0.4,1,1
		S46.5,31.2,45.9,31.2z"/>
	<path fill="#0DB89A" d="M19.9,30.9c0.2,0.1,0.4,0.2,0.5,0.2c0.3,0,0.6-0.2,0.8-0.4c0.2-0.3,0.2-0.7,0-1c2.2,0.9,5.1,1.4,8.4,1.4
		c3.4,0,6.4-0.6,8.7-1.5c-0.2,0.3-0.3,0.8,0,1.1c0.2,0.3,0.5,0.4,0.8,0.4c0.2,0,0.4-0.1,0.5-0.2c0.2-0.1,4.9-3.4,3.8-10.7H16.1
		C15,27.5,19.7,30.8,19.9,30.9z M17.9,22.7C17.9,22.7,17.9,22.7,17.9,22.7C17.9,22.6,17.9,22.7,17.9,22.7
		C17.9,22.7,17.9,22.7,17.9,22.7z"/>
	<path fill="#010101" d="M17.9,22.2C17.9,22.1,17.9,22.1,17.9,22.2C17.9,22.1,17.9,22.1,17.9,22.2C17.9,22.1,17.9,22.1,17.9,22.2z"
		/>
	<path fill="#F04B36" d="M46.5,17.8H13.1c-0.5,0-1,0.4-1,1c0,0.5,0.4,1,1,1h3h27.4h3c0.5,0,1-0.4,1-1C47.5,18.2,47.1,17.8,46.5,17.8
		z"/>
</g>
</svg>
