<?xml version="1.0" encoding="utf-8"?>
<!-- Generator: Adobe Illustrator 18.0.0, SVG Export Plug-In . SVG Version: 6.00 Build 0)  -->
<!DOCTYPE svg PUBLIC "-//W3C//DTD SVG 1.1//EN" "http://www.w3.org/Graphics/SVG/1.1/DTD/svg11.dtd">
<svg version="1.1" id="Layer_1" xmlns="http://www.w3.org/2000/svg" xmlns:xlink="http://www.w3.org/1999/xlink" x="0px" y="0px"
	 viewBox="0 0 48 48" enable-background="new 0 0 48 48" xml:space="preserve">
<g>
	<path fill="#294E58" d="M45.3,39.4H5.4L0.6,26.1c-0.2-0.5,0.1-1.1,0.6-1.3c0.5-0.2,1.1,0.1,1.2,0.6l4.4,12h38.5c0.5,0,1,0.4,1,1
		C46.2,39,45.8,39.4,45.3,39.4z"/>
	<path fill="none" d="M17.4,30.4C17.4,30.4,17.5,30.4,17.4,30.4C17.5,30.4,17.4,30.3,17.4,30.4C17.4,30.4,17.4,30.4,17.4,30.4z"/>
	<path fill="#294E58" d="M41,28.9H17.7h-1.9h-0.2C15.3,32,16.1,34.4,17,36c1.1,2.1,2.5,3.1,2.6,3.2c0.2,0.1,0.4,0.2,0.5,0.2
		c0.3,0,0.6-0.2,0.8-0.4c0.2-0.4,0.2-0.9-0.1-1.2c0,0,0-0.1,0-0.1c2.2,0.9,5.1,1.5,8.4,1.5c3.4,0,6.4-0.6,8.7-1.6
		c0,0.1-0.1,0.1-0.1,0.2c-0.3,0.3-0.3,0.8-0.1,1.2c0.2,0.3,0.5,0.4,0.8,0.4c0.2,0,0.4-0.1,0.5-0.2c0.1-0.1,1.5-1.1,2.6-3.1
		c0.9-1.6,1.7-4,1.4-7.1h-0.2H41z"/>
	<path fill="#F04B36" d="M47.1,8.8c-0.3-0.2-0.6-0.2-1-0.1c-4,1.8-7.1,3.7-9.9,5.4c-4.8,2.9-8.6,5.2-14,5.7c-0.5,0.1-1,0.1-1.5,0.1
		c-4.3,0-6.5-2-8.2-3.5c-0.5-0.4-0.9-0.8-1.3-1.1c-0.6-0.4-1.4-0.3-1.7,0.2c-0.3,0.4-1,1.5,2.4,11.7c0.1,0.4,0.5,0.7,0.9,0.7h2.7
		h0.2h1.9H41h1.9h0.2h2.1c0.5,0,0.9-0.4,1-0.9l1.3-17.3C47.5,9.3,47.4,9,47.1,8.8z"/>
</g>
</svg>
