<?xml version="1.0" encoding="utf-8"?>
<!-- Generator: Adobe Illustrator 18.0.0, SVG Export Plug-In . SVG Version: 6.00 Build 0)  -->
<!DOCTYPE svg PUBLIC "-//W3C//DTD SVG 1.1//EN" "http://www.w3.org/Graphics/SVG/1.1/DTD/svg11.dtd">
<svg version="1.1" id="Layer_1" xmlns="http://www.w3.org/2000/svg" xmlns:xlink="http://www.w3.org/1999/xlink" x="0px" y="0px"
	 viewBox="0 0 48 48" enable-background="new 0 0 48 48" xml:space="preserve">
<g>
	<path fill="#4DA0D8" d="M24.8,13.7c-0.3,0-0.5-0.1-0.7-0.2c0,0,0,0,0,0c0,0,0,0,0,0c-0.2,0.1-0.5,0.2-0.7,0.2
		c-0.7,0-1.6-0.4-2.7-0.9c0,0,0,0,0,0v10.1h7V12.8c0,0,0,0,0,0C26.4,13.3,25.5,13.7,24.8,13.7z"/>
	<path fill="#294E58" d="M34.9,1.9c-0.5-0.8-1.3-1.3-2.3-1.3c-1.9-0.2-4,1.2-4.9,2.1C26,4.4,24.8,6.4,24,9c-0.8-2.6-2-4.6-3.7-6.4
		c-0.9-0.9-2.9-2.3-4.9-2.1c-1,0.1-1.7,0.6-2.3,1.3c-1.3,2-1,5.1-0.1,7.2c0.8,2,3.2,2.1,5.1,2.2c0.9,0,1.7,0.1,2.3,0.3
		c0.1,0,0.3,0.1,0.5,0.2c0,0,0,0,0,0c1,0.5,1.7,0.8,2.4,0.8c0.2,0,0.5,0,0.7-0.2c0,0,0,0,0,0c0,0,0,0,0,0c0.2,0.1,0.4,0.2,0.7,0.2
		c0.6,0,1.4-0.4,2.4-0.8c0,0,0,0,0,0c0.2-0.1,0.4-0.2,0.4-0.2c0.6-0.2,1.4-0.2,2.3-0.3c1.9-0.1,4.4-0.2,5.2-2.2
		C35.8,7,36.1,3.8,34.9,1.9z"/>
	<path fill="#F04B36" d="M18.6,12.1H3.4c-1.6,0-2.9,1.3-2.9,2.9v6c0,1.6,1.3,2.9,2.9,2.9h0.4h14.7L18.6,12.1
		C18.6,12.2,18.6,12.1,18.6,12.1z"/>
	<path fill="#F04B36" d="M44.6,12.1H29.4c0,0,0,0,0,0.1v11.6h14.7h0.4c1.6,0,2.9-1.3,2.9-2.9v-6C47.5,13.4,46.2,12.1,44.6,12.1z"/>
	<path fill="#F7A93B" d="M3.8,25.1c-0.1,0.3-0.2,0.6-0.2,1v18.6c0,1.6,1.3,2.9,2.9,2.9h12V25.1H3.8z"/>
	<rect x="20.5" y="24.1" fill="#4DA0D8" width="7" height="23.4"/>
	<path fill="#F7A93B" d="M44.2,25.1H29.4v22.4h12c1.6,0,2.9-1.3,2.9-2.9V26C44.4,25.7,44.3,25.4,44.2,25.1z"/>
</g>
</svg>
