<?xml version="1.0" encoding="utf-8"?>
<!-- Generator: Adobe Illustrator 18.0.0, SVG Export Plug-In . SVG Version: 6.00 Build 0)  -->
<!DOCTYPE svg PUBLIC "-//W3C//DTD SVG 1.1//EN" "http://www.w3.org/Graphics/SVG/1.1/DTD/svg11.dtd">
<svg version="1.1" id="Layer_1" xmlns="http://www.w3.org/2000/svg" xmlns:xlink="http://www.w3.org/1999/xlink" x="0px" y="0px"
	 viewBox="0 0 48 48" enable-background="new 0 0 48 48" xml:space="preserve">
<g>
	<path fill="#06728D" d="M29.1,44.1c-0.2,0.1-0.3,0.1-0.5,0.1c0,0,0,0-0.1,0c0.9,2,2.9,3.3,5.1,3.3c0.8,0,1.5-0.2,2.3-0.5
		c1.4-0.6,2.4-1.7,3-3.1c0.5-1.4,0.5-2.9-0.1-4.3l-0.1-0.3c-0.1,0-0.1,0.1-0.2,0.1L29.1,44.1z"/>
	<path fill="#06728D" d="M9.4,39l-0.2,0.3c-1.4,2.7-0.4,6.1,2.4,7.6c0.8,0.4,1.7,0.6,2.6,0.6c2.1,0,4-1.1,5-3l0.3-0.5l-9.5-4.5
		C9.7,39.4,9.5,39.2,9.4,39z"/>
	<path fill="#4DA0D8" d="M38.4,23.1c3.1,0,5.6-2.5,5.6-5.6c0-3.1-2.5-5.6-5.6-5.6h-8c0.7-1.2,1.1-2.5,1.1-3.9c0-4.1-3.4-7.5-7.5-7.5
		c-4.1,0-7.5,3.4-7.5,7.5c0,1.4,0.4,2.7,1.1,3.9h-8c-3.1,0-5.6,2.5-5.6,5.6c0,3.1,2.5,5.6,5.6,5.6h5.9v4.2l-5.2,9.9
		c0.2,0,0.4,0,0.6,0.1l9.6,4.6l3.7-7.1l3.4,7.6c0.1-0.2,0.3-0.3,0.4-0.4l9.3-4.6c0.1,0,0.1,0,0.2-0.1l-5.2-11.7v-2.3H38.4z"/>
</g>
</svg>
