<?xml version="1.0" encoding="utf-8"?>
<!-- Generator: Adobe Illustrator 18.0.0, SVG Export Plug-In . SVG Version: 6.00 Build 0)  -->
<!DOCTYPE svg PUBLIC "-//W3C//DTD SVG 1.1//EN" "http://www.w3.org/Graphics/SVG/1.1/DTD/svg11.dtd">
<svg version="1.1" id="Layer_1" xmlns="http://www.w3.org/2000/svg" xmlns:xlink="http://www.w3.org/1999/xlink" x="0px" y="0px"
	 viewBox="0 0 48 48" enable-background="new 0 0 48 48" xml:space="preserve">
<g>
	<path fill="#4DA0D8" d="M22.1,8.6c-0.2-0.1-0.5-0.1-0.8,0c-0.3,0.1-0.4,0.3-0.5,0.6C17,24.8,8.4,31.9,8.4,32
		c-0.1,0.1-0.2,0.2-0.2,0.3h34C40.1,17.2,22.9,9,22.1,8.6z"/>
	<path fill="#F04B36" d="M43.7,34.4h-1.5h-34H4.3c-1.5,0-2.8,1.2-2.8,2.8v7.5c0,1.5,1.2,2.8,2.8,2.8h39.3c1.5,0,2.8-1.2,2.8-2.8
		v-7.5C46.4,35.7,45.2,34.4,43.7,34.4z"/>
	<path fill="#F04B36" d="M21.1,0.5c-2.6,0-4.8,2.2-4.8,4.9c0,2.7,2.1,5,4.8,5c2.6,0,4.8-2.2,4.8-5C25.8,2.7,23.7,0.5,21.1,0.5z"/>
</g>
</svg>
