<?xml version="1.0" encoding="utf-8"?>
<!-- Generator: Adobe Illustrator 18.0.0, SVG Export Plug-In . SVG Version: 6.00 Build 0)  -->
<!DOCTYPE svg PUBLIC "-//W3C//DTD SVG 1.1//EN" "http://www.w3.org/Graphics/SVG/1.1/DTD/svg11.dtd">
<svg version="1.1" id="Layer_1" xmlns="http://www.w3.org/2000/svg" xmlns:xlink="http://www.w3.org/1999/xlink" x="0px" y="0px"
	 viewBox="0 0 48 48" enable-background="new 0 0 48 48" xml:space="preserve">
<g>
	<path fill="#4DA0D8" d="M4.8,31.5c9.5,2.1,19.4,2.1,29,0c0.2-0.1,0.5-0.1,0.7-0.1c0,0,0,0,0,0c-5.6-10.8-5.8-14.3-5.8-14.3
		c0.2-2.3,1-2.3,1.3-2.3c1,0,2.5,0.9,3.5,1.7c0.7-2.2,2.6-3.9,4.8-4.4C32.5,5.4,25.3,1.4,25,1.2l-0.2-0.1c-1.4-0.4-2.7-0.6-3.9-0.6
		c-8,0-10.4,8.4-10.7,9.4c-1.4,3.4-5.4,18.1-6.3,21.5c0.1,0,0.1,0,0.2,0C4.3,31.4,4.6,31.4,4.8,31.5z"/>
	<path fill="#F04B36" d="M34.5,33.1C34.5,33.1,34.5,33.1,34.5,33.1c-0.3,0-0.5,0-0.7,0.1c-9.5,2.1-19.4,2.1-29,0
		c-0.2-0.1-0.5-0.1-0.7-0.1c-0.1,0-0.1,0-0.2,0c-1.7,0.1-3,1.6-3,3.6V41c0,2.2,1.6,4.4,3.5,4.8c4.9,1.1,9.9,1.6,14.9,1.6
		c5,0,10-0.6,14.9-1.6c1.9-0.4,3.5-2.6,3.5-4.8v-4.3C37.7,34.6,36.3,33.1,34.5,33.1z"/>
	<path fill="#F04B36" d="M40.5,12.4c-0.5,0-1,0.1-1.4,0.2c-2.2,0.5-4,2.2-4.8,4.4c-0.2,0.7-0.4,1.4-0.4,2.2c0,3.7,3,6.8,6.6,6.8
		c3.6,0,6.6-3,6.6-6.8S44.1,12.4,40.5,12.4z"/>
</g>
</svg>
