<?xml version="1.0" encoding="utf-8"?>
<!-- Generator: Adobe Illustrator 18.0.0, SVG Export Plug-In . SVG Version: 6.00 Build 0)  -->
<!DOCTYPE svg PUBLIC "-//W3C//DTD SVG 1.1//EN" "http://www.w3.org/Graphics/SVG/1.1/DTD/svg11.dtd">
<svg version="1.1" id="Layer_1" xmlns="http://www.w3.org/2000/svg" xmlns:xlink="http://www.w3.org/1999/xlink" x="0px" y="0px"
	 viewBox="0 0 48 48" enable-background="new 0 0 48 48" xml:space="preserve">
<g>
	<path fill="#4DA0D8" d="M6.1,26.6c-0.3,0-0.6-0.1-0.8-0.4c-0.3-0.4-0.2-1,0.2-1.3l14.8-10.4c0.4-0.3,1-0.2,1.3,0.2
		c0.3,0.4,0.2,1-0.2,1.4L6.6,26.4C6.4,26.6,6.2,26.6,6.1,26.6z"/>
	<path fill="#4DA0D8" d="M21.6,39.4c-0.1,0-0.1,0-0.2,0c-0.5-0.1-0.9-0.6-0.8-1.1l2.7-13.6c0.1-0.5,0.6-0.9,1.1-0.8
		c0.5,0.1,0.9,0.6,0.8,1.1l-2.7,13.6C22.4,39.1,22,39.4,21.6,39.4z"/>
	<path fill="#4DA0D8" d="M6,25.5c-0.2-0.2-0.5-0.3-0.8-0.2c-0.3,0-0.5,0.2-0.7,0.4l-3.4,5.6c-0.3,0.4-0.2,0.9,0.2,1.3l16,13.2
		c0.2,0.1,0.4,0.2,0.6,0.2c0.1,0,0.1,0,0.2,0c0.3,0,0.5-0.2,0.7-0.4l3.4-5.6c0.3-0.4,0.2-0.9-0.2-1.3L6,25.5z"/>
	<path fill="#E77528" d="M47.4,31.3l-3.4-5.6c-0.1-0.2-0.4-0.4-0.7-0.4c-0.3,0-0.6,0-0.8,0.2l-16,13.2c-0.4,0.3-0.5,0.8-0.2,1.3
		l3.4,5.6c0.1,0.2,0.4,0.4,0.7,0.4c0.1,0,0.1,0,0.2,0c0.2,0,0.4-0.1,0.6-0.2l16-13.2C47.5,32.2,47.6,31.7,47.4,31.3z"/>
	<path fill="#E77528" d="M42.4,26.6c-0.2,0-0.4-0.1-0.6-0.2L27.1,16c-0.4-0.3-0.5-0.9-0.2-1.4c0.3-0.4,0.9-0.5,1.4-0.2l14.8,10.4
		c0.4,0.3,0.5,0.9,0.2,1.3C43,26.5,42.7,26.6,42.4,26.6z"/>
	<path fill="#E77528" d="M26.9,39.4c-0.5,0-0.9-0.3-0.9-0.8l-3.8-19.5l-0.8-3.4c-0.1-0.5,0.2-1,0.7-1.2c0.5-0.1,1,0.2,1.2,0.7
		l0.8,3.5l3.8,19.5c0.1,0.5-0.2,1-0.8,1.1C27,39.4,26.9,39.4,26.9,39.4z"/>
	<path fill="#F04B36" d="M19.3,9.7c0-1.5,0.6-2.8,1.5-3.8c-4.9-3.6-16.8-3.9-17-3.9c-2.3,0-3.3,4-3.3,7.7c0,3.7,1,7.7,3.3,7.7
		c0.1,0,12.1-0.2,17-3.8C19.9,12.6,19.3,11.2,19.3,9.7z"/>
	<path fill="#F04B36" d="M44.2,2.1c-0.1,0-12,0.3-17,3.9c0.9,0.9,1.5,2.3,1.5,3.8c0,1.5-0.6,2.9-1.5,3.8c4.9,3.7,16.9,3.8,17,3.8
		c2.3,0,3.3-4,3.3-7.7C47.5,6,46.5,2.1,44.2,2.1z"/>
	<path fill="#06728D" d="M26.5,6.8C25.8,6.2,25,5.7,24,5.7c-1,0-1.8,0.4-2.5,1.1c-0.7,0.7-1.1,1.8-1.1,2.9c0,1.2,0.5,2.2,1.2,2.9
		c0.6,0.7,1.5,1.1,2.5,1.1c0.9,0,1.8-0.4,2.5-1.1c0.7-0.7,1.2-1.8,1.2-2.9C27.6,8.6,27.2,7.6,26.5,6.8z"/>
</g>
</svg>
