<?xml version="1.0" encoding="utf-8"?>
<!-- Generator: Adobe Illustrator 18.0.0, SVG Export Plug-In . SVG Version: 6.00 Build 0)  -->
<!DOCTYPE svg PUBLIC "-//W3C//DTD SVG 1.1//EN" "http://www.w3.org/Graphics/SVG/1.1/DTD/svg11.dtd">
<svg version="1.1" id="Layer_1" xmlns="http://www.w3.org/2000/svg" xmlns:xlink="http://www.w3.org/1999/xlink" x="0px" y="0px"
	 viewBox="0 0 48 48" enable-background="new 0 0 48 48" xml:space="preserve">
<g>
	<path fill="#06728D" d="M4.6,31.6c-2.7,3-2.6,7.7,0.3,10.6c1.5,1.5,3.5,2.3,5.5,2.3c1.8,0,3.7-0.6,5.1-1.9
		C11.5,39.3,7.8,35.6,4.6,31.6z"/>
	<path fill="#FFD69A" d="M41.8,12.5c-0.2-0.4-0.6-0.8-0.9-1.3c-1-0.2-1.9-0.7-2.6-1.4c-0.7-0.7-1.1-1.5-1.3-2.5
		c-0.7-0.6-1.2-1-1.2-1c-3.4-2.1-6.8,0.2-6.8,0.2c-1.4,1-9,5.3-9,5.3c-3.9,2.2-8.3,3.1-8.3,3.1c5.5,8.7,12.7,15.9,21.4,21.4
		c0.1-0.6,1.7-5.4,1.7-5.4c1-2.7,6.5-11.6,6.5-11.6C43.7,15,41.8,12.5,41.8,12.5z"/>
	<path fill="#F7A93B" d="M32.1,37c-8.7-5.5-15.9-12.7-21.4-21.4c-0.6-0.9-1.6-1.5-2.7-1.5c-1,0-1.9,0.4-2.7,1.2l-3.2,3.2
		c-1.6,1.6-2.1,4.4-1,6.1c1.4,2.2,3,4.4,4.6,6.4c3.2,4,6.9,7.7,11,11c2,1.6,4.2,3.2,6.4,4.6c0.6,0.4,1.4,0.6,2.2,0.6
		c1.4,0,2.9-0.6,3.9-1.6l3.2-3.2c0.9-0.9,1.3-2,1.2-3.1C33.5,38.4,33,37.5,32.1,37z"/>
	<path fill="#0DB89A" d="M46,2.2c-0.9-0.9-2.2-1.5-3.5-1.5c-1.3,0-2.6,0.5-3.5,1.5c-0.9,0.9-1.5,2.2-1.5,3.5c0,0.4,0,0.7,0.1,1.1
		c0.2,0.9,0.7,1.8,1.3,2.5c0.7,0.7,1.6,1.2,2.6,1.4c0.3,0.1,0.6,0.1,0.9,0.1c1.3,0,2.6-0.5,3.5-1.5C48,7.4,48,4.2,46,2.2z"/>
</g>
</svg>
