<?xml version="1.0" encoding="utf-8"?>
<!-- Generator: Adobe Illustrator 18.0.0, SVG Export Plug-In . SVG Version: 6.00 Build 0)  -->
<!DOCTYPE svg PUBLIC "-//W3C//DTD SVG 1.1//EN" "http://www.w3.org/Graphics/SVG/1.1/DTD/svg11.dtd">
<svg version="1.1" id="Layer_1" xmlns="http://www.w3.org/2000/svg" xmlns:xlink="http://www.w3.org/1999/xlink" x="0px" y="0px"
	 viewBox="0 0 48 48" enable-background="new 0 0 48 48" xml:space="preserve">
<g>
	<path fill="#F7A93B" d="M42.2,9.2C43.8,6.5,43,3,40.3,1.3c-2.7-1.6-6.2-0.8-7.9,1.9c-0.4,0.6-0.6,1.3-0.7,1.9
		c1.8,0.1,3.6,0.7,5.2,1.7c1.6,1,3,2.3,3.9,3.9C41.3,10.3,41.8,9.8,42.2,9.2z"/>
	<path fill="#06728D" d="M40.6,19.7c1.1-1.9,1.3-4.2,0.5-6.5c-0.2-0.6-0.5-1.2-0.8-1.7C39.3,10,38,8.6,36.3,7.6
		c-1.6-1-3.4-1.6-5.2-1.7c-0.2,0-0.5,0-0.7,0c-2.9,0-5.4,1.3-6.7,3.4l0,0c-4.9,6.9-12.5,10-12.7,10c3.9-0.3,9.5,1.4,15.2,4.8
		c5.7,3.5,9.7,7.7,11.2,11.4C37.4,35.4,36.7,27.2,40.6,19.7z"/>
	<path fill="#0DB89A" d="M36.5,36.9C35,33.3,31,29,25.3,25.6c-5.7-3.5-11.3-5.1-15.2-4.8C8,20.9,6.4,21.6,5.6,23
		c-1.2,2-0.6,4.8,1.7,8c2.1,3,5.5,5.9,9.6,8.4c0.4,0.2,0.8,0.4,1.1,0.7c0.9-2.4,3.2-4.2,5.9-4.2c0,0,0.1,0,0.1,0l1.5-5.6
		c0.2-0.8,0.9-1.3,1.7-1.3c0.2,0,0.3,0,0.5,0.1c0.9,0.3,1.5,1.2,1.2,2.2l-1.6,5.7c1.7,1.1,2.7,3,2.7,5.2c0,0.7-0.1,1.4-0.4,2.1
		c0.5,0,0.9,0.1,1.3,0.1c2.6,0,4.5-0.8,5.4-2.3C37.4,40.6,37.3,38.9,36.5,36.9z"/>
	<path fill="#F04B36" d="M23.9,36.7c-3,0-5.4,2.4-5.4,5.4c0,3,2.4,5.4,5.4,5.4c3,0,5.4-2.4,5.4-5.4C29.3,39.2,26.9,36.7,23.9,36.7z"
		/>
	<path fill="#F04B36" d="M25.4,38.5c-0.1,0-0.2,0-0.2,0c-0.5-0.1-0.7-0.6-0.6-1.1l1.9-6.9c0.1-0.5,0.6-0.7,1.1-0.6
		c0.5,0.1,0.7,0.6,0.6,1.1l-1.9,6.9C26.1,38.2,25.8,38.5,25.4,38.5z"/>
</g>
</svg>
