<?xml version="1.0" encoding="utf-8"?>
<!-- Generator: Adobe Illustrator 18.0.0, SVG Export Plug-In . SVG Version: 6.00 Build 0)  -->
<!DOCTYPE svg PUBLIC "-//W3C//DTD SVG 1.1//EN" "http://www.w3.org/Graphics/SVG/1.1/DTD/svg11.dtd">
<svg version="1.1" id="Layer_1" xmlns="http://www.w3.org/2000/svg" xmlns:xlink="http://www.w3.org/1999/xlink" x="0px" y="0px"
	 viewBox="0 0 48 48" enable-background="new 0 0 48 48" xml:space="preserve">
<g>
	<path fill="#06728D" d="M5.5,34.7c-0.1,0-0.2,0-0.3-0.1c-0.5-0.2-0.7-0.8-0.6-1.3l2.7-7c0.2-0.5,0.8-0.8,1.3-0.6
		C9,26,9.2,26.6,9,27.1l-2.7,7C6.2,34.4,5.8,34.7,5.5,34.7z"/>
	<path fill="#06728D" d="M9.4,36.2c-0.1,0-0.2,0-0.3-0.1l-8-3.1c-0.5-0.2-0.7-0.8-0.6-1.3c0.2-0.5,0.8-0.8,1.3-0.6l8,3.1
		c0.5,0.2,0.7,0.8,0.6,1.3C10.2,36,9.8,36.2,9.4,36.2z"/>
	<path fill="#F04B36" d="M9.5,0.5L2.1,14.6l0,0.1c-1.8,4.8,0.5,10.1,5.3,12l1.5,0.6c1.1,0.4,2.2,0.6,3.3,0.6c3.8,0,7.2-2.4,8.6-5.9
		l3.9-15.6L9.5,0.5z M21.9,11.8c-0.2-0.1-0.5,0-1,0.1L20.7,12c-0.2,0.1-0.4,0.1-0.5,0.2c-0.3,0.1-0.7,0.2-0.9,0.3
		c-0.4,0.2-0.6,0.6-0.9,1c-0.1,0.2-0.3,0.4-0.4,0.6c-0.4,0.6-0.9,0.9-1.5,0.9c0,0-0.1,0-0.1,0c-0.9-0.1-1.3-0.9-1.7-1.6
		c-0.1-0.1-0.1-0.2-0.2-0.3c-0.3,0.5-0.8,0.5-1.1,0.5c-0.8-0.1-1.2-0.7-1.4-1.1c0-0.1-0.1-0.1-0.1-0.2c-0.2-0.2-0.5-0.4-0.7-0.6
		C11.1,11.8,11,11.9,11,12c-0.3,0.5-0.8,1.1-1.5,1.2c-0.5,0.1-0.9-0.1-1.4-0.5c-0.4-0.3-0.6-0.7-0.7-1c-0.1-0.1-0.1-0.3-0.2-0.3
		c-0.1-0.1-0.3-0.1-0.5,0c-0.3,0.1-0.5,0.3-0.7,0.5c-0.2,0.5-0.8,0.7-1.3,0.4c-0.5-0.2-0.7-0.8-0.4-1.3c0.4-0.7,1-1.2,1.8-1.5
		c0.7-0.2,1.5-0.1,2.1,0.2C8.8,10,9,10.6,9.2,10.9c0,0.1,0.1,0.1,0.1,0.2c0.1-0.1,0.1-0.2,0.2-0.2c0.3-0.4,0.7-1,1.4-1.1
		c1.3-0.2,2.6,1.3,2.6,1.3c0,0,0,0,0,0.1c0.2-0.2,0.4-0.3,0.7-0.3c0.9-0.1,1.7,0.6,2,1.2c0.1,0.1,0.2,0.3,0.3,0.5
		c0,0.1,0.1,0.2,0.1,0.3c0.1-0.1,0.1-0.2,0.2-0.3c0.4-0.5,0.8-1.1,1.5-1.6c0.5-0.3,1-0.4,1.4-0.6c0.2,0,0.3-0.1,0.5-0.1l0.2-0.1
		c0.7-0.2,1.5-0.5,2.5-0.1c0.5,0.2,0.7,0.8,0.4,1.3C23,11.8,22.4,12,21.9,11.8z"/>
	<path fill="#06728D" d="M42.5,46c-0.4,0-0.8-0.2-0.9-0.6l-2.7-7c-0.2-0.5,0.1-1.1,0.6-1.3c0.5-0.2,1.1,0.1,1.3,0.6l2.7,7
		c0.2,0.5-0.1,1.1-0.6,1.3C42.8,45.9,42.7,46,42.5,46z"/>
	<path fill="#06728D" d="M38.6,47.5c-0.4,0-0.8-0.2-0.9-0.6c-0.2-0.5,0.1-1.1,0.6-1.3l8-3.1c0.5-0.2,1.1,0.1,1.3,0.6
		c0.2,0.5-0.1,1.1-0.6,1.3l-8,3.1C38.8,47.5,38.7,47.5,38.6,47.5z"/>
	<path fill="#F2B45A" d="M29.5,24.7c-0.1,0-0.1,0-0.2,0c-0.5-0.1-0.9-0.6-0.8-1.1l4-21.3h7.3c0.5,0,1,0.4,1,1s-0.4,1-1,1h-5.7
		l-3.7,19.7C30.4,24.4,30,24.7,29.5,24.7z"/>
	<path fill="#0DB89A" d="M46,26l-7.5-14.2L32.9,14L31,24c-0.1,0.7-0.7,1.2-1.4,1.2c-0.1,0-0.2,0-0.3,0c-0.4-0.1-0.7-0.3-0.9-0.6
		c-0.2-0.3-0.3-0.7-0.2-1.1l1.6-8.2l-6.2,2.4l3.9,15.5l0,0.1c1.4,3.5,4.8,5.9,8.6,5.9c1.1,0,2.2-0.2,3.3-0.6l1.5-0.6
		C45.5,36.1,47.8,30.8,46,26z M43.7,27.1c-0.4,0.2-1,0.1-1.2-0.4c-0.1-0.2-0.3-0.4-0.6-0.4c-0.2-0.1-0.4,0-0.5,0
		c0,0-0.1,0.2-0.2,0.3c-0.1,0.3-0.3,0.7-0.6,1c-0.4,0.3-0.8,0.5-1.2,0.4c-0.7-0.1-1.1-0.7-1.4-1.1c-0.1-0.1-0.1-0.2-0.2-0.3
		c-0.2,0.1-0.5,0.4-0.7,0.5c0,0-0.1,0.1-0.1,0.1c-0.2,0.3-0.6,0.9-1.3,1c-0.3,0-0.7-0.1-1-0.5c-0.1,0.1-0.1,0.2-0.2,0.3
		c-0.3,0.6-0.7,1.4-1.5,1.5c0,0-0.1,0-0.1,0c-0.5,0-0.9-0.3-1.3-0.8c-0.1-0.2-0.3-0.3-0.4-0.5c-0.3-0.4-0.5-0.7-0.8-0.9
		c-0.2-0.1-0.5-0.2-0.9-0.3c-0.2,0-0.3-0.1-0.5-0.2l-0.2-0.1c-0.5-0.2-0.8-0.2-1-0.1c-0.4,0.2-1,0-1.2-0.4c-0.2-0.4,0-1,0.4-1.2
		c0.9-0.4,1.7-0.2,2.3,0.1l0.2,0.1c0.1,0,0.3,0.1,0.4,0.1c0.4,0.1,0.9,0.2,1.3,0.5c0.6,0.4,1,1,1.4,1.4c0.1,0.1,0.1,0.2,0.2,0.3
		c0-0.1,0.1-0.2,0.1-0.3c0.1-0.2,0.2-0.3,0.2-0.4c0.3-0.5,1-1.2,1.8-1.1c0.3,0,0.5,0.2,0.7,0.3c0,0,0-0.1,0.1-0.1
		c0,0,1.2-1.4,2.4-1.2c0.6,0.1,1,0.6,1.3,1c0,0.1,0.1,0.1,0.2,0.2c0-0.1,0.1-0.1,0.1-0.2c0.1-0.3,0.3-0.8,0.9-1.1
		c0.5-0.3,1.2-0.4,1.9-0.2c0.7,0.2,1.4,0.7,1.7,1.3C44.3,26.4,44.1,26.9,43.7,27.1z"/>
</g>
</svg>
