<?xml version="1.0" encoding="utf-8"?>
<!-- Generator: Adobe Illustrator 18.0.0, SVG Export Plug-In . SVG Version: 6.00 Build 0)  -->
<!DOCTYPE svg PUBLIC "-//W3C//DTD SVG 1.1//EN" "http://www.w3.org/Graphics/SVG/1.1/DTD/svg11.dtd">
<svg version="1.1" id="Layer_1" xmlns="http://www.w3.org/2000/svg" xmlns:xlink="http://www.w3.org/1999/xlink" x="0px" y="0px"
	 viewBox="0 0 48 48" enable-background="new 0 0 48 48" xml:space="preserve">
<g>
	<path fill="#06728D" d="M8.4,17.6c-0.4-0.1-0.8-0.2-1.2-0.2c-2.2,0-4.6,1.9-5.8,4.7c-0.9,2-1.1,4.2-0.4,5.8c0.4,1,1.1,1.7,2.1,2.1
		c0.4,0.1,0.8,0.2,1.2,0.2c2.2,0,4.6-1.9,5.8-4.7c0.9-2,1.1-4.2,0.4-5.8C10,18.6,9.3,17.9,8.4,17.6z"/>
	<path fill="#06728D" d="M46.7,22.1c-1.3-2.8-3.6-4.7-5.8-4.7c-0.4,0-0.9,0.1-1.2,0.2c-0.9,0.3-1.6,1.1-2.1,2.1
		c-0.7,1.6-0.5,3.8,0.4,5.8c1.2,2.8,3.6,4.7,5.8,4.7h0c0.4,0,0.9-0.1,1.2-0.2c0.9-0.3,1.6-1.1,2.1-2.1
		C47.8,26.3,47.6,24.1,46.7,22.1z"/>
	<path fill="#E77528" d="M21.8,13.1c-0.5,0-0.9-0.3-1-0.8c-0.4-2-2.2-2.3-2.5-2.3C11.8,10.2,7.2,8.9,4.8,6.2C2.7,3.9,3,1.4,3,1.3
		c0.1-0.5,0.6-0.9,1.1-0.8C4.6,0.6,5,1.1,4.9,1.6c0,0.1-0.2,1.7,1.3,3.3C7.7,6.4,10.9,8.2,18.4,8l0,0l0,0c1.3,0.1,3.8,1,4.3,3.9
		c0.1,0.5-0.2,1-0.8,1.1C22,13.1,21.9,13.1,21.8,13.1z"/>
	<path fill="#E77528" d="M12.9,9.7c-0.1,0-0.3,0-0.4-0.1c-4.1-1.9-3.3-8-3.2-8.3c0.1-0.5,0.6-0.9,1.1-0.8c0.5,0.1,0.9,0.6,0.8,1.1
		c0,0-0.7,5,2.1,6.3c0.5,0.2,0.7,0.8,0.5,1.3C13.6,9.5,13.3,9.7,12.9,9.7z"/>
	<path fill="#E77528" d="M18.2,9.7c-0.1,0-0.3,0-0.4-0.1c-4.1-1.9-3.3-8-3.2-8.3c0.1-0.5,0.6-0.9,1.1-0.8c0.5,0.1,0.9,0.6,0.8,1.1
		c0,0-0.7,5,2.1,6.3c0.5,0.2,0.7,0.8,0.5,1.3C18.9,9.5,18.5,9.7,18.2,9.7z"/>
	<path fill="#E77528" d="M26.2,13.1c-0.1,0-0.1,0-0.2,0c-0.5-0.1-0.9-0.6-0.8-1.1c0.5-2.9,3.1-3.8,4.3-3.9l0,0l0,0
		c7.4,0.2,10.7-1.6,12.1-3.1c1.5-1.6,1.3-3.2,1.3-3.3c-0.1-0.5,0.3-1,0.9-1.1c0.5-0.1,1,0.3,1.1,0.8c0,0.1,0.3,2.5-1.8,4.8
		c-2.5,2.7-7,4-13.6,3.8c-0.3,0-2.2,0.3-2.5,2.3C27,12.8,26.6,13.1,26.2,13.1z"/>
	<path fill="#E77528" d="M35.1,9.7c-0.4,0-0.7-0.2-0.9-0.6c-0.2-0.5,0-1.1,0.5-1.3c2.8-1.3,2.1-6.2,2.1-6.3c-0.1-0.5,0.3-1,0.8-1.1
		c0.5-0.1,1,0.3,1.1,0.8c0,0.3,0.9,6.4-3.2,8.3C35.4,9.7,35.2,9.7,35.1,9.7z"/>
	<path fill="#E77528" d="M29.8,9.7c-0.4,0-0.7-0.2-0.9-0.6c-0.2-0.5,0-1.1,0.5-1.3c2.8-1.3,2.1-6.2,2.1-6.3c-0.1-0.5,0.3-1,0.8-1.1
		c0.5-0.1,1,0.3,1.1,0.8c0,0.3,0.9,6.4-3.2,8.3C30.1,9.7,30,9.7,29.8,9.7z"/>
	<path fill="#4DA0D8" d="M24,11.2c-8.3,0-15,4.5-15,10.1c0,5.5,6.4,26.2,15,26.2c8.6,0,15-20.7,15-26.2C39,15.7,32.3,11.2,24,11.2z
		 M17.6,24.4c-0.8,0-1.4-0.6-1.4-1.4c0-0.8,0.6-1.4,1.4-1.4c0.8,0,1.4,0.6,1.4,1.4C19,23.8,18.4,24.4,17.6,24.4z M26.1,42.2h-4.3
		c-0.5,0-1-0.4-1-1c0-0.5,0.4-1,1-1h4.3c0.5,0,1,0.4,1,1C27.1,41.8,26.7,42.2,26.1,42.2z M30.4,24.4c-0.8,0-1.4-0.6-1.4-1.4
		c0-0.8,0.6-1.4,1.4-1.4c0.8,0,1.4,0.6,1.4,1.4C31.8,23.8,31.2,24.4,30.4,24.4z"/>
</g>
</svg>
