<?xml version="1.0" encoding="utf-8"?>
<!-- Generator: Adobe Illustrator 18.0.0, SVG Export Plug-In . SVG Version: 6.00 Build 0)  -->
<!DOCTYPE svg PUBLIC "-//W3C//DTD SVG 1.1//EN" "http://www.w3.org/Graphics/SVG/1.1/DTD/svg11.dtd">
<svg version="1.1" id="Layer_1" xmlns="http://www.w3.org/2000/svg" xmlns:xlink="http://www.w3.org/1999/xlink" x="0px" y="0px"
	 viewBox="0 0 48 48" enable-background="new 0 0 48 48" xml:space="preserve">
<g>
	<path fill="#F7A93B" d="M24,0.5c-4.9,0-8.9,3.9-8.9,8.8c0,4.8,4,8.8,8.9,8.8c4.9,0,8.9-3.9,8.9-8.8C32.9,4.4,28.9,0.5,24,0.5z
		 M20.9,9.3c-0.6,0-1.2-0.5-1.2-1.1S20.2,7,20.9,7C21.5,7,22,7.5,22,8.1S21.5,9.3,20.9,9.3z M24.8,13.8h-1.8c-0.5,0-1-0.4-1-1
		c0-0.5,0.4-1,1-1h1.8c0.5,0,1,0.4,1,1C25.8,13.4,25.4,13.8,24.8,13.8z M27.1,9.3c-0.6,0-1.2-0.5-1.2-1.1S26.5,7,27.1,7
		c0.6,0,1.2,0.5,1.2,1.1S27.8,9.3,27.1,9.3z"/>
	<path fill="#F04B36" d="M46.5,7.8c-0.1-0.4-0.4-0.7-0.8-0.7c-0.4,0-0.8,0.1-1,0.5c-0.1,0.1-7.1,12.4-15.2,13.3
		c-1.7-1-3.5-1.5-5.4-1.5c-1.9,0-3.8,0.5-5.5,1.5C10.3,19.9,3.4,7.7,3.3,7.5C3.1,7.2,2.7,7,2.3,7.1c-0.4,0-0.7,0.3-0.8,0.7
		c-4.4,15.6,6.9,22.5,9,23.6C9.2,35,8.4,39.3,8.4,43.8c0,0.4,0,0.8,0,1.2l0,0.7l0.7,0.2c2.8,0.7,7.5,1.6,13.7,1.6c0,0,0,0,0,0
		c5.1,0,10.5-0.6,16-1.7l0.8-0.2l0-0.8c0-0.3,0-0.7,0-1.1c0-4.5-0.8-8.8-2.2-12.4C39.6,30.3,50.9,23.4,46.5,7.8z M24,41.9
		c-0.6,0-1.2-0.5-1.2-1.1c0-0.6,0.5-1.1,1.2-1.1c0.6,0,1.2,0.5,1.2,1.1C25.2,41.4,24.6,41.9,24,41.9z M24,35.2
		c-0.6,0-1.2-0.5-1.2-1.1c0-0.6,0.5-1.1,1.2-1.1c0.6,0,1.2,0.5,1.2,1.1C25.2,34.7,24.6,35.2,24,35.2z M24,28.5
		c-0.6,0-1.2-0.5-1.2-1.1c0-0.6,0.5-1.1,1.2-1.1c0.6,0,1.2,0.5,1.2,1.1C25.2,28,24.6,28.5,24,28.5z"/>
</g>
</svg>
