<?xml version="1.0" encoding="utf-8"?>
<!-- Generator: Adobe Illustrator 18.0.0, SVG Export Plug-In . SVG Version: 6.00 Build 0)  -->
<!DOCTYPE svg PUBLIC "-//W3C//DTD SVG 1.1//EN" "http://www.w3.org/Graphics/SVG/1.1/DTD/svg11.dtd">
<svg version="1.1" id="Layer_1" xmlns="http://www.w3.org/2000/svg" xmlns:xlink="http://www.w3.org/1999/xlink" x="0px" y="0px"
	 viewBox="0 0 48 48" enable-background="new 0 0 48 48" xml:space="preserve">
<g>
	<path fill="#06728D" d="M34.6,3.6H14.1c-0.5,0-0.9,0.4-0.9,0.9s0.4,0.9,0.9,0.9h2.4h15h3.1c0.5,0,0.9-0.4,0.9-0.9
		S35.1,3.6,34.6,3.6z"/>
	<path fill="#06728D" d="M20.9,2.4h6.9c0.5,0,0.9-0.4,0.9-0.9c0-0.5-0.4-0.9-0.9-0.9h-6.9c-0.5,0-0.9,0.4-0.9,0.9
		C20,2,20.4,2.4,20.9,2.4z"/>
	<path fill="#F7A93B" d="M4,23.8c-0.2,0-0.4-0.1-0.6-0.2c-0.4-0.3-0.5-0.9-0.2-1.3c2.1-3,7.8-7.5,14-3.5c0.4,0.3,0.6,0.9,0.3,1.3
		c-0.3,0.4-0.9,0.6-1.3,0.3C10,16.3,5,23.1,4.8,23.4C4.6,23.6,4.3,23.8,4,23.8z"/>
	<path fill="#F7A93B" d="M44,23.8c-0.3,0-0.6-0.1-0.8-0.4c-0.2-0.3-5.2-7.1-11.4-3c-0.4,0.3-1,0.2-1.3-0.3c-0.3-0.4-0.2-1,0.3-1.3
		c6.2-4,11.9,0.5,14,3.5c0.3,0.4,0.2,1-0.2,1.3C44.4,23.7,44.2,23.8,44,23.8z"/>
	<path fill="#0DB89A" d="M30,18c2-1.6,3.1-4,3.1-6.5c0-1.8-0.6-3.5-1.6-4.9h-15c-1.1,1.4-1.6,3.1-1.6,4.9c0,2.5,1.2,4.9,3.1,6.5
		c-5.3,2.5-8.8,7.9-8.8,14.1c0,8.5,6.7,15.4,14.8,15.4c8.2,0,14.8-6.9,14.8-15.4C38.8,25.9,35.4,20.4,30,18z M21.1,11.6
		c-0.6,0-1.1-0.5-1.1-1.1c0-0.6,0.5-1.1,1.1-1.1c0.6,0,1.1,0.5,1.1,1.1C22.2,11.1,21.7,11.6,21.1,11.6z M24,39.1
		c-0.6,0-1.1-0.5-1.1-1.1c0-0.6,0.5-1.1,1.1-1.1c0.6,0,1.1,0.5,1.1,1.1C25.1,38.6,24.6,39.1,24,39.1z M24,32.7
		c-0.6,0-1.1-0.5-1.1-1.1c0-0.6,0.5-1.1,1.1-1.1c0.6,0,1.1,0.5,1.1,1.1C25.1,32.2,24.6,32.7,24,32.7z M24,26.4
		c-0.6,0-1.1-0.5-1.1-1.1c0-0.6,0.5-1.1,1.1-1.1c0.6,0,1.1,0.5,1.1,1.1C25.1,25.9,24.6,26.4,24,26.4z M26.9,11.6
		c-0.6,0-1.1-0.5-1.1-1.1c0-0.6,0.5-1.1,1.1-1.1c0.6,0,1.1,0.5,1.1,1.1C28,11.1,27.5,11.6,26.9,11.6z"/>
</g>
</svg>
