<?xml version="1.0" encoding="utf-8"?>
<!-- Generator: Adobe Illustrator 18.0.0, SVG Export Plug-In . SVG Version: 6.00 Build 0)  -->
<!DOCTYPE svg PUBLIC "-//W3C//DTD SVG 1.1//EN" "http://www.w3.org/Graphics/SVG/1.1/DTD/svg11.dtd">
<svg version="1.1" id="Layer_1" xmlns="http://www.w3.org/2000/svg" xmlns:xlink="http://www.w3.org/1999/xlink" x="0px" y="0px"
	 viewBox="0 0 48 48" enable-background="new 0 0 48 48" xml:space="preserve">
<g>
	<path fill="#0DB89A" d="M19.9,28.9c0.6-3,3.3-5.3,6.5-5.3c3.7,0,6.6,3,6.6,6.6c0,1.1-0.3,2.1-0.7,3l5.6,1.4c0.1,0,0.2,0,0.2,0
		c0.3,0,0.5-0.1,0.7-0.3c0.2-0.3,0.3-0.6,0.2-1c-0.7-2,0.4-3.5,3.8-5.5c0.3-0.2,0.5-0.5,0.5-0.8c0-0.3-0.1-0.7-0.4-0.8
		c-0.5-0.4-0.6-0.7-0.5-1c0.2-1.1,1.7-2.5,3-2.8c0.4-0.1,0.7-0.5,0.7-0.9c0-0.4-0.2-0.8-0.6-1c-0.7-0.3-0.7-0.6-0.7-0.7
		c-0.1-0.7,0.5-2.2,2.4-3.8c0.4-0.3,0.4-0.9,0.1-1.3c-0.3-0.4-0.9-0.5-1.3-0.2c-1.9,1.5-3.5,1.9-4.2,1.6c-0.1,0-0.4-0.2-0.5-0.8
		c-0.1-0.4-0.4-0.7-0.8-0.8c-0.4-0.1-0.8,0.2-1,0.6c-0.5,1.2-2.2,2.4-3.3,2.4c0,0,0,0,0,0c-0.3,0-0.7-0.1-0.9-0.7
		c-0.1-0.3-0.4-0.5-0.7-0.6c-0.3,0-0.7,0.1-0.9,0.3c-0.6,0.8-1.2,1.4-1.8,1.9c-2-0.2-3-1.8-3.5-5.6c0-0.3-0.3-0.6-0.6-0.8
		c-0.3-0.1-0.7-0.1-0.9,0.1c-0.5,0.4-0.9,0.3-1.2,0.1c-0.9-0.6-1.7-2.5-1.5-3.8c0.1-0.4-0.2-0.8-0.5-1c-0.4-0.2-0.8-0.1-1.1,0.2
		c-0.5,0.5-0.8,0.4-0.9,0.4c-0.7-0.1-1.8-1.3-2.7-3.6C18.6,4,18.1,3.8,17.6,4c-0.5,0.2-0.8,0.7-0.6,1.2c0.7,2.3,0.5,3.9,0,4.5
		c-0.1,0.1-0.3,0.3-1,0.2c-0.4-0.1-0.8,0.1-1,0.5c-0.2,0.4-0.1,0.8,0.2,1.1c0.9,0.9,1.4,3,1,4c-0.1,0.3-0.3,0.6-1,0.6
		c-0.3,0-0.6,0.2-0.8,0.5s-0.2,0.6,0,0.9c1,1.8,1.5,3.2,1.5,4.3c-0.1,0-0.1,0.1-0.2,0.1c-0.7,0.7-1.8,1-4.4-1
		c-0.3-0.2-0.6-0.3-0.9-0.1c-0.3,0.1-0.5,0.4-0.6,0.7c-0.1,0.3-0.2,0.4-0.4,0.4c-0.7,0.2-2-0.4-2.5-1.1c-0.3-0.3-0.7-0.5-1.1-0.3
		C5.2,20.6,5,21,5,21.4c0,0.4-0.1,0.4-0.1,0.5c-0.3,0.2-1.3,0.2-3-0.5c-0.5-0.2-1,0-1.3,0.4c-0.2,0.5-0.1,1,0.4,1.3
		c1.5,0.9,2.1,1.7,2.1,2.1c0,0,0,0.2-0.3,0.4c-0.4,0.2-0.5,0.7-0.4,1.1c0.1,0.4,0.5,0.7,0.9,0.7c0.8,0,2.1,0.7,2.3,1.4
		c0.1,0.1,0.1,0.3-0.1,0.5c-0.2,0.2-0.3,0.6-0.2,0.9c0.1,0.3,0.3,0.6,0.7,0.7c3.2,1,3.5,2,3.4,3c0,0.4,0.1,0.7,0.4,0.9
		c0.2,0.1,0.4,0.2,0.6,0.2c0.1,0,0.3,0,0.4-0.1l1.2-0.6c0.1-3.1,2.7-5.7,5.8-5.6c0.6,0,1.1,0.1,1.7,0.3"/>
	<path fill="#F04B36" d="M20.9,34.8c-0.9-1.1-1.4-2.5-1.3-4c0-0.4,0.1-0.8,0.1-1.2c-0.5-0.2-1.1-0.3-1.6-0.3c-3-0.1-5.5,2.4-5.6,5.4
		c-0.1,3,2.4,5.5,5.4,5.6c0.6,0,1.2-0.1,1.7-0.3c-0.1-0.5-0.2-1-0.2-1.5C19.5,37.1,20,35.8,20.9,34.8z"/>
	<path fill="#D72627" d="M30.6,35.8c-1.1,0.9-2.4,1.4-3.9,1.4c-1.3,0-2.5-0.3-3.5-1c-0.6-0.3-1-0.8-1.5-1.3c-0.9,1-1.4,2.3-1.3,3.7
		c0,0.5,0.1,1,0.3,1.5c0.7,2.3,2.9,3.9,5.4,3.8c3-0.1,5.4-2.6,5.3-5.6C31.3,37.5,31.1,36.6,30.6,35.8z"/>
	<path fill="#F04B36" d="M26.5,24.6c-2.8,0-5.2,2-5.7,4.7c-0.1,0.4-0.1,0.7-0.1,1.1c0,1.4,0.5,2.7,1.3,3.7c0.4,0.5,0.8,0.9,1.3,1.2
		c0.9,0.6,2,1,3.2,1c1.4,0,2.6-0.5,3.6-1.2c1.4-1.1,2.2-2.7,2.2-4.6C32.3,27.2,29.7,24.6,26.5,24.6z"/>
</g>
</svg>
