<?xml version="1.0" encoding="utf-8"?>
<!-- Generator: Adobe Illustrator 18.0.0, SVG Export Plug-In . SVG Version: 6.00 Build 0)  -->
<!DOCTYPE svg PUBLIC "-//W3C//DTD SVG 1.1//EN" "http://www.w3.org/Graphics/SVG/1.1/DTD/svg11.dtd">
<svg version="1.1" id="Layer_1" xmlns="http://www.w3.org/2000/svg" xmlns:xlink="http://www.w3.org/1999/xlink" x="0px" y="0px"
	 viewBox="0 0 48 48" enable-background="new 0 0 48 48" xml:space="preserve">
<g>
	<path fill="#99BF5B" d="M17.6,28.7c-0.3-0.1-0.6-1.3-0.5-2.4c0-0.5-0.3-0.9-0.8-1c-2.1-0.4-3.7-0.9-4.8-2.2c-0.2-0.3-0.7-0.4-1-0.3
		c-0.4,0.1-0.7,0.5-0.7,0.9C9.7,24.6,7.5,27,5.5,27c-0.4,0-0.8-0.1-1.1-0.3c-0.3-0.2-0.7-0.3-1-0.1c-0.3,0.2-0.5,0.5-0.5,0.9
		c0,3-0.3,5-2.1,7.4c-0.2,0.3-0.3,0.7-0.1,1c0.2,0.3,0.5,0.5,0.8,0.6c2.4,0.1,4.6,1.4,6,3.7c0.2,0.3,0.5,0.5,0.8,0.5
		c0.1,0,0.2,0,0.3,0c0.4-0.1,0.7-0.5,0.7-0.9c0.1-2.2,2.6-3.7,4.9-3.7c0.7,0,1.3,0.2,1.9,0.4c0.3,0.2,0.7,0.2,1.1-0.1
		c0.3-0.2,0.5-0.6,0.4-1c-0.4-1.9,0.2-4.4,0.7-4.9c0.3-0.2,0.4-0.6,0.3-1C18.2,29,17.9,28.8,17.6,28.7z"/>
	<path fill="#99BF5B" d="M30.5,19.5c0.2,0,0.4-0.1,0.6-0.2c1.6-1.3,3-2.2,4.6-2.2l0.1,0c0,0,0,0,0,0c0,0,0,0,0,0c0.5,0,1-0.4,1-1
		c0-0.3-0.2-0.6-0.4-0.8c-0.6-0.7-0.9-2.6-0.4-4.2c0.2-0.7,0.7-1.7,1.6-1.9c0.4-0.1,0.6-0.4,0.7-0.7c0.1-0.4,0-0.7-0.3-1
		c-2.3-2-3.6-3.5-4.2-6.4c-0.1-0.4-0.3-0.6-0.7-0.7c-0.3-0.1-0.7,0-1,0.3c-1.6,1.8-4.1,2.6-6.7,2.2c-0.4-0.1-0.8,0.2-1,0.5
		c-0.2,0.4-0.1,0.8,0.2,1.1c0.9,0.8,1.2,2.1,0.9,3.5c-0.3,1.7-1.4,3.2-2.7,3.7c-0.4,0.1-0.6,0.5-0.6,0.8c0,0.4,0.2,0.7,0.5,0.9
		c1.7,0.9,3.2,3,3.3,3.7c0,0.4,0.2,0.7,0.6,0.8c0.3,0.2,0.7,0.1,1-0.1c0,0,0,0,0.1,0c0.6,0,1.6,0.7,2.1,1.2
		C30,19.4,30.3,19.5,30.5,19.5z"/>
	<path fill="#7C963B" d="M47.4,38.6c-0.2-0.4-0.6-0.6-1-0.5c-1.3,0.2-2.7-0.5-3.7-1.8c-0.9-1.3-1.3-2.8-0.9-4c0.1-0.4,0-0.8-0.3-1
		c-0.3-0.3-0.7-0.3-1-0.2c-0.8,0.4-2,0.6-3.2,0.6c-1.1,0-1.6-0.2-1.7-0.3c-0.3-0.2-0.7-0.2-1-0.1c-0.3,0.2-0.5,0.5-0.5,0.9
		c0,0.3-1.2,0.9-2.3,1c-0.5,0.1-0.9,0.5-0.8,1c0.1,2.1-0.1,3.8-1.2,5.1c-0.3,0.3-0.3,0.7-0.1,1.1c0.2,0.3,0.6,0.5,1,0.5
		c1-0.1,2.9,1,3.9,2.5c0.5,0.8,0.6,1.5,0.3,2.2c-0.2,0.3-0.1,0.7,0.1,1c0.2,0.3,0.6,0.4,1,0.3c1.5-0.3,2.5-0.4,3.4-0.4
		c1.4,0,2.7,0.3,4.2,1c0.1,0.1,0.3,0.1,0.4,0.1c0,0,0,0,0,0c0.5,0,1-0.4,1-1c0-0.1,0-0.2-0.1-0.3c-0.3-2.3,0.5-4.6,2.4-6.4
		C47.5,39.5,47.6,39,47.4,38.6z"/>
	<path fill="#A61E23" d="M26.1,20.3c-3.8,0-6.9,3.1-6.9,6.9c0,3.8,3.1,6.9,6.9,6.9c3.8,0,6.9-3.1,6.9-6.9
		C33,23.4,29.9,20.3,26.1,20.3z"/>
</g>
</svg>
