<?xml version="1.0" encoding="utf-8"?>
<!-- Generator: Adobe Illustrator 18.0.0, SVG Export Plug-In . SVG Version: 6.00 Build 0)  -->
<!DOCTYPE svg PUBLIC "-//W3C//DTD SVG 1.1//EN" "http://www.w3.org/Graphics/SVG/1.1/DTD/svg11.dtd">
<svg version="1.1" id="Layer_1" xmlns="http://www.w3.org/2000/svg" xmlns:xlink="http://www.w3.org/1999/xlink" x="0px" y="0px"
	 viewBox="0 0 48 48" enable-background="new 0 0 48 48" xml:space="preserve">
<g>
	<path fill="#F7A93B" d="M24,0.5c-3.9,0-7.1,3.3-7.1,7.4c0,4.1,3.2,7.4,7.1,7.4s7.1-3.3,7.1-7.4C31.1,3.8,27.9,0.5,24,0.5z"/>
	<path fill="#F04B36" d="M44.8,3.9c-0.3-0.6-0.7-1-1.3-1.1c-0.6-0.1-1.2,0.1-1.6,0.5L27.8,16.8c-0.1,0.1-0.2,0.2-0.3,0.3h-6.6
		c-0.1,0-0.3,0-0.4,0c-0.1-0.1-0.2-0.2-0.3-0.3L6.1,3.3c-0.4-0.4-1-0.6-1.6-0.5C3.9,3,3.4,3.4,3.2,3.9C3,4.4-1.9,15.2,2,23.1
		C4,27,7.6,29.4,12.9,30.3c0.1,0,0.2,0,0.3,0c0,0,0,0,0.1,0v16.2c0,0.5,0.4,1,0.9,1h20.5c0.5,0,0.9-0.4,0.9-1V30.1
		c4.9-1,8.4-3.3,10.3-7C49.9,15.2,45,4.4,44.8,3.9z M5.3,21.3c-2.1-4.2-0.8-9.9,0.2-13.2l10.9,10.3c-1.9,1.3-3.2,3.4-3.2,5.8v2.2
		C9.4,25.7,6.7,24,5.3,21.3z M27.8,29h-1.5v9.1c0,1.1-0.8,1.9-1.9,1.9c-1,0-1.9-0.9-1.9-1.9V29h-1.5c-1,0-1.9-0.9-1.9-1.9
		c0-1.1,0.8-1.9,1.9-1.9h1.5v-1.1c0-1.1,0.8-1.9,1.9-1.9c1,0,1.9,0.9,1.9,1.9v1.1h1.5c1,0,1.9,0.9,1.9,1.9
		C29.7,28.1,28.8,29,27.8,29z M42.7,21.3c-1.2,2.4-3.6,4.1-7,4.9v-2c0-2.6-1.5-4.9-3.7-6.2l10.5-10C43.5,11.4,44.8,17.1,42.7,21.3z"
		/>
</g>
</svg>
