<?xml version="1.0" encoding="utf-8"?>
<!-- Generator: Adobe Illustrator 18.0.0, SVG Export Plug-In . SVG Version: 6.00 Build 0)  -->
<!DOCTYPE svg PUBLIC "-//W3C//DTD SVG 1.1//EN" "http://www.w3.org/Graphics/SVG/1.1/DTD/svg11.dtd">
<svg version="1.1" id="Layer_1" xmlns="http://www.w3.org/2000/svg" xmlns:xlink="http://www.w3.org/1999/xlink" x="0px" y="0px"
	 viewBox="0 0 48 48" enable-background="new 0 0 48 48" xml:space="preserve">
<g>
	<path fill="#294E58" d="M33.6,18.3c0-0.1-0.1-0.1-0.1-0.1l-7.6-9.7c1.4-0.7,2.3-2.1,2.3-3.7c0-2.3-1.9-4.2-4.2-4.2
		c-2.3,0-4.2,1.9-4.2,4.2c0,1.6,0.9,3,2.3,3.7l-7.6,9.7c0,0-0.1,0.1-0.1,0.1c-2,0.5-3.4,2-3.4,3.8c0,1.2,0.7,2.3,1.7,3
		c0.9,0.6,2,1,3.2,1h16.2c1.2,0,2.4-0.4,3.2-1c1-0.7,1.7-1.8,1.7-3C37,20.3,35.6,18.9,33.6,18.3z M24,10.6l5.9,7.5H18.1L24,10.6z"/>
	<path fill="#F7A93B" d="M45,32.5c-0.3-1.4-1.2-2.4-2.3-2.8c-0.3-0.1-0.7-0.2-1.1-0.2c-1.3,0-2.7,0.9-3.7,2.2c-0.4-2-1.3-4-2.6-5.6
		c-0.9,0.6-2,1-3.2,1H15.9c-1.2,0-2.4-0.4-3.2-1c-1.3,1.7-2.2,3.6-2.6,5.6c-1-1.4-2.4-2.2-3.7-2.2c-0.4,0-0.7,0.1-1.1,0.2
		c-1.1,0.4-1.9,1.4-2.3,2.8c-0.3,1.3-0.2,2.8,0.3,4.2C4.2,39.2,6.3,41,8.2,41c0.4,0,0.7-0.1,1.1-0.2c0.7-0.3,1.3-0.8,1.7-1.4
		c2.2,4.8,7.2,8.1,13,8.1c5.8,0,10.8-3.3,13-8.1c0.4,0.7,1,1.2,1.7,1.4c0.3,0.1,0.7,0.2,1.1,0.2c2,0,4-1.8,4.9-4.4
		C45.2,35.2,45.3,33.8,45,32.5z M17.9,32.5c0-1,0.8-1.9,1.9-1.9s1.9,0.8,1.9,1.9c0,1-0.8,1.9-1.9,1.9S17.9,33.5,17.9,32.5z
		 M27.6,39.9h-7.4c-0.3,0-0.5-0.2-0.5-0.5c0-0.3,0.2-0.5,0.5-0.5h7.4c0.3,0,0.5,0.2,0.5,0.5C28,39.7,27.8,39.9,27.6,39.9z
		 M28.2,34.3c-1,0-1.9-0.8-1.9-1.9c0-1,0.8-1.9,1.9-1.9c1,0,1.9,0.8,1.9,1.9C30.1,33.5,29.2,34.3,28.2,34.3z"/>
</g>
</svg>
