<?xml version="1.0" encoding="utf-8"?>
<!-- Generator: Adobe Illustrator 18.0.0, SVG Export Plug-In . SVG Version: 6.00 Build 0)  -->
<!DOCTYPE svg PUBLIC "-//W3C//DTD SVG 1.1//EN" "http://www.w3.org/Graphics/SVG/1.1/DTD/svg11.dtd">
<svg version="1.1" id="Layer_1" xmlns="http://www.w3.org/2000/svg" xmlns:xlink="http://www.w3.org/1999/xlink" x="0px" y="0px"
	 viewBox="0 0 48 48" enable-background="new 0 0 48 48" xml:space="preserve">
<g>
	<path fill="#CFD0D1" d="M41.3,5.7H6.7c-3.4,0-6.2,2.9-6.2,6.5V41c0,3.6,2.8,6.5,6.2,6.5h34.7c3.4,0,6.2-2.9,6.2-6.5V12.3
		C47.5,8.7,44.7,5.7,41.3,5.7z M40.9,39.2c0,0.5-0.4,1-1,1H8.1c-0.5,0-1-0.4-1-1V15.5c0-0.5,0.4-1,1-1h31.8c0.5,0,1,0.4,1,1V39.2z"
		/>
	<path fill="#06728D" d="M12.4,11.2c-0.8,0-1.5-0.6-1.5-1.4V1.9c0-0.8,0.7-1.4,1.5-1.4c0.8,0,1.5,0.6,1.5,1.4v7.8
		C13.9,10.6,13.2,11.2,12.4,11.2z"/>
	<path fill="#06728D" d="M35.6,11.2c-0.8,0-1.5-0.6-1.5-1.4V1.9c0-0.8,0.7-1.4,1.5-1.4c0.8,0,1.5,0.6,1.5,1.4v7.8
		C37.1,10.6,36.4,11.2,35.6,11.2z"/>
	<path fill="#F04B36" d="M14.7,33.9v-1.1l1.4-1.3c3.4-3.2,4.9-4.9,4.9-6.8c0-1.3-0.7-2.6-2.6-2.6c-1.2,0-2.2,0.6-2.8,1.1L15,21.9
		c0.9-0.8,2.2-1.3,3.7-1.3c2.8,0,4,1.9,4,3.8c0,2.4-1.8,4.4-4.6,7l-1.1,1v0h5.9v1.5H14.7z"/>
	<path fill="#F04B36" d="M33,22.3h-5l-0.5,3.4c0.3,0,0.6-0.1,1.1-0.1c1,0,2,0.2,2.8,0.7c1,0.6,1.9,1.7,1.9,3.4
		c0,2.6-2.1,4.5-4.9,4.5c-1.4,0-2.7-0.4-3.3-0.8l0.4-1.3c0.5,0.3,1.6,0.7,2.8,0.7c1.7,0,3.1-1.1,3.1-2.8c0-1.7-1.2-2.9-3.8-2.9
		c-0.8,0-1.3,0.1-1.8,0.1l0.9-6.3H33V22.3z"/>
</g>
</svg>
