<?xml version="1.0" encoding="utf-8"?>
<!-- Generator: Adobe Illustrator 18.0.0, SVG Export Plug-In . SVG Version: 6.00 Build 0)  -->
<!DOCTYPE svg PUBLIC "-//W3C//DTD SVG 1.1//EN" "http://www.w3.org/Graphics/SVG/1.1/DTD/svg11.dtd">
<svg version="1.1" id="Layer_1" xmlns="http://www.w3.org/2000/svg" xmlns:xlink="http://www.w3.org/1999/xlink" x="0px" y="0px"
	 viewBox="0 0 48 48" enable-background="new 0 0 48 48" xml:space="preserve">
<g>
	<path fill="#0DB89A" d="M12,30.2l-10.9,4c-0.4,0.1-0.6,0.5-0.6,0.9c0,0.4,0.2,0.7,0.6,0.9l4.4,1.8l0,4c0,0.3,0.1,0.6,0.3,0.7
		c0.2,0.2,0.5,0.2,0.8,0.2l3.2-0.8l2.1,5c0.1,0.3,0.5,0.6,0.8,0.6c0,0,0,0,0,0c0.3,0,0.7-0.2,0.8-0.5l5-10.5c-1.9,0-3.5-0.7-4.7-1.9
		C12.7,33.5,12.1,31.9,12,30.2z"/>
	<path fill="#F04B36" d="M46.9,12l-5-2.1l0.8-3.2c0.1-0.3,0-0.6-0.2-0.8c-0.2-0.2-0.4-0.3-0.7-0.3l-4,0l-1.8-4.5
		c-0.1-0.4-0.5-0.6-0.9-0.6c-0.4,0-0.7,0.3-0.8,0.6L30.5,12c1.8,0.1,3.3,0.7,4.4,1.9c1.2,1.2,1.8,2.9,1.8,4.8l10.2-5
		c0.3-0.2,0.5-0.5,0.5-0.9C47.5,12.5,47.3,12.1,46.9,12z"/>
	<path fill="#4DA0D8" d="M33,15.3c-1.1-1.1-2.7-1.8-4.4-1.9c-0.1,0-0.3,0-0.4,0c-3.3,0-6.9,1.8-9.9,4.7c-3.2,3.2-4.8,7.2-4.6,10.5
		c0.1,1.7,0.7,3.3,1.8,4.4c1.2,1.2,2.8,1.8,4.7,1.9c0.1,0,0.1,0,0.2,0c3.3,0,6.9-1.8,9.9-4.7c3-3.1,4.7-6.9,4.6-10.1
		C34.8,18.2,34.2,16.5,33,15.3z"/>
</g>
</svg>
