<?xml version="1.0" encoding="utf-8"?>
<!-- Generator: Adobe Illustrator 18.0.0, SVG Export Plug-In . SVG Version: 6.00 Build 0)  -->
<!DOCTYPE svg PUBLIC "-//W3C//DTD SVG 1.1//EN" "http://www.w3.org/Graphics/SVG/1.1/DTD/svg11.dtd">
<svg version="1.1" id="Layer_1" xmlns="http://www.w3.org/2000/svg" xmlns:xlink="http://www.w3.org/1999/xlink" x="0px" y="0px"
	 viewBox="0 0 48 48" enable-background="new 0 0 48 48" xml:space="preserve">
<g>
	<path fill="#06728D" d="M46.5,35.2h-1.9V1.5c0-0.5-0.4-1-1-1H4.3c-0.5,0-1,0.4-1,1v33.8H1.5c-0.5,0-1,0.4-1,1v10.3c0,0.5,0.4,1,1,1
		h45.1c0.5,0,1-0.4,1-1V36.2C47.5,35.7,47.1,35.2,46.5,35.2z M24.7,19.8c-0.2-0.2-0.4-0.2-0.6-0.2c0,0,0,0,0,0c0,0,0,0,0,0
		c-0.2,0-0.5,0.1-0.6,0.2c-4.4,3.7-6.6,7.3-6.4,10.7c0.1,2.1,1.1,3.7,1.9,4.7H9.2V12.1c0-0.5,0.4-1,1-1h27.6c0.5,0,1,0.4,1,1v23.1
		h-9.6c0.9-1,1.8-2.6,1.9-4.7C31.3,27.1,29.1,23.5,24.7,19.8z"/>
	<path fill="#F04B36" d="M31.1,30.5c0.2-3.4-2-7.1-6.4-10.7c-0.2-0.2-0.4-0.2-0.6-0.2c0,0,0,0,0,0c0,0,0,0,0,0
		c-0.2,0-0.5,0.1-0.6,0.2c-4.4,3.7-6.6,7.3-6.4,10.7c0.1,2,0.9,3.5,1.7,4.5h10.7C30.2,34,31,32.5,31.1,30.5z"/>
</g>
</svg>
