<?xml version="1.0" encoding="utf-8"?>
<!-- Generator: Adobe Illustrator 18.0.0, SVG Export Plug-In . SVG Version: 6.00 Build 0)  -->
<!DOCTYPE svg PUBLIC "-//W3C//DTD SVG 1.1//EN" "http://www.w3.org/Graphics/SVG/1.1/DTD/svg11.dtd">
<svg version="1.1" id="Layer_1" xmlns="http://www.w3.org/2000/svg" xmlns:xlink="http://www.w3.org/1999/xlink" x="0px" y="0px"
	 viewBox="0 0 48 48" enable-background="new 0 0 48 48" xml:space="preserve">
<g>
	<path fill="#F04B36" d="M33.8,2.8c-3.7,0-7.2,1.5-9.8,4.2c-2.6-2.7-6.1-4.2-9.8-4.2C6.6,2.8,0.5,9,0.5,16.5
		c0,6.1,7.3,13.3,16.6,22.2c2,2,4.1,4,6.2,6.1c0.2,0.2,0.4,0.3,0.7,0.3c0.2,0,0.5-0.1,0.7-0.3c2.3-2.3,4.4-4.4,6.5-6.4
		c9.5-9.2,16.3-15.8,16.3-22C47.5,9,41.4,2.8,33.8,2.8z"/>
</g>
</svg>
