<?xml version="1.0" encoding="utf-8"?>
<!-- Generator: Adobe Illustrator 18.0.0, SVG Export Plug-In . SVG Version: 6.00 Build 0)  -->
<!DOCTYPE svg PUBLIC "-//W3C//DTD SVG 1.1//EN" "http://www.w3.org/Graphics/SVG/1.1/DTD/svg11.dtd">
<svg version="1.1" id="Layer_1" xmlns="http://www.w3.org/2000/svg" xmlns:xlink="http://www.w3.org/1999/xlink" x="0px" y="0px"
	 viewBox="0 0 48 48" enable-background="new 0 0 48 48" xml:space="preserve">
<g>
	<path fill="#F04B36" d="M19.6,5.9H23v6.5L22,12.6h3.8L25,12.4V5.9h3.4c0.6,0,1-0.4,1-1c0-0.5-0.5-1-1-1H25V1.5c0-0.5-0.5-1-1-1
		c-0.6,0-1,0.4-1,1V4h-3.4c-0.6,0-1,0.4-1,1C18.5,5.5,19,5.9,19.6,5.9z"/>
	<path fill="#F7A93B" d="M46.8,28.7l-9.6-2.6v-9.6c0-0.4-0.3-0.8-0.7-0.9L25,12.4v-0.1H23v0.1l-11.4,3.2c-0.4,0.1-0.7,0.5-0.7,0.9
		v9.6l-9.6,2.7c-0.4,0.1-0.7,0.5-0.7,0.9v16.9c0,0.5,0.5,1,1,1h15.3v-8.7c0-3.6,3.2-6.5,7.1-6.5c3.9,0,7.1,2.9,7.1,6.5v8.7h15.3
		c0.6,0,1-0.4,1-1V29.7C47.5,29.2,47.2,28.9,46.8,28.7z M24,27.9c-3,0-5.4-2.2-5.4-5c0-2.8,2.4-5,5.4-5c3,0,5.4,2.2,5.4,5
		C29.4,25.7,27,27.9,24,27.9z"/>
	<ellipse fill="#4DA0D8" cx="24" cy="22.9" rx="3.6" ry="3.4"/>
</g>
</svg>
