<?xml version="1.0" encoding="utf-8"?>
<!-- Generator: Adobe Illustrator 18.0.0, SVG Export Plug-In . SVG Version: 6.00 Build 0)  -->
<!DOCTYPE svg PUBLIC "-//W3C//DTD SVG 1.1//EN" "http://www.w3.org/Graphics/SVG/1.1/DTD/svg11.dtd">
<svg version="1.1" id="Layer_1" xmlns="http://www.w3.org/2000/svg" xmlns:xlink="http://www.w3.org/1999/xlink" x="0px" y="0px"
	 viewBox="0 0 48 48" enable-background="new 0 0 48 48" xml:space="preserve">
<g>
	<path fill="#0DB89A" d="M16.8,28.3c-0.2,0-0.5,0-0.7-0.1l4.2,18.6c0.1,0.4,0.5,0.7,0.9,0.7h17.3c0.5,0,0.9-0.3,0.9-0.7l4.2-18.6
		c-0.2,0-0.5,0.1-0.7,0.1H16.8z"/>
	<path fill="#F04B36" d="M32.1,10.4c0,0-0.1-0.1-0.1-0.1c-1.2-1-3.6-2.8-6.6-3.5C21.5,5.8,18,2.4,18,2.3l-1.7-1.6
		c-0.4-0.4-1-0.4-1.4,0L12.5,3c-0.2,0.2-0.3,0.4-0.3,0.6s0.1,0.5,0.3,0.6l1.7,1.6c0,0,3.7,3.3,4.7,6.9c0.3,1,0.7,2,1.3,3h17.6
		L32.1,10.4z"/>
	<path fill="#F7A93B" d="M42.9,17.2h-5H20.3h-3.5c-2.5,0-4.6,1.9-4.6,4.3v1c0,2.1,1.7,3.9,3.9,4.2c0.2,0,0.5,0.1,0.7,0.1h26.1
		c0.2,0,0.5,0,0.7-0.1c2.2-0.3,3.9-2.1,3.9-4.2v-1C47.5,19.1,45.4,17.2,42.9,17.2z"/>
	<path fill="#4DA0D8" d="M11.8,29.5l-0.3-3.6c0-0.5-0.5-0.8-1-0.8H2.2c-0.5,0-0.9,0.4-1,0.8l-0.3,3.6H11.8z"/>
	<path fill="#294E58" d="M12.2,34.2L12,31.4H0.8l-0.3,2.9c0,2.5,2.1,4.6,4.9,4.9v5H3.9c-0.5,0-1,0.4-1,0.9c0,0.5,0.4,0.9,1,0.9h4.9
		c0.5,0,1-0.4,1-0.9c0-0.5-0.4-0.9-1-0.9H7.3v-5C10.1,38.8,12.3,36.8,12.2,34.2z"/>
</g>
</svg>
