<?xml version="1.0" encoding="utf-8"?>
<!-- Generator: Adobe Illustrator 18.0.0, SVG Export Plug-In . SVG Version: 6.00 Build 0)  -->
<!DOCTYPE svg PUBLIC "-//W3C//DTD SVG 1.1//EN" "http://www.w3.org/Graphics/SVG/1.1/DTD/svg11.dtd">
<svg version="1.1" id="Layer_1" xmlns="http://www.w3.org/2000/svg" xmlns:xlink="http://www.w3.org/1999/xlink" x="0px" y="0px"
	 viewBox="0 0 48 48" enable-background="new 0 0 48 48" xml:space="preserve">
<g>
	<path fill="#0DB89A" d="M26.8,10c1,0.4,1.9,0.9,2.6,1.6l5.9-2.4c0.3-0.1,0.6-0.2,0.9-0.2c3.1,0,5.6,2.5,5.8,5.6h0.8V9.4
		c0-2.1-1.7-3.9-3.9-3.9H26.8V10z"/>
	<path fill="#0DB89A" d="M6.2,14.7C6.4,11.6,9,9.1,12,9.1c0.3,0,0.6,0.1,0.9,0.2l5.8,2.4c0.8-0.7,1.7-1.3,2.6-1.6V5.5H9.2
		c-2.1,0-3.9,1.7-3.9,3.9v5.3H6.2z"/>
	<path fill="#0DB89A" d="M42,20.1c-0.2,3.2-2.8,5.6-5.8,5.6c-0.3,0-0.6-0.1-0.9-0.2l-2.6-1.1c3,3,5.6,7.3,4,12.3
		c-0.4,1.1-1.4,1.9-2.6,1.9c-0.3,0-0.6,0-0.8-0.1c-1.4-0.5-2.2-2-1.7-3.4c1.1-3.3-2.5-6.9-4.8-8.7V43H39c2.1,0,3.9-1.7,3.9-3.9v-19
		H42z"/>
	<path fill="#0DB89A" d="M21.4,32.8c-1.4,1.8-3.1,3.3-5.1,4.5c-0.4,0.2-0.9,0.4-1.3,0.4c-1,0-1.9-0.5-2.4-1.3
		c-0.8-1.3-0.3-2.9,1-3.7c4.7-2.7,5.7-7,6-8.8c-0.2-0.2-0.5-0.4-0.7-0.6l-5.8,2.4c-0.3,0.1-0.6,0.2-0.9,0.2c-3.1,0-5.6-2.5-5.8-5.6
		H5.3v19c0,2.1,1.7,3.9,3.9,3.9h12.2V32.8z"/>
	<path fill="#F04B36" d="M16.8,17.4c0-1.6,0.6-3.1,1.6-4.2l-6.1-2.5c-0.1,0-0.2-0.1-0.3-0.1c-2.4,0-4.3,2-4.3,4.6v1.1H1.7
		c-0.6,0-1.2,0.5-1.2,1.2c0,0.6,0.5,1.2,1.2,1.2h6.1v1.1c0,2.5,1.9,4.6,4.3,4.6c0.1,0,0.2,0,0.3-0.1l6.1-2.5
		C17.4,20.5,16.8,19,16.8,17.4z"/>
	<path fill="#F04B36" d="M46.3,16.3h-5.9v-1.1c0-2.5-1.9-4.6-4.3-4.6c-0.1,0-0.2,0-0.3,0.1l-6.1,2.5c1,1.1,1.6,2.6,1.6,4.2
		s-0.6,3.1-1.6,4.2l6.1,2.5c0.1,0,0.2,0.1,0.3,0.1c2.4,0,4.3-2,4.3-4.6v-1.1h5.9c0.6,0,1.2-0.5,1.2-1.2C47.5,16.8,47,16.3,46.3,16.3
		z"/>
	<path fill="#4DA0D8" d="M27.9,22.4c0.3-0.2,0.6-0.5,0.9-0.8c1-1.1,1.6-2.6,1.6-4.2s-0.6-3.1-1.6-4.2c-0.9-1-2.1-1.7-3.5-2V4
		c0-0.6-0.5-1.2-1.2-1.2c-0.6,0-1.2,0.5-1.2,1.2v7.2c-1.4,0.3-2.6,1-3.5,2c-1,1.1-1.6,2.6-1.6,4.2s0.6,3.1,1.6,4.2
		c0.5,0.5,1,1,1.7,1.3c0,0,0,0,0,0c0,0.1,0,6.9-6.8,10.9c-0.6,0.3-0.7,1-0.4,1.6c0.2,0.4,0.6,0.6,1,0.6c0.2,0,0.4-0.1,0.6-0.2
		c4.8-2.9,6.7-6.9,7.5-9.8V44c0,0.6,0.5,1.2,1.2,1.2c0.6,0,1.2-0.5,1.2-1.2V23.6c0,0,0.1,0,0.1,0c0,0,0,0,0,0
		c0.1,0.1,9.7,5.8,7.7,12c-0.2,0.6,0.1,1.3,0.7,1.5c0.1,0,0.2,0.1,0.4,0.1c0.5,0,0.9-0.3,1.1-0.8C37.3,29.9,30.8,24.5,27.9,22.4z"/>
</g>
</svg>
