<?xml version="1.0" encoding="utf-8"?>
<!-- Generator: Adobe Illustrator 18.0.0, SVG Export Plug-In . SVG Version: 6.00 Build 0)  -->
<!DOCTYPE svg PUBLIC "-//W3C//DTD SVG 1.1//EN" "http://www.w3.org/Graphics/SVG/1.1/DTD/svg11.dtd">
<svg version="1.1" id="Layer_1" xmlns="http://www.w3.org/2000/svg" xmlns:xlink="http://www.w3.org/1999/xlink" x="0px" y="0px"
	 viewBox="0 0 48 48" enable-background="new 0 0 48 48" xml:space="preserve">
<g>
	<path fill="#74BDAF" d="M39.3,10C39.3,10,39.3,10,39.3,10c0-5.2-4.1-9.5-9.2-9.5c-3.4,0-6.5,1.9-8.1,5c-0.8-0.3-1.7-0.4-2.5-0.4
		c-3.4,0-6.4,2.2-7.5,5.5c-0.9-0.4-1.9-0.6-3-0.6c-4.6,0-8.4,3.8-8.4,8.6c0,4.7,3.7,8.6,8.4,8.6h30.3c4.6,0,8.4-3.8,8.4-8.6
		C47.5,13.9,43.8,10,39.3,10z"/>
	<polygon fill="#99BF5B" points="13.7,33.6 11.7,34.8 12.2,32.5 10.5,30.9 12.8,30.7 13.7,28.5 14.6,30.7 17,30.9 15.2,32.5 
		15.7,34.8 	"/>
	<polygon fill="#C17C87" points="34.1,33.4 32.6,34.3 33,32.6 31.7,31.4 33.4,31.2 34.1,29.6 34.8,31.2 36.6,31.4 35.2,32.6 
		35.6,34.3 	"/>
	<polygon fill="#DD4A44" points="16.8,45.9 14.2,47.5 14.9,44.5 12.6,42.4 15.7,42.1 16.8,39.3 18,42.1 21.1,42.4 18.8,44.5 
		19.5,47.5 	"/>
	<polygon fill="#465E6B" points="33.3,44.2 31.7,45.1 32.1,43.3 30.8,42.2 32.6,42 33.3,40.3 33.9,42 35.7,42.2 34.4,43.3 
		34.8,45.1 	"/>
	<polygon fill="#BF6C30" points="24.2,38.1 21.7,39.7 22.4,36.7 20.1,34.7 23.1,34.5 24.2,31.7 25.4,34.5 28.4,34.7 26.1,36.7 
		26.8,39.7 	"/>
</g>
</svg>
