<?xml version="1.0" encoding="utf-8"?>
<!-- Generator: Adobe Illustrator 18.0.0, SVG Export Plug-In . SVG Version: 6.00 Build 0)  -->
<!DOCTYPE svg PUBLIC "-//W3C//DTD SVG 1.1//EN" "http://www.w3.org/Graphics/SVG/1.1/DTD/svg11.dtd">
<svg version="1.1" id="Layer_1" xmlns="http://www.w3.org/2000/svg" xmlns:xlink="http://www.w3.org/1999/xlink" x="0px" y="0px"
	 viewBox="0 0 48 48" enable-background="new 0 0 48 48" xml:space="preserve">
<g>
	<path fill="#0DB89A" d="M31,36.8v-4.7c-7.9-2.4-13.2-6.4-16-9.1v3.1c0.2,0.1,0.3,0.2,0.4,0.3C15.5,26.7,20.6,33.2,31,36.8z"/>
	<path fill="#0DB89A" d="M30,14.6h-6c0.2-0.1,0.3-0.2,0.5-0.3h-2.9c0.2,0.1,0.3,0.2,0.5,0.3h-6c-0.5,0-1,0.4-1,1v4
		c1.5,1.7,6.7,7,16,10v-14C31,15,30.6,14.6,30,14.6z"/>
	<path fill="#F04B36" d="M21.8,14.5h2.4c2.8-1.6,4.3-3.6,4.4-5.8c0.3-4.3-4.9-7.8-5.1-8c-0.4-0.2-0.8-0.2-1.2,0
		c-3.4,2.6-5,5.3-4.7,8C18,11.7,20.5,13.6,21.8,14.5z"/>
	<path fill="#4DA0D8" d="M40.3,32.9c-2.8,0-5.1,2.3-5.1,5.1c0,1,0.3,2,0.8,2.8H31v-1.3c-8.3-2.8-13.6-7.2-16-9.6v10.9H3.6
		c-0.4,0-0.7,0.2-0.9,0.6c-0.2,0.4-0.1,0.8,0.2,1.1l4.3,4.8c0.2,0.2,0.5,0.3,0.7,0.3h30.2c0.3,0,0.5-0.1,0.7-0.3l4.3-4.8
		c0.1-0.1,0.2-0.2,0.2-0.4c1.2-0.9,2-2.4,2-4C45.4,35.1,43.1,32.9,40.3,32.9z"/>
</g>
</svg>
