<?xml version="1.0" encoding="utf-8"?>
<!-- Generator: Adobe Illustrator 18.0.0, SVG Export Plug-In . SVG Version: 6.00 Build 0)  -->
<!DOCTYPE svg PUBLIC "-//W3C//DTD SVG 1.1//EN" "http://www.w3.org/Graphics/SVG/1.1/DTD/svg11.dtd">
<svg version="1.1" id="Layer_1" xmlns="http://www.w3.org/2000/svg" xmlns:xlink="http://www.w3.org/1999/xlink" x="0px" y="0px"
	 viewBox="0 0 48 48" enable-background="new 0 0 48 48" xml:space="preserve">
<g>
	<path fill="#F04B36" d="M22.6,14.3h2.9c2.6-1.6,4.1-3.5,4.2-5.6c0.3-4.3-4.9-7.8-5.1-8c-0.4-0.2-0.8-0.2-1.2,0
		c-3.4,2.6-5,5.3-4.7,8C18.9,11.5,21.2,13.4,22.6,14.3z"/>
	<path fill="#F7A93B" d="M43.4,40.7H32V15.6c0-0.5-0.4-0.9-0.9-1H16.9c-0.5,0-0.9,0.5-0.9,1v25.1H4.6c-0.4,0-0.7,0.2-0.9,0.6
		c-0.2,0.4-0.1,0.8,0.2,1.1l4.3,4.8c0.2,0.2,0.5,0.3,0.7,0.3h30.2c0.3,0,0.5-0.1,0.7-0.3l4.3-4.8c0.3-0.3,0.3-0.7,0.2-1.1
		C44.2,41,43.8,40.7,43.4,40.7z"/>
	<path fill="#4DA0D8" d="M32,40.3V15.6c0-0.5-0.4-0.9-0.9-1H16.9c-0.5,0-0.9,0.5-0.9,1v24.7H32z"/>
</g>
</svg>
