<?xml version="1.0" encoding="utf-8"?>
<!-- Generator: Adobe Illustrator 18.0.0, SVG Export Plug-In . SVG Version: 6.00 Build 0)  -->
<!DOCTYPE svg PUBLIC "-//W3C//DTD SVG 1.1//EN" "http://www.w3.org/Graphics/SVG/1.1/DTD/svg11.dtd">
<svg version="1.1" id="Layer_1" xmlns="http://www.w3.org/2000/svg" xmlns:xlink="http://www.w3.org/1999/xlink" x="0px" y="0px"
	 viewBox="0 0 48 48" enable-background="new 0 0 48 48" xml:space="preserve">
<g>
	<polygon fill="#010101" points="30.7,19.1 30.7,19.1 30.7,19.1 	"/>
	<polygon fill="#010101" points="9.7,19.1 9.7,19.1 9.7,19.1 	"/>
	<path fill="#E77528" d="M30.7,17.9c0-2.9-9.4-3-10.5-3c-1.1,0-10.5,0.1-10.5,3c0,0,0,0,0,0c0,2.9,9.4,3,10.5,3
		C21.3,20.8,30.7,20.7,30.7,17.9C30.7,17.9,30.7,17.9,30.7,17.9z"/>
	<path fill="#F04B36" d="M23.8,13.9c-0.3,0-0.6-0.1-0.8-0.2c-0.8-0.4-1-1.2-0.6-1.8c2.4-3.4-0.5-6.7-2.2-8.2c-5.2,4.6-2.3,8-2.3,8.1
		c0.5,0.6,0.4,1.4-0.3,1.9c-0.7,0.4-1.7,0.3-2.3-0.3c-0.1-0.1-5-5.9,3.8-12.5c0.6-0.4,1.5-0.5,2.1,0c3,2,7.6,7.2,4,12.5
		C24.9,13.7,24.4,13.9,23.8,13.9z"/>
	<path fill="#F7A93B" d="M20.2,17.9c-0.9,0-1.6-0.6-1.6-1.4v-6.2c0-0.7,0.7-1.4,1.6-1.4c0.9,0,1.6,0.6,1.6,1.4v6.2
		C21.8,17.3,21.1,17.9,20.2,17.9z"/>
	<path fill="#0DB89A" d="M47.1,41.6c-0.3-0.3-0.7-0.7-1.1-1c-0.8-0.7-1.7-1.5-2.1-2.3c-0.6-1.1-0.7-2.3-0.6-2.5
		c0.5-0.4,0.6-1.1,0.2-1.6c-0.4-0.5-1.1-0.8-1.8-0.6c-0.6,0.1-1.1,0.3-1.6,0.5c-1.1,0.4-1.6,0.6-2.5,0.3c-1.1-0.4-2.3-1.6-2.5-2.6
		c-0.1-0.4-0.4-0.8-0.8-1c-0.4-0.2-0.8-0.2-1.1-0.2c-0.5,0.1-1,0.3-1.2,0.8c-0.3,0.5-0.8,0.9-1.4,1.2V19.1c0,2.9-9.4,3-10.5,3
		c-1.1,0-10.5-0.1-10.5-3v10.5c-0.3,0.7-1.2,1.3-2.1,1.4c-0.7,0.1-1.7,0.1-2,0c-0.4-0.3-1-0.3-1.5-0.2c-0.5,0.2-0.9,0.6-1,1.1
		c-0.1,0.7,0.1,1.3,0.2,1.8c0.1,0.3,0.1,0.5,0.2,0.7c0.1,0.8,0,1.5-0.2,2.2c-0.3,1-1.1,2.1-2.3,3c-0.5,0.3-0.7,0.9-0.5,1.4
		c0.2,0.5,0.7,0.9,1.3,1c0.9,0.1,1.8-0.1,2.6-0.3c0.4-0.1,0.8-0.2,1.1-0.2c1-0.1,2-0.1,2.8,0c1.4,0.1,2.9,0.7,3.9,1.5
		c0.3,0.3,0.7,0.4,1.1,0.4c0.2,0,0.4,0,0.6-0.1c0.6-0.2,1-0.7,0.9-1.3c-0.1-1.5,0.2-1.9,1.9-2.7c0.9-0.4,1.8-0.5,2.8-0.7
		c0.6-0.1,1.2-0.2,1.8-0.3c0.3-0.1,0.6-0.2,0.8-0.4c0.3,0.1,0.5,0.1,0.8,0c0.1,0,0.2,0,0.4,0.2c1,1,1.3,3.9,0.9,4.7
		c-0.2,0.5-0.1,1,0.3,1.4c0.4,0.4,1,0.5,1.6,0.4c3-0.8,6.9-0.3,8.2,2.1c0.3,0.5,0.8,0.8,1.4,0.8c0.1,0,0.2,0,0.4,0
		c0.7-0.1,1.2-0.7,1.2-1.3c0-0.5,0.1-0.9,0.7-1.5c0.1-0.1,0.3-0.3,0.5-0.5c0.2-0.3,0.7-0.8,0.9-0.8c1.2-0.5,3.9-0.1,5.9,0.5
		c0.7,0.2,1.4,0,1.8-0.5C47.6,42.8,47.6,42.1,47.1,41.6z M12.1,39.7c-1.1-0.5-2.4-0.8-3.5-0.9c-0.8-0.1-1.8-0.1-2.7,0
		c0.3-0.5,0.5-1,0.6-1.5c0.2-0.9,0.3-1.9,0.3-2.9c0-0.2,0-0.3-0.1-0.4c0.9,0,1.6-0.1,1.6-0.1c0.5-0.1,1-0.2,1.5-0.4v1.4
		c0,1.5,2.4,2.2,4.9,2.6C13.3,37.9,12.5,38.7,12.1,39.7z M38.3,40.8c-0.9,0.3-1.6,1-2.1,1.6c-0.1,0.1-0.3,0.3-0.4,0.4
		c-0.2,0.2-0.4,0.4-0.6,0.6c-2.1-1.5-5-2-7.7-1.7c0-1.5-0.4-3.2-1.2-4.5c1.7-0.3,3.3-0.8,4-1.6c1.1-0.2,2.1-0.6,3-1.2
		c0.9,1.1,2.1,2.1,3.4,2.5c1.4,0.5,2.6,0.3,3.6,0.1c0.2,1.2,0.7,2.2,0.9,2.5c0.2,0.3,0.4,0.6,0.6,0.9C40.5,40.3,39.3,40.4,38.3,40.8
		z"/>
</g>
</svg>
