<?xml version="1.0" encoding="utf-8"?>
<!-- Generator: Adobe Illustrator 18.0.0, SVG Export Plug-In . SVG Version: 6.00 Build 0)  -->
<!DOCTYPE svg PUBLIC "-//W3C//DTD SVG 1.1//EN" "http://www.w3.org/Graphics/SVG/1.1/DTD/svg11.dtd">
<svg version="1.1" id="Layer_1" xmlns="http://www.w3.org/2000/svg" xmlns:xlink="http://www.w3.org/1999/xlink" x="0px" y="0px"
	 viewBox="0 0 48 48" enable-background="new 0 0 48 48" xml:space="preserve">
<g>
	<path fill="#F7A93B" d="M12.5,14.7c-4.4,0-7.3,8.6-7.3,11.6c0,2.4,1.6,4.5,4,5.6v3H16v-3.2c2.3-1.1,3.7-3.2,3.7-5.5
		C19.7,23.3,16.9,14.7,12.5,14.7z"/>
	<path fill="#F04B36" d="M46,31.7H24.6l-0.4,0.4c-0.1,0.1-2,1.9-3.5,4.1c0,0.1-0.1,0.1-0.1,0.2H4.1c-0.8,0-1.5,0.6-1.5,1.4
		c0,0.8,0.7,1.4,1.5,1.4h15.3c-0.5,2.3-0.4,4.8,1,6.4c1.2,1.2,2.8,1.9,4.5,1.9c0.4,0,0.8,0,1.3-0.1c2.3-0.4,4.3-2,5.1-4.2
		c0.3-0.7-0.1-1.6-0.9-1.8c-0.8-0.3-1.6,0.1-1.9,0.9c-0.4,1.2-1.5,2.1-2.8,2.3c-1.1,0.2-2.2-0.1-2.9-0.9c-1-1-0.7-4.2,0.6-6
		c0.9-1.4,2.1-2.6,2.7-3.2H46c0.8,0,1.5-0.6,1.5-1.4C47.5,32.3,46.8,31.7,46,31.7z"/>
	<path fill="#F04B36" d="M12.5,13.2c-0.8,0-1.5-0.6-1.5-1.4V6.6c0-0.8,0.7-1.4,1.5-1.4c0.8,0,1.5,0.6,1.5,1.4v5.2
		C13.9,12.5,13.3,13.2,12.5,13.2z"/>
	<path fill="#F04B36" d="M18.8,15.6c-0.4,0-0.8-0.2-1.1-0.5c-0.5-0.6-0.5-1.5,0.1-2l4.1-3.4c0.6-0.5,1.6-0.5,2.1,0.1
		c0.5,0.6,0.5,1.5-0.1,2l-4.1,3.4C19.5,15.5,19.2,15.6,18.8,15.6z"/>
	<path fill="#F04B36" d="M6.1,15.6c-0.3,0-0.7-0.1-1-0.4L1,11.8c-0.6-0.5-0.7-1.4-0.1-2C1.4,9.2,2.4,9.1,3,9.7L7,13.1
		c0.6,0.5,0.7,1.4,0.1,2C6.9,15.4,6.5,15.6,6.1,15.6z"/>
	<path fill="#4DA0D8" d="M35.5,10c-4.4,0-7.3,8.6-7.3,11.6c0,2.4,1.6,4.5,4,5.6v3h6.8v-3.2c2.3-1.1,3.7-3.2,3.7-5.5
		C42.8,18.6,40,10,35.5,10z"/>
	<path fill="#0DB89A" d="M35.5,8.5c-0.8,0-1.5-0.6-1.5-1.4V1.9c0-0.8,0.7-1.4,1.5-1.4c0.8,0,1.5,0.6,1.5,1.4v5.2
		C37,7.9,36.4,8.5,35.5,8.5z"/>
	<path fill="#0DB89A" d="M41.9,10.9c-0.4,0-0.8-0.2-1.1-0.5c-0.5-0.6-0.5-1.5,0.1-2L45,5c0.6-0.5,1.6-0.5,2.1,0.1
		c0.5,0.6,0.5,1.5-0.1,2l-4.1,3.4C42.6,10.8,42.3,10.9,41.9,10.9z"/>
	<path fill="#0DB89A" d="M29.1,10.9c-0.3,0-0.7-0.1-1-0.4l-4.1-3.4c-0.6-0.5-0.7-1.4-0.1-2c0.5-0.6,1.5-0.6,2.1-0.1l4.1,3.4
		c0.6,0.5,0.7,1.4,0.1,2C30,10.8,29.6,10.9,29.1,10.9z"/>
</g>
</svg>
