<?xml version="1.0" encoding="utf-8"?>
<!-- Generator: Adobe Illustrator 18.0.0, SVG Export Plug-In . SVG Version: 6.00 Build 0)  -->
<!DOCTYPE svg PUBLIC "-//W3C//DTD SVG 1.1//EN" "http://www.w3.org/Graphics/SVG/1.1/DTD/svg11.dtd">
<svg version="1.1" id="Layer_1" xmlns="http://www.w3.org/2000/svg" xmlns:xlink="http://www.w3.org/1999/xlink" x="0px" y="0px"
	 viewBox="0 0 48 48" enable-background="new 0 0 48 48" xml:space="preserve">
<g>
	<rect x="8.1" y="1.9" fill="#F04B36" width="31.1" height="7.3"/>
	<rect x="8.7" y="12" fill="#06728D" width="29.9" height="24.5"/>
	<path fill="#0DB89A" d="M47.5,47.5l-3.4-40h-0.4c-0.1-0.1-0.2-0.2-0.4-0.3c-2-0.9-3.2-1.9-3.4-2.9c-0.2-0.8,0.5-1.5,0.5-1.5
		c0.4-0.4,0.5-1,0.3-1.5c-0.2-0.5-0.8-0.8-1.4-0.8H7.8c-0.6,0-1.1,0.3-1.3,0.7c-0.3,0.5-0.2,1,0.1,1.4c0,0,0.5,0.7,0.4,1.7
		c-0.2,1-1,2-2.5,2.9C4.3,7.3,4.2,7.4,4.2,7.5H3.9l0,0.6c-0.1,0.2-0.1,0.4,0,0.5L0.5,47.5H47.5z M23.9,34c-7.4,0-13.2-8.2-13.2-18.8
		c0-0.7,0.7-1.3,1.5-1.3c0.8,0,1.5,0.6,1.5,1.3c0,8.7,4.7,16.1,10.2,16.1c5.5,0,10.2-7.4,10.2-16.1c0-0.7,0.7-1.3,1.5-1.3
		c0.8,0,1.5,0.6,1.5,1.3C37.1,25.7,31.3,34,23.9,34z M9.9,4.8c0.1-0.6,0.1-1.1,0-1.6H37c-0.1,0.5-0.1,1,0,1.5c0.2,1,0.7,1.9,1.6,2.7
		H8.6C9.3,6.6,9.7,5.7,9.9,4.8z"/>
</g>
</svg>
