<?xml version="1.0" encoding="utf-8"?>
<!-- Generator: Adobe Illustrator 18.0.0, SVG Export Plug-In . SVG Version: 6.00 Build 0)  -->
<!DOCTYPE svg PUBLIC "-//W3C//DTD SVG 1.1//EN" "http://www.w3.org/Graphics/SVG/1.1/DTD/svg11.dtd">
<svg version="1.1" id="Layer_1" xmlns="http://www.w3.org/2000/svg" xmlns:xlink="http://www.w3.org/1999/xlink" x="0px" y="0px"
	 viewBox="0 0 48 48" enable-background="new 0 0 48 48" xml:space="preserve">
<g>
	<path fill="#4DA0D8" d="M36,39.5H12c-2.3,0-4.1-1.8-4.1-4.1V4.6c0-2.3,1.8-4.1,4.1-4.1H36c2.3,0,4.1,1.8,4.1,4.1v30.9
		C40.1,37.7,38.3,39.5,36,39.5z"/>
	<path fill="#F04B36" d="M34.2,14.6c0-0.5-0.4-0.8-0.9-0.8h-1.1l1.2-1.2c0.3-0.3,0.3-0.9-0.1-1.2c-0.4-0.3-0.9-0.3-1.2,0.1l-2.2,2.3
		h-2.4c-0.3-1.3-1.4-2.3-2.7-2.6V8.9l2.4-2.1c0.4-0.3,0.4-0.8,0.1-1.2c-0.3-0.3-0.9-0.4-1.2-0.1l-1.3,1.1V5.6c0-0.5-0.4-0.8-0.9-0.8
		c-0.5,0-0.9,0.4-0.9,0.8v1.1l-1.3-1.1c-0.4-0.3-0.9-0.3-1.2,0.1c-0.3,0.3-0.3,0.9,0.1,1.2l2.4,2.1v2.3c-1.3,0.3-2.3,1.3-2.7,2.6
		h-2.4l-2.2-2.3c-0.3-0.3-0.9-0.4-1.2-0.1c-0.4,0.3-0.4,0.8-0.1,1.2l1.2,1.2h-1.1c-0.5,0-0.9,0.4-0.9,0.8c0,0.5,0.4,0.8,0.9,0.8h1.1
		l-1.2,1.2c-0.3,0.3-0.3,0.9,0.1,1.2c0.2,0.1,0.4,0.2,0.6,0.2c0.2,0,0.5-0.1,0.6-0.3l2.2-2.3h2.4c0.3,1.3,1.4,2.3,2.7,2.6v2.3
		l-2.4,2.1c-0.4,0.3-0.4,0.8-0.1,1.2c0.2,0.2,0.4,0.3,0.6,0.3c0.2,0,0.4-0.1,0.6-0.2l1.3-1.1v1.1c0,0.5,0.4,0.8,0.9,0.8
		c0.5,0,0.9-0.4,0.9-0.8v-1.1l1.3,1.1c0.2,0.1,0.4,0.2,0.6,0.2c0.2,0,0.5-0.1,0.6-0.3c0.3-0.3,0.3-0.9-0.1-1.2l-2.4-2.1V18
		c1.3-0.3,2.3-1.3,2.7-2.6h2.4l2.2,2.3c0.2,0.2,0.4,0.3,0.6,0.3c0.2,0,0.4-0.1,0.6-0.2c0.4-0.3,0.4-0.8,0.1-1.2l-1.2-1.2h1.1
		C33.8,15.4,34.2,15,34.2,14.6z"/>
	<path fill="#E77528" d="M46.2,14.6c-0.9-0.9-2.1-1.5-3.5-1.5h-1.5v6L46.2,14.6z"/>
	<path fill="#E77528" d="M5.4,13.1c-1.4,0-2.7,0.6-3.6,1.5l5.1,4.6v-6.2H5.4z"/>
	<path fill="#F7A93B" d="M24.4,36.9c-0.2,0.2-0.5,0.3-0.8,0.3c-0.3,0-0.6-0.1-0.8-0.3L0.7,16.6c-0.1,0.4-0.2,0.8-0.2,1.2v25
		c0,2.6,2.2,4.7,4.9,4.7h37.3c2.7,0,4.9-2.1,4.9-4.7v-25c0-0.4-0.1-0.8-0.2-1.2L24.4,36.9z"/>
</g>
</svg>
