<?xml version="1.0" encoding="utf-8"?>
<!-- Generator: Adobe Illustrator 18.0.0, SVG Export Plug-In . SVG Version: 6.00 Build 0)  -->
<!DOCTYPE svg PUBLIC "-//W3C//DTD SVG 1.1//EN" "http://www.w3.org/Graphics/SVG/1.1/DTD/svg11.dtd">
<svg version="1.1" id="Layer_1" xmlns="http://www.w3.org/2000/svg" xmlns:xlink="http://www.w3.org/1999/xlink" x="0px" y="0px"
	 viewBox="0 0 48 48" enable-background="new 0 0 48 48" xml:space="preserve">
<g>
	<path fill="#FFD69A" d="M41.3,4.9h-4.3v0h-2.9v0H13.9v0h-2.9v0H6.7c-3.4,0-6.2,3-6.2,6.7v29.2c0,3.7,2.8,6.7,6.2,6.7h34.7
		c3.4,0,6.2-3,6.2-6.7V11.6C47.5,7.9,44.7,4.9,41.3,4.9z"/>
	<path fill="#0DB89A" d="M36.9,37.5c-0.2,0.4-0.5,0.6-0.9,0.6H28v4.6c0,0.5-0.4,1-1,1h-6c-0.5,0-1-0.4-1-1v-4.6H12
		c-0.4,0-0.7-0.2-0.9-0.6c-0.2-0.4-0.1-0.8,0.2-1l5.9-6.7H14c-0.4,0-0.7-0.2-0.9-0.6c-0.2-0.3-0.1-0.7,0.1-1l6-7.4h-1.8
		c-0.4,0-0.8-0.2-0.9-0.6c-0.1-0.4-0.1-0.8,0.2-1.1l6.6-6.2c0.4-0.4,1-0.4,1.3,0l6.5,6.1c0.3,0.2,0.4,0.5,0.4,0.8c0,0.5-0.4,1-1,1
		c0,0,0,0,0,0h-1.8l5.9,7.3c0.2,0.2,0.3,0.4,0.3,0.7c0,0.5-0.4,1-1,1c0,0,0,0,0,0h-3.2l5.9,6.7C37,36.7,37.1,37.1,36.9,37.5z"/>
	<path fill="#06728D" d="M13.8,1"/>
	<g>
		<path fill="#06728D" d="M12.7,8.5L12.7,8.5c-1.1,0-2-0.9-2-2v-4c0-1.1,0.9-2,2-2l0,0c1.1,0,2,0.9,2,2v4
			C14.7,7.6,13.8,8.5,12.7,8.5z"/>
		<path fill="#06728D" d="M35.3,8.5L35.3,8.5c-1.1,0-2-0.9-2-2v-4c0-1.1,0.9-2,2-2l0,0c1.1,0,2,0.9,2,2v4
			C37.2,7.6,36.3,8.5,35.3,8.5z"/>
	</g>
</g>
</svg>
