<?xml version="1.0" encoding="utf-8"?>
<!-- Generator: Adobe Illustrator 18.0.0, SVG Export Plug-In . SVG Version: 6.00 Build 0)  -->
<!DOCTYPE svg PUBLIC "-//W3C//DTD SVG 1.1//EN" "http://www.w3.org/Graphics/SVG/1.1/DTD/svg11.dtd">
<svg version="1.1" id="Layer_1" xmlns="http://www.w3.org/2000/svg" xmlns:xlink="http://www.w3.org/1999/xlink" x="0px" y="0px"
	 viewBox="0 0 48 48" enable-background="new 0 0 48 48" xml:space="preserve">
<g>
	<path fill="#4DA0D8" d="M45.6,16.4c-2.1-2.6-5.5-4.7-8.5-3.1c-1.3,0.7-2.4,2.4-3,3.8c-0.2,0.4-0.2,0.9-0.3,1.5
		c-0.1,0.7-0.3,2.1-0.7,2.4c0,0,0,0-0.1,0c-0.1,0-0.4-0.6-0.5-1c-0.4-0.8-0.9-2-2.1-2.4c-1.2-0.3-2.2-0.2-2.9,0.3
		c-0.5,0.4-1.1,1.1-1.3,2.5c-0.1,1.3,0.3,2.8,0.8,4.3c0.7,2.1,1.3,4.1,0.3,5.3l10.7,8.1c0.1-0.1,0.3-0.2,0.4-0.3
		c1-1.6,2.2-2.9,3.5-4.2c1.4-1.5,2.9-3,4-4.9C47.8,25.1,48.4,19.7,45.6,16.4z"/>
	<path fill="#4DA0D8" d="M38.4,41.4c-0.1-0.7-0.5-1.3-1-1.8l-0.3-0.2l-10.7-8.1l-0.1-0.1c-1.1-0.9-2.9-0.6-3.7,0.6l-2.1,3
		c-0.9,1.2-0.6,2.9,0.6,3.8L32.1,47c0.5,0.3,1,0.5,1.6,0.5c0.8,0,1.6-0.4,2.1-1.1l2.1-3C38.4,42.8,38.5,42.1,38.4,41.4z"/>
	<path fill="#F04B36" d="M3.2,3.3C5.7,1,9.3-0.6,12.1,1.4c1.2,0.9,2.1,2.7,2.5,4.2c0.1,0.4,0.1,0.9,0.1,1.5c0,0.7,0.1,2.1,0.4,2.4
		c0,0,0,0,0.1,0c0.1,0,0.5-0.6,0.7-0.9c0.5-0.8,1.1-1.9,2.4-2c1.2-0.2,2.2,0.1,2.9,0.7c0.5,0.4,1,1.2,0.9,2.7c0,1.3-0.7,2.7-1.4,4.2
		c-0.9,2-1.8,3.9-1,5.2L8,25.9c-0.1-0.1-0.2-0.2-0.3-0.4c-0.8-1.7-1.8-3.2-2.9-4.7c-1.2-1.7-2.4-3.4-3.3-5.4
		C-0.1,11.6,0,6.2,3.2,3.3z"/>
	<path fill="#F04B36" d="M7,29.1c0.2-0.7,0.7-1.3,1.3-1.6l0.4-0.2l11.7-6.5l0.1-0.1c1.2-0.7,2.9-0.2,3.6,1.1l1.7,3.2
		c0.7,1.3,0.2,3-1.1,3.7l-12.2,6.7c-0.5,0.3-1.1,0.4-1.6,0.3c-0.8-0.1-1.6-0.6-2-1.4l-1.7-3.2C6.8,30.5,6.8,29.8,7,29.1z"/>
</g>
</svg>
