<?xml version="1.0" encoding="utf-8"?>
<!-- Generator: Adobe Illustrator 18.0.0, SVG Export Plug-In . SVG Version: 6.00 Build 0)  -->
<!DOCTYPE svg PUBLIC "-//W3C//DTD SVG 1.1//EN" "http://www.w3.org/Graphics/SVG/1.1/DTD/svg11.dtd">
<svg version="1.1" id="Layer_1" xmlns="http://www.w3.org/2000/svg" xmlns:xlink="http://www.w3.org/1999/xlink" x="0px" y="0px"
	 viewBox="0 0 48 48" enable-background="new 0 0 48 48" xml:space="preserve">
<g>
	<path fill="#F7A93B" d="M6.4,46.6c0,0.5,0.4,0.9,1,0.9h11.1v-10c0-3.2,2.5-5.8,5.5-5.8c3.1,0,5.5,2.6,5.5,5.8v10h11.1
		c0.5,0,1-0.4,1-0.9V29.7H6.4V46.6z M33.9,34.9c0-0.5,0.4-0.9,1-0.9c0.5,0,1,0.4,1,0.9v4.4c0,0.5-0.4,0.9-1,0.9c-0.5,0-1-0.4-1-0.9
		V34.9z M12.8,34.9c0-0.5,0.4-0.9,1-0.9c0.5,0,1,0.4,1,0.9v4.4c0,0.5-0.4,0.9-1,0.9c-0.5,0-1-0.4-1-0.9V34.9z"/>
	<path fill="#F04B36" d="M47.4,26.6L39.8,6.3c-0.1-0.4-0.5-0.6-0.9-0.6H28.8V2.4h2.1c0.5,0,1-0.4,1-0.9s-0.4-0.9-1-0.9h-6.1
		c-0.5,0-1,0.4-1,0.9s0.4,0.9,1,0.9h2.1v3.3H9c-0.4,0-0.8,0.2-0.9,0.6L0.6,26.7c-0.1,0.3-0.1,0.6,0.1,0.9C0.9,27.8,1.2,28,1.5,28
		h4.9h35.3h4.9c0,0,0,0,0,0c0.5,0,1-0.4,1-0.9C47.5,26.9,47.4,26.7,47.4,26.6z M9.6,9.9c0.5,0,0.9,0.4,0.9,0.8
		c0,1.5,1.2,2.8,2.7,2.8c1.5,0,2.7-1.2,2.7-2.8c0-0.5,0.4-0.8,0.9-0.8c0.5,0,0.9,0.4,0.9,0.8c0,1.5,1.2,2.8,2.7,2.8
		c1.5,0,2.7-1.2,2.7-2.8c0-0.5,0.4-0.8,0.9-0.8s0.9,0.4,0.9,0.8c0,1.5,1.2,2.8,2.7,2.8c1.5,0,2.7-1.2,2.7-2.8c0-0.5,0.4-0.8,0.9-0.8
		c0.5,0,0.9,0.4,0.9,0.8c0,1.5,1.2,2.8,2.7,2.8c1.5,0,2.7-1.2,2.7-2.8c0-0.5,0.4-0.8,0.9-0.8c0.5,0,0.9,0.4,0.9,0.8
		c0,2.5-2,4.5-4.5,4.5c-1.5,0-2.8-0.7-3.6-1.8c-0.8,1.1-2.1,1.8-3.6,1.8c-1.5,0-2.8-0.7-3.6-1.8c-0.8,1.1-2.1,1.8-3.6,1.8
		c-1.5,0-2.8-0.7-3.6-1.8c-0.8,1.1-2.1,1.8-3.6,1.8c-2.5,0-4.5-2-4.5-4.5C8.7,10.3,9.1,9.9,9.6,9.9z M37,22.7
		c-1.8,0-3.4-0.9-4.3-2.3c-0.9,1.4-2.5,2.3-4.3,2.3c-1.8,0-3.4-0.9-4.3-2.3c-0.9,1.4-2.5,2.3-4.3,2.3c-1.8,0-3.4-0.9-4.3-2.3
		c-0.9,1.4-2.5,2.3-4.3,2.3c-2.9,0-5.2-2.3-5.2-5.2c0-0.5,0.4-0.8,0.9-0.8c0.5,0,0.9,0.4,0.9,0.8c0,1.9,1.5,3.5,3.5,3.5
		c1.9,0,3.5-1.6,3.5-3.5c0-0.5,0.4-0.8,0.9-0.8c0.5,0,0.9,0.4,0.9,0.8c0,1.9,1.5,3.5,3.5,3.5c1.9,0,3.5-1.6,3.5-3.5
		c0-0.5,0.4-0.8,0.9-0.8s0.9,0.4,0.9,0.8c0,1.9,1.5,3.5,3.5,3.5c1.9,0,3.5-1.6,3.5-3.5c0-0.5,0.4-0.8,0.9-0.8c0.5,0,0.9,0.4,0.9,0.8
		c0,1.9,1.5,3.5,3.5,3.5c1.9,0,3.5-1.6,3.5-3.5c0-0.5,0.4-0.8,0.9-0.8c0.5,0,0.9,0.4,0.9,0.8C42.2,20.4,39.9,22.7,37,22.7z"/>
</g>
</svg>
