<?xml version="1.0" encoding="utf-8"?>
<!-- Generator: Adobe Illustrator 18.0.0, SVG Export Plug-In . SVG Version: 6.00 Build 0)  -->
<!DOCTYPE svg PUBLIC "-//W3C//DTD SVG 1.1//EN" "http://www.w3.org/Graphics/SVG/1.1/DTD/svg11.dtd">
<svg version="1.1" id="Layer_1" xmlns="http://www.w3.org/2000/svg" xmlns:xlink="http://www.w3.org/1999/xlink" x="0px" y="0px"
	 viewBox="0 0 48 48" enable-background="new 0 0 48 48" xml:space="preserve">
<g>
	<path fill="#06728D" d="M37.1,18.9c0.7-0.1,1.2-0.3,1.7-0.4c1.6-0.1,3.4,0,4.8,1c1.4,1,2.1,2.9,2.1,5.6c0,0.6,0.4,1,1,1
		c0,0,0,0,0,0c0.5,0,1-0.4,1-1c0-3.3-0.9-5.8-2.9-7.2c-1.9-1.4-4.2-1.6-6.2-1.4c-0.2,0-0.5,0-0.8,0.1c-1.2,0.2-2.2,0.5-2.5,0.6
		c-2.5,0.3-5.7,0.5-7.7,0.5c-3.1,0.7-2.2,0.5-2.5,0.3c-0.1-0.1-0.1-0.2-0.3-0.3c-1.1-0.8-1.9-4.8-2.2-7.5C20.9,0.6,9.2,0.5,9.1,0.5
		h0c-0.3,0-0.6,0.1-0.8,0.4C8.1,1.1,8.1,1.4,8.1,1.7c0.7,3.2-4.9,6.7-7.1,7.8c-0.3,0.1-0.5,0.4-0.5,0.7c-0.1,0.3,0,0.6,0.2,0.9
		l3.1,3.8c0.2,0.2,0.4,0.3,0.7,0.4c0.3,0,0.5-0.1,0.7-0.3c2.8-3,8.7,1.3,8.8,1.4c0.3,0.3,0.7,2.2,0.9,3.8c0,2.1-0.7,4.6-2.1,7.5
		c-0.1,0.2-0.2,0.4-0.3,0.6c-1,2-2.2,3.9-3.3,5.4c-2.3-1.9-3.7-3.6-3.9-3.9C5,29.4,4.4,29.3,4,29.7c-0.4,0.4-0.5,1-0.1,1.4
		c0,0.1,1.6,2,4.3,4.1c-1,1.4-1.9,2.4-2.1,2.7c-2.2-2-3.6-3.6-3.7-3.8c-0.3-0.4-0.9-0.5-1.4-0.1c-0.4,0.4-0.5,1-0.1,1.4
		c0.1,0.2,9.7,12.2,24.4,12.2c4.6,0,9.7-1.2,15.2-4.3c0,0,0,0,0,0c0,0,0,0,0,0c2-1.1,4-2.5,6.1-4.1c0.4-0.3,0.5-1,0.2-1.4
		c-0.3-0.4-0.9-0.5-1.4-0.2c-1.6,1.3-3.2,2.4-4.8,3.3c-0.5-1.3-1-2.4-1.5-3.5c1.4-0.9,2.9-1.8,4.3-3c0.4-0.3,0.5-1,0.2-1.4
		c-0.3-0.4-0.9-0.5-1.4-0.2c-1.3,1.1-2.7,2-4,2.8c-0.3-0.6-0.7-1.5-1.4-2.4c-0.4-1.4-0.8-3-1.2-4.8c-1-4-0.8-6.9,0.4-8.5
		C36.4,19.4,36.7,19.1,37.1,18.9z M37.3,38.4c0.5,1.1,1,2.2,1.5,3.5c-14,7.5-25.2,2.1-31.3-2.7c0.4-0.4,1.2-1.4,2.2-2.7
		c3.7,2.6,8.9,5.2,15.3,5.2C28.7,41.6,32.9,40.7,37.3,38.4z M36.2,36.7c-11.1,5.7-20,2-25.4-1.8c1.1-1.6,2.4-3.6,3.5-5.7
		c0.1-0.1,0.1-0.3,0.2-0.4c12.4-2.3,18.1,1.8,20.5,5C35.3,34.9,35.7,35.9,36.2,36.7z"/>
	<path fill="#4DA0D8" d="M3.9,14.9c0.2,0.2,0.4,0.3,0.7,0.4c0.3,0,0.5-0.1,0.7-0.3c2.8-3,8.7,1.3,8.8,1.4c0.3,0.3,0.7,2.2,0.9,3.8
		c0,2.1-0.7,4.6-2.1,7.5c-0.1,0.2-0.2,0.4-0.3,0.6c-1,1.9-2.1,3.6-3.1,5.2c0.5,0.4,1,0.9,1.5,1.2c1.1-1.6,2.3-3.5,3.3-5.5
		c0.1-0.1,0.1-0.3,0.2-0.4c12.4-2.3,18.1,1.8,20.5,5c0.3,1,0.6,1.9,1,2.6c0.7-0.3,1.4-0.5,2.1-1c-0.3-0.6-0.7-1.4-1.3-2.3
		c-0.4-1.4-0.8-3-1.2-4.8c-1-4-0.8-6.9,0.4-8.5c0.3-0.4,0.7-0.7,1-0.9c0.7-0.1,1.2-0.3,1.7-0.4c1.6-0.1,3.4,0,4.8,1
		c1.4,1,2.1,2.9,2.1,5.6c0,0.6,0.4,1,1,1h0c0.5,0,1-0.4,1-1c0-3.3-0.9-5.8-2.9-7.2c-1.9-1.4-4.2-1.6-6.2-1.4c-0.2,0-0.5,0-0.8,0.1
		c-1.2,0.2-2.2,0.5-2.5,0.6c-2.5,0.3-5.7,0.5-7.7,0.5c-3.1,0.7-2.2,0.5-2.5,0.3c-0.1-0.1-0.1-0.2-0.3-0.3c-1.1-0.8-1.9-4.8-2.2-7.5
		C20.9,0.6,9.2,0.5,9.1,0.5h0c-0.3,0-0.6,0.1-0.8,0.4C8.1,1.1,8.1,1.4,8.1,1.7c0.7,3.2-4.9,6.7-7.1,7.8c-0.3,0.1-0.5,0.4-0.5,0.7
		c-0.1,0.3,0,0.6,0.2,0.9L3.9,14.9z"/>
</g>
</svg>
