<?xml version="1.0" encoding="utf-8"?>
<!-- Generator: Adobe Illustrator 18.0.0, SVG Export Plug-In . SVG Version: 6.00 Build 0)  -->
<!DOCTYPE svg PUBLIC "-//W3C//DTD SVG 1.1//EN" "http://www.w3.org/Graphics/SVG/1.1/DTD/svg11.dtd">
<svg version="1.1" id="Layer_1" xmlns="http://www.w3.org/2000/svg" xmlns:xlink="http://www.w3.org/1999/xlink" x="0px" y="0px"
	 viewBox="0 0 48 48" enable-background="new 0 0 48 48" xml:space="preserve">
<g>
	<path fill="none" d="M24.8,11.5l5.8,0.6c0,0,0.1,0,0.1,0c0.5,0,0.9-0.4,1-0.9c0.1-0.5-0.3-1-0.9-1.1L25,9.6c-0.5,0-1,0.3-1.1,0.9
		C23.9,11,24.3,11.5,24.8,11.5z"/>
	<path fill="none" d="M30.2,17.2L25.2,16c-0.5-0.1-1,0.2-1.2,0.7c-0.1,0.5,0.2,1,0.7,1.2l5.1,1.2c0.1,0,0.2,0,0.2,0
		c0.4,0,0.8-0.3,0.9-0.7C31.1,17.9,30.8,17.3,30.2,17.2z"/>
	<path fill="none" d="M12.6,33.5c0.5,0,1-0.4,1-1v-2.7c0-0.5-0.4-1-1-1c-0.5,0-1,0.4-1,1v2.7C11.6,33.1,12,33.5,12.6,33.5z"/>
	<path fill="none" d="M19.5,31c0.2,0.3,0.5,0.4,0.8,0.4c0.2,0,0.4-0.1,0.6-0.2c0.4-0.3,0.5-0.9,0.2-1.4L19,27
		c-0.3-0.4-0.9-0.5-1.4-0.2c-0.4,0.3-0.5,0.9-0.2,1.4L19.5,31z"/>
	<path fill="none" d="M21.8,24l4.3,2.5c0.2,0.1,0.3,0.1,0.5,0.1c0.3,0,0.7-0.2,0.8-0.5c0.3-0.5,0.1-1.1-0.3-1.3l-4.3-2.5
		c-0.5-0.3-1.1-0.1-1.3,0.3C21.1,23.1,21.3,23.7,21.8,24z"/>
	<path fill="#F04B36" d="M46.5,45.6h-8.1v-4.7l2.5-0.2c0.1,0,0.2,0,0.3,0l-7,0.5l0,0l2.4-0.2v4.6H15.6v-5.3c0-0.1,0-0.2-0.1-0.3
		L13.7,40c0,0.1,0,0.2,0,0.2v5.3H7.8c-2.1,0-3.6-0.5-4.4-1.6c-1.3-1.6-0.9-4-0.9-4.1c0-0.2,0-0.4-0.1-0.6c0,0,0,0,0,0l-0.6-0.6
		c0,0,0.1,0.1,0.1,0.1c-0.1,0-0.1-0.1-0.2-0.1c-0.5-0.1-1,0.2-1.1,0.8c0,0.1-0.7,3.3,1.2,5.7c1.3,1.5,3.3,2.3,5.9,2.3h38.7
		c0.5,0,1-0.4,1-1C47.5,46,47.1,45.6,46.5,45.6z"/>
	<path fill="#F7A93B" d="M2.9,39.7c0.1,0.1,0.3,0.2,0.5,0.2c0.1,0,2.6,0.2,6.6,0.2c1.3,0,2.5,0,3.8-0.1c0,0,0,0,0,0l1.8-0.1
		c0,0,0,0,0,0c0.4,0,0.9,0,1.3-0.1c6-0.4,12-3.1,14.6-4.3l0.7,4.9c0.1,0.5,0.5,0.8,1,0.8c0,0,0,0,0.1,0l1-0.1l0,0l7-0.5
		c0.1,0,0.2,0,0.2-0.1c0.4-0.2,0.6-0.7,0.5-1.1c0-0.1-0.1-0.2-0.1-0.2c0-0.4,0.2-1.6,1.3-5.1c1.9-6.3,1.2-11.2-2.3-15.2
		c-2.2-2.5-0.2-9,0.8-11.4c0.1-0.3,0.1-0.6,0-0.8C39.3,2.6,35,0.5,29,0.5c-4.2,0-7.6,1-7.8,1.1c-0.5,0.1-0.8,0.6-0.7,1.1
		c0,0.1,2.2,12.1,0.7,17.5c-1.1,4-5.2,5.6-10.8,7.9c-1.6,0.6-3.2,1.3-5,2.1c-3.1,1.4-4.8,3-5,5c-0.2,1.6,0.6,2.9,1.4,3.7l0.6,0.6
		C2.7,39.5,2.9,39.6,2.9,39.7z M31,18.4c-0.1,0.4-0.5,0.7-0.9,0.7c-0.1,0-0.2,0-0.2,0l-5.1-1.2c-0.5-0.1-0.8-0.7-0.7-1.2
		c0.1-0.5,0.6-0.8,1.2-0.7l5.1,1.2C30.8,17.3,31.1,17.9,31,18.4z M25,9.6l5.8,0.6c0.5,0.1,0.9,0.5,0.9,1.1c0,0.5-0.5,0.9-1,0.9
		c0,0-0.1,0-0.1,0l-5.8-0.6c-0.5-0.1-0.9-0.5-0.9-1.1C24,9.9,24.5,9.5,25,9.6z M21.4,22.6c0.3-0.5,0.9-0.6,1.3-0.3l4.3,2.5
		c0.5,0.3,0.6,0.9,0.3,1.3c-0.2,0.3-0.5,0.5-0.8,0.5c-0.2,0-0.3,0-0.5-0.1L21.8,24C21.3,23.7,21.1,23.1,21.4,22.6z M17.7,26.8
		c0.4-0.3,1-0.2,1.4,0.2l2.1,2.8c0.3,0.4,0.2,1-0.2,1.4c-0.2,0.1-0.4,0.2-0.6,0.2c-0.3,0-0.6-0.1-0.8-0.4l-2.1-2.8
		C17.2,27.7,17.3,27.1,17.7,26.8z M11.6,29.8c0-0.5,0.4-1,1-1c0.5,0,1,0.4,1,1v2.7c0,0.5-0.4,1-1,1c-0.5,0-1-0.4-1-1V29.8z"/>
</g>
</svg>
