<?xml version="1.0" encoding="utf-8"?>
<!-- Generator: Adobe Illustrator 18.0.0, SVG Export Plug-In . SVG Version: 6.00 Build 0)  -->
<!DOCTYPE svg PUBLIC "-//W3C//DTD SVG 1.1//EN" "http://www.w3.org/Graphics/SVG/1.1/DTD/svg11.dtd">
<svg version="1.1" id="Layer_1" xmlns="http://www.w3.org/2000/svg" xmlns:xlink="http://www.w3.org/1999/xlink" x="0px" y="0px"
	 viewBox="0 0 48 48" enable-background="new 0 0 48 48" xml:space="preserve">
<g>
	<path fill="#06728D" d="M39.5,13.3V1.5c0-0.5-0.4-1-1-1h-6c-0.5,0-1,0.4-1,1v11.9c-4.8,5-4.8,6.2-4.8,6.7v22.9c0,2.5,2,4.6,4.6,4.6
		h8.4c2.5,0,4.6-2,4.6-4.6V20.1C44.3,19.5,44.3,18.3,39.5,13.3z"/>
	<path fill="#E77528" d="M16,45.5h-3.1v-8.1c0-0.5-0.4-1-1-1c-0.5,0-1,0.4-1,1v8.1H7.8c-0.5,0-1,0.4-1,1s0.4,1,1,1H16
		c0.5,0,1-0.4,1-1S16.5,45.5,16,45.5z"/>
	<path fill="#4DA0D8" d="M20,22.2v-6.1c0-0.5-0.4-1-1-1H4.7c-0.5,0-1,0.4-1,1v6.1H20z"/>
	<path fill="#E77528" d="M3.7,24.2v4.6c0,4.5,3.7,8.1,8.1,8.1c4.5,0,8.1-3.7,8.1-8.1v-4.6H3.7z"/>
</g>
</svg>
