<?xml version="1.0" encoding="utf-8"?>
<!-- Generator: Adobe Illustrator 18.0.0, SVG Export Plug-In . SVG Version: 6.00 Build 0)  -->
<!DOCTYPE svg PUBLIC "-//W3C//DTD SVG 1.1//EN" "http://www.w3.org/Graphics/SVG/1.1/DTD/svg11.dtd">
<svg version="1.1" id="Layer_1" xmlns="http://www.w3.org/2000/svg" xmlns:xlink="http://www.w3.org/1999/xlink" x="0px" y="0px"
	 viewBox="0 0 48 48" enable-background="new 0 0 48 48" xml:space="preserve">
<g>
	<path fill="#F7A93B" d="M43.8,10.2c-0.7,0-1.3,0.6-1.3,1.4v28.9c0,0.2-0.2,0.5-0.7,0.9l-4.7-9.8V15.8c0-0.8-0.6-1.4-1.3-1.4
		c-0.7,0-1.3,0.6-1.3,1.4v15.8l-5,12.4l-4.9-12.4V17.2c0-0.8-0.6-1.4-1.3-1.4c-0.7,0-1.3,0.6-1.3,1.4v14.4l-4.8,11.9l-4.8-11.9V15.8
		c0-0.8-0.6-1.4-1.3-1.4c-0.7,0-1.3,0.6-1.3,1.4v15.7l-4.2,8.8V11.6c0-0.8-0.6-1.4-1.3-1.4c-0.7,0-1.3,0.6-1.3,1.4v28.9
		c0,1.3,0.8,2.4,2.2,3.3C5,43.9,5.1,43.9,5.2,44c0,0,0,0,0,0c3.8,2.4,11.5,3.5,18.8,3.5c10.2,0,21.2-2.2,21.2-7V11.6
		C45.2,10.8,44.6,10.2,43.8,10.2z M39.4,42.6c-1.7,0.6-4.1,1.2-7.1,1.7l3.6-9L39.4,42.6z M10.9,35.2l3.5,8.8
		c-3.1-0.5-5.4-1.2-6.9-1.9L10.9,35.2z M19.6,44.6l3.6-9.1l3.6,9.1c-0.9,0-1.9,0.1-2.9,0.1C22.4,44.7,21,44.7,19.6,44.6z"/>
	<path fill="#0DB89A" d="M39.8,7l-11.9,5.8c-0.3,0.1-0.5,0.2-0.8,0.2c-0.7,0-1.4-0.4-1.7-1.1c-0.2-0.5-0.2-1-0.1-1.5
		c0.2-0.5,0.5-0.9,1-1.1l7.4-3.6c-3-0.5-6.4-0.7-9.8-0.7c-3.3,0-6.7,0.2-9.7,0.7l9.7,4.7c0.5,0.2,0.8,0.6,1,1.1
		c0.2,0.5,0.1,1-0.1,1.5c-0.3,0.7-1,1.1-1.7,1.1c-0.3,0-0.6-0.1-0.8-0.2L8.1,7c-3.3,1.1-5.5,2.7-5.5,4.6c0,4.4,10.7,6.7,21.3,6.7
		c10.6,0,21.3-2.3,21.3-6.7C45.2,9.6,43.1,8.1,39.8,7z"/>
	<path fill="#F04B36" d="M23.5,11.1L2,0.6c-0.5-0.2-1.1,0-1.4,0.5c-0.2,0.5,0,1.1,0.5,1.4L22.6,13c0.1,0.1,0.3,0.1,0.4,0.1
		c0.4,0,0.7-0.2,0.9-0.6C24.2,12,24,11.4,23.5,11.1z"/>
	<path fill="#294E58" d="M47.4,1.1c-0.2-0.5-0.8-0.7-1.4-0.5L26.7,10c-0.5,0.2-0.7,0.9-0.5,1.4c0.2,0.4,0.5,0.6,0.9,0.6
		c0.1,0,0.3,0,0.4-0.1l19.4-9.4C47.4,2.2,47.6,1.6,47.4,1.1z"/>
</g>
</svg>
