<?xml version="1.0" encoding="utf-8"?>
<!-- Generator: Adobe Illustrator 18.0.0, SVG Export Plug-In . SVG Version: 6.00 Build 0)  -->
<!DOCTYPE svg PUBLIC "-//W3C//DTD SVG 1.1//EN" "http://www.w3.org/Graphics/SVG/1.1/DTD/svg11.dtd">
<svg version="1.1" id="Layer_1" xmlns="http://www.w3.org/2000/svg" xmlns:xlink="http://www.w3.org/1999/xlink" x="0px" y="0px"
	 viewBox="0 0 48 48" enable-background="new 0 0 48 48" xml:space="preserve">
<g>
	<path fill="#4DA0D8" d="M24,11.6c-0.6,0-1,0.4-1,1V28l-2.5-2.1c-0.2-0.2-0.5-0.3-0.8-0.2c-0.3,0-0.5,0.2-0.7,0.4l-1.2,1.7V13.3
		c0-0.5-0.4-1-1-1c-0.6,0-1,0.4-1,1v17.6c0,0.4,0.3,0.8,0.7,0.9c0.1,0,0.2,0,0.3,0c0.3,0,0.6-0.2,0.8-0.4l2.4-3.4l3.3,2.7
		c0.3,0.2,0.7,0.3,1.1,0.1c0.4-0.2,0.6-0.5,0.6-0.9V12.6C25,12,24.6,11.6,24,11.6z"/>
	<path fill="#0DB89A" d="M34.9,14.4c-0.6,0-1,0.4-1,1V28l-2.5-2.1c-0.2-0.2-0.5-0.3-0.8-0.2c-0.3,0-0.5,0.2-0.7,0.4l-1.2,1.7V11.1
		c0-0.5-0.4-1-1-1c-0.6,0-1,0.4-1,1v19.8c0,0.4,0.3,0.8,0.7,0.9c0.1,0,0.2,0,0.3,0c0.3,0,0.6-0.2,0.8-0.4l2.4-3.4l3.3,2.7
		c0.3,0.2,0.7,0.3,1.1,0.1c0.4-0.2,0.6-0.5,0.6-0.9V15.3C35.9,14.8,35.4,14.4,34.9,14.4z"/>
	<path fill="#06728D" d="M41.8,10c-0.1,0.3-0.3,0.7-0.4,1c-0.7,1.5-1.8,4-4.7,4c-0.3,0-0.5,0-0.8-0.1c2.4,2.7,3.8,6.2,3.8,9.8
		c0,8.3-7,15.1-15.6,15.1c-8.6,0-15.6-6.8-15.6-15.1c0-3.6,1.4-7.2,3.8-9.9c-0.1,0-0.2,0-0.2,0.1c-0.3,0-0.6,0.1-0.9,0.1
		c-2.9,0-4-2.5-4.7-4c-0.1-0.3-0.2-0.6-0.4-0.9c-3.6,4.1-5.5,9.2-5.5,14.6C0.5,37.3,11,47.5,24,47.5c13,0,23.5-10.2,23.5-22.7
		C47.5,19.3,45.5,14.1,41.8,10z M4.2,25.6c-0.9,0-1.7-0.7-1.7-1.6c0-0.9,0.8-1.6,1.7-1.6c0.9,0,1.7,0.7,1.7,1.6
		C5.9,24.9,5.1,25.6,4.2,25.6z M5.9,21.7c-0.9,0-1.7-0.7-1.7-1.6c0-0.9,0.8-1.6,1.7-1.6s1.7,0.7,1.7,1.6C7.6,21,6.8,21.7,5.9,21.7z
		 M9.4,38c-0.9,0-1.7-0.7-1.7-1.6s0.8-1.6,1.7-1.6c0.9,0,1.7,0.7,1.7,1.6S10.3,38,9.4,38z M37.9,36.3c-0.9,0-1.7-0.7-1.7-1.6
		c0-0.9,0.8-1.6,1.7-1.6c0.9,0,1.7,0.7,1.7,1.6C39.6,35.6,38.8,36.3,37.9,36.3z M39.6,18.2c-0.9,0-1.7-0.7-1.7-1.6
		c0-0.9,0.8-1.6,1.7-1.6c0.9,0,1.7,0.7,1.7,1.6C41.3,17.4,40.5,18.2,39.6,18.2z M43.9,24c-0.9,0-1.7-0.7-1.7-1.6
		c0-0.9,0.8-1.6,1.7-1.6c0.9,0,1.7,0.7,1.7,1.6C45.6,23.3,44.9,24,43.9,24z"/>
	<path fill="#F04B36" d="M42.1,3.3c-1.9-4.1-6.3-2.7-9.5-1.7c-1.6,0.5-3,1-4.1,0.9c-0.2,0-0.3,0-0.4,0.1c1.8,1,3,2.8,3,5
		c0,0.6-0.1,1.2-0.3,1.8c-0.3,0.9-0.8,1.7-1.5,2.3c0.7,0.5,1.4,1.1,2.2,1.6c1.4,0.8,2.8,1.6,4.3,1.8c0,0,0,0,0,0
		c0.3,0,0.6,0.1,0.8,0.1c2.9,0,4-2.5,4.7-4c0.1-0.3,0.3-0.7,0.4-1C42.6,8,43.3,5.7,42.1,3.3z"/>
	<path fill="#F04B36" d="M16.7,7.5c0-2.1,1.2-4,3-5c-0.1-0.1-0.3-0.1-0.4-0.1c-1.1,0.1-2.6-0.4-4.1-0.9c-3.2-1-7.5-2.4-9.5,1.7
		C4.5,5.8,5.2,8.2,6,10.1c0.1,0.3,0.2,0.6,0.4,0.9c0.7,1.5,1.8,4,4.7,4c0.3,0,0.6,0,0.9-0.1c0.1,0,0.2,0,0.2-0.1
		c1.4-0.3,2.8-0.9,4-1.7c0.8-0.5,1.6-1.1,2.2-1.6c-0.7-0.6-1.2-1.4-1.5-2.3C16.8,8.8,16.7,8.2,16.7,7.5z"/>
	<path fill="#F7A93B" d="M26.8,2.6C26,2.1,25,1.9,24,1.9c-1,0-2,0.3-2.8,0.7c-1.8,1-3,2.8-3,5c0,0.6,0.1,1.2,0.3,1.8
		c0.3,0.9,0.8,1.6,1.5,2.3c1.1,1,2.5,1.6,4.1,1.6c1.6,0,3-0.6,4.1-1.6c0.7-0.6,1.2-1.4,1.5-2.3c0.2-0.6,0.3-1.2,0.3-1.8
		C29.9,5.4,28.6,3.5,26.8,2.6z"/>
</g>
</svg>
