<?xml version="1.0" encoding="utf-8"?>
<!-- Generator: Adobe Illustrator 18.0.0, SVG Export Plug-In . SVG Version: 6.00 Build 0)  -->
<!DOCTYPE svg PUBLIC "-//W3C//DTD SVG 1.1//EN" "http://www.w3.org/Graphics/SVG/1.1/DTD/svg11.dtd">
<svg version="1.1" id="Layer_1" xmlns="http://www.w3.org/2000/svg" xmlns:xlink="http://www.w3.org/1999/xlink" x="0px" y="0px"
	 viewBox="0 0 48 48" enable-background="new 0 0 48 48" xml:space="preserve">
<g>
	<path fill="#0DB89A" d="M35.6,31.6c-0.7,0-1.4-0.6-1.4-1.4c0-0.8,0.6-1.4,1.4-1.4c5,0,9.2-8.9,9.2-13.3c0-1.4-0.4-2.5-1.3-3
		c-1.5-1-4.3-0.7-7.3,0.7c-0.7,0.3-1.5,0-1.8-0.7c-0.3-0.7,0-1.5,0.7-1.8c4-1.9,7.6-2.1,9.9-0.6c1.7,1.1,2.6,3,2.6,5.4
		C47.5,21,42.5,31.6,35.6,31.6z"/>
	<path fill="#F04B36" d="M36.4,7.1c-0.7,3.9-16.2,4-18,4c-1.8,0-17.2-0.1-18-4c0,0.1,0,0.1,0,0.2v24.6c0,8.6,6.8,15.6,15.2,15.6h5.5
		c8.4,0,15.2-7,15.2-15.6V7.3C36.5,7.2,36.5,7.2,36.4,7.1z M30.8,28h-2l1.9,2.1c0.3,0.4,0.3,1-0.1,1.3c-0.2,0.2-0.4,0.2-0.6,0.2
		c-0.2,0-0.5-0.1-0.7-0.3l-3-3.4h-3.3c0,0,0,0-0.1,0c-0.4,1.9-1.8,3.3-3.6,3.7c0,0,0,0,0,0.1v3.4l3.3,3.1c0.4,0.3,0.4,0.9,0.1,1.3
		c-0.2,0.2-0.4,0.3-0.7,0.3c-0.2,0-0.4-0.1-0.6-0.2l-2.1-1.9v2.1c0,0.5-0.4,0.9-0.9,0.9c-0.5,0-0.9-0.4-0.9-0.9v-2.1l-2.1,1.9
		c-0.2,0.2-0.4,0.2-0.6,0.2c-0.2,0-0.5-0.1-0.7-0.3c-0.3-0.4-0.3-1,0.1-1.3l3.3-3.1v-3.4c0,0,0,0,0-0.1c-1.8-0.4-3.2-1.8-3.6-3.7
		c0,0,0,0-0.1,0h-3.3l-3,3.4c-0.2,0.2-0.4,0.3-0.7,0.3c-0.2,0-0.4-0.1-0.6-0.2c-0.4-0.3-0.4-0.9-0.1-1.3L8.1,28h-2
		c-0.5,0-0.9-0.4-0.9-0.9c0-0.5,0.4-0.9,0.9-0.9h2L6.3,24c-0.3-0.4-0.3-1,0.1-1.3c0.4-0.3,0.9-0.3,1.3,0.1l3,3.4h3.3c0,0,0,0,0.1,0
		c0.4-1.9,1.8-3.3,3.6-3.7c0,0,0,0,0-0.1V19l-3.3-3.1c-0.4-0.3-0.4-0.9-0.1-1.3c0.3-0.4,0.9-0.4,1.3-0.1l2.1,1.9v-2.1
		c0-0.5,0.4-0.9,0.9-0.9c0.5,0,0.9,0.4,0.9,0.9v2.1l2.1-1.9c0.4-0.3,0.9-0.3,1.3,0.1c0.3,0.4,0.3,1-0.1,1.3L19.4,19v3.4
		c0,0,0,0,0,0.1c1.8,0.4,3.2,1.8,3.6,3.7c0,0,0,0,0.1,0h3.3l3-3.4c0.3-0.4,0.9-0.4,1.3-0.1c0.4,0.3,0.4,0.9,0.1,1.3l-1.9,2.1h2
		c0.5,0,0.9,0.4,0.9,0.9C31.7,27.6,31.3,28,30.8,28z"/>
	<path fill="#4DA0D8" d="M18.5,24.2c-1.5,0-2.8,1.3-2.8,2.8c0,1.6,1.2,2.8,2.8,2.8c1.5,0,2.8-1.3,2.8-2.8
		C21.3,25.5,20,24.2,18.5,24.2z"/>
	<path fill="#F7A93B" d="M18.5,0.5c-1.8,0-18,0.1-18,4.3c0,0.1,0,0.2,0,0.3c0.7,3.9,16.2,4,18,4c1.8,0,17.2-0.1,18-4
		c0-0.1,0-0.2,0-0.3C36.5,0.6,20.3,0.5,18.5,0.5z"/>
</g>
</svg>
