<?xml version="1.0" encoding="utf-8"?>
<!-- Generator: Adobe Illustrator 18.0.0, SVG Export Plug-In . SVG Version: 6.00 Build 0)  -->
<!DOCTYPE svg PUBLIC "-//W3C//DTD SVG 1.1//EN" "http://www.w3.org/Graphics/SVG/1.1/DTD/svg11.dtd">
<svg version="1.1" id="Layer_1" xmlns="http://www.w3.org/2000/svg" xmlns:xlink="http://www.w3.org/1999/xlink" x="0px" y="0px"
	 viewBox="0 0 48 48" enable-background="new 0 0 48 48" xml:space="preserve">
<g>
	<path fill="#F04B36" d="M19.9,32h-3c-0.4,0-0.7-0.3-0.7-0.7c0-0.4,0.3-0.7,0.7-0.7h3c0.4,0,0.7,0.3,0.7,0.7
		C20.7,31.7,20.3,32,19.9,32z"/>
	<path fill="#F04B36" d="M18.5,47.5C18.5,47.5,18.5,47.5,18.5,47.5c-0.5,0-0.8-0.4-0.7-0.8c0.1-1,0-1.3-0.1-1.6
		c-0.2-0.6-0.4-1.1-0.6-1.6c-0.1-0.2-0.2-0.4-0.3-0.6c-0.3-0.8-0.5-1.4-0.5-2c0-0.1,0-0.3,0-0.5c0-0.6-0.1-1.2,0.1-1.8
		c0.2-0.6,0.6-1.2,1-1.6c0.4-0.6,0.8-1.1,0.8-1.7c0-0.5,0-1-0.1-1.5c0-0.1-0.1-0.3-0.2-0.4c-0.1-0.3-0.3-0.7-0.3-1.2
		c0-0.4,0.4-0.7,0.8-0.6c0.4,0,0.7,0.4,0.6,0.8c0,0.1,0.1,0.3,0.2,0.5c0.1,0.2,0.2,0.4,0.3,0.7c0.1,0.6,0.1,1.2,0.1,1.8
		c0,1.1-0.6,1.9-1.1,2.6c-0.3,0.4-0.6,0.8-0.8,1.2c-0.1,0.3-0.1,0.8-0.1,1.2c0,0.2,0,0.4,0,0.5c0,0.4,0.1,0.9,0.4,1.4
		c0.1,0.2,0.2,0.4,0.3,0.6c0.3,0.6,0.5,1.2,0.7,1.8c0.1,0.5,0.2,1,0.1,2.2C19.2,47.2,18.9,47.5,18.5,47.5z"/>
	<path fill="#F04B36" d="M29.5,0.5c-3.5,0-6.7,2.5-8.3,6.4c4.3,1,7.5,5.7,7.5,11.3c0,1.9-0.4,3.6-1,5.2c0.6,0.1,1.1,0.2,1.7,0.2
		c5.1,0,9.2-5.2,9.2-11.5C38.8,5.7,34.6,0.5,29.5,0.5z"/>
	<path fill="#4DA0D8" d="M20.2,7.4c-0.6-0.1-1.1-0.2-1.7-0.2c-5.1,0-9.2,5.2-9.2,11.5s4.1,11.5,9.2,11.5c3.6,0,6.7-2.6,8.3-6.3
		c0.6-1.6,1-3.3,1-5.2C27.7,13.1,24.5,8.4,20.2,7.4z"/>
	<path fill="#0DB89A" d="M31,25.3h-3c-0.4,0-0.7-0.3-0.7-0.7c0-0.4,0.3-0.7,0.7-0.7h3c0.4,0,0.7,0.3,0.7,0.7
		C31.7,25,31.4,25.3,31,25.3z"/>
	<path fill="#0DB89A" d="M29.6,40.8C29.6,40.8,29.5,40.8,29.6,40.8c-0.5,0-0.8-0.4-0.7-0.8c0.1-1,0-1.3-0.1-1.6
		c-0.2-0.6-0.4-1.1-0.6-1.6c-0.1-0.2-0.2-0.4-0.3-0.6c-0.3-0.8-0.5-1.4-0.5-2c0-0.1,0-0.3,0-0.5c0-0.6-0.1-1.2,0.1-1.8
		c0.2-0.6,0.6-1.2,1-1.6c0.4-0.6,0.8-1.1,0.8-1.7c0-0.5,0-1-0.1-1.5c0-0.1-0.1-0.3-0.2-0.4c-0.1-0.3-0.3-0.7-0.3-1.2
		c0-0.4,0.4-0.7,0.8-0.6c0.4,0,0.7,0.4,0.6,0.8c0,0.1,0.1,0.3,0.2,0.5c0.1,0.2,0.2,0.4,0.3,0.7c0.1,0.6,0.1,1.2,0.1,1.8
		c0,1.1-0.6,1.9-1.1,2.6c-0.3,0.4-0.6,0.8-0.8,1.2c-0.1,0.3-0.1,0.8-0.1,1.2c0,0.2,0,0.4,0,0.5c0,0.4,0.1,0.9,0.4,1.4
		c0.1,0.2,0.2,0.4,0.3,0.6c0.3,0.6,0.5,1.2,0.7,1.8c0.1,0.5,0.2,1,0.1,2.2C30.3,40.6,29.9,40.8,29.6,40.8z"/>
</g>
</svg>
