<?xml version="1.0" encoding="utf-8"?>
<!-- Generator: Adobe Illustrator 18.0.0, SVG Export Plug-In . SVG Version: 6.00 Build 0)  -->
<!DOCTYPE svg PUBLIC "-//W3C//DTD SVG 1.1//EN" "http://www.w3.org/Graphics/SVG/1.1/DTD/svg11.dtd">
<svg version="1.1" id="Layer_1" xmlns="http://www.w3.org/2000/svg" xmlns:xlink="http://www.w3.org/1999/xlink" x="0px" y="0px"
	 viewBox="0 0 48 48" enable-background="new 0 0 48 48" xml:space="preserve">
<g>
	<ellipse fill="#FFD69A" cx="24.1" cy="36.3" rx="11.4" ry="9.1"/>
	<path fill="#F04B36" d="M25.7,32.4h-3.3c-0.8,0-1.5,0.7-1.5,1.5c0,0.8,0.7,1.5,1.5,1.5h3.3c0.8,0,1.5-0.7,1.5-1.5
		C27.1,33,26.5,32.4,25.7,32.4z"/>
	<ellipse fill="none" cx="29.2" cy="25.7" rx="1.4" ry="1.5"/>
	<ellipse fill="none" cx="18.8" cy="25.7" rx="1.4" ry="1.5"/>
	<path fill="none" d="M24,28.7c-4.7,0-8.5,5-8.5,8.3c0,3.3,3.8,5.9,8.5,5.9c4.8,0,8.5-2.6,8.5-5.9C32.5,33.7,28.7,28.7,24,28.7z"/>
	<path fill="#06728D" d="M18.2,15.3c-0.1,0-1.7-0.3-3.9-1.1c-2.9-1.8-1.6-5.7-1.5-5.9c0.2-0.5-0.1-1.1-0.6-1.2
		c-0.5-0.2-1.1,0.1-1.2,0.6c-0.4,1.2-0.7,3.3-0.1,5.2c-0.6-0.3-1.2-0.6-1.8-1C6.4,9.4,8.8,5.3,8.9,5.1C9.2,4.6,9.1,4,8.6,3.7
		C8.2,3.5,7.6,3.6,7.3,4.1C6.6,5.2,5.8,7.2,5.9,9.2C5.6,8.9,5.4,8.5,5.1,8.1c-1.3-1.9-1.6-4-1-6.4c0.1-0.5-0.2-1-0.7-1.2
		c-0.5-0.1-1,0.2-1.2,0.7C1.6,4.2,2,6.8,3.5,9.2c2.8,4.4,8.8,6.6,12.1,7.5l2.8-1.4C18.4,15.3,18.3,15.3,18.2,15.3z"/>
	<path fill="#06728D" d="M44.5,9.2c1.5-2.4,2-5,1.2-8c-0.1-0.5-0.7-0.8-1.2-0.7c-0.5,0.1-0.8,0.7-0.7,1.2c0.6,2.4,0.3,4.5-1,6.4
		c-0.2,0.4-0.5,0.7-0.8,1.1c0.1-2-0.7-4-1.3-5.1c-0.3-0.5-0.9-0.6-1.3-0.3c-0.5,0.3-0.6,0.9-0.3,1.3c0.1,0.2,2.5,4.3-0.2,6.8
		c-0.6,0.4-1.2,0.7-1.8,1c0.6-1.9,0.3-4-0.1-5.2c-0.2-0.5-0.7-0.8-1.2-0.6c-0.5,0.2-0.8,0.7-0.6,1.2c0.1,0.2,1.4,4.1-1.5,5.9
		c-2.1,0.7-3.8,1-3.9,1.1l2.7,1.4C35.7,15.8,41.7,13.6,44.5,9.2z"/>
	<ellipse fill="none" cx="18.8" cy="25.7" rx="1.4" ry="1.5"/>
	<ellipse fill="none" cx="29.2" cy="25.7" rx="1.4" ry="1.5"/>
	<path fill="none" d="M24,28.7c-4.7,0-8.5,5-8.5,8.3c0,3.3,3.8,5.9,8.5,5.9c4.8,0,8.5-2.6,8.5-5.9C32.5,33.7,28.7,28.7,24,28.7z"/>
	<path fill="#0DB89A" d="M35.2,19C35.2,19,35.2,19,35.2,19C35.2,19,35.2,19,35.2,19c-0.9-0.9-1.9-1.7-2.9-2.3c0,0,0,0,0.1,0
		l-2.7-1.4C28,14.6,26,14.2,24,14.2c-2,0-3.8,0.4-5.5,1.1l-2.8,1.4c0,0,0,0,0,0c-1,0.7-2,1.4-2.8,2.3c0,0-3.8,3.7-4.3,8.3
		c-0.2,1.1-0.4,2.3-0.4,3.5c0,9.2,7.1,16.7,15.8,16.7c8.7,0,15.8-7.5,15.8-16.7c0-1.2-0.1-2.4-0.4-3.5c0,0,0.1,0,0.1,0
		C39,22.7,35.2,19,35.2,19z M29.2,24.2c0.8,0,1.4,0.7,1.4,1.5c0,0.8-0.6,1.5-1.4,1.5c-0.8,0-1.4-0.7-1.4-1.5
		C27.8,24.9,28.4,24.2,29.2,24.2z M18.8,24.2c0.8,0,1.4,0.7,1.4,1.5c0,0.8-0.6,1.5-1.4,1.5c-0.8,0-1.4-0.7-1.4-1.5
		C17.4,24.9,18,24.2,18.8,24.2z M24,42.9c-4.8,0-8.5-2.6-8.5-5.9c0-3.3,3.8-8.3,8.5-8.3c4.7,0,8.5,5,8.5,8.3
		C32.5,40.3,28.8,42.9,24,42.9z"/>
	<path fill="#F04B36" d="M12.8,19c-3.7-5.9-11.4-4.8-11.5-4.8l-0.8,0.1l-0.1,0.8c-0.8,9.4,5.9,11.7,8,12.2C9.1,22.7,12.8,19,12.8,19
		z"/>
	<path fill="#F04B36" d="M47.4,15.1l-0.1-0.8l-0.8-0.1c-0.1,0-7.7-1.1-11.4,4.7c0,0.1,0,0.1,0,0.1s3.8,3.6,4.3,8.2
		C41.7,26.8,48.2,24.4,47.4,15.1z"/>
</g>
</svg>
