<?xml version="1.0" encoding="utf-8"?>
<!-- Generator: Adobe Illustrator 18.0.0, SVG Export Plug-In . SVG Version: 6.00 Build 0)  -->
<!DOCTYPE svg PUBLIC "-//W3C//DTD SVG 1.1//EN" "http://www.w3.org/Graphics/SVG/1.1/DTD/svg11.dtd">
<svg version="1.1" id="Layer_1" xmlns="http://www.w3.org/2000/svg" xmlns:xlink="http://www.w3.org/1999/xlink" x="0px" y="0px"
	 viewBox="0 0 48 48" enable-background="new 0 0 48 48" xml:space="preserve">
<g>
	<path fill="#F7A93B" d="M27.1,0.5c-1.3,0-2.4,0.6-3.1,1.5c-0.7-0.9-1.9-1.5-3.1-1.5c-2.2,0-4,1.8-4,4c0,2.2,3.5,14,7.2,17.7
		c3.9-3.9,7.2-15.5,7.2-17.7C31.2,2.3,29.4,0.5,27.1,0.5z"/>
	<path fill="#E77528" d="M27.1,47.5c-1.3,0-2.4-0.6-3.1-1.5c-0.7,0.9-1.9,1.5-3.1,1.5c-2.2,0-4-1.8-4-4c0-2.2,3.5-14,7.2-17.7
		c3.9,3.9,7.2,15.5,7.2,17.7C31.2,45.7,29.4,47.5,27.1,47.5z"/>
	<path fill="#F04B36" d="M47.5,27.1c0-1.3-0.6-2.4-1.5-3.1c0.9-0.7,1.5-1.9,1.5-3.1c0-2.2-1.8-4-4-4c-2.2,0-14,3.5-17.7,7.2
		c3.9,3.9,15.5,7.2,17.7,7.2C45.7,31.2,47.5,29.4,47.5,27.1z"/>
	<path fill="#0DB89A" d="M0.5,27.1c0-1.3,0.6-2.4,1.5-3.1c-0.9-0.7-1.5-1.9-1.5-3.1c0-2.2,1.8-4,4-4c2.2,0,14,3.5,17.7,7.2
		c-3.9,3.9-15.5,7.2-17.7,7.2C2.3,31.2,0.5,29.4,0.5,27.1z"/>
	<g>
		<path fill="#06728D" d="M35.3,14.2c-0.4,0-0.8-0.1-1.1-0.4c-0.6-0.6-0.6-1.6,0-2.1L44,1.8c0.6-0.6,1.6-0.6,2.1,0
			c0.6,0.6,0.6,1.6,0,2.1l-9.8,9.8C36.1,14,35.7,14.2,35.3,14.2z"/>
		<path fill="#06728D" d="M2.9,46.6c-0.4,0-0.8-0.1-1.1-0.4c-0.6-0.6-0.6-1.6,0-2.1l8.4-8.4c0.6-0.6,1.6-0.6,2.1,0
			c0.6,0.6,0.6,1.6,0,2.1L4,46.2C3.7,46.5,3.3,46.6,2.9,46.6z"/>
		<path fill="#06728D" d="M45.1,46.6c-0.4,0-0.8-0.1-1.1-0.4l-9.3-9.3c-0.6-0.6-0.6-1.6,0-2.1c0.6-0.6,1.6-0.6,2.1,0l9.3,9.3
			c0.6,0.6,0.6,1.6,0,2.1C45.9,46.5,45.5,46.6,45.1,46.6z"/>
		<path fill="#06728D" d="M11.9,13.4c-0.4,0-0.8-0.1-1.1-0.4l-9-9c-0.6-0.6-0.6-1.6,0-2.1c0.6-0.6,1.6-0.6,2.1,0l9,9
			c0.6,0.6,0.6,1.6,0,2.1C12.7,13.3,12.3,13.4,11.9,13.4z"/>
	</g>
</g>
</svg>
