<?xml version="1.0" encoding="utf-8"?>
<!-- Generator: Adobe Illustrator 18.0.0, SVG Export Plug-In . SVG Version: 6.00 Build 0)  -->
<!DOCTYPE svg PUBLIC "-//W3C//DTD SVG 1.1//EN" "http://www.w3.org/Graphics/SVG/1.1/DTD/svg11.dtd">
<svg version="1.1" id="Layer_1" xmlns="http://www.w3.org/2000/svg" xmlns:xlink="http://www.w3.org/1999/xlink" x="0px" y="0px"
	 viewBox="0 0 48 48" enable-background="new 0 0 48 48" xml:space="preserve">
<g>
	<path fill="#06728D" d="M18.2,28.9c-0.5,0-1-0.4-1-1V17.5c0-0.5,0.4-1,1-1c0.5,0,1,0.4,1,1V28C19.2,28.5,18.8,28.9,18.2,28.9z"/>
	<path fill="#06728D" d="M29.1,47.5H18.2c-0.5,0-1-0.4-1-1v-9.4c0-0.5,0.4-1,1-1c0.5,0,1,0.4,1,1v8.4h8.9v-11c0-0.5,0.4-1,1-1
		c0.5,0,1,0.4,1,1v11.9C30.1,47.1,29.6,47.5,29.1,47.5z"/>
	<path fill="#06728D" d="M29.1,26.4c-0.5,0-1-0.4-1-1v-8c0-0.5,0.4-1,1-1c0.5,0,1,0.4,1,1v8C30.1,26,29.6,26.4,29.1,26.4z"/>
	<path fill="#06728D" d="M7.4,31.4c-0.3,0-0.6-0.1-0.7-0.4c-0.3-0.4-0.3-1,0.1-1.4l10.8-9c0.4-0.3,1-0.3,1.4,0.1
		c0.3,0.4,0.3,1-0.1,1.4l-10.8,9C7.9,31.3,7.7,31.4,7.4,31.4z"/>
	<path fill="#06728D" d="M41,23.7c-0.1,0-0.1,0-0.2,0l-11.9-2.3c-0.5-0.1-0.9-0.6-0.8-1.1c0.1-0.5,0.6-0.9,1.1-0.8l11.9,2.3
		c0.5,0.1,0.9,0.6,0.8,1.1C41.9,23.4,41.4,23.7,41,23.7z"/>
	<path fill="#06728D" d="M18.2,44c-0.4,0-0.7-0.2-0.9-0.6c-0.2-0.5,0-1.1,0.5-1.3l10.9-4.9c0.5-0.2,1.1,0,1.3,0.5
		c0.2,0.5,0,1.1-0.5,1.3l-10.9,4.9C18.5,44,18.4,44,18.2,44z"/>
	<path fill="#06728D" d="M18.2,25.9c-0.4,0-0.7-0.2-0.9-0.6c-0.2-0.5,0-1.1,0.5-1.3l10.9-4.9c0.5-0.2,1.1,0,1.3,0.5
		c0.2,0.5,0,1.1-0.5,1.3l-10.9,4.9C18.5,25.9,18.4,25.9,18.2,25.9z"/>
	<path fill="#E77528" d="M23.7,0.5c-5.4,0-9.7,4.4-9.7,9.7c0,5.4,4.4,9.7,9.7,9.7c5.4,0,9.7-4.4,9.7-9.7C33.4,4.9,29,0.5,23.7,0.5z"
		/>
	<path fill="#FFD69A" d="M44.7,31l-2-8.7c-0.1-0.3-0.2-0.5-0.4-0.6c-0.2-0.1-0.5-0.2-0.7-0.1L4,30.2c-0.3,0.1-0.5,0.2-0.6,0.4
		c-0.1,0.2-0.2,0.5-0.1,0.7l2,8.7c0.1,0.4,0.5,0.8,0.9,0.8c0.1,0,0.1,0,0.2,0L44,32.2C44.5,32.1,44.8,31.5,44.7,31z"/>
</g>
</svg>
