<?xml version="1.0" encoding="utf-8"?>
<!-- Generator: Adobe Illustrator 18.0.0, SVG Export Plug-In . SVG Version: 6.00 Build 0)  -->
<!DOCTYPE svg PUBLIC "-//W3C//DTD SVG 1.1//EN" "http://www.w3.org/Graphics/SVG/1.1/DTD/svg11.dtd">
<svg version="1.1" id="Layer_1" xmlns="http://www.w3.org/2000/svg" xmlns:xlink="http://www.w3.org/1999/xlink" x="0px" y="0px"
	 viewBox="0 0 48 48" enable-background="new 0 0 48 48" xml:space="preserve">
<g>
	<path fill="#06728D" d="M39.4,26.6c-0.1-0.4-0.6-0.7-1-0.7c-0.4,0-0.8,0.4-0.9,0.8c-0.2,1-1.2,4-2.7,4c-0.6,0-1.2-0.3-2-1
		c-1.3-1.2-2.9-1.8-4.7-1.8c-3,0-5.7,1.8-7,3.3c-0.6,0.6-1,1.2-1.2,1.8c-1.1-0.4-2.8-0.9-4.5-0.9c-2.8,0-4.9,1.2-6,3.5
		c-1.7,3.5-3.9,4.7-5.3,4.7c-0.8,0-1.3-0.3-1.8-1C2,38.9,1.4,38.8,1,39c-0.4,0.3-0.6,0.8-0.4,1.3c0.1,0.3,3,7.1,9.4,7.1
		c1.6,0,3.2-0.4,4.9-1.3c3.9-2,6.4-4.2,7.3-6.6c0.1-0.3,0.2-0.5,0.2-0.7c1.5,1.3,4,2.8,6.9,2.8c1.3,0,2.6-0.3,3.8-0.9
		C39.6,37.5,41,31.3,39.4,26.6z"/>
	<ellipse fill="#F7A93B" cx="14.6" cy="27.5" rx="1.3" ry="1.3"/>
	<ellipse fill="#F7A93B" cx="20.2" cy="25.6" rx="1.3" ry="1.3"/>
	<path fill="#F04B36" d="M42.3,12.7c-0.3,0-0.7,0-1,0.1c0-0.2-0.1-0.4-0.2-0.7L41,11.7c-0.3-1.8-0.7-3.6-1.8-5.5
		c-1.6-2.8-4.7-5.1-7.4-5.5c-1-0.2-2.1-0.2-3.3-0.2c-3.3,0-6.5,0.6-9.3,1.3c-3.6,0.8-7.1,3-10.4,6.6c-1.5,1.7-2.4,3.5-3.1,5.1
		L5.5,14c-0.9,2.2-1.8,4.2-2.4,6.6c-0.1,0.5-0.4,1-0.6,1.6c-0.7,1.5-1.8,3.7,0.5,5.7c0.7,0.6,1.6,0.9,2.4,0.9c1.1,0,2.2-0.5,2.9-1.4
		c0.5-0.6,4.8-5.8,11.1-5.8c3.3,0,6.7,1.4,10.1,4.3c0.7,0.6,1.5,0.9,2.4,0.9c1.2,0,2.3-0.6,3-1.5c1.5-1.9,0.6-3.5,0-4.7
		c-0.1-0.2-0.2-0.4-0.3-0.7c-0.1-0.2-0.2-0.6-0.2-1c-0.1-0.4-0.1-0.8-0.3-1.2c-0.1-0.2-0.2-0.5-0.2-0.7c-0.2-0.6-0.4-1.2-0.5-1.8
		l0-0.5c-0.1-1.3-0.2-2.9,0.4-3.9c0.1-0.2,0.4-0.7,1.3-0.7c1.6,0,3.6,1.3,4.3,2.7c0.1,0.3,0.1,0.5,0.2,0.8c-1.4,1-2.4,2.7-2.4,4.6
		c0,3.1,2.3,5.5,5.2,5.5c2.9,0,5.2-2.5,5.2-5.5C47.5,15.2,45.2,12.7,42.3,12.7z M31.9,19.4c-0.3,0.4-0.8,0.5-1.2,0.2
		C17.1,9,7.4,20.2,7,20.7C6.9,20.9,6.6,21,6.4,21c-0.2,0-0.4-0.1-0.6-0.2c-0.4-0.3-0.4-0.9-0.1-1.3c0.1-0.1,11.1-13,25.9-1.4
		C32.1,18.4,32.1,18.9,31.9,19.4z"/>
</g>
</svg>
