<?xml version="1.0" encoding="utf-8"?>
<!-- Generator: Adobe Illustrator 18.0.0, SVG Export Plug-In . SVG Version: 6.00 Build 0)  -->
<!DOCTYPE svg PUBLIC "-//W3C//DTD SVG 1.1//EN" "http://www.w3.org/Graphics/SVG/1.1/DTD/svg11.dtd">
<svg version="1.1" id="Layer_1" xmlns="http://www.w3.org/2000/svg" xmlns:xlink="http://www.w3.org/1999/xlink" x="0px" y="0px"
	 viewBox="0 0 48 48" enable-background="new 0 0 48 48" xml:space="preserve">
<g>
	<path fill="#4DA0D8" d="M12.3,34.8c-2.5-2.5-3.7-4.8-4.1-5.7c-7.3,8.6-9.4,14.2-6.4,17.2c2.9,2.9,8.6,0.8,17.3-6.5
		C16.1,38.2,13.9,36.4,12.3,34.8z"/>
	<path fill="#0DB89A" d="M10.6,28.1c0.1,0.2,2,5.4,9.6,9.3c0.3,0.2,0.5,0.4,0.7,0.7c2-1.8,4.1-3.7,6.4-6c-2.7-0.5-5.3-1.8-7.4-3.9
		c-2.1-2.1-3.4-4.8-3.9-7.5c-2.3,2.3-4.4,4.5-6.1,6.5C10.2,27.4,10.4,27.7,10.6,28.1z"/>
	<path fill="#F04B36" d="M44.5,21.8c1.4-3.6,1.3-7.6-0.3-11.1c0.8-0.9,1.5-1.8,2-2.6c0,0,0,0,0,0c1.6-2.5,1.6-4.7,0-6.3
		c-1.2-1.2-3.3-2-6.4,0c0,0,0,0,0,0c-0.8,0.5-1.6,1.1-2.5,2c-3.5-1.6-7.5-1.6-11.1-0.2C27.6,8,31.9,17.6,44.5,21.8z"/>
	<path fill="#06728D" d="M43,24.6c-5.2-1.8-9.1-4.5-12.1-7.5c-4.2-4.2-6.4-8.9-7.5-12c-0.6,0.4-1.2,0.9-1.8,1.5
		c-0.8,0.8-1.5,1.7-2.1,2.7c0.9,3.5,4.7,15,19.3,19.2c0.9-0.6,1.8-1.2,2.6-2.1C42,25.9,42.5,25.2,43,24.6z M21.4,10.4
		c-0.5-0.5-0.5-1.3,0-1.8c0.5-0.5,1.3-0.5,1.7,0c0.5,0.5,0.5,1.3,0,1.8C22.7,10.9,21.9,10.9,21.4,10.4z M24.8,16.4
		c-0.5-0.5-0.5-1.3,0-1.7c0.5-0.5,1.3-0.5,1.7,0c0.5,0.5,0.5,1.3,0,1.8C26.1,16.9,25.3,16.9,24.8,16.4z M30.7,22.3
		c-0.5-0.5-0.5-1.3,0-1.8c0.5-0.5,1.3-0.5,1.7,0c0.5,0.5,0.5,1.3,0,1.8C32,22.8,31.2,22.8,30.7,22.3z M37.3,26.3
		c-0.5-0.5-0.5-1.3,0-1.8c0.5-0.5,1.3-0.5,1.7,0c0.5,0.5,0.5,1.3,0,1.8C38.6,26.8,37.8,26.8,37.3,26.3z"/>
	<path fill="#F04B36" d="M17.8,14c-0.3,1.6-0.3,3.3,0,4.9c0.5,2.8,1.8,5.4,3.9,7.5c2.1,2.1,4.7,3.4,7.4,3.9c1.7,0.3,3.4,0.3,5.1,0
		c-4.2-1.7-7.4-4.1-9.9-6.5C21,20.4,19,16.8,17.8,14z"/>
</g>
</svg>
