<?xml version="1.0" encoding="utf-8"?>
<!-- Generator: Adobe Illustrator 18.0.0, SVG Export Plug-In . SVG Version: 6.00 Build 0)  -->
<!DOCTYPE svg PUBLIC "-//W3C//DTD SVG 1.1//EN" "http://www.w3.org/Graphics/SVG/1.1/DTD/svg11.dtd">
<svg version="1.1" id="Layer_1" xmlns="http://www.w3.org/2000/svg" xmlns:xlink="http://www.w3.org/1999/xlink" x="0px" y="0px"
	 viewBox="0 0 48 48" enable-background="new 0 0 48 48" xml:space="preserve">
<g>
	<path fill="#F7A93B" d="M26.5,12.7c-0.1,0-0.1,0-0.2,0.1H37c-0.2-0.1-0.3-0.1-0.5-0.1h-0.4c1.6-1.6,1.9-4,0.6-6
		c-0.7-1-1.6-1.9-2.4-2.7c-1-1-1.9-1.9-2.5-2.9c-0.2-0.4-0.6-0.6-1.2-0.6c-0.5,0-0.9,0.3-1.1,0.6c-0.2,0.4-0.3,0.9-0.4,1.3
		c-0.1,0.5-0.2,1-0.6,1.4c-0.3,0.4-0.6,0.7-0.9,1.1c-0.5,0.5-1,1-1.3,1.6C25.5,7.7,25.2,10.9,26.5,12.7
		C26.4,12.7,26.4,12.7,26.5,12.7z"/>
	<path fill="#0DB89A" d="M46.3,31.2h-5.9l0-0.2H28.9c-0.1,0-0.2,0-0.3,0c-0.1,0-0.1,0-0.2,0h-5.5l0,0.2H6.5c-0.4,0-0.8,0.2-1,0.5
		C5.2,32.1-2.7,42.1,2,47.1c0.2,0.3,0.6,0.4,1,0.4c0.1,0,0.2,0,0.3,0c0.5-0.1,0.8-0.4,0.9-0.8c0-0.1,1.9-9.1,9.9-9.1
		c0.7,0,1.4,0.1,2.2,0.2l1.6,6.8c0.1,0.5,0.6,0.8,1.2,0.8h23c0.6,0,1-0.3,1.2-0.7l4.2-12.2c0.1-0.3,0-0.6-0.2-0.9
		C47,31.4,46.7,31.2,46.3,31.2z"/>
	<path fill="#F04B36" d="M40.4,31.1l-2.7-17.5c-0.1-0.5-0.5-0.8-1.1-0.8H26.4c0,0,0,0,0,0c-0.4,0.1-0.8,0.4-0.9,0.8l-2.7,17.5H40.4z
		 M37.6,25.3c0.3,0.3,0.2,0.8-0.2,1.1l-8.2,4.5C29,31,28.8,31,28.7,31c-0.3,0-0.6-0.1-0.8-0.3c-0.3-0.3-0.2-0.8,0.2-1.1l8.2-4.5
		C36.7,24.8,37.3,24.9,37.6,25.3z M27.3,17.4l4.1-2.3c0.4-0.2,1-0.2,1.3,0.2c0.3,0.3,0.2,0.8-0.2,1.1l-4.1,2.3
		c-0.2,0.1-0.4,0.1-0.5,0.1c-0.3,0-0.6-0.1-0.8-0.3C26.7,18.1,26.8,17.6,27.3,17.4z M26.5,21.4l8.5-4.8c0.4-0.2,1-0.2,1.3,0.2
		c0.3,0.3,0.2,0.8-0.2,1.1l-8.5,4.8c-0.2,0.1-0.4,0.1-0.5,0.1c-0.3,0-0.6-0.1-0.8-0.3C25.9,22.1,26,21.6,26.5,21.4z M35.6,21
		c0.4-0.2,1-0.2,1.3,0.2c0.3,0.3,0.2,0.8-0.2,1.1l-10.1,5.7c-0.2,0.1-0.4,0.1-0.5,0.1c-0.3,0-0.6-0.1-0.8-0.3
		c-0.3-0.3-0.2-0.8,0.2-1.1L35.6,21z"/>
</g>
</svg>
