<?xml version="1.0" encoding="utf-8"?>
<!-- Generator: Adobe Illustrator 18.0.0, SVG Export Plug-In . SVG Version: 6.00 Build 0)  -->
<!DOCTYPE svg PUBLIC "-//W3C//DTD SVG 1.1//EN" "http://www.w3.org/Graphics/SVG/1.1/DTD/svg11.dtd">
<svg version="1.1" id="Layer_1" xmlns="http://www.w3.org/2000/svg" xmlns:xlink="http://www.w3.org/1999/xlink" x="0px" y="0px"
	 viewBox="0 0 48 48" enable-background="new 0 0 48 48" xml:space="preserve">
<g>
	<path fill="#08826A" d="M9.1,36.8c-0.4,0-0.7-0.2-0.9-0.6c-0.2-0.5,0-1.1,0.5-1.3c0.4-0.2,9.7-4.5,18.7-1.8
		c0.5,0.2,0.8,0.7,0.7,1.2c-0.2,0.5-0.7,0.8-1.2,0.7c-8.2-2.5-17.2,1.7-17.3,1.7C9.4,36.7,9.2,36.8,9.1,36.8z"/>
	<path fill="#08826A" d="M34.4,27.6c-0.5,0-0.9-0.4-1-0.9c0-0.5-0.5-11.7,2.4-17.3c0.3-0.5,0.8-0.7,1.3-0.4c0.5,0.3,0.6,0.9,0.4,1.3
		c-2.7,5.1-2.2,16.1-2.2,16.2C35.4,27.1,35,27.5,34.4,27.6C34.5,27.6,34.5,27.6,34.4,27.6z"/>
	<path fill="#0DB89A" d="M14.9,42.3C14.9,42.3,14.9,42.3,14.9,42.3c-0.4,0-0.6-0.2-0.8-0.4c-0.6-1-1.6-1.8-4.1-0.6
		c-0.3,0.2-0.7,0.1-1-0.1c-0.5-0.4-1-0.9-1.4-1.3c-0.5-0.6-1-1.1-1.6-1.4C5.1,38,4,38.2,2.8,38.4c-0.4,0.1-0.8,0.1-1.2,0.2
		c-0.5,0.1-1-0.3-1.1-0.8c-0.1-0.5,0.2-1,0.7-1.2c2.3-0.7,6-2.2,5.8-5.4c0-0.4,0.1-0.7,0.4-0.9c0.3-0.2,0.7-0.2,1,0
		c1.1,0.6,1.7,0.8,2.3,0.5c0.6-0.3,1-0.9,1-1.3c-0.1-0.4,0.1-0.8,0.4-1c0.3-0.2,0.8-0.2,1.1,0c0.7,0.6,1.9,0.7,2.9,0.3
		c0.7-0.3,1.9-1.2,2.1-1.6c-0.1-0.5,0.1-1,0.6-1.2c0.5-0.2,1.1,0.1,1.2,0.6c0.1,0.3,0.2,0.8-0.1,1.5c-0.6,1.3-2.6,2.4-3.2,2.6
		c-1.1,0.4-2.4,0.4-3.5,0c-0.4,0.8-1,1.4-1.7,1.8c-1,0.5-2,0.4-2.8,0.1c-0.3,1.4-1.2,2.7-2.6,3.7c0.2,0.1,0.5,0.2,0.7,0.3
		c0.8,0.5,1.4,1.1,2.1,1.8c0.3,0.3,0.5,0.5,0.8,0.8c2.5-1,4.1-0.4,5.2,0.5c0.9-1,1.9-2,3.4-2.2c1.7-0.2,3.8,0.7,5.1,2.3
		c0.3,0.4,0.3,1.1-0.1,1.4c-0.4,0.3-1,0.3-1.4-0.2c-0.7-0.9-2.1-1.7-3.3-1.6c-0.9,0.1-1.6,0.9-2.4,1.8c-0.2,0.2-0.4,0.4-0.6,0.6
		C15.5,42.2,15.2,42.3,14.9,42.3z"/>
	<path fill="#0DB89A" d="M40.9,24.4c-0.2,0-0.5-0.1-0.7-0.3c-1.4-1.4-2.2-3.6-1.9-5.3c0.3-1.6,1.4-2.5,2.4-3.4
		c-0.9-1.1-1.4-2.9-0.2-5.3c-0.2-0.3-0.4-0.5-0.7-0.8c-0.6-0.7-1.2-1.3-1.6-2.2c-0.1-0.2-0.2-0.5-0.3-0.7c-1.1,1.4-2.4,2.2-3.8,2.4
		c0.2,0.9,0.3,1.9-0.3,2.9c-0.4,0.7-1.1,1.3-1.8,1.6c0.3,1.1,0.2,2.4-0.3,3.6c-0.3,0.6-1.4,2.6-2.7,3.1c-0.6,0.3-1.1,0.1-1.4,0
		c-0.5-0.2-0.7-0.8-0.5-1.3c0.2-0.5,0.7-0.7,1.2-0.5c0.4-0.1,1.4-1.3,1.7-2c0.4-1,0.4-2.3-0.2-3c-0.2-0.3-0.2-0.8,0-1.1
		c0.2-0.3,0.6-0.5,1-0.4c0.4,0.1,1-0.4,1.3-0.9c0.4-0.6,0.2-1.2-0.4-2.4c-0.2-0.3-0.1-0.7,0.1-1c0.2-0.3,0.6-0.4,0.9-0.4
		c3,0.4,4.8-3.3,5.6-5.6c0.2-0.5,0.7-0.8,1.2-0.6c0.5,0.1,0.8,0.6,0.7,1.1c-0.1,0.4-0.2,0.8-0.3,1.2c-0.3,1.2-0.5,2.3-0.1,3.3
		c0.3,0.6,0.8,1.2,1.3,1.7c0.4,0.5,0.8,1,1.2,1.5c0.2,0.3,0.2,0.7,0,1c-1.3,2.5-0.6,3.5,0.3,4.2c0.2,0.2,0.4,0.5,0.4,0.8
		c0,0.3-0.1,0.6-0.3,0.8c-0.2,0.2-0.4,0.4-0.7,0.5c-0.9,0.7-1.7,1.4-1.9,2.3c-0.2,1.3,0.5,2.7,1.3,3.5c0.4,0.4,0.4,1,0.1,1.4
		C41.4,24.3,41.1,24.4,40.9,24.4z"/>
	<path fill="#F04B36" d="M34.2,34.6c-1.3-1.2-3-1.8-4.7-1.8c-2.1,0-4,0.9-5.4,2.5c-2.6,3.1-2.3,7.7,0.7,10.4c1.3,1.2,3,1.8,4.7,1.8
		c2.1,0,4-0.9,5.4-2.5c1.3-1.5,1.9-3.4,1.7-5.3C36.5,37.7,35.6,35.9,34.2,34.6z"/>
	<path fill="#F04B36" d="M31.1,30.1c1.3-1.5,1.9-3.4,1.7-5.3c-0.1-2-1-3.7-2.5-5c-1.3-1.2-3-1.8-4.7-1.8c-2.1,0-4,0.9-5.4,2.5
		c-1.3,1.5-1.9,3.4-1.7,5.3c0.1,2,1,3.7,2.4,5c1.3,1.2,3,1.8,4.7,1.8C27.7,32.6,29.7,31.7,31.1,30.1z"/>
	<path fill="#F04B36" d="M47.5,29.4c-0.1-2-1-3.7-2.4-5c-1.3-1.2-3-1.8-4.7-1.8c-2.1,0-4,0.9-5.4,2.5c-1.3,1.5-1.9,3.4-1.7,5.3
		c0.1,2,1,3.7,2.5,5c1.3,1.2,3,1.8,4.7,1.8c2.1,0,4-0.9,5.4-2.5C47,33.3,47.6,31.4,47.5,29.4z"/>
	<path fill="#06728D" d="M22.8,23.7c-0.2,0-0.5-0.1-0.6-0.2c-0.5-0.5-5.1-4.7-4.3-8.1c0.1-0.5,0.7-0.9,1.2-0.7
		c0.5,0.1,0.8,0.7,0.7,1.2c-0.4,1.7,2.3,4.9,3.7,6.2c0.4,0.4,0.4,1,0.1,1.4C23.3,23.6,23,23.7,22.8,23.7z"/>
</g>
</svg>
