<?xml version="1.0" encoding="utf-8"?>
<!-- Generator: Adobe Illustrator 18.0.0, SVG Export Plug-In . SVG Version: 6.00 Build 0)  -->
<!DOCTYPE svg PUBLIC "-//W3C//DTD SVG 1.1//EN" "http://www.w3.org/Graphics/SVG/1.1/DTD/svg11.dtd">
<svg version="1.1" id="Layer_1" xmlns="http://www.w3.org/2000/svg" xmlns:xlink="http://www.w3.org/1999/xlink" x="0px" y="0px"
	 viewBox="0 0 48 48" enable-background="new 0 0 48 48" xml:space="preserve">
<g>
	<path fill="#F04B36" d="M38,33h-2.3C35.5,32.4,35,32,34.4,32c-0.1,0-0.3,0-0.4,0.1l-6.4-6.7h2.9l-1-1l1.9-1.9h-4l6.7-6.6
		c0.1,0,0.2,0,0.3,0c0.6,0,1.1-0.4,1.3-0.9h3.2l2.8-2.8h-5.9v-5L33,10v2.3C32.4,12.5,32,13,32,13.6c0,0.1,0,0.2,0,0.3l-6.6,6.6v-3
		l-1,1l-1.9-1.9v3.6L16,13.9c0-0.1,0-0.2,0-0.3c0-0.6-0.4-1.1-1-1.3V9.1l-2.8-2.8v5.9h-5L10,15h2.3c0.2,0.6,0.7,0.9,1.3,0.9
		c0.1,0,0.2,0,0.4-0.1l6.8,6.6c0,0,0,0,0,0h-3.3l1,1l-1.9,1.9h3.8l-6.5,6.6c-0.1,0-0.2,0-0.3,0c-0.6,0-1.1,0.4-1.3,0.9H9.1l-2.8,2.8
		h5.9v5L15,38v-2.3c0.6-0.2,1-0.7,1-1.3c0-0.1,0-0.2,0-0.3l6.6-6.7v3.1l1-1l1.9,1.9v-4l6.6,6.8c0,0.1,0,0.1,0,0.2
		c0,0.6,0.4,1.1,0.9,1.3v3.2l2.8,2.8v-5.7c0,0,0,0,0,0c0.1-0.1,0.1-0.2,0.2-0.2h4.9L38,33z"/>
	<g>
		<path fill="#0DB89A" d="M12.2,12.2V6.3L15,9.1V5.4l7.5,7.5v7.4l0,0v-3.6l1.9,1.9l1-1v-4.6L33,5.4V10l2.8-2.8V1.9
			c0-0.6-0.3-1.1-0.9-1.3c-0.5-0.2-1.1-0.1-1.6,0.3L24,10.3l-9.4-9.4c-0.4-0.4-1-0.5-1.6-0.3c-0.5,0.2-0.9,0.7-0.9,1.3L12.2,12.2
			L12.2,12.2z"/>
		<path fill="#0DB89A" d="M35.2,15.7c0.2-0.2,0.4-0.4,0.5-0.7h0C35.6,15.3,35.5,15.5,35.2,15.7z"/>
		<polygon fill="#0DB89A" points="27.4,22.6 27.4,22.6 34.1,15.9 		"/>
		<path fill="#0DB89A" d="M32,34.4L32,34.4c0,0.3,0.1,0.6,0.3,0.8C32.1,35,32,34.7,32,34.4z"/>
		<polygon fill="#0DB89A" points="32.1,13.9 32.1,13.9 25.4,20.5 		"/>
		<path fill="#0DB89A" d="M16,34.4L16,34.4c0,0.2-0.1,0.4-0.2,0.6C15.9,34.8,16,34.6,16,34.4z"/>
		<polygon fill="#0DB89A" points="25.4,27.3 32,34.2 25.4,27.3 		"/>
		<path fill="#0DB89A" d="M20.8,22.6C20.8,22.6,20.8,22.6,20.8,22.6L20.8,22.6C20.8,22.6,20.8,22.6,20.8,22.6z"/>
		<path fill="#0DB89A" d="M34,32.1L34,32.1c0.1,0,0.2,0,0.2,0C34.1,32.1,34.1,32.1,34,32.1z"/>
		<path fill="#0DB89A" d="M35.7,33c-0.1-0.2-0.2-0.4-0.4-0.5C35.5,32.6,35.7,32.8,35.7,33L35.7,33z"/>
		<path fill="#0DB89A" d="M37.7,24l9.4-9.4c0.4-0.4,0.5-1,0.3-1.6c-0.2-0.5-0.7-0.9-1.3-0.9h-4.3L38.9,15h3.7l-7.5,7.5h-3.7
			l-1.9,1.9l1,1h4.6l7.5,7.5H38l2.8,2.8h5.2c0.6,0,1.1-0.3,1.3-0.9c0.2-0.5,0.1-1.1-0.3-1.6L37.7,24z"/>
		<polygon fill="#0DB89A" points="14,15.9 16.2,18.1 14,15.9 		"/>
		<path fill="#0DB89A" d="M16,13.9c0-0.1,0-0.2,0-0.3C16,13.7,16,13.8,16,13.9L16,13.9z"/>
		<path fill="#0DB89A" d="M5.4,33l7.5-7.5h3.7l1.9-1.9l-1-1h-4.6L5.4,15H10l-2.8-2.8H1.9c-0.6,0-1.1,0.3-1.3,0.9
			c-0.2,0.5-0.1,1.1,0.3,1.6l9.4,9.4l-9.4,9.4c-0.4,0.4-0.5,1-0.3,1.6c0.2,0.5,0.7,0.9,1.3,0.9h4.3L9.1,33H5.4z"/>
		<path fill="#0DB89A" d="M33,42.6l-7.5-7.5v-3.7l-1.9-1.9l-1,1v-3.1l0,0v7.8L15,42.6V38l-2.8,2.8v-5h0v10.3c0,0.6,0.3,1.1,0.9,1.3
			c0.2,0.1,0.4,0.1,0.5,0.1c0.4,0,0.7-0.1,1-0.4l9.4-9.4l9.4,9.4c0.3,0.3,0.6,0.4,1,0.4c0.2,0,0.4,0,0.5-0.1
			c0.5-0.2,0.9-0.7,0.9-1.3v-4.3L33,38.9V42.6z"/>
	</g>
</g>
</svg>
