<?xml version="1.0" encoding="utf-8"?>
<!-- Generator: Adobe Illustrator 18.0.0, SVG Export Plug-In . SVG Version: 6.00 Build 0)  -->
<!DOCTYPE svg PUBLIC "-//W3C//DTD SVG 1.1//EN" "http://www.w3.org/Graphics/SVG/1.1/DTD/svg11.dtd">
<svg version="1.1" id="Layer_1" xmlns="http://www.w3.org/2000/svg" xmlns:xlink="http://www.w3.org/1999/xlink" x="0px" y="0px"
	 viewBox="0 0 48 48" enable-background="new 0 0 48 48" xml:space="preserve">
<g>
	<path fill="#06728D" d="M42,31.6c-1.4-0.6-3.1-1-4.8-1H10.9c-1.7,0-3.4,0.4-4.8,1c-3.3,1.4-5.5,4.2-5.5,7.5c0,4.7,4.6,8.4,10.4,8.4
		h26.3c5.7,0,10.4-3.8,10.4-8.4C47.5,35.8,45.2,33,42,31.6z"/>
	<path fill="#F04B36" d="M33.6,10.6C33.4,5,29.2,0.5,24,0.5c-5.2,0-9.4,4.5-9.6,10.1c2.8-2,6.1-3.1,9.6-3.1
		C27.5,7.5,30.8,8.6,33.6,10.6z"/>
	<path fill="#F7A93B" d="M33.6,12.7c-2.8-2-6.1-3.1-9.6-3.1c-3.5,0-6.9,1.2-9.6,3.1C9.5,16.1,6.2,22.2,6,29.1c1.4-0.6,3.1-1,4.8-1
		h26.3c1.7,0,3.4,0.4,4.8,1C41.8,22.2,38.5,16.1,33.6,12.7z"/>
</g>
</svg>
