<?xml version="1.0" encoding="utf-8"?>
<!-- Generator: Adobe Illustrator 18.0.0, SVG Export Plug-In . SVG Version: 6.00 Build 0)  -->
<!DOCTYPE svg PUBLIC "-//W3C//DTD SVG 1.1//EN" "http://www.w3.org/Graphics/SVG/1.1/DTD/svg11.dtd">
<svg version="1.1" id="Layer_1" xmlns="http://www.w3.org/2000/svg" xmlns:xlink="http://www.w3.org/1999/xlink" x="0px" y="0px"
	 viewBox="0 0 48 48" enable-background="new 0 0 48 48" xml:space="preserve">
<g>
	<circle fill="#F04B36" cx="29.6" cy="15.6" r="5.8"/>
	<path fill="#F7A93B" d="M46.8,16.4L39,14.1c-1.5-5.4-6.4-9.4-12.3-9.4c-7,0-12.7,5.7-12.7,12.7c0,0.6,0,1.3,0.1,1.9
		c-0.9,2.7-3,6.9-6.7,6.9h0c-1.2,0-2.5-0.4-3.9-1.3c-0.1,0-0.5-0.3-1.1-0.3c-0.6,0-1.1,0.2-1.4,0.7c-0.7,1-0.7,2.7,0.1,5.6
		C3,37.7,12,43.3,20.7,43.3c0,0,0,0,0,0c4.9,0,9.2-1.7,12.3-5c3.5-3.6,5.6-8.9,6.2-15.8l7.7-4.5c0.3-0.2,0.5-0.6,0.5-1
		C47.4,16.8,47.2,16.5,46.8,16.4z M18.3,35.9L18.3,35.9c-3.5,0-6.5-1.8-7.2-4.4c-0.4-1.3-0.3-2.1,0.1-2.6c0.2-0.3,0.6-0.5,1-0.5
		c0.3,0,0.6,0.1,0.7,0.2c0.4,0.3,0.8,0.4,1.1,0.4c0.9,0,1.5-1.2,1.8-2c0-0.2,0-0.4,0-0.6c0-2.9,2.4-5.3,5.3-5.3c1.5,0,3,0.7,4.2,1.9
		c1.1,1.1,1.6,2.5,1.6,3.8C26.6,33.5,22.1,35.9,18.3,35.9z M29.6,19.4c-2.2,0-4-1.8-4-4c0-2.2,1.8-4,4-4c2.2,0,4,1.8,4,4
		C33.6,17.6,31.8,19.4,29.6,19.4z"/>
</g>
</svg>
