<?xml version="1.0" encoding="utf-8"?>
<!-- Generator: Adobe Illustrator 18.0.0, SVG Export Plug-In . SVG Version: 6.00 Build 0)  -->
<!DOCTYPE svg PUBLIC "-//W3C//DTD SVG 1.1//EN" "http://www.w3.org/Graphics/SVG/1.1/DTD/svg11.dtd">
<svg version="1.1" id="Layer_1" xmlns="http://www.w3.org/2000/svg" xmlns:xlink="http://www.w3.org/1999/xlink" x="0px" y="0px"
	 viewBox="0 0 48 48" enable-background="new 0 0 48 48" xml:space="preserve">
<g>
	<path fill="#06728D" d="M42.3,7h-1.8v40.5h1.8c2.9,0,5.2-2.3,5.2-5.1V12.1C47.5,9.3,45.2,7,42.3,7z"/>
	<path fill="#06728D" d="M0.5,12.1v30.2c0,2.8,2.3,5.1,5.2,5.1h1.8V7H5.7C2.8,7,0.5,9.3,0.5,12.1z"/>
	<path fill="#294E58" d="M32.5,5.3c0.4-0.8,0.4-1.6,0.1-2.4c-0.7-1.6-2-2.5-3.5-2.4c-2,0.1-3.8,1.8-5,4.7c-1.2-2.8-3-4.5-5-4.7
		c-1.5-0.1-2.8,0.8-3.5,2.4c-0.4,0.8-0.3,1.7,0.1,2.4c0.4,0.7,1,1.2,1.8,1.7h-6.9v40.5h27.1V7h-6.9C31.5,6.5,32.1,6,32.5,5.3z
		 M29.1,2.4c0,0,0.1,0,0.1,0c0.9,0,1.3,0.8,1.5,1.2c0.1,0.3,0.1,0.5,0,0.7c-0.6,1.1-3.3,2-5.3,2.4C26.5,3.9,28,2.5,29.1,2.4z
		 M17.2,3.7c0.2-0.5,0.7-1.2,1.5-1.2c0,0,0.1,0,0.1,0c1.1,0.1,2.6,1.5,3.7,4.4c-2-0.4-4.8-1.3-5.3-2.4C17.1,4.2,17.1,3.9,17.2,3.7z"
		/>
	<path fill="#E77528" d="M30.7,7H17.3c0,0,0,0,0,0h-6.9v40.5h27.1V7L30.7,7C30.7,7,30.7,7,30.7,7z"/>
</g>
</svg>
