<?xml version="1.0" encoding="utf-8"?>
<!-- Generator: Adobe Illustrator 18.0.0, SVG Export Plug-In . SVG Version: 6.00 Build 0)  -->
<!DOCTYPE svg PUBLIC "-//W3C//DTD SVG 1.1//EN" "http://www.w3.org/Graphics/SVG/1.1/DTD/svg11.dtd">
<svg version="1.1" id="Layer_1" xmlns="http://www.w3.org/2000/svg" xmlns:xlink="http://www.w3.org/1999/xlink" x="0px" y="0px"
	 viewBox="0 0 48 48" enable-background="new 0 0 48 48" xml:space="preserve">
<path fill="#F7A93B" d="M47.4,21.5c-0.1-0.3-0.3-0.4-0.6-0.5c-1.8-0.6-3.8-0.8-5.9-0.8c-0.7,0-1.4,0-2,0.1c3.1-5,3-11.3,3-11.6
	c0-0.3-0.1-0.6-0.4-0.7s-0.5-0.2-0.8-0.2c-4.6,1.1-7.6,3.4-9.3,5.3c-0.6-6.4-5.9-12-6.2-12.2c-0.2-0.2-0.4-0.3-0.7-0.3
	c-0.3,0-0.5,0.1-0.7,0.3c-3.6,3.8-4.7,8.6-5,11.8C15.2,8.6,9,8,8.7,8C8.5,7.9,8.2,8,8,8.2C7.8,8.4,7.7,8.7,7.7,9
	c0.1,4.4,1.1,7.6,2.3,9.7c-0.6-0.1-1.3-0.2-1.9-0.2c-3.7,0-6.9,1.9-7.1,2c-0.4,0.2-0.5,0.6-0.4,1c1.3,6,7,8.5,10.4,9.5
	C9.7,32.2,9.1,34,9,34.3c-0.2,0.5,0.1,1,0.5,1.2c3.6,1.5,6.7,2.3,9.2,2.3h0c2.3,0,4-0.6,5.1-1.5V46c0,0.8,0.7,1.5,1.5,1.5
	c0.8,0,1.5-0.7,1.5-1.5V35.9c1.6,1.1,3.6,1.6,5.9,1.6c4.6,0,8.8-2.2,9-2.3c0.2-0.1,0.4-0.3,0.5-0.6c0.1-0.3,0-0.5-0.1-0.8
	c-0.7-1.3-1.9-2.2-3-2.7c5.6-2.8,8.3-8.6,8.4-8.8C47.5,22.1,47.5,21.8,47.4,21.5z"/>
</svg>
