<?xml version="1.0" encoding="utf-8"?>
<!-- Generator: Adobe Illustrator 18.0.0, SVG Export Plug-In . SVG Version: 6.00 Build 0)  -->
<!DOCTYPE svg PUBLIC "-//W3C//DTD SVG 1.1//EN" "http://www.w3.org/Graphics/SVG/1.1/DTD/svg11.dtd">
<svg version="1.1" id="Layer_1" xmlns="http://www.w3.org/2000/svg" xmlns:xlink="http://www.w3.org/1999/xlink" x="0px" y="0px"
	 viewBox="0 0 48 48" enable-background="new 0 0 48 48" xml:space="preserve">
<g>
	<rect x="14.2" y="18.6" fill="#F04B36" width="19.6" height="6.9"/>
	<path fill="none" d="M34.7,30.7L30,33.1l-5.9-3.9l-6.3,3.8l-4.2-2.9c-0.7-0.5-1.6-0.3-2,0.4c-0.5,0.7-0.3,1.6,0.4,2l5.8,4l6.4-3.8
		l5.8,3.8l6.2-3.2c0.7-0.4,1-1.3,0.6-2C36.3,30.6,35.4,30.3,34.7,30.7z"/>
	<circle fill="none" cx="29.9" cy="22" r="2.1"/>
	<path fill="none" d="M18.2,24.1c1.2,0,2.1-1,2.1-2.1c0-1.2-0.9-2.1-2.1-2.1c-1.2,0-2.1,1-2.1,2.1C16,23.1,17,24.1,18.2,24.1z"/>
	<path fill="#06728D" d="M24.9,11.2c0-0.2,0.1-0.4,0-0.6c0-0.1-1.2-3.4,2.7-5.3c0.5-0.2,0.7-0.8,0.4-1.3c-0.2-0.5-0.8-0.7-1.3-0.4
		c-4.2,2.1-4.3,5.8-3.7,7.6L24.9,11.2C24.9,11.2,24.9,11.2,24.9,11.2z"/>
	<path fill="#4DA0D8" d="M36.3,11.2c-2.2,0-4.3,0.9-6.1,2.8c-1.6-1.6-3.4-2.5-5.2-2.7l-1.9,0c0,0,0,0,0,0c-1.9,0.2-3.6,1.2-5.2,2.7
		c-1.9-1.9-4-2.8-6.2-2.8c-6.2,0-11.2,7.5-11.2,16.7c0,9.2,5,16.7,11.2,16.7c2.2,0,4.3-1,6.2-2.8c1.8,1.9,4,2.8,6.2,2.8
		c2.2,0,4.3-0.9,6.1-2.8c1.8,1.8,3.9,2.8,6.1,2.8c6.2,0,11.2-7.5,11.2-16.7C47.5,18.6,42.5,11.2,36.3,11.2z M29.9,19.8
		c1.2,0,2.1,1,2.1,2.1c0,1.2-1,2.1-2.1,2.1c-1.2,0-2.1-1-2.1-2.1C27.8,20.8,28.8,19.8,29.9,19.8z M18.2,19.8c1.2,0,2.1,1,2.1,2.1
		c0,1.2-0.9,2.1-2.1,2.1c-1.2,0-2.1-1-2.1-2.1C16,20.8,17,19.8,18.2,19.8z M36.1,33.2l-6.2,3.2L24,32.7l-6.4,3.8l-5.8-4
		c-0.7-0.5-0.8-1.4-0.4-2c0.5-0.7,1.4-0.8,2-0.4l4.2,2.9l6.3-3.8l5.9,3.9l4.7-2.5c0.7-0.4,1.6-0.1,2,0.6
		C37.1,32,36.8,32.9,36.1,33.2z"/>
</g>
</svg>
