<?xml version="1.0" encoding="utf-8"?>
<!-- Generator: Adobe Illustrator 18.0.0, SVG Export Plug-In . SVG Version: 6.00 Build 0)  -->
<!DOCTYPE svg PUBLIC "-//W3C//DTD SVG 1.1//EN" "http://www.w3.org/Graphics/SVG/1.1/DTD/svg11.dtd">
<svg version="1.1" id="Layer_1" xmlns="http://www.w3.org/2000/svg" xmlns:xlink="http://www.w3.org/1999/xlink" x="0px" y="0px"
	 viewBox="0 0 48 48" enable-background="new 0 0 48 48" xml:space="preserve">
<g>
	<rect x="14.8" y="18.5" fill="#F04B36" width="19.6" height="6.9"/>
	<path fill="none" d="M18.2,24.1c1.2,0,2.1-1,2.1-2.1c0-1.2-1-2.1-2.1-2.1c-1.2,0-2.1,1-2.1,2.1C16.1,23.1,17,24.1,18.2,24.1z"/>
	<path fill="none" d="M31.1,28.6c-0.8-0.1-1.5,0.5-1.6,1.3c-0.2,1.9-0.8,3.3-1.5,3.5c-1.2,0.4-2.9-0.2-3.6-1
		c-1.2-1.2-2.6-2.6-4.9-3.1c-1.3-0.3-3.2-0.1-4.4,1c-0.9,0.8-1.3,1.9-1.2,3.1c0.1,0.8,0.8,1.4,1.6,1.3c0.8-0.1,1.4-0.8,1.3-1.6
		c0-0.4,0.1-0.6,0.2-0.7c0.4-0.3,1.2-0.5,1.9-0.3c1.3,0.3,2.2,1,3.4,2.3c1.2,1.2,3.1,2,4.9,2c0.6,0,1.1-0.1,1.6-0.2
		c1.9-0.6,3.2-2.7,3.6-5.9C32.5,29.4,31.9,28.7,31.1,28.6z"/>
	<circle fill="none" cx="29.9" cy="22" r="2.1"/>
	<path fill="#06728D" d="M24.9,10.6c0-0.1-1.2-3.4,2.7-5.3c0.5-0.2,0.7-0.8,0.4-1.3c-0.2-0.5-0.8-0.7-1.3-0.4
		c-4.2,2.1-4.3,5.8-3.7,7.6l1.9,0C25,11,25,10.8,24.9,10.6z"/>
	<path fill="#0DB89A" d="M36.3,11.2c-2.2,0-4.3,1-6.1,2.8c-1.6-1.6-3.4-2.5-5.3-2.7l-1.9,0c-1.9,0.2-3.6,1.2-5.2,2.8
		c-1.9-1.9-4-2.8-6.2-2.8c-6.2,0-11.2,7.5-11.2,16.7c0,9.2,5,16.7,11.2,16.7c2.2,0,4.3-1,6.2-2.8c1.9,1.9,4,2.8,6.2,2.8
		c2.2,0,4.3-0.9,6.1-2.8c1.8,1.8,3.9,2.8,6.1,2.8c6.2,0,11.2-7.5,11.2-16.7C47.5,18.6,42.5,11.2,36.3,11.2z M29.9,19.8
		c1.2,0,2.1,1,2.1,2.1c0,1.2-1,2.1-2.1,2.1c-1.2,0-2.1-1-2.1-2.1C27.8,20.8,28.8,19.8,29.9,19.8z M18.2,19.8c1.2,0,2.1,1,2.1,2.1
		c0,1.2-1,2.1-2.1,2.1c-1.2,0-2.1-1-2.1-2.1C16.1,20.8,17,19.8,18.2,19.8z M32.4,30.2c-0.4,3.3-1.6,5.4-3.6,5.9
		c-0.5,0.1-1,0.2-1.6,0.2c-1.8,0-3.7-0.7-4.9-2c-1.2-1.2-2.1-2-3.4-2.3c-0.7-0.1-1.5,0-1.9,0.3c-0.1,0.1-0.2,0.3-0.2,0.7
		c0.1,0.8-0.5,1.5-1.3,1.6c-0.8,0.1-1.5-0.5-1.6-1.3c-0.1-1.2,0.3-2.3,1.2-3.1c1.3-1.1,3.1-1.3,4.4-1c2.3,0.5,3.7,1.9,4.9,3.1
		c0.8,0.8,2.4,1.4,3.6,1c0.7-0.2,1.3-1.6,1.5-3.5c0.1-0.8,0.8-1.4,1.6-1.3C31.9,28.7,32.5,29.4,32.4,30.2z"/>
</g>
</svg>
