<?xml version="1.0" encoding="utf-8"?>
<!-- Generator: Adobe Illustrator 18.0.0, SVG Export Plug-In . SVG Version: 6.00 Build 0)  -->
<!DOCTYPE svg PUBLIC "-//W3C//DTD SVG 1.1//EN" "http://www.w3.org/Graphics/SVG/1.1/DTD/svg11.dtd">
<svg version="1.1" id="Layer_1" xmlns="http://www.w3.org/2000/svg" xmlns:xlink="http://www.w3.org/1999/xlink" x="0px" y="0px"
	 viewBox="0 0 48 48" enable-background="new 0 0 48 48" xml:space="preserve">
<g>
	<path fill="#E77528" d="M46,25.1l-4,0.3l5-3.8c0.6-0.5,0.7-1.4,0.3-2c-0.5-0.6-1.4-0.7-2-0.3l-8.7,6.7c0,0,0,0,0,0l-10.6,8.2V18.6
		l5.8-6.3l6.9-1.2c0.8-0.1,1.3-0.9,1.2-1.6c-0.1-0.8-0.9-1.3-1.6-1.2l-3.2,0.6L37,6.6c0.5-0.6,0.5-1.5-0.1-2c-0.6-0.5-1.5-0.5-2,0.1
		l-2.6,2.8c0-1.9,0-3.6,0-4c0.2-0.7-0.1-1.4-0.8-1.7c-0.7-0.3-1.6,0-1.9,0.7c-0.1,0.3-0.4,0.8-0.1,8l-3.7,3.9V1.9
		c0-0.8-0.6-1.4-1.4-1.4c-0.8,0-1.4,0.6-1.4,1.4v12.7l-6.1-6.1V1.9c0-0.8-0.6-1.4-1.4-1.4c-0.8,0-1.4,0.6-1.4,1.4v3.7L11.4,3
		c-0.6-0.6-1.5-0.6-2,0c-0.6,0.6-0.6,1.5,0,2l3.4,3.4L8.2,9.7c-0.8,0.2-1.2,1-1,1.8c0.2,0.6,0.7,1,1.4,1c0.1,0,0.3,0,0.4-0.1
		l6.1-1.7l8,8v15.5L2.8,19.2c-0.6-0.5-1.5-0.3-2,0.3c-0.5,0.6-0.3,1.5,0.3,2l5.6,4.1l-4.6-0.5c-0.8-0.1-1.5,0.5-1.6,1.3
		c-0.1,0.8,0.5,1.5,1.3,1.6l9.5,1.1l4.6,3.4h-4.8c-0.8,0-1.4,0.6-1.4,1.4c0,0.8,0.6,1.4,1.4,1.4h8c0.2,0,0.4,0,0.5-0.1l3.4,2.5v8.4
		c0,0.8,0.6,1.4,1.4,1.4c0.8,0,1.4-0.6,1.4-1.4v-8.3l12-9.3l8.3-0.5c0.8-0.1,1.4-0.7,1.3-1.5C47.4,25.6,46.8,25,46,25.1z"/>
	<ellipse fill="#4DA0D8" cx="18.1" cy="21.3" rx="2.6" ry="2.6"/>
	<ellipse fill="#0DB89A" cx="28.7" cy="21.6" rx="1.4" ry="1.4"/>
	<ellipse fill="#0DB89A" cx="39" cy="15.3" rx="2.1" ry="2"/>
	<ellipse fill="#ED9322" cx="10.6" cy="14.6" rx="1.4" ry="1.4"/>
	<ellipse fill="#F04B36" cx="9.2" cy="31.2" rx="1.4" ry="1.4"/>
	<ellipse fill="#0DB89A" cx="32.6" cy="37.3" rx="2.4" ry="2.4"/>
	<ellipse fill="#F04B36" cx="38.1" cy="30" rx="1.2" ry="1.2"/>
</g>
</svg>
