<?xml version="1.0" encoding="utf-8"?>
<!-- Generator: Adobe Illustrator 18.0.0, SVG Export Plug-In . SVG Version: 6.00 Build 0)  -->
<!DOCTYPE svg PUBLIC "-//W3C//DTD SVG 1.1//EN" "http://www.w3.org/Graphics/SVG/1.1/DTD/svg11.dtd">
<svg version="1.1" id="Layer_1" xmlns="http://www.w3.org/2000/svg" xmlns:xlink="http://www.w3.org/1999/xlink" x="0px" y="0px"
	 viewBox="0 0 48 48" enable-background="new 0 0 48 48" xml:space="preserve">
<g>
	<path fill="#0DB89A" d="M26.7,28l-8.2-8l-8.8,1.4c-0.1,0-0.2,0-0.2,0c-0.7,0-1.3-0.5-1.4-1.1c-0.1-0.7,0.4-1.4,1.1-1.6l6.8-1.1
		l-9-8.7C6.6,8.4,6.6,7.5,7.1,7c0.5-0.5,1.4-0.5,2,0L12,9.8l0-3.4C12,5.6,12.6,5,13.4,5c0,0,0,0,0,0c0.8,0,1.4,0.6,1.4,1.3l0.1,6.2
		l5.2,5c0,0,0,0,0,0l1,1l-1.5-5.9c-0.2-0.7,0.3-1.5,1-1.7c0.7-0.2,1.5,0.3,1.7,1l2.6,10.3l3.9,3.8c0.1,0.1,0.1,0.1,0.1,0.2
		c0-0.1,0-0.2,0-0.3c0-2.1,0.8-4.1,2.4-5.6c0.4-0.4,0.8-0.7,1.3-1c-1.7-1.1-2.9-2.8-3.4-4.7c-0.3-1.2-0.2-2.5,0.2-3.6
		c0.1-0.3,0.1-0.6-0.1-0.8C29,10,28.7,9.8,28.4,9.8c-2.9-0.2-5.6-2.3-6.5-5.1c-0.1-0.2-0.3-0.4-0.5-0.5c-0.2-0.1-0.5-0.1-0.7,0
		c-0.5,0.2-1,0.3-1.5,0.4c-2.4,0.4-5-0.7-6.7-2.7c-0.2-0.2-0.4-0.3-0.6-0.3c-0.3,0-0.5,0.1-0.7,0.2c-0.9,0.7-1.9,1.2-3.1,1.4
		c-0.1,0-0.3,0-0.4,0C6.7,3.1,5,2.7,2,0.7C1.6,0.4,1.1,0.5,0.8,0.8C0.5,1.1,0.4,1.6,0.7,1.9c2.3,3.3,2.6,5,2.5,6
		C3,9,2.5,10.1,1.7,10.9c-0.2,0.2-0.3,0.4-0.2,0.7c0,0.2,0.1,0.5,0.3,0.6c2.1,1.6,3.1,4.1,2.8,6.5c-0.1,0.5-0.2,0.9-0.4,1.4
		c-0.1,0.2-0.1,0.5,0,0.7c0.1,0.2,0.3,0.4,0.6,0.5c2.9,0.9,5,3.5,5.3,6.4c0,0.3,0.2,0.5,0.4,0.7c0.2,0.2,0.5,0.2,0.8,0.1
		c1.2-0.4,2.5-0.4,3.7-0.2c2,0.4,3.7,1.7,4.8,3.4c0.3-0.5,0.7-1,1.2-1.4C22.5,28.8,24.5,28,26.7,28z"/>
	<ellipse fill="#F04B36" cx="38.9" cy="28.4" rx="8.3" ry="8.1"/>
	<ellipse fill="#E43126" cx="28.7" cy="38.8" rx="7.8" ry="7.7"/>
	<ellipse fill="#D12627" cx="40.3" cy="40.4" rx="7.2" ry="7.1"/>
</g>
</svg>
