<?xml version="1.0" encoding="utf-8"?>
<!-- Generator: Adobe Illustrator 18.0.0, SVG Export Plug-In . SVG Version: 6.00 Build 0)  -->
<!DOCTYPE svg PUBLIC "-//W3C//DTD SVG 1.1//EN" "http://www.w3.org/Graphics/SVG/1.1/DTD/svg11.dtd">
<svg version="1.1" id="Layer_1" xmlns="http://www.w3.org/2000/svg" xmlns:xlink="http://www.w3.org/1999/xlink" x="0px" y="0px"
	 viewBox="0 0 48 48" enable-background="new 0 0 48 48" xml:space="preserve">
<g>
	<path fill="#294E58" d="M10.6,0.5C8.8,0.5,7.2,1,5.7,2c-4,2.7-5.1,8.1-2.4,12.2c0.2,0.3,0.5,0.4,0.8,0.4c0.2,0,0.4-0.1,0.5-0.2
		l12.9-8.7c0.4-0.3,0.6-0.9,0.3-1.3C16.2,2,13.5,0.5,10.6,0.5z"/>
	<path fill="#294E58" d="M42.3,2c-1.4-1-3.1-1.5-4.9-1.5c-2.9,0-5.7,1.5-7.3,3.9c-0.3,0.4-0.2,1,0.3,1.3l12.9,8.7
		c0.2,0.1,0.4,0.2,0.5,0.2c0.3,0,0.6-0.2,0.8-0.4C47.4,10.1,46.3,4.7,42.3,2z"/>
	<path fill="#F04B36" d="M9.9,47.5c-0.2,0-0.4-0.1-0.6-0.2C8.9,47,8.8,46.4,9.1,46l3-4.1c0.3-0.4,0.9-0.5,1.4-0.2
		c0.4,0.3,0.5,0.9,0.2,1.4l-3,4.1C10.5,47.4,10.2,47.5,9.9,47.5z"/>
	<path fill="#F04B36" d="M38.1,47.5c-0.3,0-0.6-0.1-0.8-0.4l-3-4.1c-0.3-0.4-0.2-1,0.2-1.4c0.4-0.3,1-0.2,1.4,0.2l3,4.1
		c0.3,0.4,0.2,1-0.2,1.4C38.5,47.4,38.3,47.5,38.1,47.5z"/>
	<path fill="#4DA0D8" d="M24,6.6c-11.1,0-20.1,9-20.1,20.2c0,11.1,9,20.2,20.1,20.2c11.1,0,20.1-9,20.1-20.2
		C44.1,15.6,35.1,6.6,24,6.6z M10.1,27.7H7.3c-0.5,0-1-0.4-1-1s0.4-1,1-1h2.8c0.5,0,1,0.4,1,1S10.6,27.7,10.1,27.7z M25,43.5
		c0,0.5-0.4,1-1,1c-0.5,0-1-0.4-1-1v-2.8c0-0.5,0.4-1,1-1c0.5,0,1,0.4,1,1V43.5z M25,26.7c0,0.5-0.4,1-1,1c-0.5,0-1-0.4-1-1V16
		c0-0.5,0.4-1,1-1c0.5,0,1,0.4,1,1V26.7z M25,12.8c0,0.5-0.4,1-1,1c-0.5,0-1-0.4-1-1V10c0-0.5,0.4-1,1-1c0.5,0,1,0.4,1,1V12.8z
		 M40.7,27.7h-2.8c-0.5,0-1-0.4-1-1s0.4-1,1-1h2.8c0.5,0,1,0.4,1,1S41.3,27.7,40.7,27.7z"/>
</g>
</svg>
