<?xml version="1.0" encoding="utf-8"?>
<!-- Generator: Adobe Illustrator 18.0.0, SVG Export Plug-In . SVG Version: 6.00 Build 0)  -->
<!DOCTYPE svg PUBLIC "-//W3C//DTD SVG 1.1//EN" "http://www.w3.org/Graphics/SVG/1.1/DTD/svg11.dtd">
<svg version="1.1" id="Layer_1" xmlns="http://www.w3.org/2000/svg" xmlns:xlink="http://www.w3.org/1999/xlink" x="0px" y="0px"
	 viewBox="0 0 48 48" enable-background="new 0 0 48 48" xml:space="preserve">
<g>
	<path fill="#0DB89A" d="M47.5,8.8c-0.1-0.8-0.8-1.3-1.6-1.2c-2.3,0.3-4.5,0.8-6.6,1.4L42,5.9c0.5-0.6,0.5-1.5-0.1-2
		c-0.6-0.5-1.5-0.5-2,0.1l-6,6.9c-2.6,1.1-5,2.3-7.2,3.7l1.6-7.8c0.2-0.8-0.3-1.5-1.1-1.7c-0.8-0.2-1.5,0.3-1.7,1.1l-2.1,10.5
		c0,0,0,0.1,0,0.1c-2.7,2-5.1,4.2-7.3,6.5c-0.3,0.1-0.5,0.4-0.6,0.7c-0.6,0.7-1.2,1.3-1.8,2c0.3-1.8,0.5-3.6,0.6-5.3l7-9.5
		c0.5-0.6,0.3-1.5-0.3-2c-0.6-0.5-1.5-0.3-2,0.3l-4.8,6.4c-0.1-1.6-0.3-3.1-0.5-4.5l3.8-9c0.3-0.7,0-1.6-0.7-1.9
		c-0.7-0.3-1.6,0-1.9,0.7l-2.2,5.2c-0.8-3-1.5-4.9-1.6-5.2C10.8,0.7,10,0.3,9.3,0.6C8.5,0.9,8.2,1.7,8.5,2.5c0,0.1,1.1,2.6,1.9,6.5
		L3.1,6C2.4,5.7,1.6,6.1,1.3,6.8C1,7.5,1.3,8.4,2.1,8.7l8.9,3.7c0.2,1.7,0.4,3.5,0.4,5.4l-6-3.6c-0.7-0.4-1.5-0.2-2,0.5
		c-0.4,0.7-0.2,1.5,0.5,2l7.5,4.5c-0.1,2.6-0.6,5.3-1.4,7.9l-5.5-7.1c-0.5-0.6-1.4-0.7-2-0.3c-0.6,0.5-0.7,1.4-0.3,2l6.4,8.3
		C8.7,31.9,8.8,32,8.9,32c-0.1,0.3-0.2,0.5-0.4,0.8c0,0,0,0.1-0.1,0.2c-1,1.6-1.9,3.1-2.7,4.5l-2.6-4.7c-0.4-0.7-1.2-0.9-1.9-0.6
		c-0.7,0.4-0.9,1.2-0.6,1.9l3.5,6.4c-1.5,3-2.1,5-2.2,5c-0.2,0.7,0.2,1.6,0.9,1.8c0.1,0.1,0.3,0.1,0.5,0.1c0.6,0,1.2-0.4,1.4-1
		c0-0.1,0.8-2.2,2.3-5.4l4.2,2.1c0.2,0.1,0.4,0.1,0.6,0.1c0.5,0,1-0.3,1.3-0.8c0.4-0.7,0.1-1.6-0.6-1.9l-3.2-1.6
		c1.1-0.7,2.7-1.6,4.6-2.5l3.2,5.6c0.3,0.5,0.7,0.7,1.2,0.7c0.2,0,0.5-0.1,0.7-0.2c0.7-0.4,0.9-1.3,0.5-1.9l-3-5.3
		c1.8-0.7,3.8-1.3,6.1-1.7l3.2,5.6c0.3,0.5,0.7,0.7,1.2,0.7c0.2,0,0.5-0.1,0.7-0.2c0.7-0.4,0.9-1.3,0.5-1.9l-2.7-4.7
		c1.9-0.2,3.9-0.3,6-0.2l2.3,6.1c0.2,0.6,0.8,0.9,1.3,0.9c0.2,0,0.3,0,0.5-0.1c0.7-0.3,1.1-1.1,0.8-1.8l-1.8-4.8
		c2.2,0.3,4.4,0.7,6.7,1.5c0.8,0.2,1.5-0.2,1.8-0.9c0.2-0.8-0.2-1.5-0.9-1.8c-1.9-0.6-3.8-1-5.6-1.4l6-3.6c0.7-0.4,0.9-1.3,0.5-2
		c-0.4-0.7-1.3-0.9-2-0.5l-9.1,5.5c-5.1-0.3-9.6,0.4-13.4,1.5l2.4-2.8c0.5-0.6,0.5-1.5-0.1-2c-0.6-0.5-1.5-0.5-2,0.1l-5.6,6.3
		c-0.1,0.1-0.2,0.2-0.2,0.4c-1,0.5-2,0.9-2.8,1.4c1.8-2.9,4.1-6,6.9-9l11.4,0.5c0,0,0,0,0.1,0c0.8,0,1.4-0.6,1.4-1.4
		c0-0.8-0.6-1.4-1.4-1.5l-8.8-0.4c1.7-1.6,3.5-3.1,5.5-4.6l12.7,3.8c0.1,0,0.3,0.1,0.4,0.1c0.6,0,1.2-0.4,1.4-1
		c0.2-0.8-0.2-1.5-1-1.8l-10.4-3.1c1.9-1.2,4-2.2,6.1-3.1l9.8,3.6c0.2,0.1,0.3,0.1,0.5,0.1c0.6,0,1.1-0.4,1.3-0.9
		c0.3-0.7-0.1-1.6-0.9-1.8L39,12.1c2.3-0.7,4.7-1.3,7.3-1.6C47,10.3,47.6,9.6,47.5,8.8z"/>
</g>
</svg>
