<?xml version="1.0" encoding="utf-8"?>
<!-- Generator: Adobe Illustrator 18.0.0, SVG Export Plug-In . SVG Version: 6.00 Build 0)  -->
<!DOCTYPE svg PUBLIC "-//W3C//DTD SVG 1.1//EN" "http://www.w3.org/Graphics/SVG/1.1/DTD/svg11.dtd">
<svg version="1.1" id="Layer_1" xmlns="http://www.w3.org/2000/svg" xmlns:xlink="http://www.w3.org/1999/xlink" x="0px" y="0px"
	 viewBox="0 0 48 48" enable-background="new 0 0 48 48" xml:space="preserve">
<g>
	<path fill="#0DB89A" d="M45.9,40.2L32.5,24.3v-3.2h-17v3.2L2.1,40.2c-2,2.4-1.6,4.1-1.3,4.9c0.7,1.6,2.6,2.4,5.3,2.4h35.8
		c2.7,0,4.6-0.9,5.3-2.4C47.6,44.2,47.9,42.5,45.9,40.2z M21.8,30.2l-9.7,12.1c-0.2,0.2-0.5,0.4-0.8,0.4c-0.2,0-0.4-0.1-0.6-0.2
		c-0.4-0.3-0.5-0.9-0.2-1.4L20.3,29c0.3-0.4,0.9-0.5,1.4-0.2C22.1,29.2,22.1,29.8,21.8,30.2z"/>
	<path fill="#CFD0D1" d="M15.5,9.3v9.8h17V9.3c2.1-0.5,3.6-2.2,3.6-4.2V4.9c0-2.4-2.2-4.4-4.8-4.4H16.8c-2.7,0-4.8,2-4.8,4.4v0.3
		C11.9,7.1,13.4,8.8,15.5,9.3z"/>
</g>
</svg>
