<?xml version="1.0" encoding="utf-8"?>
<!-- Generator: Adobe Illustrator 18.0.0, SVG Export Plug-In . SVG Version: 6.00 Build 0)  -->
<!DOCTYPE svg PUBLIC "-//W3C//DTD SVG 1.1//EN" "http://www.w3.org/Graphics/SVG/1.1/DTD/svg11.dtd">
<svg version="1.1" id="Layer_1" xmlns="http://www.w3.org/2000/svg" xmlns:xlink="http://www.w3.org/1999/xlink" x="0px" y="0px"
	 viewBox="0 0 48 48" enable-background="new 0 0 48 48" xml:space="preserve">
<g>
	<circle fill="#4DA0D8" cx="24" cy="24" r="3.4"/>
	<g>
		<path fill="#06728D" d="M24,34.4C10.8,34.4,0.5,29.9,0.5,24c0-5.9,10.3-10.4,23.5-10.4c13.2,0,23.5,4.6,23.5,10.4
			C47.5,29.9,37.2,34.4,24,34.4z M24,15.5c-12.9,0-21.5,4.4-21.5,8.5c0,4.1,8.7,8.5,21.5,8.5s21.5-4.4,21.5-8.5
			C45.5,19.9,36.9,15.5,24,15.5z"/>
	</g>
	<g>
		<path fill="#F04B36" d="M33,29.2c-6.6,11.4-15.7,18.1-20.8,15.1C7.2,41.4,8.4,30.2,15,18.8S30.7,0.7,35.8,3.6
			C40.8,6.6,39.6,17.8,33,29.2z M16.7,19.8c-6.4,11.2-7,20.8-3.4,22.9c3.5,2,11.7-3.3,18.1-14.4c6.4-11.2,7-20.8,3.4-22.9
			C31.2,3.3,23.1,8.6,16.7,19.8z"/>
	</g>
	<g>
		<path fill="#0DB89A" d="M33,18.8c6.6,11.4,7.8,22.6,2.7,25.6c-5.1,2.9-14.2-3.7-20.8-15.1S7.2,6.6,12.3,3.6
			C17.3,0.7,26.5,7.4,33,18.8z M16.7,28.2c6.4,11.2,14.6,16.5,18.1,14.4c3.5-2,3-11.7-3.4-22.9C24.9,8.6,16.8,3.3,13.2,5.3
			C9.7,7.4,10.2,17.1,16.7,28.2z"/>
	</g>
</g>
</svg>
