<?xml version="1.0" encoding="utf-8"?>
<!-- Generator: Adobe Illustrator 18.0.0, SVG Export Plug-In . SVG Version: 6.00 Build 0)  -->
<!DOCTYPE svg PUBLIC "-//W3C//DTD SVG 1.1//EN" "http://www.w3.org/Graphics/SVG/1.1/DTD/svg11.dtd">
<svg version="1.1" id="Layer_1" xmlns="http://www.w3.org/2000/svg" xmlns:xlink="http://www.w3.org/1999/xlink" x="0px" y="0px"
	 viewBox="0 0 48 48" enable-background="new 0 0 48 48" xml:space="preserve">
<g>
	<path fill="#E77528" d="M7.5,17.4c-0.5,0-0.9-0.3-1-0.8c-0.1-0.5,0.2-1.1,0.8-1.2l5.4-1.1c-0.9-2.4-3.2-4.1-5.9-4.1
		c-3.5,0-6.3,2.8-6.3,6.3c0,3.5,2.8,6.3,6.3,6.3c3.5,0,6.3-2.8,6.3-6.3c0-0.1,0-0.2,0-0.3l-5.4,1.1C7.7,17.3,7.6,17.4,7.5,17.4z"/>
	<path fill="#F04B36" d="M22.8,39.6c-0.1,0-0.1,0-0.2,0c-0.5-0.1-0.9-0.6-0.8-1.2l0.6-3.1c-0.1,0-0.2,0-0.4,0c-2.4,0-4.4,2-4.4,4.4
		c0,2.4,2,4.4,4.4,4.4c2.4,0,4.4-2,4.4-4.4c0-1.6-0.9-3-2.1-3.8l-0.6,2.9C23.7,39.2,23.3,39.6,22.8,39.6z"/>
	<path fill="#0DB89A" d="M43.1,21.1c-1,0-1.9,0.3-2.6,0.9l2.3,2.1c0.4,0.4,0.4,1,0.1,1.4c-0.2,0.2-0.5,0.3-0.7,0.3
		c-0.2,0-0.5-0.1-0.7-0.3l-2.3-2c-0.3,0.6-0.5,1.3-0.5,2c0,2.4,2,4.4,4.4,4.4s4.4-2,4.4-4.4S45.5,21.1,43.1,21.1z"/>
	<path fill="#294E58" d="M40.5,22L35,17c0,0,0,0,0,0c1-1.4,1.6-3.1,1.6-4.9C36.6,7.6,33,4,28.5,4c-4.5,0-8.2,3.7-8.2,8.2
		c0,0.2,0,0.4,0,0.6c-0.1,0-0.2,0-0.2,0l-7.3,1.5c0.2,0.6,0.4,1.3,0.4,2l7.3-1.5c0.1,0,0.1-0.1,0.2-0.1c0.8,2.3,2.5,4.2,4.8,5.1
		c0,0,0,0.1,0,0.1l-3.1,15.4c0.7,0.1,1.4,0.3,1.9,0.6l3.1-15.6c0,0,0,0,0,0c0.3,0,0.6,0.1,1,0.1c1.9,0,3.7-0.7,5.1-1.8
		c0,0,0,0.1,0.1,0.1l5.5,5C39.5,22.9,39.9,22.4,40.5,22z"/>
</g>
</svg>
