<?xml version="1.0" encoding="utf-8"?>
<!-- Generator: Adobe Illustrator 18.0.0, SVG Export Plug-In . SVG Version: 6.00 Build 0)  -->
<!DOCTYPE svg PUBLIC "-//W3C//DTD SVG 1.1//EN" "http://www.w3.org/Graphics/SVG/1.1/DTD/svg11.dtd">
<svg version="1.1" id="Layer_1" xmlns="http://www.w3.org/2000/svg" xmlns:xlink="http://www.w3.org/1999/xlink" x="0px" y="0px"
	 viewBox="0 0 48 48" enable-background="new 0 0 48 48" xml:space="preserve">
<g>
	<path fill="#E77528" d="M26.6,24.1c7.6-3.1,12.1-7.1,13.3-11.9C41.4,6,37,1,36.8,0.8c-0.2-0.2-0.5-0.3-0.8-0.3
		c-0.3,0-0.6,0.2-0.7,0.5H12.8c-0.2-0.3-0.4-0.5-0.7-0.5c-0.3,0-0.6,0.1-0.8,0.3C11,1,6.6,6,8.1,12.1c1.2,4.8,5.7,8.8,13.3,11.9
		c-7.2,3-11.6,7-13.1,11.8c-1.8,6,1.7,11,1.8,11.2c0.2,0.3,0.5,0.4,0.8,0.4c0,0,0,0,0.1,0c0.3,0,0.6-0.2,0.8-0.5h24.5
		c0.2,0.3,0.5,0.5,0.8,0.5c0,0,0,0,0.1,0c0.3,0,0.6-0.2,0.8-0.4c0.1-0.2,3.6-5.2,1.8-11.2C38.3,31.1,33.9,27.1,26.6,24.1z M15,3.1
		h18c0.5,0,1,0.4,1,1s-0.4,1-1,1H15c-0.5,0-1-0.4-1-1S14.5,3.1,15,3.1z M11.3,10.4c0-0.5,0.4-1,1-1h23.4c0.5,0,1,0.4,1,1s-0.4,1-1,1
		H12.3C11.8,11.3,11.3,10.9,11.3,10.4z M18.4,17.7c-0.5,0-1-0.4-1-1s0.4-1,1-1h11.2c0.5,0,1,0.4,1,1s-0.4,1-1,1H18.4z M18.4,30.3
		h11.2c0.5,0,1,0.4,1,1s-0.4,1-1,1H18.4c-0.5,0-1-0.4-1-1S17.9,30.3,18.4,30.3z M33,44.9H15c-0.5,0-1-0.4-1-1s0.4-1,1-1h18
		c0.5,0,1,0.4,1,1S33.5,44.9,33,44.9z M35.7,38.6H12.3c-0.5,0-1-0.4-1-1s0.4-1,1-1h23.4c0.5,0,1,0.4,1,1S36.2,38.6,35.7,38.6z"/>
</g>
</svg>
