<?xml version="1.0" encoding="utf-8"?>
<!-- Generator: Adobe Illustrator 18.0.0, SVG Export Plug-In . SVG Version: 6.00 Build 0)  -->
<!DOCTYPE svg PUBLIC "-//W3C//DTD SVG 1.1//EN" "http://www.w3.org/Graphics/SVG/1.1/DTD/svg11.dtd">
<svg version="1.1" id="Layer_1" xmlns="http://www.w3.org/2000/svg" xmlns:xlink="http://www.w3.org/1999/xlink" x="0px" y="0px"
	 viewBox="0 0 48 48" enable-background="new 0 0 48 48" xml:space="preserve">
<g>
	<path fill="#F04B36" d="M21.6,14.2c0.1,0.1,0.3,0.1,0.4,0.1c0.4,0,0.7-0.2,0.9-0.5c0.2-0.5,0-1.1-0.5-1.3c0,0-1.8-0.9-2.1-2.8
		c-0.3-1.9,1-4.2,3.7-6.9c1.2,1,3.7,3.4,3.8,6c0,1.4-0.7,2.6-2.1,3.8c-0.4,0.3-0.5,0.9-0.2,1.4c0.3,0.4,0.9,0.5,1.4,0.2
		c1.9-1.6,2.9-3.4,2.9-5.4c-0.1-4.3-5-7.9-5.2-8c-0.4-0.3-0.9-0.2-1.2,0.1c-3.7,3.3-5.3,6.4-4.9,9.1C18.9,12.8,21.5,14.1,21.6,14.2z
		"/>
	<path fill="#4DA0D8" d="M31.4,22.4v-6.3c0-0.5-0.4-1-1-1H26v19.2c0,0.1,0,3.2,3.5,4c1,0.2,1.7,1.3,1.4,2.3c-0.2,0.9-1,1.5-1.9,1.5
		c-0.2,0-0.3,0-0.5-0.1c-5.2-1.2-6.5-5.6-6.5-7.8V15.2h-4.6c-0.5,0-1,0.4-1,1v6.3c-3.9,2.5-6.3,6.8-6.3,11.4
		c0,7.5,6.1,13.6,13.6,13.6c7.5,0,13.6-6.1,13.6-13.6C37.6,29.3,35.3,24.9,31.4,22.4z"/>
	<path fill="#F04B36" d="M24.1,8.3c-0.5,0-1,0.4-1,1v25.1c0,1.9,1.1,5.7,5.7,6.8c0.1,0,0.2,0,0.2,0c0.4,0,0.8-0.3,0.9-0.7
		c0.1-0.5-0.2-1-0.7-1.2c-4.2-1-4.2-4.8-4.2-4.9V9.3C25.1,8.8,24.6,8.3,24.1,8.3z"/>
</g>
</svg>
