<?xml version="1.0" encoding="utf-8"?>
<!-- Generator: Adobe Illustrator 18.0.0, SVG Export Plug-In . SVG Version: 6.00 Build 0)  -->
<!DOCTYPE svg PUBLIC "-//W3C//DTD SVG 1.1//EN" "http://www.w3.org/Graphics/SVG/1.1/DTD/svg11.dtd">
<svg version="1.1" id="Layer_1" xmlns="http://www.w3.org/2000/svg" xmlns:xlink="http://www.w3.org/1999/xlink" x="0px" y="0px"
	 viewBox="0 0 48 48" enable-background="new 0 0 48 48" xml:space="preserve">
<g>
	<path fill="#F7A93B" d="M47,23.8l-6.2-3.2l0.2-0.4c0.2-0.5,0-1-0.5-1.2l-11.2-5.2l0.4-1c0.2-0.5,0-1-0.5-1.2L8,0.6
		c-0.2-0.1-0.5-0.1-0.8,0C6.9,0.7,6.7,0.9,6.6,1.1l-6.1,16c-0.1,0.3-0.1,0.5,0,0.8c0.1,0.2,0.3,0.4,0.6,0.5l22.9,6.5
		c0.1,0,0.2,0,0.3,0c0.4,0,0.8-0.2,0.9-0.6l0.4-1l11.7,3.8c0.1,0,0.2,0,0.3,0c0.4,0,0.8-0.2,0.9-0.6l0.1-0.4l6.7,1.9
		c0.1,0,0.2,0,0.3,0c0.4,0,0.8-0.2,0.9-0.6l1-2.5C47.6,24.6,47.4,24,47,23.8z"/>
	<path fill="#F04B36" d="M24.9,32.7c2.7,0,4.8-1.6,4.8-3.7c0-2.1-2.1-3.7-4.8-3.7c-2.7,0-4.8,1.6-4.8,3.7
		C20.1,31.1,22.2,32.7,24.9,32.7z"/>
	<path fill="#4DA0D8" d="M29.9,34.3c-0.1-0.4-0.5-0.7-0.9-0.7h-4.1h-4.1c-0.4,0-0.8,0.3-0.9,0.7l-3.4,12c-0.1,0.5,0.2,1.1,0.7,1.2
		c0.1,0,0.2,0,0.3,0c0.4,0,0.8-0.3,0.9-0.7l3.2-11.3h2.4v11c0,0.5,0.4,1,1,1c0.5,0,1-0.4,1-1v-11h2.4l3.2,11.3
		c0.1,0.4,0.5,0.7,0.9,0.7c0.1,0,0.2,0,0.3,0c0.5-0.1,0.8-0.7,0.7-1.2L29.9,34.3z"/>
</g>
</svg>
