<?xml version="1.0" encoding="utf-8"?>
<!-- Generator: Adobe Illustrator 18.0.0, SVG Export Plug-In . SVG Version: 6.00 Build 0)  -->
<!DOCTYPE svg PUBLIC "-//W3C//DTD SVG 1.1//EN" "http://www.w3.org/Graphics/SVG/1.1/DTD/svg11.dtd">
<svg version="1.1" id="Layer_1" xmlns="http://www.w3.org/2000/svg" xmlns:xlink="http://www.w3.org/1999/xlink" x="0px" y="0px"
	 viewBox="0 0 48 48" enable-background="new 0 0 48 48" xml:space="preserve">
<g>
	<path fill="#F04B36" d="M3.9,23.8c0-0.5,0.4-1,1-1h3.7c-0.4-1.6-1.8-2.9-3.5-2.9c-2,0-3.6,1.7-3.6,3.7s1.6,3.7,3.6,3.7
		c1.6,0,2.9-1.1,3.4-2.6H4.9C4.3,24.7,3.9,24.3,3.9,23.8z"/>
	<path fill="#06728D" d="M39.5,22.6h-4l-2.2-8c-0.1-0.4-0.5-0.7-1-0.7c-0.4,0-0.8,0.3-0.9,0.8c-0.6,2.7-1.5,6.3-2.1,9.1
		C28.4,18.3,27,8.5,25.9,1.3c-0.1-0.5-0.5-0.9-1-0.8c-0.5,0-0.9,0.4-0.9,0.9l-0.8,29.2l-1.8-19.1c0-0.5-0.5-0.9-0.9-0.9
		c-0.5,0-0.9,0.4-1,0.8l-2,15.4l-1.8-9.7c-0.1-0.4-0.4-0.7-0.9-0.8c-0.4,0-0.8,0.2-1,0.6l-2.2,5.8h-3c0.1,0.3,0.1,0.5,0.1,0.8
		c0,0.4-0.1,0.8-0.2,1.1h3.7c0.4,0,0.8-0.2,0.9-0.6l1.3-3.3l2.3,12.3c0.1,0.5,0.5,0.8,1,0.8c0.5,0,0.9-0.4,0.9-0.8l1.7-13l2.5,26.4
		c0,0.5,0.5,0.9,1,0.9c0,0,0,0,0,0c0.5,0,0.9-0.4,0.9-0.9l0.9-33.9C28,29,28.2,29,28.9,29.2c0.4,0.1,0.8-0.1,1-0.4
		c0.1-0.2,0.3-0.4,2.5-10l1.3,5c0.1,0.4,0.5,0.7,0.9,0.7h4.7c-0.1-0.3-0.1-0.6-0.1-0.9C39.4,23.3,39.4,22.9,39.5,22.6z"/>
	<path fill="#F04B36" d="M42.9,19.9c-1.6,0-3,1.1-3.4,2.7h2.6c0.5,0,1,0.4,1,1c0,0.5-0.4,1-1,1h-2.6c0.4,1.6,1.8,2.8,3.5,2.8
		c2,0,3.6-1.7,3.6-3.7S44.9,19.9,42.9,19.9z"/>
</g>
</svg>
