<?xml version="1.0" encoding="utf-8"?>
<!-- Generator: Adobe Illustrator 18.0.0, SVG Export Plug-In . SVG Version: 6.00 Build 0)  -->
<!DOCTYPE svg PUBLIC "-//W3C//DTD SVG 1.1//EN" "http://www.w3.org/Graphics/SVG/1.1/DTD/svg11.dtd">
<svg version="1.1" id="Layer_1" xmlns="http://www.w3.org/2000/svg" xmlns:xlink="http://www.w3.org/1999/xlink" x="0px" y="0px"
	 viewBox="0 0 48 48" enable-background="new 0 0 48 48" xml:space="preserve">
<g>
	<path fill="#CFD0D1" d="M45.3,28.6c1.1-1.2,1.6-2.8,1.6-4.5c0-2.8-1.7-5.3-4.2-6.3c0.1-0.4,0.1-0.7,0.1-1.1c0-3.3-2.2-6-5.3-6.7
		c-0.1-3.2-2.7-5.8-5.9-5.8c-0.1,0-0.2,0-0.3,0c-0.8-1.8-2.6-3-4.7-3c-0.9,0-1.8,0.3-2.7,0.7c-0.8-0.5-1.7-0.7-2.7-0.7
		c-2,0-3.8,1.2-4.7,3c-0.1,0-0.2,0-0.3,0c-3.2,0-5.8,2.6-5.9,5.8c-3.1,0.7-5.3,3.4-5.3,6.7c0,0.4,0,0.7,0.1,1.1
		C2.7,18.9,1,21.4,1,24.1c0,1.6,0.6,3.2,1.6,4.5c-1.3,1.4-2.1,3.3-2.1,5.3c0,4.3,3.6,7.9,8,7.8c1.7,3.1,5,5.1,8.5,5.1
		c2.6,0,5.1-1.1,6.9-2.9c1.8,1.9,4.3,2.9,6.9,2.9c3.6,0,6.9-2,8.5-5.1c4.4,0.1,8-3.4,8-7.8C47.4,31.9,46.7,30,45.3,28.6z M37.4,19.8
		c0.9,0.6,2.1,2.5,2,4c-0.1,0.8-0.5,1.5-1.2,1.9c-0.1,0.1-0.3,0.1-0.4,0.1c-0.3,0-0.7-0.2-0.8-0.5c-0.2-0.5,0-1,0.4-1.3
		c0.1,0,0.2-0.1,0.2-0.3c0.1-0.8-0.7-2-1.2-2.4c-0.6-0.4-3.1-0.6-3.9-0.2c-0.5,0.2-1,0.1-1.3-0.4c-0.2-0.5-0.1-1,0.4-1.3
		C32.9,18.8,36.1,18.9,37.4,19.8z M31.6,15.2c0.7-0.9,0.9-2.8,0.7-4.4c-0.1-0.5,0.3-1,0.8-1c0.5-0.1,1,0.3,1,0.8
		c0.1,0.9,0.3,4-1.1,5.8c-0.6,0.7-1.4,1.1-2.3,1.2c0,0,0,0-0.1,0c-0.5,0-0.9-0.4-0.9-0.9c0-0.5,0.3-1,0.9-1
		C31,15.7,31.3,15.5,31.6,15.2z M13.8,10.6c0.1-0.5,0.5-0.9,1-0.8c0.5,0.1,0.9,0.5,0.8,1c-0.2,1.5,0,3.5,0.7,4.4
		c0.3,0.3,0.6,0.5,1,0.5c0.5,0,0.9,0.5,0.9,1c0,0.5-0.4,0.9-0.9,0.9c0,0,0,0-0.1,0c-0.9-0.1-1.7-0.5-2.3-1.2
		C13.5,14.6,13.7,11.5,13.8,10.6z M10.6,19.8c1.3-0.9,4.5-1,5.9-0.3c0.5,0.2,0.6,0.8,0.4,1.3c-0.2,0.5-0.8,0.6-1.3,0.4
		c-0.8-0.4-3.3-0.2-3.9,0.2c-0.5,0.3-1.3,1.6-1.2,2.4c0,0.2,0.1,0.3,0.2,0.3c0.5,0.2,0.7,0.8,0.4,1.3c-0.2,0.3-0.5,0.5-0.8,0.5
		c-0.1,0-0.3,0-0.4-0.1c-0.7-0.4-1.2-1-1.2-1.9C8.5,22.3,9.7,20.4,10.6,19.8z M7.2,29.9c2.1-1.7,4.1-1.6,6.4-1.6l0.1,0
		c1.6,0.1,1.8-0.2,2.5-1.4c0.2-0.4,0.5-0.8,0.8-1.3c0.3-0.4,0.9-0.5,1.3-0.2c0.4,0.3,0.5,0.9,0.2,1.3c-0.3,0.4-0.5,0.8-0.7,1.1
		c-0.9,1.5-1.6,2.4-4.1,2.3l-0.1,0c-2.2-0.1-3.6-0.1-5.1,1.1c-0.2,0.1-0.4,0.2-0.6,0.2c-0.3,0-0.5-0.1-0.7-0.4
		C6.7,30.8,6.8,30.3,7.2,29.9z M20.5,31.9c-0.7,2.5-2.3,4.2-4.9,5.1c0.5,1,0.5,2.2,0.5,3.2c0,0.2,0,0.4,0,0.6c0,0.5-0.4,0.9-0.9,0.9
		h0c-0.5,0-0.9-0.4-0.9-0.9c0-0.2,0-0.4,0-0.6c0-1.1,0-2.2-0.6-2.8c-0.8-0.8-2.7-0.8-5,0c-0.5,0.2-1-0.1-1.2-0.6
		c-0.2-0.5,0.1-1,0.6-1.2c1.9-0.6,4.4-1,6.1-0.1c2.5-0.7,3.9-2,4.5-4.1c0.1-0.5,0.7-0.8,1.2-0.7C20.3,30.9,20.6,31.4,20.5,31.9z
		 M19,14.1c-0.6,0-1.1-0.3-1.4-0.6c-0.4-0.4-0.4-1,0-1.3c0.4-0.4,1-0.4,1.3,0c0.1,0.1,0.4-0.1,0.7-0.3c1.3-1.2,2.2-4.2,1.6-5
		c-0.3-0.4-0.3-1,0.1-1.3c0.4-0.3,1-0.3,1.3,0.1c1.6,1.8,0.1,5.9-1.7,7.6C20.2,13.8,19.6,14.1,19,14.1z M24.7,38.4
		c0,0.5-0.4,0.9-0.9,0.9c-0.5,0-0.9-0.4-0.9-0.9v-6.1c0-0.5,0.4-0.9,0.9-0.9c0.5,0,0.9,0.4,0.9,0.9V38.4z M24.9,24.9
		c0,0.5-0.4,0.9-0.9,0.9s-0.9-0.4-0.9-0.9v-7.6c0-0.5,0.4-0.9,0.9-0.9s0.9,0.4,0.9,0.9V24.9z M25.4,5.6c0.3-0.4,0.9-0.4,1.3-0.1
		c0.4,0.3,0.4,0.9,0.1,1.3c-0.7,0.8,0.2,3.8,1.6,5c0.2,0.2,0.5,0.4,0.7,0.3c0.4-0.4,1-0.4,1.3,0c0.4,0.4,0.4,1,0,1.3
		c-0.4,0.4-0.8,0.6-1.4,0.6c-0.6,0-1.2-0.2-1.8-0.9C25.3,11.5,23.8,7.4,25.4,5.6z M40.6,36.8c-0.2,0.5-0.7,0.8-1.2,0.6
		c-2.3-0.7-4.2-0.7-5,0c-0.6,0.6-0.6,1.7-0.6,2.8c0,0.2,0,0.4,0,0.6c0,0.5-0.4,0.9-0.9,0.9h0c-0.5,0-0.9-0.4-0.9-0.9
		c0-0.2,0-0.4,0-0.6c0-1,0-2.2,0.5-3.2c-2.6-1-4.2-2.7-4.9-5.1c-0.1-0.5,0.2-1,0.7-1.2c0.5-0.1,1,0.2,1.2,0.7
		c0.6,2.1,2.1,3.4,4.5,4.1c1.8-1,4.3-0.5,6.1,0.1C40.5,35.8,40.7,36.3,40.6,36.8z M40.9,31.3c-0.2,0.2-0.5,0.4-0.7,0.4
		c-0.2,0-0.4-0.1-0.6-0.2c-1.6-1.3-3-1.2-5.1-1.1l-0.1,0c-2.5,0.1-3.3-0.8-4.1-2.3c-0.2-0.3-0.4-0.7-0.7-1.1c-0.3-0.4-0.2-1,0.2-1.3
		c0.4-0.3,1-0.2,1.3,0.2c0.3,0.5,0.6,0.9,0.8,1.3c0.7,1.1,0.8,1.4,2.5,1.4l0.1,0c2.3-0.1,4.3-0.1,6.4,1.6
		C41.2,30.3,41.3,30.8,40.9,31.3z"/>
</g>
</svg>
