<?xml version="1.0" encoding="utf-8"?>
<!-- Generator: Adobe Illustrator 18.0.0, SVG Export Plug-In . SVG Version: 6.00 Build 0)  -->
<!DOCTYPE svg PUBLIC "-//W3C//DTD SVG 1.1//EN" "http://www.w3.org/Graphics/SVG/1.1/DTD/svg11.dtd">
<svg version="1.1" id="Layer_1" xmlns="http://www.w3.org/2000/svg" xmlns:xlink="http://www.w3.org/1999/xlink" x="0px" y="0px"
	 viewBox="0 0 48 48" enable-background="new 0 0 48 48" xml:space="preserve">
<g>
	<path fill="none" d="M21.2,2.4H6.5v5.3h3.3c0.5,0,1,0.4,1,1V14h6.1V8.7c0-0.5,0.4-1,1-1h3.3V2.4z"/>
	<path fill="#0DB89A" d="M34.3,32.5c0,1.9,1.6,3.5,3.5,3.5h1.1c1,0,2-0.5,2.6-1.2h0v0c0.5-0.6,0.9-1.4,0.9-2.3V22.2v-2v-6.8
		c0-0.5-0.4-1-1-1s-1,0.4-1,1v4h-4.2v-4c0-0.5-0.4-1-1-1c-0.5,0-1,0.4-1,1v6.8v1.9V32.5z"/>
	<path fill="#F04B36" d="M24.5,24v8.5c0,1.9,1.6,3.5,3.5,3.5H29c1,0,2-0.5,2.6-1.2h0v0c0.5-0.6,0.9-1.4,0.9-2.3V22.1v-1.9v-6.8
		c0-0.5-0.4-1-1-1c-0.5,0-1,0.4-1,1v11h-4.2v-11c0-0.5-0.4-1-1-1c-0.5,0-1,0.4-1,1v6.8v1.9V24z"/>
	<rect x="32.5" y="20.2" fill="#4DA0D8" width="1.8" height="1.9"/>
	<path fill="none" d="M21.2,2.4H6.5v5.3h3.3c0.5,0,1,0.4,1,1V14h6.1V8.7c0-0.5,0.4-1,1-1h3.3V2.4z"/>
	<rect x="18.8" y="20.2" fill="#4DA0D8" width="5.6" height="1.9"/>
	<path fill="#E77528" d="M25.9,38.2l-7.1-13.7v-2.4v-1.9V9.6h3.3c0.5,0,1-0.4,1-1V1.5c0-0.5-0.4-1-1-1H5.6c-0.5,0-1,0.4-1,1v7.2
		c0,0.5,0.4,1,1,1h3.3v14.8L1.8,38.2c-1.4,2.5-1.6,4.7-0.8,6.5c1,2.2,3.5,2.8,3.6,2.8c0.1,0,0.1,0,0.2,0H23c0.1,0,0.1,0,0.2,0
		c0.1,0,2.5-0.6,3.6-2.8c0.5-1.1,0.6-2.4,0.2-3.9l-0.7-1.9C26.1,38.6,26,38.4,25.9,38.2z M16.9,8.7V14h-6.1V8.7c0-0.5-0.4-1-1-1H6.5
		V2.4h14.6v5.3h-3.3C17.3,7.7,16.9,8.1,16.9,8.7z"/>
	<path fill="#4DA0D8" d="M42.4,20.2v2c1.8,0.4,3.2,2,3.2,4v8.6c0,2.2-1.8,4.1-4.1,4.1H26.3c0,0,0,0,0,0l0.7,1.9h10.4v1.7
		c0,0.5,0.4,1,1,1c0.5,0,1-0.4,1-1v-1.7h2.2c3.3,0,6-2.7,6-6v-8.6C47.5,23.2,45.3,20.7,42.4,20.2z"/>
</g>
</svg>
