<?xml version="1.0" encoding="utf-8"?>
<!-- Generator: Adobe Illustrator 18.0.0, SVG Export Plug-In . SVG Version: 6.00 Build 0)  -->
<!DOCTYPE svg PUBLIC "-//W3C//DTD SVG 1.1//EN" "http://www.w3.org/Graphics/SVG/1.1/DTD/svg11.dtd">
<svg version="1.1" id="Layer_1" xmlns="http://www.w3.org/2000/svg" xmlns:xlink="http://www.w3.org/1999/xlink" x="0px" y="0px"
	 viewBox="0 0 48 48" enable-background="new 0 0 48 48" xml:space="preserve">
<g>
	<path fill="#F04B36" d="M19.2,36.2c-0.5,0-0.9,0.4-0.9,0.9v6.1c0,0.5,0.4,0.9,0.9,0.9c0.5,0,0.9-0.4,0.9-0.9v-6.1
		C20.1,36.7,19.7,36.2,19.2,36.2z"/>
	<path fill="#F04B36" d="M28.8,36.2c-0.5,0-0.9,0.4-0.9,0.9v6.1c0,0.5,0.4,0.9,0.9,0.9c0.5,0,0.9-0.4,0.9-0.9v-6.1
		C29.8,36.7,29.3,36.2,28.8,36.2z"/>
	<path fill="#F04B36" d="M24,37.8c-0.5,0-0.9,0.4-0.9,0.9v7.8c0,0.5,0.4,0.9,0.9,0.9s0.9-0.4,0.9-0.9v-7.8
		C24.9,38.3,24.5,37.8,24,37.8z"/>
	<path fill="#06728D" d="M24.9,1.2c-0.1-0.4-0.5-0.7-0.9-0.7s-0.8,0.3-0.9,0.7l-5.2,15.2c0,0.1-0.1,0.2-0.1,0.3v17.1
		c0,0.4,0.2,0.8,0.6,0.9l5.2,1.9c0.1,0,0.2,0.1,0.3,0.1s0.2,0,0.3-0.1l5.2-1.9c0.4-0.1,0.6-0.5,0.6-0.9V16.7c0-0.1,0-0.2-0.1-0.3
		L24.9,1.2z M24,26.7c-2,0-3.6-1.6-3.6-3.6s1.6-3.6,3.6-3.6c2,0,3.6,1.6,3.6,3.6S26,26.7,24,26.7z"/>
	<path fill="#4DA0D8" d="M9.4,21.4l1.3,14.4c0,0.1,0.1,0.3,0.1,0.4l3,5.2c0.2,0.3,0.5,0.5,0.8,0.5c0.1,0,0.2,0,0.2,0
		c0.4-0.1,0.7-0.5,0.7-0.9l0.3-10.5l0.5-0.2V17.9L10,20.4C9.6,20.5,9.4,20.9,9.4,21.4z"/>
	<path fill="#4DA0D8" d="M38,20.4l-6.4-2.5v12.4l0.5,0.2l0.3,10.5c0,0.4,0.3,0.8,0.7,0.9c0.1,0,0.2,0,0.2,0c0.3,0,0.7-0.2,0.8-0.5
		l3-5.2c0.1-0.1,0.1-0.3,0.1-0.4l1.3-14.4C38.6,20.9,38.4,20.5,38,20.4z"/>
</g>
</svg>
