<?xml version="1.0" encoding="utf-8"?>
<!-- Generator: Adobe Illustrator 18.0.0, SVG Export Plug-In . SVG Version: 6.00 Build 0)  -->
<!DOCTYPE svg PUBLIC "-//W3C//DTD SVG 1.1//EN" "http://www.w3.org/Graphics/SVG/1.1/DTD/svg11.dtd">
<svg version="1.1" id="Layer_1" xmlns="http://www.w3.org/2000/svg" xmlns:xlink="http://www.w3.org/1999/xlink" x="0px" y="0px"
	 viewBox="0 0 48 48" enable-background="new 0 0 48 48" xml:space="preserve">
<g>
	<polygon fill="#4DA0D8" points="5.3,16.2 7.6,13.1 11.5,13.2 9.2,10 10.6,6.4 6.8,7.5 3.8,5.1 3.7,9 0.5,11.2 4.2,12.5 	"/>
	<path fill="#F04B36" d="M24.8,6.5c3.9,2.7,6.5,7.3,6.5,12.4c0,8.3-6.8,15.1-15.1,15.1c-5.1,0-9.7-2.6-12.4-6.5
		c1.5,8.5,8.9,14.9,17.8,14.9c10,0,18.1-8.1,18.1-18.1C39.8,15.4,33.3,8,24.8,6.5z"/>
	<circle fill="#F7A93B" cx="44.1" cy="5" r="3.4"/>
	<circle fill="#F7A93B" cx="8" cy="44.4" r="2"/>
</g>
</svg>
