<?xml version="1.0" encoding="utf-8"?>
<!-- Generator: Adobe Illustrator 18.0.0, SVG Export Plug-In . SVG Version: 6.00 Build 0)  -->
<!DOCTYPE svg PUBLIC "-//W3C//DTD SVG 1.1//EN" "http://www.w3.org/Graphics/SVG/1.1/DTD/svg11.dtd">
<svg version="1.1" id="Layer_1" xmlns="http://www.w3.org/2000/svg" xmlns:xlink="http://www.w3.org/1999/xlink" x="0px" y="0px"
	 viewBox="0 0 48 48" enable-background="new 0 0 48 48" xml:space="preserve">
<g>
	<path fill="#4DA0D8" d="M15.6,37l2-5.6c0.1-0.2,0-0.4-0.1-0.5c-0.1-0.1-0.3-0.2-0.5-0.1l-5.7,1.8l-4.7-3.7
		c-0.1-0.1-0.3-0.1-0.5-0.1c-0.2,0.1-0.3,0.3-0.3,0.4l0,6l-5,3.4c-0.2,0.1-0.2,0.3-0.2,0.5c0,0.2,0.2,0.3,0.3,0.4l5.7,1.9l1.7,5.8
		c0.1,0.2,0.2,0.3,0.4,0.3c0,0,0.1,0,0.1,0c0.2,0,0.3-0.1,0.4-0.2l3.6-4.8l6,0.2c0,0,0,0,0,0c0.3,0,0.5-0.2,0.5-0.5
		c0-0.2-0.1-0.3-0.2-0.4L15.6,37z"/>
	<path fill="#F04B36" d="M47.4,15.7c-4-4.2-11.4-5.2-13.8-5.4c1.8-3.1,6.6-6.6,6.7-6.6c0.2-0.1,0.2-0.3,0.2-0.5
		c0-0.2-0.2-0.3-0.4-0.4l-0.2-0.1c-6.4-1.6-12.2,1.9-14.5,3.5l1.1-5.2c0-0.2,0-0.4-0.2-0.5c-0.1-0.1-0.3-0.2-0.5-0.1
		C7.5,6.4,5.6,21,5.6,26.8c0.2-0.1,0.4-0.1,0.6-0.1c0.5,0,1.1,0.2,1.5,0.5l3.9,3l4.7-1.5c0.2-0.1,0.5-0.1,0.7-0.1
		c0.7,0,1.3,0.3,1.8,0.8c0.7,0.7,0.9,1.7,0.5,2.6l-1.7,4.7l1.5,2.1c2.2-19.3,27.5-22.2,27.7-22.2c0.2,0,0.3-0.1,0.4-0.3
		C47.5,16.1,47.5,15.9,47.4,15.7z M18,14.3c-0.1,0-4.5,4.4-4.4,11.8c0,0.5-0.4,1-1,1c0,0,0,0,0,0c-0.5,0-1-0.4-1-1
		c-0.2-8.3,4.8-13.1,5-13.3c0.4-0.4,1-0.4,1.4,0C18.5,13.3,18.4,13.9,18,14.3z M31.9,15.2c-0.1,0-8,2.3-9.6,6.9
		c-0.1,0.4-0.5,0.7-0.9,0.7c-0.1,0-0.2,0-0.3-0.1c-0.5-0.2-0.8-0.7-0.6-1.3c1.9-5.7,10.5-8.1,10.9-8.2c0.5-0.1,1.1,0.2,1.2,0.7
		C32.7,14.5,32.4,15.1,31.9,15.2z"/>
</g>
</svg>
