<?xml version="1.0" encoding="utf-8"?>
<!-- Generator: Adobe Illustrator 18.0.0, SVG Export Plug-In . SVG Version: 6.00 Build 0)  -->
<!DOCTYPE svg PUBLIC "-//W3C//DTD SVG 1.1//EN" "http://www.w3.org/Graphics/SVG/1.1/DTD/svg11.dtd">
<svg version="1.1" id="Layer_1" xmlns="http://www.w3.org/2000/svg" xmlns:xlink="http://www.w3.org/1999/xlink" x="0px" y="0px"
	 viewBox="0 0 48 48" enable-background="new 0 0 48 48" xml:space="preserve">
<g>
	<path fill="#0DB89A" d="M33.9,9.9h-2.6V7.2h4c0.5,0,1-0.4,1-1c0-0.5-0.4-1-1-1h-4V2.9c0-1.3-1.1-2.4-2.4-2.4h-9.8
		c-1.3,0-2.4,1.1-2.4,2.4v2.3h-3.7c-0.5,0-1,0.4-1,1c0,0.5,0.4,1,1,1h3.7v2.7h-2.6c-3.5,0-6.3,2.8-6.3,6.3v20c0,1.5,1.2,2.8,2.8,2.8
		c1.5,0,2.8-1.2,2.8-2.8v-9.6c0.3,0,0.5,0.1,0.8,0.1h2.1v18c0,1.5,1.2,2.8,2.8,2.8c1.5,0,2.8-1.2,2.8-2.8V34.2h4.6v10.5
		c0,1.5,1.2,2.8,2.8,2.8c1.5,0,2.8-1.2,2.8-2.8v-18h2.1c0.3,0,0.5,0,0.8-0.1v9.6c0,1.5,1.2,2.8,2.8,2.8c1.5,0,2.8-1.2,2.8-2.8v-20
		C40.2,12.8,37.4,9.9,33.9,9.9z M21.4,7.4c-0.6,0-1.1-0.5-1.1-1.1c0-0.6,0.5-1.1,1.1-1.1c0.6,0,1.1,0.5,1.1,1.1
		C22.5,6.9,22,7.4,21.4,7.4z M26.6,7.4c-0.6,0-1.1-0.5-1.1-1.1c0-0.6,0.5-1.1,1.1-1.1c0.6,0,1.1,0.5,1.1,1.1
		C27.7,6.9,27.2,7.4,26.6,7.4z"/>
</g>
</svg>
