<?xml version="1.0" encoding="utf-8"?>
<!-- Generator: Adobe Illustrator 18.0.0, SVG Export Plug-In . SVG Version: 6.00 Build 0)  -->
<!DOCTYPE svg PUBLIC "-//W3C//DTD SVG 1.1//EN" "http://www.w3.org/Graphics/SVG/1.1/DTD/svg11.dtd">
<svg version="1.1" id="Layer_1" xmlns="http://www.w3.org/2000/svg" xmlns:xlink="http://www.w3.org/1999/xlink" x="0px" y="0px"
	 viewBox="0 0 48 48" enable-background="new 0 0 48 48" xml:space="preserve">
<g>
	<path fill="none" d="M24,31.6c0.5,0,1-0.4,1-1V26c0-0.5-0.4-1-1-1s-1,0.4-1,1v4.6C23,31.1,23.5,31.6,24,31.6z"/>
	<path fill="none" d="M24,4.9c-2.7,0-5,1.4-5.4,3.3h10.7C29,6.3,26.7,4.9,24,4.9z"/>
	<circle fill="none" cx="16.8" cy="22" r="4.6"/>
	<path fill="none" d="M45.6,20.3c0-1.7-1.5-3.1-3.4-3.3v6.6C44.1,23.3,45.6,21.9,45.6,20.3z"/>
	<path fill="none" d="M2.4,20.3c0,1.7,1.5,3.1,3.4,3.3V17C3.9,17.2,2.4,18.6,2.4,20.3z"/>
	<ellipse fill="none" cx="24" cy="37.1" rx="5.6" ry="3.2"/>
	<circle fill="none" cx="31.2" cy="22" r="4.6"/>
	<path fill="#E77528" d="M47.5,20.3c0-2.8-2.4-5-5.3-5.2v2c1.9,0.2,3.4,1.6,3.4,3.3c0,1.7-1.5,3.1-3.4,3.3v2
		C45.1,25.3,47.5,23,47.5,20.3z"/>
	<path fill="#E77528" d="M2.4,20.3c0-1.7,1.5-3.1,3.4-3.3v-2c-3,0.2-5.3,2.5-5.3,5.2c0,2.8,2.4,5,5.3,5.2v-2
		C3.9,23.3,2.4,21.9,2.4,20.3z"/>
	<path fill="#06728D" d="M42.2,17v-2v-1.1c0-3.2-2.6-5.8-5.8-5.8h-5.1h-2H18.6h-2h-5.1c-3.2,0-5.8,2.6-5.8,5.8V15v2v6.6v2v13.8
		c0,3.2,2.6,5.8,5.8,5.8h24.8c3.2,0,5.8-2.6,5.8-5.8V25.5v-2V17z M23,26c0-0.5,0.4-1,1-1s1,0.4,1,1v4.6c0,0.5-0.4,1-1,1s-1-0.4-1-1
		V26z M12.2,22c0-2.5,2.1-4.6,4.6-4.6c2.5,0,4.6,2.1,4.6,4.6c0,2.5-2.1,4.6-4.6,4.6C14.3,26.6,12.2,24.6,12.2,22z M24,40.3
		c-3.1,0-5.6-1.4-5.6-3.2c0-1.8,2.5-3.2,5.6-3.2c3.1,0,5.6,1.4,5.6,3.2C29.6,38.9,27.1,40.3,24,40.3z M31.2,26.6
		c-2.5,0-4.6-2.1-4.6-4.6c0-2.5,2.1-4.6,4.6-4.6c2.5,0,4.6,2.1,4.6,4.6C35.8,24.6,33.7,26.6,31.2,26.6z"/>
	<path fill="#F04B36" d="M24,4.9c2.7,0,5,1.4,5.4,3.3h2C31,5.2,27.8,2.9,24,2.9c-3.8,0-7,2.3-7.3,5.2h2C19,6.3,21.3,4.9,24,4.9z"/>
</g>
</svg>
