<?xml version="1.0" encoding="utf-8"?>
<!-- Generator: Adobe Illustrator 18.0.0, SVG Export Plug-In . SVG Version: 6.00 Build 0)  -->
<!DOCTYPE svg PUBLIC "-//W3C//DTD SVG 1.1//EN" "http://www.w3.org/Graphics/SVG/1.1/DTD/svg11.dtd">
<svg version="1.1" id="Layer_1" xmlns="http://www.w3.org/2000/svg" xmlns:xlink="http://www.w3.org/1999/xlink" x="0px" y="0px"
	 viewBox="0 0 48 48" enable-background="new 0 0 48 48" xml:space="preserve">
<g>
	<path fill="#0DB89A" d="M30.2,6.7c0-3.4-2.8-6.2-6.2-6.2s-6.2,2.8-6.2,6.2c0,3.4,6.2,14.7,6.2,14.7S30.2,10.2,30.2,6.7z"/>
	<path fill="#E77528" d="M17.8,41.3c0,3.4,2.8,6.2,6.2,6.2s6.2-2.8,6.2-6.2c0-3.4-6.2-14.7-6.2-14.7S17.8,37.8,17.8,41.3z"/>
	<path fill="#F04B36" d="M41.3,17.8c-3.4,0-14.7,6.2-14.7,6.2s11.3,6.2,14.7,6.2c3.4,0,6.2-2.8,6.2-6.2
		C47.5,20.6,44.7,17.8,41.3,17.8z"/>
	<path fill="#294E58" d="M6.7,17.8c-3.4,0-6.2,2.8-6.2,6.2c0,3.4,2.8,6.2,6.2,6.2c3.4,0,14.7-6.2,14.7-6.2S10.2,17.8,6.7,17.8z"/>
</g>
</svg>
