<?xml version="1.0" encoding="utf-8"?>
<!-- Generator: Adobe Illustrator 18.0.0, SVG Export Plug-In . SVG Version: 6.00 Build 0)  -->
<!DOCTYPE svg PUBLIC "-//W3C//DTD SVG 1.1//EN" "http://www.w3.org/Graphics/SVG/1.1/DTD/svg11.dtd">
<svg version="1.1" id="Layer_1" xmlns="http://www.w3.org/2000/svg" xmlns:xlink="http://www.w3.org/1999/xlink" x="0px" y="0px"
	 viewBox="0 0 48 48" enable-background="new 0 0 48 48" xml:space="preserve">
<g>
	<path fill="#4DA0D8" d="M6.2,18.1V27C3.1,28.3,1,31.4,1,34.8c0,4.7,3.8,8.4,8.4,8.4c4.7,0,8.4-3.8,8.4-8.4c0-3.4-2.1-6.5-5.2-7.8
		v-8.9h-2.3c0-0.1,0-0.1,0-0.2l-2,0.2H6.2z"/>
	<path fill="#294E58" d="M30,26.9c-0.6,0-1,0.5-1,1c0,0.6,0.5,1,1,1h1.8v-2H30z"/>
	<path fill="#06728D" d="M35.4,16.1c0-2-1.5-3.6-3.4-3.6H21.5v-2.3h1.6c0.6,0,1-0.5,1-1c0-0.6-0.5-1-1-1h-5.5c-0.6,0-1,0.5-1,1
		c0,0.6,0.5,1,1,1h1.8v2.3h-7.6c-1.9,0-3.4,1.4-3.4,3.2v2.2c0,0.1,0,0.1,0,0.2l2-0.2v-2.2c0-0.6,0.6-1.2,1.4-1.2h20.3
		c0.7,0,1.4,0.7,1.4,1.5v2.6h2V16.1z"/>
	<path fill="#0DB89A" d="M37,23.9h1.3v-5.2h-2.9h-2h-2.9v5.2h1.3v2.9v2v6.5c0,1.3,1.1,2.4,2.4,2.4h0.4c1.3,0,2.4-1.1,2.4-2.4v-6.5
		v-2V23.9z"/>
	<path fill="#294E58" d="M46.5,44.2h-3.3V28.9h3c0.6,0,1-0.5,1-1c0-0.6-0.5-1-1-1h-3V2.8c0-0.6-0.5-1-1-1c-0.6,0-1,0.5-1,1v24.1H37
		v2h4.2v15.3H1.5c-0.6,0-1,0.5-1,1s0.5,1,1,1h45c0.6,0,1-0.5,1-1S47,44.2,46.5,44.2z"/>
</g>
</svg>
