<?xml version="1.0" encoding="utf-8"?>
<!-- Generator: Adobe Illustrator 18.0.0, SVG Export Plug-In . SVG Version: 6.00 Build 0)  -->
<!DOCTYPE svg PUBLIC "-//W3C//DTD SVG 1.1//EN" "http://www.w3.org/Graphics/SVG/1.1/DTD/svg11.dtd">
<svg version="1.1" id="Layer_1" xmlns="http://www.w3.org/2000/svg" xmlns:xlink="http://www.w3.org/1999/xlink" x="0px" y="0px"
	 viewBox="0 0 48 48" enable-background="new 0 0 48 48" xml:space="preserve">
<g>
	<path fill="#06728D" d="M46.5,0.6h-3.1H4.6H1.5c-0.5,0-1,0.4-1,1c0,0.5,0.4,1,1,1h2.1v37.9c0,3.9,3.1,7,7,7h26.8c3.9,0,7-3.1,7-7
		V2.5h2.1c0.5,0,1-0.4,1-1C47.5,1,47.1,0.6,46.5,0.6z M16.6,41.9H9.2c-0.5,0-1-0.4-1-1c0-0.5,0.4-1,1-1h7.4c0.5,0,1,0.4,1,1
		C17.6,41.4,17.1,41.9,16.6,41.9z M24,30.6H9.2c-0.5,0-1-0.4-1-1c0-0.5,0.4-1,1-1H24c0.5,0,1,0.4,1,1C25,30.2,24.5,30.6,24,30.6z
		 M8.3,18.4c0-0.5,0.4-1,1-1h7.4c0.5,0,1,0.4,1,1c0,0.5-0.4,1-1,1H9.2C8.7,19.3,8.3,18.9,8.3,18.4z M24,8.1H9.2c-0.5,0-1-0.4-1-1
		s0.4-1,1-1H24c0.5,0,1,0.4,1,1S24.5,8.1,24,8.1z"/>
</g>
</svg>
