<?xml version="1.0" encoding="utf-8"?>
<!-- Generator: Adobe Illustrator 18.0.0, SVG Export Plug-In . SVG Version: 6.00 Build 0)  -->
<!DOCTYPE svg PUBLIC "-//W3C//DTD SVG 1.1//EN" "http://www.w3.org/Graphics/SVG/1.1/DTD/svg11.dtd">
<svg version="1.1" id="Layer_1" xmlns="http://www.w3.org/2000/svg" xmlns:xlink="http://www.w3.org/1999/xlink" x="0px" y="0px"
	 viewBox="0 0 48 48" enable-background="new 0 0 48 48" xml:space="preserve">
<g>
	<path fill="#294E58" d="M11.4,2.4c0.5,0,1-0.4,1-1c0-0.5-0.4-1-1-1h-10c-0.5,0-1,0.4-1,1v17.5c0,0.5,0.4,1,1,1h10c0.5,0,1-0.4,1-1
		c0-0.5-0.4-1-1-1h-9v-6.8h6.7c0.5,0,1-0.4,1-1c0-0.5-0.4-1-1-1H2.4V2.4H11.4z"/>
	<path fill="#F04B36" d="M34.7,19.9c0.5,0,1-0.4,1-1v-7.8h6.7c0.5,0,1-0.4,1-1c0-0.5-0.4-1-1-1h-6.7V2.4h9c0.5,0,1-0.4,1-1
		c0-0.5-0.4-1-1-1h-10c-0.5,0-1,0.4-1,1v17.5C33.8,19.5,34.2,19.9,34.7,19.9z"/>
	<path fill="#06728D" d="M46.5,22.1H24.1c-0.5,0-1,0.4-1,1c0,0.5,0.4,1,1,1h22.5c0.5,0,1-0.4,1-1C47.5,22.5,47.1,22.1,46.5,22.1z"/>
	<path fill="#0DB89A" d="M17.7,8.9h6.9c0.5,0,1-0.4,1-1c0-0.5-0.4-1-1-1h-6.9c-0.5,0-1,0.4-1,1C16.8,8.4,17.2,8.9,17.7,8.9z"/>
	<path fill="#0DB89A" d="M25.6,11.6c0-0.5-0.4-1-1-1h-6.9c-0.5,0-1,0.4-1,1c0,0.5,0.4,1,1,1h6.9C25.2,12.6,25.6,12.1,25.6,11.6z"/>
	<path fill="#F04B36" d="M45.5,35.9c-2.6,1.4-4.9,4.6-6.5,7V31.5c0-0.1,0-0.2-0.1-0.3c0,0,0,0,0,0c-0.2-1.3-0.8-2.4-1.8-3.2
		c-0.8-0.6-1.8-0.9-2.8-0.9c-1.9,0-3.8,1-5.1,2.7c-1.1,1.5-1.6,3.3-1.3,4.9c0.2,1.3,0.8,2.4,1.8,3.2c0.8,0.6,1.8,0.9,2.8,0.9
		c1.7,0,3.3-0.8,4.6-2.1v9.8c0,0.4,0.3,0.8,0.7,0.9c0.1,0,0.2,0,0.2,0c0.4,0,0.7-0.2,0.9-0.5c0-0.1,3.7-7.3,7.5-9.3
		c0.5-0.3,0.6-0.8,0.4-1.3C46.6,35.9,46,35.7,45.5,35.9z M36,34.9c-0.9,1.2-2.3,2-3.5,2c-0.6,0-1.2-0.2-1.6-0.5
		c-0.7-0.5-1-1.3-1.1-1.9c-0.2-1.1,0.2-2.4,1-3.5c0.9-1.2,2.3-2,3.5-2c0.6,0,1.2,0.2,1.6,0.5c0.7,0.5,1,1.3,1.1,1.9
		C37.2,32.6,36.8,33.8,36,34.9z"/>
</g>
</svg>
