<?xml version="1.0" encoding="utf-8"?>
<!-- Generator: Adobe Illustrator 18.0.0, SVG Export Plug-In . SVG Version: 6.00 Build 0)  -->
<!DOCTYPE svg PUBLIC "-//W3C//DTD SVG 1.1//EN" "http://www.w3.org/Graphics/SVG/1.1/DTD/svg11.dtd">
<svg version="1.1" id="Layer_1" xmlns="http://www.w3.org/2000/svg" xmlns:xlink="http://www.w3.org/1999/xlink" x="0px" y="0px"
	 viewBox="0 0 48 48" enable-background="new 0 0 48 48" xml:space="preserve">
<g>
	<path fill="#06728D" d="M43.1,5.6c-0.3-0.1-0.7-0.1-1.1-0.1c-2,0-3.7,1.2-4.4,3L30.7,7c0.1-1-0.2-2-0.7-2.9C29.3,3,28.3,2.3,27,2
		c-0.4-0.1-0.7-0.1-1.1-0.1c-2.2,0-4.2,1.5-4.7,3.7C20.8,7.8,22,10.1,24,11l-2.7,11.7c0,0-0.1,0-0.1,0c-2.2,0-4.2,1.5-4.7,3.7
		c-0.3,1.2-0.1,2.4,0.5,3.4l-8.2,7.6c-0.5-0.3-0.9-0.5-1.5-0.6c-0.3-0.1-0.7-0.1-1.1-0.1c-2.2,0-4.2,1.5-4.7,3.7
		c-0.3,1.5,0.1,3,1,4.2c0.7,0.8,1.6,1.3,2.6,1.5c0.4,0.1,0.7,0.1,1.1,0.1c2.2,0,4.2-1.5,4.6-3.7c0.3-1.4,0-2.7-0.8-3.8l8.1-7.4
		c0.5,0.4,1.2,0.7,1.9,0.9c0.3,0.1,0.7,0.1,1.1,0.1c1.9,0,3.6-1.1,4.3-2.8l6.9,1.6c0,0.9,0.2,1.9,0.7,2.7c0.7,1.1,1.7,1.8,3,2.1
		c0.3,0.1,0.7,0.1,1.1,0.1c2.2,0,4.2-1.5,4.7-3.7c0.3-1.2,0.1-2.5-0.6-3.6c-0.4-0.7-1-1.2-1.7-1.6L42.3,15c2.1-0.1,3.9-1.6,4.3-3.7
		C47.2,8.8,45.6,6.2,43.1,5.6z M37.3,26.3c-1.9,0-3.6,1.1-4.4,2.8L26,27.6c0.1-1.9-1.1-3.7-2.8-4.5l2.7-11.7c0,0,0.1,0,0.1,0
		c1.8,0,3.5-1,4.3-2.6l7,1.6c0,0.9,0.2,1.7,0.7,2.5c0.6,0.9,1.5,1.6,2.5,2l-2.6,11.6C37.7,26.3,37.5,26.3,37.3,26.3z"/>
	<circle fill="#0DB89A" cx="42" cy="10.3" r="5.5"/>
	<circle fill="#E77528" cx="25.7" cy="6.5" r="5.1"/>
	<circle fill="#4DA0D8" cx="36.8" cy="31.4" r="5.7"/>
	<circle fill="#F04B36" cx="20.6" cy="27.8" r="5.7"/>
	<circle fill="#CFD0D1" cx="6.2" cy="40.9" r="5.7"/>
</g>
</svg>
