<?xml version="1.0" encoding="utf-8"?>
<!-- Generator: Adobe Illustrator 18.0.0, SVG Export Plug-In . SVG Version: 6.00 Build 0)  -->
<!DOCTYPE svg PUBLIC "-//W3C//DTD SVG 1.1//EN" "http://www.w3.org/Graphics/SVG/1.1/DTD/svg11.dtd">
<svg version="1.1" id="Layer_1" xmlns="http://www.w3.org/2000/svg" xmlns:xlink="http://www.w3.org/1999/xlink" x="0px" y="0px"
	 viewBox="0 0 48 48" enable-background="new 0 0 48 48" xml:space="preserve">
<g>
	<path fill="#F04B36" d="M47.4,44.1l-3.7-9.3c0-0.1-0.1-0.2-0.2-0.3L23.8,14.8l-9,9l19.7,19.7c0.1,0.1,0.2,0.2,0.3,0.2l9.3,3.7
		c0.1,0,0.2,0.1,0.4,0.1c0.3,0,0.5-0.1,0.7-0.3l2.1-2.1C47.5,44.9,47.6,44.5,47.4,44.1z"/>
	<path fill="#4DA0D8" d="M24.6,9.7c0-1-0.4-2-1.1-2.8c-0.7-0.7-1.6-1.1-2.6-1.1c-1.1,0-2.1,0.4-2.8,1.2l-0.7,0.7L12.5,3
		c-1.6-1.6-3.6-2.5-5.7-2.5C5,0.5,3.4,1.1,2.3,2.3C1,3.6,0.4,5.4,0.5,7.3c0.1,1.9,1,3.7,2.4,5.2l4.8,4.8L7,18
		c-1.5,1.5-1.6,4-0.1,5.5c0.7,0.7,1.6,1.1,2.6,1.1c1.1,0,2.1-0.4,2.8-1.2l11-11C24.2,11.7,24.6,10.7,24.6,9.7z"/>
</g>
</svg>
