<?xml version="1.0" encoding="utf-8"?>
<!-- Generator: Adobe Illustrator 18.0.0, SVG Export Plug-In . SVG Version: 6.00 Build 0)  -->
<!DOCTYPE svg PUBLIC "-//W3C//DTD SVG 1.1//EN" "http://www.w3.org/Graphics/SVG/1.1/DTD/svg11.dtd">
<svg version="1.1" id="Layer_1" xmlns="http://www.w3.org/2000/svg" xmlns:xlink="http://www.w3.org/1999/xlink" x="0px" y="0px"
	 viewBox="0 0 48 48" enable-background="new 0 0 48 48" xml:space="preserve">
<g>
	<path fill="#06728D" d="M13.7,4.5v34.8c0,2.3,5.2,3.5,10.3,3.5c5.1,0,10.3-1.2,10.3-3.5V1.4c0-0.5-0.6-0.9-1.4-0.9h-22
		c-0.6,0-1.1,0.2-1.3,0.6c-0.2,0.4-0.1,0.8,0.3,1L13.7,4.5z M22.9,5.6h5.3c0.8,0,1.4,0.4,1.4,0.9c0,0.5-0.6,0.9-1.4,0.9h-5.3
		c-0.8,0-1.4-0.4-1.4-0.9C21.5,6,22.1,5.6,22.9,5.6z M22.9,12.8h5.3c0.8,0,1.4,0.4,1.4,0.9c0,0.5-0.6,0.9-1.4,0.9h-5.3
		c-0.8,0-1.4-0.4-1.4-0.9C21.5,13.2,22.1,12.8,22.9,12.8z M22.9,20h5.3c0.8,0,1.4,0.4,1.4,0.9c0,0.5-0.6,0.9-1.4,0.9h-5.3
		c-0.8,0-1.4-0.4-1.4-0.9C21.5,20.5,22.1,20,22.9,20z M22.9,27.3h5.3c0.8,0,1.4,0.4,1.4,0.9s-0.6,0.9-1.4,0.9h-5.3
		c-0.8,0-1.4-0.4-1.4-0.9S22.1,27.3,22.9,27.3z M22.9,34.5h5.3c0.8,0,1.4,0.4,1.4,0.9s-0.6,0.9-1.4,0.9h-5.3c-0.8,0-1.4-0.4-1.4-0.9
		S22.1,34.5,22.9,34.5z"/>
	<path fill="#F04B36" d="M39.2,46.1l-3.8-4c-2.4,1.7-6.9,2.5-11.4,2.5c-4.5,0-9.1-0.8-11.4-2.5l-3.8,4c-0.3,0.3-0.3,0.6,0,0.9
		c0.2,0.3,0.7,0.5,1.2,0.5h28.1c0.5,0,1-0.2,1.2-0.5C39.5,46.7,39.5,46.4,39.2,46.1z"/>
</g>
</svg>
