<?xml version="1.0" encoding="utf-8"?>
<!-- Generator: Adobe Illustrator 18.0.0, SVG Export Plug-In . SVG Version: 6.00 Build 0)  -->
<!DOCTYPE svg PUBLIC "-//W3C//DTD SVG 1.1//EN" "http://www.w3.org/Graphics/SVG/1.1/DTD/svg11.dtd">
<svg version="1.1" id="Layer_1" xmlns="http://www.w3.org/2000/svg" xmlns:xlink="http://www.w3.org/1999/xlink" x="0px" y="0px"
	 viewBox="0 0 48 48" enable-background="new 0 0 48 48" xml:space="preserve">
<g>
	<path fill="#CFD0D1" d="M42.9,6.7c-2.5,0-4.5,2-4.6,4.5l-22.2,7.7c-0.7-0.6-1.6-0.9-2.4-0.9c-0.3,0-0.7,0-1,0.1l-2-2.5
		c0.4-0.6,0.6-1.3,0.6-2c0-2.1-1.7-3.9-3.9-3.9c-2.1,0-3.9,1.7-3.9,3.9c0,2.1,1.7,3.9,3.9,3.9c0.4,0,0.8-0.1,1.1-0.2l2,2.4
		c-0.4,0.6-0.6,1.3-0.6,2.1c0,0.8,0.2,1.5,0.7,2.2l-5,9.5c-0.2,0-0.4-0.1-0.7-0.1c-2.1,0-3.9,1.7-3.9,3.9c0,2.1,1.7,3.9,3.9,3.9
		c2.1,0,3.9-1.7,3.9-3.9c0-0.9-0.3-1.7-0.8-2.4l4.9-9.4c0.3,0.1,0.6,0.1,0.8,0.1c0.4,0,0.7-0.1,1.1-0.2l0.7,1.1
		c-0.5,0.7-0.7,1.4-0.7,2.2c0,2.1,1.7,3.9,3.9,3.9c2.1,0,3.9-1.7,3.9-3.9c0-2.1-1.7-3.9-3.9-3.9c-0.3,0-0.5,0-0.8,0.1L17,23.9
		c0.4-0.6,0.6-1.3,0.6-2c0-0.2,0-0.3,0-0.5l21.7-7.5c0.9,1.2,2.2,1.9,3.7,1.9c2.5,0,4.6-2,4.6-4.6C47.5,8.7,45.5,6.7,42.9,6.7z"/>
	<circle fill="#4DA0D8" cx="42.9" cy="11.3" r="4.6"/>
	<circle fill="#0DB89A" cx="7.5" cy="13.9" r="4.6"/>
	<circle fill="#E77528" cx="18.6" cy="29.6" r="4.6"/>
	<circle fill="#F04B36" cx="5.1" cy="36.7" r="4.6"/>
</g>
</svg>
