<?xml version="1.0" encoding="utf-8"?>
<!-- Generator: Adobe Illustrator 18.0.0, SVG Export Plug-In . SVG Version: 6.00 Build 0)  -->
<!DOCTYPE svg PUBLIC "-//W3C//DTD SVG 1.1//EN" "http://www.w3.org/Graphics/SVG/1.1/DTD/svg11.dtd">
<svg version="1.1" id="Layer_1" xmlns="http://www.w3.org/2000/svg" xmlns:xlink="http://www.w3.org/1999/xlink" x="0px" y="0px"
	 viewBox="0 0 48 48" enable-background="new 0 0 48 48" xml:space="preserve">
<g>
	<path fill="#CFD0D1" d="M42.4,10.6c-2.6,0-4.7,2.1-4.7,4.7c0,0,0,0,0,0l-23.5,8.1c-0.7-0.6-1.6-0.9-2.6-0.9c-0.1,0-0.2,0-0.2,0
		L7.6,10.9C8.5,10.1,9,9,9,7.8c0-2.2-1.8-4-4-4c-2.2,0-4,1.8-4,4c0,2.2,1.8,4,4,4l3.9,11.8c-0.8,0.8-1.2,1.8-1.2,2.8
		c0,2.2,1.8,4,4,4c0.1,0,0.2,0,0.4,0l3.8,6.7c-0.7,0.7-1,1.7-1,2.7c0,2.2,1.8,4,4,4s4-1.8,4-4c0-2.2-1.8-4-4-4c-0.2,0-0.3,0-0.5,0
		l-3.7-6.7c0.7-0.7,1.1-1.7,1.1-2.8c0-0.2,0-0.4-0.1-0.6L38.6,18c0.9,1.3,2.3,2,3.9,2c2.6,0,4.7-2.1,4.7-4.7S45,10.6,42.4,10.6z"/>
	<circle fill="#E77528" cx="5.1" cy="8.1" r="4.6"/>
	<circle fill="#4DA0D8" cx="18.7" cy="39.9" r="4.6"/>
	<circle fill="#0DB89A" cx="42.2" cy="15.7" r="5.3"/>
	<circle fill="#F04B36" cx="12.1" cy="26.3" r="5.3"/>
</g>
</svg>
