<?xml version="1.0" encoding="utf-8"?>
<!-- Generator: Adobe Illustrator 18.0.0, SVG Export Plug-In . SVG Version: 6.00 Build 0)  -->
<!DOCTYPE svg PUBLIC "-//W3C//DTD SVG 1.1//EN" "http://www.w3.org/Graphics/SVG/1.1/DTD/svg11.dtd">
<svg version="1.1" id="Layer_1" xmlns="http://www.w3.org/2000/svg" xmlns:xlink="http://www.w3.org/1999/xlink" x="0px" y="0px"
	 viewBox="0 0 48 48" enable-background="new 0 0 48 48" xml:space="preserve">
<g>
	<path fill="#CFD0D1" d="M28.8,24.9V2.4h2.4c0.5,0,1-0.4,1-1c0-0.5-0.4-1-1-1h-3.4h-7.7h-3.4c-0.5,0-1,0.4-1,1c0,0.5,0.4,1,1,1h2.4
		v22.4c-2.5,1.1-4.5,3.1-5.7,5.5h21.1C33.3,27.9,31.3,26,28.8,24.9z"/>
	<path fill="#4DA0D8" d="M13.5,30.3c-0.8,1.6-1.3,3.5-1.3,5.3c0,6.5,5.3,11.8,11.8,11.8c6.5,0,11.8-5.3,11.8-11.8
		c0-1.9-0.5-3.7-1.3-5.3H13.5z"/>
</g>
</svg>
