<?xml version="1.0" encoding="utf-8"?>
<!-- Generator: Adobe Illustrator 18.0.0, SVG Export Plug-In . SVG Version: 6.00 Build 0)  -->
<!DOCTYPE svg PUBLIC "-//W3C//DTD SVG 1.1//EN" "http://www.w3.org/Graphics/SVG/1.1/DTD/svg11.dtd">
<svg version="1.1" id="Layer_1" xmlns="http://www.w3.org/2000/svg" xmlns:xlink="http://www.w3.org/1999/xlink" x="0px" y="0px"
	 viewBox="0 0 48 48" enable-background="new 0 0 48 48" xml:space="preserve">
<g>
	<path fill="#0DB89A" d="M37.9,37.9l-7.9-27.2V5.6L31.5,4c0.2-0.2,0.3-0.5,0.3-0.8c0,0,0-0.1,0-0.1c0-2.4-6-2.6-7.8-2.6
		c-1.8,0-7.8,0.2-7.8,2.6c0,0.1,0,0.1,0,0.2c0,0.3,0.1,0.5,0.3,0.7l1.6,1.5v5.2L10.1,38c0,0.1-0.8,2.8,1.2,5.4
		c2.1,2.8,6.4,4.2,12.7,4.2s10.6-1.4,12.7-4.2C38.6,40.8,37.9,38.1,37.9,37.9z M24,2.4c2.6,0,4.5,0.3,5.4,0.7
		c-0.9,0.3-2.7,0.7-5.4,0.7c-2.6,0-4.5-0.3-5.4-0.7C19.5,2.8,21.3,2.4,24,2.4z"/>
</g>
</svg>
