<?xml version="1.0" encoding="utf-8"?>
<!-- Generator: Adobe Illustrator 18.0.0, SVG Export Plug-In . SVG Version: 6.00 Build 0)  -->
<!DOCTYPE svg PUBLIC "-//W3C//DTD SVG 1.1//EN" "http://www.w3.org/Graphics/SVG/1.1/DTD/svg11.dtd">
<svg version="1.1" id="Layer_1" xmlns="http://www.w3.org/2000/svg" xmlns:xlink="http://www.w3.org/1999/xlink" x="0px" y="0px"
	 viewBox="0 0 48 48" enable-background="new 0 0 48 48" xml:space="preserve">
<g>
	<path fill="#4DA0D8" d="M33.5,15c1.4-0.1,2.6-1.2,2.6-2.6c0-1.5-1.2-2.7-2.8-2.7h-9.5c-1.5,0-2.8,1.2-2.8,2.7
		c0,1.4,1.1,2.5,2.6,2.6v10.1l-8.9,14.1c-0.6,1-0.7,2-0.3,2.9c0.4,0.8,1.4,1.3,2.6,1.3h23.2c1.2,0,2.1-0.5,2.6-1.3
		c0.4-0.8,0.3-1.9-0.3-2.9l-8.9-14.1V15z"/>
	<path fill="#06728D" d="M46.5,44.3H8.3V7.5h33c0.5,0,1-0.4,1-1c0-0.5-0.4-1-1-1h-33V2.7c0-0.5-0.4-1-1-1c-0.5,0-1,0.4-1,1v2.8H4.3
		c-0.5,0-1,0.4-1,1c0,0.5,0.4,1,1,1h2.1v36.8H1.5c-0.5,0-1,0.4-1,1c0,0.5,0.4,1,1,1h45.1c0.5,0,1-0.4,1-1
		C47.5,44.7,47.1,44.3,46.5,44.3z"/>
</g>
</svg>
