<?xml version="1.0" encoding="utf-8"?>
<!-- Generator: Adobe Illustrator 18.0.0, SVG Export Plug-In . SVG Version: 6.00 Build 0)  -->
<!DOCTYPE svg PUBLIC "-//W3C//DTD SVG 1.1//EN" "http://www.w3.org/Graphics/SVG/1.1/DTD/svg11.dtd">
<svg version="1.1" id="Layer_1" xmlns="http://www.w3.org/2000/svg" xmlns:xlink="http://www.w3.org/1999/xlink" x="0px" y="0px"
	 viewBox="0 0 48 48" enable-background="new 0 0 48 48" xml:space="preserve">
<g>
	<path fill="none" d="M13.6,32.4c1.2,0.5,4.8,1.3,10.4,1.3s9.1-0.7,10.4-1.3c-1.2-0.5-4.8-1.3-10.4-1.3S14.9,31.8,13.6,32.4z"/>
	<path fill="#F7A93B" d="M34.1,30.2c-3.1-0.9-8.1-1-10.1-1c-2,0-7,0.1-10.1,1L11.4,32c0,0.1,0,0.2-0.1,0.3c-0.1,0.8-0.2,1.6-0.2,2.4
		c0,7.1,5.8,12.9,12.9,12.9c7.1,0,12.9-5.8,12.9-12.9c0-0.8-0.1-1.6-0.2-2.3L34.1,30.2z M24,33.6c-5.6,0-9.1-0.7-10.4-1.3
		c1.2-0.5,4.8-1.3,10.4-1.3s9.1,0.7,10.4,1.3C33.1,32.9,29.6,33.6,24,33.6z"/>
	<path fill="#0DB89A" d="M15.2,28c0.1-0.1,0.7-0.7,1.2-1.3c0.6-0.7,1.3-1.4,1.5-1.6c1.7-2,3.7-5.2,3.7-8.5V4.3c0-0.5-0.4-1-1-1h-0.6
		c-0.2,0-0.3-0.1-0.3-0.3V2.7c0-0.2,0.1-0.3,0.3-0.3h7.8c0.2,0,0.3,0.1,0.3,0.3V3c0,0.2-0.1,0.3-0.3,0.3h-0.6c-0.5,0-1,0.4-1,1v12.4
		c0,3.3,2,6.4,3.6,8.4c0.1,0.1,0.5,0.6,1,1.1c0.7,0.8,2,2.3,2.2,2.5c0.3,0.5,0.6,1,0.8,1.6l2.6,2c0-0.1,0-0.2,0-0.3
		c-0.3-1.6-0.9-3-1.8-4.4c-0.2-0.3-0.9-1.2-2.4-2.8c-0.4-0.5-0.8-0.9-0.9-1c-1.5-1.8-3.2-4.5-3.2-7.2V5.2c1-0.2,1.8-1.1,1.8-2.2V2.7
		c0-1.2-1-2.2-2.2-2.2h-7.8c-1.2,0-2.2,1-2.2,2.2V3c0,1.1,0.8,2,1.8,2.2v11.4c0,2.7-1.8,5.5-3.3,7.3c-0.1,0.2-0.8,0.9-1.4,1.5
		c-1,1-1.2,1.3-1.3,1.4c-1.2,1.5-2,3.3-2.3,5.2l2.6-1.8C14.3,29.4,14.7,28.7,15.2,28z"/>
</g>
</svg>
