<?xml version="1.0" encoding="utf-8"?>
<!-- Generator: Adobe Illustrator 18.0.0, SVG Export Plug-In . SVG Version: 6.00 Build 0)  -->
<!DOCTYPE svg PUBLIC "-//W3C//DTD SVG 1.1//EN" "http://www.w3.org/Graphics/SVG/1.1/DTD/svg11.dtd">
<svg version="1.1" id="Layer_1" xmlns="http://www.w3.org/2000/svg" xmlns:xlink="http://www.w3.org/1999/xlink" x="0px" y="0px"
	 viewBox="0 0 48 48" enable-background="new 0 0 48 48" xml:space="preserve">
<g>
	<path fill="#FFD69A" d="M22,12.4L9.7,13.5L3.1,5.4C2.8,5,2.2,4.9,1.8,5.2C1.4,5.6,1.3,6.2,1.6,6.6l6.6,8.1L3.4,27
		c-0.1,0.3-0.1,0.7,0.1,0.9L12,38.3l-2.5,8.1c-0.2,0.5,0.1,1,0.6,1.2c0.1,0,0.2,0,0.3,0c0.4,0,0.8-0.3,0.9-0.7l2.5-8.2l12.8-2
		c0.3-0.1,0.6-0.3,0.7-0.6L31.2,24L22,12.4z"/>
	<path fill="#4DA0D8" d="M46.4,9.4l-7-8.7c-0.2-0.3-0.5-0.4-0.9-0.3l-11,1.7c-0.3,0.1-0.6,0.3-0.7,0.6l-3.3,8.6l9.1,11.5l9.2-1.4
		c0.3-0.1,0.6-0.3,0.7-0.6l4-10.4C46.6,10,46.6,9.6,46.4,9.4z"/>
</g>
</svg>
