<?xml version="1.0" encoding="utf-8"?>
<!-- Generator: Adobe Illustrator 18.0.0, SVG Export Plug-In . SVG Version: 6.00 Build 0)  -->
<!DOCTYPE svg PUBLIC "-//W3C//DTD SVG 1.1//EN" "http://www.w3.org/Graphics/SVG/1.1/DTD/svg11.dtd">
<svg version="1.1" id="Layer_1" xmlns="http://www.w3.org/2000/svg" xmlns:xlink="http://www.w3.org/1999/xlink" x="0px" y="0px"
	 viewBox="0 0 48 48" enable-background="new 0 0 48 48" xml:space="preserve">
<g>
	<path fill="#CFD0D1" d="M44.1,20.6c-1.5,0-2.8,1-3.2,2.4h-7.6l-3.8-6.6l3.8-6.6c0.3,0.1,0.5,0.1,0.8,0.1c1.2,0,2.3-0.6,2.9-1.7
		c0.9-1.6,0.4-3.7-1.2-4.6c-0.5-0.3-1.1-0.5-1.7-0.5c-1.2,0-2.3,0.6-2.9,1.7c-0.5,0.8-0.6,1.7-0.3,2.5c0.1,0.5,0.4,1,0.8,1.4
		l-3.8,6.5h-7.7l-3.8-6.6c0.4-0.4,0.7-0.9,0.8-1.4c0.2-0.9,0.1-1.8-0.3-2.5c-0.6-1-1.7-1.7-2.9-1.7c-0.6,0-1.2,0.2-1.7,0.4
		c-1.6,0.9-2.2,3-1.2,4.6c0.6,1,1.7,1.7,2.9,1.7c0.3,0,0.5,0,0.8-0.1l3.8,6.6L14.6,23H7c-0.4-1.4-1.7-2.4-3.2-2.4
		c-1.8,0-3.4,1.5-3.4,3.4s1.5,3.4,3.4,3.4c1.5,0,2.8-1,3.2-2.4h7.6l3.8,6.6l-3.8,6.6c-0.3-0.1-0.5-0.1-0.8-0.1
		c-1.2,0-2.3,0.6-2.9,1.7c-0.9,1.6-0.4,3.7,1.2,4.6c0.5,0.3,1.1,0.5,1.7,0.5c1.2,0,2.3-0.6,2.9-1.7c0.5-0.8,0.6-1.7,0.3-2.5
		c-0.1-0.5-0.4-1-0.8-1.4l3.8-6.5h7.7l3.8,6.6c-0.4,0.4-0.7,0.9-0.8,1.4c-0.2,0.9-0.1,1.8,0.3,2.5c0.6,1,1.7,1.7,2.9,1.7
		c0.6,0,1.2-0.2,1.7-0.4c1.6-0.9,2.2-3,1.2-4.6c-0.6-1-1.7-1.7-2.9-1.7c-0.3,0-0.5,0-0.8,0.1l-3.8-6.6l3.9-6.7H41
		c0.4,1.4,1.7,2.4,3.2,2.4c1.8,0,3.4-1.5,3.4-3.4S46,20.6,44.1,20.6z"/>
	<circle fill="#F04B36" cx="44.1" cy="24" r="3.4"/>
	<circle fill="#06728D" cx="3.9" cy="24" r="3.4"/>
	<circle fill="#4DA0D8" cx="13.9" cy="6.6" r="3.4"/>
	<circle fill="#F7A93B" cx="34.1" cy="6.6" r="3.4"/>
	<circle fill="#0DB89A" cx="13.9" cy="41.4" r="3.4"/>
	<circle fill="#E77528" cx="34.1" cy="41.4" r="3.4"/>
	<polygon fill="#0DB89A" points="18.8,32.9 13.7,24 18.8,15.1 29.2,15.1 34.3,24 29.2,32.9 	"/>
</g>
</svg>
