<?xml version="1.0" encoding="utf-8"?>
<!-- Generator: Adobe Illustrator 18.0.0, SVG Export Plug-In . SVG Version: 6.00 Build 0)  -->
<!DOCTYPE svg PUBLIC "-//W3C//DTD SVG 1.1//EN" "http://www.w3.org/Graphics/SVG/1.1/DTD/svg11.dtd">
<svg version="1.1" id="Layer_1" xmlns="http://www.w3.org/2000/svg" xmlns:xlink="http://www.w3.org/1999/xlink" x="0px" y="0px"
	 viewBox="0 0 48 48" enable-background="new 0 0 48 48" xml:space="preserve">
<g>
	<path fill="#0DB89A" d="M35.5,24.3c-1.5,0-2.9,0.6-4,1.6l-8.9,8.7c-1.1,1.1-2.6,1.7-4.3,1.7c-1.6,0-3.1-0.6-4.3-1.7l-0.6-0.6
		c-1.1-1.1-1.8-2.6-1.8-4.2c0-1.6,0.6-3.1,1.8-4.2l8.9-8.7c1.1-1,1.7-2.4,1.7-3.9c0-1.5-0.6-2.9-1.7-3.9c-1.1-1-2.5-1.6-4-1.6
		c-1.5,0-2.9,0.6-4,1.6l-8.9,8.7c-3.3,3.2-5.1,7.5-5.1,12c0,4.5,1.8,8.8,5.1,12l0.6,0.6c3.3,3.2,7.6,5,12.2,5c4.6,0,9-1.8,12.2-5
		l8.9-8.7c1.1-1,1.7-2.4,1.7-3.9c0-1.5-0.6-2.9-1.7-3.9C38.4,24.9,37,24.3,35.5,24.3z"/>
	<path fill="#294E58" d="M22.8,7.6C22.9,7.6,22.9,7.6,22.8,7.6c0.6,0,1-0.5,1-1l-0.1-3.4l3.6-0.8c0.5-0.1,0.9-0.6,0.7-1.2
		c-0.1-0.5-0.6-0.9-1.2-0.7l-4.4,1c-0.5,0.1-0.8,0.5-0.8,1l0.2,4.2C21.9,7.2,22.3,7.6,22.8,7.6z"/>
	<path fill="#294E58" d="M24.8,5.5L25,9.7c0,0.5,0.4,0.9,1,0.9c0,0,0,0,0,0c0.5,0,1-0.5,0.9-1l-0.1-3.4l3.7-0.8
		c0.5-0.1,0.9-0.6,0.7-1.2C31,3.8,30.5,3.4,30,3.6l-4.4,1C25.1,4.6,24.8,5,24.8,5.5z"/>
	<path fill="#F7A93B" d="M39.2,23.6C39.2,23.6,39.2,23.6,39.2,23.6c0.6,0,1-0.5,1-1L40,19.3l3.6-0.8c0.5-0.1,0.9-0.6,0.7-1.2
		c-0.1-0.5-0.6-0.9-1.2-0.7l-4.4,1c-0.5,0.1-0.8,0.5-0.8,1l0.2,4.2C38.2,23.2,38.6,23.6,39.2,23.6z"/>
	<path fill="#F7A93B" d="M47.5,20.3c-0.1-0.5-0.6-0.9-1.2-0.7l-4.4,1c-0.5,0.1-0.8,0.5-0.8,1l0.2,4.2c0,0.5,0.4,0.9,1,0.9
		c0,0,0,0,0,0c0.5,0,1-0.5,0.9-1l-0.1-3.4l3.7-0.8C47.3,21.4,47.6,20.9,47.5,20.3z"/>
</g>
</svg>
