<?xml version="1.0" encoding="utf-8"?>
<!-- Generator: Adobe Illustrator 18.0.0, SVG Export Plug-In . SVG Version: 6.00 Build 0)  -->
<!DOCTYPE svg PUBLIC "-//W3C//DTD SVG 1.1//EN" "http://www.w3.org/Graphics/SVG/1.1/DTD/svg11.dtd">
<svg version="1.1" id="Layer_1" xmlns="http://www.w3.org/2000/svg" xmlns:xlink="http://www.w3.org/1999/xlink" x="0px" y="0px"
	 viewBox="0 0 48 48" enable-background="new 0 0 48 48" xml:space="preserve">
<g>
	<path fill="#CFD0D1" d="M31.6,30.2h-8.2c-0.6,0-1,0.5-1,1c0,0.6,0.5,1,1,1h8.2c0.6,0,1-0.5,1-1C32.6,30.7,32.2,30.2,31.6,30.2z"/>
	<circle fill="none" cx="24" cy="30.8" r="12.3"/>
	<path fill="#06728D" d="M42.8,5.7c0-0.6-0.5-1-1-1c-0.4,0-0.8,0.3-0.9,0.6c-0.1,0.1-0.5,0.4-1.7,0.7c-0.4,0.1-0.9,0.2-1.6,0.4
		c-0.4-0.4-0.9-0.7-1.2-1.1c-0.7-0.7-0.5-0.5-1.5-0.7c-0.7-0.2-0.7-0.3-1.3-0.9c-0.8-0.9-1.2-1.1-2.2-0.9c-0.4,0.1-0.7,0.3-1.2,0.1
		c-0.6-0.3-0.6-1.2-1.4-1.3c-0.5-0.1-1.1,0.2-1.7,0.1c-0.8-2.1-3.8-0.9-4.9,0.1c-0.8,0.7-0.7,0.6-1.8,0.5c-0.9,0-2-0.2-2.9,0
		c-0.4,0.1-0.8,0.3-1.1,0.5c-0.4,0.3-0.7,1-1,1.2c-0.5,0.3-1.3,0.1-1.8,0.1c-1.7,0.1-2.4,1.2-3.1,2.4C6.8,6.1,5.9,5.5,5.7,5.3
		C5.5,4.9,5.2,4.6,4.7,4.6c-0.6,0-1,0.5-1,1C3.7,8,10.2,9.2,23,9.2l2,0C36.8,9.1,42.8,7.9,42.8,5.7z"/>
	<circle fill="none" cx="24" cy="30.8" r="12.3"/>
	<polygon fill="#CFD0D1" points="25,9.2 23,9.2 23,14.1 25,14.1 	"/>
	<path fill="#F04B36" d="M37.2,14.1H25h-2H10.8c-3.9,0-7.1,3.2-7.1,7.1v19.3c0,3.9,3.2,7.1,7.1,7.1h26.4c3.9,0,7.1-3.2,7.1-7.1V21.1
		C44.3,17.3,41.1,14.1,37.2,14.1z M24,43.1c-6.8,0-12.3-5.5-12.3-12.3c0-6.8,5.5-12.3,12.3-12.3c6.8,0,12.3,5.5,12.3,12.3
		C36.4,37.6,30.8,43.1,24,43.1z"/>
</g>
</svg>
