<?xml version="1.0" encoding="utf-8"?>
<!-- Generator: Adobe Illustrator 18.0.0, SVG Export Plug-In . SVG Version: 6.00 Build 0)  -->
<!DOCTYPE svg PUBLIC "-//W3C//DTD SVG 1.1//EN" "http://www.w3.org/Graphics/SVG/1.1/DTD/svg11.dtd">
<svg version="1.1" id="Layer_1" xmlns="http://www.w3.org/2000/svg" xmlns:xlink="http://www.w3.org/1999/xlink" x="0px" y="0px"
	 viewBox="0 0 48 48" enable-background="new 0 0 48 48" xml:space="preserve">
<g>
	<path fill="#0DB89A" d="M25,1.5c0-0.5-0.4-1-1-1c-0.5,0-1,0.4-1,1v3.4h2V1.5z"/>
	<path fill="#F04B36" d="M41.6,43.3L29.7,24.6V10.3h0.5c1.6,0,2.9-1.2,2.9-2.7c0-1.5-1.3-2.7-2.9-2.7H25v27.3c2.3,0.6,4,3.1,4,6.1
		c0,3.4-2.3,6.2-5,6.2s-5-2.8-5-6.2c0-3,1.7-5.6,4-6.1V4.9h-5.2c-1.6,0-2.9,1.2-2.9,2.7c0,1.5,1.3,2.7,2.9,2.7h0.5v14.3L6.4,43.3
		c-0.7,1.1-0.8,2.1-0.4,3c0.5,0.8,1.4,1.3,2.7,1.3h30.4c1.3,0,2.2-0.5,2.7-1.3C42.4,45.4,42.2,44.3,41.6,43.3z"/>
</g>
</svg>
