<?xml version="1.0" encoding="utf-8"?>
<!-- Generator: Adobe Illustrator 18.0.0, SVG Export Plug-In . SVG Version: 6.00 Build 0)  -->
<!DOCTYPE svg PUBLIC "-//W3C//DTD SVG 1.1//EN" "http://www.w3.org/Graphics/SVG/1.1/DTD/svg11.dtd">
<svg version="1.1" id="Layer_1" xmlns="http://www.w3.org/2000/svg" xmlns:xlink="http://www.w3.org/1999/xlink" x="0px" y="0px"
	 viewBox="0 0 48 48" enable-background="new 0 0 48 48" xml:space="preserve">
<g>
	<path fill="#294E58" d="M16,30.8v3.1v1.9c0,0.8,0.7,1.5,1.5,1.5s1.5-0.7,1.5-1.5v-3v-3.1v-18l3.6,1.3c-0.4,0.6-0.6,1.2-0.6,1.9
		c0,3.1,4.4,5.5,10.2,5.5c5.8,0,10.2-2.4,10.2-5.5c0-3.1-4.4-5.5-10.2-5.5c-2.8,0-5.3,0.5-7.1,1.4l-6.1-2.3V2c0-0.8-0.7-1.5-1.5-1.5
		S16,1.2,16,2v5.5l-0.2-0.1c-0.8-0.3-1.6,0.1-1.9,0.9C13.6,9,14,9.8,14.7,10.1l1.2,0.5V30.8z M32.1,12.3c4.5,0,7.3,1.7,7.3,2.6
		c0,0.9-2.8,2.6-7.3,2.6c-4.5,0-7.3-1.7-7.3-2.6C24.8,13.9,27.6,12.3,32.1,12.3z"/>
	<path fill="#4DA0D8" d="M21,30.3l-1.7,0.6v4.9c0,1.1-0.9,1.9-1.9,1.9c-1.1,0-1.9-0.9-1.9-1.9v-3.5l-11.3,4l22.5,11.3l17-6.7
		L21,30.3z"/>
</g>
</svg>
