<?xml version="1.0" encoding="utf-8"?>
<!-- Generator: Adobe Illustrator 18.0.0, SVG Export Plug-In . SVG Version: 6.00 Build 0)  -->
<!DOCTYPE svg PUBLIC "-//W3C//DTD SVG 1.1//EN" "http://www.w3.org/Graphics/SVG/1.1/DTD/svg11.dtd">
<svg version="1.1" id="Layer_1" xmlns="http://www.w3.org/2000/svg" xmlns:xlink="http://www.w3.org/1999/xlink" x="0px" y="0px"
	 viewBox="0 0 48 48" enable-background="new 0 0 48 48" xml:space="preserve">
<g>
	<path fill="#0DB89A" d="M37.3,32.3c-0.5,0-0.9,0.4-0.9,0.9v3.2c-0.1,0-0.3,0.1-0.4,0.1c-0.2,0.1-0.4,0.1-0.6,0.2
		c-0.4,0.1-0.6,0.2-0.9,0.2c-1.6,0.1-3-0.2-4.4-1c-0.2-0.1-0.3-0.2-0.5-0.3c-0.7-0.4-1.6-0.9-2.5-1c-0.8-0.1-1.7-0.1-2.5-0.1
		c-0.3,0-0.6,0-0.9,0c-0.8,0-2.2,0.3-4,0.6c-1.8,0.3-3.8,0.7-5.8,0.9c-3.6,0.4-6.3,0.1-7.5-0.4v-2.5c0-0.5-0.4-0.9-0.9-0.9
		s-0.9,0.4-0.9,0.9v9.4c0,2.7,2.2,4.9,4.9,4.9h23.7c2.7,0,4.9-2.2,4.9-4.9v-9.4C38.2,32.7,37.8,32.3,37.3,32.3z"/>
	<path fill="#E77528" d="M14.4,33.6c2.4,0,4.4-2,4.4-4.4c0-2.2-3.1-5.3-3.8-5.9l-0.6-0.6l-0.6,0.6c-0.6,0.6-3.8,3.7-3.8,5.9
		C10,31.7,12,33.6,14.4,33.6z"/>
	<g>
		<path fill="#E77528" d="M35.9,1.4l-12.7,5c0,0,0,0,0,0c0.7,0.4-0.5,3.7-2.7,7.3c-1.6,2.6-3.3,4.7-4.4,5.5l23.2-9
			c2.7-1.1,4.2-3.9,3.3-6.3C41.7,1.4,38.7,0.3,35.9,1.4z"/>
	</g>
	<path fill="#06728D" d="M35.8,0.9l-24.9,9.7l0,0c-1.2,0.6-0.8,3.2,0.1,5.4c0.9,2.3,2.4,4.5,3.7,4c0.1,0,0.2-0.1,0.3-0.2
		c0,0,0,0,0,0c0,0,0,0,0,0l24.6-9.6c3-1.2,4.6-4.2,3.5-6.9C42,1,38.8-0.2,35.8,0.9z M14.3,19.3c-0.3,0.1-1.6-0.9-2.6-3.5
		c-1-2.6-0.8-4.2-0.5-4.3c0.3-0.1,1.6,0.9,2.6,3.5C14.8,17.6,14.6,19.2,14.3,19.3z M39.2,9.7l-23.7,9.2c0.2-1.1-0.2-2.8-0.8-4.2
		c-0.6-1.5-1.4-2.9-2.3-3.6l23.7-9.2c2.5-1,5.3,0,6.1,2.2C43.1,6.1,41.7,8.7,39.2,9.7z"/>
</g>
</svg>
