<?xml version="1.0" encoding="utf-8"?>
<!-- Generator: Adobe Illustrator 18.0.0, SVG Export Plug-In . SVG Version: 6.00 Build 0)  -->
<!DOCTYPE svg PUBLIC "-//W3C//DTD SVG 1.1//EN" "http://www.w3.org/Graphics/SVG/1.1/DTD/svg11.dtd">
<svg version="1.1" id="Layer_1" xmlns="http://www.w3.org/2000/svg" xmlns:xlink="http://www.w3.org/1999/xlink" x="0px" y="0px"
	 viewBox="0 0 48 48" enable-background="new 0 0 48 48" xml:space="preserve">
<g>
	<path fill="#F7A93B" d="M30.5,0.7c-0.1-0.1-0.2-0.2-0.4-0.2h-5.9h-0.5h-5.9c-0.2,0-0.3,0.1-0.4,0.2c-0.1,0.1-0.1,0.3-0.1,0.5l3,8.1
		c0.1,0.2,0.3,0.3,0.5,0.3H24h0h3.1c0.2,0,0.4-0.1,0.5-0.3l3-8.1C30.6,1,30.6,0.8,30.5,0.7z"/>
	<polygon fill="none" points="17.5,27.9 30.5,27.9 30.5,27.9 17.5,27.9 	"/>
	<path fill="none" d="M28.3,24V9c0-0.5,0.4-1,1-1h1c0.8,0,1.4-0.6,1.4-1.2c0-0.7-0.6-1.2-1.4-1.2H17.7c-0.8,0-1.4,0.6-1.4,1.2
		C16.3,7.5,17,8,17.7,8h1c0.5,0,1,0.4,1,1v15c0,0.2-0.1,0.4-0.2,0.5l-2.1,3.3h13.1l-2.1-3.3C28.3,24.4,28.3,24.2,28.3,24z"/>
	<path fill="#06728D" d="M19.6,24.6c0.1-0.2,0.2-0.3,0.2-0.5V9c0-0.5-0.4-1-1-1h-1c-0.8,0-1.4-0.6-1.4-1.2c0-0.7,0.6-1.2,1.4-1.2
		h12.5c0.8,0,1.4,0.6,1.4,1.2C31.7,7.5,31,8,30.3,8h-1c-0.5,0-1,0.4-1,1v15c0,0.2,0.1,0.4,0.2,0.5l2.1,3.3h2.3l-2.6-4.1V10h0
		c1.9,0,3.4-1.4,3.4-3.2c0-1.8-1.5-3.2-3.4-3.2H17.7c-1.9,0-3.4,1.4-3.4,3.2c0,1.8,1.5,3.2,3.4,3.2l0,13.8l-2.6,4.1h2.3L19.6,24.6z"
		/>
	<path fill="#F04B36" d="M32.9,27.9h-2.3l0,0H17.5l0,0h-2.3L5.9,42.5C5.1,43.7,4.9,45,5.5,46c0.5,1,1.7,1.5,3.1,1.5h30.7
		c1.5,0,2.6-0.6,3.1-1.5c0.5-1,0.4-2.2-0.4-3.5L32.9,27.9z"/>
</g>
</svg>
