<?xml version="1.0" encoding="utf-8"?>
<!-- Generator: Adobe Illustrator 18.0.0, SVG Export Plug-In . SVG Version: 6.00 Build 0)  -->
<!DOCTYPE svg PUBLIC "-//W3C//DTD SVG 1.1//EN" "http://www.w3.org/Graphics/SVG/1.1/DTD/svg11.dtd">
<svg version="1.1" id="Layer_1" xmlns="http://www.w3.org/2000/svg" xmlns:xlink="http://www.w3.org/1999/xlink" x="0px" y="0px"
	 viewBox="0 0 48 48" enable-background="new 0 0 48 48" xml:space="preserve">
<g>
	<path fill="#06728D" d="M43.8,45.5L38.9,35c0.6-0.1,1.1-0.7,1.1-1.4c0-0.8-0.6-1.4-1.4-1.4h-1l-6.9-14.8c0.9-1.3,1.5-2.9,1.5-4.7
		c0-4-2.9-7.3-6.7-8V1.9c0-0.8-0.6-1.4-1.4-1.4c-0.8,0-1.4,0.6-1.4,1.4v2.8c-3.8,0.7-6.7,4-6.7,8c0,1.7,0.6,3.4,1.5,4.7l-6.9,14.8
		h-1c-0.8,0-1.4,0.6-1.4,1.4c0,0.7,0.5,1.3,1.1,1.4L4.2,45.5c-0.3,0.7,0,1.6,0.7,1.9c0.2,0.1,0.4,0.1,0.6,0.1c0.5,0,1-0.3,1.3-0.8
		l5.4-11.6h10.3v3.1c0,0.8,0.6,1.4,1.4,1.4c0.8,0,1.4-0.6,1.4-1.4v-3.1h10.3l5.4,11.6c0.2,0.5,0.8,0.8,1.3,0.8c0.2,0,0.4,0,0.6-0.1
		C43.8,47,44.1,46.2,43.8,45.5z M18.7,12.7c0-2.9,2.4-5.3,5.3-5.3c2.9,0,5.3,2.4,5.3,5.3c0,0.5-0.1,0.9-0.2,1.4l-1-2
		c-0.3-0.7-1.2-1-1.9-0.7c-0.7,0.3-1,1.2-0.7,1.9l1.7,3.6c-0.9,0.7-2,1.1-3.2,1.1c-1.2,0-2.3-0.4-3.2-1.1l1.7-3.6
		c0.3-0.7,0-1.6-0.7-1.9c-0.7-0.3-1.6,0-1.9,0.7l-1,2C18.8,13.6,18.7,13.2,18.7,12.7z M25.4,32.2v-3.1c0-0.8-0.6-1.4-1.4-1.4
		c-0.8,0-1.4,0.6-1.4,1.4v3.1h-9l6-12.7c1.3,0.8,2.8,1.3,4.5,1.3c1.6,0,3.2-0.5,4.5-1.3l6,12.7H25.4z"/>
</g>
</svg>
