<?xml version="1.0" encoding="utf-8"?>
<!-- Generator: Adobe Illustrator 18.0.0, SVG Export Plug-In . SVG Version: 6.00 Build 0)  -->
<!DOCTYPE svg PUBLIC "-//W3C//DTD SVG 1.1//EN" "http://www.w3.org/Graphics/SVG/1.1/DTD/svg11.dtd">
<svg version="1.1" id="Layer_1" xmlns="http://www.w3.org/2000/svg" xmlns:xlink="http://www.w3.org/1999/xlink" x="0px" y="0px"
	 viewBox="0 0 48 48" enable-background="new 0 0 48 48" xml:space="preserve">
<g>
	<path fill="#E77528" d="M22,25.7V13h0.4c1.4,0,2.6-1.1,2.6-2.5C25,9.1,23.9,8,22.4,8H11.3c-1.4,0-2.6,1.1-2.6,2.5
		c0,1.4,1.2,2.5,2.6,2.5h0.4v12.7L1.1,42.4c-0.6,1-0.7,2-0.3,2.7c0.4,0.8,1.3,1.2,2.5,1.2h27.3c1.2,0,2.1-0.4,2.5-1.2
		c0.4-0.8,0.3-1.7-0.3-2.7L22,25.7z"/>
	<path fill="#0DB89A" d="M36.4,12.1V2.2c0-0.3-0.2-0.5-0.5-0.5H28c-0.3,0-0.5,0.2-0.5,0.5v9.9c-0.3,0.1-0.6,0.2-1,0.3
		c-0.5,1-1.4,1.8-2.5,2.2v10.4l10.3,16.2c0.2,0.3,0.4,0.6,0.5,1C42,41,47.5,34.6,47.5,27C47.5,20.1,42.9,14.1,36.4,12.1z"/>
</g>
</svg>
