<?xml version="1.0" encoding="utf-8"?>
<!-- Generator: Adobe Illustrator 18.0.0, SVG Export Plug-In . SVG Version: 6.00 Build 0)  -->
<!DOCTYPE svg PUBLIC "-//W3C//DTD SVG 1.1//EN" "http://www.w3.org/Graphics/SVG/1.1/DTD/svg11.dtd">
<svg version="1.1" id="Layer_1" xmlns="http://www.w3.org/2000/svg" xmlns:xlink="http://www.w3.org/1999/xlink" x="0px" y="0px"
	 viewBox="0 0 48 48" enable-background="new 0 0 48 48" xml:space="preserve">
<g>
	<path fill="#F7A93B" d="M23.9,5.4h1.9c0.5,0,1-0.4,1-0.9c0-0.5-0.4-0.9-1-0.9h-2.8H7.8H5C4.5,3.5,4,4,4,4.5C4,5,4.5,5.4,5,5.4h1.9
		l0,16.1c0,4.7,3.8,8.5,8.5,8.5c4.7,0,8.5-3.8,8.5-8.5l0-8.6l0-2.8L23.9,5.4z"/>
	<path fill="#06728D" d="M46.1,44.7h-4.6V13h1.9c0.8,0,1.4-0.6,1.4-1.4c0-0.8-0.6-1.4-1.4-1.4h-1.9V1.9c0-0.8-0.6-1.4-1.4-1.4
		c-0.8,0-1.4,0.6-1.4,1.4v8.2H23.9l0,2.8h14.7v31.6H20.5H10.4H1.9c-0.8,0-1.4,0.6-1.4,1.4c0,0.8,0.6,1.4,1.4,1.4h44.2
		c0.8,0,1.4-0.6,1.4-1.4C47.5,45.3,46.9,44.7,46.1,44.7z"/>
	<path fill="#F04B36" d="M20.5,44.6c0.8-0.7,1.1-1.5,1.3-2.1c0.3-0.9,0.2-1.8,0.1-2.6c0-0.3,0-0.5,0-0.8c0-0.1,0-0.3,0-0.4
		c0-0.1,0-0.2,0-0.3c0,0,0,0,0-0.1c0-0.1,0.1-0.4,0.1-0.7c-0.1-0.4-0.4-0.7-0.9-0.8c-0.6,0-1.1,0.1-1.8,0.4c-0.1-0.5-0.2-1-0.4-1.4
		c-0.3-0.8-0.9-1.5-1.5-1.9c-0.4-0.2-0.7-0.4-1.1-0.6l-0.1-0.1c-0.5-0.2-1.1-0.6-1.7-0.3C14.1,33,13.8,33.6,14,34
		c0.2,0.5,0.1,1.3-0.2,1.5c-0.5,0.4-0.9,0.8-1.3,1.3c-0.2-0.5-0.5-1-0.9-1.2c-0.3-0.2-0.6-0.2-0.9,0c-0.3,0.2-0.5,0.5-0.5,0.8
		c0,0.3-0.3,0.7-0.5,1.1L9.3,38c-0.2,0.4-0.5,0.9-0.6,1.5c0,0.4,0,0.9,0,1.6c0.1,1,0.3,2.1,1.2,3c0.1,0.1,0.3,0.3,0.4,0.5
		c0,0,0.1,0.1,0.1,0.1L20.5,44.6L20.5,44.6z"/>
</g>
</svg>
