<?xml version="1.0" encoding="utf-8"?>
<!-- Generator: Adobe Illustrator 18.0.0, SVG Export Plug-In . SVG Version: 6.00 Build 0)  -->
<!DOCTYPE svg PUBLIC "-//W3C//DTD SVG 1.1//EN" "http://www.w3.org/Graphics/SVG/1.1/DTD/svg11.dtd">
<svg version="1.1" id="Layer_1" xmlns="http://www.w3.org/2000/svg" xmlns:xlink="http://www.w3.org/1999/xlink" x="0px" y="0px"
	 viewBox="0 0 48 48" enable-background="new 0 0 48 48" xml:space="preserve">
<g>
	<path fill="#294E58" d="M47.5,46.3l-5.9-24.4c-0.1-0.4-0.5-0.7-0.9-0.7h-2.9v1.9h2.2l5.7,23.7c0.1,0.4,0.5,0.7,0.9,0.7
		c0.1,0,0.2,0,0.2,0C47.3,47.3,47.6,46.8,47.5,46.3z"/>
	<path fill="#E77528" d="M28.3,9.5V2.4h1.5c0.5,0,1-0.4,1-1c0-0.5-0.4-1-1-1h-1.5h-8.6h-1.5c-0.5,0-1,0.4-1,1c0,0.5,0.4,1,1,1h1.5
		v7.1c-5.1,1.7-8.8,6.3-9.4,11.6h27.4C37.1,15.8,33.5,11.2,28.3,9.5z"/>
	<path fill="#294E58" d="M10.3,21.1h-3c-0.4,0-0.8,0.3-0.9,0.7L0.5,46.3c-0.1,0.5,0.2,1,0.7,1.2c0.1,0,0.2,0,0.2,0
		c0.4,0,0.8-0.3,0.9-0.7l5.7-23.7h2.2l0.1-0.1V21.1z"/>
	<path fill="#F7A93B" d="M10.3,23.1L10.3,23.1L10.3,23.1L10.3,23.1c0.2,7.4,6.2,13.3,13.7,13.3s13.5-5.9,13.8-13.3H10.3z"/>
</g>
</svg>
