<?xml version="1.0" encoding="utf-8"?>
<!-- Generator: Adobe Illustrator 18.0.0, SVG Export Plug-In . SVG Version: 6.00 Build 0)  -->
<!DOCTYPE svg PUBLIC "-//W3C//DTD SVG 1.1//EN" "http://www.w3.org/Graphics/SVG/1.1/DTD/svg11.dtd">
<svg version="1.1" id="Layer_1" xmlns="http://www.w3.org/2000/svg" xmlns:xlink="http://www.w3.org/1999/xlink" x="0px" y="0px"
	 viewBox="0 0 48 48" enable-background="new 0 0 48 48" xml:space="preserve">
<g>
	<path fill="#F7A93B" d="M24,0.5c-7.9,0-14.3,6.4-14.3,14.3c0,3.8,2.2,6.2,4.4,8.7c1,1.2,2.1,2.3,2.9,3.7c0.6,1,0.3,5-0.1,7.6
		c0,0.3,0,0.6,0.2,0.8s0.5,0.3,0.7,0.3h12.4c0.3,0,0.6-0.1,0.7-0.3s0.3-0.5,0.2-0.8c-0.4-2.5-0.7-6.6-0.1-7.6
		c0.8-1.3,1.9-2.5,2.9-3.7c2.2-2.4,4.4-4.9,4.4-8.7C38.3,6.9,31.9,0.5,24,0.5z"/>
	<path fill="#F04B36" d="M30.6,38.3H17.5c-0.5,0-1,0.4-1,1c0,0.5,0.4,1,1,1h13.1c0.5,0,1-0.4,1-1C31.5,38.7,31.1,38.3,30.6,38.3z"/>
	<path fill="#F04B36" d="M30.6,41.9H17.5c-0.5,0-1,0.4-1,1c0,0.5,0.4,1,1,1h13.1c0.5,0,1-0.4,1-1C31.5,42.4,31.1,41.9,30.6,41.9z"/>
	<path fill="#F04B36" d="M27,45.6h-5.9c-0.5,0-1,0.4-1,1s0.4,1,1,1H27c0.5,0,1-0.4,1-1S27.5,45.6,27,45.6z"/>
</g>
</svg>
