<?xml version="1.0" encoding="utf-8"?>
<!-- Generator: Adobe Illustrator 18.0.0, SVG Export Plug-In . SVG Version: 6.00 Build 0)  -->
<!DOCTYPE svg PUBLIC "-//W3C//DTD SVG 1.1//EN" "http://www.w3.org/Graphics/SVG/1.1/DTD/svg11.dtd">
<svg version="1.1" id="Layer_1" xmlns="http://www.w3.org/2000/svg" xmlns:xlink="http://www.w3.org/1999/xlink" x="0px" y="0px"
	 viewBox="0 0 48 48" enable-background="new 0 0 48 48" xml:space="preserve">
<g>
	<path fill="#06728D" d="M46.1,27.7c-0.8,0-1.4,0.6-1.4,1.4v7.6l-6,3.7l-6-3.4v-7.2l6.9-3.9c0.4-0.3,0.7-0.7,0.7-1.2v-8
		c0-0.8-0.6-1.4-1.4-1.4c-0.8,0-1.4,0.6-1.4,1.4v7.1l-6.2,3.5l-6-3.2v-7.8c0-0.5-0.3-1-0.7-1.2l-7.1-4.2V6c0-0.8-0.6-1.4-1.4-1.4
		c-0.8,0-1.4,0.6-1.4,1.4v4.7L7.7,15C7.3,15.2,7,15.7,7,16.2v8l-5.9,3.9c-0.3,0.2-0.5,0.5-0.6,0.9c-0.1,0.4,0,0.8,0.2,1.1
		c0.3,0.4,0.7,0.6,1.2,0.6c0.3,0,0.6-0.1,0.8-0.2l5.8-3.9l6.2,3.5c0.2,0.1,0.5,0.2,0.7,0.2c0.5,0,1-0.3,1.2-0.7
		c0.2-0.3,0.2-0.7,0.1-1.1c-0.1-0.4-0.3-0.7-0.7-0.9l-6.3-3.5V17l6-3.8l6.5,3.9V25c0,0.5,0.3,1,0.8,1.3l6.7,3.5v8
		c0,0.5,0.3,1,0.7,1.2l7.4,4.3c0.2,0.1,0.5,0.2,0.7,0.2c0.3,0,0.5-0.1,0.7-0.2l7.4-4.6c0.4-0.3,0.7-0.7,0.7-1.2v-8.4
		C47.5,28.3,46.9,27.7,46.1,27.7z"/>
</g>
</svg>
