<?xml version="1.0" encoding="utf-8"?>
<!-- Generator: Adobe Illustrator 18.0.0, SVG Export Plug-In . SVG Version: 6.00 Build 0)  -->
<!DOCTYPE svg PUBLIC "-//W3C//DTD SVG 1.1//EN" "http://www.w3.org/Graphics/SVG/1.1/DTD/svg11.dtd">
<svg version="1.1" id="Layer_1" xmlns="http://www.w3.org/2000/svg" xmlns:xlink="http://www.w3.org/1999/xlink" x="0px" y="0px"
	 viewBox="0 0 48 48" enable-background="new 0 0 48 48" xml:space="preserve">
<g>
	<path fill="none" d="M26.6,13.1c0.9,0,1.5-0.2,1.9-0.6c0.4-0.4,0.6-0.9,0.6-1.6c0,0,0-2.7-1.9-2.7c-0.7,0-1.2,0.2-1.5,0.5
		C25,9.4,24.9,10.6,25,11l0,2C25.5,13.1,26,13.1,26.6,13.1z"/>
	<path fill="none" d="M27.3,30.7V19.8c0-0.3,0.2-0.5,0.5-0.5h0.7c0.7,0,1.2-0.5,1.2-1.1c0-0.6-0.6-1.1-1.2-1.1H25l0,18.6
		c0,0.1,0,0.1,0,0.2h5.5L27.4,31C27.4,30.9,27.3,30.8,27.3,30.7z"/>
	<path fill="none" d="M23,17h-3.6c-0.7,0-1.2,0.5-1.2,1.1c0,0.6,0.6,1.1,1.2,1.1h0.7c0.3,0,0.5,0.2,0.5,0.5v10.9
		c0,0.1,0,0.2-0.1,0.3l-3.1,4.8h5.5c0-0.1,0-0.1,0-0.2V17z"/>
	<path fill="#F7A93B" d="M25,15c0.5,0.1,1,0.1,1.6,0.1c1.4,0,2.5-0.4,3.3-1.2c0.7-0.7,1.1-1.8,1.1-3c0-1.3-0.7-4.6-3.9-4.6
		c-1.6,0-2.5,0.7-3,1.2c-1.3,1.4-1.1,3.4-1.1,3.6v1c-1-0.7-1.6-1.7-1.6-2.8V1.5c0-0.5-0.4-1-1-1c-0.5,0-1,0.4-1,1v7.9
		c0,2.2,1.4,4,3.5,5v1.7h2V15z M25.6,8.8c0.3-0.4,0.8-0.5,1.5-0.5c1.9,0,1.9,2.6,1.9,2.7c0,0.7-0.2,1.2-0.6,1.6
		c-0.4,0.4-1,0.6-1.9,0.6c-0.6,0-1.1-0.1-1.6-0.2l0-2C24.9,10.6,25,9.4,25.6,8.8z"/>
	<path fill="#06728D" d="M37,44.2l-8.7-13.6V20.3h0.2c1.2,0,2.2-0.9,2.2-2.1c0-1.2-1-2.1-2.2-2.1H25h-2h-3.6c-1.2,0-2.2,0.9-2.2,2.1
		c0,1.2,1,2.1,2.2,2.1h0.2v10.3L11,44.2c-0.5,0.8-0.6,1.7-0.3,2.3c0.4,0.6,1.1,1,2.1,1h22.3c1,0,1.7-0.4,2.1-1
		C37.6,45.8,37.5,45,37,44.2z M24.9,35.8h-1.9h-5.5l3.1-4.8c0.1-0.1,0.1-0.2,0.1-0.3V19.8c0-0.3-0.2-0.5-0.5-0.5h-0.7
		c-0.7,0-1.2-0.5-1.2-1.1c0-0.6,0.6-1.1,1.2-1.1H23h2h3.6c0.7,0,1.2,0.5,1.2,1.1c0,0.6-0.6,1.1-1.2,1.1h-0.7c-0.3,0-0.5,0.2-0.5,0.5
		v10.9c0,0.1,0,0.2,0.1,0.3l3.1,4.8H24.9z"/>
	<path fill="#F7A93B" d="M25,17h-2v18.6c0,0.1,0,0.1,0,0.2h1.9c0-0.1,0-0.1,0-0.2L25,17z"/>
</g>
</svg>
