<?xml version="1.0" encoding="utf-8"?>
<!-- Generator: Adobe Illustrator 18.0.0, SVG Export Plug-In . SVG Version: 6.00 Build 0)  -->
<!DOCTYPE svg PUBLIC "-//W3C//DTD SVG 1.1//EN" "http://www.w3.org/Graphics/SVG/1.1/DTD/svg11.dtd">
<svg version="1.1" id="Layer_1" xmlns="http://www.w3.org/2000/svg" xmlns:xlink="http://www.w3.org/1999/xlink" x="0px" y="0px"
	 viewBox="0 0 48 48" enable-background="new 0 0 48 48" xml:space="preserve">
<g>
	<path fill="#4DA0D8" d="M24,40.5C13,40.5,7.3,43,7.3,44c0,1,5.7,3.5,16.7,3.5c11,0,16.7-2.4,16.7-3.5C40.7,43,35,40.5,24,40.5z"/>
	<path fill="#F7A93B" d="M18.5,8.8c-0.2,0.1-0.5,0.3-0.7,0.4c-1.1,0.7-2.4,1.5-4,1.5h0c-2,0-2.9-1.3-3.4-2.4
		c-0.1-0.2-0.2-0.3-0.3-0.6C9,7.4,8.1,7.2,7.3,6.9v34.4c3.4-1.9,10.2-2.8,16.7-2.8c6.5,0,13.4,0.9,16.7,2.8V6.9C36.4,8.5,29,9,24,9
		C22.1,9,20.3,8.9,18.5,8.8z"/>
	<path fill="#06728D" d="M24,0.5C12.7,0.5,6.2,2.6,5.9,3.7c0.1,0.2,1.2,1.2,5.1,2l0.4,0.1l0.2,0.4c0.3,0.4,0.5,0.8,0.6,1.1
		c0.5,1,0.9,1.2,1.5,1.2h0c1,0,1.9-0.5,2.9-1.1c0.3-0.2,0.7-0.4,1-0.6L18,6.6l0.3,0c1.8,0.1,3.8,0.2,5.7,0.2
		c11.3,0,17.8-2.1,18.1-3.2C41.8,2.6,35.3,0.5,24,0.5z"/>
</g>
</svg>
