<?xml version="1.0" encoding="utf-8"?>
<!-- Generator: Adobe Illustrator 18.0.0, SVG Export Plug-In . SVG Version: 6.00 Build 0)  -->
<!DOCTYPE svg PUBLIC "-//W3C//DTD SVG 1.1//EN" "http://www.w3.org/Graphics/SVG/1.1/DTD/svg11.dtd">
<svg version="1.1" id="Layer_1" xmlns="http://www.w3.org/2000/svg" xmlns:xlink="http://www.w3.org/1999/xlink" x="0px" y="0px"
	 viewBox="0 0 48 48" enable-background="new 0 0 48 48" xml:space="preserve">
<g>
	<path fill="#0DB89A" d="M33.3,11.5h-2.2v-9h3.2c0.5,0,1-0.4,1-1c0-0.5-0.4-1-1-1h-4.2H17.9h-4.2c-0.5,0-1,0.4-1,1c0,0.5,0.4,1,1,1
		h3.2v9h-2.2c-3.2,0-5.8,2.6-5.8,5.8v24.4c0,3.2,2.6,5.8,5.8,5.8h18.7c3.2,0,5.8-2.6,5.8-5.8V17.3C39.2,14.1,36.5,11.5,33.3,11.5z
		 M32.8,42.5h-6.7c-0.5,0-1-0.4-1-1c0-0.5,0.4-1,1-1h6.7c0.5,0,1,0.4,1,1C33.8,42,33.3,42.5,32.8,42.5z M32.8,36.6h-6.7
		c-0.5,0-1-0.4-1-1s0.4-1,1-1h6.7c0.5,0,1,0.4,1,1S33.3,36.6,32.8,36.6z M32.8,30.8h-6.7c-0.5,0-1-0.4-1-1c0-0.5,0.4-1,1-1h6.7
		c0.5,0,1,0.4,1,1C33.8,30.4,33.3,30.8,32.8,30.8z M32.8,25h-6.7c-0.5,0-1-0.4-1-1s0.4-1,1-1h6.7c0.5,0,1,0.4,1,1S33.3,25,32.8,25z
		 M32.8,19.1h-6.7c-0.5,0-1-0.4-1-1c0-0.5,0.4-1,1-1h6.7c0.5,0,1,0.4,1,1C33.8,18.7,33.3,19.1,32.8,19.1z"/>
</g>
</svg>
