<?xml version="1.0" encoding="utf-8"?>
<!-- Generator: Adobe Illustrator 18.0.0, SVG Export Plug-In . SVG Version: 6.00 Build 0)  -->
<!DOCTYPE svg PUBLIC "-//W3C//DTD SVG 1.1//EN" "http://www.w3.org/Graphics/SVG/1.1/DTD/svg11.dtd">
<svg version="1.1" id="Layer_1" xmlns="http://www.w3.org/2000/svg" xmlns:xlink="http://www.w3.org/1999/xlink" x="0px" y="0px"
	 viewBox="0 0 48 48" enable-background="new 0 0 48 48" xml:space="preserve">
<g>
	<path fill="#4DA0D8" d="M35.5,25.5c-1.7,0-3.3,0.6-4.6,1.6c0.1-0.5,0.1-1,0.1-1.6c0-4.5-3.3-8.1-7.3-8.1c-4,0-7.3,3.6-7.3,8.1
		c0,0,0,0.1,0,0.1c-3.9,0.7-7,4.4-7,9c0,5,3.7,9.1,8.2,9.1h17.9c4.5,0,8.2-4.1,8.2-9.1C43.7,29.6,40,25.5,35.5,25.5z"/>
	<path fill="#06728D" d="M14.4,24.1c0.5-4,3.3-7.3,6.8-8.3c-1.2-2.5-3.7-4.2-6.4-4.2c-4,0-7.3,3.6-7.3,8.1c0,0,0,0.1,0,0.1
		c-3.9,0.7-7,4.4-7,9c0,4.7,3.2,8.5,7.3,9c-0.3-1-0.4-2-0.4-3.1C7.3,29.7,10.2,25.5,14.4,24.1z"/>
	<path fill="#F7A93B" d="M39.3,12.4c-1.7,0-3.3,0.6-4.6,1.6c0.1-0.5,0.1-1,0.1-1.6c0-4.5-3.3-8.1-7.3-8.1c-3.7,0-6.8,3.1-7.3,7.1
		c1.2,0.9,2.2,2.1,2.9,3.5l0.3,0.6c0.1,0,0.2,0,0.3,0c4.6,0,8.5,3.7,9.2,8.4c0.8-0.2,1.7-0.4,2.6-0.4c3.7,0,6.9,2.1,8.7,5.3
		c2-1.7,3.3-4.3,3.3-7.3C47.5,16.5,43.8,12.4,39.3,12.4z"/>
</g>
</svg>
