<?xml version="1.0" encoding="utf-8"?>
<!-- Generator: Adobe Illustrator 18.0.0, SVG Export Plug-In . SVG Version: 6.00 Build 0)  -->
<!DOCTYPE svg PUBLIC "-//W3C//DTD SVG 1.1//EN" "http://www.w3.org/Graphics/SVG/1.1/DTD/svg11.dtd">
<svg version="1.1" id="Layer_1" xmlns="http://www.w3.org/2000/svg" xmlns:xlink="http://www.w3.org/1999/xlink" x="0px" y="0px"
	 viewBox="0 0 48 48" enable-background="new 0 0 48 48" xml:space="preserve">
<g>
	<path fill="#4DA0D8" d="M35.7,11.1c-1.7,0-3.4,0.4-4.9,1.2c0-0.1,0-0.1,0-0.2c0-6.4-4.7-11.6-10.6-11.6c-5.6,0-10.3,4.9-10.6,11
		C4.3,12.8,0.5,17.9,0.5,24c0,7.1,5.3,12.9,11.8,12.9h23.4c6.5,0,11.8-5.8,11.8-12.9C47.5,16.9,42.2,11.1,35.7,11.1z"/>
	<path fill="#F04B36" d="M14.5,37.9c-0.5-0.3-1.1-0.1-1.3,0.4l-4.1,7.8c-0.3,0.5-0.1,1.1,0.4,1.3c0.1,0.1,0.3,0.1,0.5,0.1
		c0.3,0,0.7-0.2,0.9-0.5l4.1-7.8C15.2,38.7,15,38.2,14.5,37.9z"/>
	<path fill="#F04B36" d="M21.1,37.9c-0.5-0.3-1.1-0.1-1.3,0.4l-4.1,7.8c-0.3,0.5-0.1,1.1,0.4,1.3c0.1,0.1,0.3,0.1,0.5,0.1
		c0.3,0,0.7-0.2,0.9-0.5l4.1-7.8C21.8,38.7,21.6,38.2,21.1,37.9z"/>
	<path fill="#F04B36" d="M27.7,37.9c-0.5-0.3-1.1-0.1-1.3,0.4l-4.1,7.8c-0.3,0.5-0.1,1.1,0.4,1.3c0.1,0.1,0.3,0.1,0.5,0.1
		c0.3,0,0.7-0.2,0.9-0.5l4.1-7.8C28.4,38.7,28.2,38.2,27.7,37.9z"/>
	<path fill="#F04B36" d="M34.3,37.9c-0.5-0.3-1.1-0.1-1.3,0.4l-4.1,7.8c-0.3,0.5-0.1,1.1,0.4,1.3c0.1,0.1,0.3,0.1,0.5,0.1
		c0.3,0,0.7-0.2,0.9-0.5l4.1-7.8C35,38.7,34.8,38.2,34.3,37.9z"/>
</g>
</svg>
