<?xml version="1.0" encoding="utf-8"?>
<!-- Generator: Adobe Illustrator 18.0.0, SVG Export Plug-In . SVG Version: 6.00 Build 0)  -->
<!DOCTYPE svg PUBLIC "-//W3C//DTD SVG 1.1//EN" "http://www.w3.org/Graphics/SVG/1.1/DTD/svg11.dtd">
<svg version="1.1" id="Layer_1" xmlns="http://www.w3.org/2000/svg" xmlns:xlink="http://www.w3.org/1999/xlink" x="0px" y="0px"
	 viewBox="0 0 48 48" enable-background="new 0 0 48 48" xml:space="preserve">
<g>
	<path fill="#CFD0D1" d="M38.8,18.7c-1.8,0-3.5,0.6-4.9,1.7c0.1-0.5,0.1-1.1,0.1-1.7c0-4.7-3.5-8.6-7.8-8.6c-4.3,0-7.8,3.8-7.8,8.6
		c0,0,0,0.1,0,0.1c-1.8,0.3-3.4,1.2-4.7,2.6c0,0-1.6,1.8-3,4H7.2c-0.5,0-1,0.4-1,1c0,0.5,0.4,1,1,1h2.5c0.2-0.7,0.8-1.3,1.2-1.9v0
		h7.7c0.5,0,1,0.4,1,1c0,0.5-0.4,1-1,1H9.7c-0.3,0.6-0.5,1.1-0.6,1.6c0,0.1,0,0.2-0.1,0.3H4.3c-0.5,0-1,0.4-1,1c0,0.5,0.4,1,1,1h4.4
		c-0.1,0.7-0.2,1.4-0.2,2.1h-7c-0.5,0-1,0.4-1,1c0,0.5,0.4,1,1,1h6.8c-0.1,1.5-0.1,2.6-0.1,2.6h30.5c4.8,0,8.7-4.3,8.7-9.6
		S43.6,18.7,38.8,18.7z M8.8,31.1c0,0,0-0.1,0-0.1c0-0.1,0-0.1,0-0.2c0-0.5,0.2-1,0.2-1.5c0,0,0,0,0-0.1h8.7c0.5,0,1,0.4,1,1
		c0,0.5-0.4,1-1,1h-9C8.8,31.2,8.8,31.2,8.8,31.1C8.8,31.1,8.8,31.1,8.8,31.1z M18.2,35.3H8.4c0,0,0,0,0-0.1c0-0.1,0-0.2,0-0.3
		c0-0.5,0-1.1,0.1-1.6h9.7c0.5,0,1,0.4,1,1C19.2,34.8,18.8,35.3,18.2,35.3z"/>
</g>
</svg>
