<?xml version="1.0" encoding="utf-8"?>
<!-- Generator: Adobe Illustrator 18.0.0, SVG Export Plug-In . SVG Version: 6.00 Build 0)  -->
<!DOCTYPE svg PUBLIC "-//W3C//DTD SVG 1.1//EN" "http://www.w3.org/Graphics/SVG/1.1/DTD/svg11.dtd">
<svg version="1.1" id="Layer_1" xmlns="http://www.w3.org/2000/svg" xmlns:xlink="http://www.w3.org/1999/xlink" x="0px" y="0px"
	 viewBox="0 0 48 48" enable-background="new 0 0 48 48" xml:space="preserve">
<g>
	<path fill="#F7A93B" d="M35.7,11c-1.7,0-3.4,0.4-4.9,1.2c0-0.1,0-0.1,0-0.2c0-6.3-4.7-11.4-10.6-11.4c-5.6,0-10.3,4.8-10.6,10.7
		c-5.3,1.3-9.1,6.3-9.1,12.3c0,7,5.3,12.6,11.8,12.6h9.3l-9,9.5c-0.4,0.4-0.4,1,0,1.4c0.2,0.2,0.4,0.3,0.7,0.3
		c0.3,0,0.5-0.1,0.7-0.3l10.3-10.8h-2.7l4.8-5.1h-10c-0.4,0-0.7-0.2-0.9-0.6c-0.1-0.4-0.1-0.8,0.2-1.1L28,17.4c0.4-0.4,1-0.4,1.4,0
		c0.4,0.4,0.4,1,0,1.4L18.8,29.3h9.9c0.4,0,0.7,0.2,0.9,0.6c0.2,0.4,0.1,0.8-0.2,1l-5.1,5.4h11.4c6.5,0,11.8-5.7,11.8-12.6
		C47.5,16.7,42.2,11,35.7,11z"/>
</g>
</svg>
