<?xml version="1.0" encoding="utf-8"?>
<!-- Generator: Adobe Illustrator 18.0.0, SVG Export Plug-In . SVG Version: 6.00 Build 0)  -->
<!DOCTYPE svg PUBLIC "-//W3C//DTD SVG 1.1//EN" "http://www.w3.org/Graphics/SVG/1.1/DTD/svg11.dtd">
<svg version="1.1" id="Layer_1" xmlns="http://www.w3.org/2000/svg" xmlns:xlink="http://www.w3.org/1999/xlink" x="0px" y="0px"
	 viewBox="0 0 48 48" enable-background="new 0 0 48 48" xml:space="preserve">
<g>
	<path fill="#F04B36" d="M46.1,24.3c-12,0-21.7,9.8-21.7,21.7c0,0.8,0.6,1.4,1.4,1.4c0.8,0,1.4-0.6,1.4-1.4
		c0-10.4,8.5-18.9,18.9-18.9c0.8,0,1.4-0.6,1.4-1.4C47.5,25,46.9,24.3,46.1,24.3z"/>
	<path fill="#F7A93B" d="M46.1,18.4c-15.3,0-27.7,12.4-27.7,27.7c0,0.8,0.6,1.4,1.4,1.4c0.8,0,1.4-0.6,1.4-1.4
		c0-13.7,11.2-24.9,24.9-24.9c0.8,0,1.4-0.6,1.4-1.4C47.5,19,46.9,18.4,46.1,18.4z"/>
	<path fill="#06728D" d="M46.1,12.4c-18.6,0-33.7,15.1-33.7,33.7c0,0.8,0.6,1.4,1.4,1.4c0.8,0,1.4-0.6,1.4-1.4
		c0-17,13.8-30.8,30.8-30.8c0.8,0,1.4-0.6,1.4-1.4C47.5,13.1,46.9,12.4,46.1,12.4z"/>
	<path fill="#F7A93B" d="M46.1,6.5C24.2,6.5,6.5,24.2,6.5,46.1c0,0.8,0.6,1.4,1.4,1.4c0.8,0,1.4-0.6,1.4-1.4
		c0-20.3,16.5-36.8,36.8-36.8c0.8,0,1.4-0.6,1.4-1.4C47.5,7.1,46.9,6.5,46.1,6.5z"/>
	<path fill="#F04B36" d="M46.1,3.3c0.8,0,1.4-0.6,1.4-1.4c0-0.8-0.6-1.4-1.4-1.4C20.9,0.5,0.5,20.9,0.5,46.1c0,0.8,0.6,1.4,1.4,1.4
		c0.8,0,1.4-0.6,1.4-1.4C3.3,22.5,22.5,3.3,46.1,3.3z"/>
</g>
</svg>
