<?xml version="1.0" encoding="utf-8"?>
<!-- Generator: Adobe Illustrator 18.0.0, SVG Export Plug-In . SVG Version: 6.00 Build 0)  -->
<!DOCTYPE svg PUBLIC "-//W3C//DTD SVG 1.1//EN" "http://www.w3.org/Graphics/SVG/1.1/DTD/svg11.dtd">
<svg version="1.1" id="Layer_1" xmlns="http://www.w3.org/2000/svg" xmlns:xlink="http://www.w3.org/1999/xlink" x="0px" y="0px"
	 viewBox="0 0 48 48" enable-background="new 0 0 48 48" xml:space="preserve">
<g>
	<path fill="#F7A93B" d="M47.4,23.8c-0.2-0.5-0.7-0.8-1.2-0.6c-2.2,0.8-2.7,0.5-3.8-0.2c-1.9-1.3-3.2-0.6-4.2,0
		c-0.2,0.1-0.3,0.2-0.5,0.3c-0.1-1.1-0.2-2.1-0.5-3.1c0.5-0.4,0.8-0.9,1.1-1.2c0.7-0.8,0.9-1.1,2-0.9c1.7,0.3,3,0.4,5.3-1.7
		c0.4-0.4,0.4-1,0.1-1.4c-0.4-0.4-1-0.4-1.4-0.1c-1.7,1.6-2.4,1.5-3.6,1.2c-2.3-0.5-3.2,0.7-3.9,1.6c-0.1,0.2-0.2,0.3-0.4,0.4
		c-0.5-1-1.1-2-1.8-2.9c0.3-0.6,0.4-1.1,0.6-1.6c0.3-1,0.4-1.4,1.5-1.6c1.7-0.4,3-0.8,4.2-3.6c0.2-0.5,0-1.1-0.5-1.3
		c-0.5-0.2-1.1,0-1.3,0.5c-1,2.1-1.6,2.3-2.9,2.5c-2.3,0.5-2.7,1.9-3,3c-0.1,0.2-0.1,0.4-0.2,0.6c-0.8-0.7-1.6-1.3-2.5-1.8
		c0-0.6,0-1.2-0.1-1.7c-0.1-1-0.2-1.4,0.8-2c1.5-1,2.4-1.9,2.6-4.9c0-0.5-0.4-1-0.9-1c-0.6,0-1,0.4-1,0.9c-0.1,2.3-0.6,2.7-1.7,3.4
		c-1.9,1.3-1.8,2.7-1.6,3.9c0,0.2,0,0.4,0.1,0.6c-1-0.4-2.1-0.7-3.3-0.8c-0.2-0.6-0.5-1.1-0.7-1.5c-0.5-0.9-0.7-1.2-0.1-2.2
		c1-1.5,1.5-2.7,0.4-5.6c-0.2-0.5-0.7-0.8-1.2-0.6c-0.5,0.2-0.8,0.7-0.6,1.2C24.1,4,23.7,4.5,23,5.6c-1.3,1.9-0.6,3.2,0,4.2
		c0.1,0.2,0.2,0.3,0.3,0.5c-1.1,0.1-2.1,0.2-3.1,0.5c-0.4-0.5-0.9-0.9-1.2-1.1c-0.8-0.6-1.1-0.9-0.9-2c0.3-1.7,0.4-3-1.7-5.3
		c-0.4-0.4-1-0.4-1.4-0.1c-0.4,0.4-0.4,1-0.1,1.4c1.6,1.7,1.5,2.4,1.2,3.6c-0.5,2.3,0.7,3.2,1.6,3.9c0.2,0.1,0.3,0.2,0.4,0.4
		c-1,0.5-2,1.1-2.9,1.8c-0.6-0.3-1.1-0.4-1.6-0.6c-1-0.3-1.4-0.4-1.6-1.5c-0.4-1.7-0.8-3-3.6-4.2c-0.5-0.2-1.1,0-1.3,0.5
		C7.1,8,7.3,8.6,7.8,8.8c2.1,1,2.3,1.6,2.5,2.9c0.5,2.3,1.9,2.6,3,3c0.2,0.1,0.4,0.1,0.6,0.2c-0.7,0.8-1.3,1.6-1.8,2.5
		c-0.6,0-1.2,0-1.7,0.1c-1,0.1-1.4,0.2-2-0.8c-1-1.5-1.9-2.4-4.9-2.6c-0.5,0-1,0.4-1,0.9c0,0.5,0.4,1,0.9,1c2.3,0.1,2.7,0.6,3.4,1.7
		c0.9,1.4,2,1.7,2.9,1.7c0.3,0,0.7,0,1-0.1c0.2,0,0.4,0,0.6-0.1c-0.4,1-0.7,2.1-0.8,3.3c-0.6,0.2-1.1,0.5-1.5,0.7
		c-0.9,0.5-1.2,0.7-2.2,0.1c-1.5-1-2.7-1.5-5.6-0.4c-0.5,0.2-0.8,0.7-0.6,1.2c0.2,0.5,0.7,0.8,1.2,0.6C4,23.9,4.5,24.3,5.6,25
		c0.8,0.5,1.5,0.7,2.1,0.7c0.9,0,1.5-0.4,2.1-0.7c0.2-0.1,0.3-0.2,0.5-0.3c0.1,1.1,0.2,2.1,0.5,3.1c-0.5,0.4-0.8,0.9-1.1,1.2
		c-0.7,0.8-0.9,1.1-2,0.9c-1.7-0.3-3-0.4-5.3,1.7c-0.4,0.4-0.4,1-0.1,1.4c0.2,0.2,0.5,0.3,0.7,0.3c0.2,0,0.5-0.1,0.7-0.3
		c1.7-1.6,2.4-1.5,3.6-1.2c2.3,0.5,3.2-0.7,3.9-1.6c0.1-0.2,0.2-0.3,0.4-0.4c0.5,1,1.1,2,1.8,2.9c-0.3,0.6-0.4,1.1-0.6,1.6
		c-0.3,1-0.4,1.4-1.5,1.6c-1.7,0.4-3,0.8-4.2,3.6c-0.2,0.5,0,1.1,0.5,1.3c0.1,0.1,0.3,0.1,0.4,0.1c0.4,0,0.7-0.2,0.9-0.6
		c1-2.1,1.6-2.3,2.9-2.5c2.3-0.5,2.7-1.9,3-3c0.1-0.2,0.1-0.4,0.2-0.6c0.8,0.7,1.6,1.3,2.5,1.8c0,0.6,0,1.2,0.1,1.7
		c0.1,1,0.2,1.4-0.8,2c-1.5,1-2.4,1.9-2.6,4.9c0,0.5,0.4,1,0.9,1c0,0,0,0,0,0c0.5,0,0.9-0.4,1-0.9c0.1-2.3,0.6-2.7,1.7-3.4
		c1.9-1.3,1.8-2.7,1.6-3.9c0-0.2,0-0.4-0.1-0.6c1,0.4,2.1,0.7,3.3,0.8c0.2,0.6,0.5,1.1,0.7,1.5c0.5,0.9,0.7,1.2,0.1,2.2
		c-1,1.5-1.5,2.7-0.4,5.6c0.1,0.4,0.5,0.6,0.9,0.6c0.1,0,0.2,0,0.3-0.1c0.5-0.2,0.8-0.7,0.6-1.2c-0.8-2.2-0.5-2.7,0.2-3.8
		c1.3-1.9,0.6-3.2,0-4.2c-0.1-0.2-0.2-0.3-0.3-0.5c1.1-0.1,2.1-0.2,3.1-0.5c0.4,0.5,0.9,0.9,1.2,1.1c0.8,0.6,1.1,0.9,0.9,2
		c-0.3,1.7-0.4,3,1.7,5.3c0.2,0.2,0.5,0.3,0.7,0.3c0.2,0,0.5-0.1,0.7-0.3c0.4-0.4,0.4-1,0.1-1.4c-1.6-1.7-1.5-2.4-1.2-3.6
		c0.5-2.3-0.7-3.2-1.6-3.9c-0.2-0.1-0.3-0.2-0.4-0.4c1-0.5,2-1.1,2.9-1.8c0.6,0.3,1.1,0.4,1.6,0.6c1,0.3,1.4,0.4,1.6,1.5
		c0.4,1.7,0.8,3,3.6,4.2c0.1,0.1,0.3,0.1,0.4,0.1c0.4,0,0.7-0.2,0.9-0.6c0.2-0.5,0-1.1-0.5-1.3c-2.1-1-2.3-1.6-2.5-2.9
		c-0.5-2.3-1.9-2.7-3-3c-0.2-0.1-0.4-0.1-0.6-0.2c0.7-0.8,1.3-1.6,1.8-2.5c0.6,0,1.2,0,1.7-0.1c1-0.1,1.4-0.2,2,0.8
		c1,1.5,1.9,2.4,5,2.6c0,0,0,0,0,0c0.5,0,0.9-0.4,1-0.9c0-0.5-0.4-1-0.9-1c-2.3-0.1-2.7-0.6-3.4-1.7c-1.3-1.9-2.7-1.8-3.9-1.6
		c-0.2,0-0.4,0-0.6,0.1c0.4-1,0.7-2.1,0.8-3.3c0.6-0.2,1.1-0.5,1.5-0.7c0.9-0.5,1.2-0.7,2.2-0.1c0.9,0.6,1.7,1,2.8,1
		c0.7,0,1.6-0.2,2.7-0.6C47.4,24.9,47.6,24.3,47.4,23.8z"/>
</g>
</svg>
