<?xml version="1.0" encoding="utf-8"?>
<!-- Generator: Adobe Illustrator 18.0.0, SVG Export Plug-In . SVG Version: 6.00 Build 0)  -->
<!DOCTYPE svg PUBLIC "-//W3C//DTD SVG 1.1//EN" "http://www.w3.org/Graphics/SVG/1.1/DTD/svg11.dtd">
<svg version="1.1" id="Layer_1" xmlns="http://www.w3.org/2000/svg" xmlns:xlink="http://www.w3.org/1999/xlink" x="0px" y="0px"
	 viewBox="0 0 48 48" enable-background="new 0 0 48 48" xml:space="preserve">
<g>
	<path fill="#F7A93B" d="M34.1,1.1c-2,0-3.6,1.6-3.6,3.6v10.7c-0.2,0.7-0.8,1.1-2,1.1h-0.9V4.1c0-2-1.6-3.6-3.6-3.6
		c-2,0-3.6,1.6-3.6,3.6v23.1h-0.8c-1.2,0-1.9-0.3-2-1.1V15.5c0-2-1.6-3.6-3.6-3.6c-2,0-3.6,1.6-3.6,3.6v11l0,0.3
		c0.2,3.1,2.9,7.8,9.3,7.8h0.8v9.4c0,2,1.6,3.6,3.6,3.6c2,0,3.6-1.6,3.6-3.6V23.7h0.9c6.4,0,9-4.6,9.3-7.8l0-11.3
		C37.8,2.7,36.1,1.1,34.1,1.1z"/>
</g>
</svg>
