<?xml version="1.0" encoding="utf-8"?>
<!-- Generator: Adobe Illustrator 18.0.0, SVG Export Plug-In . SVG Version: 6.00 Build 0)  -->
<!DOCTYPE svg PUBLIC "-//W3C//DTD SVG 1.1//EN" "http://www.w3.org/Graphics/SVG/1.1/DTD/svg11.dtd">
<svg version="1.1" id="Layer_1" xmlns="http://www.w3.org/2000/svg" xmlns:xlink="http://www.w3.org/1999/xlink" x="0px" y="0px"
	 viewBox="0 0 48 48" enable-background="new 0 0 48 48" xml:space="preserve">
<g>
	<path fill="#0DB89A" d="M39.8,13.5c-1.1-4.7-5.4-8-10.4-7.4c-1.6-3.3-4.9-5.5-8.6-5.5c-5.3,0-9.6,4.3-9.6,9.7
		c0,0.6,0.1,1.3,0.2,1.9C10.9,12,10.5,12,10.1,12c-5.3,0-9.6,4.3-9.6,9.7c0,5.3,4.3,9.7,9.6,9.7c1.1,0,2.2-0.2,3.2-0.6l1.9-1
		c0.8-0.5,1.5-1.1,2.1-1.8c1.3,1.3,3,2.1,4.8,2.5l1.9,0.2c2.2,0,4.4-0.8,6.1-2.3c0.2,0.4,0.5,0.7,0.8,1c0.1,0.1,0.2,0.2,0.3,0.3
		l1.8,1.4c1.5,0.9,3.2,1.5,5,1.5c5.3,0,9.6-4.3,9.6-9.7C47.5,18.3,44.2,14.3,39.8,13.5z"/>
	<path fill="#E77528" d="M24,35.4v-4.8L22,30.5v4.8c-2.2-2-5.2-4.3-6.8-5.5l-1.9,1c1.5,1.1,6.5,4.9,8.8,7.2v8.5c0,0.5,0.4,1,1,1
		s1-0.4,1-1v-7.8c0.7-1.1,4.3-6.4,8.8-7.5c0.1,0,0.1-0.1,0.2-0.1l-1.8-1.4C28.1,30.9,25.5,33.5,24,35.4z"/>
</g>
</svg>
