<?xml version="1.0" encoding="utf-8"?>
<!-- Generator: Adobe Illustrator 18.0.0, SVG Export Plug-In . SVG Version: 6.00 Build 0)  -->
<!DOCTYPE svg PUBLIC "-//W3C//DTD SVG 1.1//EN" "http://www.w3.org/Graphics/SVG/1.1/DTD/svg11.dtd">
<svg version="1.1" id="Layer_1" xmlns="http://www.w3.org/2000/svg" xmlns:xlink="http://www.w3.org/1999/xlink" x="0px" y="0px"
	 viewBox="0 0 48 48" enable-background="new 0 0 48 48" xml:space="preserve">
<g>
	<path fill="#4DA0D8" d="M13.4,16.9c-0.4-0.3-0.5-0.9-0.2-1.4c0.3-0.4,0.9-0.5,1.4-0.2c1,0.8,23.1,18.2,32.9,30.9
		c-0.3-1-4.7-16.5-8.2-22.7c-2-3.6-10.3-7.7-19-12C12.8,7.9,5,4,2.2,0.9C1.9,0.5,1.4,0.5,1,0.7C0.6,0.9,0.4,1.4,0.5,1.9
		c0.1,0.2,8.6,23.8,12.3,32.7c3.4,8.1,11.8,8.9,17.9,9.4c1.1,0.1,2.2,0.2,3.2,0.3c5.2,0.8,10.6,2.6,12,3.1
		C36.2,34.9,13.6,17.1,13.4,16.9z"/>
</g>
</svg>
