<?xml version="1.0" encoding="utf-8"?>
<!-- Generator: Adobe Illustrator 18.0.0, SVG Export Plug-In . SVG Version: 6.00 Build 0)  -->
<!DOCTYPE svg PUBLIC "-//W3C//DTD SVG 1.1//EN" "http://www.w3.org/Graphics/SVG/1.1/DTD/svg11.dtd">
<svg version="1.1" id="Layer_1" xmlns="http://www.w3.org/2000/svg" xmlns:xlink="http://www.w3.org/1999/xlink" x="0px" y="0px"
	 viewBox="0 0 48 48" enable-background="new 0 0 48 48" xml:space="preserve">
<g>
	<path fill="none" d="M24,10.1c10.3,0,18.3,3.8,18.3,8.7c0,0.5-0.1,1-0.3,1.5c2.3-1.9,3.6-4.1,3.6-6.3c0-6.4-9.7-11.6-21.6-11.6
		C12.1,2.4,2.4,7.6,2.4,14c0,2.3,1.3,4.5,3.6,6.3c-0.2-0.5-0.3-1-0.3-1.5C5.7,13.9,13.7,10.1,24,10.1z"/>
	<path fill="none" d="M33,21.2c0.3,0,0.6-0.3,0.6-0.6c0-0.3-0.3-0.6-0.6-0.6h-3.1c-0.3,0-0.6,0.3-0.6,0.6v3.2c0,0.3,0.3,0.6,0.6,0.6
		h2.5v2.2h-2.8c-0.3,0-0.6,0.3-0.6,0.6c0,0.3,0.3,0.6,0.6,0.6H33c0.3,0,0.6-0.3,0.6-0.6v-3.4c0-0.3-0.3-0.6-0.6-0.6h-2.5v-2H33z"/>
	<path fill="none" d="M13.5,27.6c0.3,0,0.6-0.3,0.6-0.6v-3.9l3.1,4.2c0.1,0.2,0.3,0.2,0.5,0.2c0.1,0,0.1,0,0.2,0
		c0.2-0.1,0.4-0.3,0.4-0.6v-5.7c0-0.3-0.3-0.6-0.6-0.6c-0.3,0-0.6,0.3-0.6,0.6v3.9L14,21c-0.1-0.2-0.4-0.3-0.6-0.2
		c-0.2,0.1-0.4,0.3-0.4,0.6V27C12.9,27.3,13.2,27.6,13.5,27.6z"/>
	<path fill="none" d="M42,27.6c0.2,0.5,0.3,1,0.3,1.5c0,4.9-8,8.7-18.3,8.7c-10.3,0-18.3-3.8-18.3-8.7c0-0.5,0.1-1,0.3-1.5
		c-2.3,1.9-3.6,4.1-3.6,6.3c0,6.4,9.7,11.6,21.6,11.6c11.9,0,21.6-5.2,21.6-11.6C45.6,31.7,44.3,29.5,42,27.6z"/>
	<path fill="#06728D" d="M22.9,30.1V17.9H8.3v2.7v6.8v2.7H22.9z M12.9,21.3c0-0.3,0.2-0.5,0.4-0.6c0.2-0.1,0.5,0,0.6,0.2l3.1,4.2
		v-3.9c0-0.3,0.3-0.6,0.6-0.6c0.3,0,0.6,0.3,0.6,0.6V27c0,0.3-0.2,0.5-0.4,0.6c-0.1,0-0.1,0-0.2,0c-0.2,0-0.4-0.1-0.5-0.2l-3.1-4.2
		V27c0,0.3-0.3,0.6-0.6,0.6c-0.3,0-0.6-0.3-0.6-0.6V21.3z"/>
	<path fill="none" d="M24,10.1c10.3,0,18.3,3.8,18.3,8.7c0,0.5-0.1,1-0.3,1.5c2.3-1.9,3.6-4.1,3.6-6.3c0-6.4-9.7-11.6-21.6-11.6
		C12.1,2.4,2.4,7.6,2.4,14c0,2.3,1.3,4.5,3.6,6.3c-0.2-0.5-0.3-1-0.3-1.5C5.7,13.9,13.7,10.1,24,10.1z"/>
	<path fill="none" d="M42,27.6c0.2,0.5,0.3,1,0.3,1.5c0,4.9-8,8.7-18.3,8.7c-10.3,0-18.3-3.8-18.3-8.7c0-0.5,0.1-1,0.3-1.5
		c-2.3,1.9-3.6,4.1-3.6,6.3c0,6.4,9.7,11.6,21.6,11.6c11.9,0,21.6-5.2,21.6-11.6C45.6,31.7,44.3,29.5,42,27.6z"/>
	<path fill="none" d="M33,21.2c0.3,0,0.6-0.3,0.6-0.6c0-0.3-0.3-0.6-0.6-0.6h-3.1c-0.3,0-0.6,0.3-0.6,0.6v3.2c0,0.3,0.3,0.6,0.6,0.6
		h2.5v2.2h-2.8c-0.3,0-0.6,0.3-0.6,0.6c0,0.3,0.3,0.6,0.6,0.6H33c0.3,0,0.6-0.3,0.6-0.6v-3.4c0-0.3-0.3-0.6-0.6-0.6h-2.5v-2H33z"/>
	<path fill="#0DB89A" d="M40,24c4.8-2.5,7.5-6.1,7.5-10C47.5,6.5,37.2,0.5,24,0.5C10.8,0.5,0.5,6.5,0.5,14c0,3.8,2.7,7.4,7.5,10
		c-4.8,2.5-7.5,6.1-7.5,10c0,7.6,10.3,13.5,23.5,13.5c13.2,0,23.5-6,23.5-13.5C47.5,30.1,44.8,26.5,40,24z M2.4,14
		C2.4,7.6,12.1,2.4,24,2.4c11.9,0,21.6,5.2,21.6,11.6c0,2.3-1.3,4.5-3.6,6.3c0.2-0.5,0.3-1,0.3-1.5c0-4.9-8-8.7-18.3-8.7
		c-10.2,0-18.3,3.8-18.3,8.7c0,0.5,0.1,1,0.3,1.5C3.7,18.5,2.4,16.3,2.4,14z M8.3,27.4v-6.8c-0.3-0.5-0.6-1.1-0.6-1.7
		c0-3.3,6.6-6.8,16.3-6.8s16.3,3.5,16.3,6.8c0,0.6-0.2,1.2-0.6,1.7v6.8c0.4,0.5,0.6,1.1,0.6,1.7c0,3.3-6.6,6.8-16.3,6.8
		c-9.8,0-16.3-3.5-16.3-6.8C7.7,28.5,7.9,27.9,8.3,27.4z M24,45.6C12.1,45.6,2.4,40.4,2.4,34c0-2.3,1.3-4.5,3.6-6.3
		c-0.2,0.5-0.3,1-0.3,1.5c0,4.9,8,8.7,18.3,8.7c10.2,0,18.3-3.8,18.3-8.7c0-0.5-0.1-1-0.3-1.5c2.3,1.9,3.6,4.1,3.6,6.3
		C45.6,40.4,35.9,45.6,24,45.6z"/>
	<path fill="#F04B36" d="M39.7,17.9H25.1v12.2h14.7v-2.7v-6.8V19V17.9z M33,23.2c0.3,0,0.6,0.3,0.6,0.6v3.4c0,0.3-0.3,0.6-0.6,0.6
		h-3.4c-0.3,0-0.6-0.3-0.6-0.6c0-0.3,0.3-0.6,0.6-0.6h2.8v-2.2h-2.5c-0.3,0-0.6-0.3-0.6-0.6v-3.2c0-0.3,0.3-0.6,0.6-0.6H33
		c0.3,0,0.6,0.3,0.6,0.6c0,0.3-0.3,0.6-0.6,0.6h-2.5v2H33z"/>
</g>
</svg>
