<?xml version="1.0" encoding="utf-8"?>
<!-- Generator: Adobe Illustrator 18.0.0, SVG Export Plug-In . SVG Version: 6.00 Build 0)  -->
<!DOCTYPE svg PUBLIC "-//W3C//DTD SVG 1.1//EN" "http://www.w3.org/Graphics/SVG/1.1/DTD/svg11.dtd">
<svg version="1.1" id="Layer_1" xmlns="http://www.w3.org/2000/svg" xmlns:xlink="http://www.w3.org/1999/xlink" x="0px" y="0px"
	 viewBox="0 0 48 48" enable-background="new 0 0 48 48" xml:space="preserve">
<g>
	<path fill="none" d="M25.8,13.9L25.8,13.9v11.5c1.8-2.3,4.5-3.9,7.7-3.9c3.1,0,5.9,1.5,7.7,3.9v-23h-24v1.9
		C22,4.9,25.8,9,25.8,13.9z"/>
	<path fill="#06728D" d="M47.5,1.5c0-0.5-0.4-1-1-1H1.5c-0.5,0-1,0.4-1,1c0,0.5,0.4,1,1,1h13.7h1.9h24h1.9h3.4
		C47.1,2.4,47.5,2,47.5,1.5z"/>
	<path fill="#F04B36" d="M3.6,24.8c-0.5,0-1,0.4-1,1v20.8c0,0.5,0.4,1,1,1h7.9c0.5,0,1-0.4,1-1V25.7c0-0.5-0.4-1-1-1h-3H6.5H3.6z"/>
	<path fill="#4DA0D8" d="M41.2,2.4v23c-1.8-2.3-4.5-3.9-7.7-3.9c-3.1,0-5.9,1.5-7.7,3.9V13.9v0c0-5-3.8-9.1-8.7-9.6V2.4h-1.9v1.9
		C10.3,4.9,6.5,9,6.5,13.9v0v10.8h1.9v-5c1.8,2.3,4.5,3.9,7.7,3.9c3.1,0,5.9-1.5,7.7-3.9v11.5c0,5,3.8,9.1,8.7,9.6v3.4l-2.3-2.2
		c-0.4-0.4-1-0.4-1.4,0c-0.4,0.4-0.4,1,0,1.4l3.9,3.7c0,0,0.1,0.1,0.1,0.1c0.1,0,0.1,0.1,0.2,0.1c0.1,0,0.2,0.1,0.4,0.1
		c0.1,0,0.2,0,0.4-0.1c0.1,0,0.1-0.1,0.2-0.1c0,0,0.1-0.1,0.1-0.1l4-3.7c0.4-0.4,0.4-1,0.1-1.4c-0.4-0.4-1-0.4-1.4-0.1l-2.4,2.2
		v-3.5c4.9-0.5,8.7-4.6,8.7-9.6V2.4H41.2z"/>
</g>
</svg>
