<?xml version="1.0" encoding="utf-8"?>
<!-- Generator: Adobe Illustrator 18.0.0, SVG Export Plug-In . SVG Version: 6.00 Build 0)  -->
<!DOCTYPE svg PUBLIC "-//W3C//DTD SVG 1.1//EN" "http://www.w3.org/Graphics/SVG/1.1/DTD/svg11.dtd">
<svg version="1.1" id="Layer_1" xmlns="http://www.w3.org/2000/svg" xmlns:xlink="http://www.w3.org/1999/xlink" x="0px" y="0px"
	 viewBox="0 0 48 48" enable-background="new 0 0 48 48" xml:space="preserve">
<g>
	<path fill="#F04B36" d="M11,28.4c-2.6,3.8-1.6,9.1,2.2,11.7c3.8,2.6,9.1,1.6,11.7-2.2c1.8-2.7,1.9-6,0.5-8.7l-6.5-4.4
		C15.9,24.5,12.8,25.8,11,28.4z"/>
	<path fill="#06728D" d="M47.3,27c0.3-0.4,0.2-1-0.3-1.3l-6.3-4.3c-0.4-0.3-1-0.2-1.3,0.3l-3.2,4.7l7.9,5.4L47.3,27z"/>
	<rect x="19.4" y="10.8" fill="none" width="0" height="24"/>
	<path fill="#0DB89A" d="M12.7,11.4c0.1-0.1,0.1-0.2,0.1-0.4c0-0.1-0.1-0.2-0.2-0.3L6.2,6.5C6,6.3,5.7,6.4,5.6,6.6l-3.2,4.7l7.1,4.8
		L12.7,11.4z"/>
	<path fill="#E77528" d="M43.6,39.3l-14.2-9.7l0,0L9.5,16.1l0,0l-7.1-4.8L2,11c-0.4-0.3-1-0.2-1.3,0.3c-0.3,0.4-0.2,1,0.3,1.3
		l18,12.2l6.5,4.4l18,12.2c0.2,0.1,0.4,0.2,0.5,0.2c0.3,0,0.6-0.1,0.8-0.4c0.3-0.4,0.2-1-0.3-1.3L43.6,39.3z"/>
	<path fill="#294E58" d="M46.8,34.6c0.1-0.2,0.2-0.5,0.2-0.7c0-0.3-0.2-0.5-0.4-0.6l-2.4-1.6l-7.9-5.4l-2.4-1.6
		c-0.2-0.1-0.5-0.2-0.7-0.2c-0.3,0-0.5,0.2-0.6,0.4l-3.2,4.7l14.2,9.7L46.8,34.6z"/>
</g>
</svg>
