<?xml version="1.0" encoding="utf-8"?>
<!-- Generator: Adobe Illustrator 18.0.0, SVG Export Plug-In . SVG Version: 6.00 Build 0)  -->
<!DOCTYPE svg PUBLIC "-//W3C//DTD SVG 1.1//EN" "http://www.w3.org/Graphics/SVG/1.1/DTD/svg11.dtd">
<svg version="1.1" id="Layer_1" xmlns="http://www.w3.org/2000/svg" xmlns:xlink="http://www.w3.org/1999/xlink" x="0px" y="0px"
	 viewBox="0 0 48 48" enable-background="new 0 0 48 48" xml:space="preserve">
<g>
	<path fill="#294E58" d="M46.9,4.9c-0.3-0.2-0.8-0.1-1,0.2L0.8,45.8c-0.3,0.3-0.4,0.7-0.3,1.1c0.1,0.4,0.5,0.6,0.9,0.6h45.1
		c0.5,0,1-0.4,1-1V5.7C47.5,5.4,47.3,5,46.9,4.9z"/>
	<path fill="#E77528" d="M13.7,18.5l5.9,6.8c0.2,0.2,0.4,0.3,0.7,0.3c0,0,0,0,0.1,0c0.2,0,0.5-0.1,0.7-0.3l6.6-6.1
		c0.4-0.4,0.4-1,0.1-1.4l-5.9-6.8c-0.2-0.2-0.4-0.3-0.7-0.3c-0.3,0-0.5,0.1-0.7,0.3l-6.6,6.1C13.4,17.5,13.3,18.1,13.7,18.5z"/>
	<path fill="#F7A93B" d="M1.7,36.5l5.4,0.2c0,0,0,0,0,0c0.5,0,1-0.4,1-0.9c0-0.5-0.4-1-0.9-1l-3-0.1l10.3-9.4c0.4-0.4,0.4-1,0.1-1.4
		c-0.4-0.4-1-0.4-1.4-0.1L3,33.1l0.3-3.2c0.1-0.5-0.3-1-0.9-1.1c-0.5,0-1,0.3-1.1,0.9l-0.6,5.7c0,0.3,0.1,0.5,0.2,0.7
		C1.2,36.4,1.5,36.5,1.7,36.5z"/>
	<path fill="#F04B36" d="M27.3,13.6c0.2,0,0.5-0.1,0.7-0.3L38.2,4L38,7.6c0,0.5,0.4,1,0.9,1c0,0,0,0,0.1,0c0.5,0,0.9-0.4,1-0.9
		l0.3-6c0-0.3-0.1-0.5-0.3-0.7c-0.2-0.2-0.4-0.3-0.7-0.3l-5.4-0.2c-0.5,0-1,0.4-1,0.9c0,0.5,0.4,1,0.9,1l3,0.1l-10.3,9.4
		c-0.4,0.4-0.4,1-0.1,1.4C26.8,13.5,27.1,13.6,27.3,13.6z"/>
	<path fill="#0DB89A" d="M7.3,11.5C7.3,11.5,7.3,11.5,7.3,11.5c0.6,0,1-0.4,1-0.9l0.1-4.5l6,6.9c0.2,0.2,0.5,0.3,0.7,0.3
		c0.2,0,0.5-0.1,0.6-0.2c0.4-0.4,0.4-1,0.1-1.4L9.6,4.5l5.2,0c0,0,0,0,0,0c0.5,0,1-0.4,1-1c0-0.5-0.4-1-1-1L7.5,2.6c0,0,0,0,0,0
		c-0.5,0-1,0.4-1,0.9l-0.2,7C6.3,11.1,6.7,11.5,7.3,11.5z"/>
</g>
</svg>
