<?xml version="1.0" encoding="utf-8"?>
<!-- Generator: Adobe Illustrator 18.0.0, SVG Export Plug-In . SVG Version: 6.00 Build 0)  -->
<!DOCTYPE svg PUBLIC "-//W3C//DTD SVG 1.1//EN" "http://www.w3.org/Graphics/SVG/1.1/DTD/svg11.dtd">
<svg version="1.1" id="Layer_1" xmlns="http://www.w3.org/2000/svg" xmlns:xlink="http://www.w3.org/1999/xlink" x="0px" y="0px"
	 viewBox="0 0 48 48" enable-background="new 0 0 48 48" xml:space="preserve">
<g>
	<path fill="#06728D" d="M5.5,33.3c0,7.8,6.7,14.2,15,14.2h18c0.5,0,1-0.4,1-1c0-0.5-0.4-1-1-1h-18c-7.2,0-13-5.5-13-12.3
		c0-6.3,5.1-11.5,11.5-12.2l-1.4-1.8C10.7,20.6,5.5,26.4,5.5,33.3z"/>
	<path fill="#06728D" d="M38.5,21c0.5,0,1-0.4,1-1c0-0.5-0.4-1-1-1h-5.3l-1.3,2H38.5z"/>
	<path fill="#F04B36" d="M29.5,39.1V24.5l2.3-3.5H20.4c-0.5,0-1,0-1.5,0.1l2.6,3.3v18.7L29.5,39.1z"/>
	<path fill="#4DA0D8" d="M33.2,19L45.7,0.5H2.3l15.2,18.8c0.9-0.2,1.9-0.3,2.9-0.3H33.2z"/>
</g>
</svg>
