<?xml version="1.0" encoding="utf-8"?>
<!-- Generator: Adobe Illustrator 18.0.0, SVG Export Plug-In . SVG Version: 6.00 Build 0)  -->
<!DOCTYPE svg PUBLIC "-//W3C//DTD SVG 1.1//EN" "http://www.w3.org/Graphics/SVG/1.1/DTD/svg11.dtd">
<svg version="1.1" id="Layer_1" xmlns="http://www.w3.org/2000/svg" xmlns:xlink="http://www.w3.org/1999/xlink" x="0px" y="0px"
	 viewBox="0 0 48 48" enable-background="new 0 0 48 48" xml:space="preserve">
<g>
	<path fill="#F7A93B" d="M34.7,36.1h-4.3V29h2.5v2.4c0,0.5,0.4,1,1,1c0.5,0,1-0.4,1-1v-8.3c0-0.5-0.4-1-1-1c-0.5,0-1,0.4-1,1v2h-2.5
		v-6.8c0-0.5-0.4-1-1-1H18.6c-0.5,0-1,0.4-1,1v17.8h-4.3c-3.7,0-6.8,2.6-6.8,5.7c0,3.1,3,5.7,6.8,5.7h21.4c3.7,0,6.8-2.6,6.8-5.7
		C41.5,38.6,38.4,36.1,34.7,36.1z"/>
	<path fill="#F04B36" d="M24,16.6c3.3,0,6-2.7,6-6c0-3-4.7-9.1-5.2-9.8c-0.2-0.2-0.5-0.4-0.8-0.4c-0.3,0-0.6,0.1-0.8,0.4
		C22.7,1.6,18,7.6,18,10.6C18,13.9,20.7,16.6,24,16.6z"/>
</g>
</svg>
