<?xml version="1.0" encoding="utf-8"?>
<!-- Generator: Adobe Illustrator 18.0.0, SVG Export Plug-In . SVG Version: 6.00 Build 0)  -->
<!DOCTYPE svg PUBLIC "-//W3C//DTD SVG 1.1//EN" "http://www.w3.org/Graphics/SVG/1.1/DTD/svg11.dtd">
<svg version="1.1" id="Layer_1" xmlns="http://www.w3.org/2000/svg" xmlns:xlink="http://www.w3.org/1999/xlink" x="0px" y="0px"
	 viewBox="0 0 48 48" enable-background="new 0 0 48 48" xml:space="preserve">
<g>
	<path fill="#4DA0D8" d="M25.9,2.5c-5.1-0.7-18.3,8.9-19.8,10c-0.4,0.3-0.5,0.9-0.2,1.4c0.3,0.4,0.9,0.5,1.4,0.2
		c3.9-2.9,14.7-10.2,18.4-9.7C37.3,6.1,43,14.1,44.8,21.6H16.2c1.5-3.2,4.2-5.9,7.6-7.4c0.4-0.2,0.7-0.7,0.5-1.2
		c-0.5-1.7-1.3-2.8-2.3-3.2c-0.5-0.2-1.3-0.4-2.4,0.2c-3,1.6-10.9,6.4-11.3,6.7c-0.5,0.3-0.6,0.9-0.3,1.3c0.3,0.5,0.9,0.6,1.3,0.3
		c0.1-0.1,8.2-5,11.1-6.6c0.4-0.2,0.7-0.1,0.7-0.1c0.3,0.1,0.7,0.6,0.9,1.2c-5.8,3-9.4,8.9-9.4,15.4c0,9.6,7.8,17.3,17.3,17.3
		c9.4,0,16.9-7.4,17.3-17.3C47.9,19.2,42.5,4.8,25.9,2.5z"/>
	<path fill="#F04B36" d="M4.6,18c-0.7,0.8-4.1,5.2-4.1,7.5c0,2.7,2.2,4.9,4.9,4.9c2.7,0,4.9-2.2,4.9-4.9c0-2.4-3.5-6.7-4.1-7.5
		C5.8,17.5,5,17.5,4.6,18z"/>
</g>
</svg>
