<?xml version="1.0" encoding="utf-8"?>
<!-- Generator: Adobe Illustrator 18.0.0, SVG Export Plug-In . SVG Version: 6.00 Build 0)  -->
<!DOCTYPE svg PUBLIC "-//W3C//DTD SVG 1.1//EN" "http://www.w3.org/Graphics/SVG/1.1/DTD/svg11.dtd">
<svg version="1.1" id="Layer_1" xmlns="http://www.w3.org/2000/svg" xmlns:xlink="http://www.w3.org/1999/xlink" x="0px" y="0px"
	 viewBox="0 0 48 48" enable-background="new 0 0 48 48" xml:space="preserve">
<g>
	<circle fill="#0DB89A" cx="15.4" cy="10.5" r="1.8"/>
	<circle fill="#0DB89A" cx="23" cy="2.6" r="1.4"/>
	<path fill="#F7A93B" d="M44,25.5L32.5,4.2l3.4-1.8c0.5-0.3,0.7-0.8,0.4-1.3C36,0.5,35.5,0.4,35,0.6l-4.2,2.3
		c-0.4,0.2-0.5,0.6-0.5,0.9c0,0.1,0,0.3,0.1,0.4L37.8,18H9.2c0,0-0.1,0-0.1,0l-1-1.8c-0.3-0.5-0.8-0.7-1.3-0.4c0,0,0,0,0,0l-4.2,2.3
		c-0.5,0.3-0.7,0.8-0.4,1.3c0.2,0.3,0.5,0.5,0.9,0.5c0.2,0,0.3,0,0.5-0.1L6.9,18l11.5,21.3c2.8,5.2,8.1,8.2,13.4,8.2
		c2.3,0,4.5-0.5,6.6-1.7c3.4-1.8,5.9-5,6.9-8.9C46.4,33.1,46,29,44,25.5z M25.7,34c-0.2,0.7-1,1.2-1.8,1c-0.8-0.2-1.2-1-1-1.8
		c0.2-0.7,1-1.2,1.8-1C25.5,32.5,25.9,33.3,25.7,34z M32,25.7c-0.3,1-1.3,1.5-2.3,1.2c-1-0.3-1.5-1.3-1.2-2.3c0.3-1,1.3-1.5,2.3-1.2
		C31.7,23.7,32.3,24.7,32,25.7z M38.1,37.9c-0.4,1.5-2,2.3-3.4,1.8c-1.5-0.4-2.3-2-1.8-3.4c0.4-1.4,2-2.3,3.4-1.8
		C37.7,34.9,38.5,36.4,38.1,37.9z"/>
	<circle fill="#0DB89A" cx="25.7" cy="13.2" r="2.7"/>
</g>
</svg>
