<?xml version="1.0" encoding="utf-8"?>
<!-- Generator: Adobe Illustrator 18.0.0, SVG Export Plug-In . SVG Version: 6.00 Build 0)  -->
<!DOCTYPE svg PUBLIC "-//W3C//DTD SVG 1.1//EN" "http://www.w3.org/Graphics/SVG/1.1/DTD/svg11.dtd">
<svg version="1.1" id="Layer_1" xmlns="http://www.w3.org/2000/svg" xmlns:xlink="http://www.w3.org/1999/xlink" x="0px" y="0px"
	 viewBox="0 0 48 48" enable-background="new 0 0 48 48" xml:space="preserve">
<g>
	<path fill="none" d="M7.9,7.2h-2c-0.4,0-1.6,0.2-1.6,2.2v11.2h1.4c0.3,0,0.5,0.2,0.5,0.5v0.6c0.7-0.4,1.4-0.7,2.1-0.9v-2.6H7.2
		c-0.3,0-0.5-0.2-0.5-0.5v-2.4c0-0.3,0.2-0.5,0.5-0.5h2.7V9.2C9.9,8.7,9.8,7.2,7.9,7.2z"/>
	<path fill="#06728D" d="M25.9,18.1c0,0-0.1-0.1-0.1-0.1c-0.7-0.5-1.8-0.6-2.5,0.3c-0.2,0.2-0.4,0.4-0.5,0.6l1.4,1.4
		c0.1-0.2,0.3-0.4,0.6-0.6l5.8,5.6l1.4-1.4L25.9,18.1z"/>
	<path fill="#06728D" d="M28.1,40.8c-0.3,0.4-0.2,1.1,0.2,1.4c0.2,0.1,0.4,0.2,0.6,0.2c0.3,0,0.6-0.1,0.8-0.4l3.4-4.9l-1.4-1.4
		L28.1,40.8z"/>
	<path fill="#06728D" d="M43.6,35.5l-1.4,1.4l3.5,5c0.2,0.3,0.5,0.4,0.8,0.4c0.2,0,0.4-0.1,0.6-0.2c0.4-0.3,0.6-0.9,0.2-1.4
		L43.6,35.5z"/>
	<path fill="#CFD0D1" d="M45.1,30.9c0-2-0.8-3.9-2.3-5.3c-1.4-1.4-3.3-2.1-5.2-2.1c-1.2,0-2.3,0.3-3.4,0.8l-1.1-1.1
		c-0.1-0.1-0.2-0.1-0.3-0.1c-0.1,0-0.3,0.1-0.3,0.1l-0.7,0.7l-1.4,1.4L29.7,26c-0.2,0.2-0.2,0.5,0,0.7l1.1,1.1
		c-1.2,2.6-0.8,5.7,0.9,7.9l1.4,1.4c1.3,0.9,2.8,1.5,4.4,1.5c1.7,0,3.3-0.6,4.6-1.6l1.4-1.4C44.6,34.2,45.1,32.6,45.1,30.9z"/>
	<path fill="#F04B36" d="M26.9,23.1l-2.8-2.8l-1.4-1.4l-2.4-2.3c-0.2-0.2-0.5-0.2-0.7,0l-1.7,1.7c-0.1,0.1-0.1,0.2-0.1,0.3
		s0.1,0.3,0.1,0.3l0.8,0.8l-1.7,1.7c-0.6-0.3-1.2-0.5-1.8-0.7v-2.6h1.1c0.3,0,0.5-0.2,0.5-0.5v-2.4c0-0.3-0.2-0.5-0.5-0.5h-4.5h-2
		H7.2c-0.3,0-0.5,0.2-0.5,0.5v2.4c0,0.3,0.2,0.5,0.5,0.5h1.1v2.6c-0.7,0.2-1.4,0.5-2.1,0.9V21c0-0.3-0.2-0.5-0.5-0.5H4.4h-2H1.6
		c-0.3,0-0.5,0.2-0.5,0.5v6.9c-0.4,1.1-0.6,2.3-0.6,3.5c0,6.2,5.1,11.3,11.3,11.3c6.2,0,11.3-5.1,11.3-11.3c0-1.8-0.4-3.5-1.2-5.1
		l1.7-1.7l0.8,0.8c0.2,0.2,0.5,0.2,0.7,0l1.7-1.7c0.1-0.1,0.1-0.2,0.1-0.3C27,23.3,27,23.1,26.9,23.1z"/>
	<path fill="#06728D" d="M4.4,9.4c0-2,1.2-2.2,1.6-2.2h2c1.8,0,2,1.6,2,2v5.5h2V9.2c0-0.2,0-1.8-1.2-2.9C10,5.6,9.1,5.2,7.9,5.2H6
		c0,0,0,0,0,0H5.8c-0.1,0-0.2,0-0.3,0c-0.5,0.1-1.3,0.3-2,1C2.8,7,2.4,8,2.4,9.4v11.2h2V9.4z"/>
</g>
</svg>
