<?xml version="1.0" encoding="utf-8"?>
<!-- Generator: Adobe Illustrator 18.0.0, SVG Export Plug-In . SVG Version: 6.00 Build 0)  -->
<!DOCTYPE svg PUBLIC "-//W3C//DTD SVG 1.1//EN" "http://www.w3.org/Graphics/SVG/1.1/DTD/svg11.dtd">
<svg version="1.1" id="Layer_1" xmlns="http://www.w3.org/2000/svg" xmlns:xlink="http://www.w3.org/1999/xlink" x="0px" y="0px"
	 viewBox="0 0 48 48" enable-background="new 0 0 48 48" xml:space="preserve">
<g>
	<path fill="#0DB89A" d="M47.3,36c-0.2-0.3-0.5-0.5-0.9-0.6l-5.5-1.2c0.4-3.4,0.7-6.8,0.7-10.3c0-8.2-1.2-16-3.5-22.5
		c-0.2-0.6-0.7-0.9-1.3-0.9c-0.2,0-0.3,0-0.5,0.1c-0.7,0.3-1.1,1.1-0.9,1.8c1.3,3.8,2.3,8,2.8,12.6l-1.2-2.3
		c-0.2-0.5-0.7-0.8-1.3-0.8c-0.2,0-0.5,0.1-0.7,0.2c-0.7,0.4-1,1.2-0.6,1.9l1.7,3.3l-25.8-5.7c0.6-3.3,1.4-6.4,2.4-9.2
		c0.3-0.7-0.1-1.6-0.9-1.8c-0.2-0.1-0.3-0.1-0.5-0.1c-0.6,0-1.1,0.4-1.3,0.9c-1,2.9-1.9,6.1-2.5,9.6L2.2,9.8c-0.1,0-0.2,0-0.3,0
		c-0.7,0-1.2,0.5-1.4,1.1c-0.1,0.4,0,0.8,0.2,1.1c0.2,0.3,0.5,0.5,0.9,0.6l5.5,1.2c-0.4,3.3-0.7,6.7-0.7,10.1
		c0,8.3,1.2,16.1,3.6,22.6c0.2,0.6,0.7,0.9,1.3,0.9c0.2,0,0.3,0,0.5-0.1c0.4-0.1,0.6-0.4,0.8-0.7c0.2-0.3,0.2-0.7,0.1-1.1
		c-1.3-3.6-2.3-7.9-2.9-12.6l1.2,2.3c0.2,0.5,0.7,0.8,1.3,0.8c0.2,0,0.5-0.1,0.7-0.2c0.7-0.4,1-1.2,0.6-1.9l-1.7-3.3l25.8,5.7
		c-0.6,3.4-1.4,6.5-2.4,9.2c-0.1,0.4-0.1,0.7,0.1,1.1c0.2,0.3,0.4,0.6,0.8,0.7c0.2,0.1,0.3,0.1,0.5,0.1c0.6,0,1.1-0.4,1.3-0.9
		c1-2.9,1.9-6.1,2.5-9.6l5.3,1.2c0.1,0,0.2,0,0.3,0c0.7,0,1.2-0.5,1.4-1.1C47.5,36.7,47.5,36.3,47.3,36z M15.9,26
		c0.7-0.4,0.9-1.3,0.5-1.9c-0.3-0.4-0.7-0.7-1.2-0.7c-0.2,0-0.5,0.1-0.7,0.2l-5.2,2.9c0-0.9,0-1.7,0-2.5c0-3.2,0.2-6.4,0.6-9.5
		l25.6,5.6L32.1,22c-0.3,0.2-0.6,0.5-0.7,0.9c-0.1,0.4-0.1,0.8,0.1,1.1c0.3,0.4,0.7,0.7,1.2,0.7c0.2,0,0.5-0.1,0.7-0.2l5.2-2.9
		c0,0.8,0,1.6,0,2.4c0,3.2-0.2,6.4-0.6,9.6l-25.5-5.6L15.9,26z"/>
</g>
</svg>
