<?xml version="1.0" encoding="utf-8"?>
<!-- Generator: Adobe Illustrator 18.0.0, SVG Export Plug-In . SVG Version: 6.00 Build 0)  -->
<!DOCTYPE svg PUBLIC "-//W3C//DTD SVG 1.1//EN" "http://www.w3.org/Graphics/SVG/1.1/DTD/svg11.dtd">
<svg version="1.1" id="Layer_1" xmlns="http://www.w3.org/2000/svg" xmlns:xlink="http://www.w3.org/1999/xlink" x="0px" y="0px"
	 viewBox="0 0 48 48" enable-background="new 0 0 48 48" xml:space="preserve">
<g>
	<path fill="#F7A93B" d="M43.4,0.5h-2.8H1.5c-0.4,0-0.7,0.2-0.9,0.6C0.4,1.5,0.5,1.9,0.8,2.2l5.7,5.6l4.8,38.9
		c0.1,0.5,0.5,0.9,1,0.9H35c0.5,0,0.9-0.4,1-0.9l5.4-44.2h1.9c0.1,0,2.2,0,2.2,3.7V29c0,0.5,0.4,1,1,1c0.5,0,1-0.4,1-1V6.2
		C47.5,0.6,43.4,0.5,43.4,0.5z M11.4,15.2c-0.5,0-1-0.4-1-1c0-0.5,0.4-1,1-1h6.8c0.5,0,1,0.4,1,1c0,0.5-0.4,1-1,1H11.4z M12,24
		c0-0.5,0.4-1,1-1h6.8c0.5,0,1,0.4,1,1s-0.4,1-1,1h-6.8C12.4,25,12,24.5,12,24z M21.2,34.7h-6.8c-0.5,0-1-0.4-1-1c0-0.5,0.4-1,1-1
		h6.8c0.5,0,1,0.4,1,1C22.2,34.3,21.8,34.7,21.2,34.7z"/>
</g>
</svg>
