<?xml version="1.0" encoding="utf-8"?>
<!-- Generator: Adobe Illustrator 18.0.0, SVG Export Plug-In . SVG Version: 6.00 Build 0)  -->
<!DOCTYPE svg PUBLIC "-//W3C//DTD SVG 1.1//EN" "http://www.w3.org/Graphics/SVG/1.1/DTD/svg11.dtd">
<svg version="1.1" id="Layer_1" xmlns="http://www.w3.org/2000/svg" xmlns:xlink="http://www.w3.org/1999/xlink" x="0px" y="0px"
	 viewBox="0 0 48 48" enable-background="new 0 0 48 48" xml:space="preserve">
<g>
	<path fill="#4DA0D8" d="M47.2,8.5c-5.2-5.2-12-8-19.4-8s-14.2,2.8-19.4,8c-10.7,10.7-10.7,28,0,38.7c0.2,0.2,0.4,0.3,0.7,0.3
		c0.2,0,0.5-0.1,0.7-0.3L47.2,9.9c0.2-0.2,0.3-0.4,0.3-0.7C47.5,8.9,47.4,8.7,47.2,8.5z M10.9,33.2c-2-6.3-0.3-13.2,4.4-17.9
		c3.4-3.4,7.8-5.2,12.6-5.2c1.8,0,3.6,0.3,5.4,0.8L10.9,33.2z"/>
</g>
</svg>
