<?xml version="1.0" encoding="utf-8"?>
<!-- Generator: Adobe Illustrator 18.0.0, SVG Export Plug-In . SVG Version: 6.00 Build 0)  -->
<!DOCTYPE svg PUBLIC "-//W3C//DTD SVG 1.1//EN" "http://www.w3.org/Graphics/SVG/1.1/DTD/svg11.dtd">
<svg version="1.1" id="Layer_1" xmlns="http://www.w3.org/2000/svg" xmlns:xlink="http://www.w3.org/1999/xlink" x="0px" y="0px"
	 viewBox="0 0 48 48" enable-background="new 0 0 48 48" xml:space="preserve">
<g>
	<path fill="#E77528" d="M47.4,23.6C47.4,23.6,47.4,23.5,47.4,23.6c-0.1-0.2-0.2-0.3-0.2-0.3c0,0,0,0,0,0L22,3.8
		c-0.1-0.1-0.3-0.2-0.5-0.2c-0.6-0.3-1.2-0.4-1.8-0.4c-0.3,0-0.6,0-0.9,0.1c-0.1-0.1-0.3-0.1-0.4-0.1h-7.1L7.8,0.7
		c-0.4-0.3-1-0.2-1.3,0.2C6.2,1.4,6.3,2,6.7,2.3L8,3.2H1.5c-0.5,0-1,0.4-1,1c0,0.5,0.4,1,1,1H8L6.7,6C6.3,6.3,6.2,6.9,6.5,7.3
		C6.7,7.6,7,7.8,7.3,7.8c0.2,0,0.4-0.1,0.6-0.2l3.5-2.5h4.7c-2.8,3.1-4.7,9.8-4.8,17.9H1.5c-0.5,0-1,0.4-1,1c0,0.5,0.4,1,1,1h9.8
		c0.1,7.8,1.9,14.3,4.4,17.5h-4.9l-3-2.1c-0.4-0.3-1-0.2-1.3,0.2c-0.3,0.4-0.2,1,0.2,1.3l0.7,0.5h-6c-0.5,0-1,0.4-1,1
		c0,0.5,0.4,1,1,1h7.1l-1.8,1.3c-0.4,0.3-0.5,0.9-0.2,1.4c0.2,0.3,0.5,0.4,0.8,0.4c0.2,0,0.4-0.1,0.6-0.2l3.8-2.7
		c0.1-0.1,0.2-0.1,0.2-0.2H18c0.6,0.3,1.1,0.4,1.7,0.4c0.6,0,1.2-0.1,1.8-0.4c0.2,0,0.3-0.1,0.5-0.2l25.1-19.5c0,0,0,0,0,0
		c0.1-0.1,0.1-0.1,0.2-0.2c0,0,0-0.1,0.1-0.1c0.1-0.1,0.1-0.3,0.1-0.4C47.5,23.9,47.5,23.7,47.4,23.6z M25.8,38.8
		c1.4-3.5,2.3-8.3,2.4-13.9h6l-1.3,0.9c-0.4,0.3-0.5,0.9-0.2,1.3c0.2,0.3,0.5,0.4,0.8,0.4c0.2,0,0.4-0.1,0.6-0.2l3.5-2.5h6.1
		L25.8,38.8z M37.6,23L34,20.5c-0.4-0.3-1-0.2-1.4,0.2c-0.3,0.4-0.2,1,0.2,1.3l1.3,0.9h-5.9c0.2,0.6,0.1,1.4-0.1,1.9H11.4
		c-0.2-0.6-0.1-1.3,0-1.9h16.9c-0.1-5.5-1-10.3-2.4-13.9L43.7,23H37.6z"/>
</g>
</svg>
