<?xml version="1.0" encoding="utf-8"?>
<!-- Generator: Adobe Illustrator 18.0.0, SVG Export Plug-In . SVG Version: 6.00 Build 0)  -->
<!DOCTYPE svg PUBLIC "-//W3C//DTD SVG 1.1//EN" "http://www.w3.org/Graphics/SVG/1.1/DTD/svg11.dtd">
<svg version="1.1" id="Layer_1" xmlns="http://www.w3.org/2000/svg" xmlns:xlink="http://www.w3.org/1999/xlink" x="0px" y="0px"
	 viewBox="0 0 48 48" enable-background="new 0 0 48 48" xml:space="preserve">
<g>
	<path fill="#010101" d="M6.4,32.9C6.7,33.5,7,34,7.3,34.5c0,0,0,0,0-0.1"/>
	<g>
		<path fill="#294E58" d="M5,47.5c-1.3,0-2.4-0.3-3.4-0.9l-0.2-0.1C0.8,45.9-1.7,42.6,5.9,30l1.7,1.1C1.5,41.2,2.5,44.4,2.8,44.9
			c5.9,3.2,20.6-9.5,25.8-14.7c17.3-16.7,17-25.4,16.8-26.7c-0.4-0.5-0.9-0.8-1.6-0.9C40.4,2,34,5.9,31.9,7.4l-1.2-1.7
			c0.3-0.2,8.5-6.1,13.5-5.2c1.3,0.2,2.3,0.9,3,1.9l0.1,0.2l0,0.2c0.1,0.4,2.1,10-17.4,28.8C28.2,33.5,14,47.5,5,47.5z"/>
	</g>
	<path fill="#4DA0D8" d="M30.7,32.4c-1.5,1.5-6.5,6.4-12.3,10.4c1.8,0.5,3.6,0.8,5.6,0.8c10.9,0,19.7-8.8,19.7-19.7
		c0-1.9-0.3-3.8-0.8-5.6C40.2,22.3,36.3,27,30.7,32.4z"/>
	<path fill="#4DA0D8" d="M34.1,7.1c-1.4-0.8-2.8-1.5-4.4-2C28,4.6,26,4.3,24,4.3C13.1,4.3,4.3,13.1,4.3,24c0,1.9,0.3,3.7,0.8,5.4
		c0.5,1.7,1.2,3.2,2,4.7c1.7,2.8,4,5.2,6.8,6.8c5-3.2,10.4-7.8,13.9-11.4c6.6-6.4,10.6-11.6,13-15.6C39.2,11.1,36.9,8.8,34.1,7.1z"
		/>
</g>
</svg>
