<?xml version="1.0" encoding="utf-8"?>
<!-- Generator: Adobe Illustrator 18.0.0, SVG Export Plug-In . SVG Version: 6.00 Build 0)  -->
<!DOCTYPE svg PUBLIC "-//W3C//DTD SVG 1.1//EN" "http://www.w3.org/Graphics/SVG/1.1/DTD/svg11.dtd">
<svg version="1.1" id="Layer_1" xmlns="http://www.w3.org/2000/svg" xmlns:xlink="http://www.w3.org/1999/xlink" x="0px" y="0px"
	 viewBox="0 0 48 48" enable-background="new 0 0 48 48" xml:space="preserve">
<g>
	<path fill="#E8B944" d="M13.6,21.4c0.5,0,0.9,0,1.2-0.2c0.8-0.4,0.5-2.1,0.3-3.1c0-0.2-0.1-0.3-0.1-0.4c-0.1-0.4-0.4-0.9-1-1.2
		c-0.4-0.3-0.8-0.4-1.2-0.4c-0.1,0-0.2,0-0.3,0c-0.3,0.1-0.5,0.5-0.6,1.3c0,0.2-0.2,0.4-0.4,0.4c-0.2,0-0.4,0.1-0.7,0.1
		c-1,0.1-1.2,0.2-1.2,0.6c0,0.5,0.3,0.9,0.8,1.4c0.5,0.5,1.1,1.2,1,2.1c0.2-0.2,0.4-0.3,0.6-0.4C12.5,21.4,13.1,21.4,13.6,21.4z"/>
	<path fill="#E8B944" d="M44.1,25.8l-0.3-0.4c-0.4-0.5-0.9-1-1.3-1.5c-0.3-0.3-0.6-0.6-1-0.9c-0.8-0.7-1.7-1.6-1.9-2.3
		c-0.1-0.4,0.1-0.9,0.3-1.4l0.1-0.3c0.3-0.9,0.5-1.8,0.4-2.8c0-0.5-0.2-2.9-0.6-4C36.8,4.7,30.2,0.5,21.7,0.5
		C11.5,0.5,3.2,8.8,3.2,19c0,2.9,0.7,5.7,1.9,8.2c0.6,1.2,1.4,2.4,2.2,3.5l0.2,0.2c0.8,0.9,1.1,1.4,1.2,2.4c0,0.5,0,1,0,1.5
		c0,0.8-0.4,1.8-1.1,2.8c-0.6,0.9-1.2,1.9-1.7,2.9c-0.5,1-1.1,1.8-1.6,2.7l22.6,4.2c0.3-0.9,0.4-1.5,0.6-2c0.2-0.9,0.3-1.2,0.6-1.6
		c0.2-0.2,0.5-0.5,0.9-0.7c0.7-0.5,1.5-0.8,2.4-1c0.8-0.2,1.8-0.2,2.8-0.1c1.4,0.1,2.8,0.2,4.1-0.4c0.7-0.3,1.1-0.8,1.3-1.3
		c0.3-0.9-0.2-1.7-0.5-2.4c-0.2-0.4-0.5-0.9-0.5-1.2c0-0.1,0.4-0.3,0.5-0.4c0.5-0.3,1.2-0.8,1.2-1.6c0-0.6-0.3-1-0.7-1.4
		c0.2-0.1,0.4-0.1,0.5-0.1c0.3-0.1,0.6-0.2,0.8-0.3c0.3-0.1,0.6-0.5,0.6-0.8c0-0.4-0.1-0.7-0.4-0.9c-0.3-0.2-0.9-0.8-0.6-1.2
		c0.2-0.3,0.8-0.4,1.4-0.5c0.5-0.1,1.1-0.2,1.6-0.4c0.4-0.2,1.1-0.6,1.3-1.3C45,26.9,44.5,26.3,44.1,25.8z M11.4,11.6
		c0.9-0.1,1.3-0.3,1.5-0.9c0.2-0.6-0.1-1.1-0.4-1.8l-0.1-0.2c-0.1-0.2,0-0.5,0.2-0.7c0.2-0.1,0.5,0,0.7,0.2l0.1,0.2
		c0.4,0.7,0.8,1.5,0.5,2.5c-0.3,1.3-1.6,1.5-2.3,1.6c0,0,0,0-0.1,0c-0.2,0-0.5-0.2-0.5-0.4C11,11.9,11.1,11.6,11.4,11.6z M8.4,10.2
		c0.3-0.3,0.7-0.4,1-0.4c0.1,0,0.3-0.1,0.4-0.1c0.2-0.2,0.5-0.2,0.7-0.1c0.2,0.2,0.2,0.5,0.1,0.7c-0.3,0.3-0.6,0.4-1,0.5
		c-0.2,0-0.4,0.1-0.5,0.2c-0.2,0.2-0.3,0.4-0.3,0.8c0,1.1,0.3,1.9,0.5,2c0.2,0.1,0.3,0.4,0.2,0.7c-0.1,0.2-0.3,0.2-0.4,0.2
		c-0.1,0-0.2,0-0.2-0.1c-0.9-0.5-1-2.2-1-2.9C7.8,11.3,7.9,10.7,8.4,10.2z M32.3,13.1c-0.5,0.5-1.7,0.6-3,0.7c-0.2,0-0.3,0-0.4,0
		c-1.1,0.1-1.5-0.4-2-1l-0.2-0.3c-0.8-1-1-1.3-2.1-1.2c-0.6,0.1-0.8,0.2-0.8,0.3c-0.1,0.1,0,0.3,0.1,0.6l0.1,0.3
		c0.2,0.5,0.4,0.9,0.2,1.3c-0.2,0.4-0.7,0.6-1.3,0.7c-2,0.4-3.4-0.5-3.8-2.4c-0.2-0.9-0.2-1-0.9-0.9c-0.2,0-0.4,0.1-0.6,0.3
		c-0.2,0.1-0.4,0.3-0.7,0.3c0,0,0,0,0,0c0,0.5,0,1.2,0.1,1.6c0.1,0.2,0.1,0.2,0.1,0.2c0,0,0.1,0,0.2,0.1l0.2,0.1
		c0.2,0.1,0.3,0.1,0.6,0.2c0.8,0.3,1.8,0.6,2.3,1.1c0.2,0.2,0.2,0.5,0.3,0.7c0,0,0,0.1,0,0.1c0,0,0,0,0,0c0.1,0,0.2-0.1,0.4-0.1
		c0.3,0,0.5,0,0.8,0.1c0.2,0,0.4,0.1,0.5,0.1c0.7,0,1-0.1,1.1-0.1c0,0,0-0.2,0-0.2c0-0.2,0-0.6,0.2-0.8c0.3-0.5,0.8-0.5,1.1-0.5
		l0.1,0c0.8,0,1.1,0.1,1.3,0.9c0.4,1.1-0.1,2.3-1.5,3.4c-0.7,0.5-1.4,0.7-2.1,0.8c-0.6,0.1-1.2,0.2-1.7,0.6
		c-0.4,0.3-0.3,0.3-0.2,0.9c0,0.2,0.1,0.3,0.1,0.5c0,0.3-0.1,0.5-0.4,0.6c-0.1,0-0.3,0-0.5,0c-0.2,0-0.5,0-0.6,0.1c0,0,0,0.1,0,0.1
		c0,0.1,0,0.3,0,0.4c-0.2,0.8-0.5,2.5-2.3,2.5c-0.1,0-0.3,0-0.4,0c-0.3,0-0.5,0-0.8,0c-0.4,0-0.8,0-1.2-0.1c-0.7-0.1-1.5-0.5-2.5-1
		c-0.5-0.2-1.1-0.6-1.1-1.3c-0.4,0.4-0.9,0.8-0.9,0.8C9.5,24,9.1,24.1,8.7,24c-0.8-0.2-1.3-0.9-1.7-1.5c-0.1-0.2-0.3-0.5-0.4-0.7
		c-0.1-0.3-0.3-0.6-0.5-0.8c-0.1-0.1-0.2-0.2-0.3-0.3c-0.4-0.4-0.8-0.9-0.9-1.6c0-0.2-0.1-1.2,0.5-1.8C5.8,17,6.2,17,6.5,17
		c0.1,0,0.3,0,0.3,0c0,0,0-0.1-0.1-0.2c-0.1-0.3-0.2-0.7,0.2-1.2c0.3-0.3,0.7-0.4,1-0.4c0.2,0,0.4,0,0.4-0.1C8.6,15,8.9,15,9.1,15.2
		c0.2,0.2,0.2,0.5-0.1,0.7c-0.3,0.3-0.7,0.3-1,0.3c-0.2,0-0.4,0-0.4,0.1c0,0,0,0.1,0,0.2c0.1,0.3,0.2,0.7-0.3,1.2
		C7.1,18,6.8,18,6.5,18c-0.1,0-0.3,0-0.3,0C6.1,18.2,6,18.6,6,18.9c0.1,0.4,0.3,0.8,0.6,1.2c0.1,0.1,0.2,0.2,0.3,0.4
		c0.2,0.3,0.4,0.7,0.6,1c0.1,0.2,0.2,0.4,0.3,0.6c0.4,0.6,0.7,1,1,1c0.2,0,0.4,0,0.6-0.2c0.4-0.3,0.9-0.8,1-1c0-0.4-0.3-0.8-0.7-1.3
		c-0.5-0.6-1.1-1.2-1-2.2c0.1-1.3,1.3-1.4,2.1-1.5c0.1,0,0.2,0,0.2,0c0.1-0.6,0.4-1.5,1.3-1.8c0.7-0.2,1.6,0,2.3,0.5
		c0.8,0.5,1.3,1.2,1.4,1.9l0.1,0.4c0.2,1.3,0.6,3.4-0.8,4.1c-0.5,0.3-1.1,0.3-1.6,0.3c-0.5,0-0.9,0-1.2,0.2C12,22.8,11.9,23,11.9,23
		c0,0,0.1,0.2,0.6,0.4c0.9,0.5,1.6,0.8,2.2,0.9c0.3,0.1,0.6,0.1,1,0.1c0.3,0,0.6,0,0.9,0c1,0.1,1.3-0.3,1.6-1.7c0,0,0-0.1,0-0.2
		c0-0.3,0-0.6,0.3-0.9c0.2-0.2,0.6-0.3,1.2-0.3c-0.1-0.6-0.2-1.2,0.6-1.9c0.7-0.5,1.4-0.7,2.1-0.8c0.6-0.1,1.2-0.3,1.7-0.6
		c1-0.8,1.4-1.6,1.2-2.3c0,0,0-0.1-0.1-0.2c-0.1,0-0.2,0-0.3,0l-0.1,0c-0.1,0-0.2,0-0.3,0c0,0,0,0.1,0,0.2c0,0.3,0.1,0.7-0.3,1
		c-0.1,0.1-0.5,0.4-1.8,0.4c-0.2,0-0.5,0-0.7-0.1c-0.2,0-0.4-0.1-0.6-0.1c0,0-0.1,0-0.1,0c-0.2,0-0.6,0.1-0.9-0.1
		c-0.3-0.2-0.3-0.5-0.3-0.8c0-0.1,0-0.2-0.1-0.2c-0.3-0.3-1.2-0.6-1.8-0.8c-0.2-0.1-0.4-0.1-0.6-0.2l-0.2-0.1
		c-0.5-0.2-0.7-0.3-0.9-0.9C16,13.3,16,12.5,16,11.9v-0.4c0-0.3,0.2-0.5,0.5-0.5c0.3,0,0.5-0.1,0.7-0.3c0.3-0.2,0.6-0.3,1-0.4
		c1.7-0.2,1.9,0.9,2.1,1.7c0.3,1.4,1.1,1.9,2.6,1.6c0.5-0.1,0.6-0.2,0.6-0.2c0,0-0.1-0.2-0.2-0.4L23,12.7c-0.3-0.6-0.3-1.1,0-1.5
		c0.3-0.6,1-0.7,1.6-0.8c1.7-0.3,2.3,0.5,3.1,1.6l0.2,0.3c0.4,0.6,0.5,0.7,1.1,0.7c0.1,0,0.3,0,0.4,0c1.3-0.1,2.1-0.2,2.3-0.4
		c0.1-0.1-0.2-0.8-0.2-1l-0.1-0.2c-0.3-0.7-0.4-1.1-0.5-1.9c-0.1-0.5-0.2-0.8-0.5-1.1C30.2,8.2,30.1,8.1,30,8
		c-0.3-0.3-0.7-0.6-0.7-1.2c0-0.2,0-0.4,0-0.6c0-0.2,0-0.4,0-0.5c-0.1-0.4-0.1-0.4-1-0.3c-0.2,0-0.3,0-0.5,0c-0.5,0-0.9,0.1-0.9,0.3
		c0,0.1,0,0.2,0.1,0.4c0.1,0.3,0.2,0.7,0,1.1c-0.1,0.2-0.3,0.4-0.5,0.6c-0.1,0.1-0.2,0.2-0.2,0.2c-0.7,1-1.7,1.6-2.8,1.8
		c-0.9,0.1-1.6-0.4-1.9-1.3c-0.1-0.3-0.2-0.7,0-1c0.2-0.4,0.5-0.5,0.9-0.6c0.1,0,0.3-0.1,0.4-0.2c0.2-0.1,0.4-0.5,0.4-0.8
		c0-0.2-0.1-0.3-0.3-0.4c-0.1,0-0.5,0.1-0.8,0.2c-0.6,0.2-1.3,0.5-1.7,0.2c-0.1,0-0.1-0.1-0.2-0.2c-0.5,0.1-0.6,0.2-0.6,0.3
		c0,0.1,0.1,0.2,0.2,0.3c0.2,0.3,0.4,0.6,0.4,1.1c-0.1,1.3-1,2.2-2.3,2.3c-0.2,0-0.4-0.1-0.5-0.3c-0.1-0.3-0.1-0.7-0.1-1.1
		c0-0.5,0-0.9-0.2-1c-0.1-0.1-0.6-0.2-1.1,0c-0.3,0.1-0.4,0.2-0.4,0.2c0,0.3-0.3,0.5-0.6,0.4c-0.3,0-0.5-0.3-0.4-0.6
		c0.1-0.4,0.4-0.8,1-0.9C16.3,6,17.3,6,17.8,6.4c0.6,0.5,0.6,1.2,0.5,1.8c0,0.1,0,0.2,0,0.3c0.5-0.2,0.8-0.6,0.9-1.2
		c0-0.1-0.1-0.3-0.2-0.5c-0.2-0.2-0.3-0.5-0.3-0.9c0.1-0.9,1-1.1,1.6-1.2l0.2,0c0.1,0,0.3,0,0.4,0.1C21,4.7,21,4.9,21.1,5
		c0.2,0,0.6-0.2,0.8-0.2c0.5-0.2,1-0.4,1.4-0.2c0.6,0.2,0.9,0.7,1,1.3c0.1,0.7-0.3,1.4-0.9,1.7c-0.2,0.1-0.4,0.2-0.5,0.2
		c-0.1,0-0.3,0.1-0.3,0.1c0,0,0,0.1,0.1,0.3c0.2,0.5,0.5,0.7,0.9,0.7c0.8-0.1,1.6-0.6,2.1-1.4c0.1-0.1,0.2-0.2,0.3-0.4
		C26,7,26.1,6.8,26.1,6.8c0-0.1,0-0.3-0.1-0.4C26,6.1,25.9,5.8,26,5.5c0.2-0.9,1.2-1,1.8-1c0.1,0,0.3,0,0.4,0c0.8-0.1,1.8-0.3,2.1,1
		c0.1,0.3,0.1,0.6,0,0.9c0,0.1,0,0.3,0,0.4c0,0.2,0.1,0.3,0.4,0.5c0.1,0.1,0.3,0.2,0.4,0.4c0.5,0.5,0.6,1,0.7,1.6
		c0.1,0.7,0.2,1.1,0.4,1.7l0.1,0.1C32.5,11.7,32.8,12.5,32.3,13.1z"/>
</g>
</svg>
