<?xml version="1.0" encoding="utf-8"?>
<!-- Generator: Adobe Illustrator 18.0.0, SVG Export Plug-In . SVG Version: 6.00 Build 0)  -->
<!DOCTYPE svg PUBLIC "-//W3C//DTD SVG 1.1//EN" "http://www.w3.org/Graphics/SVG/1.1/DTD/svg11.dtd">
<svg version="1.1" id="Layer_1" xmlns="http://www.w3.org/2000/svg" xmlns:xlink="http://www.w3.org/1999/xlink" x="0px" y="0px"
	 viewBox="0 0 48 48" enable-background="new 0 0 48 48" xml:space="preserve">
<g>
	<path fill="#0DB89A" d="M43.7,0.5H4.3c-2.1,0-3.8,1.8-3.8,4v26c0,2.2,1.7,4,3.8,4h39.4c2.1,0,3.8-1.8,3.8-4v-26
		C47.5,2.3,45.8,0.5,43.7,0.5z"/>
	<path fill="#CFD0D1" d="M4.4,30.5l0-26c0,0,0,0,0-0.1h39.2l0,26c0,0,0,0,0,0H4.4z"/>
	<path fill="#06728D" d="M39.9,41h-8.2v-4.6H16.3V41H8.1c-0.5,0-1,0.4-1,1v4.6c0,0.5,0.4,1,1,1h31.8c0.5,0,1-0.4,1-1v-4.6
		C40.9,41.4,40.4,41,39.9,41z"/>
</g>
</svg>
