<?xml version="1.0" encoding="utf-8"?>
<!-- Generator: Adobe Illustrator 18.0.0, SVG Export Plug-In . SVG Version: 6.00 Build 0)  -->
<!DOCTYPE svg PUBLIC "-//W3C//DTD SVG 1.1//EN" "http://www.w3.org/Graphics/SVG/1.1/DTD/svg11.dtd">
<svg version="1.1" id="Layer_1" xmlns="http://www.w3.org/2000/svg" xmlns:xlink="http://www.w3.org/1999/xlink" x="0px" y="0px"
	 viewBox="0 0 48 48" enable-background="new 0 0 48 48" xml:space="preserve">
<g>
	<path fill="#F04B36" d="M34,20.9c-0.5-1.3-1.4-2.8-2.6-4c-1.8-1.8-4-2.9-5.7-2.9c-0.6,0-1.2,0.1-1.6,0.4c-0.2,0-0.4,0.1-0.5,0.3
		L16.1,22c-0.2,0.2-0.3,0.4-0.3,0.7c0,0.3,0.1,0.5,0.3,0.7l0.1,0.1c0.4,0.4,1,0.4,1.3,0c0.1-0.1,0.2-0.1,0.4-0.2L14,27.2
		c-2.1-1-3.9-1.2-4.8-0.3c-1.4,1.4-0.2,5,2.6,8.1l-2.4,2.4c-0.4,0.4-0.4,1,0,1.3c0.2,0.2,0.4,0.3,0.7,0.3c0.2,0,0.5-0.1,0.7-0.3
		l2.4-2.4c3.2,2.9,6.7,4.1,8.1,2.6c0.9-0.9,0.7-2.8-0.3-4.8l4-4c0,0.2-0.1,0.4-0.2,0.5c-0.4,0.4-0.4,1,0,1.3
		c0.2,0.2,0.4,0.3,0.7,0.3c0.2,0,0.5-0.1,0.7-0.3h0c0,0,0,0,0,0l7.4-7.4C34.3,23.8,34.5,22.5,34,20.9z M19.9,32.5
		c-0.6-0.8-1.2-1.6-2-2.3c-0.8-0.8-1.5-1.4-2.3-2l4.5-4.5c0.8,0.4,1.7,1,2.5,1.9c0.8,0.8,1.4,1.7,1.8,2.4L19.9,32.5z"/>
	<path fill="#4DA0D8" d="M12.5,41.8C10.9,42,9.3,41.4,8,40.1c-1-1-1.6-2.3-1.7-3.6c0-0.5-0.5-0.9-1-0.9c-0.5,0-0.9,0.5-0.9,1
		c0.2,1.7,1,3.4,2.3,4.7c1.5,1.5,3.4,2.3,5.3,2.3c0.2,0,0.5,0,0.7,0c0.5-0.1,0.9-0.5,0.8-1C13.5,42.2,13,41.8,12.5,41.8z"/>
	<path fill="#4DA0D8" d="M12.3,45.5C9.7,46,7,45.1,5,43.1c-1.7-1.7-2.6-3.9-2.5-6.1c0-0.5-0.4-1-0.9-1c-0.5,0-1,0.4-1,0.9
		c-0.1,2.7,1,5.5,3.1,7.5c2,2,4.6,3.1,7.2,3.1c0.6,0,1.2-0.1,1.7-0.2c0.5-0.1,0.9-0.6,0.8-1.1C13.3,45.7,12.8,45.4,12.3,45.5z"/>
	<path fill="#F7A93B" d="M14.5,19.8c0.2,0.2,0.4,0.3,0.7,0.3c0.2,0,0.5-0.1,0.7-0.3l6.7-6.7c0.2-0.2,0.3-0.4,0.3-0.7
		c0-0.3-0.1-0.5-0.3-0.7l-11-11c-0.4-0.4-1-0.4-1.3,0L3.5,7.4C3.3,7.6,3.2,7.9,3.2,8.1c0,0.3,0.1,0.5,0.3,0.7L14.5,19.8z"/>
	<path fill="#F7A93B" d="M47.1,36.4l-11-11c-0.2-0.2-0.4-0.3-0.7-0.3c-0.3,0-0.5,0.1-0.7,0.3L28.1,32c-0.2,0.2-0.3,0.4-0.3,0.7
		c0,0.3,0.1,0.5,0.3,0.7l11,11c0.2,0.2,0.4,0.3,0.7,0.3c0.2,0,0.5-0.1,0.7-0.3l6.7-6.7C47.5,37.3,47.5,36.7,47.1,36.4z"/>
</g>
</svg>
