<?xml version="1.0" encoding="utf-8"?>
<!-- Generator: Adobe Illustrator 18.0.0, SVG Export Plug-In . SVG Version: 6.00 Build 0)  -->
<!DOCTYPE svg PUBLIC "-//W3C//DTD SVG 1.1//EN" "http://www.w3.org/Graphics/SVG/1.1/DTD/svg11.dtd">
<svg version="1.1" id="Layer_1" xmlns="http://www.w3.org/2000/svg" xmlns:xlink="http://www.w3.org/1999/xlink" x="0px" y="0px"
	 viewBox="0 0 48 48" enable-background="new 0 0 48 48" xml:space="preserve">
<g>
	<path fill="#E77528" d="M31.2,15.2V7h2.6c0.5,0,1-0.4,1-1V1.5c0-0.5-0.4-1-1-1H14.2c-0.5,0-1,0.4-1,1v4.6c0,0.5,0.4,1,1,1h2.6v8.1
		C10.9,18,7,23.9,7,30.5c0,9.3,7.6,17,17,17c9.3,0,17-7.6,17-17C41,23.9,37.1,18,31.2,15.2z M9.7,26.1c1.3-4.2,4.4-7.6,8.5-9.4
		c0.4-0.2,0.6-0.5,0.6-0.9V6.1c0-0.5-0.4-1-1-1h-2.6V2.4h17.6v2.7h-2.6c-0.5,0-1,0.4-1,1v9.7c0,0.4,0.2,0.7,0.6,0.9
		c4.2,1.8,7.2,5.2,8.5,9.4H9.7z"/>
	<circle fill="#4DA0D8" cx="22.7" cy="13" r="1.2"/>
	<circle fill="#4DA0D8" cx="27.1" cy="22.4" r="1.9"/>
</g>
</svg>
