<?xml version="1.0" encoding="utf-8"?>
<!-- Generator: Adobe Illustrator 18.0.0, SVG Export Plug-In . SVG Version: 6.00 Build 0)  -->
<!DOCTYPE svg PUBLIC "-//W3C//DTD SVG 1.1//EN" "http://www.w3.org/Graphics/SVG/1.1/DTD/svg11.dtd">
<svg version="1.1" id="Layer_1" xmlns="http://www.w3.org/2000/svg" xmlns:xlink="http://www.w3.org/1999/xlink" x="0px" y="0px"
	 viewBox="0 0 48 48" enable-background="new 0 0 48 48" xml:space="preserve">
<g>
	<path fill="#E77528" d="M46.5,40.1H20.4c-0.5,0-1,0.4-1,1c0,0.5,0.4,1,1,1h26.2c0.5,0,1-0.4,1-1C47.5,40.5,47.1,40.1,46.5,40.1z"/>
	<path fill="#E77528" d="M46.5,45.6H20.8c-3.5,0-3.6-3.9-3.6-4.3c0-1.4,0.4-2.4,1-3.1c0.1-0.1,0.1-0.1,0.2-0.2c1-1,2.2-1.2,2.5-1.3
		h25.7c0.3,0,0.7-0.2,0.8-0.5c0.2-0.3,0.2-0.7,0-1l-5.8-9.6c-0.2-0.3-0.5-0.5-0.8-0.5H25c-0.3,0-0.6,0.2-0.8,0.4l-7.3,11.2
		c-0.9,1-1.6,2.5-1.6,4.5c0,2.2,1.2,6.3,5.6,6.3h25.7c0.5,0,1-0.4,1-1C47.5,46,47.1,45.6,46.5,45.6z"/>
	<path fill="#06728D" d="M26.9,5.4c-0.1-0.2-0.3-0.4-0.5-0.5L15.6,0.6c-0.5-0.2-1.1,0-1.3,0.5L0.6,35c-0.1,0.2-0.1,0.5,0,0.7
		c0.1,0.2,0.3,0.4,0.5,0.5l10.7,4.3c0.1,0,0.2,0.1,0.4,0.1c0.4,0,0.7-0.2,0.9-0.6L26.9,6.1C27,5.9,27,5.6,26.9,5.4z M12.9,30.7
		c-0.6,1.5-2.4,2.3-3.9,1.7c-1.5-0.6-2.3-2.4-1.7-3.9c0.6-1.5,2.4-2.3,3.9-1.7C12.7,27.4,13.5,29.2,12.9,30.7z M21.5,16.9l-10.7-4.3
		l2.1-5.1l10.7,4.3L21.5,16.9z"/>
</g>
</svg>
