<?xml version="1.0" encoding="utf-8"?>
<!-- Generator: Adobe Illustrator 18.0.0, SVG Export Plug-In . SVG Version: 6.00 Build 0)  -->
<!DOCTYPE svg PUBLIC "-//W3C//DTD SVG 1.1//EN" "http://www.w3.org/Graphics/SVG/1.1/DTD/svg11.dtd">
<svg version="1.1" id="Layer_1" xmlns="http://www.w3.org/2000/svg" xmlns:xlink="http://www.w3.org/1999/xlink" x="0px" y="0px"
	 viewBox="0 0 48 48" enable-background="new 0 0 48 48" xml:space="preserve">
<g>
	<path fill="#CFD0D1" d="M45.9,44.2H3.8V2.1c0-0.9-0.7-1.6-1.6-1.6c-0.9,0-1.6,0.7-1.6,1.6v43.7c0,0.9,0.7,1.6,1.6,1.6h43.7
		c0.9,0,1.6-0.7,1.6-1.6C47.5,44.9,46.8,44.2,45.9,44.2z"/>
	<path fill="#F04B36" d="M4.9,41.3c0.1,0.8,0.8,1.5,1.6,1.5c0.1,0,0.1,0,0.2,0c4.6-0.5,8.8-1.5,12.5-3.1c3.6,2.1,7.9,3.1,12.7,3.1
		c1.6,0,3.4-0.1,5.2-0.4c0.9-0.1,1.5-1,1.4-1.9c-0.1-0.8-0.8-1.4-1.6-1.4c-0.1,0-0.1,0-0.2,0c-1.6,0.2-3.2,0.3-4.7,0.3
		c-3.3,0-6.4-0.6-9-1.7c15.2-9,14.8-26.1,14.8-26.3c0-0.9-0.7-1.6-1.7-1.6c0,0,0,0,0,0c-0.4,0-0.8,0.2-1.1,0.5
		c-0.3,0.3-0.5,0.7-0.4,1.2c0,0.7,0.3,16.8-14.9,24.3c-0.6-0.4-1.2-0.9-1.8-1.4c-9.1-8-9.1-23.3-9.1-23.5c0-0.9-0.7-1.7-1.6-1.7
		c-0.9,0-1.6,0.7-1.6,1.6c0,0.7-0.1,17,10.2,26c0.1,0.1,0.3,0.3,0.4,0.4c-2.9,1-6.2,1.7-9.6,2.1C5.4,39.6,4.8,40.4,4.9,41.3z"/>
</g>
</svg>
