<?xml version="1.0" encoding="utf-8"?>
<!-- Generator: Adobe Illustrator 18.0.0, SVG Export Plug-In . SVG Version: 6.00 Build 0)  -->
<!DOCTYPE svg PUBLIC "-//W3C//DTD SVG 1.1//EN" "http://www.w3.org/Graphics/SVG/1.1/DTD/svg11.dtd">
<svg version="1.1" id="Layer_1" xmlns="http://www.w3.org/2000/svg" xmlns:xlink="http://www.w3.org/1999/xlink" x="0px" y="0px"
	 viewBox="0 0 48 48" enable-background="new 0 0 48 48" xml:space="preserve">
<g>
	<path fill="#CFD0D1" d="M36.7,0.5H11.3c-2.4,0-4.4,2.3-4.4,5.1v36.8c0,2.8,2,5.1,4.4,5.1h25.5c2.4,0,4.4-2.3,4.4-5.1V5.6
		C41.2,2.8,39.2,0.5,36.7,0.5z M12.9,7.2h21.7v10.3H12.9V7.2z M19.7,40.1h-6.2c-0.5,0-1-0.4-1-1c0-0.5,0.4-1,1-1h6.2
		c0.5,0,1,0.4,1,1C20.6,39.6,20.2,40.1,19.7,40.1z M19.7,32.7h-6.2c-0.5,0-1-0.4-1-1c0-0.5,0.4-1,1-1h6.2c0.5,0,1,0.4,1,1
		C20.6,32.3,20.2,32.7,19.7,32.7z M19.7,25.4h-6.2c-0.5,0-1-0.4-1-1c0-0.5,0.4-1,1-1h6.2c0.5,0,1,0.4,1,1
		C20.6,24.9,20.2,25.4,19.7,25.4z M34.5,40.1h-6.2c-0.5,0-1-0.4-1-1c0-0.5,0.4-1,1-1h6.2c0.5,0,1,0.4,1,1
		C35.5,39.6,35,40.1,34.5,40.1z M34.5,32.7h-6.2c-0.5,0-1-0.4-1-1c0-0.5,0.4-1,1-1h6.2c0.5,0,1,0.4,1,1C35.5,32.3,35,32.7,34.5,32.7
		z M34.5,25.4h-6.2c-0.5,0-1-0.4-1-1c0-0.5,0.4-1,1-1h6.2c0.5,0,1,0.4,1,1C35.5,24.9,35,25.4,34.5,25.4z"/>
</g>
</svg>
