<?xml version="1.0" encoding="utf-8"?>
<!-- Generator: Adobe Illustrator 18.0.0, SVG Export Plug-In . SVG Version: 6.00 Build 0)  -->
<!DOCTYPE svg PUBLIC "-//W3C//DTD SVG 1.1//EN" "http://www.w3.org/Graphics/SVG/1.1/DTD/svg11.dtd">
<svg version="1.1" id="Layer_1" xmlns="http://www.w3.org/2000/svg" xmlns:xlink="http://www.w3.org/1999/xlink" x="0px" y="0px"
	 viewBox="0 0 48 48" enable-background="new 0 0 48 48" xml:space="preserve">
<g>
	<g>
		<path fill="#0DB89A" d="M5.5,6.4c-2.8,0-5,2.3-5,5v25.2c0,2.8,2.3,5,5,5h37c2.8,0,5-2.3,5-5V11.4c0-2.8-2.3-5-5-5H5.5z M16.2,24.5
			c0.8-0.3,2.1-0.4,3.7-0.5c0,0,0,0,0,0c0.6,0,1,0.4,1,1c0,0.6-0.4,1-1,1c-1.4,0-2.4,0.1-3,0.3c-0.1,0-0.2,0.1-0.3,0.1
			c-0.4,0-0.8-0.3-1-0.7C15.4,25.3,15.7,24.7,16.2,24.5z M15.7,32.2c-0.7,0.3-2.2,0.8-3.6,0.8c-0.5,0-1-0.1-1.5-0.2
			C9,32.2,9,32.2,9,32.2c-0.4-1.6-0.9-3.2-1-3.5c-0.1-0.3-0.5-1.5-0.8-2.7c0,0,0,0,0-1.4c0-0.3,0-0.5,0-0.8C7.2,23,7.1,22.1,8,21.1
			c1.2-1.3,3-1.2,4.5-1.2c0.3,0,0.6,0,0.9,0c0.6,0,1,0.5,1,1c0,0.6-0.5,1-1,1c-0.3,0-0.6,0-0.9,0c-1.1,0-2.4-0.1-3,0.5
			c-0.3,0.3-0.3,0.4-0.2,1.2c0,0.3,0,0.6,0,0.9c0,0.5,0,0.5,0,0.5c0.1,0.4,1.6,0.3,3.5-0.3c0,0,0,0,1-0.1c0.6-0.1,1.1,0.3,1.1,0.9
			c0.1,0.6-0.3,1.1-0.9,1.1c-1.5,0.2-1.5,0.2-1.5,0.2c-1.4,0.5-2.5,1.2-2.4,1.4c0.1,0.2,0.4,1.3,0.7,2.4c0,0,0,0,0.6,0.2
			c0.7,0.3,2.5-0.1,3.4-0.5c0.5-0.2,1.1,0,1.4,0.4C16.4,31.4,16.2,32,15.7,32.2z M21.2,28.8c-0.6,0.2-1.4,0.3-2.1,0.3
			c-0.5,0-1,0-1.5-0.1c-0.4,0-0.8,0-1.2,0c-0.6,0-1-0.5-1-1c0-0.6,0.5-1,1-1c0.4,0,0.8,0,1.3,0.1c1,0.1,2.1,0.1,2.8-0.1
			c0.5-0.2,1.1,0.1,1.3,0.6C22,28,21.7,28.6,21.2,28.8z M32.7,27.3c-0.5,0.2-1.1-0.1-1.3-0.7c-0.2-0.7-0.3-1.4-0.3-2.1
			c-0.2-2.1-0.4-2.7-1.4-2.8c-0.5,0-0.8,0-1,0.1c-0.3,0.4-0.1,1.7,0,2.6c0,0.3,0.1,0.5,0.1,0.8c0.1,0.5-0.3,1-0.8,1.1
			c-0.5,0.1-1-0.3-1.2-0.8c-0.7-3.2-1.4-3.5-1.5-3.5c0,0-0.1,0-0.3,0.2c-0.4,0.3,0,2,0.1,2.8c0.2,1,0.4,1.8,0.2,2.4
			c-0.1,0.5-0.5,0.8-1,0.8c0,0-0.1,0-0.1,0c-0.5,0-0.9-0.5-0.9-1c0-0.9,0-0.9,0-0.9c-0.7-2-1.6-3.7-2-4c0,0,0,0,0-0.5
			c0-0.6,0.4-1,0.9-1.1c0.3,0,0.3,0,0.3,0c0.4,0.2,0.9,0.2,1.1,0c0,0,0,0,0.2-0.2c0.9-0.7,1.7-0.7,2.2-0.5c0.3,0.1,0.3,0.1,0.3,0.1
			c0.3,0.3,0.7,0.4,0.7,0.3c0,0,0,0,0.1-0.1c0.6-0.6,1.5-0.9,2.7-0.8c2.8,0.3,3,2.9,3.2,4.6c0.1,0.6,0.1,1.3,0.3,1.7
			C33.5,26.6,33.2,27.2,32.7,27.3z M39.1,25.4c-0.3,0-0.6,0-0.9,0.1c-0.3,0.1-0.7,0.2-1.1,0.2c-0.4,0-0.9-0.1-1.5-0.4
			c-1-0.5-2.2-1.5-2.5-2.8c-0.3-1.2,0-2.4,0.7-3.3c0.7-0.9,1.8-1.3,3-1.2c0.6,0,1,0.5,0.9,1.1c0,0.6-0.5,1-1.1,0.9
			c-0.5,0-1,0.1-1.3,0.5c-0.3,0.4-0.4,0.9-0.3,1.4c0.2,0.6,0.9,1.2,1.5,1.5c0.5,0.2,0.7,0.2,1.2,0.1c0.4-0.1,0.9-0.2,1.6-0.2
			c0.6,0.1,1,0.5,0.9,1.1C40.2,25,39.6,25.4,39.1,25.4z M43,19.1c-0.6,0.2-1.3,0.4-1.6,0.5c0,0,0,0-0.3,0.1
			c-0.4,0.2-0.9,0.4-1.5,0.4c-0.1,0-0.2,0-0.4,0c-0.4-0.1-0.8-0.4-0.8-0.9c-0.1-0.8,0.1-1.6,0.6-2.3c0.1-0.2,0.3-0.4,0.4-0.5
			c0.2-0.2,0.3-0.3,0.3-0.4c0-0.1-0.1-0.2-0.2-0.2c-0.2-0.1-0.2-0.1-0.2-0.1c-0.2,0-0.7,0.3-0.9,0.8c0,0,0,0-0.5,0c0,0,0,0,0,0
			c-0.6,0-1-0.5-1-1c0-1.1,0.8-1.8,2-1.8c0,0,0,0,0,0c1.4,0,2.8,0.9,2.8,2.4c0,0.8,0,0.8,0,0.8c-0.4,0.5-0.4,0.8,0,0.7
			c0,0,0,0,0.4,0c0.6,0,1,0.5,0.9,1.1C43,19.1,43,19.1,43,19.1z"/>
	</g>
</g>
</svg>
