<?xml version="1.0" encoding="utf-8"?>
<!-- Generator: Adobe Illustrator 18.0.0, SVG Export Plug-In . SVG Version: 6.00 Build 0)  -->
<!DOCTYPE svg PUBLIC "-//W3C//DTD SVG 1.1//EN" "http://www.w3.org/Graphics/SVG/1.1/DTD/svg11.dtd">
<svg version="1.1" id="Layer_1" xmlns="http://www.w3.org/2000/svg" xmlns:xlink="http://www.w3.org/1999/xlink" x="0px" y="0px"
	 viewBox="0 0 48 48" enable-background="new 0 0 48 48" xml:space="preserve">
<g>
	<path fill="#F04B36" d="M18.7,25.8l0.6,2.2l3-15.5c0.1-0.5,0.5-0.8,1-0.8c0.5,0,0.9,0.4,0.9,0.9L27,32.5l2.5-13.3
		c0.1-0.5,0.5-0.8,0.9-0.8c0.4,0,0.9,0.3,1,0.8l1.6,6.4h10c2.8-4,4.5-7.5,4.5-10.6C47.5,7.3,41.9,1,34.9,1c-4.4,0-8.2,2.5-10.4,6.2
		C22.2,3.5,18.4,1,14.1,1C7.1,1,1.5,7.3,1.5,15c0,3,1.6,6.3,4.2,10.1h12.1C18.2,25.1,18.6,25.4,18.7,25.8z"/>
	<path fill="#F04B36" d="M31.2,26.9l-0.7-2.7l-2.8,14.9c-0.1,0.5-0.5,0.8-1,0.8c0,0,0,0,0,0c-0.5,0-0.9-0.4-1-0.9l-2.6-20.1
		l-2.7,13.6c-0.1,0.4-0.5,0.8-0.9,0.8c-0.4,0-0.9-0.3-1-0.7L17,27.1H7.1c4.3,5.7,10.6,12.3,17.4,19.9c6.6-7.3,12.7-13.8,17-19.4
		h-9.3C31.7,27.6,31.3,27.3,31.2,26.9z"/>
	<path fill="#06728D" d="M44.8,25.7H43c-0.5,0.6-0.9,1.3-1.5,2h3.3c0.5,0,1-0.4,1-1C45.8,26.1,45.3,25.7,44.8,25.7z"/>
	<path fill="#06728D" d="M1.5,25.1c-0.5,0-1,0.4-1,1c0,0.5,0.4,1,1,1h5.6c-0.5-0.7-1-1.3-1.4-2H1.5z"/>
</g>
</svg>
