<?xml version="1.0" encoding="utf-8"?>
<!-- Generator: Adobe Illustrator 18.0.0, SVG Export Plug-In . SVG Version: 6.00 Build 0)  -->
<!DOCTYPE svg PUBLIC "-//W3C//DTD SVG 1.1//EN" "http://www.w3.org/Graphics/SVG/1.1/DTD/svg11.dtd">
<svg version="1.1" id="Layer_1" xmlns="http://www.w3.org/2000/svg" xmlns:xlink="http://www.w3.org/1999/xlink" x="0px" y="0px"
	 viewBox="0 0 48 48" enable-background="new 0 0 48 48" xml:space="preserve">
<g>
	<polygon fill="none" points="11.1,32.4 6.7,36.8 10.6,40.9 15.1,36.5 12.8,34.2 11.9,33.2 	"/>
	<polygon fill="none" points="15.1,36.5 12.8,34.2 15.1,36.5 	"/>
	<polygon fill="none" points="34.7,18 37.1,11 29.9,13 	"/>
	<path fill="#F7A93B" d="M47.2,1.2c-0.4-0.4-1-0.4-1.4,0l-7.6,7.4c0,0-0.1,0.1-0.1,0.1l-9.9,2.8l-0.6-0.7c-0.4-0.4-1-0.4-1.4,0
		L9.1,27.6l-2.9-2.9c-0.4-0.4-1-0.4-1.4,0c-0.4,0.4-0.4,1,0,1.4l4.9,5l3.1,3.1l2.3,2.3l0,0l1.3,1.4l1.4,1.4c0,0,0,0,0,0l3.5,3.6
		c0.2,0.2,0.4,0.3,0.7,0.3c0.2,0,0.5-0.1,0.7-0.3c0.4-0.4,0.4-1,0-1.4l-2.9-2.9l17.2-16.8c0.4-0.4,0.4-1,0-1.4l-0.9-0.9l3.2-9.5
		c0.1,0,0.1-0.1,0.2-0.1l7.6-7.4C47.6,2.2,47.6,1.6,47.2,1.2z M34.7,18l-4.9-5l7.2-2L34.7,18z"/>
	<path fill="#06728D" d="M10.6,40.9l-4-4.1l4.5-4.4l0.7,0.8l1,1L9.8,31l-4.5,4.4l-3.2-3.2c-0.4-0.4-1-0.4-1.4,0
		c-0.4,0.4-0.4,1,0,1.4l3.8,3.9v0l2.7,2.7l6.5,6.7c0.2,0.2,0.4,0.3,0.7,0.3c0.2,0,0.5-0.1,0.7-0.3c0.4-0.4,0.4-1,0-1.4L12,42.2
		l4.5-4.4l-1.3-1.4L10.6,40.9z"/>
</g>
</svg>
