<?xml version="1.0" encoding="utf-8"?>
<!-- Generator: Adobe Illustrator 18.0.0, SVG Export Plug-In . SVG Version: 6.00 Build 0)  -->
<!DOCTYPE svg PUBLIC "-//W3C//DTD SVG 1.1//EN" "http://www.w3.org/Graphics/SVG/1.1/DTD/svg11.dtd">
<svg version="1.1" id="Layer_1" xmlns="http://www.w3.org/2000/svg" xmlns:xlink="http://www.w3.org/1999/xlink" x="0px" y="0px"
	 viewBox="0 0 48 48" enable-background="new 0 0 48 48" xml:space="preserve">
<g>
	<path fill="#0DB89A" d="M34.2,6.3c-3.7-3.7-8.7-5.8-14-5.8C15,0.5,10,2.6,6.3,6.3c-7.7,7.7-7.7,20.2,0,27.9C10,37.9,15,40,20.2,40
		c4.8,0,9.3-1.7,12.9-4.8l2-2C41.8,25.4,41.5,13.6,34.2,6.3z"/>
	<path fill="#06728D" d="M35.1,33.1l-2,2L45,47.1c0.3,0.3,0.6,0.4,1,0.4c0.4,0,0.7-0.1,1-0.4c0.6-0.6,0.6-1.5,0-2L35.1,33.1z"/>
	<circle fill="#CFD0D1" cx="20.2" cy="20.2" r="13.9"/>
</g>
</svg>
