<?xml version="1.0" encoding="utf-8"?>
<!-- Generator: Adobe Illustrator 18.0.0, SVG Export Plug-In . SVG Version: 6.00 Build 0)  -->
<!DOCTYPE svg PUBLIC "-//W3C//DTD SVG 1.1//EN" "http://www.w3.org/Graphics/SVG/1.1/DTD/svg11.dtd">
<svg version="1.1" id="Layer_1" xmlns="http://www.w3.org/2000/svg" xmlns:xlink="http://www.w3.org/1999/xlink" x="0px" y="0px"
	 viewBox="0 0 48 48" enable-background="new 0 0 48 48" xml:space="preserve">
<g>
	<path fill="#F04B36" d="M26.1,45.5c-7.4-0.6-8.9-6.2-9.2-8.5c3-0.1,5.7-1.3,7.9-3.5c5.5-5.6,6.8-16.3,6.3-23.8
		c-0.2-3.5-1.5-6.1-3.6-7.6c-3.5-2.5-8.1-1.4-8.3-1.3c-0.5,0.1-0.8,0.7-0.7,1.2c0.1,0.5,0.7,0.8,1.2,0.7c0,0,3.9-1,6.7,1
		C28,4.9,29,7,29.2,9.9c0.5,7.6-1.1,17.5-5.8,22.3c-2.1,2.1-4.6,3.1-7.5,2.9c0,0,0,0,0,0c0,0,0,0,0,0c-2.9,0.1-5.4-0.8-7.5-2.9
		C3.6,27.4,2,17.5,2.5,9.9c0.2-2.9,1.1-5,2.8-6.2c2.7-2,6.6-1,6.7-1c0.5,0.1,1-0.2,1.2-0.7c0.1-0.5-0.2-1-0.7-1.2
		c-0.2-0.1-4.8-1.2-8.3,1.3C2.1,3.7,0.8,6.3,0.6,9.8c-0.5,7.5,0.8,18.2,6.3,23.8c2.2,2.3,4.9,3.5,8,3.5c0.3,2.6,2.1,9.7,11,10.4
		c0.2,0,0.4,0,0.6,0c3.2,0,8.1-2,9.7-7.4l-1.6-1.4C33.3,44.7,28.1,45.7,26.1,45.5z"/>
	<path fill="#06728D" d="M47.5,33.3c0-4.3-3.3-7.9-7.4-7.9c-4.1,0-7.4,3.5-7.4,7.9c0,2.1,0.8,4,2,5.4l1.6,1.4
		c1.1,0.7,2.4,1.1,3.8,1.1C44.2,41.2,47.5,37.7,47.5,33.3z"/>
</g>
</svg>
