<?xml version="1.0" encoding="utf-8"?>
<!-- Generator: Adobe Illustrator 18.0.0, SVG Export Plug-In . SVG Version: 6.00 Build 0)  -->
<!DOCTYPE svg PUBLIC "-//W3C//DTD SVG 1.1//EN" "http://www.w3.org/Graphics/SVG/1.1/DTD/svg11.dtd">
<svg version="1.1" id="Layer_1" xmlns="http://www.w3.org/2000/svg" xmlns:xlink="http://www.w3.org/1999/xlink" x="0px" y="0px"
	 viewBox="0 0 48 48" enable-background="new 0 0 48 48" xml:space="preserve">
<g>
	<path fill="#0DB89A" d="M39,0.5h-6.2H15.3H9c-0.5,0-1,0.4-1,1s0.4,1,1,1h5.2v37c0,4.5,3.6,8.1,8.1,8.1h3.3c4.5,0,8.1-3.6,8.1-8.1
		v-37H39c0.5,0,1-0.4,1-1S39.5,0.5,39,0.5z M23.6,41.5h-4.5c-0.5,0-1-0.4-1-1c0-0.5,0.4-1,1-1h4.5c0.5,0,1,0.4,1,1
		C24.6,41,24.1,41.5,23.6,41.5z M26.8,34.5h-7.7c-0.5,0-1-0.4-1-1c0-0.5,0.4-1,1-1h7.7c0.5,0,1,0.4,1,1C27.8,34,27.4,34.5,26.8,34.5
		z M18.2,26.5c0-0.5,0.4-1,1-1h4.5c0.5,0,1,0.4,1,1c0,0.5-0.4,1-1,1h-4.5C18.6,27.5,18.2,27.1,18.2,26.5z M26.8,20.5h-7.7
		c-0.5,0-1-0.4-1-1c0-0.5,0.4-1,1-1h7.7c0.5,0,1,0.4,1,1C27.8,20.1,27.4,20.5,26.8,20.5z M18.2,12.5c0-0.5,0.4-1,1-1h4.5
		c0.5,0,1,0.4,1,1c0,0.5-0.4,1-1,1h-4.5C18.6,13.5,18.2,13.1,18.2,12.5z M26.8,6.5h-7.7c-0.5,0-1-0.4-1-1c0-0.5,0.4-1,1-1h7.7
		c0.5,0,1,0.4,1,1C27.8,6.1,27.4,6.5,26.8,6.5z"/>
</g>
</svg>
