<?xml version="1.0" encoding="utf-8"?>
<!-- Generator: Adobe Illustrator 18.0.0, SVG Export Plug-In . SVG Version: 6.00 Build 0)  -->
<!DOCTYPE svg PUBLIC "-//W3C//DTD SVG 1.1//EN" "http://www.w3.org/Graphics/SVG/1.1/DTD/svg11.dtd">
<svg version="1.1" id="Layer_1" xmlns="http://www.w3.org/2000/svg" xmlns:xlink="http://www.w3.org/1999/xlink" x="0px" y="0px"
	 viewBox="0 0 48 48" enable-background="new 0 0 48 48" xml:space="preserve">
<g>
	<path fill="none" d="M36.9,27.2c0-5.4-3.4-10.2-8.6-12c-0.4-0.1-0.6-0.5-0.6-0.9V2.4h-7v11.8c0,0.4-0.3,0.8-0.6,0.9
		c-5.1,1.8-8.6,6.6-8.6,12c0,0.6,0.1,1.2,0.2,1.9h25.1C36.8,28.4,36.9,27.8,36.9,27.2z"/>
	<path fill="#294E58" d="M38.3,39.8c-0.2-0.2-0.5-0.3-0.9-0.3H32H16.4h-5.8c-0.3,0-0.6,0.1-0.9,0.3l-6.2,5.3
		c-0.6,0.5-0.6,1.3-0.1,1.9c0.3,0.3,0.6,0.5,1,0.5c0.3,0,0.6-0.1,0.9-0.3l5.8-5h12.2h1.6H37l5.8,5c0.3,0.2,0.6,0.3,0.9,0.3
		c0.4,0,0.7-0.2,1-0.5c0.5-0.6,0.4-1.4-0.1-1.9L38.3,39.8z"/>
	<path fill="#4DA0D8" d="M38.8,27.2c0-6-3.7-11.4-9.2-13.6V1.5c0-0.5-0.4-1-1-1h-8.9c-0.5,0-1,0.4-1,1v12.1
		c-5.5,2.2-9.2,7.6-9.2,13.6c0,5.2,2.7,9.7,6.8,12.3H32C36.1,36.9,38.8,32.4,38.8,27.2z M11.6,29c-0.1-0.6-0.2-1.2-0.2-1.9
		c0-5.4,3.4-10.2,8.6-12c0.4-0.1,0.6-0.5,0.6-0.9V2.4h7v11.8c0,0.4,0.3,0.8,0.6,0.9c5.1,1.8,8.6,6.6,8.6,12c0,0.6-0.1,1.2-0.2,1.9
		H11.6z"/>
</g>
</svg>
