<?xml version="1.0" encoding="utf-8"?>
<!-- Generator: Adobe Illustrator 18.0.0, SVG Export Plug-In . SVG Version: 6.00 Build 0)  -->
<!DOCTYPE svg PUBLIC "-//W3C//DTD SVG 1.1//EN" "http://www.w3.org/Graphics/SVG/1.1/DTD/svg11.dtd">
<svg version="1.1" id="Layer_1" xmlns="http://www.w3.org/2000/svg" xmlns:xlink="http://www.w3.org/1999/xlink" x="0px" y="0px"
	 viewBox="0 0 48 48" enable-background="new 0 0 48 48" xml:space="preserve">
<g>
	<path fill="#FFD69A" d="M47.3,22.7c-0.3-2-1.8-3.6-3.7-4.8c-1.6-1-3.3-1.1-3.8-2.7c-1-3.2,1.2-4.7,3.1-7c1-1.2,2.1-3.2,1.4-4.9
		c-0.5-1.2-3-2.5-4.5-2.7c-2.3-0.3-3.1,0.3-4.5,1.6l-0.6,0.4c-0.3,2.4-3.1,6.3-6,6.2c-2.6-0.1-3.8-2.9-6.7-2.5
		c-0.1,1-0.9,1.6-1.2,2.6c-0.2,0.5,0.2,1.6-0.1,2c-1.6,2.3-4.1-1.6-5.3-2.1c-2.1-0.9-5.8-1.1-6.8,1.2c-0.8,1.8,0,3.7-2.1,5
		c-2.2,1.3-5.3,0.3-5.9,3.1C0.2,20,1,22.4,3.1,23.7c2.1,1.4,3.5,1.5,3.2,4.2c-0.3,2.8-4.4,3-5.5,5.4c-0.8,1.6,0.4,3,2.3,3.3
		c3,0.5,5.5-1.7,7.6-3.2c1.9-1.5,3.3-3.2,6.1-1.8c2.3,1.1,1.6,3.6,0.8,5.3c-1.1,2.4-4.3,5-2.3,7.7c1.3,1.8,4,2.6,6.2,2.7
		c2.1,0.1,5.9,0.6,7.7-0.6c3.1-2.1-0.5-6.9,4.6-7.7c2.8-0.4,5.2,1,8,0.7c0.1-1,0.3-2.5-0.2-3.4c-0.6-1.1-2.7-1.6-2.9-2.9
		c-0.3-2.2,4-2.2,5.4-2.6C47.8,29.8,47.7,25.8,47.3,22.7z M19.6,27.9c-3.1,0-5.7-2.2-5.7-4.9c0-2.7,2.5-4.9,5.7-4.9
		c3.1,0,5.6,2.2,5.6,4.9C25.3,25.7,22.8,27.9,19.6,27.9z M36.8,27.4c-2.1,0-3.9-1.5-3.9-3.4c0-1.9,1.7-3.4,3.9-3.4
		c2.1,0,3.9,1.5,3.9,3.4C40.7,25.9,38.9,27.4,36.8,27.4z"/>
</g>
</svg>
