<?xml version="1.0" encoding="utf-8"?>
<!-- Generator: Adobe Illustrator 18.0.0, SVG Export Plug-In . SVG Version: 6.00 Build 0)  -->
<!DOCTYPE svg PUBLIC "-//W3C//DTD SVG 1.1//EN" "http://www.w3.org/Graphics/SVG/1.1/DTD/svg11.dtd">
<svg version="1.1" id="Layer_1" xmlns="http://www.w3.org/2000/svg" xmlns:xlink="http://www.w3.org/1999/xlink" x="0px" y="0px"
	 viewBox="0 0 48 48" enable-background="new 0 0 48 48" xml:space="preserve">
<g>
	<path fill="#F7A93B" d="M3.2,2.7H4v28.1c0,3.3,2,6,4.5,6h1.4c2.5,0,4.5-2.7,4.5-6V2.7h0.8c0.5,0,1-0.5,1-1.1c0-0.6-0.4-1.1-1-1.1
		h-1.8H5H3.2c-0.5,0-1,0.5-1,1.1C2.2,2.2,2.7,2.7,3.2,2.7z M12.5,2.7v6.7H6V2.7H12.5z"/>
	<path fill="#06728D" d="M46.5,38.1H1.5c-0.5,0-1,0.5-1,1.1v7.1c0,0.6,0.4,1.1,1,1.1h45.1c0.5,0,1-0.5,1-1.1v-7.1
		C47.5,38.6,47.1,38.1,46.5,38.1z"/>
	<path fill="#F04B36" d="M18,2.7h0.8v28.1c0,3.3,2,6,4.5,6h1.4c2.5,0,4.5-2.7,4.5-6V2.7H30c0.5,0,1-0.5,1-1.1c0-0.6-0.4-1.1-1-1.1
		h-1.8h-8.5H18c-0.5,0-1,0.5-1,1.1C17,2.2,17.4,2.7,18,2.7z M27.3,2.7v12h-6.6v-12H27.3z"/>
	<path fill="#4DA0D8" d="M32.7,2.7h0.8v28.1c0,3.3,2,6,4.5,6h1.4c2.5,0,4.5-2.7,4.5-6V2.7h0.8c0.5,0,1-0.5,1-1.1
		c0-0.6-0.4-1.1-1-1.1H43h-8.5h-1.8c-0.5,0-1,0.5-1,1.1C31.8,2.2,32.2,2.7,32.7,2.7z M42,2.7v3.2h-6.6V2.7H42z"/>
</g>
</svg>
