<?xml version="1.0" encoding="utf-8"?>
<!-- Generator: Adobe Illustrator 18.0.0, SVG Export Plug-In . SVG Version: 6.00 Build 0)  -->
<!DOCTYPE svg PUBLIC "-//W3C//DTD SVG 1.1//EN" "http://www.w3.org/Graphics/SVG/1.1/DTD/svg11.dtd">
<svg version="1.1" id="Layer_1" xmlns="http://www.w3.org/2000/svg" xmlns:xlink="http://www.w3.org/1999/xlink" x="0px" y="0px"
	 viewBox="0 0 48 48" enable-background="new 0 0 48 48" xml:space="preserve">
<g>
	<path fill="#FFD69A" d="M24,26.8c5.4,0,10.5-0.9,14.5-2.3L8.3,10.8c-4.1,1.7-6.8,4.1-6.8,6.6C1.5,22.5,11.8,26.8,24,26.8z"/>
	<path fill="#FFD69A" d="M46.5,17.4c0-5.1-10.3-9.3-22.5-9.3c-4.8,0-9.3,0.7-13,1.8l30,13.6C44.4,21.8,46.5,19.7,46.5,17.4z"/>
	<path fill="#F7A93B" d="M24,28.8c-11.3,0-20.5-3.4-23.5-8.1v8.8C0.5,35.3,11,39.9,24,39.9c13,0,23.5-4.6,23.5-10.4v-8.8
		C44.5,25.5,35.3,28.8,24,28.8z"/>
</g>
</svg>
