<?xml version="1.0" encoding="utf-8"?>
<!-- Generator: Adobe Illustrator 18.0.0, SVG Export Plug-In . SVG Version: 6.00 Build 0)  -->
<!DOCTYPE svg PUBLIC "-//W3C//DTD SVG 1.1//EN" "http://www.w3.org/Graphics/SVG/1.1/DTD/svg11.dtd">
<svg version="1.1" id="Layer_1" xmlns="http://www.w3.org/2000/svg" xmlns:xlink="http://www.w3.org/1999/xlink" x="0px" y="0px"
	 viewBox="0 0 48 48" enable-background="new 0 0 48 48" xml:space="preserve">
<g>
	<path fill="#0DB89A" d="M46.6,20.2c0-0.5-0.4-0.9-0.9-0.9H2.3c-0.5,0-0.9,0.4-0.9,0.9c0,0.5-0.1,1.1-0.1,1.6
		c0,8.4,4.6,15.9,11.9,19.9v4.9c0,0.5,0.4,0.9,0.9,0.9h19.6c0.5,0,0.9-0.4,0.9-0.9v-4.9c7.4-4,11.9-11.5,11.9-19.9
		C46.7,21.2,46.7,20.7,46.6,20.2z"/>
	<path fill="#4DA0D8" d="M13.7,16.8h13.7l-12-13.9c-1.3-1.5-3-2.4-4.6-2.4C9.4,0.5,8.3,1,7.5,1.9C5.7,4,6,7.9,8.3,10.6L13.7,16.8z"
		/>
</g>
</svg>
