<?xml version="1.0" encoding="utf-8"?>
<!-- Generator: Adobe Illustrator 18.0.0, SVG Export Plug-In . SVG Version: 6.00 Build 0)  -->
<!DOCTYPE svg PUBLIC "-//W3C//DTD SVG 1.1//EN" "http://www.w3.org/Graphics/SVG/1.1/DTD/svg11.dtd">
<svg version="1.1" id="Layer_1" xmlns="http://www.w3.org/2000/svg" xmlns:xlink="http://www.w3.org/1999/xlink" x="0px" y="0px"
	 viewBox="0 0 48 48" enable-background="new 0 0 48 48" xml:space="preserve">
<g>
	<ellipse fill="#F7A93B" cx="28.1" cy="1.8" rx="0.7" ry="0.7"/>
	<ellipse fill="#F7A93B" cx="24.2" cy="4.8" rx="1.7" ry="1.7"/>
	<polygon fill="#F04B36" points="29.5,12.7 31.8,12.7 31.8,9.1 20.3,9.1 20.3,12.7 22.5,12.7 22.5,14.3 29.5,14.3 	"/>
	<path fill="#06728D" d="M22.5,18.3c-4.1,1.4-7.1,5.3-7.1,9.8c0,5.7,4.8,10.4,10.6,10.4c5.9,0,10.6-4.6,10.6-10.4
		c0-4.5-3-8.4-7.1-9.8v-2h-7V18.3z M30.4,30.9c0.7,0,1.3,0.6,1.3,1.3c0,0.7-0.6,1.3-1.3,1.3c-0.7,0-1.3-0.6-1.3-1.3
		C29.1,31.5,29.7,30.9,30.4,30.9z M27.3,23.8c0.7,0,1.3,0.6,1.3,1.3c0,0.7-0.6,1.3-1.3,1.3c-0.7,0-1.3-0.6-1.3-1.3
		C26,24.4,26.6,23.8,27.3,23.8z M19.4,27.4c-0.4,0-0.7-0.3-0.7-0.7c0-0.4,0.3-0.7,0.7-0.7c0.4,0,0.7,0.3,0.7,0.7
		C20.2,27.1,19.8,27.4,19.4,27.4z M24.3,32.1c0,0.7-0.5,1.2-1.2,1.2s-1.2-0.5-1.2-1.2c0-0.7,0.5-1.2,1.2-1.2S24.3,31.5,24.3,32.1z"
		/>
	<path fill="#CFD0D1" d="M36.7,16.3c0.6,0,1-0.5,1-1c0-0.6-0.5-1-1-1h-7.1v2H36.7z"/>
	<path fill="#CFD0D1" d="M11.7,41.4v-25h10.8v-2H11.7V7.1c0-0.6-0.5-1-1-1c-0.6,0-1,0.5-1,1v34.2H0.5v5.5h47v-5.5H11.7z"/>
</g>
</svg>
