<?xml version="1.0" encoding="utf-8"?>
<!-- Generator: Adobe Illustrator 18.0.0, SVG Export Plug-In . SVG Version: 6.00 Build 0)  -->
<!DOCTYPE svg PUBLIC "-//W3C//DTD SVG 1.1//EN" "http://www.w3.org/Graphics/SVG/1.1/DTD/svg11.dtd">
<svg version="1.1" id="Layer_1" xmlns="http://www.w3.org/2000/svg" xmlns:xlink="http://www.w3.org/1999/xlink" x="0px" y="0px"
	 viewBox="0 0 48 48" enable-background="new 0 0 48 48" xml:space="preserve">
<g>
	<path fill="#F04B36" d="M31,38.8v6.4c0,0.5,0.4,0.9,1,0.9c0.5,0,1-0.4,1-0.9v-6.4c-0.3,0-0.6,0-1,0C31.7,38.9,31.3,38.9,31,38.8z"
		/>
	<path fill="#0DB89A" d="M46.5,0.8H25.6c-0.3,0-0.6,0.1-0.8,0.4l-7.3,9.5H1.5c-0.5,0-1,0.4-1,1c0,0.5,0.4,1,1,1h2.6v25.8
		c0,0.2,0.1,0.3,0.1,0.4c-0.1,0.4-0.1,0.8-0.1,1.3c0,3.9,3.1,7,7,7c3.9,0,7-3.1,7-7c0-0.3,0-0.7-0.1-1c0,0,0-0.1,0.1-0.1l1.8-8.9
		c1.6,4.7,5.9,8.2,11.1,8.6l1,0.1l1-0.1c6.6-0.5,11.8-6.1,11.8-12.8c0-0.3,0-0.5,0-0.7c0-0.1,0-0.1,0-0.2V2.7h1.7c0.5,0,1-0.4,1-1
		C47.5,1.2,47.1,0.8,46.5,0.8z M33,38.8c-0.3,0-0.6,0-1,0c-0.3,0-0.6,0-1,0V27c0-0.5,0.4-1,1-1c0.5,0,1,0.4,1,1V38.8z M42.9,19.3
		c-2.3-3.6-6.3-6.1-10.9-6.1c-6.1,0-11.3,4.3-12.5,10.1c-0.1,0.1-0.2,0.3-0.3,0.5L16.7,36c-1.3-1.7-3.3-2.8-5.6-2.8
		c-2,0-3.8,0.8-5.1,2.2V12.7h12c0.3,0,0.6-0.1,0.8-0.4l7.3-9.5h16.8V19.3z"/>
	<path fill="#F04B36" d="M36.4,46.3h-8.6c-0.5,0-1-0.4-1-1c0-0.5,0.4-1,1-1h8.6c0.5,0,1,0.4,1,1C37.4,45.9,36.9,46.3,36.4,46.3z"/>
</g>
</svg>
