<?xml version="1.0" encoding="utf-8"?>
<!-- Generator: Adobe Illustrator 18.0.0, SVG Export Plug-In . SVG Version: 6.00 Build 0)  -->
<!DOCTYPE svg PUBLIC "-//W3C//DTD SVG 1.1//EN" "http://www.w3.org/Graphics/SVG/1.1/DTD/svg11.dtd">
<svg version="1.1" id="Layer_1" xmlns="http://www.w3.org/2000/svg" xmlns:xlink="http://www.w3.org/1999/xlink" x="0px" y="0px"
	 viewBox="0 0 48 48" enable-background="new 0 0 48 48" xml:space="preserve">
<g>
	<path fill="#F04B36" d="M15.7,14c0.3,0,0.5,0.1,0.7,0.3l14,13.1l0.4-0.1c0.1,0,0.2,0,0.3,0l3.5,0.2L22.7,1.1
		c-0.2-0.3-0.5-0.6-0.9-0.6c-0.4,0-0.7,0.2-0.9,0.6L15.1,14L15.7,14C15.7,14,15.7,14,15.7,14z"/>
	<path fill="#0DB89A" d="M2.9,14c-0.5,0-1,0.4-1,1c0,0.5,0.4,1,1,1h11.3l0.9-1.9H2.9z"/>
	<path fill="#06728D" d="M46.6,28.3l-11.9-0.8l0.9,2l10.9,0.8c0.5,0,1-0.4,1-0.9C47.5,28.8,47.1,28.4,46.6,28.3z"/>
	<path fill="#0DB89A" d="M2.9,33c-0.5,0-1,0.4-1,1c0,0.5,0.4,1,1,1h2.7L6.5,33H2.9z"/>
	<path fill="#F04B36" d="M7.4,34.9c-0.1,0-0.2,0-0.2,0l0,0H5.6l-5,11.2c-0.1,0.3-0.1,0.6,0.1,0.9c0.2,0.3,0.5,0.4,0.8,0.4l40.7,0
		c0.3,0,0.6-0.2,0.8-0.4c0.2-0.3,0.2-0.6,0.1-0.9l-7.5-16.7l-4.4-0.3L7.4,34.9z"/>
	<path fill="#0DB89A" d="M2.9,20.3c-0.5,0-1,0.4-1,1c0,0.5,0.4,1,1,1h8.4l0.9-1.9H2.9z"/>
	<path fill="#0DB89A" d="M2.9,26.7c-0.5,0-1,0.4-1,1c0,0.5,0.4,1,1,1h5.6l0.9-1.9H2.9z"/>
	<path fill="#F04B36" d="M28.2,27.9l-12.8-12h-1.1l-2,4.4H13c0.5,0,1,0.4,1,1c0,0.5-0.4,1-1,1h-1.6l-2,4.4h0.4c0.5,0,1,0.4,1,1
		c0,0.5-0.4,1-1,1H8.5l-2,4.4H7L28.2,27.9z"/>
</g>
</svg>
