<?xml version="1.0" encoding="utf-8"?>
<!-- Generator: Adobe Illustrator 18.0.0, SVG Export Plug-In . SVG Version: 6.00 Build 0)  -->
<!DOCTYPE svg PUBLIC "-//W3C//DTD SVG 1.1//EN" "http://www.w3.org/Graphics/SVG/1.1/DTD/svg11.dtd">
<svg version="1.1" id="Layer_1" xmlns="http://www.w3.org/2000/svg" xmlns:xlink="http://www.w3.org/1999/xlink" x="0px" y="0px"
	 viewBox="0 0 48 48" enable-background="new 0 0 48 48" xml:space="preserve">
<g>
	<path fill="#4DA0D8" d="M42.3,9.3c1.1-0.8,1.9-2.2,1.9-3.7c0-2.5-2-4.5-4.5-4.5c-1.8,0-3.3,1-4,2.5C38.2,5.1,40.5,7,42.3,9.3z"/>
	<path fill="#E77528" d="M42.3,9.3c-0.7,0.5-1.6,0.9-2.6,0.9c-2.5,0-4.5-2-4.5-4.5c0-0.7,0.2-1.4,0.5-2c-3.4-2-7.4-3.1-11.6-3.1
		C11,0.5,0.5,11,0.5,24C0.5,37,11,47.5,24,47.5C37,47.5,47.5,37,47.5,24C47.5,18.4,45.6,13.3,42.3,9.3z M24,36.9
		c-1.9,0-3.7-0.4-5.3-1.1c-0.5,0.4-1.1,0.6-1.8,0.6c-1.7,0-3.1-1.4-3.1-3.1c0-0.4,0.1-0.7,0.2-1.1c-1.8-2.2-2.9-5.1-2.9-8.2
		c0-7.1,5.8-12.9,12.9-12.9c7.1,0,12.9,5.8,12.9,12.9S31.1,36.9,24,36.9z"/>
	<path fill="#0DB89A" d="M24,13.1c-6,0-10.9,4.9-10.9,10.9c0,2.5,0.8,4.8,2.3,6.6c0.5-0.3,1-0.4,1.5-0.4c1.7,0,3.1,1.4,3.1,3.1
		c0,0.3,0,0.5-0.1,0.8c1.3,0.5,2.7,0.8,4.1,0.8c6,0,10.9-4.9,10.9-10.9C34.9,18,30,13.1,24,13.1z"/>
</g>
</svg>
