<?xml version="1.0" encoding="utf-8"?>
<!-- Generator: Adobe Illustrator 18.0.0, SVG Export Plug-In . SVG Version: 6.00 Build 0)  -->
<!DOCTYPE svg PUBLIC "-//W3C//DTD SVG 1.1//EN" "http://www.w3.org/Graphics/SVG/1.1/DTD/svg11.dtd">
<svg version="1.1" id="Layer_1" xmlns="http://www.w3.org/2000/svg" xmlns:xlink="http://www.w3.org/1999/xlink" x="0px" y="0px"
	 viewBox="0 0 48 48" enable-background="new 0 0 48 48" xml:space="preserve">
<g>
	<path fill="#4DA0D8" d="M47.5,23.9c0-2.7-1.8-4.9-4.3-5.6c0,0,0,0,0,0V1.9c0-0.8-0.7-1.4-1.5-1.4c-0.8,0-1.5,0.6-1.5,1.4v9.7
		C36.9,4.8,30.6,0.5,23.6,0.5c-6.8,0-12.8,4-16.3,10.4v-9c0-0.8-0.7-1.4-1.5-1.4C5,0.5,4.4,1.1,4.4,1.9v16.3c0,0.1,0,0.1,0,0.1
		c-2.2,0.8-3.9,2.9-3.9,5.5c0,2.5,1.6,4.7,3.9,5.5v16.2C4.4,46.3,5,47,5.8,47c0.8,0,1.5-0.6,1.5-1.4v-8.5
		c3.6,6.4,9.6,10.4,16.3,10.4c6.9,0,13.2-4.4,16.7-11.2v9.3c0,0.8,0.7,1.4,1.5,1.4c0.8,0,1.5-0.6,1.5-1.4V29.5
		C45.7,28.8,47.5,26.6,47.5,23.9z M11.9,23.9c0-1.4-0.5-2.6-1.2-3.6c3.2-1.5,7.9-2.3,12.9-2.3c5.3,0,10.3,1,13.5,2.6
		c-0.6,0.9-1,2.1-1,3.3c0,1.3,0.4,2.5,1.1,3.5C34,29,29,30.1,23.6,30.1c-5.1,0-9.8-0.9-13.1-2.4C11.4,26.6,11.9,25.3,11.9,23.9z
		 M23.6,3.3c7.5,0,14.1,6.3,16.1,15.1c-0.1,0-0.2,0.1-0.3,0.1c-3.6-2.2-9.5-3.5-15.8-3.5c-6.1,0-11.9,1.2-15.5,3.3
		c-0.2-0.1-0.4-0.1-0.6-0.2C9.6,9.4,16.1,3.3,23.6,3.3z M23.6,44.7c-7.6,0-14.1-6.2-16.1-15.1c0.1,0,0.2-0.1,0.4-0.1
		c3.6,2.2,9.5,3.5,15.8,3.5c6.5,0,12.5-1.4,16.1-3.7c0,0,0.1,0,0.1,0C37.8,38.2,31.1,44.7,23.6,44.7z"/>
	<ellipse fill="#F04B36" cx="41.1" cy="24" rx="6.4" ry="6.3"/>
	<ellipse fill="#0DB89A" cx="6.9" cy="24" rx="6.4" ry="6.3"/>
</g>
</svg>
