<?xml version="1.0" encoding="utf-8"?>
<!-- Generator: Adobe Illustrator 18.0.0, SVG Export Plug-In . SVG Version: 6.00 Build 0)  -->
<!DOCTYPE svg PUBLIC "-//W3C//DTD SVG 1.1//EN" "http://www.w3.org/Graphics/SVG/1.1/DTD/svg11.dtd">
<svg version="1.1" id="Layer_1" xmlns="http://www.w3.org/2000/svg" xmlns:xlink="http://www.w3.org/1999/xlink" x="0px" y="0px"
	 viewBox="0 0 48 48" enable-background="new 0 0 48 48" xml:space="preserve">
<g>
	<path fill="#F04B36" d="M1.9,3.3h7.7v8.4c0,3.4,2,6.1,4.7,6.1c1.3,0,2.4-0.6,3.2-1.7c0.8,1,2,1.7,3.2,1.7c1.3,0,2.4-0.6,3.2-1.7
		c0.8,1,2,1.7,3.2,1.7c1.3,0,2.4-0.6,3.2-1.7c0.8,1,2,1.7,3.2,1.7c2.6,0,4.7-2.7,4.7-6.1V3.3h7.7c0.8,0,1.4-0.6,1.4-1.4
		c0-0.8-0.6-1.4-1.4-1.4H37c-0.8,0-1.4,0.6-1.4,1.4v9.8c0,1.9-1,3.3-1.8,3.3c-0.9,0-1.8-1.4-1.8-3.3c0,0,0,0,0,0V8.8
		c0-0.8-0.6-1.4-1.4-1.4h0h0c-0.8,0-1.4,0.6-1.4,1.4v2.9c0,0,0,0,0,0c0,1.9-1,3.3-1.8,3.3c-0.9,0-1.8-1.4-1.8-3.3V8.8
		c0-0.8-0.6-1.4-1.4-1.4c-0.8,0-1.4,0.6-1.4,1.4v2.9c0,1.9-1,3.3-1.8,3.3c-0.9,0-1.8-1.4-1.8-3.3V8.8c0-0.8-0.6-1.4-1.4-1.4
		c-0.8,0-1.4,0.6-1.4,1.4v2.9c0,1.9-1,3.3-1.8,3.3c-0.9,0-1.8-1.4-1.8-3.3V1.9c0-0.8-0.6-1.4-1.4-1.4H1.9c-0.8,0-1.4,0.6-1.4,1.4
		C0.5,2.7,1.1,3.3,1.9,3.3z"/>
	<path fill="#F7A93B" d="M46.1,44.7h-7.7v-8.4c0-3.4-2-6.1-4.7-6.1c-1.3,0-2.4,0.6-3.2,1.7c-0.8-1-2-1.7-3.2-1.7
		c-1.3,0-2.4,0.6-3.2,1.7c-0.8-1-2-1.7-3.2-1.7c-1.3,0-2.4,0.6-3.2,1.7c-0.8-1-2-1.7-3.2-1.7c-2.6,0-4.7,2.7-4.7,6.1v8.4H1.9
		c-0.8,0-1.4,0.6-1.4,1.4c0,0.8,0.6,1.4,1.4,1.4H11c0.8,0,1.4-0.6,1.4-1.4v-9.8c0-1.9,1-3.3,1.8-3.3c0.9,0,1.8,1.4,1.8,3.3v2.9
		c0,0.8,0.6,1.4,1.4,1.4c0.8,0,1.4-0.6,1.4-1.4v-2.9c0-1.9,1-3.3,1.8-3.3c0.9,0,1.8,1.4,1.8,3.3v2.9c0,0.8,0.6,1.4,1.4,1.4
		c0.8,0,1.4-0.6,1.4-1.4v-2.9c0-1.9,1-3.3,1.8-3.3c0.9,0,1.8,1.4,1.8,3.3c0,0,0,0,0,0v2.9c0,0.8,0.6,1.4,1.4,1.4h0h0
		c0.8,0,1.4-0.6,1.4-1.4v-2.9c0,0,0,0,0,0c0-1.9,1-3.3,1.8-3.3c0.9,0,1.8,1.4,1.8,3.3v9.8c0,0.8,0.6,1.4,1.4,1.4h9.1
		c0.8,0,1.4-0.6,1.4-1.4C47.5,45.3,46.9,44.7,46.1,44.7z"/>
	<path fill="#4DA0D8" d="M11.2,22.6c-0.8,0-1.4,0.6-1.4,1.4c0,0.8,0.6,1.4,1.4,1.4h25.6c0.8,0,1.4-0.6,1.4-1.4
		c0-0.8-0.6-1.4-1.4-1.4H11.2z"/>
</g>
</svg>
