<?xml version="1.0" encoding="utf-8"?>
<!-- Generator: Adobe Illustrator 18.0.0, SVG Export Plug-In . SVG Version: 6.00 Build 0)  -->
<!DOCTYPE svg PUBLIC "-//W3C//DTD SVG 1.1//EN" "http://www.w3.org/Graphics/SVG/1.1/DTD/svg11.dtd">
<svg version="1.1" id="Layer_1" xmlns="http://www.w3.org/2000/svg" xmlns:xlink="http://www.w3.org/1999/xlink" x="0px" y="0px"
	 viewBox="0 0 48 48" enable-background="new 0 0 48 48" xml:space="preserve">
<g>
	<path fill="#06728D" d="M42.7,19.2c-0.5,0-1,0.1-1.5,0.3l-4.6-8c1-0.9,1.6-2.2,1.6-3.6C38.2,5.2,36,3,33.4,3
		c-2.3,0-4.3,1.7-4.7,3.8l-9.2,0C19,4.7,17,3,14.7,3C12,3,9.9,5.2,9.9,7.8c0,1.4,0.6,2.7,1.6,3.6l-4.7,8.1c-0.5-0.2-1-0.3-1.5-0.3
		c-2.7,0-4.8,2.2-4.8,4.8c0,2.7,2.2,4.8,4.8,4.8c0.5,0,1-0.1,1.5-0.3l4.7,8.1c-1,0.9-1.6,2.1-1.6,3.6c0,2.7,2.2,4.8,4.8,4.8
		c2.3,0,4.3-1.7,4.7-3.8h9.2c0.4,2.2,2.4,3.8,4.7,3.8c2.7,0,4.8-2.2,4.8-4.8c0-1.4-0.6-2.7-1.6-3.6l4.6-8.1c0.5,0.2,1,0.3,1.5,0.3
		c2.7,0,4.8-2.2,4.8-4.8C47.5,21.3,45.3,19.2,42.7,19.2z M34.9,35.6c-0.5-0.2-1-0.3-1.5-0.3c-2.3,0-4.3,1.7-4.7,3.8h-9.2
		C19,37,17,35.4,14.7,35.4c-0.5,0-1.1,0.1-1.5,0.3l-4.7-8.1c1-0.9,1.6-2.2,1.6-3.6s-0.6-2.7-1.6-3.6l4.7-8.1c0.5,0.2,1,0.3,1.5,0.3
		c2.3,0,4.3-1.7,4.7-3.8l9.2,0c0.4,2.2,2.4,3.8,4.7,3.8c0.5,0,1-0.1,1.5-0.3l4.6,8.1c-1,0.9-1.6,2.2-1.6,3.6s0.6,2.7,1.6,3.6
		L34.9,35.6z"/>
	<circle fill="#0DB89A" cx="14.8" cy="8.4" r="5.4"/>
	<circle fill="#CFD0D1" cx="33.4" cy="8.4" r="5.4"/>
	<circle fill="#4DA0D8" cx="14.3" cy="39.6" r="5.4"/>
	<circle fill="#E77528" cx="33.4" cy="39.6" r="5.4"/>
	<circle fill="#F04B36" cx="42.1" cy="24" r="5.4"/>
	<circle fill="#CFD0D1" cx="5.9" cy="24" r="5.4"/>
</g>
</svg>
