<?xml version="1.0" encoding="utf-8"?>
<!-- Generator: Adobe Illustrator 18.0.0, SVG Export Plug-In . SVG Version: 6.00 Build 0)  -->
<!DOCTYPE svg PUBLIC "-//W3C//DTD SVG 1.1//EN" "http://www.w3.org/Graphics/SVG/1.1/DTD/svg11.dtd">
<svg version="1.1" id="Layer_1" xmlns="http://www.w3.org/2000/svg" xmlns:xlink="http://www.w3.org/1999/xlink" x="0px" y="0px"
	 viewBox="0 0 48 48" enable-background="new 0 0 48 48" xml:space="preserve">
<g>
	<path fill="#F7A93B" d="M31.5,7.2C32.4,6.8,33,6,33,5V4.9c0-1.3-1.2-2.4-2.6-2.4h-6.2c-1.4,0-2.6,1.1-2.6,2.4V5
		c0,1,0.6,1.8,1.5,2.2v1.1h8.4V7.2z"/>
	<path fill="#06728D" d="M40.3,10.2c0.5,0,1-0.4,1-1c0-0.5-0.4-1-1-1h-8.8v1.9H40.3z"/>
	<path fill="#0DB89A" d="M17.4,26.4c-0.9,1.2-0.7,2.1-0.5,2.6c0.2,0.5,0.9,1.3,2.7,1.4l2.1,0h11.4l2.1,0c1.8,0,2.5-0.9,2.7-1.4
		c0.2-0.5,0.4-1.4-0.5-2.6l-5.7-13.2v-2.9h-1.9H25h-1.9v2.9L17.4,26.4z"/>
	<path fill="#F04B36" d="M21.6,30.3l-2.1,0l-2.8,7.9c0,0,0,0,0,0h2.1L21.6,30.3z"/>
	<path fill="#F04B36" d="M37.8,38.2L35,30.3l-2.1,0l2.8,7.9L37.8,38.2C37.8,38.3,37.8,38.2,37.8,38.2z"/>
	<path fill="#06728D" d="M43.2,38.3h-5.4h-2.1h-17h-2.1H9v-28h14V8.3H9V5.7c0-0.5-0.4-1-1-1c-0.5,0-1,0.4-1,1v2.6H4.9
		c-0.5,0-1,0.4-1,1c0,0.5,0.4,1,1,1h2.2v28H4.8c-2.4,0-4.3,1.6-4.3,3.6c0,2,1.9,3.6,4.3,3.6h38.4c2.4,0,4.3-1.6,4.3-3.6
		C47.5,39.9,45.6,38.3,43.2,38.3z"/>
</g>
</svg>
