<?xml version="1.0" encoding="utf-8"?>
<!-- Generator: Adobe Illustrator 18.0.0, SVG Export Plug-In . SVG Version: 6.00 Build 0)  -->
<!DOCTYPE svg PUBLIC "-//W3C//DTD SVG 1.1//EN" "http://www.w3.org/Graphics/SVG/1.1/DTD/svg11.dtd">
<svg version="1.1" id="Layer_1" xmlns="http://www.w3.org/2000/svg" xmlns:xlink="http://www.w3.org/1999/xlink" x="0px" y="0px"
	 viewBox="0 0 48 48" enable-background="new 0 0 48 48" xml:space="preserve">
<g>
	<path fill="#294E58" d="M45.3,38.8l-1,1.4V4.4l1,1.3c0.3,0.4,0.9,0.5,1.3,0.2c0.4-0.3,0.5-0.9,0.2-1.3L44,0.9
		c-0.2-0.2-0.5-0.4-0.8-0.4c-0.3,0-0.6,0.2-0.8,0.4l-2.7,3.6c-0.3,0.4-0.2,1,0.2,1.3c0.2,0.1,0.4,0.2,0.6,0.2c0.3,0,0.6-0.1,0.8-0.4
		l1-1.4v35.8l-1-1.3c-0.3-0.4-0.9-0.5-1.3-0.2c-0.4,0.3-0.5,0.9-0.2,1.3l2.8,3.6c0.2,0.2,0.5,0.4,0.8,0.4c0,0,0,0,0,0
		c0.3,0,0.6-0.2,0.8-0.4l2.7-3.6c0.3-0.4,0.2-1-0.2-1.3C46.2,38.2,45.6,38.3,45.3,38.8z"/>
	<path fill="#CFD0D1" d="M3,38.9c0.1,0,0.1,0,0.2,0c4.7-2,12.9-2.1,15.3-2.1c2.4,0,10.6,0.2,15.3,2.1c0.2,0.1,0.4,0,0.5-0.1
		c0.1-0.1,0.2-0.3,0.1-0.5L19,2c-0.2-0.4-0.7-0.4-0.9,0L2.6,38.2c-0.1,0.2,0,0.4,0.1,0.5C2.8,38.8,2.9,38.9,3,38.9z"/>
	<path fill="#F7A93B" d="M18.5,38.6C9.8,38.6,1,40.1,1,43.1c0,2.9,8.8,4.4,17.5,4.4c8.7,0,17.5-1.5,17.5-4.4
		C36.1,40.1,27.3,38.6,18.5,38.6z"/>
</g>
</svg>
