<?xml version="1.0" encoding="utf-8"?>
<!-- Generator: Adobe Illustrator 18.0.0, SVG Export Plug-In . SVG Version: 6.00 Build 0)  -->
<!DOCTYPE svg PUBLIC "-//W3C//DTD SVG 1.1//EN" "http://www.w3.org/Graphics/SVG/1.1/DTD/svg11.dtd">
<svg version="1.1" id="Layer_1" xmlns="http://www.w3.org/2000/svg" xmlns:xlink="http://www.w3.org/1999/xlink" x="0px" y="0px"
	 viewBox="0 0 48 48" enable-background="new 0 0 48 48" xml:space="preserve">
<g>
	<circle fill="#0DB89A" cx="21.6" cy="2.9" r="2.4"/>
	<circle fill="#0DB89A" cx="29.9" cy="9.4" r="2.9"/>
	<path fill="#E77528" d="M40.6,15.3H7.4c-0.3,0-0.5,0.2-0.5,0.5v4.7c0,0.3,0.2,0.5,0.5,0.5h3.2v22.9c0,2,1.7,3.7,3.7,3.7h19.4
		c2,0,3.7-1.7,3.7-3.7V21h3.2c0.3,0,0.5-0.2,0.5-0.5v-4.7C41.1,15.5,40.9,15.3,40.6,15.3z M22.1,43.2h-7.8c-0.6,0-1-0.4-1-1
		c0-0.6,0.4-1,1-1h7.8c0.6,0,1,0.4,1,1C23.1,42.8,22.7,43.2,22.1,43.2z M22.1,33.5h-7.8c-0.6,0-1-0.4-1-1c0-0.6,0.4-1,1-1h7.8
		c0.6,0,1,0.4,1,1C23.1,33.1,22.7,33.5,22.1,33.5z M22.1,23.8h-7.8c-0.6,0-1-0.4-1-1c0-0.6,0.4-1,1-1h7.8c0.6,0,1,0.4,1,1
		C23.1,23.3,22.7,23.8,22.1,23.8z"/>
</g>
</svg>
