<?xml version="1.0" encoding="utf-8"?>
<!-- Generator: Adobe Illustrator 18.0.0, SVG Export Plug-In . SVG Version: 6.00 Build 0)  -->
<!DOCTYPE svg PUBLIC "-//W3C//DTD SVG 1.1//EN" "http://www.w3.org/Graphics/SVG/1.1/DTD/svg11.dtd">
<svg version="1.1" id="Layer_1" xmlns="http://www.w3.org/2000/svg" xmlns:xlink="http://www.w3.org/1999/xlink" x="0px" y="0px"
	 viewBox="0 0 48 48" enable-background="new 0 0 48 48" xml:space="preserve">
<g>
	<path fill="#06728D" d="M42.3,5.7c-3.4-3.4-7.8-5.2-12.6-5.2s-9.2,1.9-12.6,5.2c-6.4,6.4-6.9,16.4-1.5,23.4l-7.4,7.4l-3.6-3.6
		c-0.9-0.9-2.4-0.9-3.3,0s-0.9,2.4,0,3.3l3.6,3.6l-2.6,2.6c-0.9,0.9-0.9,2.4,0,3.3c0.5,0.5,1.1,0.7,1.7,0.7s1.2-0.2,1.7-0.7l2.6-2.6
		l3.6,3.6c0.5,0.5,1.1,0.7,1.7,0.7c0.6,0,1.2-0.2,1.7-0.7c0.9-0.9,0.9-2.4,0-3.3l-3.6-3.6l7.4-7.4c3.1,2.4,6.8,3.7,10.8,3.7
		c4.8,0,9.2-1.8,12.6-5.2s5.2-7.8,5.2-12.6C47.5,13.5,45.6,9.1,42.3,5.7z M29.8,31.4c-7.2,0-13-5.8-13-13s5.8-13,13-13s13,5.8,13,13
		S37,31.4,29.8,31.4z"/>
</g>
</svg>
