<?xml version="1.0" encoding="utf-8"?>
<!-- Generator: Adobe Illustrator 18.0.0, SVG Export Plug-In . SVG Version: 6.00 Build 0)  -->
<!DOCTYPE svg PUBLIC "-//W3C//DTD SVG 1.1//EN" "http://www.w3.org/Graphics/SVG/1.1/DTD/svg11.dtd">
<svg version="1.1" id="Layer_1" xmlns="http://www.w3.org/2000/svg" xmlns:xlink="http://www.w3.org/1999/xlink" x="0px" y="0px"
	 viewBox="0 0 48 48" enable-background="new 0 0 48 48" xml:space="preserve">
<g>
	<path fill="#F7A93B" d="M41.8,2.7c-0.1-0.7-0.6-1.2-1.3-1.3l-7.6-0.9c-0.8-0.1-1.5,0.5-1.6,1.3c-0.1,0.8,0.5,1.5,1.3,1.6l4.7,0.5
		l-5.5,5.5c-4.5-3.5-11-3.2-15.1,0.9c-0.1,0.1-0.2,0.2-0.3,0.4c0.2,0,0.4,0,0.5,0c1.1,0,2.2,0.2,3.3,0.4c3.3-2,7.7-1.6,10.5,1.2
		c1.6,1.6,2.5,3.8,2.5,6.1c0,2.3-0.9,4.4-2.5,6.1c-3.3,3.3-8.8,3.3-12.1,0c-1.9-1.9-2.8-4.5-2.4-7.1c-1.1,0.1-2,0.5-2.9,1
		c0,3,1.2,5.9,3.3,8.1c2.2,2.2,5.1,3.3,8.1,3.3c2.9,0,5.8-1.1,8.1-3.3c2.2-2.2,3.3-5,3.3-8.1c0-2.6-0.9-5-2.4-7L39.2,6l0.4,4.5
		c0.1,0.7,0.7,1.3,1.4,1.3c0,0,0.1,0,0.1,0c0.8-0.1,1.4-0.8,1.3-1.6L41.8,2.7z"/>
	<path fill="#F04B36" d="M21.9,31.3c-1.4,1-3.1,1.5-4.8,1.5c-4.8,0-8.7-3.9-8.7-8.7c0-4.8,3.9-8.7,8.7-8.7c4.8,0,8.7,3.9,8.7,8.7
		c0,0.2,0,0.4,0,0.6c0,0.1,0,0.2,0,0.3c1-0.1,2-0.5,2.8-1.1c-0.1-6.3-5.2-11.3-11.5-11.3c-6.4,0-11.6,5.2-11.6,11.5
		c0,5.9,4.4,10.7,10.1,11.5V41h-3.1c-0.8,0-1.4,0.6-1.4,1.4c0,0.8,0.6,1.4,1.4,1.4h3.1v2.2c0,0.8,0.6,1.4,1.4,1.4
		c0.8,0,1.4-0.6,1.4-1.4v-2.2h3.1c0.8,0,1.4-0.6,1.4-1.4c0-0.8-0.6-1.4-1.4-1.4h-3.1v-5.4c2.6-0.3,5-1.5,6.8-3.4
		c0.2-0.2,0.3-0.3,0.3-0.5c-0.3,0-0.5,0-0.8,0C23.8,31.7,22.8,31.6,21.9,31.3z"/>
</g>
</svg>
