<?xml version="1.0" encoding="utf-8"?>
<!-- Generator: Adobe Illustrator 18.0.0, SVG Export Plug-In . SVG Version: 6.00 Build 0)  -->
<!DOCTYPE svg PUBLIC "-//W3C//DTD SVG 1.1//EN" "http://www.w3.org/Graphics/SVG/1.1/DTD/svg11.dtd">
<svg version="1.1" id="Layer_1" xmlns="http://www.w3.org/2000/svg" xmlns:xlink="http://www.w3.org/1999/xlink" x="0px" y="0px"
	 viewBox="0 0 48 48" enable-background="new 0 0 48 48" xml:space="preserve">
<g>
	<path fill="#0DB89A" d="M29.8,29.1V6.6c0-3.4-2.6-6.1-5.8-6.1c-3.2,0-5.8,2.8-5.8,6.1v22.4c-2.7,1.9-4.3,5-4.3,8.3
		c0,5.6,4.5,10.1,10.1,10.1c5.6,0,10.1-4.5,10.1-10.1C34.1,34,32.5,31,29.8,29.1z M24,42.1c-2.7,0-4.9-2.2-4.9-4.9
		c0-2.4,1.7-4.3,3.9-4.8V6.6c0-0.5,0.4-1,1-1s1,0.4,1,1v25.8c2.2,0.5,3.9,2.4,3.9,4.8C28.9,39.9,26.7,42.1,24,42.1z"/>
</g>
</svg>
