<?xml version="1.0" encoding="utf-8"?>
<!-- Generator: Adobe Illustrator 18.0.0, SVG Export Plug-In . SVG Version: 6.00 Build 0)  -->
<!DOCTYPE svg PUBLIC "-//W3C//DTD SVG 1.1//EN" "http://www.w3.org/Graphics/SVG/1.1/DTD/svg11.dtd">
<svg version="1.1" id="Layer_1" xmlns="http://www.w3.org/2000/svg" xmlns:xlink="http://www.w3.org/1999/xlink" x="0px" y="0px"
	 viewBox="0 0 48 48" enable-background="new 0 0 48 48" xml:space="preserve">
<g>
	<path fill="#4DA0D8" d="M41.5,1c-0.2-0.3-0.5-0.5-0.8-0.5H7.4C7,0.5,6.7,0.7,6.5,1c-0.2,0.3-0.2,0.7,0,1l13.3,24.4v20.2
		c0,0.4,0.2,0.7,0.6,0.9c0.1,0.1,0.3,0.1,0.4,0.1c0.2,0,0.5-0.1,0.7-0.3l5.8-5.6c0.2-0.2,0.3-0.4,0.3-0.7V25.1L41.5,2
		C41.7,1.7,41.7,1.3,41.5,1z"/>
</g>
</svg>
