<?xml version="1.0" encoding="utf-8"?>
<!-- Generator: Adobe Illustrator 18.0.0, SVG Export Plug-In . SVG Version: 6.00 Build 0)  -->
<!DOCTYPE svg PUBLIC "-//W3C//DTD SVG 1.1//EN" "http://www.w3.org/Graphics/SVG/1.1/DTD/svg11.dtd">
<svg version="1.1" id="Layer_1" xmlns="http://www.w3.org/2000/svg" xmlns:xlink="http://www.w3.org/1999/xlink" x="0px" y="0px"
	 viewBox="0 0 48 48" enable-background="new 0 0 48 48" xml:space="preserve">
<g>
	<path fill="#F04B36" d="M21.8,7.2h-8.7L18.8,3c0.4-0.3,0.5-0.9,0.2-1.4c-0.3-0.4-0.9-0.5-1.4-0.2l-6.7,4.9L6,0.8
		C5.7,0.4,5,0.4,4.6,0.7c-0.4,0.4-0.4,1-0.1,1.4l4.5,5H4.7c-2.2,0-4,1.8-4,4v11.3c0,2.2,1.8,4,4,4h2.7v0.9h2v-0.9h12.4
		c2.2,0,4-1.8,4-4V11.1C25.8,8.9,24,7.2,21.8,7.2z"/>
	<path fill="#06728D" d="M45.8,25.6H34c-0.8,0-1.5,0.7-1.5,1.6v14.6h-0.8v2h0.8v2.3c0,0.9,0.7,1.6,1.5,1.6h11.8
		c0.8,0,1.5-0.7,1.5-1.6V27.1C47.3,26.3,46.6,25.6,45.8,25.6z M36.5,29.4h6.7v5h-6.7V29.4z M37.7,44.8h-0.9c-0.5,0-1-0.4-1-1
		c0-0.5,0.4-1,1-1h0.9c0.5,0,1,0.4,1,1C38.6,44.3,38.2,44.8,37.7,44.8z M37.7,39.7h-0.9c-0.5,0-1-0.4-1-1c0-0.5,0.4-1,1-1h0.9
		c0.5,0,1,0.4,1,1C38.6,39.3,38.2,39.7,37.7,39.7z M43,44.8h-0.9c-0.5,0-1-0.4-1-1c0-0.5,0.4-1,1-1H43c0.5,0,1,0.4,1,1
		C44,44.3,43.6,44.8,43,44.8z M43,39.7h-0.9c-0.5,0-1-0.4-1-1c0-0.5,0.4-1,1-1H43c0.5,0,1,0.4,1,1C44,39.3,43.6,39.7,43,39.7z"/>
	<rect x="26" y="11" fill="#F7A93B" width="1" height="2"/>
	<rect x="33.8" y="11" fill="#F7A93B" width="2.3" height="2"/>
	<rect x="29.2" y="11" fill="#F7A93B" width="2.3" height="2"/>
	<path fill="#F7A93B" d="M40.4,12c0-0.5-0.4-1-1-1h-1v2h2V12z"/>
	<rect x="38.4" y="19.7" fill="#F7A93B" width="2" height="2.2"/>
	<rect x="38.4" y="15.2" fill="#F7A93B" width="2" height="2.2"/>
	<rect x="38.4" y="24.2" fill="#F7A93B" width="2" height="1"/>
	<rect x="19.5" y="41.7" fill="#F7A93B" width="2" height="2"/>
	<rect x="23.6" y="41.7" fill="#F7A93B" width="2" height="2"/>
	<rect x="11.4" y="41.7" fill="#F7A93B" width="2" height="2"/>
	<rect x="27.6" y="41.7" fill="#F7A93B" width="2" height="2"/>
	<rect x="15.5" y="41.7" fill="#F7A93B" width="2" height="2"/>
	<path fill="#F7A93B" d="M7.4,42.7c0,0.5,0.4,1,1,1h1v-2h-2V42.7z"/>
	<rect x="7.4" y="29.3" fill="#F7A93B" width="2" height="2.1"/>
	<rect x="7.4" y="33.5" fill="#F7A93B" width="2" height="2.1"/>
	<rect x="7.4" y="37.6" fill="#F7A93B" width="2" height="2.1"/>
</g>
</svg>
