<?xml version="1.0" encoding="utf-8"?>
<!-- Generator: Adobe Illustrator 18.0.0, SVG Export Plug-In . SVG Version: 6.00 Build 0)  -->
<!DOCTYPE svg PUBLIC "-//W3C//DTD SVG 1.1//EN" "http://www.w3.org/Graphics/SVG/1.1/DTD/svg11.dtd">
<svg version="1.1" id="Layer_1" xmlns="http://www.w3.org/2000/svg" xmlns:xlink="http://www.w3.org/1999/xlink" x="0px" y="0px"
	 viewBox="0 0 48 48" enable-background="new 0 0 48 48" xml:space="preserve">
<g>
	<circle fill="none" cx="8.4" cy="20.1" r="2.9"/>
	<circle fill="none" cx="8.4" cy="33" r="2.9"/>
	<circle fill="none" cx="30" cy="28.4" r="11.9"/>
	<path fill="#0DB89A" d="M8.2,3C7.7,2.9,7.1,3.2,7,3.7C6.8,4.3,7.1,4.8,7.7,5l24.8,6.8h7.6L8.2,3z"/>
	<path fill="#CFD0D1" d="M43.5,11.8h-3.3h-7.6h-0.7H4.5c-2.2,0-4,1.8-4,4V41c0,2.2,1.8,4,4,4h38.9c2.2,0,4-1.8,4-4V15.8
		C47.5,13.6,45.7,11.8,43.5,11.8z M8.4,36c-1.6,0-2.9-1.3-2.9-2.9c0-1.6,1.3-2.9,2.9-2.9c1.6,0,2.9,1.3,2.9,2.9
		C11.4,34.7,10,36,8.4,36z M8.4,23c-1.6,0-2.9-1.3-2.9-2.9c0-1.6,1.3-2.9,2.9-2.9c1.6,0,2.9,1.3,2.9,2.9C11.4,21.7,10,23,8.4,23z
		 M30,40.2c-6.5,0-11.9-5.3-11.9-11.9c0-6.5,5.3-11.9,11.9-11.9c6.5,0,11.9,5.3,11.9,11.9C41.8,34.9,36.5,40.2,30,40.2z"/>
</g>
</svg>
