<?xml version="1.0" encoding="utf-8"?>
<!-- Generator: Adobe Illustrator 18.0.0, SVG Export Plug-In . SVG Version: 6.00 Build 0)  -->
<!DOCTYPE svg PUBLIC "-//W3C//DTD SVG 1.1//EN" "http://www.w3.org/Graphics/SVG/1.1/DTD/svg11.dtd">
<svg version="1.1" id="Layer_1" xmlns="http://www.w3.org/2000/svg" xmlns:xlink="http://www.w3.org/1999/xlink" x="0px" y="0px"
	 viewBox="0 0 48 48" enable-background="new 0 0 48 48" xml:space="preserve">
<g>
	<path fill="#F04B36" d="M35.9,18.5c0-7-3.5-13.7-9.2-17.8c-0.4-0.3-1-0.2-1.3,0.2L13.5,17.1l-10.6-8c-0.4-0.3-1-0.2-1.4,0.2
		c-0.3,0.4-0.2,1,0.2,1.4l10.6,8L0.7,34.5c-0.3,0.4-0.2,1,0.2,1.3c3.8,2.9,8.4,4.4,13.2,4.4C26.1,40.2,35.9,30.5,35.9,18.5z"/>
	<path fill="#4DA0D8" d="M47.3,46l-8.4-12.2c-0.2-0.2-0.4-0.4-0.7-0.4c-0.3,0-0.5,0-0.8,0.2L23.3,45.8c-0.3,0.3-0.4,0.7-0.3,1.1
		c0.1,0.4,0.5,0.6,0.9,0.6h22.6c0.4,0,0.7-0.2,0.9-0.5C47.6,46.7,47.5,46.3,47.3,46z"/>
</g>
</svg>
