<?xml version="1.0" encoding="utf-8"?>
<!-- Generator: Adobe Illustrator 18.0.0, SVG Export Plug-In . SVG Version: 6.00 Build 0)  -->
<!DOCTYPE svg PUBLIC "-//W3C//DTD SVG 1.1//EN" "http://www.w3.org/Graphics/SVG/1.1/DTD/svg11.dtd">
<svg version="1.1" id="Layer_1" xmlns="http://www.w3.org/2000/svg" xmlns:xlink="http://www.w3.org/1999/xlink" x="0px" y="0px"
	 viewBox="0 0 48 48" enable-background="new 0 0 48 48" xml:space="preserve">
<g>
	<path fill="#E77528" d="M27.2,6.7c0.7-0.1,1.5-0.1,2.2,0c0,0,0.1,0,0.1,0c-1.9-4-6.3-6.5-11-6.2c-2.3,0.2-4.4,1.1-6.4,2.1
		c-0.6,0.3-1.1,0.5-1.7,0.8c-2.2,1-3.5,2.5-4.7,4C5.2,8.1,4.6,8.9,3.9,9.6c-0.4,0.4-0.4,1,0,1.4c0.2,0.2,0.5,0.3,0.7,0.3
		c0.2,0,0.5-0.1,0.7-0.3C6,10.2,6.7,9.4,7.3,8.7c1.1-1.4,2.2-2.7,4-3.5c0.6-0.3,1.2-0.5,1.7-0.8c1.9-0.9,3.7-1.8,5.7-1.9
		C22.1,2.2,25.4,3.9,27.2,6.7z"/>
	<path fill="#CFD0D1" d="M27.4,21.2c-1.3-0.5-2.2-2.3-2.2-4.5c0-2.2,0.9-4,2.2-4.5V7.1c0,0,0,0,0-0.1c-0.1-0.1-0.2-0.2-0.2-0.4
		c-7.6,0.6-13.8,7.8-15,17h15.3V21.2z"/>
	<path fill="#0DB89A" d="M29.5,6.8c0.2,0.4,0.1,0.8-0.1,1.1v4.6c1.1,0.7,1.8,2.3,1.8,4.3s-0.7,3.6-1.8,4.3v2.7h14.9
		C43,14.6,37,7.5,29.5,6.8C29.5,6.7,29.5,6.7,29.5,6.8z"/>
	<path fill="#06728D" d="M11.9,25.7c0,0.5-0.1,0.9-0.1,1.4c0,11.3,7.3,20.4,16.3,20.4c9,0,16.3-9.2,16.3-20.4c0-0.5,0-0.9-0.1-1.4
		H11.9z"/>
	<path fill="#F04B36" d="M28,19.3c0.1,0,0.2-0.1,0.4-0.1c0,0,0,0,0,0c0.3-0.3,0.8-1.2,0.8-2.6c0-1.7-0.7-2.7-1-2.7
		c-0.3,0-1,0.9-1,2.7C27.2,18.2,27.7,19.1,28,19.3z"/>
</g>
</svg>
