<?xml version="1.0" encoding="utf-8"?>
<!-- Generator: Adobe Illustrator 18.0.0, SVG Export Plug-In . SVG Version: 6.00 Build 0)  -->
<!DOCTYPE svg PUBLIC "-//W3C//DTD SVG 1.1//EN" "http://www.w3.org/Graphics/SVG/1.1/DTD/svg11.dtd">
<svg version="1.1" id="Layer_1" xmlns="http://www.w3.org/2000/svg" xmlns:xlink="http://www.w3.org/1999/xlink" x="0px" y="0px"
	 viewBox="0 0 48 48" enable-background="new 0 0 48 48" xml:space="preserve">
<g>
	<path fill="#E8B944" d="M32.8,15.8V7.1c2.1-0.1,3.9-1.5,3.9-3.3c0-1.8-1.8-3.3-4-3.3H20.2c-2.2,0-4,1.5-4,3.3
		c0,1.8,1.7,3.2,3.9,3.3v8.7c-0.8,0.3-1.5,0.7-2.3,1.2L10.7,7c-0.1-0.2-0.4-0.4-0.6-0.4c-0.3,0-0.5,0-0.7,0.2L5.5,9.5
		C5,9.8,4.9,10.5,5.3,10.9l7.6,10.7c-1.9,2.8-2.9,6-2.9,9.4c0,9.1,7.4,16.5,16.5,16.5c9.1,0,16.5-7.4,16.5-16.5
		C42.9,24.4,38.9,18.3,32.8,15.8z"/>
</g>
</svg>
