<?xml version="1.0" encoding="utf-8"?>
<!-- Generator: Adobe Illustrator 18.0.0, SVG Export Plug-In . SVG Version: 6.00 Build 0)  -->
<!DOCTYPE svg PUBLIC "-//W3C//DTD SVG 1.1//EN" "http://www.w3.org/Graphics/SVG/1.1/DTD/svg11.dtd">
<svg version="1.1" id="Layer_1" xmlns="http://www.w3.org/2000/svg" xmlns:xlink="http://www.w3.org/1999/xlink" x="0px" y="0px"
	 viewBox="0 0 48 48" enable-background="new 0 0 48 48" xml:space="preserve">
<g>
	<path fill="#06728D" d="M43.4,42.2l-8.3-13H12.9l-8.3,13c-0.8,1.3-1,2.6-0.4,3.7c0.6,1,1.7,1.6,3.3,1.6h33c1.6,0,2.7-0.6,3.3-1.6
		C44.4,44.8,44.2,43.5,43.4,42.2z"/>
	<path fill="#CFD0D1" d="M30.6,22.1V7.2h0.1c1.9,0,3.5-1.5,3.5-3.4c0-1.9-1.6-3.4-3.5-3.4H17.3c-1.9,0-3.5,1.5-3.5,3.4
		c0,1.9,1.6,3.4,3.5,3.4h0.1v14.9l-4.5,7.1h22.3L30.6,22.1z"/>
</g>
</svg>
