<?xml version="1.0" encoding="utf-8"?>
<!-- Generator: Adobe Illustrator 18.0.0, SVG Export Plug-In . SVG Version: 6.00 Build 0)  -->
<!DOCTYPE svg PUBLIC "-//W3C//DTD SVG 1.1//EN" "http://www.w3.org/Graphics/SVG/1.1/DTD/svg11.dtd">
<svg version="1.1" id="Layer_1" xmlns="http://www.w3.org/2000/svg" xmlns:xlink="http://www.w3.org/1999/xlink" x="0px" y="0px"
	 viewBox="0 0 48 48" enable-background="new 0 0 48 48" xml:space="preserve">
<g>
	<circle fill="#E77528" cx="41" cy="8.3" r="0.6"/>
	<circle fill="#E77528" cx="38.4" cy="11.1" r="0.9"/>
	<circle fill="#F04B36" cx="10.7" cy="8.3" r="0.6"/>
	<circle fill="#F04B36" cx="8.9" cy="11.1" r="0.9"/>
	<circle fill="none" cx="39" cy="34.8" r="0.9"/>
	<circle fill="none" cx="39.8" cy="29.7" r="0.6"/>
	<circle fill="none" cx="8" cy="34.8" r="0.9"/>
	<circle fill="none" cx="8.8" cy="29.7" r="0.6"/>
	<path fill="#0DB89A" d="M12.9,15.8v-0.1c0-1.1-0.8-1.9-1.7-1.9H6.4c-1,0-1.7,0.9-1.7,1.9v0.1c0,0.8,0.5,1.5,1.2,1.8v6.5L1.5,37.5
		c-0.5,0.8-0.6,1.6-0.3,2.3c0.3,0.6,1,0.9,1.8,0.9h11.6c0.8,0,1.5-0.3,1.8-0.9c0.3-0.6,0.2-1.4-0.3-2.3l-4.4-13.4v-4.7l0.3-1.9
		C12.5,17.1,12.9,16.5,12.9,15.8z M8,35.7c-0.5,0-0.9-0.4-0.9-0.9c0-0.5,0.4-0.9,0.9-0.9c0.5,0,0.9,0.4,0.9,0.9
		C8.9,35.3,8.5,35.7,8,35.7z M8.8,30.2c-0.3,0-0.6-0.2-0.6-0.6c0-0.3,0.2-0.6,0.6-0.6c0.3,0,0.6,0.2,0.6,0.6
		C9.4,30,9.1,30.2,8.8,30.2z"/>
	<path fill="#06728D" d="M46.5,45.6H25V19.3h11.3L36,17.4H25V1.5c0-0.5-0.4-1-1-1s-1,0.4-1,1v15.9H12l-0.3,1.9H23v26.2H1.5
		c-0.5,0-1,0.4-1,1c0,0.5,0.4,1,1,1h45.1c0.5,0,1-0.4,1-1C47.5,46,47.1,45.6,46.5,45.6z"/>
	<path fill="#4DA0D8" d="M36.3,24.1l-4.4,13.4c-0.5,0.8-0.6,1.6-0.3,2.3c0.3,0.6,1,0.9,1.8,0.9H45c0.8,0,1.5-0.3,1.8-0.9
		c0.3-0.6,0.2-1.4-0.3-2.3l-4.4-13.4v-6.5c0.7-0.3,1.2-1,1.2-1.8v-0.1c0-1.1-0.8-1.9-1.7-1.9h-4.7c-1,0-1.7,0.9-1.7,1.9v0.1
		c0,0.7,0.3,1.3,0.9,1.6l0.3,1.9V24.1z M39.8,29.1c0.3,0,0.6,0.2,0.6,0.6c0,0.3-0.2,0.6-0.6,0.6c-0.3,0-0.6-0.2-0.6-0.6
		C39.2,29.4,39.5,29.1,39.8,29.1z M39,33.9c0.5,0,0.9,0.4,0.9,0.9c0,0.5-0.4,0.9-0.9,0.9c-0.5,0-0.9-0.4-0.9-0.9
		C38.1,34.3,38.5,33.9,39,33.9z"/>
</g>
</svg>
