<?xml version="1.0" encoding="utf-8"?>
<!-- Generator: Adobe Illustrator 18.0.0, SVG Export Plug-In . SVG Version: 6.00 Build 0)  -->
<!DOCTYPE svg PUBLIC "-//W3C//DTD SVG 1.1//EN" "http://www.w3.org/Graphics/SVG/1.1/DTD/svg11.dtd">
<svg version="1.1" id="Layer_1" xmlns="http://www.w3.org/2000/svg" xmlns:xlink="http://www.w3.org/1999/xlink" x="0px" y="0px"
	 viewBox="0 0 48 48" enable-background="new 0 0 48 48" xml:space="preserve">
<g>
	<path fill="#F7A93B" d="M35,5.1C32,2,28.3,0.5,23.3,0.5l-0.3,0c-2.8,0-5.6,0.7-7.9,1.9c-1.9,1-3.4,2.3-4.6,4.1
		c-0.1,0.1-0.3,0.2-0.4,0.3C9.9,7.3,9.6,8.2,11,11.3c4.5,10.4,1.1,30.2,1.1,30.4c0,0,0,0.1,0,0.1c0.5,3.9,4.7,5.7,8.4,5.7
		c3.5,0,6.4-1.5,7.5-3.9c1.2-2.7,1.3-5.5,1.5-8.2c0.2-3.2,0.3-6.3,2.1-9.1c0.7-1.1,1.5-2.1,2.2-3c1.5-1.9,2.9-3.6,3.7-6
		C38.8,13.5,37.7,7.9,35,5.1z M17.9,34c-0.5,1-1.1,2-1.3,3c-0.1,0.4-0.5,0.7-1,0.7c-0.1,0-0.2,0-0.3,0c-0.5-0.1-0.8-0.7-0.7-1.2
		c0.3-1.2,0.9-2.3,1.5-3.4c0.9-1.7,1.7-3.2,1.5-4.9c-0.2-1.8-0.9-3.4-1.6-5.1c-0.4-1-0.9-2.1-1.2-3.2c-0.2-0.5,0.1-1.1,0.6-1.2
		c0.5-0.2,1.1,0.1,1.2,0.6c0.3,1,0.7,2,1.2,3c0.8,1.8,1.6,3.7,1.8,5.7C19.9,30.3,18.9,32.2,17.9,34z M31.3,18.7
		c-1.4,2.2-4.9,5.6-7.8,6.1c-0.1,0-0.1,0-0.2,0c-0.5,0-0.9-0.3-1-0.8c-0.1-0.5,0.3-1.1,0.8-1.1c2.1-0.4,5.3-3.4,6.4-5.2
		c1.1-1.8,1.5-4.2,0.9-6.3c-0.5-1.8-2-3.1-3.7-3.2c-3.4-0.2-5.7,0.4-6.9,1.7c-0.4,0.4-1,0.5-1.4,0.1c-0.4-0.4-0.5-1-0.1-1.4
		C20.2,6.7,23,5.9,27,6.2c2.5,0.2,4.7,2,5.4,4.7C33.2,13.5,32.8,16.4,31.3,18.7z"/>
</g>
</svg>
