<?xml version="1.0" encoding="utf-8"?>
<!-- Generator: Adobe Illustrator 18.0.0, SVG Export Plug-In . SVG Version: 6.00 Build 0)  -->
<!DOCTYPE svg PUBLIC "-//W3C//DTD SVG 1.1//EN" "http://www.w3.org/Graphics/SVG/1.1/DTD/svg11.dtd">
<svg version="1.1" id="Layer_1" xmlns="http://www.w3.org/2000/svg" xmlns:xlink="http://www.w3.org/1999/xlink" x="0px" y="0px"
	 viewBox="0 0 48 48" enable-background="new 0 0 48 48" xml:space="preserve">
<g>
	<path fill="#CFD0D1" d="M25,6.9V1.5c0-0.5-0.4-1-1-1s-1,0.4-1,1v5.4c-9.5,0.5-17.1,8.4-17.1,18c0,6.8,3.8,12.7,9.3,15.8l-2.5,5.4
		c-0.2,0.5,0,1.1,0.5,1.3c0.1,0.1,0.3,0.1,0.4,0.1c0.4,0,0.7-0.2,0.9-0.6l2.5-5.4c2.2,0.9,4.5,1.4,7,1.4c2.5,0,4.8-0.5,7-1.4
		l2.5,5.4c0.2,0.4,0.5,0.6,0.9,0.6c0.1,0,0.3,0,0.4-0.1c0.5-0.2,0.7-0.8,0.5-1.3l-2.5-5.4c5.6-3.1,9.3-9,9.3-15.8
		C42.1,15.3,34.5,7.4,25,6.9z M33,25.9h-9c-0.5,0-1-0.4-1-1V10.2c0-0.5,0.4-1,1-1s1,0.4,1,1v13.7H33c0.5,0,1,0.4,1,1
		C34,25.4,33.6,25.9,33,25.9z"/>
	<path fill="#F7A93B" d="M17.6,4.6c0-0.1,0-0.3-0.1-0.4C16,2.2,13.6,1,11.1,1C9.5,1,7.9,1.5,6.5,2.5C4.8,3.7,3.7,5.5,3.4,7.6
		c-0.3,2.1,0.2,4.1,1.4,5.8c0.1,0.1,0.2,0.2,0.4,0.2c0.1,0,0.2,0,0.3-0.1l11.9-8.7C17.5,4.8,17.5,4.7,17.6,4.6z"/>
	<path fill="#F7A93B" d="M44.6,7.6c-0.3-2.1-1.4-3.9-3.1-5.1c-1.4-1-2.9-1.5-4.6-1.5c-2.5,0-4.9,1.2-6.3,3.2
		c-0.1,0.1-0.1,0.2-0.1,0.4c0,0.1,0.1,0.2,0.2,0.3l11.9,8.7c0.1,0.1,0.2,0.1,0.3,0.1c0.2,0,0.3-0.1,0.4-0.2
		C44.4,11.8,44.9,9.7,44.6,7.6z"/>
</g>
</svg>
