<?xml version="1.0" encoding="utf-8"?>
<!-- Generator: Adobe Illustrator 18.0.0, SVG Export Plug-In . SVG Version: 6.00 Build 0)  -->
<!DOCTYPE svg PUBLIC "-//W3C//DTD SVG 1.1//EN" "http://www.w3.org/Graphics/SVG/1.1/DTD/svg11.dtd">
<svg version="1.1" id="Layer_1" xmlns="http://www.w3.org/2000/svg" xmlns:xlink="http://www.w3.org/1999/xlink" x="0px" y="0px"
	 viewBox="0 0 48 48" enable-background="new 0 0 48 48" xml:space="preserve">
<g>
	<circle fill="#F04B36" cx="26.8" cy="2.2" r="0.7"/>
	<circle fill="#F04B36" cx="22.3" cy="3.3" r="1.1"/>
	<rect x="20.9" y="7.6" fill="none" width="6.3" height="5.4"/>
	<circle fill="none" cx="23.1" cy="23.1" r="0.7"/>
	<circle fill="none" cx="28.7" cy="27.7" r="1.1"/>
	<circle fill="none" cx="21.8" cy="31.4" r="2.2"/>
	<path fill="#06728D" d="M18.9,20.5c-3.8,1.9-6.2,5.8-6.2,10.1c0,6.2,5.1,11.3,11.3,11.3c6.2,0,11.3-5.1,11.3-11.3
		c0-4.3-2.4-8.2-6.2-10.1V15V13V7.6h2.5c0.5,0,1-0.4,1-1c0-0.5-0.4-1-1-1h-3.4h-8.2h-3.4c-0.5,0-1,0.4-1,1c0,0.5,0.4,1,1,1h2.5V13
		V15V20.5z M28.7,26.6c0.6,0,1.1,0.5,1.1,1.1c0,0.6-0.5,1.1-1.1,1.1c-0.6,0-1.1-0.5-1.1-1.1C27.6,27.1,28.1,26.6,28.7,26.6z
		 M20.9,7.6h6.3V13h-6.3V7.6z M23.8,23.1c0,0.4-0.3,0.7-0.7,0.7c-0.4,0-0.7-0.3-0.7-0.7c0-0.4,0.3-0.7,0.7-0.7
		C23.5,22.4,23.8,22.7,23.8,23.1z M21.8,29.2c1.2,0,2.2,1,2.2,2.2c0,1.2-1,2.2-2.2,2.2c-1.2,0-2.2-1-2.2-2.2
		C19.5,30.2,20.5,29.2,21.8,29.2z"/>
	<path fill="#F7A93B" d="M46.5,45.6h-3.7V1.5c0-0.5-0.4-1-1-1c-0.5,0-1,0.4-1,1V13H29.1V15h11.8v30.6H7.1V15h11.8V13H7.1V1.5
		c0-0.5-0.4-1-1-1c-0.5,0-1,0.4-1,1v44.1H1.5c-0.5,0-1,0.4-1,1c0,0.5,0.4,1,1,1h45.1c0.5,0,1-0.4,1-1C47.5,46,47.1,45.6,46.5,45.6z"
		/>
</g>
</svg>
