<?xml version="1.0" encoding="utf-8"?>
<!-- Generator: Adobe Illustrator 18.0.0, SVG Export Plug-In . SVG Version: 6.00 Build 0)  -->
<!DOCTYPE svg PUBLIC "-//W3C//DTD SVG 1.1//EN" "http://www.w3.org/Graphics/SVG/1.1/DTD/svg11.dtd">
<svg version="1.1" id="Layer_1" xmlns="http://www.w3.org/2000/svg" xmlns:xlink="http://www.w3.org/1999/xlink" x="0px" y="0px"
	 viewBox="0 0 48 48" enable-background="new 0 0 48 48" xml:space="preserve">
<g>
	<path fill="#E77528" d="M17.7,22.7c0,3.5,2.8,6.3,6.3,6.3s6.3-2.8,6.3-6.3c0-3.5-2.8-6.3-6.3-6.3S17.7,19.2,17.7,22.7z"/>
	<path fill="#F04B36" d="M36.6,2.8c-0.4-0.3-1-0.2-1.3,0.2l-6.2,8.5c-0.2,0.2-0.2,0.5-0.2,0.8c0.1,0.3,0.2,0.5,0.5,0.6
		c3.5,2,5.7,5.7,5.7,9.7c0,0.4,0,0.8-0.1,1.4c0,0.3,0.1,0.6,0.2,0.8c0.2,0.2,0.4,0.3,0.7,0.3h10.5c0.5,0,0.9-0.4,1-0.9
		c0-0.5,0.1-1,0.1-1.5C47.5,14.6,43.4,7.1,36.6,2.8z"/>
	<path fill="#06728D" d="M13,24c-0.1-0.5-0.1-0.9-0.1-1.4c0-4.3,2.6-8.3,6.5-10.1c0.3-0.1,0.4-0.3,0.5-0.6c0.1-0.3,0-0.6-0.1-0.8
		l-5.7-8.9c-0.3-0.4-0.8-0.6-1.3-0.3C5.2,6.1,0.5,14,0.5,22.7c0,0.5,0,1,0.1,1.5c0,0.5,0.5,0.9,1,0.9H12c0.3,0,0.5-0.1,0.7-0.3
		C13,24.6,13,24.3,13,24z"/>
	<path fill="#4DA0D8" d="M31.6,32.1c-0.1-0.2-0.4-0.4-0.6-0.4c-0.3-0.1-0.5,0-0.8,0.1c-1.8,1.3-4,1.9-6.2,1.9
		c-1.9,0-3.8-0.5-5.4-1.4c-0.2-0.1-0.5-0.2-0.7-0.1c-0.3,0.1-0.5,0.2-0.6,0.5l-4.9,9.2c-0.2,0.5-0.1,1,0.4,1.3
		c3.5,1.9,7.4,2.9,11.3,2.9c4.5,0,8.9-1.3,12.7-3.7c0.4-0.3,0.6-0.9,0.3-1.3L31.6,32.1z"/>
</g>
</svg>
