<?xml version="1.0" encoding="utf-8"?>
<!-- Generator: Adobe Illustrator 18.0.0, SVG Export Plug-In . SVG Version: 6.00 Build 0)  -->
<!DOCTYPE svg PUBLIC "-//W3C//DTD SVG 1.1//EN" "http://www.w3.org/Graphics/SVG/1.1/DTD/svg11.dtd">
<svg version="1.1" id="Layer_1" xmlns="http://www.w3.org/2000/svg" xmlns:xlink="http://www.w3.org/1999/xlink" x="0px" y="0px"
	 viewBox="0 0 48 48" enable-background="new 0 0 48 48" xml:space="preserve">
<g>
	<ellipse fill="#E77528" cx="10.8" cy="12.8" rx="1.3" ry="1.3"/>
	<ellipse fill="#E77528" cx="7.5" cy="9.3" rx="0.8" ry="0.8"/>
	<ellipse fill="#E77528" cx="11.6" cy="6.6" rx="0.6" ry="0.6"/>
	<path fill="#F04B36" d="M37.5,9.3c0.7,0,1.3-0.6,1.3-1.3c0-0.7-0.6-1.3-1.3-1.3c-0.7,0-1.3,0.6-1.3,1.3C36.2,8.7,36.7,9.3,37.5,9.3
		z"/>
	<ellipse fill="#F04B36" cx="34.2" cy="4.4" rx="0.8" ry="0.8"/>
	<ellipse fill="#F04B36" cx="38.3" cy="1.8" rx="0.6" ry="0.6"/>
	<path fill="#0DB89A" d="M15.3,18.4h1c0.5,0,1-0.4,1-1c0-0.5-0.4-1-1-1h-2H7.5h-2c-0.5,0-1,0.4-1,1c0,0.5,0.4,1,1,1h1v21.2
		c0,2.6,2,4.8,4.4,4.8c2.4,0,4.4-2.2,4.4-4.8V25V23V18.4z"/>
	<path fill="#06728D" d="M46.5,45.3H25V18.4h8v-1.9h-8V1.7c0-0.5-0.4-1-1-1s-1,0.4-1,1V23h-7.7V25H23v20.3H1.5c-0.5,0-1,0.4-1,1
		c0,0.5,0.4,1,1,1h45.1c0.5,0,1-0.4,1-1C47.5,45.7,47.1,45.3,46.5,45.3z"/>
	<path fill="#4DA0D8" d="M33,34.4c0,2.6,2,4.8,4.4,4.8c2.4,0,4.4-2.2,4.4-4.8V13.3h1c0.5,0,1-0.4,1-1c0-0.5-0.4-1-1-1h-2H34h-2
		c-0.5,0-1,0.4-1,1c0,0.5,0.4,1,1,1h1v3.2v1.9V34.4z"/>
</g>
</svg>
