<?xml version="1.0" encoding="utf-8"?>
<!-- Generator: Adobe Illustrator 18.0.0, SVG Export Plug-In . SVG Version: 6.00 Build 0)  -->
<!DOCTYPE svg PUBLIC "-//W3C//DTD SVG 1.1//EN" "http://www.w3.org/Graphics/SVG/1.1/DTD/svg11.dtd">
<svg version="1.1" id="Layer_1" xmlns="http://www.w3.org/2000/svg" xmlns:xlink="http://www.w3.org/1999/xlink" x="0px" y="0px"
	 viewBox="0 0 48 48" enable-background="new 0 0 48 48" xml:space="preserve">
<g>
	<path fill="#06728D" d="M6.3,44.1h7.8c1.6,0,2.9-1.3,2.9-2.8V11.4c0-1.5-1.3-2.8-2.9-2.8H6.3c-1.6,0-2.9,1.3-2.9,2.8v29.9
		C3.4,42.8,4.7,44.1,6.3,44.1z"/>
	<path fill="#CFD0D1" d="M44.8,14.3h-2.7V1.5c0-0.6-0.5-1-1-1c-0.6,0-1,0.5-1,1v12.8H18.5v26.9c0,2.4-2,4.3-4.5,4.3H6.3
		c-2.5,0-4.5-1.9-4.5-4.3V14.7c-0.8,0.4-1.4,1.3-1.4,2.2V45c0,1.4,1.2,2.5,2.7,2.5h41.6c1.5,0,2.7-1.1,2.7-2.5V16.9
		C47.5,15.5,46.3,14.3,44.8,14.3z M28.1,44.5h-3.4c-0.6,0-1-0.5-1-1c0-0.6,0.5-1,1-1h3.4c0.6,0,1,0.5,1,1
		C29.1,44,28.7,44.5,28.1,44.5z M28.1,38.5h-3.4c-0.6,0-1-0.5-1-1c0-0.6,0.5-1,1-1h3.4c0.6,0,1,0.5,1,1C29.1,38,28.7,38.5,28.1,38.5
		z M28.1,32.5h-3.4c-0.6,0-1-0.5-1-1c0-0.6,0.5-1,1-1h3.4c0.6,0,1,0.5,1,1C29.1,32,28.7,32.5,28.1,32.5z M37.6,44.5h-3.4
		c-0.6,0-1-0.5-1-1c0-0.6,0.5-1,1-1h3.4c0.6,0,1,0.5,1,1C38.6,44,38.2,44.5,37.6,44.5z M37.6,38.5h-3.4c-0.6,0-1-0.5-1-1
		c0-0.6,0.5-1,1-1h3.4c0.6,0,1,0.5,1,1C38.6,38,38.2,38.5,37.6,38.5z M37.6,32.5h-3.4c-0.6,0-1-0.5-1-1c0-0.6,0.5-1,1-1h3.4
		c0.6,0,1,0.5,1,1C38.6,32,38.2,32.5,37.6,32.5z M42.9,26H20.8v-8.1h22.1V26z"/>
</g>
</svg>
