<?xml version="1.0" encoding="utf-8"?>
<!-- Generator: Adobe Illustrator 18.0.0, SVG Export Plug-In . SVG Version: 6.00 Build 0)  -->
<!DOCTYPE svg PUBLIC "-//W3C//DTD SVG 1.1//EN" "http://www.w3.org/Graphics/SVG/1.1/DTD/svg11.dtd">
<svg version="1.1" id="Layer_1" xmlns="http://www.w3.org/2000/svg" xmlns:xlink="http://www.w3.org/1999/xlink" x="0px" y="0px"
	 viewBox="0 0 48 48" enable-background="new 0 0 48 48" xml:space="preserve">
<g>
	<path fill="#06728D" d="M37.1,41.4v-0.8l2.6-0.7v-5.4l-3.5-2.6V19.4v-2.1c0-2.8-1.6-5.1-3.5-5.1c-0.6,0-1.1,0.2-1.6,0.6
		c0-0.2,0-0.4,0-0.6C31.2,5.8,28,0.5,24,0.5c-4,0-7.2,5.3-7.2,11.8c0,0.2,0,0.4,0,0.6c-0.5-0.4-1-0.6-1.6-0.6
		c-1.9,0-3.5,2.3-3.5,5.1v2.1v12.5l-3.5,2.6v5.4l2.6,0.7v0.8l-4.6,1.6v3.5h4.6h1.1h7.6c1.3,1,3.1,1,4.5,1c1.4,0,3.2,0,4.5-1h7.6h1.1
		h4.6v-3.5L37.1,41.4z M10.2,35.5l7.7-5.8V37c0,0.5,0.4,1,1,1c0.5,0,1-0.4,1-1v-8.7l0.1,0V19c0-3.3,1.9-6,4.1-6s4.1,2.8,4.1,6v8.7
		c0,0,0,0,0,0V37c0,0.5,0.4,1,1,1s1-0.4,1-1v-7.2l7.7,5.8v2.9L28.1,41v1.5c0,2.8-1.1,3-4.1,3s-4.1-0.2-4.1-3V41l-9.7-2.6V35.5z"/>
	<path fill="#F04B36" d="M22.3,17.2c0.2,0,0.3,0,0.5-0.1l0.4-0.2c0.5-0.3,0.7-0.9,0.4-1.3c-0.3-0.5-0.9-0.7-1.3-0.4l-0.4,0.2
		c-0.5,0.3-0.7,0.9-0.4,1.3C21.6,17,22,17.2,22.3,17.2z"/>
	<path fill="#F04B36" d="M24.7,16.8l0.5,0.3c0.1,0.1,0.3,0.1,0.5,0.1c0.4,0,0.7-0.2,0.9-0.5c0.3-0.5,0.1-1.1-0.4-1.3l-0.5-0.3
		c-0.5-0.3-1.1-0.1-1.3,0.4C24,16,24.2,16.6,24.7,16.8z"/>
</g>
</svg>
