<?xml version="1.0" encoding="utf-8"?>
<!-- Generator: Adobe Illustrator 18.0.0, SVG Export Plug-In . SVG Version: 6.00 Build 0)  -->
<!DOCTYPE svg PUBLIC "-//W3C//DTD SVG 1.1//EN" "http://www.w3.org/Graphics/SVG/1.1/DTD/svg11.dtd">
<svg version="1.1" id="Layer_1" xmlns="http://www.w3.org/2000/svg" xmlns:xlink="http://www.w3.org/1999/xlink" x="0px" y="0px"
	 viewBox="0 0 48 48" enable-background="new 0 0 48 48" xml:space="preserve">
<g>
	<path fill="#F04B36" d="M9.2,23.5c4.5,2.2,9.3,3.3,14,3.3h0c5.3,0,10.6-1.4,15.6-4.2c0.2-0.1,0.3-0.3,0.3-0.5
		C38.3,13.6,31.8,7.2,24,7.2C16,7.2,9.3,14.1,8.9,23C8.9,23.2,9,23.4,9.2,23.5z M22.6,20h3.9c0.5,0,1,0.4,1,1c0,0.5-0.4,1-1,1h-3.9
		c-0.5,0-1-0.4-1-1C21.6,20.4,22.1,20,22.6,20z"/>
	<path fill="#06728D" d="M42.3,32.4c3.3-1.7,5.2-4,5.2-6.4c0-2.8-2.5-5.3-7-7.2c0.3,1,0.5,2.1,0.6,3.2c0.1,1-0.4,1.9-1.3,2.4
		c-5.4,2.9-11,4.4-16.6,4.4c-5.1,0-10.1-1.2-14.9-3.5c-0.9-0.4-1.4-1.4-1.4-2.3c0.1-1.4,0.3-2.8,0.6-4.2C3,20.6,0.5,23.2,0.5,26
		c0,2.5,2,4.7,5.3,6.4L1,39.3c-0.3,0.4-0.2,1.1,0.2,1.4c0.2,0.1,0.4,0.2,0.6,0.2c0.3,0,0.6-0.1,0.8-0.4l5-7c0,0,0-0.1,0-0.1
		C11.8,35,17.6,36,24,36c6.5,0,12.3-1.1,16.5-2.8c0,0,0,0.1,0.1,0.1l5,7c0.2,0.3,0.5,0.4,0.8,0.4c0.2,0,0.4-0.1,0.6-0.2
		c0.4-0.3,0.6-0.9,0.2-1.4L42.3,32.4z"/>
</g>
</svg>
