<?xml version="1.0" encoding="utf-8"?>
<!-- Generator: Adobe Illustrator 18.0.0, SVG Export Plug-In . SVG Version: 6.00 Build 0)  -->
<!DOCTYPE svg PUBLIC "-//W3C//DTD SVG 1.1//EN" "http://www.w3.org/Graphics/SVG/1.1/DTD/svg11.dtd">
<svg version="1.1" id="Layer_1" xmlns="http://www.w3.org/2000/svg" xmlns:xlink="http://www.w3.org/1999/xlink" x="0px" y="0px"
	 viewBox="0 0 48 48" enable-background="new 0 0 48 48" xml:space="preserve">
<g>
	<path fill="#F7A93B" d="M41.8,3.5c-2-0.7-4.2,0.3-4.9,2.4l-2.8,7c0.1-0.7,0.2-1.4,0.2-2.2c0-5.6-4.3-10.2-9.7-10.2
		c-5.4,0-9.7,4.6-9.7,10.2c0,0.5,0,1,0.1,1.5c-0.3-0.3-0.7-0.6-1.2-0.8c-1.9-0.7-4.1,0.3-4.8,2.3L4,26.3c-0.7,2,0.2,4.2,2.1,4.9
		c1.9,0.7,4.1-0.3,4.8-2.3l2.3-5.8v8.9v13c0,1.4,1.2,2.6,2.6,2.6h3.5c1.4,0,2.6-1.2,2.6-2.6v-13h5.3v13c0,1.4,1.2,2.6,2.6,2.6h3.5
		c1.4,0,2.6-1.2,2.6-2.6v-13v-8.1c1.3-0.2,2.5-1.2,3-2.6L44,8.6C44.7,6.5,43.8,4.3,41.8,3.5z M29.5,14.3c-1.8,1.8-8.5,1.8-10.3,0
		c-1.4-1.4-1.4-6.5,0-7.9c1.8-1.8,8.5-1.8,10.3,0C30.9,7.8,30.9,12.9,29.5,14.3z"/>
</g>
</svg>
