<?xml version="1.0" encoding="utf-8"?>
<!-- Generator: Adobe Illustrator 18.0.0, SVG Export Plug-In . SVG Version: 6.00 Build 0)  -->
<!DOCTYPE svg PUBLIC "-//W3C//DTD SVG 1.1//EN" "http://www.w3.org/Graphics/SVG/1.1/DTD/svg11.dtd">
<svg version="1.1" id="Layer_1" xmlns="http://www.w3.org/2000/svg" xmlns:xlink="http://www.w3.org/1999/xlink" x="0px" y="0px"
	 viewBox="0 0 48 48" enable-background="new 0 0 48 48" xml:space="preserve">
<g>
	<path fill="#E77528" d="M44.6,9.3h-10V5.7c0-2.2-1.8-3.9-3.9-3.9H17.3c-2.2,0-3.9,1.8-3.9,3.9v3.6h-10c-1.6,0-2.9,1.3-2.9,2.9v31.1
		c0,1.6,1.3,2.9,2.9,2.9h41.2c1.6,0,2.9-1.3,2.9-2.9V12.2C47.5,10.6,46.2,9.3,44.6,9.3z M15.4,5.7c0-1,0.9-1.9,1.9-1.9h13.3
		c1,0,1.9,0.9,1.9,1.9v3.6H15.4V5.7z M24,40.9c-7.3,0-13.2-5.9-13.2-13.2c0-7.3,5.9-13.2,13.2-13.2s13.2,5.9,13.2,13.2
		C37.2,35,31.3,40.9,24,40.9z"/>
	<path fill="#F04B36" d="M25.2,26.8v-7.7c0-0.6-0.5-1-1-1c-0.6,0-1,0.5-1,1v7.7h-7.7c-0.6,0-1,0.5-1,1c0,0.6,0.5,1,1,1h7.7v7.7
		c0,0.6,0.5,1,1,1c0.6,0,1-0.5,1-1v-7.7h7.7c0.6,0,1-0.5,1-1c0-0.6-0.5-1-1-1H25.2z"/>
</g>
</svg>
