<?xml version="1.0" encoding="utf-8"?>
<!-- Generator: Adobe Illustrator 18.0.0, SVG Export Plug-In . SVG Version: 6.00 Build 0)  -->
<!DOCTYPE svg PUBLIC "-//W3C//DTD SVG 1.1//EN" "http://www.w3.org/Graphics/SVG/1.1/DTD/svg11.dtd">
<svg version="1.1" id="Layer_1" xmlns="http://www.w3.org/2000/svg" xmlns:xlink="http://www.w3.org/1999/xlink" x="0px" y="0px"
	 viewBox="0 0 48 48" enable-background="new 0 0 48 48" xml:space="preserve">
<g>
	<path fill="#0DB89A" d="M16.7,10.9H31c0.5,0,0.9-0.4,0.9-0.9V1.4c0-0.5-0.4-0.9-0.9-0.9H16.7c-0.5,0-0.9,0.4-0.9,0.9V10
		C15.8,10.5,16.2,10.9,16.7,10.9z M25.1,4.2c0-0.5,0.4-0.9,0.9-0.9c0.5,0,0.9,0.4,0.9,0.9v3.6c0,0.5-0.4,0.9-0.9,0.9
		c-0.5,0-0.9-0.4-0.9-0.9V4.2z M20.1,4.2c0-0.5,0.4-0.9,0.9-0.9c0.5,0,0.9,0.4,0.9,0.9v3.6c0,0.5-0.4,0.9-0.9,0.9
		c-0.5,0-0.9-0.4-0.9-0.9V4.2z"/>
	<path fill="#4DA0D8" d="M35.8,21.6c-2.2-1.9-5.5-4.7-5.7-8.1c0-0.5-0.4-0.8-0.9-0.8H18.8c-0.5,0-0.9,0.4-0.9,0.8
		c-0.2,3.3-3.5,6.2-5.7,8.1c-1.4,1.2-2.1,1.8-2.1,2.6v20.5c0,1.6,1.3,2.9,2.9,2.9H35c1.6,0,2.9-1.3,2.9-2.9V24.2
		C37.9,23.4,37.2,22.8,35.8,21.6z M20.4,32.2c-0.9,0-1.6-0.7-1.6-1.6c0-0.9,0.7-1.6,1.6-1.6c0.9,0,1.6,0.7,1.6,1.6
		C21.9,31.5,21.2,32.2,20.4,32.2z M24.8,41.7c0,0.5-0.4,0.9-0.9,0.9c-0.5,0-0.9-0.4-0.9-0.9v-2.6c0-0.5,0.4-0.9,0.9-0.9
		c0.5,0,0.9,0.4,0.9,0.9V41.7z M24.8,34.9c0,0.5-0.4,0.9-0.9,0.9c-0.5,0-0.9-0.4-0.9-0.9v-1.6c0-0.5,0.4-0.9,0.9-0.9
		c0.5,0,0.9,0.4,0.9,0.9V34.9z M25.9,30.6c0-0.9,0.7-1.6,1.6-1.6c0.9,0,1.6,0.7,1.6,1.6c0,0.9-0.7,1.6-1.6,1.6
		C26.6,32.2,25.9,31.5,25.9,30.6z M28.3,38.8v2.1c0,0.5-0.4,0.9-0.9,0.9s-0.9-0.4-0.9-0.9v-2.6c0-0.3,0.2-0.6,0.5-0.8
		c2.4-1.2,3.8-3.6,3.8-6.2c0-3.8-3.1-7-7-7c-3.8,0-6.9,3.1-6.9,7c0,2.6,1.4,4.9,3.7,6.1c0.3,0.2,0.5,0.5,0.5,0.8v2.7
		c0,0.5-0.4,0.9-0.9,0.9c-0.5,0-0.9-0.4-0.9-0.9v-2.2c-2.6-1.6-4.2-4.4-4.2-7.5c0-4.8,3.9-8.7,8.7-8.7c4.8,0,8.7,3.9,8.7,8.7
		C32.7,34.4,31,37.3,28.3,38.8z"/>
</g>
</svg>
