<?xml version="1.0" encoding="utf-8"?>
<!-- Generator: Adobe Illustrator 18.0.0, SVG Export Plug-In . SVG Version: 6.00 Build 0)  -->
<!DOCTYPE svg PUBLIC "-//W3C//DTD SVG 1.1//EN" "http://www.w3.org/Graphics/SVG/1.1/DTD/svg11.dtd">
<svg version="1.1" id="Layer_1" xmlns="http://www.w3.org/2000/svg" xmlns:xlink="http://www.w3.org/1999/xlink" x="0px" y="0px"
	 viewBox="0 0 48 48" enable-background="new 0 0 48 48" xml:space="preserve">
<g>
	<path fill="#CFD0D1" d="M39.8,2.6H27.7c-0.9-1.3-2.2-2.1-3.7-2.1s-2.8,0.8-3.7,2.1H8.2c-1.9,0-3.5,1.6-3.5,3.5V44
		c0,1.9,1.6,3.5,3.5,3.5h31.6c1.9,0,3.5-1.6,3.5-3.5V6.1C43.3,4.2,41.7,2.6,39.8,2.6z M34.7,12.5H13.3V6.7h5.8c0,0.5,0.4,1,1,1
		c0.5,0,1-0.4,1-1h0.1c0.1-2.4,1.3-4.4,2.9-4.4s2.8,1.9,2.9,4.4H27c0,0.5,0.4,1,1,1c0.5,0,1-0.4,1-1h5.8V12.5z"/>
</g>
</svg>
