<?xml version="1.0" encoding="utf-8"?>
<!-- Generator: Adobe Illustrator 18.0.0, SVG Export Plug-In . SVG Version: 6.00 Build 0)  -->
<!DOCTYPE svg PUBLIC "-//W3C//DTD SVG 1.1//EN" "http://www.w3.org/Graphics/SVG/1.1/DTD/svg11.dtd">
<svg version="1.1" id="Layer_1" xmlns="http://www.w3.org/2000/svg" xmlns:xlink="http://www.w3.org/1999/xlink" x="0px" y="0px"
	 viewBox="0 0 48 48" enable-background="new 0 0 48 48" xml:space="preserve">
<g>
	<path fill="#294E58" d="M38.5,40.9h-8.7H20h-9.8c-1.2,0-2.1,1-2.1,2.1v2.3c0,1.2,1,2.1,2.1,2.1h28.3c1.2,0,2.1-1,2.1-2.1v-2.3
		C40.6,41.9,39.7,40.9,38.5,40.9z"/>
	<path fill="#CFD0D1" d="M32.3,9.9c0.6-1,0.3-2.3-0.7-2.9l2.8-4.6l-3.1-1.9l-2.8,4.6c-1-0.6-2.3-0.3-2.9,0.7l-9.4,15.3l-1.7-1
		l-2.3,3.8l9.9,6.1l2.3-3.8l-1.7-1l2.4-3.9l5.5-9L32.3,9.9z"/>
	<path fill="#06728D" d="M36.1,18.2c0-3.1-2.3-5.6-5.3-5.8l-5.5,9c1,1.6,2.9,2.7,5,2.7c0.5,0,1-0.1,1.4-0.2c0.9,1.3,1.5,3,1.5,4.7
		c0,4.5-3.7,8.2-8.2,8.2c-1.4,0-2.6-0.3-3.8-0.9h2.2v-3.2h-16v3.2h6.4c1.5,2.3,3.7,4.1,6.2,5.1h9.8c4.9-2,8.4-6.8,8.4-12.4
		c0-3-1-5.7-2.7-8C35.9,19.9,36.1,19,36.1,18.2z"/>
</g>
</svg>
