<?xml version="1.0" encoding="utf-8"?>
<!-- Generator: Adobe Illustrator 18.0.0, SVG Export Plug-In . SVG Version: 6.00 Build 0)  -->
<!DOCTYPE svg PUBLIC "-//W3C//DTD SVG 1.1//EN" "http://www.w3.org/Graphics/SVG/1.1/DTD/svg11.dtd">
<svg version="1.1" id="Layer_1" xmlns="http://www.w3.org/2000/svg" xmlns:xlink="http://www.w3.org/1999/xlink" x="0px" y="0px"
	 viewBox="0 0 48 48" enable-background="new 0 0 48 48" xml:space="preserve">
<g>
	<path fill="#F7A93B" d="M24,0.5c-11.1,0-20.2,9-20.2,20.2c0,11.1,9,26.8,20.2,26.8c11.1,0,20.2-15.7,20.2-26.8
		C44.2,9.5,35.1,0.5,24,0.5z M8.8,23.7c-2.6-2.3-2.9-6.4-0.5-9c2.3-2.6,6.4-2.9,9-0.5c2.6,2.3,4.7,12.8,4.7,12.8S11.4,26.1,8.8,23.7
		z M39.2,23.7C36.6,26.1,26,26.9,26,26.9s2.1-10.4,4.7-12.8c2.6-2.3,6.7-2.1,9,0.5C42.1,17.3,41.9,21.4,39.2,23.7z"/>
</g>
</svg>
