<?xml version="1.0" encoding="utf-8"?>
<!-- Generator: Adobe Illustrator 18.0.0, SVG Export Plug-In . SVG Version: 6.00 Build 0)  -->
<!DOCTYPE svg PUBLIC "-//W3C//DTD SVG 1.1//EN" "http://www.w3.org/Graphics/SVG/1.1/DTD/svg11.dtd">
<svg version="1.1" id="Layer_1" xmlns="http://www.w3.org/2000/svg" xmlns:xlink="http://www.w3.org/1999/xlink" x="0px" y="0px"
	 viewBox="0 0 48 48" enable-background="new 0 0 48 48" xml:space="preserve">
<g>
	<path fill="none" d="M33.7,15.3h-1.4c-0.5,0-1,0.4-1,1c0,0.5,0.4,1,1,1h1.4c0.5,0,1-0.4,1-1C34.7,15.8,34.3,15.3,33.7,15.3z"/>
	<path fill="none" d="M15.6,15.3h-1.4c-0.5,0-1,0.4-1,1c0,0.5,0.4,1,1,1h1.4c0.5,0,1-0.4,1-1C16.6,15.8,16.2,15.3,15.6,15.3z"/>
	<path fill="none" d="M24.7,15.3h-1.4c-0.5,0-1,0.4-1,1c0,0.5,0.4,1,1,1h1.4c0.5,0,1-0.4,1-1C25.6,15.8,25.2,15.3,24.7,15.3z"/>
	<path fill="#294E58" d="M23,46.3c0,0.5,0.4,1,1,1c0.5,0,1-0.4,1-1V24.8H23V46.3z"/>
	<path fill="#06728D" d="M9.1,20.7L0.6,46c-0.2,0.5,0.1,1.1,0.6,1.2c0.1,0,0.2,0.1,0.3,0.1c0.4,0,0.8-0.3,0.9-0.7l8.4-24.8L9.1,20.7
		C9.1,20.7,9.1,20.7,9.1,20.7z"/>
	<path fill="#06728D" d="M38.9,20.7C38.9,20.7,38.9,20.7,38.9,20.7l-1.7,1.1l8.4,24.8c0.1,0.4,0.5,0.7,0.9,0.7c0.1,0,0.2,0,0.3-0.1
		c0.5-0.2,0.8-0.7,0.6-1.2L38.9,20.7z"/>
	<path fill="none" d="M15.6,15.3h-1.4c-0.5,0-1,0.4-1,1c0,0.5,0.4,1,1,1h1.4c0.5,0,1-0.4,1-1C16.6,15.8,16.2,15.3,15.6,15.3z"/>
	<path fill="none" d="M24.7,15.3h-1.4c-0.5,0-1,0.4-1,1c0,0.5,0.4,1,1,1h1.4c0.5,0,1-0.4,1-1C25.6,15.8,25.2,15.3,24.7,15.3z"/>
	<path fill="none" d="M33.7,15.3h-1.4c-0.5,0-1,0.4-1,1c0,0.5,0.4,1,1,1h1.4c0.5,0,1-0.4,1-1C34.7,15.8,34.3,15.3,33.7,15.3z"/>
	<path fill="#F04B36" d="M25,5.8c1-0.4,1.7-1.3,1.7-2.5c0-1.5-1.2-2.6-2.7-2.6c-1.5,0-2.7,1.2-2.7,2.6c0,1.1,0.7,2.1,1.7,2.5v2H25
		V5.8z"/>
	<path fill="#0DB89A" d="M25,7.8H23c-9.2,0.2-16.3,3.9-16.3,8.5c0,1.6,0.9,3.1,2.4,4.4l1.7,1.1c3,1.7,7.3,2.8,12.3,2.9H25
		c5-0.1,9.3-1.2,12.3-2.9l1.7-1.1c1.5-1.3,2.4-2.8,2.4-4.4C41.3,11.7,34.2,8.1,25,7.8z M15.6,17.3h-1.4c-0.5,0-1-0.4-1-1
		c0-0.5,0.4-1,1-1h1.4c0.5,0,1,0.4,1,1C16.6,16.8,16.2,17.3,15.6,17.3z M24.7,17.3h-1.4c-0.5,0-1-0.4-1-1c0-0.5,0.4-1,1-1h1.4
		c0.5,0,1,0.4,1,1C25.6,16.8,25.2,17.3,24.7,17.3z M33.7,17.3h-1.4c-0.5,0-1-0.4-1-1c0-0.5,0.4-1,1-1h1.4c0.5,0,1,0.4,1,1
		C34.7,16.8,34.3,17.3,33.7,17.3z"/>
</g>
</svg>
