<?xml version="1.0" encoding="utf-8"?>
<!-- Generator: Adobe Illustrator 18.0.0, SVG Export Plug-In . SVG Version: 6.00 Build 0)  -->
<!DOCTYPE svg PUBLIC "-//W3C//DTD SVG 1.1//EN" "http://www.w3.org/Graphics/SVG/1.1/DTD/svg11.dtd">
<svg version="1.1" id="Layer_1" xmlns="http://www.w3.org/2000/svg" xmlns:xlink="http://www.w3.org/1999/xlink" x="0px" y="0px"
	 viewBox="0 0 48 48" enable-background="new 0 0 48 48" xml:space="preserve">
<g>
	<path fill="#294E58" d="M44.3,19.9c0.3-0.3,0.5-0.6,0.8-1c1.5-2,2.3-4.2,2.4-6.4c0.1-2.2-0.7-4-2.1-5c-0.8-0.6-1.9-0.9-3-0.9
		c-2.3,0-4.8,1.3-6.8,3.5c-3.8-1.6-8.4-2.5-13.2-2.5c-12.1,0-21.9,5.5-21.9,12.3c0,6.8,9.8,12.3,21.9,12.3c4.8,0,9.4-0.9,13.2-2.5
		c2,2.2,4.5,3.5,6.8,3.5c1.1,0,2.2-0.3,3-0.9c1.4-1.1,2.2-2.8,2.1-5c-0.1-2.1-0.9-4.4-2.4-6.4C44.9,20.5,44.6,20.2,44.3,19.9z
		 M41.3,20.9H27.6c-0.5,0-1-0.4-1-1c0-0.5,0.4-1,1-1h13.7c0.5,0,1,0.4,1,1C42.3,20.4,41.8,20.9,41.3,20.9z"/>
	<path fill="#F04B36" d="M12.4,32.9l3.7,7.9c0.2,0.3,0.5,0.6,0.9,0.6h14c0.4,0,0.8-0.3,1-0.7l2.2-8.3c-3.6,1.2-7.6,1.8-11.8,1.8
		C18.8,34.2,15.4,33.8,12.4,32.9z M20.4,38.1h-1c-0.5,0-1-0.4-1-1c0-0.5,0.4-1,1-1h1c0.5,0,1,0.4,1,1C21.4,37.6,21,38.1,20.4,38.1z
		 M26.4,36.1h1c0.5,0,1,0.4,1,1c0,0.5-0.4,1-1,1h-1c-0.5,0-1-0.4-1-1C25.5,36.5,25.9,36.1,26.4,36.1z"/>
</g>
</svg>
