<?xml version="1.0" encoding="utf-8"?>
<!-- Generator: Adobe Illustrator 18.0.0, SVG Export Plug-In . SVG Version: 6.00 Build 0)  -->
<!DOCTYPE svg PUBLIC "-//W3C//DTD SVG 1.1//EN" "http://www.w3.org/Graphics/SVG/1.1/DTD/svg11.dtd">
<svg version="1.1" id="Layer_1" xmlns="http://www.w3.org/2000/svg" xmlns:xlink="http://www.w3.org/1999/xlink" x="0px" y="0px"
	 viewBox="0 0 48 48" enable-background="new 0 0 48 48" xml:space="preserve">
<g>
	<path fill="#E77528" d="M40.6,24.2c0.3,0.3,0.6,0.4,1,0.4c0.4,0,0.7-0.1,1-0.4l4.4-4.3c0.3-0.3,0.4-0.7,0.4-1.1
		c0-0.4-0.2-0.8-0.5-1l-4.8-4.1c-0.3-0.2-0.6-0.3-0.9-0.3c-0.4,0-0.8,0.2-1.1,0.5c-0.5,0.6-0.4,1.5,0.2,2l1.7,1.4H19.4L35.6,6.2
		l-0.7,2.5c-0.1,0.4-0.1,0.8,0.1,1.1c0.2,0.3,0.5,0.6,0.9,0.7c0.1,0,0.3,0.1,0.4,0.1c0.6,0,1.2-0.4,1.4-1l1.6-5.9
		c0.1-0.4,0-0.8-0.2-1.1c-0.2-0.3-0.5-0.6-0.9-0.6l-6.3-1.2c-0.1,0-0.2,0-0.3,0c-0.7,0-1.3,0.5-1.4,1.2c-0.1,0.8,0.4,1.5,1.1,1.7
		L34,3.8L14.5,17.3c0,0,0,0-0.1,0H1.9c-0.8,0-1.4,0.6-1.4,1.4c0,0.8,0.6,1.4,1.4,1.4h11.6l-5,25.6c-0.1,0.8,0.4,1.5,1.1,1.7
		c0.1,0,0.2,0,0.3,0c0.7,0,1.3-0.5,1.4-1.2l5-25.9c2.1,0.3,22.1,3.8,24.2,25.7c0.1,0.7,0.7,1.3,1.4,1.3l0.1,0c0.4,0,0.7-0.2,1-0.5
		c0.2-0.3,0.4-0.7,0.3-1C41.9,30.5,32,23.4,24.9,20.2h17.8l-2.1,2C40.1,22.8,40.1,23.7,40.6,24.2z"/>
</g>
</svg>
