<?xml version="1.0" encoding="utf-8"?>
<!-- Generator: Adobe Illustrator 18.0.0, SVG Export Plug-In . SVG Version: 6.00 Build 0)  -->
<!DOCTYPE svg PUBLIC "-//W3C//DTD SVG 1.1//EN" "http://www.w3.org/Graphics/SVG/1.1/DTD/svg11.dtd">
<svg version="1.1" id="Layer_1" xmlns="http://www.w3.org/2000/svg" xmlns:xlink="http://www.w3.org/1999/xlink" x="0px" y="0px"
	 viewBox="0 0 48 48" enable-background="new 0 0 48 48" xml:space="preserve">
<g>
	<path fill="#F04B36" d="M24,10.1c-1.4,0-2.1,1.4-2.1,2.9c0,1.5,0.8,2.8,2.1,2.8c1.3,0,2.1-1.3,2.1-2.9C26.1,11.5,25.4,10.1,24,10.1
		z"/>
	<polygon fill="#06728D" points="6.4,28.5 7,28.5 7,26.1 9.2,26.1 9.2,25.5 7,25.5 7,23.1 6.4,23.1 6.4,25.5 4.2,25.5 4.2,26.1 
		6.4,26.1 	"/>
	<polygon fill="#06728D" points="27.2,34.3 26.6,34.3 26.6,36.7 24.4,36.7 24.4,37.3 26.6,37.3 26.6,39.7 27.2,39.7 27.2,37.3 
		29.4,37.3 29.4,36.7 27.2,36.7 	"/>
	<rect x="36.7" y="19.8" fill="#06728D" width="3.9" height="1.1"/>
	<path fill="none" d="M24,9.4c-1.7,0-3,1.4-3,3.6c0,2.1,1.2,3.5,2.9,3.5c1.7,0,3-1.3,3-3.6C26.9,10.8,25.8,9.4,24,9.4z"/>
	<polygon fill="none" points="9.7,38.3 6.5,38.3 6.5,35.4 5.7,35.4 5.7,42.3 6.5,42.3 6.5,39.1 9.7,39.1 9.7,42.3 10.5,42.3 
		10.5,35.4 9.7,35.4 	"/>
	<polygon fill="none" points="40.9,38.3 37.8,38.3 37.8,35.4 36.9,35.4 36.9,42.3 37.8,42.3 37.8,39.1 40.9,39.1 40.9,42.3 
		41.8,42.3 41.8,35.4 40.9,35.4 	"/>
	<path fill="#F04B36" d="M35.9,13.2c0-6.9-5.3-12.5-11.9-12.5c-6.6,0-11.9,5.6-11.9,12.5c0,4.2,2,7.9,5,10.2l1.6,1
		c1.6,0.8,3.4,1.3,5.3,1.3c1.8,0,3.4-0.4,4.9-1.1l1.7-1C33.8,21.4,35.9,17.6,35.9,13.2z M23.9,16.5c-1.7,0-2.9-1.4-2.9-3.5
		c0-2.2,1.3-3.6,3-3.6c1.8,0,2.9,1.4,2.9,3.5C26.9,15.2,25.6,16.5,23.9,16.5z"/>
	<polygon fill="none" points="9.7,38.3 6.5,38.3 6.5,35.4 5.7,35.4 5.7,42.3 6.5,42.3 6.5,39.1 9.7,39.1 9.7,42.3 10.5,42.3 
		10.5,35.4 9.7,35.4 	"/>
	<polygon fill="#CFD0D1" points="18.7,24.4 17.1,23.4 11.9,31 13.6,32 	"/>
	<path fill="#4DA0D8" d="M13.6,32l-1.6-1c-1-0.5-2.1-0.7-3.3-0.7c-4.5,0-8.1,3.8-8.1,8.5c0,4.7,3.6,8.5,8.1,8.5
		c4.5,0,8.1-3.8,8.1-8.5C16.8,36,15.5,33.6,13.6,32z M10.5,42.3H9.7v-3.2H6.5v3.2H5.7v-6.9h0.8v2.9h3.2v-2.9h0.9V42.3z"/>
	<polygon fill="none" points="40.9,38.3 37.8,38.3 37.8,35.4 36.9,35.4 36.9,42.3 37.8,42.3 37.8,39.1 40.9,39.1 40.9,42.3 
		41.8,42.3 41.8,35.4 40.9,35.4 	"/>
	<polygon fill="#CFD0D1" points="30.6,23.6 28.9,24.6 34.1,32.2 35.7,31.1 	"/>
	<path fill="#0DB89A" d="M39.4,30.2c-1.3,0-2.5,0.3-3.6,0.9l-1.6,1.1c-1.8,1.6-2.9,3.9-2.9,6.5c0,4.7,3.6,8.5,8.1,8.5
		c4.5,0,8.1-3.8,8.1-8.5C47.5,34,43.9,30.2,39.4,30.2z M41.8,42.3h-0.8v-3.2h-3.2v3.2h-0.8v-6.9h0.8v2.9h3.2v-2.9h0.8V42.3z"/>
</g>
</svg>
