<?xml version="1.0" encoding="utf-8"?>
<!-- Generator: Adobe Illustrator 18.0.0, SVG Export Plug-In . SVG Version: 6.00 Build 0)  -->
<!DOCTYPE svg PUBLIC "-//W3C//DTD SVG 1.1//EN" "http://www.w3.org/Graphics/SVG/1.1/DTD/svg11.dtd">
<svg version="1.1" id="Layer_1" xmlns="http://www.w3.org/2000/svg" xmlns:xlink="http://www.w3.org/1999/xlink" x="0px" y="0px"
	 viewBox="0 0 48 48" enable-background="new 0 0 48 48" xml:space="preserve">
<g>
	<path fill="#06728D" d="M35.5,15.2c-1.5,0-2.9,0.3-4.2,0.8l3.2,1.9c0.7,0.4,0.9,1.3,0.5,2c-0.3,0.4-0.7,0.7-1.2,0.7
		c-0.2,0-0.5-0.1-0.7-0.2l-4.5-2.7c-1,0.8-1.9,1.7-2.6,2.8c-0.1-0.1-0.2-0.1-0.3-0.1L3,13.8c-0.8-0.2-1.5,0.2-1.8,1
		c-0.2,0.8,0.2,1.5,1,1.8L24.7,23c-0.3,1-0.5,2.1-0.5,3.3c0,0.5,0,0.9,0.1,1.4l9.2-1.6c0.8-0.1,1.5,0.4,1.6,1.2
		c0.1,0.8-0.4,1.5-1.2,1.6l-9,1.5c0.2,0.5,0.5,1,0.8,1.5L4.2,44.9c-0.7,0.4-0.9,1.3-0.5,2c0.3,0.4,0.7,0.7,1.2,0.7
		c0.2,0,0.5-0.1,0.7-0.2l21.7-12.9c0.1-0.1,0.2-0.1,0.2-0.2c2,2,4.8,3.2,7.9,3.2c6.2,0,11.3-5,11.3-11.1
		C46.8,20.2,41.7,15.2,35.5,15.2z"/>
	<path fill="#F04B36" d="M5.7,0.7C5,0.3,4.1,0.5,3.7,1.2c-0.4,0.7-0.2,1.5,0.5,2l24.3,14.5c0.9-0.7,1.8-1.2,2.8-1.6L5.7,0.7z"/>
	<path fill="#F04B36" d="M2.4,31.4c-0.8,0.1-1.3,0.9-1.2,1.6c0.1,0.7,0.7,1.2,1.4,1.2c0.1,0,0.2,0,0.2,0L25,30.4
		c-0.4-0.9-0.6-1.8-0.7-2.8L2.4,31.4z"/>
</g>
</svg>
