<?xml version="1.0" encoding="utf-8"?>
<!-- Generator: Adobe Illustrator 18.0.0, SVG Export Plug-In . SVG Version: 6.00 Build 0)  -->
<!DOCTYPE svg PUBLIC "-//W3C//DTD SVG 1.1//EN" "http://www.w3.org/Graphics/SVG/1.1/DTD/svg11.dtd">
<svg version="1.1" id="Layer_1" xmlns="http://www.w3.org/2000/svg" xmlns:xlink="http://www.w3.org/1999/xlink" x="0px" y="0px"
	 viewBox="0 0 48 48" enable-background="new 0 0 48 48" xml:space="preserve">
<g>
	<path fill="#4DA0D8" d="M39.2,16.8h-5c0.5,1.9,0.7,4,0.8,6.2h5.8C40.7,20.7,40.1,18.7,39.2,16.8z"/>
	<path fill="#4DA0D8" d="M30.4,8.7c1.3,1.6,2.4,3.6,3.3,6h4.3C36.1,12,33.4,9.9,30.4,8.7z"/>
	<path fill="#4DA0D8" d="M30.4,39.3c3.1-1.2,5.7-3.3,7.6-6h-4.3C32.8,35.7,31.7,37.8,30.4,39.3z"/>
	<path fill="#4DA0D8" d="M40.8,25.1H35c-0.1,2.2-0.3,4.3-0.8,6.2h5C40.1,29.3,40.7,27.3,40.8,25.1z"/>
	<path fill="#4DA0D8" d="M25,40.5c2.6-0.6,4.9-3.3,6.3-7.1H25V40.5z"/>
	<path fill="#4DA0D8" d="M25,22.9h7.9c-0.1-2.2-0.4-4.3-0.9-6.2h-7V22.9z"/>
	<path fill="#4DA0D8" d="M25,31.2h7c0.5-1.9,0.8-4,0.9-6.2H25V31.2z"/>
	<path fill="#4DA0D8" d="M25,7.5v7.1h6.3C29.9,10.8,27.6,8.1,25,7.5z"/>
	<path fill="#4DA0D8" d="M22.9,40.5v-7.1h-6.3C18,37.2,20.3,39.9,22.9,40.5z"/>
	<path fill="#4DA0D8" d="M22.9,16.8h-7c-0.5,1.9-0.8,4-0.9,6.2h7.9V16.8z"/>
	<path fill="#4DA0D8" d="M22.9,25.1h-7.9c0.1,2.2,0.4,4.3,0.9,6.2h7V25.1z"/>
	<path fill="#4DA0D8" d="M22.9,7.5c-2.6,0.6-4.9,3.3-6.3,7.1h6.3V7.5z"/>
	<path fill="#4DA0D8" d="M9.9,33.3c1.9,2.7,4.5,4.8,7.6,6c-1.3-1.6-2.4-3.6-3.2-6H9.9z"/>
	<path fill="#4DA0D8" d="M9.9,14.7h4.3c0.8-2.4,1.9-4.4,3.3-6C14.4,9.9,11.8,12,9.9,14.7z"/>
	<path fill="#4DA0D8" d="M8.7,31.2h5c-0.5-1.9-0.7-4-0.8-6.2H7C7.2,27.3,7.8,29.3,8.7,31.2z"/>
	<path fill="#4DA0D8" d="M7,22.9h5.8c0.1-2.2,0.3-4.3,0.8-6.2h-5C7.8,18.7,7.2,20.7,7,22.9z"/>
	<path fill="#E77528" d="M44.8,33.3c-0.5-0.2-1.1-0.1-1.3,0.4C39.8,41,32.2,45.6,23.8,45.6c-8.1,0-15.6-4.4-19.4-11.4l3.1,1
		c0.5,0.2,1.1-0.1,1.2-0.6c0.2-0.5-0.1-1.1-0.6-1.2l-5.2-1.7c-0.3-0.1-0.5-0.1-0.8,0.1c-0.2,0.1-0.4,0.4-0.5,0.6l-1.1,4.9
		c-0.1,0.5,0.2,1,0.7,1.2c0.1,0,0.1,0,0.2,0c0.4,0,0.8-0.3,0.9-0.8l0.5-2.2c4.2,7.3,12.2,12,20.9,12c9.1,0,17.3-5,21.4-12.9
		C45.5,34.1,45.3,33.5,44.8,33.3z"/>
	<path fill="#F04B36" d="M46.7,9.5c-0.5-0.1-1,0.2-1.2,0.7L45,12.9C40.8,5.3,32.7,0.5,23.8,0.5c-9.1,0-17.6,5.2-21.6,13.3
		c-0.2,0.5,0,1.1,0.4,1.3c0.5,0.2,1.1,0,1.3-0.4C7.6,7.2,15.4,2.4,23.8,2.4c8.1,0,15.5,4.3,19.3,11.2l-2.7-0.9
		c-0.5-0.2-1.1,0.1-1.2,0.6c-0.2,0.5,0.1,1.1,0.6,1.2l5.2,1.7c0.1,0,0.2,0,0.3,0c0.2,0,0.3,0,0.5-0.1c0.2-0.1,0.4-0.4,0.5-0.6
		l1.1-4.9C47.6,10.2,47.3,9.7,46.7,9.5z"/>
</g>
</svg>
