<?xml version="1.0" encoding="utf-8"?>
<!-- Generator: Adobe Illustrator 18.0.0, SVG Export Plug-In . SVG Version: 6.00 Build 0)  -->
<!DOCTYPE svg PUBLIC "-//W3C//DTD SVG 1.1//EN" "http://www.w3.org/Graphics/SVG/1.1/DTD/svg11.dtd">
<svg version="1.1" id="Layer_1" xmlns="http://www.w3.org/2000/svg" xmlns:xlink="http://www.w3.org/1999/xlink" x="0px" y="0px"
	 viewBox="0 0 48 48" enable-background="new 0 0 48 48" xml:space="preserve">
<g>
	<path fill="#0DB89A" d="M47.2,25.9c-0.2-0.2-4.4-5.4-10.6-6c-0.4,0-0.7-0.1-1.1-0.1c-2.5,0-4.9,0.8-7.2,2.4c0-0.1,0-0.1,0-0.2
		c0.3-3.3,1.4-5.9,3.5-7.6c2.8-2.3,6.6-2.7,8.6-2.7c0.6,0,1,0,1.1,0c0,0,0.1,0,0.1,0c0.7,0,1.3-0.5,1.4-1.3c0.1-0.8-0.5-1.5-1.3-1.6
		c0,0-0.6-0.1-1.4-0.1c-2.4,0-6.8,0.4-10.3,3.3c-2.2,1.9-3.7,4.4-4.3,7.5c0-0.1-0.1-0.1-0.1-0.2c-2.2-2.5-3.1-5.2-2.9-7.9
		c0.5-4.9,4.9-8.6,4.9-8.7c0.3-0.2,0.5-0.6,0.5-1c0-0.4-0.1-0.7-0.3-1c-0.3-0.3-0.7-0.5-1.1-0.5c-0.3,0-0.6,0.1-0.9,0.3
		c-0.2,0.2-5.4,4.4-6,10.6c-0.3,2.9,0.5,5.7,2.3,8.3c-0.1,0-0.1,0-0.2,0c-3.3-0.3-5.9-1.4-7.6-3.5c-3.2-3.8-2.6-9.6-2.6-9.6
		c0.1-0.8-0.5-1.5-1.3-1.6c-0.1,0-0.1,0-0.2,0C9.6,5,9,5.6,8.9,6.3c0,0.3-0.7,7,3.3,11.7c1.9,2.2,4.4,3.7,7.6,4.3
		c-0.1,0-0.1,0.1-0.2,0.1c-2.3,1.9-4.6,2.9-7.1,2.9c-0.3,0-0.5,0-0.8,0c-5-0.5-8.6-4.9-8.7-4.9c-0.3-0.3-0.7-0.5-1.1-0.5
		c-0.3,0-0.6,0.1-0.9,0.3c-0.6,0.5-0.7,1.4-0.2,2c0.2,0.2,4.4,5.4,10.6,6c0.4,0,0.7,0.1,1.1,0.1c2.5,0,4.9-0.8,7.3-2.4
		c0,0.1-0.1,0.1-0.1,0.2c-0.3,3.3-1.4,5.9-3.5,7.6c-2.8,2.3-6.6,2.7-8.6,2.7c-0.6,0-1,0-1,0c-0.1,0-0.1,0-0.2,0
		c-0.7,0-1.3,0.5-1.4,1.3c-0.1,0.8,0.5,1.5,1.3,1.6c0,0,0.5,0.1,1.4,0.1c2.4,0,6.8-0.4,10.3-3.3c2.2-1.9,3.7-4.4,4.3-7.5
		c0,0.1,0.1,0.1,0.1,0.2c2.2,2.5,3.1,5.2,2.9,7.9c-0.5,4.9-4.9,8.6-4.9,8.7c-0.6,0.5-0.7,1.4-0.2,2c0.3,0.3,0.7,0.5,1.1,0.5
		c0.3,0,0.6-0.1,0.9-0.3c0.2-0.2,5.4-4.4,6-10.6c0.3-2.9-0.5-5.7-2.3-8.3c0.1,0,0.1,0,0.2,0c3.3,0.3,5.9,1.4,7.6,3.5
		c3.2,3.8,2.6,9.6,2.6,9.6c-0.1,0.8,0.5,1.5,1.3,1.6c0.1,0,0.1,0,0.2,0c0.7,0,1.3-0.5,1.4-1.3c0-0.3,0.7-7-3.3-11.7
		c-1.9-2.2-4.4-3.7-7.6-4.3c0.1,0,0.1-0.1,0.2-0.1c2.3-1.9,4.6-2.9,7-2.9c0.3,0,0.6,0,0.8,0c5,0.5,8.6,4.9,8.7,4.9
		c0.3,0.3,0.7,0.5,1.1,0.5c0.3,0,0.6-0.1,0.9-0.3C47.6,27.4,47.7,26.5,47.2,25.9z"/>
</g>
</svg>
