<?xml version="1.0" encoding="utf-8"?>
<!-- Generator: Adobe Illustrator 18.0.0, SVG Export Plug-In . SVG Version: 6.00 Build 0)  -->
<!DOCTYPE svg PUBLIC "-//W3C//DTD SVG 1.1//EN" "http://www.w3.org/Graphics/SVG/1.1/DTD/svg11.dtd">
<svg version="1.1" id="Layer_1" xmlns="http://www.w3.org/2000/svg" xmlns:xlink="http://www.w3.org/1999/xlink" x="0px" y="0px"
	 viewBox="0 0 48 48" enable-background="new 0 0 48 48" xml:space="preserve">
<g>
	<path fill="#E77528" d="M47.5,19.7c0-3.2-1.9-5.8-4.5-6.5c0-0.1,0-0.1,0-0.2c0-4.5-3.1-8.2-7-8.2c-0.8,0-1.5,0.2-2.2,0.4
		c-1-2.8-3.4-4.8-6.1-4.8c-2.4,0-4.4,1.4-5.6,3.6c-1-1.1-2.3-1.8-3.8-1.8c-2.6,0-4.7,2-5.3,4.8c-0.6-0.2-1.2-0.4-1.8-0.4
		c-3,0-5.5,2.8-5.5,6.3c0,0.5,0.1,1,0.2,1.5c-3.1,1-5.3,4.3-5.3,8.2c0,4.7,3.3,8.5,7.4,8.5c2.5,0,4.7-1.5,6.1-3.7
		c1,0.8,2.2,1.2,3.5,1.2c1.1,0,2-0.3,2.9-0.8c0.5,3.1,2.6,5.5,5.3,5.9v13.7H30c-0.2-0.3-0.3-0.6-0.2-1c0.4-1,0.3-2.4,0.3-3.7
		c0-0.9-0.1-1.8,0-2.6c0.2-2.4,1.3-4.8,1.7-5.7c0.4-0.9,0.9-1.6,1.4-2.3c-0.2-0.3-0.2-0.6,0-0.9l0.3-0.6c0.7-1.4,1.1-2.3,1.1-3.8
		l0-0.7c0-1.2,0-2.5-0.4-3.4c-0.9,0-1.9-0.2-2.8-1c-0.4-0.4-0.8-0.7-1.1-1.1c-0.3-0.3-0.5-0.6-0.8-0.8c-0.1,0-0.1,0.1-0.2,0.1
		c-0.4,0.1-0.9,0.5-1.3,0.9c-0.4,0.3-0.8,0.6-1.2,0.9c-0.1,0-0.2,0.1-0.3,0.1c0.3,0.2,0.5,0.5,0.5,0.9c0,0.7-0.3,1.2-0.5,1.7
		c-0.1,0.3-0.3,0.6-0.3,0.8c0,0.4,0.1,0.8,0.2,1.3c0.1,0.4,0.2,0.8,0.3,1.3c0.1,0.6-0.4,1.1-0.9,1.1c0,0-0.1,0-0.1,0
		c-0.5,0-1-0.4-1-0.9c0-0.3-0.1-0.6-0.2-0.9c-0.2-0.6-0.3-1.2-0.3-2c0.1-0.6,0.3-1.1,0.5-1.5c0.2-0.3,0.3-0.6,0.3-0.8
		c0,0,0-0.1,0-0.1c-1.7,0.7-3.6,1.1-5.3,1.1c0,0,0,0,0,0c-0.6,0-1-0.4-1-1c0-0.6,0.4-1,1-1c2,0,4.2-0.7,6-1.7c0.3-0.2,0.6-0.4,1-0.7
		c0.3-0.2,0.6-0.5,0.9-0.7c-0.1-0.1-0.1-0.2-0.2-0.3c-0.2-0.3-0.5-0.6-0.7-1c-0.5-0.9-0.8-1.8-1.1-2.7c0-0.1-0.1-0.3-0.1-0.4
		c-0.5,0.2-1,0.5-1.6,0.6c-1.1,0.2-2.2-0.1-3.1-0.3c-0.5-0.1-1-0.3-1.4-0.6c-0.1,2.5-0.6,5-2.1,7.3c-1.3,2.1-2.9,3.1-4.7,3.2
		c-1.6,0.1-3.2,0-4.6-0.3c-0.1,0-0.2,0-0.3-0.1c0,1,0,1.9-0.5,2.7c-0.2,0.3-0.5,0.4-0.8,0.4c-0.2,0-0.4-0.1-0.6-0.2
		c-0.5-0.3-0.6-0.9-0.3-1.4c0.2-0.4,0.2-1.5,0.2-2.1c0-0.3,0-0.6,0-0.9c0-0.3,0.1-0.6,0.4-0.8c0.2-0.2,0.5-0.3,0.8-0.2
		c0.4,0.1,0.7,0.2,1,0.4C7.9,21.9,8.1,22,8.2,22c1.3,0.2,2.7,0.3,4.2,0.3c1.1,0,2.1-0.8,3.1-2.3c1.8-2.8,1.8-5.8,1.8-9.1
		c0-0.2,0-0.3,0-0.5c0.1-0.5,0.5-0.9,1.1-0.9c0.5,0,1,0.5,1,1c0,0.1,0,0.2,0,0.3c0.1,0.8,1.2,1.5,1.8,1.6c0.9,0.2,1.7,0.4,2.5,0.3
		c0.3,0,0.6-0.2,0.9-0.4c0.1-0.1,0.1-0.2,0.2-0.2L25,12c0.8-0.5,1.3-0.8,1.7-1.6c0.5-1.3,0.5-2.6,0.5-4.1c0-0.6,0.5-1,1-1
		c0.6,0,1,0.5,1,1c0,1.6-0.1,3.2-0.7,4.8c-0.3,0.9-0.9,1.5-1.4,1.9c0.1,0.3,0.2,0.6,0.3,0.9c0.3,0.8,0.5,1.6,0.9,2.3
		c0.2,0.3,0.4,0.5,0.6,0.8c0.1,0.1,0.2,0.3,0.3,0.4c0.3-0.1,0.6,0,0.9,0.2c0.6,0.5,1.1,1,1.6,1.6c0.3,0.4,0.7,0.7,1,1
		c0.6,0.5,1.4,0.5,2.4,0.4c0.4,0,0.6-0.4,1-1.6c0.1-0.4,0.2-0.7,0.4-1l0.2-0.4c0.4-1.1,1.2-2.8,0.7-3.7c-0.2-0.5,0-1.1,0.5-1.4
		c0.5-0.2,1.1,0,1.4,0.5c0.8,1.7-0.1,3.9-0.7,5.4l-0.2,0.4c-0.1,0.3-0.2,0.6-0.3,0.9c-0.3,1-0.7,2.3-1.9,2.8
		c0.4,1.2,0.4,2.5,0.4,3.7l0,0.7c0,1.2-0.2,2.1-0.5,3c0.1-0.1,0.2-0.1,0.3-0.2c1.5-0.6,4.4-1.2,5.9,0.3c0.4,0.4,0.4,1,0,1.4
		c-0.4,0.4-1,0.4-1.4,0c-0.6-0.6-2.4-0.4-3.7,0.1c-1.8,0.7-2.9,2.4-3.5,3.8c-0.8,1.8-1.4,3.7-1.5,5.1c-0.1,0.7,0,1.5,0,2.3
		c0,1.5,0.1,3.1-0.4,4.5c0,0.1-0.1,0.2-0.2,0.3h5v-9.3c0.9,0.5,1.8,0.7,2.8,0.7c3.9,0,7-3.6,7-8.1c0-2-0.7-3.9-1.7-5.3
		C46.4,24.3,47.5,22.2,47.5,19.7z"/>
</g>
</svg>
