<?xml version="1.0" encoding="utf-8"?>
<!-- Generator: Adobe Illustrator 18.0.0, SVG Export Plug-In . SVG Version: 6.00 Build 0)  -->
<!DOCTYPE svg PUBLIC "-//W3C//DTD SVG 1.1//EN" "http://www.w3.org/Graphics/SVG/1.1/DTD/svg11.dtd">
<svg version="1.1" id="Layer_1" xmlns="http://www.w3.org/2000/svg" xmlns:xlink="http://www.w3.org/1999/xlink" x="0px" y="0px"
	 viewBox="0 0 48 48" enable-background="new 0 0 48 48" xml:space="preserve">
<g>
	<polygon fill="#06728D" points="7.9,13.2 7.9,16.9 20.9,13.7 20.9,10.1 	"/>
	<path fill="#CFD0D1" d="M30.8,19.8V4.8h0.8c1.5,0,2.8-1,2.8-2.1c0-1.2-1.3-2.1-2.8-2.1h-0.8h-9.9h-0.8c-1.5,0-2.8,1-2.8,2.1
		c0,1.2,1.3,2.1,2.8,2.1h0.8v5.3v3.6v6.1c-5.4,2-9.3,7.2-9.3,13.4c0,7.9,6.4,14.3,14.3,14.3c7.9,0,14.3-6.4,14.3-14.3
		C40.1,27.1,36.2,21.9,30.8,19.8z"/>
</g>
</svg>
