<?xml version="1.0" encoding="utf-8"?>
<!-- Generator: Adobe Illustrator 18.0.0, SVG Export Plug-In . SVG Version: 6.00 Build 0)  -->
<!DOCTYPE svg PUBLIC "-//W3C//DTD SVG 1.1//EN" "http://www.w3.org/Graphics/SVG/1.1/DTD/svg11.dtd">
<svg version="1.1" id="Layer_1" xmlns="http://www.w3.org/2000/svg" xmlns:xlink="http://www.w3.org/1999/xlink" x="0px" y="0px"
	 viewBox="0 0 48 48" enable-background="new 0 0 48 48" xml:space="preserve">
<g>
	<path fill="#F04B36" d="M16.7,34.5c-2.2,1.1-3,3.2-3.7,4.9l-0.1,0.3c-0.6,1.6-1.4,3.5-2.7,4.2c-1,0.5-1.8,0.9-2.7,0.9
		c-0.5,0-0.9-0.2-1.5-0.4c-0.5-0.3-1.1-0.5-1.8-0.6c-0.6-0.1-1.1,0.3-1.1,0.9c-0.1,0.6,0.3,1.1,0.9,1.1c0.4,0,0.7,0.2,1.1,0.4
		c0.6,0.3,1.3,0.7,2.3,0.7c0,0,0.1,0,0.2,0c1.4,0,2.4-0.5,3.6-1.1c2-1,2.9-3.4,3.7-5.3l0.1-0.3c0.7-1.8,1.3-3.1,2.7-3.8
		c0.9-0.5,1.8-0.6,2.8-0.7c0.4-0.1,0.8-0.1,1.2-0.2L19,33.8C18.3,33.9,17.5,34.1,16.7,34.5z"/>
	<path fill="#06728D" d="M12.6,31.2c-0.6-0.1-1.2-0.2-1.8-0.3c-1.9-0.3-4.6-0.5-6.4,0.3c-1.2,0.6-3.5,2.8-3.9,4.3
		c-0.2,0.6,0.2,1.1,0.7,1.3c0.1,0,0.2,0,0.3,0c0.5,0,0.9-0.3,1-0.8c0.2-0.7,2-2.6,2.8-3c0.9-0.4,2.7-0.5,5.2-0.1
		c0.5,0.1,1.1,0.2,1.7,0.3c2.2,0.4,4.5,0.8,6.7,0.4c0,0,0.1,0.1,0.1,0.1l-1.2-2.1C16.2,31.8,14.3,31.5,12.6,31.2z"/>
	<path fill="#E77528" d="M47.4,6.4c-0.3-3.2-3.2-5.6-6.4-5.3c-3.2,0.3-5.6,3.2-5.3,6.4c0,0,0.3,3.9-1.2,7.9c-1.9,5-5.7,7.8-11.8,8.5
		c-2.3,0.3-4.1,1.9-4.9,3.9L17.5,30c0,0.2,0,0.4,0,0.6c0,0.4,0.1,0.8,0.3,1.2l1.2,2.1l2.7,1.7c0.5,0.2,1.1,0.3,1.7,0.3
		c0.2,0,0.5,0,0.7,0C44.5,33.2,48.3,15.5,47.4,6.4z"/>
	<path fill="#4DA0D8" d="M11.5,25.5c-0.2-0.2-0.4-0.4-0.7-0.6c-2.2-2.1-5.2-5-9-3.9c-0.6,0.2-0.9,0.7-0.7,1.3
		c0.2,0.5,0.7,0.9,1.3,0.7c2.7-0.8,5,1.4,7,3.4c0.2,0.2,0.5,0.4,0.7,0.7c1.6,1.5,4.6,2.9,7.4,3l0.3-2.1C15.6,28,12.8,26.7,11.5,25.5
		z"/>
</g>
</svg>
