<?xml version="1.0" encoding="utf-8"?>
<!-- Generator: Adobe Illustrator 18.0.0, SVG Export Plug-In . SVG Version: 6.00 Build 0)  -->
<!DOCTYPE svg PUBLIC "-//W3C//DTD SVG 1.1//EN" "http://www.w3.org/Graphics/SVG/1.1/DTD/svg11.dtd">
<svg version="1.1" id="Layer_1" xmlns="http://www.w3.org/2000/svg" xmlns:xlink="http://www.w3.org/1999/xlink" x="0px" y="0px"
	 viewBox="0 0 48 48" enable-background="new 0 0 48 48" xml:space="preserve">
<g>
	<path fill="#4DA0D8" d="M24,0.5C11,0.5,0.5,11,0.5,24C0.5,37,11,47.5,24,47.5C37,47.5,47.5,37,47.5,24C47.5,11,37,0.5,24,0.5z
		 M37,14.5c0.9,0,1.7,0.7,1.7,1.7c0,0.9-0.7,1.7-1.7,1.7c-0.9,0-1.7-0.7-1.7-1.7C35.3,15.3,36.1,14.5,37,14.5z M17.2,37
		c-0.2,0.3-0.5,0.5-0.9,0.5c-0.2,0-0.4-0.1-0.5-0.2c-2.5-1.6-2.8-3.1-3.3-5.6l-0.1-0.5c-0.6-3-1.1-4.1-3-3.8
		c-0.5,0.1-1.1-0.3-1.2-0.8c-0.1-0.5,0.3-1.1,0.8-1.2c4.1-0.8,5,3.2,5.4,5.4l0.1,0.5c0.5,2.4,0.7,3.2,2.4,4.3
		C17.3,35.9,17.5,36.5,17.2,37z M16.3,22.1c-0.9,0-1.7-0.7-1.7-1.7c0-0.9,0.7-1.7,1.7-1.7c0.9,0,1.7,0.7,1.7,1.7
		C18,21.4,17.2,22.1,16.3,22.1z M25.7,41.4c-0.9,0-1.7-0.7-1.7-1.7c0-0.9,0.7-1.7,1.7-1.7c0.9,0,1.7,0.7,1.7,1.7
		C27.3,40.7,26.6,41.4,25.7,41.4z M25,11.9c-0.8,0.8-1.7,1.9-3.4,2.1c-0.2,0-0.4,0-0.6,0c-1.1,0-1.9-0.5-2.5-0.9
		c-0.3-0.2-0.6-0.4-1-0.6c-1.3-0.5-2.3-0.3-3.8-0.1c-0.3,0-0.6,0.1-1,0.1c-0.6,0.1-1.1-0.3-1.1-0.9c-0.1-0.6,0.3-1.1,0.9-1.1
		c0.3,0,0.6-0.1,0.9-0.1c1.6-0.2,3-0.4,4.8,0.2c0.6,0.2,1,0.5,1.4,0.8c0.7,0.5,1.1,0.7,1.7,0.6c1-0.2,1.6-0.7,2.3-1.5
		c1-1.1,2.2-2.4,5.1-2.1c0.6,0.1,1,0.6,0.9,1.1c-0.1,0.6-0.6,1-1.1,0.9C26.5,10.3,25.9,11,25,11.9z M38,35.1c-0.2,0-0.5,0-0.7,0
		c-2.2,0-4.3-1.4-5.1-3.3c-0.4-1-0.5-1.8-0.5-2.4c-0.1-1.2-0.2-1.5-2-2.2c-0.5-0.2-0.8-0.8-0.6-1.3c0.2-0.5,0.8-0.8,1.3-0.6
		c2.8,1,3.1,2.2,3.3,3.9c0.1,0.6,0.1,1.2,0.4,1.9c0.5,1.3,2.1,2.2,3.7,2c0.6-0.1,1.1,0.3,1.1,0.9C38.9,34.5,38.5,35,38,35.1z"/>
</g>
</svg>
