<?xml version="1.0" encoding="utf-8"?>
<!-- Generator: Adobe Illustrator 18.0.0, SVG Export Plug-In . SVG Version: 6.00 Build 0)  -->
<!DOCTYPE svg PUBLIC "-//W3C//DTD SVG 1.1//EN" "http://www.w3.org/Graphics/SVG/1.1/DTD/svg11.dtd">
<svg version="1.1" id="Layer_1" xmlns="http://www.w3.org/2000/svg" xmlns:xlink="http://www.w3.org/1999/xlink" x="0px" y="0px"
	 viewBox="0 0 48 48" enable-background="new 0 0 48 48" xml:space="preserve">
<g>
	<path fill="none" d="M23.7,13.6l-4-0.6c0-0.6-0.1-1.1-0.3-1.6L23,8.9c0.4-0.3,0.6-0.9,0.3-1.4C23,7.1,22.4,7,21.9,7.3l-3.6,2.5
		c-0.4-0.4-0.9-0.7-1.4-0.9l1-4c0.1-0.5-0.2-1-0.7-1.2c-0.5-0.1-1,0.2-1.2,0.7l-1,4.1c-0.6,0-1.3,0.2-1.9,0.4l-2.2-3.2
		C10.6,5.4,10,5.3,9.6,5.6C9.1,5.9,9,6.5,9.3,7l2.2,3.2c-0.5,0.5-0.8,1-1.1,1.6l-4.2-0.6c-0.5-0.1-1,0.3-1.1,0.8
		c-0.1,0.5,0.3,1,0.8,1.1l4,0.6c0,0.5,0.1,1.1,0.3,1.6l-3.6,2.5c-0.4,0.3-0.6,0.9-0.3,1.4c0.2,0.3,0.5,0.4,0.8,0.4
		c0.2,0,0.4-0.1,0.5-0.2l3.6-2.5c0.4,0.4,0.9,0.7,1.4,0.9l-1,4c-0.1,0.5,0.2,1,0.7,1.2c0.1,0,0.2,0,0.2,0c0.4,0,0.8-0.3,0.9-0.7
		l1-4.1c0.6,0,1.3-0.2,1.9-0.4l2.2,3.2c0.2,0.3,0.5,0.4,0.8,0.4c0.2,0,0.4-0.1,0.5-0.2c0.4-0.3,0.6-0.9,0.3-1.4l-2.2-3.2
		c0.5-0.5,0.8-1,1.1-1.6l4.2,0.6c0,0,0.1,0,0.1,0c0.5,0,0.9-0.4,1-0.8C24.6,14.1,24.3,13.7,23.7,13.6z"/>
	<path fill="#F04B36" d="M31.3,5.9c-3.4-3.4-7.9-5.3-12.8-5.3c-4.8,0-9.4,1.9-12.8,5.3c-3.4,3.4-5.3,7.9-5.3,12.8
		c0,4.8,1.9,9.4,5.3,12.8c3.4,3.4,7.9,5.3,12.8,5.3c4.2,0,8.2-1.4,11.4-4.1l2.7-2.8C38.3,22.8,37.9,12.4,31.3,5.9z M23.6,15.5
		c0,0-0.1,0-0.1,0l-4.2-0.6c-0.3,0.6-0.6,1.1-1.1,1.6l2.2,3.2c0.3,0.4,0.2,1-0.3,1.4c-0.2,0.1-0.4,0.2-0.5,0.2
		c-0.3,0-0.6-0.1-0.8-0.4l-2.2-3.2C16,17.9,15.3,18,14.7,18l-1,4.1c-0.1,0.4-0.5,0.7-0.9,0.7c-0.1,0-0.2,0-0.2,0
		c-0.5-0.1-0.8-0.7-0.7-1.2l1-4c-0.5-0.2-1-0.5-1.4-0.9l-3.6,2.5c-0.2,0.1-0.4,0.2-0.5,0.2c-0.3,0-0.6-0.1-0.8-0.4
		c-0.3-0.4-0.2-1,0.3-1.4l3.6-2.5c-0.2-0.5-0.3-1.1-0.3-1.6l-4-0.6C5.4,13,5.1,12.6,5.1,12c0.1-0.5,0.6-0.9,1.1-0.8l4.2,0.6
		c0.3-0.6,0.6-1.1,1.1-1.6L9.3,7C9,6.5,9.1,5.9,9.6,5.6c0.4-0.3,1-0.2,1.4,0.3l2.2,3.2c0.6-0.3,1.2-0.4,1.9-0.4l1-4.1
		c0.1-0.5,0.7-0.8,1.2-0.7C17.6,3.9,18,4.5,17.8,5l-1,4c0.5,0.2,1,0.5,1.4,0.9l3.6-2.5c0.4-0.3,1-0.2,1.4,0.3c0.3,0.4,0.2,1-0.3,1.4
		l-3.6,2.5c0.2,0.5,0.3,1.1,0.3,1.6l4,0.6c0.5,0.1,0.9,0.6,0.8,1.1C24.5,15.2,24.1,15.5,23.6,15.5z"/>
	<path fill="#0DB89A" d="M32.7,29.9L30,32.6l14.2,14.2c0.4,0.4,0.9,0.6,1.4,0.6c0.5,0,1-0.2,1.4-0.6c0.8-0.8,0.8-2,0-2.7L32.7,29.9z
		"/>
</g>
</svg>
