<?xml version="1.0" encoding="utf-8"?>
<!-- Generator: Adobe Illustrator 18.0.0, SVG Export Plug-In . SVG Version: 6.00 Build 0)  -->
<!DOCTYPE svg PUBLIC "-//W3C//DTD SVG 1.1//EN" "http://www.w3.org/Graphics/SVG/1.1/DTD/svg11.dtd">
<svg version="1.1" id="Layer_1" xmlns="http://www.w3.org/2000/svg" xmlns:xlink="http://www.w3.org/1999/xlink" x="0px" y="0px"
	 viewBox="0 0 48 48" enable-background="new 0 0 48 48" xml:space="preserve">
<g>
	<path fill="#294E58" d="M45.6,28.5l-9.9-9.6c0,0,0,0,0,0l-9.8-9.6l1.9-1.8C28,7.3,28.1,7,28.1,6.8c0-0.3-0.1-0.5-0.3-0.7l-5.4-5.3
		c-0.4-0.4-1-0.4-1.4,0l-14.3,14c-0.2,0.2-0.3,0.4-0.3,0.7c0,0.3,0.1,0.5,0.3,0.7l5.4,5.3c0.4,0.4,1,0.4,1.4,0l1.9-1.8l19.7,19.3
		c1.2,1.2,2.8,1.8,4.5,1.8c1.7,0,3.3-0.6,4.5-1.8l1.5-1.5c1.2-1.2,1.9-2.8,1.9-4.4C47.5,31.3,46.8,29.7,45.6,28.5z M14.7,17.5
		l-1.9,1.8l-4.1-4L21.7,2.8l4.1,4l-1.9,1.8c-0.2,0.2-0.3,0.4-0.3,0.7c0,0.3,0.1,0.5,0.3,0.7l8.8,8.6H17.1l-1.1-1.1
		c-0.2-0.2-0.4-0.3-0.7-0.3C15.1,17.3,14.9,17.4,14.7,17.5z"/>
	<path fill="#4DA0D8" d="M8,26.3c-0.8,0.9-7.5,8.9-7.5,13.1c0,4.5,3.7,8.1,8.3,8.1c4.6,0,8.3-3.6,8.3-8.1c0-4.2-6.8-12.2-7.5-13.1
		C9.1,25.9,8.4,25.9,8,26.3z"/>
</g>
</svg>
