<?xml version="1.0" encoding="utf-8"?>
<!-- Generator: Adobe Illustrator 18.0.0, SVG Export Plug-In . SVG Version: 6.00 Build 0)  -->
<!DOCTYPE svg PUBLIC "-//W3C//DTD SVG 1.1//EN" "http://www.w3.org/Graphics/SVG/1.1/DTD/svg11.dtd">
<svg version="1.1" id="Layer_1" xmlns="http://www.w3.org/2000/svg" xmlns:xlink="http://www.w3.org/1999/xlink" x="0px" y="0px"
	 viewBox="0 0 48 48" enable-background="new 0 0 48 48" xml:space="preserve">
<g>
	<path fill="#F7A93B" d="M6.6,24.3v23.2h10.1v-9.7c0-1.1,0.2-2.2,0.7-3.2c-2.3-3-3.2-6.7-2.8-10.3H6.6z"/>
	<path fill="#0DB89A" d="M19.1,36.3c-0.1,0.5-0.2,1-0.2,1.5v9.7h10.2v-7.6c-0.3,0-0.7,0-1,0C24.7,39.9,21.6,38.6,19.1,36.3z"/>
	<path fill="#E77528" d="M36.2,34.3c2.2-2.2,3.3-5.2,3.3-8.3c0-3.1-1.2-6.1-3.3-8.3c-2.2-2.2-5-3.4-8.1-3.4c-3,0-5.9,1.2-8.1,3.4
		c-4.4,4.6-4.4,12,0,16.6c2.2,2.2,5,3.4,8.1,3.4c0.5,0,1.1,0,1.6-0.1C32.2,37.3,34.4,36.1,36.2,34.3z"/>
	<path fill="#4DA0D8" d="M24,0.5L0.5,22.2h14.6c0.6-2.2,1.7-4.2,3.4-6c2.6-2.6,5.9-4.1,9.6-4.1c3.6,0,7,1.4,9.6,4.1
		c1.6,1.7,2.8,3.7,3.4,6h6.4L24,0.5z"/>
	<path fill="#F7A93B" d="M41.4,28.7c-0.4,2.4-1.5,4.6-3.1,6.4c0.1,0.1,0.2,0.1,0.3,0.2l2.8,2.8V28.7z"/>
	<path fill="#F7A93B" d="M41.4,41.2l-4.2-4.4c-0.1-0.1-0.1-0.2-0.2-0.3c-1.7,1.5-3.6,2.5-5.7,3v8h10.1V41.2z"/>
</g>
</svg>
