<?xml version="1.0" encoding="utf-8"?>
<!-- Generator: Adobe Illustrator 18.0.0, SVG Export Plug-In . SVG Version: 6.00 Build 0)  -->
<!DOCTYPE svg PUBLIC "-//W3C//DTD SVG 1.1//EN" "http://www.w3.org/Graphics/SVG/1.1/DTD/svg11.dtd">
<svg version="1.1" id="Layer_1" xmlns="http://www.w3.org/2000/svg" xmlns:xlink="http://www.w3.org/1999/xlink" x="0px" y="0px"
	 viewBox="0 0 48 48" enable-background="new 0 0 48 48" xml:space="preserve">
<g>
	<path fill="#4DA0D8" d="M24,0.5L0.5,10.9h5.3c0.6,0,1.1,0.5,1.1,1.1v35.5h34.2V12c0-0.6,0.5-1.1,1.1-1.1h5.3L24,0.5z M16.3,42.3
		h-2.1v-5h2.1V42.3z M16.3,30.9h-2.1v-5h2.1V30.9z M16.3,19.5h-2.1v-5h2.1V19.5z M25.1,42.3h-2.1v-5h2.1V42.3z M25.1,30.9h-2.1v-5
		h2.1V30.9z M25.1,19.5h-2.1v-5h2.1V19.5z M33.9,42.3h-2.1v-5h2.1V42.3z M33.9,30.9h-2.1v-5h2.1V30.9z M33.9,19.5h-2.1v-5h2.1V19.5z
		"/>
</g>
</svg>
