<?xml version="1.0" encoding="utf-8"?>
<!-- Generator: Adobe Illustrator 18.0.0, SVG Export Plug-In . SVG Version: 6.00 Build 0)  -->
<!DOCTYPE svg PUBLIC "-//W3C//DTD SVG 1.1//EN" "http://www.w3.org/Graphics/SVG/1.1/DTD/svg11.dtd">
<svg version="1.1" id="Layer_1" xmlns="http://www.w3.org/2000/svg" xmlns:xlink="http://www.w3.org/1999/xlink" x="0px" y="0px"
	 viewBox="0 0 48 48" enable-background="new 0 0 48 48" xml:space="preserve">
<g>
	<path fill="#0DB89A" d="M24,0.5l-23.5,16h5v31h37v-31h5L24,0.5z M40.6,45.5H7.4v-29h33.2V45.5z"/>
	<path fill="#06728D" d="M14.6,41.7H16v1.5h1.9v-1.5h12.2v1.5H32v-1.5h1.3c2.1,0,3.8-1.8,3.8-3.9v-2.9c0-1.9-1.4-3.5-3.2-3.8
		l-2.9-6.9H17l-2.9,6.9c-1.9,0.3-3.3,1.9-3.3,3.8v2.9C10.8,39.9,12.5,41.7,14.6,41.7z M32.1,37.3H30v-2h2.1V37.3z M18.3,26.1h11.5
		l2.1,4.9H16.2L18.3,26.1z M15.9,35.4H18v2h-2.1V35.4z"/>
</g>
</svg>
