<?xml version="1.0" encoding="utf-8"?>
<!-- Generator: Adobe Illustrator 18.0.0, SVG Export Plug-In . SVG Version: 6.00 Build 0)  -->
<!DOCTYPE svg PUBLIC "-//W3C//DTD SVG 1.1//EN" "http://www.w3.org/Graphics/SVG/1.1/DTD/svg11.dtd">
<svg version="1.1" id="Layer_1" xmlns="http://www.w3.org/2000/svg" xmlns:xlink="http://www.w3.org/1999/xlink" x="0px" y="0px"
	 viewBox="0 0 48 48" enable-background="new 0 0 48 48" xml:space="preserve">
<g>
	<polygon fill="#E77528" points="10.7,0.5 31.7,7.2 31.7,40.8 10.7,47.5 47,47.5 47,0.5 	"/>
	<path fill="#F7A93B" d="M9.6,2.2v18.8h7.7l-2.9-2.9l4.2-4.2l7.9,7.9c0.6,0.6,0.9,1.3,0.9,2.1c0,0.8-0.3,1.5-0.9,2.1L18.6,34
		l-4.2-4.2l2.9-2.9H9.6v18.8l20.1-6.4V8.6L9.6,2.2z"/>
	<path fill="#06728D" d="M25.1,23.3l-6.5-6.5l-1.4,1.4L22,23H1v2H22l-4.8,4.8l1.4,1.4l6.5-6.5C25.5,24.3,25.5,23.7,25.1,23.3z"/>
</g>
</svg>
