<?xml version="1.0" encoding="utf-8"?>
<!-- Generator: Adobe Illustrator 18.0.0, SVG Export Plug-In . SVG Version: 6.00 Build 0)  -->
<!DOCTYPE svg PUBLIC "-//W3C//DTD SVG 1.1//EN" "http://www.w3.org/Graphics/SVG/1.1/DTD/svg11.dtd">
<svg version="1.1" id="Layer_1" xmlns="http://www.w3.org/2000/svg" xmlns:xlink="http://www.w3.org/1999/xlink" x="0px" y="0px"
	 viewBox="0 0 48 48" enable-background="new 0 0 48 48" xml:space="preserve">
<g>
	<polygon fill="#E77528" points="7,7.9 7,0.5 5,0.5 5,7.9 0.5,7.9 0.5,9.9 5,9.9 5,47.5 7,47.5 7,9.9 17.5,9.9 17.5,16.6 19.5,16.6 
		19.5,9.9 36.2,9.9 36.2,16.6 38.2,16.6 38.2,9.9 47.5,9.9 47.5,7.9 	"/>
	<path fill="#06728D" d="M35.4,22.9c0-0.7-0.5-1-1.2-1c-0.4,0-0.6,0-0.8,0.1v2H34C34.9,23.9,35.4,23.5,35.4,22.9z"/>
	<path fill="#06728D" d="M24.5,30.1L24.5,30.1c-0.1,0.4-0.2,1-0.4,1.4l-0.4,1.6h1.6l-0.5-1.6C24.8,31.1,24.6,30.5,24.5,30.1z"/>
	<path fill="#06728D" d="M40.8,13.7h-0.5v4.9h-6.1v-4.9H21.6v4.9h-6.1v-4.9H15c-2.3,0-4.1,1.8-4.1,4.1v16.4c0,2.3,1.8,4.1,4.1,4.1
		h25.8c2.3,0,4.1-1.8,4.1-4.1V17.8C44.8,15.6,43,13.7,40.8,13.7z M27.1,20.5c2.3,0,3.5,1.7,3.5,3.8c0,2.4-1.5,3.9-3.6,3.9
		c-2.2,0-3.5-1.7-3.5-3.8C23.5,22.2,24.9,20.5,27.1,20.5z M18,20.7h4.5V22h-2.8v1.7h2.7v1.4h-2.7v3H18V20.7z M17.6,36.4
		c-0.8,0-1.7-0.2-2.1-0.5l0.3-1.4c0.5,0.2,1.1,0.5,1.9,0.5c0.8,0,1.2-0.3,1.2-0.8c0-0.5-0.4-0.7-1.2-1c-1.2-0.4-2-1.1-2-2.2
		c0-1.3,1.1-2.2,2.8-2.2c0.8,0,1.5,0.2,1.9,0.4L20,30.5c-0.3-0.1-0.8-0.4-1.6-0.4c-0.7,0-1.1,0.3-1.1,0.7c0,0.5,0.4,0.7,1.4,1
		c1.3,0.5,1.9,1.2,1.9,2.2C20.6,35.3,19.7,36.4,17.6,36.4z M26.2,36.3l-0.6-1.9h-2.1L23,36.3h-1.7l2.3-7.4h2.2l2.3,7.4H26.2z
		 M33.6,36.3H29v-7.4h1.7v6h2.9V36.3z M33.4,25.2v2.9h-1.7v-7.3c0.5-0.1,1.3-0.2,2.2-0.2c1.1,0,1.9,0.2,2.4,0.6
		c0.4,0.4,0.7,0.9,0.7,1.6c0,0.9-0.7,1.6-1.3,1.8v0c0.5,0.2,0.8,0.7,1,1.4c0.2,0.8,0.5,1.8,0.6,2.1h-1.7c-0.1-0.2-0.3-0.8-0.5-1.7
		c-0.2-0.9-0.5-1.2-1.2-1.2H33.4z M39.3,36.3h-4.7v-7.4h4.6v1.4h-2.9v1.5H39v1.4h-2.7v1.8h3V36.3z"/>
	<path fill="#06728D" d="M27.1,26.9c1.1,0,1.8-1.1,1.8-2.5c0-1.3-0.6-2.5-1.8-2.5c-1.1,0-1.8,1.1-1.8,2.5
		C25.3,25.8,25.9,26.9,27.1,26.9z"/>
</g>
</svg>
