<?xml version="1.0" encoding="utf-8"?>
<!-- Generator: Adobe Illustrator 18.0.0, SVG Export Plug-In . SVG Version: 6.00 Build 0)  -->
<!DOCTYPE svg PUBLIC "-//W3C//DTD SVG 1.1//EN" "http://www.w3.org/Graphics/SVG/1.1/DTD/svg11.dtd">
<svg version="1.1" id="Layer_1" xmlns="http://www.w3.org/2000/svg" xmlns:xlink="http://www.w3.org/1999/xlink" x="0px" y="0px"
	 viewBox="0 0 48 48" enable-background="new 0 0 48 48" xml:space="preserve">
<g>
	<polygon fill="#E77528" points="12.8,15.7 13.4,15.7 42.6,15.7 43.1,15.7 28,0.5 	"/>
	<path fill="#F7A93B" d="M46,38.3c0.1,0,1.1-0.7,1.4-1.7c0.2-0.6,0-1.2-0.4-1.9c-0.9-1.5-4-0.8-5.1-0.5l-17.4,4.6l-10.3-3l0.6-2.1
		l9.7,2.9l2.1-0.6c0.4-0.6,0.4-1,0.3-1.2c-0.2-1-1.3-1.8-1.7-2.1c-2.5-1.2-9.8-4.5-12.4-4.7c-2.4-0.2-9.2,2-12.3,3.2v16.1
		c1.9-0.8,5.5-1.9,9.6-1.9c1.8,0,3.6,0.2,5.6,0.7C23.8,48.4,29.8,49,46,38.3z"/>
	<path fill="#06728D" d="M31.5,34.8v-7.3c0-2-1.6-3.7-3.5-3.7c-1.9,0-3.5,1.6-3.5,3.7V30c1,0.5,1.6,0.8,1.7,0.8
		c0.3,0.2,2.5,1.5,2.8,3.6c0,0.3,0.1,0.5,0,0.9L31.5,34.8z"/>
	<path fill="#F04B36" d="M40.5,32.4V17.9h-25v8.6c2.1,0.6,4.7,1.7,6.9,2.6v-1.6c0-3.2,2.5-5.8,5.6-5.8c3.1,0,5.6,2.6,5.6,5.8v6.8
		L40.5,32.4z"/>
</g>
</svg>
