<?xml version="1.0" encoding="utf-8"?>
<!-- Generator: Adobe Illustrator 18.0.0, SVG Export Plug-In . SVG Version: 6.00 Build 0)  -->
<!DOCTYPE svg PUBLIC "-//W3C//DTD SVG 1.1//EN" "http://www.w3.org/Graphics/SVG/1.1/DTD/svg11.dtd">
<svg version="1.1" id="Layer_1" xmlns="http://www.w3.org/2000/svg" xmlns:xlink="http://www.w3.org/1999/xlink" x="0px" y="0px"
	 viewBox="0 0 48 48" enable-background="new 0 0 48 48" xml:space="preserve">
<g>
	<path fill="#06728D" d="M24,23.1c6.2,0,11.2-5.1,11.2-11.3c0-6.2-5-11.3-11.2-11.3c-6.2,0-11.2,5.1-11.2,11.3
		C12.8,18.1,17.8,23.1,24,23.1z"/>
	<path fill="#06728D" d="M47.5,46.3C44.2,33.7,34.8,25.2,24,25.2c-10.8,0-20.2,8.5-23.5,21.1c-0.1,0.3,0,0.6,0.2,0.8
		c0.2,0.2,0.5,0.4,0.8,0.4h45c0.3,0,0.6-0.1,0.8-0.4C47.5,46.9,47.5,46.6,47.5,46.3z"/>
</g>
</svg>
