<?xml version="1.0" encoding="utf-8"?>
<!-- Generator: Adobe Illustrator 18.0.0, SVG Export Plug-In . SVG Version: 6.00 Build 0)  -->
<!DOCTYPE svg PUBLIC "-//W3C//DTD SVG 1.1//EN" "http://www.w3.org/Graphics/SVG/1.1/DTD/svg11.dtd">
<svg version="1.1" id="Layer_1" xmlns="http://www.w3.org/2000/svg" xmlns:xlink="http://www.w3.org/1999/xlink" x="0px" y="0px"
	 viewBox="0 0 48 48" enable-background="new 0 0 48 48" xml:space="preserve">
<g>
	<path fill="#E77528" d="M12.3,35.5c-2.7,0-4.9,2.2-4.9,4.9c0,2.7,2.2,4.8,4.9,4.8c2.7,0,4.9-2.2,4.9-4.8
		C17.2,37.7,15,35.5,12.3,35.5z"/>
	<path fill="#E77528" d="M38.7,35.5c-2.7,0-4.9,2.2-4.9,4.9c0,2.7,2.2,4.8,4.9,4.8c2.7,0,4.9-2.2,4.9-4.8
		C43.5,37.7,41.4,35.5,38.7,35.5z"/>
	<path fill="#F7A93B" d="M46.5,22.8h-3.3l-3.4-11.3c-0.1-0.4-0.5-0.7-0.9-0.7h-7.2c-0.1-0.2-0.3-0.3-0.5-0.4L1.7,2.8
		C1.2,2.7,0.7,3,0.5,3.5C0.4,4,0.7,4.6,1.2,4.7l28.7,7.5v19.4l0,0.9H4.8V27c0-0.5-0.4-1-1-1s-1,0.4-1,1v6.5c0,0.5,0.4,1,1,1h27h0
		h15.7c0.5,0,1-0.4,1-1v-9.7C47.5,23.3,47.1,22.8,46.5,22.8z M36.2,27.9h-2.9v-2h2.9V27.9z"/>
</g>
</svg>
