<?xml version="1.0" encoding="utf-8"?>
<!-- Generator: Adobe Illustrator 18.0.0, SVG Export Plug-In . SVG Version: 6.00 Build 0)  -->
<!DOCTYPE svg PUBLIC "-//W3C//DTD SVG 1.1//EN" "http://www.w3.org/Graphics/SVG/1.1/DTD/svg11.dtd">
<svg version="1.1" id="Layer_1" xmlns="http://www.w3.org/2000/svg" xmlns:xlink="http://www.w3.org/1999/xlink" x="0px" y="0px"
	 viewBox="0 0 48 48" enable-background="new 0 0 48 48" xml:space="preserve">
<g>
	<rect x="9.5" y="22.7" fill="none" width="2" height="18.9"/>
	<rect x="27.5" y="22.7" fill="none" width="2" height="18.9"/>
	<rect x="18.5" y="22.7" fill="none" width="2" height="18.9"/>
	<rect x="36.5" y="22.7" fill="none" width="2" height="18.9"/>
	<path fill="#CFD0D1" d="M37,16.8H11H7.5h-7v30.7h47V16.8h-7H37z M11.5,41.6h-2V22.7h2V41.6z M20.5,41.6h-2V22.7h2V41.6z M29.5,41.6
		h-2V22.7h2V41.6z M38.5,41.6h-2V22.7h2V41.6z"/>
	<polygon fill="#294E58" points="24,7.7 37,16.8 40.5,16.8 25,5.9 25,0.5 23,0.5 23,5.9 7.5,16.8 11,16.8 	"/>
</g>
</svg>
