<?xml version="1.0" encoding="utf-8"?>
<!-- Generator: Adobe Illustrator 18.0.0, SVG Export Plug-In . SVG Version: 6.00 Build 0)  -->
<!DOCTYPE svg PUBLIC "-//W3C//DTD SVG 1.1//EN" "http://www.w3.org/Graphics/SVG/1.1/DTD/svg11.dtd">
<svg version="1.1" id="Layer_1" xmlns="http://www.w3.org/2000/svg" xmlns:xlink="http://www.w3.org/1999/xlink" x="0px" y="0px"
	 viewBox="0 0 48 48" enable-background="new 0 0 48 48" xml:space="preserve">
<g>
	<rect x="8" y="0.5" fill="#F04B36" width="2.2" height="9.1"/>
	<rect x="37.8" y="0.5" fill="#F04B36" width="2.2" height="9.1"/>
	<path fill="#06728D" d="M30.8,23.5c-1.5,0-2.5,1.8-2.5,5.7c0,3.8,0.9,5.6,2.5,5.6c1.6,0,2.5-1.9,2.5-5.7
		C33.3,25.4,32.5,23.5,30.8,23.5z"/>
	<path fill="#06728D" d="M42.3,5.8v5.8h-6.7V5.8H12.4v5.8H5.7V5.8H0.5v41.7h47V5.8H42.3z M18.6,37.4h-4V24.3h-0.1l-3.4,1.5l-0.7-2.9
		l4.6-2h3.4V37.4z M30.7,37.7c-4.5,0-6.5-3.9-6.6-8.6c0-4.8,2.2-8.6,6.7-8.6c4.7,0,6.5,4,6.5,8.5C37.4,34.2,35.2,37.7,30.7,37.7z"/>
</g>
</svg>
