<?xml version="1.0" encoding="utf-8"?>
<!-- Generator: Adobe Illustrator 18.0.0, SVG Export Plug-In . SVG Version: 6.00 Build 0)  -->
<!DOCTYPE svg PUBLIC "-//W3C//DTD SVG 1.1//EN" "http://www.w3.org/Graphics/SVG/1.1/DTD/svg11.dtd">
<svg version="1.1" id="Layer_1" xmlns="http://www.w3.org/2000/svg" xmlns:xlink="http://www.w3.org/1999/xlink" x="0px" y="0px"
	 viewBox="0 0 48 48" enable-background="new 0 0 48 48" xml:space="preserve">
<g>
	<rect x="23" y="11.2" fill="#06728D" width="2" height="25.7"/>
	<path fill="#E77528" d="M47.5,24c0-2.4-1.3-4.3-3.1-4.9V6.6l-16.6,7.2v20.4l16.6,7.2V28.9C46.2,28.3,47.5,26.4,47.5,24z M44.4,26.7
		v-5.4c0.7,0.5,1.2,1.6,1.2,2.7C45.5,25.2,45.1,26.2,44.4,26.7z"/>
	<path fill="#0DB89A" d="M3.7,19.1c-1.8,0.6-3.2,2.5-3.2,4.9c0,2.4,1.3,4.3,3.2,4.9v12.5l16.6-7.2V13.8L3.7,6.6V19.1z M2.5,24
		c0-1.2,0.5-2.2,1.2-2.7v5.5C3,26.2,2.5,25.2,2.5,24z"/>
</g>
</svg>
