<?xml version="1.0" encoding="utf-8"?>
<!-- Generator: Adobe Illustrator 18.0.0, SVG Export Plug-In . SVG Version: 6.00 Build 0)  -->
<!DOCTYPE svg PUBLIC "-//W3C//DTD SVG 1.1//EN" "http://www.w3.org/Graphics/SVG/1.1/DTD/svg11.dtd">
<svg version="1.1" id="Layer_1" xmlns="http://www.w3.org/2000/svg" xmlns:xlink="http://www.w3.org/1999/xlink" x="0px" y="0px"
	 viewBox="0 0 48 48" enable-background="new 0 0 48 48" xml:space="preserve">
<g>
	<path fill="#F04B36" d="M1.9,0.5v4.7c22.5,0,40.9,18.3,40.9,40.9h4.7C47.5,21,27,0.5,1.9,0.5z"/>
	<path fill="#F04B36" d="M1.9,9.3V14C19.6,14,34,28.4,34,46.1h4.7C38.7,25.8,22.2,9.3,1.9,9.3z"/>
	<path fill="#F04B36" d="M1.9,18.1v4.7c12.9,0,23.3,10.5,23.3,23.3h4.7C29.9,30.6,17.4,18.1,1.9,18.1z"/>
	<path fill="#0DB89A" d="M9.3,29.9c-4.8,0-8.8,3.9-8.8,8.8c0,4.8,3.9,8.8,8.8,8.8c4.8,0,8.8-3.9,8.8-8.8
		C18.1,33.9,14.1,29.9,9.3,29.9z"/>
</g>
</svg>
