<?xml version="1.0" encoding="utf-8"?>
<!-- Generator: Adobe Illustrator 18.0.0, SVG Export Plug-In . SVG Version: 6.00 Build 0)  -->
<!DOCTYPE svg PUBLIC "-//W3C//DTD SVG 1.1//EN" "http://www.w3.org/Graphics/SVG/1.1/DTD/svg11.dtd">
<svg version="1.1" id="Layer_1" xmlns="http://www.w3.org/2000/svg" xmlns:xlink="http://www.w3.org/1999/xlink" x="0px" y="0px"
	 viewBox="0 0 48 48" enable-background="new 0 0 48 48" xml:space="preserve">
<g>
	<path fill="#F04B36" d="M24.7,0.5v3c6.9,0,12.5,5.6,12.5,12.5h3C40.2,7.4,33.2,0.5,24.7,0.5z"/>
	<path fill="#F04B36" d="M24.7,6.2v3c3.8,0,6.8,3.1,6.8,6.8h3C34.5,10.6,30.1,6.2,24.7,6.2z"/>
	<path fill="#06728D" d="M28,15.8c0-2.4-1.9-4.3-4.3-4.3c-2.4,0-4.3,1.9-4.3,4.3c0,1.8,1.1,3.4,2.7,4L17.4,47l2.9,0.5l3.4-19.8
		l3.4,19.8L30,47l-4.7-27.2C26.9,19.2,28,17.6,28,15.8z"/>
	<path fill="#F04B36" d="M12.5,9L9.9,7.5c-4.3,7.4-1.8,16.8,5.5,21.2l1.5-2.5C11,22.6,9,14.9,12.5,9z"/>
	<path fill="#F04B36" d="M18.3,23.8l1.5-2.5c-3.2-1.9-4.3-6.1-2.4-9.3l-2.5-1.5C12.1,15,13.7,21,18.3,23.8z"/>
</g>
</svg>
