<?xml version="1.0" encoding="utf-8"?>
<!-- Generator: Adobe Illustrator 18.0.0, SVG Export Plug-In . SVG Version: 6.00 Build 0)  -->
<!DOCTYPE svg PUBLIC "-//W3C//DTD SVG 1.1//EN" "http://www.w3.org/Graphics/SVG/1.1/DTD/svg11.dtd">
<svg version="1.1" id="Layer_1" xmlns="http://www.w3.org/2000/svg" xmlns:xlink="http://www.w3.org/1999/xlink" x="0px" y="0px"
	 viewBox="0 0 48 48" enable-background="new 0 0 48 48" xml:space="preserve">
<g>
	<path fill="#0DB89A" d="M6.8,38.7h3.3c0,1-0.5,1.9-1.3,2.3c-1.3,0.7-3.3,0.6-4.6-0.4c-1.3-1-1.8-2.6-1.5-4.5
		c0.1-0.5-0.2-1.1-0.8-1.2c-0.5-0.1-1.1,0.2-1.2,0.8c-0.5,2.7,0.3,5.1,2.2,6.5c1.1,0.8,2.5,1.3,3.9,1.3c1,0,2-0.2,2.9-0.7
		c1.5-0.8,2.3-2.3,2.4-4.1h3V4.5H6.8V38.7z"/>
	<rect x="22.4" y="11.8" fill="#06728D" width="18.5" height="3"/>
	<path fill="#F7A93B" d="M17.1,4.5v34.2h30.4V4.5H17.1z M28,33.7h-4.6v-2H28V33.7z M28,28.3h-4.6v-2H28V28.3z M28,22.9h-4.6v-2H28
		V22.9z M39.9,33.7h-4.6v-2h4.6V33.7z M39.9,28.3h-4.6v-2h4.6V28.3z M39.9,22.9h-4.6v-2h4.6V22.9z M42.9,16.8H20.4v-7h22.5V16.8z"/>
</g>
</svg>
