<?xml version="1.0" encoding="utf-8"?>
<!-- Generator: Adobe Illustrator 18.0.0, SVG Export Plug-In . SVG Version: 6.00 Build 0)  -->
<!DOCTYPE svg PUBLIC "-//W3C//DTD SVG 1.1//EN" "http://www.w3.org/Graphics/SVG/1.1/DTD/svg11.dtd">
<svg version="1.1" id="Layer_1" xmlns="http://www.w3.org/2000/svg" xmlns:xlink="http://www.w3.org/1999/xlink" x="0px" y="0px"
	 viewBox="0 0 48 48" enable-background="new 0 0 48 48" xml:space="preserve">
<g>
	<path fill="#0DB89A" d="M24,28.1c-10.1,0-18.4,8.3-18.4,18.4v1h36.8v-1C42.4,36.4,34.1,28.1,24,28.1z"/>
	<path fill="#294E58" d="M33.6,10.1c0-5.3-4.3-9.6-9.6-9.6c-5.3,0-9.6,4.3-9.6,9.6v1h19.2V10.1z"/>
	<path fill="#E77528" d="M17.2,13.6l-0.3,0.6c-0.5,1.1-0.7,2.2-0.7,3.3c0,4.3,3.5,7.8,7.8,7.8s7.8-3.5,7.8-7.8
		c0-1.1-0.2-2.2-0.7-3.3l-0.3-0.6H17.2z"/>
</g>
</svg>
