<?xml version="1.0" encoding="utf-8"?>
<!-- Generator: Adobe Illustrator 18.0.0, SVG Export Plug-In . SVG Version: 6.00 Build 0)  -->
<!DOCTYPE svg PUBLIC "-//W3C//DTD SVG 1.1//EN" "http://www.w3.org/Graphics/SVG/1.1/DTD/svg11.dtd">
<svg version="1.1" id="Layer_1" xmlns="http://www.w3.org/2000/svg" xmlns:xlink="http://www.w3.org/1999/xlink" x="0px" y="0px"
	 viewBox="0 0 48 48" enable-background="new 0 0 48 48" xml:space="preserve">
<g>
	<path fill="#F04B36" d="M47.5,47.5V12.8h-9v34.7H47.5z M41.9,19.1H44v3.4h-2.1V19.1z M41.9,28.5H44v3.4h-2.1V28.5z M41.9,37.9H44
		v3.4h-2.1V37.9z"/>
	<rect x="13.2" y="39" fill="#E77528" width="10.3" height="8.5"/>
	<path fill="#0DB89A" d="M36.3,47.5V10.7V0.5H0.5v47h10.6V36.8h14.6v10.7H36.3z M7.9,32.5H5.8v-4h2.1V32.5z M7.9,21.3H5.8v-4h2.1
		V21.3z M7.9,10.2H5.8v-4h2.1V10.2z M15.6,32.5h-2.1v-4h2.1V32.5z M15.6,21.3h-2.1v-4h2.1V21.3z M15.6,10.2h-2.1v-4h2.1V10.2z
		 M23.3,32.5h-2.1v-4h2.1V32.5z M23.3,21.3h-2.1v-4h2.1V21.3z M23.3,10.2h-2.1v-4h2.1V10.2z M28.9,6.2H31v4h-2.1V6.2z M28.9,17.4H31
		v4h-2.1V17.4z M28.9,28.6H31v4h-2.1V28.6z"/>
</g>
</svg>
