<?xml version="1.0" encoding="utf-8"?>
<!-- Generator: Adobe Illustrator 18.0.0, SVG Export Plug-In . SVG Version: 6.00 Build 0)  -->
<!DOCTYPE svg PUBLIC "-//W3C//DTD SVG 1.1//EN" "http://www.w3.org/Graphics/SVG/1.1/DTD/svg11.dtd">
<svg version="1.1" id="Layer_1" xmlns="http://www.w3.org/2000/svg" xmlns:xlink="http://www.w3.org/1999/xlink" x="0px" y="0px"
	 viewBox="0 0 48 48" enable-background="new 0 0 48 48" xml:space="preserve">
<g>
	<path fill="#F04B36" d="M33,1.4v45h14.5v-45H33z M41.8,42.4h-3.1v-2.1h3.1V42.4z M41.8,18h-3.1v-2.1h3.1V18z M41.8,9.7h-3.1V7.6
		h3.1V9.7z"/>
	<path fill="#4DA0D8" d="M19.9,0.5L0.5,40.8l13,6.7L32.8,7.2L19.9,0.5z M10.1,41.3l-2.7-1.4L8.2,38l2.7,1.4L10.1,41.3z M20.6,19.5
		L17.8,18l0.9-1.9l2.7,1.4L20.6,19.5z M21.4,10.6l0.9-1.9l2.7,1.4L24.1,12L21.4,10.6z"/>
</g>
</svg>
