<?xml version="1.0" encoding="utf-8"?>
<!-- Generator: Adobe Illustrator 18.0.0, SVG Export Plug-In . SVG Version: 6.00 Build 0)  -->
<!DOCTYPE svg PUBLIC "-//W3C//DTD SVG 1.1//EN" "http://www.w3.org/Graphics/SVG/1.1/DTD/svg11.dtd">
<svg version="1.1" id="Layer_1" xmlns="http://www.w3.org/2000/svg" xmlns:xlink="http://www.w3.org/1999/xlink" x="0px" y="0px"
	 viewBox="0 0 48 48" enable-background="new 0 0 48 48" xml:space="preserve">
<g>
	<path fill="#0DB89A" d="M9.2,9H4.6c-2.2,0-4.1,1.8-4.1,4.1v21.8c0,2.2,1.8,4.1,4.1,4.1h4.7V9z"/>
	<path fill="#E77528" d="M43.4,9H11.3v30h32.1c2.2,0,4.1-1.8,4.1-4.1V13.1C47.5,10.9,45.7,9,43.4,9z M40.2,26.9c-1.1,0-2-0.9-2-2
		c0-1.1,0.9-2,2-2c1.1,0,2,0.9,2,2C42.3,26,41.4,26.9,40.2,26.9z"/>
</g>
</svg>
