<?xml version="1.0" encoding="utf-8"?>
<!-- Generator: Adobe Illustrator 18.0.0, SVG Export Plug-In . SVG Version: 6.00 Build 0)  -->
<!DOCTYPE svg PUBLIC "-//W3C//DTD SVG 1.1//EN" "http://www.w3.org/Graphics/SVG/1.1/DTD/svg11.dtd">
<svg version="1.1" id="Layer_1" xmlns="http://www.w3.org/2000/svg" xmlns:xlink="http://www.w3.org/1999/xlink" x="0px" y="0px"
	 viewBox="0 0 48 48" enable-background="new 0 0 48 48" xml:space="preserve">
<g>
	<path fill="#F04B36" d="M37.8,3.4L20.4,0.5c-1.7,0-3.2,1.8-3.2,3.9v39.2c0,2.2,1.4,3.9,3.2,3.9l17.4-2.9c1.7,0,3.2-1.8,3.2-3.9V7.4
		C41,5.2,39.6,3.4,37.8,3.4z M23.8,26c-1,0-1.8-0.9-1.8-2c0-1.1,0.8-2,1.8-2c1,0,1.8,0.9,1.8,2C25.6,25.1,24.8,26,23.8,26z"/>
	<polyline fill="#06728D" points="13.8,3.4 7,3.4 7,45.3 13.8,45.3 	"/>
</g>
</svg>
