<?xml version="1.0" encoding="utf-8"?>
<!-- Generator: Adobe Illustrator 18.0.0, SVG Export Plug-In . SVG Version: 6.00 Build 0)  -->
<!DOCTYPE svg PUBLIC "-//W3C//DTD SVG 1.1//EN" "http://www.w3.org/Graphics/SVG/1.1/DTD/svg11.dtd">
<svg version="1.1" id="Layer_1" xmlns="http://www.w3.org/2000/svg" xmlns:xlink="http://www.w3.org/1999/xlink" x="0px" y="0px"
	 viewBox="0 0 48 48" enable-background="new 0 0 48 48" xml:space="preserve">
<g>
	<rect x="0.5" y="37.2" fill="#F04B36" width="4.7" height="3.1"/>
	<rect x="11.1" y="37.2" fill="#F04B36" width="4.7" height="3.1"/>
	<rect x="21.7" y="37.2" fill="#F04B36" width="4.7" height="3.1"/>
	<rect x="32.2" y="37.2" fill="#F04B36" width="4.7" height="3.1"/>
	<rect x="42.8" y="37.2" fill="#F04B36" width="4.7" height="3.1"/>
	<rect x="5.8" y="31.3" fill="#F04B36" width="4.7" height="3.1"/>
	<rect x="16.4" y="31.3" fill="#F04B36" width="4.7" height="3.1"/>
	<rect x="26.9" y="31.3" fill="#F04B36" width="4.7" height="3.1"/>
	<rect x="37.5" y="31.3" fill="#F04B36" width="4.7" height="3.1"/>
	<rect x="0.5" y="25.4" fill="#F04B36" width="4.7" height="3.1"/>
	<rect x="11.1" y="25.4" fill="#F04B36" width="4.7" height="3.1"/>
	<rect x="21.7" y="25.4" fill="#F04B36" width="4.7" height="3.1"/>
	<rect x="32.2" y="25.4" fill="#F04B36" width="4.7" height="3.1"/>
	<rect x="42.8" y="25.4" fill="#F04B36" width="4.7" height="3.1"/>
	<rect x="5.8" y="19.5" fill="#F04B36" width="4.7" height="3.1"/>
	<rect x="16.4" y="19.5" fill="#F04B36" width="4.7" height="3.1"/>
	<rect x="26.9" y="19.5" fill="#F04B36" width="4.7" height="3.1"/>
	<rect x="37.5" y="19.5" fill="#F04B36" width="4.7" height="3.1"/>
	<rect x="0.5" y="13.7" fill="#F04B36" width="4.7" height="3.1"/>
	<rect x="11.1" y="13.7" fill="#F04B36" width="4.7" height="3.1"/>
	<rect x="21.7" y="13.7" fill="#F04B36" width="4.7" height="3.1"/>
	<rect x="32.2" y="13.7" fill="#F04B36" width="4.7" height="3.1"/>
	<rect x="42.8" y="13.7" fill="#F04B36" width="4.7" height="3.1"/>
	<rect x="5.8" y="7.8" fill="#F04B36" width="4.7" height="3.1"/>
	<rect x="16.4" y="7.8" fill="#F04B36" width="4.7" height="3.1"/>
	<rect x="26.9" y="7.8" fill="#F04B36" width="4.7" height="3.1"/>
	<rect x="37.5" y="7.8" fill="#F04B36" width="4.7" height="3.1"/>
</g>
</svg>
