<?xml version="1.0" encoding="utf-8"?>
<!-- Generator: Adobe Illustrator 18.0.0, SVG Export Plug-In . SVG Version: 6.00 Build 0)  -->
<!DOCTYPE svg PUBLIC "-//W3C//DTD SVG 1.1//EN" "http://www.w3.org/Graphics/SVG/1.1/DTD/svg11.dtd">
<svg version="1.1" id="Layer_1" xmlns="http://www.w3.org/2000/svg" xmlns:xlink="http://www.w3.org/1999/xlink" x="0px" y="0px"
	 viewBox="0 0 48 48" enable-background="new 0 0 48 48" xml:space="preserve">
<g>
	<path fill="#F7A93B" d="M24,0.5L0.5,22.2h5.4v25.3h36.1V22.2h5.4L24,0.5z M29.7,36.3c-1,1.1-2.5,1.7-4.6,1.8V41h-2.2v-2.9
		c-4-0.4-5.3-3.2-5.7-4.4l2.1-0.6c0.4,1.4,1.6,3,4.8,3c1.9,0,3.3-0.4,4-1.2c0.4-0.4,0.5-0.9,0.5-1.5c0-1.9,0-3.8-4.9-5.3
		c-5.3-1.7-5.3-5.5-5.3-5.7c0-3.2,1.6-5.3,4.5-5.9c0,0,0,0,0,0v-2.7h2.2v2.5c2,0.2,3.9,1.1,4.5,2.4l-2,0.9c-0.3-0.6-2.3-1.4-4.3-1
		c-1.8,0.4-2.8,1.7-2.8,3.8c0,0.1,0.1,2.4,3.8,3.6c5.9,1.9,6.4,4.7,6.5,7.4C30.8,34.5,30.5,35.5,29.7,36.3z"/>
</g>
</svg>
