<?xml version="1.0" encoding="utf-8"?>
<!-- Generator: Adobe Illustrator 18.0.0, SVG Export Plug-In . SVG Version: 6.00 Build 0)  -->
<!DOCTYPE svg PUBLIC "-//W3C//DTD SVG 1.1//EN" "http://www.w3.org/Graphics/SVG/1.1/DTD/svg11.dtd">
<svg version="1.1" id="Layer_1" xmlns="http://www.w3.org/2000/svg" xmlns:xlink="http://www.w3.org/1999/xlink" x="0px" y="0px"
	 viewBox="0 0 48 48" enable-background="new 0 0 48 48" xml:space="preserve">
<g>
	<polygon fill="#F04B36" points="16.1,5.8 16.1,5.8 19.6,1.8 18.1,0.5 14.9,4.1 4.3,7.8 4.3,47.5 6.3,47.5 6.3,9.2 12.1,7.2 
		10.3,9.2 11.8,10.6 16,5.9 	"/>
	
		<rect x="20.2" y="2.4" transform="matrix(-0.5951 0.8036 -0.8036 -0.5951 36.8487 -10.9777)" fill="#F7A93B" width="2" height="2.8"/>
	<rect x="25" y="6.6" transform="matrix(0.8031 0.5959 -0.5959 0.8031 9.7498 -14.2165)" fill="#F7A93B" width="2.8" height="2"/>
	
		<rect x="30.2" y="10.5" transform="matrix(0.8034 0.5955 -0.5955 0.8034 13.0517 -16.5431)" fill="#F7A93B" width="2.8" height="2"/>
	
		<rect x="35.4" y="14.3" transform="matrix(0.8035 0.5954 -0.5954 0.8035 16.3614 -18.8761)" fill="#F7A93B" width="2.8" height="2"/>
	<rect x="41" y="17.8" transform="matrix(0.5951 -0.8036 0.8036 0.5951 1.5671 41.4928)" fill="#F7A93B" width="2" height="2.8"/>
	
		<rect x="17.7" y="5.3" transform="matrix(-0.7686 -0.6397 0.6397 -0.7686 29.712 23.2804)" fill="#F7A93B" width="2.8" height="2"/>
	<rect x="23" y="9" transform="matrix(-0.6394 0.7688 -0.7688 -0.6394 47.397 -1.4346)" fill="#F7A93B" width="2" height="2.8"/>
	<rect x="28" y="13.1" transform="matrix(-0.6394 0.7688 -0.7688 -0.6394 58.7172 1.513)" fill="#F7A93B" width="2" height="2.8"/>
	<rect x="33" y="17.2" transform="matrix(-0.6387 0.7695 -0.7695 -0.6387 70.0258 4.4246)" fill="#F7A93B" width="2" height="2.8"/>
	
		<rect x="37.5" y="21.8" transform="matrix(-0.7696 -0.6385 0.6385 -0.7696 54.3651 65.1854)" fill="#F7A93B" width="2.8" height="2"/>
	<rect x="16" y="7.3" transform="matrix(0.6873 -0.7264 0.7264 0.6873 -1.0019 15.0656)" fill="#F7A93B" width="2" height="2.8"/>
	
		<rect x="20.3" y="12.1" transform="matrix(0.7263 0.6874 -0.6874 0.7263 14.9759 -11.3169)" fill="#F7A93B" width="2.8" height="2"/>
	
		<rect x="25" y="16.6" transform="matrix(-0.7262 -0.6875 0.6875 -0.7262 33.4724 48.5256)" fill="#F7A93B" width="2.8" height="2"/>
	
		<rect x="29.7" y="21" transform="matrix(-0.7258 -0.6879 0.6879 -0.7258 38.5037 59.4455)" fill="#F7A93B" width="2.8" height="2"/>
	
		<rect x="34.4" y="25.5" transform="matrix(-0.7264 -0.6873 0.6873 -0.7264 43.5939 70.3528)" fill="#F7A93B" width="2.8" height="2"/>
	
		<rect x="13.4" y="10.3" transform="matrix(-0.6651 -0.7467 0.7467 -0.6651 16.2186 29.9147)" fill="#F7A93B" width="2.9" height="2"/>
	
		<rect x="17.7" y="15.2" transform="matrix(-0.6655 -0.7464 0.7464 -0.6655 19.8121 41.243)" fill="#F7A93B" width="2.8" height="2"/>
	
		<rect x="22.1" y="20" transform="matrix(-0.6656 -0.7463 0.7463 -0.6656 23.4042 52.5692)" fill="#F7A93B" width="2.8" height="2"/>
	
		<rect x="26.4" y="24.9" transform="matrix(-0.6653 -0.7465 0.7465 -0.6653 26.9804 63.8955)" fill="#F7A93B" width="2.8" height="2"/>
	
		<rect x="30.7" y="29.8" transform="matrix(-0.6656 -0.7463 0.7463 -0.6656 30.5796 75.2218)" fill="#F7A93B" width="2.8" height="2"/>
</g>
</svg>
