<?xml version="1.0" encoding="utf-8"?>
<!-- Generator: Adobe Illustrator 18.0.0, SVG Export Plug-In . SVG Version: 6.00 Build 0)  -->
<!DOCTYPE svg PUBLIC "-//W3C//DTD SVG 1.1//EN" "http://www.w3.org/Graphics/SVG/1.1/DTD/svg11.dtd">
<svg version="1.1" id="Layer_1" xmlns="http://www.w3.org/2000/svg" xmlns:xlink="http://www.w3.org/1999/xlink" x="0px" y="0px"
	 viewBox="0 0 48 48" enable-background="new 0 0 48 48" xml:space="preserve">
<g>
	<path fill="#06728D" d="M38,1.9c0-0.8-0.6-1.4-1.4-1.4H20.4c-0.4,0-0.7,0.2-1,0.4l-9,9c-0.3,0.3-0.4,0.6-0.4,1v35.1
		c0,0.8,0.6,1.4,1.4,1.4s1.4-0.6,1.4-1.4V11.5L21,3.4h4.6c0.6,2.8,3.1,4.9,6.2,4.9c3.5,0,6.3-2.7,6.3-6c0,0,0-0.1,0-0.1
		C38,2,38,2,38,1.9z"/>
</g>
</svg>
