<?xml version="1.0" encoding="utf-8"?>
<!-- Generator: Adobe Illustrator 18.0.0, SVG Export Plug-In . SVG Version: 6.00 Build 0)  -->
<!DOCTYPE svg PUBLIC "-//W3C//DTD SVG 1.1//EN" "http://www.w3.org/Graphics/SVG/1.1/DTD/svg11.dtd">
<svg version="1.1" id="Layer_1" xmlns="http://www.w3.org/2000/svg" xmlns:xlink="http://www.w3.org/1999/xlink" x="0px" y="0px"
	 viewBox="0 0 48 48" enable-background="new 0 0 48 48" xml:space="preserve">
<g>
	<polygon fill="#0DB89A" points="43.7,0.5 40.9,0.8 44.6,47.5 47.5,47.2 	"/>
	<polygon fill="#0DB89A" points="0.5,47.2 3.4,47.5 7.1,0.8 4.3,0.5 	"/>
	<rect x="22.6" y="0.6" fill="#0DB89A" width="2.9" height="46.9"/>
	<polygon fill="#06728D" points="33.4,41.2 33.6,46.4 36.5,46.3 36.3,41 	"/>
	<polygon fill="#06728D" points="35.7,27.9 32.8,28 33.1,33.3 35.9,33.1 	"/>
	<polygon fill="#06728D" points="35.1,14.7 32.2,14.9 32.5,20.1 35.4,20 	"/>
	<polygon fill="#06728D" points="34.5,1.6 31.7,1.7 31.9,7 34.8,6.8 	"/>
	<polygon fill="#06728D" points="13.2,6.8 16.1,7 16.3,1.7 13.5,1.6 	"/>
	<polygon fill="#06728D" points="12.6,20 15.5,20.1 15.8,14.9 12.9,14.7 	"/>
	<polygon fill="#06728D" points="12.1,33.1 14.9,33.3 15.2,28 12.3,27.9 	"/>
	<polygon fill="#06728D" points="11.5,46.3 14.4,46.4 14.6,41.2 11.7,41 	"/>
</g>
</svg>
