<?xml version="1.0" encoding="utf-8"?>
<!-- Generator: Adobe Illustrator 18.0.0, SVG Export Plug-In . SVG Version: 6.00 Build 0)  -->
<!DOCTYPE svg PUBLIC "-//W3C//DTD SVG 1.1//EN" "http://www.w3.org/Graphics/SVG/1.1/DTD/svg11.dtd">
<svg version="1.1" id="Layer_1" xmlns="http://www.w3.org/2000/svg" xmlns:xlink="http://www.w3.org/1999/xlink" x="0px" y="0px"
	 viewBox="0 0 48 48" enable-background="new 0 0 48 48" xml:space="preserve">
<g>
	<path fill="#F7A93B" d="M38.6,5.6C38.5,5.6,38.5,5.5,38.6,5.6c-0.1-0.1-0.2-0.1-0.2-0.1c-4-3.1-9-4.9-14.4-4.9
		C11,0.5,0.5,11,0.5,24c0,7.5,3.5,14.1,8.9,18.4c0,0,0,0.1,0.1,0.1c0,0,0,0,0.1,0c4,3.1,9,5,14.4,5C37,47.5,47.5,37,47.5,24
		C47.5,16.5,44,9.9,38.6,5.6z M4.3,24C4.3,13.1,13.1,4.3,24,4.3c3.9,0,7.6,1.2,10.6,3.1L10.4,38.3C6.6,34.7,4.3,29.6,4.3,24z
		 M24,43.7c-3.9,0-7.6-1.2-10.6-3.1L37.6,9.7c3.8,3.6,6.2,8.7,6.2,14.3C43.7,34.9,34.9,43.7,24,43.7z"/>
	<path fill="#F04B36" d="M9,23.5v7.1c0,0.5,0.4,0.8,0.8,0.8h2.4v1.8l8.3-10.6h-5.7l2.5-6.8h8.5l2.6-3.3H16.2c-0.7,0-1.3,0.4-1.6,1.1
		l-3.3,9H9.9C9.4,22.7,9,23.1,9,23.5z M12.2,26.3h3.4v1.7h-3.4V26.3z"/>
	<path fill="#F04B36" d="M39,30.7v-7.1c0-0.5-0.4-0.8-0.8-0.8h-1.4l-2.3-6.2L32,19.5l1.2,3.2h-3.7l-6.9,8.8h9.8v2.2
		c0,0.9,0.7,1.7,1.7,1.7c0.9,0,1.7-0.7,1.7-1.7v-2.2h2.4C38.6,31.5,39,31.1,39,30.7z M35.8,27.9h-3.4v-1.7h3.4V27.9z"/>
</g>
</svg>
