<?xml version="1.0" encoding="utf-8"?>
<!-- Generator: Adobe Illustrator 18.0.0, SVG Export Plug-In . SVG Version: 6.00 Build 0)  -->
<!DOCTYPE svg PUBLIC "-//W3C//DTD SVG 1.1//EN" "http://www.w3.org/Graphics/SVG/1.1/DTD/svg11.dtd">
<svg version="1.1" id="Layer_1" xmlns="http://www.w3.org/2000/svg" xmlns:xlink="http://www.w3.org/1999/xlink" x="0px" y="0px"
	 viewBox="0 0 48 48" enable-background="new 0 0 48 48" xml:space="preserve">
<g>
	<path fill="#F04B36" d="M20.3,37.3c0,2.6,2.1,4.7,4.7,4.7c2.6,0,4.7-2.1,4.7-4.7c0-3.2-4.1-8.3-5.8-10.4
		C22.6,28.1,20.3,34.5,20.3,37.3z"/>
	<path fill="#F04B36" d="M10.7,18.2c-2.6,0-4.7,2.1-4.7,4.7c0,2.6,2.1,4.7,4.7,4.7c2.8,0,9.2-2.3,10.4-3.6
		C18.9,22.3,13.8,18.2,10.7,18.2z"/>
	<path fill="#F04B36" d="M29.8,10.7c0-2.6-2.1-4.7-4.7-4.7c-2.6,0-4.7,2.1-4.7,4.7c0,2.8,2.3,9.2,3.6,10.4
		C25.7,18.9,29.8,13.8,29.8,10.7z"/>
	<path fill="#4DA0D8" d="M24,0.5C11,0.5,0.5,11,0.5,24C0.5,37,11,47.5,24,47.5C37,47.5,47.5,37,47.5,24C47.5,11,37,0.5,24,0.5z
		 M37.3,30.7c-1.5,0-5-0.7-8.1-2c2,2.9,3.6,5.9,3.6,8.6c0,4.3-3.5,7.8-7.8,7.8s-7.8-3.5-7.8-7.8c0-1.5,0.8-5.6,2.3-8.9
		c-3.2,1.4-7.2,2.3-8.9,2.3c-4.3,0-7.8-3.5-7.8-7.8s3.5-7.8,7.8-7.8c2.6,0,5.6,1.6,8.5,3.6c-1.3-3.1-2-6.7-2-8.1
		c0-4.3,3.5-7.8,7.8-7.8s7.8,3.5,7.8,7.8c0,2.2-1.1,4.7-2.7,7.2c2.5-1.6,5-2.7,7.2-2.7c4.3,0,7.8,3.5,7.8,7.8S41.6,30.7,37.3,30.7z"
		/>
	<path fill="#F04B36" d="M37.3,18.2c-3.2,0-8.3,4.1-10.4,5.8c1.2,1.4,7.6,3.6,10.4,3.6c2.6,0,4.7-2.1,4.7-4.7
		C42.1,20.3,39.9,18.2,37.3,18.2z"/>
</g>
</svg>
