<?xml version="1.0" encoding="utf-8"?>
<!-- Generator: Adobe Illustrator 18.0.0, SVG Export Plug-In . SVG Version: 6.00 Build 0)  -->
<!DOCTYPE svg PUBLIC "-//W3C//DTD SVG 1.1//EN" "http://www.w3.org/Graphics/SVG/1.1/DTD/svg11.dtd">
<svg version="1.1" id="Layer_1" xmlns="http://www.w3.org/2000/svg" xmlns:xlink="http://www.w3.org/1999/xlink" x="0px" y="0px"
	 viewBox="0 0 48 48" enable-background="new 0 0 48 48" xml:space="preserve">
<g>
	<path fill="#F7A93B" d="M12.6,47.5h4.1V34.9h14.6v12.6h4.1v-47H12.6V47.5z M29.2,4h2.1v2.8h-2.1V4z M29.2,12.1h2.1v2.8h-2.1V12.1z
		 M29.2,20.2h2.1V23h-2.1V20.2z M29.2,28.3h2.1v2.8h-2.1V28.3z M22.9,4h2.1v2.8h-2.1V4z M22.9,12.1h2.1v2.8h-2.1V12.1z M22.9,20.2
		h2.1V23h-2.1V20.2z M22.9,28.3h2.1v2.8h-2.1V28.3z M16.7,4h2.1v2.8h-2.1V4z M16.7,12.1h2.1v2.8h-2.1V12.1z M16.7,20.2h2.1V23h-2.1
		V20.2z M16.7,28.3h2.1v2.8h-2.1V28.3z"/>
	<rect x="18.8" y="37" fill="#0DB89A" width="10.3" height="10.5"/>
	<path fill="#4DA0D8" d="M37.5,47.5h10V11.8L37.5,2V47.5z M43.1,14.3h2.1v3.8h-2.1V14.3z M43.1,22.1h2.1v3.8h-2.1V22.1z M43.1,29.9
		h2.1v3.8h-2.1V29.9z M43.1,37.6h2.1v3.8h-2.1V37.6z M39.1,11.6h2.1v3.8h-2.1V11.6z M39.1,19.3h2.1v3.8h-2.1V19.3z M39.1,27.1h2.1
		v3.8h-2.1V27.1z M39.1,34.8h2.1v3.8h-2.1V34.8z"/>
	<path fill="#4DA0D8" d="M10.5,2l-10,9.8v35.7h10V2z M4.7,41.4H2.6v-3.8h2.1V41.4z M4.7,33.7H2.6v-3.8h2.1V33.7z M4.7,25.9H2.6v-3.8
		h2.1V25.9z M4.7,18.1H2.6v-3.8h2.1V18.1z M8.7,38.7H6.6v-3.8h2.1V38.7z M8.7,30.9H6.6v-3.8h2.1V30.9z M8.7,23.1H6.6v-3.8h2.1V23.1z
		 M8.7,15.4H6.6v-3.8h2.1V15.4z"/>
</g>
</svg>
