<?xml version="1.0" encoding="utf-8"?>
<!-- Generator: Adobe Illustrator 18.0.0, SVG Export Plug-In . SVG Version: 6.00 Build 0)  -->
<!DOCTYPE svg PUBLIC "-//W3C//DTD SVG 1.1//EN" "http://www.w3.org/Graphics/SVG/1.1/DTD/svg11.dtd">
<svg version="1.1" id="Layer_1" xmlns="http://www.w3.org/2000/svg" xmlns:xlink="http://www.w3.org/1999/xlink" x="0px" y="0px"
	 viewBox="0 0 48 48" enable-background="new 0 0 48 48" xml:space="preserve">
<g>
	<path fill="#06728D" d="M47.5,0.5H27.8v3.7C30.7,4.7,38.7,7,38.7,16.8v1.1H27.8v6.2h19.7V0.5z"/>
	<path fill="#4DA0D8" d="M27.8,36.5v11h19.7V26.2h-8C38.9,33.4,32.2,36,27.8,36.5z"/>
	<path fill="#CFD0D1" d="M0.5,47.5h25.2v-6.6c-4.4-0.1-7.7-1.3-9.8-3.7c-2-2.2-2.5-4.8-2.5-6.3H0.5V47.5z"/>
	<path fill="#0DB89A" d="M25.7,6.1l0-5.6H0.5v28.3h15L15.4,30c0,0-0.3,3.4,2,5.9c1.7,1.9,4.5,2.9,8.2,2.9v-4.3l1-0.1
		c0.4,0,9.8-0.6,10.6-8.2H25.7V15.7h10.9c-0.7-8.8-9.5-9.5-9.9-9.5L25.7,6.1z M14.3,16.3H2.6v-2.1h11.8V16.3z M14.3,12.3H2.6v-2.1
		h11.8V12.3z M14.3,8.3H2.6V6.2h11.8V8.3z M14.3,4.3H2.6V2.2h11.8V4.3z"/>
</g>
</svg>
