<?xml version="1.0" encoding="utf-8"?>
<!-- Generator: Adobe Illustrator 18.0.0, SVG Export Plug-In . SVG Version: 6.00 Build 0)  -->
<!DOCTYPE svg PUBLIC "-//W3C//DTD SVG 1.1//EN" "http://www.w3.org/Graphics/SVG/1.1/DTD/svg11.dtd">
<svg version="1.1" id="Layer_1" xmlns="http://www.w3.org/2000/svg" xmlns:xlink="http://www.w3.org/1999/xlink" x="0px" y="0px"
	 viewBox="0 0 48 48" enable-background="new 0 0 48 48" xml:space="preserve">
<g>
	<polygon fill="#0DB89A" points="47.5,18 29.4,0.5 15.8,13.6 28.8,13.6 28.8,18 46.4,18 	"/>
	<path fill="#06728D" d="M44.2,39.1V20.2H28.8v4.6c0.2,0,0.4,0,0.6,0c3.5,0,6.4,2.9,6.4,6.4v7.9H44.2z"/>
	<path fill="#F04B36" d="M28.8,27v12.1h4.8v-7.9c0-2.4-1.9-4.3-4.2-4.3C29.2,26.9,29,26.9,28.8,27z"/>
	<path fill="#4DA0D8" d="M0.5,47.5h26.1V15.8H8.5l-8,7.1V47.5z M7.1,22.5H20v2.2H7.1V22.5z M7.1,30.8H20v2.2H7.1V30.8z M7.1,39.1H20
		v2.2H7.1V39.1z"/>
</g>
</svg>
