<?xml version="1.0" encoding="utf-8"?>
<!-- Generator: Adobe Illustrator 18.0.0, SVG Export Plug-In . SVG Version: 6.00 Build 0)  -->
<!DOCTYPE svg PUBLIC "-//W3C//DTD SVG 1.1//EN" "http://www.w3.org/Graphics/SVG/1.1/DTD/svg11.dtd">
<svg version="1.1" id="Layer_1" xmlns="http://www.w3.org/2000/svg" xmlns:xlink="http://www.w3.org/1999/xlink" x="0px" y="0px"
	 viewBox="0 0 48 48" enable-background="new 0 0 48 48" xml:space="preserve">
<g>
	<path fill="#06728D" d="M27.7,18.4c-1.7,0-2.6,1.6-2.6,3.3c0,1.7,0.9,3.2,2.6,3.2c1.6,0,2.6-1.5,2.6-3.3
		C30.2,20,29.4,18.4,27.7,18.4z"/>
	<path fill="#06728D" d="M34.7,18.4c-0.5,0-0.8,0-1,0.1v3.1c0.2,0.1,0.5,0.1,0.9,0.1c1.3,0,2-0.6,2-1.7C36.6,19,35.8,18.4,34.7,18.4
		z"/>
	<path fill="#06728D" d="M24.7,0.8L24.7,0.8C24.6,0.7,24.6,0.7,24.7,0.8L24.7,0.8c-0.1-0.1-0.1-0.1-0.2-0.1c0,0-0.1-0.1-0.1-0.1
		c-0.2-0.1-0.5-0.1-0.7,0c0,0-0.1,0-0.1,0.1c-0.1,0-0.1,0.1-0.2,0.1l0,0c0,0,0,0,0,0l0,0L10.6,11.1V4.8h-2v7.9l-8.1,6.6l1.3,1.5
		l3.9-3.1v28.9c0,0.5,0.4,1,1,1H17V28.9c0-0.7,0.4-1.3,1-1.3h12.1c0.5,0,1,0.6,1,1.3v18.6h10.3c0.5,0,1-0.4,1-1V17.6l3.9,3.1
		l1.3-1.5L24.7,0.8z M12.4,25.7c-0.8,0-1.6-0.2-2.1-0.5l0.3-0.9c0.5,0.3,1.1,0.5,1.9,0.5c1.1,0,1.7-0.6,1.7-1.4
		c0-0.7-0.4-1.2-1.5-1.6c-1.3-0.5-2.1-1.1-2.1-2.2c0-1.2,1-2.1,2.6-2.1c0.8,0,1.4,0.2,1.8,0.4l-0.3,0.8c-0.3-0.1-0.8-0.4-1.5-0.4
		c-1.1,0-1.5,0.6-1.5,1.2c0,0.7,0.5,1.1,1.6,1.5c1.4,0.5,2.1,1.2,2.1,2.3C15.2,24.7,14.3,25.7,12.4,25.7z M22.6,25.6h-1v-3.7h-3.9
		v3.7h-1v-7.9h1V21h3.9v-3.3h1V25.6z M27.6,25.7c-2.1,0-3.6-1.6-3.6-4c0-2.5,1.6-4.2,3.7-4.2c2.2,0,3.6,1.7,3.6,4
		C31.3,24.3,29.6,25.7,27.6,25.7z M37,21.6c-0.5,0.6-1.4,0.9-2.5,0.9c-0.3,0-0.6,0-0.8-0.1v3.2h-1v-7.8c0.5-0.1,1.2-0.2,2-0.2
		c1,0,1.8,0.2,2.3,0.7c0.4,0.4,0.7,1,0.7,1.7C37.6,20.7,37.4,21.2,37,21.6z"/>
	<rect x="18.9" y="30.2" fill="#F04B36" width="10.1" height="17.3"/>
</g>
</svg>
