<?xml version="1.0" encoding="utf-8"?>
<!-- Generator: Adobe Illustrator 18.0.0, SVG Export Plug-In . SVG Version: 6.00 Build 0)  -->
<!DOCTYPE svg PUBLIC "-//W3C//DTD SVG 1.1//EN" "http://www.w3.org/Graphics/SVG/1.1/DTD/svg11.dtd">
<svg version="1.1" id="Layer_1" xmlns="http://www.w3.org/2000/svg" xmlns:xlink="http://www.w3.org/1999/xlink" x="0px" y="0px"
	 viewBox="0 0 48 48" enable-background="new 0 0 48 48" xml:space="preserve">
<g>
	<path fill="#0DB89A" d="M47.5,9.6v-2h-7.6V6h-2v1.5H14.7V6h-2v1.5H2.5V0.5h-2v47h2V9.6h10.2v2.1H7.1c-0.6,0-1.1,0.5-1.1,1.1v24.3
		c0,0.6,0.5,1.1,1.1,1.1h38.5c0.6,0,1.1-0.5,1.1-1.1V12.9c0-0.6-0.5-1.1-1.1-1.1h-5.6V9.6H47.5z M12.7,11.8h2v3.1h-2V11.8z
		 M11.1,18.2h1.6v2.5h2.7v-2.5H17v6.5h-1.6V22h-2.7v2.7h-1.6V18.2z M14.5,33.5l-2-1l-1.9,1.1l0.5-2l-1.7-1.3l2.3-0.2l0.9-1.9
		l0.9,1.9l2.3,0.1L14,31.5L14.5,33.5z M21.4,33.5l-2-1l-1.9,1.1l0.5-2l-1.7-1.3l2.3-0.2l0.9-1.9l0.9,1.9l2.3,0.1l-1.7,1.4L21.4,33.5
		z M18.1,21.5c0-2,1.4-3.4,3.5-3.4c2.2,0,3.4,1.5,3.4,3.3c0,2.1-1.4,3.4-3.5,3.4C19.4,24.8,18.1,23.3,18.1,21.5z M28.3,33.5l-2-1
		l-1.9,1.1l0.5-2l-1.7-1.3l2.3-0.2l0.9-1.9l0.9,1.9l2.3,0.1l-1.7,1.4L28.3,33.5z M25.3,19.4v-1.2h5.6v1.2h-2v5.3h-1.6v-5.3H25.3z
		 M35.2,33.5l-2-1l-1.9,1.1l0.5-2L30,30.2l2.3-0.2l0.9-1.9l0.9,1.9l2.3,0.1l-1.7,1.4L35.2,33.5z M36.3,24.7h-4.6v-6.5h4.5v1.2h-2.8
		v1.4H36v1.2h-2.7v1.6h3V24.7z M42.1,33.5l-2-1l-1.9,1.1l0.5-2l-1.7-1.3l2.3-0.2L40,28l0.9,1.9l2.3,0.1l-1.7,1.4L42.1,33.5z
		 M42,24.7h-4.5v-6.5h1.6v5.3H42V24.7z M39.9,14.9h-2v-3.1h2V14.9z M37.9,11.7H14.7V9.6h23.3V11.7z"/>
	<path fill="#0DB89A" d="M21.6,23.6c1.1,0,1.7-1,1.7-2.2c0-1.2-0.6-2.2-1.7-2.2c-1.1,0-1.7,1-1.7,2.2C19.9,22.7,20.5,23.6,21.6,23.6
		z"/>
</g>
</svg>
