<?xml version="1.0" encoding="utf-8"?>
<!-- Generator: Adobe Illustrator 18.0.0, SVG Export Plug-In . SVG Version: 6.00 Build 0)  -->
<!DOCTYPE svg PUBLIC "-//W3C//DTD SVG 1.1//EN" "http://www.w3.org/Graphics/SVG/1.1/DTD/svg11.dtd">
<svg version="1.1" id="Layer_1" xmlns="http://www.w3.org/2000/svg" xmlns:xlink="http://www.w3.org/1999/xlink" x="0px" y="0px"
	 viewBox="0 0 48 48" enable-background="new 0 0 48 48" xml:space="preserve">
<g>
	<polygon fill="#06728D" points="39.6,3.3 39.6,0.5 37.7,0.5 37.7,3.3 9.9,3.3 9.9,0.5 7.9,0.5 7.9,3.3 0.5,3.3 0.5,5.3 7.9,5.3 
		7.9,8.4 9.9,8.4 9.9,5.3 37.7,5.3 37.7,8.4 39.6,8.4 39.6,5.3 47.5,5.3 47.5,3.3 	"/>
	<path fill="#F04B36" d="M1.8,47.5h44.4V9.1H1.8V47.5z M37.7,12.9h2v3.4h-2V12.9z M37.8,30.8c-1.1-0.4-1.8-1-1.8-1.9
		c0-1.1,0.9-1.9,2.4-1.9c0.7,0,1.3,0.2,1.6,0.3l-0.3,1C39.5,28.2,39,28,38.4,28c-0.8,0-1.1,0.4-1.1,0.8c0,0.5,0.4,0.8,1.3,1.1
		c1.2,0.4,1.7,1,1.7,2c0,1.1-0.8,2-2.6,2c-0.7,0-1.5-0.2-1.8-0.4l0.3-1c0.4,0.2,1,0.4,1.6,0.4c0.8,0,1.2-0.4,1.2-0.9
		C39,31.5,38.7,31.2,37.8,30.8z M28.2,27.1h1.6l0.9,2.7c0.2,0.8,0.5,1.6,0.6,2.3h0c0.2-0.7,0.4-1.5,0.7-2.3l0.9-2.7h1.6l0.4,6.7
		h-1.2L33.6,31c0-0.9-0.1-1.9-0.1-2.8h0c-0.2,0.8-0.5,1.7-0.8,2.6l-1,2.9h-1l-0.9-2.9c-0.3-0.9-0.5-1.8-0.7-2.6h0
		c0,0.9-0.1,1.9-0.1,2.8l-0.2,2.7h-1.2L28.2,27.1z M23.7,27c2,0,3.1,1.5,3.1,3.4c0,2.2-1.4,3.5-3.2,3.5c-1.9,0-3.1-1.4-3.1-3.4
		C20.5,28.4,21.8,27,23.7,27z M16.6,27c2,0,3.1,1.5,3.1,3.4c0,2.2-1.4,3.5-3.2,3.5c-1.9,0-3.1-1.4-3.1-3.4
		C13.4,28.4,14.7,27,16.6,27z M12,27.6c0.4,0.3,0.6,0.8,0.6,1.3c0,0.9-0.6,1.4-1.2,1.7v0c0.5,0.2,0.8,0.6,0.9,1.3
		c0.2,0.8,0.4,1.6,0.5,1.9h-1.3c-0.1-0.2-0.3-0.7-0.5-1.6c-0.2-0.9-0.5-1.1-1.2-1.2H9.3v2.7H8v-6.6C8.5,27.1,9.2,27,9.9,27
		C10.9,27,11.5,27.2,12,27.6z M7.9,12.9h2v3.4h-2V12.9z"/>
	<path fill="#F04B36" d="M16.6,32.9c1.2,0,1.9-1.1,1.9-2.5c0-1.3-0.6-2.4-1.9-2.4c-1.2,0-1.9,1.1-1.9,2.5
		C14.7,31.8,15.4,32.9,16.6,32.9z"/>
	<path fill="#F04B36" d="M23.6,32.9c1.2,0,1.9-1.1,1.9-2.5c0-1.3-0.6-2.4-1.9-2.4c-1.2,0-1.9,1.1-1.9,2.5
		C21.8,31.8,22.5,32.9,23.6,32.9z"/>
	<path fill="#F04B36" d="M11.3,29c0-0.7-0.5-1.1-1.3-1.1c-0.4,0-0.6,0-0.8,0.1v2.1H10C10.8,30.1,11.3,29.7,11.3,29z"/>
</g>
</svg>
