<?xml version="1.0" encoding="utf-8"?>
<!-- Generator: Adobe Illustrator 18.0.0, SVG Export Plug-In . SVG Version: 6.00 Build 0)  -->
<!DOCTYPE svg PUBLIC "-//W3C//DTD SVG 1.1//EN" "http://www.w3.org/Graphics/SVG/1.1/DTD/svg11.dtd">
<svg version="1.1" id="Layer_1" xmlns="http://www.w3.org/2000/svg" xmlns:xlink="http://www.w3.org/1999/xlink" x="0px" y="0px"
	 viewBox="0 0 48 48" enable-background="new 0 0 48 48" xml:space="preserve">
<g>
	<path fill="#0DB89A" d="M7,38.5v4c0,2.8,2.3,5.1,5.1,5.1h23.9c2.8,0,5.1-2.3,5.1-5.1v-4H7z M27.4,43.4h-3v-2h3V43.4z M34.4,43.4h-3
		v-2h3V43.4z"/>
	<rect x="22" y="21.4" fill="#E77528" width="3.9" height="6.5"/>
	<polygon fill="#E77528" points="16.4,14.6 16.4,27.9 19.9,27.9 19.9,19.4 28.1,19.4 28.1,27.9 31.6,27.9 31.6,14.6 24,8.7 	"/>
	<path fill="#06728D" d="M35.9,0.5H12.1C9.2,0.5,7,2.8,7,5.6v30.8H41V5.6C41,2.8,38.8,0.5,35.9,0.5z M34.8,17l-1-0.8V30h-5.7h-8.3
		h-5.7V16.3l-1,0.8l-1.4-1.6l3.9-3V9h2.2v1.8L24,6l12.2,9.4L34.8,17z"/>
</g>
</svg>
