<?xml version="1.0" encoding="utf-8"?>
<!-- Generator: Adobe Illustrator 18.0.0, SVG Export Plug-In . SVG Version: 6.00 Build 0)  -->
<!DOCTYPE svg PUBLIC "-//W3C//DTD SVG 1.1//EN" "http://www.w3.org/Graphics/SVG/1.1/DTD/svg11.dtd">
<svg version="1.1" id="Layer_1" xmlns="http://www.w3.org/2000/svg" xmlns:xlink="http://www.w3.org/1999/xlink" x="0px" y="0px"
	 viewBox="0 0 48 48" enable-background="new 0 0 48 48" xml:space="preserve">
<g>
	<path fill="#4DA0D8" d="M24,0.5L0.5,17.8h6.3v29.7h34.4V17.8h6.3L24,0.5z M24,10.3c1.7,0,3,1.4,3,3c0,1.7-1.3,3-3,3
		c-1.7,0-3-1.4-3-3C21,11.6,22.3,10.3,24,10.3z M34.5,28.4c-0.3,0.2-0.7,0.3-1.1,0.3c-0.5,0-1.1-0.2-1.4-0.6l-2.9-3v5.1
		c0,0.1,0,0.2,0,0.3v10.8c0,0.8-0.8,1.4-1.8,1.4c-1,0-1.8-0.6-1.8-1.4v-9.4h-2.7v9.4c0,0.8-0.8,1.4-1.8,1.4S19,42.1,19,41.3V30.5
		c0-0.1,0-0.2,0-0.3v-5.1l-2.9,3c-0.4,0.4-0.9,0.6-1.4,0.6c-0.4,0-0.8-0.1-1.1-0.3c-0.8-0.5-0.9-1.4-0.3-2l6.1-6.4
		c0.2-0.3,0.4-0.5,0.7-0.7l0,0c0.3-0.3,0.8-0.5,1.3-0.6c0.3-0.1,0.5-0.1,0.8-0.1h3.8c0.3,0,0.5,0,0.8,0.1c0.5,0,1,0.2,1.3,0.6l0,0
		c0.3,0.2,0.5,0.4,0.7,0.7l6.1,6.4C35.4,27,35.2,27.9,34.5,28.4z"/>
</g>
</svg>
