<?xml version="1.0" encoding="utf-8"?>
<!-- Generator: Adobe Illustrator 18.0.0, SVG Export Plug-In . SVG Version: 6.00 Build 0)  -->
<!DOCTYPE svg PUBLIC "-//W3C//DTD SVG 1.1//EN" "http://www.w3.org/Graphics/SVG/1.1/DTD/svg11.dtd">
<svg version="1.1" id="Layer_1" xmlns="http://www.w3.org/2000/svg" xmlns:xlink="http://www.w3.org/1999/xlink" x="0px" y="0px"
	 viewBox="0 0 48 48" enable-background="new 0 0 48 48" xml:space="preserve">
<g>
	<path fill="#06728D" d="M47.5,47.5V5.3L32.9,0.5L19.1,6.6v6.2l4.6-2.1l14,4.9v31.9H47.5z M41.1,7.7h2.1v4.2h-2.1V7.7z M41.1,15.2
		h2.1v4.2h-2.1V15.2z M41.1,22.7h2.1v4.2h-2.1V22.7z M41.1,30.2h2.1v4.2h-2.1V30.2z M41.1,37.8h2.1V42h-2.1V37.8z"/>
	<path fill="#0DB89A" d="M0.5,47.5h22.1v-34L0.5,23.6V47.5z M3.5,26l14.1-4.4v2.2L3.5,28.2V26z M3.5,31.7l14.1-3v2.2l-14.1,3V31.7z
		 M3.5,37.3l14.1-1.5V38L3.5,39.5V37.3z M3.5,43h14.1v2.1H3.5V43z"/>
	<polygon fill="#E77528" points="24.8,47.5 32.3,47.5 35.6,47.5 35.6,17.1 24.8,13.3 	"/>
</g>
</svg>
