<?xml version="1.0" encoding="utf-8"?>
<!-- Generator: Adobe Illustrator 18.0.0, SVG Export Plug-In . SVG Version: 6.00 Build 0)  -->
<!DOCTYPE svg PUBLIC "-//W3C//DTD SVG 1.1//EN" "http://www.w3.org/Graphics/SVG/1.1/DTD/svg11.dtd">
<svg version="1.1" id="Layer_1" xmlns="http://www.w3.org/2000/svg" xmlns:xlink="http://www.w3.org/1999/xlink" x="0px" y="0px"
	 viewBox="0 0 48 48" enable-background="new 0 0 48 48" xml:space="preserve">
<g>
	<polygon fill="#0DB89A" points="43.4,5.2 15.7,5.2 11.6,12.3 47.5,12.3 	"/>
	<rect x="32.1" y="0.5" fill="#4DA0D8" width="6.2" height="2.8"/>
	<path fill="#F04B36" d="M15,15c0.6-0.1,1.2-0.2,1.9-0.2c5.8,0,10.5,4.8,10.5,10.8c0,3.6-1.7,6.8-4.4,8.7c3.3,1,6.2,2.6,8.3,4.8
		h12.9v-25H15V15z M32.1,22.6h6.2v8h-6.2V22.6z"/>
	<ellipse fill="#E77528" cx="16.8" cy="25.5" rx="8.5" ry="8.8"/>
	<path fill="#4DA0D8" d="M22.3,36.2l-1.9,8.4l-2.4-3.8l0.9-1.6l-2-1.7l-2,1.7l0.9,1.6l-2.4,3.8l-1.9-8.4C5.4,37.8,1,42.2,0.5,47.5
		h32.7C32.7,42.2,28.3,37.9,22.3,36.2z"/>
</g>
</svg>
