<?xml version="1.0" encoding="utf-8"?>
<!-- Generator: Adobe Illustrator 18.0.0, SVG Export Plug-In . SVG Version: 6.00 Build 0)  -->
<!DOCTYPE svg PUBLIC "-//W3C//DTD SVG 1.1//EN" "http://www.w3.org/Graphics/SVG/1.1/DTD/svg11.dtd">
<svg version="1.1" id="Layer_1" xmlns="http://www.w3.org/2000/svg" xmlns:xlink="http://www.w3.org/1999/xlink" x="0px" y="0px"
	 viewBox="0 0 48 48" enable-background="new 0 0 48 48" xml:space="preserve">
<g>
	<polygon fill="#E77528" points="6.8,35.3 4.8,35.3 4.8,38.5 2.5,38.5 2.5,35.3 0.5,35.3 0.5,43.7 2.5,43.7 2.5,40.5 4.8,40.5 
		4.8,43.7 6.8,43.7 6.8,40.5 9.9,40.5 9.9,38.5 6.8,38.5 	"/>
	<polygon fill="#E77528" points="45.5,35.3 45.5,38.5 43.4,38.5 43.4,35.3 41.5,35.3 41.5,38.5 38.3,38.5 38.3,23 43.2,23 39,20.6 
		33.7,30.3 28.1,26.4 24.8,37 18.5,32.3 13.9,39.5 9.9,36.8 9.9,43.1 38.3,43.1 38.3,40.5 41.5,40.5 41.5,43.7 43.4,43.7 43.4,40.5 
		45.5,40.5 45.5,43.7 47.5,43.7 47.5,35.3 	"/>
	<polygon fill="#06728D" points="14.2,9.4 8.2,9.4 8.2,18.9 14.2,15.9 	"/>
	<polygon fill="#4DA0D8" points="41.8,6.9 32.3,24.6 25.9,20.1 22.7,30.5 17.4,26.6 11.6,35.6 13.3,36.7 18,29.5 23.8,33.7 27,23.3 
		33,27.4 43.3,8.4 43.9,13.5 45.9,13.2 44.7,4.3 37,5.7 37.3,7.7 	"/>
	<polygon fill="#E77528" points="9.9,34.6 16.9,23.8 21.6,27.2 24.8,17 31.6,21.7 33.8,17.6 24.1,12 5,23 9.9,23 	"/>
</g>
</svg>
