<?xml version="1.0" encoding="utf-8"?>
<!-- Generator: Adobe Illustrator 18.0.0, SVG Export Plug-In . SVG Version: 6.00 Build 0)  -->
<!DOCTYPE svg PUBLIC "-//W3C//DTD SVG 1.1//EN" "http://www.w3.org/Graphics/SVG/1.1/DTD/svg11.dtd">
<svg version="1.1" id="Layer_1" xmlns="http://www.w3.org/2000/svg" xmlns:xlink="http://www.w3.org/1999/xlink" x="0px" y="0px"
	 viewBox="0 0 48 48" enable-background="new 0 0 48 48" xml:space="preserve">
<g>
	<polygon fill="#06728D" points="47.5,10.9 31.9,0.5 19.6,9.3 29.5,9.3 29.5,10.9 44.1,10.9 	"/>
	<polygon fill="#F04B36" points="2.5,40.9 9.3,46.3 9.3,40.9 	"/>
	<rect x="29.5" y="13" fill="#CFD0D1" width="12.4" height="25"/>
	<path fill="#0DB89A" d="M0.5,38.7h11v8.8h15.8v-7.4V11.5H0.5V38.7z M8.8,15.4h14.9v2.1H8.8V15.4z M8.8,21.5h14.9v2.1H8.8V21.5z
		 M8.8,27.6h14.9v2.1H8.8V27.6z M8.8,33.7h14.9v2.1H8.8V33.7z M3.7,15.4h1.6v2.1H3.7V15.4z M3.7,21.5h1.6v2.1H3.7V21.5z M3.7,27.6
		h1.6v2.1H3.7V27.6z M3.7,33.7h1.6v2.1H3.7V33.7z"/>
</g>
</svg>
