<?xml version="1.0" encoding="utf-8"?>
<!-- Generator: Adobe Illustrator 18.0.0, SVG Export Plug-In . SVG Version: 6.00 Build 0)  -->
<!DOCTYPE svg PUBLIC "-//W3C//DTD SVG 1.1//EN" "http://www.w3.org/Graphics/SVG/1.1/DTD/svg11.dtd">
<svg version="1.1" id="Layer_1" xmlns="http://www.w3.org/2000/svg" xmlns:xlink="http://www.w3.org/1999/xlink" x="0px" y="0px"
	 viewBox="0 0 48 48" enable-background="new 0 0 48 48" xml:space="preserve">
<g>
	<path fill="#E77528" d="M25.2,16.3c0.5-0.2,1,0,1.3,0.4l4.6,7.2c1.5-0.8,3.2-1.3,5-1.5V0.5H19.4v6h-2.1v-6H0.5v22.4h16.8v-5.1h2.1
		V35h-2.1v-9.9H0.5v22.4H36v0c-6.4-0.5-11.5-5.9-11.5-12.5c0-2.2,0.6-4.3,1.6-6.2l-1.6-11.3C24.4,17,24.7,16.5,25.2,16.3z"/>
	<path fill="#0DB89A" d="M47.5,35c0-5.8-4.7-10.4-10.4-10.4c-2.1,0-4.1,0.6-5.8,1.8c-0.2,0.2-0.5,0.2-0.8,0.2
		c-0.3-0.1-0.5-0.2-0.7-0.5l-2.5-3.9l1,6.8c0,0.2,0,0.5-0.1,0.7c-1,1.6-1.5,3.5-1.5,5.4c0,5.8,4.7,10.4,10.4,10.4
		C42.8,45.4,47.5,40.7,47.5,35z M40.3,39.5H39v-4c0-1.4-0.5-2.2-1.5-2.2c-0.7,0-1.3,0.5-1.5,1.2c-0.1,0.2-0.1,0.4-0.1,0.6v4.4h-1.3
		v-4.3c0-1.1-0.5-2-1.5-2c-0.8,0-1.4,0.6-1.6,1.3c-0.1,0.2-0.1,0.4-0.1,0.6v4.3h-1.3v-5.2c0-0.7,0-1.3-0.1-1.9h1.1l0.1,1.1h0
		c0.4-0.7,1.1-1.3,2.2-1.3c1,0,1.7,0.6,2,1.4h0c0.2-0.4,0.5-0.7,0.8-0.9c0.4-0.3,0.9-0.5,1.6-0.5c0.9,0,2.3,0.6,2.3,3.1V39.5z
		 M43.9,33.8h-3v-0.4l0.5-0.5c1.2-1.1,1.7-1.7,1.7-2.4c0-0.5-0.2-0.9-0.9-0.9c-0.4,0-0.8,0.2-1,0.4l-0.2-0.4
		c0.3-0.3,0.8-0.5,1.3-0.5c1,0,1.4,0.7,1.4,1.4c0,0.9-0.6,1.6-1.6,2.5l-0.4,0.3v0h2.1V33.8z"/>
</g>
</svg>
