<?xml version="1.0" encoding="utf-8"?>
<!-- Generator: Adobe Illustrator 18.0.0, SVG Export Plug-In . SVG Version: 6.00 Build 0)  -->
<!DOCTYPE svg PUBLIC "-//W3C//DTD SVG 1.1//EN" "http://www.w3.org/Graphics/SVG/1.1/DTD/svg11.dtd">
<svg version="1.1" id="Layer_1" xmlns="http://www.w3.org/2000/svg" xmlns:xlink="http://www.w3.org/1999/xlink" x="0px" y="0px"
	 viewBox="0 0 48 48" enable-background="new 0 0 48 48" xml:space="preserve">
<g>
	<polygon fill="#06728D" points="29.1,14.1 29.1,7.4 18.9,7.4 18.9,14.1 22.9,14.1 25.1,14.1 	"/>
	<polygon fill="#E8B944" points="12.8,16.2 12.8,22.9 16.8,22.9 18.9,22.9 22.9,22.9 22.9,16.2 16.8,16.2 	"/>
	<polygon fill="#E8B944" points="31.2,22.9 35.2,22.9 35.2,16.2 31.2,16.2 25.1,16.2 25.1,22.9 29.1,22.9 	"/>
	<polygon fill="#F04B36" points="0.5,33.9 0.5,40.6 10.6,40.6 10.6,33.9 4.5,33.9 	"/>
	<polygon fill="#E8B944" points="12.8,31.8 16.8,31.8 16.8,25.1 10.6,25.1 6.6,25.1 6.6,31.8 10.6,31.8 	"/>
	<polygon fill="#E8B944" points="47.5,33.9 43.5,33.9 37.4,33.9 37.4,40.6 47.5,40.6 	"/>
	<polygon fill="#E8B944" points="35.2,33.9 31.2,33.9 29.1,33.9 25.1,33.9 25.1,40.6 35.2,40.6 	"/>
	<polygon fill="#E8B944" points="22.9,33.9 18.9,33.9 16.8,33.9 12.8,33.9 12.8,40.6 22.9,40.6 	"/>
	<polygon fill="#E8B944" points="37.4,31.8 41.4,31.8 41.4,25.1 37.4,25.1 31.2,25.1 31.2,31.8 35.2,31.8 	"/>
	<polygon fill="#E77528" points="25.1,31.8 29.1,31.8 29.1,25.1 25.1,25.1 22.9,25.1 18.9,25.1 18.9,31.8 22.9,31.8 	"/>
</g>
</svg>
