<?xml version="1.0" encoding="utf-8"?>
<!-- Generator: Adobe Illustrator 18.0.0, SVG Export Plug-In . SVG Version: 6.00 Build 0)  -->
<!DOCTYPE svg PUBLIC "-//W3C//DTD SVG 1.1//EN" "http://www.w3.org/Graphics/SVG/1.1/DTD/svg11.dtd">
<svg version="1.1" id="Layer_1" xmlns="http://www.w3.org/2000/svg" xmlns:xlink="http://www.w3.org/1999/xlink" x="0px" y="0px"
	 viewBox="0 0 48 48" enable-background="new 0 0 48 48" xml:space="preserve">
<g>
	<polygon fill="#CFD0D1" points="24,0.5 0.5,14.5 47.5,14.5 	"/>
	<path fill="#0DB89A" d="M30.5,22.7c-1.9-2-4.5-3.1-7.2-3.1c-2.7,0-5.3,1.1-7.2,3.1c-4,4.1-4,10.7,0,14.8c1.9,2,4.5,3.1,7.2,3.1
		c2.4,0,4.7-0.9,6.5-2.4l9.1,9.3l1.3-1.3l-9.1-9.4C34.5,32.7,34.3,26.5,30.5,22.7z M29.2,36.2c-1.6,1.6-3.7,2.5-5.9,2.5
		c-2.2,0-4.3-0.9-5.9-2.5c-3.3-3.4-3.3-8.9,0-12.2c1.6-1.6,3.7-2.5,5.9-2.5c2.2,0,4.3,0.9,5.9,2.5C32.5,27.4,32.5,32.8,29.2,36.2z"
		/>
	<path fill="#06728D" d="M2.2,44.2h31l-3.5-3.6c-1.9,1.2-4.1,1.9-6.3,1.9c-3.2,0-6.2-1.3-8.5-3.6c-4.7-4.8-4.7-12.6,0-17.4
		c2.3-2.3,5.3-3.6,8.5-3.6c3.2,0,6.2,1.3,8.5,3.6c3.9,4.1,4.6,10.5,1.7,15.3l7.3,7.6h5V16.6H2.2V44.2z"/>
	<path fill="#E77528" d="M27.9,25.3c-1.2-1.3-2.9-2-4.6-2c-1.7,0-3.4,0.7-4.6,2c-2.6,2.7-2.6,7,0,9.6c1.2,1.3,2.9,2,4.6,2
		c1.7,0,3.4-0.7,4.6-2C30.5,32.3,30.5,27.9,27.9,25.3z"/>
</g>
</svg>
