<?xml version="1.0" encoding="utf-8"?>
<!-- Generator: Adobe Illustrator 18.0.0, SVG Export Plug-In . SVG Version: 6.00 Build 0)  -->
<!DOCTYPE svg PUBLIC "-//W3C//DTD SVG 1.1//EN" "http://www.w3.org/Graphics/SVG/1.1/DTD/svg11.dtd">
<svg version="1.1" id="Layer_1" xmlns="http://www.w3.org/2000/svg" xmlns:xlink="http://www.w3.org/1999/xlink" x="0px" y="0px"
	 viewBox="0 0 48 48" enable-background="new 0 0 48 48" xml:space="preserve">
<g>
	<polygon fill="#06728D" points="24,0.5 0.5,15.6 47.5,15.6 	"/>
	<path fill="#4DA0D8" d="M20.4,26c1,0,1.6-0.9,1.6-2c0-1-0.5-2-1.6-2c-1,0-1.6,1-1.6,2C18.9,25.1,19.4,26,20.4,26z"/>
	<path fill="#4DA0D8" d="M28.1,29.4c-0.3,0-0.5,0-0.6,0.1v1.8h0.6c0.7,0,1.1-0.4,1.1-0.9C29.2,29.7,28.7,29.4,28.1,29.4z"/>
	<path fill="#4DA0D8" d="M21.4,38.3c-0.2-0.6-0.3-1.1-0.4-1.6h0c-0.1,0.5-0.3,1-0.4,1.5l-0.8,2.5h2.6L21.4,38.3z"/>
	<path fill="#4DA0D8" d="M23.8,29.4c-1,0-1.6,1-1.6,2c0,1,0.6,2,1.6,2c1,0,1.6-0.9,1.6-2C25.3,30.4,24.8,29.4,23.8,29.4z"/>
	<path fill="#4DA0D8" d="M2.2,47.5h43.6V18.4H2.2V47.5z M30.6,44.3h-4.7v-8.5h1.1v7.6h3.6V44.3z M23.7,33.9c-1.3,0-2.2-1-2.2-2.5
		c0-1.5,1-2.6,2.3-2.6c1.3,0,2.2,1,2.2,2.5C26,33.1,25,33.9,23.7,33.9z M29.6,32.5c0.2,0.7,0.3,1.1,0.4,1.3h-0.7
		c-0.1-0.1-0.2-0.6-0.3-1.2c-0.1-0.7-0.4-0.9-1-0.9h-0.6v2.1h-0.6v-4.8C27.1,29,27.6,29,28,29c0.7,0,1.1,0.1,1.4,0.4
		c0.2,0.2,0.4,0.6,0.4,0.9c0,0.6-0.4,1.1-0.9,1.2v0C29.3,31.7,29.5,32,29.6,32.5z M36.2,39.4v0.9h-3.3v3.1h3.7v0.9h-4.8v-8.5h4.6
		v0.9h-3.5v2.7H36.2z M31.7,21.6h2.6v0.5h-2v1.5h1.9v0.5h-1.9v1.8h2.1v0.5h-2.7V21.6z M29.3,24.2c-0.8-0.3-1.3-0.7-1.3-1.4
		c0-0.8,0.6-1.3,1.6-1.3c0.5,0,0.9,0.1,1.1,0.2l-0.2,0.5C30.3,22.2,30,22,29.6,22c-0.7,0-0.9,0.4-0.9,0.7c0,0.5,0.3,0.7,1,0.9
		c0.8,0.3,1.2,0.7,1.2,1.4c0,0.8-0.6,1.4-1.7,1.4c-0.5,0-1-0.1-1.2-0.3l0.2-0.5c0.3,0.2,0.7,0.3,1.1,0.3c0.6,0,1-0.3,1-0.8
		C30.2,24.7,29.9,24.5,29.3,24.2z M23.5,21.6h0.6v2.9c0,1.1,0.5,1.6,1.1,1.6c0.7,0,1.2-0.5,1.2-1.6v-2.9h0.6v2.8
		c0,1.5-0.8,2.1-1.8,2.1c-1,0-1.7-0.6-1.7-2.1V21.6z M20.5,21.5c1.3,0,2.2,1,2.2,2.5c0,1.7-1,2.6-2.3,2.6c-1.3,0-2.2-1-2.2-2.5
		C18.2,22.5,19.2,21.5,20.5,21.5z M20.8,31.1v0.5H19v2.2h-0.6V29H21v0.5h-2v1.6H20.8z M20.3,35.8h1.3l2.9,8.5h-1.2l-0.9-2.7h-3
		l-0.9,2.7h-1.1L20.3,35.8z M13.8,21.6h0.6v2h2.4v-2h0.6v4.9h-0.6v-2.3h-2.4v2.3h-0.6V21.6z M13.8,40.4c-1.4-0.5-2.2-1.2-2.2-2.4
		c0-1.3,1.1-2.3,2.8-2.3c0.9,0,1.5,0.2,1.9,0.4L15.9,37c-0.3-0.2-0.8-0.4-1.6-0.4c-1.2,0-1.6,0.7-1.6,1.3c0,0.8,0.5,1.2,1.7,1.6
		c1.4,0.6,2.2,1.3,2.2,2.5c0,1.3-1,2.5-3,2.5c-0.8,0-1.7-0.2-2.2-0.5l0.3-0.9c0.5,0.3,1.2,0.6,2,0.6c1.1,0,1.8-0.6,1.8-1.5
		C15.5,41.3,15,40.8,13.8,40.4z"/>
</g>
</svg>
