<?xml version="1.0" encoding="utf-8"?>
<!-- Generator: Adobe Illustrator 18.0.0, SVG Export Plug-In . SVG Version: 6.00 Build 0)  -->
<!DOCTYPE svg PUBLIC "-//W3C//DTD SVG 1.1//EN" "http://www.w3.org/Graphics/SVG/1.1/DTD/svg11.dtd">
<svg version="1.1" id="Layer_1" xmlns="http://www.w3.org/2000/svg" xmlns:xlink="http://www.w3.org/1999/xlink" x="0px" y="0px"
	 viewBox="0 0 48 48" enable-background="new 0 0 48 48" xml:space="preserve">
<g>
	<path fill="#0DB89A" d="M47.5,37V17.2L34.8,8.1L16,11l12.1,8.7v27.2L47.5,37z M33.9,26.1l9.4-3.2v11.6l-9.4,4.4V26.1z"/>
	<polygon fill="#4DA0D8" points="36.1,35.5 41.2,33.1 41.2,25.9 36.1,27.6 	"/>
	<polygon fill="#CFD0D1" points="26,47.5 26,20.8 13.2,11.7 0.5,20.8 0.5,45 5.4,45.5 5.4,25.9 18.6,26.8 18.6,46.8 	"/>
	<polygon fill="#06728D" points="24,7.6 24,0.5 19.5,0.5 19.5,8.3 	"/>
	<polygon fill="#F04B36" points="16.4,46.6 16.4,28.8 7.5,28.2 7.5,45.7 	"/>
</g>
</svg>
