<?xml version="1.0" encoding="utf-8"?>
<!-- Generator: Adobe Illustrator 18.0.0, SVG Export Plug-In . SVG Version: 6.00 Build 0)  -->
<!DOCTYPE svg PUBLIC "-//W3C//DTD SVG 1.1//EN" "http://www.w3.org/Graphics/SVG/1.1/DTD/svg11.dtd">
<svg version="1.1" id="Layer_1" xmlns="http://www.w3.org/2000/svg" xmlns:xlink="http://www.w3.org/1999/xlink" x="0px" y="0px"
	 viewBox="0 0 48 48" enable-background="new 0 0 48 48" xml:space="preserve">
<g>
	<path fill="#E77528" d="M23.8,23.4h1.1h0.4l-12.4-9.9L0.5,23.4h0.4h21.7H23.8z M14.1,20.7h-2.3v-2.4h2.3V20.7z"/>
	<path fill="#4DA0D8" d="M22.7,41.3V25.6H3.2v15.7H22.7z M7.5,29.5h10.9v9.1H7.5V29.5z"/>
	<rect x="9.8" y="31.7" fill="#CFD0D1" width="6.3" height="4.6"/>
	<rect x="24.9" y="6.7" fill="#06728D" width="3.3" height="7.2"/>
	<polygon fill="#F04B36" points="40.9,16.2 30.5,16.2 22.7,16.2 19.9,16.2 29,23.4 47.5,23.4 	"/>
	<path fill="#0DB89A" d="M45.6,25.6H31.9h-6.9v15.7h20.6V25.6z M30.4,38.4h-2.3v-3.8h2.3V38.4z M30.4,32.5h-2.3v-3.8h2.3V32.5z
		 M34.4,38.4h-2.3v-3.8h2.3V38.4z M34.4,32.5h-2.3v-3.8h2.3V32.5z M38.5,38.4h-2.3v-3.8h2.3V38.4z M38.5,32.5h-2.3v-3.8h2.3V32.5z
		 M42.5,38.4h-2.3v-3.8h2.3V38.4z M42.5,32.5h-2.3v-3.8h2.3V32.5z"/>
</g>
</svg>
