<?xml version="1.0" encoding="utf-8"?>
<!-- Generator: Adobe Illustrator 18.0.0, SVG Export Plug-In . SVG Version: 6.00 Build 0)  -->
<!DOCTYPE svg PUBLIC "-//W3C//DTD SVG 1.1//EN" "http://www.w3.org/Graphics/SVG/1.1/DTD/svg11.dtd">
<svg version="1.1" id="Layer_1" xmlns="http://www.w3.org/2000/svg" xmlns:xlink="http://www.w3.org/1999/xlink" x="0px" y="0px"
	 viewBox="0 0 48 48" enable-background="new 0 0 48 48" xml:space="preserve">
<g>
	<path fill="#CFD0D1" d="M20,36.9l0.1,0l4.4,0.9l-9.2-15.4c-1-1.7-0.5-4,1.3-5.1c0.8-0.5,1.9-0.7,2.8-0.5c1,0.2,1.8,0.8,2.3,1.7
		l2.7,4.4c0.3-0.4,0.6-0.7,1-0.9c0.8-0.5,1.7-0.6,2.7-0.4c0.4,0.1,0.7,0.2,1,0.4c0.3-0.6,0.7-1.1,1.3-1.4c0.8-0.5,1.7-0.6,2.7-0.4
		c0.7,0.2,1.3,0.5,1.8,1c0-0.1,0.1-0.1,0.1-0.2h0V16H39L19.7,0.5L0.5,16h4.1v25.3h11c0-0.2,0-0.4,0-0.6C15.8,37.8,18.5,36.9,20,36.9
		z"/>
	<path fill="#F7A93B" d="M18,41.3c1,0.7,3.5,0.8,4.3,0.8l0.1,0l0.1,0c0.3,0,6.2,0.7,10.3,4.5c3.1,2.8,8.8-2,8.8-2l0.2-0.1
		c0,0,3.2-1.7,4.9-2.8c1.1-0.7,1.3-4.1-0.9-7.8L39,22.6c-0.2-0.4-0.6-0.6-1-0.7c-0.2-0.1-0.6-0.1-1,0.1c-0.7,0.4-0.8,1.4-0.4,2.1
		l1.6,2.7L36.4,28l-1.6-2.7c0,0,0,0,0,0l-1.3-2.1c-0.2-0.4-0.6-0.6-1-0.7c-0.2-0.1-0.6-0.1-1,0.1c-0.7,0.4-0.9,1.4-0.4,2.1l1.9,3.1
		l-1.9,1.1l-1.9-3.1c0,0,0,0,0,0l-0.7-1.2c-0.2-0.4-0.6-0.7-1-0.7c-0.2-0.1-0.6-0.1-1,0.1c-0.7,0.4-0.9,1.4-0.4,2.1l1,1.7l1.3,2.2
		l0,0l0.4,0.7L27,31.7l-0.4-0.7l0,0l-2.4-3.9c0,0,0,0,0,0l-4.5-7.4c-0.2-0.4-0.6-0.6-1-0.7c-0.4-0.1-0.8,0-1.1,0.2
		c-0.7,0.5-1,1.4-0.5,2.2L29,41L19.9,39c-0.5,0-2,0.3-2.1,1.8C17.7,41,17.7,41.1,18,41.3z"/>
	<polygon fill="#F04B36" points="8.3,6.9 8.3,1.4 3.4,1.4 3.4,10.8 	"/>
</g>
</svg>
