<?xml version="1.0" encoding="utf-8"?>
<!-- Generator: Adobe Illustrator 18.0.0, SVG Export Plug-In . SVG Version: 6.00 Build 0)  -->
<!DOCTYPE svg PUBLIC "-//W3C//DTD SVG 1.1//EN" "http://www.w3.org/Graphics/SVG/1.1/DTD/svg11.dtd">
<svg version="1.1" id="Layer_1" xmlns="http://www.w3.org/2000/svg" xmlns:xlink="http://www.w3.org/1999/xlink" x="0px" y="0px"
	 viewBox="0 0 48 48" enable-background="new 0 0 48 48" xml:space="preserve">
<g>
	<path fill="#F7A93B" d="M32.9,24.5c0-0.7-0.5-1.1-1.4-1.1c-0.5,0-0.7,0-0.9,0.1v2.2h0.8C32.3,25.6,32.9,25.2,32.9,24.5z"/>
	<path fill="#F7A93B" d="M23.3,23.4c-1.3,0-2.1,1.2-2.1,2.7c0,1.6,0.8,2.7,2.1,2.7c1.3,0,2.1-1.2,2.1-2.7
		C25.3,24.6,24.6,23.4,23.3,23.4z"/>
	<path fill="#F7A93B" d="M12.2,33.3c-0.5,0-0.7,0-0.9,0.1v2.2h0.8c1,0,1.5-0.4,1.5-1.1C13.6,33.7,13.1,33.3,12.2,33.3z"/>
	<polygon fill="#4DA0D8" points="10.5,8.1 10.5,1.6 4.3,1.6 4.3,12.8 	"/>
	<path fill="#F7A93B" d="M24,0.5L0.5,18.6h5.2v28.9h36.7V18.6h5.2L24,0.5z M12.8,22.1H18v1.5h-3.3v1.8h3.1v1.5h-3.1v3.2h-2V22.1z
		 M13.9,40c-0.1-0.2-0.3-0.9-0.6-1.9c-0.2-1-0.6-1.3-1.4-1.3h-0.6V40H9.4v-7.9C10,32,11,31.9,12,31.9c1.3,0,2.2,0.2,2.8,0.6
		c0.5,0.4,0.8,0.9,0.8,1.7c0,1-0.8,1.7-1.5,2v0c0.6,0.2,0.9,0.8,1.2,1.5c0.3,0.9,0.5,1.9,0.7,2.2H13.9z M22.5,40H17v-8h5.3v1.5h-3.4
		v1.7h3.2v1.5h-3.2v1.9h3.5V40z M19.1,26.2c0-2.4,1.6-4.2,4.2-4.2c2.6,0,4.1,1.8,4.1,4c0,2.6-1.7,4.2-4.2,4.2
		C20.6,30.2,19.1,28.4,19.1,26.2z M30.9,40h-2l-1.8-3.1c-0.5-0.9-1.1-1.9-1.5-2.8l0,0c0.1,1.1,0.1,2.2,0.1,3.5V40h-1.8v-8h2.3
		l1.8,2.9c0.5,0.8,1,1.8,1.4,2.7h0c-0.1-1.1-0.2-2.1-0.2-3.3V32h1.8V40z M30.6,26.9v3.1h-1.9v-7.9c0.6-0.1,1.6-0.2,2.6-0.2
		c1.3,0,2.2,0.2,2.8,0.6c0.5,0.4,0.8,0.9,0.8,1.7c0,1-0.8,1.7-1.5,2v0c0.6,0.2,0.9,0.8,1.2,1.5c0.3,0.9,0.5,1.9,0.7,2.2h-2
		c-0.1-0.2-0.3-0.9-0.6-1.9c-0.2-1-0.6-1.3-1.4-1.3H30.6z M38.6,33.5h-2.4V40h-2v-6.5H32V32h6.6V33.5z"/>
</g>
</svg>
