<?xml version="1.0" encoding="utf-8"?>
<!-- Generator: Adobe Illustrator 18.0.0, SVG Export Plug-In . SVG Version: 6.00 Build 0)  -->
<!DOCTYPE svg PUBLIC "-//W3C//DTD SVG 1.1//EN" "http://www.w3.org/Graphics/SVG/1.1/DTD/svg11.dtd">
<svg version="1.1" id="Layer_1" xmlns="http://www.w3.org/2000/svg" xmlns:xlink="http://www.w3.org/1999/xlink" x="0px" y="0px"
	 viewBox="0 0 48 48" enable-background="new 0 0 48 48" xml:space="preserve">
<g>
	<path fill="#0DB89A" d="M23.6,27.7c1.3,0,2.1-1.2,2.1-2.7c0-1.4-0.7-2.7-2.1-2.7c-1.3,0-2.1,1.2-2.1,2.7
		C21.5,26.6,22.3,27.7,23.6,27.7z"/>
	<path fill="#0DB89A" d="M33.2,23.4c0-0.7-0.5-1.1-1.4-1.1c-0.5,0-0.7,0-0.9,0.1v2.2h0.8C32.7,24.6,33.2,24.1,33.2,23.4z"/>
	<path fill="#0DB89A" d="M20.6,33.3L20.6,33.3c-0.2,0.5-0.3,1.1-0.4,1.5l-0.5,1.7h1.9l-0.5-1.7C20.9,34.4,20.8,33.8,20.6,33.3z"/>
	<path fill="#0DB89A" d="M24,0.5L0.5,18.6h5.2v28.9h36.7V18.6h5.2L24,0.5z M23.6,20.9c2.6,0,4.1,1.8,4.1,4c0,2.6-1.7,4.2-4.2,4.2
		c-2.6,0-4.1-1.8-4.1-4.1C19.4,22.7,21.1,20.9,23.6,20.9z M13.1,21h5.3v1.5H15v1.8h3.1v1.5H15V29h-2V21z M12.6,40.1
		c-1,0-2-0.2-2.4-0.5l0.4-1.5c0.5,0.2,1.3,0.5,2.2,0.5c0.9,0,1.4-0.3,1.4-0.9c0-0.5-0.4-0.8-1.4-1.1c-1.4-0.5-2.4-1.2-2.4-2.4
		c0-1.4,1.2-2.4,3.3-2.4c1,0,1.7,0.2,2.2,0.4l-0.4,1.5c-0.3-0.2-1-0.4-1.8-0.4c-0.8,0-1.3,0.4-1.3,0.8c0,0.5,0.5,0.7,1.6,1.1
		c1.5,0.5,2.2,1.3,2.2,2.4C16.1,39,15,40.1,12.6,40.1z M22.6,40l-0.7-2h-2.5l-0.6,2h-2l2.6-8H22l2.7,8H22.6z M31.2,40h-5.4v-8h2v6.5
		h3.4V40z M30.9,25.9V29H29v-7.9c0.6-0.1,1.6-0.2,2.6-0.2c1.3,0,2.2,0.2,2.8,0.6c0.5,0.4,0.8,0.9,0.8,1.7c0,1-0.8,1.7-1.5,2v0
		c0.6,0.2,0.9,0.8,1.2,1.5c0.3,0.9,0.5,1.9,0.7,2.2h-2c-0.1-0.2-0.3-0.9-0.6-1.9c-0.2-1-0.6-1.3-1.4-1.3H30.9z M37.8,40h-5.5v-8h5.3
		v1.5h-3.4v1.7h3.2v1.5h-3.2v1.9h3.5V40z"/>
	<polygon fill="#F04B36" points="10.5,8.1 10.5,1.6 4.3,1.6 4.3,12.8 	"/>
</g>
</svg>
