<?xml version="1.0" encoding="utf-8"?>
<!-- Generator: Adobe Illustrator 18.0.0, SVG Export Plug-In . SVG Version: 6.00 Build 0)  -->
<!DOCTYPE svg PUBLIC "-//W3C//DTD SVG 1.1//EN" "http://www.w3.org/Graphics/SVG/1.1/DTD/svg11.dtd">
<svg version="1.1" id="Layer_1" xmlns="http://www.w3.org/2000/svg" xmlns:xlink="http://www.w3.org/1999/xlink" x="0px" y="0px"
	 viewBox="0 0 48 48" enable-background="new 0 0 48 48" xml:space="preserve">
<g>
	<path fill="#F7A93B" d="M5.5,19.5h-2H0.5l0.2,1.1C0.8,21.2,3.1,34.1,11,36.1l-1.7,1.7l1.3,1.4l2.9-2.8H31c0.1,0,0.2,0,0.3,0l3,2.8
		l1.3-1.4l-2.1-2c0.3-0.1,0.5-0.3,0.8-0.5c4.9-3.6,13.2-10.3,13.2-14.9v-1H5.5z"/>
	<path fill="#06728D" d="M5.5,12.1c0-0.8,0.6-1.4,1.4-1.4h2.2c0.8,0,1.4,0.6,1.4,1.4v1h2v-1c0-1.8-1.5-3.3-3.3-3.3H6.9
		c-1.8,0-3.3,1.5-3.3,3.3v7.4h2V12.1z"/>
</g>
</svg>
