<?xml version="1.0" encoding="utf-8"?>
<!-- Generator: Adobe Illustrator 18.0.0, SVG Export Plug-In . SVG Version: 6.00 Build 0)  -->
<!DOCTYPE svg PUBLIC "-//W3C//DTD SVG 1.1//EN" "http://www.w3.org/Graphics/SVG/1.1/DTD/svg11.dtd">
<svg version="1.1" id="Layer_1" xmlns="http://www.w3.org/2000/svg" xmlns:xlink="http://www.w3.org/1999/xlink" x="0px" y="0px"
	 viewBox="0 0 48 48" enable-background="new 0 0 48 48" xml:space="preserve">
<g>
	<path fill="#F04B36" d="M45.5,11.2c-1-2.6-3.7-4.4-6.6-4.4c-0.8,0-1.7,0.1-2.4,0.4l-5.9,2.1l-4-5.2c-1.8-2.3-5.2-3.3-8.3-2.5
		L5.7,4.9c-3,0.8-5,3.1-5,5.8v36h1.9v-36c0-1.8,1.4-3.3,3.6-3.9l12.6-3.3c2.3-0.6,5,0.1,6.2,1.8l3.6,4.7l-4.9,1.8
		c-1.8,0.6-3.2,1.9-4,3.6C19,17,19,18.9,19.6,20.6l1.8,4.6l25.9-9.4L45.5,11.2z"/>
	<rect x="24.4" y="27.8" fill="#06728D" width="1.9" height="2.2"/>
	<rect x="24.4" y="32.8" fill="#06728D" width="1.9" height="2.2"/>
	<rect x="24.4" y="37.9" fill="#06728D" width="1.9" height="2.2"/>
	<rect x="24.4" y="42.9" fill="#06728D" width="1.9" height="2.2"/>
	<rect x="30.6" y="25.3" fill="#06728D" width="1.9" height="2.2"/>
	<rect x="30.6" y="30.3" fill="#06728D" width="1.9" height="2.2"/>
	<rect x="30.6" y="35.4" fill="#06728D" width="1.9" height="2.2"/>
	<rect x="30.6" y="40.4" fill="#06728D" width="1.9" height="2.2"/>
	<rect x="36.7" y="22.8" fill="#06728D" width="1.9" height="2.2"/>
	<rect x="36.7" y="27.8" fill="#06728D" width="1.9" height="2.2"/>
	<rect x="36.7" y="32.8" fill="#06728D" width="1.9" height="2.2"/>
	<rect x="36.7" y="37.9" fill="#06728D" width="1.9" height="2.2"/>
	<rect x="42.9" y="20.3" fill="#06728D" width="1.9" height="2.2"/>
	<rect x="42.9" y="25.3" fill="#06728D" width="1.9" height="2.2"/>
	<rect x="42.9" y="30.3" fill="#06728D" width="1.9" height="2.2"/>
	<rect x="42.9" y="35.4" fill="#06728D" width="1.9" height="2.2"/>
</g>
</svg>
