<?xml version="1.0" encoding="utf-8"?>
<!-- Generator: Adobe Illustrator 18.0.0, SVG Export Plug-In . SVG Version: 6.00 Build 0)  -->
<!DOCTYPE svg PUBLIC "-//W3C//DTD SVG 1.1//EN" "http://www.w3.org/Graphics/SVG/1.1/DTD/svg11.dtd">
<svg version="1.1" id="Layer_1" xmlns="http://www.w3.org/2000/svg" xmlns:xlink="http://www.w3.org/1999/xlink" x="0px" y="0px"
	 viewBox="0 0 48 48" enable-background="new 0 0 48 48" xml:space="preserve">
<g>
	<path fill="#4DA0D8" d="M24,0.5L0.5,18.6h6.7v28.9h33.6V18.6h6.7L24,0.5z M33.8,23.2l-2-2l-1,1l1.3,1.3L30.6,25l-1.3-1.3l-6.5,6.6
		l0.8,0.8c1.1,1.1,1.7,2.6,1.7,4.2c0,1.6-0.6,3.1-1.7,4.2c-1.1,1.1-2.6,1.8-4.2,1.8c-1.6,0-3.1-0.6-4.2-1.8l-3-3.1
		c-2.3-2.3-2.3-6.1,0-8.5c1.1-1.1,2.6-1.8,4.2-1.8c1.6,0,3.1,0.6,4.2,1.8l0.8,0.8l11.5-11.6l1.5,1.5l-1,1l2,2L33.8,23.2z"/>
	<path fill="#E77528" d="M19.1,29.5c-0.7-0.7-1.7-1.1-2.7-1.1c-1,0-2,0.4-2.7,1.1c-1.5,1.5-1.5,3.9,0,5.4l3,3.1
		c1.4,1.5,3.9,1.5,5.4,0c0.7-0.7,1.1-1.7,1.1-2.7c0-1-0.4-2-1.1-2.7L19.1,29.5z"/>
	<polygon fill="#F04B36" points="11.6,8.1 11.6,1.6 6,1.6 6,11.8 	"/>
</g>
</svg>
