<?xml version="1.0" encoding="utf-8"?>
<!-- Generator: Adobe Illustrator 18.0.0, SVG Export Plug-In . SVG Version: 6.00 Build 0)  -->
<!DOCTYPE svg PUBLIC "-//W3C//DTD SVG 1.1//EN" "http://www.w3.org/Graphics/SVG/1.1/DTD/svg11.dtd">
<svg version="1.1" id="Layer_1" xmlns="http://www.w3.org/2000/svg" xmlns:xlink="http://www.w3.org/1999/xlink" x="0px" y="0px"
	 viewBox="0 0 48 48" enable-background="new 0 0 48 48" xml:space="preserve">
<g>
	<polygon fill="#F7A93B" points="24,0.5 0.5,14.7 1.5,16.4 24,2.8 46.5,16.4 47.5,14.7 	"/>
	<path fill="#06728D" d="M39.8,32.1h-0.5L35,22.7H13l-4.3,9.4H8.2c-1.9,0-3.5,1.6-3.5,3.5v6.1c0,1.9,1.6,3.5,3.5,3.5h0.1v2.3h2v-2.3
		h27.3v2.3h2v-2.3h0.1c1.9,0,3.5-1.6,3.5-3.5v-6.1C43.3,33.7,41.7,32.1,39.8,32.1z M14.3,24.7h19.5l3.4,7.4H10.9L14.3,24.7z
		 M14.4,39.7h-3.8v-2h3.8V39.7z M37.4,39.7h-3.8v-2h3.8V39.7z"/>
</g>
</svg>
