<?xml version="1.0" encoding="utf-8"?>
<!-- Generator: Adobe Illustrator 18.0.0, SVG Export Plug-In . SVG Version: 6.00 Build 0)  -->
<!DOCTYPE svg PUBLIC "-//W3C//DTD SVG 1.1//EN" "http://www.w3.org/Graphics/SVG/1.1/DTD/svg11.dtd">
<svg version="1.1" id="Layer_1" xmlns="http://www.w3.org/2000/svg" xmlns:xlink="http://www.w3.org/1999/xlink" x="0px" y="0px"
	 viewBox="0 0 48 48" enable-background="new 0 0 48 48" xml:space="preserve">
<g>
	<path fill="#E77528" d="M11.3,43h22.3v-0.2L23,36.2l-7.7-9.6l12.3,2.2l6,3.8v-32H0.5v33.3l10.7-0.1L11.3,43z M7.1,5.8h20V8h-20V5.8
		z M7.1,13.3h20v2.1h-20V13.3z M7.1,20.7h20v2.1h-20V20.7z"/>
	<path fill="#06728D" d="M46.7,45.9c0.7-1.1,0.8-1.9,0.8-2.1L26.8,30.8l-6.3-1.1l3.9,4.9l20.7,13C45.4,47.4,46.1,46.9,46.7,45.9z"/>
	<polygon fill="#4DA0D8" points="9.2,41.8 9.1,35.9 2.4,36 	"/>
</g>
</svg>
