<?xml version="1.0" encoding="utf-8"?>
<!-- Generator: Adobe Illustrator 18.0.0, SVG Export Plug-In . SVG Version: 6.00 Build 0)  -->
<!DOCTYPE svg PUBLIC "-//W3C//DTD SVG 1.1//EN" "http://www.w3.org/Graphics/SVG/1.1/DTD/svg11.dtd">
<svg version="1.1" id="Layer_1" xmlns="http://www.w3.org/2000/svg" xmlns:xlink="http://www.w3.org/1999/xlink" x="0px" y="0px"
	 viewBox="0 0 48 48" enable-background="new 0 0 48 48" xml:space="preserve">
<g>
	<path fill="#06728D" d="M39.6,6.4L45.4,6l-0.2-2l-8.9,0.8l0.8,8.9l2-0.2l-0.5-5.4c7.1,6.5,9.1,17,4.6,25.7
		c-4.6,8.9-14.9,13.5-24.6,11l-0.5,1.9c1.9,0.5,3.9,0.8,5.8,0.8c8.6,0,16.9-4.8,21-12.8C49.8,25.1,47.6,13.5,39.6,6.4z"/>
	<path fill="#06728D" d="M7.8,33.3l0.5,5.4c-6.1-6.6-7.6-16.4-3.4-24.5C9.5,5.1,20,0.5,29.8,3.2l0.5-1.9c-10.7-3-22.1,2-27.2,11.9
		c-4.6,9-2.9,19.9,4,27.1l-5.7,0.5l0.2,2l8.9-0.8l-0.8-8.9L7.8,33.3z"/>
	<polygon fill="#0DB89A" points="17.2,13.4 17.2,10.3 14.7,10.3 14.7,14.5 	"/>
	<polygon fill="#F04B36" points="34,35.6 34,19.2 40,19.2 24.7,9.8 9.4,19.2 15.4,19.2 15.4,35.6 	"/>
</g>
</svg>
