<?xml version="1.0" encoding="utf-8"?>
<!-- Generator: Adobe Illustrator 18.0.0, SVG Export Plug-In . SVG Version: 6.00 Build 0)  -->
<!DOCTYPE svg PUBLIC "-//W3C//DTD SVG 1.1//EN" "http://www.w3.org/Graphics/SVG/1.1/DTD/svg11.dtd">
<svg version="1.1" id="Layer_1" xmlns="http://www.w3.org/2000/svg" xmlns:xlink="http://www.w3.org/1999/xlink" x="0px" y="0px"
	 viewBox="0 0 48 48" enable-background="new 0 0 48 48" xml:space="preserve">
<g>
	<path fill="#4DA0D8" d="M30.3,18.5c0-2.2-1.7-4-3.7-4h-5.1c-2.1,0-3.7,1.8-3.7,4v7.2h12.6V18.5z"/>
	<path fill="#F04B36" d="M15.7,27.9h-0.3v14.9h17.2V27.9h-0.3H15.7z M25,37v3.9h-2V37c-1.4-0.5-2.5-1.9-2.5-3.5c0-2,1.6-3.7,3.5-3.7
		c1.9,0,3.5,1.7,3.5,3.7C27.5,35.1,26.4,36.5,25,37z"/>
	<ellipse fill="#F04B36" cx="24" cy="33.5" rx="1.5" ry="1.5"/>
	<path fill="#4DA0D8" d="M24,0.5L0.5,18.6H8v28.9h32V18.6h7.5L24,0.5z M34.6,44.9H13.4V25.7h2.3v-7.2c0-3.4,2.6-6.1,5.8-6.1h5.1
		c3.2,0,5.8,2.7,5.8,6.1v7.2h2.3V44.9z"/>
	<polygon fill="#E77528" points="12.2,7 12.2,1.6 6.9,1.6 6.9,10.7 	"/>
</g>
</svg>
