<?xml version="1.0" encoding="utf-8"?>
<!-- Generator: Adobe Illustrator 18.0.0, SVG Export Plug-In . SVG Version: 6.00 Build 0)  -->
<!DOCTYPE svg PUBLIC "-//W3C//DTD SVG 1.1//EN" "http://www.w3.org/Graphics/SVG/1.1/DTD/svg11.dtd">
<svg version="1.1" id="Layer_1" xmlns="http://www.w3.org/2000/svg" xmlns:xlink="http://www.w3.org/1999/xlink" x="0px" y="0px"
	 viewBox="0 0 48 48" enable-background="new 0 0 48 48" xml:space="preserve">
<g>
	<ellipse fill="#F04B36" cx="24" cy="33" rx="1.3" ry="1.3"/>
	<path fill="#06728D" d="M15.8,41.5h16.3V27.9H15.8V41.5z M24,29.5c1.9,0,3.4,1.6,3.4,3.5c0,1.5-1,2.8-2.4,3.3v3.5h-2.1v-3.5
		c-1.4-0.5-2.4-1.8-2.4-3.3C20.6,31.1,22.1,29.5,24,29.5z"/>
	<polygon fill="#F04B36" points="11.7,7.8 11.7,1.6 6.1,1.6 6.1,11.7 	"/>
	<path fill="#F7A93B" d="M24,0.5L0.5,18.6h6.8v28.9h33.4V18.6h6.8L24,0.5z M34.3,43.6H13.7V25.8h2.5l-1.5-3c-2.1-4-0.6-9,3.3-11.1
		c1.9-1,4.1-1.2,6.1-0.6c2.1,0.6,3.8,2.1,4.8,4l-1.9,1c-0.7-1.4-2-2.5-3.5-3c-1.5-0.5-3.1-0.3-4.5,0.4c-2.9,1.6-4,5.2-2.5,8.2l2.1,4
		h15.7V43.6z"/>
</g>
</svg>
