<?xml version="1.0" encoding="utf-8"?>
<!-- Generator: Adobe Illustrator 18.0.0, SVG Export Plug-In . SVG Version: 6.00 Build 0)  -->
<!DOCTYPE svg PUBLIC "-//W3C//DTD SVG 1.1//EN" "http://www.w3.org/Graphics/SVG/1.1/DTD/svg11.dtd">
<svg version="1.1" id="Layer_1" xmlns="http://www.w3.org/2000/svg" xmlns:xlink="http://www.w3.org/1999/xlink" x="0px" y="0px"
	 viewBox="0 0 48 48" enable-background="new 0 0 48 48" xml:space="preserve">
<g>
	<polygon fill="#06728D" points="16.3,3.9 13.9,3.9 13.9,7.1 16.3,5.9 	"/>
	<path fill="#0DB89A" d="M14.6,11.9v11h18.8v-11c0-0.6,0.5-1.1,1.1-1.1h2.5L24,4.5l-12.9,6.3h2.5C14.1,10.8,14.6,11.3,14.6,11.9z"/>
	<polygon fill="#F04B36" points="47.5,47.5 44.4,28.9 3.6,28.9 0.5,47.5 	"/>
	<path fill="#4DA0D8" d="M44.2,26.7V0.5H3.8v26.2H44.2z M6,10.9l5.8-2.8V1.8h6.7v3.1l5.1-2.5c0.3-0.1,0.6-0.1,0.9,0L42,10.9
		c0.5,0.2,0.7,0.7,0.6,1.2c-0.1,0.5-0.5,0.8-1,0.8h-6v11c0,0.6-0.5,1.1-1.1,1.1H13.5c-0.6,0-1.1-0.5-1.1-1.1v-11h-6
		c-0.5,0-0.9-0.3-1-0.8C5.3,11.6,5.5,11.1,6,10.9z"/>
</g>
</svg>
