<?xml version="1.0" encoding="utf-8"?>
<!-- Generator: Adobe Illustrator 18.0.0, SVG Export Plug-In . SVG Version: 6.00 Build 0)  -->
<!DOCTYPE svg PUBLIC "-//W3C//DTD SVG 1.1//EN" "http://www.w3.org/Graphics/SVG/1.1/DTD/svg11.dtd">
<svg version="1.1" id="Layer_1" xmlns="http://www.w3.org/2000/svg" xmlns:xlink="http://www.w3.org/1999/xlink" x="0px" y="0px"
	 viewBox="0 0 48 48" enable-background="new 0 0 48 48" xml:space="preserve">
<g>
	<rect x="30.8" y="38.3" fill="#294E58" width="11" height="9.2"/>
	<path fill="#06728D" d="M47.5,47.5v-28H25.1v28h3.6V36.2h15.2v11.3H47.5z M42.3,23h2.1v4.2h-2.1V23z M30.3,34.4h-2.1v-4.2h2.1V34.4
		z M30.3,27.1h-2.1V23h2.1V27.1z M37.5,34.4h-2.1v-4.2h2.1V34.4z M37.5,27.1h-2.1V23h2.1V27.1z M42.3,34.4v-4.2h2.1v4.2H42.3z"/>
	<rect x="9.7" y="37.4" fill="#4DA0D8" width="4" height="10.1"/>
	<path fill="#F04B36" d="M22.9,47.5V17.4V0.5H0.5v47h7.1V35.3h8.3v12.2H22.9z M5.6,43.6H3.4v-7.2h2.1V43.6z M5.6,32.8H3.4v-7.2h2.1
		V32.8z M5.6,22.1H3.4v-7.2h2.1V22.1z M5.6,11.3H3.4V4.1h2.1V11.3z M12.8,32.8h-2.1v-7.2h2.1V32.8z M12.8,22.1h-2.1v-7.2h2.1V22.1z
		 M12.8,11.3h-2.1V4.1h2.1V11.3z M17.6,4.1h2.1v7.2h-2.1V4.1z M17.6,14.8h2.1v7.2h-2.1V14.8z M17.6,25.6h2.1v7.2h-2.1V25.6z
		 M17.6,36.3h2.1v7.2h-2.1V36.3z"/>
</g>
</svg>
