<?xml version="1.0" encoding="utf-8"?>
<!-- Generator: Adobe Illustrator 18.0.0, SVG Export Plug-In . SVG Version: 6.00 Build 0)  -->
<!DOCTYPE svg PUBLIC "-//W3C//DTD SVG 1.1//EN" "http://www.w3.org/Graphics/SVG/1.1/DTD/svg11.dtd">
<svg version="1.1" id="Layer_1" xmlns="http://www.w3.org/2000/svg" xmlns:xlink="http://www.w3.org/1999/xlink" x="0px" y="0px"
	 viewBox="0 0 48 48" enable-background="new 0 0 48 48" xml:space="preserve">
<g>
	<path fill="#0DB89A" d="M40.2,14.7L40.2,14.7l0-14.2H0.5v47h39.7V29.3L37,35.9l-7.8,8.6l2.2-11.4L40.2,14.7z M31,25.4H8.1v-2.1H31
		V25.4z M31,17.4H8.1v-2.1H31V17.4z M31,9.4H8.1V7.3H31V9.4z"/>
	<path fill="#F04B36" d="M46.7,8.4c-0.3-0.2-0.7-0.3-1-0.3L33.4,33.9l-0.7,3.6l2.5-2.7l4.9-10.4v0h0L47.5,9
		C47.4,8.8,47.1,8.6,46.7,8.4z"/>
</g>
</svg>
