<?xml version="1.0" encoding="utf-8"?>
<!-- Generator: Adobe Illustrator 18.0.0, SVG Export Plug-In . SVG Version: 6.00 Build 0)  -->
<!DOCTYPE svg PUBLIC "-//W3C//DTD SVG 1.1//EN" "http://www.w3.org/Graphics/SVG/1.1/DTD/svg11.dtd">
<svg version="1.1" id="Layer_1" xmlns="http://www.w3.org/2000/svg" xmlns:xlink="http://www.w3.org/1999/xlink" x="0px" y="0px"
	 viewBox="0 0 48 48" enable-background="new 0 0 48 48" xml:space="preserve">
<g>
	<rect x="45.4" y="2.5" fill="#06728D" width="2.1" height="45"/>
	<path fill="#4DA0D8" d="M22.7,6v41.5h20.1v-47H22.7V6z M38,4h2.1v2.3H38V4z M38,9.4h2.1v2.3H38V9.4z M38,14.8h2.1v2.3H38V14.8z
		 M38,20.2h2.1v2.3H38V20.2z M38,25.7h2.1v2.3H38V25.7z M38,31.1h2.1v2.3H38V31.1z M38,36.5h2.1v2.3H38V36.5z M38,41.9h2.1v2.3H38
		V41.9z M31.7,4h2.1v2.3h-2.1V4z M31.7,9.4h2.1v2.3h-2.1V9.4z M31.7,14.8h2.1v2.3h-2.1V14.8z M31.7,20.2h2.1v2.3h-2.1V20.2z
		 M31.7,25.7h2.1v2.3h-2.1V25.7z M31.7,31.1h2.1v2.3h-2.1V31.1z M31.7,36.5h2.1v2.3h-2.1V36.5z M31.7,41.9h2.1v2.3h-2.1V41.9z
		 M25.3,4h2.1v2.3h-2.1V4z M25.3,9.4h2.1v2.3h-2.1V9.4z M25.3,14.8h2.1v2.3h-2.1V14.8z M25.3,20.2h2.1v2.3h-2.1V20.2z M25.3,25.7
		h2.1v2.3h-2.1V25.7z M25.3,31.1h2.1v2.3h-2.1V31.1z M25.3,36.5h2.1v2.3h-2.1V36.5z M25.3,41.9h2.1v2.3h-2.1V41.9z"/>
	<path fill="#E8B944" d="M0.5,47.5h20.1V10L0.5,24V47.5z M15.8,20.2h2.1v2.3h-2.1V20.2z M15.8,25.7h2.1v2.3h-2.1V25.7z M15.8,31.1
		h2.1v2.3h-2.1V31.1z M15.8,36.5h2.1v2.3h-2.1V36.5z M15.8,41.9h2.1v2.3h-2.1V41.9z M9.5,25.7h2.1v2.3H9.5V25.7z M9.5,31.1h2.1v2.3
		H9.5V31.1z M9.5,36.5h2.1v2.3H9.5V36.5z M9.5,41.9h2.1v2.3H9.5V41.9z M3.1,31.1h2.1v2.3H3.1V31.1z M3.1,36.5h2.1v2.3H3.1V36.5z
		 M3.1,41.9h2.1v2.3H3.1V41.9z"/>
</g>
</svg>
