<?xml version="1.0" encoding="utf-8"?>
<!-- Generator: Adobe Illustrator 18.0.0, SVG Export Plug-In . SVG Version: 6.00 Build 0)  -->
<!DOCTYPE svg PUBLIC "-//W3C//DTD SVG 1.1//EN" "http://www.w3.org/Graphics/SVG/1.1/DTD/svg11.dtd">
<svg version="1.1" id="Layer_1" xmlns="http://www.w3.org/2000/svg" xmlns:xlink="http://www.w3.org/1999/xlink" x="0px" y="0px"
	 viewBox="0 0 48 48" enable-background="new 0 0 48 48" xml:space="preserve">
<g>
	<polygon fill="#E77528" points="2.5,5.4 0.5,5.4 0.5,23.8 0.5,34.1 0.5,42.6 2.5,42.6 2.5,34.1 15.9,34.1 15.9,23.8 2.5,23.8 	"/>
	<polygon fill="#E77528" points="45.5,20.7 45.5,23.8 42.7,23.8 42.7,34.1 45.5,34.1 45.5,42.6 47.5,42.6 47.5,34.1 47.5,23.8 
		47.5,20.7 	"/>
	<path fill="#F04B36" d="M9.3,22.6c2.6,0,4.8-2.1,4.8-4.8c0-2.6-2.1-4.8-4.8-4.8c-2.6,0-4.8,2.1-4.8,4.8C4.6,20.5,6.7,22.6,9.3,22.6
		z"/>
	<path fill="#0DB89A" d="M17.9,16.4v22h22.8V19c0-1.9-1.5-2.6-2.5-2.6H17.9z"/>
</g>
</svg>
