<?xml version="1.0" encoding="utf-8"?>
<!-- Generator: Adobe Illustrator 18.0.0, SVG Export Plug-In . SVG Version: 6.00 Build 0)  -->
<!DOCTYPE svg PUBLIC "-//W3C//DTD SVG 1.1//EN" "http://www.w3.org/Graphics/SVG/1.1/DTD/svg11.dtd">
<svg version="1.1" id="Layer_1" xmlns="http://www.w3.org/2000/svg" xmlns:xlink="http://www.w3.org/1999/xlink" x="0px" y="0px"
	 viewBox="0 0 48 48" enable-background="new 0 0 48 48" xml:space="preserve">
<g>
	<rect x="7.9" y="44.8" fill="#294E58" width="2.1" height="2.7"/>
	<rect x="38" y="44.8" fill="#294E58" width="2.1" height="2.7"/>
	<path fill="#06728D" d="M42.2,11.6c-2.9,0-5.3,2.4-5.3,5.3v16.5H11.1V16.9c0-2.9-2.4-5.3-5.3-5.3c-2.9,0-5.3,2.4-5.3,5.3
		c0,2.8,2.2,5.1,4.9,5.3l1,0.1v21.5h35.1V22.2l1-0.1c2.8-0.2,4.9-2.5,4.9-5.3C47.5,13.9,45.1,11.6,42.2,11.6z"/>
	<path fill="#F04B36" d="M13.2,16.9v14.4h21.6V16.9c0-2.8,1.5-5.2,3.8-6.5c-1.1-5.8-4.6-9.9-8.5-9.9H17.8c-3.9,0-7.4,4.1-8.5,9.9
		C11.6,11.7,13.2,14.1,13.2,16.9z"/>
</g>
</svg>
