<?xml version="1.0" encoding="utf-8"?>
<!-- Generator: Adobe Illustrator 18.0.0, SVG Export Plug-In . SVG Version: 6.00 Build 0)  -->
<!DOCTYPE svg PUBLIC "-//W3C//DTD SVG 1.1//EN" "http://www.w3.org/Graphics/SVG/1.1/DTD/svg11.dtd">
<svg version="1.1" id="Layer_1" xmlns="http://www.w3.org/2000/svg" xmlns:xlink="http://www.w3.org/1999/xlink" x="0px" y="0px"
	 viewBox="0 0 48 48" enable-background="new 0 0 48 48" xml:space="preserve">
<g>
	<path fill="#F04B36" d="M24,6.6c-2.4,0-4.3,2-4.3,4.5c0,2.5,1.9,4.5,4.3,4.5c2.4,0,4.3-2,4.3-4.5C28.3,8.6,26.3,6.6,24,6.6z"/>
	<path fill="#F04B36" d="M24,0.5c-5.6,0-10.2,4.8-10.2,10.6c0,4.6,6.7,14.6,10.2,19.3c3.5-4.7,10.2-14.7,10.2-19.3
		C34.2,5.3,29.6,0.5,24,0.5z M24,17.8c-3.6,0-6.5-3-6.5-6.7c0-3.7,2.9-6.7,6.5-6.7c3.6,0,6.5,3,6.5,6.7C30.5,14.8,27.5,17.8,24,17.8
		z"/>
	<path fill="#06728D" d="M47.5,47.5l-6.7-23.6H31c-2.9,4.7-5.9,8.6-6.2,8.9L24,34l-0.9-1.1c-0.2-0.3-3.3-4.3-6.2-8.9H8.5l-8,23.6
		H47.5z"/>
</g>
</svg>
