<?xml version="1.0" encoding="utf-8"?>
<!-- Generator: Adobe Illustrator 18.0.0, SVG Export Plug-In . SVG Version: 6.00 Build 0)  -->
<!DOCTYPE svg PUBLIC "-//W3C//DTD SVG 1.1//EN" "http://www.w3.org/Graphics/SVG/1.1/DTD/svg11.dtd">
<svg version="1.1" id="Layer_1" xmlns="http://www.w3.org/2000/svg" xmlns:xlink="http://www.w3.org/1999/xlink" x="0px" y="0px"
	 viewBox="0 0 48 48" enable-background="new 0 0 48 48" xml:space="preserve">
<g>
	<polygon fill="#F04B36" points="0.6,3.9 2.9,3.9 2.9,18.7 4.9,18.7 4.9,3.9 7.2,3.9 7.2,1.9 0.6,1.9 	"/>
	<polygon fill="#F04B36" points="4.9,29.5 2.9,29.5 2.9,45.5 0.6,45.5 0.6,47.5 7.2,47.5 7.2,45.5 4.9,45.5 	"/>
	<path fill="#F04B36" d="M3.9,19.4c-1.7,0-2.7,0.8-2.7,2c0,1.3,1,2.1,2.7,2.1c1.6,0,2.6-0.7,2.6-2C6.5,20.3,5.6,19.4,3.9,19.4z
		 M3.9,22.6c-1.3,0-2.2-0.4-2.2-1.2c0-0.7,0.8-1.2,2.1-1.2c1.4,0,2.2,0.5,2.2,1.2C6,22.3,5.2,22.6,3.9,22.6z"/>
	<path fill="#F04B36" d="M3.9,24.1c-1.7,0-2.7,0.8-2.7,2c0,1.3,1,2.1,2.7,2.1c1.6,0,2.6-0.7,2.6-2C6.5,25,5.6,24.1,3.9,24.1z
		 M3.9,27.3c-1.3,0-2.2-0.4-2.2-1.2c0-0.7,0.8-1.2,2.1-1.2c1.4,0,2.2,0.5,2.2,1.2C6,26.9,5.2,27.3,3.9,27.3z"/>
	<rect x="39.9" y="0.5" fill="#0DB89A" width="2" height="4.8"/>
	<rect x="30" y="0.5" fill="#0DB89A" width="2" height="4.8"/>
	<rect x="12" y="27.5" fill="#06728D" width="11.3" height="19.9"/>
	<path fill="#F7A93B" d="M42,5.6v4.2h-2V5.6H32v4.2h-2V5.6H12v19.9h13.3v21.9h6.9c0.9-6.8,4.1-19,15.2-21V5.6H42z"/>
	<path fill="#06728D" d="M34.3,47.4h13.2v-19C37.9,30.4,35.1,41.1,34.3,47.4z"/>
</g>
</svg>
