<?xml version="1.0" encoding="utf-8"?>
<!-- Generator: Adobe Illustrator 18.0.0, SVG Export Plug-In . SVG Version: 6.00 Build 0)  -->
<!DOCTYPE svg PUBLIC "-//W3C//DTD SVG 1.1//EN" "http://www.w3.org/Graphics/SVG/1.1/DTD/svg11.dtd">
<svg version="1.1" id="Layer_1" xmlns="http://www.w3.org/2000/svg" xmlns:xlink="http://www.w3.org/1999/xlink" x="0px" y="0px"
	 viewBox="0 0 48 48" enable-background="new 0 0 48 48" xml:space="preserve">
<g>
	<path fill="#06728D" d="M47.5,19.9l-9.3-9.2l-1.4,1.6l0,0.1c-1.2,0.8-2.7,1.3-4.2,1.3c-4.2,0-7.5-3.4-7.5-7.6
		c0-2.1,0.9-4.1,2.3-5.5H0.5v47h12.4V30.1h12.8v17.4H38V13.6h0.1l8,7.8L47.5,19.9z M7.6,42.7H3.5v-2.1h4.1V42.7z M7.6,30.8H3.5v-2.1
		h4.1V30.8z M7.6,19H3.5v-2.1h4.1V19z M7.6,7.1H3.5V4.9h4.1V7.1z M20.9,19h-4.1v-2.1h4.1V19z M20.9,7.1h-4.1V4.9h4.1V7.1z
		 M33.6,42.7h-4.1v-2.1h4.1V42.7z M33.6,30.8h-4.1v-2.1h4.1V30.8z M33.6,19h-4.1v-2.1h4.1V19z"/>
	<rect x="14.9" y="32.2" fill="#F7A93B" width="8.7" height="15.3"/>
	<path fill="#0DB89A" d="M32.5,11.4c1.5,0,2.9-0.6,4-1.7c0.9-0.9,1.4-2.1,1.5-3.4c0-0.1,0-0.2,0-0.3c0-0.2,0-0.4,0-0.7
		c-0.3-2.7-2.7-4.8-5.4-4.8c-0.1,0-0.2,0-0.3,0C29.3,0.7,27,3.1,27,6C27,9,29.5,11.4,32.5,11.4z"/>
</g>
</svg>
