<?xml version="1.0" encoding="utf-8"?>
<!-- Generator: Adobe Illustrator 18.0.0, SVG Export Plug-In . SVG Version: 6.00 Build 0)  -->
<!DOCTYPE svg PUBLIC "-//W3C//DTD SVG 1.1//EN" "http://www.w3.org/Graphics/SVG/1.1/DTD/svg11.dtd">
<svg version="1.1" id="Layer_1" xmlns="http://www.w3.org/2000/svg" xmlns:xlink="http://www.w3.org/1999/xlink" x="0px" y="0px"
	 viewBox="0 0 48 48" enable-background="new 0 0 48 48" xml:space="preserve">
<g>
	<rect x="18.4" y="30.7" fill="#294E58" width="11.2" height="16.8"/>
	<path fill="#E77528" d="M47.5,47.5v-47h-47v47h15.8V28.6h15.5v18.9H47.5z M9.7,40.9H5.5v-2.1h4.2V40.9z M9.7,30.2H5.5v-2.1h4.2
		V30.2z M9.7,19.6H5.5v-2.1h4.2V19.6z M9.7,8.9H5.5V6.8h4.2V8.9z M26.1,19.6h-4.2v-2.1h4.2V19.6z M26.1,8.9h-4.2V6.8h4.2V8.9z
		 M37.9,6.8h4.2v2.1h-4.2V6.8z M37.9,17.4h4.2v2.1h-4.2V17.4z M37.9,28.1h4.2v2.1h-4.2V28.1z M37.9,38.8h4.2v2.1h-4.2V38.8z"/>
</g>
</svg>
