<?xml version="1.0" encoding="utf-8"?>
<!-- Generator: Adobe Illustrator 18.0.0, SVG Export Plug-In . SVG Version: 6.00 Build 0)  -->
<!DOCTYPE svg PUBLIC "-//W3C//DTD SVG 1.1//EN" "http://www.w3.org/Graphics/SVG/1.1/DTD/svg11.dtd">
<svg version="1.1" id="Layer_1" xmlns="http://www.w3.org/2000/svg" xmlns:xlink="http://www.w3.org/1999/xlink" x="0px" y="0px"
	 viewBox="0 0 48 48" enable-background="new 0 0 48 48" xml:space="preserve">
<g>
	<path fill="#F04B36" d="M39.8,31.9c-4.2,0-7.6,3.4-7.7,7.5H13.3v-2.6h-2v2.6H9.7v-4.2h-2v4.2H6.1v-7.6h-2v7.6H2.5v-5h-2v5h0v2h31.8
		c0.8,3.5,3.9,6.1,7.5,6.1c4.3,0,7.7-3.5,7.7-7.8C47.5,35.4,44,31.9,39.8,31.9z M39.8,45.5c-3.2,0-5.7-2.6-5.7-5.8
		c0-3.2,2.6-5.8,5.7-5.8c3.2,0,5.7,2.6,5.7,5.8C45.5,42.9,43,45.5,39.8,45.5z"/>
	<polygon fill="#4DA0D8" points="36.1,14.4 37.3,14.4 21.5,0.5 5.6,14.4 6.9,14.4 	"/>
	<polygon fill="#F7A93B" points="34.6,32.2 34.6,15.8 8.3,15.8 8.3,32.2 15.4,32.2 15.4,21.2 27.5,21.2 27.5,32.2 	"/>
	<rect x="16.9" y="22.6" fill="#06728D" width="9.1" height="9.6"/>
</g>
</svg>
