<?xml version="1.0" encoding="utf-8"?>
<!-- Generator: Adobe Illustrator 18.0.0, SVG Export Plug-In . SVG Version: 6.00 Build 0)  -->
<!DOCTYPE svg PUBLIC "-//W3C//DTD SVG 1.1//EN" "http://www.w3.org/Graphics/SVG/1.1/DTD/svg11.dtd">
<svg version="1.1" id="Layer_1" xmlns="http://www.w3.org/2000/svg" xmlns:xlink="http://www.w3.org/1999/xlink" x="0px" y="0px"
	 viewBox="0 0 48 48" enable-background="new 0 0 48 48" xml:space="preserve">
<g>
	<rect x="32.4" y="30.6" fill="#06728D" width="7.7" height="16.9"/>
	<path fill="#4DA0D8" d="M47.5,47.5V14.2H30.6l7.8,8l-1.5,1.5l-9.2-9.6c-0.8,0.5-1.6,0.9-2.6,1.1v32.2h5.2v-19h12v19H47.5z"/>
	<rect x="7.9" y="31.2" fill="#0DB89A" width="7.7" height="16.3"/>
	<path fill="#FFD69A" d="M22.9,47.5v-32c-3.9-0.3-7-3.7-7-7.9c0-3.1,1.7-5.8,4.2-7.1H0.5v47h5.2V29h12v18.5H22.9z M15,20.7H8.4v-2.1
		H15V20.7z"/>
	<path fill="#F04B36" d="M27.4,11.6c0.9-1,1.4-2.3,1.5-3.6c0-0.1,0-0.3,0-0.4c0-0.2,0-0.5,0-0.7c-0.3-2.9-2.6-5.1-5.3-5.1
		c-0.1,0-0.2,0-0.3,0c-2.9,0.2-5.1,2.7-5.1,5.8c0,3.2,2.4,5.8,5.4,5.8C25,13.4,26.3,12.7,27.4,11.6z"/>
</g>
</svg>
