<?xml version="1.0" encoding="utf-8"?>
<!-- Generator: Adobe Illustrator 18.0.0, SVG Export Plug-In . SVG Version: 6.00 Build 0)  -->
<!DOCTYPE svg PUBLIC "-//W3C//DTD SVG 1.1//EN" "http://www.w3.org/Graphics/SVG/1.1/DTD/svg11.dtd">
<svg version="1.1" id="Layer_1" xmlns="http://www.w3.org/2000/svg" xmlns:xlink="http://www.w3.org/1999/xlink" x="0px" y="0px"
	 viewBox="0 0 48 48" enable-background="new 0 0 48 48" xml:space="preserve">
<g>
	<path fill="none" stroke="#010101" stroke-width="2" stroke-miterlimit="10" d="M0.5,43.5"/>
	<path fill="#0DB89A" d="M29.5,9.9c0.2-0.2,0.3-0.4,0.5-0.6c0,0,0.1-0.1,0.1-0.1l-6-4.7L7.3,17.7H9h18.2c0-0.4-0.1-0.7-0.1-1.1
		c0-0.4,0-0.7,0.1-1c0-0.2,0.1-0.4,0.1-0.6c0,0,0,0,0,0h0c0,0,0-0.1,0-0.1c0-0.1,0-0.2,0-0.3c0.1-0.3,0.1-0.6,0.2-0.9
		c0,0,0-0.1,0-0.1c0.1-0.3,0.2-0.6,0.3-0.9c0,0,0,0,0,0c0.1-0.3,0.3-0.6,0.4-0.9c0,0,0,0,0-0.1c0.1-0.3,0.3-0.5,0.4-0.8
		c0,0,0-0.1,0.1-0.1c0.2-0.2,0.3-0.5,0.5-0.7C29.4,10.1,29.4,10,29.5,9.9z"/>
	<rect x="19" y="32.1" fill="#294E58" width="10.2" height="11.2"/>
	<path fill="#06728D" d="M37.2,43.4v-16c-0.1,0-0.2,0-0.3,0c-0.1,0-0.3,0-0.4,0c-0.2,0-0.4-0.1-0.5-0.1c-3.2-0.5-5.8-2.5-7.4-5.1
		c0,0,0-0.1-0.1-0.1c-0.1-0.2-0.2-0.4-0.3-0.6c0-0.1-0.1-0.2-0.1-0.3c-0.1-0.2-0.2-0.4-0.2-0.6c0-0.1-0.1-0.2-0.1-0.3
		c-0.1-0.2-0.1-0.4-0.2-0.5H11v23.6H17V30.1h14.3v13.3H37.2z"/>
	<polygon fill="#E77528" points="45.6,34.8 43.6,34.8 43.6,36 39.3,36 39.3,38.1 43.6,38.1 43.6,43.5 45.6,43.5 45.6,38.1 
		47.5,38.1 47.5,36 45.6,36 	"/>
	<polygon fill="#E77528" points="9,36 4.6,36 4.6,34.8 2.6,34.8 2.6,36 1.2,36 1.2,38.1 2.6,38.1 2.6,43.5 4.6,43.5 4.6,38.1 
		9,38.1 	"/>
	<path fill="#F04B36" d="M46.6,16.6c0-4.8-3.9-8.7-8.7-8.7c-2.3,0-4.4,0.9-6,2.4c-0.2,0.2-0.4,0.4-0.5,0.5c0,0-0.1,0.1-0.1,0.1
		c-0.1,0.2-0.3,0.3-0.4,0.5c-0.1,0.1-0.1,0.1-0.2,0.2c-0.1,0.1-0.2,0.3-0.3,0.4c-0.1,0.1-0.1,0.2-0.2,0.3c-0.1,0.1-0.1,0.2-0.2,0.3
		c-0.1,0.2-0.2,0.3-0.2,0.5c0,0.1,0,0.1-0.1,0.2c-0.1,0.2-0.2,0.4-0.2,0.7c0,0,0,0,0,0c-0.1,0.4-0.2,0.8-0.3,1.2l0,0
		c0,0.2-0.1,0.4-0.1,0.6l0,0c0,0.3,0,0.5,0,0.8c0,0.6,0.1,1.3,0.2,1.9c0,0,0,0.1,0,0.1c0.2,0.7,0.4,1.3,0.7,1.9c0,0,0,0,0,0
		c0.1,0.2,0.2,0.4,0.3,0.6c0,0,0,0,0,0.1c0.1,0.2,0.3,0.4,0.4,0.6c0,0,0,0,0,0c1,1.3,2.4,2.4,4,3c0,0,0,0,0,0
		c0.2,0.1,0.4,0.1,0.6,0.2c0.1,0,0.1,0,0.2,0.1c0.2,0,0.3,0.1,0.5,0.1c0.1,0,0.3,0,0.4,0.1c0.1,0,0.3,0,0.4,0.1c0.3,0,0.5,0,0.8,0
		c0,0,0,0,0,0C42.7,25.3,46.6,21.4,46.6,16.6z M38.8,20.6V22h-1.4v-1.3c-0.9,0-1.9-0.3-2.4-0.6l0.4-1.7c0.6,0.3,1.4,0.6,2.4,0.6
		c0.8,0,1.4-0.3,1.4-0.9c0-0.5-0.5-0.9-1.5-1.2c-1.5-0.5-2.6-1.2-2.6-2.6c0-1.2,0.9-2.2,2.4-2.5v-1.3h1.4v1.2c0.9,0,1.6,0.2,2.1,0.5
		l-0.4,1.6c-0.4-0.2-1-0.5-2-0.5c-0.9,0-1.2,0.4-1.2,0.8c0,0.5,0.5,0.8,1.7,1.2c1.7,0.6,2.4,1.4,2.4,2.7
		C41.4,19.2,40.5,20.3,38.8,20.6z"/>
</g>
</svg>
