<?xml version="1.0" encoding="utf-8"?>
<!-- Generator: Adobe Illustrator 18.0.0, SVG Export Plug-In . SVG Version: 6.00 Build 0)  -->
<!DOCTYPE svg PUBLIC "-//W3C//DTD SVG 1.1//EN" "http://www.w3.org/Graphics/SVG/1.1/DTD/svg11.dtd">
<svg version="1.1" id="Layer_1" xmlns="http://www.w3.org/2000/svg" xmlns:xlink="http://www.w3.org/1999/xlink" x="0px" y="0px"
	 viewBox="0 0 48 48" enable-background="new 0 0 48 48" xml:space="preserve">
<g>
	<path fill="#06728D" d="M36.5,28.6c1.1-1.4,1.8-3.1,1.9-4.9c0-0.2,0-0.3,0-0.5c0-0.3,0-0.7-0.1-1c-0.5-4.3-4-7.4-8.1-7.2
		c-4.1,0.2-7.3,3.8-7.3,8.2c0,4.5,3.5,8.2,7.7,8.2c1.6,0,3.1-0.5,4.3-1.4L44.8,40c0.2,0.2,0.5,0.3,0.7,0.3c0.2,0,0.5-0.1,0.7-0.3
		c0.4-0.4,0.4-1,0-1.4L36.5,28.6z M36.5,23.6c-0.1,1.4-0.6,2.8-1.6,3.9c-1.1,1.2-2.6,1.9-4.1,1.9c-3.2,0-5.7-2.8-5.7-6.2
		c0-3.3,2.4-6,5.4-6.2c0.1,0,0.2,0,0.3,0c2.9,0,5.3,2.3,5.7,5.4c0,0.2,0,0.5,0,0.8C36.5,23.3,36.5,23.5,36.5,23.6z"/>
	<path fill="#F7A93B" d="M30.7,33.4c-5.4,0-9.7-4.6-9.7-10.2c0-5.4,4.1-9.9,9.2-10.2c0.2,0,0.3,0,0.5,0c4.9,0,9.1,3.9,9.7,9
		c0,0.4,0.1,0.8,0.1,1.2c0,0.2,0,0.4,0,0.6c-0.1,1.6-0.6,3.2-1.3,4.6l1.6,1.7V18.6h6.8L24,0.5L0.5,18.6h6.8v28.9h33.4v-8.8l-6-6.2
		C33.5,33.1,32.1,33.4,30.7,33.4z"/>
	<path fill="#F7A93B" d="M30.7,19l-0.2,0c-2,0.1-3.5,1.9-3.5,4.2c0,2.3,1.7,4.2,3.7,4.2c1,0,1.9-0.4,2.6-1.2c0.6-0.7,1-1.7,1.1-2.7
		c0-0.1,0-0.2,0-0.3c0-0.2,0-0.4,0-0.5C34.2,20.6,32.6,19,30.7,19z"/>
</g>
</svg>
