<?xml version="1.0" encoding="utf-8"?>
<!-- Generator: Adobe Illustrator 18.0.0, SVG Export Plug-In . SVG Version: 6.00 Build 0)  -->
<!DOCTYPE svg PUBLIC "-//W3C//DTD SVG 1.1//EN" "http://www.w3.org/Graphics/SVG/1.1/DTD/svg11.dtd">
<svg version="1.1" id="Layer_1" xmlns="http://www.w3.org/2000/svg" xmlns:xlink="http://www.w3.org/1999/xlink" x="0px" y="0px"
	 viewBox="0 0 48 48" enable-background="new 0 0 48 48" xml:space="preserve">
<g>
	<path fill="#4DA0D8" d="M26.9,17c0-0.4,0-0.7,0.1-1c0-0.2,0.1-0.4,0.1-0.6c0,0,0,0,0,0l0,0c0,0,0-0.1,0-0.1c0-0.1,0-0.2,0-0.3
		c0.1-0.3,0.1-0.6,0.2-0.9c0,0,0-0.1,0-0.1c0.1-0.3,0.2-0.6,0.3-0.9c0,0,0,0,0,0c0.1-0.3,0.3-0.6,0.4-0.9c0,0,0,0,0-0.1
		c0.1-0.3,0.3-0.5,0.4-0.8c0,0,0-0.1,0.1-0.1c0.2-0.2,0.3-0.5,0.5-0.7c0-0.1,0.1-0.1,0.1-0.2c0.2-0.2,0.3-0.4,0.5-0.6
		c0,0,0.1-0.1,0.1-0.1l-6-4.7L7.1,18.1h1.7h18.2C26.9,17.7,26.9,17.4,26.9,17z"/>
	<rect x="18.8" y="32.5" fill="#0DB89A" width="10.2" height="11.2"/>
	<path fill="#F7A93B" d="M36.3,27.7c-0.2,0-0.4-0.1-0.5-0.1c-3.2-0.5-5.8-2.5-7.4-5.1c0,0,0-0.1-0.1-0.1c-0.1-0.2-0.2-0.4-0.3-0.6
		c0-0.1-0.1-0.2-0.1-0.3c-0.1-0.2-0.2-0.4-0.2-0.6c0-0.1-0.1-0.2-0.1-0.3c-0.1-0.2-0.1-0.4-0.2-0.5H10.8v23.6h5.9V30.4H31v13.3H37
		v-16c-0.1,0-0.2,0-0.3,0C36.6,27.7,36.5,27.7,36.3,27.7z"/>
	<polygon fill="#F04B36" points="45.4,36.4 45.4,35.2 43.3,35.2 43.3,36.4 39,36.4 39,38.5 43.3,38.5 43.3,43.8 45.4,43.8 
		45.4,38.5 47.2,38.5 47.2,36.4 	"/>
	<polygon fill="#F04B36" points="4.4,35.2 2.3,35.2 2.3,36.4 1,36.4 1,38.5 2.3,38.5 2.3,43.8 4.4,43.8 4.4,38.5 8.7,38.5 8.7,36.4 
		4.4,36.4 	"/>
	<path fill="#06728D" d="M34.3,13.3c-0.7,0-1,0.8-1,1.7c0,1,0.3,1.7,1,1.7c0.6,0,0.9-0.6,0.9-1.7C35.2,14.1,34.9,13.3,34.3,13.3z"/>
	<path fill="#06728D" d="M41.1,17.2c-0.7,0-1,0.8-1,1.7c0,1,0.3,1.7,1,1.7c0.6,0,0.9-0.6,0.9-1.7C42,18,41.7,17.2,41.1,17.2z"/>
	<path fill="#06728D" d="M46.4,17c0-4.8-3.9-8.7-8.7-8.7c-2.3,0-4.4,0.9-6,2.4c-0.2,0.2-0.4,0.4-0.5,0.5c0,0-0.1,0.1-0.1,0.1
		c-0.1,0.2-0.3,0.3-0.4,0.5c-0.1,0.1-0.1,0.1-0.2,0.2c-0.1,0.1-0.2,0.3-0.3,0.4c-0.1,0.1-0.1,0.2-0.2,0.3c-0.1,0.1-0.1,0.2-0.2,0.3
		c-0.1,0.2-0.2,0.3-0.2,0.5c0,0.1,0,0.1-0.1,0.2c-0.1,0.2-0.2,0.4-0.2,0.7c0,0,0,0,0,0c-0.1,0.4-0.2,0.8-0.3,1.2l0,0
		c0,0.2-0.1,0.4-0.1,0.6l0,0c0,0.3,0,0.5,0,0.8c0,0.6,0.1,1.3,0.2,1.9c0,0,0,0.1,0,0.1c0.2,0.7,0.4,1.3,0.7,1.9c0,0,0,0,0,0
		c0.1,0.2,0.2,0.4,0.3,0.6c0,0,0,0,0,0.1c0.1,0.2,0.3,0.4,0.4,0.6c0,0,0,0,0,0c1,1.3,2.4,2.4,4,3c0,0,0,0,0,0
		c0.2,0.1,0.4,0.1,0.6,0.2c0.1,0,0.1,0,0.2,0.1c0.2,0,0.3,0.1,0.5,0.1c0.1,0,0.3,0,0.4,0.1c0.1,0,0.3,0,0.4,0.1c0.3,0,0.5,0,0.8,0
		c0,0,0,0,0,0C42.4,25.7,46.4,21.8,46.4,17z M31.7,15.1c0-1.7,1-3,2.6-3c1.6,0,2.5,1.2,2.5,2.8c0,2-1.2,3-2.6,3
		C32.8,17.9,31.7,16.9,31.7,15.1z M35.5,21.9h-1.2l5.4-9.7h1.2L35.5,21.9z M41,21.8c-1.4,0-2.6-1.1-2.6-2.8c0-1.7,1-3,2.6-3
		c1.6,0,2.5,1.2,2.5,2.8C43.6,20.8,42.4,21.8,41,21.8z"/>
</g>
</svg>
