<?xml version="1.0" encoding="utf-8"?>
<!-- Generator: Adobe Illustrator 18.0.0, SVG Export Plug-In . SVG Version: 6.00 Build 0)  -->
<!DOCTYPE svg PUBLIC "-//W3C//DTD SVG 1.1//EN" "http://www.w3.org/Graphics/SVG/1.1/DTD/svg11.dtd">
<svg version="1.1" id="Layer_1" xmlns="http://www.w3.org/2000/svg" xmlns:xlink="http://www.w3.org/1999/xlink" x="0px" y="0px"
	 viewBox="0 0 48 48" enable-background="new 0 0 48 48" xml:space="preserve">
<g>
	<path fill="#F04B36" d="M20,28.1L20,28.1c-0.2,0.7-0.3,1.7-0.5,2.4l-0.6,2.7h2.3l-0.6-2.7C20.3,29.8,20.1,28.9,20,28.1z"/>
	<path fill="#F04B36" d="M42.2,17.1L24,0.5L5.8,17.1H0.5v30.4h47V17.1H42.2z M24,3.2l15.3,13.9H8.7L24,3.2z M10.4,38.8
		c-1.2,0-2.3-0.4-2.9-0.8L8,35.7c0.6,0.4,1.6,0.8,2.6,0.8c1.1,0,1.6-0.5,1.6-1.4c0-0.8-0.5-1.2-1.7-1.8c-1.7-0.7-2.8-1.9-2.8-3.7
		c0-2.1,1.5-3.8,3.9-3.8c1.2,0,2,0.3,2.6,0.6l-0.5,2.3c-0.4-0.2-1.1-0.6-2.1-0.6S10,28.7,10,29.4c0,0.8,0.6,1.2,1.9,1.8
		c1.8,0.8,2.7,2,2.7,3.8C14.6,37,13.2,38.8,10.4,38.8z M22.3,38.6l-0.8-3.2h-2.9l-0.7,3.2h-2.4L18.5,26h3l3.2,12.6H22.3z M32.6,38.6
		h-6.4V26h2.3v10.2h4.1V38.6z M40.5,38.6h-6.6V26h6.3v2.3h-4V31H40v2.3h-3.8v3h4.2V38.6z"/>
</g>
</svg>
