<?xml version="1.0" encoding="utf-8"?>
<!-- Generator: Adobe Illustrator 18.0.0, SVG Export Plug-In . SVG Version: 6.00 Build 0)  -->
<!DOCTYPE svg PUBLIC "-//W3C//DTD SVG 1.1//EN" "http://www.w3.org/Graphics/SVG/1.1/DTD/svg11.dtd">
<svg version="1.1" id="Layer_1" xmlns="http://www.w3.org/2000/svg" xmlns:xlink="http://www.w3.org/1999/xlink" x="0px" y="0px"
	 viewBox="0 0 48 48" enable-background="new 0 0 48 48" xml:space="preserve">
<g>
	<polygon fill="#E77528" points="45.6,39.2 45.6,37.6 43.6,37.6 43.6,39.2 38.5,39.2 38.5,23.3 9.5,23.3 9.5,39.2 4.5,39.2 
		4.5,37.6 2.4,37.6 2.4,39.2 0.5,39.2 0.5,41.2 2.4,41.2 2.4,47.5 4.5,47.5 4.5,41.2 9.5,41.2 9.5,47.5 17.3,47.5 17.3,31.1 
		30.7,31.1 30.7,47.5 38.5,47.5 38.5,41.2 43.6,41.2 43.6,47.5 45.6,47.5 45.6,41.2 47.5,41.2 47.5,39.2 	"/>
	<polygon fill="#4DA0D8" points="40.1,21.1 41.5,21.1 24,0.5 6.5,21.1 7.9,21.1 	"/>
</g>
</svg>
