<?xml version="1.0" encoding="utf-8"?>
<!-- Generator: Adobe Illustrator 18.0.0, SVG Export Plug-In . SVG Version: 6.00 Build 0)  -->
<!DOCTYPE svg PUBLIC "-//W3C//DTD SVG 1.1//EN" "http://www.w3.org/Graphics/SVG/1.1/DTD/svg11.dtd">
<svg version="1.1" id="Layer_1" xmlns="http://www.w3.org/2000/svg" xmlns:xlink="http://www.w3.org/1999/xlink" x="0px" y="0px"
	 viewBox="0 0 48 48" enable-background="new 0 0 48 48" xml:space="preserve">
<g>
	<polygon fill="#F04B36" points="47.3,4.7 42.4,4.3 42.3,6.2 44.4,6.4 26.6,27.3 19.6,26.6 13.7,34.4 12.6,27.8 5.7,39.2 7.3,40.2 
		11.5,33.5 12.4,39.4 20.5,28.6 27.4,29.3 45.5,8.2 45.5,9.7 47.5,9.7 	"/>
	<rect x="28.7" y="34.5" fill="#F7A93B" width="6.4" height="13"/>
	<polygon fill="#06728D" points="28.3,31.3 21.4,30.7 11.2,44.3 10.4,39.1 8,42.9 3.2,40.1 3.2,47.5 26.7,47.5 26.7,32.1 37,32.1 
		37,47.5 41.9,47.5 41.9,19.8 43.8,20.7 44.7,19 40.5,17 	"/>
	<path fill="#06728D" d="M3.2,39.4l10.5-17.2l1.1,7.3l3.7-5l7.1,0.7L35,14.4l-0.6-0.3L34.1,14V9.2l2,1.1l1-1.7L25.5,2.1l-2.4-1.4
		L23,0.7l-0.4-0.2l-0.3,0.1h0l-2.7,1.5L8,8.7l1,1.7l2-1.1V14l-0.3,0.1L0.5,19l0.9,1.8l1.9-0.9V39.4z M19.8,18.6h5.7v1.9h-5.7V18.6z"
		/>
</g>
</svg>
