<?xml version="1.0" encoding="utf-8"?>
<!-- Generator: Adobe Illustrator 18.0.0, SVG Export Plug-In . SVG Version: 6.00 Build 0)  -->
<!DOCTYPE svg PUBLIC "-//W3C//DTD SVG 1.1//EN" "http://www.w3.org/Graphics/SVG/1.1/DTD/svg11.dtd">
<svg version="1.1" id="Layer_1" xmlns="http://www.w3.org/2000/svg" xmlns:xlink="http://www.w3.org/1999/xlink" x="0px" y="0px"
	 viewBox="0 0 48 48" enable-background="new 0 0 48 48" xml:space="preserve">
<g>
	<polygon fill="#CFD0D1" points="25.3,0.5 8.2,14.9 9.5,14.9 41.1,14.9 42.5,14.9 	"/>
	<polygon fill="#F7A93B" points="11.1,33.3 18.8,33.3 18.8,21.9 31.9,21.9 31.9,33.3 39.5,33.3 39.5,16.4 11.1,16.4 	"/>
	<rect x="20.4" y="23.4" fill="#06728D" width="9.8" height="9.9"/>
	<polygon fill="#F04B36" points="13.5,41.8 15.5,41.8 15.5,47.5 47.5,47.5 45.9,39.8 18.2,39.8 18.2,37.9 45.5,37.9 43.1,26.3 
		41,26.3 41,34.8 9.6,34.8 9.6,26.3 5.4,26.3 0.5,47.5 13.5,47.5 	"/>
</g>
</svg>
