<?xml version="1.0" encoding="utf-8"?>
<!-- Generator: Adobe Illustrator 18.0.0, SVG Export Plug-In . SVG Version: 6.00 Build 0)  -->
<!DOCTYPE svg PUBLIC "-//W3C//DTD SVG 1.1//EN" "http://www.w3.org/Graphics/SVG/1.1/DTD/svg11.dtd">
<svg version="1.1" id="Layer_1" xmlns="http://www.w3.org/2000/svg" xmlns:xlink="http://www.w3.org/1999/xlink" x="0px" y="0px"
	 viewBox="0 0 48 48" enable-background="new 0 0 48 48" xml:space="preserve">
<g>
	<polygon fill="#4DA0D8" points="6.9,7.1 8.3,5.6 4.4,2.2 0.6,5.6 1.9,7.1 3.4,5.8 3.4,32.1 1.8,30.7 0.5,32.2 4.4,35.6 8.2,32.2 
		6.9,30.7 5.4,32 5.4,5.8 	"/>
	<polygon fill="#4DA0D8" points="41.2,41.5 42.5,42.8 14.4,42.8 15.6,41.6 14.2,40.2 10.5,43.8 14.2,47.5 15.6,46.1 14.3,44.8 
		42.5,44.8 41.2,46 42.6,47.4 46.3,43.8 42.6,40.1 	"/>
	<polygon fill="#06728D" points="46,17.1 47.5,17.1 28.3,0.5 9,17.1 10.5,17.1 	"/>
	<polygon fill="#0DB89A" points="44.2,38.4 44.2,18.9 12.3,18.9 12.3,38.4 20.9,38.4 20.9,25.2 35.6,25.2 35.6,38.4 	"/>
	<rect x="22.7" y="27" fill="#F04B36" width="11" height="11.5"/>
</g>
</svg>
