<?xml version="1.0" encoding="utf-8"?>
<!-- Generator: Adobe Illustrator 18.0.0, SVG Export Plug-In . SVG Version: 6.00 Build 0)  -->
<!DOCTYPE svg PUBLIC "-//W3C//DTD SVG 1.1//EN" "http://www.w3.org/Graphics/SVG/1.1/DTD/svg11.dtd">
<svg version="1.1" id="Layer_1" xmlns="http://www.w3.org/2000/svg" xmlns:xlink="http://www.w3.org/1999/xlink" x="0px" y="0px"
	 viewBox="0 0 48 48" enable-background="new 0 0 48 48" xml:space="preserve">
<g>
	<path fill="#F04B36" d="M5.8,19.1l5.3-1.2v13.4l2.6-0.8L26,32c1.2,0.1,2.6,1.8,2.5,3.4c0,1.2-0.8,3.2-5.4,3.5
		c-5,0.3-9.4-0.5-9.6-0.5l0.4-2c0,0,4.3,0.8,9.1,0.5c2-0.1,3.3-0.6,3.5-1.4c0.1-0.6-0.5-1.3-0.7-1.4l-11.7-1.5L0.5,37l7.3,10.5
		l7.9-4.1l18.9-2.5c0.8-0.3,6.5-3.2,10.1-6.4c0.6-0.6,1.1-1.2,1.6-1.8c0.3-0.5,0.6-0.9,0.8-1.2c0-0.9-1-1.6-1-1.6
		c-0.3-0.2-1.7,0-2.1,0.2l-10,6.5l-1.2-1.7l8.8-5.7V17.8l5.3,1.3c0.2,0.1,0.5-0.1,0.6-0.3c0.1-0.2,0.1-0.5-0.1-0.6L26.7,0.6
		c-0.2-0.2-0.5-0.2-0.7,0L5.4,18.2c-0.2,0.2-0.2,0.4-0.1,0.6C5.3,19,5.6,19.1,5.8,19.1z"/>
</g>
</svg>
