<?xml version="1.0" encoding="utf-8"?>
<!-- Generator: Adobe Illustrator 18.0.0, SVG Export Plug-In . SVG Version: 6.00 Build 0)  -->
<!DOCTYPE svg PUBLIC "-//W3C//DTD SVG 1.1//EN" "http://www.w3.org/Graphics/SVG/1.1/DTD/svg11.dtd">
<svg version="1.1" id="Layer_1" xmlns="http://www.w3.org/2000/svg" xmlns:xlink="http://www.w3.org/1999/xlink" x="0px" y="0px"
	 viewBox="0 0 48 48" enable-background="new 0 0 48 48" xml:space="preserve">
<g>
	<path fill="#0DB89A" d="M21.6,27c-1.2,0-1.8,1.4-1.8,3.4c0,1.9,0.7,3.3,1.8,3.3c1.2,0,1.8-1.4,1.8-3.4C23.4,28.5,22.7,27,21.6,27z"
		/>
	<path fill="#0DB89A" d="M40,13.2V6.4h6.5v-2H2.5V0.5h-2v15.7h2V6.4h9.7v6.8H5.9v34.3h41.6V13.2H40z M16.8,35.3h-1.7v-4.2h-2.8v4.2
		h-1.7v-9.9h1.7v3.8h2.8v-3.8h1.7V35.3z M21.5,35.5c-2.3,0-3.6-2.2-3.6-5.1c0-3,1.5-5.2,3.7-5.2c2.3,0,3.6,2.3,3.6,5
		C25.2,33.5,23.7,35.5,21.5,35.5z M31.3,27.2h-2.1v8h-1.7v-8h-2v-1.9h5.8V27.2z M37,35.3h-4.8v-9.9h4.7v1.8h-3v2.1h2.8v1.8h-2.8v2.4
		H37V35.3z M38.1,13.2h-24V6.4h24V13.2z M42.9,35.3h-4.7v-9.9h1.7v8h3V35.3z"/>
</g>
</svg>
