<?xml version="1.0" encoding="utf-8"?>
<!-- Generator: Adobe Illustrator 18.0.0, SVG Export Plug-In . SVG Version: 6.00 Build 0)  -->
<!DOCTYPE svg PUBLIC "-//W3C//DTD SVG 1.1//EN" "http://www.w3.org/Graphics/SVG/1.1/DTD/svg11.dtd">
<svg version="1.1" id="Layer_1" xmlns="http://www.w3.org/2000/svg" xmlns:xlink="http://www.w3.org/1999/xlink" x="0px" y="0px"
	 viewBox="0 0 48 48" enable-background="new 0 0 48 48" xml:space="preserve">
<g>
	<path fill="#CFD0D1" d="M28.4,25.6c0-1.7-2-3.1-4.4-3.1c-2.4,0-4.4,1.4-4.4,3.1V29h8.8V25.6z"/>
	<rect x="17.4" y="31" fill="#F04B36" width="13.2" height="9.4"/>
	<path fill="#CFD0D1" d="M36.2,14V9.2l2.3,1.2l1-1.7l-15.1-8L24,0.5l-0.4,0.2l-15,7.9l1,1.7l2.3-1.2V14L0.5,19l0.8,1.8L3,20v27.5
		h8.7h7.1h10.9H34H45L45,20l1.7,0.8l0.8-1.8L36.2,14z M32.6,42.4H15.4V29h2.2v-3.4c0-2.8,2.9-5.1,6.4-5.1s6.4,2.3,6.4,5.1V29h2.2
		V42.4z"/>
</g>
</svg>
