<?xml version="1.0" encoding="utf-8"?>
<!-- Generator: Adobe Illustrator 18.0.0, SVG Export Plug-In . SVG Version: 6.00 Build 0)  -->
<!DOCTYPE svg PUBLIC "-//W3C//DTD SVG 1.1//EN" "http://www.w3.org/Graphics/SVG/1.1/DTD/svg11.dtd">
<svg version="1.1" id="Layer_1" xmlns="http://www.w3.org/2000/svg" xmlns:xlink="http://www.w3.org/1999/xlink" x="0px" y="0px"
	 viewBox="0 0 48 48" enable-background="new 0 0 48 48" xml:space="preserve">
<g>
	<polygon fill="#F04B36" points="6.9,5.4 8.3,4 4.4,0.5 0.6,4 1.9,5.4 3.4,4.1 3.4,31.6 1.9,30.2 0.5,31.6 4.4,35.1 8.2,31.6 
		6.8,30.2 5.4,31.4 5.4,4.1 	"/>
	<polygon fill="#F04B36" points="40.9,41.2 42.3,42.7 14.3,42.7 15.6,41.3 14.1,40 10.5,43.7 14.1,47.5 15.6,46.2 14.1,44.7 
		42.3,44.7 40.9,46.1 42.4,47.4 46,43.7 42.4,39.9 	"/>
	<polygon fill="#06728D" points="36.4,16.9 46.4,16.9 45.4,1.8 26,1.8 26,7.8 35.1,7.8 	"/>
	<polygon fill="#0DB89A" points="36.8,26.4 24,26.4 24,20.5 26,20.5 26,24.4 38.6,24.4 39.6,33.9 47.5,33.9 46.5,18.8 34.7,18.8 
		33.3,9.7 24,9.7 24,1.8 16,1.8 15.2,14 25,14 25,16 15.1,16 14,33.9 37.6,33.9 	"/>
</g>
</svg>
