<?xml version="1.0" encoding="utf-8"?>
<!-- Generator: Adobe Illustrator 18.0.0, SVG Export Plug-In . SVG Version: 6.00 Build 0)  -->
<!DOCTYPE svg PUBLIC "-//W3C//DTD SVG 1.1//EN" "http://www.w3.org/Graphics/SVG/1.1/DTD/svg11.dtd">
<svg version="1.1" id="Layer_1" xmlns="http://www.w3.org/2000/svg" xmlns:xlink="http://www.w3.org/1999/xlink" x="0px" y="0px"
	 viewBox="0 0 48 48" enable-background="new 0 0 48 48" xml:space="preserve">
<g>
	<path fill="#F04B36" d="M28.3,47.1c0.7-0.4,1.2-1.1,1.3-1.8c0.2-0.7,0-1.4-0.4-2c-0.6-0.8-1.5-1.3-2.6-1.3c-0.6,0-1.1,0.2-1.6,0.4
		c-0.7,0.4-1.2,1.1-1.3,1.8c-0.2,0.7,0,1.4,0.4,2c0.6,0.8,1.5,1.3,2.6,1.3C27.2,47.5,27.8,47.3,28.3,47.1z"/>
	<path fill="#F7A93B" d="M24.9,0.5L5.3,12.2L3.4,9.7L0.5,11l0.8,1.9l1.5-0.7l1.4,1.9l18.3,27.8c0.4-0.5,0.9-1,1.5-1.4
		c0.8-0.5,1.7-0.7,2.6-0.7c1.7,0,3.3,0.8,4.2,2.2c0.4,0.6,0.7,1.3,0.7,2.1l15.9-9.5L24.9,0.5z M21.4,12.5l1.7-1.1l12.6,20.7L34,33.2
		L21.4,12.5z"/>
</g>
</svg>
