<?xml version="1.0" encoding="utf-8"?>
<!-- Generator: Adobe Illustrator 18.0.0, SVG Export Plug-In . SVG Version: 6.00 Build 0)  -->
<!DOCTYPE svg PUBLIC "-//W3C//DTD SVG 1.1//EN" "http://www.w3.org/Graphics/SVG/1.1/DTD/svg11.dtd">
<svg version="1.1" id="Layer_1" xmlns="http://www.w3.org/2000/svg" xmlns:xlink="http://www.w3.org/1999/xlink" x="0px" y="0px"
	 viewBox="0 0 48 48" enable-background="new 0 0 48 48" xml:space="preserve">
<g>
	<polygon fill="#F04B36" points="35.3,19.7 35.3,24.7 39.2,24.7 	"/>
	<path fill="#0DB89A" d="M40.5,33.8l-0.1-0.4c-0.3-0.9-0.8-1.6-1.4-2.2c-0.1-0.1-0.2-0.2-0.3-0.2c-0.1-0.1-0.2-0.1-0.3-0.2
		c-0.1-0.1-0.3-0.2-0.4-0.2c-0.1,0-0.2-0.1-0.3-0.1c-0.2-0.1-0.4-0.1-0.5-0.2c-0.1,0-0.2,0-0.3-0.1c-0.3-0.1-0.6-0.1-0.8-0.1
		c-0.3,0-0.6,0-0.8,0.1c-0.1,0-0.2,0-0.3,0.1c-0.2,0-0.4,0.1-0.5,0.2c-0.1,0-0.2,0.1-0.3,0.1c-0.2,0.1-0.3,0.2-0.4,0.2
		c-0.1,0.1-0.2,0.1-0.3,0.2c-0.1,0.1-0.2,0.2-0.3,0.2c-0.6,0.6-1.2,1.3-1.4,2.2l-0.1,0.4c-0.1,0.3-0.1,0.6-0.1,0.9
		c0,2.5,2.1,4.6,4.6,4.6c2.5,0,4.6-2.1,4.6-4.6C40.6,34.4,40.6,34.1,40.5,33.8z"/>
	<path fill="#0DB89A" d="M11.3,31.2C11.2,31.1,11.1,31,11,31c-0.1-0.1-0.2-0.1-0.3-0.2c-0.1-0.1-0.3-0.2-0.4-0.2
		c-0.1,0-0.2-0.1-0.3-0.1c-0.2-0.1-0.4-0.1-0.5-0.2c-0.1,0-0.2,0-0.3-0.1c-0.3-0.1-0.6-0.1-0.8-0.1c-0.3,0-0.6,0-0.8,0.1
		c-0.1,0-0.2,0-0.3,0.1c-0.2,0-0.4,0.1-0.5,0.2c-0.1,0-0.2,0.1-0.3,0.1c-0.2,0.1-0.3,0.2-0.4,0.2c-0.1,0.1-0.2,0.1-0.3,0.2
		c-0.1,0.1-0.2,0.2-0.3,0.2c-0.6,0.6-1.2,1.3-1.4,2.2l-0.1,0.4c-0.1,0.3-0.1,0.6-0.1,0.9c0,2.5,2.1,4.6,4.6,4.6
		c2.5,0,4.6-2.1,4.6-4.6c0-0.3,0-0.6-0.1-0.9l-0.1-0.4C12.5,32.5,12,31.8,11.3,31.2z"/>
	<path fill="#06728D" d="M42.2,32h5.3v-2.6c0-1.9-0.7-3.7-2-5.1L33.7,11c-0.3-0.4-0.7-0.7-1.2-0.8l-2-0.8c-1-0.4-2.2-0.6-3.3-0.6
		H0.5V32h1.7c0.4-0.9,1-1.7,1.7-2.3c0,0,0.1,0,0.1-0.1c0.2-0.2,0.4-0.4,0.7-0.5c0,0,0.1-0.1,0.1-0.1c0.2-0.1,0.4-0.2,0.6-0.3
		c0.1,0,0.2-0.1,0.2-0.1c0.2-0.1,0.5-0.2,0.8-0.3c0,0,0.1,0,0.1,0c0.2-0.1,0.5-0.1,0.7-0.2c0.1,0,0.2,0,0.2,0C7.8,28,8.1,28,8.4,28
		C8.7,28,9,28,9.3,28c0.1,0,0.2,0,0.2,0c0.2,0,0.5,0.1,0.7,0.2c0,0,0.1,0,0.1,0c0.3,0.1,0.5,0.2,0.8,0.3c0.1,0,0.2,0.1,0.2,0.1
		c0.2,0.1,0.4,0.2,0.6,0.3c0,0,0.1,0.1,0.1,0.1c0.2,0.2,0.5,0.3,0.7,0.5c0,0,0.1,0,0.1,0.1c0.7,0.6,1.3,1.4,1.7,2.3h15.3
		c0.4-0.9,1-1.7,1.7-2.3c0,0,0.1,0,0.1-0.1c0.2-0.2,0.4-0.4,0.7-0.5c0,0,0.1-0.1,0.1-0.1c0.2-0.1,0.4-0.2,0.6-0.3
		c0.1,0,0.2-0.1,0.2-0.1c0.2-0.1,0.5-0.2,0.8-0.3c0,0,0.1,0,0.1,0c0.2-0.1,0.5-0.1,0.7-0.2c0.1,0,0.2,0,0.2,0c0.3,0,0.6-0.1,0.9-0.1
		c0.3,0,0.6,0,0.9,0.1c0.1,0,0.2,0,0.2,0c0.2,0,0.5,0.1,0.7,0.2c0,0,0.1,0,0.1,0c0.3,0.1,0.5,0.2,0.8,0.3c0.1,0,0.2,0.1,0.2,0.1
		c0.2,0.1,0.4,0.2,0.6,0.3c0,0,0.1,0.1,0.1,0.1c0.2,0.2,0.5,0.3,0.7,0.5c0,0,0.1,0,0.1,0.1C41.2,30.3,41.8,31.1,42.2,32z M23.7,23.2
		H8.9l2.1,2.1l-1.5,1.5l-4.8-4.7l4.8-4.7l1.5,1.5L8.9,21h14.8V23.2z M20.4,18.8l-1.5-1.5l2.1-2.1H6.3V13h14.8l-2.1-2.1l1.5-1.5
		l4.8,4.7L20.4,18.8z M33.2,26.8V13.4l10.3,13.4H33.2z"/>
</g>
</svg>
