<?xml version="1.0" encoding="utf-8"?>
<!-- Generator: Adobe Illustrator 18.0.0, SVG Export Plug-In . SVG Version: 6.00 Build 0)  -->
<!DOCTYPE svg PUBLIC "-//W3C//DTD SVG 1.1//EN" "http://www.w3.org/Graphics/SVG/1.1/DTD/svg11.dtd">
<svg version="1.1" id="Layer_1" xmlns="http://www.w3.org/2000/svg" xmlns:xlink="http://www.w3.org/1999/xlink" x="0px" y="0px"
	 viewBox="0 0 48 48" enable-background="new 0 0 48 48" xml:space="preserve">
<g>
	<path fill="#06728D" d="M40,15.3L24.4,6.5l-13.7,8.8H6.3V9.2l-5-2.1L0.5,9l3.8,1.6v4.8v2.6v1.6c0,3.7,2.5,6.9,5.9,7.9H10v13h2V27.8
		c0.1,0,0.3,0,0.4,0h21.3c0.4,0,0.8,0,1.3-0.1v3.7c-2.3,0.5-4,2.5-4,5c0,2.8,2.2,5.1,5,5.1c2.7,0,5-2.3,5-5.1c0-2.5-1.7-4.5-4-5v-4
		h-0.1c2.9-0.6,6.5-2.2,8.5-6.5l2.1-5.7H40z"/>
</g>
</svg>
