<?xml version="1.0" encoding="utf-8"?>
<!-- Generator: Adobe Illustrator 18.0.0, SVG Export Plug-In . SVG Version: 6.00 Build 0)  -->
<!DOCTYPE svg PUBLIC "-//W3C//DTD SVG 1.1//EN" "http://www.w3.org/Graphics/SVG/1.1/DTD/svg11.dtd">
<svg version="1.1" id="Layer_1" xmlns="http://www.w3.org/2000/svg" xmlns:xlink="http://www.w3.org/1999/xlink" x="0px" y="0px"
	 viewBox="0 0 48 48" enable-background="new 0 0 48 48" xml:space="preserve">
<g>
	<path fill="#F04B36" d="M31.8,7.7c0-4-3.6-7.2-8.1-7.2c-4.5,0-8.1,3.2-8.1,7.2c0,8.3,8.1,18.5,8.1,18.5S31.8,16,31.8,7.7z
		 M20.5,8.9c0-1.7,1.4-3.2,3.2-3.2c1.8,0,3.2,1.4,3.2,3.2c0,1.7-1.4,3.2-3.2,3.2C21.9,12,20.5,10.6,20.5,8.9z"/>
	<path fill="#0DB89A" d="M30.8,19.4l0.7,9.2H46l-1.4-17.6h-11c-0.6,2.9-1.8,5.9-3.1,8.5L30.8,19.4z"/>
	<path fill="#0DB89A" d="M46.1,30.6H29.7L29,22c-1.8,3.1-3.5,5.2-3.7,5.4l-1.6,2l-1.6-2c-0.3-0.4-6.7-8.5-8.3-16.5H3.4l-0.9,11h13.5
		v2H2.4L0.5,47.5h33.3L32.6,39H15.1V26.6h2V37h17.3l1.5,10.5h11.6L46.1,30.6z"/>
</g>
</svg>
