<?xml version="1.0" encoding="utf-8"?>
<!-- Generator: Adobe Illustrator 18.0.0, SVG Export Plug-In . SVG Version: 6.00 Build 0)  -->
<!DOCTYPE svg PUBLIC "-//W3C//DTD SVG 1.1//EN" "http://www.w3.org/Graphics/SVG/1.1/DTD/svg11.dtd">
<svg version="1.1" id="Layer_1" xmlns="http://www.w3.org/2000/svg" xmlns:xlink="http://www.w3.org/1999/xlink" x="0px" y="0px"
	 viewBox="0 0 48 48" enable-background="new 0 0 48 48" xml:space="preserve">
<g>
	<path fill="#06728D" d="M47.5,13.1H28.4V10c0-3.1,2.6-5.5,5.8-5.5h1.1C38.4,4.5,41,7,41,10h4.1c0-5.2-4.4-9.5-9.9-9.5h-1.1
		c-5.4,0-9.9,4.2-9.9,9.5v3.1H6.7V10c0-3.1,2.6-5.5,5.8-5.5h1.1c3.2,0,5.8,2.5,5.8,5.5h4.1c0-5.2-4.4-9.5-9.9-9.5h-1.1
		c-5.4,0-9.9,4.2-9.9,9.5v3.1H0.5V17h2.1v30.4h4.1v-3.1h17.5v3.2h4.1V17h19.1V13.1z M6.7,26.4h17.5v5H6.7V26.4z M6.7,40.4v-5h17.5v5
		H6.7z M24.3,22.5H6.7V17h17.5V22.5z"/>
</g>
</svg>
