<?xml version="1.0" encoding="utf-8"?>
<!-- Generator: Adobe Illustrator 18.0.0, SVG Export Plug-In . SVG Version: 6.00 Build 0)  -->
<!DOCTYPE svg PUBLIC "-//W3C//DTD SVG 1.1//EN" "http://www.w3.org/Graphics/SVG/1.1/DTD/svg11.dtd">
<svg version="1.1" id="Layer_1" xmlns="http://www.w3.org/2000/svg" xmlns:xlink="http://www.w3.org/1999/xlink" x="0px" y="0px"
	 viewBox="0 0 48 48" enable-background="new 0 0 48 48" xml:space="preserve">
<g>
	<path fill="#0DB89A" d="M45.5,38.1v1.4h-9.3v-1.4h-2v1.4H25V26c1.3,1.4,3,2.3,5,2.3c1.8,0,3.6-0.8,4.9-2.1c3.1-0.7,5.4-3.5,5.4-6.9
		c0-0.4,0-0.8-0.1-1.1c1-1.3,1.6-2.9,1.6-4.6c0-1.7-0.6-3.4-1.7-4.6c0.1-0.5,0.2-0.9,0.2-1.4c0-3.9-3.8-7-8.5-7
		c-3.7,0-6.9,1.9-8.1,4.7c-1.3,0-2.4,0.3-3.5,0.9c-1-0.6-2.1-0.9-3.3-0.9c-3.5,0-6.3,2.7-6.7,6.2c-3.5,0.8-6,4.1-6,7.8
		c0,4.4,3.5,8,7.8,8c2.3,0,4.4-1,5.9-2.8c1.6,0.8,3.5,1,5.2,0.5v22.5h2v-5.9h9.3v5.9h2v-5.9h9.3v5.9h2v-9.4H45.5z"/>
	<polygon fill="#F04B36" points="12.8,38.1 10.8,38.1 10.8,39.6 2.5,39.6 2.5,38.1 0.5,38.1 0.5,47.5 2.5,47.5 2.5,41.6 10.8,41.6 
		10.8,47.5 12.8,47.5 12.8,41.6 23,41.6 23,39.6 12.8,39.6 	"/>
</g>
</svg>
