<?xml version="1.0" encoding="utf-8"?>
<!-- Generator: Adobe Illustrator 18.0.0, SVG Export Plug-In . SVG Version: 6.00 Build 0)  -->
<!DOCTYPE svg PUBLIC "-//W3C//DTD SVG 1.1//EN" "http://www.w3.org/Graphics/SVG/1.1/DTD/svg11.dtd">
<svg version="1.1" id="Layer_1" xmlns="http://www.w3.org/2000/svg" xmlns:xlink="http://www.w3.org/1999/xlink" x="0px" y="0px"
	 viewBox="0 0 48 48" enable-background="new 0 0 48 48" xml:space="preserve">
<g>
	<path fill="#F7A93B" d="M17,45.3c0.1,0.4,0.1,0.8,0.2,1.2c0.1,0.4,0.9,0.6,1.9,0.7c0.9,0.1,1.8,0.1,2.7,0.1c0.8,0,1.6,0,2.4,0.1
		c1.4,0.1,2.9,0.1,4.4,0.1c0.6,0,1.3,0,1.9,0c2.7,0,4.9-0.1,7.1-0.9l0.3-0.1c0.3-0.1,0.6-0.2,0.7-0.3c0,0,0-0.1,0-0.4
		c0-0.4-0.1-0.8-0.3-1.3c-0.1-0.2-0.1-0.3-0.2-0.5c-0.4-1.3-0.4-2.6-0.5-3.6c0-0.1-0.1-0.2-0.1-0.3V25c0-0.9-0.8-1.6-1.7-1.6
		c-0.9,0-1.7,0.7-1.7,1.6c0,0.6-0.5,1.1-1.1,1.1c-0.6,0-1.1-0.5-1.1-1.1c0-0.9-0.8-1.6-1.7-1.6c-0.9,0-1.7,0.7-1.7,1.6
		c0,0.6-0.5,1.1-1.1,1.1c-0.6,0-1.1-0.5-1.1-1.1c0-0.9-0.8-1.6-1.7-1.6c-0.9,0-1.7,0.7-1.7,1.6c0,0.6-0.5,1.1-1.1,1.1
		c-0.6,0-1.1-0.5-1.1-1.1V10.2c0-0.9-0.8-1.6-1.7-1.6s-1.7,0.7-1.7,1.6v20.2c0,0,0,0,0,0c0,0.1,0,0.3-0.1,0.4
		c-0.2,0.5-0.8,0.8-1.4,0.6l0,0c-0.4-0.2-0.7-0.6-0.7-1c-0.1-1-0.4-1.6-1.1-2.1c-1.1-0.7-3-0.9-4.1-0.1c-0.6,0.5-1,1-1.1,1.8
		c-0.2,1.9,1.3,4.5,2.8,6.3c0.3,0.4,0.7,0.7,1.1,1.1c0.7,0.7,1.4,1.4,2,2.4c0.6,1.2,1.2,2.5,1.5,3.7C16.8,44.2,16.9,44.8,17,45.3z"
		/>
	<path fill="#F04B36" d="M19.7,0.5c-3.9,0-7,3.2-7,7c0,2.3,1.2,4.5,3,5.8v-3.1c0-2.1,1.7-3.8,3.8-3.8s3.8,1.7,3.8,3.8v3.3
		c2.1-1.3,3.4-3.5,3.4-6C26.7,3.7,23.5,0.5,19.7,0.5z"/>
</g>
</svg>
