<?xml version="1.0" encoding="utf-8"?>
<!-- Generator: Adobe Illustrator 18.0.0, SVG Export Plug-In . SVG Version: 6.00 Build 0)  -->
<!DOCTYPE svg PUBLIC "-//W3C//DTD SVG 1.1//EN" "http://www.w3.org/Graphics/SVG/1.1/DTD/svg11.dtd">
<svg version="1.1" id="Layer_1" xmlns="http://www.w3.org/2000/svg" xmlns:xlink="http://www.w3.org/1999/xlink" x="0px" y="0px"
	 viewBox="0 0 48 48" enable-background="new 0 0 48 48" xml:space="preserve">
<g>
	<rect x="0.5" y="44.5" fill="#F7A93B" width="47" height="3"/>
	<rect x="0.5" y="0.5" fill="#F7A93B" width="47" height="3"/>
	<rect x="0.5" y="36.4" fill="#F7A93B" width="8" height="3"/>
	<rect x="0.5" y="27.5" fill="#F7A93B" width="8" height="3"/>
	<rect x="0.5" y="18.6" fill="#F7A93B" width="8" height="3"/>
	<rect x="0.5" y="9.7" fill="#F7A93B" width="8" height="3"/>
	<rect x="39.5" y="36.4" fill="#F7A93B" width="8" height="3"/>
	<rect x="39.5" y="27.5" fill="#F7A93B" width="8" height="3"/>
	<rect x="39.5" y="18.6" fill="#F7A93B" width="8" height="3"/>
	<rect x="39.5" y="9.7" fill="#F7A93B" width="8" height="3"/>
	<path fill="#F04B36" d="M14.3,33.6c0.4,2,1.9,4.3,3.8,5.1c1.6,0.7,3.5,0.4,5.1,0.4h0.1c1.9,0,4.2,0.2,5.6-1.4
		c1.9-2.2,2.1-5.8,3-8.4c0.4-1.2,1.2-2.3,1.6-3.4c0.4-1.4,0.1-2.9-0.1-4.3c-0.3-1.7-0.7-3.3-1.5-4.9c-0.7-1.6-2.5-7.5-4.8-6.9
		c-0.9,1.4-0.9,3.8-1.1,5.5c-0.2,1.5-0.2,4.9-1,6.1c-0.9-1.8-1.5-3.7-2.8-5.5c-1.6-2.2-3.6-5.7-6-7c1.5,2.2,2.5,5,2.5,7.6
		c0,3.3,0.4,6.9-0.3,10C17.7,30,13.5,29.5,14.3,33.6z"/>
</g>
</svg>
