<?xml version="1.0" encoding="utf-8"?>
<!-- Generator: Adobe Illustrator 18.0.0, SVG Export Plug-In . SVG Version: 6.00 Build 0)  -->
<!DOCTYPE svg PUBLIC "-//W3C//DTD SVG 1.1//EN" "http://www.w3.org/Graphics/SVG/1.1/DTD/svg11.dtd">
<svg version="1.1" id="Layer_1" xmlns="http://www.w3.org/2000/svg" xmlns:xlink="http://www.w3.org/1999/xlink" x="0px" y="0px"
	 viewBox="0 0 48 48" enable-background="new 0 0 48 48" xml:space="preserve">
<g>
	<path fill="#0DB89A" d="M25.8,32.5l21.7-22.2l-9.6-9.8L16.2,22.7L25.8,32.5z M29.1,13l0.6,0.6c0.5-0.5,0.9-0.7,1.3-0.8l0.6,1
		c-0.3,0.1-0.7,0.3-1.3,0.8c-0.5,0.5-0.4,0.8-0.2,1c0.2,0.2,0.6,0.1,1.5-0.2c1.1-0.6,1.9-0.5,2.5,0.1c0.6,0.6,0.7,1.6,0,2.6l0.7,0.7
		l-0.7,0.7L33.5,19c-0.5,0.5-1.1,0.8-1.5,0.9l-0.6-1.1c0.5-0.1,1-0.4,1.5-0.9c0.4-0.4,0.5-0.9,0.2-1.1c-0.3-0.3-0.7-0.2-1.4,0.1
		c-1,0.5-1.9,0.7-2.6,0c-0.6-0.6-0.7-1.6-0.1-2.5l-0.7-0.7L29.1,13z"/>
	<polygon fill="#4DA0D8" points="25.8,35.5 13.3,22.7 27.3,8.4 20.9,4.9 7.4,12.4 8.5,14.2 10.2,13.2 10.2,17.3 0.5,21.8 1.4,23.7 
		3.1,22.9 3.1,47.5 38.7,47.5 38.7,22.3 	"/>
</g>
</svg>
