<?xml version="1.0" encoding="utf-8"?>
<!-- Generator: Adobe Illustrator 18.0.0, SVG Export Plug-In . SVG Version: 6.00 Build 0)  -->
<!DOCTYPE svg PUBLIC "-//W3C//DTD SVG 1.1//EN" "http://www.w3.org/Graphics/SVG/1.1/DTD/svg11.dtd">
<svg version="1.1" id="Layer_1" xmlns="http://www.w3.org/2000/svg" xmlns:xlink="http://www.w3.org/1999/xlink" x="0px" y="0px"
	 viewBox="0 0 48 48" enable-background="new 0 0 48 48" xml:space="preserve">
<g>
	<path fill="#F04B36" d="M6.3,15.2V9.1l-5-2L0.5,8.9l3.8,1.5v4.7v2.6v1.6c0,3.7,2.5,6.8,5.9,7.8H10v12.8h2V27.4c0.1,0,0.3,0,0.4,0
		h21.3c0.4,0,0.8,0,1.3-0.1V31c-2.3,0.5-4,2.5-4,4.9c0,2.7,2.2,5,5,5c2.7,0,5-2.2,5-5c0-2.4-1.7-4.4-4-4.9v-3.9h-0.1
		c2.9-0.6,6.6-2.2,8.5-6.4l2.1-5.6H6.3z"/>
</g>
</svg>
