<?xml version="1.0" encoding="utf-8"?>
<!-- Generator: Adobe Illustrator 18.0.0, SVG Export Plug-In . SVG Version: 6.00 Build 0)  -->
<!DOCTYPE svg PUBLIC "-//W3C//DTD SVG 1.1//EN" "http://www.w3.org/Graphics/SVG/1.1/DTD/svg11.dtd">
<svg version="1.1" id="Layer_1" xmlns="http://www.w3.org/2000/svg" xmlns:xlink="http://www.w3.org/1999/xlink" x="0px" y="0px"
	 viewBox="0 0 48 48" enable-background="new 0 0 48 48" xml:space="preserve">
<g>
	<path fill="#E77528" d="M43.7,3.6c-2.2-2-5-3.1-8-3.1c-3.3,0-6.5,1.4-8.7,3.9c-4.1,4.5-4.1,11.3-0.1,15.8l-12.7,14l-2-1.8l-1.3,1.4
		l2,1.8l-1.5,1.6l-3.3-3l-1.3,1.4l3.3,3.1l-1.5,1.6l-6.1-5.6L1.1,36l6.1,5.7l-1.5,1.6l-4-3.7L0.5,41l4,3.7l-0.8,0.8l2.2,1.9L29,22.1
		c2,1.3,4.3,2.1,6.7,2.1c3.3,0,6.5-1.4,8.7-3.9C48.8,15.5,48.5,8,43.7,3.6z M39.3,15.8c-0.9,1-2.2,1.6-3.6,1.6
		c-1.2,0-2.4-0.5-3.3-1.3c-2.1-1.9-2.2-5.1-0.3-7.2c0.9-1,2.2-1.6,3.6-1.6c1.2,0,2.4,0.5,3.3,1.3C41.1,10.5,41.2,13.7,39.3,15.8z"/>
</g>
</svg>
