<?xml version="1.0" encoding="utf-8"?>
<!-- Generator: Adobe Illustrator 18.0.0, SVG Export Plug-In . SVG Version: 6.00 Build 0)  -->
<!DOCTYPE svg PUBLIC "-//W3C//DTD SVG 1.1//EN" "http://www.w3.org/Graphics/SVG/1.1/DTD/svg11.dtd">
<svg version="1.1" id="Layer_1" xmlns="http://www.w3.org/2000/svg" xmlns:xlink="http://www.w3.org/1999/xlink" x="0px" y="0px"
	 viewBox="0 0 48 48" enable-background="new 0 0 48 48" xml:space="preserve">
<path fill="#06728D" d="M0.5,0.5v47h47v-47H0.5z M24,11.8c1.8,0,3.3,1.5,3.3,3.3c0,1.8-1.5,3.3-3.3,3.3c-1.8,0-3.3-1.5-3.3-3.3
	C20.7,13.3,22.2,11.8,24,11.8z M7.9,11.8l-1.5-1.5l5.7-5.7l5.7,5.7l-1.5,1.5l-4.2-4.2L7.9,11.8z M18,28.2h-2.2v-5.3H18V28.2z
	 M22.2,43.5H20v-8.3h2.2V43.5z M28,43.5h-2.2v-8.3H28V43.5z M28.7,32.1h-9.3V19.8h9.3V32.1z M32.2,28.2H30v-5.3h2.2V28.2z
	 M35.8,12.5l-5.7-5.7l1.5-1.5l4.2,4.2l4.2-4.2l1.5,1.5L35.8,12.5z"/>
</svg>
