<?xml version="1.0" encoding="utf-8"?>
<!-- Generator: Adobe Illustrator 18.0.0, SVG Export Plug-In . SVG Version: 6.00 Build 0)  -->
<!DOCTYPE svg PUBLIC "-//W3C//DTD SVG 1.1//EN" "http://www.w3.org/Graphics/SVG/1.1/DTD/svg11.dtd">
<svg version="1.1" id="Layer_1" xmlns="http://www.w3.org/2000/svg" xmlns:xlink="http://www.w3.org/1999/xlink" x="0px" y="0px"
	 viewBox="0 0 48 48" enable-background="new 0 0 48 48" xml:space="preserve">
<g>
	<path fill="#0DB89A" d="M24.5,2.3C24.9,2,25,1.5,24.7,1c-0.3-0.4-0.8-0.6-1.2-0.5L12.3,4.3c-0.1,0-0.3,0.1-0.4,0.2L0.8,14.7
		c-0.2,0.2-0.3,0.5-0.3,0.7c0,0.3,0.1,0.6,0.3,0.8l3.3,3.5c0.2,0.2,0.4,0.3,0.6,0.3c0.3,0.1,0.7,0,0.9-0.3l4.5-4.1l6.8-6.2L24.5,2.3
		z"/>
	<path fill="#E77528" d="M16.9,9.4l-6.8,6.2l30.4,31.6c0.2,0.2,0.4,0.3,0.6,0.3c0.3,0.1,0.6,0,0.9-0.3l5.2-4.8
		c0.2-0.2,0.3-0.5,0.3-0.7c0-0.3-0.1-0.6-0.3-0.8L16.9,9.4z"/>
</g>
</svg>
