<?xml version="1.0" encoding="utf-8"?>
<!-- Generator: Adobe Illustrator 18.0.0, SVG Export Plug-In . SVG Version: 6.00 Build 0)  -->
<!DOCTYPE svg PUBLIC "-//W3C//DTD SVG 1.1//EN" "http://www.w3.org/Graphics/SVG/1.1/DTD/svg11.dtd">
<svg version="1.1" id="Layer_1" xmlns="http://www.w3.org/2000/svg" xmlns:xlink="http://www.w3.org/1999/xlink" x="0px" y="0px"
	 viewBox="0 0 48 48" enable-background="new 0 0 48 48" xml:space="preserve">
<g>
	<path fill="#E77528" d="M22,38.6c0,2.8-1.9,5.1-4.3,5.1c-2.4,0-4.3-2.3-4.3-5.1c0-1.1-0.9-1.9-1.9-1.9s-1.9,0.9-1.9,1.9
		c0,4.9,3.7,8.9,8.2,8.9c4.5,0,8.2-4,8.2-8.9V19.5H22V38.6z"/>
	<path fill="#F7A93B" d="M41,19.5L41,19.5c0.5,0,1-0.4,1-1c0-9.9-8.1-18-18-18c-9.9,0-18,8.1-18,18c0,0.5,0.4,1,1,1H22h3.8L41,19.5
		L41,19.5z"/>
</g>
</svg>
