<?xml version="1.0" encoding="utf-8"?>
<!-- Generator: Adobe Illustrator 18.0.0, SVG Export Plug-In . SVG Version: 6.00 Build 0)  -->
<!DOCTYPE svg PUBLIC "-//W3C//DTD SVG 1.1//EN" "http://www.w3.org/Graphics/SVG/1.1/DTD/svg11.dtd">
<svg version="1.1" id="Layer_1" xmlns="http://www.w3.org/2000/svg" xmlns:xlink="http://www.w3.org/1999/xlink" x="0px" y="0px"
	 viewBox="0 0 48 48" enable-background="new 0 0 48 48" xml:space="preserve">
<g>
	<path fill="#06728D" d="M47.4,6.9l-2.8-5.5c-0.2-0.3-0.4-0.5-0.8-0.5l-4-0.4c-0.3,0-0.5,0.1-0.8,0.2c-0.2,0.2-0.3,0.4-0.3,0.7
		l0,2.7l-3.4,0.4c-0.3,0-0.5,0.2-0.7,0.4c-0.2,0.2-0.2,0.5-0.1,0.8l0.8,2.8l-3.1-0.3c-0.3,0-0.5,0.1-0.8,0.2
		c-0.2,0.2-0.3,0.4-0.3,0.7l0,4.9l-2.6-0.5c-0.3-0.1-0.6,0-0.9,0.3l-7.3,7.4l-0.1,0.1C15.1,18.9,8.7,20,4.6,24.2
		c-5.3,5.4-5.4,14.1-0.2,19.4c2.5,2.5,5.8,3.9,9.4,3.9h0c3.7,0,7.1-1.5,9.8-4.1c3.8-3.9,5.1-9.5,3.2-14.6L47.2,8
		C47.5,7.7,47.6,7.3,47.4,6.9z M13.4,39.7c-1.5,1.5-4,1.5-5.5,0c-1.5-1.5-1.5-4,0-5.6c1.5-1.5,4-1.5,5.5,0
		C14.9,35.7,14.9,38.2,13.4,39.7z"/>
</g>
</svg>
