<?xml version="1.0" encoding="utf-8"?>
<!-- Generator: Adobe Illustrator 18.0.0, SVG Export Plug-In . SVG Version: 6.00 Build 0)  -->
<!DOCTYPE svg PUBLIC "-//W3C//DTD SVG 1.1//EN" "http://www.w3.org/Graphics/SVG/1.1/DTD/svg11.dtd">
<svg version="1.1" id="Layer_1" xmlns="http://www.w3.org/2000/svg" xmlns:xlink="http://www.w3.org/1999/xlink" x="0px" y="0px"
	 viewBox="0 0 48 48" enable-background="new 0 0 48 48" xml:space="preserve">
<g>
	<path fill="#06728D" d="M12.6,35.9c-3,0-5.4,2.4-5.4,5.4c0,3,2.4,5.4,5.4,5.4c3,0,5.4-2.4,5.4-5.4C18,38.3,15.6,35.9,12.6,35.9z"/>
	<path fill="#06728D" d="M37.4,35.9c-3,0-5.4,2.4-5.4,5.4c0,3,2.4,5.4,5.4,5.4c3,0,5.4-2.4,5.4-5.4C42.8,38.3,40.4,35.9,37.4,35.9z"
		/>
	<path fill="#0DB89A" d="M42.9,24l-4-13h-7.3v22.8h15.9v-9h-3.6C43.4,24.7,43,24.4,42.9,24z M36.7,28.4h-3.3v-2.1h3.3V28.4z"/>
	<path fill="#E77528" d="M29.5,33.7V10L14.2,1.4v9.7c0,0.1,0,0.2-0.1,0.3h12.1c0.6,0,1.1,0.5,1.1,1.1v21.3H29.5z"/>
	<rect x="0.5" y="13.5" fill="#F04B36" width="24.6" height="20.2"/>
</g>
</svg>
