<?xml version="1.0" encoding="utf-8"?>
<!-- Generator: Adobe Illustrator 18.0.0, SVG Export Plug-In . SVG Version: 6.00 Build 0)  -->
<!DOCTYPE svg PUBLIC "-//W3C//DTD SVG 1.1//EN" "http://www.w3.org/Graphics/SVG/1.1/DTD/svg11.dtd">
<svg version="1.1" id="Layer_1" xmlns="http://www.w3.org/2000/svg" xmlns:xlink="http://www.w3.org/1999/xlink" x="0px" y="0px"
	 viewBox="0 0 48 48" enable-background="new 0 0 48 48" xml:space="preserve">
<g>
	<path fill="#0DB89A" d="M13.8,32.3c-3,0-5.4,2.4-5.4,5.4c0,3,2.4,5.4,5.4,5.4c3,0,5.4-2.4,5.4-5.4C19.1,34.7,16.7,32.3,13.8,32.3z"
		/>
	<path fill="#0DB89A" d="M38.6,32.3c-3,0-5.4,2.4-5.4,5.4c0,3,2.4,5.4,5.4,5.4c3,0,5.4-2.4,5.4-5.4C43.9,34.7,41.5,32.3,38.6,32.3z"
		/>
	<path fill="#4DA0D8" d="M29.5,10h-5.2c-0.2,0-0.3,0-0.5-0.1L14.2,5L4.2,9.9C4.1,10,3.9,10,3.8,10H0.5v20.4h29V10z"/>
	<path fill="#F04B36" d="M42.9,20.1l-4-13.7h-7.3v24h15.9v-9.5h-3.6C43.4,20.8,43,20.5,42.9,20.1z M37.8,25h-2.9v-2.1h2.9V25z"/>
</g>
</svg>
