<?xml version="1.0" encoding="utf-8"?>
<!-- Generator: Adobe Illustrator 18.0.0, SVG Export Plug-In . SVG Version: 6.00 Build 0)  -->
<!DOCTYPE svg PUBLIC "-//W3C//DTD SVG 1.1//EN" "http://www.w3.org/Graphics/SVG/1.1/DTD/svg11.dtd">
<svg version="1.1" id="Layer_1" xmlns="http://www.w3.org/2000/svg" xmlns:xlink="http://www.w3.org/1999/xlink" x="0px" y="0px"
	 viewBox="0 0 48 48" enable-background="new 0 0 48 48" xml:space="preserve">
<g>
	<path fill="#4DA0D8" d="M9.2,14.5h29.6c0.3,0,0.5-0.2,0.5-0.5V5.6c0-2.9-2.4-5.3-5.3-5.3H14c-2.9,0-5.3,2.4-5.3,5.3V14
		C8.7,14.2,8.9,14.5,9.2,14.5z"/>
	<path fill="#FFD69A" d="M2.4,25.5h43.2c0,0,0,0,0,0c0.3,0,0.5-0.2,0.5-0.5c0-0.1-0.1-0.3-0.2-0.4l-6.7-8.7
		c-0.1-0.1-0.2-0.2-0.4-0.2H9.2c-0.1,0-0.3,0.1-0.4,0.2l-6.8,8.8c-0.1,0.1-0.1,0.3,0,0.5C2.1,25.4,2.2,25.5,2.4,25.5z"/>
	<path fill="#06728D" d="M45.6,26.9c-0.1,0-0.2,0-0.3,0.1c-0.1,0-0.1-0.1-0.2-0.1H2.8c-0.1,0-0.1,0-0.2,0c-0.1,0-0.1,0-0.2,0
		c-0.5,0-0.9,0.4-0.9,0.9v19c0,0.5,0.4,0.9,0.9,0.9c0.5,0,0.9-0.4,0.9-0.9v-6.7h41.3v6.7c0,0.5,0.4,0.9,0.9,0.9
		c0.5,0,0.9-0.4,0.9-0.9v-19C46.5,27.3,46.1,26.9,45.6,26.9z"/>
</g>
</svg>
