<?xml version="1.0" encoding="utf-8"?>
<!-- Generator: Adobe Illustrator 18.0.0, SVG Export Plug-In . SVG Version: 6.00 Build 0)  -->
<!DOCTYPE svg PUBLIC "-//W3C//DTD SVG 1.1//EN" "http://www.w3.org/Graphics/SVG/1.1/DTD/svg11.dtd">
<svg version="1.1" id="Layer_1" xmlns="http://www.w3.org/2000/svg" xmlns:xlink="http://www.w3.org/1999/xlink" x="0px" y="0px"
	 viewBox="0 0 48 48" enable-background="new 0 0 48 48" xml:space="preserve">
<g>
	<path fill="#0DB89A" d="M43.9,17.4c-2,0-3.7,1.7-3.7,3.7v4.6H7.8v-4.6c0-2-1.7-3.7-3.7-3.7s-3.7,1.7-3.7,3.7v8.3
		c0,2,1.7,3.7,3.7,3.7h1.5v2.4C5.5,36.4,6.2,37,7,37s1.5-0.7,1.5-1.5v-2.4h31v2.4c0,0.8,0.7,1.5,1.5,1.5s1.5-0.7,1.5-1.5v-2.4h1.5
		c2,0,3.7-1.7,3.7-3.7v-8.3C47.6,19.1,45.9,17.4,43.9,17.4z"/>
	<path fill="#E8B944" d="M9.8,21.1v2.6H23V11H12.6c-3,0-5.4,2.3-5.8,5.1C8.6,17.1,9.8,19,9.8,21.1z"/>
	<path fill="#E8B944" d="M38.2,21.1c0-2.1,1.2-4,3-5c-0.3-2.9-2.8-5.1-5.8-5.1H25v12.7h13.2V21.1z"/>
</g>
</svg>
