<?xml version="1.0" encoding="utf-8"?>
<!-- Generator: Adobe Illustrator 18.0.0, SVG Export Plug-In . SVG Version: 6.00 Build 0)  -->
<!DOCTYPE svg PUBLIC "-//W3C//DTD SVG 1.1//EN" "http://www.w3.org/Graphics/SVG/1.1/DTD/svg11.dtd">
<svg version="1.1" id="Layer_1" xmlns="http://www.w3.org/2000/svg" xmlns:xlink="http://www.w3.org/1999/xlink" x="0px" y="0px"
	 viewBox="0 0 48 48" enable-background="new 0 0 48 48" xml:space="preserve">
<g>
	<polygon fill="none" points="17.4,27.5 30.4,27.5 24.8,26 	"/>
	<polygon fill="none" points="17.4,27.5 24.8,26 30.4,27.5 24,4.8 	"/>
	<path fill="#06728D" d="M32.8,27.7l-2.4-0.1h-13L15,27.7c-2,0.5-3.4,2.2-3.4,4.2c0,0,0,0,0,0c0,0,0,0,0,0v14.3
		c0,0.8,0.6,1.4,1.4,1.4c0.8,0,1.4-0.6,1.4-1.4V35.9c0.6,0.2,1.2,0.3,1.8,0.3h1.2v5.5c0,0.8,0.6,1.4,1.4,1.4c0.8,0,1.4-0.6,1.4-1.4
		v-5.5h7.2v5.5c0,0.8,0.6,1.4,1.4,1.4c0.8,0,1.4-0.6,1.4-1.4v-5.5h1.2c0.6,0,1.3-0.1,1.8-0.3v10.3c0,0.8,0.6,1.4,1.4,1.4
		c0.8,0,1.4-0.6,1.4-1.4V31.9c0,0,0,0,0,0c0,0,0,0,0,0C36.4,29.8,34.9,28.1,32.8,27.7z"/>
	<path fill="#4DA0D8" d="M24,4.8l6.4,22.7l2.4,0.1c0.1-0.6,0.2-1.3,0.3-2c0.9-5.2,2.1-12.4,2.6-17.2c0.2-2.1-0.3-3.8-1.5-5.1
		c-2.3-2.6-6.7-3-9.1-3c-0.6,0-1,0-1.2,0c-0.2,0-0.6,0-1.2,0c-2.4,0-6.7,0.4-9.1,3c-1.2,1.3-1.7,3.1-1.5,5.1
		c0.6,5.3,1.9,14,2.8,19.3l2.4-0.2L24,4.8z"/>
</g>
</svg>
