<?xml version="1.0" encoding="utf-8"?>
<!-- Generator: Adobe Illustrator 18.0.0, SVG Export Plug-In . SVG Version: 6.00 Build 0)  -->
<!DOCTYPE svg PUBLIC "-//W3C//DTD SVG 1.1//EN" "http://www.w3.org/Graphics/SVG/1.1/DTD/svg11.dtd">
<svg version="1.1" id="Layer_1" xmlns="http://www.w3.org/2000/svg" xmlns:xlink="http://www.w3.org/1999/xlink" x="0px" y="0px"
	 viewBox="0 0 48 48" enable-background="new 0 0 48 48" xml:space="preserve">
<g>
	<path fill="none" d="M27.7,21.8c-0.5,0-1,0.4-1,1v4c0,0.5,0.4,1,1,1c0.5,0,1-0.4,1-1v-4C28.7,22.2,28.2,21.8,27.7,21.8z"/>
	<path fill="none" d="M24.2,41V11.2c0-2.7,0.4-4.9,1.1-6.7l-4.4,6.3L24.2,41z"/>
	<path fill="none" d="M17.4,13.7V41h0.9h5.9l-3.3-30.2l4.4-6.3c-0.1,0-0.1,0-0.2,0C20.9,4.5,17.4,8.6,17.4,13.7z"/>
	<path fill="#E8B944" d="M18.3,41h-0.9V13.7c0-5.1,3.5-9.2,7.7-9.2c0.1,0,0.1,0,0.2,0l1.8-2.6c-0.7-0.1-1.3-0.2-2-0.2
		c-5.8,0-10.6,5.4-10.6,12V41H1.8c-0.8,0-1.4,0.6-1.4,1.4c0,0.8,0.6,1.4,1.4,1.4H16h2.3h5.9V41H18.3z"/>
	<path fill="none" d="M27.7,21.8c-0.5,0-1,0.4-1,1v4c0,0.5,0.4,1,1,1c0.5,0,1-0.4,1-1v-4C28.7,22.2,28.2,21.8,27.7,21.8z"/>
	<path fill="#E77528" d="M35.2,41V13.7c0-5.4-1.9-12.8-5.5-12.8c-1,0-1.8,0.4-2.6,1l-1.8,2.6c-0.7,1.7-1.1,4-1.1,6.7V41v2.9v2.3
		c0,0.3,0.2,0.6,0.4,0.8c0.2,0.1,0.3,0.2,0.5,0.2c0.1,0,0.2,0,0.4-0.1l8.2-3.3C36.1,42.7,35.2,41,35.2,41z M28.7,26.8
		c0,0.5-0.4,1-1,1c-0.5,0-1-0.4-1-1v-4c0-0.5,0.4-1,1-1c0.5,0,1,0.4,1,1V26.8z"/>
	<path fill="#E8B944" d="M46.2,41h-11c0,0,0.8,1.7-1.6,2.7c0.2,0.1,0.4,0.1,0.6,0.1h11.9c0.8,0,1.4-0.6,1.4-1.4
		C47.6,41.6,47,41,46.2,41z"/>
</g>
</svg>
