<?xml version="1.0" encoding="utf-8"?>
<!-- Generator: Adobe Illustrator 18.0.0, SVG Export Plug-In . SVG Version: 6.00 Build 0)  -->
<!DOCTYPE svg PUBLIC "-//W3C//DTD SVG 1.1//EN" "http://www.w3.org/Graphics/SVG/1.1/DTD/svg11.dtd">
<svg version="1.1" id="Layer_1" xmlns="http://www.w3.org/2000/svg" xmlns:xlink="http://www.w3.org/1999/xlink" x="0px" y="0px"
	 viewBox="0 0 48 48" enable-background="new 0 0 48 48" xml:space="preserve">
<g>
	<path fill="#06728D" d="M43.2,44.5h-3.8v-43c0-0.5-0.4-1-1-1h-29c-0.5,0-1,0.4-1,1v43H4.8c-0.8,0-1.4,0.6-1.4,1.4
		c0,0.8,0.6,1.4,1.4,1.4h38.4c0.8,0,1.4-0.6,1.4-1.4C44.6,45.2,44,44.5,43.2,44.5z M15.4,7.3h17.2v15.5H15.4V7.3z M33.3,31.7h-3.9
		c-0.5,0-1-0.4-1-1c0-0.5,0.4-1,1-1h3.9c0.5,0,1,0.4,1,1C34.2,31.3,33.8,31.7,33.3,31.7z"/>
</g>
</svg>
