<?xml version="1.0" encoding="utf-8"?>
<!-- Generator: Adobe Illustrator 18.0.0, SVG Export Plug-In . SVG Version: 6.00 Build 0)  -->
<!DOCTYPE svg PUBLIC "-//W3C//DTD SVG 1.1//EN" "http://www.w3.org/Graphics/SVG/1.1/DTD/svg11.dtd">
<svg version="1.1" id="Layer_1" xmlns="http://www.w3.org/2000/svg" xmlns:xlink="http://www.w3.org/1999/xlink" x="0px" y="0px"
	 viewBox="0 0 48 48" enable-background="new 0 0 48 48" xml:space="preserve">
<g>
	<path fill="#06728D" d="M22.5,20.9v12.2c-0.5,0.1-0.9,0.3-1.1,0.8c-0.2,0.3-0.4,0.7-0.7,0.8c-0.6,0.1-1.6-0.6-2.1-1.1
		c-0.6-0.6-1.5-0.6-2.1,0c-0.6,0.6-0.6,1.5,0,2.1c0.2,0.2,1.6,1.6,3.4,2c-1.2,1.2-3.2,2.4-6.8,2.9c-0.8,0.1-1.4,0.8-1.3,1.6
		c0.1,0.7,0.7,1.3,1.5,1.3c0.1,0,0.1,0,0.2,0c7.6-0.9,10-5.3,10.5-6.6c0.6,1.4,2.9,5.7,10.5,6.6c0.1,0,0.1,0,0.2,0
		c0.7,0,1.4-0.5,1.5-1.3c0.1-0.8-0.5-1.5-1.3-1.6c-3.6-0.4-5.6-1.7-6.8-2.9c1.8-0.3,3.2-1.8,3.4-2c0.6-0.6,0.5-1.5,0-2.1
		c-0.6-0.6-1.5-0.5-2.1,0c-0.4,0.4-1.5,1.2-2.1,1.1c-0.3,0-0.6-0.4-0.7-0.8c-0.2-0.4-0.6-0.7-1.1-0.8V20.9H22.5z"/>
	<path fill="#E8B944" d="M47.7,12.8c0-5.3-12.2-8.2-23.7-8.2c-11.5,0-23.7,2.9-23.7,8.2c0,5.1,11.2,7.9,22.3,8.1h2.9
		C36.5,20.7,47.7,17.8,47.7,12.8z"/>
</g>
</svg>
