<?xml version="1.0" encoding="utf-8"?>
<!-- Generator: Adobe Illustrator 18.0.0, SVG Export Plug-In . SVG Version: 6.00 Build 0)  -->
<!DOCTYPE svg PUBLIC "-//W3C//DTD SVG 1.1//EN" "http://www.w3.org/Graphics/SVG/1.1/DTD/svg11.dtd">
<svg version="1.1" id="Layer_1" xmlns="http://www.w3.org/2000/svg" xmlns:xlink="http://www.w3.org/1999/xlink" x="0px" y="0px"
	 viewBox="0 0 48 48" enable-background="new 0 0 48 48" xml:space="preserve">
<g>
	<path fill="#F7A93B" d="M47.3,18.1l-7-8.2c-0.2-0.2-0.5-0.3-0.7-0.3H8.4c-0.3,0-0.6,0.1-0.7,0.3l-7.1,8.3c-0.2,0.3-0.3,0.7-0.1,1
		c0.2,0.3,0.5,0.6,0.9,0.6h4V37c0,0.8,0.7,1.5,1.5,1.5c0.8,0,1.5-0.7,1.5-1.5V19.8h2.9v8.5c0,0.8,0.7,1.5,1.5,1.5s1.5-0.7,1.5-1.5
		v-8.5H34v8.5c0,0.8,0.7,1.5,1.5,1.5c0.8,0,1.5-0.7,1.5-1.5v-8.5h2.9V37c0,0.8,0.7,1.5,1.5,1.5c0.8,0,1.5-0.7,1.5-1.5V19.8h4
		c0,0,0,0,0,0c0.5,0,1-0.4,1-1C47.7,18.5,47.5,18.3,47.3,18.1z"/>
	<path fill="#F04B36" d="M0.8,19.7h46.3c0.3-0.2,0.5-0.5,0.5-0.8c0-0.3-0.1-0.6-0.4-0.8l-7-8.2c-0.2-0.2-0.5-0.3-0.7-0.3H8.4
		c-0.3,0-0.6,0.1-0.7,0.3l-7.1,8.3c-0.2,0.3-0.3,0.7-0.1,1C0.5,19.4,0.6,19.6,0.8,19.7z"/>
</g>
</svg>
