<?xml version="1.0" encoding="utf-8"?>
<!-- Generator: Adobe Illustrator 18.0.0, SVG Export Plug-In . SVG Version: 6.00 Build 0)  -->
<!DOCTYPE svg PUBLIC "-//W3C//DTD SVG 1.1//EN" "http://www.w3.org/Graphics/SVG/1.1/DTD/svg11.dtd">
<svg version="1.1" id="Layer_1" xmlns="http://www.w3.org/2000/svg" xmlns:xlink="http://www.w3.org/1999/xlink" x="0px" y="0px"
	 viewBox="0 0 48 48" enable-background="new 0 0 48 48" xml:space="preserve">
<g>
	<path fill="#E8B944" d="M0.5,22.8v15.5c0,2.7,2.2,5,5,5h0.3V46c0,0.8,0.7,1.5,1.5,1.5c0.8,0,1.5-0.7,1.5-1.5v-2.7h8.2V17.8H5.5
		C2.7,17.8,0.5,20,0.5,22.8z M9.5,29.6h3.7c0.5,0,1,0.4,1,1c0,0.5-0.4,1-1,1H9.5c-0.5,0-1-0.4-1-1C8.5,30,9,29.6,9.5,29.6z"/>
	<path fill="#E77528" d="M18.8,43.2h20.6V46c0,0.8,0.7,1.5,1.5,1.5c0.8,0,1.5-0.7,1.5-1.5v-2.7h0.3c2.7,0,5-2.2,5-5v-6.8H18.8V43.2z
		 M30.6,35.4h3.7c0.5,0,1,0.4,1,1c0,0.5-0.4,1-1,1h-3.7c-0.5,0-1-0.4-1-1C29.6,35.8,30,35.4,30.6,35.4z"/>
	<path fill="none" d="M34.2,24.2h-3.7c-0.5,0-1,0.4-1,1s0.4,1,1,1h3.7c0.5,0,1-0.4,1-1S34.8,24.2,34.2,24.2z"/>
	<path fill="#CFD0D1" d="M29.8,15l1,1c0.3,0.3,0.7,0.4,1,0.4c0.4,0,0.7-0.1,1-0.4c0.6-0.6,0.6-1.5,0-2.1l-3.5-3.6
		c-0.6-0.6-1.5-0.6-2.1,0c-0.6,0.6-0.6,1.5,0,2.1l0.5,0.5l-2.3,2.2v-8c0-3.5-2.9-5.4-3.1-5.5c-1.8-1.1-3.6-1.4-5.3-0.8
		c-3.3,1-5.1,4.5-5.2,4.7c-0.4,0.7-0.1,1.6,0.7,1.9c0.7,0.4,1.6,0.1,2-0.6c0,0,1.3-2.6,3.4-3.2c0.9-0.3,1.9-0.1,3,0.5
		c0.1,0,1.7,1.1,1.7,3v8L20.4,13l0.5-0.5c0.6-0.6,0.6-1.5,0-2.1c-0.6-0.6-1.5-0.6-2.1,0L15.2,14c-0.6,0.6-0.6,1.5,0,2.1
		c0.3,0.3,0.7,0.4,1,0.4c0.4,0,0.7-0.1,1-0.4l1-1l2.9,2.8h5.7L29.8,15z"/>
	<path fill="#294E58" d="M42.5,17.8H26.9h-5.7h-2.4v11.7h28.8v-6.8C47.5,20,45.3,17.8,42.5,17.8z M34.2,26.2h-3.7c-0.5,0-1-0.4-1-1
		s0.4-1,1-1h3.7c0.5,0,1,0.4,1,1S34.8,26.2,34.2,26.2z"/>
</g>
</svg>
