<?xml version="1.0" encoding="utf-8"?>
<!-- Generator: Adobe Illustrator 18.0.0, SVG Export Plug-In . SVG Version: 6.00 Build 0)  -->
<!DOCTYPE svg PUBLIC "-//W3C//DTD SVG 1.1//EN" "http://www.w3.org/Graphics/SVG/1.1/DTD/svg11.dtd">
<svg version="1.1" id="Layer_1" xmlns="http://www.w3.org/2000/svg" xmlns:xlink="http://www.w3.org/1999/xlink" x="0px" y="0px"
	 viewBox="0 0 48 48" enable-background="new 0 0 48 48" xml:space="preserve">
<g>
	<path fill="#4DA0D8" d="M46.1,22.2h-6.8v0h-1.9v0h-7.3v0h-1.9v0h-8.3v0h-1.9v0h-7.3v0H8.7v0H1.9c-0.8,0-1.4,0.6-1.4,1.4
		c0,0.8,0.6,1.4,1.4,1.4h3.8v6.5h36.6v-6.5h3.8c0.8,0,1.4-0.6,1.4-1.4C47.5,22.9,46.9,22.2,46.1,22.2z M26.4,28.1h-4.9
		c-0.5,0-0.9-0.4-0.9-1c0-0.5,0.4-0.9,0.9-0.9h4.9c0.5,0,0.9,0.4,0.9,0.9C27.4,27.7,27,28.1,26.4,28.1z"/>
	<path fill="#F7A93B" d="M5.7,38v0.4V44c0,0.8,0.6,1.4,1.4,1.4c0.8,0,1.4-0.6,1.4-1.4v-1.8c0.6,0.2,1.3,0.4,2,0.4h26.9
		c0.7,0,1.4-0.1,2-0.4V44c0,0.8,0.6,1.4,1.4,1.4c0.8,0,1.4-0.6,1.4-1.4v-5.6V38v-4.5H5.7V38z M21.6,36.3h4.9c0.5,0,0.9,0.4,0.9,1
		c0,0.5-0.4,0.9-0.9,0.9h-4.9c-0.5,0-0.9-0.4-0.9-0.9C20.6,36.7,21,36.3,21.6,36.3z"/>
	<rect x="19.8" y="2.6" fill="#E77528" width="8.3" height="17.8"/>
	<polygon fill="#F04B36" points="37.4,6.9 30.1,3.2 30.1,20.4 37.4,20.4 	"/>
	<polygon fill="#F04B36" points="17.9,3.2 10.6,6.9 10.6,20.4 17.9,20.4 	"/>
</g>
</svg>
