<?xml version="1.0" encoding="utf-8"?>
<!-- Generator: Adobe Illustrator 18.0.0, SVG Export Plug-In . SVG Version: 6.00 Build 0)  -->
<!DOCTYPE svg PUBLIC "-//W3C//DTD SVG 1.1//EN" "http://www.w3.org/Graphics/SVG/1.1/DTD/svg11.dtd">
<svg version="1.1" id="Layer_1" xmlns="http://www.w3.org/2000/svg" xmlns:xlink="http://www.w3.org/1999/xlink" x="0px" y="0px"
	 viewBox="0 0 48 48" enable-background="new 0 0 48 48" xml:space="preserve">
<g>
	<path fill="#E8B944" d="M23,33.3V0.5H11.3c-2.7,0-4.9,2.2-4.9,4.9v27.9H23z M18.5,15.8c0-0.5,0.4-1,1-1c0.5,0,1,0.4,1,1v5.1
		c0,0.5-0.4,1-1,1c-0.5,0-1-0.4-1-1V15.8z"/>
	<path fill="#E8B944" d="M25,33.3h16.6V5.4c0-2.7-2.2-4.9-4.9-4.9H25V33.3z M27.9,14.9c0.5,0,1,0.4,1,1v5.1c0,0.5-0.4,1-1,1
		c-0.5,0-1-0.4-1-1v-5.1C26.9,15.3,27.4,14.9,27.9,14.9z"/>
	<path fill="#0DB89A" d="M6.4,35.2v2.4c0,2.1,1.3,3.8,3.1,4.6v4.4c0,0.5,0.4,1,1,1h27.1c0.5,0,1-0.4,1-1v-4.4
		c1.8-0.7,3.1-2.5,3.1-4.6v-2.4H6.4z M25.4,38.6H22c-0.5,0-1-0.4-1-1c0-0.5,0.4-1,1-1h3.5c0.5,0,1,0.4,1,1
		C26.4,38.1,26,38.6,25.4,38.6z"/>
</g>
</svg>
