<?xml version="1.0" encoding="utf-8"?>
<!-- Generator: Adobe Illustrator 18.0.0, SVG Export Plug-In . SVG Version: 6.00 Build 0)  -->
<!DOCTYPE svg PUBLIC "-//W3C//DTD SVG 1.1//EN" "http://www.w3.org/Graphics/SVG/1.1/DTD/svg11.dtd">
<svg version="1.1" id="Layer_1" xmlns="http://www.w3.org/2000/svg" xmlns:xlink="http://www.w3.org/1999/xlink" x="0px" y="0px"
	 viewBox="0 0 48 48" enable-background="new 0 0 48 48" xml:space="preserve">
<g>
	<path fill="#F04B36" d="M14.6,28.3h18.7c0.8-7.7,4.5-11,6.8-12.2c-2.7-5.6-9-9.4-16.2-9.4c-7.1,0-13.4,3.7-16.1,9.4
		c0.2,0.1,0.4,0.2,0.6,0.4C11,18.1,13.9,21.4,14.6,28.3z"/>
	<path fill="#294E58" d="M43.4,17.1c-0.1,0-0.3,0-0.4,0c-0.1,0-0.2,0-0.3,0c-0.1,0-0.4,0.1-0.8,0.3l-0.1,0.1
		c-1.9,0.8-6.2,3.8-6.5,12.8H12.8c-0.3-7.3-3-10.6-5.4-12.2c-0.4-0.2-0.8-0.5-1.1-0.6l-0.1-0.1c-0.4-0.2-0.7-0.3-0.8-0.3
		c-0.1,0-0.2,0-0.2,0c-0.1,0-0.3,0-0.4,0c-2.2,0-4,1.8-4,4c0,2.2,1.8,4,4,4c0.2,0,0.4,0,0.6-0.1c0.7,1.4,1.4,3.8,1.1,8.1
		c-0.1,0.9,0.3,1.8,0.9,2.4c0.6,0.6,1.4,1,2.2,1v3.2c0,0.8,0.7,1.5,1.5,1.5c0.8,0,1.5-0.7,1.5-1.5v-3.2h23.3v3.2
		c0,0.8,0.7,1.5,1.5,1.5c0.8,0,1.5-0.7,1.5-1.5v-3.2c0.8,0,1.6-0.4,2.2-1c0.6-0.6,0.9-1.5,0.9-2.4c-0.3-4.3,0.4-6.8,1.1-8.1
		c0.2,0,0.4,0.1,0.6,0.1c2.2,0,4-1.8,4-4C47.4,18.9,45.6,17.1,43.4,17.1z"/>
</g>
</svg>
