<?xml version="1.0" encoding="utf-8"?>
<!-- Generator: Adobe Illustrator 18.0.0, SVG Export Plug-In . SVG Version: 6.00 Build 0)  -->
<!DOCTYPE svg PUBLIC "-//W3C//DTD SVG 1.1//EN" "http://www.w3.org/Graphics/SVG/1.1/DTD/svg11.dtd">
<svg version="1.1" id="Layer_1" xmlns="http://www.w3.org/2000/svg" xmlns:xlink="http://www.w3.org/1999/xlink" x="0px" y="0px"
	 viewBox="0 0 48 48" enable-background="new 0 0 48 48" xml:space="preserve">
<g>
	<path fill="#F04B36" d="M18.7,21.9c0.3,0,0.5-0.1,0.7-0.3l7.6-7.9c0.4-0.4,0.4-1,0-1.4c-0.4-0.4-1-0.4-1.4,0L18,20.3
		c-0.4,0.4-0.4,1,0,1.4C18.2,21.8,18.5,21.9,18.7,21.9z"/>
	<path fill="#F04B36" d="M18.7,27.9c0.3,0,0.5-0.1,0.7-0.3l7.6-7.9c0.4-0.4,0.4-1,0-1.4c-0.4-0.4-1-0.4-1.4,0L18,26.3
		c-0.4,0.4-0.4,1,0,1.4C18.2,27.8,18.5,27.9,18.7,27.9z"/>
	<path fill="#F04B36" d="M23.3,29.5c0.2,0.2,0.4,0.3,0.7,0.3c0.3,0,0.5-0.1,0.7-0.3l7.6-7.9c0.4-0.4,0.4-1,0-1.4
		c-0.4-0.4-1-0.4-1.4,0l-7.6,7.9C22.9,28.6,23,29.2,23.3,29.5z"/>
	<path fill="#4DA0D8" d="M43.7,44.6h-8.3V37c0-0.1,0-0.1,0-0.2C39.4,33,42,27.3,42,21C42,9.7,33.9,0.5,24,0.5S6,9.7,6,21
		c0,6.4,2.6,12.1,6.6,15.8c0,0.1,0,0.1,0,0.2v7.6H4.3c-0.8,0-1.4,0.6-1.4,1.4c0,0.8,0.6,1.4,1.4,1.4h39.4c0.8,0,1.4-0.6,1.4-1.4
		C45.1,45.2,44.5,44.6,43.7,44.6z M24,7.4c6.5,0,11.7,6.1,11.7,13.6c0,7.5-5.3,13.6-11.7,13.6c-6.5,0-11.7-6.1-11.7-13.6
		C12.3,13.5,17.5,7.4,24,7.4z M15.5,39c2.5,1.6,5.4,2.4,8.5,2.4s6-0.9,8.5-2.4v5.6h-17V39z"/>
</g>
</svg>
