<?xml version="1.0" encoding="utf-8"?>
<!-- Generator: Adobe Illustrator 18.0.0, SVG Export Plug-In . SVG Version: 6.00 Build 0)  -->
<!DOCTYPE svg PUBLIC "-//W3C//DTD SVG 1.1//EN" "http://www.w3.org/Graphics/SVG/1.1/DTD/svg11.dtd">
<svg version="1.1" id="Layer_1" xmlns="http://www.w3.org/2000/svg" xmlns:xlink="http://www.w3.org/1999/xlink" x="0px" y="0px"
	 viewBox="0 0 48 48" enable-background="new 0 0 48 48" xml:space="preserve">
<g>
	<path fill="#F7A93B" d="M23.4,0.4H1.8C1,0.4,0.4,1,0.4,1.8v44.3c0,0.8,0.6,1.4,1.4,1.4c0.8,0,1.4-0.6,1.4-1.4V16.6h20.1V0.4z
		 M18.9,11.7c-0.5,0-1-0.4-1-1v-4c0-0.5,0.4-1,1-1c0.5,0,1,0.4,1,1v4C19.8,11.3,19.4,11.7,18.9,11.7z"/>
	<path fill="#F7A93B" d="M46.2,0.4H25.3v16.2h19.5v29.6c0,0.8,0.6,1.4,1.4,1.4c0.8,0,1.4-0.6,1.4-1.4V1.8C47.6,1,47,0.4,46.2,0.4z
		 M30.1,10.7c0,0.5-0.4,1-1,1c-0.5,0-1-0.4-1-1v-4c0-0.5,0.4-1,1-1c0.5,0,1,0.4,1,1V10.7z"/>
</g>
</svg>
