<?xml version="1.0" encoding="utf-8"?>
<!-- Generator: Adobe Illustrator 18.0.0, SVG Export Plug-In . SVG Version: 6.00 Build 0)  -->
<!DOCTYPE svg PUBLIC "-//W3C//DTD SVG 1.1//EN" "http://www.w3.org/Graphics/SVG/1.1/DTD/svg11.dtd">
<svg version="1.1" id="Layer_1" xmlns="http://www.w3.org/2000/svg" xmlns:xlink="http://www.w3.org/1999/xlink" x="0px" y="0px"
	 viewBox="0 0 48 48" enable-background="new 0 0 48 48" xml:space="preserve">
<g>
	<path fill="#F04B36" d="M9.3,45.6V3.4c0-0.5-0.4-1-1-1h-7c-0.5,0-1,0.4-1,1v42.2H9.3z"/>
	<path fill="#4DA0D8" d="M19.2,45.6V13.5c0-0.5-0.4-1-1-1h-7c-0.5,0-1,0.4-1,1v32.1H19.2z"/>
	<path fill="#0DB89A" d="M29,45.6V22.1c0-0.5-0.4-1-1-1h-7c-0.5,0-1,0.4-1,1v23.5H29z"/>
	<path fill="#E8B944" d="M47.6,45.6v-6.7c0-0.5-0.4-1-1-1H30.9c-0.5,0-1,0.4-1,1v6.7H47.6z"/>
	<path fill="#CFD0D1" d="M30.9,28.1c-0.5,0-1,0.4-1,1v7c0,0.5,0.4,1,1,1h15.7c0.5,0,1-0.4,1-1v-7c0-0.5-0.4-1-1-1H30.9z"/>
</g>
</svg>
