<?xml version="1.0" encoding="utf-8"?>
<!-- Generator: Adobe Illustrator 18.0.0, SVG Export Plug-In . SVG Version: 6.00 Build 0)  -->
<!DOCTYPE svg PUBLIC "-//W3C//DTD SVG 1.1//EN" "http://www.w3.org/Graphics/SVG/1.1/DTD/svg11.dtd">
<svg version="1.1" id="Layer_1" xmlns="http://www.w3.org/2000/svg" xmlns:xlink="http://www.w3.org/1999/xlink" x="0px" y="0px"
	 viewBox="0 0 48 48" enable-background="new 0 0 48 48" xml:space="preserve">
<g>
	<path fill="#06728D" d="M23,8.7V0.2c-2.9,0.2-5.5,1-7.6,2.3L23,8.7z"/>
	<path fill="#06728D" d="M34.2,3.7L26.4,10H38C37.6,7.6,36.3,5.4,34.2,3.7z"/>
	<path fill="#06728D" d="M25,0.2v8.5l7.6-6.2C30.5,1.2,27.8,0.4,25,0.2z"/>
	<path fill="#06728D" d="M21.6,10l-7.8-6.3c-2,1.7-3.4,3.9-3.7,6.3H21.6z"/>
	<path fill="#4DA0D8" d="M43.6,44.9h-5.5V12H25v34H23V12H9.9v32.9H4.4c-0.8,0-1.5,0.7-1.5,1.5c0,0.8,0.7,1.5,1.5,1.5h39.2
		c0.8,0,1.5-0.7,1.5-1.5C45.1,45.5,44.4,44.9,43.6,44.9z M20.9,29.6c0,0.5-0.4,1-1,1c-0.5,0-1-0.4-1-1v-4.5c0-0.5,0.4-1,1-1
		c0.5,0,1,0.4,1,1V29.6z M29.1,29.6c0,0.5-0.4,1-1,1c-0.5,0-1-0.4-1-1v-4.5c0-0.5,0.4-1,1-1c0.5,0,1,0.4,1,1V29.6z"/>
</g>
</svg>
