<?xml version="1.0" encoding="utf-8"?>
<!-- Generator: Adobe Illustrator 18.0.0, SVG Export Plug-In . SVG Version: 6.00 Build 0)  -->
<!DOCTYPE svg PUBLIC "-//W3C//DTD SVG 1.1//EN" "http://www.w3.org/Graphics/SVG/1.1/DTD/svg11.dtd">
<svg version="1.1" id="Layer_1" xmlns="http://www.w3.org/2000/svg" xmlns:xlink="http://www.w3.org/1999/xlink" x="0px" y="0px"
	 viewBox="0 0 48 48" enable-background="new 0 0 48 48" xml:space="preserve">
<g>
	<path fill="#E77528" d="M19.3,33.6H9.1c-0.8,0-1.4,0.6-1.4,1.4v10.9c0,0.8,0.6,1.4,1.4,1.4c0.8,0,1.4-0.6,1.4-1.4v-9.5H18v9.5
		c0,0.8,0.6,1.4,1.4,1.4s1.4-0.6,1.4-1.4V35C20.7,34.2,20.1,33.6,19.3,33.6z"/>
	<path fill="#E8B944" d="M42.1,0.8h-5v32.1h10.5V6.3C47.6,3.3,45.1,0.8,42.1,0.8z M40.6,18.6c0,0.5-0.4,0.9-0.9,0.9
		c-0.5,0-0.9-0.4-0.9-0.9v-3.3c0-0.5,0.4-0.9,0.9-0.9c0.5,0,0.9,0.4,0.9,0.9V18.6z"/>
	<path fill="#294E58" d="M24.7,37.7v0.1v8c0,0.8,0.6,1.4,1.4,1.4c0.8,0,1.4-0.6,1.4-1.4v-3.2c0.8,0.5,1.8,0.7,2.8,0.7h11.9
		c1,0,2-0.3,2.8-0.7v3.2c0,0.8,0.6,1.4,1.4,1.4c0.8,0,1.4-0.6,1.4-1.4v-8v-0.1v-2.9H24.7V37.7z"/>
	<path fill="none" d="M32.3,14.3c-0.5,0-0.9,0.4-0.9,0.9v3.3c0,0.5,0.4,0.9,0.9,0.9c0.5,0,0.9-0.4,0.9-0.9v-3.3
		C33.3,14.7,32.8,14.3,32.3,14.3z"/>
	<path fill="#E8B944" d="M30.2,0.8c-3.1,0-5.5,2.5-5.5,5.5v18v2.8v5.9h10.5V0.8H30.2z M33.3,18.6c0,0.5-0.4,0.9-0.9,0.9
		c-0.5,0-0.9-0.4-0.9-0.9v-3.3c0-0.5,0.4-0.9,0.9-0.9c0.5,0,0.9,0.4,0.9,0.9V18.6z"/>
	<path fill="#294E58" d="M14.1,23.5c0-0.8-0.6-1.4-1.4-1.4h-1.8v-3.2h3.8c0.3,0,0.5-0.1,0.7-0.3c0.2-0.2,0.2-0.5,0.2-0.8l-1.8-8.6
		c-0.1-0.4-0.5-0.7-0.9-0.7H6.2c-0.4,0-0.8,0.3-0.9,0.7l-1.8,8.6c-0.1,0.3,0,0.6,0.2,0.8c0.2,0.2,0.4,0.3,0.7,0.3h3.8v3.2H6.3
		c-0.8,0-1.4,0.6-1.4,1.4c0,0.3,0.1,0.6,0.2,0.8h8.7C14,24.1,14.1,23.8,14.1,23.5z"/>
	<path fill="#0DB89A" d="M13.9,24.3H5.2H1.8c-0.8,0-1.4,0.6-1.4,1.4v20.1c0,0.8,0.6,1.4,1.4,1.4c0.8,0,1.4-0.6,1.4-1.4V27.1h21.5
		v-2.8H13.9z"/>
</g>
</svg>
