<?xml version="1.0" encoding="utf-8"?>
<!-- Generator: Adobe Illustrator 18.0.0, SVG Export Plug-In . SVG Version: 6.00 Build 0)  -->
<!DOCTYPE svg PUBLIC "-//W3C//DTD SVG 1.1//EN" "http://www.w3.org/Graphics/SVG/1.1/DTD/svg11.dtd">
<svg version="1.1" id="Layer_1" xmlns="http://www.w3.org/2000/svg" xmlns:xlink="http://www.w3.org/1999/xlink" x="0px" y="0px"
	 viewBox="0 0 48 48" enable-background="new 0 0 48 48" xml:space="preserve">
<g>
	<path fill="#E77528" d="M45.9,11.1H2.1c-0.8,0-1.4,0.6-1.4,1.4c0,0.8,0.6,1.4,1.4,1.4h2.8v21.5c0,0.8,0.6,1.4,1.4,1.4
		c0.8,0,1.4-0.6,1.4-1.4V14h16.7V18h15.8v1.9H24.4v5.5c0,0.5,0.4,0.9,0.9,0.9h14.9v9.1c0,0.8,0.6,1.4,1.4,1.4c0.8,0,1.4-0.6,1.4-1.4
		V14h2.8c0.8,0,1.4-0.6,1.4-1.4C47.3,11.8,46.7,11.1,45.9,11.1z M34.4,16.6h-2.2c-0.5,0-0.9-0.4-0.9-0.9c0-0.5,0.4-0.9,0.9-0.9h2.2
		c0.5,0,0.9,0.4,0.9,0.9C35.3,16.1,34.9,16.6,34.4,16.6z M34.4,23h-2.2c-0.5,0-0.9-0.4-0.9-0.9c0-0.5,0.4-0.9,0.9-0.9h2.2
		c0.5,0,0.9,0.4,0.9,0.9C35.3,22.6,34.9,23,34.4,23z"/>
</g>
</svg>
