<?xml version="1.0" encoding="utf-8"?>
<!-- Generator: Adobe Illustrator 18.0.0, SVG Export Plug-In . SVG Version: 6.00 Build 0)  -->
<!DOCTYPE svg PUBLIC "-//W3C//DTD SVG 1.1//EN" "http://www.w3.org/Graphics/SVG/1.1/DTD/svg11.dtd">
<svg version="1.1" id="Layer_1" xmlns="http://www.w3.org/2000/svg" xmlns:xlink="http://www.w3.org/1999/xlink" x="0px" y="0px"
	 viewBox="0 0 48 48" enable-background="new 0 0 48 48" xml:space="preserve">
<g>
	<path fill="#4DA0D8" d="M0.8,29.8h4.8l6.6-7.2c0.2-0.2,0.4-0.3,0.7-0.3H25v-4.6H0.8V29.8z"/>
	<polygon fill="#F04B36" points="8.8,7.8 0.8,7.8 0.8,15.8 15.7,15.8 	"/>
	<path fill="#E77528" d="M6.6,31.4c-0.2,0.2-0.4,0.3-0.7,0.3H0.8v2.6H25V24.3H13.3L6.6,31.4z"/>
	<path fill="#F7A93B" d="M27.4,7.5v2.5c0,0.8,0.6,1.4,1.4,1.4c0.8,0,1.4-0.6,1.4-1.4V7.5c0-0.1,0-0.1,0-0.2H34c0,0.1,0,0.1,0,0.2
		v2.5c0,0.8,0.6,1.4,1.4,1.4c0.8,0,1.4-0.6,1.4-1.4V7.5c0-0.1,0-0.1,0-0.2h3.8c0,0.1,0,0.1,0,0.2v2.5c0,0.8,0.6,1.4,1.4,1.4
		c0.8,0,1.4-0.6,1.4-1.4V7.5c0-0.1,0-0.1,0-0.2h0.2c0.8,0,1.4-0.6,1.4-1.4c0-0.8-0.6-1.4-1.4-1.4H25V1.3c0-0.5-0.4-1-1-1H1.7
		c-0.5,0-1,0.4-1,1v4.6h8.5C9.5,5.9,9.8,6,10,6.3l7.9,9.2c0.1,0.1,0.2,0.3,0.2,0.4H25V7.4h2.4C27.4,7.4,27.4,7.5,27.4,7.5z"/>
	<path fill="#06728D" d="M0.8,46.7c0,0.5,0.4,1,1,1H23V36.3H0.8V46.7z M10.7,39.7H15c0.5,0,1,0.4,1,1c0,0.5-0.4,1-1,1h-4.3
		c-0.5,0-1-0.4-1-1C9.7,40.1,10.2,39.7,10.7,39.7z"/>
	<path fill="#06728D" d="M46.3,35.1H25l0,12.5h21.2c0.5,0,1-0.4,1-1V36.1C47.2,35.6,46.8,35.1,46.3,35.1z M37.3,41.6H33
		c-0.5,0-1-0.4-1-1c0-0.5,0.4-1,1-1h4.3c0.5,0,1,0.4,1,1C38.2,41.1,37.8,41.6,37.3,41.6z"/>
</g>
</svg>
