<?xml version="1.0" encoding="utf-8"?>
<!-- Generator: Adobe Illustrator 18.0.0, SVG Export Plug-In . SVG Version: 6.00 Build 0)  -->
<!DOCTYPE svg PUBLIC "-//W3C//DTD SVG 1.1//EN" "http://www.w3.org/Graphics/SVG/1.1/DTD/svg11.dtd">
<svg version="1.1" id="Layer_1" xmlns="http://www.w3.org/2000/svg" xmlns:xlink="http://www.w3.org/1999/xlink" x="0px" y="0px"
	 viewBox="0 0 48 48" enable-background="new 0 0 48 48" xml:space="preserve">
<g>
	<path fill="#0DB89A" d="M46.2,24.7H3.3v-15c0-0.8-0.6-1.4-1.4-1.4c-0.8,0-1.4,0.6-1.4,1.4v28.6c0,0.8,0.6,1.4,1.4,1.4
		c0.8,0,1.4-0.6,1.4-1.4v-5.1h41.4v5.1c0,0.8,0.6,1.4,1.4,1.4c0.8,0,1.4-0.6,1.4-1.4V26.1C47.6,25.3,46.9,24.7,46.2,24.7z"/>
	<path fill="#F7A93B" d="M6.8,23.7h8.6c1.3,0,2.4-1.1,2.4-2.4v-1c0-1.3-1.1-2.4-2.4-2.4H6.8c-1.3,0-2.4,1.1-2.4,2.4v1
		C4.4,22.6,5.4,23.7,6.8,23.7z"/>
</g>
</svg>
