<?xml version="1.0" encoding="utf-8"?>
<!-- Generator: Adobe Illustrator 18.0.0, SVG Export Plug-In . SVG Version: 6.00 Build 0)  -->
<!DOCTYPE svg PUBLIC "-//W3C//DTD SVG 1.1//EN" "http://www.w3.org/Graphics/SVG/1.1/DTD/svg11.dtd">
<svg version="1.1" id="Layer_1" xmlns="http://www.w3.org/2000/svg" xmlns:xlink="http://www.w3.org/1999/xlink" x="0px" y="0px"
	 viewBox="0 0 48 48" enable-background="new 0 0 48 48" xml:space="preserve">
<g>
	<path fill="#4DA0D8" d="M44.7,16.4c-1.6,0-2.8,1.3-2.8,2.8v7.2c0,0.6-0.5,1.2-1.2,1.2H7.3c-0.6,0-1.2-0.5-1.2-1.2v-7.2
		c0-1.6-1.3-2.8-2.8-2.8c-1.6,0-2.8,1.3-2.8,2.8v7.2c0,3.7,3,6.8,6.8,6.8V36c0,0.5,0.4,1,1,1s1-0.4,1-1v-2.7h29.5V36
		c0,0.5,0.4,1,1,1c0.5,0,1-0.4,1-1v-2.7c3.7,0,6.8-3.1,6.8-6.8v-7.2C47.5,17.6,46.2,16.4,44.7,16.4z"/>
	<path fill="#0DB89A" d="M8.1,19.2v6.4h31.7v-6.4c0-2.7,2.2-4.8,4.8-4.8c0,0,0.1,0,0.1,0V14c0-1.6-1.7-3-3.7-3H7
		c-2.1,0-3.7,1.4-3.7,3.2v0.2c0,0,0.1,0,0.1,0C6,14.4,8.1,16.6,8.1,19.2z M34.8,15.9h0.9c0.5,0,1,0.4,1,1c0,0.5-0.4,1-1,1h-0.9
		c-0.5,0-1-0.4-1-1C33.8,16.3,34.2,15.9,34.8,15.9z M34.8,22h0.9c0.5,0,1,0.4,1,1c0,0.5-0.4,1-1,1h-0.9c-0.5,0-1-0.4-1-1
		C33.8,22.4,34.2,22,34.8,22z M23.6,15.9h0.9c0.5,0,1,0.4,1,1c0,0.5-0.4,1-1,1h-0.9c-0.5,0-1-0.4-1-1C22.6,16.3,23,15.9,23.6,15.9z
		 M23.6,22h0.9c0.5,0,1,0.4,1,1c0,0.5-0.4,1-1,1h-0.9c-0.5,0-1-0.4-1-1C22.6,22.4,23,22,23.6,22z M12.4,15.9h0.9c0.5,0,1,0.4,1,1
		c0,0.5-0.4,1-1,1h-0.9c-0.5,0-1-0.4-1-1C11.4,16.3,11.8,15.9,12.4,15.9z M12.4,22h0.9c0.5,0,1,0.4,1,1c0,0.5-0.4,1-1,1h-0.9
		c-0.5,0-1-0.4-1-1C11.4,22.4,11.8,22,12.4,22z"/>
</g>
</svg>
