<?xml version="1.0" encoding="utf-8"?>
<!-- Generator: Adobe Illustrator 18.0.0, SVG Export Plug-In . SVG Version: 6.00 Build 0)  -->
<!DOCTYPE svg PUBLIC "-//W3C//DTD SVG 1.1//EN" "http://www.w3.org/Graphics/SVG/1.1/DTD/svg11.dtd">
<svg version="1.1" id="Layer_1" xmlns="http://www.w3.org/2000/svg" xmlns:xlink="http://www.w3.org/1999/xlink" x="0px" y="0px"
	 viewBox="0 0 48 48" enable-background="new 0 0 48 48" xml:space="preserve">
<g>
	<rect x="6.6" y="15.7" fill="#06728D" width="34.9" height="3.2"/>
	<rect x="6.6" y="34.3" fill="#06728D" width="34.9" height="3.2"/>
	<path fill="#E77528" d="M12.1,8.1L7.3,0.9C7,0.4,5.9,0.4,5.6,0.9L0.7,8.3C0.6,8.5,0.5,8.7,0.5,8.9v37.7c0,0.5,0.5,1,1,1h9.8
		c0.3,0,0.6-0.1,0.8-0.3V8.1z"/>
	<path fill="#E77528" d="M29.8,8.1L25,0.9c-0.4-0.6-1.4-0.6-1.8,0l-4.9,7.4c-0.1,0.2-0.2,0.3-0.2,0.5v37.7c0,0.5,0.5,1,1,1h9.8
		c0.3,0,0.6-0.1,0.8-0.3V8.1z"/>
	<path fill="#E77528" d="M47.5,8.1l-4.8-7.2c-0.4-0.6-1.4-0.6-1.8,0l-4.9,7.4c-0.1,0.2-0.2,0.3-0.2,0.5v37.7c0,0.5,0.5,1,1,1h9.8
		c0.3,0,0.6-0.1,0.8-0.3V8.1z"/>
</g>
</svg>
