<?xml version="1.0" encoding="utf-8"?>
<!-- Generator: Adobe Illustrator 18.0.0, SVG Export Plug-In . SVG Version: 6.00 Build 0)  -->
<!DOCTYPE svg PUBLIC "-//W3C//DTD SVG 1.1//EN" "http://www.w3.org/Graphics/SVG/1.1/DTD/svg11.dtd">
<svg version="1.1" id="Layer_1" xmlns="http://www.w3.org/2000/svg" xmlns:xlink="http://www.w3.org/1999/xlink" x="0px" y="0px"
	 viewBox="0 0 48 48" enable-background="new 0 0 48 48" xml:space="preserve">
<g>
	<rect x="15.6" y="25" fill="#4DA0D8" width="5" height="14.3"/>
	<rect x="15.6" y="8.7" fill="#4DA0D8" width="5" height="14.3"/>
	<rect x="27.4" y="25" fill="#4DA0D8" width="5" height="14.3"/>
	<rect x="8.7" y="25" fill="#4DA0D8" width="5" height="14.3"/>
	<rect x="8.7" y="8.7" fill="#4DA0D8" width="5" height="14.3"/>
	<rect x="34.3" y="25" fill="#4DA0D8" width="5" height="14.3"/>
	<rect x="34.3" y="8.7" fill="#4DA0D8" width="5" height="14.3"/>
	<rect x="27.4" y="8.7" fill="#4DA0D8" width="5" height="14.3"/>
	<path fill="#CFD0D1" d="M46.6,0.4H1.4c-0.5,0-1,0.4-1,1v45.3c0,0.5,0.4,1,1,1h45.3c0.5,0,1-0.4,1-1V1.4C47.6,0.8,47.2,0.4,46.6,0.4
		z M22.6,40.3c0,0.5-0.4,1-1,1H7.7c-0.5,0-1-0.4-1-1V7.7c0-0.5,0.4-1,1-1h13.9c0.5,0,1,0.4,1,1V40.3z M41.3,40.3c0,0.5-0.4,1-1,1
		H26.4c-0.5,0-1-0.4-1-1V7.7c0-0.5,0.4-1,1-1h13.9c0.5,0,1,0.4,1,1V40.3z"/>
</g>
</svg>
