<?xml version="1.0" encoding="utf-8"?>
<!-- Generator: Adobe Illustrator 18.0.0, SVG Export Plug-In . SVG Version: 6.00 Build 0)  -->
<!DOCTYPE svg PUBLIC "-//W3C//DTD SVG 1.1//EN" "http://www.w3.org/Graphics/SVG/1.1/DTD/svg11.dtd">
<svg version="1.1" id="Layer_1" xmlns="http://www.w3.org/2000/svg" xmlns:xlink="http://www.w3.org/1999/xlink" x="0px" y="0px"
	 viewBox="0 0 48 48" enable-background="new 0 0 48 48" xml:space="preserve">
<g>
	<rect x="7.3" y="32.6" fill="none" width="33.5" height="2.2"/>
	<path fill="#E77528" d="M6.5,21.5l4-3v-3.2l-6.3,4.7c-0.4,0.3-0.6,0.9-0.5,1.4l2.3,8l2.1-2.2L6.5,21.5z"/>
	<rect x="7.3" y="32.6" fill="none" width="33.5" height="2.2"/>
	<path fill="#294E58" d="M37.6,6.6c0-3.4-2.8-6.3-6.3-6.3H16.7c-3.4,0-6.3,2.8-6.3,6.3v8.6v3.2v2.1c0,0.7,0.6,1.3,1.3,1.3h24.5
		c0.7,0,1.3-0.6,1.3-1.3v-2.1v-3.2V6.6z"/>
	<path fill="#E77528" d="M44.3,21.3c0.1-0.5,0-1.1-0.5-1.4l-6.3-4.7v3.2l4,3l-1.6,5.6l2.1,2.2L44.3,21.3z"/>
	<path fill="#F7A93B" d="M42,29.3l-2.1-2.2l-2.7-3c-0.2-0.3-0.6-0.4-1-0.4H11.7c-0.4,0-0.7,0.2-1,0.4l-2.7,3L6,29.3l-1,1.1
		c0,0,0,0,0,0c-0.1,0.1-0.1,0.2-0.2,0.2c0,0,0,0,0,0.1c0,0.1-0.1,0.2-0.1,0.3c0,0,0,0,0,0.1c0,0.1,0,0.1,0,0.2v15
		c0,0.7,0.6,1.3,1.3,1.3s1.3-0.6,1.3-1.3v-8.9h33.5v8.9c0,0.7,0.6,1.3,1.3,1.3c0.7,0,1.3-0.6,1.3-1.3V31.4c0-0.1,0-0.1,0-0.2
		c0-0.4-0.2-0.8-0.5-1L42,29.3z M40.7,34.8H7.3v-2.2h33.5V34.8z"/>
</g>
</svg>
