<?xml version="1.0" encoding="utf-8"?>
<!-- Generator: Adobe Illustrator 18.0.0, SVG Export Plug-In . SVG Version: 6.00 Build 0)  -->
<!DOCTYPE svg PUBLIC "-//W3C//DTD SVG 1.1//EN" "http://www.w3.org/Graphics/SVG/1.1/DTD/svg11.dtd">
<svg version="1.1" id="Layer_1" xmlns="http://www.w3.org/2000/svg" xmlns:xlink="http://www.w3.org/1999/xlink" x="0px" y="0px"
	 viewBox="0 0 48 48" enable-background="new 0 0 48 48" xml:space="preserve">
<g>
	<path fill="#F04B36" d="M40.5,28.2C40.5,28.2,40.5,28.2,40.5,28.2c0.6,0,1-0.4,1-1c0-0.2,0-0.3-0.1-0.4L34.5,1.1
		c-0.1-0.4-0.5-0.7-0.9-0.7H14.4c-0.4,0-0.8,0.3-0.9,0.7L6.6,27c-0.1,0.3,0,0.6,0.2,0.8c0.2,0.2,0.5,0.4,0.8,0.4h15h2.9H40.5z"/>
	<path fill="#CFD0D1" d="M35.2,44.8h-9.7V28.2h-2.9v16.6h-9.7c-0.8,0-1.4,0.6-1.4,1.4c0,0.8,0.6,1.4,1.4,1.4h22.3
		c0.8,0,1.4-0.6,1.4-1.4C36.6,45.4,36,44.8,35.2,44.8z"/>
</g>
</svg>
