<?xml version="1.0" encoding="utf-8"?>
<!-- Generator: Adobe Illustrator 18.0.0, SVG Export Plug-In . SVG Version: 6.00 Build 0)  -->
<!DOCTYPE svg PUBLIC "-//W3C//DTD SVG 1.1//EN" "http://www.w3.org/Graphics/SVG/1.1/DTD/svg11.dtd">
<svg version="1.1" id="Layer_1" xmlns="http://www.w3.org/2000/svg" xmlns:xlink="http://www.w3.org/1999/xlink" x="0px" y="0px"
	 viewBox="0 0 48 48" enable-background="new 0 0 48 48" xml:space="preserve">
<g>
	<path fill="#06728D" d="M43.3,24.9c-2.2,0-3.9,1.7-3.9,3.8v5.3c0,0.4-1.5,1.5-3.9,1.5H12.6c-2.4,0-3.9-1.1-3.9-1.5v-5.4
		c0-2.1-1.8-3.8-3.9-3.8c-2.2,0-3.9,1.7-3.9,3.8v5.4c0,4.3,3.6,7.8,8.7,8.9v3.3c0,0.8,0.7,1.5,1.5,1.5c0.8,0,1.5-0.7,1.5-1.5v-2.9
		c0.1,0,0.1,0,0.2,0h22.8c0.1,0,0.1,0,0.2,0v2.9c0,0.8,0.7,1.5,1.5,1.5c0.8,0,1.5-0.7,1.5-1.5V43c5-1,8.7-4.6,8.7-8.9v-5.4
		C47.2,26.7,45.5,24.9,43.3,24.9z"/>
	<path fill="#4DA0D8" d="M8.6,14.5h30.9c0.3,0,0.5-0.2,0.5-0.5V0.8c0-0.3-0.2-0.5-0.5-0.5H8.6c-0.3,0-0.5,0.2-0.5,0.5V14
		C8.1,14.3,8.3,14.5,8.6,14.5z"/>
	<path fill="#F7A93B" d="M4.7,23c3.2,0,5.9,2.6,5.9,5.8v4.5c0.4,0.2,1.1,0.4,2,0.4H23V18.9H8.7c-2.4,0-4.4,1.6-4.4,3.5l0,0.6
		C4.5,23,4.6,23,4.7,23z"/>
	<path fill="#F7A93B" d="M25,18.9v14.8h10.4c0.9,0,1.6-0.2,2-0.4v-4.5c0-3.2,2.6-5.8,5.9-5.8c0.1,0,0.3,0,0.4,0v-0.6
		c0-1.9-2-3.5-4.4-3.5H25z"/>
</g>
</svg>
