<?xml version="1.0" encoding="utf-8"?>
<!-- Generator: Adobe Illustrator 18.0.0, SVG Export Plug-In . SVG Version: 6.00 Build 0)  -->
<!DOCTYPE svg PUBLIC "-//W3C//DTD SVG 1.1//EN" "http://www.w3.org/Graphics/SVG/1.1/DTD/svg11.dtd">
<svg version="1.1" id="Layer_1" xmlns="http://www.w3.org/2000/svg" xmlns:xlink="http://www.w3.org/1999/xlink" x="0px" y="0px"
	 viewBox="0 0 48 48" enable-background="new 0 0 48 48" xml:space="preserve">
<g>
	<path fill="#0DB89A" d="M46.2,0.4c-0.8,0-1.4,0.6-1.4,1.4v8.9H3.3V1.8c0-0.8-0.6-1.4-1.4-1.4C1,0.4,0.4,1,0.4,1.8v44.3
		c0,0.8,0.6,1.4,1.4,1.4c0.8,0,1.4-0.6,1.4-1.4V37h30v9.1c0,0.8,0.6,1.4,1.4,1.4c0.8,0,1.4-0.6,1.4-1.4v-2.8h8.6v2.8
		c0,0.8,0.6,1.4,1.4,1.4c0.8,0,1.4-0.6,1.4-1.4V1.8C47.6,1,47,0.4,46.2,0.4z M36.1,20.9h8.6v6h-8.6V20.9z M36.1,29.8h8.6v4.4h-8.6
		V29.8z M44.7,18h-8.6v-4.4h8.6V18z M3.3,34.2V13.6h30v20.6H3.3z M36.1,40.5V37h8.6v3.4H36.1z"/>
</g>
</svg>
