<?xml version="1.0" encoding="utf-8"?>
<!-- Generator: Adobe Illustrator 18.0.0, SVG Export Plug-In . SVG Version: 6.00 Build 0)  -->
<!DOCTYPE svg PUBLIC "-//W3C//DTD SVG 1.1//EN" "http://www.w3.org/Graphics/SVG/1.1/DTD/svg11.dtd">
<svg version="1.1" id="Layer_1" xmlns="http://www.w3.org/2000/svg" xmlns:xlink="http://www.w3.org/1999/xlink" x="0px" y="0px"
	 viewBox="0 0 48 48" enable-background="new 0 0 48 48" xml:space="preserve">
<g>
	<path fill="#4DA0D8" d="M23,0.4H12.4c-2.6,0-4.8,2.1-4.8,4.8v34.4c0,2.6,2.1,4.8,4.8,4.8h0.4v1.9c0,0.8,0.6,1.4,1.4,1.4
		c0.8,0,1.4-0.6,1.4-1.4v-1.9H23V0.4z M20,24.3c-0.5,0-1-0.4-1-1v-5.8c0-0.5,0.4-1,1-1c0.5,0,1,0.4,1,1v5.8
		C20.9,23.9,20.5,24.3,20,24.3z"/>
	<path fill="#06728D" d="M35.6,0.4H25v43.9h7.4v1.9c0,0.8,0.6,1.4,1.4,1.4c0.8,0,1.4-0.6,1.4-1.4v-1.9h0.4c2.6,0,4.8-2.1,4.8-4.8
		V5.2C40.4,2.5,38.2,0.4,35.6,0.4z M29,23.4c0,0.5-0.4,1-1,1c-0.5,0-1-0.4-1-1v-5.8c0-0.5,0.4-1,1-1c0.5,0,1,0.4,1,1V23.4z"/>
</g>
</svg>
