<?xml version="1.0" encoding="utf-8"?>
<!-- Generator: Adobe Illustrator 18.0.0, SVG Export Plug-In . SVG Version: 6.00 Build 0)  -->
<!DOCTYPE svg PUBLIC "-//W3C//DTD SVG 1.1//EN" "http://www.w3.org/Graphics/SVG/1.1/DTD/svg11.dtd">
<svg version="1.1" id="Layer_1" xmlns="http://www.w3.org/2000/svg" xmlns:xlink="http://www.w3.org/1999/xlink" x="0px" y="0px"
	 viewBox="0 0 48 48" enable-background="new 0 0 48 48" xml:space="preserve">
<g>
	<path fill="#E77528" d="M46,5.1H2c-0.8,0-1.4,0.6-1.4,1.4c0,0.8,0.6,1.4,1.4,1.4h4.5C6,8.7,5.8,9.5,5.8,10.4V33
		c0,2.5,1.9,4.5,4.3,4.8v3.7c0,0.8,0.6,1.4,1.4,1.4c0.8,0,1.4-0.6,1.4-1.4v-3.7h10.1V7.6h1.9v30.2h10.1v3.7c0,0.8,0.6,1.4,1.4,1.4
		c0.8,0,1.4-0.6,1.4-1.4v-3.7c2.4-0.3,4.3-2.3,4.3-4.8V10.4c0-0.9-0.3-1.7-0.7-2.5H46c0.8,0,1.4-0.6,1.4-1.4
		C47.4,5.7,46.8,5.1,46,5.1z M19.9,22.2c0,0.5-0.4,0.9-0.9,0.9s-0.9-0.4-0.9-0.9v-4.8c0-0.5,0.4-0.9,0.9-0.9s0.9,0.4,0.9,0.9V22.2z
		 M29.9,22.2c0,0.5-0.4,0.9-0.9,0.9c-0.5,0-0.9-0.4-0.9-0.9v-4.8c0-0.5,0.4-0.9,0.9-0.9c0.5,0,0.9,0.4,0.9,0.9V22.2z"/>
</g>
</svg>
