<?xml version="1.0" encoding="utf-8"?>
<!-- Generator: Adobe Illustrator 18.0.0, SVG Export Plug-In . SVG Version: 6.00 Build 0)  -->
<!DOCTYPE svg PUBLIC "-//W3C//DTD SVG 1.1//EN" "http://www.w3.org/Graphics/SVG/1.1/DTD/svg11.dtd">
<svg version="1.1" id="Layer_1" xmlns="http://www.w3.org/2000/svg" xmlns:xlink="http://www.w3.org/1999/xlink" x="0px" y="0px"
	 viewBox="0 0 48 48" enable-background="new 0 0 48 48" xml:space="preserve">
<g>
	<path fill="#CFD0D1" d="M1.8,12.1h3.3v8.6h37.8v-8.6h3.3c0.8,0,1.4-0.6,1.4-1.4c0-0.8-0.6-1.4-1.4-1.4H1.8c-0.8,0-1.4,0.6-1.4,1.4
		C0.3,11.4,1,12.1,1.8,12.1z M21.6,14h4.9c0.5,0,1,0.4,1,1c0,0.5-0.4,1-1,1h-4.9c-0.5,0-1-0.4-1-1C20.6,14.5,21,14,21.6,14z"/>
	<path fill="#06728D" d="M5.1,22.5v6.2v0v8.6c0,0.8,0.6,1.4,1.4,1.4c0.8,0,1.4-0.6,1.4-1.4v-3.9c0.7,0.4,1.6,0.6,2.5,0.6h27.1
		c0.9,0,1.7-0.2,2.5-0.6v3.9c0,0.8,0.6,1.4,1.4,1.4c0.8,0,1.4-0.6,1.4-1.4v-8.6v0v-6.2H5.1z M26.4,28.3h-4.9c-0.5,0-1-0.4-1-1
		c0-0.5,0.4-1,1-1h4.9c0.5,0,1,0.4,1,1C27.4,27.9,27,28.3,26.4,28.3z"/>
</g>
</svg>
