<?xml version="1.0" encoding="utf-8"?>
<!-- Generator: Adobe Illustrator 18.0.0, SVG Export Plug-In . SVG Version: 6.00 Build 0)  -->
<!DOCTYPE svg PUBLIC "-//W3C//DTD SVG 1.1//EN" "http://www.w3.org/Graphics/SVG/1.1/DTD/svg11.dtd">
<svg version="1.1" id="Layer_1" xmlns="http://www.w3.org/2000/svg" xmlns:xlink="http://www.w3.org/1999/xlink" x="0px" y="0px"
	 viewBox="0 0 48 48" enable-background="new 0 0 48 48" xml:space="preserve">
<g>
	<path fill="#E8B944" d="M6.7,18.6H1.5c-0.5,0-1,0.4-1,1v26.7c0,0.5,0.4,1,1,1h5.2c0.5,0,1-0.4,1-1V19.6C7.7,19,7.2,18.6,6.7,18.6z"
		/>
	<path fill="#E8B944" d="M46.5,18.6h-5.2c-0.5,0-1,0.4-1,1v26.7c0,0.5,0.4,1,1,1h5.2c0.5,0,1-0.4,1-1V19.6
		C47.5,19,47.1,18.6,46.5,18.6z"/>
	<path fill="#4DA0D8" d="M37.2,0.2H10.8c-0.5,0-1,0.4-1,1v17.2c0,0.5,0.4,1,1,1h26.3c0.5,0,1-0.4,1-1V1.2
		C38.1,0.7,37.7,0.2,37.2,0.2z"/>
	<path fill="#E77528" d="M11.3,32.8v6.4V41v5.3c0,0.8,0.7,1.5,1.5,1.5c0.8,0,1.5-0.7,1.5-1.5v-2.1c0,0,0.1,0,0.1,0H23V29.5h-8.7
		C12.6,29.5,11.3,31,11.3,32.8z M18.5,36.3c0-0.5,0.4-1,1-1s1,0.4,1,1v1.3c0,0.5-0.4,1-1,1s-1-0.4-1-1V36.3z"/>
	<path fill="#E77528" d="M33.7,29.5H25v14.7h8.7c0,0,0.1,0,0.1,0v2.1c0,0.8,0.7,1.5,1.5,1.5s1.5-0.7,1.5-1.5V41v-1.8v-6.4
		C36.7,31,35.4,29.5,33.7,29.5z M29.1,37.6c0,0.5-0.4,1-1,1c-0.5,0-1-0.4-1-1v-1.3c0-0.5,0.4-1,1-1c0.5,0,1,0.4,1,1V37.6z"/>
</g>
</svg>
