<?xml version="1.0" encoding="utf-8"?>
<!-- Generator: Adobe Illustrator 18.0.0, SVG Export Plug-In . SVG Version: 6.00 Build 0)  -->
<!DOCTYPE svg PUBLIC "-//W3C//DTD SVG 1.1//EN" "http://www.w3.org/Graphics/SVG/1.1/DTD/svg11.dtd">
<svg version="1.1" id="Layer_1" xmlns="http://www.w3.org/2000/svg" xmlns:xlink="http://www.w3.org/1999/xlink" x="0px" y="0px"
	 viewBox="0 0 48 48" enable-background="new 0 0 48 48" xml:space="preserve">
<g>
	<path fill="#E77528" d="M23,30.4V0.5H7.2c-3.6,0-6.5,2.1-6.5,4.8v25.1H23z M17.2,13.6c0-0.5,0.4-1,1-1c0.5,0,1,0.4,1,1v5.8
		c0,0.5-0.4,1-1,1c-0.5,0-1-0.4-1-1V13.6z"/>
	<path fill="#4DA0D8" d="M23,32.3H0.7v7.2c0,2.6,2.9,4.8,6.5,4.8h1.2v1.9c0,0.8,0.6,1.4,1.4,1.4c0.8,0,1.4-0.6,1.4-1.4v-1.9H23V32.3
		z M14.5,37.9H9.8c-0.5,0-1-0.4-1-1s0.4-1,1-1h4.7c0.5,0,1,0.4,1,1S15.1,37.9,14.5,37.9z"/>
	<path fill="#F7A93B" d="M25,10.1h22.3V5.2c0-2.6-2.9-4.8-6.5-4.8H25V10.1z M32.4,5.6h4.7c0.5,0,1,0.4,1,1s-0.4,1-1,1h-4.7
		c-0.5,0-1-0.4-1-1S31.9,5.6,32.4,5.6z"/>
	<path fill="#06728D" d="M25,12v32.2h11.8v1.9c0,0.8,0.6,1.4,1.4,1.4c0.8,0,1.4-0.6,1.4-1.4v-1.9h1.2c3.6,0,6.5-2.1,6.5-4.8V12H25z
		 M30.8,28.4c0,0.5-0.4,1-1,1s-1-0.4-1-1v-5.8c0-0.5,0.4-1,1-1s1,0.4,1,1V28.4z"/>
</g>
</svg>
