<?xml version="1.0" encoding="utf-8"?>
<!-- Generator: Adobe Illustrator 18.0.0, SVG Export Plug-In . SVG Version: 6.00 Build 0)  -->
<!DOCTYPE svg PUBLIC "-//W3C//DTD SVG 1.1//EN" "http://www.w3.org/Graphics/SVG/1.1/DTD/svg11.dtd">
<svg version="1.1" id="Layer_1" xmlns="http://www.w3.org/2000/svg" xmlns:xlink="http://www.w3.org/1999/xlink" x="0px" y="0px"
	 viewBox="0 0 48 48" enable-background="new 0 0 48 48" xml:space="preserve">
<g>
	<path fill="#0DB89A" d="M21,23V9L14.1,14c-0.3,0.2-0.4,0.5-0.4,0.8V23H21z"/>
	<path fill="#294E58" d="M23,25v15.4l9.8,7c0.2,0.1,0.4,0.2,0.6,0.2c0.2,0,0.3,0,0.4-0.1c0.3-0.2,0.5-0.5,0.5-0.9V25H23z"/>
	<path fill="#F04B36" d="M23,23h11.4V1.5c0-0.4-0.2-0.7-0.5-0.9c-0.3-0.2-0.7-0.1-1,0.1l-9.8,7V23z"/>
	<path fill="#CFD0D1" d="M21,25h-7.3v8.3c0,0.3,0.2,0.6,0.4,0.8L21,39V25z"/>
</g>
</svg>
