<?xml version="1.0" encoding="utf-8"?>
<!-- Generator: Adobe Illustrator 18.0.0, SVG Export Plug-In . SVG Version: 6.00 Build 0)  -->
<!DOCTYPE svg PUBLIC "-//W3C//DTD SVG 1.1//EN" "http://www.w3.org/Graphics/SVG/1.1/DTD/svg11.dtd">
<svg version="1.1" id="Layer_1" xmlns="http://www.w3.org/2000/svg" xmlns:xlink="http://www.w3.org/1999/xlink" x="0px" y="0px"
	 viewBox="0 0 48 48" enable-background="new 0 0 48 48" xml:space="preserve">
<g>
	<path fill="#F7A93B" d="M46.1,44h-5V1.9c0-0.8-0.6-1.4-1.4-1.4H8.2c-0.8,0-1.4,0.6-1.4,1.4v42.7H1.9c-0.8,0-1.4,0.6-1.4,1.4
		c0,0.8,0.6,1.4,1.4,1.4h6.2c0.5,0,1-0.3,1.2-0.7l22.1-4.2c0.4-0.1,0.8-0.5,0.8-0.9V7.1c0-0.5-0.3-0.9-0.8-0.9L16,3.3h22.3v42.1
		c0,0.8,0.6,1.4,1.4,1.4h6.4c0.8,0,1.4-0.6,1.4-1.4C47.5,44.6,46.9,44,46.1,44z M24.9,20.4c0-0.5,0.4-0.9,0.9-0.9
		c0.5,0,0.9,0.4,0.9,0.9v5.8c0,0.5-0.4,0.9-0.9,0.9c-0.5,0-0.9-0.4-0.9-0.9V20.4z"/>
</g>
</svg>
