<?xml version="1.0" encoding="utf-8"?>
<!-- Generator: Adobe Illustrator 18.0.0, SVG Export Plug-In . SVG Version: 6.00 Build 0)  -->
<!DOCTYPE svg PUBLIC "-//W3C//DTD SVG 1.1//EN" "http://www.w3.org/Graphics/SVG/1.1/DTD/svg11.dtd">
<svg version="1.1" id="Layer_1" xmlns="http://www.w3.org/2000/svg" xmlns:xlink="http://www.w3.org/1999/xlink" x="0px" y="0px"
	 viewBox="0 0 48 48" enable-background="new 0 0 48 48" xml:space="preserve">
<g>
	<polygon fill="none" points="16,11.9 17,22.2 31,22.2 32,11.9 	"/>
	<path fill="#0DB89A" d="M16,11.9h16L31,22.2h2.9l1.2-13.7c0.2-2.2-0.5-4.4-1.9-5.9c-1.3-1.4-3-2.1-4.8-2.1h-9
		c-1.8,0-3.6,0.8-4.8,2.1c-1.4,1.5-2.1,3.7-1.9,5.9l1.2,13.7H17L16,11.9z"/>
	<path fill="#294E58" d="M36.3,22.2h-2.4H31H17h-2.9h-2.4c-0.8,0-1.4,0.6-1.4,1.4c0,0.8,0.6,1.4,1.4,1.4h0.7v21
		c0,0.8,0.6,1.4,1.4,1.4c0.8,0,1.4-0.6,1.4-1.4V33.3h17.5v12.8c0,0.8,0.6,1.4,1.4,1.4c0.8,0,1.4-0.6,1.4-1.4V25h0.7
		c0.8,0,1.4-0.6,1.4-1.4C37.7,22.8,37.1,22.2,36.3,22.2z"/>
</g>
</svg>
