<?xml version="1.0" encoding="utf-8"?>
<!-- Generator: Adobe Illustrator 18.0.0, SVG Export Plug-In . SVG Version: 6.00 Build 0)  -->
<!DOCTYPE svg PUBLIC "-//W3C//DTD SVG 1.1//EN" "http://www.w3.org/Graphics/SVG/1.1/DTD/svg11.dtd">
<svg version="1.1" id="Layer_1" xmlns="http://www.w3.org/2000/svg" xmlns:xlink="http://www.w3.org/1999/xlink" x="0px" y="0px"
	 viewBox="0 0 48 48" enable-background="new 0 0 48 48" xml:space="preserve">
<g>
	<rect x="20" y="19.3" fill="#4DA0D8" width="7.8" height="19.9"/>
	<path fill="#CFD0D1" d="M47.6,17.3V6.2c0-0.5-0.4-1-1-1H1.4c-0.5,0-1,0.4-1,1v11.1H47.6z M22.5,10.8h3c0.5,0,1,0.4,1,1
		c0,0.5-0.4,1-1,1h-3c-0.5,0-1-0.4-1-1C21.6,11.3,22,10.8,22.5,10.8z"/>
	<path fill="#0DB89A" d="M18,19.3H0.4v18.9c0,0.5,0.4,1,1,1h1.8v2.1c0,0.8,0.7,1.5,1.5,1.5c0.8,0,1.5-0.7,1.5-1.5v-2.1H18V19.3z
		 M14.4,30.3c-0.5,0-1-0.4-1-1v-2.6c0-0.5,0.4-1,1-1c0.5,0,1,0.4,1,1v2.6C15.4,29.8,14.9,30.3,14.4,30.3z"/>
	<path fill="#06728D" d="M29.9,19.3v19.9h12v2.1c0,0.8,0.7,1.5,1.5,1.5c0.8,0,1.5-0.7,1.5-1.5v-2.1h1.8c0.5,0,1-0.4,1-1V19.3H29.9z
		 M34.6,29.3c0,0.5-0.4,1-1,1c-0.5,0-1-0.4-1-1v-2.6c0-0.5,0.4-1,1-1c0.5,0,1,0.4,1,1V29.3z"/>
</g>
</svg>
