<?xml version="1.0" encoding="utf-8"?>
<!-- Generator: Adobe Illustrator 18.0.0, SVG Export Plug-In . SVG Version: 6.00 Build 0)  -->
<!DOCTYPE svg PUBLIC "-//W3C//DTD SVG 1.1//EN" "http://www.w3.org/Graphics/SVG/1.1/DTD/svg11.dtd">
<svg version="1.1" id="Layer_1" xmlns="http://www.w3.org/2000/svg" xmlns:xlink="http://www.w3.org/1999/xlink" x="0px" y="0px"
	 viewBox="0 0 48 48" enable-background="new 0 0 48 48" xml:space="preserve">
<g>
	<path fill="#E8B944" d="M15.1,14.7V17c0,0.8,0.6,1.4,1.4,1.4c0.8,0,1.4-0.6,1.4-1.4v-2.3c0-0.8-0.6-1.4-1.4-1.4
		C15.7,13.2,15.1,13.9,15.1,14.7z"/>
	<path fill="#E8B944" d="M19.6,14.7V17c0,0.8,0.6,1.4,1.4,1.4c0.8,0,1.4-0.6,1.4-1.4v-2.3c0-0.8-0.6-1.4-1.4-1.4
		C20.3,13.2,19.6,13.9,19.6,14.7z"/>
	<path fill="#E8B944" d="M25.6,13.2c-0.8,0-1.4,0.6-1.4,1.4V17c0,0.8,0.6,1.4,1.4,1.4c0.8,0,1.4-0.6,1.4-1.4v-2.3
		C27,13.9,26.4,13.2,25.6,13.2z"/>
	<path fill="#0DB89A" d="M8.2,12.3c0-1.1,0.7-2.8,1.5-3.5l5.7-5.1c0.3-0.3,0.6-0.3,0.8-0.3c0.3,0,0.5,0.2,0.7,0.5l1.4,2
		c-2,1.1-3.5,3.3-3.5,5.9c0,0.5,0.4,0.9,1,0.9h10.4c0.5,0,0.9-0.4,0.9-0.9c0-3.5-2.6-6.4-5.8-6.6l-2.1-3c-0.7-0.9-1.7-1.5-2.7-1.6
		c-1.1-0.1-2.1,0.2-3,1L7.8,6.6c-1.4,1.3-2.5,3.7-2.5,5.7v11.5h2.8V12.3z"/>
	<path fill="#06728D" d="M46.1,23.7H8.2H5.3H1.9c-0.8,0-1.4,0.6-1.4,1.4c0,0.8,0.6,1.4,1.4,1.4h1.8l6.8,16.1
		c-0.9,0.7-1.8,1.8-1.9,3.3c-0.1,0.8,0.5,1.5,1.3,1.5c0,0,0.1,0,0.1,0c0.7,0,1.4-0.6,1.4-1.3c0.1-1.3,1.6-1.7,1.7-1.7
		c0.3-0.1,0.5-0.2,0.7-0.4h20.3c0.2,0.2,0.4,0.4,0.7,0.4c0,0,1.6,0.4,1.7,1.7c0.1,0.7,0.7,1.3,1.4,1.3c0,0,0.1,0,0.1,0
		c0.8-0.1,1.4-0.7,1.3-1.5c-0.1-1.6-1-2.6-1.9-3.3l6.8-16.1h1.8c0.8,0,1.4-0.6,1.4-1.4C47.5,24.4,46.9,23.7,46.1,23.7z"/>
</g>
</svg>
