<?xml version="1.0" encoding="utf-8"?>
<!-- Generator: Adobe Illustrator 18.0.0, SVG Export Plug-In . SVG Version: 6.00 Build 0)  -->
<!DOCTYPE svg PUBLIC "-//W3C//DTD SVG 1.1//EN" "http://www.w3.org/Graphics/SVG/1.1/DTD/svg11.dtd">
<svg version="1.1" id="Layer_1" xmlns="http://www.w3.org/2000/svg" xmlns:xlink="http://www.w3.org/1999/xlink" x="0px" y="0px"
	 viewBox="0 0 48 48" enable-background="new 0 0 48 48" xml:space="preserve">
<g>
	<rect x="25" y="27.6" fill="#06728D" width="22.5" height="6.7"/>
	<rect x="0.5" y="19" fill="#E77528" width="22.5" height="6.7"/>
	<rect x="25" y="19" fill="#CFD0D1" width="22.5" height="6.7"/>
	<rect x="0.5" y="27.6" fill="#E8B944" width="22.5" height="6.7"/>
	<rect x="0.5" y="10.3" fill="#E8B944" width="22.5" height="6.7"/>
	<path fill="#E77528" d="M23,0.5H1.5c-0.5,0-1,0.4-1,1v6.9H23V0.5z"/>
	<path fill="#F04B36" d="M0.5,46.5c0,0.5,0.4,1,1,1c0.5,0,1-0.4,1-1v-3.9h43.1v3.9c0,0.5,0.4,1,1,1c0.5,0,1-0.4,1-1V36.2h-47V46.5z"
		/>
	<rect x="25" y="10.3" fill="#06728D" width="22.5" height="6.7"/>
	<path fill="#CFD0D1" d="M46.5,0.5H25v7.9h22.5V1.5C47.5,0.9,47.1,0.5,46.5,0.5z"/>
</g>
</svg>
