<?xml version="1.0" encoding="utf-8"?>
<!-- Generator: Adobe Illustrator 18.0.0, SVG Export Plug-In . SVG Version: 6.00 Build 0)  -->
<!DOCTYPE svg PUBLIC "-//W3C//DTD SVG 1.1//EN" "http://www.w3.org/Graphics/SVG/1.1/DTD/svg11.dtd">
<svg version="1.1" id="Layer_1" xmlns="http://www.w3.org/2000/svg" xmlns:xlink="http://www.w3.org/1999/xlink" x="0px" y="0px"
	 viewBox="0 0 48 48" enable-background="new 0 0 48 48" xml:space="preserve">
<g>
	<path fill="#E77528" d="M41.8,26.8c0-0.8-0.6-1.4-1.4-1.4H7.6c-0.8,0-1.4,0.6-1.4,1.4c0,0.8,0.6,1.4,1.4,1.4h1.2L6.7,46.1
		c-0.1,0.8,0.5,1.5,1.3,1.6c0.1,0,0.1,0,0.2,0c0.7,0,1.3-0.5,1.4-1.3l2.2-18.3h1.6l-1.4,12.7c-0.1,0.8,0.5,1.5,1.3,1.6
		c0.1,0,0.1,0,0.2,0c0.7,0,1.3-0.5,1.4-1.3l1.4-13h15.6l1.4,13c0.1,0.7,0.7,1.3,1.4,1.3c0.1,0,0.1,0,0.2,0c0.8-0.1,1.4-0.8,1.3-1.6
		l-1.4-12.7h1.6l2.2,18.3c0.1,0.7,0.7,1.3,1.4,1.3c0.1,0,0.1,0,0.2,0c0.8-0.1,1.4-0.8,1.3-1.6l-2.1-17.9h1.2
		C41.2,28.2,41.8,27.6,41.8,26.8z"/>
	<path fill="#F04B36" d="M17.2,18.1h13.6c0.5,0,1-0.4,1-1c0-3.8-2.7-6.9-6.3-7.6V1.7c0-0.8-0.6-1.4-1.4-1.4c-0.8,0-1.4,0.6-1.4,1.4
		v7.8c-3.6,0.7-6.3,3.8-6.3,7.6C16.2,17.7,16.7,18.1,17.2,18.1z"/>
</g>
</svg>
