<?xml version="1.0" encoding="utf-8"?>
<!-- Generator: Adobe Illustrator 18.0.0, SVG Export Plug-In . SVG Version: 6.00 Build 0)  -->
<!DOCTYPE svg PUBLIC "-//W3C//DTD SVG 1.1//EN" "http://www.w3.org/Graphics/SVG/1.1/DTD/svg11.dtd">
<svg version="1.1" id="Layer_1" xmlns="http://www.w3.org/2000/svg" xmlns:xlink="http://www.w3.org/1999/xlink" x="0px" y="0px"
	 viewBox="0 0 48 48" enable-background="new 0 0 48 48" xml:space="preserve">
<g>
	<path fill="none" d="M11.3,30.7c-0.5,0-1,0.4-1,1v2.8c0,0.5,0.4,1,1,1c0.5,0,1-0.4,1-1v-2.8C12.2,31.1,11.8,30.7,11.3,30.7z"/>
	<path fill="#06728D" d="M15.9,20.9c0-0.8-0.6-1.4-1.4-1.4h-4.2C9.1,18.7,5,15.6,5,8.8c0-2.7,2.3-3.5,2.7-3.7l1.1,1
		C8.3,7.3,7.9,8.6,8,10c0.1,1.8,0.9,3.5,2.3,4.7c0.2,0.2,0.4,0.2,0.6,0.2c0.3,0,0.5-0.1,0.7-0.3l8-8.8c0.2-0.2,0.3-0.4,0.2-0.7
		c0-0.3-0.1-0.5-0.3-0.7c-1.3-1.1-2.9-1.7-4.6-1.7c-1.5,0-2.9,0.5-4.1,1.3L7.2,0.8C6.6,0.3,5.7,0.4,5.2,1C4.7,1.6,4.7,2.5,5.3,3
		l0.2,0.1c-1.6,1-3.3,2.8-3.3,5.7c0,5.1,2,8.6,3.8,10.7c-0.7,0.1-1.2,0.7-1.2,1.4c0,0.1,0,0.2,0,0.3h11C15.9,21.1,15.9,21,15.9,20.9
		z"/>
	<path fill="#E8B944" d="M46.1,21.2H15.9h-11h-3c-0.8,0-1.4,0.6-1.4,1.4v23.4c0,0.8,0.6,1.4,1.4,1.4c0.8,0,1.4-0.6,1.4-1.4v-1.8
		h12.1c0.5,0,1-0.4,1-1V24.1h28.3v22c0,0.8,0.6,1.4,1.4,1.4c0.8,0,1.4-0.6,1.4-1.4V22.7C47.5,21.9,46.9,21.2,46.1,21.2z M12.2,34.4
		c0,0.5-0.4,1-1,1c-0.5,0-1-0.4-1-1v-2.8c0-0.5,0.4-1,1-1c0.5,0,1,0.4,1,1V34.4z"/>
</g>
</svg>
