<?xml version="1.0" encoding="utf-8"?>
<!-- Generator: Adobe Illustrator 18.0.0, SVG Export Plug-In . SVG Version: 6.00 Build 0)  -->
<!DOCTYPE svg PUBLIC "-//W3C//DTD SVG 1.1//EN" "http://www.w3.org/Graphics/SVG/1.1/DTD/svg11.dtd">
<svg version="1.1" id="Layer_1" xmlns="http://www.w3.org/2000/svg" xmlns:xlink="http://www.w3.org/1999/xlink" x="0px" y="0px"
	 viewBox="0 0 48 48" enable-background="new 0 0 48 48" xml:space="preserve">
<g>
	<path fill="#0DB89A" d="M34.4,18C34.4,18,34.4,18,34.4,18c0.5,0,1-0.4,1-1c0-0.1,0-0.3-0.1-0.4L31.4,1.2c-0.1-0.4-0.5-0.7-0.9-0.7
		H17.5c-0.4,0-0.8,0.3-0.9,0.7l-4,15.5c-0.1,0.3,0,0.6,0.2,0.8c0.2,0.2,0.5,0.4,0.8,0.4h9h2.9H34.4z"/>
	<path fill="#E77528" d="M30.1,44.6h-4.7V18h-2.9v26.6h-4.7c-0.8,0-1.4,0.6-1.4,1.4c0,0.8,0.6,1.4,1.4,1.4h12.2
		c0.8,0,1.4-0.6,1.4-1.4C31.6,45.2,30.9,44.6,30.1,44.6z"/>
</g>
</svg>
