<?xml version="1.0" encoding="utf-8"?>
<!-- Generator: Adobe Illustrator 18.0.0, SVG Export Plug-In . SVG Version: 6.00 Build 0)  -->
<!DOCTYPE svg PUBLIC "-//W3C//DTD SVG 1.1//EN" "http://www.w3.org/Graphics/SVG/1.1/DTD/svg11.dtd">
<svg version="1.1" id="Layer_1" xmlns="http://www.w3.org/2000/svg" xmlns:xlink="http://www.w3.org/1999/xlink" x="0px" y="0px"
	 viewBox="0 0 48 48" enable-background="new 0 0 48 48" xml:space="preserve">
<g>
	<path fill="#E8B944" d="M25,0.5c-7.3,0-13.2,5.3-13.2,11.7c0,0.7,0.1,1.5,0.3,2.3c0.1,0.4,0.5,0.8,0.9,0.8h10.6h2.9h10.6
		c0.4,0,0.8-0.3,0.9-0.8c0.2-0.8,0.3-1.5,0.3-2.3C38.3,5.8,32.3,0.5,25,0.5z"/>
	<path fill="#06728D" d="M26.4,15.2h-2.9v2.9h-8c-0.3,0-0.6,0.1-0.8,0.3l-4.4,3.2c-0.6,0.5-0.8,1.4-0.3,2c0.3,0.4,0.7,0.6,1.2,0.6
		c0.3,0,0.6-0.1,0.8-0.3l4.1-2.9h7.5V28h2.9V15.2z"/>
	<path fill="#06728D" d="M32.6,44.6h-6.2v-9.1h-2.9v9.1h-6.2c-0.8,0-1.4,0.6-1.4,1.4c0,0.8,0.6,1.4,1.4,1.4h15.2
		c0.8,0,1.4-0.6,1.4-1.4C34,45.2,33.4,44.6,32.6,44.6z"/>
	<path fill="#F04B36" d="M31.7,30.8h0.9c0.8,0,1.4-0.6,1.4-1.4c0-0.8-0.6-1.4-1.4-1.4h-6.2h-2.9h-6.2c-0.8,0-1.4,0.6-1.4,1.4
		c0,0.8,0.6,1.4,1.4,1.4h0.9c0.6,2.3,2.7,4.1,5.3,4.6h2.9C29.1,35,31.1,33.1,31.7,30.8z"/>
</g>
</svg>
