<?xml version="1.0" encoding="utf-8"?>
<!-- Generator: Adobe Illustrator 18.0.0, SVG Export Plug-In . SVG Version: 6.00 Build 0)  -->
<!DOCTYPE svg PUBLIC "-//W3C//DTD SVG 1.1//EN" "http://www.w3.org/Graphics/SVG/1.1/DTD/svg11.dtd">
<svg version="1.1" id="Layer_1" xmlns="http://www.w3.org/2000/svg" xmlns:xlink="http://www.w3.org/1999/xlink" x="0px" y="0px"
	 viewBox="0 0 48 48" enable-background="new 0 0 48 48" xml:space="preserve">
<g>
	<path fill="#CFD0D1" d="M47.2,9.8V5.4c0-2.7-3-4.9-6.8-4.9H7.5c-3.7,0-6.8,2.2-6.8,4.9v4.4H47.2z"/>
	<rect x="0.8" y="11.7" fill="#4DA0D8" width="46.5" height="7.6"/>
	<rect x="0.8" y="21.2" fill="#CFD0D1" width="46.5" height="7.6"/>
	<path fill="#E77528" d="M25,30.8v13.6h15.5c1.4,0,2.8-0.3,3.9-0.9v2c0,1.1,0.6,2,1.4,2c0.8,0,1.4-0.9,1.4-2v-6v-1.6v-7.1H25z
		 M30.4,34.2c0,0.5-0.4,1-1,1c-0.5,0-1-0.4-1-1V33c0-0.5,0.4-1,1-1c0.5,0,1,0.4,1,1V34.2z"/>
	<path fill="#E77528" d="M23,30.8H0.8v7.9v0.8v6.2c0,1,0.6,1.9,1.4,1.9c0.8,0,1.4-0.8,1.4-1.9v-2.2c1.1,0.6,2.4,0.9,3.9,0.9H23V30.8
		z M18.6,35.2c-0.5,0-1-0.4-1-1V33c0-0.5,0.4-1,1-1c0.5,0,1,0.4,1,1v1.2C19.6,34.8,19.1,35.2,18.6,35.2z"/>
</g>
</svg>
