<?xml version="1.0" encoding="utf-8"?>
<!-- Generator: Adobe Illustrator 18.0.0, SVG Export Plug-In . SVG Version: 6.00 Build 0)  -->
<!DOCTYPE svg PUBLIC "-//W3C//DTD SVG 1.1//EN" "http://www.w3.org/Graphics/SVG/1.1/DTD/svg11.dtd">
<svg version="1.1" id="Layer_1" xmlns="http://www.w3.org/2000/svg" xmlns:xlink="http://www.w3.org/1999/xlink" x="0px" y="0px"
	 viewBox="0 0 48 48" enable-background="new 0 0 48 48" xml:space="preserve">
<g>
	<path fill="#E8B944" d="M46.3,17.8l-7.5-2.2V0.7c0-0.3-0.2-0.5-0.5-0.5H9.7c-0.3,0-0.5,0.2-0.5,0.5v14.9l-7.5,2.2
		c-0.7,0.2-1.2,1-1,1.8c0.2,0.6,0.7,1,1.4,1c0.1,0,0.3,0,0.4-0.1l0,0v25.8c0,0.8,0.6,1.4,1.4,1.4s1.4-0.6,1.4-1.4V33.5h1.4v1.7
		c0,1.3,1.1,2.3,2.4,2.3h29.8c1.3,0,2.4-1,2.4-2.3v-1.8c0.1,0,0.2,0,0.3,0h1.1v12.9c0,0.8,0.6,1.4,1.4,1.4s1.4-0.6,1.4-1.4V20.5l0,0
		c0.1,0,0.3,0.1,0.4,0.1c0.6,0,1.2-0.4,1.4-1C47.4,18.8,47,18,46.3,17.8z M42.6,30.6h-1.1c-0.1,0-0.2,0-0.3,0V30
		c0-1.3-1.1-2.3-2.4-2.3H9.1c-1.3,0-2.4,1-2.4,2.3v0.7H5.4v-11l3.8-1.1v6.7c0,0.3,0.2,0.5,0.5,0.5h28.6c0.3,0,0.5-0.2,0.5-0.5v-6.7
		l3.8,1.1V30.6z"/>
	<rect x="9" y="0.3" fill="#4DA0D8" width="30.1" height="25.5"/>
	<path fill="#E77528" d="M38.8,37.9H9.2c-1.4,0-2.5-1.1-2.5-2.5v-5.7c0-1.4,1.1-2.5,2.5-2.5h29.5c1.4,0,2.5,1.1,2.5,2.5v5.7
		C41.2,36.8,40.1,37.9,38.8,37.9z"/>
</g>
</svg>
