<?xml version="1.0" encoding="utf-8"?>
<!-- Generator: Adobe Illustrator 18.0.0, SVG Export Plug-In . SVG Version: 6.00 Build 0)  -->
<!DOCTYPE svg PUBLIC "-//W3C//DTD SVG 1.1//EN" "http://www.w3.org/Graphics/SVG/1.1/DTD/svg11.dtd">
<svg version="1.1" id="Layer_1" xmlns="http://www.w3.org/2000/svg" xmlns:xlink="http://www.w3.org/1999/xlink" x="0px" y="0px"
	 viewBox="0 0 48 48" enable-background="new 0 0 48 48" xml:space="preserve">
<g>
	<path fill="#E77528" d="M18.6,1.9c0.1-0.3,0-0.6-0.2-0.8c-0.2-0.2-0.4-0.3-0.7-0.3H4.4c-0.5,0-0.9,0.4-0.9,0.9V16h9.8
		C14.8,13.8,17.1,9.4,18.6,1.9z"/>
	<path fill="#E77528" d="M4.4,40.8h13.3c0.5,0,0.8-0.3,0.9-0.8c0.1-0.6,2.6-13.3-5.6-22.1H3.4v21.9C3.4,40.3,3.9,40.8,4.4,40.8z"/>
	<path fill="#CFD0D1" d="M20.5,2.3c-1.6,7.8-3.9,12.3-5.6,14.8c0.1,0.1,0.2,0.2,0.3,0.3h9.7V0.7h-4.4C20.5,1.2,20.6,1.7,20.5,2.3z"
		/>
	<path fill="#CFD0D1" d="M44.6,1.7c0-0.5-0.4-0.9-0.9-0.9H26.7v16.6h17.9V1.7z"/>
	<path fill="#CFD0D1" d="M24.8,35.2V19.3h-8.2c3.7,5.4,4.4,11.6,4.4,15.9H24.8z"/>
	<path fill="#CFD0D1" d="M44.6,34.2v-15H26.7v15.9h16.9C44.1,35.2,44.6,34.8,44.6,34.2z"/>
	<path fill="#4DA0D8" d="M46.1,44.4H1.9c-0.8,0-1.4,0.6-1.4,1.4c0,0.8,0.6,1.4,1.4,1.4h44.1c0.8,0,1.4-0.6,1.4-1.4
		C47.5,45,46.9,44.4,46.1,44.4z"/>
</g>
</svg>
