<?xml version="1.0" encoding="utf-8"?>
<!-- Generator: Adobe Illustrator 18.0.0, SVG Export Plug-In . SVG Version: 6.00 Build 0)  -->
<!DOCTYPE svg PUBLIC "-//W3C//DTD SVG 1.1//EN" "http://www.w3.org/Graphics/SVG/1.1/DTD/svg11.dtd">
<svg version="1.1" id="Layer_1" xmlns="http://www.w3.org/2000/svg" xmlns:xlink="http://www.w3.org/1999/xlink" x="0px" y="0px"
	 viewBox="0 0 48 48" enable-background="new 0 0 48 48" xml:space="preserve">
<g>
	<path fill="#F04B36" d="M24,19.8c-0.1,0-0.1,0-0.2,0H0.4v6h47.2v-6H24.2C24.1,19.8,24.1,19.8,24,19.8z"/>
	<path fill="#4DA0D8" d="M23.8,9.9c0.1,0,0.1,0,0.2,0s0.1,0,0.2,0h23.4V7c0-3.7-3.3-6.6-7.3-6.6H7.7c-4,0-7.3,3-7.3,6.6v2.9H23.8z"
		/>
	<path fill="#F7A93B" d="M23,11.8H0.4v6H23V11.8z M15.8,15.8H10c-0.5,0-1-0.4-1-1c0-0.5,0.4-1,1-1h5.8c0.5,0,1,0.4,1,1
		C16.7,15.3,16.3,15.8,15.8,15.8z"/>
	<path fill="#F7A93B" d="M25,11.8v6h22.7v-6H25z M38.5,15.8h-5.8c-0.5,0-1-0.4-1-1c0-0.5,0.4-1,1-1h5.8c0.5,0,1,0.4,1,1
		C39.4,15.3,39,15.8,38.5,15.8z"/>
	<path fill="#0DB89A" d="M47.6,27.7H25v16.8h15.4c1.7,0,3.2-0.5,4.4-1.4v3.1c0,0.8,0.6,1.4,1.4,1.4c0.8,0,1.4-0.6,1.4-1.4v-6.9
		c0-0.2,0-0.3-0.1-0.5c0-0.3,0.1-0.6,0.1-1V27.7z M31.4,36.3c0,0.5-0.4,1-1,1c-0.5,0-1-0.4-1-1V34c0-0.5,0.4-1,1-1c0.5,0,1,0.4,1,1
		V36.3z"/>
	<path fill="#0DB89A" d="M23,27.7H0.4v10.1c0,0.3,0,0.6,0.1,1c-0.1,0.1-0.1,0.3-0.1,0.5v6.9c0,0.8,0.6,1.4,1.4,1.4
		c0.8,0,1.4-0.6,1.4-1.4v-3.1C4.5,44,6,44.5,7.7,44.5H23V27.7z M18,37.3c-0.5,0-1-0.4-1-1V34c0-0.5,0.4-1,1-1c0.5,0,1,0.4,1,1v2.3
		C18.9,36.8,18.5,37.3,18,37.3z"/>
</g>
</svg>
