<?xml version="1.0" encoding="utf-8"?>
<!-- Generator: Adobe Illustrator 18.0.0, SVG Export Plug-In . SVG Version: 6.00 Build 0)  -->
<!DOCTYPE svg PUBLIC "-//W3C//DTD SVG 1.1//EN" "http://www.w3.org/Graphics/SVG/1.1/DTD/svg11.dtd">
<svg version="1.1" id="Layer_1" xmlns="http://www.w3.org/2000/svg" xmlns:xlink="http://www.w3.org/1999/xlink" x="0px" y="0px"
	 viewBox="0 0 48 48" enable-background="new 0 0 48 48" xml:space="preserve">
<g>
	<path fill="#4DA0D8" d="M45.8,0.3H2.2C1.4,0.3,0.7,1,0.7,1.8c0,0.8,0.6,1.4,1.4,1.4H5v17.2h38V3.2h2.8c0.8,0,1.4-0.6,1.4-1.4
		C47.3,1,46.6,0.3,45.8,0.3z M28.2,12.8h-8.4c-0.5,0-1-0.4-1-1c0-0.5,0.4-1,1-1h8.4c0.5,0,1,0.4,1,1C29.2,12.3,28.7,12.8,28.2,12.8z
		"/>
	<path fill="#06728D" d="M5,23.3v18.6c0,0.5,0.4,1,1,1h2.6v3.4c0,0.8,0.6,1.4,1.4,1.4c0.8,0,1.4-0.6,1.4-1.4v-3.4h23.8v3.4
		c0,0.8,0.6,1.4,1.4,1.4c0.8,0,1.4-0.6,1.4-1.4v-3.4H42c0.5,0,1-0.4,1-1V23.3H5z M28.2,32.8h-8.4c-0.5,0-1-0.4-1-1c0-0.5,0.4-1,1-1
		h8.4c0.5,0,1,0.4,1,1C29.2,32.4,28.7,32.8,28.2,32.8z"/>
</g>
</svg>
