<?xml version="1.0" encoding="utf-8"?>
<!-- Generator: Adobe Illustrator 18.0.0, SVG Export Plug-In . SVG Version: 6.00 Build 0)  -->
<!DOCTYPE svg PUBLIC "-//W3C//DTD SVG 1.1//EN" "http://www.w3.org/Graphics/SVG/1.1/DTD/svg11.dtd">
<svg version="1.1" id="Layer_1" xmlns="http://www.w3.org/2000/svg" xmlns:xlink="http://www.w3.org/1999/xlink" x="0px" y="0px"
	 viewBox="0 0 48 48" enable-background="new 0 0 48 48" xml:space="preserve">
<g>
	<path fill="#E77528" d="M1.3,26.4c-0.5,0-1,0.4-1,1v19.3c0,0.5,0.4,1,1,1c0.5,0,1-0.4,1-1v-3.6h10.5c0.3,0,0.6-0.1,0.8-0.4l3.6-4.5
		c0.1-0.1,0.1-0.2,0.1-0.2h13.3c0,0.1,0.1,0.2,0.1,0.2l3.6,4.5c0.2,0.2,0.5,0.4,0.8,0.4h10.5v3.6c0,0.5,0.4,1,1,1c0.5,0,1-0.4,1-1
		V27.4c0-0.5-0.4-1-1-1H31.5h-15H1.3z M45.7,28.3v12.8H35.6L33.1,38h2.6c0.5,0,1-0.4,1-1c0-0.5-0.4-1-1-1H12.4c-0.5,0-1,0.4-1,1
		c0,0.5,0.4,1,1,1h2.6l-2.5,3.1H2.3V28.3H45.7z"/>
	<path fill="#06728D" d="M46.7,22.5c0.5,0,1-0.4,1-1V1.3c0-0.5-0.4-1-1-1H1.3c-0.5,0-1,0.4-1,1v20.2c0,0.5,0.4,1,1,1h21.2v1.9h-4.7
		c-0.8,0-1.5,0.7-1.5,1.5c0,0.2,0.1,0.4,0.1,0.6h15c0.1-0.2,0.1-0.4,0.1-0.6c0-0.8-0.7-1.5-1.5-1.5h-4.7v-1.9H46.7z"/>
	<rect x="3.4" y="3.2" fill="#CFD0D1" width="41.1" height="15.8"/>
</g>
</svg>
