<?xml version="1.0" encoding="utf-8"?>
<!-- Generator: Adobe Illustrator 18.0.0, SVG Export Plug-In . SVG Version: 6.00 Build 0)  -->
<!DOCTYPE svg PUBLIC "-//W3C//DTD SVG 1.1//EN" "http://www.w3.org/Graphics/SVG/1.1/DTD/svg11.dtd">
<svg version="1.1" id="Layer_1" xmlns="http://www.w3.org/2000/svg" xmlns:xlink="http://www.w3.org/1999/xlink" x="0px" y="0px"
	 viewBox="0 0 48 48" enable-background="new 0 0 48 48" xml:space="preserve">
<g>
	<path fill="none" d="M17.4,31.8c-0.5,0-1,0.4-1,1v3.5c0,0.5,0.4,1,1,1c0.5,0,1-0.4,1-1v-3.5C18.4,32.3,17.9,31.8,17.4,31.8z"/>
	<path fill="none" d="M30.6,31.8c-0.5,0-1,0.4-1,1v3.5c0,0.5,0.4,1,1,1c0.5,0,1-0.4,1-1v-3.5C31.6,32.3,31.2,31.8,30.6,31.8z"/>
	<path fill="none" d="M10.6,2.2V24H23c0,0,0,0,0,0l-3.2-1.9c-0.5-0.3-0.6-0.9-0.3-1.3c0.3-0.5,0.9-0.6,1.3-0.3l2.8,1.7
		c0.4-1.6,0.6-3.6-0.4-4.8c-1.6-1.8-5,0.2-5,0.2c-0.5,0.3-1.1,0.1-1.3-0.3c-0.3-0.5-0.1-1.1,0.3-1.3c0.2-0.1,4.8-2.8,7.5,0.2
		c1.4,1.6,1.3,3.9,1,5.7l2-1.3c0.5-0.3,1.1-0.2,1.4,0.3c0.3,0.5,0.2,1.1-0.3,1.4l-3,1.9H38V2.2H10.6z"/>
	<path fill="#0DB89A" d="M40,24L40,24h-2H25.8H23H10.6h-2H8c-2.3,0-4.1,1.7-4.1,3.8V44c0,2.1,1.8,3.8,4.1,3.8H23V26h2v21.7H40
		c2.3,0,4.1-1.7,4.1-3.8V27.8C44.1,25.7,42.3,24,40,24z M18.4,36.3c0,0.5-0.4,1-1,1c-0.5,0-1-0.4-1-1v-3.5c0-0.5,0.4-1,1-1
		c0.5,0,1,0.4,1,1V36.3z M31.6,36.3c0,0.5-0.4,1-1,1c-0.5,0-1-0.4-1-1v-3.5c0-0.5,0.4-1,1-1c0.5,0,1,0.4,1,1V36.3z"/>
	<path fill="#F04B36" d="M29.1,20.8c-0.3-0.5-0.9-0.6-1.4-0.3l-2,1.3c0.4-1.8,0.4-4.1-1-5.7c-2.7-3-7.3-0.3-7.5-0.2
		c-0.5,0.3-0.6,0.9-0.3,1.3c0.3,0.5,0.9,0.6,1.3,0.3c0,0,3.5-2,5-0.2c1,1.1,0.8,3.2,0.4,4.8l-2.8-1.7c-0.5-0.3-1.1-0.1-1.3,0.3
		c-0.3,0.5-0.1,1.1,0.3,1.3L23,24c0,0,0,0,0,0h2.8l3-1.9C29.3,21.8,29.4,21.2,29.1,20.8z"/>
	<path fill="#E77528" d="M10.6,2.2H38V24h2V1.3c0-0.5-0.4-1-1-1H9.7c-0.5,0-1,0.4-1,1V24h2V2.2z"/>
</g>
</svg>
