<?xml version="1.0" encoding="utf-8"?>
<!-- Generator: Adobe Illustrator 18.0.0, SVG Export Plug-In . SVG Version: 6.00 Build 0)  -->
<!DOCTYPE svg PUBLIC "-//W3C//DTD SVG 1.1//EN" "http://www.w3.org/Graphics/SVG/1.1/DTD/svg11.dtd">
<svg version="1.1" id="Layer_1" xmlns="http://www.w3.org/2000/svg" xmlns:xlink="http://www.w3.org/1999/xlink" x="0px" y="0px"
	 viewBox="0 0 48 48" enable-background="new 0 0 48 48" xml:space="preserve">
<g>
	<path fill="#E77528" d="M46.5,27.5h-3.6H5.1H1.5c-0.5,0-1,0.4-1,1c0,0.5,0.4,1,1,1h2.6v15.8c0,0.5,0.4,1,1,1h11.8V29.4h1.9v6.8
		h10.3v-6.8h1.9v16.7h11.8c0.5,0,1-0.4,1-1V29.4h2.6c0.5,0,1-0.4,1-1C47.5,27.9,47.1,27.5,46.5,27.5z M15,37.7c0,0.5-0.4,1-1,1
		s-1-0.4-1-1V36c0-0.5,0.4-1,1-1s1,0.4,1,1V37.7z M34.9,37.7c0,0.5-0.4,1-1,1c-0.5,0-1-0.4-1-1V36c0-0.5,0.4-1,1-1c0.5,0,1,0.4,1,1
		V37.7z"/>
	<rect x="18.8" y="38.1" fill="#E8B944" width="10.3" height="8"/>
	<polygon fill="#4DA0D8" points="16.6,2.2 5.6,5.9 5.6,24.2 16.6,24.2 	"/>
	<polygon fill="#4DA0D8" points="42.4,5.9 31.4,2.2 31.4,24.2 42.4,24.2 	"/>
	<rect x="18.5" y="1.9" fill="#06728D" width="10.9" height="22.3"/>
</g>
</svg>
