<?xml version="1.0" encoding="utf-8"?>
<!-- Generator: Adobe Illustrator 18.0.0, SVG Export Plug-In . SVG Version: 6.00 Build 0)  -->
<!DOCTYPE svg PUBLIC "-//W3C//DTD SVG 1.1//EN" "http://www.w3.org/Graphics/SVG/1.1/DTD/svg11.dtd">
<svg version="1.1" id="Layer_1" xmlns="http://www.w3.org/2000/svg" xmlns:xlink="http://www.w3.org/1999/xlink" x="0px" y="0px"
	 viewBox="0 0 48 48" enable-background="new 0 0 48 48" xml:space="preserve">
<g>
	<path fill="#CFD0D1" d="M24.4,3.7c-0.8,0-1.4,0.6-1.4,1.4V6c-2.3-3.3-5.8-5.4-9.8-5.4C9.3,0.6,5.8,2.7,3.5,6V5.1
		c0-0.8-0.6-1.4-1.4-1.4c-0.8,0-1.4,0.6-1.4,1.4V46c0,0.8,0.6,1.4,1.4,1.4c0.8,0,1.4-0.6,1.4-1.4v-2.7H23V46c0,0.8,0.6,1.4,1.4,1.4
		c0.8,0,1.4-0.6,1.4-1.4V5.1C25.8,4.3,25.2,3.7,24.4,3.7z M13.2,3.5c5.4,0,9.8,5.3,9.8,11.8c0,6.5-4.4,11.8-9.8,11.8
		c-5.4,0-9.8-5.3-9.8-11.8C3.5,8.7,7.9,3.5,13.2,3.5z M23,31.8H3.5v-7.4c2.3,3.3,5.8,5.4,9.8,5.4c3.9,0,7.4-2.1,9.8-5.4V31.8z"/>
	<path fill="#06728D" d="M47.3,45.6L43.7,33h0.2c0.8,0,1.4-0.6,1.4-1.4c0-0.8-0.6-1.4-1.4-1.4H31.1c-0.8,0-1.4,0.6-1.4,1.4
		c0,0.8,0.6,1.4,1.4,1.4h0.2l-3.6,12.5c-0.2,0.8,0.2,1.5,1,1.8c0.1,0,0.3,0.1,0.4,0.1c0.6,0,1.2-0.4,1.4-1L34.2,33h6.6l3.8,13.3
		c0.2,0.6,0.7,1,1.4,1c0.1,0,0.3,0,0.4-0.1C47.1,47.1,47.6,46.3,47.3,45.6z"/>
	<ellipse fill="#4DA0D8" cx="13.2" cy="15.3" rx="9.9" ry="11.8"/>
	<path fill="#E77528" d="M24.4,44.7H2.1c-0.8,0-1.5-0.7-1.5-1.5s0.7-1.5,1.5-1.5h22.3c0.8,0,1.5,0.7,1.5,1.5S25.2,44.7,24.4,44.7z"
		/>
</g>
</svg>
