<?xml version="1.0" encoding="utf-8"?>
<!-- Generator: Adobe Illustrator 18.0.0, SVG Export Plug-In . SVG Version: 6.00 Build 0)  -->
<!DOCTYPE svg PUBLIC "-//W3C//DTD SVG 1.1//EN" "http://www.w3.org/Graphics/SVG/1.1/DTD/svg11.dtd">
<svg version="1.1" id="Layer_1" xmlns="http://www.w3.org/2000/svg" xmlns:xlink="http://www.w3.org/1999/xlink" x="0px" y="0px"
	 viewBox="0 0 48 48" enable-background="new 0 0 48 48" xml:space="preserve">
<g>
	<path fill="#E8B944" d="M46.1,8.9H1.9c-0.8,0-1.4,0.6-1.4,1.4c0,0.8,0.6,1.4,1.4,1.4h2.3v15.4V34v4.2c0,0.5,0.4,1,0.9,1
		s0.9-0.4,0.9-1v-3.3h10.2V11.6h1.9v23.3h23.6v3.3c0,0.5,0.4,1,0.9,1c0.5,0,1-0.4,1-1V34v-6.8V11.7h2.3c0.8,0,1.4-0.6,1.4-1.4
		C47.5,9.5,46.9,8.9,46.1,8.9z M13.4,23.9c0,0.5-0.4,1-1,1c-0.5,0-0.9-0.4-0.9-1v-5.3c0-0.5,0.4-0.9,0.9-0.9c0.5,0,1,0.4,1,0.9V23.9
		z M33.7,16H28c-0.5,0-0.9-0.4-0.9-1c0-0.5,0.4-0.9,0.9-0.9h5.7c0.5,0,1,0.4,1,0.9C34.7,15.6,34.3,16,33.7,16z"/>
</g>
</svg>
