<?xml version="1.0" encoding="utf-8"?>
<!-- Generator: Adobe Illustrator 18.0.0, SVG Export Plug-In . SVG Version: 6.00 Build 0)  -->
<!DOCTYPE svg PUBLIC "-//W3C//DTD SVG 1.1//EN" "http://www.w3.org/Graphics/SVG/1.1/DTD/svg11.dtd">
<svg version="1.1" id="Layer_1" xmlns="http://www.w3.org/2000/svg" xmlns:xlink="http://www.w3.org/1999/xlink" x="0px" y="0px"
	 viewBox="0 0 48 48" enable-background="new 0 0 48 48" xml:space="preserve">
<g>
	<path fill="#0DB89A" d="M12.9,28.4H0.8c-0.2,0-0.4,0.2-0.4,0.4v15.9c0,0.2,0.2,0.4,0.4,0.4h12.1c0.2,0,0.4-0.2,0.4-0.4V28.8
		C13.4,28.6,13.2,28.4,12.9,28.4z"/>
	<path fill="#0DB89A" d="M47.2,28.4H35.1c-0.2,0-0.4,0.2-0.4,0.4v15.9c0,0.2,0.2,0.4,0.4,0.4h12.1c0.2,0,0.4-0.2,0.4-0.4V28.8
		C47.6,28.6,47.4,28.4,47.2,28.4z"/>
	<path fill="#06728D" d="M32.4,28.4H15.6c-0.2,0-0.4,0.2-0.4,0.4v3.3h17.8v-3.3C32.9,28.6,32.7,28.4,32.4,28.4z"/>
	<path fill="#CFD0D1" d="M9.5,17.8h29c0.4,0,0.7-0.2,0.8-0.6c0.1-0.4,0-0.7-0.3-1l-9.1-7.4V3.7c0-0.5-0.4-0.9-0.9-0.9H19
		c-0.5,0-0.9,0.4-0.9,0.9v5.1L9,16.2c-0.3,0.2-0.4,0.6-0.3,1C8.8,17.5,9.2,17.8,9.5,17.8z"/>
	<path fill="#06728D" d="M15.1,44.7c0,0.2,0.2,0.4,0.4,0.4h16.9c0.2,0,0.4-0.2,0.4-0.4V33.9H15.1V44.7z M20.4,37.5h7.2v4h-7.2V37.5z
		"/>
</g>
</svg>
