<?xml version="1.0" encoding="utf-8"?>
<!-- Generator: Adobe Illustrator 18.0.0, SVG Export Plug-In . SVG Version: 6.00 Build 0)  -->
<!DOCTYPE svg PUBLIC "-//W3C//DTD SVG 1.1//EN" "http://www.w3.org/Graphics/SVG/1.1/DTD/svg11.dtd">
<svg version="1.1" id="Layer_1" xmlns="http://www.w3.org/2000/svg" xmlns:xlink="http://www.w3.org/1999/xlink" x="0px" y="0px"
	 viewBox="0 0 48 48" enable-background="new 0 0 48 48" xml:space="preserve">
<g>
	<path fill="#E77528" d="M15,23h32.5V1.5c0-0.5-0.4-1-1-1H15V23z M18.7,10.7H21c0.5,0,1,0.4,1,1c0,0.5-0.4,1-1,1h-2.3
		c-0.5,0-1-0.4-1-1C17.7,11.1,18.1,10.7,18.7,10.7z"/>
	<path fill="#4DA0D8" d="M13,23V0.5H1.5c-0.5,0-1,0.4-1,1V23H13z"/>
	<path fill="#E77528" d="M33,25H0.5v21.5c0,0.5,0.4,1,1,1H33V25z M28.9,36.2h-2.3c-0.5,0-1-0.4-1-1c0-0.5,0.4-1,1-1h2.3
		c0.5,0,1,0.4,1,1C29.9,35.8,29.5,36.2,28.9,36.2z"/>
	<path fill="#4DA0D8" d="M35,25v22.5h11.6c0.5,0,1-0.4,1-1V25H35z"/>
</g>
</svg>
