<?xml version="1.0" encoding="utf-8"?>
<!-- Generator: Adobe Illustrator 18.0.0, SVG Export Plug-In . SVG Version: 6.00 Build 0)  -->
<!DOCTYPE svg PUBLIC "-//W3C//DTD SVG 1.1//EN" "http://www.w3.org/Graphics/SVG/1.1/DTD/svg11.dtd">
<svg version="1.1" id="Layer_1" xmlns="http://www.w3.org/2000/svg" xmlns:xlink="http://www.w3.org/1999/xlink" x="0px" y="0px"
	 viewBox="0 0 48 48" enable-background="new 0 0 48 48" xml:space="preserve">
<g>
	<path fill="#F04B36" d="M42.8,44.6h-4.9V1.5c0-0.5-0.4-1-1-1H11.1c-0.5,0-1,0.4-1,1v43.1H5.2c-0.8,0-1.4,0.6-1.4,1.4
		c0,0.8,0.6,1.4,1.4,1.4h37.6c0.8,0,1.4-0.6,1.4-1.4C44.2,45.3,43.6,44.6,42.8,44.6z M17.2,22.8h5.4c0.5,0,1,0.4,1,1
		c0,0.5-0.4,1-1,1h-5.4c-0.5,0-1-0.4-1-1C16.2,23.2,16.7,22.8,17.2,22.8z"/>
</g>
</svg>
