<?xml version="1.0" encoding="utf-8"?>
<!-- Generator: Adobe Illustrator 18.0.0, SVG Export Plug-In . SVG Version: 6.00 Build 0)  -->
<!DOCTYPE svg PUBLIC "-//W3C//DTD SVG 1.1//EN" "http://www.w3.org/Graphics/SVG/1.1/DTD/svg11.dtd">
<svg version="1.1" id="Layer_1" xmlns="http://www.w3.org/2000/svg" xmlns:xlink="http://www.w3.org/1999/xlink" x="0px" y="0px"
	 viewBox="0 0 48 48" enable-background="new 0 0 48 48" xml:space="preserve">
<g>
	<path fill="#F04B36" d="M38.2,34.9l-9.5-15.7L27.7,1.9c0-0.8-0.7-1.4-1.5-1.3c-0.8,0-1.4,0.7-1.3,1.5l0.3,4.3H14.8L15.1,2
		c0-0.8-0.5-1.5-1.3-1.5c-0.8-0.1-1.5,0.6-1.5,1.3L9.6,46c0,0.8,0.5,1.5,1.3,1.5c0,0,0.1,0,0.1,0c0.7,0,1.4-0.6,1.4-1.3l0.4-6.5
		h14.3l0.4,6.5c0,0.8,0.7,1.3,1.4,1.3c0,0,0.1,0,0.1,0c0.8,0,1.4-0.7,1.3-1.5l-1.2-20.6l6.7,11c0.3,0.4,0.7,0.7,1.2,0.7
		c0.3,0,0.5-0.1,0.7-0.2C38.4,36.5,38.6,35.6,38.2,34.9z M25.6,14l-2.9-4.9h2.6L25.6,14z M19.3,9.2l4.4,7.3h-9.5l0.4-7.3H19.3z
		 M13,36.8l0.4-7.3h13.1l0.4,7.3H13z M26.3,26.7H13.6l0.4-7.3h11.4l0.5,0.8L26.3,26.7z"/>
</g>
</svg>
