<?xml version="1.0" encoding="utf-8"?>
<!-- Generator: Adobe Illustrator 18.0.0, SVG Export Plug-In . SVG Version: 6.00 Build 0)  -->
<!DOCTYPE svg PUBLIC "-//W3C//DTD SVG 1.1//EN" "http://www.w3.org/Graphics/SVG/1.1/DTD/svg11.dtd">
<svg version="1.1" id="Layer_1" xmlns="http://www.w3.org/2000/svg" xmlns:xlink="http://www.w3.org/1999/xlink" x="0px" y="0px"
	 viewBox="0 0 48 48" enable-background="new 0 0 48 48" xml:space="preserve">
<g>
	<path fill="#E8B944" d="M15,25.4v2.4c0,2.3,1.9,4.1,4.2,4.1h21.9c2.3,0,4.2-1.9,4.2-4.1v-2.4c0-2.3-1.9-4.1-4.2-4.1H19.2
		C16.9,21.3,15,23.1,15,25.4z"/>
	<path fill="#E77528" d="M45.1,32.4c-1.1,0.9-2.5,1.5-4,1.5H19.2c-3.4,0-6.1-2.7-6.1-6.1v-2.4c0-2.6,1.7-4.8,4-5.7
		c-1.7-9.9-5.4-16.1-5.5-16.4c-1.6-2.6-5-3.6-7.7-2C2.5,2,1.6,3.2,1.2,4.7C0.8,6.1,1,7.6,1.8,8.9C1.8,9,8.2,20.3,6.4,35.9
		c-0.2,1.6,0.3,3.2,1.4,4.3c1.1,1.2,2.6,1.9,4.2,1.9h0.9V46c0,0.8,0.6,1.5,1.5,1.5c0.8,0,1.5-0.6,1.5-1.5v-3.9h21.7V46
		c0,0.8,0.6,1.5,1.5,1.5c0.8,0,1.5-0.6,1.5-1.5v-3.9h0.9c3.1,0,5.6-2.5,5.6-5.6C47,34.9,46.2,33.4,45.1,32.4z"/>
</g>
</svg>
