<?xml version="1.0" encoding="utf-8"?>
<!-- Generator: Adobe Illustrator 18.0.0, SVG Export Plug-In . SVG Version: 6.00 Build 0)  -->
<!DOCTYPE svg PUBLIC "-//W3C//DTD SVG 1.1//EN" "http://www.w3.org/Graphics/SVG/1.1/DTD/svg11.dtd">
<svg version="1.1" id="Layer_1" xmlns="http://www.w3.org/2000/svg" xmlns:xlink="http://www.w3.org/1999/xlink" x="0px" y="0px"
	 viewBox="0 0 48 48" enable-background="new 0 0 48 48" xml:space="preserve">
<g>
	<path fill="#CFD0D1" d="M1.6,29.8h44.9c0,0,0,0,0,0c0.5,0,1-0.4,1-1c0-0.3-0.1-0.6-0.4-0.8l-9.3-10.2c-0.2-0.2-0.4-0.3-0.7-0.3
		H11.1c-0.3,0-0.5,0.1-0.7,0.3L0.9,28.1c-0.3,0.3-0.3,0.7-0.2,1C0.9,29.5,1.3,29.8,1.6,29.8z"/>
	<path fill="#E77528" d="M10.8,16.2h7.5h3.4c0,0,0,0,0,0H26h3.4h7.5c0.5,0,1-0.4,1-1v-0.3c0-7.3-5.2-13.2-11.6-13.2h-4.7
		c-6.4,0-11.6,5.9-11.6,13.2v0.3C9.9,15.7,10.3,16.2,10.8,16.2z M21.7,8.6H26c1.9,0,3.4,1.3,3.4,2.8c0,1.6-1.5,2.8-3.4,2.8h-4.3h0
		c0,0,0,0,0,0c-1.9,0-3.4-1.3-3.4-2.8C18.3,9.8,19.8,8.6,21.7,8.6z"/>
	<path fill="#4DA0D8" d="M46.3,31.3H1.4c-0.5,0-1,0.4-1,1v0.7v8.3v3.7c0,0.8,0.6,1.4,1.4,1.4s1.4-0.6,1.4-1.4v-2.7h41.1v2.7
		c0,0.8,0.6,1.4,1.4,1.4c0.8,0,1.4-0.6,1.4-1.4v-3.7v-8.3v-0.7C47.3,31.7,46.9,31.3,46.3,31.3z"/>
</g>
</svg>
