<?xml version="1.0" encoding="utf-8"?>
<!-- Generator: Adobe Illustrator 18.0.0, SVG Export Plug-In . SVG Version: 6.00 Build 0)  -->
<!DOCTYPE svg PUBLIC "-//W3C//DTD SVG 1.1//EN" "http://www.w3.org/Graphics/SVG/1.1/DTD/svg11.dtd">
<svg version="1.1" id="Layer_1" xmlns="http://www.w3.org/2000/svg" xmlns:xlink="http://www.w3.org/1999/xlink" x="0px" y="0px"
	 viewBox="0 0 48 48" enable-background="new 0 0 48 48" xml:space="preserve">
<g>
	<path fill="#294E58" d="M46,18.4c-0.8,0-1.4,0.6-1.4,1.4v1.2H3.4v-8.5c0-0.8-0.6-1.4-1.4-1.4c-0.8,0-1.4,0.6-1.4,1.4v22.8
		c0,0.8,0.6,1.4,1.4,1.4c0.8,0,1.4-0.6,1.4-1.4v-3.3h7.4v1.7c0,0.5,0.4,0.9,0.9,0.9h28.4c0.5,0,0.9-0.4,0.9-0.9v-1.7h3.5v3.3
		c0,0.8,0.6,1.4,1.4,1.4c0.8,0,1.4-0.6,1.4-1.4V19.9C47.4,19.1,46.8,18.4,46,18.4z M3.4,29.3v-5.3h7.4v5.3H3.4z M41.1,29.3v-5.3h3.5
		v5.3H41.1z"/>
	<path fill="#E77528" d="M7.1,18.8l5.7,1.5c0.3,0.1,0.7,0.1,1,0.1c1.5,0,2.8-0.9,3.2-2.3c0.4-1.7-0.7-3.4-2.6-3.9l-5.7-1.5
		c-0.3-0.1-0.6-0.1-1-0.1c-1.5,0-2.8,0.9-3.2,2.3C4.1,16.5,5.2,18.3,7.1,18.8z"/>
</g>
</svg>
