<?xml version="1.0" encoding="utf-8"?>
<!-- Generator: Adobe Illustrator 18.0.0, SVG Export Plug-In . SVG Version: 6.00 Build 0)  -->
<!DOCTYPE svg PUBLIC "-//W3C//DTD SVG 1.1//EN" "http://www.w3.org/Graphics/SVG/1.1/DTD/svg11.dtd">
<svg version="1.1" id="Layer_1" xmlns="http://www.w3.org/2000/svg" xmlns:xlink="http://www.w3.org/1999/xlink" x="0px" y="0px"
	 viewBox="0 0 48 48" enable-background="new 0 0 48 48" xml:space="preserve">
<g>
	<path fill="#E8B944" d="M23,25H0.5v17.9c0,2.5,2.2,4.6,4.9,4.6H23V25z M19.9,37h-3.1c-0.5,0-1-0.4-1-1c0-0.5,0.4-1,1-1h3.1
		c0.5,0,1,0.4,1,1C20.9,36.5,20.4,37,19.9,37z"/>
	<path fill="#E8B944" d="M25,23h22.5V5.1c0-2.5-2.2-4.6-4.9-4.6H25V23z M28.1,11.7h3.1c0.5,0,1,0.4,1,1c0,0.5-0.4,1-1,1h-3.1
		c-0.5,0-1-0.4-1-1C27.1,12.1,27.6,11.7,28.1,11.7z"/>
	<path fill="#0DB89A" d="M23,23V0.5H5.4c-2.7,0-4.9,2-4.9,4.6V23H23z M16.8,11.7h3.1c0.5,0,1,0.4,1,1c0,0.5-0.4,1-1,1h-3.1
		c-0.5,0-1-0.4-1-1C15.8,12.1,16.2,11.7,16.8,11.7z"/>
	<path fill="#0DB89A" d="M25,25v22.5h17.6c2.7,0,4.9-2,4.9-4.6V25H25z M31.2,37h-3.1c-0.5,0-1-0.4-1-1c0-0.5,0.4-1,1-1h3.1
		c0.5,0,1,0.4,1,1C32.2,36.5,31.8,37,31.2,37z"/>
</g>
</svg>
