<?xml version="1.0" encoding="utf-8"?>
<!-- Generator: Adobe Illustrator 18.0.0, SVG Export Plug-In . SVG Version: 6.00 Build 0)  -->
<!DOCTYPE svg PUBLIC "-//W3C//DTD SVG 1.1//EN" "http://www.w3.org/Graphics/SVG/1.1/DTD/svg11.dtd">
<svg version="1.1" id="Layer_1" xmlns="http://www.w3.org/2000/svg" xmlns:xlink="http://www.w3.org/1999/xlink" x="0px" y="0px"
	 viewBox="0 0 48 48" enable-background="new 0 0 48 48" xml:space="preserve">
<g>
	<g>
		<path fill="#CFD0D1" d="M40,25.5c-0.3-0.1-1.4-0.2-2.5-0.2h-27c-1.1,0-2.2,0.1-2.5,0.2s-0.5,1.7-0.5,2.8v1.4c0,1.1,0.9,2,2,2h29
			c1.1,0,2-0.9,2-2v-1.4C40.5,27.1,40.3,25.6,40,25.5z M26.2,30c-0.5,0.2-1.5,0.4-2.2,0.4s-1.6-0.2-2.2-0.4c0,0,0,0,0-0.5
			c0-0.5,0-0.5,0-0.5c0.5-0.2,1.5-0.4,2.2-0.4s1.6,0.2,2.2,0.4c0,0,0,0,0,0.5C26.2,30,26.2,30,26.2,30z"/>
	</g>
	<g>
		<path fill="#FFD69A" d="M7.5,44.5c0,1.1,0.1,2.2,0.2,2.5c0.1,0.3,1.7,0.5,2.8,0.5H21c1.1,0,2-0.9,2-2v-9.9c0-1.1-0.9-2-2-2H9.5
			c-1.1,0-2,0.9-2,2V44.5z M19.1,39.5c0-0.7,0.2-1.6,0.4-2.2c0,0,0,0,0.5,0c0.5,0,0.5,0,0.5,0c0.2,0.5,0.4,1.5,0.4,2.2
			s-0.2,1.6-0.4,2.2c0,0,0,0-0.5,0c-0.5,0-0.5,0-0.5,0C19.3,41.2,19.1,40.2,19.1,39.5z"/>
	</g>
	<g>
		<path fill="#FFD69A" d="M25,45.5c0,1.1,0.9,2,2,2h10.5c1.1,0,2.2-0.1,2.5-0.2c0.3-0.1,0.5-1.7,0.5-2.8v-8.9c0-1.1-0.9-2-2-2H27
			c-1.1,0-2,0.9-2,2V45.5z M26.9,39.5c0-0.7,0.2-1.6,0.4-2.2c0,0,0,0,0.5,0c0.5,0,0.5,0,0.5,0c0.2,0.5,0.4,1.5,0.4,2.2
			s-0.2,1.6-0.4,2.2c0,0,0,0-0.5,0c-0.5,0-0.5,0-0.5,0C27.1,41.2,26.9,40.2,26.9,39.5z"/>
	</g>
	<g>
		<path fill="#4DA0D8" d="M38.6,2.5c0-1.1-0.9-2-2-2H11.4c-1.1,0-2,0.9-2,2v18.2c0,1.1,0.9,2,2,2h25.2c1.1,0,2-0.9,2-2V2.5z"/>
	</g>
</g>
</svg>
