<?xml version="1.0" encoding="utf-8"?>
<!-- Generator: Adobe Illustrator 18.0.0, SVG Export Plug-In . SVG Version: 6.00 Build 0)  -->
<!DOCTYPE svg PUBLIC "-//W3C//DTD SVG 1.1//EN" "http://www.w3.org/Graphics/SVG/1.1/DTD/svg11.dtd">
<svg version="1.1" id="Layer_1" xmlns="http://www.w3.org/2000/svg" xmlns:xlink="http://www.w3.org/1999/xlink" x="0px" y="0px"
	 viewBox="0 0 48 48" enable-background="new 0 0 48 48" xml:space="preserve">
<g>
	<path fill="#294E58" d="M29.1,11.3c0.4-0.4,0.7-1,0.7-1.6c0-0.6-0.2-1.2-0.6-1.7c-0.1-0.1-0.1-0.4,0-0.5l0.3-0.3
		c0.4-0.4,0.7-1,0.7-1.7c0-0.6-0.2-1.2-0.7-1.7l-2.6-2.6c-0.9-0.9-2.4-0.9-3.3,0l-0.3,0.3c-0.2,0.2-0.4,0.2-0.5,0
		c-0.9-0.9-2.4-0.9-3.3,0l-1.9,1.9c-0.4,0.4-1.3,0.8-1.8,0.9l-8.6,1c-0.7,0.1-1.3,0.5-1.5,1c-0.2,0.6,0,1.2,0.5,1.7l4.8,4.9
		c-1.2,1.8-1,4.3,0.6,5.9c0.9,0.9,2.1,1.4,3.4,1.4c0.9,0,1.8-0.2,2.5-0.7l4.8,4.9c0.5,0.5,1,0.6,1.3,0.6c0,0,0,0,0,0
		c0.6,0,1.4-0.4,1.5-1.5l1.2-8.5c0-0.2,0.1-0.3,0.1-0.5l1.8-2.3L29.1,11.3z"/>
	<path fill="#06728D" d="M35.9,28.2c0.4,0.1,0.8,0.1,1.2,0.1c2.9,0,5.3-2.4,5.3-5.3c0-2.9-2.4-5.3-5.3-5.3c-0.8,0-1.6,0.2-2.3,0.6
		l-6.5-6.1l-1.8,2.3l6.1,5.8C32.1,21,31.8,22,31.8,23c0,1.5,0.6,2.8,1.6,3.8l-7.9,13.7l3.3,0.1L35.9,28.2z"/>
	<path fill="#F04B36" d="M28.7,40.6l-3.3-0.1c-8,0.1-16,2.1-16,5.9c0,0.5,0.4,1,1,1h31c0.5,0,1-0.4,1-1C42.3,43,35.9,41,28.7,40.6z"
		/>
</g>
</svg>
