<?xml version="1.0" encoding="utf-8"?>
<!-- Generator: Adobe Illustrator 18.0.0, SVG Export Plug-In . SVG Version: 6.00 Build 0)  -->
<!DOCTYPE svg PUBLIC "-//W3C//DTD SVG 1.1//EN" "http://www.w3.org/Graphics/SVG/1.1/DTD/svg11.dtd">
<svg version="1.1" id="Layer_1" xmlns="http://www.w3.org/2000/svg" xmlns:xlink="http://www.w3.org/1999/xlink" x="0px" y="0px"
	 viewBox="0 0 48 48" enable-background="new 0 0 48 48" xml:space="preserve">
<g>
	<path fill="#E77528" d="M31.3,36.4l-5.9-2.5v-12h11.6c0.8,0,1.4-0.6,1.4-1.4c0-0.8-0.6-1.4-1.4-1.4H10.9c-0.8,0-1.4,0.6-1.4,1.4
		c0,0.8,0.6,1.4,1.4,1.4h11.6v12l-5.9,2.5c-0.7,0.3-1.1,1.1-0.8,1.9c0.2,0.5,0.8,0.9,1.3,0.9c0.2,0,0.4,0,0.5-0.1l4.8-2v0.7
		c0,0.8,0.6,1.4,1.4,1.4s1.4-0.6,1.4-1.4V37l4.8,2c0.2,0.1,0.4,0.1,0.5,0.1c0.6,0,1.1-0.3,1.3-0.9C32.4,37.5,32,36.7,31.3,36.4z"/>
	<path fill="#294E58" d="M12.4,25.2H3.5V10.3c0-0.8-0.6-1.4-1.4-1.4c-0.8,0-1.4,0.6-1.4,1.4v27.4c0,0.8,0.6,1.4,1.4,1.4
		c0.8,0,1.4-0.6,1.4-1.4v-4.1H11v4.1c0,0.8,0.6,1.4,1.4,1.4c0.8,0,1.4-0.6,1.4-1.4V26.6C13.8,25.8,13.2,25.2,12.4,25.2z M3.5,30.8
		V28H11v2.7H3.5z"/>
	<path fill="#294E58" d="M45.9,8.9c-0.8,0-1.4,0.6-1.4,1.4v14.9h-8.9c-0.8,0-1.4,0.6-1.4,1.4v11.1c0,0.8,0.6,1.4,1.4,1.4
		c0.8,0,1.4-0.6,1.4-1.4v-4.1h7.5v4.1c0,0.8,0.6,1.4,1.4,1.4c0.8,0,1.4-0.6,1.4-1.4V10.3C47.3,9.5,46.7,8.9,45.9,8.9z M37,30.8V28
		h7.5v2.7H37z"/>
</g>
</svg>
