<?xml version="1.0" encoding="utf-8"?>
<!-- Generator: Adobe Illustrator 18.0.0, SVG Export Plug-In . SVG Version: 6.00 Build 0)  -->
<!DOCTYPE svg PUBLIC "-//W3C//DTD SVG 1.1//EN" "http://www.w3.org/Graphics/SVG/1.1/DTD/svg11.dtd">
<svg version="1.1" id="Layer_1" xmlns="http://www.w3.org/2000/svg" xmlns:xlink="http://www.w3.org/1999/xlink" x="0px" y="0px"
	 viewBox="0 0 48 48" enable-background="new 0 0 48 48" xml:space="preserve">
<g>
	<rect x="20" y="11.7" fill="#4DA0D8" width="8" height="21.7"/>
	<path fill="#F7A93B" d="M18.1,11.7H1.6c-0.5,0-1,0.4-1,1v19.7c0,0.5,0.4,1,1,1h2.3v2c0,0.5,0.4,1,1,1s1-0.4,1-1v-2h12.2V11.7z
		 M14.5,24.5c-0.5,0-1-0.4-1-1V21c0-0.5,0.4-1,1-1c0.5,0,1,0.4,1,1v2.6C15.4,24.1,15,24.5,14.5,24.5z"/>
	<path fill="#F7A93B" d="M46.4,11.7H29.9v21.7h12.2v2c0,0.5,0.4,1,1,1c0.5,0,1-0.4,1-1v-2h2.3c0.5,0,1-0.4,1-1V12.6
		C47.4,12.1,46.9,11.7,46.4,11.7z M34.5,23.5c0,0.5-0.4,1-1,1c-0.5,0-1-0.4-1-1V21c0-0.5,0.4-1,1-1c0.5,0,1,0.4,1,1V23.5z"/>
</g>
</svg>
