<?xml version="1.0" encoding="utf-8"?>
<!-- Generator: Adobe Illustrator 18.0.0, SVG Export Plug-In . SVG Version: 6.00 Build 0)  -->
<!DOCTYPE svg PUBLIC "-//W3C//DTD SVG 1.1//EN" "http://www.w3.org/Graphics/SVG/1.1/DTD/svg11.dtd">
<svg version="1.1" id="Layer_1" xmlns="http://www.w3.org/2000/svg" xmlns:xlink="http://www.w3.org/1999/xlink" x="0px" y="0px"
	 viewBox="0 0 48 48" enable-background="new 0 0 48 48" xml:space="preserve">
<g>
	<path fill="#F7A93B" d="M25,31.4h22.6V4.5c0-2.3-2.4-4.1-5.2-4.1H25V31.4z M30.1,14.8c0.5,0,1,0.4,1,1V18c0,0.5-0.4,1-1,1
		c-0.5,0-1-0.4-1-1v-2.2C29.1,15.2,29.5,14.8,30.1,14.8z"/>
	<path fill="#E77528" d="M47.6,33.3H0.4V38h47.2V33.3z M25.5,36.7h-3c-0.5,0-1-0.4-1-1s0.4-1,1-1h3c0.5,0,1,0.4,1,1
		S26,36.7,25.5,36.7z"/>
	<path fill="#F7A93B" d="M23,31.4v-31H5.6c-2.9,0-5.2,1.8-5.2,4.1v26.9H23z M16.9,15.8c0-0.5,0.4-1,1-1c0.5,0,1,0.4,1,1V18
		c0,0.5-0.4,1-1,1c-0.5,0-1-0.4-1-1V15.8z"/>
	<path fill="#294E58" d="M0.4,39.9v3.6c0,2.3,2.4,4.1,5.2,4.1h36.7c2.9,0,5.2-1.8,5.2-4.1v-3.6H0.4z M25.5,43.8h-3c-0.5,0-1-0.4-1-1
		c0-0.5,0.4-1,1-1h3c0.5,0,1,0.4,1,1C26.5,43.3,26,43.8,25.5,43.8z"/>
</g>
</svg>
