<?xml version="1.0" encoding="utf-8"?>
<!-- Generator: Adobe Illustrator 18.0.0, SVG Export Plug-In . SVG Version: 6.00 Build 0)  -->
<!DOCTYPE svg PUBLIC "-//W3C//DTD SVG 1.1//EN" "http://www.w3.org/Graphics/SVG/1.1/DTD/svg11.dtd">
<svg version="1.1" id="Layer_1" xmlns="http://www.w3.org/2000/svg" xmlns:xlink="http://www.w3.org/1999/xlink" x="0px" y="0px"
	 viewBox="0 0 48 48" enable-background="new 0 0 48 48" xml:space="preserve">
<g>
	<polygon fill="#06728D" points="0.4,21.3 1.7,21.3 14.6,21.3 14.6,12.7 1.7,12.7 0.4,12.7 	"/>
	<rect x="16.5" y="0.4" fill="#4DA0D8" width="13.6" height="10.3"/>
	<rect x="16.5" y="12.7" fill="#E77528" width="13.6" height="8.7"/>
	<rect x="16.5" y="23.3" fill="#06728D" width="13.6" height="8.7"/>
	<polygon fill="#E8B944" points="14.6,23.3 1.7,23.3 0.4,23.3 0.4,32 1.7,32 14.6,32 	"/>
	<path fill="#F04B36" d="M32.1,10.7h15.5V1.4c0-0.5-0.4-1-1-1H32.1V10.7z"/>
	<path fill="#CFD0D1" d="M16.5,33.9v13.7h30.1c0.5,0,1-0.4,1-1V33.9H16.5z M33.3,40.5h-4c-0.5,0-1-0.4-1-1c0-0.5,0.4-1,1-1h4
		c0.5,0,1,0.4,1,1C34.3,40.1,33.8,40.5,33.3,40.5z"/>
	<path fill="#CFD0D1" d="M14.6,33.9H1.7H0.4v12.7c0,0.5,0.4,1,1,1h13.2V33.9z"/>
	<rect x="32.1" y="23.3" fill="#E77528" width="15.5" height="8.7"/>
	<rect x="32.1" y="12.7" fill="#4DA0D8" width="15.5" height="8.7"/>
	<path fill="#E77528" d="M1.7,10.7h12.9V0.4H1.4c-0.5,0-1,0.4-1,1v9.4H1.7z"/>
</g>
</svg>
