<?xml version="1.0" encoding="utf-8"?>
<!-- Generator: Adobe Illustrator 18.0.0, SVG Export Plug-In . SVG Version: 6.00 Build 0)  -->
<!DOCTYPE svg PUBLIC "-//W3C//DTD SVG 1.1//EN" "http://www.w3.org/Graphics/SVG/1.1/DTD/svg11.dtd">
<svg version="1.1" id="Layer_1" xmlns="http://www.w3.org/2000/svg" xmlns:xlink="http://www.w3.org/1999/xlink" x="0px" y="0px"
	 viewBox="0 0 48 48" enable-background="new 0 0 48 48" xml:space="preserve">
<g>
	<path fill="#06728D" d="M47.5,35.4l-4.9-21.6h2.9c0.8,0,1.4-0.6,1.4-1.4c0-0.8-0.6-1.4-1.4-1.4h-43c-0.8,0-1.4,0.6-1.4,1.4
		c0,0.8,0.6,1.4,1.4,1.4H5L0.5,35.4c-0.2,0.8,0.3,1.5,1.1,1.7c0.1,0,0.2,0,0.3,0c0.7,0,1.3-0.5,1.4-1.1l3.6-17.3l3.1,8.5
		c0.1,0.2,0.3,0.4,0.5,0.6c0.1,0,0.2,0.1,0.4,0.1c0.1,0,0.3,0,0.4-0.1l28.6-13L44.7,36c0.1,0.7,0.7,1.1,1.4,1.1c0.1,0,0.2,0,0.3,0
		C47.2,36.9,47.6,36.1,47.5,35.4z"/>
</g>
</svg>
