<?xml version="1.0" encoding="utf-8"?>
<!-- Generator: Adobe Illustrator 18.0.0, SVG Export Plug-In . SVG Version: 6.00 Build 0)  -->
<!DOCTYPE svg PUBLIC "-//W3C//DTD SVG 1.1//EN" "http://www.w3.org/Graphics/SVG/1.1/DTD/svg11.dtd">
<svg version="1.1" id="Layer_1" xmlns="http://www.w3.org/2000/svg" xmlns:xlink="http://www.w3.org/1999/xlink" x="0px" y="0px"
	 viewBox="0 0 48 48" enable-background="new 0 0 48 48" xml:space="preserve">
<g>
	<path fill="none" d="M33.7,13.9v-3.1H14.3v3.1c0,0.8-0.6,1.4-1.4,1.4h-1.5v6.7h25.3v-6.7h-1.5C34.3,15.4,33.7,14.7,33.7,13.9z"/>
	<polygon fill="none" points="32.1,25 15.9,25 24,32.8 	"/>
	<path fill="#06728D" d="M40.4,12.5h-3.8v-2c1.3-0.6,2.2-1.9,2.2-3.5V4.3c0-2.1-1.7-3.9-3.9-3.9H13.1c-2.1,0-3.9,1.7-3.9,3.9V7
		c0,1.5,0.9,2.9,2.2,3.5v2H7.6c-0.8,0-1.4,0.6-1.4,1.4c0,0.8,0.6,1.4,1.4,1.4h0.9v10c0,0.8,0.6,1.4,1.4,1.4c0.8,0,1.4-0.6,1.4-1.4
		V25h0.3h4.2h16.3h4.2h0.3v0.4c0,0.8,0.6,1.4,1.4,1.4c0.8,0,1.4-0.6,1.4-1.4v-10h0.9c0.8,0,1.4-0.6,1.4-1.4
		C41.8,13.1,41.2,12.5,40.4,12.5z M36.6,22.1H11.4v-6.7h1.5c0.8,0,1.4-0.6,1.4-1.4v-3.1h19.3v3.1c0,0.8,0.6,1.4,1.4,1.4h1.5V22.1z"
		/>
	<path fill="#294E58" d="M24,32.8L15.9,25h-4.2l10.2,9.9L11.3,45.1c-0.6,0.6-0.6,1.5,0,2c0.3,0.3,0.7,0.4,1,0.4c0.4,0,0.7-0.1,1-0.4
		L24,36.8l10.7,10.3c0.3,0.3,0.6,0.4,1,0.4c0.4,0,0.8-0.1,1-0.4c0.6-0.6,0.5-1.5,0-2L26.1,34.8L36.3,25h-4.2L24,32.8z"/>
</g>
</svg>
