<?xml version="1.0" encoding="utf-8"?>
<!-- Generator: Adobe Illustrator 18.0.0, SVG Export Plug-In . SVG Version: 6.00 Build 0)  -->
<!DOCTYPE svg PUBLIC "-//W3C//DTD SVG 1.1//EN" "http://www.w3.org/Graphics/SVG/1.1/DTD/svg11.dtd">
<svg version="1.1" id="Layer_1" xmlns="http://www.w3.org/2000/svg" xmlns:xlink="http://www.w3.org/1999/xlink" x="0px" y="0px"
	 viewBox="0 0 48 48" enable-background="new 0 0 48 48" xml:space="preserve">
<g>
	<path fill="#E77528" d="M47.1,34.1c-0.6-0.6-1.5-0.5-2,0c-1.2,1.2-2.4,2.3-3.7,3.4V9.7c0-0.8-0.6-1.4-1.4-1.4
		c-0.8,0-1.4,0.6-1.4,1.4v2.4H9.4V9.7c0-0.8-0.6-1.4-1.4-1.4c-0.8,0-1.4,0.6-1.4,1.4v28C4.3,35.8,3,34.3,3,34.2
		c-0.5-0.6-1.4-0.7-2-0.2c-0.6,0.5-0.7,1.4-0.2,2c0.4,0.4,8.8,10.9,21.8,11.5c0.4,0,0.9,0,1.3,0c8,0,15.9-3.8,23.3-11.5
		C47.7,35.5,47.7,34.6,47.1,34.1z M38.6,31.5h-2.5V15h2.5V31.5z M30.8,31.5V15h2.5v16.5H30.8z M25.4,31.5V15h2.5v16.5H25.4z
		 M20.1,31.5V15h2.5v16.5H20.1z M14.7,31.5V15h2.5v16.5H14.7z M11.8,15v16.5H9.4V15H11.8z M22.7,44.7c-5.4-0.3-10-2.5-13.4-4.9
		c0.1-0.2,0.1-0.3,0.1-0.5v-5h29.2v5c0,0.1,0,0.2,0,0.3C33.4,43.2,28.1,44.9,22.7,44.7z"/>
	<path fill="#E77528" d="M7.9,5.5c0.8,0,1.4-0.6,1.4-1.4V1.9c0-0.8-0.6-1.4-1.4-1.4c-0.8,0-1.4,0.6-1.4,1.4V4
		C6.5,4.8,7.2,5.5,7.9,5.5z"/>
	<path fill="#E77528" d="M40,5.5c0.8,0,1.4-0.6,1.4-1.4V1.9c0-0.8-0.6-1.4-1.4-1.4c-0.8,0-1.4,0.6-1.4,1.4V4
		C38.6,4.8,39.2,5.5,40,5.5z"/>
</g>
</svg>
