<?xml version="1.0" encoding="utf-8"?>
<!-- Generator: Adobe Illustrator 18.0.0, SVG Export Plug-In . SVG Version: 6.00 Build 0)  -->
<!DOCTYPE svg PUBLIC "-//W3C//DTD SVG 1.1//EN" "http://www.w3.org/Graphics/SVG/1.1/DTD/svg11.dtd">
<svg version="1.1" id="Layer_1" xmlns="http://www.w3.org/2000/svg" xmlns:xlink="http://www.w3.org/1999/xlink" x="0px" y="0px"
	 viewBox="0 0 48 48" enable-background="new 0 0 48 48" xml:space="preserve">
<g>
	<path fill="#4DA0D8" d="M34.4,31.8c4.3-1.2,7.4-4.7,7.4-8.9c0-4.8-6.5-22.5-17.8-22.5c-12.1,0-17.8,18-17.8,22.5
		c0,4.1,3.1,7.7,7.4,8.9L8.1,45.6c-0.3,0.7,0.1,1.6,0.8,1.9c0.2,0.1,0.4,0.1,0.5,0.1c0.6,0,1.1-0.3,1.3-0.9l5.6-14.2
		c0-0.1,0.1-0.2,0.1-0.2c0.1,0,0.2,0,0.3,0h14.4c0.1,0,0.2,0,0.3,0c0,0.1,0,0.2,0.1,0.2l5.6,14.2c0.2,0.6,0.8,0.9,1.3,0.9
		c0.2,0,0.4,0,0.5-0.1c0.7-0.3,1.1-1.1,0.8-1.9L34.4,31.8z M33.3,23.6c-3.5,1.7-6.8,2.3-9.5,2.3c-5.4,0-9-2.2-9.2-2.4
		c-0.4-0.3-0.6-0.9-0.3-1.3c0.3-0.4,0.9-0.6,1.3-0.3c0.3,0.2,7.5,4.6,16.9-0.1c0.5-0.2,1.1,0,1.3,0.4C34,22.7,33.8,23.3,33.3,23.6z"
		/>
	<path fill="#06728D" d="M13.6,31.8l-0.3,0.8h3.1l0.1-0.1c0-0.1,0.1-0.2,0.1-0.2c0.1,0,0.2,0,0.3,0h14.4c0.1,0,0.2,0,0.3,0
		c0,0.1,0,0.2,0.1,0.2l0.1,0.1h3.1l-0.3-0.8c4.3-1.2,7.4-4.7,7.4-8.9c0-4.8-6.5-22.5-17.8-22.5c-12.1,0-17.8,18-17.8,22.5
		C6.2,27.1,9.3,30.6,13.6,31.8z M14.3,22.2c0.3-0.4,0.9-0.6,1.3-0.3c0.3,0.2,7.5,4.6,16.9-0.1c0.5-0.2,1.1,0,1.3,0.4
		c0.2,0.5,0,1.1-0.4,1.3c-3.5,1.7-6.8,2.3-9.5,2.3c-5.4,0-9-2.2-9.2-2.4C14.1,23.2,14,22.6,14.3,22.2z"/>
</g>
</svg>
