<?xml version="1.0" encoding="utf-8"?>
<!-- Generator: Adobe Illustrator 18.0.0, SVG Export Plug-In . SVG Version: 6.00 Build 0)  -->
<!DOCTYPE svg PUBLIC "-//W3C//DTD SVG 1.1//EN" "http://www.w3.org/Graphics/SVG/1.1/DTD/svg11.dtd">
<svg version="1.1" id="Layer_1" xmlns="http://www.w3.org/2000/svg" xmlns:xlink="http://www.w3.org/1999/xlink" x="0px" y="0px"
	 viewBox="0 0 48 48" enable-background="new 0 0 48 48" xml:space="preserve">
<g>
	<path fill="#06728D" d="M42,29.1c0.7,0,1.3-0.5,1.4-1.2l4.3-25.6c0.1-0.8-0.4-1.5-1.2-1.6c-0.8-0.1-1.5,0.4-1.6,1.2l-2.5,14.9H30.6
		c-0.8,0-1.4,0.6-1.4,1.4c0,0.8,0.6,1.4,1.4,1.4h1l1.2,6.7h-3.5c-0.8,0-1.4,0.6-1.4,1.4s0.6,1.4,1.4,1.4h5.5v9.7l-6,2.4
		c-0.7,0.3-1.1,1.1-0.8,1.8c0.2,0.6,0.7,0.9,1.3,0.9c0.2,0,0.3,0,0.5-0.1l6.4-2.5l6.4,2.5c0.2,0.1,0.3,0.1,0.5,0.1
		c0.6,0,1.1-0.3,1.3-0.9c0.3-0.7-0.1-1.5-0.8-1.8l-6-2.4v-9.7H42z M34.4,19.7h7.5l-1.1,6.7h-5.2L34.4,19.7z"/>
	<path fill="#F04B36" d="M29.9,44.9h-0.6c-0.5,0-0.9,0.4-0.9,0.9s0.4,0.9,0.9,0.9h0.6c0.5,0,0.9-0.4,0.9-0.9S30.4,44.9,29.9,44.9z"
		/>
	<path fill="#F04B36" d="M43.2,44.9h-0.6c-0.5,0-0.9,0.4-0.9,0.9s0.4,0.9,0.9,0.9h0.6c0.5,0,0.9-0.4,0.9-0.9S43.7,44.9,43.2,44.9z"
		/>
	<path fill="#F04B36" d="M36.4,42.9h-0.7c-0.5,0-0.9,0.4-0.9,0.9s0.4,0.9,0.9,0.9h0.7c0.5,0,0.9-0.4,0.9-0.9S36.9,42.9,36.4,42.9z"
		/>
	<path fill="#E77528" d="M27.6,18.9c0-0.8-0.6-1.4-1.4-1.4H1.7c-0.8,0-1.4,0.6-1.4,1.4c0,0.8,0.6,1.4,1.4,1.4h1.8v23.5
		c0,0.5,0.4,0.9,0.9,0.9h1v1.1c0,0.8,0.6,1.4,1.4,1.4s1.4-0.6,1.4-1.4v-1.1h10.1v1.1c0,0.8,0.6,1.4,1.4,1.4c0.8,0,1.4-0.6,1.4-1.4
		v-1.1h1.7c0.5,0,0.9-0.4,0.9-0.9V20.3h2.3C27,20.3,27.6,19.7,27.6,18.9z"/>
	<path fill="#294E58" d="M5.3,16.6h11.4c0,0,0,0,0,0c0.5,0,0.9-0.4,0.9-0.9c0-0.1,0-0.2-0.1-0.3L15.7,2c0-0.3-0.3-0.6-0.6-0.7
		c-0.3-0.1-0.6-0.1-0.9,0.1L4.8,7.9C4.5,8.1,4.3,8.4,4.3,8.7v6.9C4.3,16.1,4.8,16.6,5.3,16.6z"/>
</g>
</svg>
