<?xml version="1.0" encoding="utf-8"?>
<!-- Generator: Adobe Illustrator 18.0.0, SVG Export Plug-In . SVG Version: 6.00 Build 0)  -->
<!DOCTYPE svg PUBLIC "-//W3C//DTD SVG 1.1//EN" "http://www.w3.org/Graphics/SVG/1.1/DTD/svg11.dtd">
<svg version="1.1" id="Layer_1" xmlns="http://www.w3.org/2000/svg" xmlns:xlink="http://www.w3.org/1999/xlink" x="0px" y="0px"
	 viewBox="0 0 48 48" enable-background="new 0 0 48 48" xml:space="preserve">
<g>
	<path fill="#0DB89A" d="M24,13.2c3.4,0,6.2-2.7,6.2-6c0-3.3-2.8-6-6.2-6s-6.2,2.7-6.2,6C17.8,10.6,20.6,13.2,24,13.2z M21.4,8.4
		L23.1,7V3.3c0-0.5,0.4-0.9,0.9-0.9s0.9,0.4,0.9,0.9v4.2c0,0.3-0.1,0.6-0.4,0.7l-2,1.6C22.4,10,22.2,10,22,10
		c-0.3,0-0.6-0.1-0.7-0.4C20.9,9.3,21,8.7,21.4,8.4z"/>
	<path fill="#E8B944" d="M23.4,22.9c0.3-1.8-0.2-3.6-1.5-5.1c-1.3-1.5-3.2-2.5-5.1-2.5h-2.6c-1.9,0-3.8,0.9-5.1,2.5
		c-1.2,1.5-1.8,3.3-1.5,5.1c0.1,0.5,0.2,1.2,0.5,1.9l0.9,2.8c0.6,1.9,1.3,3.9,1.9,5.3H9.7c-0.8,0-1.4,0.6-1.4,1.4v11.1
		c0,0.8,0.6,1.4,1.4,1.4c0.8,0,1.4-0.6,1.4-1.4v-9.6h8.6v9.6c0,0.8,0.6,1.4,1.4,1.4c0.8,0,1.4-0.6,1.4-1.4V34.3
		c0-0.8-0.6-1.4-1.4-1.4h-0.9c0.5-1.4,1.2-3.3,1.9-5.3l0.9-2.8C23.1,24,23.3,23.4,23.4,22.9z"/>
	<path fill="#E77528" d="M1.9,24.8c-0.8,0-1.4,0.6-1.4,1.4c0,0.8,0.6,1.4,1.4,1.4h0.8v17.1c0,0.8,0.6,1.4,1.4,1.4
		c0.8,0,1.4-0.6,1.4-1.4V27.6h3.2l-0.9-2.8H1.9z"/>
	<path fill="#E8B944" d="M40.6,22.9c0.3-1.8-0.2-3.6-1.5-5.1c-1.3-1.5-3.2-2.5-5.1-2.5h-2.6c-1.9,0-3.8,0.9-5.1,2.5
		c-1.2,1.5-1.8,3.3-1.5,5.1c0.1,0.5,0.2,1.2,0.5,1.9l0.9,2.8c0.6,1.9,1.3,3.9,1.9,5.3h-0.9c-0.8,0-1.4,0.6-1.4,1.4v11.1
		c0,0.8,0.6,1.4,1.4,1.4c0.8,0,1.4-0.6,1.4-1.4v-9.6h8.6v9.6c0,0.8,0.6,1.4,1.4,1.4c0.8,0,1.4-0.6,1.4-1.4V34.3
		c0-0.8-0.6-1.4-1.4-1.4h-0.9c0.5-1.4,1.2-3.3,1.9-5.3l0.9-2.8C40.3,24,40.5,23.4,40.6,22.9z"/>
	<path fill="#E77528" d="M46.1,24.8h-6l-0.9,2.8h3.2v17.1c0,0.8,0.6,1.4,1.4,1.4c0.8,0,1.4-0.6,1.4-1.4V27.6h0.8
		c0.8,0,1.4-0.6,1.4-1.4C47.5,25.4,46.9,24.8,46.1,24.8z"/>
	<polygon fill="#E77528" points="22.9,24.8 22,27.6 26,27.6 25.1,24.8 	"/>
</g>
</svg>
