<?xml version="1.0" encoding="utf-8"?>
<!-- Generator: Adobe Illustrator 18.0.0, SVG Export Plug-In . SVG Version: 6.00 Build 0)  -->
<!DOCTYPE svg PUBLIC "-//W3C//DTD SVG 1.1//EN" "http://www.w3.org/Graphics/SVG/1.1/DTD/svg11.dtd">
<svg version="1.1" id="Layer_1" xmlns="http://www.w3.org/2000/svg" xmlns:xlink="http://www.w3.org/1999/xlink" x="0px" y="0px"
	 viewBox="0 0 48 48" enable-background="new 0 0 48 48" xml:space="preserve">
<g>
	<path fill="#294E58" d="M2,8.8c0.8,0,1.4-0.6,1.4-1.4V5.8C3.4,5,2.8,4.4,2,4.4C1.2,4.4,0.6,5,0.6,5.8v1.6C0.6,8.1,1.2,8.8,2,8.8z"
		/>
	<path fill="#294E58" d="M46,10c-0.8,0-1.4,0.6-1.4,1.4v2.2H3.4v-2.2C3.4,10.6,2.8,10,2,10c-0.8,0-1.4,0.6-1.4,1.4v30.8
		c0,0.8,0.6,1.4,1.4,1.4c0.8,0,1.4-0.6,1.4-1.4v-3.1h41.1v3.1c0,0.8,0.6,1.4,1.4,1.4c0.8,0,1.4-0.6,1.4-1.4V11.4
		C47.4,10.6,46.8,10,46,10z M15.7,16.4h3.6v19.9h-3.6V16.4z M12.9,36.3H9.3V16.4h3.6V36.3z M22.2,16.4h3.6v19.9h-3.6V16.4z
		 M28.6,16.4h3.6v19.9h-3.6V16.4z M35.1,16.4h3.6v19.9h-3.6V16.4z M3.4,16.4h3v19.9h-3V16.4z M41.6,36.3V16.4h3v19.9H41.6z"/>
	<path fill="#294E58" d="M46,4.4c-0.8,0-1.4,0.6-1.4,1.4v1.6c0,0.8,0.6,1.4,1.4,1.4c0.8,0,1.4-0.6,1.4-1.4V5.8
		C47.4,5,46.8,4.4,46,4.4z"/>
</g>
</svg>
