<?xml version="1.0" encoding="utf-8"?>
<!-- Generator: Adobe Illustrator 18.0.0, SVG Export Plug-In . SVG Version: 6.00 Build 0)  -->
<!DOCTYPE svg PUBLIC "-//W3C//DTD SVG 1.1//EN" "http://www.w3.org/Graphics/SVG/1.1/DTD/svg11.dtd">
<svg version="1.1" id="Layer_1" xmlns="http://www.w3.org/2000/svg" xmlns:xlink="http://www.w3.org/1999/xlink" x="0px" y="0px"
	 viewBox="0 0 48 48" enable-background="new 0 0 48 48" xml:space="preserve">
<g>
	<path fill="#F04B36" d="M47.2,37.8c0,0-1.9-2.8-0.6-5.7c1.7-3.8-0.2-6.5-1.4-7.4c-0.2-0.2-0.5-0.3-0.8-0.3H27h-2.6H7.1
		c-0.3,0-0.6,0.1-0.8,0.3C5,25.5,3.1,28.2,4.8,32c1.3,2.9-0.5,5.6-0.6,5.8c-0.4,0.6-0.3,1.5,0.4,2C4.8,39.9,5.1,40,5.4,40
		c0.5,0,0.9-0.2,1.2-0.6c0.1-0.2,2.8-4.1,0.8-8.6c-0.9-1.9-0.2-3.1,0.2-3.6h16.8H27h16.8c0.4,0.5,1.1,1.7,0.2,3.6
		c-2,4.4,0.7,8.4,0.8,8.6c0.3,0.4,0.7,0.6,1.2,0.6c0.3,0,0.6-0.1,0.8-0.3C47.5,39.3,47.6,38.4,47.2,37.8z"/>
	<path fill="#4DA0D8" d="M7.1,23.1h37.5c0.2,0,0.5-0.1,0.7-0.3c1.4-1.3,2.3-3.8,1.4-5.9c-0.4-1.1-1.8-3-5.5-3
		c-2.8,0-7.7-1.4-12.4-2.8C23.5,9.6,18,8,14.5,8C7.5,8,3.3,11.4,3.1,11.5c-0.1,0.1-0.2,0.2-0.3,0.3c-0.5-0.3-0.9-0.5-1-0.5
		c-0.5-0.2-1,0.1-1.2,0.6c-0.2,0.5,0.1,1,0.6,1.2c0.2,0.1,4.2,1.6,4.9,9C6.2,22.7,6.6,23.1,7.1,23.1z"/>
</g>
</svg>
