<?xml version="1.0" encoding="utf-8"?>
<!-- Generator: Adobe Illustrator 18.0.0, SVG Export Plug-In . SVG Version: 6.00 Build 0)  -->
<!DOCTYPE svg PUBLIC "-//W3C//DTD SVG 1.1//EN" "http://www.w3.org/Graphics/SVG/1.1/DTD/svg11.dtd">
<svg version="1.1" id="Layer_1" xmlns="http://www.w3.org/2000/svg" xmlns:xlink="http://www.w3.org/1999/xlink" x="0px" y="0px"
	 viewBox="0 0 48 48" enable-background="new 0 0 48 48" xml:space="preserve">
<g>
	<path fill="#294E58" d="M36.9,46.1L32.3,3.2h1.5c0.8,0,1.4-0.6,1.4-1.4c0-0.8-0.6-1.4-1.4-1.4H14.2c-0.8,0-1.4,0.6-1.4,1.4
		c0,0.8,0.6,1.4,1.4,1.4h1.5l-4.6,42.9c-0.1,0.8,0.5,1.5,1.3,1.6c0.1,0,0.1,0,0.2,0c0.7,0,1.3-0.5,1.4-1.3l1-9.3h18l1,9.3
		c0.1,0.7,0.7,1.3,1.4,1.3c0.1,0,0.1,0,0.2,0C36.4,47.6,37,46.9,36.9,46.1z M15.3,34.2l3.3-31.1h10.8l3.3,31.1H15.3z"/>
</g>
</svg>
