<?xml version="1.0" encoding="utf-8"?>
<!-- Generator: Adobe Illustrator 18.0.0, SVG Export Plug-In . SVG Version: 6.00 Build 0)  -->
<!DOCTYPE svg PUBLIC "-//W3C//DTD SVG 1.1//EN" "http://www.w3.org/Graphics/SVG/1.1/DTD/svg11.dtd">
<svg version="1.1" id="Layer_1" xmlns="http://www.w3.org/2000/svg" xmlns:xlink="http://www.w3.org/1999/xlink" x="0px" y="0px"
	 viewBox="0 0 48 48" enable-background="new 0 0 48 48" xml:space="preserve">
<g>
	<path fill="#FFD69A" d="M13,0.8H1.7c-0.5,0-0.8,0.4-0.8,1V11c0,0.5,0.4,1,0.8,1H13c0.5,0,0.8-0.4,0.8-1V1.8
		C13.8,1.3,13.4,0.8,13,0.8z"/>
	<path fill="#FFD69A" d="M46.3,0.8H35c-0.5,0-0.8,0.4-0.8,1V11c0,0.5,0.4,1,0.8,1h11.3c0.5,0,0.8-0.4,0.8-1V1.8
		C47.2,1.3,46.8,0.8,46.3,0.8z"/>
	<path fill="#E77528" d="M31.8,0.8H16.2c-0.5,0-0.8,0.4-0.8,1V11c0,0.5,0.4,1,0.8,1h15.5c0.5,0,0.8-0.4,0.8-1V1.8
		C32.6,1.3,32.2,0.8,31.8,0.8z"/>
	<path fill="#E77528" d="M13,24.7H1.7c-0.5,0-0.8,0.4-0.8,1v20.5c0,0.5,0.4,1,0.8,1H13c0.5,0,0.8-0.4,0.8-1V25.7
		C13.8,25.2,13.4,24.7,13,24.7z"/>
	<path fill="#E77528" d="M46.3,24.7H35c-0.5,0-0.8,0.4-0.8,1v20.5c0,0.5,0.4,1,0.8,1h11.3c0.5,0,0.8-0.4,0.8-1V25.7
		C47.2,25.2,46.8,24.7,46.3,24.7z"/>
	<path fill="#06728D" d="M31.8,24.7H16.2c-0.5,0-0.8,0.4-0.8,1v5h17.2v-5C32.6,25.2,32.2,24.7,31.8,24.7z"/>
	<path fill="#06728D" d="M15.4,46.2c0,0.5,0.4,1,0.8,1h15.5c0.5,0,0.8-0.4,0.8-1V32.6H15.4V46.2z M20.8,36.4h5.9v5h-5.9V36.4z"/>
</g>
</svg>
