<?xml version="1.0" encoding="utf-8"?>
<!-- Generator: Adobe Illustrator 18.0.0, SVG Export Plug-In . SVG Version: 6.00 Build 0)  -->
<!DOCTYPE svg PUBLIC "-//W3C//DTD SVG 1.1//EN" "http://www.w3.org/Graphics/SVG/1.1/DTD/svg11.dtd">
<svg version="1.1" id="Layer_1" xmlns="http://www.w3.org/2000/svg" xmlns:xlink="http://www.w3.org/1999/xlink" x="0px" y="0px"
	 viewBox="0 0 48 48" enable-background="new 0 0 48 48" xml:space="preserve">
<g>
	<path fill="#06728D" d="M43,5.7H5c-2.5,0-4.6,1.6-4.6,3.7c0,2,2,3.7,4.6,3.7h3.3c0,0,0,0,0,0.1l13.6,13.3L8.4,39.8
		c-0.6,0.6-0.6,1.5,0,2.1c0.3,0.3,0.7,0.4,1,0.4c0.4,0,0.7-0.1,1-0.4L24,28.5l13.6,13.4c0.3,0.3,0.7,0.4,1,0.4c0.4,0,0.8-0.1,1-0.4
		c0.6-0.6,0.6-1.5,0-2.1L26.1,26.4l13.6-13.3c0,0,0,0,0-0.1H43c2.5,0,4.5-1.6,4.5-3.7C47.5,7.4,45.5,5.7,43,5.7z M24,24.4L12.4,13
		h23.1L24,24.4z"/>
</g>
</svg>
