<?xml version="1.0" encoding="utf-8"?>
<!-- Generator: Adobe Illustrator 18.0.0, SVG Export Plug-In . SVG Version: 6.00 Build 0)  -->
<!DOCTYPE svg PUBLIC "-//W3C//DTD SVG 1.1//EN" "http://www.w3.org/Graphics/SVG/1.1/DTD/svg11.dtd">
<svg version="1.1" id="Layer_1" xmlns="http://www.w3.org/2000/svg" xmlns:xlink="http://www.w3.org/1999/xlink" x="0px" y="0px"
	 viewBox="0 0 48 48" enable-background="new 0 0 48 48" xml:space="preserve">
<g>
	<path fill="#4DA0D8" d="M37,25.3H11c-0.8,0-1.4,0.6-1.4,1.4c0,0.8,0.6,1.4,1.4,1.4h0.4v18.2c0,0.8,0.6,1.4,1.4,1.4
		c0.8,0,1.4-0.6,1.4-1.4V35.5h19.7v10.8c0,0.8,0.6,1.4,1.4,1.4c0.8,0,1.4-0.6,1.4-1.4V28.1H37c0.8,0,1.4-0.6,1.4-1.4
		C38.3,25.9,37.7,25.3,37,25.3z M25,32.1h-2c-0.5,0-0.9-0.4-0.9-0.9c0-0.5,0.4-0.9,0.9-0.9h2c0.5,0,0.9,0.4,0.9,0.9
		C25.9,31.7,25.5,32.1,25,32.1z"/>
	<path fill="#F7A93B" d="M22.6,24.1h2.9c5,0,9.1-4.1,9.1-9.1V9.5c0-5-4.1-9.1-9.1-9.1h-2.9c-5,0-9.1,4.1-9.1,9.1V15
		C13.5,20,17.6,24.1,22.6,24.1z M28.4,10.6c0.4,0.3,0.5,0.9,0.1,1.3l-4.5,5.7c-0.2,0.2-0.4,0.3-0.7,0.3c-0.2,0-0.4-0.1-0.6-0.2
		c-0.4-0.3-0.5-0.9-0.1-1.3l4.5-5.7C27.5,10.3,28,10.3,28.4,10.6z M19.3,11.7L23.8,6c0.3-0.4,0.9-0.5,1.3-0.1
		c0.4,0.3,0.5,0.9,0.1,1.3l-4.5,5.7c-0.2,0.2-0.4,0.3-0.7,0.3c-0.2,0-0.4-0.1-0.6-0.2C19.1,12.6,19,12.1,19.3,11.7z"/>
</g>
</svg>
