<?xml version="1.0" encoding="utf-8"?>
<!-- Generator: Adobe Illustrator 18.0.0, SVG Export Plug-In . SVG Version: 6.00 Build 0)  -->
<!DOCTYPE svg PUBLIC "-//W3C//DTD SVG 1.1//EN" "http://www.w3.org/Graphics/SVG/1.1/DTD/svg11.dtd">
<svg version="1.1" id="Layer_1" xmlns="http://www.w3.org/2000/svg" xmlns:xlink="http://www.w3.org/1999/xlink" x="0px" y="0px"
	 viewBox="0 0 48 48" enable-background="new 0 0 48 48" xml:space="preserve">
<g>
	<path fill="#E77528" d="M1.4,20.5v12.6c0,0.3,0.1,0.6,0.4,0.7l7.9,6.5c0.2,0.1,0.4,0.2,0.6,0.2c0.1,0,0.3,0,0.4-0.1
		c0.3-0.2,0.6-0.5,0.6-0.9V26.1c-0.5,0-1-0.2-1.5-0.4L1.4,20.5z"/>
	<path fill="#E77528" d="M28.8,26.2c0,0.3,0.2,0.7,0.5,0.8l16.2,9.4c0.2,0.1,0.3,0.1,0.5,0.1c0.2,0,0.3,0,0.5-0.1
		c0.3-0.2,0.5-0.5,0.5-0.8V20l-18.1,3.1V26.2z"/>
	<path fill="#F7A93B" d="M46.9,16.3L27.5,7.5c-0.2-0.1-0.4-0.1-0.5-0.1L16.3,9.1c-0.4,0.1-0.8,0.4-0.8,0.9c0,0.5,0.2,0.9,0.7,1
		c2.4,0.7,4.8,1.9,5.2,2.5c-0.3,0.3-1.7,1-7.6,1.5L1.4,16.2c-0.4,0-0.8,0.3-0.8,0.8c-0.1,0.4,0.1,0.8,0.4,1l9.8,6
		c0.2,0.1,0.3,0.1,0.5,0.1c0.1,0,0.1,0,0.2,0l35.2-6c0.4-0.1,0.7-0.4,0.8-0.8C47.6,16.9,47.3,16.5,46.9,16.3z"/>
</g>
</svg>
