<?xml version="1.0" encoding="utf-8"?>
<!-- Generator: Adobe Illustrator 18.0.0, SVG Export Plug-In . SVG Version: 6.00 Build 0)  -->
<!DOCTYPE svg PUBLIC "-//W3C//DTD SVG 1.1//EN" "http://www.w3.org/Graphics/SVG/1.1/DTD/svg11.dtd">
<svg version="1.1" id="Layer_1" xmlns="http://www.w3.org/2000/svg" xmlns:xlink="http://www.w3.org/1999/xlink" x="0px" y="0px"
	 viewBox="0 0 48 48" enable-background="new 0 0 48 48" xml:space="preserve">
<g>
	<path fill="#0DB89A" d="M24,9.5c-6.2,0-11.3,5.8-11.3,13V42v4.7v0.8h22.6v-0.8V42V22.5C35.3,15.3,30.2,9.5,24,9.5z M19.6,28h-2.5
		v1.8c0,0.5-0.4,1-1,1c-0.5,0-1-0.4-1-1V27c0-0.5,0.4-1,1-1h3.5c0.5,0,1,0.4,1,1S20.1,28,19.6,28z"/>
	<path fill="#294E58" d="M41.7,0.4H6.3c-0.5,0-1,0.4-1,1v45.2c0,0.5,0.4,1,1,1h4.5v-25c0-8.2,5.9-14.9,13.2-14.9
		c7.3,0,13.2,6.7,13.2,14.9v25h4.5c0.5,0,1-0.4,1-1V1.4C42.7,0.9,42.3,0.4,41.7,0.4z"/>
</g>
</svg>
