<?xml version="1.0" encoding="utf-8"?>
<!-- Generator: Adobe Illustrator 18.0.0, SVG Export Plug-In . SVG Version: 6.00 Build 0)  -->
<!DOCTYPE svg PUBLIC "-//W3C//DTD SVG 1.1//EN" "http://www.w3.org/Graphics/SVG/1.1/DTD/svg11.dtd">
<svg version="1.1" id="Layer_1" xmlns="http://www.w3.org/2000/svg" xmlns:xlink="http://www.w3.org/1999/xlink" x="0px" y="0px"
	 viewBox="0 0 48 48" enable-background="new 0 0 48 48" xml:space="preserve">
<g>
	<path fill="#CFD0D1" d="M46.8,1c-0.2-0.2-0.5-0.2-0.8-0.1L40,3.5c-0.3,0.1-0.5,0.5-0.5,0.9v38.3c0,0.4,0.2,0.7,0.5,0.9l6.1,3.6
		c0.1,0.1,0.2,0.1,0.4,0.1c0.2,0,0.3,0,0.4-0.1c0.2-0.2,0.4-0.5,0.4-0.8V1.8C47.2,1.4,47.1,1.1,46.8,1z"/>
	<path fill="#CFD0D1" d="M8,3.5L1.9,0.9C1.7,0.7,1.4,0.8,1.2,1C0.9,1.1,0.8,1.4,0.8,1.8v44.5c0,0.3,0.2,0.6,0.4,0.8
		c0.1,0.1,0.3,0.1,0.4,0.1c0.1,0,0.3,0,0.4-0.1l6.1-3.6c0.3-0.2,0.5-0.5,0.5-0.9V4.4C8.6,4,8.4,3.7,8,3.5z"/>
	<rect x="24.8" y="24.5" fill="#E77528" width="13.2" height="7.7"/>
	<rect x="24.8" y="14.9" fill="#06728D" width="13.2" height="7.7"/>
	<rect x="24.8" y="3.5" fill="#E77528" width="13.2" height="9.5"/>
	<path fill="#06728D" d="M24.8,43.6h7.9v1.8c0,0.5,0.4,1,0.8,1c0.5,0,0.8-0.4,0.8-1v-1.8h3.7v-9.5H24.8V43.6z"/>
	<path fill="#F7A93B" d="M9.9,43.6h3.7v1.8c0,0.5,0.4,1,0.8,1c0.5,0,0.8-0.4,0.8-1v-1.8h7.9V10.2H9.9V43.6z"/>
	<rect x="9.9" y="3.5" fill="#0DB89A" width="13.2" height="4.8"/>
</g>
</svg>
