<?xml version="1.0" encoding="utf-8"?>
<!-- Generator: Adobe Illustrator 18.0.0, SVG Export Plug-In . SVG Version: 6.00 Build 0)  -->
<!DOCTYPE svg PUBLIC "-//W3C//DTD SVG 1.1//EN" "http://www.w3.org/Graphics/SVG/1.1/DTD/svg11.dtd">
<svg version="1.1" id="Layer_1" xmlns="http://www.w3.org/2000/svg" xmlns:xlink="http://www.w3.org/1999/xlink" x="0px" y="0px"
	 viewBox="0 0 48 48" enable-background="new 0 0 48 48" xml:space="preserve">
<g>
	<polygon fill="#0DB89A" points="0.4,23 19.7,23 18.9,21.6 27.2,16.4 28.2,18 20.3,23 28.1,23 26.9,22.2 32.5,14.7 34.1,15.9 
		28.7,23 33.6,23 32.5,22.2 38.1,14.7 39.6,15.9 34.3,23 39.2,23 38.1,22.2 43.7,14.7 45.2,15.9 39.9,23 47.6,23 47.6,14.1 
		0.4,14.1 	"/>
	<path fill="#06728D" d="M6.3,12.1L3.7,5.4l1.8-0.7l2.7,7.1l-1,0.4h3.9L8.6,5.4l1.8-0.7l2.7,7.1l-1,0.4H16l-2.6-6.7l1.8-0.7l2.7,7.1
		l-1,0.4h30.6V1.4c0-0.5-0.4-1-1-1H1.4c-0.5,0-1,0.4-1,1v10.7H6.3z M21,9.5h6.7v1.9H21V9.5z"/>
	<path fill="#E77528" d="M23,25H0.4v21.7c0,0.5,0.4,1,1,1H23V25z M17.9,39.4c-0.5,0-1-0.4-1-1V33c0-0.5,0.4-1,1-1c0.5,0,1,0.4,1,1
		v5.4C18.8,39,18.4,39.4,17.9,39.4z"/>
	<path fill="#E77528" d="M25,25v22.6h21.7c0.5,0,1-0.4,1-1V25H25z M31.3,38.4c0,0.5-0.4,1-1,1c-0.5,0-1-0.4-1-1V33c0-0.5,0.4-1,1-1
		c0.5,0,1,0.4,1,1V38.4z"/>
</g>
</svg>
