<?xml version="1.0" encoding="utf-8"?>
<!-- Generator: Adobe Illustrator 18.0.0, SVG Export Plug-In . SVG Version: 6.00 Build 0)  -->
<!DOCTYPE svg PUBLIC "-//W3C//DTD SVG 1.1//EN" "http://www.w3.org/Graphics/SVG/1.1/DTD/svg11.dtd">
<svg version="1.1" id="Layer_1" xmlns="http://www.w3.org/2000/svg" xmlns:xlink="http://www.w3.org/1999/xlink" x="0px" y="0px"
	 viewBox="0 0 48 48" enable-background="new 0 0 48 48" xml:space="preserve">
<g>
	<path fill="#0DB89A" d="M40.8,7.3H37c-2.3-4.2-7.4-7-13.1-7s-10.8,2.8-13.1,7H7.2C6.4,7.3,5.7,8,5.7,8.8v20H23H25h17.3v-20
		C42.3,8,41.6,7.3,40.8,7.3z M13.8,20.5c-0.2,0-0.5-0.1-0.7-0.3c-0.4-0.4-0.4-1,0-1.3l8.2-8.4c0.4-0.4,1-0.4,1.3,0
		c0.4,0.4,0.4,1,0,1.3l-8.2,8.4C14.2,20.4,14,20.5,13.8,20.5z M28.8,18l-8.2,8.4c-0.2,0.2-0.4,0.3-0.7,0.3c-0.2,0-0.5-0.1-0.7-0.3
		c-0.4-0.4-0.4-1,0-1.3l8.2-8.4c0.4-0.4,1-0.4,1.3,0C29.2,17,29.2,17.6,28.8,18z M28.8,11.3l-8.2,8.4c-0.2,0.2-0.4,0.3-0.7,0.3
		c-0.2,0-0.5-0.1-0.7-0.3c-0.4-0.4-0.4-1,0-1.3l8.2-8.4c0.4-0.4,1-0.4,1.3,0C29.2,10.4,29.2,11,28.8,11.3z"/>
	<path fill="#06728D" d="M25,39.9h14.4v6.2c0,0.8,0.6,1.4,1.4,1.4c0.8,0,1.4-0.6,1.4-1.4V30.7H25V39.9z"/>
	<path fill="#06728D" d="M5.7,46.2c0,0.8,0.6,1.4,1.4,1.4c0.8,0,1.4-0.6,1.4-1.4v-6.2H23v-9.3H5.7V46.2z"/>
</g>
</svg>
