<?xml version="1.0" encoding="utf-8"?>
<!-- Generator: Adobe Illustrator 18.0.0, SVG Export Plug-In . SVG Version: 6.00 Build 0)  -->
<!DOCTYPE svg PUBLIC "-//W3C//DTD SVG 1.1//EN" "http://www.w3.org/Graphics/SVG/1.1/DTD/svg11.dtd">
<svg version="1.1" id="Layer_1" xmlns="http://www.w3.org/2000/svg" xmlns:xlink="http://www.w3.org/1999/xlink" x="0px" y="0px"
	 viewBox="0 0 48 48" enable-background="new 0 0 48 48" xml:space="preserve">
<g>
	<path fill="#E77528" d="M47.2,38.4c-0.5-0.6-1.3-0.8-2-0.3c-2.4,1.7-4.7,2.9-7,3.9l-3.1-13.9h3.4c0.8,0,1.4-0.6,1.4-1.4
		c0-0.8-0.6-1.4-1.4-1.4H16.5L4.7,1.3c-0.3-0.7-1.2-1-1.9-0.6C2.1,1,1.8,1.9,2.1,2.6l12,24.3l-3.4,15.2c-4.7-1.8-7.7-3.8-8-4
		c-0.6-0.4-1.5-0.3-2,0.4c-0.4,0.6-0.3,1.5,0.4,2c0.2,0.1,10.4,7.1,23.9,7.1c6.8,0,14.4-1.8,21.9-7.1C47.6,40,47.7,39.1,47.2,38.4z
		 M13.5,43l3.3-14.9h15.4L35.5,43C27.2,45.8,19.4,44.8,13.5,43z"/>
</g>
</svg>
