<?xml version="1.0" encoding="utf-8"?>
<!-- Generator: Adobe Illustrator 18.0.0, SVG Export Plug-In . SVG Version: 6.00 Build 0)  -->
<!DOCTYPE svg PUBLIC "-//W3C//DTD SVG 1.1//EN" "http://www.w3.org/Graphics/SVG/1.1/DTD/svg11.dtd">
<svg version="1.1" id="Layer_1" xmlns="http://www.w3.org/2000/svg" xmlns:xlink="http://www.w3.org/1999/xlink" x="0px" y="0px"
	 viewBox="0 0 48 48" enable-background="new 0 0 48 48" xml:space="preserve">
<g>
	<path fill="#06728D" d="M46.1,0.8h-8.8c-0.1,0-0.2,0-0.3,0c-0.4-0.1-0.8,0-1.1,0.3L4.7,24.7c-0.3,0.1-0.6,0.3-0.7,0.6l-2.9,2.2
		c-0.6,0.5-0.7,1.4-0.3,2C1.1,29.8,1.5,30,1.9,30c0.3,0,0.6-0.1,0.9-0.3L3.7,29v10.6H2.9C2.4,39.6,2,40,2,40.5v5.8
		c0,0.5,0.4,0.9,0.9,0.9h40.5c0.5,0,0.9-0.4,0.9-0.9V17.4c0-0.5-0.4-0.9-0.9-0.9h-4.8V3.6h7.4c0.8,0,1.4-0.6,1.4-1.4
		C47.5,1.4,46.8,0.8,46.1,0.8z M18.8,28c-0.5,0-0.9,0.4-0.9,0.9v4.8h-3.3V20.7l5.2-3.9V28H18.8z M27,22.2c-0.5,0-0.9,0.4-0.9,0.9V28
		h-3.5V14.6l5.2-3.9v11.5H27z M6.6,26.8l5.2-3.9v10.9h-1.2c-0.5,0-0.9,0.4-0.9,0.9v4.8H6.6V26.8z M35.2,16.4c-0.5,0-0.9,0.4-0.9,0.9
		v4.8h-3.7V8.6l5.2-3.9v11.8H35.2z"/>
</g>
</svg>
