<?xml version="1.0" encoding="utf-8"?>
<!-- Generator: Adobe Illustrator 18.0.0, SVG Export Plug-In . SVG Version: 6.00 Build 0)  -->
<!DOCTYPE svg PUBLIC "-//W3C//DTD SVG 1.1//EN" "http://www.w3.org/Graphics/SVG/1.1/DTD/svg11.dtd">
<svg version="1.1" id="Layer_1" xmlns="http://www.w3.org/2000/svg" xmlns:xlink="http://www.w3.org/1999/xlink" x="0px" y="0px"
	 viewBox="0 0 48 48" enable-background="new 0 0 48 48" xml:space="preserve">
<g>
	<path fill="#F7A93B" d="M38.3,4.7c-0.2-0.2-0.5-0.4-0.7-0.6c-0.2-0.1-0.3-0.2-0.5-0.3c-0.3-0.2-0.6-0.4-0.8-0.6
		C36.2,3.2,36.1,3.1,36,3c-0.3-0.2-0.7-0.4-1-0.6c0,0-0.1,0-0.1-0.1c-2.2-1.1-4.6-1.8-7.1-1.9v17.6L38.5,4.9
		C38.5,4.8,38.4,4.8,38.3,4.7z"/>
	<path fill="#06728D" d="M44.9,19.8c0-0.3,0-0.6,0-0.9c0-0.6,0-1.2-0.1-1.8c0-0.4-0.1-0.8-0.2-1.2c0-0.2-0.1-0.4-0.1-0.6
		c-0.1-0.5-0.2-1-0.4-1.4c0-0.1,0-0.2-0.1-0.2c-0.2-0.5-0.3-1-0.5-1.5c0,0,0-0.1,0-0.1c-0.2-0.5-0.4-1-0.7-1.4c0,0,0-0.1-0.1-0.1
		c-0.2-0.5-0.5-0.9-0.8-1.3c0-0.1-0.1-0.1-0.1-0.2c-0.3-0.4-0.5-0.8-0.8-1.2c-0.1-0.1-0.1-0.2-0.2-0.3c-0.3-0.4-0.6-0.7-0.9-1
		c0,0-0.1-0.1-0.1-0.1L28.9,19.9L44.9,19.8z"/>
	<path fill="#F04B36" d="M44.3,21.6H10.4L5.5,10.1c-0.3-0.7-1.1-1-1.8-0.7c-0.7,0.3-1,1.1-0.7,1.8l5,11.6
		c0.2,6.4,5.9,11.5,12.8,11.5h11.7c7.1,0,12.8-5.3,12.8-11.9C45.2,22,44.8,21.6,44.3,21.6z"/>
	<path fill="#4DA0D8" d="M18.9,36.2c-3.1,0-5.7,2.5-5.7,5.7c0,3.1,2.5,5.7,5.7,5.7c3.1,0,5.7-2.5,5.7-5.7
		C24.5,38.7,22,36.2,18.9,36.2z"/>
	<path fill="#4DA0D8" d="M33.1,36.2c-3.1,0-5.7,2.5-5.7,5.7c0,3.1,2.5,5.7,5.7,5.7c3.1,0,5.7-2.5,5.7-5.7
		C38.7,38.7,36.2,36.2,33.1,36.2z"/>
</g>
</svg>
