<?xml version="1.0" encoding="utf-8"?>
<!-- Generator: Adobe Illustrator 18.0.0, SVG Export Plug-In . SVG Version: 6.00 Build 0)  -->
<!DOCTYPE svg PUBLIC "-//W3C//DTD SVG 1.1//EN" "http://www.w3.org/Graphics/SVG/1.1/DTD/svg11.dtd">
<svg version="1.1" id="Layer_1" xmlns="http://www.w3.org/2000/svg" xmlns:xlink="http://www.w3.org/1999/xlink" x="0px" y="0px"
	 viewBox="0 0 48 48" enable-background="new 0 0 48 48" xml:space="preserve">
<g>
	<path fill="#E77528" d="M40.5,45.5l-4.9-14.3c0-0.1-0.1-0.2-0.1-0.2l1.9-6.6h1.2c0.8,0,1.4-0.6,1.4-1.4c0-0.8-0.6-1.4-1.4-1.4H14.6
		L10.2,1.7C10,1,9.3,0.5,8.5,0.7C7.7,0.8,7.2,1.6,7.4,2.4l4.3,19.3h-0.6c-0.8,0-1.4,0.6-1.4,1.4c0,0.8,0.6,1.4,1.4,1.4h1.2l1.6,7
		L9.4,44.6c-0.3,0.7,0.1,1.5,0.9,1.8c0.2,0.1,0.3,0.1,0.5,0.1c0.6,0,1.1-0.4,1.3-1l4.3-12.9h16.7l4.7,13.8c0.2,0.6,0.8,1,1.3,1
		c0.2,0,0.3,0,0.5-0.1C40.4,47,40.8,46.2,40.5,45.5z M34.5,24.5L33,29.8H16.4l-1.2-5.3H34.5z"/>
</g>
</svg>
