<?xml version="1.0" encoding="utf-8"?>
<!-- Generator: Adobe Illustrator 18.0.0, SVG Export Plug-In . SVG Version: 6.00 Build 0)  -->
<!DOCTYPE svg PUBLIC "-//W3C//DTD SVG 1.1//EN" "http://www.w3.org/Graphics/SVG/1.1/DTD/svg11.dtd">
<svg version="1.1" id="Layer_1" xmlns="http://www.w3.org/2000/svg" xmlns:xlink="http://www.w3.org/1999/xlink" x="0px" y="0px"
	 viewBox="0 0 48 48" enable-background="new 0 0 48 48" xml:space="preserve">
<g>
	<path fill="#CFD0D1" d="M8,15.5L3.8,4.4l1.8-0.7L10,15.4l-0.5,0.2h4.1L9.5,4.4l1.8-0.7l4.3,11.6l-0.5,0.2h4.1L15.2,4.4L17,3.8
		l4.3,11.6l-0.5,0.2h26.5v-14c0-0.5-0.4-1-1-1H1.6c-0.5,0-1,0.4-1,1v14H8z M24,11.1h9.9v1.9H24V11.1z"/>
	<path fill="#06728D" d="M0.6,32.5v13.9c0,0.5,0.4,1,1,1h44.9c0.5,0,1-0.4,1-1V32.5H0.6z"/>
	<path fill="#294E58" d="M47.4,30.4V17.6H0.6v12.8h21.3l4.3-11.4l1.8,0.7l-4,10.7h3.6l4.3-11.4l1.8,0.7l-4,10.7h3.6l4.3-11.4
		l1.8,0.7l-4,10.7h3.6L43,19.1l1.8,0.7l-4,10.7H47.4z M12.4,30.1l-1.1-1.6l10.2-7l1.1,1.6L12.4,30.1z"/>
</g>
</svg>
