<?xml version="1.0" encoding="utf-8"?>
<!-- Generator: Adobe Illustrator 18.0.0, SVG Export Plug-In . SVG Version: 6.00 Build 0)  -->
<!DOCTYPE svg PUBLIC "-//W3C//DTD SVG 1.1//EN" "http://www.w3.org/Graphics/SVG/1.1/DTD/svg11.dtd">
<svg version="1.1" id="Layer_1" xmlns="http://www.w3.org/2000/svg" xmlns:xlink="http://www.w3.org/1999/xlink" x="0px" y="0px"
	 viewBox="0 0 48 48" enable-background="new 0 0 48 48" xml:space="preserve">
<g>
	<path fill="#294E58" d="M33.5,13.4c-0.8,0-1.5-0.7-1.5-1.5v-4c0-1-0.8-1.7-1.7-1.7H17.7c-1,0-1.7,0.8-1.7,1.7v4
		c0,0.8-0.7,1.5-1.5,1.5c-0.8,0-1.5-0.7-1.5-1.5v-4c0-2.6,2.1-4.7,4.7-4.7h12.6c2.6,0,4.7,2.1,4.7,4.7v4
		C35,12.7,34.3,13.4,33.5,13.4z"/>
	<path fill="#F04B36" d="M43.3,11H4.7c-2.3,0-4.2,1.9-4.2,4.2v25.4c0,2.3,1.9,4.2,4.2,4.2h38.6c2.3,0,4.2-1.9,4.2-4.2V15.1
		C47.5,12.8,45.6,11,43.3,11z M33.5,29.3h-8.1v8h-2.9v-8h-8.1v-2.9h8.1v-8.1h2.9v8.1h8.1V29.3z"/>
</g>
</svg>
