<?xml version="1.0" encoding="utf-8"?>
<!-- Generator: Adobe Illustrator 18.0.0, SVG Export Plug-In . SVG Version: 6.00 Build 0)  -->
<!DOCTYPE svg PUBLIC "-//W3C//DTD SVG 1.1//EN" "http://www.w3.org/Graphics/SVG/1.1/DTD/svg11.dtd">
<svg version="1.1" id="Layer_1" xmlns="http://www.w3.org/2000/svg" xmlns:xlink="http://www.w3.org/1999/xlink" x="0px" y="0px"
	 viewBox="0 0 48 48" enable-background="new 0 0 48 48" xml:space="preserve">
<g>
	<path fill="#0DB89A" d="M35.9,16.5h-2.2V9.6c0-0.5-0.4-1-1-1H15.2c-0.5,0-1,0.4-1,1v6.9h-2.2c-2.5,0-4.5,1.7-4.5,3.9v26.1
		c0,0.5,0.4,1,1,1h31c0.5,0,1-0.4,1-1V20.4C40.5,18.3,38.4,16.5,35.9,16.5z M33.1,39.6c0,0.5-0.4,1-1,1H15c-0.5,0-1-0.4-1-1V27.5
		c0-0.5,0.4-1,1-1h17.2c0.5,0,1,0.4,1,1V39.6z"/>
	<path fill="#F04B36" d="M35.1,11.1H12.9c-0.8,0-1.5-0.7-1.5-1.5V2c0-0.8,0.7-1.5,1.5-1.5h22.2c0.8,0,1.5,0.7,1.5,1.5v7.7
		C36.6,10.4,35.9,11.1,35.1,11.1z M14.3,8.2h19.3V3.4H14.3V8.2z"/>
</g>
</svg>
