<?xml version="1.0" encoding="utf-8"?>
<!-- Generator: Adobe Illustrator 18.0.0, SVG Export Plug-In . SVG Version: 6.00 Build 0)  -->
<!DOCTYPE svg PUBLIC "-//W3C//DTD SVG 1.1//EN" "http://www.w3.org/Graphics/SVG/1.1/DTD/svg11.dtd">
<svg version="1.1" id="Layer_1" xmlns="http://www.w3.org/2000/svg" xmlns:xlink="http://www.w3.org/1999/xlink" x="0px" y="0px"
	 viewBox="0 0 48 48" enable-background="new 0 0 48 48" xml:space="preserve">
<g>
	<path fill="#06728D" d="M31.1,47.5c-2.4,0-4.4-0.5-6.4-1.5c-0.7-0.4-1.4-0.8-2.2-1.2c-1.7-1-3.3-1.9-5.1-2.4c-3.2-1-4.5-1.1-5-0.9
		c-0.4,0.1-0.8,0.6-1.2,1.1L11,42.8c-0.2,0.2-0.4,0.4-0.5,0.7c-0.4,0.5-0.8,1-1.3,1.5c-0.4,0.4-1,0.4-1.4,0c-0.4-0.4-0.4-1,0-1.4
		c0.4-0.4,0.7-0.8,1.1-1.3c0.2-0.2,0.4-0.5,0.6-0.7l0.2-0.2c0.6-0.7,1.2-1.4,2.2-1.7c1.2-0.3,3.1,0,6.2,0.9c1.9,0.6,3.7,1.6,5.4,2.6
		c0.7,0.4,1.4,0.8,2.1,1.1c2.1,1.1,4.2,1.4,7.1,1.2c1.7-0.1,5.1-1.6,5.7-2.9c0.2-0.5,0.3-1.1,0.1-1.4c-0.1-0.3-0.4-0.4-0.7-0.5
		c-1.2-0.3-2.3,0.2-3.5,0.7c-0.8,0.4-1.7,0.7-2.7,0.9c-2.6,0.4-5.8-0.5-7.8-2.5c-1.4-1.4-1.4-3.1-1.3-4.6c0-0.3,0-0.6,0-1
		c0-0.5,0.4-1,1-1c0.5,0,1,0.4,1,1c0,0.4,0,0.7,0,1.1c-0.1,1.5-0.1,2.4,0.7,3.1c1.6,1.5,4.2,2.3,6.1,2c0.7-0.1,1.5-0.4,2.2-0.8
		c1.3-0.6,2.9-1.2,4.7-0.8c0.9,0.2,1.6,0.7,2.1,1.5c0.5,0.9,0.5,2,0,3.1c-1,2.4-5.4,4-7.3,4.1C32.2,47.5,31.7,47.5,31.1,47.5z"/>
	<path fill="#06728D" d="M22.2,6c-0.5,0-1-0.4-1-1c0-0.6-0.1-1.2-0.1-1.8C21,2.7,21,2.1,21,1.5c0-0.5,0.4-1,1-1c0.6,0,1,0.4,1,1
		c0,0.5,0.1,1,0.1,1.6c0.1,0.6,0.2,1.3,0.2,2C23.2,5.6,22.8,6,22.2,6C22.2,6,22.2,6,22.2,6z"/>
	<path fill="#F04B36" d="M25.3,4.6h-4c-6.1,0-11,5-11,11V24c0,6.1,5,11,11,11h4c6.1,0,11-5,11-11v-8.3C36.4,9.6,31.4,4.6,25.3,4.6z
		 M25.4,29.1h-6.9v-2.9h6.9V29.1z M25.4,23.6h-6.9v-2.9h6.9V23.6z M25.4,18h-6.9v-2.9h6.9V18z M25.4,12.5h-6.9V9.6h6.9V12.5z"/>
</g>
</svg>
