<?xml version="1.0" encoding="utf-8"?>
<!-- Generator: Adobe Illustrator 18.0.0, SVG Export Plug-In . SVG Version: 6.00 Build 0)  -->
<!DOCTYPE svg PUBLIC "-//W3C//DTD SVG 1.1//EN" "http://www.w3.org/Graphics/SVG/1.1/DTD/svg11.dtd">
<svg version="1.1" id="Layer_1" xmlns="http://www.w3.org/2000/svg" xmlns:xlink="http://www.w3.org/1999/xlink" x="0px" y="0px"
	 viewBox="0 0 48 48" enable-background="new 0 0 48 48" xml:space="preserve">
<g>
	<g>
		<path fill="#F04B36" d="M34.1,13.4c-0.6,0-1-0.4-1-1V8.9c0-0.6,0.4-1,1-1c0.6,0,1,0.4,1,1v3.5C35.1,13,34.6,13.4,34.1,13.4z"/>
	</g>
	<polygon fill="none" points="20.5,18.2 17.5,18.2 17.5,21.8 13.9,21.8 13.9,24.8 17.5,24.8 17.5,28.5 20.5,28.5 20.5,24.8 
		24.1,24.8 24.1,21.8 20.5,21.8 	"/>
	<polygon fill="none" points="20.5,18.2 17.5,18.2 17.5,21.8 13.9,21.8 13.9,24.8 17.5,24.8 17.5,28.5 20.5,28.5 20.5,24.8 
		24.1,24.8 24.1,21.8 20.5,21.8 	"/>
	<path fill="#F04B36" d="M29.2,26V12H1.4c-0.5,0-1,0.4-1,1v22.3c0,0.5,0.4,1,1,1h3.4c0-0.2,0-0.4,0-0.6c0-3.1,2.5-5.7,5.7-5.7
		c3.1,0,5.7,2.5,5.7,5.7c0,0.2,0,0.4,0,0.6h13.9c0-0.2,0-0.4,0-0.6c0-3.1,2.5-5.7,5.7-5.7c3.1,0,5.7,2.5,5.7,5.7c0,0.2,0,0.4,0,0.6
		h5.1c0.5,0,1-0.4,1-1v-8.4H30.2C29.6,26.9,29.2,26.5,29.2,26z M23.4,24.8h-3.7v3.7h-2.9v-3.7h-3.7v-2.9h3.7v-3.7h2.9v3.7h3.7V24.8z
		"/>
	<path fill="#06728D" d="M47.6,25l-8.7-12.6C38.6,12.1,38.3,12,38,12H32v13H47.6z"/>
	<path fill="#294E58" d="M35.7,31.2c-2.4,0-4.4,2-4.4,4.4c0,0.2,0,0.3,0,0.5c0.2,2.2,2.1,4,4.4,4c2.3,0,4.2-1.7,4.4-4
		c0-0.2,0-0.3,0-0.5C40.1,33.2,38.1,31.2,35.7,31.2z"/>
	<path fill="#294E58" d="M10.4,31.2c-2.4,0-4.4,2-4.4,4.4c0,0.2,0,0.3,0,0.5c0.2,2.2,2.1,4,4.4,4c2.3,0,4.2-1.7,4.4-4
		c0-0.2,0-0.3,0-0.5C14.8,33.2,12.8,31.2,10.4,31.2z"/>
</g>
</svg>
