<?xml version="1.0" encoding="utf-8"?>
<!-- Generator: Adobe Illustrator 18.0.0, SVG Export Plug-In . SVG Version: 6.00 Build 0)  -->
<!DOCTYPE svg PUBLIC "-//W3C//DTD SVG 1.1//EN" "http://www.w3.org/Graphics/SVG/1.1/DTD/svg11.dtd">
<svg version="1.1" id="Layer_1" xmlns="http://www.w3.org/2000/svg" xmlns:xlink="http://www.w3.org/1999/xlink" x="0px" y="0px"
	 viewBox="0 0 48 48" enable-background="new 0 0 48 48" xml:space="preserve">
<g>
	<path fill="#06728D" d="M36.5,27.1l-7.4-12.7c0,0,0-0.1-0.1-0.2c-3.8,0.5-7.9,2.6-9.6,8.7L5.9,23.8c-0.4,0-0.7,0.2-0.8,0.6
		c-0.2,0.3-0.1,0.7,0.1,1L8,29.1c0.2,0.2,0.4,0.4,0.7,0.4l13.3,0.7c1,1.2,4.3,4.6,6.8,4.6h16.6c0.4,0,0.8-0.3,0.9-0.6
		c0.1-0.2,1.2-3,1.1-6.6H37.4C37,27.6,36.7,27.4,36.5,27.1z M31.2,26.1h-2.2v2.2h-2v-2.2h-2.2v-2h2.2V22h2v2.2h2.2V26.1z"/>
	<path fill="#E77528" d="M28.1,42.6c-0.1,0-0.1,0-0.2,0c-0.5-0.1-0.9-0.6-0.8-1.1l1.3-7.4c0.1-0.5,0.6-0.9,1.1-0.8
		c0.5,0.1,0.9,0.6,0.8,1.1L29,41.7C29,42.2,28.5,42.6,28.1,42.6z"/>
	<path fill="#E77528" d="M41.7,42.6c-0.5,0-0.9-0.3-1-0.8l-1.3-7.4c-0.1-0.5,0.3-1.1,0.8-1.1c0.5-0.1,1.1,0.3,1.1,0.8l1.3,7.4
		c0.1,0.5-0.3,1.1-0.8,1.1C41.8,42.6,41.8,42.6,41.7,42.6z"/>
	<path fill="#E77528" d="M44.8,44.1H25.2c-0.5,0-1-0.4-1-1c0-0.5,0.4-1,1-1h19.7c0.5,0,1,0.4,1,1C45.8,43.6,45.4,44.1,44.8,44.1z"/>
	<path fill="#E77528" d="M45.6,3.9H14.9c-0.5,0-1,0.4-1,1c0,0.5,0.4,1,1,1h14.3v6.1c0,0.5,0.4,1,1,1c0.5,0,1-0.4,1-1V5.9h14.3
		c0.5,0,1-0.4,1-1C46.5,4.4,46.1,3.9,45.6,3.9z"/>
	<polygon fill="#E77528" points="29.1,22 27.1,22 27.1,24.2 24.9,24.2 24.9,26.1 27.1,26.1 27.1,28.3 29.1,28.3 29.1,26.1 
		31.2,26.1 31.2,24.2 29.1,24.2 	"/>
	<polygon fill="#F04B36" points="29.1,22 27.1,22 27.1,24.2 24.9,24.2 24.9,26.1 27.1,26.1 27.1,28.3 29.1,28.3 29.1,26.1 
		31.2,26.1 31.2,24.2 29.1,24.2 	"/>
	<path fill="#4DA0D8" d="M47.3,25.6c-0.2-1.3-0.5-2.5-1.1-3.8c-1.6-3.2-4.5-5.5-8.6-6.7c-0.1,0-2.9-1-6.3-1c0,0-0.1,0-0.1,0L38,25.6
		H47.3z"/>
	<path fill="#CFD0D1" d="M7.5,18.4c-3.9,0-7,3.2-7,7c0,3.9,3.2,7,7,7c3.9,0,7-3.2,7-7C14.6,21.5,11.4,18.4,7.5,18.4z"/>
</g>
</svg>
