<?xml version="1.0" encoding="utf-8"?>
<!-- Generator: Adobe Illustrator 18.0.0, SVG Export Plug-In . SVG Version: 6.00 Build 0)  -->
<!DOCTYPE svg PUBLIC "-//W3C//DTD SVG 1.1//EN" "http://www.w3.org/Graphics/SVG/1.1/DTD/svg11.dtd">
<svg version="1.1" id="Layer_1" xmlns="http://www.w3.org/2000/svg" xmlns:xlink="http://www.w3.org/1999/xlink" x="0px" y="0px"
	 viewBox="0 0 48 48" enable-background="new 0 0 48 48" xml:space="preserve">
<g>
	<path fill="#F04B36" d="M30.6,26.5l-2.1-9.1l-3.9,17.5c-0.1,0.4-0.5,0.8-0.9,0.8c0,0,0,0,0,0c-0.5,0-0.8-0.3-1-0.8l-4.5-18.7
		l-3.2,11.3c-0.1,0.4-0.5,0.7-0.9,0.7H6.5c1.9,2.1,4.1,4.3,6.5,6.7c3.1,3.1,6.6,6.6,9.9,10.5l0.7,0.9l0.7-0.9c2.8-3.3,5.9-6.4,9-9.5
		c3-3.1,5.9-5.9,8.2-8.7h-10C31.1,27.2,30.7,26.9,30.6,26.5z"/>
	<path fill="#F04B36" d="M17.3,12c0.1-0.4,0.5-0.7,1-0.7c0.4,0,0.8,0.3,0.9,0.8l4.4,18.2l3.9-17.5c0.1-0.4,0.5-0.8,1-0.8
		c0,0,0,0,0,0c0.5,0,0.8,0.3,1,0.8l2.9,12.5h10.8c2.2-3,3.6-5.8,3.6-8.5c0-8.3-5.8-15-12.9-15c-4,0-7.7,2.1-10.2,5.8
		c-2.4-3.6-6.1-5.8-10.2-5.8c-7.1,0-12.9,6.7-12.9,15c0,3.1,1.7,6.2,4.3,9.5h8.5L17.3,12z"/>
	<path fill="#0DB89A" d="M1.5,26.2c-0.5,0-1,0.4-1,1c0,0.5,0.4,1,1,1h5c-0.6-0.7-1.1-1.3-1.7-2H1.5z"/>
	<path fill="#0DB89A" d="M46.5,25.3h-3.4c-0.5,0.6-1,1.3-1.5,2h5c0.5,0,1-0.4,1-1C47.5,25.7,47.1,25.3,46.5,25.3z"/>
</g>
</svg>
