<?xml version="1.0" encoding="utf-8"?>
<!-- Generator: Adobe Illustrator 18.0.0, SVG Export Plug-In . SVG Version: 6.00 Build 0)  -->
<!DOCTYPE svg PUBLIC "-//W3C//DTD SVG 1.1//EN" "http://www.w3.org/Graphics/SVG/1.1/DTD/svg11.dtd">
<svg version="1.1" id="Layer_1" xmlns="http://www.w3.org/2000/svg" xmlns:xlink="http://www.w3.org/1999/xlink" x="0px" y="0px"
	 viewBox="0 0 48 48" enable-background="new 0 0 48 48" xml:space="preserve">
<g>
	<path fill="#CFD0D1" d="M37.4,0.5H10.6c-2.4,0-4.4,2-4.4,4.4v38.3c0,2.4,2,4.4,4.4,4.4h26.9c2.4,0,4.3-2,4.3-4.4V4.9
		C41.8,2.5,39.8,0.5,37.4,0.5z M11.8,8.4l2.7-4.7c0.3-0.5,0.9-0.6,1.3-0.4c0.5,0.3,0.6,0.9,0.4,1.3l-1.9,3.2h19.5l-1.5-3.3
		c-0.2-0.5,0-1.1,0.5-1.3c0.5-0.2,1.1,0,1.3,0.5l2.1,4.7c0.1,0.3,0.1,0.7-0.1,0.9c-0.2,0.3-0.5,0.4-0.8,0.4H12.6
		c-0.4,0-0.7-0.2-0.8-0.5C11.6,9.1,11.6,8.7,11.8,8.4z M36.5,29.1h-7.2c-0.4,0-0.8-0.3-0.9-0.7l-0.7-1.9l-1.6,12.2
		c-0.1,0.5-0.5,0.8-0.9,0.8c0,0,0,0,0,0c-0.5,0-0.9-0.3-1-0.8l-3.3-17L18.7,29c-0.1,0.4-0.5,0.7-0.9,0.7h-6.3c-0.5,0-1-0.4-1-1
		c0-0.5,0.4-1,1-1h5.6l3.1-10.4c0.1-0.4,0.5-0.7,1-0.7c0.5,0,0.8,0.3,0.9,0.8L25,32.5l1.4-10.3c0.1-0.4,0.4-0.8,0.9-0.8
		c0.4,0,0.9,0.2,1,0.6l1.8,5.1h6.5c0.5,0,1,0.4,1,1C37.5,28.7,37.1,29.1,36.5,29.1z"/>
</g>
</svg>
