<?xml version="1.0" encoding="utf-8"?>
<!-- Generator: Adobe Illustrator 18.0.0, SVG Export Plug-In . SVG Version: 6.00 Build 0)  -->
<!DOCTYPE svg PUBLIC "-//W3C//DTD SVG 1.1//EN" "http://www.w3.org/Graphics/SVG/1.1/DTD/svg11.dtd">
<svg version="1.1" id="Layer_1" xmlns="http://www.w3.org/2000/svg" xmlns:xlink="http://www.w3.org/1999/xlink" x="0px" y="0px"
	 viewBox="0 0 48 48" enable-background="new 0 0 48 48" xml:space="preserve">
<g>
	<polygon fill="#F04B36" points="29.8,29.8 25.1,29.8 25.1,25.1 22.9,25.1 22.9,29.8 18.2,29.8 18.2,32.1 22.9,32.1 22.9,36.7 
		25.1,36.7 25.1,32.1 29.8,32.1 	"/>
	<path fill="none" d="M24,19.2c-6.5,0-11.7,5.3-11.7,11.7S17.5,42.7,24,42.7c6.5,0,11.7-5.3,11.7-11.7S30.5,19.2,24,19.2z"/>
	<path fill="#E77528" d="M32.1,6.5c0.1-0.1,0.1-0.3,0.1-0.4V1.5c0-0.5-0.4-1-1-1h-5.9h-2.8h-5.9c-0.5,0-1,0.4-1,1V6
		c0,0.2,0,0.3,0.1,0.4c0,0,0,0.1,0.1,0.1H32C32.1,6.5,32.1,6.5,32.1,6.5z"/>
	<path fill="#06728D" d="M41.6,18.4c-5,0-8.3-1.2-9.8-3.5c-1.2-2-0.9-4.6-0.4-6.3H16.6c0.5,1.8,0.8,4.3-0.4,6.3
		c-1.4,2.3-4.7,3.5-9.8,3.5c-0.5,0-1,0.4-1,1v27.1c0,0.5,0.4,1,1,1h16.2h2.8h16.2c0.5,0,1-0.4,1-1V19.4
		C42.5,18.8,42.1,18.4,41.6,18.4z M24,42.7c-6.5,0-11.7-5.3-11.7-11.7S17.5,19.2,24,19.2c6.5,0,11.7,5.3,11.7,11.7
		S30.5,42.7,24,42.7z"/>
</g>
</svg>
