<?xml version="1.0" encoding="utf-8"?>
<!-- Generator: Adobe Illustrator 18.0.0, SVG Export Plug-In . SVG Version: 6.00 Build 0)  -->
<!DOCTYPE svg PUBLIC "-//W3C//DTD SVG 1.1//EN" "http://www.w3.org/Graphics/SVG/1.1/DTD/svg11.dtd">
<svg version="1.1" id="Layer_1" xmlns="http://www.w3.org/2000/svg" xmlns:xlink="http://www.w3.org/1999/xlink" x="0px" y="0px"
	 viewBox="0 0 48 48" enable-background="new 0 0 48 48" xml:space="preserve">
<g>
	<path fill="#F04B36" d="M19.9,25.7l8.8-18.2c0,0,0.1-0.1,0.1-0.1L18.3,2.4c-1.6-0.7-3.3-1.1-5-1.1C9.2,1.2,5.7,3.4,4,6.8
		c-1.2,2.5-1.3,5.3-0.2,7.9c1,2.6,3,4.8,5.6,6l10.5,5.1C19.9,25.8,19.9,25.7,19.9,25.7z"/>
	<path fill="#CFD0D1" d="M41.2,13.4L30.7,8.3c0,0,0,0.1,0,0.1l-8.8,18.2c0,0-0.1,0.1-0.1,0.1l10.5,5.1c1.6,0.7,3.3,1.1,5,1.1
		c4.1,0,7.6-2.2,9.3-5.6C49,22.3,46.6,16,41.2,13.4z"/>
	<path fill="#F7A93B" d="M20.1,41.3c0.8-1.5,1.2-3.1,1.2-4.9c0-5.8-4.7-10.4-10.4-10.4c-3.3,0-6.2,1.5-8.1,3.9L20.1,41.3z"/>
	<path fill="#F7A93B" d="M1.7,31.4c-0.8,1.5-1.2,3.1-1.2,4.9c0,5.8,4.7,10.4,10.4,10.4c3.3,0,6.2-1.5,8.1-3.9L1.7,31.4z"/>
</g>
</svg>
