<?xml version="1.0" encoding="utf-8"?>
<!-- Generator: Adobe Illustrator 18.0.0, SVG Export Plug-In . SVG Version: 6.00 Build 0)  -->
<!DOCTYPE svg PUBLIC "-//W3C//DTD SVG 1.1//EN" "http://www.w3.org/Graphics/SVG/1.1/DTD/svg11.dtd">
<svg version="1.1" id="Layer_1" xmlns="http://www.w3.org/2000/svg" xmlns:xlink="http://www.w3.org/1999/xlink" x="0px" y="0px"
	 viewBox="0 0 48 48" enable-background="new 0 0 48 48" xml:space="preserve">
<g>
	<path fill="#E77528" d="M36.8,19.4c-0.9-3.4-3-6.4-6.1-8.5l4.2-4c0.7-0.6,1-1.4,1-2.2c0-0.8-0.4-1.7-1-2.2l-1.3-1.1
		c-0.6-0.6-1.5-0.9-2.4-0.9c-0.9,0-1.7,0.3-2.3,0.8L18.2,9.8c-0.7,0.6-1,1.4-1,2.2c0,0.8,0.4,1.7,1,2.2l2.2,1.9
		c1.3,1.1,3.4,1.1,4.8,0l0.9-0.9c2.2,2.9,5.3,8.6,0.7,12.6c-0.2,0.1-0.8,0.3-1.4,0.3c-1.3,0-2.4-0.7-3.1-2.2h0.9
		c0.5,0,0.9-0.4,0.9-0.9v-3.9c0-0.5-0.4-0.9-0.9-0.9H8.7c-0.5,0-0.9,0.4-0.9,0.9V25c0,0.5,0.4,0.9,0.9,0.9h2.6
		c4.9,3.5,8.1,7,8.4,9.5c0.1,0.9-0.1,1.7-0.7,2.4c-0.2,0.3-0.3,0.7-0.1,1c0.2,0.3,0.5,0.5,0.8,0.5h14c0.4,0,0.7-0.2,0.9-0.6
		c0.1-0.4,0-0.8-0.3-1c0,0-2.3-2.3,1.1-8C37.2,26.6,37.7,22.9,36.8,19.4z"/>
	<path fill="#4DA0D8" d="M39.3,40.5H12c-0.5,0-0.9,0.4-0.9,0.9v5.2c0,0.5,0.4,0.9,0.9,0.9h27.4c0.5,0,0.9-0.4,0.9-0.9v-5.2
		C40.2,40.9,39.8,40.5,39.3,40.5z"/>
</g>
</svg>
