<?xml version="1.0" encoding="utf-8"?>
<!-- Generator: Adobe Illustrator 18.0.0, SVG Export Plug-In . SVG Version: 6.00 Build 0)  -->
<!DOCTYPE svg PUBLIC "-//W3C//DTD SVG 1.1//EN" "http://www.w3.org/Graphics/SVG/1.1/DTD/svg11.dtd">
<svg version="1.1" id="Layer_1" xmlns="http://www.w3.org/2000/svg" xmlns:xlink="http://www.w3.org/1999/xlink" x="0px" y="0px"
	 viewBox="0 0 48 48" enable-background="new 0 0 48 48" xml:space="preserve">
<g>
	<g>
		<path fill="#CFD0D1" d="M38.1,46.1c-0.3,0-0.5-0.1-0.7-0.3l-5.8-6.1c-0.4-0.4-0.4-1,0-1.4c0.4-0.4,1-0.4,1.4,0l5.8,6.1
			c0.4,0.4,0.4,1,0,1.4C38.6,46,38.4,46.1,38.1,46.1z"/>
	</g>
	<path fill="#294E58" d="M13.1,8.5l1-1c0.4-0.4,0.4-1,0.1-1.4c-0.4-0.4-1-0.4-1.4-0.1L1.5,16.6c-0.4,0.4-0.4,1-0.1,1.4
		c0.2,0.2,0.5,0.3,0.7,0.3c0.2,0,0.5-0.1,0.7-0.3l0.9-0.9l11.9,11.1c0-0.2,0.1-0.4,0.3-0.6l6.9-6c0.2-0.1,0.4-0.2,0.6-0.2L13.1,8.5z
		"/>
	<path fill="#0DB89A" d="M31.4,36.6l-3-8.8c0-0.1-0.1-0.2-0.2-0.3l-3.6-4.6c-0.1,0.2-0.1,0.3-0.3,0.4l-6.9,6
		c-0.1,0.1-0.3,0.2-0.4,0.2l5.1,4.8c0.1,0.1,0.2,0.1,0.3,0.2l7.7,3.3c0.1,0.1,0.3,0.1,0.4,0.1c0.2,0,0.5-0.1,0.7-0.3
		C31.4,37.3,31.5,36.9,31.4,36.6z"/>
	<g>
		<path fill="#CFD0D1" d="M43.3,47.4c-0.5,0-0.9-0.4-1-0.9l-0.9-8.1c-0.1-0.5,0.3-1,0.9-1.1c0.5-0.1,1,0.3,1.1,0.9l0.9,8.1
			c0.1,0.5-0.3,1-0.9,1.1C43.3,47.4,43.3,47.4,43.3,47.4z"/>
	</g>
	<path fill="#294E58" d="M44.7,2.7L46,2.5c0.5-0.1,0.9-0.5,0.9-1.1c-0.1-0.5-0.5-0.9-1.1-0.9L30.4,2.3c-0.5,0.1-0.9,0.5-0.9,1.1
		c0.1,0.5,0.5,0.9,1,0.9c0,0,0.1,0,0.1,0L32,4.1l3.1,16.2l10.3-1.5L44.7,2.7z"/>
	<path fill="#0DB89A" d="M36.5,27.9c0,0.1,0.1,0.2,0.1,0.3l4.7,8c0.2,0.3,0.5,0.5,0.8,0.5c0,0,0.1,0,0.1,0c0.4,0,0.7-0.3,0.8-0.7
		l2.6-8c0-0.1,0.1-0.2,0-0.3l-0.3-7l-10,1.4L36.5,27.9z"/>
</g>
</svg>
