<?xml version="1.0" encoding="utf-8"?>
<!-- Generator: Adobe Illustrator 18.0.0, SVG Export Plug-In . SVG Version: 6.00 Build 0)  -->
<!DOCTYPE svg PUBLIC "-//W3C//DTD SVG 1.1//EN" "http://www.w3.org/Graphics/SVG/1.1/DTD/svg11.dtd">
<svg version="1.1" id="Layer_1" xmlns="http://www.w3.org/2000/svg" xmlns:xlink="http://www.w3.org/1999/xlink" x="0px" y="0px"
	 viewBox="0 0 48 48" enable-background="new 0 0 48 48" xml:space="preserve">
<g>
	<path fill="#CFD0D1" d="M39.7,6.8c-0.4-2.8-2.6-6-6-6.2c-1.4-0.1-2.9,0.2-4.6,0.4c-2,0.3-4.1,0.7-5.6,0.3c-1.2-0.4-2.4-0.4-3.7-0.4
		l-0.4,0c0,0,0,0,0,0c-4.3,0-7.8,1.9-9.9,5.3c-2,3.4-1.5,8.6-0.1,12.1c0.4,1,0.9,1.8,1.5,2.6c0.4,0.6,0.8,1.2,1.1,1.9
		c0.6,1.2,0.5,2.5,0.4,4l-0.1,1c-0.2,3-0.3,6.2,0.3,9.2c0.3,1.5,1.3,3.9,2.6,5.4l0.3,0.4c1,1.2,2.4,2.9,3.8,3.5c0,0,0,0,0.1,0
		c0.1,0,0.1,0,0.2,0c0,0,0.1,0,0.1,0c0,0,0.1,0,0.1,0c0,0,0.1,0,0.1,0c0.1,0,0.2-0.1,0.3-0.1c0,0,0,0,0.1,0c0,0,0,0,0,0
		c0.1-0.1,0.2-0.1,0.3-0.2c0,0,0-0.1,0-0.1c0,0,0.1-0.1,0.1-0.1c0,0,0,0,0-0.1c0-0.1,0-0.1,0-0.2c0-0.1,0-0.1,0-0.2
		c0-0.1,0-0.1,0-0.2c0-0.1,0-0.1-0.1-0.2c0,0,0,0,0-0.1c-0.9-1.5-0.5-5-0.3-7l0-0.3c0.2-1.6,0.5-2.7,1.2-4.1
		c0.1-0.2,0.2-0.4,0.3-0.7c0.3-0.7,0.7-1.4,1.1-1.9c0.1-0.2,0.3-0.3,0.4-0.5c0.1-0.1,0.2-0.2,0.2-0.3c1.7,1.9,3.5,4.7,4,6.6
		c0.5,2.1,0,4.1-0.4,6.1c-0.3,1.2-0.6,2.5-0.7,3.8c0,0.3,0.1,0.6,0.3,0.8c0.2,0.2,0.4,0.3,0.7,0.3c0,0,0.1,0,0.1,0
		c2.5-0.4,5.7-4.2,5.8-4.2c1.3-1.5,1.9-3.3,2.5-4.9c0.1-0.3,0.2-0.6,0.3-0.9c0.7-2,1.3-3.8,1.1-6.2c-0.1-0.8-0.2-1.5-0.3-2.3
		c-0.2-1.3-0.4-2.4-0.4-3.7c0-3.3,0.5-6.1,1.7-8.8C39.7,13,40.1,10.1,39.7,6.8z"/>
</g>
</svg>
