<?xml version="1.0" encoding="utf-8"?>
<!-- Generator: Adobe Illustrator 18.0.0, SVG Export Plug-In . SVG Version: 6.00 Build 0)  -->
<!DOCTYPE svg PUBLIC "-//W3C//DTD SVG 1.1//EN" "http://www.w3.org/Graphics/SVG/1.1/DTD/svg11.dtd">
<svg version="1.1" id="Layer_1" xmlns="http://www.w3.org/2000/svg" xmlns:xlink="http://www.w3.org/1999/xlink" x="0px" y="0px"
	 viewBox="0 0 48 48" enable-background="new 0 0 48 48" xml:space="preserve">
<g>
	<g>
		<path fill="#0DB89A" d="M46.5,47.6c-0.3,0-0.5-0.1-0.7-0.3l-7.7-7.7c-0.4-0.4-0.4-1,0-1.4c0.4-0.4,1-0.4,1.4,0l7.7,7.7
			c0.4,0.4,0.4,1,0,1.4C47.1,47.5,46.8,47.6,46.5,47.6z"/>
	</g>
	<path fill="#F04B36" d="M15.3,7.7l-4.4-4.4l1.3-1.3c0.4-0.4,0.4-0.9,0-1.3c-0.4-0.4-0.9-0.4-1.3,0l-2,2c0,0,0,0,0,0L5.4,6.2
		l-4.6,4.6c-0.4,0.4-0.4,0.9,0,1.3c0.2,0.2,0.4,0.3,0.7,0.3c0.2,0,0.5-0.1,0.7-0.3l1.3-1.3l4.4,4.4c0.2,0.2,0.4,0.3,0.7,0.3
		c0.2,0,0.5-0.1,0.7-0.3L15.3,9c0.2-0.2,0.3-0.4,0.3-0.7C15.5,8.1,15.4,7.9,15.3,7.7z"/>
	<path fill="#E77528" d="M37.8,36.7l-0.3-9.8c0-0.2-0.1-0.5-0.3-0.6L19.2,8.2C19,8,18.8,7.9,18.5,7.9c-0.2,0-0.5,0.1-0.7,0.3
		l-9.6,9.6c-0.4,0.4-0.4,0.9,0,1.3l18.1,18.1c0.2,0.2,0.4,0.3,0.6,0.3l9.9,0.4c0,0,0,0,0,0c0,0,0,0,0,0c0.5,0,0.9-0.4,0.9-0.9
		C37.9,36.9,37.9,36.8,37.8,36.7z M12.1,21.7c-0.2,0-0.5-0.1-0.7-0.3c-0.4-0.4-0.4-0.9,0-1.3l4.7-4.7c0.4-0.4,0.9-0.4,1.3,0
		c0.4,0.4,0.4,0.9,0,1.3l-4.7,4.7C12.6,21.6,12.4,21.7,12.1,21.7z M15.8,25.3c-0.2,0-0.5-0.1-0.7-0.3c-0.4-0.4-0.4-0.9,0-1.3
		l2.4-2.4c0.4-0.4,0.9-0.4,1.3,0c0.4,0.4,0.4,0.9,0,1.3l-2.4,2.4C16.3,25.2,16.1,25.3,15.8,25.3z M19.5,29c-0.2,0-0.5-0.1-0.7-0.3
		c-0.4-0.4-0.4-0.9,0-1.3l4.7-4.7c0.4-0.4,0.9-0.4,1.3,0c0.4,0.4,0.4,0.9,0,1.3l-4.7,4.7C20,28.9,19.7,29,19.5,29z M23.2,32.7
		c-0.2,0-0.5-0.1-0.7-0.3c-0.4-0.4-0.4-0.9,0-1.3l2.4-2.4c0.4-0.4,0.9-0.4,1.3,0c0.4,0.4,0.4,0.9,0,1.3l-2.4,2.4
		C23.6,32.6,23.4,32.7,23.2,32.7z M32.2,31.4l-4.7,4.7c-0.2,0.2-0.4,0.3-0.7,0.3c-0.2,0-0.5-0.1-0.7-0.3c-0.4-0.4-0.4-0.9,0-1.3
		l4.7-4.7c0.4-0.4,0.9-0.4,1.3,0C32.6,30.4,32.6,31,32.2,31.4z"/>
</g>
</svg>
