<?xml version="1.0" encoding="utf-8"?>
<!-- Generator: Adobe Illustrator 18.0.0, SVG Export Plug-In . SVG Version: 6.00 Build 0)  -->
<!DOCTYPE svg PUBLIC "-//W3C//DTD SVG 1.1//EN" "http://www.w3.org/Graphics/SVG/1.1/DTD/svg11.dtd">
<svg version="1.1" id="Layer_1" xmlns="http://www.w3.org/2000/svg" xmlns:xlink="http://www.w3.org/1999/xlink" x="0px" y="0px"
	 viewBox="0 0 48 48" enable-background="new 0 0 48 48" xml:space="preserve">
<g>
	<path fill="#F7A93B" d="M15.5,0.5c-2.6,0-4.6,2.1-4.6,4.6c0,2.6,2.1,4.6,4.6,4.6c2.6,0,4.6-2.1,4.6-4.6C20.1,2.6,18,0.5,15.5,0.5z"
		/>
	<path fill="#06728D" d="M44.1,38h-3.7l-9.1-11.4H19.8l-1.4-6.8l7,1.9c0.1,0,0.3,0.1,0.4,0.1c0.6,0,1.2-0.4,1.4-1.1
		c0.2-0.8-0.2-1.6-1-1.8l-8.4-2.3l-0.9-4.3c-0.2-0.8-0.9-1.3-1.7-1.1c-0.8,0.2-1.3,0.9-1.1,1.7l3.4,16.5H30l9.1,11.4h5.1
		c0.8,0,1.4-0.6,1.4-1.4C45.6,38.7,44.9,38,44.1,38z"/>
	<path fill="#CFD0D1" d="M19.9,47.5c-3.9,0-7.7-1.3-10.8-3.8c-3.7-2.9-6-7.1-6.5-11.7C1.8,25.6,4.6,19.3,10,15.6
		c0.9-0.6,2.1-0.4,2.7,0.5c0.6,0.9,0.4,2.1-0.5,2.7C8,21.6,5.8,26.6,6.3,31.6c0.4,3.6,2.2,6.9,5.1,9.1c2.9,2.3,6.4,3.3,10,2.9
		c4.1-0.5,7.7-2.7,9.9-6.1c0.6-0.9,1.8-1.1,2.7-0.6c0.9,0.6,1.1,1.8,0.6,2.7c-2.9,4.4-7.5,7.2-12.7,7.8
		C21.2,47.5,20.5,47.5,19.9,47.5z"/>
</g>
</svg>
