<?xml version="1.0" encoding="utf-8"?>
<!-- Generator: Adobe Illustrator 18.0.0, SVG Export Plug-In . SVG Version: 6.00 Build 0)  -->
<!DOCTYPE svg PUBLIC "-//W3C//DTD SVG 1.1//EN" "http://www.w3.org/Graphics/SVG/1.1/DTD/svg11.dtd">
<svg version="1.1" id="Layer_1" xmlns="http://www.w3.org/2000/svg" xmlns:xlink="http://www.w3.org/1999/xlink" x="0px" y="0px"
	 viewBox="0 0 48 48" enable-background="new 0 0 48 48" xml:space="preserve">
<g>
	<path fill="#F04B36" d="M14.5,11.1C10.8,13.8,8.4,18,8,22.6h8.5c0.3-1.6,1.1-3.1,2.4-4.2L14.5,11.1z"/>
	<path fill="#F04B36" d="M22.1,31.4L18.3,39c4.3,1.6,9.2,1.3,13.2-0.8l-4.7-7.1C25.4,31.7,23.7,31.8,22.1,31.4z"/>
	<path fill="#06728D" d="M24,0.5C11,0.5,0.5,11,0.5,24S11,47.5,24,47.5C37,47.5,47.5,37,47.5,24S37,0.5,24,0.5z M27.5,24
		c0,1.9-1.6,3.5-3.5,3.5c-1.9,0-3.5-1.6-3.5-3.5c0-1.9,1.6-3.5,3.5-3.5C25.9,20.5,27.5,22.1,27.5,24z M6.5,25.5
		c-0.8,0-1.5-0.7-1.5-1.5c0-6.7,3.5-12.8,9.2-16.3c0.3-0.2,0.7-0.3,1.1-0.2c0.4,0.1,0.7,0.3,0.9,0.7l5.8,9.8c0.4,0.7,0.2,1.6-0.5,2
		c-1.4,0.9-2.3,2.3-2.3,4c0,0.8-0.7,1.5-1.5,1.5H6.5z M35,39c-0.1,0.4-0.3,0.7-0.6,0.9C31.3,42,27.7,43,24,43
		c-2.9,0-5.7-0.7-8.3-1.9c-0.4-0.2-0.6-0.5-0.7-0.8c-0.1-0.4-0.1-0.8,0.1-1.1l5-10.2c0.4-0.7,1.2-1,2-0.7c1.5,0.7,3.2,0.6,4.6-0.3
		c0.7-0.4,1.6-0.3,2,0.4l6.2,9.5C35,38.2,35.1,38.6,35,39z M41.5,25.5H30.1c-0.8,0-1.5-0.7-1.5-1.5c0-1.7-0.8-3.2-2.2-4
		c-0.7-0.4-0.9-1.3-0.5-2l5.8-9.8c0.2-0.3,0.5-0.6,0.9-0.7c0.4-0.1,0.8,0,1.1,0.2c5.8,3.5,9.2,9.5,9.2,16.3c0,0.4-0.2,0.8-0.4,1
		C42.3,25.4,41.9,25.5,41.5,25.5z"/>
	<path fill="#F04B36" d="M33.5,11.1l-4.4,7.3c1.2,1.1,2,2.6,2.3,4.2H40C39.5,18,37.2,13.8,33.5,11.1z"/>
</g>
</svg>
