<?xml version="1.0" encoding="utf-8"?>
<!-- Generator: Adobe Illustrator 18.0.0, SVG Export Plug-In . SVG Version: 6.00 Build 0)  -->
<!DOCTYPE svg PUBLIC "-//W3C//DTD SVG 1.1//EN" "http://www.w3.org/Graphics/SVG/1.1/DTD/svg11.dtd">
<svg version="1.1" id="Layer_1" xmlns="http://www.w3.org/2000/svg" xmlns:xlink="http://www.w3.org/1999/xlink" x="0px" y="0px"
	 viewBox="0 0 48 48" enable-background="new 0 0 48 48" xml:space="preserve">
<g>
	<path fill="#F04B36" d="M31.1,38.3h15.5c0.5,0,1-0.4,1-1V20.7c0-0.5-0.4-1-1-1H34.1v-7.6c0-0.3-0.2-0.6-0.4-0.8l-9.4-6.7
		c-0.3-0.2-0.8-0.2-1.2,0l-9,6.7c-0.2,0.2-0.4,0.5-0.4,0.8v7.6H1.5c-0.5,0-1,0.4-1,1v16.6c0,0.5,0.4,1,1,1H17 M17,37.3V24.5
		c0-0.5,0.4-1,1-1h12c0.5,0,1,0.4,1,1v12.8 M7.6,32.1c0,0.5-0.4,1-1,1s-1-0.4-1-1v-5.5c0-0.5,0.4-1,1-1s1,0.4,1,1V32.1z M12.8,32.1
		c0,0.5-0.4,1-1,1c-0.5,0-1-0.4-1-1v-5.5c0-0.5,0.4-1,1-1c0.5,0,1,0.4,1,1V32.1z M27.7,16.1H25v2.7h-2v-2.7h-2.7v-2H23v-2.7h2v2.7
		h2.7V16.1z M37.2,32.1c0,0.5-0.4,1-1,1c-0.5,0-1-0.4-1-1v-5.5c0-0.5,0.4-1,1-1c0.5,0,1,0.4,1,1V32.1z M42.4,32.1c0,0.5-0.4,1-1,1
		c-0.5,0-1-0.4-1-1v-5.5c0-0.5,0.4-1,1-1c0.5,0,1,0.4,1,1V32.1z"/>
	<rect x="14.3" y="40.6" fill="#0DB89A" width="19.1" height="2.9"/>
</g>
</svg>
