<?xml version="1.0" encoding="utf-8"?>
<!-- Generator: Adobe Illustrator 18.0.0, SVG Export Plug-In . SVG Version: 6.00 Build 0)  -->
<!DOCTYPE svg PUBLIC "-//W3C//DTD SVG 1.1//EN" "http://www.w3.org/Graphics/SVG/1.1/DTD/svg11.dtd">
<svg version="1.1" id="Layer_1" xmlns="http://www.w3.org/2000/svg" xmlns:xlink="http://www.w3.org/1999/xlink" x="0px" y="0px"
	 viewBox="0 0 48 48" enable-background="new 0 0 48 48" xml:space="preserve">
<g>
	<path fill="#E77528" d="M38.4,7.3H9.6c-2.3,0-4.1,1.8-4.1,4.1v32c0,2.3,1.8,4.1,4.1,4.1h28.8c2.3,0,4.1-1.8,4.1-4.1v-32
		C42.5,9.2,40.7,7.3,38.4,7.3z M24,40.4c-7.2,0-13-5.8-13-13c0-7.2,5.8-13,13-13c7.2,0,13,5.8,13,13C37,34.6,31.2,40.4,24,40.4z"/>
	<path fill="#F04B36" d="M24,17.4c-5.5,0-10.1,4.5-10.1,10.1c0,5.5,4.5,10.1,10.1,10.1c5.5,0,10-4.5,10-10.1
		C34.1,21.9,29.5,17.4,24,17.4z M30.6,28.9h-5.2V34h-2.9v-5.2h-5.2v-2.9h5.2v-5.2h2.9v5.2h5.2V28.9z"/>
	<path fill="#0DB89A" d="M31.6,9.3c-0.5,0-1-0.4-1-1V4.9c0-1.1-2.2-2.4-5-2.4h-3.3c-2.9,0-5,1.3-5,2.4v3.4c0,0.5-0.4,1-1,1
		s-1-0.4-1-1V4.9c0-2.5,3.1-4.4,7-4.4h3.3c3.9,0,7,1.9,7,4.4v3.4C32.6,8.8,32.2,9.3,31.6,9.3z"/>
</g>
</svg>
