<?xml version="1.0" encoding="utf-8"?>
<!-- Generator: Adobe Illustrator 18.0.0, SVG Export Plug-In . SVG Version: 6.00 Build 0)  -->
<!DOCTYPE svg PUBLIC "-//W3C//DTD SVG 1.1//EN" "http://www.w3.org/Graphics/SVG/1.1/DTD/svg11.dtd">
<svg version="1.1" id="Layer_1" xmlns="http://www.w3.org/2000/svg" xmlns:xlink="http://www.w3.org/1999/xlink" x="0px" y="0px"
	 viewBox="0 0 48 48" enable-background="new 0 0 48 48" xml:space="preserve">
<g>
	<path fill="#4DA0D8" d="M17.9,35.3c-4.6,0-9-1.8-12.3-5.1c-3.3-3.3-5.1-7.7-5.1-12.3c0-4.6,1.8-9,5.1-12.3
		c3.3-3.3,7.7-5.1,12.3-5.1s9,1.8,12.3,5.1c3.3,3.3,5.1,7.7,5.1,12.3s-1.8,9-5.1,12.3C26.9,33.5,22.5,35.3,17.9,35.3z M17.9,5.9
		c-3.2,0-6.2,1.2-8.5,3.5c-2.3,2.3-3.5,5.3-3.5,8.5c0,3.2,1.2,6.2,3.5,8.5c2.3,2.3,5.3,3.5,8.5,3.5c3.2,0,6.2-1.2,8.5-3.5
		c2.3-2.3,3.5-5.3,3.5-8.5c0-3.2-1.2-6.2-3.5-8.5C24.1,7.2,21.1,5.9,17.9,5.9z"/>
	<path fill="#F7A93B" d="M45.7,47.5c-0.5,0-0.9-0.2-1.3-0.5L26.4,28.9c-0.7-0.7-0.7-1.9,0-2.6c0.7-0.7,1.9-0.7,2.6,0L47,44.4
		c0.7,0.7,0.7,1.9,0,2.6C46.6,47.3,46.2,47.5,45.7,47.5z"/>
</g>
</svg>
