<?xml version="1.0" encoding="utf-8"?>
<!-- Generator: Adobe Illustrator 18.0.0, SVG Export Plug-In . SVG Version: 6.00 Build 0)  -->
<!DOCTYPE svg PUBLIC "-//W3C//DTD SVG 1.1//EN" "http://www.w3.org/Graphics/SVG/1.1/DTD/svg11.dtd">
<svg version="1.1" id="Layer_1" xmlns="http://www.w3.org/2000/svg" xmlns:xlink="http://www.w3.org/1999/xlink" x="0px" y="0px"
	 viewBox="0 0 48 48" enable-background="new 0 0 48 48" xml:space="preserve">
<g>
	<path fill="#F04B36" d="M34.4,1.6c-4.1,0-7.9,2.2-10.4,5.9c-2.5-3.7-6.3-5.9-10.4-5.9C6.4,1.6,0.5,8.5,0.5,16.9
		c0,5.7,5.6,11.4,12.7,18.5c3.2,3.2,6.7,6.8,10.1,10.7c0.2,0.2,0.5,0.3,0.7,0.3c0.3,0,0.6-0.1,0.7-0.3c2.8-3.3,6.1-6.5,9.2-9.7
		c7.3-7.3,13.6-13.6,13.6-19.5C47.5,8.5,41.6,1.6,34.4,1.6z"/>
</g>
</svg>
