<?xml version="1.0" encoding="utf-8"?>
<!-- Generator: Adobe Illustrator 18.0.0, SVG Export Plug-In . SVG Version: 6.00 Build 0)  -->
<!DOCTYPE svg PUBLIC "-//W3C//DTD SVG 1.1//EN" "http://www.w3.org/Graphics/SVG/1.1/DTD/svg11.dtd">
<svg version="1.1" id="Layer_1" xmlns="http://www.w3.org/2000/svg" xmlns:xlink="http://www.w3.org/1999/xlink" x="0px" y="0px"
	 viewBox="0 0 48 48" enable-background="new 0 0 48 48" xml:space="preserve">
<g>
	<g>
		<path fill="#0DB89A" d="M28.6,38.4c-5.1,0-9.9-2-13.5-5.6c-3.6-3.6-5.6-8.4-5.6-13.5c0-5.1,2-9.9,5.6-13.5
			c3.6-3.6,8.4-5.6,13.5-5.6c5.1,0,9.9,2,13.5,5.6c3.6,3.6,5.6,8.4,5.6,13.5c0,5.1-2,9.9-5.6,13.5C38.5,36.4,33.7,38.4,28.6,38.4z
			 M28.6,4.2c-4.1,0-7.9,1.6-10.7,4.4c-2.9,2.9-4.4,6.7-4.4,10.7c0,4.1,1.6,7.9,4.4,10.7c2.9,2.9,6.7,4.4,10.7,4.4
			c4.1,0,7.9-1.6,10.7-4.4c2.9-2.9,4.4-6.7,4.4-10.7c0-4.1-1.6-7.9-4.4-10.7C36.4,5.8,32.6,4.2,28.6,4.2z"/>
	</g>
	<g>
		<path fill="#0DB89A" d="M18.5,31.4c0-0.5-0.2-0.9-0.5-1.3c-0.7-0.7-1.9-0.7-2.6,0L7.4,38l-3.7-3.7c-0.7-0.7-1.9-0.7-2.6,0
			c-0.3,0.3-0.5,0.8-0.5,1.3c0,0.5,0.2,0.9,0.5,1.3l3.7,3.7l-3.9,3.9c-0.3,0.3-0.5,0.8-0.5,1.3c0,0.5,0.2,0.9,0.5,1.3
			c0.3,0.3,0.8,0.5,1.3,0.5c0.5,0,0.9-0.2,1.3-0.5l3.9-3.9l3.7,3.7c0.7,0.7,1.9,0.7,2.6,0c0.3-0.3,0.5-0.8,0.5-1.3
			c0-0.5-0.2-0.9-0.5-1.3L10,40.6l7.9-7.9C18.3,32.3,18.5,31.8,18.5,31.4z"/>
	</g>
</g>
</svg>
