<?xml version="1.0" encoding="utf-8"?>
<!-- Generator: Adobe Illustrator 18.0.0, SVG Export Plug-In . SVG Version: 6.00 Build 0)  -->
<!DOCTYPE svg PUBLIC "-//W3C//DTD SVG 1.1//EN" "http://www.w3.org/Graphics/SVG/1.1/DTD/svg11.dtd">
<svg version="1.1" id="Layer_1" xmlns="http://www.w3.org/2000/svg" xmlns:xlink="http://www.w3.org/1999/xlink" x="0px" y="0px"
	 viewBox="0 0 48 48" enable-background="new 0 0 48 48" xml:space="preserve">
<g>
	<g>
		<path fill="#F04B36" d="M19.4,47.6c-4.9,0-9.6-1.9-13.1-5.4C2.8,38.7,0.9,34,0.9,29.1c0-4.9,1.9-9.6,5.4-13.1
			c3.5-3.5,8.1-5.4,13.1-5.4c4.9,0,9.6,1.9,13.1,5.4c3.5,3.5,5.4,8.1,5.4,13.1c0,4.9-1.9,9.6-5.4,13.1C29,45.6,24.3,47.6,19.4,47.6z
			 M19.4,14.5c-3.9,0-7.6,1.5-10.3,4.3c-2.8,2.8-4.3,6.4-4.3,10.3c0,3.9,1.5,7.6,4.3,10.3c2.8,2.8,6.4,4.3,10.3,4.3
			c3.9,0,7.6-1.5,10.3-4.3C32.5,36.7,34,33,34,29.1c0-3.9-1.5-7.6-4.3-10.3C27,16,23.3,14.5,19.4,14.5z"/>
	</g>
	<g>
		<path fill="#F04B36" d="M46.2,3.1c0-0.1,0-0.2-0.1-0.3l0-0.1c0-0.1,0-0.1-0.1-0.2c-0.1-0.2-0.2-0.4-0.4-0.5c0,0,0,0,0,0
			c0,0,0,0-0.1-0.1c-0.1-0.1-0.3-0.2-0.5-0.3c-0.1,0-0.2-0.1-0.2-0.1l-0.1,0c-0.1,0-0.2-0.1-0.3-0.1l-14.4-1c-1-0.1-1.9,0.7-1.9,1.7
			c0,0.5,0.1,0.9,0.4,1.3C29,3.8,29.4,4,29.9,4l10.4,0.7L29.2,15.9c-0.3,0.3-0.5,0.8-0.5,1.3c0,0.5,0.2,0.9,0.5,1.3
			c0.7,0.7,1.9,0.7,2.6,0L42.9,7.3l0.6,10.3c0.1,1,0.8,1.7,1.8,1.7c0,0,0.1,0,0.1,0c1-0.1,1.8-0.9,1.7-1.9L46.2,3.1z"/>
	</g>
</g>
</svg>
