<?xml version="1.0" encoding="utf-8"?>
<!-- Generator: Adobe Illustrator 18.0.0, SVG Export Plug-In . SVG Version: 6.00 Build 0)  -->
<!DOCTYPE svg PUBLIC "-//W3C//DTD SVG 1.1//EN" "http://www.w3.org/Graphics/SVG/1.1/DTD/svg11.dtd">
<svg version="1.1" id="Layer_1" xmlns="http://www.w3.org/2000/svg" xmlns:xlink="http://www.w3.org/1999/xlink" x="0px" y="0px"
	 viewBox="0 0 48 48" enable-background="new 0 0 48 48" xml:space="preserve">
<g>
	<g>
		<path fill="#E77528" d="M22,45.5C10.2,45.5,0.5,35.9,0.5,24C0.5,12.1,10.2,2.5,22,2.5c11.9,0,21.5,9.7,21.5,21.5
			C43.6,35.9,33.9,45.5,22,45.5z M22,6.2c-9.8,0-17.8,8-17.8,17.8c0,9.8,8,17.8,17.8,17.8c9.8,0,17.8-8,17.8-17.8
			C39.8,14.2,31.9,6.2,22,6.2z"/>
	</g>
	<g>
		<path fill="#E77528" d="M47.5,44v1.3h-7c0-0.3,0-0.6,0.2-0.9c0.2-0.5,0.5-0.9,0.9-1.4c0.4-0.5,1-1,1.7-1.6
			c1.2-0.9,1.9-1.7,2.3-2.2c0.4-0.6,0.6-1.1,0.6-1.6c0-0.5-0.2-1-0.6-1.3c-0.4-0.4-0.9-0.5-1.4-0.5c-0.6,0-1.1,0.2-1.5,0.6
			c-0.4,0.4-0.6,0.9-0.6,1.6l-1.3-0.1c0.1-1,0.4-1.8,1-2.3c0.6-0.5,1.4-0.8,2.4-0.8c1,0,1.8,0.3,2.4,0.8c0.6,0.6,0.9,1.3,0.9,2.1
			c0,0.4-0.1,0.8-0.3,1.3c-0.2,0.4-0.5,0.8-0.9,1.3c-0.4,0.5-1.1,1.1-2,1.9c-0.8,0.7-1.3,1.1-1.5,1.3c-0.2,0.2-0.4,0.5-0.5,0.7H47.5
			z"/>
	</g>
</g>
</svg>
