<?xml version="1.0" encoding="utf-8"?>
<!-- Generator: Adobe Illustrator 18.0.0, SVG Export Plug-In . SVG Version: 6.00 Build 0)  -->
<!DOCTYPE svg PUBLIC "-//W3C//DTD SVG 1.1//EN" "http://www.w3.org/Graphics/SVG/1.1/DTD/svg11.dtd">
<svg version="1.1" id="Layer_1" xmlns="http://www.w3.org/2000/svg" xmlns:xlink="http://www.w3.org/1999/xlink" x="0px" y="0px"
	 viewBox="0 0 48 48" enable-background="new 0 0 48 48" xml:space="preserve">
<g>
	<path fill="#F7A93B" d="M46.1,20.6H13L2.9,11.4c-0.6-0.5-1.5-0.5-2,0.1c-0.5,0.6-0.5,1.5,0.1,2l10.9,10h0.7v13.9
		c0,0.8,0.6,1.4,1.4,1.4s1.4-0.6,1.4-1.4v-2l12.3-6.1L40,35.4v2c0,0.8,0.6,1.4,1.4,1.4s1.4-0.6,1.4-1.4V23.5h3.1
		c0.8,0,1.4-0.6,1.4-1.4C47.5,21.3,46.9,20.6,46.1,20.6z M15.5,32.2v-8.6h1.2c0.1,0.2,0.3,0.3,0.5,0.4l7.4,3.7L15.5,32.2z
		 M27.6,25.9c0.1,0,0.1,0,0.2,0c0,0,0,0,0.1,0L27.8,26L27.6,25.9z M40,32.2L31,27.6l7.4-3.7c0.2-0.1,0.3-0.2,0.5-0.4H40V32.2z"/>
	<path fill="#4DA0D8" d="M13,18.3c0.3,0.3,0.7,0.4,1,0.4c0.4,0,0.7-0.1,1-0.4c0.6-0.6,0.6-1.5,0-2L8.7,9.6C8.1,9,7.2,9,6.6,9.6
		c-0.6,0.6-0.6,1.5,0,2L13,18.3z"/>
</g>
</svg>
