<?xml version="1.0" encoding="utf-8"?>
<!-- Generator: Adobe Illustrator 18.0.0, SVG Export Plug-In . SVG Version: 6.00 Build 0)  -->
<!DOCTYPE svg PUBLIC "-//W3C//DTD SVG 1.1//EN" "http://www.w3.org/Graphics/SVG/1.1/DTD/svg11.dtd">
<svg version="1.1" id="Layer_1" xmlns="http://www.w3.org/2000/svg" xmlns:xlink="http://www.w3.org/1999/xlink" x="0px" y="0px"
	 viewBox="0 0 48 48" enable-background="new 0 0 48 48" xml:space="preserve">
<g>
	<path fill="#CFD0D1" d="M29.8,22.2V9.3c1.9-0.4,3.3-2,3.3-4V4.6c0-2.3-1.8-4.1-4.1-4.1H19c-2.3,0-4.1,1.8-4.1,4.1v0.6
		c0,2,1.4,3.6,3.3,4v12.9l-2.6,4.6h16.9L29.8,22.2z"/>
	<path fill="#0DB89A" d="M42,43.2l-7.9-13.6c-0.2,0-0.3,0.1-0.5,0.1H14.3c-0.1,0-0.3,0-0.4,0L6,43.2c-0.6,1-0.7,2.1-0.2,3
		c0.5,0.8,1.5,1.3,2.7,1.3h31c1.2,0,2.2-0.5,2.7-1.3C42.7,45.3,42.6,44.3,42,43.2z"/>
</g>
</svg>
