<?xml version="1.0" encoding="utf-8"?>
<!-- Generator: Adobe Illustrator 18.0.0, SVG Export Plug-In . SVG Version: 6.00 Build 0)  -->
<!DOCTYPE svg PUBLIC "-//W3C//DTD SVG 1.1//EN" "http://www.w3.org/Graphics/SVG/1.1/DTD/svg11.dtd">
<svg version="1.1" id="Layer_1" xmlns="http://www.w3.org/2000/svg" xmlns:xlink="http://www.w3.org/1999/xlink" x="0px" y="0px"
	 viewBox="0 0 48 48" enable-background="new 0 0 48 48" xml:space="preserve">
<g>
	<path fill="#F04B36" d="M46.9,18.6c-7.2-4.7-14.9-7-22.9-7c-7.9,0-15.6,2.4-22.9,7L0.5,19l0.2,0.7c1,3.1,2,5.6,2.9,8
		c0.9,2.4,1.9,4.8,2.9,7.8l0.3,0.9l0.9-0.2c5.9-1.5,11.3-2.2,16.4-2.2c5.1,0,10.3,0.7,16.3,2.2l0.9,0.2l0.3-0.9c1-3,1.9-5.5,2.9-7.9
		c1-2.4,1.9-4.9,2.9-8l0.2-0.7L46.9,18.6z M28.9,24.4h-3.4v3.4h-2.9v-3.4h-3.4v-2.9h3.4v-3.4h2.9v3.4h3.4V24.4z"/>
</g>
</svg>
