<?xml version="1.0" encoding="utf-8"?>
<!-- Generator: Adobe Illustrator 18.0.0, SVG Export Plug-In . SVG Version: 6.00 Build 0)  -->
<!DOCTYPE svg PUBLIC "-//W3C//DTD SVG 1.1//EN" "http://www.w3.org/Graphics/SVG/1.1/DTD/svg11.dtd">
<svg version="1.1" id="Layer_1" xmlns="http://www.w3.org/2000/svg" xmlns:xlink="http://www.w3.org/1999/xlink" x="0px" y="0px"
	 viewBox="0 0 48 48" enable-background="new 0 0 48 48" xml:space="preserve">
<g>
	<path fill="#F7A93B" d="M47.4,43.4c-0.2-1.1-0.8-2.3-1.7-3.2l-4.8-4.8c1.1-3.3,0.2-6.9-2.4-9.4L15.8,3.3C14,1.5,11.7,0.5,9.1,0.5
		C6.8,0.5,4.6,1.4,3,3c-3.5,3.5-3.3,9.2,0.3,12.8L26,38.5c1.8,1.8,4.2,2.8,6.7,2.8c0.9,0,1.9-0.1,2.8-0.4l4.8,4.8
		c1.1,1.1,2.6,1.8,4,1.8c0.9,0,1.8-0.3,2.4-0.9C47.3,45.8,47.7,44.7,47.4,43.4z M6.4,14.9c-0.3,0-0.5-0.1-0.7-0.3
		c-0.4-0.4-0.4-1,0-1.4l4.6-4.6c0.4-0.4,1-0.4,1.4,0c0.4,0.4,0.4,1,0,1.4l-4.6,4.6C6.9,14.8,6.6,14.9,6.4,14.9z M9.7,18.1
		c-0.3,0-0.5-0.1-0.7-0.3c-0.4-0.4-0.4-1,0-1.4l2.3-2.3c0.4-0.4,1-0.4,1.4,0c0.4,0.4,0.4,1,0,1.4l-2.3,2.3
		C10.2,18,9.9,18.1,9.7,18.1z M13,21.5c-0.3,0-0.5-0.1-0.7-0.3c-0.4-0.4-0.4-1,0-1.4l4.6-4.6c0.4-0.4,1-0.4,1.4,0
		c0.4,0.4,0.4,1,0,1.4l-4.6,4.6C13.5,21.4,13.2,21.5,13,21.5z M16.3,24.7c-0.3,0-0.5-0.1-0.7-0.3c-0.4-0.4-0.4-1,0-1.4l2.3-2.3
		c0.4-0.4,1-0.4,1.4,0c0.4,0.4,0.4,1,0,1.4L17,24.5C16.8,24.6,16.5,24.7,16.3,24.7z M19.6,28c-0.3,0-0.5-0.1-0.7-0.3
		c-0.4-0.4-0.4-1,0-1.4l4.6-4.6c0.4-0.4,1-0.4,1.4,0c0.4,0.4,0.4,1,0,1.4l-4.6,4.6C20.1,28,19.8,28,19.6,28z M22.9,31.3
		c-0.3,0-0.5-0.1-0.7-0.3c-0.4-0.4-0.4-1,0-1.4l2.3-2.3c0.4-0.4,1-0.4,1.4,0c0.4,0.4,0.4,1,0,1.4L23.6,31
		C23.4,31.2,23.1,31.3,22.9,31.3z M26.2,34.6c-0.3,0-0.5-0.1-0.7-0.3c-0.4-0.4-0.4-1,0-1.4l4.6-4.6c0.4-0.4,1-0.4,1.4,0
		c0.4,0.4,0.4,1,0,1.4l-4.6,4.6C26.7,34.5,26.4,34.6,26.2,34.6z M32.5,35.3l-2.3,2.3c-0.2,0.2-0.4,0.3-0.7,0.3
		c-0.3,0-0.5-0.1-0.7-0.3c-0.4-0.4-0.4-1,0-1.4l2.3-2.3c0.4-0.4,1-0.4,1.4,0C32.8,34.3,32.8,35,32.5,35.3z"/>
</g>
</svg>
