<?xml version="1.0" encoding="utf-8"?>
<!-- Generator: Adobe Illustrator 18.0.0, SVG Export Plug-In . SVG Version: 6.00 Build 0)  -->
<!DOCTYPE svg PUBLIC "-//W3C//DTD SVG 1.1//EN" "http://www.w3.org/Graphics/SVG/1.1/DTD/svg11.dtd">
<svg version="1.1" id="Layer_1" xmlns="http://www.w3.org/2000/svg" xmlns:xlink="http://www.w3.org/1999/xlink" x="0px" y="0px"
	 viewBox="0 0 48 48" enable-background="new 0 0 48 48" xml:space="preserve">
<g>
	<path fill="#4DA0D8" d="M30,22.1V7.3c0-3.7-2.7-6.8-6-6.8c-3.3,0-6,3-6,6.8v14.8c-4.5,2.3-7.4,6.9-7.4,12c0,7.4,6,13.4,13.4,13.4
		c7.4,0,13.4-6,13.4-13.4C37.4,29,34.5,24.3,30,22.1z M24,38.9c-2.6,0-4.7-2.1-4.7-4.7c0-2.3,1.6-4.1,3.7-4.6V6.2c0-0.5,0.4-1,1-1
		c0.5,0,1,0.4,1,1v23.5c2.1,0.5,3.7,2.3,3.7,4.6C28.7,36.8,26.6,38.9,24,38.9z"/>
</g>
</svg>
