<?xml version="1.0" encoding="utf-8"?>
<!-- Generator: Adobe Illustrator 18.0.0, SVG Export Plug-In . SVG Version: 6.00 Build 0)  -->
<!DOCTYPE svg PUBLIC "-//W3C//DTD SVG 1.1//EN" "http://www.w3.org/Graphics/SVG/1.1/DTD/svg11.dtd">
<svg version="1.1" id="Layer_1" xmlns="http://www.w3.org/2000/svg" xmlns:xlink="http://www.w3.org/1999/xlink" x="0px" y="0px"
	 viewBox="0 0 48 48" enable-background="new 0 0 48 48" xml:space="preserve">
<g>
	<path fill="#06728D" d="M20.8,33.1c-0.8,0-1.5-0.7-1.5-1.5v-6.9c0-0.8,0.7-1.5,1.5-1.5s1.5,0.7,1.5,1.5v6.9
		C22.3,32.5,21.6,33.1,20.8,33.1z"/>
	<path fill="#06728D" d="M24.9,44.6h-2.7v-4.4c0-0.8-0.7-1.5-1.5-1.5s-1.5,0.7-1.5,1.5v4.4h-2.7c-0.8,0-1.5,0.7-1.5,1.5
		s0.7,1.5,1.5,1.5h8.3c0.8,0,1.5-0.7,1.5-1.5S25.7,44.6,24.9,44.6z"/>
	<path fill="#4DA0D8" d="M33.9,9.7H7.7c-0.5,0-1,0.4-1,1c0,7.8,6.3,14.1,14.1,14.1c7.8,0,14.1-6.3,14.1-14.1
		C34.9,10.1,34.5,9.7,33.9,9.7z"/>
	<g>
		<path fill="#F04B36" d="M38.9,6c-4.4-5-13.6-5.6-18.8-5.5c-1.3,0-3,0.3-3.9,1.3c-0.4,0.5-0.6,1.1-0.6,1.8c0.1,0.9,0.5,1.7,1.1,2.2
			c1.2,1,3.1,1.3,6.1,1.1c4-0.4,7.2-2.7,8-3.3c2.6,0.7,5,1.9,6.6,3.7c1.7,1.9,2.2,4.3,1.7,7.3c-1.8,11-12.8,12.2-13.3,12.2
			c-0.5,0-0.9,0.5-0.9,1.1c0,0.5,0.5,0.9,1,0.9c0,0,0.1,0,0.1,0c0.1,0,13-1.3,15-13.8C41.7,11.3,40.9,8.3,38.9,6z"/>
		<path fill="#F04B36" d="M23.2,35.5c-6.1-0.4-7.5-1.8-7.8-2.6c-0.5-1.4,1.3-3.2,1.3-3.2c0.4-0.4,0.4-1,0-1.4c-0.4-0.4-1-0.4-1.4,0
			c-0.1,0.1-2.7,2.7-1.8,5.3c0.8,2.3,3.9,3.5,9.5,3.9c4,0.2,6.5,1.1,7,2.5c0.5,1.5-1.2,3.6-1.9,4.3c-0.4,0.4-0.4,1,0,1.4
			c0.2,0.2,0.4,0.3,0.7,0.3c0.2,0,0.5-0.1,0.7-0.3c0.4-0.3,3.4-3.4,2.3-6.3C31,37,28.2,35.8,23.2,35.5z"/>
	</g>
</g>
</svg>
