<?xml version="1.0" encoding="utf-8"?>
<!-- Generator: Adobe Illustrator 18.0.0, SVG Export Plug-In . SVG Version: 6.00 Build 0)  -->
<!DOCTYPE svg PUBLIC "-//W3C//DTD SVG 1.1//EN" "http://www.w3.org/Graphics/SVG/1.1/DTD/svg11.dtd">
<svg version="1.1" id="Layer_1" xmlns="http://www.w3.org/2000/svg" xmlns:xlink="http://www.w3.org/1999/xlink" x="0px" y="0px"
	 viewBox="0 0 48 48" enable-background="new 0 0 48 48" xml:space="preserve">
<g>
	<path fill="#F04B36" d="M45.3,33.7c-0.5,0-1-0.4-1-1V21.4c0-0.5,0.4-1,1-1c0.5,0,1,0.4,1,1v11.3C46.3,33.2,45.9,33.7,45.3,33.7z"/>
	<path fill="#F04B36" d="M39.8,33.7c-0.5,0-1-0.4-1-1V21.4c0-0.5,0.4-1,1-1c0.5,0,1,0.4,1,1v11.3C40.8,33.2,40.4,33.7,39.8,33.7z"/>
	<path fill="#F04B36" d="M34.3,33.7c-0.5,0-1-0.4-1-1V21.4c0-0.5,0.4-1,1-1c0.5,0,1,0.4,1,1v11.3C35.3,33.2,34.9,33.7,34.3,33.7z"/>
	<path fill="#F04B36" d="M28.8,33.7c-0.5,0-1-0.4-1-1V21.4c0-0.5,0.4-1,1-1c0.5,0,1,0.4,1,1v11.3C29.8,33.2,29.4,33.7,28.8,33.7z"/>
	<path fill="#F04B36" d="M23.3,33.7c-0.5,0-1-0.4-1-1V21.4c0-0.5,0.4-1,1-1c0.5,0,1,0.4,1,1v11.3C24.3,33.2,23.9,33.7,23.3,33.7z"/>
	<path fill="#E77528" d="M46.1,32.3H19c-0.5,0-1,0.4-1,1v2.6H1.5c-0.5,0-1,0.4-1,1V41c0,0.5,0.4,1,1,1h40.4c0.3,0,0.5-0.1,0.7-0.3
		l4.2-4.2c0.2-0.2,0.3-0.4,0.3-0.7v-3.6C47.1,32.7,46.6,32.3,46.1,32.3z"/>
	<path fill="#F7A93B" d="M46.5,6c-0.5,0-1,0.4-1,1v0c-0.3,0.4-1.4,1.5-4.5,1.5l-15.7,0c-0.2,0-1.9,0.1-3.4,1.8
		c-1.8,1.9-2.6,5-2.4,9.2c0,0.4,0.3,0.7,0.6,0.9c0.1,0,0.2,0.1,0.4,0.1c0.2,0,0.5-0.1,0.7-0.3c0,0,2.1-2,4.5-2l15.6,0
		c2.2-0.2,6.3-1.9,6.3-7.1V7C47.5,6.5,47.1,6,46.5,6z"/>
</g>
</svg>
