<?xml version="1.0" encoding="utf-8"?>
<!-- Generator: Adobe Illustrator 18.0.0, SVG Export Plug-In . SVG Version: 6.00 Build 0)  -->
<!DOCTYPE svg PUBLIC "-//W3C//DTD SVG 1.1//EN" "http://www.w3.org/Graphics/SVG/1.1/DTD/svg11.dtd">
<svg version="1.1" id="Layer_1" xmlns="http://www.w3.org/2000/svg" xmlns:xlink="http://www.w3.org/1999/xlink" x="0px" y="0px"
	 viewBox="0 0 48 48" enable-background="new 0 0 48 48" xml:space="preserve">
<g>
	<path fill="#4DA0D8" d="M44.8,29.3L39.5,24l5.3-5.3c1.7-1.7,2.7-4.1,2.7-6.5c0-2.5-1-4.8-2.7-6.5l-2.4-2.4
		c-1.7-1.7-4.1-2.7-6.5-2.7c-2.5,0-4.8,1-6.5,2.7L24,8.5l-5.3-5.3c-1.7-1.7-4.1-2.7-6.5-2.7c-2.5,0-4.8,1-6.5,2.7L3.2,5.6
		c-3.6,3.6-3.6,9.5,0,13.1L8.6,24l-5.3,5.3c-3.6,3.6-3.6,9.5,0,13.1l2.4,2.4c1.7,1.7,4.1,2.7,6.5,2.7c2.5,0,4.8-1,6.5-2.7l5.3-5.3
		l5.3,5.3c1.7,1.7,4.1,2.7,6.5,2.7c2.5,0,4.8-1,6.5-2.7l2.4-2.4C48.4,38.8,48.4,33,44.8,29.3z M20.2,25.7c-0.5,0.5-1.2,0.8-1.9,0.8
		c-0.7,0-1.4-0.3-1.9-0.8c-1-1-1-2.7,0-3.8c1-1,2.8-1,3.8,0C21.3,22.9,21.3,24.6,20.2,25.7z M21.9,16.4c1-1,2.8-1,3.8,0
		c1,1,1,2.7,0,3.8c-0.5,0.5-1.2,0.8-1.9,0.8c-0.7,0-1.4-0.3-1.9-0.8C20.9,19.2,20.9,17.5,21.9,16.4z M26.1,31.6
		c-0.5,0.5-1.2,0.8-1.9,0.8c-0.7,0-1.4-0.3-1.9-0.8c-0.5-0.5-0.8-1.2-0.8-1.9c0-0.7,0.3-1.4,0.8-1.9c1-1,2.8-1,3.8,0
		c0.5,0.5,0.8,1.2,0.8,1.9C26.9,30.4,26.6,31,26.1,31.6z M31.5,26.1c-0.5,0.5-1.2,0.8-1.9,0.8c-0.7,0-1.4-0.3-1.9-0.8
		c-0.5-0.5-0.8-1.2-0.8-1.9c0-0.7,0.3-1.4,0.8-1.9c1-1,2.8-1,3.8,0c0.5,0.5,0.8,1.2,0.8,1.9C32.3,24.9,32.1,25.6,31.5,26.1z"/>
	<path fill="#FFFFFF" d="M24,39.4L8.5,24L24,8.5L39.4,24L24,39.4z M11.2,24L24,36.7L36.6,24L24,11.3L11.2,24z"/>
</g>
</svg>
