<?xml version="1.0" encoding="utf-8"?>
<!-- Generator: Adobe Illustrator 18.0.0, SVG Export Plug-In . SVG Version: 6.00 Build 0)  -->
<!DOCTYPE svg PUBLIC "-//W3C//DTD SVG 1.1//EN" "http://www.w3.org/Graphics/SVG/1.1/DTD/svg11.dtd">
<svg version="1.1" id="Layer_1" xmlns="http://www.w3.org/2000/svg" xmlns:xlink="http://www.w3.org/1999/xlink" x="0px" y="0px"
	 viewBox="0 0 48 48" enable-background="new 0 0 48 48" xml:space="preserve">
<g>
	<path fill="#F04B36" d="M42.1,10.1c-0.3-0.4-7.9-9.4-18.6-9.4c-6.2,0-12.1,3-17.6,8.9l-0.5,0.5l5.6,9.4l0.8-0.5
		c0.1,0,5.3-2.9,12.2-2.9c4,0,7.8,1,11.3,2.9l0.7,0.4l6.7-8.8L42.1,10.1z M27.5,9.7H25v2.6H23V9.7h-2.6V7.7H23V5.2H25v2.6h2.6V9.7z"
		/>
	<path fill="#294E58" d="M22.9,21.7c0.1-0.5,0.5-0.9,0.9-0.9c0.5-0.1,1,0.3,1.1,0.7c0.1,0.5,3.5,11.4,14.5,10.4c0.1,0,0.2,0,0.3,0
		C39.5,24,32.5,17.7,24,17.7c-8.7,0-15.9,6.6-15.9,14.8c0,0.1,0,0.3,0,0.4C9.2,32.7,22.1,29.3,22.9,21.7z"/>
	<path fill="#F7A93B" d="M39.7,33.9c-8.9,0.8-13.5-5.3-15.5-9c-3.4,7.2-15,10-15.6,10.1c-0.1,0-0.1,0-0.2,0
		c1.3,7,7.8,12.3,15.6,12.3c8.2,0,15-5.9,15.8-13.4C39.7,33.9,39.7,33.9,39.7,33.9z M19.5,38.2c-1.5,0-2.8-1.2-2.8-2.7
		c0-1.5,1.2-2.7,2.8-2.7c1.5,0,2.7,1.2,2.7,2.7C22.2,37,21,38.2,19.5,38.2z M28.5,38.2c-1.5,0-2.7-1.2-2.7-2.7
		c0-1.5,1.2-2.7,2.7-2.7c1.5,0,2.8,1.2,2.8,2.7C31.2,37,30,38.2,28.5,38.2z"/>
</g>
</svg>
