<?xml version="1.0" encoding="utf-8"?>
<!-- Generator: Adobe Illustrator 18.0.0, SVG Export Plug-In . SVG Version: 6.00 Build 0)  -->
<!DOCTYPE svg PUBLIC "-//W3C//DTD SVG 1.1//EN" "http://www.w3.org/Graphics/SVG/1.1/DTD/svg11.dtd">
<svg version="1.1" id="Layer_1" xmlns="http://www.w3.org/2000/svg" xmlns:xlink="http://www.w3.org/1999/xlink" x="0px" y="0px"
	 viewBox="0 0 48 48" enable-background="new 0 0 48 48" xml:space="preserve">
<g>
	<path fill="#06728D" d="M20.3,29.2c-0.2,0-0.4-0.1-0.6-0.2c-0.4-0.3-0.5-0.9-0.2-1.4c0.1-0.1,1.6-2.1,4.1-2.3
		c1.7-0.1,3.3,0.6,4.9,2.2c0.4,0.4,0.4,1,0,1.4c-0.4,0.4-1,0.4-1.4,0c-1.1-1.1-2.3-1.7-3.3-1.6c-1.6,0.1-2.6,1.5-2.6,1.5
		C20.9,29.1,20.6,29.2,20.3,29.2z"/>
	<path fill="#06728D" d="M3.5,26.2c-0.2,0-0.4-0.1-0.6-0.2c-0.4-0.3-0.5-0.9-0.2-1.4L16.2,7.7c0.3-0.4,0.9-0.5,1.3-0.2l5.4,4
		c0.4,0.3,0.5,0.9,0.2,1.4c-0.3,0.4-0.9,0.5-1.4,0.2l-4.6-3.4L4.3,25.8C4.1,26.1,3.8,26.2,3.5,26.2z"/>
	<path fill="#06728D" d="M44.6,26.2c-0.3,0-0.6-0.1-0.8-0.4L31,9.6l-4.6,3.4c-0.4,0.3-1,0.2-1.4-0.2c-0.3-0.4-0.2-1,0.2-1.4l5.4-4
		c0.4-0.3,1-0.2,1.3,0.2l13.5,16.9c0.3,0.4,0.3,1-0.2,1.4C45,26.1,44.8,26.2,44.6,26.2z"/>
	<path fill="#4DA0D8" d="M10.9,20.8c-5.7,0-10.3,4.5-10.3,10c0,5.5,4.6,10,10.3,10c5.7,0,10.3-4.5,10.3-10
		C21.3,25.2,16.6,20.8,10.9,20.8z"/>
	<path fill="#4DA0D8" d="M37.1,20.8c-5.7,0-10.3,4.5-10.3,10c0,5.5,4.6,10,10.3,10c5.7,0,10.3-4.5,10.3-10
		C47.4,25.2,42.8,20.8,37.1,20.8z"/>
</g>
</svg>
