<?xml version="1.0" encoding="utf-8"?>
<!-- Generator: Adobe Illustrator 18.0.0, SVG Export Plug-In . SVG Version: 6.00 Build 0)  -->
<!DOCTYPE svg PUBLIC "-//W3C//DTD SVG 1.1//EN" "http://www.w3.org/Graphics/SVG/1.1/DTD/svg11.dtd">
<svg version="1.1" id="Layer_1" xmlns="http://www.w3.org/2000/svg" xmlns:xlink="http://www.w3.org/1999/xlink" x="0px" y="0px"
	 viewBox="0 0 48 48" enable-background="new 0 0 48 48" xml:space="preserve">
<g>
	<path fill="#4DA0D8" d="M35.7,31.1L26,26.8l9.7-4.3c0.5-0.2,0.7-0.8,0.5-1.3c-0.2-0.5-0.8-0.7-1.3-0.5l-11.3,5l-11.3-5
		c-0.5-0.2-1.1,0-1.3,0.5c-0.2,0.5,0,1.1,0.5,1.3l9.7,4.3l-9.7,4.3c-0.5,0.2-0.7,0.8-0.5,1.3c0.2,0.4,0.5,0.6,0.9,0.6
		c0.1,0,0.3,0,0.4-0.1l11.3-5l11.3,5c0.1,0.1,0.3,0.1,0.4,0.1c0.4,0,0.7-0.2,0.9-0.6C36.4,31.9,36.2,31.3,35.7,31.1z"/>
	<path fill="#0DB89A" d="M47.1,9.1c-0.3-0.2-0.6-0.2-0.9-0.1l-14,5.8H1.5c-0.5,0-1,0.4-1,1v5.8c0,0.5,0.4,1,1,1h45.1
		c0.5,0,1-0.4,1-1V9.9C47.5,9.6,47.3,9.3,47.1,9.1z"/>
	<path fill="#294E58" d="M8.5,17.2c-0.8,0-1.5-0.7-1.5-1.5V7.8C7,7,7.6,6.3,8.5,6.3h21.8c0.8,0,1.5,0.7,1.5,1.5v7
		c0,0.8-0.7,1.5-1.5,1.5c-0.8,0-1.5-0.7-1.5-1.5V9.3H9.9v6.4C9.9,16.5,9.3,17.2,8.5,17.2z"/>
	<path fill="#E77528" d="M8.4,29.6c-3.3,0-6,2.7-6,6c0,3.3,2.7,6,6,6c3.3,0,6-2.7,6-6C14.4,32.3,11.7,29.6,8.4,29.6z"/>
	<path fill="#E77528" d="M38.8,29.6c-3.3,0-6,2.7-6,6c0,3.3,2.7,6,6,6c3.3,0,6-2.7,6-6C44.9,32.3,42.2,29.6,38.8,29.6z"/>
</g>
</svg>
