<?xml version="1.0" encoding="utf-8"?>
<!-- Generator: Adobe Illustrator 18.0.0, SVG Export Plug-In . SVG Version: 6.00 Build 0)  -->
<!DOCTYPE svg PUBLIC "-//W3C//DTD SVG 1.1//EN" "http://www.w3.org/Graphics/SVG/1.1/DTD/svg11.dtd">
<svg version="1.1" id="Layer_1" xmlns="http://www.w3.org/2000/svg" xmlns:xlink="http://www.w3.org/1999/xlink" x="0px" y="0px"
	 viewBox="0 0 48 48" enable-background="new 0 0 48 48" xml:space="preserve">
<g>
	<path fill="#4DA0D8" d="M23.9,20c-2,0-3.7,1.7-3.7,3.7c0,2,1.7,3.7,3.7,3.7c2,0,3.7-1.7,3.7-3.7C27.6,21.7,26,20,23.9,20z"/>
	<g>
		<path fill="#F04B36" d="M24,47.7c-5.8,0-10.2-10.2-10.2-23.7c0-13.5,4.4-23.7,10.2-23.7c5.8,0,10.2,10.2,10.2,23.7
			C34.2,37.5,29.8,47.7,24,47.7z M24,3.3c-3.5,0-7.3,8.5-7.3,20.7c0,12.2,3.9,20.7,7.3,20.7c3.5,0,7.3-8.5,7.3-20.7
			C31.3,11.8,27.5,3.3,24,3.3z"/>
	</g>
	<g>
		<path fill="#06728D" d="M44.5,35.8c-2.9,5.1-13.9,3.8-25.6-3C7.2,26.1,0.6,17.2,3.5,12.2s13.9-3.8,25.6,3
			C40.8,21.9,47.4,30.8,44.5,35.8z M6,13.6c-1.7,3,3.7,10.6,14.3,16.7c10.6,6.1,19.9,7,21.6,4c1.7-3-3.7-10.6-14.3-16.7
			C17.1,11.6,7.8,10.6,6,13.6z"/>
	</g>
	<g>
		<path fill="#0DB89A" d="M44.5,12.2c2.9,5.1-3.7,14-15.4,20.7c-11.7,6.7-22.7,8-25.6,3c-2.9-5.1,3.7-14,15.4-20.7
			S41.6,7.1,44.5,12.2z M6,34.4c1.7,3,11,2.1,21.6-4c10.6-6.1,16-13.7,14.3-16.7s-11-2.1-21.6,4C9.8,23.8,4.3,31.4,6,34.4z"/>
	</g>
</g>
</svg>
