<?xml version="1.0" encoding="utf-8"?>
<!-- Generator: Adobe Illustrator 18.0.0, SVG Export Plug-In . SVG Version: 6.00 Build 0)  -->
<!DOCTYPE svg PUBLIC "-//W3C//DTD SVG 1.1//EN" "http://www.w3.org/Graphics/SVG/1.1/DTD/svg11.dtd">
<svg version="1.1" id="Layer_1" xmlns="http://www.w3.org/2000/svg" xmlns:xlink="http://www.w3.org/1999/xlink" x="0px" y="0px"
	 viewBox="0 0 48 48" enable-background="new 0 0 48 48" xml:space="preserve">
<g>
	<path fill="#F04B36" d="M37.1,13.8c-1.8-1.8-3.5-2.7-5-2.7c-2.7,0-4,2.9-4.1,4.9c0,1.2-0.1,2.8-0.1,4.7L25,19.3V3.5
		c0-0.7-0.6-1.2-1.2-1.2c-0.7,0-1.2,0.6-1.2,1.2v15.7L20,20.5c0-1.8,0-3.3-0.1-4.4c-0.1-2-1.4-4.9-4.1-4.9c-1.5,0-3.1,0.9-5,2.7
		c-0.5,0.5-12,13.2-10.4,29.3c0.1,0.9,0.9,2.6,2.9,2.6h0c1.2,0,2.5-0.6,4.2-2c4.6-3.7,11.6-5.1,11.6-5.2c0.5-0.1,0.8-0.5,0.8-1
		c0-0.1,0.1-7.9,0.1-14.5l3.6-1.8c0,0,0,0,0,0l4.1,2c0.1,0,0.1,0,0.2,0.1c0,6.5,0.1,14.1,0.1,14.2c0,0.5,0.3,0.9,0.8,1
		c0.1,0,7.1,1.5,11.6,5.2c1.6,1.3,3,2,4.2,2c1.9,0,2.7-1.7,2.9-2.6C49.1,27.1,37.6,14.4,37.1,13.8z"/>
</g>
</svg>
