<?xml version="1.0" encoding="utf-8"?>
<!-- Generator: Adobe Illustrator 18.0.0, SVG Export Plug-In . SVG Version: 6.00 Build 0)  -->
<!DOCTYPE svg PUBLIC "-//W3C//DTD SVG 1.1//EN" "http://www.w3.org/Graphics/SVG/1.1/DTD/svg11.dtd">
<svg version="1.1" id="Layer_1" xmlns="http://www.w3.org/2000/svg" xmlns:xlink="http://www.w3.org/1999/xlink" x="0px" y="0px"
	 viewBox="0 0 48 48" enable-background="new 0 0 48 48" xml:space="preserve">
<g>
	<path fill="#E77528" d="M19.1,17c0-5-3.3-8.6-7.8-8.6C2.9,8.4,1,19.3,1,23.1C1,26.1,2.8,38,11.3,38c4.5,0,7.8-3.6,7.8-8.6
		c0-1.5-0.4-2.6-0.8-3.6c-0.4-0.9-0.7-1.6-0.7-2.6c0-1,0.3-1.8,0.7-2.6C18.7,19.6,19.1,18.5,19.1,17z"/>
	<path fill="#E77528" d="M36.7,8.4c-4.5,0-7.8,3.6-7.8,8.6c0,1.5,0.4,2.6,0.8,3.6c0.4,0.9,0.7,1.6,0.7,2.6c0,1-0.3,1.8-0.7,2.6
		c-0.4,1-0.8,2.1-0.8,3.6c0,5,3.3,8.6,7.8,8.6c8.5,0,10.3-12,10.3-14.9C47,19.3,45.1,8.4,36.7,8.4z"/>
	<path fill="#F04B36" d="M21.8,47.5c-0.8,0-1.4-0.6-1.4-1.4V1.9c0-0.8,0.6-1.4,1.4-1.4s1.4,0.6,1.4,1.4v44.1
		C23.2,46.9,22.6,47.5,21.8,47.5z"/>
	<path fill="#F04B36" d="M26.2,47.5c-0.8,0-1.4-0.6-1.4-1.4V1.9c0-0.8,0.6-1.4,1.4-1.4c0.8,0,1.4,0.6,1.4,1.4v44.1
		C27.7,46.9,27,47.5,26.2,47.5z"/>
</g>
</svg>
