<?xml version="1.0" encoding="utf-8"?>
<!-- Generator: Adobe Illustrator 18.0.0, SVG Export Plug-In . SVG Version: 6.00 Build 0)  -->
<!DOCTYPE svg PUBLIC "-//W3C//DTD SVG 1.1//EN" "http://www.w3.org/Graphics/SVG/1.1/DTD/svg11.dtd">
<svg version="1.1" id="Layer_1" xmlns="http://www.w3.org/2000/svg" xmlns:xlink="http://www.w3.org/1999/xlink" x="0px" y="0px"
	 viewBox="0 0 48 48" enable-background="new 0 0 48 48" xml:space="preserve">
<g>
	<path fill="#CFD0D1" d="M42,23.9c-0.2-0.2-0.4-0.4-0.5-0.6c-1.9-2.5-2.7-4.2-1.7-7.4c1-3.5,0-6.8-2.9-9.7c-0.8-0.8-2-1.7-3.6-2.7
		c-1.5-1-5.4-2.8-7.4-2.8c0,0,0,0-0.1,0c-1.1-0.2-2.2-0.3-3.3-0.3c-9.8,0-17.8,8.8-17.8,19.7c0,7.2,3.5,13.7,9.1,17.2v9.1
		c0,0.5,0.4,1,1,1h3.4c0.5,0,0.9-0.3,1-0.8c0.8-4.6,0-14.8-0.7-20.6c0-0.3-0.2-0.6-0.5-0.7c-0.3-0.1-0.6-0.2-0.9,0
		c-0.5,0.3-1.1,0.4-1.6,0.4c-0.6,0-1.8-0.2-2.4-1.4c-0.9-1.8-1.1-5.4-0.3-7.3c0.8-2,2.1-3.7,4.2-5.5c2.5-2.2,5.9-3.4,9.5-3.4
		c0.6,0,1.2,0,1.8,0.1c2.2,0.2,4.1,1.3,5.1,2.8l0.9,2c0.2,2.2-0.9,3-2.7,3.9c-1.2,0.7-2.5,1.1-3.9,1.5c-0.7,0.2-1.5,0.5-2.2,0.7
		c-0.3,0.1-0.5,0.3-0.6,0.6c-1.3,3.2-1.3,8.7-1.4,15c0,3.6-0.1,7.6-0.4,11.6c0,0.3,0.1,0.5,0.3,0.7c0.2,0.2,0.4,0.3,0.7,0.3h6.9
		c0.5,0,1-0.4,1-1v-5.7c1.5,0.6,3.6,1.1,5.2,1.1c0.9,0,1.6-0.2,2.2-0.5c1.6-0.9,1.3-2.4,1.1-3.4c-0.1-0.5-0.2-0.9-0.1-1.2
		c0-0.2,0.1-0.4,0.2-0.6c0.3-0.7,0.6-1.7,0.1-2.6c-0.2-0.4-0.6-0.8-1-1.1c1.1-0.5,1.7-0.9,1.8-1.6c0.1-0.5-0.3-0.9-0.7-1.5
		c-0.1-0.2-0.4-0.5-0.5-0.7c0.1,0,0.4-0.1,0.6-0.1c0.7-0.1,1.7-0.2,2.2-1C44,26,42.7,24.7,42,23.9z"/>
</g>
</svg>
