<?xml version="1.0" encoding="utf-8"?>
<!-- Generator: Adobe Illustrator 18.0.0, SVG Export Plug-In . SVG Version: 6.00 Build 0)  -->
<!DOCTYPE svg PUBLIC "-//W3C//DTD SVG 1.1//EN" "http://www.w3.org/Graphics/SVG/1.1/DTD/svg11.dtd">
<svg version="1.1" id="Layer_1" xmlns="http://www.w3.org/2000/svg" xmlns:xlink="http://www.w3.org/1999/xlink" x="0px" y="0px"
	 viewBox="0 0 48 48" enable-background="new 0 0 48 48" xml:space="preserve">
<g>
	<path fill="#E8B944" d="M42,23.9c-0.2-0.2-0.4-0.4-0.5-0.6c-1.9-2.5-2.7-4.2-1.7-7.4c1-3.5,0-6.8-2.9-9.7c-0.8-0.8-2-1.7-3.6-2.7
		c-1.5-1-5.4-2.8-7.4-2.8c0,0,0,0-0.1,0c-1.1-0.2-2.2-0.3-3.3-0.3c-9.8,0-17.8,8.8-17.8,19.7c0,7.2,3.5,13.7,9.1,17.2v9.1
		c0,0.5,0.4,1,1,1h16.2c0.5,0,1-0.4,1-1v-5.7c1.5,0.6,3.6,1.1,5.2,1.1c0.9,0,1.6-0.2,2.2-0.5c1.6-0.9,1.3-2.4,1.1-3.4
		c-0.1-0.5-0.2-0.9-0.1-1.2c0-0.2,0.1-0.4,0.2-0.6c0.3-0.7,0.6-1.7,0.1-2.6c-0.2-0.4-0.6-0.8-1-1.1c1.1-0.5,1.7-0.9,1.8-1.6
		c0.1-0.5-0.3-0.9-0.7-1.5c-0.1-0.2-0.4-0.5-0.5-0.7c0.1,0,0.4-0.1,0.6-0.1c0.7-0.1,1.7-0.2,2.2-1C44,26,42.7,24.7,42,23.9z
		 M37.8,33.4h-7.5c-4.1,0-7.4,3.3-7.4,7.4v5.7c0,0.5-0.4,1-1,1c-0.5,0-1-0.4-1-1v-5.7c0-5.1,4.2-9.3,9.3-9.3h7.5c0.5,0,1,0.4,1,1
		C38.8,33,38.4,33.4,37.8,33.4z"/>
</g>
</svg>
