<?xml version="1.0" encoding="utf-8"?>
<!-- Generator: Adobe Illustrator 18.0.0, SVG Export Plug-In . SVG Version: 6.00 Build 0)  -->
<!DOCTYPE svg PUBLIC "-//W3C//DTD SVG 1.1//EN" "http://www.w3.org/Graphics/SVG/1.1/DTD/svg11.dtd">
<svg version="1.1" id="Layer_1" xmlns="http://www.w3.org/2000/svg" xmlns:xlink="http://www.w3.org/1999/xlink" x="0px" y="0px"
	 viewBox="0 0 48 48" enable-background="new 0 0 48 48" xml:space="preserve">
<g>
	<path fill="#06728D" d="M24.1,16.1L2.7,37.6c-0.1,0.1-0.2,0.3-0.3,0.5l-1.8,8.3c-0.1,0.3,0,0.6,0.3,0.9c0.2,0.2,0.4,0.3,0.7,0.3
		c0.1,0,0.1,0,0.2,0l8.2-2c0.2,0,0.3-0.1,0.4-0.3l21.5-21.5"/>
	<path fill="#F04B36" d="M47.4,6c0-1.5-0.5-2.9-1.6-4c-1-1-2.4-1.6-3.8-1.6c-1.5,0-3,0.6-4.1,1.7l-4.4,4.4l-1.4-1.4
		c-0.9-0.9-2-1.3-3.3-1.3c-1.2,0-2.4,0.5-3.3,1.3l-1.8,1.8c-0.9,0.9-1.3,2-1.3,3.3c0,1.2,0.5,2.4,1.3,3.3l10.5,10.5
		c0.9,0.9,2,1.3,3.3,1.3c1.2,0,2.4-0.5,3.3-1.3l1.8-1.8c0.9-0.9,1.3-2,1.3-3.3c0-1.2-0.5-2.4-1.3-3.3l-1.4-1.4l4.4-4.4
		C46.8,8.9,47.4,7.5,47.4,6z"/>
</g>
</svg>
