<?xml version="1.0" encoding="utf-8"?>
<!-- Generator: Adobe Illustrator 18.0.0, SVG Export Plug-In . SVG Version: 6.00 Build 0)  -->
<!DOCTYPE svg PUBLIC "-//W3C//DTD SVG 1.1//EN" "http://www.w3.org/Graphics/SVG/1.1/DTD/svg11.dtd">
<svg version="1.1" id="Layer_1" xmlns="http://www.w3.org/2000/svg" xmlns:xlink="http://www.w3.org/1999/xlink" x="0px" y="0px"
	 viewBox="0 0 48 48" enable-background="new 0 0 48 48" xml:space="preserve">
<g>
	<path fill="#4DA0D8" d="M23.9,37.7c-0.6-1.7-1.7-2.9-3.3-3.5c-0.6-0.2-1.3-0.4-1.9-0.4c-2.6,0-5.1,1.9-6.2,4.7
		c-1.4,3.6,0,7.5,3.1,8.7c0.6,0.2,1.3,0.4,1.9,0.4c2.6,0,5.1-1.9,6.2-4.7C24.4,41.1,24.5,39.3,23.9,37.7z"/>
	<path fill="#4DA0D8" d="M13.9,27.3c-0.9-2.2-3.1-3.6-5.8-3.6c-1,0-1.9,0.2-2.9,0.5c-3.6,1.4-5.5,5-4.3,8.1C1.7,34.6,4,36,6.7,36
		c1,0,1.9-0.2,2.9-0.5C13.1,34.1,15.1,30.4,13.9,27.3z"/>
	<path fill="#F04B36" d="M47.5,19.8c-0.2-0.8-1-1.2-1.8-1l-22.2,5.8l5.8-22.2c0.1-0.4,0-0.8-0.2-1.1c-0.2-0.3-0.5-0.6-0.9-0.7
		c-0.8-0.2-1.6,0.3-1.8,1l-6.2,23.8l-7.4,1.9c-0.8,0.2-1.2,1-1,1.8c0.2,0.8,1,1.2,1.8,1l5.8-1.5l-1.5,5.8c-0.1,0.4,0,0.8,0.2,1.1
		c0.2,0.3,0.5,0.6,0.9,0.7c0.1,0,0.2,0,0.4,0c0.7,0,1.2-0.4,1.4-1.1l1.9-7.4l23.8-6.2C47.2,21.3,47.7,20.5,47.5,19.8z"/>
</g>
</svg>
