<?xml version="1.0" encoding="utf-8"?>
<!-- Generator: Adobe Illustrator 18.0.0, SVG Export Plug-In . SVG Version: 6.00 Build 0)  -->
<!DOCTYPE svg PUBLIC "-//W3C//DTD SVG 1.1//EN" "http://www.w3.org/Graphics/SVG/1.1/DTD/svg11.dtd">
<svg version="1.1" id="Layer_1" xmlns="http://www.w3.org/2000/svg" xmlns:xlink="http://www.w3.org/1999/xlink" x="0px" y="0px"
	 viewBox="0 0 48 48" enable-background="new 0 0 48 48" xml:space="preserve">
<g>
	<path fill="#CFD0D1" d="M46.5,25.4L22.6,1.4c-1.2-1.2-3.4-1.2-4.7,0L1.5,17.9c-0.6,0.6-1,1.4-1,2.3c0,0.9,0.3,1.7,1,2.3l23.9,23.9
		c0.6,0.6,1.4,1,2.3,1c0.9,0,1.7-0.3,2.3-1L46.5,30C47.8,28.8,47.8,26.7,46.5,25.4z M28.4,15c1.2,0,2.4,0.5,3.3,1.4
		c1.8,1.8,1.8,4.8,0,6.6c-0.9,0.9-2,1.4-3.3,1.4c-1.2,0-2.4-0.5-3.3-1.4c-0.9-0.9-1.4-2-1.4-3.3c0-1.2,0.5-2.4,1.4-3.3
		C26,15.5,27.1,15,28.4,15z M17,8.2c0.9-0.9,2-1.4,3.3-1.4c1.2,0,2.4,0.5,3.3,1.4c1.8,1.8,1.8,4.8,0,6.6c-0.9,0.9-2,1.4-3.3,1.4
		c-1.2,0-2.4-0.5-3.3-1.4C15.2,13,15.2,10,17,8.2z M11.5,24.9c-1.2,0-2.4-0.5-3.3-1.4c-0.9-0.9-1.4-2-1.4-3.3c0-1.2,0.5-2.4,1.4-3.3
		c0.9-0.9,2-1.4,3.3-1.4c1.2,0,2.4,0.5,3.3,1.4c0.9,0.9,1.4,2,1.4,3.3c0,1.2-0.5,2.4-1.4,3.3C13.9,24.4,12.8,24.9,11.5,24.9z
		 M19.6,33c-1.2,0-2.4-0.5-3.3-1.4c-1.8-1.8-1.8-4.8,0-6.6c0.9-0.9,2-1.4,3.3-1.4c1.2,0,2.4,0.5,3.3,1.4c0.9,0.9,1.4,2,1.4,3.3
		c0,1.2-0.5,2.4-1.4,3.3C22,32.5,20.9,33,19.6,33z M31,39.7c-0.9,0.9-2,1.4-3.3,1.4c-1.2,0-2.4-0.5-3.3-1.4c-0.9-0.9-1.4-2-1.4-3.3
		s0.5-2.4,1.4-3.3c0.9-0.9,2-1.4,3.3-1.4c1.2,0,2.4,0.5,3.3,1.4c0.9,0.9,1.4,2,1.4,3.3C32.4,37.7,31.9,38.9,31,39.7z M39.8,31
		c-0.9,0.9-2,1.4-3.3,1.4c-1.2,0-2.4-0.5-3.3-1.4c-0.9-0.9-1.4-2-1.4-3.3c0-1.2,0.5-2.4,1.4-3.3c0.9-0.9,2-1.4,3.3-1.4
		c1.2,0,2.4,0.5,3.3,1.4C41.6,26.3,41.6,29.2,39.8,31z"/>
</g>
</svg>
