<?xml version="1.0" encoding="utf-8"?>
<!-- Generator: Adobe Illustrator 18.0.0, SVG Export Plug-In . SVG Version: 6.00 Build 0)  -->
<!DOCTYPE svg PUBLIC "-//W3C//DTD SVG 1.1//EN" "http://www.w3.org/Graphics/SVG/1.1/DTD/svg11.dtd">
<svg version="1.1" id="Layer_1" xmlns="http://www.w3.org/2000/svg" xmlns:xlink="http://www.w3.org/1999/xlink" x="0px" y="0px"
	 viewBox="0 0 48 48" enable-background="new 0 0 48 48" xml:space="preserve">
<g>
	<path fill="#294E58" d="M24.8,47.5c-0.2,0-0.3,0-0.5-0.1c-0.8-0.3-1.1-1.1-0.9-1.9L38.5,4.2c0.3-0.8,1.1-1.1,1.9-0.9
		c0.8,0.3,1.1,1.1,0.9,1.9L26.2,46.5C26,47.1,25.4,47.5,24.8,47.5z"/>
	<path fill="#4DA0D8" d="M39.9,6.7c-1.4-2.9-3.8-4.3-7.1-4.3c-2.1,0-4.3,0.5-6.4,1c-2.1,0.5-4.2,1-6,1c-2.6,0-4.3-1-5.4-3.3
		c-0.2-0.3-0.5-0.6-0.9-0.5c-0.4,0-0.7,0.3-0.9,0.6L6.7,18.8c-0.1,0.2-0.1,0.5,0,0.8c1.4,2.9,3.8,4.3,7.1,4.3c2.1,0,4.3-0.5,6.4-1
		c2.1-0.5,4.2-1,6-1c2.6,0,4.3,1,5.4,3.3c0.2,0.3,0.5,0.5,0.9,0.5c0,0,0,0,0.1,0c0.4,0,0.7-0.3,0.9-0.6c2.1-5.9,4.3-11.8,6.4-17.7
		C40,7.2,40,6.9,39.9,6.7z M26.9,15.9l-4.1-1.5l-1.5,4.1l-1.8-0.7l1.5-4.1l-4.1-1.5l0.7-1.8l4.1,1.5l1.5-4.1L25,8.4l-1.5,4.1
		l4.1,1.5L26.9,15.9z"/>
</g>
</svg>
