<?xml version="1.0" encoding="utf-8"?>
<!-- Generator: Adobe Illustrator 18.0.0, SVG Export Plug-In . SVG Version: 6.00 Build 0)  -->
<!DOCTYPE svg PUBLIC "-//W3C//DTD SVG 1.1//EN" "http://www.w3.org/Graphics/SVG/1.1/DTD/svg11.dtd">
<svg version="1.1" id="Layer_1" xmlns="http://www.w3.org/2000/svg" xmlns:xlink="http://www.w3.org/1999/xlink" x="0px" y="0px"
	 viewBox="0 0 48 48" enable-background="new 0 0 48 48" xml:space="preserve">
<g>
	<path fill="#F04B36" d="M23.9,0.5c-8.3,0-15.1,5.1-15.1,11.4c0,2.5,2.4,6.3,4,8.7c0.5,0.7,1,1.5,1.1,1.8c0.1,4.8,4.6,8.6,10,8.6
		c5.5,0,10-3.8,10-8.6c0.1-0.3,0.6-1.1,1.1-1.8c1.6-2.5,4-6.2,4-8.7C39,5.6,32.2,0.5,23.9,0.5z M27.1,18.1c0,1.6-1.5,2.9-3.3,2.9
		c-1.8,0-3.2-1.3-3.2-2.9c0-1.6,1.5-2.9,3.2-2.9C25.7,15.2,27.1,16.5,27.1,18.1z M13.8,12c0-2.1,1.9-3.8,4.3-3.8
		c2.4,0,4.3,1.7,4.3,3.8c0,2.1-1.9,3.8-4.3,3.8C15.7,15.8,13.8,14.1,13.8,12z M31.8,23c-3.1,1.2-5.9,1.6-8.3,1.6
		c-4.7,0-7.8-1.5-8-1.6c-0.4-0.2-0.6-0.8-0.4-1.2c0.2-0.4,0.8-0.6,1.2-0.4c0.1,0.1,6.5,3.2,14.8,0c0.5-0.2,1,0,1.1,0.5
		C32.5,22.3,32.3,22.8,31.8,23z M29.7,15.8c-2.3,0-4.3-1.7-4.3-3.8c0-2.1,1.9-3.8,4.3-3.8c2.4,0,4.3,1.7,4.3,3.8
		C34,14.1,32.1,15.8,29.7,15.8z"/>
	<path fill="#E77528" d="M42,42.1c-0.2-0.5-0.8-0.7-1.3-0.5c-1.9,0.8-3.4,0.7-3.7,0.7c-0.8-0.4-5.5-2.5-10.6-4.7
		c4.4-2,8.3-3.9,9.5-4.6c0.1-0.1,0.3-0.2,0.4-0.3c0,0,0,0,0,0c0.9-0.5,3.1,0.1,4.4,0.7c0.1,0.1,0.3,0.1,0.4,0.1
		c0.4,0,0.7-0.2,0.9-0.6c0.2-0.5,0-1.1-0.5-1.3c-0.2-0.1-1.6-0.7-3.1-0.9c0.8-1.1,0.8-1.9,0.8-2c0-0.5-0.5-1-1-0.9
		c-0.5,0-1,0.5-0.9,1c0,0-0.1,1.2-2.4,2.6c-1.2,0.8-5.9,3-10.8,5.2c-4.9-2.2-9.6-4.4-10.8-5.2c-2.2-1.4-2.4-2.5-2.4-2.6
		c0-0.5-0.4-1-0.9-1c-0.5,0-1,0.4-1,0.9c0,0.1,0,1,0.8,2c-1.5,0.2-2.8,0.8-3.1,0.9C6,31.8,5.8,32.4,6,32.9c0.2,0.4,0.5,0.6,0.9,0.6
		c0.1,0,0.3,0,0.4-0.1c1-0.5,3.4-1.3,4.4-0.7l0,0c0.1,0.1,0.2,0.2,0.4,0.3c1.2,0.7,5.1,2.6,9.5,4.6c-5.1,2.3-9.8,4.4-10.6,4.7
		c-0.4,0-1.8,0.1-3.7-0.7c-0.5-0.2-1.1,0-1.3,0.5c-0.2,0.5,0,1.1,0.5,1.3c1.1,0.5,2.1,0.7,2.9,0.8c-0.3,0.7-0.4,1.6,0,2.7
		c0.1,0.4,0.5,0.6,0.9,0.6c0.1,0,0.2,0,0.3-0.1c0.5-0.2,0.8-0.8,0.6-1.3c-0.4-1.1,0.2-1.9,0.5-2.1c1-0.5,6.6-2.9,12.2-5.5
		c5.6,2.5,11.1,5,12.2,5.5c0.2,0.2,0.9,1,0.5,2.1c-0.2,0.5,0.1,1.1,0.6,1.3c0.1,0,0.2,0.1,0.3,0.1c0.4,0,0.8-0.2,0.9-0.6
		c0.4-1.1,0.3-2,0-2.7c0.8-0.1,1.8-0.3,2.9-0.8C42,43.2,42.2,42.6,42,42.1z"/>
</g>
</svg>
