<?xml version="1.0" encoding="utf-8"?>
<!-- Generator: Adobe Illustrator 18.0.0, SVG Export Plug-In . SVG Version: 6.00 Build 0)  -->
<!DOCTYPE svg PUBLIC "-//W3C//DTD SVG 1.1//EN" "http://www.w3.org/Graphics/SVG/1.1/DTD/svg11.dtd">
<svg version="1.1" id="Layer_1" xmlns="http://www.w3.org/2000/svg" xmlns:xlink="http://www.w3.org/1999/xlink" x="0px" y="0px"
	 viewBox="0 0 48 48" enable-background="new 0 0 48 48" xml:space="preserve">
<g>
	<path fill="#F04B36" d="M45.5,5.6c-0.8-0.8-1.9-1.3-3-1.3c-1.1,0-2.2,0.4-3,1.3c-0.8,0.8-1.2,1.8-1.2,3L26.2,19.8
		c-0.3,0.3-0.4,0.7-0.2,1.1c0.1,0.4,0.5,0.6,0.9,0.6h7.4c0.3,0,0.5-0.1,0.7-0.3l7.6-8.3c1.1-0.1,2-0.5,2.8-1.2
		C47.1,10,47.1,7.3,45.5,5.6z"/>
	<path fill="#CFD0D1" d="M44.9,19.5H3.1c-1.4,0-2.6,1.2-2.6,2.6v1c0,1.2,0.8,2.2,1.8,2.5c0.8,7.9,5.9,14.9,13.3,18
		c0.1,0,0.2,0.1,0.4,0.1H32c0.1,0,0.3,0,0.4-0.1c7.4-3.1,12.6-10.1,13.3-18c1.1-0.3,1.8-1.3,1.8-2.5v-1
		C47.5,20.7,46.3,19.5,44.9,19.5z"/>
</g>
</svg>
