<?xml version="1.0" encoding="utf-8"?>
<!-- Generator: Adobe Illustrator 18.0.0, SVG Export Plug-In . SVG Version: 6.00 Build 0)  -->
<!DOCTYPE svg PUBLIC "-//W3C//DTD SVG 1.1//EN" "http://www.w3.org/Graphics/SVG/1.1/DTD/svg11.dtd">
<svg version="1.1" id="Layer_1" xmlns="http://www.w3.org/2000/svg" xmlns:xlink="http://www.w3.org/1999/xlink" x="0px" y="0px"
	 viewBox="0 0 48 48" enable-background="new 0 0 48 48" xml:space="preserve">
<g>
	<path fill="#FFD69A" d="M47.4,23.7c0,0,0-0.1,0-0.1c-0.2-0.5-6.2-11.4-23.9-11.4C9.7,12.1,1.3,22.7,0.7,23.4c0,0,0,0,0,0
		c0,0,0,0,0,0c0,0,0,0.1-0.1,0.1c0,0.1-0.1,0.1-0.1,0.2c0,0.1,0,0.1,0,0.2c0,0.1,0,0.1,0,0.2c0,0.1,0,0.1,0.1,0.2c0,0,0,0.1,0,0.1
		c0.2,0.5,6.2,11.4,23.9,11.4c13.8,0,22.3-10.6,22.8-11.3c0,0,0,0,0,0c0,0,0,0,0,0c0,0,0-0.1,0.1-0.1c0-0.1,0.1-0.1,0.1-0.2
		c0-0.1,0-0.1,0-0.2c0-0.1,0-0.1,0-0.2C47.5,23.8,47.5,23.8,47.4,23.7z M24,34.8c-6,0-10.8-4.9-10.8-10.8c0-6,4.9-10.8,10.8-10.8
		c6,0,10.8,4.9,10.8,10.8C34.8,30,30,34.8,24,34.8z"/>
	<path fill="#294E58" d="M24,18.7c-2.9,0-5.3,2.4-5.3,5.3c0,2.9,2.4,5.3,5.3,5.3s5.3-2.4,5.3-5.3C29.3,21.1,26.9,18.7,24,18.7z"/>
</g>
</svg>
