<?xml version="1.0" encoding="utf-8"?>
<!-- Generator: Adobe Illustrator 18.0.0, SVG Export Plug-In . SVG Version: 6.00 Build 0)  -->
<!DOCTYPE svg PUBLIC "-//W3C//DTD SVG 1.1//EN" "http://www.w3.org/Graphics/SVG/1.1/DTD/svg11.dtd">
<svg version="1.1" id="Layer_1" xmlns="http://www.w3.org/2000/svg" xmlns:xlink="http://www.w3.org/1999/xlink" x="0px" y="0px"
	 viewBox="0 0 48 48" enable-background="new 0 0 48 48" xml:space="preserve">
<g>
	<path fill="#F04B36" d="M26.9,17.8c-4.5,0-8.1,3.7-8.1,8.1c0,4.5,3.7,8.1,8.1,8.1c4.5,0,8.2-3.7,8.2-8.1
		C35,21.4,31.4,17.8,26.9,17.8z"/>
	<path fill="#4DA0D8" d="M29.8,12c2.9,0,5.2-2.3,5.2-5.2c0-2.9-2.3-5.2-5.2-5.2c-2.9,0-5.2,2.3-5.2,5.2C24.6,9.7,27,12,29.8,12z"/>
	<path fill="#0DB89A" d="M41.9,35.2c-3.1,0-5.6,2.5-5.6,5.6c0,3.1,2.5,5.6,5.6,5.6c3.1,0,5.6-2.5,5.6-5.6
		C47.5,37.7,45,35.2,41.9,35.2z"/>
	<path fill="#E77528" d="M7.1,32.1c-3.7,0-6.6,3-6.6,6.6c0,3.7,3,6.6,6.6,6.6c3.7,0,6.6-3,6.6-6.6C13.8,35.1,10.8,32.1,7.1,32.1z"/>
	<path fill="#294E58" d="M26.9,18.9c-0.1,0-0.1,0-0.2,0c-0.5-0.1-0.9-0.6-0.8-1.2l1.4-6.9c0.1-0.5,0.6-0.9,1.2-0.8
		c0.5,0.1,0.9,0.6,0.8,1.2l-1.4,6.9C27.7,18.6,27.3,18.9,26.9,18.9z"/>
	<path fill="#294E58" d="M38.5,38.6c-0.2,0-0.4-0.1-0.6-0.2l-7.4-5.9c-0.4-0.3-0.5-1-0.2-1.4c0.3-0.4,1-0.5,1.4-0.2l7.4,5.9
		c0.4,0.3,0.5,1,0.2,1.4C39.1,38.4,38.8,38.6,38.5,38.6z"/>
	<path fill="#294E58" d="M12.1,35.6c-0.3,0-0.6-0.2-0.8-0.4c-0.3-0.4-0.2-1.1,0.3-1.4l7.6-5.1c0.4-0.3,1.1-0.2,1.4,0.3
		c0.3,0.5,0.2,1.1-0.3,1.4l-7.6,5.1C12.5,35.6,12.3,35.6,12.1,35.6z"/>
</g>
</svg>
