<?xml version="1.0" encoding="utf-8"?>
<!-- Generator: Adobe Illustrator 18.0.0, SVG Export Plug-In . SVG Version: 6.00 Build 0)  -->
<!DOCTYPE svg PUBLIC "-//W3C//DTD SVG 1.1//EN" "http://www.w3.org/Graphics/SVG/1.1/DTD/svg11.dtd">
<svg version="1.1" id="Layer_1" xmlns="http://www.w3.org/2000/svg" xmlns:xlink="http://www.w3.org/1999/xlink" x="0px" y="0px"
	 viewBox="0 0 48 48" enable-background="new 0 0 48 48" xml:space="preserve">
<g>
	<path fill="#4DA0D8" d="M24,0.5C11,0.5,0.5,11,0.5,24C0.5,37,11,47.5,24,47.5C37,47.5,47.5,37,47.5,24C47.5,11,37,0.5,24,0.5z
		 M25.5,40.6c-6.5,0-12.9-0.9-16.4-7.7C6.2,27.3,5.7,22,7.7,17.7c0.7-1.5,2.5-2.2,4-1.5c1.5,0.7,2.2,2.5,1.5,4
		c-1.2,2.6-0.8,6,1.3,10c1.9,3.7,5.5,4.4,11.1,4.4c0,0,0,0,0,0c1.7,0,3,1.3,3,3C28.6,39.3,27.3,40.6,25.5,40.6z M25.6,14.6
		c-0.2-0.9-0.6-1.1-0.9-1.3c-1.3-0.7-4.1-0.3-7.1,0.8c-1.5,0.6-3.3-0.2-3.9-1.7c-0.6-1.5,0.2-3.3,1.7-3.9c2.8-1.1,8.1-2.6,12-0.6
		c2,1,3.4,2.8,3.9,5.2c0.4,1.5-0.4,3-1.8,3.5c-0.1,0-0.2,0.1-0.4,0.1C27.7,17.2,26,16.2,25.6,14.6z M33.6,33.7
		c-0.4,0.2-0.8,0.2-1.2,0.2c-1.2,0-2.3-0.7-2.8-1.9c-0.6-1.5,0.1-3.3,1.6-3.9c2.1-0.9,3.6-2.3,4.1-3.9c0.4-1.2,0.2-2.5-0.6-3.8
		c-0.8-1.4-0.4-3.3,1.1-4.1c1.4-0.8,3.3-0.4,4.1,1.1c1.7,2.9,2.1,5.9,1.1,8.8C40,29.4,37.3,32.1,33.6,33.7z"/>
</g>
</svg>
