<?xml version="1.0" encoding="utf-8"?>
<!-- Generator: Adobe Illustrator 18.0.0, SVG Export Plug-In . SVG Version: 6.00 Build 0)  -->
<!DOCTYPE svg PUBLIC "-//W3C//DTD SVG 1.1//EN" "http://www.w3.org/Graphics/SVG/1.1/DTD/svg11.dtd">
<svg version="1.1" id="Layer_1" xmlns="http://www.w3.org/2000/svg" xmlns:xlink="http://www.w3.org/1999/xlink" x="0px" y="0px"
	 viewBox="0 0 48 48" enable-background="new 0 0 48 48" xml:space="preserve">
<g>
	<path fill="#F04B36" d="M45.4,16.8c-3-6.8-9.1-11.5-13.2-12.1c-1.6-0.2-3.1-0.4-4.3-0.4c-1.5,0-2.5,0.2-3.3,0.4V0.5h-5.6v8
		c-0.4,0.6-1.1,2.1-0.9,4c0.3,2.4,1.8,4.7,4.6,6.9c2.7,2.1,3.8,4.8,3,7.2c-0.8,2.4-3.5,3.8-6.5,3.2c-1-0.2-2-0.4-3.1-0.7
		c-2.9-0.6-5.8-1.3-8.4-1.3c-4.5,0-6.8,2.2-6.8,6.4v13.2h6.5l0-8.8c0-0.2,0.1-1.3,1.6-1.3c0.8,0,2.3,0.3,4.9,1.9
		c2.5,1.5,7.5,4,13.5,4c6.8,0,12.6-3.3,16.8-9.6C48.5,27.2,47.2,20.9,45.4,16.8z"/>
</g>
</svg>
