<?xml version="1.0" encoding="utf-8"?>
<!-- Generator: Adobe Illustrator 18.0.0, SVG Export Plug-In . SVG Version: 6.00 Build 0)  -->
<!DOCTYPE svg PUBLIC "-//W3C//DTD SVG 1.1//EN" "http://www.w3.org/Graphics/SVG/1.1/DTD/svg11.dtd">
<svg version="1.1" id="Layer_1" xmlns="http://www.w3.org/2000/svg" xmlns:xlink="http://www.w3.org/1999/xlink" x="0px" y="0px"
	 viewBox="0 0 48 48" enable-background="new 0 0 48 48" xml:space="preserve">
<g>
	<path fill="#0DB89A" d="M43.6,10L18.5,0.6c-0.2-0.1-0.5-0.1-0.7,0c-0.2,0.1-0.4,0.3-0.5,0.5L15.4,6c-0.1,0.2-0.1,0.5,0,0.7
		c0.1,0.2,0.3,0.4,0.5,0.5l2.5,0.9l-1.1,3c-1.4,3.6-1,7.6,0.9,10.7c-3.5,1-6.3,3.8-7.7,7.4l-1.1,3l-2.5-0.9
		c-0.5-0.2-1.1,0.1-1.3,0.6l-1.8,4.8c-0.1,0.2-0.1,0.5,0,0.7C4,37.7,4.2,37.9,4.4,38l25.1,9.4c0.1,0,0.2,0.1,0.3,0.1
		c0.4,0,0.8-0.2,0.9-0.6l1.8-4.8c0.1-0.2,0.1-0.5,0-0.7c-0.1-0.2-0.3-0.4-0.5-0.5l-2.5-0.9l1.1-3c1.4-3.6,1-7.6-0.9-10.7
		c3.5-1,6.3-3.8,7.7-7.4l1.1-3l2.5,0.9c0.2,0.1,0.5,0.1,0.7,0c0.2-0.1,0.4-0.3,0.5-0.5l1.8-4.8C44.3,10.7,44.1,10.2,43.6,10z
		 M34.3,18.8c-1.4,2.6-3.8,4.5-6.5,4.9l-3.3,0.5l2.2,2.6c2,2.4,2.5,5.9,1.4,9.1l-1.2,3.1L12,33.3l1.2-3.1c1.2-3.1,3.9-5.5,7-5.9
		l3.3-0.5l-2.2-2.6c-0.6-0.7-1.1-1.5-1.4-2.4l-0.5-1.3l15.7-0.1L34.3,18.8z"/>
</g>
</svg>
