<?xml version="1.0" encoding="utf-8"?>
<!-- Generator: Adobe Illustrator 18.0.0, SVG Export Plug-In . SVG Version: 6.00 Build 0)  -->
<!DOCTYPE svg PUBLIC "-//W3C//DTD SVG 1.1//EN" "http://www.w3.org/Graphics/SVG/1.1/DTD/svg11.dtd">
<svg version="1.1" id="Layer_1" xmlns="http://www.w3.org/2000/svg" xmlns:xlink="http://www.w3.org/1999/xlink" x="0px" y="0px"
	 viewBox="0 0 48 48" enable-background="new 0 0 48 48" xml:space="preserve">
<g>
	<path fill="#E77528" d="M41.4,35.1c-3.3,0-6.1,2.7-6.1,6.1c0,3.3,2.7,6.1,6.1,6.1c3.3,0,6.1-2.7,6.1-6.1
		C47.5,37.8,44.8,35.1,41.4,35.1z"/>
	<path fill="#E77528" d="M16.3,19.9c-0.3,0-0.6,0-1,0l2.4,13.4c0.1,0.8-0.4,1.5-1.2,1.7c-0.1,0-0.2,0-0.3,0c-0.7,0-1.3-0.5-1.4-1.2
		l-2.4-13.4c-5.7,1.7-9.8,6.9-9.8,13.1c0,7.5,6.1,13.7,13.7,13.7c7.5,0,13.7-6.1,13.7-13.7C30,26,23.9,19.9,16.3,19.9z"/>
	<path fill="#CFD0D1" d="M11.9,0.8H2c-0.8,0-1.5,0.7-1.5,1.5C0.5,3,1.2,3.7,2,3.7h7.5l3,16.8c0.9-0.3,1.9-0.4,2.9-0.5L11.9,0.8z"/>
	<path fill="#CFD0D1" d="M39.9,37.8c-0.8,0-1.5-0.7-1.5-1.5V17.9c0-4.6-4.7-4.8-4.9-4.8l-21.1,0c-0.8,0-1.5-0.7-1.5-1.5
		c0-0.8,0.7-1.5,1.5-1.5h21.1c2.7,0.1,7.8,1.8,7.8,7.7v18.4C41.3,37.1,40.7,37.8,39.9,37.8z"/>
	<path fill="#CFD0D1" d="M39.9,31.9H28.6c-0.8,0-1.5-0.7-1.5-1.5c0-0.8,0.7-1.5,1.5-1.5h11.2c0.8,0,1.5,0.7,1.5,1.5
		C41.3,31.3,40.7,31.9,39.9,31.9z"/>
</g>
</svg>
