<?xml version="1.0" encoding="utf-8"?>
<!-- Generator: Adobe Illustrator 18.0.0, SVG Export Plug-In . SVG Version: 6.00 Build 0)  -->
<!DOCTYPE svg PUBLIC "-//W3C//DTD SVG 1.1//EN" "http://www.w3.org/Graphics/SVG/1.1/DTD/svg11.dtd">
<svg version="1.1" id="Layer_1" xmlns="http://www.w3.org/2000/svg" xmlns:xlink="http://www.w3.org/1999/xlink" x="0px" y="0px"
	 viewBox="0 0 48 48" enable-background="new 0 0 48 48" xml:space="preserve">
<g>
	<path fill="#F7A93B" d="M28,0.5c-4.2,0-7.7,3.4-7.7,7.7c0,4.2,3.4,7.7,7.7,7.7c4.2,0,7.7-3.4,7.7-7.7C35.7,3.9,32.3,0.5,28,0.5z"/>
	<path fill="#06728D" d="M42,15l-13.4,1.2l-6.9-3l-9.4-8.7c-0.7-0.6-1.5-1-2.5-1c-1,0-2,0.4-2.6,1.1c-0.7,0.7-1,1.6-1,2.6
		c0,1,0.4,1.9,1.1,2.5l8.9,8.3L13,25l-6.8,0.3c-1.8,0.1-3.3,1.5-3.4,3.3l-0.7,9.2c-0.1,2,1.4,3.7,3.3,3.8c2,0.2,3.7-1.4,3.9-3.3
		l0.4-6.1l8.1-0.4l5,5.3l-4.5,4c-1.5,1.3-1.6,3.6-0.3,5.1c0.7,0.8,1.7,1.2,2.7,1.2c0.9,0,1.7-0.3,2.4-0.9l7.4-6.5
		c0.7-0.6,1.2-1.6,1.2-2.6c0-1-0.3-1.9-1-2.6l-5-5.2l3-6.2l14-1.3c2-0.2,3.4-1.9,3.3-3.9C45.7,16.3,44,14.8,42,15z"/>
</g>
</svg>
