<?xml version="1.0" encoding="utf-8"?>
<!-- Generator: Adobe Illustrator 18.0.0, SVG Export Plug-In . SVG Version: 6.00 Build 0)  -->
<!DOCTYPE svg PUBLIC "-//W3C//DTD SVG 1.1//EN" "http://www.w3.org/Graphics/SVG/1.1/DTD/svg11.dtd">
<svg version="1.1" id="Layer_1" xmlns="http://www.w3.org/2000/svg" xmlns:xlink="http://www.w3.org/1999/xlink" x="0px" y="0px"
	 viewBox="0 0 48 48" enable-background="new 0 0 48 48" xml:space="preserve">
<g>
	<path fill="#4DA0D8" d="M20.2,47.5c-0.8,0-1.4-0.6-1.4-1.4V22.2c-1.9-1.1-6.3-4.5-6.3-11.5c0-8.3,7.1-10.2,9.6-10.2
		c1.2,0,5.5,0.2,10.2,3.1c0.7,0.4,0.9,1.3,0.5,2c-0.4,0.7-1.3,0.9-2,0.5c-4.2-2.6-8-2.7-8.7-2.7c-0.1,0-6.8,0.2-6.8,7.3
		c0,6.8,5.2,9.2,5.4,9.3l0.9,0.4l0,0.9v24.7C21.6,46.9,21,47.5,20.2,47.5z"/>
	<path fill="#4DA0D8" d="M10.8,46.8c-0.2,0-0.3,0-0.5-0.1c-0.7-0.3-1.1-1.1-0.8-1.9c0.2-0.4,3.8-9.5,10.8-9.5c0.8,0,1.4,0.6,1.4,1.4
		c0,0.8-0.6,1.4-1.4,1.4c-5,0-8,7.6-8.1,7.7C11.9,46.5,11.3,46.8,10.8,46.8z"/>
	<path fill="#4DA0D8" d="M29.6,46.8c-0.6,0-1.1-0.3-1.3-0.9c0-0.1-3-7.7-8.1-7.7c-0.8,0-1.4-0.6-1.4-1.4c0-0.8,0.6-1.4,1.4-1.4
		c7,0,10.6,9.1,10.8,9.5c0.3,0.7-0.1,1.6-0.8,1.9C29.9,46.8,29.8,46.8,29.6,46.8z"/>
	<path fill="#F04B36" d="M32.8,3.5c-3.3,0-5.9,1.8-5.9,4c0,2.3,2.6,4,5.9,4c3.3,0,5.9-1.8,5.9-4C38.7,5.3,36.1,3.5,32.8,3.5z"/>
</g>
</svg>
