<?xml version="1.0" encoding="utf-8"?>
<!-- Generator: Adobe Illustrator 18.0.0, SVG Export Plug-In . SVG Version: 6.00 Build 0)  -->
<!DOCTYPE svg PUBLIC "-//W3C//DTD SVG 1.1//EN" "http://www.w3.org/Graphics/SVG/1.1/DTD/svg11.dtd">
<svg version="1.1" id="Layer_1" xmlns="http://www.w3.org/2000/svg" xmlns:xlink="http://www.w3.org/1999/xlink" x="0px" y="0px"
	 viewBox="0 0 48 48" enable-background="new 0 0 48 48" xml:space="preserve">
<g>
	<path fill="#06728D" d="M9,8.3c-3.3,0-6.1,2.7-6.1,6.1c0,3.3,2.7,6.1,6.1,6.1c3.3,0,6.1-2.7,6.1-6.1C15,11,12.3,8.3,9,8.3z"/>
	<path fill="#E77528" d="M38.1,17.1c-0.1,0-0.2,0-0.3,0c-0.5-0.1-0.8-0.7-0.7-1.2c1.7-6.2-2.5-8.4-2.5-8.4c0,0-0.1,0-0.1-0.1
		c-9.9-6.8-20.3,3.6-20.7,4.1c-0.4,0.4-1,0.4-1.4,0c-0.4-0.4-0.4-1,0-1.4c0.1-0.1,11.9-12,23.2-4.3c0.7,0.4,5.4,3.4,3.5,10.6
		C38.9,16.8,38.5,17.1,38.1,17.1z"/>
	<path fill="#E77528" d="M16.2,44.8C16.1,44.8,16.1,44.8,16.2,44.8c-3.9-0.1-6-2.3-7-4.1c-0.3-0.5-0.1-1.1,0.4-1.3
		c0.5-0.3,1.1-0.1,1.3,0.4c1.1,2,2.9,3.1,5.2,3.1c0,0,0,0,0.1,0c4.3,0,11.5-9.9,13.8-13.7c0.3-0.5,0.9-0.6,1.4-0.3
		c0.5,0.3,0.6,0.9,0.3,1.4C30.7,31.7,22.4,44.8,16.2,44.8z"/>
	<path fill="#294E58" d="M11.7,32.5C10.2,29.8,7.8,28,5.5,28c-0.7,0-1.3,0.1-1.8,0.4c-1,0.5-1.7,1.4-2,2.6c-0.6,1.9-0.2,4.3,0.9,6.4
		C4,40.2,6.5,42,8.8,42c0.7,0,1.3-0.1,1.8-0.4C13.2,40.2,13.6,36.2,11.7,32.5z"/>
	<path fill="#294E58" d="M5.5,25.9C5,25,4.1,24.5,3.1,24.5c-0.4,0-0.9,0.1-1.2,0.3c-0.6,0.3-1.1,0.9-1.3,1.6c-0.2,0.7-0.1,1.4,0.2,2
		c0.5,0.9,1.4,1.4,2.3,1.4c0.4,0,0.8-0.1,1.2-0.3C5.7,28.8,6.2,27.2,5.5,25.9z"/>
	<g>
		<path fill="#F04B36" d="M43.2,20c-2-5.1-7.2-5.7-9.7-5.3c-0.3,0-0.5,0.2-0.7,0.4l-7.1,11c0,0.1-0.1,0.1-0.1,0.2
			c-0.1,0.2-0.6,2.3,2.1,4.8c0.4,0.4,1,0.3,1.4,0c0.4-0.4,0.3-1,0-1.4c-1.1-1-1.4-1.9-1.5-2.3c0.5-0.2,2.1-0.6,4,0.8
			c2.3,1.7,2.7,2.3,3.1,3.6c-0.7,0.2-1.7,0.3-2.9-0.5c-0.5-0.3-1.1-0.2-1.4,0.3c-0.3,0.5-0.2,1.1,0.3,1.4c1.1,0.7,2.1,1,3,1
			c1.4,0,2.5-0.6,3-1c0.1-0.1,0.2-0.2,0.2-0.3l6.3-11.8C43.3,20.6,43.4,20.3,43.2,20z"/>
		<path fill="#F04B36" d="M47.4,24.8c-1-2.3-2.5-3.3-3.8-3.8l-6.2,12c1.8,0.9,2.7,3.5,2.7,3.5c0.1,0.4,0.5,0.7,0.9,0.7
			c0,0,0.1,0,0.1,0c0.4,0,0.7-0.2,0.9-0.5l5.5-11.1C47.5,25.4,47.5,25.1,47.4,24.8z"/>
	</g>
</g>
</svg>
