<?xml version="1.0" encoding="utf-8"?>
<!-- Generator: Adobe Illustrator 18.0.0, SVG Export Plug-In . SVG Version: 6.00 Build 0)  -->
<!DOCTYPE svg PUBLIC "-//W3C//DTD SVG 1.1//EN" "http://www.w3.org/Graphics/SVG/1.1/DTD/svg11.dtd">
<svg version="1.1" id="Layer_1" xmlns="http://www.w3.org/2000/svg" xmlns:xlink="http://www.w3.org/1999/xlink" x="0px" y="0px"
	 viewBox="0 0 48 48" enable-background="new 0 0 48 48" xml:space="preserve">
<g>
	<path fill="#294E58" d="M24,47.5c-1.9,0-3.5-1.6-3.5-3.5c0-1.6,1.1-3,2.5-3.4v-2.2c0-0.5,0.4-1,1-1c0.5,0,1,0.4,1,1v3.1
		c0,0.5-0.4,1-1,1c-0.9,0-1.6,0.7-1.6,1.6s0.7,1.6,1.6,1.6c0.9,0,1.6-0.7,1.6-1.6c0-0.5,0.4-1,1-1s1,0.4,1,1
		C27.5,45.9,25.9,47.5,24,47.5z"/>
	<path fill="#F04B36" d="M24,10c-0.5,0-1-0.4-1-1V4c0-1.9,1.6-3.5,3.5-3.5c1.9,0,3.5,1.6,3.5,3.5c0,0.5-0.4,1-1,1s-1-0.4-1-1
		c0-0.9-0.7-1.6-1.6-1.6C25.7,2.5,25,3.2,25,4v5C25,9.6,24.5,10,24,10z"/>
	<path fill="#06728D" d="M31,8.1H17c-0.5,0-1,0.4-1,1v20.7c0,0.2,0.1,0.4,0.2,0.6l7,8.6c0.2,0.2,0.5,0.4,0.8,0.4
		c0.3,0,0.6-0.1,0.8-0.4l7-8.6c0.1-0.2,0.2-0.4,0.2-0.6V9.1C32,8.5,31.5,8.1,31,8.1z M24.4,27.5h-7.1c-0.5,0-1-0.4-1-1
		c0-0.5,0.4-1,1-1h7.1c0.5,0,1,0.4,1,1C25.4,27.1,25,27.5,24.4,27.5z M24.4,23.2h-7.1c-0.5,0-1-0.4-1-1c0-0.5,0.4-1,1-1h7.1
		c0.5,0,1,0.4,1,1C25.4,22.8,25,23.2,24.4,23.2z M24.4,18.9h-7.1c-0.5,0-1-0.4-1-1c0-0.5,0.4-1,1-1h7.1c0.5,0,1,0.4,1,1
		C25.4,18.5,25,18.9,24.4,18.9z M24.4,14.6h-7.1c-0.5,0-1-0.4-1-1c0-0.5,0.4-1,1-1h7.1c0.5,0,1,0.4,1,1C25.4,14.2,25,14.6,24.4,14.6
		z"/>
</g>
</svg>
