<?xml version="1.0" encoding="utf-8"?>
<!-- Generator: Adobe Illustrator 18.0.0, SVG Export Plug-In . SVG Version: 6.00 Build 0)  -->
<!DOCTYPE svg PUBLIC "-//W3C//DTD SVG 1.1//EN" "http://www.w3.org/Graphics/SVG/1.1/DTD/svg11.dtd">
<svg version="1.1" id="Layer_1" xmlns="http://www.w3.org/2000/svg" xmlns:xlink="http://www.w3.org/1999/xlink" x="0px" y="0px"
	 viewBox="0 0 48 48" enable-background="new 0 0 48 48" xml:space="preserve">
<g>
	<path fill="#06728D" d="M44,11.8H23.5c-5.2,0-8.7-2.7-8.7-2.8c-0.6-0.5-1.3-0.7-2-0.7c-1,0-1.9,0.4-2.5,1.2
		c-0.5,0.7-0.8,1.5-0.7,2.4c0.1,0.9,0.5,1.6,1.2,2.2c0.2,0.2,5.2,4.2,12.8,4.2H44c1.8,0,3.3-1.5,3.3-3.3
		C47.3,13.3,45.8,11.8,44,11.8z"/>
	<path fill="#F7A93B" d="M6.1,1.6c-2.1,0-3.9,1.7-3.9,3.9c0,2.1,1.7,3.9,3.9,3.9c2.1,0,3.9-1.7,3.9-3.9C10,3.3,8.2,1.6,6.1,1.6z"/>
	<path fill="#E77528" d="M46.1,20.5H13l-3.7-3.4c0,0,0,0,0,0l-6.4-5.9c-0.6-0.5-1.5-0.5-2,0.1c-0.5,0.6-0.5,1.5,0.1,2l5.9,5.5v18.6
		c0,0.8,0.6,1.4,1.4,1.4c0.8,0,1.4-0.6,1.4-1.4v-2.1h29.2v2.1c0,0.8,0.6,1.4,1.4,1.4c0.8,0,1.4-0.6,1.4-1.4V23.4h4.3
		c0.8,0,1.4-0.6,1.4-1.4C47.5,21.2,46.9,20.5,46.1,20.5z M9.7,32.4v-4.8h29.2v4.8H9.7z"/>
	<path fill="#F04B36" d="M8.3,36.4c-2.8,0-5,2.3-5,5c0,2.8,2.3,5,5,5s5-2.3,5-5C13.3,38.6,11.1,36.4,8.3,36.4z"/>
	<path fill="#F04B36" d="M40.3,36.4c-2.8,0-5,2.3-5,5c0,2.8,2.3,5,5,5c2.8,0,5-2.3,5-5C45.4,38.6,43.1,36.4,40.3,36.4z"/>
</g>
</svg>
