<?xml version="1.0" encoding="utf-8"?>
<!-- Generator: Adobe Illustrator 18.0.0, SVG Export Plug-In . SVG Version: 6.00 Build 0)  -->
<!DOCTYPE svg PUBLIC "-//W3C//DTD SVG 1.1//EN" "http://www.w3.org/Graphics/SVG/1.1/DTD/svg11.dtd">
<svg version="1.1" id="Layer_1" xmlns="http://www.w3.org/2000/svg" xmlns:xlink="http://www.w3.org/1999/xlink" x="0px" y="0px"
	 viewBox="0 0 48 48" enable-background="new 0 0 48 48" xml:space="preserve">
<g>
	<path fill="#F04B36" d="M45.6,34c-0.7-10.1-2-20.3-8.5-23L35.9,10c0.4-1.5,1.5-4,2-5c0.2-0.3,0.3-0.8,0-1.4
		c-1.4-2.5-4.7-2.5-4.8-2.5c-0.2,0-0.3,0-0.5,0.1c-1.8,0.9-3.1,4.3-3.8,6.2c-0.7-0.2-1.5-0.3-2.4-0.3c-1.8,0-3.5,0.4-4.6,0.7l-1.4-6
		c0-0.2-0.2-0.4-0.3-0.5c-0.7-0.6-1.6-1-2.5-1c-2.3,0-4.3,2-4.6,2.3c-0.2,0.2-0.3,0.6-0.2,0.9l1.6,7.4l-2,1.2
		c-0.1,0.1-0.2,0.1-0.2,0.2c0,0,0,0-0.1,0.1C9.3,10,7,8.5,5.2,8.4C4.8,8.3,4.4,8.6,4.2,9l-1.9,4.5c-0.2,0.5,0,1,0.4,1.2
		c0,0,3.6,2,6.5,4.5C8.5,22.9,9,26.9,10.7,31c4.3,10.7,17,13.6,21.8,14.7c0.3,0.1,0.6,0.1,0.9,0.2c0.8,0.2,1.6,0.4,2.4,0.7
		c1.6,0.5,3.2,1,4.5,1c1,0,1.9-0.3,2.6-0.9C44.9,44.7,46.2,42.9,45.6,34z"/>
</g>
</svg>
