<?xml version="1.0" encoding="utf-8"?>
<!-- Generator: Adobe Illustrator 18.0.0, SVG Export Plug-In . SVG Version: 6.00 Build 0)  -->
<!DOCTYPE svg PUBLIC "-//W3C//DTD SVG 1.1//EN" "http://www.w3.org/Graphics/SVG/1.1/DTD/svg11.dtd">
<svg version="1.1" id="Layer_1" xmlns="http://www.w3.org/2000/svg" xmlns:xlink="http://www.w3.org/1999/xlink" x="0px" y="0px"
	 viewBox="0 0 48 48" enable-background="new 0 0 48 48" xml:space="preserve">
<g>
	<path fill="#F7A93B" d="M33.7,17.4c-0.6-1.1-1.3-2.1-1.9-3c-0.6-0.8-1.1-1.6-1.6-2.5c-0.7-1.2-1-2.7-1.4-4.1L28.6,7
		c-0.2-0.6-0.2-1.5-0.2-2.4c0-1.2,0-2.5-0.4-3.5c-0.1-0.3-0.5-0.5-0.8-0.6l-8.7-0.1c-0.3,0-0.6,0.1-0.8,0.4
		c-0.2,0.2-0.2,0.6-0.1,0.8c0.4,1.1,0.3,3.1,0.1,4.7c0,0.6-0.1,1.1-0.1,1.5c-0.1,1.7-0.8,3.6-2.3,5.8c-1.6,2.3-2.2,4.3-2.2,6.8
		c0,2.2,1.7,3.6,4.4,3.6c0.5,0,1.1-0.1,1.6-0.2c0.5-0.1,0.9-0.2,1.3-0.3c0.7-0.2,1.3-0.4,2.1-0.4c1.1,0,2,0.1,3.1,0.5l0.6,0.2
		c1.4,0.4,3,1,4.6,1c0.8,0,1.4-0.1,2-0.4c0.8-0.3,1.3-0.9,1.6-1.8C35.2,21,34.3,18.5,33.7,17.4z"/>
	<path fill="#F7A93B" d="M32.3,29.3c-0.5-1.7-2.3-1.9-3.7-2.1c-0.5-0.1-0.9-0.1-1.2-0.2c-0.4-0.1-0.7-0.4-1.1-0.7
		c-0.3-0.2-0.5-0.4-0.8-0.6c-0.5-0.3-1.2-0.4-2-0.4c-0.3,0-0.6,0-0.8,0.1c-1.3,0.2-2.1,0.8-2.8,1.4c-0.3,0.3-0.6,0.5-1,0.7
		c-0.2,0.1-0.5,0.2-0.9,0.2c-0.5,0.1-1.2,0.2-1.8,0.6c-1.3,1-1.3,2.2-1.2,3.2c0.1,1.6,1.1,2.9,1.9,4c0.3,0.4,0.6,0.8,0.8,1.2
		c1.1,1.9,1.4,4.2,1.7,6.5c0.1,1.1,0.3,2.3,0.6,3.5c0.1,0.4,0.5,0.7,0.9,0.7c0,0,0,0,0.1,0l7.2-0.4c0.5,0,0.9-0.4,0.9-0.9
		c0-3.4,0.6-6.7,2.1-11c0.1-0.4,0.3-0.8,0.5-1.3C32.1,32.6,32.8,31.1,32.3,29.3z"/>
</g>
</svg>
