<?xml version="1.0" encoding="utf-8"?>
<!-- Generator: Adobe Illustrator 18.0.0, SVG Export Plug-In . SVG Version: 6.00 Build 0)  -->
<!DOCTYPE svg PUBLIC "-//W3C//DTD SVG 1.1//EN" "http://www.w3.org/Graphics/SVG/1.1/DTD/svg11.dtd">
<svg version="1.1" id="Layer_1" xmlns="http://www.w3.org/2000/svg" xmlns:xlink="http://www.w3.org/1999/xlink" x="0px" y="0px"
	 viewBox="0 0 48 48" enable-background="new 0 0 48 48" xml:space="preserve">
<g>
	<path fill="#E77528" d="M47.5,13.1c-0.1-1-0.7-1.8-1.6-2.4C45.1,10.2,44,10,42.4,10c-1,0-2.1,0.1-3,0.2c-0.7,0.1-1.4,0.1-2,0.1
		c-4.8,0-9-1.7-13.4-3.4c-1.8-0.7-3.8-1.5-5.7-2.2c-2.9-0.9-6.9-0.6-10.1,0.8c-4.5,2-6.4,7.5-6.9,9.2c-0.9,3.2-0.9,6.5-0.9,9.6
		c0,0.6,0,1.1,0,1.7l0,10.3l0.1,1.9c0.1,3.3,2.4,5.7,5.7,5.7c0.9,0,1.9-0.2,2.8-0.6c1.9-0.8,3.4-2.4,4.9-4.1
		c0.8-0.9,1.5-1.7,2.3-2.4c0.3-0.2,0.5-0.4,0.8-0.6c1-0.8,1.9-1.6,2.9-2.1c1-0.6,2.1-1,3.3-1.4c0.7-0.3,1.5-0.5,2.2-0.8l1.2-0.5
		c3.6-1.5,7-3,10.3-5.5c2.9-2.2,5.2-4.1,7.6-6.6C45.1,18.7,47.8,15.7,47.5,13.1z"/>
</g>
</svg>
