<?xml version="1.0" encoding="utf-8"?>
<!-- Generator: Adobe Illustrator 18.0.0, SVG Export Plug-In . SVG Version: 6.00 Build 0)  -->
<!DOCTYPE svg PUBLIC "-//W3C//DTD SVG 1.1//EN" "http://www.w3.org/Graphics/SVG/1.1/DTD/svg11.dtd">
<svg version="1.1" id="Layer_1" xmlns="http://www.w3.org/2000/svg" xmlns:xlink="http://www.w3.org/1999/xlink" x="0px" y="0px"
	 viewBox="0 0 48 48" enable-background="new 0 0 48 48" xml:space="preserve">
<g>
	<path fill="#F7A93B" d="M24,0.5c-5.6,0-10.2,4.6-10.2,10.2c0,5.6,4.6,10.2,10.2,10.2s10.2-4.6,10.2-10.2C34.2,5.1,29.6,0.5,24,0.5z
		"/>
	<path fill="#06728D" d="M31.9,23.8c0.4,1.6,0.9,4.4,0.7,6.1c1.5,1.3,5.4,5.3,4.6,9.1c0,0-0.4,2.3-3.2,3.2c-0.1,0-0.2,0.1-0.3,0.1
		c-0.4,0-0.8-0.3-0.9-0.7c-0.2-0.5,0.1-1.1,0.6-1.2c1.6-0.6,1.9-1.7,1.9-1.7c0.6-2.7-2.4-5.9-4-7.3c-2,0.9-5.6,3.3-5.8,5.9
		c0,0.1-0.1,1.3,1.3,2.2c0.4,0.3,0.6,0.9,0.3,1.4c-0.2,0.3-0.5,0.4-0.8,0.4c-0.2,0-0.4-0.1-0.5-0.2c-2.4-1.6-2.2-3.9-2.2-4
		c0.2-4.1,5.6-7,7.1-7.7c0.1-1.5-0.5-4.5-1-6.2c0-0.1,0-0.1,0-0.2c-1.4-0.4-2.9-0.6-4.5-0.6h-2.5c-1.7,0-3.4,0.3-5,0.7
		c0,0.1,0,0.1-0.1,0.2c0,0-2.1,4.4-3.2,11.2c1.7,0.5,3,2,3,3.9c0,2.2-1.8,4-4,4c-2.2,0-4-1.8-4-4c0-1.9,1.3-3.5,3.1-3.9
		c0.7-4.7,1.9-8.4,2.7-10.3C9.6,27,5.7,32.8,5.7,39.5v7c0,0.5,0.4,1,1,1h34.7c0.5,0,1-0.5,1-1v-7C42.3,32.5,38,26.4,31.9,23.8z"/>
</g>
</svg>
