<?xml version="1.0" encoding="utf-8"?>
<!-- Generator: Adobe Illustrator 18.0.0, SVG Export Plug-In . SVG Version: 6.00 Build 0)  -->
<!DOCTYPE svg PUBLIC "-//W3C//DTD SVG 1.1//EN" "http://www.w3.org/Graphics/SVG/1.1/DTD/svg11.dtd">
<svg version="1.1" id="Layer_1" xmlns="http://www.w3.org/2000/svg" xmlns:xlink="http://www.w3.org/1999/xlink" x="0px" y="0px"
	 viewBox="0 0 48 48" enable-background="new 0 0 48 48" xml:space="preserve">
<g>
	<path fill="none" d="M38.5,15.7H9.8c-0.8,0-1.4,0.6-1.4,1.4c0,0.8,0.6,1.4,1.4,1.4h28.8c0.8,0,1.4-0.6,1.4-1.4
		C39.9,16.3,39.3,15.7,38.5,15.7z"/>
	<polygon fill="none" points="25.4,23.7 22.6,23.7 22.6,30.1 16.2,30.1 16.2,32.9 22.6,32.9 22.6,39.3 25.4,39.3 25.4,32.9 
		31.8,32.9 31.8,30.1 25.4,30.1 	"/>
	<path fill="#4DA0D8" d="M18,1.9c0-0.8-0.6-1.4-1.4-1.4s-1.4,0.6-1.4,1.4v1.7H18V1.9z"/>
	<path fill="#4DA0D8" d="M32.9,1.9c0-0.8-0.6-1.4-1.4-1.4S30,1.1,30,1.9v1.7h2.9V1.9z"/>
	<path fill="#0DB89A" d="M36.1,4.5h-3.2v7c0,0.8-0.6,1.4-1.4,1.4S30,12.3,30,11.5v-7H18v7c0,0.8-0.6,1.4-1.4,1.4s-1.4-0.6-1.4-1.4
		v-7h-3.2c-2.3,0-4.1,1.9-4.1,4.1v34.8c0,2.3,1.9,4.1,4.1,4.1h24.2c2.3,0,4.1-1.9,4.1-4.1V8.6C40.2,6.3,38.4,4.5,36.1,4.5z
		 M31.8,32.9h-6.4v6.4h-2.9v-6.4h-6.4v-2.9h6.4v-6.4h2.9v6.4h6.4V32.9z M38.5,18.5H9.8c-0.8,0-1.4-0.6-1.4-1.4
		c0-0.8,0.6-1.4,1.4-1.4h28.8c0.8,0,1.4,0.6,1.4,1.4C39.9,17.9,39.3,18.5,38.5,18.5z"/>
</g>
</svg>
