<?xml version="1.0" encoding="utf-8"?>
<!-- Generator: Adobe Illustrator 18.0.0, SVG Export Plug-In . SVG Version: 6.00 Build 0)  -->
<!DOCTYPE svg PUBLIC "-//W3C//DTD SVG 1.1//EN" "http://www.w3.org/Graphics/SVG/1.1/DTD/svg11.dtd">
<svg version="1.1" id="Layer_1" xmlns="http://www.w3.org/2000/svg" xmlns:xlink="http://www.w3.org/1999/xlink" x="0px" y="0px"
	 viewBox="0 0 48 48" enable-background="new 0 0 48 48" xml:space="preserve">
<g>
	<path fill="#F04B36" d="M34.7,9.4c-0.6,0-1-0.5-1-1V4.6c0-1.2-0.9-2.1-2.1-2.1H16.4c-1.2,0-2.1,0.9-2.1,2.1v3.8c0,0.6-0.5,1-1,1
		c-0.6,0-1-0.5-1-1V4.6c0-2.3,1.9-4.1,4.1-4.1h15.1c2.3,0,4.1,1.9,4.1,4.1v3.8C35.7,9,35.2,9.4,34.7,9.4z"/>
	<path fill="#06728D" d="M44.3,8.4H3.7c-1.7,0-3.1,1.4-3.1,3.1v9.9c0,1.7,1.4,3.1,3.1,3.1h5.6V22c0-0.6,0.5-1,1-1c0.6,0,1,0.5,1,1
		v2.5h25.2V22c0-0.6,0.5-1,1-1c0.6,0,1,0.5,1,1v2.5h5.6c1.7,0,3.1-1.4,3.1-3.1v-9.9C47.4,9.8,46,8.4,44.3,8.4z"/>
	<polygon fill="none" points="25,30 23,30 23,34.2 18.7,34.2 18.7,36.2 23,36.2 23,40.5 25,40.5 25,36.2 29.3,36.2 29.3,34.2 
		25,34.2 	"/>
	<path fill="#E77528" d="M42,26h-3.4v2c0,0.6-0.5,1-1,1c-0.6,0-1-0.5-1-1v-2H11.4v2c0,0.6-0.5,1-1,1c-0.6,0-1-0.5-1-1v-2H6
		c-1.7,0-3.1,1.4-3.1,3.1v15.2c0,1.7,1.4,3.1,3.1,3.1h36c1.7,0,3.1-1.4,3.1-3.1V29.1C45.1,27.4,43.7,26,42,26z M29.3,36.2H25v4.3h-2
		v-4.3h-4.3v-2H23V30h2v4.2h4.3V36.2z"/>
	<rect x="9.4" y="24.5" fill="#F7A93B" width="2" height="1.5"/>
	<rect x="36.6" y="24.5" fill="#F7A93B" width="2" height="1.5"/>
</g>
</svg>
