<?xml version="1.0" encoding="utf-8"?>
<!-- Generator: Adobe Illustrator 18.0.0, SVG Export Plug-In . SVG Version: 6.00 Build 0)  -->
<!DOCTYPE svg PUBLIC "-//W3C//DTD SVG 1.1//EN" "http://www.w3.org/Graphics/SVG/1.1/DTD/svg11.dtd">
<svg version="1.1" id="Layer_1" xmlns="http://www.w3.org/2000/svg" xmlns:xlink="http://www.w3.org/1999/xlink" x="0px" y="0px"
	 viewBox="0 0 48 48" enable-background="new 0 0 48 48" xml:space="preserve">
<g>
	<path fill="#E77528" d="M33.9,0.5c-0.3,0-0.5,0.1-0.7,0.3L0.8,33.2c-0.2,0.2-0.3,0.5-0.3,0.7c0.3,7.4,6.2,13.2,13.5,13.5
		c0,0,0,0,0,0c0.3,0,0.5-0.1,0.7-0.3l32.4-32.4c0.2-0.2,0.3-0.5,0.3-0.7C47.2,6.7,41.3,0.8,33.9,0.5z M39.5,8.5
		c0.3,0.3,0.4,0.7,0.4,1.1c0,0.4-0.2,0.8-0.4,1.1c-0.3,0.3-0.6,0.4-1,0.4c-0.4,0-0.8-0.2-1.1-0.4c-0.3-0.3-0.4-0.6-0.4-1
		c0-0.4,0.2-0.8,0.4-1.1C37.9,8,38.9,8,39.5,8.5z M37,13.1c-0.3,0.3-0.7,0.4-1.1,0.4c-0.4,0-0.8-0.2-1.1-0.4
		c-0.3-0.3-0.4-0.7-0.4-1.1c0-0.4,0.2-0.8,0.4-1.1c0.5-0.6,1.5-0.6,2.1,0C37.6,11.6,37.6,12.5,37,13.1z M34.8,3.9
		c0.6-0.6,1.6-0.6,2.1,0c0.6,0.6,0.6,1.5,0,2.1c-0.3,0.3-0.7,0.4-1.1,0.4c-0.4,0-0.8-0.2-1.1-0.4C34.3,5.5,34.3,4.5,34.8,3.9z
		 M32.4,6.4c0.6-0.6,1.6-0.6,2.1,0c0.6,0.6,0.6,1.5,0,2.1C34.2,8.8,33.8,9,33.4,9c-0.4,0-0.8-0.2-1.1-0.4C31.8,7.9,31.8,7,32.4,6.4z
		 M29.9,8.9c0.5-0.6,1.5-0.6,2.1,0c0.3,0.3,0.4,0.6,0.4,1c0,0.4-0.2,0.8-0.4,1.1c-0.3,0.3-0.7,0.4-1.1,0.4c-0.4,0-0.8-0.2-1.1-0.4
		c-0.3-0.3-0.4-0.7-0.4-1.1C29.4,9.5,29.6,9.2,29.9,8.9z M27.4,11.4c0.6-0.6,1.6-0.6,2.1,0c0.3,0.3,0.4,0.7,0.4,1.1
		c0,0.4-0.2,0.8-0.4,1.1c-0.3,0.3-0.7,0.4-1.1,0.4c-0.4,0-0.8-0.2-1.1-0.4C26.8,12.9,26.8,12,27.4,11.4z M14.1,33.9
		c-0.3-0.3-0.4-0.6-0.4-1c0-0.4,0.2-0.8,0.4-1.1c0.6-0.6,1.5-0.6,2.1,0c0.3,0.3,0.4,0.7,0.4,1.1c0,0.4-0.2,0.8-0.4,1.1
		c-0.3,0.3-0.6,0.4-1.1,0.4C14.8,34.3,14.4,34.2,14.1,33.9z M13.7,36.4c-0.3,0.3-0.7,0.4-1.1,0.4c-0.4,0-0.8-0.2-1.1-0.4
		c-0.6-0.6-0.6-1.5,0-2.1c0.6-0.6,1.5-0.6,2.1,0C14.3,34.9,14.3,35.8,13.7,36.4z M11.6,27.2c0.6-0.6,1.5-0.6,2.1,0
		c0.3,0.3,0.4,0.6,0.4,1c0,0.4-0.2,0.8-0.4,1.1c-0.3,0.3-0.7,0.4-1.1,0.4c-0.4,0-0.8-0.2-1.1-0.4c-0.3-0.3-0.4-0.7-0.4-1.1
		C11.1,27.9,11.3,27.5,11.6,27.2z M9.1,29.7c0.6-0.6,1.6-0.6,2.1,0c0.6,0.6,0.6,1.5,0,2.1c-0.3,0.3-0.7,0.4-1.1,0.4
		c-0.4,0-0.8-0.2-1.1-0.4C8.5,31.2,8.5,30.3,9.1,29.7z M6.3,36.8C6,37,5.6,37.2,5.2,37.2c-0.4,0-0.8-0.2-1.1-0.4
		c-0.6-0.6-0.6-1.5,0-2.1c0.6-0.6,1.6-0.6,2.1,0c0.3,0.3,0.4,0.7,0.4,1.1C6.7,36.1,6.5,36.5,6.3,36.8z M6.6,34.3
		c-0.3-0.3-0.4-0.7-0.4-1.1s0.2-0.8,0.4-1.1c0.5-0.6,1.5-0.6,2.1,0c0.3,0.3,0.4,0.7,0.4,1.1S9,34,8.7,34.3c-0.3,0.3-0.7,0.4-1.1,0.4
		C7.3,34.7,6.9,34.6,6.6,34.3z M9.1,38.9c-0.3-0.3-0.4-0.7-0.4-1.1c0-0.4,0.2-0.8,0.4-1.1c0.6-0.6,1.5-0.6,2.1,0
		c0.6,0.6,0.6,1.5,0,2.1c-0.3,0.3-0.7,0.4-1.1,0.4C9.8,39.3,9.4,39.1,9.1,38.9z M13.4,43.9c-0.3,0.3-0.6,0.4-1,0.4
		c-0.4,0-0.8-0.2-1.1-0.4c-0.3-0.3-0.4-0.6-0.4-1c0-0.4,0.2-0.8,0.4-1.1c0.6-0.6,1.5-0.6,2.1,0c0.3,0.3,0.4,0.7,0.4,1.1
		C13.8,43.2,13.6,43.6,13.4,43.9z M15.8,41.4c-0.3,0.3-0.7,0.4-1.1,0.4c-0.4,0-0.8-0.2-1.1-0.4c-0.3-0.3-0.4-0.7-0.4-1.1
		c0-0.4,0.2-0.8,0.4-1.1c0.5-0.6,1.5-0.6,2.1,0C16.4,39.8,16.4,40.8,15.8,41.4z M18.3,38.9c-0.3,0.3-0.6,0.4-1.1,0.4
		c-0.4,0-0.8-0.2-1.1-0.4c-0.3-0.3-0.4-0.7-0.4-1.1c0-0.4,0.2-0.8,0.4-1.1c0.6-0.6,1.5-0.6,2.1,0c0.3,0.3,0.4,0.7,0.4,1.1
		C18.8,38.2,18.6,38.6,18.3,38.9z M20.8,36.4c-0.3,0.3-0.7,0.4-1.1,0.4c-0.4,0-0.8-0.2-1.1-0.4c-0.3-0.3-0.4-0.7-0.4-1
		c0-0.4,0.2-0.8,0.4-1.1c0.6-0.6,1.5-0.6,2.1,0c0.3,0.3,0.4,0.7,0.4,1.1C21.2,35.8,21.1,36.1,20.8,36.4z M32.1,24.5l-7.6,7.6
		c-0.5,0.5-1.1,0.8-1.8,0.8c-0.7,0-1.3-0.3-1.8-0.8l-4.9-4.9c-1-1-1-2.7,0-3.7l7.6-7.6c1-1,2.7-1,3.7,0l4.9,4.9
		c0.5,0.5,0.8,1.1,0.8,1.8C32.8,23.3,32.6,24,32.1,24.5z M32.4,15.6c-0.3-0.3-0.4-0.6-0.4-1c0-0.4,0.2-0.8,0.4-1.1
		c0.6-0.6,1.5-0.6,2.1,0c0.3,0.3,0.4,0.6,0.4,1c0,0.4-0.2,0.8-0.4,1.1c-0.3,0.3-0.7,0.4-1.1,0.4C33.1,16,32.7,15.9,32.4,15.6z
		 M36.6,20.6C36.3,20.9,36,21,35.6,21c-0.4,0-0.8-0.2-1.1-0.4c-0.3-0.3-0.4-0.7-0.4-1.1c0-0.4,0.2-0.8,0.4-1.1
		c0.6-0.6,1.5-0.6,2.1,0c0.3,0.3,0.4,0.7,0.4,1.1C37.1,19.9,36.9,20.3,36.6,20.6z M39.1,18.1c-0.3,0.3-0.7,0.4-1.1,0.4
		c-0.4,0-0.8-0.2-1.1-0.4c-0.3-0.3-0.4-0.7-0.4-1.1c0-0.4,0.2-0.8,0.4-1.1c0.6-0.6,1.5-0.6,2.1,0c0.3,0.3,0.4,0.7,0.4,1.1
		C39.5,17.5,39.4,17.8,39.1,18.1z M41.6,15.6c-0.3,0.3-0.6,0.4-1.1,0.4c-0.4,0-0.8-0.2-1.1-0.4c-0.6-0.6-0.6-1.5,0-2.1
		c0.6-0.6,1.6-0.6,2.1,0c0.3,0.3,0.4,0.7,0.4,1.1C42,15,41.9,15.4,41.6,15.6z M44.1,13.2c-0.3,0.3-0.6,0.4-1.1,0.4
		c-0.4,0-0.8-0.2-1.1-0.4c-0.3-0.3-0.4-0.7-0.4-1.1c0-0.4,0.2-0.8,0.4-1.1c0.6-0.6,1.5-0.6,2.1,0c0.3,0.3,0.4,0.7,0.4,1.1
		C44.5,12.5,44.3,12.9,44.1,13.2z"/>
</g>
</svg>
