<?xml version="1.0" encoding="utf-8"?>
<!-- Generator: Adobe Illustrator 18.0.0, SVG Export Plug-In . SVG Version: 6.00 Build 0)  -->
<!DOCTYPE svg PUBLIC "-//W3C//DTD SVG 1.1//EN" "http://www.w3.org/Graphics/SVG/1.1/DTD/svg11.dtd">
<svg version="1.1" id="Layer_1" xmlns="http://www.w3.org/2000/svg" xmlns:xlink="http://www.w3.org/1999/xlink" x="0px" y="0px"
	 viewBox="0 0 48 48" enable-background="new 0 0 48 48" xml:space="preserve">
<g>
	<path fill="#0DB89A" d="M2.9,39.3c0,4.5,3.7,8.2,8.2,8.2h0c4.5,0,8.2-3.7,8.2-8.2V17.7H2.9V39.3z"/>
	<polygon fill="#CFD0D1" points="0.8,8 2.9,8 2.9,14.8 19.4,14.8 19.4,8 21.4,8 21.4,0.5 0.8,0.5 	"/>
	<polygon fill="#CFD0D1" points="47.2,8 47.2,0.5 26.6,0.5 26.6,8 28.6,8 28.6,14.8 45.1,14.8 45.1,8 	"/>
	<path fill="#F04B36" d="M28.6,39.3c0,4.5,3.7,8.2,8.2,8.2h0c4.5,0,8.2-3.7,8.2-8.2V17.7H28.6V39.3z"/>
</g>
</svg>
