<?xml version="1.0" encoding="utf-8"?>
<!-- Generator: Adobe Illustrator 18.0.0, SVG Export Plug-In . SVG Version: 6.00 Build 0)  -->
<!DOCTYPE svg PUBLIC "-//W3C//DTD SVG 1.1//EN" "http://www.w3.org/Graphics/SVG/1.1/DTD/svg11.dtd">
<svg version="1.1" id="Layer_1" xmlns="http://www.w3.org/2000/svg" xmlns:xlink="http://www.w3.org/1999/xlink" x="0px" y="0px"
	 viewBox="0 0 48 48" enable-background="new 0 0 48 48" xml:space="preserve">
<g>
	<path fill="#4DA0D8" d="M41.3,0.5H6.7c-3.4,0-6.2,2.8-6.2,6.2v34.6c0,3.4,2.8,6.2,6.2,6.2h34.6c3.4,0,6.2-2.8,6.2-6.2V6.7
		C47.5,3.3,44.7,0.5,41.3,0.5z M14,6.1c0-0.8,0.7-1.5,1.5-1.5h17c0.8,0,1.5,0.7,1.5,1.5c0,0.8-0.7,1.5-1.5,1.5H17v5.6h15.5
		c0.8,0,1.5,0.7,1.5,1.5c0,0.8-0.7,1.5-1.5,1.5H17v5.6h15.5c0.8,0,1.5,0.7,1.5,1.5c0,0.8-0.7,1.5-1.5,1.5h-17
		c-0.8,0-1.5-0.7-1.5-1.5V6.1z M21.3,33.9c0.8,0,1.5,0.7,1.5,1.5c0,0.8-0.7,1.5-1.5,1.5H9.7v3.6h11.6c0.8,0,1.5,0.7,1.5,1.5
		c0,0.8-0.7,1.5-1.5,1.5H8.2c-0.8,0-1.5-0.7-1.5-1.5V28.9c0-0.8,0.7-1.5,1.5-1.5h13.1c0.8,0,1.5,0.7,1.5,1.5s-0.7,1.5-1.5,1.5H9.7
		v3.6H21.3z M41.3,41.9c0,0.8-0.7,1.5-1.5,1.5c-0.8,0-1.5-0.7-1.5-1.5V30.3h-3.6v11.6c0,0.8-0.7,1.5-1.5,1.5c-0.8,0-1.5-0.7-1.5-1.5
		V30.3h-3.6v11.6c0,0.8-0.7,1.5-1.5,1.5c-0.8,0-1.5-0.7-1.5-1.5V28.9c0-0.8,0.7-1.5,1.5-1.5h13.1c0.8,0,1.5,0.7,1.5,1.5V41.9z"/>
</g>
</svg>
