<?xml version="1.0" encoding="utf-8"?>
<!-- Generator: Adobe Illustrator 18.0.0, SVG Export Plug-In . SVG Version: 6.00 Build 0)  -->
<!DOCTYPE svg PUBLIC "-//W3C//DTD SVG 1.1//EN" "http://www.w3.org/Graphics/SVG/1.1/DTD/svg11.dtd">
<svg version="1.1" id="Layer_1" xmlns="http://www.w3.org/2000/svg" xmlns:xlink="http://www.w3.org/1999/xlink" x="0px" y="0px"
	 viewBox="0 0 48 48" enable-background="new 0 0 48 48" xml:space="preserve">
<g>
	<g>
		<path fill="#F7A93B" d="M5.6,18.2h-2c-1.7,0-3,1.2-3,2.6c0,1.4,1.4,2.6,3,2.6h3.5L5.6,18.2z"/>
		<path fill="#F7A93B" d="M42.5,20.3c-1.7-0.1-3.2-0.1-4.6-1.2c-1-0.9-1.8-1.9-2.8-2.8c-1.2-1-2.5-2.1-3.9-2.9
			c-3-1.7-6.3-1.5-9.5-2.5c-1.5-0.5-2.4-1.4-3.3-2.7c-0.9-1.2-1.7-1.2-2.7-0.2c-2.2,2.2,1.5,5.2,3.2,6.3c0.8,0.5,3.5,1.2,3.7,2.3
			c0.2,1.3-2.5,1.4-3.4,1.4h-7l3.5,5.2h4.8l0.6,0.7h-5.5c-1.7,0-3,1.2-3,2.6c0,1.4,1.4,2.6,3,2.6h8.1l0.7,0.7h-6.9
			c-1.7,0-3,1.2-3,2.6c0,1.4,1.4,2.6,3,2.6h6.8l0.3,0.7h-5c-1.7,0-3,1.2-3,2.6c0,1.4,1.4,2.6,3,2.6h17.2c0,0,0.1,0,0.1,0
			c0.1,0,0.1,0,0.2,0c2.4,0,4.8-1.3,5.7-2c0.9-0.7,4.9-0.6,4.9-0.6V20.3C47.5,20.3,44.1,20.4,42.5,20.3z"/>
	</g>
	<polygon fill="#0DB89A" points="3.4,6.7 8.2,23.8 14.8,23.8 	"/>
</g>
</svg>
