<?xml version="1.0" encoding="utf-8"?>
<!-- Generator: Adobe Illustrator 18.0.0, SVG Export Plug-In . SVG Version: 6.00 Build 0)  -->
<!DOCTYPE svg PUBLIC "-//W3C//DTD SVG 1.1//EN" "http://www.w3.org/Graphics/SVG/1.1/DTD/svg11.dtd">
<svg version="1.1" id="Layer_1" xmlns="http://www.w3.org/2000/svg" xmlns:xlink="http://www.w3.org/1999/xlink" x="0px" y="0px"
	 viewBox="0 0 48 48" enable-background="new 0 0 48 48" xml:space="preserve">
<g>
	<path fill="#294E58" d="M13.4,22.8c0.1,0.1,0.2,0.1,0.3,0.2c2.3-0.2,5.2-0.3,8.8-0.3v-4.7c-11.3,0-13.4,1.4-13.7,1.7
		C9.1,20.4,11.3,21.9,13.4,22.8z"/>
	<path fill="#294E58" d="M37.1,13.9c-0.5-0.8-2.5-2.7-11.6-2.4V15c5.4,0,9.1,0.3,11.5,0.8C37.2,15.3,37.5,14.5,37.1,13.9z"/>
	<path fill="#294E58" d="M12.6,30.5c0.2,0.1,0.4,0.2,0.5,0.4c2.3-0.3,5.3-0.5,9.4-0.5v-4.7c-11.9,0-14.3,1.3-14.8,1.7
		C8.1,28.1,10.4,29.5,12.6,30.5z"/>
	<path fill="#294E58" d="M10.9,13.9c-0.4,0.7-0.1,1.4,0.1,1.9c2.5-0.5,6.1-0.8,11.5-0.8v-3.5C13.4,11.2,11.4,13,10.9,13.9z"/>
	<path fill="#294E58" d="M43,0.5H5c-2.1,0-3.9,1.7-3.9,3.9v39.3c0,2.1,1.7,3.9,3.9,3.9h38c2.1,0,3.9-1.7,3.9-3.9V4.4
		C46.8,2.2,45.1,0.5,43,0.5z M39.1,31.9c1.6,0.7,2.1,1.6,2.3,2.4c0.7,3-4,5.5-6.1,6.5c-0.2,0.1-0.4,0.1-0.6,0.1
		c-0.6,0-1.1-0.3-1.3-0.9c-0.3-0.7,0-1.6,0.7-1.9c2.1-1,4.2-2.5,4.4-3.1c-0.3-0.3-2.2-1.7-13.1-1.7V39c0,0.8-0.7,1.5-1.5,1.5
		s-1.5-0.7-1.5-1.5v-5.7c-10.9,0-12.8,1.4-13.1,1.7c0.2,0.7,2.3,2.2,4.4,3.1c0.7,0.3,1.1,1.2,0.7,1.9c-0.2,0.5-0.8,0.9-1.3,0.9
		c-0.2,0-0.4,0-0.6-0.1c-2-0.9-6.7-3.4-6.1-6.5c0.2-0.9,0.7-1.8,2.3-2.4c-2.2-1.2-4.5-3.1-4.1-5.1c0.2-1.2,1.1-2.3,4.1-3
		c-1.8-1.2-3.4-2.8-3.1-4.7c0.2-0.9,0.7-1.7,2.3-2.4c-0.4-1.2-0.6-2.7,0.2-4.2c1.6-2.9,6.2-4.2,14.2-3.9v0c0-0.8,0.7-1.5,1.5-1.5
		s1.5,0.7,1.5,1.5v0c8-0.3,12.6,1,14.2,3.9c0.8,1.5,0.6,3,0.2,4.2c1.5,0.7,2.1,1.5,2.3,2.4c0.4,1.8-1.2,3.5-3.1,4.7
		c3.1,0.8,3.9,1.9,4.2,3C43.6,28.9,41.3,30.7,39.1,31.9z"/>
	<path fill="#294E58" d="M34.6,22.8c2.1-0.9,4.3-2.4,4.6-3.1c-0.4-0.4-2.4-1.7-13.7-1.7v4.7c3.6,0,6.5,0.1,8.8,0.3
		C34.4,22.9,34.5,22.9,34.6,22.8z"/>
	<path fill="#294E58" d="M25.5,30.3c4.1,0,7.1,0.2,9.3,0.5c0.1-0.2,0.3-0.3,0.5-0.4c2.2-0.9,4.5-2.4,4.9-3.1
		c-0.4-0.4-2.9-1.7-14.8-1.7V30.3z"/>
</g>
</svg>
