<?xml version="1.0" encoding="utf-8"?>
<!-- Generator: Adobe Illustrator 18.0.0, SVG Export Plug-In . SVG Version: 6.00 Build 0)  -->
<!DOCTYPE svg PUBLIC "-//W3C//DTD SVG 1.1//EN" "http://www.w3.org/Graphics/SVG/1.1/DTD/svg11.dtd">
<svg version="1.1" id="Layer_1" xmlns="http://www.w3.org/2000/svg" xmlns:xlink="http://www.w3.org/1999/xlink" x="0px" y="0px"
	 viewBox="0 0 48 48" enable-background="new 0 0 48 48" xml:space="preserve">
<g>
	<path fill="#0DB89A" d="M45.9,34.5c-0.3-2.8-3.8-11.1-9-10.9c-0.6,0-1.2,0.3-1.6,0.7c-0.4,0.5-0.6,1-0.6,1.7
		c0.1,1.2,1.1,2.2,2.4,2.2c0,0,0,0,0,0c1.3,0,4,4.6,4.2,6.7c0.2,1.7-0.1,2.9-0.8,3.6c-0.6,0.6-1.7,0.8-3,0.7
		c-0.6-0.1-1.2-0.2-1.8-0.4c-1-0.3-2.1-0.6-3.4-0.6c-0.4,0-0.8,0-1.2,0.1c-2.4,0.4-3.8,1.8-5,3l-0.4,0.4c-1.1,1-1.6,1.2-2,1.2
		c-0.2,0-0.3,0-0.5-0.1c-0.6-0.2-0.8-0.5-1.4-1.5c-0.5-0.8-1.1-1.8-2.2-2.6c-0.9-0.7-1.9-1-2.9-1c-1.6,0-2.9,0.8-3.9,1.4
		c-0.4,0.3-0.9,0.6-1.2,0.6c-0.2,0.1-0.5,0.1-0.8,0.1c-1.3,0-2.4-0.8-3-1.7c-1.1-1.5-1.3-3.1-0.7-4.7c0.7-1.8,2.3-3.2,4.3-3.6
		c1.2-0.3,2-1.5,1.8-2.7c-0.3-1.2-1.5-2-2.7-1.8c-3.6,0.8-6.4,3.2-7.7,6.5c-1.2,3-0.7,6.4,1.3,9.1c1.2,1.6,3.7,3.6,6.7,3.6
		c0.7,0,1.5-0.1,2.2-0.3c0.9-0.3,1.6-0.7,2.2-1.1c0.4-0.2,1.2-0.7,1.4-0.7c0,0,0.1,0,0.3,0.2c0.3,0.2,0.6,0.7,0.9,1.2
		c0.7,1.1,1.6,2.7,3.8,3.4c0.7,0.2,1.3,0.3,2,0.3c2.4,0,4.1-1.4,5.2-2.5l0.5-0.5c0.9-0.9,1.6-1.6,2.5-1.7c0.9-0.1,1.7,0.1,2.7,0.4
		c0.8,0.2,1.6,0.4,2.6,0.5c0.4,0,0.8,0.1,1.3,0.1c2.8,0,4.6-1.1,5.5-2.1C45.4,40.1,46.2,37.6,45.9,34.5z"/>
	<path fill="#0DB89A" d="M27.1,18.4c0.4,1.1,0.7,2.1,0.6,2.8c-0.1,1.3,0.8,2.4,2.1,2.5c0.1,0,0.2,0,0.2,0c1.2,0,2.2-0.9,2.3-2.1
		c0.2-1.8-0.4-3.5-0.9-4.8c-0.3-0.8-0.6-1.6-0.6-2.3c-0.1-1.1-0.1-2.5,0-3.7l0-0.4c0-1,0.1-2,0.2-3c0.1-1.5,0.2-3.1,0.2-4.7
		c0-1.3-1-2.3-2.3-2.3c-1.3,0-2.3,1-2.3,2.3c0,1.4-0.1,2.9-0.2,4.4c-0.1,1-0.1,2.1-0.2,3.1l0,0.4c-0.1,1.4-0.1,2.9,0,4.3
		C26.4,16.3,26.8,17.4,27.1,18.4z"/>
</g>
</svg>
