<?xml version="1.0" encoding="utf-8"?>
<!-- Generator: Adobe Illustrator 18.0.0, SVG Export Plug-In . SVG Version: 6.00 Build 0)  -->
<!DOCTYPE svg PUBLIC "-//W3C//DTD SVG 1.1//EN" "http://www.w3.org/Graphics/SVG/1.1/DTD/svg11.dtd">
<svg version="1.1" id="Layer_1" xmlns="http://www.w3.org/2000/svg" xmlns:xlink="http://www.w3.org/1999/xlink" x="0px" y="0px"
	 viewBox="0 0 48 48" enable-background="new 0 0 48 48" xml:space="preserve">
<g>
	<path fill="#06728D" d="M24.5,47.5c-0.5,0-1-0.3-1.2-0.7c-0.4-0.7-0.2-1.6,0.5-2c1.3-0.8,1.7-1.4,1.8-2.5c0-0.2,0-0.5-0.1-0.9
		c-0.1-0.9-0.3-2.1,0.3-3.2c1-1.8,3.2-2.4,5.1-2.2c0.5,0.1,1.2,0,1.6-0.1c0-0.6,0.5-1.2,1.1-1.4c0.8-0.2,1.5,0.3,1.8,1
		c0.2,0.8,0,1.6-0.5,2.2c-1.3,1.4-4.1,1.1-4.4,1.1c-0.8-0.1-1.8,0.1-2.1,0.6c-0.1,0.3,0,1,0,1.5c0.1,0.4,0.1,0.9,0.1,1.4
		c-0.1,2.7-1.6,4-3.2,5C25,47.4,24.8,47.5,24.5,47.5z"/>
	<path fill="#F04B36" d="M2,38c-0.5,0-1-0.3-1.2-0.7c-0.4-0.7-0.2-1.6,0.5-2c2.6-1.5,3.5-2.9,3.5-5.3c0-0.5-0.1-1.1-0.2-1.7
		C4.4,26.8,4.1,25,5,23.5c1.4-2.7,4.9-3.6,7.7-3.2c1.7,0.2,3.8-0.1,4.1-0.6l0,0c0,0,0-0.1,0-0.2c-0.2-0.8,0.3-1.6,1-1.8
		c0.8-0.2,1.6,0.3,1.8,1c0.3,1.1,0.1,2.1-0.6,2.9c-1.9,2.1-6.4,1.5-6.6,1.5c-1.5-0.2-3.9,0.1-4.7,1.7c-0.4,0.7-0.2,2-0.1,3.2
		c0.1,0.7,0.2,1.5,0.2,2.2c-0.1,4.2-2.4,6.2-4.9,7.7C2.5,38,2.2,38,2,38z"/>
	<path fill="#0DB89A" d="M39.4,6.1c-2-3.5-5.8-5.6-10.1-5.6c-2.4,0-4.8,0.7-7,1.9c-6.2,3.6-8.5,11.2-5.2,16.8
		c2,3.5,5.8,5.6,10.1,5.6c2.4,0,4.8-0.7,7-1.9C40.4,19.3,42.7,11.7,39.4,6.1z"/>
	<path fill="#E77528" d="M46.6,28.2c-1.3-2.1-3.6-3.4-6.2-3.4c-1.5,0-3,0.4-4.3,1.2c-3.8,2.2-5.2,6.8-3.2,10.3
		c1.3,2.1,3.6,3.4,6.2,3.4c1.5,0,3-0.4,4.3-1.2C47.2,36.3,48.6,31.6,46.6,28.2z"/>
</g>
</svg>
