<?xml version="1.0" encoding="utf-8"?>
<!-- Generator: Adobe Illustrator 18.0.0, SVG Export Plug-In . SVG Version: 6.00 Build 0)  -->
<!DOCTYPE svg PUBLIC "-//W3C//DTD SVG 1.1//EN" "http://www.w3.org/Graphics/SVG/1.1/DTD/svg11.dtd">
<svg version="1.1" id="Layer_1" xmlns="http://www.w3.org/2000/svg" xmlns:xlink="http://www.w3.org/1999/xlink" x="0px" y="0px"
	 viewBox="0 0 48 48" enable-background="new 0 0 48 48" xml:space="preserve">
<g>
	<path fill="#CFD0D1" d="M24,12.7C24,6,18.8,0.5,12.3,0.5C5.9,0.5,0.6,6,0.6,12.7v10.3H24V12.7z"/>
	<path fill="#F04B36" d="M0.6,35.2c0,6.7,5.3,12.2,11.7,12.2c6.5,0,11.7-5.5,11.7-12.2V24.9H0.6V35.2z"/>
	<path fill="#F7A93B" d="M36.7,26.1c-5.9,0-10.7,4.8-10.7,10.7c0,5.9,4.8,10.7,10.7,10.7s10.7-4.8,10.7-10.7
		C47.4,30.9,42.6,26.1,36.7,26.1z"/>
	<path fill="#4DA0D8" d="M26,11.2c0,5.9,4.8,10.7,10.7,10.7c3.7,0,7-1.9,8.9-4.8L26.7,7.4C26.2,8.6,26,9.9,26,11.2z"/>
	<path fill="#4DA0D8" d="M47.4,11.2c0-5.9-4.8-10.7-10.7-10.7c-3.8,0-7.2,2-9.1,5.1l19,9.8C47.1,14.1,47.4,12.7,47.4,11.2z"/>
</g>
</svg>
