<?xml version="1.0" encoding="utf-8"?>
<!-- Generator: Adobe Illustrator 18.0.0, SVG Export Plug-In . SVG Version: 6.00 Build 0)  -->
<!DOCTYPE svg PUBLIC "-//W3C//DTD SVG 1.1//EN" "http://www.w3.org/Graphics/SVG/1.1/DTD/svg11.dtd">
<svg version="1.1" id="Layer_1" xmlns="http://www.w3.org/2000/svg" xmlns:xlink="http://www.w3.org/1999/xlink" x="0px" y="0px"
	 viewBox="0 0 48 48" enable-background="new 0 0 48 48" xml:space="preserve">
<g>
	<path d="M27.2,18.3"/>
	<path fill="#F04B36" d="M1.2,9.2c-0.4,0.1-0.7,0.5-0.7,0.9v6.4c0,0.5,0.3,0.9,0.8,0.9l17.3,2.3V5.8L1.2,9.2z"/>
	<path fill="#F04B36" d="M25.8,4.4l-5.3,1V20l5.4,0.7c0,0,0.1,0,0.1,0"/>
	<path fill="#06728D" d="M42.3,1.8h-9.5c-2.9,0-5.2,2.4-5.2,5.2v11c0,2.4,1.7,4.5,3.9,5.1v22.2c0,0.5,0.4,0.9,0.9,0.9h10.3
		c0.5,0,0.9-0.4,0.9-0.9V23.1c2.2-0.6,3.9-2.6,3.9-5.1V7C47.5,4.1,45.2,1.8,42.3,1.8z"/>
</g>
</svg>
