<?xml version="1.0" encoding="utf-8"?>
<!-- Generator: Adobe Illustrator 18.0.0, SVG Export Plug-In . SVG Version: 6.00 Build 0)  -->
<!DOCTYPE svg PUBLIC "-//W3C//DTD SVG 1.1//EN" "http://www.w3.org/Graphics/SVG/1.1/DTD/svg11.dtd">
<svg version="1.1" id="Layer_1" xmlns="http://www.w3.org/2000/svg" xmlns:xlink="http://www.w3.org/1999/xlink" x="0px" y="0px"
	 viewBox="0 0 48 48" enable-background="new 0 0 48 48" xml:space="preserve">
<g>
	<path fill="#E77528" d="M33.4,47.5C33.3,47.5,33.3,47.5,33.4,47.5c-0.8,0-1.3-0.6-1.4-1.3l-4.6-35.7l-5,23.9
		c-0.1,0.6-0.7,1.1-1.3,1.1c-0.7,0-1.2-0.4-1.4-1l-5-15.7l-3.6,8c-0.2,0.5-0.7,0.9-1.3,0.9H1.9c-0.8,0-1.4-0.6-1.4-1.4
		s0.6-1.4,1.4-1.4h6.7l4.7-10.6c0.2-0.5,0.8-0.9,1.4-0.8c0.6,0,1.1,0.4,1.3,1l4.5,14.1l5.7-26.8C26.4,1,27,0.5,27.7,0.5
		c0.7,0,1.3,0.6,1.4,1.3l4.7,36.4l3-12.4c0.2-0.6,0.7-1.1,1.4-1.1h7.9c0.8,0,1.4,0.6,1.4,1.4s-0.6,1.4-1.4,1.4h-6.7l-4.6,18.9
		C34.6,47,34,47.5,33.4,47.5z"/>
</g>
</svg>
