<?xml version="1.0" encoding="utf-8"?>
<!-- Generator: Adobe Illustrator 18.0.0, SVG Export Plug-In . SVG Version: 6.00 Build 0)  -->
<!DOCTYPE svg PUBLIC "-//W3C//DTD SVG 1.1//EN" "http://www.w3.org/Graphics/SVG/1.1/DTD/svg11.dtd">
<svg version="1.1" id="Layer_1" xmlns="http://www.w3.org/2000/svg" xmlns:xlink="http://www.w3.org/1999/xlink" x="0px" y="0px"
	 viewBox="0 0 48 48" enable-background="new 0 0 48 48" xml:space="preserve">
<g>
	<path fill="#CFD0D1" d="M45.2,12.5c-1.5-1.5-3.4-2.3-5.5-2.3c-0.7,0-1.5,0.1-2.2,0.3c0.8-2.6,0.1-5.6-2-7.7
		c-1.5-1.5-3.4-2.3-5.5-2.3c-2.1,0-4,0.8-5.5,2.3c-3,3-3,8,0,11.1c1.5,1.5,3.4,2.3,5.5,2.3c0.7,0,1.5-0.1,2.2-0.3
		c-0.2,0.7-0.3,1.4-0.3,2.1c0,2.1,0.8,4.1,2.3,5.5c1.5,1.5,3.4,2.3,5.5,2.3c2.1,0,4-0.8,5.5-2.3C48.3,20.5,48.3,15.5,45.2,12.5z"/>
	<path fill="#F04B36" d="M27.8,21.2c-0.3,0-0.5-0.1-0.7-0.3c-0.4-0.4-0.4-1,0-1.4L42,4.6c0.4-0.4,1-0.4,1.4,0c0.4,0.4,0.4,1,0,1.4
		L28.5,20.9C28.3,21.1,28,21.2,27.8,21.2z"/>
	<path fill="#F04B36" d="M46.1,9.7c-0.3,0-0.5-0.1-0.7-0.3l-6.8-6.9c-0.4-0.4-0.4-1,0-1.4c0.4-0.4,1-0.4,1.4,0L46.8,8
		c0.4,0.4,0.4,1,0,1.4C46.6,9.6,46.4,9.7,46.1,9.7z"/>
	<path fill="#06728D" d="M1.5,47.5c-0.3,0-0.5-0.1-0.7-0.3c-0.4-0.4-0.4-1,0-1.4l6.3-6.3c0.4-0.4,1-0.4,1.4,0c0.4,0.4,0.4,1,0,1.4
		l-6.3,6.3C2,47.4,1.7,47.5,1.5,47.5z"/>
	<path fill="#4DA0D8" d="M33.1,24.2l-9.3-9.3c-0.2-0.2-0.4-0.3-0.7-0.3c-0.3,0-0.5,0.1-0.7,0.3L5.6,31.7c-0.2,0.2-0.3,0.6-0.3,0.9
		l1.5,7.9c0.1,0.4,0.4,0.7,0.8,0.8l7.9,1.5c0.1,0,0.1,0,0.2,0c0.3,0,0.5-0.1,0.7-0.3l16.8-16.8C33.5,25.2,33.5,24.6,33.1,24.2z"/>
</g>
</svg>
