<?xml version="1.0" encoding="utf-8"?>
<!-- Generator: Adobe Illustrator 18.0.0, SVG Export Plug-In . SVG Version: 6.00 Build 0)  -->
<!DOCTYPE svg PUBLIC "-//W3C//DTD SVG 1.1//EN" "http://www.w3.org/Graphics/SVG/1.1/DTD/svg11.dtd">
<svg version="1.1" id="Layer_1" xmlns="http://www.w3.org/2000/svg" xmlns:xlink="http://www.w3.org/1999/xlink" x="0px" y="0px"
	 viewBox="0 0 48 48" enable-background="new 0 0 48 48" xml:space="preserve">
<g>
	<path fill="#0DB89A" d="M23.9,15.5L23.9,15.5c0.1-0.1,0.2-0.1,0.3-0.1c0.5-0.1,0.8-0.6,0.7-1.2c-0.1-0.5-0.6-0.8-1.2-0.7
		c-0.1,0-1.3,0.2-4.8-3.6c-1.7-1.8-3.2-2.7-4.6-2.7c0,0,0,0,0,0c-1,0-1.6,0.5-1.9,0.7c-6.6,5-9.3,3.4-9.3,3.4
		c-0.4-0.3-0.9-0.2-1.3,0.1c-0.3,0.4-0.3,0.9,0,1.3c0.1,0.1,5.2,5.9,14.5,5.9c2.3,0,4.9-0.4,7.8-1.3c0.5-0.2,0.8-0.7,0.6-1.2
		C24.6,15.8,24.3,15.5,23.9,15.5z"/>
	<path fill="#0DB89A" d="M46.2,11.4c-0.3-0.4-0.9-0.4-1.3-0.2c0,0-2.8,1.6-9.3-3.4c-0.2-0.2-0.8-0.7-1.9-0.7c0,0,0,0,0,0
		c-1.4,0-3,0.9-4.6,2.7c-3.5,3.8-4.7,3.6-4.8,3.6c-0.5-0.1-1,0.2-1.2,0.7c-0.1,0.5,0.2,1,0.7,1.2c0.1,0,0.2,0,0.3,0l0,0.1
		c-0.4,0-0.7,0.3-0.9,0.7c-0.2,0.5,0.1,1.1,0.6,1.2c2.8,0.9,5.4,1.3,7.8,1.3c9.3,0,14.4-5.9,14.5-5.9C46.5,12.3,46.5,11.8,46.2,11.4
		z"/>
	<path fill="#294E58" d="M24,0.5c-2.6,0-4.7,2.1-4.7,4.7c0,2.6,2.1,4.7,4.7,4.7c2.6,0,4.7-2.1,4.7-4.7C28.7,2.6,26.6,0.5,24,0.5z"/>
	<path fill="#294E58" d="M24,40.5c-0.8,0-1.5,0.7-1.5,1.5V46c0,0.8,0.7,1.5,1.5,1.5c0.8,0,1.5-0.7,1.5-1.5v-4.1
		C25.5,41.1,24.8,40.5,24,40.5z"/>
	<path fill="#294E58" d="M24,25.5c0.8,0,1.5-0.7,1.5-1.5V8.9c0-0.8-0.7-1.5-1.5-1.5c-0.8,0-1.5,0.7-1.5,1.5v15.2
		C22.6,24.9,23.2,25.5,24,25.5z"/>
	<path fill="#F04B36" d="M39.3,22.1c-1.4-2.1-4.7-2.2-7.8-2.2c-0.8,0-1.5,0.7-1.5,1.5c0,0.8,0.7,1.5,1.5,1.5c1.2,0,4.7,0,5.3,0.9
		c0.5,0.7-0.6,1.6-0.8,1.8c-1.1,0.9-3.9,1.5-5.7,1.8l-0.3,0.1c-1,0.2-2,0.4-3,0.6c-1.7,0.3-3.4,0.6-5,1.1c0,0-0.1,0-0.1,0
		c0-0.2-0.1-0.4-0.2-0.6c-0.2-0.3-0.6-0.5-0.9-0.6c-0.8-0.1-1.6-0.3-2.4-0.5L18,27.4c-1.9-0.4-4.6-1-5.7-1.8
		c-0.2-0.2-1.3-1.1-0.8-1.8c0.6-1,4.2-1,5.3-1c0.8,0,1.5-0.7,1.5-1.5c0-0.8-0.7-1.5-1.5-1.5c-3,0-6.4,0.2-7.8,2.2
		c-1.2,1.8-0.6,4.1,1.4,5.7c1.6,1.3,4.6,1.9,6.9,2.4l0.3,0.1c0.4,0.1,0.9,0.2,1.3,0.2c-1.1,0.9-1.7,1.9-1.8,3.2
		c-0.2,1.8,0.9,3.6,2.9,4.8c-0.4,0.1-0.7,0.2-1.1,0.4c-3.2,1.2-3.5,3-3.4,4.8c0.1,0.9,0.5,1.5,0.8,1.9c0.1,0.1,0.2,0.3,0.3,0.4
		c0.3,0.5,0.7,0.8,1.3,0.8c0.2,0,0.5-0.1,0.7-0.2c0.3-0.2,0.6-0.5,0.7-0.9c0.1-0.4,0.1-0.8-0.1-1.1c-0.1-0.3-0.3-0.5-0.4-0.7
		c-0.1-0.2-0.3-0.4-0.3-0.5c-0.1-0.9-0.1-1.3,1.5-1.9c0.7-0.2,1.4-0.5,2.2-0.7c0.5-0.2,0.8-0.6,0.9-1c0.9,0.3,1.8,0.6,2.7,0.9
		c0.9,0.3,1.7,0.5,2.5,0.8c1.6,0.6,1.6,1,1.5,1.9c0,0.1-0.1,0.3-0.3,0.5c-0.1,0.2-0.3,0.4-0.4,0.7c-0.4,0.7-0.1,1.6,0.6,2
		c0.2,0.1,0.5,0.2,0.7,0.2c0.5,0,1-0.3,1.3-0.8c0.1-0.2,0.2-0.3,0.3-0.4c0.3-0.4,0.7-1,0.8-1.9c0.1-1.8-0.2-3.7-3.4-4.8
		c-0.4-0.1-0.7-0.2-1.1-0.4c2-1.2,3-2.8,3-4.6c-0.1-1.3-0.7-2.4-1.9-3.3c0.4-0.1,0.9-0.2,1.3-0.3l0.3-0.1c2.4-0.5,5.3-1.1,6.9-2.4
		C40,26.2,40.5,23.9,39.3,22.1z M25.4,31.3c0.2,0.4,0.5,0.6,0.8,0.8c1.3,0.5,2.1,1.2,2.1,1.9c0,0.7-0.7,1.6-2,2.2
		c-0.5,0.3-0.8,0.8-0.8,1.3c-1.2-0.4-2.4-0.8-3.5-1.3c-1.3-0.6-2.1-1.5-2-2.3c0.1-0.8,1.1-1.6,2.8-2.1
		C23.7,31.6,24.5,31.4,25.4,31.3C25.4,31.3,25.4,31.3,25.4,31.3z"/>
</g>
</svg>
