<?xml version="1.0" encoding="utf-8"?>
<!-- Generator: Adobe Illustrator 18.0.0, SVG Export Plug-In . SVG Version: 6.00 Build 0)  -->
<!DOCTYPE svg PUBLIC "-//W3C//DTD SVG 1.1//EN" "http://www.w3.org/Graphics/SVG/1.1/DTD/svg11.dtd">
<svg version="1.1" id="Layer_1" xmlns="http://www.w3.org/2000/svg" xmlns:xlink="http://www.w3.org/1999/xlink" x="0px" y="0px"
	 viewBox="0 0 48 48" enable-background="new 0 0 48 48" xml:space="preserve">
<g>
	<path fill="#0DB89A" d="M4,21.3c-0.3,0-0.5-0.1-0.7-0.3c-2.4-2.5-3.3-5-2.6-7.3C2,8.8,9.5,6.5,9.8,6.4C10.3,6.2,10.9,6.5,11,7
		c0.2,0.5-0.1,1.1-0.6,1.2c-0.1,0-6.8,2.1-7.8,6c-0.4,1.7,0.3,3.5,2.2,5.5c0.4,0.4,0.4,1,0,1.4C4.5,21.3,4.3,21.3,4,21.3z"/>
	<path fill="#0DB89A" d="M44,21.3c-0.2,0-0.5-0.1-0.7-0.3c-0.4-0.4-0.4-1,0-1.4c1.9-2,2.6-3.8,2.2-5.5c-1-3.9-7.7-6-7.8-6
		C37.1,8.1,36.8,7.5,37,7c0.2-0.5,0.7-0.8,1.2-0.6c0.3,0.1,7.8,2.5,9.1,7.4c0.6,2.4-0.3,4.8-2.6,7.3C44.5,21.2,44.2,21.3,44,21.3z"
		/>
	<path fill="#F04B36" d="M10.1,15.7c-3.7,0-6.8,2.6-6.8,5.8c0,3.2,3,5.8,6.8,5.8c3.7,0,6.8-2.6,6.8-5.8
		C16.8,18.3,13.8,15.7,10.1,15.7z"/>
	<path fill="#F04B36" d="M37.9,15.7c-3.7,0-6.8,2.6-6.8,5.8c0,3.2,3,5.8,6.8,5.8c3.7,0,6.8-2.6,6.8-5.8
		C44.7,18.3,41.7,15.7,37.9,15.7z"/>
	<path fill="#0DB89A" d="M24,47.5c-0.5,0-1-0.4-1-1V31.1c0-0.5,0.4-1,1-1c0.5,0,1,0.4,1,1v15.4C25,47.1,24.5,47.5,24,47.5z"/>
	<path fill="#E77528" d="M32.6,1.5c-4.5-0.9-7.1-1-8.6-1c-1.4,0-4,0.1-8.6,1c-4.3,0.8-5.9,3.5-6,5.6c-0.1,2.5,1.8,4.7,4.4,5.3
		c3.5,0.9,5.1,4.3,5.1,10.7c0,5.5,3.5,9.3,3.6,9.4c0.2,0.2,0.5,0.3,0.7,0.3c0.2,0,0.5-0.1,0.7-0.3c0,0,0,0,0-0.1c0,0,0,0,0,0.1
		c0.2,0.2,0.4,0.3,0.7,0.3c0.3,0,0.5-0.1,0.7-0.3c0.1-0.2,3.6-4,3.6-9.4c0-6.4,1.6-9.8,5.1-10.7c2.7-0.7,4.5-2.9,4.4-5.3
		C38.5,5,36.9,2.3,32.6,1.5z M24,31.2c0,0-0.1-0.1-0.2-0.3c0.1,0.1,0.2,0.1,0.4,0.1C24.1,31.1,24,31.2,24,31.2z"/>
</g>
</svg>
