<?xml version="1.0" encoding="utf-8"?>
<!-- Generator: Adobe Illustrator 18.0.0, SVG Export Plug-In . SVG Version: 6.00 Build 0)  -->
<!DOCTYPE svg PUBLIC "-//W3C//DTD SVG 1.1//EN" "http://www.w3.org/Graphics/SVG/1.1/DTD/svg11.dtd">
<svg version="1.1" id="Layer_1" xmlns="http://www.w3.org/2000/svg" xmlns:xlink="http://www.w3.org/1999/xlink" x="0px" y="0px"
	 viewBox="0 0 48 48" enable-background="new 0 0 48 48" xml:space="preserve">
<g>
	<path fill="#F04B36" d="M44.9,47.5c-0.3,0-0.5-0.1-0.8-0.2L11,26.7c-0.5-0.3-0.8-1-0.6-1.6c0.2-0.6,0.7-1,1.4-1h13
		c2.3,0,9.9-0.8,9.9-11.1c0-8.9-9.6-9.6-10-9.6l-20.2,0v42.7c0,0.8-0.6,1.4-1.4,1.4s-1.4-0.6-1.4-1.4V1.9c0-0.8,0.6-1.4,1.4-1.4
		h21.7C29.3,0.8,37.6,3.7,37.6,13c0,10.3-6.9,14-12.8,14h-7.9l28.9,17.9c0.7,0.4,0.9,1.3,0.5,2C45.9,47.3,45.4,47.5,44.9,47.5z"/>
	<path fill="#F04B36" d="M24.8,47.5c-0.4,0-0.8-0.2-1.1-0.5c-0.5-0.6-0.5-1.5,0.1-2l15.9-14.3c0.6-0.5,1.5-0.5,2,0.1
		c0.5,0.6,0.5,1.5-0.1,2L25.7,47.1C25.5,47.4,25.1,47.5,24.8,47.5z"/>
</g>
</svg>
