<?xml version="1.0" encoding="utf-8"?>
<!-- Generator: Adobe Illustrator 18.0.0, SVG Export Plug-In . SVG Version: 6.00 Build 0)  -->
<!DOCTYPE svg PUBLIC "-//W3C//DTD SVG 1.1//EN" "http://www.w3.org/Graphics/SVG/1.1/DTD/svg11.dtd">
<svg version="1.1" id="Layer_1" xmlns="http://www.w3.org/2000/svg" xmlns:xlink="http://www.w3.org/1999/xlink" x="0px" y="0px"
	 viewBox="0 0 48 48" enable-background="new 0 0 48 48" xml:space="preserve">
<g>
	<path fill="#F04B36" d="M46.5,23.9c-0.2,0-0.4-0.1-0.6-0.2l-8.5-5.9c-0.4-0.3-0.6-0.9-0.2-1.4c0.3-0.4,0.9-0.6,1.4-0.2l8.5,5.9
		c0.4,0.3,0.6,0.9,0.2,1.4C47.1,23.8,46.8,23.9,46.5,23.9z"/>
	<path fill="#06728D" d="M43.1,9.7C43,9.6,40.2,7.6,40,7.5l-5.7-4c-2.2-1.5-4.8-2.4-7.3-2.4c-3,0-5.5,1.2-7,3.3
		c-2.8,4-1,10.2,4,13.7l5.6,3.9c0,0,3.1,2.2,3.3,2.3c0.1,0.1,0.3,0.1,0.5,0.1c0.3,0,0.6-0.1,0.8-0.4l9.1-13.1
		c0.2-0.2,0.2-0.5,0.2-0.7C43.5,10.1,43.4,9.8,43.1,9.7z"/>
	<path fill="#294E58" d="M29.9,24.6l-7.1-5c-0.2-0.1-0.5-0.2-0.7-0.2c-0.3,0-0.5,0.2-0.6,0.4L8.6,38.3c-0.8,1.2-1.1,2.6-0.9,4
		c0.2,1.4,1,2.6,2.2,3.5c0.9,0.6,2,1,3,1c1.7,0,3.4-0.9,4.4-2.3L30.2,26C30.5,25.5,30.4,24.9,29.9,24.6z"/>
	<path fill="#0DB89A" d="M9.5,46.8c-1.9,0-3.9-1.5-5.2-2.5l-0.2-0.2C1,41.7-0.1,37.5,0.8,31.7c0.1-0.5,0.6-0.9,1.1-0.8
		C2.5,31,2.9,31.5,2.8,32c-0.8,5,0,8.6,2.6,10.5l0.2,0.2c1.2,0.9,3.4,2.6,4.6,1.9c0.5-0.3,1.1-0.1,1.3,0.4c0.3,0.5,0.1,1.1-0.4,1.3
		C10.6,46.7,10.1,46.8,9.5,46.8z"/>
</g>
</svg>
