<?xml version="1.0" encoding="utf-8"?>
<!-- Generator: Adobe Illustrator 18.0.0, SVG Export Plug-In . SVG Version: 6.00 Build 0)  -->
<!DOCTYPE svg PUBLIC "-//W3C//DTD SVG 1.1//EN" "http://www.w3.org/Graphics/SVG/1.1/DTD/svg11.dtd">
<svg version="1.1" id="Layer_1" xmlns="http://www.w3.org/2000/svg" xmlns:xlink="http://www.w3.org/1999/xlink" x="0px" y="0px"
	 viewBox="0 0 48 48" enable-background="new 0 0 48 48" xml:space="preserve">
<g>
	<path fill="#4DA0D8" d="M27.4,13c0-0.1,0.1-0.1,0.1-0.2h7c1,0,1.9-0.8,1.9-1.9c0-1-0.8-1.9-1.9-1.9l-7.7,0c-0.2,0-1.7-0.3-1.7-2.4
		c0-1.6,1.5-2.2,2-2.4h7.3c1,0,1.9-0.8,1.9-1.9c0-1-0.8-1.9-1.9-1.9l-7.6,0l-0.3,0c-1.8,0.4-5.2,2.1-5.2,6.1c0,2.1,0.8,3.5,1.7,4.4
		C18.7,13.5,10,21.6,10.4,45.7c0,1,0.9,1.8,1.9,1.8c1,0,1.9-0.9,1.8-1.9c-0.4-20.7,6.4-28.2,10-30.7c0.1,0.3,0.3,0.6,0.6,0.8
		c0.1,0.1,10.8,8.8,8.8,29.7c-0.1,1,0.7,1.9,1.7,2c0.1,0,0.1,0,0.2,0c1,0,1.8-0.7,1.9-1.7C39.3,24.5,29.4,14.7,27.4,13z"/>
</g>
</svg>
