<?xml version="1.0" encoding="utf-8"?>
<!-- Generator: Adobe Illustrator 18.0.0, SVG Export Plug-In . SVG Version: 6.00 Build 0)  -->
<!DOCTYPE svg PUBLIC "-//W3C//DTD SVG 1.1//EN" "http://www.w3.org/Graphics/SVG/1.1/DTD/svg11.dtd">
<svg version="1.1" id="Layer_1" xmlns="http://www.w3.org/2000/svg" xmlns:xlink="http://www.w3.org/1999/xlink" x="0px" y="0px"
	 viewBox="0 0 48 48" enable-background="new 0 0 48 48" xml:space="preserve">
<g>
	<path fill="#E77528" d="M46.6,4.8c-0.9-0.5-2.1-0.2-2.6,0.6l-6.9,11.4c-1-0.5-2.5-1.1-4.3-1.7c-0.6-1.8-1.2-3.3-1.7-4.3L42.5,4
		c0.9-0.5,1.2-1.7,0.6-2.6c-0.5-0.9-1.7-1.2-2.6-0.6L27.7,8.5c-0.9,0.5-1.2,1.7-0.7,2.6c0,0.1,0.7,1.1,1.4,2.9
		c-4.3-0.8-8.5-0.7-12.3,0.4C9.6,16.4,4.4,21.2,0.7,28.7c-0.2,0.5-0.3,1-0.1,1.4c0.2,0.5,0.5,0.9,0.9,1.1c0.9,0.4,2.1,0.1,2.5-0.9
		c3.2-6.6,7.6-10.7,13.1-12.3c3.7-1.1,8.1-1.1,12.6,0.2C31,22.8,31.1,27,30,30.8c-1.6,5.5-5.8,9.9-12.3,13.1
		c-0.5,0.2-0.8,0.6-0.9,1.1c-0.2,0.5-0.1,1,0.1,1.4c0.3,0.6,1,1.1,1.7,1.1c0.3,0,0.6-0.1,0.8-0.2c7.5-3.7,12.3-8.9,14.3-15.4
		c1.1-3.8,1.3-7.9,0.4-12.3c1.8,0.7,2.9,1.4,2.9,1.4c0.3,0.2,0.6,0.3,1,0.3c0.7,0,1.3-0.3,1.6-0.9l7.8-12.9
		C47.8,6.5,47.5,5.4,46.6,4.8z"/>
</g>
</svg>
