<?xml version="1.0" encoding="utf-8"?>
<!-- Generator: Adobe Illustrator 18.0.0, SVG Export Plug-In . SVG Version: 6.00 Build 0)  -->
<!DOCTYPE svg PUBLIC "-//W3C//DTD SVG 1.1//EN" "http://www.w3.org/Graphics/SVG/1.1/DTD/svg11.dtd">
<svg version="1.1" id="Layer_1" xmlns="http://www.w3.org/2000/svg" xmlns:xlink="http://www.w3.org/1999/xlink" x="0px" y="0px"
	 viewBox="0 0 48 48" enable-background="new 0 0 48 48" xml:space="preserve">
<g>
	<path fill="#06728D" d="M39.2,0.8c-4.6,0-8.3,3.7-8.3,8.3s3.7,8.3,8.3,8.3c4.6,0,8.3-3.7,8.3-8.3S43.8,0.8,39.2,0.8z"/>
	<path fill="#CFD0D1" d="M39.2,24.3c-0.8,0-1.5-0.7-1.5-1.5v-6.3c0-0.8,0.7-1.5,1.5-1.5c0.8,0,1.5,0.7,1.5,1.5v6.3
		C40.6,23.6,40,24.3,39.2,24.3z"/>
	<path fill="#CFD0D1" d="M9.3,18c-4.9,0-8.8-4-8.8-8.8c0-4.9,4-8.8,8.8-8.8c2.9,0,5.6,1.4,7.3,3.8c0.5,0.7,0.3,1.6-0.4,2
		c-0.7,0.5-1.6,0.3-2-0.4c-1.1-1.6-2.9-2.6-4.9-2.6c-3.3,0-5.9,2.6-5.9,5.9c0,3.3,2.6,5.9,5.9,5.9c0.8,0,1.5,0.7,1.5,1.5
		C10.8,17.3,10.1,18,9.3,18z"/>
	<path fill="#CFD0D1" d="M9.3,24.3c-0.8,0-1.5-0.7-1.5-1.5v-6.3c0-0.8,0.7-1.5,1.5-1.5c0.8,0,1.5,0.7,1.5,1.5v6.3
		C10.8,23.6,10.1,24.3,9.3,24.3z"/>
	<path fill="#0DB89A" d="M39.2,21.9c-3.5,0-6.3,2.8-6.3,6.3v13.3c0,3.5,2.8,6.3,6.3,6.3c3.5,0,6.3-2.8,6.3-6.3V28.1
		C45.4,24.7,42.6,21.9,39.2,21.9z"/>
	<path fill="#0DB89A" d="M9.3,21.9c-3.5,0-6.3,2.8-6.3,6.3v13.3c0,3.5,2.8,6.3,6.3,6.3c3.5,0,6.3-2.8,6.3-6.3V28.1
		C15.6,24.7,12.8,21.9,9.3,21.9z"/>
</g>
</svg>
