<?xml version="1.0" encoding="utf-8"?>
<!-- Generator: Adobe Illustrator 18.0.0, SVG Export Plug-In . SVG Version: 6.00 Build 0)  -->
<!DOCTYPE svg PUBLIC "-//W3C//DTD SVG 1.1//EN" "http://www.w3.org/Graphics/SVG/1.1/DTD/svg11.dtd">
<svg version="1.1" id="Layer_1" xmlns="http://www.w3.org/2000/svg" xmlns:xlink="http://www.w3.org/1999/xlink" x="0px" y="0px"
	 viewBox="0 0 48 48" enable-background="new 0 0 48 48" xml:space="preserve">
<g>
	<path fill="#0DB89A" d="M47.2,4.6l-3.8-3.8c-0.3-0.3-0.9-0.4-1.2-0.1l-5.5,3.8c-0.2,0.2-0.4,0.4-0.4,0.7c0,0.3,0.1,0.6,0.3,0.8
		l5.6,5.6c0.2,0.2,0.4,0.3,0.7,0.3c0,0,0.1,0,0.1,0c0.3,0,0.6-0.2,0.7-0.4l3.8-5.5C47.6,5.5,47.5,4.9,47.2,4.6z"/>
	<path fill="#F04B36" d="M40.3,13.4l-5.7-5.7c-0.8-0.8-2-1.3-3.3-1.3c-1.1,0-2.2,0.4-3,1.1L5.1,27.2L21,42.6l19.6-23
		C42.1,17.8,42,15,40.3,13.4z M33.7,20.3c-0.9,2.2-2.5,4.6-4.7,6.7c-3.3,3.3-7,5.4-9.8,5.4c-1.1,0-2-0.3-2.6-1
		c-1.2-1.2-1.3-3.2-0.3-5.6c0.9-2.2,2.5-4.6,4.7-6.7c3.3-3.3,7.1-5.4,9.8-5.4c1.1,0,2,0.3,2.6,1C34.6,15.8,34.7,17.8,33.7,20.3z"/>
	<path fill="#0DB89A" d="M19.5,44.4L3.4,28.8c0,0,0,0,0,0L2,29.9c-0.9,0.8-1.4,1.8-1.5,2.9c0,1.1,0.4,2.2,1.2,3l10.4,10.4
		c0.8,0.8,1.8,1.2,2.9,1.2c1.2,0,2.3-0.5,3.1-1.5L19.5,44.4C19.5,44.4,19.5,44.4,19.5,44.4z"/>
</g>
</svg>
