<?xml version="1.0" encoding="utf-8"?>
<!-- Generator: Adobe Illustrator 18.0.0, SVG Export Plug-In . SVG Version: 6.00 Build 0)  -->
<!DOCTYPE svg PUBLIC "-//W3C//DTD SVG 1.1//EN" "http://www.w3.org/Graphics/SVG/1.1/DTD/svg11.dtd">
<svg version="1.1" id="Layer_1" xmlns="http://www.w3.org/2000/svg" xmlns:xlink="http://www.w3.org/1999/xlink" x="0px" y="0px"
	 viewBox="0 0 48 48" enable-background="new 0 0 48 48" xml:space="preserve">
<g>
	<path fill="#E77528" d="M27.8,22.5h0.9c1.3,0,2.4-1.1,2.4-2.4v-0.3v-4v-1.2c0-1.3-1.1-2.4-2.4-2.4h-0.9c-1.3,0-2.4,1.1-2.4,2.4v5.4
		C25.5,21.5,26.5,22.5,27.8,22.5z"/>
	<path fill="#E77528" d="M16.9,20.2c0,1.3,1.1,2.4,2.4,2.4h0.9c1.3,0,2.4-1.1,2.4-2.4v-5.4c0-1.3-1.1-2.4-2.4-2.4h-0.9
		c-1.3,0-2.4,1.1-2.4,2.4v1.2v4V20.2z"/>
	<path fill="#E77528" d="M34,19.9c0,1.1,1.1,2.1,2.4,2.1h0.2c1.3,0,2.4-0.9,2.4-2.1v-4c0-1.1-1.1-2.1-2.4-2.1h-0.2
		c-1.3,0-2.4,0.9-2.4,2.1V19.9z"/>
	<path fill="#E77528" d="M36.6,26h-0.2c-1.3,0-2.4,0.9-2.4,2v4c0,1.1,1.1,2,2.4,2h0.2c1.3,0,2.4-0.9,2.4-2v-4
		C38.9,26.9,37.8,26,36.6,26z"/>
	<path fill="#E77528" d="M31.1,27.8c0-1.3-1.1-2.4-2.4-2.4h-0.9c-1.3,0-2.4,1.1-2.4,2.4v5.4c0,1.3,1.1,2.4,2.4,2.4h0.9
		c1.3,0,2.4-1.1,2.4-2.4V32v-4V27.8z"/>
	<path fill="#0DB89A" d="M47.2,12.7C42,7,33.4,3.6,24,3.6C14.6,3.6,6,7,0.8,12.7L0.5,13v22l0.3,0.3C6,41,14.6,44.4,24,44.4
		c9.4,0,18-3.4,23.2-9.1l0.3-0.3V13L47.2,12.7z M41.8,19.9c0,1.7-0.9,3.2-2.2,4.1c1.4,0.9,2.2,2.4,2.2,4v4c0,2.7-2.4,5-5.3,5h-0.2
		c-1.2,0-2.2-0.4-3.1-1c-0.9,1.5-2.6,2.6-4.5,2.6h-0.9c-1.5,0-2.9-0.6-3.8-1.6c-1,1-2.3,1.6-3.8,1.6h-0.9c-1.9,0-3.6-1-4.5-2.6
		c-0.9,0.6-2,1-3.1,1h-0.2c-2.9,0-5.3-2.2-5.3-5v-4c0-1.7,0.9-3.1,2.2-4c-1.4-0.9-2.2-2.4-2.2-4.1v-4c0-2.8,2.4-5,5.3-5h0.2
		c1.2,0,2.3,0.4,3.2,1c0.9-1.5,2.6-2.5,4.5-2.5h0.9c1.5,0,2.9,0.6,3.8,1.6c1-1,2.3-1.6,3.8-1.6h0.9c1.9,0,3.5,1,4.5,2.5
		c0.9-0.6,2-1,3.2-1h0.2c2.9,0,5.3,2.2,5.3,5V19.9z"/>
	<path fill="#E77528" d="M14,28c0-1.1-1.1-2-2.4-2h-0.2c-1.3,0-2.4,0.9-2.4,2v4c0,1.1,1.1,2,2.4,2h0.2c1.3,0,2.4-0.9,2.4-2V28z"/>
	<path fill="#E77528" d="M11.4,22h0.2c1.3,0,2.4-0.9,2.4-2.1v-4c0-1.1-1.1-2.1-2.4-2.1h-0.2c-1.3,0-2.4,0.9-2.4,2.1v4
		C9.1,21.1,10.1,22,11.4,22z"/>
	<path fill="#E77528" d="M20.2,25.5h-0.9c-1.3,0-2.4,1.1-2.4,2.4V28v4v1.3c0,1.3,1.1,2.4,2.4,2.4h0.9c1.3,0,2.4-1.1,2.4-2.4v-5.4
		C22.5,26.5,21.5,25.5,20.2,25.5z"/>
</g>
</svg>
