<?xml version="1.0" encoding="utf-8"?>
<!-- Generator: Adobe Illustrator 18.0.0, SVG Export Plug-In . SVG Version: 6.00 Build 0)  -->
<!DOCTYPE svg PUBLIC "-//W3C//DTD SVG 1.1//EN" "http://www.w3.org/Graphics/SVG/1.1/DTD/svg11.dtd">
<svg version="1.1" id="Layer_1" xmlns="http://www.w3.org/2000/svg" xmlns:xlink="http://www.w3.org/1999/xlink" x="0px" y="0px"
	 viewBox="0 0 48 48" enable-background="new 0 0 48 48" xml:space="preserve">
<g>
	<path fill="#F04B36" d="M34.6,8.6c-0.2,0-0.5-0.1-0.7-0.3l-6.8-6.2c-0.4-0.4-0.4-1-0.1-1.4c0.4-0.4,1-0.4,1.4-0.1l6.8,6.2
		c0.4,0.4,0.4,1,0.1,1.4C35.1,8.5,34.9,8.6,34.6,8.6z"/>
	<path fill="#06728D" d="M43.3,2.5c-0.8-0.7-1.6-1.3-2.5-1.8c-0.4-0.2-0.9-0.1-1.2,0.2L28.4,12.7c-0.3,0.3-0.4,0.8-0.1,1.2
		c0.6,0.9,1.2,1.7,1.9,2.4c0.4,0.4,0.9,0.7,1.3,1.1l-10.5,8.3L1.5,39.3c-0.4,0.3-0.6,0.9-0.2,1.4l4.4,6.4c0.1,0.2,0.4,0.4,0.6,0.4
		c0.1,0,0.1,0,0.2,0c0.2,0,0.4-0.1,0.6-0.2l19.9-13.8c0.1-0.1,0.2-0.2,0.2-0.2l9.5-13.8c0.5,0.1,0.9,0.1,1.4,0.1c0,0,0,0,0,0
		c2.6,0,4.9-1,6.5-2.7C48.2,13,47.6,6.6,43.3,2.5z"/>
</g>
</svg>
