<?xml version="1.0" encoding="utf-8"?>
<!-- Generator: Adobe Illustrator 18.0.0, SVG Export Plug-In . SVG Version: 6.00 Build 0)  -->
<!DOCTYPE svg PUBLIC "-//W3C//DTD SVG 1.1//EN" "http://www.w3.org/Graphics/SVG/1.1/DTD/svg11.dtd">
<svg version="1.1" id="Layer_1" xmlns="http://www.w3.org/2000/svg" xmlns:xlink="http://www.w3.org/1999/xlink" x="0px" y="0px"
	 viewBox="0 0 48 48" enable-background="new 0 0 48 48" xml:space="preserve">
<g>
	<path fill="#294E58" d="M8.3,47.5C4,47.5,0.5,43,0.5,37.4V10.6C0.5,5,4,0.5,8.3,0.5h25.3c4.3,0,7.8,4.5,7.8,10.1c0,0.6-0.4,1-1,1
		c-0.5,0-1-0.4-1-1c0-4.5-2.6-8.1-5.8-8.1H8.3c-3.2,0-5.8,3.6-5.8,8.1v26.8c0,4.5,2.6,8.1,5.8,8.1c0.5,0,1,0.4,1,1
		C9.2,47.1,8.8,47.5,8.3,47.5z"/>
	<path fill="#0DB89A" d="M46.2,14c-1.2-1.5-2.9-2.3-5-2.3H15.9c-4.2,0-8.4,3.5-9.5,7.8L1.6,39.2c-0.5,2.2-0.2,4.4,1.1,6
		c1.2,1.5,2.9,2.3,5,2.3H33c4.2,0,8.4-3.5,9.5-7.8L47.3,20C47.8,17.8,47.4,15.6,46.2,14z M31.3,31.1h-5.4v5.4H23v-5.4h-5.4v-3H23
		v-5.4h2.9v5.4h5.4V31.1z"/>
</g>
</svg>
