<?xml version="1.0" encoding="utf-8"?>
<!-- Generator: Adobe Illustrator 18.0.0, SVG Export Plug-In . SVG Version: 6.00 Build 0)  -->
<!DOCTYPE svg PUBLIC "-//W3C//DTD SVG 1.1//EN" "http://www.w3.org/Graphics/SVG/1.1/DTD/svg11.dtd">
<svg version="1.1" id="Layer_1" xmlns="http://www.w3.org/2000/svg" xmlns:xlink="http://www.w3.org/1999/xlink" x="0px" y="0px"
	 viewBox="0 0 48 48" enable-background="new 0 0 48 48" xml:space="preserve">
<g>
	<path fill="#F7A93B" d="M37.9,0.5H10.1c-1.6,0-2.9,1.3-2.9,2.9v41.1c0,1.6,1.3,2.9,2.9,2.9h27.9c1.6,0,2.9-1.3,2.9-2.9V3.4
		C40.9,1.8,39.6,0.5,37.9,0.5z M15.8,7.9h16.7v2H15.8V7.9z M15.8,16.9h16.7v2H15.8V16.9z M15.8,25.9h16.7v2H15.8V25.9z M33.2,38
		h-3.1v3.1h-2V38h-3.1v-2h3.1V33h2v3.1h3.1V38z"/>
</g>
</svg>
