<?xml version="1.0" encoding="utf-8"?>
<!-- Generator: Adobe Illustrator 18.0.0, SVG Export Plug-In . SVG Version: 6.00 Build 0)  -->
<!DOCTYPE svg PUBLIC "-//W3C//DTD SVG 1.1//EN" "http://www.w3.org/Graphics/SVG/1.1/DTD/svg11.dtd">
<svg version="1.1" id="Layer_1" xmlns="http://www.w3.org/2000/svg" xmlns:xlink="http://www.w3.org/1999/xlink" x="0px" y="0px"
	 viewBox="0 0 48 48" enable-background="new 0 0 48 48" xml:space="preserve">
<g>
	<path fill="#F04B36" d="M21.6,23.6c1.1,0,1.7-1,1.7-2.2c0-1.2-0.6-2.2-1.7-2.2c-1.1,0-1.7,1-1.7,2.2C19.9,22.7,20.5,23.6,21.6,23.6
		z"/>
	<polygon fill="none" points="12.7,22 15.4,22 15.4,24.7 17,24.7 17,18.2 15.4,18.2 15.4,20.7 12.7,20.7 12.7,18.2 11.1,18.2 
		11.1,24.7 12.7,24.7 	"/>
	<polygon fill="none" points="13.4,29.9 12.5,28 11.6,30 9.4,30.2 11.1,31.5 10.6,33.5 12.6,32.4 14.5,33.5 14,31.5 15.7,30.1 	"/>
	<path fill="none" d="M21.5,24.8c2.1,0,3.5-1.3,3.5-3.4c0-1.8-1.2-3.3-3.4-3.3c-2.1,0-3.5,1.5-3.5,3.4
		C18.1,23.3,19.4,24.8,21.5,24.8z"/>
	<polygon fill="none" points="42,23.5 39.1,23.5 39.1,18.2 37.5,18.2 37.5,24.7 42,24.7 	"/>
	<polygon fill="none" points="27.2,24.7 28.9,24.7 28.9,19.4 30.9,19.4 30.9,18.2 25.3,18.2 25.3,19.4 27.2,19.4 	"/>
	<polygon fill="none" points="20.3,29.9 19.4,28 18.5,30 16.3,30.2 18,31.5 17.5,33.5 19.4,32.4 21.4,33.5 20.9,31.5 22.6,30.1 	"/>
	<polygon fill="none" points="40.9,29.9 40,28 39.2,30 36.9,30.2 38.6,31.5 38.2,33.5 40.1,32.4 42.1,33.5 41.5,31.5 43.2,30.1 	"/>
	<polygon fill="none" points="27.2,29.9 26.3,28 25.4,30 23.1,30.2 24.9,31.5 24.4,33.5 26.3,32.4 28.3,33.5 27.7,31.5 29.4,30.1 	
		"/>
	<polygon fill="none" points="34.1,29.9 33.1,28 32.3,30 30,30.2 31.8,31.5 31.3,33.5 33.2,32.4 35.2,33.5 34.6,31.5 36.3,30.1 	"/>
	<polygon fill="none" points="33.4,21.9 36,21.9 36,20.7 33.4,20.7 33.4,19.4 36.2,19.4 36.2,18.2 31.7,18.2 31.7,24.7 36.3,24.7 
		36.3,23.5 33.4,23.5 	"/>
	<polygon fill="#06728D" points="14.7,9.6 37.9,9.6 37.9,11.7 39.9,11.7 39.9,9.6 47.5,9.6 47.5,7.6 39.9,7.6 39.9,6 37.9,6 
		37.9,7.6 14.7,7.6 14.7,6 12.7,6 12.7,7.6 2.5,7.6 2.5,0.5 0.5,0.5 0.5,47.5 2.5,47.5 2.5,9.6 12.7,9.6 12.7,11.7 14.7,11.7 	"/>
	<path fill="#F04B36" d="M45.5,11.7h-5.6h-2H14.7h-2H7.1c-0.6,0-1.1,0.5-1.1,1.1v24.3c0,0.6,0.5,1.1,1.1,1.1h38.5
		c0.6,0,1.1-0.5,1.1-1.1V12.9C46.6,12.2,46.1,11.7,45.5,11.7z M37.5,18.2h1.6v5.3H42v1.2h-4.5V18.2z M25.3,18.2h5.6v1.2h-2v5.3h-1.6
		v-5.3h-1.9V18.2z M21.6,18c2.2,0,3.4,1.5,3.4,3.3c0,2.1-1.4,3.4-3.5,3.4c-2.1,0-3.4-1.5-3.4-3.3C18.1,19.5,19.5,18,21.6,18z
		 M11.1,18.2h1.6v2.5h2.7v-2.5H17v6.5h-1.6V22h-2.7v2.7h-1.6V18.2z M14.5,33.5l-2-1l-1.9,1.1l0.5-2l-1.7-1.3l2.3-0.2l0.9-1.9
		l0.9,1.9l2.3,0.1L14,31.5L14.5,33.5z M21.4,33.5l-2-1l-1.9,1.1l0.5-2l-1.7-1.3l2.3-0.2l0.9-1.9l0.9,1.9l2.3,0.1l-1.7,1.4L21.4,33.5
		z M28.3,33.5l-2-1l-1.9,1.1l0.5-2l-1.7-1.3l2.3-0.2l0.9-1.9l0.9,1.9l2.3,0.1l-1.7,1.4L28.3,33.5z M35.2,33.5l-2-1l-1.9,1.1l0.5-2
		L30,30.2l2.3-0.2l0.9-1.9l0.9,1.9l2.3,0.1l-1.7,1.4L35.2,33.5z M36.3,24.7h-4.6v-6.5h4.5v1.2h-2.8v1.4H36v1.2h-2.7v1.6h3V24.7z
		 M42.1,33.5l-2-1l-1.9,1.1l0.5-2l-1.7-1.3l2.3-0.2L40,28l0.9,1.9l2.3,0.1l-1.7,1.4L42.1,33.5z"/>
</g>
</svg>
