<?xml version="1.0" encoding="utf-8"?>
<!-- Generator: Adobe Illustrator 18.0.0, SVG Export Plug-In . SVG Version: 6.00 Build 0)  -->
<!DOCTYPE svg PUBLIC "-//W3C//DTD SVG 1.1//EN" "http://www.w3.org/Graphics/SVG/1.1/DTD/svg11.dtd">
<svg version="1.1" id="Layer_1" xmlns="http://www.w3.org/2000/svg" xmlns:xlink="http://www.w3.org/1999/xlink" x="0px" y="0px"
	 viewBox="0 0 48 48" enable-background="new 0 0 48 48" xml:space="preserve">
<g>
	<path fill="#F7A93B" d="M39.9,27.9c0,0.2-0.1,0.4-0.3,0.5l-7.1,7.4c-0.2,0.2-0.5,0.3-0.8,0.3c-0.1,0-0.3,0-0.4-0.1
		c-0.4-0.2-0.7-0.5-0.7-1l-0.1-10.3c0-0.2,0.1-0.4,0.2-0.6c0-0.1,0-0.1,0-0.2l5-12.8h-33c-1.3,0-2.3,1-2.3,2.2v31.9
		c0,1.2,1,2.2,2.3,2.2h36.9c1.3,0,2.3-1,2.3-2.2V22.9L40,27.7C40,27.8,39.9,27.8,39.9,27.9z M26.3,42.9H4.8v-2.2h21.5V42.9z
		 M26.3,36.7H4.8v-2.2h21.5V36.7z M26.3,30.4H4.8v-2.2h21.5V30.4z M26.3,24.1H4.8V22h21.5V24.1z M26.3,17.9H4.8v-2.2h21.5V17.9z"/>
	<polygon fill="#0DB89A" points="32.8,32.4 37.3,27.8 32.8,25.9 	"/>
	<path fill="#E77528" d="M38.4,25.9l9.1-23.3l-5.2-2.1l-9.1,23.3L38.4,25.9z M42.9,3.7c0.2-0.6,0.8-0.8,1.4-0.6
		c0.6,0.2,0.8,0.8,0.6,1.4L37.7,23c-0.2,0.4-0.6,0.7-1,0.7c-0.1,0-0.3,0-0.4-0.1c-0.6-0.2-0.8-0.8-0.6-1.4L42.9,3.7z"/>
</g>
</svg>
