<?xml version="1.0" encoding="utf-8"?>
<!-- Generator: Adobe Illustrator 18.0.0, SVG Export Plug-In . SVG Version: 6.00 Build 0)  -->
<!DOCTYPE svg PUBLIC "-//W3C//DTD SVG 1.1//EN" "http://www.w3.org/Graphics/SVG/1.1/DTD/svg11.dtd">
<svg version="1.1" id="Layer_1" xmlns="http://www.w3.org/2000/svg" xmlns:xlink="http://www.w3.org/1999/xlink" x="0px" y="0px"
	 viewBox="0 0 48 48" enable-background="new 0 0 48 48" xml:space="preserve">
<g>
	<polygon fill="#F04B36" points="28.6,5.7 35.5,8.8 36.6,27.2 16.3,25.7 	"/>
	<path fill="#CFD0D1" d="M24,0.5C11,0.5,0.5,11,0.5,24S11,47.5,24,47.5C37,47.5,47.5,37,47.5,24S37,0.5,24,0.5z M23,3.7h2v4.5h-2
		V3.7z M8.2,25H3.7v-2h4.5V25z M25,44.3h-2v-4.5h2V44.3z M35,25.6L22.6,25l6.1-17.1l1.9,0.7L25.4,23l9.7,0.5L35,25.6z M39.8,25v-2
		h4.5v2H39.8z"/>
</g>
</svg>
