<?xml version="1.0" encoding="utf-8"?>
<!-- Generator: Adobe Illustrator 18.0.0, SVG Export Plug-In . SVG Version: 6.00 Build 0)  -->
<!DOCTYPE svg PUBLIC "-//W3C//DTD SVG 1.1//EN" "http://www.w3.org/Graphics/SVG/1.1/DTD/svg11.dtd">
<svg version="1.1" id="Layer_1" xmlns="http://www.w3.org/2000/svg" xmlns:xlink="http://www.w3.org/1999/xlink" x="0px" y="0px"
	 viewBox="0 0 48 48" enable-background="new 0 0 48 48" xml:space="preserve">
<g>
	<rect x="7.4" y="20.9" fill="#CFD0D1" width="25.3" height="19.6"/>
	<ellipse fill="#F04B36" cx="40.5" cy="23.8" rx="1.9" ry="1.9"/>
	<path fill="#06728D" d="M43.5,13.8H19.7l9.5-12.1l-1.6-1.2l-9,11.5l-5-9l-1.8,1l5.5,9.8H4.5c-2.2,0-4,1.8-4,4v25.7c0,2.2,1.8,4,4,4
		h39c2.2,0,4-1.8,4-4V17.8C47.5,15.6,45.7,13.8,43.5,13.8z M34.8,42.4H5.4V18.8h29.4V42.4z M43.5,41.5h-5.9v-2h5.9V41.5z M43.5,36.6
		h-5.9v-2h5.9V36.6z M43.5,31.7h-5.9v-2h5.9V31.7z M40.5,27.7c-2.2,0-3.9-1.8-3.9-4s1.8-4,3.9-4c2.2,0,3.9,1.8,3.9,4
		S42.7,27.7,40.5,27.7z"/>
</g>
</svg>
