<?xml version="1.0" encoding="utf-8"?>
<!-- Generator: Adobe Illustrator 18.0.0, SVG Export Plug-In . SVG Version: 6.00 Build 0)  -->
<!DOCTYPE svg PUBLIC "-//W3C//DTD SVG 1.1//EN" "http://www.w3.org/Graphics/SVG/1.1/DTD/svg11.dtd">
<svg version="1.1" id="Layer_1" xmlns="http://www.w3.org/2000/svg" xmlns:xlink="http://www.w3.org/1999/xlink" x="0px" y="0px"
	 viewBox="0 0 48 48" enable-background="new 0 0 48 48" xml:space="preserve">
<g>
	<rect x="10.8" y="45.3" fill="#0DB89A" width="16.9" height="2.2"/>
	<path fill="#294E58" d="M43.2,18.2c-1.3-0.3-2.7-0.2-4,0.4c0-0.7,0-1.4-0.1-2.1H0.6c-0.1,0.8-0.1,1.5-0.1,2.3
		c0,13.7,8.7,24.8,19.4,24.8c2.4,0,4.7-0.6,6.8-1.6c9.1-2.6,19.2-7.4,20.6-15.8C48.1,21.7,45.8,18.9,43.2,18.2z M16.4,38.3
		C7,32.5,6.2,22.7,6.2,22.3l2-0.2c0,0.4,0.7,9.1,9.2,14.4L16.4,38.3z M44.4,25.8c-0.7,3.9-4.4,7.5-10.6,10.4
		c2.7-3.5,4.5-8.1,5.2-13.1c0.9-1.4,2.3-1.9,3.5-1.6C44.1,21.8,44.8,23.4,44.4,25.8z"/>
	<path fill="#CFD0D1" d="M19.8,9.3c0.5,0.4,1,0.9,1.2,1.3c0.7,1.7-1.5,3.1-1.7,3.2l0.9,1.9c2-1.2,3.6-3.5,2.6-6
		c-0.4-0.9-1.1-1.5-1.8-2.1c-0.4-0.4-0.8-0.7-1-1c-0.3-0.5-0.9-1.5-0.7-2.5c0-0.2,0.4-0.7,0.7-1c0.6-0.7,1.3-1.5,1.1-2.6l-2,0.2
		c0,0.2-0.4,0.7-0.6,1c-0.4,0.5-0.9,1.2-1.1,1.9c-0.3,1.4,0.1,2.9,1,4.2C18.7,8.4,19.3,8.9,19.8,9.3z"/>
</g>
</svg>
