<?xml version="1.0" encoding="utf-8"?>
<!-- Generator: Adobe Illustrator 18.0.0, SVG Export Plug-In . SVG Version: 6.00 Build 0)  -->
<!DOCTYPE svg PUBLIC "-//W3C//DTD SVG 1.1//EN" "http://www.w3.org/Graphics/SVG/1.1/DTD/svg11.dtd">
<svg version="1.1" id="Layer_1" xmlns="http://www.w3.org/2000/svg" xmlns:xlink="http://www.w3.org/1999/xlink" x="0px" y="0px"
	 viewBox="0 0 48 48" enable-background="new 0 0 48 48" xml:space="preserve">
<g>
	<rect x="21.8" y="18.5" fill="#4DA0D8" width="6.2" height="6.5"/>
	<polygon fill="#4DA0D8" points="37.1,18.5 34.4,18.5 34.4,25 40.8,25 	"/>
	<path fill="#F04B36" d="M39.9,31.2c-2,0-3.6,1.6-3.6,3.6c0,2,1.6,3.6,3.6,3.6c2,0,3.6-1.6,3.6-3.6C43.5,32.9,41.9,31.2,39.9,31.2z"
		/>
	<rect x="9" y="18.5" fill="#4DA0D8" width="6.2" height="6.5"/>
	<path fill="#F04B36" d="M12.5,31.2c-2,0-3.6,1.6-3.6,3.6c0,2,1.6,3.6,3.6,3.6c2,0,3.6-1.6,3.6-3.6C16.1,32.9,14.5,31.2,12.5,31.2z"
		/>
	<polygon fill="#0DB89A" points="2.3,22.2 0.5,22.2 0.5,29.1 2.3,29.1 2.3,23 	"/>
	<rect x="9.8" y="9.5" fill="#0DB89A" width="23.1" height="3.1"/>
	<path fill="#E77528" d="M45.5,33.4h2v-6.6l-7.2-12.1H35H7.7h-3l-0.2,8.3v8.2v2.2h2.5c0.6-2.5,2.9-4.3,5.6-4.3
		c2.7,0,4.9,1.8,5.6,4.3h16.3c0.6-2.5,2.9-4.3,5.6-4.3C42.6,29.1,44.8,31,45.5,33.4z M17.3,27.1H6.8V16.3h10.5V27.1z M30.1,27.1
		H19.6V16.3h10.5V27.1z M32.2,27.1V16.3h6.1l6.2,10.7H32.2z"/>
</g>
</svg>
