<?xml version="1.0" encoding="utf-8"?>
<!-- Generator: Adobe Illustrator 18.0.0, SVG Export Plug-In . SVG Version: 6.00 Build 0)  -->
<!DOCTYPE svg PUBLIC "-//W3C//DTD SVG 1.1//EN" "http://www.w3.org/Graphics/SVG/1.1/DTD/svg11.dtd">
<svg version="1.1" id="Layer_1" xmlns="http://www.w3.org/2000/svg" xmlns:xlink="http://www.w3.org/1999/xlink" x="0px" y="0px"
	 viewBox="0 0 48 48" enable-background="new 0 0 48 48" xml:space="preserve">
<g>
	<path fill="#0DB89A" d="M44.8,29l2.7-2.7L25.3,4.1c-0.7-0.7-2-0.7-2.7,0L0.5,26.3L3.2,29L24,8.2L44.8,29z"/>
	<path fill="#F04B36" d="M33.2,31.4c0-5.4-4.4-9.8-9.8-9.8c-5.4,0-9.8,4.4-9.8,9.8c0,5.4,4.4,9.8,9.8,9.8c2.7,0,5.2-1.1,7.1-3
		c0.9-1,1.6-2.1,2.1-3.3l13.4,3.4l0.5-1.9L33,33C33.1,32.5,33.2,31.9,33.2,31.4z M29.1,36.9c-1.5,1.6-3.5,2.4-5.7,2.4
		c-4.3,0-7.9-3.5-7.9-7.9c0-4.3,3.5-7.9,7.9-7.9c4.3,0,7.9,3.5,7.9,7.9C31.3,33.5,30.5,35.4,29.1,36.9z"/>
	<path fill="#F7A93B" d="M31.8,39.5c-2.2,2.3-5.2,3.6-8.4,3.6c-6.5,0-11.7-5.2-11.7-11.7s5.2-11.7,11.7-11.7
		c6.5,0,11.7,5.2,11.7,11.7c0,0.1,0,0.1,0,0.2l6,1.5v-4L23.9,11.7L7,29v15.4H41V39l-7.4-1.9C33.1,38,32.5,38.8,31.8,39.5z"/>
	<path fill="#F7A93B" d="M23.4,25.4c-3.3,0-6,2.7-6,6s2.7,6,6,6c1.6,0,3.2-0.6,4.3-1.8c1.1-1.1,1.7-2.6,1.7-4.2
		C29.4,28.1,26.7,25.4,23.4,25.4z"/>
</g>
</svg>
