<?xml version="1.0" encoding="utf-8"?>
<!-- Generator: Adobe Illustrator 18.0.0, SVG Export Plug-In . SVG Version: 6.00 Build 0)  -->
<!DOCTYPE svg PUBLIC "-//W3C//DTD SVG 1.1//EN" "http://www.w3.org/Graphics/SVG/1.1/DTD/svg11.dtd">
<svg version="1.1" id="Layer_1" xmlns="http://www.w3.org/2000/svg" xmlns:xlink="http://www.w3.org/1999/xlink" x="0px" y="0px"
	 viewBox="0 0 48 48" enable-background="new 0 0 48 48" xml:space="preserve">
<g>
	<rect x="9" y="45.5" fill="#E8B944" width="5.2" height="2"/>
	<rect x="32.4" y="45.5" fill="#E8B944" width="5.2" height="2"/>
	<polygon fill="#06728D" points="20.6,20.2 18.8,19.3 17.3,21.9 19.2,22.8 	"/>
	<polygon fill="#06728D" points="23.4,14.9 21.6,14.1 20.2,16.7 22,17.6 	"/>
	<polygon fill="#06728D" points="17.8,25.4 15.9,24.5 14.5,27.1 16.4,28 	"/>
	<polygon fill="#06728D" points="25.2,11.6 23.4,10.7 23,11.4 24.8,12.3 	"/>
	<polygon fill="#06728D" points="25.9,23.5 23.9,23 23.2,25.9 25.2,26.4 	"/>
	<polygon fill="#06728D" points="22.2,29.7 24.2,30.2 24.4,29.2 22.4,28.7 	"/>
	<polygon fill="#06728D" points="24.7,20.2 26.7,20.7 27.4,17.8 25.4,17.3 	"/>
	<polygon fill="#06728D" points="28.9,12.1 26.9,11.6 26.2,14.5 28.2,15 	"/>
	<polygon fill="#06728D" points="32.4,12.2 30.3,12.1 30.1,15 32.2,15.1 	"/>
	<polygon fill="#06728D" points="29.8,20.9 31.8,21 32,18.1 29.9,17.9 	"/>
	<polygon fill="#06728D" points="29.4,26.7 31.4,26.9 31.6,23.9 29.6,23.8 	"/>
	<path fill="#0DB89A" d="M43.5,25.4c-0.1,0-0.2,0-0.4,0l-2,0.2c-2.5,0.4-5.8,1.6-10.1,4.2c-4.8,2.9-10.6,4.3-15.9,4.3
		c-6.3,0-11.9-2-14.6-5.7c0,0,2.5,13.1,6.1,15.2H42c0,0,6.4-13.9,5.4-17.1C47.4,26.5,46.3,25.4,43.5,25.4z"/>
	<path fill="#E77528" d="M43.1,8.4c0-0.2-0.1-0.4-0.2-0.6c-0.3-0.4-7.3-9.9-14.2-6.6c-1.6,0.3-2.9,1.6-2.9,3.2
		c0,1.8,1.6,3.2,3.5,3.2c2,0,3.5-1.5,3.5-3.2c0-0.7-0.2-1.3-0.7-1.9c4.1,0.4,7.9,5.1,8.8,6.2v17l2-0.2V8.4z"/>
</g>
</svg>
