<?xml version="1.0" encoding="utf-8"?>
<!-- Generator: Adobe Illustrator 18.0.0, SVG Export Plug-In . SVG Version: 6.00 Build 0)  -->
<!DOCTYPE svg PUBLIC "-//W3C//DTD SVG 1.1//EN" "http://www.w3.org/Graphics/SVG/1.1/DTD/svg11.dtd">
<svg version="1.1" id="Layer_1" xmlns="http://www.w3.org/2000/svg" xmlns:xlink="http://www.w3.org/1999/xlink" x="0px" y="0px"
	 viewBox="0 0 48 48" enable-background="new 0 0 48 48" xml:space="preserve">
<g>
	<path fill="#CFD0D1" d="M23.7,4.6c-4.5,4.5-5.3,11.3-2.4,16.6L1.7,40.8c-1.6,1.6-1.6,4.1-0.1,5.6c1.5,1.5,4,1.5,5.6-0.1L8,45.5
		l5.1,0l0-5.1l5.9,0.7l-0.7-5.9l0.4-0.4l5,0.6l-0.6-5l0.1-0.1l4.5,1.1l-1.1-4.5l0.2-0.2c5.3,2.9,12.1,2.1,16.6-2.4
		c5.4-5.5,5.4-14.3,0-19.7C38-0.9,29.1-0.9,23.7,4.6z M36.3,17.2c-1.5,1.5-3.9,1.5-5.5,0c-1.5-1.5-1.5-3.9,0-5.5
		c1.5-1.5,3.9-1.5,5.5,0C37.8,13.2,37.8,15.7,36.3,17.2z"/>
</g>
</svg>
