<?xml version="1.0" encoding="utf-8"?>
<!-- Generator: Adobe Illustrator 18.0.0, SVG Export Plug-In . SVG Version: 6.00 Build 0)  -->
<!DOCTYPE svg PUBLIC "-//W3C//DTD SVG 1.1//EN" "http://www.w3.org/Graphics/SVG/1.1/DTD/svg11.dtd">
<svg version="1.1" id="Layer_1" xmlns="http://www.w3.org/2000/svg" xmlns:xlink="http://www.w3.org/1999/xlink" x="0px" y="0px"
	 viewBox="0 0 48 48" enable-background="new 0 0 48 48" xml:space="preserve">
<g>
	<path fill="#F04B36" d="M45.2,7.2c-0.4-0.4-1-0.5-1.4-0.1l-7.7,6.6c-0.2,0.2-0.3,0.4-0.3,0.7c0,0.3,0.1,0.5,0.2,0.7
		c1.2,1.4,1.7,3.1,1.6,5c-0.2,3.3-2.4,6.8-6,9.9c-3.4,2.9-6.9,4.5-10.1,4.5c-2.2,0-4.1-0.8-5.4-2.3c-0.4-0.4-1-0.5-1.4-0.1l-7.7,6.6
		c-0.2,0.2-0.3,0.4-0.3,0.7c0,0.3,0.1,0.5,0.2,0.7c1.9,2.2,5.2,3.4,9.5,3.4c6.9,0,14.5-3,20.4-8c6.1-5.2,10.2-12.7,10.7-19.6
		C47.7,12.2,46.9,9.2,45.2,7.2z"/>
	<path fill="#4DA0D8" d="M33,11.4c0.2,0.2,0.5,0.3,0.7,0.3c0.2,0,0.5-0.1,0.6-0.2L42.1,5c0.2-0.2,0.3-0.4,0.3-0.7
		c0-0.3-0.1-0.5-0.2-0.7l-2.3-2.7c-0.4-0.4-1-0.5-1.4-0.1l-7.7,6.6c-0.2,0.2-0.3,0.4-0.3,0.7c0,0.3,0.1,0.5,0.2,0.7L33,11.4z"/>
	<path fill="#4DA0D8" d="M2.5,40.1c0-1,0.4-2.1,0.8-3.1l0.3-0.8l0.3,0.3c0.2,0.2,0.5,0.3,0.7,0.3c0.2,0,0.5-0.1,0.6-0.2l7.7-6.6
		c0.2-0.2,0.3-0.4,0.3-0.7c0-0.3-0.1-0.5-0.2-0.7l-2.3-2.7c-0.4-0.4-1-0.5-1.4-0.1l-7.7,6.6c-0.2,0.2-0.3,0.4-0.3,0.7
		s0.1,0.5,0.2,0.7L2,34.4l-0.7,1.9c-0.4,1.1-0.9,2.4-0.9,3.8c0,1.4,0.5,2.9,1.4,4.3c0.8,1.2,1.8,2.2,2.7,3.2L6,46.1
		c-0.9-0.9-1.8-1.8-2.5-2.9C2.8,42.2,2.5,41.1,2.5,40.1z"/>
</g>
</svg>
