<?xml version="1.0" encoding="utf-8"?>
<!-- Generator: Adobe Illustrator 18.0.0, SVG Export Plug-In . SVG Version: 6.00 Build 0)  -->
<!DOCTYPE svg PUBLIC "-//W3C//DTD SVG 1.1//EN" "http://www.w3.org/Graphics/SVG/1.1/DTD/svg11.dtd">
<svg version="1.1" id="Layer_1" xmlns="http://www.w3.org/2000/svg" xmlns:xlink="http://www.w3.org/1999/xlink" x="0px" y="0px"
	 viewBox="0 0 48 48" enable-background="new 0 0 48 48" xml:space="preserve">
<g>
	<rect x="0.5" y="21" fill="#E77528" width="47" height="2"/>
	<path fill="#0DB89A" d="M26.3,19.4h-4.5c-0.6,0-1.1-0.5-1.1-1.1v-10c0-0.6,0.5-1.1,1.1-1.1h4.5c0.6,0,1.1,0.5,1.1,1.1v10
		C27.3,18.9,26.9,19.4,26.3,19.4z"/>
	<rect x="23" y="0.5" fill="#0DB89A" width="2" height="8.9"/>
	<path fill="#06728D" d="M15.3,19.4h-4.5c-0.6,0-1.1-0.5-1.1-1.1V9.7c0-0.6,0.5-1.1,1.1-1.1h4.5c0.6,0,1.1,0.5,1.1,1.1v8.6
		C16.4,18.9,15.9,19.4,15.3,19.4z"/>
	<path fill="#F04B36" d="M37.2,19.4h-4.5c-0.6,0-1.1-0.5-1.1-1.1v-6.5c0-0.6,0.5-1.1,1.1-1.1h4.5c0.6,0,1.1,0.5,1.1,1.1v6.5
		C38.2,18.9,37.8,19.4,37.2,19.4z"/>
	<rect x="12.1" y="5.5" fill="#06728D" width="2" height="4.8"/>
	<rect x="0.5" y="45.5" fill="#CFD0D1" width="47" height="2"/>
	<path fill="#06728D" d="M37.2,43.9h-4.5c-0.6,0-1.1-0.5-1.1-1.1v-10c0-0.6,0.5-1.1,1.1-1.1h4.5c0.6,0,1.1,0.5,1.1,1.1v10
		C38.2,43.5,37.8,43.9,37.2,43.9z"/>
	<rect x="33.9" y="25" fill="#06728D" width="2" height="8.6"/>
	<path fill="#F7A93B" d="M15.3,43.9h-4.5c-0.6,0-1.1-0.5-1.1-1.1v-6.5c0-0.6,0.5-1.1,1.1-1.1h4.5c0.6,0,1.1,0.5,1.1,1.1v6.5
		C16.4,43.5,15.9,43.9,15.3,43.9z"/>
	<path fill="#F04B36" d="M26.3,43.9h-4.5c-0.6,0-1.1-0.5-1.1-1.1v-8.6c0-0.6,0.5-1.1,1.1-1.1h4.5c0.6,0,1.1,0.5,1.1,1.1v8.6
		C27.3,43.5,26.9,43.9,26.3,43.9z"/>
	<rect x="23" y="30" fill="#F04B36" width="2" height="5.3"/>
</g>
</svg>
