<?xml version="1.0" encoding="utf-8"?>
<!-- Generator: Adobe Illustrator 18.0.0, SVG Export Plug-In . SVG Version: 6.00 Build 0)  -->
<!DOCTYPE svg PUBLIC "-//W3C//DTD SVG 1.1//EN" "http://www.w3.org/Graphics/SVG/1.1/DTD/svg11.dtd">
<svg version="1.1" id="Layer_1" xmlns="http://www.w3.org/2000/svg" xmlns:xlink="http://www.w3.org/1999/xlink" x="0px" y="0px"
	 viewBox="0 0 48 48" enable-background="new 0 0 48 48" xml:space="preserve">
<g>
	<rect x="0.5" y="9.6" fill="#F04B36" width="2" height="8.5"/>
	<rect x="45.5" y="9.6" fill="#F04B36" width="2" height="8.5"/>
	<path fill="#06728D" d="M5.9,38.5c0,1.4,1.1,2.5,2.4,2.5H11v6.4h2v-6.4H35v6.4h2v-6.4h2.7c1.3,0,2.4-1.1,2.4-2.5V27.4H5.9V38.5z
		 M34,34.5h3.8v2H34V34.5z M10.3,34.5H14v2h-3.8V34.5z"/>
	<path fill="#F7A93B" d="M36.4,0.5H11.6c-3.1,0-5.7,2.7-5.7,5.9v19h36.2v-19C42.1,3.2,39.5,0.5,36.4,0.5z M27.3,6.1h-6.6v-2h6.6V6.1
		z"/>
</g>
</svg>
