<?xml version="1.0" encoding="utf-8"?>
<!-- Generator: Adobe Illustrator 18.0.0, SVG Export Plug-In . SVG Version: 6.00 Build 0)  -->
<!DOCTYPE svg PUBLIC "-//W3C//DTD SVG 1.1//EN" "http://www.w3.org/Graphics/SVG/1.1/DTD/svg11.dtd">
<svg version="1.1" id="Layer_1" xmlns="http://www.w3.org/2000/svg" xmlns:xlink="http://www.w3.org/1999/xlink" x="0px" y="0px"
	 viewBox="0 0 48 48" enable-background="new 0 0 48 48" xml:space="preserve">
<g>
	<polygon fill="#06728D" points="35.8,0.5 33.9,1 41,28.4 36.3,37.4 38.1,38.4 43.2,28.6 	"/>
	<polygon fill="#06728D" points="35.2,30.9 32.8,35.2 34.6,36.1 36.9,31.9 	"/>
	<path fill="#F04B36" d="M24,15.8c-4.6,0-8.4,3.8-8.4,8.4s3.8,8.4,8.4,8.4c4.6,0,8.4-3.8,8.4-8.4S28.6,15.8,24,15.8z M24,27.2
		c-1.7,0-3.1-1.4-3.1-3.1S22.3,21,24,21c1.7,0,3.1,1.4,3.1,3.1S25.7,27.2,24,27.2z"/>
	<ellipse fill="#0DB89A" cx="24" cy="24.1" rx="1.1" ry="1.1"/>
	<path fill="#4DA0D8" d="M39.6,6.6l5.8,22.3L39,41.1l-5.4-2.8l0.2-0.3L30,36l4.4-7.8l3.5,1.9l1-1.9l-6.8-26
		c-2.5-0.9-5.2-1.4-8.1-1.4C11,0.8,0.5,11.2,0.5,24.1C0.5,37,11,47.5,24,47.5S47.5,37,47.5,24.1C47.5,17.2,44.4,10.9,39.6,6.6z
		 M5.7,24.1h-2C3.7,13,12.8,3.9,24,3.9v2C13.9,6,5.7,14.1,5.7,24.1z M8.4,24.1c0-8.5,7-15.5,15.6-15.5v2c-7.5,0-13.5,6-13.5,13.5
		H8.4z M13.5,24.1c0-5.7,4.7-10.4,10.5-10.4c5.8,0,10.5,4.7,10.5,10.4S29.8,34.5,24,34.5C18.2,34.5,13.5,29.9,13.5,24.1z"/>
</g>
</svg>
