<?xml version="1.0" encoding="utf-8"?>
<!-- Generator: Adobe Illustrator 18.0.0, SVG Export Plug-In . SVG Version: 6.00 Build 0)  -->
<!DOCTYPE svg PUBLIC "-//W3C//DTD SVG 1.1//EN" "http://www.w3.org/Graphics/SVG/1.1/DTD/svg11.dtd">
<svg version="1.1" id="Layer_1" xmlns="http://www.w3.org/2000/svg" xmlns:xlink="http://www.w3.org/1999/xlink" x="0px" y="0px"
	 viewBox="0 0 48 48" enable-background="new 0 0 48 48" xml:space="preserve">
<g>
	<rect x="0.5" y="0.5" fill="#0DB89A" width="2" height="4.9"/>
	<rect x="11.8" y="0.5" fill="#0DB89A" width="2" height="4.9"/>
	<rect x="6.1" y="0.5" fill="#0DB89A" width="2" height="4.9"/>
	<rect x="34.2" y="0.5" fill="#0DB89A" width="2" height="4.9"/>
	<rect x="45.5" y="0.5" fill="#0DB89A" width="2" height="4.9"/>
	<rect x="39.8" y="0.5" fill="#0DB89A" width="2" height="4.9"/>
	<path fill="#06728D" d="M24,27.9c-2.9,0-5.3,3.3-5.3,7.3v12.3h10.7V35.2C29.3,31.1,26.9,27.9,24,27.9z"/>
	<path fill="#F7A93B" d="M34.4,19.3H13.6v17.9l2.3,3.7v6.5h0.6V35.2c0-5.6,3.4-10.2,7.5-10.2c4.1,0,7.5,4.6,7.5,10.2v12.3h0.6V41
		l2.3-3.7V19.3z"/>
	<polygon fill="#CFD0D1" points="11.5,14.3 13.6,12.2 13.6,7.5 0.7,7.5 0.7,12.2 2.8,14.3 2.8,38.4 0.5,42 0.5,47.5 13.8,47.5 
		13.8,42 11.5,38.4 	"/>
	<polygon fill="#CFD0D1" points="45.2,14.3 47.3,12.2 47.3,7.5 34.4,7.5 34.4,12.2 36.5,14.3 36.5,38.4 34.2,42 34.2,47.5 
		47.5,47.5 47.5,42 45.2,38.4 	"/>
</g>
</svg>
