<?xml version="1.0" encoding="utf-8"?>
<!-- Generator: Adobe Illustrator 18.0.0, SVG Export Plug-In . SVG Version: 6.00 Build 0)  -->
<!DOCTYPE svg PUBLIC "-//W3C//DTD SVG 1.1//EN" "http://www.w3.org/Graphics/SVG/1.1/DTD/svg11.dtd">
<svg version="1.1" id="Layer_1" xmlns="http://www.w3.org/2000/svg" xmlns:xlink="http://www.w3.org/1999/xlink" x="0px" y="0px"
	 viewBox="0 0 48 48" enable-background="new 0 0 48 48" xml:space="preserve">
<g>
	<path fill="#0DB89A" d="M28.1,19.9c-1.3-1.3-3.1-2.1-4.8-2.1c-1.5,0-2.9,0.6-3.9,1.6c-1.1,1.1-1.6,2.6-1.5,4.2
		c0.1,1.7,0.8,3.3,2.1,4.5c1.3,1.3,3.1,2.1,4.8,2.1c1.5,0,2.9-0.6,3.9-1.6c1.1-1.1,1.6-2.6,1.5-4.2C30.1,22.8,29.4,21.1,28.1,19.9z
		 M27.8,28.5l-1-1c-0.6,0.6-1.4,1-2,1.1l-0.4-0.9c0.6-0.1,1.3-0.5,1.9-1c0.7-0.7,0.8-1.6,0.2-2.2c-0.6-0.6-1.3-0.5-2.3-0.1
		c-1.4,0.6-2.5,0.8-3.4-0.1c-0.8-0.8-0.9-2.1-0.1-3.2l-1-1l0.6-0.6l1,1c0.6-0.6,1.2-0.8,1.7-1l0.4,0.9c-0.3,0.1-1,0.3-1.6,0.9
		c-0.8,0.8-0.6,1.5-0.2,1.9c0.5,0.5,1.2,0.4,2.4-0.1c1.5-0.6,2.5-0.6,3.4,0.3c0.8,0.8,1,2.1,0.1,3.3l1.1,1.1L27.8,28.5z"/>
	<path fill="#E77528" d="M33.1,0.5L0.5,33.1l14.4,14.4l32.6-32.6L33.1,0.5z M12.8,37.5c-0.6,0.6-1.7,0.6-2.3,0
		c-0.6-0.6-0.6-1.7,0-2.3c0.6-0.6,1.7-0.6,2.3,0C13.4,35.9,13.4,36.9,12.8,37.5z M30.1,30.1c-1.4,1.4-3.3,2.2-5.3,2.2
		c-2.3,0-4.6-1-6.3-2.7c-1.6-1.6-2.6-3.7-2.7-5.9c-0.1-2.2,0.6-4.3,2.1-5.8c1.4-1.4,3.3-2.2,5.3-2.2c2.3,0,4.6,1,6.3,2.7
		c1.6,1.6,2.6,3.7,2.7,5.9C32.3,26.5,31.6,28.6,30.1,30.1z M35.2,12.8c-0.6-0.6-0.6-1.7,0-2.3c0.6-0.6,1.7-0.6,2.3,0
		c0.6,0.6,0.6,1.7,0,2.3C36.9,13.4,35.9,13.4,35.2,12.8z"/>
</g>
</svg>
