<?xml version="1.0" encoding="utf-8"?>
<!-- Generator: Adobe Illustrator 18.0.0, SVG Export Plug-In . SVG Version: 6.00 Build 0)  -->
<!DOCTYPE svg PUBLIC "-//W3C//DTD SVG 1.1//EN" "http://www.w3.org/Graphics/SVG/1.1/DTD/svg11.dtd">
<svg version="1.1" id="Layer_1" xmlns="http://www.w3.org/2000/svg" xmlns:xlink="http://www.w3.org/1999/xlink" x="0px" y="0px"
	 viewBox="0 0 48 48" enable-background="new 0 0 48 48" xml:space="preserve">
<g>
	<path fill="#CFD0D1" d="M37.5,18.3c5.3,1.2,7.7-1.2,8.6-2.5C43.9,10,39.4,5.2,33.8,2.6c0.5,2.1,0.3,5.2-2.7,8.6
		C33.9,12.8,36.2,15.3,37.5,18.3z"/>
	<path fill="#F04B36" d="M24,0.5c-2.1,0-4.1,0.3-6,0.8c1.6,1.4,3.3,4,2.8,8.5c1-0.2,2.1-0.4,3.1-0.4c1.7,0,3.4,0.3,5,0.9
		c4.1-4.1,2.7-7.6,2.2-8.7C28.9,0.9,26.5,0.5,24,0.5z"/>
	<path fill="#CFD0D1" d="M10.6,29.8c-5.7-1.1-7.8,2-8.4,3c2.3,5.7,6.9,10.3,12.6,12.8c-0.5-2.1-0.3-5.2,2.7-8.6
		C14.4,35.5,12,33,10.6,29.8z"/>
	<path fill="#CFD0D1" d="M43.9,33.8c-2,0-4.4-0.7-7-3.1c-1.5,2.9-3.9,5.2-6.9,6.6c-1.2,5.3,1.2,7.7,2.5,8.6
		c5.7-2.2,10.4-6.7,12.9-12.2C45,33.7,44.5,33.8,43.9,33.8z"/>
	<path fill="#F04B36" d="M24,47.5c2.1,0,4.2-0.3,6.2-0.8c-1.5-1.5-3.1-4.2-2.4-8.6c-1.2,0.3-2.4,0.5-3.7,0.5c-1.5,0-3-0.2-4.4-0.7
		c-4,4-2.8,7.5-2.3,8.6C19.4,47.2,21.7,47.5,24,47.5z"/>
	<path fill="#F04B36" d="M47.5,24c0-2-0.3-3.9-0.7-5.8c-1.3,1.3-3.3,2.6-6.6,2.6c-0.6,0-1.3-0.1-2-0.2c0.3,1.1,0.4,2.2,0.4,3.4
		c0,1.6-0.3,3.1-0.7,4.6c3.8,4,7.1,3.2,8.5,2.6C47.1,28.9,47.5,26.5,47.5,24z"/>
	<path fill="#F04B36" d="M1.5,17.4c-0.6,2.1-1,4.3-1,6.6c0,2.2,0.3,4.4,0.9,6.4c1.4-1.6,4-3.4,8.5-2.9c-0.3-1.1-0.4-2.3-0.4-3.5
		c0-1.7,0.3-3.3,0.8-4.8C5.6,14.7,1.6,17.3,1.5,17.4L1.5,17.4z"/>
	<path fill="#CFD0D1" d="M11.1,17.1c1.6-3,4.3-5.4,7.4-6.7c1.1-5.7-2-7.8-3-8.4C9.7,4.4,4.9,8.9,2.4,14.7
		C4.4,14.2,7.7,14.1,11.1,17.1z"/>
</g>
</svg>
