<?xml version="1.0" encoding="utf-8"?>
<!-- Generator: Adobe Illustrator 18.0.0, SVG Export Plug-In . SVG Version: 6.00 Build 0)  -->
<!DOCTYPE svg PUBLIC "-//W3C//DTD SVG 1.1//EN" "http://www.w3.org/Graphics/SVG/1.1/DTD/svg11.dtd">
<svg version="1.1" id="Layer_1" xmlns="http://www.w3.org/2000/svg" xmlns:xlink="http://www.w3.org/1999/xlink" x="0px" y="0px"
	 viewBox="0 0 48 48" enable-background="new 0 0 48 48" xml:space="preserve">
<g>
	<rect x="0.5" y="25" fill="#06728D" width="47" height="6.1"/>
	<path fill="#4DA0D8" d="M0.5,33.1v3.3c0,2.8,2,5,4.5,5H43c2.5,0,4.5-2.3,4.5-5v-3.3H0.5z M30.1,38.3h-7.2v-2h7.2V38.3z M40.8,38.3
		h-7.2v-2h7.2V38.3z"/>
	<path fill="#4DA0D8" d="M43,6.6H5c-2.5,0-4.5,2.3-4.5,5V23h47V11.6C47.5,8.8,45.5,6.6,43,6.6z M42.1,18.4H21v-2h21.1V18.4z
		 M42.1,12.9H21v-2h21.1V12.9z"/>
</g>
</svg>
