<?xml version="1.0" encoding="utf-8"?>
<!-- Generator: Adobe Illustrator 18.0.0, SVG Export Plug-In . SVG Version: 6.00 Build 0)  -->
<!DOCTYPE svg PUBLIC "-//W3C//DTD SVG 1.1//EN" "http://www.w3.org/Graphics/SVG/1.1/DTD/svg11.dtd">
<svg version="1.1" id="Layer_1" xmlns="http://www.w3.org/2000/svg" xmlns:xlink="http://www.w3.org/1999/xlink" x="0px" y="0px"
	 viewBox="0 0 48 48" enable-background="new 0 0 48 48" xml:space="preserve">
<g>
	<path fill="#0DB89A" d="M16.4,16L16.4,16c-0.1,0.5-0.3,1.1-0.4,1.6l-0.5,1.8h1.8l-0.5-1.8C16.7,17.1,16.5,16.5,16.4,16z"/>
	<path fill="#0DB89A" d="M25.4,17.1c0-0.8-0.5-1.1-1.4-1.2c-0.5,0-0.7,0-0.8,0.1v2.3h0.7C24.9,18.3,25.4,17.8,25.4,17.1z"/>
	<path fill="#0DB89A" d="M44.2,8.2H3.8c-1.8,0-3.3,1.5-3.3,3.3v24.9c0,1.8,1.5,3.3,3.3,3.3h40.4c1.8,0,3.3-1.5,3.3-3.3V11.5
		C47.5,9.7,46,8.2,44.2,8.2z M28.6,14.7c0.7-0.1,1.6-0.2,2.5-0.2c1.6,0,2.6,0.3,3.4,0.9c0.9,0.6,1.4,1.7,1.4,3.1
		c0,1.6-0.6,2.7-1.4,3.3c-0.9,0.7-2.2,1.1-3.8,1.1c-1,0-1.7-0.1-2.1-0.1V14.7z M10.1,21.4c0.6,0,1.2-0.1,1.6-0.3l0.3,1.5
		c-0.3,0.2-1.1,0.4-2.1,0.4c-2.9,0-4.3-1.8-4.3-4.1c0-2.8,2-4.4,4.5-4.4c1,0,1.7,0.2,2,0.4l-0.4,1.5c-0.4-0.2-0.9-0.3-1.6-0.3
		c-1.5,0-2.6,0.9-2.6,2.7C7.5,20.4,8.4,21.4,10.1,21.4z M18.2,22.9l-0.6-2.1h-2.4l-0.6,2.1h-1.9l2.5-8.3h2.5l2.6,8.3H18.2z
		 M23.2,19.6v3.2h-1.9v-8.1c0.6-0.1,1.5-0.2,2.5-0.2c1.2,0,2.1,0.2,2.7,0.6c0.5,0.4,0.8,1,0.8,1.7c0,1.1-0.7,1.8-1.5,2v0
		c0.6,0.2,0.9,0.8,1.1,1.5c0.3,0.9,0.5,2,0.7,2.3h-1.9c-0.1-0.2-0.3-0.9-0.6-1.9c-0.2-1-0.6-1.3-1.3-1.3H23.2z M40.3,32.8H24v-2
		h16.3V32.8z"/>
	<path fill="#0DB89A" d="M33.9,18.6c0-1.7-1-2.6-2.6-2.6c-0.4,0-0.7,0-0.8,0.1v5.4c0.2,0,0.4,0,0.6,0C32.8,21.5,33.9,20.6,33.9,18.6
		z"/>
</g>
</svg>
