<?xml version="1.0" encoding="utf-8"?>
<!-- Generator: Adobe Illustrator 18.0.0, SVG Export Plug-In . SVG Version: 6.00 Build 0)  -->
<!DOCTYPE svg PUBLIC "-//W3C//DTD SVG 1.1//EN" "http://www.w3.org/Graphics/SVG/1.1/DTD/svg11.dtd">
<svg version="1.1" id="Layer_1" xmlns="http://www.w3.org/2000/svg" xmlns:xlink="http://www.w3.org/1999/xlink" x="0px" y="0px"
	 viewBox="0 0 48 48" enable-background="new 0 0 48 48" xml:space="preserve">
<g>
	<path fill="#F04B36" d="M24,12.3c-8.4,0-15.3,6.9-15.3,15.3v19.9h30.6V27.6C39.3,19.1,32.4,12.3,24,12.3z M34.6,36.8
		c-0.7,3-2.5,5.2-5.5,7C29,43.9,28.8,44,28.6,44c-0.3,0-0.7-0.2-0.9-0.5c-0.3-0.5-0.1-1.1,0.4-1.4c2.5-1.5,3.9-3.3,4.5-5.7
		c0.5-2,0.4-4.1-0.3-6.1c-0.3,0.3-0.7,0.6-1.1,0.8c-0.3,0.1-0.7,0-0.9-0.2c-0.3-0.2-0.4-0.5-0.4-0.9c0.1-1.1,0-2.3-0.2-3.4
		c-0.2,0.2-0.5,0.4-0.5,0.6C29,27.3,29,27.5,29,27.7c-0.2,0.6-0.5,1.6-1.6,1.8c-0.3,0-0.6-0.1-0.8-0.3c-0.2-0.2-0.3-0.5-0.3-0.8
		c0-2.1-0.7-4.3-1.9-6c-0.7-0.9-1.5-1.7-2.5-2.3c0.2,0.6,0.3,1.2,0.4,1.8c0.2,1.8-0.4,3.6-1.4,4.7l-0.2,0.2
		c-0.1,0.1-0.3,0.3-0.3,0.3c0,0.1,0,0.3,0,0.4c0.1,1.6,0.2,3.2,0.3,4.8c0,0.5-0.2,0.9-0.7,1c-0.4,0.1-0.9,0-1.2-0.4
		c-0.6-0.9-1.2-1.8-2.1-2.5c-0.3-0.2-0.5-0.3-0.8-0.5c0.5,1.1,0.7,2.4,0.8,3.6l0.1,0.5c0.2,1.5,0.3,2.9,1,4.1c0.5,0.9,1.2,1.6,2,2.3
		c0.3,0.3,0.8,0.7,1.1,0.8c0.6,0.1,0.9,0.6,0.8,1.2c-0.1,0.6-0.6,0.9-1.2,0.8c-1-0.2-1.7-0.9-2.2-1.4c-0.8-0.8-1.7-1.7-2.3-2.8
		c-0.8-1.5-1-3.2-1.2-4.9l-0.1-0.5c-0.2-1.6-0.5-3.2-1.4-4.3c-0.2-0.3-0.3-0.6-0.2-1c0.1-0.3,0.4-0.6,0.7-0.7
		c1.3-0.4,2.9-0.1,4.2,0.9c0.2,0.1,0.3,0.2,0.5,0.4c0-0.5-0.1-1.1-0.1-1.6c0-0.3,0-0.7,0.1-1.2c0.2-0.5,0.5-0.8,0.7-1.1l0.1-0.1
		c0.7-0.8,1-1.9,0.9-3.2c-0.1-1.1-0.6-2.3-1.4-3.4c-0.2-0.3-0.3-0.8,0-1.2c0.2-0.4,0.7-0.5,1.1-0.4c2.4,0.6,4.6,2,6.1,4.1
		c0.9,1.3,1.6,2.7,2,4.3c0.2-0.1,0.3-0.3,0.4-0.4l0.2-0.2c0.3-0.3,0.4-0.5,0.4-0.5c-0.1-0.5,0.3-1,0.8-1.1c0.5-0.1,1,0.1,1.2,0.6
		c0.4,1,0.6,2,0.8,3.1c0.1-0.1,0.2-0.1,0.4-0.1c0.4-0.1,0.8,0.1,1,0.5C34.8,30,35.3,33.6,34.6,36.8z"/>
	<path fill="#4DA0D8" d="M0.5,0.5v47h6.1V27.6c0-9.6,7.8-17.4,17.4-17.4c9.6,0,17.4,7.8,17.4,17.4v19.9h6.1v-47H0.5z"/>
</g>
</svg>
