<?xml version="1.0" encoding="utf-8"?>
<!-- Generator: Adobe Illustrator 18.0.0, SVG Export Plug-In . SVG Version: 6.00 Build 0)  -->
<!DOCTYPE svg PUBLIC "-//W3C//DTD SVG 1.1//EN" "http://www.w3.org/Graphics/SVG/1.1/DTD/svg11.dtd">
<svg version="1.1" id="Layer_1" xmlns="http://www.w3.org/2000/svg" xmlns:xlink="http://www.w3.org/1999/xlink" x="0px" y="0px"
	 viewBox="0 0 48 48" enable-background="new 0 0 48 48" xml:space="preserve">
<g>
	<path fill="#CFD0D1" d="M24,0.5C11,0.5,0.5,11,0.5,24C0.5,37,11,47.5,24,47.5C37,47.5,47.5,37,47.5,24C47.5,11,37,0.5,24,0.5z
		 M7.2,25H3.1v-2h4.1V25z M23,3.1h2v4.1h-2V3.1z M25,44.9h-2v-4.1h2V44.9z M26.1,26.1l-13.4,9.1l9.1-13.4l13.4-9.1L26.1,26.1z
		 M40.8,25v-2h4.1v2H40.8z"/>
</g>
</svg>
