<?xml version="1.0" encoding="utf-8"?>
<!-- Generator: Adobe Illustrator 18.0.0, SVG Export Plug-In . SVG Version: 6.00 Build 0)  -->
<!DOCTYPE svg PUBLIC "-//W3C//DTD SVG 1.1//EN" "http://www.w3.org/Graphics/SVG/1.1/DTD/svg11.dtd">
<svg version="1.1" id="Layer_1" xmlns="http://www.w3.org/2000/svg" xmlns:xlink="http://www.w3.org/1999/xlink" x="0px" y="0px"
	 viewBox="0 0 48 48" enable-background="new 0 0 48 48" xml:space="preserve">
<g>
	<polygon fill="#06728D" points="16.5,10.3 8.2,14.7 0.5,37.7 6,40.4 11.3,31.6 11.3,47.5 23,47.5 23,18.6 18.4,12.8 17.1,11.1 	"/>
	<path fill="#E77528" d="M24.6,10.1V7.4C26.1,7,27.1,5.6,27.1,4c0-1.9-1.6-3.5-3.5-3.5S20.1,2.1,20.1,4h2c0-0.9,0.7-1.6,1.6-1.6
		c0.9,0,1.6,0.7,1.6,1.6c0,0.9-0.7,1.6-1.6,1.6h-1v4.6c-2.7,0.1-4.6,0.7-5.5,1l1.3,1.6c1.8-0.5,5.8-1.3,11.1,0.1l1.3-1.7
		C28.5,10.5,26.4,10.2,24.6,10.1z"/>
	<polygon fill="#06728D" points="39.8,14.7 31.5,10.3 30.8,11.2 29.5,12.8 25,18.6 25,47.5 36.7,47.5 36.7,31.6 42,40.4 47.5,37.7 	
		"/>
</g>
</svg>
