<?xml version="1.0" encoding="utf-8"?>
<!-- Generator: Adobe Illustrator 18.0.0, SVG Export Plug-In . SVG Version: 6.00 Build 0)  -->
<!DOCTYPE svg PUBLIC "-//W3C//DTD SVG 1.1//EN" "http://www.w3.org/Graphics/SVG/1.1/DTD/svg11.dtd">
<svg version="1.1" id="Layer_1" xmlns="http://www.w3.org/2000/svg" xmlns:xlink="http://www.w3.org/1999/xlink" x="0px" y="0px"
	 viewBox="0 0 48 48" enable-background="new 0 0 48 48" xml:space="preserve">
<g>
	<path fill="#F7A93B" d="M39.4,44.1c-1.3-0.2-2.5-0.7-3.5-1.5c-0.3-0.3-0.7-0.5-1-0.8c-0.5-0.4-1-0.9-1.6-1.3
		c-1.8-1.2-4.1-1.4-5.9-1.6c-2.1-0.2-4.4-0.4-6.5-0.5c-0.4,0-0.8,0-1.2,0c-1.1,0-1.9,0.1-2.8,0.3c-1.1,0.3-2.1,0.7-3.1,1.2l-5.9,2.7
		c-1.1,0.5-2.5,1.2-3.4,2.4c-0.3,0.4-0.2,1.1,0.2,1.4C6,47.3,7.5,47.7,9,47.7c0,0,0,0,0,0c1.4,0,2.8-0.4,3.9-1.2l0.2-0.2
		c0.2-0.1,0.4-0.3,0.5-0.3c0.5-0.2,1.2,0.1,1.9,0.4l0.1,0c1.6,0.7,2.8,0.6,3.7-0.1c0.1-0.1,0.2-0.2,0.3-0.3c0.1-0.1,0.1-0.1,0.2-0.1
		c0,0,0.1-0.1,0.3-0.1c0.2,0,0.5,0.1,0.8,0.2c0.2,0.1,0.4,0.2,0.5,0.3c0.5,0.3,1.1,0.6,1.8,0.7c1.1,0.2,2.1-0.2,3-0.6
		c0.6-0.2,1.2-0.5,1.7-0.5c0.5,0,0.9,0.2,1.5,0.3l0.3,0.1c1.8,0.6,3.3,0.6,4.6,0.2c0.2-0.1,0.4-0.1,0.5-0.2c0.2-0.1,0.4-0.2,0.6-0.2
		c0.4-0.1,0.9-0.1,1.5-0.1c0.3,0,0.5,0,0.8,0c0.4,0,1.1,0,1.8-0.3c0.4-0.2,0.7-0.6,0.6-1.1C40.2,44.5,39.9,44.2,39.4,44.1z"/>
	<path fill="#E77528" d="M35.1,12.3c0,0,0,0.1,0.1,0.3c0.1,0.2,0.2,0.5,0.3,0.9c0.3,0.8,0.6,1.9,0.9,3.3c0.3,1.4,0.6,3,0.8,4.7
		c0.1,0.9,0.1,1.8,0.2,2.7c0,0.9,0,1.9,0,2.8c-0.1,1-0.1,1.9-0.3,2.8c-0.1,0.5-0.1,0.9-0.2,1.4c-0.1,0.5-0.2,0.9-0.3,1.3
		c-0.1,0.4-0.2,0.9-0.3,1.3c-0.1,0.4-0.3,0.8-0.4,1.2c-0.3,0.8-0.5,1.6-0.9,2.2c-0.3,0.7-0.6,1.3-0.9,1.8c-0.3,0.5-0.6,1-0.8,1.3
		c-0.5,0.7-0.7,1.2-0.7,1.2c-0.7,1.1-2.2,1.4-3.3,0.7c-1.1-0.7-1.4-2.2-0.7-3.3c0-0.1,0.1-0.1,0.1-0.2l0.2-0.2c0,0,0.2-0.3,0.7-0.9
		c0.2-0.3,0.5-0.6,0.8-1c0.3-0.4,0.6-0.9,0.9-1.4c0.3-0.5,0.6-1.1,0.9-1.8c0.2-0.3,0.3-0.7,0.5-1c0.1-0.4,0.3-0.7,0.4-1.1
		c0.1-0.4,0.3-0.7,0.4-1.1c0.1-0.4,0.2-0.8,0.3-1.2c0.2-0.8,0.3-1.7,0.5-2.5c0.2-0.8,0.2-1.7,0.3-2.6c0-0.9,0.1-1.7,0.1-2.5
		c0-1.6-0.1-3.2-0.3-4.5c-0.2-1.3-0.4-2.4-0.5-3.1c-0.1-0.4-0.2-0.7-0.2-0.8c-0.1-0.2-0.1-0.3-0.1-0.3l0,0c-0.1-0.5,0.2-1.1,0.7-1.2
		C34.4,11.5,35,11.8,35.1,12.3z"/>
	<path fill="#E77528" d="M14.9,22.3c0,0,0.2,0.2,0.5,0.7c0.3,0.4,0.7,1,1.2,1.8c0.5,0.8,0.9,1.7,1.3,2.8c0.4,1.1,0.8,2.2,1,3.4
		c0.2,0.6,0.2,1.2,0.3,1.8c0.1,0.6,0.1,1.2,0.1,1.8c0,0.6,0,1.1,0,1.7c0,0.5-0.1,1-0.1,1.5c-0.1,0.5-0.1,0.9-0.2,1.3
		c-0.1,0.4-0.1,0.7-0.2,1c-0.1,0.5-0.2,0.8-0.2,0.8c-0.3,1.3-1.5,2.1-2.8,1.8c-1.3-0.3-2.1-1.5-1.8-2.8c0-0.1,0.1-0.2,0.1-0.3
		l0.1-0.2c0,0,0.1-0.2,0.2-0.6c0.1-0.2,0.2-0.5,0.3-0.7c0.1-0.3,0.2-0.6,0.3-1c0.1-0.4,0.2-0.8,0.3-1.2c0.1-0.4,0.2-0.9,0.2-1.4
		c0-0.5,0.1-1,0.1-1.5c0-0.5,0-1,0-1.5c0-1-0.2-2.1-0.4-3c-0.2-1-0.5-1.9-0.8-2.6c-0.3-0.7-0.6-1.3-0.8-1.8
		c-0.2-0.4-0.3-0.6-0.3-0.6c-0.3-0.4-0.2-1.1,0.2-1.4C13.9,21.8,14.6,21.9,14.9,22.3z"/>
	<path fill="#0DB89A" d="M19.1,16.2c-0.4,0-0.9,0-1.3,0.1c0-0.1,0.1-0.1,0.1-0.2c0.1-0.1,0.1-0.3,0.2-0.4c0.3-0.8,0.9-1.4,1.7-1.7
		c0.2-0.1,0.3-0.4,0.3-0.6C20,13.1,19.8,13,19.5,13c-2,0.3-4,0.9-5.8,1.9c-0.1-1.3-0.2-2.6-0.5-3.9c0-0.2-0.2-0.3-0.3-0.4
		c-0.2-0.1-0.3,0-0.5,0.1C10.7,12,9.6,13.9,9.2,16c-0.3-0.2-0.6-0.3-0.9-0.4c-0.6-0.2-1.3-0.1-2-0.1c-0.9,0.1-1.7,0.2-2.6,0.3
		c-0.2,0-0.4,0.2-0.4,0.4c0,0.2,0.1,0.4,0.3,0.5c1.7,0.9,3.2,2.1,4.4,3.5c-2.1,1.3-3.4,3.8-3.2,6.3c0,0.2,0.2,0.4,0.4,0.4
		c0.2,0.1,0.4,0,0.5-0.2c0.7-0.9,1.5-1.7,2.6-2.3c-0.2,2.7,0.8,5.5,2.7,7.5c0.1,0.1,0.2,0.2,0.4,0.2c0.1,0,0.1,0,0.2,0
		c0.2-0.1,0.3-0.2,0.3-0.4l0.3-3.4c0.2-1.6,0.3-3.5,1.4-4.9c0.1-0.1,0.1-0.1,0.1-0.1c0,0,0.2,0,0.2,0.1c2.5,0.8,5.5,2.1,7.5,4.5
		c0.1,0.1,0.2,0.2,0.4,0.2c0.3,0,0.5-0.2,0.5-0.5c0,0,0-0.1,0-0.1c0-1.5-0.1-3.3-0.8-4.9c-0.4-1-1-1.8-1.7-2.4c1.5,0,3-0.3,4.5-0.8
		c0.2-0.1,0.3-0.2,0.3-0.3c0-0.2,0-0.3-0.1-0.5C23.2,17.1,21.2,16.2,19.1,16.2z"/>
	<path fill="#0DB89A" d="M44.6,8.2c-1.3-1.5-3.3-2.4-5.3-2.4c-0.4,0-0.9,0-1.3,0.1C38,5.9,38,5.8,38,5.8c0.1-0.1,0.1-0.3,0.2-0.4
		c0.3-0.7,0.9-1.4,1.7-1.7c0.2-0.1,0.3-0.4,0.3-0.6c-0.1-0.2-0.3-0.4-0.5-0.4c-2,0.3-4,0.9-5.8,1.9c-0.1-1.3-0.2-2.6-0.5-3.9
		c0-0.2-0.2-0.3-0.3-0.4c-0.2-0.1-0.3,0-0.5,0.1c-1.7,1.3-2.8,3.2-3.2,5.3c-0.3-0.2-0.6-0.3-0.9-0.4c-0.6-0.2-1.3-0.1-2-0.1
		c-0.8,0.1-1.7,0.2-2.6,0.3c-0.2,0-0.4,0.2-0.4,0.4c0,0.2,0.1,0.4,0.3,0.5c1.7,0.9,3.2,2.1,4.4,3.5c-2.1,1.3-3.5,3.8-3.2,6.3
		c0,0.2,0.2,0.4,0.4,0.4c0.2,0.1,0.4,0,0.5-0.2c0.7-0.9,1.5-1.7,2.6-2.3c-0.2,2.7,0.8,5.5,2.7,7.5c0.1,0.1,0.2,0.2,0.4,0.2
		c0.1,0,0.1,0,0.2,0c0.2-0.1,0.3-0.2,0.3-0.4l0.3-3.4c0.2-1.6,0.3-3.5,1.4-4.9c0.1-0.1,0.1-0.1,0.1-0.1c0,0,0.2,0,0.2,0.1
		c2.5,0.8,5.5,2.1,7.5,4.5c0.1,0.1,0.2,0.2,0.4,0.2c0.3,0,0.5-0.2,0.5-0.5c0,0,0-0.1,0-0.1c0-1.5-0.1-3.3-0.8-4.9
		c-0.4-1-1-1.8-1.7-2.4c1.5,0,3-0.3,4.5-0.8c0.2-0.1,0.3-0.2,0.3-0.3C44.7,8.5,44.7,8.4,44.6,8.2z"/>
</g>
</svg>
