<?xml version="1.0" encoding="utf-8"?>
<!-- Generator: Adobe Illustrator 18.0.0, SVG Export Plug-In . SVG Version: 6.00 Build 0)  -->
<!DOCTYPE svg PUBLIC "-//W3C//DTD SVG 1.1//EN" "http://www.w3.org/Graphics/SVG/1.1/DTD/svg11.dtd">
<svg version="1.1" id="Layer_1" xmlns="http://www.w3.org/2000/svg" xmlns:xlink="http://www.w3.org/1999/xlink" x="0px" y="0px"
	 viewBox="0 0 48 48" enable-background="new 0 0 48 48" xml:space="preserve">
<g>
	<g>
		<rect x="22.5" y="0.5" fill="#CFD0D1" width="2.9" height="47"/>
	</g>
	<g>
		<polygon fill="#0DB89A" points="24,12.2 15.8,4 17.9,1.9 24,8.1 30.1,1.9 32.2,4 		"/>
	</g>
	<g>
		<polygon fill="#0DB89A" points="30.1,46.1 24,39.9 17.9,46.1 15.8,44 24,35.8 32.2,44 		"/>
	</g>
	<g>
		<rect x="0.5" y="22.5" fill="#CFD0D1" width="47" height="2.9"/>
	</g>
	<g>
		<polygon fill="#0DB89A" points="44,32.2 35.8,24 44,15.8 46.1,17.9 39.9,24 46.1,30.1 		"/>
	</g>
	<g>
		<polygon fill="#0DB89A" points="4,32.2 1.9,30.1 8.1,24 1.9,17.9 4,15.8 12.2,24 		"/>
	</g>
	<g>
		<rect x="22.5" y="0.5" transform="matrix(0.7071 0.7071 -0.7071 0.7071 24 -9.9411)" fill="#F04B36" width="2.9" height="47"/>
	</g>
	<g>
		<polygon fill="#E77528" points="44,15.7 32.3,15.7 32.3,4 35.3,4 35.3,12.7 44,12.7 		"/>
	</g>
	<g>
		<polygon fill="#E77528" points="15.7,44 12.7,44 12.7,35.3 4,35.3 4,32.3 15.7,32.3 		"/>
	</g>
	<g>
		<rect x="0.5" y="22.5" transform="matrix(0.7071 0.7071 -0.7071 0.7071 24 -9.9411)" fill="#F04B36" width="47" height="2.9"/>
	</g>
	<g>
		<polygon fill="#E77528" points="35.3,44 32.3,44 32.3,32.3 44,32.3 44,35.3 35.3,35.3 		"/>
	</g>
	<g>
		<polygon fill="#E77528" points="15.7,15.7 4,15.7 4,12.7 12.7,12.7 12.7,4 15.7,4 		"/>
	</g>
</g>
</svg>
