<?xml version="1.0" encoding="utf-8"?>
<!-- Generator: Adobe Illustrator 18.0.0, SVG Export Plug-In . SVG Version: 6.00 Build 0)  -->
<!DOCTYPE svg PUBLIC "-//W3C//DTD SVG 1.1//EN" "http://www.w3.org/Graphics/SVG/1.1/DTD/svg11.dtd">
<svg version="1.1" id="Layer_1" xmlns="http://www.w3.org/2000/svg" xmlns:xlink="http://www.w3.org/1999/xlink" x="0px" y="0px"
	 viewBox="0 0 48 48" enable-background="new 0 0 48 48" xml:space="preserve">
<g>
	<path fill="#E77528" d="M14.3,18.1c-1.4,1-2.6,3.8-2.8,7.6h2.8V18.1z"/>
	<path fill="#E77528" d="M19.2,27.7h-2.8v7.6C17.7,34.3,19,31.5,19.2,27.7z"/>
	<path fill="#E77528" d="M14.3,35.2v-7.6h-2.8C11.7,31.5,13,34.3,14.3,35.2z"/>
	<path fill="#E77528" d="M19.5,34.5c2.5-1.4,4.3-3.9,4.6-6.9h-2.9C21.1,30.4,20.5,32.8,19.5,34.5z"/>
	<path fill="#E77528" d="M16.4,18.1v7.6h2.8C19,21.8,17.7,19,16.4,18.1z"/>
	<path fill="#E77528" d="M24.1,25.6c-0.3-3-2.1-5.5-4.6-6.9c1,1.8,1.6,4.2,1.7,6.9H24.1z"/>
	<path fill="#E77528" d="M11.2,34.5c-1-1.8-1.6-4.2-1.7-6.9H6.6C6.9,30.6,8.7,33.2,11.2,34.5z"/>
	<path fill="#06728D" d="M1.1,10.1v35.1c0,1.3,1,2.3,2.2,2.3h25.3c1.2,0,2.2-1,2.2-2.3V10.1c0-1.3-1-2.3-2.2-2.3H3.3
		C2.1,7.9,1.1,8.9,1.1,10.1z M15.4,15.6c6,0,10.9,4.9,10.9,11c0,6.1-4.9,11-10.9,11c-6,0-10.9-4.9-10.9-11
		C4.5,20.6,9.4,15.6,15.4,15.6z"/>
	<polygon fill="#F04B36" points="32.9,11.5 32.9,17 41.4,17 41.4,19.1 32.9,19.1 32.9,21.8 41.4,21.8 41.4,23.9 32.9,23.9 
		32.9,36.8 41.4,36.8 41.4,38.9 32.9,38.9 32.9,44.4 47.5,44.4 47.5,11.5 	"/>
	<path fill="#0DB89A" d="M3.3,5.8h24.3V3.5c0-1.1-0.4-2-1.1-2.5c-0.5-0.4-1.2-0.6-1.9-0.4L2.4,5.5C1.7,5.7,1,6.2,0.5,6.9
		C1.3,6.2,2.2,5.8,3.3,5.8z"/>
	<path fill="#E77528" d="M11.2,18.7c-2.5,1.4-4.3,3.9-4.6,6.9h2.9C9.6,22.9,10.3,20.5,11.2,18.7z"/>
</g>
</svg>
