<?xml version="1.0" encoding="utf-8"?>
<!-- Generator: Adobe Illustrator 18.0.0, SVG Export Plug-In . SVG Version: 6.00 Build 0)  -->
<!DOCTYPE svg PUBLIC "-//W3C//DTD SVG 1.1//EN" "http://www.w3.org/Graphics/SVG/1.1/DTD/svg11.dtd">
<svg version="1.1" id="Layer_1" xmlns="http://www.w3.org/2000/svg" xmlns:xlink="http://www.w3.org/1999/xlink" x="0px" y="0px"
	 viewBox="0 0 48 48" enable-background="new 0 0 48 48" xml:space="preserve">
<g>
	<path fill="#0DB89A" d="M14,17.8h20v-11H14V17.8z M26.8,14.8l0.9-0.9c1.6-1.4,2.4-2.2,2.4-3.1c0-0.6-0.4-1.1-1.2-1.1
		c-0.6,0-1.2,0.3-1.6,0.6l-0.5-1.2c0.6-0.4,1.4-0.8,2.4-0.8c1.6,0,2.6,1,2.6,2.3c0,1.2-0.9,2.2-1.9,3.1l-0.7,0.6v0H32v1.4h-5.2V14.8
		z M23,8.5h1.4v7.3h-1.7V10h0l-1.4,0.7l-0.3-1.3L23,8.5z"/>
	<path fill="#E77528" d="M35,0.5H13c-2.6,0-4.7,2.1-4.7,4.7v37.6c0,2.6,2.1,4.7,4.7,4.7h22c2.6,0,4.7-2.1,4.7-4.7V5.2
		C39.7,2.6,37.6,0.5,35,0.5z M18.6,41.3h-5.3v-2h5.3V41.3z M18.6,33.3h-5.3v-2h5.3V33.3z M18.6,25.4h-5.3v-2h5.3V25.4z M26.6,41.3
		h-5.3v-2h5.3V41.3z M26.6,33.3h-5.3v-2h5.3V33.3z M26.6,25.4h-5.3v-2h5.3V25.4z M34.7,41.3h-5.3v-2h5.3V41.3z M34.7,33.3h-5.3v-2
		h5.3V33.3z M34.7,25.4h-5.3v-2h5.3V25.4z M36,18.8c0,0.6-0.5,1-1,1H13c-0.6,0-1-0.5-1-1v-13c0-0.6,0.5-1,1-1H35c0.6,0,1,0.5,1,1
		V18.8z"/>
</g>
</svg>
