<?xml version="1.0" encoding="utf-8"?>
<!-- Generator: Adobe Illustrator 18.0.0, SVG Export Plug-In . SVG Version: 6.00 Build 0)  -->
<!DOCTYPE svg PUBLIC "-//W3C//DTD SVG 1.1//EN" "http://www.w3.org/Graphics/SVG/1.1/DTD/svg11.dtd">
<svg version="1.1" id="Layer_1" xmlns="http://www.w3.org/2000/svg" xmlns:xlink="http://www.w3.org/1999/xlink" x="0px" y="0px"
	 viewBox="0 0 48 48" enable-background="new 0 0 48 48" xml:space="preserve">
<g>
	<path fill="#4DA0D8" d="M38.6,22c0.8,0,2.1-1.8,2.1-4.6c0-2.8-1.2-4.6-2.1-4.6c-0.8,0-2.1,1.8-2.1,4.6C36.6,20.3,37.8,22,38.6,22z"
		/>
	<path fill="#CFD0D1" d="M8.1,47.5h25.8c-3-6.6-13.3-31.9-0.7-47H7.9C5.6,3.2-7.6,20.5,8.1,47.5z M19.8,10.7h5v2.1h-5V10.7z
		 M12.3,10.7h5v2.1h-5V10.7z M9.9,10.7v2.1h-5v-2.1H9.9z"/>
	<path fill="#06728D" d="M38.6,34.4c4.8,0,8.9-7.8,8.9-16.9c0-9.2-4.1-16.9-8.9-16.9s-8.9,7.8-8.9,16.9
		C29.8,26.6,33.8,34.4,38.6,34.4z M38.6,10.7c2.4,0,4.2,3,4.2,6.7c0,3.8-1.8,6.7-4.2,6.7c-2.4,0-4.2-3-4.2-6.7
		C34.4,13.6,36.2,10.7,38.6,10.7z"/>
	<path fill="#F04B36" d="M31.4,34.4h2.1c-1.2-1.1-2.2-2.5-3.1-4.2C30.7,31.7,31.1,33,31.4,34.4z"/>
</g>
</svg>
