<?xml version="1.0" encoding="utf-8"?>
<!-- Generator: Adobe Illustrator 18.0.0, SVG Export Plug-In . SVG Version: 6.00 Build 0)  -->
<!DOCTYPE svg PUBLIC "-//W3C//DTD SVG 1.1//EN" "http://www.w3.org/Graphics/SVG/1.1/DTD/svg11.dtd">
<svg version="1.1" id="Layer_1" xmlns="http://www.w3.org/2000/svg" xmlns:xlink="http://www.w3.org/1999/xlink" x="0px" y="0px"
	 viewBox="0 0 48 48" enable-background="new 0 0 48 48" xml:space="preserve">
<g>
	<path fill="#CFD0D1" d="M28.8,29.7h17c0-1.9,0-3.7,0.2-4.7c0.5-2.6,1.5-5.2,1.5-8.2c0-9-4.9-16.3-10.8-16.3
		c-6,0-10.8,7.3-10.8,16.3c0,4.1,1.8,7.5,2.7,10.8C28.7,28.1,28.7,28.8,28.8,29.7z"/>
	<path fill="#CFD0D1" d="M28.7,32.8c-0.1,2.2-0.2,4.1-0.2,4.1c0,5.8,3.9,10.6,8.8,10.6S46,42.7,46,36.9c0,0-0.1-1.8-0.2-4.1H28.7z"
		/>
	<path fill="#CFD0D1" d="M3.5,29.7h17c0-1.9,0-3.7,0.2-4.7c0.5-2.6,1.5-5.2,1.5-8.2c0-9-4.9-16.3-10.8-16.3c-6,0-10.8,7.3-10.8,16.3
		c0,4.1,1.8,7.5,2.7,10.8C3.3,28.1,3.4,28.8,3.5,29.7z"/>
	<path fill="#CFD0D1" d="M3.4,32.8c-0.1,2.2-0.2,4.1-0.2,4.1c0,5.8,3.9,10.6,8.8,10.6s8.8-4.8,8.8-10.6c0,0-0.1-1.8-0.2-4.1H3.4z"/>
</g>
</svg>
