<?xml version="1.0" encoding="utf-8"?>
<!-- Generator: Adobe Illustrator 18.0.0, SVG Export Plug-In . SVG Version: 6.00 Build 0)  -->
<!DOCTYPE svg PUBLIC "-//W3C//DTD SVG 1.1//EN" "http://www.w3.org/Graphics/SVG/1.1/DTD/svg11.dtd">
<svg version="1.1" id="Layer_1" xmlns="http://www.w3.org/2000/svg" xmlns:xlink="http://www.w3.org/1999/xlink" x="0px" y="0px"
	 viewBox="0 0 48 48" enable-background="new 0 0 48 48" xml:space="preserve">
<g>
	<path fill="#4DA0D8" d="M41.6,34.8c0.2-0.1,0.3-0.1,0.5-0.2c0.2-0.1,0.3-0.1,0.5-0.2c0.1-0.1,0.3-0.1,0.4-0.2
		c0.2-0.1,0.3-0.2,0.5-0.2c0.1-0.1,0.3-0.2,0.4-0.2c0.1-0.1,0.3-0.2,0.4-0.3c0.2-0.1,0.3-0.3,0.5-0.4c0.1-0.1,0.1-0.1,0.2-0.2
		c0.2-0.2,0.4-0.4,0.6-0.7c0.2-0.2,0.3-0.4,0.5-0.6c3.6-5.2,0.2-14.5-7.9-21.9l-5.5,12.7l-1.8-0.9L39.3,2L22.2,15.3l-1.2-1.7l11-8.5
		C22.5-0.6,12.6-1.1,9,4.2C8.8,4.5,8.6,4.8,8.5,5.1C8.4,5.3,8.3,5.5,8.2,5.8C8.1,5.9,8,6.1,8,6.3C7.9,6.6,7.9,6.8,7.8,7
		c0,0.2-0.1,0.4-0.1,0.6c0,0.2-0.1,0.5-0.1,0.7c0,0.2,0,0.5,0,0.7c0,0.2,0,0.5,0,0.7c0,0.3,0,0.6,0.1,0.9c0,0.2,0,0.4,0.1,0.6
		c0.1,0.3,0.1,0.6,0.2,1c0,0.2,0.1,0.4,0.1,0.6c0.1,0.4,0.2,0.7,0.3,1.1c0.1,0.2,0.1,0.3,0.2,0.5c0.1,0.4,0.3,0.8,0.5,1.1
		c0.1,0.2,0.1,0.3,0.2,0.5c0.2,0.4,0.4,0.8,0.6,1.2c0.1,0.2,0.2,0.3,0.2,0.5c0.2,0.4,0.5,0.8,0.7,1.2c0.1,0.2,0.2,0.3,0.3,0.5
		c0.3,0.4,0.5,0.8,0.8,1.2c0.1,0.2,0.2,0.3,0.3,0.5c0.3,0.4,0.6,0.8,0.9,1.2c0.1,0.2,0.3,0.3,0.4,0.5c0.3,0.4,0.7,0.7,1,1.1
		c0.1,0.2,0.3,0.3,0.4,0.5c0.4,0.4,0.7,0.7,1.1,1.1c0.2,0.2,0.3,0.3,0.5,0.5c0.4,0.4,0.9,0.8,1.3,1.2c0.1,0.1,0.2,0.2,0.4,0.3
		c0.6,0.5,1.2,1,1.8,1.4c0,0,0,0,0.1,0c0.6,0.4,1.2,0.9,1.8,1.3c0.1,0.1,0.3,0.2,0.4,0.3c0.6,0.4,1.2,0.7,1.8,1.1
		c0.2,0.1,0.4,0.2,0.6,0.3c0.5,0.3,1,0.5,1.5,0.8c0.3,0.1,0.6,0.3,0.8,0.4c0.4,0.2,0.8,0.4,1.2,0.5c0.3,0.1,0.5,0.2,0.8,0.3
		c0.5,0.2,1.1,0.4,1.6,0.5c0.2,0.1,0.5,0.1,0.7,0.2c0.6,0.2,1.1,0.3,1.7,0.4c0.1,0,0.3,0.1,0.4,0.1c0.6,0.1,1.2,0.2,1.8,0.3
		c0,0,0.1,0,0.1,0c0.6,0.1,1.3,0.1,1.9,0.1c0.1,0,0.2,0,0.3,0c0.3,0,0.6,0,1,0c0.1,0,0.2,0,0.3,0c0.3,0,0.6-0.1,0.9-0.1
		c0.1,0,0.2,0,0.3,0c0.4-0.1,0.7-0.1,1-0.2C41.3,34.9,41.4,34.8,41.6,34.8z"/>
	<path fill="#06728D" d="M39.7,37.3c-0.2,0-0.4,0.1-0.6,0.1c-0.5,0-1,0.1-1.5,0.1c-0.1,0-0.1,0-0.2,0c-5.8,0-12.5-2.5-18.5-7
		c-0.4-0.3-0.8-0.6-1.3-1c-0.1-0.1-0.2-0.2-0.4-0.3c-0.3-0.3-0.6-0.5-0.9-0.8c-0.1-0.1-0.2-0.2-0.3-0.3c-0.4-0.3-0.7-0.7-1.1-1
		c-0.1-0.1-0.2-0.1-0.2-0.2c-0.3-0.3-0.6-0.5-0.8-0.8c-0.1-0.1-0.3-0.3-0.4-0.4c-0.2-0.2-0.4-0.5-0.7-0.7c-0.1-0.1-0.2-0.3-0.4-0.4
		c-0.3-0.3-0.6-0.7-0.8-1c-0.1-0.2-0.3-0.4-0.4-0.5c-0.1-0.2-0.3-0.3-0.4-0.5c-0.2-0.2-0.3-0.4-0.5-0.6c-0.1-0.1-0.2-0.3-0.3-0.4
		c-0.6-0.8-1.1-1.6-1.6-2.4c0,0-0.1-0.1-0.1-0.1C7,16.2,6,13.5,5.7,10.9c-1.9,7.9,2.1,17.6,10.4,23.8c4.6,3.4,10,5.3,15.1,5.3
		c3.7,0,7.1-1,9.9-2.8c-0.1,0-0.2,0-0.2,0c-0.1,0-0.2,0.1-0.4,0.1C40.2,37.2,40,37.3,39.7,37.3z"/>
	<polygon fill="#E77528" points="5.4,29.2 0.5,47.5 20.9,47.5 	"/>
</g>
</svg>
