<?xml version="1.0" encoding="utf-8"?>
<!-- Generator: Adobe Illustrator 18.0.0, SVG Export Plug-In . SVG Version: 6.00 Build 0)  -->
<!DOCTYPE svg PUBLIC "-//W3C//DTD SVG 1.1//EN" "http://www.w3.org/Graphics/SVG/1.1/DTD/svg11.dtd">
<svg version="1.1" id="Layer_1" xmlns="http://www.w3.org/2000/svg" xmlns:xlink="http://www.w3.org/1999/xlink" x="0px" y="0px"
	 viewBox="0 0 48 48" enable-background="new 0 0 48 48" xml:space="preserve">
<g>
	<path fill="#0DB89A" d="M46.9,17.5l-2.5-3c-2.3,0.9-5.1,0.2-7-2c-1.9-2.2-2.2-5.1-0.9-7.2l-2.5-3c-0.8-0.9-2-1.1-2.8-0.4l-30,25.7
		c-0.8,0.7-0.8,2,0,2.8l2.5,3c2.3-0.9,5.1-0.2,7,2c1.9,2.2,2.2,5.1,0.9,7.2l2.5,3c0.8,0.9,2,1.1,2.8,0.4l30-25.7
		C47.7,19.7,47.7,18.4,46.9,17.5z M26.4,31.3l-5.2-2.8l-0.6,3l1.7,1.4L22,34.5l-3.4-1.9l-3.9,0.5l0.3-1.5l2.1-0.7l0.6-3l-5.8,0.6
		l0.3-1.7l5.9-2.7c0.9-3.2,3.2-5.2,3.2-5.2s1.4,2.7,1,6.1l4.4,4.7L26.4,31.3z M26,16.4L24,14.1l1.5-1.3l1.9,2.2L26,16.4z M29.8,20.9
		l-1.9-2.2l1.5-1.3l1.9,2.2L29.8,20.9z M33.7,25.3l-1.9-2.2l1.5-1.3l1.9,2.2L33.7,25.3z"/>
</g>
</svg>
