<?xml version="1.0" encoding="utf-8"?>
<!-- Generator: Adobe Illustrator 18.0.0, SVG Export Plug-In . SVG Version: 6.00 Build 0)  -->
<!DOCTYPE svg PUBLIC "-//W3C//DTD SVG 1.1//EN" "http://www.w3.org/Graphics/SVG/1.1/DTD/svg11.dtd">
<svg version="1.1" id="Layer_1" xmlns="http://www.w3.org/2000/svg" xmlns:xlink="http://www.w3.org/1999/xlink" x="0px" y="0px"
	 viewBox="0 0 48 48" enable-background="new 0 0 48 48" xml:space="preserve">
<g>
	<polygon fill="#F7A93B" points="0.9,19.6 5.1,22 5.1,16.2 	"/>
	<polygon fill="#F7A93B" points="28.6,4.5 23.7,0.5 18.9,4.5 	"/>
	<polygon fill="#E77528" points="0.5,46.7 21.9,34.3 0.5,21.9 	"/>
	<polygon fill="#E77528" points="47.5,46.7 47.5,21.9 26.1,34.3 	"/>
	<polygon fill="#F7A93B" points="42.9,22 47.1,19.6 42.9,16.2 	"/>
	<path fill="#06728D" d="M7.2,23.2H7.1L24,33.1l16.9-9.8h-0.1V6.7H7.2V23.2z M12.4,12h23.2v2.2H12.4V12z M12.4,18.9h23.2v2.2H12.4
		V18.9z"/>
	<polygon fill="#CFD0D1" points="3.4,47.5 44.6,47.5 24,35.5 	"/>
</g>
</svg>
