<?xml version="1.0" encoding="utf-8"?>
<!-- Generator: Adobe Illustrator 18.0.0, SVG Export Plug-In . SVG Version: 6.00 Build 0)  -->
<!DOCTYPE svg PUBLIC "-//W3C//DTD SVG 1.1//EN" "http://www.w3.org/Graphics/SVG/1.1/DTD/svg11.dtd">
<svg version="1.1" id="Layer_1" xmlns="http://www.w3.org/2000/svg" xmlns:xlink="http://www.w3.org/1999/xlink" x="0px" y="0px"
	 viewBox="0 0 48 48" enable-background="new 0 0 48 48" xml:space="preserve">
<g>
	<rect x="0.5" y="43.1" fill="#06728D" width="2" height="4.4"/>
	<rect x="45.5" y="43.1" fill="#06728D" width="2" height="4.4"/>
	<path fill="#CFD0D1" d="M39.6,0.5H8.4v12.9h31.2V0.5z M35.2,13h-2V6.8H14.8V13h-2V4.8h22.4V13z"/>
	<polygon fill="#0DB89A" points="39.9,15.4 8.1,15.4 1.5,27.6 46.5,27.6 	"/>
	<path fill="#F7A93B" d="M0.5,29.6v12.1h47V29.6H0.5z M21.7,37.6h-2v-4.2H6.1v4.2h-2v-6.2h17.5V37.6z M42.5,37.6h-2v-4.2H27v4.2h-2
		v-6.2h17.5V37.6z"/>
</g>
</svg>
