<?xml version="1.0" encoding="utf-8"?>
<!-- Generator: Adobe Illustrator 18.0.0, SVG Export Plug-In . SVG Version: 6.00 Build 0)  -->
<!DOCTYPE svg PUBLIC "-//W3C//DTD SVG 1.1//EN" "http://www.w3.org/Graphics/SVG/1.1/DTD/svg11.dtd">
<svg version="1.1" id="Layer_1" xmlns="http://www.w3.org/2000/svg" xmlns:xlink="http://www.w3.org/1999/xlink" x="0px" y="0px"
	 viewBox="0 0 48 48" enable-background="new 0 0 48 48" xml:space="preserve">
<g>
	<path fill="#0DB89A" d="M43.8,0.5H4.2c-2,0-3.7,1.7-3.7,3.7v6.6h47V4.2C47.5,2.2,45.8,0.5,43.8,0.5z M11.4,6.6H6.7v-2h4.7V6.6z
		 M25,6.6h-4.7v-2H25V6.6z M33.1,6.6h-4.7v-2h4.7V6.6z M41.3,6.6h-4.7v-2h4.7V6.6z"/>
	<path fill="#06728D" d="M0.5,12.8v31.1c0,2,1.7,3.7,3.7,3.7h39.7c2,0,3.7-1.7,3.7-3.7V12.8H0.5z M24,42.8c-7,0-12.7-5.7-12.7-12.7
		c0-7,5.7-12.7,12.7-12.7c7,0,12.7,5.7,12.7,12.7C36.7,37.1,31,42.8,24,42.8z"/>
	<path fill="#F7A93B" d="M24,19.5c-5.9,0-10.6,4.8-10.6,10.6S18.1,40.8,24,40.8S34.6,36,34.6,30.1S29.9,19.5,24,19.5z M29.7,30.1
		c0-3.2-2.6-5.7-5.7-5.7v-2c4.3,0,7.8,3.5,7.8,7.8H29.7z"/>
</g>
</svg>
