<?xml version="1.0" encoding="utf-8"?>
<!-- Generator: Adobe Illustrator 18.0.0, SVG Export Plug-In . SVG Version: 6.00 Build 0)  -->
<!DOCTYPE svg PUBLIC "-//W3C//DTD SVG 1.1//EN" "http://www.w3.org/Graphics/SVG/1.1/DTD/svg11.dtd">
<svg version="1.1" id="Layer_1" xmlns="http://www.w3.org/2000/svg" xmlns:xlink="http://www.w3.org/1999/xlink" x="0px" y="0px"
	 viewBox="0 0 48 48" enable-background="new 0 0 48 48" xml:space="preserve">
<g>
	<path fill="#06728D" d="M15.9,36.4c-2.5-10.1-10.5-9.6-10.5-9.6l-0.2-2c0.1,0,9.7-0.7,12.6,11.1L15.9,36.4z"/>
	<path fill="#F04B36" d="M32.5,38.1H7.1v-3.9h21.5c0.6-6.7,5.6-9.7,8.4-10.3l0.9,3.8l-0.4-1.9l0.4,1.9c-0.6,0.1-5.7,1.6-5.3,8.3
		L32.5,38.1z"/>
	<path fill="#06728D" d="M40,36.5l-9.2-26.4c0-0.1-0.6-2.3-5.3-3l0.3-1.9c5.7,0.8,6.8,3.8,6.9,4.4l9.2,26.3L40,36.5z"/>
	<path fill="#06728D" d="M28.2,15.2l-0.4-1.9c1.7-0.4,2.9-1,3.2-1.7c0.3-0.6-0.1-1.2-0.1-1.2l1.7-1c0.3,0.5,0.8,1.8,0.2,3
		C32.2,13.8,30.7,14.7,28.2,15.2z"/>
	<path fill="#F7A93B" d="M7.1,29.5c-3.7,0-6.7,3-6.7,6.7c0,3.7,3,6.7,6.7,6.7c3.7,0,6.7-3,6.7-6.7C13.7,32.5,10.7,29.5,7.1,29.5z"/>
	<path fill="#F7A93B" d="M40.9,29.5c-3.7,0-6.7,3-6.7,6.7c0,3.7,3,6.7,6.7,6.7c3.7,0,6.7-3,6.7-6.7C47.6,32.5,44.6,29.5,40.9,29.5z"
		/>
</g>
</svg>
