<?xml version="1.0" encoding="utf-8"?>
<!-- Generator: Adobe Illustrator 18.0.0, SVG Export Plug-In . SVG Version: 6.00 Build 0)  -->
<!DOCTYPE svg PUBLIC "-//W3C//DTD SVG 1.1//EN" "http://www.w3.org/Graphics/SVG/1.1/DTD/svg11.dtd">
<svg version="1.1" id="Layer_1" xmlns="http://www.w3.org/2000/svg" xmlns:xlink="http://www.w3.org/1999/xlink" x="0px" y="0px"
	 viewBox="0 0 48 48" enable-background="new 0 0 48 48" xml:space="preserve">
<g>
	<rect x="18.3" y="17" transform="matrix(0.6602 0.7511 -0.7511 0.6602 22.9903 -7.0286)" fill="#E77528" width="2" height="9.8"/>
	<rect x="19.3" y="18.1" transform="matrix(0.6522 0.758 -0.758 0.6522 22.4561 -10.852)" fill="#E77528" width="7.5" height="2"/>
	<rect x="12.2" y="4.4" transform="matrix(0.9433 0.332 -0.332 0.9433 5.2877 -3.9301)" fill="#F04B36" width="3.9" height="18.2"/>
	<polygon fill="#F04B36" points="41.1,18.1 37.2,18.1 37.2,6.9 11.9,6.9 11.9,3 41.1,3 	"/>
	<path fill="#CFD0D1" d="M7.4,32.4c-3.5,0-6.3,2.8-6.3,6.3C1.2,42.2,4,45,7.4,45c3.5,0,6.3-2.8,6.3-6.3
		C13.7,35.3,10.9,32.4,7.4,32.4z"/>
	<path fill="#CFD0D1" d="M39.8,32.4c-3.5,0-6.3,2.8-6.3,6.3c0,3.5,2.8,6.3,6.3,6.3c3.5,0,6.3-2.8,6.3-6.3
		C46.1,35.3,43.2,32.4,39.8,32.4z"/>
	<path fill="#4DA0D8" d="M46.7,24.6l-5.8-6.7c-0.5-0.6-1.2-0.9-2-0.8c-0.8,0-1.4,0.4-1.9,1.1l-3.8,5.5c-0.1,0.2-0.3,0.3-0.6,0.3H28
		c-1.6,0-2.8,1.2-2.9,2.8l-0.2,8.8h-5.6c-0.1-3.3-0.9-13.2-8-14.4c-6.2-1.1-9.5,3.6-10.6,5.7c-0.3,0.6-0.3,1.3,0.1,1.9
		c0.4,0.6,1,0.9,1.7,0.8c3-0.3,10.3-0.2,12.7,6.6c0.3,0.8,1.1,1.4,2,1.4h12.6c0.9,0,1.6-0.5,2-1.3c0.6-1.2,2.2-4.1,5.2-5.1
		c2.2-0.7,4.8-0.3,7.7,1.4c0.6,0.3,1.3,0.3,1.9,0c0.6-0.3,0.9-0.9,0.9-1.6v-4.1C47.5,26,47.2,25.2,46.7,24.6z"/>
</g>
</svg>
