<?xml version="1.0" encoding="utf-8"?>
<!-- Generator: Adobe Illustrator 18.0.0, SVG Export Plug-In . SVG Version: 6.00 Build 0)  -->
<!DOCTYPE svg PUBLIC "-//W3C//DTD SVG 1.1//EN" "http://www.w3.org/Graphics/SVG/1.1/DTD/svg11.dtd">
<svg version="1.1" id="Layer_1" xmlns="http://www.w3.org/2000/svg" xmlns:xlink="http://www.w3.org/1999/xlink" x="0px" y="0px"
	 viewBox="0 0 48 48" enable-background="new 0 0 48 48" xml:space="preserve">
<g>
	<rect x="9" y="41" fill="#294E58" width="30.1" height="2"/>
	<path fill="#4DA0D8" d="M46.5,5h-45C1.2,5,1,5.1,0.8,5.3C0.6,5.5,0.5,5.8,0.5,6l0,28.2c0,0.3,0.2,0.6,0.4,0.8
		c3,2.1,12.3,3.5,23.1,3.5c10.8,0,20-1.4,23.1-3.5c0.3-0.2,0.4-0.5,0.4-0.8V6C47.5,5.5,47.1,5,46.5,5z M18.1,33.9h-3.3v-2h3.3V33.9z
		 M23.1,33.9h-3.3v-2h3.3V33.9z M28.1,33.9h-3.3v-2h3.3V33.9z M33.1,33.9h-3.3v-2h3.3V33.9z M42.7,30.1H5.3V9h37.5V30.1z"/>
	<rect x="7.2" y="11" fill="#CFD0D1" width="33.6" height="17.2"/>
</g>
</svg>
