<?xml version="1.0" encoding="utf-8"?>
<!-- Generator: Adobe Illustrator 18.0.0, SVG Export Plug-In . SVG Version: 6.00 Build 0)  -->
<!DOCTYPE svg PUBLIC "-//W3C//DTD SVG 1.1//EN" "http://www.w3.org/Graphics/SVG/1.1/DTD/svg11.dtd">
<svg version="1.1" id="Layer_1" xmlns="http://www.w3.org/2000/svg" xmlns:xlink="http://www.w3.org/1999/xlink" x="0px" y="0px"
	 viewBox="0 0 48 48" enable-background="new 0 0 48 48" xml:space="preserve">
<g>
	<path fill="#F04B36" d="M26.3,3.8c-1.5-1.1-3.2-2.2-5-3.2c-1.5,0.2-2.9,0.5-4.2,0.9C20.5,2,23.6,2.8,26.3,3.8z"/>
	<path fill="#0DB89A" d="M31.2,5.3c-0.1-1.3-0.3-2.6-0.5-3.9c-1.8-0.5-3.7-0.9-5.6-0.9C27.4,2,29.5,3.6,31.2,5.3z"/>
	<path fill="#F04B36" d="M34.8,7.1c1.8,0.3,4.7,1,7.7,2.3c-1.3-1.6-2.8-3-4.4-4.3C37.4,5.4,36.3,6,34.8,7.1z"/>
	<path fill="#F7A93B" d="M47.5,22.6c-0.2-3.6-1.2-6.9-2.8-9.9c-2.7-1.7-5.7-2.7-8-3.3C42.3,13.9,45.6,19.1,47.5,22.6z"/>
	<path fill="#F04B36" d="M9.6,42.5c3.3,2.5,7.2,4.2,11.5,4.8C23.2,43,31.2,26,31.4,9.7C25.1,14.9,16,24.9,9.6,42.5z"/>
	<path fill="#E77528" d="M33.4,10.8c-0.5,15.7-7.5,31.4-10.1,36.7c0.3,0,0.5,0,0.8,0c4.7,0,9.1-1.4,12.8-3.8
		C38.1,39.8,42.7,23.8,33.4,10.8z"/>
	<path fill="#4DA0D8" d="M36.2,11.6c6.8,11.2,4.8,24,3.2,30.1c4.2-3.7,7.1-8.8,7.9-14.6C46.6,25,43.6,17.7,36.2,11.6z"/>
	<path fill="#4DA0D8" d="M33.3,5.6c1.2-0.8,2.1-1.4,2.9-1.8c-1-0.6-2.1-1.2-3.3-1.6C33,3.3,33.2,4.5,33.3,5.6z"/>
	<path fill="#4DA0D8" d="M27.6,6.4c-4-1.7-8.8-2.9-14.5-3.3C7.8,5.9,3.7,10.7,1.8,16.4C10.9,7.9,21.5,6.4,27.6,6.4z"/>
	<path fill="#CFD0D1" d="M8,41.2c6.4-17.3,15.2-27.3,21.6-32.7C23.9,8.2,10.9,8.9,0.8,20.2c-0.2,1.2-0.3,2.5-0.3,3.8
		C0.5,30.8,3.4,36.9,8,41.2z"/>
</g>
</svg>
