<?xml version="1.0" encoding="utf-8"?>
<!-- Generator: Adobe Illustrator 18.0.0, SVG Export Plug-In . SVG Version: 6.00 Build 0)  -->
<!DOCTYPE svg PUBLIC "-//W3C//DTD SVG 1.1//EN" "http://www.w3.org/Graphics/SVG/1.1/DTD/svg11.dtd">
<svg version="1.1" id="Layer_1" xmlns="http://www.w3.org/2000/svg" xmlns:xlink="http://www.w3.org/1999/xlink" x="0px" y="0px"
	 viewBox="0 0 48 48" enable-background="new 0 0 48 48" xml:space="preserve">
<g>
	<path fill="#F04B36" d="M14.7,9.8l11-5.7c0.4-0.2,0.6-0.7,0.5-1.2c-0.1-0.5-0.6-0.7-1.1-0.7L11.8,4.1L10.2,1
		C10,0.6,9.4,0.4,8.9,0.6C8.4,0.9,8.2,1.4,8.5,1.9L10.1,5l-9.3,9.8c-0.3,0.3-0.4,0.9-0.1,1.3c0.2,0.3,0.5,0.4,0.8,0.4
		c0.2,0,0.3,0,0.4-0.1l11-5.7l3.8,7.5h2.2L14.7,9.8z"/>
	<path fill="#F7A93B" d="M45.6,6.3c0.5-0.1,0.8-0.7,0.7-1.2c-0.1-0.5-0.7-0.8-1.2-0.7c-0.3,0.1-7.5,2.2-12.4,13.8h2.1
		C39.3,8.2,45.5,6.3,45.6,6.3z"/>
	<path fill="#E77528" d="M45.3,18.7c-0.2-0.3-0.5-0.5-0.9-0.5h-9.6h-2.1h-7.4c-0.5,0-0.9,0.4-1,0.8l-0.8,5.6l-1-5.7
		c-0.1-0.5-0.5-0.8-1-0.8h-2.6h-2.2h-5.3c-0.4,0-0.7,0.2-0.9,0.5c-1.4,2.8-2.2,5.9-2.2,9.1c0,10.9,8.8,19.7,19.6,19.7
		s19.6-8.8,19.6-19.7C47.5,24.6,46.7,21.5,45.3,18.7z"/>
</g>
</svg>
