<?xml version="1.0" encoding="utf-8"?>
<!-- Generator: Adobe Illustrator 18.0.0, SVG Export Plug-In . SVG Version: 6.00 Build 0)  -->
<!DOCTYPE svg PUBLIC "-//W3C//DTD SVG 1.1//EN" "http://www.w3.org/Graphics/SVG/1.1/DTD/svg11.dtd">
<svg version="1.1" id="Layer_1" xmlns="http://www.w3.org/2000/svg" xmlns:xlink="http://www.w3.org/1999/xlink" x="0px" y="0px"
	 viewBox="0 0 48 48" enable-background="new 0 0 48 48" xml:space="preserve">
<g>
	<polygon fill="#0DB89A" points="19.7,24.4 27,24.4 18.2,13.4 25.3,13.4 14.9,0.5 4.5,13.4 11.7,13.4 2.8,24.4 10.4,24.4 0.5,37.1 
		12.6,37.1 17.2,37.1 29.3,37.1 	"/>
	<rect x="12.6" y="37.1" fill="#E77528" width="4.6" height="10.4"/>
	<rect x="35.2" y="30.6" fill="#E77528" width="3.4" height="7.6"/>
	<polygon fill="#CFD0D1" points="40.4,21.3 45.8,21.3 39.3,13.2 44.6,13.2 36.9,3.7 29.3,13.2 34.5,13.2 28,21.3 33.6,21.3 
		26.3,30.6 35.2,30.6 38.6,30.6 47.5,30.6 	"/>
</g>
</svg>
