<?xml version="1.0" encoding="utf-8"?>
<!-- Generator: Adobe Illustrator 18.0.0, SVG Export Plug-In . SVG Version: 6.00 Build 0)  -->
<!DOCTYPE svg PUBLIC "-//W3C//DTD SVG 1.1//EN" "http://www.w3.org/Graphics/SVG/1.1/DTD/svg11.dtd">
<svg version="1.1" id="Layer_1" xmlns="http://www.w3.org/2000/svg" xmlns:xlink="http://www.w3.org/1999/xlink" x="0px" y="0px"
	 viewBox="0 0 48 48" enable-background="new 0 0 48 48" xml:space="preserve">
<g>
	<path fill="#4DA0D8" d="M24,0.5c-9.7,0-17.5,6.8-17.5,15.1c0,3.7,1.6,7.1,4.1,9.8v16.9c0,2.9,2.3,5.2,5.2,5.2h7.2v-4.7
		c-1.3-0.2-2.3-0.8-2.9-1.6h-6.3v-2.5h6.3c0.6-0.8,1.6-1.4,2.9-1.6v-2.8c-1.2-0.2-2.2-0.7-2.8-1.4h-6.4v-2.5h6.2
		c0.5-0.9,1.6-1.5,3-1.7v-5.3c-3.6-0.4-6.3-3-6.3-6.2c0-3.5,3.2-6.3,7.2-6.3c4,0,7.2,2.8,7.2,6.3c0,3.2-2.8,5.8-6.3,6.2v5.3
		c1.4,0.2,2.5,0.9,3,1.7h6.2V33h-6.4c-0.6,0.7-1.6,1.2-2.8,1.4v2.8c1.3,0.2,2.3,0.8,2.9,1.6h6.3v2.5h-6.3c-0.6,0.8-1.6,1.4-2.9,1.6
		v4.7h7.2c2.9,0,5.2-2.3,5.2-5.2V25.4c2.6-2.6,4.1-6,4.1-9.8C41.5,7.3,33.7,0.5,24,0.5z"/>
</g>
</svg>
