<?xml version="1.0" encoding="utf-8"?>
<!-- Generator: Adobe Illustrator 18.0.0, SVG Export Plug-In . SVG Version: 6.00 Build 0)  -->
<!DOCTYPE svg PUBLIC "-//W3C//DTD SVG 1.1//EN" "http://www.w3.org/Graphics/SVG/1.1/DTD/svg11.dtd">
<svg version="1.1" id="Layer_1" xmlns="http://www.w3.org/2000/svg" xmlns:xlink="http://www.w3.org/1999/xlink" x="0px" y="0px"
	 viewBox="0 0 48 48" enable-background="new 0 0 48 48" xml:space="preserve">
<g>
	<path fill="#F7A93B" d="M14.4,37.1l3.4,1.9c2.6,1.4,3.4,6.6,3.5,8.5h2c0.1-1.9,0.9-7.1,3.5-8.5l3.4-1.9H14.4z"/>
	<path fill="#0DB89A" d="M29.1,27.1c0.1-0.3,0.2-0.5,0.3-0.8c0.6-3.4-4.3-7.2-10.7-8.4c-6.4-1.2-12.4,0.6-13,4
		c-0.3,1.5,0.6,3.3,2.5,4.8c1.8,1.5,4.2,2.6,7,3.3c-0.1-0.4-0.1-0.8-0.1-1.3c0-4,3.2-7.2,7.2-7.2C25.6,21.5,28.4,23.9,29.1,27.1z"/>
	<path fill="#06728D" d="M17,28.7c0,2.9,2.3,5.2,5.2,5.2c2.9,0,5.2-2.3,5.2-5.2c0-2.9-2.3-5.2-5.2-5.2C19.3,23.5,17,25.8,17,28.7z"
		/>
	<path fill="#CFD0D1" d="M39.7,0.5l-9.4,21.7c1,1.4,1.4,2.9,1.1,4.4c-0.1,0.5-0.3,0.9-0.5,1.3l0.1,0L42.4,1.7L39.7,0.5z"/>
</g>
</svg>
