<?xml version="1.0" encoding="utf-8"?>
<!-- Generator: Adobe Illustrator 18.0.0, SVG Export Plug-In . SVG Version: 6.00 Build 0)  -->
<!DOCTYPE svg PUBLIC "-//W3C//DTD SVG 1.1//EN" "http://www.w3.org/Graphics/SVG/1.1/DTD/svg11.dtd">
<svg version="1.1" id="Layer_1" xmlns="http://www.w3.org/2000/svg" xmlns:xlink="http://www.w3.org/1999/xlink" x="0px" y="0px"
	 viewBox="0 0 48 48" enable-background="new 0 0 48 48" xml:space="preserve">
<g>
	<path fill="#4DA0D8" d="M11.6,23H23V12.6h-9.8C12.3,15.7,11.7,19.2,11.6,23z"/>
	<path fill="#4DA0D8" d="M23,47.5v-10h-9.1C15.9,43.1,19.2,46.9,23,47.5z"/>
	<path fill="#4DA0D8" d="M23,10.5v-10c-3.8,0.6-7.1,4.4-9.1,10H23z"/>
	<path fill="#4DA0D8" d="M13.2,35.4H23V25H11.6C11.7,28.8,12.3,32.3,13.2,35.4z"/>
	<path fill="#4DA0D8" d="M37,12.6c0.9,3.1,1.4,6.6,1.4,10.4h9.3c-0.2-3.7-1.2-7.3-2.9-10.4H37z"/>
	<path fill="#4DA0D8" d="M38.4,25c-0.1,3.7-0.6,7.2-1.4,10.4h7.8c1.7-3.1,2.7-6.6,2.9-10.4H38.4z"/>
	<path fill="#4DA0D8" d="M36.4,10.5h7.2c-3-4.4-7.5-7.7-12.7-9.3C33.1,3.4,35,6.6,36.4,10.5z"/>
	<path fill="#4DA0D8" d="M34.2,10.5c-2.1-5.6-5.4-9.4-9.1-10v10H34.2z"/>
	<path fill="#4DA0D8" d="M25,37.5v10c3.8-0.6,7.1-4.4,9.1-10H25z"/>
	<path fill="#4DA0D8" d="M3.2,12.6C1.5,15.7,0.5,19.2,0.3,23h9.3c0.1-3.7,0.6-7.2,1.4-10.4H3.2z"/>
	<path fill="#4DA0D8" d="M11.6,37.5H4.5c3,4.4,7.5,7.7,12.7,9.3C14.9,44.6,13,41.4,11.6,37.5z"/>
	<path fill="#4DA0D8" d="M36.4,37.5c-1.3,3.9-3.3,7.1-5.6,9.3c5.2-1.6,9.7-4.9,12.7-9.3H36.4z"/>
	<path fill="#4DA0D8" d="M11.6,10.5c1.3-3.9,3.3-7.1,5.6-9.3C12,2.8,7.5,6.2,4.5,10.5H11.6z"/>
	<path fill="#4DA0D8" d="M34.8,12.6H25V23h11.3C36.3,19.2,35.7,15.7,34.8,12.6z"/>
	<path fill="#4DA0D8" d="M36.4,25H25v10.4h9.8C35.7,32.3,36.3,28.8,36.4,25z"/>
	<path fill="#4DA0D8" d="M9.6,25H0.3c0.2,3.7,1.2,7.3,2.9,10.4H11C10.2,32.3,9.7,28.8,9.6,25z"/>
</g>
</svg>
