<?xml version="1.0" encoding="utf-8"?>
<!-- Generator: Adobe Illustrator 18.0.0, SVG Export Plug-In . SVG Version: 6.00 Build 0)  -->
<!DOCTYPE svg PUBLIC "-//W3C//DTD SVG 1.1//EN" "http://www.w3.org/Graphics/SVG/1.1/DTD/svg11.dtd">
<svg version="1.1" id="Layer_1" xmlns="http://www.w3.org/2000/svg" xmlns:xlink="http://www.w3.org/1999/xlink" x="0px" y="0px"
	 viewBox="0 0 48 48" enable-background="new 0 0 48 48" xml:space="preserve">
<g>
	<path fill="none" stroke="#010101" stroke-width="2" stroke-miterlimit="10" d="M14,15.9"/>
	<rect x="22.5" y="0.5" fill="#F04B36" width="2.1" height="6.8"/>
	<path fill="#CFD0D1" d="M33.1,14.3v-0.2c0-5.5-4.3-10-9.5-10h0c-5.3,0-9.5,4.5-9.5,10v0.2H33.1z"/>
	<polygon fill="#F04B36" points="0.5,33.8 0.5,47.5 47.5,47.5 47.5,33.8 39.4,33.8 39.4,45.9 7.7,45.9 7.7,33.8 	"/>
	<polygon fill="#06728D" points="23.5,19.6 33.1,22.9 33.1,16.4 14,16.4 14,22.9 	"/>
	<path fill="#CFD0D1" d="M9.9,26.6v5.2v12.1h27.4V31.7v-5.2l-13.8-4.8L9.9,26.6z M15.6,40.7h-2.1V28.6h2.1V40.7z M21.6,40.7h-2.1
		V28.6h2.1V40.7z M31.6,28.6h2.1v12.1h-2.1V28.6z M25.6,28.6h2.1v12.1h-2.1V28.6z"/>
</g>
</svg>
