<?xml version="1.0" encoding="utf-8"?>
<!-- Generator: Adobe Illustrator 18.0.0, SVG Export Plug-In . SVG Version: 6.00 Build 0)  -->
<!DOCTYPE svg PUBLIC "-//W3C//DTD SVG 1.1//EN" "http://www.w3.org/Graphics/SVG/1.1/DTD/svg11.dtd">
<svg version="1.1" id="Layer_1" xmlns="http://www.w3.org/2000/svg" xmlns:xlink="http://www.w3.org/1999/xlink" x="0px" y="0px"
	 viewBox="0 0 48 48" enable-background="new 0 0 48 48" xml:space="preserve">
<g>
	<polygon fill="#F04B36" points="27.6,2.8 25,2.8 25,0.5 23,0.5 23,2.8 20.4,2.8 20.4,4.8 23,4.8 23,11.6 25,11.6 25,4.8 27.6,4.8 	
		"/>
	<path fill="#E77528" d="M24,18.8c-1.7,0-3.1,1.4-3.1,3c0,1.7,1.4,3,3.1,3c1.7,0,3.1-1.4,3.1-3C27.1,20.2,25.7,18.8,24,18.8z"/>
	<path fill="#0DB89A" d="M34.8,22.3v-9.5l-11-4.2l-10.6,4.2v9.4L0.5,25.5v22h17.1v-9.1c0-3.5,2.9-6.4,6.4-6.4c3.5,0,6.4,2.9,6.4,6.4
		v9.1h17.1v-22L34.8,22.3z M24,26.9c-2.8,0-5.1-2.3-5.1-5.1c0-2.8,2.3-5.1,5.1-5.1c2.8,0,5.1,2.3,5.1,5.1
		C29.1,24.6,26.8,26.9,24,26.9z"/>
	<path fill="#E77528" d="M24,34.1c-2.4,0-4.4,2-4.4,4.4v9.1h8.7v-9.1C28.4,36,26.4,34.1,24,34.1z"/>
</g>
</svg>
