<?xml version="1.0" encoding="utf-8"?>
<!-- Generator: Adobe Illustrator 18.0.0, SVG Export Plug-In . SVG Version: 6.00 Build 0)  -->
<!DOCTYPE svg PUBLIC "-//W3C//DTD SVG 1.1//EN" "http://www.w3.org/Graphics/SVG/1.1/DTD/svg11.dtd">
<svg version="1.1" id="Layer_1" xmlns="http://www.w3.org/2000/svg" xmlns:xlink="http://www.w3.org/1999/xlink" x="0px" y="0px"
	 viewBox="0 0 48 48" enable-background="new 0 0 48 48" xml:space="preserve">
<g>
	<path fill="#CFD0D1" d="M47,16.8L44,12.3l-3.1,4.4c0,0.1-0.9,1.3-0.2,2.9h6.6C47.9,18.1,47.1,16.8,47,16.8z"/>
	<rect x="37.5" y="21.8" fill="#F7A93B" width="10" height="25.7"/>
	<path fill="#F7A93B" d="M35.4,47.5V21.8h-22v25.7h5V30.9c0-3.2,2.6-5.8,5.8-5.8c3.2,0,5.8,2.6,5.8,5.8v16.6H35.4z"/>
	<path fill="#CFD0D1" d="M1,16.8c0,0.1-0.9,1.3-0.2,2.9h6.6c0.6-1.5-0.2-2.8-0.2-2.9L4,12.3L1,16.8z"/>
	<path fill="#06728D" d="M20.5,30.9v16.6h7.3V30.9c0-2-1.6-3.7-3.7-3.7C22.2,27.3,20.5,28.9,20.5,30.9z"/>
	<rect x="1.2" y="21.8" fill="#F7A93B" width="10" height="25.7"/>
	<path fill="#CFD0D1" d="M35.2,11.8L24.1,0.5L13.1,11.8c-0.4,0.4-3.5,3.8-0.3,7.8h22.6C38.7,15.6,35.6,12.2,35.2,11.8z"/>
</g>
</svg>
