<?xml version="1.0" encoding="utf-8"?>
<!-- Generator: Adobe Illustrator 18.0.0, SVG Export Plug-In . SVG Version: 6.00 Build 0)  -->
<!DOCTYPE svg PUBLIC "-//W3C//DTD SVG 1.1//EN" "http://www.w3.org/Graphics/SVG/1.1/DTD/svg11.dtd">
<svg version="1.1" id="Layer_1" xmlns="http://www.w3.org/2000/svg" xmlns:xlink="http://www.w3.org/1999/xlink" x="0px" y="0px"
	 viewBox="0 0 48 48" enable-background="new 0 0 48 48" xml:space="preserve">
<g>
	<path fill="#F7A93B" d="M14.1,18.8v4.7h1.2h17.5h1.2v-4.7c0-2.4-1.9-4.4-4.2-4.4H18.3C16,14.4,14.1,16.3,14.1,18.8z M21.1,16.9h5.7
		v3.9h-5.7V16.9z"/>
	<path fill="#0DB89A" d="M35.8,17.5h4v-2.1H35C35.4,16,35.7,16.7,35.8,17.5z"/>
	<path fill="#0DB89A" d="M18.5,7.3c-0.5,0.6-0.8,1.5-0.8,2.3v2.7h0.6h11.4h0.6V9.6c0-0.8-0.3-1.7-0.8-2.3L24,0.5L18.5,7.3z
		 M26.2,10.2h-4.4v-3h4.4V10.2z"/>
	<path fill="#F04B36" d="M32.7,25.6H15.3c-2.8,0-5.1,2.4-5.1,5.4v11.1h8.7v-8.5c0-3,2.3-5.4,5.2-5.4c2.9,0,5.2,2.4,5.2,5.4v8.5h8.7
		V30.9C37.9,28,35.6,25.6,32.7,25.6z"/>
	<path fill="#4DA0D8" d="M24,30.2c-1.7,0-3.2,1.5-3.2,3.3v8.5h6.3v-8.5C27.2,31.7,25.7,30.2,24,30.2z"/>
	<path fill="#06728D" d="M45.1,26.9h-6.3c0.4,0.6,0.7,1.4,0.9,2.1h5.4V26.9z"/>
	<path fill="#06728D" d="M8.1,40h-3c-0.6,0-1,0.5-1,1.1v2.2H1.5c-0.6,0-1,0.5-1,1.1v3.2h2v-2.1h2.5c0.6,0,1-0.5,1-1.1v-2.2h2V40z"/>
	<path fill="#06728D" d="M46.5,43.3h-2.5V41c0-0.6-0.5-1.1-1-1.1h-3v2.1h2v2.2c0,0.6,0.5,1.1,1,1.1h2.5v2.1h2v-3.2
		C47.5,43.7,47,43.3,46.5,43.3z"/>
	<path fill="#F04B36" d="M32.2,8.9h3V6.8h-3.6C32,7.5,32.2,8.2,32.2,8.9z"/>
	<path fill="#06728D" d="M9.2,26.9H2.9V29h5.4C8.5,28.3,8.8,27.6,9.2,26.9z"/>
	<path fill="#F04B36" d="M16.4,6.8h-3.6v2.1h3C15.8,8.2,16,7.5,16.4,6.8z"/>
	<path fill="#0DB89A" d="M13,15.4H8.2v2.1h4C12.3,16.7,12.6,16,13,15.4z"/>
</g>
</svg>
