<?xml version="1.0" encoding="utf-8"?>
<!-- Generator: Adobe Illustrator 18.0.0, SVG Export Plug-In . SVG Version: 6.00 Build 0)  -->
<!DOCTYPE svg PUBLIC "-//W3C//DTD SVG 1.1//EN" "http://www.w3.org/Graphics/SVG/1.1/DTD/svg11.dtd">
<svg version="1.1" id="Layer_1" xmlns="http://www.w3.org/2000/svg" xmlns:xlink="http://www.w3.org/1999/xlink" x="0px" y="0px"
	 viewBox="0 0 48 48" enable-background="new 0 0 48 48" xml:space="preserve">
<g>
	<path fill="#0DB89A" d="M43.3,6.9c-0.1-0.3-0.4-0.5-0.7-0.6L24.8,0.6c-0.4-0.1-0.9,0-1.2,0.3l-8.4,9.4c0.6-0.1,1.3-0.2,2-0.2
		c0,0,0,0,0.1,0c0.4-0.1,0.7-0.1,1.1-0.1l6.4-7.2l15.9,5.1L30,25.8l1.9,1L43.2,7.7C43.4,7.5,43.4,7.2,43.3,6.9z"/>
	<polygon fill="#E8B944" points="0.6,17 11.8,22.6 12.3,18 3.1,13.5 	"/>
	<polygon fill="#E77528" points="13.9,23.1 30.2,21.3 33.3,15.9 14.5,18.3 	"/>
	<polygon fill="#CFD0D1" points="6.5,12.9 13.7,16.3 34.7,13.7 36,11.6 32.6,10.5 	"/>
	<polygon fill="#E77528" points="44.5,14.5 41.4,14.9 38.2,20.4 47.4,19.4 	"/>
	<polygon fill="#E8B944" points="4.6,38.7 16.1,46.4 11.7,24.9 0.5,19.3 	"/>
	<polygon fill="#E77528" points="38.4,44.3 47.5,21.5 36.9,22.6 32.7,29.6 27,26.6 28.8,23.5 14,25.1 18.5,47.5 	"/>
</g>
</svg>
