<?xml version="1.0" encoding="utf-8"?>
<!-- Generator: Adobe Illustrator 18.0.0, SVG Export Plug-In . SVG Version: 6.00 Build 0)  -->
<!DOCTYPE svg PUBLIC "-//W3C//DTD SVG 1.1//EN" "http://www.w3.org/Graphics/SVG/1.1/DTD/svg11.dtd">
<svg version="1.1" id="Layer_1" xmlns="http://www.w3.org/2000/svg" xmlns:xlink="http://www.w3.org/1999/xlink" x="0px" y="0px"
	 viewBox="0 0 48 48" enable-background="new 0 0 48 48" xml:space="preserve">
<g>
	<rect x="9.1" y="18.8" fill="#F04B36" width="26.3" height="2"/>
	<path fill="#E77528" d="M36.4,45.5c-0.1-10.3-1.7-18-4-23.8H12.9v23.8h-2.4v2h2.4h23.5h2.5v-2H36.4z M17.3,25.1h10.8l1.6,7.1H17.3
		V25.1z M17.3,42.4v-7.1h13l0.7,7.1H17.3z"/>
	<path fill="#06728D" d="M14.9,4.4V0.5h-2v3.6v13.7h17.6C25.1,7.6,17.4,5,14.9,4.4z M16.9,15.3V9.8c0,0,4.5,1.8,7.2,5.5H16.9z"/>
</g>
</svg>
