<?xml version="1.0" encoding="utf-8"?>
<!-- Generator: Adobe Illustrator 18.0.0, SVG Export Plug-In . SVG Version: 6.00 Build 0)  -->
<!DOCTYPE svg PUBLIC "-//W3C//DTD SVG 1.1//EN" "http://www.w3.org/Graphics/SVG/1.1/DTD/svg11.dtd">
<svg version="1.1" id="Layer_1" xmlns="http://www.w3.org/2000/svg" xmlns:xlink="http://www.w3.org/1999/xlink" x="0px" y="0px"
	 viewBox="0 0 48 48" enable-background="new 0 0 48 48" xml:space="preserve">
<g>
	<rect x="31.9" y="5" fill="#E77528" width="5.1" height="2"/>
	<rect x="31.9" y="9" fill="#E77528" width="5.1" height="2"/>
	<rect x="31.9" y="13.1" fill="#E77528" width="5.1" height="2"/>
	<rect x="31.9" y="17.2" fill="#E77528" width="5.1" height="2"/>
	<path fill="#06728D" d="M30.2,21V6.7c0-3.4-2.8-6.2-6.2-6.2c-3.4,0-6.2,2.8-6.2,6.2V21c-4.7,2.3-7.8,7.2-7.8,12.5
		c0,7.7,6.3,14,14,14s14-6.3,14-14C38,28.2,34.9,23.4,30.2,21z M24,43.5c-5.5,0-10-4.5-10-10c0-4,2.3-7.6,6-9.1l1.8-0.8V6.7
		c0-1.2,1-2.2,2.2-2.2c1.2,0,2.2,1,2.2,2.2v16.9l1.8,0.8c3.6,1.6,6,5.2,6,9.1C34,39,29.5,43.5,24,43.5z"/>
	<path fill="#F04B36" d="M27.2,26.2l-2.4-1c-0.4-0.2-0.6-0.5-0.6-0.9V6.7c0-0.1-0.1-0.3-0.3-0.3c-0.1,0-0.3,0.1-0.3,0.3v17.6
		c0,0.4-0.2,0.7-0.6,0.9l-2.4,1c-2.9,1.3-4.8,4.2-4.8,7.4c0,4.4,3.6,8,8,8c4.4,0,8-3.6,8-8C32,30.4,30.1,27.5,27.2,26.2z"/>
</g>
</svg>
