<?xml version="1.0" encoding="utf-8"?>
<!-- Generator: Adobe Illustrator 18.0.0, SVG Export Plug-In . SVG Version: 6.00 Build 0)  -->
<!DOCTYPE svg PUBLIC "-//W3C//DTD SVG 1.1//EN" "http://www.w3.org/Graphics/SVG/1.1/DTD/svg11.dtd">
<svg version="1.1" id="Layer_1" xmlns="http://www.w3.org/2000/svg" xmlns:xlink="http://www.w3.org/1999/xlink" x="0px" y="0px"
	 viewBox="0 0 48 48" enable-background="new 0 0 48 48" xml:space="preserve">
<g>
	<path fill="#06728D" d="M8.1,34.3l-1.8-0.9L22.1,3.3c0.1-0.1,1.5-2.8,6.4-2.8h5.3c0.4,0,2.2-0.1,3.5,1c1,0.9,1.5,2.2,1.5,3.9v17.4
		h-2.1V5.4c0-1.1-0.3-1.9-0.8-2.3c-0.8-0.7-1.9-0.5-2-0.5l-0.1,0h-5.3C25,2.6,24,4.2,24,4.2L8.1,34.3z"/>
	<polygon fill="#06728D" points="14.5,38 0.5,32.5 1.3,30.6 15.2,36.1 	"/>
	<polygon fill="#0DB89A" points="4.6,39.2 2.3,38 3.3,36.2 5.6,37.4 	"/>
	<rect x="7.9" y="39.5" fill="#0DB89A" width="3" height="2"/>
	<rect x="4" y="42.7" fill="#0DB89A" width="2.1" height="2.1"/>
	<polygon fill="#0DB89A" points="13.3,44.7 12.4,42.9 14.4,41.8 15.3,43.6 	"/>
	<path fill="#4DA0D8" d="M43.2,39.3c-2.4,0-4.3,1.8-4.3,4.1c0,2.2,1.9,4.1,4.3,4.1c2.4,0,4.3-1.8,4.3-4.1
		C47.5,41.2,45.6,39.3,43.2,39.3z"/>
	<path fill="#F04B36" d="M36.8,43.4c0-3.4,2.9-6.1,6.4-6.1c1.4,0,2.6,0.4,3.7,1.1V25.9c0-2.2-1.9-4.1-4.2-4.1h-9.7
		c-2.3,0-4.2,1.8-4.2,4.1v15.9c0,2.2,1.9,4.1,4.2,4.1h4.4C37,45.1,36.8,44.3,36.8,43.4z"/>
</g>
</svg>
