<?xml version="1.0" encoding="utf-8"?>
<!-- Generator: Adobe Illustrator 18.0.0, SVG Export Plug-In . SVG Version: 6.00 Build 0)  -->
<!DOCTYPE svg PUBLIC "-//W3C//DTD SVG 1.1//EN" "http://www.w3.org/Graphics/SVG/1.1/DTD/svg11.dtd">
<svg version="1.1" id="Layer_1" xmlns="http://www.w3.org/2000/svg" xmlns:xlink="http://www.w3.org/1999/xlink" x="0px" y="0px"
	 viewBox="0 0 48 48" enable-background="new 0 0 48 48" xml:space="preserve">
<g>
	<path fill="#F04B36" d="M40.5,0.5c-0.5,0-1,0.4-1,1v13.3l-1.6,4.5c0,0.1,0,0.1,0,0.2l-4.4,26.9c-0.1,0.5,0.3,1,0.8,1.1
		c0.1,0,0.1,0,0.2,0c0.5,0,0.9-0.3,1-0.8l4.4-26.8l1.7-4.6c0-0.1,0.1-0.2,0.1-0.3V1.5C41.5,0.9,41.1,0.5,40.5,0.5z"/>
	<path fill="#F04B36" d="M32.8,3.7h5.3c0.5,0,1-0.4,1-1s-0.4-1-1-1h-5.3c-0.5,0-1,0.4-1,1S32.2,3.7,32.8,3.7z"/>
	<path fill="#F04B36" d="M32.8,6.3h5.3c0.5,0,1-0.4,1-1s-0.4-1-1-1h-5.3c-0.5,0-1,0.4-1,1S32.2,6.3,32.8,6.3z"/>
	<path fill="#F04B36" d="M32.8,8.8h5.3c0.5,0,1-0.4,1-1s-0.4-1-1-1h-5.3c-0.5,0-1,0.4-1,1S32.2,8.8,32.8,8.8z"/>
	<path fill="#F04B36" d="M32.8,11.4h5.3c0.5,0,1-0.4,1-1c0-0.5-0.4-1-1-1h-5.3c-0.5,0-1,0.4-1,1C31.8,11,32.2,11.4,32.8,11.4z"/>
	<path fill="#F04B36" d="M39,13.1c0-0.5-0.4-1-1-1h-5.3c-0.5,0-1,0.4-1,1s0.4,1,1,1h5.3C38.6,14,39,13.6,39,13.1z"/>
	<path fill="#0DB89A" d="M21.4,1.5c0-0.5-0.4-1-1-1h-9.6c-0.5,0-1,0.4-1,1v8.5h11.5V1.5z"/>
	<path fill="#CFD0D1" d="M22.3,11.9H9L6.5,46.4c0,0.3,0.1,0.5,0.3,0.7c0.2,0.2,0.4,0.3,0.7,0.3h16.3c0,0,0,0,0,0c0.5,0,1-0.4,1-1
		c0-0.1,0-0.2,0-0.3L22.3,11.9z"/>
</g>
</svg>
