<?xml version="1.0" encoding="utf-8"?>
<!-- Generator: Adobe Illustrator 18.0.0, SVG Export Plug-In . SVG Version: 6.00 Build 0)  -->
<!DOCTYPE svg PUBLIC "-//W3C//DTD SVG 1.1//EN" "http://www.w3.org/Graphics/SVG/1.1/DTD/svg11.dtd">
<svg version="1.1" id="Layer_1" xmlns="http://www.w3.org/2000/svg" xmlns:xlink="http://www.w3.org/1999/xlink" x="0px" y="0px"
	 viewBox="0 0 48 48" enable-background="new 0 0 48 48" xml:space="preserve">
<g>
	<path fill="#F04B36" d="M17.9,9.4l-2.2,6.4h0.9l0.7-2h2.3l0.7,2H21l-2.2-6.4H17.9z M17.4,13.1l0.6-1.8c0.1-0.4,0.2-0.8,0.3-1.2h0
		c0.1,0.4,0.2,0.7,0.3,1.2l0.6,1.8H17.4z"/>
	<polygon fill="#F04B36" points="20.5,10.1 22.5,10.1 22.5,15.8 23.3,15.8 23.3,10.1 25.2,10.1 25.2,9.4 20.5,9.4 	"/>
	<path fill="#F04B36" d="M30.8,9.4l-1.1,3.1c-0.3,0.8-0.5,1.5-0.7,2.1h0c-0.2-0.7-0.4-1.4-0.6-2.1l-1.1-3.1h-1l-0.4,6.4h0.8l0.2-2.7
		c0.1-1,0.1-2,0.1-2.8h0c0.2,0.8,0.4,1.6,0.7,2.5l1,3h0.6l1.1-3.1c0.3-0.9,0.6-1.7,0.8-2.4h0c0,0.8,0,1.9,0.1,2.8l0.2,2.8h0.8
		l-0.4-6.4H30.8z"/>
	<path fill="#E77528" d="M35.6,0.5H12.4c-2.6,0-4.6,2.1-4.6,4.6v37.7c0,2.6,2.1,4.6,4.6,4.6h23.2c2.6,0,4.6-2.1,4.6-4.6V5.1
		C40.3,2.6,38.2,0.5,35.6,0.5z M33.8,41.9H29v-2h4.7V41.9z M16.5,28.9v-2h14.9v2H16.5z M35.2,15.9c0,2.2-1.8,4-4,4H16.8
		c-2.2,0-4-1.8-4-4V9.3c0-2.2,1.8-4,4-4h14.4c2.2,0,4,1.8,4,4V15.9z"/>
</g>
</svg>
