<?xml version="1.0" encoding="utf-8"?>
<!-- Generator: Adobe Illustrator 18.0.0, SVG Export Plug-In . SVG Version: 6.00 Build 0)  -->
<!DOCTYPE svg PUBLIC "-//W3C//DTD SVG 1.1//EN" "http://www.w3.org/Graphics/SVG/1.1/DTD/svg11.dtd">
<svg version="1.1" id="Layer_1" xmlns="http://www.w3.org/2000/svg" xmlns:xlink="http://www.w3.org/1999/xlink" x="0px" y="0px"
	 viewBox="0 0 48 48" enable-background="new 0 0 48 48" xml:space="preserve">
<g>
	<polygon fill="#F04B36" points="39,18 9,18 9,19.8 9,21.7 9,47.5 39,47.5 39,21.7 39,19.8 	"/>
	<path fill="#06728D" d="M37.3,14.6c-7.1-1.8-10.8-3.7-12.3-6.4V7c1.4-0.4,2.3-1.7,2.3-3.2c0-1.8-1.5-3.3-3.3-3.3S20.7,2,20.7,3.8h2
		c0-0.8,0.6-1.4,1.4-1.4c0.8,0,1.4,0.6,1.4,1.4c0,0.8-0.6,1.4-1.4,1.4h-1v3c-1.5,2.7-5.2,4.6-12.3,6.4c-7.1,1.8-6.6,6.1-6.6,6.3
		l0.1,0.9H9v-2H6.2c0.4-0.9,1.5-2.4,5-3.3c4.9-1.2,10.2-2.9,12.8-6.3c2.6,3.3,7.9,5,12.8,6.3c3.5,0.9,4.6,2.4,5,3.3H39v2h4.8
		l0.1-0.8C43.9,20.7,44.4,16.3,37.3,14.6z"/>
</g>
</svg>
