<?xml version="1.0" encoding="utf-8"?>
<!-- Generator: Adobe Illustrator 18.0.0, SVG Export Plug-In . SVG Version: 6.00 Build 0)  -->
<!DOCTYPE svg PUBLIC "-//W3C//DTD SVG 1.1//EN" "http://www.w3.org/Graphics/SVG/1.1/DTD/svg11.dtd">
<svg version="1.1" id="Layer_1" xmlns="http://www.w3.org/2000/svg" xmlns:xlink="http://www.w3.org/1999/xlink" x="0px" y="0px"
	 viewBox="0 0 48 48" enable-background="new 0 0 48 48" xml:space="preserve">
<g>
	<path fill="#06728D" d="M12.1,29.2H11v-2.8H9v2.8H7.8c-1.3,0-2.3,1.1-2.3,2.5V45c0,1.4,1,2.5,2.3,2.5h4.3c1.3,0,2.3-1.1,2.3-2.5
		V31.7C14.4,30.3,13.4,29.2,12.1,29.2z"/>
	<path fill="#06728D" d="M40.2,29.2H39v-2.8h-2v2.8h-1.2c-1.3,0-2.3,1.1-2.3,2.5V45c0,1.4,1,2.5,2.3,2.5h4.3c1.3,0,2.3-1.1,2.3-2.5
		V31.7C42.5,30.3,41.5,29.2,40.2,29.2z"/>
	<path fill="#F7A93B" d="M24.1,0.5c-2.8,0-5,2.3-5,5c0,2.8,2.3,5,5,5c2.8,0,5-2.3,5-5C29.1,2.8,26.8,0.5,24.1,0.5z"/>
	<path fill="#0DB89A" d="M39.7,23l-8.4-8.9c-0.3-0.4-0.6-0.8-1-1.1c-0.6-0.6-1.4-1-2.3-1c-0.4-0.1-0.8-0.1-1.2-0.1h-5.2
		c-0.4,0-0.8,0-1.2,0.1c-0.9,0.1-1.7,0.4-2.3,1c-0.4,0.3-0.8,0.7-1,1.1L8.4,23c-0.6,0.6-0.9,1.4-0.8,2.2c0.1,0.8,0.6,1.6,1.4,2.1
		c1.4,0.9,3.6,0.7,4.7-0.5l2.4-2.5V29c0,0.1,0,0.3,0,0.4v15.1c0,1.7,1.6,3,3.5,3c1.9,0,3.5-1.3,3.5-3V32.3H25v12.2
		c0,1.7,1.6,3,3.5,3c1.9,0,3.5-1.3,3.5-3v-15c0-0.1,0-0.3,0-0.4v-4.7l2.4,2.5c1.1,1.2,3.3,1.4,4.7,0.5c0.8-0.5,1.3-1.3,1.4-2.1
		C40.6,24.4,40.3,23.6,39.7,23z"/>
</g>
</svg>
