<?xml version="1.0" encoding="utf-8"?>
<!-- Generator: Adobe Illustrator 18.0.0, SVG Export Plug-In . SVG Version: 6.00 Build 0)  -->
<!DOCTYPE svg PUBLIC "-//W3C//DTD SVG 1.1//EN" "http://www.w3.org/Graphics/SVG/1.1/DTD/svg11.dtd">
<svg version="1.1" id="Layer_1" xmlns="http://www.w3.org/2000/svg" xmlns:xlink="http://www.w3.org/1999/xlink" x="0px" y="0px"
	 viewBox="0 0 48 48" enable-background="new 0 0 48 48" xml:space="preserve">
<g>
	<path fill="#F04B36" d="M32.1,5.5c-3.5,0-6.4,2.5-6.9,5.8h13.8C38.5,8.1,35.6,5.5,32.1,5.5z"/>
	<path fill="#06728D" d="M41.8,10.1h-0.9c0.1,0.4,0.2,0.8,0.2,1.2h3.1L41.8,10.1z"/>
	<path fill="#0DB89A" d="M10.3,47.5h37.2v-34H10.3V47.5z M19.9,17.5c0,7.6,4.3,13.9,9.6,13.9c5.3,0,9.6-6.2,9.6-13.9h2.1
		c0,8.8-5.3,16-11.7,16c-6.5,0-11.7-7.2-11.7-16H19.9z"/>
	<polygon fill="#F7A93B" points="8.9,2.5 14.2,11.4 21.3,11.4 14.5,0.5 	"/>
	<polygon fill="#06728D" points="11.7,11.4 10.8,9.9 7.1,9.9 9.6,11.4 	"/>
	<polygon fill="#E77528" points="8.2,46.7 8.2,13 4.6,10.8 0.5,40.3 	"/>
</g>
</svg>
