<?xml version="1.0" encoding="utf-8"?>
<!-- Generator: Adobe Illustrator 18.0.0, SVG Export Plug-In . SVG Version: 6.00 Build 0)  -->
<!DOCTYPE svg PUBLIC "-//W3C//DTD SVG 1.1//EN" "http://www.w3.org/Graphics/SVG/1.1/DTD/svg11.dtd">
<svg version="1.1" id="Layer_1" xmlns="http://www.w3.org/2000/svg" xmlns:xlink="http://www.w3.org/1999/xlink" x="0px" y="0px"
	 viewBox="0 0 48 48" enable-background="new 0 0 48 48" xml:space="preserve">
<g>
	<path fill="#F04B36" d="M41.1,33.1h-5.1v-19h5.1c2.3,0,4.1,1.8,4.1,4.1V29C45.2,31.2,43.4,33.1,41.1,33.1z M38.1,31.1h3.1
		c1.2,0,2.1-0.9,2.1-2.1V18.2c0-1.2-0.9-2.1-2.1-2.1h-3.1V31.1z"/>
	<path fill="#06728D" d="M9.5,11.4v24.2c0,4.6,3.8,8.4,8.4,8.4h11.8c4.6,0,8.4-3.8,8.4-8.4V11.4H9.5z"/>
	<rect x="2.8" y="45.5" fill="#4DA0D8" width="42" height="2"/>
	<rect x="17.2" y="4.5" fill="#E77528" width="2" height="5.2"/>
	<rect x="22.8" y="0.5" fill="#E77528" width="2" height="9.2"/>
	<rect x="28.3" y="4.5" fill="#E77528" width="2" height="5.2"/>
</g>
</svg>
