<?xml version="1.0" encoding="utf-8"?>
<!-- Generator: Adobe Illustrator 18.0.0, SVG Export Plug-In . SVG Version: 6.00 Build 0)  -->
<!DOCTYPE svg PUBLIC "-//W3C//DTD SVG 1.1//EN" "http://www.w3.org/Graphics/SVG/1.1/DTD/svg11.dtd">
<svg version="1.1" id="Layer_1" xmlns="http://www.w3.org/2000/svg" xmlns:xlink="http://www.w3.org/1999/xlink" x="0px" y="0px"
	 viewBox="0 0 48 48" enable-background="new 0 0 48 48" xml:space="preserve">
<g>
	<path fill="#06728D" d="M30.3,15.4H17.7l-1.4,2.4c-0.2,0.3-0.3,0.7-0.3,1v9.7c0,0.6,0.2,1.1,0.6,1.5l0.4,0.4
		c0.2,0.2,0.3,0.5,0.3,0.8v3.2c0,0.3-0.1,0.6-0.3,0.8l-0.4,0.4c-0.4,0.4-0.6,0.9-0.6,1.5v8.4c0,1.1,0.9,2,2,2h11.7c1.1,0,2-0.9,2-2
		v-8.4c0-0.6-0.2-1.1-0.6-1.5l-0.4-0.4c-0.2-0.2-0.3-0.5-0.3-0.8v-3.2c0-0.3,0.1-0.6,0.3-0.8l0.4-0.4c0.4-0.4,0.6-0.9,0.6-1.5v-9.7
		c0-0.4-0.1-0.7-0.3-1L30.3,15.4z"/>
	<path fill="#F04B36" d="M28.2,5V3.1c0-1.4-1.2-2.6-2.6-2.6h-3.3c-1.4,0-2.6,1.2-2.6,2.6V5H28.2z"/>
	<path fill="#CFD0D1" d="M28.2,9.2V7h-8.5v2.3c0,0.3,0.2,0.5,0.5,0.5h0.5c-0.3,1.1-0.8,2-0.9,2.1l-1,1.6h10.2l-1-1.7
		c0,0-0.6-0.9-0.8-2.1h0.5C28,9.7,28.2,9.5,28.2,9.2z"/>
</g>
</svg>
