<?xml version="1.0" encoding="utf-8"?>
<!-- Generator: Adobe Illustrator 18.0.0, SVG Export Plug-In . SVG Version: 6.00 Build 0)  -->
<!DOCTYPE svg PUBLIC "-//W3C//DTD SVG 1.1//EN" "http://www.w3.org/Graphics/SVG/1.1/DTD/svg11.dtd">
<svg version="1.1" id="Layer_1" xmlns="http://www.w3.org/2000/svg" xmlns:xlink="http://www.w3.org/1999/xlink" x="0px" y="0px"
	 viewBox="0 0 48 48" enable-background="new 0 0 48 48" xml:space="preserve">
<g>
	<path fill="#F04B36" d="M24,0C10.8,0,0,10.8,0,24s10.8,24,24,24c13.2,0,24-10.8,24-24S37.2,0,24,0z M24,2c5.7,0,10.9,2.2,14.8,5.8
		L7.8,38.8C4.2,34.9,2,29.7,2,24C2,11.9,11.9,2,24,2z M24,46c-5.7,0-10.9-2.2-14.8-5.8L40.2,9.2C43.8,13.1,46,18.3,46,24
		C46,36.1,36.1,46,24,46z"/>
	<path fill="#F7A93B" d="M7.4,22.3c0.2,0.7,0.6,1.3,1,1.8c0.3,0.4,0.7,0.9,1.2,1.3c0.2,0.2,0.5,0.3,0.8,0.4c0,0.1,0,0.2,0,0.2
		c0,3,0,5.9-0.1,8.9l21.9-21.9c-0.3-0.9-0.8-1.8-1.5-2.5c-0.7,0.8-1,1.9-0.9,2.9c-1.9,0.2-3.2,2-4.1,3.7c-0.4,0.8-0.8,1.6-1.3,2.3
		C19.8,14.4,15,7.7,15,7.6l-1.6,1.1c0.3,0.4,5,7.1,9.8,12.2c-0.3,0.2-0.6,0.4-0.9,0.6C21.2,22,20,22,18.8,22c-1.4,0-2.7,0-4.1,0.1
		c-1.4,0-2.9,0.1-3.7,1.2c-0.1,0.1-0.2,0.3-0.3,0.5c-0.3-0.2-0.5-0.5-0.7-0.8c-0.3-0.4-0.6-0.8-0.7-1.2c-0.1-0.4-0.1-0.9-0.1-1.4
		c0-0.7,0-1.5,0.2-2c0.3-0.7,1.1-1.3,1.9-1.4l-0.2-2c-1.6,0.1-3,1.2-3.6,2.6c-0.4,1-0.4,2-0.4,2.8C7.2,20.9,7.2,21.6,7.4,22.3z"/>
	<path fill="#F7A93B" d="M11.2,39.6c1.2,0.1,2.4,0.1,3.6,0c0-1.2,0-2.4,0-3.6L11.2,39.6z"/>
	<path fill="#F7A93B" d="M38.3,20.5c-0.9-0.6-1.4-1.6-1.8-2.6c-0.3-0.8-0.6-1.7-1.1-2.5l-3.2,3.2c-0.1,0.3-0.4,0.5-0.7,0.7
		L19.2,31.6c1.4-0.1,2.9-0.2,4.3-0.3c0.9,2.7,1.7,5.4,2.6,8c0.1,0.2,0.1,0.3,0.3,0.4c0.1,0.1,0.2,0.1,0.4,0.1c0.8,0,1.6,0,2.3,0
		c0.3,0,0.6,0,0.7-0.3c0.1-0.1,0-0.3,0-0.5c-0.7-3.6-0.7-7.4-0.6-11c0-0.8,0-1.6,0.3-2.4l0.2-0.5c0.4-0.6,1-1.1,1.7-1.2
		c1-0.1,1.8,0.6,2.6,1.2c0.8,0.6,1.7,1.2,2.7,1c0.7-0.2,1.2-0.9,1.2-1.6c0-0.2-0.1-0.5,0.1-0.7c0.1-0.1,0.3-0.2,0.4-0.2
		c0.7-0.2,1.5-0.8,1.5-1.5C39.8,21.4,38.9,21,38.3,20.5z"/>
</g>
</svg>
