<?xml version="1.0" encoding="utf-8"?>
<!-- Generator: Adobe Illustrator 18.0.0, SVG Export Plug-In . SVG Version: 6.00 Build 0)  -->
<!DOCTYPE svg PUBLIC "-//W3C//DTD SVG 1.1//EN" "http://www.w3.org/Graphics/SVG/1.1/DTD/svg11.dtd">
<svg version="1.1" id="Layer_1" xmlns="http://www.w3.org/2000/svg" xmlns:xlink="http://www.w3.org/1999/xlink" x="0px" y="0px"
	 viewBox="0 0 48 48" enable-background="new 0 0 48 48" xml:space="preserve">
<g>
	<path fill="#F04B36" d="M11.6,0.5L10,1.7C10.6,2.5,24.6,23,32.6,26.9l0.8-1.8C25.9,21.4,11.7,0.7,11.6,0.5z"/>
	<path fill="#0DB89A" d="M45.2,19.2c-1.2-0.9-1.9-2.4-2.5-3.8c-0.6-1.4-1.1-2.9-2-4.2c-0.9-1.2-2.4-2.2-3.9-2.1
		c-0.2-1.8-1.1-3.5-2.4-4.6c-1,1.2-1.4,2.8-1.4,4.3c-2.7,0.3-4.6,3-5.8,5.4c-0.3,0.6-0.7,1.3-1,1.9c3,3.3,5.9,6.1,8.1,7.1l1.8,0.9
		L36,24.3c1.2,0.1,2.2,1,3.2,1.8c1.1,0.9,2.5,1.8,3.8,1.4c1-0.3,1.7-1.3,1.7-2.3c0-0.3-0.1-0.7,0.1-1c0.1-0.2,0.4-0.2,0.6-0.3
		c1-0.4,2.2-1.1,2.1-2.2C47.4,20.4,46.1,19.9,45.2,19.2z M34.6,17.6c-1.2,0-2.2-1-2.2-2.2c0-1.2,1-2.2,2.2-2.2c1.2,0,2.2,1,2.2,2.2
		C36.8,16.7,35.8,17.6,34.6,17.6z"/>
	<path fill="#0DB89A" d="M32.2,30.2c0-0.4,0-0.9,0.1-1.3l-0.5-0.2c-2.8-1.4-6.2-4.5-9.5-8.1c-1.5,0.7-3.2,0.8-4.8,0.8
		c-2,0-3.9,0.1-5.9,0.1c-1.8,0-3.7,0.2-5,1.4c-0.3,0-0.6,0-1-0.2c-0.4-0.2-0.8-0.6-1.2-1c-0.5-0.5-0.9-1-1.1-1.5
		c-0.2-0.5-0.2-1.1-0.2-1.7c0-0.9,0-1.8,0.3-2.5c0.5-1,1.8-1.7,3.1-1.8l-0.2-2c-2.3,0.2-4.4,1.4-5.3,3c-0.6,1.1-0.6,2.3-0.5,3.3
		c0,0.7,0,1.5,0.4,2.3c0.3,0.8,0.9,1.5,1.5,2.1c0.5,0.5,1.1,1.1,1.8,1.5c0.4,0.2,0.9,0.4,1.4,0.5c-0.2,0.8-0.2,1.6-0.2,2.4
		c0,6.6-0.1,13.2-0.1,19.8c2.2,0.3,4.4,0.3,6.5,0.1c0-3.9,0-7.8-0.1-11.7c4.1,0.1,8.3-0.1,12.4-0.5c1.2,3.9,2.5,7.8,3.7,11.8
		c0.1,0.2,0.2,0.5,0.4,0.6c0.2,0.1,0.4,0.1,0.5,0.1c1.1,0,2.2,0,3.3,0c0.4,0,0.8-0.1,1-0.4c0.1-0.2,0.1-0.4,0-0.7
		C32.1,41.1,32.1,35.6,32.2,30.2z"/>
</g>
</svg>
