<?xml version="1.0" encoding="utf-8"?>
<!-- Generator: Adobe Illustrator 18.0.0, SVG Export Plug-In . SVG Version: 6.00 Build 0)  -->
<!DOCTYPE svg PUBLIC "-//W3C//DTD SVG 1.1//EN" "http://www.w3.org/Graphics/SVG/1.1/DTD/svg11.dtd">
<svg version="1.1" id="Layer_1" xmlns="http://www.w3.org/2000/svg" xmlns:xlink="http://www.w3.org/1999/xlink" x="0px" y="0px"
	 viewBox="0 0 48 48" enable-background="new 0 0 48 48" xml:space="preserve">
<g>
	<path fill="#F7A93B" d="M42.1,0.5H5.9c-3,0-5.4,2.4-5.4,5.4V23h47V5.9C47.5,2.9,45.1,0.5,42.1,0.5z M13.5,20.6
		c0,0.8-0.6,1.4-1.4,1.4H7.8c-0.8,0-1.4-0.6-1.4-1.4v-7.1c0-1.5,1.1-2.8,2.5-3.2V3.6h2v6.7c1.4,0.3,2.5,1.6,2.5,3.2V20.6z
		 M24.1,20.6c0,0.8-0.6,1.4-1.4,1.4h-4.3c-0.8,0-1.4-0.6-1.4-1.4v-7.1c0-1.5,1.1-2.8,2.5-3.2V3.6h2v6.7c1.4,0.3,2.5,1.6,2.5,3.2
		V20.6z M34.6,20.6c0,0.8-0.6,1.4-1.4,1.4h-4.3c-0.8,0-1.4-0.6-1.4-1.4v-7.1c0-1.5,1.1-2.8,2.5-3.2V3.6h2v6.7
		c1.4,0.3,2.5,1.6,2.5,3.2V20.6z"/>
	<path fill="#4DA0D8" d="M0.5,25v17.1c0,3,2.4,5.4,5.4,5.4h36.2c3,0,5.4-2.4,5.4-5.4V25H0.5z M12.3,44.1c0,0.8-0.6,1.4-1.4,1.4H6.6
		c-0.8,0-1.4-0.6-1.4-1.4V37c0-1.5,1.1-2.8,2.5-3.2v-6.7h2v6.7c1.4,0.3,2.5,1.6,2.5,3.2V44.1z M22.5,44.1c0,0.8-0.6,1.4-1.4,1.4
		h-4.3c-0.8,0-1.4-0.6-1.4-1.4V37c0-1.5,1.1-2.8,2.5-3.2v-6.7h2v6.7c1.4,0.3,2.5,1.6,2.5,3.2V44.1z M32.6,44.1
		c0,0.8-0.6,1.4-1.4,1.4h-4.3c-0.8,0-1.4-0.6-1.4-1.4V37c0-1.5,1.1-2.8,2.5-3.2v-6.7h2v6.7c1.4,0.3,2.5,1.6,2.5,3.2V44.1z
		 M42.8,44.1c0,0.8-0.6,1.4-1.4,1.4h-4.3c-0.8,0-1.4-0.6-1.4-1.4V37c0-1.5,1.1-2.8,2.5-3.2v-6.7h2v6.7c1.4,0.3,2.5,1.6,2.5,3.2V44.1
		z"/>
</g>
</svg>
