<?xml version="1.0" encoding="utf-8"?>
<!-- Generator: Adobe Illustrator 18.0.0, SVG Export Plug-In . SVG Version: 6.00 Build 0)  -->
<!DOCTYPE svg PUBLIC "-//W3C//DTD SVG 1.1//EN" "http://www.w3.org/Graphics/SVG/1.1/DTD/svg11.dtd">
<svg version="1.1" id="Layer_1" xmlns="http://www.w3.org/2000/svg" xmlns:xlink="http://www.w3.org/1999/xlink" x="0px" y="0px"
	 viewBox="0 0 48 48" enable-background="new 0 0 48 48" xml:space="preserve">
<g>
	<rect x="0.5" y="29.7" fill="#06728D" width="32.7" height="6"/>
	<path fill="#0DB89A" d="M17.8,12.2l-2,0c0-0.2,0.1-6,5.2-9.4c5.5-3.6,14.4-3,26.4,2l-0.8,1.8C35.5,2,27,1.3,22.2,4.5
		C18,7.2,17.8,12,17.8,12.2z"/>
	<circle fill="#294E58" cx="8.2" cy="40.3" r="1.5"/>
	<circle fill="#294E58" cx="16.8" cy="40.3" r="1.5"/>
	<circle fill="#294E58" cx="25.5" cy="40.3" r="1.5"/>
	<circle fill="#294E58" cx="12.5" cy="46.1" r="1.5"/>
	<circle fill="#294E58" cx="21.2" cy="46.1" r="1.5"/>
	<path fill="#F04B36" d="M33.1,28.9l0-1.4c0-9-7.3-16.3-16.3-16.3S0.5,18.5,0.5,27.5l0,1.4H33.1z"/>
</g>
</svg>
