<?xml version="1.0" encoding="utf-8"?>
<!-- Generator: Adobe Illustrator 18.0.0, SVG Export Plug-In . SVG Version: 6.00 Build 0)  -->
<!DOCTYPE svg PUBLIC "-//W3C//DTD SVG 1.1//EN" "http://www.w3.org/Graphics/SVG/1.1/DTD/svg11.dtd">
<svg version="1.1" id="Layer_1" xmlns="http://www.w3.org/2000/svg" xmlns:xlink="http://www.w3.org/1999/xlink" x="0px" y="0px"
	 viewBox="0 0 48 48" enable-background="new 0 0 48 48" xml:space="preserve">
<g>
	<path fill="#0DB89A" d="M45.4,4.6c-2-2.6-4.9-4.1-8.2-4.1c-2.3,0-4.4,0.7-6.2,2.1c-4.5,3.4-5.4,9.9-2,14.4c2,2.6,4.9,4.1,8.2,4.1
		c2.3,0,4.4-0.7,6.2-2.1C48,15.5,48.8,9.1,45.4,4.6z"/>
	<path fill="#4DA0D8" d="M32.3,39.3c-1.9-0.3-4.1-0.6-6.2-0.2c-2.3,0.5-4.3,1.7-6.2,2.8c-0.6,0.4-1.2,0.7-1.8,1
		c-2.5,1.4-4.8,2.2-7.1,2.4c-2.6,0.2-5-0.4-6.9-1.7c-0.6-0.5-1.1-1-1.3-1.5c-0.6-1.2-0.3-2.8,1-4.9l-1.3-1.8c-1,1.5-2.9,4.7-1.5,7.5
		c0.4,0.8,1,1.5,2,2.2c1.9,1.4,4.4,2.2,7,2.2c0.4,0,0.8,0,1.2-0.1c2.5-0.2,5.1-1.1,7.9-2.7c0.6-0.3,1.2-0.7,1.8-1.1
		c1.9-1.1,3.6-2.2,5.6-2.6c1.7-0.3,3.4-0.2,5.5,0.2c4.2,0.7,6.7,2.1,7.6,4.3l1.9-0.8C40.3,41.9,37.3,40.1,32.3,39.3z"/>
	<path fill="#E77528" d="M33.8,22.6c-2.5-0.7-4.7-2.2-6.4-4.4c-1.7-2.2-2.5-4.8-2.5-7.3L3,32.8L6.9,38L33.8,22.6z"/>
</g>
</svg>
