<?xml version="1.0" encoding="utf-8"?>
<!-- Generator: Adobe Illustrator 18.0.0, SVG Export Plug-In . SVG Version: 6.00 Build 0)  -->
<!DOCTYPE svg PUBLIC "-//W3C//DTD SVG 1.1//EN" "http://www.w3.org/Graphics/SVG/1.1/DTD/svg11.dtd">
<svg version="1.1" id="Layer_1" xmlns="http://www.w3.org/2000/svg" xmlns:xlink="http://www.w3.org/1999/xlink" x="0px" y="0px"
	 viewBox="0 0 48 48" enable-background="new 0 0 48 48" xml:space="preserve">
<g>
	<rect x="0.5" y="39" fill="#F7A93B" width="47" height="8.5"/>
	<path fill="#F04B36" d="M24,9.6c2.4,0,4.3-2,4.3-4.6c0-2.5-1.9-4.6-4.3-4.6c-2.4,0-4.3,2-4.3,4.6C19.7,7.6,21.6,9.6,24,9.6z"/>
	<path fill="#4DA0D8" d="M1.6,36.3h44.8l0.1-1.3c0-0.3,0-0.6,0-1C46.5,21,36.4,10.3,24,10.3C11.6,10.3,1.5,21,1.5,34
		c0,0.3,0,0.6,0,0.9L1.6,36.3z M21,15.7l0.3,2c-7.3,1.4-10.9,9.7-10.9,9.8l-1.8-0.8C8.8,26.3,12.7,17.3,21,15.7z"/>
</g>
</svg>
