<?xml version="1.0" encoding="utf-8"?>
<!-- Generator: Adobe Illustrator 18.0.0, SVG Export Plug-In . SVG Version: 6.00 Build 0)  -->
<!DOCTYPE svg PUBLIC "-//W3C//DTD SVG 1.1//EN" "http://www.w3.org/Graphics/SVG/1.1/DTD/svg11.dtd">
<svg version="1.1" id="Layer_1" xmlns="http://www.w3.org/2000/svg" xmlns:xlink="http://www.w3.org/1999/xlink" x="0px" y="0px"
	 viewBox="0 0 48 48" enable-background="new 0 0 48 48" xml:space="preserve">
<g>
	<polygon fill="#F04B36" points="27.3,20.8 14,2.9 9.9,4.4 9.2,2.6 14.7,0.5 28.9,19.6 	"/>
	<path fill="#F7A93B" d="M31.8,1.6c-3.6,0-6.6,2.7-7,6.2l-0.1,1.1L31.1,9l1.3,6.8l1-0.2c3.2-0.8,5.4-3.6,5.4-6.9
		C38.8,4.8,35.7,1.6,31.8,1.6z"/>
	<rect x="22.1" y="37.3" fill="#06728D" width="1.9" height="9.2"/>
	<rect x="18.1" y="45.6" fill="#06728D" width="10" height="1.9"/>
	<path fill="#0DB89A" d="M36.1,26.6L36.1,26.6l0-0.1c0-1-0.4-3.5-0.9-6.4L35,19.2h0c-0.9-5.1-2.1-10.9-2.2-11.3l-0.2-0.8H13.5
		l-0.2,0.8c-0.1,0.4-1.3,6.2-2.2,11.3h0L11,20.1c-0.5,2.9-0.9,5.4-0.9,6.4l0,0l0,0.1c0,0,0,0,0,0.1c0,3.1,1.2,6,3,8.2
		c1.9,2.5,5,4.7,9.9,4.7c5,0,8.1-2.1,9.9-4.7C34.9,32.7,36,29.8,36.1,26.6C36.1,26.7,36.1,26.6,36.1,26.6z M15.1,9h16
		c0.5,2.5,1.3,6.6,1.9,10.2H13.2C13.8,15.6,14.6,11.6,15.1,9z"/>
</g>
</svg>
