<?xml version="1.0" encoding="utf-8"?>
<!-- Generator: Adobe Illustrator 18.0.0, SVG Export Plug-In . SVG Version: 6.00 Build 0)  -->
<!DOCTYPE svg PUBLIC "-//W3C//DTD SVG 1.1//EN" "http://www.w3.org/Graphics/SVG/1.1/DTD/svg11.dtd">
<svg version="1.1" id="Layer_1" xmlns="http://www.w3.org/2000/svg" xmlns:xlink="http://www.w3.org/1999/xlink" x="0px" y="0px"
	 viewBox="0 0 48 48" enable-background="new 0 0 48 48" xml:space="preserve">
<g>
	<polygon fill="#F04B36" points="4.3,37 6.4,37.2 6.5,35.1 4.5,34.9 	"/>
	<polygon fill="#F04B36" points="3.5,37.5 1.3,36.6 0.5,38.5 2.7,39.4 	"/>
	<polygon fill="#F04B36" points="9.5,40.6 8.4,38.9 7.1,39.7 8.2,41.4 	"/>
	<path fill="#F04B36" d="M1.8,42.7c0.2,0.1,1.5,0.7,1.5,0.7l0.9-1.8c0,0-1.3-0.7-1.6-0.8L1.8,42.7z"/>
	<polygon fill="#F04B36" points="7.5,45.3 9.9,46.3 10.6,44.4 8.3,43.4 	"/>
	<polygon fill="#F04B36" points="11.9,40.4 13.6,41.6 14.8,39.9 13,38.8 	"/>
	<path fill="#F04B36" d="M1.3,45.5l-0.1,2c0,0,0.1,0,0.1,0c0.5,0,1.3-0.2,1.7-0.4l-0.7-1.9C1.9,45.3,1.4,45.5,1.3,45.5z"/>
	<path fill="#0DB89A" d="M37.8,26.1l8.4-7c0.1,0,0.1-0.1,0.2-0.2l-29.9-2.5l-1.9,2.6c-0.7,1-0.8,2.2-0.2,2.9l4.2,5l4.2,5
		c0.6,0.7,1.8,0.8,2.9,0.3L37,26.6C37.3,26.5,37.6,26.3,37.8,26.1z"/>
	<polygon fill="#06728D" points="21.2,33.2 21.2,33.1 21.2,33.1 18.4,29.8 12.7,23.2 8.5,26.7 17,36.6 	"/>
	<path fill="#CFD0D1" d="M47.5,16.9c0-0.4,0-0.9-0.4-1.3L34.7,1.1c-0.3-0.4-0.9-0.6-1.5-0.6c-0.7,0-1.5,0.3-2.2,0.9l-8.4,7
		C22.4,8.5,22.2,8.8,22,9l-4,5.5L47.5,16.9C47.5,17,47.5,17,47.5,16.9z"/>
</g>
</svg>
