<?xml version="1.0" encoding="utf-8"?>
<!-- Generator: Adobe Illustrator 18.0.0, SVG Export Plug-In . SVG Version: 6.00 Build 0)  -->
<!DOCTYPE svg PUBLIC "-//W3C//DTD SVG 1.1//EN" "http://www.w3.org/Graphics/SVG/1.1/DTD/svg11.dtd">
<svg version="1.1" id="Layer_1" xmlns="http://www.w3.org/2000/svg" xmlns:xlink="http://www.w3.org/1999/xlink" x="0px" y="0px"
	 viewBox="0 0 48 48" enable-background="new 0 0 48 48" xml:space="preserve">
<g>
	<path fill="#06728D" d="M41.4,25.4v-0.9c0-1.6-1.2-2.9-2.8-2.9H9.3c-1.5,0-2.8,1.3-2.8,2.9v0.9H41.4z"/>
	<path fill="#06728D" d="M6.6,31.5v13.1c0,1.6,1.2,2.9,2.8,2.9h29.4c1.5,0,2.8-1.3,2.8-2.9V31.5H6.6z"/>
	<path fill="#F04B36" d="M47.5,32.1h-2v-2.6H2.5v2.6h-2v-3.6c0-0.6,0.4-1,1-1h45c0.5,0,1,0.5,1,1V32.1z"/>
	<rect x="29.8" y="6.1" fill="#F7A93B" width="2" height="7.7"/>
	<rect x="23" y="0.5" fill="#F7A93B" width="2" height="13.2"/>
	<rect x="16.3" y="6.1" fill="#F7A93B" width="2" height="7.7"/>
	<path fill="#E77528" d="M29,21.6c-0.2-2.8-2.3-5-5-5c-2.7,0-4.9,2.2-5,5H29z"/>
</g>
</svg>
