<?xml version="1.0" encoding="utf-8"?>
<!-- Generator: Adobe Illustrator 18.0.0, SVG Export Plug-In . SVG Version: 6.00 Build 0)  -->
<!DOCTYPE svg PUBLIC "-//W3C//DTD SVG 1.1//EN" "http://www.w3.org/Graphics/SVG/1.1/DTD/svg11.dtd">
<svg version="1.1" id="Layer_1" xmlns="http://www.w3.org/2000/svg" xmlns:xlink="http://www.w3.org/1999/xlink" x="0px" y="0px"
	 viewBox="0 0 48 48" enable-background="new 0 0 48 48" xml:space="preserve">
<g>
	<ellipse fill="#06728D" cx="14" cy="6.3" rx="5.4" ry="5.8"/>
	<path fill="#0DB89A" d="M35.5,20.1l-5.1-0.1l-4.2,2.7L21.9,16c0,0-1.5-1.3-7.8-1.3c-6.4,0-7.8,1.3-7.8,1.3L0.5,31.3h4.7l2.7-6.9
		v6.9H14h6.1v-8.6l4.9,5.1L35.5,20.1z"/>
	<path fill="#E77528" d="M45.5,13.7l-0.4,1.4c-1.3,0.4-4.6,0.9-9.7,0.9c-5,0-8.2-0.5-9.5-0.8l-0.4-1.5c-0.6,0.2-2.1,0.6-2.1,1.8
		c0,1.7,4,2.6,12,2.6c8,0,12-0.9,12-2.6C47.5,14.3,46.1,13.9,45.5,13.7z"/>
	<path fill="#F04B36" d="M4.9,46.2l0.7-0.7c1.9-2,3.2-3.5,3.2-5.4c0-1.4-0.8-2.9-2.8-2.9c-1.1,0-2,0.4-2.6,1l0.4,1
		c0.4-0.4,1.1-0.8,2-0.8c1.4,0,1.8,0.9,1.8,1.9c0,1.5-1.1,2.8-3.4,5.2l-1,1v0.8H9v-1.1L4.9,46.2L4.9,46.2z"/>
	<path fill="#F04B36" d="M15.5,37.4h-1.4L10,43.7v0.9h4.3v2.7h1.2v-2.7h1.3v-1.1h-1.3V37.4z M14.3,40.2v3.3h-3v0l2.3-3.4
		c0.3-0.5,0.5-0.9,0.8-1.5h0C14.3,39.2,14.3,39.7,14.3,40.2z"/>
	<polygon fill="#F04B36" points="27.1,41.3 22.4,41.3 22.4,37 21.2,37 21.2,47.3 22.4,47.3 22.4,42.5 27.1,42.5 27.1,47.3 
		28.3,47.3 28.3,37 27.1,37 	"/>
	<path fill="#F04B36" d="M34.5,42.4L34.5,42.4c1-0.4,1.8-1.3,1.8-2.7c0-0.8-0.3-1.5-0.8-2c-0.6-0.6-1.4-0.8-2.8-0.8
		c-0.9,0-1.7,0.1-2.4,0.2v10.2h1.2v-4.5h1.2c1.1,0,1.6,0.6,1.9,2c0.3,1.3,0.5,2.2,0.6,2.5h1.3c-0.2-0.4-0.4-1.4-0.7-2.8
		C35.7,43.4,35.3,42.7,34.5,42.4z M33,41.9h-1.3v-3.8c0.2-0.1,0.6-0.1,1.2-0.1c1.3,0,2.2,0.6,2.2,1.9C35.1,41.1,34.3,41.9,33,41.9z"
		/>
	<path fill="#F04B36" d="M41,41.5c-1.3-0.6-1.9-1-1.9-2c0-0.7,0.5-1.5,1.8-1.5c0.9,0,1.5,0.3,1.8,0.5l0.3-1.1
		c-0.4-0.3-1.1-0.5-2.1-0.5c-1.9,0-3.1,1.2-3.1,2.8c0,1.5,1,2.3,2.5,2.9c1.3,0.5,1.8,1.1,1.8,2.1c0,1-0.7,1.8-2,1.8
		c-0.9,0-1.7-0.3-2.2-0.7l-0.3,1.1c0.5,0.4,1.5,0.7,2.4,0.7c2.3,0,3.4-1.4,3.4-3C43.4,43,42.6,42.2,41,41.5z"/>
</g>
</svg>
