<?xml version="1.0" encoding="utf-8"?>
<!-- Generator: Adobe Illustrator 18.0.0, SVG Export Plug-In . SVG Version: 6.00 Build 0)  -->
<!DOCTYPE svg PUBLIC "-//W3C//DTD SVG 1.1//EN" "http://www.w3.org/Graphics/SVG/1.1/DTD/svg11.dtd">
<svg version="1.1" id="Layer_1" xmlns="http://www.w3.org/2000/svg" xmlns:xlink="http://www.w3.org/1999/xlink" x="0px" y="0px"
	 viewBox="0 0 48 48" enable-background="new 0 0 48 48" xml:space="preserve">
<g>
	<path fill="#4DA0D8" d="M47.5,33.3l0-19.7C41.2,7.9,32.9,4.8,24,4.8c-8.9,0-17.2,3.1-23.5,8.8v19.7h2.4v-8.5h0h2.3v-2
		c0-3.2,2.6-5.7,5.7-5.7h5.9c3.2,0,5.7,2.6,5.7,5.7v2h2.7v-2c0-3.2,2.6-5.7,5.7-5.7H37c3.2,0,5.7,2.6,5.7,5.7v2h2.3h0v8.5H47.5z"/>
	<polygon fill="#0DB89A" points="42.9,26.9 42.8,26.9 25.4,26.9 22.6,26.9 5.2,26.9 5.1,26.9 5.1,37.4 42.9,37.4 	"/>
	<path fill="#E77528" d="M31.1,19.2c-2,0-3.6,1.6-3.6,3.6v2h13.1v-2c0-2-1.6-3.6-3.6-3.6H31.1z"/>
	<rect x="39.2" y="39.5" fill="#F04B36" width="2.1" height="3.7"/>
	<rect x="6.7" y="39.5" fill="#F04B36" width="2.1" height="3.7"/>
	<path fill="#E77528" d="M11,19.2c-2,0-3.6,1.6-3.6,3.6v2h13.1v-2c0-2-1.6-3.6-3.6-3.6H11z"/>
</g>
</svg>
