<?xml version="1.0" encoding="utf-8"?>
<!-- Generator: Adobe Illustrator 18.0.0, SVG Export Plug-In . SVG Version: 6.00 Build 0)  -->
<!DOCTYPE svg PUBLIC "-//W3C//DTD SVG 1.1//EN" "http://www.w3.org/Graphics/SVG/1.1/DTD/svg11.dtd">
<svg version="1.1" id="Layer_1" xmlns="http://www.w3.org/2000/svg" xmlns:xlink="http://www.w3.org/1999/xlink" x="0px" y="0px"
	 viewBox="0 0 48 48" enable-background="new 0 0 48 48" xml:space="preserve">
<g>
	<rect x="0.5" y="45.5" fill="#F04B36" width="47" height="2"/>
	<rect x="31.6" y="15" fill="#0DB89A" width="12" height="27.1"/>
	<path fill="#06728D" d="M43.7,0.5H4.3V13h39.3V0.5z M9.5,12.8L5.4,3.4l1.9-0.8l4.1,9.4L9.5,12.8z M12.8,12.8L8.7,3.4l1.9-0.8
		l4.1,9.4L12.8,12.8z M16.1,12.8L12,3.4l1.9-0.8l4.1,9.4L16.1,12.8z M19.4,12.8l-4.1-9.4l1.9-0.8l4.1,9.4L19.4,12.8z M22.8,12.8
		l-4.1-9.4l1.9-0.8l4.1,9.4L22.8,12.8z"/>
	<polygon fill="#E8E9E5" points="5.4,17 7.3,16.2 11.4,25.6 9.5,26.4 12.8,26.4 8.7,17 10.6,16.2 14.7,25.6 12.9,26.4 16.1,26.4 
		12,17 13.9,16.2 18,25.6 16.2,26.4 29.6,26.4 29.6,15 4.3,15 4.3,26.4 9.5,26.4 	"/>
	<path fill="#E77528" d="M29.6,28.4H4.3v13.7h25.3V28.4z M9.9,40.9l-4.1-9.4l1.9-0.8l4.1,9.4L9.9,40.9z"/>
</g>
</svg>
