<?xml version="1.0" encoding="utf-8"?>
<!-- Generator: Adobe Illustrator 18.0.0, SVG Export Plug-In . SVG Version: 6.00 Build 0)  -->
<!DOCTYPE svg PUBLIC "-//W3C//DTD SVG 1.1//EN" "http://www.w3.org/Graphics/SVG/1.1/DTD/svg11.dtd">
<svg version="1.1" id="Layer_1" xmlns="http://www.w3.org/2000/svg" xmlns:xlink="http://www.w3.org/1999/xlink" x="0px" y="0px"
	 viewBox="0 0 48 48" enable-background="new 0 0 48 48" xml:space="preserve">
<g>
	<path fill="#06728D" d="M26.5,12.8C25.9,2.8,24.2,1,22.8,0.6c-2-0.5-3.4,1.9-3.6,2.2L21,4c0.4-0.7,1-1.3,1.2-1.2
		c0.1,0,1.6,0.6,2.1,9.9c-0.1,0-0.2,0-0.4,0c-15.2,0-23.5,2.8-23.5,4.2l0,0c0,1.4,8.3,4.2,23.5,4.2c15.2,0,23.5-2.8,23.5-4.2
		C47.5,15.6,40.1,13.1,26.5,12.8z"/>
	<path fill="#0DB89A" d="M24,30.6c-1.7,0-3.4-0.1-5-0.3v17.2h10V30.3C27.4,30.5,25.7,30.6,24,30.6z"/>
	<path fill="#CFD0D1" d="M46.5,20.1c-5.3,2.3-16,3-22.5,3c-6.5,0-17.3-0.7-22.6-3c2.9,4.8,12,8.4,22.6,8.4
		C34.5,28.6,43.6,24.9,46.5,20.1z"/>
</g>
</svg>
