<?xml version="1.0" encoding="utf-8"?>
<!-- Generator: Adobe Illustrator 18.0.0, SVG Export Plug-In . SVG Version: 6.00 Build 0)  -->
<!DOCTYPE svg PUBLIC "-//W3C//DTD SVG 1.1//EN" "http://www.w3.org/Graphics/SVG/1.1/DTD/svg11.dtd">
<svg version="1.1" id="Layer_1" xmlns="http://www.w3.org/2000/svg" xmlns:xlink="http://www.w3.org/1999/xlink" x="0px" y="0px"
	 viewBox="0 0 48 48" enable-background="new 0 0 48 48" xml:space="preserve">
<g>
	<path fill="#E77528" d="M36.9,9C36,9,35,9.1,34.1,9.4C33,4.2,28.8,0.5,23.8,0.5c-4.9,0-9.2,3.7-10.3,8.8C12.7,9.1,11.9,9,11.1,9
		C5.2,9,0.5,14.1,0.5,20.4c0,6,4.3,11,9.8,11.4v15.7h27.4V31.8c5.5-0.4,9.8-5.4,9.8-11.4C47.5,14.1,42.8,9,36.9,9z M7.5,21.7h-2
		c0-2.6,1.5-7.6,7-7.7l0,2C7.5,16.1,7.5,21.5,7.5,21.7z M17.2,42.1h-2v-9.6h2V42.1z"/>
</g>
</svg>
