<?xml version="1.0" encoding="utf-8"?>
<!-- Generator: Adobe Illustrator 18.0.0, SVG Export Plug-In . SVG Version: 6.00 Build 0)  -->
<!DOCTYPE svg PUBLIC "-//W3C//DTD SVG 1.1//EN" "http://www.w3.org/Graphics/SVG/1.1/DTD/svg11.dtd">
<svg version="1.1" id="Layer_1" xmlns="http://www.w3.org/2000/svg" xmlns:xlink="http://www.w3.org/1999/xlink" x="0px" y="0px"
	 viewBox="0 0 48 48" enable-background="new 0 0 48 48" xml:space="preserve">
<g>
	<circle fill="#0DB89A" cx="24" cy="4.4" r="3.9"/>
	<path fill="#0DB89A" d="M30.2,12.3c0,0-0.5-1.4-6.2-1.4c-5.7,0-6.2,1.4-6.2,1.4l-4,9.5h3.5l2.2-3.9v3.9H24h4.6v-3.9l2.2,3.9h3.5
		L30.2,12.3z"/>
	<rect x="10.7" y="20.8" fill="#CFD0D1" width="26.6" height="2"/>
	<rect x="10.7" y="45.5" fill="#CFD0D1" width="26.6" height="2"/>
	<path fill="#E77528" d="M27.5,28.6h-7c-0.5,1.3-1.6,2.4-2.9,2.8v5.4c1.3,0.4,2.4,1.5,2.9,2.8h7c0.5-1.3,1.6-2.4,2.9-2.8v-5.4
		C29.1,31,28,29.9,27.5,28.6z"/>
	<path fill="#06728D" d="M12.1,23.6v21.1h23.7V23.6H12.1z M32.4,38.5l-0.9,0.1c-1.2,0.1-2.1,1-2.3,2.2l-0.1,0.9H18.8l-0.1-0.9
		c-0.2-1.2-1.1-2.1-2.3-2.2l-0.9-0.1v-8.8l0.9-0.1c1.2-0.1,2.1-1,2.3-2.2l0.1-0.9h10.3l0.1,0.9c0.2,1.2,1.1,2.1,2.3,2.2l0.9,0.1
		V38.5z"/>
</g>
</svg>
