<?xml version="1.0" encoding="utf-8"?>
<!-- Generator: Adobe Illustrator 18.0.0, SVG Export Plug-In . SVG Version: 6.00 Build 0)  -->
<!DOCTYPE svg PUBLIC "-//W3C//DTD SVG 1.1//EN" "http://www.w3.org/Graphics/SVG/1.1/DTD/svg11.dtd">
<svg version="1.1" id="Layer_1" xmlns="http://www.w3.org/2000/svg" xmlns:xlink="http://www.w3.org/1999/xlink" x="0px" y="0px"
	 viewBox="0 0 48 48" enable-background="new 0 0 48 48" xml:space="preserve">
<g>
	<path fill="#F7A93B" d="M16.7,19.3c-8.1,0-14.9,5.6-16.1,13h32.2C31.6,24.9,24.8,19.3,16.7,19.3z M9.5,27.9l-1.2-1.7l1.9-1.3
		l1.2,1.7L9.5,27.9z M17.8,28.1h-2.1v-3.4h2.1V28.1z M22,26.5l-2.4-2.1l1.4-1.5l2.4,2.1L22,26.5z"/>
	<path fill="#0DB89A" d="M35.1,37.8v4.9c0,0.8-0.2,1.6-0.4,2.3h9.6l3.3-33.7h-21l0.9,9.2c4.3,2.9,7.3,7.5,7.7,12.8l0.1,1.1
		L35.1,37.8z"/>
	<polygon fill="#F04B36" points="40.6,9.2 45.4,1.6 43.6,0.5 38.1,9.2 	"/>
	<path fill="#E77528" d="M5.5,47.5h22.4c2.8,0,5-2.2,5-4.8v-2.8H0.5v2.8C0.5,45.3,2.7,47.5,5.5,47.5z"/>
</g>
</svg>
