<?xml version="1.0" encoding="utf-8"?>
<!-- Generator: Adobe Illustrator 18.0.0, SVG Export Plug-In . SVG Version: 6.00 Build 0)  -->
<!DOCTYPE svg PUBLIC "-//W3C//DTD SVG 1.1//EN" "http://www.w3.org/Graphics/SVG/1.1/DTD/svg11.dtd">
<svg version="1.1" id="Layer_1" xmlns="http://www.w3.org/2000/svg" xmlns:xlink="http://www.w3.org/1999/xlink" x="0px" y="0px"
	 viewBox="0 0 48 48" enable-background="new 0 0 48 48" xml:space="preserve">
<g>
	<path fill="#CFD0D1" d="M37.6,19.1c0-3.4-2.3-6.2-5-6.2s-5,2.8-5,6.2s2.3,6.2,5,6.2S37.6,22.5,37.6,19.1z"/>
	<path fill="#06728D" d="M24,0.5C11,0.5,0.5,11,0.5,24c0,9.8,6,18.2,14.5,21.7V24.2c-2.4-0.5-4.3-2.7-4.3-5.3v-7.5h2v7.5
		c0,1.5,0.9,2.7,2.2,3.2V11.3h2V22c1.3-0.4,2.2-1.7,2.2-3.2v-7.5h2v7.5c0,2.6-1.8,4.8-4.3,5.3v22.3c2.2,0.7,4.6,1.1,7,1.1
		c2.6,0,5.2-0.4,7.6-1.3v-19c-3.4-0.6-6-4-6-8.1c0-4.5,3.2-8.2,7.1-8.2c3.9,0,7.1,3.7,7.1,8.2c0,4.1-2.6,7.5-6,8.1v18.2
		c8.2-3.7,13.9-11.9,13.9-21.4C47.5,11,37,0.5,24,0.5z"/>
</g>
</svg>
