<?xml version="1.0" encoding="utf-8"?>
<!-- Generator: Adobe Illustrator 18.0.0, SVG Export Plug-In . SVG Version: 6.00 Build 0)  -->
<!DOCTYPE svg PUBLIC "-//W3C//DTD SVG 1.1//EN" "http://www.w3.org/Graphics/SVG/1.1/DTD/svg11.dtd">
<svg version="1.1" id="Layer_1" xmlns="http://www.w3.org/2000/svg" xmlns:xlink="http://www.w3.org/1999/xlink" x="0px" y="0px"
	 viewBox="0 0 48 48" enable-background="new 0 0 48 48" xml:space="preserve">
<g>
	<rect x="10.8" y="0.5" fill="#F04B36" width="26.4" height="2"/>
	<path fill="#E77528" d="M23.9,27l-3.5-4.3c-0.3-0.4-0.7-0.9-0.9-1.4c-0.2-0.5-0.2-1-0.2-1.5c-1.7,1.5-2.8,3.7-2.8,6.2
		c0,4.4,3.3,8,7.5,8c0.9,0,1.8-0.2,2.7-0.5c0.2-1.2-0.2-2.5-0.6-3.3C25.5,29,24.7,28,23.9,27z"/>
	<path fill="#E8B944" d="M39.5,4.9h-31H5.4v2h3.2l2.7,40.7h25.2l2.7-40.7h3.2v-2H39.5z M23.9,35.9c-5.2,0-9.4-4.5-9.4-10
		c0-5.5,4.2-10,9.4-10c5.2,0,9.4,4.5,9.4,10C33.3,31.4,29.1,35.9,23.9,35.9z"/>
	<path fill="#E77528" d="M23.9,17.9c-0.9,0-1.8,0.2-2.7,0.5c0,0.2,0,0.3,0,0.5c0,0.6-0.1,1.1,0.1,1.5c0.1,0.3,0.4,0.6,0.6,0.9
		l3.5,4.3c0.9,1.1,1.8,2.2,2.4,3.5c0.4,0.7,0.7,1.7,0.8,2.9c1.7-1.5,2.8-3.7,2.8-6.2C31.4,21.5,28,17.9,23.9,17.9z"/>
</g>
</svg>
