<?xml version="1.0" encoding="utf-8"?>
<!-- Generator: Adobe Illustrator 18.0.0, SVG Export Plug-In . SVG Version: 6.00 Build 0)  -->
<!DOCTYPE svg PUBLIC "-//W3C//DTD SVG 1.1//EN" "http://www.w3.org/Graphics/SVG/1.1/DTD/svg11.dtd">
<svg version="1.1" id="Layer_1" xmlns="http://www.w3.org/2000/svg" xmlns:xlink="http://www.w3.org/1999/xlink" x="0px" y="0px"
	 viewBox="0 0 48 48" enable-background="new 0 0 48 48" xml:space="preserve">
<g>
	<rect x="22.4" y="18.8" fill="#F04B36" width="2" height="28.1"/>
	<polygon fill="#E77528" points="2,47.5 0.5,46.1 6.4,39.8 37.1,39.8 42.7,46.2 41.2,47.5 36.2,41.8 7.2,41.8 	"/>
	<polygon fill="#E77528" points="37.4,41.5 36,40.1 46.1,29.9 47.5,31.3 	"/>
	<path fill="#0DB89A" d="M23.3,1.9c-3.8,0-7.3,7.1-8.4,16.8c2.7,0.4,5.5,0.6,8.4,0.6c2.9,0,5.7-0.2,8.4-0.6
		C30.7,8.9,27.1,1.9,23.3,1.9z"/>
	<path fill="#0DB89A" d="M20.9,0.5c-9,0.9-16.6,6.4-19,14.2l-0.1,0.4l0.4,0.2c3.1,1.4,6.8,2.4,10.7,3.1C14,9.2,17.1,2.5,20.9,0.5z"
		/>
	<path fill="#0DB89A" d="M44.7,14.7c-2.4-7.7-10-13.3-19-14.2c3.9,2,6.9,8.7,8,17.9c4-0.7,7.6-1.7,10.7-3.1l0.4-0.2L44.7,14.7z"/>
</g>
</svg>
