<?xml version="1.0" encoding="utf-8"?>
<!-- Generator: Adobe Illustrator 18.0.0, SVG Export Plug-In . SVG Version: 6.00 Build 0)  -->
<!DOCTYPE svg PUBLIC "-//W3C//DTD SVG 1.1//EN" "http://www.w3.org/Graphics/SVG/1.1/DTD/svg11.dtd">
<svg version="1.1" id="Layer_1" xmlns="http://www.w3.org/2000/svg" xmlns:xlink="http://www.w3.org/1999/xlink" x="0px" y="0px"
	 viewBox="0 0 48 48" enable-background="new 0 0 48 48" xml:space="preserve">
<g>
	<polygon fill="#4DA0D8" points="0.5,29.2 15.3,41.5 15.3,36 0.5,25.1 	"/>
	<polygon fill="#E77528" points="27,29.8 17.5,35.7 17.5,41.8 27,35.6 	"/>
	<path fill="#F7A93B" d="M11.8,17.5L1.4,23.1l14.8,10.9l10-6.1L11.8,17.5z M13.2,26.9l-1.5-1.6l1.6-1.5l1.5,1.6L13.2,26.9z"/>
	<polygon fill="#F7A93B" points="36.7,21.4 22.4,11.8 13.9,16.4 28.2,26.6 	"/>
	<path fill="#F7A93B" d="M46.6,15.4L32.8,6.2l-8.2,4.4l14.2,9.5L46.6,15.4z M35.2,14.7l-1.5-1.6l1.6-1.5l1.5,1.6L35.2,14.7z"/>
	<polygon fill="#E77528" points="37.6,23.3 29.2,28.5 29.2,34.2 37.6,28.7 	"/>
	<polygon fill="#E77528" points="47.5,17.3 39.8,22 39.8,27.3 47.5,22.4 	"/>
</g>
</svg>
