<?xml version="1.0" encoding="utf-8"?>
<!-- Generator: Adobe Illustrator 18.0.0, SVG Export Plug-In . SVG Version: 6.00 Build 0)  -->
<!DOCTYPE svg PUBLIC "-//W3C//DTD SVG 1.1//EN" "http://www.w3.org/Graphics/SVG/1.1/DTD/svg11.dtd">
<svg version="1.1" id="Layer_1" xmlns="http://www.w3.org/2000/svg" xmlns:xlink="http://www.w3.org/1999/xlink" x="0px" y="0px"
	 viewBox="0 0 48 48" enable-background="new 0 0 48 48" xml:space="preserve">
<g>
	<path fill="#F04B36" d="M16.8,4.6c1.6,0.4,4.5,1,8,1c2.3,0,4.8-0.2,7.4-0.9v12.5l2,0.7V0.5h-2v2c-6.6,1.9-13.3,0.5-15.4,0v-2h-2
		v17.3l2-0.7V4.6z"/>
	<rect x="32.2" y="26.6" fill="#E77528" width="2" height="5.9"/>
	<rect x="37.6" y="26.6" fill="#E77528" width="2" height="20.9"/>
	<rect x="14.8" y="26.6" fill="#E77528" width="2" height="5.9"/>
	<polygon fill="#0DB89A" points="34.3,17.9 32.2,17.1 16.8,17.1 14.8,17.8 8,26.6 8.6,26.6 10.6,26.6 14.8,26.6 16.8,26.6 
		32.2,26.6 34.3,26.6 37.6,26.6 39.6,26.6 40,26.6 	"/>
	<rect x="8.6" y="26.6" fill="#E77528" width="2" height="20.2"/>
</g>
</svg>
