<?xml version="1.0" encoding="utf-8"?>
<!-- Generator: Adobe Illustrator 18.0.0, SVG Export Plug-In . SVG Version: 6.00 Build 0)  -->
<!DOCTYPE svg PUBLIC "-//W3C//DTD SVG 1.1//EN" "http://www.w3.org/Graphics/SVG/1.1/DTD/svg11.dtd">
<svg version="1.1" id="Layer_1" xmlns="http://www.w3.org/2000/svg" xmlns:xlink="http://www.w3.org/1999/xlink" x="0px" y="0px"
	 viewBox="0 0 48 48" enable-background="new 0 0 48 48" xml:space="preserve">
<g>
	<path fill="#E77528" d="M47.5,19.3c0-2.5-2-4.6-4.5-4.6c-2.5,0-4.5,2.1-4.5,4.6v13.4h-29V19.3c0-2.5-2-4.6-4.5-4.6
		c-2.5,0-4.5,2.1-4.5,4.6v22.2h47V19.3z"/>
	<path fill="#F7A93B" d="M36.4,30.7V19.3c0-2.9,1.9-5.4,4.4-6.3c-0.7-7-7.6-12.6-16-12.6h-1.6c-8.4,0-15.3,5.5-16,12.6
		c2.6,0.9,4.4,3.4,4.4,6.3v11.3H36.4z"/>
	<rect x="40.8" y="43.6" fill="#F04B36" width="2.1" height="3.9"/>
	<rect x="5.1" y="43.6" fill="#F04B36" width="2.1" height="3.9"/>
</g>
</svg>
