<?xml version="1.0" encoding="utf-8"?>
<!-- Generator: Adobe Illustrator 18.0.0, SVG Export Plug-In . SVG Version: 6.00 Build 0)  -->
<!DOCTYPE svg PUBLIC "-//W3C//DTD SVG 1.1//EN" "http://www.w3.org/Graphics/SVG/1.1/DTD/svg11.dtd">
<svg version="1.1" id="Layer_1" xmlns="http://www.w3.org/2000/svg" xmlns:xlink="http://www.w3.org/1999/xlink" x="0px" y="0px"
	 viewBox="0 0 48 48" enable-background="new 0 0 48 48" xml:space="preserve">
<g>
	<g>
		<path fill="#E77528" d="M2.5,17.5l-2-0.3c0-0.1,2.2-13,14-14.4l0.2,2C4.4,5.9,2.5,17.3,2.5,17.5z"/>
	</g>
	<g>
		<path fill="#E77528" d="M12.7,8.7l-1.6-1.2L13.7,4C12,3.1,10,1.9,9.9,1.8l1-1.7c0.2,0.1,3,1.7,4.8,2.7l1,0.6L12.7,8.7z"/>
	</g>
	<g>
		<path fill="#294E58" d="M33.5,45.3l-0.2-2c10.3-1.2,12.2-12.7,12.2-12.8l2,0.3C47.5,31,45.3,43.9,33.5,45.3z"/>
	</g>
	<g>
		<path fill="#294E58" d="M37.1,47.9c-0.2-0.1-3-1.7-4.8-2.7l-1-0.6l4-5.3l1.6,1.2L34.3,44c1.7,0.9,3.7,2.1,3.9,2.2L37.1,47.9z"/>
	</g>
	<g>
		<path fill="#4DA0D8" d="M30.6,12.9v0.3l-0.1,0.1c0,0.1,0.2,0.6,1.1,1.2v-2.9c-0.2,0.1-0.4,0.1-0.5,0.3
			C30.9,11.9,30.6,12.2,30.6,12.9z"/>
	</g>
	<g>
		<path fill="#4DA0D8" d="M32.6,3.6c-7.4,0-13.4,5.7-13.4,12.7c0,0.4,0,0.8,0.1,1.2c5.6,1.4,10,5.8,11.2,11.4
			c0.7,0.1,1.4,0.2,2.2,0.2C40,29,46,23.3,46,16.3C46,9.3,40,3.6,32.6,3.6z M36.8,21.3c0,0.1-1,1.5-3.2,1.9v1.4h-2v-1.3
			c-1-0.1-2.2-0.3-3.5-0.9l0.8-1.8c1.1,0.4,2,0.7,2.7,0.7v-4.6c-1.4-0.7-2.4-1.4-2.8-2.3c-0.3-0.7-0.3-1.3-0.2-1.6
			c0-1.4,0.7-2.2,1.3-2.7c0.5-0.4,1.1-0.6,1.7-0.7V8.1h2v1.3c1.7,0.1,3.2,0.6,3.4,0.7l-0.6,1.9c-0.7-0.2-1.8-0.5-2.8-0.6v4
			c0.1,0,0.1,0,0.1,0.1c1.9,0.6,3.1,1.6,3.5,2.8C37.8,19.8,36.9,21.1,36.8,21.3z"/>
	</g>
	<g>
		<path fill="#F04B36" d="M15.4,19C8,19,2,24.7,2,31.7c0,7,6,12.7,13.4,12.7c7.4,0,13.4-5.7,13.4-12.7C28.8,24.7,22.8,19,15.4,19z
			 M13.1,29.3v2H10c0,0.1,0,0.3,0,0.4c0,0.1,0,0.3,0,0.4h3.1v2h-2.6c1,2.3,3.3,3.9,5.9,3.9c1,0,1.9-0.2,2.7-0.6l0.8,1.8
			c-1.1,0.5-2.3,0.8-3.6,0.8c-3.8,0-7-2.5-8.1-5.9H7.1v-2H8c0-0.1,0-0.3,0-0.4c0-0.1,0-0.3,0-0.4H7.1v-2h1.3
			c1.1-3.4,4.3-5.9,8.1-5.9c1.3,0,2.5,0.3,3.6,0.8l-0.8,1.8c-0.9-0.4-1.8-0.6-2.8-0.6c-2.7,0-5,1.6-5.9,3.9H13.1z"/>
	</g>
	<g>
		<path fill="#4DA0D8" d="M33.6,17.5v3.7c1-0.3,1.5-0.9,1.5-1c0,0,0.5-0.7,0.2-1.3C35.2,18.3,34.6,17.8,33.6,17.5z"/>
	</g>
</g>
</svg>
