<?xml version="1.0" encoding="utf-8"?>
<!-- Generator: Adobe Illustrator 18.0.0, SVG Export Plug-In . SVG Version: 6.00 Build 0)  -->
<!DOCTYPE svg PUBLIC "-//W3C//DTD SVG 1.1//EN" "http://www.w3.org/Graphics/SVG/1.1/DTD/svg11.dtd">
<svg version="1.1" id="Layer_1" xmlns="http://www.w3.org/2000/svg" xmlns:xlink="http://www.w3.org/1999/xlink" x="0px" y="0px"
	 viewBox="0 0 48 48" enable-background="new 0 0 48 48" xml:space="preserve">
<g>
	<polygon fill="#06728D" points="7.1,0.2 0.4,5.7 11.2,18.5 17.9,13 	"/>
	<polygon fill="#CFD0D1" points="11.9,19.4 35.8,47.8 42.5,42.3 18.7,14 	"/>
	<path fill="#F04B36" d="M37,20.1c-0.2,0.7-0.3,1.3-0.4,1.9c-0.2,1.4-0.2,3.7,0.5,5.1c0.4,0.9,1,1.6,1.5,2.2c0.8,1,1.4,1.6,1.2,3.1
		l1.9,0.2c0.2-2.4-0.8-3.5-1.7-4.6c-0.5-0.5-0.9-1-1.2-1.7c-0.4-0.9-0.6-2.6-0.4-4c0.1-0.5,0.2-1.1,0.4-1.7c0.8-2.9,2-7.4-3.7-10.8
		l-1,1.7C38.6,14.2,37.8,17.2,37,20.1z"/>
	<path fill="#F04B36" d="M45.9,27.3c-0.5-0.5-0.9-1-1.2-1.7c-0.4-0.9-0.6-2.6-0.4-4c0.1-0.5,0.2-1.1,0.4-1.7c0.8-2.9,2-7.4-3.7-10.8
		l-1,1.7c4.4,2.6,3.6,5.7,2.8,8.6c-0.2,0.7-0.3,1.3-0.4,1.9c-0.2,1.4-0.2,3.7,0.5,5.1c0.4,0.9,1,1.6,1.5,2.2c0.8,1,1.4,1.6,1.2,3.1
		l1.9,0.2C47.8,29.5,46.8,28.3,45.9,27.3z"/>
</g>
</svg>
