<?xml version="1.0" encoding="utf-8"?>
<!-- Generator: Adobe Illustrator 18.0.0, SVG Export Plug-In . SVG Version: 6.00 Build 0)  -->
<!DOCTYPE svg PUBLIC "-//W3C//DTD SVG 1.1//EN" "http://www.w3.org/Graphics/SVG/1.1/DTD/svg11.dtd">
<svg version="1.1" id="Layer_1" xmlns="http://www.w3.org/2000/svg" xmlns:xlink="http://www.w3.org/1999/xlink" x="0px" y="0px"
	 viewBox="0 0 48 48" enable-background="new 0 0 48 48" xml:space="preserve">
<g>
	<rect x="6.9" y="7" fill="#4DA0D8" width="9.3" height="29.7"/>
	<path fill="#E77528" d="M43.3,0.4H4.7c-2.4,0-4.3,1.9-4.3,4.3V39c0,2.4,1.9,4.3,4.3,4.3h38.7c2.4,0,4.3-1.9,4.3-4.3V4.7
		C47.6,2.3,45.7,0.4,43.3,0.4z M18.2,38.6H4.9V5h13.2V38.6z M26.3,36.3H24v-2h2.3V36.3z M26.3,29H24v-2h2.3V29z M26.3,21.7H24v-2
		h2.3V21.7z M26.3,14.4H24v-2h2.3V14.4z M33.2,36.3h-2.3v-2h2.3V36.3z M33.2,29h-2.3v-2h2.3V29z M33.2,21.7h-2.3v-2h2.3V21.7z
		 M33.2,14.4h-2.3v-2h2.3V14.4z M40.1,36.3h-2.3v-2h2.3V36.3z M40.1,29h-2.3v-2h2.3V29z M40.1,21.7h-2.3v-2h2.3V21.7z M40.1,14.4
		h-2.3v-2h2.3V14.4z"/>
	<g>
		<rect x="7.9" y="45.6" fill="#F04B36" width="5.2" height="2"/>
	</g>
	<g>
		<rect x="34.9" y="45.6" fill="#F04B36" width="5.2" height="2"/>
	</g>
</g>
</svg>
