<?xml version="1.0" encoding="utf-8"?>
<!-- Generator: Adobe Illustrator 18.0.0, SVG Export Plug-In . SVG Version: 6.00 Build 0)  -->
<!DOCTYPE svg PUBLIC "-//W3C//DTD SVG 1.1//EN" "http://www.w3.org/Graphics/SVG/1.1/DTD/svg11.dtd">
<svg version="1.1" id="Layer_1" xmlns="http://www.w3.org/2000/svg" xmlns:xlink="http://www.w3.org/1999/xlink" x="0px" y="0px"
	 viewBox="0 0 48 48" enable-background="new 0 0 48 48" xml:space="preserve">
<g>
	<rect x="5.9" y="44.9" fill="#294E58" width="2.1" height="2.6"/>
	<rect x="16.9" y="44.9" fill="#294E58" width="2.1" height="2.6"/>
	<path fill="#F04B36" d="M32.3,17.4c-2-2-4.7-3-7.5-3c-2.8,0-5.5,1.1-7.5,3c-4.1,4.1-4.1,10.7,0,14.7c2,2,4.7,3,7.5,3
		c2.8,0,5.5-1.1,7.5-3C36.4,28.1,36.4,21.5,32.3,17.4z M22.3,31.1l-5.5-5.7l1.5-1.4l4.1,4.3l8.9-7.5l1.3,1.5L22.3,31.1z"/>
	<path fill="#E77528" d="M0.5,13.3v27.3c0,1.2,1,2.1,2.1,2.1h19.4c1.2,0,2.1-0.9,2.1-2.1v-3.4c-3.2-0.1-6.2-1.4-8.4-3.6
		c-4.9-4.8-4.9-12.7,0-17.6c2.2-2.2,5.1-3.4,8.2-3.6c-0.3-0.7-1.1-1.2-1.9-1.2H2.6C1.5,11.2,0.5,12.2,0.5,13.3z M18.4,38.6v2H2.6V14
		h2.1v24.6H18.4z"/>
	<polygon fill="#4DA0D8" points="7.3,9.2 9.4,9.2 9.4,2.5 15.5,2.5 15.5,9.2 17.6,9.2 17.6,2.5 19.8,2.5 19.8,0.5 17.6,0.5 7.3,0.5 
		5.1,0.5 5.1,2.5 7.3,2.5 	"/>
	<path fill="#06728D" d="M34.4,32.8c-0.2,0.3-0.5,0.5-0.7,0.8c-0.2,0.2-0.5,0.4-0.7,0.6L46,47l1.5-1.4L34.4,32.8z"/>
</g>
</svg>
