<?xml version="1.0" encoding="utf-8"?>
<!-- Generator: Adobe Illustrator 18.0.0, SVG Export Plug-In . SVG Version: 6.00 Build 0)  -->
<!DOCTYPE svg PUBLIC "-//W3C//DTD SVG 1.1//EN" "http://www.w3.org/Graphics/SVG/1.1/DTD/svg11.dtd">
<svg version="1.1" id="Layer_1" xmlns="http://www.w3.org/2000/svg" xmlns:xlink="http://www.w3.org/1999/xlink" x="0px" y="0px"
	 viewBox="0 0 48 48" enable-background="new 0 0 48 48" xml:space="preserve">
<g>
	<rect x="6.1" y="1.1" fill="#0DB89A" width="2" height="3.5"/>
	<rect x="39.3" y="1.1" fill="#0DB89A" width="2" height="3.5"/>
	<path fill="#F04B36" d="M0.6,5.7v41.2h46.8V5.7H0.6z M7.5,41.4h-2v-2h2V41.4z M7.5,37.6h-2v-2h2V37.6z M7.5,33.8h-2v-2h2V33.8z
		 M7.5,30.1h-2v-2h2V30.1z M7.5,26.3h-2v-2h2V26.3z M7.5,22.5h-2v-2h2V22.5z M11.4,41.4h-2v-2h2V41.4z M11.4,37.6h-2v-2h2V37.6z
		 M11.4,33.8h-2v-2h2V33.8z M11.4,30.1h-2v-2h2V30.1z M11.4,26.3h-2v-2h2V26.3z M11.4,22.5h-2v-2h2V22.5z M15.3,41.4h-2v-2h2V41.4z
		 M15.3,37.6h-2v-2h2V37.6z M15.3,33.8h-2v-2h2V33.8z M15.3,30.1h-2v-2h2V30.1z M15.3,26.3h-2v-2h2V26.3z M15.3,22.5h-2v-2h2V22.5z
		 M19.2,41.4h-2v-2h2V41.4z M19.2,37.6h-2v-2h2V37.6z M19.2,33.8h-2v-2h2V33.8z M19.2,30.1h-2v-2h2V30.1z M19.2,26.3h-2v-2h2V26.3z
		 M19.2,22.5h-2v-2h2V22.5z M23.1,37.6h-2v-2h2V37.6z M23.1,33.8h-2v-2h2V33.8z M23.1,26.3h-2v-2h2V26.3z M23.1,22.5h-2v-2h2V22.5z
		 M27,37.6h-2v-2h2V37.6z M27,33.8h-2v-2h2V33.8z M27,26.3h-2v-2h2V26.3z M27,22.5h-2v-2h2V22.5z M30.8,37.6h-2v-2h2V37.6z
		 M30.8,26.3h-2v-2h2V26.3z M30.8,22.5h-2v-2h2V22.5z M34.7,37.6h-2v-2h2V37.6z M34.7,26.3h-2v-2h2V26.3z M34.7,22.5h-2v-2h2V22.5z
		 M38.6,26.3h-2v-2h2V26.3z M38.6,22.5h-2v-2h2V22.5z M42.5,26.3h-2v-2h2V26.3z M42.5,22.5h-2v-2h2V22.5z M43.3,17H4.7v-2h38.7V17z
		 M43.3,13.2H4.7v-2h38.7V13.2z"/>
</g>
</svg>
