<?xml version="1.0" encoding="utf-8"?>
<!-- Generator: Adobe Illustrator 18.0.0, SVG Export Plug-In . SVG Version: 6.00 Build 0)  -->
<!DOCTYPE svg PUBLIC "-//W3C//DTD SVG 1.1//EN" "http://www.w3.org/Graphics/SVG/1.1/DTD/svg11.dtd">
<svg version="1.1" id="Layer_1" xmlns="http://www.w3.org/2000/svg" xmlns:xlink="http://www.w3.org/1999/xlink" x="0px" y="0px"
	 viewBox="0 0 48 48" enable-background="new 0 0 48 48" xml:space="preserve">
<g>
	<rect x="9.1" y="0.5" fill="#E77528" width="2" height="3.4"/>
	<rect x="36.9" y="0.5" fill="#E77528" width="2" height="3.4"/>
	<path fill="#CFD0D1" d="M0.5,47.5h47V18h-47V47.5z M32.7,29h6.2v-7.2h2V31h-8.1V29z M32.7,41.8h6.2v-7.2h2v9.2h-8.1V41.8z M19.9,29
		h6.2v-7.2h2V31h-8.1V29z M19.9,41.8h6.2v-7.2h2v9.2h-8.1V41.8z M7.2,29h6.2v-7.2h2V31H7.2V29z M7.2,41.8h6.2v-7.2h2v9.2H7.2V41.8z"
		/>
	<path fill="#06728D" d="M0.5,6.1V16h47V6.1H0.5z M11.1,12.8h-2V9.4h2V12.8z M38.9,12.8h-2V9.4h2V12.8z"/>
</g>
</svg>
