<?xml version="1.0" encoding="utf-8"?>
<!-- Generator: Adobe Illustrator 18.0.0, SVG Export Plug-In . SVG Version: 6.00 Build 0)  -->
<!DOCTYPE svg PUBLIC "-//W3C//DTD SVG 1.1//EN" "http://www.w3.org/Graphics/SVG/1.1/DTD/svg11.dtd">
<svg version="1.1" id="Layer_1" xmlns="http://www.w3.org/2000/svg" xmlns:xlink="http://www.w3.org/1999/xlink" x="0px" y="0px"
	 viewBox="0 0 48 48" enable-background="new 0 0 48 48" xml:space="preserve">
<g>
	<rect x="8.7" y="35" transform="matrix(0.8732 0.4874 -0.4874 0.8732 21.4141 0.5519)" fill="#06728D" width="2" height="12.8"/>
	<rect x="32" y="40.4" transform="matrix(0.4878 0.873 -0.873 0.4878 55.8109 -12.2608)" fill="#06728D" width="12.8" height="2"/>
	<rect x="23" y="41.3" fill="#06728D" width="2" height="3.6"/>
	<path fill="#0DB89A" d="M23.3,11.9c-1.9-1.7-2.7-4.2-1.8-5.6c0.3-0.4,0.6-0.7,0.9-1c0.3-0.3,0.7-0.7,0.8-1c0.2-0.3,0.1-0.7,0-0.9
		c-0.2-0.5-0.7-0.8-1.2-1l0.6-1.9c1.1,0.3,2,1.1,2.4,2.1c0.4,0.9,0.4,1.8,0,2.6c-0.3,0.6-0.8,1.1-1.2,1.5c-0.3,0.3-0.5,0.5-0.7,0.8
		c-0.1,0.3,0,1.7,1.5,3L23.3,11.9z"/>
	<path fill="#0DB89A" d="M28,9.5c-0.6-0.5-0.8-1.2-0.9-1.7c-0.1-0.5-0.4-1.4,0.2-2.1c0.1-0.2,0.3-0.4,0.4-0.5L27.8,5
		C28,4.8,28.1,4.6,28,4.4l1.8-0.9c0.5,1,0.3,2.2-0.5,3c-0.1,0.1-0.1,0.1-0.2,0.2c-0.1,0-0.1,0.1-0.2,0.1c0,0.1,0.1,0.4,0.1,0.5
		c0.1,0.3,0.2,0.6,0.3,0.7L28,9.5z"/>
	<path fill="#F04B36" d="M21.5,19.4C21.5,19.4,21.4,19.4,21.5,19.4c-0.4-0.3-0.6-0.7-0.7-1.1l-6.6,1.1c0.5,0.3,1.2,0.6,1.9,0.9
		L21.5,19.4z"/>
	<path fill="#F04B36" d="M29.2,23.2c0.1,0.5,0,0.9-0.1,1.4l4.2-0.7C31.8,23.8,30.5,23.5,29.2,23.2C29.2,23.2,29.2,23.2,29.2,23.2z"
		/>
	<path fill="#F04B36" d="M24.6,21.4c-0.3-0.1-0.5-0.3-0.7-0.4l-2.6,0.4c0.5,0,1,0.1,1.5,0.1C23.4,21.5,24,21.5,24.6,21.4z"/>
	<path fill="#F04B36" d="M26.6,23.2c-1.3,0.2-2.6,0.3-3.9,0.3c-7.1,0-11.2-3.4-11.7-3.8c-0.1-0.1-0.3-0.2-0.4-0.2
		c-0.2,0-0.3,0.1-0.5,0.2C10,19.9,10,20,10,20.1c0,0.1,0,0.2,0.2,0.3c0.2,0.2,4.8,4.1,12.6,4.1c1.3,0,2.7-0.1,4.1-0.4
		c0.2,0,0.3-0.1,0.4-0.2c0-0.1,0.1-0.2,0.1-0.3C27.3,23.3,26.9,23.1,26.6,23.2z"/>
	<path fill="#E77528" d="M2.8,26.5c2.3,7.9,11,13.8,21.2,13.8c10.2,0,18.8-5.9,21.2-13.8c-4.2,3.1-12.9,4.8-21.2,4.8
		C15.7,31.3,7.1,29.6,2.8,26.5z"/>
	<path fill="#F7A93B" d="M24,14.9c-12.8,0-21.8,3.8-21.8,7.2c0,3.4,9,7.2,21.8,7.2c12.8,0,21.8-3.8,21.8-7.2
		C45.8,18.7,36.8,14.9,24,14.9z M41.4,22.5c-0.2,0.2-0.4,0.5-0.6,0.6l0.2,1.5l-25.1,4.1l-0.3-2l3.5-0.6C18,26,17,25.8,16,25.5
		l-6.2,1l-0.3-2l2.9-0.5c-0.6-0.3-1.2-0.6-1.7-0.9l-4.6,0.7l-0.3-2l2.7-0.4c-0.3-0.3-0.4-0.7-0.5-1.1l-0.6,0.1l-0.3-2l1.7-0.3
		c0.7-0.7,1.9-0.8,2.8-0.5l9.3-1.5c0.1-0.2,0.2-0.3,0.4-0.5c0.9-0.9,2.5-1,3.5-0.2l2.3-0.4l0.3,2l-0.1,0c0.6,0.3,1.3,0.6,2.1,0.8
		l5.2-0.8L35,19c0.1,0,0.2,0,0.3,0c1.2,0,2.3-0.1,3.5-0.3c1.4-0.2,2.7,0.7,3,2C41.9,21.3,41.8,22,41.4,22.5z"/>
	<path fill="#F04B36" d="M39.2,20.7c-1.3,0.2-2.6,0.3-3.9,0.3c-7.1,0-11.2-3.4-11.7-3.8c-0.1-0.1-0.3-0.2-0.4-0.2
		c-0.2,0-0.3,0.1-0.5,0.2c-0.1,0.1-0.1,0.2-0.1,0.3c0,0.1,0,0.2,0.2,0.3c0.2,0.2,4.8,4.1,12.6,4.1c1.3,0,2.7-0.1,4.1-0.4
		c0.2,0,0.3-0.1,0.4-0.2c0-0.1,0.1-0.2,0.1-0.3C39.8,20.8,39.5,20.6,39.2,20.7z"/>
</g>
</svg>
