<?xml version="1.0" encoding="utf-8"?>
<!-- Generator: Adobe Illustrator 18.0.0, SVG Export Plug-In . SVG Version: 6.00 Build 0)  -->
<!DOCTYPE svg PUBLIC "-//W3C//DTD SVG 1.1//EN" "http://www.w3.org/Graphics/SVG/1.1/DTD/svg11.dtd">
<svg version="1.1" id="Layer_1" xmlns="http://www.w3.org/2000/svg" xmlns:xlink="http://www.w3.org/1999/xlink" x="0px" y="0px"
	 viewBox="0 0 48 48" enable-background="new 0 0 48 48" xml:space="preserve">
<g>
	<path fill="#06728D" d="M25,22.9H23v-4.3h1c1.6,0,2.9-1.3,2.9-2.9s-1.3-2.9-2.9-2.9c-1.6,0-2.9,1.3-2.9,2.9h-1.9
		c0-2.6,2.1-4.8,4.8-4.8s4.8,2.1,4.8,4.8c0,2.3-1.6,4.2-3.8,4.7V22.9z"/>
	<path fill="#F04B36" d="M44.9,37H3.1c-1.2,0-2.2-0.8-2.5-2c-0.3-1.2,0.2-2.4,1.3-2.9l18.9-9.9c1.9-1,4.4-1,6.3,0l18.9,9.9
		c1.1,0.6,1.6,1.7,1.3,2.9C47.1,36.2,46.1,37,44.9,37z M4.2,34.2h39.6l-18-9.4c-1.1-0.6-2.5-0.6-3.7,0L4.2,34.2z"/>
</g>
</svg>
