<?xml version="1.0" encoding="utf-8"?>
<!-- Generator: Adobe Illustrator 18.0.0, SVG Export Plug-In . SVG Version: 6.00 Build 0)  -->
<!DOCTYPE svg PUBLIC "-//W3C//DTD SVG 1.1//EN" "http://www.w3.org/Graphics/SVG/1.1/DTD/svg11.dtd">
<svg version="1.1" id="Layer_1" xmlns="http://www.w3.org/2000/svg" xmlns:xlink="http://www.w3.org/1999/xlink" x="0px" y="0px"
	 viewBox="0 0 48 48" enable-background="new 0 0 48 48" xml:space="preserve">
<g>
	<path fill="#F04B36" d="M16.1,34.6c0-0.2-0.1-0.3-0.1-0.5c-0.1-0.2-0.1-0.4-0.2-0.5c-0.1-0.3-0.3-0.5-0.4-0.8c0,0,0-0.1-0.1-0.1
		c-1-1.5-2.7-2.4-4.6-2.4c-1.9,0-3.6,1-4.6,2.4c0,0,0,0,0,0.1c-0.2,0.3-0.3,0.5-0.5,0.8c-0.1,0.2-0.1,0.3-0.2,0.5
		c-0.1,0.2-0.1,0.3-0.2,0.5c-0.1,0.2-0.1,0.5-0.1,0.7c0,0.1,0,0.3,0,0.4l0,0.1c0,3,2.5,5.5,5.5,5.5c3,0,5.5-2.4,5.5-5.5l0-0.1
		c0-0.1,0-0.2,0-0.3C16.2,35.1,16.2,34.9,16.1,34.6z"/>
	<path fill="#0DB89A" d="M45.8,32.9c0.1,0.2,0.1,0.3,0.2,0.5c0,0.1,0.1,0.2,0.1,0.3c0,0.1,0.1,0.2,0.1,0.3c0,0.1,0.1,0.3,0.1,0.4
		c0,0,0,0,0,0.1h0.1c0.4,0,0.8-0.2,1-0.5c0.2-0.3,0.3-0.7,0.1-1.1L45,26.5H25h-0.4H0.5v6.7c0,0.7,0.6,1.3,1.3,1.3h1.4
		c0,0,0-0.1,0-0.1c0-0.1,0.1-0.3,0.1-0.4c0-0.1,0.1-0.2,0.1-0.4c0-0.1,0.1-0.2,0.1-0.3c0.1-0.2,0.1-0.4,0.2-0.5c0,0,0-0.1,0-0.1
		c0.9-2.1,2.6-3.6,4.8-4.3c0,0,0,0,0,0c0.2-0.1,0.4-0.1,0.7-0.2c0,0,0.1,0,0.1,0c0.2,0,0.4-0.1,0.6-0.1c0,0,0.1,0,0.1,0
		c0.2,0,0.5,0,0.8,0c0.3,0,0.5,0,0.8,0c0,0,0.1,0,0.1,0c0.2,0,0.4,0.1,0.6,0.1c0,0,0.1,0,0.1,0c0.2,0,0.4,0.1,0.7,0.2c0,0,0,0,0,0
		c2.1,0.7,3.9,2.2,4.7,4.3c0,0,0,0.1,0,0.1c0.1,0.2,0.1,0.3,0.2,0.5c0,0.1,0.1,0.2,0.1,0.3c0,0.1,0.1,0.2,0.1,0.3
		c0,0.1,0.1,0.3,0.1,0.4c0,0,0,0,0,0.1h12.8c0,0,0,0,0-0.1c0-0.2,0.1-0.3,0.1-0.4c0-0.1,0.1-0.2,0.1-0.3c0-0.1,0.1-0.2,0.1-0.3
		c0.1-0.2,0.1-0.3,0.2-0.5c0,0,0-0.1,0-0.1c0.9-2.1,2.6-3.6,4.7-4.3c0,0,0,0,0,0c0.2-0.1,0.4-0.1,0.7-0.2c0,0,0.1,0,0.1,0
		c0.2,0,0.4-0.1,0.6-0.1c0,0,0.1,0,0.1,0c0.2,0,0.5,0,0.8,0c0.3,0,0.5,0,0.8,0c0,0,0.1,0,0.1,0c0.2,0,0.4,0.1,0.6,0.1
		c0,0,0.1,0,0.1,0c0.2,0,0.4,0.1,0.7,0.2c0,0,0,0,0,0c2.1,0.7,3.9,2.2,4.7,4.3C45.7,32.8,45.7,32.9,45.8,32.9z"/>
	<path fill="#F04B36" d="M44,34.6c0-0.2-0.1-0.3-0.1-0.5c-0.1-0.2-0.1-0.4-0.2-0.5c-0.1-0.3-0.3-0.5-0.4-0.8c0,0,0-0.1-0.1-0.1
		c-1-1.5-2.7-2.4-4.6-2.4s-3.6,1-4.6,2.4c0,0,0,0.1-0.1,0.1c-0.2,0.3-0.3,0.5-0.4,0.8c-0.1,0.2-0.1,0.3-0.2,0.5
		c0,0.2-0.1,0.3-0.1,0.5c-0.1,0.3-0.1,0.5-0.1,0.8c0,0.1,0,0.2,0,0.3l0,0.1c0,3,2.5,5.5,5.5,5.5c3,0,5.5-2.4,5.5-5.5l0-0.1
		c0-0.1,0-0.2,0-0.3C44.1,35.1,44.1,34.9,44,34.6z"/>
	<path fill="#E77528" d="M44,23.6c-0.1-0.3-0.3-0.6-0.6-0.9l-8.7-8.3c-0.5-0.5-1.1-0.7-1.8-0.7H25v10.7h19.2L44,23.6z"/>
	<polygon fill="#06728D" points="22.9,24.4 22.9,13.7 22.9,12.6 22.9,6.7 0.5,6.7 0.5,24.4 	"/>
</g>
</svg>
