<?xml version="1.0" encoding="utf-8"?>
<!-- Generator: Adobe Illustrator 18.0.0, SVG Export Plug-In . SVG Version: 6.00 Build 0)  -->
<!DOCTYPE svg PUBLIC "-//W3C//DTD SVG 1.1//EN" "http://www.w3.org/Graphics/SVG/1.1/DTD/svg11.dtd">
<svg version="1.1" id="Layer_1" xmlns="http://www.w3.org/2000/svg" xmlns:xlink="http://www.w3.org/1999/xlink" x="0px" y="0px"
	 viewBox="0 0 48 48" enable-background="new 0 0 48 48" xml:space="preserve">
<g>
	<path fill="#0DB89A" d="M42.9,14.3V0.5h-8.4v13.8c-2.8,1.5-4.6,4.3-4.6,7.4v25.8h17.6V21.7C47.5,18.6,45.7,15.8,42.9,14.3z"/>
	<path fill="#06728D" d="M14.4,28H0.8c0.9,4.5,3.7,7.9,6.8,7.9C10.7,35.9,13.5,32.5,14.4,28z"/>
	<path fill="#CFD0D1" d="M0.6,22.8c-0.1,0.6-0.1,1.3-0.1,1.9c0,0.5,0,1,0.1,1.4h14.1c0-0.5,0.1-0.9,0.1-1.4c0-0.6,0-1.2-0.1-1.9H0.6
		z"/>
	<path fill="#E77528" d="M8.6,37.8c-0.3,0.1-0.7,0.1-1,0.1c-0.3,0-0.7,0-1-0.1v7.7H1.2v2H14v-2H8.6V37.8z"/>
	<path fill="#F04B36" d="M20.3,32.1c-0.3,0.1-0.7,0.1-1,0.1c-0.3,0-0.7,0-1-0.1v7.8h-5.3v2h12.7v-2h-5.3V32.1z"/>
	<path fill="#F7A93B" d="M26.4,18.9c0-0.6,0-1.2-0.1-1.9h-14c-0.1,0.6-0.1,1.3-0.1,1.9c0,0.6,0,1.3,0.1,1.9h4.1l0.1,0.8
		c0.2,1,0.2,2,0.2,3c0,1.6-0.2,3.1-0.5,4.4c1,0.7,2,1.1,3,1.1C23.1,30.2,26.4,25,26.4,18.9z"/>
</g>
</svg>
