<?xml version="1.0" encoding="utf-8"?>
<!-- Generator: Adobe Illustrator 18.0.0, SVG Export Plug-In . SVG Version: 6.00 Build 0)  -->
<!DOCTYPE svg PUBLIC "-//W3C//DTD SVG 1.1//EN" "http://www.w3.org/Graphics/SVG/1.1/DTD/svg11.dtd">
<svg version="1.1" id="Layer_1" xmlns="http://www.w3.org/2000/svg" xmlns:xlink="http://www.w3.org/1999/xlink" x="0px" y="0px"
	 viewBox="0 0 48 48" enable-background="new 0 0 48 48" xml:space="preserve">
<g>
	<path fill="#294E58" d="M46.1,19.1c-0.5-1.6-1.6-2.8-3-3.6l-18-9.4c-0.9-0.5-1.8-0.7-2.8-0.7c-2.3,0-4.4,1.3-5.4,3.3l-0.5,0.9
		l28.8,15.1l0.5-0.9C46.5,22.3,46.6,20.6,46.1,19.1z"/>
	
		<rect x="16.3" y="10.7" transform="matrix(-0.8859 -0.4639 0.4639 -0.8859 26.6463 32.2211)" fill="#E77528" width="2" height="4.3"/>
	
		<rect x="20.4" y="12.9" transform="matrix(-0.8859 -0.4639 0.4639 -0.8859 33.4251 38.2092)" fill="#E77528" width="2" height="4.3"/>
	
		<rect x="24.5" y="15" transform="matrix(-0.8859 -0.4639 0.4639 -0.8859 40.2059 44.1968)" fill="#E77528" width="2" height="4.3"/>
	
		<rect x="28.6" y="17.2" transform="matrix(-0.8859 -0.4639 0.4639 -0.8859 46.9849 50.184)" fill="#E77528" width="2" height="4.3"/>
	
		<rect x="32.8" y="19.3" transform="matrix(-0.8859 -0.4639 0.4639 -0.8859 53.7647 56.1707)" fill="#E77528" width="2" height="4.3"/>
	
		<rect x="36.9" y="21.5" transform="matrix(-0.8859 -0.4639 0.4639 -0.8859 60.5429 62.1583)" fill="#E77528" width="2" height="4.3"/>
	
		<rect x="41" y="23.7" transform="matrix(-0.8859 -0.4639 0.4639 -0.8859 67.3217 68.1464)" fill="#E77528" width="2" height="4.3"/>
	<path fill="#F04B36" d="M16.8,28.9l0.5-0.2l9.5,5.8c0,0,4.5,2.6,8.2,1.4c1.1-0.3,2-1,2.7-1.9c-2.4-0.7-5.1-1.6-7.6-2.9l0.4,0.3
		l-1.4,2l-1.7-1.1l1.3-1.9c-0.6-0.3-1.2-0.6-1.7-1l0.3,0.2l-1.6,1.8L24,30.2l1.4-1.7c-2.5-1.7-4.6-3.7-5.9-6.2c0,0-3.1,5.7-17.8,2.7
		c0,0-0.5,1.7-0.8,4.1C4.4,29.8,12.3,30.9,16.8,28.9z M31.6,32l1.8,0.9l-1.1,2.2l-1.8-0.9L31.6,32z M22.5,26.2l1.5,1.3l-1.6,1.8
		L20.9,28L22.5,26.2z"/>
	<path fill="#4DA0D8" d="M43.7,35.3c-1.1-0.1-2.4-0.3-3.9-0.7c-1.1,1.6-2.5,2.7-4.2,3.3c-0.9,0.3-1.8,0.4-2.7,0.4
		c-3.7,0-7-2-7.2-2.1L17.1,31c-5,1.9-12.8,0.9-16.4,0.2c-0.3,3.4-0.3,7.7,1.1,11.3h13.8v-3.1c0,0,11.4,2.7,12.5,3.1
		c1.1,0.4,18.7,0,18.7,0S49.8,35.9,43.7,35.3z"/>
</g>
</svg>
