<?xml version="1.0" encoding="utf-8"?>
<!-- Generator: Adobe Illustrator 18.0.0, SVG Export Plug-In . SVG Version: 6.00 Build 0)  -->
<!DOCTYPE svg PUBLIC "-//W3C//DTD SVG 1.1//EN" "http://www.w3.org/Graphics/SVG/1.1/DTD/svg11.dtd">
<svg version="1.1" id="Layer_1" xmlns="http://www.w3.org/2000/svg" xmlns:xlink="http://www.w3.org/1999/xlink" x="0px" y="0px"
	 viewBox="0 0 48 48" enable-background="new 0 0 48 48" xml:space="preserve">
<g>
	<path fill="#4DA0D8" d="M47.1,23.2c-0.3-0.2-7.3-5.7-17.1-6.7L19.2,0.9c-0.2-0.3-0.5-0.4-0.8-0.4h-5c-0.3,0-0.6,0.1-0.8,0.4
		c-0.2,0.2-0.2,0.6-0.2,0.9l4.8,15.9H9.9l-3-5.4c-0.2-0.3-0.5-0.5-0.9-0.5H1.5c-0.3,0-0.6,0.1-0.8,0.4c-0.2,0.3-0.2,0.6-0.1,0.9
		L4,24L0.5,35c-0.1,0.3,0,0.6,0.1,0.9c0.2,0.3,0.5,0.4,0.8,0.4h4.6c0.4,0,0.7-0.2,0.9-0.5l3-5.4h7.2l-4.8,15.9
		c-0.1,0.3,0,0.6,0.2,0.9c0.2,0.2,0.5,0.4,0.8,0.4h5c0.3,0,0.6-0.2,0.8-0.4L30,31.5c9.8-1,16.8-6.5,17.1-6.7
		c0.2-0.2,0.4-0.5,0.4-0.8S47.4,23.4,47.1,23.2z"/>
</g>
</svg>
