<?xml version="1.0" encoding="utf-8"?>
<!-- Generator: Adobe Illustrator 18.0.0, SVG Export Plug-In . SVG Version: 6.00 Build 0)  -->
<!DOCTYPE svg PUBLIC "-//W3C//DTD SVG 1.1//EN" "http://www.w3.org/Graphics/SVG/1.1/DTD/svg11.dtd">
<svg version="1.1" id="Layer_1" xmlns="http://www.w3.org/2000/svg" xmlns:xlink="http://www.w3.org/1999/xlink" x="0px" y="0px"
	 viewBox="0 0 48 48" enable-background="new 0 0 48 48" xml:space="preserve">
<g>
	<rect x="23" y="18.4" fill="#06728D" width="2" height="19.3"/>
	<path fill="#06728D" d="M32.6,37.7h-2c0-2.7-3-4.9-6.6-4.9c-3.7,0-6.6,2.2-6.6,4.9h-2c0-3.8,3.9-6.8,8.6-6.8
		C28.7,30.9,32.6,33.9,32.6,37.7z"/>
	<path fill="#F7A93B" d="M34.3,10.3H13.7c-2.1,0-3.9,1.7-3.9,3.9v5.2h28.4v-5.2C38.2,12,36.5,10.3,34.3,10.3z"/>
	<polygon fill="#294E58" points="35.3,37.6 33.3,37.6 33.3,25 45.5,25 45.5,11.3 47.5,11.3 47.5,27 35.3,27 	"/>
	<rect x="45.5" y="25.9" fill="#294E58" width="2" height="11.7"/>
	<polygon fill="#294E58" points="14.7,37.6 12.7,37.6 12.7,27 0.5,27 0.5,11.3 2.5,11.3 2.5,25 14.7,25 	"/>
	<rect x="0.5" y="25.9" fill="#294E58" width="2" height="11.7"/>
</g>
</svg>
