<?xml version="1.0" encoding="utf-8"?>
<!-- Generator: Adobe Illustrator 18.0.0, SVG Export Plug-In . SVG Version: 6.00 Build 0)  -->
<!DOCTYPE svg PUBLIC "-//W3C//DTD SVG 1.1//EN" "http://www.w3.org/Graphics/SVG/1.1/DTD/svg11.dtd">
<svg version="1.1" id="Layer_1" xmlns="http://www.w3.org/2000/svg" xmlns:xlink="http://www.w3.org/1999/xlink" x="0px" y="0px"
	 viewBox="0 0 48 48" enable-background="new 0 0 48 48" xml:space="preserve">
<g>
	<path fill="#CFD0D1" d="M27.5,19c-0.1-0.4-0.4-0.9-0.7-1.3c-0.5-0.7-1-1.5-1.1-2.6c0-0.9,0.3-1.6,0.6-2.3l0.1-0.1
		c0.2-0.5,0.5-1.1,0.6-1.6c0.2-0.6,0.4-1.3,0.3-2c-0.1-0.7-0.5-1.3-0.9-2c-0.6-1-1.2-2.1-1.1-3.5l2,0.1c-0.1,0.7,0.4,1.5,0.8,2.3
		c0.5,0.8,1,1.7,1.1,2.8c0.1,1.1-0.2,2.1-0.4,2.9c-0.2,0.6-0.4,1.2-0.7,1.8l-0.1,0.2c-0.2,0.5-0.4,1-0.4,1.4c0,0.5,0.3,1,0.7,1.5
		c0.4,0.6,0.8,1.2,1,2L27.5,19z"/>
	<path fill="#CFD0D1" d="M34.1,21.6c-0.1-0.4-0.4-0.9-0.7-1.3c-0.5-0.7-1-1.5-1.1-2.6c0-0.9,0.3-1.6,0.6-2.3l0.1-0.1
		c0.2-0.5,0.4-1.1,0.6-1.6c0.2-0.6,0.4-1.3,0.3-2c-0.1-0.7-0.5-1.3-0.9-2c-0.6-1-1.2-2.1-1.1-3.5l2,0.1c-0.1,0.7,0.4,1.5,0.8,2.3
		c0.5,0.8,1,1.7,1.1,2.8c0.1,1.1-0.2,2.1-0.4,2.9c-0.2,0.6-0.4,1.2-0.7,1.8l-0.1,0.2c-0.2,0.5-0.4,1-0.4,1.4c0,0.5,0.3,1,0.7,1.5
		c0.4,0.6,0.8,1.2,1,2L34.1,21.6z"/>
	<path fill="#CFD0D1" d="M19.9,16c-0.1-0.4-0.4-0.9-0.7-1.3c-0.5-0.7-1-1.5-1.1-2.6c0-0.9,0.3-1.6,0.6-2.3l0.1-0.1
		c0.2-0.5,0.5-1.1,0.6-1.6c0.2-0.6,0.4-1.3,0.3-2c-0.1-0.7-0.5-1.3-0.9-2c-0.6-1-1.2-2.1-1.1-3.5l2,0.1c-0.1,0.7,0.4,1.5,0.8,2.3
		c0.5,0.8,1,1.7,1.1,2.8c0.1,1.1-0.2,2.1-0.4,2.9c-0.2,0.6-0.4,1.2-0.7,1.8l-0.1,0.2c-0.2,0.5-0.4,1-0.4,1.4c0,0.5,0.3,1,0.7,1.5
		c0.4,0.6,0.8,1.2,1,2L19.9,16z"/>
	<path fill="#E77528" d="M46.2,33.7c-1-1.2-2.4-1.7-3.6-2.1l-0.3-0.1c-3.6-1.3-7-3.2-10.1-5.7c-0.7-0.5-1.3-1.1-2-1.7
		c-1.5-1.3-3-2.6-4.8-3.7c-4-2.4-9-2.9-13.3-1.4c-4.4,1.6-8.1,5.2-10.3,9.8c-1.1,2.3-1.5,4.4-1.4,6.3c0.2,2.6,1.6,5.1,3.7,6.9
		c2,1.7,4.3,2.5,6.3,3.1c6,1.7,12.3,2.1,18.1,2.3c0.8,0,1.6,0,2.3,0c3.4,0,7.3-0.2,10.9-2c2.3-1.1,3.9-2.6,4.8-4.5
		C47.8,38.9,47.9,35.7,46.2,33.7z M7.9,36l-1.4-1.4l11-11.5l1.4,1.4L7.9,36z M13.6,38.7l11-11.5l1.4,1.4L15,40.1L13.6,38.7z
		 M21.7,42.7l-1.4-1.4l11-11.5l1.4,1.4L21.7,42.7z M30.7,43.2l-1.4-1.4l7.9-8.2l1.4,1.4L30.7,43.2z"/>
</g>
</svg>
