<?xml version="1.0" encoding="utf-8"?>
<!-- Generator: Adobe Illustrator 18.0.0, SVG Export Plug-In . SVG Version: 6.00 Build 0)  -->
<!DOCTYPE svg PUBLIC "-//W3C//DTD SVG 1.1//EN" "http://www.w3.org/Graphics/SVG/1.1/DTD/svg11.dtd">
<svg version="1.1" id="Layer_1" xmlns="http://www.w3.org/2000/svg" xmlns:xlink="http://www.w3.org/1999/xlink" x="0px" y="0px"
	 viewBox="0 0 48 48" enable-background="new 0 0 48 48" xml:space="preserve">
<g>
	<path fill="#F04B36" d="M24,47.5C11,47.5,0.5,37,0.5,24S11,0.5,24,0.5C37,0.5,47.5,11,47.5,24S37,47.5,24,47.5z M24,2.5
		C12.1,2.5,2.5,12.1,2.5,24c0,11.9,9.7,21.5,21.5,21.5c11.9,0,21.5-9.7,21.5-21.5C45.5,12.1,35.9,2.5,24,2.5z"/>
	<rect x="23" y="1.8" transform="matrix(0.7071 0.7071 -0.7071 0.7071 24 -9.9411)" fill="#F04B36" width="2" height="44.5"/>
	<path fill="#06728D" d="M25,18.9c-0.3,0-0.6-0.1-1-0.1c-3.5,0-6.3,2.8-6.3,6.3c0,0.3,0,0.6,0.1,1L25,18.9z"/>
	<path fill="#06728D" d="M21.3,30.9c0.8,0.4,1.7,0.6,2.7,0.6c3.5,0,6.3-2.8,6.3-6.3c0-1-0.2-1.9-0.6-2.7L21.3,30.9z"/>
	<path fill="#F7A93B" d="M16.1,27.7c-0.3-0.8-0.4-1.7-0.4-2.6c0-4.6,3.7-8.3,8.3-8.3c0.9,0,1.8,0.1,2.6,0.4l3.4-3.4h-0.7l-0.6-2.3
		h-9.4l-0.6,2.3H11c-1.4,0-2.6,1.2-2.6,2.6v17.4c0,0.5,0.1,0.9,0.3,1.2L16.1,27.7z"/>
	<path fill="#F7A93B" d="M38.1,14.1L31.2,21c0.7,1.2,1.1,2.6,1.1,4.2c0,4.6-3.7,8.3-8.3,8.3c-1.5,0-2.9-0.4-4.2-1.1l-4.1,4.1H37
		c1.4,0,2.6-1.2,2.6-2.6V16.5C39.6,15.4,38.9,14.5,38.1,14.1z"/>
</g>
</svg>
