<?xml version="1.0" encoding="utf-8"?>
<!-- Generator: Adobe Illustrator 18.0.0, SVG Export Plug-In . SVG Version: 6.00 Build 0)  -->
<!DOCTYPE svg PUBLIC "-//W3C//DTD SVG 1.1//EN" "http://www.w3.org/Graphics/SVG/1.1/DTD/svg11.dtd">
<svg version="1.1" id="Layer_1" xmlns="http://www.w3.org/2000/svg" xmlns:xlink="http://www.w3.org/1999/xlink" x="0px" y="0px"
	 viewBox="0 0 48 48" enable-background="new 0 0 48 48" xml:space="preserve">
<g>
	<path fill="#4DA0D8" d="M44.2,20.7l-1.7-0.9c1-1.9,0.9-4.7-0.1-6.5c-0.2-0.3-0.3-0.6-0.5-0.9c-0.3-0.5-0.6-0.9-0.8-1.5
		c-0.9-2-0.6-4.7,0.6-6.5l1.6,1.2c-0.9,1.2-1,3.1-0.4,4.5c0.2,0.4,0.4,0.8,0.7,1.2c0.2,0.3,0.4,0.6,0.6,1
		C45.4,14.7,45.5,18.2,44.2,20.7z"/>
	<polygon fill="#F04B36" points="38.8,15.3 37.4,14 24,27.4 10.6,14 9.2,15.3 22.6,28.8 9.2,42.2 10.6,43.5 24,30.1 37.4,43.5 
		38.8,42.2 25.4,28.8 	"/>
	<polygon fill="#E77528" points="23.4,24 24,24.6 24.6,24 	"/>
	<polygon fill="#E77528" points="24.6,33.5 24,32.9 23.4,33.5 	"/>
	<path fill="#E77528" d="M43.8,24H32.9l-4.7,4.7l4.7,4.7h10.9c2,0,3.7-1.6,3.7-3.7v-2.1C47.5,25.7,45.9,24,43.8,24z"/>
	<path fill="#E77528" d="M19.8,28.8L15.1,24H0.5v9.5h14.6L19.8,28.8z M12.2,31.7v-5.8h2v5.8H12.2z"/>
</g>
</svg>
