<?xml version="1.0" encoding="utf-8"?>
<!-- Generator: Adobe Illustrator 18.0.0, SVG Export Plug-In . SVG Version: 6.00 Build 0)  -->
<!DOCTYPE svg PUBLIC "-//W3C//DTD SVG 1.1//EN" "http://www.w3.org/Graphics/SVG/1.1/DTD/svg11.dtd">
<svg version="1.1" id="Layer_1" xmlns="http://www.w3.org/2000/svg" xmlns:xlink="http://www.w3.org/1999/xlink" x="0px" y="0px"
	 viewBox="0 0 48 48" enable-background="new 0 0 48 48" xml:space="preserve">
<g>
	<path fill="#CFD0D1" d="M10.8,0.5c-1.5,0-3,0.5-4.3,1.3C3.2,4.1,2.2,8.6,4.3,12l0.5,0.9l12.8-8.6l-0.6-0.8
		C15.5,1.6,13.2,0.5,10.8,0.5z"/>
	<path fill="#CFD0D1" d="M41.4,1.8c-1.3-0.9-2.7-1.3-4.3-1.3c-2.4,0-4.6,1.1-6.1,3l-0.6,0.8l12.8,8.6l0.5-0.9
		C45.8,8.6,44.8,4.1,41.4,1.8z"/>
	<rect x="9.2" y="39" transform="matrix(0.7711 0.6368 -0.6368 0.7711 29.998 3.4467)" fill="#E77528" width="2" height="8.9"/>
	
		<rect x="33.3" y="42.5" transform="matrix(0.6367 0.7711 -0.7711 0.6367 47.2299 -13.3612)" fill="#E77528" width="8.9" height="2"/>
	<path fill="#0DB89A" d="M24,5.6c-10.9,0-19.7,8.8-19.7,19.7S13.1,45,24,45c10.9,0,19.7-8.8,19.7-19.7S34.9,5.6,24,5.6z M23,9.7h2
		v11.5h-2V9.7z M24,28.7c-1.8,0-3.4-1.5-3.4-3.4c0-1.8,1.5-3.4,3.4-3.4c1.8,0,3.4,1.5,3.4,3.4C27.4,27.1,25.8,28.7,24,28.7z
		 M35.6,26.3h-7.5v-2h7.5V26.3z"/>
	<circle fill="#F04B36" cx="24" cy="25.3" r="1.4"/>
</g>
</svg>
