<?xml version="1.0" encoding="utf-8"?>
<!-- Generator: Adobe Illustrator 18.0.0, SVG Export Plug-In . SVG Version: 6.00 Build 0)  -->
<!DOCTYPE svg PUBLIC "-//W3C//DTD SVG 1.1//EN" "http://www.w3.org/Graphics/SVG/1.1/DTD/svg11.dtd">
<svg version="1.1" id="Layer_1" xmlns="http://www.w3.org/2000/svg" xmlns:xlink="http://www.w3.org/1999/xlink" x="0px" y="0px"
	 viewBox="0 0 48 48" enable-background="new 0 0 48 48" xml:space="preserve">
<g>
	<path fill="#E77528" d="M35.8,12.8H12.3V7.7c0-2.5,2.1-4.6,4.6-4.6h14.4c2.5,0,4.6,2,4.6,4.6V12.8z M14.2,10.9h19.6V7.7
		c0-1.4-1.2-2.6-2.6-2.6H16.8c-1.4,0-2.6,1.2-2.6,2.6V10.9z"/>
	<polygon fill="#F04B36" points="30,26.4 25.5,26.4 25.5,21.8 22.5,21.8 22.5,26.4 18,26.4 18,29.3 22.5,29.3 22.5,33.9 25.5,33.9 
		25.5,29.3 30,29.3 	"/>
	<path fill="#06728D" d="M43.3,10.9H4.7c-2.3,0-4.2,1.9-4.2,4.2v25.6c0,2.3,1.9,4.2,4.2,4.2h38.6c2.3,0,4.2-1.9,4.2-4.2V15.1
		C47.5,12.8,45.6,10.9,43.3,10.9z M24,40c-6.7,0-12.2-5.4-12.2-12.2c0-6.7,5.4-12.2,12.2-12.2c6.7,0,12.2,5.4,12.2,12.2
		C36.2,34.6,30.7,40,24,40z"/>
</g>
</svg>
