<?xml version="1.0" encoding="utf-8"?>
<!-- Generator: Adobe Illustrator 18.0.0, SVG Export Plug-In . SVG Version: 6.00 Build 0)  -->
<!DOCTYPE svg PUBLIC "-//W3C//DTD SVG 1.1//EN" "http://www.w3.org/Graphics/SVG/1.1/DTD/svg11.dtd">
<svg version="1.1" id="Layer_1" xmlns="http://www.w3.org/2000/svg" xmlns:xlink="http://www.w3.org/1999/xlink" x="0px" y="0px"
	 viewBox="0 0 48 48" enable-background="new 0 0 48 48" xml:space="preserve">
<g>
	<path fill="#E77528" d="M35.3,8.1h-7.4V0.5h7.4V8.1z M29.9,6.2h3.4V2.5h-3.4V6.2z"/>
	<rect x="26.8" y="0.5" fill="#E77528" width="9.5" height="2"/>
	<rect x="27" y="29.7" fill="#E77528" width="2" height="1.7"/>
	<rect x="34.1" y="29.7" fill="#E77528" width="2" height="1.7"/>
	<path fill="#4DA0D8" d="M15.2,17.2v-1.7c0-1.4-1.2-2.5-2.6-2.5H9c-1.4,0-2.6,1.1-2.6,2.5v1.7H15.2z M8.4,15.5C8.4,15.2,8.7,15,9,15
		h3.7c0.3,0,0.6,0.3,0.6,0.6v1.1H8.4V15.5z"/>
	<rect x="0.5" y="32" fill="#0DB89A" width="42.2" height="2"/>
	<rect x="3.3" y="42" fill="#F7A93B" width="44.2" height="5.5"/>
	<polygon fill="#CFD0D1" points="5,41.3 1.1,35.9 2.7,34.8 6.7,40.1 	"/>
	<polygon fill="#CFD0D1" points="10,41.3 6,35.9 7.6,34.8 11.6,40.1 	"/>
	<polygon fill="#CFD0D1" points="14.9,41.3 11,35.9 12.6,34.8 16.5,40.1 	"/>
	<polygon fill="#CFD0D1" points="19.9,41.3 15.9,35.9 17.5,34.8 21.5,40.1 	"/>
	<polygon fill="#CFD0D1" points="24.8,41.3 20.9,35.9 22.5,34.8 26.4,40.1 	"/>
	<polygon fill="#CFD0D1" points="29.8,41.3 25.8,35.9 27.4,34.8 31.4,40.1 	"/>
	<polygon fill="#CFD0D1" points="34.7,41.3 30.8,35.9 32.4,34.8 36.3,40.1 	"/>
	<polygon fill="#CFD0D1" points="39.7,41.3 35.7,35.9 37.3,34.8 41.3,40.1 	"/>
	<polygon fill="#CFD0D1" points="44.6,41.3 40.7,35.9 42.3,34.8 46.2,40.1 	"/>
	<path fill="#06728D" d="M36.9,6.2H26.3c-2.3,0-4.1,1.8-4.1,4v15.7c0,2.2,1.8,4,4.1,4h10.6c2.3,0,4.1-1.8,4.1-4V10.2
		C41,8,39.1,6.2,36.9,6.2z"/>
	<path fill="#F04B36" d="M11.8,26.6h-2v-1.3H1.4v4.1c0,1.1,0.9,2,2,2h14.7c1.1,0,2-0.9,2-2v-4.1h-8.4V26.6z"/>
	<path fill="#E77528" d="M18.2,16.6H3.5c-1.1,0-2,0.9-2,2v4.7h8.4v-5.2h2v5.2h8.4v-4.7C20.2,17.5,19.3,16.6,18.2,16.6z"/>
</g>
</svg>
