<?xml version="1.0" encoding="utf-8"?>
<!-- Generator: Adobe Illustrator 18.0.0, SVG Export Plug-In . SVG Version: 6.00 Build 0)  -->
<!DOCTYPE svg PUBLIC "-//W3C//DTD SVG 1.1//EN" "http://www.w3.org/Graphics/SVG/1.1/DTD/svg11.dtd">
<svg version="1.1" id="Layer_1" xmlns="http://www.w3.org/2000/svg" xmlns:xlink="http://www.w3.org/1999/xlink" x="0px" y="0px"
	 viewBox="0 0 48 48" enable-background="new 0 0 48 48" xml:space="preserve">
<g>
	<polygon fill="#F7A93B" points="11.8,42.1 11.8,18.4 9.8,18.4 9.8,44 47.5,44 47.5,42.1 	"/>
	<rect x="4" y="45.5" fill="#06728D" width="43.5" height="2"/>
	<path fill="#0DB89A" d="M10.4,0.5c-5.4,0-9.9,4.2-9.9,9.4c0,5.2,4.4,9.4,9.9,9.4s9.9-4.2,9.9-9.4C20.2,4.7,15.8,0.5,10.4,0.5z
		 M8.5,14.1h-2v-3h2V14.1z M8.5,8.7h-2v-3h2V8.7z M14.3,14.1h-2v-3h2V14.1z M14.3,8.7h-2v-3h2V8.7z"/>
	<path fill="#06728D" d="M38.7,18.4v-3.9c0-1.1-0.9-2-2.1-2h-9.1c-1.2,0-2.1,0.9-2.1,2v3.9h-0.9V40h15.1V18.4H38.7z M27.4,14.5
		C27.4,14.4,27.4,14.4,27.4,14.5l9.2-0.1c0,0,0.1,0,0.1,0.1v3.9h-9.3V14.5z"/>
	<path fill="#E77528" d="M43.9,18.4h-2.4V40h2.4c0.8,0,1.4-0.6,1.4-1.4V19.7C45.3,19,44.7,18.4,43.9,18.4z"/>
	<path fill="#E77528" d="M22.5,18.4h-2.4c-0.8,0-1.4,0.6-1.4,1.4v18.9c0,0.8,0.6,1.4,1.4,1.4h2.4V18.4z"/>
</g>
</svg>
