<?xml version="1.0" encoding="utf-8"?>
<!-- Generator: Adobe Illustrator 18.0.0, SVG Export Plug-In . SVG Version: 6.00 Build 0)  -->
<!DOCTYPE svg PUBLIC "-//W3C//DTD SVG 1.1//EN" "http://www.w3.org/Graphics/SVG/1.1/DTD/svg11.dtd">
<svg version="1.1" id="Layer_1" xmlns="http://www.w3.org/2000/svg" xmlns:xlink="http://www.w3.org/1999/xlink" x="0px" y="0px"
	 viewBox="0 0 48 48" enable-background="new 0 0 48 48" xml:space="preserve">
<g>
	<path fill="#4DA0D8" d="M12.1,38.6c-3.7,0-7.1-1.7-9.5-4.5l1.8,10.2c0.7,0.4,3.4,1,7.8,1c4.4,0,7.1-0.6,7.8-1l0-0.1l1.8-10.1
		C19.2,36.9,15.8,38.6,12.1,38.6z"/>
	<path fill="#F04B36" d="M12.1,20.4c-6.8,0-11,1.3-11.6,2.1c0.6,0.8,4.7,2.1,11.6,2.1c6.8,0,11-1.3,11.6-2.1
		C23.1,21.7,18.9,20.4,12.1,20.4z"/>
	<path fill="#0DB89A" d="M12.1,36.6c4.7,0,8.7-3.3,10.5-8l0.6-3.6c-2.9,1.2-7.8,1.6-11.1,1.6c-3.3,0-8.2-0.4-11.1-1.6l0.6,3.6
		C3.4,33.3,7.4,36.6,12.1,36.6z"/>
	<polygon fill="#F7A93B" points="34.9,34.6 13.9,1.6 15.7,0.5 36.6,33.5 	"/>
	<path fill="#F7A93B" d="M29.7,42.2l-1.2-1.9c-0.7-1.1-0.4-2.6,0.6-3.2l12.1-7.9c0.5-0.3,1.1-0.4,1.7-0.3c0.6,0.1,1.2,0.5,1.6,1.1
		l1.2,1.9L43.9,33l-1.2-1.9c-0.1-0.1-0.2-0.2-0.2-0.2c-0.1,0-0.1,0-0.1,0l-12.1,7.9c-0.1,0.1-0.1,0.3,0,0.5l1.2,1.9L29.7,42.2z"/>
	<path fill="#06728D" d="M35.4,47.5c0-0.8,0-1.6-0.3-2.3c-0.2-0.6-0.6-1.2-1-1.4c-0.1,0-0.2-0.1-0.2-0.1c-0.2-0.1-0.6-0.2-0.8-0.4
		c-0.7-0.5-0.9-1.3-1-1.8c-0.1-0.2-0.1-0.4-0.2-0.5c-0.2-0.6-0.8-1.1-1.3-1.6l1.4-1.5c0.6,0.6,1.4,1.3,1.8,2.3
		c0.1,0.2,0.2,0.5,0.2,0.7c0.1,0.3,0.2,0.7,0.3,0.8c0.1,0,0.2,0.1,0.3,0.2c0.1,0,0.3,0.1,0.4,0.2c1,0.5,1.7,1.4,2.1,2.6
		c0.3,1,0.3,2,0.4,2.8L35.4,47.5z"/>
	<path fill="#06728D" d="M38.5,45.4c0-0.8,0-1.6-0.3-2.3c-0.2-0.6-0.6-1.2-1-1.4c-0.1,0-0.2-0.1-0.2-0.1c-0.2-0.1-0.5-0.2-0.8-0.4
		c-0.7-0.5-0.9-1.3-1-1.8c0-0.2-0.1-0.4-0.2-0.5c-0.2-0.6-0.8-1.1-1.3-1.6l1.4-1.5c0.6,0.6,1.4,1.3,1.8,2.3c0.1,0.2,0.2,0.5,0.2,0.7
		c0.1,0.3,0.2,0.7,0.3,0.8c0.1,0,0.2,0.1,0.3,0.1c0.1,0,0.3,0.1,0.4,0.2c1,0.5,1.7,1.4,2.1,2.6c0.3,1,0.3,2,0.4,2.8L38.5,45.4z"/>
	<path fill="#06728D" d="M42.3,43.1c0-0.8,0-1.6-0.3-2.3c-0.2-0.6-0.6-1.2-1-1.4c-0.1,0-0.2-0.1-0.2-0.1c-0.2-0.1-0.5-0.2-0.8-0.4
		c-0.7-0.5-0.9-1.3-1-1.8c0-0.2-0.1-0.4-0.2-0.5c-0.2-0.6-0.8-1.1-1.3-1.6l1.4-1.5c0.6,0.6,1.4,1.3,1.8,2.3c0.1,0.2,0.2,0.5,0.2,0.7
		c0.1,0.3,0.2,0.7,0.3,0.8c0.1,0,0.2,0.1,0.3,0.1c0.1,0,0.3,0.1,0.4,0.2c1,0.5,1.7,1.4,2.1,2.6c0.3,1,0.3,2,0.4,2.8L42.3,43.1z"/>
	<path fill="#06728D" d="M45.4,41c0-0.8,0-1.6-0.3-2.3c-0.2-0.6-0.6-1.2-1-1.4c-0.1,0-0.2-0.1-0.2-0.1c-0.2-0.1-0.5-0.2-0.8-0.4
		c-0.7-0.5-0.9-1.3-1-1.8c0-0.2-0.1-0.4-0.2-0.5c-0.2-0.6-0.8-1.1-1.3-1.6l1.4-1.5c0.6,0.6,1.4,1.3,1.8,2.3c0.1,0.2,0.2,0.5,0.2,0.7
		c0.1,0.3,0.2,0.7,0.3,0.8c0.1,0,0.2,0.1,0.3,0.1c0.1,0,0.3,0.1,0.4,0.2c1,0.5,1.7,1.4,2.1,2.6c0.3,1,0.3,2,0.4,2.8L45.4,41z"/>
</g>
</svg>
