<?xml version="1.0" encoding="utf-8"?>
<!-- Generator: Adobe Illustrator 18.0.0, SVG Export Plug-In . SVG Version: 6.00 Build 0)  -->
<!DOCTYPE svg PUBLIC "-//W3C//DTD SVG 1.1//EN" "http://www.w3.org/Graphics/SVG/1.1/DTD/svg11.dtd">
<svg version="1.1" id="Layer_1" xmlns="http://www.w3.org/2000/svg" xmlns:xlink="http://www.w3.org/1999/xlink" x="0px" y="0px"
	 viewBox="0 0 48 48" enable-background="new 0 0 48 48" xml:space="preserve">
<g>
	<path fill="#0DB89A" d="M47,8.7c-0.3-0.2-0.6-0.2-0.9-0.2c-0.4,0-0.9,0.1-1.5,0.7c-2.7,3-4.2,18.3-4.1,19.3
		c0.1,1.2,1.5,1.8,2.5,2.1l-1.1,7c-0.1,0.3,0.1,0.7,0.3,0.9c0.8,0.6,1.6,1,2.4,1c1.4,0,2.3-1,2.4-1.1c0.2-0.2,0.2-0.4,0.2-0.6V9.6
		C47.5,9.2,47.3,8.9,47,8.7z"/>
	<path fill="#06728D" d="M11.9,15.2c0-3.7-2.6-6.7-5.7-6.7c-3.2,0-5.7,3-5.7,6.7c0,3.3,2.1,6,4.7,6.6v16.8h2V21.7
		C9.9,21.2,11.9,18.5,11.9,15.2z"/>
	<path fill="#CFD0D1" d="M25.5,9.8c-7.8,0-14.2,6.4-14.2,14.2c0,7.8,6.4,14.2,14.2,14.2c7.8,0,14.2-6.4,14.2-14.2
		C39.7,16.2,33.3,9.8,25.5,9.8z M25.5,33.2c-5.1,0-9.2-4.1-9.2-9.2s4.1-9.2,9.2-9.2c5.1,0,9.2,4.1,9.2,9.2S30.6,33.2,25.5,33.2z"/>
	<path fill="#CFD0D1" d="M25.5,16.8c-4,0-7.2,3.3-7.2,7.2s3.3,7.2,7.2,7.2c4,0,7.2-3.3,7.2-7.2S29.5,16.8,25.5,16.8z"/>
</g>
</svg>
