<?xml version="1.0" encoding="utf-8"?>
<!-- Generator: Adobe Illustrator 18.0.0, SVG Export Plug-In . SVG Version: 6.00 Build 0)  -->
<!DOCTYPE svg PUBLIC "-//W3C//DTD SVG 1.1//EN" "http://www.w3.org/Graphics/SVG/1.1/DTD/svg11.dtd">
<svg version="1.1" id="Layer_1" xmlns="http://www.w3.org/2000/svg" xmlns:xlink="http://www.w3.org/1999/xlink" x="0px" y="0px"
	 viewBox="0 0 48 48" enable-background="new 0 0 48 48" xml:space="preserve">
<g>
	<polygon fill="#06728D" points="28.4,45.5 19.6,45.5 19.6,44.1 17.6,44.1 17.6,47.5 30.4,47.5 30.4,44.1 28.4,44.1 	"/>
	<polygon fill="#F04B36" points="11,44.1 17.6,44.1 17.6,33.2 11.9,33.2 24,22 36.1,33.2 30.4,33.2 30.4,44.1 37,44.1 37,10.1 
		11,10.1 	"/>
	<polygon fill="#F04B36" points="28.4,44.1 28.4,31.2 30.9,31.2 24,24.8 17.1,31.2 19.6,31.2 19.6,44.1 	"/>
	<path fill="#4DA0D8" d="M0.5,0.5v43.6h8.4V8.1h30.2v35.9h8.4V0.5H0.5z M43.6,36.1h-2v-2h2V36.1z M43.6,32.4h-2v-2h2V32.4z
		 M43.6,28.8h-2v-2h2V28.8z M43.6,25.1h-2v-2h2V25.1z M43.6,21.5h-2v-2h2V21.5z M43.6,17.8h-2v-2h2V17.8z"/>
</g>
</svg>
