<?xml version="1.0" encoding="utf-8"?>
<!-- Generator: Adobe Illustrator 18.0.0, SVG Export Plug-In . SVG Version: 6.00 Build 0)  -->
<!DOCTYPE svg PUBLIC "-//W3C//DTD SVG 1.1//EN" "http://www.w3.org/Graphics/SVG/1.1/DTD/svg11.dtd">
<svg version="1.1" id="Layer_1" xmlns="http://www.w3.org/2000/svg" xmlns:xlink="http://www.w3.org/1999/xlink" x="0px" y="0px"
	 viewBox="0 0 48 48" enable-background="new 0 0 48 48" xml:space="preserve">
<g>
	<path fill="#4DA0D8" d="M24,41c-9.4,0-17-7.6-17-17S14.6,7,24,7c9.4,0,17,7.6,17,17S33.4,41,24,41z M24,9C15.7,9,9,15.7,9,24
		c0,8.3,6.7,15,15,15s15-6.7,15-15C39,15.7,32.3,9,24,9z"/>
	<g>
		<g>
			<rect x="23" y="0.5" fill="#F04B36" width="2" height="4.7"/>
		</g>
		<g>
			<rect x="23" y="42.8" fill="#F04B36" width="2" height="4.7"/>
		</g>
	</g>
	<g>
		<rect x="23" y="10.8" fill="#F04B36" width="2" height="26.3"/>
	</g>
	<g>
		<g>
			<rect x="42.8" y="23" fill="#F04B36" width="4.7" height="2"/>
		</g>
		<g>
			<rect x="0.5" y="23" fill="#F04B36" width="4.7" height="2"/>
		</g>
	</g>
	<g>
		<rect x="10.8" y="23" fill="#F04B36" width="26.3" height="2"/>
	</g>
	<g>
		<g>
			
				<rect x="38" y="6.7" transform="matrix(0.7071 0.7071 -0.7071 0.7071 17.8117 -24.8812)" fill="#F04B36" width="2" height="4.7"/>
		</g>
		<g>
			<rect x="8.1" y="36.6" transform="matrix(0.7071 0.7071 -0.7071 0.7071 30.1882 4.999)" fill="#F04B36" width="2" height="4.7"/>
		</g>
	</g>
	<g>
		<rect x="23" y="10.8" transform="matrix(0.7071 0.7071 -0.7071 0.7071 24 -9.9409)" fill="#F04B36" width="2" height="26.3"/>
	</g>
	<g>
		<g>
			
				<rect x="36.6" y="38" transform="matrix(0.7071 0.7071 -0.7071 0.7071 38.9431 -16.1293)" fill="#F04B36" width="4.7" height="2"/>
		</g>
		<g>
			<rect x="6.7" y="8.1" transform="matrix(0.7071 0.7072 -0.7072 0.7071 9.0609 -3.7527)" fill="#F04B36" width="4.7" height="2"/>
		</g>
	</g>
	<g>
		
			<rect x="10.8" y="23" transform="matrix(0.7071 0.7071 -0.7071 0.7071 23.9995 -9.9409)" fill="#F04B36" width="26.3" height="2"/>
	</g>
</g>
</svg>
