<?xml version="1.0" encoding="utf-8"?>
<!-- Generator: Adobe Illustrator 18.0.0, SVG Export Plug-In . SVG Version: 6.00 Build 0)  -->
<!DOCTYPE svg PUBLIC "-//W3C//DTD SVG 1.1//EN" "http://www.w3.org/Graphics/SVG/1.1/DTD/svg11.dtd">
<svg version="1.1" id="Layer_1" xmlns="http://www.w3.org/2000/svg" xmlns:xlink="http://www.w3.org/1999/xlink" x="0px" y="0px"
	 viewBox="0 0 48 48" enable-background="new 0 0 48 48" xml:space="preserve">
<g>
	<path fill="#F04B36" d="M46.8,35.6L46.5,35h-1.9v-3.3c0-3.3-2.7-5.9-6-5.9c-3.3,0-6,2.7-6,5.9V35h-1.9l-0.3,0.6
		c-0.5,1.1-0.7,2.2-0.7,3.4c0,1.2,0.2,2.3,0.7,3.4c1.4,3.3,4.6,5.4,8.1,5.4c4.9,0,8.8-3.9,8.8-8.8C47.5,37.8,47.2,36.7,46.8,35.6z
		 M34.6,31.7c0-2.2,1.8-3.9,4-3.9s4,1.8,4,3.9V35h-8V31.7z M39.6,43.8h-2v-3.3h2V43.8z"/>
	<path fill="#0DB89A" d="M22.5,14.9l-6.6,0v12.6l6.9,0c0.5,0,4.9-0.4,4.9-6.2C27.7,15.3,22.7,14.9,22.5,14.9z"/>
	<path fill="#0DB89A" d="M36.6,31.7V33h3.2v-2.9c-0.3-0.2-0.7-0.4-1.2-0.4C37.5,29.7,36.6,30.6,36.6,31.7z"/>
	<path fill="#0DB89A" d="M28.3,42.2c-0.3-1-0.5-2.1-0.5-3.2c0-1.5,0.3-2.9,0.9-4.2l0.8-1.8h1.2v-1.3c0-4.4,3.6-7.9,7.9-7.9
		c0.4,0,0.8,0,1.2,0.1V11.7l2.3,1.2l0.9-1.8L21.8,0.2L0.5,11.1l0.9,1.8l2.3-1.2v30.5H28.3z M13.9,12.9h8.7c0.1,0,7.1,0.5,7.1,8.3
		c0,7.8-6.8,8.2-6.8,8.2l-7,0v8.7h-2V12.9z"/>
</g>
</svg>
