<?xml version="1.0" encoding="utf-8"?>
<!-- Generator: Adobe Illustrator 18.0.0, SVG Export Plug-In . SVG Version: 6.00 Build 0)  -->
<!DOCTYPE svg PUBLIC "-//W3C//DTD SVG 1.1//EN" "http://www.w3.org/Graphics/SVG/1.1/DTD/svg11.dtd">
<svg version="1.1" id="Layer_1" xmlns="http://www.w3.org/2000/svg" xmlns:xlink="http://www.w3.org/1999/xlink" x="0px" y="0px"
	 viewBox="0 0 48 48" enable-background="new 0 0 48 48" xml:space="preserve">
<g>
	<path fill="#F04B36" d="M47.5,24.4h-3.9c0-11-8.8-20-19.6-20c-10.8,0-19.6,9-19.6,20H0.5C0.5,11.2,11,0.5,24,0.5
		C37,0.5,47.5,11.2,47.5,24.4z"/>
	<path fill="#CFD0D1" d="M41.6,24.4h-3.9c0-7.7-6.2-14-13.7-14c-7.6,0-13.7,6.3-13.7,14H6.4c0-9.9,7.9-17.9,17.6-17.9
		C33.7,6.5,41.6,14.5,41.6,24.4z"/>
	<path fill="#CFD0D1" d="M35.8,24.4h-3.9c0-4.4-3.5-8-7.8-8c-4.3,0-7.8,3.6-7.8,8h-3.9c0-6.6,5.3-11.9,11.8-11.9
		C30.5,12.5,35.8,17.8,35.8,24.4z"/>
	<path fill="#0DB89A" d="M5.3,47.5L1.5,32.2h2L5.3,40c0.4,1.9,0.8,3.8,1.1,5.3h0c0.2-1.5,0.7-3.3,1.2-5.3l2-7.7h2l1.8,7.8
		c0.4,1.8,0.8,3.6,1,5.2h0c0.3-1.7,0.7-3.4,1.2-5.3l2-7.7h2l-4.2,15.3h-2l-1.9-8c-0.5-1.9-0.8-3.4-1-5h0c-0.3,1.5-0.6,3-1.2,5
		l-2.1,8H5.3z"/>
	<path fill="#0DB89A" d="M23.6,32.2v15.3h-1.9V32.2H23.6z"/>
	<path fill="#0DB89A" d="M31.4,40.6v1.5h-5.5v-1.5H31.4z"/>
	<path fill="#0DB89A" d="M33.8,32.2h8.1v1.7h-6.1V39h5.7v1.6h-5.7v6.9h-1.9V32.2z"/>
	<path fill="#0DB89A" d="M46.5,32.2v15.3h-1.9V32.2H46.5z"/>
</g>
</svg>
