<?xml version="1.0" encoding="utf-8"?>
<!-- Generator: Adobe Illustrator 18.0.0, SVG Export Plug-In . SVG Version: 6.00 Build 0)  -->
<!DOCTYPE svg PUBLIC "-//W3C//DTD SVG 1.1//EN" "http://www.w3.org/Graphics/SVG/1.1/DTD/svg11.dtd">
<svg version="1.1" id="Layer_1" xmlns="http://www.w3.org/2000/svg" xmlns:xlink="http://www.w3.org/1999/xlink" x="0px" y="0px"
	 viewBox="0 0 48 48" enable-background="new 0 0 48 48" xml:space="preserve">
<g>
	<path fill="#06728D" d="M23.3,24.6c-1.6-0.6-2.9-1.6-4-3c-1.1-1.4-1.6-3-1.8-4.7L2.8,31.9l2.4,3.3L23.3,24.6z"/>
	<path fill="#4DA0D8" d="M26.4,23.2c1.5,0,2.9-0.5,4.1-1.4c3-2.3,3.6-6.8,1.3-9.9c-1.3-1.8-3.3-2.8-5.5-2.8c-1.5,0-2.9,0.5-4.1,1.4
		c-3,2.3-3.6,6.8-1.3,9.9C22.2,22.2,24.2,23.2,26.4,23.2z"/>
	<path fill="#294E58" d="M13.2,37.1l-4.5,2.6c-0.4,0.2-0.8,0.5-1.2,0.6c-1,0.4-2.3,0.3-3.2-0.4c-0.9-0.6-1.6-1.7-1.7-2.8
		c-0.1-0.5,0.1-1.2,0.4-1.6l-1.3-1.7c-0.9,0.9-1.3,2.3-1.1,3.5c0.2,1.8,1.2,3.4,2.7,4.3c0.9,0.6,2,0.9,3.1,0.9
		c0.7,0,1.3-0.1,1.9-0.3c0.6-0.2,1-0.5,1.5-0.8l4.5-2.6c0.9-0.5,2-1.1,3-1.2l-0.1-2.1C15.7,35.7,14.3,36.4,13.2,37.1z"/>
	<path fill="#F04B36" d="M47.5,24.6V3.7c0-1.7-1.4-3.2-3.1-3.2H14.2c-1.7,0-3.1,1.4-3.1,3.2v16.8l6.7-6.8c0.5-1.9,1.6-3.6,3.2-4.8
		c1.6-1.2,3.4-1.9,5.4-1.9c2.8,0,5.4,1.3,7.1,3.6c3,4,2.2,9.7-1.7,12.7c-1.6,1.2-3.4,1.9-5.4,1.9c0,0,0,0,0,0L22,27.7h22.4
		C46.1,27.7,47.5,26.3,47.5,24.6z"/>
	<polygon fill="#F7A93B" points="30.5,29.8 28.4,29.8 28.4,35.5 20.4,46.3 22.1,47.5 28.4,38.9 28.4,46.9 30.5,46.9 30.5,38.9 
		36.8,47.5 38.5,46.3 30.5,35.5 	"/>
</g>
</svg>
