<?xml version="1.0" encoding="utf-8"?>
<!-- Generator: Adobe Illustrator 18.0.0, SVG Export Plug-In . SVG Version: 6.00 Build 0)  -->
<!DOCTYPE svg PUBLIC "-//W3C//DTD SVG 1.1//EN" "http://www.w3.org/Graphics/SVG/1.1/DTD/svg11.dtd">
<svg version="1.1" id="Layer_1" xmlns="http://www.w3.org/2000/svg" xmlns:xlink="http://www.w3.org/1999/xlink" x="0px" y="0px"
	 viewBox="0 0 48 48" enable-background="new 0 0 48 48" xml:space="preserve">
<g>
	<path fill="#F7A93B" d="M11,14.8l0.1-0.5c1-6.5-0.7-10.7-2.4-13.2C4,3,0.5,8.9,0.5,15.9c0,7.6,4.1,13.9,9.4,15.2
		C9,27.2,9.8,22.6,11,14.8z"/>
	<path fill="#E77528" d="M11.9,0.5c-0.4,0-0.8,0-1.1,0.1c1.7,2.8,3.4,7.4,2.3,14L13,15.2c-1.3,8.3-2,12.5-1,16.2
		c6.3-0.1,11.3-7,11.3-15.4C23.4,7.4,18.3,0.5,11.9,0.5z"/>
	<path fill="#F7A93B" d="M34.1,32.4l0.4-0.3c5.3-3.9,6.9-8.2,7.5-11.1c-4.7-2-11.3-0.1-16.2,4.9c-5.3,5.4-6.8,12.8-3.8,17.5
		C24.1,39.9,27.7,37.1,34.1,32.4z"/>
	<path fill="#E77528" d="M44.7,22.8c-0.3-0.3-0.6-0.5-0.9-0.8c-0.7,3.2-2.7,7.7-8.1,11.7l-0.4,0.3c-6.7,5-10.2,7.6-12,10.9
		c4.6,4.3,12.9,2.9,18.8-3.2C48.1,35.7,49.3,27.2,44.7,22.8z"/>
</g>
</svg>
