<?xml version="1.0" encoding="utf-8"?>
<!-- Generator: Adobe Illustrator 18.0.0, SVG Export Plug-In . SVG Version: 6.00 Build 0)  -->
<!DOCTYPE svg PUBLIC "-//W3C//DTD SVG 1.1//EN" "http://www.w3.org/Graphics/SVG/1.1/DTD/svg11.dtd">
<svg version="1.1" id="Layer_1" xmlns="http://www.w3.org/2000/svg" xmlns:xlink="http://www.w3.org/1999/xlink" x="0px" y="0px"
	 viewBox="0 0 48 48" enable-background="new 0 0 48 48" xml:space="preserve">
<g>
	<path fill="#F04B36" d="M45.6,2.4c-1.8-1.8-4.5-2.3-6.8-1.5c-0.1,0.8,0.1,1.2,0.2,1.4c0.4,0.7,0.9,1,1.4,1.5L40.7,4
		c0.3,0.2,0.7,0.4,1,0.6c0.6,0.3,1.3,0.7,1.9,1.4c0.8,0.9,1.2,2.2,1,3.3c-0.2,1.2-1,2.2-2.1,2.8c-0.4,0.2-0.8,0.4-1.4,0.5
		c-0.6,0.1-1.5,0.2-2.5,0.2c-0.3,0-0.5,0-0.8,0c2.5,1.3,5.6,1,7.7-1.1C48.1,9.1,48.1,5,45.6,2.4z"/>
	<path fill="#F04B36" d="M40.6,10.7c0.4-0.1,0.7-0.2,0.9-0.3c0.6-0.3,1-0.8,1.1-1.4c0.1-0.6-0.1-1.2-0.5-1.7
		c-0.3-0.4-0.8-0.6-1.4-0.9c-0.4-0.2-0.9-0.5-1.3-0.8l-0.3-0.2c-0.6-0.5-1.3-1-2-2.1C37,3,36.8,2.6,36.7,2.1
		c-0.1,0.1-0.2,0.2-0.3,0.3c-2.2,2.2-2.5,5.7-0.8,8.2C37.1,10.8,39.7,10.9,40.6,10.7z"/>
	<path fill="#4DA0D8" d="M24.7,11.6C21.1,8,16.5,5.9,12,5.9c-3.3,0-6.2,1.2-8.3,3.3c-5.1,5.1-4,14.5,2.4,21
		c3.6,3.6,8.2,5.7,12.6,5.7c2.9,0,5.5-0.9,7.6-2.6l1.4-1.4C32.1,26.5,30.8,17.7,24.7,11.6z"/>
	<polygon fill="#E77528" points="27.7,31.8 26.3,33.2 29.4,36.3 30.8,34.9 	"/>
	<path fill="#0DB89A" d="M41,42l-6.4-6.5c-1-1-2.5-1.2-3.7-0.6l-1.4,1.4c-0.6,1.2-0.4,2.7,0.6,3.8l6.4,6.5c0.6,0.6,1.4,1,2.3,1
		c0.9,0,1.7-0.3,2.3-1C42.3,45.3,42.3,43.2,41,42z"/>
</g>
</svg>
