<?xml version="1.0" encoding="utf-8"?>
<!-- Generator: Adobe Illustrator 18.0.0, SVG Export Plug-In . SVG Version: 6.00 Build 0)  -->
<!DOCTYPE svg PUBLIC "-//W3C//DTD SVG 1.1//EN" "http://www.w3.org/Graphics/SVG/1.1/DTD/svg11.dtd">
<svg version="1.1" id="Layer_1" xmlns="http://www.w3.org/2000/svg" xmlns:xlink="http://www.w3.org/1999/xlink" x="0px" y="0px"
	 viewBox="0 0 48 48" enable-background="new 0 0 48 48" xml:space="preserve">
<g>
	<path fill="#06728D" d="M8.8,13.8c-1.4,0-2.6,0.8-3.1,2H2.5l-2,3.8l1.8,0.9l1.5-2.8H5l-2.2,6l-0.1,1.4l8.4-4.1h3.2v-7.3H8.8z"/>
	<path fill="#F7A93B" d="M16.2,21.2h31.3v-4.6c0-1.5-1.2-2.7-2.7-2.7H16.2V21.2z"/>
	<circle fill="#F04B36" cx="10.4" cy="32.2" r="2"/>
	<circle fill="#F04B36" cx="32.8" cy="32.2" r="2"/>
	<path fill="#4DA0D8" d="M11.5,23.2l-9,4.4l0,0.4c-0.6,2.2,1.1,4.3,3.3,4.3h0.6c0,0,0-0.1,0-0.1c0-2.2,1.8-4,4-4c2.2,0,4,1.8,4,4
		c0,0,0,0.1,0,0.1h14.4c0,0,0-0.1,0-0.1c0-2.2,1.8-4,4-4c2.2,0,4,1.8,4,4c0,0,0,0.1,0,0.1h0.4c0,0,0-0.1,0-0.1c0-2.2,1.8-4,4-4
		c2.2,0,4,1.8,4,4c0,0,0,0.1,0,0.1h0.1c1.1,0,2.1-0.9,2.1-2.1v-7H11.5z"/>
	<circle fill="#F04B36" cx="41.3" cy="32.2" r="2"/>
</g>
</svg>
