<?xml version="1.0" encoding="utf-8"?>
<!-- Generator: Adobe Illustrator 18.0.0, SVG Export Plug-In . SVG Version: 6.00 Build 0)  -->
<!DOCTYPE svg PUBLIC "-//W3C//DTD SVG 1.1//EN" "http://www.w3.org/Graphics/SVG/1.1/DTD/svg11.dtd">
<svg version="1.1" id="Layer_1" xmlns="http://www.w3.org/2000/svg" xmlns:xlink="http://www.w3.org/1999/xlink" x="0px" y="0px"
	 viewBox="0 0 48 48" enable-background="new 0 0 48 48" xml:space="preserve">
<g>
	<polygon fill="#F04B36" points="35.3,26 34.4,26.3 33.6,28.5 31.3,28.4 30,30.3 27.7,29.7 27.1,30.3 34.3,47.5 37.5,42.2 
		42.7,43.8 	"/>
	<polygon fill="#F04B36" points="20.3,29.7 18,30.3 16.7,28.4 14.4,28.5 13.6,26.3 12.7,26 5.3,43.8 10.5,42.2 13.7,47.5 20.9,30.3 
			"/>
	<path fill="#0DB89A" d="M22.3,28.6L22.3,28.6l1.7-0.9l1.7,0.9l0,0l1.4-1.3l1.9,0.5l1.1-1.6l2,0l0.7-1.8l1.9-0.4l0.2-1.9l1.7-0.9
		l-0.3-1.9l1.5-1.3L37,16.1l1.1-1.6L37,13l0.7-1.8l-1.5-1.3L36.5,8l-1.7-0.9l-0.2-1.9l-1.9-0.4L32,2.9l-2,0L29,1.3l-1.9,0.5
		l-1.4-1.3L24,1.4l-1.7-0.9l-1.4,1.3L19,1.3l-1.1,1.6l-2,0l-0.7,1.8l-1.9,0.4l-0.2,1.9L11.5,8l0.3,1.9l-1.5,1.3L11,13l-1.1,1.6
		l1.1,1.6l-0.7,1.8l1.5,1.3l-0.3,1.9l1.7,0.9l0.2,1.9l1.9,0.4l0.7,1.8l2,0l1.1,1.6l1.9-0.5L22.3,28.6z M14.9,14.6
		c0-5,4.1-9.1,9.1-9.1c5,0,9.1,4.1,9.1,9.1c0,5-4.1,9.1-9.1,9.1C19,23.7,14.9,19.6,14.9,14.6z"/>
	<path fill="#F7A93B" d="M30.9,14.6c0-3.8-3.1-6.9-6.9-6.9c-3.8,0-6.9,3.1-6.9,6.9c0,3.8,3.1,6.9,6.9,6.9
		C27.8,21.5,30.9,18.4,30.9,14.6z"/>
</g>
</svg>
