<?xml version="1.0" encoding="utf-8"?>
<!-- Generator: Adobe Illustrator 18.0.0, SVG Export Plug-In . SVG Version: 6.00 Build 0)  -->
<!DOCTYPE svg PUBLIC "-//W3C//DTD SVG 1.1//EN" "http://www.w3.org/Graphics/SVG/1.1/DTD/svg11.dtd">
<svg version="1.1" id="Layer_1" xmlns="http://www.w3.org/2000/svg" xmlns:xlink="http://www.w3.org/1999/xlink" x="0px" y="0px"
	 viewBox="0 0 48 48" enable-background="new 0 0 48 48" xml:space="preserve">
<g>
	<path fill="#E77528" d="M38.3,33.8c-1.8,0-3.6-0.4-5.2-1.3C31,34.8,28,36,24.8,36c-3.4,0-6.6-1.5-8.8-4c-1.8,1.1-3.9,1.7-6.1,1.7
		c-0.4,0-0.8,0-1.2-0.1v13.8h30.8V33.7C39.2,33.7,38.8,33.8,38.3,33.8z"/>
	<path fill="#F7A93B" d="M47.5,22.5c0-3.5-2.1-6.8-5.3-8.3l-0.8-0.4l0.3-0.9c0.3-0.9,0.4-1.8,0.4-2.7c0-5.3-4.3-9.6-9.7-9.6
		c-3,0-5.9,1.4-7.7,3.8L24,5.2l-0.9-0.7c-1.7-1.3-3.7-2-5.9-2c-5.3,0-9.7,4.3-9.7,9.6V13l-0.7,0.2c-3.8,1.3-6.4,4.9-6.4,9
		c0,5.2,4.3,9.5,9.5,9.5c2,0,4-0.6,5.6-1.9l0.9-0.6l0.6,0.9c1.8,2.4,4.7,3.9,7.7,3.9c2.8,0,5.5-1.2,7.3-3.4l0.6-0.7l0.8,0.5
		c1.5,0.9,3.1,1.4,4.8,1.4C43.4,31.6,47.5,27.5,47.5,22.5z"/>
</g>
</svg>
