<?xml version="1.0" encoding="utf-8"?>
<!-- Generator: Adobe Illustrator 18.0.0, SVG Export Plug-In . SVG Version: 6.00 Build 0)  -->
<!DOCTYPE svg PUBLIC "-//W3C//DTD SVG 1.1//EN" "http://www.w3.org/Graphics/SVG/1.1/DTD/svg11.dtd">
<svg version="1.1" id="Layer_1" xmlns="http://www.w3.org/2000/svg" xmlns:xlink="http://www.w3.org/1999/xlink" x="0px" y="0px"
	 viewBox="0 0 48 48" enable-background="new 0 0 48 48" xml:space="preserve">
<g>
	<path fill="#06728D" d="M36.2,7.6c-0.7,0-1.5,0.1-2.2,0.2c-1.4-4.3-5.4-7.3-10-7.3c-4.6,0-8.6,3-10,7.3c-0.7-0.1-1.5-0.2-2.2-0.2
		c-6.2,0-11.3,5.1-11.3,11.4c0,6.1,4.7,11,10.7,11.3v17.2h25.6V30.3c6-0.3,10.7-5.3,10.7-11.3C47.5,12.7,42.4,7.6,36.2,7.6z M21,42
		h-2V29.3h2V42z M28.9,42h-2V29.3h2V42z"/>
</g>
</svg>
