<?xml version="1.0" encoding="utf-8"?>
<!-- Generator: Adobe Illustrator 18.0.0, SVG Export Plug-In . SVG Version: 6.00 Build 0)  -->
<!DOCTYPE svg PUBLIC "-//W3C//DTD SVG 1.1//EN" "http://www.w3.org/Graphics/SVG/1.1/DTD/svg11.dtd">
<svg version="1.1" id="Layer_1" xmlns="http://www.w3.org/2000/svg" xmlns:xlink="http://www.w3.org/1999/xlink" x="0px" y="0px"
	 viewBox="0 0 48 48" enable-background="new 0 0 48 48" xml:space="preserve">
<g>
	<path fill="#F04B36" d="M40,6.2c-2.5-1.3-5.7-2.3-9.3-2.9c-0.5-0.1-0.9-0.5-0.9-1.1V0.5H18.2v1.8c0,0.5-0.4,1-0.9,1.1
		C13.7,3.9,10.4,4.9,8,6.2H40z"/>
	<path fill="#CFD0D1" d="M5.6,8.3l2.8,39.2h31.1l2.8-39.2H5.6z M13.9,44.1l-1.5-32.3l2.1-0.1L16,44L13.9,44.1z M25.1,44h-2.1V11.8
		h2.1V44z M34.1,44.1L32,44l1.5-32.3l2.1,0.1L34.1,44.1z"/>
</g>
</svg>
