<?xml version="1.0" encoding="utf-8"?>
<!-- Generator: Adobe Illustrator 18.0.0, SVG Export Plug-In . SVG Version: 6.00 Build 0)  -->
<!DOCTYPE svg PUBLIC "-//W3C//DTD SVG 1.1//EN" "http://www.w3.org/Graphics/SVG/1.1/DTD/svg11.dtd">
<svg version="1.1" id="Layer_1" xmlns="http://www.w3.org/2000/svg" xmlns:xlink="http://www.w3.org/1999/xlink" x="0px" y="0px"
	 viewBox="0 0 48 48" enable-background="new 0 0 48 48" xml:space="preserve">
<g>
	<path fill="#06728D" d="M38.9,12.9H7.2v22.1h31.7V12.9z M17.9,32.3c-1.7,0-3.1-1.4-3.1-3.1c0-1.7,1.4-3.1,3.1-3.1
		c1.7,0,3.1,1.4,3.1,3.1C21,30.9,19.6,32.3,17.9,32.3z M24.3,30.4c0-4.2-3.4-7.6-7.6-7.6v-2c5.3,0,9.6,4.3,9.6,9.6H24.3z M29.4,30.4
		c0-7-5.7-12.7-12.7-12.7v-2c8.1,0,14.7,6.6,14.7,14.7H29.4z"/>
	<path fill="#F7A93B" d="M43.4,7.1H4.6c-2.2,0-4.1,1.8-4.1,4.1v25.7c0,2.2,1.8,4.1,4.1,4.1h38.8c2.2,0,4.1-1.8,4.1-4.1V11.2
		C47.5,8.9,45.7,7.1,43.4,7.1z M40.9,37H5.2V11h35.6V37z M44.1,25.4h-2v-2.7h2V25.4z"/>
</g>
</svg>
