<?xml version="1.0" encoding="utf-8"?>
<!-- Generator: Adobe Illustrator 18.0.0, SVG Export Plug-In . SVG Version: 6.00 Build 0)  -->
<!DOCTYPE svg PUBLIC "-//W3C//DTD SVG 1.1//EN" "http://www.w3.org/Graphics/SVG/1.1/DTD/svg11.dtd">
<svg version="1.1" id="Layer_1" xmlns="http://www.w3.org/2000/svg" xmlns:xlink="http://www.w3.org/1999/xlink" x="0px" y="0px"
	 viewBox="0 0 48 48" enable-background="new 0 0 48 48" xml:space="preserve">
<g>
	<polygon fill="#0DB89A" points="14.4,40.5 12.3,40.5 12.3,16.4 0.5,11.7 1.3,9.8 14.4,15.1 	"/>
	<rect x="45.4" y="15.7" fill="#0DB89A" width="2" height="24.8"/>
	<rect x="13.3" y="19.6" fill="#010101" width="33.1" height="2"/>
	<rect x="13.3" y="33.3" fill="#010101" width="33.1" height="2"/>
	<path fill="#E77528" d="M44.1,14.9C44,11,40.7,7.8,36.8,7.8c-3.9,0-7.2,3.2-7.3,7.1l0,1h14.6L44.1,14.9z"/>
	<path fill="#F04B36" d="M20.6,8.8c-1.8,0-3.2,1.5-3.2,3.2v9.6h6.5V12C23.9,10.2,22.4,8.8,20.6,8.8z"/>
	<rect x="19.6" y="5.3" fill="#F04B36" width="2" height="4.4"/>
	<rect x="29.5" y="16.6" fill="#E77528" width="14.7" height="2"/>
	<circle fill="#E77528" cx="36.8" cy="5.7" r="1"/>
	<circle fill="#E77528" cx="13.3" cy="42.3" r="1"/>
	<circle fill="#E77528" cx="46.5" cy="42.3" r="1"/>
	<rect x="12.3" y="19.6" fill="#06728D" width="35.1" height="15.7"/>
</g>
</svg>
