<?xml version="1.0" encoding="utf-8"?>
<!-- Generator: Adobe Illustrator 18.0.0, SVG Export Plug-In . SVG Version: 6.00 Build 0)  -->
<!DOCTYPE svg PUBLIC "-//W3C//DTD SVG 1.1//EN" "http://www.w3.org/Graphics/SVG/1.1/DTD/svg11.dtd">
<svg version="1.1" id="Layer_1" xmlns="http://www.w3.org/2000/svg" xmlns:xlink="http://www.w3.org/1999/xlink" x="0px" y="0px"
	 viewBox="0 0 48 48" enable-background="new 0 0 48 48" xml:space="preserve">
<g>
	<path fill="#F7A93B" d="M41.3,25.1H27.5h-3.2c-1.7,0-3,1.4-3,3c0,1.7,1.4,3,3,3h1h18.2h1c1.7,0,3-1.4,3-3c0-1.7-1.4-3-3-3H41.3z"/>
	<path fill="#F7A93B" d="M20.1,36.3c0-1.5,0.6-2.8,1.6-3.7c-1.6-0.9-2.6-2.5-2.6-4.5c0-2.5,1.9-4.7,4.3-5.1
		c-0.7-0.9-1.1-1.9-1.1-3.1c0-1.1,0.4-2.2,1-3h-9.4l6.6-11c0.5-0.8,0.6-1.8,0.4-2.7c-0.2-0.9-0.8-1.7-1.6-2.2c-1.7-1-3.9-0.5-5,1.2
		L6.2,15.7C6.1,15.8,6,16,0.5,21.1v21.2l6.8,5.2h16c-0.6-0.9-1-1.9-1-3c0-1.3,0.5-2.4,1.3-3.3C21.5,40.4,20.1,38.5,20.1,36.3z"/>
	<path fill="#F7A93B" d="M27.5,39.3h13.8h2.2c1.7,0,3-1.4,3-3c0-1.7-1.4-3-3-3H25.3c-1.7,0-3,1.4-3,3c0,1.7,1.4,3,3,3H27.5z"/>
	<path fill="#F7A93B" d="M27.5,47.5h2h11.8c1.7,0,3-1.4,3-3c0-1.7-1.4-3-3-3H27.5c-1.7,0-3,1.4-3,3C24.4,46.1,25.8,47.5,27.5,47.5z"
		/>
	<path fill="#F7A93B" d="M41.3,16.9H29.5h-2c-1.7,0-3,1.4-3,3c0,1.7,1.4,3,3,3h13.8c1.7,0,3-1.4,3-3C44.3,18.3,42.9,16.9,41.3,16.9z
		"/>
</g>
</svg>
