<?xml version="1.0" encoding="utf-8"?>
<!-- Generator: Adobe Illustrator 18.0.0, SVG Export Plug-In . SVG Version: 6.00 Build 0)  -->
<!DOCTYPE svg PUBLIC "-//W3C//DTD SVG 1.1//EN" "http://www.w3.org/Graphics/SVG/1.1/DTD/svg11.dtd">
<svg version="1.1" id="Layer_1" xmlns="http://www.w3.org/2000/svg" xmlns:xlink="http://www.w3.org/1999/xlink" x="0px" y="0px"
	 viewBox="0 0 48 48" enable-background="new 0 0 48 48" xml:space="preserve">
<g>
	<polygon fill="#4DA0D8" points="43.7,9.9 43.7,26.8 4.3,26.8 4.3,24.6 0.5,24.6 0.5,38.1 4.3,38.1 4.3,30.6 43.7,30.6 43.7,38.1 
		47.5,38.1 47.5,9.9 	"/>
	<path fill="#F7A93B" d="M38.5,25.6c2.6,0,4.6-2.1,4.6-4.6c0-2.6-2.1-4.6-4.6-4.6c-2.6,0-4.6,2.1-4.6,4.6
		C33.8,23.5,35.9,25.6,38.5,25.6z"/>
	<path fill="#F04B36" d="M32.6,15.6l-0.9,0c0,0-1,0-2.7,0c-9,0-24.2,1.2-24.2,9.1v0.9h27.8V15.6z"/>
</g>
</svg>
