<?xml version="1.0" encoding="utf-8"?>
<!-- Generator: Adobe Illustrator 18.0.0, SVG Export Plug-In . SVG Version: 6.00 Build 0)  -->
<!DOCTYPE svg PUBLIC "-//W3C//DTD SVG 1.1//EN" "http://www.w3.org/Graphics/SVG/1.1/DTD/svg11.dtd">
<svg version="1.1" id="Layer_1" xmlns="http://www.w3.org/2000/svg" xmlns:xlink="http://www.w3.org/1999/xlink" x="0px" y="0px"
	 viewBox="0 0 48 48" enable-background="new 0 0 48 48" xml:space="preserve">
<g>
	<path fill="#F04B36" d="M25.1,47.5h22.4V7.6l-8.4-1.2L38,23.8l-13-6.4V47.5z M29.3,29.9h15.6V32H29.3V29.9z"/>
	<polygon fill="#F7A93B" points="25.8,15.3 36.1,20.4 37,5.4 	"/>
	<polygon fill="#F04B36" points="0.5,7.6 0.5,47.5 22.9,47.5 22.9,17.3 10,23.8 8.9,6.5 	"/>
	<path fill="#0DB89A" d="M10.8,2.4L24,14.1L37.2,2.4C36.7,1.9,34.4,0.5,24,0.5C13.6,0.5,11.3,1.9,10.8,2.4z"/>
	<polygon fill="#F7A93B" points="22.2,15.3 11,5.4 11.9,20.4 	"/>
</g>
</svg>
