<?xml version="1.0" encoding="utf-8"?>
<!-- Generator: Adobe Illustrator 18.0.0, SVG Export Plug-In . SVG Version: 6.00 Build 0)  -->
<!DOCTYPE svg PUBLIC "-//W3C//DTD SVG 1.1//EN" "http://www.w3.org/Graphics/SVG/1.1/DTD/svg11.dtd">
<svg version="1.1" id="Layer_1" xmlns="http://www.w3.org/2000/svg" xmlns:xlink="http://www.w3.org/1999/xlink" x="0px" y="0px"
	 viewBox="0 0 48 48" enable-background="new 0 0 48 48" xml:space="preserve">
<g>
	
		<rect x="39.6" y="14.2" transform="matrix(-0.9652 0.2616 -0.2616 -0.9652 89.4347 18.5086)" fill="#06728D" width="7.8" height="2"/>
	<g>
		<path fill="#F04B36" d="M24.8,5.5c-1.3-1.3-3.3-0.6-3.2,1.2l0.7,12.4l6.6,6.6l12.4,0.7c1.7,0.1,2.5-1.9,1.2-3.2L24.8,5.5z"/>
		<rect x="38.1" y="5" transform="matrix(0.7071 0.7071 -0.7071 0.7071 17.7367 -25.0626)" fill="#06728D" width="2" height="7.8"/>
		<rect x="31.8" y="0.6" transform="matrix(0.9652 0.2617 -0.2617 0.9652 2.3239 -8.424)" fill="#06728D" width="2" height="7.8"/>
		<polygon fill="#CFD0D1" points="15.6,25.6 22.4,32.4 27.3,27.5 20.5,20.7 		"/>
		
			<rect x="2.2" y="36.7" transform="matrix(-0.7071 -0.7071 0.7071 -0.7071 -17.1909 75.003)" fill="#CFD0D1" width="9.6" height="8.6"/>
		<path fill="#F7A93B" d="M8.1,33.2l6.8,6.8l6.1-6.1L14.2,27L8.1,33.2z M16.6,32.8l-2.7,2.7l-1.4-1.4l2.7-2.7L16.6,32.8z"/>
	</g>
</g>
</svg>
