<?xml version="1.0" encoding="utf-8"?>
<!-- Generator: Adobe Illustrator 18.0.0, SVG Export Plug-In . SVG Version: 6.00 Build 0)  -->
<!DOCTYPE svg PUBLIC "-//W3C//DTD SVG 1.1//EN" "http://www.w3.org/Graphics/SVG/1.1/DTD/svg11.dtd">
<svg version="1.1" id="Layer_1" xmlns="http://www.w3.org/2000/svg" xmlns:xlink="http://www.w3.org/1999/xlink" x="0px" y="0px"
	 viewBox="0 0 48 48" enable-background="new 0 0 48 48" xml:space="preserve">
<g>
	<rect x="23.5" y="37.4" fill="#E77528" width="12.9" height="2"/>
	<rect x="35.4" y="35.9" fill="#E77528" width="2" height="5.2"/>
	<path fill="#06728D" d="M21.2,37.7L11.9,43c-1.1,0.6-1.6,1.9-1.1,3l0,0c0.4,0.9,1.5,1.5,2.6,1.5h10.1h10.1c1.2,0,2.2-0.6,2.6-1.5
		l0,0c0.5-1.1,0.1-2.4-1.1-3L26,37.8"/>
	<path fill="#0DB89A" d="M29.5,12.1c-1.2-1.8-1-7.5-1-7.5h2.5V0.5h-2.5h-9.9h-2.5v4.2h2.5c0,0,0.1,5.7-1,7.5
		c-2.8,4.2-6.9,7.6-6.9,12.9c0,7.1,5.8,12.9,12.9,12.9c7.1,0,12.9-5.8,12.9-12.9C36.4,19.7,32.3,16.3,29.5,12.1z M27.2,32.9
		l-1.7-1.2c1.8-2.6,1.8-6.3,0-8.8c-0.3-0.5-0.7-0.9-1.2-1.4c0,1.5-0.4,2.8-1,3.9c-0.3,0.5-0.6,0.9-0.9,1.3c-0.5,0.6-0.9,1.2-1.1,1.8
		c-0.3,0.9,0,1.9,0.7,2.5l-1.4,1.5c-1.3-1.1-1.8-3-1.3-4.6c0.3-1,0.9-1.7,1.4-2.4c0.3-0.4,0.6-0.7,0.8-1.1c1-1.7,0.8-4,0.5-5.6
		l-0.8-3.6l4.2,4.5c0.6,0.6,1.2,1.3,1.8,2.1C29.5,25,29.5,29.7,27.2,32.9z"/>
</g>
</svg>
