<?xml version="1.0" encoding="utf-8"?>
<!-- Generator: Adobe Illustrator 18.0.0, SVG Export Plug-In . SVG Version: 6.00 Build 0)  -->
<!DOCTYPE svg PUBLIC "-//W3C//DTD SVG 1.1//EN" "http://www.w3.org/Graphics/SVG/1.1/DTD/svg11.dtd">
<svg version="1.1" id="Layer_1" xmlns="http://www.w3.org/2000/svg" xmlns:xlink="http://www.w3.org/1999/xlink" x="0px" y="0px"
	 viewBox="0 0 48 48" enable-background="new 0 0 48 48" xml:space="preserve">
<g>
	<path fill="#E77528" d="M11.4,0.5v47h25.2v-47H11.4z M33.7,44.4H14.3V15.8h19.4V44.4z M33.7,13.5H14.3V3h19.4V13.5z"/>
	<path fill="#4DA0D8" d="M24,20.6c-1.9,0-3.4,1.5-3.4,3.4c0,1.9,1.5,3.4,3.4,3.4c1.9,0,3.4-1.5,3.4-3.4C27.4,22.1,25.9,20.6,24,20.6
		z"/>
	<rect x="16.4" y="5" fill="#06728D" width="15.3" height="6.4"/>
	<path fill="#4DA0D8" d="M31.6,17.8H16.4v24.5h15.3V17.8z M25,29.4v11.1h-2v-0.3h-3.1v-2H23v-0.4h-1.1v-2H23v-0.5h-2.5v-2H23v-3.7
		c-2.5-0.5-4.4-2.7-4.4-5.3c0-3,2.4-5.4,5.4-5.4c3,0,5.4,2.4,5.4,5.4C29.4,26.7,27.5,28.9,25,29.4z"/>
</g>
</svg>
