<?xml version="1.0" encoding="utf-8"?>
<!-- Generator: Adobe Illustrator 18.0.0, SVG Export Plug-In . SVG Version: 6.00 Build 0)  -->
<!DOCTYPE svg PUBLIC "-//W3C//DTD SVG 1.1//EN" "http://www.w3.org/Graphics/SVG/1.1/DTD/svg11.dtd">
<svg version="1.1" id="Layer_1" xmlns="http://www.w3.org/2000/svg" xmlns:xlink="http://www.w3.org/1999/xlink" x="0px" y="0px"
	 viewBox="0 0 48 48" enable-background="new 0 0 48 48" xml:space="preserve">
<g>
	<path fill="#F04B36" d="M43.6,25.8l3.9-4.6l-4.8-3.6l1.7-5.8l-5.8-1.4l-0.7-6L32,5.7l-3.1-5.2L24,3.9l-4.9-3.4L16,5.7l-5.9-1.1
		l-0.7,6l-5.8,1.4l1.7,5.8l-4.8,3.6l3.9,4.6l-2.9,5.3l5.4,2.6l-0.5,6l6,0.1l2,5.7l5.5-2.3l4.1,4.4l4.1-4.4l5.5,2.3l2-5.7l6-0.1
		l-0.5-6l5.4-2.6L43.6,25.8z M24,39.9c-8.7,0-15.8-7.1-15.8-15.9c0-8.7,7.1-15.9,15.8-15.9c8.7,0,15.8,7.1,15.8,15.9
		C39.8,32.7,32.7,39.9,24,39.9z"/>
	<path fill="#06728D" d="M24,10.2c-7.6,0-13.7,6.2-13.7,13.8c0,7.6,6.2,13.8,13.7,13.8c7.6,0,13.7-6.2,13.7-13.8
		C37.7,16.4,31.6,10.2,24,10.2z M24,14.8c-5,0-9.1,4.1-9.1,9.2h-2c0-6.2,5-11.2,11.2-11.2V14.8z"/>
</g>
</svg>
