<?xml version="1.0" encoding="utf-8"?>
<!-- Generator: Adobe Illustrator 18.0.0, SVG Export Plug-In . SVG Version: 6.00 Build 0)  -->
<!DOCTYPE svg PUBLIC "-//W3C//DTD SVG 1.1//EN" "http://www.w3.org/Graphics/SVG/1.1/DTD/svg11.dtd">
<svg version="1.1" id="Layer_1" xmlns="http://www.w3.org/2000/svg" xmlns:xlink="http://www.w3.org/1999/xlink" x="0px" y="0px"
	 viewBox="0 0 48 48" enable-background="new 0 0 48 48" xml:space="preserve">
<g>
	<g>
		<ellipse fill="#F7A93B" cx="16.3" cy="6.2" rx="5.7" ry="5.7"/>
		<path fill="#0DB89A" d="M23.1,15.7c0,0-2.2-1.6-6.8-1.6c-4.6,0-6.8,1.6-6.8,1.6l-6.8,12H7l4.1-6.1v6.1h5.2h5.2v-6.1l4.1,6.1h4.2
			L23.1,15.7z"/>
	</g>
	<path fill="#F04B36" d="M24,36.1c-0.2,0-0.4,0-0.5,0.1v2.1c0.1,0,0.2,0,0.4,0c0.6,0,1-0.4,1-1.2C24.9,36.5,24.6,36.1,24,36.1z"/>
	<path fill="#F04B36" d="M35.6,36.1c-0.8,0-1.3,1-1.3,2.4c0,1.4,0.5,2.4,1.3,2.4c0.8,0,1.3-1,1.3-2.4C36.9,37.2,36.4,36.1,35.6,36.1
		z"/>
	<path fill="#F04B36" d="M6.4,36.1c-0.3,0-0.5,0-0.5,0.1v2h0.5c0.6,0,0.9-0.4,0.9-1C7.3,36.5,7,36.1,6.4,36.1z"/>
	<path fill="#F04B36" d="M0.5,29.6v17.9h47V29.6H0.5z M7.5,42.1c-0.1-0.2-0.2-0.8-0.4-1.7c-0.1-0.9-0.4-1.1-0.8-1.1H5.9v2.8H4.7
		v-7.1c0.4-0.1,1-0.1,1.6-0.1c0.8,0,1.3,0.2,1.7,0.6c0.3,0.3,0.5,0.8,0.5,1.5c0,0.9-0.5,1.5-0.9,1.8v0c0.4,0.2,0.6,0.7,0.7,1.3
		c0.2,0.8,0.3,1.7,0.4,2H7.5z M12.7,42.1H9.3V35h3.2v1.3h-2v1.5h1.9v1.3h-1.9v1.7h2.2V42.1z M16.2,40.9c0.4,0,0.8-0.1,1-0.2l0.2,1.3
		c-0.2,0.1-0.7,0.3-1.3,0.3c-1.8,0-2.8-1.5-2.8-3.6c0-2.4,1.3-3.8,2.9-3.8c0.6,0,1.1,0.2,1.3,0.3l-0.2,1.3c-0.2-0.1-0.6-0.3-1-0.3
		c-0.9,0-1.7,0.8-1.7,2.4C14.5,40,15.1,40.9,16.2,40.9z M21.5,42.1h-3.4V35h3.2v1.3h-2v1.5h1.9v1.3h-1.9v1.7h2.2V42.1z M25.6,38.9
		c-0.4,0.5-1,0.8-1.7,0.8c-0.2,0-0.3,0-0.4,0v2.6h-1.2v-7.1c0.4-0.1,0.9-0.1,1.6-0.1c0.7,0,1.3,0.2,1.6,0.6c0.3,0.4,0.6,1,0.6,1.7
		C26.1,37.9,25.9,38.5,25.6,38.9z M30.5,36.3H29v5.8h-1.2v-5.8h-1.4V35h4V36.3z M32.3,42.1h-1.2V35h1.2V42.1z M35.6,42.3
		c-1.6,0-2.5-1.6-2.5-3.6c0-2.1,1-3.8,2.6-3.8c1.6,0,2.5,1.6,2.5,3.6C38.1,40.8,37.1,42.3,35.6,42.3z M43.3,42.1H42l-1.1-2.8
		c-0.3-0.8-0.7-1.7-0.9-2.5l0,0c0,0.9,0,2,0,3.1v2.2h-1.1V35h1.4l1.1,2.6c0.3,0.8,0.6,1.6,0.9,2.5h0c-0.1-0.9-0.1-1.9-0.1-3V35h1.1
		V42.1z"/>
</g>
</svg>
