<?xml version="1.0" encoding="utf-8"?>
<!-- Generator: Adobe Illustrator 18.0.0, SVG Export Plug-In . SVG Version: 6.00 Build 0)  -->
<!DOCTYPE svg PUBLIC "-//W3C//DTD SVG 1.1//EN" "http://www.w3.org/Graphics/SVG/1.1/DTD/svg11.dtd">
<svg version="1.1" id="Layer_1" xmlns="http://www.w3.org/2000/svg" xmlns:xlink="http://www.w3.org/1999/xlink" x="0px" y="0px"
	 viewBox="0 0 48 48" enable-background="new 0 0 48 48" xml:space="preserve">
<g>
	<path fill="#F7A93B" d="M12.8,35.2c0,0.2,0,0.3,0,0.5c0,0.9,0.1,3,0.1,3.4c0.2,0.7,0.9,1.4,1.5,2c0.3,0.3,0.7,0.7,1.1,0.8l0,0.1
		h29.2c1-1.2,1.4-2.9,1.7-4.8c0.2-1.4,0.3-2.7-0.5-3.4c-0.2-0.1-0.4-0.3-0.6-0.4c-0.4-0.3-1-0.6-1.4-1.1c-0.4-0.5-0.5-1-0.6-1.5
		c-0.1-0.2-0.2-0.7-0.3-0.8c0,0-0.2,0-0.3-0.1c-0.2,0-0.4-0.1-0.6-0.2c-1.1-0.4-1.8-1.3-1.9-2.5c0-0.4,0-0.9,0-1.2
		c0-0.3,0-0.6,0-0.8c-0.1-1.2-1.1-2.4-2.4-2.8l0.1-0.1L12.8,35.2z M34.3,38.7c-1.3,0-2.5-0.7-3.3-1.1l-4.2-2.3l1.2-1.7l4.2,2.3
		c0.7,0.4,1.4,0.8,2.1,0.8L34.3,38.7z"/>
	<path fill="#0DB89A" d="M45.7,44c-0.1,0-0.1,0.1-0.2,0.2L45.4,44H0.5l4.7,3.5h38.3l4-3.5H45.7z"/>
	<path fill="#0DB89A" d="M4.9,36.8l39.3-19.9C40.1,11.2,33,7.6,25.4,7.6c-3.7,0-7.5,0.9-10.8,2.6C4.3,15.4,0.2,27,4.9,36.8z"/>
	<path fill="#F04B36" d="M9.7,10.8c1.2-0.9,2.5-1.7,3.9-2.4c1.4-0.7,2.8-1.3,4.3-1.7c0.2-1.1,0-2.3-0.6-3.4c-1-1.7-3-2.8-5.2-2.8
		c-1,0-2,0.2-2.9,0.7C6.3,2.6,5.2,5.9,6.8,8.5C7.4,9.6,8.5,10.4,9.7,10.8z M10.8,3.8c0.4-0.2,0.8-0.3,1.2-0.3c0.9,0,1.7,0.5,2.2,1.2
		c0.7,1.2,0.2,2.6-1,3.3C12,8.6,10.5,8.2,9.8,7.1C9.1,5.9,9.6,4.4,10.8,3.8z"/>
</g>
</svg>
