<?xml version="1.0" encoding="utf-8"?>
<!-- Generator: Adobe Illustrator 18.0.0, SVG Export Plug-In . SVG Version: 6.00 Build 0)  -->
<!DOCTYPE svg PUBLIC "-//W3C//DTD SVG 1.1//EN" "http://www.w3.org/Graphics/SVG/1.1/DTD/svg11.dtd">
<svg version="1.1" id="Layer_1" xmlns="http://www.w3.org/2000/svg" xmlns:xlink="http://www.w3.org/1999/xlink" x="0px" y="0px"
	 viewBox="0 0 48 48" enable-background="new 0 0 48 48" xml:space="preserve">
<g>
	<path fill="#06728D" d="M47.5,16.2v-5c0-2.7-2.2-4.9-4.9-4.9H5.4c-2.7,0-4.9,2.2-4.9,4.9v5H47.5z"/>
	<path fill="#CFD0D1" d="M0.5,18.2v2.8c0,2.7,2.2,4.9,4.9,4.9h37.2c2.7,0,4.9-2.2,4.9-4.9v-2.8H0.5z M35,21.8h-3v-2h3V21.8z
		 M39.9,21.8h-3v-2h3V21.8z"/>
	<path fill="#F04B36" d="M10,41.6c-1-1.3-2.4-4.5-0.1-7c0.5-0.6,0.7-1,0.6-1.5c-0.1-0.6-0.9-1.1-0.9-1.1l0.9-1.7
		c0.2,0.1,1.6,0.9,1.9,2.4c0.2,1-0.2,2.1-1.1,3.1c-1.7,1.9,0.2,4.4,0.2,4.5L10,41.6z"/>
	<path fill="#F04B36" d="M19,41.6c-1-1.3-2.4-4.5-0.1-7c0.5-0.6,0.7-1,0.6-1.5c-0.1-0.6-0.9-1.1-0.9-1.1l0.9-1.7
		c0.2,0.1,1.6,0.9,1.9,2.4c0.2,1-0.2,2.1-1.1,3.1c-1.7,1.9,0.2,4.5,0.2,4.5L19,41.6z"/>
	<path fill="#F04B36" d="M27.9,41.6c-1-1.3-2.4-4.5-0.1-7c0.5-0.6,0.7-1,0.6-1.4c-0.1-0.5-0.7-1-0.9-1.1l0.9-1.7
		c0.2,0.1,1.6,0.9,1.9,2.4c0.2,1-0.2,2.1-1.1,3.1c-1.7,1.9,0.2,4.5,0.2,4.5L27.9,41.6z"/>
	<path fill="#F04B36" d="M36.9,41.6c-1-1.3-2.4-4.5-0.1-7c0.5-0.6,0.7-1,0.6-1.4c-0.1-0.5-0.7-1-0.9-1.1l0.9-1.7
		c0.2,0.1,1.6,0.9,1.9,2.4c0.2,1-0.2,2.1-1.1,3.1c-1.7,1.9,0.2,4.5,0.2,4.5L36.9,41.6z"/>
</g>
</svg>
