<?xml version="1.0" encoding="utf-8"?>
<!-- Generator: Adobe Illustrator 18.0.0, SVG Export Plug-In . SVG Version: 6.00 Build 0)  -->
<!DOCTYPE svg PUBLIC "-//W3C//DTD SVG 1.1//EN" "http://www.w3.org/Graphics/SVG/1.1/DTD/svg11.dtd">
<svg version="1.1" id="Layer_1" xmlns="http://www.w3.org/2000/svg" xmlns:xlink="http://www.w3.org/1999/xlink" x="0px" y="0px"
	 viewBox="0 0 48 48" enable-background="new 0 0 48 48" xml:space="preserve">
<g>
	<polygon fill="#06728D" points="39.4,27.4 8.6,27.4 8.6,9.7 10.6,9.7 10.6,25.5 37.4,25.5 37.4,9.7 39.4,9.7 	"/>
	<polygon fill="#06728D" points="43.2,13.7 24,2.7 4.8,13.7 3.8,12 24,0.4 44.2,12 	"/>
	<rect x="12.5" y="35.7" fill="#06728D" width="2" height="4.1"/>
	<rect x="33.5" y="35.7" fill="#06728D" width="2" height="4.1"/>
	<rect x="5.2" y="25.5" fill="#E77528" width="37.7" height="11.2"/>
	<path fill="#4DA0D8" d="M40.5,43.4c-1,0-2.1-0.6-3.3-1.3c-0.9-0.5-2.1-1.2-2.7-1.2c-0.5,0-1.5,0.6-2.2,1.1
		c-1.2,0.7-2.4,1.4-3.4,1.4c-1.1,0-2.2-0.7-3.2-1.4c-0.8-0.5-1.6-1.1-2.2-1.1c-0.5,0-1.5,0.6-2.3,1.1c-1.1,0.7-2.2,1.4-3.3,1.4
		c-1.3,0-2.4-0.8-3.3-1.5c-0.7-0.5-1.5-1-2-1c-0.9,0-1.6,0.6-2.4,1.2c-0.9,0.7-1.8,1.4-3,1.4c-1.6,0-2.4-0.8-3.1-1.4
		c-0.7-0.6-1.2-1.1-2.6-1.1v-2c2.2,0,3.2,1,4,1.7c0.6,0.5,0.9,0.9,1.7,0.9c0.5,0,1.1-0.5,1.8-1c0.9-0.7,2.1-1.6,3.6-1.6
		c1.1,0,2.2,0.7,3.1,1.4c0.8,0.6,1.6,1.1,2.2,1.1c0.5,0,1.5-0.6,2.2-1.1c1.1-0.7,2.2-1.4,3.3-1.4c1.1,0,2.2,0.7,3.3,1.4
		c0.7,0.5,1.6,1.1,2.1,1.1c0.5,0,1.6-0.6,2.4-1.1c1.2-0.7,2.3-1.4,3.3-1.4c1.2,0,2.4,0.7,3.7,1.5c0.8,0.5,1.8,1.1,2.3,1.1
		c0.6,0,1.9-0.7,2.9-1.3c1.4-0.8,2.3-1.3,3.1-1.3v2c-0.3,0-1.4,0.6-2.2,1C42.9,42.7,41.6,43.4,40.5,43.4z"/>
	<path fill="#4DA0D8" d="M40.5,47.6c-1,0-2.1-0.6-3.3-1.3c-0.9-0.5-2.1-1.2-2.7-1.2c-0.5,0-1.5,0.6-2.2,1.1
		c-1.2,0.7-2.4,1.4-3.4,1.4c-1.1,0-2.2-0.7-3.2-1.4c-0.8-0.5-1.6-1.1-2.2-1.1c-0.5,0-1.5,0.6-2.3,1.1c-1.1,0.7-2.2,1.4-3.3,1.4
		c-1.3,0-2.4-0.8-3.3-1.5c-0.7-0.5-1.5-1-2-1c-0.9,0-1.6,0.6-2.4,1.2c-0.9,0.7-1.8,1.4-3,1.4c-1.6,0-2.4-0.8-3.1-1.4
		c-0.7-0.6-1.2-1.1-2.6-1.1v-2c2.2,0,3.2,1,4,1.7c0.6,0.5,0.9,0.9,1.7,0.9c0.5,0,1.1-0.5,1.8-1c0.9-0.7,2.1-1.6,3.6-1.6
		c1.1,0,2.2,0.7,3.1,1.4c0.8,0.6,1.6,1.1,2.2,1.1c0.5,0,1.5-0.6,2.2-1.1c1.1-0.7,2.2-1.4,3.3-1.4c1.1,0,2.2,0.7,3.3,1.4
		c0.7,0.5,1.6,1.1,2.1,1.1c0.5,0,1.6-0.6,2.4-1.1c1.2-0.7,2.3-1.4,3.3-1.4c1.2,0,2.4,0.7,3.7,1.5c0.8,0.5,1.8,1.1,2.3,1.1
		c0.6,0,1.9-0.7,2.9-1.3c1.4-0.8,2.3-1.3,3.1-1.3v2c-0.3,0-1.4,0.6-2.2,1C42.9,46.8,41.6,47.6,40.5,47.6z"/>
</g>
</svg>
