<?xml version="1.0" encoding="utf-8"?>
<!-- Generator: Adobe Illustrator 18.0.0, SVG Export Plug-In . SVG Version: 6.00 Build 0)  -->
<!DOCTYPE svg PUBLIC "-//W3C//DTD SVG 1.1//EN" "http://www.w3.org/Graphics/SVG/1.1/DTD/svg11.dtd">
<svg version="1.1" id="Layer_1" xmlns="http://www.w3.org/2000/svg" xmlns:xlink="http://www.w3.org/1999/xlink" x="0px" y="0px"
	 viewBox="0 0 48 48" enable-background="new 0 0 48 48" xml:space="preserve">
<g>
	<path fill="#4DA0D8" d="M41.9,36.7c-1,0-2.1-0.7-3.2-1.5c-0.8-0.5-1.9-1.2-2.4-1.2c-0.4,0-1.4,0.7-2,1.1c-1.2,0.8-2.3,1.6-3.3,1.6
		c-1.1,0-2.2-0.8-3.1-1.6c-0.6-0.5-1.5-1.1-1.9-1.1c-0.4,0-1.4,0.7-2,1.2c-1.1,0.8-2.1,1.5-3.2,1.5c-1.3,0-2.3-0.9-3.3-1.6
		C16.8,34.6,16,34,15.6,34c-0.7,0-1.4,0.6-2.1,1.2c-0.9,0.7-1.7,1.5-2.9,1.5c-1.5,0-2.4-0.8-3-1.5C6.9,34.5,6.4,34,5.2,34v-2
		c2.1,0,3.1,1,3.8,1.8c0.6,0.6,0.9,0.9,1.5,0.9c0.4,0,1-0.5,1.6-1c0.9-0.8,2-1.7,3.5-1.7c1.2,0,2.1,0.8,3.1,1.5
		c0.7,0.5,1.4,1.2,2,1.2c0.4,0,1.3-0.7,2-1.1c1.1-0.8,2.1-1.6,3.2-1.6c1.2,0,2.2,0.8,3.2,1.6c0.6,0.5,1.5,1.1,1.9,1.1
		c0.4,0,1.5-0.7,2.1-1.2c1.1-0.8,2.2-1.5,3.2-1.5c1.2,0,2.4,0.8,3.6,1.6c0.7,0.4,1.7,1.1,2,1.1c0.5,0,1.8-0.8,2.6-1.3
		c1.4-0.9,2.2-1.4,3-1.4v2c-0.3,0-1.3,0.7-1.9,1.1C44.2,35.9,42.9,36.7,41.9,36.7z"/>
	<path fill="#CFD0D1" d="M41.9,42.1c-1,0-2.1-0.7-3.2-1.5c-0.8-0.5-1.9-1.2-2.4-1.2c-0.4,0-1.4,0.7-2,1.1c-1.2,0.8-2.3,1.6-3.3,1.6
		c-1.1,0-2.2-0.8-3.1-1.6c-0.6-0.5-1.5-1.1-1.9-1.1c-0.4,0-1.4,0.7-2,1.2c-1.1,0.8-2.1,1.5-3.2,1.5c-1.3,0-2.3-0.9-3.3-1.6
		c-0.6-0.5-1.3-1.1-1.8-1.1c-0.7,0-1.4,0.6-2.1,1.2c-0.9,0.7-1.7,1.5-2.9,1.5c-1.5,0-2.4-0.8-3-1.5c-0.7-0.7-1.1-1.2-2.3-1.2v-2
		c2.1,0,3.1,1,3.8,1.8c0.6,0.6,0.9,0.9,1.5,0.9c0.4,0,1-0.5,1.6-1c0.9-0.8,2-1.7,3.5-1.7c1.2,0,2.1,0.8,3.1,1.5
		c0.7,0.5,1.4,1.2,2,1.2c0.4,0,1.3-0.7,2-1.1c1.1-0.8,2.1-1.6,3.2-1.6c1.2,0,2.2,0.8,3.2,1.6c0.6,0.5,1.5,1.1,1.9,1.1
		c0.4,0,1.5-0.7,2.1-1.2c1.1-0.8,2.2-1.5,3.2-1.5c1.2,0,2.4,0.8,3.6,1.6c0.7,0.4,1.7,1.1,2,1.1c0.5,0,1.8-0.8,2.6-1.3
		c1.4-0.9,2.2-1.4,3-1.4v2c-0.3,0-1.3,0.7-1.9,1.1C44.2,41.3,42.9,42.1,41.9,42.1z"/>
	<path fill="#4DA0D8" d="M41.9,47.5c-1,0-2.1-0.7-3.2-1.5c-0.8-0.5-1.9-1.2-2.4-1.2c-0.4,0-1.4,0.7-2,1.1c-1.2,0.8-2.3,1.6-3.3,1.6
		c-1.1,0-2.2-0.8-3.1-1.6c-0.6-0.5-1.5-1.1-1.9-1.1c-0.4,0-1.4,0.7-2,1.2c-1.1,0.8-2.1,1.5-3.2,1.5c-1.3,0-2.3-0.9-3.3-1.6
		c-0.6-0.5-1.3-1.1-1.8-1.1c-0.7,0-1.4,0.6-2.1,1.2c-0.9,0.7-1.7,1.5-2.9,1.5c-1.5,0-2.4-0.8-3-1.5c-0.7-0.7-1.1-1.2-2.3-1.2v-2
		c2.1,0,3.1,1,3.8,1.8c0.6,0.6,0.9,0.9,1.5,0.9c0.4,0,1-0.5,1.6-1c0.9-0.8,2-1.7,3.5-1.7c1.2,0,2.1,0.8,3.1,1.5
		c0.7,0.5,1.4,1.2,2,1.2c0.4,0,1.3-0.7,2-1.1c1.1-0.8,2.1-1.6,3.2-1.6c1.2,0,2.2,0.8,3.2,1.6c0.6,0.5,1.5,1.1,1.9,1.1
		c0.4,0,1.5-0.7,2.1-1.2c1.1-0.8,2.2-1.5,3.2-1.5c1.2,0,2.4,0.8,3.6,1.6c0.7,0.4,1.7,1.1,2,1.1c0.5,0,1.8-0.8,2.6-1.3
		c1.4-0.9,2.2-1.4,3-1.4v2c-0.3,0-1.3,0.7-1.9,1.1C44.2,46.7,42.9,47.5,41.9,47.5z"/>
	<polygon fill="#F04B36" points="12.3,4.8 11,1.1 13,0.5 14.2,4.2 	"/>
	<polygon fill="#F04B36" points="24,39.2 17.3,19.5 19.2,18.9 25.9,38.6 	"/>
	<path fill="#0DB89A" d="M40.6,19.4c-3,0-5.4,2.4-5.4,5.4s2.4,5.4,5.4,5.4c3,0,5.4-2.4,5.4-5.4S43.5,19.4,40.6,19.4z"/>
	<path fill="#E77528" d="M28.8,14.6c-3.5-5.9-8-9.6-12.2-10.1c3.1,3,6.1,9.5,7.4,12.4C25.8,16.2,27.4,15.4,28.8,14.6z"/>
	<path fill="#E77528" d="M6.8,22C8.3,21.8,10,21.4,12,21c-0.8-3.2-2.1-9.8-1.5-14.1C7.6,9.9,6.2,15.5,6.8,22z"/>
	<path fill="#E77528" d="M30.5,13.6c2.5-1.5,3.9-2.6,3.9-2.6C31,6.5,25.7,3.7,20.1,3.5C23.9,5.1,27.6,8.6,30.5,13.6z"/>
	<path fill="#E77528" d="M7,8.2c-4.2,3.6-6.6,9-6.5,14.6c0,0,1.5,0,4.3-0.4C4.2,16.7,5,11.7,7,8.2z"/>
	<path fill="#E77528" d="M13.3,4.9c-0.9,0.3-2,4.7,0.6,15.5c1.3-0.4,2.8-0.8,4.3-1.3c1.4-0.4,2.7-0.9,3.9-1.4
		C17.9,8,14.3,4.6,13.3,4.9z"/>
</g>
</svg>
