<?xml version="1.0" encoding="utf-8"?>
<!-- Generator: Adobe Illustrator 18.0.0, SVG Export Plug-In . SVG Version: 6.00 Build 0)  -->
<!DOCTYPE svg PUBLIC "-//W3C//DTD SVG 1.1//EN" "http://www.w3.org/Graphics/SVG/1.1/DTD/svg11.dtd">
<svg version="1.1" id="Layer_1" xmlns="http://www.w3.org/2000/svg" xmlns:xlink="http://www.w3.org/1999/xlink" x="0px" y="0px"
	 viewBox="0 0 48 48" enable-background="new 0 0 48 48" xml:space="preserve">
<g>
	<path fill="#294E58" d="M45.5,0.5v16.6H2.5v-6.6h-2v37h2v-9.2h43.1v9.2h2v-47H45.5z M45.5,19.1v17.1H2.5V19.1H45.5z"/>
	<path fill="#F7A93B" d="M39.1,34.7c2.7,0,4.8-2.3,4.8-5c0-2.8-2.2-5-4.8-5c-2.7,0-4.8,2.3-4.8,5C34.2,32.5,36.4,34.7,39.1,34.7z"/>
	<path fill="#06728D" d="M32.9,34.7V23.9l-0.9,0c0,0-1.1,0-2.8,0C19.8,23.8,4,25.1,4,33.7v1H32.9z"/>
	<path fill="#F7A93B" d="M39.1,15.6c2.7,0,4.8-2.3,4.8-5c0-2.8-2.2-5-4.8-5c-2.7,0-4.8,2.3-4.8,5C34.2,13.3,36.4,15.6,39.1,15.6z"/>
	<path fill="#0DB89A" d="M32.9,4.7l-0.9,0c0,0-1.1,0-2.8,0C19.8,4.6,4,5.9,4,14.6v1h28.9V4.7z"/>
</g>
</svg>
