<?xml version="1.0" encoding="utf-8"?>
<!-- Generator: Adobe Illustrator 18.0.0, SVG Export Plug-In . SVG Version: 6.00 Build 0)  -->
<!DOCTYPE svg PUBLIC "-//W3C//DTD SVG 1.1//EN" "http://www.w3.org/Graphics/SVG/1.1/DTD/svg11.dtd">
<svg version="1.1" id="Layer_1" xmlns="http://www.w3.org/2000/svg" xmlns:xlink="http://www.w3.org/1999/xlink" x="0px" y="0px"
	 viewBox="0 0 48 48" enable-background="new 0 0 48 48" xml:space="preserve">
<g>
	<polygon fill="#0DB89A" points="14.4,20.5 33.6,20.5 37.7,30.2 43,30.2 37.1,16.8 10.8,16.8 4.9,30.2 10.2,30.2 	"/>
	<path fill="#294E58" d="M6.3,41.9v1.7c0,2.1,1.7,3.9,3.9,3.9c2.1,0,3.9-1.7,3.9-3.9l0-1.7H6.3z"/>
	<path fill="#294E58" d="M34,41.9l0,1.7c0,2.1,1.7,3.9,3.9,3.9c2.1,0,3.9-1.7,3.9-3.9l0-1.7H34z"/>
	<rect x="16.8" y="8" fill="#F04B36" width="14.5" height="7.1"/>
	<path fill="#F04B36" d="M25.6,6.8c-0.8,0-1.4,0-1.9-0.1l-1.2-0.2l0.5-1.1c0.4-0.8,1.2-1.4,1.9-1.8c0.2-0.1,0.4-0.3,0.7-0.5
		c0.3-0.2,0.5-0.5,0.8-0.7C26.5,2.2,26.7,2,27,1.8c0.8-0.6,1.5-1,2.3-1.2c0.9-0.2,1.8-0.1,2.6,0.3c0.2,0.1,0.4,0.2,0.6,0.4
		c0.2,0.2,0.4,0.5,0.5,0.8c0.3,1.1-0.1,2.2-1,3.1c-0.8,0.7-1.9,1.2-3.1,1.4c-0.6,0.1-1.3,0.1-1.8,0.1C26.6,6.8,26.1,6.8,25.6,6.8z
		 M30.1,2.4c-0.2,0-0.3,0-0.4,0c-0.5,0.1-0.9,0.3-1.4,0.8c-0.2,0.2-0.4,0.3-0.6,0.5c-0.3,0.3-0.6,0.6-0.9,0.8
		c-0.2,0.1-0.4,0.3-0.6,0.4c0.3,0,0.5,0,0.8,0c0.5,0,1.1,0,1.6-0.1c0.8-0.1,1.6-0.5,2.1-0.9C31,3.5,31.2,3,31.1,2.6
		C30.8,2.4,30.5,2.4,30.1,2.4z"/>
	<path fill="#F04B36" d="M22.4,6.8c-0.5,0-0.9,0-1.4,0c-0.6,0-1.2,0-1.8-0.1c-1.3-0.2-2.4-0.7-3.1-1.4c-0.9-0.9-1.3-2-1-3.1
		c0.1-0.3,0.2-0.6,0.5-0.8c0.2-0.2,0.3-0.3,0.6-0.4c0.8-0.4,1.8-0.5,2.6-0.3c0.8,0.2,1.6,0.5,2.3,1.2c0.2,0.2,0.5,0.4,0.7,0.6
		C22,2.6,22.2,2.8,22.5,3c0.2,0.2,0.4,0.3,0.7,0.5c0.7,0.5,1.5,1,1.9,1.8l0.5,1.1l-1.2,0.2C23.8,6.7,23.1,6.8,22.4,6.8z M17.9,2.4
		c-0.3,0-0.7,0.1-0.9,0.2c-0.1,0.4,0,0.9,0.5,1.3c0.5,0.4,1.2,0.8,2.1,0.9c0.5,0.1,1,0.1,1.6,0.1c0.3,0,0.5,0,0.8,0
		c-0.2-0.1-0.4-0.3-0.6-0.4c-0.4-0.3-0.6-0.5-0.9-0.8c-0.2-0.2-0.4-0.4-0.6-0.5c-0.5-0.4-1-0.7-1.4-0.7C18.2,2.4,18,2.4,17.9,2.4z"
		/>
	<path fill="#06728D" d="M40.8,27H7.2c-3.7,0-6.7,2.9-6.7,6.4c0,3.5,3,6.4,6.7,6.4h33.5c3.7,0,6.7-2.9,6.7-6.4
		C47.5,29.9,44.5,27,40.8,27z M10.6,34.4H6.7v-1.9h3.9V34.4z M41.3,34.4h-3.9v-1.9h3.9V34.4z"/>
</g>
</svg>
