<?xml version="1.0" encoding="utf-8"?>
<!-- Generator: Adobe Illustrator 18.0.0, SVG Export Plug-In . SVG Version: 6.00 Build 0)  -->
<!DOCTYPE svg PUBLIC "-//W3C//DTD SVG 1.1//EN" "http://www.w3.org/Graphics/SVG/1.1/DTD/svg11.dtd">
<svg version="1.1" id="Layer_1" xmlns="http://www.w3.org/2000/svg" xmlns:xlink="http://www.w3.org/1999/xlink" x="0px" y="0px"
	 viewBox="0 0 48 48" enable-background="new 0 0 48 48" xml:space="preserve">
<g>
	<path fill="#06728D" d="M24,8.9c-2.1,0-3.8,1.4-3.8,3.1v35.6h7.6V11.9C27.8,10.2,26.1,8.9,24,8.9z"/>
	<path fill="#CFD0D1" d="M14.5,8.9c-1.2,0-2.3,0.5-3,1.3c0,0.1,0,0.1,0,0.2v37.2h0.5h6.3V11.9C18.3,10.2,16.6,8.9,14.5,8.9z"/>
	<path fill="#F04B36" d="M42.7,0.5L42.7,0.5l-37.4,0v0c-3,0.1-4.8,2.6-4.8,5c0,3,1.6,5.1,3.8,5.1c2.9,0,4.3-2.2,4.3-4.4h-2
		c0,0.9-0.3,2.4-2.3,2.4c-1.5,0-1.9-2.1-1.9-3.1c0-1.5,1.1-3,3-3c2.4,0,4.9,1.4,5.7,5.3c0.9-0.6,2.1-0.9,3.3-0.9
		c2,0,3.7,0.9,4.8,2.2c1-1.3,2.8-2.2,4.8-2.2c2,0,3.7,0.9,4.8,2.2c1-1.3,2.8-2.2,4.8-2.2c1.2,0,2.3,0.3,3.3,0.9
		c0.8-3.8,3.3-5.3,5.7-5.3c2,0,3,1.6,3,3c0,1.1-0.4,3.1-1.9,3.1c-2,0-2.3-1.5-2.3-2.4h-2c0,2.2,1.3,4.4,4.3,4.4
		c2.3,0,3.8-2.1,3.8-5.1C47.5,3.1,45.7,0.6,42.7,0.5z"/>
	<path fill="#CFD0D1" d="M33.5,8.9c-2.1,0-3.8,1.4-3.8,3.1v35.6h6.3h0.5V10.3c0-0.1,0-0.2,0-0.2C35.9,9.4,34.8,8.9,33.5,8.9z"/>
</g>
</svg>
