<?xml version="1.0" encoding="utf-8"?>
<!-- Generator: Adobe Illustrator 18.0.0, SVG Export Plug-In . SVG Version: 6.00 Build 0)  -->
<!DOCTYPE svg PUBLIC "-//W3C//DTD SVG 1.1//EN" "http://www.w3.org/Graphics/SVG/1.1/DTD/svg11.dtd">
<svg version="1.1" id="Layer_1" xmlns="http://www.w3.org/2000/svg" xmlns:xlink="http://www.w3.org/1999/xlink" x="0px" y="0px"
	 viewBox="0 0 48 48" enable-background="new 0 0 48 48" xml:space="preserve">
<g>
	<path fill="#E77528" d="M42.6,0.5H5.4c-2.7,0-4.9,2.2-4.9,4.9v37.2c0,2.7,2.2,4.9,4.9,4.9h37.2c2.7,0,4.9-2.2,4.9-4.9V5.4
		C47.5,2.7,45.3,0.5,42.6,0.5z M25.6,6.9c3,0,5.4,2.4,5.4,5.4s-2.4,5.4-5.4,5.4c-3,0-5.4-2.4-5.4-5.4S22.6,6.9,25.6,6.9z M32,38.2
		L15.6,21.5L4.2,34.1l-1.5-1.3l12.7-14.1l17.9,18.2L32,38.2z M43.6,31.4l-9.7-8.2l-7.1,6.4l-1.3-1.5l8.4-7.5l11,9.3L43.6,31.4z"/>
</g>
</svg>
