<?xml version="1.0" encoding="utf-8"?>
<!-- Generator: Adobe Illustrator 18.0.0, SVG Export Plug-In . SVG Version: 6.00 Build 0)  -->
<!DOCTYPE svg PUBLIC "-//W3C//DTD SVG 1.1//EN" "http://www.w3.org/Graphics/SVG/1.1/DTD/svg11.dtd">
<svg version="1.1" id="Layer_1" xmlns="http://www.w3.org/2000/svg" xmlns:xlink="http://www.w3.org/1999/xlink" x="0px" y="0px"
	 viewBox="0 0 48 48" enable-background="new 0 0 48 48" xml:space="preserve">
<g>
	<path fill="#F04B36" d="M38.5,0.5c-5,0-9,4-9,8.9s9,14.8,9,14.8s9-9.8,9-14.8S43.5,0.5,38.5,0.5z M38.5,14.9c-3,0-5.5-2.5-5.5-5.5
		c0-3,2.5-5.5,5.5-5.5c3,0,5.5,2.5,5.5,5.5C44.1,12.5,41.6,14.9,38.5,14.9z"/>
	<path fill="#CFD0D1" d="M40,25.6l-1.5,1.7L37,25.6c-1.3-1.5-7.2-8.1-9-13.4l-5.8,3L11.4,9.5L0.5,15.1v32.4l10.9-5.6l10.9,5.6
		l10.9-5.6L44,47.5V20.8C42.3,23.1,40.7,24.9,40,25.6z M5.2,36.9l-2-0.6c0.2-0.5,0.4-1.1,0.6-1.6l1.8,0.9C5.5,36,5.3,36.4,5.2,36.9z
		 M7.2,33.3l-1.5-1.4c0.8-0.8,1.7-1.6,2.7-2.1l1,1.8C8.6,32,7.9,32.6,7.2,33.3z M14.9,30.2l-0.2,0c-1,0-1.8,0.1-2.6,0.3l-0.4-2
		c1-0.2,2-0.3,3.1-0.3l0.2,0L14.9,30.2z M20.9,31l-0.4-0.1c-0.9-0.2-1.8-0.3-2.6-0.4l0.3-2c0.9,0.1,1.8,0.3,2.7,0.5l0.4,0.1L20.9,31
		z M26.8,31.7c-0.9,0-1.8-0.1-2.8-0.2l0.3-2c1.1,0.1,2.1,0.2,3,0.2l0.1,2C27.1,31.7,27,31.7,26.8,31.7z M30.6,31.2l-0.6-2
		c0.9-0.3,1.8-0.6,2.6-1.1l1,1.8C32.8,30.4,31.7,30.9,30.6,31.2z M36.4,27.8l-1.5-1.4c0.3-0.3,0.6-0.7,0.9-1.1l1.6,1.2
		C37.2,26.9,36.8,27.4,36.4,27.8z"/>
</g>
</svg>
