<?xml version="1.0" encoding="utf-8"?>
<!-- Generator: Adobe Illustrator 18.0.0, SVG Export Plug-In . SVG Version: 6.00 Build 0)  -->
<!DOCTYPE svg PUBLIC "-//W3C//DTD SVG 1.1//EN" "http://www.w3.org/Graphics/SVG/1.1/DTD/svg11.dtd">
<svg version="1.1" id="Layer_1" xmlns="http://www.w3.org/2000/svg" xmlns:xlink="http://www.w3.org/1999/xlink" x="0px" y="0px"
	 viewBox="0 0 48 48" enable-background="new 0 0 48 48" xml:space="preserve">
<g>
	<path fill="#F04B36" d="M24,7.7c-2.9,0-5.2,2.3-5.2,5.2s2.3,5.2,5.2,5.2c2.9,0,5.2-2.3,5.2-5.2S26.9,7.7,24,7.7z"/>
	<path fill="#0DB89A" d="M24,0.5c-6.9,0-12.4,5.5-12.4,12.4c0,6.8,12.4,20.5,12.4,20.5s12.4-13.7,12.4-20.5C36.4,6,30.9,0.5,24,0.5z
		 M24,20.1c-4,0-7.3-3.2-7.3-7.2c0-4,3.3-7.2,7.3-7.2c4,0,7.3,3.2,7.3,7.2C31.3,16.9,28,20.1,24,20.1z"/>
	<path fill="#06728D" d="M40.1,28.3h-9.2c-2.5,3.3-4.8,5.8-5.3,6.4L24,36.4l-1.5-1.7c-0.5-0.6-2.8-3.1-5.3-6.4h-6.9L0.5,47.5h47
		L40.1,28.3z"/>
</g>
</svg>
