<?xml version="1.0" encoding="utf-8"?>
<!-- Generator: Adobe Illustrator 18.0.0, SVG Export Plug-In . SVG Version: 6.00 Build 0)  -->
<!DOCTYPE svg PUBLIC "-//W3C//DTD SVG 1.1//EN" "http://www.w3.org/Graphics/SVG/1.1/DTD/svg11.dtd">
<svg version="1.1" id="Layer_1" xmlns="http://www.w3.org/2000/svg" xmlns:xlink="http://www.w3.org/1999/xlink" x="0px" y="0px"
	 viewBox="0 0 48 48" enable-background="new 0 0 48 48" xml:space="preserve">
<g>
	<rect x="19.3" y="41.1" fill="#F04B36" width="3.8" height="4.5"/>
	<circle fill="#4DA0D8" cx="21.2" cy="20.9" r="16.6"/>
	<path fill="#06728D" d="M21.2,43c-3.1,0-6.2-0.7-9.1-1.9l1.5-3.4c4.5,2,9.5,2.2,14.1,0.4c4.6-1.8,8.2-5.2,10.3-9.7
		c4.2-9.3,0-20.2-9.3-24.4l1.5-3.4c11.2,5,16.2,18.2,11.2,29.4c-2.4,5.4-6.8,9.6-12.4,11.7C26.5,42.5,23.9,43,21.2,43z"/>
	<rect x="10.5" y="43.7" fill="#F04B36" width="21.4" height="3.8"/>
</g>
</svg>
