<?xml version="1.0" encoding="utf-8"?>
<!-- Generator: Adobe Illustrator 18.0.0, SVG Export Plug-In . SVG Version: 6.00 Build 0)  -->
<!DOCTYPE svg PUBLIC "-//W3C//DTD SVG 1.1//EN" "http://www.w3.org/Graphics/SVG/1.1/DTD/svg11.dtd">
<svg version="1.1" id="Layer_1" xmlns="http://www.w3.org/2000/svg" xmlns:xlink="http://www.w3.org/1999/xlink" x="0px" y="0px"
	 viewBox="0 0 48 48" enable-background="new 0 0 48 48" xml:space="preserve">
<g>
	<path fill="#F7A93B" d="M47.3,19.3c-7.7-5.7-15-7.3-24.4-8.1c-0.7-0.1-1.3-0.2-1.6-0.5c-0.1-0.1-0.1-0.4-0.1-0.6
		c0-0.7,0-1.5,0.1-2.2c0.2-1.9,0.4-3.8-1-5.3c-1.5-1.5-3.9-1.6-6-1.6L5,1.2c-0.3,0-0.4,0-0.6,0c-0.2,0-0.5-0.1-1-0.1V0.5H0.5v47h2.9
		V21.8c3.8-0.7,7.9-0.7,11.7-0.1c0.2,0,0.5,0.1,0.6,0.2c0.1,0.1,0.1,0.3,0.1,0.5c0,0.5,0,0.9,0,1.4c0,1.5-0.1,2.9,0.8,4.2
		c1.1,1.5,3,1.9,4.1,2c0.9,0.1,1.8,0.1,2.7,0c0.5,0,1.1,0,1.6,0c3.5,0.1,6.8,1.4,10,2.6c1.4,0.5,2.8,1.2,3.3,2.3
		c0.1,0.2,0.3,0.3,0.4,0.3c0.1,0,0.1,0,0.2,0c0.2-0.1,0.4-0.4,0.3-0.6c-1.5-4.4-3.2-8.8-5.2-11.9c3.9-1.5,8.9-2.4,12.9-2.4
		c0.2,0,0.4-0.1,0.5-0.3C47.5,19.6,47.5,19.4,47.3,19.3z"/>
</g>
</svg>
