<?xml version="1.0" encoding="utf-8"?>
<!-- Generator: Adobe Illustrator 18.0.0, SVG Export Plug-In . SVG Version: 6.00 Build 0)  -->
<!DOCTYPE svg PUBLIC "-//W3C//DTD SVG 1.1//EN" "http://www.w3.org/Graphics/SVG/1.1/DTD/svg11.dtd">
<svg version="1.1" id="Layer_1" xmlns="http://www.w3.org/2000/svg" xmlns:xlink="http://www.w3.org/1999/xlink" x="0px" y="0px"
	 viewBox="0 0 48 48" enable-background="new 0 0 48 48" xml:space="preserve">
<g>
	<rect x="12.6" y="19.2" fill="#F04B36" width="5.1" height="5.4"/>
	<rect x="12.6" y="33.6" fill="#E77528" width="5.1" height="5.4"/>
	<path fill="#F04B36" d="M18.6,3.8c0,0.5-0.4,0.9-0.8,1c-1.5,0.4-3.8,1.1-4.4,1.5c-0.6,0.4-0.9,1.7-0.9,2.7h23.1
		c-0.1-0.9-0.3-2-0.7-2.5c-0.1-0.1-0.1-0.1-0.2-0.2c-0.6-0.4-3-1.1-4.4-1.5c-0.4-0.1-0.8-0.5-0.8-1C29.3,2,26.8,0.5,24,0.5
		C21.2,0.5,18.7,2,18.6,3.8z"/>
	<path fill="#0DB89A" d="M39.2,6.7h-1.9c0.5,1.5,0.4,3.2,0.4,3.4c0,0.6-0.5,1-1.1,1H11.4c-0.6,0-1-0.4-1.1-1c0-0.3-0.1-1.9,0.4-3.4
		H8.8c-0.5,0-1,0.4-1,1v38.9c0,0.5,0.4,1,1,1h30.5c0.5,0,1-0.4,1-1V7.7C40.2,7.1,39.8,6.7,39.2,6.7z M19.9,40.1
		c0,0.6-0.5,1.1-1.1,1.1h-7.2c-0.6,0-1.1-0.5-1.1-1.1v-7.6c0-0.6,0.5-1.1,1.1-1.1h7.2c0.6,0,1.1,0.5,1.1,1.1V40.1z M19.9,25.7
		c0,0.6-0.5,1.1-1.1,1.1h-7.2c-0.6,0-1.1-0.5-1.1-1.1v-7.6c0-0.6,0.5-1.1,1.1-1.1h7.2c0.6,0,1.1,0.5,1.1,1.1V25.7z M36.4,37.3H22.9
		v-2.1h13.5V37.3z M36.4,23H22.9v-2.1h13.5V23z"/>
</g>
</svg>
