<?xml version="1.0" encoding="utf-8"?>
<!-- Generator: Adobe Illustrator 18.0.0, SVG Export Plug-In . SVG Version: 6.00 Build 0)  -->
<!DOCTYPE svg PUBLIC "-//W3C//DTD SVG 1.1//EN" "http://www.w3.org/Graphics/SVG/1.1/DTD/svg11.dtd">
<svg version="1.1" id="Layer_1" xmlns="http://www.w3.org/2000/svg" xmlns:xlink="http://www.w3.org/1999/xlink" x="0px" y="0px"
	 viewBox="0 0 48 48" enable-background="new 0 0 48 48" xml:space="preserve">
<g>
	<path fill="#F04B36" d="M30.4,31.7c-0.6,0-0.8,0.5-0.8,0.9h1.6C31.1,32.3,31,31.7,30.4,31.7z"/>
	<path fill="#F04B36" d="M23.3,31.8c-0.6,0-0.9,0.6-0.9,1.2c0,0.7,0.3,1.2,0.9,1.2c0.5,0,0.9-0.5,0.9-1.2
		C24.2,32.4,23.9,31.8,23.3,31.8z"/>
	<path fill="#F04B36" d="M25.3,0.4c-6.4,0-11.6,5.2-11.6,11.6c0,1,0.8,1.9,1.9,1.9c1,0,1.9-0.8,1.9-1.9c0-4.3,3.5-7.8,7.8-7.8
		c4.3,0,7.7,3.4,7.8,7.7c-0.2,0.7-1.7,5.3-12.5,6.5c-3.3,0.4-9.4,2.7-9.4,9.1v15.3c0,0.5,0,1.7,1,2.9c1.2,1.3,3.1,2,5.8,2h12.9
		c0,0,0,0,0,0c2.4-0.1,6-2,6-7V11.9C36.9,5.6,31.7,0.4,25.3,0.4z M18,34.1c0.4,0,0.7-0.1,1-0.2l0.1,0.7c-0.2,0.1-0.7,0.2-1.3,0.2
		c-1.6,0-2.5-1-2.5-2.5c0-1.6,1.1-2.6,2.6-2.6c0.6,0,1,0.1,1.2,0.2l-0.2,0.7c-0.2-0.1-0.6-0.2-1-0.2c-1,0-1.7,0.6-1.7,1.8
		C16.2,33.4,16.9,34.1,18,34.1z M20.7,34.7h-0.9v-5.2h0.9V34.7z M23.2,34.8c-1,0-1.8-0.7-1.8-1.8c0-1.2,0.8-1.9,1.9-1.9
		c1.1,0,1.8,0.7,1.8,1.8C25.1,34.2,24.2,34.8,23.2,34.8z M26.7,34.8c-0.4,0-0.8-0.1-1.1-0.2l0.2-0.7c0.2,0.1,0.6,0.3,0.9,0.3
		c0.4,0,0.6-0.2,0.6-0.4c0-0.2-0.1-0.4-0.6-0.5c-0.7-0.2-1-0.6-1-1c0-0.6,0.5-1.1,1.3-1.1c0.4,0,0.7,0.1,0.9,0.2l-0.2,0.6
		c-0.2-0.1-0.4-0.2-0.8-0.2c-0.3,0-0.5,0.2-0.5,0.4c0,0.2,0.2,0.3,0.6,0.5c0.6,0.2,0.9,0.6,1,1.1C28.1,34.4,27.6,34.8,26.7,34.8z
		 M31.9,33.2h-2.4c0,0.6,0.5,0.9,1.1,0.9c0.4,0,0.7-0.1,1-0.2l0.1,0.6c-0.3,0.1-0.7,0.2-1.2,0.2c-1.2,0-1.8-0.7-1.8-1.8
		c0-1,0.6-1.9,1.7-1.9c1.2,0,1.5,1,1.5,1.7C32,33,31.9,33.1,31.9,33.2z"/>
</g>
</svg>
