<?xml version="1.0" encoding="utf-8"?>
<!-- Generator: Adobe Illustrator 18.0.0, SVG Export Plug-In . SVG Version: 6.00 Build 0)  -->
<!DOCTYPE svg PUBLIC "-//W3C//DTD SVG 1.1//EN" "http://www.w3.org/Graphics/SVG/1.1/DTD/svg11.dtd">
<svg version="1.1" id="Layer_1" xmlns="http://www.w3.org/2000/svg" xmlns:xlink="http://www.w3.org/1999/xlink" x="0px" y="0px"
	 viewBox="0 0 48 48" enable-background="new 0 0 48 48" xml:space="preserve">
<g>
	<path fill="#F04B36" d="M30.3,39c1.2-2.2,2.4-4.9,0.7-6.9c-0.8-0.9-1.9-1.4-2.9-2.1c-2-1.5-3.2-3.6-3.2-5.7
		c-4.1,4.3-6.2,9.6-5.8,14.9c-4.8-1.7-9.4-4-12.5-7.2c-3.1-3.2-4.8-7.5-3.4-11.4c1.2-3.5,4.6-6.7,3.7-10.3c-0.1,1.8,3.1,2.3,5.2,3.3
		c3.1,1.5,3.7,4.6,4,7.4c1.9-3.5,3.8-7,5.6-10.6c1.7-3.1,3.3-6.8,1.2-9.8c7.3,4.1,11.7,10.9,11.5,17.8c2.8-2.7,4.1-6.2,3.6-9.5
		c4,5.1,8.1,10.8,6.6,16.7C43,31.2,36.5,35.4,30.3,39z"/>
	<polygon fill="#0DB89A" points="0.9,47.5 0.5,45.5 47.1,39.5 47.5,41.4 	"/>
	<polygon fill="#0DB89A" points="0.9,47.5 0.5,45.5 47.1,39.5 47.5,41.4 	"/>
	<polygon fill="#0DB89A" points="47.1,47.5 0.5,41.4 0.9,39.5 47.5,45.5 	"/>
	<polygon fill="#0DB89A" points="47.1,47.5 0.5,41.4 0.9,39.5 47.5,45.5 	"/>
</g>
</svg>
