<?xml version="1.0" encoding="utf-8"?>
<!-- Generator: Adobe Illustrator 18.0.0, SVG Export Plug-In . SVG Version: 6.00 Build 0)  -->
<!DOCTYPE svg PUBLIC "-//W3C//DTD SVG 1.1//EN" "http://www.w3.org/Graphics/SVG/1.1/DTD/svg11.dtd">
<svg version="1.1" id="Layer_1" xmlns="http://www.w3.org/2000/svg" xmlns:xlink="http://www.w3.org/1999/xlink" x="0px" y="0px"
	 viewBox="0 0 48 48" enable-background="new 0 0 48 48" xml:space="preserve">
<g>
	<rect x="0.5" y="10.8" fill="#F04B36" width="6.4" height="2"/>
	<rect x="0.5" y="16.9" fill="#F04B36" width="6.4" height="2"/>
	<rect x="0.5" y="23" fill="#F04B36" width="6.4" height="2"/>
	<rect x="0.5" y="29.2" fill="#F04B36" width="6.4" height="2"/>
	<rect x="0.5" y="35.3" fill="#F04B36" width="6.4" height="2"/>
	<path fill="#CFD0D1" d="M43.6,0.5H11.4c-2.1,0-3.9,1.7-3.9,3.9v39.3c0,2.1,1.7,3.9,3.9,3.9h32.2c2.1,0,3.9-1.7,3.9-3.9V4.4
		C47.5,2.2,45.8,0.5,43.6,0.5z M15,37.2h-4.9v-2H15V37.2z M15,31.1h-4.9v-2H15V31.1z M15,25h-4.9v-2H15V25z M15,18.8h-4.9v-2H15
		V18.8z M15,12.7h-4.9v-2H15V12.7z M41.7,38.1c-2.4,1.3-4.4,1.9-6,1.9c-0.4,0-0.9-0.1-1.3-0.2c-7-1.8-15.9-19.4-14.6-26.2
		c0.4-1.9,2.1-3.7,5.3-5.6L26,7.6l5.3,9.6l-0.8,0.5c-1.7,1.1-2.1,1.7-2.2,1.9c-0.6,1.4,0,4.2,1.5,6.5c1.2,1.9,2.6,3.1,3.8,3.1
		c0,0,0,0,0,0c0.5,0,1.3-0.2,2.9-0.9l0.8-0.4l5.3,9.6L41.7,38.1z"/>
	<path fill="#06728D" d="M33.7,31.3l-0.2,0c-1.9-0.1-3.8-1.6-5.4-4.1c-1.5-2.5-2.6-6-1.6-8.3c0.3-0.7,1-1.5,2.2-2.3l-3.5-6.2
		c-2.6,1.6-3.3,2.9-3.5,3.7c-1.2,6.4,7.6,22.4,13.2,23.9c1.1,0.3,2.8-0.1,5-1.2l-3.5-6.2C35.3,31.1,34.4,31.3,33.7,31.3z"/>
</g>
</svg>
