<?xml version="1.0" encoding="utf-8"?>
<!-- Generator: Adobe Illustrator 18.0.0, SVG Export Plug-In . SVG Version: 6.00 Build 0)  -->
<!DOCTYPE svg PUBLIC "-//W3C//DTD SVG 1.1//EN" "http://www.w3.org/Graphics/SVG/1.1/DTD/svg11.dtd">
<svg version="1.1" id="Layer_1" xmlns="http://www.w3.org/2000/svg" xmlns:xlink="http://www.w3.org/1999/xlink" x="0px" y="0px"
	 viewBox="0 0 48 48" enable-background="new 0 0 48 48" xml:space="preserve">
<g>
	<path fill="#F04B36" d="M0.5,5.1v42.4H23h0.9h23.6V5.1h-2.9v39.1l-1.4-0.6c-5.9-2.3-12.2-2.3-18.1-0.2L24,43.8l-1.1-0.4
		c-6-2.1-12.2-2-18.1,0.2l-1.4,0.6V5.1H0.5z"/>
	<path fill="#F7A93B" d="M42.5,2c-5.7-2-11.7-2-17.4,0v39.2c2.9-0.9,5.8-1.4,8.7-1.4c2.9,0,5.9,0.5,8.7,1.4V2z"/>
	<path fill="#F7A93B" d="M5.5,41.2c2.9-0.9,5.8-1.4,8.7-1.4s5.9,0.5,8.7,1.4V2C17.2,0,11.2,0,5.5,2V41.2z"/>
</g>
</svg>
