<?xml version="1.0" encoding="utf-8"?>
<!-- Generator: Adobe Illustrator 18.0.0, SVG Export Plug-In . SVG Version: 6.00 Build 0)  -->
<!DOCTYPE svg PUBLIC "-//W3C//DTD SVG 1.1//EN" "http://www.w3.org/Graphics/SVG/1.1/DTD/svg11.dtd">
<svg version="1.1" id="Layer_1" xmlns="http://www.w3.org/2000/svg" xmlns:xlink="http://www.w3.org/1999/xlink" x="0px" y="0px"
	 viewBox="0 0 48 48" enable-background="new 0 0 48 48" xml:space="preserve">
<g>
	<path fill="#E77528" d="M37.1,17.3H10.9c-0.8,0-1.5-0.5-1.7-1.3c-0.2-0.8,0.2-1.6,0.9-1.9L22,7.9c1.2-0.7,2.8-0.7,4,0l11.9,6.2
		c0.7,0.4,1.1,1.1,0.9,1.9C38.6,16.8,37.9,17.3,37.1,17.3z M11.9,15.4h24.2l-11-5.8c-0.7-0.4-1.5-0.4-2.2,0L11.9,15.4z"/>
	<path fill="#E77528" d="M25,8.4h-2V5.3h1c0.8,0,1.4-0.6,1.4-1.4c0-0.8-0.6-1.4-1.4-1.4c-0.8,0-1.4,0.6-1.4,1.4h-2
		c0-1.9,1.5-3.4,3.4-3.4c1.9,0,3.4,1.5,3.4,3.4c0,1.5-1,2.8-2.4,3.2V8.4z"/>
	<path fill="#F04B36" d="M37.4,23.7c-1-3.2-3.8-5.7-6.3-5.7c-0.4,0-0.7,0.1-1,0.2c-3.1,1.1-5,3.6-6,5.9c-1.1-2.3-2.9-4.8-6-5.9
		c-0.3-0.1-0.7-0.2-1-0.2c-2.5,0-5.2,2.5-6.3,5.7c-0.6,1.9-1.4,6.6,4.2,10.8c0.4,1.5,1.7,7.7,0.2,11.7l-0.5,1.3h18.9L33,46.2
		c-1.5-4-0.1-10.2,0.2-11.7C38.8,30.3,38,25.5,37.4,23.7z"/>
	<rect x="15.7" y="11.3" fill="#06728D" width="2" height="7.1"/>
	<rect x="30.4" y="11.3" fill="#06728D" width="2" height="7.1"/>
</g>
</svg>
