<?xml version="1.0" encoding="utf-8"?>
<!-- Generator: Adobe Illustrator 18.0.0, SVG Export Plug-In . SVG Version: 6.00 Build 0)  -->
<!DOCTYPE svg PUBLIC "-//W3C//DTD SVG 1.1//EN" "http://www.w3.org/Graphics/SVG/1.1/DTD/svg11.dtd">
<svg version="1.1" id="Layer_1" xmlns="http://www.w3.org/2000/svg" xmlns:xlink="http://www.w3.org/1999/xlink" x="0px" y="0px"
	 viewBox="0 0 48 48" enable-background="new 0 0 48 48" xml:space="preserve">
<g>
	<path fill="#0DB89A" d="M16.5,47.4h-10c-3.3,0-6.1-2.5-6.1-5.7V6.2c0-3.1,2.7-5.7,6.1-5.7h10v2h-10c-2.3,0-4.1,1.7-4.1,3.7v35.6
		c0,2,1.8,3.7,4.1,3.7h10V47.4z"/>
	<rect x="7" y="4.8" fill="#0DB89A" width="9.6" height="2"/>
	<rect x="7" y="8.8" fill="#0DB89A" width="9.6" height="2"/>
	<rect x="7" y="12.9" fill="#0DB89A" width="9.6" height="2"/>
	<rect x="7" y="16.9" fill="#0DB89A" width="9.6" height="2"/>
	<rect x="7" y="21" fill="#0DB89A" width="9.6" height="2"/>
	<rect x="7" y="25" fill="#0DB89A" width="9.6" height="2"/>
	<rect x="7" y="29.1" fill="#0DB89A" width="9.6" height="2"/>
	<rect x="7" y="33.1" fill="#0DB89A" width="9.6" height="2"/>
	<rect x="7" y="37.2" fill="#0DB89A" width="9.6" height="2"/>
	<rect x="7" y="41.2" fill="#0DB89A" width="9.6" height="2"/>
	<polygon fill="#06728D" points="39.3,37.7 33.4,25.9 27.6,37.7 25.8,36.9 33.4,21.5 41.1,36.9 	"/>
	<polygon fill="#06728D" points="33.4,27 25.8,1.7 27.6,1.1 33.4,20.3 39.2,1.1 41.1,1.7 	"/>
	<path fill="#E77528" d="M41.5,36.3c-3.3,0-6,2.5-6,5.6c0,3.1,2.7,5.6,6,5.6c3.3,0,6-2.5,6-5.6C47.5,38.8,44.8,36.3,41.5,36.3z"/>
	<path fill="#E77528" d="M25.4,36.3c-3.3,0-6,2.5-6,5.6c0,3.1,2.7,5.6,6,5.6c3.3,0,6-2.5,6-5.6C31.3,38.8,28.7,36.3,25.4,36.3z"/>
</g>
</svg>
