<?xml version="1.0" encoding="utf-8"?>
<!-- Generator: Adobe Illustrator 18.0.0, SVG Export Plug-In . SVG Version: 6.00 Build 0)  -->
<!DOCTYPE svg PUBLIC "-//W3C//DTD SVG 1.1//EN" "http://www.w3.org/Graphics/SVG/1.1/DTD/svg11.dtd">
<svg version="1.1" id="Layer_1" xmlns="http://www.w3.org/2000/svg" xmlns:xlink="http://www.w3.org/1999/xlink" x="0px" y="0px"
	 viewBox="0 0 48 48" enable-background="new 0 0 48 48" xml:space="preserve">
<g>
	<rect x="36.5" y="23.1" fill="#010101" width="6.8" height="2"/>
	<polygon fill="#06728D" points="39.4,36.6 47.1,30 39.4,30 	"/>
	<path fill="#0DB89A" d="M4.4,15.1v21.9h33v-8c0-0.6,0.4-1,1-1h9.1V15.1H4.4z M22.5,19.7h3.6v0.9h-1.3v3.8h-1.1v-3.8h-1.3V19.7z
		 M11.8,20.6h-1.3v3.8H9.4v-3.8H8.2v-0.9h3.6V20.6z M13.4,24.4h-1.1v-4.7h1.1V24.4z M16.7,23.6c0.3,0,0.7-0.1,0.9-0.2l0.2,0.8
		c-0.2,0.1-0.6,0.2-1.2,0.2c-1.6,0-2.5-1-2.5-2.4c0-1.6,1.1-2.5,2.6-2.5c0.6,0,1,0.1,1.2,0.2l-0.2,0.8c-0.2-0.1-0.5-0.2-0.9-0.2
		c-0.8,0-1.5,0.5-1.5,1.6C15.2,23,15.8,23.6,16.7,23.6z M20,22.3l-0.4,0.5v1.5h-1.1v-4.7h1.1v2.1h0c0.1-0.2,0.2-0.3,0.3-0.5l1.1-1.6
		h1.3l-1.6,2l1.6,2.7h-1.2L20,22.3z M36.5,32.7H21.6v-2h14.9V32.7z M36.5,28.9H21.6v-2h14.9V28.9z M43.2,21.3h-6.8v-2h6.8V21.3z"/>
	<polygon fill="#E77528" points="2.4,13.1 44.4,13.1 44.4,11.1 0.5,11.1 0.5,33.7 2.4,33.7 	"/>
</g>
</svg>
