<?xml version="1.0" encoding="utf-8"?>
<!-- Generator: Adobe Illustrator 18.0.0, SVG Export Plug-In . SVG Version: 6.00 Build 0)  -->
<!DOCTYPE svg PUBLIC "-//W3C//DTD SVG 1.1//EN" "http://www.w3.org/Graphics/SVG/1.1/DTD/svg11.dtd">
<svg version="1.1" id="Layer_1" xmlns="http://www.w3.org/2000/svg" xmlns:xlink="http://www.w3.org/1999/xlink" x="0px" y="0px"
	 viewBox="0 0 48 48" enable-background="new 0 0 48 48" xml:space="preserve">
<g>
	<path fill="#4DA0D8" d="M38.7,43.7c0.4,0,0.8,0,1.2-0.1c4.6-0.6,8-4.4,7.5-8.4c-0.4-3.6-3.9-6.4-8.1-6.4c-0.4,0-0.8,0-1.2,0.1
		c-4.6,0.6-8,4.4-7.5,8.5C31.1,40.9,34.5,43.7,38.7,43.7z"/>
	<polygon fill="#F04B36" points="22.6,12.2 25.4,12.2 25.1,10 22.9,10 	"/>
	<path fill="#0DB89A" d="M37.9,26.7c0.5-0.1,1-0.1,1.5-0.1c2,0,3.8,0.5,5.4,1.4L35.5,5.8c-0.7-0.9-2.9-1.8-5-1.4
		c-1.7,0.3-2.9,1.3-3.5,3.1l2.9,24.1C31.6,29,34.4,27.1,37.9,26.7z"/>
	<path fill="#0DB89A" d="M21,7.5c-0.6-1.8-1.8-2.8-3.5-3.1c-2.1-0.4-4.2,0.6-5,1.4L3.3,28c1.6-0.9,3.4-1.4,5.4-1.4
		c0.5,0,1,0,1.5,0.1c3.4,0.4,6.3,2.3,7.9,4.9L21,7.5z"/>
	<polygon fill="#F04B36" points="27,25.4 21,25.4 20.7,27.5 27.3,27.5 	"/>
	<path fill="#4DA0D8" d="M9.9,28.8c-0.4-0.1-0.8-0.1-1.2-0.1c-4.2,0-7.6,2.7-8.1,6.4c-0.5,4.1,2.9,7.9,7.5,8.4
		c0.4,0.1,0.8,0.1,1.2,0.1c4.2,0,7.6-2.7,8.1-6.4C17.9,33.2,14.5,29.4,9.9,28.8z"/>
</g>
</svg>
