<?xml version="1.0" encoding="utf-8"?>
<!-- Generator: Adobe Illustrator 18.0.0, SVG Export Plug-In . SVG Version: 6.00 Build 0)  -->
<!DOCTYPE svg PUBLIC "-//W3C//DTD SVG 1.1//EN" "http://www.w3.org/Graphics/SVG/1.1/DTD/svg11.dtd">
<svg version="1.1" id="Layer_1" xmlns="http://www.w3.org/2000/svg" xmlns:xlink="http://www.w3.org/1999/xlink" x="0px" y="0px"
	 viewBox="0 0 48 48" enable-background="new 0 0 48 48" xml:space="preserve">
<g>
	<path fill="#F7A93B" d="M21.6,19.3L18.2,24v0h4.5v-4.6c0-0.7,0-1.4,0.1-2.2h-0.1C22.3,18.1,22,18.7,21.6,19.3z"/>
	<path fill="#F7A93B" d="M24,0.5C11,0.5,0.5,11,0.5,24S11,47.5,24,47.5C37,47.5,47.5,37,47.5,24S37,0.5,24,0.5z M14.9,29.3H6v-1.2
		l1.5-1.4c3.5-3.4,5.1-5.2,5.2-7.2c0-1.4-0.7-2.7-2.7-2.7c-1.3,0-2.3,0.6-2.9,1.2l-0.6-1.3c1-0.8,2.3-1.4,3.9-1.4c3,0,4.2,2,4.2,4
		c0,2.6-1.9,4.6-4.8,7.4l-1.1,1v0h6.2V29.3z M26.5,25.6h-1.9v3.8h-1.8v-3.8h-6.4v-1.2l6.2-8.8h2v8.6h1.9V25.6z M30.2,34.7h-1.4V13.3
		h1.4V34.7z M35.9,29.3H34l6-12.3v0h-6.8v-1.6H42v1.2L35.9,29.3z"/>
</g>
</svg>
