<?xml version="1.0" encoding="utf-8"?>
<!-- Generator: Adobe Illustrator 18.0.0, SVG Export Plug-In . SVG Version: 6.00 Build 0)  -->
<!DOCTYPE svg PUBLIC "-//W3C//DTD SVG 1.1//EN" "http://www.w3.org/Graphics/SVG/1.1/DTD/svg11.dtd">
<svg version="1.1" id="Layer_1" xmlns="http://www.w3.org/2000/svg" xmlns:xlink="http://www.w3.org/1999/xlink" x="0px" y="0px"
	 viewBox="0 0 48 48" enable-background="new 0 0 48 48" xml:space="preserve">
<g>
	<path fill="#4DA0D8" d="M44.2,33.7c2.3-3.3,3.5-7.1,3.3-10.8c-0.2-3.6-1.7-6.5-4.2-8.3c-5-3.6-12.7-1.6-17.6,4.5
		c-0.1,0.9-0.3,2.2-0.4,3.7c7.2-4.9,15.2-3.2,15.5-3.1l0.9,0.2l-0.1,0.9C40.1,40.1,26.2,41,26,41l0-1.1l-0.1-1.1
		c0.5,0,11.8-0.8,13.5-17.3c-2.4-0.3-9-0.6-14.4,4c-0.2,2.5-0.3,5-0.3,6.3c0,7.8-4.2,14.2-9.7,15.2c3.6,1.1,8.5-0.1,12.6-3.4
		c2.2-1.8,4.9-3,7.6-4.2C38.8,37.9,42.2,36.4,44.2,33.7z"/>
	<path fill="#F04B36" d="M23.7,18c0.9-3.9,0.5-7.9-1.1-11.2c-1.5-3.2-4.1-5.4-7.1-6.1c-0.7-0.2-1.4-0.2-2.1-0.2
		C7.7,0.5,2.4,5.6,0.7,12.7C0,16,1.1,19.6,2.3,23.3c0.9,2.8,1.8,5.6,1.9,8.5c0.4,7.6,4.3,13.3,9.2,13.3c5.1,0,9.2-5.9,9.2-13.3
		C22.6,29.3,23.1,20.4,23.7,18z M21.3,25.9l-2.1-0.4c1.8-9.3-4.4-15.4-6.6-17.2C0.9,20.5,8.4,29.8,8.4,29.9l-1.6,1.4
		C6.7,31.1-2.3,20,11.7,6l0.6-0.6l0.7,0.5C13.5,6.2,23.6,13.5,21.3,25.9z"/>
</g>
</svg>
