<?xml version="1.0" encoding="utf-8"?>
<!-- Generator: Adobe Illustrator 18.0.0, SVG Export Plug-In . SVG Version: 6.00 Build 0)  -->
<!DOCTYPE svg PUBLIC "-//W3C//DTD SVG 1.1//EN" "http://www.w3.org/Graphics/SVG/1.1/DTD/svg11.dtd">
<svg version="1.1" id="Layer_1" xmlns="http://www.w3.org/2000/svg" xmlns:xlink="http://www.w3.org/1999/xlink" x="0px" y="0px"
	 viewBox="0 0 48 48" enable-background="new 0 0 48 48" xml:space="preserve">
<g>
	<path fill="#F7A93B" d="M39.3,19.9c3.7,0,6.8-3,6.8-6.8c0-3.7-3-6.8-6.8-6.8c-3.7,0-6.8,3-6.8,6.8C32.5,16.8,35.6,19.9,39.3,19.9z"
		/>
	<path fill="#06728D" d="M8.3,14.7c0,0,1.1-0.1,2.7-0.1c2.3,0,6.2,0.3,9.5,1.9l-10.9,8l0.2,0.7c0.3,1,1.7,3,4.2,3l0.1,0
		c1.5,0,2.8-1.1,4.4-2.4c1.7-1.4,3.7-2.9,5.6-2.8c2.2,0.2,4.9,1.8,6.9,2.9c1.6,0.9,2.4,1.4,3.1,1.4c0.2,0,0.5-0.1,0.7-0.2
		c0.3-0.2,0.5-0.5,0.6-0.8c0.1-0.5,0.4-1.7-5-9.7l-0.1-0.2C25.7,8.9,16.2,7.7,11,7.7c-2,0-3.4,0.2-3.6,0.2c-1.8,0.2-3.2,1.9-2.9,3.8
		C4.7,13.6,6.4,14.9,8.3,14.7z"/>
	<path fill="#4DA0D8" d="M41.2,28.8c-1,1.3-1.8,2.3-4.3,2.3c-2.7,0-3.8-1.1-5.3-2.5c-1.5-1.4-3.2-3.1-6.6-3.1
		c-3.6,0-5.5,1.8-7.1,3.3c-1.4,1.3-2.4,2.3-4.4,2.3c-1.9,0-3.1-1-4.6-2.2c-1.8-1.5-4.1-3.4-8.4-3.4v3.1c3.1,0,4.7,1.3,6.4,2.7
		c1.6,1.3,3.5,2.9,6.5,2.9c3.2,0,5-1.6,6.5-3.1c1.5-1.4,2.6-2.4,5-2.4c2.2,0,3.2,0.9,4.5,2.2c1.5,1.5,3.4,3.3,7.4,3.3
		c4,0,5.5-1.9,6.7-3.4c1-1.3,1.7-2.1,3.9-2.1v-3.1C43.8,25.6,42.3,27.4,41.2,28.8z"/>
	<path fill="#4DA0D8" d="M41.2,36.3c-1,1.3-1.8,2.3-4.3,2.3c-2.7,0-3.8-1.1-5.3-2.5c-1.5-1.4-3.2-3.1-6.6-3.1
		c-3.6,0-5.5,1.8-7.1,3.3c-1.4,1.3-2.4,2.3-4.4,2.3c-1.9,0-3.1-1-4.6-2.2C7,34.9,4.7,33,0.5,33v3.1c3.1,0,4.7,1.3,6.4,2.7
		c1.6,1.3,3.5,2.9,6.5,2.9c3.2,0,5-1.6,6.5-3.1c1.5-1.4,2.6-2.4,5-2.4c2.2,0,3.2,0.9,4.5,2.2c1.5,1.5,3.4,3.3,7.4,3.3
		c4,0,5.5-1.9,6.7-3.4c1-1.3,1.7-2.1,3.9-2.1V33C43.8,33,42.3,34.9,41.2,36.3z"/>
</g>
</svg>
