<?xml version="1.0" encoding="utf-8"?>
<!-- Generator: Adobe Illustrator 18.0.0, SVG Export Plug-In . SVG Version: 6.00 Build 0)  -->
<!DOCTYPE svg PUBLIC "-//W3C//DTD SVG 1.1//EN" "http://www.w3.org/Graphics/SVG/1.1/DTD/svg11.dtd">
<svg version="1.1" id="Layer_1" xmlns="http://www.w3.org/2000/svg" xmlns:xlink="http://www.w3.org/1999/xlink" x="0px" y="0px"
	 viewBox="0 0 48 48" enable-background="new 0 0 48 48" xml:space="preserve">
<g>
	<path fill="#F04B36" d="M14.2,22.1c1.3,0.4,3.7,1.1,5.9-1.6l-1.5-1.2c-1.2,1.6-2.3,1.4-3.8,1c-0.7-0.2-3-0.9-4.6,1l1.5,1.3
		C12.4,21.7,13.2,21.8,14.2,22.1z"/>
	<circle fill="#F04B36" cx="13.2" cy="17.2" r="0.6"/>
	<circle fill="#F04B36" cx="14.2" cy="18.9" r="0.4"/>
	<circle fill="#F04B36" cx="17.2" cy="18.6" r="0.4"/>
	<circle fill="#F04B36" cx="18" cy="16.7" r="0.5"/>
	<circle fill="#F04B36" cx="16.2" cy="15.5" r="0.6"/>
	<circle fill="#F04B36" cx="13.4" cy="14.5" r="0.6"/>
	<path fill="#0DB89A" d="M36.1,16.6c-0.1-0.2-0.9-1-2.8-1c-2.6,0-5,3-5.8,4.1l-4.4,0.2c-1.6,0.1-2.8,1.4-2.8,3c0,0.1,0,0.1,0,0.2
		c-1.2,0.6-5.9,2.8-10.3-0.1L9,24.7c2.1,1.4,4.2,1.8,6.1,1.8c2.9,0,5.2-1,6.2-1.5c0,0,0.1,0.1,0.1,0.1c0.5,0.5,1.2,0.7,1.9,0.7
		l6.5-0.3l1.2-1c1.4,2.6,1.5,4.4,1.4,5.1l-1.7,6.2l0.5,8.9c0.1,1.5,1.4,2.8,2.9,2.8l0.2,0c1.6-0.1,2.8-1.5,2.7-3.1l-0.4-7.5l2.9-4.9
		l0.8-1.3l0-0.2C40.4,30.5,41.1,22.1,36.1,16.6z"/>
	<polygon fill="#294E58" points="7.6,46.8 13.2,46.8 13.2,38.9 21.6,38.9 21.6,46.8 27.2,46.8 27.2,30.5 7.6,30.5 	"/>
	<path fill="#CFD0D1" d="M23.2,9.4c0.1,0,0.1,0,0.2,0l1.5,2.9l6.7-3.4l-1.1-2.4c0.4-0.8,0.9-2.4,0.2-3.7c-0.5-1-1.7-2.1-3.3-2.1
		c-0.6,0-1.3,0.2-1.9,0.5c-0.6,0.3-1,1.1-1.3,1.8c-0.2,0-0.5,0-0.7,0c-1,0-2.3,0.2-3.1,1.2c-0.6,0.7-0.8,1.7-0.6,2.9
		C20.1,8.5,21.4,9.4,23.2,9.4z"/>
	<path fill="#F7A93B" d="M29.1,16c0.7,0,1.3-0.2,1.9-0.5c0.9-0.5,1.6-1.3,1.9-2.3c0.3-0.9,0.2-1.8-0.2-2.7l-7,3.5
		C26.4,15.2,27.7,16,29.1,16z"/>
</g>
</svg>
