<?xml version="1.0" encoding="utf-8"?>
<!-- Generator: Adobe Illustrator 18.0.0, SVG Export Plug-In . SVG Version: 6.00 Build 0)  -->
<!DOCTYPE svg PUBLIC "-//W3C//DTD SVG 1.1//EN" "http://www.w3.org/Graphics/SVG/1.1/DTD/svg11.dtd">
<svg version="1.1" id="Layer_1" xmlns="http://www.w3.org/2000/svg" xmlns:xlink="http://www.w3.org/1999/xlink" x="0px" y="0px"
	 viewBox="0 0 48 48" enable-background="new 0 0 48 48" xml:space="preserve">
<g>
	<path fill="#F7A93B" d="M15.8,24.5c1.2,0,2.2-1,2.2-2.3c0-1.3-1-2.3-2.2-2.3c-1.2,0-2.2,1-2.2,2.3C13.6,23.5,14.6,24.5,15.8,24.5z"
		/>
	<path fill="#F04B36" d="M9.4,35.2h29.1V8.4H9.4V35.2z M27.9,15h7.6v2h-7.6V15z M27.9,20.8h7.6v2h-7.6V20.8z M27.9,26.6h7.6v2h-7.6
		V26.6z M15.8,17.9c2.3,0,4.2,1.9,4.2,4.3c0,2.4-1.9,4.3-4.2,4.3c-2.3,0-4.2-1.9-4.2-4.3C11.6,19.9,13.5,17.9,15.8,17.9z"/>
	<path fill="#06728D" d="M39.6,0.5H8.4C4.3,0.5,1,3.6,1,7.4v28.9c0,3.8,3.3,6.9,7.4,6.9h31.2c4.1,0,7.4-3.1,7.4-6.9V7.4
		C47,3.6,43.7,0.5,39.6,0.5z M40.6,36.2c0,0.6-0.4,1-1,1H8.4c-0.6,0-1-0.4-1-1V7.4c0-0.6,0.4-1,1-1h31.1c0.6,0,1,0.4,1,1V36.2z"/>
	<rect x="8.4" y="45.5" fill="#E77528" width="6.1" height="2"/>
	<rect x="31.7" y="45.5" fill="#E77528" width="6.1" height="2"/>
</g>
</svg>
