<?xml version="1.0" encoding="utf-8"?>
<!-- Generator: Adobe Illustrator 18.0.0, SVG Export Plug-In . SVG Version: 6.00 Build 0)  -->
<!DOCTYPE svg PUBLIC "-//W3C//DTD SVG 1.1//EN" "http://www.w3.org/Graphics/SVG/1.1/DTD/svg11.dtd">
<svg version="1.1" id="Layer_1" xmlns="http://www.w3.org/2000/svg" xmlns:xlink="http://www.w3.org/1999/xlink" x="0px" y="0px"
	 viewBox="0 0 48 48" enable-background="new 0 0 48 48" xml:space="preserve">
<g>
	<polygon fill="#F04B36" points="33.4,45.5 29.7,45.5 29.7,47.5 39.1,47.5 39.1,45.5 35.4,45.5 35.4,26.9 34.4,26.9 33.4,26.9 	"/>
	<polygon fill="#CFD0D1" points="1.2,17 19.4,17 20.1,7.2 0.5,7.2 	"/>
	<polygon fill="#0DB89A" points="3.4,46.5 17.2,46.5 19.2,19 1.4,19 	"/>
	<path fill="#F04B36" d="M34.4,26.9c4.2,0,7.8-3.3,9.4-7.9H25C26.6,23.6,30.2,26.9,34.4,26.9z"/>
	<path fill="#06728D" d="M46,7.9l1.5-1.3l-5-5.8c-0.2-0.2-0.5-0.4-0.9-0.3c-0.3,0-0.6,0.2-0.8,0.5l-7.5,12.6h-9.3
		c0,1.2,0.1,2.3,0.3,3.4h6.9h2.3h10.6c0.2-1.1,0.3-2.2,0.3-3.4h-9l6.2-10.5L46,7.9z"/>
</g>
</svg>
