<?xml version="1.0" encoding="utf-8"?>
<!-- Generator: Adobe Illustrator 18.0.0, SVG Export Plug-In . SVG Version: 6.00 Build 0)  -->
<!DOCTYPE svg PUBLIC "-//W3C//DTD SVG 1.1//EN" "http://www.w3.org/Graphics/SVG/1.1/DTD/svg11.dtd">
<svg version="1.1" id="Layer_1" xmlns="http://www.w3.org/2000/svg" xmlns:xlink="http://www.w3.org/1999/xlink" x="0px" y="0px"
	 viewBox="0 0 48 48" enable-background="new 0 0 48 48" xml:space="preserve">
<g>
	<path fill="#06728D" d="M38.4,0.5c-1,0-2,0.2-3,0.5v17.3c0.9,0.3,1.9,0.5,3,0.5c5,0,9.1-4.1,9.1-9.1C47.5,4.6,43.4,0.5,38.4,0.5z"
		/>
	<path fill="#E77528" d="M39.5,36.3C38,36,35.2,36,33.6,37.2c-1,0.7-1.6,2.1-2.1,3.2c-0.2,0.4-0.3,0.7-0.5,1
		c-0.6,1.2-1.3,1.8-2.2,2.7l-0.5,0.5c-1,1-2.5,1.3-3.5,0.6c-1.1-0.7-1.3-2.3-0.6-4.3c1.2,0.4,2.5,0.5,3.7,0c0,0,4.1-9.8,4.6-19.1
		l-8.9-1c0,0,0.2,11.9-4,17.3c0,0,1.1,1.1,2.8,2c-1.6,4.4,0.6,6.3,1.4,6.8c0.7,0.4,1.5,0.7,2.3,0.7c1.3,0,2.6-0.5,3.7-1.6l0.5-0.4
		c0.9-0.9,1.8-1.7,2.6-3.2c0.2-0.3,0.3-0.7,0.5-1.1c0.4-1,0.9-2,1.5-2.4c0.9-0.6,2.9-0.8,4.3-0.5c0.9,0.2,2.3,1,2.9,2l1.8-1
		C42.8,37.6,40.9,36.6,39.5,36.3z"/>
	<polygon fill="#CFD0D1" points="31.8,1.2 9.8,4 9.8,16.3 31.8,18 	"/>
	<polygon fill="#0DB89A" points="0.5,15.6 7.8,16.2 7.8,4.3 0.5,5.2 	"/>
</g>
</svg>
