<?xml version="1.0" encoding="utf-8"?>
<!-- Generator: Adobe Illustrator 18.0.0, SVG Export Plug-In . SVG Version: 6.00 Build 0)  -->
<!DOCTYPE svg PUBLIC "-//W3C//DTD SVG 1.1//EN" "http://www.w3.org/Graphics/SVG/1.1/DTD/svg11.dtd">
<svg version="1.1" id="Layer_1" xmlns="http://www.w3.org/2000/svg" xmlns:xlink="http://www.w3.org/1999/xlink" x="0px" y="0px"
	 viewBox="0 0 48 48" enable-background="new 0 0 48 48" xml:space="preserve">
<g>
	<path fill="#0DB89A" d="M16.8,5.1H32V0.5C27.3,2.4,21.6,3.9,16.8,5.1z"/>
	<path fill="#F04B36" d="M7.7,47.5h32.6V7.3h-4.7h-2.4H7.7V47.5z M31.3,32.6h0.9v4c0,1.5,0.7,2.1,1.6,2.1c1,0,1.6-0.7,1.6-2.1v-4
		h0.9v3.9c0,2-1.1,2.9-2.5,2.9c-1.4,0-2.4-0.8-2.4-2.9V32.6z M24.8,32.6h0.9l2.1,3.4c0.5,0.8,0.9,1.5,1.2,2.2l0,0
		C29,37.3,29,36.5,29,35.4v-2.8h0.8v6.7h-0.9l-2.1-3.4c-0.5-0.7-0.9-1.5-1.2-2.2l0,0c0.1,0.8,0.1,1.6,0.1,2.8v2.9h-0.8V32.6z
		 M19.9,32.6h3.6v0.7h-2.7v2.1h2.6v0.7h-2.6v2.4h2.9v0.7h-3.8V32.6z M12.2,32.6h1.1l1.1,3.2c0.3,0.8,0.5,1.6,0.7,2.2h0
		c0.2-0.7,0.4-1.4,0.7-2.2l1.2-3.2h1.1l0.4,6.7h-0.8l-0.2-2.9c0-0.9-0.1-2-0.1-2.9h0c-0.2,0.8-0.5,1.6-0.8,2.5l-1.2,3.2h-0.7
		l-1.1-3.2c-0.3-0.9-0.6-1.8-0.8-2.6h0c0,0.8-0.1,2-0.1,3l-0.2,2.9h-0.8L12.2,32.6z"/>
</g>
</svg>
