<?xml version="1.0" encoding="utf-8"?>
<!-- Generator: Adobe Illustrator 18.0.0, SVG Export Plug-In . SVG Version: 6.00 Build 0)  -->
<!DOCTYPE svg PUBLIC "-//W3C//DTD SVG 1.1//EN" "http://www.w3.org/Graphics/SVG/1.1/DTD/svg11.dtd">
<svg version="1.1" id="Layer_1" xmlns="http://www.w3.org/2000/svg" xmlns:xlink="http://www.w3.org/1999/xlink" x="0px" y="0px"
	 viewBox="0 0 48 48" enable-background="new 0 0 48 48" xml:space="preserve">
<g>
	<path fill="#F7A93B" d="M35,29.2l-8.8-2.8l8.1-25.3l-1.9-0.6l-8.1,25.3l-8.8-2.8l-1.8,5.5l0.4,0.1c0,0.3,0.1,0.5,0.1,0.6
		c0,0.1,0.1,0.2,0.1,0.2c0,0.1,0,0.3-0.1,0.5c-0.1,0.2-0.1,0.3-0.2,0.5c-0.2,0.8,0,1.3,0.2,1.7c0.1,0.1,0.1,0.3,0.1,0.4
		c0,0.3-0.1,0.5-0.2,0.7c-0.1,0.1-0.1,0.1-0.2,0.2c-0.3,0.3-0.7,0.6-0.8,1.4c-0.1,0.6,0.1,1.1,0.3,1.5c0.1,0.2,0.2,0.4,0.2,0.5
		c0,0.2-0.1,0.4-0.2,0.7c-0.1,0.2-0.2,0.5-0.3,0.8c-0.3,1.4,0.3,2.7,1,3.9l1.7-1c-0.4-0.7-0.9-1.7-0.8-2.4c0-0.2,0.1-0.3,0.2-0.5
		c0.2-0.4,0.4-0.9,0.3-1.5c0-0.5-0.2-0.9-0.3-1.2c-0.1-0.2-0.2-0.4-0.1-0.6c0,0,0.1-0.1,0.2-0.2c0.1-0.1,0.2-0.2,0.3-0.3
		c0.5-0.6,0.8-1.5,0.6-2.3c-0.1-0.4-0.2-0.6-0.3-0.8c-0.1-0.2-0.1-0.2-0.1-0.3c0-0.1,0.1-0.2,0.1-0.3c0.1-0.3,0.3-0.7,0.3-1.3
		c0,0,0-0.1,0-0.1l2,0.6c0,0.3,0.1,0.5,0.1,0.6c0,0.1,0.1,0.2,0.1,0.2c0,0.1,0,0.3-0.1,0.5c-0.1,0.2-0.1,0.3-0.2,0.5
		c-0.2,0.8,0,1.3,0.2,1.7c0.1,0.1,0.1,0.3,0.1,0.4c0,0.3-0.1,0.5-0.2,0.7c-0.1,0.1-0.1,0.1-0.2,0.2c-0.3,0.3-0.7,0.6-0.8,1.4
		c-0.1,0.6,0.1,1.1,0.3,1.5c0.1,0.2,0.2,0.4,0.2,0.5c0,0.2-0.1,0.4-0.2,0.7c-0.1,0.3-0.2,0.5-0.3,0.8c-0.3,1.4,0.3,2.7,1,3.9l1.7-1
		c-0.4-0.7-0.9-1.7-0.8-2.4c0-0.2,0.1-0.3,0.2-0.5c0.2-0.4,0.3-0.9,0.3-1.5c0-0.5-0.2-0.9-0.3-1.2c-0.1-0.2-0.2-0.4-0.1-0.6
		c0,0,0.1-0.1,0.2-0.2c0.1-0.1,0.2-0.2,0.3-0.3c0.5-0.6,0.8-1.5,0.6-2.3c-0.1-0.4-0.2-0.6-0.3-0.8C20,32.4,20,32.4,20,32.3
		c0-0.1,0.1-0.2,0.1-0.3c0.1-0.3,0.3-0.7,0.3-1.3c0,0,0-0.1,0-0.1l2,0.6c0,0.3,0.1,0.5,0.1,0.6c0,0.1,0.1,0.2,0.1,0.2
		c0,0.1,0,0.3-0.1,0.5c-0.1,0.2-0.1,0.3-0.2,0.5c-0.2,0.8,0,1.3,0.2,1.7c0.1,0.1,0.1,0.3,0.1,0.4c0,0.3-0.1,0.5-0.2,0.7
		c-0.1,0.1-0.1,0.1-0.2,0.2c-0.3,0.3-0.7,0.6-0.8,1.4c-0.1,0.6,0.1,1.1,0.3,1.5c0.1,0.2,0.2,0.4,0.2,0.5c0,0.2-0.1,0.4-0.2,0.7
		c-0.1,0.3-0.2,0.5-0.3,0.8c-0.3,1.4,0.3,2.7,1,3.9l1.7-1c-0.4-0.7-0.9-1.7-0.8-2.4c0-0.2,0.1-0.3,0.2-0.5c0.2-0.4,0.4-0.9,0.3-1.5
		c0-0.5-0.2-0.9-0.3-1.2c-0.1-0.2-0.2-0.4-0.1-0.6c0,0,0.1-0.1,0.2-0.2c0.1-0.1,0.2-0.2,0.3-0.3c0.5-0.6,0.8-1.5,0.6-2.3
		c-0.1-0.4-0.2-0.6-0.3-0.8c-0.1-0.2-0.1-0.2-0.1-0.3c0-0.1,0.1-0.2,0.1-0.3c0.1-0.3,0.3-0.7,0.3-1.3c0,0,0-0.1,0-0.1l2,0.6
		c0,0.3,0.1,0.5,0.1,0.6c0,0.1,0.1,0.2,0.1,0.2c0,0.1,0,0.3-0.1,0.5c-0.1,0.2-0.1,0.3-0.2,0.5c-0.2,0.8,0,1.3,0.2,1.7
		c0.1,0.1,0.1,0.3,0.1,0.4c0,0.3-0.1,0.5-0.2,0.7c-0.1,0.1-0.1,0.1-0.2,0.2c-0.3,0.3-0.7,0.6-0.8,1.4c-0.1,0.6,0.1,1.1,0.3,1.5
		c0.1,0.2,0.2,0.4,0.2,0.5c0,0.2-0.1,0.4-0.2,0.7c-0.1,0.3-0.2,0.5-0.3,0.8c-0.3,1.4,0.3,2.7,1,3.9l1.7-1c-0.4-0.7-0.9-1.7-0.8-2.4
		c0-0.2,0.1-0.3,0.2-0.5c0.2-0.4,0.3-0.9,0.3-1.5c0-0.5-0.2-0.9-0.3-1.2c-0.1-0.2-0.2-0.4-0.1-0.6c0,0,0.1-0.1,0.2-0.2
		c0.1-0.1,0.2-0.2,0.3-0.3c0.5-0.6,0.8-1.5,0.6-2.3c-0.1-0.4-0.2-0.6-0.3-0.8c-0.1-0.2-0.1-0.2-0.1-0.3c0-0.1,0.1-0.2,0.1-0.3
		c0.1-0.3,0.3-0.7,0.3-1.3c0,0,0-0.1,0-0.1l2,0.6c0,0.3,0.1,0.5,0.1,0.6c0,0.1,0.1,0.2,0.1,0.2c0,0.1,0,0.3-0.1,0.5
		c-0.1,0.2-0.1,0.3-0.2,0.5c-0.2,0.8,0,1.3,0.2,1.7c0.1,0.1,0.1,0.3,0.1,0.4c0,0.3-0.1,0.5-0.2,0.7c-0.1,0.1-0.1,0.1-0.2,0.2
		c-0.3,0.3-0.7,0.6-0.8,1.4c-0.1,0.6,0.1,1.1,0.3,1.5c0.1,0.2,0.2,0.4,0.2,0.5c0,0.2-0.1,0.4-0.2,0.7c-0.1,0.3-0.2,0.5-0.3,0.8
		c-0.3,1.4,0.3,2.7,1,3.9l1.7-1c-0.4-0.7-0.9-1.7-0.8-2.4c0-0.2,0.1-0.3,0.2-0.5c0.2-0.4,0.3-0.9,0.3-1.5c0-0.5-0.2-0.9-0.3-1.2
		c-0.1-0.2-0.2-0.4-0.1-0.6c0,0,0.1-0.1,0.2-0.2c0.1-0.1,0.2-0.2,0.3-0.3c0.5-0.6,0.8-1.5,0.6-2.3c-0.1-0.4-0.2-0.6-0.3-0.8
		c-0.1-0.2-0.1-0.2-0.1-0.3c0-0.1,0.1-0.2,0.1-0.3c0.1-0.3,0.3-0.7,0.3-1.3c0,0,0-0.1,0-0.1l0.3,0.1L35,29.2z"/>
</g>
</svg>
