<?xml version="1.0" encoding="utf-8"?>
<!-- Generator: Adobe Illustrator 18.0.0, SVG Export Plug-In . SVG Version: 6.00 Build 0)  -->
<!DOCTYPE svg PUBLIC "-//W3C//DTD SVG 1.1//EN" "http://www.w3.org/Graphics/SVG/1.1/DTD/svg11.dtd">
<svg version="1.1" id="Layer_1" xmlns="http://www.w3.org/2000/svg" xmlns:xlink="http://www.w3.org/1999/xlink" x="0px" y="0px"
	 viewBox="0 0 48 48" enable-background="new 0 0 48 48" xml:space="preserve">
<g>
	<rect x="18.9" y="29.7" fill="#E77528" width="10.1" height="17.8"/>
	<path fill="#06728D" d="M34.7,18.6c-0.5,0-0.8,0-1,0.1v3.1c0.2,0.1,0.5,0.1,0.9,0.1c1.3,0,2-0.6,2-1.7
		C36.6,19.1,35.8,18.6,34.7,18.6z"/>
	<path fill="#06728D" d="M27.7,18.6c-1.7,0-2.6,1.6-2.6,3.3c0,1.7,0.9,3.2,2.6,3.2c1.6,0,2.6-1.5,2.6-3.3
		C30.2,20.2,29.4,18.6,27.7,18.6z"/>
	<path fill="#06728D" d="M24.7,1L24,0.5L23.3,1L10.6,11.3V5.1h-2v7.8l-8.1,6.5l1.3,1.5l3.9-3.1v29.7H17V27.8H31v19.7h11.3V17.8
		l3.9,3.1l1.3-1.5L24.7,1z M12.4,25.9c-0.8,0-1.6-0.2-2.1-0.5l0.3-0.9c0.5,0.3,1.1,0.5,1.9,0.5c1.1,0,1.7-0.5,1.7-1.3
		c0-0.7-0.4-1.2-1.5-1.6c-1.3-0.5-2.1-1.1-2.1-2.2c0-1.2,1-2.1,2.6-2.1c0.8,0,1.4,0.2,1.8,0.4L14.6,19c-0.3-0.1-0.8-0.4-1.5-0.4
		c-1.1,0-1.5,0.6-1.5,1.2c0,0.7,0.5,1.1,1.6,1.5c1.4,0.5,2.1,1.2,2.1,2.3C15.2,24.8,14.3,25.9,12.4,25.9z M22.6,25.8h-1v-3.7h-3.9
		v3.7h-1v-7.9h1v3.3h3.9v-3.3h1V25.8z M27.6,25.9c-2.1,0-3.6-1.6-3.6-4c0-2.5,1.6-4.1,3.7-4.1c2.2,0,3.6,1.6,3.6,4
		C31.3,24.4,29.6,25.9,27.6,25.9z M37,21.8c-0.5,0.6-1.4,0.9-2.5,0.9c-0.3,0-0.6,0-0.8-0.1v3.2h-1V18c0.5-0.1,1.2-0.2,2-0.2
		c1,0,1.8,0.2,2.3,0.7c0.4,0.4,0.7,0.9,0.7,1.6C37.6,20.8,37.4,21.4,37,21.8z"/>
</g>
</svg>
