<?xml version="1.0" encoding="utf-8"?>
<!-- Generator: Adobe Illustrator 18.0.0, SVG Export Plug-In . SVG Version: 6.00 Build 0)  -->
<!DOCTYPE svg PUBLIC "-//W3C//DTD SVG 1.1//EN" "http://www.w3.org/Graphics/SVG/1.1/DTD/svg11.dtd">
<svg version="1.1" id="Layer_1" xmlns="http://www.w3.org/2000/svg" xmlns:xlink="http://www.w3.org/1999/xlink" x="0px" y="0px"
	 viewBox="0 0 48 48" enable-background="new 0 0 48 48" xml:space="preserve">
<g>
	<path fill="#0DB89A" d="M42.2,11.7c-1.4-1.8-3.4-2.7-6-2.7c-3,0-6.8,1.3-11.4,3.9c6-6.5,15.1-6.7,15.2-6.7l3.5,0l-3-1.8
		c-7.9-4.7-13.7-5.1-17.2-1.3c-2.2,2.4-2.9,6-3.2,8.8c-1.5-2.7-3.8-5.6-7-5.6c-3,0-5.9,2.6-8.8,8l-1,1.9l2.1-0.5
		c0,0,3.7-0.8,7.5-0.8c2,0,3.7,0.2,5,0.7C10.4,16.1,6.1,18,4.8,21.4c-2.3,6.2,7.4,14.5,7.8,14.8l2.4,2.1l-0.8-3.1
		c-1.7-6.3,3.5-13.3,6.2-16.4l0.1,1l0.3-0.7C21.7,23,23,31.7,22,45.5h-2.8v2h2.7H34h3.1v-2H34c0-4.1-0.7-19.2-9.8-27.8
		c4.7,0.2,13.4,1.7,18.1,9.1l1.3,2.1l0.5-2.4C44.1,26.1,46.1,16.5,42.2,11.7z"/>
</g>
</svg>
