<?xml version="1.0" encoding="utf-8"?>
<!-- Generator: Adobe Illustrator 18.0.0, SVG Export Plug-In . SVG Version: 6.00 Build 0)  -->
<!DOCTYPE svg PUBLIC "-//W3C//DTD SVG 1.1//EN" "http://www.w3.org/Graphics/SVG/1.1/DTD/svg11.dtd">
<svg version="1.1" id="Layer_1" xmlns="http://www.w3.org/2000/svg" xmlns:xlink="http://www.w3.org/1999/xlink" x="0px" y="0px"
	 viewBox="0 0 48 48" enable-background="new 0 0 48 48" xml:space="preserve">
<g>
	<circle fill="#F04B36" cx="12.2" cy="17.6" r="1.5"/>
	<path fill="#F04B36" d="M12.2,23.4c-2.7,0-5,2.7-5.5,6.2h10.9C17.2,26.1,14.9,23.4,12.2,23.4z"/>
	<path fill="#4DA0D8" d="M12.2,21.4c2.9,0,5.5,2.1,6.7,5.1V13.4H5.4v13.1C6.7,23.4,9.2,21.4,12.2,21.4z M12.2,14
		c2,0,3.6,1.6,3.6,3.6c0,2-1.6,3.6-3.6,3.6c-2,0-3.6-1.6-3.6-3.6C8.6,15.6,10.2,14,12.2,14z"/>
	<path fill="#294E58" d="M42.4,8.4H5.6c-2.8,0-5.1,2.3-5.1,5.1v21c0,2.8,2.3,5.1,5.1,5.1h36.8c2.8,0,5.1-2.3,5.1-5.1v-21
		C47.5,10.7,45.2,8.4,42.4,8.4z M33.1,16h1.3v10.1h-1.3V16z M15.3,36.2H7.1v-2h8.2V36.2z M20.9,31.7H3.4V11.3h17.5V31.7z M23.6,16
		h1.4l1.6,5c0.4,1.4,0.8,2.6,1.1,3.8h0c0.3-1.2,0.7-2.4,1.2-3.8l1.7-5H32l-3.6,10.1h-1.4L23.6,16z M36.4,36.2h-8.2v-2h8.2V36.2z
		 M42.1,21.1c-0.7,0.7-1.8,1.1-3.1,1.1c-0.4,0-0.7,0-1-0.1v4h-1.3v-10c0.6-0.1,1.5-0.2,2.5-0.2c1.3,0,2.2,0.3,2.8,0.8
		c0.6,0.5,0.9,1.2,0.9,2.1C42.9,19.8,42.6,20.6,42.1,21.1z"/>
	<path fill="#294E58" d="M39.2,17c-0.6,0-1,0-1.2,0.1V21c0.3,0.1,0.6,0.1,1.1,0.1c1.6,0,2.5-0.8,2.5-2.2C41.6,17.6,40.6,17,39.2,17z
		"/>
</g>
</svg>
