<?xml version="1.0" encoding="utf-8"?>
<!-- Generator: Adobe Illustrator 18.0.0, SVG Export Plug-In . SVG Version: 6.00 Build 0)  -->
<!DOCTYPE svg PUBLIC "-//W3C//DTD SVG 1.1//EN" "http://www.w3.org/Graphics/SVG/1.1/DTD/svg11.dtd">
<svg version="1.1" id="Layer_1" xmlns="http://www.w3.org/2000/svg" xmlns:xlink="http://www.w3.org/1999/xlink" x="0px" y="0px"
	 viewBox="0 0 48 48" enable-background="new 0 0 48 48" xml:space="preserve">
<g>
	<path fill="#0DB89A" d="M36,17.2c-1.6-3.8-5.5-6.3-10-6.3V2.5h6.9v-2H17.2v2h6.9V11c-3.7,0.6-6.8,2.9-8.2,6.2h-3.1
		C4,17.2,1.6,25.9,1.6,30.6v1h7.3l1,0l0-1c0-0.1,0.2-5.7,3-5.7h3.3c1.7,3.5,5.6,5.8,9.8,5.8c4.2,0,8.1-2.3,9.8-5.8h11.7v-7.7H36z"/>
	<path fill="#F7A93B" d="M5.9,33.3l-0.8,0.9c-0.8,0.9-4.7,5.8-4.7,8.2c0,2.8,2.4,5,5.4,5c3,0,5.4-2.3,5.4-5c0-2.5-3.9-7.3-4.7-8.2
		L5.9,33.3z"/>
</g>
</svg>
