<?xml version="1.0" encoding="utf-8"?>
<!-- Generator: Adobe Illustrator 18.0.0, SVG Export Plug-In . SVG Version: 6.00 Build 0)  -->
<!DOCTYPE svg PUBLIC "-//W3C//DTD SVG 1.1//EN" "http://www.w3.org/Graphics/SVG/1.1/DTD/svg11.dtd">
<svg version="1.1" id="Layer_1" xmlns="http://www.w3.org/2000/svg" xmlns:xlink="http://www.w3.org/1999/xlink" x="0px" y="0px"
	 viewBox="0 0 48 48" enable-background="new 0 0 48 48" xml:space="preserve">
<g>
	<path fill="#E77528" d="M46.4,32.8c1.2-2.8,1.4-5.1,0.6-7c-0.6-1.4-1.6-2.5-3.2-3.3l3-6.9L45,14.8l-3,6.9c-4.1-1.4-7.2,0.4-9.3,5.2
		c-1.2,2.8-2,6.4-2,9.6c0,3,0.7,5.2,1.9,6.4h-6.9l2.9-21.7H2.1l2.9,21.7H0.5v2h5.7h18.3h21.9v-2h-8.3C41.4,41,44.7,36.7,46.4,32.8z"
		/>
	<path fill="#F04B36" d="M15.4,3.2c-6.9,0-12.6,7.1-13,16h26C28,10.3,22.3,3.2,15.4,3.2z"/>
</g>
</svg>
