<?xml version="1.0" encoding="utf-8"?>
<!-- Generator: Adobe Illustrator 18.0.0, SVG Export Plug-In . SVG Version: 6.00 Build 0)  -->
<!DOCTYPE svg PUBLIC "-//W3C//DTD SVG 1.1//EN" "http://www.w3.org/Graphics/SVG/1.1/DTD/svg11.dtd">
<svg version="1.1" id="Layer_1" xmlns="http://www.w3.org/2000/svg" xmlns:xlink="http://www.w3.org/1999/xlink" x="0px" y="0px"
	 viewBox="0 0 48 48" enable-background="new 0 0 48 48" xml:space="preserve">
<g>
	<path fill="#06728D" d="M0.5,0.5v47h47v-47H0.5z M19.4,42.6l-0.1,0.9H5l-0.1-0.9c-1.5-12.4-1.5-24.9,0-37.3L5,4.4h14.4l0.1,0.9
		C21,17.7,21,30.3,19.4,42.6z M22,5.4h20.4v9.3H22V5.4z M27.6,36h-3.8v-2h3.8V36z M27.6,31h-3.8v-2h3.8V31z M27.6,25.9h-3.8v-2h3.8
		V25.9z M27.6,20.9h-3.8v-2h3.8V20.9z M34.8,36H31v-2h3.8V36z M34.8,31H31v-2h3.8V31z M34.8,25.9H31v-2h3.8V25.9z M34.8,20.9H31v-2
		h3.8V20.9z M42.4,41.6h-3.8v-2h3.8V41.6z M42.4,36h-3.8v-2h3.8V36z M42.4,31h-3.8v-2h3.8V31z M42.4,25.9h-3.8v-2h3.8V25.9z
		 M42.4,20.9h-3.8v-2h3.8V20.9z"/>
	<rect x="24.3" y="7.5" fill="#F04B36" width="15.8" height="5.2"/>
	<path fill="#CFD0D1" d="M7,6.5c-1.4,11.6-1.4,23.4,0,35h10.2c1.4-11.6,1.4-23.4,0-35H7z"/>
</g>
</svg>
