<?xml version="1.0" encoding="utf-8"?>
<!-- Generator: Adobe Illustrator 18.0.0, SVG Export Plug-In . SVG Version: 6.00 Build 0)  -->
<!DOCTYPE svg PUBLIC "-//W3C//DTD SVG 1.1//EN" "http://www.w3.org/Graphics/SVG/1.1/DTD/svg11.dtd">
<svg version="1.1" id="Layer_1" xmlns="http://www.w3.org/2000/svg" xmlns:xlink="http://www.w3.org/1999/xlink" x="0px" y="0px"
	 viewBox="0 0 48 48" enable-background="new 0 0 48 48" xml:space="preserve">
<g>
	<path fill="#06728D" d="M4,37.6c0.4-0.2,0.8-0.4,1.1-0.7c0.9-0.6,1.8-1.2,2.6-1.4c1.7-0.4,4.3-0.9,6.1-0.3c0.8,0.3,1.6,0.8,2.4,1.4
		c0.6,0.4,1.3,0.9,1.9,1.2c1.5,0.8,3,0.8,4.5,0.7l0.7,0c2.1,0,3.8-1,5.5-2c1.5-0.8,2.9-1.7,4.4-1.7c0,0,0,0,0,0
		c1.8,0,2.8,0.1,4.2,0.9c1.7,0.9,3.4,1.6,4.9,2.1c1.9,0.6,3.1,0.1,4.5-0.5l0.5-0.2l-0.8-4l-0.5,0.2c-1.2,0.5-1.9,0.8-3,0.4
		c-1.4-0.5-2.9-1.1-4.5-2c-2-1-3.5-1.1-5.3-1.1c0,0,0,0,0,0c-2.1,0-3.8,1-5.5,2c-1.5,0.8-2.9,1.6-4.4,1.6l-0.8,0
		c-1.3,0-2.4,0-3.4-0.5c-0.5-0.3-1.1-0.6-1.7-1c-1-0.6-1.9-1.3-3-1.7c-2.3-0.8-5.3-0.2-7.2,0.3c-1.3,0.3-2.4,1.1-3.5,1.8
		c-0.3,0.2-0.6,0.3-0.9,0.5c-0.8,0.4-1.8,0.9-2.5,1.9l2,3.1C2.8,38.2,3.4,37.9,4,37.6z"/>
	<path fill="#06728D" d="M46.2,42.3c-1.2,0.5-1.9,0.8-3,0.4c-1.4-0.5-2.9-1.1-4.5-2c-2-1-3.5-1.1-5.3-1.1c0,0,0,0,0,0
		c-2.1,0-3.8,1-5.5,2c-1.5,0.8-2.9,1.6-4.4,1.6l-0.8,0c-1.3,0-2.4,0-3.4-0.5c-0.5-0.3-1.1-0.6-1.7-1c-1-0.6-1.9-1.3-3-1.7
		c-2.4-0.8-5.3-0.2-7.2,0.3c-1.3,0.3-2.4,1.1-3.5,1.8c-0.3,0.2-0.6,0.3-0.9,0.5c-0.8,0.4-1.8,0.9-2.5,1.9l2,3.1
		c0.3-0.4,0.9-0.7,1.5-1c0.4-0.2,0.8-0.4,1.1-0.7c0.9-0.6,1.8-1.2,2.6-1.4c1.7-0.4,4.3-0.9,6.1-0.3c0.8,0.3,1.6,0.8,2.4,1.4
		c0.6,0.4,1.3,0.9,1.9,1.2c1.5,0.8,3,0.8,4.5,0.7l0.7,0c2.1,0,3.8-1,5.5-2c1.5-0.8,2.9-1.7,4.4-1.7c0,0,0,0,0,0
		c1.8,0,2.8,0.1,4.2,0.9c1.8,0.9,3.4,1.6,4.9,2.1c1.9,0.6,3.1,0.1,4.5-0.5l0.5-0.2l-0.8-4L46.2,42.3z"/>
	<path fill="#F7A93B" d="M17.6,6.2c0.5,0.7,0.8,1.7,0.8,3.1v22.8h3v-3.8h11.3V29h3V9.3c0-2.4-0.6-4.5-1.7-6.1
		c-2-2.7-4.8-2.7-5.1-2.7l0.1,4.2c0,0,1.9,0,3,1.5c0.5,0.7,0.8,1.7,0.8,3.1v1H21.4v-1c0-2.4-0.6-4.5-1.7-6.1c-2-2.7-4.8-2.7-5.1-2.7
		l0.1,4.2C14.6,4.7,16.5,4.7,17.6,6.2z M21.4,24.1v-2.7h11.3v2.7H21.4z M32.7,14.4v2.7H21.4v-2.7H32.7z"/>
</g>
</svg>
