<?xml version="1.0" encoding="utf-8"?>
<!-- Generator: Adobe Illustrator 18.0.0, SVG Export Plug-In . SVG Version: 6.00 Build 0)  -->
<!DOCTYPE svg PUBLIC "-//W3C//DTD SVG 1.1//EN" "http://www.w3.org/Graphics/SVG/1.1/DTD/svg11.dtd">
<svg version="1.1" id="Layer_1" xmlns="http://www.w3.org/2000/svg" xmlns:xlink="http://www.w3.org/1999/xlink" x="0px" y="0px"
	 viewBox="0 0 48 48" enable-background="new 0 0 48 48" xml:space="preserve">
<g>
	<path fill="#E77528" d="M35.4,26.1c0,0-2.7-0.2-7.5-3.5c-2.1-1.5-4.2-2.2-6.1-2.2c-1.2,0-2.3,0.3-3.3,0.8L2.2,0.7L0.6,1.9
		l16.3,20.4c-0.7,0.7-1.2,1.5-1.5,2.3c-1,2.6-1.2,6.2-0.6,9.7c0.6,3.5,0.6,4.9,0.2,6.9c-0.1,0.7,0.1,1.1,0.3,1.4
		c0.2,0.2,0.6,0.5,1.2,0.5c1.5,0,4.1-1.7,4.9-2.2c0.3-0.2,0.5-0.6,0.4-1l-0.4-2.8l0.8,1.4c0.3,0.5,0.8,0.6,1.3,0.4
		c0.2-0.1,4.3-2.2,6-4.3c0.4-0.5,0.5-1,0.4-1.6c-0.1-0.7-0.6-1.5-1.2-2.3l2.7,1.2c0.4,0.2,0.8,0.1,1.1-0.2l3.5-3.7
		c0.3-0.3,0.3-0.7,0.2-1.1C36.1,26.4,35.8,26.2,35.4,26.1z M16.5,42.1L16.5,42.1L16.5,42.1L16.5,42.1z"/>
	<ellipse fill="#0DB89A" cx="39.3" cy="35.6" rx="2.3" ry="1.4"/>
	<ellipse fill="#0DB89A" cx="42" cy="27.7" rx="2" ry="1.6"/>
	<ellipse fill="#0DB89A" cx="31.6" cy="40.2" rx="1.7" ry="1.2"/>
	<ellipse fill="#0DB89A" cx="38.5" cy="42.8" rx="1.5" ry="1.4"/>
	<ellipse fill="#0DB89A" cx="46.3" cy="40.9" rx="1.1" ry="1.9"/>
	<ellipse fill="#0DB89A" cx="30.1" cy="46.1" rx="3.9" ry="1.2"/>
</g>
</svg>
