<?xml version="1.0" encoding="utf-8"?>
<!-- Generator: Adobe Illustrator 18.0.0, SVG Export Plug-In . SVG Version: 6.00 Build 0)  -->
<!DOCTYPE svg PUBLIC "-//W3C//DTD SVG 1.1//EN" "http://www.w3.org/Graphics/SVG/1.1/DTD/svg11.dtd">
<svg version="1.1" id="Layer_1" xmlns="http://www.w3.org/2000/svg" xmlns:xlink="http://www.w3.org/1999/xlink" x="0px" y="0px"
	 viewBox="0 0 48 48" enable-background="new 0 0 48 48" xml:space="preserve">
<g>
	<path fill="#F7A93B" d="M20.4,40.8c0,3.7,2.9,6.7,6.6,6.7c3.6,0,6.6-3,6.6-6.7v-2.1H20.4V40.8z"/>
	<rect x="20.4" y="18.3" fill="#4DA0D8" width="13.1" height="18.4"/>
	<path fill="#F04B36" d="M44.9,29.2c3.4-11.8,3.5-20.2,0.3-25.1C43,0.8,40,0.5,39.8,0.5H29.6h-5.3H11.9H6.6H1.5c-0.5,0-1,0.4-1,1
		c0,0.6,0.4,1,1,1l4.1,0v3.7c0,0.2,0.1,0.4,0.2,0.6C3.9,8,2.7,10.1,2.7,12.5v3.8h13.1v-3.8c0-2.4-1.3-4.5-3.1-5.7
		c0.1-0.2,0.2-0.4,0.2-0.6V2.5l10.4,0v3.7c0,0.2,0.1,0.4,0.2,0.6c-1.9,1.2-3.1,3.3-3.1,5.7v3.8h13.1v-3.8c0-2.4-1.3-4.5-3.1-5.7
		c0.1-0.2,0.2-0.4,0.2-0.6V2.5l9.2,0c0,0,2.2,0.2,3.8,2.7c2,3,3.4,9.4-0.4,23c-0.6-0.2-1.2-0.3-1.9-0.3c-3.5,0-6.3,2.9-6.3,6.5
		c0,3.6,2.8,6.5,6.3,6.5c3.5,0,6.3-2.9,6.3-6.5C47.5,32.3,46.5,30.3,44.9,29.2z M10.9,2.5v2.7H7.5V2.5H10.9z M28.6,2.5v2.7h-3.3V2.5
		H28.6z"/>
	<rect x="2.7" y="18.3" fill="#4DA0D8" width="13.1" height="18.4"/>
	<path fill="#F7A93B" d="M2.7,40.8c0,3.7,2.9,6.7,6.6,6.7c3.6,0,6.6-3,6.6-6.7v-2.1H2.7V40.8z"/>
</g>
</svg>
