<?xml version="1.0" encoding="utf-8"?>
<!-- Generator: Adobe Illustrator 18.0.0, SVG Export Plug-In . SVG Version: 6.00 Build 0)  -->
<!DOCTYPE svg PUBLIC "-//W3C//DTD SVG 1.1//EN" "http://www.w3.org/Graphics/SVG/1.1/DTD/svg11.dtd">
<svg version="1.1" id="Layer_1" xmlns="http://www.w3.org/2000/svg" xmlns:xlink="http://www.w3.org/1999/xlink" x="0px" y="0px"
	 viewBox="0 0 48 48" enable-background="new 0 0 48 48" xml:space="preserve">
<g>
	<path fill="#F7A93B" d="M11.1,28.1c0-2.1-1.7-3.8-3.8-3.8c-2.1,0-3.8,1.7-3.8,3.8c0,2.1,1.7,3.8,3.8,3.8
		C9.3,31.9,11.1,30.2,11.1,28.1z"/>
	<polygon fill="none" points="27.3,40.3 27.2,40 27.3,40.3 	"/>
	<path fill="#E77528" d="M46.6,38.2c-5.7-5.4-11.4-6.5-15.2-6.5c-0.7,0-1.4,0-2.1,0.1c-0.6-0.3-1.3-0.4-2.1-0.3
		c-0.6,0.1-1.3,0.1-1.9,0.2l1.9,8.3l-0.1-0.4c1.3-0.2,2.5-1.1,3.3-2.4c0.3,0,0.6,0,1,0c2.8,0,7,0.9,11.4,5c0.5,0.5,1.2,0.8,1.9,0.8
		c0.1,0,0.2,0,0.3,0c0.7-0.1,1.3-0.4,1.7-0.8c0.5-0.5,0.8-1.2,0.8-2C47.5,39.4,47.2,38.8,46.6,38.2z"/>
	<polygon fill="#F04B36" points="37.8,43.2 42,47.5 44.1,45.4 39,40.3 27.3,40.3 28,43.2 	"/>
	<path fill="#4DA0D8" d="M22.6,19.5c1-1.4,2.6-2.5,4.6-2.9c2.1-0.5,4.3-0.1,5.7,0.8l0.9,0.6l0.5-0.9c0.9-1.5,2.7-2.8,4.8-3.2
		c0.5-0.1,0.9-0.2,1.4-0.2l1.6-0.1l-0.8-1.4c-3-5.2-9.6-8.4-17.1-8.4c-1.8,0-3.7,0.2-5.5,0.6l-0.8-3.8L16,0.9l0.8,3.9
		C7.8,7.3,1.3,14,0.7,21.4L0.5,23L2,22.4c0.5-0.2,0.9-0.3,1.4-0.4c2.1-0.5,4.3-0.1,5.7,0.8l0.9,0.6l0.5-0.9c0.9-1.5,2.7-2.8,4.8-3.2
		c1.9-0.4,4-0.2,5.4,0.7l2.7,11.9L26,43.2l0.6,2.7l1.9-0.4L28,43.2l-0.7-2.9l0,0L27.2,40l-1.9-8.3L22.6,19.5z"/>
	<path fill="#E77528" d="M12.7,38.6c4,1.1,8.3,1.5,12.5,1.2l0,0l0,0l-1.8-8.1c-3.3,0-6.5-0.4-9.6-1.2c-0.4-0.1-0.7-0.2-1.1-0.2
		c-1.8,0-3.1,1.3-3.2,3.1l0,0.3C9.2,35.8,10.7,38.1,12.7,38.6z"/>
	<polygon fill="#F04B36" points="25.3,40.3 25.3,40.3 8.1,40.3 3.1,30.2 0.5,31.5 6.3,43.2 6.9,43.2 4.9,45.5 7.2,47.4 10.8,43.2 
		26,43.2 25.3,40.3 	"/>
</g>
</svg>
