<?xml version="1.0" encoding="utf-8"?>
<!-- Generator: Adobe Illustrator 18.0.0, SVG Export Plug-In . SVG Version: 6.00 Build 0)  -->
<!DOCTYPE svg PUBLIC "-//W3C//DTD SVG 1.1//EN" "http://www.w3.org/Graphics/SVG/1.1/DTD/svg11.dtd">
<svg version="1.1" id="Layer_1" xmlns="http://www.w3.org/2000/svg" xmlns:xlink="http://www.w3.org/1999/xlink" x="0px" y="0px"
	 viewBox="0 0 48 48" enable-background="new 0 0 48 48" xml:space="preserve">
<g>
	<path fill="#F7A93B" d="M24,32.1c-2.9,0-5.3,2.5-5.3,5.5c0,3.1,2.4,5.5,5.3,5.5c2.9,0,5.3-2.5,5.3-5.5C29.3,34.6,26.9,32.1,24,32.1
		z"/>
	<path fill="#CFD0D1" d="M12,27.1l2.7,2.9c5.1-5.4,13.5-5.4,18.6,0l2.7-2.9C29.4,20.1,18.6,20.1,12,27.1z"/>
	<path fill="#CFD0D1" d="M24,13.7c-6.6,0-12.8,2.7-17.5,7.6l2.7,2.9c4-4.2,9.2-6.4,14.8-6.4c5.6,0,10.8,2.3,14.8,6.4l2.7-2.9
		C36.8,16.4,30.6,13.7,24,13.7C24,13.7,24,13.7,24,13.7z"/>
	<path fill="#F04B36" d="M0.5,15l2.7,2.9c11.5-12.1,30.1-12.1,41.6,0l2.7-2.9C34.5,1.4,13.5,1.4,0.5,15z"/>
</g>
</svg>
