<?xml version="1.0" encoding="utf-8"?>
<!-- Generator: Adobe Illustrator 18.0.0, SVG Export Plug-In . SVG Version: 6.00 Build 0)  -->
<!DOCTYPE svg PUBLIC "-//W3C//DTD SVG 1.1//EN" "http://www.w3.org/Graphics/SVG/1.1/DTD/svg11.dtd">
<svg version="1.1" id="Layer_1" xmlns="http://www.w3.org/2000/svg" xmlns:xlink="http://www.w3.org/1999/xlink" x="0px" y="0px"
	 viewBox="0 0 48 48" enable-background="new 0 0 48 48" xml:space="preserve">
<g>
	<path fill="#F7A93B" d="M39.3,5.4H8.7c-4.5,0-8.2,3.7-8.2,8.2v17.7c0,4.5,3.7,8.2,8.2,8.2h30.7c4.5,0,8.2-3.7,8.2-8.2V13.6
		C47.5,9.1,43.8,5.4,39.3,5.4z M16.3,34.5c-6.7,0-12.1-5.4-12.1-12.1c0-6.7,5.4-12.1,12.1-12.1c6.7,0,12.1,5.4,12.1,12.1
		C28.4,29.1,23,34.5,16.3,34.5z M41.9,33.5h-9.1v-2h9.1V33.5z M41.9,28.5h-9.1v-2h9.1V28.5z M41.9,23.5h-9.1v-2h9.1V23.5z
		 M41.9,18.5h-9.1v-2h9.1V18.5z M41.9,13.4h-9.1v-2h9.1V13.4z"/>
	<path fill="#06728D" d="M19.5,13c-0.4-0.2-0.8-0.1-1.1,0.2c-0.3,0.3-0.4,0.7-0.2,1.1c0.3,0.8-0.4,2.9-1.4,5.1
		c-0.8-2.1-2.1-4-3.9-4.6c-0.5-0.2-1-0.3-1.4-0.3c-3.6,0-4.8,4.9-5,7.8c0,0.4,0.2,0.8,0.6,1c0.2,0.1,0.3,0.1,0.5,0.1
		c0.2,0,0.5-0.1,0.7-0.2c0.1-0.1,0.7-0.4,2.5-0.4c1.2,0,2.4,0.1,3.5,0.3c-1.6,1.8-2.8,4.2-2.4,6.2c0.4,2.1,1.9,3.2,4.2,3.2
		c2.6,0,5.4-1.5,5.5-1.5c0.4-0.2,0.6-0.6,0.6-1c0-0.4-0.3-0.8-0.7-0.9c-0.9-0.3-2.3-2.8-3.3-5.4c0.2,0,0.4,0,0.6,0
		c2.8,0,5-0.9,6.1-2.3c1-1.4,1-2.6,0.7-3.5C24.5,15,20,13.2,19.5,13z"/>
	<rect x="5.6" y="40.5" fill="#F04B36" width="4.5" height="2"/>
	<rect x="37.9" y="40.5" fill="#F04B36" width="4.5" height="2"/>
</g>
</svg>
