<?xml version="1.0" encoding="utf-8"?>
<!-- Generator: Adobe Illustrator 18.0.0, SVG Export Plug-In . SVG Version: 6.00 Build 0)  -->
<!DOCTYPE svg PUBLIC "-//W3C//DTD SVG 1.1//EN" "http://www.w3.org/Graphics/SVG/1.1/DTD/svg11.dtd">
<svg version="1.1" id="Layer_1" xmlns="http://www.w3.org/2000/svg" xmlns:xlink="http://www.w3.org/1999/xlink" x="0px" y="0px"
	 viewBox="0 0 48 48" enable-background="new 0 0 48 48" xml:space="preserve">
<g>
	<path fill="#06728D" d="M46.6,26c-2.8-4.1-13.8-7.6-25.7-8.3l0.4-16.3c0-0.3-0.1-0.5-0.3-0.7c-0.2-0.2-0.4-0.3-0.7-0.3H1.5
		c-0.5,0-1,0.4-1,0.9v27.8c0,2.7,2.2,4.9,4.9,4.9h36.8c1.9,0,3.6-1,4.6-2.6C47.8,29.7,47.7,27.6,46.6,26z"/>
	<path fill="#294E58" d="M5.8,41.6c0,0.5,0.4,0.9,1,0.9h33c0.5,0,1-0.4,1-0.9c0-0.5-0.4-0.9-1-0.9h-33C6.2,40.7,5.8,41.1,5.8,41.6z"
		/>
	<path fill="#F7A93B" d="M3.8,41.6c0-1.5,1.3-2.8,2.9-2.8h7.3c-1.1-1.8-3.1-3.1-5.5-3.1c-3.4,0-6.2,2.6-6.2,5.9
		c0,3.2,2.8,5.9,6.2,5.9c2.4,0,4.4-1.2,5.5-3.1H6.8C5.2,44.4,3.8,43.2,3.8,41.6z"/>
	<path fill="#F7A93B" d="M24,35.8c-2.4,0-4.4,1.2-5.5,3.1h11C28.5,37,26.4,35.8,24,35.8z"/>
	<path fill="#F7A93B" d="M24,47.5c2.4,0,4.4-1.2,5.5-3.1h-11C19.6,46.3,21.6,47.5,24,47.5z"/>
	<path fill="#F7A93B" d="M39.5,35.8c-2.4,0-4.4,1.2-5.5,3.1h5.8c1.6,0,2.9,1.2,2.9,2.8c0,1.5-1.3,2.8-2.9,2.8H34
		c1.1,1.8,3.1,3.1,5.5,3.1c3.4,0,6.2-2.6,6.2-5.9C45.7,38.4,42.9,35.8,39.5,35.8z"/>
</g>
</svg>
