<?xml version="1.0" encoding="utf-8"?>
<!-- Generator: Adobe Illustrator 18.0.0, SVG Export Plug-In . SVG Version: 6.00 Build 0)  -->
<!DOCTYPE svg PUBLIC "-//W3C//DTD SVG 1.1//EN" "http://www.w3.org/Graphics/SVG/1.1/DTD/svg11.dtd">
<svg version="1.1" id="Layer_1" xmlns="http://www.w3.org/2000/svg" xmlns:xlink="http://www.w3.org/1999/xlink" x="0px" y="0px"
	 viewBox="0 0 48 48" enable-background="new 0 0 48 48" xml:space="preserve">
<g>
	<path fill="none" d="M25.8,33.6l-0.6,1.9c0.2,0.1,5.6,2,5.6,7.3l2,0C32.7,36,26.1,33.7,25.8,33.6z"/>
	<path fill="#06728D" d="M26.6,3.6C26.6,2.2,25.4,1,24,1c-1.4,0-2.6,1.2-2.6,2.6V31h5.2V3.6z"/>
	<path fill="#0DB89A" d="M37.1,42.1h-0.8c-0.4-5.5-4.4-10-9.7-11.1h-5.2c-5.3,1.1-9.3,5.6-9.7,11.1h-0.8c-1.4,0-2.6,1.1-2.6,2.5
		c0,1.3,1.2,2.5,2.6,2.5h26.2c1.4,0,2.6-1.1,2.6-2.5C39.7,43.2,38.5,42.1,37.1,42.1z M30.8,42.7c0-5.3-5.4-7.2-5.6-7.3l0.6-1.9
		c0.3,0.1,6.9,2.4,7,9.1L30.8,42.7z"/>
</g>
</svg>
