<?xml version="1.0" encoding="utf-8"?>
<!-- Generator: Adobe Illustrator 18.0.0, SVG Export Plug-In . SVG Version: 6.00 Build 0)  -->
<!DOCTYPE svg PUBLIC "-//W3C//DTD SVG 1.1//EN" "http://www.w3.org/Graphics/SVG/1.1/DTD/svg11.dtd">
<svg version="1.1" id="Layer_1" xmlns="http://www.w3.org/2000/svg" xmlns:xlink="http://www.w3.org/1999/xlink" x="0px" y="0px"
	 viewBox="0 0 48 48" enable-background="new 0 0 48 48" xml:space="preserve">
<g>
	<path fill="#0DB89A" d="M9.4,36h29.2c1.2,0,2.1-0.9,2.1-2.1V21.1c0-1.2-1-2.1-2.1-2.1H9.4c-1.2,0-2.1,0.9-2.1,2.1v12.8
		C7.3,35,8.2,36,9.4,36z"/>
	<path fill="#06728D" d="M47.1,44.9l-5.7-5.9c-0.4-0.4-1-0.6-1.7-0.6H8.3c-0.7,0-1.3,0.2-1.7,0.6l-5.7,5.9c-1,1.1,0,2.6,1.7,2.6
		h42.8C47.1,47.5,48.1,46,47.1,44.9z"/>
	<path fill="#F04B36" d="M21,10.5c-1.4,1.4-1.4,3.7,0,5.1c0.7,0.7,1.6,1.1,2.6,1.1c1,0,1.9-0.4,2.6-1.1c1.4-1.4,1.4-3.7,0-5.1
		C24.9,9.1,22.4,9.1,21,10.5z"/>
	<path fill="#F7A93B" d="M30.7,8c-1.9-1.9-4.4-2.9-7.1-2.9c-2.7,0-5.2,1-7.1,2.9L18,9.4c1.5-1.5,3.5-2.3,5.6-2.3
		c2.1,0,4.1,0.8,5.6,2.3L30.7,8z"/>
	<path fill="#F7A93B" d="M23.6,2.5c3.4,0,6.6,1.3,9,3.6l1.4-1.4c-5.7-5.6-15.1-5.6-20.8,0l1.4,1.4C17.1,3.8,20.3,2.5,23.6,2.5z"/>
</g>
</svg>
