<?xml version="1.0" encoding="utf-8"?>
<!-- Generator: Adobe Illustrator 18.0.0, SVG Export Plug-In . SVG Version: 6.00 Build 0)  -->
<!DOCTYPE svg PUBLIC "-//W3C//DTD SVG 1.1//EN" "http://www.w3.org/Graphics/SVG/1.1/DTD/svg11.dtd">
<svg version="1.1" id="Layer_1" xmlns="http://www.w3.org/2000/svg" xmlns:xlink="http://www.w3.org/1999/xlink" x="0px" y="0px"
	 viewBox="0 0 48 48" enable-background="new 0 0 48 48" xml:space="preserve">
<g>
	<path fill="#0DB89A" d="M21.3,11.3c-1.5,1.5-1.5,3.9,0,5.4c0.7,0.7,1.7,1.1,2.7,1.1c1,0,2-0.4,2.7-1.1c1.5-1.5,1.5-3.9,0-5.4
		C25.3,9.9,22.7,9.9,21.3,11.3z"/>
	<path fill="#0DB89A" d="M31.5,8.6c-4.1-4.1-10.8-4.1-14.9,0L18,10c3.3-3.3,8.8-3.3,12.1,0L31.5,8.6z"/>
	<path fill="#0DB89A" d="M13,5l1.4,1.4c5.3-5.3,13.9-5.3,19.1,0L35,5C28.9-1,19.1-1,13,5z"/>
	<path fill="#F04B36" d="M29.9,20.5H18.1c-1.6,0-3,1.3-3,3v9.1h17.7v-9.1C32.8,21.9,31.5,20.5,29.9,20.5z"/>
	<path fill="#4DA0D8" d="M15.2,44.5c0,1.6,1.3,3,3,3h11.7c1.6,0,3-1.3,3-3v-9.9H15.2V44.5z M27.1,36.7h2v2h-2V36.7z M27.1,40.1h2v2
		h-2V40.1z M27.1,43.4h2v2h-2V43.4z M23,36.7h2v2h-2V36.7z M23,40.1h2v2h-2V40.1z M23,43.4h2v2h-2V43.4z M19,36.7h2v2h-2V36.7z
		 M19,40.1h2v2h-2V40.1z M19,43.4h2v2h-2V43.4z"/>
</g>
</svg>
