<?xml version="1.0" encoding="utf-8"?>
<!-- Generator: Adobe Illustrator 18.0.0, SVG Export Plug-In . SVG Version: 6.00 Build 0)  -->
<!DOCTYPE svg PUBLIC "-//W3C//DTD SVG 1.1//EN" "http://www.w3.org/Graphics/SVG/1.1/DTD/svg11.dtd">
<svg version="1.1" id="Layer_1" xmlns="http://www.w3.org/2000/svg" xmlns:xlink="http://www.w3.org/1999/xlink" x="0px" y="0px"
	 viewBox="0 0 48 48" enable-background="new 0 0 48 48" xml:space="preserve">
<g>
	<path fill="#E77528" d="M0.5,47.5h47v-31h-47V47.5z M38.6,21.3h3.3v2h-3.3V21.3z M38.6,27.8h3.3v2h-3.3V27.8z M38.6,34.3h3.3v2
		h-3.3V34.3z M38.6,40.7h3.3v2h-3.3V40.7z M27.8,21.3H31v2h-3.3V21.3z M27.8,27.8H31v2h-3.3V27.8z M27.8,34.3H31v2h-3.3V34.3z
		 M27.8,40.7H31v2h-3.3V40.7z M17,21.3h3.3v2H17V21.3z M17,27.8h3.3v2H17V27.8z M17,34.3h3.3v2H17V34.3z M17,40.7h3.3v2H17V40.7z
		 M6.2,21.3h3.3v2H6.2V21.3z M6.2,27.8h3.3v2H6.2V27.8z M6.2,34.3h3.3v2H6.2V34.3z M6.2,40.7h3.3v2H6.2V40.7z"/>
	<path fill="#4DA0D8" d="M40.4,4.9V0.5h-2v4.4H9.6V0.5h-2v4.4H0.5v9.6h47V4.9H40.4z M9.6,10.3h-2V5.9h2V10.3z M40.4,10.3h-2V5.9h2
		V10.3z"/>
</g>
</svg>
