<?xml version="1.0" encoding="utf-8"?>
<!-- Generator: Adobe Illustrator 18.0.0, SVG Export Plug-In . SVG Version: 6.00 Build 0)  -->
<!DOCTYPE svg PUBLIC "-//W3C//DTD SVG 1.1//EN" "http://www.w3.org/Graphics/SVG/1.1/DTD/svg11.dtd">
<svg version="1.1" id="Layer_1" xmlns="http://www.w3.org/2000/svg" xmlns:xlink="http://www.w3.org/1999/xlink" x="0px" y="0px"
	 viewBox="0 0 48 48" enable-background="new 0 0 48 48" xml:space="preserve">
<g>
	<path fill="#F04B36" d="M41.2,36.6v-21c0-6.5-5.3-11.8-11.8-11.8H25V0.5h-2v3.2h-4.3C12.1,3.7,6.8,9,6.8,15.6v21H3.1v2h3.8h34.3
		h3.8v-2H41.2z M8.8,36.6v-21c0-5.4,4.4-9.8,9.8-9.8H23v4.1h2V5.7h4.3c5.4,0,9.8,4.4,9.8,9.8v21H8.8z"/>
	<path fill="#E77528" d="M13.6,39.4c-2.2,0-4.1,1.8-4.1,4.1c0,2.2,1.8,4.1,4.1,4.1c2.2,0,4.1-1.8,4.1-4.1
		C17.7,41.2,15.8,39.4,13.6,39.4z"/>
	<path fill="#E77528" d="M34.4,39.4c-2.2,0-4.1,1.8-4.1,4.1c0,2.2,1.8,4.1,4.1,4.1c2.2,0,4.1-1.8,4.1-4.1
		C38.5,41.2,36.6,39.4,34.4,39.4z"/>
	<path fill="#0DB89A" d="M32.5,17.9h-3.2V16c0-1.7-1.4-3.1-3.1-3.1h-4.4c-1.7,0-3.1,1.4-3.1,3.1v1.9h-3.2c-2.1,0-3.8,1.7-3.8,3.8
		v10.1c0,2.1,1.7,3.8,3.8,3.8h17c2.1,0,3.8-1.7,3.8-3.8V21.7C36.3,19.6,34.6,17.9,32.5,17.9z M20.7,16c0-0.6,0.5-1.1,1.1-1.1h4.4
		c0.6,0,1.1,0.5,1.1,1.1v1.9h-6.6V16z"/>
</g>
</svg>
