<?xml version="1.0" encoding="utf-8"?>
<!-- Generator: Adobe Illustrator 18.0.0, SVG Export Plug-In . SVG Version: 6.00 Build 0)  -->
<!DOCTYPE svg PUBLIC "-//W3C//DTD SVG 1.1//EN" "http://www.w3.org/Graphics/SVG/1.1/DTD/svg11.dtd">
<svg version="1.1" id="Layer_1" xmlns="http://www.w3.org/2000/svg" xmlns:xlink="http://www.w3.org/1999/xlink" x="0px" y="0px"
	 viewBox="0 0 48 48" enable-background="new 0 0 48 48" xml:space="preserve">
<g>
	<circle fill="#06728D" cx="24" cy="14.6" r="3.3"/>
	<path fill="#06728D" d="M29.1,22c-0.2-0.3-0.4-0.5-0.7-0.7l0,0c-0.4-0.4-0.9-0.6-1.4-0.6c-0.3-0.1-0.6-0.1-0.9-0.1h-4.2
		c-0.3,0-0.6,0-0.9,0.1c-0.5,0-1.1,0.2-1.4,0.6l0,0c-0.3,0.2-0.5,0.5-0.7,0.7l-6.8,7c-0.7,0.7-0.5,1.7,0.4,2.2
		c0.4,0.2,0.8,0.3,1.2,0.3c0.6,0,1.2-0.2,1.6-0.6l3.2-3.3v5.6c0,0.1,0,0.2,0,0.3v11.9c0,0.9,0.9,1.6,2,1.6s2-0.7,2-1.6V35.1h3v10.4
		c0,0.9,0.9,1.6,2,1.6c1.1,0,2-0.7,2-1.6V33.5c0-0.1,0-0.2,0-0.3v-5.6l3.2,3.3c0.4,0.4,1,0.6,1.6,0.6c0.4,0,0.9-0.1,1.2-0.3
		c0.9-0.5,1-1.5,0.4-2.2L29.1,22z"/>
	<path fill="#F04B36" d="M1,1v46h6.8V8.6h32.4V47H47V1H1z M14.7,5.8h-2.9v-2h2.9V5.8z M19.8,5.8h-2.9v-2h2.9V5.8z M24.9,5.8H22v-2
		h2.9V5.8z M30,5.8h-2.9v-2H30V5.8z M35.1,5.8h-2.9v-2h2.9V5.8z M44.6,31.3h-2v-3.7h2V31.3z M44.6,24.7h-2V21h2V24.7z"/>
</g>
</svg>
