<?xml version="1.0" encoding="utf-8"?>
<!-- Generator: Adobe Illustrator 18.0.0, SVG Export Plug-In . SVG Version: 6.00 Build 0)  -->
<!DOCTYPE svg PUBLIC "-//W3C//DTD SVG 1.1//EN" "http://www.w3.org/Graphics/SVG/1.1/DTD/svg11.dtd">
<svg version="1.1" id="Layer_1" xmlns="http://www.w3.org/2000/svg" xmlns:xlink="http://www.w3.org/1999/xlink" x="0px" y="0px"
	 viewBox="0 0 48 48" enable-background="new 0 0 48 48" xml:space="preserve">
<g>
	<rect x="4.3" y="21.3" fill="#06728D" width="9.8" height="7.7"/>
	<path fill="#06728D" d="M34.2,17c1,0.8,1.4,1.2,1.4,3.2l2,0c0.1-2.7-0.8-3.6-2.1-4.7c-0.8-0.7-1.7-1.8-0.6-4.1l-1.8-0.8
		C31.6,13.9,32.9,15.9,34.2,17z"/>
	<path fill="#06728D" d="M39,16.5c0.1,0.1,0.2,0.2,0.3,0.2c1,0.9,1,1.5,0.9,2.4c0,0.2,0,0.4,0,0.6l2,0c0-0.2,0-0.3,0-0.5
		c0.1-1,0.1-2.4-1.6-3.9c-0.1-0.1-0.3-0.2-0.4-0.3c-1.2-0.8-1.8-1.5-1.4-2.6l-1.9-0.6C36,14.3,38.2,15.9,39,16.5z"/>
	<path fill="#E77528" d="M24,0.5C11,0.5,0.5,11,0.5,24S11,47.5,24,47.5S47.5,37,47.5,24S37,0.5,24,0.5z M24,2.5
		c11.9,0,21.5,9.7,21.5,21.5c0,5.2-1.9,10-5,13.8L8.8,8.8C12.7,4.9,18,2.5,24,2.5z M24,45.5C12.1,45.5,2.5,35.9,2.5,24
		c0-5.2,1.9-10,5-13.8l31.8,29C35.3,43.1,30,45.5,24,45.5z"/>
	<polygon fill="#F04B36" points="42.5,29 42.5,21.3 25.4,21.3 33.8,29 	"/>
	<polygon fill="#F04B36" points="16.2,21.3 16.2,29 25.1,29 16.6,21.3 	"/>
</g>
</svg>
