<?xml version="1.0" encoding="utf-8"?>
<!-- Generator: Adobe Illustrator 18.0.0, SVG Export Plug-In . SVG Version: 6.00 Build 0)  -->
<!DOCTYPE svg PUBLIC "-//W3C//DTD SVG 1.1//EN" "http://www.w3.org/Graphics/SVG/1.1/DTD/svg11.dtd">
<svg version="1.1" id="Layer_1" xmlns="http://www.w3.org/2000/svg" xmlns:xlink="http://www.w3.org/1999/xlink" x="0px" y="0px"
	 viewBox="0 0 48 48" enable-background="new 0 0 48 48" xml:space="preserve">
<g>
	<path fill="#06728D" d="M24,9.8c2.6,0,4.7-2.1,4.7-4.7c0-2.6-2.1-4.7-4.7-4.7c-2.6,0-4.7,2.1-4.7,4.7C19.3,7.7,21.4,9.8,24,9.8z"/>
	<path fill="#F04B36" d="M33.6,19.8c-0.3-5.1-4.5-9.1-9.6-9.1c-5.1,0-9.3,4-9.6,9.1l-0.1,1h19.3L33.6,19.8z"/>
	<polygon fill="#0DB89A" points="36.7,24.4 36.7,22.5 33.4,22.5 14.6,22.5 11.3,22.5 11.3,24.4 14.6,24.4 14.6,45.5 11.3,45.5 
		11.3,47.5 14.6,47.5 33.4,47.5 36.7,47.5 36.7,45.5 33.4,45.5 33.4,24.4 	"/>
</g>
</svg>
