<?xml version="1.0" encoding="utf-8"?>
<!-- Generator: Adobe Illustrator 18.0.0, SVG Export Plug-In . SVG Version: 6.00 Build 0)  -->
<!DOCTYPE svg PUBLIC "-//W3C//DTD SVG 1.1//EN" "http://www.w3.org/Graphics/SVG/1.1/DTD/svg11.dtd">
<svg version="1.1" id="Layer_1" xmlns="http://www.w3.org/2000/svg" xmlns:xlink="http://www.w3.org/1999/xlink" x="0px" y="0px"
	 viewBox="0 0 48 48" enable-background="new 0 0 48 48" xml:space="preserve">
<g>
	<path fill="#F04B36" d="M42,22.2V24c0,9.9-8.1,18-18,18c-9.9,0-18-8.1-18-18c0-9.9,8.1-18,18-18h1.8V0.5H24C11,0.5,0.5,11,0.5,24
		C0.5,37,11,47.5,24,47.5S47.5,37,47.5,24v-1.8H42z"/>
	<path fill="#06728D" d="M19.7,9.9l0.8,1.9c0.7-0.5,1.8-1.2,3-1.2c1.8,0,2.5,1.1,2.5,2.3c0,1.8-1.6,3.5-4.8,6.5l-1.6,1.5v1.6h9.4
		v-2.2h-5.7v0l1.2-1c2.4-2.2,4.2-4.2,4.2-6.6c0-2.3-1.5-4.2-4.6-4.2C22.2,8.4,20.7,9,19.7,9.9z"/>
	<path fill="#06728D" d="M36.6,22.5h2.5V19h1.8v-2h-1.8V8.7H36l-5.7,8.6V19h6.3V22.5z M32.9,17L32.9,17l2.6-3.8
		c0.4-0.8,0.8-1.5,1.2-2.3h0.1c-0.1,0.8-0.1,1.6-0.1,2.4V17H32.9z"/>
</g>
</svg>
