<?xml version="1.0" encoding="utf-8"?>
<!-- Generator: Adobe Illustrator 18.0.0, SVG Export Plug-In . SVG Version: 6.00 Build 0)  -->
<!DOCTYPE svg PUBLIC "-//W3C//DTD SVG 1.1//EN" "http://www.w3.org/Graphics/SVG/1.1/DTD/svg11.dtd">
<svg version="1.1" id="Layer_1" xmlns="http://www.w3.org/2000/svg" xmlns:xlink="http://www.w3.org/1999/xlink" x="0px" y="0px"
	 viewBox="0 0 48 48" enable-background="new 0 0 48 48" xml:space="preserve">
<g>
	<path fill="#294E58" d="M23.7,4.8C26.9,3,40.1,4,40.1,4c-7.2-6-23.3-2.4-23.3-2.4v4.9h6.9V4.8z"/>
	<path fill="#0DB89A" d="M24.4,9.3h-7.6c-4.9,0-8.9,4-8.9,8.9v1.7h17.2c0.5,0,1,0.4,1,0.9l1,12.6L29,20.8c0.1-0.5,0.5-0.9,1-0.9h3.4
		v-1.7C33.4,13.3,29.4,9.3,24.4,9.3z"/>
	<path fill="#E77528" d="M27.9,42.9c-0.1,0.5-0.5,0.9-1,0.9c0,0,0,0,0,0c-0.5,0-0.9-0.4-1-0.9l-1.6-20.9H7.9v22.2c0,0.1,0,3.3,0,3.4
		h25.4c0-0.1,0-0.2,0-0.3V21.9h-2.5L27.9,42.9z"/>
</g>
</svg>
