<?xml version="1.0" encoding="utf-8"?>
<!-- Generator: Adobe Illustrator 18.0.0, SVG Export Plug-In . SVG Version: 6.00 Build 0)  -->
<!DOCTYPE svg PUBLIC "-//W3C//DTD SVG 1.1//EN" "http://www.w3.org/Graphics/SVG/1.1/DTD/svg11.dtd">
<svg version="1.1" id="Layer_1" xmlns="http://www.w3.org/2000/svg" xmlns:xlink="http://www.w3.org/1999/xlink" x="0px" y="0px"
	 viewBox="0 0 48 48" enable-background="new 0 0 48 48" xml:space="preserve">
<g>
	<polygon fill="#F7A93B" points="36.4,8.3 37.9,12.6 47.5,12.6 47.5,0.5 0.5,0.5 0.5,12.6 10.3,12.6 11.3,8.3 4.3,8.3 4.3,6.1 
		11.8,6.1 11.8,6.1 35.7,6.1 35.7,6.1 43.7,6.1 43.7,8.3 	"/>
	<path fill="#4DA0D8" d="M34.2,8.3H13.5L4.3,47.5h43.1L34.2,8.3z M26.1,43.3c-1.5,0-2.7-1.2-2.7-2.7c0-1.5,1.2-2.7,2.7-2.7
		c1.5,0,2.7,1.2,2.7,2.7C28.8,42.1,27.6,43.3,26.1,43.3z M32.6,25.9c-0.1,1.6-0.4,2.7-0.8,3.5l-2.3-0.7c0.3-0.6,0.9-1.7,0.9-3.4
		c0-1.8-0.9-2.4-1.8-2.4c-1,0-1.6,0.9-2.5,3.1C25,28.8,23.7,30,21.4,30c-2.1,0-4-1.5-4.5-4.3h-2.6v-2.1h2.4c0.1-1.6,0.5-3.2,1.1-4.1
		l2.4,0.7c-0.6,1-1.1,2.4-1.1,3.9c0,1.6,0.8,2.7,2,2.7c1.1,0,1.9-0.9,2.5-2.7c1-2.6,2.2-4.4,4.5-4.4c2.2,0,3.8,1.5,4.3,4.1H35v2.1
		H32.6z"/>
</g>
</svg>
