<?xml version="1.0" encoding="utf-8"?>
<!-- Generator: Adobe Illustrator 18.0.0, SVG Export Plug-In . SVG Version: 6.00 Build 0)  -->
<!DOCTYPE svg PUBLIC "-//W3C//DTD SVG 1.1//EN" "http://www.w3.org/Graphics/SVG/1.1/DTD/svg11.dtd">
<svg version="1.1" id="Layer_1" xmlns="http://www.w3.org/2000/svg" xmlns:xlink="http://www.w3.org/1999/xlink" x="0px" y="0px"
	 viewBox="0 0 48 48" enable-background="new 0 0 48 48" xml:space="preserve">
<g>
	
		<rect x="5.7" y="31.3" transform="matrix(-0.7072 -0.707 0.707 -0.7072 -13.9749 73.6758)" fill="#F04B36" width="5.2" height="16.8"/>
	<path fill="#F7A93B" d="M15.7,32.3c3.7,3.7,7.5,5.5,11.5,5.5c1.6,0,3.2-0.3,4.9-0.9l-21-21C9.1,21.6,10.6,27.1,15.7,32.3z"/>
	<path fill="#06728D" d="M36.8,23.2c1.4-1.4,3.3-2.2,5.3-2.2c1.6,0,3.1,0.5,4.3,1.4C48.6,16,47.4,9.4,43,5
		c-6.6-6.6-18.1-5.8-25.6,1.7c-2.4,2.4-4.2,4.8-5.4,7.1L34.2,36c1-0.5,1.9-1.1,2.9-1.8c-0.1-0.1-0.2-0.2-0.3-0.3
		C33.8,30.9,33.8,26.2,36.8,23.2z"/>
	<path fill="#F04B36" d="M42.1,23.2c-1.4,0-2.8,0.6-3.8,1.6c-2.1,2.1-2.1,5.5,0,7.6c1,1,2.4,1.6,3.8,1.6c1.4,0,2.8-0.6,3.8-1.6
		c2.1-2.1,2.1-5.5,0-7.6C44.9,23.7,43.5,23.2,42.1,23.2z"/>
</g>
</svg>
