<?xml version="1.0" encoding="utf-8"?>
<!-- Generator: Adobe Illustrator 18.0.0, SVG Export Plug-In . SVG Version: 6.00 Build 0)  -->
<!DOCTYPE svg PUBLIC "-//W3C//DTD SVG 1.1//EN" "http://www.w3.org/Graphics/SVG/1.1/DTD/svg11.dtd">
<svg version="1.1" id="Layer_1" xmlns="http://www.w3.org/2000/svg" xmlns:xlink="http://www.w3.org/1999/xlink" x="0px" y="0px"
	 viewBox="0 0 48 48" enable-background="new 0 0 48 48" xml:space="preserve">
<g>
	<path fill="#F7A93B" d="M17,19.1c-7.9,0-14.3,6.4-14.3,14.2c0,7.8,6.4,14.2,14.3,14.2c7.9,0,14.3-6.4,14.3-14.2
		C31.3,25.5,24.9,19.1,17,19.1z M11.7,27.6c-1.2,0-2.1-0.9-2.1-2.1c0-1.2,0.9-2.1,2.1-2.1c1.2,0,2.1,0.9,2.1,2.1
		C13.8,26.7,12.8,27.6,11.7,27.6z M16.7,32.2c-1,0-1.9-0.8-1.9-1.9c0-1,0.8-1.9,1.9-1.9c1,0,1.9,0.8,1.9,1.9
		C18.5,31.4,17.7,32.2,16.7,32.2z M18.5,26c-1.2,0-2.1-0.9-2.1-2.1c0-1.2,0.9-2.1,2.1-2.1c1.2,0,2.1,0.9,2.1,2.1
		C20.6,25.1,19.6,26,18.5,26z"/>
	<path fill="#0DB89A" d="M38,15.9c-0.4-0.5-0.8-1.1-1.1-1.5c-0.7-1.1-0.9-3.7,0-4.8c0.6-0.8,1.4-1.4,2.1-2c1.2-1,1.9-1.6,1.9-2.6
		c0-2.5-2.4-4.5-5.4-4.5c-3,0-5.4,2-5.4,4.5c0,1,0.7,1.6,1.9,2.6c0.7,0.6,1.5,1.2,2.1,2c0.8,1.1,0.9,3.8,0,4.9
		c-1.4,1.6-2.8,3.5-4.2,5.8L29,22.1c2.8,2.9,4.5,6.9,4.5,11.2c0,5.1-2.4,9.7-6.1,12.7c0.2,0.5,0.4,1,0.6,1.5h15.2
		c1.4-3.6,2.1-8.1,2.1-12.6C45.2,26,41,20.2,38,15.9z"/>
</g>
</svg>
