<?xml version="1.0" encoding="utf-8"?>
<!-- Generator: Adobe Illustrator 18.0.0, SVG Export Plug-In . SVG Version: 6.00 Build 0)  -->
<!DOCTYPE svg PUBLIC "-//W3C//DTD SVG 1.1//EN" "http://www.w3.org/Graphics/SVG/1.1/DTD/svg11.dtd">
<svg version="1.1" id="Layer_1" xmlns="http://www.w3.org/2000/svg" xmlns:xlink="http://www.w3.org/1999/xlink" x="0px" y="0px"
	 viewBox="0 0 48 48" enable-background="new 0 0 48 48" xml:space="preserve">
<g>
	<path fill="#F7A93B" d="M19.4,9.9c2.6,0,4.7-2.1,4.7-4.7c0-2.6-2.1-4.7-4.7-4.7c-2.6,0-4.7,2.1-4.7,4.7C14.7,7.8,16.8,9.9,19.4,9.9
		z"/>
	<polygon fill="#06728D" points="38.9,23.3 38.9,16 30.9,8.6 29.4,10.3 36.7,17 36.7,23.3 	"/>
	
		<rect x="27.6" y="5.1" transform="matrix(0.8824 0.4705 -0.4705 0.8824 6.5413 -13.8044)" fill="#06728D" width="6.6" height="2.2"/>
	<path fill="#E77528" d="M19.4,12.3c-5.2,0-9.4,4.3-9.9,9.9h19.9C28.8,16.6,24.6,12.3,19.4,12.3z"/>
	<polygon fill="#F04B36" points="40.8,27.5 40.8,24.4 31.6,24.4 7.2,24.4 7.2,24.4 7.2,27.5 10.4,27.5 10.4,44.4 7.2,44.4 7.2,47.5 
		40.8,47.5 40.8,44.4 37.6,44.4 37.6,27.5 	"/>
</g>
</svg>
