<?xml version="1.0" encoding="utf-8"?>
<!-- Generator: Adobe Illustrator 18.0.0, SVG Export Plug-In . SVG Version: 6.00 Build 0)  -->
<!DOCTYPE svg PUBLIC "-//W3C//DTD SVG 1.1//EN" "http://www.w3.org/Graphics/SVG/1.1/DTD/svg11.dtd">
<svg version="1.1" id="Layer_1" xmlns="http://www.w3.org/2000/svg" xmlns:xlink="http://www.w3.org/1999/xlink" x="0px" y="0px"
	 viewBox="0 0 48 48" enable-background="new 0 0 48 48" xml:space="preserve">
<g>
	<path fill="#E77528" d="M24.9,23.5l-11.5-5.5L2,23.5L13.4,29L24.9,23.5z M10.6,23.3c0-1,1.4-1.7,3-1.7s3,0.8,3,1.7
		c0,1-1.4,1.7-3,1.7S10.6,24.2,10.6,23.3z"/>
	<path fill="#06728D" d="M31,3.3c1-0.3,2-0.2,2.8,0.2l9.1,4.7L43.4,6c0.2-0.9-0.3-1.8-1.2-2l-15-3.5c-0.4-0.1-0.8,0-1.2,0.2
		c-0.4,0.2-0.6,0.6-0.7,1l-3.9,17.6l0.4,0.2l7.1-14.4C29.3,4.3,30,3.6,31,3.3z"/>
	<path fill="#F7A93B" d="M33.6,38.8c0.4,0.2,0.8,0.2,1.2,0.1c0.4-0.1,0.7-0.4,0.9-0.8l11.5-23.3c0.4-0.8,0.1-1.8-0.7-2.2L32.9,5.4
		c-0.4-0.2-0.8-0.2-1.2-0.1c-0.4,0.1-0.7,0.4-0.9,0.8l-7.1,14.3l4.3,2c0,0,0,0,0.1,0c0,0,0,0,0.1,0c0,0,0,0,0.1,0.1
		c0,0,0.1,0,0.1,0.1c0,0,0.1,0.1,0.1,0.1c0,0,0,0.1,0.1,0.1c0,0.1,0.1,0.1,0.1,0.2c0,0,0,0.1,0,0.1c0,0.1,0,0.2,0,0.3v12.7
		L33.6,38.8z M33.3,7.4l0.5,0.3l-0.5,3.8l-0.4-0.2l0.2-1.2l-1.1-0.6L31,10.4l-0.4-0.2L33.3,7.4z M29.8,18.1c0.7-1.4,2.3-1.9,3.7-1.2
		c0.8,0.4,1.3,1.1,1.4,2c0.7-0.4,1.6-0.4,2.4,0c1.3,0.7,1.9,2.4,1.2,3.7c-1.1,2.3-3.5,2.5-7.4,3.8C29.9,22.5,28.6,20.6,29.8,18.1z"
		/>
	<path fill="#F7A93B" d="M33.3,8.6c0-0.3,0.1-0.5,0.1-0.7l0,0c-0.1,0.2-0.3,0.3-0.5,0.5l-0.8,0.8l1,0.5L33.3,8.6z"/>
	<path fill="#F04B36" d="M0.5,40.5l11.9,6.9V30.9L0.5,25.2V40.5z M8.6,31.7c0.7-0.2,1.5,0.7,1.8,2c0.3,1.3,0,2.5-0.7,2.6
		c-0.7,0.2-1.5-0.7-1.8-2C7.6,33.1,7.9,31.9,8.6,31.7z M8.6,39.2c0.7-0.2,1.5,0.7,1.8,2c0.3,1.3,0,2.5-0.7,2.6
		c-0.7,0.2-1.5-0.7-1.8-2C7.6,40.5,7.9,39.3,8.6,39.2z M2.6,29c0.7-0.2,1.5,0.7,1.8,2c0.3,1.3,0,2.5-0.7,2.6c-0.7,0.2-1.5-0.7-1.8-2
		C1.6,30.4,1.9,29.2,2.6,29z M2.6,36.4c0.7-0.2,1.5,0.7,1.8,2c0.3,1.3,0,2.5-0.7,2.6c-0.7,0.2-1.5-0.7-1.8-2
		C1.6,37.8,1.9,36.6,2.6,36.4z"/>
	<path fill="#4DA0D8" d="M26.4,25.2l-11.9,5.6v16.6l11.9-6.7V25.2z M18.3,42.7c-0.3,1.3-1.1,2.2-1.8,2c-0.7-0.2-1-1.4-0.7-2.6
		c0.3-1.3,1.1-2.2,1.8-2C18.3,40.3,18.6,41.5,18.3,42.7z M21.7,37.1c-0.3,1.3-1.1,2.2-1.8,2c-0.7-0.2-1-1.4-0.7-2.6
		c0.3-1.3,1.1-2.2,1.8-2C21.7,34.6,22,35.8,21.7,37.1z M24.7,31.3c-0.3,1.3-1.1,2.2-1.8,2c-0.7-0.2-1-1.4-0.7-2.6
		c0.3-1.3,1.1-2.2,1.8-2C24.7,28.8,25,30,24.7,31.3z"/>
</g>
</svg>
