<?xml version="1.0" encoding="utf-8"?>
<!-- Generator: Adobe Illustrator 18.0.0, SVG Export Plug-In . SVG Version: 6.00 Build 0)  -->
<!DOCTYPE svg PUBLIC "-//W3C//DTD SVG 1.1//EN" "http://www.w3.org/Graphics/SVG/1.1/DTD/svg11.dtd">
<svg version="1.1" id="Layer_1" xmlns="http://www.w3.org/2000/svg" xmlns:xlink="http://www.w3.org/1999/xlink" x="0px" y="0px"
	 viewBox="0 0 48 48" enable-background="new 0 0 48 48" xml:space="preserve">
<g>
	<path fill="#06728D" d="M44.8,8.8c-0.3-0.1-0.6-0.1-0.8-0.1c-2.4,0-5,3-6.2,7.3c-1.4,4.9-0.6,9.2,2,10c0.3,0.1,0.6,0.1,0.8,0.1
		c2.4,0,5-3,6.2-7.3C48.2,13.9,47.4,9.6,44.8,8.8z M43.6,17.9c-0.5,1.6-1.5,2.7-2.2,2.5c-0.8-0.2-1-1.8-0.5-3.4
		c0.5-1.6,1.5-2.7,2.2-2.5C43.9,14.7,44.1,16.2,43.6,17.9z"/>
	<path fill="#4DA0D8" d="M45.4,7L22.7,0.5c0,0-5.6,0-8,8.7l21.1,6.5C35.8,15.7,38.9,5.6,45.4,7z"/>
	<path fill="#F04B36" d="M35.3,17.5l-21.2-6.1c-1.2,7.3,2.3,8.7,2.3,8.7l5,1.4v5.8l1.7,0.5v5L8,36.3v-7.8H0.5v19.1H8v-6.8l15.1-3.3
		v0.6h3.5V29l1.9,0.6v-6l9.2,2.6C34.2,25.2,35.3,17.5,35.3,17.5z"/>
</g>
</svg>
