<?xml version="1.0" encoding="utf-8"?>
<!-- Generator: Adobe Illustrator 18.0.0, SVG Export Plug-In . SVG Version: 6.00 Build 0)  -->
<!DOCTYPE svg PUBLIC "-//W3C//DTD SVG 1.1//EN" "http://www.w3.org/Graphics/SVG/1.1/DTD/svg11.dtd">
<svg version="1.1" id="Layer_1" xmlns="http://www.w3.org/2000/svg" xmlns:xlink="http://www.w3.org/1999/xlink" x="0px" y="0px"
	 viewBox="0 0 48 48" enable-background="new 0 0 48 48" xml:space="preserve">
<g>
	<path fill="#4DA0D8" d="M46.3,15.3H3.2c-0.7,0-1.2,0.4-1.2,0.9v8.6h13.2v12H1.9v8.6c0,0.5,0.6,0.9,1.2,0.9h43.1
		c0.7,0,1.2-0.4,1.2-0.9V16.3C47.5,15.7,46.9,15.3,46.3,15.3z"/>
	<path fill="#06728D" d="M13,27H0.5v7.7H13V27z M8.4,32.5c-0.9,0-1.7-0.8-1.7-1.7c0-0.9,0.8-1.7,1.7-1.7c0.9,0,1.7,0.8,1.7,1.7
		C10.1,31.7,9.4,32.5,8.4,32.5z"/>
	<polygon fill="#F7A93B" points="7.7,13.2 19.3,13.2 24.7,7.5 18.5,1.7 	"/>
	<polygon fill="#F04B36" points="41.5,13.2 43,11.5 32.8,1.9 22.2,13.2 	"/>
</g>
</svg>
