<?xml version="1.0" encoding="utf-8"?>
<!-- Generator: Adobe Illustrator 18.0.0, SVG Export Plug-In . SVG Version: 6.00 Build 0)  -->
<!DOCTYPE svg PUBLIC "-//W3C//DTD SVG 1.1//EN" "http://www.w3.org/Graphics/SVG/1.1/DTD/svg11.dtd">
<svg version="1.1" id="Layer_1" xmlns="http://www.w3.org/2000/svg" xmlns:xlink="http://www.w3.org/1999/xlink" x="0px" y="0px"
	 viewBox="0 0 48 48" enable-background="new 0 0 48 48" xml:space="preserve">
<g>
	<path fill="#E77528" d="M37.7,18h-3.3v2h3.3c1.1,0,2.1,0.9,2.1,2.1v8c0,1.1-0.9,2.1-2.1,2.1h-3.3v2h3.3c2.3,0,4.1-1.8,4.1-4.1v-8
		C41.8,19.8,40,18,37.7,18z"/>
	<rect x="11.7" y="4.7" fill="#F04B36" width="2" height="8"/>
	<rect x="18.1" y="0.5" fill="#F04B36" width="2" height="12.1"/>
	<rect x="24.6" y="4.7" fill="#F04B36" width="2" height="8"/>
	<path fill="#0DB89A" d="M16.9,23.8l5.1,3.4v12.9H9.8V27.3l5.1-3.6v-8.4H6.2v28c0,2.4,1.9,4.3,4.3,4.3h17.5c2.4,0,4.3-1.9,4.3-4.3
		v-28H16.9V23.8z"/>
</g>
</svg>
