<?xml version="1.0" encoding="utf-8"?>
<!-- Generator: Adobe Illustrator 18.0.0, SVG Export Plug-In . SVG Version: 6.00 Build 0)  -->
<!DOCTYPE svg PUBLIC "-//W3C//DTD SVG 1.1//EN" "http://www.w3.org/Graphics/SVG/1.1/DTD/svg11.dtd">
<svg version="1.1" id="Layer_1" xmlns="http://www.w3.org/2000/svg" xmlns:xlink="http://www.w3.org/1999/xlink" x="0px" y="0px"
	 viewBox="0 0 48 48" enable-background="new 0 0 48 48" xml:space="preserve">
<g>
	<polygon fill="#F04B36" points="26,20.4 22,20.4 22,25.9 16.4,25.9 16.4,30 22,30 22,35.6 26,35.6 26,30 31.6,30 31.6,25.9 
		26,25.9 	"/>
	<circle fill="none" cx="24" cy="28" r="10.8"/>
	<path fill="#F7A93B" d="M16.3,8c0-0.7,0.6-1.3,1.3-1.3h12.7c0.7,0,1.3,0.6,1.3,1.3v3.6h3.1V8c0-2.4-2-4.4-4.4-4.4H17.7
		c-2.4,0-4.4,2-4.4,4.4v3.6h3.1V8z"/>
	<path fill="#06728D" d="M45.2,11.5H34.7h-3.1H16.3h-3.1H2.8c-1.2,0-2.3,1-2.3,2.3v28.4c0,1.2,1,2.3,2.3,2.3h42.5
		c1.2,0,2.3-1,2.3-2.3V13.8C47.5,12.5,46.5,11.5,45.2,11.5z M24,38.8c-6,0-10.8-4.8-10.8-10.8S18,17.2,24,17.2
		c6,0,10.8,4.8,10.8,10.8S30,38.8,24,38.8z"/>
</g>
</svg>
