<?xml version="1.0" encoding="utf-8"?>
<!-- Generator: Adobe Illustrator 18.0.0, SVG Export Plug-In . SVG Version: 6.00 Build 0)  -->
<!DOCTYPE svg PUBLIC "-//W3C//DTD SVG 1.1//EN" "http://www.w3.org/Graphics/SVG/1.1/DTD/svg11.dtd">
<svg version="1.1" id="Layer_1" xmlns="http://www.w3.org/2000/svg" xmlns:xlink="http://www.w3.org/1999/xlink" x="0px" y="0px"
	 viewBox="0 0 48 48" enable-background="new 0 0 48 48" xml:space="preserve">
<g>
	<rect x="28.4" y="5.1" fill="#CFD0D1" width="2" height="5.4"/>
	<rect x="23.6" y="1.5" fill="#CFD0D1" width="2" height="9"/>
	<rect x="18.9" y="5.1" fill="#CFD0D1" width="2" height="5.4"/>
	<path fill="#F04B36" d="M22.2,28.1c-1.1-0.3-2.3-0.5-3.5-0.5c-1.2,0-2.4,0.2-3.5,0.5c-1.1,0.3-2,0.7-3,1.2l1.2,9.2
		c1.7,0.2,3.6,0.5,5.4,1.2c1.4,0.5,3,1.5,4.6,2.5l7.3-5.9C28.5,30.1,22.6,28.2,22.2,28.1z"/>
	<path fill="#0DB89A" d="M25.1,43.3c0.5,0.3,0.9,0.7,1.3,1c1.1,0.8,2.1,1.5,2.9,2.1c0.7,0.5,1.6-0.1,1.8-1c0.5-2.7,0.5-5,0.1-7
		L25.1,43.3z"/>
	<path fill="#06728D" d="M22.8,26.1c0.1,0,4,1.3,7.1,4.9c3.8-3.2,6.3-9.7,6.4-16.8h-23c0.1,4.2,1,8.3,2.6,11.6
		C18.2,25.4,20.5,25.5,22.8,26.1z"/>
	<path fill="#E77528" d="M38.7,15.4c-0.2-0.1-0.4-0.1-0.6-0.2l0,0.2c0,0.8-0.1,1.6-0.2,2.4c1.7,0.6,2.3,2.2,1.7,4.2
		c-0.7,2.1-2.5,3.9-3.9,3.9c-0.4,0.9-0.9,1.7-1.3,2.4c0,0,0.1,0,0.1,0c0.4,0.1,0.7,0.2,1.1,0.2c2.8,0.1,5.6-2.6,6.6-5.7
		C43.2,19.5,41.8,16.4,38.7,15.4z"/>
	<path fill="#0DB89A" d="M5.7,35.8c-0.2,0.6-0.3,1.2,0,1.6c0.1,0.3,0.4,0.4,0.7,0.5C7.2,38,8.3,38,9.5,38.1c0.6,0,1.2,0.1,1.9,0.1
		l-1-7.8C8,32.2,6.4,34.3,5.7,35.8z"/>
</g>
</svg>
