<?xml version="1.0" encoding="utf-8"?>
<!-- Generator: Adobe Illustrator 18.0.0, SVG Export Plug-In . SVG Version: 6.00 Build 0)  -->
<!DOCTYPE svg PUBLIC "-//W3C//DTD SVG 1.1//EN" "http://www.w3.org/Graphics/SVG/1.1/DTD/svg11.dtd">
<svg version="1.1" id="Layer_1" xmlns="http://www.w3.org/2000/svg" xmlns:xlink="http://www.w3.org/1999/xlink" x="0px" y="0px"
	 viewBox="0 0 48 48" enable-background="new 0 0 48 48" xml:space="preserve">
<g>
	<path fill="#4DA0D8" d="M29.8,9.9c-0.1,0-0.2,0-0.3,0c-0.9,0-1.6,0.6-1.8,1.5c-0.2,1,0.5,1.9,1.4,2.1c1,0.2,1.9-0.5,2.1-1.4
		c0.1-0.5,0-0.9-0.3-1.3C30.7,10.2,30.3,10,29.8,9.9z"/>
	<path fill="none" d="M30.1,7.9C28,7.5,26.1,8.9,25.7,11c-0.4,2.1,1,4.1,3.1,4.4c0.2,0,0.4,0.1,0.7,0.1c1.9,0,3.4-1.3,3.8-3.2
		c0.2-1,0-2-0.6-2.9C32,8.6,31.1,8.1,30.1,7.9z"/>
	<polygon fill="#06728D" points="9.4,31.1 13.6,47.5 28.3,47.5 32.5,31.1 22,31.1 18.9,31.1 	"/>
	<path fill="none" d="M30.1,7.9C28,7.5,26.1,8.9,25.7,11c-0.4,2.1,1,4.1,3.1,4.4c0.2,0,0.4,0.1,0.7,0.1c1.9,0,3.4-1.3,3.8-3.2
		c0.2-1,0-2-0.6-2.9C32,8.6,31.1,8.1,30.1,7.9z"/>
	<path fill="#F04B36" d="M40.1,8c-0.7-2.1-2.9-3.3-5-2.9c0.1-2.2-1.4-4.1-3.6-4.5c-1.9-0.3-3.7,0.6-4.6,2.2
		c-1.6-0.8-3.7-0.6-5.1,0.7c-1.7,1.7-1.8,4.4-0.2,6.2c-2.3,0.8-3.4,3.3-2.7,5.6c0.5,1.3,1.5,2.3,2.7,2.7c0,0,2-0.6,2.5,1.7
		c0.5,1.5,1.8,2.7,3.4,3c1.9,0.3,3.7-0.6,4.6-2.2c1.6,0.8,3.7,0.6,5.1-0.7c1.7-1.7,1.8-4.4,0.2-6.2C39.7,12.7,40.9,10.3,40.1,8z
		 M33.2,12.3c-0.3,1.8-1.9,3.2-3.8,3.2c-0.2,0-0.4,0-0.7-0.1c-2.1-0.4-3.5-2.4-3.1-4.4c0.4-2.1,2.3-3.5,4.4-3.1
		c1,0.2,1.9,0.7,2.5,1.6C33.2,10.3,33.4,11.3,33.2,12.3z"/>
	<path fill="#0DB89A" d="M21.6,18c-0.9,1.2-1.5,2.6-1.9,4.1c-1.3-2.1-4.1-3.8-8.4-4.1C10,18,8.8,17.6,7.6,17
		c0.1,2.2,0.1,5.8,4.2,8.5c2,1.3,4.7,1.5,7.1,1c-0.1,1.7-0.1,3.4-0.1,4.6H22c-0.2-2.8-0.1-8,2.1-11.3C23.5,17.4,21.6,18,21.6,18z"/>
</g>
</svg>
