<?xml version="1.0" encoding="utf-8"?>
<!-- Generator: Adobe Illustrator 18.0.0, SVG Export Plug-In . SVG Version: 6.00 Build 0)  -->
<!DOCTYPE svg PUBLIC "-//W3C//DTD SVG 1.1//EN" "http://www.w3.org/Graphics/SVG/1.1/DTD/svg11.dtd">
<svg version="1.1" id="Layer_1" xmlns="http://www.w3.org/2000/svg" xmlns:xlink="http://www.w3.org/1999/xlink" x="0px" y="0px"
	 viewBox="0 0 48 48" enable-background="new 0 0 48 48" xml:space="preserve">
<g>
	<path fill="#0DB89A" d="M40.4,16.5c0.8-5.2-0.4-10.8-3.4-16H18.8c2.8,5.2,3.9,10.8,3.2,16H40.4z M38.5,13.9H24.4v-2h14.1V13.9z
		 M38.1,7.1v2H24v-2H38.1z M22,4.5v-2H36v2H22z"/>
	<path fill="#06728D" d="M47.5,14.3h-4.7c0,1.1-0.1,2.3-0.4,3.4l-0.2,0.8H19.4l0.2-1.2c0.2-1,0.3-2,0.3-3h-6.3v21.8h33.8V14.3z
		 M22.7,33h-3.4v-2h3.4V33z M22.7,28.8h-3.4v-2h3.4V28.8z M22.7,24.5h-3.4v-2h3.4V24.5z M28.4,33H25v-2h3.4V33z M28.4,28.8H25v-2
		h3.4V28.8z M28.4,24.5H25v-2h3.4V24.5z M34.1,33h-3.4v-2h3.4V33z M34.1,28.8h-3.4v-2h3.4V28.8z M34.1,24.5h-3.4v-2h3.4V24.5z
		 M39.8,33h-3.4v-2h3.4V33z M39.8,28.8h-3.4v-2h3.4V28.8z M39.8,24.5h-3.4v-2h3.4V24.5z M45.2,32h-2.1v-7.7h2.1V32z"/>
	<path fill="#CFD0D1" d="M8.8,32.3V12.1c0-1.7-1.4-3.1-3.2-3.1H3.7c-1.8,0-3.2,1.4-3.2,3.1v20.1c0,1.7,1.4,3.1,3.2,3.1h1.9
		C7.4,35.3,8.8,34,8.8,32.3z"/>
	<path fill="#F04B36" d="M33.8,38.2c-0.2,0.2-0.5,0.4-0.7,0.6c-0.9,0.7-1.8,1.4-2.2,2.3c-0.2,0.4-0.3,0.8-0.4,1.3
		c-0.1,0.4-0.2,0.8-0.4,1.2c-0.4,1-1.1,1.8-1.7,1.9c-0.8,0.2-1.6-0.3-2.5-0.8c-1.1-0.6-2.3-1.3-3.9-1.1c-0.7,0.1-1.4,0.3-1.9,0.5
		c-0.7,0.2-1.2,0.4-1.9,0.4c0,0,0,0,0,0c-1.1,0-1.7-0.1-2.5-1c-0.2-0.2-0.3-0.3-0.4-0.5c-0.8-0.9-1.6-1.8-3-2
		c-1-0.1-1.8,0.2-2.4,0.4c-0.4,0.2-0.8,0.3-1.1,0.3c-0.7,0-0.9-0.2-1-0.3C7,40.8,7.2,39,7.4,37.3l0-0.2c-0.6,0.2-1.2,0.3-1.8,0.3
		H5.2C5,39.5,4.8,41.6,6,42.8c0.6,0.6,1.5,1,2.6,1c0.8,0,1.4-0.2,1.9-0.4c0.6-0.2,0.9-0.3,1.3-0.3c0.6,0.1,1,0.5,1.7,1.3
		c0.2,0.2,0.3,0.3,0.5,0.5c1.3,1.4,2.5,1.6,4.1,1.6c0,0,0,0,0,0c1.1,0,1.9-0.3,2.7-0.6c0.5-0.2,0.9-0.3,1.5-0.4
		c0.8-0.1,1.6,0.3,2.5,0.8c0.9,0.5,2,1.1,3.2,1.1c0.3,0,0.5,0,0.8-0.1c1.3-0.3,2.6-1.4,3.3-3.1c0.2-0.5,0.3-0.9,0.5-1.4
		c0.1-0.4,0.2-0.8,0.4-1.1c0.2-0.4,0.9-0.9,1.5-1.4c0.8-0.6,1.7-1.3,2.2-2.2H33.8z"/>
</g>
</svg>
