<?xml version="1.0" encoding="utf-8"?>
<!-- Generator: Adobe Illustrator 18.0.0, SVG Export Plug-In . SVG Version: 6.00 Build 0)  -->
<!DOCTYPE svg PUBLIC "-//W3C//DTD SVG 1.1//EN" "http://www.w3.org/Graphics/SVG/1.1/DTD/svg11.dtd">
<svg version="1.1" id="Layer_1" xmlns="http://www.w3.org/2000/svg" xmlns:xlink="http://www.w3.org/1999/xlink" x="0px" y="0px"
	 viewBox="0 0 48 48" enable-background="new 0 0 48 48" xml:space="preserve">
<g>
	<rect x="0.5" y="34.7" fill="#E77528" width="47" height="12.8"/>
	<polygon fill="#0DB89A" points="0.5,0.5 0.5,32.7 5.8,32.7 5.8,18.9 13.3,6.1 21.7,6.1 26.3,6.1 34.7,6.1 42.2,18.9 42.2,32.7 
		47.5,32.7 47.5,0.5 	"/>
	<path fill="#F04B36" d="M24,22.6c5.9,0,10.7,4.3,11.3,10.1h4.8V19.5L33.5,8.2h-7.2h-4.7h-7.2L7.8,19.5v13.2h4.8
		C13.3,27,18.1,22.6,24,22.6z M24,11.2c2.9,0,5.3,2.4,5.3,5.3c0,2.9-2.4,5.3-5.3,5.3c-2.9,0-5.3-2.4-5.3-5.3
		C18.7,13.6,21.1,11.2,24,11.2z"/>
</g>
</svg>
