<?xml version="1.0" encoding="utf-8"?>
<!-- Generator: Adobe Illustrator 18.0.0, SVG Export Plug-In . SVG Version: 6.00 Build 0)  -->
<!DOCTYPE svg PUBLIC "-//W3C//DTD SVG 1.1//EN" "http://www.w3.org/Graphics/SVG/1.1/DTD/svg11.dtd">
<svg version="1.1" id="Layer_1" xmlns="http://www.w3.org/2000/svg" xmlns:xlink="http://www.w3.org/1999/xlink" x="0px" y="0px"
	 viewBox="0 0 48 48" enable-background="new 0 0 48 48" xml:space="preserve">
<g>
	<path fill="#4DA0D8" d="M13.5,35.6c-0.5-0.5-1-0.7-1.5-0.7c-0.5,0-0.8,0.1-1.2,0.5c-0.3,0.3-0.5,0.7-0.4,1.2
		c0.1,0.4,0.4,0.9,0.9,1.4c0.5,0.5,1,0.7,1.5,0.7c0.5,0,0.9-0.1,1.2-0.4c0.3-0.3,0.4-0.7,0.4-1.2C14.3,36.5,14,36.1,13.5,35.6z"/>
	<path fill="#4DA0D8" d="M16.5,31.5c0-0.2-0.1-0.3-0.3-0.4c-0.2-0.1-0.3-0.2-0.5-0.2c-0.2,0-0.4,0-0.5,0.1c-0.1,0.1-0.3,0.3-0.6,0.6
		L14.2,32l1.3,1.2l0.4-0.4c0.3-0.3,0.5-0.6,0.6-0.7C16.6,31.8,16.6,31.7,16.5,31.5z"/>
	<path fill="#4DA0D8" d="M42.8,4c-5.7-4.9-14.3-4.6-19.1,0.5L3.8,25.7C-1.1,30.9-0.5,39.1,5.2,44c5.7,4.9,14.3,4.6,19.1-0.5
		l19.9-21.2C49.1,17.1,48.5,8.9,42.8,4z M14.8,38.8c-0.6,0.6-1.3,0.9-2,0.9c-0.8,0-1.5-0.4-2.2-1c-0.5-0.4-0.8-0.8-1-1.2
		c-0.1-0.3-0.2-0.6-0.3-0.9c0-0.3,0-0.6,0.1-0.9c0.1-0.4,0.3-0.7,0.7-1c0.6-0.6,1.3-0.9,2-0.9c0.8,0,1.5,0.4,2.3,1
		c0.7,0.7,1.2,1.4,1.2,2.1C15.7,37.6,15.4,38.2,14.8,38.8z M17.3,36.2l-4.6-4.1l1.3-1.3c0.5-0.5,0.8-0.8,1-0.9
		c0.3-0.2,0.6-0.2,1-0.2c0.4,0.1,0.8,0.2,1.1,0.6c0.3,0.3,0.5,0.5,0.6,0.8c0.1,0.3,0.1,0.5,0.1,0.7c0,0.2-0.1,0.4-0.2,0.6
		c-0.1,0.2-0.4,0.5-0.8,0.9l-0.5,0.5l1.7,1.5L17.3,36.2z M20.9,32.4l-4.6-4.1l2.9-3L20,26l-2.1,2.2l1,0.9l2-2l0.8,0.7l-2,2l1.3,1.1
		l2.2-2.3l0.8,0.7L20.9,32.4z M26.9,26.3l-4.6-1.1l3,2.7l-0.7,0.8L20,24.6l0.8-0.8l4.7,1.1l-3.1-2.7l0.7-0.8l4.6,4.1L26.9,26.3z
		 M39.9,18.3c-2.6,2.8-7.4,2.8-10.6,0.1c-3.2-2.8-3.7-7.3-1-10.1c2.6-2.8,7.4-2.8,10.6-0.1C42.1,10.9,42.5,15.5,39.9,18.3z"/>
</g>
</svg>
