<?xml version="1.0" encoding="utf-8"?>
<!-- Generator: Adobe Illustrator 18.0.0, SVG Export Plug-In . SVG Version: 6.00 Build 0)  -->
<!DOCTYPE svg PUBLIC "-//W3C//DTD SVG 1.1//EN" "http://www.w3.org/Graphics/SVG/1.1/DTD/svg11.dtd">
<svg version="1.1" id="Layer_1" xmlns="http://www.w3.org/2000/svg" xmlns:xlink="http://www.w3.org/1999/xlink" x="0px" y="0px"
	 viewBox="0 0 48 48" enable-background="new 0 0 48 48" xml:space="preserve">
<g>
	<path fill="#0DB89A" d="M42.8,4c-5.7-4.9-14.3-4.6-19.1,0.5L3.8,25.7C-1.1,30.9-0.5,39.1,5.2,44c5.7,4.9,14.3,4.6,19.1-0.5
		l19.9-21.2C49.1,17.1,48.5,8.9,42.8,4z M12.6,40.2C12,40.7,11.4,41,10.6,41c-0.8,0-1.5-0.4-2.2-1c-0.8-0.7-1.2-1.4-1.3-2.1
		c-0.1-0.7,0.1-1.4,0.7-1.9c0.5-0.5,1-0.7,1.7-0.8c0.4,0,0.8,0.1,1.3,0.3l-0.6,1c-0.3-0.2-0.6-0.2-0.9-0.2c-0.3,0-0.5,0.2-0.7,0.4
		c-0.3,0.3-0.4,0.7-0.3,1.1c0.1,0.4,0.4,0.9,0.9,1.3c0.6,0.5,1.1,0.8,1.5,0.8c0.4,0,0.8-0.1,1.1-0.4c0.2-0.2,0.3-0.5,0.3-0.8
		c0-0.3-0.1-0.6-0.4-1l1.1-0.5c0.4,0.6,0.6,1.1,0.5,1.6C13.2,39.3,13,39.8,12.6,40.2z M14.8,37.7l-4.6-4.1l0.8-0.8l3.8,3.4l2-2
		l0.8,0.7L14.8,37.7z M20,32.6c-0.6,0.6-1.3,0.9-2,0.9c-0.8,0-1.5-0.4-2.2-1c-0.5-0.4-0.8-0.8-1-1.2c-0.1-0.3-0.2-0.6-0.3-0.9
		c0-0.3,0-0.6,0.1-0.9c0.1-0.4,0.3-0.7,0.7-1c0.6-0.6,1.3-0.9,2-0.9c0.8,0,1.5,0.4,2.3,1c0.7,0.7,1.2,1.4,1.2,2.1
		C20.8,31.3,20.5,32,20,32.6z M24.6,27.5c-0.1,0.3-0.3,0.7-0.7,1c-0.5,0.5-1,0.8-1.5,0.8c-0.5,0-1.1-0.2-1.7-0.6l0.7-0.9
		c0.4,0.2,0.7,0.3,1,0.3c0.3,0,0.5-0.2,0.8-0.4c0.3-0.3,0.4-0.5,0.4-0.8c0-0.2-0.1-0.4-0.3-0.6c-0.1-0.1-0.2-0.2-0.4-0.2
		c-0.1,0-0.3,0-0.5,0.1c-0.1,0.1-0.4,0.2-0.8,0.5c-0.5,0.3-1,0.5-1.3,0.5c-0.5,0-0.9-0.1-1.3-0.5c-0.2-0.2-0.4-0.5-0.5-0.8
		c-0.1-0.3-0.1-0.6,0-0.9c0.1-0.3,0.3-0.6,0.6-0.9c0.5-0.5,1-0.8,1.5-0.8c0.5,0,1,0.1,1.4,0.5l-0.7,0.9c-0.3-0.2-0.5-0.3-0.7-0.2
		c-0.2,0-0.4,0.1-0.7,0.4c-0.2,0.2-0.4,0.5-0.4,0.7c0,0.1,0,0.3,0.2,0.4c0.1,0.1,0.2,0.1,0.4,0.1c0.2,0,0.5-0.2,1-0.5
		c0.5-0.3,0.9-0.5,1.2-0.6c0.3-0.1,0.6-0.1,0.9,0c0.3,0.1,0.6,0.2,0.9,0.5c0.3,0.2,0.4,0.5,0.6,0.9C24.7,26.9,24.7,27.2,24.6,27.5z
		 M26.1,26.2l-4.6-4.1l2.9-3l0.8,0.7L23,22l1,0.9l2-2l0.8,0.7l-2,2l1.3,1.1l2.2-2.3l0.8,0.7L26.1,26.2z M40,18.3
		c-2.6,2.8-7.4,2.8-10.6,0.1c-3.2-2.8-3.7-7.3-1-10.1c2.6-2.8,7.4-2.8,10.6-0.1C42.2,11,42.7,15.5,40,18.3z"/>
	<path fill="#0DB89A" d="M18.6,29.4c-0.5-0.5-1-0.7-1.5-0.7c-0.5,0-0.9,0.1-1.2,0.5c-0.3,0.3-0.5,0.7-0.4,1.2
		c0.1,0.4,0.4,0.9,0.9,1.4c0.5,0.5,1,0.7,1.5,0.7c0.5,0,0.9-0.1,1.2-0.4c0.3-0.3,0.4-0.7,0.4-1.2C19.5,30.3,19.2,29.8,18.6,29.4z"/>
</g>
</svg>
