<?xml version="1.0" encoding="utf-8"?>
<!-- Generator: Adobe Illustrator 18.0.0, SVG Export Plug-In . SVG Version: 6.00 Build 0)  -->
<!DOCTYPE svg PUBLIC "-//W3C//DTD SVG 1.1//EN" "http://www.w3.org/Graphics/SVG/1.1/DTD/svg11.dtd">
<svg version="1.1" id="Layer_1" xmlns="http://www.w3.org/2000/svg" xmlns:xlink="http://www.w3.org/1999/xlink" x="0px" y="0px"
	 viewBox="0 0 48 48" enable-background="new 0 0 48 48" xml:space="preserve">
<g>
	<path fill="#06728D" d="M18.7,30.8l-7.8-26c-0.2-0.6-0.8-1.1-1.5-1.1h-9v3.1h7.8l7.8,26c0.2,0.6,0.8,1.1,1.5,1.1h29.9v-3.1H18.7z"
		/>
	<circle fill="#4DA0D8" cx="23.9" cy="39.8" r="4.5"/>
	<circle fill="#4DA0D8" cx="41.2" cy="39.8" r="4.5"/>
	<rect x="23.9" y="13.2" fill="none" width="2" height="11.8"/>
	<rect x="28.3" y="7.5" fill="#0DB89A" width="9.2" height="1.8"/>
	<path fill="#0DB89A" d="M28.3,7.5h9.2v1.8h2V6.4c0-0.6-0.5-1-1-1H27.3c-0.6,0-1,0.5-1,1v2.8h2V7.5z"/>
	<path fill="#F04B36" d="M43.2,9.2h-3.7h-2h-9.2h-2h-3.7c-2,0-3.6,1.6-3.6,3.6v13c0,2,1.6,3.6,3.6,3.6h20.7c2,0,3.6-1.6,3.6-3.6v-13
		C46.8,10.8,45.2,9.2,43.2,9.2z M25.9,25h-2V13.2h2V25z M41.6,25h-2V13.2h2V25z"/>
</g>
</svg>
