<?xml version="1.0" encoding="utf-8"?>
<!-- Generator: Adobe Illustrator 18.0.0, SVG Export Plug-In . SVG Version: 6.00 Build 0)  -->
<!DOCTYPE svg PUBLIC "-//W3C//DTD SVG 1.1//EN" "http://www.w3.org/Graphics/SVG/1.1/DTD/svg11.dtd">
<svg version="1.1" id="Layer_1" xmlns="http://www.w3.org/2000/svg" xmlns:xlink="http://www.w3.org/1999/xlink" x="0px" y="0px"
	 viewBox="0 0 48 48" enable-background="new 0 0 48 48" xml:space="preserve">
<g>
	<path fill="none" d="M31.9,21.8v-2.1c-2.8,2.1-5.5,2.8-7.8,2.8c-3.5,0-6.3-1.6-8-2.8v2.1C20.5,23.4,25.9,23.9,31.9,21.8z"/>
	<path fill="none" d="M33.9,29.3h-2v-5.4c-2.7,0.9-5.3,1.2-7.7,1.2c-2.9,0-5.6-0.5-8.1-1.3v5.5h-2v-6.2c-4.1-1.6-7.2-3.9-9-5.4v21.9
		l15.6-11.1h7.1l15,11.1v-22c-3.1,2.5-6.1,4.3-9,5.5V29.3z"/>
	<path fill="#F7A93B" d="M17.3,15.3c0-1.2-1-2.2-2.2-2.2c-1.2,0-2.2,1-2.2,2.2c0,0.9,0.5,1.6,1.2,2l2,0
		C16.8,16.9,17.3,16.2,17.3,15.3z"/>
	<path fill="#F04B36" d="M7.9,10.3c0-2-1.7-3.7-3.7-3.7s-3.7,1.7-3.7,3.7c0,1.7,1.2,3.1,2.7,3.6h2C6.8,13.5,7.9,12,7.9,10.3z"/>
	<path fill="#F04B36" d="M47.5,10.3c0-2-1.7-3.7-3.7-3.7c-2,0-3.7,1.7-3.7,3.7c0,1.7,1.2,3.1,2.7,3.6h2C46.3,13.5,47.5,12,47.5,10.3
		z"/>
	<path fill="#F7A93B" d="M35.1,15.3c0-1.2-1-2.2-2.2-2.2c-1.2,0-2.2,1-2.2,2.2c0,0.8,0.5,1.5,1.2,1.9l2,0
		C34.6,16.9,35.1,16.2,35.1,15.3z"/>
	<path fill="#06728D" d="M42.8,15c-3.1,2.8-6.1,4.7-9,6v-3.7l-2,0c-7.6,6.6-14.2,1.4-15.7,0l-2,0v3.8c-4.8-2.1-8-5.1-9-6v-1.2h-2
		v27.5h2v-1.3h37.6v1.3h2V13.9h-2V15z M16.1,19.7c1.7,1.2,4.5,2.8,8,2.8c2.4,0,5-0.7,7.8-2.8v2.1c-6,2.1-11.4,1.5-15.8,0V19.7z
		 M42.8,39.7l-15-11.1h-7.1L5.2,39.6V17.7c1.8,1.5,4.9,3.7,9,5.4v6.2h2v-5.5c2.4,0.8,5.1,1.3,8.1,1.3c2.4,0,5-0.4,7.7-1.2v5.4h2
		v-6.1c2.9-1.2,5.9-3,9-5.5V39.7z"/>
</g>
</svg>
