<?xml version="1.0" encoding="utf-8"?>
<!-- Generator: Adobe Illustrator 18.0.0, SVG Export Plug-In . SVG Version: 6.00 Build 0)  -->
<!DOCTYPE svg PUBLIC "-//W3C//DTD SVG 1.1//EN" "http://www.w3.org/Graphics/SVG/1.1/DTD/svg11.dtd">
<svg version="1.1" id="Layer_1" xmlns="http://www.w3.org/2000/svg" xmlns:xlink="http://www.w3.org/1999/xlink" x="0px" y="0px"
	 viewBox="0 0 48 48" enable-background="new 0 0 48 48" xml:space="preserve">
<g>
	<path fill="#CFD0D1" d="M24,0.5c-3.5,0-6.9,0.8-10.1,2.3l1.6,3.4C18.2,4.9,21,4.3,24,4.3c10.9,0,19.7,8.9,19.7,19.7
		c0,10.9-8.9,19.7-19.7,19.7C13.1,43.7,4.3,34.9,4.3,24c0-1.6,0.2-3.3,0.6-4.9l-3.6-0.9C0.7,20.1,0.5,22,0.5,24
		C0.5,37,11,47.5,24,47.5S47.5,37,47.5,24C47.5,11,37,0.5,24,0.5z"/>
	<path fill="#F04B36" d="M6.4,11.7h1.7c1.2,0,2.1-0.1,2.8-0.2c0.5-0.1,0.9-0.3,1.4-0.6c0.5-0.3,0.8-0.7,1.1-1.3
		c0.3-0.6,0.4-1.2,0.4-2c0-1.1-0.3-1.9-0.8-2.6c-0.5-0.7-1.1-1.1-1.9-1.3C10.7,3.5,9.6,3.5,8,3.5H3.7v13.2h2.7V11.7z M6.4,5.7h1.3
		c1,0,1.6,0,1.9,0.1c0.4,0.1,0.8,0.3,1.1,0.6c0.3,0.3,0.4,0.7,0.4,1.2c0,0.4-0.1,0.7-0.3,1c-0.2,0.3-0.5,0.5-0.8,0.6
		C9.6,9.4,8.9,9.5,7.8,9.5H6.4V5.7z"/>
	<rect x="11.3" y="32.6" fill="#06728D" width="1.9" height="4.6"/>
	<rect x="34.9" y="32.6" fill="#06728D" width="1.9" height="4.6"/>
	<path fill="#4DA0D8" d="M39.5,19.9h-2L33.8,9.4H14.2l-3.6,10.5h-2l-1,11.8h33L39.5,19.9z M16.2,12.2h15.6l2.5,7.3H13.7L16.2,12.2z
		 M15,28.1c-1.3,0-2.3-1-2.3-2.3c0-1.3,1-2.3,2.3-2.3c1.3,0,2.3,1,2.3,2.3C17.2,27.1,16.2,28.1,15,28.1z M33,28.1
		c-1.3,0-2.3-1-2.3-2.3c0-1.3,1-2.3,2.3-2.3c1.3,0,2.3,1,2.3,2.3C35.3,27.1,34.3,28.1,33,28.1z"/>
</g>
</svg>
