<?xml version="1.0" encoding="utf-8"?>
<!-- Generator: Adobe Illustrator 18.0.0, SVG Export Plug-In . SVG Version: 6.00 Build 0)  -->
<!DOCTYPE svg PUBLIC "-//W3C//DTD SVG 1.1//EN" "http://www.w3.org/Graphics/SVG/1.1/DTD/svg11.dtd">
<svg version="1.1" id="Layer_1" xmlns="http://www.w3.org/2000/svg" xmlns:xlink="http://www.w3.org/1999/xlink" x="0px" y="0px"
	 viewBox="0 0 48 48" enable-background="new 0 0 48 48" xml:space="preserve">
<g>
	<path fill="#06728D" d="M21.6,27.2c-1.2,1.8-2.3,3.5-3.3,5.2c-0.1,3.9-0.4,7.6-0.9,11.1L45.1,3.2C40.6,4.3,30.8,13.3,21.6,27.2z"/>
	<path fill="#0DB89A" d="M8.3,0.5c-3.7,0-7.8,12-7.8,29.3c0,6.4,0.6,12.5,1.7,17.7h12.3c0.1-0.7,0.3-1.4,0.4-2.1
		c0.7-4.1,1.2-8.7,1.3-13.5l0,0c0,0,0,0,0-0.1c0-0.7,0-1.3,0-2C16.1,12.5,12,0.5,8.3,0.5z"/>
	<path fill="#06728D" d="M35.8,31.7C44.8,18.1,48.4,7.5,47.3,4.1c0-0.1-0.1-0.2-0.1-0.2L18.5,45.6l4.9,1.7
		C27.6,43,31.8,37.6,35.8,31.7z"/>
</g>
</svg>
