<?xml version="1.0" encoding="utf-8"?>
<!-- Generator: Adobe Illustrator 18.0.0, SVG Export Plug-In . SVG Version: 6.00 Build 0)  -->
<!DOCTYPE svg PUBLIC "-//W3C//DTD SVG 1.1//EN" "http://www.w3.org/Graphics/SVG/1.1/DTD/svg11.dtd">
<svg version="1.1" id="Layer_1" xmlns="http://www.w3.org/2000/svg" xmlns:xlink="http://www.w3.org/1999/xlink" x="0px" y="0px"
	 viewBox="0 0 48 48" enable-background="new 0 0 48 48" xml:space="preserve">
<g>
	<polygon fill="#06728D" points="30.2,47.5 28.2,47.5 28.2,39.5 22.5,32.2 24.1,31 30.2,38.9 	"/>
	<rect x="31.3" y="31.2" transform="matrix(0.746 0.6659 -0.6659 0.746 32.0253 -12.3958)" fill="#06728D" width="2" height="9.2"/>
	<path fill="#E77528" d="M47.5,16.3c0-3.5-2.8-6.3-6.3-6.3c0,0,0,0,0,0c-0.5-2.5-2.7-4.4-5.3-4.4c-0.2,0-0.4,0-0.6,0
		c-0.1-2.9-2.5-5.1-5.4-5.1c-2.7,0-4.9,1.9-5.4,4.5c-3.2-0.4-6.1,2.1-6.3,5.2c-2.8,0.6-4.9,3.1-4.9,6c0,0.9,0.2,1.7,0.5,2.5
		c-1.7,1.2-2.8,3.2-2.8,5.3c0,3.6,3,6.6,6.6,6.6c0.5,0,1-0.1,1.6-0.2c1,1.5,2.7,2.4,4.5,2.4c0.8,0,1.6-0.2,2.4-0.5
		c1.2,1.8,3.2,2.9,5.4,2.9c2.4,0,4.6-1.4,5.7-3.5c0.8,0.3,1.6,0.4,2.4,0.4c4,0,7.3-3.3,7.3-7.3c0-1.4-0.4-2.7-1.2-3.9
		C46.8,19.7,47.5,18,47.5,16.3z"/>
	<rect x="0.5" y="41.4" fill="#4DA0D8" width="23.6" height="2"/>
	<rect x="5.2" y="43.1" fill="#4DA0D8" width="2" height="4.4"/>
	<rect x="17.4" y="43.1" fill="#4DA0D8" width="2" height="4.4"/>
</g>
</svg>
