<?xml version="1.0" encoding="utf-8"?>
<!-- Generator: Adobe Illustrator 18.0.0, SVG Export Plug-In . SVG Version: 6.00 Build 0)  -->
<!DOCTYPE svg PUBLIC "-//W3C//DTD SVG 1.1//EN" "http://www.w3.org/Graphics/SVG/1.1/DTD/svg11.dtd">
<svg version="1.1" id="Layer_1" xmlns="http://www.w3.org/2000/svg" xmlns:xlink="http://www.w3.org/1999/xlink" x="0px" y="0px"
	 viewBox="0 0 48 48" enable-background="new 0 0 48 48" xml:space="preserve">
<g>
	<rect x="35.6" y="37.7" fill="#E77528" width="2" height="8.8"/>
	<rect x="31.9" y="45.5" fill="#E77528" width="9.4" height="2"/>
	<path fill="#F04B36" d="M38.4,38.9h-3.5c-4.8,0-8.6-3.9-8.6-8.6v-9.5H47v9.5C47,35,43.1,38.9,38.4,38.9z"/>
	<path fill="#F7A93B" d="M9.7,20.2H1V21c0,1.3,0.6,7.1,1.6,12.9h7.1V20.2z"/>
	<path fill="#294E58" d="M14.4,12.2h-1V0.5H7.9v11.7h-1c-3.3,0-5.9,2.2-5.9,4.9v1.1h10.7v17.7H2.9c1,5.6,2.4,10.6,4,10.6h7.5
		c3.3,0,5.9-22.8,5.9-25.5v-3.9C20.3,14.4,17.7,12.2,14.4,12.2z"/>
</g>
</svg>
