<?xml version="1.0" encoding="utf-8"?>
<!-- Generator: Adobe Illustrator 18.0.0, SVG Export Plug-In . SVG Version: 6.00 Build 0)  -->
<!DOCTYPE svg PUBLIC "-//W3C//DTD SVG 1.1//EN" "http://www.w3.org/Graphics/SVG/1.1/DTD/svg11.dtd">
<svg version="1.1" id="Layer_1" xmlns="http://www.w3.org/2000/svg" xmlns:xlink="http://www.w3.org/1999/xlink" x="0px" y="0px"
	 viewBox="0 0 48 48" enable-background="new 0 0 48 48" xml:space="preserve">
<g>
	<path fill="#F04B36" d="M39.4,37.7c-0.4,0-0.7,0-1.1-0.1c-1.2-0.2-2.2-0.8-3.1-1.6l1.4-1.4c0.6,0.6,1.3,0.9,2.1,1.1
		c2.7,0.5,5.5-1.8,6.2-5.2l0.4-2c0.4-1.8,0.1-3.6-0.8-5c-0.7-1-1.6-1.7-2.8-1.9c-0.6-0.1-1.3-0.1-2,0.1l-0.6-1.9
		c1-0.3,1.9-0.3,2.9-0.2c1.6,0.3,3.1,1.3,4.1,2.7c1.2,1.8,1.6,4.2,1.1,6.5l-0.4,2C46,34.8,42.8,37.7,39.4,37.7z"/>
	<path fill="#4DA0D8" d="M40.8,26.7c0-3.1-0.8-6-2.2-8.5H12.3c-1.4,2.5-2.2,5.4-2.2,8.5c0,0.7,0.1,1.4,0.1,2c0,0-2.6,0.5-3.4-2.8
		c-1.1-4.3-2.4-5.5-2.4-5.5l-3.7,1.7c0,0-0.2,0.2-0.1,0.3c0.5,0.7,2.1,3.2,2.8,8.5c1.2,8.6,10.3,9.4,13.4,9.4
		c0.9,0.7,2.5,1.7,2.5,1.7v1.7h12.5V42C31.7,42,40.8,33.6,40.8,26.7z"/>
	<path fill="#0DB89A" d="M27.4,8.1c0.3-0.4,0.4-0.8,0.4-1.3c0-1.3-1.1-2.4-2.4-2.4c-1.3,0-2.4,1.1-2.4,2.4c0,0.5,0.2,1,0.4,1.3
		c-3.9,0.6-7.2,2.8-9.2,6h22.3C34.6,10.9,31.3,8.7,27.4,8.1z"/>
</g>
</svg>
