<?xml version="1.0" encoding="utf-8"?>
<!-- Generator: Adobe Illustrator 18.0.0, SVG Export Plug-In . SVG Version: 6.00 Build 0)  -->
<!DOCTYPE svg PUBLIC "-//W3C//DTD SVG 1.1//EN" "http://www.w3.org/Graphics/SVG/1.1/DTD/svg11.dtd">
<svg version="1.1" id="Layer_1" xmlns="http://www.w3.org/2000/svg" xmlns:xlink="http://www.w3.org/1999/xlink" x="0px" y="0px"
	 viewBox="0 0 48 48" enable-background="new 0 0 48 48" xml:space="preserve">
<g>
	<polygon fill="#F04B36" points="9,12.8 0.5,12.8 0.5,0.5 11.9,0.5 40.2,33.4 47.5,33.4 47.5,47.5 38.3,47.5 	"/>
	<polygon fill="#F7A93B" points="8.1,14.7 35.8,47.5 0.5,47.5 0.5,14.7 	"/>
	<path fill="#4DA0D8" d="M28.2,4.4l-2.1,2.1c14.7,14.8,14.9,14.9,15,15l1.8-2.3l-0.9,1.2l1-1.1C42.6,18.8,33.9,10.1,28.2,4.4z"/>
	<polygon fill="#4DA0D8" points="32.6,3 24.7,3 24.7,10.9 27.6,10.9 27.6,5.9 32.6,5.9 	"/>
</g>
</svg>
