<?xml version="1.0" encoding="utf-8"?>
<!-- Generator: Adobe Illustrator 18.0.0, SVG Export Plug-In . SVG Version: 6.00 Build 0)  -->
<!DOCTYPE svg PUBLIC "-//W3C//DTD SVG 1.1//EN" "http://www.w3.org/Graphics/SVG/1.1/DTD/svg11.dtd">
<svg version="1.1" id="Layer_1" xmlns="http://www.w3.org/2000/svg" xmlns:xlink="http://www.w3.org/1999/xlink" x="0px" y="0px"
	 viewBox="0 0 48 48" enable-background="new 0 0 48 48" xml:space="preserve">
<g>
	<polygon fill="#E77528" points="39,12.8 47.5,12.8 47.5,0.5 36.1,0.5 7.8,33.4 0.5,33.4 0.5,47.5 9.7,47.5 	"/>
	<polygon fill="#06728D" points="39.9,14.7 12.2,47.5 47.5,47.5 47.5,14.7 	"/>
	<path fill="#0DB89A" d="M8.5,20.1L6.4,18C21.1,3.2,21.3,3.1,21.4,3l1.8,2.3l-0.9-1.2l1,1.1C22.8,5.7,14.2,14.3,8.5,20.1z"/>
	<polygon fill="#0DB89A" points="12.8,21.5 5,21.5 5,13.6 7.9,13.6 7.9,18.6 12.8,18.6 	"/>
</g>
</svg>
