<?xml version="1.0" encoding="utf-8"?>
<!-- Generator: Adobe Illustrator 18.0.0, SVG Export Plug-In . SVG Version: 6.00 Build 0)  -->
<!DOCTYPE svg PUBLIC "-//W3C//DTD SVG 1.1//EN" "http://www.w3.org/Graphics/SVG/1.1/DTD/svg11.dtd">
<svg version="1.1" id="Layer_1" xmlns="http://www.w3.org/2000/svg" xmlns:xlink="http://www.w3.org/1999/xlink" x="0px" y="0px"
	 viewBox="0 0 48 48" enable-background="new 0 0 48 48" xml:space="preserve">
<g>
	
		<rect x="26.5" y="1.4" transform="matrix(0.1362 0.9907 -0.9907 0.1362 26.9654 -25.9805)" fill="#0DB89A" width="3.7" height="2.1"/>
	
		<rect x="44.5" y="13.8" transform="matrix(0.1363 0.9907 -0.9907 0.1363 54.7984 -31.6381)" fill="#0DB89A" width="2.1" height="3.7"/>
	
		<rect x="38.6" y="3.6" transform="matrix(0.7996 0.6005 -0.6005 0.7996 11.2231 -22.7145)" fill="#0DB89A" width="2.1" height="3.7"/>
	
		<rect x="40.8" y="25.9" transform="matrix(0.7941 0.6078 -0.6078 0.7941 25.1666 -20.3451)" fill="#0DB89A" width="3.7" height="2.1"/>
	<rect x="16.5" y="7.4" transform="matrix(0.7942 0.6077 -0.6077 0.7942 8.874 -9.4152)" fill="#0DB89A" width="3.7" height="2.1"/>
	<path fill="#06728D" d="M0.5,39.4c0,4.5,3.6,8.1,8,8.1h20.9c4.4,0,8-3.6,8-8.1c0-4.4-3.6-8.1-8-8.1l-1.1,0l0-1.2
		c0-5.3-4.3-9.7-9.5-9.7c-5.3,0-9.5,4.3-9.5,9.6l0,1.2l-1,0C4,31.4,0.5,35,0.5,39.4z"/>
	<path fill="#F04B36" d="M20.8,18.5c4.7,0.8,8.4,4.4,9.4,9c0.5,0,1.1,0,1.6-0.1c5.3-0.7,9-5.7,8.3-11.1c-0.7-5.4-5.7-9.1-11-8.4
		C24,8.7,20.3,13.3,20.8,18.5z"/>
</g>
</svg>
