<?xml version="1.0" encoding="utf-8"?>
<!-- Generator: Adobe Illustrator 18.0.0, SVG Export Plug-In . SVG Version: 6.00 Build 0)  -->
<!DOCTYPE svg PUBLIC "-//W3C//DTD SVG 1.1//EN" "http://www.w3.org/Graphics/SVG/1.1/DTD/svg11.dtd">
<svg version="1.1" id="Layer_1" xmlns="http://www.w3.org/2000/svg" xmlns:xlink="http://www.w3.org/1999/xlink" x="0px" y="0px"
	 viewBox="0 0 48 48" enable-background="new 0 0 48 48" xml:space="preserve">
<g>
	<path fill="#F04B36" d="M25.2,12.2c-0.6,0-1-0.5-1-1V8.4c0-0.6,0.5-1,1-1s1,0.5,1,1v2.8C26.2,11.8,25.8,12.2,25.2,12.2z"/>
	<path fill="#0DB89A" d="M3.3,21.2c0.1-0.9,0.5-1.6,1.3-2.2c0.9-0.6,2.1-0.7,3.2-0.4l4.9,1.7c0.2-0.2,0.4-0.4,0.7-0.6
		c0.3-0.3,0.6-0.6,0.9-0.8c0.1-0.3,0.2-0.5,0.3-0.8l-5.9-2c-1.9-0.6-3.9-0.4-5.6,0.7c-1.5,1-2.4,2.5-2.6,4.3
		C0,29.1,2.9,35.1,8.8,38.1v-3.2C3.8,31.6,3,25.7,3.3,21.2z"/>
	<path fill="#F7A93B" d="M26.2,16.8h-2c-7.6,0-13.8,6.2-13.8,13.8V37c0,2,1.6,3.7,3.7,3.7h22.3c2,0,3.7-1.6,3.7-3.7v-1.4l0,0l0-0.1
		v-4.9C39.9,23,33.8,16.8,26.2,16.8z"/>
	<path fill="#E77528" d="M47.5,20.4l-1.8-2L40,22.9c1.3,2.3,2,4.9,2,7.7v0.8L47.5,20.4z"/>
	<path fill="#F04B36" d="M26.2,14.7c2.6,0,5.1,0.7,7.3,1.8c-1.1-2.5-4.4-4.3-8.3-4.3c-3.9,0-7.2,1.8-8.3,4.3
		c2.2-1.1,4.7-1.8,7.3-1.8H26.2z"/>
</g>
</svg>
