<?xml version="1.0" encoding="utf-8"?>
<!-- Generator: Adobe Illustrator 18.0.0, SVG Export Plug-In . SVG Version: 6.00 Build 0)  -->
<!DOCTYPE svg PUBLIC "-//W3C//DTD SVG 1.1//EN" "http://www.w3.org/Graphics/SVG/1.1/DTD/svg11.dtd">
<svg version="1.1" id="Layer_1" xmlns="http://www.w3.org/2000/svg" xmlns:xlink="http://www.w3.org/1999/xlink" x="0px" y="0px"
	 viewBox="0 0 48 48" enable-background="new 0 0 48 48" xml:space="preserve">
<g>
	<polygon fill="#F7A93B" points="41.8,45.6 22.9,45.6 16.5,36.1 47.5,36.1 	"/>
	<polygon fill="#F04B36" points="10.6,24.1 8.6,23.1 17.2,2.4 24.9,6.7 23.9,8.9 18.2,5.8 	"/>
	<circle fill="#F04B36" cx="30.5" cy="32.6" r="3.6"/>
	<path fill="#F04B36" d="M32,30.7l-2.3-0.2c0-0.4,1-10.4,6.9-14.1l1.2,1.9C32.9,21.4,32,30.6,32,30.7z"/>
	<polygon fill="#06728D" points="1.7,24.8 4,45.6 14.2,45.6 16.5,24.8 	"/>
	<polygon fill="#0DB89A" points="12.6,22.3 16.8,22.3 17.7,13.8 16.1,13.8 	"/>
	<polygon fill="#0DB89A" points="11.2,13.8 0.5,13.8 1.4,22.3 7.6,22.3 	"/>
</g>
</svg>
