<?xml version="1.0" encoding="utf-8"?>
<!-- Generator: Adobe Illustrator 18.0.0, SVG Export Plug-In . SVG Version: 6.00 Build 0)  -->
<!DOCTYPE svg PUBLIC "-//W3C//DTD SVG 1.1//EN" "http://www.w3.org/Graphics/SVG/1.1/DTD/svg11.dtd">
<svg version="1.1" id="Layer_1" xmlns="http://www.w3.org/2000/svg" xmlns:xlink="http://www.w3.org/1999/xlink" x="0px" y="0px"
	 viewBox="0 0 48 48" enable-background="new 0 0 48 48" xml:space="preserve">
<g>
	<path fill="#0DB89A" d="M45.5,42.6c-1.8,0-3.3-0.7-4.3-1.7c-1,1-2.5,1.7-4.3,1.7c-1.8,0-3.3-0.7-4.3-1.7c-1,1-2.5,1.7-4.3,1.7
		c-1.8,0-3.3-0.7-4.3-1.7c-1,1-2.5,1.7-4.3,1.7s-3.3-0.7-4.3-1.7c-1,1-2.5,1.7-4.3,1.7c-1.8,0-3.3-0.7-4.3-1.7c-1,1-2.5,1.7-4.3,1.7
		c-0.7,0-1.4-0.1-2.1-0.3v5.3h47v-5.2C46.9,42.5,46.2,42.6,45.5,42.6z"/>
	<path fill="#4DA0D8" d="M39.5,22.8c-1.2,0-2.3-0.5-3.1-1.2c-0.8,0.8-1.9,1.2-3.1,1.2c-1.2,0-2.3-0.5-3.1-1.2
		c-0.8,0.8-1.9,1.2-3.1,1.2c-1.2,0-2.3-0.5-3.1-1.2c-0.8,0.8-1.9,1.2-3.1,1.2c-1.2,0-2.3-0.5-3.1-1.2c-0.8,0.8-1.9,1.2-3.1,1.2
		c-1.2,0-2.3-0.5-3.1-1.2c-0.8,0.8-1.9,1.2-3.1,1.2c-0.5,0-0.9-0.1-1.3-0.2v4.1h33.6v-4.1C40.4,22.7,40,22.8,39.5,22.8z"/>
	<path fill="#F04B36" d="M36,11.8h-6.8V0.5h-2v11.3h-6.3V0.5h-2v11.3H12c-2.7,0-4.8,2.2-4.8,4.8V20c0.3,0.3,0.8,0.4,1.3,0.4
		c1.1,0,2-0.7,2-1.5h2.3c0,0.9,0.9,1.5,2,1.5c1.1,0,2-0.7,2-1.5H19c0,0.9,0.9,1.5,2,1.5c1.1,0,2-0.7,2-1.5h2.3c0,0.9,0.9,1.5,2,1.5
		s2-0.7,2-1.5h2.3c0,0.9,0.9,1.5,2,1.5s2-0.7,2-1.5h2.3c0,0.9,0.9,1.5,2,1.5c0.5,0,0.9-0.1,1.3-0.4v-3.5
		C40.8,13.9,38.6,11.8,36,11.8z M14,16.9h-2v-2.4h2V16.9z M19.5,16.9h-2v-2.4h2V16.9z M25.1,16.9h-2v-2.4h2V16.9z M30.6,16.9h-2
		v-2.4h2V16.9z M36.1,16.9h-2v-2.4h2V16.9z"/>
	<path fill="#E77528" d="M42.7,29.4H5.3c-2.7,0-4.8,1.9-4.8,4.2v6.7c0.6,0.3,1.3,0.5,2.1,0.5c1.8,0,3.3-1.1,3.3-2.4h2
		c0,1.3,1.5,2.4,3.3,2.4c1.8,0,3.3-1.1,3.3-2.4h2c0,1.3,1.5,2.4,3.3,2.4c1.8,0,3.3-1.1,3.3-2.4h2c0,1.3,1.5,2.4,3.3,2.4
		c1.8,0,3.3-1.1,3.3-2.4h2c0,1.3,1.5,2.4,3.3,2.4c1.8,0,3.3-1.1,3.3-2.4h2c0,1.3,1.5,2.4,3.3,2.4c0.8,0,1.4-0.2,2-0.5v-6.7
		C47.5,31.2,45.3,29.4,42.7,29.4z M9.4,34.6h-2v-2.9h2V34.6z M17.2,34.6h-2v-2.9h2V34.6z M25.1,34.6h-2v-2.9h2V34.6z M32.9,34.6h-2
		v-2.9h2V34.6z M40.7,34.6h-2v-2.9h2V34.6z"/>
</g>
</svg>
