<?xml version="1.0" encoding="utf-8"?>
<!-- Generator: Adobe Illustrator 18.0.0, SVG Export Plug-In . SVG Version: 6.00 Build 0)  -->
<!DOCTYPE svg PUBLIC "-//W3C//DTD SVG 1.1//EN" "http://www.w3.org/Graphics/SVG/1.1/DTD/svg11.dtd">
<svg version="1.1" id="Layer_1" xmlns="http://www.w3.org/2000/svg" xmlns:xlink="http://www.w3.org/1999/xlink" x="0px" y="0px"
	 viewBox="0 0 48 48" enable-background="new 0 0 48 48" xml:space="preserve">
<g>
	<path fill="#E77528" d="M39.2,31.3l-7.9-13.5l1-2.4h2.1c0.6,0,1-0.4,1-1c0-0.6-0.4-1-1-1h-5.6c-0.6,0-1,0.4-1,1c0,0.6,0.4,1,1,1
		h1.4l-0.6,1.5H15.4c0.1-1.1,0.2-2.3,0.3-3.6c0.9,0.5,1.8,0.6,2.6,0.6c0.3,0,0.6,0,0.8-0.1c0.5-0.1,0.9-0.6,0.9-1.1
		c-0.1-0.5-0.6-0.9-1.1-0.9c0,0-2.5,0.3-3-1.3c-0.1-0.2-0.1-0.6,0-0.7c0.2-0.2,0.8-0.4,1.1-0.4c0,0,0,0,0,0c0.5,0,1-0.4,1-1
		c0-0.6-0.4-1-1-1c-0.2,0-1.9,0-2.7,1.2c-0.3,0.4-0.6,1.1-0.4,2.2c0,0.1-0.1,0.2-0.1,0.2c-0.5,14.8-5,20.2-5.1,20.3
		c-0.4,0.4-0.3,1,0.1,1.4C9.1,32.9,9.3,33,9.5,33c0.3,0,0.6-0.1,0.8-0.3c0.2-0.2,3.2-3.7,4.7-12.8l8.2,12c-0.1,0.4,0.2,0.9,0.6,1
		C23.9,33,24,33,24.1,33c0.1,0,0.1,0,0.1,0c0.1,0,0.1,0,0.2,0h14c0,0,0,0,0,0c0.6,0,1-0.4,1-1C39.5,31.7,39.4,31.5,39.2,31.3z
		 M28.7,18.9l-4.6,10.8l-7.3-10.8H28.7z M25.7,31l4.7-10.9L36.7,31H25.7z"/>
	<path fill="#06728D" d="M14.8,25.3c-1.6,5.4-3.5,7.7-3.8,8c-0.4,0.4-0.9,0.7-1.5,0.7c-0.5,0-1-0.2-1.3-0.5
		c-0.4-0.4-0.6-0.8-0.7-1.4c0-0.5,0.1-1,0.5-1.4c0,0,1.7-2.1,3.1-7.1c-0.5-0.1-1-0.1-1.6-0.1C4.8,23.5,1,27.3,1,32
		c0,4.7,3.8,8.5,8.5,8.5s8.5-3.8,8.5-8.5C18.1,29.3,16.8,26.8,14.8,25.3z"/>
	<path fill="#06728D" d="M30.2,30H35l-2.4-4.2C31.4,27,30.6,28.4,30.2,30z"/>
	<path fill="#06728D" d="M38.5,23.5c-0.9,0-1.7,0.1-2.4,0.4l4,6.9c0.3,0.3,0.4,0.8,0.4,1.2c0,1.1-0.8,1.9-1.9,2l-0.1,0h-8.3
		c0.9,3.7,4.3,6.5,8.3,6.5c4.7,0,8.5-3.8,8.5-8.5C47,27.3,43.2,23.5,38.5,23.5z"/>
</g>
</svg>
