<?xml version="1.0" encoding="utf-8"?>
<!-- Generator: Adobe Illustrator 18.0.0, SVG Export Plug-In . SVG Version: 6.00 Build 0)  -->
<!DOCTYPE svg PUBLIC "-//W3C//DTD SVG 1.1//EN" "http://www.w3.org/Graphics/SVG/1.1/DTD/svg11.dtd">
<svg version="1.1" id="Layer_1" xmlns="http://www.w3.org/2000/svg" xmlns:xlink="http://www.w3.org/1999/xlink" x="0px" y="0px"
	 viewBox="0 0 48 48" enable-background="new 0 0 48 48" xml:space="preserve">
<g>
	<path fill="#294E58" d="M37.6,13.5C37.1,12.6,36.1,12,35,12h-6v6.8h12.7C39.7,17,38.3,14.9,37.6,13.5z"/>
	<path fill="#294E58" d="M27,12h-5.7c-1.2,0-2.3,0.8-2.8,1.9l-1.6,4.5c0,0.1-0.1,0.2-0.2,0.4H27V12z"/>
	<path fill="#F04B36" d="M11.1,26.2c-2.7,0-4.9,2.2-4.9,4.9c0,2.7,2.2,4.9,4.9,4.9c2.7,0,4.9-2.2,4.9-4.9
		C15.9,28.4,13.7,26.2,11.1,26.2z"/>
	<path fill="#F04B36" d="M37.7,26.2c-2.7,0-4.9,2.2-4.9,4.9c0,2.7,2.2,4.9,4.9,4.9c2.7,0,4.9-2.2,4.9-4.9
		C42.6,28.4,40.4,26.2,37.7,26.2z"/>
	<path fill="#06728D" d="M45.8,21.8c-0.5-0.3-1-0.6-1.5-0.9H13l-10.1,3c-1,0.3-1.8,1.1-2,2.2l-0.3,1.1c-0.4,1.8,1,3.6,2.9,3.6h0.7
		c0.2-3.7,3.2-6.6,6.9-6.6c3.7,0,6.7,2.9,6.9,6.6h12.8c0.2-3.7,3.2-6.6,6.9-6.6c3.7,0,6.7,2.9,6.9,6.5c2-0.3,2.9-1.4,2.9-2.8v-3.4
		C47.5,23.3,46.8,22.3,45.8,21.8z"/>
</g>
</svg>
