<?xml version="1.0" encoding="utf-8"?>
<!-- Generator: Adobe Illustrator 18.0.0, SVG Export Plug-In . SVG Version: 6.00 Build 0)  -->
<!DOCTYPE svg PUBLIC "-//W3C//DTD SVG 1.1//EN" "http://www.w3.org/Graphics/SVG/1.1/DTD/svg11.dtd">
<svg version="1.1" id="Layer_1" xmlns="http://www.w3.org/2000/svg" xmlns:xlink="http://www.w3.org/1999/xlink" x="0px" y="0px"
	 viewBox="0 0 48 48" enable-background="new 0 0 48 48" xml:space="preserve">
<g>
	<path fill="#F7A93B" d="M30.2,32.2c-4.1,0-6.2,0-7.7,0c-1,0-1.9,1.4-0.4,1.9c0,0,6.4,1.4,6.8,2.1c0.4,0.7-6.2,0.6-8.4,0.4
		c-2.2-0.2-9.7-3.4-9.7-3.4s-1.5-0.8-2.4,0.3c-0.6,0.8,0.4,1.7,0.4,1.7l11.8,6.9h15.1l1.3,1.6h0.5l1.5-9.2
		C39.2,34.5,34.2,32.3,30.2,32.2"/>
	<polygon fill="#06728D" points="40.6,33.6 38.7,45.6 47.5,47.5 47.5,34.6 	"/>
	<polygon fill="#CFD0D1" points="36.7,29 36.7,27.8 39.6,27.8 39.6,25.9 43.1,25.9 43.1,22.6 0.5,22.6 0.5,25.9 4,25.9 4,27.8 
		6.9,27.8 6.9,29 	"/>
	<path fill="#0DB89A" d="M25.4,4.4c-0.4-2.2-1.9-3.9-3.8-3.9c-1.9,0-3.5,1.7-3.8,3.9C9.5,6,3.3,12.6,3.3,20.6H40
		C40,12.6,33.8,6,25.4,4.4z"/>
</g>
</svg>
