<?xml version="1.0" encoding="utf-8"?>
<!-- Generator: Adobe Illustrator 18.0.0, SVG Export Plug-In . SVG Version: 6.00 Build 0)  -->
<!DOCTYPE svg PUBLIC "-//W3C//DTD SVG 1.1//EN" "http://www.w3.org/Graphics/SVG/1.1/DTD/svg11.dtd">
<svg version="1.1" id="Layer_1" xmlns="http://www.w3.org/2000/svg" xmlns:xlink="http://www.w3.org/1999/xlink" x="0px" y="0px"
	 viewBox="0 0 48 48" enable-background="new 0 0 48 48" xml:space="preserve">
<g>
	<path fill="#E8E9E5" d="M31.5,3.8c-1.4,0-2.7,0.5-3.7,1.3c-0.1-2.5-2.2-4.5-4.8-4.5c-2,0-3.7,1.3-4.5,3c-1-1.5-2.8-2.4-4.7-2.4
		C10.6,1.1,8,3.7,8,6.9c0,0.6,0.1,1.2,0.3,1.7C7.5,9.4,7,10.4,7,11.6c0,0.9,0.3,1.7,0.7,2.4c0.2-0.3,0.4-0.7,0.6-1
		c0.8-0.9,2-1.4,3.2-1.4h19.5c1.2,0,2.4,0.5,3.2,1.4c0.4,0.4,0.7,1,0.9,1.5c1.4-1.1,2.3-2.8,2.3-4.8C37.5,6.5,34.8,3.8,31.5,3.8z"/>
	<path fill="#294E58" d="M37,20L36.3,20c-1.3-0.1-2.5,0.4-3.4,1.2l0.5-5c0.1-1.4-0.9-2.5-2.3-2.5H11.6c-1.4,0-2.4,1.1-2.3,2.5
		L12.2,45c0.1,1.4,1.4,2.5,2.8,2.5h12.7c1.4,0,2.6-1.1,2.8-2.5l0.9-9.1c0.7,1.1,1.9,1.8,3.2,2l0.7,0.1c0.1,0,0.3,0,0.4,0
		c2.2,0,4.2-1.8,4.4-4l0.8-9.1C41.2,22.4,39.4,20.3,37,20z M17.3,30.3c-1.1,0-1.9-0.9-1.9-1.9c0-1.1,0.9-1.9,1.9-1.9
		c1.1,0,1.9,0.9,1.9,1.9C19.2,29.4,18.4,30.3,17.3,30.3z M22.7,40.7c-1.4,0-2.5-1.1-2.5-2.5c0-1.4,1.1-2.5,2.5-2.5
		c1.4,0,2.5,1.1,2.5,2.5C25.2,39.6,24.1,40.7,22.7,40.7z M25.7,25.1c-1.4,0-2.5-1.1-2.5-2.5c0-1.4,1.1-2.5,2.5-2.5
		c1.4,0,2.5,1.1,2.5,2.5C28.2,24,27.1,25.1,25.7,25.1z M38.1,33.7C38,35,36.9,36,35.6,35.8l-0.7-0.1c-1.3-0.1-2.2-1.3-2.1-2.5
		l0.8-9.1c0.1-1.2,1.1-2.1,2.3-2.1c0.1,0,0.1,0,0.2,0l0.7,0.1c1.3,0.1,2.2,1.3,2.1,2.5L38.1,33.7z"/>
</g>
</svg>
