<?xml version="1.0" encoding="utf-8"?>
<!-- Generator: Adobe Illustrator 18.0.0, SVG Export Plug-In . SVG Version: 6.00 Build 0)  -->
<!DOCTYPE svg PUBLIC "-//W3C//DTD SVG 1.1//EN" "http://www.w3.org/Graphics/SVG/1.1/DTD/svg11.dtd">
<svg version="1.1" id="Layer_1" xmlns="http://www.w3.org/2000/svg" xmlns:xlink="http://www.w3.org/1999/xlink" x="0px" y="0px"
	 viewBox="0 0 48 48" enable-background="new 0 0 48 48" xml:space="preserve">
<g>
	<path fill="#4DA0D8" d="M5,18.2c0.6,0,1-0.4,1-1v-7c0-0.6-0.4-1-1-1c-0.6,0-1,0.4-1,1v7C4,17.7,4.5,18.2,5,18.2z"/>
	<path fill="#4DA0D8" d="M8.5,9.1c-0.6,0-1,0.4-1,1v7c0,1.4-1.1,2.5-2.5,2.5c-1.4,0-2.5-1.1-2.5-2.5v-7c0-0.6-0.4-1-1-1
		c-0.6,0-1,0.4-1,1v7c0,2.1,1.5,3.9,3.5,4.4v16.3c0,0.6,0.4,1,1,1c0.6,0,1-0.4,1-1V21.6c2-0.5,3.5-2.2,3.5-4.4v-7
		C9.5,9.6,9.1,9.1,8.5,9.1z"/>
	<path fill="#F7A93B" d="M25.1,16.8c-4,0-7.2,3.2-7.2,7.2c0,4,3.2,7.2,7.2,7.2c4,0,7.2-3.2,7.2-7.2C32.3,20,29,16.8,25.1,16.8z"/>
	<path fill="#FFD69A" d="M25.1,10.1c-7.7,0-13.9,6.2-13.9,13.9c0,7.7,6.2,13.9,13.9,13.9S38.9,31.7,38.9,24
		C38.9,16.3,32.7,10.1,25.1,10.1z M25.1,33.2c-5.1,0-9.2-4.1-9.2-9.2c0-5.1,4.1-9.2,9.2-9.2c5.1,0,9.2,4.1,9.2,9.2
		C34.3,29.1,30.1,33.2,25.1,33.2z"/>
	<path fill="#CFD0D1" d="M47.5,10.1v27.7h-3.4l0.8-8.2c0,0-2.8-0.1-2-3.3C43.7,23.2,44.1,11.2,47.5,10.1z"/>
</g>
</svg>
