<?xml version="1.0" encoding="utf-8"?>
<!-- Generator: Adobe Illustrator 18.0.0, SVG Export Plug-In . SVG Version: 6.00 Build 0)  -->
<!DOCTYPE svg PUBLIC "-//W3C//DTD SVG 1.1//EN" "http://www.w3.org/Graphics/SVG/1.1/DTD/svg11.dtd">
<svg version="1.1" id="Layer_1" xmlns="http://www.w3.org/2000/svg" xmlns:xlink="http://www.w3.org/1999/xlink" x="0px" y="0px"
	 viewBox="0 0 48 48" enable-background="new 0 0 48 48" xml:space="preserve">
<g>
	<path fill="#F7A93B" d="M34.4,8.1v-6c0-0.2,0.1-0.4,0.2-0.5c-2,0.2-3.8,1-5.2,2.3c0.2,0,0.5,0.1,0.6,0.3L34.4,8.1z"/>
	<path fill="#F7A93B" d="M36.4,8.1l4.4-4.2c0.2-0.1,0.3-0.2,0.5-0.2c-1.4-1.2-3.2-2-5.2-2.2c0.1,0.2,0.2,0.3,0.2,0.5V8.1z"/>
	<path fill="#F7A93B" d="M43.9,11.4H38l4.5,4.2c0.1,0.1,0.1,0.2,0.2,0.3c1-1.3,1.6-2.9,1.7-4.6C44.3,11.3,44.1,11.4,43.9,11.4z"/>
	<path fill="#F7A93B" d="M43.9,9.4c0.2,0,0.4,0.1,0.5,0.2c-0.2-1.8-0.9-3.4-2-4.7c0,0.2-0.1,0.4-0.3,0.5l-4.3,4H43.9z"/>
	<path fill="none" d="M5.6,11.8c0,0.3,0,0.5,0,0.8c0,1.1,0.1,2.3,0.3,3.4c0,0,0,0,0,0c0.2,0.1,0.3,0.2,0.5,0.3
		c0.1,0.1,0.2,0.2,0.4,0.3c0.6,0.4,1.3,0.6,2,0.6l0.3,0c1.3,0,2.7-0.4,4-0.8l0.4-0.1c0.5-0.1,0.9-0.2,1.4-0.3c0.1,0,0.2,0,0.3-0.1
		c0.4-0.1,0.7-0.1,1.1-0.2c0,0,0.1,0,0.1,0l-3.7-4H5.6z"/>
	<path fill="#F7A93B" d="M28.7,5.5c-0.2-0.2-0.3-0.4-0.3-0.7c-1.1,1.4-1.9,3.1-2,5h7.1L28.7,5.5z"/>
	<path fill="#F7A93B" d="M41.2,17l-4.8-4.5c0,0,0.1,3.5-1.3,7.1c2.3,0,4.8-0.9,6.4-2.4C41.4,17.1,41.3,17.1,41.2,17z"/>
	<path fill="none" d="M5.6,11.8c0,0.3,0,0.5,0,0.8c0,1.1,0.1,2.3,0.3,3.4c0,0,0,0,0,0c0.2,0.1,0.3,0.2,0.5,0.3
		c0.1,0.1,0.2,0.2,0.4,0.3c0.6,0.4,1.3,0.6,2,0.6l0.3,0c1.3,0,2.7-0.4,4-0.8l0.4-0.1c0.5-0.1,0.9-0.2,1.4-0.3c0.1,0,0.2,0,0.3-0.1
		c0.4-0.1,0.7-0.1,1.1-0.2c0,0,0.1,0,0.1,0l-3.7-4H5.6z"/>
	<path fill="#294E58" d="M18.5,45.5h-5.9c-0.5,0-1,0.4-1,1c0,0.5,0.4,1,1,1h14.8c0.5,0,1-0.4,1-1c0-0.5-0.4-1-1-1h-5.9V30.8l-3,0
		V45.5z"/>
	<path fill="#0DB89A" d="M36.4,12.5c0-0.6,0-1.2-0.1-1.8c0-0.5-0.5-0.9-1-0.9h-1.9h-7.1H13.5l-8.2-9c-0.4-0.4-1-0.4-1.4-0.1
		s-0.4,1-0.1,1.4l7,7.7H4.6c-0.5,0-0.9,0.4-1,0.9c-0.1,0.6-0.1,1.3-0.1,1.9c0,1.4,0.2,2.8,0.5,4.3c1.7,7.7,7.5,13.2,14.4,13.9l3,0
		c6-0.6,11.3-4.9,13.7-11.2C36.4,16,36.4,12.5,36.4,12.5z M16.2,15.8c-0.4,0-0.7,0.1-1.1,0.2c-0.1,0-0.2,0-0.3,0.1
		c-0.4,0.1-0.9,0.2-1.4,0.3L13,16.5c-1.3,0.4-2.7,0.8-4,0.8l-0.3,0c-0.8,0-1.4-0.2-2-0.6c-0.1-0.1-0.2-0.2-0.4-0.3
		c-0.1-0.1-0.3-0.2-0.5-0.3c0,0,0,0,0,0c-0.2-1.2-0.3-2.3-0.3-3.4c0-0.3,0-0.5,0-0.8h7.1l3.7,4C16.3,15.8,16.2,15.8,16.2,15.8z
		 M33.8,17.1c-0.3-0.1-0.6-0.2-0.8-0.3c0,0,0,0,0,0c-0.6-0.1-1.1-0.2-1.8-0.2c-0.1,0-0.1,0-0.2,0c-0.3,0-0.7,0-1,0.1
		c-0.9,0.1-1.7,0.4-2.5,0.7c-1.5,0.5-2.8,0.9-4,0.4c-0.4-0.2-0.8-0.4-1.2-0.6c-1-0.5-2-1-3.1-1.3l-3.9-4.2h19.1c0,0.3,0,0.5,0,0.8
		C34.4,14.1,34.2,15.6,33.8,17.1z"/>
</g>
</svg>
