<?xml version="1.0" encoding="utf-8"?>
<!-- Generator: Adobe Illustrator 18.0.0, SVG Export Plug-In . SVG Version: 6.00 Build 0)  -->
<!DOCTYPE svg PUBLIC "-//W3C//DTD SVG 1.1//EN" "http://www.w3.org/Graphics/SVG/1.1/DTD/svg11.dtd">
<svg version="1.1" id="Layer_1" xmlns="http://www.w3.org/2000/svg" xmlns:xlink="http://www.w3.org/1999/xlink" x="0px" y="0px"
	 viewBox="0 0 48 48" enable-background="new 0 0 48 48" xml:space="preserve">
<g>
	<path fill="#4DA0D8" d="M33.6,0.6c-0.5-0.2-1.1,0.1-1.3,0.6L32,2l0,0c0,0,0,0,0,0c0.6,0.2,1.1,0.3,1.8,0.7l0.3-0.9
		C34.4,1.3,34.1,0.7,33.6,0.6z"/>
	<path fill="#E77528" d="M34.1,2.8l0.6,9.8l3.9,1.4c0.1,0,0.2,0.1,0.3,0.1c0.4,0,0.7-0.2,0.9-0.5c0.1-0.2,0.1-0.3,0.1-0.5
		C39.7,7.9,37.8,4.6,34.1,2.8z"/>
	<path fill="#E77528" d="M21.3,7.7l3,1.1l7.5-6.9c-4-1-7.6,0.4-10.9,4.2c-0.1,0.1-0.2,0.3-0.2,0.5C20.6,7.1,20.8,7.6,21.3,7.7z"/>
	<polygon fill="#0DB89A" points="17.1,15.7 14.4,15.7 14.5,22.6 21,22.6 	"/>
	
		<rect x="21.9" y="37.3" transform="matrix(-0.9284 -0.3716 0.3716 -0.9284 31.6235 84.979)" fill="none" width="4.3" height="4.3"/>
	<polygon fill="#E77528" points="32.7,11.8 32.2,4.2 26.3,9.6 29,10.5 30.8,11.2 	"/>
	<path fill="#0DB89A" d="M31.7,13.7h-1.7l0.9-2.5L29,10.5l-1.1,3.2h-9.6l-4.4-7.8c-0.2-0.4-0.7-0.6-1.2-0.4L8.8,6.8
		C8.3,6.9,8,7.5,8.2,8c0.2,0.5,0.7,0.8,1.3,0.6l3-1.1l3.5,6.2h-2.6c-0.3,0-0.5,0.1-0.7,0.3c-0.2,0.2-0.3,0.4-0.3,0.7l0.1,8.9
		l0.3,19.9c0,2.2,1.8,4,4,4h11.6c2.2,0,4-1.8,4-4l0.3-19.9l0.1-8.9c0-0.3-0.1-0.5-0.3-0.7C32.2,13.8,31.9,13.7,31.7,13.7z
		 M27.1,15.7l-2.5,7h-1.4l-3.9-7H27.1z M14.5,22.6l-0.1-7h2.7l3.9,7H14.5z M18.8,29.5l3.9-1.6l1.6,3.9l-3.9,1.6L18.8,29.5z
		 M25.2,42.2l-4-1.6l1.6-4l4,1.6L25.2,42.2z M30.6,22.6h-3.9l2.5-7h1.4L30.6,22.6z"/>
</g>
</svg>
