<?xml version="1.0" encoding="utf-8"?>
<!-- Generator: Adobe Illustrator 18.0.0, SVG Export Plug-In . SVG Version: 6.00 Build 0)  -->
<!DOCTYPE svg PUBLIC "-//W3C//DTD SVG 1.1//EN" "http://www.w3.org/Graphics/SVG/1.1/DTD/svg11.dtd">
<svg version="1.1" id="Layer_1" xmlns="http://www.w3.org/2000/svg" xmlns:xlink="http://www.w3.org/1999/xlink" x="0px" y="0px"
	 viewBox="0 0 48 48" enable-background="new 0 0 48 48" xml:space="preserve">
<g>
	<polygon fill="#F04B36" points="0.5,36.5 8.9,43.4 39.1,43.4 47.5,36.5 	"/>
	<path fill="#F7A93B" d="M26.8,25.8c3,4.9,10.2,1.7,11.7-2.9c1.4-4.4,0-9.4,1.4-11c1.4-1.6,3.7-0.9,4.6-1.1c1-0.2,1.3-1.8,0.3-2.5
		c-0.9-0.6-2.5-0.7-2.5-0.7C41.9,7.2,41,4,39.5,4.7c-1.5,0.7-1,2.2-1.1,3.4c-0.2,1.2,0.4,1.8-4.6,4.3C28.6,15.1,23.2,19.9,26.8,25.8
		z"/>
	<path fill="#FFD69A" d="M39.9,23.3c-1.1,3.6-5,6.5-8.8,6.5c0,0,0,0,0,0c-2.4,0-4.4-1.1-5.6-3.2c-1.4-2.2-1.7-4.5-1.1-6.7
		c0.7-2.6,2.7-4.8,4.8-6.3c-5.3-1.5-10.4,2.9-10.4,2.9C7.4,26.8,3.4,25.7,3.4,25.7l0.1,3.2c0,0,9,0.7,8.7,5.8l0,0v0h29.2
		c3-6.1,0.7-11.5-1-14.3C40.4,21.3,40.2,22.3,39.9,23.3z"/>
</g>
</svg>
