<?xml version="1.0" encoding="utf-8"?>
<!-- Generator: Adobe Illustrator 18.0.0, SVG Export Plug-In . SVG Version: 6.00 Build 0)  -->
<!DOCTYPE svg PUBLIC "-//W3C//DTD SVG 1.1//EN" "http://www.w3.org/Graphics/SVG/1.1/DTD/svg11.dtd">
<svg version="1.1" id="Layer_1" xmlns="http://www.w3.org/2000/svg" xmlns:xlink="http://www.w3.org/1999/xlink" x="0px" y="0px"
	 viewBox="0 0 48 48" enable-background="new 0 0 48 48" xml:space="preserve">
<g>
	<path fill="#E77528" d="M20.8,44.7h-3.9V34.3h-2.8v10.4h-3.9c-0.6,0-1,0.5-1,1c0,0.6,0.5,1,1,1h10.6c0.6,0,1-0.5,1-1
		C21.8,45.1,21.4,44.7,20.8,44.7z"/>
	<path fill="#F04B36" d="M26.5,24.5c-1-0.6-2.1-0.8-3.6-0.5c-0.7,0.1-1.3,0.3-1.9,0.5c-1,0.4-1.9,0.6-2.7,0.3
		c-0.3-0.1-0.6-0.3-0.9-0.4c-0.8-0.4-1.7-0.8-2.7-1c-1.2-0.2-2.4-0.1-4.1,0.3l-0.3,0.1c-0.9,0.3-1.9,0.5-2.9,0.5l-0.2,0
		c-0.5,0-0.9-0.1-1.4-0.4c-0.1-0.1-0.2-0.1-0.3-0.2c-0.1-0.1-0.3-0.2-0.4-0.3c-0.3-0.2-0.8-0.2-1.1,0.1c-0.3,0.2-0.5,0.7-0.4,1.1
		c1.3,6,6.2,10.2,11.7,10.2c5.1,0,9.7-3.6,11.4-9C27.1,25.3,26.9,24.8,26.5,24.5z"/>
	<path fill="#0DB89A" d="M19.1,27c-0.6,0-1.1-0.1-1.6-0.3c-0.3-0.1-0.6-0.3-1-0.5c-0.7-0.4-1.4-0.7-2.1-0.8
		c-0.9-0.2-1.8-0.1-3.2,0.3l-0.3,0.1c-1.1,0.3-2.2,0.6-3.4,0.6l-0.2,0c-0.8,0-1.6-0.3-2.3-0.7c-0.1-0.1-0.3-0.2-0.4-0.3
		c-0.1-0.1-0.2-0.1-0.3-0.2c-0.2-0.1-0.4-0.4-0.5-0.7c-0.2-1.1-0.4-2.2-0.4-3.3c0-0.5,0-0.9,0.1-1.4c0-0.5,0.5-0.9,1-0.9h22
		c0.5,0,1,0.4,1,0.9c0,0.5,0.1,0.9,0.1,1.4c0,1.5-0.2,3-0.7,4.4c-0.1,0.3-0.3,0.5-0.6,0.6c-0.3,0.1-0.6,0.1-0.9-0.1
		c-0.6-0.4-1.2-0.4-2.3-0.3c-0.5,0.1-1,0.2-1.5,0.4C20.9,26.7,20,27,19.1,27z M13.6,23.3c0.4,0,0.8,0,1.2,0.1c1,0.2,1.8,0.6,2.7,1
		c0.3,0.1,0.6,0.3,0.9,0.4c0.8,0.3,1.7,0.1,2.7-0.3c0.6-0.2,1.2-0.4,1.9-0.5c0.9-0.1,1.7-0.1,2.4,0.1c0.2-0.9,0.3-1.8,0.3-2.7
		c0-0.1,0-0.2,0-0.3H5.5c0,0.1,0,0.2,0,0.3c0,0.8,0.1,1.6,0.2,2.4c0,0,0,0,0,0c0.1,0.1,0.2,0.1,0.3,0.2c0.4,0.2,0.9,0.4,1.4,0.4
		l0.2,0c0.9,0,1.9-0.3,2.9-0.5l0.3-0.1C11.8,23.4,12.7,23.3,13.6,23.3z"/>
	<path fill="#06728D" d="M41.9,16.9c0-1.4-0.3-3.4-1.5-4.9c-1.9-2.5-0.1-6-0.1-6l0.4-5.4H37h-3.7l0.4,5.4c0,0,1.8,3.5-0.1,6
		c-1.2,1.5-1.4,3.6-1.5,4.9c-1.5,0.5-2.6,2-2.6,3.7v23c0,2.2,1.8,3.9,3.9,3.9h7.3c2.2,0,3.9-1.8,3.9-3.9v-23
		C44.6,18.9,43.5,17.4,41.9,16.9z"/>
</g>
</svg>
