<?xml version="1.0" encoding="utf-8"?>
<!-- Generator: Adobe Illustrator 18.0.0, SVG Export Plug-In . SVG Version: 6.00 Build 0)  -->
<!DOCTYPE svg PUBLIC "-//W3C//DTD SVG 1.1//EN" "http://www.w3.org/Graphics/SVG/1.1/DTD/svg11.dtd">
<svg version="1.1" id="Layer_1" xmlns="http://www.w3.org/2000/svg" xmlns:xlink="http://www.w3.org/1999/xlink" x="0px" y="0px"
	 viewBox="0 0 48 48" enable-background="new 0 0 48 48" xml:space="preserve">
<g>
	<path fill="#CFD0D1" d="M29,9.1c-0.5,0-1-0.4-1-1V3.3c0-0.5,0.4-1,1-1c0.5,0,1,0.4,1,1v4.8C30,8.7,29.6,9.1,29,9.1z"/>
	<path fill="#CFD0D1" d="M24,9.1c-0.5,0-1-0.4-1-1V1.5c0-0.5,0.4-1,1-1c0.5,0,1,0.4,1,1v6.7C25,8.7,24.5,9.1,24,9.1z"/>
	<path fill="#CFD0D1" d="M19,9.1c-0.5,0-1-0.4-1-1V3.3c0-0.5,0.4-1,1-1c0.5,0,1,0.4,1,1v4.8C19.9,8.7,19.5,9.1,19,9.1z"/>
	<path fill="#F7A93B" d="M46.9,15.6c-0.1-0.1-2.4-1.6-4.6-0.8c-0.4,0.2-0.8,0.4-1.2,0.7v-3.2c0-0.5-0.4-1-1-1H7.9c-0.5,0-1,0.4-1,1
		v3.2c-0.4-0.3-0.8-0.5-1.2-0.7c-2.3-0.8-4.5,0.7-4.6,0.8c-0.4,0.3-0.6,0.9-0.3,1.3c0.3,0.4,0.9,0.6,1.3,0.3c0,0,1.6-1,2.9-0.6
		c0.8,0.3,1.4,1.1,1.8,2.4v4.5c0,6.4,5.4,11.5,12,11.5h10.2c6.6,0,12-5.2,12-11.5v-4.5c0.4-1.3,1-2.1,1.8-2.4
		c1.3-0.5,2.9,0.6,2.9,0.6c0.4,0.3,1,0.2,1.3-0.3C47.5,16.5,47.3,15.9,46.9,15.6z"/>
	<path fill="#E77528" d="M43,47.5H5c-0.7,0-1.3-0.6-1.3-1.3c0-0.7,0.6-1.3,1.3-1.3H43c0.7,0,1.3,0.6,1.3,1.3
		C44.3,46.9,43.7,47.5,43,47.5z"/>
	<path fill="#F04B36" d="M38.1,42.8c-0.1-0.9-1.1-1.6-1.8-2.1c-1.2-0.9-1.9-1.8-2.8-2.9c-0.3,0.9-2,1.4-2.7,2
		c-1.1,0.8-1.1,1.9-1.1,3.1H38.1z"/>
	<path fill="#F04B36" d="M29.6,42.8c-0.1-0.8-0.8-1.3-1.4-1.8c-0.9-0.8-2-1.4-2.6-2.4c-1.5,1.1-3.2,0.8-5,1
		c-0.9,0.1-2.1,0.8-2.8,1.3c-0.4,0.3-0.5,0.7-0.7,1.2c-0.1,0.2-0.1,0.6-0.3,0.8H29.6z"/>
	<path fill="#F04B36" d="M16.8,42.8c-0.1-2.2-2.3-3-3.9-4.2c-0.1,1.1-0.8,1.5-1.6,2.2c-0.6,0.5-1,1.2-1.3,2H16.8z"/>
</g>
</svg>
