<?xml version="1.0" encoding="utf-8"?>
<!-- Generator: Adobe Illustrator 18.0.0, SVG Export Plug-In . SVG Version: 6.00 Build 0)  -->
<!DOCTYPE svg PUBLIC "-//W3C//DTD SVG 1.1//EN" "http://www.w3.org/Graphics/SVG/1.1/DTD/svg11.dtd">
<svg version="1.1" id="Layer_1" xmlns="http://www.w3.org/2000/svg" xmlns:xlink="http://www.w3.org/1999/xlink" x="0px" y="0px"
	 viewBox="0 0 48 48" enable-background="new 0 0 48 48" xml:space="preserve">
<g>
	<path fill="#0DB89A" d="M42.1,3.2c-9.6-2.4-12.5,6.3-12.5,6.3C38.5,11.9,42.1,3.2,42.1,3.2z"/>
	<path fill="#0DB89A" d="M20.6,9.5c0,0-2.9-8.7-12.5-6.3C8.2,3.2,11.7,11.9,20.6,9.5z"/>
	<path fill="#0DB89A" d="M24.8,1.2c-0.4-0.6-1.2-0.9-1.9-0.5c-0.6,0.4-0.9,1.2-0.5,1.9c0,0,2.2,3.8,1.3,10.7l2.7,0.1
		C27.4,5.7,24.9,1.4,24.8,1.2z"/>
	<path fill="#F7A93B" d="M26.4,13.3l-2.7-0.1C11.9,13.4,5.8,21,5.8,30.4c0,9.5,8.2,17.1,18.2,17.1c10.1,0,18.2-7.7,18.2-17.1
		C42.2,21.5,38.5,14.2,26.4,13.3z"/>
</g>
</svg>
