<?xml version="1.0" encoding="utf-8"?>
<!-- Generator: Adobe Illustrator 18.0.0, SVG Export Plug-In . SVG Version: 6.00 Build 0)  -->
<!DOCTYPE svg PUBLIC "-//W3C//DTD SVG 1.1//EN" "http://www.w3.org/Graphics/SVG/1.1/DTD/svg11.dtd">
<svg version="1.1" id="Layer_1" xmlns="http://www.w3.org/2000/svg" xmlns:xlink="http://www.w3.org/1999/xlink" x="0px" y="0px"
	 viewBox="0 0 48 48" enable-background="new 0 0 48 48" xml:space="preserve">
<g>
	<path fill="#F7A93B" d="M46.6,12c-0.4,0-0.8-0.1-1.1-0.1c0-0.2-0.1-0.3-0.2-0.4c-0.4-0.4-1-0.4-1.4,0l-0.1,0.1
		c-1.8-0.5-3.4-1.2-4.8-2.1L40.3,8c0.4-0.4,0.4-1,0-1.4c-0.4-0.4-1-0.4-1.4,0l-1.7,1.7c-1.5-1.1-2.7-2.2-3.7-3.3l1.9-1.9
		c0.4-0.4,0.4-1,0-1.4c-0.4-0.4-1-0.4-1.4,0l-1.9,1.9c-0.7-0.8-1.1-1.4-1.1-1.4c-0.3-0.4-0.9-0.6-1.4-0.3c-0.4,0.3-0.6,0.9-0.3,1.4
		c0.1,0.1,0.5,0.8,1.3,1.7L28,7.9c-0.7-0.8-1.1-1.4-1.1-1.4C26.6,6.1,26,6,25.5,6.3c-0.4,0.3-0.6,0.9-0.3,1.4
		c0.1,0.1,0.5,0.8,1.3,1.7l-2.2,2.2c-0.2,0.2-0.4,0.5-0.6,0.7c-0.7-0.8-1.1-1.4-1.1-1.4c-0.3-0.4-0.9-0.6-1.4-0.3
		c-0.4,0.3-0.6,0.9-0.3,1.4c0.1,0.1,0.7,1,1.7,2.1c-0.4,0.9-0.6,2-0.6,3c0,1.8,0.6,3.4,1.7,4.8l-23,23c-0.4,0.4-0.4,1,0,1.4
		c0.2,0.2,0.4,0.3,0.7,0.3c0.3,0,0.5-0.1,0.7-0.3l23-23c1.4,1.1,3,1.7,4.8,1.7c0,0,0,0,0,0c1.5,0,3-0.4,4.2-1.2
		c0.4,0.5,2.7,3.7,2.3,7.3c-0.1,0.5,0.3,1,0.9,1.1c0,0,0.1,0,0.1,0c0.5,0,0.9-0.4,1-0.9c0.5-4.5-2.3-8.2-2.7-8.8l0.1-0.1
		c0.7,0.1,1.4,0.2,2.1,0.3c0,0,0,0,0,0c0.5,0,1-0.4,1-0.9c0-0.5-0.4-1-0.9-1c-0.2,0-0.3,0-0.5,0l2.5-2.5c0.7,0.1,1.4,0.2,2.1,0.3
		c0,0,0,0,0,0c0.5,0,1-0.4,1-0.9c0-0.5-0.4-1-0.9-1c-0.2,0-0.3,0-0.5,0l2.5-2.5c0.7,0.1,1.4,0.2,2.1,0.3c0,0,0,0,0,0
		c0.5,0,1-0.4,1-0.9C47.5,12.5,47.1,12.1,46.6,12z M32.2,6.5c1,1,2.2,2.2,3.7,3.3L33,12.6c-1.5-1.1-2.7-2.2-3.7-3.3L32.2,6.5z
		 M25.8,12.9l2.1-2.1c1,1,2.2,2.2,3.7,3.3l-2.8,2.8c-1.4-1.1-2.7-2.2-3.6-3.2C25.3,13.4,25.5,13.1,25.8,12.9z M25.2,20.4
		c-0.7-1-1.1-2.2-1.1-3.4c0-0.5,0.1-0.9,0.2-1.4c0.9,0.9,1.9,1.8,3.1,2.7L25.2,20.4z M30,22.9C30,22.9,30,22.9,30,22.9
		c-1.3,0-2.4-0.4-3.4-1.1l2.4-2.4c1.4,0.9,3,1.7,4.6,2.2C32.6,22.5,31.3,22.9,30,22.9z M35.2,20.1c-1.8-0.5-3.4-1.2-4.8-2.1l2.8-2.8
		c1.4,0.9,3,1.7,4.7,2.2L35.2,20.1z M39.5,15.8c-1.8-0.5-3.4-1.2-4.8-2.1l2.8-2.8c1.4,0.9,3,1.7,4.7,2.2L39.5,15.8z"/>
</g>
</svg>
