<?xml version="1.0" encoding="utf-8"?>
<!-- Generator: Adobe Illustrator 18.0.0, SVG Export Plug-In . SVG Version: 6.00 Build 0)  -->
<!DOCTYPE svg PUBLIC "-//W3C//DTD SVG 1.1//EN" "http://www.w3.org/Graphics/SVG/1.1/DTD/svg11.dtd">
<svg version="1.1" id="Layer_1" xmlns="http://www.w3.org/2000/svg" xmlns:xlink="http://www.w3.org/1999/xlink" x="0px" y="0px"
	 viewBox="0 0 48 48" enable-background="new 0 0 48 48" xml:space="preserve">
<g>
	<path fill="#4DA0D8" d="M1,25.4c0,0.2,0,0.5,0,0.7c0,8.5,5.6,15.8,13.6,19v2.3h18.9v-2.3c8-3.3,13.6-10.6,13.6-19
		c0-0.2,0-0.5,0-0.7H1z"/>
	<path fill="#E77528" d="M9.1,22.7h10.3c0.2-1.5-0.1-3.1-1.1-4.3l5.7-7l5.7,7c-0.9,1.2-1.3,2.8-1.1,4.3h10.3h2.4
		c-0.1-0.2-0.2-0.4-0.3-0.6c0-0.1-0.1-0.2-0.1-0.3l-3.1-3.8c-0.9-1.1-2.2-1.8-3.6-1.9c-1.1-0.1-2.1,0.2-3,0.8l-5.8-7.2l6.3-7.7
		c0.3-0.4,0.3-1.1-0.1-1.4C31,0.4,30.3,0.4,30,0.9l-6,7.4l-6-7.4c-0.3-0.4-1-0.5-1.4-0.1c-0.4,0.3-0.5,1-0.1,1.4l6.3,7.7L16.9,17
		c-0.9-0.6-1.9-0.8-3-0.8c-1.4,0.1-2.7,0.8-3.6,1.9l-3.1,3.8c-0.1,0.1-0.1,0.2-0.1,0.3c-0.1,0.2-0.2,0.4-0.3,0.6H9.1z"/>
</g>
</svg>
