<?xml version="1.0" encoding="utf-8"?>
<!-- Generator: Adobe Illustrator 18.0.0, SVG Export Plug-In . SVG Version: 6.00 Build 0)  -->
<!DOCTYPE svg PUBLIC "-//W3C//DTD SVG 1.1//EN" "http://www.w3.org/Graphics/SVG/1.1/DTD/svg11.dtd">
<svg version="1.1" id="Layer_1" xmlns="http://www.w3.org/2000/svg" xmlns:xlink="http://www.w3.org/1999/xlink" x="0px" y="0px"
	 viewBox="0 0 48 48" enable-background="new 0 0 48 48" xml:space="preserve">
<g>
	<path fill="#294E58" d="M36.5,47.5H4.2c-0.7,0-1.3-0.6-1.3-1.3s0.6-1.3,1.3-1.3h32.4c0.7,0,1.3,0.6,1.3,1.3S37.3,47.5,36.5,47.5z"
		/>
	<path fill="#F7A93B" d="M46.4,15.7c-1.1-2.1-3.1-3.4-6-4.1c-2.1-0.5-4.5,0-6.8,1.2c0.1-0.5,0.3-1,0.4-1.5c0.1-0.1,0.1-0.2,0.2-0.3
		l0-0.1H6.6c0,0,0,0,0,0.1c3.4,9-4.8,12.5-5.1,12.7c-0.4,0.2-0.6,0.5-0.6,0.9c0,9.5,3.9,13.6,5.8,15.1l-1.5,1.8
		c-0.2,0.3-0.3,0.7-0.1,1c0.2,0.3,0.5,0.6,0.9,0.6h28.9c0.4,0,0.7-0.2,0.9-0.6c0.2-0.3,0.1-0.7-0.1-1L34,39.7c1.1-0.9,3-2.8,4.3-6.2
		c3.3-0.7,6-3.1,7.4-6.6C47.6,22,47.8,18.4,46.4,15.7z M43.9,26.2c-1,2.5-2.7,4.3-4.9,5.1c0.5-1.9,0.8-4.1,0.8-6.7
		c0-0.4-0.2-0.7-0.6-0.9c-0.3-0.1-5.9-2.5-6-8.4c2.3-1.6,4.7-2.2,6.7-1.8c2.4,0.5,3.9,1.6,4.8,3.1C45.8,18.7,45.5,21.9,43.9,26.2z"
		/>
	<path fill="#F04B36" d="M34.8,9.3l1.6-4.4c0.1-0.3,0.1-0.7-0.2-1c-0.2-0.3-0.6-0.4-0.9-0.3C31.6,4.3,27.8,4.7,24,4.7c0,0,0,0,0,0
		C11.3,4.7,2.1,0.6,2,0.6C1.7,0.4,1.2,0.5,0.9,0.8C0.6,1.2,0.6,1.6,0.8,2l4.7,7.3H34.8z"/>
</g>
</svg>
