<?xml version="1.0" encoding="utf-8"?>
<!-- Generator: Adobe Illustrator 18.0.0, SVG Export Plug-In . SVG Version: 6.00 Build 0)  -->
<!DOCTYPE svg PUBLIC "-//W3C//DTD SVG 1.1//EN" "http://www.w3.org/Graphics/SVG/1.1/DTD/svg11.dtd">
<svg version="1.1" id="Layer_1" xmlns="http://www.w3.org/2000/svg" xmlns:xlink="http://www.w3.org/1999/xlink" x="0px" y="0px"
	 viewBox="0 0 48 48" enable-background="new 0 0 48 48" xml:space="preserve">
<g>
	<path fill="#F7A93B" d="M16.2,26.5L5.8,37.1c3,2.6,6.8,3.8,10.6,3.7L16.2,26.5z"/>
	<path fill="#F7A93B" d="M26.6,36.3L18.3,28l0.1,12.6C21.4,40.1,24.3,38.6,26.6,36.3z"/>
	<path fill="#F7A93B" d="M13.3,23.1l-8.4-8.3c-2.3,2.4-3.7,5.3-4.2,8.3L13.3,23.1z"/>
	<path fill="#F7A93B" d="M14.8,25.1L0.5,25.2c-0.1,3.8,1.2,7.5,3.9,10.5L14.8,25.1z"/>
	<path fill="#0DB89A" d="M35,7.4c0,0-0.1,0-0.1,0c-1.1-0.1-2.3-0.2-3.4-0.2c-3.9,0-8,0.6-11.1,1.7c0,0-0.1,0-0.1,0
		c-2.9,1.1-4.9,2.7-4.9,4.7c0,9.1,7.2,16.6,16,16.6c8.8,0,16-7.4,16-16.6C47.5,10.1,41.6,7.9,35,7.4z M34.3,18l-1.2-3.4H45
		C43.8,16.1,39.9,17.6,34.3,18z M32.2,18.1c-0.2,0-0.5,0-0.7,0c-3.6,0-6.6-0.4-8.9-1.1l8.5-2.2L32.2,18.1z M45,12.7H33.6l1.8-3.3
		C40.5,9.9,43.9,11.3,45,12.7z M33.2,9.2l-1.8,3.2l-7.3-2.5c2.1-0.4,4.5-0.7,7.4-0.7C32.1,9.2,32.7,9.2,33.2,9.2z M20.8,10.9
		l7.5,2.6L20,15.6c-0.2,0-0.3,0.1-0.4,0.3c-1.4-0.7-2.1-1.5-2.1-2.2C17.5,12.8,18.7,11.7,20.8,10.9z"/>
</g>
</svg>
