<?xml version="1.0" encoding="utf-8"?>
<!-- Generator: Adobe Illustrator 18.0.0, SVG Export Plug-In . SVG Version: 6.00 Build 0)  -->
<!DOCTYPE svg PUBLIC "-//W3C//DTD SVG 1.1//EN" "http://www.w3.org/Graphics/SVG/1.1/DTD/svg11.dtd">
<svg version="1.1" id="Layer_1" xmlns="http://www.w3.org/2000/svg" xmlns:xlink="http://www.w3.org/1999/xlink" x="0px" y="0px"
	 viewBox="0 0 48 48" enable-background="new 0 0 48 48" xml:space="preserve">
<g>
	<path fill="#06728D" d="M1.6,38.6c0,1.9,1.1,3.5,2.4,3.5h20.1c1.3,0,2.4-1.6,2.4-3.5v-0.4h-25V38.6z"/>
	<path fill="#F04B36" d="M26.6,32.3c-1.1,0-1.7,0.7-2.1,1.2c-0.1,0.1-0.2,0.3-0.4,0.4c-0.2,0.2-1,0.9-1.8,0.5
		c-0.4-0.2-0.8-0.5-1.2-0.9c-0.2-0.2-0.4-0.3-0.6-0.5c-0.9-0.7-2.1-0.8-3.2-0.2c-0.4,0.2-0.8,0.5-1.2,0.8c-0.6,0.4-1.2,0.9-1.7,0.9
		c-0.7,0-1.4-0.3-2.2-0.9c-0.8-0.7-2-1.4-3.4-1.5c-0.5,0-1.2,0-1.8,0.5c-0.2,0.1-0.4,0.3-0.5,0.5c-0.1,0.1-0.2,0.2-0.3,0.3
		c-0.9,0.7-2.2,1.3-3.9-0.8c-0.3-0.4-1-0.5-1.4-0.1c-0.4,0.4-0.5,1-0.1,1.4c2,2.5,4.5,2.9,6.7,1.1c0.2-0.1,0.3-0.3,0.5-0.5
		c0.1-0.1,0.2-0.2,0.3-0.3c0.1-0.1,0.3-0.1,0.7-0.1c0.6,0,1.3,0.3,2.2,1c1.1,0.9,2.2,1.3,3.3,1.3c0.1,0,0.1,0,0.2,0
		c1.1-0.1,2-0.7,2.8-1.3c0.4-0.3,0.7-0.5,1-0.7c0.5-0.3,0.7-0.2,1,0c0.2,0.1,0.4,0.3,0.5,0.4c0.5,0.4,1,0.8,1.6,1.1
		c1.3,0.6,2.8,0.3,4-0.9c0.2-0.2,0.3-0.3,0.5-0.5c0.4-0.4,0.5-0.6,0.7-0.6c0.6,0,1-0.5,1-1C27.6,32.8,27.2,32.3,26.6,32.3z"/>
	<path fill="#294E58" d="M46.5,14.8h-2.6h-7.3c0.3-5.6,2.9-8,2.9-8.1c0.4-0.4,0.4-1,0.1-1.4c-0.4-0.4-1-0.4-1.4-0.1
		c-0.1,0.1-3.2,3-3.6,9.6H28h-2.6c-0.6,0-1,0.4-1,1s0.4,1,1,1h1.7l2.4,25.4c0,0.5,0.5,0.9,1,0.9h10.9c0.5,0,0.9-0.4,1-0.9l2.4-25.4
		h1.7c0.6,0,1-0.4,1-1S47.1,14.8,46.5,14.8z"/>
	<path fill="#F7A93B" d="M3.2,30.4h21.9c0,0,2.9-0.2,1-4.7c-2.3-5.5-14.9-11.6-23.3-1.2C2.8,24.4-0.5,29.1,3.2,30.4z M19.6,25.3
		c0.5,0,0.9,0.4,0.9,0.8s-0.4,0.8-0.9,0.8c-0.5,0-0.9-0.4-0.9-0.8S19.1,25.3,19.6,25.3z M14.1,21.8c0.6,0,1.1,0.5,1.1,1
		c0,0.6-0.5,1-1.1,1c-0.6,0-1.1-0.5-1.1-1C13,22.2,13.5,21.8,14.1,21.8z M7.9,25.3c0.5,0,0.9,0.4,0.9,0.8c0,0.5-0.4,0.8-0.9,0.8
		c-0.5,0-0.9-0.4-0.9-0.8C7.1,25.6,7.5,25.3,7.9,25.3z"/>
</g>
</svg>
