<?xml version="1.0" encoding="utf-8"?>
<!-- Generator: Adobe Illustrator 18.0.0, SVG Export Plug-In . SVG Version: 6.00 Build 0)  -->
<!DOCTYPE svg PUBLIC "-//W3C//DTD SVG 1.1//EN" "http://www.w3.org/Graphics/SVG/1.1/DTD/svg11.dtd">
<svg version="1.1" id="Layer_1" xmlns="http://www.w3.org/2000/svg" xmlns:xlink="http://www.w3.org/1999/xlink" x="0px" y="0px"
	 viewBox="0 0 48 48" enable-background="new 0 0 48 48" xml:space="preserve">
<g>
	<path fill="#FFD69A" d="M32.3,34.8H17.8L12.9,39v8.5h24.3V39L32.3,34.8z M26.4,42.2h-3.2c-0.6,0-1-0.5-1-1c0-0.6,0.5-1,1-1h3.2
		c0.6,0,1,0.5,1,1C27.5,41.7,27,42.2,26.4,42.2z"/>
	<path fill="#0DB89A" d="M13.2,0.5v2.7H7.4c-0.6,0-1,0.5-1,1v19c0,0.6,0.5,1,1,1c0.6,0,1-0.5,1-1v-18h4.8v16c0,5.1,2.4,9.5,6,11.8
		h11.5c3.6-2.3,6-6.8,6-11.8V7.1l4.9-6.6H13.2z M28.7,28.2H21c-0.6,0-1-0.5-1-1c0-0.6,0.5-1,1-1h7.7c0.6,0,1,0.5,1,1
		C29.7,27.7,29.3,28.2,28.7,28.2z M28.7,21.8H21c-0.6,0-1-0.5-1-1c0-0.6,0.5-1,1-1h7.7c0.6,0,1,0.5,1,1
		C29.7,21.4,29.3,21.8,28.7,21.8z M28.7,15.4H21c-0.6,0-1-0.5-1-1c0-0.6,0.5-1,1-1h7.7c0.6,0,1,0.5,1,1C29.7,15,29.3,15.4,28.7,15.4
		z M28.7,9.1H21c-0.6,0-1-0.5-1-1c0-0.6,0.5-1,1-1h7.7c0.6,0,1,0.5,1,1C29.7,8.6,29.3,9.1,28.7,9.1z"/>
</g>
</svg>
