<?xml version="1.0" encoding="utf-8"?>
<!-- Generator: Adobe Illustrator 18.0.0, SVG Export Plug-In . SVG Version: 6.00 Build 0)  -->
<!DOCTYPE svg PUBLIC "-//W3C//DTD SVG 1.1//EN" "http://www.w3.org/Graphics/SVG/1.1/DTD/svg11.dtd">
<svg version="1.1" id="Layer_1" xmlns="http://www.w3.org/2000/svg" xmlns:xlink="http://www.w3.org/1999/xlink" x="0px" y="0px"
	 viewBox="0 0 48 48" enable-background="new 0 0 48 48" xml:space="preserve">
<g>
	<path fill="#CFD0D1" d="M30.4,4.6c-1.2,0-2.3,0.3-3.2,0.9c-0.9-1.6-2.8-2.6-5.1-2.6c-1.1,0-2,0.2-2.9,0.6c-1-1.8-3.2-3-5.7-3
		c-3.1,0-5.7,1.8-6.2,4.2C4.8,5,2.9,6.7,2.9,8.8c0,2.3,2.3,4.2,5.2,4.2h22.3c2.9,0,5.2-1.9,5.2-4.2C35.7,6.5,33.3,4.6,30.4,4.6z"/>
	<path fill="#06728D" d="M40,21.4h-4.7V20c0-2.3-2.3-4.2-5.1-4.2H8.3c-2.8,0-5.1,1.9-5.1,4.2v23.3c0,2.3,2.3,4.2,5.1,4.2h21.9
		c2.8,0,5.1-1.9,5.1-4.2v-5.5h2.8c2.7,0,5-1.8,5.1-4.1l1.9-7.9c0-0.1,0-0.1,0-0.2C45.1,23.3,42.8,21.4,40,21.4z M13.2,41.1
		c0,0.5-0.4,0.9-1,0.9c-0.5,0-1-0.4-1-0.9V22.3c0-0.5,0.4-0.9,1-0.9c0.5,0,1,0.4,1,0.9V41.1z M20.3,41.1c0,0.5-0.4,0.9-1,0.9
		c-0.5,0-1-0.4-1-0.9V22.3c0-0.5,0.4-0.9,1-0.9c0.5,0,1,0.4,1,0.9V41.1z M27.3,41.1c0,0.5-0.4,0.9-1,0.9c-0.5,0-1-0.4-1-0.9V22.3
		c0-0.5,0.4-0.9,1-0.9c0.5,0,1,0.4,1,0.9V41.1z M41.2,33.4c0,0.1,0,0.1,0,0.2c0,1.3-1.4,2.4-3.1,2.4h-2.8V23.2H40c1.6,0,3,1,3.1,2.3
		L41.2,33.4z"/>
</g>
</svg>
