<?xml version="1.0" encoding="utf-8"?>
<!-- Generator: Adobe Illustrator 18.0.0, SVG Export Plug-In . SVG Version: 6.00 Build 0)  -->
<!DOCTYPE svg PUBLIC "-//W3C//DTD SVG 1.1//EN" "http://www.w3.org/Graphics/SVG/1.1/DTD/svg11.dtd">
<svg version="1.1" id="Layer_1" xmlns="http://www.w3.org/2000/svg" xmlns:xlink="http://www.w3.org/1999/xlink" x="0px" y="0px"
	 viewBox="0 0 48 48" enable-background="new 0 0 48 48" xml:space="preserve">
<g>
	<path fill="#E77528" d="M47.1,10.9c-2-6.3-8.3-10.6-15.6-10.6c-2.1,0-4.2,0.4-6.1,1.1c-5.1,1.9-7.2,6.3-8.6,10.4
		c-1.1,3.2-2.1,6.6-3,9.9c-0.5,1.9-1,3.7-1.6,5.7c0,0.1-1.3,4.9-3.8,5.1c-0.8-0.4-1.6-0.6-2.4-0.6c-3.1,0-5.6,2.5-5.6,5.6
		c0,3,2.4,5.5,5.4,5.6c0.5,2.6,2.8,4.6,5.5,4.6c3.1,0,5.6-2.5,5.6-5.6c0-0.3,0-0.6-0.1-0.9c0,0,0-0.1,0-0.1c0,0,0.3-4,2.8-5.5
		c2.5-1.5,6.4-2.9,9.5-3.4c4.3-0.7,8.6-2.3,11.4-4.1C46.4,24.2,49,17.3,47.1,10.9z"/>
</g>
</svg>
