<?xml version="1.0" encoding="utf-8"?>
<!-- Generator: Adobe Illustrator 18.0.0, SVG Export Plug-In . SVG Version: 6.00 Build 0)  -->
<!DOCTYPE svg PUBLIC "-//W3C//DTD SVG 1.1//EN" "http://www.w3.org/Graphics/SVG/1.1/DTD/svg11.dtd">
<svg version="1.1" id="Layer_1" xmlns="http://www.w3.org/2000/svg" xmlns:xlink="http://www.w3.org/1999/xlink" x="0px" y="0px"
	 viewBox="0 0 48 48" enable-background="new 0 0 48 48" xml:space="preserve">
<g>
	<path fill="none" d="M24.7,30.6c0.1,0,0.2-0.1,0.4-0.1l0,0L24.7,30.6z"/>
	<path fill="none" d="M23.6,31.1l7.7,7.1c0.8,0.8,1,0.8,1.1,0.8c0,0,0,0,0.1-0.1c0.1-0.1,0.1-0.1,0.1-0.1c0,0,0-0.3-0.8-1l-6.7-7.3
		c-0.1,0-0.2,0.1-0.4,0.1L23.6,31.1z"/>
	<path fill="none" d="M32.9,29.1c0,0-1.3-0.1-1.3,0c0,0,0,0-0.1,0c-0.6,0.1-1.2,0.2-1.8,0.3l1.7-0.1c0,0-0.1-0.1-0.1-0.1
		C31.8,29.2,32.3,29.2,32.9,29.1z"/>
	<polygon fill="none" points="32.4,40 32.4,39 32.4,39 	"/>
	<path fill="#06728D" d="M31.5,29.1C31.5,29.1,31.6,29.1,31.5,29.1c0.1-0.1,1.4,0,1.4,0c-0.5,0-1.1,0-1.6,0.1c0,0,0.1,0.1,0.1,0.1
		l3.5-0.2c0-0.1,0-0.2,0-0.2L30.2,5.8c-0.4-1.8-2.8-2.4-4.1-2.1c-0.7,0.2-1.4,0.7-2,1.3c-0.7,0.8-0.9,1.7-0.7,2.5l6.3,21.8l0.1,0
		C30.3,29.3,30.9,29.2,31.5,29.1z"/>
	<path fill="#06728D" d="M25,30.4L25,30.4c0.7-0.3,1.5-0.5,2.1-0.6L6.8,7.8C6.3,7.3,5.5,7.1,4.7,7.1c-1.1,0-2.3,0.5-3,1.2
		c-1.1,1.1-1.8,3.7-0.4,5.1l20.4,18.8c0,0,1.3-0.8,3-1.5L25,30.4z"/>
	<path fill="#010101" d="M29.7,29.4L29.7,29.4C29.6,29.4,29.6,29.4,29.7,29.4C29.7,29.4,29.7,29.4,29.7,29.4z"/>
	<path fill="#F7A93B" d="M45.5,37.4c-0.9,0-1.7-0.1-2.5-0.3l-0.6-0.1c-0.8-0.1-1.7-0.1-2.6-0.1c-0.3,0-0.5,0-0.8,0h-1.7c0,0,0,0,0,0
		c-0.4,0-0.7,0.1-1.1,0.1c-0.3,0-0.5,0.1-0.8,0.1c-0.3,0-0.7,0.1-1.1,0.2c-0.3-0.5-0.7-0.8-0.9-1.1l-0.6-0.7
		c0.8-0.2,1.6-0.4,2.3-0.4c0.2,0,0.5-0.1,0.7-0.1c0.5-0.1,1-0.2,1.5-0.2c0,0,0,0,0,0h1.7c0.3,0,0.5,0,0.8,0c1,0,1.9,0,2.9,0.1
		l0.7,0.1c0.8,0.1,1.5,0.3,2.2,0.3h1.7c-0.6-2-2.8-3.7-5.1-4.8c0.3,0.9,0.3,1.8,0.3,2.6l0,0.4c0,0.6-0.4,1-1,1s-1-0.4-1-1l0-0.4
		c0-0.9,0-1.7-0.3-2.3c-0.2-0.4-0.1-0.8,0.1-1c-0.5-0.2-0.9-0.3-1.3-0.4c-1.2-0.3-2.6-0.4-4.1-0.4l-3.5,0.2c0.5,0.3,1.1,0.8,1.7,1.4
		c0.1,0.1,0.2,0.2,0.4,0.3c0.8,0.7,1.7,1.5,1.8,2.5c0.1,0.5-0.3,1-0.9,1.1c0,0-0.1,0-0.1,0c-0.5,0-0.9-0.4-1-0.9
		c-0.1-0.3-0.8-0.9-1.2-1.2c-0.2-0.1-0.3-0.3-0.4-0.4c-1.6-1.5-2.2-1.5-2.3-1.5c-0.5,0.1-1-0.3-1.1-0.9c0-0.1,0-0.1,0-0.2
		c-0.4,0.1-0.7,0.1-1.1,0.2c0,0,0,0-0.1,0c-0.7,0.1-1.4,0.4-2.1,0.6l6.7,7.3c0.8,0.8,0.8,1,0.8,1c0,0,0,0-0.1,0.1
		C32.4,39,32.4,39,32.4,39c0,0-0.3,0-1.1-0.8l-7.7-7.1l1.1-0.5c-1.6,0.7-3,1.5-3,1.5c-2.3,1.4-4.2,3.4-5.8,5.6
		c0.4-0.1,1-0.2,1.6-0.3c0.2,0,0.5-0.1,0.7-0.1c0.5-0.1,1.1-0.2,1.7-0.2c0.4,0,0.9,0,1.3,0c0.5,0,1-0.1,1.5-0.1c0.6,0,1,0.4,1,1
		c0,0.6-0.4,1-1,1c-0.5,0-0.9,0-1.4,0c-0.5,0-0.9,0-1.4,0.1c-0.4,0-0.9,0.1-1.4,0.2c-0.3,0-0.5,0.1-0.8,0.1
		c-0.9,0.1-1.3,0.2-1.4,0.3C16.3,39.9,16,40,15.7,40c-0.1,0-0.2,0-0.3-0.1c-0.2-0.1-0.4-0.3-0.5-0.5c-0.8,1.4-1,2.7,1.1,3.3
		c0.6,0.2,1.2,0.3,1.8,0.5c0-0.2,0.1-0.3,0.2-0.5c0.3-0.3,0.6-0.5,0.9-0.7c0.1-0.1,0.2-0.1,0.3-0.2c0.2-0.2,0.5-0.3,0.7-0.4
		c0.2-0.1,0.4-0.2,0.5-0.3c0.4-0.3,0.9-0.6,1.4-0.9l0.2-0.1c0.3-0.2,0.6-0.4,0.9-0.5c0.3-0.2,0.5-0.3,0.8-0.5
		c0.4-0.2,0.8-0.4,1.2-0.6c0.2-0.1,0.5-0.2,0.7-0.3c0.6-0.3,1.3-0.6,2-0.9l1.6,1.5c-0.9,0.4-1.9,0.8-2.7,1.2
		c-0.3,0.1-0.5,0.3-0.8,0.4c-0.3,0.1-0.6,0.3-0.9,0.4c-0.3,0.2-0.6,0.3-0.9,0.5c-0.3,0.2-0.6,0.3-0.8,0.5L22.8,42
		c-0.4,0.3-0.8,0.5-1.3,0.8c-0.2,0.2-0.5,0.3-0.7,0.4c-0.2,0.1-0.4,0.2-0.5,0.3c-0.1,0.1-0.3,0.2-0.5,0.3c-0.1,0.1-0.2,0.1-0.3,0.2
		c0.6,0.2,1.2,0.2,2,0.2c2.4,0,4.9,0.2,7.3-0.1c2.4-0.4,4.8-1,7.4-1c4.5,0,11.6,0,11.3-5.7H45.5z M32.4,40l0-1h0L32.4,40z"/>
</g>
</svg>
