<?xml version="1.0" encoding="utf-8"?>
<!-- Generator: Adobe Illustrator 18.0.0, SVG Export Plug-In . SVG Version: 6.00 Build 0)  -->
<!DOCTYPE svg PUBLIC "-//W3C//DTD SVG 1.1//EN" "http://www.w3.org/Graphics/SVG/1.1/DTD/svg11.dtd">
<svg version="1.1" id="Layer_1" xmlns="http://www.w3.org/2000/svg" xmlns:xlink="http://www.w3.org/1999/xlink" x="0px" y="0px"
	 viewBox="0 0 48 48" enable-background="new 0 0 48 48" xml:space="preserve">
<g>
	<path fill="#BC5327" d="M34.6,32l-1.9,9.5c-0.1,0.5-0.5,0.8-1,0.8c-0.1,0-0.1,0-0.2,0c-0.5-0.1-0.9-0.6-0.8-1.2l1.8-8.8
		c-2.5,0.3-5.1,0.5-7.6,0.5v9c0,0.5-0.4,1-1,1c-0.5,0-1-0.4-1-1v-9c-2.3,0-5-0.2-7.6-0.5l1.8,8.8c0.1,0.5-0.2,1-0.8,1.2
		c-0.1,0-0.1,0-0.2,0c-0.5,0-0.9-0.3-1-0.8L13.3,32c-2.4-0.4-4.8-0.9-6.9-1.7l2.5,15.2c0.1,0.8,0.4,2,15.1,2c13.9,0,14.2-1.3,14.3-2
		l3.1-15.1C39.3,31.1,37,31.6,34.6,32z"/>
	<path fill="#F7A93B" d="M24,0.5c-12.9,0-23.4,9.9-23.5,22.1l0,0l0,0.5l0,0c0.6,5,12.4,7.7,23.4,7.7c10.9,0,22.2-2.5,23.3-7.4
		c0.2-0.3,0.2-0.5,0.2-0.7C47.5,10.5,37,0.5,24,0.5z M14.2,15c-0.8,0-1.4-0.6-1.4-1.4c0-0.7,0.6-1.4,1.4-1.4c0.8,0,1.4,0.6,1.4,1.4
		C15.6,14.4,14.9,15,14.2,15z M22.3,22c-0.7,0-1.2-0.5-1.2-1c0-0.6,0.5-1,1.2-1c0.7,0,1.2,0.5,1.2,1C23.4,21.5,22.9,22,22.3,22z
		 M23.4,10.1c-0.8,0-1.4-0.5-1.4-1.1c0-0.6,0.6-1.1,1.4-1.1s1.4,0.5,1.4,1.1C24.8,9.7,24.2,10.1,23.4,10.1z M33.3,18
		c-0.9,0-1.6-0.8-1.6-1.7c0-1,0.7-1.7,1.6-1.7c0.9,0,1.6,0.8,1.6,1.7C34.9,17.2,34.2,18,33.3,18z"/>
</g>
</svg>
