<?xml version="1.0" encoding="utf-8"?>
<!-- Generator: Adobe Illustrator 18.0.0, SVG Export Plug-In . SVG Version: 6.00 Build 0)  -->
<!DOCTYPE svg PUBLIC "-//W3C//DTD SVG 1.1//EN" "http://www.w3.org/Graphics/SVG/1.1/DTD/svg11.dtd">
<svg version="1.1" id="Layer_1" xmlns="http://www.w3.org/2000/svg" xmlns:xlink="http://www.w3.org/1999/xlink" x="0px" y="0px"
	 viewBox="0 0 48 48" enable-background="new 0 0 48 48" xml:space="preserve">
<g>
	<path fill="#0DB89A" d="M40.9,18.5L37,14v-2.7c0-0.5-0.4-0.9-1-0.9H12c-0.5,0-1,0.4-1,0.9V14l-3.9,4.5c-0.1,0.2-0.2,0.4-0.2,0.6
		v20.2c0,0.3,0.1,0.5,0.3,0.7l8.9,7.3c0.2,0.1,0.4,0.2,0.6,0.2h14.3c0.2,0,0.5-0.1,0.6-0.2l8.9-7.3c0.2-0.2,0.3-0.4,0.3-0.7V19.1
		C41.1,18.9,41,18.7,40.9,18.5z M21.1,42.6c-5.1,0-9.2-2.8-9.2-6.2c0-3.4,4.1-6.2,9.2-6.2c5.1,0,9.2,2.8,9.2,6.2
		C30.3,39.8,26.2,42.6,21.1,42.6z M34.2,39.6c-0.9,0.7-2.1,0.9-3.3,0.8c0.9-1.2,1.4-2.5,1.4-4c0-4.5-4.8-8-10.9-8.1
		c0.2-1.5,0.8-2.8,1.9-3.6c2.8-2,7.4-0.3,10.5,3.8C36.8,32.6,37,37.6,34.2,39.6z"/>
	<path fill="#F04B36" d="M9.8,8.6h28.4c0.5,0,1-0.4,1-0.9V1.4c0-0.5-0.4-0.9-1-0.9H9.8c-0.5,0-1,0.4-1,0.9v6.3
		C8.8,8.2,9.3,8.6,9.8,8.6z"/>
</g>
</svg>
