<?xml version="1.0" encoding="utf-8"?>
<!-- Generator: Adobe Illustrator 18.0.0, SVG Export Plug-In . SVG Version: 6.00 Build 0)  -->
<!DOCTYPE svg PUBLIC "-//W3C//DTD SVG 1.1//EN" "http://www.w3.org/Graphics/SVG/1.1/DTD/svg11.dtd">
<svg version="1.1" id="Layer_1" xmlns="http://www.w3.org/2000/svg" xmlns:xlink="http://www.w3.org/1999/xlink" x="0px" y="0px"
	 viewBox="0 0 48 48" enable-background="new 0 0 48 48" xml:space="preserve">
<g>
	<circle fill="none" cx="8.7" cy="36.7" r="1.9"/>
	<circle fill="none" cx="23.2" cy="17.2" r="2.2"/>
	<circle fill="none" cx="8.9" cy="29.2" r="2.3"/>
	<circle fill="none" cx="29" cy="21.3" r="2.5"/>
	<circle fill="none" cx="9.2" cy="21.9" r="2"/>
	<circle fill="none" cx="35.7" cy="25.3" r="1.9"/>
	<path fill="#0DB89A" d="M39.7,21.8c-1.5-1.1-2.9-2.1-4.1-3.1c-4.3-3.2-7.7-5.8-12.2-7.2c-1.1-0.3-2.2-0.5-3.1-0.5
		c-2.4,0-3.6,1.1-4.1,1.9l-0.3,2c0.6,1.6,3,7.2,10.6,11.5c6.1,3.5,11.7,5.6,15.3,5.6h0c1.3,0,2.3-0.3,3-0.7c0.1-0.1,0.2-0.2,0.3-0.4
		C45.1,30.6,46.7,26.9,39.7,21.8z M25.1,18.3c-0.6,1-2,1.3-3,0.7c-1-0.6-1.3-2-0.7-3c0.6-1,2-1.3,3-0.7C25.4,16,25.7,17.3,25.1,18.3
		z M31.1,22.6c-0.7,1.2-2.3,1.5-3.4,0.8c-1.2-0.7-1.5-2.3-0.8-3.4c0.7-1.2,2.3-1.5,3.4-0.8C31.5,19.9,31.9,21.5,31.1,22.6z
		 M37.3,26.4c-0.6,0.9-1.8,1.2-2.7,0.6c-0.9-0.6-1.2-1.8-0.6-2.7c0.6-0.9,1.8-1.2,2.7-0.6C37.6,24.3,37.9,25.4,37.3,26.4z"/>
	<path fill="#0DB89A" d="M7.3,13.9c-0.2,0.2-4.8,5.4-4.5,15.5c0.4,9.8,2.5,16.7,5.6,18c0.1,0.1,0.3,0.1,0.4,0.1c0,0,0.1,0,0.1,0
		c0.5,0,4.4-0.7,5-9.3c0.1-1.9,0.3-3.6,0.4-5.1c0.5-5.4,0.8-9.6-0.4-14.2c-1-3.8-2.9-5-4.3-5.3l-2,0.1C7.5,13.7,7.4,13.8,7.3,13.9z
		 M8.7,38.7c-1.1,0-1.9-0.9-1.9-1.9s0.9-1.9,1.9-1.9s1.9,0.9,1.9,1.9S9.8,38.7,8.7,38.7z M8.9,31.5c-1.3,0-2.3-1-2.3-2.3
		c0-1.3,1-2.3,2.3-2.3c1.3,0,2.3,1,2.3,2.3C11.2,30.5,10.2,31.5,8.9,31.5z M9.2,19.9c1.1,0,2,0.9,2,2s-0.9,2-2,2c-1.1,0-2-0.9-2-2
		S8.1,19.9,9.2,19.9z"/>
	<path fill="#087F67" d="M12.3,3.8c0.6-0.6,1.3-1.1,2.2-1.4c0.5-0.2,0.8-0.7,0.6-1.2c-0.2-0.5-0.7-0.8-1.2-0.6
		C7.8,2.5,7.5,10.8,7.6,13.6l2-0.1c0-1.1,0-3.4,0.5-5.5c0.4,2.7,1.9,5.5,5.6,6.9l0.3-2C10.8,10.7,12,4.9,12.3,3.8z"/>
</g>
</svg>
