<?xml version="1.0" encoding="utf-8"?>
<!-- Generator: Adobe Illustrator 18.0.0, SVG Export Plug-In . SVG Version: 6.00 Build 0)  -->
<!DOCTYPE svg PUBLIC "-//W3C//DTD SVG 1.1//EN" "http://www.w3.org/Graphics/SVG/1.1/DTD/svg11.dtd">
<svg version="1.1" id="Layer_1" xmlns="http://www.w3.org/2000/svg" xmlns:xlink="http://www.w3.org/1999/xlink" x="0px" y="0px"
	 viewBox="0 0 48 48" enable-background="new 0 0 48 48" xml:space="preserve">
<g>
	<path fill="#F04B36" d="M24.7,10.9c0.6,0.3,14.5,7.7,13.7,20.1c1.2-0.8,2.9-1.6,4.9-1.5c1.5,0.1,2.9,0.7,4.1,1.8
		c0.7-17.2-19-24.9-19.2-24.9c0,0-0.1,0-0.1,0c-1.2-0.3-2.2,0-2.9,0.8c-1,1-1.2,2.7-1.3,3.7C24.2,10.8,24.5,10.8,24.7,10.9z"/>
	<path fill="#06728D" d="M46.8,33.5c-1-1.3-2.2-2-3.5-2c-2.6-0.1-4.9,2.1-5,2.1c-0.2,0.2-0.4,0.3-0.6,0.3L1.2,36.5l2,4.6
		c0.2,0.4,0.5,0.6,0.9,0.6c0,0,0.1,0,0.1,0l40.2-3.1c0.4,0,0.7-0.3,0.8-0.6l1.7-4.3C46.9,33.6,46.8,33.6,46.8,33.5z"/>
	<path fill="#E77528" d="M23.8,12.7c-0.3-0.1-0.4-0.4-0.5-0.6L0.8,33.9c-0.2,0.2-0.3,0.4-0.3,0.7L36.4,32C38,20.2,24,12.8,23.8,12.7
		z M18.3,28c-0.8,0-1.5-0.5-1.5-1.1c0-0.6,0.7-1.1,1.5-1.1c0.8,0,1.5,0.5,1.5,1.1C19.7,27.5,19.1,28,18.3,28z M23.4,19.9
		c0-0.4,0.7-0.8,1.6-0.8c0.9,0,1.6,0.4,1.6,0.8c0,0.4-0.7,0.8-1.6,0.8C24.1,20.7,23.4,20.3,23.4,19.9z M27.6,28
		c-1,0-1.8-0.6-1.8-1.4c0-0.8,0.8-1.4,1.8-1.4c1,0,1.8,0.6,1.8,1.4C29.5,27.3,28.6,28,27.6,28z"/>
</g>
</svg>
