<?xml version="1.0" encoding="utf-8"?>
<!-- Generator: Adobe Illustrator 18.0.0, SVG Export Plug-In . SVG Version: 6.00 Build 0)  -->
<!DOCTYPE svg PUBLIC "-//W3C//DTD SVG 1.1//EN" "http://www.w3.org/Graphics/SVG/1.1/DTD/svg11.dtd">
<svg version="1.1" id="Layer_1" xmlns="http://www.w3.org/2000/svg" xmlns:xlink="http://www.w3.org/1999/xlink" x="0px" y="0px"
	 viewBox="0 0 48 48" enable-background="new 0 0 48 48" xml:space="preserve">
<g>
	<path fill="#F7A93B" d="M39.5,37.2c-2.7-0.6-5.3-1.3-7.7-2.2l-2.2,4.3c-0.5,1-1.5,1.6-2.6,1.6c-0.5,0-0.9-0.1-1.3-0.3
		c-0.7-0.4-1.2-1-1.5-1.7c-0.1-0.2-0.1-0.4-0.1-0.6c-0.4,0.2-0.9,0.4-1.4,0.4c-0.5,0-0.9-0.1-1.3-0.3c-0.9-0.5-1.5-1.3-1.6-2.3
		c-0.4,0.2-0.9,0.4-1.5,0.4c-0.5,0-0.9-0.1-1.3-0.3c-1.5-0.7-2-2.5-1.3-4l2.5-4.9C15.3,24.9,14,23,14,22.9c-0.9-1.6-2.6-2.5-4.4-2.5
		c-0.9,0-1.8,0.3-2.7,0.7c-2.5,1.5-3.3,4.7-1.8,7.1c0.3,0.6,8.7,14.2,32.3,19.1c0.4,0.1,0.7,0.1,1.1,0.1c2.4,0,4.6-1.7,5.1-4.1
		C44.1,40.6,42.3,37.8,39.5,37.2z"/>
	<path fill="#06728D" d="M17.8,34.5c0.1,0.1,0.3,0.1,0.4,0.1c0.4,0,0.7-0.2,0.9-0.5l4.4-8.7c0.5-0.9,1.3-1.6,2.3-1.9
		c0.7-0.2,1.4-0.2,2.1-0.1l-6.1,12.1c-0.2,0.5-0.1,1.1,0.4,1.3c0.1,0.1,0.3,0.1,0.4,0.1c0.4,0,0.7-0.2,0.9-0.5l6.1-12.1
		c1.3,1.1,1.7,3.1,0.9,4.7l-4.4,8.7c-0.2,0.5-0.1,1.1,0.4,1.3C26.7,39,26.8,39,27,39c0.4,0,0.7-0.2,0.9-0.5l4.4-8.7
		c1.3-2.6,0.5-5.7-1.8-7.3L41,1.9c0.2-0.5,0.1-1.1-0.4-1.3C40,0.4,39.5,0.6,39.2,1L28.8,21.5c-1.2-0.4-2.4-0.4-3.6,0
		c-1.5,0.5-2.7,1.5-3.4,2.9l-4.4,8.7C17.1,33.6,17.3,34.2,17.8,34.5z"/>
</g>
</svg>
