<?xml version="1.0" encoding="utf-8"?>
<!-- Generator: Adobe Illustrator 18.0.0, SVG Export Plug-In . SVG Version: 6.00 Build 0)  -->
<!DOCTYPE svg PUBLIC "-//W3C//DTD SVG 1.1//EN" "http://www.w3.org/Graphics/SVG/1.1/DTD/svg11.dtd">
<svg version="1.1" id="Layer_1" xmlns="http://www.w3.org/2000/svg" xmlns:xlink="http://www.w3.org/1999/xlink" x="0px" y="0px"
	 viewBox="0 0 48 48" enable-background="new 0 0 48 48" xml:space="preserve">
<g>
	<path fill="#06728D" d="M38.2,24.6c0.2-0.1,0.4-0.3,0.5-0.5c0.1-0.4,0.1-0.8-0.2-1.1c0,0-3.2-3.2-4.1-5.8
		c-1.2-3.5-8.8-5.9-10.2-5.9h0l-0.3,0c-0.6-6.5,1.8-9.1,1.8-9.1c0.4-0.4,0.4-1,0-1.4c-0.4-0.4-1-0.4-1.4,0c-0.1,0.1-3,3.1-2.4,10.6
		l-0.8,0c-0.1,0-0.1,0-0.2,0c-0.3,0.1-6.8,1.4-8.6,5.3c-0.3,0.6-0.6,1.3-0.9,1.9c-0.8,1.7-1.8,4-2.3,4.5c-0.4,0.1-0.7,0.5-0.8,0.9
		c0,0.5,0.3,0.9,0.8,1c-0.8,2.4-2.3,8.4,1.1,14.9c3.7,7.1,11.3,7.6,13.6,7.6c0.5,0,0.7,0,0.7,0c6-0.2,10.2-2.1,12.6-5.8
		C41.2,35.9,39.2,27.6,38.2,24.6z M13.4,19.4c0.3-0.6,0.6-1.2,0.9-1.9c1.1-2.4,5.5-3.8,7.1-4.2l2.9-0.1c1.1,0,7.5,2.3,8.3,4.6
		c0.6,1.7,1.9,3.5,3,4.8c-6.3-0.6-8-4.2-8.1-4.3c0-0.1-0.1-0.1-0.1-0.2c0,0,0-0.1-0.1-0.1c0,0,0,0-0.1,0c-0.2-0.2-0.5-0.3-0.8-0.2
		c-0.1,0-0.2,0-0.2,0c-0.1,0-0.2,0.1-0.2,0.2c0,0-0.1,0-0.1,0.1c0,0,0,0,0,0c-0.3,0.3-0.4,0.7-0.2,1c1.6,4.1-0.5,6.8-1.9,8
		c-0.4-1-1.2-2.5-2.5-3.7c-1.5-1.4-1-2.7-1-2.8c0.2-0.5,0-1-0.4-1.3c-0.1-0.1-0.2-0.1-0.3-0.1c0,0,0,0-0.1,0c0,0,0,0-0.1,0
		c-0.1,0-0.2,0-0.2,0c0,0,0,0,0,0c-0.1,0-0.2,0.1-0.3,0.1c0,0,0,0-0.1,0c-0.1,0.1-0.2,0.1-0.2,0.2c-0.2,0.3-0.4,0.6-0.6,0.8
		c0,0-0.1,0.1-0.1,0.1c-0.2,0.2-0.4,0.4-0.7,0.6c-0.1,0-0.1,0.1-0.2,0.1c-0.2,0.2-0.5,0.3-0.7,0.5c-0.1,0-0.1,0.1-0.2,0.1
		c-0.2,0.1-0.5,0.2-0.7,0.3c-0.1,0-0.2,0.1-0.3,0.1c-0.2,0.1-0.4,0.1-0.6,0.2c-0.1,0-0.2,0.1-0.3,0.1c-0.2,0.1-0.4,0.1-0.6,0.2
		c-0.1,0-0.2,0-0.3,0.1c-0.2,0-0.4,0.1-0.6,0.1c-0.1,0-0.2,0-0.3,0c-0.2,0-0.4,0-0.6,0.1c0,0-0.1,0-0.1,0
		C12.2,22.2,12.7,20.9,13.4,19.4z"/>
</g>
</svg>
