<?xml version="1.0" encoding="utf-8"?>
<!-- Generator: Adobe Illustrator 18.0.0, SVG Export Plug-In . SVG Version: 6.00 Build 0)  -->
<!DOCTYPE svg PUBLIC "-//W3C//DTD SVG 1.1//EN" "http://www.w3.org/Graphics/SVG/1.1/DTD/svg11.dtd">
<svg version="1.1" id="Layer_1" xmlns="http://www.w3.org/2000/svg" xmlns:xlink="http://www.w3.org/1999/xlink" x="0px" y="0px"
	 viewBox="0 0 48 48" enable-background="new 0 0 48 48" xml:space="preserve">
<g>
	<path fill="#4DA0D8" d="M46.5,0.5h-45c-0.5,0-1,0.4-1,1c0,3,0.4,6,1.1,8.9c3,11.5,11.3,19.3,21,20v15.1H11.3c-0.5,0-1,0.4-1,1
		c0,0.5,0.4,1,1,1h25.4c0.5,0,1-0.4,1-1c0-0.5-0.4-1-1-1H25.3V30.4c9.7-0.7,18-8.5,21-20c0.8-2.9,1.1-5.9,1.1-8.9
		C47.5,0.9,47.1,0.5,46.5,0.5z M45.5,2.5c-0.1,2.3-0.4,4.5-0.9,6.7H3.3C2.8,7,2.5,4.7,2.5,2.5H45.5z M12.1,16.4
		c-0.5,0-0.8-0.4-0.8-0.8s0.4-0.8,0.8-0.8c0.5,0,0.8,0.4,0.8,0.8S12.6,16.4,12.1,16.4z M21,22.5c-0.9,0-1.7-0.8-1.7-1.7
		c0-0.9,0.8-1.7,1.7-1.7c0.9,0,1.7,0.8,1.7,1.7C22.7,21.8,21.9,22.5,21,22.5z M31,19.2c-0.7,0-1.3-0.6-1.3-1.3
		c0-0.7,0.6-1.3,1.3-1.3c0.7,0,1.3,0.6,1.3,1.3C32.3,18.6,31.7,19.2,31,19.2z"/>
</g>
</svg>
