<?xml version="1.0" encoding="utf-8"?>
<!-- Generator: Adobe Illustrator 18.0.0, SVG Export Plug-In . SVG Version: 6.00 Build 0)  -->
<!DOCTYPE svg PUBLIC "-//W3C//DTD SVG 1.1//EN" "http://www.w3.org/Graphics/SVG/1.1/DTD/svg11.dtd">
<svg version="1.1" id="Layer_1" xmlns="http://www.w3.org/2000/svg" xmlns:xlink="http://www.w3.org/1999/xlink" x="0px" y="0px"
	 viewBox="0 0 48 48" enable-background="new 0 0 48 48" xml:space="preserve">
<g>
	<path fill="#E77528" d="M47,33c0-0.4,0.2-0.7,0.2-1.2c-0.1-0.7-0.5-0.7-0.8-1.3c-0.4-0.7,0.2-1.6-0.2-2.3c-0.2-0.4-1-0.6-1.1-0.9
		c-0.2-0.5,0.2-0.3,0.3-0.8c0.3-1,0.1-0.8-0.8-1.2c-1.5-0.8-0.5-0.9,0.2-1.7c0.4-0.5,0.4-1,0.3-1.7c-0.2,0-0.5-0.1-0.7,0
		c0.4-1,1.9-1.5,1.7-2.7c-0.3,0-0.6,0-0.9,0c1.1-0.8,1.7-1.9,1.7-3.3c-0.4,0-0.8,0.4-1.2,0.4c0.4-1.4,2-2.2,1.9-3.9
		c-1.6,1.6-3.7,2-5.5,3.3c-1,0.7-1.6,1.8-2.4,2.7c-0.6,0.7-0.9,1.6-1.3,2.4c-0.2,0.1-0.5,0.2-0.7,0.3c0,0-0.1,0-0.1,0.1l-0.7,0.3
		v-6.5c0-0.6-0.5-1-1-1c-0.6,0-1,0.5-1,1v7.2l-0.1,0c-0.6,0-1.2,0-1.8,0l-1.3-0.1v-8.1c0-0.6-0.5-1-1-1c-0.6,0-1,0.5-1,1v7.8
		c-0.1,0-0.2-0.1-0.3-0.1l-0.9-0.3l-1.9-0.6v-7.8c0-0.6-0.5-1-1-1c-0.6,0-1,0.5-1,1V20c-0.1,0-0.1,0-0.2,0l-2.3-0.4
		c-0.2,0-0.5,0-0.7,0v-7.7c0-0.6-0.5-1-1-1c-0.6,0-1,0.5-1,1v7.7l-1.4,0c-0.5,0-1.1,0-1.6,0.1c-0.2,0-0.3,0.1-0.5,0.1V9.2
		c0,0-1.3-1.5-14.9,12.2l5.2,2.4l-5.2,2.4c0,0,3.2,8.9,14.9,12.4V27c0.1,0,0.1-0.1,0.2-0.1l0.2-0.1c0.5-0.2,0.8-0.3,1.1-0.4
		c0.2,0,0.4,0,0.7-0.1l1.4,0v8.5c0,0.6,0.5,1,1,1c0.6,0,1-0.5,1-1v-8.5c0.2,0,0.5,0.1,0.7,0.1l2.3,0.5c0.1,0,0.1,0,0.2,0.1v8.8
		c0,0.6,0.5,1,1,1c0.6,0,1-0.5,1-1v-8.1l1.9,0.6c0.4,0.1,0.8,0.2,1.2,0.2v8.3c0,0.6,0.5,1,1,1c0.6,0,1-0.5,1-1v-8.1l1.3,0
		c0.6,0,1.3,0,1.9,0v9.1c0,0.6,0.5,1,1,1c0.6,0,1-0.5,1-1v-9.3l0.7-0.1c0.8-0.2,1.5-0.5,2.1-0.8c0.3,1,0.7,2,1.5,3
		c1.9,2.6,5.9,3,6,6.7C48.2,36.2,46.8,34.4,47,33z M10.6,25.9c-1.5,0-2.6-1.2-2.6-2.6c0-1.5,1.2-2.6,2.6-2.6c1.5,0,2.6,1.2,2.6,2.6
		C13.2,24.7,12,25.9,10.6,25.9z"/>
</g>
</svg>
