<?xml version="1.0" encoding="utf-8"?>
<!-- Generator: Adobe Illustrator 18.0.0, SVG Export Plug-In . SVG Version: 6.00 Build 0)  -->
<!DOCTYPE svg PUBLIC "-//W3C//DTD SVG 1.1//EN" "http://www.w3.org/Graphics/SVG/1.1/DTD/svg11.dtd">
<svg version="1.1" id="Layer_1" xmlns="http://www.w3.org/2000/svg" xmlns:xlink="http://www.w3.org/1999/xlink" x="0px" y="0px"
	 viewBox="0 0 48 48" enable-background="new 0 0 48 48" xml:space="preserve">
<g>
	<path fill="#F04B36" d="M25.2,8C14.8,4.9,6.6,8.4,4.1,9.3c-0.6,0.2-6.9,3.3-1,8.5v18.3c0,0-0.7,3,3.4,3.8
		c4.1,0.8,16.9,1.9,16.9,1.9s3.4,0.7,3.4-3.8c0-4.5-0.7-17.9-0.7-17.9S35.6,11,25.2,8z M9.7,34.3c-0.9,0-1.7-0.7-1.7-1.7
		C8,31.8,8.8,31,9.7,31c0.9,0,1.7,0.7,1.7,1.7C11.4,33.6,10.7,34.3,9.7,34.3z M10.3,19.5c-0.9,0-1.7-0.7-1.7-1.7
		c0-0.9,0.8-1.7,1.7-1.7c0.9,0,1.7,0.7,1.7,1.7C12,18.8,11.2,19.5,10.3,19.5z M18.2,28.2c-0.9,0-1.7-0.7-1.7-1.7
		c0-0.9,0.8-1.7,1.7-1.7c0.9,0,1.7,0.7,1.7,1.7C19.9,27.4,19.2,28.2,18.2,28.2z"/>
	<path fill="#4DA0D8" d="M41.8,7.5c-3.9-1.2-9.1-1.3-14-1.2c3.1,1.4,4.2,3.4,4.6,5c1,4-2.1,8-3.7,9.8c0.2,3.3,0.6,13.1,0.6,16.9
		c0,1.4-0.3,2.7-0.8,3.7c4.7-0.4,10.7-1.3,13.6-1.8c1.3-0.2,3.5-1.2,3.5-4c0-4.5-0.7-17.7-0.7-17.7S52.2,10.5,41.8,7.5z"/>
</g>
</svg>
