<?xml version="1.0" encoding="utf-8"?>
<!-- Generator: Adobe Illustrator 18.0.0, SVG Export Plug-In . SVG Version: 6.00 Build 0)  -->
<!DOCTYPE svg PUBLIC "-//W3C//DTD SVG 1.1//EN" "http://www.w3.org/Graphics/SVG/1.1/DTD/svg11.dtd">
<svg version="1.1" id="Layer_1" xmlns="http://www.w3.org/2000/svg" xmlns:xlink="http://www.w3.org/1999/xlink" x="0px" y="0px"
	 viewBox="0 0 48 48" enable-background="new 0 0 48 48" xml:space="preserve">
<g>
	<path fill="none" d="M37.7,38.5c0.8-0.3,1.2-0.8,1.3-1.5c0.5-2.1-1.5-5.5-3.2-7.7l-1.3,8.8C35.8,38.7,36.8,38.9,37.7,38.5z"/>
	<path fill="#294E58" d="M36.2,26.6l-0.4,2.7c1.6,2.3,3.6,5.6,3.2,7.7c-0.2,0.7-0.6,1.1-1.3,1.5c-0.9,0.4-1.9,0.2-3.1-0.4l-0.3,2
		c0.9,0.4,1.7,0.6,2.5,0.6c0.6,0,1.1-0.1,1.7-0.3c1.3-0.6,2.2-1.6,2.5-2.8C41.8,33.7,37.5,28.2,36.2,26.6z"/>
	<path fill="#0DB89A" d="M36.4,17.7h-0.6h-2.1h-9.1h-2.1h-9.7h-2.1H7.9c-0.3,0-0.6,0.1-0.7,0.3C7,18.2,6.9,18.5,7,18.8l4,27.9
		c0.1,0.5,0.5,0.8,1,0.8h20.4c0.5,0,0.9-0.4,1-0.8l0.9-6.6c-6-2.4-12.8-12.2-13.7-13.6c-0.3-0.4-0.2-1.1,0.3-1.4
		c0.4-0.3,1.1-0.2,1.4,0.3c3.1,4.5,8.4,10.8,12.4,12.7l1.3-8.8c-0.5-0.7-1-1.3-1.4-1.8c-0.4-0.4-0.3-1,0.1-1.4
		c0.4-0.4,1-0.3,1.4,0.1c0.1,0.1,0.2,0.2,0.3,0.3l1.1-7.9c0-0.3,0-0.6-0.2-0.8C37,17.8,36.7,17.7,36.4,17.7z"/>
	<path fill="#F04B36" d="M12.3,16.4C12.3,16.4,12.3,16.4,12.3,16.4c-0.3-0.8-0.1-1.9,0.7-2.8c0.2-0.3,0.3-0.7,0.1-1.1
		c-0.2-0.4-0.6-1.3-0.5-2.2c0.1-1.5-0.3-2.4-0.9-3.4c-0.1-0.3-0.3-0.6-0.5-0.9c0-0.1,0-0.2-0.1-0.3l-0.9-2.1l2-0.9l0.9,2.1
		c0,0.1,0.1,0.2,0.1,0.2c0.2,0.4,0.3,0.7,0.4,1c0.4,1.1,0.8,2,2,2.9c0.7,0.5,1.1,1.4,1.3,1.8c0.1,0.4,0.5,0.6,0.9,0.6
		c1.2,0.1,2.1,0.5,2.5,1.3c0,0,0,0,0,0.1l2.2,4.9h2.1l-0.5-1.2l1.9-3.2c0,0,0,0,0-0.1c0.5-0.7,1.4-1.1,2.6-1c0.4,0,0.7-0.2,0.9-0.5
		c0.2-0.3,0.7-1.2,1.5-1.7c1.3-0.7,1.7-1.6,2.3-2.7c0.1-0.3,0.3-0.6,0.5-0.9c0.1-0.1,0.1-0.1,0.2-0.2l1.2-1.9l1.8,1.1L36,7.3
		c0,0.1-0.1,0.2-0.1,0.2c-0.2,0.3-0.4,0.6-0.6,0.9c-0.7,1-1.2,1.8-1.3,3.3c0,0.9-0.5,1.8-0.7,2.1c-0.2,0.3-0.2,0.7,0,1.1
		c0.6,1,0.8,1.9,0.4,2.7h2.1c0.2-1,0-2.1-0.5-3.2c0.3-0.6,0.7-1.6,0.7-2.6c0-0.9,0.3-1.4,0.9-2.3c0.2-0.3,0.5-0.7,0.8-1.2
		c0-0.1,0.1-0.2,0.1-0.2l1.5-2.6c0.3-0.5,0.1-1.1-0.3-1.3l-3.5-2.1C35,1.8,34.4,2,34.2,2.5L32.6,5c-0.1,0.1-0.1,0.1-0.2,0.2
		c-0.3,0.5-0.5,0.9-0.7,1.3c-0.5,1-0.8,1.4-1.5,1.9c-0.9,0.5-1.5,1.3-1.9,1.9c-1.6,0-3,0.7-3.7,1.8c0,0-0.1,0.1-0.1,0.1l-1.2,2.1
		l-1.1-2.4c0,0,0-0.1-0.1-0.1c-0.6-1.2-1.9-2-3.5-2.2c-0.3-0.7-0.9-1.5-1.7-2.1c-0.7-0.5-0.9-1.1-1.3-2.1C15.3,4.9,15.2,4.5,15,4
		c0-0.1-0.1-0.2-0.2-0.2l-1.2-2.7c-0.1-0.2-0.3-0.4-0.5-0.5c-0.2-0.1-0.5-0.1-0.7,0L8.6,2.3C8.1,2.5,7.8,3.1,8.1,3.6l1.2,2.7
		c0,0.1,0,0.2,0.1,0.3C9.6,7,9.8,7.4,10,7.8c0.5,1,0.7,1.5,0.7,2.4c-0.1,1,0.2,2,0.4,2.7c-0.9,1.3-1.1,2.8-0.7,4.1
		c0,0,0,0.1,0.1,0.1l0.2,0.5h2.1L12.3,16.4z"/>
</g>
</svg>
