<?xml version="1.0" encoding="utf-8"?>
<!-- Generator: Adobe Illustrator 18.0.0, SVG Export Plug-In . SVG Version: 6.00 Build 0)  -->
<!DOCTYPE svg PUBLIC "-//W3C//DTD SVG 1.1//EN" "http://www.w3.org/Graphics/SVG/1.1/DTD/svg11.dtd">
<svg version="1.1" id="Layer_1" xmlns="http://www.w3.org/2000/svg" xmlns:xlink="http://www.w3.org/1999/xlink" x="0px" y="0px"
	 viewBox="0 0 48 48" enable-background="new 0 0 48 48" xml:space="preserve">
<g>
	<path fill="#F04B36" d="M47.1,20.7c-1-2.7-4.1-4-7.2-3.4c-3.4,0.6-5.9,3.1-9.4,3.2c-1.5,0.1-3.8,0.4-5.1-0.5
		c-2.3-1.6,0.2-2.7,2.1-2.8c2.2-0.1,4.3-0.3,5.7-2.2c0.6-0.8,0.6-1.6,0.6-2.6c0-1.3-0.2-1.4-1.5-1.9c-2.2-0.8-5.9-2.1-6.3-4.5
		c-0.4-2.5,1-4.1,3.4-5c-6.3-1.8-16,0.7-19.1,6.1C9.9,8,9.4,9.6,9.8,10.6c1.7,4,7.9,3.3,8.6,3.6c2.6,1.2-0.8,2.3-2.1,2.4
		c-3,0.3-5.5-2.5-8.8-1.5c-0.7,0.2-1.3,0.6-2,0.8c-0.8,0.3-1.5,0.4-2.3,0.8c-1.3,0.6-2.1,1.3-2.6,2.7c-0.8,1.9,0.3,7.3,0.3,7.3h41.8
		c1.4,0.2,3.9-1.3,4.4-2.6C47.7,23,47.5,21.7,47.1,20.7z"/>
	<path fill="#0DB89A" d="M4.5,42.6c0,2.7,1.8,4.9,4.1,4.9h28.1c2.3,0,4.1-2.2,4.1-4.9l3.3-13H1.3L4.5,42.6z"/>
</g>
</svg>
