<?xml version="1.0" encoding="utf-8"?>
<!-- Generator: Adobe Illustrator 18.0.0, SVG Export Plug-In . SVG Version: 6.00 Build 0)  -->
<!DOCTYPE svg PUBLIC "-//W3C//DTD SVG 1.1//EN" "http://www.w3.org/Graphics/SVG/1.1/DTD/svg11.dtd">
<svg version="1.1" id="Layer_1" xmlns="http://www.w3.org/2000/svg" xmlns:xlink="http://www.w3.org/1999/xlink" x="0px" y="0px"
	 viewBox="0 0 48 48" enable-background="new 0 0 48 48" xml:space="preserve">
<g>
	<path fill="#F7A93B" d="M30.9,6.5l-0.6,0.7c0,0,8.1,23.5-23.7,13.8c0,0-9.5-2.7-5,5.4c0,0,2,5.9,7.7,8.4c0.1,0,0.1,0,0.1,0
		c0,0,0,0,0,0c0,0,0,0,0,0c0,0,0,0,0,0.1C22.8,33.5,49.6,28.1,30.9,6.5z"/>
	<path fill="#E77528" d="M33.1,3.9l-0.8,1l0.2,0.3c6.1,7.1,8.2,13.4,6.1,18.6c-3.5,8.8-17.6,12-28.9,13.1L8.8,37
		c-0.7,2.9,4.8,5.2,4.8,5.2c6.6,3.4,28.6,4.4,33.1-14C51.3,9.7,33.1,3.9,33.1,3.9z"/>
</g>
</svg>
