<?xml version="1.0" encoding="utf-8"?>
<!-- Generator: Adobe Illustrator 18.0.0, SVG Export Plug-In . SVG Version: 6.00 Build 0)  -->
<!DOCTYPE svg PUBLIC "-//W3C//DTD SVG 1.1//EN" "http://www.w3.org/Graphics/SVG/1.1/DTD/svg11.dtd">
<svg version="1.1" id="Layer_1" xmlns="http://www.w3.org/2000/svg" xmlns:xlink="http://www.w3.org/1999/xlink" x="0px" y="0px"
	 viewBox="0 0 48 48" enable-background="new 0 0 48 48" xml:space="preserve">
<g>
	<path fill="#4DA0D8" d="M47.3,33.9l-6.8-22.6c-0.3-1-1.3-1.8-2.3-1.8h-3.6c-1,0-1.8-0.8-1.8-1.8V6.9c0-1,0.8-1.8,1.8-1.8h9.8
		c1,0,1.8-0.8,1.8-1.8V2.3c0-1-0.8-1.8-1.8-1.8H3.6c-1,0-1.8,0.8-1.8,1.8v0.9c0,1,0.8,1.8,1.8,1.8h9.8c1,0,1.8,0.8,1.8,1.8v0.7
		c0,1-0.8,1.8-1.8,1.8H9.8c-1,0-2,0.8-2.3,1.8L0.7,33.9c-0.3,1-0.3,2.5,0,3.5l2.6,8.4c0.3,1,1.3,1.8,2.3,1.8h36.8c1,0,2-0.8,2.3-1.8
		l2.6-8.4C47.6,36.4,47.6,34.8,47.3,33.9z M24,40.2c-6.2,0-11.3-5.3-11.3-11.8c0-6.5,5.1-11.8,11.3-11.8c6.2,0,11.3,5.3,11.3,11.8
		C35.3,35,30.2,40.2,24,40.2z"/>
	<path fill="#F04B36" d="M24,19.3c-0.6,0-1,0.5-1,1v8.4c0,0.6,0.5,1,1,1c0.6,0,1-0.5,1-1v-8.4C25,19.8,24.6,19.3,24,19.3z"/>
</g>
</svg>
