<?xml version="1.0" encoding="utf-8"?>
<!-- Generator: Adobe Illustrator 18.0.0, SVG Export Plug-In . SVG Version: 6.00 Build 0)  -->
<!DOCTYPE svg PUBLIC "-//W3C//DTD SVG 1.1//EN" "http://www.w3.org/Graphics/SVG/1.1/DTD/svg11.dtd">
<svg version="1.1" id="Layer_1" xmlns="http://www.w3.org/2000/svg" xmlns:xlink="http://www.w3.org/1999/xlink" x="0px" y="0px"
	 viewBox="0 0 48 48" enable-background="new 0 0 48 48" xml:space="preserve">
<g>
	<path fill="#E77528" d="M30,18.2l-0.8-1.3c-0.1,0-0.2,0-0.3,0h-9.8c-0.1,0-0.2,0-0.3,0L18,18.2l-3.5,28.3c0,0,5.4,1,9.5,1
		c4.6,0,9.5-1,9.5-1L30,18.2z"/>
	<path fill="#294E58" d="M28.9,7H25V1.4c0-0.5-0.4-0.9-1-0.9c-0.6,0-1,0.4-1,0.9V7h-3.9c-0.6,0-1,0.4-1,1v6c0,0.6,0.4,1,1,1h9.8
		c0.6,0,1-0.4,1-1V8C29.9,7.4,29.4,7,28.9,7z M21.3,12.9h-1.2V9h1.2V12.9z M24.7,12.9h-1.4V9h1.4V12.9z M27.9,12.9h-1.2V9h1.2V12.9z
		"/>
</g>
</svg>
