<?xml version="1.0" encoding="utf-8"?>
<!-- Generator: Adobe Illustrator 18.0.0, SVG Export Plug-In . SVG Version: 6.00 Build 0)  -->
<!DOCTYPE svg PUBLIC "-//W3C//DTD SVG 1.1//EN" "http://www.w3.org/Graphics/SVG/1.1/DTD/svg11.dtd">
<svg version="1.1" id="Layer_1" xmlns="http://www.w3.org/2000/svg" xmlns:xlink="http://www.w3.org/1999/xlink" x="0px" y="0px"
	 viewBox="0 0 48 48" enable-background="new 0 0 48 48" xml:space="preserve">
<g>
	<path fill="#F04B36" d="M46.4,12.6c-1-2.3-3.4-1-8,1.2c-4.4,2.1-22.8,17-22.8,17s-0.6,3.6-2.1,5.8c-1.5,2.2-5,2.2-8,1.5
		c0,0-2.5-1.3-3.6-2.8c0,0,0.3-6.5,3.8-7.8c0,0,8.2-8.6,12.5-11.3L34.7,4.5c-9.1,0-23.6,13.9-30.1,18.6c-3.2,2.3-4.1,5.6-4.1,8.5
		c0,3,0.9,5.5,1.3,6.2c0.7,1.3,2.6,3.9,10.2,5c7.6,1.1,8,2,24.3-10.6C52.5,19.7,46.4,12.6,46.4,12.6z"/>
	<path fill="#E77528" d="M32.2,12.1c-0.1,0.3-0.2,0.6-0.3,0.7c-0.1,0.1-0.6,0.4-1.6,0.7L30,13.5c-1.8,0.4-4.3,1-5.5,3.4
		c-0.9,2-1.5,2.5-2.9,2.7c-2.9,0.5-4.1,2-5,4.3c-0.6,1.5-1.9,2.1-3.6,2.6c-0.2,0.1-0.5,0.1-0.7,0.2c-0.7,0.2-1.6,0.3-2.3,0.8
		c-1.6,1-1.6,2.4-1.6,3.4l0,0.2c0,0.7,0,2.9-0.5,3.4c0,0-0.1,0.1-0.3,0.1c-0.9,0-1.6,0.8-1.6,1.6c0,0.6,0.4,1,1,1c0,0,0,0,0,0
		c0.4,0,0.8-0.3,0.9-0.6c0.6-0.1,1-0.3,1.4-0.6c1.1-1,1.2-3.1,1.2-4.9l0-0.2c0-0.9,0-1.2,0.6-1.7c0.4-0.3,1-0.4,1.6-0.5
		c0.3-0.1,0.6-0.1,0.9-0.2c1.9-0.6,3.9-1.5,4.9-3.8c0.7-1.8,1.4-2.7,3.4-3c2.4-0.4,3.4-1.6,4.4-3.9c0.7-1.5,2.5-2,4.1-2.3l0.2-0.1
		c0.9-0.2,2.1-0.6,2.7-1.3c0.3-0.4,0.5-0.8,0.7-1.3c0.2-0.5,0.4-1,0.8-1.3c1.1-0.8,2.7-0.7,4.1-0.7c0.3,0,0.6,0,0.8,0
		c0.6,0,1-0.5,1-1c0-0.6-0.5-1-1-1c-0.2,0-0.5,0-0.8,0c-1.7,0-3.8-0.1-5.4,1.1C32.8,10.6,32.5,11.5,32.2,12.1z"/>
</g>
</svg>
