<?xml version="1.0" encoding="utf-8"?>
<!-- Generator: Adobe Illustrator 18.0.0, SVG Export Plug-In . SVG Version: 6.00 Build 0)  -->
<!DOCTYPE svg PUBLIC "-//W3C//DTD SVG 1.1//EN" "http://www.w3.org/Graphics/SVG/1.1/DTD/svg11.dtd">
<svg version="1.1" id="Layer_1" xmlns="http://www.w3.org/2000/svg" xmlns:xlink="http://www.w3.org/1999/xlink" x="0px" y="0px"
	 viewBox="0 0 48 48" enable-background="new 0 0 48 48" xml:space="preserve">
<g>
	<path fill="#4DA0D8" d="M36.9,15.3c0,7.6-8.3,14.3-5,9.8c3.1-4.3,2-10.2,1.6-11.7c-2.7-1.3-5.7-2.2-9-2.4c-0.6-0.1-1.2-0.1-1.8,0
		c5.1,6.7-0.2,18.4,0.8,12.5c1-6-4-11.4-4-11.4s-0.1-0.3-0.2-0.7c-3.5,0.7-6.7,2.5-9.3,4.6c6.2,5.4,4.1,17.6,3.6,11.7
		c-0.4-4.8-4.4-8.4-6-9.6c-4.7,4.5-7.2,9.5-7.2,9.5c1.2,10.6,12.9,6.5,23.8,9c10.9,2.5,22.6-3.7,23.1-7.2
		C47.8,26.8,44,19.9,36.9,15.3z"/>
</g>
</svg>
