<?xml version="1.0" encoding="utf-8"?>
<!-- Generator: Adobe Illustrator 18.0.0, SVG Export Plug-In . SVG Version: 6.00 Build 0)  -->
<!DOCTYPE svg PUBLIC "-//W3C//DTD SVG 1.1//EN" "http://www.w3.org/Graphics/SVG/1.1/DTD/svg11.dtd">
<svg version="1.1" id="Layer_1" xmlns="http://www.w3.org/2000/svg" xmlns:xlink="http://www.w3.org/1999/xlink" x="0px" y="0px"
	 viewBox="0 0 48 48" enable-background="new 0 0 48 48" xml:space="preserve">
<g>
	<path fill="#F7A93B" d="M45.1,20.2c-0.1,0-0.3,0-0.4,0.1C42.5,13,34.1,7.5,24.1,7.5c-10.9,0-19.8,6.4-21,14.6
		c-1.4,0.2-2.5,1.5-2.5,3.1c0,1.7,1.3,3.2,2.8,3.2c0.1,0,0.2,0,0.3,0c2.4,7,10.7,12.2,20.5,12.2c10.3,0,18.9-5.7,20.8-13.3
		c0.1,0,0.1,0,0.2,0c1.3,0,2.4-1.6,2.4-3.5C47.5,21.8,46.4,20.2,45.1,20.2z M24.2,28.4c-0.6,0-1.2-0.5-1.2-1.2
		c0-0.6,0.5-1.2,1.2-1.2c0.6,0,1.2,0.5,1.2,1.2C25.4,27.9,24.9,28.4,24.2,28.4z M26.8,33c-0.6,0-1.1-0.5-1.1-1.1
		c0-0.6,0.5-1.1,1.1-1.1c0.6,0,1.1,0.5,1.1,1.1C28,32.5,27.5,33,26.8,33z M28.9,24.6c-0.5,0-0.9-0.4-0.9-0.9c0-0.5,0.4-0.9,0.9-0.9
		s0.9,0.4,0.9,0.9C29.8,24.2,29.4,24.6,28.9,24.6z M30.7,29.8c-0.5,0-1-0.4-1-1c0-0.5,0.4-1,1-1c0.5,0,1,0.4,1,1
		C31.7,29.4,31.3,29.8,30.7,29.8z M33,33.1c-0.3,0-0.6-0.3-0.6-0.6c0-0.3,0.3-0.6,0.6-0.6c0.3,0,0.6,0.3,0.6,0.6
		C33.6,32.8,33.4,33.1,33,33.1z M33.7,24.6c-0.4,0-0.7-0.3-0.7-0.7s0.3-0.7,0.7-0.7c0.4,0,0.7,0.3,0.7,0.7S34.1,24.6,33.7,24.6z
		 M36.5,29.8c-0.5,0-1-0.4-1-1c0-0.5,0.4-1,1-1c0.5,0,1,0.4,1,1C37.5,29.4,37,29.8,36.5,29.8z"/>
</g>
</svg>
