<?xml version="1.0" encoding="utf-8"?>
<!-- Generator: Adobe Illustrator 18.0.0, SVG Export Plug-In . SVG Version: 6.00 Build 0)  -->
<!DOCTYPE svg PUBLIC "-//W3C//DTD SVG 1.1//EN" "http://www.w3.org/Graphics/SVG/1.1/DTD/svg11.dtd">
<svg version="1.1" id="Layer_1" xmlns="http://www.w3.org/2000/svg" xmlns:xlink="http://www.w3.org/1999/xlink" x="0px" y="0px"
	 viewBox="0 0 48 48" enable-background="new 0 0 48 48" xml:space="preserve">
<g>
	<path fill="#08826A" d="M28.4,2.3c0.4-0.3,0.5-0.9,0.2-1.4c-0.3-0.4-0.9-0.5-1.4-0.2c-1.5,1.1-2.3,2.7-2.9,4.2
		c-1.4-0.9-2.9-1.4-4.5-1.4c-3.9,0-6.6,2.9-6.8,3c-0.2,0.2-0.3,0.5-0.3,0.9c0.1,0.3,0.3,0.6,0.5,0.7c2.6,1.2,4.8,1.8,6.6,1.8h0
		c1.7,0,2.8-0.5,3.6-1.2c0,0.5-0.1,0.9-0.1,1.2c-0.1,0-0.2,0-0.3,0l2.3,0.2C25.4,8.6,25.7,4.3,28.4,2.3z"/>
	<path fill="#0DB89A" d="M32.3,24.9c-0.2-0.2-0.4-0.4-0.5-0.5c-0.1-0.1-0.2-0.4-0.3-0.7c-0.7-1.4-2.2-4.7-2-7.2
		c0.3-2.8-1.6-5.1-3.3-6.2c-0.1-0.1-0.3-0.1-0.4-0.1l-0.4,0l-2.3-0.2c-1.6,0.4-4.3,1.7-4.8,5.7c-0.6,4.8-1.4,7.5-4.3,11.3
		c-2.1,2.6-3.6,7.6-2.4,12c0.9,3.4,3.2,6,6.7,7.4c1.9,0.8,3.8,1.2,5.8,1.2h0c3.4,0,6.6-1.3,9-3.6c2.3-2.3,3.7-5.3,3.7-8.4
		C36.8,29.4,33.6,26.2,32.3,24.9z"/>
</g>
</svg>
