<?xml version="1.0" encoding="utf-8"?>
<!-- Generator: Adobe Illustrator 18.0.0, SVG Export Plug-In . SVG Version: 6.00 Build 0)  -->
<!DOCTYPE svg PUBLIC "-//W3C//DTD SVG 1.1//EN" "http://www.w3.org/Graphics/SVG/1.1/DTD/svg11.dtd">
<svg version="1.1" id="Layer_1" xmlns="http://www.w3.org/2000/svg" xmlns:xlink="http://www.w3.org/1999/xlink" x="0px" y="0px"
	 viewBox="0 0 48 48" enable-background="new 0 0 48 48" xml:space="preserve">
<g>
	<path fill="#E77528" d="M35,45.5c-0.2,0.1-0.7,0.2-1.1,0c-0.1-0.1-0.3-0.2-0.4-0.5c0,0,0,0,0,0c0-0.1,0.1-0.2,0.1-0.3v-2
		c0.3,0,0.6-0.1,0.8-0.4c0.4-0.5,1-1.2,1.8-1.9c4.5-4.1,5.1-10,5.2-10.3c0.1-2.1-0.3-3.7-1.3-4.8c-0.8-0.9-2-1.3-3.5-1.3
		c-0.6,0-1.3,0.1-1.8,0.2c0.3-1.5,0.5-3.3,0.6-4.6c0.5,0.1,1.3,0.1,1.4,0c0,0,0.1,0,0.1,0c5.9-2.1,3.1-14.2,2.8-15.6
		c-0.1-0.4-0.5-0.7-1-0.7c0,0-3.2,0.2-3.8,1.1c-0.2,0.2-0.2,0.6-0.2,0.8c0,0.2,0,1.2,0,2c0,1.4,0,3.2,0.1,4.2c0,0.2,0,0.4,0,0.5
		c-0.9-0.8-2.4-2.3-3.3-3.3c-1.3-1.4-3.4-2.5-4.3-2.9l-0.7-4.1c-0.1-0.4-0.4-0.8-0.9-0.8l-3-0.2c-0.5,0-1,0.3-1,0.8l-0.7,4.3
		c-1,0.4-3.1,1.5-4.3,2.9c-0.9,1-2.4,2.5-3.3,3.3c0-0.1,0-0.3,0-0.5c0.1-1,0.1-2.8,0.1-4.2c0-0.8,0-1.7,0-2c0.1-0.3,0-0.6-0.2-0.8
		c-0.6-0.9-3.8-1.1-3.8-1.1c-0.4,0-0.8,0.3-0.9,0.7C8,5.3,5.3,17.4,11.1,19.6c0,0,0.1,0,0.1,0c0.1,0,0.9,0.1,1.4,0
		c0.1,1.3,0.2,3.1,0.6,4.6c-0.5-0.1-1.2-0.2-1.8-0.2c-1.5,0-2.7,0.5-3.5,1.3c-1,1-1.4,2.6-1.3,4.8c0,0.2,0.7,6.1,5.2,10.3
		c0.8,0.7,1.4,1.3,1.8,1.9c0.1,0.2,0.3,0.3,0.5,0.3v2c0,0,0,0.1,0,0.1C14,44.8,14,44.8,14,44.9c-0.1,0.3-0.3,0.4-0.4,0.5
		c-0.3,0.2-0.9,0.1-1.1,0c-0.5-0.2-1.1,0.1-1.2,0.6c-0.2,0.5,0.1,1.1,0.6,1.2c0.1,0,0.6,0.2,1.2,0.2c0.4,0,0.9-0.1,1.4-0.3
		c0.2-0.1,0.3-0.2,0.5-0.3c0.2,0.1,0.3,0.2,0.5,0.3c0.5,0.2,0.9,0.3,1.4,0.3c0.6,0,1.1-0.2,1.2-0.2c0.5-0.2,0.8-0.7,0.6-1.2
		c-0.2-0.5-0.7-0.8-1.2-0.6c-0.2,0.1-0.7,0.2-1.1,0c-0.1-0.1-0.3-0.2-0.4-0.5c0,0,0,0,0,0c0-0.1,0.1-0.2,0.1-0.3v-2h0.4
		c0.5,0,0.9-0.4,1-0.9c0-0.2,0.1-0.5,0.2-0.7c0.4-1,0.6-3,0.5-4.9c1.3,1.2,3.2,2.5,5.4,3.3c0.1,0.1,0.2,0.1,0.3,0.1
		c0.3,0.1,0.5,0,0.8-0.1c2.2-0.7,4-2.1,5.4-3.3c-0.1,1.9,0,3.9,0.5,4.9c0.1,0.3,0.2,0.5,0.2,0.7c0.1,0.5,0.5,0.9,1,0.9h0.1v2
		c0,0,0,0.1,0,0.1c-0.1,0.1-0.1,0.2-0.1,0.2c-0.1,0.3-0.3,0.5-0.4,0.5c-0.3,0.2-0.9,0.1-1.1,0c-0.5-0.2-1.1,0.1-1.2,0.6
		c-0.2,0.5,0.1,1.1,0.6,1.2c0.1,0,0.6,0.2,1.2,0.2c0.4,0,0.9-0.1,1.4-0.3c0.2-0.1,0.3-0.2,0.5-0.3c0.2,0.1,0.3,0.2,0.5,0.3
		c0.5,0.2,0.9,0.3,1.4,0.3c0.6,0,1.1-0.2,1.2-0.2c0.5-0.2,0.8-0.7,0.6-1.2C36.1,45.6,35.5,45.3,35,45.5z"/>
</g>
</svg>
