<?xml version="1.0" encoding="utf-8"?>
<!-- Generator: Adobe Illustrator 18.0.0, SVG Export Plug-In . SVG Version: 6.00 Build 0)  -->
<!DOCTYPE svg PUBLIC "-//W3C//DTD SVG 1.1//EN" "http://www.w3.org/Graphics/SVG/1.1/DTD/svg11.dtd">
<svg version="1.1" id="Layer_1" xmlns="http://www.w3.org/2000/svg" xmlns:xlink="http://www.w3.org/1999/xlink" x="0px" y="0px"
	 viewBox="0 0 48 48" enable-background="new 0 0 48 48" xml:space="preserve">
<g>
	<path fill="#CFD0D1" d="M24,34.8c11.5,0,20.8-8.9,20.8-19.9H3.2C3.2,25.9,12.5,34.8,24,34.8z"/>
	<path fill="#F04B36" d="M36.3,37.9c-0.2-0.4-0.6-0.7-1.1-0.7h-9.7h-2.9h-9.7c-0.5,0-0.9,0.3-1.1,0.7l-4.2,8
		c-0.3,0.6-0.1,1.4,0.5,1.7c0.2,0.1,0.4,0.1,0.6,0.1c0.4,0,0.9-0.2,1.1-0.7l3.9-7.3h9h2.9h9l3.9,7.3c0.2,0.4,0.7,0.7,1.1,0.7
		c0.2,0,0.4,0,0.6-0.1c0.6-0.3,0.8-1.1,0.5-1.7L36.3,37.9z"/>
	<path fill="#F7A93B" d="M30.1,12.2c0.5,0,0.9-0.4,0.9-0.9V5.2c0-0.5-0.4-0.9-0.9-0.9c-0.5,0-0.9,0.4-0.9,0.9v6.1
		C29.2,11.8,29.6,12.2,30.1,12.2z"/>
	<path fill="#F7A93B" d="M24,12.2c0.5,0,0.9-0.4,0.9-0.9V1.2c0-0.5-0.4-0.9-0.9-0.9c-0.5,0-0.9,0.4-0.9,0.9v10.1
		C23.1,11.8,23.5,12.2,24,12.2z"/>
	<path fill="#F7A93B" d="M17.9,12.2c0.5,0,0.9-0.4,0.9-0.9V5.2c0-0.5-0.4-0.9-0.9-0.9c-0.5,0-0.9,0.4-0.9,0.9v6.1
		C17,11.8,17.4,12.2,17.9,12.2z"/>
</g>
</svg>
