<?xml version="1.0" encoding="utf-8"?>
<!-- Generator: Adobe Illustrator 18.0.0, SVG Export Plug-In . SVG Version: 6.00 Build 0)  -->
<!DOCTYPE svg PUBLIC "-//W3C//DTD SVG 1.1//EN" "http://www.w3.org/Graphics/SVG/1.1/DTD/svg11.dtd">
<svg version="1.1" id="Layer_1" xmlns="http://www.w3.org/2000/svg" xmlns:xlink="http://www.w3.org/1999/xlink" x="0px" y="0px"
	 viewBox="0 0 48 48" enable-background="new 0 0 48 48" xml:space="preserve">
<g>
	<path fill="none" d="M29.1,26.7c-0.4,0-0.7-0.1-0.9-0.1c-1.2-0.3-2.6-1.2-2.6-2.9c0-1.9-0.2-3.9-3.1-4.8c-0.3-0.1-0.5-0.2-0.8-0.2
		c-0.8-0.2-1.6-0.4-2-1c-0.3-0.3-0.7-1-0.8-1.4c0-0.1-0.1-0.3-0.1-0.4c0-0.4-0.1-0.8-0.3-1.1c-0.3-0.5-0.9-0.7-1.4-0.4
		c-0.5,0.3-0.6,0.8-0.4,1.3c0,0.1,0,0.2,0,0.4c0,0.3,0.1,0.6,0.2,0.9c0.2,0.7,0.7,1.5,1.2,2c0.9,0.9,2,1.3,3,1.5
		c0.2,0.1,0.5,0.1,0.7,0.2c1.4,0.5,1.7,1,1.7,3c0,2.3,1.7,4.3,4.2,4.8c0.3,0.1,0.7,0.1,1.1,0.2c3.3,0.4,3.6,0.9,3.6,1
		c0,0.5,0.5,0.9,1,0.9c0,0,0,0,0.1,0c0.5,0,0.9-0.5,0.9-1C34.2,27.3,31.1,26.9,29.1,26.7z"/>
	<path fill="#4DA0D8" d="M11.5,2c-0.2-0.3-0.4-0.4-0.7-0.5c-0.3,0-0.6,0.1-0.8,0.3l-9.2,9.4c-0.2,0.2-0.3,0.6-0.3,0.9
		c0.1,0.3,0.3,0.6,0.6,0.7c0.2,0.1,3.8,1.5,9,1.5c0.3,0,0.6,0,1,0l2.9-3.4C13.8,8.9,13.3,5,11.5,2z"/>
	<path fill="none" d="M29.1,26.7c-0.4,0-0.7-0.1-0.9-0.1c-1.2-0.3-2.6-1.2-2.6-2.9c0-1.9-0.2-3.9-3.1-4.8c-0.3-0.1-0.5-0.2-0.8-0.2
		c-0.8-0.2-1.6-0.4-2-1c-0.3-0.3-0.7-1-0.8-1.4c0-0.1-0.1-0.3-0.1-0.4c0-0.4-0.1-0.8-0.3-1.1c-0.3-0.5-0.9-0.7-1.4-0.4
		c-0.5,0.3-0.6,0.8-0.4,1.3c0,0.1,0,0.2,0,0.4c0,0.3,0.1,0.6,0.2,0.9c0.2,0.7,0.7,1.5,1.2,2c0.9,0.9,2,1.3,3,1.5
		c0.2,0.1,0.5,0.1,0.7,0.2c1.4,0.5,1.7,1,1.7,3c0,2.3,1.7,4.3,4.2,4.8c0.3,0.1,0.7,0.1,1.1,0.2c3.3,0.4,3.6,0.9,3.6,1
		c0,0.5,0.5,0.9,1,0.9c0,0,0,0,0.1,0c0.5,0,0.9-0.5,0.9-1C34.2,27.3,31.1,26.9,29.1,26.7z"/>
	<path fill="#E77528" d="M47.5,34.9c-0.1-0.3-0.4-0.6-0.8-0.7l-9.6-1.7l-3.2,2.8l1.6,10.3c0.1,0.4,0.3,0.7,0.7,0.8
		c0.1,0,0.2,0,0.3,0c0.3,0,0.5-0.1,0.7-0.3l10.1-10.3C47.5,35.6,47.6,35.2,47.5,34.9z"/>
	<path fill="#F04B36" d="M37.2,26.7c0-0.3-0.1-0.5-0.3-0.7L20.4,9.7c-0.2-0.2-0.6-0.3-0.9-0.3L14,10.9l-2.9,3.4v5.1
		c0,0.3,0.1,0.5,0.3,0.7l15.3,15.7c0.2,0.2,0.5,0.3,0.8,0.3l6.4-0.7l3.2-2.8L37.2,26.7z M33.5,30.5C33.5,30.5,33.4,30.5,33.5,30.5
		c-0.6,0-1-0.4-1-0.9c0-0.1-0.3-0.6-3.6-1c-0.5-0.1-0.8-0.1-1.1-0.2c-2.5-0.5-4.2-2.4-4.2-4.8c0-2-0.3-2.5-1.7-3
		c-0.2-0.1-0.5-0.1-0.7-0.2c-1-0.3-2.1-0.6-3-1.5c-0.5-0.5-1-1.4-1.2-2c-0.1-0.3-0.1-0.6-0.2-0.9c0-0.1,0-0.3,0-0.4
		c-0.3-0.5-0.1-1,0.4-1.3c0.5-0.3,1.1-0.1,1.4,0.4c0.2,0.4,0.2,0.8,0.3,1.1c0,0.2,0,0.4,0.1,0.4c0.2,0.4,0.5,1,0.8,1.4
		c0.5,0.5,1.2,0.7,2,1c0.3,0.1,0.5,0.1,0.8,0.2c2.9,0.9,3.1,2.9,3.1,4.8c0,1.7,1.4,2.6,2.6,2.9c0.2,0,0.6,0.1,0.9,0.1
		c2.1,0.3,5.2,0.7,5.3,2.8C34.4,30,34,30.5,33.5,30.5z"/>
</g>
</svg>
