<?xml version="1.0" encoding="utf-8"?>
<!-- Generator: Adobe Illustrator 18.0.0, SVG Export Plug-In . SVG Version: 6.00 Build 0)  -->
<!DOCTYPE svg PUBLIC "-//W3C//DTD SVG 1.1//EN" "http://www.w3.org/Graphics/SVG/1.1/DTD/svg11.dtd">
<svg version="1.1" id="Layer_1" xmlns="http://www.w3.org/2000/svg" xmlns:xlink="http://www.w3.org/1999/xlink" x="0px" y="0px"
	 viewBox="0 0 48 48" enable-background="new 0 0 48 48" xml:space="preserve">
<g>
	<path fill="#A61E23" d="M44.9,26.5c-0.3-3.9-3.5-7.1-7.6-7.8c-1.4-3.8-4.9-6.7-9.2-7.6c-1.2-2.2-3.7-3.8-6.6-3.8
		c-0.5,0-1,0-1.4,0.1c-0.6-4-4.2-6.7-4.4-6.8c-0.4-0.3-1.1-0.2-1.4,0.2c-0.3,0.4-0.2,1,0.2,1.4c0,0,3.3,2.4,3.6,5.8
		c-2.4,1.1-4,3.4-4,6c0,0.8,0.2,1.6,0.5,2.3c-0.6,0.9-1.1,1.9-1.4,2.9c-5.1-0.6-9.5,2.8-10.1,7.2H44.9z M21.5,9.3
		c2.3,0,4.2,1.3,5,3.1c0.1,0.3,0.2,0.6,0.3,0.8c0,0,0,0,0,0c0.1,0.3,0.1,0.6,0.1,0.9c0,2.7-2.4,4.8-5.4,4.8c-0.2,0-0.5,0-0.7,0
		c-0.1,0-0.1,0-0.2,0c-0.2,0-0.4-0.1-0.7-0.1c0,0,0,0,0,0c-0.2-0.1-0.5-0.1-0.7-0.2c0,0,0,0,0,0c-0.4-0.2-0.9-0.4-1.2-0.7
		c0,0,0,0,0,0c-0.6-0.4-1-1-1.4-1.7c0,0,0,0,0,0c-0.3-0.6-0.5-1.3-0.5-2C16.2,11.5,18.6,9.3,21.5,9.3z"/>
	<path fill="#4DA0D8" d="M46.5,29.2h-4.4H5.9H1.5c-0.5,0-1,0.4-1,1c0,0.5,0.4,1,1,1h3.8l6.5,15.7c0.2,0.4,0.5,0.6,0.9,0.6h22.7
		c0.4,0,0.8-0.2,0.9-0.6l6.5-15.7h3.8c0.5,0,1-0.4,1-1C47.5,29.7,47.1,29.2,46.5,29.2z M18.8,44.1c-0.1,0-0.2,0.1-0.3,0.1
		c-0.4,0-0.8-0.3-0.9-0.7l-3.4-9.8c-0.2-0.5,0.1-1.1,0.6-1.2c0.5-0.2,1.1,0.1,1.2,0.6l3.4,9.8C19.6,43.4,19.3,44,18.8,44.1z
		 M25,43.2c0,0.5-0.4,1-1,1c-0.5,0-1-0.4-1-1v-9.8c0-0.5,0.4-1,1-1c0.5,0,1,0.4,1,1V43.2z M33.8,33.7l-3.4,9.8
		c-0.1,0.4-0.5,0.7-0.9,0.7c-0.1,0-0.2,0-0.3-0.1c-0.5-0.2-0.8-0.7-0.6-1.2l3.4-9.8c0.2-0.5,0.7-0.8,1.2-0.6
		C33.7,32.7,34,33.2,33.8,33.7z"/>
</g>
</svg>
