<?xml version="1.0" encoding="utf-8"?>
<!-- Generator: Adobe Illustrator 18.0.0, SVG Export Plug-In . SVG Version: 6.00 Build 0)  -->
<!DOCTYPE svg PUBLIC "-//W3C//DTD SVG 1.1//EN" "http://www.w3.org/Graphics/SVG/1.1/DTD/svg11.dtd">
<svg version="1.1" id="Layer_1" xmlns="http://www.w3.org/2000/svg" xmlns:xlink="http://www.w3.org/1999/xlink" x="0px" y="0px"
	 viewBox="0 0 48 48" enable-background="new 0 0 48 48" xml:space="preserve">
<g>
	<path fill="#E77528" d="M47.5,16.4c-0.4-3.9-3.7-6.6-3.8-6.7c-0.2-0.1-0.4-0.2-0.6-0.2h-3.4c-0.1,0-0.1,0-0.2,0c-0.1,0-0.1,0-0.2,0
		L27.3,9.8c0,0,0,0,0,0l-12.2,0.3c0,0,0,0,0,0c-4.7,0.3-8.2,3.7-9.6,5.4c0,0-0.1,0.1-0.1,0.1c-0.3,0.3-0.5,0.6-0.7,0.8
		c-0.1,0.2-0.3,0.3-0.4,0.5c-0.2,0.2-0.3,0.4-0.4,0.6c-0.1,0.1-0.2,0.3-0.3,0.4c0,0-0.1,0.1-0.2,0.2c-0.2,0.2-0.6,0.4-0.8,0.9
		c-0.3,0.6-0.4,1.4-0.4,2c0,0.3-0.1,0.5-0.1,0.8c0,0.1-0.1,0.2-0.2,0.4c-0.2,0.2-0.3,0.5-0.4,1c-0.2,0.7,0.1,1.3,0.2,1.7
		c0,0.1,0.1,0.2,0.1,0.3c0.1,0.5,0.1,1.7,0,2.2c0,0,0,0,0,0c-0.3,0.1-0.7,0.3-1,0.8c-0.4,0.7-0.2,1.6,0,2.5l0.1,0.2
		c0.3,1.6,1.2,2.5,2,3.3c0.2,0.2,0.4,0.4,0.5,0.6c0.6,0.7,1.3,1.5,2.6,1.4c0.3,0,0.7-0.1,0.9-0.2c0.7,0.7,1.9,0.6,2.4,0.5
		c0.2,0,0.4-0.1,0.5-0.1c0.1,0,0.3,0.1,0.4,0.2c0.2,0.1,0.5,0.3,0.8,0.4c0.7,0.2,1.4,0.3,2.1,0.3c0.2,0,0.4,0,0.7,0
		c0.2,0,0.6,0,0.7,0c0.1,0,0.1,0.1,0.2,0.2c0.2,0.2,0.4,0.4,0.6,0.6c0.6,0.4,1.2,0.4,1.7,0.4c0.1,0,0.2,0,0.3,0l0.2,0
		c1.4,0,3,0,4.4-0.5c0.4-0.1,0.8-0.3,1.2-0.5c0.2,0,0.4-0.1,0.5-0.2c0.2-0.1,0.3-0.2,0.4-0.3l20.9-13.7c0.1,0,0.1-0.1,0.2-0.2
		C46.9,21,47.7,18.7,47.5,16.4z M7.7,16.3l5.6-1c-0.3,0.3-0.6,0.5-0.9,0.9c-0.3,0.3-0.8,0.9-1,0.9c-0.3,0-0.5,0.1-0.9,0.2
		c-0.7,0.1-1.5,0.3-2,0.3c-0.2,0-0.5-0.4-0.8-0.7c0,0,0,0,0,0C7.7,16.6,7.7,16.5,7.7,16.3z M25.5,29.9l-0.1-0.3
		c-0.2-0.7-0.5-1.8-1.5-2c-0.5-0.1-0.9-0.1-1.3,0c0-0.1,0-0.2,0-0.3c0.2-1.2,0.1-1.7-0.5-2.8L22,24.2c-0.4-0.7-0.8-1.6-2-1.6
		c0,0,0,0,0,0l-0.3,0c-1,0-2.7,0-3.5,1c-0.3,0.4-0.4,0.7-0.4,1c0,0.1,0,0.2-0.1,0.3c-0.1,0.3-0.3,0.5-0.4,0.8
		c-0.1,0.2-0.2,0.3-0.3,0.5c-0.2,0.3-0.3,0.7-0.4,1.1c-0.1,0.4-0.4,1.1-0.6,1.2c-0.1,0-0.5,0-0.6-0.1c0,0-0.1-0.1-0.1-0.2
		c-0.1-0.3-0.3-0.7-0.8-1c-0.5-0.3-1.1-0.2-1.6-0.1c-0.1,0-0.3,0-0.4,0c-2.1-0.1-2.5-0.6-2.6-0.7c0,0-0.1-0.2,0-0.6
		C7.9,25.6,8.6,25.1,9,25c0.1,0,0.1,0,0.5,0.1c0.1,0.1,0.3,0.1,0.4,0.2c1.6,0.6,2.4,0.1,2.8-0.3c0.2-0.3,0.3-0.5,0.3-0.8
		c0,0,0.1-0.1,0.1-0.1c0.1-0.1,0.2-0.1,0.2-0.1c0.1,0,0.1-0.1,0.2-0.1c0.5-0.3,1.7-1,1.4-2.3c-0.1-0.4-0.3-0.7-0.5-0.9
		c0.1,0,0.2,0,0.3,0c0.2,0,0.3,0,0.4,0c2.2,0.1,3.6-0.7,3.8-2.1c0.1-0.7-0.1-2.5-0.8-3.4c-0.3-0.3-0.6-0.5-0.9-0.6l3.7-0.7
		c1.8,1.3,3.6,3.2,5.3,5.8c3.4,5,1.5,9.6-0.6,12.5C25.9,31.3,25.7,30.5,25.5,29.9z M23.4,13.4c-0.7-0.6-1.3-1.1-2-1.5l5.4-0.1
		c0.2,0.2,0.5,0.5,0.8,0.9L23.4,13.4z"/>
</g>
</svg>
