<?xml version="1.0" encoding="utf-8"?>
<!-- Generator: Adobe Illustrator 18.0.0, SVG Export Plug-In . SVG Version: 6.00 Build 0)  -->
<!DOCTYPE svg PUBLIC "-//W3C//DTD SVG 1.1//EN" "http://www.w3.org/Graphics/SVG/1.1/DTD/svg11.dtd">
<svg version="1.1" id="Layer_1" xmlns="http://www.w3.org/2000/svg" xmlns:xlink="http://www.w3.org/1999/xlink" x="0px" y="0px"
	 viewBox="0 0 48 48" enable-background="new 0 0 48 48" xml:space="preserve">
<g>
	<path fill="#F7A93B" d="M45.5,22.4c-2.3-2.6-7.1-3.1-10-4.8c-4.3-2.6-5.4-5.4-11-5.4c-4.6,0-7.6,1-10.8,4.1
		c-2.8,2.7-7.1,3.8-9.6,6.5c-9.7,6.6,2.2,12.9,9.3,12.9c7.6,0.1,15.4-0.6,23.1-1c3.6-0.2,8.8,0,10.6-3.9
		C48.1,28.7,47.1,24.2,45.5,22.4z M23.3,27.5c-4.5,0-8.1-2.5-8.1-5.6c0-3.1,3.6-5.6,8.1-5.6c4.5,0,8.1,2.5,8.1,5.6
		C31.4,25,27.7,27.5,23.3,27.5z"/>
</g>
</svg>
