<?xml version="1.0" encoding="utf-8"?>
<!-- Generator: Adobe Illustrator 18.0.0, SVG Export Plug-In . SVG Version: 6.00 Build 0)  -->
<!DOCTYPE svg PUBLIC "-//W3C//DTD SVG 1.1//EN" "http://www.w3.org/Graphics/SVG/1.1/DTD/svg11.dtd">
<svg version="1.1" id="Layer_1" xmlns="http://www.w3.org/2000/svg" xmlns:xlink="http://www.w3.org/1999/xlink" x="0px" y="0px"
	 viewBox="0 0 48 48" enable-background="new 0 0 48 48" xml:space="preserve">
<g>
	<path fill="#F04B36" d="M24,38.5c-2.7,0-5.2-0.4-7.6-1c-1.7,0.9-3.6,1.8-5.7,2.7l0.5,0.3c3.6,1.7,8.1,2.6,12.7,2.6
		c3.9,0,7.6-0.6,10.8-1.8l2.5-1c-2.1-0.9-4-1.8-5.8-2.8C29.2,38.1,26.7,38.5,24,38.5z"/>
	<path fill="#F04B36" d="M4.6,34.7c1.6-0.6,3-1.2,4.3-1.8l-0.5-0.7c-1.7-2.5-2.7-5.8-2.7-9.2c0-7.5,4.5-13.6,10-13.6
		c4.4,0,8.2,3.8,9.5,9.3c0,0,0.3,1.6-0.5,3.6l-0.1,0.4c0.5,1,1.4,2.1,2.7,3.1c0.2,0.2,0.5,0.3,0.7,0.5l0.9-2
		c1.4-3.5,0.9-6.3,0.8-6.7c-1.9-7.7-7.5-12.9-14-12.9C7.8,4.9,1.2,13,1.2,23C1.2,27.4,2.4,31.4,4.6,34.7L4.6,34.7z"/>
	<path fill="#C52727" d="M22.8,31.6c-1.2-1-2.5-2.2-3.2-3.3l-1.3,0.9c-4.4,3-8.8,5.2-16.3,8c-0.6,0.2-1,0.6-1.3,1.2
		c-0.3,0.6-0.3,1.2-0.1,1.8c0.3,0.9,1.2,1.5,2.2,1.5c0.3,0,0.5,0,0.8-0.1c8.1-3,12.9-5.4,17.8-8.8L22.8,31.6z"/>
	<path fill="#C52727" d="M28.3,10.6l0.6-0.3c1.1-0.5,2.2-0.8,3.3-0.8c5.5,0,10,6.1,10,13.6c0,3.2-0.8,6.3-2.4,8.7L39.1,33
		c1.3,0.6,2.7,1.2,4.3,1.8l0.4-0.7c1.9-3.2,3-7,3-11c0-10-6.6-18.2-14.6-18.2c-1.9,0-3.8,0.4-5.5,1.3l-1.5,0.9
		C26.3,8.1,27.4,9.3,28.3,10.6z"/>
	<path fill="#F04B36" d="M47.3,38.5c-0.3-0.6-0.7-1-1.3-1.2c-7.9-2.9-12.5-5.2-17.3-8.7l0,0c0,0-0.4-0.3-0.9-0.7
		c-0.2-0.2-0.4-0.3-0.7-0.5c-0.2-0.2-0.4-0.3-0.5-0.4c0,0,0,0,0,0c-0.3-0.2-0.6-0.5-0.9-0.7c-0.1-0.1-0.1-0.1-0.2-0.2
		c-0.2-0.2-0.4-0.4-0.6-0.6c-0.1-0.1-0.1-0.1-0.2-0.2c-0.2-0.2-0.4-0.5-0.5-0.7c0-0.1-0.1-0.1-0.1-0.2c-0.2-0.3-0.4-0.6-0.5-0.9
		c0,0,0,0,0,0l-0.3-0.5l0,0c-0.9-2.2-0.6-3.9-0.6-3.9c0.1-0.6,0.3-1.2,0.6-1.9l0-0.1c-0.8-1.8-1.9-3.4-3.2-4.4l-0.9,2.3
		c-0.4,1-0.8,2.1-1,3.1c-0.1,0.3-1.5,7.2,5.6,12.8c6.1,4.7,11.1,7.4,20.6,10.9c0.3,0.1,0.5,0.1,0.8,0.1c1,0,1.8-0.6,2.2-1.5
		C47.6,39.6,47.5,39,47.3,38.5z"/>
</g>
</svg>
