<?xml version="1.0" encoding="utf-8"?>
<!-- Generator: Adobe Illustrator 18.0.0, SVG Export Plug-In . SVG Version: 6.00 Build 0)  -->
<!DOCTYPE svg PUBLIC "-//W3C//DTD SVG 1.1//EN" "http://www.w3.org/Graphics/SVG/1.1/DTD/svg11.dtd">
<svg version="1.1" id="Layer_1" xmlns="http://www.w3.org/2000/svg" xmlns:xlink="http://www.w3.org/1999/xlink" x="0px" y="0px"
	 viewBox="0 0 48 48" enable-background="new 0 0 48 48" xml:space="preserve">
<g>
	<path fill="#CFD0D1" d="M34.1,15.9c0-0.4,0-0.7,0-1.1c0-7.9-4.5-14.3-10.1-14.3c-5.6,0-10.1,6.4-10.1,14.3c0,0.4,0,0.7,0,1.1H34.1z
		"/>
	<path fill="#F04B36" d="M40.2,20.8c0-0.5-0.4-1-1-1H8.8c-0.5,0-1,0.4-1,1c0,8.5,6.5,15.4,14.8,16.1v8.6h-3.8c-0.5,0-1,0.4-1,1
		s0.4,1,1,1h10.3c0.5,0,1-0.4,1-1s-0.4-1-1-1h-3.8v-8.6C33.6,36.2,40.2,29.3,40.2,20.8z"/>
</g>
</svg>
