<?xml version="1.0" encoding="utf-8"?>
<!-- Generator: Adobe Illustrator 18.0.0, SVG Export Plug-In . SVG Version: 6.00 Build 0)  -->
<!DOCTYPE svg PUBLIC "-//W3C//DTD SVG 1.1//EN" "http://www.w3.org/Graphics/SVG/1.1/DTD/svg11.dtd">
<svg version="1.1" id="Layer_1" xmlns="http://www.w3.org/2000/svg" xmlns:xlink="http://www.w3.org/1999/xlink" x="0px" y="0px"
	 viewBox="0 0 48 48" enable-background="new 0 0 48 48" xml:space="preserve">
<g>
	<path fill="#06728D" d="M27.8,32.8c0-0.6-0.3-1-0.9-1.3c5.8-3.2,9.5-9.4,9.5-16.2c0-0.5-0.4-1-1-1h-34c-0.5,0-1,0.4-1,1
		c0,6.8,3.7,13,9.5,16.2c-0.5,0.3-0.9,0.7-0.9,1.3c0,2.3,5.8,2.6,9.3,2.6C21.9,35.4,27.8,35.1,27.8,32.8z"/>
	<path fill="#F7A93B" d="M24.2,11.9c0.5,0,1-0.4,1-1V5.4c0-0.5-0.4-1-1-1c-0.5,0-1,0.4-1,1v5.5C23.2,11.5,23.7,11.9,24.2,11.9z"/>
	<path fill="#F7A93B" d="M18.5,11.9c0.5,0,1-0.4,1-1V1.5c0-0.5-0.4-1-1-1c-0.5,0-1,0.4-1,1v9.5C17.5,11.5,17.9,11.9,18.5,11.9z"/>
	<path fill="#F7A93B" d="M12.7,11.9c0.5,0,1-0.4,1-1V5.4c0-0.5-0.4-1-1-1c-0.5,0-1,0.4-1,1v5.5C11.8,11.5,12.2,11.9,12.7,11.9z"/>
	<path fill="#F04B36" d="M47.4,30.8c-0.2-0.5-0.7-0.8-1.2-0.6l-11.6,4.1l10.1-7.9c0.4-0.3,0.5-0.9,0.2-1.4c-0.3-0.4-0.9-0.5-1.4-0.2
		L28.8,36.3l-15.1,5.4c-0.5,0.2-0.8,0.7-0.6,1.2c0.1,0.4,0.5,0.7,0.9,0.7c0.1,0,0.2,0,0.3-0.1l9.6-3.4l-7.2,5.6
		c-0.4,0.3-0.5,0.9-0.2,1.4c0.2,0.2,0.5,0.4,0.8,0.4c0.2,0,0.4-0.1,0.6-0.2l11.8-9.2L46.8,32C47.4,31.8,47.6,31.3,47.4,30.8z"/>
</g>
</svg>
