<?xml version="1.0" encoding="utf-8"?>
<!-- Generator: Adobe Illustrator 18.0.0, SVG Export Plug-In . SVG Version: 6.00 Build 0)  -->
<!DOCTYPE svg PUBLIC "-//W3C//DTD SVG 1.1//EN" "http://www.w3.org/Graphics/SVG/1.1/DTD/svg11.dtd">
<svg version="1.1" id="Layer_1" xmlns="http://www.w3.org/2000/svg" xmlns:xlink="http://www.w3.org/1999/xlink" x="0px" y="0px"
	 viewBox="0 0 48 48" enable-background="new 0 0 48 48" xml:space="preserve">
<g>
	<path fill="#E77528" d="M34.3,7.8c0-0.3-0.2-0.7-0.5-0.8c-1.4-0.7-3.5-1.5-6.1-2c0-0.1,0-0.2,0-0.3c0-2.3-2-4.2-4.4-4.2
		c-2.4,0-4.4,1.9-4.4,4.2c0,0.1,0,0.2,0,0.2c-1.9,0.3-3.8,0.9-5.7,1.7c-0.4,0.2-0.6,0.5-0.6,0.9c-0.9,0.7-1.4,1.7-1.5,2.7
		c-0.2,0.3-0.5,1-1,2H6.2c-3.1,0-5.7,2-5.7,4.5v15.9c0,2.5,2.3,4.5,5.2,4.5h0.7c0.3,3.6,0.7,5.5,0.9,6c0.1,2.4,2.7,4.4,6,4.4h20.4
		c3.2,0,5.9-1.9,6-4.4c0.2-0.8,1.2-5.2,1.2-14.6c0-8.2-4.4-16.8-5.2-18.3C35.5,9.4,35.1,8.5,34.3,7.8z M6,28.3c0,2.7,0.1,5,0.2,6.9
		H5.7c-1.7,0-3.2-1.2-3.2-2.5V16.7c0-1.4,1.7-2.5,3.7-2.5h3.2C7.8,17.7,6,23.1,6,28.3z M23.5,8.8c-3.6,0-6.3-0.5-7.7-1
		c1.5-0.5,2.9-0.9,4.5-1.1c0.3,0,0.6-0.2,0.7-0.5c0.2-0.3,0.2-0.6,0.1-0.8c-0.1-0.2-0.1-0.5-0.1-0.7c0-1.2,1.1-2.2,2.4-2.2
		c1.3,0,2.4,1,2.4,2.2c0,0.3-0.1,0.5-0.2,0.8c-0.1,0.3-0.1,0.6,0.1,0.9c0.1,0.3,0.4,0.4,0.7,0.5c1.7,0.3,3.3,0.7,4.5,1.2
		C29.1,8.5,26.4,8.8,23.5,8.8z"/>
	<path fill="#06728D" d="M47.3,10.8c-0.2-0.2-0.5-0.4-0.8-0.4l-8.9-0.3c0,0,0,0,0,0c0,0.1,0.1,0.2,0.2,0.3c0,0.1,0.1,0.1,0.1,0.2
		c1.2,2.3,3.3,7.1,4.3,12.5c0.4,1.7,0.5,3.5,0.5,5.3c0,0,0,0,0,0l4.7-16.7C47.5,11.3,47.5,11,47.3,10.8z"/>
</g>
</svg>
