<?xml version="1.0" encoding="utf-8"?>
<!-- Generator: Adobe Illustrator 18.0.0, SVG Export Plug-In . SVG Version: 6.00 Build 0)  -->
<!DOCTYPE svg PUBLIC "-//W3C//DTD SVG 1.1//EN" "http://www.w3.org/Graphics/SVG/1.1/DTD/svg11.dtd">
<svg version="1.1" id="Layer_1" xmlns="http://www.w3.org/2000/svg" xmlns:xlink="http://www.w3.org/1999/xlink" x="0px" y="0px"
	 viewBox="0 0 48 48" enable-background="new 0 0 48 48" xml:space="preserve">
<g>
	<path fill="#F04B36" d="M47.5,25c-0.2-0.5-0.7-0.8-1.2-0.6l-0.4,0.1c-0.3,0.1-0.6,0.2-0.9,0.3c-0.6,0.2-1.1,0.6-1.6,1
		c-1.2,1-2.1,1.6-3.5,0.9c-2.1-1.1-3-1.4-5.1-0.1c-1.1,0.6-2,1.1-3.3,1c-0.7-0.1-1.2-0.3-1.7-0.6c-0.3-0.2-0.6-0.3-0.9-0.4
		c-1-0.3-1.8,0-2.7,0.5c-0.6,0.3-1.4,0.7-2.3,0.7l-0.1,0c-1,0-1.8-0.5-2.6-1c-0.8-0.5-1.6-1-2.7-0.8c-0.4,0.1-0.8,0.4-1.2,0.6
		c-0.4,0.3-0.8,0.6-1.3,0.7c-1.1,0.3-2-0.5-2.8-1l-0.1-0.1c-0.1-0.1-0.3-0.2-0.4-0.3c-0.7-0.6-1.3-1-1.9-1c-0.6,0-0.9,0.3-1.4,0.7
		c-0.3,0.3-0.7,0.6-1.2,0.8c-1.2,0.5-2.8-0.3-3.1-0.5c-1.9-1-2.5-1.7-2.8-2.2C2.1,23.2,1.5,23,1,23.3c-0.5,0.2-0.7,0.8-0.4,1.3
		c0.6,1.1,1.7,2.1,3.6,3.1C4.9,28,7,29,9,28.3c0.8-0.3,1.4-0.8,1.8-1.1c0.1-0.1,0.1-0.1,0.2-0.1c0.2,0.1,0.5,0.3,0.6,0.5
		c0.2,0.1,0.3,0.2,0.4,0.3l0.1,0.1c0.9,0.7,2.5,1.8,4.4,1.4c0.9-0.2,1.5-0.7,2-1c0.2-0.1,0.4-0.3,0.5-0.3c0.2-0.1,0.4,0,1.2,0.5
		c0.9,0.5,2,1.2,3.6,1.2l0.2,0c1.3,0,2.3-0.5,3-0.9c0.9-0.4,1-0.4,1.2-0.4c0.1,0,0.3,0.1,0.6,0.3c0.5,0.3,1.4,0.8,2.5,0.8
		c1.9,0.1,3.1-0.5,4.4-1.2c1.3-0.8,1.4-0.7,3.2,0.2c2.7,1.4,4.7-0.2,5.7-1.1c0.4-0.3,0.7-0.6,1-0.7c0.3-0.1,0.5-0.2,0.8-0.3l0.4-0.1
		C47.3,26.1,47.6,25.6,47.5,25z"/>
	<path fill="#06728D" d="M44.7,32.7c-0.3-0.2-0.7-0.2-1.1,0c-1.6,1.1-3.2,1.1-4.9,0.3c-1.1-0.6-1.4-0.6-1.6-0.7
		c-0.2,0-0.4,0-0.6,0.1c-0.1,0-0.3,0.1-0.7,0.4c-1.1,0.7-2.4,1.3-4.1,1.3c-0.2,0-0.3,0-0.5,0c-1.2-0.1-2-0.6-2.6-0.9l-0.2-0.1
		c-0.3-0.1-0.6-0.2-0.9,0c-0.2,0.1-0.4,0.2-0.5,0.2c-0.7,0.3-1.8,0.9-3.1,0.9l-0.2,0c-1.7,0-2.9-0.8-3.8-1.3l-0.3-0.2
		c-0.3-0.2-0.7-0.2-1.1,0c-0.5,0.3-1.2,0.8-2.1,1.1c-0.3,0.1-0.7,0.1-1,0.1c-1.6,0-2.9-1-3.7-1.6l-0.4-0.3c-0.3-0.3-0.8-0.3-1.2,0
		c-0.4,0.3-0.9,0.5-1.3,0.7c-0.5,0.2-1,0.3-1.6,0.3c-1.4,0-2.7-0.5-3.3-0.8c-0.1-0.1-0.3-0.1-0.4-0.1c-0.3,0-0.6,0.1-0.8,0.2
		c-0.2,0.2-0.3,0.5-0.3,0.7v0.2c0,0.1,0,0.2,0,0.2l1.9,8c0.1,0.4,0.5,0.8,1,0.8h37.4c0.5,0,0.9-0.4,1-0.8l1.2-7.8
		C45.2,33.3,45,32.9,44.7,32.7z"/>
	<path fill="#0DB89A" d="M3.8,19.2c0.5,0.2,1,0.6,1.3,1.1c0.1,0.1,0.1,0.2,0.2,0.2c0.2,0.1,0.6,0.4,1.1,0.7c0.1,0,0.2,0.1,0.3,0.1
		c0.3,0.1,0.7,0.1,1-0.2c0.8-0.6,1.8-1.3,3.2-1.3c1.6,0,2.9,1,3.7,1.7l0.3,0.3c0.3,0.3,0.8,0.3,1.1,0c0.4-0.3,1.1-0.7,1.9-0.9
		c0.4-0.1,0.8-0.1,1.1-0.1c1.6,0,2.8,0.7,3.7,1.3c0.2,0.1,0.5,0.3,0.6,0.4c0.1,0.1,0.3,0.1,0.4,0.1c0.1,0,0.2,0,0.4-0.1
		c0.1-0.1,0.4-0.2,0.7-0.3c0.8-0.4,1.8-0.9,3.1-0.9c0.5,0,1.1,0.1,1.6,0.3c0.6,0.2,1.2,0.5,1.6,0.7l0.1,0.1c0.2,0.1,0.5,0.1,0.7,0.1
		c0.2-0.1,0.5-0.2,1.1-0.5c1.4-0.8,2.6-1.2,3.8-1.2c1,0,2,0.3,3.3,0.9c0.3,0.2,0.8,0.1,1.1-0.1c0.7-0.6,1.5-1.2,2.5-1.6
		c0.3-0.1,0.5-0.2,0.8-0.3l0.1,0c0.3-0.1,0.6-0.4,0.6-0.7c0.1-0.3,0-0.7-0.2-0.9C43.5,16,34.1,5.6,23.3,5.6
		c-10.2,0-17.8,9.2-19.9,12.1c-0.2,0.2-0.2,0.5-0.2,0.8C3.3,18.8,3.5,19.1,3.8,19.2z M28.2,10.3c0.4-0.3,1.1,0.1,1.6,0.9
		c0.4,0.8,0.5,1.7,0,2.1c-0.4,0.3-1.1-0.1-1.6-0.9C27.8,11.6,27.7,10.6,28.2,10.3z M24.4,11c0.5,0,0.9,0.8,0.9,1.8
		c0,1-0.4,1.8-0.9,1.8c-0.5,0-0.9-0.8-0.9-1.8C23.5,11.8,23.9,11,24.4,11z M19,11.2c0.4-0.8,1.1-1.2,1.6-0.9c0.4,0.3,0.4,1.2,0,2.1
		c-0.4,0.8-1.1,1.2-1.6,0.9C18.5,12.9,18.6,12,19,11.2z"/>
</g>
</svg>
