<?xml version="1.0" encoding="utf-8"?>
<!-- Generator: Adobe Illustrator 18.0.0, SVG Export Plug-In . SVG Version: 6.00 Build 0)  -->
<!DOCTYPE svg PUBLIC "-//W3C//DTD SVG 1.1//EN" "http://www.w3.org/Graphics/SVG/1.1/DTD/svg11.dtd">
<svg version="1.1" id="Layer_1" xmlns="http://www.w3.org/2000/svg" xmlns:xlink="http://www.w3.org/1999/xlink" x="0px" y="0px"
	 viewBox="0 0 48 48" enable-background="new 0 0 48 48" xml:space="preserve">
<g>
	<path fill="#0DB89A" d="M24,13.2c-10,0-18.1,8.8-18.1,19.6h36.1C42.1,21.9,34,13.2,24,13.2z"/>
	<polygon fill="#E8B944" points="2.2,35.6 4.4,47.7 43.6,47.7 45.8,35.6 	"/>
	<path fill="#E77528" d="M28.7,10.4c0.5,0,0.9-0.4,0.9-0.9V4.4c0-0.5-0.4-0.9-0.9-0.9c-0.5,0-0.9,0.4-0.9,0.9v5.1
		C27.7,10,28.1,10.4,28.7,10.4z"/>
	<path fill="#E77528" d="M24,10.4c0.5,0,0.9-0.4,0.9-0.9V1.3c0-0.5-0.4-0.9-0.9-0.9c-0.5,0-0.9,0.4-0.9,0.9v8.2
		C23.1,10,23.5,10.4,24,10.4z"/>
	<path fill="#E77528" d="M19.3,10.4c0.5,0,0.9-0.4,0.9-0.9V4.4c0-0.5-0.4-0.9-0.9-0.9c-0.5,0-0.9,0.4-0.9,0.9v5.1
		C18.4,10,18.8,10.4,19.3,10.4z"/>
</g>
</svg>
