<?xml version="1.0" encoding="utf-8"?>
<!-- Generator: Adobe Illustrator 18.0.0, SVG Export Plug-In . SVG Version: 6.00 Build 0)  -->
<!DOCTYPE svg PUBLIC "-//W3C//DTD SVG 1.1//EN" "http://www.w3.org/Graphics/SVG/1.1/DTD/svg11.dtd">
<svg version="1.1" id="Layer_1" xmlns="http://www.w3.org/2000/svg" xmlns:xlink="http://www.w3.org/1999/xlink" x="0px" y="0px"
	 viewBox="0 0 48 48" enable-background="new 0 0 48 48" xml:space="preserve">
<g>
	<path fill="#E77528" d="M47.1,30.4c0-0.1-4.7-10.3-16.7-7.6c-1.1,1.5-2.2,2.4-2.4,2.6c-0.2,0.2-0.5,0.3-0.7,0.4
		c0,0-2.5,1.1-4.2,3.4c0.1,0,0.2-0.1,0.3-0.1l1.3-0.3c0.5-0.1,1,0.2,1.2,0.7c0.1,0.5-0.2,1-0.7,1.2l-1.3,0.3c-0.1,0-0.1,0-0.2,0
		c-0.5,0-0.9-0.3-1-0.8c0-0.1,0-0.2,0-0.3c-0.3,0.5-0.5,1-0.7,1.6c-1.4,4.8-4.8,8.2-8.1,10.2c0.4,0,0.7,0,1.1,0
		c2.2,0,4.8-0.4,7.4-1.9c4.4-2.5,9.5-0.4,9.5-0.4c0.1,0,0.2,0.1,0.3,0.1c0.2,0,5.7,0.6,10.3-3.8c0,0,1.2-0.9,2.6-1.1
		c1.4-0.2,2-0.8,2.2-1.3C47.9,32,47.1,30.5,47.1,30.4z M24.3,35.3l-1.3,0.3c-0.1,0-0.1,0-0.2,0c-0.4,0-0.9-0.3-1-0.8
		c-0.1-0.5,0.2-1,0.7-1.2l1.3-0.3c0.5-0.1,1.1,0.2,1.2,0.7C25.2,34.6,24.9,35.1,24.3,35.3z M29.8,27.8l1.3-0.3
		c0.5-0.1,1,0.2,1.2,0.7c0.1,0.5-0.2,1-0.7,1.2l-1.3,0.3c-0.1,0-0.1,0-0.2,0c-0.5,0-0.9-0.3-1-0.8C29,28.4,29.3,27.9,29.8,27.8z
		 M31.7,34.3C31.7,34.3,31.7,34.3,31.7,34.3l-1.3,0c-0.5,0-1-0.5-1-1c0-0.5,0.5-0.9,1-1l1.3,0c0.5,0,1,0.5,1,1
		C32.7,33.9,32.2,34.3,31.7,34.3z M38.2,31.2C38.2,31.2,38.2,31.2,38.2,31.2l-1.3,0c-0.5,0-1-0.5-1-1c0-0.5,0.4-0.9,1-1l1.3,0
		c0.5,0,1,0.5,1,1C39.2,30.8,38.7,31.2,38.2,31.2z"/>
	<path fill="#06728D" d="M33.2,8.7c-0.4-1.4-2-1.9-2.1-2c-0.1,0-2.1-0.8-4.9-0.8c-3.6,0-8.7,1.3-12.5,7.3c0,0,0,0.1-0.1,0.1
		c0,0-2.2,4.9-6.7,7.5C1.6,23.8-0.6,33.7,1,38c1,2.7,2.8,4.1,5.3,4.1h0c1,0,2.1-0.2,3.4-0.7c3.7-1.3,8.6-4.9,10.2-10.5
		c1.4-4.9,6.5-7,6.5-7c0.1,0,0.2-0.1,0.2-0.1c0.2-0.1,4.5-3.6,4.7-9.9c0,0,0.2-1.5,1.1-2.6C33.4,10.2,33.4,9.3,33.2,8.7z M8.9,34.9
		L8.3,36c-0.2,0.3-0.5,0.5-0.9,0.5c-0.2,0-0.3,0-0.5-0.1c-0.5-0.3-0.7-0.9-0.4-1.3L7.2,34c0.3-0.5,0.9-0.6,1.3-0.4
		C9,33.9,9.2,34.5,8.9,34.9z M9.5,28.5l-0.6,1.1c-0.2,0.3-0.5,0.5-0.9,0.5c-0.2,0-0.3,0-0.5-0.1c-0.5-0.3-0.6-0.9-0.4-1.3l0.6-1.1
		c0.3-0.5,0.9-0.6,1.3-0.4C9.6,27.4,9.8,28,9.5,28.5z M13.5,31.3l-0.6,1.1C12.7,32.8,12.4,33,12,33c-0.2,0-0.3,0-0.5-0.1
		c-0.5-0.3-0.7-0.9-0.4-1.3l0.6-1.1c0.3-0.5,0.9-0.7,1.3-0.4C13.6,30.3,13.8,30.9,13.5,31.3z M13.5,23.5l-0.9,0.9
		c-0.2,0.2-0.4,0.3-0.7,0.3c-0.3,0-0.5-0.1-0.7-0.3c-0.4-0.4-0.4-1,0-1.4l0.9-0.9c0.4-0.4,1-0.4,1.4,0
		C13.9,22.5,13.9,23.1,13.5,23.5z M16.9,26.6l-0.6,1.1c-0.2,0.3-0.5,0.5-0.9,0.5c-0.2,0-0.3,0-0.5-0.1c-0.5-0.3-0.6-0.9-0.4-1.3
		l0.6-1.1c0.3-0.5,0.9-0.6,1.3-0.4C16.9,25.5,17.1,26.1,16.9,26.6z M17.5,18.9c-0.3,0-0.5-0.1-0.7-0.3c-0.4-0.4-0.4-1,0-1.4l0.9-0.9
		c0.4-0.4,1-0.4,1.4,0c0.4,0.4,0.4,1,0,1.4l-0.9,0.9C18,18.8,17.7,18.9,17.5,18.9z M21.4,21.6l-0.9,0.8c-0.2,0.2-0.4,0.3-0.7,0.3
		c-0.3,0-0.5-0.1-0.7-0.3c-0.4-0.4-0.3-1,0.1-1.4l0.9-0.8c0.4-0.4,1-0.3,1.4,0.1C21.9,20.6,21.8,21.2,21.4,21.6z M21.9,14.3
		c-0.3,0-0.5-0.1-0.7-0.3c-0.4-0.4-0.4-1,0-1.4l0.9-0.9c0.4-0.4,1-0.4,1.4,0c0.4,0.4,0.4,1,0,1.4L22.6,14
		C22.4,14.2,22.2,14.3,21.9,14.3z M25.7,16.9l-0.9,0.8c-0.2,0.2-0.4,0.3-0.7,0.3c-0.3,0-0.5-0.1-0.7-0.3c-0.4-0.4-0.3-1,0.1-1.4
		l0.9-0.8c0.4-0.4,1-0.3,1.4,0.1C26.1,15.9,26.1,16.6,25.7,16.9z"/>
</g>
</svg>
