<?xml version="1.0" encoding="utf-8"?>
<!-- Generator: Adobe Illustrator 18.0.0, SVG Export Plug-In . SVG Version: 6.00 Build 0)  -->
<!DOCTYPE svg PUBLIC "-//W3C//DTD SVG 1.1//EN" "http://www.w3.org/Graphics/SVG/1.1/DTD/svg11.dtd">
<svg version="1.1" id="Layer_1" xmlns="http://www.w3.org/2000/svg" xmlns:xlink="http://www.w3.org/1999/xlink" x="0px" y="0px"
	 viewBox="0 0 48 48" enable-background="new 0 0 48 48" xml:space="preserve">
<g>
	<path fill="#F7A93B" d="M27.5,1.3c-0.8-0.5-1.6-0.8-2.5-0.8c-1.3,0-2.2,0.6-2.5,0.8c-1.4,0.7-17.3,8.2-20.2,11
		c-1,1-1.5,2.1-1.4,3.3C1,17.7,3,19.1,3.2,19.3c0.1,0.1,0.2,0.1,0.2,0.1c0,0,2.8,1,7.9,5.2c4.8,4,8.2,7.4,8.2,7.4
		c0.2,0.2,0.4,0.3,0.7,0.3c0.1,0,0.3,0,0.4-0.1c1.9-0.8,7.5-3.2,7.6-3.2c0.4-0.2,0.6-0.5,0.6-0.9l-0.9-26
		C27.9,1.8,27.8,1.5,27.5,1.3z"/>
	<path fill="#F04B36" d="M14.9,43.1c-1.1-0.9-1.8-3.8-2.2-6.4c-1-0.1-1.8-0.5-2.4-0.8c-0.7-0.3-1-0.5-1.4-0.5c-0.1,0-0.1,0-0.2,0
		c-0.7,0.1-1.4,0.3-2.2,0.5c-1,0.3-2,0.5-3.1,0.6c1.2,4.9,5.3,9.2,7.7,10.4c0.7,0.4,1.5,0.6,2.3,0.6h0c1.4,0,2.4-0.6,2.7-1.5
		C16.4,45.4,16.5,44.4,14.9,43.1z"/>
	<path fill="#E77528" d="M2.8,21.3c0,0-0.1,0-0.1-0.1c-1.5,3.8-2.6,9.7-2,11.6c0.7,2.5,3.3,1.8,5.4,1.2c0.8-0.2,1.7-0.4,2.4-0.5
		c1.1-0.1,1.9,0.2,2.7,0.6c0.6,0.3,1.4,0.7,2.2,0.7c0.5,0,1-0.1,1.5-0.4c0.9-0.5,1.6-1.2,2.2-2.1c-1.3-1.3-3.8-3.6-7-6.2
		C5.5,22.3,2.8,21.3,2.8,21.3z"/>
	<path fill="#F04B36" d="M44.4,16.4c-0.2,0.4-0.4,0.8-0.6,1.2c-1.2,2.1-3.1,5.4-3.8,6.6c0.9,1,1.9,2.1,2.3,3.1
		c1,2.1,1.9,3.7,1.9,3.8c0.2,0.3,0.4,0.5,0.8,0.5c0,0,0.1,0,0.1,0c0.3,0,0.6-0.1,0.7-0.3C49.5,26.9,46.3,19.9,44.4,16.4z"/>
	<path fill="#E77528" d="M42.7,11.3C42.7,11.2,42.6,11.2,42.7,11.3C39,6.5,33.4,5.2,30,4.9l0.7,19.3c1.4,0.1,3.1,0.2,3.9,0.4
		c0.4,0.1,0.8,0.1,1.1,0.1c1.4,0,2.1-0.7,2.3-1.2c0,0,2.5-4.5,4.1-7.1C43.9,13.5,42.8,11.5,42.7,11.3z"/>
</g>
</svg>
