<?xml version="1.0" encoding="utf-8"?>
<!-- Generator: Adobe Illustrator 18.0.0, SVG Export Plug-In . SVG Version: 6.00 Build 0)  -->
<!DOCTYPE svg PUBLIC "-//W3C//DTD SVG 1.1//EN" "http://www.w3.org/Graphics/SVG/1.1/DTD/svg11.dtd">
<svg version="1.1" id="Layer_1" xmlns="http://www.w3.org/2000/svg" xmlns:xlink="http://www.w3.org/1999/xlink" x="0px" y="0px"
	 viewBox="0 0 48 48" enable-background="new 0 0 48 48" xml:space="preserve">
<g>
	<path fill="#F04B36" d="M26.7,27.2l-5.9-5.9c-1.7-1.7-4-2.7-6.2-2.7c-1.7,0-3.2,0.6-4.3,1.7c-2.6,2.6-2.2,7.3,1,10.5l5.9,5.9
		c1.7,1.7,4,2.7,6.2,2.7c1.7,0,3.2-0.6,4.3-1.7c1.3-1.3,1.9-3.1,1.6-5.2C29.2,30.6,28.2,28.7,26.7,27.2z"/>
	<path fill="#06728D" d="M45.5,2.5c-1.3-1.3-3-2-4.9-2c-1.8,0-3.6,0.7-4.9,2c-1.3,1.3-2,3-2,4.9c0,1.5,0.5,2.9,1.4,4.1l-4,4
		l-2.3-2.3c-1.7-1.7-4-2.7-6.2-2.7c-1.7,0-3.2,0.6-4.3,1.7c-1.2,1.2-1.8,2.9-1.7,4.7c2,0.4,3.9,1.5,5.5,3.1l5.9,5.9
		c1.6,1.6,2.6,3.5,3.1,5.5c0.1,0,0.2,0,0.4,0c1.7,0,3.2-0.6,4.3-1.7c1.3-1.3,1.9-3.1,1.6-5.2c-0.2-1.9-1.2-3.8-2.7-5.4l-2.3-2.3
		l4.6-4.6c0.4-0.4,0.4-1,0-1.4c-0.9-0.9-1.4-2.2-1.4-3.5c0-1.3,0.5-2.5,1.4-3.5c0.9-0.9,2.2-1.4,3.5-1.4c1.3,0,2.5,0.5,3.5,1.4
		c0.9,0.9,1.4,2.2,1.4,3.5c0,1.3-0.5,2.5-1.4,3.5c-0.4,0.4-0.4,1,0,1.4c0.2,0.2,0.4,0.3,0.7,0.3s0.5-0.1,0.7-0.3c1.3-1.3,2-3,2-4.9
		C47.5,5.5,46.8,3.8,45.5,2.5z"/>
	<path fill="#06728D" d="M15.9,38.1l-5.9-5.9c-1.6-1.6-2.6-3.5-3-5.5c-0.1,0-0.3,0-0.4,0c-1.7,0-3.2,0.6-4.3,1.7
		c-2.6,2.6-2.2,7.3,1,10.5l2.3,2.3l-4.6,4.6c-0.4,0.4-0.4,1,0,1.4c0.2,0.2,0.4,0.3,0.7,0.3c0.3,0,0.5-0.1,0.7-0.3l4.6-4.6l2.3,2.3
		c1.7,1.7,4,2.7,6.2,2.7c1.7,0,3.2-0.6,4.3-1.7c1.2-1.2,1.8-2.9,1.7-4.7C19.3,40.7,17.4,39.6,15.9,38.1z"/>
</g>
</svg>
