<?xml version="1.0" encoding="utf-8"?>
<!-- Generator: Adobe Illustrator 18.0.0, SVG Export Plug-In . SVG Version: 6.00 Build 0)  -->
<!DOCTYPE svg PUBLIC "-//W3C//DTD SVG 1.1//EN" "http://www.w3.org/Graphics/SVG/1.1/DTD/svg11.dtd">
<svg version="1.1" id="Layer_1" xmlns="http://www.w3.org/2000/svg" xmlns:xlink="http://www.w3.org/1999/xlink" x="0px" y="0px"
	 viewBox="0 0 48 48" enable-background="new 0 0 48 48" xml:space="preserve">
<g>
	<path fill="#FFFFFF" d="M15.5,16.7C15.5,16.7,15.5,16.7,15.5,16.7L15.5,16.7z"/>
	<path fill="#0DB89A" d="M28.8,27.6c-1.3,0-2.6-0.2-3.8-0.5c-4.7-1.2-7.9-4.5-8.8-9c-0.6-2.9-0.1-5.3,1.6-7.1c2.8-2.9,7.6-3,8.3-2.9
		c3.3,0.5,6.1,2.6,6.8,5.3c0.4,1.3,0.5,3.9-2.5,6.5c-0.4,0.3-1,0.3-1.4-0.1c-0.3-0.4-0.3-1,0.1-1.4c1.7-1.4,2.3-2.9,1.9-4.4
		c-0.5-1.9-2.7-3.5-5.2-3.9c-0.5-0.1-4.5,0.1-6.6,2.4c-1.2,1.3-1.5,3.1-1.1,5.3c1.1,5.1,5.1,6.9,7.4,7.5c4.4,1.1,9.4-0.1,11.9-3
		c0.2-0.2,0.4-0.3,0.6-0.3c0.8-1.9,1.3-4,1.3-6.2c0-8.4-6.9-15.3-15.3-15.3c-8.4,0-15.3,6.9-15.3,15.3c0,8,6.2,14.6,14,15.2v15.1
		c0,0.7,0.6,1.3,1.3,1.3s1.3-0.6,1.3-1.3V31c3.9-0.3,7.3-2.1,9.8-4.8C33.2,27.1,31,27.6,28.8,27.6z"/>
</g>
</svg>
