<?xml version="1.0" encoding="utf-8"?>
<!-- Generator: Adobe Illustrator 18.0.0, SVG Export Plug-In . SVG Version: 6.00 Build 0)  -->
<!DOCTYPE svg PUBLIC "-//W3C//DTD SVG 1.1//EN" "http://www.w3.org/Graphics/SVG/1.1/DTD/svg11.dtd">
<svg version="1.1" id="Layer_1" xmlns="http://www.w3.org/2000/svg" xmlns:xlink="http://www.w3.org/1999/xlink" x="0px" y="0px"
	 viewBox="0 0 48 48" enable-background="new 0 0 48 48" xml:space="preserve">
<g>
	<path fill="#F7A93B" d="M34.7,33l-6.1,2.8c-0.4,0.2-0.8,0.3-1.2,0.3c-0.4,0-0.7-0.1-1-0.2c-0.7-0.3-1.3-0.8-1.6-1.5l-8.2-17.8
		c-0.7-0.2-1.4-0.3-2.2-0.3c-3.4,0-5.9,2.1-6.1,2.3c-2.2,2.2-3.2,4.5-3.2,6.9c0.1,3.7,2.9,6.2,3,6.2l3.6,3.6c-0.2,0-0.4,0.1-0.5,0.1
		c-1.5,0.2-2.4,1.4-2.8,3.4c-0.4,2.1,1.6,3.4,2.8,3.9c0.1,0,0.2,0.1,0.3,0.1l7.8,0.1l1,1c0,0,0,0,0,0l0.6,0.6c0,0,0.1,0.1,0.1,0.1
		l2.8,2.7c0.2,0.2,0.4,0.3,0.7,0.3c0.3,0,0.5-0.1,0.7-0.3l11.1-11.1c0.2-0.2,0.3-0.4,0.3-0.7s-0.1-0.5-0.3-0.7L34.7,33z"/>
	<path fill="#E77528" d="M42.8,12.7c0-1.3-0.6-3.6-2.7-4c-0.5-0.1-0.9-0.1-1.3-0.1c-1.7,0-2.5,0.9-2.9,1.6c-0.1,0.1-0.2,0.3-0.2,0.5
		l-2.1-4.6c-0.1-0.2-2.2-5.6-7.8-5.6c-1.5,0-3,0.4-4.7,1.2c-0.1,0-7.4,4.1-3.6,12.2l9.1,19.7c0.1,0.2,0.3,0.4,0.6,0.5
		c0.1,0,0.2,0.1,0.3,0.1c0.1,0,0.3,0,0.4-0.1l14.3-6.6c0.5-0.2,0.7-0.8,0.5-1.3L41,22.5c0,0,0-0.1,0-0.1l-0.9-2l2.7-7.4
		C42.8,12.9,42.8,12.8,42.8,12.7z"/>
</g>
</svg>
