<?xml version="1.0" encoding="utf-8"?>
<!-- Generator: Adobe Illustrator 18.0.0, SVG Export Plug-In . SVG Version: 6.00 Build 0)  -->
<!DOCTYPE svg PUBLIC "-//W3C//DTD SVG 1.1//EN" "http://www.w3.org/Graphics/SVG/1.1/DTD/svg11.dtd">
<svg version="1.1" id="Layer_1" xmlns="http://www.w3.org/2000/svg" xmlns:xlink="http://www.w3.org/1999/xlink" x="0px" y="0px"
	 viewBox="0 0 48 48" enable-background="new 0 0 48 48" xml:space="preserve">
<g>
	<path fill="#4DA0D8" d="M4.7,15.1l0.8,0c3.2,0,6.6,0.9,10.1,2.8c2.4,1.3,3.2,2.9,4.1,4.8c1.3,2.7,2.7,5.7,8.4,8.7
		c2.7,1.4,5.3,2.1,7.8,2.1c5.3,0,8.4-3.2,8.7-3.6l0.2-0.3c0,0,0.1-0.1,0.1-0.1c0.9-1,2.2-2.5,2.4-3c0-0.1,0.1-0.1,0.2-0.2
		c0.1-1.6-0.2-3.2-0.7-4.7c-2-5.3-7.4-7.7-9.7-8.8c-1.6-0.7-3.8-1-7.3-1c-0.9,0-1.8,0-2.7,0l-0.3,0c-0.7,0-1.3,0-1.9,0
		c-1.3,0-1.7-0.1-1.7-0.1c-0.4-0.1-1.7-0.7-2.8-1.2c-3.9-1.7-9.2-4.1-13.2-4.1c-1.8,0-3.3,0.5-4.5,1.3c-1.4,1.1-2.2,2.7-2.2,4.5
		c0,0.1,0,0.3,0,0.4C1.2,13.9,3.3,15.1,4.7,15.1z M29.5,21.6l0.2-0.2c0.5-0.5,1.1-1.1,1.6-1.6c1-0.9,1.4-1.3,2.9-0.6
		c1.1,0.5,1.9,1,3,1.4c1.7,0.5,2.3,0.9,2.3,2.8c0,1.1-0.2,2.5-1.2,3.1c-0.9,0.6-2.3,0.5-3.3,0.8c-1.3,0.5-2.1,1-3-0.4
		c-0.3-0.4-0.4-1.1-0.7-1.4c-0.5-0.5-1.5-0.4-1.9-0.9C28.6,23.9,28.6,22.3,29.5,21.6z"/>
	<path fill="#0DB89A" d="M46.6,30.6l-0.2,0.3c0,0,0,0.1-0.1,0.1c-0.2,0.2-3.8,4.4-10.4,4.4C33,35.4,30,34.6,27,33
		c-6.3-3.3-8-7-9.3-9.6c-0.9-1.8-1.4-2.9-3.2-3.9C11.3,17.9,8.3,17,5.5,17l-0.8,0c-1.2,0-2.9-0.6-4.2-1.5c0,0.2-0.1,0.4-0.1,0.6
		c0,3.1,2.7,6.9,6,6.9l0.7,0c2.3,0,4.9,0.8,7.6,2.3c1.3,0.7,1.6,1.5,2.4,3.3c1.2,2.8,2.9,6.7,9,10.2c2.9,1.7,5.9,2.6,8.8,2.6
		c6.5,0,10.2-4.4,10.6-4.9l0.2-0.3c0-0.1,0.1-0.1,0.1-0.2l0.2-0.4c1-2.1,1.4-4.2,1.4-6.2C47.1,30,46.7,30.4,46.6,30.6z"/>
</g>
</svg>
