<?xml version="1.0" encoding="utf-8"?>
<!-- Generator: Adobe Illustrator 18.0.0, SVG Export Plug-In . SVG Version: 6.00 Build 0)  -->
<!DOCTYPE svg PUBLIC "-//W3C//DTD SVG 1.1//EN" "http://www.w3.org/Graphics/SVG/1.1/DTD/svg11.dtd">
<svg version="1.1" id="Layer_1" xmlns="http://www.w3.org/2000/svg" xmlns:xlink="http://www.w3.org/1999/xlink" x="0px" y="0px"
	 viewBox="0 0 48 48" enable-background="new 0 0 48 48" xml:space="preserve">
<g>
	<path fill="none" d="M38.8,9.5h-2.2c-0.5,0-1,0.4-1,1c0,0.5,0.4,1,1,1h2.2c0.5,0,1-0.4,1-1C39.8,10,39.4,9.5,38.8,9.5z"/>
	<path fill="#E77528" d="M47,7.8c-0.2-0.3-0.5-0.5-0.9-0.5c-0.3,0-0.6,0-0.9,0c-1.1,0-2.4,0.1-3.1-0.1c-0.3-0.1-0.6-0.4-1-0.7
		c-0.3-0.3-0.6-0.6-1-0.8c0.4-1.4,0.6-3-1.4-4.4c-1.8-1.2-3.9-1-5.4,0.5c-0.3,0.3-0.7,0.6-1.2,1c-1.3,1-2.6,2-3,3.1
		c-0.3,0.8-0.3,1.7,0.2,2.6c0.6,1.2,1.8,2.1,2.9,2.7c0,0.1,0,0.1-0.1,0.2c-0.1,0.5-0.3,1-0.3,1.6c0,0.3,0,0.7,0,1c0,0.3,0,0.6,0,0.9
		c-0.1,2.6-1.7,4.4-4.3,4.8c-1.1,0.2-2.6,0.1-3.4-0.2c-0.7-0.2-1-0.7-1.6-1.6c-0.2-0.3-0.4-0.7-0.7-1c-2-2.6-6.1-4.6-9.3-5.7
		c-3.3-1.1-7-0.9-10.5-0.7c-0.3,0-0.6,0.2-0.8,0.5c-0.2,0.3-0.1,0.7,0,1C2.6,14.4,3.7,17,4.7,20c0.4,1.4,0.7,2.8,1,4.2
		c0.3,1.4,0.6,2.8,1,4.3c1,3.3,3.8,6.2,8.5,9c1.4,0.8,3,1.3,4.7,1.5v7.5c0,0.5,0.4,1,1,1c0.5,0,1-0.4,1-1v-7.3c0.3,0,0.6,0,1,0
		c1.2,0,2.3-0.1,3.5-0.1l0.8,0c0,0,0.1,0,0.1,0v7.5c0,0.5,0.4,1,1,1c0.5,0,1-0.4,1-1V39c0-0.1,0-0.1,0-0.2c6.5-1.3,11.7-7.4,12-14.5
		c0-0.9,0-2,0-2.9c-0.1-2.2-0.2-4.4,0.6-6c0.7-1.5,2-2.9,3.3-4.3c0.6-0.7,1.3-1.4,1.8-2.1C47.1,8.6,47.2,8.2,47,7.8z M23.5,24.7
		c-1.2,1-2.6,1.5-4.1,1.5c-0.7,0-1.5-0.1-2.2-0.4c-1.4-0.5-2.5-1.6-3.1-3.3c-1-2.5-0.9-5.8,0.1-8.5c2.3,1,4.7,2.4,5.9,4.1
		c0.2,0.3,0.4,0.6,0.6,0.9c0.6,0.9,1.2,1.9,2.6,2.4c1,0.3,2.2,0.4,2.8,0.4C25.3,22.9,24.4,23.9,23.5,24.7z M38.8,11.5h-2.2
		c-0.5,0-1-0.4-1-1c0-0.5,0.4-1,1-1h2.2c0.5,0,1,0.4,1,1C39.8,11.1,39.4,11.5,38.8,11.5z"/>
</g>
</svg>
