<?xml version="1.0" encoding="utf-8"?>
<!-- Generator: Adobe Illustrator 18.0.0, SVG Export Plug-In . SVG Version: 6.00 Build 0)  -->
<!DOCTYPE svg PUBLIC "-//W3C//DTD SVG 1.1//EN" "http://www.w3.org/Graphics/SVG/1.1/DTD/svg11.dtd">
<svg version="1.1" id="Layer_1" xmlns="http://www.w3.org/2000/svg" xmlns:xlink="http://www.w3.org/1999/xlink" x="0px" y="0px"
	 viewBox="0 0 48 48" enable-background="new 0 0 48 48" xml:space="preserve">
<g>
	<path fill="#06728D" d="M20.7,20.7c2.9-2.9,5-6.4,5.9-9.7c0.9-3.5,0.3-6.5-1.6-8.4c-1.3-1.3-3.2-2-5.4-2c-4.1,0-8.9,2.3-12.8,6.3
		C0.5,13-1.4,21,2.5,24.9c1.3,1.3,3.2,2,5.4,2C12,26.9,16.8,24.6,20.7,20.7z M16.4,8.6C17,8,17.8,7.8,18.2,8.2
		c0.4,0.4,0.2,1.2-0.4,1.8c-0.6,0.6-1.4,0.8-1.8,0.4C15.6,10,15.8,9.2,16.4,8.6z M14.6,14.9c0.6-0.6,1.4-0.8,1.8-0.4
		c0.4,0.4,0.2,1.2-0.4,1.8c-0.6,0.6-1.4,0.8-1.8,0.4C13.9,16.4,14,15.5,14.6,14.9z M9.5,11.6c0.6-0.6,1.4-0.8,1.8-0.4
		c0.4,0.4,0.2,1.2-0.4,1.8c-0.6,0.6-1.4,0.8-1.8,0.4C8.7,13,8.9,12.2,9.5,11.6z M7.6,20.3c-0.4-0.4-0.2-1.2,0.4-1.8
		c0.6-0.6,1.4-0.8,1.8-0.4c0.4,0.4,0.2,1.2-0.4,1.8C8.7,20.5,7.9,20.7,7.6,20.3z"/>
	<path fill="#0DB89A" d="M28.8,6.6c0.2,1.5,0.1,3.1-0.4,4.9c-0.4,1.7-1.2,3.5-2.1,5.1c2.9,2.3,7.7,6.5,10.4,11
		c0.3,0.5,0.1,1.1-0.3,1.3c-0.2,0.1-0.3,0.1-0.5,0.1c-0.3,0-0.7-0.2-0.8-0.5c-2.5-4.1-7-8.1-9.8-10.3c-0.9,1.3-2,2.6-3.2,3.8
		c-4.3,4.3-9.6,6.8-14.2,6.8c-0.4,0-0.9,0-1.3-0.1c11.8,10.8,24.1,18,32.1,18.6c-0.1,0-0.3,0-0.4-0.1c-0.3-0.2-7.8-4.8-16.9-14
		c-0.4-0.4-0.4-1,0-1.4c0.4-0.4,1-0.4,1.4,0c8.9,9,16.4,13.6,16.5,13.7c0.5,0.3,0.6,0.9,0.3,1.3c-0.2,0.3-0.5,0.5-0.8,0.5
		c0.3,0,0.7,0.1,1,0.1h0c2.4,0,4.3-0.7,5.7-2C51.3,39.7,44,23.1,28.8,6.6z"/>
</g>
</svg>
