<?xml version="1.0" encoding="utf-8"?>
<!-- Generator: Adobe Illustrator 18.0.0, SVG Export Plug-In . SVG Version: 6.00 Build 0)  -->
<!DOCTYPE svg PUBLIC "-//W3C//DTD SVG 1.1//EN" "http://www.w3.org/Graphics/SVG/1.1/DTD/svg11.dtd">
<svg version="1.1" id="Layer_1" xmlns="http://www.w3.org/2000/svg" xmlns:xlink="http://www.w3.org/1999/xlink" x="0px" y="0px"
	 viewBox="0 0 48 48" enable-background="new 0 0 48 48" xml:space="preserve">
<g>
	<path fill="#06728D" d="M24,10.4c-13.2,0-23.5,6-23.5,13.6c0,7.6,10.3,13.6,23.5,13.6c13.2,0,23.5-6,23.5-13.6
		C47.5,16.4,37.2,10.4,24,10.4z M36.4,22.4l-1,0.6l0.7,0.9c0.5,0.6,1.9,2.7,1.8,4.2c0,0.1,0,0.2-0.1,0.3l-5.9-5l6-4.6
		c0.2,0.5,0.3,1,0.1,1.6C37.9,21.2,37.3,21.9,36.4,22.4z M30.8,23.4L30.8,23.4c-0.1,0.1-6.7,4.7-13.3,4.7c0,0,0,0,0,0
		c-4.4,0-7.8-2.2-10-6.5c1.1-1.1,4.5-4.1,9.7-4.1C21.5,17.5,26.1,19.5,30.8,23.4L30.8,23.4z"/>
	<circle fill="#F04B36" cx="12.7" cy="21.8" r="0.9"/>
</g>
</svg>
