<?xml version="1.0" encoding="utf-8"?>
<!-- Generator: Adobe Illustrator 18.0.0, SVG Export Plug-In . SVG Version: 6.00 Build 0)  -->
<!DOCTYPE svg PUBLIC "-//W3C//DTD SVG 1.1//EN" "http://www.w3.org/Graphics/SVG/1.1/DTD/svg11.dtd">
<svg version="1.1" id="Layer_1" xmlns="http://www.w3.org/2000/svg" xmlns:xlink="http://www.w3.org/1999/xlink" x="0px" y="0px"
	 viewBox="0 0 48 48" enable-background="new 0 0 48 48" xml:space="preserve">
<g>
	<path fill="#E77528" d="M47.5,24c0-3.6-2.7-6.6-6.1-7.2c2.1-2.9,1.8-6.9-0.8-9.4C38,4.8,34,4.6,31.2,6.6c-0.6-3.5-3.6-6.1-7.2-6.1
		c-3.6,0-6.6,2.7-7.2,6.1C14,4.6,10,4.8,7.4,7.4C4.8,9.9,4.6,14,6.6,16.8c-3.5,0.6-6.1,3.6-6.1,7.2c0,3.6,2.7,6.6,6.1,7.2
		C4.6,34,4.8,38,7.4,40.6c2.6,2.6,6.6,2.8,9.4,0.8c0.6,3.5,3.6,6.1,7.2,6.1c3.6,0,6.6-2.7,7.2-6.1c2.9,2.1,6.9,1.8,9.4-0.7
		c2.6-2.6,2.8-6.6,0.7-9.4C44.8,30.6,47.5,27.6,47.5,24z M11.5,24c0-0.6,0.5-1,1-1h2.3c0.6,0,1,0.5,1,1c0,0.6-0.5,1-1,1h-2.3
		C12,25,11.5,24.6,11.5,24z M18.3,31.2l-1.7,1.7c-0.2,0.2-0.5,0.3-0.7,0.3c-0.3,0-0.5-0.1-0.7-0.3c-0.4-0.4-0.4-1,0-1.4l1.7-1.7
		c0.4-0.4,1-0.4,1.4,0C18.7,30.1,18.7,30.8,18.3,31.2z M18.3,18.3c-0.2,0.2-0.5,0.3-0.7,0.3c-0.3,0-0.5-0.1-0.7-0.3l-1.7-1.7
		c-0.4-0.4-0.4-1,0-1.4c0.4-0.4,1-0.4,1.4,0l1.7,1.7C18.7,17.2,18.7,17.9,18.3,18.3z M23,12.5c0-0.6,0.5-1,1-1c0.6,0,1,0.5,1,1v2.3
		c0,0.6-0.5,1-1,1c-0.6,0-1-0.5-1-1V12.5z M25,35.5c0,0.6-0.5,1-1,1c-0.6,0-1-0.5-1-1v-2.3c0-0.6,0.5-1,1-1c0.6,0,1,0.5,1,1V35.5z
		 M24,28.6c-2.6,0-4.6-2.1-4.6-4.6c0-2.6,2.1-4.6,4.6-4.6c2.6,0,4.6,2.1,4.6,4.6C28.6,26.6,26.6,28.6,24,28.6z M29.7,16.8l1.7-1.7
		c0.4-0.4,1-0.4,1.4,0c0.4,0.4,0.4,1,0,1.4l-1.7,1.7c-0.2,0.2-0.5,0.3-0.7,0.3c-0.3,0-0.5-0.1-0.7-0.3
		C29.3,17.9,29.3,17.2,29.7,16.8z M32.8,32.8c-0.2,0.2-0.5,0.3-0.7,0.3c-0.3,0-0.5-0.1-0.7-0.3l-1.7-1.7c-0.4-0.4-0.4-1,0-1.4
		c0.4-0.4,1-0.4,1.4,0l1.7,1.7C33.2,31.8,33.2,32.4,32.8,32.8z M35.5,25h-2.3c-0.6,0-1-0.5-1-1c0-0.6,0.5-1,1-1h2.3c0.6,0,1,0.5,1,1
		C36.5,24.6,36,25,35.5,25z"/>
</g>
</svg>
