<?xml version="1.0" encoding="utf-8"?>
<!-- Generator: Adobe Illustrator 18.0.0, SVG Export Plug-In . SVG Version: 6.00 Build 0)  -->
<!DOCTYPE svg PUBLIC "-//W3C//DTD SVG 1.1//EN" "http://www.w3.org/Graphics/SVG/1.1/DTD/svg11.dtd">
<svg version="1.1" id="Layer_1" xmlns="http://www.w3.org/2000/svg" xmlns:xlink="http://www.w3.org/1999/xlink" x="0px" y="0px"
	 viewBox="0 0 48 48" enable-background="new 0 0 48 48" xml:space="preserve">
<g>
	<polygon fill="#06728D" points="34.1,0.5 30.3,12.7 35.2,17.6 47.5,13.9 	"/>
	<polygon fill="#E77528" points="0.5,34.1 13.9,47.5 17.6,35.1 13,30.6 	"/>
	<path fill="#4DA0D8" d="M35.4,17.9l-0.2-0.2l-4.9-4.9l-0.2-0.2c-2.2-2.2-5.5-2.4-7.3-0.5L12,22.7c-1.9,1.9-1.7,5.2,0.5,7.3l0.5,0.5
		l4.5,4.5l0.3,0.3c2.2,2.2,5.5,2.4,7.3,0.5l10.7-10.7C37.8,23.3,37.6,20,35.4,17.9z"/>
</g>
</svg>
