<?xml version="1.0" encoding="utf-8"?>
<!-- Generator: Adobe Illustrator 18.0.0, SVG Export Plug-In . SVG Version: 6.00 Build 0)  -->
<!DOCTYPE svg PUBLIC "-//W3C//DTD SVG 1.1//EN" "http://www.w3.org/Graphics/SVG/1.1/DTD/svg11.dtd">
<svg version="1.1" id="Layer_1" xmlns="http://www.w3.org/2000/svg" xmlns:xlink="http://www.w3.org/1999/xlink" x="0px" y="0px"
	 viewBox="0 0 48 48" enable-background="new 0 0 48 48" xml:space="preserve">
<g>
	<path fill="none" d="M28.4,20.9c0-0.1,0.1-0.2,0.1-0.2C28.4,20.8,28.4,20.8,28.4,20.9C28.3,20.9,28.4,20.9,28.4,20.9z"/>
	<path fill="#0DB89A" d="M29.8,22.5c0.3-0.8,1-2.4,2.2-4.2c2.8-1.4,6.8-2.1,11.3,0.7c0.5,0.3,1.1,0.1,1.3-0.3
		c0.3-0.5,0.1-1.1-0.3-1.3c-3.8-2.4-7.4-2.5-10.3-1.8c2.7-3.3,6.8-6.4,12.5-6.2c0.6,0,1-0.4,1-0.9c0-0.5-0.4-1-0.9-1
		c-7.9-0.2-13.1,5.1-15.9,9.5c-0.4,0.2-0.8,0.5-1.2,0.7c3.7-5.6,2.7-15.7,2.7-16.2C32,0.8,31.5,0.4,31,0.5c-0.5,0.1-0.9,0.5-0.9,1.1
		c0,0.1,1.4,14.3-4.8,17.1C25.3,18.7,28.8,21,29.8,22.5z M28.4,20.9C28.4,20.9,28.3,20.9,28.4,20.9c0-0.1,0-0.2,0.1-0.2
		C28.5,20.8,28.4,20.9,28.4,20.9z"/>
	<path fill="#F04B36" d="M25.3,18.7C25.3,18.7,25.3,18.7,25.3,18.7c-1.9-1-4.1-1.5-6.4-1.5c-7.7,0-14,6.3-14,14.1
		c0,2.7,0.8,5.3,2.2,7.6c0,0.1,0,0.3,0,0.4c0,1.2,0,1.9-0.5,2.7c-1.2,1.9-2.9,2.5-5.3,2.9c-0.4,0.1-0.7,0.4-0.8,0.8
		c-0.1,0.4,0.1,0.8,0.4,1c0.9,0.7,2.4,0.7,3.5,0.7c0.4,0,0.7,0,1,0c0.6,0,1,0,1.5,0c1.4,0,2.8,0.1,4.2-0.8l0.5-0.3
		c1-0.6,2-1.3,3.1-1.7c1.4,0.4,2.8,0.6,4.2,0.6c7.7,0,14-6.3,14-14.1c0-3.3-1.1-6.3-3-8.7C28.8,21,25.3,18.7,25.3,18.7z"/>
</g>
</svg>
