<?xml version="1.0" encoding="utf-8"?>
<!-- Generator: Adobe Illustrator 18.0.0, SVG Export Plug-In . SVG Version: 6.00 Build 0)  -->
<!DOCTYPE svg PUBLIC "-//W3C//DTD SVG 1.1//EN" "http://www.w3.org/Graphics/SVG/1.1/DTD/svg11.dtd">
<svg version="1.1" id="Layer_1" xmlns="http://www.w3.org/2000/svg" xmlns:xlink="http://www.w3.org/1999/xlink" x="0px" y="0px"
	 viewBox="0 0 48 48" enable-background="new 0 0 48 48" xml:space="preserve">
<g>
	<path fill="#06728D" d="M46.5,16.9h-5.2l-1.9-3.4c-0.1-0.2-0.3-0.4-0.5-0.5l-1.7-0.6c-0.3-2.6-2.6-5.3-6-7.3
		c0.1-0.1,0.1-0.2,0.2-0.4c0.2-0.6,0.2-1.3,0-2c-0.4-0.9-1.2-1.7-2.2-2c-0.4-0.2-0.9-0.2-1.4-0.2c-1.3,0-2.3,0.7-2.7,1.7
		c-0.1,0.2-0.1,0.4-0.1,0.6c-1.1-0.2-2.3-0.3-3.3-0.3c-2.7,0-4.8,0.7-6.2,2l-1.7-0.6c-0.2-0.1-0.4-0.1-0.6,0l-5.3,2
		C7.4,6,7.1,6.4,7.1,6.9c0,0.5,0.3,0.9,0.7,1.1l24.5,9h-7.7c-0.7-2.1-2.5-3.5-4.6-3.5c-2.1,0-3.9,1.4-4.6,3.5h-14
		c-0.5,0-1,0.5-1,1.1v3c0,0.6,0.4,1.1,1,1.1h3.6v9.4c0,3.5,2.8,6.4,6.3,6.4h25.3c3.5,0,6.3-2.9,6.3-6.4v-9.4h3.6c0.5,0,1-0.5,1-1.1
		v-3C47.5,17.4,47.1,16.9,46.5,16.9z M17.7,16.9c0.5-0.8,1.4-1.3,2.4-1.3c1,0,1.8,0.5,2.4,1.3H17.7z"/>
	<path fill="#F04B36" d="M15.2,43.6v-2.7c0-0.6-0.4-1.1-1-1.1c-0.5,0-1,0.5-1,1.1v2.7c0,0.6,0.4,1.1,1,1.1
		C14.7,44.7,15.2,44.2,15.2,43.6z"/>
	<path fill="#F04B36" d="M19.1,43.6v-3.7c0-0.6-0.4-1.1-1-1.1c-0.5,0-1,0.5-1,1.1v3.7c0,0.6,0.4,1.1,1,1.1
		C18.7,44.7,19.1,44.2,19.1,43.6z"/>
	<path fill="#F04B36" d="M23,43.6v-2.7c0-0.6-0.4-1.1-1-1.1c-0.5,0-1,0.5-1,1.1v2.7c0,0.6,0.4,1.1,1,1.1C22.6,44.7,23,44.2,23,43.6z
		"/>
	<path fill="#F04B36" d="M26.9,43.6v-3.7c0-0.6-0.4-1.1-1-1.1c-0.5,0-1,0.5-1,1.1v3.7c0,0.6,0.4,1.1,1,1.1
		C26.5,44.7,26.9,44.2,26.9,43.6z"/>
	<path fill="#F04B36" d="M30.9,43.6v-2.7c0-0.6-0.4-1.1-1-1.1c-0.5,0-1,0.5-1,1.1v2.7c0,0.6,0.4,1.1,1,1.1
		C30.4,44.7,30.9,44.2,30.9,43.6z"/>
	<path fill="#F04B36" d="M34.8,43.6v-3.7c0-0.6-0.4-1.1-1-1.1c-0.5,0-1,0.5-1,1.1v3.7c0,0.6,0.4,1.1,1,1.1
		C34.3,44.7,34.8,44.2,34.8,43.6z"/>
	<path fill="#E77528" d="M41.2,45.2H6.8c-0.5,0-1,0.5-1,1.1c0,0.6,0.4,1.1,1,1.1h34.4c0.5,0,1-0.5,1-1.1
		C42.2,45.8,41.7,45.2,41.2,45.2z"/>
</g>
</svg>
