<?xml version="1.0" encoding="utf-8"?>
<!-- Generator: Adobe Illustrator 18.0.0, SVG Export Plug-In . SVG Version: 6.00 Build 0)  -->
<!DOCTYPE svg PUBLIC "-//W3C//DTD SVG 1.1//EN" "http://www.w3.org/Graphics/SVG/1.1/DTD/svg11.dtd">
<svg version="1.1" id="Layer_1" xmlns="http://www.w3.org/2000/svg" xmlns:xlink="http://www.w3.org/1999/xlink" x="0px" y="0px"
	 viewBox="0 0 48 48" enable-background="new 0 0 48 48" xml:space="preserve">
<g>
	<path fill="#0DB89A" d="M44.7,16.6c-0.3-0.1-0.7-0.2-1.1-0.2c-0.9,0-1.8,0.4-2.7,1.1c-0.1-0.8-0.2-1.5-0.3-2.3
		c-0.1-0.5-0.5-0.8-1-0.8H7.4c-0.5,0-0.9,0.3-1,0.8C6.1,16.6,6,18.1,6,19.5c0,10.6,7.9,19.3,17.5,19.3c6.4,0,11.9-3.8,15-9.4
		c0.5,0.7,1.1,1.3,1.9,1.6c0.3,0.1,0.7,0.2,1.1,0.2c2.3,0,4.6-2.4,5.6-5.9C48.2,21.3,47.1,17.4,44.7,16.6z M45.1,24.7
		c-0.9,3.1-2.8,4.8-4,4.3c-0.6-0.2-1.1-1-1.4-2.2c0.8-2,1.2-4.2,1.3-6.4c0.8-1.3,1.8-2.1,2.6-2.1c0.1,0,0.3,0,0.4,0.1
		C45.2,18.9,46,21.6,45.1,24.7z"/>
	<path fill="#06728D" d="M28,12.3c0.6,0,1-0.4,1-1V5.6c0-0.6-0.5-1-1-1c-0.6,0-1,0.4-1,1v5.7C27,11.8,27.4,12.3,28,12.3z"/>
	<path fill="#06728D" d="M23.5,12.3c0.6,0,1-0.4,1-1V1.5c0-0.6-0.5-1-1-1c-0.6,0-1,0.4-1,1v9.8C22.5,11.8,22.9,12.3,23.5,12.3z"/>
	<path fill="#06728D" d="M19,12.3c0.6,0,1-0.4,1-1V5.6c0-0.6-0.5-1-1-1c-0.6,0-1,0.4-1,1v5.7C18,11.8,18.4,12.3,19,12.3z"/>
	<path fill="#F7A93B" d="M37.1,34.7c-3.5,3.7-8.3,6.1-13.6,6.1c-5.3,0-10.1-2.3-13.6-6.1c-5.7,1.3-9.3,3.4-9.3,5.7
		c0,3.9,10.3,7.1,23,7.1c12.7,0,23-3.2,23-7.1C46.5,38.1,42.8,36,37.1,34.7z"/>
</g>
</svg>
