<?xml version="1.0" encoding="utf-8"?>
<!-- Generator: Adobe Illustrator 18.0.0, SVG Export Plug-In . SVG Version: 6.00 Build 0)  -->
<!DOCTYPE svg PUBLIC "-//W3C//DTD SVG 1.1//EN" "http://www.w3.org/Graphics/SVG/1.1/DTD/svg11.dtd">
<svg version="1.1" id="Layer_1" xmlns="http://www.w3.org/2000/svg" xmlns:xlink="http://www.w3.org/1999/xlink" x="0px" y="0px"
	 viewBox="0 0 48 48" enable-background="new 0 0 48 48" xml:space="preserve">
<g>
	<path fill="#F04B36" d="M10.4,10.1c0.1,0,0.3,0,0.4,0c2.2,0,3.7-1.5,4.8-2.6c0.8-0.8,1.4-1.3,1.9-1.3c0,0,0.1,0,0.1,0
		c0.5,0.1,1.1,0.4,1.8,0.7c0.9,0.4,1.8,0.9,3,1.1c0.5,0.1,1,0.1,1.4,0.1c1.5,0,3-0.4,4.3-1.1l0.2-0.1c1.2-0.6,1.8-1,2.7-1
		c0.1,0,0.1,0,0.2,0c0.5,0,1.2,0.4,1.9,0.8c0.7,0.4,1.5,0.8,2.4,1.1c0.9,0.3,2.2,0.6,3.7,0.6c0.5,0,1,0,1.4-0.1
		c1.6-0.3,2.7-1.1,3.6-1.8c0.3-0.2,0.6-0.4,1-0.7l0.2-0.1c0.5-0.4,0.9-0.9,1.1-1.6c0.2-0.7,0.1-1.4-0.2-2c-0.4-0.8-1.2-1.3-2-1.3
		c-0.4,0-0.8,0.1-1.2,0.4L43,1.2c-0.4,0.3-0.8,0.6-1.2,0.8c-0.7,0.5-1.2,0.9-1.8,1C39.8,3,39.6,3,39.3,3c-0.8,0-1.6-0.2-2.5-0.4
		c-0.5-0.1-1-0.4-1.6-0.8c-1.1-0.6-2.3-1.3-3.7-1.3c-0.1,0-0.3,0-0.4,0c-1.9,0-3.3,0.8-4.7,1.5l-0.2,0.1c-0.7,0.4-1.5,0.6-2.4,0.6
		c-0.3,0-0.6,0-0.8-0.1c-0.5-0.1-1.1-0.4-1.8-0.7c-0.9-0.5-1.9-1-3.2-1.1c-0.2,0-0.4,0-0.6,0c-2.2,0-3.7,1.5-4.8,2.6
		c-0.8,0.8-1.4,1.3-1.9,1.3l-0.2,0c-1.2,0-2.2,1.1-2.3,2.5c0,0.7,0.1,1.4,0.6,2C9.2,9.7,9.8,10.1,10.4,10.1z"/>
	<path fill="#4DA0D8" d="M20.3,19.8l0.3-0.1c1-0.4,1.6-0.6,2.3-0.6c0.2,0,0.4,0,0.7,0.1c0.5,0.1,1.1,0.6,1.8,1.1
		c0.6,0.5,1.4,1.1,2.2,1.5c1,0.5,2.9,1.3,4.9,1.3h0.1h0c1.6,0,2.8-0.7,3.8-1.2c0.3-0.2,0.6-0.3,0.9-0.5c0,0,0.3-0.1,0.3-0.1
		c0.6-0.3,1-0.8,1.2-1.5c0.2-0.6,0.2-1.3-0.1-2c-0.4-1-1.2-1.6-2.1-1.6c-0.3,0-0.6,0.1-0.9,0.2c-0.4,0.2-0.9,0.4-1.3,0.7
		c-0.7,0.4-1.3,0.7-1.9,0.7l-0.1,0c-0.8,0-2-0.3-3.1-0.9c-0.4-0.2-0.9-0.6-1.5-1c-1-0.8-2.1-1.6-3.5-1.9c-0.5-0.1-1-0.2-1.5-0.2
		c-1.4,0-2.5,0.4-3.7,0.9l-0.3,0.1c-0.5,0.2-1.1,0.3-1.7,0.3c-0.5,0-1.1-0.1-1.6-0.3c-0.5-0.2-1-0.5-1.7-1c-0.9-0.6-1.8-1.2-3-1.6
		C10.6,12,10.1,12,9.7,12c-1.8,0-3.3,1.1-4.4,1.9c-0.7,0.5-1.4,1-1.9,1c-0.1,0-0.1,0-0.2,0c-0.2,0-0.3-0.1-0.5-0.1
		c-1.1,0-2,0.9-2.2,2.1c-0.1,0.7,0,1.4,0.3,2c0.3,0.6,0.9,1,1.5,1.2c0.4,0.1,0.7,0.1,1.1,0.1c1.8,0,3.2-1.1,4.4-1.9
		c0.7-0.6,1.4-1,1.9-1c0.1,0,0.1,0,0.2,0c0.5,0.1,1.1,0.5,1.7,1c0.8,0.6,1.7,1.2,2.8,1.5c0.9,0.3,1.9,0.4,2.8,0.4
		C18.3,20.3,19.3,20.2,20.3,19.8z"/>
	<path fill="#E77528" d="M47.4,20.7c-0.2-0.7-0.6-1.3-1.1-1.6c-0.3-0.2-0.7-0.3-1.1-0.3c-0.8,0-1.6,0.5-2,1.4l-0.1,0.1
		c-0.2,0.5-0.5,1-0.7,1.4c-0.4,0.9-0.6,1.5-1.1,1.9c-0.7,0.6-1.8,1.2-3,1.6c-0.5,0.1-1,0.2-1.7,0.3c-1.2,0.1-2.5,0.2-3.8,1
		c-1.9,1.2-2.8,2.7-3.7,4.3L29,31c-0.6,1-1.5,1.8-2.5,2.4c-0.5,0.2-1.1,0.3-1.8,0.4c-1,0.1-2.1,0.3-3.2,0.9c-2.3,1.2-3,3.7-3.6,5.5
		c-0.4,1.2-0.6,2-1.1,2.3c-1.1,0.7-1.6,2.3-1.1,3.6c0.4,0.9,1.2,1.5,2.1,1.5c0.4,0,0.7-0.1,1-0.3c2.2-1.2,2.9-3.6,3.4-5.3
		c0.4-1.3,0.6-2.1,1.1-2.3c0.5-0.3,1.2-0.4,1.9-0.5c0.9-0.1,2-0.3,3-0.8c1.9-0.9,3.4-2.4,4.6-4.3l0.2-0.3c0.8-1.3,1.2-2,2.1-2.6
		c0.4-0.3,1.2-0.3,2-0.4c0.8-0.1,1.6-0.2,2.5-0.4c1-0.3,3-1.1,4.6-2.6c1.3-1.2,1.8-2.5,2.4-3.7c0.2-0.4,0.3-0.7,0.5-1.1l0.1-0.2
		C47.5,22.1,47.6,21.4,47.4,20.7z"/>
</g>
</svg>
