<?xml version="1.0" encoding="utf-8"?>
<!-- Generator: Adobe Illustrator 18.0.0, SVG Export Plug-In . SVG Version: 6.00 Build 0)  -->
<!DOCTYPE svg PUBLIC "-//W3C//DTD SVG 1.1//EN" "http://www.w3.org/Graphics/SVG/1.1/DTD/svg11.dtd">
<svg version="1.1" id="Layer_1" xmlns="http://www.w3.org/2000/svg" xmlns:xlink="http://www.w3.org/1999/xlink" x="0px" y="0px"
	 viewBox="0 0 48 48" enable-background="new 0 0 48 48" xml:space="preserve">
<g>
	<path fill="#F04B36" d="M26.9,8.2c0.5-3.4,2.9-5.8,3-5.9c0.4-0.4,0.4-1,0.1-1.5c-0.4-0.4-1-0.5-1.4-0.1c-0.1,0.1-3.2,3.1-3.6,7.4
		C25.6,8.1,26.3,8,26.9,8.2z"/>
	<path fill="#0DB89A" d="M26.8,10.4v29.4c5-1.3,8.9-4.7,10.1-9.1H37c0-0.1,0-0.1,0-0.2c0.2-1.1,0.2-2.2,0.2-3.4
		C37.3,18.4,32.6,11.2,26.8,10.4z"/>
	<path fill="#0DB89A" d="M26.9,8.2c0,0,0,0.1,0,0.1c6.9,0.7,12.3,8.9,12.3,18.8c0,1.2-0.1,2.4-0.2,3.5h2.8c-0.2,2-0.8,3.9-1.9,5.7
		c0,0.1-0.1,0.2-0.1,0.2c-3.2,5.2-9.9,8.8-17.7,8.8c-10.5,0-19-6.6-19.7-14.8h4.9c0.6,2.1,1.8,4,3.5,5.5c1.3,1.2,2.9,2.2,4.7,2.9
		c-1.9-3.3-3-7.6-3-11.9c0-10,5.5-18.1,12.4-18.8c0,0,0-0.1,0-0.1C13.4,8.6,4.2,16.4,4.2,25.9c0,1,0.1,1.9,0.3,2.9h-3
		c-0.5,0-1,0.4-1,1c0,9.8,9.7,17.7,21.7,17.7c8.4,0,15.7-3.9,19.3-9.7l0.3-0.1c0.2,0,0.3-0.1,0.5-0.2c3.4-3.2,5.2-7.3,5.2-11.5
		C47.5,16.5,38.3,8.7,26.9,8.2z"/>
	<path fill="#0DB89A" d="M18.4,39.9c0,0,0,0.1,0.1,0.1c1.2,0.2,2.4,0.4,3.7,0.4c0.9,0,1.8-0.1,2.7-0.2V10.4
		c-5.8,0.8-10.4,8-10.4,16.8C14.5,32,15.9,36.7,18.4,39.9z"/>
</g>
</svg>
