<?xml version="1.0" encoding="utf-8"?>
<!-- Generator: Adobe Illustrator 18.0.0, SVG Export Plug-In . SVG Version: 6.00 Build 0)  -->
<!DOCTYPE svg PUBLIC "-//W3C//DTD SVG 1.1//EN" "http://www.w3.org/Graphics/SVG/1.1/DTD/svg11.dtd">
<svg version="1.1" id="Layer_1" xmlns="http://www.w3.org/2000/svg" xmlns:xlink="http://www.w3.org/1999/xlink" x="0px" y="0px"
	 viewBox="0 0 48 48" enable-background="new 0 0 48 48" xml:space="preserve">
<g>
	<path fill="#4DA0D8" d="M36.3,15.5C34.1,9.1,40.1,4.2,40.4,4c0.2-0.2,0.4-0.5,0.4-0.8c0-0.3-0.2-0.6-0.4-0.8
		c-1.8-1.3-3.9-1.9-6-1.9c-4.7,0-8.7,3.1-10.3,4.6c-1.9-1.9-4.1-2.9-6.6-2.9c-5.8,0-11.1,5.2-11.3,5.4c-0.3,0.3-0.3,0.6-0.2,1
		C6,9,6.3,9.3,6.7,9.3c2.1,0.4,3.5,1.1,4.2,2.3c0.8,1.5,0.3,3.3,0.2,3.8c-6.2,7.7-8.7,14.7-7.6,20.8c1.2,6.3,6,9.2,6.2,9.3
		c0.1,0,0.1,0.1,0.2,0.1c0.2,0.1,5.5,1.9,13.6,1.9c0,0,0,0,0,0c4.8,0,9.6-0.6,14.2-1.8c3.3-0.9,5.6-2.7,6.6-5.5
		C47.3,31.6,37.4,17.1,36.3,15.5z M29.2,19.9c0.4-0.3,0.9-0.2,1.2,0.2c0.5,0.5,4.5,5,3.6,8.3c-0.1,1.1-1,3-3.2,3l-0.1,0
		c-0.1,0-1-0.1-1.7-0.9c-0.7-0.8-0.9-1.9-0.8-3.3c0.1-1.3,0.4-2.2,0.7-2.9c0.4-1.1,0.6-1.8,0.1-3.2C28.7,20.7,28.8,20.2,29.2,19.9z
		 M22.2,21.3c0.1-1.3,0.4-2.2,0.6-3c0.4-1.1,0.6-1.8,0-3.2c-0.2-0.4,0-0.9,0.4-1.2c0.4-0.3,0.9-0.2,1.2,0.1c0.5,0.5,4.6,4.9,3.7,8.3
		c-0.1,1.1-0.9,3.1-3.3,3.1c0,0-0.1,0-0.1,0c-0.1,0-1,0-1.8-0.9C22.4,23.8,22.1,22.7,22.2,21.3z M14,15c0.2-0.2,0.5-0.4,0.8-0.3
		c0,0,0.1,0,0.1,0c2.7,0,6.4,3.1,6.8,3.5c0.4,0.4,0.5,1,0.1,1.4c-0.2,0.2-0.5,0.3-0.7,0.3c-0.2,0-0.5-0.1-0.6-0.2
		c-1.1-1-3.2-2.4-4.7-2.8c0.4,1.6,1.8,3.6,2.8,4.8c0.3,0.4,0.3,1-0.1,1.4c-0.2,0.2-0.4,0.2-0.6,0.2c-0.3,0-0.6-0.1-0.8-0.4
		c-0.4-0.4-3.4-4.2-3.4-6.9c0,0,0-0.1,0-0.1C13.6,15.5,13.7,15.2,14,15z M12.3,25c0.3-0.4,0.8-0.5,1.2-0.3c1.2,0.5,2,0.4,3.1,0
		c0.7-0.2,1.7-0.5,2.9-0.6c0.2,0,0.4,0,0.5,0c2.8,0,3.5,1.8,3.6,2.7c0,2.2-1.8,3.2-3,3.4c-0.3,0.1-0.6,0.1-1,0.1h0
		c-3.1,0-6.7-3.5-7.1-3.9C12.1,25.9,12,25.4,12.3,25z M26.5,36.1c-0.3,0.1-0.7,0.1-1.1,0.1c-3.1,0-6.7-3.4-7.1-3.8
		c-0.3-0.3-0.4-0.8-0.1-1.2c0.3-0.4,0.8-0.5,1.2-0.4c1.2,0.5,2,0.3,3.1-0.1c0.7-0.3,1.6-0.6,2.9-0.7c0.2,0,0.4,0,0.6,0
		c2.7,0,3.4,1.7,3.5,2.6C29.5,34.9,27.8,35.9,26.5,36.1z M31.4,36.5c-0.1,0.5-0.5,0.8-1,0.8c-0.1,0-0.1,0-0.2,0
		c-0.5-0.1-0.9-0.6-0.8-1.2c0-0.1,0.7-3.1,4.3-4.4c0.5-0.2,1.1,0.1,1.3,0.6c0.2,0.5-0.1,1.1-0.6,1.3C31.9,34.5,31.4,36.5,31.4,36.5z
		 M39.2,41.6c-0.2,0.2-0.4,0.3-0.7,0.3c-0.3,0-0.5-0.1-0.7-0.3l-5-5.1c-0.4-0.4-0.4-1,0-1.4c0.4-0.4,1-0.4,1.4,0l5,5.1
		C39.6,40.6,39.6,41.2,39.2,41.6z"/>
</g>
</svg>
