<?xml version="1.0" encoding="utf-8"?>
<!-- Generator: Adobe Illustrator 18.0.0, SVG Export Plug-In . SVG Version: 6.00 Build 0)  -->
<!DOCTYPE svg PUBLIC "-//W3C//DTD SVG 1.1//EN" "http://www.w3.org/Graphics/SVG/1.1/DTD/svg11.dtd">
<svg version="1.1" id="Layer_1" xmlns="http://www.w3.org/2000/svg" xmlns:xlink="http://www.w3.org/1999/xlink" x="0px" y="0px"
	 viewBox="0 0 48 48" enable-background="new 0 0 48 48" xml:space="preserve">
<g>
	<path fill="#06728D" d="M42.8,27.1H5.2c-0.3,0-0.6-0.1-0.8-0.3c-0.2-0.2-0.3-0.5-0.2-0.7c1-5.7,7.2-10.3,15.4-11.6
		c0-0.1,0-0.2,0-0.3c0-1.7,2-3.1,4.4-3.1c2.4,0,4.4,1.4,4.4,3.1c0,0.1,0,0.2,0,0.3c8.2,1.2,14.5,5.9,15.5,11.6c0,0.3,0,0.5-0.2,0.7
		C43.4,27,43.1,27.1,42.8,27.1z"/>
	<path fill="#F04B36" d="M46.5,28.9h-3.6H5.1H1.5c-0.6,0-1,0.4-1,0.9c0,0.5,0.5,0.9,1,0.9h2.6v12.1c0,2.6,2.8,4.7,6.1,4.7h27.6
		c3.4,0,6.1-2.1,6.1-4.7V30.7h2.6c0.6,0,1-0.4,1-0.9C47.5,29.3,47,28.9,46.5,28.9z"/>
	<path fill="#CFD0D1" d="M30.1,9c-0.6,0-1-0.4-1-0.9V3.7c0-0.5,0.5-0.9,1-0.9c0.6,0,1,0.4,1,0.9v4.3C31.2,8.6,30.7,9,30.1,9z"/>
	<path fill="#CFD0D1" d="M24,9c-0.6,0-1-0.4-1-0.9V1.4c0-0.5,0.5-0.9,1-0.9c0.6,0,1,0.4,1,0.9v6.7C25,8.6,24.6,9,24,9z"/>
	<path fill="#CFD0D1" d="M17.9,9c-0.6,0-1-0.4-1-0.9V3.7c0-0.5,0.5-0.9,1-0.9c0.6,0,1,0.4,1,0.9v4.3C18.9,8.6,18.4,9,17.9,9z"/>
</g>
</svg>
