<?xml version="1.0" encoding="utf-8"?>
<!-- Generator: Adobe Illustrator 18.0.0, SVG Export Plug-In . SVG Version: 6.00 Build 0)  -->
<!DOCTYPE svg PUBLIC "-//W3C//DTD SVG 1.1//EN" "http://www.w3.org/Graphics/SVG/1.1/DTD/svg11.dtd">
<svg version="1.1" id="Layer_1" xmlns="http://www.w3.org/2000/svg" xmlns:xlink="http://www.w3.org/1999/xlink" x="0px" y="0px"
	 viewBox="0 0 48 48" enable-background="new 0 0 48 48" xml:space="preserve">
<g>
	<path fill="#E77528" d="M47.2,25c0-0.4-0.1-0.8-0.1-1.1c-0.2-1.4-0.3-2.9-0.9-4.2c-0.9-2.3-3.7-3.9-5.2-4.5
		c-0.4-0.2-0.8-0.2-1.1-0.3c-0.2,0-0.5-0.1-0.7-0.1c-0.2-0.1-0.2-0.1-0.5-0.3l-0.2-0.2c-1-0.9-2.2-1.3-3.5-1.4c-0.4,0-0.9,0-1.3,0
		c-0.6,0-1.2,0.1-1.6,0c-0.2-0.1-0.5-0.2-0.8-0.3c-0.5-0.2-1-0.4-1.7-0.5c-0.4,0-0.7,0-1.1,0c-0.5,0-1,0.1-1.3-0.1
		c-0.1-0.1-0.3-0.1-0.4-0.2c-0.5-0.2-1.1-0.5-1.9-0.4l-3-2.9c-0.2-0.2-0.5-0.3-0.7-0.3c-0.4,0-3.6,0.1-5,3.4c-0.1,0-0.1,0-0.2,0
		c-1.4,0-3-0.1-4.3,0.5c-0.4,0.2-0.6,0.4-0.8,0.5c0,0-0.1,0.1-0.1,0.1c0,0-0.1,0-0.3,0c-0.5,0-0.9,0.1-1.2,0.1C9.2,13,9,13,8.8,13.1
		c-4.7,0.2-8.3,5-8.3,9.2c0,4.3,0.4,9.6,3.8,12.3c0.7,0.5,1.5,1.1,2.7,1c-3.1-4.2-3-9.2-3-9.5c0.1-4.2,1.4-7.4,4-9.5
		c2.6-2.1,5.8-2.6,8.1-2.7c0,0,0.1,0.1,0.1,0.1l2.3,2c-1.1-0.1-6-0.6-9.3,2.1C7.1,19.8,6,22.5,6,26.1c0,0.1-0.2,4.9,2.9,8.7
		c0.3,0.4,0.3,1-0.1,1.4c0,0,0,0,0,0c1.7,1.2,4.6,2.7,6.7,1.9c0.1,0,0.1-0.1,0.2-0.1c-3.3-3.5-3.9-9.2-4-9.5
		c-0.4-3.7,0.3-6.7,2.2-8.9c1.6-1.9,3.7-2.8,5.3-3.2l1.9,1.6c-0.8,0.1-3.8,0.6-5.7,2.8c-1.5,1.8-2.1,4.3-1.7,7.4
		c0,0.1,0.7,5.6,3.7,8.6c0.3,0.3,0.4,0.7,0.2,1.1c0.1,0.1,0.2,0.1,0.3,0.2c0.5,0.3,1,0.7,1.5,1c0.8,0.3,1.6,0.5,2.4,0.5
		c0.6,0,1.2-0.1,1.9-0.2c0.5-0.1,1-0.3,1.4-0.6c0.1-0.1,0.2-0.1,0.3-0.2c0-0.1,0-0.2,0-0.3c1.7-7.3,0.8-14.9,0.5-17.3
		c0.7-0.1,1.3-0.3,1.9-0.8c0.3,1.8,1.4,10.1-0.4,18.3c0.1,0.1,0.3,0.1,0.5,0.2c0.6,0.3,1.2,0.6,1.9,0.6c1.7,0.2,2.9-0.2,4.1-0.6
		l0.6-0.2c0.8-0.3,1.6-0.6,2.4-1.1c0.1-0.1,0.3-0.2,0.5-0.3c-0.1-0.2-0.1-0.3-0.1-0.5c1.7-8,1.1-13.5-1.7-16c-2.5-2.2-6.2-1.4-7-1.2
		c0.4-0.6,0.7-1.3,0.8-2.2c1.9-0.3,5.1-0.3,7.5,1.9c3.4,3,4.1,9,2.3,17.8c0,0.1-0.1,0.3-0.2,0.4c1.7,0.7,4.4,0.6,5.7-0.8
		c0.7-0.8,1.2-2.1,1.6-3.1l0.1-0.2c0.3-0.7,0.5-1.5,0.7-2.2l0.1-0.5C47.7,28.7,47.5,26.9,47.2,25z M20.5,10.4
		c-0.2,1.4-1.6,2-2.4,2.3C18.6,11.1,19.7,10.6,20.5,10.4z M25.4,19.2l-5.9-4.9c1.1-0.5,2.2-1.3,2.7-2.7l5.3,5
		C27.3,18.7,26.3,19.1,25.4,19.2z"/>
</g>
</svg>
