<?xml version="1.0" encoding="utf-8"?>
<!-- Generator: Adobe Illustrator 18.0.0, SVG Export Plug-In . SVG Version: 6.00 Build 0)  -->
<!DOCTYPE svg PUBLIC "-//W3C//DTD SVG 1.1//EN" "http://www.w3.org/Graphics/SVG/1.1/DTD/svg11.dtd">
<svg version="1.1" id="Layer_1" xmlns="http://www.w3.org/2000/svg" xmlns:xlink="http://www.w3.org/1999/xlink" x="0px" y="0px"
	 viewBox="0 0 48 48" enable-background="new 0 0 48 48" xml:space="preserve">
<g>
	<path fill="#F04B36" d="M28,34.7l11.2-10c1.6-1.4,1.5-2.6,1.3-3.1C40.2,21,39.5,20,37.1,20H10.9c-2.3,0-3.1,1-3.3,1.6
		c-0.2,0.6-0.3,1.7,1.3,3.1l11.2,10c0.7,0.7,1.7,1.1,2.6,1.3v9.5h-3.8c-0.5,0-1,0.4-1,1c0,0.5,0.4,1,1,1h10.2c0.5,0,1-0.4,1-1
		c0-0.5-0.4-1-1-1h-3.8V36C26.3,35.8,27.2,35.4,28,34.7z"/>
	<path fill="#0DB89A" d="M24,7.2C24,7.2,24,7.2,24,7.2C25.6,6.4,27.3,6,29.1,6c1,0,1.9,0.1,2.8,0.4C31.2,3,27.9,0.5,24,0.5
		c-3.9,0-7.2,2.5-7.9,5.9C17,6.1,17.9,6,18.9,6C20.8,6,22.5,6.4,24,7.2z"/>
	<path fill="#E77528" d="M25.9,8.5c1.9,1.6,3,3.9,3,6.5c0,0.9-0.1,1.7-0.4,2.5h8.1c0.3-0.8,0.5-1.7,0.5-2.5c0-3.9-3.6-7.1-8-7.1
		C28,7.9,26.9,8.1,25.9,8.5z"/>
	<path fill="#4DA0D8" d="M26.4,17.5c0.4-0.8,0.5-1.7,0.5-2.5c0-3.9-3.6-7.1-8-7.1c-4.4,0-8,3.2-8,7.1c0,0.9,0.2,1.7,0.5,2.5H26.4z"
		/>
</g>
</svg>
