<?xml version="1.0" encoding="utf-8"?>
<!-- Generator: Adobe Illustrator 18.0.0, SVG Export Plug-In . SVG Version: 6.00 Build 0)  -->
<!DOCTYPE svg PUBLIC "-//W3C//DTD SVG 1.1//EN" "http://www.w3.org/Graphics/SVG/1.1/DTD/svg11.dtd">
<svg version="1.1" id="Layer_1" xmlns="http://www.w3.org/2000/svg" xmlns:xlink="http://www.w3.org/1999/xlink" x="0px" y="0px"
	 viewBox="0 0 48 48" enable-background="new 0 0 48 48" xml:space="preserve">
<g>
	<path fill="#06728D" d="M27.1,12.7c0,0-0.1,0-0.1-0.1c0,0,0,0,0,0c-0.9-0.5-1.9-0.7-3-0.7c-1.1,0-2.1,0.3-3,0.7c0,0,0,0,0,0
		c0,0-0.1,0-0.1,0.1c-1.9,1.1-3.1,3.1-3.1,5.4c0,3.4,2.8,6.2,6.3,6.2c3.5,0,6.3-2.8,6.3-6.2C30.3,15.8,29,13.8,27.1,12.7z"/>
	<path fill="#06728D" d="M12.4,16.5c1.2,0,2.3,0.3,3.3,0.7c0.2-2.2,1.4-4.2,3-5.6c-1.1-1-2.6-1.5-4.1-1.5c-3.5,0-6.3,2.8-6.3,6.2
		c0,0.4,0,0.7,0.1,1.1C9.7,16.9,11,16.5,12.4,16.5z"/>
	<path fill="#06728D" d="M15.7,32.3c-1,0.4-2.2,0.7-3.3,0.7c-0.9,0-1.8-0.1-2.6-0.4c-0.3,0.7-0.4,1.4-0.4,2.1c0,3.4,2.8,6.2,6.3,6.2
		c0,0,0,0,0,0c0.1-1.5,0.5-2.8,1.3-4c-0.8-1.3-1.3-2.8-1.3-4.4C15.7,32.5,15.7,32.4,15.7,32.3z"/>
	<path fill="#06728D" d="M16.2,29.7c0.7-1.9,2.1-3.4,3.8-4.4c-2.1-1.2-3.7-3.3-4.2-5.7c-1-0.7-2.2-1-3.4-1c-3.5,0-6.3,2.8-6.3,6.2
		c0,2.4,1.4,4.6,3.6,5.6C11.8,31.4,14.4,31.1,16.2,29.7z"/>
	<path fill="#06728D" d="M29.2,11.6c1.7,1.3,2.8,3.3,3,5.6c1-0.5,2.2-0.7,3.3-0.7c1.4,0,2.7,0.3,3.9,0.9c0.1-0.4,0.1-0.7,0.1-1.1
		c0-3.4-2.8-6.2-6.3-6.2C31.8,10.1,30.3,10.7,29.2,11.6z"/>
	<path fill="#06728D" d="M35.6,18.5c-1.2,0-2.4,0.4-3.4,1c-0.5,2.5-2,4.6-4.2,5.7c1.7,1,3.1,2.5,3.8,4.4c1.8,1.4,4.4,1.7,6.5,0.7
		c2.2-1,3.6-3.2,3.6-5.6C41.9,21.3,39,18.5,35.6,18.5z"/>
	<path fill="#06728D" d="M35.6,33c-1.1,0-2.3-0.2-3.3-0.7c0,0.1,0,0.1,0,0.2c0,1.6-0.5,3.1-1.3,4.4c0.8,1.2,1.2,2.5,1.3,4
		c0,0,0,0,0,0c3.5,0,6.3-2.8,6.3-6.2c0-0.7-0.1-1.5-0.4-2.1C37.3,32.9,36.5,33,35.6,33z"/>
	<path fill="#06728D" d="M24,40.8c-2.2,0-4.2-0.8-5.6-2.2c-0.4,0.8-0.6,1.7-0.6,2.7c0,3.4,2.8,6.2,6.3,6.2c3.5,0,6.3-2.8,6.3-6.2
		c0-1.1-0.2-1.9-0.6-2.7C28.1,40,26.1,40.8,24,40.8z"/>
	<path fill="#06728D" d="M29.9,30.4c-0.9-2.4-3.2-4-5.9-4c-2.7,0-5,1.7-5.9,4c0,0.2-0.1,0.3-0.1,0.4c-0.2,0.6-0.3,1.1-0.3,1.8
		c0,3.4,2.8,6.2,6.3,6.2c1.9,0,3.6-0.8,4.8-2.3c0.9-1.1,1.4-2.5,1.4-3.9c0-0.6-0.1-1.2-0.3-1.8C29.9,30.7,29.9,30.5,29.9,30.4z"/>
	<path fill="#0DB89A" d="M14.9,3c1.4,0.7,4.9,3.3,5.2,6.2c0,0.5,0.5,0.9,1,0.9c0,0,0.1,0,0.1,0c0.6,0,1-0.5,0.9-1.1
		c-0.4-4.5-6-7.6-6.2-7.8c-0.5-0.3-1.1-0.1-1.4,0.4C14.3,2.2,14.4,2.8,14.9,3z"/>
	<path fill="#0DB89A" d="M23.6,10.1c0.1,0,0.2,0.1,0.4,0.1c0.4,0,0.8-0.2,1-0.6c0,0,1.7-4,9.5-7C35,2.3,35.2,1.7,35,1.2
		c-0.2-0.5-0.8-0.8-1.3-0.6C25,4,23.1,8.6,23,8.8C22.8,9.3,23.1,9.9,23.6,10.1z"/>
</g>
</svg>
