<?xml version="1.0" encoding="utf-8"?>
<!-- Generator: Adobe Illustrator 18.0.0, SVG Export Plug-In . SVG Version: 6.00 Build 0)  -->
<!DOCTYPE svg PUBLIC "-//W3C//DTD SVG 1.1//EN" "http://www.w3.org/Graphics/SVG/1.1/DTD/svg11.dtd">
<svg version="1.1" id="Layer_1" xmlns="http://www.w3.org/2000/svg" xmlns:xlink="http://www.w3.org/1999/xlink" x="0px" y="0px"
	 viewBox="0 0 48 48" enable-background="new 0 0 48 48" xml:space="preserve">
<g>
	<path fill="#4DA0D8" d="M38.9,45.8H1.8c-0.7,0-1.3-0.6-1.3-1.3c0-0.7,0.6-1.3,1.3-1.3h37.1c0.7,0,1.3,0.6,1.3,1.3
		C40.2,45.2,39.6,45.8,38.9,45.8z"/>
	<path fill="#0DB89A" d="M47.5,21l-0.6-3.5c0,0-5.6,2.1-6.3,7.2c-0.2,1.7-0.8,2.9-1.4,3.7c0.7,2.4,1.1,4.9,1.1,7.5
		c0,0.3,0,0.6,0,0.9c2-0.8,4.1-2.8,3.4-8C42.9,22.8,47.5,21,47.5,21z"/>
	<path fill="none" d="M20.4,12.1c-0.9,0-1.6,0.7-1.6,1.6c0,0.7,0.5,1.3,1.1,1.5c0.1,0,0.3,0,0.4,0c0.1,0,0.3,0,0.4,0
		c0.6-0.2,1.1-0.8,1.1-1.5C21.9,12.8,21.2,12.1,20.4,12.1z"/>
	<path fill="#F7A93B" d="M33.3,21.5l-2-2.1c-2.3-2-5-3.4-7.9-4c0.3-0.5,0.5-1.1,0.5-1.8c0-2-1.6-3.5-3.5-3.5c-2,0-3.5,1.6-3.5,3.5
		c0,0.7,0.2,1.3,0.5,1.8c-2.9,0.6-5.6,2-7.9,4l-2,2.1c-3.1,3.7-5,8.7-5,14.3c0,1.3,0.1,2.6,0.3,3.8c0.1,0.5,0.5,0.8,1,0.8H37
		c0.5,0,0.9-0.4,1-0.8c0.2-1.3,0.3-2.6,0.3-3.8C38.3,30.3,36.4,25.2,33.3,21.5z M20.8,15.1c-0.1,0-0.3,0-0.4,0c-0.1,0-0.3,0-0.4,0
		c-0.6-0.2-1.1-0.8-1.1-1.5c0-0.9,0.7-1.6,1.6-1.6c0.9,0,1.6,0.7,1.6,1.6C21.9,14.4,21.4,14.9,20.8,15.1z"/>
	<path fill="#06728D" d="M20.4,4.2c8.6,0,10.7,5.6,10.9,15.2l2,2.1c0,0,0,0,0,0c0-9.3-1-19.3-12.9-19.3C9,2.2,7.4,11.5,7.4,21.5
		c0,0,0,0,0,0l2-2.1C9.7,10.2,11.9,4.2,20.4,4.2z"/>
</g>
</svg>
