<?xml version="1.0" encoding="utf-8"?>
<!-- Generator: Adobe Illustrator 18.0.0, SVG Export Plug-In . SVG Version: 6.00 Build 0)  -->
<!DOCTYPE svg PUBLIC "-//W3C//DTD SVG 1.1//EN" "http://www.w3.org/Graphics/SVG/1.1/DTD/svg11.dtd">
<svg version="1.1" id="Layer_1" xmlns="http://www.w3.org/2000/svg" xmlns:xlink="http://www.w3.org/1999/xlink" x="0px" y="0px"
	 viewBox="0 0 48 48" enable-background="new 0 0 48 48" xml:space="preserve">
<g>
	<path fill="#F04B36" d="M28.6,6.6C28.6,6.6,28.6,6.6,28.6,6.6c-0.5,0-1,0.4-1,1l0,9.2c0,1.6-1.1,3-2.6,3.4l0-12.6c0-0.5-0.4-1-1-1
		h0c-0.5,0-1,0.4-1,1l0,12.6c-1.5-0.4-2.6-1.8-2.7-3.4l0-9.2c0-0.5-0.4-1-1-1c0,0,0,0,0,0c-0.5,0-1,0.4-1,1l0,9.2c0,0,0,0,0,0
		c0,2.7,2,5,4.6,5.4l0.1,21.5c0,0.5,0.4,1,1,1h0c0.5,0,1-0.4,1-1L25,22.3c2.6-0.5,4.6-2.7,4.6-5.5l0-9.2C29.6,7.1,29.1,6.6,28.6,6.6
		z"/>
	<path fill="#CFD0D1" d="M47.3,14.5c-0.3-0.4-0.9-0.5-1.4-0.5c-0.3,0-0.5,0-0.8,0c-0.3,0-0.6,0-1,0c-0.2,0-0.4-0.1-0.6-0.1
		c0.2-1.8-0.6-3.6-2.2-4.7c-5.5-4-11.4-6-17.5-6c-7.7,0-14.1,3.2-17.5,6.3c-1.3,1.1-1.9,2.8-1.8,4.4c-0.2,0-0.4,0.1-0.6,0.1
		c-0.3,0-0.6,0-1,0c-0.3,0-0.5,0-0.8,0c-0.6,0-1.1,0.1-1.4,0.5c-0.5,0.7-0.1,1.6,0.2,2L1,16.7c0.3,0.7,0.8,1.2,1.2,1.6l0.2,0.2
		c0.2,0.2,0.3,0.4,0.5,0.6c0.3,0.4,0.7,0.8,1.1,1.1c0.3,0.3,0.6,0.5,1,0.7c0.1,0.1,0.3,0.2,0.4,0.3c0.1,0.1,1,0.7,1.8,0.7
		c0.4,0,0.8-0.2,1-0.5c0.2-0.3,0.2-0.7,0.2-1l0-0.2c0.1-0.2,0.1-0.5,0.1-0.9c0-0.3,0-0.6,0-0.8l0-0.1c1.6,0.3,3.3-0.1,4.4-1.2
		c0,0,1.3-1,3.3-2l0-7.7c0-1.6,1.3-2.9,2.9-2.9c0.9,0,1.8,0.4,2.3,1.1c0.1-0.1,0.1-0.2,0.2-0.3C22.5,5,23.2,4.7,24,4.7
		c0.9,0,1.8,0.4,2.3,1.1c0.5-0.7,1.4-1.1,2.3-1.1c1.6,0,2.9,1.3,2.9,2.9l0,7.9c1.2,0.6,2.5,1.3,3.7,2.2c1.2,0.8,2.6,1.2,4.1,0.9
		l0,0.1c0,0.3,0,0.6,0,0.8c0,0.3,0.1,0.6,0.1,0.8l0,0.2c0,0.3,0,0.6,0.2,0.9c0.2,0.3,0.6,0.5,1,0.5c0.8,0,1.7-0.6,1.8-0.7
		c0.2-0.1,0.3-0.2,0.5-0.3c0.3-0.2,0.6-0.4,1-0.7c0.4-0.4,0.8-0.8,1.1-1.1c0.2-0.2,0.3-0.4,0.5-0.6l0.2-0.2c0.4-0.5,0.9-0.9,1.2-1.6
		l0.1-0.1C47.3,16.1,47.8,15.2,47.3,14.5z"/>
</g>
</svg>
