<?xml version="1.0" encoding="utf-8"?>
<!-- Generator: Adobe Illustrator 18.0.0, SVG Export Plug-In . SVG Version: 6.00 Build 0)  -->
<!DOCTYPE svg PUBLIC "-//W3C//DTD SVG 1.1//EN" "http://www.w3.org/Graphics/SVG/1.1/DTD/svg11.dtd">
<svg version="1.1" id="Layer_1" xmlns="http://www.w3.org/2000/svg" xmlns:xlink="http://www.w3.org/1999/xlink" x="0px" y="0px"
	 viewBox="0 0 48 48" enable-background="new 0 0 48 48" xml:space="preserve">
<g>
	<path fill="#F04B36" d="M47.5,22.9c0-2.7-2.6-4.9-5.9-4.9H23.3c-3.2,0-5.9,2.2-5.9,4.9c0,1.2,0.5,2.4,1.5,3.2
		c-1,1.1-1.5,2.5-1.5,3.9v11.6c0,3.3,2.6,5.9,5.9,5.9h18.3c3.2,0,5.9-2.7,5.9-5.9V30c0-1.5-0.5-2.8-1.5-3.9
		C47,25.2,47.5,24.1,47.5,22.9z M25.6,23.3c0.5,0,0.8,0.4,0.8,0.9c0,0.5-0.4,0.9-0.8,0.9c-0.5,0-0.8-0.4-0.8-0.9
		C24.8,23.6,25.1,23.3,25.6,23.3z M25.3,41.8c-0.6,0-1-0.5-1-1c0-0.6,0.5-1,1-1c0.6,0,1,0.5,1,1C26.3,41.3,25.9,41.8,25.3,41.8z
		 M26.7,31.8c-0.4,0-0.7-0.3-0.7-0.7c0-0.4,0.3-0.7,0.7-0.7s0.7,0.3,0.7,0.7C27.5,31.5,27.1,31.8,26.7,31.8z M33.2,37.9
		c-0.8,0-1.4-0.7-1.4-1.5c0-0.8,0.6-1.5,1.4-1.5c0.8,0,1.4,0.7,1.4,1.5C34.6,37.3,34,37.9,33.2,37.9z M36.8,25.3
		c-0.5,0-0.9-0.4-0.9-0.9c0-0.5,0.4-0.9,0.9-0.9c0.5,0,0.9,0.4,0.9,0.9C37.7,24.9,37.3,25.3,36.8,25.3z M38.9,32.2c0-0.6,0.5-1,1-1
		c0.6,0,1,0.5,1,1c0,0.6-0.5,1-1,1C39.4,33.2,38.9,32.7,38.9,32.2z M40.8,42.4c-0.5,0-0.9-0.4-0.9-0.9c0-0.5,0.4-0.9,0.9-0.9
		c0.5,0,0.9,0.4,0.9,0.9C41.7,42,41.3,42.4,40.8,42.4z"/>
	<path fill="#F7A93B" d="M23.3,16h11l-3-6.2c-0.6-1.3-1.6-2.4-2.9-3C29,5.6,29,4.4,28.6,3.3c-0.4-1-1.3-1.9-2.4-2.3
		c-1.5-0.6-3.2-0.5-4.9,0.1L4.4,8.2c-3,1.3-4.6,4.3-3.5,6.8c0.5,1.1,1.4,2,2.6,2.4C3,18.8,3,20.2,3.6,21.6L8,32.3
		c0.6,1.5,1.7,2.6,3.2,3.2c0.7,0.3,1.5,0.4,2.2,0.4c0.7,0,1.3-0.1,2-0.4V30c0-0.2,0-0.5,0-0.7c0,0-0.1,0-0.1,0.1
		c-0.5,0.2-1.1,0-1.3-0.5c-0.2-0.5,0-1.1,0.5-1.3c0.4-0.2,0.9,0,1.2,0.3c0.2-0.5,0.4-1.1,0.7-1.6c-0.6-1-1-2.2-1-3.3
		C15.4,19.1,18.9,16,23.3,16z M24.3,12.9c0.8,0,1.4,0.7,1.4,1.5c0,0.8-0.6,1.5-1.4,1.5c-0.8,0-1.4-0.7-1.4-1.5
		C22.8,13.6,23.5,12.9,24.3,12.9z M18.9,8c0.5-0.2,1,0,1.2,0.5c0.2,0.5,0,1-0.5,1.2c-0.5,0.2-1,0-1.2-0.5C18.3,8.7,18.5,8.2,18.9,8z
		 M9.2,13.7c-0.4,0.2-0.9,0-1.1-0.5c-0.2-0.4,0-0.9,0.5-1.1c0.4-0.2,0.9,0,1.1,0.5C9.8,13,9.6,13.5,9.2,13.7z M12.9,19.6
		c-0.4,0.2-0.8,0-0.9-0.4c-0.2-0.4,0-0.8,0.4-0.9c0.4-0.2,0.8,0,0.9,0.4C13.4,19.1,13.3,19.5,12.9,19.6z"/>
</g>
</svg>
