<?xml version="1.0" encoding="utf-8"?>
<!-- Generator: Adobe Illustrator 18.0.0, SVG Export Plug-In . SVG Version: 6.00 Build 0)  -->
<!DOCTYPE svg PUBLIC "-//W3C//DTD SVG 1.1//EN" "http://www.w3.org/Graphics/SVG/1.1/DTD/svg11.dtd">
<svg version="1.1" id="Layer_1" xmlns="http://www.w3.org/2000/svg" xmlns:xlink="http://www.w3.org/1999/xlink" x="0px" y="0px"
	 viewBox="0 0 48 48" enable-background="new 0 0 48 48" xml:space="preserve">
<g>
	<path fill="#294E58" d="M42,7.2c-0.3,0-0.7,0-1,0.1c0.1-0.4,0.1-0.8,0.1-1.2c0-3.1-2.4-5.6-5.6-5.6c-3,0-5.5,2.5-5.5,5.6
		c0,1.5,0.6,2.9,1.6,4c1,1,2.2,1.6,3.6,1.6l-4.3,4.5c-0.1-0.3-0.2-0.6-0.3-0.8c-0.5-0.8-1.1-1-1.6-1c-0.4,0-0.8,0.2-1.1,0.3
		c-0.1,0-0.2,0.1-0.3,0.1c0-0.1-0.1-0.2-0.1-0.3c-0.1-0.3-0.2-0.5-0.3-0.8c-0.4-0.6-1.2-1.8-2.1-2.2c-0.3-0.2-0.7-0.2-1,0
		c-0.3,0.2-0.5,0.6-0.4,0.9c0.1,0.8,0,1.7-0.2,2.4c-1.1,4.4-6.5,5.7-10.8,6.8L12,22c-0.9,0.2-1.9,0.5-2.8,0.9
		c-5.5,1.8-9,7.1-8.6,12.9C1,42.4,6.5,47.5,13,47.5c0.3,0,0.6,0,0.9,0c5.8-0.4,10.6-4.9,11.4-10.6c0.1-0.4,0.2-0.7,0.3-1
		c0.1-0.2,0.1-0.4,0.2-0.6c0.2-0.7,0.4-1.4,0.6-2.1c0.3-0.9,0.5-1.9,0.9-2.8c0.7-1.8,1.3-3.1,3-4c0.7-0.4,1.6-0.4,2.6-0.4l0.5,0
		c0.5,0,1,0,1.6-0.1c0.5-0.1,0.9-0.5,0.9-1c0-1-0.1-2-0.8-2.8c-0.4-0.5-1-0.7-1.4-0.9c-0.2-0.1-0.5-0.2-0.5-0.3c0-0.1,0-0.2,0.1-0.5
		c0.1-0.5,0.4-1.4-0.5-2.3c-0.2-0.2-0.3-0.3-0.5-0.4l4.2-4.5c0.1,1.3,0.6,2.6,1.6,3.5c1,1.1,2.4,1.7,3.9,1.7c0,0,0,0,0,0
		c3,0,5.5-2.5,5.5-5.6C47.5,9.8,45.1,7.3,42,7.2z M38,8.8L38,8.8c-0.7,0.6-1.5,1-2.4,1v1l0-1c-1,0-1.9-0.4-2.5-1.1
		c-0.7-0.7-1-1.6-1-2.6c0-2,1.6-3.6,3.6-3.6c2,0,3.6,1.7,3.6,3.7C39.1,7.1,38.7,8,38,8.8C38,8.7,38,8.7,38,8.8z M42,16.5v1V16.5
		c-1,0-1.9-0.4-2.6-1.1c-0.7-0.7-1-1.6-1-2.6c0-2,1.6-3.6,3.6-3.6c2,0,3.6,1.7,3.6,3.7C45.5,14.9,43.9,16.5,42,16.5z"/>
</g>
</svg>
