<?xml version="1.0" encoding="utf-8"?>
<!-- Generator: Adobe Illustrator 18.0.0, SVG Export Plug-In . SVG Version: 6.00 Build 0)  -->
<!DOCTYPE svg PUBLIC "-//W3C//DTD SVG 1.1//EN" "http://www.w3.org/Graphics/SVG/1.1/DTD/svg11.dtd">
<svg version="1.1" id="Layer_1" xmlns="http://www.w3.org/2000/svg" xmlns:xlink="http://www.w3.org/1999/xlink" x="0px" y="0px"
	 viewBox="0 0 48 48" enable-background="new 0 0 48 48" xml:space="preserve">
<g>
	<path fill="#E77528" d="M30.9,19.4c0.6,0,1.2-0.2,1.7-0.7L46.8,4.6c0.9-0.9,0.9-2.4,0-3.4c-0.9-0.9-2.4-0.9-3.4,0L29.2,15.4
		c-0.7,0.7-0.9,1.7-0.5,2.5l-3,3c-1.3-2.3-2.8-4.8-6-5.5c-0.5-0.1-1,0.2-1.1,0.7c-0.1,0.5,0.2,1,0.7,1.1c2.6,0.6,3.8,2.7,5,5
		l-2.9,2.9c-0.3-0.3-0.8-0.6-1.1-1c-0.3-0.4-0.6-0.9-0.9-1.4c-0.6-0.9-1.3-2.1-2.3-2.6c-0.7-0.3-2.2-0.5-2.9-0.4
		c-1.1,0.3-1.3,1.3-1.6,2.3c-0.5,2.3,0.6,4.1,1.8,6c0.5,0.7,1.1,1.5,1.7,2.3l-1,1c-0.7-0.5-1.8-0.8-2.5-1c-1-0.4-2-0.6-3.1-0.6
		C7.2,30,6,31.6,5,33.4c-1.2,2.2-1,4.3,0.5,6.3c0.2,0.3,0.4,0.6,0.6,0.9l-5.3,5.3c-0.4,0.4-0.4,1,0,1.3c0.2,0.2,0.4,0.3,0.7,0.3
		c0.2,0,0.5-0.1,0.7-0.3l5-5c0.8,1.2,1.8,2.3,3.4,2.4c3.2,0.3,6.6-0.9,7.7-4.2c0.8-2.6-0.3-5.5-1.7-7.6l0.9-0.9
		c0.5,0.4,1,0.8,1.4,1.1c1.3,0.8,2.9,1.4,4.3,1.6c0.5,0.1,1.7,0.3,2.2,0.1c0.7-0.3,0.8-1.4,0.8-2.1c0.2-1.7-0.1-3.1-1.2-4.5
		c-0.5-0.6-1.3-1.3-2.1-1.6l2.4-2.4c1.8,3,5,4,8.2,4.8c0.1,0,0.2,0,0.2,0c0.4,0,0.8-0.3,0.9-0.7c0.1-0.5-0.2-1-0.7-1.1
		c-2.9-0.7-5.7-1.6-7.1-4c-0.1-0.1-0.1-0.2-0.2-0.3l3.4-3.4C30.3,19.4,30.6,19.4,30.9,19.4z"/>
</g>
</svg>
