<?xml version="1.0" encoding="utf-8"?>
<!-- Generator: Adobe Illustrator 18.0.0, SVG Export Plug-In . SVG Version: 6.00 Build 0)  -->
<!DOCTYPE svg PUBLIC "-//W3C//DTD SVG 1.1//EN" "http://www.w3.org/Graphics/SVG/1.1/DTD/svg11.dtd">
<svg version="1.1" id="Layer_1" xmlns="http://www.w3.org/2000/svg" xmlns:xlink="http://www.w3.org/1999/xlink" x="0px" y="0px"
	 viewBox="0 0 48 48" enable-background="new 0 0 48 48" xml:space="preserve">
<g>
	<path fill="#E77528" d="M13.4,42h29c0-8.4-6.5-15.1-14.5-15.1C19.9,26.8,13.4,33.6,13.4,42z"/>
	<path fill="#F04B36" d="M46.1,44.8H10c-0.8,0-1.4,0.6-1.4,1.4c0,0.8,0.6,1.4,1.4,1.4h36.2c0.8,0,1.4-0.6,1.4-1.4
		C47.5,45.4,46.9,44.8,46.1,44.8z"/>
	<path fill="#0DB89A" d="M32.5,19.6c0.5,0,1-0.4,1-1v-6.1c0-0.5-0.4-1-1-1c-0.5,0-1,0.4-1,1v6.1C31.5,19.2,31.9,19.6,32.5,19.6z"/>
	<path fill="#0DB89A" d="M27.9,19.6c0.5,0,1-0.4,1-1v-8.4c0-0.5-0.4-1-1-1c-0.5,0-1,0.4-1,1v8.4C26.9,19.2,27.3,19.6,27.9,19.6z"/>
	<path fill="#0DB89A" d="M23.3,19.6c0.5,0,1-0.4,1-1v-6.1c0-0.5-0.4-1-1-1c-0.5,0-1,0.4-1,1v6.1C22.3,19.2,22.7,19.6,23.3,19.6z"/>
	<path fill="#06728D" d="M17.7,9.1c0-4.7-3.9-8.6-8.6-8.6c-4.8,0-8.6,3.8-8.6,8.6c0,4.7,3.9,8.6,8.6,8.6
		C13.9,17.6,17.7,13.8,17.7,9.1z M8.1,9.6V3.2c0-0.5,0.4-1,1-1s1,0.4,1,1v5.4h1.7c0.5,0,1,0.4,1,1c0,0.5-0.4,1-1,1H9.1
		C8.6,10.6,8.1,10.1,8.1,9.6z"/>
	<path fill="#06728D" d="M27.9,25c1.3,0,2.7,0.2,3.9,0.5c-0.5-1.8-2.1-3.1-3.9-3.1c-1.9,0-3.4,1.3-4,3.1C25.2,25.3,26.5,25,27.9,25z
		"/>
</g>
</svg>
