<?xml version="1.0" encoding="utf-8"?>
<!-- Generator: Adobe Illustrator 18.0.0, SVG Export Plug-In . SVG Version: 6.00 Build 0)  -->
<!DOCTYPE svg PUBLIC "-//W3C//DTD SVG 1.1//EN" "http://www.w3.org/Graphics/SVG/1.1/DTD/svg11.dtd">
<svg version="1.1" id="Layer_1" xmlns="http://www.w3.org/2000/svg" xmlns:xlink="http://www.w3.org/1999/xlink" x="0px" y="0px"
	 viewBox="0 0 48 48" enable-background="new 0 0 48 48" xml:space="preserve">
<g>
	<path fill="#294E58" d="M47,33.9c-1-2.1-3.4-3.2-5.6-2.5c-0.1,0-0.2,0-0.3,0.1l-3.6,1.7c0,0,0,0,0,0c-1.1,0.5-1.9,1.4-2.3,2.6
		c-0.3,0.9-0.4,1.8-0.1,2.7l-15.2,7.2c-0.5,0.2-0.7,0.8-0.5,1.3c0.2,0.4,0.5,0.6,0.9,0.6c0.1,0,0.3,0,0.4-0.1L36,40.2
		c0.9,1.2,2.3,1.9,3.7,1.9c0.6,0,1.3-0.1,1.9-0.4c0,0,0,0,0,0l3.3-1.6c0,0,0,0,0,0c0,0,0,0,0,0l0.2-0.1c0.1,0,0.1-0.1,0.2-0.1
		c0.9-0.5,1.5-1.3,1.9-2.3C47.6,36.3,47.6,35.1,47,33.9z M37.2,38.5c-0.3-0.7-0.4-1.4-0.1-2.1c0.2-0.7,0.7-1.2,1.3-1.5c0,0,0,0,0,0
		l3.3-1.6c1.3-0.6,2.9,0,3.5,1.3c0.3,0.7,0.4,1.4,0.1,2.1c-0.2,0.6-0.7,1.2-1.3,1.5l-3.3,1.6c0,0,0,0,0,0
		C39.4,40.5,37.8,39.9,37.2,38.5z"/>
	<path fill="#F04B36" d="M39.9,12C38.6,0.7,28.7,0.5,27.6,0.6c-0.7-0.1-5.2-0.5-9.6,2.6C13.7,7.4,11.1,8,9.9,8c-0.3,0-0.5,0-0.6-0.1
		c-0.6-0.2-1-0.8-0.8-1.5c0.1-0.7,0.7-1.1,1.3-0.9c0,0,1.7,0.2,5.1-2.6C12.4,2.3,9,2.2,6.2,3.7C4,4.8,1.3,7.2,0.7,12.6
		c-1.2,9.7,4.5,12.7,6.6,13.5v10.8c0,0.5,0.4,1,1,1h23.3c0.5,0,1-0.4,1-1V26C34.8,25.2,41.1,21.8,39.9,12z M16.5,27.9
		c0,0.3-0.1,0.6-0.1,0.8c-0.1,0.9-0.4,1.5-0.7,2.1c-0.1,0.3-0.3,0.6-0.4,0.9c-0.1,0.4-0.5,0.7-0.9,0.7c-0.1,0-0.2,0-0.3,0
		c-0.5-0.2-0.8-0.7-0.6-1.2c0.1-0.4,0.3-0.8,0.5-1.2c0.2-0.5,0.4-0.9,0.5-1.5c0-0.2,0.1-0.5,0.1-0.9c0.1-0.8,0.3-2.1,0-2.6
		c-0.2-0.5-0.1-1.1,0.4-1.3c0.5-0.2,1.1-0.1,1.3,0.4C16.9,25.2,16.7,26.7,16.5,27.9z M24.4,29c0.1,0.7,0.3,1.3,0.3,2
		c0,0.5-0.4,1-0.9,1c0,0,0,0,0,0c-0.5,0-1-0.4-1-0.9c0-0.5-0.1-1-0.3-1.6c-0.3-1.6-0.7-3.6,0.6-5c0.4-0.4,1-0.4,1.4,0
		c0.4,0.4,0.4,1,0,1.4C23.9,26.4,24,27.5,24.4,29z"/>
</g>
</svg>
