<?xml version="1.0" encoding="utf-8"?>
<!-- Generator: Adobe Illustrator 18.0.0, SVG Export Plug-In . SVG Version: 6.00 Build 0)  -->
<!DOCTYPE svg PUBLIC "-//W3C//DTD SVG 1.1//EN" "http://www.w3.org/Graphics/SVG/1.1/DTD/svg11.dtd">
<svg version="1.1" id="Layer_1" xmlns="http://www.w3.org/2000/svg" xmlns:xlink="http://www.w3.org/1999/xlink" x="0px" y="0px"
	 viewBox="0 0 48 48" enable-background="new 0 0 48 48" xml:space="preserve">
<g>
	<path fill="#CFD0D1" d="M43.9,24.5c0-5.1,3.4-10.6,3.5-10.6c0.2-0.3,0.2-0.8,0-1.1c-0.2-0.3-0.7-0.5-1.1-0.3
		c-2.3,0.7-7.7,4.7-9.6,6.1c-5.2-3.7-10.1-6-14.6-6.9c1.2-0.5,3.3-0.8,6.2-0.1c0.5,0.1,1.1-0.2,1.2-0.7c0.1-0.5-0.2-1.1-0.7-1.2
		c-6.2-1.6-9.2,1-9.7,1.6c-2.2-0.1-4.4,0.1-6.4,0.7c-8.7,2.7-11.9,11.3-12,11.7c0,0,0,0.1,0,0.1c0,0.1,0,0.1,0,0.2s0,0.1,0,0.2
		c0,0,0,0.1,0,0.1c0.1,0.4,3.4,9,12,11.7c1.7,0.5,3.4,0.8,5.2,0.8c0.4,0,0.8,0,1.2,0c0.4,0.4,2.3,2.1,6,2.1c1.1,0,2.3-0.1,3.7-0.5
		c0.5-0.1,0.8-0.7,0.7-1.2c-0.1-0.5-0.7-0.8-1.2-0.7c-3,0.7-5,0.4-6.2-0.1c4.5-0.9,9.4-3.2,14.6-6.9c1.9,1.4,7.4,5.4,9.6,6.1
		c0.4,0.1,0.9,0,1.1-0.4c0.2-0.4,0.2-0.8,0-1.2C47.3,34,43.9,29.6,43.9,24.5z M12.4,25.8c-1,0-1.8-0.8-1.8-1.8c0-1,0.8-1.8,1.8-1.8
		c1,0,1.8,0.8,1.8,1.8C14.2,25,13.4,25.8,12.4,25.8z"/>
</g>
</svg>
