<?xml version="1.0" encoding="utf-8"?>
<!-- Generator: Adobe Illustrator 18.0.0, SVG Export Plug-In . SVG Version: 6.00 Build 0)  -->
<!DOCTYPE svg PUBLIC "-//W3C//DTD SVG 1.1//EN" "http://www.w3.org/Graphics/SVG/1.1/DTD/svg11.dtd">
<svg version="1.1" id="Layer_1" xmlns="http://www.w3.org/2000/svg" xmlns:xlink="http://www.w3.org/1999/xlink" x="0px" y="0px"
	 viewBox="0 0 48 48" enable-background="new 0 0 48 48" xml:space="preserve">
<g>
	<path fill="#0DB89A" d="M24,0.5c-8.5,0-15.5,6-15.5,13.3c0,5.4,3.9,10.3,9.7,12.3v17c0,2.4,2,4.4,4.4,4.4h2.8c2.4,0,4.4-2,4.4-4.4
		v-17c5.8-2,9.7-6.9,9.7-12.3C39.5,6.5,32.5,0.5,24,0.5z M29.2,18.1c-0.5,0.3-1.3,0-2.2-0.4c-0.9-0.3-1.9-0.7-3-0.7
		c-1.1,0-2.1,0.4-2.9,0.8c-0.9,0.4-1.6,0.7-2.1,0.4c-2-1.1-3.2-2.8-3.2-4.6c0-3.2,3.7-5.8,8.2-5.8c4.5,0,8.2,2.6,8.2,5.8
		C32.2,15.4,31.1,17,29.2,18.1z"/>
</g>
</svg>
