<?xml version="1.0" encoding="utf-8"?>
<!-- Generator: Adobe Illustrator 18.0.0, SVG Export Plug-In . SVG Version: 6.00 Build 0)  -->
<!DOCTYPE svg PUBLIC "-//W3C//DTD SVG 1.1//EN" "http://www.w3.org/Graphics/SVG/1.1/DTD/svg11.dtd">
<svg version="1.1" id="Layer_1" xmlns="http://www.w3.org/2000/svg" xmlns:xlink="http://www.w3.org/1999/xlink" x="0px" y="0px"
	 viewBox="0 0 48 48" enable-background="new 0 0 48 48" xml:space="preserve">
<g>
	<path fill="#0DB89A" d="M24.1,15.6c-0.1,0-0.1,0-0.2,0c-0.7-0.1-1.2-0.8-1.1-1.5C23.7,7.3,19,2.8,19,2.8c-0.5-0.5-0.6-1.3-0.1-1.9
		c0.5-0.5,1.3-0.6,1.9-0.1c0.2,0.2,5.8,5.5,4.6,13.7C25.3,15.2,24.7,15.6,24.1,15.6z"/>
	<path fill="#0DB89A" d="M24.2,9.8c0,0-0.6-9.2,14.7-6.7C38.9,3.1,35.2,15,24.2,9.8z"/>
	<path fill="#F04B36" d="M40.1,16.3c-0.2-0.2-4.4-4.3-9.3-3.7c-2.2,0.3-2.9,0.6-3.5,0.8c-0.6,0.2-1,0.4-3.4,0.5
		c-2.4,0-2.9-0.2-3.4-0.4c-0.6-0.2-1.3-0.5-3.6-0.7c-5-0.5-9.1,3.8-9.3,4c-2.8,3.4-3.9,7.3-3.2,11.7c1.2,8.6,8.7,16,11.3,17.7
		c1.4,0.9,2.9,1.4,4.5,1.4c1.8,0,3.3-0.6,4.1-1.1c0.9,0.4,2.4,1,4.1,1c1.6,0,3.1-0.5,4.5-1.5c2.5-1.8,9.8-9.4,10.9-18
		C44.2,23.6,43.1,19.7,40.1,16.3z"/>
</g>
</svg>
