<?xml version="1.0" encoding="utf-8"?>
<!-- Generator: Adobe Illustrator 18.0.0, SVG Export Plug-In . SVG Version: 6.00 Build 0)  -->
<!DOCTYPE svg PUBLIC "-//W3C//DTD SVG 1.1//EN" "http://www.w3.org/Graphics/SVG/1.1/DTD/svg11.dtd">
<svg version="1.1" id="Layer_1" xmlns="http://www.w3.org/2000/svg" xmlns:xlink="http://www.w3.org/1999/xlink" x="0px" y="0px"
	 viewBox="0 0 48 48" enable-background="new 0 0 48 48" xml:space="preserve">
<g>
	<path fill="#E77528" d="M32.9,15.6H15.1c-1.6,0-2.9,1.3-2.8,3l1.6,26c0.1,1.6,1.5,3,3.1,3h13.8c1.6,0,3-1.3,3.1-3l1.6-26
		C35.7,16.9,34.5,15.6,32.9,15.6z"/>
	<path fill="#06728D" d="M15.1,12.7h17.7c1.1,0,2,0.6,2.5,1.5h0.3c0-3.7-2.9-6.8-7-8.2c-0.1-3-2.2-5.5-4.7-5.5
		c-2.5,0-4.5,2.4-4.7,5.5c-4.1,1.4-7,4.5-7,8.2h0.3C13.1,13.3,14,12.7,15.1,12.7z"/>
</g>
</svg>
