<?xml version="1.0" encoding="utf-8"?>
<!-- Generator: Adobe Illustrator 18.0.0, SVG Export Plug-In . SVG Version: 6.00 Build 0)  -->
<!DOCTYPE svg PUBLIC "-//W3C//DTD SVG 1.1//EN" "http://www.w3.org/Graphics/SVG/1.1/DTD/svg11.dtd">
<svg version="1.1" id="Layer_1" xmlns="http://www.w3.org/2000/svg" xmlns:xlink="http://www.w3.org/1999/xlink" x="0px" y="0px"
	 viewBox="0 0 48 48" enable-background="new 0 0 48 48" xml:space="preserve">
<g>
	<path fill="#06728D" d="M0.5,24c0,1.4,1.2,2.4,2.6,2.4c0.6,0,2.7-0.2,4.9-0.5v-3.8c-2.2-0.3-4.3-0.5-4.9-0.5
		C1.7,21.6,0.5,22.6,0.5,24z"/>
	<path fill="#06728D" d="M44.9,21.6c-0.6,0-2.7,0.2-4.9,0.5v3.8c2.2,0.3,4.3,0.5,4.9,0.5c1.4,0,2.6-1.1,2.6-2.4
		C47.5,22.6,46.3,21.6,44.9,21.6z"/>
	<path fill="#F7A93B" d="M33.3,17.2H14.7c-2.5,0-4.6,2.1-4.6,4.6v4.4c0,2.5,2.1,4.6,4.6,4.6h18.7c2.5,0,4.6-2.1,4.6-4.6v-4.4
		C38,19.3,35.9,17.2,33.3,17.2z"/>
</g>
</svg>
