<?xml version="1.0" encoding="utf-8"?>
<!-- Generator: Adobe Illustrator 18.0.0, SVG Export Plug-In . SVG Version: 6.00 Build 0)  -->
<!DOCTYPE svg PUBLIC "-//W3C//DTD SVG 1.1//EN" "http://www.w3.org/Graphics/SVG/1.1/DTD/svg11.dtd">
<svg version="1.1" id="Layer_1" xmlns="http://www.w3.org/2000/svg" xmlns:xlink="http://www.w3.org/1999/xlink" x="0px" y="0px"
	 viewBox="0 0 48 48" enable-background="new 0 0 48 48" xml:space="preserve">
<g>
	<path fill="#F04B36" d="M19.1,10.6c-6.9,0-12.6,3.2-13.9,7.4h27.7C31.7,13.8,26,10.6,19.1,10.6z"/>
	<path fill="#E77528" d="M14.9,8.2c0.5,0,1-0.4,1-1V3.7c0-0.5-0.4-1-1-1c-0.5,0-1,0.4-1,1v3.5C13.9,7.8,14.4,8.2,14.9,8.2z"/>
	<path fill="#E77528" d="M19.1,8.2c0.5,0,1-0.4,1-1V1.5c0-0.6-0.4-1-1-1c-0.5,0-1,0.4-1,1v5.7C18.1,7.8,18.5,8.2,19.1,8.2z"/>
	<path fill="#E77528" d="M23.2,8.2c0.5,0,1-0.4,1-1V3.7c0-0.5-0.4-1-1-1c-0.5,0-1,0.4-1,1v3.5C22.2,7.8,22.7,8.2,23.2,8.2z"/>
	<path fill="#4DA0D8" d="M46.5,19H33.6H4.5h-3c-0.5,0-1,0.4-1,1s0.4,1,1,1h2.1v13.7c0,2.3,2.1,4.2,4.7,4.2h21.7
		c2.6,0,4.7-1.9,4.7-4.2V21h11.9c0.5,0,1-0.4,1-1S47.1,19,46.5,19z"/>
	<path fill="#0DB89A" d="M35.8,44.8H2.6c-0.7,0-1.3,0.6-1.3,1.4c0,0.8,0.6,1.4,1.3,1.4h33.2c0.7,0,1.3-0.6,1.3-1.4
		C37.1,45.4,36.5,44.8,35.8,44.8z"/>
	<path fill="#FFD69A" d="M10.1,42.9v-1.7c0-0.6-0.4-1-1-1c-0.5,0-1,0.4-1,1v1.7c0,0.5,0.4,1,1,1C9.7,43.9,10.1,43.5,10.1,42.9z"/>
	<path fill="#FFD69A" d="M14.1,42.9v-1.7c0-0.6-0.4-1-1-1c-0.5,0-1,0.4-1,1v1.7c0,0.5,0.4,1,1,1C13.6,43.9,14.1,43.5,14.1,42.9z"/>
	<path fill="#FFD69A" d="M18,42.9v-1.7c0-0.6-0.4-1-1-1c-0.5,0-1,0.4-1,1v1.7c0,0.5,0.4,1,1,1C17.6,43.9,18,43.5,18,42.9z"/>
	<path fill="#FFD69A" d="M22,42.9v-1.7c0-0.6-0.4-1-1-1c-0.5,0-1,0.4-1,1v1.7c0,0.5,0.4,1,1,1C21.6,43.9,22,43.5,22,42.9z"/>
	<path fill="#FFD69A" d="M26,42.9v-1.7c0-0.6-0.4-1-1-1c-0.5,0-1,0.4-1,1v1.7c0,0.5,0.4,1,1,1C25.6,43.9,26,43.5,26,42.9z"/>
	<path fill="#FFD69A" d="M30,42.9v-1.7c0-0.6-0.4-1-1-1c-0.5,0-1,0.4-1,1v1.7c0,0.5,0.4,1,1,1C29.5,43.9,30,43.5,30,42.9z"/>
</g>
</svg>
