<?xml version="1.0" encoding="utf-8"?>
<!-- Generator: Adobe Illustrator 18.0.0, SVG Export Plug-In . SVG Version: 6.00 Build 0)  -->
<!DOCTYPE svg PUBLIC "-//W3C//DTD SVG 1.1//EN" "http://www.w3.org/Graphics/SVG/1.1/DTD/svg11.dtd">
<svg version="1.1" id="Layer_1" xmlns="http://www.w3.org/2000/svg" xmlns:xlink="http://www.w3.org/1999/xlink" x="0px" y="0px"
	 viewBox="0 0 48 48" enable-background="new 0 0 48 48" xml:space="preserve">
<g>
	<path fill="#FFD69A" d="M5.9,24.7c-1.2,0-2.3,0.3-3.1,0.8c-1,0.5-2.6,1.8-2.2,3.8C1,31.5,4,34.6,9.5,38.7c0.3-2.2,1.3-6.2,5.2-10.5
		C12.3,26.3,8.8,24.7,5.9,24.7z M7.4,31c-0.5,0-1-0.4-1-1c0-0.5,0.4-1,1-1s1,0.4,1,1C8.3,30.5,7.9,31,7.4,31z"/>
	<path fill="#F04B36" d="M27.9,25.9c-0.8,0.3-1.8,0.7-2.7,1.1c-0.7,0.3-1.4,0.5-2.1,0.8c-0.4,2.2-1.1,7.7,1.5,13.6
		c3.5-0.5,7.7-1.8,10-3.6C30.9,34.6,28.8,29.1,27.9,25.9z"/>
	<path fill="#4DA0D8" d="M21,28.4c-0.7,0.1-1.7,0.2-2.6,0.3c-0.6,0.1-1.1,0.1-1.6,0.2c-5.2,5.4-5.4,10.5-5.4,11.3
		c2.3,1.4,5.1,2,7.5,2c1.4,0,2.6-0.2,3.7-0.4C20.3,36.2,20.5,31.1,21,28.4z"/>
	<path fill="#E8B944" d="M47.1,6.2c-0.8-0.6-0.8-0.6-9.7,6.7L27.3,8.6c-0.3-0.1-0.7-0.1-1,0.1c-0.3,0.2-0.4,0.6-0.3,0.9
		c0.6,3.3,1.8,6.2,3.4,8.6c3,2.7,5.9,3.9,8.6,3.7c1.8-0.1,3.2-0.9,4.2-1.7c2.6-4.1,4.7-9.1,5.4-13.1v0C47.5,6.8,47.4,6.4,47.1,6.2z"
		/>
	<path fill="#06728D" d="M38.5,23.9c-0.1,0-0.2,0-0.3,0c-2.3,0.2-4.6-0.5-7-1.9c-0.3,0.4-0.6,0.9-0.9,1.3c-0.2,0.3-0.5,0.7-0.7,1
		c0.7,2.8,2.7,9,6.5,12.1c3.1-3.5,4.9-8.9,4.3-13C39.7,23.7,39.1,23.8,38.5,23.9z"/>
	<path fill="#06728D" d="M23.3,17.8l0.4,5.2c0,0.5,0.5,0.9,1,0.9c0,0,0.1,0,0.1,0c0.5,0,0.9-0.5,0.9-1.1l-0.5-5.6
		c0-0.3-0.1-0.5-0.3-0.7l-3-2.6c-0.4-0.4-1-0.3-1.4,0.1c-0.4,0.4-0.3,1,0.1,1.4L23.3,17.8z"/>
	<path fill="#06728D" d="M18,20.1l-0.8,5.1c-0.1,0.5,0.3,1,0.8,1.1c0,0,0.1,0,0.1,0c0.5,0,0.9-0.3,1-0.8L20,20c0-0.2,0-0.5-0.2-0.7
		L17.6,16c-0.3-0.4-0.9-0.6-1.4-0.2c-0.4,0.3-0.5,0.9-0.2,1.4L18,20.1z"/>
</g>
</svg>
