<?xml version="1.0" encoding="utf-8"?>
<!-- Generator: Adobe Illustrator 18.0.0, SVG Export Plug-In . SVG Version: 6.00 Build 0)  -->
<!DOCTYPE svg PUBLIC "-//W3C//DTD SVG 1.1//EN" "http://www.w3.org/Graphics/SVG/1.1/DTD/svg11.dtd">
<svg version="1.1" id="Layer_1" xmlns="http://www.w3.org/2000/svg" xmlns:xlink="http://www.w3.org/1999/xlink" x="0px" y="0px"
	 viewBox="0 0 48 48" enable-background="new 0 0 48 48" xml:space="preserve">
<g>
	<path fill="#E77528" d="M43.6,40.4c-0.5-0.5-0.8-0.9-1.1-1.1c-0.7-0.7-0.7-0.7-0.8-2.6c-0.1-1.1,0-2.3,0-3.4c0-0.6,0-1.2,0-1.8
		c0-1.1,0-2.2,0.1-3.3c0.1-2.3,0.2-4.6-0.1-6.8c0-0.2,0-0.5,0-0.8c0-1.1-0.1-2-0.4-2.5c-0.2-0.3-0.4-0.4-0.8-0.5
		c-0.2-0.2-0.6-0.3-0.9-0.1c-2.4,1.1-4.6,1.6-7.2,1.6c-1.7,0-3.4,0-5-0.1c-1.7,0-3.4-0.1-5.1-0.1c-2.8,0-5.4-0.4-8.1-0.7l-0.2,0
		c-0.9-0.1-1.7-0.1-2.5-0.1c-0.5,0-1,0-1.5,0c-0.5,0-1-0.2-1.4-0.3c-0.4-0.1-0.8-0.2-1.1-0.3c-0.3-0.1-0.6,0.1-0.8,0.3
		c-0.2,0.1-0.4,0.3-0.4,0.6c-0.9,5-0.9,9.2-0.9,13.6l0,1.4l0,1.7c0,1.1,0,2.2,0,3.3c0,0.9-0.4,1.5-0.9,2.3c-0.4,0.6-0.9,1.4-1.1,2.3
		C2.8,44.2,3,45.2,3.7,46c1.6,1.8,5.3,1.5,8.7,1c3.7-0.5,7.4-0.5,11.4-0.5l1.9,0c3,0,4.8,0.1,7,0.3c1.1,0.1,2.3,0.2,3.8,0.2
		c0.5,0,1.1,0.1,1.7,0.2c0.9,0.1,1.8,0.3,2.7,0.3c1.4,0,2.6-0.3,3.3-1.4C45.4,44.4,45.1,42.1,43.6,40.4z"/>
	<path fill="#F04B36" d="M8.8,14.5c0.3,0.1,0.6,0.1,1,0.1c0.5,0,1.1,0,1.6,0c0.8,0,1.5,0,2.3,0.1l0.2,0c2.8,0.4,5.5,0.8,8.4,0.8
		c1.7,0,3.4,0,5,0.1c1.6,0,3.3,0.1,5,0.1c2,0,3.8-0.3,5.7-0.9c0.3-0.1,0.5-0.3,0.6-0.6c0.1-0.3,0-0.6-0.2-0.8
		c-0.8-0.8-1.8-2-2.9-3.2c-2.6-2.8-5.8-6.3-6.3-7c-1.6-2.1-4.3-3.1-7.4-2.6c-2.4,0.4-5,2.9-6.8,4.6c-0.3,0.3-0.6,0.6-0.8,0.8
		c-2.5,2.3-4.7,4.5-5.9,7.2c-0.1,0.2-0.1,0.5,0,0.8C8.3,14.3,8.6,14.4,8.8,14.5z M27.9,10.7c0.7,0,1.2,0.4,1.2,0.9
		c0,0.5-0.5,0.9-1.2,0.9c-0.7,0-1.2-0.4-1.2-0.9C26.7,11.1,27.2,10.7,27.9,10.7z M22.2,4.7c0.7,0,1.2,0.4,1.2,0.9
		c0,0.5-0.5,0.9-1.2,0.9c-0.7,0-1.2-0.4-1.2-0.9C21,5.1,21.5,4.7,22.2,4.7z M17.5,9.8c0.7,0,1.2,0.4,1.2,0.9c0,0.5-0.5,0.9-1.2,0.9
		c-0.7,0-1.2-0.4-1.2-0.9C16.3,10.2,16.9,9.8,17.5,9.8z"/>
</g>
</svg>
