<?xml version="1.0" encoding="utf-8"?>
<!-- Generator: Adobe Illustrator 18.0.0, SVG Export Plug-In . SVG Version: 6.00 Build 0)  -->
<!DOCTYPE svg PUBLIC "-//W3C//DTD SVG 1.1//EN" "http://www.w3.org/Graphics/SVG/1.1/DTD/svg11.dtd">
<svg version="1.1" id="Layer_1" xmlns="http://www.w3.org/2000/svg" xmlns:xlink="http://www.w3.org/1999/xlink" x="0px" y="0px"
	 viewBox="0 0 48 48" enable-background="new 0 0 48 48" xml:space="preserve">
<g>
	<path fill="#0DB89A" d="M18.5,3.5c0.2-0.5-0.1-1.1-0.6-1.2c-0.5-0.2-1.1,0.1-1.2,0.6c-0.6,1.9-0.8,3.7-0.8,5.3L11.5,1
		c-0.3-0.5-0.9-0.6-1.3-0.3C9.7,0.9,9.5,1.5,9.8,2l4.4,7.2C10.9,7.1,6.3,5.4,1.1,7.7C0.6,7.9,0.4,8.5,0.6,9c0.2,0.5,0.8,0.7,1.3,0.5
		c7.4-3.2,13.3,2.6,15.1,4.6l1.7-1.4C18.1,11.1,17.2,7.8,18.5,3.5z"/>
	<path fill="#FFD69A" d="M47.5,46.3c-0.5-1.8-1.4-3.4-2.3-5c-0.9-1.7-1.8-3.2-2.2-4.9c-0.4-1.8-0.1-3.7,0.2-5.2
		c0.4-1.1,0.7-2.4,0.9-3.6l0-0.1c0-0.1,0-0.2,0-0.3c0-0.1,0-0.2,0-0.3c0.3-4.3-1.1-8.4-3.9-11.7c-2.8-3.2-6.7-5.2-11-5.5
		c-3.9-0.3-7.6,0.9-10.6,3L17,14.2c-2.8,2.7-4.6,6.3-4.9,10.3c-0.3,4.3,1.1,8.4,3.9,11.7c2.8,3.2,6.7,5.2,11,5.5c0.5,0,1.1,0,1.6,0
		c1,0.2,2.2,0.3,3.3,0.4c1.3,0.1,2.6,0.2,3.2,0.5c0.8,0.4,1.7,0.7,2.5,1c0.9,0.3,1.7,0.6,2.6,1c0.5,0.2,1.2,0.6,1.8,1
		c1.4,0.9,2.9,1.8,4.4,1.8c0.1,0,0.2,0,0.2,0c0.3,0,0.6-0.2,0.7-0.4C47.5,46.8,47.5,46.5,47.5,46.3z"/>
</g>
</svg>
