<?xml version="1.0" encoding="utf-8"?>
<!-- Generator: Adobe Illustrator 18.0.0, SVG Export Plug-In . SVG Version: 6.00 Build 0)  -->
<!DOCTYPE svg PUBLIC "-//W3C//DTD SVG 1.1//EN" "http://www.w3.org/Graphics/SVG/1.1/DTD/svg11.dtd">
<svg version="1.1" id="Layer_1" xmlns="http://www.w3.org/2000/svg" xmlns:xlink="http://www.w3.org/1999/xlink" x="0px" y="0px"
	 viewBox="0 0 48 48" enable-background="new 0 0 48 48" xml:space="preserve">
<g>
	<path fill="#E77528" d="M25.3,19.4c-0.2,0-0.4,0-0.5-0.1c-0.3-0.1-0.6-0.4-0.7-0.7C24,18.3,24,18,24.2,17.7
		c0.1-0.1,2.4-2.6,3.7-3.9c0.5-0.5,1.1-1.7,0.6-4.9c0-0.2-0.4-0.8-1.5-1.9c-5.5-2.8-9.1-2.6-12-2.4c-0.4,0-0.8,0-1.2,0.1
		c0,0,0,0-0.1,0C12.3,4.9,11,5.1,9.7,5.3C8.4,5.4,7.3,5.6,6.3,5.9c0,0,0,0,0,0c0,0,0,0,0,0c0,0,0,0,0,0C3,6.6,0.8,8.6,0.6,10.3
		c0,0.1,0,0.2,0,0.3l0,0.3c0,1.2-0.1,3.5,2.5,6.3c-0.6,0.5-1.4,1.2-1.6,2.1C1,20.5,0.6,29.6,0.5,32.4c0,0.3-0.2,8.4,4.8,9.9
		c4.4,1.3,11.3,1.9,11.7,1.9h5.8c0.9,0,1.8-0.1,2.8-0.3c0.1-0.2,0.2-0.4,0.4-0.7c0.7-1.6,1-4.1,1-5c-0.1-4,0-17.1,0-17.2
		C27,20.9,26.8,19.4,25.3,19.4z M8.7,30.9c-1.1,0-2-0.9-2-2c0-1.1,0.9-2,2-2c1.1,0,2,0.9,2,2C10.8,30,9.9,30.9,8.7,30.9z M9.9,19.8
		c-0.7,0-1.2-0.5-1.2-1.2c0-0.7,0.5-1.2,1.2-1.2c0.7,0,1.2,0.5,1.2,1.2C11.1,19.3,10.6,19.8,9.9,19.8z M18,10.9
		c0.8,0,1.4,0.6,1.4,1.4c0,0.8-0.6,1.4-1.4,1.4c-0.8,0-1.4-0.6-1.4-1.4C16.6,11.6,17.2,10.9,18,10.9z M18.4,37.1
		c-1,0-1.8-0.8-1.8-1.8c0-1,0.8-1.8,1.8-1.8c1,0,1.8,0.8,1.8,1.8C20.2,36.3,19.4,37.1,18.4,37.1z M18.5,25.9c-1.1,0-1.9-0.9-1.9-1.9
		c0-1.1,0.9-1.9,1.9-1.9c1.1,0,1.9,0.9,1.9,1.9C20.4,25,19.6,25.9,18.5,25.9z"/>
	<path fill="#06728D" d="M46.6,21c-0.4-2.7-1.6-3.7-2.7-4.1c0.4-0.4,0.8-1,1.4-1.6c1.2-1.4,2.4-2.9,2.2-4.8c-0.1-1.5-1.1-3-3-4.5
		c-2.3-1.8-9.2-2.1-14.7-2.1c-1.7,0-3.5,0-5.3,0.1c1.1,0.4,2.3,0.9,3.5,1.5c0.1,0,0.1,0.1,0.2,0.1c1.4,1.2,2.1,2.3,2.3,3.1
		c0.5,3.2,0.1,5.4-1.2,6.6c-0.7,0.6-1.7,1.7-2.5,2.5c1.5,0.7,2,2.3,2.1,3.2c0,0.2-0.1,13.3,0,17.3c0,1.1-0.2,3.3-0.9,5.1
		c1.2-0.4,2-0.7,2.3-0.9c4.9-1.1,11.3-2.6,13.8-3.4c4.6-1.6,3.2-11.9,2.5-17.4L46.6,21z"/>
</g>
</svg>
