<?xml version="1.0" encoding="utf-8"?>
<!-- Generator: Adobe Illustrator 18.0.0, SVG Export Plug-In . SVG Version: 6.00 Build 0)  -->
<!DOCTYPE svg PUBLIC "-//W3C//DTD SVG 1.1//EN" "http://www.w3.org/Graphics/SVG/1.1/DTD/svg11.dtd">
<svg version="1.1" id="Layer_1" xmlns="http://www.w3.org/2000/svg" xmlns:xlink="http://www.w3.org/1999/xlink" x="0px" y="0px"
	 viewBox="0 0 48 48" enable-background="new 0 0 48 48" xml:space="preserve">
<g>
	<path fill="#F7A93B" d="M30.6,19.4H17.4c-2.4,0-4.4,2-4.4,4.4v19.4c0,2.4,2,4.4,4.4,4.4h13.2c2.4,0,4.4-2,4.4-4.4V23.8
		C35,21.4,33,19.4,30.6,19.4z"/>
	<path fill="#F04B36" d="M30,16.1h1.8v-1.5V14c0-2.4-2-4.4-4.4-4.4h-2.5V1.4c0-0.5-0.4-0.9-0.9-0.9s-0.9,0.4-0.9,0.9v8.3h-2.5
		c-2.4,0-4.4,2-4.4,4.4v0.6v1.5H18H30z"/>
</g>
</svg>
