<?xml version="1.0" encoding="utf-8"?>
<!-- Generator: Adobe Illustrator 18.0.0, SVG Export Plug-In . SVG Version: 6.00 Build 0)  -->
<!DOCTYPE svg PUBLIC "-//W3C//DTD SVG 1.1//EN" "http://www.w3.org/Graphics/SVG/1.1/DTD/svg11.dtd">
<svg version="1.1" id="Layer_1" xmlns="http://www.w3.org/2000/svg" xmlns:xlink="http://www.w3.org/1999/xlink" x="0px" y="0px"
	 viewBox="0 0 48 48" enable-background="new 0 0 48 48" xml:space="preserve">
<g>
	<path fill="none" d="M24,24.4c-3.2,0-5.9,3.2-5.9,7.2s2.6,7.2,5.9,7.2c3.2,0,5.9-3.2,5.9-7.2S27.2,24.4,24,24.4z"/>
	<path fill="#E77528" d="M46.5,16.5h-8.1l0.5,2h7.6c0.5,0,1-0.4,1-1C47.5,17,47.1,16.5,46.5,16.5z"/>
	<path fill="#E77528" d="M1.5,16.5c-0.5,0-1,0.4-1,1c0,0.5,0.4,1,1,1h7.6l0.5-2H1.5z"/>
	<path fill="#294E58" d="M38.4,16.5c-0.8-0.4-3-1.5-3.9-2.4c-1-0.9-1.8-3.5-2.3-5.3l-1.9-1.4H17.7l-1.9,1.4
		c-0.4,1.8-1.3,4.4-2.3,5.3c-0.9,0.8-3.1,2-3.9,2.4c0,0,0,0,0,0l-0.5,2v28c0,0.5,0.4,1,1,1h27.9c0.5,0,1-0.4,1-1v-28L38.4,16.5
		C38.4,16.5,38.4,16.5,38.4,16.5z M24,38.9c-3.2,0-5.9-3.2-5.9-7.2s2.6-7.2,5.9-7.2c3.2,0,5.9,3.2,5.9,7.2S27.2,38.9,24,38.9z"/>
	<path fill="#F7A93B" d="M24,2.5c3.1,0,5.8,2.1,6.3,4.9l1.9,1.4c0.1-0.1,0.1-0.3,0.1-0.5c0-4.3-3.7-7.9-8.3-7.9S15.7,4,15.7,8.4
		c0,0.2,0.1,0.3,0.1,0.5l1.9-1.4C18.2,4.6,20.9,2.5,24,2.5z"/>
</g>
</svg>
