<?xml version="1.0" encoding="utf-8"?>
<!-- Generator: Adobe Illustrator 18.0.0, SVG Export Plug-In . SVG Version: 6.00 Build 0)  -->
<!DOCTYPE svg PUBLIC "-//W3C//DTD SVG 1.1//EN" "http://www.w3.org/Graphics/SVG/1.1/DTD/svg11.dtd">
<svg version="1.1" id="Layer_1" xmlns="http://www.w3.org/2000/svg" xmlns:xlink="http://www.w3.org/1999/xlink" x="0px" y="0px"
	 viewBox="0 0 48 48" enable-background="new 0 0 48 48" xml:space="preserve">
<g>
	<path fill="#E8B944" d="M41.2,6.4H6.8c-3.5,0-6.3,2.9-6.3,6.3V32c0,3.5,2.8,6.3,6.3,6.3h1.6c0,0.1-0.1,0.3-0.1,0.4v1.4
		c0,0.8,0.6,1.4,1.4,1.4c0.8,0,1.4-0.6,1.4-1.4v-1.4c0-0.2,0-0.3-0.1-0.4h25.7c0,0.1-0.1,0.3-0.1,0.4v1.4c0,0.8,0.6,1.4,1.4,1.4
		c0.8,0,1.4-0.6,1.4-1.4v-1.4c0-0.2,0-0.3-0.1-0.4h1.6c3.5,0,6.3-2.9,6.3-6.3V12.8C47.5,9.3,44.6,6.4,41.2,6.4z M31.4,31.5H6.7V13.3
		h24.6V31.5z M39.5,29.8c-1.7,0-3.1-1.4-3.1-3.1c0-1.7,1.4-3.1,3.1-3.1c1.7,0,3.1,1.4,3.1,3.1C42.6,28.4,41.2,29.8,39.5,29.8z
		 M39.5,19.1c-1.7,0-3.1-1.4-3.1-3.1s1.4-3.1,3.1-3.1c1.7,0,3.1,1.4,3.1,3.1S41.2,19.1,39.5,19.1z"/>
</g>
</svg>
