<?xml version="1.0" encoding="utf-8"?>
<!-- Generator: Adobe Illustrator 18.0.0, SVG Export Plug-In . SVG Version: 6.00 Build 0)  -->
<!DOCTYPE svg PUBLIC "-//W3C//DTD SVG 1.1//EN" "http://www.w3.org/Graphics/SVG/1.1/DTD/svg11.dtd">
<svg version="1.1" id="Layer_1" xmlns="http://www.w3.org/2000/svg" xmlns:xlink="http://www.w3.org/1999/xlink" x="0px" y="0px"
	 viewBox="0 0 48 48" enable-background="new 0 0 48 48" xml:space="preserve">
<g>
	<path fill="#0DB89A" d="M37.1,11.5c0.3,0,0.5-0.1,0.7-0.3l4.1-4.1c0.4-0.4,0.4-1,0-1.4c-0.4-0.4-1-0.4-1.4,0l-4.1,4.1
		c-0.4,0.4-0.4,1,0,1.4C36.6,11.4,36.8,11.5,37.1,11.5z"/>
	<path fill="none" d="M12.9,27.2l1.4-2.6c0.3-0.5,0.1-1.1-0.4-1.4c-0.5-0.3-1.1-0.1-1.4,0.4l-1.4,2.6c-0.3,0.5-0.1,1.1,0.4,1.4
		c0.2,0.1,0.3,0.1,0.5,0.1C12.3,27.7,12.7,27.5,12.9,27.2z"/>
	<path fill="none" d="M10.2,31.6c-0.5-0.3-1.1-0.1-1.4,0.4l-1.4,2.6c-0.3,0.5-0.1,1.1,0.4,1.4c0.2,0.1,0.3,0.1,0.5,0.1
		c0.4,0,0.7-0.2,0.9-0.5l1.4-2.6C10.8,32.5,10.7,31.9,10.2,31.6z"/>
	<path fill="none" d="M16,19c0.2,0.1,0.3,0.1,0.5,0.1c0.4,0,0.7-0.2,0.9-0.5l1.4-2.6c0.3-0.5,0.1-1.1-0.4-1.4
		c-0.5-0.3-1.1-0.1-1.4,0.4l-1.4,2.6C15.3,18.1,15.5,18.7,16,19z"/>
	<path fill="none" d="M20.7,27.7c-0.4-0.4-1-0.4-1.4,0L17,30c-0.4,0.4-0.4,1,0,1.4c0.2,0.2,0.5,0.3,0.7,0.3c0.3,0,0.5-0.1,0.7-0.3
		l2.3-2.3C21.1,28.7,21.1,28.1,20.7,27.7z"/>
	<path fill="none" d="M15.4,37.8l-2.6,1.4c-0.5,0.3-0.7,0.9-0.4,1.4c0.2,0.3,0.5,0.5,0.9,0.5c0.2,0,0.3,0,0.5-0.1l2.6-1.4
		c0.5-0.3,0.7-0.9,0.4-1.4C16.5,37.7,15.9,37.6,15.4,37.8z"/>
	<path fill="none" d="M32.4,29.7l-2.6,1.4c-0.5,0.3-0.7,0.9-0.4,1.4c0.2,0.3,0.5,0.5,0.9,0.5c0.2,0,0.3,0,0.5-0.1l2.6-1.4
		c0.5-0.3,0.7-0.9,0.4-1.4C33.5,29.6,32.9,29.4,32.4,29.7z"/>
	<path fill="none" d="M23.8,34.1l-2.6,1.4c-0.5,0.3-0.7,0.9-0.4,1.4c0.2,0.3,0.5,0.5,0.9,0.5c0.2,0,0.3,0,0.5-0.1l2.6-1.4
		c0.5-0.3,0.7-0.9,0.4-1.4C24.9,34.1,24.3,33.9,23.8,34.1z"/>
	<path fill="none" d="M26.7,20.3l-2.3,2.3c-0.4,0.4-0.4,1,0,1.4c0.2,0.2,0.5,0.3,0.7,0.3c0.3,0,0.5-0.1,0.7-0.3l2.3-2.3
		c0.4-0.4,0.4-1,0-1.4C27.8,19.9,27.1,19.9,26.7,20.3z"/>
	<path fill="#F04B36" d="M32,12.6C24.9,7,15.8,6.3,10.8,11.4C5.2,16.9-3.6,37.5,3.7,44.7c7.3,7.3,27.8-1.5,33.4-7.1
		c5.3-5.3,4.3-14.9-2-22.1L32,12.6z M10.6,33l-1.4,2.6c-0.2,0.3-0.5,0.5-0.9,0.5c-0.2,0-0.3,0-0.5-0.1c-0.5-0.3-0.7-0.9-0.4-1.4
		L8.8,32c0.3-0.5,0.9-0.7,1.4-0.4C10.7,31.9,10.8,32.5,10.6,33z M15.6,17.7L17,15c0.3-0.5,0.9-0.7,1.4-0.4c0.5,0.3,0.7,0.9,0.4,1.4
		l-1.4,2.6c-0.2,0.3-0.5,0.5-0.9,0.5c-0.2,0-0.3,0-0.5-0.1C15.5,18.7,15.3,18.1,15.6,17.7z M11.5,27.6c-0.5-0.3-0.7-0.9-0.4-1.4
		l1.4-2.6c0.3-0.5,0.9-0.7,1.4-0.4c0.5,0.3,0.7,0.9,0.4,1.4l-1.4,2.6c-0.2,0.3-0.5,0.5-0.9,0.5C11.8,27.7,11.6,27.7,11.5,27.6z
		 M16.4,39.6L13.8,41c-0.2,0.1-0.3,0.1-0.5,0.1c-0.4,0-0.7-0.2-0.9-0.5c-0.3-0.5-0.1-1.1,0.4-1.4l2.6-1.4c0.5-0.3,1.1-0.1,1.4,0.4
		C17.1,38.7,16.9,39.3,16.4,39.6z M17.7,31.7c-0.3,0-0.5-0.1-0.7-0.3c-0.4-0.4-0.4-1,0-1.4l2.3-2.3c0.4-0.4,1-0.4,1.4,0
		c0.4,0.4,0.4,1,0,1.4l-2.3,2.3C18.2,31.6,18,31.7,17.7,31.7z M24.8,35.9l-2.6,1.4c-0.2,0.1-0.3,0.1-0.5,0.1c-0.4,0-0.7-0.2-0.9-0.5
		c-0.3-0.5-0.1-1.1,0.4-1.4l2.6-1.4c0.5-0.3,1.1-0.1,1.4,0.4C25.5,35,25.3,35.7,24.8,35.9z M28.2,21.7L25.9,24
		c-0.2,0.2-0.5,0.3-0.7,0.3c-0.3,0-0.5-0.1-0.7-0.3c-0.4-0.4-0.4-1,0-1.4l2.3-2.3c0.4-0.4,1-0.4,1.4,0
		C28.6,20.7,28.6,21.3,28.2,21.7z M33.4,31.4l-2.6,1.4c-0.2,0.1-0.3,0.1-0.5,0.1c-0.4,0-0.7-0.2-0.9-0.5c-0.3-0.5-0.1-1.1,0.4-1.4
		l2.6-1.4c0.5-0.3,1.1-0.1,1.4,0.4C34,30.6,33.9,31.2,33.4,31.4z"/>
	<path fill="#0DB89A" d="M46.1,15.2c0.6,0,1-0.5,1-1c0-0.6-0.5-1-1-1L34,13.6l0.4-12.1c0-0.6-0.4-1-1-1c-0.6,0-1,0.4-1,1L32,12.6
		l3.1,3L46.1,15.2z"/>
</g>
</svg>
