<?xml version="1.0" encoding="utf-8"?>
<!-- Generator: Adobe Illustrator 18.0.0, SVG Export Plug-In . SVG Version: 6.00 Build 0)  -->
<!DOCTYPE svg PUBLIC "-//W3C//DTD SVG 1.1//EN" "http://www.w3.org/Graphics/SVG/1.1/DTD/svg11.dtd">
<svg version="1.1" id="Layer_1" xmlns="http://www.w3.org/2000/svg" xmlns:xlink="http://www.w3.org/1999/xlink" x="0px" y="0px"
	 viewBox="0 0 48 48" enable-background="new 0 0 48 48" xml:space="preserve">
<g>
	<path fill="#CFD0D1" d="M25.5,13.4c-2.4,0-4.8,0.1-7,0.3l-10.2-8c-0.4-0.3-1-0.3-1.4,0.2c-0.3,0.4-0.3,1,0.2,1.4l8.7,6.8
		c-1.7,0.3-3.3,0.6-4.8,1l-8.9-7C1.7,7.8,1,7.8,0.7,8.3c-0.3,0.4-0.3,1,0.2,1.4l7.8,6.1c-3.1,1.2-5.1,2.7-5.1,4.7
		c0,12.1,9.9,22,22,22c12.1,0,22-9.9,22-22C47.5,15.8,36.5,13.4,25.5,13.4z M10.6,17.2l8.2,6.4c0.2,0.1,0.4,0.2,0.6,0.2
		c0.3,0,0.6-0.1,0.8-0.4c0.3-0.4,0.3-1-0.2-1.4l-7-5.5c1.5-0.3,3.1-0.6,5-0.8l7,5.5c0.2,0.1,0.4,0.2,0.6,0.2c0.3,0,0.6-0.1,0.8-0.4
		c0.3-0.4,0.3-1-0.2-1.4l-5.4-4.2c1.5-0.1,3.1-0.2,4.8-0.2c12.4,0,20,3,20,5.2c0,2.2-7.6,5.2-20,5.2s-20-3-20-5.2
		C5.5,19.5,7.3,18.2,10.6,17.2z"/>
	<path fill="#0DB89A" d="M27.7,23.8c0.1,0,0.2,0,0.2,0c0.5-0.1,1.1-0.1,1.7-0.1c0.7,0,1.5,0,2.2-0.2c0.3-0.1,0.6-0.3,0.7-0.7
		c0-0.2,0.1-0.3,0-0.5c0.7-0.4,1.8-0.6,2.8-0.8c0.9-0.1,1.9-0.3,2.7-0.6c0.4-0.2,0.7-0.7,0.6-1.2c-0.7-2.7-2.8-2.8-4.3-3
		c-0.7-0.1-1.4-0.1-1.9-0.4c-0.5-0.3-1.1-0.1-1.3,0.4c-0.3,0.5-0.1,1.1,0.4,1.3c0.9,0.5,1.8,0.5,2.7,0.6c1.1,0.1,1.8,0.2,2.2,0.6
		c-0.4,0.1-0.8,0.1-1.2,0.2c-1.6,0.3-3.5,0.5-4.6,1.9c0,0-0.1,0.1-0.1,0.1c-0.3,0-0.5,0-0.8,0c-0.7,0-1.5,0-2.2,0.1
		c-0.5,0.1-0.9,0.7-0.7,1.2C26.8,23.5,27.2,23.8,27.7,23.8z"/>
</g>
</svg>
