<?xml version="1.0" encoding="utf-8"?>
<!-- Generator: Adobe Illustrator 18.0.0, SVG Export Plug-In . SVG Version: 6.00 Build 0)  -->
<!DOCTYPE svg PUBLIC "-//W3C//DTD SVG 1.1//EN" "http://www.w3.org/Graphics/SVG/1.1/DTD/svg11.dtd">
<svg version="1.1" id="Layer_1" xmlns="http://www.w3.org/2000/svg" xmlns:xlink="http://www.w3.org/1999/xlink" x="0px" y="0px"
	 viewBox="0 0 48 48" enable-background="new 0 0 48 48" xml:space="preserve">
<g>
	<path fill="#294E58" d="M47.2,0.8c-0.2-0.2-0.4-0.3-0.7-0.3H25.8c-0.5,0-1,0.4-1,1c0,1.2-0.1,2.4-0.3,3.6h5c0.8,0,1.6,0.3,2.1,0.9
		c0.5,0.6,0.9,1.3,0.8,2.1c-0.2,6.8-2,13.5-3.7,20c-1.2,4.3-2.3,8.7-3,13h13.5c0.5,0,1-0.4,1-1c0.2-6.3,1.9-12.8,3.6-19
		c1.7-6.4,3.5-13,3.7-19.5C47.5,1.2,47.4,1,47.2,0.8z M33.5,21c-1.1,4.2-2.3,8.5-3,12.7c-0.1,0.5-0.5,0.8-1,0.8c-0.1,0-0.1,0-0.2,0
		c-0.5-0.1-0.9-0.6-0.8-1.1c0.7-4.3,1.9-8.7,3-12.9c1.1-4.2,2.3-8.5,3-12.7c0.1-0.5,0.6-0.9,1.1-0.8c0.5,0.1,0.9,0.6,0.8,1.1
		C35.8,12.4,34.6,16.8,33.5,21z"/>
	<path fill="#F7A93B" d="M30.5,8c0-0.3-0.1-0.5-0.3-0.7C30,7.1,29.8,7,29.5,7H8.8c-0.5,0-1,0.4-1,1c-0.2,6.3-1.9,12.8-3.6,19
		c-1.7,6.4-3.5,13-3.7,19.5c0,0.3,0.1,0.5,0.3,0.7c0.2,0.2,0.4,0.3,0.7,0.3h20.7c0.5,0,1-0.4,1-1c0.2-6.3,1.9-12.8,3.6-19
		C28.5,21.1,30.3,14.5,30.5,8z M16.4,27.5c-1.1,4.2-2.3,8.5-3,12.7c-0.1,0.5-0.5,0.8-1,0.8c-0.1,0-0.1,0-0.2,0
		c-0.5-0.1-0.9-0.6-0.8-1.1c0.7-4.3,1.9-8.7,3-12.9c1.1-4.2,2.3-8.5,3-12.7c0.1-0.5,0.6-0.9,1.1-0.8c0.5,0.1,0.9,0.6,0.8,1.1
		C18.8,18.9,17.6,23.3,16.4,27.5z"/>
</g>
</svg>
