<?xml version="1.0" encoding="utf-8"?>
<!-- Generator: Adobe Illustrator 18.0.0, SVG Export Plug-In . SVG Version: 6.00 Build 0)  -->
<!DOCTYPE svg PUBLIC "-//W3C//DTD SVG 1.1//EN" "http://www.w3.org/Graphics/SVG/1.1/DTD/svg11.dtd">
<svg version="1.1" id="Layer_1" xmlns="http://www.w3.org/2000/svg" xmlns:xlink="http://www.w3.org/1999/xlink" x="0px" y="0px"
	 viewBox="0 0 48 48" enable-background="new 0 0 48 48" xml:space="preserve">
<g>
	<path fill="#4DA0D8" d="M45.3,0.5H2.7c-1.2,0-2.2,1.3-2.2,2.9V13h47V3.4C47.5,1.8,46.5,0.5,45.3,0.5z M7.9,9.3C6.8,9.3,6,8.3,6,7
		c0-1.2,0.9-2.2,1.9-2.2c1.1,0,1.9,1,1.9,2.2C9.8,8.3,8.9,9.3,7.9,9.3z M24,9.3c-1.1,0-1.9-1-1.9-2.2c0-1.2,0.9-2.2,1.9-2.2
		c1.1,0,1.9,1,1.9,2.2C25.9,8.3,25.1,9.3,24,9.3z M40.1,9.3c-1.1,0-1.9-1-1.9-2.2c0-1.2,0.9-2.2,1.9-2.2c1.1,0,1.9,1,1.9,2.2
		C42,8.3,41.2,9.3,40.1,9.3z"/>
	<path fill="#0DB89A" d="M0.5,41.6c0,1.6,1,2.9,2.2,2.9h0.9v2c0,0.6,0.5,1,1,1s1-0.4,1-1v-2h36.6v2c0,0.6,0.5,1,1,1c0.6,0,1-0.4,1-1
		v-2h0.9c1.2,0,2.2-1.3,2.2-2.9V15h-47V41.6z M9.1,24.9c0-1.4,1-2.6,2.2-2.6h25.3c1.2,0,2.2,1.2,2.2,2.6v8.4c0,1.4-1,2.6-2.2,2.6
		H11.3c-1.2,0-2.2-1.2-2.2-2.6V24.9z"/>
</g>
</svg>
