<?xml version="1.0" encoding="utf-8"?>
<!-- Generator: Adobe Illustrator 18.0.0, SVG Export Plug-In . SVG Version: 6.00 Build 0)  -->
<!DOCTYPE svg PUBLIC "-//W3C//DTD SVG 1.1//EN" "http://www.w3.org/Graphics/SVG/1.1/DTD/svg11.dtd">
<svg version="1.1" id="Layer_1" xmlns="http://www.w3.org/2000/svg" xmlns:xlink="http://www.w3.org/1999/xlink" x="0px" y="0px"
	 viewBox="0 0 48 48" enable-background="new 0 0 48 48" xml:space="preserve">
<g>
	<path fill="#F7A93B" d="M20.7,27.5c3.6-2,6.4-4.8,7.9-8c1.6-3.3,1.6-6.6,0.1-9.3C27,7.2,23.4,5.4,19,5.4c-3.1,0-6.4,0.9-9.4,2.6
		c-7.5,4.1-11.1,11.9-8,17.3c1.7,3.1,5.3,4.8,9.7,4.8C14.4,30.1,17.6,29.2,20.7,27.5z M20.8,15.3c0.8-0.4,1.7-0.4,2,0.2
		c0.3,0.5-0.1,1.3-0.9,1.8c-0.8,0.4-1.7,0.4-2-0.2C19.7,16.5,20.1,15.7,20.8,15.3z M15.4,22.7c-0.6,0.3-1.2,0.2-1.4-0.2
		c-0.2-0.4,0.1-1,0.6-1.3c0.6-0.3,1.2-0.2,1.4,0.1C16.3,21.9,16,22.4,15.4,22.7z M14.1,11.9c0.9-0.5,1.8-0.5,2.1,0
		c0.3,0.5-0.2,1.3-1.1,1.8c-0.9,0.5-1.8,0.5-2.1,0C12.7,13.2,13.2,12.4,14.1,11.9z M9.5,19.7c-0.8,0.5-1.7,0.4-2-0.1
		c-0.3-0.5,0.2-1.2,1-1.7c0.8-0.5,1.7-0.4,2,0.1C10.7,18.5,10.3,19.3,9.5,19.7z"/>
	<path fill="#4DA0D8" d="M38.3,40c-4,0-8.5-1.7-12.2-4.5c-0.2-0.2-0.4-0.3-0.6-0.5c-0.2,0.1-0.3,0.2-0.5,0.3
		c-1.1,0.6-2.2,1.1-3.3,1.5c0.6,0.6,1.3,1.2,2,1.8c6.8,5.3,15.7,5.4,20.2,0.2C42.4,39.6,40.4,40,38.3,40L38.3,40z"/>
	<path fill="#F04B36" d="M40.6,17.2c-2.5-2-5.2-3.2-7.8-3.8c0.2,2.4-0.3,4.9-1.5,7.4c-1.8,3.8-5.1,7.1-9.2,9.4
		c-3.5,1.9-7.2,3-10.9,3c-3,0-5.7-0.7-7.8-2c2.4,3.1,6.4,5,11.1,5h0c3.3,0,6.6-0.9,9.7-2.6c0.6-0.3,1.1-0.7,1.7-1
		c0.5,0.5,1.1,1,1.7,1.5c6.5,5.1,14.7,5.5,18.4,0.9C49.4,30.2,47.1,22.3,40.6,17.2z M39.4,31.2c-0.4,0.5-1.3,0.4-2-0.1
		c-0.7-0.6-1-1.4-0.6-1.9c0.4-0.5,1.3-0.4,2,0.1C39.5,29.9,39.8,30.7,39.4,31.2z M40.1,23.7c-0.3,0.4-1.3,0.3-2.1-0.3
		c-0.8-0.6-1.2-1.5-0.8-1.9c0.3-0.4,1.3-0.3,2.1,0.3C40.1,22.4,40.5,23.3,40.1,23.7z"/>
</g>
</svg>
