<?xml version="1.0" encoding="utf-8"?>
<!-- Generator: Adobe Illustrator 18.0.0, SVG Export Plug-In . SVG Version: 6.00 Build 0)  -->
<!DOCTYPE svg PUBLIC "-//W3C//DTD SVG 1.1//EN" "http://www.w3.org/Graphics/SVG/1.1/DTD/svg11.dtd">
<svg version="1.1" id="Layer_1" xmlns="http://www.w3.org/2000/svg" xmlns:xlink="http://www.w3.org/1999/xlink" x="0px" y="0px"
	 viewBox="0 0 48 48" enable-background="new 0 0 48 48" xml:space="preserve">
<g>
	<path fill="#0DB89A" d="M46.5,0.5h-45c-0.5,0-1,0.4-1,1v7.8c0,0.5,0.4,1,1,1h13.7v6.6c0,0.5,0.4,1,1,1c0.5,0,1-0.4,1-1v-6.6h15.1
		v27.5H1.5c-0.5,0-1,0.4-1,1v7.8c0,0.5,0.4,1,1,1h45c0.5,0,1-0.4,1-1v-45C47.5,0.9,47.1,0.5,46.5,0.5z"/>
	<path fill="#06728D" d="M1.8,21.8c0,8.1,6.4,14.7,14.3,14.7c7.9,0,14.3-6.6,14.3-14.7c0-0.5-0.4-1-1-1H2.8
		C2.2,20.8,1.8,21.3,1.8,21.8z"/>
	<path fill="#F04B36" d="M13.1,14.1H1.5c-0.5,0-1,0.4-1,1c0,0.5,0.4,1,1,1h11.6c0.5,0,1-0.4,1-1C14.1,14.6,13.7,14.1,13.1,14.1z"/>
</g>
</svg>
