<?xml version="1.0" encoding="utf-8"?>
<!-- Generator: Adobe Illustrator 18.0.0, SVG Export Plug-In . SVG Version: 6.00 Build 0)  -->
<!DOCTYPE svg PUBLIC "-//W3C//DTD SVG 1.1//EN" "http://www.w3.org/Graphics/SVG/1.1/DTD/svg11.dtd">
<svg version="1.1" id="Layer_1" xmlns="http://www.w3.org/2000/svg" xmlns:xlink="http://www.w3.org/1999/xlink" x="0px" y="0px"
	 viewBox="0 0 48 48" enable-background="new 0 0 48 48" xml:space="preserve">
<g>
	<path fill="#FFD69A" d="M45.7,28.4C45.7,28.4,45.7,28.4,45.7,28.4c0,7.2-5.8,13.1-13,13.1c-5.2,0-9.6-3.1-11.7-7.5
		c-0.7-0.1-1.3-0.3-2-0.6c-0.6,0.3-1.3,0.5-2,0.6c-0.5,0.1-1,0.1-1.5,0.1c-4.6,0-8.9-3.6-10.9-8.8C2.3,27.5,1,30.2,1,33.1
		c0,8,10.3,14.4,23,14.4c12.7,0,23-6.5,23-14.4C47,31.4,46.5,29.8,45.7,28.4z"/>
	<path fill="#F7A93B" d="M21.7,28.4c0,6.1,4.9,11.1,11,11.1c6.1,0,11-5,11-11.1c0-6.1-4.9-11.1-11-11.1
		C26.6,17.3,21.7,22.3,21.7,28.4z M26.6,24.6c-0.4-0.4-0.5-1-0.1-1.4c0.4-0.4,1-0.5,1.4-0.1l4.4,3.7l3.1-4.8
		c0.3-0.5,0.9-0.6,1.4-0.3c0.5,0.3,0.6,0.9,0.3,1.4l-2.9,4.5l5.3,1c0.5,0.1,0.9,0.6,0.8,1.2c-0.1,0.5-0.5,0.8-1,0.8
		c-0.1,0-0.1,0-0.2,0l-5.2-1l1.2,5.2c0.1,0.5-0.2,1.1-0.7,1.2c-0.1,0-0.2,0-0.2,0c-0.5,0-0.9-0.3-1-0.8L31.9,30l-4.2,3.3
		c-0.2,0.1-0.4,0.2-0.6,0.2c-0.3,0-0.6-0.1-0.8-0.4c-0.3-0.4-0.3-1.1,0.2-1.4l4.4-3.5L26.6,24.6z"/>
	<path fill="#0DB89A" d="M20,6.7c6.2,2.4,9.8-4.5,9.8-4.5c-6.9-0.6-9.3,1.2-10.2,2.7C19,2.5,18.1,1,18,0.9c-0.3-0.5-0.9-0.6-1.4-0.3
		C16.1,1,16,1.6,16.3,2.1c0,0,2.1,3.2,1.8,7.4l2-0.2C20.2,8.4,20.2,7.5,20,6.7z"/>
	<path fill="#F04B36" d="M31.7,15.4c-0.4-2.5-1.5-4.1-1.6-4.2c-1.3-1.7-2.9-2.7-4.8-3c-1.7-0.3-3.5,0.1-5.1,1.1l-2,0.2
		c-1.7-1.1-3.7-1.6-5.5-1.3c-5,0.8-8.1,6.9-7,13.4c1,6,5.2,10.5,9.8,10.5c0.4,0,0.8,0,1.2-0.1c0.8-0.1,1.6-0.4,2.3-0.8
		c0.4,0.2,0.8,0.4,1.2,0.5c-0.3-1.1-0.4-2.2-0.4-3.3C19.7,21.5,25,15.9,31.7,15.4z"/>
</g>
</svg>
