<?xml version="1.0" encoding="utf-8"?>
<!-- Generator: Adobe Illustrator 18.0.0, SVG Export Plug-In . SVG Version: 6.00 Build 0)  -->
<!DOCTYPE svg PUBLIC "-//W3C//DTD SVG 1.1//EN" "http://www.w3.org/Graphics/SVG/1.1/DTD/svg11.dtd">
<svg version="1.1" id="Layer_1" xmlns="http://www.w3.org/2000/svg" xmlns:xlink="http://www.w3.org/1999/xlink" x="0px" y="0px"
	 viewBox="0 0 48 48" enable-background="new 0 0 48 48" xml:space="preserve">
<g>
	<path fill="#06728D" d="M46.5,17.9h-3C41.4,12.4,35.9,8.2,29,6.8V1.5c0-0.5-0.4-1-1-1h-8c-0.5,0-1,0.4-1,1v5.3
		C12.1,8.2,6.6,12.4,4.5,17.9h-3c-0.5,0-1,0.4-1,1v7.9c0,0.5,0.4,1,1,1h45c0.5,0,1-0.4,1-1v-7.9C47.5,18.3,47.1,17.9,46.5,17.9z"/>
	<path fill="#F04B36" d="M8.8,33c-0.2-0.2-0.5-0.4-0.8-0.4c0,0,0,0,0,0c-0.3,0-0.6,0.1-0.8,0.4L3,38.7c-0.3,0.4-0.2,1,0.2,1.4
		c0.2,0.1,0.4,0.2,0.6,0.2c0.3,0,0.6-0.1,0.8-0.4l2.6-3.4v10.1c0,0.5,0.4,1,1,1s1-0.4,1-1v-10l2.6,3.3c0.3,0.4,0.9,0.5,1.4,0.2
		c0.4-0.3,0.5-0.9,0.2-1.4L8.8,33z M8,35.2L8,35.2L8,35.2C8.1,35.2,8,35.2,8,35.2z"/>
	<path fill="#4DA0D8" d="M24.7,33c-0.2-0.2-0.5-0.4-0.8-0.4c0,0,0,0,0,0c-0.3,0-0.6,0.1-0.8,0.4l-4.3,5.7c-0.3,0.4-0.2,1,0.2,1.4
		c0.2,0.1,0.4,0.2,0.6,0.2c0.3,0,0.6-0.1,0.8-0.4l2.6-3.4v10.1c0,0.5,0.4,1,1,1c0.5,0,1-0.4,1-1v-10l2.6,3.3
		c0.3,0.4,0.9,0.5,1.4,0.2c0.4-0.3,0.5-0.9,0.2-1.4L24.7,33z M23.9,35.2L23.9,35.2L23.9,35.2C23.9,35.2,23.9,35.2,23.9,35.2z"/>
	<path fill="#F04B36" d="M40.6,33c-0.2-0.2-0.5-0.4-0.8-0.4c0,0,0,0,0,0c-0.3,0-0.6,0.1-0.8,0.4l-4.3,5.7c-0.3,0.4-0.2,1,0.2,1.4
		c0.2,0.1,0.4,0.2,0.6,0.2c0.3,0,0.6-0.1,0.8-0.4l2.6-3.4v10.1c0,0.5,0.4,1,1,1c0.5,0,1-0.4,1-1v-10l2.6,3.3
		c0.3,0.4,0.9,0.5,1.4,0.2c0.4-0.3,0.5-0.9,0.2-1.4L40.6,33z M39.8,35.2L39.8,35.2L39.8,35.2C39.8,35.2,39.8,35.2,39.8,35.2z"/>
</g>
</svg>
