<?xml version="1.0" encoding="utf-8"?>
<!-- Generator: Adobe Illustrator 18.0.0, SVG Export Plug-In . SVG Version: 6.00 Build 0)  -->
<!DOCTYPE svg PUBLIC "-//W3C//DTD SVG 1.1//EN" "http://www.w3.org/Graphics/SVG/1.1/DTD/svg11.dtd">
<svg version="1.1" id="Layer_1" xmlns="http://www.w3.org/2000/svg" xmlns:xlink="http://www.w3.org/1999/xlink" x="0px" y="0px"
	 viewBox="0 0 48 48" enable-background="new 0 0 48 48" xml:space="preserve">
<g>
	<path fill="#06728D" d="M32.5,0.5H15.5c-3.1,0-5.6,2.5-5.6,5.6v13.9c0,3.1,2.5,5.6,5.6,5.6h7.2h2.6h7.2c3.1,0,5.6-2.5,5.6-5.6V6.1
		C38.1,3,35.6,0.5,32.5,0.5z M19.5,18c0,0.7-0.6,1.3-1.3,1.3c-0.7,0-1.3-0.6-1.3-1.3V8c0-0.7,0.6-1.3,1.3-1.3c0.7,0,1.3,0.6,1.3,1.3
		V18z M25.3,18c0,0.7-0.6,1.3-1.3,1.3c-0.7,0-1.3-0.6-1.3-1.3V8c0-0.7,0.6-1.3,1.3-1.3c0.7,0,1.3,0.6,1.3,1.3V18z M31.1,18
		c0,0.7-0.6,1.3-1.3,1.3c-0.7,0-1.3-0.6-1.3-1.3V8c0-0.7,0.6-1.3,1.3-1.3c0.7,0,1.3,0.6,1.3,1.3V18z"/>
	<rect x="22.7" y="25.5" fill="#F04B36" width="2.6" height="7"/>
	<path fill="#E77528" d="M25.3,32.5h-2.6c-0.6,0.4-1.1,1.2-1.1,2v10.7c0,1.3,1.1,2.4,2.4,2.4c1.3,0,2.4-1.1,2.4-2.4V34.5
		C26.4,33.6,25.9,32.9,25.3,32.5z"/>
</g>
</svg>
