<?xml version="1.0" encoding="utf-8"?>
<!-- Generator: Adobe Illustrator 18.0.0, SVG Export Plug-In . SVG Version: 6.00 Build 0)  -->
<!DOCTYPE svg PUBLIC "-//W3C//DTD SVG 1.1//EN" "http://www.w3.org/Graphics/SVG/1.1/DTD/svg11.dtd">
<svg version="1.1" id="Layer_1" xmlns="http://www.w3.org/2000/svg" xmlns:xlink="http://www.w3.org/1999/xlink" x="0px" y="0px"
	 viewBox="0 0 48 48" enable-background="new 0 0 48 48" xml:space="preserve">
<g>
	<path fill="#F7A93B" d="M47.1,8.8c-0.4-1.3-1.5-3.1-2.9-4.2c-0.7-0.6-1.7-0.9-2.8-0.9c-1.4,0-2.7,0.4-3.4,0.7
		c-0.9,0.4-1.8,0.8-2.6,1.2c-1.2,0.6-2.4,1.2-3.7,1.6l-0.5,0.2C29,8,27.1,8.6,25,8.8c-0.5,0-0.9,0.1-1.4,0.2l-0.3,0
		c-0.9,0-3.4,0.2-3.6,0.3c-3.4,0.6-6.8,2-9.8,4.2c-8.5,6-11.8,15.9-7.5,22c2.1,3,5.7,4.6,10.2,4.6c4.3,0,9-1.6,13-4.5
		c2.6-1.8,6.3-6.5,9.1-9.9c1.2-1.5,2.3-2.9,2.7-3.3c0.6-0.5,1.1-1,1.5-1.5c0.8-0.8,1.5-1.5,2.4-2.2c0.7-0.5,1.3-1,1.8-1.5
		c0.2-0.2,0.4-0.4,0.7-0.6c0.2-0.2,0.5-0.4,0.7-0.6c0.6-0.4,1.1-0.9,1.6-1.5C47.6,12.9,47.9,11,47.1,8.8z M21.7,28
		c-1.9,1.3-4,2.1-6,2.1c-1.8,0-3.2-0.6-4-1.7c-1.8-2.5-0.1-6.6,3.6-9.3c1.9-1.3,4-2.1,6-2.1c1.8,0,3.2,0.6,4,1.7
		C27,21.2,25.4,25.3,21.7,28z"/>
	<path fill="#E77528" d="M38.7,23.8c-0.3,0.3-1.6,1.8-2.5,3c-2.9,3.6-6.7,8.4-9.5,10.4c-4.4,3.1-9.4,4.8-14.2,4.8
		c-0.6,0-1.1,0-1.7-0.1c2.4,1.3,5.6,2.5,9.1,2.5c3.4,0,6.6-1.1,9.6-3.4c6.9-5.2,9-11.1,10.8-16.2c0.5-1.4,1-2.7,1.5-4
		c-0.5,0.4-1,0.9-1.5,1.4C39.8,22.7,39.3,23.2,38.7,23.8z"/>
</g>
</svg>
