<?xml version="1.0" encoding="utf-8"?>
<!-- Generator: Adobe Illustrator 18.0.0, SVG Export Plug-In . SVG Version: 6.00 Build 0)  -->
<!DOCTYPE svg PUBLIC "-//W3C//DTD SVG 1.1//EN" "http://www.w3.org/Graphics/SVG/1.1/DTD/svg11.dtd">
<svg version="1.1" id="Layer_1" xmlns="http://www.w3.org/2000/svg" xmlns:xlink="http://www.w3.org/1999/xlink" x="0px" y="0px"
	 viewBox="0 0 48 48" enable-background="new 0 0 48 48" xml:space="preserve">
<g>
	<path fill="#F04B36" d="M36.9,42.6l-3.2-10.8c-0.1-0.4-0.5-0.6-0.9-0.6H20.7c-0.4,0-0.8,0.3-0.9,0.6l-3.2,10.8c0,0.2-0.1,0.3,0,0.5
		l0.8,3.7c0.1,0.4,0.5,0.7,0.9,0.7h16.9c0.4,0,0.8-0.3,0.9-0.7l0.8-3.7C37,43,37,42.8,36.9,42.6z M26.8,42.1c-1.2,0-2.2-1-2.2-2.2
		c0-1.2,1-2.2,2.2-2.2c1.2,0,2.2,1,2.2,2.2C29,41.1,28,42.1,26.8,42.1z"/>
	<path fill="#CFD0D1" d="M20.1,28.9c0.1,0.5,0.4,0.8,0.9,0.8H33c0.5,0,0.8-0.3,0.9-0.8L36.8,6c0-0.3,0-0.5-0.2-0.7c0,0,0,0,0,0
		C36.1,2,31.5,0.5,27,0.5c-4.5,0-9.1,1.5-9.6,4.8c0,0,0,0,0,0c-0.2,0.2-0.3,0.5-0.2,0.7l0.2,1.5h-3c-0.3,0-0.5,0.1-0.7,0.3l-2.4,2.7
		c-0.2,0.2-0.3,0.6-0.2,0.9l3.9,12.8c0.1,0.4,0.5,0.6,0.9,0.6h3.8L20.1,28.9z M29.6,24.8h-5.2c-0.5,0-0.9-0.4-0.9-0.9
		s0.4-0.9,0.9-0.9h5.2c0.5,0,0.9,0.4,0.9,0.9S30.1,24.8,29.6,24.8z M29.6,18.4h-5.2c-0.5,0-0.9-0.4-0.9-0.9c0-0.5,0.4-0.9,0.9-0.9
		h5.2c0.5,0,0.9,0.4,0.9,0.9C30.5,18,30.1,18.4,29.6,18.4z M29.6,12h-5.2c-0.5,0-0.9-0.4-0.9-0.9c0-0.5,0.4-0.9,0.9-0.9h5.2
		c0.5,0,0.9,0.4,0.9,0.9C30.5,11.6,30.1,12,29.6,12z M16.5,23L13,11.3l1.8-2h2.8L19.3,23H16.5z M27,2.3c3.3,0,6.7,0.9,7.6,2.7H19.4
		C20.3,3.2,23.7,2.3,27,2.3z"/>
</g>
</svg>
