<?xml version="1.0" encoding="utf-8"?>
<!-- Generator: Adobe Illustrator 18.0.0, SVG Export Plug-In . SVG Version: 6.00 Build 0)  -->
<!DOCTYPE svg PUBLIC "-//W3C//DTD SVG 1.1//EN" "http://www.w3.org/Graphics/SVG/1.1/DTD/svg11.dtd">
<svg version="1.1" id="Layer_1" xmlns="http://www.w3.org/2000/svg" xmlns:xlink="http://www.w3.org/1999/xlink" x="0px" y="0px"
	 viewBox="0 0 48 48" enable-background="new 0 0 48 48" xml:space="preserve">
<g>
	<path fill="#0DB89A" d="M35,2.4c-1.1-1.2-2.7-1.9-4.4-1.9H17.4c-1.7,0-3.3,0.7-4.4,1.9c-1.1,1.2-1.7,2.8-1.6,4.5L13,28.1
		c0.2,3.5,3.3,6.3,6.7,6.3h8.5c3.5,0,6.5-2.8,6.7-6.3l1.5-21.2C36.6,5.2,36.1,3.6,35,2.4z"/>
	<path fill="#98A6AF" d="M24,43.9c-0.5,0-1,0.4-1,1v1.6c0,0.5,0.4,1,1,1c0.5,0,1-0.4,1-1v-1.6C25,44.4,24.5,43.9,24,43.9z"/>
	<path fill="#98A6AF" d="M19.5,43.1c-0.5-0.1-1,0.3-1.1,0.8l-0.2,1.6c-0.1,0.5,0.3,1,0.8,1.1c0,0,0.1,0,0.1,0c0.5,0,0.9-0.3,1-0.8
		l0.2-1.6C20.4,43.7,20,43.2,19.5,43.1z"/>
	<path fill="#98A6AF" d="M28.5,43.1c-0.5,0.1-0.9,0.6-0.8,1.1l0.2,1.6c0.1,0.5,0.5,0.8,1,0.8c0,0,0.1,0,0.1,0
		c0.5-0.1,0.9-0.6,0.8-1.1L29.6,44C29.5,43.4,29,43.1,28.5,43.1z"/>
	<path fill="#F7A93B" d="M19.7,36.3c-1.7,0-3.2-0.5-4.6-1.4c1.1,3.9,4.6,6.8,8.8,6.8s7.8-2.9,8.8-6.8c-1.3,0.9-2.9,1.4-4.6,1.4H19.7
		z"/>
</g>
</svg>
