<?xml version="1.0" encoding="utf-8"?>
<!-- Generator: Adobe Illustrator 18.0.0, SVG Export Plug-In . SVG Version: 6.00 Build 0)  -->
<!DOCTYPE svg PUBLIC "-//W3C//DTD SVG 1.1//EN" "http://www.w3.org/Graphics/SVG/1.1/DTD/svg11.dtd">
<svg version="1.1" id="Layer_1" xmlns="http://www.w3.org/2000/svg" xmlns:xlink="http://www.w3.org/1999/xlink" x="0px" y="0px"
	 viewBox="0 0 48 48" enable-background="new 0 0 48 48" xml:space="preserve">
<g>
	<path fill="#CFD0D1" d="M39.3,14.3C35.6,5.5,27.8-1.5,18.4,1C9,3.5,6.9,21.3,6.9,21.7c-0.5,3.3,0,4.2,2.6,6.1
		c2.6,1.9,10.6-2,14.6-2.4c4-0.4,8.1,2.1,12.6,1.1C41.2,25.4,43,23,39.3,14.3z"/>
	<path fill="#294E58" d="M30.7,29.4c-0.7-0.1-1.3-0.3-1.9-0.4c-1.4-0.3-2.7-0.6-3.8-0.6c-0.2,0-0.4,0-0.6,0
		c-1.1,0.1-2.9,0.7-4.7,1.2c-0.3,0.1-0.5,0.2-0.8,0.2c-0.4,2.5-1,6.1-1.4,9.8c-0.8,6.7,6.8,7.9,9.7,7.9c2.9,0,9.9-5.3,7.5-10.6
		C33.3,33.9,31.8,31.4,30.7,29.4z"/>
</g>
</svg>
