<?xml version="1.0" encoding="utf-8"?>
<!-- Generator: Adobe Illustrator 18.0.0, SVG Export Plug-In . SVG Version: 6.00 Build 0)  -->
<!DOCTYPE svg PUBLIC "-//W3C//DTD SVG 1.1//EN" "http://www.w3.org/Graphics/SVG/1.1/DTD/svg11.dtd">
<svg version="1.1" id="Layer_1" xmlns="http://www.w3.org/2000/svg" xmlns:xlink="http://www.w3.org/1999/xlink" x="0px" y="0px"
	 viewBox="0 0 48 48" enable-background="new 0 0 48 48" xml:space="preserve">
<g>
	<path fill="#F04B36" d="M29.7,17.6c-0.2-0.9-1.3-1.4-2.3-1.2c-1.2,0.2-2.3,0.3-3.5,0.3c-1.2,0-2.4,0-3.6-0.2c-1-0.1-2,0.4-2.2,1.3
		l-4.5,17.6c-0.2,0.9,0.3,1.9,1.3,2.2c3,1,6.1,1.6,9.4,1.5c3.2,0,6.3-0.7,9.3-1.8c0.9-0.4,1.5-1.4,1.2-2.2L29.7,17.6z"/>
	<path fill="#4DA0D8" d="M7.9,15.8c-2-1.9-4.4-4.2-5.7-6c-0.8-1.2-1.6-1.2-1.6,0c-0.1,2.1,0,4.4,0.5,6.7c0.4,1.9,1.4,3.9,2.3,5.8
		l4.3-6.3C7.8,16,7.9,15.9,7.9,15.8z"/>
	<path fill="#0DB89A" d="M12,16.6c-0.9-0.4-2-0.1-2.6,0.6l-5.1,7.5c-0.5,0.8-0.5,2,0.2,2.6c2.1,2.1,4.6,4.9,7.4,6.6L16,17.7
		C14.6,17.4,13.1,17.1,12,16.6z"/>
	<path fill="#4DA0D8" d="M47.5,9.8c-0.1-1.2-0.8-1.2-1.6,0c-1.3,1.8-3.7,4.2-5.7,6c0.1,0.1,0.1,0.1,0.2,0.2l4.3,6.3
		c1-1.9,1.9-4,2.3-5.8C47.4,14.2,47.6,12,47.5,9.8z"/>
	<path fill="#0DB89A" d="M38.6,17.2c-0.5-0.8-1.7-1-2.6-0.6c-1.1,0.5-2.7,0.8-4.1,1.1l4.6,16c2.6-1.8,5-4.3,7-6.4
		c0.6-0.7,0.7-1.9,0.2-2.6L38.6,17.2z"/>
</g>
</svg>
