<?xml version="1.0" encoding="utf-8"?>
<!-- Generator: Adobe Illustrator 18.0.0, SVG Export Plug-In . SVG Version: 6.00 Build 0)  -->
<!DOCTYPE svg PUBLIC "-//W3C//DTD SVG 1.1//EN" "http://www.w3.org/Graphics/SVG/1.1/DTD/svg11.dtd">
<svg version="1.1" id="Layer_1" xmlns="http://www.w3.org/2000/svg" xmlns:xlink="http://www.w3.org/1999/xlink" x="0px" y="0px"
	 viewBox="0 0 48 48" enable-background="new 0 0 48 48" xml:space="preserve">
<g>
	<path fill="#0DB89A" d="M47.2,0.8c-0.3-0.3-0.6-0.3-1-0.2l-45,13.6c-0.5,0.1-0.8,0.6-0.7,1.1C5,43,33.4,47.4,33.7,47.5
		c0,0,0.1,0,0.1,0c0.4,0,0.8-0.3,0.9-0.7l12.7-45C47.6,1.4,47.5,1,47.2,0.8z M16.9,22.5c-1.1,0-2-1-2-2.1c0-1.1,1-2,2.1-1.9
		c1.1,0,2,1,2,2.1C18.9,21.6,18,22.5,16.9,22.5z M28.1,32.3c-1.6-0.1-2.8-1.4-2.8-2.9c0.1-1.6,1.4-2.8,2.9-2.7
		c1.6,0.1,2.8,1.4,2.8,2.9C31,31.2,29.7,32.4,28.1,32.3z M31.9,16.8c-1,0-1.8-0.9-1.7-1.9c0-1,0.9-1.8,1.9-1.7c1,0,1.8,0.9,1.8,1.9
		C33.8,16.1,32.9,16.9,31.9,16.8z"/>
</g>
</svg>
