<?xml version="1.0" encoding="utf-8"?>
<!-- Generator: Adobe Illustrator 18.0.0, SVG Export Plug-In . SVG Version: 6.00 Build 0)  -->
<!DOCTYPE svg PUBLIC "-//W3C//DTD SVG 1.1//EN" "http://www.w3.org/Graphics/SVG/1.1/DTD/svg11.dtd">
<svg version="1.1" id="Layer_1" xmlns="http://www.w3.org/2000/svg" xmlns:xlink="http://www.w3.org/1999/xlink" x="0px" y="0px"
	 viewBox="0 0 48 48" enable-background="new 0 0 48 48" xml:space="preserve">
<g>
	<path fill="#CFD0D1" d="M32.9,14.6c0-0.6-0.2-1.2-0.5-1.6c0.3-0.4,0.5-0.9,0.5-1.5c0-1.3-1.2-2.4-2.8-2.4H17.8
		c-1.5,0-2.8,1.1-2.8,2.4c0,0.5,0.2,1,0.5,1.5c-0.3,0.5-0.5,1-0.5,1.6v5.6h17.9V14.6z"/>
	<path fill="#06728D" d="M33.4,22.5H14.6c-2.9,0-5.3,2.2-5.3,4.9v13.1c0,2.7,2.4,4.9,5.3,4.9h1.1v1.2c0,0.5,0.4,0.9,0.9,0.9
		s0.9-0.4,0.9-0.9v-1.2h13.1v1.2c0,0.5,0.4,0.9,0.9,0.9c0.5,0,0.9-0.4,0.9-0.9v-1.2h1.1c2.9,0,5.3-2.2,5.3-4.9V27.4
		C38.7,24.7,36.3,22.5,33.4,22.5z M30.4,37.8H17.6c-0.5,0-0.9-0.4-0.9-0.9c0-0.5,0.4-0.9,0.9-0.9h12.8c0.5,0,0.9,0.4,0.9,0.9
		C31.3,37.4,30.9,37.8,30.4,37.8z M30.4,31.9H17.6c-0.5,0-0.9-0.4-0.9-0.9c0-0.5,0.4-0.9,0.9-0.9h12.8c0.5,0,0.9,0.4,0.9,0.9
		C31.3,31.5,30.9,31.9,30.4,31.9z"/>
	<path fill="#61A89A" d="M7.5,22.5H3.9c-0.5,0-0.9,0.4-0.9,0.9c0,0.5,0.4,0.9,0.9,0.9h2.7v1.8C6.6,26.6,7,27,7.5,27
		c0.5,0,0.9-0.4,0.9-0.9v-2.7C8.4,22.9,8,22.5,7.5,22.5z"/>
	<path fill="#61A89A" d="M44.1,22.5h-3.6c-0.5,0-0.9,0.4-0.9,0.9v2.7c0,0.5,0.4,0.9,0.9,0.9c0.5,0,0.9-0.4,0.9-0.9v-1.8h2.7
		c0.5,0,0.9-0.4,0.9-0.9C45,22.9,44.6,22.5,44.1,22.5z"/>
	<path fill="#F04B36" d="M20,7.4c0.5,0,0.9-0.4,0.9-0.9V3.2c0-0.5-0.4-0.9-0.9-0.9c-0.5,0-0.9,0.4-0.9,0.9v3.3
		C19.1,7,19.5,7.4,20,7.4z"/>
	<path fill="#F04B36" d="M24,7.4c0.5,0,0.9-0.4,0.9-0.9V1.4c0-0.5-0.4-0.9-0.9-0.9c-0.5,0-0.9,0.4-0.9,0.9v5.1
		C23.1,7,23.5,7.4,24,7.4z"/>
	<path fill="#F04B36" d="M28,7.4c0.5,0,0.9-0.4,0.9-0.9V3.2c0-0.5-0.4-0.9-0.9-0.9c-0.5,0-0.9,0.4-0.9,0.9v3.3
		C27.1,7,27.5,7.4,28,7.4z"/>
</g>
</svg>
