<?xml version="1.0" encoding="utf-8"?>
<!-- Generator: Adobe Illustrator 18.0.0, SVG Export Plug-In . SVG Version: 6.00 Build 0)  -->
<!DOCTYPE svg PUBLIC "-//W3C//DTD SVG 1.1//EN" "http://www.w3.org/Graphics/SVG/1.1/DTD/svg11.dtd">
<svg version="1.1" id="Layer_1" xmlns="http://www.w3.org/2000/svg" xmlns:xlink="http://www.w3.org/1999/xlink" x="0px" y="0px"
	 viewBox="0 0 48 48" enable-background="new 0 0 48 48" xml:space="preserve">
<g>
	<path fill="#F7A93B" d="M24,11c-7.1,0-13,5.8-13,13c0,7.1,5.8,13,13,13c7.1,0,13-5.8,13-13C37,16.9,31.1,11,24,11z"/>
	<path fill="#FFD69A" d="M24,0.5C11,0.5,0.5,11,0.5,24S11,47.5,24,47.5C37,47.5,47.5,37,47.5,24S37,0.5,24,0.5z M24,39
		c-8.3,0-15-6.7-15-15c0-8.3,6.7-15,15-15s15,6.7,15,15C39,32.3,32.3,39,24,39z"/>
</g>
</svg>
