<?xml version="1.0" encoding="utf-8"?>
<!-- Generator: Adobe Illustrator 18.0.0, SVG Export Plug-In . SVG Version: 6.00 Build 0)  -->
<!DOCTYPE svg PUBLIC "-//W3C//DTD SVG 1.1//EN" "http://www.w3.org/Graphics/SVG/1.1/DTD/svg11.dtd">
<svg version="1.1" id="Layer_1" xmlns="http://www.w3.org/2000/svg" xmlns:xlink="http://www.w3.org/1999/xlink" x="0px" y="0px"
	 viewBox="0 0 48 48" enable-background="new 0 0 48 48" xml:space="preserve">
<g>
	<path fill="#0DB89A" d="M47.4,11.6c-0.2-0.5-0.8-0.7-1.3-0.5l-9.8,4.7c-0.1,0.1-0.2,0.1-0.3,0.2l-6.2,6.4v-0.7c0-0.5-0.4-1-1-1H1.5
		c-0.5,0-1,0.4-1,1v13.2c0,3.1,2.5,5.7,5.7,5.7h18c3.1,0,5.7-2.5,5.7-5.7v-9.6l7.5-7.8l9.6-4.6C47.4,12.7,47.6,12.1,47.4,11.6z"/>
	<path fill="#CFD0D1" d="M20.6,16.7c0.5,0,1-0.4,1-1v-4.8c0-0.5-0.4-1-1-1c-0.5,0-1,0.4-1,1v4.8C19.6,16.2,20.1,16.7,20.6,16.7z"/>
	<path fill="#CFD0D1" d="M15.2,16.7c0.5,0,1-0.4,1-1V8.4c0-0.5-0.4-1-1-1c-0.5,0-1,0.4-1,1v7.3C14.2,16.2,14.6,16.7,15.2,16.7z"/>
	<path fill="#CFD0D1" d="M9.7,16.7c0.5,0,1-0.4,1-1v-4.8c0-0.5-0.4-1-1-1c-0.5,0-1,0.4-1,1v4.8C8.7,16.2,9.2,16.7,9.7,16.7z"/>
</g>
</svg>
