<?xml version="1.0" encoding="utf-8"?>
<!-- Generator: Adobe Illustrator 18.0.0, SVG Export Plug-In . SVG Version: 6.00 Build 0)  -->
<!DOCTYPE svg PUBLIC "-//W3C//DTD SVG 1.1//EN" "http://www.w3.org/Graphics/SVG/1.1/DTD/svg11.dtd">
<svg version="1.1" id="Layer_1" xmlns="http://www.w3.org/2000/svg" xmlns:xlink="http://www.w3.org/1999/xlink" x="0px" y="0px"
	 viewBox="0 0 48 48" enable-background="new 0 0 48 48" xml:space="preserve">
<g>
	<path fill="#F04B36" d="M6.3,7.5C6,7.4,5.7,7.4,5.4,7.5L1.1,9.4c-0.5,0.2-0.7,0.7-0.5,1.2l2.9,8.3c0.9-3.3,2.4-7,4.7-10.4L6.3,7.5z
		"/>
	<path fill="none" d="M22.2,2.5c-3.3,0-6.3,1.6-7.8,4.1c1.5,0.9,4.4,1.5,7.8,1.6c3.3,0,6.3-0.6,7.8-1.6C28.5,4.1,25.5,2.5,22.2,2.5z
		"/>
	<path fill="#0DB89A" d="M40.6,30l0-0.5c-0.6-7.7-2.1-13.8-4.6-18.3l-1-1.7c-0.9-1.3-1.8-2.4-2.8-3.3c-1.7-3.6-5.5-5.9-9.9-5.9
		c-4.3,0-8.2,2.3-9.8,5.8c0,0,0,0,0,0C3.7,16,3.7,29.6,3.7,30.1c-0.4,6.5,0.2,11.6,0.2,11.8C3.9,42,4,42.1,4,42.2
		c0.1,0.2,1.3,2.2,5.6,3.6c0.1,0.1,0.2,0.1,0.3,0.1c2.5,0.8,5.7,1.3,9.3,1.5c0,0,0.1,0,0.1,0l0.2,0c0.3,0,0.5,0,0.8,0
		c0.6,0,1.3,0,1.9,0l0-1l0.1,1c0.3,0,0.5,0,0.8,0c0.3,0,0.7,0,1,0c0.3,0,0.5,0,0.8,0l0.2,0c0,0,0.1,0,0.1,0c3.6-0.2,6.8-0.6,9.3-1.5
		c0.1,0,0.2-0.1,0.2-0.1c4.3-1.5,5.5-3.4,5.6-3.7c0.1-0.1,0.1-0.2,0.1-0.3c0-0.1,0.3-2.4,0.4-5.8l-0.1-3.8
		C40.7,31.6,40.7,30.8,40.6,30z M22.2,8.2c-3.3,0-6.2-0.6-7.8-1.6c1.5-2.5,4.5-4.1,7.8-4.1c3.3,0,6.3,1.6,7.8,4.1
		C28.4,7.5,25.5,8.1,22.2,8.2z"/>
	<path fill="#F04B36" d="M47,12.9c-0.7-3-2.1-4.8-4.2-5.4c-3-1-6.5,1.2-8,2.2l1,1.7c1.4-1,4.2-2.7,6.3-2c1.3,0.4,2.3,1.8,2.9,4
		c1.6,6.4-2,14.6-4.4,18.9l0.1,3.8C42.2,33.9,49.4,22.1,47,12.9z"/>
</g>
</svg>
