<?xml version="1.0" encoding="utf-8"?>
<!-- Generator: Adobe Illustrator 18.0.0, SVG Export Plug-In . SVG Version: 6.00 Build 0)  -->
<!DOCTYPE svg PUBLIC "-//W3C//DTD SVG 1.1//EN" "http://www.w3.org/Graphics/SVG/1.1/DTD/svg11.dtd">
<svg version="1.1" id="Layer_1" xmlns="http://www.w3.org/2000/svg" xmlns:xlink="http://www.w3.org/1999/xlink" x="0px" y="0px"
	 viewBox="0 0 48 48" enable-background="new 0 0 48 48" xml:space="preserve">
<g>
	<path fill="#6A8137" d="M26.7,36.7l-3.9,3.9c-0.3,0.3-0.3,0.7,0,1c0.1,0.1,0.3,0.2,0.5,0.2c0.2,0,0.4-0.1,0.5-0.2l3.9-3.9
		c0.3-0.3,0.3-0.7,0-1C27.5,36.4,27,36.4,26.7,36.7z"/>
	<path fill="#CE8931" d="M33.5,34.5c-2.3-0.4-2.4,1.1-2.4,1.1c-0.2,1.7,1.5,2,1.5,2c2.1,0.9,5.8-2.1,5.8-2.1
		C36.2,36.1,35.7,34.9,33.5,34.5z"/>
	<path fill="#CE8931" d="M38,29.7c-2.3-0.2-2.4,1.3-2.4,1.3c-0.1,1.7,1.7,1.9,1.7,1.9c2.2,0.7,5.7-2.6,5.7-2.6
		C40.9,31.1,40.3,29.9,38,29.7z"/>
	<path fill="#CE8931" d="M41.9,28.1c2.2,0.7,5.6-2.7,5.6-2.7c-2.1,0.9-2.7-0.3-5-0.4c-2.3-0.2-2.3,1.3-2.3,1.3
		C40.2,28,41.9,28.1,41.9,28.1z"/>
	<path fill="#CE8931" d="M29.5,26.4c0,0-3,3.8-2.1,6c0,0,0.3,1.8,2,1.6c0,0,1.4-0.2,1.1-2.5C30,29.1,28.8,28.6,29.5,26.4z"/>
	<path fill="#CE8931" d="M35.2,26.8c-0.2-2.3-1.4-3-0.5-5.1c0,0-3.3,3.5-2.6,5.8c0,0,0.2,1.8,1.8,1.7C33.9,29.2,35.4,29.1,35.2,26.8
		z"/>
	<path fill="#CE8931" d="M38.4,24.5c0,0,1.5,0,1.3-2.4c-0.2-2.3-1.3-3-0.4-5.1c0,0-3.3,3.5-2.7,5.7C36.7,22.8,36.8,24.6,38.4,24.5z"
		/>
	<path fill="#6A8137" d="M27.1,34.1c-0.4-0.1-0.8,0-0.9,0.4c-0.1,0.4,0,0.8,0.4,0.9c2,0.7,2.3,2.3,2.4,2.3c0.1,0.3,0.4,0.6,0.7,0.6
		c0.1,0,0.1,0,0.2,0c0.4-0.1,0.6-0.5,0.6-0.8C30.3,37.4,29.8,35.1,27.1,34.1z"/>
	<path fill="#B58A3B" d="M41.3,21c0.2,0,0.3-0.1,0.5-0.2c0.9-0.8,2.5-1.9,3.7-2.2c-0.3,1.2-1.4,2.9-2.2,3.8c-0.3,0.3-0.2,0.8,0.1,1
		c0.1,0.1,0.3,0.2,0.5,0.2c0.2,0,0.4-0.1,0.6-0.3C44.7,23,47,20.1,47,18c0,0,0-0.1,0-0.1c0-0.3-0.1-0.5-0.3-0.6
		c-0.1-0.1-0.4-0.2-0.6-0.2c0,0-0.1,0-0.1,0c-2.1,0-4.9,2.4-5.2,2.7c-0.3,0.3-0.3,0.7-0.1,1C40.9,20.9,41.1,21,41.3,21z"/>
	<path fill="#F7A93B" d="M19.3,7.5c-7.9-2.3-14.2,0.3-16.1,1C2.7,8.6-2.1,11,2.4,14.9v14c0,0-0.5,2.3,2.6,2.9
		c3.1,0.6,12.9,1.4,12.9,1.4s2.6,0.5,2.6-2.9c0-3.4-0.5-13.6-0.5-13.6S27.2,9.8,19.3,7.5z M7.5,27.6c-0.7,0-1.3-0.6-1.3-1.3
		c0-0.7,0.6-1.3,1.3-1.3c0.7,0,1.3,0.6,1.3,1.3C8.8,27,8.2,27.6,7.5,27.6z M7.9,16.3c-0.7,0-1.3-0.6-1.3-1.3c0-0.7,0.6-1.3,1.3-1.3
		c0.7,0,1.3,0.6,1.3,1.3C9.2,15.7,8.6,16.3,7.9,16.3z M14,22.8c-0.7,0-1.3-0.6-1.3-1.3c0-0.7,0.6-1.3,1.3-1.3c0.7,0,1.3,0.6,1.3,1.3
		C15.3,22.3,14.7,22.8,14,22.8z"/>
	<path fill="#89AA47" d="M31.7,29.9c0.1,0.4,0.2,0.8,0.3,1.2c0,0.2,0,0.4,0.1,0.6c0.1,0,0.1,0,0.2,0c0.5-0.1,1.3-0.4,1.9-1
		c0,0,0,0,0,0c0,0-0.1,0-0.1,0l-0.1,0C32.9,30.8,32.2,30.4,31.7,29.9z"/>
	<path fill="#0DB89A" d="M25.9,32.7c-0.9-2.8,1.8-6.5,2.4-7.2l2.2,1.1c0.2-2.6,2.5-5.3,3-5.9l1.1,0.7c-0.1-3.2-0.3-6.2-0.3-6.2
		s5.6-5.8-2.4-8.1c-3-0.9-6.9-1-10.7-0.9c2.4,1.1,3.2,2.6,3.5,3.8c0.7,3-1.6,6.1-2.8,7.5c0.1,2.5,0.5,10,0.5,12.9
		c0,1.1-0.2,2-0.6,2.8C23.1,33,24.5,32.8,25.9,32.7z"/>
</g>
</svg>
