<?xml version="1.0" encoding="utf-8"?>
<!-- Generator: Adobe Illustrator 18.0.0, SVG Export Plug-In . SVG Version: 6.00 Build 0)  -->
<!DOCTYPE svg PUBLIC "-//W3C//DTD SVG 1.1//EN" "http://www.w3.org/Graphics/SVG/1.1/DTD/svg11.dtd">
<svg version="1.1" id="Layer_1" xmlns="http://www.w3.org/2000/svg" xmlns:xlink="http://www.w3.org/1999/xlink" x="0px" y="0px"
	 viewBox="0 0 48 48" enable-background="new 0 0 48 48" xml:space="preserve">
<g>
	<path fill="#F04B36" d="M47.2,20.3c-0.5-1.3-1.4-2.3-2.5-2.7c-1.7-0.6-3.7,0-5,0.5c0-0.2,0-0.4,0-0.6H0.5c0,11.1,8.8,20,19.6,20
		c3.7,0,7.2-1.1,10.1-2.9c0.1,0.1,0.3,0.1,0.4,0.1c0.1,0,0.3,0,0.4-0.1C40.1,30.6,49.2,25.7,47.2,20.3z M35,30.4
		c2.3-2.8,3.8-6.2,4.4-9.9c0.9-0.5,3.1-1.5,4.6-1c0.6,0.2,1,0.7,1.3,1.4C46.4,24.1,40.2,27.9,35,30.4z"/>
	<path fill="#CE8931" d="M20.1,39.7c-3.9,0-7.5-1-10.6-2.9c-0.2,0.4-0.3,0.8-0.3,1.3c0,3.3,4.9,6.1,10.9,6.1c6,0,10.9-2.7,10.9-6.1
		c0-0.4-0.1-0.9-0.3-1.3C27.6,38.6,24,39.7,20.1,39.7z"/>
	<path fill="#ACD6E3" d="M18.9,12.8c1.4,0.2,2.4,0.7,3.5,1.5c0.5,0.4,1.3,0.7,2.1,1.1h11.3c-0.4-0.5-1-0.9-1.4-1.4
		c-0.7-0.8-1-1.8-2-2.4c-0.4-0.2-1,0-1.4-0.3c-0.2-0.2-0.2-0.9-0.5-1.1c-0.8-0.9-1.6-1.3-2.2-2.4c-1.4-2.2-5-5.3-7.9-3.3
		c-0.7,0.5-0.7,1.9-1.5,2.1c-0.4,0.1-0.8-0.5-1.2-0.6c-1.4-0.1-3.2-0.6-3.7,1.3c-0.9-0.4-4.2-1-5.2-0.3C7.9,7.6,8.3,9.1,7.6,9.8
		c-0.6,0.7-0.9,0.3-1.7,0.6c-2.4,0.8-3.4,2.7-3.7,5h8.2C11.9,13.2,16.8,12.6,18.9,12.8z"/>
</g>
</svg>
