<?xml version="1.0" encoding="utf-8"?>
<!-- Generator: Adobe Illustrator 18.0.0, SVG Export Plug-In . SVG Version: 6.00 Build 0)  -->
<!DOCTYPE svg PUBLIC "-//W3C//DTD SVG 1.1//EN" "http://www.w3.org/Graphics/SVG/1.1/DTD/svg11.dtd">
<svg version="1.1" id="Layer_1" xmlns="http://www.w3.org/2000/svg" xmlns:xlink="http://www.w3.org/1999/xlink" x="0px" y="0px"
	 viewBox="0 0 48 48" enable-background="new 0 0 48 48" xml:space="preserve">
<g>
	<path fill="#4DA0D8" d="M33.7,18.7c0-0.5-0.4-0.9-0.9-0.9H15c-0.5,0-0.9,0.4-0.9,0.9l0,0.1c0,0.1,0,0.2,0,0.2
		c0,3.1,1.4,5.9,3.9,7.8l5.1,20c0.1,0.4,0.5,0.7,0.9,0.7c0.4,0,0.8-0.3,0.9-0.7l5.1-20c2.4-1.9,3.9-4.8,3.9-7.8
		C33.7,18.9,33.7,18.9,33.7,18.7L33.7,18.7z"/>
	<path fill="#F04B36" d="M25.2,6.6c2.5-0.3,2.3-2.1,2.3-2.3c0-0.2,0-0.3,0.1-0.5c-0.4-1.1-1.5-2.8-4.7-3.3c-0.4-0.1-0.7,0.1-0.9,0.4
		c-0.2,0.3-0.2,0.7-0.1,1c0,0,0.1,0.2,0,0.5c-0.1,0.3-0.5,0.5-1.1,0.7c-1.8,0.6-3.2,1.9-3.7,3.3c-0.1,0.4-0.2,0.8-0.1,1.2
		c0,0-0.1,0.1-0.1,0.1C18.5,7.4,22.5,6.9,25.2,6.6z"/>
	<path fill="#F04B36" d="M33.8,12.2c-0.3-1-0.9-1.9-1.9-2.6c0,0.1,0,0.1,0,0.2c-0.1,0.2-1.2,2.2-5,2.8c-1.7,0.3-3.7,0.3-5.6,0.2
		c-2,0-4-0.1-5.1,0.3c-0.1,0-0.2,0.1-0.3,0.1c-0.3,0-0.7-0.2-0.8-0.5c-0.5,0.7-0.9,1.5-0.9,2.4h19.5C33.9,14.3,34.1,13.3,33.8,12.2z
		"/>
	<path fill="#F04B36" d="M21.2,11c1.9,0,3.8,0.1,5.3-0.2c2.9-0.5,3.7-1.8,3.7-1.9c0.2-0.3,0.5-0.5,0.8-0.5c0-0.7-0.1-1.6-0.6-2.4
		c-0.3-0.5-0.7-0.9-1.2-1.2c-0.1,1.3-0.9,3.4-3.9,3.7c-3.4,0.4-8.7,1.1-8.8,1.1c0,0-0.1,0-0.1,0c-0.3,0-0.6-0.2-0.8-0.5
		c-0.1,0.2-0.2,0.3-0.2,0.5c-0.1,0.4-0.2,1,0,1.8C16.9,10.9,19,11,21.2,11z"/>
</g>
</svg>
