<?xml version="1.0" encoding="utf-8"?>
<!-- Generator: Adobe Illustrator 18.0.0, SVG Export Plug-In . SVG Version: 6.00 Build 0)  -->
<!DOCTYPE svg PUBLIC "-//W3C//DTD SVG 1.1//EN" "http://www.w3.org/Graphics/SVG/1.1/DTD/svg11.dtd">
<svg version="1.1" id="Layer_1" xmlns="http://www.w3.org/2000/svg" xmlns:xlink="http://www.w3.org/1999/xlink" x="0px" y="0px"
	 viewBox="0 0 48 48" enable-background="new 0 0 48 48" xml:space="preserve">
<g>
	<path fill="#4D9385" d="M21.5,33.2c-0.3-0.5-0.8-0.7-1.3-0.4L9.5,38.4c-0.5,0.3-0.7,0.8-0.4,1.3c0.2,0.3,0.5,0.5,0.9,0.5
		c0.2,0,0.3,0,0.5-0.1l10.6-5.6C21.6,34.3,21.7,33.7,21.5,33.2z"/>
	<path fill="#CFD0D1" d="M8,16.5l12.8,6.1c0.5,0.2,1.2,0.4,1.9,0.4c0.7,0,1.3-0.1,1.9-0.4l12.8-6.1c1-0.5,1.2-1.3,1.2-1.6
		c0-0.3-0.1-1.1-1.2-1.6l-1.6-0.8l2.7-1.4c0.5-0.3,0.7-0.8,0.4-1.3c-0.3-0.5-0.8-0.7-1.3-0.4l-4,2.1l-9-4.3c-1-0.5-2.7-0.5-3.7,0
		L8,13.4c-1,0.5-1.2,1.3-1.2,1.6C6.9,15.2,7,16,8,16.5z M21.3,11c0.2-0.5,0.8-0.7,1.3-0.5l7.6,3.5c0.5,0.2,0.7,0.8,0.5,1.3
		c-0.2,0.4-0.5,0.6-0.9,0.6c-0.1,0-0.3,0-0.4-0.1l-7.6-3.5C21.3,12.1,21.1,11.5,21.3,11z M18,12.8c0.2-0.5,0.8-0.7,1.3-0.5l7.6,3.5
		c0.5,0.2,0.7,0.8,0.5,1.3c-0.2,0.4-0.5,0.6-0.9,0.6c-0.1,0-0.3,0-0.4-0.1l-7.6-3.5C18,13.9,17.8,13.3,18,12.8z M14.7,14.5
		c0.2-0.5,0.8-0.7,1.3-0.5l7.6,3.5c0.5,0.2,0.7,0.8,0.5,1.3c-0.2,0.4-0.5,0.6-0.9,0.6c-0.1,0-0.3,0-0.4-0.1l-7.6-3.5
		C14.7,15.6,14.5,15,14.7,14.5z"/>
	<path fill="#06728D" d="M47.4,20.2c-0.3-0.5-0.8-0.7-1.3-0.4l-7.6,4V18c-1.9,1-10.3,5.3-12.8,6.7c-1.1,0.6-2.2,0.8-3.2,0.8
		c-1.9,0-3.2-0.8-3.3-0.9L6.9,18.8L7,24.7l-6,3.2c-0.5,0.3-0.7,0.8-0.4,1.3c0.2,0.3,0.5,0.5,0.9,0.5c0.2,0,0.3,0,0.5-0.1l5.2-2.7
		l0.1,5.9c0,0.3,0.2,0.7,0.5,0.8l4.2,2.3l7.8-4.1c0.3-0.1,0.6-0.2,0.9-0.2c0.7,0,1.4,0.4,1.7,1.1c0.2,0.5,0.3,1,0.1,1.5
		c-0.2,0.5-0.5,0.9-1,1.2L16,38.2l3.6,2c0.1,0.1,1.3,0.8,3.1,0.8c1,0,2-0.3,3-0.8c2.6-1.5,12.2-6.4,12.3-6.4
		c0.3-0.2,0.5-0.5,0.5-0.9v-7l8.5-4.5C47.5,21.3,47.6,20.7,47.4,20.2z"/>
</g>
</svg>
