<?xml version="1.0" encoding="utf-8"?>
<!-- Generator: Adobe Illustrator 18.0.0, SVG Export Plug-In . SVG Version: 6.00 Build 0)  -->
<!DOCTYPE svg PUBLIC "-//W3C//DTD SVG 1.1//EN" "http://www.w3.org/Graphics/SVG/1.1/DTD/svg11.dtd">
<svg version="1.1" id="Layer_1" xmlns="http://www.w3.org/2000/svg" xmlns:xlink="http://www.w3.org/1999/xlink" x="0px" y="0px"
	 viewBox="0 0 48 48" enable-background="new 0 0 48 48" xml:space="preserve">
<g>
	<path fill="#F04B36" d="M10.4,15.8L10.4,15.8c-5,0.3-9,5.3-9,11.4c0,6.3,4.2,11.4,9.4,11.4c5.2,0,9.4-5.1,9.4-11.4
		c0-5.7-3.4-10.4-7.9-11.2h0L10.4,15.8z"/>
	<path fill="#0DB89A" d="M47.4,13.6c-0.2-0.5-0.7-0.8-1.2-0.6c-0.1,0-11,3.6-18.6-1.4c-0.4-0.2-0.7-0.5-1.1-0.7
		c10.3,0.7,11.4-9.1,11.4-9.1C26.2,0.1,23.1,6.5,22.3,9.1C13.6,6.2,2.1,6.4,1.5,6.4c-0.5,0-1,0.5-1,1c0,0.5,0.4,1,1,1c0,0,0,0,0,0
		c0.1,0,3.8-0.1,8.6,0.4c0.2,0.4,1.8,3,0.4,6.7c0,0.1-0.1,0.2-0.1,0.4c0,0,0,0,0,0h0l2,0.1h0h0c1.1-3,0.6-5.5,0-7
		c5,0.6,10.6,1.8,14.1,4.2c2.4,1.6,5.1,2.4,7.6,2.8c0.2,0.6,0.6,1.9-0.3,3.9c-0.1,0.2-0.1,0.3-0.1,0.5l2,0h0h0
		c0.7-1.7,0.7-3.1,0.5-4.1c0.5,0,0.9,0,1.4,0c4.9,0,8.8-1.3,9.1-1.4C47.3,14.6,47.6,14.1,47.4,13.6z"/>
	<path fill="#F04B36" d="M33.8,20.3L33.8,20.3c-5.5,0.6-9.9,6.2-9.9,13.1c0,7.3,4.9,13.1,10.8,13.1c6,0,10.8-5.9,10.8-13.1
		c0-6.8-4.3-12.4-9.8-13.1h0L33.8,20.3z"/>
</g>
</svg>
