<?xml version="1.0" encoding="utf-8"?>
<!-- Generator: Adobe Illustrator 18.0.0, SVG Export Plug-In . SVG Version: 6.00 Build 0)  -->
<!DOCTYPE svg PUBLIC "-//W3C//DTD SVG 1.1//EN" "http://www.w3.org/Graphics/SVG/1.1/DTD/svg11.dtd">
<svg version="1.1" id="Layer_1" xmlns="http://www.w3.org/2000/svg" xmlns:xlink="http://www.w3.org/1999/xlink" x="0px" y="0px"
	 viewBox="0 0 48 48" enable-background="new 0 0 48 48" xml:space="preserve">
<g>
	<path fill="#06728D" d="M41.2,5.8H6.8c-3.5,0-6.3,2.9-6.3,6.3v21.6c0,3.5,2.8,6.3,6.3,6.3h2.4v1.2c0,0.6,0.5,1,1,1c0.6,0,1-0.5,1-1
		V40h25v1.2c0,0.6,0.5,1,1,1c0.6,0,1-0.5,1-1V40h2.9c3.5,0,6.3-2.9,6.3-6.3V12.1C47.5,8.6,44.6,5.8,41.2,5.8z M7.2,11.3h29.4v22.9
		H7.2V11.3z M42.7,26.5c0,0.6-0.5,1-1,1c-0.6,0-1-0.5-1-1v-1.9c0-0.6,0.5-1,1-1c0.6,0,1,0.5,1,1V26.5z M42.7,20.3c0,0.6-0.5,1-1,1
		c-0.6,0-1-0.5-1-1v-1.9c0-0.6,0.5-1,1-1c0.6,0,1,0.5,1,1V20.3z M42.7,14.1c0,0.6-0.5,1-1,1c-0.6,0-1-0.5-1-1v-1.9c0-0.6,0.5-1,1-1
		c0.6,0,1,0.5,1,1V14.1z"/>
</g>
</svg>
