<?xml version="1.0" encoding="utf-8"?>
<!-- Generator: Adobe Illustrator 18.0.0, SVG Export Plug-In . SVG Version: 6.00 Build 0)  -->
<!DOCTYPE svg PUBLIC "-//W3C//DTD SVG 1.1//EN" "http://www.w3.org/Graphics/SVG/1.1/DTD/svg11.dtd">
<svg version="1.1" id="Layer_1" xmlns="http://www.w3.org/2000/svg" xmlns:xlink="http://www.w3.org/1999/xlink" x="0px" y="0px"
	 viewBox="0 0 48 48" enable-background="new 0 0 48 48" xml:space="preserve">
<g>
	<path fill="#4DA0D8" d="M8.4,13.8c0.5,0,1-0.4,1-1V1.5c0-0.5-0.4-1-1-1c-0.5,0-1,0.4-1,1v11.3C7.4,13.3,7.9,13.8,8.4,13.8z"/>
	<path fill="#4DA0D8" d="M14.1,0.5c-0.5,0-1,0.4-1,1v11.3c0,2.6-2.1,4.6-4.7,4.6c-2.6,0-4.7-2.1-4.7-4.6V1.5c0-0.5-0.4-1-1-1
		c-0.5,0-1,0.4-1,1v11.3c0,3.1,2.2,5.8,5.2,6.4V46c0,0.8,0.7,1.5,1.5,1.5c0.8,0,1.5-0.7,1.5-1.5V19.2c3-0.7,5.2-3.3,5.2-6.4V1.5
		C15,0.9,14.6,0.5,14.1,0.5z"/>
	<path fill="#CFD0D1" d="M46.2,1.5V46h-5.5L42,32.9c0,0-4.6-0.2-3.2-5.3C40.1,22.5,40.7,3.2,46.2,1.5z"/>
	<path fill="#F04B36" d="M33.8,6.5c-0.3-3.4-3.1-6-6.6-6c-3.5,0-6.3,2.6-6.6,6c0,0,0,0.1,0,0.1v6.1c0,3.1,2.2,5.8,5.2,6.4V46
		c0,0.8,0.7,1.5,1.5,1.5c0.8,0,1.5-0.7,1.5-1.5V19.2c3-0.7,5.2-3.3,5.2-6.4V6.7C33.9,6.6,33.8,6.6,33.8,6.5z"/>
</g>
</svg>
