<?xml version="1.0" encoding="utf-8"?>
<!-- Generator: Adobe Illustrator 18.0.0, SVG Export Plug-In . SVG Version: 6.00 Build 0)  -->
<!DOCTYPE svg PUBLIC "-//W3C//DTD SVG 1.1//EN" "http://www.w3.org/Graphics/SVG/1.1/DTD/svg11.dtd">
<svg version="1.1" id="Layer_1" xmlns="http://www.w3.org/2000/svg" xmlns:xlink="http://www.w3.org/1999/xlink" x="0px" y="0px"
	 viewBox="0 0 48 48" enable-background="new 0 0 48 48" xml:space="preserve">
<g>
	<path fill="#BF6C30" d="M25.7,12.9c0.5,0,1-0.4,1-1V5.4c0-0.5-0.4-1-1-1c-0.5,0-1,0.4-1,1v6.5C24.7,12.4,25.1,12.9,25.7,12.9z"/>
	<path fill="#BF6C30" d="M19.5,12.9c0.5,0,1-0.4,1-1V1.5c0-0.5-0.4-1-1-1c-0.5,0-1,0.4-1,1v10.4C18.5,12.4,19,12.9,19.5,12.9z"/>
	<path fill="#BF6C30" d="M13.4,12.9c0.5,0,1-0.4,1-1V5.4c0-0.5-0.4-1-1-1c-0.5,0-1,0.4-1,1v6.5C12.4,12.4,12.8,12.9,13.4,12.9z"/>
	<path fill="none" d="M45.5,22.5c-0.1-1.1-0.5-1.8-1.2-2.2c-1.6-0.9-4.6-0.1-6,0.5c0.2,1,0.3,1.9,0.3,2.9c0,3.7-1.1,7.1-2.9,10
		C42.5,30.5,46,26.6,45.5,22.5z"/>
	<path fill="none" d="M14.9,22.4c-0.5,0.4-0.9,0.8-1.1,1.3c2.6-0.2,4.1,2,5.2,3.7c0.3,0.5,0.7,1,1,1.4c1.2,1.4,2.8,2,5.4,2
		c0.2,0,0.3,0,0.4,0.1c0.1-1.8-0.6-3.9-2-5.8C21.3,21.8,17.3,20.6,14.9,22.4z"/>
	<path fill="none" d="M18.5,30.2c-0.4-0.5-0.8-1-1.1-1.6c-1.3-1.9-2.2-3.1-3.7-2.8c-0.2,0-0.3,0-0.5,0c-0.2,1.9,0.5,4.1,2,6.1
		c2.5,3.4,6.6,4.6,9,2.8c0.6-0.5,1.1-1.1,1.3-1.8c0,0,0,0,0,0C23.2,32.8,20.5,32.5,18.5,30.2z"/>
	<path fill="#845050" d="M30.4,41.3c0,2-4.5,4.2-10.9,4.2c-6.4,0-10.9-2.2-10.9-4.2c0-0.6,0.4-1.1,0.9-1.5l-1.6-1.1
		c-1,1-1.2,2-1.2,2.7c0,3.5,5.5,6.2,12.8,6.2c7.3,0,12.8-2.7,12.8-6.2c0-0.7-0.2-1.7-1.2-2.7l-1.6,1.1C30,40.2,30.4,40.7,30.4,41.3z
		"/>
	<path fill="#4DA0D8" d="M47.4,22.3c-0.2-2.1-1.3-3.1-2.2-3.6c-2.4-1.4-5.9-0.3-7.4,0.2c-0.3-1-0.6-2-1-2.9
		c-0.2-0.3-0.5-0.6-0.9-0.6H3.1c-0.4,0-0.7,0.2-0.9,0.6c-1.1,2.4-1.7,5.1-1.7,7.7c0,6.1,2.9,11.4,7.4,14.9l1.6,1.1
		c0.3,0.2,0.6,0.4,0.9,0.5c0,0,0,0,0,0c0.5,0.3,1.1,0.5,1.6,0.8c0,0,0.1,0,0.1,0.1c0.5,0.2,1,0.4,1.5,0.5c0.1,0,0.2,0.1,0.3,0.1
		c0.6,0.2,1.1,0.3,1.7,0.4c0,0,0.1,0,0.1,0c0.5,0.1,1,0.2,1.6,0.2c0.1,0,0.3,0,0.4,0c0.6,0.1,1.2,0.1,1.7,0.1c0.6,0,1.2,0,1.7-0.1
		c0.1,0,0.3,0,0.4,0c0.5-0.1,1-0.1,1.6-0.2c0,0,0.1,0,0.1,0c0.6-0.1,1.1-0.3,1.7-0.4c0.1,0,0.2-0.1,0.3-0.1c0.5-0.2,1-0.3,1.5-0.5
		c0,0,0.1,0,0.1-0.1c0.9-0.4,1.7-0.8,2.6-1.3l1.6-1.1c0.7-0.5,1.3-1.1,1.9-1.7C43,33.2,48.1,27.9,47.4,22.3z M38.5,23.8
		c0-1-0.1-2-0.3-2.9c1.4-0.5,4.4-1.4,6-0.5c0.7,0.4,1.1,1.1,1.2,2.2c0.5,4.1-3,8-9.9,11.2C37.5,30.9,38.5,27.4,38.5,23.8z
		 M24.1,34.6c-2.4,1.8-6.4,0.6-9-2.8c-1.5-2-2.1-4.2-2-6.1c0.1,0,0.3,0.1,0.5,0c1.5-0.3,2.5,0.9,3.7,2.8c0.4,0.6,0.7,1.1,1.1,1.6
		c2,2.3,4.6,2.7,6.9,2.7c0,0,0,0,0,0C25.2,33.5,24.7,34.1,24.1,34.6z M25.4,30.9c-2.7,0-4.2-0.6-5.4-2c-0.3-0.4-0.6-0.9-1-1.4
		c-1.1-1.7-2.6-3.9-5.2-3.7c0.3-0.5,0.7-1,1.1-1.3c2.4-1.8,6.4-0.6,9,2.8c1.4,1.8,2.1,3.9,2,5.8C25.7,30.9,25.6,30.9,25.4,30.9z"/>
</g>
</svg>
