<?xml version="1.0" encoding="utf-8"?>
<!-- Generator: Adobe Illustrator 18.0.0, SVG Export Plug-In . SVG Version: 6.00 Build 0)  -->
<!DOCTYPE svg PUBLIC "-//W3C//DTD SVG 1.1//EN" "http://www.w3.org/Graphics/SVG/1.1/DTD/svg11.dtd">
<svg version="1.1" id="Layer_1" xmlns="http://www.w3.org/2000/svg" xmlns:xlink="http://www.w3.org/1999/xlink" x="0px" y="0px"
	 viewBox="0 0 48 48" enable-background="new 0 0 48 48" xml:space="preserve">
<g>
	<path fill="#465E6B" d="M25.7,11.9c-0.3,0-0.5-0.1-0.7-0.3c-0.4-0.4-0.3-1,0.1-1.4l10.8-9.5c0.4-0.4,1-0.3,1.4,0.1
		c0.4,0.4,0.3,1-0.1,1.4l-10.8,9.5C26.1,11.8,25.9,11.9,25.7,11.9z"/>
	<path fill="#F04B36" d="M29.4,16.2c-0.3,0-0.5-0.1-0.7-0.3l-7.5-8.6c-0.4-0.4-0.3-1,0.1-1.4c0.4-0.4,1-0.3,1.4,0.1l7.5,8.6
		c0.4,0.4,0.3,1-0.1,1.4C29.9,16.1,29.7,16.2,29.4,16.2z"/>
	<path fill="#F04B36" d="M26.6,21.4c-0.3,0-0.5-0.1-0.7-0.3L15.7,9.4c-0.4-0.4-0.3-1,0.1-1.4c0.4-0.4,1-0.3,1.4,0.1l10.2,11.7
		c0.4,0.4,0.3,1-0.1,1.4C27.1,21.3,26.8,21.4,26.6,21.4z"/>
	<path fill="#F04B36" d="M23.8,26.5c-0.3,0-0.5-0.1-0.7-0.3L10.2,11.5c-0.4-0.4-0.3-1,0.1-1.4c0.4-0.4,1-0.3,1.4,0.1l12.9,14.7
		c0.4,0.4,0.3,1-0.1,1.4C24.2,26.5,24,26.5,23.8,26.5z"/>
	<path fill="#F04B36" d="M18.7,29.1c-0.3,0-0.5-0.1-0.7-0.3L7,16.2c-0.4-0.4-0.3-1,0.1-1.4c0.4-0.4,1-0.3,1.4,0.1l10.9,12.5
		c0.4,0.4,0.3,1-0.1,1.4C19.1,29,18.9,29.1,18.7,29.1z"/>
	<path fill="#F04B36" d="M12.8,30.8c-0.3,0-0.5-0.1-0.7-0.3l-7.5-8.6c-0.4-0.4-0.3-1,0.1-1.4c0.4-0.4,1-0.3,1.4,0.1l7.5,8.6
		c0.4,0.4,0.3,1-0.1,1.4C13.3,30.7,13,30.8,12.8,30.8z"/>
	<path fill="#E2A14A" d="M28.8,27.6v-7.1l-0.9-0.5c0,0-0.1-0.1-0.1-0.1l-8,10.2l2.4,1.4L28.8,27.6z"/>
	<polygon fill="#E2A14A" points="36.2,40.4 36.2,33.2 29.8,29.5 23.3,33.3 23.3,40.4 29.8,44.1 	"/>
	<polygon fill="#E2A14A" points="43.7,20.5 37.3,16.8 30.9,20.5 30.9,27.7 37.5,31.5 43.7,27.9 	"/>
	<path fill="#F7A93B" d="M17.6,37.3c-0.1-1.3-0.1-2.7,0.7-4.2c0.3-0.5,0.1-1.1-0.4-1.3c-0.3-0.1-0.6-0.1-0.8,0c0,0,0,0-0.1,0
		c-3.1,1.2-8.1-1.2-8.1-1.2c-0.5-0.2-1.1,0-1.3,0.5c-0.2,0.3-0.1,0.7,0.1,0.9c0,0.1,0.1,0.2,0.1,0.3C9.1,34,8.4,35.9,7.5,38
		c-0.8,2.1-1.7,4.5-0.5,6.7c0.9,1.8,2.9,2.7,5.7,2.7c0,0,0,0,0,0c2.4,0,4.5-1.7,5.3-4.3c0.5-1.4,0.2-2.8-0.1-4.1
		C17.8,38.5,17.6,37.9,17.6,37.3z"/>
</g>
</svg>
