<?xml version="1.0" encoding="utf-8"?>
<!-- Generator: Adobe Illustrator 18.0.0, SVG Export Plug-In . SVG Version: 6.00 Build 0)  -->
<!DOCTYPE svg PUBLIC "-//W3C//DTD SVG 1.1//EN" "http://www.w3.org/Graphics/SVG/1.1/DTD/svg11.dtd">
<svg version="1.1" id="Layer_1" xmlns="http://www.w3.org/2000/svg" xmlns:xlink="http://www.w3.org/1999/xlink" x="0px" y="0px"
	 viewBox="0 0 48 48" enable-background="new 0 0 48 48" xml:space="preserve">
<g>
	<path fill="#E77528" d="M40.2,4.4H7.8c-4,0-7.3,3.4-7.3,7.6V36c0,4.2,3.3,7.6,7.3,7.6h32.3c4,0,7.3-3.4,7.3-7.6V12
		C47.5,7.8,44.2,4.4,40.2,4.4z M11.8,40.2c-3.7,0-6.6-2.9-6.6-6.5c0-3.6,3-6.5,6.6-6.5c3.7,0,6.6,2.9,6.6,6.5
		C18.4,37.3,15.5,40.2,11.8,40.2z M11.8,20.7c-3.7,0-6.6-2.9-6.6-6.5c0-3.6,3-6.5,6.6-6.5c3.7,0,6.6,2.9,6.6,6.5
		C18.4,17.9,15.5,20.7,11.8,20.7z M25,36.6c0,0.6-0.5,1-1,1c-0.6,0-1-0.4-1-1v-1.9c0-0.6,0.5-1,1-1c0.6,0,1,0.4,1,1V36.6z M25,28.8
		c0,0.5-0.5,1-1,1c-0.6,0-1-0.4-1-1v-1.9c0-0.6,0.5-1,1-1c0.6,0,1,0.4,1,1V28.8z M25,21.1c0,0.5-0.5,1-1,1c-0.6,0-1-0.4-1-1v-1.9
		c0-0.5,0.5-1,1-1c0.6,0,1,0.4,1,1V21.1z M25,13.3c0,0.5-0.5,1-1,1c-0.6,0-1-0.4-1-1v-1.9c0-0.6,0.5-1,1-1c0.6,0,1,0.4,1,1V13.3z
		 M36.2,40.2c-3.7,0-6.6-2.9-6.6-6.5c0-3.6,3-6.5,6.6-6.5c3.7,0,6.6,2.9,6.6,6.5C42.8,37.3,39.8,40.2,36.2,40.2z M36.2,20.7
		c-3.7,0-6.6-2.9-6.6-6.5c0-3.6,3-6.5,6.6-6.5c3.7,0,6.6,2.9,6.6,6.5C42.8,17.9,39.8,20.7,36.2,20.7z"/>
</g>
</svg>
