<?xml version="1.0" encoding="utf-8"?>
<!-- Generator: Adobe Illustrator 18.0.0, SVG Export Plug-In . SVG Version: 6.00 Build 0)  -->
<!DOCTYPE svg PUBLIC "-//W3C//DTD SVG 1.1//EN" "http://www.w3.org/Graphics/SVG/1.1/DTD/svg11.dtd">
<svg version="1.1" id="Layer_1" xmlns="http://www.w3.org/2000/svg" xmlns:xlink="http://www.w3.org/1999/xlink" x="0px" y="0px"
	 viewBox="0 0 48 48" enable-background="new 0 0 48 48" xml:space="preserve">
<g>
	<path fill="#0DB89A" d="M14.5,37.2c-1.2-3.7-1.1-7.6,0.1-11c1.3-3.6,3.8-6.2,7.1-7.2c1-0.3,2-0.5,3-0.5c0.7,0,1.4,0.1,2.1,0.2v-4
		c0-2.5-1.9-4.6-4.2-4.6V8.9H24c0.5,0,1-0.4,1-1V1.5c0-0.5-0.4-1-1-1H3.4c-0.5,0-1,0.4-1,1V8c0,0.5,0.4,1,1,1h1.4v1.3
		c-2.3,0-4.2,2.1-4.2,4.6v28.1c0,2.5,1.9,4.6,4.2,4.6h17.9c0.1,0,0.3,0,0.4,0C19.2,45.7,16,42,14.5,37.2z"/>
	<path fill="#89AA47" d="M32.4,18.9c4.4,1.9,7-4.8,7-4.8c-5.2-1-7,0.7-7.7,2.3C31,14.3,30,13.2,30,13.2c-0.4-0.4-1-0.4-1.4-0.1
		c-0.4,0.4-0.4,1-0.1,1.4c0.1,0.1,2.4,2.8,2.2,8.2l2-0.2C32.7,21.2,32.6,20,32.4,18.9z"/>
	<path fill="#F04B36" d="M46.7,26.9c-1.1-3-3.2-5.2-5.9-6c-2.7-0.8-5.6-0.2-8.2,1.6l-2,0.2c-2.6-1.9-5.7-2.6-8.4-1.7
		c-2.7,0.8-4.8,3-5.9,6c-1.1,2.9-1.1,6.4-0.1,9.7c1.8,5.8,6.5,9.9,11.3,9.9c0.8,0,1.7-0.1,2.4-0.4c0.5-0.1,1-0.3,1.4-0.6
		c0.5,0.2,0.9,0.4,1.4,0.6c0.8,0.2,1.6,0.4,2.4,0.4h0c4.8,0,9.5-4.1,11.3-9.9C47.8,33.3,47.8,29.9,46.7,26.9z"/>
</g>
</svg>
