<?xml version="1.0" encoding="utf-8"?>
<!-- Generator: Adobe Illustrator 18.0.0, SVG Export Plug-In . SVG Version: 6.00 Build 0)  -->
<!DOCTYPE svg PUBLIC "-//W3C//DTD SVG 1.1//EN" "http://www.w3.org/Graphics/SVG/1.1/DTD/svg11.dtd">
<svg version="1.1" id="Layer_1" xmlns="http://www.w3.org/2000/svg" xmlns:xlink="http://www.w3.org/1999/xlink" x="0px" y="0px"
	 viewBox="0 0 48 48" enable-background="new 0 0 48 48" xml:space="preserve">
<g>
	<path fill="#F7A93B" d="M43.9,7.4c-2.1-1.2-4.4-0.7-5.9-0.2c0.1-1.9,0.1-3.8,0.1-5.7c0-0.5-0.4-1-1-1H17.2v10.6l5.2,3.6
		c0.3,0.2,0.4,0.5,0.4,0.8v14.4c0,0.5-0.4,1-1,1H10.6c-0.5,0-1-0.4-1-1V15.5c0-0.3,0.2-0.6,0.4-0.8l5.2-3.8V0.5H1.5
		c-0.5,0-1,0.4-1,1c0,18.7,3.3,35.7,8.7,45.5c0.2,0.3,0.5,0.5,0.9,0.5h18.5c0.4,0,0.7-0.2,0.9-0.5c1.3-2.4,2.5-5.1,3.5-8.3
		c2.3-1.3,14.6-8.6,14.6-21.7C47.5,12,46.3,8.8,43.9,7.4z M33.8,35.9c2.2-7.5,3.6-16.6,4.1-26.5c0.8-0.4,3.2-1.4,5-0.3
		c1.7,1,2.6,3.7,2.6,7.9C45.5,26.8,37.7,33.3,33.8,35.9z"/>
</g>
</svg>
