<?xml version="1.0" encoding="utf-8"?>
<!-- Generator: Adobe Illustrator 18.0.0, SVG Export Plug-In . SVG Version: 6.00 Build 0)  -->
<!DOCTYPE svg PUBLIC "-//W3C//DTD SVG 1.1//EN" "http://www.w3.org/Graphics/SVG/1.1/DTD/svg11.dtd">
<svg version="1.1" id="Layer_1" xmlns="http://www.w3.org/2000/svg" xmlns:xlink="http://www.w3.org/1999/xlink" x="0px" y="0px"
	 viewBox="0 0 48 48" enable-background="new 0 0 48 48" xml:space="preserve">
<g>
	<path fill="#F04B36" d="M45.4,36c-1.7-6.1-4.4-10.9-8.3-14.6c-0.1-0.1-0.2-0.1-0.3-0.1l-26.2,0l-6.8-1.1c-0.1,0-0.2,0-0.3,0.1
		l-0.8,0.6c-0.2,0.1-0.2,0.4-0.1,0.6l5,8.7l1.3,8.2c0,0.2,0.2,0.4,0.4,0.4h24.8c0.2,0,0.4-0.2,0.5-0.4l1.5-9.2
		c1.3,1.3,1.6,2.5,1.8,3.6c0.3,1.3,0.6,2.4,2.2,3.5c0.7,0.5,1.6,0.7,2.5,0.7c1.4,0,2.5-0.5,2.5-0.5C45.4,36.5,45.5,36.3,45.4,36z"/>
	<path fill="#0DB89A" d="M34.5,40.9c-0.1-0.1-0.2-0.2-0.4-0.2H9.2c-0.2,0-0.3,0.1-0.4,0.2l-1.7,2.9C7.1,43.9,7,44,7,44v3
		c0,0.3,0.2,0.5,0.5,0.5h28.6c0.3,0,0.5-0.2,0.5-0.5v-3c0-0.1,0-0.2-0.1-0.3L34.5,40.9z"/>
	<path fill="#294E58" d="M7.5,15.9c0,0.1,0.1,0.2,0.1,0.3c0.6,1.2,2.2,1.9,4.6,1.9c0.2,0,0.3,0,0.5,0c-0.1,0.3-0.1,0.6-0.2,0.9h8.3
		v-7.9c-3.2,0.3-5.9,2.3-7.4,5.2c-2.5,0.2-3.9-0.2-4.2-0.8c0-0.1,0-0.2,0-0.2c0,0,0-0.1,0-0.1c0-0.1,0-0.2,0.1-0.3
		c0.1-0.1,0.2-0.3,0.3-0.5c0,0,0-0.1,0.1-0.1c0,0,0.1-0.1,0.1-0.1c0.1-0.1,0.1-0.2,0.2-0.2c0,0,0,0,0.1-0.1c0.1-0.1,0.2-0.2,0.3-0.3
		c0,0,0,0,0,0c0.8-0.8,1.9-1.7,3.5-2.5c0,0,0,0,0,0c0.2-0.1,0.5-0.3,0.7-0.4c0,0,0.1-0.1,0.1-0.1c0.2-0.1,0.4-0.2,0.7-0.3
		c0.1,0,0.2-0.1,0.2-0.1c0.2-0.1,0.4-0.2,0.7-0.3c0.1,0,0.2-0.1,0.3-0.1c0.3-0.1,0.6-0.3,0.9-0.4c2.1-0.8,4.2-1.4,6.1-1.6
		c0,0,0.1,0,0.1,0c0.3,0,0.6-0.1,0.8-0.1c0,0,0,0,0.1,0c0.3,0,0.6,0,0.8,0c2,0,2.7,0.5,2.8,0.7c0,0,0.1,0.1,0.1,0.1
		c0.3,0.6-0.7,2.1-3.2,3.7c-0.8-0.5-1.6-0.8-2.5-1V19h8c-0.7-1.8-2.2-4.1-4-5.7c2.9-2,4.1-4.1,3.3-5.7c0-0.1-0.1-0.2-0.1-0.2
		c0-0.1,0-0.1,0-0.2c-1.9-4.1-6.3-6.7-11.1-6.7c-1.6,0-3.2,0.3-4.7,0.9c-3.1,1.2-5.5,3.5-6.7,6.4c-1.1,2.6-1,5.5,0.2,8.1
		C7.4,15.9,7.5,15.9,7.5,15.9z"/>
</g>
</svg>
