<?xml version="1.0" encoding="utf-8"?>
<!-- Generator: Adobe Illustrator 18.0.0, SVG Export Plug-In . SVG Version: 6.00 Build 0)  -->
<!DOCTYPE svg PUBLIC "-//W3C//DTD SVG 1.1//EN" "http://www.w3.org/Graphics/SVG/1.1/DTD/svg11.dtd">
<svg version="1.1" id="Layer_1" xmlns="http://www.w3.org/2000/svg" xmlns:xlink="http://www.w3.org/1999/xlink" x="0px" y="0px"
	 viewBox="0 0 48 48" enable-background="new 0 0 48 48" xml:space="preserve">
<g>
	<path fill-rule="evenodd" clip-rule="evenodd" fill="#06728D" d="M36.4,19.3c-1.2,0.6-2.8,1.1-4.6,1.1c-0.8,0-1.7-0.1-2.5-0.4
		l-1.7-0.5l0.3-1.8c0.1-0.5,0.7-3.7,2.3-6.3c-1.1-0.4-2.2-1.1-3.2-2.2c-9.5,5-19.9,15.6-22.9,18.5C-0.4,32.2-0.9,40,3.7,44.4
		c4.6,4.4,12.7,3.9,17.3-0.5c3-2.9,13.5-12.6,18.5-21.7C38.5,21.7,37.3,20.8,36.4,19.3z"/>
	<path fill-rule="evenodd" clip-rule="evenodd" fill="#0DB89A" d="M47.4,1.9c0.2-0.5,0-1.1-0.4-1.3c-0.5-0.2-1.1,0-1.3,0.4
		c-1.8,3.5-4,5.7-4.9,6.5l-1.5-1.3c-3.4-4-11.5,0.5-11.5,0.5c2.1,3.8,6.7,3.5,6.7,3.5c-3.4,1.3-4.5,7.9-4.5,7.9
		c4.1,1.2,7.5-1.9,7.5-1.9c0.9,4.4,4.5,4.4,4.5,4.4c4.1-5.7,1.7-10.6,1.7-10.6l-1.4-1.2C43.4,7.9,45.6,5.6,47.4,1.9z"/>
</g>
</svg>
