<?xml version="1.0" encoding="utf-8"?>
<!-- Generator: Adobe Illustrator 18.0.0, SVG Export Plug-In . SVG Version: 6.00 Build 0)  -->
<!DOCTYPE svg PUBLIC "-//W3C//DTD SVG 1.1//EN" "http://www.w3.org/Graphics/SVG/1.1/DTD/svg11.dtd">
<svg version="1.1" id="Layer_1" xmlns="http://www.w3.org/2000/svg" xmlns:xlink="http://www.w3.org/1999/xlink" x="0px" y="0px"
	 viewBox="0 0 48 48" enable-background="new 0 0 48 48" xml:space="preserve">
<g>
	<path fill="#4DA0D8" d="M46,32.4c-0.1-0.4-0.5-0.7-0.9-0.7H2.9c-0.4,0-0.8,0.3-0.9,0.7c-0.1,0.3-0.1,0.5-0.1,0.8v5.5
		c0,4.9,4.1,8.9,9.2,8.9h25.7c5.1,0,9.2-4,9.2-8.9v-5.5C46.1,32.9,46.1,32.7,46,32.4z"/>
	<path fill="#E77528" d="M45.8,28.9c-2-4.5-13.4-7.4-17.2-7.4h-3.6V8.4c0-3.3,2.9-6.1,6.4-6.1c3.5,0,6.4,2.7,6.4,6.1
		c0,0.5,0.4,0.9,0.9,0.9c0.5,0,0.9-0.4,0.9-0.9c0-4.4-3.7-7.9-8.2-7.9c-4.5,0-8.2,3.5-8.2,7.9v13.1h-3.6c-3.8,0-15.2,2.9-17.2,7.4
		H45.8z"/>
	<path fill="#EEB04B" d="M17.7,18.4c0.5,0,0.9-0.4,0.9-0.9v-6.5c0-0.5-0.4-0.9-0.9-0.9c-0.5,0-0.9,0.4-0.9,0.9v6.5
		C16.8,18,17.2,18.4,17.7,18.4z"/>
	<path fill="#EEB04B" d="M29.4,10.9v6.5c0,0.5,0.4,0.9,0.9,0.9c0.5,0,0.9-0.4,0.9-0.9v-6.5c0-0.5-0.4-0.9-0.9-0.9
		C29.8,10,29.4,10.4,29.4,10.9z"/>
</g>
</svg>
