<?xml version="1.0" encoding="utf-8"?>
<!-- Generator: Adobe Illustrator 18.0.0, SVG Export Plug-In . SVG Version: 6.00 Build 0)  -->
<!DOCTYPE svg PUBLIC "-//W3C//DTD SVG 1.1//EN" "http://www.w3.org/Graphics/SVG/1.1/DTD/svg11.dtd">
<svg version="1.1" id="Layer_1" xmlns="http://www.w3.org/2000/svg" xmlns:xlink="http://www.w3.org/1999/xlink" x="0px" y="0px"
	 viewBox="0 0 48 48" enable-background="new 0 0 48 48" xml:space="preserve">
<g>
	<path fill="#0DB89A" d="M36.1,7.4c-1,0-1.9,0.1-2.8,0.3c-0.8-4.1-4.6-7.2-9.2-7.2c-4.6,0-8.5,3.1-9.2,7.2c-0.9-0.2-1.8-0.3-2.8-0.3
		c-6.3,0-11.4,4.8-11.4,10.7s5.1,10.7,11.4,10.7c1.5,0,3-0.3,4.3-0.8c1.7,2.3,4.5,3.9,7.8,3.9c3.2,0,6.1-1.5,7.8-3.9
		c1.3,0.5,2.8,0.8,4.3,0.8c6.3,0,11.4-4.8,11.4-10.7S42.4,7.4,36.1,7.4z"/>
	<path fill="#F7A93B" d="M32.6,31c-2.2,2.2-5.3,3.5-8.6,3.5c-3.3,0-6.4-1.3-8.6-3.5c-1.1,0.3-2.3,0.4-3.4,0.4
		c-2.5,0-4.8-0.6-6.8-1.7l3.9,17.8h29.9l3.9-17.8c-2,1.1-4.3,1.7-6.8,1.7C34.9,31.4,33.7,31.2,32.6,31z"/>
</g>
</svg>
