<?xml version="1.0" encoding="utf-8"?>
<!-- Generator: Adobe Illustrator 18.0.0, SVG Export Plug-In . SVG Version: 6.00 Build 0)  -->
<!DOCTYPE svg PUBLIC "-//W3C//DTD SVG 1.1//EN" "http://www.w3.org/Graphics/SVG/1.1/DTD/svg11.dtd">
<svg version="1.1" id="Layer_1" xmlns="http://www.w3.org/2000/svg" xmlns:xlink="http://www.w3.org/1999/xlink" x="0px" y="0px"
	 viewBox="0 0 48 48" enable-background="new 0 0 48 48" xml:space="preserve">
<g>
	<path fill="#C9C7C7" d="M24,3.2C11,3.2,0.5,13.8,0.5,26.7c0,0.5,0.4,1,1,1c0.5,0,1-0.4,1-1C2.5,14.9,12.1,5.2,24,5.2
		c11.9,0,21.5,9.7,21.5,21.5c0,0.5,0.4,1,1,1c0.5,0,1-0.4,1-1C47.5,13.8,37,3.2,24,3.2z"/>
	<path fill="#0DB89A" d="M24,8.7c-9.9,0-18,8.1-18,18s8.1,18,18,18s18-8.1,18-18S33.9,8.7,24,8.7z M25,26.7c0,0.5-0.4,1-1,1
		c-0.5,0-1-0.4-1-1V11.9c0-0.5,0.4-1,1-1c0.5,0,1,0.4,1,1V26.7z"/>
</g>
</svg>
