<?xml version="1.0" encoding="utf-8"?>
<!-- Generator: Adobe Illustrator 18.0.0, SVG Export Plug-In . SVG Version: 6.00 Build 0)  -->
<!DOCTYPE svg PUBLIC "-//W3C//DTD SVG 1.1//EN" "http://www.w3.org/Graphics/SVG/1.1/DTD/svg11.dtd">
<svg version="1.1" id="Layer_1" xmlns="http://www.w3.org/2000/svg" xmlns:xlink="http://www.w3.org/1999/xlink" x="0px" y="0px"
	 viewBox="0 0 48 48" enable-background="new 0 0 48 48" xml:space="preserve">
<g>
	<path fill="#4DA0D8" d="M47.2,40.6L4.3,17c-0.2-0.1-0.5,0-0.7,0.2l-3,5.5c-0.1,0.1-0.1,0.3,0,0.4c0,0.1,0.1,0.2,0.2,0.3l12.9,6.9
		l1.8,6.4c0,0.1,0.1,0.2,0.2,0.3c8.1,5.5,15.3,8.3,21.5,8.3c7.2,0,10.2-3.8,10.3-4c0.1-0.1,0.1-0.3,0.1-0.4
		C47.5,40.8,47.4,40.7,47.2,40.6z"/>
	<polygon fill="#06728D" points="44,3 15.5,9.3 27.3,12.3 	"/>
	<path fill="#E77528" d="M27.9,28.4l5.1,2.8l13.8-8.2V2.7L27.9,13.2V28.4z M40.9,12.3c1,0,1.8,0.8,1.8,1.8c0,1-0.8,1.8-1.8,1.8
		c-1,0-1.8-0.8-1.8-1.8C39.1,13.1,39.9,12.3,40.9,12.3z M39.5,21.1c0.5,0,0.9,0.4,0.9,0.9c0,0.5-0.4,0.9-0.9,0.9
		c-0.5,0-0.9-0.4-0.9-0.9C38.6,21.5,39,21.1,39.5,21.1z M32.5,16.9c1.4,0,2.6,1.2,2.6,2.6c0,1.4-1.2,2.6-2.6,2.6
		c-1.4,0-2.6-1.2-2.6-2.6C29.9,18.1,31,16.9,32.5,16.9z"/>
	<polygon fill="#FFD69A" points="26.8,13.3 13.7,10 13.7,20.6 26.8,27.8 	"/>
</g>
</svg>
