<?xml version="1.0" encoding="utf-8"?>
<!-- Generator: Adobe Illustrator 18.0.0, SVG Export Plug-In . SVG Version: 6.00 Build 0)  -->
<!DOCTYPE svg PUBLIC "-//W3C//DTD SVG 1.1//EN" "http://www.w3.org/Graphics/SVG/1.1/DTD/svg11.dtd">
<svg version="1.1" id="Layer_1" xmlns="http://www.w3.org/2000/svg" xmlns:xlink="http://www.w3.org/1999/xlink" x="0px" y="0px"
	 viewBox="0 0 48 48" enable-background="new 0 0 48 48" xml:space="preserve">
<g>
	<path fill="#CFD0D1" d="M10.9,30.4c-1.1,0-2,0.4-2.7,1.1c-1.8,1.8-1.3,5,1,7.3c1.3,1.3,3,2.1,4.6,2.1c1.1,0,2-0.4,2.7-1.1
		c1.8-1.8,1.3-5-1-7.3C14.2,31.1,12.5,30.4,10.9,30.4z"/>
	<path fill="#E8B944" d="M47.4,7.3c-0.1-0.2-1.3-2.4-3.3-2.7c-0.2,0-0.4-0.1-0.7,0c0-0.3,0-0.5,0-0.7c-0.3-2-2.5-3.1-2.7-3.3
		c-0.5-0.3-1.1-0.1-1.3,0.4c-0.3,0.5-0.1,1.1,0.4,1.3c0.4,0.2,1.5,1,1.7,1.9c0,0.2,0.1,0.6-0.5,1.3c-0.1,0.1-0.2,0.2-0.2,0.4
		c0,0-0.1,0-0.1,0.1l-3.9,3.9l-0.2-0.2c-0.2-0.2-0.5-0.3-0.7-0.3C18,10.3,4.7,24.2,3.9,25c-0.4,0.3-0.8,0.6-1.2,1
		c-1.9,1.9-2.6,4.7-2.1,7.9c0.5,3.1,2.2,6.2,4.8,8.7c3.1,3.1,7.1,4.9,10.7,4.9c2.4,0,4.4-0.8,5.9-2.3c0.3-0.3,0.6-0.7,0.9-1.1
		c0,0,0,0,0,0c0.6-0.6,14.7-13.9,15.6-31.8c0-0.3-0.1-0.5-0.3-0.7l-0.2-0.2L42,7.4c0,0,0-0.1,0.1-0.1c0.1,0,0.3-0.1,0.4-0.2
		c0.7-0.6,1.2-0.5,1.3-0.5c0.9,0.2,1.7,1.3,1.9,1.7c0.2,0.3,0.5,0.5,0.9,0.5c0.2,0,0.3,0,0.5-0.1C47.5,8.4,47.6,7.8,47.4,7.3z
		 M16.2,45.5c-3.1,0-6.6-1.6-9.3-4.4c-2.2-2.3-3.7-5-4.2-7.6c-0.5-2.5,0.1-4.7,1.5-6.2c0.3-0.3,0.6-0.6,1-0.8c0,0,0,0,0,0
		c0.1,0,0.1-0.1,0.2-0.1c0.2-0.1,0.4-0.2,0.6-0.3C6.1,26.1,6.3,26,6.5,26c0.2-0.1,0.4-0.1,0.5-0.1c0.2,0,0.4-0.1,0.5-0.1
		c0.2,0,0.5,0,0.7-0.1c0.1,0,0.3,0,0.4,0c3.1,0,6.6,1.6,9.3,4.4c0.3,0.3,0.5,0.5,0.8,0.8c0.2,0.2,0.3,0.3,0.4,0.5
		c0.1,0.1,0.1,0.2,0.2,0.3c2.9,3.8,3.8,8.3,2.1,11.2c0,0,0,0,0,0c-0.2,0.4-0.5,0.7-0.8,1C19.6,45,18,45.5,16.2,45.5z"/>
</g>
</svg>
