<?xml version="1.0" encoding="utf-8"?>
<!-- Generator: Adobe Illustrator 18.0.0, SVG Export Plug-In . SVG Version: 6.00 Build 0)  -->
<!DOCTYPE svg PUBLIC "-//W3C//DTD SVG 1.1//EN" "http://www.w3.org/Graphics/SVG/1.1/DTD/svg11.dtd">
<svg version="1.1" id="Layer_1" xmlns="http://www.w3.org/2000/svg" xmlns:xlink="http://www.w3.org/1999/xlink" x="0px" y="0px"
	 viewBox="0 0 48 48" enable-background="new 0 0 48 48" xml:space="preserve">
<g>
	<path fill="#06728D" d="M24,0.5C6,0.5,5.4,28.6,5.4,28.9c0,0.3,0.1,0.5,0.3,0.7c0.2,0.2,0.4,0.3,0.7,0.3h11.8c0,0,0,0,0,0h2
		c0,0,0,0,0,0h7.6c0,0,0,0,0,0h2c0,0,0,0,0,0h11.8c0.3,0,0.5-0.1,0.7-0.3c0.2-0.2,0.3-0.4,0.3-0.7C42.6,28.6,42,0.5,24,0.5z"/>
	<path fill="#4DA0D8" d="M30.7,33h-2.1h-9.3h-1.9h-0.2c-0.7,4.3-1.9,8.8-4,12.1c-0.3,0.4-0.3,1-0.2,1.5c0.2,0.5,0.5,0.8,0.9,0.8H34
		c0.4,0,0.8-0.3,0.9-0.8c0.2-0.5,0.1-1.1-0.2-1.5C32.6,41.9,31.4,37.3,30.7,33z"/>
</g>
</svg>
