<?xml version="1.0" encoding="utf-8"?>
<!-- Generator: Adobe Illustrator 18.0.0, SVG Export Plug-In . SVG Version: 6.00 Build 0)  -->
<!DOCTYPE svg PUBLIC "-//W3C//DTD SVG 1.1//EN" "http://www.w3.org/Graphics/SVG/1.1/DTD/svg11.dtd">
<svg version="1.1" id="Layer_1" xmlns="http://www.w3.org/2000/svg" xmlns:xlink="http://www.w3.org/1999/xlink" x="0px" y="0px"
	 viewBox="0 0 48 48" enable-background="new 0 0 48 48" xml:space="preserve">
<g>
	<path fill="#F04B36" d="M31.3,13.3c0.6-2.2,2.1-6.2,4.5-7.6c0.4-0.2,0.6-0.7,0.4-1.1c-0.1-0.4-0.6-0.7-1-0.7
		c-0.6,0-4.9,0.4-7.8,2.2c-0.3-1.6-1.1-4-2.8-5.4c0,0-0.1,0-0.1-0.1c-0.1,0-0.1-0.1-0.2-0.1c-0.1,0-0.1,0-0.2,0c-0.1,0-0.1,0-0.2,0
		c-0.1,0-0.1,0-0.2,0c-0.1,0-0.1,0-0.2,0c-0.1,0-0.1,0.1-0.2,0.1c0,0-0.1,0-0.1,0.1c-1.7,1.4-2.5,3.8-2.8,5.4
		c-2.8-1.8-7.2-2.2-7.8-2.2c-0.5,0-0.9,0.2-1,0.7c-0.1,0.4,0,0.9,0.4,1.1c2.6,1.5,4,5.8,4.5,7.6c-6.5,2.9-10.6,9.2-10.6,16.3
		c0,9.8,8,17.9,17.9,17.9s17.9-8,17.9-17.9C41.9,22.5,37.7,16.2,31.3,13.3z M16.9,32.5c-0.8,0-1.4-0.6-1.4-1.4
		c0-0.8,0.6-1.4,1.4-1.4c0.8,0,1.4,0.6,1.4,1.4C18.3,31.8,17.7,32.5,16.9,32.5z M24,40.9c-0.8,0-1.4-0.6-1.4-1.4
		c0-0.8,0.6-1.4,1.4-1.4c0.8,0,1.4,0.6,1.4,1.4C25.4,40.2,24.8,40.9,24,40.9z M24,24.1c-0.8,0-1.4-0.6-1.4-1.4
		c0-0.8,0.6-1.4,1.4-1.4c0.8,0,1.4,0.6,1.4,1.4C25.4,23.5,24.8,24.1,24,24.1z M31.1,32.5c-0.8,0-1.4-0.6-1.4-1.4
		c0-0.8,0.6-1.4,1.4-1.4c0.8,0,1.4,0.6,1.4,1.4C32.4,31.8,31.8,32.5,31.1,32.5z"/>
</g>
</svg>
