<?xml version="1.0" encoding="utf-8"?>
<!-- Generator: Adobe Illustrator 18.0.0, SVG Export Plug-In . SVG Version: 6.00 Build 0)  -->
<!DOCTYPE svg PUBLIC "-//W3C//DTD SVG 1.1//EN" "http://www.w3.org/Graphics/SVG/1.1/DTD/svg11.dtd">
<svg version="1.1" id="Layer_1" xmlns="http://www.w3.org/2000/svg" xmlns:xlink="http://www.w3.org/1999/xlink" x="0px" y="0px"
	 viewBox="0 0 48 48" enable-background="new 0 0 48 48" xml:space="preserve">
<g>
	<path fill="#06728D" d="M1.6,37.5c2.6,5.8,11.7,10,22.4,10c10.7,0,19.8-4.2,22.4-10H1.6z"/>
	<path fill="#0DB89A" d="M3.1,13c0.1,0,0.3,0,0.4-0.1l1.3-0.6c0.3,0.7,0.6,1.6,0.9,2.6l-1.2,0.6C4,15.7,3.8,16.3,4,16.8
		c0.2,0.4,0.5,0.6,0.9,0.6c0.1,0,0.3,0,0.4-0.1l0.8-0.4c0.1,1,0.2,2,0.1,3c-0.4,0.3-0.6,0.8-0.4,1.2c0,0.1,0.1,0.1,0.1,0.2
		c0,0.2-0.1,0.4-0.2,0.6c-0.2,0.5,0.1,1.1,0.6,1.2c0.1,0,0.2,0,0.3,0c0.4,0,0.8-0.3,0.9-0.7c0.1-0.4,0.2-0.9,0.3-1.3l1.4-0.6
		c0,0.4,0.3,0.8,0.7,0.9c0.1,0,0.2,0,0.3,0c0.4,0,0.8-0.3,0.9-0.7c0.1-0.4,0.2-0.9,0.3-1.3l1.4-0.6c0,0.4,0.3,0.8,0.7,0.9
		c0.1,0,0.2,0,0.3,0c0.4,0,0.8-0.3,0.9-0.7c0.1-0.3,0.1-0.5,0.2-0.8c0.7,1,2.2,2.9,4.5,3.5c0.1,0,0.2,0,0.3,0c0.4,0,0.8-0.3,0.9-0.7
		c0.1-0.5-0.2-1.1-0.7-1.2c-1.9-0.5-3.1-2.3-3.6-2.9c1.6-1.4,2.4-3.6,1.9-5.8l19.2-8.9C38,2.1,38.2,1.6,38,1.1
		c-0.2-0.5-0.8-0.7-1.3-0.5L17.6,9.4c-0.6-1-1.5-1.8-2.6-2.2c-0.6-0.2-1.2-0.3-1.8-0.3c-0.4-0.9-0.8-1.4-0.8-1.5
		C12.1,5,11.5,4.9,11,5.1c-0.5,0.3-0.6,0.9-0.3,1.3c0,0,0.2,0.3,0.5,0.8c-0.1,0-0.2,0.1-0.3,0.1L9.4,8.1C9,7.5,8.8,7.2,8.8,7.1
		C8.5,6.6,7.9,6.5,7.4,6.8C7,7.1,6.9,7.7,7.1,8.1c0,0,0.2,0.3,0.4,0.8L5.8,9.7c-0.3-0.6-0.5-0.9-0.6-1C4.9,8.3,4.3,8.2,3.9,8.5
		C3.4,8.8,3.3,9.4,3.6,9.8c0,0,0.2,0.3,0.4,0.8l-1.3,0.6C2.2,11.4,2,12,2.2,12.5C2.4,12.8,2.8,13,3.1,13z M15.4,15.4
		c0-0.9-0.1-1.8-0.2-2.7l1.4-0.6C16.7,13.3,16.2,14.6,15.4,15.4z M14.2,9.1c0.6,0.2,1.1,0.7,1.5,1.2l-1.1,0.5
		c-0.2-0.6-0.4-1.2-0.6-1.7C14.2,9,14.2,9.1,14.2,9.1z M13.3,13.6c0.1,1,0.2,2,0.1,3l-1.6,0.7c0-1-0.1-2-0.2-2.9L13.3,13.6z
		 M11.7,9.1c0.1,0,0.2-0.1,0.3-0.1c0.3,0.7,0.6,1.6,0.9,2.6l-1.8,0.8c-0.3-1-0.6-1.8-0.9-2.6L11.7,9.1z M9.7,15.2c0.1,1,0.2,2,0.1,3
		l-1.6,0.7c0-1-0.1-2-0.2-2.9L9.7,15.2z M8.4,10.7c0.3,0.7,0.6,1.6,0.9,2.6l-1.8,0.8c-0.3-1-0.6-1.8-0.9-2.6L8.4,10.7z"/>
	<path fill="#E8B944" d="M16.8,35h2c0-0.2,0-0.4,0-0.5c0-1.9-1.4-3.4-3.2-3.4c-1.8,0-3.2,1.5-3.2,3.4c0,0.2,0,0.4,0,0.5h2
		c0,0,0-0.1,0-0.1c0-0.1-0.1-0.3-0.1-0.4c0-0.8,0.6-1.4,1.3-1.4c0.7,0,1.3,0.6,1.3,1.4c0,0.1,0,0.3-0.1,0.4
		C16.8,34.9,16.8,35,16.8,35z"/>
	<path fill="#E8B944" d="M23.1,35c0-0.1,0-0.1,0-0.2c0-4.4-3.4-7.9-7.5-7.9c-4.2,0-7.5,3.6-7.5,7.9C8,34.9,8,35,8,35H10
		c0-0.1,0-0.1,0-0.2c0-3.3,2.5-6,5.6-6c3.1,0,5.6,2.7,5.6,6c0,0.1,0,0.1,0,0.2H23.1z"/>
	<path fill="#E8B944" d="M33.3,26c-1.5,0-2.8,1.3-2.8,2.9c0,1.6,1.2,2.9,2.8,2.9c1.5,0,2.8-1.3,2.8-2.9C36.1,27.2,34.8,26,33.3,26z
		 M33.3,29.8c-0.5,0-0.8-0.4-0.8-0.9c0-0.5,0.4-0.9,0.8-0.9c0.5,0,0.8,0.4,0.8,0.9C34.1,29.4,33.8,29.8,33.3,29.8z"/>
	<path fill="#E8B944" d="M33.3,21.5c-3.9,0-7,3.3-7,7.4c0,2.6,1.3,4.9,3.2,6.2h7.6c1.9-1.3,3.2-3.6,3.2-6.2
		C40.3,24.8,37.2,21.5,33.3,21.5z M33.3,34.3c-2.8,0-5.1-2.4-5.1-5.4c0-3,2.3-5.4,5.1-5.4c2.8,0,5.1,2.4,5.1,5.4
		C38.4,31.8,36.1,34.3,33.3,34.3z"/>
	<path fill="#E8B944" d="M22.3,25.2c-1.9-1.4-4.2-2.3-6.7-2.3C9.2,22.9,4.1,28.4,4,35H6c0-5.6,4.3-10.1,9.6-10.1
		c5.3,0,9.5,4.5,9.6,10.1h1.9c0-3.2-1.2-6.1-3.2-8.3c0.9-4.7,4.8-8.1,9.4-8.1c5.3,0,9.6,4.6,9.6,10.2c0,2.2-0.7,4.4-2,6.2h2.3
		c1-1.9,1.6-4,1.6-6.2c0-6.7-5.2-12.2-11.6-12.2C28.2,16.7,23.8,20.2,22.3,25.2z"/>
</g>
</svg>
