<?xml version="1.0" encoding="utf-8"?>
<!-- Generator: Adobe Illustrator 18.0.0, SVG Export Plug-In . SVG Version: 6.00 Build 0)  -->
<!DOCTYPE svg PUBLIC "-//W3C//DTD SVG 1.1//EN" "http://www.w3.org/Graphics/SVG/1.1/DTD/svg11.dtd">
<svg version="1.1" id="Layer_1" xmlns="http://www.w3.org/2000/svg" xmlns:xlink="http://www.w3.org/1999/xlink" x="0px" y="0px"
	 viewBox="0 0 48 48" enable-background="new 0 0 48 48" xml:space="preserve">
<g>
	<circle fill="#845050" cx="3.6" cy="40.4" r="1"/>
	<circle fill="#845050" cx="7.7" cy="46" r="1"/>
	<circle fill="#845050" cx="1.5" cy="46.5" r="1"/>
	<path fill="#4DA0D8" d="M46.7,15.6L32.5,1.3c-1.2-1.2-2.9-1.1-3.9,0.3l-19,24.8c-0.3,0.4-0.4,0.8-0.5,1.2c0.1,0.7,0.4,1.4,0.9,2
		l8.7,8.7c0.5,0.5,1.3,0.9,2,0.9c0.4-0.1,0.8-0.3,1.2-0.5l24.7-19.1C47.7,18.5,47.9,16.7,46.7,15.6z"/>
	<path fill="#99BF5B" d="M8.5,30.9c-0.3-0.3-0.6-0.7-0.8-1c-2.1,2.9-1.8,7,0.8,9.7c2.6,2.6,6.7,2.9,9.7,0.8c-0.4-0.2-0.7-0.5-1-0.8
		L8.5,30.9z"/>
</g>
</svg>
