<?xml version="1.0" encoding="utf-8"?>
<!-- Generator: Adobe Illustrator 18.0.0, SVG Export Plug-In . SVG Version: 6.00 Build 0)  -->
<!DOCTYPE svg PUBLIC "-//W3C//DTD SVG 1.1//EN" "http://www.w3.org/Graphics/SVG/1.1/DTD/svg11.dtd">
<svg version="1.1" id="Layer_1" xmlns="http://www.w3.org/2000/svg" xmlns:xlink="http://www.w3.org/1999/xlink" x="0px" y="0px"
	 viewBox="0 0 48 48" enable-background="new 0 0 48 48" xml:space="preserve">
<g>
	<path fill="#FFCD74" d="M46.2,44.9h-2.4v-4.1c-2.3-0.4-4.4-1.8-5.4-3.7c-0.6-1.1-0.6-2.1-0.6-3.1c0-0.6,0-1.2-0.2-1.7
		c-0.1-0.2-0.2-0.6-0.5-0.7c-0.2-0.1-0.7,0.1-1.1,0.5c-0.7,0.7-1.2,1.6-1.8,2.6c-0.3,0.6-0.7,1.2-1,1.7c-1.3,1.9-2.6,2.9-4.5,3.9
		c-1.6,0.7-4,0.8-5.3-0.6c-0.7-0.8-1-1.9-1.3-2.9c-0.1-0.4-0.2-0.9-0.4-1.2c-0.2-0.5-0.3-1-0.4-1.6c-0.2-1.1-0.4-1.7-1-2
		C20.1,32,20,32,19.9,32c-0.4,0.1-0.9,0.7-1.4,1.8c-0.3,0.6-0.5,1.2-0.7,1.9c-0.3,1.1-0.7,2.2-1.5,3.2c-1.3,1.6-2.9,2.4-4.5,2.4
		c-0.1,0-0.1,0-0.2,0c-1.7-0.1-3.7-0.8-4.4-2.4c-0.4-1-0.4-2.2-0.3-3.4c0-0.3,0-0.6,0-0.9l0-0.7c0-1.4,0-2.8-0.6-3.8
		c-0.5-0.8-1.4-1.6-2.2-1.9v16.7H1.8c-0.7,0-1.3,0.6-1.3,1.3c0,0.7,0.6,1.3,1.3,1.3h44.3c0.7,0,1.3-0.6,1.3-1.3
		C47.5,45.5,46.9,44.9,46.2,44.9z"/>
	<path fill="#F04B36" d="M12.3,10.9c1,0,3.8,0,5,0.6c0.1,0,0.2,0.1,0.3,0.1c-0.6,2.2-0.4,4.7,0.7,7h17.8c0.7-3.8-1.1-8.1-4.7-10.6
		c-4-2.9-8.9-2.7-11.8,0.2c-0.2-0.8-1.1-4,0.4-6.2c0.3-0.4,0.2-1-0.3-1.3c-0.4-0.3-1-0.2-1.3,0.3c-1.8,2.7-1.1,6.1-0.7,7.5
		c-2.9-1.8-4.8-6.1-4.9-6.1c-0.2-0.5-0.8-0.7-1.3-0.5C11.1,2,10.8,2.5,11,3c0.1,0.2,1.7,3.8,4.5,6.1c-1-0.1-2.1-0.1-3.2-0.1
		c-0.2,0-0.3,0-0.4,0c-0.4-0.1-0.8,0.1-1,0.4c-0.2,0.3-0.2,0.7,0,0.9C11.2,10.9,11.6,10.9,12.3,10.9z M30.7,14.7l0.6,0
		c0.5,0,0.9,0.5,0.9,1c0,0.5-0.4,0.9-1,0.9c0,0,0,0,0,0l-0.6,0c-0.5,0-0.9-0.5-0.9-1C29.8,15.1,30.2,14.7,30.7,14.7z M26.4,9.9
		l0.6,0c0.5,0,0.9,0.5,0.9,1c0,0.5-0.4,0.9-1,0.9c0,0,0,0,0,0l-0.6,0c-0.5,0-0.9-0.5-0.9-1C25.4,10.2,25.9,9.8,26.4,9.9z M22.1,14.3
		l0.6,0c0.5,0,0.9,0.5,0.9,1c0,0.5-0.5,0.9-1,0.9c0,0,0,0,0,0l-0.6,0c-0.5,0-0.9-0.5-0.9-1C21.2,14.7,21.6,14.3,22.1,14.3z"/>
	<path fill="#E77528" d="M8,29.1c0.9,1.4,0.9,3.2,0.9,4.8l0,0.7c0,0.3,0,0.7,0,1c0,0.9-0.1,1.9,0.2,2.5c0.3,0.8,1.6,1.2,2.7,1.3
		c1.1,0,2.2-0.5,3.2-1.7c0.6-0.7,0.8-1.6,1.1-2.5c0.2-0.7,0.4-1.5,0.8-2.2c0.5-1.1,1.3-2.3,2.5-2.7c0.6-0.2,1.2-0.1,1.9,0.2
		c1.5,0.7,1.8,2.2,2,3.3c0.1,0.5,0.2,0.9,0.3,1.2c0.2,0.4,0.3,0.9,0.4,1.4c0.2,0.8,0.4,1.6,0.9,2.1c0.6,0.7,2.1,0.6,3.1,0.2
		c1.6-0.8,2.7-1.6,3.8-3.2c0.3-0.5,0.6-1,1-1.6c0.6-1.1,1.2-2.1,2.1-3c0.9-0.9,2-1.2,3-1c0.5,0.1,1.5,0.6,1.9,2
		c0.2,0.8,0.2,1.5,0.2,2.3c0,0.8,0,1.6,0.3,2.2c0.7,1.3,2.1,2.3,3.7,2.6V21.8c0-0.5-0.4-0.9-1-0.9H5.2c-0.5,0-1,0.4-1,0.9v4.5
		C5.7,26.6,7.2,27.9,8,29.1z"/>
</g>
</svg>
