<?xml version="1.0" encoding="utf-8"?>
<!-- Generator: Adobe Illustrator 18.0.0, SVG Export Plug-In . SVG Version: 6.00 Build 0)  -->
<!DOCTYPE svg PUBLIC "-//W3C//DTD SVG 1.1//EN" "http://www.w3.org/Graphics/SVG/1.1/DTD/svg11.dtd">
<svg version="1.1" id="Layer_1" xmlns="http://www.w3.org/2000/svg" xmlns:xlink="http://www.w3.org/1999/xlink" x="0px" y="0px"
	 viewBox="0 0 48 48" enable-background="new 0 0 48 48" xml:space="preserve">
<g>
	<path fill="#C9C7C7" d="M23.5,42.6c10.9,0,20-7.8,21.8-18.2H1.7C3.5,34.8,12.6,42.6,23.5,42.6z"/>
	<path fill="#C4B98C" d="M14.8,14c-3.3,2.4-5.6,5.5-6.3,8.3h6.4l14.1-10C26.1,9.6,20,10.3,14.8,14z"/>
	<path fill="#C4B98C" d="M28.3,22.3c2.1-3,2.9-6.2,1.8-8.5l-11.9,8.5H28.3z"/>
	<path fill="#4DA0D8" d="M45.9,1.4c-0.7-1-2-1.2-3-0.5L33,8c-0.7,0.5-1,1.3-0.9,2.1L29,12.3c0.2,0.2,0.5,0.4,0.6,0.7
		c0.2,0.3,0.3,0.5,0.5,0.8l3.1-2.2c0.3,0.2,0.7,0.3,1,0.3c0.4,0,0.9-0.1,1.2-0.4l9.9-7.1C46.3,3.7,46.5,2.4,45.9,1.4z"/>
	<path fill="#C9862A" d="M41.9,44.9H5.1c-0.7,0-1.3,0.6-1.3,1.3c0,0.7,0.6,1.3,1.3,1.3h36.8c0.7,0,1.3-0.6,1.3-1.3
		C43.2,45.5,42.6,44.9,41.9,44.9z"/>
	<path fill="#9979AA" d="M2.7,12.4c0.1,0.1,2.4,1.6,2.1,4c-0.1,0.5,0.3,1,0.8,1.1c0,0,0.1,0,0.1,0c0.5,0,0.9-0.3,0.9-0.8
		c0.5-3.7-2.8-5.8-3-5.9c-0.4-0.3-1-0.1-1.3,0.3C2.1,11.6,2.3,12.2,2.7,12.4z"/>
	<path fill="#9979AA" d="M8.2,9.6c0,0.5,0.4,1,0.9,1c0,0,0,0,0.1,0c0.5,0,0.9-0.4,0.9-0.9C10.2,8,9.3,6.8,8.8,6.4
		c-0.4-0.3-1-0.2-1.3,0.2C7.2,7.1,7.3,7.7,7.7,8C7.7,8,8.3,8.5,8.2,9.6z"/>
</g>
</svg>
