<?xml version="1.0" encoding="utf-8"?>
<!-- Generator: Adobe Illustrator 18.0.0, SVG Export Plug-In . SVG Version: 6.00 Build 0)  -->
<!DOCTYPE svg PUBLIC "-//W3C//DTD SVG 1.1//EN" "http://www.w3.org/Graphics/SVG/1.1/DTD/svg11.dtd">
<svg version="1.1" id="Layer_1" xmlns="http://www.w3.org/2000/svg" xmlns:xlink="http://www.w3.org/1999/xlink" x="0px" y="0px"
	 viewBox="0 0 48 48" enable-background="new 0 0 48 48" xml:space="preserve">
<g>
	<path fill="#06728D" d="M46.6,29.7c0.8-1.7,1.2-4.1-0.8-6L0.5,32.5l0.7,6.4l44.7-8.1C46.2,30.4,46.4,30.1,46.6,29.7z"/>
	<path fill="#FFD69A" d="M45.7,32.8l-44.2,8l0.8,6.7l39-5.4c0,0,1.5-0.2,1.9-0.3C46.7,41,49.5,35.6,45.7,32.8z"/>
	<path fill="#0DB89A" d="M43.4,22.1L23.8,10.8l-0.7,0.6c-1.4-1.7-3.3-2.7-5.5-2.9c-0.1,0-0.3,0-0.4,0c-0.8-4.8-4.6-7.7-4.8-7.8
		C12,0.4,11.4,0.5,11,0.9c-0.3,0.4-0.3,1.1,0.2,1.4c0,0,3.2,2.4,4,6.4C11.7,9.4,9,12.3,8.6,16c-0.2,2.5,0.6,4.8,2.1,6.5l-8.6,7.7
		L43.4,22.1z M10.7,16.2c0.3-3.2,3-5.7,6.1-5.7c0.2,0,0.4,0,0.6,0c1.6,0.2,3.1,1,4.1,2.2c1.1,1.3,1.6,3,1.4,4.7
		c-0.3,3.5-3.3,6-6.8,5.7C12.8,22.8,10.3,19.7,10.7,16.2z"/>
</g>
</svg>
