<?xml version="1.0" encoding="utf-8"?>
<!-- Generator: Adobe Illustrator 18.0.0, SVG Export Plug-In . SVG Version: 6.00 Build 0)  -->
<!DOCTYPE svg PUBLIC "-//W3C//DTD SVG 1.1//EN" "http://www.w3.org/Graphics/SVG/1.1/DTD/svg11.dtd">
<svg version="1.1" id="Layer_1" xmlns="http://www.w3.org/2000/svg" xmlns:xlink="http://www.w3.org/1999/xlink" x="0px" y="0px"
	 viewBox="0 0 48 48" enable-background="new 0 0 48 48" xml:space="preserve">
<g>
	<path fill="#E77528" d="M46.5,22.5H45v-1.3H2.5v1.3h-1c-0.5,0-1,0.4-1,1v2.3c0,0.3,0.1,0.5,0.3,0.7l1.7,1.7l2,10.8
		c0.1,3.1,2.6,5.7,5.8,5.7h26.8c3.2,0,5.7-2.5,5.8-5.7l2-10.8l2.2-1.6c0.3-0.2,0.4-0.5,0.4-0.8v-2.3C47.5,23,47.1,22.5,46.5,22.5z"
		/>
	<path fill="#FFCD74" d="M5.3,18.7C5.3,18.7,5.3,18.7,5.3,18.7l37.5,0c0,0,0,0,0,0c-2-4.6-7.2-8.1-13.9-9.2c0-0.1,0-0.2,0-0.3
		c0-3.2-2.2-5.9-4.9-5.9s-4.9,2.6-4.9,5.9c0,0.1,0,0.2,0,0.3C12.5,10.6,7.2,14.1,5.3,18.7z"/>
	<path fill="#88C057" d="M6.2,13.5c0.5,0,1-0.4,1-1V7.3c0-0.5-0.4-1-1-1s-1,0.4-1,1v5.3C5.3,13.1,5.7,13.5,6.2,13.5z"/>
	<path fill="#88C057" d="M2.6,16.1c0.5,0,1-0.4,1-1V9.9c0-0.5-0.4-1-1-1s-1,0.4-1,1v5.3C1.6,15.7,2,16.1,2.6,16.1z"/>
	<path fill="#88C057" d="M41.8,13.5c0.5,0,1-0.4,1-1V7.3c0-0.5-0.4-1-1-1c-0.5,0-1,0.4-1,1v5.3C40.8,13.1,41.2,13.5,41.8,13.5z"/>
	<path fill="#88C057" d="M45.4,16.1c0.5,0,1-0.4,1-1V9.9c0-0.5-0.4-1-1-1c-0.5,0-1,0.4-1,1v5.3C44.5,15.7,44.9,16.1,45.4,16.1z"/>
</g>
</svg>
