<?xml version="1.0" encoding="utf-8"?>
<!-- Generator: Adobe Illustrator 18.0.0, SVG Export Plug-In . SVG Version: 6.00 Build 0)  -->
<!DOCTYPE svg PUBLIC "-//W3C//DTD SVG 1.1//EN" "http://www.w3.org/Graphics/SVG/1.1/DTD/svg11.dtd">
<svg version="1.1" id="Layer_1" xmlns="http://www.w3.org/2000/svg" xmlns:xlink="http://www.w3.org/1999/xlink" x="0px" y="0px"
	 viewBox="0 0 48 48" enable-background="new 0 0 48 48" xml:space="preserve">
<g>
	<path fill="#F04B36" d="M26.2,24.5l2.9,2.2c0.4,0.3,0.5,1,0.2,1.4c-0.2,0.3-0.5,0.4-0.8,0.4c-0.2,0-0.4-0.1-0.6-0.2L25,26.1v3.3
		c0,0.6-0.5,1-1,1c-0.6,0-1-0.5-1-1v-3.3l-2.9,2.2c-0.5,0.3-1.1,0.3-1.4-0.2c-0.3-0.5-0.2-1.1,0.2-1.4l2.9-2.2
		c-4.6,0.8-8.1,4.1-8.1,8c0,4.5,4.6,8.2,10.3,8.2c5.7,0,10.3-3.7,10.3-8.2C34.3,28.6,30.9,25.3,26.2,24.5z"/>
	<path fill="#F04B36" d="M38,12.9c-0.1,0-0.1,0-0.2,0c0.3-0.4,0.4-0.7,0.4-0.9c0-0.3-0.2-0.5-0.5-0.5c-0.3,0-0.7,0.1-1.2,0.3
		c-0.4,0.2-0.7,0.4-0.9,0.6v-0.1c-1.4,1.2-2.3,1.8-2.8,1.8c-0.1,0-0.2-0.1-0.2-0.2c0,0,0.1-0.2,0.4-0.5c0.3-0.3,0.5-0.6,0.7-0.8
		l1.9-2.2h1l0.1-0.1h-1l1.3-1.5h-0.7l-1.3,1.5h-0.6l-0.1,0.1H35c-0.4,0.3-0.9,0.7-1.4,1c-0.4,0.4-0.8,0.7-1.1,1
		c-0.1,0.1-0.2,0.2-0.4,0.3c-0.3,0.3-0.6,0.5-0.9,0.7c-0.2,0.2-0.5,0.3-0.7,0.5c-0.2,0.1-0.3,0.2-0.4,0.2c-0.1,0-0.1,0-0.1-0.1
		c0-0.2,0.4-0.7,1.2-1.6c0.1-0.1,0.2-0.2,0.3-0.3c0.1-0.1,0.2-0.3,0.4-0.5l0.2-0.2l-0.7,0L30.9,12c0,0,0-0.1,0-0.1c0,0,0-0.1,0-0.1
		c0,0,0,0,0-0.1c0-0.1,0-0.2-0.1-0.3c-0.1-0.1-0.2-0.1-0.3-0.1c-0.3,0-0.6,0.1-1,0.2c-0.3,0.1-0.6,0.3-0.9,0.5
		c-0.2,0.1-0.3,0.3-0.5,0.5c-0.6,0.5-1.1,0.9-1.5,1.2c-0.4,0.3-0.7,0.4-0.9,0.4c-0.1,0-0.2,0-0.2-0.2c0-0.1,0.1-0.2,0.2-0.3
		c0.1-0.2,0.3-0.3,0.4-0.4c0.4-0.3,0.7-0.5,0.8-0.8c0.2-0.2,0.2-0.5,0.2-0.7c0-0.1,0-0.2-0.1-0.3c0-0.1-0.1-0.1-0.2-0.1
		c-0.2,0-0.4,0.1-0.7,0.2c-0.3,0.2-0.6,0.4-0.9,0.6c-0.3,0.2-0.7,0.5-1,0.7l-0.2,0.2c0.5-0.6,0.8-1.1,0.8-1.5c0-0.2-0.1-0.3-0.3-0.3
		c-0.3,0-0.6,0.1-1,0.4c-0.4,0.2-0.9,0.7-1.7,1.3c0.3-0.3,0.4-0.6,0.6-0.8c0.1-0.2,0.2-0.4,0.2-0.5c0-0.2-0.1-0.3-0.3-0.3
		c-0.2,0-0.4,0.1-0.7,0.3c-0.2,0.2-0.5,0.4-0.8,0.6v0c0,0-0.1,0.1-0.1,0.1c0,0-0.1,0.1-0.1,0.1v0c-0.2,0.2-0.5,0.4-0.8,0.4
		c-0.1,0-0.1,0-0.2,0c0.3-0.4,0.4-0.7,0.4-0.9c0-0.3-0.2-0.5-0.5-0.5c-0.3,0-0.7,0.1-1.1,0.3c-0.4,0.2-0.8,0.5-1.1,0.8
		c-0.3,0.3-0.5,0.7-0.5,1c0,0.1,0,0.2,0.1,0.3c0,0.1,0.1,0.2,0.2,0.2c0.1,0.1,0.2,0.1,0.3,0.1c0.6,0,1.3-0.4,2.2-1.3
		c0,0,0.1,0,0.1,0c0,0,0.1,0,0.1,0c0.3,0,0.6-0.1,0.8-0.4c0.2-0.2,0.4-0.4,0.6-0.5c0.2-0.2,0.4-0.3,0.6-0.4c0.2-0.1,0.3-0.2,0.4-0.2
		c0.1,0,0.1,0,0.1,0.1c0,0.1-0.2,0.3-0.6,0.7l-1.7,1.9H21l0.2-0.2c0.8-0.7,1.5-1.3,2.1-1.7c0.6-0.5,1-0.7,1.3-0.7c0,0,0.1,0,0.1,0
		c0,0,0,0.1,0,0.1c0,0.1-0.1,0.2-0.2,0.3c-0.1,0.1-0.3,0.3-0.4,0.5c-0.2,0.2-0.3,0.3-0.4,0.4l-1.2,1.3h0.7c0.4-0.3,0.8-0.7,1.4-1.1
		c0.6-0.4,1.1-0.8,1.5-1.1c0.5-0.3,0.8-0.4,0.9-0.4c0.1,0,0.1,0,0.1,0.1c0,0.1-0.2,0.4-0.6,0.7c-0.4,0.3-0.6,0.6-0.8,0.9
		c-0.2,0.2-0.2,0.5-0.2,0.7c0,0.2,0.1,0.3,0.3,0.3c0.3,0,0.6-0.1,1-0.4c0.3-0.2,0.7-0.6,1.2-1c-0.1,0.2-0.2,0.5-0.2,0.7
		c0,0.2,0,0.4,0.1,0.5c0.1,0.1,0.2,0.2,0.4,0.2c0.4,0,0.9-0.3,1.7-1c-0.1,0.3-0.2,0.6-0.2,0.8c0,0.2,0.1,0.3,0.2,0.3
		c0.2,0,0.5-0.1,0.8-0.3c0.3-0.2,0.8-0.6,1.4-1.1l0.4-0.3v0c0.9-0.7,1.5-1.3,2-1.6c-0.9,0.9-1.4,1.5-1.7,2c-0.3,0.5-0.4,0.8-0.4,1
		c0,0.1,0,0.2,0.1,0.2c0.1,0.1,0.2,0.1,0.3,0.1c0.5,0,1.3-0.5,2.4-1.4l0,0C35,13.1,35,13.3,35,13.6c0,0.1,0,0.2,0.1,0.3
		c0,0.1,0.1,0.2,0.2,0.2c0.1,0.1,0.2,0.1,0.3,0.1c0.6,0,1.3-0.4,2.2-1.3c0,0,0.1,0,0.1,0c0,0,0.1,0,0.1,0c0.4,0,0.7-0.2,1-0.5v-0.1
		C38.7,12.7,38.3,12.9,38,12.9z M19.8,12.7c-0.3,0.4-0.6,0.7-1,1c-0.4,0.3-0.7,0.4-1,0.4c-0.1,0-0.2,0-0.3-0.1
		c-0.1-0.1-0.1-0.1-0.1-0.2c0-0.1,0.1-0.3,0.5-0.7c0.3-0.4,0.6-0.8,1-1.1c0.4-0.3,0.7-0.5,1-0.5c0.1,0,0.2,0,0.3,0.1
		c0.1,0.1,0.1,0.1,0.1,0.3C20.2,12.1,20.1,12.4,19.8,12.7z M29.3,13.7c-0.4,0.3-0.7,0.4-0.9,0.4c-0.1,0-0.1,0-0.2-0.1
		C28.1,14,28,13.9,28,13.9c0-0.2,0.1-0.4,0.4-0.8c0.3-0.4,0.6-0.7,1-1.1c0.4-0.3,0.7-0.5,1-0.5c0.2,0,0.3,0.1,0.3,0.3
		c0,0.2-0.2,0.5-0.5,0.9C30,13,29.7,13.4,29.3,13.7z M37.7,12.7c-0.3,0.4-0.6,0.7-1,1c-0.4,0.3-0.7,0.4-1,0.4c-0.1,0-0.2,0-0.3-0.1
		c-0.1-0.1-0.1-0.1-0.1-0.2c0-0.1,0.1-0.3,0.5-0.7c0.3-0.4,0.6-0.8,1-1.1c0.4-0.3,0.7-0.5,1-0.5c0.1,0,0.2,0,0.3,0.1
		c0.1,0.1,0.1,0.1,0.1,0.3C38.1,12.1,38,12.4,37.7,12.7z"/>
	<path fill="#F04B36" d="M18.7,8.2c0.3-0.4,0.6-0.7,1-1C20.1,7,20.5,6.7,21,6.5l-0.1-0.1c-1.4,0.7-2.7,1.9-4,3.7l-0.2,0.3
		c-0.4,0.6-0.8,1.1-1.1,1.4c-0.3,0.4-0.5,0.6-0.7,0.8c-0.2,0.2-0.4,0.4-0.6,0.6c-0.3,0.3-0.8,0.6-1.5,0.9c-0.7,0.3-1.4,0.4-2.1,0.4
		c-0.5,0-0.9-0.1-1.2-0.3c-0.3-0.2-0.4-0.4-0.4-0.6c0-0.1,0-0.2,0.1-0.3c0-0.1,0.1-0.1,0.2-0.2c-0.1,0.3,0,0.4,0.2,0.4
		c0.1,0,0.1,0,0.2-0.1c0-0.1,0.1-0.1,0.1-0.2c0-0.2-0.1-0.3-0.4-0.3c-0.1,0-0.3,0.1-0.4,0.2C9.1,13.3,9,13.5,9,13.7
		c0,0.3,0.1,0.5,0.4,0.7c0.3,0.2,0.7,0.3,1.4,0.3c0.5,0,0.9-0.1,1.4-0.2c0.5-0.1,0.9-0.3,1.4-0.5c0.4-0.2,0.9-0.5,1.3-0.8
		c0.4-0.3,0.8-0.7,1.2-1.1c0.3-0.3,0.5-0.6,0.7-1c0.2-0.4,0.6-1,1-1.8C18.2,9,18.4,8.6,18.7,8.2z"/>
	<path fill="#F04B36" d="M16.9,9c0.5-0.4,1-1.1,1.4-1.9h-0.1c-0.2,0.4-0.5,0.8-0.8,1.2c-0.3,0.4-0.6,0.7-1,0.9
		c-0.3,0.2-0.7,0.4-1,0.5c-0.3,0.1-0.6,0.2-0.9,0.2c-0.3,0-0.6-0.1-0.8-0.3c-0.2-0.2-0.3-0.4-0.3-0.7c0-0.3,0.1-0.6,0.3-1
		c0.2-0.3,0.5-0.7,0.9-1c0.4-0.3,0.9-0.6,1.5-0.8C16.7,6,17.3,5.9,18,5.9c0.4,0,1.2,0.1,2.5,0.3c0.9,0.1,1.5,0.2,1.7,0.2
		c0.4,0,0.8-0.1,1.3-0.2c0.5-0.1,0.8-0.3,1-0.5h-0.1c-0.1,0.1-0.3,0.2-0.6,0.2c-0.3,0.1-0.7,0.1-1.1,0.1c-0.5,0-1.1,0-2-0.1
		c-1-0.1-1.8-0.1-2.4-0.1c-0.9,0-1.6,0.1-2.3,0.3c-0.6,0.2-1.2,0.5-1.6,0.8c-0.4,0.3-0.7,0.7-0.9,1c-0.2,0.4-0.3,0.7-0.3,1
		c0,0.3,0.1,0.6,0.3,0.8c0.2,0.2,0.5,0.3,0.9,0.3c0.2,0,0.5-0.1,0.9-0.2C15.9,9.7,16.4,9.4,16.9,9z"/>
	<path fill="#E8B944" d="M5.5,0.5v47h37v-47H5.5z M24,42.8c-6.8,0-12.4-4.6-12.4-10.3c0-5.4,5-9.8,11.4-10.2V18c0-0.6,0.5-1,1-1
		c0.6,0,1,0.5,1,1v4.3c6.4,0.4,11.4,4.9,11.4,10.2C36.4,38.2,30.8,42.8,24,42.8z M39.9,13c-0.1,0.1-0.9,0.9-1.2,0.9
		c-0.3,0.1-1.3,0.7-2.3,1.4c0,0,0,0-0.8,0c-0.3,0-0.6-0.1-0.9-0.2c-0.1-0.1-0.1-0.1-0.1-0.1c-0.1-0.1-0.7,0-1.3,0.3c0,0,0,0-0.4,0
		c-0.4,0-0.7-0.1-1-0.4c-0.1-0.1-0.1-0.1-0.1-0.1c-0.1-0.1-0.2-0.1-0.3-0.1c0,0,0,0-0.1,0c-0.5,0.3-0.9,0.5-1.4,0.5
		c-0.3,0-0.3,0-0.3,0c-0.3-0.1-0.7-0.1-1.1,0c0,0,0,0-0.3,0c-0.4,0-0.4,0-0.4,0c-0.4-0.3-1.1-0.3-1.7,0c0,0,0,0-0.5,0
		c-0.6,0-0.6,0-0.6,0c-0.4-0.5-1-0.6-1.1-0.5C24,14.8,23.8,15,23.8,15c-0.1,0.1-1.4,0.1-2.8,0.1c-1.5,0-2.9,0-3.1,0.1c0,0,0,0-0.2,0
		c-0.3,0-0.6-0.1-0.9-0.2c-0.3-0.2-0.5-0.4-0.6-0.7c-0.1-0.2-0.1-0.2-0.1-0.2c0-0.3-0.2-0.3-0.4-0.2c0,0,0,0-0.2,0.1
		c-0.5,0.4-1,0.7-1.5,0.9c-0.5,0.2-1,0.4-1.6,0.5c-0.6,0.1-1.1,0.2-1.6,0.2c-0.8,0-1.5-0.1-1.9-0.4C8.3,14.9,8,14.3,8,13.7
		c0-0.4,0.1-0.8,0.4-1.1C8.7,12.2,9.1,12,9.5,12c0.8,0,1.4,0.6,1.4,1.3c0,0,0,0,0,0c0,0.1,0.5,0,1.1,0c0,0,0,0,0.5-0.2
		c0.7-0.3,1-0.5,1.2-0.7c0.2-0.2,0.4-0.4,0.5-0.5c0.2-0.2,0.4-0.4,0.6-0.8c0.1-0.1,0.1-0.1,0.1-0.1c0.1-0.1,0-0.2-0.2-0.2
		c0,0,0,0-0.1,0c-0.6,0-1.2-0.2-1.6-0.5c-0.5-0.4-0.7-0.9-0.7-1.6c0-0.5,0.1-0.9,0.4-1.4C13,7,13.4,6.5,13.9,6.1
		c0.5-0.4,1.1-0.7,1.9-1c0.7-0.2,1.6-0.4,2.6-0.4c0.6,0,1.4,0,2.5,0.1C21.7,5,22.4,5,22.8,5c0.4,0,0.7,0,0.9-0.1c0.2,0,0.2,0,0.2,0
		c0,0,0.1-0.1,0.2-0.1c0.1-0.1,0.2-0.1,0.3-0.1c0.1,0,0.8,0,1.5,0c0.8,0,1,0.4,0.4,0.9c-0.5,0.5-1.4,1.1-1.8,1.4c0,0,0,0-0.7,0.2
		c-0.6,0.1-1.1,0.2-1.5,0.2c-0.1,0-0.1,0-0.1,0c-0.3,0-0.6-0.1-0.7,0c0,0-0.4,0.2-0.9,0.5c0,0,0,0-0.3,0.2c-0.3,0.2-0.6,0.5-0.8,0.8
		c-0.3,0.3-0.5,0.7-0.7,1c-0.2,0.3-0.2,0.3-0.2,0.3c-0.2,0.3,0.2,0.3,0.7,0.1c0,0,0,0,0.4,0c0.5,0,0.5,0,0.5,0
		c0.4,0.2,0.9,0.1,1.2-0.2c0.3-0.4,0.6-0.5,0.6-0.2c0,0.3,0.1,0.5,0.3,0.4c0,0,0,0,0.2,0c0.3,0,0.3,0,0.3,0c0.3,0.2,1,0.2,1.4,0
		c0,0,0,0,0.4,0c0.4,0,0.4,0,0.4,0c0.3,0.2,0.6,0.4,0.7,0.4c0,0,0,0,0,0c0.5-0.2,0.8-0.4,1.2-0.4c0.4,0,0.8,0.2,1,0.5
		c0.1,0.1,0.1,0.1,0.1,0.1c0,0.1,0.4,0,0.7-0.2c0,0,0,0,0.4-0.1c0.4-0.2,0.9-0.2,1.3-0.2c0.2,0,0.2,0,0.2,0c0.2,0,0.8,0,1.4,0
		c0.6,0,1.3-0.3,1.5-0.6c0.2-0.3,0.6-0.5,0.7-0.5c0.2,0,0.6-0.3,1-0.7c0.4-0.4,1.4-0.7,2.4-0.7c0.9,0,1.4,0.3,1,0.7
		c-0.4,0.4-0.5,0.7-0.4,0.7c0.2,0,0.1,0.3-0.1,0.6c-0.2,0.3,0.1,0.7,0.3,0.8c0.2,0.1,0.5-0.1,0.8-0.5c0.3-0.4,0.6,0.1,0.6,1
		C40,12.1,39.9,12.9,39.9,13z"/>
	<path fill="#E8B944" d="M16.6,7.1c0,0,0,0-0.2,0.1c-0.5,0.2-0.9,0.4-1.2,0.6c-0.3,0.2-0.5,0.5-0.7,0.7c-0.1,0.2-0.1,0.2-0.1,0.2
		c0,0.1,0,0.2,0,0.2c0,0,0,0,0.1,0c0.1,0,0.3,0,0.6-0.1c0.3-0.1,0.5-0.2,0.8-0.4c0.3-0.2,0.5-0.4,0.8-0.7c0.2-0.2,0.2-0.2,0.2-0.2
		C17,7.2,16.9,7,16.6,7.1z"/>
</g>
</svg>
