<?xml version="1.0" encoding="utf-8"?>
<!-- Generator: Adobe Illustrator 18.0.0, SVG Export Plug-In . SVG Version: 6.00 Build 0)  -->
<!DOCTYPE svg PUBLIC "-//W3C//DTD SVG 1.1//EN" "http://www.w3.org/Graphics/SVG/1.1/DTD/svg11.dtd">
<svg version="1.1" id="Layer_1" xmlns="http://www.w3.org/2000/svg" xmlns:xlink="http://www.w3.org/1999/xlink" x="0px" y="0px"
	 viewBox="0 0 48 48" enable-background="new 0 0 48 48" xml:space="preserve">
<g>
	<path fill="#06728D" d="M17.5,38.3c-0.5-4.9,2.9-9.8,6.5-11.8c2.6-1.4,2.1-5.5,2.1-5.6c-0.1-0.8,0.1-1.6,0.6-2.2
		c0.5-0.6,1.2-1,2-1.1l4.1-0.4c0.1,0,0.1,0,0.2,0v-0.7c0-3.4-1.7-6.5-4.6-8.4V7.4h0.2c0.5,0,1-0.4,1-1V4c0-1.9-1.5-3.5-3.4-3.5H9.8
		C7.9,0.5,6.4,2.1,6.4,4v2.4c0,0.5,0.4,1,1,1h0.2v0.7C4.7,10,3,13.1,3,16.5v21C3,43,7.5,47.5,13,47.5h10c1.2,0,2.3-0.2,3.4-0.6
		c-1.3-0.4-2.2-0.9-2.6-1.2C20.1,44.4,17.9,41.7,17.5,38.3z M8.5,5.4H8.4V4c0-0.9,0.6-1.6,1.4-1.6h16.4c0.8,0,1.4,0.7,1.4,1.6v1.4
		h-0.2H8.5z"/>
	<path fill="#CFD0D1" d="M39.1,28.2c-2.2-1.3-4.3-3.8-4.4-4.9c-0.1-1.7-0.6-3.3-0.6-3.4c-0.1-0.5-0.6-0.8-1-0.7L29,19.6
		c-0.3,0-0.5,0.2-0.7,0.4c-0.2,0.2-0.2,0.5-0.2,0.7c0,0.1,0.6,5.4-3.1,7.5c-2.9,1.6-5.8,5.9-5.5,9.9c0.3,2.8,2.1,4.8,5.1,5.9
		c0.6,0.4,3.3,1.9,7.8,1.9c0.8,0,1.6,0,2.3-0.1c0.5-0.1,0.9-0.1,1.5-0.3l1.6-0.5c4.8-1.7,7.1-5.7,7.2-8.6
		C45.2,32,40.1,28.8,39.1,28.2z M28.8,38.5c0,0.6,0,1,0.1,1.4l0,0.2c0.1,0.4,0.2,0.9,0.9,1.4c0.4,0.3,0.5,0.9,0.2,1.4
		c-0.2,0.3-0.5,0.4-0.8,0.4c-0.2,0-0.4-0.1-0.6-0.2c-1.2-0.9-1.5-2-1.6-2.5l0-0.1c-0.2-0.7-0.2-1.3-0.2-1.9l0-0.2c0-1.5,0.5-3,1-4.4
		c0.2-0.5,0.3-1,0.5-1.4c0.2-0.5,0.7-0.8,1.2-0.7c0.5,0.2,0.8,0.7,0.7,1.2c-0.1,0.5-0.3,1-0.5,1.5c-0.4,1.2-0.9,2.5-0.9,3.7
		L28.8,38.5z M37.8,41c-0.2,0.3-0.5,0.5-0.9,0.5c-0.1,0-0.3,0-0.4-0.1c-0.5-0.2-0.7-0.8-0.4-1.3c0.5-1,0.3-2.5,0.1-3.7
		c-0.1-0.7-0.3-1.2-0.7-1.9c-0.2-0.4-0.5-0.8-0.7-1.2c-0.1-0.1-0.2-0.2-0.3-0.3c-0.3-0.3-0.6-0.7-0.8-1.2c-0.2-0.5,0.1-1.1,0.6-1.2
		c0.5-0.2,1.1,0.1,1.3,0.6c0,0.1,0.3,0.3,0.4,0.5c0.1,0.1,0.3,0.3,0.4,0.4c0.4,0.5,0.7,1,0.9,1.4c0.5,0.9,0.7,1.6,0.9,2.5
		C38.4,37.6,38.6,39.5,37.8,41z"/>
</g>
</svg>
