<?xml version="1.0" encoding="utf-8"?>
<!-- Generator: Adobe Illustrator 18.0.0, SVG Export Plug-In . SVG Version: 6.00 Build 0)  -->
<!DOCTYPE svg PUBLIC "-//W3C//DTD SVG 1.1//EN" "http://www.w3.org/Graphics/SVG/1.1/DTD/svg11.dtd">
<svg version="1.1" id="Layer_1" xmlns="http://www.w3.org/2000/svg" xmlns:xlink="http://www.w3.org/1999/xlink" x="0px" y="0px"
	 viewBox="0 0 48 48" enable-background="new 0 0 48 48" xml:space="preserve">
<g>
	<path fill="#F04B36" d="M11.6,9.6H36c0.3,0,0.7-0.2,0.8-0.4c0.2-0.3,0.2-0.6,0-0.9c-0.1-0.2-2.8-4.8-6.6-4.8
		c-0.5,0-1.1,0.1-1.6,0.3c-1.8,0.6-2.2,0.4-2.2,0.3c0,0,0-0.1,0-0.1c0.1-0.3,0.3-1.9-0.6-2.8c-0.5-0.5-1.2-0.8-2-0.6
		c-0.8-0.1-1.5,0.1-2,0.6c-0.9,0.9-0.6,2.5-0.6,2.8c0,0,0,0.1,0,0.1c0,0-0.4,0.3-2.2-0.3c-0.5-0.2-1.1-0.3-1.6-0.3
		c-3.8,0-6.5,4.6-6.6,4.8c-0.2,0.3-0.2,0.6,0,0.9C10.9,9.4,11.3,9.6,11.6,9.6z"/>
	<path fill="#E77528" d="M1.6,13.8c-0.4-0.1-0.8,0.1-1,0.4c-0.2,0.3-0.2,0.7,0,1l10.7,15.3l-2-17C6.9,14.3,3.1,14,1.6,13.8z"/>
	<path fill="#E77528" d="M35.3,45.7H12.7c-0.5,0-1,0.4-1,0.9c0,0.5,0.4,0.9,1,0.9h22.6c0.5,0,1-0.4,1-0.9
		C36.3,46.1,35.9,45.7,35.3,45.7z"/>
	<path fill="#4DA0D8" d="M47,16.4L42.5,14c-0.1-0.1-0.3-0.1-0.5-0.1h-4.8l0.2-1.7c0-0.3-0.1-0.5-0.2-0.7c-0.2-0.2-0.5-0.3-0.7-0.3
		H11.2c-0.3,0-0.5,0.1-0.7,0.3c-0.2,0.2-0.3,0.5-0.2,0.7l3.6,30.7c0.1,0.5,0.5,0.8,1,0.8h18.1c0.5,0,0.9-0.4,1-0.8L37,15.7h4.7
		l3.7,2l-3,16.6c-0.1,0.5,0.3,1,0.8,1.1c0.1,0,0.1,0,0.2,0c0.5,0,0.9-0.3,1-0.8l3.1-17.2C47.6,17,47.4,16.6,47,16.4z"/>
</g>
</svg>
