<?xml version="1.0" encoding="utf-8"?>
<!-- Generator: Adobe Illustrator 18.0.0, SVG Export Plug-In . SVG Version: 6.00 Build 0)  -->
<!DOCTYPE svg PUBLIC "-//W3C//DTD SVG 1.1//EN" "http://www.w3.org/Graphics/SVG/1.1/DTD/svg11.dtd">
<svg version="1.1" id="Layer_1" xmlns="http://www.w3.org/2000/svg" xmlns:xlink="http://www.w3.org/1999/xlink" x="0px" y="0px"
	 viewBox="0 0 48 48" enable-background="new 0 0 48 48" xml:space="preserve">
<g>
	<path fill="#E77528" d="M24,0.5C11,0.5,0.5,11,0.5,24C0.5,37,11,47.5,24,47.5C37,47.5,47.5,37,47.5,24C47.5,11,37,0.5,24,0.5z
		 M24,43.7C13.1,43.7,4.3,34.9,4.3,24C4.3,13.1,13.1,4.3,24,4.3S43.7,13.1,43.7,24C43.7,34.9,34.9,43.7,24,43.7z"/>
	<path fill="#F7A93B" d="M23,6.3c-6.7,0.4-12.4,4.5-15,10.2l15,5.9V6.3z"/>
	<path fill="#F7A93B" d="M25,6.3v16.3l15.5-4.8C38.2,11.4,32.2,6.8,25,6.3z"/>
	<path fill="#F7A93B" d="M13.6,38.3c2.9,2.1,6.5,3.4,10.4,3.4c2.5,0,4.8-0.5,7-1.4l-7.2-14.4L13.6,38.3z"/>
	<path fill="#F7A93B" d="M7.2,18.5c-0.6,1.7-0.9,3.6-0.9,5.5c0,5.1,2.2,9.7,5.7,13l10.3-12.5L7.2,18.5z"/>
	<path fill="#F7A93B" d="M41.2,19.8l-15.7,4.9l7.4,14.7c5.3-3.1,8.9-8.8,8.9-15.3C41.7,22.5,41.5,21.1,41.2,19.8z"/>
</g>
</svg>
