<?xml version="1.0" encoding="utf-8"?>
<!-- Generator: Adobe Illustrator 18.0.0, SVG Export Plug-In . SVG Version: 6.00 Build 0)  -->
<!DOCTYPE svg PUBLIC "-//W3C//DTD SVG 1.1//EN" "http://www.w3.org/Graphics/SVG/1.1/DTD/svg11.dtd">
<svg version="1.1" id="Layer_1" xmlns="http://www.w3.org/2000/svg" xmlns:xlink="http://www.w3.org/1999/xlink" x="0px" y="0px"
	 viewBox="0 0 48 48" enable-background="new 0 0 48 48" xml:space="preserve">
<g>
	<path fill="#06728D" d="M17.1,13.9c2.9-1.3,9.7-3.2,16.3-2.6c-2.8-1.5-7.3-3.6-10.7-5.2c-1.8-0.9-3.4-1.6-4-1.9
		C16.3,3,6.3,4.6,3,6.1C1.4,6.8,0.9,7.9,0.6,8.6c-0.5,1.7,0.3,3.4,0.7,4v12.6c0,0.4,0.2,0.7,0.5,0.9l14.6,8c0-0.1,0-0.1,0-0.2V20.4
		c-0.6-0.7-1.8-2.6-1.4-4.3C15.2,15.4,15.7,14.5,17.1,13.9z"/>
	<path fill="#F7A93B" d="M28.6,21.2c1.2,0,2.3,0.4,3.4,1.3h2.8l0.2-4.2c0.9-0.7,1.4-1.7,1.4-2.8c0-0.6-0.2-1.2-0.4-1.7
		c-0.1,0-0.2,0-0.4,0c-6.8-1.5-14.5,0.7-17.6,2c-0.6,0.3-0.7,0.6-0.8,0.8c-0.2,1,0.8,2.4,1.2,2.9c0.2,0.2,0.2,0.4,0.2,0.6v13.8
		c0,0.1,0,0.2-0.1,0.2l4.3-1.3c0-4,0.8-7.4,0.9-8.1c0.1-0.4,0.2-0.7,0.5-1C25.7,21.5,27.6,21.2,28.6,21.2z M31.1,15.1
		c0.2,0,0.4,0.2,0.4,0.4c0,0.2-0.2,0.4-0.4,0.4c-0.2,0-0.4-0.2-0.4-0.4C30.7,15.3,30.9,15.1,31.1,15.1z M28.6,18.7c0.6,0,1,0.5,1,1
		c0,0.6-0.5,1-1,1c-0.6,0-1-0.5-1-1C27.6,19.2,28.1,18.7,28.6,18.7z M19.5,22.9c-0.3,0-0.6-0.3-0.6-0.6c0-0.3,0.3-0.6,0.6-0.6
		c0.3,0,0.6,0.3,0.6,0.6C20.1,22.7,19.9,22.9,19.5,22.9z M20.2,16.8c0-0.5,0.4-0.9,0.9-0.9c0.5,0,0.9,0.4,0.9,0.9
		c0,0.5-0.4,0.9-0.9,0.9C20.5,17.7,20.2,17.3,20.2,16.8z M21.5,29.2c-0.3,0-0.5-0.2-0.5-0.5c0-0.3,0.2-0.5,0.5-0.5
		c0.3,0,0.5,0.2,0.5,0.5C22,29,21.8,29.2,21.5,29.2z M24,23.1c-0.3,0-0.5-0.2-0.5-0.5c0-0.3,0.2-0.5,0.5-0.5c0.3,0,0.5,0.2,0.5,0.5
		C24.5,22.8,24.3,23.1,24,23.1z"/>
	<path fill="#F04B36" d="M47.4,41.7l-2.7-16.5c-0.1-0.5-0.5-0.8-1-0.8H31.2c-0.5-0.5-1.4-1.3-2.6-1.3c-0.7,0-1.8,0.3-2.8,1.7
		c-0.1,0.1-0.1,0.2-0.2,0.3c-0.1,0.5-2.8,12.6,2,17.9c0,0,0.1,0.1,0.1,0.1c0.1,0.1,1.3,1,2.8,1c1,0,2-0.4,2.9-1.2h13.1c0,0,0,0,0,0
		c0.5,0,1-0.4,1-1C47.5,41.9,47.5,41.8,47.4,41.7z M30.7,34.2c-0.3,0-0.6-0.3-0.6-0.6c0-0.3,0.3-0.6,0.6-0.6c0.3,0,0.6,0.3,0.6,0.6
		C31.3,34,31,34.2,30.7,34.2z M33.6,30.2c0-0.5,0.4-0.9,0.9-0.9c0.5,0,0.9,0.4,0.9,0.9c0,0.5-0.4,0.9-0.9,0.9
		C34.1,31.1,33.6,30.7,33.6,30.2z M35.2,37.3c-0.3,0-0.6-0.3-0.6-0.6c0-0.3,0.3-0.6,0.6-0.6c0.3,0,0.6,0.3,0.6,0.6
		C35.7,37,35.5,37.3,35.2,37.3z M39.6,30.8c-0.4,0-0.6-0.3-0.6-0.6c0-0.4,0.3-0.6,0.6-0.6c0.4,0,0.6,0.3,0.6,0.6
		C40.2,30.5,39.9,30.8,39.6,30.8z M41.1,38.5c-0.5,0-0.9-0.4-0.9-0.9c0-0.5,0.4-0.9,0.9-0.9c0.5,0,0.9,0.4,0.9,0.9
		C42.1,38.1,41.6,38.5,41.1,38.5z"/>
</g>
</svg>
