<?xml version="1.0" encoding="utf-8"?>
<!-- Generator: Adobe Illustrator 18.0.0, SVG Export Plug-In . SVG Version: 6.00 Build 0)  -->
<!DOCTYPE svg PUBLIC "-//W3C//DTD SVG 1.1//EN" "http://www.w3.org/Graphics/SVG/1.1/DTD/svg11.dtd">
<svg version="1.1" id="Layer_1" xmlns="http://www.w3.org/2000/svg" xmlns:xlink="http://www.w3.org/1999/xlink" x="0px" y="0px"
	 viewBox="0 0 48 48" enable-background="new 0 0 48 48" xml:space="preserve">
<g>
	<path fill="#E77528" d="M47.1,28.6c-0.5-0.3-1.1-0.2-1.4,0.3c-0.7,1.1-2.3,1.3-3.7,1.6l-0.2,0c-0.3,0-0.5,0.1-0.8,0.1
		c-0.9,0.2-1.8,0.3-2.7,0.3c0,0,0,0,0,0h-3.7c-0.1-0.8-0.2-1.6-0.3-2.4c0.5,0.1,0.9,0.1,1.4,0.1c0.7,0,1.4-0.1,2.1-0.2l0.3,0
		c1.2-0.2,2.1-0.5,3.1-1.3c0.7-0.6,1.2-1.2,1.8-2.1c0.1-0.2,0.3-0.4,0.4-0.7c0.7-1,1.5-2.1,1.3-3.3c-0.1-0.5-0.5-0.9-1.1-0.9
		c-0.5,0.1-0.9,0.5-0.9,1.1c0,0.4-0.7,1.5-1,2c-0.2,0.3-0.4,0.6-0.5,0.8c-0.4,0.7-0.7,1.1-1.2,1.5c-0.7,0.5-1.2,0.7-2.1,0.9l-0.3,0
		c-1.3,0.2-2.3,0.3-3.3-0.1c-0.1,0-0.3-0.1-0.4,0c-0.2-0.6-0.4-1.1-0.6-1.7c5.7-7,3-13.6,2.9-13.9c0,0,0,0,0-0.1
		c0.7-4.2-2.4-9.6-2.5-9.8c-0.3-0.5-0.9-0.6-1.3-0.3c-0.5,0.3-0.6,0.9-0.3,1.3c0.8,1.4,2.6,5.2,2.3,8.1c-2.4-0.6-6.4-2.1-6.7-4.6
		c-0.1-0.5-0.5-0.9-1.1-0.9c-0.5,0.1-0.9,0.6-0.9,1.1c0.5,4.4,7.4,6.1,8.9,6.4c0.4,1.5,1.3,5.9-2.3,10.7c-2-3.3-4.9-5.4-8.2-5.4
		c-3.3,0-6.2,2-8.2,5.3c-3.4-4.8-2.6-9.1-2.2-10.6c1.5-0.3,8.4-2,8.9-6.4c0.1-0.5-0.3-1-0.9-1.1c-0.5-0.1-1,0.3-1.1,0.9
		c-0.3,2.5-4.3,4-6.7,4.6c-0.4-3.4,2.3-8,2.3-8.1c0.3-0.5,0.1-1.1-0.3-1.3c-0.5-0.3-1.1-0.1-1.3,0.3c-0.1,0.2-3.3,5.6-2.5,9.8
		c0,0,0,0,0,0.1c-0.1,0.3-2.8,6.8,2.8,13.8c-0.3,0.6-0.5,1.2-0.7,1.8c-0.1,0-0.2,0-0.2,0c-1.1,0.4-2.1,0.2-3.3,0.1l-0.3,0
		c-0.9-0.1-1.5-0.3-2.1-0.9c-0.5-0.4-0.8-0.8-1.2-1.5c-0.1-0.2-0.3-0.5-0.5-0.8c-0.3-0.5-1.1-1.6-1-2c0.1-0.5-0.3-1-0.9-1.1
		c-0.5-0.1-1,0.3-1.1,0.9c-0.1,1.1,0.7,2.3,1.3,3.3c0.2,0.3,0.3,0.5,0.4,0.7c0.5,0.9,1,1.5,1.8,2.1c0.9,0.7,1.8,1.1,3.1,1.3l0.3,0
		c0.7,0.1,1.4,0.2,2.1,0.2c0.4,0,0.8,0,1.2-0.1c-0.2,0.8-0.3,1.6-0.3,2.4H9.7c0,0,0,0,0,0c-0.9,0-1.7-0.2-2.7-0.3
		c-0.3,0-0.5-0.1-0.8-0.1l-0.2,0c-1.3-0.2-3-0.5-3.7-1.6c-0.3-0.5-0.9-0.6-1.4-0.3c-0.5,0.3-0.6,0.9-0.3,1.4c1.2,1.8,3.5,2.2,5,2.4
		l0.2,0c0.3,0,0.5,0.1,0.8,0.1c1,0.2,1.9,0.4,3,0.4c0,0,0,0,0,0h3.5c0,0.4,0,0.8,0.1,1.3c-0.8,0-1.7,0.1-2.4,0.1l-1,0.1
		c-0.9,0.1-2.2,0.3-3.3,1.4c-0.5,0.5-1,0.9-1.5,1.4C4,38,2.8,39,2,40.4c-0.3,0.5-0.1,1.1,0.3,1.3c0.2,0.1,0.3,0.1,0.5,0.1
		c0.3,0,0.7-0.2,0.8-0.5c0.7-1.1,1.6-1.9,2.6-2.8c0.5-0.5,1.1-0.9,1.6-1.5c0.5-0.5,1.1-0.7,2-0.8l1-0.1c0.9-0.1,1.7-0.1,2.6-0.1
		c0.1,0.5,0.2,1.1,0.4,1.6c-0.5,0.1-1.1,0.3-1.7,0.7c-0.2,0.1-0.3,0.2-0.5,0.3c-0.7,0.4-1.4,0.8-2.1,1.4c-0.7,0.8-1.4,1.7-2.1,2.8
		c-0.1,0.2-0.2,0.4-0.3,0.5c-0.2,0.4-0.5,0.9-0.7,1.1c-0.5,0.3-0.6,0.9-0.3,1.4c0.2,0.3,0.5,0.5,0.8,0.5c0.2,0,0.4,0,0.5-0.2
		c0.7-0.4,1-1.2,1.4-1.8C9,44.2,9.1,44,9.2,43.9c0.6-1,1.1-1.8,1.8-2.4c0.4-0.5,1-0.7,1.6-1.1c0.2-0.1,0.4-0.2,0.5-0.3
		c0.5-0.3,1-0.5,1.4-0.5c1.8,4.7,5.4,7.9,9.5,7.9c4.1,0,7.7-3.2,9.5-7.9c0.4,0,0.9,0.2,1.5,0.5c0.2,0.1,0.4,0.2,0.5,0.3
		c0.6,0.3,1.1,0.6,1.6,1.1c0.6,0.6,1.2,1.4,1.8,2.4c0.1,0.1,0.2,0.3,0.3,0.5c0.3,0.7,0.7,1.4,1.4,1.8c0.2,0.1,0.3,0.2,0.5,0.2
		c0.3,0,0.6-0.2,0.8-0.5c0.3-0.5,0.2-1.1-0.3-1.4c-0.2-0.1-0.5-0.7-0.7-1.1c-0.1-0.2-0.2-0.4-0.3-0.5c-0.7-1.1-1.3-2-2.1-2.8
		c-0.7-0.7-1.4-1-2.1-1.4c-0.2-0.1-0.3-0.2-0.5-0.3c-0.7-0.4-1.3-0.6-1.9-0.7c0.1-0.5,0.3-1,0.4-1.6c0.9,0,1.8,0.1,2.7,0.1l1,0.1
		c0.9,0.1,1.5,0.3,2,0.8c0.5,0.5,1.1,1,1.6,1.5c1,0.9,2,1.7,2.6,2.8c0.2,0.3,0.5,0.5,0.8,0.5c0.2,0,0.3,0,0.5-0.1
		c0.5-0.3,0.6-0.9,0.3-1.3c-0.8-1.4-2-2.4-3-3.3c-0.5-0.5-1-0.9-1.5-1.4c-1.1-1.1-2.3-1.3-3.3-1.4l-1-0.1c-0.8-0.1-1.7-0.1-2.6-0.1
		c0-0.4,0-0.8,0.1-1.2h3.7c0,0,0,0,0,0c1.1,0,2.1-0.2,3-0.4c0.3,0,0.5-0.1,0.8-0.1l0.2,0c1.5-0.3,3.8-0.6,5-2.4
		C47.6,29.5,47.5,28.9,47.1,28.6z M20.6,28.1c-0.6,0-1.1-0.8-1.1-1.8s0.5-1.8,1.1-1.8c0.6,0,1.1,0.8,1.1,1.8S21.3,28.1,20.6,28.1z
		 M27.2,28.1c-0.6,0-1.1-0.8-1.1-1.8s0.5-1.8,1.1-1.8c0.6,0,1.1,0.8,1.1,1.8S27.8,28.1,27.2,28.1z"/>
</g>
</svg>
