<?xml version="1.0" encoding="utf-8"?>
<!-- Generator: Adobe Illustrator 18.0.0, SVG Export Plug-In . SVG Version: 6.00 Build 0)  -->
<!DOCTYPE svg PUBLIC "-//W3C//DTD SVG 1.1//EN" "http://www.w3.org/Graphics/SVG/1.1/DTD/svg11.dtd">
<svg version="1.1" id="Layer_1" xmlns="http://www.w3.org/2000/svg" xmlns:xlink="http://www.w3.org/1999/xlink" x="0px" y="0px"
	 viewBox="0 0 48 48" enable-background="new 0 0 48 48" xml:space="preserve">
<g>
	<path fill="#CFD0D1" d="M24,1.1C11,1.1,0.5,8.8,0.5,18.3c0,7.8,11.8,22.9,19.4,28c-6.9-9.6-7.2-20.2-7.2-20.7c0-0.6,0.4-1,1-1
		c0,0,0,0,0,0c0.6,0,1,0.4,1,1c0,0.1,0.3,10.7,7.1,19.9c-3.3-9.7-2.1-25.7-2-26.4c0-0.6,0.5-1,1.1-0.9c0.6,0,1,0.5,0.9,1.1
		c0,0.2-1.3,17.2,2.2,26.4c3.5-9.2,2.2-26.2,2.2-26.4c0-0.6,0.4-1.1,0.9-1.1c0.6,0,1.1,0.4,1.1,0.9c0.1,0.7,1.2,16.7-2,26.4
		c6.8-9.2,7.1-19.7,7.1-19.9c0-0.6,0.4-1,1-1c0.6,0,1,0.5,1,1c0,0.5-0.3,11.5-7.7,21.3c8.1-4.4,19.8-20.4,19.8-28.6
		C47.5,8.8,37,1.1,24,1.1z"/>
</g>
</svg>
