<?xml version="1.0" encoding="utf-8"?>
<!-- Generator: Adobe Illustrator 18.0.0, SVG Export Plug-In . SVG Version: 6.00 Build 0)  -->
<!DOCTYPE svg PUBLIC "-//W3C//DTD SVG 1.1//EN" "http://www.w3.org/Graphics/SVG/1.1/DTD/svg11.dtd">
<svg version="1.1" id="Layer_1" xmlns="http://www.w3.org/2000/svg" xmlns:xlink="http://www.w3.org/1999/xlink" x="0px" y="0px"
	 viewBox="0 0 48 48" enable-background="new 0 0 48 48" xml:space="preserve">
<g>
	<path fill="none" d="M31,10.5l-1.7-0.4c1.1,0.5,2.1,1.1,3,1.8L31,10.5z"/>
	<path fill="none" d="M32.3,11.9c-0.6-1.6-1-3.2-1.2-4.4c-0.8,1-1.4,1.9-1.8,2.6l1.7,0.4L32.3,11.9z"/>
	<path fill="#0DB89A" d="M44.8,13.7l-0.1-0.3c-2.6-6.6-7-8.8-9.6-9.6c0.7-0.5,1.5-1,2.3-1.4C37.8,2.1,38,1.5,37.7,1
		c-0.3-0.5-0.9-0.7-1.4-0.4c-4.9,2.6-7.6,6.4-8.9,8.8l1.9,0.8c0.4-0.8,1-1.7,1.8-2.6c0.2,1.2,0.6,2.8,1.2,4.4c0,0,3.2,2.2,3.6,2.9
		c-1.7-2.7-3-7.1-2.9-8.3c0-0.5,0.1-0.8,0.2-1c1.7,0.3,6.7,1.7,9.5,8.7l0.1,0.3c2.2,5.4,4.9,12.2-0.9,19.9
		c-5.1,6.7-8.1,8.2-10.1,8.8c0.4-0.6,0.8-1.3,1.2-1.9c1.2-1.9,2.7-4,3.3-5.8l-4.1,3.4c-0.3,0.4-0.6,0.9-0.8,1.3
		c-1.9,2.8-2.5,3.8-2,4.7c0.2,0.4,0.6,0.6,1.1,0.6c0.2,0,0.4,0,0.6-0.1l0.5-0.1c2.9-0.8,6.3-2.2,12-9.8C50.1,27,47,19.3,44.8,13.7z"
		/>
	<path fill="#F7A93B" d="M35.9,14.8c-0.4-0.7-3.6-2.9-3.6-2.9c-0.9-0.7-1.9-1.3-3-1.8l-1.9-0.8c-3.1-1.1-13.5-3.7-19.6,7
		C2.5,25.9,9.8,35,0.5,42.9c0,0,12.7,10.5,27.5-0.2c1.7-1.2,3.1-2.5,4.3-3.8c4-4.1,5.7-10.3,6.5-14.3C38.6,21.6,37.5,17.2,35.9,14.8
		z"/>
	<path fill="#0DB89A" d="M32.3,38.9l4.1-3.4c1.5-4,2-6.7,2.3-9c0.1-0.5,0.1-1.1,0.1-1.8C38,28.6,36.3,34.8,32.3,38.9z"/>
</g>
</svg>
