<?xml version="1.0" encoding="utf-8"?>
<!-- Generator: Adobe Illustrator 18.0.0, SVG Export Plug-In . SVG Version: 6.00 Build 0)  -->
<!DOCTYPE svg PUBLIC "-//W3C//DTD SVG 1.1//EN" "http://www.w3.org/Graphics/SVG/1.1/DTD/svg11.dtd">
<svg version="1.1" id="Layer_1" xmlns="http://www.w3.org/2000/svg" xmlns:xlink="http://www.w3.org/1999/xlink" x="0px" y="0px"
	 viewBox="0 0 48 48" enable-background="new 0 0 48 48" xml:space="preserve">
<g>
	<path fill="#E8B944" d="M7.1,20.5h33.9c0,0,4.5-0.2,1.6-7.6C39.2,4,19.5-5.8,6.5,10.9C6.5,10.9,1.4,18.5,7.1,20.5z"/>
	<path fill="#996363" d="M4.6,40.5c0,3.1,1.7,5.6,3.8,5.6h31.3c2.1,0,3.8-2.5,3.8-5.6v-0.6H4.6V40.5z"/>
	<path fill="#F04B36" d="M24.4,30.7c-1.9,0-3.7-0.7-5.5-2C17.3,27.5,16,27,14.8,27l-0.1,0c-0.7,0-1.1,0-1.4,0.2
		c-0.2,0.1-0.4,0.3-0.6,0.5c-0.2,0.2-0.5,0.5-0.8,0.7c-3.7,2.7-7.6,2.1-11.1-1.8c-0.5-0.5-0.4-1.4,0.1-1.9c0.5-0.5,1.4-0.4,1.9,0.1
		c3.3,3.7,5.9,2.6,7.5,1.4c0.2-0.1,0.3-0.3,0.5-0.5c0.3-0.3,0.6-0.5,0.9-0.8c1-0.7,2.1-0.7,2.9-0.7l0.1,0c2.3,0,4.2,1.2,5.6,2.2
		c1.4,1,2.9,1.5,4.2,1.5c1,0,2.2-0.8,3.3-1.6c0.7-0.4,1.4-0.9,2.1-1.3c2.3-1.1,4-0.4,5.1,0.3c0.3,0.2,0.7,0.5,1,0.8
		c0.7,0.6,1.4,1.1,2.1,1.5c1.1,0.5,2.5,0.1,3.7-0.9c0.3-0.2,0.5-0.5,0.7-0.7c0.8-0.8,1.8-1.8,3.4-1.8c0.7,0,1.3,0.6,1.4,1.3
		c0,0.7-0.6,1.3-1.3,1.4c-0.6,0-0.9,0.3-1.6,1.1c-0.3,0.3-0.5,0.5-0.8,0.8c-2,1.8-4.5,2.3-6.5,1.4c-1-0.4-1.8-1.1-2.7-1.8
		c-0.3-0.3-0.6-0.5-1-0.7c-0.5-0.3-1.2-0.7-2.3-0.1c-0.6,0.3-1.2,0.7-1.8,1.1c-1.4,0.9-2.9,1.9-4.7,2C24.7,30.7,24.6,30.7,24.4,30.7
		z"/>
	<path fill="#E77528" d="M45.5,35.6H2.6c-0.7,0-1.3-0.6-1.3-1.3c0-0.7,0.6-1.3,1.3-1.3h42.9c0.7,0,1.3,0.6,1.3,1.3
		C46.8,35,46.2,35.6,45.5,35.6z"/>
</g>
</svg>
