<?xml version="1.0" encoding="utf-8"?>
<!-- Generator: Adobe Illustrator 18.0.0, SVG Export Plug-In . SVG Version: 6.00 Build 0)  -->
<!DOCTYPE svg PUBLIC "-//W3C//DTD SVG 1.1//EN" "http://www.w3.org/Graphics/SVG/1.1/DTD/svg11.dtd">
<svg version="1.1" id="Layer_1" xmlns="http://www.w3.org/2000/svg" xmlns:xlink="http://www.w3.org/1999/xlink" x="0px" y="0px"
	 viewBox="0 0 48 48" enable-background="new 0 0 48 48" xml:space="preserve">
<g>
	<path fill="#F04B36" d="M47,34.1c-1.4-4.6-5.4-7.6-9.8-7.7c3.2,1.8,5.5,5.3,5.6,5.5c0.3,0.5,0.2,1.1-0.3,1.4
		c-0.5,0.3-1.1,0.2-1.4-0.3c-0.8-1.3-3.3-4.3-5.9-5.3c0.7,2,1.6,5.5,1,9c-0.1,0.5-0.5,0.8-1,0.8c-0.1,0-0.1,0-0.2,0
		c-0.6-0.1-0.9-0.6-0.8-1.2c0.7-3.7-0.7-7.5-1.3-9c-4.5,2.1-6.8,7.3-5.2,12.4c1.7,5.6,7.4,8.9,12.7,7.3C45.8,45.5,48.7,39.7,47,34.1
		z"/>
	<path fill="#F04B36" d="M12.6,26.9c0,0-0.8,4.8,1.2,8.5c0.3,0.5,0.1,1.1-0.4,1.4c-0.2,0.1-0.3,0.1-0.5,0.1c-0.4,0-0.7-0.2-0.9-0.5
		c-1.5-2.7-1.6-5.8-1.6-7.8c-1.9,1.6-3.2,4.6-3.6,5.9c-0.2,0.5-0.7,0.8-1.3,0.7c-0.5-0.2-0.8-0.7-0.7-1.2c0.1-0.2,1.6-5.1,4.9-7.3
		C5,27.5,1.5,31.8,1.5,36.9c0,5.8,4.5,10.6,10.1,10.6c5.6,0,10.1-4.7,10.1-10.6c0-5.4-3.9-9.9-8.9-10.5l-0.2,0
		C12.6,26.6,12.6,26.8,12.6,26.9z"/>
	<path fill="#0DB89A" d="M44.7,12.3c0,0-11.9-5.8-14.5,1.8c-3.1-4.7-6.9-7.4-7.8-8.1c1.6-1.7,3.4-3,5.2-3.6c0.5-0.2,0.8-0.8,0.6-1.3
		c-0.2-0.5-0.8-0.8-1.3-0.6c-2.5,1-4.9,2.8-7.1,5.4c-2.1,2.6-3.8,5.7-5.1,8.7C10,8,0.5,17.1,0.5,17.1c7.8,3.5,11.7,1.3,13.4-0.5
		c-1.8,4.7-2.6,8.6-2.7,8.8c-0.1,0.3,0,0.6,0.3,0.9c0.1,0,0.1,0,0.2,0c0.3,0,0.6,0.1,0.9,0.1c0,0,0,0,0,0c0,0,0,0,0,0l0.2,0
		c0.2-0.1,0.4-0.3,0.4-0.6c0-0.1,2.3-11.1,7.9-18.2c0,0,0,0,0,0c0.1,0.1,10.4,6.9,11.5,18.8c0,0.3,0.2,0.6,0.5,0.8c0,0,0,0,0,0
		c0.1,0,0.1-0.1,0.2-0.1c0.4-0.2,0.8-0.4,1.2-0.5c0-0.1,0.1-0.3,0.1-0.4c-0.3-4-1.6-7.5-3.3-10.3C33.4,17.2,38,18.3,44.7,12.3z"/>
	<path fill="#010101" d="M23.4,25.1"/>
</g>
</svg>
