<?xml version="1.0" encoding="utf-8"?>
<!-- Generator: Adobe Illustrator 18.0.0, SVG Export Plug-In . SVG Version: 6.00 Build 0)  -->
<!DOCTYPE svg PUBLIC "-//W3C//DTD SVG 1.1//EN" "http://www.w3.org/Graphics/SVG/1.1/DTD/svg11.dtd">
<svg version="1.1" id="Layer_1" xmlns="http://www.w3.org/2000/svg" xmlns:xlink="http://www.w3.org/1999/xlink" x="0px" y="0px"
	 viewBox="0 0 48 48" enable-background="new 0 0 48 48" xml:space="preserve">
<g>
	<path fill="#010101" d="M30.5,16.2c-0.1,0-0.2,0.1-0.3,0.1c0,0-0.1,0-0.1,0c0.1,0.1,0.2,0.2,0.3,0.3C30.4,16.5,30.5,16.3,30.5,16.2
		z"/>
	<path fill="#F7A93B" d="M6.1,25.9c2.4,1.7,5.3,2.6,8,3.4l1.1,0.3c0.9,0.3,1.7,0.6,2.5,0.9c2.1,0.8,4.4,1.6,6.7,1.9
		c1.8,0.2,3.6,0.3,5.3,0.3c1.2,0,2.4-0.1,3.5-0.2c2-0.2,4.6-1.1,6.1-3c0.8-1,1.3-2.3,1.8-3.5c0.3-0.8,0.6-1.6,1-2.3
		c1-1.8,2-3.2,3.1-4.5l0.1-0.1c1.1-1.3,2-2.3,2.1-4.6c0.2-2.7-0.5-4.9-2-6.5C42.7,5.3,37.8,5,34.3,5c-1.1,0-2.2,0-3.1,0.1
		c-0.8,0-1.5,0.1-2.1,0.1c-6.3,0-22.8,6.6-24.6,8.3c-0.3,0.3-0.7,0.6-1.1,0.9c-1,0.7-2.2,1.6-2.7,2.9l-0.2,0.4l0,0.2
		C0.5,21.2,4.9,25.1,6.1,25.9z M18.5,15.3c1.9,0,4,0,6-0.1l0.5,0c0.8-0.1,1.6-0.1,2.5,0c0.5,0,0.9-0.2,1.4-0.4
		c0.3-0.1,0.5-0.2,0.8-0.3c0.8-0.3,1.3-0.5,1.8-0.8c0.1-0.1,0.3-0.3,0.5-0.4c0.3-0.3,0.6-0.6,0.9-0.8c0.2-0.1,0.3-0.2,0.5-0.4
		c0.1-0.1,0.2-0.2,0.3-0.3c0.4-0.4,0.9-1,1.7-1.1l0.4,1.9c-0.2,0-0.5,0.3-0.7,0.6c-0.2,0.2-0.3,0.3-0.5,0.5
		c-0.2,0.2-0.4,0.3-0.6,0.5c-0.1,0-0.1,0.1-0.2,0.1c-0.1,0.1-0.3,0.2-0.4,0.4c0,0,0,0-0.1,0.1c-0.1,0.1-0.2,0.3-0.3,0.4
		c-0.7,1.3-1.1,3.4-1.1,5.3h0c0.1,1,0.1,2.1,0.1,2.9h-2c0-3.5-0.4-5.6-2.5-6.1c-0.1,0-0.2,0-0.3,0c-0.5,0-1.1,0.1-1.6,0.1
		c-0.3,0-0.7,0-1,0l0,0l-0.1,0c-2.1,0.1-4.1,0.1-6.1,0.1V15.3z"/>
	<path fill="#E77528" d="M46.8,20.6c-1,1.2-1.9,2.5-2.9,4.2c-0.3,0.5-0.6,1.2-0.9,2c-0.5,1.3-1.1,2.8-2.1,4
		c-2.4,2.9-6.3,3.5-7.5,3.7c-1.2,0.1-2.4,0.2-3.7,0.2c-1.8,0-3.7-0.1-5.5-0.3c-2.6-0.3-4.9-1.2-7.1-2c-0.8-0.3-1.7-0.6-2.5-0.9
		l-1.1-0.3c-2.8-0.9-5.9-1.9-8.5-3.7c0,0-2.6-1.9-4.5-4.6c0,1.9,0.2,3.8,0.2,4.7l-0.1,0.2l0,0.2c-0.1,3.5,4.3,7.3,5.5,8.2
		c2.4,1.7,5.3,2.6,8,3.4l1.1,0.3c0.9,0.3,1.7,0.6,2.5,0.9c2.1,0.8,4.4,1.6,6.7,1.9c1.7,0.2,3.6,0.3,5.3,0.3h0c1.2,0,2.4-0.1,3.5-0.2
		c2-0.2,4.6-1.1,6.1-3c0.8-1,1.3-2.3,1.8-3.5c0.3-0.8,0.6-1.6,1-2.3c1-1.8,2-3.2,3.1-4.5l0.1-0.1c1.1-1.3,2-2.3,2.1-4.7l0-5.1
		c-0.2,0.3-0.4,0.5-0.6,0.8L46.8,20.6z"/>
</g>
</svg>
