<?xml version="1.0" encoding="utf-8"?>
<!-- Generator: Adobe Illustrator 18.0.0, SVG Export Plug-In . SVG Version: 6.00 Build 0)  -->
<!DOCTYPE svg PUBLIC "-//W3C//DTD SVG 1.1//EN" "http://www.w3.org/Graphics/SVG/1.1/DTD/svg11.dtd">
<svg version="1.1" id="Layer_1" xmlns="http://www.w3.org/2000/svg" xmlns:xlink="http://www.w3.org/1999/xlink" x="0px" y="0px"
	 viewBox="0 0 48 48" enable-background="new 0 0 48 48" xml:space="preserve">
<g>
	<path fill="#F04B36" d="M32.1,11c0.5,0,1-0.4,1-1V4.6c0-0.5-0.4-1-1-1c-0.5,0-1,0.4-1,1V10C31.1,10.6,31.6,11,32.1,11z"/>
	<path fill="#F04B36" d="M27.5,11c0.5,0,1-0.4,1-1V1.5c0-0.5-0.4-1-1-1c-0.5,0-1,0.4-1,1V10C26.5,10.6,27,11,27.5,11z"/>
	<path fill="#F04B36" d="M22.9,11c0.5,0,1-0.4,1-1V4.6c0-0.5-0.4-1-1-1c-0.5,0-1,0.4-1,1V10C21.9,10.6,22.4,11,22.9,11z"/>
	<path fill="none" d="M42.6,22.3c-0.1,0-0.1,0-0.2,0c-1.5,0-2.8,1.5-3.4,3.6l-0.6,6.5c0,2.5,1.3,4.5,2.9,4.7c1.9,0.2,3.6-2,3.8-4.8
		l0.4-4.4C45.8,25,44.4,22.4,42.6,22.3z"/>
	<path fill="#F7A93B" d="M22.3,16.3L16.7,10c-0.2-0.3-0.6-0.4-0.9-0.3c-0.3,0.1-0.6,0.3-0.7,0.6L9.5,26.4c0,0.1,0,0.2,0,0.3
		l-4.7,1.6c-0.3,0.1-0.5,0.3-0.6,0.7L0.5,41.4c-0.1,0.5,0.1,1,0.6,1.2l8.5,2.8c0.1,0,0.2,0,0.3,0c0.2,0,0.3,0,0.5-0.1
		c0.2-0.1,0.4-0.3,0.5-0.6l3.6-12.3c0.1-0.3,0-0.6-0.2-0.9l-3.1-4.1c0.1-0.1,0.1-0.2,0.1-0.2l5-14.6l3.6,4.1h2.5
		C22.4,16.5,22.4,16.4,22.3,16.3z"/>
	<path fill="#0DB89A" d="M42.8,20.3c-1.2-0.1-2.4,0.3-3.4,1.1l0.4-3.7c0-0.3-0.1-0.5-0.2-0.8c-0.2-0.2-0.4-0.3-0.7-0.3H22.5H20h-3.8
		c-0.3,0-0.5,0.1-0.7,0.3c-0.2,0.2-0.3,0.5-0.2,0.8L18,46.6c0,0.5,0.5,0.9,1,0.9h17c0.5,0,0.9-0.4,1-0.9l1-9.6
		c0.8,1.1,1.9,1.8,3.2,1.9c0.1,0,0.3,0,0.4,0c2.8,0,5.2-2.9,5.6-6.6l0.4-4.4C47.8,24,45.7,20.6,42.8,20.3z M45.5,27.8l-0.4,4.4
		c-0.2,2.8-2,5-3.8,4.8c-1.6-0.2-2.9-2.2-2.9-4.7l0.6-6.5c0.5-2.1,1.9-3.6,3.4-3.6c0.1,0,0.1,0,0.2,0C44.4,22.4,45.8,25,45.5,27.8z"
		/>
</g>
</svg>
