<?xml version="1.0" encoding="utf-8"?>
<!-- Generator: Adobe Illustrator 18.0.0, SVG Export Plug-In . SVG Version: 6.00 Build 0)  -->
<!DOCTYPE svg PUBLIC "-//W3C//DTD SVG 1.1//EN" "http://www.w3.org/Graphics/SVG/1.1/DTD/svg11.dtd">
<svg version="1.1" id="Layer_1" xmlns="http://www.w3.org/2000/svg" xmlns:xlink="http://www.w3.org/1999/xlink" x="0px" y="0px"
	 viewBox="0 0 48 48" enable-background="new 0 0 48 48" xml:space="preserve">
<g>
	<path fill="#CFD0D1" d="M12.1,20.7c1.9,0.6,4,0.5,5.8-0.1c1.5,0.9,3.3,1.4,5.2,1.4c1.6,0,3.2-0.4,4.6-1c1.2,0.5,2.6,0.8,4,0.8
		c4.9,0,8.9-3.4,8.9-7.5c0-1-0.3-2.1-0.7-3c0.8-1.1,1.3-2.4,1.3-3.7c0-3.8-3.7-7-8.3-7c-2.5,0-4.8,1-6.4,2.6c-1.2-1.1-3-1.8-4.8-1.8
		c-1.9,0-3.8,0.7-5,2C15.5,2.5,14.2,2,12.8,2C10,2,7.7,3.6,7,5.7c-3.5-0.3-6.5,2-6.5,5c0,1.5,0.7,2.8,2,3.8c0,0.2,0,0.4,0,0.6
		c0,3.3,3.2,6,7.1,6C10.5,21.1,11.3,20.9,12.1,20.7z"/>
	<path fill="#294E58" d="M41.3,22.8h-1.5c-1.6,0-3.1,0.6-4.2,1.6V23c-1.2,0.4-2.6,0.7-3.9,0.7c-1.3,0-2.7-0.2-3.9-0.6
		c-1.4,0.6-3,0.9-4.6,0.9c-1.9,0-3.8-0.4-5.4-1.2c-0.9,0.2-1.9,0.4-2.9,0.4c-0.9,0-1.8-0.1-2.7-0.3c-0.8,0.2-1.7,0.3-2.5,0.3
		c-1.3,0-2.5-0.2-3.6-0.7v21.3c0,2.1,2,3.8,4.4,3.8h20.7c2.4,0,4.4-1.7,4.4-3.8v-2.7c1.1,1,2.6,1.6,4.2,1.6h1.5c3.4,0,6.2-2.7,6.2-6
		v-7.8C47.5,25.5,44.7,22.8,41.3,22.8z M14.5,41.5c0,0.5-0.4,1-1,1c-0.5,0-1-0.4-1-1V26.4c0-0.5,0.4-1,1-1c0.5,0,1,0.4,1,1V41.5z
		 M21.8,41.5c0,0.5-0.4,1-1,1c-0.5,0-1-0.4-1-1V26.4c0-0.5,0.4-1,1-1c0.5,0,1,0.4,1,1V41.5z M29.1,41.5c0,0.5-0.4,1-1,1
		c-0.5,0-1-0.4-1-1V26.4c0-0.5,0.4-1,1-1c0.5,0,1,0.4,1,1V41.5z M45.5,36.6c0,2.2-1.9,4-4.2,4h-1.5c-2.3,0-4.2-1.8-4.2-4v-7.8
		c0-2.2,1.9-4,4.2-4h1.5c2.3,0,4.2,1.8,4.2,4V36.6z"/>
</g>
</svg>
