<?xml version="1.0" encoding="utf-8"?>
<!-- Generator: Adobe Illustrator 18.0.0, SVG Export Plug-In . SVG Version: 6.00 Build 0)  -->
<!DOCTYPE svg PUBLIC "-//W3C//DTD SVG 1.1//EN" "http://www.w3.org/Graphics/SVG/1.1/DTD/svg11.dtd">
<svg version="1.1" id="Layer_1" xmlns="http://www.w3.org/2000/svg" xmlns:xlink="http://www.w3.org/1999/xlink" x="0px" y="0px"
	 viewBox="0 0 48 48" enable-background="new 0 0 48 48" xml:space="preserve">
<g>
	<path fill="#E77528" d="M30.4,20c0,0-0.1-4.2-4.1-10.2V5.6l0.9-1.2V0.8h0h0c0-0.2-1.4-0.3-3.2-0.3c-1.8,0-3.2,0.2-3.2,0.3h0h0v3.5
		l0.9,1.2v4.2c-4,6.1-4.1,10.2-4.1,10.2s-0.4,12.7,0,13.9c0.4,1.2,2,3.6,1.4,4.6c-0.7,1-1.2,2.3-1.2,2.3s-0.3,1.7,0,4.2
		c0.3,2.5,1.8,2.5,1.8,2.5h4.3h0.3h4.3c0,0,1.4,0,1.8-2.5c0.3-2.5,0-4.2,0-4.2s-0.5-1.3-1.2-2.3c-0.7-1,1-3.4,1.4-4.6
		C30.8,32.7,30.4,20,30.4,20z"/>
</g>
</svg>
