<?xml version="1.0" encoding="utf-8"?>
<!-- Generator: Adobe Illustrator 18.0.0, SVG Export Plug-In . SVG Version: 6.00 Build 0)  -->
<!DOCTYPE svg PUBLIC "-//W3C//DTD SVG 1.1//EN" "http://www.w3.org/Graphics/SVG/1.1/DTD/svg11.dtd">
<svg version="1.1" id="Layer_1" xmlns="http://www.w3.org/2000/svg" xmlns:xlink="http://www.w3.org/1999/xlink" x="0px" y="0px"
	 viewBox="0 0 48 48" enable-background="new 0 0 48 48" xml:space="preserve">
<g>
	<path fill="#E8B944" d="M37.8,23.3c0-2.2-1.4-4.2-3.5-5c-0.3-0.1-0.5-0.3-0.6-0.6c0,0,0,0,0,0c-0.6-0.7-1.9-2.3-2.2-4.8h-0.5
		c-0.3,0.1-0.6,0.1-0.9,0.2c-0.1,0-0.3,0.1-0.4,0.1c-0.2,0-0.5,0.1-0.7,0.1c-0.4,0.1-0.8,0.1-1.3,0.2c0,0,0,0-0.1,0
		c-1.2,0.1-2.4,0.2-3.6,0.2c-1.2,0-2.4-0.1-3.6-0.2c0,0,0,0-0.1,0c-0.4-0.1-0.8-0.1-1.3-0.2c-0.2,0-0.5-0.1-0.7-0.1
		c-0.1,0-0.3-0.1-0.4-0.1c-0.3-0.1-0.6-0.1-0.9-0.2h-0.5c-0.4,2.6-1.7,4.3-2.3,4.9c-0.1,0.3-0.3,0.5-0.6,0.6c-2.1,0.8-3.5,2.8-3.5,5
		v18.9c0,2.9,2.4,5.3,5.3,5.3h17c2.9,0,5.3-2.4,5.3-5.3V23.3z"/>
	<path fill="#E77528" d="M24,5.3c4.8,0,7.8-1.6,7.8-2.4S28.8,0.5,24,0.5c-4.8,0-7.8,1.6-7.8,2.4S19.2,5.3,24,5.3z"/>
	<path fill="#06728D" d="M15.6,5.4c-0.2-0.1-0.4-0.3-0.5-0.4c0,0-0.1,0-0.1-0.1c-0.8,1.4-1.3,2.8-1.5,3.3c0.1,0.8,1.6,1.8,4,2.5
		c1.4,0.4,2.9,0.6,4.6,0.7c0.1,0,0.2,0,0.3,0c0.5,0,1,0,1.6,0c0.5,0,1.1,0,1.6,0c0.1,0,0.2,0,0.3,0c1.6-0.1,3.2-0.4,4.6-0.7
		c2.4-0.7,3.9-1.7,4-2.5C34.1,7.5,33.6,6.1,33,5c0,0-0.1,0-0.1,0.1c-0.2,0.2-0.3,0.3-0.5,0.4c-0.1,0-0.1,0.1-0.2,0.1
		c-0.2,0.2-0.5,0.3-0.8,0.5c0,0,0,0-0.1,0C29.4,7,26.7,7.4,24,7.4c-2.3,0-4.6-0.3-6.4-1c-0.7-0.2-1.3-0.5-1.8-0.9
		C15.7,5.5,15.7,5.5,15.6,5.4z"/>
</g>
</svg>
