<?xml version="1.0" encoding="utf-8"?>
<!-- Generator: Adobe Illustrator 18.0.0, SVG Export Plug-In . SVG Version: 6.00 Build 0)  -->
<!DOCTYPE svg PUBLIC "-//W3C//DTD SVG 1.1//EN" "http://www.w3.org/Graphics/SVG/1.1/DTD/svg11.dtd">
<svg version="1.1" id="Layer_1" xmlns="http://www.w3.org/2000/svg" xmlns:xlink="http://www.w3.org/1999/xlink" x="0px" y="0px"
	 viewBox="0 0 48 48" enable-background="new 0 0 48 48" xml:space="preserve">
<g>
	<path fill="#0DB89A" d="M46.7,1.7c-5.2-1-9.3,4.2-10.5,5.9c-2.4-1.4-5.8-1.4-9.7,0c-1.4-1.2-3.5-1.1-4.7,0.3
		c-0.7,0.7-1,1.6-0.9,2.5c-1,0.6-2,1.3-3,2c-1.4-0.8-3.1-0.6-4.3,0.6c-0.9,1-1.2,2.4-0.7,3.7c-0.4,0.4-0.9,0.9-1.3,1.3
		c-0.2,0.2-0.4,0.4-0.6,0.6c-1.3-0.7-3-0.4-4.1,0.7c-1.2,1.3-1.2,3.3-0.1,4.6c-0.7,1-1.3,2.1-1.9,3.1c-1.2-0.4-2.7-0.1-3.7,0.9
		c-1.3,1.4-1.2,3.6,0.2,4.9c0.3,0.2,0.5,0.4,0.8,0.6C1.1,37.9,1.5,41.8,3.9,44c2.4,2.2,6.3,2.3,10.8,0.7c0.2,0.3,0.4,0.5,0.6,0.8
		c1.4,1.3,3.6,1.2,4.9-0.2c1-1,1.2-2.5,0.6-3.7c1-0.6,2-1.3,3-2.1c1.4,1,3.4,0.9,4.6-0.4c1.1-1.1,1.2-2.8,0.4-4.1
		c0.2-0.2,0.4-0.4,0.6-0.6c0.4-0.5,0.8-0.9,1.2-1.4c1.2,0.4,2.7,0.1,3.6-0.9c1.1-1.2,1.2-3,0.3-4.3c0.7-1,1.3-2.1,1.8-3.1
		c0.9,0,1.8-0.4,2.4-1.1c1.3-1.4,1.2-3.4-0.1-4.7c1.1-4.1,0.9-7.7-1-10c0.7-1.1,4.3-6,8.5-5.2c0.6,0.1,1.1-0.3,1.2-0.8
		C47.6,2.3,47.2,1.8,46.7,1.7z M9.3,29.5c-0.4-0.4-0.4-1,0-1.5l1.2-1.3c0.4-0.4,1-0.4,1.5,0c0.4,0.4,0.4,1,0,1.5l-1.2,1.3
		c-0.2,0.2-0.5,0.3-0.8,0.3C9.8,29.7,9.5,29.6,9.3,29.5z M13.2,35.5l-1.2,1.3c-0.2,0.2-0.5,0.3-0.8,0.3c-0.3,0-0.5-0.1-0.7-0.3
		c-0.4-0.4-0.4-1-0.1-1.5l1.2-1.3c0.4-0.4,1-0.4,1.5-0.1C13.6,34.4,13.6,35.1,13.2,35.5z M15.5,22.5c-0.3,0-0.5-0.1-0.7-0.3
		c-0.4-0.4-0.4-1-0.1-1.5l1.2-1.3c0.4-0.4,1-0.4,1.5-0.1c0.4,0.4,0.4,1,0.1,1.5l-1.2,1.3C16.1,22.4,15.8,22.5,15.5,22.5z M17,28.5
		l1.2-1.3c0.4-0.4,1-0.4,1.5,0c0.4,0.4,0.4,1,0,1.5l-1.2,1.3c-0.2,0.2-0.5,0.3-0.8,0.3c-0.3,0-0.5-0.1-0.7-0.3
		C16.6,29.5,16.6,28.9,17,28.5z M20.7,36.2l-1.2,1.3c-0.2,0.2-0.5,0.3-0.8,0.3c-0.3,0-0.5-0.1-0.7-0.3c-0.4-0.4-0.4-1,0-1.5l1.2-1.3
		c0.4-0.4,1-0.4,1.5,0C21.1,35.2,21.1,35.8,20.7,36.2z M22.2,15.7c-0.4-0.4-0.4-1,0-1.5l1.2-1.3c0.4-0.4,1-0.4,1.5,0
		c0.4,0.4,0.4,1,0,1.5l-1.2,1.3c-0.2,0.2-0.5,0.3-0.8,0.3C22.6,16,22.4,15.9,22.2,15.7z M23.5,23c-0.4-0.4-0.4-1,0-1.5l1.2-1.3
		c0.4-0.4,1-0.4,1.5,0c0.4,0.4,0.4,1,0,1.5L24.9,23c-0.2,0.2-0.5,0.3-0.8,0.3C23.9,23.3,23.7,23.2,23.5,23z M27.5,30.3l-1.2,1.3
		c-0.2,0.2-0.5,0.3-0.8,0.3c-0.3,0-0.5-0.1-0.7-0.3c-0.4-0.4-0.4-1-0.1-1.5l1.2-1.3c0.4-0.4,1-0.4,1.5-0.1
		C27.9,29.2,27.9,29.9,27.5,30.3z M29.9,14.7l1.2-1.3c0.4-0.4,1-0.4,1.5-0.1c0.4,0.4,0.4,1,0.1,1.5l-1.2,1.3
		c-0.2,0.2-0.5,0.3-0.8,0.3c-0.3,0-0.5-0.1-0.7-0.3C29.5,15.7,29.5,15.1,29.9,14.7z M33.5,22.5l-1.2,1.3c-0.2,0.2-0.5,0.3-0.8,0.3
		c-0.3,0-0.5-0.1-0.7-0.3c-0.4-0.4-0.4-1,0-1.5l1.2-1.3c0.4-0.4,1-0.4,1.5,0C33.9,21.4,33.9,22.1,33.5,22.5z"/>
</g>
</svg>
