<?xml version="1.0" encoding="utf-8"?>
<!-- Generator: Adobe Illustrator 18.0.0, SVG Export Plug-In . SVG Version: 6.00 Build 0)  -->
<!DOCTYPE svg PUBLIC "-//W3C//DTD SVG 1.1//EN" "http://www.w3.org/Graphics/SVG/1.1/DTD/svg11.dtd">
<svg version="1.1" id="Layer_1" xmlns="http://www.w3.org/2000/svg" xmlns:xlink="http://www.w3.org/1999/xlink" x="0px" y="0px"
	 viewBox="0 0 48 48" enable-background="new 0 0 48 48" xml:space="preserve">
<g>
	<path fill="#E77528" d="M30.3,5.2c-8.6,0-15.8,4.7-17,10.7c1.5-0.3,3-0.4,4.5-0.4c10.3,0,18.7,6.2,19.2,13.9
		c6.2-1.9,10.5-6.4,10.5-11.6C47.5,10.9,39.8,5.2,30.3,5.2z M39.6,16.4c-0.1,0.5-0.5,0.9-1,0.9c0,0-0.1,0-0.1,0
		c-0.6-0.1-1-0.6-0.9-1.1c0-0.3-0.2-0.5-1-1.1c-0.3-0.2-0.6-0.4-0.9-0.7c-0.4-0.4-0.4-1,0-1.4c0.4-0.4,1-0.4,1.4,0
		c0.1,0.1,0.4,0.3,0.6,0.5C38.5,14,39.8,14.8,39.6,16.4z"/>
	<path fill="#E8B944" d="M17.8,17.6c-9.5,0-17.3,5.6-17.3,12.6c0,7,7.7,12.6,17.3,12.6c9.5,0,17.2-5.6,17.2-12.6
		C35,23.2,27.3,17.6,17.8,17.6z M9.8,26.7c-0.6,0.1-1.1-0.4-1.1-0.9c0-0.6,0.4-1.1,0.9-1.1c0.7-0.1,1.4,0.3,2,0.5
		c0.3,0.1,0.6,0.3,0.8,0.3c0.5,0.1,1.1,0.1,1.8,0.1l0.3,0c0.6,0,1,0.5,1,1c0,0.6-0.5,1-1,1l-0.3,0c-0.1,0-0.2,0-0.3,0
		c-0.6,0-1.2,0-1.8-0.1c-0.5-0.1-0.9-0.3-1.3-0.5C10.5,26.9,10,26.7,9.8,26.7z M18.6,37c-2.5,0-4.3-0.2-6.4-1.4
		c-0.5-0.3-0.7-0.9-0.4-1.4c0.3-0.5,0.9-0.7,1.4-0.4c1.8,1,3.2,1.1,5.5,1.1c0.6,0,1,0.5,1,1C19.6,36.6,19.2,37,18.6,37z"/>
</g>
</svg>
