<?xml version="1.0" encoding="utf-8"?>
<!-- Generator: Adobe Illustrator 18.0.0, SVG Export Plug-In . SVG Version: 6.00 Build 0)  -->
<!DOCTYPE svg PUBLIC "-//W3C//DTD SVG 1.1//EN" "http://www.w3.org/Graphics/SVG/1.1/DTD/svg11.dtd">
<svg version="1.1" id="Layer_1" xmlns="http://www.w3.org/2000/svg" xmlns:xlink="http://www.w3.org/1999/xlink" x="0px" y="0px"
	 viewBox="0 0 48 48" enable-background="new 0 0 48 48" xml:space="preserve">
<g>
	<path fill="#0DB89A" d="M14.5,4c0.4-0.6,0.2-1.5-0.5-1.8c-0.6-0.4-1.5-0.2-1.8,0.5c-1,1.7-1.2,3.6-0.9,5.4c-4.4-3.5-8.8-5.1-9-5.2
		C1.6,2.6,0.8,2.9,0.6,3.6C0.3,4.3,0.7,5.1,1.4,5.3c0.1,0,4.5,1.7,8.6,5.1c-4.6-1.1-7.7,1.2-7.8,1.3C1.6,12.2,1.5,13,2,13.6
		c0.4,0.6,1.3,0.7,1.9,0.3c0.2-0.1,3.7-2.7,9,0.7l2.6-2.6C14.8,10.7,12.9,6.8,14.5,4z"/>
	<path fill="#F04B36" d="M46.9,41.5c-0.1-0.1-5.1-7.6-10.3-15.2c-2.4,1.2-4,3.8-4,3.8c-0.2,0.4-0.7,0.7-1.2,0.7
		c-0.2,0-0.5-0.1-0.7-0.2c-0.6-0.4-0.8-1.2-0.5-1.8c0.1-0.1,1.8-3,4.8-4.7c-0.9-1.3-1.7-2.5-2.5-3.7c-3.3,1.8-5.7,5.3-5.7,5.3
		c-0.3,0.4-0.7,0.6-1.1,0.6c-0.3,0-0.5-0.1-0.7-0.2c-0.6-0.4-0.8-1.2-0.4-1.9c0.1-0.2,2.6-3.9,6.4-6c-0.8-1.1-1.5-2.1-2.1-3.1
		c-4.2,2.1-7.2,6.5-7.2,6.6c-0.3,0.4-0.7,0.6-1.1,0.6c-0.3,0-0.5-0.1-0.7-0.2c-0.6-0.4-0.8-1.2-0.4-1.9c0.1-0.2,3.3-4.8,7.9-7.3
		c-0.6-0.9-1.1-1.6-1.5-2.1c-1-1.4-2.4-2.1-3.9-2.1c-2.6,0-5.1,2-6.5,3.3l-2.6,2.6c-1.3,1.5-2.8,3.8-2.7,6.1
		c0.1,1.5,0.8,2.7,2.1,3.7c4.8,3.6,30.5,20.9,30.8,21.1c0.1,0.1,1,0.5,1.9,0.5c0.7,0,1.3-0.2,1.8-0.7C47.9,44.1,47.5,42.4,46.9,41.5
		z"/>
</g>
</svg>
