<?xml version="1.0" encoding="utf-8"?>
<!-- Generator: Adobe Illustrator 18.0.0, SVG Export Plug-In . SVG Version: 6.00 Build 0)  -->
<!DOCTYPE svg PUBLIC "-//W3C//DTD SVG 1.1//EN" "http://www.w3.org/Graphics/SVG/1.1/DTD/svg11.dtd">
<svg version="1.1" id="Layer_1" xmlns="http://www.w3.org/2000/svg" xmlns:xlink="http://www.w3.org/1999/xlink" x="0px" y="0px"
	 viewBox="0 0 48 48" enable-background="new 0 0 48 48" xml:space="preserve">
<g>
	<ellipse fill="#010101" cx="32.6" cy="29" rx="1.9" ry="0.8"/>
	<ellipse fill="#010101" cx="26.8" cy="27" rx="2.9" ry="1.2"/>
	<path fill="#E8B944" d="M16.8,12.2c0.5,0,1-0.4,1-1V5c0-0.5-0.4-1-1-1c-0.5,0-1,0.4-1,1v6.3C15.8,11.8,16.2,12.2,16.8,12.2z"/>
	<path fill="#E8B944" d="M24,12.2c0.5,0,1-0.4,1-1V1.5c0-0.5-0.4-1-1-1c-0.5,0-1,0.4-1,1v9.7C23,11.8,23.5,12.2,24,12.2z"/>
	<path fill="#E8B944" d="M31.2,12.2c0.5,0,1-0.4,1-1V5c0-0.5-0.4-1-1-1c-0.5,0-1,0.4-1,1v6.3C30.2,11.8,30.7,12.2,31.2,12.2z"/>
	<path fill="#010101" d="M37.3,25.4c0.1-0.1,0.2-0.2,0.2-0.3c0.1-0.1,0.3-0.2,0.4-0.3c0.2-0.2,0.5-0.4,0.7-0.5
		c-3.2-2.2-8.5-3.7-14.6-3.7c-8.2,0-14.9,2.6-17,6.1c0.2,0.1,0.3,0.2,0.4,0.4c0.3,0.4,0.7,0.7,1.1,0.9c1.2-2.8,7.1-5.5,15.4-5.5
		c5.8,0,10.4,1.3,13.1,3C37.2,25.5,37.2,25.4,37.3,25.4z"/>
	<path fill="#06728D" d="M24,14.4c-13.2,0-23.5,4.8-23.5,11C0.5,37.6,11,47.5,24,47.5s23.5-9.9,23.5-22.1
		C47.5,19.2,37.2,14.4,24,14.4z M41.8,30.4c-0.1,0.1-0.3,0.2-0.4,0.2c-0.2,0.1-0.4,0.2-0.6,0.4c-0.1,0.1-0.3,0.1-0.4,0.1
		c-0.9,0.4-1.8,0.8-2.7,1.2c0,0-0.1,0-0.1,0c0,0,0,0-0.1,0c-3.7,1.3-8.5,2.1-13.5,2.1c-5.1,0-9.9-0.8-13.6-2.1c0,0-0.1,0-0.1,0
		c-1.3-0.5-2.6-0.9-3.7-1.7c-2.6-1.5-4.1-3.3-4.1-5.2c0-4.9,9.9-9,21.5-9s21.5,4.1,21.5,9c0,1.8-1.3,3.4-3.4,4.8
		C42,30.3,42,30.3,41.8,30.4z"/>
	<ellipse fill="#F7A93B" cx="23.9" cy="27" rx="17.2" ry="6.8"/>
	<ellipse fill="#FFFFFF" cx="27.9" cy="24.7" rx="3.1" ry="1.4"/>
	<ellipse fill="#FFFFFF" cx="34.4" cy="26.5" rx="1.8" ry="0.8"/>
</g>
</svg>
