<?xml version="1.0" encoding="utf-8"?>
<!-- Generator: Adobe Illustrator 18.0.0, SVG Export Plug-In . SVG Version: 6.00 Build 0)  -->
<!DOCTYPE svg PUBLIC "-//W3C//DTD SVG 1.1//EN" "http://www.w3.org/Graphics/SVG/1.1/DTD/svg11.dtd">
<svg version="1.1" id="Layer_1" xmlns="http://www.w3.org/2000/svg" xmlns:xlink="http://www.w3.org/1999/xlink" x="0px" y="0px"
	 viewBox="0 0 48 48" enable-background="new 0 0 48 48" xml:space="preserve">
<g>
	<path fill="#0DB89A" d="M47.1,13.5c-0.7-1.6-2.2-2.6-3.8-2.6c-0.5,0-1,0.1-1.5,0.3c-0.5,0.2-5.1,2.7-11,6c5.6-10.3,5.9-10.8,5.9-11
		c0.4-1,0.4-2,0-3.1c-0.4-1-1.2-1.8-2.2-2.2c-2.1-1-4.6-0.2-5.5,1.7c-0.1,0.2-0.4,0.9-7.4,19.6C11.7,27.6,1.8,33.1,1,33.5
		c-0.4,0.2-0.6,0.8-0.4,1.3c0.2,0.4,0.5,0.6,0.9,0.6c0.1,0,0.2,0,0.3-0.1c0.7-0.3,8.5-3.2,17.3-6.5c-3.4,9.2-6.4,17.3-6.4,17.3
		c-0.2,0.5,0,1,0.5,1.2c0.1,0.1,0.3,0.1,0.4,0.1c0.3,0,0.7-0.2,0.9-0.5c0,0,5.7-10.3,11.3-20.6c9.7-3.7,18.9-7.1,19.6-7.4
		c1-0.4,1.7-1.3,2-2.3C47.6,15.6,47.5,14.5,47.1,13.5z"/>
</g>
</svg>
