<?xml version="1.0" encoding="utf-8"?>
<!-- Generator: Adobe Illustrator 18.0.0, SVG Export Plug-In . SVG Version: 6.00 Build 0)  -->
<!DOCTYPE svg PUBLIC "-//W3C//DTD SVG 1.1//EN" "http://www.w3.org/Graphics/SVG/1.1/DTD/svg11.dtd">
<svg version="1.1" id="Layer_1" xmlns="http://www.w3.org/2000/svg" xmlns:xlink="http://www.w3.org/1999/xlink" x="0px" y="0px"
	 viewBox="0 0 48 48" enable-background="new 0 0 48 48" xml:space="preserve">
<g>
	<path fill="#4DA0D8" d="M37,2.9l-5.8-2.3c-0.5-0.2-1,0-1.3,0.5l-3.3,6.6H11.4c-0.3,0-0.6,0.2-0.8,0.4c-0.2,0.3-0.2,0.6-0.1,0.9
		c0,0.1,2.7,5.6,5.3,12.7c0,0,0,0,0,0c0,0,0,0,0,0c2.5,7.3,4.1,13.6,4.6,18.6c-3,0.3-5.7,1.5-5.7,3.5c0,2.3,3.6,3.6,7.1,3.6
		c3.5,0,7.1-1.2,7.1-3.6c0-2-2.7-3.2-5.7-3.5c0.5-5.1,2.1-11.3,4.6-18.6c0,0,0,0,0,0c0,0,0,0,0,0C30.3,14.7,32.9,9.1,33,9
		c0.1-0.3,0.1-0.6-0.1-0.9c-0.2-0.3-0.5-0.4-0.8-0.4h-3.2l2.5-5l5,2c0.5,0.2,1.1,0,1.3-0.5C37.7,3.7,37.5,3.1,37,2.9z M12.9,9.6
		h12.8l-5.3,10.8h-3.1C15.6,15.6,13.8,11.6,12.9,9.6z M26.8,43.9c0,0.5-1.7,1.7-5.1,1.7s-5.1-1.2-5.1-1.7c0-0.4,1.3-1.4,4-1.6
		c0,0.7,0.1,1.3,0.1,1.9c0,0.6,0.5,1.1,1.1,1.1c0.6,0,1.1-0.5,1.1-1.1c0-0.6,0-1.3,0.1-1.9C25.5,42.5,26.8,43.5,26.8,43.9z
		 M30.5,9.6c-0.9,2-2.7,6-4.4,10.8h-3.5l5.3-10.8H30.5z"/>
</g>
</svg>
