<?xml version="1.0" encoding="utf-8"?>
<!-- Generator: Adobe Illustrator 18.0.0, SVG Export Plug-In . SVG Version: 6.00 Build 0)  -->
<!DOCTYPE svg PUBLIC "-//W3C//DTD SVG 1.1//EN" "http://www.w3.org/Graphics/SVG/1.1/DTD/svg11.dtd">
<svg version="1.1" id="Layer_1" xmlns="http://www.w3.org/2000/svg" xmlns:xlink="http://www.w3.org/1999/xlink" x="0px" y="0px"
	 viewBox="0 0 48 48" enable-background="new 0 0 48 48" xml:space="preserve">
<g>
	<path fill="#E77528" d="M19.4,15.1c-0.2,0-0.3,0-0.4-0.1c-0.2-0.1-0.5-0.3-0.6-0.5c-0.1-0.2-0.1-0.5,0.1-0.7
		c0.1-0.1,1.8-1.9,2.9-2.7c0.4-0.3,0.8-1.2,0.4-3.4c0-0.1-0.3-0.6-1.2-1.3c-4.2-2-7-1.8-9.2-1.7c-0.3,0-0.6,0-0.9,0c0,0,0,0-0.1,0
		C9.5,4.8,8.5,5,7.5,5.1C6.5,5.2,5.7,5.3,5,5.5c0,0,0,0,0,0c0,0,0,0,0,0c0,0,0,0,0,0C2.4,6,0.7,7.5,0.5,8.7c0,0.1,0,0.1,0,0.2l0,0.2
		c0,0.8-0.1,2.4,1.9,4.4c-0.5,0.4-1,0.9-1.2,1.5c-0.3,0.8-0.6,7.3-0.7,9.2c0,0.2-0.1,5.9,3.7,7c3.4,0.9,8.7,1.3,8.9,1.3h4.4
		c0.7,0,1.4-0.1,2.1-0.2c0.1-0.1,0.2-0.3,0.3-0.5c0.5-1.2,0.7-2.9,0.7-3.5c-0.1-2.8,0-12,0-12.1C20.7,16.1,20.6,15.1,19.4,15.1z
		 M6.8,23.2c-0.9,0-1.5-0.6-1.5-1.4c0-0.8,0.7-1.4,1.5-1.4c0.9,0,1.5,0.6,1.5,1.4C8.3,22.5,7.6,23.2,6.8,23.2z M7.7,15.3
		c-0.5,0-0.9-0.4-0.9-0.8c0-0.5,0.4-0.8,0.9-0.8c0.5,0,0.9,0.4,0.9,0.8C8.6,15,8.2,15.3,7.7,15.3z M13.9,9.1c0.6,0,1,0.4,1,1
		c0,0.5-0.5,1-1,1c-0.6,0-1-0.4-1-1C12.8,9.5,13.3,9.1,13.9,9.1z M14.2,27.5c-0.8,0-1.4-0.6-1.4-1.3c0-0.7,0.6-1.3,1.4-1.3
		c0.8,0,1.4,0.6,1.4,1.3C15.6,27,14.9,27.5,14.2,27.5z M14.2,19.6c-0.8,0-1.5-0.6-1.5-1.4c0-0.7,0.7-1.4,1.5-1.4
		c0.8,0,1.5,0.6,1.5,1.4C15.7,19,15.1,19.6,14.2,19.6z"/>
	<path fill="#E8B944" d="M22.2,28.3c0,0.8-0.2,2.3-0.7,3.6c0.9-0.3,1.5-0.5,1.7-0.6c3.8-0.8,8.6-1.8,10.6-2.4
		c3.5-1.1,2.5-8.3,1.9-12.2l-0.1-0.5c-0.3-1.9-1.2-2.6-2.1-2.9c0.3-0.3,0.6-0.7,1.1-1.1c0.9-1,1.8-2.1,1.7-3.4
		c-0.1-1.1-0.9-2.1-2.3-3.2c-1.7-1.2-7-1.5-11.2-1.5c-1.3,0-2.7,0-4.1,0.1c0.8,0.3,1.7,0.6,2.7,1.1c0.1,0,0.1,0.1,0.2,0.1
		c1,0.9,1.6,1.6,1.7,2.2c0.4,2.3,0.1,3.8-0.9,4.6c-0.5,0.5-1.3,1.2-1.9,1.8c1.1,0.5,1.5,1.6,1.6,2.3C22.2,16.3,22.1,25.6,22.2,28.3z
		"/>
	<path fill="#F04B36" d="M37.6,29.3c-0.4-0.3-1.1-0.1-1.5,0.3c-0.4,0.5-0.9,1-1.5,1.5c-0.5,0.5-1.1,0.9-1.7,1.3
		c-0.5,0.3-0.7,1-0.5,1.4l4.8,9.6c0.2,0.5,0.9,0.7,1.4,0.5c1.7-0.7,3.3-1.7,4.8-2.9c1.4-1.3,2.6-2.7,3.4-4.3
		c0.3-0.5,0.1-1.2-0.3-1.5L37.6,29.3z"/>
	<path fill="#0DB89A" d="M27.2,36.9c-1.6-0.1-3.6-0.2-4.9-0.5c-0.8-0.2-1.2,0.1-0.7,0.6c0.8,1,1.7,1.9,2.8,2.8
		c0.9,0.7,2.1,1.2,3.3,1.7L27.2,37C27.2,37,27.2,36.9,27.2,36.9z"/>
	<path fill="#F7A93B" d="M29.3,35.6c-0.6,0.2-1,0.7-0.9,1.3l0.6,5.3c0.1,0.5,0.5,1.1,1.1,1.1c1.7,0.2,3.9,0.4,5.8,0.1l-4.4-8.8
		C30.8,35,30,35.4,29.3,35.6z"/>
	<path fill="#0DB89A" d="M41.7,24.6l4.4,1.1c-0.3-1.2-0.7-2.5-1.2-3.5c-0.7-1.2-1.5-2.3-2.3-3.2c-0.5-0.5-0.8-0.2-0.7,0.6
		c0.1,1.3,0,3.3-0.2,4.9C41.6,24.5,41.7,24.5,41.7,24.6z"/>
	<path fill="#F7A93B" d="M47.5,28.3c0-0.5-0.4-1.1-0.9-1.2l-5.2-1.4c-0.5-0.1-1.1,0.2-1.4,0.7c-0.3,0.7-0.9,1.4-1.4,2.1l8.2,5.4
		C47.3,32,47.4,30,47.5,28.3z"/>
</g>
</svg>
