<?xml version="1.0" encoding="utf-8"?>
<!-- Generator: Adobe Illustrator 18.0.0, SVG Export Plug-In . SVG Version: 6.00 Build 0)  -->
<!DOCTYPE svg PUBLIC "-//W3C//DTD SVG 1.1//EN" "http://www.w3.org/Graphics/SVG/1.1/DTD/svg11.dtd">
<svg version="1.1" id="Layer_1" xmlns="http://www.w3.org/2000/svg" xmlns:xlink="http://www.w3.org/1999/xlink" x="0px" y="0px"
	 viewBox="0 0 48 48" enable-background="new 0 0 48 48" xml:space="preserve">
<g>
	<path fill="#F04B36" d="M37.2,27.2c-0.5,0-0.9,0-1.4,0.1c0.3,1.5,0.6,3.1,0.7,4.7c0,0.6-0.4,1.1-1,1.1c0,0,0,0-0.1,0
		c-0.5,0-1-0.4-1-1c-0.1-1.5-0.3-2.9-0.6-4.3c-3.9,1.4-6.7,5.1-6.7,9.5c0,5.6,4.5,10.1,10.1,10.1c5.6,0,10.1-4.5,10.1-10.1
		C47.3,31.7,42.7,27.2,37.2,27.2z"/>
	<path fill="#F04B36" d="M16.6,32.4c-0.2,0-0.4,0-0.5-0.1c-0.5-0.3-0.6-0.9-0.4-1.4c0.6-1,1.1-1.9,1.6-2.9c-1.1-0.4-2.3-0.7-3.6-0.7
		c-5.6,0-10.1,4.5-10.1,10.1c0,5.6,4.5,10.1,10.1,10.1c5.6,0,10.1-4.5,10.1-10.1c0-3.6-1.9-6.7-4.6-8.5c-0.5,1-1,2-1.7,3.1
		C17.3,32.2,17,32.4,16.6,32.4z"/>
	<path fill="#0DB89A" d="M31.9,17C44.7,20.3,47.5,3.5,47.5,3.5c-14.7-0.1-17,7-17.2,10.8c-5-7.9-11.1-13.1-11.5-13.4
		c-0.4-0.4-1.1-0.3-1.4,0.1c-0.4,0.4-0.3,1.1,0.1,1.4c0.1,0,1.9,1.6,4.4,4.2c-0.1,0.1-0.1,0.3-0.1,0.4c0,0.1,0.2,3-0.4,7.2
		c-1.9-2.7-8.1-8.7-20.8,1.3c0,0,12.4,11.2,20.4,1.2c-0.6,3.3-1.7,7.2-3.6,11c0.6,0.2,1.3,0.6,1.8,0.9c4-8.2,4.6-16.3,4.6-19.9
		c3.8,4.6,8.3,11.2,10,18.9c0.6-0.2,1.3-0.4,2-0.5C35,23.6,33.5,20.1,31.9,17z"/>
</g>
</svg>
