<?xml version="1.0" encoding="utf-8"?>
<!-- Generator: Adobe Illustrator 18.0.0, SVG Export Plug-In . SVG Version: 6.00 Build 0)  -->
<!DOCTYPE svg PUBLIC "-//W3C//DTD SVG 1.1//EN" "http://www.w3.org/Graphics/SVG/1.1/DTD/svg11.dtd">
<svg version="1.1" id="Layer_1" xmlns="http://www.w3.org/2000/svg" xmlns:xlink="http://www.w3.org/1999/xlink" x="0px" y="0px"
	 viewBox="0 0 48 48" enable-background="new 0 0 48 48" xml:space="preserve">
<g>
	<path fill="#F7A93B" d="M44.1,23.7c-2.9-3.7-7.2-5.9-10.3-9.4c-1.1-1.3-2.1-3.1-3.5-4.2c-1.4-1.2-3-1.3-4.7-2h-0.7
		c-4.7,0-7.2,0.8-11,3.3c-1.5,0.9-3.3,1.7-4.4,2.9c-1,1.1-1.5,2.5-2.5,3.6c-2.2,2.5-4.2,3.1-5.3,6.4c-0.7,2-1.5,4.8-0.8,7
		c2,5.7,8.6,6.9,13.8,6.7c6-0.2,12.1-0.7,17.9,0.5c3.6,0.7,10.8,2.9,13.2-0.8C48.9,33.1,47.4,27.9,44.1,23.7z M24,32.1
		c-5,0-9-3.6-9-8.1c0-4.5,4-8.1,9-8.1c5,0,9,3.6,9,8.1C33,28.5,29,32.1,24,32.1z"/>
</g>
</svg>
