<?xml version="1.0" encoding="utf-8"?>
<!-- Generator: Adobe Illustrator 18.0.0, SVG Export Plug-In . SVG Version: 6.00 Build 0)  -->
<!DOCTYPE svg PUBLIC "-//W3C//DTD SVG 1.1//EN" "http://www.w3.org/Graphics/SVG/1.1/DTD/svg11.dtd">
<svg version="1.1" id="Layer_1" xmlns="http://www.w3.org/2000/svg" xmlns:xlink="http://www.w3.org/1999/xlink" x="0px" y="0px"
	 viewBox="0 0 48 48" enable-background="new 0 0 48 48" xml:space="preserve">
<g>
	<path fill="#0DB89A" d="M46.5,0.5c-0.5,0-1,0.4-1,1v25.8h-8.1v-6.4h3.8c0.5,0,1-0.4,1-1c0-0.5-0.4-1-1-1h-4.8H11.1H6.3
		c-0.5,0-1,0.4-1,1c0,0.5,0.4,1,1,1h3.8v6.4H2.5V1.5c0-0.5-0.4-1-1-1c-0.5,0-1,0.4-1,1v45c0,0.5,0.4,1,1,1c0.5,0,1-0.4,1-1V29.3h7.7
		v17.2c0,0.5,0.4,1,1,1c0.5,0,1-0.4,1-1V29.3h4.6v17.2c0,0.5,0.4,1,1,1c0.5,0,1-0.4,1-1V28.3c0-0.5-0.4-1-1-1h-5.6v-6.4h23.5v6.4
		h-5.2c-0.5,0-1,0.4-1,1v18.2c0,0.5,0.4,1,1,1c0.5,0,1-0.4,1-1V29.3h4.2v17.2c0,0.5,0.4,1,1,1c0.5,0,1-0.4,1-1V29.3h8.1v17.2
		c0,0.5,0.4,1,1,1c0.5,0,1-0.4,1-1v-45C47.5,0.9,47.1,0.5,46.5,0.5z"/>
	<path fill="#F04B36" d="M11.1,14.5h9.2c0.5,0,1-0.4,1-1c0-0.5-0.4-1-1-1h-9.2c-0.5,0-1,0.4-1,1C10.1,14,10.6,14.5,11.1,14.5z"/>
	<path fill="#F04B36" d="M28.8,14.5h9.2c0.5,0,1-0.4,1-1c0-0.5-0.4-1-1-1h-9.2c-0.5,0-1,0.4-1,1C27.8,14,28.3,14.5,28.8,14.5z"/>
</g>
</svg>
