<?xml version="1.0" encoding="utf-8"?>
<!-- Generator: Adobe Illustrator 18.0.0, SVG Export Plug-In . SVG Version: 6.00 Build 0)  -->
<!DOCTYPE svg PUBLIC "-//W3C//DTD SVG 1.1//EN" "http://www.w3.org/Graphics/SVG/1.1/DTD/svg11.dtd">
<svg version="1.1" id="Layer_1" xmlns="http://www.w3.org/2000/svg" xmlns:xlink="http://www.w3.org/1999/xlink" x="0px" y="0px"
	 viewBox="0 0 48 48" enable-background="new 0 0 48 48" xml:space="preserve">
<g>
	<path fill="#F7A93B" d="M31.4,5.6c-2.9-1.3-5.9-2-8.9-2C12.2,3.6,5,12,5,12l-0.3,0.3c-2.6,2.3-4.4,6.8-4.1,10.3
		c0.1,1,0.4,2.4,1.3,3c0.6,0.4,1.8,0.8,4.7,0.8c2.2,0,4.6-0.2,7-0.5c2.2-0.2,4.4-0.4,6.2-0.4c1.6,0,2.8,0.2,3.8,0.5
		c3,1,4.4,2.8,5.6,4.4c1.1,1.4,2.3,3,5.2,4.8c1.4,0.9,3.2,1.4,5.2,1.4h0c3.8,0,7.3-1.9,7.6-4.2C47.8,26.8,49.4,13.7,31.4,5.6z
		 M19.3,14.5c0,0.2,0,0.4,0,0.6c0,0.6-0.1,1.3-0.3,1.9c0,0.2-0.1,0.3-0.1,0.5c-0.2,0.7-0.4,1.6-1.1,2.2c-0.6,0.6-1.6,1.2-2.6,1.2h0
		c-0.7,0-1.2-0.2-1.6-0.4c-0.3-0.1-0.5-0.2-0.7-0.3c-0.3,0-0.5,0-0.8,0c-1.5,0-4.1,0-4.8-2.7c-0.2-0.7-0.2-2.4,0.2-3.2
		c0.4-0.7,2.2-2.3,3.3-2.3l0.1,0l0.1,0c0.2,0,0.5,0,0.6,0c0,0,0.1-0.1,0.1-0.1c0.8-1.4,2.3-1.5,3.1-1.6c0.6,0,1.2,0,1.6,0.1
		c0.1,0,0.2,0,0.3,0.1c0.5,0.1,1.2,0.2,1.7,0.5C19.6,11.9,19.4,13.5,19.3,14.5z"/>
	<path fill="#E77528" d="M39.5,38.7c-2.3,0-4.5-0.6-6.3-1.7c-3.1-1.9-4.6-3.8-5.7-5.2c-1.2-1.5-2.3-2.9-4.7-3.8
		c-0.8-0.3-1.8-0.4-3.1-0.4c-1.7,0-3.8,0.2-6,0.4c-2.5,0.2-4.9,0.5-7.2,0.5c-2.7,0-4.6-0.4-5.8-1.1c0.3,2.4,0.9,4.5,2.3,5.5
		c4.4,3.3,16-0.7,19.7,0.7c3.8,1.5,3.3,4.9,9,8.9c5.7,4,14.8,1.1,15.5-5.1c0-0.5,0.1-1,0.1-1.5C45.6,37.6,42.7,38.7,39.5,38.7z"/>
</g>
</svg>
