<?xml version="1.0" encoding="utf-8"?>
<!-- Generator: Adobe Illustrator 18.0.0, SVG Export Plug-In . SVG Version: 6.00 Build 0)  -->
<!DOCTYPE svg PUBLIC "-//W3C//DTD SVG 1.1//EN" "http://www.w3.org/Graphics/SVG/1.1/DTD/svg11.dtd">
<svg version="1.1" id="Layer_1" xmlns="http://www.w3.org/2000/svg" xmlns:xlink="http://www.w3.org/1999/xlink" x="0px" y="0px"
	 viewBox="0 0 48 48" enable-background="new 0 0 48 48" xml:space="preserve">
<g>
	<path fill="#E77528" d="M18.9,7.6c0.6,0,1-0.4,1-1c0-2.3,1.8-4.1,4.1-4.1c2.2,0,4.1,1.8,4.1,4.1c0,0.6,0.4,1,1,1s1-0.4,1-1
		c0-3.4-2.7-6.1-6.1-6.1s-6.1,2.7-6.1,6.1C17.9,7.1,18.4,7.6,18.9,7.6z"/>
	<path fill="#E8B944" d="M35.6,28.7v-0.2C34.1,28,33,26.7,33,25c0-1.6,1.1-3,2.6-3.4v-3.4c0-1.5-1-2.8-2.4-3.1l-6.2-6.7h-5.9
		l-6.2,6.7c-1.4,0.4-2.4,1.6-2.4,3.1v3.4c1.5,0.4,2.6,1.8,2.6,3.4c0,1.6-1.1,3-2.6,3.4v0.2c-1.1,0.3-2,1.3-2,2.6
		c0,1.2,0.9,2.3,2,2.6v10.4c0,1.8,1.4,3.2,3.2,3.2h16.7c1.8,0,3.2-1.4,3.2-3.2V33.8c1.2-0.3,2-1.3,2-2.6C37.6,30,36.7,29,35.6,28.7z
		 M28.2,39.1h-8.4c-0.6,0-1-0.4-1-1c0-0.6,0.4-1,1-1h8.4c0.6,0,1,0.4,1,1C29.2,38.6,28.8,39.1,28.2,39.1z M28.2,33.4h-8.4
		c-0.6,0-1-0.4-1-1c0-0.6,0.4-1,1-1h8.4c0.6,0,1,0.4,1,1C29.2,32.9,28.8,33.4,28.2,33.4z"/>
</g>
</svg>
