<?xml version="1.0" encoding="utf-8"?>
<!-- Generator: Adobe Illustrator 18.0.0, SVG Export Plug-In . SVG Version: 6.00 Build 0)  -->
<!DOCTYPE svg PUBLIC "-//W3C//DTD SVG 1.1//EN" "http://www.w3.org/Graphics/SVG/1.1/DTD/svg11.dtd">
<svg version="1.1" id="Layer_1" xmlns="http://www.w3.org/2000/svg" xmlns:xlink="http://www.w3.org/1999/xlink" x="0px" y="0px"
	 viewBox="0 0 48 48" enable-background="new 0 0 48 48" xml:space="preserve">
<g>
	<path fill="#E77528" d="M18.8,5.5v5.2h16.6V5.4c-2.7-0.3-5.3-0.5-8-0.5C24.5,4.9,21.7,5.1,18.8,5.5z"/>
	<rect x="18.8" y="19.3" fill="#E77528" width="16.6" height="4.7"/>
	<rect x="18.8" y="12.7" fill="#E77528" width="16.6" height="4.7"/>
	<path fill="#F7A93B" d="M46.8,7.9c-2.7-0.9-5.5-1.6-8.3-2.1c-0.4-0.1-0.7-0.1-1.1-0.2v5h10.1V8.8C47.5,8.4,47.2,8,46.8,7.9z"/>
	<rect x="37.4" y="12.7" fill="#F7A93B" width="10.1" height="4.7"/>
	<rect x="37.4" y="19.3" fill="#F7A93B" width="10.1" height="4.7"/>
	<rect x="37.4" y="26" fill="#F7A93B" width="10.1" height="4.3"/>
	<rect x="7.4" y="12.7" fill="#F7A93B" width="9.5" height="4.7"/>
	<path fill="#06728D" d="M18.8,37.4c2.8,0.4,5.7,0.6,8.6,0.6c2.7,0,5.4-0.2,8-0.5v-5.3H18.8V37.4z"/>
	<path fill="#F04B36" d="M7.4,34.1c0,0.4,0.3,0.8,0.7,0.9c1.4,0.4,2.8,0.8,4.2,1.2v6c0,0.5,0.4,1,1,1c0.5,0,1-0.4,1-1v-5.5
		c0.9,0.2,1.8,0.4,2.7,0.5v-4.9H7.4V34.1z"/>
	<path fill="#F04B36" d="M37.4,37.2c0.4-0.1,0.8-0.1,1.1-0.2c0.7-0.1,1.4-0.3,2.1-0.4v5.5c0,0.5,0.4,1,1,1c0.5,0,1-0.4,1-1v-5.9
		c1.4-0.3,2.8-0.7,4.2-1.2c0.4-0.1,0.7-0.5,0.7-0.9v-1.9H37.4V37.2z"/>
	<rect x="7.4" y="19.3" fill="#F7A93B" width="9.5" height="4.7"/>
	<path fill="#F7A93B" d="M7.4,8.8v1.9h9.5V5.8C13.9,6.3,10.9,7,8,7.9C7.6,8,7.4,8.4,7.4,8.8z"/>
	<path fill="#F7A93B" d="M7.4,26H6.1v-2.9c0-0.5-0.4-1-1-1s-1,0.4-1,1V26c-2.1,0.2-3.7,1.7-3.7,3.4v2.4c0,0.5,0.4,1,1,1
		c0.5,0,1-0.4,1-1v-2.4c0-0.7,0.9-1.5,2.3-1.5h2.6v2.3h9.5V26L7.4,26L7.4,26z"/>
	<rect x="18.8" y="26" fill="#E77528" width="16.6" height="4.3"/>
</g>
</svg>
