<?xml version="1.0" encoding="utf-8"?>
<!-- Generator: Adobe Illustrator 18.0.0, SVG Export Plug-In . SVG Version: 6.00 Build 0)  -->
<!DOCTYPE svg PUBLIC "-//W3C//DTD SVG 1.1//EN" "http://www.w3.org/Graphics/SVG/1.1/DTD/svg11.dtd">
<svg version="1.1" id="Layer_1" xmlns="http://www.w3.org/2000/svg" xmlns:xlink="http://www.w3.org/1999/xlink" x="0px" y="0px"
	 viewBox="0 0 48 48" enable-background="new 0 0 48 48" xml:space="preserve">
<g>
	<path fill="#4DA0D8" d="M34.7,17.3H13.3c-2,0-3.6,1.7-3.6,3.8v5.6c0,2.1,1.6,3.8,3.6,3.8h21.4c2,0,3.6-1.7,3.6-3.8v-5.6
		C38.3,19,36.7,17.3,34.7,17.3z"/>
	<path fill="#E8B944" d="M34.7,15.4C34.7,15.4,34.8,15.4,34.7,15.4c0.1-1.1,0.1-2.1-0.1-3.2c-0.3-2.6-1.5-6.2-2.9-8.6
		c-1.9-3.2-5.7-3.5-8.3-2.8c-3.3,0.9-5,3.9-6.6,6.6l-0.1,0.1c-0.4,0.6-0.7,1.3-1,2c-0.4,0.8-0.7,1.5-1.1,2.1
		c-0.8,1.4-1.3,2.7-1.5,3.8c0,0,0.1,0,0.1,0H34.7z"/>
	<path fill="#E8B944" d="M11.2,31.9c-0.3,1.1-0.1,2.5,0,3.5c0,0.3,0,0.9,0,1.4c0,1,0,2.1,0.3,2.8c0.2,0.5,0.4,0.7,0.6,1
		c0.1,0.1,0.2,0.2,0.2,0.3c0,0.1,0,0.1,0,0.2c0,0.2,0,0.4,0.1,0.7c0.2,0.9,0.5,1.6,1.1,2.5c1.3,1.9,2.5,2.3,4.4,2.3
		c1,0,1.5,0,2.1,0.3c0.2,0.1,0.3,0.2,0.5,0.2c0.5,0.3,1,0.5,1.8,0.5c0.1,0,0.3,0,0.4,0c1-0.1,2.5-0.3,3.6-0.7
		c1.2-0.3,1.8-1.3,2.4-2.2c0.3-0.5,0.6-0.9,0.9-1.2c0.3-0.3,0.6-0.4,0.9-0.5c0.6-0.2,1.5-0.5,2-1.9c0.5-1.3,0.5-2.7,0.5-4
		c0-0.4,0-0.9,0-1.3c0-0.7,0.2-1.4,0.3-2.1c0.1-0.4,0.1-0.8,0.2-1.2H13.3C12.5,32.5,11.8,32.3,11.2,31.9z"/>
	<path fill="#294E58" d="M8,21.1C8,21.1,8,21.1,8,21.1l-6.6,0c-0.5,0-0.9,0.4-0.9,0.9v3.8c0,0.5,0.4,0.9,0.9,0.9H8l0,0V21.1z"/>
	<path fill="#294E58" d="M46.6,21.1H40c0,0,0,0,0,0v5.6l0,0h6.6c0.5,0,0.9-0.4,0.9-0.9v-3.8C47.5,21.5,47.1,21.1,46.6,21.1z"/>
</g>
</svg>
