<?xml version="1.0" encoding="utf-8"?>
<!-- Generator: Adobe Illustrator 18.0.0, SVG Export Plug-In . SVG Version: 6.00 Build 0)  -->
<!DOCTYPE svg PUBLIC "-//W3C//DTD SVG 1.1//EN" "http://www.w3.org/Graphics/SVG/1.1/DTD/svg11.dtd">
<svg version="1.1" id="Layer_1" xmlns="http://www.w3.org/2000/svg" xmlns:xlink="http://www.w3.org/1999/xlink" x="0px" y="0px"
	 viewBox="0 0 48 48" enable-background="new 0 0 48 48" xml:space="preserve">
<g>
	<path fill="#294E58" d="M2.5,33.1h-2v13.4c0,0.5,0.4,1,1,1h4.8c0.2,0,0.4-0.1,0.6-0.2l11-8.9h12l11,8.9c0.2,0.1,0.4,0.2,0.6,0.2
		h4.8c0.5,0,1-0.4,1-1V33.1h-2H2.5z"/>
	<path fill="#CFD0D1" d="M47.4,30L38.5,1.2c-0.1-0.4-0.5-0.7-0.9-0.7H10.4c-0.4,0-0.8,0.3-0.9,0.7l-8.9,29c-0.1,0.2,0,0.4,0,0.5v0.5
		h46.9v-0.4c0-0.1,0.1-0.2,0.1-0.3C47.5,30.3,47.5,30.1,47.4,30z M30.7,4.7h1.5c0.5,0,1,0.4,1,1c0,0.5-0.4,1-1,1h-1.5
		c-0.5,0-1-0.4-1-1C29.7,5.1,30.1,4.7,30.7,4.7z M14.3,4.7h1.5c0.5,0,1,0.4,1,1c0,0.5-0.4,1-1,1h-1.5c-0.5,0-1-0.4-1-1
		C13.3,5.1,13.8,4.7,14.3,4.7z M11.3,18.3c-0.5,0-1-0.4-1-1c0-0.5,0.4-1,1-1h1.5c0.5,0,1,0.4,1,1c0,0.5-0.4,1-1,1H11.3z M15.8,25.1
		h-1.5c-0.5,0-1-0.4-1-1c0-0.5,0.4-1,1-1h1.5c0.5,0,1,0.4,1,1C16.8,24.7,16.4,25.1,15.8,25.1z M18.3,11.9h-1.5c-0.5,0-1-0.4-1-1
		c0-0.5,0.4-1,1-1h1.5c0.5,0,1,0.4,1,1C19.3,11.4,18.9,11.9,18.3,11.9z M24,18.3h-1.5c-0.5,0-1-0.4-1-1c0-0.5,0.4-1,1-1H24
		c0.5,0,1,0.4,1,1C25,17.8,24.5,18.3,24,18.3z M24,6.6h-1.5c-0.5,0-1-0.4-1-1c0-0.5,0.4-1,1-1H24c0.5,0,1,0.4,1,1
		C25,6.2,24.5,6.6,24,6.6z M28.2,10.9c0-0.5,0.4-1,1-1h1.5c0.5,0,1,0.4,1,1c0,0.5-0.4,1-1,1h-1.5C28.6,11.9,28.2,11.4,28.2,10.9z
		 M32.2,25.1h-1.5c-0.5,0-1-0.4-1-1c0-0.5,0.4-1,1-1h1.5c0.5,0,1,0.4,1,1C33.1,24.7,32.7,25.1,32.2,25.1z M35.1,18.3h-1.5
		c-0.5,0-1-0.4-1-1c0-0.5,0.4-1,1-1h1.5c0.5,0,1,0.4,1,1C36.1,17.8,35.7,18.3,35.1,18.3z"/>
</g>
</svg>
