<?xml version="1.0" encoding="utf-8"?>
<!-- Generator: Adobe Illustrator 18.0.0, SVG Export Plug-In . SVG Version: 6.00 Build 0)  -->
<!DOCTYPE svg PUBLIC "-//W3C//DTD SVG 1.1//EN" "http://www.w3.org/Graphics/SVG/1.1/DTD/svg11.dtd">
<svg version="1.1" id="Layer_1" xmlns="http://www.w3.org/2000/svg" xmlns:xlink="http://www.w3.org/1999/xlink" x="0px" y="0px"
	 viewBox="0 0 48 48" enable-background="new 0 0 48 48" xml:space="preserve">
<g>
	<path fill="#F7A93B" d="M37.6,5.3l-6.8-4.6c-0.4-0.3-1-0.2-1.3,0.2l-6.5,9H10.9c-0.3,0-0.7,0.2-0.8,0.5c-0.2,0.3-0.2,0.7,0,1
		c0,0,2.3,3.9,2.9,9.3c0,0.2,0.1,0.3,0.2,0.4c0.1,2.2-0.2,4.3-0.7,6.2c-0.2,0.5-0.3,0.9-0.4,1.3c0,0.1,0,0.1,0,0.2
		c-0.1,0.7-0.2,1.4-0.2,2.2c0,5.4,4.1,9.9,9.3,10.6v4h-4.4c-0.5,0-1,0.4-1,1c0,0.5,0.4,1,1,1h11.5c0.5,0,1-0.4,1-1c0-0.5-0.4-1-1-1
		h-4.4v-4c5.2-0.7,9.3-5.1,9.3-10.6c0-0.7-0.1-1.5-0.2-2.2h0c0,0,0-0.1,0-0.1c0,0,0,0,0,0c-0.1-0.4-0.2-0.8-0.4-1.2
		c-0.6-2-0.8-4.2-0.7-6.4c0,0,0-0.1,0-0.1c0-0.1,0-0.1,0.1-0.2c0.6-5.3,2.9-9.3,2.9-9.3c0.2-0.3,0.2-0.7,0-1
		c-0.2-0.3-0.5-0.5-0.8-0.5h-8.4l5.1-7.1l6,4.1c0.4,0.3,1.1,0.2,1.4-0.3C38.2,6.2,38.1,5.6,37.6,5.3z M16.3,19.6h-1.5
		c-0.5-3.4-1.6-6.2-2.3-7.7h9.1l-5.1,7.1C16.4,19.1,16.3,19.3,16.3,19.6z M32.3,11.8c-0.7,1.6-1.8,4.3-2.3,7.7H18.5l5.6-7.7H32.3z"
		/>
</g>
</svg>
