<?xml version="1.0" encoding="utf-8"?>
<!-- Generator: Adobe Illustrator 18.0.0, SVG Export Plug-In . SVG Version: 6.00 Build 0)  -->
<!DOCTYPE svg PUBLIC "-//W3C//DTD SVG 1.1//EN" "http://www.w3.org/Graphics/SVG/1.1/DTD/svg11.dtd">
<svg version="1.1" id="Layer_1" xmlns="http://www.w3.org/2000/svg" xmlns:xlink="http://www.w3.org/1999/xlink" x="0px" y="0px"
	 viewBox="0 0 48 48" enable-background="new 0 0 48 48" xml:space="preserve">
<g>
	<path fill="#F04B36" d="M33.4,8.5C33.4,8.5,33.4,8.5,33.4,8.5c0.6,0,1-0.4,1.1-0.9l0.5-6.1c0-0.5-0.4-1-0.9-1c-0.5,0-1,0.3-1.1,0.9
		l-0.5,6.1C32.4,8,32.8,8.5,33.4,8.5z"/>
	<path fill="#4DA0D8" d="M47.3,32.2c-0.2-0.3-0.5-0.4-0.8-0.4h-45c-0.3,0-0.6,0.2-0.8,0.4c-0.2,0.3-0.2,0.6-0.1,0.9
		c0.5,1.2,1.9,4.7,2.1,5.9c0.6,3.4,3.4,5.9,7,6.3l-0.2,1.1c-0.1,0.3,0,0.6,0.2,0.8c0.2,0.2,0.5,0.3,0.8,0.3h27.2
		c0.3,0,0.6-0.1,0.8-0.3c0.2-0.2,0.3-0.5,0.2-0.8l-0.2-1.1c3.6-0.4,6.4-2.9,7-6.3c0.2-1.2,1.6-4.7,2.1-5.9
		C47.6,32.8,47.5,32.5,47.3,32.2z"/>
	<path fill="#F04B36" d="M44.6,29.9c0.5-1.6,0.8-3.2,0.8-4.9c0-6.6-4.3-12-9.9-12.9c0.1-0.6,0.5-4.2,4-4.9C40.1,7,40.5,6.5,40.3,6
		c-0.1-0.5-0.6-0.8-1.2-0.7c-3.6,0.8-5.1,3.8-5.5,5.9h-0.2C32.1,6.5,28.2,4.1,28,4c-0.5-0.3-1.1-0.1-1.4,0.3c-0.3,0.4-0.2,1,0.3,1.3
		c0,0,3.7,2.3,4.8,6.6c-5.3,1.2-9.3,6.5-9.3,12.8c0,1.7,0.3,3.4,0.9,4.9H44.6z M38.8,19.9c0.3-0.4,0.9-0.6,1.3-0.3l0.8,0.5
		c0.5,0.3,0.6,0.8,0.3,1.3c-0.2,0.3-0.5,0.4-0.8,0.4c-0.2,0-0.4,0-0.5-0.1l-0.8-0.5C38.7,20.9,38.5,20.3,38.8,19.9z M38,25.2
		c0.3-0.4,0.9-0.6,1.3-0.3l0.8,0.5c0.5,0.3,0.6,0.8,0.3,1.3c-0.2,0.3-0.5,0.4-0.8,0.4c-0.2,0-0.4,0-0.5-0.1l-0.8-0.5
		C37.9,26.2,37.8,25.6,38,25.2z M32.7,16.7c0.3-0.4,0.9-0.6,1.3-0.3l0.8,0.5c0.5,0.3,0.6,0.8,0.3,1.3c-0.2,0.3-0.5,0.4-0.8,0.4
		c-0.2,0-0.4,0-0.5-0.1L33,18C32.6,17.7,32.4,17.1,32.7,16.7z M32.2,21.8c0.3-0.4,0.9-0.6,1.3-0.3l0.8,0.5c0.5,0.3,0.6,0.9,0.3,1.3
		c-0.2,0.3-0.5,0.4-0.8,0.4c-0.2,0-0.4,0-0.5-0.1l-0.8-0.5C32.1,22.8,31.9,22.2,32.2,21.8z M31.8,27.1c0.3-0.4,0.9-0.6,1.3-0.3
		l0.8,0.5c0.5,0.3,0.6,0.9,0.3,1.3c-0.2,0.3-0.5,0.4-0.8,0.4c-0.2,0-0.4,0-0.5-0.1l-0.8-0.5C31.7,28.1,31.5,27.5,31.8,27.1z
		 M27.4,18.8c0.3-0.4,0.9-0.6,1.3-0.3l0.8,0.5c0.5,0.3,0.6,0.9,0.3,1.3c-0.2,0.3-0.5,0.4-0.8,0.4c-0.2,0-0.4,0-0.5-0.1l-0.8-0.5
		C27.2,19.8,27.1,19.3,27.4,18.8z M26.6,24.3c0.3-0.4,0.9-0.6,1.3-0.3l0.8,0.5c0.5,0.3,0.6,0.8,0.3,1.3c-0.2,0.3-0.5,0.4-0.8,0.4
		c-0.2,0-0.4,0-0.5-0.1l-0.8-0.5C26.4,25.4,26.3,24.8,26.6,24.3z"/>
	<path fill="#F04B36" d="M1.6,21.2l3,0.1c-0.9,1.3-1.4,2.8-1.4,4.3c0,1.5,0.6,2.9,1.6,3.8c0.2,0.2,0.4,0.3,0.6,0.5h14.6
		c1-3.8-2-9.5-3.8-11.2c-1-1-2.5-1.5-4-1.5c-1.6,0-3.1,0.5-4.6,1.4l-0.1-2.9c0-0.5-0.5-0.9-1-0.9c-0.5,0-1,0.4-0.9,1l0.1,2.3
		l-1.4-1.3c-0.4-0.4-1-0.4-1.4,0c-0.4,0.4-0.4,1,0,1.3l1.4,1.3l-2.5-0.1c-0.5,0-1,0.4-1,0.9C0.6,20.7,1,21.2,1.6,21.2z M15.3,26
		c0.5-0.3,1.1-0.1,1.3,0.4l0.5,0.9c0.3,0.5,0.1,1-0.4,1.3c-0.1,0.1-0.3,0.1-0.5,0.1c-0.3,0-0.7-0.2-0.9-0.5L15,27.3
		C14.7,26.8,14.9,26.3,15.3,26z M12.2,20c0.5-0.2,1.1-0.1,1.3,0.4l0.5,0.9c0.3,0.5,0.1,1-0.4,1.3c-0.1,0.1-0.3,0.1-0.5,0.1
		c-0.3,0-0.7-0.2-0.9-0.5l-0.5-0.9C11.6,20.8,11.8,20.2,12.2,20z M10.1,24.4c0.4-0.4,1-0.4,1.4,0l0.9,0.8c0.4,0.4,0.4,1,0,1.3
		c-0.2,0.2-0.4,0.3-0.7,0.3c-0.2,0-0.5-0.1-0.7-0.3l-0.9-0.8C9.8,25.4,9.7,24.8,10.1,24.4z M6.2,25.7c0.3-0.5,0.8-0.6,1.3-0.4l1,0.5
		c0.5,0.2,0.7,0.8,0.4,1.3c-0.2,0.3-0.5,0.5-0.9,0.5c-0.2,0-0.3,0-0.5-0.1l-1-0.5C6.1,26.7,5.9,26.2,6.2,25.7z"/>
</g>
</svg>
