<?xml version="1.0" encoding="utf-8"?>
<!-- Generator: Adobe Illustrator 18.0.0, SVG Export Plug-In . SVG Version: 6.00 Build 0)  -->
<!DOCTYPE svg PUBLIC "-//W3C//DTD SVG 1.1//EN" "http://www.w3.org/Graphics/SVG/1.1/DTD/svg11.dtd">
<svg version="1.1" id="Layer_1" xmlns="http://www.w3.org/2000/svg" xmlns:xlink="http://www.w3.org/1999/xlink" x="0px" y="0px"
	 viewBox="0 0 48 48" enable-background="new 0 0 48 48" xml:space="preserve">
<g>
	<path fill="#E8B944" d="M27,32.9c-7.3,0-12.9,3.2-12.9,7.3c0,4.1,5.7,7.3,12.9,7.3c7.3,0,12.9-3.2,12.9-7.3
		C40,36.1,34.3,32.9,27,32.9z M23.2,39.4c-0.4,0.3-1.1,0.2-1.5-0.1c-0.4-0.3-0.3-0.7,0.1-1c0.4-0.3,1.1-0.2,1.5,0.1
		C23.7,38.7,23.7,39.1,23.2,39.4z M29.1,42.8c-0.7,0.4-1.9,0.4-2.5-0.1C26,42.2,26,41.4,26.8,41c0.7-0.4,1.9-0.4,2.5,0.1
		C30,41.6,29.9,42.4,29.1,42.8z M30.4,38.5c-0.4,0.2-1,0.2-1.4-0.1c-0.4-0.3-0.3-0.7,0.1-0.9c0.4-0.2,1-0.2,1.4,0.1
		C30.9,37.8,30.8,38.2,30.4,38.5z"/>
	<path fill="#F7A93B" d="M47.4,12.3L41.8,1c-0.2-0.3-0.4-0.5-0.8-0.5c-0.3,0-0.7,0.1-0.9,0.4l-3.9,5.2c-2-1.9-4.4-2.9-6.8-2.9
		c-1.2,0-2.3,0.3-3.3,0.8l-16,7.8c3.8,0.7,7.2,3.4,9.2,7.3c1.7,3.3,2,7.1,0.9,10.3c-0.2,0.5-0.4,1-0.6,1.5l16-7.8
		c3-1.5,4.7-4.9,4.4-8.8l6.5-0.4c0.3,0,0.6-0.2,0.8-0.5C47.5,12.9,47.5,12.6,47.4,12.3z"/>
	<path fill="#FFD69A" d="M18.4,28.6c0.9-2.7,0.6-5.9-0.8-8.8c-2-3.9-5.6-6.4-9.3-6.4c-1.2,0-2.3,0.3-3.3,0.8
		c-1.8,0.9-3.2,2.5-3.9,4.6c-0.9,2.7-0.6,5.9,0.8,8.8c2,3.9,5.6,6.4,9.3,6.4c1.2,0,2.3-0.3,3.3-0.8C16.3,32.4,17.7,30.7,18.4,28.6z
		 M5.8,22.3c-0.6-0.6-0.5-1.6,0.1-2.1c0.6-0.5,1.6-0.5,2.1,0.1c0.6,0.6,0.5,1.6-0.1,2.1C7.3,23,6.3,22.9,5.8,22.3z M10,28.4
		c-0.4,0.4-1.1,0.3-1.5-0.1c-0.4-0.4-0.3-1.1,0.1-1.5c0.4-0.4,1.1-0.3,1.5,0.1C10.5,27.3,10.4,28,10,28.4z M12.5,24.3
		c-0.3,0.3-0.7,0.2-1-0.1c-0.3-0.3-0.2-0.7,0.1-1c0.3-0.3,0.7-0.2,1,0.1C12.9,23.6,12.8,24,12.5,24.3z"/>
</g>
</svg>
