<?xml version="1.0" encoding="utf-8"?>
<!-- Generator: Adobe Illustrator 18.0.0, SVG Export Plug-In . SVG Version: 6.00 Build 0)  -->
<!DOCTYPE svg PUBLIC "-//W3C//DTD SVG 1.1//EN" "http://www.w3.org/Graphics/SVG/1.1/DTD/svg11.dtd">
<svg version="1.1" id="Layer_1" xmlns="http://www.w3.org/2000/svg" xmlns:xlink="http://www.w3.org/1999/xlink" x="0px" y="0px"
	 viewBox="0 0 48 48" enable-background="new 0 0 48 48" xml:space="preserve">
<g>
	<path fill="#4DA0D8" d="M47.2,36.1l-5.8-5.8c0-0.1,0-0.2,0-0.2C41.2,19.3,27.1,7.7,26.1,6.9c-1.2-1.1-2.7-1.8-4.4-1.8
		c-1.7,0-3.2,0.6-4.4,1.8l-5.9,5.9c-2.4,2.4-2.4,6.4,0,8.8l1.7,1.7l-2.5,2.5l-5-1c-0.3-0.1-0.7,0-0.9,0.3l-4.1,4.1
		c-0.4,0.4-0.4,1,0,1.4c0.2,0.2,0.4,0.3,0.7,0.3c0.3,0,0.5-0.1,0.7-0.3l3.7-3.7L9,27.5l-5,5c-0.4,0.4-0.4,1,0,1.4
		c0.2,0.2,0.4,0.3,0.7,0.3c0.3,0,0.5-0.1,0.7-0.3l5-5l0.6,3.2l-3.7,3.7c-0.4,0.4-0.4,1,0,1.4c0.2,0.2,0.4,0.3,0.7,0.3
		c0.3,0,0.5-0.1,0.7-0.3l4.1-4.1c0.2-0.2,0.3-0.6,0.3-0.9l-1-5l2.5-2.5l11.9,11.9c1.2,1.2,2.7,1.8,4.4,1.8c1.6,0,3-0.6,4.2-1.6
		l5.6,5.6c0.2,0.2,0.4,0.3,0.7,0.3c0.3,0,0.5-0.1,0.7-0.3l5.1-5.1C47.6,37.1,47.6,36.4,47.2,36.1z M26.2,21.4
		c-1.8,1.8-4.7,1.8-6.5,0c-1.8-1.8-1.8-4.7,0-6.5c1.8-1.8,4.7-1.8,6.5,0C28,16.7,28,19.6,26.2,21.4z"/>
</g>
</svg>
