<?xml version="1.0" encoding="utf-8"?>
<!-- Generator: Adobe Illustrator 18.0.0, SVG Export Plug-In . SVG Version: 6.00 Build 0)  -->
<!DOCTYPE svg PUBLIC "-//W3C//DTD SVG 1.1//EN" "http://www.w3.org/Graphics/SVG/1.1/DTD/svg11.dtd">
<svg version="1.1" id="Layer_1" xmlns="http://www.w3.org/2000/svg" xmlns:xlink="http://www.w3.org/1999/xlink" x="0px" y="0px"
	 viewBox="0 0 48 48" enable-background="new 0 0 48 48" xml:space="preserve">
<path fill="#4DA0D8" d="M47.3,2.3c-0.3-0.7-1.2-1.8-3.6-1.8H4.3C1.9,0.5,1,1.6,0.7,2.3C0.4,3,0.1,4.5,2,6.6l4.4,5.1l12.9,14.9
	c0.9,1,2,1.7,3.3,2v16.9h-4.5c-0.5,0-1,0.4-1,1c0,0.5,0.4,1,1,1h11.7c0.5,0,1-0.4,1-1c0-0.5-0.4-1-1-1h-4.5V28.6
	c1.2-0.3,2.4-1,3.3-2l13.7-15.7L46,6.6C47.9,4.5,47.6,3,47.3,2.3z M44.5,5.3l-3.3,3.8c0,0-0.1,0-0.1,0c0,0-0.1,0-0.1,0
	c-0.1,0-0.3-0.1-0.4-0.1c-0.1,0-0.1,0-0.2,0c-0.1,0-0.3,0-0.4,0c-0.1,0-0.1,0-0.2,0c-0.2,0-0.4,0-0.6,0c-1.1,0.2-1.8,0.9-2.4,1.5
	c-0.4,0.4-0.8,0.8-1.3,0.9c-0.1,0-0.1,0-0.2,0c-0.6-0.1-1.3-0.6-2-1.1c-0.8-0.5-1.6-1-2.3-1.2c-1.4-0.3-4.1,0-5.1,0.2
	c-1.5,0.3-2.7,0.8-3.8,1.3c-1.6,0.7-3.1,1.3-4.8,1c-0.6-0.1-1.4-0.6-2.1-1c-0.9-0.5-1.7-1-2.6-1.2c-0.1,0-0.2,0-0.4,0
	c0,0-0.1,0-0.1,0c0,0,0,0-0.1,0c-0.6,0-1.2,0.2-1.8,0.4C9.7,9.8,9.3,10,9.1,10c-0.3,0-0.6,0.1-0.9,0.1c-0.1,0-0.2,0-0.3,0
	c-0.1,0-0.2,0-0.3,0L3.5,5.3C2.5,4.2,2.4,3.4,2.5,3.1c0.2-0.4,0.9-0.6,1.8-0.6h39.3c0.9,0,1.6,0.2,1.8,0.6
	C45.6,3.4,45.5,4.2,44.5,5.3z"/>
</svg>
