<?xml version="1.0" encoding="utf-8"?>
<!-- Generator: Adobe Illustrator 18.0.0, SVG Export Plug-In . SVG Version: 6.00 Build 0)  -->
<!DOCTYPE svg PUBLIC "-//W3C//DTD SVG 1.1//EN" "http://www.w3.org/Graphics/SVG/1.1/DTD/svg11.dtd">
<svg version="1.1" id="Layer_1" xmlns="http://www.w3.org/2000/svg" xmlns:xlink="http://www.w3.org/1999/xlink" x="0px" y="0px"
	 viewBox="0 0 48 48" enable-background="new 0 0 48 48" xml:space="preserve">
<g>
	<rect x="2.1" y="28.8" fill="#06728D" width="33.7" height="11.7"/>
	<path fill="#E8B944" d="M9.9,47.5H28c4,0,7.3-2.3,7.8-5.2H2.1C2.6,45.2,5.9,47.5,9.9,47.5z"/>
	<path fill="#E8B944" d="M28,21H9.9c-4.3,0-7.8,2.6-7.8,5.8v0.1h33.7v-0.1C35.8,23.7,32.3,21,28,21z"/>
	<path fill="#0DB89A" d="M45,0.5c-0.5,0-0.9,0.4-0.9,0.9v2.9h-28c-0.5,0-0.9,0.4-0.9,0.9c0,0.5,0.4,0.9,0.9,0.9H18v2.7H3.9
		C3.4,8.8,3,9.2,3,9.6c-0.1,0.4-0.1,0.7-0.1,1.1c0,3.5,2.3,6.8,6.3,8.9c0.1,0.1,0.3,0.1,0.4,0.1h18.7c0.2,0,0.3,0,0.4-0.1
		c4-2.1,6.3-5.4,6.3-8.9c0-0.3,0-0.7-0.1-1.1c-0.1-0.5-0.4-0.8-0.9-0.8H19.9V6.2H45c0.5,0,0.9-0.4,0.9-0.9V1.4
		C45.9,0.9,45.5,0.5,45,0.5z"/>
</g>
</svg>
