<?xml version="1.0" encoding="utf-8"?>
<!-- Generator: Adobe Illustrator 18.0.0, SVG Export Plug-In . SVG Version: 6.00 Build 0)  -->
<!DOCTYPE svg PUBLIC "-//W3C//DTD SVG 1.1//EN" "http://www.w3.org/Graphics/SVG/1.1/DTD/svg11.dtd">
<svg version="1.1" id="Layer_1" xmlns="http://www.w3.org/2000/svg" xmlns:xlink="http://www.w3.org/1999/xlink" x="0px" y="0px"
	 viewBox="0 0 48 48" enable-background="new 0 0 48 48" xml:space="preserve">
<g>
	<rect x="0.5" y="0.5" fill="#0DB89A" width="4.7" height="24.3"/>
	<path fill="#294E58" d="M46.8,29.2c0-0.5-0.3-0.9-0.8-1.1V0.5c0,0-10.8,8.9-10.8,24.3l6.7,0.9V28c-0.6,0.1-1,0.6-1,1.2l-0.7,17
		c0,0.7,0.6,1.3,1.4,1.3h4.6c0.7,0,1.4-0.6,1.4-1.3L46.8,29.2z"/>
	<polygon fill="#CFD0D1" points="20.1,24.8 20.1,0.5 7.2,0.5 7.2,24.8 15.5,24.8 17.5,24.8 	"/>
	<path fill="#06728D" d="M18.1,28.5h-0.6v-3.7h-2v3.7h-0.6c-0.7,0-1.4,0.6-1.4,1.3l-0.7,16.5c0,0.7,0.6,1.3,1.4,1.3h4.6
		c0.7,0,1.4-0.6,1.4-1.3l-0.7-16.5C19.5,29.1,18.8,28.5,18.1,28.5z"/>
</g>
</svg>
