<?xml version="1.0" encoding="utf-8"?>
<!-- Generator: Adobe Illustrator 18.0.0, SVG Export Plug-In . SVG Version: 6.00 Build 0)  -->
<!DOCTYPE svg PUBLIC "-//W3C//DTD SVG 1.1//EN" "http://www.w3.org/Graphics/SVG/1.1/DTD/svg11.dtd">
<svg version="1.1" id="Layer_1" xmlns="http://www.w3.org/2000/svg" xmlns:xlink="http://www.w3.org/1999/xlink" x="0px" y="0px"
	 viewBox="0 0 48 48" enable-background="new 0 0 48 48" xml:space="preserve">
<g>
	<path fill="#F04B36" d="M31.2,12.4c0.5,0,1-0.4,1-1v-5c0-0.5-0.4-1-1-1c-0.5,0-1,0.4-1,1v5C30.2,12,30.6,12.4,31.2,12.4z"/>
	<path fill="#F04B36" d="M24,12.4c0.5,0,1-0.4,1-1v-10c0-0.5-0.4-1-1-1c-0.5,0-1,0.4-1,1v10C23,12,23.5,12.4,24,12.4z"/>
	<path fill="#F04B36" d="M16.8,12.4c0.5,0,1-0.4,1-1v-5c0-0.5-0.4-1-1-1c-0.5,0-1,0.4-1,1v5C15.9,12,16.3,12.4,16.8,12.4z"/>
	<path fill="#06728D" d="M42.3,38.4c0-0.1,0-0.1-0.1-0.1l-2.9-5.5l-1.9,0.7l2.3,4.4H8.3l2.3-4.4l-1.9-0.7l-2.9,5.5
		c0,0-0.1,0.1-0.1,0.1l-4,7.7c-0.3,0.5-0.1,1.1,0.4,1.3c0.1,0.1,0.3,0.1,0.5,0.1c0.4,0,0.7-0.2,0.9-0.5l3.8-7.3h33.5l3.8,7.3
		c0.2,0.3,0.5,0.5,0.9,0.5c0.2,0,0.3,0,0.5-0.1c0.5-0.3,0.7-0.8,0.4-1.3L42.3,38.4z"/>
	<path fill="#0DB89A" d="M24,33.4h13.4l1.9-0.7c5.2-4,8.2-9.7,8.2-15.8c0-0.5-0.4-1-1-1h-45c-0.5,0-1,0.4-1,1c0,6.1,3,11.8,8.2,15.8
		l1.9,0.7H24z"/>
</g>
</svg>
