<?xml version="1.0" encoding="utf-8"?>
<!-- Generator: Adobe Illustrator 18.0.0, SVG Export Plug-In . SVG Version: 6.00 Build 0)  -->
<!DOCTYPE svg PUBLIC "-//W3C//DTD SVG 1.1//EN" "http://www.w3.org/Graphics/SVG/1.1/DTD/svg11.dtd">
<svg version="1.1" id="Layer_1" xmlns="http://www.w3.org/2000/svg" xmlns:xlink="http://www.w3.org/1999/xlink" x="0px" y="0px"
	 viewBox="0 0 48 48" enable-background="new 0 0 48 48" xml:space="preserve">
<g>
	<path fill="#FFD69A" d="M24,5.9c-11.7,0-23.5,2.4-23.5,7s11.8,7,23.5,7c11.7,0,23.5-2.4,23.5-7S35.7,5.9,24,5.9z"/>
	<path fill="#E77528" d="M18.9,26.9c-1.5,0-2.3,1.4-2.3,2.9c0,1.5,0.8,2.8,2.2,2.8c1.4,0,2.3-1.3,2.3-2.9
		C21.2,28.3,20.4,26.9,18.9,26.9z"/>
	<path fill="#E77528" d="M26.1,26.9c-1.5,0-2.3,1.4-2.3,2.9c0,1.5,0.8,2.8,2.2,2.8c1.4,0,2.3-1.3,2.3-2.9
		C28.4,28.3,27.6,26.9,26.1,26.9z"/>
	<path fill="#E77528" d="M47.5,16.9c-5.6,4.9-21.4,5.1-23.5,5.1c-2.1,0-17.9-0.2-23.5-5.1v17.7c0,0.1,0,0.1,0,0.2c0,0.1,0,0.2,0,0.3
		c0,4.6,11.8,7,23.5,7c11.7,0,23.5-2.4,23.5-7c0-0.1,0-0.2,0-0.3c0-0.1,0-0.1,0-0.2V16.9z M14.8,27h-2.9v2.3h2.7v0.8h-2.7v3.2H11v-7
		h3.8V27z M18.9,33.4c-1.9,0-3.2-1.4-3.2-3.6c0-2.2,1.4-3.7,3.3-3.7c1.9,0,3.2,1.5,3.2,3.6C22.1,32.1,20.7,33.4,18.9,33.4z
		 M26.1,33.4c-1.9,0-3.2-1.4-3.2-3.6c0-2.2,1.4-3.7,3.3-3.7c1.9,0,3.2,1.5,3.2,3.6C29.3,32.1,27.9,33.4,26.1,33.4z M35.3,32.3
		c-0.7,0.7-1.7,1-3.1,1c-0.6,0-1.2,0-1.6-0.1v-6.9c0.6-0.1,1.2-0.1,1.9-0.1c1.3,0,2.2,0.3,2.9,0.9c0.6,0.6,1,1.4,1,2.5
		C36.3,30.7,35.9,31.7,35.3,32.3z"/>
	<path fill="#E77528" d="M32.5,26.9c-0.5,0-0.8,0-1.1,0.1v5.6c0.2,0,0.6,0.1,0.9,0.1c1.9,0,3-1.1,3-3C35.3,28,34.4,26.9,32.5,26.9z"
		/>
</g>
</svg>
