<?xml version="1.0" encoding="utf-8"?>
<!-- Generator: Adobe Illustrator 18.0.0, SVG Export Plug-In . SVG Version: 6.00 Build 0)  -->
<!DOCTYPE svg PUBLIC "-//W3C//DTD SVG 1.1//EN" "http://www.w3.org/Graphics/SVG/1.1/DTD/svg11.dtd">
<svg version="1.1" id="Layer_1" xmlns="http://www.w3.org/2000/svg" xmlns:xlink="http://www.w3.org/1999/xlink" x="0px" y="0px"
	 viewBox="0 0 48 48" enable-background="new 0 0 48 48" xml:space="preserve">
<g>
	<path fill="#CFD0D1" d="M15.8,25.6c-0.2,0-0.4-0.1-0.5-0.2L8,20.6v16.7c0,0.4,0.2,0.7,0.5,0.9l14,9.2V20.2l-6,5.1
		C16.2,25.5,16,25.6,15.8,25.6z"/>
	<path fill="#CFD0D1" d="M32.2,25.6c-0.2,0-0.4-0.1-0.6-0.2l-7.1-6v27.9l15-9.2c0.3-0.2,0.5-0.6,0.5-1V20.6l-7.3,4.8
		C32.6,25.5,32.4,25.6,32.2,25.6z"/>
	<path fill="#06728D" d="M47.5,13.3l-8.1-5.4c0,0,0,0,0,0l0,0L39,7.6l-0.1,0l-15-7.1c-0.3-0.1-0.6-0.1-0.8,0l-14.1,7l-0.1,0L8.5,7.9
		l-0.1,0c0,0-0.1,0.1-0.1,0.1l-7.9,5.3l15.3,10.1l8.2-7L11.2,8.9l12.3-6.1L36.6,9L24,16.4l8.2,7L47.5,13.3z"/>
</g>
</svg>
