<?xml version="1.0" encoding="utf-8"?>
<!-- Generator: Adobe Illustrator 18.0.0, SVG Export Plug-In . SVG Version: 6.00 Build 0)  -->
<!DOCTYPE svg PUBLIC "-//W3C//DTD SVG 1.1//EN" "http://www.w3.org/Graphics/SVG/1.1/DTD/svg11.dtd">
<svg version="1.1" id="Layer_1" xmlns="http://www.w3.org/2000/svg" xmlns:xlink="http://www.w3.org/1999/xlink" x="0px" y="0px"
	 viewBox="0 0 48 48" enable-background="new 0 0 48 48" xml:space="preserve">
<g>
	<path fill="#E8B944" d="M1.4,40.5c-0.4,0.4-0.3,1.1,0.1,1.4l6.3,5.3c0.2,0.2,0.4,0.2,0.6,0.2c0,0,0.1,0,0.1,0
		c0.3,0,0.5-0.1,0.7-0.4l8.5-10L10,30.5L1.4,40.5z"/>
	<path fill="#F04B36" d="M44.6,3.3l-3-2.6c-0.3-0.3-0.7-0.3-1.1-0.1c-0.4,0.2-0.6,0.5-0.6,0.9c0,1.1-0.4,2.2-1.1,3
		c-0.9,1-2.2,1.6-3.5,1.6c-1.1,0-2.2-0.4-3-1.1c-0.2-0.1-0.4-0.3-0.5-0.5c-0.4-0.4-1-0.5-1.4-0.1c-1.2,1-3.1,1.1-4.4,0.3
		c-0.4-0.3-0.9-0.2-1.3,0.1L10.1,19.9c-1.1,1.2-1.7,2.7-1.6,4.3c0.1,1.6,0.8,3,2,4.1l9.4,8c1.1,0.9,2.4,1.4,3.7,1.4h0
		c1.8,0,3.5-0.9,4.6-2.3L45.6,12C47.5,9.4,47.1,5.4,44.6,3.3z"/>
</g>
</svg>
