<?xml version="1.0" encoding="utf-8"?>
<!-- Generator: Adobe Illustrator 18.0.0, SVG Export Plug-In . SVG Version: 6.00 Build 0)  -->
<!DOCTYPE svg PUBLIC "-//W3C//DTD SVG 1.1//EN" "http://www.w3.org/Graphics/SVG/1.1/DTD/svg11.dtd">
<svg version="1.1" id="Layer_1" xmlns="http://www.w3.org/2000/svg" xmlns:xlink="http://www.w3.org/1999/xlink" x="0px" y="0px"
	 viewBox="0 0 48 48" enable-background="new 0 0 48 48" xml:space="preserve">
<g>
	<path fill="#06728D" d="M17.3,24.9c-1.8,0-3.6,0.8-5,2.1l-9.7,9.7c-2.6,2.6-2.8,6.8-0.4,9.2c1.1,1.1,2.6,1.7,4.2,1.7
		c1.8,0,3.6-0.8,5-2.1l9.7-9.7c2.1-2.1,2.6-5,1.6-7.4l-3-3C18.9,25,18.1,24.9,17.3,24.9z"/>
	<path fill="#E8B944" d="M45.4,2.6c-1.4-1.4-3.2-2.1-5.2-2.1c-2,0-3.8,0.8-5.2,2.1c-1.3,1.3-5.8,6.8-9.4,12.1
		c-3.9,5.5-5.4,8.7-5.9,10.6l3,3c6-1.5,20.8-13.4,22.7-15.3C48.2,10.2,48.2,5.5,45.4,2.6z M21.8,24.8c2-5,11.5-17.7,14.5-20.8
		c1-1,2.4-1.6,3.8-1.6c1.1,0,2.2,0.3,3,1L21.8,24.8z M23.3,26.1L44.6,4.8c1.4,2.1,1.2,5-0.6,6.8C41.6,14,28.8,24,23.3,26.1z"/>
</g>
</svg>
