<?xml version="1.0" encoding="utf-8"?>
<!-- Generator: Adobe Illustrator 18.0.0, SVG Export Plug-In . SVG Version: 6.00 Build 0)  -->
<!DOCTYPE svg PUBLIC "-//W3C//DTD SVG 1.1//EN" "http://www.w3.org/Graphics/SVG/1.1/DTD/svg11.dtd">
<svg version="1.1" id="Layer_1" xmlns="http://www.w3.org/2000/svg" xmlns:xlink="http://www.w3.org/1999/xlink" x="0px" y="0px"
	 viewBox="0 0 48 48" enable-background="new 0 0 48 48" xml:space="preserve">
<g>
	<path fill="#E77528" d="M17,17.5c-1.1-0.9-2.3-1.4-3.5-1.4c-4.8,0-8.7,4.2-8.7,13c0,8.9,4.9,18.1,9.7,18.1c1.5,0,2.2,0,3.1-0.9
		c-2.9-3.2-4.7-8.6-4.7-14.8C12.9,25.8,14.5,20.8,17,17.5z"/>
	<path fill="#E77528" d="M34.5,16.2c-1.2,0-2.4,0.5-3.5,1.4c2.5,3.3,4.1,8.3,4.1,14c0,6.2-1.8,11.6-4.7,14.8c1,0.9,1.7,0.9,3.1,0.9
		c4.8,0,9.7-9.2,9.7-18.1C43.2,20.3,39.3,16.2,34.5,16.2z"/>
	<path fill="#E77528" d="M25.3,15.8l-2.5,0c-4.3,1.1-7.8,7.9-7.8,15.8c0,8.6,4.1,16,9,16c4.9,0,9-7.3,9-16
		C33,23.7,29.6,16.9,25.3,15.8z"/>
	<path fill="#0DB89A" d="M28.4,3.2c0.3-0.2,0.9-0.4,2.1,0.2C31,3.8,31.8,3.6,32.2,3c0.3-0.6,0.1-1.4-0.5-1.7
		c-2.1-1.2-3.7-0.8-4.6-0.2c-3.9,2.3-4.3,11.6-4.3,14.7l2.5,0C25.3,11,26.2,4.5,28.4,3.2z"/>
</g>
</svg>
