<?xml version="1.0" encoding="utf-8"?>
<!-- Generator: Adobe Illustrator 18.0.0, SVG Export Plug-In . SVG Version: 6.00 Build 0)  -->
<!DOCTYPE svg PUBLIC "-//W3C//DTD SVG 1.1//EN" "http://www.w3.org/Graphics/SVG/1.1/DTD/svg11.dtd">
<svg version="1.1" id="Layer_1" xmlns="http://www.w3.org/2000/svg" xmlns:xlink="http://www.w3.org/1999/xlink" x="0px" y="0px"
	 viewBox="0 0 48 48" enable-background="new 0 0 48 48" xml:space="preserve">
<g>
	<path fill="#0DB89A" d="M22.4,12c-5.6,0-10.4,2.9-13,8.1c-1.3-0.3-4.5-0.9-6.7,0.8c-1.4,1-2.2,2.7-2.2,5c0,7,7.7,14.2,9.3,15.6
		c0.8,1.8,1.6,3.5,2.7,4.9h19.8c3.1-4.5,5.1-10.8,5.1-16.9C37.4,18.3,30.7,12,22.4,12z M8.4,37.3c-2.6-2.8-5.9-7.2-5.9-11.4
		c0-1.6,0.4-2.8,1.3-3.4c1.3-1,3.5-0.8,4.8-0.5c-0.8,2.2-1.2,4.7-1.2,7.6C7.4,32.2,7.8,34.8,8.4,37.3z"/>
	<path fill="#294E58" d="M30.3,11.9c-0.8-2.6-3.2-4.7-6.2-5.2c0.5-0.5,0.7-1.3,0.7-2.1c0-1.7-1.2-3.1-2.7-3.1
		c-1.5,0-2.7,1.4-2.7,3.1c0,0.9,0.3,1.6,0.8,2.2c-2.8,0.7-5,2.6-5.8,5.1c2.3-1.3,5-2,7.9-2C25.3,10,28,10.7,30.3,11.9z"/>
	<path fill="#CFD0D1" d="M45.3,19.8l-0.1-3.6c0,0-4.5,2.9-5,6.6c-0.2,1.3-0.6,2.2-1,2.8c0.2,1.3,0.3,2.6,0.3,4
		c0,3.3-0.5,6.6-1.5,9.8c2.9-1,7.6-3.6,7.5-10.1c-0.1-9.4,2.1-8.5,2.1-8.5L45.3,19.8z"/>
</g>
</svg>
