<?xml version="1.0" encoding="utf-8"?>
<!-- Generator: Adobe Illustrator 18.0.0, SVG Export Plug-In . SVG Version: 6.00 Build 0)  -->
<!DOCTYPE svg PUBLIC "-//W3C//DTD SVG 1.1//EN" "http://www.w3.org/Graphics/SVG/1.1/DTD/svg11.dtd">
<svg version="1.1" id="Layer_1" xmlns="http://www.w3.org/2000/svg" xmlns:xlink="http://www.w3.org/1999/xlink" x="0px" y="0px"
	 viewBox="0 0 48 48" enable-background="new 0 0 48 48" xml:space="preserve">
<g>
	<path fill="#F7A93B" d="M29.1,10.2c-1.2,0-2.3,0.2-3.4,0.5c2,1.4,3.7,3.3,5.2,5.8c0.3,0.5,0.2,1.2-0.3,1.6
		c-0.4,0.3-1.1,0.2-1.4-0.3c-1.4-2.4-3.2-4.3-5.2-5.5l-1.9-0.7c-1.2-0.4-2.5-0.6-3.8-0.6c-0.5,0-0.9,0-1.4,0.1
		C8.6,11.8,2.6,20.7,3.6,30.8c1,9.5,7.8,16.7,15.9,16.7h0c0.5,0,0.9,0,1.4-0.1c1.2-0.1,2.3-0.4,3.4-0.8c0,0,0.1,0,0.1,0
		c2.9-1.6,5.3-4.6,6.8-8.6c0.2-0.6,0.8-0.9,1.3-0.6c0.5,0.2,0.7,0.9,0.5,1.5c-1.3,3.7-3.3,6.6-5.8,8.5c0.6,0.1,1.3,0.2,1.9,0.2
		c8.5,0,15.4-8.4,15.4-18.7S37.6,10.2,29.1,10.2z"/>
	<path fill="#0DB89A" d="M29.9,2.4c0.5-0.2,0.7-0.8,0.4-1.3c-0.2-0.5-0.8-0.7-1.3-0.4c-2.2,1.1-3.8,3.1-4.9,5.1
		c-0.6-2.3-2.5-5.2-7.2-5.2c-1.6,0-3.5,0.3-5.6,1c-0.3,0.1-0.5,0.3-0.6,0.5c-0.1,0.2-0.1,0.5,0,0.8c0.1,0.3,2.8,6.7,8.5,6.7h0
		c1.2,0,2.4-0.3,3.6-0.9c-0.4,1.2-0.6,2.2-0.7,2.7l1.9,0.7C24.1,11.9,25.3,4.6,29.9,2.4z"/>
</g>
</svg>
