<?xml version="1.0" encoding="utf-8"?>
<!-- Generator: Adobe Illustrator 18.0.0, SVG Export Plug-In . SVG Version: 6.00 Build 0)  -->
<!DOCTYPE svg PUBLIC "-//W3C//DTD SVG 1.1//EN" "http://www.w3.org/Graphics/SVG/1.1/DTD/svg11.dtd">
<svg version="1.1" id="Layer_1" xmlns="http://www.w3.org/2000/svg" xmlns:xlink="http://www.w3.org/1999/xlink" x="0px" y="0px"
	 viewBox="0 0 48 48" enable-background="new 0 0 48 48" xml:space="preserve">
<g>
	<path fill="#E77528" d="M42.7,23.5c-2.3-5.7-9.8-9.8-18.7-9.8S7.6,17.8,5.3,23.5H42.7z"/>
	<path fill="#4DA0D8" d="M4.9,26.2v14.6c0,3.7,3.2,6.7,7,6.7H36c3.9,0,7-3,7-6.7V26.2H4.9z"/>
	<path fill="#0DB89A" d="M27.4,12.2h-6.8c-0.6,0-1-0.4-1-1c0-0.6,0.4-1,1-1h6.8c0.6,0,1,0.4,1,1C28.4,11.7,28,12.2,27.4,12.2z"/>
	<path fill="#F7A93B" d="M28,8.9c-0.6,0-1-0.4-1-1V3.7c0-0.6,0.4-1,1-1c0.6,0,1,0.4,1,1v4.2C29,8.4,28.5,8.9,28,8.9z"/>
	<path fill="#F7A93B" d="M24,8.9c-0.6,0-1-0.4-1-1V1.5c0-0.6,0.4-1,1-1c0.6,0,1,0.4,1,1v6.4C25,8.4,24.6,8.9,24,8.9z"/>
	<path fill="#F7A93B" d="M20,8.9c-0.6,0-1-0.4-1-1V3.7c0-0.6,0.4-1,1-1c0.6,0,1,0.4,1,1v4.2C21,8.4,20.6,8.9,20,8.9z"/>
</g>
</svg>
