<?xml version="1.0" encoding="utf-8"?>
<!-- Generator: Adobe Illustrator 18.0.0, SVG Export Plug-In . SVG Version: 6.00 Build 0)  -->
<!DOCTYPE svg PUBLIC "-//W3C//DTD SVG 1.1//EN" "http://www.w3.org/Graphics/SVG/1.1/DTD/svg11.dtd">
<svg version="1.1" id="Layer_1" xmlns="http://www.w3.org/2000/svg" xmlns:xlink="http://www.w3.org/1999/xlink" x="0px" y="0px"
	 viewBox="0 0 48 48" enable-background="new 0 0 48 48" xml:space="preserve">
<g>
	<path fill="none" d="M10.6,14.6c0-0.5,0.4-1,1-1c0.5,0,1,0.4,1,1v1.3h1.9v-1.3c0-0.5,0.4-1,1-1c0.5,0,1,0.4,1,1v1.3h1.9v-1.3
		c0-0.5,0.4-1,1-1c0.5,0,1,0.4,1,1v1.3h1.4v-2.5H9.2v2.5h1.4V14.6z"/>
	<path fill="none" d="M14.3,21.4c-0.5,0-1,0.4-1,1c0,0.5,0.4,1,1,1h1.9c0.5,0,1-0.4,1-1c0-0.5-0.4-1-1-1H14.3z"/>
	<path fill="none" d="M20.9,22.4c0,0.5,0.4,1,1,1h1.9c0.5,0,1-0.4,1-1c0-0.5-0.4-1-1-1h-1.9C21.3,21.4,20.9,21.8,20.9,22.4z"/>
	<path fill="none" d="M29.5,23.3h1.9c0.5,0,1-0.4,1-1c0-0.5-0.4-1-1-1h-1.9c-0.5,0-1,0.4-1,1C28.5,22.9,28.9,23.3,29.5,23.3z"/>
	<path fill="none" d="M9.6,22.4c0-0.5-0.4-1-1-1H6.7c-0.5,0-1,0.4-1,1c0,0.5,0.4,1,1,1h1.9C9.2,23.3,9.6,22.9,9.6,22.4z"/>
	<rect x="7.8" y="27.7" fill="none" width="32.4" height="10.5"/>
	<path fill="#06728D" d="M23.8,5.3c0-0.1,0-0.2,0-0.3c0-0.5-0.5-0.9-1-0.9h-2.8l3.7-1.7c0.5-0.2,0.7-0.8,0.5-1.3
		c-0.2-0.5-0.8-0.7-1.3-0.5l-7.1,3.3c-0.1,0.1-0.2,0.1-0.3,0.2H8.1c-0.5,0-0.9,0.4-1,0.9c0,0.1,0,0.2,0,0.3c0,2.8,2.4,5.3,5.7,6.1
		h5.3C21.4,10.6,23.8,8.2,23.8,5.3z"/>
	<path fill="#CFD0D1" d="M43.1,15.9H23.7v-3.5c0-0.5-0.4-1-1-1h-4.6h-5.3H8.2c-0.5,0-1,0.4-1,1v3.5H4.9c-2.4,0-4.4,1.8-4.4,4.1v23.4
		c0,2.3,2,4.1,4.4,4.1h38.2c2.4,0,4.4-1.8,4.4-4.1V20C47.5,17.8,45.5,15.9,43.1,15.9z M29.5,21.4h1.9c0.5,0,1,0.4,1,1
		c0,0.5-0.4,1-1,1h-1.9c-0.5,0-1-0.4-1-1C28.5,21.8,28.9,21.4,29.5,21.4z M23.8,21.4c0.5,0,1,0.4,1,1c0,0.5-0.4,1-1,1h-1.9
		c-0.5,0-1-0.4-1-1c0-0.5,0.4-1,1-1H23.8z M9.2,13.4h12.5v2.5h-1.4v-1.3c0-0.5-0.4-1-1-1c-0.5,0-1,0.4-1,1v1.3h-1.9v-1.3
		c0-0.5-0.4-1-1-1c-0.5,0-1,0.4-1,1v1.3h-1.9v-1.3c0-0.5-0.4-1-1-1c-0.5,0-1,0.4-1,1v1.3H9.2V13.4z M17.2,22.4c0,0.5-0.4,1-1,1h-1.9
		c-0.5,0-1-0.4-1-1c0-0.5,0.4-1,1-1h1.9C16.8,21.4,17.2,21.8,17.2,22.4z M5.8,22.4c0-0.5,0.4-1,1-1h1.9c0.5,0,1,0.4,1,1
		c0,0.5-0.4,1-1,1H6.7C6.2,23.3,5.8,22.9,5.8,22.4z M40.2,38.3H7.8V27.7h32.4V38.3z"/>
</g>
</svg>
