<?xml version="1.0" encoding="utf-8"?>
<!-- Generator: Adobe Illustrator 18.0.0, SVG Export Plug-In . SVG Version: 6.00 Build 0)  -->
<!DOCTYPE svg PUBLIC "-//W3C//DTD SVG 1.1//EN" "http://www.w3.org/Graphics/SVG/1.1/DTD/svg11.dtd">
<svg version="1.1" id="Layer_1" xmlns="http://www.w3.org/2000/svg" xmlns:xlink="http://www.w3.org/1999/xlink" x="0px" y="0px"
	 viewBox="0 0 48 48" enable-background="new 0 0 48 48" xml:space="preserve">
<g>
	<path fill="#06728D" d="M8.8,35.9c0,1.3,0.1,2.6,0.4,3.9c0.1,0.5,0.5,0.8,1,0.8h35.4c0.5,0,0.9-0.3,1-0.8c0.3-1.3,0.4-2.6,0.4-3.9
		c0-9.5-6.6-17.4-15.5-19.1c0.2-0.4,0.3-0.9,0.3-1.4c0-2.1-1.7-3.8-3.8-3.8c-2.1,0-3.8,1.7-3.8,3.8c0,0.5,0.1,0.9,0.3,1.4
		C15.3,18.5,8.8,26.4,8.8,35.9z"/>
	<path fill="#E8B944" d="M46.2,44.8H9.4c-0.7,0-1.3,0.6-1.3,1.3s0.6,1.3,1.3,1.3h36.8c0.7,0,1.3-0.6,1.3-1.3S46.9,44.8,46.2,44.8z"
		/>
	<path fill="#E8B944" d="M10.3,22.6c-0.2-0.2-0.5-0.9-0.9-1.5c-1.9-3.6-3.8-6.8-6.1-7c-0.3,0-0.6,0.1-0.8,0.3
		c-0.2,0.2-0.3,0.5-0.3,0.7l0.1,2l-1.2,0.4c-0.3,0.1-0.6,0.4-0.6,0.7c-0.1,0.3,0.1,0.7,0.3,0.9c0,0,3.4,3,4.2,9.8
		c0.3,2.6,1,4.5,1.8,5.9c0.2-4.3,1.7-8.3,4-11.6C10.7,23.1,10.5,22.9,10.3,22.6z"/>
	<path fill="#F04B36" d="M27.8,2.4c9.4,0,12,5.5,12.5,16.3c0.7,0.5,1.4,1.1,2,1.7c-0.3-10.9-2.3-20-14.5-20
		c-12.2,0-14.3,9.5-14.5,20c0.6-0.6,1.3-1.2,2-1.7C15.8,8.4,18.6,2.4,27.8,2.4z"/>
</g>
</svg>
