<?xml version="1.0" encoding="utf-8"?>
<!-- Generator: Adobe Illustrator 18.0.0, SVG Export Plug-In . SVG Version: 6.00 Build 0)  -->
<!DOCTYPE svg PUBLIC "-//W3C//DTD SVG 1.1//EN" "http://www.w3.org/Graphics/SVG/1.1/DTD/svg11.dtd">
<svg version="1.1" id="Layer_1" xmlns="http://www.w3.org/2000/svg" xmlns:xlink="http://www.w3.org/1999/xlink" x="0px" y="0px"
	 viewBox="0 0 48 48" enable-background="new 0 0 48 48" xml:space="preserve">
<g>
	<path fill="#CFD0D1" d="M29.4,4.2H18.6c-3.4,0-6.2,2.5-6.3,5.7h23.4C35.7,6.7,32.9,4.2,29.4,4.2z"/>
	<path fill="#F04B36" d="M21.1,2.4h4.8c0.5,0,0.9-0.4,0.9-0.9c0-0.5-0.4-0.9-0.9-0.9h-4.8c-0.5,0-0.9,0.4-0.9,0.9
		C20.2,1.9,20.6,2.4,21.1,2.4z"/>
	<path fill="#294E58" d="M40.6,11.7H7.4c-0.5,0-0.9,0.4-0.9,0.9s0.4,0.9,0.9,0.9h2.7v4.8c0,3.1,3.4,5.7,7.5,5.7h12.9
		c4.1,0,7.5-2.6,7.5-5.7v-4.8h2.7c0.5,0,0.9-0.4,0.9-0.9S41.1,11.7,40.6,11.7z"/>
	<path fill="#E77528" d="M32.1,26.9c-0.2-0.5-0.7-0.7-1.2-0.7h-6.4h-0.1h-7.3c-0.5,0-1,0.3-1.2,0.7L7.2,45.7c-0.3,0.6,0,1.4,0.6,1.7
		c0.2,0.1,0.4,0.1,0.5,0.1c0.5,0,0.9-0.3,1.2-0.7l8.4-18h6.5h0.1h5.6l8.4,18c0.2,0.5,0.7,0.7,1.2,0.7c0.2,0,0.4,0,0.5-0.1
		c0.6-0.3,0.9-1.1,0.6-1.7L32.1,26.9z"/>
	<path fill="#E77528" d="M24,29.1c-0.7,0-1.3,0.6-1.3,1.3v15.8c0,0.7,0.6,1.3,1.3,1.3c0.7,0,1.3-0.6,1.3-1.3V30.4
		C25.3,29.7,24.7,29.1,24,29.1z"/>
</g>
</svg>
