<?xml version="1.0" encoding="utf-8"?>
<!-- Generator: Adobe Illustrator 18.0.0, SVG Export Plug-In . SVG Version: 6.00 Build 0)  -->
<!DOCTYPE svg PUBLIC "-//W3C//DTD SVG 1.1//EN" "http://www.w3.org/Graphics/SVG/1.1/DTD/svg11.dtd">
<svg version="1.1" id="Layer_1" xmlns="http://www.w3.org/2000/svg" xmlns:xlink="http://www.w3.org/1999/xlink" x="0px" y="0px"
	 viewBox="0 0 48 48" enable-background="new 0 0 48 48" xml:space="preserve">
<g>
	<path fill="#E77528" d="M45.6,37c-1.9-0.2-3.7,1.2-5.5,2.7c-0.6,0.5-1.1,0.9-1.6,1.3c-0.2,0.1-0.3,0.2-0.4,0.3
		c-0.6,0.4-1.2,0.9-2.2,1.1c-0.2,0-0.5,0.1-0.7,0.1c-0.6,0-1.3-0.1-2.1-0.4c-0.4-0.1-0.8-0.3-1.2-0.4c-1.1-0.4-2-0.7-3.1-0.8
		c-1.8-0.1-3.6,0.4-5.3,1c-1.6,0.5-3.4,1-5.2,0.1c-0.7-0.3-1.3-0.8-1.9-1.2c-0.6-0.4-1.2-0.9-1.8-1.1c-1.2-0.5-2.3-0.7-3.6-0.6
		c2.6,5,9.5,8.5,17.7,8.5c8.9,0,16.4-4.2,18.3-9.9C46.6,37.3,46.1,37,45.6,37z"/>
	<path fill="#F7A93B" d="M15.4,37.7c0.9,0.4,1.6,0.9,2.3,1.3c0.5,0.4,1,0.7,1.6,1c1.1,0.5,2.4,0.2,3.7-0.2c1.9-0.6,3.9-1.2,6-1.1
		c1.5,0.1,2.6,0.5,3.8,0.9c0.4,0.1,0.7,0.3,1.1,0.4c0.7,0.2,1.3,0.3,1.8,0.2c0.5-0.1,0.7-0.3,1.3-0.7c0.1-0.1,0.3-0.2,0.5-0.4
		c0.5-0.3,1-0.8,1.5-1.2c2-1.6,4.2-3.5,7-3.1c0.4,0.1,1,0.2,1.6,0.5c0-0.3,0.1-0.5,0.1-0.8c0-7.1-8.4-12.9-18.8-12.9
		c-10.4,0-18.8,5.8-18.8,12.9c0,0.8,0.1,1.6,0.3,2.4C12.1,36.8,13.7,37,15.4,37.7z M28.7,27.6c2.8,0,5.1,1.6,5.1,3.5
		c0,1.9-2.3,3.5-5.1,3.5s-5.1-1.6-5.1-3.5C23.5,29.2,25.8,27.6,28.7,27.6z"/>
	<path fill="#F7A93B" d="M6.7,16.4c0.8,0.4,1.5,0.9,2.2,1.3c0.5,0.4,1,0.7,1.5,1c1,0.5,2.2,0.2,3.5-0.2c0.5-0.2,1.1-0.5,1.7-0.9
		c1.1-0.7,2.4-1.4,3.9-1.3c1.5,0.1,2.8,0.5,4,1l0.7,0.3c0.5,0.2,1.2,0.2,1.8,0.1c0.7-0.1,0.8-0.2,1.5-0.7l0.1-0.1
		c2.2-1.6,4.9-3.7,8.2-3.2c0.7,0.1,1.6,0.5,2.4,1.1c0.1-0.4,0.1-0.9,0.1-1.4c0-7.1-8.4-12.9-18.8-12.9C8.9,0.5,0.5,6.3,0.5,13.4
		c0,0.9,0.1,1.7,0.4,2.5C3.1,15.4,4.8,15.6,6.7,16.4z M19.3,6.3c2.8,0,5.1,1.6,5.1,3.5c0,1.9-2.3,3.5-5.1,3.5
		c-2.8,0-5.1-1.6-5.1-3.5C14.2,7.9,16.5,6.3,19.3,6.3z"/>
	<path fill="#E77528" d="M37,16.6c0-0.3-0.9-0.9-1.6-1c-2.5-0.3-4.7,1.4-6.7,2.8l-0.1,0.1c-0.9,0.6-1.3,0.9-2.4,1.1
		c-0.9,0.2-1.9,0.1-2.8-0.2l-0.8-0.3c-1.2-0.4-2.2-0.8-3.4-0.9c-0.9,0-1.8,0.5-2.8,1.1c-0.7,0.4-1.3,0.8-2.1,1
		c-0.9,0.3-1.9,0.6-3,0.6c-0.7,0-1.4-0.1-2.1-0.5c-0.7-0.3-1.2-0.8-1.8-1.2C7,19,6.5,18.6,5.9,18.3c-1.4-0.6-2.6-0.7-4.2-0.5
		c1.9,3.4,5.8,6.2,10.8,7.5c3.8-3.4,9.7-5.6,16.2-5.6c2.2,0,4.3,0.2,6.3,0.7c1-1,1.7-2.1,2.2-3.2C37.1,17.1,37,16.9,37,16.6z"/>
</g>
</svg>
