<?xml version="1.0" encoding="utf-8"?>
<!-- Generator: Adobe Illustrator 18.0.0, SVG Export Plug-In . SVG Version: 6.00 Build 0)  -->
<!DOCTYPE svg PUBLIC "-//W3C//DTD SVG 1.1//EN" "http://www.w3.org/Graphics/SVG/1.1/DTD/svg11.dtd">
<svg version="1.1" id="Layer_1" xmlns="http://www.w3.org/2000/svg" xmlns:xlink="http://www.w3.org/1999/xlink" x="0px" y="0px"
	 viewBox="0 0 48 48" enable-background="new 0 0 48 48" xml:space="preserve">
<g>
	<path fill="#0DB89A" d="M41.5,1c-0.2-0.3-0.5-0.5-0.9-0.5H7.4C7,0.5,6.7,0.7,6.5,1C5.1,3.8,4.4,6.8,4.4,9.9c0,1,0.1,2,0.3,3.1
		c1.5,9.1,8.9,15.9,18,16.5v9.8c-4.2,0.4-7.9,3-9.9,6.8c-0.2,0.3-0.1,0.7,0,1c0.2,0.3,0.5,0.5,0.8,0.5h20.7c0.3,0,0.7-0.2,0.8-0.5
		c0.2-0.3,0.2-0.7,0-1c-2-3.8-5.7-6.3-9.9-6.8v-9.8c9.1-0.6,16.6-7.3,18-16.5c0.2-1.1,0.3-2.1,0.3-3.1C43.6,6.8,42.9,3.8,41.5,1z
		 M8,2.5h32c1.1,2.3,1.7,4.9,1.7,7.5c0,0.6,0,1.3-0.1,2H6.5c-0.1-0.7-0.1-1.3-0.1-2C6.3,7.3,6.9,4.8,8,2.5z"/>
</g>
</svg>
