<?xml version="1.0" encoding="utf-8"?>
<!-- Generator: Adobe Illustrator 18.0.0, SVG Export Plug-In . SVG Version: 6.00 Build 0)  -->
<!DOCTYPE svg PUBLIC "-//W3C//DTD SVG 1.1//EN" "http://www.w3.org/Graphics/SVG/1.1/DTD/svg11.dtd">
<svg version="1.1" id="Layer_1" xmlns="http://www.w3.org/2000/svg" xmlns:xlink="http://www.w3.org/1999/xlink" x="0px" y="0px"
	 viewBox="0 0 48 48" enable-background="new 0 0 48 48" xml:space="preserve">
<g>
	<path fill="#4DA0D8" d="M15.3,27.4c0.3-5,1.2-12.5,3.5-16.1C11.4,11.5,7.4,18,6.1,24.1c-0.3,1.4-1,5.1-1.3,6.3
		c-1-0.5-2-1.1-2.8-1.8c-0.4-0.3-1-0.2-1.4,0.2c-0.3,0.4-0.2,1,0.2,1.4c3.6,2.6,8.4,4.6,13.9,5.6C14.9,33.6,15.2,29.2,15.3,27.4z"/>
	<path fill="#4DA0D8" d="M30.7,27.6c-0.7-10.2-2.5-15.4-4-16.3h-5.4c-1.4,0.9-3.3,5.5-4.1,16.3c-0.1,1.8-0.4,6.5-0.5,8.6
		c2.5,0.4,5,0.6,7.7,0.6c2.3,0,4.6-0.2,6.9-0.4C31.2,34.2,30.9,29.4,30.7,27.6z"/>
	<path fill="#4DA0D8" d="M47.3,29.5c-0.3-0.5-0.9-0.6-1.4-0.3c-0.9,0.6-1.8,1.1-2.8,1.6c-0.1-0.5-1-5.1-1.3-6.7
		c-1.8-7.9-6.5-12.6-12.6-12.8c2.1,3.4,3,10.2,3.5,16.1c0.1,1.8,0.4,6.4,0.5,8.6c5.4-0.9,10.2-2.7,13.8-5.1
		C47.5,30.6,47.6,30,47.3,29.5z"/>
</g>
</svg>
