<?xml version="1.0" encoding="utf-8"?>
<!-- Generator: Adobe Illustrator 18.0.0, SVG Export Plug-In . SVG Version: 6.00 Build 0)  -->
<!DOCTYPE svg PUBLIC "-//W3C//DTD SVG 1.1//EN" "http://www.w3.org/Graphics/SVG/1.1/DTD/svg11.dtd">
<svg version="1.1" id="Layer_1" xmlns="http://www.w3.org/2000/svg" xmlns:xlink="http://www.w3.org/1999/xlink" x="0px" y="0px"
	 viewBox="0 0 48 48" enable-background="new 0 0 48 48" xml:space="preserve">
<g>
	<rect x="8.8" y="0.5" fill="#E77528" width="9.5" height="8.8"/>
	<rect x="19.3" y="0.5" fill="#E77528" width="9.5" height="8.8"/>
	<rect x="29.7" y="0.5" fill="#E77528" width="9.5" height="8.8"/>
	<path fill="none" d="M45,25.9c0.1-0.1,0-0.7,0-1c0-0.4-0.1-0.8,0-1.2c0-0.2,0.1-0.5,0.1-0.8c0.4-2,0.9-5.4-0.3-6.6
		c-0.5-0.5-1.5-0.7-2.7-0.6c-0.9,0.1-0.9,0.1-1.2,0.3c-0.1,0.1-0.2,0.1-0.4,0.2c0,0,0,0.1-0.1,0.1c-0.1,0.3-0.4,0.7-0.9,1
		c-0.6,0.4-1.5,0.4-2.6,0.3c-0.2,0-0.4,0-0.6,0c-0.5,0-1,0-1.5,0c-1.7,0-3,0-4.5,0.8c-3.9,2.1-7.9,2.1-12.1,2c-1.3,0-2.6,0-3.9,0
		c-1.2,0-2.5,0-3.7,0c-2.1-0.1-3-0.7-4.1-1.5c-0.3-0.2-0.6-0.4-1-0.7c-0.2-0.1-0.5-0.2-0.7-0.3c-0.1,0-0.1,0-0.2-0.1
		c-0.9,0.6-1.7,2.1-2,3.7c-0.1,0.6-0.3,2.6,1,3.3c0.4,0.2,0.7,0.1,1.3-0.1c0.3-0.1,0.6-0.2,1-0.3c1.1-0.1,1.7,0,2.2,0.2
		C8.3,25,8.5,25,8.7,25.1c0.3,0.1,0.6,0.1,0.8,0.2c0.2-0.1,0.4-0.2,0.7-0.4c1.9-0.9,3-1.5,5.4-1.4c2.3,0,4.1,0.8,5.9,1.6
		c1.7,0.7,3.2,1.4,5.1,1.4c0,0,0,0,0,0c1,0,1.9-0.2,2.9-0.3c1-0.2,1.9-0.3,3-0.3c0.7,0,1.5,0.1,2.4,0.3c0.4,0.1,0.7,0.2,1,0.3
		c0.8,0.2,1.3,0.4,2.2,0.3c0.5-0.1,1-0.2,1.6-0.3c0.8-0.2,1.6-0.3,2.5-0.4c0.3,0,0.7,0,1.1,0C43.8,26.1,44.8,26.2,45,25.9z"/>
	<path fill="#0DB89A" d="M40,28.1c-0.6,0.1-1.2,0.4-1.9,0.4c-1.4,0.1-2.6-1.1-4-1.5c-3.1-1-6.4,1.8-9.6,1.1
		c-1.1-0.2-2.1-0.9-3.1-1.5c-2.8-1.7-6.3-2.9-9.2-1.5c-1.4,0.6-2.6,1.8-4.1,1.7c-0.3,0-0.5-0.1-0.8-0.1v19.7c0,0.5,0.4,1,1,1h31.2
		c0.5,0,1-0.4,1-1V28.2c0.1,0,0.3,0,0.4-0.1C40.7,28.1,40.3,28.1,40,28.1z"/>
	<path fill="#E77528" d="M43.1,28c1.2,0.1,2.6,0.2,3.4-0.9c0.6-0.7,0.5-1.6,0.4-2.4c0-0.3-0.1-0.6,0-0.7c0-0.2,0.1-0.5,0.1-0.8
		c0.4-2.5,1.1-6.3-0.8-8.4c-1-1-2.5-1.4-4.4-1.1c-1.1,0.2-1.3,0.2-2,0.6c-0.1,0.1-0.2,0.1-0.4,0.2c-0.1,0-0.1,0.1-0.2,0.1v-4.5h-9.5
		v6.4c-0.1,0.1-0.2,0.1-0.4,0.2c-0.2,0.1-0.4,0.2-0.6,0.3v-6.9h-9.5v8.4c-0.3,0-0.6,0-1,0v-8.3H8.8v7.9C8.4,18,8,17.8,7.5,17.5
		c-0.3-0.2-0.7-0.5-1.1-0.7c-0.2-0.1-0.4-0.2-0.6-0.3c-0.2-0.4-0.6-0.7-1.1-0.6c-2.3,0.4-3.8,3.2-4.2,5.7C0.2,24,1,26,2.7,26.8
		c1.1,0.5,2,0.2,2.7,0c0.2-0.1,0.5-0.2,0.7-0.2c0.6-0.1,0.9,0,1.3,0.1v0c0.3,0,0.5,0.1,0.8,0.1c1.5,0.1,2.7-1.1,4.1-1.7
		c2.9-1.4,6.4-0.2,9.2,1.5c1,0.6,1.9,1.2,3.1,1.5c3.2,0.7,6.5-2.1,9.6-1.1c1.4,0.4,2.6,1.6,4,1.5c0.6,0,1.2-0.3,1.9-0.4
		c0.4-0.1,0.7-0.1,1.1,0c0.4-0.1,0.7-0.1,1.1-0.1C42.4,28,42.7,28,43.1,28z M39.5,26.4c-0.5,0.1-1.1,0.2-1.6,0.3
		c-0.9,0.1-1.4,0-2.2-0.3c-0.3-0.1-0.6-0.2-1-0.3c-0.8-0.2-1.6-0.3-2.4-0.3c-1.1,0-2,0.2-3,0.3c-1,0.2-1.9,0.3-2.9,0.3c0,0,0,0,0,0
		c-1.8,0-3.4-0.7-5.1-1.4c-1.8-0.8-3.6-1.6-5.9-1.6c-2.4,0-3.5,0.5-5.4,1.4c-0.3,0.1-0.5,0.3-0.7,0.4c-0.2-0.1-0.4-0.1-0.8-0.2
		c-0.3,0-0.5-0.1-0.7-0.2c-0.5-0.2-1.2-0.4-2.2-0.2c-0.4,0-0.7,0.2-1,0.3c-0.6,0.2-0.9,0.3-1.3,0.1c-1.3-0.7-1.1-2.7-1-3.3
		c0.2-1.6,1-3.1,2-3.7c0.1,0,0.1,0.1,0.2,0.1c0.2,0.1,0.5,0.2,0.7,0.3c0.4,0.2,0.7,0.5,1,0.7c1.1,0.8,2,1.4,4.1,1.5
		c1.2,0.1,2.5,0,3.7,0c1.3,0,2.7,0,3.9,0c4.2,0.1,8.2,0.1,12.1-2c1.4-0.8,2.8-0.8,4.5-0.8c0.5,0,1,0,1.5,0c0.2,0,0.4,0,0.6,0
		c1.1,0,2,0,2.6-0.3c0.5-0.3,0.7-0.8,0.9-1c0,0,0-0.1,0.1-0.1c0.1-0.1,0.3-0.2,0.4-0.2c0.3-0.2,0.3-0.2,1.2-0.3
		c1.3-0.2,2.2,0,2.7,0.6c1.2,1.3,0.7,4.6,0.3,6.6c-0.1,0.3-0.1,0.6-0.1,0.8c-0.1,0.4,0,0.8,0,1.2c0,0.3,0.1,0.8,0,1
		c-0.2,0.3-1.1,0.2-1.8,0.2c-0.4,0-0.8,0-1.1,0C41.1,26.1,40.3,26.3,39.5,26.4z"/>
</g>
</svg>
