<?xml version="1.0" encoding="utf-8"?>
<!-- Generator: Adobe Illustrator 18.0.0, SVG Export Plug-In . SVG Version: 6.00 Build 0)  -->
<!DOCTYPE svg PUBLIC "-//W3C//DTD SVG 1.1//EN" "http://www.w3.org/Graphics/SVG/1.1/DTD/svg11.dtd">
<svg version="1.1" id="Layer_1" xmlns="http://www.w3.org/2000/svg" xmlns:xlink="http://www.w3.org/1999/xlink" x="0px" y="0px"
	 viewBox="0 0 48 48" enable-background="new 0 0 48 48" xml:space="preserve">
<g>
	<rect x="9.5" y="0.5" fill="#F04B36" width="7.3" height="3.5"/>
	<path fill="#294E58" d="M16.8,15V6H9.5v9c-2.5,1.6-5.3,3.6-5.3,4.5v25.1c0,1.6,1.3,2.9,2.9,2.9h12.1c1.6,0,2.9-1.3,2.9-2.9V19.5
		C22.1,18.6,19.3,16.6,16.8,15z M13.1,39.6c-2.6,0-4.7-3.5-4.7-7.8c0-4.3,2.1-7.8,4.7-7.8c2.6,0,4.7,3.5,4.7,7.8
		C17.9,36.1,15.8,39.6,13.1,39.6z"/>
	<rect x="32.9" y="6.8" fill="#F7A93B" width="6.3" height="3.3"/>
	<rect x="36" y="26.2" fill="#0DB89A" width="7.8" height="14.3"/>
	<path fill="#F04B36" d="M39.2,19.3v-7.2h-6.3v7.2c-2.2,1.4-4.6,3.2-4.6,3.9V45c0,1.4,1.1,2.5,2.5,2.5h10.5c1.4,0,2.5-1.1,2.5-2.5
		v-2.5H35c-0.6,0-1-0.5-1-1V25.1c0-0.6,0.5-1,1-1h8.8v-0.9C43.8,22.5,41.4,20.7,39.2,19.3z"/>
</g>
</svg>
