<?xml version="1.0" encoding="utf-8"?>
<!-- Generator: Adobe Illustrator 18.0.0, SVG Export Plug-In . SVG Version: 6.00 Build 0)  -->
<!DOCTYPE svg PUBLIC "-//W3C//DTD SVG 1.1//EN" "http://www.w3.org/Graphics/SVG/1.1/DTD/svg11.dtd">
<svg version="1.1" id="Layer_1" xmlns="http://www.w3.org/2000/svg" xmlns:xlink="http://www.w3.org/1999/xlink" x="0px" y="0px"
	 viewBox="0 0 48 48" enable-background="new 0 0 48 48" xml:space="preserve">
<g>
	<path fill="#4DA0D8" d="M22.5,17.3l-4.7-3c-0.5-0.3-0.6-0.9-0.3-1.4c0.3-0.5,0.9-0.6,1.4-0.3l5,3.2l5.2-3.2
		c0.5-0.3,1.1-0.1,1.4,0.3c0.3,0.5,0.1,1.1-0.3,1.4l-5.7,3.5v1.5H35V4.4c0-2.1-1.9-3.9-4.2-3.9H17.2c-2.3,0-4.2,1.7-4.2,3.9v14.9
		h9.5V17.3z"/>
	<path fill="#06728D" d="M43.6,37.9h-3.8l-3.4-16.4H11.6L8.3,37.9H4.4c-0.6,0-1,0.4-1,1s0.4,1,1,1h3.8l1.4,7.6h28.7l1.4-7.6h3.8
		c0.6,0,1-0.4,1-1S44.1,37.9,43.6,37.9z M24,42.2c-2.5,0-4.5-2-4.5-4.5c0-2.5,2-4.5,4.5-4.5s4.5,2,4.5,4.5
		C28.5,40.2,26.5,42.2,24,42.2z"/>
</g>
</svg>
