<?xml version="1.0" encoding="utf-8"?>
<!-- Generator: Adobe Illustrator 18.0.0, SVG Export Plug-In . SVG Version: 6.00 Build 0)  -->
<!DOCTYPE svg PUBLIC "-//W3C//DTD SVG 1.1//EN" "http://www.w3.org/Graphics/SVG/1.1/DTD/svg11.dtd">
<svg version="1.1" id="Layer_1" xmlns="http://www.w3.org/2000/svg" xmlns:xlink="http://www.w3.org/1999/xlink" x="0px" y="0px"
	 viewBox="0 0 48 48" enable-background="new 0 0 48 48" xml:space="preserve">
<g>
	<path fill="#F7A93B" d="M47.5,14.7c0-7.8-5.9-14.2-13.2-14.2c-4.2,0-7.9,2.1-10.3,5.3c-2.4-3.2-6.1-5.3-10.3-5.3
		C6.4,0.5,0.5,6.9,0.5,14.7c0,5.3,2.7,9.9,6.8,12.4c1.6,0.5,3.3,0.8,5.1,0.8c2.2,0,4.3-0.4,6.3-1.3c0.6-0.3,1.3-0.1,1.7,0.4
		c0.3,0.5,0.1,1.1-0.5,1.4c-2.3,1-4.8,1.5-7.5,1.5c-1.1,0-2.1-0.1-3.1-0.3v17.9h28.6V28.4l0.2-0.1C43.5,26.6,47.5,21.1,47.5,14.7z"
		/>
</g>
</svg>
