<?xml version="1.0" encoding="utf-8"?>
<!-- Generator: Adobe Illustrator 18.0.0, SVG Export Plug-In . SVG Version: 6.00 Build 0)  -->
<!DOCTYPE svg PUBLIC "-//W3C//DTD SVG 1.1//EN" "http://www.w3.org/Graphics/SVG/1.1/DTD/svg11.dtd">
<svg version="1.1" id="Layer_1" xmlns="http://www.w3.org/2000/svg" xmlns:xlink="http://www.w3.org/1999/xlink" x="0px" y="0px"
	 viewBox="0 0 48 48" enable-background="new 0 0 48 48" xml:space="preserve">
<g>
	<path fill="#F04B36" d="M45.8,2.2c-0.9-0.9-2-1.7-3.2-1.7c-0.7,0-1.4,0.3-2.1,0.8c-0.5,0.4-0.7,0.8-1,1.1c-0.1,0.2-0.3,0.4-0.4,0.5
		c0,0,0,0,0,0c1,0.3,2,0.8,3,1.4c1.6,1,2.8,2.4,3.7,4.1c0.9-1,1.7-1.9,1.7-3.1C47.5,4.2,46.9,3.2,45.8,2.2z"/>
	<path fill="#E77528" d="M41.1,5.9c-1.5-1-3.3-1.5-5.1-1.5c-3,0-5.8,1.4-7.5,3.8c-3.4,4.7-14,18-23.1,22.6c-2.2,1.1-3.8,3-4.5,5.3
		c-0.7,2.2-0.5,4.6,0.7,6.7c1.6,2.9,4.7,4.7,8.1,4.7c1.5,0,2.9-0.4,4.2-1c14.5-7.4,28.1-26.1,29.6-28.2c1.4-1.9,1.9-4.3,1.5-6.6
		C44.5,9.3,43.1,7.3,41.1,5.9z M37.4,12.7c-0.5,0.7-13.3,18.4-26.8,26c0,0-0.1,0-0.1,0c-0.6,0.2-1.8,1-2,1.7
		c-0.1,0.4-0.5,0.7-0.9,0.7c-0.1,0-0.2,0-0.3,0c-0.5-0.1-0.8-0.7-0.7-1.2c0.5-1.7,2.6-2.7,3-2.9c13.2-7.4,26-25.2,26.1-25.4
		c0.3-0.4,0.9-0.5,1.4-0.2C37.6,11.7,37.7,12.3,37.4,12.7z"/>
</g>
</svg>
