<?xml version="1.0" encoding="utf-8"?>
<!-- Generator: Adobe Illustrator 18.0.0, SVG Export Plug-In . SVG Version: 6.00 Build 0)  -->
<!DOCTYPE svg PUBLIC "-//W3C//DTD SVG 1.1//EN" "http://www.w3.org/Graphics/SVG/1.1/DTD/svg11.dtd">
<svg version="1.1" id="Layer_1" xmlns="http://www.w3.org/2000/svg" xmlns:xlink="http://www.w3.org/1999/xlink" x="0px" y="0px"
	 viewBox="0 0 48 48" enable-background="new 0 0 48 48" xml:space="preserve">
<g>
	<path fill="#FFD69A" d="M46.6,3.8c-0.9-1.6-2.4-2.7-4.2-3.1c-0.6-0.1-1.1-0.2-1.7-0.2c-3.1,0-5.8,2.1-6.6,5
		C34,5.8,32.3,12,27.9,18.4c0.2,0.2,0.4,0.4,0.6,0.6c1.9,2.1,2.6,4.6,2.8,6.5c1.6,0.5,3.9,1.5,5.8,3.1c7.4-9.5,10.1-19.4,10.2-19.8
		C47.7,7.1,47.5,5.3,46.6,3.8z"/>
	<path fill="#F7A93B" d="M29.4,27c0-1.6-0.4-4.4-2.4-6.6c-1.7-1.9-4.2-2.8-7.4-2.8c-0.3,0-0.7,0-1.1,0C9,18.2,8.4,28.5,8.4,28.6
		c0,0.4,0.2,0.7,0.5,0.9c0.3,0.2,0.7,0.2,1,0c0,0,4.1-2.8,7.5-2.8c0.8,0,1.5,0.2,2.1,0.5c-4,3-8.5,4.9-13.4,5.8
		c-1.8,0.3-3.4,1.3-4.4,2.8c-1,1.5-1.4,3.2-1.1,5c0.5,2.9,3,5.2,6,5.4c0.6,0.1,1.3,0,1.9-0.1c7.4-1.3,14.1-4.3,20-8.9
		c-0.2,2.4-2.1,6.2-3.7,8.5c-0.2,0.3-0.2,0.6-0.1,0.9c0.1,0.3,0.4,0.5,0.7,0.6c0.9,0.2,1.8,0.2,2.7,0.2h0c8.3,0,10-7.2,10.2-8.1
		c0.8-2.6,0.6-4.9-0.6-7C35.8,29,31.3,27.5,29.4,27z"/>
</g>
</svg>
