<?xml version="1.0" encoding="utf-8"?>
<!-- Generator: Adobe Illustrator 18.0.0, SVG Export Plug-In . SVG Version: 6.00 Build 0)  -->
<!DOCTYPE svg PUBLIC "-//W3C//DTD SVG 1.1//EN" "http://www.w3.org/Graphics/SVG/1.1/DTD/svg11.dtd">
<svg version="1.1" id="Layer_1" xmlns="http://www.w3.org/2000/svg" xmlns:xlink="http://www.w3.org/1999/xlink" x="0px" y="0px"
	 viewBox="0 0 48 48" enable-background="new 0 0 48 48" xml:space="preserve">
<g>
	<path fill="#0DB89A" d="M39.6,9C31.4-1.4,26,6.5,26,6.5C29.6,16,39.6,9,39.6,9z"/>
	<path fill="#0DB89A" d="M22,6.5c0,0-5.4-8-13.6,2.4C8.4,9,18.4,16,22,6.5z"/>
	<path fill="#0DB89A" d="M26.3,2c0.3-0.5,0.1-1.1-0.3-1.3c-0.5-0.3-1.1-0.1-1.3,0.3c-0.1,0.1-1.8,3.1-1.9,10.3l2,0
		C24.7,4.7,26.2,2,26.3,2z"/>
	<path fill="#4DA0D8" d="M33.5,24.2c-0.1-0.1-0.1-0.2-0.2-0.3c-3.5-3.3-4.3-6.5-4.4-7.2c0-0.1,0-0.2,0-0.3c0-2.6-1.9-4.7-4.3-5.2
		l-2,0c-2.5,0.5-4.3,2.6-4.3,5.2c0,0.1,0,0.2,0,0.3c-0.1,0.7-0.9,3.9-4.4,7.2c-0.1,0.1-0.1,0.2-0.2,0.3c-2.5,2.6-3.9,6-3.9,9.6
		c0,7.6,6.2,13.8,13.8,13.8c7.6,0,13.8-6.2,13.8-13.8C37.4,30.1,36,26.8,33.5,24.2z"/>
</g>
</svg>
