<?xml version="1.0" encoding="utf-8"?>
<!-- Generator: Adobe Illustrator 18.0.0, SVG Export Plug-In . SVG Version: 6.00 Build 0)  -->
<!DOCTYPE svg PUBLIC "-//W3C//DTD SVG 1.1//EN" "http://www.w3.org/Graphics/SVG/1.1/DTD/svg11.dtd">
<svg version="1.1" id="Layer_1" xmlns="http://www.w3.org/2000/svg" xmlns:xlink="http://www.w3.org/1999/xlink" x="0px" y="0px"
	 viewBox="0 0 48 48" enable-background="new 0 0 48 48" xml:space="preserve">
<g>
	<path fill="#F04B36" d="M46.9,27.9c-0.2-0.4-0.4-0.7-0.7-1c-0.7-0.3-1.4-0.5-2.1-0.6c-1.7-0.3-3.5-0.3-5.3-0.2c-0.5,0-0.9,0-1.4,0
		c-4.3,0-8.8,1.8-12.1,4.8c-1.2,1.1-2,2.7-2.2,4.6l0,0.2c-0.2,1.5-0.2,3.1,1.2,4c0.2,0.1,0.3,0.3,0.4,0.4c1.2,0.4,2.6,0.6,4.2,0.6h0
		c1.5,0,3.2-0.2,4.6-0.5c2.7-0.7,5-1.5,7.2-2.6c1.9-1,4.3-2.2,5.7-4C47.1,32.6,48.2,30.3,46.9,27.9z M27.1,34.2
		c-0.3,0-0.5-0.2-0.5-0.4c0-0.2,0.2-0.4,0.5-0.4c0.3,0,0.5,0.2,0.5,0.4C27.6,34,27.4,34.2,27.1,34.2z M30.7,35.9
		c-0.3,0-0.6-0.2-0.6-0.4c0-0.2,0.3-0.4,0.6-0.4c0.3,0,0.6,0.2,0.6,0.4C31.3,35.7,31,35.9,30.7,35.9z M32.5,32.5
		c-0.4,0-0.7-0.3-0.7-0.7c0-0.4,0.3-0.7,0.7-0.7c0.4,0,0.7,0.3,0.7,0.7C33.1,32.2,32.8,32.5,32.5,32.5z M36.5,34
		c-0.4,0-0.7-0.3-0.7-0.6c0-0.3,0.3-0.6,0.7-0.6c0.4,0,0.7,0.3,0.7,0.6C37.2,33.7,36.8,34,36.5,34z M36.9,30c-0.3,0-0.5-0.2-0.5-0.4
		c0-0.2,0.2-0.4,0.5-0.4c0.3,0,0.5,0.2,0.5,0.4C37.4,29.8,37.2,30,36.9,30z M41.4,31.3c-0.3,0-0.5-0.2-0.5-0.5
		c0-0.3,0.2-0.5,0.5-0.5c0.3,0,0.5,0.2,0.5,0.5C42,31.1,41.7,31.3,41.4,31.3z"/>
	<path fill="#E77528" d="M20.8,35.5l0-0.2c0.3-2.5,1.3-4.5,2.9-6.1c3.7-3.4,8.8-5.4,13.7-5.4c0.4,0,0.9,0,1.4,0c1.3,0,2.7,0,4.1,0.1
		c-3-2.4-8.2-5.7-14.7-5.7c-2,0-4,0.3-5.9,1c-6.5,2.2-10.3,5-11.1,8.5c-0.5,2.2,0.2,4.5,2.2,6.5c2,2,5.1,3.6,7.5,4.6
		C20.5,37.5,20.7,36.2,20.8,35.5z M20,27.1c-0.1,0.1-0.3,0.2-0.5,0.3c-0.3,0.1-0.6,0-0.9-0.2c-0.4-0.4-0.4-1-0.1-1.4
		c0-0.1,0.6-0.6,1.4-1.4c-1.1,0-1.8,0.1-1.8,0.1c-0.5,0.1-1-0.3-1.1-0.8c-0.1-0.5,0.3-1,0.8-1.1c0.1,0,1.9-0.2,4.6,0
		c1.1-0.7,2.4-1.5,3.9-2.2c0.5-0.2,1.1,0,1.3,0.5c0.2,0.5,0,1.1-0.5,1.3c-0.6,0.3-1.1,0.5-1.7,0.8c0.6,0.1,1.2,0.3,1.9,0.4
		c0.5,0.1,0.8,0.7,0.7,1.2c-0.1,0.4-0.4,0.6-0.7,0.7c-0.2,0-0.3,0-0.5,0c-1.4-0.4-2.7-0.6-3.9-0.7C21.1,25.9,20,27,20,27.1z"/>
	<path fill="#F7A93B" d="M21.7,17.3c2.1-0.7,4.3-1.1,6.5-1.1c0.8,0,1.6,0,2.3,0.1c0.2-1.4,0-3.2-1.1-5.2c-1.4-2.5-5.6-3.8-12.3-3.8
		l-0.6,0c0,0-0.1,0-0.1,0c0,0-0.1,0-0.1,0l-0.5,0c-0.4,0-0.9,0-1.4,0.1C12.2,7.5,10,7.7,8.1,8c-2.6,0.4-4.7,1.7-6,3.5
		c-1.4,2.1-1.9,4.9-1.4,7.9c0.6,3.4,5.6,4.9,9.4,5.6C11.8,21.9,15.7,19.3,21.7,17.3z M11.3,15.2c-0.3-0.5-0.2-1.1,0.3-1.4
		c0.1,0,0.7-0.5,1.9-1c-0.9-0.2-1.5-0.3-1.5-0.3C11.4,12.5,11,12,11,11.5c0.1-0.5,0.5-0.9,1.1-0.9c0.1,0,1.8,0.2,4.2,1
		c1.2-0.4,2.6-0.8,4.1-1.1c0.5-0.1,1,0.3,1.1,0.8c0.1,0.5-0.3,1-0.8,1.1c-0.5,0.1-1.1,0.2-1.6,0.3c0.6,0.3,1.2,0.6,1.9,0.9
		c0.5,0.3,0.6,0.9,0.4,1.3c-0.2,0.3-0.5,0.5-0.9,0.5c-0.2,0-0.3,0-0.5-0.1c-1.3-0.7-2.6-1.3-3.8-1.7c-2.3,0.9-3.7,1.8-3.7,1.8
		c-0.2,0.1-0.4,0.2-0.5,0.2C11.8,15.7,11.5,15.5,11.3,15.2z"/>
</g>
</svg>
