<?xml version="1.0" encoding="utf-8"?>
<!-- Generator: Adobe Illustrator 18.0.0, SVG Export Plug-In . SVG Version: 6.00 Build 0)  -->
<!DOCTYPE svg PUBLIC "-//W3C//DTD SVG 1.1//EN" "http://www.w3.org/Graphics/SVG/1.1/DTD/svg11.dtd">
<svg version="1.1" id="Layer_1" xmlns="http://www.w3.org/2000/svg" xmlns:xlink="http://www.w3.org/1999/xlink" x="0px" y="0px"
	 viewBox="0 0 48 48" enable-background="new 0 0 48 48" xml:space="preserve">
<g>
	<path fill="#F7A93B" d="M15.5,19.7c0-0.2-0.2-4.1-3.4-9.8V6.5l0.6-0.9c0.1-0.2,0.2-0.4,0.2-0.5V1.8c0-1-0.9-1.3-3.6-1.3
		c-2.6,0-3.5,0.3-3.6,1.2c0,0,0,0.1,0,0.1v3.3c0,0.2,0.1,0.4,0.2,0.5l0.6,0.9v3.4C3.2,15.6,3,19.5,3,19.7c0,0-0.1,2.5-0.1,5.3h12.7
		C15.5,22.2,15.5,19.7,15.5,19.7z"/>
	<path fill="#E77528" d="M30.2,19.7c0-0.2-0.2-4.1-3.4-9.8V6.5l0.6-0.9c0.1-0.2,0.2-0.4,0.2-0.5V1.8c0-1-0.9-1.3-3.6-1.3
		c-2.6,0-3.5,0.3-3.6,1.2c0,0,0,0.1,0,0.1v3.3c0,0.2,0.1,0.4,0.2,0.5l0.6,0.9v3.4c-3.2,5.7-3.4,9.6-3.4,9.8c0,0-0.1,2.5-0.1,5.3
		h12.7C30.3,22.2,30.2,19.7,30.2,19.7z"/>
	<path fill="#4DA0D8" d="M45,19.7c0-0.2-0.2-4.1-3.4-9.8V6.5l0.6-0.9c0.1-0.2,0.2-0.4,0.2-0.5V1.8c0-1-0.9-1.3-3.6-1.3
		c-2.6,0-3.5,0.3-3.6,1.2c0,0,0,0.1,0,0.1v3.3c0,0.2,0.1,0.4,0.2,0.5l0.6,0.9v3.4c-3.2,5.7-3.4,9.6-3.4,9.8c0,0-0.1,2.5-0.1,5.3
		h12.7C45,22.2,45,19.7,45,19.7z"/>
	<path fill="#06728D" d="M44.4,27H3.6c-1.7,0-3.1,1.5-3.1,3.4v13.7c0,1.9,1.4,3.4,3.1,3.4h40.7c1.7,0,3.1-1.5,3.1-3.4V30.4
		C47.5,28.5,46.1,27,44.4,27z M29.4,35H18.6c-0.5,0-1-0.4-1-1s0.4-1,1-1h10.9c0.5,0,1,0.4,1,1S30,35,29.4,35z"/>
</g>
</svg>
