<?xml version="1.0" encoding="utf-8"?>
<!-- Generator: Adobe Illustrator 18.0.0, SVG Export Plug-In . SVG Version: 6.00 Build 0)  -->
<!DOCTYPE svg PUBLIC "-//W3C//DTD SVG 1.1//EN" "http://www.w3.org/Graphics/SVG/1.1/DTD/svg11.dtd">
<svg version="1.1" id="Layer_1" xmlns="http://www.w3.org/2000/svg" xmlns:xlink="http://www.w3.org/1999/xlink" x="0px" y="0px"
	 viewBox="0 0 48 48" enable-background="new 0 0 48 48" xml:space="preserve">
<g>
	<path fill="#F04B36" d="M20.6,12.1c0.5,0,1-0.4,1-1V5.2c0-0.5-0.4-1-1-1c-0.5,0-1,0.4-1,1v5.9C19.6,11.6,20.1,12.1,20.6,12.1z"/>
	<path fill="#F04B36" d="M14.8,12.1c0.5,0,1-0.4,1-1V3.2c0-0.5-0.4-1-1-1c-0.5,0-1,0.4-1,1v7.9C13.9,11.6,14.3,12.1,14.8,12.1z"/>
	<path fill="#F04B36" d="M9.1,12.1c0.5,0,1-0.4,1-1V5.2c0-0.5-0.4-1-1-1c-0.5,0-1,0.4-1,1v5.9C8.1,11.6,8.6,12.1,9.1,12.1z"/>
	<path fill="#0DB89A" d="M25.3,15.4c0.2-0.3,0.2-0.7,0.1-1c-0.2-0.3-0.5-0.5-0.9-0.5H5.2c-0.4,0-0.7,0.2-0.9,0.5
		c-0.2,0.3-0.1,0.7,0.1,1c0.1,0.2,3,4.3-0.4,8c-3.6,3.9-3.6,9.3-3.5,11c0,0,0,0,0,0c0,6.3,6.4,11.3,14.3,11.3
		c7.9,0,14.3-5.1,14.3-11.3c0,0,0,0,0-0.1c0.1-1.5,0.2-6-2.4-9.7l-1.2-1.5C22.4,19.6,25.1,15.6,25.3,15.4z"/>
	<path fill="#294E58" d="M46.6,4l-0.8-0.8C44.6,2,42.5,2,41.3,3.2l-6.7,6.5c-1.2,1.2-1.3,3-0.3,4.3l-8.8,9.2l1.2,1.5l8.9-9.4
		c0.6,0.4,1.2,0.7,1.9,0.7c0.8,0,1.6-0.3,2.2-0.9l6.7-6.5c0.6-0.6,1-1.4,1-2.3C47.5,5.4,47.2,4.6,46.6,4z"/>
</g>
</svg>
