<?xml version="1.0" encoding="utf-8"?>
<!-- Generator: Adobe Illustrator 18.0.0, SVG Export Plug-In . SVG Version: 6.00 Build 0)  -->
<!DOCTYPE svg PUBLIC "-//W3C//DTD SVG 1.1//EN" "http://www.w3.org/Graphics/SVG/1.1/DTD/svg11.dtd">
<svg version="1.1" id="Layer_1" xmlns="http://www.w3.org/2000/svg" xmlns:xlink="http://www.w3.org/1999/xlink" x="0px" y="0px"
	 viewBox="0 0 48 48" enable-background="new 0 0 48 48" xml:space="preserve">
<g>
	<path fill="#F04B36" d="M40.6,26.6c0-2.7-1.6-5.3-4.1-6.8c0.8-1.2,1.3-2.6,1.3-4c0-3.1-2.1-5.8-5.2-7c0-0.3,0-0.5,0-0.8
		c0-4.1-3.8-7.5-8.5-7.5c-4.7,0-8.5,3.4-8.5,7.5c0,0.3,0,0.5,0,0.8c-3.2,1.2-5.2,3.9-5.2,7c0,1.4,0.5,2.8,1.3,4
		c-2.5,1.5-4.1,4-4.1,6.8c0,3,1.9,5.7,4.8,7.1c-0.3,0.7-0.4,1.5-0.4,2.2c0,3.8,3.4,6.9,7.7,7v3.6c0,0.5,0.4,1,1,1h7c0.5,0,1-0.4,1-1
		v-3.6c4.3-0.1,7.7-3.2,7.7-7c0-0.8-0.1-1.5-0.4-2.2C38.7,32.3,40.6,29.6,40.6,26.6z M20.2,30.8C20,31,19.8,31,19.7,31
		c-0.3,0-0.6-0.2-0.8-0.4l-2.6-3.9c-0.3-0.5-0.2-1.1,0.3-1.4c0.5-0.3,1.1-0.2,1.4,0.3l2.6,3.9C20.8,29.9,20.6,30.5,20.2,30.8z
		 M20.2,20.6c-0.2,0.1-0.4,0.2-0.5,0.2c-0.3,0-0.6-0.2-0.8-0.4l-2.6-3.9c-0.3-0.5-0.2-1.1,0.3-1.4c0.5-0.3,1.1-0.2,1.4,0.3l2.6,3.9
		C20.8,19.7,20.6,20.3,20.2,20.6z M25,39c0,0.5-0.4,1-1,1c-0.5,0-1-0.4-1-1V11.4c0-0.5,0.4-1,1-1c0.5,0,1,0.4,1,1V39z M31.8,26.6
		l-2.6,3.9C29,30.9,28.7,31,28.3,31c-0.2,0-0.4-0.1-0.5-0.2c-0.5-0.3-0.6-0.9-0.3-1.4l2.6-3.9c0.3-0.5,0.9-0.6,1.4-0.3
		C31.9,25.6,32.1,26.2,31.8,26.6z M31.8,16.4l-2.6,3.9c-0.2,0.3-0.5,0.4-0.8,0.4c-0.2,0-0.4-0.1-0.5-0.2c-0.5-0.3-0.6-0.9-0.3-1.4
		l2.6-3.9c0.3-0.5,0.9-0.6,1.4-0.3C31.9,15.4,32.1,16,31.8,16.4z"/>
</g>
</svg>
