<?xml version="1.0" encoding="utf-8"?>
<!-- Generator: Adobe Illustrator 18.0.0, SVG Export Plug-In . SVG Version: 6.00 Build 0)  -->
<!DOCTYPE svg PUBLIC "-//W3C//DTD SVG 1.1//EN" "http://www.w3.org/Graphics/SVG/1.1/DTD/svg11.dtd">
<svg version="1.1" id="Layer_1" xmlns="http://www.w3.org/2000/svg" xmlns:xlink="http://www.w3.org/1999/xlink" x="0px" y="0px"
	 viewBox="0 0 48 48" enable-background="new 0 0 48 48" xml:space="preserve">
<g>
	<path fill="#4DA0D8" d="M32.7,18.6c-1.3-3.8-2.8-7-2.9-7.1c-0.2-0.3-0.5-0.5-0.9-0.5H14.9c-0.4,0-0.7,0.2-0.9,0.5
		c-0.1,0.1-1.6,3.4-2.9,7.1c0,0,0,0,0,0c-1.4,4-2,7.1-1.7,9.1c0.6,5.6,5.7,7.4,8.1,8.2c1.4,0.5,2.5,1.2,3.1,1.6v8.1h-5.3
		c-0.5,0-0.9,0.4-0.9,0.9c0,0.5,0.4,0.9,0.9,0.9h13.2c0.5,0,0.9-0.4,0.9-0.9c0-0.5-0.4-0.9-0.9-0.9h-5.3v-8.1
		c0.6-0.5,1.7-1.1,3.1-1.6c2.4-0.8,7.5-2.6,8.1-8.2C34.7,25.7,34.1,22.6,32.7,18.6C32.7,18.6,32.7,18.6,32.7,18.6z M13.4,17.9
		c0.8-2.3,1.7-4.2,2.1-5.2h12.9c0.4,0.9,1.3,2.9,2.1,5.2H13.4z"/>
	<path fill="#E8B944" d="M30.5,0.5c-4.5,0-8.1,3.6-8.1,8.1c0,0.1,0,0.3,0,0.4h8.6c0.4,0,0.7,0.2,0.9,0.5c0.1,0.1,1.3,2.9,2.5,6.2
		c2.6-1.4,4.3-4.1,4.3-7.1C38.6,4.1,34.9,0.5,30.5,0.5z"/>
</g>
</svg>
