<?xml version="1.0" encoding="utf-8"?>
<!-- Generator: Adobe Illustrator 18.0.0, SVG Export Plug-In . SVG Version: 6.00 Build 0)  -->
<!DOCTYPE svg PUBLIC "-//W3C//DTD SVG 1.1//EN" "http://www.w3.org/Graphics/SVG/1.1/DTD/svg11.dtd">
<svg version="1.1" id="Layer_1" xmlns="http://www.w3.org/2000/svg" xmlns:xlink="http://www.w3.org/1999/xlink" x="0px" y="0px"
	 viewBox="0 0 48 48" enable-background="new 0 0 48 48" xml:space="preserve">
<g>
	<path fill="#FFD69A" d="M30,0.5H3.7c-1.8,0-3.2,1.4-3.2,3.2v26.2c0,1.8,1.4,3.2,3.2,3.2H30c1.8,0,3.2-1.4,3.2-3.2V3.7
		C33.2,1.9,31.8,0.5,30,0.5z"/>
	<path fill="#E77528" d="M47.3,20.1c-0.3-0.8-0.8-1.5-1.6-1.9l-10.6-5.5v17.2c0,2.9-2.3,5.2-5.2,5.2H7.4l23.2,12.1
		c0.5,0.2,1,0.4,1.5,0.4c1.2,0,2.3-0.6,2.9-1.7l12.1-23.2C47.5,21.8,47.6,20.9,47.3,20.1z"/>
</g>
</svg>
