<?xml version="1.0" encoding="utf-8"?>
<!-- Generator: Adobe Illustrator 18.0.0, SVG Export Plug-In . SVG Version: 6.00 Build 0)  -->
<!DOCTYPE svg PUBLIC "-//W3C//DTD SVG 1.1//EN" "http://www.w3.org/Graphics/SVG/1.1/DTD/svg11.dtd">
<svg version="1.1" id="Layer_1" xmlns="http://www.w3.org/2000/svg" xmlns:xlink="http://www.w3.org/1999/xlink" x="0px" y="0px"
	 viewBox="0 0 48 48" enable-background="new 0 0 48 48" xml:space="preserve">
<g>
	<path fill="#F04B36" d="M35.5,16.5c-0.9,5.9-4.3,6.5-4.3,6.5c2-2.8,1-6.7-1.2-8c-2.2-1.3-7.3,0.4-7.3,0.4
		c-5.6,1.5-9.7,7.5-11.3,14.3c-1.6,6.8-6,10.2-7.8,11.8c-1.8,1.7-3.8,3.9-2.7,5.5c1.2,1.6,7.2-0.9,9.7-2.7c2.5-1.9,1,1,18.1-7.2
		C45.8,28.8,35.5,16.5,35.5,16.5z"/>
	<path fill="#0DB89A" d="M46,0.6c-6.7,0.5-10.4,7.1-11.5,9.5c-2.3-1-4.2-1.2-4.4-1.2c-0.7-0.1-1.4,0.5-1.5,1.2
		c-0.1,0.7,0.5,1.4,1.2,1.5c0.1,0,5.3,0.6,8.2,4.6c0.3,0.4,0.7,0.6,1.1,0.6c0.3,0,0.5-0.1,0.8-0.2c0.6-0.4,0.8-1.3,0.3-1.9
		c-1-1.4-2.1-2.4-3.4-3.2c0.9-1.9,4-7.7,9.4-8.1c0.7-0.1,1.3-0.7,1.3-1.5C47.4,1.1,46.7,0.5,46,0.6z"/>
</g>
</svg>
