<?xml version="1.0" encoding="utf-8"?>
<!-- Generator: Adobe Illustrator 18.0.0, SVG Export Plug-In . SVG Version: 6.00 Build 0)  -->
<!DOCTYPE svg PUBLIC "-//W3C//DTD SVG 1.1//EN" "http://www.w3.org/Graphics/SVG/1.1/DTD/svg11.dtd">
<svg version="1.1" id="Layer_1" xmlns="http://www.w3.org/2000/svg" xmlns:xlink="http://www.w3.org/1999/xlink" x="0px" y="0px"
	 viewBox="0 0 48 48" enable-background="new 0 0 48 48" xml:space="preserve">
<g>
	<path fill="#F04B36" d="M5.4,34.7c8.1,8.1,21.2,8.1,29.2,0c3.9-3.9,6-9.1,6-14.6c0-5.5-2.1-10.7-6-14.6c0,0,0,0,0-0.1L5.4,34.7
		C5.3,34.6,5.3,34.7,5.4,34.7z M27.4,32.4c-0.2,0.3-0.5,0.4-0.8,0.4c-0.2,0-0.4-0.1-0.6-0.2c-0.3-0.2-0.5-0.5-0.7-0.7
		c0-0.1-0.1-0.1-0.1-0.2c-0.5-0.2-0.7-0.8-0.5-1.4c0.2-0.5,0.9-0.7,1.4-0.5c0.5,0.2,0.8,0.6,0.9,0.9c0,0.1,0.1,0.2,0.1,0.2
		C27.6,31.4,27.7,32,27.4,32.4z M34.2,15.3c0.2-0.1,0.3-0.1,0.5-0.2c0.1,0,0.2-0.1,0.3-0.1c0.5-0.2,1.1,0,1.4,0.5
		c0.2,0.5,0,1.1-0.5,1.4c-0.2,0.1-0.3,0.1-0.5,0.2c-0.1,0-0.2,0.1-0.3,0.1c-0.1,0.1-0.3,0.1-0.4,0.1c-0.4,0-0.8-0.2-0.9-0.6
		C33.5,16.1,33.7,15.5,34.2,15.3z M33.6,21.1c0.2,0,0.4,0,0.5-0.1c0.2-0.1,0.5-0.1,0.7-0.1c0.6-0.1,1.1,0.4,1.1,0.9
		c0.1,0.6-0.4,1.1-0.9,1.1c-0.2,0-0.3,0-0.5,0.1c-0.3,0.1-0.6,0.1-0.9,0.1c0,0,0,0,0,0c-0.6,0-1-0.4-1-1
		C32.6,21.6,33.1,21.1,33.6,21.1z M29.9,26.8c0.5-0.1,1,0.1,1.5,0.2c0.5,0.2,0.8,0.8,0.7,1.3c-0.1,0.4-0.5,0.7-1,0.7
		c-0.1,0-0.2,0-0.3-0.1c-0.2-0.1-0.4-0.1-0.6-0.1c-0.6,0.1-1.1-0.3-1.1-0.9C28.9,27.4,29.3,26.9,29.9,26.8z M27,17.8
		c0.4-0.2,0.8-0.2,1.1,0c0.4,0.1,0.7,0.3,0.8,0.7c0.2,0.5-0.2,1.1-0.7,1.3c-0.1,0-0.3,0.1-0.4,0.1c-0.5,0-0.9-0.2-1.2-0.7
		C26.4,18.8,26.5,18.1,27,17.8z M24.6,21.5c0.4-0.4,1.1-0.4,1.4,0l0.1,0.1c0.4,0.4,0.4,1,0,1.4c-0.2,0.2-0.5,0.3-0.7,0.3
		c-0.3,0-0.5-0.1-0.7-0.3l-0.1-0.1C24.2,22.5,24.2,21.9,24.6,21.5z M21.7,24.9c0.5-0.3,1.1-0.1,1.4,0.3c0.2,0.4,0.2,0.9-0.1,1.2
		c-0.1,0.4-0.4,0.7-0.8,0.7c0,0-0.1,0-0.1,0c-0.5,0-0.9-0.4-1-0.9C20.9,25.8,21.2,25.2,21.7,24.9z M20.2,31.8c0.4-0.4,1-0.5,1.4-0.1
		c0.6,0.5,0.5,1.2,0.4,1.4c0,0.4,0,0.5,0,0.9c0.1,0.6-0.2,1.1-0.8,1.2c-0.1,0-0.2,0-0.2,0c-0.5,0-0.9-0.3-1-0.8
		C20,33.9,20,33.6,20,33c0,0,0-0.1,0-0.1C19.9,32.5,19.9,32.1,20.2,31.8z M16.9,28.3c0-0.1,0.1-0.3,0.1-0.4c0.1-0.6,0.6-0.9,1.2-0.8
		c0.6,0.1,0.9,0.6,0.8,1.2c0,0.2-0.1,0.3-0.1,0.5c-0.1,0.5-0.5,0.8-1,0.8c-0.1,0-0.1,0-0.2,0C17.1,29.4,16.8,28.9,16.9,28.3z
		 M13.6,33c0-0.6,0.5-1.1,1.1-1c0.6,0,1,0.5,1,1.1l0,1.2c0,0.6-0.5,1-1,1c0,0,0,0,0,0c-0.6,0-1-0.5-1-1.1L13.6,33z"/>
	<path fill="#4DA0D8" d="M39.4,0.5L36,4c0,0,0,0,0.1,0c4.3,4.3,6.6,10,6.6,16c0,6.1-2.4,11.8-6.6,16.1c-4.4,4.4-10.2,6.6-16,6.6
		c-5.8,0-11.6-2.2-16.1-6.6c0,0,0,0,0-0.1l-3.4,3.4c10.8,10.8,28.2,10.8,38.9,0C50.2,28.7,50.2,11.3,39.4,0.5z"/>
</g>
</svg>
