<?xml version="1.0" encoding="utf-8"?>
<!-- Generator: Adobe Illustrator 18.0.0, SVG Export Plug-In . SVG Version: 6.00 Build 0)  -->
<!DOCTYPE svg PUBLIC "-//W3C//DTD SVG 1.1//EN" "http://www.w3.org/Graphics/SVG/1.1/DTD/svg11.dtd">
<svg version="1.1" id="Layer_1" xmlns="http://www.w3.org/2000/svg" xmlns:xlink="http://www.w3.org/1999/xlink" x="0px" y="0px"
	 viewBox="0 0 48 48" enable-background="new 0 0 48 48" xml:space="preserve">
<g>
	<path fill="#294E58" d="M35.3,38.3c0.6-0.7,1.3-1.4,1.8-2.2c0.4-0.1,0.9-0.2,1.4-0.2c1.6-0.2,3.3-0.5,4.8-1.6
		c3.8-3,4.8-7.1,3.9-9.6c-0.7-1.8-2.3-2.6-4.2-2.2c-0.4,0.1-0.9,0.3-1.3,0.5c0-0.5,0.1-1,0.1-1.5H6.4c0,6.8,2.5,12.9,6.3,16.9
		c-7.3,0.8-12.2,2.4-12.2,4.3c0,2.7,10.5,4.9,23.5,4.9c13,0,23.5-2.2,23.5-4.9C47.5,40.7,42.6,39.1,35.3,38.3z M41.3,25.7
		c0.5-0.5,1.3-0.9,2-1.1c0.7-0.2,1.6-0.1,2,0.9c0.6,1.7-0.2,4.7-3.2,7c-0.9,0.7-2.2,1-3.5,1.2C40,31.3,40.9,28.6,41.3,25.7z"/>
	<path fill="#06728D" d="M17.4,7l0.1,0.4l0.1,0.2l0,0l0,0c0,0,0-0.1,0-0.1l0,0l0,0l0,0.1c0.1,0.2,0.2,0.6,0.2,0.7
		c0,0.2,0.1,0.4,0.1,0.6c0.1,0.5,0.1,1,0.1,1.5c0,0.5,0,1,0,1.5c0,0.5-0.1,1-0.1,1.4c0,0.5-0.1,0.9-0.1,1.3c-0.1,0.8-0.2,1.5-0.2,2
		c0,0.5-0.1,0.8-0.1,0.8s0.2-0.2,0.4-0.6c0.3-0.4,0.6-1,0.9-1.8c0.3-0.8,0.7-1.7,0.9-2.8c0.2-1.1,0.3-2.3,0.2-3.5
		c0-0.3-0.1-0.7-0.2-1c-0.1-0.3-0.2-0.5-0.3-0.8l-0.1-0.3l-0.1-0.2l-0.1-0.3c-0.1-0.2-0.2-0.4-0.2-0.7c-0.1-0.4-0.3-0.9-0.3-1.3
		c-0.1-0.4-0.1-0.8-0.2-1.2c-0.1-0.8-0.1-1.4,0-1.9c0-0.5,0.1-0.8,0.1-0.8S18.3,0.7,18,1.1c-0.3,0.4-0.6,1.1-0.8,2
		c-0.1,0.4-0.2,0.9-0.2,1.5c0,0.5,0,1.1,0.1,1.6C17.2,6.5,17.3,6.7,17.4,7z"/>
	<path fill="#06728D" d="M22.9,7L23,7.4L23,7.7l0,0l0,0c0,0,0-0.1,0-0.1l0,0l0,0l0,0.1c0.1,0.2,0.2,0.6,0.2,0.7
		c0,0.2,0.1,0.4,0.1,0.6c0.1,0.5,0.1,1,0.1,1.5c0,0.5,0,1,0,1.5c0,0.5-0.1,1-0.1,1.4c0,0.5-0.1,0.9-0.1,1.3c-0.1,0.8-0.2,1.5-0.2,2
		c0,0.5-0.1,0.8-0.1,0.8s0.2-0.2,0.4-0.6c0.3-0.4,0.6-1,0.9-1.8c0.3-0.8,0.7-1.7,0.9-2.8c0.2-1.1,0.3-2.3,0.2-3.5
		c0-0.3-0.1-0.7-0.2-1c-0.1-0.3-0.2-0.5-0.3-0.8l-0.1-0.3l-0.1-0.2l-0.1-0.3c-0.1-0.2-0.2-0.4-0.2-0.7c-0.1-0.4-0.3-0.9-0.3-1.3
		C24,4,23.9,3.6,23.9,3.2c-0.1-0.8-0.1-1.4,0-1.9c0-0.5,0.1-0.8,0.1-0.8s-0.2,0.2-0.5,0.6c-0.3,0.4-0.6,1.1-0.8,2
		c-0.1,0.4-0.2,0.9-0.2,1.5c0,0.5,0,1.1,0.1,1.6C22.7,6.5,22.8,6.7,22.9,7z"/>
	<path fill="#06728D" d="M28.3,7l0.1,0.4l0.1,0.2l0,0l0,0c0,0,0-0.1,0-0.1l0,0l0,0l0,0.1c0.1,0.2,0.2,0.6,0.2,0.7
		c0,0.2,0.1,0.4,0.1,0.6c0.1,0.5,0.1,1,0.1,1.5c0,0.5,0,1,0,1.5c0,0.5-0.1,1-0.1,1.4c0,0.5-0.1,0.9-0.1,1.3c-0.1,0.8-0.2,1.5-0.2,2
		c0,0.5-0.1,0.8-0.1,0.8s0.2-0.2,0.4-0.6c0.3-0.4,0.6-1,0.9-1.8c0.3-0.8,0.7-1.7,0.9-2.8c0.2-1.1,0.3-2.3,0.2-3.5
		c0-0.3-0.1-0.7-0.2-1c-0.1-0.3-0.2-0.5-0.3-0.8l-0.1-0.3l-0.1-0.2l-0.1-0.3C30,6.1,30,5.9,29.9,5.7c-0.1-0.4-0.3-0.9-0.3-1.3
		c-0.1-0.4-0.1-0.8-0.2-1.2c-0.1-0.8-0.1-1.4,0-1.9c0-0.5,0.1-0.8,0.1-0.8S29.2,0.7,29,1.1c-0.3,0.4-0.6,1.1-0.8,2
		C28.1,3.5,28.1,4,28,4.5c0,0.5,0,1.1,0.1,1.6C28.2,6.5,28.3,6.7,28.3,7z"/>
	<path fill="#4DA0D8" d="M5.8,21.4C5.8,21.4,5.8,21.4,5.8,21.4c0,11.8,8.2,21.3,18.4,21.3c10.1,0,18.4-9.5,18.4-21.2c0,0,0,0,0-0.1
		H5.8z"/>
</g>
</svg>
