<?xml version="1.0" encoding="utf-8"?>
<!-- Generator: Adobe Illustrator 18.0.0, SVG Export Plug-In . SVG Version: 6.00 Build 0)  -->
<!DOCTYPE svg PUBLIC "-//W3C//DTD SVG 1.1//EN" "http://www.w3.org/Graphics/SVG/1.1/DTD/svg11.dtd">
<svg version="1.1" id="Layer_1" xmlns="http://www.w3.org/2000/svg" xmlns:xlink="http://www.w3.org/1999/xlink" x="0px" y="0px"
	 viewBox="0 0 48 48" enable-background="new 0 0 48 48" xml:space="preserve">
<g>
	<path fill="#0DB89A" d="M35.8,29.1c-1.6-1.5-3.9-1.6-5.6-0.2l-1.4,1.1c-2.7,2.2-6.2,2.3-9,0.4l-4.6-3.2c-0.7-0.5-1.6-0.6-2.4-0.3
		L5.9,33l5.4,14.5h24.5l6.2-16.2l-1.9-0.2C38.6,31,37.1,30.3,35.8,29.1z M15.3,44.4c-0.1,0-0.2,0.1-0.3,0.1c-0.4,0-0.7-0.3-0.9-0.7
		l-2.9-10.1c-0.2-0.6,0.1-1.2,0.6-1.4c0.5-0.2,1,0.1,1.2,0.7l2.9,10.1C16,43.6,15.7,44.2,15.3,44.4z M24.5,43.4
		c0,0.6-0.4,1.1-0.9,1.1s-0.9-0.5-0.9-1.1v-7.8c0-0.6,0.4-1.1,0.9-1.1s0.9,0.5,0.9,1.1V43.4z M36.8,33.7l-2.9,10.1
		c-0.1,0.5-0.5,0.7-0.9,0.7c-0.1,0-0.2,0-0.3-0.1c-0.5-0.2-0.7-0.8-0.6-1.4L35.1,33c0.2-0.6,0.7-0.9,1.2-0.7
		C36.7,32.5,37,33.1,36.8,33.7z"/>
	<path fill="#E77528" d="M24,0.5c-13,0-23.5,9-23.5,20c0,1.6,0.2,3.1,0.6,4.6c0.8,2.8,3.8,3.8,5.8,2l4.1-3.6c0.3-0.3,0.7-0.5,1-0.7
		c1.8-0.8,3.8-0.5,5.5,0.6l4.6,3.2c1.6,1.1,3.6,1,5.1-0.2l1.4-1.1c3-2.4,7-2.5,9.8,0.2c0.7,0.7,1.7,1.2,2.6,1.3l2.3,0.2
		c1.9,0.2,3.6-1.3,4-3.6c0.2-1,0.3-2,0.3-3C47.5,9.5,37,0.5,24,0.5z M9.2,16.2c-1,0-1.8-1-1.8-2.2c0-1.2,0.8-2.2,1.8-2.2
		c1,0,1.8,1,1.8,2.2C11.1,15.2,10.2,16.2,9.2,16.2z M23.1,19.1c-0.7,0-1.2-0.7-1.2-1.5c0-0.8,0.5-1.5,1.2-1.5c0.7,0,1.2,0.7,1.2,1.5
		C24.3,18.4,23.7,19.1,23.1,19.1z M25.3,6.9c-0.4,0-0.7-0.3-0.7-0.8c0-0.4,0.3-0.8,0.7-0.8c0.4,0,0.7,0.3,0.7,0.8
		C26,6.6,25.7,6.9,25.3,6.9z M39.6,15.4c-0.7,0-1.3-0.7-1.3-1.6c0-0.9,0.6-1.6,1.3-1.6c0.7,0,1.3,0.7,1.3,1.6
		C41,14.6,40.4,15.4,39.6,15.4z"/>
</g>
</svg>
