<?xml version="1.0" encoding="utf-8"?>
<!-- Generator: Adobe Illustrator 18.0.0, SVG Export Plug-In . SVG Version: 6.00 Build 0)  -->
<!DOCTYPE svg PUBLIC "-//W3C//DTD SVG 1.1//EN" "http://www.w3.org/Graphics/SVG/1.1/DTD/svg11.dtd">
<svg version="1.1" id="Layer_1" xmlns="http://www.w3.org/2000/svg" xmlns:xlink="http://www.w3.org/1999/xlink" x="0px" y="0px"
	 viewBox="0 0 48 48" enable-background="new 0 0 48 48" xml:space="preserve">
<g>
	<path fill="#294E58" d="M9.2,3.8C8.9,3.8,8.7,4,8.7,4.3L7.8,15.1c0,0.4-0.3,0.8-0.7,0.8h0c-0.3,0-0.6-0.3-0.7-0.8L5.6,4.3
		C5.5,4,5.3,3.8,5,3.8C4.8,3.8,4.5,4,4.5,4.3L3.6,15.1c0,0.4-0.3,0.8-0.7,0.8s-0.6-0.3-0.7-0.8L1.4,4.3c0-0.3-0.3-0.5-0.5-0.5H0.5
		v10.9c0,2.3,1.6,4.3,3.7,4.7l-1.1,23c-0.1,1,0.7,1.9,1.7,1.9s1.8-0.9,1.7-1.9l-1.1-23c2.3-0.3,4-2.2,4-4.5V3.8H9.2z"/>
	<path fill="#294E58" d="M47.5,11.9c0-4.2-2.3-7.6-5.1-7.6c-2.8,0-5.1,3.4-5.1,7.6c0,3.9,2,7.1,4.5,7.5l-1,22.4
		c-0.1,1,0.7,1.8,1.7,1.8c1,0,1.8-0.8,1.7-1.8l-1-22.4C45.5,19,47.5,15.8,47.5,11.9z"/>
	<path fill="#CFD0D1" d="M24,16.1c-5.6,0-10.1,4.5-10.1,10.1c0,5.6,4.5,10.1,10.1,10.1c5.6,0,10.1-4.5,10.1-10.1
		C34.1,20.6,29.6,16.1,24,16.1z"/>
	<path fill="#F7A93B" d="M24,11.8c-7.9,0-14.4,6.4-14.4,14.4c0,7.9,6.4,14.4,14.4,14.4s14.4-6.4,14.4-14.4
		C38.4,18.2,31.9,11.8,24,11.8z M24,37.8c-6.4,0-11.7-5.2-11.7-11.7c0-6.4,5.2-11.7,11.7-11.7s11.7,5.2,11.7,11.7
		C35.7,32.6,30.4,37.8,24,37.8z"/>
</g>
</svg>
