<?xml version="1.0" encoding="utf-8"?>
<!-- Generator: Adobe Illustrator 18.0.0, SVG Export Plug-In . SVG Version: 6.00 Build 0)  -->
<!DOCTYPE svg PUBLIC "-//W3C//DTD SVG 1.1//EN" "http://www.w3.org/Graphics/SVG/1.1/DTD/svg11.dtd">
<svg version="1.1" id="Layer_1" xmlns="http://www.w3.org/2000/svg" xmlns:xlink="http://www.w3.org/1999/xlink" x="0px" y="0px"
	 viewBox="0 0 48 48" enable-background="new 0 0 48 48" xml:space="preserve">
<g>
	<path fill="#F7A93B" d="M10.4,1.1c-0.3,0-0.6,0.2-0.6,0.6l-1,12.3c0,0.5-0.4,0.9-0.8,0.9h0c-0.4,0-0.7-0.4-0.8-0.9l-1-12.3
		c0-0.3-0.3-0.6-0.6-0.6c-0.3,0-0.6,0.2-0.6,0.6l-1,12.3c0,0.5-0.4,0.9-0.8,0.9c-0.4,0-0.7-0.4-0.8-0.9l-1-12.3
		c0-0.3-0.3-0.6-0.6-0.6H0.5v12.3c0,2.6,1.8,4.8,4.3,5.3L3.6,44.8c-0.1,1.1,0.8,2.1,2,2.1c1.2,0,2.1-1,2-2.1L6.3,18.7
		c2.6-0.3,4.6-2.5,4.6-5.1V1.1H10.4z"/>
	<path fill="#CFD0D1" d="M30.2,9.9c0-4.9-2.7-8.8-6.1-8.8c-3.3,0-6.1,4-6.1,8.8c0,4.5,2.3,8.2,5.3,8.8l-1.2,26.1
		c-0.1,1.1,0.8,2.1,2,2.1s2.1-1,2-2.1l-1.2-26.1C27.8,18.2,30.2,14.4,30.2,9.9z"/>
	<path fill="#4DA0D8" d="M46.3,25.4V1.5c0-0.9-1.1-1.3-1.7-0.7c-6.1,5.8-3.7,17.8-1.2,25.7l-1.2,18.9c-0.1,1.2,1.1,2.2,2.6,2.2
		c1.5,0,2.7-1,2.6-2.2L46.3,25.4z"/>
</g>
</svg>
