<?xml version="1.0" encoding="utf-8"?>
<!-- Generator: Adobe Illustrator 18.0.0, SVG Export Plug-In . SVG Version: 6.00 Build 0)  -->
<!DOCTYPE svg PUBLIC "-//W3C//DTD SVG 1.1//EN" "http://www.w3.org/Graphics/SVG/1.1/DTD/svg11.dtd">
<svg version="1.1" id="Layer_1" xmlns="http://www.w3.org/2000/svg" xmlns:xlink="http://www.w3.org/1999/xlink" x="0px" y="0px"
	 viewBox="0 0 48 48" enable-background="new 0 0 48 48" xml:space="preserve">
<g>
	<path fill="#06728D" d="M10,36.8c-7.7-6.3-8.9-17.7-2.6-25.5c6.3-7.7,17.7-8.9,25.5-2.6c5.8,4.7,7.9,12.3,6,19l2.7,0.8
		c2.2-7.8-0.2-16.6-6.9-22c-9-7.3-22.2-6-29.5,3c-7.3,9-6,22.2,3,29.5c6.7,5.5,15.8,6.1,23,2.3l-1.3-2.5
		C23.6,42.1,15.8,41.5,10,36.8z"/>
	<path fill="#06728D" d="M44.8,32.6c-0.7,2.3-1.8,4.5-3.4,6.5c-1.6,2-3.5,3.5-5.6,4.6l1.3,2.5c2.4-1.3,4.7-3.1,6.5-5.3
		c1.8-2.3,3.1-4.8,3.9-7.4L44.8,32.6z"/>
	<path fill="#F04B36" d="M32,9.9c-7.1-5.8-17.6-4.7-23.4,2.4c-5.8,7.1-4.7,17.6,2.4,23.4c5.3,4.3,12.5,4.8,18.2,1.9l-8-15l16.3,4.8
		C39.2,21.2,37.3,14.2,32,9.9z M14.2,17c-0.4,0.9-1.5,1.3-2.4,0.9c-0.9-0.4-1.3-1.5-0.9-2.4c0.4-0.9,1.5-1.3,2.4-0.9
		C14.2,15,14.6,16.1,14.2,17z M18.6,30c-0.5,1-1.7,1.5-2.7,1c-1-0.5-1.5-1.7-1-2.7c0.5-1,1.7-1.5,2.7-1C18.6,27.8,19,29,18.6,30z
		 M20.8,36.9C20.8,36.9,20.8,36.9,20.8,36.9C20.8,36.9,20.8,36.9,20.8,36.9C20.8,36.9,20.8,36.9,20.8,36.9z M27.4,15
		c-0.4,0.9-1.4,1.3-2.3,0.9c-0.9-0.4-1.3-1.4-0.9-2.3c0.4-0.9,1.4-1.3,2.3-0.9C27.4,13.1,27.8,14.1,27.4,15z"/>
	<path fill="#E77528" d="M40.3,38.1c1.5-1.8,2.5-3.8,3.1-5.9l-16.3-4.8l8,15C37,41.4,38.8,39.9,40.3,38.1z M37.8,35
		c-0.4,0.9-1.4,1.3-2.3,0.9c-0.9-0.4-1.3-1.4-0.9-2.3c0.4-0.9,1.4-1.3,2.3-0.9C37.8,33.1,38.2,34.1,37.8,35z"/>
</g>
</svg>
