<?xml version="1.0" encoding="utf-8"?>
<!-- Generator: Adobe Illustrator 18.0.0, SVG Export Plug-In . SVG Version: 6.00 Build 0)  -->
<!DOCTYPE svg PUBLIC "-//W3C//DTD SVG 1.1//EN" "http://www.w3.org/Graphics/SVG/1.1/DTD/svg11.dtd">
<svg version="1.1" id="Layer_1" xmlns="http://www.w3.org/2000/svg" xmlns:xlink="http://www.w3.org/1999/xlink" x="0px" y="0px"
	 viewBox="0 0 48 48" enable-background="new 0 0 48 48" xml:space="preserve">
<g>
	<path fill="#0DB89A" d="M24,0.5C11,0.5,0.5,11,0.5,24c0,2,0.3,4.1,0.8,6.1l0,0l0.2,0.7c0,0,0,0,0,0l0.2,0.5l0,0
		C4.8,40.9,13.9,47.5,24,47.5c12.5,0,22.7-9.7,23.4-22.1l0,0l0-0.4c0-0.1,0-0.2,0-0.3c0-0.2,0-0.4,0-0.6C47.5,11,37,0.5,24,0.5z
		 M24,16.9c3.9,0,7.1,3.2,7.1,7.1s-3.2,7.1-7.1,7.1s-7.1-3.2-7.1-7.1S20.1,16.9,24,16.9z M24,46.2c-9.5,0-18.1-6.2-21.1-15.2
		C3.2,31,3.5,31,3.8,31c0,0,0.1,0,0.1,0c0.2,0,0.4,0,0.6,0c0.1,0,0.1,0,0.2,0c0.2,0,0.4,0,0.6,0c1.8,0.3,3.2,1.6,4.6,3
		c1.1,1.1,2.2,2.1,3.5,2.8c1.9,1,4,1.1,5.9,1.2c0.7,0,1.3,0.1,2,0.1c1.5,0,2.6-0.2,3.6-0.7c0.7-0.3,1.3-0.7,1.9-1.1
		c0.6-0.4,1.2-0.8,1.8-1.1c0.3-0.1,0.7-0.2,1.1-0.2c0.7,0,1.5,0.2,1.7,0.9c0.1,0.2,0.1,0.5,0.1,0.8c0,0.5,0,1,0.3,1.5
		c0,0.1,0.1,0.2,0.2,0.2c0.1,0.1,0.1,0.1,0.2,0.2c0.4,0.4,0.9,0.6,1.6,0.6c0,0,0,0,0.1,0h0h0c0.3,0,0.6,0,0.8-0.1
		c1-0.3,1.6-1.1,2.1-1.7c1.2-1.5,2-3.4,2.4-5.3c0.1-0.5,0.2-0.9,0.2-1.4c0.1-0.8,0.2-1.6,0.5-2.4c0.3-0.9,1.1-2,2.2-2.2
		c0.3,0,0.7,0,1.1,0c0.2,0,0.5,0,0.7,0.1c0.2,0,0.4,0,0.5,0c0.1,0,0.1,0,0.2,0c0.1,0,0.2,0,0.3,0c0.1,0,0.2,0,0.2,0
		c0.1,0,0.2,0,0.3-0.1c0.1,0,0.3-0.1,0.4-0.1c0.1,0,0.2,0,0.2-0.1c0,0,0.1,0,0.1,0C45.2,37.4,35.6,46.2,24,46.2z"/>
</g>
</svg>
