<?xml version="1.0" encoding="utf-8"?>
<!-- Generator: Adobe Illustrator 18.0.0, SVG Export Plug-In . SVG Version: 6.00 Build 0)  -->
<!DOCTYPE svg PUBLIC "-//W3C//DTD SVG 1.1//EN" "http://www.w3.org/Graphics/SVG/1.1/DTD/svg11.dtd">
<svg version="1.1" id="Layer_1" xmlns="http://www.w3.org/2000/svg" xmlns:xlink="http://www.w3.org/1999/xlink" x="0px" y="0px"
	 viewBox="0 0 48 48" enable-background="new 0 0 48 48" xml:space="preserve">
<g>
	<path fill="#010101" d="M45,30.7H3.8l0,0c0,4.8,3.9,8.6,8.6,8.6h23.9C41.1,39.3,45,35.5,45,30.7L45,30.7z"/>
	<path fill="#010101" d="M39.5,29c1.3,1.1,3.1,1.1,4.8,1.1c0.9,0,1.8-0.1,2.5-0.7c0.8-0.7,0.9-2,0.4-2.9c-0.5-1-1.3-1.6-2.3-2.2
		c-0.4-0.2-0.8-0.4-1.2-0.6c-0.6-0.2-1.2-0.2-1.9-0.1c-6.5,0.1-13.1,0.3-19.5-1c-1.4-0.3-2.9-0.6-4.3-0.4c-1.3,0.2-2.5,0.8-3.8,1.1
		c-0.9,0.1-1.8,0.1-2.7,0.2c-2.6,0.3-5,2-7.6,2.4c-1.2,0.2-2.7,0.2-3.2,1.3c-0.3,0.8,0.1,1.7,0.7,2.2c0.7,0.5,1.6,0.6,2.4,0.6
		c1,0,1.9-0.1,2.8-0.4c1.3-0.5,2.4-1.4,3.6-2.1c1.2-0.7,2.8-1.1,4-0.4c0.7,0.4,1.2,1.2,1.9,1.6c1,0.7,2.4,0.8,3.6,0.9
		c0.8,0,1.6,0.1,2.3-0.3c0.4-0.2,0.8-0.5,1.2-0.7c1.1-0.6,2.4-0.6,3.7-0.4c1.2,0.3,2.4,0.7,3.7,0.9c1.1,0.2,2.2,0.2,3.3,0.2
		c0.5,0,1.1,0,1.6-0.2c1-0.3,2-1.4,3-1C38.9,28.4,39.2,28.7,39.5,29z"/>
	<path fill="#010101" d="M30.9,8.7H17.9c-7.8,0-14,6.3-14,14c0,1.1,0.9,2,2,2H43c1.1,0,2-0.9,2-2C45,15,38.7,8.7,30.9,8.7z
		 M12.7,16.9c-1.1,0-2-0.9-2-2c0-1.1,0.9-2,2-2c1.1,0,2,0.9,2,2C14.7,16,13.8,16.9,12.7,16.9z M22.4,14.9c-1.1,0-2-0.9-2-2
		c0-1.1,0.9-2,2-2c1.1,0,2,0.9,2,2C24.4,14,23.5,14.9,22.4,14.9z M34.8,17.7c-1.1,0-2-0.9-2-2c0-1.1,0.9-2,2-2c1.1,0,2,0.9,2,2
		C36.8,16.8,35.9,17.7,34.8,17.7z"/>
	<path fill="#E77528" d="M45,30.7H3.8l0,0c0,4.8,3.9,8.6,8.6,8.6h23.9C41.1,39.3,45,35.5,45,30.7L45,30.7z"/>
	<path fill="#E77528" d="M39.5,29c1.3,1.1,3.1,1.1,4.8,1.1c0.9,0,1.8-0.1,2.5-0.7c0.8-0.7,0.9-2,0.4-2.9c-0.5-1-1.3-1.6-2.3-2.2
		c-0.4-0.2-0.8-0.4-1.2-0.6c-0.6-0.2-1.2-0.2-1.9-0.1c-6.5,0.1-13.1,0.3-19.5-1c-1.4-0.3-2.9-0.6-4.3-0.4c-1.3,0.2-2.5,0.8-3.8,1.1
		c-0.9,0.1-1.8,0.1-2.7,0.2c-2.6,0.3-5,2-7.6,2.4c-1.2,0.2-2.7,0.2-3.2,1.3c-0.3,0.8,0.1,1.7,0.7,2.2c0.7,0.5,1.6,0.6,2.4,0.6
		c1,0,1.9-0.1,2.8-0.4c1.3-0.5,2.4-1.4,3.6-2.1c1.2-0.7,2.8-1.1,4-0.4c0.7,0.4,1.2,1.2,1.9,1.6c1,0.7,2.4,0.8,3.6,0.9
		c0.8,0,1.6,0.1,2.3-0.3c0.4-0.2,0.8-0.5,1.2-0.7c1.1-0.6,2.4-0.6,3.7-0.4c1.2,0.3,2.4,0.7,3.7,0.9c1.1,0.2,2.2,0.2,3.3,0.2
		c0.5,0,1.1,0,1.6-0.2c1-0.3,2-1.4,3-1C38.9,28.4,39.2,28.7,39.5,29z"/>
	<path fill="#F7A93B" d="M30.9,8.7H17.9c-7.8,0-14,6.3-14,14c0,1.1,0.9,2,2,2H43c1.1,0,2-0.9,2-2C45,15,38.7,8.7,30.9,8.7z
		 M12.7,16.9c-1.1,0-2-0.9-2-2c0-1.1,0.9-2,2-2c1.1,0,2,0.9,2,2C14.7,16,13.8,16.9,12.7,16.9z M22.4,14.9c-1.1,0-2-0.9-2-2
		c0-1.1,0.9-2,2-2c1.1,0,2,0.9,2,2C24.4,14,23.5,14.9,22.4,14.9z M34.8,17.7c-1.1,0-2-0.9-2-2c0-1.1,0.9-2,2-2c1.1,0,2,0.9,2,2
		C36.8,16.8,35.9,17.7,34.8,17.7z"/>
</g>
</svg>
