<?xml version="1.0" encoding="utf-8"?>
<!-- Generator: Adobe Illustrator 18.0.0, SVG Export Plug-In . SVG Version: 6.00 Build 0)  -->
<!DOCTYPE svg PUBLIC "-//W3C//DTD SVG 1.1//EN" "http://www.w3.org/Graphics/SVG/1.1/DTD/svg11.dtd">
<svg version="1.1" id="Layer_1" xmlns="http://www.w3.org/2000/svg" xmlns:xlink="http://www.w3.org/1999/xlink" x="0px" y="0px"
	 viewBox="0 0 48 48" enable-background="new 0 0 48 48" xml:space="preserve">
<g>
	<path fill="#FFD69A" d="M21.5,25H6c0.2,4.2,1.9,8,4.6,11L21.5,25z"/>
	<path fill="#FFD69A" d="M23,26.5l-11,11c3,2.6,6.8,4.3,11,4.5V26.5z"/>
	<path fill="#FFD69A" d="M21.5,23l-11-11c-2.6,3-4.3,6.8-4.5,11H21.5z"/>
	<path fill="#FFD69A" d="M25,6v15.5l11-11C33.1,7.9,29.2,6.2,25,6z"/>
	<path fill="#FFD69A" d="M23,21.5V6c-4.2,0.2-8,1.9-11,4.6L23,21.5z"/>
	<path fill="#FFD69A" d="M26.5,23H42c-0.2-4.2-1.9-8-4.5-11L26.5,23z"/>
	<path fill="#FFD69A" d="M25,26.5V42c4.2-0.2,8-1.9,11-4.5L25,26.5z"/>
	<path fill="#F7A93B" d="M24,0.5C11,0.5,0.5,11,0.5,24C0.5,37,11,47.5,24,47.5C37,47.5,47.5,37,47.5,24C47.5,11,37,0.5,24,0.5z
		 M24,44.2C12.9,44.2,3.8,35.1,3.8,24C3.8,12.9,12.9,3.8,24,3.8c11.1,0,20.2,9.1,20.2,20.2C44.2,35.1,35.1,44.2,24,44.2z"/>
	<path fill="#FFD69A" d="M26.5,25l11,11c2.6-3,4.3-6.8,4.6-11H26.5z"/>
</g>
</svg>
