<?xml version="1.0" encoding="utf-8"?>
<!-- Generator: Adobe Illustrator 18.0.0, SVG Export Plug-In . SVG Version: 6.00 Build 0)  -->
<!DOCTYPE svg PUBLIC "-//W3C//DTD SVG 1.1//EN" "http://www.w3.org/Graphics/SVG/1.1/DTD/svg11.dtd">
<svg version="1.1" id="Layer_1" xmlns="http://www.w3.org/2000/svg" xmlns:xlink="http://www.w3.org/1999/xlink" x="0px" y="0px"
	 viewBox="0 0 48 48" enable-background="new 0 0 48 48" xml:space="preserve">
<g>
	<path fill="#F7A93B" d="M32.2,5.9c-0.4-3.1-3-5.4-6.1-5.4c-2.8,0-5.2,1.9-6,4.5c-0.8-0.5-1.7-0.8-2.7-0.8c-2.7,0-4.9,2.2-4.9,4.9
		c0,0.9,0.2,1.7,0.7,2.5c-1.7,0.8-2.9,2.6-2.9,4.7c0,2.9,2.3,5.2,5.2,5.2c1.3,0,2.5-0.5,3.5-1.3c1,0.6,2.1,1,3.4,1
		c1.8,0,3.5-0.8,4.7-2c1.1,0.7,2.4,1.1,3.7,1.1c3.9,0,7.1-3.2,7.1-7.1C37.8,9.5,35.4,6.6,32.2,5.9z"/>
	<path fill="#4DA0D8" d="M19.4,29.5c2.2,1.5,5.3,2.4,8.8,2.5c0.2,0,0.3,0.1,0.5,0.1l1.3-4.4c-0.1,0-0.2,0-0.3,0
		c-7.1,0-10.9-2.3-12.9-4c0,0-0.1,0-0.1,0l1.7,5.6C18.8,29.3,19.1,29.3,19.4,29.5z"/>
	<path fill="#4DA0D8" d="M30.1,25.7c0.2,0,0.3,0.1,0.5,0.1l1-3.3c-0.3,0-0.6,0-1,0c-1.1,0-2.3-0.2-3.4-0.6c-1.5,1-3.2,1.6-5.1,1.6
		c-1.1,0-2.1-0.2-3.1-0.6C21,24.3,24.4,25.8,30.1,25.7z"/>
	<path fill="#4DA0D8" d="M21.5,39.4l2.5,8.1l2.2-7.1C24.4,40.3,22.9,39.9,21.5,39.4z"/>
	<path fill="#4DA0D8" d="M19.2,31.7l1.6,5.3c0.2,0,0.4,0,0.6,0.1c1.4,0.7,3.2,1.2,5.2,1.3c0,0,0.1,0,0.1,0l1.4-4.4
		C24.6,33.8,21.6,33.1,19.2,31.7z"/>
</g>
</svg>
