<?xml version="1.0" encoding="utf-8"?>
<!-- Generator: Adobe Illustrator 18.0.0, SVG Export Plug-In . SVG Version: 6.00 Build 0)  -->
<!DOCTYPE svg PUBLIC "-//W3C//DTD SVG 1.1//EN" "http://www.w3.org/Graphics/SVG/1.1/DTD/svg11.dtd">
<svg version="1.1" id="Layer_1" xmlns="http://www.w3.org/2000/svg" xmlns:xlink="http://www.w3.org/1999/xlink" x="0px" y="0px"
	 viewBox="0 0 48 48" enable-background="new 0 0 48 48" xml:space="preserve">
<g>
	<path fill="#06728D" d="M36.8,17.5c-1,0-1.9,0.1-2.8,0.4v-3.4H0.5v22.9C0.5,43,5,47.5,10.6,47.5H24c5.2,0,9.5-4,10-9.1
		c0.9,0.3,1.9,0.4,2.9,0.4c5.9,0,10.7-4.8,10.7-10.7C47.5,22.2,42.7,17.5,36.8,17.5z M36.8,34.6c-1,0-2-0.2-2.8-0.6V22.3
		c0.8-0.4,1.8-0.6,2.8-0.6c3.6,0,6.5,2.9,6.5,6.5S40.4,34.6,36.8,34.6z"/>
	<path fill="#E8B944" d="M11.1,5.5l0.1,0.3L11.2,6l0,0l0,0c0,0,0-0.1,0,0l0,0l0,0l0,0.1c0.1,0.2,0.2,0.4,0.2,0.6
		c0,0.2,0.1,0.3,0.1,0.5c0.1,0.4,0.1,0.7,0.1,1.1c0,0.4,0,0.8,0,1.1c0,0.4-0.1,0.7-0.1,1.1c0,0.3-0.1,0.7-0.1,1
		c-0.1,0.6-0.2,1.2-0.2,1.5c0,0.4-0.1,0.6-0.1,0.6s0.2-0.2,0.4-0.5c0.3-0.3,0.6-0.8,0.9-1.4c0.3-0.6,0.7-1.3,0.9-2.1
		c0.2-0.8,0.3-1.7,0.2-2.7c0-0.2-0.1-0.5-0.2-0.8c-0.1-0.3-0.2-0.4-0.3-0.6l-0.1-0.2L13,5.2l-0.1-0.2c-0.1-0.2-0.2-0.3-0.2-0.5
		c-0.1-0.3-0.3-0.7-0.3-1c-0.1-0.3-0.1-0.6-0.2-0.9C12,2,12,1.4,12.1,1.1c0-0.4,0.1-0.6,0.1-0.6S12,0.6,11.7,1
		c-0.3,0.3-0.6,0.8-0.8,1.5c-0.1,0.3-0.2,0.7-0.2,1.1c0,0.4,0,0.8,0.1,1.3C10.9,5,11,5.3,11.1,5.5z"/>
	<path fill="#E8B944" d="M16.6,5.5l0.1,0.3L16.7,6l0,0l0,0c0,0,0-0.1,0,0l0,0l0,0l0,0.1c0.1,0.2,0.2,0.4,0.2,0.6
		C17,6.8,17,6.9,17,7.1c0.1,0.4,0.1,0.7,0.1,1.1c0,0.4,0,0.8,0,1.1c0,0.4-0.1,0.7-0.1,1.1c0,0.3-0.1,0.7-0.1,1
		c-0.1,0.6-0.2,1.2-0.2,1.5c0,0.4-0.1,0.6-0.1,0.6s0.2-0.2,0.4-0.5c0.3-0.3,0.6-0.8,0.9-1.4c0.3-0.6,0.7-1.3,0.9-2.1
		c0.2-0.8,0.3-1.7,0.2-2.7c0-0.2-0.1-0.5-0.2-0.8c-0.1-0.3-0.2-0.4-0.3-0.6l-0.1-0.2l-0.1-0.1l-0.1-0.2c-0.1-0.2-0.2-0.3-0.2-0.5
		c-0.1-0.3-0.3-0.7-0.3-1c-0.1-0.3-0.1-0.6-0.2-0.9c-0.1-0.6-0.1-1.1,0-1.5c0-0.4,0.1-0.6,0.1-0.6S17.4,0.6,17.2,1
		c-0.3,0.3-0.6,0.8-0.8,1.5c-0.1,0.3-0.2,0.7-0.2,1.1c0,0.4,0,0.8,0.1,1.3C16.4,5,16.5,5.3,16.6,5.5z"/>
	<path fill="#E8B944" d="M22,5.5l0.1,0.3L22.2,6l0,0l0,0c0,0,0-0.1,0,0l0,0l0,0l0,0.1c0.1,0.2,0.2,0.4,0.2,0.6
		c0,0.2,0.1,0.3,0.1,0.5c0.1,0.4,0.1,0.7,0.1,1.1c0,0.4,0,0.8,0,1.1c0,0.4-0.1,0.7-0.1,1.1c0,0.3-0.1,0.7-0.1,1
		c-0.1,0.6-0.2,1.2-0.2,1.5c0,0.4-0.1,0.6-0.1,0.6s0.2-0.2,0.4-0.5c0.3-0.3,0.6-0.8,0.9-1.4c0.3-0.6,0.7-1.3,0.9-2.1
		c0.2-0.8,0.3-1.7,0.2-2.7c0-0.2-0.1-0.5-0.2-0.8c-0.1-0.3-0.2-0.4-0.3-0.6L24,5.3L24,5.2l-0.1-0.2c-0.1-0.2-0.2-0.3-0.2-0.5
		c-0.1-0.3-0.3-0.7-0.3-1c-0.1-0.3-0.1-0.6-0.2-0.9C23,2,23,1.4,23.1,1.1c0-0.4,0.1-0.6,0.1-0.6S22.9,0.6,22.7,1
		c-0.3,0.3-0.6,0.8-0.8,1.5c-0.1,0.3-0.2,0.7-0.2,1.1c0,0.4,0,0.8,0.1,1.3C21.9,5,22,5.3,22,5.5z"/>
</g>
</svg>
