<?xml version="1.0" encoding="utf-8"?>
<!-- Generator: Adobe Illustrator 18.0.0, SVG Export Plug-In . SVG Version: 6.00 Build 0)  -->
<!DOCTYPE svg PUBLIC "-//W3C//DTD SVG 1.1//EN" "http://www.w3.org/Graphics/SVG/1.1/DTD/svg11.dtd">
<svg version="1.1" id="Layer_1" xmlns="http://www.w3.org/2000/svg" xmlns:xlink="http://www.w3.org/1999/xlink" x="0px" y="0px"
	 viewBox="0 0 48 48" enable-background="new 0 0 48 48" xml:space="preserve">
<g>
	<polygon fill="#F7A93B" points="2.2,24.3 2.2,38.1 45.3,43.8 45.3,20.4 	"/>
	<path fill="#E77528" d="M47.3,13.2c-1.5-2.6-5.8-2.2-7-4.8C40,7.8,40,7.2,39.6,6.7c-0.5-0.6-1.5-0.6-2.3-0.4
		c-0.8,0.2-1.7,0.5-2.5,0.4c-1.3-0.1-2.2-1.2-3.3-1.7c-1-0.4-2.1-0.4-3.2,0.1c0.8,1.1,1.3,2.5,1.3,3.9c0,3.7-3,6.7-6.7,6.7
		c-2.9,0-5.3-1.8-6.3-4.4c-3.4,2.2-6.8,4.1-10.2,5.7c-0.8,0.4-1.6,0.7-2.4,0.9c-1.1,0.2-2.2,0.1-3,1c-0.5,0.6-0.6,1.4-0.5,2.1
		c0.1,0.6,0.4,1.1,0.8,1.4c0.3,0.2,0.6,0.3,0.9,0.4c0,0,0,0,0,0v0l43.1-4.3v-1.7l-0.9,0.1c0-0.1,0-0.3,0.1-0.4
		c0.4-0.8,1.6-0.4,2.4-0.9C47.7,15.2,47.7,13.9,47.3,13.2z"/>
	<circle fill="#F04B36" cx="22.9" cy="9" r="4.8"/>
</g>
</svg>
