<?xml version="1.0" encoding="utf-8"?>
<!-- Generator: Adobe Illustrator 18.0.0, SVG Export Plug-In . SVG Version: 6.00 Build 0)  -->
<!DOCTYPE svg PUBLIC "-//W3C//DTD SVG 1.1//EN" "http://www.w3.org/Graphics/SVG/1.1/DTD/svg11.dtd">
<svg version="1.1" id="Layer_1" xmlns="http://www.w3.org/2000/svg" xmlns:xlink="http://www.w3.org/1999/xlink" x="0px" y="0px"
	 viewBox="0 0 48 48" enable-background="new 0 0 48 48" xml:space="preserve">
<g>
	<path fill="#0DB89A" d="M41.8,9.7l-1.9-4.8L39,1l-2.6,2.5l-0.8,0c-5.8,15.6-19.1,18.3-19.1,18.3C9.7,23,1.4,27.8,1.4,27.8
		c-1.5,1.4,1.9,3.5,1.9,3.5c4.8,5.8,18.3-0.5,18.3-0.5c18.2-7.3,14.2-19,14.2-19l1.6-4.5c3.3,13.7-3.6,23.2-3.6,23.2
		c-4.3,5.7-7.4,15.1-7.4,15.1c-0.2,2.1,3.7,1.3,3.7,1.3c7.2,1,13.3-13.1,13.3-13.1C52.3,15.6,41.8,9.7,41.8,9.7z"/>
</g>
</svg>
