<?xml version="1.0" encoding="utf-8"?>
<!-- Generator: Adobe Illustrator 18.0.0, SVG Export Plug-In . SVG Version: 6.00 Build 0)  -->
<!DOCTYPE svg PUBLIC "-//W3C//DTD SVG 1.1//EN" "http://www.w3.org/Graphics/SVG/1.1/DTD/svg11.dtd">
<svg version="1.1" id="Layer_1" xmlns="http://www.w3.org/2000/svg" xmlns:xlink="http://www.w3.org/1999/xlink" x="0px" y="0px"
	 viewBox="0 0 48 48" enable-background="new 0 0 48 48" xml:space="preserve">
<g>
	<polygon fill="#4DA0D8" points="35.8,47.8 8.9,47.8 7,19.8 37.6,19.8 	"/>
	<polygon fill="#294E58" points="37.8,13.2 6.8,13.2 5.9,17.4 38.7,17.4 	"/>
	<path fill="#F04B36" d="M25.5,14.1c-0.2,0-0.3,0-0.4-0.1c-0.4-0.2-0.6-0.8-0.4-1.3l4.6-8.3c0.1-0.2,0.3-0.4,0.5-0.4l11.2-3.8
		c0.5-0.2,1,0.1,1.2,0.6c0.2,0.5-0.1,1-0.6,1.2L30.7,5.7l-4.4,7.9C26.1,13.9,25.8,14.1,25.5,14.1z"/>
</g>
</svg>
