<?xml version="1.0" encoding="utf-8"?>
<!-- Generator: Adobe Illustrator 18.0.0, SVG Export Plug-In . SVG Version: 6.00 Build 0)  -->
<!DOCTYPE svg PUBLIC "-//W3C//DTD SVG 1.1//EN" "http://www.w3.org/Graphics/SVG/1.1/DTD/svg11.dtd">
<svg version="1.1" id="Layer_1" xmlns="http://www.w3.org/2000/svg" xmlns:xlink="http://www.w3.org/1999/xlink" x="0px" y="0px"
	 viewBox="0 0 48 48" enable-background="new 0 0 48 48" xml:space="preserve">
<g>
	<ellipse fill="#F7A93B" cx="24" cy="31.2" rx="18.7" ry="16.5"/>
	<path fill="#0DB89A" d="M24,17.4C24,17.4,23.9,17.4,24,17.4c-0.6-0.1-1-0.5-1-1.1c0-0.1,1.4-13.1,12.5-16c0.5-0.1,1,0.2,1.2,0.7
		c0.1,0.5-0.2,1-0.7,1.2c-9.7,2.6-11,14.2-11,14.3C24.9,17,24.5,17.4,24,17.4z"/>
	<path fill="#0DB89A" d="M24.5,5c0.2,1.6,0.6,11.4-15.4,10.1c-0.3,0-0.5-0.3-0.4-0.6C14.2-0.6,22.9,3.9,24.3,4.7
		C24.4,4.7,24.5,4.9,24.5,5z"/>
	<path fill="#0DB89A" d="M23.1,6.3l-1-1.7C22.3,4.5,26.6,2.2,30,4L29,5.7C26.6,4.4,23.1,6.3,23.1,6.3z"/>
</g>
</svg>
