<?xml version="1.0" encoding="utf-8"?>
<!-- Generator: Adobe Illustrator 18.0.0, SVG Export Plug-In . SVG Version: 6.00 Build 0)  -->
<!DOCTYPE svg PUBLIC "-//W3C//DTD SVG 1.1//EN" "http://www.w3.org/Graphics/SVG/1.1/DTD/svg11.dtd">
<svg version="1.1" id="Layer_1" xmlns="http://www.w3.org/2000/svg" xmlns:xlink="http://www.w3.org/1999/xlink" x="0px" y="0px"
	 viewBox="0 0 48 48" enable-background="new 0 0 48 48" xml:space="preserve">
<g>
	<path fill="#0DB89A" d="M36.7,32c-0.6-2.8-2-5.4-3.3-8c-1.6-3-3.1-6-4.7-8.9c-0.4-0.7-0.8-1.4-1.4-1.8c-0.3-0.2-0.7-0.3-1.1-0.4
		c-0.7-0.2-1.3-0.3-2-0.4c-0.1-1.9,0.2-8.6,9.8-10.7c0.4-0.1,0.7-0.5,0.6-0.9c-0.1-0.4-0.5-0.7-0.9-0.6c-10.2,2.3-11,9.5-10.9,12
		c-0.4,0-0.8,0-1.2,0.1c-1.6,0.3-3.1,1.2-3.7,2.7c-0.3,0.7-0.3,1.4-0.4,2.1c-0.2,1.1-0.8,2.2-1.3,3.2c-0.7,1.5-1.5,3-2.4,4.4
		c-0.6,0.9-1.2,1.8-1.7,2.8c-1.3,2.8-1.1,6-0.8,9c0.3,2.8,0.9,5.8,3,7.8c0.7,0.6,1.5,1.1,2.3,1.5c2.4,1.1,5.1,1.5,7.7,1.6
		c2.4,0.1,4.8-0.1,6.9-1.2c3.1-1.6,5.1-5,5.7-8.4C37.2,36.1,37.2,34,36.7,32z"/>
</g>
</svg>
