<?xml version="1.0" encoding="utf-8"?>
<!-- Generator: Adobe Illustrator 18.0.0, SVG Export Plug-In . SVG Version: 6.00 Build 0)  -->
<!DOCTYPE svg PUBLIC "-//W3C//DTD SVG 1.1//EN" "http://www.w3.org/Graphics/SVG/1.1/DTD/svg11.dtd">
<svg version="1.1" id="Layer_1" xmlns="http://www.w3.org/2000/svg" xmlns:xlink="http://www.w3.org/1999/xlink" x="0px" y="0px"
	 viewBox="0 0 48 48" enable-background="new 0 0 48 48" xml:space="preserve">
<g>
	<path fill="none" d="M16.2,38.5c-2.5,1.4-4.2,2.3-4.3,2.3c-0.5,0.2-0.7,0.8-0.5,1.3c0.2,0.4,0.7,0.6,1.1,0.5c0.1,0,0.1,0,0.2-0.1
		c0.1,0,1.8-0.9,4.4-2.3c0.5-0.3,0.6-0.9,0.4-1.3C17.2,38.4,16.6,38.2,16.2,38.5z"/>
	<path fill="none" d="M8.9,34.9c-2,2.2-3.3,3.7-3.3,3.7c-0.4,0.4-0.3,1,0.1,1.4c0.2,0.2,0.5,0.3,0.8,0.2c0.2,0,0.4-0.2,0.5-0.3
		c0,0,1.2-1.4,3.2-3.6c0.4-0.4,0.3-1-0.1-1.4C9.9,34.5,9.3,34.5,8.9,34.9z"/>
	<path fill="none" d="M16.8,26.9c-1.3,1.3-2.7,2.6-4,4c-0.4,0.4-0.4,1,0,1.4c0.2,0.2,0.6,0.3,0.9,0.3c0.2,0,0.4-0.1,0.5-0.3
		c1.3-1.3,2.6-2.7,3.9-3.9c0.4-0.4,0.4-1,0-1.4C17.8,26.5,17.2,26.5,16.8,26.9z"/>
	<path fill="none" d="M20.8,24.4c0.2,0.3,0.6,0.4,0.9,0.3c0.2,0,0.3-0.1,0.5-0.2c1.2-1.1,2.5-2.2,3.7-3.2c0.4-0.3,0.5-1,0.1-1.4
		c-0.3-0.4-1-0.5-1.4-0.1c-1.2,1-2.5,2.1-3.7,3.2C20.5,23.4,20.5,24,20.8,24.4z"/>
	<path fill="none" d="M8.4,28c0.3-0.4,0.3-1-0.2-1.4c-0.4-0.3-1-0.3-1.4,0.2c-1.8,2.4-2.9,4-2.9,4c-0.3,0.5-0.2,1.1,0.3,1.4
		c0.2,0.1,0.5,0.2,0.7,0.1c0.2-0.1,0.5-0.2,0.6-0.4C5.6,31.9,6.6,30.3,8.4,28z"/>
	<path fill="none" d="M11.4,24c0.2,0,0.4-0.1,0.5-0.3c1.3-1.4,2.6-2.8,3.9-4c0.4-0.4,0.4-1,0-1.4c-0.4-0.4-1-0.4-1.4,0
		c-1.3,1.3-2.7,2.6-4,4.1c-0.4,0.4-0.3,1,0.1,1.4C10.8,24,11.1,24,11.4,24z"/>
	<path fill="none" d="M32.6,24.9c-0.9,1.2-1.9,2.4-3.1,3.6c-0.4,0.4-0.4,1,0,1.4c0.2,0.2,0.6,0.3,0.9,0.3c0.2,0,0.4-0.1,0.5-0.3
		c1.2-1.3,2.3-2.6,3.3-3.8c0.3-0.4,0.2-1-0.2-1.4C33.5,24.4,32.9,24.5,32.6,24.9z"/>
	<path fill="none" d="M25.4,32.2c-1.4,1.1-2.9,2.2-4.5,3.3c-0.4,0.3-0.6,0.9-0.3,1.4c0.2,0.3,0.6,0.5,1,0.4c0.1,0,0.2-0.1,0.4-0.1
		c1.6-1.1,3.2-2.3,4.6-3.4c0.4-0.3,0.5-1,0.1-1.4C26.4,32,25.8,31.9,25.4,32.2z"/>
	<path fill="none" d="M24.5,12.2c-0.3-0.5-0.9-0.7-1.3-0.4c-1.4,0.7-2.8,1.7-4.2,2.7c-0.4,0.3-0.5,0.9-0.2,1.4
		c0.2,0.3,0.6,0.4,1,0.4c0.1,0,0.3-0.1,0.4-0.2c1.3-1,2.7-1.9,4-2.6C24.6,13.3,24.7,12.7,24.5,12.2z"/>
	<path fill="#F04B36" d="M35.5,24.3c-0.2-1.2-1-2.2-1.5-3.3c-0.6-1.3-0.7-2.7-0.5-4.1c-1.1,2.9-4,5.1-7.1,5.3
		c1.7-0.9,2.3-3.2,2.3-5.2c0-2-0.3-4.1,0.5-5.9c-2.8-1.5-5.7-3.1-8.9-3.2c-0.5,0-1.1,0-1.6,0.1C16.8,8.6,15,9.5,13.3,11
		C4,18.7-0.4,29,1.3,39.3c0.4,2.4,2.1,4.5,4.4,5.4c5.3,2,16,3,29.2-12.3c0,0,0.1,0.1,0.1,0.1c0.2-2,0.4-4.1,0.5-6.1
		C35.6,25.7,35.7,25,35.5,24.3z M26,19.9c0.3,0.4,0.3,1-0.1,1.4c-1.2,1-2.4,2.1-3.7,3.2c-0.1,0.1-0.3,0.2-0.5,0.2
		c-0.3,0.1-0.7,0-0.9-0.3c-0.4-0.4-0.3-1,0.1-1.4c1.3-1.1,2.5-2.2,3.7-3.2C25,19.5,25.6,19.5,26,19.9z M10.5,22.4
		c1.3-1.5,2.7-2.9,4-4.1c0.4-0.4,1-0.4,1.4,0c0.4,0.4,0.4,1,0,1.4c-1.3,1.2-2.6,2.6-3.9,4c-0.1,0.2-0.3,0.3-0.5,0.3
		c-0.3,0.1-0.6,0-0.9-0.2C10.2,23.4,10.1,22.8,10.5,22.4z M5,32.3c-0.2,0-0.5,0-0.7-0.1c-0.5-0.3-0.6-0.9-0.3-1.4
		c0-0.1,1.1-1.7,2.9-4c0.3-0.4,0.9-0.5,1.4-0.2c0.4,0.3,0.5,0.9,0.2,1.4c-1.8,2.3-2.8,3.9-2.8,3.9C5.4,32.1,5.2,32.3,5,32.3z
		 M10.4,36.3c-2,2.2-3.2,3.6-3.2,3.6C7,40,6.8,40.2,6.6,40.2c-0.3,0.1-0.6,0-0.8-0.2c-0.4-0.4-0.5-1-0.1-1.4c0,0,1.2-1.5,3.3-3.7
		c0.4-0.4,1-0.4,1.4-0.1C10.7,35.2,10.7,35.9,10.4,36.3z M17.1,40.2c-2.6,1.5-4.3,2.3-4.4,2.3c-0.1,0-0.1,0.1-0.2,0.1
		c-0.4,0.1-0.9-0.1-1.1-0.5c-0.2-0.5,0-1.1,0.5-1.3c0,0,1.7-0.8,4.3-2.3c0.5-0.3,1.1-0.1,1.3,0.4C17.8,39.3,17.6,39.9,17.1,40.2z
		 M18.1,28.3c-1.3,1.3-2.6,2.6-3.9,3.9c-0.1,0.1-0.3,0.2-0.5,0.3c-0.3,0.1-0.6,0-0.9-0.3c-0.4-0.4-0.4-1,0-1.4c1.3-1.4,2.7-2.7,4-4
		c0.4-0.4,1-0.4,1.4,0C18.5,27.3,18.5,27.9,18.1,28.3z M19.7,16.3c-0.4,0.1-0.7-0.1-1-0.4c-0.3-0.4-0.2-1,0.2-1.4
		c1.4-1.1,2.8-2,4.2-2.7c0.5-0.3,1.1-0.1,1.3,0.4c0.3,0.5,0.1,1.1-0.4,1.3c-1.3,0.7-2.6,1.6-4,2.6C20,16.2,19.8,16.2,19.7,16.3z
		 M26.6,33.8c-1.4,1.1-3,2.3-4.6,3.4c-0.1,0.1-0.2,0.1-0.4,0.1c-0.4,0.1-0.8-0.1-1-0.4c-0.3-0.4-0.2-1.1,0.3-1.4
		c1.6-1.1,3.1-2.2,4.5-3.3c0.4-0.3,1-0.3,1.4,0.1C27.1,32.8,27,33.4,26.6,33.8z M34.2,26.1c-0.9,1.3-2,2.6-3.3,3.8
		c-0.1,0.1-0.3,0.2-0.5,0.3c-0.3,0.1-0.6,0-0.9-0.3c-0.4-0.4-0.4-1,0-1.4c1.2-1.2,2.2-2.4,3.1-3.6c0.3-0.4,0.9-0.5,1.4-0.2
		C34.4,25,34.5,25.6,34.2,26.1z"/>
	<path fill="#0DB89A" d="M47,12.6l-0.6-4.2c-4.8-2.2-10.9,1.5-13.2,3.1C30.9,3,13.5,2.2,13.5,2.2c-0.9,3.9,5.1,5.9,5.1,5.9
		c0,0,0,0,0,0c0.5,0,1.1-0.1,1.6-0.1c3.2,0.1,6.1,1.6,8.9,3.2c-0.8,1.8-0.5,3.9-0.5,5.9c0,2-0.5,4.2-2.3,5.2c3.1-0.2,6-2.4,7.1-5.3
		c-0.2,1.4-0.1,2.8,0.5,4.1c0.5,1.1,1.3,2.1,1.5,3.3c0.1,0.7,0.1,1.4,0,2.1c-0.2,2-0.4,4.1-0.5,6.1c1.4,1.7,2.9,3.2,2.9,3.2
		C46.8,19.3,37.2,14,37.2,14l-0.9-0.4C39.1,10.4,47,12.6,47,12.6z"/>
</g>
</svg>
