<?xml version="1.0" encoding="utf-8"?>
<!-- Generator: Adobe Illustrator 18.0.0, SVG Export Plug-In . SVG Version: 6.00 Build 0)  -->
<!DOCTYPE svg PUBLIC "-//W3C//DTD SVG 1.1//EN" "http://www.w3.org/Graphics/SVG/1.1/DTD/svg11.dtd">
<svg version="1.1" id="Layer_1" xmlns="http://www.w3.org/2000/svg" xmlns:xlink="http://www.w3.org/1999/xlink" x="0px" y="0px"
	 viewBox="0 0 48 48" enable-background="new 0 0 48 48" xml:space="preserve">
<g>
	<path fill="#F04B36" d="M9.3,37.9c0,5,4.1,9.1,9.1,9.1c5,0,9.1-4.1,9.1-9.1c0-4.5-3.3-8.2-7.5-8.9l-2.1-0.1
		C13.1,29.1,9.3,33.1,9.3,37.9z"/>
	<path fill="#0DB89A" d="M33.9,25.3c-0.1-0.7-3-17.7-11.3-24.1c-0.3-0.2-0.7-0.3-1-0.1c-0.3,0.2-0.5,0.5-0.5,0.9
		c0,0.2,1.8,18.2-3.2,26.8L20,29c3.8-7.5,3.5-19.6,3.2-24.7c5.4,5.8,8,16.8,8.7,20.3L33.9,25.3C33.9,25.3,33.9,25.3,33.9,25.3z"/>
	<path fill="#F04B36" d="M33.9,25.3l-2.1-0.8c-0.7-0.2-1.5-0.3-2.3-0.3c-2,0-3.8,0.6-5.3,1.7c4.1,2.1,6.9,6.4,6.9,11.4
		c0,1.8-0.4,3.5-1,5c4.7-0.3,8.5-4.2,8.5-9C38.7,29.9,36.7,26.9,33.9,25.3z"/>
</g>
</svg>
