<?xml version="1.0" encoding="utf-8"?>
<!-- Generator: Adobe Illustrator 18.0.0, SVG Export Plug-In . SVG Version: 6.00 Build 0)  -->
<!DOCTYPE svg PUBLIC "-//W3C//DTD SVG 1.1//EN" "http://www.w3.org/Graphics/SVG/1.1/DTD/svg11.dtd">
<svg version="1.1" id="Layer_1" xmlns="http://www.w3.org/2000/svg" xmlns:xlink="http://www.w3.org/1999/xlink" x="0px" y="0px"
	 viewBox="0 0 48 48" enable-background="new 0 0 48 48" xml:space="preserve">
<g>
	<path fill="none" d="M17.9,24.6l-1.1,2.9c-0.3,0.7-0.5,1.4-0.6,2h0c-0.1-0.6-0.4-1.3-0.6-2l-1-2.9h-1l-0.4,5.9h0.7l0.2-2.5
		c0.1-0.9,0.1-1.9,0.1-2.6h0c0.2,0.7,0.4,1.5,0.7,2.3l1,2.8h0.6l1-2.9c0.3-0.8,0.5-1.6,0.7-2.3h0c0,0.7,0,1.7,0.1,2.6l0.2,2.6h0.7
		l-0.4-5.9H17.9z"/>
	<polygon fill="none" points="21.1,27.7 23.4,27.7 23.4,27.1 21.1,27.1 21.1,25.2 23.6,25.2 23.6,24.6 20.4,24.6 20.4,30.5 
		23.7,30.5 23.7,29.8 21.1,29.8 	"/>
	<path fill="none" d="M34.1,28.1c0,1.3-0.6,1.9-1.4,1.9c-0.8,0-1.4-0.6-1.4-1.9v-3.5h-0.8V28c0,1.8,0.9,2.5,2.1,2.5
		c1.3,0,2.2-0.7,2.2-2.6v-3.5h-0.8V28.1z"/>
	<path fill="none" d="M28.4,27c0,0.9,0,1.6,0.1,2.4l0,0c-0.3-0.6-0.6-1.2-1.1-1.9l-1.9-3h-0.8v5.9h0.7V28c0-1,0-1.7-0.1-2.4l0,0
		c0.3,0.6,0.7,1.3,1.1,2l1.9,3h0.8v-5.9h-0.7V27z"/>
	<path fill="#CFD0D1" d="M32.8,1.5c0-0.4-0.2-0.7-0.6-0.9c-0.4-0.2-0.8-0.1-1.1,0.2C26.2,5.2,9.2,7.6,9,7.7l23.7,0L32.8,1.5z
		 M30.8,7.6H19.2c4.1-1,8.6-2.4,11.6-4.2L30.8,7.6z"/>
	<path fill="#F04B36" d="M38.9,7.6h-6.1L9,7.7c0,0-0.1,0-0.1,0c-0.1,0-0.1,0-0.2,0.1c-0.1,0-0.1,0.1-0.2,0.1c0,0-0.1,0.1-0.1,0.1
		c0,0-0.1,0.1-0.1,0.2c0,0.1-0.1,0.1-0.1,0.2c0,0.1,0,0.1,0,0.2c0,0,0,0.1,0,0.1v37.9c0,0.5,0.4,1,1,1h29.7c0.5,0,1-0.4,1-1V8.6
		C39.8,8.1,39.4,7.6,38.9,7.6z M18.5,30.5l-0.2-2.6c0-0.8-0.1-1.8-0.1-2.6h0c-0.2,0.7-0.4,1.4-0.7,2.3l-1,2.9h-0.6l-1-2.8
		c-0.3-0.8-0.5-1.6-0.7-2.3h0c0,0.7-0.1,1.7-0.1,2.6l-0.2,2.5h-0.7l0.4-5.9h1l1,2.9c0.2,0.7,0.4,1.4,0.6,2h0c0.1-0.6,0.4-1.2,0.6-2
		l1.1-2.9h1l0.4,5.9H18.5z M23.7,30.5h-3.3v-5.9h3.2v0.6h-2.4v1.9h2.3v0.6h-2.3v2.1h2.6V30.5z M29.1,30.5h-0.8l-1.9-3
		c-0.4-0.7-0.8-1.3-1.1-2l0,0c0,0.7,0.1,1.5,0.1,2.4v2.5h-0.7v-5.9h0.8l1.9,3c0.4,0.7,0.8,1.3,1.1,1.9l0,0c-0.1-0.8-0.1-1.5-0.1-2.4
		v-2.5h0.7V30.5z M34.8,28c0,1.8-1,2.6-2.2,2.6c-1.2,0-2.1-0.7-2.1-2.5v-3.5h0.8v3.5c0,1.3,0.6,1.9,1.4,1.9c0.9,0,1.4-0.6,1.4-1.9
		v-3.5h0.8V28z"/>
</g>
</svg>
