<?xml version="1.0" encoding="utf-8"?>
<!-- Generator: Adobe Illustrator 18.0.0, SVG Export Plug-In . SVG Version: 6.00 Build 0)  -->
<!DOCTYPE svg PUBLIC "-//W3C//DTD SVG 1.1//EN" "http://www.w3.org/Graphics/SVG/1.1/DTD/svg11.dtd">
<svg version="1.1" id="Layer_1" xmlns="http://www.w3.org/2000/svg" xmlns:xlink="http://www.w3.org/1999/xlink" x="0px" y="0px"
	 viewBox="0 0 48 48" enable-background="new 0 0 48 48" xml:space="preserve">
<g>
	<path fill="#0DB89A" d="M39,4.6c7.6,9.6,6,23.8-3.7,31.9c-9.7,8.1-23.9,7.1-32.1-2.1L1,36.2c9,10.8,25.4,12.1,36.5,2.9
		c11.1-9.3,12.8-25.5,3.7-36.4L39,4.6z"/>
	<path fill="#F04B36" d="M34.3,35.3c9-7.5,10.5-20.7,3.4-29.7L4.5,33.3C12,41.9,25.2,42.8,34.3,35.3z M35.2,11
		c0.6-0.5,1.5-0.4,2.1,0.2c0.5,0.6,0.4,1.5-0.2,2.1c-0.6,0.5-1.5,0.4-2.1-0.2C34.5,12.5,34.6,11.6,35.2,11z M32.7,22.2
		c0.9-0.8,2.3-0.7,3.1,0.3c0.8,0.9,0.7,2.3-0.3,3.1c-0.9,0.8-2.3,0.7-3.1-0.3C31.6,24.4,31.8,23,32.7,22.2z M22.8,21.9
		c0.8-0.7,2-0.6,2.6,0.2c0.7,0.8,0.6,2-0.2,2.6c-0.8,0.7-2,0.6-2.6-0.2C21.9,23.7,22,22.6,22.8,21.9z M26,30.9
		c0.7-0.6,1.7-0.5,2.3,0.2c0.6,0.7,0.5,1.7-0.2,2.3c-0.7,0.6-1.7,0.5-2.3-0.2C25.3,32.5,25.4,31.5,26,30.9z M11.1,33.6
		c-0.6-0.7-0.5-1.8,0.2-2.4c0.7-0.6,1.8-0.5,2.4,0.2c0.6,0.7,0.5,1.8-0.2,2.4C12.8,34.4,11.7,34.3,11.1,33.6z"/>
</g>
</svg>
