<?xml version="1.0" encoding="utf-8"?>
<!-- Generator: Adobe Illustrator 18.0.0, SVG Export Plug-In . SVG Version: 6.00 Build 0)  -->
<!DOCTYPE svg PUBLIC "-//W3C//DTD SVG 1.1//EN" "http://www.w3.org/Graphics/SVG/1.1/DTD/svg11.dtd">
<svg version="1.1" id="Layer_1" xmlns="http://www.w3.org/2000/svg" xmlns:xlink="http://www.w3.org/1999/xlink" x="0px" y="0px"
	 viewBox="0 0 48 48" enable-background="new 0 0 48 48" xml:space="preserve">
<g>
	<path fill="#F04B36" d="M46.9,11.1c-1.2-7.5-6.2-9.5-9.5-10c-1.8-0.3-3.5,0.4-4.7,1.9l-4.3,5.4c0.8,1.5,2.6,4.2,4.8,4.8
		c0.6,0.2,1,0.9,0.8,1.6c-0.2,0.7-0.8,1.1-1.5,0.9c-1.4-0.4-2.7-1.4-3.7-2.5c-0.8-0.9-1.5-1.9-2.1-2.7l-4.9,6.2
		c1,1.5,2.5,3.5,4.4,4.1c0.6,0.2,1,0.9,0.8,1.6c-0.2,0.7-0.8,1.1-1.5,0.9c-1.4-0.4-2.7-1.4-3.7-2.5c-0.6-0.7-1.1-1.4-1.6-2l-4.9,6.2
		c1,1.4,2.3,2.9,3.9,3.4c0.6,0.2,1,0.9,0.8,1.6c-0.2,0.7-0.8,1.1-1.5,0.9c-1.4-0.4-2.7-1.4-3.7-2.5c-0.4-0.4-0.8-0.9-1.1-1.3L1.7,42
		c-2.1,2.7,1.1,6.5,3.8,4.4l39.3-29.9C46.4,15.3,47.3,13.2,46.9,11.1z"/>
</g>
</svg>
