<?xml version="1.0" encoding="utf-8"?>
<!-- Generator: Adobe Illustrator 18.0.0, SVG Export Plug-In . SVG Version: 6.00 Build 0)  -->
<!DOCTYPE svg PUBLIC "-//W3C//DTD SVG 1.1//EN" "http://www.w3.org/Graphics/SVG/1.1/DTD/svg11.dtd">
<svg version="1.1" id="Layer_1" xmlns="http://www.w3.org/2000/svg" xmlns:xlink="http://www.w3.org/1999/xlink" x="0px" y="0px"
	 viewBox="0 0 48 48" enable-background="new 0 0 48 48" xml:space="preserve">
<g>
	<path fill="#4DA0D8" d="M17.9,5.4V3.8c0.3,0,0.6-0.3,0.6-0.6V0.9c0-0.3-0.3-0.6-0.6-0.6h-4.6c-0.3,0-0.6,0.3-0.6,0.6v2.3
		c0,0.3,0.3,0.6,0.6,0.6v1.6c0,10-5.4,7.2-5.9,11v28c0,1.8,1.5,3.3,3.3,3.3h4.9h0h4.9c1.8,0,3.3-1.5,3.3-3.3v-28
		C23.3,12.6,17.8,15.5,17.9,5.4z"/>
	<path fill="#06728D" d="M27.9,13.9v12c0,3.2,2.4,5.9,5.5,6.3v11.5H30v1.8h3.3h1.8h3.3v-1.8h-3.3V32.2c3.1-0.4,5.5-3.1,5.5-6.3v-12
		H27.9z"/>
</g>
</svg>
