<?xml version="1.0" encoding="utf-8"?>
<!-- Generator: Adobe Illustrator 18.0.0, SVG Export Plug-In . SVG Version: 6.00 Build 0)  -->
<!DOCTYPE svg PUBLIC "-//W3C//DTD SVG 1.1//EN" "http://www.w3.org/Graphics/SVG/1.1/DTD/svg11.dtd">
<svg version="1.1" id="Layer_1" xmlns="http://www.w3.org/2000/svg" xmlns:xlink="http://www.w3.org/1999/xlink" x="0px" y="0px"
	 viewBox="0 0 48 48" enable-background="new 0 0 48 48" xml:space="preserve">
<g>
	<polygon fill="#06728D" points="24,47.8 34.8,14.3 13.2,14.3 	"/>
	<path fill="#4DA0D8" d="M29.2,4.8c-3.6,0-6.6,2.9-6.6,6.5c0,0.4,0,0.7,0.1,1.1h12.9c0.1-0.4,0.1-0.7,0.1-1.1
		C35.7,7.7,32.8,4.8,29.2,4.8z"/>
	<path fill="#F04B36" d="M24,4.7c1.3-1,3-1.6,4.9-1.6c0.1,0,0.2,0,0.4,0C28,1.4,26.1,0.4,24,0.4c-2.2,0-4.1,1.1-5.2,2.7
		c0.1,0,0.2,0,0.4,0C21,3,22.6,3.7,24,4.7z"/>
	<path fill="#F7A93B" d="M20.5,11.3c0-2.1,0.8-3.9,2.1-5.3c-1.1-0.8-2.4-1.2-3.8-1.2c-3.6,0-6.6,2.9-6.6,6.5c0,0.4,0,0.7,0.1,1.1
		h8.3C20.5,12.1,20.5,11.7,20.5,11.3z"/>
</g>
</svg>
