<?xml version="1.0" encoding="utf-8"?>
<!-- Generator: Adobe Illustrator 18.0.0, SVG Export Plug-In . SVG Version: 6.00 Build 0)  -->
<!DOCTYPE svg PUBLIC "-//W3C//DTD SVG 1.1//EN" "http://www.w3.org/Graphics/SVG/1.1/DTD/svg11.dtd">
<svg version="1.1" id="Layer_1" xmlns="http://www.w3.org/2000/svg" xmlns:xlink="http://www.w3.org/1999/xlink" x="0px" y="0px"
	 viewBox="0 0 48 48" enable-background="new 0 0 48 48" xml:space="preserve">
<g>
	<path fill="#E77528" d="M47.1,37.6l-1.6-2.8c-6.8,3.2-14.1,4.8-21.6,4.8c-7.4,0-14.6-1.6-21.3-4.7l-1.6,2.8c-1,1.7-0.3,4,1.5,4.8
		c6.5,3.1,13.7,4.8,21.4,4.8c7.8,0,15.1-1.8,21.7-4.9C47.4,41.5,48.1,39.3,47.1,37.6z"/>
	<path fill="#0DB89A" d="M44.6,33.3L26.9,2.4c-1.3-2.3-4.7-2.3-6,0l-17.5,31c6.5,3,13.4,4.5,20.5,4.5C31.1,37.9,38.1,36.4,44.6,33.3
		z M31.8,22c1.2,0,2.1,0.9,2.1,2.1c0,1.2-0.9,2.1-2.1,2.1c-1.2,0-2.1-0.9-2.1-2.1C29.7,22.9,30.7,22,31.8,22z M25.6,8.4
		c0.9,0,1.6,0.7,1.6,1.6c0,0.9-0.7,1.6-1.6,1.6c-0.9,0-1.6-0.7-1.6-1.6C24,9.1,24.7,8.4,25.6,8.4z M19,31.9c-2.8,0-5-2.2-5-5
		c0-2.8,2.2-5,5-5s5,2.2,5,5C24,29.7,21.8,31.9,19,31.9z"/>
</g>
</svg>
