<?xml version="1.0" encoding="utf-8"?>
<!-- Generator: Adobe Illustrator 18.0.0, SVG Export Plug-In . SVG Version: 6.00 Build 0)  -->
<!DOCTYPE svg PUBLIC "-//W3C//DTD SVG 1.1//EN" "http://www.w3.org/Graphics/SVG/1.1/DTD/svg11.dtd">
<svg version="1.1" id="Layer_1" xmlns="http://www.w3.org/2000/svg" xmlns:xlink="http://www.w3.org/1999/xlink" x="0px" y="0px"
	 viewBox="0 0 48 48" enable-background="new 0 0 48 48" xml:space="preserve">
<g>
	<path fill="#FFD69A" d="M17.5,28.9c0.1,0.1,0.3,0.2,0.4,0.2c0.4,0.1,0.7-0.3,0.9-0.6c1.1-1.8,1.8-3.9,2.3-6
		c0.1-0.2,0.1-0.5,0.2-0.7c-0.1,0.1-0.1,0.2-0.2,0.3c-1-4.4-2.5-11.7-2.5-17.2c0-3.4-3.7-5.3-5.9-3C11.2,3.6,10,6.2,10,10.6
		c0,0,0.1,9.1,1,13.1c-1.1-0.3-1.8-0.5-1.8-0.5c-0.1,0-0.1,0-0.1,0c0.5,0.3,1,0.5,1.5,0.7C13.1,25.1,15.2,27.2,17.5,28.9z"/>
	<path fill="#E8B944" d="M44.9,39.3C39.8,37.7,23.2,25,23.2,25c0.9-9,17.8-3.9,17.8-3.9c-11.5-8.6-17.4-2.8-19.7,0.8
		c-0.1,0.2-0.1,0.5-0.2,0.7c-0.6,2.1-1.2,4.2-2.3,6c-0.2,0.3-0.5,0.7-0.9,0.6c-0.2,0-0.3-0.1-0.4-0.2c-2.3-1.8-4.4-3.9-7-5.1
		c-0.5-0.2-1-0.4-1.5-0.7c-9,1.1-6.3,10.1-6.3,10.1C4.1,38.8,5,43.8,5,43.8C7.1,41,6,37.5,6,37.5c-3.1-9.7,4.1-9.4,4.1-9.4
		c-2,5.7,5.8,11.9,5.8,11.9c3,2,5.3,7,5.3,7c2.3-3.4-0.5-7.3-0.5-7.3c12.8,8.8,22.7,3.5,22.7,3.5C47.5,42.5,44.9,39.3,44.9,39.3z"/>
</g>
</svg>
