<?xml version="1.0" encoding="utf-8"?>
<!-- Generator: Adobe Illustrator 18.0.0, SVG Export Plug-In . SVG Version: 6.00 Build 0)  -->
<!DOCTYPE svg PUBLIC "-//W3C//DTD SVG 1.1//EN" "http://www.w3.org/Graphics/SVG/1.1/DTD/svg11.dtd">
<svg version="1.1" id="Layer_1" xmlns="http://www.w3.org/2000/svg" xmlns:xlink="http://www.w3.org/1999/xlink" x="0px" y="0px"
	 viewBox="0 0 48 48" enable-background="new 0 0 48 48" xml:space="preserve">
<g>
	<path fill="#294E58" d="M24,0.3C11.6,0.3,1.6,8.4,1.6,18.4c0,7.9,7.2,7.8,16,7.4v2.6c0,2.8-1.4,5.5-2.1,8.2c-0.3,1-0.4,2.2-0.2,3.3
		c0.5,4,3.7,7.2,7.7,7.6c5.3,0.6,9.7-3.6,9.7-8.7c0-0.9-0.1-1.7-0.4-2.5c-0.8-2.6-2-5.2-2-7.9v-2.6c8.7,0.4,16,0.5,16-7.4
		C46.4,8.4,36.4,0.3,24,0.3z"/>
</g>
</svg>
