<?xml version="1.0" encoding="utf-8"?>
<!-- Generator: Adobe Illustrator 18.0.0, SVG Export Plug-In . SVG Version: 6.00 Build 0)  -->
<!DOCTYPE svg PUBLIC "-//W3C//DTD SVG 1.1//EN" "http://www.w3.org/Graphics/SVG/1.1/DTD/svg11.dtd">
<svg version="1.1" id="Layer_1" xmlns="http://www.w3.org/2000/svg" xmlns:xlink="http://www.w3.org/1999/xlink" x="0px" y="0px"
	 viewBox="0 0 48 48" enable-background="new 0 0 48 48" xml:space="preserve">
<g>
	<path fill="#06728D" d="M46.9,1c-0.1-0.5-0.7-0.8-1.2-0.7C40.4,1.6,37.1,5.4,35.1,9c0.6,0,1.2,0,1.7,0.3c0.1,0.1,0.2,0.1,0.3,0.2
		c1.8-3.1,4.7-6.3,9.1-7.3C46.8,2.1,47.1,1.6,46.9,1z"/>
	<path fill="#0DB89A" d="M1,27.1c0,0,2.8-7.4,15.7-6.5c12.9,0.9,17.9-10,18.1-10.8C35,8.9,0.1-7.9,1,27.1z"/>
	<path fill="#F7A93B" d="M36.8,10l0,0.2c-0.4,1.6-5.9,12.4-18.6,12.4c0,0,0,0,0,0c-0.5,0-1,0-1.6-0.1c-0.6,0-1.3-0.1-1.9-0.1
		c-2.5,0-4.4,0.3-6,0.9c-0.6,4.3-0.2,7.8-0.2,7.8c-0.1,3.3,3,11,4.8,13.6c1.7,2.3,4.5,3.4,7.3,2.8c5.9-1.3,10.4-3.6,13.7-5.8
		c4.4-3,7.6-7.5,9.1-12.6C47.7,14.3,40.5,10.8,36.8,10z"/>
</g>
</svg>
