<?xml version="1.0" encoding="utf-8"?>
<!-- Generator: Adobe Illustrator 18.0.0, SVG Export Plug-In . SVG Version: 6.00 Build 0)  -->
<!DOCTYPE svg PUBLIC "-//W3C//DTD SVG 1.1//EN" "http://www.w3.org/Graphics/SVG/1.1/DTD/svg11.dtd">
<svg version="1.1" id="Layer_1" xmlns="http://www.w3.org/2000/svg" xmlns:xlink="http://www.w3.org/1999/xlink" x="0px" y="0px"
	 viewBox="0 0 48 48" enable-background="new 0 0 48 48" xml:space="preserve">
<g>
	<path fill="#E8B944" d="M44.5,35.2H4.2l0,0c0,4.7,3.8,8.4,8.4,8.4h23.4C40.8,43.6,44.5,39.8,44.5,35.2L44.5,35.2z"/>
	<path fill="#F7A93B" d="M46.7,31c-0.5-0.9-1.3-1.6-2.2-2.1c-0.2-0.1-0.3-0.2-0.5-0.3c-0.4,0.4-0.9,0.7-1.5,0.7H7.6
		c-1.1,0.5-2.2,0.9-3.4,1c-1.2,0.2-2.7,0.2-3.1,1.3c-0.3,0.7,0.1,1.7,0.7,2.2c0.7,0.5,1.5,0.6,2.3,0.6c0.9,0,1.9-0.1,2.8-0.4
		c1.3-0.5,2.4-1.4,3.6-2.1c1.2-0.7,2.7-1,3.9-0.4c0.7,0.4,1.2,1.1,1.9,1.6c1,0.7,2.3,0.8,3.5,0.8c0.8,0,1.6,0.1,2.3-0.3
		c0.4-0.2,0.8-0.5,1.2-0.7c1.1-0.6,2.4-0.6,3.6-0.3c1.2,0.2,2.4,0.7,3.6,0.9c1.1,0.2,2.2,0.2,3.2,0.2c0.5,0,1.1,0,1.6-0.2
		c1-0.3,1.9-1.4,2.9-0.9c0.4,0.1,0.6,0.5,0.9,0.7c1.2,1.1,3.1,1.1,4.7,1.1c0.9,0,1.8-0.1,2.5-0.7C47.1,33.1,47.2,31.9,46.7,31z"/>
	<path fill="#F04B36" d="M43.4,28.4H4.6c-2,0-3.6-1.6-3.6-3.6l0,0c0-2,1.6-3.6,3.6-3.6h38.9c2,0,3.6,1.6,3.6,3.6l0,0
		C47,26.8,45.4,28.4,43.4,28.4z"/>
	<path fill="#E77528" d="M30.8,4.4H18c-7.6,0-13.8,6.2-13.8,13.8c0,1.1,0.9,2,2,2h36.3c1.1,0,2-0.9,2-2C44.5,10.5,38.4,4.4,30.8,4.4
		z M12.3,18c-1.4,0-2.5-1.1-2.5-2.5c0-1.4,1.1-2.5,2.5-2.5c1.4,0,2.5,1.1,2.5,2.5C14.9,16.8,13.7,18,12.3,18z M24.1,11.9
		c-1.3,0-2.3-1-2.3-2.3s1-2.3,2.3-2.3c1.3,0,2.3,1,2.3,2.3S25.4,11.9,24.1,11.9z M36.7,16c-1.3,0-2.4-1.1-2.4-2.4s1.1-2.4,2.4-2.4
		s2.4,1.1,2.4,2.4S38,16,36.7,16z"/>
</g>
</svg>
