<?xml version="1.0" encoding="utf-8"?>
<!-- Generator: Adobe Illustrator 18.0.0, SVG Export Plug-In . SVG Version: 6.00 Build 0)  -->
<!DOCTYPE svg PUBLIC "-//W3C//DTD SVG 1.1//EN" "http://www.w3.org/Graphics/SVG/1.1/DTD/svg11.dtd">
<svg version="1.1" id="Layer_1" xmlns="http://www.w3.org/2000/svg" xmlns:xlink="http://www.w3.org/1999/xlink" x="0px" y="0px"
	 viewBox="0 0 48 48" enable-background="new 0 0 48 48" xml:space="preserve">
<g>
	<path fill="#0DB89A" d="M39.6,38.4l-5.3-21c-0.1-0.4-0.1-0.8-0.2-1.1H6.8c-0.1,0.4-0.1,0.9-0.2,1.3L1.3,38.4
		C0.2,42.6,2.4,47,5.6,47h29.8C38.5,47,40.7,42.6,39.6,38.4z"/>
	<path fill="#E8B944" d="M6.3,10.8c0.1,0.2,0.1,0.4,0.2,0.7h28c0.1-0.3,0.1-0.6,0.2-0.9L37,3.9C37.5,2.6,36.8,1,35.7,1H5.2
		C4.1,1,3.4,2.5,3.8,3.9L6.3,10.8z"/>
	<path fill="#CFD0D1" d="M45.1,11.4H34.4c-0.4,1.6-0.5,3.3-0.2,4.9c0.1,0,0.1,0.1,0.2,0.1h8.8v20.2c0,1.4,0.8,2.5,1.9,2.5
		c1,0,1.9-1.1,1.9-2.5V13.9C47,12.6,46.2,11.4,45.1,11.4z"/>
</g>
</svg>
