<?xml version="1.0" encoding="utf-8"?>
<!-- Generator: Adobe Illustrator 18.0.0, SVG Export Plug-In . SVG Version: 6.00 Build 0)  -->
<!DOCTYPE svg PUBLIC "-//W3C//DTD SVG 1.1//EN" "http://www.w3.org/Graphics/SVG/1.1/DTD/svg11.dtd">
<svg version="1.1" id="Layer_1" xmlns="http://www.w3.org/2000/svg" xmlns:xlink="http://www.w3.org/1999/xlink" x="0px" y="0px"
	 viewBox="0 0 48 48" enable-background="new 0 0 48 48" xml:space="preserve">
<g>
	<path fill="#06728D" d="M8.6,7.4l0.1,0.4L8.8,8l0,0l0,0c0,0-0.1-0.1,0-0.1l0,0l0,0l0,0.1C8.9,8.4,9,8.7,9,8.9
		c0,0.2,0.1,0.4,0.1,0.6C9.2,10,9.2,10.5,9.3,11c0,0.5,0,1,0,1.4c0,0.5-0.1,0.9-0.1,1.4c0,0.5-0.1,0.9-0.1,1.3
		c-0.1,0.8-0.2,1.5-0.2,2c0,0.5-0.1,0.8-0.1,0.8s0.2-0.2,0.5-0.6c0.3-0.4,0.7-1,1.1-1.8c0.4-0.8,0.8-1.7,1-2.7
		c0.3-1.1,0.4-2.2,0.2-3.5c0-0.3-0.1-0.7-0.2-1c-0.1-0.3-0.2-0.5-0.3-0.8l-0.1-0.3L10.8,7l-0.2-0.3c-0.1-0.2-0.2-0.4-0.3-0.6
		c-0.1-0.4-0.3-0.8-0.4-1.3C9.9,4.4,9.8,4,9.8,3.6c-0.1-0.8-0.1-1.4,0-1.9C9.8,1.3,9.9,1,9.9,1S9.6,1.2,9.3,1.6C9,2,8.6,2.7,8.4,3.5
		C8.3,4,8.2,4.5,8.2,5c0,0.5,0,1.1,0.1,1.6C8.4,6.9,8.5,7.1,8.6,7.4z"/>
	<path fill="#06728D" d="M14.9,7.4L15,7.8L15.1,8l0,0l0,0c0,0-0.1-0.1,0-0.1l0,0l0,0l0,0.1c0.1,0.2,0.2,0.5,0.2,0.7
		c0,0.2,0.1,0.4,0.1,0.6c0.1,0.5,0.1,0.9,0.1,1.4c0,0.5,0,1,0,1.4c0,0.5-0.1,0.9-0.1,1.4c0,0.5-0.1,0.9-0.1,1.3
		c-0.1,0.8-0.2,1.5-0.2,2c0,0.5-0.1,0.8-0.1,0.8s0.2-0.2,0.5-0.6c0.3-0.4,0.7-1,1.1-1.8c0.4-0.8,0.8-1.7,1-2.7
		c0.3-1.1,0.4-2.2,0.2-3.5c0-0.3-0.1-0.7-0.2-1c-0.1-0.3-0.2-0.5-0.3-0.8l-0.1-0.3L17.1,7L17,6.7c-0.1-0.2-0.2-0.4-0.3-0.6
		c-0.1-0.4-0.3-0.8-0.4-1.3c-0.1-0.4-0.2-0.8-0.2-1.2c-0.1-0.8-0.1-1.4,0-1.9c0-0.5,0.1-0.8,0.1-0.8s-0.2,0.2-0.5,0.6
		C15.3,2,15,2.7,14.7,3.5C14.6,4,14.6,4.5,14.6,5c0,0.5,0,1.1,0.1,1.6C14.8,6.9,14.8,7.1,14.9,7.4z"/>
	<path fill="#06728D" d="M21.2,7.4l0.1,0.4L21.4,8l0,0l0,0c0,0-0.1-0.1,0-0.1l0,0l0,0l0,0.1c0.1,0.2,0.2,0.5,0.2,0.7
		c0,0.2,0.1,0.4,0.1,0.6c0.1,0.5,0.1,0.9,0.1,1.4c0,0.5,0,1,0,1.4c0,0.5-0.1,0.9-0.1,1.4c0,0.5-0.1,0.9-0.1,1.3
		c-0.1,0.8-0.2,1.5-0.2,2c0,0.5-0.1,0.8-0.1,0.8s0.2-0.2,0.5-0.6c0.3-0.4,0.7-1,1.1-1.8c0.4-0.8,0.8-1.7,1-2.7
		c0.3-1.1,0.4-2.2,0.2-3.5c0-0.3-0.1-0.7-0.2-1c-0.1-0.3-0.2-0.5-0.3-0.8l-0.1-0.3L23.5,7l-0.2-0.3c-0.1-0.2-0.2-0.4-0.3-0.6
		c-0.1-0.4-0.3-0.8-0.4-1.3c-0.1-0.4-0.2-0.8-0.2-1.2c-0.1-0.8-0.1-1.4,0-1.9c0-0.5,0.1-0.8,0.1-0.8S22.3,1.2,22,1.6
		c-0.3,0.4-0.7,1.1-0.9,1.9C21,4,20.9,4.5,20.9,5c0,0.5,0,1.1,0.1,1.6C21.1,6.9,21.1,7.1,21.2,7.4z"/>
	<ellipse fill="#294E58" cx="22.1" cy="43.9" rx="12.8" ry="3.1"/>
	<path fill="#06728D" d="M32.4,25.7c-0.3,0-0.7-0.1-1-0.4c-0.7-0.6-0.9-1.8-0.4-2.6C31.8,21.5,38.8,11,45,9.3c0.9-0.2,1.8,0.4,2,1.4
		c0.2,1-0.3,2-1.2,2.2c-4.2,1.1-10.1,9-12,11.9C33.4,25.4,32.9,25.7,32.4,25.7z"/>
	<path fill="#4DA0D8" d="M1,21.3c0,13.1,9.4,23.6,21.1,23.6c11.6,0,21.1-10.6,21.1-23.6H1z"/>
</g>
</svg>
