<?xml version="1.0" encoding="utf-8"?>
<!-- Generator: Adobe Illustrator 18.0.0, SVG Export Plug-In . SVG Version: 6.00 Build 0)  -->
<!DOCTYPE svg PUBLIC "-//W3C//DTD SVG 1.1//EN" "http://www.w3.org/Graphics/SVG/1.1/DTD/svg11.dtd">
<svg version="1.1" id="Layer_1" xmlns="http://www.w3.org/2000/svg" xmlns:xlink="http://www.w3.org/1999/xlink" x="0px" y="0px"
	 viewBox="0 0 48 48" enable-background="new 0 0 48 48" xml:space="preserve">
<g>
	<line x1="9.1" y1="39" x2="38" y2="9.8"/>
	<path fill="#F04B36" d="M9.1,40c-0.3,0-0.5-0.1-0.7-0.3c-0.4-0.4-0.4-1,0-1.4L37.2,9.1c0.4-0.4,1-0.4,1.4,0c0.4,0.4,0.4,1,0,1.4
		L9.8,39.7C9.6,39.9,9.3,40,9.1,40z"/>
	<path fill="#F7A93B" d="M40.5,2.4c0,0-11.1-4.5-18.1,2.4l3.9,4l16.6,16.7c0,0,7.3-10.5,2.4-18l-6.4,0.7L40.5,2.4z M31.5,7
		c-0.7,0.8-2,0.8-2.7,0c-0.7-0.8-0.7-2,0-2.7c0.7-0.8,2-0.8,2.7,0C32.3,5,32.3,6.2,31.5,7z"/>
	<path fill="#F7A93B" d="M1.1,36.1c0,0-0.1,0.1-0.1,0.1c2.3,0,5,1.2,7.3,3.4c2.2,2.3,3.4,5,3.4,7.4c0,0,0.1-0.1,0.1-0.1
		c2.3-2.3,1.8-6.6-1.2-9.6C7.6,34.3,3.4,33.8,1.1,36.1z"/>
	<path fill="#F7A93B" d="M34.7,33.3c-0.6,0-1-0.4-1-1c0-10-8.1-18.2-18-18.2c-0.6,0-1-0.4-1-1c0-0.6,0.4-1,1-1c11,0,20,9.1,20,20.2
		C35.7,32.9,35.2,33.3,34.7,33.3z"/>
	<path fill="#F7A93B" d="M28.9,35.8c-0.6,0-1-0.4-1-1c0-8.2-6.6-14.8-14.6-14.8c-0.6,0-1-0.4-1-1c0-0.6,0.4-1,1-1
		c9.2,0,16.6,7.5,16.6,16.8C29.9,35.3,29.4,35.8,28.9,35.8z"/>
	<path fill="#F7A93B" d="M23.3,38.6c-0.6,0-1-0.4-1-1c0-6.6-5.3-12-11.9-12c-0.6,0-1-0.4-1-1c0-0.6,0.4-1,1-1
		c7.7,0,13.9,6.3,13.9,14C24.3,38.2,23.9,38.6,23.3,38.6z"/>
	<path fill="#F7A93B" d="M18,41.7L18,41.7c-0.6,0-1-0.4-1-1c0-2.6-1-5-2.8-6.9C12.3,32,9.9,31,7.4,31c-0.6,0-1-0.4-1-1
		c0-0.6,0.4-1,1-1c3.1,0,6,1.2,8.2,3.4c2.2,2.2,3.4,5.2,3.4,8.3C19,41.3,18.5,41.7,18,41.7z"/>
</g>
</svg>
