<?xml version="1.0" encoding="utf-8"?>
<!-- Generator: Adobe Illustrator 18.0.0, SVG Export Plug-In . SVG Version: 6.00 Build 0)  -->
<!DOCTYPE svg PUBLIC "-//W3C//DTD SVG 1.1//EN" "http://www.w3.org/Graphics/SVG/1.1/DTD/svg11.dtd">
<svg version="1.1" id="Layer_1" xmlns="http://www.w3.org/2000/svg" xmlns:xlink="http://www.w3.org/1999/xlink" x="0px" y="0px"
	 viewBox="0 0 48 48" enable-background="new 0 0 48 48" xml:space="preserve">
<g>
	<path fill="#E8B944" d="M21.2,29.3c-0.4,0-0.8-0.3-0.9-0.7c-0.2-1-0.5-1.9-0.9-2.8c-0.3-0.8-0.8-1.5-1.5-2.3
		c-1.1-1.2-3.9-1-5.8-0.1c-1.8,0.9-2.9,2.9-3.8,4.9c-0.2,0.5-0.8,0.7-1.3,0.5c-0.5-0.2-0.7-0.8-0.5-1.3c1-2.2,2.3-4.7,4.7-5.9
		c2.6-1.3,6.3-1.5,8.1,0.5c0.9,1,1.5,1.9,1.9,2.9c0.4,1,0.7,2,1,3.1c0.1,0.5-0.2,1-0.7,1.2C21.3,29.3,21.2,29.3,21.2,29.3z"/>
	<path fill="#E8B944" d="M24.6,28.9c-0.4,0-0.8-0.3-0.9-0.7c-0.4-1.5-0.8-2.9-1.4-4.3c-0.5-1.2-1.2-2.4-2.4-3.6
		c-1.9-2-6.2-1.7-9.3-0.2c-2.9,1.4-4.6,4.5-5.9,7.6c-0.2,0.5-0.8,0.7-1.3,0.5C3,28.1,2.8,27.5,3,27c1.4-3.3,3.4-6.9,6.8-8.6
		c3.7-1.8,9-2.2,11.5,0.6c1.3,1.4,2.2,2.8,2.7,4.2c0.6,1.5,1.1,3,1.4,4.5c0.1,0.5-0.2,1-0.7,1.2C24.8,28.9,24.7,28.9,24.6,28.9z"/>
	<path fill="#E8B944" d="M35.6,29.3c-0.4,0-0.8-0.3-0.9-0.7c-0.2-1-0.5-1.9-0.9-2.8c-0.3-0.8-0.8-1.5-1.5-2.3
		c-1.1-1.2-3.9-1-5.8-0.1c-1.8,0.9-2.9,2.9-3.8,4.9c-0.2,0.5-0.8,0.7-1.3,0.5c-0.5-0.2-0.7-0.8-0.5-1.3c1-2.2,2.3-4.7,4.7-5.9
		c2.6-1.3,6.3-1.5,8.1,0.5c0.9,1,1.5,1.9,1.9,2.9c0.4,1,0.7,2,1,3.1c0.1,0.5-0.2,1-0.7,1.2C35.7,29.3,35.7,29.3,35.6,29.3z"/>
	<path fill="#E8B944" d="M39,28.9c-0.4,0-0.8-0.3-0.9-0.7c-0.4-1.5-0.8-2.9-1.4-4.3c-0.5-1.2-1.2-2.4-2.4-3.6
		c-1.9-2-6.2-1.7-9.3-0.2c-2.9,1.4-4.6,4.5-5.9,7.6c-0.2,0.5-0.8,0.7-1.3,0.5c-0.5-0.2-0.7-0.8-0.5-1.3c1.4-3.3,3.4-6.9,6.8-8.6
		c3.7-1.8,9-2.2,11.5,0.6c1.3,1.4,2.2,2.8,2.7,4.2c0.6,1.5,1.1,3,1.4,4.5c0.1,0.5-0.2,1-0.7,1.2C39.2,28.9,39.1,28.9,39,28.9z"/>
	<path fill="#E8B944" d="M43.1,28.4c-0.4,0-0.8-0.3-0.9-0.7c-0.5-2-1.1-4.1-1.9-6c-0.7-1.7-1.8-3.4-3.4-5.1c-2.7-3-8.9-2.5-13.4-0.3
		c-4.2,2.1-6.6,6.6-8.4,10.8c-0.2,0.5-0.8,0.7-1.3,0.5c-0.5-0.2-0.7-0.8-0.5-1.3c2-4.5,4.6-9.4,9.3-11.8c5-2.5,12.2-3,15.6,0.8
		c1.7,1.9,2.9,3.8,3.7,5.7c0.8,2,1.5,4.2,2,6.3c0.1,0.5-0.2,1-0.7,1.2C43.3,28.4,43.2,28.4,43.1,28.4z"/>
	<rect x="6.6" y="33.1" fill="#4DA0D8" width="34.8" height="2.4"/>
	<path fill="#06728D" d="M41.4,33.2H6.6l-5.4-5.9c-0.5-0.6-0.1-1.5,0.7-1.5h44.2c0.8,0,1.2,0.9,0.7,1.5L41.4,33.2z"/>
</g>
</svg>
