<?xml version="1.0" encoding="utf-8"?>
<!-- Generator: Adobe Illustrator 18.0.0, SVG Export Plug-In . SVG Version: 6.00 Build 0)  -->
<!DOCTYPE svg PUBLIC "-//W3C//DTD SVG 1.1//EN" "http://www.w3.org/Graphics/SVG/1.1/DTD/svg11.dtd">
<svg version="1.1" id="Layer_1" xmlns="http://www.w3.org/2000/svg" xmlns:xlink="http://www.w3.org/1999/xlink" x="0px" y="0px"
	 viewBox="0 0 48 48" enable-background="new 0 0 48 48" xml:space="preserve">
<g>
	<path fill="#4DA0D8" d="M27.7,14.6c-0.1,0-0.1,0-0.2,0c-0.5-0.1-0.8-0.6-0.7-1.1c0.1-0.3,1.5-6.5,6.5-11.4c0.4-0.4,0.9-0.4,1.3,0
		C35,2.5,35,3,34.6,3.4c-4.5,4.5-6,10.4-6,10.5C28.5,14.3,28.1,14.6,27.7,14.6z"/>
	<path fill="#4DA0D8" d="M28.9,15.4c-0.4,0-0.7-0.2-0.9-0.6c-0.1-0.3-2.2-6.3-0.6-13.1C27.5,1.2,28,0.9,28.5,1
		c0.5,0.1,0.8,0.6,0.7,1.1c-1.4,6.2,0.6,12,0.6,12c0.2,0.5-0.1,1-0.6,1.2C29.1,15.4,29,15.4,28.9,15.4z"/>
	<path fill="#4DA0D8" d="M28.3,14.6c-0.4,0-0.8-0.3-0.9-0.7c0-0.1-1.4-6-6-10.5c-0.4-0.4-0.4-0.9,0-1.3c0.4-0.4,0.9-0.4,1.3,0
		c4.9,4.9,6.4,11.1,6.5,11.4c0.1,0.5-0.2,1-0.7,1.1C28.5,14.6,28.4,14.6,28.3,14.6z"/>
	<path fill="#4DA0D8" d="M28,46.2c-0.2,0-0.5-0.1-0.6-0.3C22.5,41,21,34.8,20.9,34.6c-0.1-0.5,0.2-1,0.7-1.1c0.5-0.1,1,0.2,1.1,0.7
		c0,0.1,1.4,6,6,10.5c0.4,0.4,0.4,0.9,0,1.3C28.5,46.1,28.3,46.2,28,46.2z"/>
	<path fill="#4DA0D8" d="M22.4,47c-0.4,0-0.8-0.3-0.9-0.7C20,39.5,22,33.5,22.1,33.2c0.2-0.5,0.7-0.7,1.2-0.6
		c0.5,0.2,0.7,0.7,0.6,1.2c0,0.1-2,5.8-0.6,12c0.1,0.5-0.2,1-0.7,1.1C22.5,47,22.4,47,22.4,47z"/>
	<path fill="#4DA0D8" d="M16.2,46.2c-0.2,0-0.5-0.1-0.7-0.3c-0.4-0.4-0.4-0.9,0-1.3c4.5-4.5,6-10.4,6-10.5c0.1-0.5,0.6-0.8,1.1-0.7
		c0.5,0.1,0.8,0.6,0.7,1.1c-0.1,0.3-1.5,6.5-6.5,11.4C16.6,46.1,16.4,46.2,16.2,46.2z"/>
	<path fill="#CFD0D1" d="M16.2,43.4c-1.5-0.1-3-0.2-4.3-0.8C8.5,41,7.4,36.7,7.2,33c-0.2-2.9,0-6,1.2-8.7c0.8-1.8,2.1-3.3,3.5-4.7
		c4.6-4.7,10.8-8.4,17.4-7.7c1,0.1,1.9,0.3,2.8,0.8c1.7,1,2.6,2.9,3.6,4.7c1,1.8,2.2,3.6,3.2,5.5c1.8,3.7,2.5,8.1,1.4,12.1
		c-1.1,4-4.2,7.5-8.2,8.6c-2.4,0.7-4.9,0.5-7.3,0.4C21.9,43.7,19.1,43.6,16.2,43.4z"/>
</g>
</svg>
