<?xml version="1.0" encoding="utf-8"?>
<!-- Generator: Adobe Illustrator 18.0.0, SVG Export Plug-In . SVG Version: 6.00 Build 0)  -->
<!DOCTYPE svg PUBLIC "-//W3C//DTD SVG 1.1//EN" "http://www.w3.org/Graphics/SVG/1.1/DTD/svg11.dtd">
<svg version="1.1" id="Layer_1" xmlns="http://www.w3.org/2000/svg" xmlns:xlink="http://www.w3.org/1999/xlink" x="0px" y="0px"
	 viewBox="0 0 48 48" enable-background="new 0 0 48 48" xml:space="preserve">
<g>
	<path fill="#06728D" d="M45.5,6.6c0.5-0.6,1-1.3,1.1-2.1c0.1-0.4,0-0.9-0.3-1.1C46,3.2,45.8,3.2,45.6,3c-0.2-0.2-0.3-0.4-0.6-0.5
		c-0.2-0.1-0.4,0-0.6-0.1c-0.1-0.1-0.2-0.3-0.3-0.4c-0.3-0.3-0.7,0-1.1,0c-0.5-0.1-0.8-0.7-1.2-0.9c-0.4-0.2-1,0.1-1.1,0.6
		c-0.1,0.3,0,0.5,0.1,0.8c0.3,0.9,0.5,1.8,0.8,2.7c-2.1,0.3-3.9,1.9-4.6,4C32.5,22.3,22.2,32.7,9.2,37.4c-2,0.7-3.5,2.3-3.9,4.2
		c-0.8-0.2-1.6-0.5-2.5-0.7c-0.3-0.1-0.5-0.2-0.8-0.1c-0.5,0.1-0.8,0.7-0.6,1.1c0.2,0.5,0.9,0.7,0.9,1.2c0,0.4-0.3,0.8,0,1.1
		c0.1,0.1,0.3,0.2,0.4,0.3c0.1,0.2,0.1,0.4,0.1,0.6c0.1,0.2,0.4,0.4,0.5,0.6c0.1,0.2,0.2,0.4,0.3,0.6c0.3,0.3,0.7,0.4,1.1,0.3
		c0.6-0.1,1.2-0.4,1.7-0.8c1.4,1.2,3.6,1.6,5.9,0.8C28.3,41,40.8,28.3,46.3,12.4C47,10.2,46.6,8,45.5,6.6z"/>
</g>
</svg>
