<?xml version="1.0" encoding="utf-8"?>
<!-- Generator: Adobe Illustrator 18.0.0, SVG Export Plug-In . SVG Version: 6.00 Build 0)  -->
<!DOCTYPE svg PUBLIC "-//W3C//DTD SVG 1.1//EN" "http://www.w3.org/Graphics/SVG/1.1/DTD/svg11.dtd">
<svg version="1.1" id="Layer_1" xmlns="http://www.w3.org/2000/svg" xmlns:xlink="http://www.w3.org/1999/xlink" x="0px" y="0px"
	 viewBox="0 0 48 48" enable-background="new 0 0 48 48" xml:space="preserve">
<g>
	<path fill="none" d="M34.4,32.5H5.6c-1.7,0-3.1,1.4-3.1,3.1c0,1.7,1.4,3.1,3.1,3.1h28.8c1.7,0,3.1-1.4,3.1-3.1
		C37.5,33.9,36.1,32.5,34.4,32.5z"/>
	<path fill="#F7A93B" d="M46.5,8.5H29.2l-5.1-6.9c-0.3-0.4-0.9-0.5-1.4-0.2c-0.4,0.3-0.5,0.9-0.2,1.4l4.2,5.7h-6.6c-0.5,0-1,0.4-1,1
		c0,0.5,0.4,1,1,1h3.2l1.1,11.9h1.4c5.2,0,9.7,3.7,10.7,8.7l0,0c0,0,2.7,1.7,2.7,4.3c0,2.7-1.5,4-2.7,4.7c-0.6,2.8-2.2,5.1-4.4,6.6
		h7.9l3.2-36.4h3.2c0.5,0,1-0.4,1-1C47.5,8.9,47.1,8.5,46.5,8.5z"/>
	<path fill="#0DB89A" d="M39.3,35.4c0-2.7-2.7-4.3-2.7-4.3c-0.6-0.3-1.4-0.5-2.1-0.5c-1.1-3.6-4.5-6.3-8.6-6.3H14
		c-4,0-7.5,2.7-8.6,6.3c-2.7,0.1-4.9,2.3-4.9,5c0,2.8,2.2,5,5,5.1c1.1,3.5,4.6,6.1,8.6,6.1h11.9c4,0,7.4-2.6,8.6-6.1
		c0.8,0,1.5-0.2,2.1-0.5C37.8,39.4,39.3,38.1,39.3,35.4z M34.4,38.7H5.6c-1.7,0-3.1-1.4-3.1-3.1c0-1.7,1.4-3.1,3.1-3.1h28.8
		c1.7,0,3.1,1.4,3.1,3.1C37.5,37.3,36.1,38.7,34.4,38.7z"/>
</g>
</svg>
