<?xml version="1.0" encoding="utf-8"?>
<!-- Generator: Adobe Illustrator 18.0.0, SVG Export Plug-In . SVG Version: 6.00 Build 0)  -->
<!DOCTYPE svg PUBLIC "-//W3C//DTD SVG 1.1//EN" "http://www.w3.org/Graphics/SVG/1.1/DTD/svg11.dtd">
<svg version="1.1" id="Layer_1" xmlns="http://www.w3.org/2000/svg" xmlns:xlink="http://www.w3.org/1999/xlink" x="0px" y="0px"
	 viewBox="0 0 48 48" enable-background="new 0 0 48 48" xml:space="preserve">
<g>
	<path fill="#06728D" d="M17,12l0.1,0.2l0,0.1l0,0l0,0c0,0,0-0.1,0,0l0,0l0,0l0,0.1c0,0.1,0.1,0.3,0.1,0.4c0,0.1,0.1,0.2,0.1,0.3
		c0,0.2,0.1,0.5,0.1,0.8c0,0.3,0,0.5,0,0.8c0,0.3,0,0.5-0.1,0.7c0,0.2-0.1,0.5-0.1,0.7c-0.1,0.4-0.1,0.8-0.1,1c0,0.3,0,0.4,0,0.4
		s0.1-0.1,0.3-0.3c0.2-0.2,0.4-0.5,0.7-0.9c0.2-0.4,0.5-0.9,0.6-1.5c0.1-0.6,0.2-1.2,0.1-1.8c0-0.2-0.1-0.3-0.1-0.5
		c0-0.2-0.1-0.3-0.2-0.4l-0.1-0.1l0-0.1l-0.1-0.2c-0.1-0.1-0.1-0.2-0.2-0.3c-0.1-0.2-0.2-0.5-0.2-0.7c0-0.2-0.1-0.4-0.1-0.6
		c0-0.4,0-0.7,0-1c0-0.3,0.1-0.4,0.1-0.4s-0.1,0.1-0.3,0.3c-0.2,0.2-0.4,0.6-0.5,1c-0.1,0.2-0.1,0.5-0.1,0.8c0,0.3,0,0.6,0.1,0.9
		C16.9,11.7,16.9,11.8,17,12z"/>
	<path fill="#06728D" d="M20.7,12l0.1,0.2l0,0.1l0,0l0,0c0,0,0-0.1,0,0l0,0l0,0l0,0.1c0,0.1,0.1,0.3,0.1,0.4c0,0.1,0.1,0.2,0.1,0.3
		c0,0.2,0.1,0.5,0.1,0.8c0,0.3,0,0.5,0,0.8c0,0.3,0,0.5-0.1,0.7c0,0.2-0.1,0.5-0.1,0.7c-0.1,0.4-0.1,0.8-0.1,1c0,0.3,0,0.4,0,0.4
		s0.1-0.1,0.3-0.3c0.2-0.2,0.4-0.5,0.7-0.9c0.2-0.4,0.5-0.9,0.6-1.5c0.1-0.6,0.2-1.2,0.1-1.8c0-0.2-0.1-0.3-0.1-0.5
		c0-0.2-0.1-0.3-0.2-0.4l-0.1-0.1l0-0.1L22,11.6c-0.1-0.1-0.1-0.2-0.2-0.3c-0.1-0.2-0.2-0.5-0.2-0.7c0-0.2-0.1-0.4-0.1-0.6
		c0-0.4,0-0.7,0-1c0-0.3,0.1-0.4,0.1-0.4s-0.1,0.1-0.3,0.3c-0.2,0.2-0.4,0.6-0.5,1c-0.1,0.2-0.1,0.5-0.1,0.8c0,0.3,0,0.6,0.1,0.9
		C20.6,11.7,20.7,11.8,20.7,12z"/>
	<path fill="#06728D" d="M24.5,12l0.1,0.2l0,0.1l0,0l0,0c0,0,0-0.1,0,0l0,0l0,0l0,0.1c0,0.1,0.1,0.3,0.1,0.4c0,0.1,0.1,0.2,0.1,0.3
		c0,0.2,0.1,0.5,0.1,0.8c0,0.3,0,0.5,0,0.8c0,0.3,0,0.5-0.1,0.7c0,0.2-0.1,0.5-0.1,0.7c-0.1,0.4-0.1,0.8-0.1,1c0,0.3,0,0.4,0,0.4
		s0.1-0.1,0.3-0.3c0.2-0.2,0.4-0.5,0.7-0.9c0.2-0.4,0.5-0.9,0.6-1.5c0.1-0.6,0.2-1.2,0.1-1.8c0-0.2-0.1-0.3-0.1-0.5
		c0-0.2-0.1-0.3-0.2-0.4l-0.1-0.1l0-0.1l-0.1-0.2c-0.1-0.1-0.1-0.2-0.2-0.3c-0.1-0.2-0.2-0.5-0.2-0.7c0-0.2-0.1-0.4-0.1-0.6
		c0-0.4,0-0.7,0-1c0-0.3,0.1-0.4,0.1-0.4s-0.1,0.1-0.3,0.3c-0.2,0.2-0.4,0.6-0.5,1c-0.1,0.2-0.1,0.5-0.1,0.8c0,0.3,0,0.6,0.1,0.9
		C24.4,11.7,24.4,11.8,24.5,12z"/>
	<path fill="#294E58" d="M46,23.8H2c-0.5,0-1,0.4-1,1c0,0.5,0.4,1,1,1h44c0.5,0,1-0.4,1-1C47,24.2,46.6,23.8,46,23.8z"/>
	<ellipse fill="#E77528" cx="11.6" cy="24.3" rx="3.5" ry="3.8"/>
	<ellipse fill="#F04B36" cx="18.4" cy="24.3" rx="1.4" ry="3.8"/>
	<ellipse fill="#E77528" cx="25.2" cy="24.3" rx="3.5" ry="3.8"/>
	<ellipse fill="#F04B36" cx="32" cy="24.3" rx="1.4" ry="3.8"/>
	<path fill="#294E58" d="M46,35.1H2c-0.5,0-1,0.4-1,1c0,0.5,0.4,1,1,1h44c0.5,0,1-0.4,1-1C47,35.6,46.6,35.1,46,35.1z"/>
	<ellipse fill="#F04B36" cx="11.6" cy="35.7" rx="3.5" ry="3.8"/>
	<ellipse fill="#0DB89A" cx="18.4" cy="35.7" rx="1.4" ry="3.8"/>
	<ellipse fill="#F04B36" cx="25.2" cy="35.7" rx="3.5" ry="3.8"/>
	<ellipse fill="#0DB89A" cx="32" cy="35.7" rx="1.4" ry="3.8"/>
</g>
</svg>
