<?xml version="1.0" encoding="utf-8"?>
<!-- Generator: Adobe Illustrator 18.0.0, SVG Export Plug-In . SVG Version: 6.00 Build 0)  -->
<!DOCTYPE svg PUBLIC "-//W3C//DTD SVG 1.1//EN" "http://www.w3.org/Graphics/SVG/1.1/DTD/svg11.dtd">
<svg version="1.1" id="Layer_1" xmlns="http://www.w3.org/2000/svg" xmlns:xlink="http://www.w3.org/1999/xlink" x="0px" y="0px"
	 viewBox="0 0 48 48" enable-background="new 0 0 48 48" xml:space="preserve">
<g>
	<path fill="#0DB89A" d="M40.3,13.8c0.2-0.2,0.5-0.4,0.7-0.5c-0.3-1-1-2.6-2.3-2.7c-1.5,4.2-4.6,6.8-5.7,7.6c-0.3-0.5-0.5-1-0.9-1.5
		c1.7-1.2,7.3-6.1,5.3-14.7c-0.1-0.5,0.2-0.9,0.6-1c0.5-0.1,0.9,0.2,1,0.6c0.6,2.8,0.5,5.2,0.1,7.3c2.2,0.4,3.2,2.9,3.5,4.1
		c0.2,0,0.4,0.1,0.6,0.2c2.4,1,6,4.2,1.8,14.1c-0.3,0.6-1,0.7-1.5,0.3C36.1,19.9,38.4,15.6,40.3,13.8z"/>
	<path fill="#F04B36" d="M1.6,44.5c4.7-2.8,13.8-9.8,19.3-23.6c0.8-1.9,1.8-3.6,3.3-5c2.5-2.3,6.4-4.5,9.9,0.2c0,0,11.3,7.8-13.9,26
		c-0.7,0.5-1.4,0.9-2.1,1.3c-2.8,1.4-9.8,4.4-16,3.7C0.9,46.8,0.5,45.1,1.6,44.5z"/>
</g>
</svg>
