<?xml version="1.0" encoding="utf-8"?>
<!-- Generator: Adobe Illustrator 18.0.0, SVG Export Plug-In . SVG Version: 6.00 Build 0)  -->
<!DOCTYPE svg PUBLIC "-//W3C//DTD SVG 1.1//EN" "http://www.w3.org/Graphics/SVG/1.1/DTD/svg11.dtd">
<svg version="1.1" id="Layer_1" xmlns="http://www.w3.org/2000/svg" xmlns:xlink="http://www.w3.org/1999/xlink" x="0px" y="0px"
	 viewBox="0 0 48 48" enable-background="new 0 0 48 48" xml:space="preserve">
<g>
	<ellipse transform="matrix(-0.3171 -0.9484 0.9484 -0.3171 -1.3446 57.1184)" fill="none" cx="19.9" cy="29" rx="2.8" ry="1.4"/>
	<ellipse transform="matrix(0.3171 -0.9484 0.9484 0.3171 -8.3495 46.4909)" fill="none" cx="28.1" cy="29" rx="2.8" ry="1.4"/>
	<path fill="#0DB89A" d="M37,3.1c0.5-0.1,0.8-0.6,0.7-1.1c-0.1-0.5-0.6-0.8-1.1-0.7c-3,0.7-5.4,1.9-7.2,3.4c-1.4-2-4.4-1.8-5.8-1.5
		c-0.1-0.2-0.3-0.3-0.4-0.5c-2.1-1.8-7-3.9-14.8,4.9C7.9,8.1,8.1,8.9,8.8,9.2C20,12.8,23.2,8.5,24,5.8c0.1-0.3,0.1-0.6,0.1-0.9
		c1.1-0.2,3.1-0.2,3.8,1c-4.2,4.2-4.9,9.5-4.9,9.7l1.9,0C25.2,14.1,26.9,5.4,37,3.1z"/>
	<path fill="#F04B36" d="M35.8,11.5c-3-0.7-6.1,0.6-8.8,3.1c-0.6,0.5-1.3,0.9-2,1l-1.9,0c-0.7-0.2-1.4-0.5-2-1.1
		c-2.7-2.6-5.8-3.8-8.8-3.1c-6.2,1.4-9.3,10.5-7,20.2c2.3,9.8,9.1,16.5,15.3,15.1c0.8-0.2,1.6-0.5,2.3-0.9c0.7-0.5,1.7-0.5,2.4,0
		c0.7,0.4,1.5,0.7,2.3,0.9c6.2,1.4,13-5.4,15.3-15.1C45,21.9,41.9,12.9,35.8,11.5z M20.8,31.7c-0.7,0.2-1.7-0.8-2.2-2.3
		c-0.5-1.5-0.3-2.9,0.4-3.1c0.7-0.2,1.7,0.8,2.2,2.3C21.7,30.1,21.5,31.5,20.8,31.7z M29.4,29.5c-0.5,1.5-1.5,2.5-2.2,2.3
		s-0.9-1.6-0.4-3.1c0.5-1.5,1.5-2.5,2.2-2.3C29.7,26.6,29.9,28,29.4,29.5z"/>
</g>
</svg>
