<?xml version="1.0" encoding="utf-8"?>
<!-- Generator: Adobe Illustrator 18.0.0, SVG Export Plug-In . SVG Version: 6.00 Build 0)  -->
<!DOCTYPE svg PUBLIC "-//W3C//DTD SVG 1.1//EN" "http://www.w3.org/Graphics/SVG/1.1/DTD/svg11.dtd">
<svg version="1.1" id="Layer_1" xmlns="http://www.w3.org/2000/svg" xmlns:xlink="http://www.w3.org/1999/xlink" x="0px" y="0px"
	 viewBox="0 0 48 48" enable-background="new 0 0 48 48" xml:space="preserve">
<g>
	<path fill="#E77528" d="M2.1,17.5c0.5,1.4,1.2,3.2,2.2,4.1c0.3,0.3,0.3,0.7,0,1c-0.6,0.5-1.4,1.3-2,2.1c-0.3,0.4-1,0.3-1.1-0.2
		c-0.4-1.6-1-4.2-0.3-6.9C1,16.9,1.9,16.9,2.1,17.5z"/>
	<path fill="#06728D" d="M10.1,23.9c0.9,0.7,2.4,1.6,3.8,2.3c0.9,0.4,1.3,1.5,0.9,2.4l-3,7.1c-0.4,1-1.6,1.4-2.5,1
		c-1.9-0.9-4.8-2.5-6.1-4.8c-0.3-0.6-0.3-1.3,0-1.9c0.9-1.5,2.8-4.6,4.6-6.1C8.5,23.4,9.4,23.4,10.1,23.9z"/>
	<path fill="#E77528" d="M45.9,17.5c-0.5,1.4-1.2,3.2-2.2,4.1c-0.3,0.3-0.3,0.7,0,1c0.6,0.5,1.4,1.3,2,2.1c0.3,0.4,1,0.3,1.1-0.2
		c0.4-1.6,1-4.2,0.3-6.9C47,16.9,46.1,16.9,45.9,17.5z"/>
	<path fill="#06728D" d="M37.9,23.9c-0.9,0.7-2.4,1.6-3.8,2.3c-0.9,0.4-1.3,1.5-0.9,2.4l3,7.1c0.4,1,1.6,1.4,2.5,1
		c1.9-0.9,4.8-2.5,6.1-4.8c0.3-0.6,0.3-1.3,0-1.9c-0.9-1.5-2.8-4.6-4.6-6.1C39.5,23.4,38.6,23.4,37.9,23.9z"/>
	<path fill="#4DA0D8" d="M21.9,25.5c1.3,0.2,3.3,0.5,5.3,0.4c1.1,0,2,0.7,2.1,1.7c0.4,2.8,1.4,8,2.5,11.2c0.4,1.2-0.2,2.4-1.4,2.7
		c-3.4,0.8-9.5,1.9-13.4-0.1c-0.8-0.4-1.2-1.4-0.9-2.3c0.7-2.8,2.5-9.2,3.4-12.2C19.8,25.9,20.8,25.3,21.9,25.5z"/>
	<path fill="#F04B36" d="M30.5,14.5l0.1,0.3l0.1,0.1l0,0l0,0c0,0,0-0.1,0,0l0,0l0,0l0,0.1c0.1,0.2,0.1,0.4,0.2,0.5
		c0,0.1,0.1,0.3,0.1,0.4c0.1,0.3,0.1,0.7,0.1,1c0,0.3,0,0.7,0,1c0,0.3-0.1,0.7-0.1,1c0,0.3-0.1,0.6-0.1,0.9c-0.1,0.6-0.1,1-0.2,1.4
		c0,0.3-0.1,0.5-0.1,0.5s0.2-0.1,0.4-0.4c0.2-0.3,0.6-0.7,0.9-1.2c0.3-0.5,0.6-1.2,0.8-1.9c0.2-0.7,0.3-1.6,0.2-2.4
		c0-0.2-0.1-0.5-0.2-0.7c-0.1-0.2-0.2-0.4-0.2-0.6l-0.1-0.2l-0.1-0.1L32.1,14c-0.1-0.1-0.1-0.3-0.2-0.4c-0.1-0.3-0.2-0.6-0.3-0.9
		c-0.1-0.3-0.1-0.6-0.2-0.8c-0.1-0.5-0.1-1,0-1.3c0-0.3,0.1-0.5,0.1-0.5s-0.2,0.1-0.4,0.4c-0.2,0.3-0.5,0.7-0.7,1.3
		c-0.1,0.3-0.1,0.6-0.2,1c0,0.4,0,0.7,0.1,1.1C30.4,14.1,30.5,14.3,30.5,14.5z"/>
	<path fill="#F04B36" d="M15.4,14.5l0.1,0.3l0.1,0.1l0,0l0,0c0,0,0-0.1,0,0l0,0l0,0l0,0.1c0.1,0.2,0.2,0.4,0.2,0.5
		c0,0.1,0.1,0.3,0.1,0.4c0.1,0.3,0.1,0.7,0.1,1c0,0.3,0,0.7,0,1c0,0.3-0.1,0.7-0.1,1c0,0.3-0.1,0.6-0.1,0.9c-0.1,0.6-0.1,1-0.2,1.4
		c0,0.3-0.1,0.5-0.1,0.5s0.2-0.1,0.4-0.4c0.2-0.3,0.6-0.7,0.9-1.2c0.3-0.5,0.6-1.2,0.8-1.9c0.2-0.7,0.3-1.6,0.2-2.4
		c0-0.2-0.1-0.5-0.2-0.7c-0.1-0.2-0.2-0.4-0.2-0.6l-0.1-0.2l-0.1-0.1L17,14c-0.1-0.1-0.1-0.3-0.2-0.4c-0.1-0.3-0.2-0.6-0.3-0.9
		c-0.1-0.3-0.1-0.6-0.2-0.8c-0.1-0.5-0.1-1,0-1.3c0-0.3,0.1-0.5,0.1-0.5s-0.2,0.1-0.4,0.4c-0.2,0.3-0.5,0.7-0.7,1.3
		c-0.1,0.3-0.1,0.6-0.2,1c0,0.4,0,0.7,0.1,1.1C15.3,14.1,15.4,14.3,15.4,14.5z"/>
	<path fill="#F04B36" d="M22.5,11.6l0.1,0.4l0.1,0.2l0,0l0,0c0,0-0.1-0.1,0-0.1l0,0l0,0l0,0.1c0.1,0.2,0.2,0.5,0.2,0.7
		c0,0.2,0.1,0.4,0.1,0.6c0.1,0.5,0.1,0.9,0.1,1.4c0,0.5,0,0.9,0,1.4c0,0.5-0.1,0.9-0.1,1.4C23,18.2,23,18.7,22.9,19
		c-0.1,0.8-0.2,1.4-0.3,1.9c-0.1,0.5-0.1,0.7-0.1,0.7s0.2-0.2,0.6-0.6c0.3-0.4,0.8-1,1.2-1.7c0.4-0.7,0.8-1.6,1.1-2.7
		c0.3-1,0.4-2.2,0.2-3.4c0-0.3-0.1-0.6-0.2-0.9c-0.1-0.3-0.2-0.5-0.3-0.8L25,11.4l-0.1-0.2L24.8,11c-0.1-0.2-0.2-0.4-0.3-0.6
		c-0.2-0.4-0.3-0.8-0.4-1.2c-0.1-0.4-0.2-0.8-0.2-1.2c-0.1-0.7-0.1-1.4,0-1.8c0-0.5,0.1-0.7,0.1-0.7S23.6,5.6,23.3,6
		c-0.3,0.4-0.7,1-1,1.9c-0.1,0.4-0.2,0.9-0.2,1.4c0,0.5,0,1,0.2,1.6C22.4,11.1,22.4,11.4,22.5,11.6z"/>
</g>
</svg>
