<?xml version="1.0" encoding="utf-8"?>
<!-- Generator: Adobe Illustrator 18.0.0, SVG Export Plug-In . SVG Version: 6.00 Build 0)  -->
<!DOCTYPE svg PUBLIC "-//W3C//DTD SVG 1.1//EN" "http://www.w3.org/Graphics/SVG/1.1/DTD/svg11.dtd">
<svg version="1.1" id="Layer_1" xmlns="http://www.w3.org/2000/svg" xmlns:xlink="http://www.w3.org/1999/xlink" x="0px" y="0px"
	 viewBox="0 0 48 48" enable-background="new 0 0 48 48" xml:space="preserve">
<g>
	<path fill="#CFD0D1" d="M7.6,33.8h5.8c0.1-2.7-0.3-5.5-1.3-8.1c-2.9,1.4-5.1,3.4-6,5.3l2.1,2.1L7.6,33.8z M10.5,28.7
		c0.7,0,1.2,0.5,1.2,1.2c0,0.7-0.5,1.2-1.2,1.2c-0.7,0-1.2-0.5-1.2-1.2C9.3,29.2,9.8,28.7,10.5,28.7z"/>
	<path fill="#CFD0D1" d="M15,33.8h26.8v-7.7L37,30.9c-2-3.1-8.1-7.4-15.3-7.4c-3,0-5.8,0.6-8.2,1.6c1,2.5,1.5,5.1,1.5,7.7
		C15,33.2,15,33.5,15,33.8z"/>
	<path fill="#F7A93B" d="M27.7,14.5l0.1,0.3l0.1,0.1l0,0l0,0c0,0,0-0.1,0,0l0,0l0,0l0,0.1c0,0.2,0.1,0.3,0.2,0.5
		c0,0.1,0.1,0.2,0.1,0.4c0.1,0.3,0.1,0.6,0.1,0.9c0,0.3,0,0.6,0,0.9c0,0.3-0.1,0.6-0.1,0.9c0,0.3-0.1,0.6-0.1,0.8
		c-0.1,0.5-0.1,1-0.2,1.3c0,0.3-0.1,0.5-0.1,0.5s0.2-0.1,0.4-0.4c0.2-0.3,0.5-0.6,0.8-1.1c0.3-0.5,0.5-1.1,0.7-1.8
		c0.2-0.7,0.3-1.4,0.1-2.2c0-0.2-0.1-0.4-0.1-0.6c-0.1-0.2-0.1-0.3-0.2-0.5l-0.1-0.2l-0.1-0.1l-0.1-0.2c-0.1-0.1-0.1-0.3-0.2-0.4
		c-0.1-0.3-0.2-0.5-0.3-0.8c-0.1-0.3-0.1-0.5-0.2-0.8c-0.1-0.5-0.1-0.9,0-1.2c0-0.3,0.1-0.5,0.1-0.5s-0.2,0.1-0.4,0.4
		c-0.2,0.3-0.5,0.7-0.6,1.2c-0.1,0.3-0.1,0.6-0.1,0.9c0,0.3,0,0.7,0.1,1C27.6,14.2,27.7,14.3,27.7,14.5z"/>
	<path fill="#F7A93B" d="M13.8,14.5l0.1,0.3l0.1,0.1l0,0l0,0c0,0,0-0.1,0,0l0,0l0,0l0,0.1c0,0.2,0.1,0.3,0.2,0.5
		c0,0.1,0.1,0.2,0.1,0.4c0.1,0.3,0.1,0.6,0.1,0.9c0,0.3,0,0.6,0,0.9c0,0.3-0.1,0.6-0.1,0.9c0,0.3-0.1,0.6-0.1,0.8
		c-0.1,0.5-0.1,1-0.2,1.3c0,0.3-0.1,0.5-0.1,0.5s0.2-0.1,0.4-0.4c0.2-0.3,0.5-0.6,0.8-1.1c0.3-0.5,0.5-1.1,0.7-1.8
		c0.2-0.7,0.3-1.4,0.1-2.2c0-0.2-0.1-0.4-0.1-0.6c-0.1-0.2-0.1-0.3-0.2-0.5l-0.1-0.2l-0.1-0.1l-0.1-0.2c-0.1-0.1-0.1-0.3-0.2-0.4
		c-0.1-0.3-0.2-0.5-0.3-0.8c-0.1-0.3-0.1-0.5-0.2-0.8c-0.1-0.5-0.1-0.9,0-1.2c0-0.3,0.1-0.5,0.1-0.5s-0.2,0.1-0.4,0.4
		c-0.2,0.3-0.5,0.7-0.6,1.2c-0.1,0.3-0.1,0.6-0.1,0.9c0,0.3,0,0.7,0.1,1C13.7,14.2,13.7,14.3,13.8,14.5z"/>
	<path fill="#F7A93B" d="M20.4,11.9l0.1,0.4l0.1,0.2l0,0l0,0c0,0-0.1-0.1,0-0.1l0,0l0,0l0,0.1c0.1,0.2,0.2,0.5,0.2,0.7
		c0,0.2,0.1,0.3,0.1,0.6C21,14.2,21,14.6,21,15c0,0.4,0,0.9,0,1.3c0,0.4-0.1,0.9-0.1,1.2c-0.1,0.4-0.1,0.8-0.1,1.1
		c-0.1,0.7-0.2,1.3-0.2,1.8c0,0.4-0.1,0.7-0.1,0.7s0.2-0.2,0.5-0.5c0.3-0.4,0.7-0.9,1.1-1.6c0.4-0.7,0.8-1.5,1-2.5
		c0.3-0.9,0.4-2,0.2-3.1c0-0.3-0.1-0.6-0.2-0.9c-0.1-0.3-0.2-0.5-0.3-0.7l-0.1-0.2l-0.1-0.1l-0.2-0.3c-0.1-0.2-0.2-0.4-0.3-0.6
		c-0.1-0.4-0.3-0.8-0.4-1.1c-0.1-0.4-0.2-0.7-0.2-1.1c-0.1-0.7-0.1-1.3,0-1.7c0-0.4,0.1-0.7,0.1-0.7s-0.2,0.2-0.5,0.5
		c-0.3,0.4-0.7,1-0.9,1.7C20.1,8.8,20,9.2,20,9.7c0,0.5,0,1,0.1,1.4C20.2,11.4,20.3,11.6,20.4,11.9z"/>
	<polygon fill="#E77528" points="43.6,41.9 4.4,41.9 0.5,35.7 47.5,35.7 	"/>
</g>
</svg>
