<?xml version="1.0" encoding="utf-8"?>
<!-- Generator: Adobe Illustrator 18.0.0, SVG Export Plug-In . SVG Version: 6.00 Build 0)  -->
<!DOCTYPE svg PUBLIC "-//W3C//DTD SVG 1.1//EN" "http://www.w3.org/Graphics/SVG/1.1/DTD/svg11.dtd">
<svg version="1.1" id="Layer_1" xmlns="http://www.w3.org/2000/svg" xmlns:xlink="http://www.w3.org/1999/xlink" x="0px" y="0px"
	 viewBox="0 0 48 48" enable-background="new 0 0 48 48" xml:space="preserve">
<g>
	<path fill="#0DB89A" d="M24,16.8c-0.4,0-1.8-0.3-1.8-0.7c0-0.1-1.2-11.6,8.4-15.1c0.5-0.2,1,0.1,1.2,0.5c0.2,0.5-0.1,1-0.5,1.2
		c-8.1,3-5.4,13-5.4,13.1c0.1,0.5-1.1,0.9-1.6,1C24.1,16.8,24,16.8,24,16.8z"/>
	<path fill="#06728D" d="M15.4,17.7c-6.5,1.8-11,5.9-11,12.5c0,6.6,4.4,12.3,10.9,15C8.8,32.8,12.8,22.3,15.4,17.7z"/>
	<path fill="#06728D" d="M32.6,17.7c2.6,4.7,6.6,15.1,0.1,27.6c6.5-2.7,10.9-8.4,10.9-15C43.6,23.6,39.1,19.5,32.6,17.7z"/>
	<path fill="#06728D" d="M30.2,17.1c-1.1-0.2-2.3-0.3-3.5-0.4c0,0.1,0,0.1,0,0.2c0,1-1.2,1.7-2.7,1.7c-1.5,0-2.7-0.8-2.7-1.7
		c0-0.1,0-0.1,0-0.2c-1.2,0.1-2.4,0.2-3.5,0.4c-2.2,3.3-8.5,14.7,0.1,29c1.9,0.5,4,0.8,6.1,0.8c2.1,0,4.2-0.3,6.1-0.8
		C38.7,31.8,32.4,20.4,30.2,17.1z"/>
</g>
</svg>
