<?xml version="1.0" encoding="utf-8"?>
<!-- Generator: Adobe Illustrator 18.0.0, SVG Export Plug-In . SVG Version: 6.00 Build 0)  -->
<!DOCTYPE svg PUBLIC "-//W3C//DTD SVG 1.1//EN" "http://www.w3.org/Graphics/SVG/1.1/DTD/svg11.dtd">
<svg version="1.1" id="Layer_1" xmlns="http://www.w3.org/2000/svg" xmlns:xlink="http://www.w3.org/1999/xlink" x="0px" y="0px"
	 viewBox="0 0 48 48" enable-background="new 0 0 48 48" xml:space="preserve">
<g>
	<path fill="#E8E9E5" d="M24,1c-6.4,0-11.6,6.5-11.6,14.5h23.3C35.6,7.5,30.4,1,24,1z"/>
	<path fill="#F04B36" d="M24.7,36.4C32.1,36,38,28.4,38,19H10c0,9.1,5.6,16.5,12.7,17.4V45v0h-4.1c-0.5,0-1,0.4-1,1c0,0.5,0.4,1,1,1
		h10.1c0.5,0,1-0.4,1-1c0-0.5-0.4-1-1-1h-4.1v0V36.4z"/>
</g>
</svg>
