<?xml version="1.0" encoding="utf-8"?>
<!-- Generator: Adobe Illustrator 18.0.0, SVG Export Plug-In . SVG Version: 6.00 Build 0)  -->
<!DOCTYPE svg PUBLIC "-//W3C//DTD SVG 1.1//EN" "http://www.w3.org/Graphics/SVG/1.1/DTD/svg11.dtd">
<svg version="1.1" id="Layer_1" xmlns="http://www.w3.org/2000/svg" xmlns:xlink="http://www.w3.org/1999/xlink" x="0px" y="0px"
	 viewBox="0 0 48 48" enable-background="new 0 0 48 48" xml:space="preserve">
<g>
	<path fill="#E77528" d="M27.9,8.8c-3.2-2.9-6.7-5-10.2-6.3c-1.2,3.8-3.1,7.4-5.5,10.4c-2.4,3-5.3,5.5-8.5,7.4c1.7,3.5,4,7,7.2,9.9
		c9.4,8.7,22.9,8.4,25.5,5C39.2,32,37.4,17.5,27.9,8.8z"/>
	<path fill="#E77528" d="M15.7,1.9C11.3,0.6,7.2,0.7,4.5,2.1l0.3,4.6L1.2,7c-0.5,3,0.1,7.1,1.7,11.3C8.9,14.7,13.5,8.9,15.7,1.9z
		 M9,6.4C8.3,5.8,8.2,4.6,8.8,3.9c0.6-0.8,1.7-0.9,2.4-0.2c0.7,0.6,0.8,1.8,0.2,2.6S9.7,7.1,9,6.4z"/>
	<polygon fill="#E77528" points="33.8,32.7 34.9,47 47,31.6 	"/>
</g>
</svg>
