<?xml version="1.0" encoding="utf-8"?>
<!-- Generator: Adobe Illustrator 18.0.0, SVG Export Plug-In . SVG Version: 6.00 Build 0)  -->
<!DOCTYPE svg PUBLIC "-//W3C//DTD SVG 1.1//EN" "http://www.w3.org/Graphics/SVG/1.1/DTD/svg11.dtd">
<svg version="1.1" id="Layer_1" xmlns="http://www.w3.org/2000/svg" xmlns:xlink="http://www.w3.org/1999/xlink" x="0px" y="0px"
	 viewBox="0 0 48 48" enable-background="new 0 0 48 48" xml:space="preserve">
<g>
	<path fill="#F04B36" d="M32.3,40.9c-0.2-0.5-0.7-0.8-1.2-0.8h-6H23h-6c-0.5,0-1,0.3-1.2,0.8l-1.6,3.6c-0.3,0.7,0,1.5,0.7,1.8
		c0.2,0.1,0.4,0.1,0.5,0.1c0.5,0,1-0.3,1.2-0.8l1.2-2.8H23H25h5.2l1.2,2.8c0.2,0.5,0.7,0.8,1.2,0.8c0.2,0,0.4,0,0.5-0.1
		c0.7-0.3,1-1.1,0.7-1.8L32.3,40.9z"/>
	<path fill="#F7A93B" d="M24,15.6c-0.5,0-1,0.4-1,1v5.2c0,0.5,0.4,1,1,1c0.5,0,1-0.4,1-1v-5.2C25,16.1,24.5,15.6,24,15.6z"/>
	<path fill="#F7A93B" d="M20.2,15.6c-0.5,0-1,0.4-1,1v5.2c0,0.5,0.4,1,1,1c0.5,0,1-0.4,1-1v-5.2C21.2,16.1,20.7,15.6,20.2,15.6z"/>
	<path fill="#F7A93B" d="M16.4,16.1c-0.5,0-1,0.4-1,1v4.2c0,0.5,0.4,1,1,1c0.5,0,1-0.4,1-1v-4.2C17.3,16.5,16.9,16.1,16.4,16.1z"/>
	<path fill="#F7A93B" d="M12.5,16.6c-0.5,0-1,0.4-1,1v3.1c0,0.5,0.4,1,1,1c0.5,0,1-0.4,1-1v-3.1C13.5,17.1,13.1,16.6,12.5,16.6z"/>
	<path fill="#F7A93B" d="M27.8,15.6c-0.5,0-1,0.4-1,1v5.2c0,0.5,0.4,1,1,1c0.5,0,1-0.4,1-1v-5.2C28.8,16.1,28.4,15.6,27.8,15.6z"/>
	<path fill="#F7A93B" d="M31.6,16.1c-0.5,0-1,0.4-1,1v4.2c0,0.5,0.4,1,1,1c0.5,0,1-0.4,1-1v-4.2C32.6,16.5,32.2,16.1,31.6,16.1z"/>
	<path fill="#F7A93B" d="M35.5,16.6c-0.5,0-1,0.4-1,1v3.1c0,0.5,0.4,1,1,1c0.5,0,1-0.4,1-1v-3.1C36.4,17.1,36,16.6,35.5,16.6z"/>
	<path fill="#F7A93B" d="M27.8,10.4c0.5,0,1-0.4,1-1V5.1c0-0.5-0.4-1-1-1c-0.5,0-1,0.4-1,1v4.3C26.8,10,27.3,10.4,27.8,10.4z"/>
	<path fill="#F7A93B" d="M24,10.4c0.5,0,1-0.4,1-1V2.7c0-0.5-0.4-1-1-1c-0.5,0-1,0.4-1,1v6.8C23,10,23.5,10.4,24,10.4z"/>
	<path fill="#F7A93B" d="M20.2,10.4c0.5,0,1-0.4,1-1V5.1c0-0.5-0.4-1-1-1c-0.5,0-1,0.4-1,1v4.3C19.2,10,19.7,10.4,20.2,10.4z"/>
	<path fill="#294E58" d="M47.3,22.1c-0.3-1.4-1-2.3-2.1-2.6c-0.2-0.1-0.5-0.1-0.7-0.1c-0.7,0-1.3,0.3-2,0.7c0.1-0.3,0.2-0.6,0.2-0.9
		c0-4.5-9.7-7-18.8-7c-9.1,0-18.8,2.5-18.8,7c0,0.3,0.1,0.6,0.2,1c-0.6-0.5-1.3-0.8-2-0.8c-0.2,0-0.5,0-0.7,0.1
		c-1,0.3-1.8,1.2-2.1,2.6c-0.3,1.2-0.2,2.5,0.2,3.9c0.8,2.7,2.6,4.5,4.4,4.5c0.2,0,0.5,0,0.7-0.1c0.8-0.2,1.4-0.8,1.8-1.6
		c3.3,5.6,9.4,9.3,16.3,9.3c6.9,0,13.1-3.7,16.3-9.3c0.4,0.8,1,1.4,1.8,1.6c0.2,0.1,0.5,0.1,0.7,0.1h0c1.8,0,3.6-1.9,4.4-4.5
		C47.5,24.6,47.6,23.2,47.3,22.1z M5.4,28.5c-0.6,0.2-2-0.9-2.6-3.1c-0.3-1-0.4-2.1-0.2-2.9c0.1-0.6,0.4-1,0.7-1.1c0,0,0.1,0,0.2,0
		c0.6,0,1.8,1,2.4,3c0,0.1,0.1,0.2,0.1,0.3C6.5,26.7,6,28.3,5.4,28.5z M24,24.2c-10.4,0-16.8-2.9-16.8-5c0-2.1,6.4-5,16.8-5
		c10.4,0,16.8,2.9,16.8,5C40.8,21.3,34.4,24.2,24,24.2z M45.3,25.4c-0.6,2.2-2,3.3-2.6,3.1c-0.6-0.2-1.1-1.8-0.6-3.8
		c0.1-0.2,0.1-0.3,0.2-0.5c0.6-1.8,1.8-2.8,2.4-2.8c0.1,0,0.1,0,0.2,0c0.3,0.1,0.6,0.5,0.7,1.1C45.6,23.3,45.6,24.4,45.3,25.4z"/>
</g>
</svg>
