<?xml version="1.0" encoding="utf-8"?>
<!-- Generator: Adobe Illustrator 18.0.0, SVG Export Plug-In . SVG Version: 6.00 Build 0)  -->
<!DOCTYPE svg PUBLIC "-//W3C//DTD SVG 1.1//EN" "http://www.w3.org/Graphics/SVG/1.1/DTD/svg11.dtd">
<svg version="1.1" id="Layer_1" xmlns="http://www.w3.org/2000/svg" xmlns:xlink="http://www.w3.org/1999/xlink" x="0px" y="0px"
	 viewBox="0 0 48 48" enable-background="new 0 0 48 48" xml:space="preserve">
<g>
	
		<rect x="36.3" y="9.7" transform="matrix(-0.7072 -0.7071 0.7071 -0.7072 51.6021 55.3651)" fill="none" width="1.9" height="14.6"/>
	<rect x="26.8" y="12.9" transform="matrix(0.7071 -0.7071 0.7071 0.7071 0.1937 28.1976)" fill="none" width="14.6" height="1.9"/>
	<rect x="23.7" y="9.8" transform="matrix(0.7071 -0.7071 0.7071 0.7071 1.4909 25.0663)" fill="none" width="14.6" height="1.9"/>
	<path fill="#06728D" d="M16.3,28.6c-0.6-0.6-1.5-0.6-2,0L1.4,41.5c-0.6,0.6-0.6,1.5,0,2l3.1,3.1c0.6,0.6,1.5,0.6,2,0l12.9-12.9
		c0.6-0.6,0.6-1.5,0-2l-0.6-0.6l-1.9-1.9L16.3,28.6z"/>
	<path fill="#CFD0D1" d="M46.1,10.6l-8.7-8.7c-1.2-1.2-3.2-1.2-4.4,0.1L22.9,13.3c-1.1,1.2-1,3,0.1,4.1l2.8,2.8l-8.9,8.9l1.9,1.9
		l8.9-8.9l2.8,2.8c1.1,1.1,3,1.2,4.1,0.1L46,14.9C47.3,13.8,47.3,11.8,46.1,10.6z M26.5,16.6l-1.4-1.4L35.5,4.9l1.4,1.4L26.5,16.6z
		 M29.7,19.7l-1.4-1.4L38.6,8L40,9.4L29.7,19.7z M32.8,22.8l-1.4-1.4l10.3-10.3l1.4,1.4L32.8,22.8z"/>
</g>
</svg>
