<?xml version="1.0" encoding="utf-8"?>
<!-- Generator: Adobe Illustrator 18.0.0, SVG Export Plug-In . SVG Version: 6.00 Build 0)  -->
<!DOCTYPE svg PUBLIC "-//W3C//DTD SVG 1.1//EN" "http://www.w3.org/Graphics/SVG/1.1/DTD/svg11.dtd">
<svg version="1.1" id="Layer_1" xmlns="http://www.w3.org/2000/svg" xmlns:xlink="http://www.w3.org/1999/xlink" x="0px" y="0px"
	 viewBox="0 0 48 48" enable-background="new 0 0 48 48" xml:space="preserve">
<g>
	<path fill="#E77528" d="M24.1,12.7C11.9,12.7,2,17.4,2,23.1c0,5.8,9.9,10.4,22.1,10.4c12.2,0,22.1-4.7,22.1-10.4
		C46.3,17.4,36.4,12.7,24.1,12.7z M15.4,23.2c-1.5,0-2.8-1.2-2.8-2.8c0-1.5,1.2-2.8,2.8-2.8s2.8,1.2,2.8,2.8
		C18.2,22,17,23.2,15.4,23.2z M33.2,22.4c-1.3,0-2.4-1.1-2.4-2.4c0-1.3,1.1-2.4,2.4-2.4c1.3,0,2.4,1.1,2.4,2.4
		C35.6,21.3,34.6,22.4,33.2,22.4z"/>
	<path fill="#F04B36" d="M9.1,41.8c-0.4-0.4-0.5-1.1-0.1-1.5c0.4-0.4,1.1-0.5,1.5-0.1c0,0,1.8,1.7,4.6,2.9c0-0.1,0.1-0.1,0.1-0.1
		c0.6-2.1-1.1-4.4-3.8-5.3c-2.8-0.9-5.5,0.1-6.2,2.2c-0.6,2.1,1.1,4.4,3.8,5.3c1.7,0.5,3.5,0.4,4.7-0.4C11,43.4,9.2,41.9,9.1,41.8z"
		/>
	<path fill="#F04B36" d="M5.1,41c0,0,0,0-0.1-0.1c-0.1-0.1-0.3-0.2-0.4-0.4c-0.3-0.3-0.8-0.8-1.2-1.5c-0.5-0.6-1-1.4-1.5-2.3
		c-0.2-0.4-0.4-0.9-0.6-1.4c-0.2-0.5-0.3-1-0.5-1.6c-0.1-0.6-0.2-1.1-0.2-1.7c0-0.6,0-1.1,0.1-1.6c0-0.3,0.1-0.5,0.1-0.8
		C0.8,29.4,0.9,29.2,1,29c0.1-0.2,0.2-0.4,0.2-0.7c0.1-0.2,0.2-0.4,0.3-0.6c0.2-0.3,0.4-0.7,0.6-0.9c0.2-0.2,0.4-0.5,0.5-0.6
		c0.3-0.3,0.5-0.5,0.5-0.5c0.4-0.4,1-0.5,1.5-0.1c0.4,0.3,0.5,0.9,0.2,1.4L4.7,27c0,0-0.1,0.2-0.3,0.5c-0.1,0.2-0.2,0.3-0.3,0.6
		c-0.1,0.2-0.2,0.5-0.3,0.8c-0.1,0.1-0.1,0.3-0.2,0.4c0,0.2-0.1,0.3-0.1,0.5c0,0.2-0.1,0.3-0.1,0.5c0,0.2,0,0.3,0,0.5
		c0,0.3,0,0.7,0.1,1.1c0,0.4,0.2,0.7,0.3,1.1c0.2,0.4,0.3,0.7,0.5,1c0.2,0.3,0.4,0.7,0.6,1c0.4,0.6,0.9,1.1,1.4,1.6
		c0.4,0.4,0.8,0.8,1.1,1c0.1,0.1,0.2,0.2,0.3,0.2c0.1,0.1,0.1,0.1,0.1,0.1l0,0c0.9,0.7,1.1,2,0.5,2.9c-0.7,0.9-2,1.1-2.9,0.5
		C5.2,41.1,5.2,41,5.1,41z"/>
	<path fill="#F04B36" d="M38.9,41.8c0.4-0.4,0.5-1.1,0.1-1.5c-0.4-0.4-1.1-0.5-1.5-0.1c0,0-1.8,1.7-4.6,2.9c0-0.1-0.1-0.1-0.1-0.1
		c-0.6-2.1,1.1-4.4,3.8-5.3c2.8-0.9,5.5,0.1,6.2,2.2c0.6,2.1-1.1,4.4-3.8,5.3c-1.7,0.5-3.5,0.4-4.7-0.4C37,43.4,38.8,41.9,38.9,41.8
		z"/>
	<path fill="#F04B36" d="M42.9,41c0,0,0,0,0.1-0.1c0.1-0.1,0.3-0.2,0.4-0.4c0.3-0.3,0.8-0.8,1.2-1.5c0.5-0.6,1-1.4,1.5-2.3
		c0.2-0.4,0.4-0.9,0.6-1.4c0.2-0.5,0.3-1,0.5-1.6c0.1-0.6,0.2-1.1,0.2-1.7c0-0.6,0-1.1-0.1-1.6c0-0.3-0.1-0.5-0.1-0.8
		c-0.1-0.2-0.2-0.5-0.2-0.7c-0.1-0.2-0.2-0.4-0.2-0.7c-0.1-0.2-0.2-0.4-0.3-0.6c-0.2-0.3-0.4-0.7-0.6-0.9c-0.2-0.2-0.4-0.5-0.5-0.6
		c-0.3-0.3-0.5-0.5-0.5-0.5c-0.4-0.4-1-0.5-1.5-0.1c-0.4,0.3-0.5,0.9-0.2,1.4l0.1,0.2c0,0,0.1,0.2,0.3,0.5c0.1,0.2,0.2,0.3,0.3,0.6
		c0.1,0.2,0.2,0.5,0.3,0.8c0.1,0.1,0.1,0.3,0.2,0.4c0,0.2,0.1,0.3,0.1,0.5c0,0.2,0.1,0.3,0.1,0.5c0,0.2,0,0.3,0,0.5
		c0,0.3,0,0.7-0.1,1.1c0,0.4-0.2,0.7-0.3,1.1c-0.2,0.4-0.3,0.7-0.5,1c-0.2,0.3-0.4,0.7-0.6,1c-0.4,0.6-0.9,1.1-1.4,1.6
		c-0.4,0.4-0.8,0.8-1.1,1c-0.1,0.1-0.2,0.2-0.3,0.2c-0.1,0.1-0.1,0.1-0.1,0.1l0,0c-0.9,0.7-1.1,2-0.5,2.9c0.7,0.9,2,1.1,2.9,0.5
		C42.8,41.1,42.8,41,42.9,41z"/>
	<path fill="#F04B36" d="M9.1,6.2C8.7,6.6,8.7,7.3,9,7.7c0.4,0.4,1.1,0.5,1.5,0.1c0,0,1.8-1.7,4.6-2.9c0,0.1,0.1,0.1,0.1,0.1
		c0.6,2.1-1.1,4.4-3.8,5.3c-2.8,0.9-5.5-0.1-6.2-2.2C4.5,6.1,6.2,3.7,9,2.9c1.7-0.5,3.5-0.4,4.7,0.4C11,4.6,9.2,6.1,9.1,6.2z"/>
	<path fill="#F04B36" d="M5.1,7c0,0,0,0-0.1,0.1C4.9,7.3,4.7,7.4,4.5,7.6C4.2,7.9,3.8,8.4,3.3,9c-0.5,0.6-1,1.4-1.5,2.3
		c-0.2,0.4-0.4,0.9-0.6,1.4c-0.2,0.5-0.3,1-0.5,1.6c-0.1,0.6-0.2,1.1-0.2,1.7c0,0.6,0,1.1,0.1,1.6c0,0.3,0.1,0.5,0.1,0.8
		C0.8,18.6,0.9,18.8,1,19c0.1,0.2,0.2,0.4,0.2,0.7c0.1,0.2,0.2,0.4,0.3,0.6c0.2,0.3,0.4,0.7,0.6,0.9c0.2,0.2,0.4,0.5,0.5,0.6
		c0.3,0.3,0.5,0.5,0.5,0.5c0.4,0.4,1,0.5,1.5,0.1c0.4-0.3,0.5-0.9,0.2-1.4L4.7,21c0,0-0.1-0.2-0.3-0.5c-0.1-0.2-0.2-0.3-0.3-0.6
		c-0.1-0.2-0.2-0.5-0.3-0.8c-0.1-0.1-0.1-0.3-0.2-0.4c0-0.2-0.1-0.3-0.1-0.5c0-0.2-0.1-0.3-0.1-0.5c0-0.2,0-0.3,0-0.5
		c0-0.3,0-0.7,0.1-1.1c0-0.4,0.2-0.7,0.3-1.1c0.2-0.4,0.3-0.7,0.5-1c0.2-0.3,0.4-0.7,0.6-1c0.4-0.6,0.9-1.1,1.4-1.6
		c0.4-0.4,0.8-0.8,1.1-1c0.1-0.1,0.2-0.2,0.3-0.2c0.1-0.1,0.1-0.1,0.1-0.1l0,0c0.9-0.7,1.1-2,0.5-2.9c-0.7-0.9-2-1.1-2.9-0.5
		C5.2,6.9,5.2,7,5.1,7z"/>
	<path fill="#F04B36" d="M38.9,6.2c0.4,0.4,0.5,1.1,0.1,1.5c-0.4,0.4-1.1,0.5-1.5,0.1c0,0-1.8-1.7-4.6-2.9c0,0.1-0.1,0.1-0.1,0.1
		c-0.6,2.1,1.1,4.4,3.8,5.3c2.8,0.9,5.5-0.1,6.2-2.2c0.6-2.1-1.1-4.4-3.8-5.3c-1.7-0.5-3.5-0.4-4.7,0.4C37,4.6,38.8,6.1,38.9,6.2z"
		/>
	<path fill="#F04B36" d="M42.9,7c0,0,0,0,0.1,0.1c0.1,0.1,0.3,0.2,0.4,0.4c0.3,0.3,0.8,0.8,1.2,1.5c0.5,0.6,1,1.4,1.5,2.3
		c0.2,0.4,0.4,0.9,0.6,1.4c0.2,0.5,0.3,1,0.5,1.6c0.1,0.6,0.2,1.1,0.2,1.7c0,0.6,0,1.1-0.1,1.6c0,0.3-0.1,0.5-0.1,0.8
		c-0.1,0.2-0.2,0.5-0.2,0.7c-0.1,0.2-0.2,0.4-0.2,0.7c-0.1,0.2-0.2,0.4-0.3,0.6c-0.2,0.3-0.4,0.7-0.6,0.9c-0.2,0.2-0.4,0.5-0.5,0.6
		c-0.3,0.3-0.5,0.5-0.5,0.5c-0.4,0.4-1,0.5-1.5,0.1c-0.4-0.3-0.5-0.9-0.2-1.4l0.1-0.2c0,0,0.1-0.2,0.3-0.5c0.1-0.2,0.2-0.3,0.3-0.6
		c0.1-0.2,0.2-0.5,0.3-0.8c0.1-0.1,0.1-0.3,0.2-0.4c0-0.2,0.1-0.3,0.1-0.5c0-0.2,0.1-0.3,0.1-0.5c0-0.2,0-0.3,0-0.5
		c0-0.3,0-0.7-0.1-1.1c0-0.4-0.2-0.7-0.3-1.1c-0.2-0.4-0.3-0.7-0.5-1c-0.2-0.3-0.4-0.7-0.6-1c-0.4-0.6-0.9-1.1-1.4-1.6
		c-0.4-0.4-0.8-0.8-1.1-1c-0.1-0.1-0.2-0.2-0.3-0.2c-0.1-0.1-0.1-0.1-0.1-0.1l0,0c-0.9-0.7-1.1-2-0.5-2.9c0.7-0.9,2-1.1,2.9-0.5
		C42.8,6.9,42.8,7,42.9,7z"/>
</g>
</svg>
