<?xml version="1.0" encoding="utf-8"?>
<!-- Generator: Adobe Illustrator 18.0.0, SVG Export Plug-In . SVG Version: 6.00 Build 0)  -->
<!DOCTYPE svg PUBLIC "-//W3C//DTD SVG 1.1//EN" "http://www.w3.org/Graphics/SVG/1.1/DTD/svg11.dtd">
<svg version="1.1" id="Layer_1" xmlns="http://www.w3.org/2000/svg" xmlns:xlink="http://www.w3.org/1999/xlink" x="0px" y="0px"
	 viewBox="0 0 48 48" enable-background="new 0 0 48 48" xml:space="preserve">
<g>
	<path fill="#F04B36" d="M14.4,13.4l0.1,0.3l0.1,0.1l0,0l0,0c0,0,0-0.1,0,0l0,0l0,0l0,0.1c0.1,0.2,0.1,0.4,0.2,0.5
		c0,0.1,0.1,0.3,0.1,0.4c0.1,0.3,0.1,0.6,0.1,0.9c0,0.3,0,0.6,0,1c0,0.3-0.1,0.6-0.1,0.9c0,0.3-0.1,0.6-0.1,0.8
		c-0.1,0.5-0.1,1-0.2,1.3c0,0.3-0.1,0.5-0.1,0.5s0.2-0.1,0.4-0.4c0.2-0.3,0.5-0.7,0.8-1.2c0.3-0.5,0.6-1.1,0.8-1.8
		c0.2-0.7,0.3-1.5,0.2-2.3c0-0.2-0.1-0.4-0.2-0.6c-0.1-0.2-0.1-0.3-0.2-0.5l-0.1-0.2L16,13.2l-0.1-0.2c-0.1-0.1-0.1-0.3-0.2-0.4
		c-0.1-0.3-0.2-0.6-0.3-0.8c-0.1-0.3-0.1-0.5-0.2-0.8c-0.1-0.5-0.1-0.9,0-1.2c0-0.3,0.1-0.5,0.1-0.5s-0.2,0.1-0.4,0.4
		c-0.2,0.3-0.5,0.7-0.7,1.3c-0.1,0.3-0.1,0.6-0.1,0.9c0,0.3,0,0.7,0.1,1.1C14.3,13,14.3,13.2,14.4,13.4z"/>
	<ellipse fill="#CFD0D1" cx="22" cy="40" rx="10" ry="3.3"/>
	<path fill="#E77528" d="M1.6,28.9l43.1-12c1-0.3,2,0.3,2.2,1.3c0.3,1-0.3,2-1.3,2.2c0,0-0.1,0-0.1,0L2,30.5c-0.4,0.1-0.9-0.2-1-0.6
		C0.9,29.4,1.2,29,1.6,28.9z"/>
	<path fill="#294E58" d="M15.4,23.4l0.3-0.2H4.1c0,1.1,0.1,2.2,0.3,3.3L15.4,23.4z"/>
	<path fill="#294E58" d="M17.4,28.6l-9.8,5.2c3.3,4.4,8.5,7.3,14.4,7.3c9.8,0,17.8-7.9,17.9-17.7L17.4,28.6z"/>
	<path fill="#F04B36" d="M21.1,10.7l0.1,0.4l0.1,0.2l0,0l0,0c0,0-0.1-0.1,0-0.1l0,0l0,0l0,0.1c0.1,0.2,0.2,0.5,0.2,0.7
		c0,0.2,0.1,0.4,0.1,0.6c0.1,0.4,0.1,0.9,0.1,1.3c0,0.4,0,0.9,0,1.3c0,0.4-0.1,0.9-0.1,1.3c-0.1,0.4-0.1,0.8-0.1,1.2
		c-0.1,0.8-0.2,1.4-0.2,1.8c0,0.1,0,0.3,0,0.4l0.6-0.4c0.3-0.4,0.7-0.9,1-1.5c0.4-0.7,0.8-1.6,1.1-2.5c0.3-1,0.4-2.1,0.2-3.2
		c0-0.3-0.1-0.6-0.2-0.9c-0.1-0.3-0.2-0.5-0.3-0.7l-0.1-0.2l-0.1-0.2L23.3,10c-0.1-0.2-0.2-0.4-0.3-0.6c-0.2-0.4-0.3-0.8-0.4-1.2
		c-0.1-0.4-0.2-0.8-0.2-1.1c-0.1-0.7-0.1-1.3,0-1.7c0-0.4,0.1-0.7,0.1-0.7s-0.2,0.2-0.6,0.6c-0.3,0.4-0.7,1-0.9,1.8
		c-0.1,0.4-0.2,0.8-0.2,1.3c0,0.5,0,1,0.1,1.5C21,10.1,21,10.4,21.1,10.7z"/>
	<path fill="#F04B36" d="M28.8,13.4l0.1,0.3l0.1,0.1l0,0l0,0c0,0,0-0.1,0,0l0,0l0,0l0,0.1c0.1,0.2,0.1,0.4,0.2,0.5
		c0,0.1,0.1,0.3,0.1,0.4c0,0.1,0,0.2,0,0.4l1.6-1c0-0.1,0-0.2-0.1-0.2c-0.1-0.2-0.1-0.3-0.2-0.5l-0.1-0.2l-0.1-0.1l-0.1-0.2
		c-0.1-0.1-0.1-0.3-0.2-0.4c-0.1-0.3-0.2-0.6-0.3-0.8c-0.1-0.3-0.1-0.5-0.2-0.8c-0.1-0.5-0.1-0.9,0-1.2c0-0.3,0.1-0.5,0.1-0.5
		s-0.2,0.1-0.4,0.4c-0.2,0.3-0.5,0.7-0.7,1.3c-0.1,0.3-0.1,0.6-0.1,0.9c0,0.3,0,0.7,0.1,1.1C28.7,13,28.7,13.2,28.8,13.4z"/>
	<path fill="#E77528" d="M3.6,32.3L42,9.4c0.9-0.5,2-0.2,2.5,0.6c0.5,0.9,0.2,2-0.6,2.5c0,0-0.1,0-0.1,0L4.4,33.7
		c-0.4,0.2-0.9,0.1-1.1-0.3C3.1,33,3.2,32.5,3.6,32.3z"/>
</g>
</svg>
