<?xml version="1.0" encoding="utf-8"?>
<!-- Generator: Adobe Illustrator 18.0.0, SVG Export Plug-In . SVG Version: 6.00 Build 0)  -->
<!DOCTYPE svg PUBLIC "-//W3C//DTD SVG 1.1//EN" "http://www.w3.org/Graphics/SVG/1.1/DTD/svg11.dtd">
<svg version="1.1" id="Layer_1" xmlns="http://www.w3.org/2000/svg" xmlns:xlink="http://www.w3.org/1999/xlink" x="0px" y="0px"
	 viewBox="0 0 48 48" enable-background="new 0 0 48 48" xml:space="preserve">
<g>
	<line fill="#F04B36" x1="39" y1="7.2" x2="39" y2="16.2"/>
	<path fill="#F04B36" d="M39,17.2c-0.6,0-1-0.4-1-1v-9c0-0.6,0.4-1,1-1c0.6,0,1,0.4,1,1v9C40,16.8,39.6,17.2,39,17.2z"/>
	<path fill="#F7A93B" d="M39,5.1c2.2-2.2,0.1-4,0-4.1v0c0,0,0,0,0,0c0,0,0,0,0,0v0C38.8,1.1,36.7,2.9,39,5.1L39,5.1
		C39,5.1,39,5.1,39,5.1C39,5.1,39,5.1,39,5.1L39,5.1z"/>
	<line fill="#F04B36" x1="29" y1="7.2" x2="29" y2="16.2"/>
	<path fill="#F04B36" d="M29,17.2c-0.6,0-1-0.4-1-1v-9c0-0.6,0.4-1,1-1c0.6,0,1,0.4,1,1v9C30,16.8,29.6,17.2,29,17.2z"/>
	<path fill="#F7A93B" d="M29,5.1c2.2-2.2,0.1-4,0-4.1v0c0,0,0,0,0,0c0,0,0,0,0,0v0C28.9,1.1,26.8,2.9,29,5.1L29,5.1
		C29,5.1,29,5.1,29,5.1C29,5.1,29,5.1,29,5.1L29,5.1z"/>
	<line fill="#F04B36" x1="19.1" y1="7.2" x2="19.1" y2="16.2"/>
	<path fill="#F04B36" d="M19.1,17.2c-0.6,0-1-0.4-1-1v-9c0-0.6,0.4-1,1-1c0.6,0,1,0.4,1,1v9C20.1,16.8,19.6,17.2,19.1,17.2z"/>
	<path fill="#F7A93B" d="M19,5.1c2.2-2.2,0.1-4,0-4.1v0c0,0,0,0,0,0c0,0,0,0,0,0v0C18.9,1.1,16.8,2.9,19,5.1L19,5.1
		C19,5.1,19,5.1,19,5.1C19,5.1,19,5.1,19,5.1L19,5.1z"/>
	<line fill="#F04B36" x1="9.1" y1="7.2" x2="9.1" y2="16.2"/>
	<path fill="#F04B36" d="M9.1,17.2c-0.6,0-1-0.4-1-1v-9c0-0.6,0.4-1,1-1c0.6,0,1,0.4,1,1v9C10.1,16.8,9.6,17.2,9.1,17.2z"/>
	<path fill="#F7A93B" d="M9,5.1c2.2-2.2,0.1-4,0-4.1v0c0,0,0,0,0,0c0,0,0,0,0,0v0C8.9,1.1,6.8,2.9,9,5.1L9,5.1C9,5.1,9,5.1,9,5.1
		C9,5.1,9,5.1,9,5.1L9,5.1z"/>
	<path fill="#0DB89A" d="M3.9,17.8c0.7,1.9,2.1,4.1,4.2,4.2c1.4,0.1,2.7-0.7,4.1-1.5c1.4-0.8,2.8-1.7,4.5-1.8
		c0.9-0.1,1.6,0.1,2.1,0.6c0.3,0.3,0.5,0.6,0.6,0.8c0,0.1,0.1,0.2,0.1,0.2c0.6,0.9,2.3,0.5,2.9,0.3c2.1-0.5,4-1.4,5.8-2.5
		c0.7-0.4,2.1-1.3,3.5-0.6c0.4,0.2,0.6,0.4,0.8,0.6c1.5,1.5,3.5,2.3,5.5,2.3c0.7,0,1.2-0.1,1.6-0.3c0.6-0.3,1.1-0.7,1.7-1.3
		c0.7-0.6,1.4-1.3,2.4-1.7c0.8-0.3,1.7-0.4,2.5-0.4c0.4,0,0.8-0.1,1.2-0.1v-0.4c0-1-0.8-1.8-1.8-1.8H3.2C3.3,15.7,3.6,16.7,3.9,17.8
		z"/>
	<path fill="#4DA0D8" d="M0.6,45.2c0,1,0.8,1.8,1.8,1.8h43.1c1,0,1.8-0.8,1.8-1.8V31.9H0.6V45.2z"/>
	<path fill="#E77528" d="M46.3,18.9c-0.7,0-1.3,0.1-1.9,0.3c-0.6,0.2-1.2,0.7-1.8,1.3c-0.7,0.6-1.4,1.3-2.3,1.6
		c-0.7,0.3-1.5,0.4-2.4,0.4c-2.5,0-5-1-6.8-2.8l-0.1-0.1c-0.1-0.1-0.3-0.2-0.3-0.3c-0.3-0.2-1.1,0.3-1.5,0.5c-2,1.2-4.1,2.1-6.4,2.7
		c-2.3,0.6-4.2,0.2-5.1-1.2c-0.1-0.1-0.2-0.3-0.2-0.4c-0.1-0.1-0.1-0.2-0.2-0.3c0,0-0.2-0.1-0.5,0c-1.2,0.1-2.4,0.8-3.6,1.5
		c-1.5,0.9-3,1.8-4.8,1.8c-0.1,0-0.3,0-0.4,0c-3-0.2-5-3-5.9-5.6c-0.4-1.1-0.6-2.2-0.8-3.4c-0.4,0.3-0.6,0.8-0.6,1.3v12h46.7v-9.6
		C47,18.8,46.6,18.8,46.3,18.9z"/>
</g>
</svg>
