<?xml version="1.0" encoding="utf-8"?>
<!-- Generator: Adobe Illustrator 18.0.0, SVG Export Plug-In . SVG Version: 6.00 Build 0)  -->
<!DOCTYPE svg PUBLIC "-//W3C//DTD SVG 1.1//EN" "http://www.w3.org/Graphics/SVG/1.1/DTD/svg11.dtd">
<svg version="1.1" id="Layer_1" xmlns="http://www.w3.org/2000/svg" xmlns:xlink="http://www.w3.org/1999/xlink" x="0px" y="0px"
	 viewBox="0 0 48 48" enable-background="new 0 0 48 48" xml:space="preserve">
<g>
	<path fill="#F7A93B" d="M0.5,36.4C0.6,39.5,11.1,42,24,42c12.9,0,23.4-2.5,23.5-5.6H0.5z"/>
	<path fill="#E77528" d="M28.1,12.3l0.1,0.2l0,0.1l0,0l0,0c0,0,0-0.1,0,0l0,0l0,0l0,0c0,0.1,0.1,0.3,0.1,0.4c0,0.1,0,0.2,0.1,0.3
		c0,0.2,0,0.5,0.1,0.7c0,0.2,0,0.5,0,0.7c0,0.2,0,0.5-0.1,0.7c0,0.2-0.1,0.4-0.1,0.6c-0.1,0.4-0.1,0.7-0.1,0.9c0,0.2,0,0.4,0,0.4
		s0.1-0.1,0.3-0.3c0.2-0.2,0.4-0.5,0.6-0.8c0.2-0.4,0.4-0.8,0.5-1.3c0.1-0.5,0.2-1.1,0.1-1.6c0-0.1-0.1-0.3-0.1-0.5
		c0-0.2-0.1-0.3-0.2-0.4l-0.1-0.1l0-0.1L29.2,12c-0.1-0.1-0.1-0.2-0.1-0.3c-0.1-0.2-0.2-0.4-0.2-0.6c0-0.2-0.1-0.4-0.1-0.6
		c0-0.4,0-0.7,0-0.9c0-0.2,0.1-0.4,0.1-0.4s-0.1,0.1-0.3,0.3c-0.2,0.2-0.4,0.5-0.5,0.9c-0.1,0.2-0.1,0.4-0.1,0.7
		c0,0.2,0,0.5,0.1,0.8C28,12,28.1,12.2,28.1,12.3z"/>
	<path fill="#E77528" d="M17.7,12.3l0.1,0.2l0,0.1l0,0l0,0c0,0,0-0.1,0,0l0,0l0,0l0,0c0,0.1,0.1,0.3,0.1,0.4c0,0.1,0,0.2,0.1,0.3
		c0,0.2,0,0.5,0.1,0.7c0,0.2,0,0.5,0,0.7c0,0.2,0,0.5-0.1,0.7c0,0.2-0.1,0.4-0.1,0.6c-0.1,0.4-0.1,0.7-0.1,0.9c0,0.2,0,0.4,0,0.4
		s0.1-0.1,0.3-0.3c0.2-0.2,0.4-0.5,0.6-0.8c0.2-0.4,0.4-0.8,0.5-1.3c0.1-0.5,0.2-1.1,0.1-1.6c0-0.1-0.1-0.3-0.1-0.5
		c0-0.2-0.1-0.3-0.2-0.4l-0.1-0.1l0-0.1L18.8,12c-0.1-0.1-0.1-0.2-0.1-0.3c-0.1-0.2-0.2-0.4-0.2-0.6c0-0.2-0.1-0.4-0.1-0.6
		c0-0.4,0-0.7,0-0.9c0-0.2,0.1-0.4,0.1-0.4s-0.1,0.1-0.3,0.3c-0.2,0.2-0.4,0.5-0.5,0.9c-0.1,0.2-0.1,0.4-0.1,0.7
		c0,0.2,0,0.5,0.1,0.8C17.6,12,17.7,12.2,17.7,12.3z"/>
	<path fill="#E77528" d="M22.6,10.3l0.1,0.3l0.1,0.1l0,0l0,0c0,0,0-0.1,0,0l0,0l0,0l0,0.1c0.1,0.2,0.1,0.4,0.2,0.5
		c0,0.1,0.1,0.3,0.1,0.4c0.1,0.3,0.1,0.6,0.1,1c0,0.3,0,0.6,0,1c0,0.3-0.1,0.6-0.1,0.9c0,0.3-0.1,0.6-0.1,0.8
		c-0.1,0.5-0.1,1-0.2,1.3c0,0.3-0.1,0.5-0.1,0.5s0.2-0.1,0.4-0.4c0.2-0.3,0.5-0.7,0.8-1.2c0.3-0.5,0.6-1.1,0.8-1.8
		c0.2-0.7,0.3-1.5,0.2-2.3c0-0.2-0.1-0.4-0.2-0.6c-0.1-0.2-0.1-0.4-0.2-0.5l-0.1-0.2l-0.1-0.1l-0.1-0.2c-0.1-0.1-0.1-0.3-0.2-0.4
		c-0.1-0.3-0.2-0.6-0.3-0.8c-0.1-0.3-0.1-0.5-0.2-0.8c-0.1-0.5-0.1-0.9,0-1.3c0-0.3,0.1-0.5,0.1-0.5s-0.2,0.1-0.4,0.4
		c-0.2,0.3-0.5,0.7-0.7,1.3c-0.1,0.3-0.1,0.6-0.1,1c0,0.3,0,0.7,0.1,1.1C22.5,9.9,22.5,10.1,22.6,10.3z"/>
	<path fill="#F04B36" d="M38.7,23.2c-0.6-1.9-1.9-3.7-3.7-4.6c-1.3-0.6-2.7-0.8-4.2-0.9c-4.6-0.1-9.1,1.3-13.3,3.4
		c-0.7,0.4-1.4,0.8-2.1,1.2c0.3,0,0.6-0.1,0.9-0.1c1.3,0,2.6,0.3,3.9,0.9c3.9,1.8,5.9,5.5,4.5,8.5c-0.9,1.9-2.9,3.1-5.5,3.1
		c-1.3,0-2.6-0.3-3.9-0.9c-1.7-0.8-3.2-2-4-3.5C11.1,30.2,11,30,10.8,30c-0.1,0-0.2-0.1-0.2-0.1c-0.9-0.4-1.6-1-2.1-1.7
		c-0.9,1.2-1.7,2.5-2.3,3.9c-0.2,0.4-0.3,0.8-0.3,1.2c0.1,1,1.1,1.7,2,2.1c4.4,2,9.4,2.3,14.3,2.2c1.5,0,3.1,0,4.6-0.1
		c1.2,0,2.3-0.1,3.5-0.3c2.4-0.4,4.7-1.6,6.5-3.2c0.5-0.5,1-1,1.3-1.5c0.6-1,0.8-2.2,1-3.3C39.3,27.2,39.3,25.1,38.7,23.2z"/>
	<path fill="#F04B36" d="M3.3,21.9c-0.5,0-1,0.3-1.2,0.8c-0.3,0.6,0,1.4,0.6,1.7c0.6,0.3,1.4,0,1.7-0.6c0.1-0.1,0.1-0.3,0.1-0.4
		l4.3,2c-0.1,1.2,0.8,2.5,2.2,3.2c0.1,0,0.1,0.1,0.2,0.1c0.5,0.2,0.9,0.6,1.1,1c0.7,1.2,1.9,2.2,3.4,2.9c3.1,1.4,6.4,0.8,7.4-1.5
		s-0.7-5.2-3.8-6.6c-1.5-0.7-3.1-0.9-4.4-0.7c-0.5,0.1-1.1,0-1.5-0.2c-0.1,0-0.1-0.1-0.2-0.1c-1.5-0.7-3-0.5-3.9,0.4l-4.3-2
		c0.1-0.1,0.2-0.2,0.2-0.3c0.3-0.6,0-1.4-0.6-1.7c-0.6-0.3-1.4,0-1.7,0.6C2.9,21,3,21.6,3.3,21.9z"/>
</g>
</svg>
