<?xml version="1.0" encoding="utf-8"?>
<!-- Generator: Adobe Illustrator 18.0.0, SVG Export Plug-In . SVG Version: 6.00 Build 0)  -->
<!DOCTYPE svg PUBLIC "-//W3C//DTD SVG 1.1//EN" "http://www.w3.org/Graphics/SVG/1.1/DTD/svg11.dtd">
<svg version="1.1" id="Layer_1" xmlns="http://www.w3.org/2000/svg" xmlns:xlink="http://www.w3.org/1999/xlink" x="0px" y="0px"
	 viewBox="0 0 48 48" enable-background="new 0 0 48 48" xml:space="preserve">
<g>
	<path fill="#F04B36" d="M29.6,7.3l0.1,0.2l0,0.1l0,0l0,0c0,0,0-0.1,0,0l0,0l0,0l0,0c0,0.1,0.1,0.3,0.1,0.4c0,0.1,0,0.2,0.1,0.3
		c0,0.2,0,0.5,0.1,0.7c0,0.2,0,0.5,0,0.7c0,0.2,0,0.5-0.1,0.7c0,0.2-0.1,0.4-0.1,0.6c0,0.4-0.1,0.7-0.1,0.9c0,0.2,0,0.4,0,0.4
		s0.1-0.1,0.3-0.3c0.2-0.2,0.4-0.5,0.6-0.8c0.2-0.4,0.4-0.8,0.5-1.3c0.1-0.5,0.2-1.1,0.1-1.7c0-0.1-0.1-0.3-0.1-0.5
		c0-0.2-0.1-0.3-0.2-0.4l-0.1-0.1l0-0.1l-0.1-0.2c-0.1-0.1-0.1-0.2-0.1-0.3c-0.1-0.2-0.2-0.4-0.2-0.6c0-0.2-0.1-0.4-0.1-0.6
		c0-0.4,0-0.7,0-0.9c0-0.2,0.1-0.4,0.1-0.4S30.2,4.3,30,4.5c-0.2,0.2-0.3,0.5-0.5,0.9c-0.1,0.2-0.1,0.4-0.1,0.7c0,0.2,0,0.5,0.1,0.8
		C29.6,7,29.6,7.1,29.6,7.3z"/>
	<path fill="#F04B36" d="M19.6,7.3l0.1,0.2l0,0.1l0,0l0,0c0,0,0-0.1,0,0l0,0l0,0l0,0c0,0.1,0.1,0.3,0.1,0.4c0,0.1,0,0.2,0.1,0.3
		c0,0.2,0,0.5,0.1,0.7c0,0.2,0,0.5,0,0.7c0,0.2,0,0.5-0.1,0.7c0,0.2-0.1,0.4-0.1,0.6c0,0.4-0.1,0.7-0.1,0.9c0,0.2,0,0.4,0,0.4
		s0.1-0.1,0.3-0.3c0.2-0.2,0.4-0.5,0.6-0.8c0.2-0.4,0.4-0.8,0.5-1.3c0.1-0.5,0.2-1.1,0.1-1.7C21.1,8,21,7.8,21,7.7
		c0-0.2-0.1-0.3-0.2-0.4l-0.1-0.1l0-0.1l-0.1-0.2c-0.1-0.1-0.1-0.2-0.1-0.3c-0.1-0.2-0.2-0.4-0.2-0.6c0-0.2-0.1-0.4-0.1-0.6
		c0-0.4,0-0.7,0-0.9c0-0.2,0.1-0.4,0.1-0.4S20.1,4.3,20,4.5c-0.2,0.2-0.3,0.5-0.5,0.9c-0.1,0.2-0.1,0.4-0.1,0.7c0,0.2,0,0.5,0.1,0.8
		C19.5,7,19.6,7.1,19.6,7.3z"/>
	<path fill="#F04B36" d="M24.3,5.3l0.1,0.3l0.1,0.1l0,0l0,0c0,0,0-0.1,0,0l0,0l0,0l0,0.1c0,0.2,0.1,0.4,0.2,0.5
		c0,0.1,0.1,0.3,0.1,0.4c0.1,0.3,0.1,0.6,0.1,1c0,0.3,0,0.6,0,1c0,0.3-0.1,0.6-0.1,0.9c0,0.3-0.1,0.6-0.1,0.8
		c-0.1,0.5-0.1,1-0.2,1.3c0,0.3-0.1,0.5-0.1,0.5s0.2-0.1,0.4-0.4c0.2-0.3,0.5-0.7,0.8-1.2c0.3-0.5,0.5-1.1,0.7-1.8
		c0.2-0.7,0.3-1.5,0.1-2.3c0-0.2-0.1-0.4-0.2-0.6c-0.1-0.2-0.1-0.4-0.2-0.5L26,5.1L25.9,5l-0.1-0.2c-0.1-0.1-0.1-0.3-0.2-0.4
		c-0.1-0.3-0.2-0.6-0.3-0.8c-0.1-0.3-0.1-0.5-0.2-0.8c-0.1-0.5-0.1-0.9,0-1.3c0-0.3,0.1-0.5,0.1-0.5s-0.2,0.1-0.4,0.4
		c-0.2,0.3-0.5,0.7-0.6,1.3c-0.1,0.3-0.1,0.6-0.1,1c0,0.3,0,0.7,0.1,1.1C24.2,4.9,24.2,5.1,24.3,5.3z"/>
	<path fill="#F7A93B" d="M36.9,22.8c-2.4-2.3-5.4-3.9-8.7-4.5c0-0.1,0-0.3,0-0.4c0-1.4-1.2-2.5-2.7-2.5c-1.5,0-2.7,1.1-2.7,2.5
		c0,0.1,0,0.3,0,0.4c-3.3,0.6-6.4,2.2-8.7,4.5H36.9z"/>
	<path fill="#4DA0D8" d="M37.6,44.3l-0.4-1.9l3.3-0.8c0.5-0.2,2.9-1.9,3.3-2.5c0.5-0.8,1-1.6,1.2-2.5c0.2-0.9,0.1-1.8,0-2.8
		c-0.2-1.3-0.5-2.8-1.2-4c-0.6-0.9-1.7-1.8-2.9-1.7c-0.5,0.1-1.1,0.4-1.4,0.9c-0.2,0.2-0.4,0.7-0.3,1.2l-1.8,0.5
		c-0.2-0.9,0-1.9,0.6-2.7c0.6-0.9,1.7-1.6,2.7-1.7c1.7-0.2,3.5,0.8,4.6,2.5c1,1.5,1.3,3.3,1.5,4.8c0.1,1.1,0.2,2.3,0,3.4
		c-0.3,1.2-0.9,2.3-1.5,3.2c-0.7,1.1-3.6,3.1-4.4,3.3L37.6,44.3z"/>
	<path fill="#4DA0D8" d="M1.7,26.2c0,0,0.1,0,0.2,0c0.1,0,0.2,0,0.4,0c0.1,0,0.3,0,0.5,0c0.7,0.1,1.5,0.5,2.2,1.3
		c0.4,0.4,0.6,0.9,0.8,1.5C6,29.5,6.1,30,6.2,30.5c0.1,0.5,0.2,1,0.2,1.5c0,0.3,0.1,0.5,0.1,0.7l0.2,0.7c0.3,0.9,0.6,1.9,1,2.7
		C8,36.6,8.2,37,8.4,37.3c0.2,0.3,0.4,0.5,0.4,0.5l0.1,0.1c0,0,0,0,0,0l0.1,0c0.1,0,0.1,0,0.2,0.1C9.3,38,9.4,38,9.6,38
		c0.3,0,0.6,0,0.6,0c1,0,1.9,0.8,1.9,1.9c0,1.1-0.8,2-1.8,2c-0.1,0-0.1,0-0.2,0l-0.1,0c0,0-0.3,0-0.9-0.1c-0.3-0.1-0.6-0.1-1.1-0.3
		c-0.2-0.1-0.5-0.2-0.7-0.3C7.1,41,7,40.9,6.9,40.8l-0.2-0.2l-0.1-0.1c-0.6-0.6-0.9-1.1-1.1-1.6c-0.2-0.5-0.4-1-0.6-1.5
		c-0.3-1-0.6-2.2-0.8-3.3c0-0.3-0.1-0.6-0.1-0.9c0-0.3-0.1-0.6-0.1-0.8c0-0.5-0.1-1-0.1-1.5c0-0.5-0.1-0.9-0.2-1.2
		c-0.1-0.3-0.2-0.6-0.3-0.8c-0.3-0.5-0.7-0.7-0.9-0.7c-0.1,0-0.1,0-0.1,0c0,0,0,0-0.1,0c-0.1,0-0.2,0-0.2,0c-0.5,0.1-1-0.3-1-0.8
		C1,26.8,1.3,26.3,1.7,26.2z"/>
	<path fill="#0DB89A" d="M37.6,47c2.8-3.1,4.5-7.2,4.5-11.8c0-3.9-1.3-7.5-3.4-10.3H12.3c-2.1,2.9-3.4,6.5-3.4,10.3
		c0,4.6,1.7,8.7,4.5,11.8H37.6z"/>
</g>
</svg>
