<?xml version="1.0" encoding="utf-8"?>
<!-- Generator: Adobe Illustrator 18.0.0, SVG Export Plug-In . SVG Version: 6.00 Build 0)  -->
<!DOCTYPE svg PUBLIC "-//W3C//DTD SVG 1.1//EN" "http://www.w3.org/Graphics/SVG/1.1/DTD/svg11.dtd">
<svg version="1.1" id="Layer_1" xmlns="http://www.w3.org/2000/svg" xmlns:xlink="http://www.w3.org/1999/xlink" x="0px" y="0px"
	 viewBox="0 0 48 48" enable-background="new 0 0 48 48" xml:space="preserve">
<g>
	<path fill="#F7A93B" d="M32.1,13l-5.8,0.2c0.1,1.6,0.8,3,1.8,4L32.1,13z"/>
	<path fill="#F7A93B" d="M32.6,13.5l-3.9,4.2c1.1,0.9,2.6,1.5,4.1,1.6L32.6,13.5z"/>
	<path fill="#F7A93B" d="M32.1,12.2l-4.2-3.9c-0.9,1.1-1.5,2.6-1.6,4.1L32.1,12.2z"/>
	<path fill="#F7A93B" d="M33.2,5.8l0.2,5.8l3.9-4.2C36.2,6.4,34.7,5.9,33.2,5.8z"/>
	<path fill="#F7A93B" d="M32.6,11.6l-0.2-5.8c-1.6,0.1-3,0.8-4,1.8L32.6,11.6z"/>
	<path fill="#F7A93B" d="M33.9,12.2l5.8-0.2c-0.1-1.6-0.8-3-1.8-4L33.9,12.2z"/>
	<path fill="#F7A93B" d="M33.4,13.5l0.2,5.8c1.6-0.1,3-0.8,4-1.8L33.4,13.5z"/>
	<path fill="#E77528" d="M32.7,3.8C27.9,4,24.1,8,24.3,12.9c0.2,4.8,4.2,8.6,9.1,8.4c4.8-0.2,8.6-4.2,8.4-9.1
		C41.6,7.4,37.5,3.7,32.7,3.8z M33.3,20.1c-4.1,0.1-7.6-3.1-7.8-7.3c-0.1-4.1,3.1-7.6,7.3-7.8s7.6,3.1,7.8,7.3
		C40.7,16.5,37.4,19.9,33.3,20.1z"/>
	<path fill="#F7A93B" d="M34,12.9l4.2,3.9c0.9-1.1,1.5-2.6,1.6-4.1L34,12.9z"/>
	<path fill="#F04B36" d="M17.7,20.4c-0.4,0-0.8-0.3-0.9-0.8L14.1,6.5L6.8,2.8C6.3,2.5,6.1,2,6.3,1.5c0.2-0.5,0.8-0.6,1.3-0.4l7.8,4
		c0.3,0.1,0.4,0.4,0.5,0.7l2.7,13.6c0.1,0.5-0.2,1-0.7,1.1C17.8,20.4,17.7,20.4,17.7,20.4z"/>
	<path fill="#294E58" d="M27.9,47H16.4c-1.1,0-1.9-0.8-2.1-1.8l-3.7-31.6c-0.1-0.6,0.4-1.1,1-1.1h21.1c0.6,0,1.1,0.5,1,1.1
		l-3.7,31.6C29.8,46.2,28.9,47,27.9,47z"/>
</g>
</svg>
