<?xml version="1.0" encoding="utf-8"?>
<!-- Generator: Adobe Illustrator 18.0.0, SVG Export Plug-In . SVG Version: 6.00 Build 0)  -->
<!DOCTYPE svg PUBLIC "-//W3C//DTD SVG 1.1//EN" "http://www.w3.org/Graphics/SVG/1.1/DTD/svg11.dtd">
<svg version="1.1" id="Layer_1" xmlns="http://www.w3.org/2000/svg" xmlns:xlink="http://www.w3.org/1999/xlink" x="0px" y="0px"
	 viewBox="0 0 48 48" enable-background="new 0 0 48 48" xml:space="preserve">
<g>
	<path fill="#F7A93B" d="M24,1C11.3,1,1,4,1,7.6c0,0.7,0.3,1.3,0.9,1.9c1.6,1.5,2.6,3.7,2.6,6V47h38.9V15.6c0-2.4,1-4.5,2.6-6
		C46.7,8.9,47,8.3,47,7.6C47,4,36.7,1,24,1z M10.2,13c0-1.7,1.2-3.1,2.7-3.1c1.5,0,2.7,1.4,2.7,3.1c0,1.7-1.2,3.1-2.7,3.1
		C11.4,16.1,10.2,14.7,10.2,13z M18.8,42.1c-2.8,0-5.2-2.7-5.2-6c0-3.3,2.3-6,5.2-6c2.8,0,5.2,2.7,5.2,6
		C24,39.5,21.7,42.1,18.8,42.1z M27.4,11.4c-1.1,0-2-1.1-2-2.3c0-1.3,0.9-2.3,2-2.3c1.1,0,2,1.1,2,2.3
		C29.5,10.3,28.6,11.4,27.4,11.4z M35.4,26.3c-1.3,0-2.3-1.2-2.3-2.7c0-1.5,1-2.7,2.3-2.7s2.3,1.2,2.3,2.7
		C37.7,25.1,36.7,26.3,35.4,26.3z"/>
</g>
</svg>
