<?xml version="1.0" encoding="utf-8"?>
<!-- Generator: Adobe Illustrator 18.0.0, SVG Export Plug-In . SVG Version: 6.00 Build 0)  -->
<!DOCTYPE svg PUBLIC "-//W3C//DTD SVG 1.1//EN" "http://www.w3.org/Graphics/SVG/1.1/DTD/svg11.dtd">
<svg version="1.1" id="Layer_1" xmlns="http://www.w3.org/2000/svg" xmlns:xlink="http://www.w3.org/1999/xlink" x="0px" y="0px"
	 viewBox="0 0 48 48" enable-background="new 0 0 48 48" xml:space="preserve">
<g>
	<path fill="none" d="M25.4,22.7h-4c0.1,0.2,0.2,0.4,0.3,0.7c0.8,1.5,1.7,2.7,1.7,2.7l-0.3,1.2h2.2V22.7z"/>
	<polygon fill="none" points="23.7,29.2 25.4,30.4 25.4,29.2 	"/>
	<path fill="none" d="M27.3,25.4c1-1.8,0.7-2.2,0.7-2.2l0.9-0.5h-1.7V25.4z"/>
	<path fill="none" d="M27.3,25.4c0.5-1,1-1.9,1.7-2.7l-0.9,0.5C28.1,23.2,28.4,23.6,27.3,25.4z"/>
	<path fill="none" d="M15.4,17c0.2,0.1,0.4,0.2,0.6,0.3c0.3,0.2,0.6,0.3,0.9,0.5c0.7,0.4,1.5,0.8,2.1,1.4L17.4,17H15.4z"/>
	<path fill="none" d="M21.7,23.3c0.2,0.4,0.3,0.7,0.5,1.1c0.4,0.9,0.6,1.9,0.9,2.8l0.3-1.2C23.4,26,22.5,24.8,21.7,23.3z"/>
	<path fill="none" d="M24.4,32.6c0,0.1,0.1,0.3,0.1,0.4c0.1-0.3,0.2-0.6,0.3-0.9c0.2-0.6,0.4-1.2,0.6-1.8l-1.7-1.2
		C24,30.4,24.2,31.5,24.4,32.6z"/>
	<path fill="none" d="M15.5,16.1c0,0.3,0,0.6,0,0.9h2l1.6,2.2v-3.1H15.5z"/>
	<path fill="none" d="M29.6,9.5h-2.3v4.6h3.3C30.4,12.5,30.1,10.9,29.6,9.5z"/>
	<rect x="21" y="16.1" fill="none" width="4.4" height="4.6"/>
	<path fill="none" d="M19,9.5h-2.4c-0.5,1.4-0.8,2.9-1,4.6H19V9.5z"/>
	<path fill="none" d="M30.8,17.4c0-0.5,0-0.9,0-1.3h-3.5v4.6h3.3C30.7,19.6,30.8,18.5,30.8,17.4z"/>
	<rect x="21" y="9.5" fill="none" width="4.4" height="4.6"/>
	<path fill="#010101" d="M21.7,23.3c-0.1-0.2-0.2-0.4-0.3-0.7C21.5,22.9,21.6,23.1,21.7,23.3z"/>
	<path fill="#0DB89A" d="M40.1,28.8c-0.4-0.8-0.7-1.8-1-2.7c-0.2-0.5-0.3-1.1-0.5-1.6c-0.8-2.1-2.5-3.6-4.6-4
		c-0.5-0.1-0.9-0.1-1.4,0c-1.9,0.4-3.6,2.2-3.6,2.2c-0.7,0.9-1.2,1.8-1.7,2.7c-1,1.8-2,5-2,5c-0.2,0.6-0.4,1.2-0.6,1.8
		c-0.1,0.3-0.2,0.6-0.3,0.9c0-0.1-0.1-0.3-0.1-0.4c-0.2-1.1-0.5-2.3-0.8-3.4l-0.5-2c-0.3-1-0.6-1.9-0.9-2.8
		c-0.1-0.4-0.3-0.7-0.5-1.1c-0.1-0.2-0.2-0.4-0.3-0.7c-0.8-1.8-2.4-3.5-2.4-3.5c-0.7-0.5-1.4-1-2.1-1.4c-0.3-0.2-0.6-0.3-0.9-0.5
		c-0.2-0.1-0.4-0.2-0.6-0.3l-1.9-0.8c-0.5-0.1-1.1-0.1-1.6,0c-0.5,0.2-1.2,0.6-1.6,1.6c-0.6,1.5-1.1,3.1-1.6,4.6l-0.1,0.3
		c-0.1,0.2-0.1,0.4-0.2,0.6C8.2,23.8,8,24.4,8,25.1c0,0.5,0,0.9,0,1.3c0,0.5,0,1-0.1,1.5c-0.1,0.4,0.1,0.8,0.5,1
		c0.4,0.2,0.8,0.2,1.1-0.1c0.7-0.5,1-1.2,1.3-1.9c0.1-0.3,0.3-0.6,0.4-0.8c0.3-0.4,0.5-0.7,0.7-0.9c0,0,0,0,0,0
		c0.2,1.1,0.3,2.2,0.5,3.3c0.3,2.4,0.7,5,1.1,7.4c0.4,2.1,1,4.5,2.8,6.4c1.2,1.3,3.1,2.2,5,2.5c-0.1,0.3-0.2,0.6-0.3,0.7
		c-0.3,0.5-0.1,1.1,0.3,1.3c0,0,0.1,0.1,0.2,0.1c0,0,0.1,0,0.1,0.1c0.5,0.2,1.2,0.2,1.8,0.2c0.2,0,0.3,0,0.5,0c0.4,0,0.8,0,1.1,0
		c0.5,0,1,0,1.4,0c0.5,0,0.9-0.4,0.9-0.9c0-0.3,0-0.6-0.1-1c0-0.2-0.1-0.4-0.1-0.6c0.3,0,0.6,0,0.9-0.1c0.6,0,1.1-0.1,1.4-0.2
		c0.9-0.3,1.9-1.1,2.5-1.9c1.2-1.7,1.7-4.1,2-6.1c0.1-0.4,0.1-0.7,0.2-1.1c0.2-0.9,0.3-1.7,0.4-2.5c0.2-1.4,0.4-2.7,0.8-4
		c0-0.2,0.1-0.3,0.1-0.5c0-0.1,0.1-0.3,0.1-0.5c0.7,0.2,1.6,0.8,1.9,1c0.1,0.1,0.2,0.2,0.4,0.3c0.3,0.3,0.7,0.6,1.3,0.7
		c0.4,0.1,0.8-0.1,1-0.4C40.2,29.5,40.2,29.1,40.1,28.8z"/>
	<path fill="#F7A93B" d="M15.5,16.1H19v3.1c0,0,1.6,1.7,2.4,3.5h4v4.6h-2.2l0.5,2h1.7v1.2c0,0,0.9-3.2,2-5v-2.7H29
		c0,0,1.7-1.8,3.6-2.2c0.1-1,0.2-2,0.2-3c0-7-2.3-12.9-5.7-15.5c0,0-0.1,0-0.1-0.1c-1.2-0.9-2.5-1.4-3.8-1.4c-5,0-8.9,6.2-9.6,14.6
		c0,0,0,0,0,0c0,0,0,0,0,0c0,0.3,0,0.7-0.1,1l1.9,0.8C15.4,16.7,15.4,16.4,15.5,16.1z M27.3,5c0.6,0.7,1.1,1.6,1.5,2.6h-1.5V5z
		 M27.3,9.5h2.3c0.5,1.4,0.8,2.9,1,4.6h-3.3V9.5z M27.3,16.1h3.5c0,0.4,0,0.9,0,1.3c0,1.1-0.1,2.2-0.2,3.3h-3.3V16.1z M21,3.1
		c0.7-0.4,1.4-0.6,2.1-0.6c0.8,0,1.5,0.2,2.2,0.7v4.4H21V3.1z M21,9.5h4.4v4.6H21V9.5z M21,16.1h4.4v4.6H21V16.1z M19,4.8v2.8h-1.7
		C17.9,6.5,18.4,5.6,19,4.8z M16.6,9.5H19v4.6h-3.4C15.8,12.5,16.2,10.9,16.6,9.5z"/>
</g>
</svg>
