<?xml version="1.0" encoding="utf-8"?>
<!-- Generator: Adobe Illustrator 18.0.0, SVG Export Plug-In . SVG Version: 6.00 Build 0)  -->
<!DOCTYPE svg PUBLIC "-//W3C//DTD SVG 1.1//EN" "http://www.w3.org/Graphics/SVG/1.1/DTD/svg11.dtd">
<svg version="1.1" id="Layer_1" xmlns="http://www.w3.org/2000/svg" xmlns:xlink="http://www.w3.org/1999/xlink" x="0px" y="0px"
	 viewBox="0 0 48 48" enable-background="new 0 0 48 48" xml:space="preserve">
<g>
	<path fill="#E8B944" d="M37,6V4.5c0.3,0,0.6-0.3,0.6-0.6V1.6c0-0.3-0.3-0.6-0.6-0.6h-4.5c-0.3,0-0.6,0.3-0.6,0.6v2.3
		c0,0.3,0.3,0.6,0.6,0.6V6c0,9.7-5.2,6.9-5.7,10.7v27.1c0,1.8,1.4,3.2,3.2,3.2h4.7h0h4.7c1.8,0,3.2-1.4,3.2-3.2V16.7
		C42.2,13,36.9,15.7,37,6z M34.7,38.5c-2.5,0-4.4-3.8-4.4-8.6s2-8.6,4.4-8.6s4.4,3.8,4.4,8.6S37.2,38.5,34.7,38.5z"/>
	<path fill="#E77528" d="M14.4,38.5v-17h6.9v-4.8C20.8,13,15.5,15.7,15.6,6V4.5c0.3,0,0.6-0.3,0.6-0.6V1.6c0-0.3-0.3-0.6-0.6-0.6
		h-4.5c-0.3,0-0.6,0.3-0.6,0.6v2.3c0,0.3,0.3,0.6,0.6,0.6V6c0,9.7-5.2,6.9-5.7,10.7v27.1c0,1.8,1.4,3.2,3.2,3.2h4.7h0h4.7
		c1.8,0,3.2-1.4,3.2-3.2v-5.3H14.4z"/>
</g>
</svg>
