<?xml version="1.0" encoding="utf-8"?>
<!-- Generator: Adobe Illustrator 18.0.0, SVG Export Plug-In . SVG Version: 6.00 Build 0)  -->
<!DOCTYPE svg PUBLIC "-//W3C//DTD SVG 1.1//EN" "http://www.w3.org/Graphics/SVG/1.1/DTD/svg11.dtd">
<svg version="1.1" id="Layer_1" xmlns="http://www.w3.org/2000/svg" xmlns:xlink="http://www.w3.org/1999/xlink" x="0px" y="0px"
	 viewBox="0 0 48 48" enable-background="new 0 0 48 48" xml:space="preserve">
<g>
	<path fill="#0DB89A" d="M36.5,28.5c-0.3,0-0.6,0-0.8,0.1c-0.2,0.1-0.3,0.4-0.4,0.6c-1.1,2.6-1,5.5-1.7,8.3
		c-0.4,1.7-1.1,3.3-2.1,4.8c-0.5,0.7-1,1.4-1.9,1.6c-0.4,0.1-0.9,0-1.4,0.1c-1,0.2-1.8,1.2-1.7,2.3c0,0.2,0.1,0.5,0,0.7
		c-0.1,0.2-0.4,0.3-0.7,0.3c-1.4,0.2-2.8,0.3-4.2,0.3c-0.3-0.7,1.1-1.1,1.3-1.9c0.1-0.5-0.3-0.9-0.7-1.1c-0.4-0.2-0.9-0.2-1.4-0.3
		c-0.5-0.1-0.9-0.3-1.3-0.6c-2-1.2-3.3-3.3-4.1-5.5c-0.8-2.2-1.1-4.5-1.4-6.8c-0.2-1.9-0.5-3.7-0.7-5.6c0-0.1,0-0.3-0.1-0.4
		c-0.2-0.4-0.8-0.5-1.2-0.2c-0.4,0.2-0.6,0.7-0.9,1.1c-1,1.8-2.1,3.6-3.3,5.3c-0.4,0.6-1.2,1.2-1.7,0.7c-0.6-1.5,0.2-3.1,1-4.5
		c1.1-1.9,2.2-3.9,3.3-5.8c0.8-1.3,1.7-2.8,3.3-3.1c1.3-0.2,2.5,0.6,3.6,1.3c1.3,0.9,2.5,1.8,3.4,3c0.7,1,1.1,2.2,1.4,3.3
		c1,3.2,2,6.4,2.9,9.6c0.5-4.1,2.9-7.7,5.2-11.1c0.4-0.6,0.9-1.3,1.5-1.7c0.5-0.3,1.2-0.5,1.8-0.5c1.3-0.1,2.7,0.4,3.6,1.3
		c0.5,0.5,0.9,1.1,1.2,1.7c1.3,2.4,2.5,4.9,3.3,7.6C40.8,31.1,39,28.8,36.5,28.5z"/>
	<rect x="25" y="7.1" fill="#F7A93B" width="2.6" height="4.2"/>
	<rect x="20.4" y="13.3" fill="#F7A93B" width="2.6" height="4.2"/>
	<path fill="#F7A93B" d="M18.5,7.1h-1.7c-0.5,1.3-0.9,2.7-1.3,4.2h2.9V7.1z"/>
	<path fill="#F7A93B" d="M18.5,13.3h-3.3c-0.2,1.2-0.3,2.4-0.3,3.6c0.7,0.1,1.3,0.3,1.9,0.6h1.7V13.3z"/>
	<path fill="#F7A93B" d="M29.5,11.4h2.9c-0.3-1.5-0.7-2.9-1.3-4.2h-1.7V11.4z"/>
	<path fill="#F7A93B" d="M29.5,17.5H33c0-1.5-0.1-2.9-0.3-4.2h-3.2V17.5z"/>
	<rect x="25" y="13.3" fill="#F7A93B" width="2.6" height="4.2"/>
	<rect x="20.4" y="7.1" fill="#F7A93B" width="2.6" height="4.2"/>
	<path fill="#F7A93B" d="M27.6,19.4H25v9.1c0.1,0.4,0.2,0.7,0.3,1.1c0.7-1.4,1.5-2.7,2.3-3.9V19.4z"/>
	<path fill="#F7A93B" d="M29.5,19.4v3.5c0.4-0.5,0.8-1,1.4-1.3c0.6-0.4,1.2-0.6,2-0.7c0-0.5,0.1-1,0.1-1.5H29.5z"/>
	<path fill="#F7A93B" d="M29.5,5.2h0.8C30,4.8,29.8,4.4,29.5,4V5.2z"/>
	<path fill="#F7A93B" d="M23.1,19.4h-2.6v0.5c0.7,0.6,1.4,1.3,2,2.1c0.2,0.3,0.4,0.7,0.6,1V19.4z"/>
	<path fill="#F7A93B" d="M25,5.2h2.6V1.8c-0.8-0.7-1.7-1.1-2.6-1.3V5.2z"/>
	<path fill="#F7A93B" d="M20.4,5.2h2.6V0.5c-0.9,0.2-1.8,0.6-2.6,1.3V5.2z"/>
	<path fill="#F7A93B" d="M18.5,5.2V4c-0.3,0.4-0.5,0.8-0.8,1.3H18.5z"/>
</g>
</svg>
