<?xml version="1.0" encoding="utf-8"?>
<!-- Generator: Adobe Illustrator 18.0.0, SVG Export Plug-In . SVG Version: 6.00 Build 0)  -->
<!DOCTYPE svg PUBLIC "-//W3C//DTD SVG 1.1//EN" "http://www.w3.org/Graphics/SVG/1.1/DTD/svg11.dtd">
<svg version="1.1" id="Layer_1" xmlns="http://www.w3.org/2000/svg" xmlns:xlink="http://www.w3.org/1999/xlink" x="0px" y="0px"
	 viewBox="0 0 48 48" enable-background="new 0 0 48 48" xml:space="preserve">
<g>
	<polygon fill="#E8B944" points="34.3,36.2 25.9,31 17.6,36.2 25.9,41.4 	"/>
	<path fill="#E8B944" d="M16.6,25.2c-0.1,0.1-0.2,0.3-0.2,0.4c-1.4,2.6-2.2,5.4-2.5,8.3l1.8,1.1l8.3-5.2L16.6,25.2z"/>
	<path fill="#E8B944" d="M36.5,31.3c-0.2-1.3-0.3-2.6-1-3.7C35.1,27,34.5,26.5,34,26l-6.2,3.8l8.3,5.2l0.7-0.4
		C36.7,33.5,36.6,32.4,36.5,31.3z"/>
	<path fill="#E8B944" d="M25.9,43.8L20.8,47c0.7,0,1.4,0,2,0c1.7-0.1,3.4-0.2,5.1-0.4c0.6-0.1,1.3-0.2,1.9-0.3L25.9,43.8z"/>
	<path fill="#E8B944" d="M36.2,37.4l-8.3,5.2l4.5,2.8c0.3-0.1,0.5-0.3,0.7-0.4c2.1-1.4,3.3-3.8,3.6-6.3c0-0.3,0.1-0.6,0.1-0.9
		L36.2,37.4z"/>
	<path fill="#0DB89A" d="M19.4,18.8c0.8,0.7,1.4,1.8,1.1,2.8c-1.1,0.3-2,1-2.8,1.9l8.2,5.1l6.5-4c-1.1-1-2-2.3-2.6-3.7
		c-0.2-0.4-0.3-0.8-0.1-1.2c0.2-0.3,0.6-0.4,0.9-0.5c2-0.5,4.2-0.5,6.1,0.1c-1.1-2.6-4.4-3.9-6.9-2.9c-0.5-0.5-0.3-1.4,0.3-1.8
		c0.6-0.4,1.3-0.5,2-0.6c0.7-0.1,1.5-0.4,1.8-1c-1.5-0.4-3.1-0.5-4.6-0.2c1.1-1.6,2.8-2.8,4.7-3.3c0.2-0.5-0.5-0.9-1.1-0.9
		c-1.6-0.1-3.3,0.7-4.4,1.9c0.5-1.9,1-3.9,1.9-5.6c1-1.7,2.5-3.2,4.4-3.7c-2.4-0.3-4.8,0.5-6.7,1.9c-1.9,1.4-3.3,3.4-4.4,5.5
		c-0.9-0.9-0.5-2.6-1.5-3.3c-0.3-0.2-0.8-0.3-1.2-0.4c-1-0.2-2-0.3-3.1-0.5c3.5,2.3,5.4,6.8,4.5,10.9c-0.6-2.3-2.8-4.1-5.2-4.1
		c-0.5,0.8,0.6,1.7,1.5,2.2c1.6,1,2.6,2.8,2.6,4.6c-1-1.6-2.9-2.5-4.8-2.7c-1.9-0.2-3.8,0.1-5.6,0.5c1.8,0.6,3.5,1.2,5.3,1.8
		C17.5,17.8,18.5,18.1,19.4,18.8z"/>
	<path fill="#E8B944" d="M18.1,46.3C18.1,46.3,18.1,46.3,18.1,46.3l5.9-3.7l-8.3-5.2L14,38.5c0.1,0.8,0.3,1.6,0.5,2.4
		C15,43,16.1,45.3,18.1,46.3z"/>
</g>
</svg>
