<?xml version="1.0" encoding="utf-8"?>
<!-- Generator: Adobe Illustrator 18.0.0, SVG Export Plug-In . SVG Version: 6.00 Build 0)  -->
<!DOCTYPE svg PUBLIC "-//W3C//DTD SVG 1.1//EN" "http://www.w3.org/Graphics/SVG/1.1/DTD/svg11.dtd">
<svg version="1.1" id="Layer_1" xmlns="http://www.w3.org/2000/svg" xmlns:xlink="http://www.w3.org/1999/xlink" x="0px" y="0px"
	 viewBox="0 0 48 48" enable-background="new 0 0 48 48" xml:space="preserve">
<g>
	<path fill="#E77528" d="M5.2,22.9c0.4,2.1,1.9,7.4,6.4,10c4.8,2.9,7.8,7.6,8.9,9.8c3.6-3,3.1-9.4-1.2-14.5
		C15.3,23.5,9.4,21.4,5.2,22.9z"/>
	<path fill="#E77528" d="M10.8,34.3c-4.8-2.8-6.5-7.9-7.1-10.5c-4,2.9-3.6,9.5,0.8,14.8c4.2,4.9,10.5,7,14.6,5.1
		C18.3,41.8,15.5,37,10.8,34.3z"/>
	<rect x="16.3" y="10.5" fill="#0DB89A" width="30.7" height="2.4"/>
	<polygon fill="#06728D" points="44.7,3.6 18.6,3.6 16.3,7.3 47,7.3 	"/>
	<path fill="#0DB89A" d="M17.5,10.5L19,24.7c0.7,0.7,1.5,1.3,2.1,2.1c2.9,3.5,4.4,7.6,4.1,11.3c-0.2,2.5-1.3,4.7-3,6.3l0,0h20
		l3.6-33.8H17.5z"/>
</g>
</svg>
