<?xml version="1.0" encoding="utf-8"?>
<!-- Generator: Adobe Illustrator 18.0.0, SVG Export Plug-In . SVG Version: 6.00 Build 0)  -->
<!DOCTYPE svg PUBLIC "-//W3C//DTD SVG 1.1//EN" "http://www.w3.org/Graphics/SVG/1.1/DTD/svg11.dtd">
<svg version="1.1" id="Layer_1" xmlns="http://www.w3.org/2000/svg" xmlns:xlink="http://www.w3.org/1999/xlink" x="0px" y="0px"
	 viewBox="0 0 48 48" enable-background="new 0 0 48 48" xml:space="preserve">
<g>
	<path fill="#F04B36" d="M31.8,25c-0.4-0.7-0.9-1.3-1.5-1.8c-0.8-0.8-1.5-1.6-2.3-2.4c-0.6-0.7-1.3-1.3-2.1-1.8c-1.6-1-3.6-1-5.4-1
		c-3.7,0-7.7,0.1-10.5,2.5c-0.9,0.8-1.7,1.9-2.2,3c-1.9,3.6-2.2,8.1-0.8,12c0.3,0.8,0.6,1.6,0.8,2.4c0.5,2,0,4.3-1.3,5.9
		c-1.3,1.6-3.4,2.6-5.5,2.6c2.3-0.1,4.6,1.2,6.7,0.3c1.6-0.6,2.5-2.3,4-3.1c1.8-1,3.9-0.6,5.9-0.4c4.2,0.5,9,0,12-2.9
		c1.7-1.6,2.6-3.8,3-6.1c0.4-2.3,0.2-4.6-0.2-6.9C32.4,26.5,32.2,25.7,31.8,25z"/>
	<path fill="#0DB89A" d="M46.9,13.4c-1.3-0.2-2.6-0.3-3.9,0c-1.1,0.3-2.1,1-3.2,1.5c-1.1,0.5-2.4,0.8-3.4,0.3
		c2.2-1.4,4.5-2.8,6.7-4.1c0.6-0.4,1.2-0.7,1.5-1.3c0.2-0.4,0.2-0.8,0.1-1.2c-0.2-1.3-1.5-2.2-2.7-2.2c-1.3,0.1-2.4,1.1-3.3,2.1
		c-1.5,1.6-3,3.2-4.5,4.7c-0.8,0.8-1.6,1.9-1.3,3c-0.3,0-1-0.6-1.2-1.3c-0.3-1.8,1.3-2.1,1.9-3.8c0.7-1.7,1-3.6,0.8-5.5
		c-0.2-1.9-1.2-4-3-4.3c-0.5-0.1-1.1,0.1-1.4,0.5c-0.2,0.2-0.2,0.5-0.3,0.8c-0.3,2.4,0,4.9-0.6,7.3c-0.6,2.5-2,4.8-3.7,6.8
		c0.6,0.2,1.2,0.4,1.8,0.8c1,0.6,1.8,1.4,2.5,2.2l2.3,2.4c0.4,0.5,0.9,1,1.4,1.6c0.7-1.5,1.6-2.9,2.5-4.3c0.3-0.4,0.6-0.8,1-1
		c0.4-0.2,0.9-0.2,1.4-0.2c1.9,0,3.8,0.2,5.6-0.4C45.5,16.9,47.1,15.2,46.9,13.4z"/>
</g>
</svg>
