<?xml version="1.0" encoding="utf-8"?>
<!-- Generator: Adobe Illustrator 18.0.0, SVG Export Plug-In . SVG Version: 6.00 Build 0)  -->
<!DOCTYPE svg PUBLIC "-//W3C//DTD SVG 1.1//EN" "http://www.w3.org/Graphics/SVG/1.1/DTD/svg11.dtd">
<svg version="1.1" id="Layer_1" xmlns="http://www.w3.org/2000/svg" xmlns:xlink="http://www.w3.org/1999/xlink" x="0px" y="0px"
	 viewBox="0 0 48 48" enable-background="new 0 0 48 48" xml:space="preserve">
<g>
	<g>
		<path fill="#294E58" d="M43.4,20.1c-0.4,0.3-1,0.3-1.4-0.1c-0.4-0.4-0.3-1,0.1-1.4c0,0,1.7-1.5,3.1-3.9c0,0-0.1-0.1-0.1-0.1
			c-1.8-0.8-4.1,0.5-5.2,2.9c-1.1,2.4-0.5,5,1.3,5.8c1.8,0.8,4.1-0.5,5.2-2.9c0.7-1.5,0.7-3.1,0.2-4.3C45.1,18.6,43.5,20,43.4,20.1z
			"/>
	</g>
	<g>
		<path fill="#294E58" d="M42.3,23.7c0,0,0,0-0.1,0.1c-0.1,0.1-0.3,0.2-0.4,0.3c-0.3,0.3-0.8,0.6-1.4,1c-0.6,0.4-1.4,0.8-2.2,1.1
			c-0.4,0.2-0.9,0.3-1.3,0.4c-0.5,0.1-1,0.2-1.5,0.3c-0.5,0-1,0.1-1.5,0c-0.5,0-1-0.1-1.5-0.3c-0.2-0.1-0.5-0.1-0.7-0.2
			c-0.2-0.1-0.4-0.2-0.6-0.3c-0.2-0.1-0.4-0.2-0.6-0.3c-0.2-0.1-0.3-0.2-0.5-0.3c-0.3-0.2-0.6-0.4-0.8-0.6c-0.2-0.2-0.4-0.4-0.5-0.5
			c-0.3-0.3-0.5-0.5-0.5-0.5c-0.4-0.4-0.4-1,0-1.4c0.3-0.3,0.9-0.4,1.2-0.1l0.1,0.1c0,0,0.2,0.1,0.4,0.3c0.1,0.1,0.3,0.2,0.5,0.4
			c0.2,0.1,0.4,0.2,0.6,0.4c0.1,0.1,0.2,0.1,0.4,0.2c0.1,0,0.3,0.1,0.4,0.1c0.1,0,0.3,0.1,0.4,0.1c0.2,0,0.3,0,0.5,0.1
			c0.3,0.1,0.6,0.1,1,0c0.3,0,0.7-0.1,1-0.2c0.3-0.1,0.7-0.2,1-0.3c0.3-0.1,0.6-0.3,0.9-0.5c0.6-0.3,1.1-0.7,1.6-1.1
			c0.4-0.4,0.8-0.7,1-0.9c0.1-0.1,0.2-0.2,0.2-0.2c0.1-0.1,0.1-0.1,0.1-0.1l0,0c0.7-0.8,1.9-0.8,2.7-0.1c0.8,0.7,0.8,1.9,0.1,2.7
			C42.4,23.6,42.4,23.6,42.3,23.7z"/>
	</g>
	<g>
		<path fill="#294E58" d="M27.5,4.8c-0.3,0.4-0.3,1,0.1,1.4c0.4,0.4,1,0.3,1.4-0.1c0,0,1.5-1.7,3.9-3.1c0,0,0.1,0.1,0.1,0.1
			c0.8,1.8-0.5,4.1-2.9,5.2c-2.4,1.1-5,0.5-5.8-1.3c-0.8-1.8,0.5-4.1,2.9-5.2c1.5-0.7,3.1-0.7,4.3-0.2C29,3.1,27.6,4.7,27.5,4.8z"/>
	</g>
	<g>
		<path fill="#294E58" d="M24,5.9c0,0,0,0-0.1,0.1c-0.1,0.1-0.2,0.3-0.3,0.4c-0.3,0.3-0.6,0.8-1,1.4c-0.4,0.6-0.8,1.4-1.1,2.2
			c-0.2,0.4-0.3,0.9-0.4,1.4c-0.1,0.5-0.2,1-0.3,1.5c0,0.5-0.1,1,0,1.5c0,0.5,0.1,1,0.3,1.5c0.1,0.2,0.1,0.5,0.2,0.7
			c0.1,0.2,0.2,0.4,0.3,0.6c0.1,0.2,0.2,0.4,0.3,0.6c0.1,0.2,0.2,0.3,0.3,0.5c0.2,0.3,0.4,0.6,0.6,0.8c0.2,0.2,0.4,0.4,0.5,0.5
			c0.3,0.3,0.5,0.5,0.5,0.5c0.4,0.4,1,0.4,1.4,0c0.3-0.3,0.4-0.9,0.1-1.2L25,18.6c0,0-0.1-0.2-0.3-0.4c-0.1-0.1-0.2-0.3-0.4-0.5
			c-0.1-0.2-0.2-0.4-0.4-0.6c-0.1-0.1-0.1-0.2-0.2-0.4c0-0.1-0.1-0.3-0.1-0.4c0-0.1-0.1-0.3-0.1-0.4c0-0.2,0-0.3-0.1-0.5
			c-0.1-0.3-0.1-0.6,0-1c0-0.3,0.1-0.7,0.2-1c0.1-0.3,0.2-0.7,0.3-1c0.1-0.3,0.3-0.6,0.5-0.9c0.3-0.6,0.7-1.1,1.1-1.6
			c0.4-0.4,0.7-0.8,0.9-1c0.1-0.1,0.2-0.2,0.2-0.2c0.1-0.1,0.1-0.1,0.1-0.1l0,0c0.8-0.7,0.8-1.9,0.1-2.7c-0.7-0.8-1.9-0.8-2.7-0.1
			C24.1,5.8,24,5.9,24,5.9z"/>
	</g>
	<path fill="#294E58" d="M12.8,29.8c-1.8,1.4-3.6,2.6-5.6,3.6c-2.4,1.3-5.2,2.7-6.1,5.2C1,39,1,39.3,1,39.5c0.1,0.4,0.3,0.7,0.6,0.9
		c1.3,1.3,2.6,2.7,4,4c0.6,0.6,1.2,1.2,1.9,1.7c0.3,0.3,0.7,0.5,1.1,0.6c0.7,0.1,1.4-0.2,2-0.6c3.7-2.7,3.4-8.5,6.8-11.5"/>
	<path fill="#294E58" d="M28.4,33c-0.3-0.3-0.4-0.8-0.2-1.2c1.1-2.3-1.3-3.7-1.4-3.8c-0.5-0.3-0.7-0.9-0.4-1.5
		c0.3-0.5,0.9-0.7,1.5-0.4c1.5,0.8,3.8,3.2,2.3,6.5c-0.2,0.5-0.9,0.8-1.4,0.5C28.6,33.2,28.5,33.1,28.4,33z"/>
	<path fill="#294E58" d="M24.9,36.5c-0.3-0.3-0.4-0.8-0.2-1.2c1.1-2.3-1.1-3.6-1.4-3.8c-0.5-0.3-0.7-0.9-0.4-1.5
		c0.3-0.5,0.9-0.7,1.4-0.4c1.5,0.8,3.8,3.2,2.3,6.5c-0.2,0.5-0.9,0.8-1.4,0.5C25.1,36.7,25,36.6,24.9,36.5z"/>
	<path fill="#294E58" d="M21.2,40.2c-0.3-0.3-0.4-0.8-0.2-1.2c1.1-2.3-1.3-3.7-1.4-3.8c-0.5-0.3-0.7-0.9-0.4-1.5
		c0.3-0.5,0.9-0.7,1.5-0.4c1.5,0.8,3.8,3.2,2.3,6.5c-0.2,0.5-0.9,0.8-1.4,0.5C21.4,40.4,21.3,40.3,21.2,40.2z"/>
	<path fill="#294E58" d="M15.1,19.7c-0.1-0.1-0.2-0.2-0.2-0.3c-0.2-0.5,0-1.2,0.5-1.4c3.3-1.5,5.7,0.8,6.5,2.3
		c0.3,0.5,0.1,1.2-0.4,1.5c-0.5,0.3-1.2,0.1-1.4-0.4c-0.2-0.3-1.5-2.5-3.8-1.4C15.9,20.1,15.4,20,15.1,19.7z"/>
	<path fill="#294E58" d="M11.5,23.2c-0.1-0.1-0.2-0.2-0.2-0.3c-0.2-0.5,0-1.2,0.5-1.4c3.3-1.5,5.7,0.8,6.5,2.3
		c0.3,0.5,0.1,1.2-0.4,1.5c-0.5,0.3-1.2,0.1-1.4-0.4c-0.1-0.3-1.5-2.5-3.8-1.4C12.3,23.6,11.9,23.5,11.5,23.2z"/>
	<path fill="#294E58" d="M7.8,26.9c-0.1-0.1-0.2-0.2-0.2-0.3c-0.2-0.5,0-1.2,0.5-1.4c3.3-1.5,5.7,0.8,6.5,2.3
		c0.3,0.5,0.1,1.2-0.4,1.5c-0.5,0.3-1.2,0.1-1.4-0.4c-0.2-0.3-1.5-2.5-3.8-1.4C8.6,27.3,8.2,27.2,7.8,26.9z"/>
	<path fill="#E77528" d="M34.1,13.9c-2.6-2.6-9.5,0.1-15.4,6c-5.9,5.9-8.6,12.8-6,15.4c2.6,2.6,9.5-0.1,15.4-6S36.7,16.5,34.1,13.9z
		 M26.9,17.9c-0.5-0.5-0.5-1.3,0-1.8c0.5-0.5,1.3-0.5,1.8,0c0.5,0.5,0.5,1.3,0,1.8C28.3,18.4,27.4,18.4,26.9,17.9z M30.1,21
		c-0.5-0.5-0.5-1.3,0-1.8c0.5-0.5,1.3-0.5,1.8,0c0.5,0.5,0.5,1.3,0,1.8C31.4,21.5,30.6,21.5,30.1,21z"/>
</g>
</svg>
