<?xml version="1.0" encoding="utf-8"?>
<!-- Generator: Adobe Illustrator 18.0.0, SVG Export Plug-In . SVG Version: 6.00 Build 0)  -->
<!DOCTYPE svg PUBLIC "-//W3C//DTD SVG 1.1//EN" "http://www.w3.org/Graphics/SVG/1.1/DTD/svg11.dtd">
<svg version="1.1" id="Layer_1" xmlns="http://www.w3.org/2000/svg" xmlns:xlink="http://www.w3.org/1999/xlink" x="0px" y="0px"
	 viewBox="0 0 48 48" enable-background="new 0 0 48 48" xml:space="preserve">
<g>
	<path fill="#E8B944" d="M19.5,41.6l-0.4-0.3c-0.4-0.3-8.8-7.6-8.8-15.3h2c0,5.9,6,11.9,7.7,13.4c2.6-0.8,13.8-4.8,13.9-12.1l2,0
		C35.7,37,20.6,41.3,20,41.5L19.5,41.6z"/>
	<path fill="#E8B944" d="M20.1,40.6l-1.3-1.5c6.5-5.7,4.5-17.3,4.5-17.4l2-0.4C25.3,21.9,27.4,34.2,20.1,40.6z"/>
	<path fill="#E8B944" d="M21.2,37.4c-4.6-5.1-2.6-15.6-2.5-16.1l2,0.4c0,0.1-1.9,9.9,2,14.3L21.2,37.4z"/>
	<path fill="#E8B944" d="M23,31.3h-3.2c-0.8,0-1.5,0.7-1.5,1.5v10.2c0,0.8,0.7,1.5,1.5,1.5H23c0.8,0,1.5-0.7,1.5-1.5V32.9
		C24.5,32,23.9,31.3,23,31.3z"/>
	<ellipse fill="#CFD0D1" cx="23.4" cy="13" rx="11.3" ry="9.6"/>
	<ellipse fill="#CFD0D1" cx="13.1" cy="18.9" rx="12.1" ry="9.6"/>
	
		<ellipse transform="matrix(0.9216 0.3882 -0.3882 0.9216 10.7777 -11.85)" fill="#CFD0D1" cx="34.7" cy="20.8" rx="12.7" ry="9.6"/>
</g>
</svg>
