<?xml version="1.0" encoding="utf-8"?>
<!-- Generator: Adobe Illustrator 18.0.0, SVG Export Plug-In . SVG Version: 6.00 Build 0)  -->
<!DOCTYPE svg PUBLIC "-//W3C//DTD SVG 1.1//EN" "http://www.w3.org/Graphics/SVG/1.1/DTD/svg11.dtd">
<svg version="1.1" id="Layer_1" xmlns="http://www.w3.org/2000/svg" xmlns:xlink="http://www.w3.org/1999/xlink" x="0px" y="0px"
	 viewBox="0 0 48 48" enable-background="new 0 0 48 48" xml:space="preserve">
<g>
	<path fill="#F7A93B" d="M24,20.2c-3.8,0-10.8-0.2-16-1.7l2.4,22.9c0,3.4,3.6,6.1,8.1,6.1h11c4.5,0,8.1-2.7,8.1-6l2.4-23
		C34.7,20,27.8,20.2,24,20.2z"/>
	<path fill="#4DA0D8" d="M44.5,12.6l-3.4-7.3C41,5.2,40.9,5,40.8,4.9c-1.2-3-9.3-4.4-16.8-4.4c-7.6,0-15.6,1.4-16.8,4.4
		C7.1,5,7,5.2,6.9,5.3l-3.4,7.3c-0.2,0.4-0.1,0.8,0.2,1.1C5,17.2,16.8,18.2,24,18.2c7.2,0,19-1,20.4-4.5
		C44.6,13.4,44.7,13,44.5,12.6z M24,16.2c-11.6,0-18.2-2.1-18.5-3.2L8,7.6c2.5,2.3,9.4,3.3,16,3.3c6.6,0,13.5-1.1,16-3.3l2.5,5.3
		C42.2,14.1,35.6,16.2,24,16.2z"/>
</g>
</svg>
