<?xml version="1.0" encoding="utf-8"?>
<!-- Generator: Adobe Illustrator 18.0.0, SVG Export Plug-In . SVG Version: 6.00 Build 0)  -->
<!DOCTYPE svg PUBLIC "-//W3C//DTD SVG 1.1//EN" "http://www.w3.org/Graphics/SVG/1.1/DTD/svg11.dtd">
<svg version="1.1" id="Layer_1" xmlns="http://www.w3.org/2000/svg" xmlns:xlink="http://www.w3.org/1999/xlink" x="0px" y="0px"
	 viewBox="0 0 48 48" enable-background="new 0 0 48 48" xml:space="preserve">
<g>
	<path fill="#CFD0D1" d="M38.7,9.3c-2.2-2.2-5.2-3.4-8.3-3.4c-3.1,0-6.1,1.2-8.3,3.4c-2.2,2.2-3.4,5.2-3.4,8.3
		c0,3.1,1.2,6.1,3.4,8.3c2.2,2.2,5.2,3.4,8.3,3.4c3.1,0,6.1-1.2,8.3-3.4c2.2-2.2,3.4-5.2,3.4-8.3C42.2,14.4,40.9,11.5,38.7,9.3z"/>
	<path fill="#E77528" d="M42.5,5.5c-6.7-6.7-17.5-6.7-24.1,0c-6.4,6.4-6.6,16.7-0.7,23.4L0.8,45.8c-0.4,0.4-0.4,1,0,1.4
		c0.2,0.2,0.5,0.3,0.7,0.3c0.3,0,0.5-0.1,0.7-0.3l16.9-16.9c6.7,6,17,5.8,23.4-0.7C49.2,23,49.2,12.2,42.5,5.5z M40.1,27.3
		c-2.6,2.6-6,4-9.7,4c-3.7,0-7.1-1.4-9.7-4c-2.6-2.6-4-6-4-9.7c0-3.7,1.4-7.1,4-9.7c2.6-2.6,6-4,9.7-4c3.7,0,7.1,1.4,9.7,4
		c2.6,2.6,4,6,4,9.7C44.2,21.2,42.7,24.7,40.1,27.3z"/>
</g>
</svg>
