<?xml version="1.0" encoding="utf-8"?>
<!-- Generator: Adobe Illustrator 18.0.0, SVG Export Plug-In . SVG Version: 6.00 Build 0)  -->
<!DOCTYPE svg PUBLIC "-//W3C//DTD SVG 1.1//EN" "http://www.w3.org/Graphics/SVG/1.1/DTD/svg11.dtd">
<svg version="1.1" id="Layer_1" xmlns="http://www.w3.org/2000/svg" xmlns:xlink="http://www.w3.org/1999/xlink" x="0px" y="0px"
	 viewBox="0 0 48 48" enable-background="new 0 0 48 48" xml:space="preserve">
<g>
	<path fill="#0DB89A" d="M27.4,2.5c0,0,0,0.1-0.1,0.1c0,0.1-0.1,0.2-0.2,0.3c-0.2,0.3-0.4,0.7-0.6,1.3c-0.2,0.5-0.5,1.2-0.6,1.9
		c-0.2,0.7-0.3,1.5-0.4,2.3c0,0.4-0.1,0.8-0.1,1.2c0,0.4,0,0.8,0,1.1c0,0.7,0.1,1.4,0.2,2c0.1,0.6,0.2,1,0.2,1.4
		c0.1,0.3,0.1,0.5,0.1,0.5l0,0.1c0.3,1.4-0.7,2.8-2.1,3.1C22.3,18,21,17,20.7,15.6c0-0.2-0.1-0.4,0-0.6c0,0,0-0.2,0-0.7
		c0-0.4,0-1,0.1-1.7c0.1-0.7,0.2-1.5,0.4-2.4c0.1-0.4,0.2-0.9,0.3-1.3C21.7,8.4,21.9,8,22,7.5c0.3-0.9,0.7-1.7,1.1-2.5
		c0.4-0.8,0.9-1.5,1.3-2c0.4-0.6,0.8-1,1.1-1.3c0.2-0.2,0.3-0.3,0.4-0.4C26,1.3,26,1.2,26,1.2c0.4-0.3,1-0.3,1.3,0.1
		C27.7,1.7,27.7,2.2,27.4,2.5z"/>
	<path fill="#CFD0D1" d="M42.9,30.3c-0.3-2.5-1.2-4.9-2.1-7.2c-0.2-0.6-4.8-4.9-5.6-5.3c-2.1-1.1-4.4-1.7-6.8-2c0,0,0,0,0,0
		c0,1.8-2.4,3.2-5.3,3.2c-2.6,0-4.8-1.1-5.2-2.6c-0.1,0-0.2,0-0.3,0.1c-1.4,0.3-2.8,0.7-4.2,1.1c-1,0.3-3.9,2.2-4.4,2.8
		c-1,1.2-1.9,2.4-2.6,3.8c-0.4,0.8-0.7,1.7-0.9,2.6c-1.1,4.8,0.1,9.8,2.6,14c0.3,0.5,0.6,1,0.9,1.4C8,40,7.4,37,7.4,33.6
		c0-6.8,2.3-12.3,5.2-12.3c0.4,0,0.8,0.1,1.2,0.4c-2.3,1.3-4,6.2-4,12s1.7,10.7,4,12c-0.1,0.1-0.2,0.1-0.3,0.2
		c1.2,0.5,2.6,0.8,3.9,1c-2.3-2.3-3.9-6.8-3.9-11.9c0-7.5,3.3-13.5,7.5-13.5c0.6,0,1.2,0.1,1.8,0.4c-3.3,1.4-5.7,6.8-5.7,13.1
		c0,5.4,1.8,10.1,4.3,12.2c2,0.1,3.9,0,5.9-0.3c2.4-2.3,4-6.8,4-11.9c0-6.4-2.4-11.7-5.7-13.1c0.6-0.3,1.2-0.4,1.8-0.4
		c4.1,0,7.5,6.1,7.5,13.5c0,4.6-1.3,8.7-3.2,11.1c1.2-0.3,2.4-0.6,3.6-1.1c1.8-1.9,3.1-6.2,3.1-11.3c0-5.8-1.7-10.7-4-12
		c0.4-0.2,0.8-0.4,1.2-0.4c2.9,0,5.2,5.5,5.2,12.3c0,4-0.8,7.5-2,9.8c0.6-0.3,1.1-0.7,1.5-1.2c1.2-1.2,1.7-3,2.1-4.7
		C42.8,35.2,43.1,32.7,42.9,30.3z"/>
</g>
</svg>
