<?xml version="1.0" encoding="utf-8"?>
<!-- Generator: Adobe Illustrator 18.0.0, SVG Export Plug-In . SVG Version: 6.00 Build 0)  -->
<!DOCTYPE svg PUBLIC "-//W3C//DTD SVG 1.1//EN" "http://www.w3.org/Graphics/SVG/1.1/DTD/svg11.dtd">
<svg version="1.1" id="Layer_1" xmlns="http://www.w3.org/2000/svg" xmlns:xlink="http://www.w3.org/1999/xlink" x="0px" y="0px"
	 viewBox="0 0 48 48" enable-background="new 0 0 48 48" xml:space="preserve">
<g>
	<circle fill="#06728D" cx="30.8" cy="30.2" r="5.5"/>
	<circle fill="#06728D" cx="17.2" cy="30.2" r="5.5"/>
	<circle fill="#06728D" cx="24" cy="42" r="5.5"/>
	<circle fill="#06728D" cx="24" cy="18.3" r="5.5"/>
	<circle fill="#06728D" cx="10.3" cy="18.3" r="5.5"/>
	<circle fill="#06728D" cx="37.7" cy="18.3" r="5.5"/>
	<line fill="#0DB89A" x1="17.8" y1="1.5" x2="37" y2="1.5"/>
	<path fill="#0DB89A" d="M37,2.5H17.8c-0.6,0-1-0.4-1-1c0-0.6,0.4-1,1-1H37c0.6,0,1,0.4,1,1C38,2.1,37.5,2.5,37,2.5z"/>
	<path fill="#0DB89A" d="M24,14c-0.5,0-0.9-0.3-1-0.8c-0.1-0.4-1.5-10,5.3-12.6c0.5-0.2,1.1,0.1,1.3,0.6c0.2,0.5-0.1,1.1-0.6,1.3
		c-5.3,2-4,10.3-4,10.4c0.1,0.5-0.3,1.1-0.8,1.1C24.1,14,24.1,14,24,14z"/>
</g>
</svg>
