<?xml version="1.0" encoding="utf-8"?>
<!-- Generator: Adobe Illustrator 18.0.0, SVG Export Plug-In . SVG Version: 6.00 Build 0)  -->
<!DOCTYPE svg PUBLIC "-//W3C//DTD SVG 1.1//EN" "http://www.w3.org/Graphics/SVG/1.1/DTD/svg11.dtd">
<svg version="1.1" id="Layer_1" xmlns="http://www.w3.org/2000/svg" xmlns:xlink="http://www.w3.org/1999/xlink" x="0px" y="0px"
	 viewBox="0 0 48 48" enable-background="new 0 0 48 48" xml:space="preserve">
<g>
	<path fill="#F04B36" d="M12.5,16.2c-0.4,0-0.7-0.2-0.7-0.6L9.7,5l-6-3c-0.4-0.2-0.5-0.6-0.3-1c0.2-0.4,0.6-0.5,1-0.3l6.3,3.2
		c0.2,0.1,0.4,0.3,0.4,0.5l2.2,11c0.1,0.4-0.2,0.8-0.6,0.9C12.6,16.2,12.6,16.2,12.5,16.2z"/>
	<path fill="#010101" d="M36.9,12.9l-4.7,0.2c0.1,1.3,0.7,2.4,1.5,3.2L36.9,12.9z"/>
	<path fill="#010101" d="M37.4,13.3l-3.2,3.4c0.9,0.8,2.1,1.2,3.3,1.3L37.4,13.3z"/>
	<path fill="#E77528" d="M36.9,12.3l-3.4-3.2c-0.8,0.9-1.2,2.1-1.3,3.3L36.9,12.3z"/>
	<path fill="#E77528" d="M37.8,7.1l0.2,4.7l3.2-3.4C40.2,7.6,39,7.2,37.8,7.1z"/>
	<path fill="#E77528" d="M37.3,11.8l-0.2-4.7c-1.3,0.1-2.4,0.7-3.3,1.5L37.3,11.8z"/>
	<path fill="#E77528" d="M38.4,12.2l4.7-0.2c-0.1-1.3-0.7-2.4-1.5-3.3L38.4,12.2z"/>
	<path fill="#E77528" d="M38,13.3l0.2,4.7c1.3-0.1,2.4-0.7,3.2-1.5L38,13.3z"/>
	<path fill="#E77528" d="M37.4,5.5c-3.9,0.1-7,3.4-6.8,7.3c0.1,3.9,3.4,7,7.3,6.8c3.9-0.1,7-3.4,6.8-7.3C44.6,8.4,41.3,5.4,37.4,5.5
		z M37.9,18.6c-3.3,0.1-6.2-2.5-6.3-5.9c-0.1-3.3,2.5-6.2,5.9-6.3c3.3-0.1,6.2,2.5,6.3,5.9C43.8,15.7,41.2,18.5,37.9,18.6z"/>
	<path fill="#E77528" d="M38.4,12.9l3.4,3.2c0.8-0.9,1.2-2.1,1.3-3.3L38.4,12.9z"/>
	<path fill="#F7A93B" d="M38.5,11.9H5.8c0,8.7,6.8,15.8,15.4,16.3v17.4h-5.5c-0.5,0-0.9,0.4-0.9,0.9c0,0.5,0.4,0.9,0.9,0.9h12.8
		c0.5,0,0.9-0.4,0.9-0.9c0-0.5-0.4-0.9-0.9-0.9h-5.5V28.2C31.7,27.7,38.5,20.6,38.5,11.9z"/>
</g>
</svg>
