<?xml version="1.0" encoding="utf-8"?>
<!-- Generator: Adobe Illustrator 18.0.0, SVG Export Plug-In . SVG Version: 6.00 Build 0)  -->
<!DOCTYPE svg PUBLIC "-//W3C//DTD SVG 1.1//EN" "http://www.w3.org/Graphics/SVG/1.1/DTD/svg11.dtd">
<svg version="1.1" id="Layer_1" xmlns="http://www.w3.org/2000/svg" xmlns:xlink="http://www.w3.org/1999/xlink" x="0px" y="0px"
	 viewBox="0 0 48 48" enable-background="new 0 0 48 48" xml:space="preserve">
<g>
	<path fill="#0DB89A" d="M35.8,17.5L47,14.9l-2.4-2.4h-3.8V8.7l-1.5-1.5h-3.8V3.4L33.1,1l-2.7,11l-2.6-2.6c-0.9-0.9-2.3-0.9-3.2,0
		L9.5,24.7c-0.9,0.9-0.9,2.3,0,3.2l2.6,2.6L1,33.1l2.4,2.4h3.8v3.8l1.5,1.5h3.8l0,3.8l2.4,2.4l2.7-11l2.3,2.3c0.9,0.9,2.3,0.9,3.2,0
		l15.2-15.2c0.9-0.9,0.9-2.3,0-3.2L35.8,17.5z"/>
</g>
</svg>
