<?xml version="1.0" encoding="utf-8"?>
<!-- Generator: Adobe Illustrator 18.0.0, SVG Export Plug-In . SVG Version: 6.00 Build 0)  -->
<!DOCTYPE svg PUBLIC "-//W3C//DTD SVG 1.1//EN" "http://www.w3.org/Graphics/SVG/1.1/DTD/svg11.dtd">
<svg version="1.1" id="Layer_1" xmlns="http://www.w3.org/2000/svg" xmlns:xlink="http://www.w3.org/1999/xlink" x="0px" y="0px"
	 viewBox="0 0 48 48" enable-background="new 0 0 48 48" xml:space="preserve">
<g>
	<path fill="#F7A93B" d="M46.2,4.5c-0.9-1.1-2.2-2.1-3.7-2.1c-0.8,0-1.6,0.3-2.4,0.5C36.7,3.6,33.3,2,29.9,1.6
		C26.4,1.2,23,2,19.8,3.2c-0.6,0.2-1.2,0.5-1.9,0.7C9.4,7.6,3.8,16.3,1.6,25.4c-0.5,1.9-0.8,4-0.4,5.9c0.4,1.8,1.4,3.5,1.5,5.4
		c0.1,0.9-0.2,2-0.7,2.8c-1.2,1.8-0.5,4.3,1.5,4.7c0.3,0.1,0.7,0.1,1,0.1c1,0,1.9-0.5,2.9-0.7c2.5-0.4,5,1,7.4,1.8
		c4.1,1.5,8.8,1.3,12.8-0.3c0.7-0.3,1.4-0.7,2.1-1.1c8.6-5.3,12.1-10.1,15.1-17.9c2.3-6,1.6-13,2.1-18.8C47.1,6.3,46.8,5.3,46.2,4.5
		z"/>
</g>
</svg>
