<?xml version="1.0" encoding="utf-8"?>
<!-- Generator: Adobe Illustrator 18.0.0, SVG Export Plug-In . SVG Version: 6.00 Build 0)  -->
<!DOCTYPE svg PUBLIC "-//W3C//DTD SVG 1.1//EN" "http://www.w3.org/Graphics/SVG/1.1/DTD/svg11.dtd">
<svg version="1.1" id="Layer_1" xmlns="http://www.w3.org/2000/svg" xmlns:xlink="http://www.w3.org/1999/xlink" x="0px" y="0px"
	 viewBox="0 0 48 48" enable-background="new 0 0 48 48" xml:space="preserve">
<g>
	<path fill="#06728D" d="M18.2,29.3c-2.3-0.5-4.6,1.1-5.1,3.4c-0.5,2.3,1.1,4.6,3.4,5.1c2.3,0.5,4.6-1.1,5.1-3.4
		C22.1,32.1,20.6,29.8,18.2,29.3z"/>
	<circle fill="#06728D" cx="26.1" cy="26.5" r="4.3"/>
	<circle fill="#06728D" cx="34.9" cy="19.5" r="4.3"/>
	<circle fill="#06728D" cx="28.6" cy="38.5" r="4.3"/>
	<circle fill="#06728D" cx="37.3" cy="31.4" r="4.3"/>
	<path fill="#06728D" d="M40.4,38.9c-2.3-0.5-4.6,1.1-5.1,3.4c-0.5,2.3,1.1,4.6,3.4,5.1c2.3,0.5,4.6-1.1,5.1-3.4
		C44.3,41.7,42.8,39.4,40.4,38.9z"/>
	<path fill="#0DB89A" d="M22.6,17.3c0.2,0.2,7.9-3.1,6.6-7.9c-1.1-4.5-0.8-8.9-0.8-8.9C12.1,9.3,22.6,17.3,22.6,17.3z"/>
	<path fill="#0DB89A" d="M20.2,21.9c0.3,0.3,0.7,0.5,1.1,0.5c0.3,0,0.6-0.1,0.9-0.3c0.6-0.5,0.7-1.4,0.2-2c-8-10-17.4-5.3-17.5-5.3
		c-0.7,0.4-1,1.2-0.6,1.9c0.4,0.7,1.2,1,1.9,0.6C6.2,17.4,13.6,13.7,20.2,21.9z"/>
</g>
</svg>
