<?xml version="1.0" encoding="utf-8"?>
<!-- Generator: Adobe Illustrator 18.0.0, SVG Export Plug-In . SVG Version: 6.00 Build 0)  -->
<!DOCTYPE svg PUBLIC "-//W3C//DTD SVG 1.1//EN" "http://www.w3.org/Graphics/SVG/1.1/DTD/svg11.dtd">
<svg version="1.1" id="Layer_1" xmlns="http://www.w3.org/2000/svg" xmlns:xlink="http://www.w3.org/1999/xlink" x="0px" y="0px"
	 viewBox="0 0 48 48" enable-background="new 0 0 48 48" xml:space="preserve">
<g>
	<path fill="#FFD69A" d="M36.8,31.4c-0.5-0.2-0.9-0.3-1.4-0.4c-3.6-0.6-7.2-0.8-10.8-0.5c-0.3,0-0.8,0.1-0.8,0.5
		c0,0.2,0.2,0.5,0.4,0.6c1,0.7,2.1,1,3.2,1.4c3.2,1.2,1.1,1.8,0.9,1.8c-0.9,0.1-1.7,0.1-2.6,0.1c-2.8-0.2-5.4-1.2-8-2.2
		c-1.4-0.5-2.8-1.1-4.1-1.9c-0.4-0.3-1.1-0.1-1.4,0.4c-0.3,0.4-0.3,1,0,1.4c0.1,0.2,0.4,0.4,0.6,0.6c0.8,0.7,1.6,1.4,2.4,2.1
		c0.9,0.8,1.7,1.5,2.7,2.1c1.2,0.7,2.6,1,3.8,1.6c0.6,0.3,1.3,0.8,2,1c0.5,0.1,1.1,0.2,1.6,0.2c2.9,0,5.8,0,8.7-0.1
		c0.6,0,1.3,0,1.9,0.2c0.9,0.3,2.3,1.2,2.9,2l0.6-9.7C38.4,32.6,37.7,31.8,36.8,31.4z"/>
	<path fill="#06728D" d="M38.5,31.1v14.6H47V31.1H38.5z M42.8,44.4c-0.5,0-0.9-0.4-0.9-0.9c0-0.5,0.4-0.9,0.9-0.9
		c0.5,0,0.9,0.4,0.9,0.9C43.7,44,43.3,44.4,42.8,44.4z"/>
	<path fill="#F7A93B" d="M39.8,19.8c-1.2-7.7-7.4-13.7-15.2-14.6c0.1-0.2,0.1-0.5,0.1-0.7c0-1.2-1-2.2-2.2-2.2c-1.2,0-2.2,1-2.2,2.2
		c0,0.3,0,0.5,0.1,0.7c-7.8,0.9-14,6.9-15.2,14.6C2.6,20.6,1,21.5,1,22.5c0,2.4,9.7,4.4,21.6,4.4c11.9,0,21.6-2,21.6-4.4
		C44.3,21.5,42.6,20.6,39.8,19.8z"/>
</g>
</svg>
