<?xml version="1.0" encoding="utf-8"?>
<!-- Generator: Adobe Illustrator 18.0.0, SVG Export Plug-In . SVG Version: 6.00 Build 0)  -->
<!DOCTYPE svg PUBLIC "-//W3C//DTD SVG 1.1//EN" "http://www.w3.org/Graphics/SVG/1.1/DTD/svg11.dtd">
<svg version="1.1" id="Layer_1" xmlns="http://www.w3.org/2000/svg" xmlns:xlink="http://www.w3.org/1999/xlink" x="0px" y="0px"
	 viewBox="0 0 48 48" enable-background="new 0 0 48 48" xml:space="preserve">
<g>
	<path fill="none" d="M44.4,5.1L22.6,26.9c5.6-3,17.7-12.5,20.5-15.3C45,9.7,45.5,7,44.4,5.1z"/>
	<path fill="none" d="M36.4,4.9c-2.8,2.8-12.4,14.9-15.3,20.5L42.9,3.6C41,2.5,38.3,3,36.4,4.9z"/>
	<path fill="#294E58" d="M19.1,24.8c-1.1-1.1-2.9-1.1-4,0L1.8,38.1c-1.1,1.1-1.1,2.9,0,4l4.1,4.1c1.1,1.1,2.9,1.1,4,0l13.3-13.3
		c1.1-1.1,1.1-2.9,0-4L19.1,24.8L19.1,24.8z"/>
	<path fill="#CFD0D1" d="M44.5,13c3-3,3.3-7.6,0.7-10.2C42.6,0.2,38,0.5,35,3.5c-1.4,1.4-6.1,7.1-10.1,12.5c-3.1,4.2-4.8,7-5.8,9
		l4,4l-0.1-0.1c1.9-0.9,4.8-2.7,9-5.8C37.5,19.1,43.1,14.4,44.5,13z M36.4,4.9C38.3,3,41,2.5,42.9,3.6L21.1,25.4
		C24.1,19.8,33.6,7.7,36.4,4.9z M22.6,26.9L44.4,5.1c1.1,1.9,0.6,4.6-1.3,6.5C40.3,14.4,28.2,23.9,22.6,26.9z"/>
</g>
</svg>
