<?xml version="1.0" encoding="utf-8"?>
<!-- Generator: Adobe Illustrator 18.0.0, SVG Export Plug-In . SVG Version: 6.00 Build 0)  -->
<!DOCTYPE svg PUBLIC "-//W3C//DTD SVG 1.1//EN" "http://www.w3.org/Graphics/SVG/1.1/DTD/svg11.dtd">
<svg version="1.1" id="Layer_1" xmlns="http://www.w3.org/2000/svg" xmlns:xlink="http://www.w3.org/1999/xlink" x="0px" y="0px"
	 viewBox="0 0 48 48" enable-background="new 0 0 48 48" xml:space="preserve">
<g>
	<path fill="#06728D" d="M15.4,34.9c0-3,1-6.2,2.9-9.1c0.4-0.6,0.9-1.3,1.6-1.9v-1.2C19.6,19,15.5,15.7,15.6,6V4.5
		c0.3,0,0.5-0.3,0.5-0.6V1.6C16,1.3,15.8,1,15.6,1h-3.4c-0.3,0-0.5,0.3-0.5,0.6v2.3c0,0.3,0.2,0.6,0.5,0.6V6c0,9.7-4,12.9-4.4,16.7
		v21.1c0,1.8,1.1,3.2,2.4,3.2h3.6h0h3.6c1.3,0,2.3-1.3,2.4-2.9C17.2,42,15.5,38.5,15.4,34.9z"/>
	<path fill="#F04B36" d="M40,32.1c-0.4-1.8-1.2-3.5-2.3-5.1c-0.2-0.3-0.4-0.6-0.7-0.9c-0.3-0.3-0.7-0.6-1.1-0.8
		c-0.3-0.1-0.5-0.3-0.8-0.4c-0.2,0.2-0.4,0.3-0.6,0.4c-0.5,0.3-1,0.6-1.6,0.9c0.3,1.1,0.6,2.3,0.9,3.5l0.4,1.8l-1.7-0.7
		c-1.5-0.6-2.6-1.8-3.5-2.9c-0.5,0.4-1.2,0.6-1.9,0.8c-0.5,0.1-1.1,0.2-1.8,0.2c-0.4,0-0.7,0-1.1,0l-1.5-0.1l0.6-1.4
		c0.4-0.9,1-1.7,1.7-2.3c-0.5-0.3-0.9-0.6-1.4-0.9c-0.1,0-0.2,0-0.3,0.1c-1.4,0.5-2.4,1.6-3.2,2.8c-1.6,2.3-2.6,5.1-2.6,7.9
		c0.1,3.9,2.5,7.7,6.1,9.1c1.8,0.7,3.8,0.7,5.7,0.8c2.4,0,5.1-0.1,6.9-1.6c1-0.8,1.6-1.9,2.3-3c0.5-0.8,0.9-1.6,1.2-2.5
		C40.3,35.8,40.4,33.9,40,32.1z"/>
	<path fill="#0DB89A" d="M27,24.7c-1.2,0.7-2.2,1.7-2.8,3c0.9,0,1.8,0.1,2.6-0.1c0.9-0.2,1.7-0.6,2.3-1.3c1,1.4,2.1,2.9,3.7,3.5
		c-0.3-1.4-0.7-2.8-1.1-4.2c0.8-0.4,1.5-0.8,2.3-1.2c0.4-0.2,0.8-0.5,0.9-0.9c-1.5-0.6-3.1-0.8-4.7-0.6c0.1-0.4,0.2-0.7,0.4-1.1
		c0.1-0.3,0.2-0.7,0.2-1.1c-0.1-0.4-0.4-0.7-0.7-0.7c-0.4,0-0.6,0.4-0.8,0.7c-0.4,0.7-0.7,1.3-1.1,2c-0.3-0.2-0.4-0.6-0.6-0.9
		c-0.1-0.1-0.3-0.2-0.5-0.2c-1.3-0.2-2.6-0.1-3.9,0.3C24,23.3,25.4,24.2,27,24.7z"/>
</g>
</svg>
