<?xml version="1.0" encoding="utf-8"?>
<!-- Generator: Adobe Illustrator 18.0.0, SVG Export Plug-In . SVG Version: 6.00 Build 0)  -->
<!DOCTYPE svg PUBLIC "-//W3C//DTD SVG 1.1//EN" "http://www.w3.org/Graphics/SVG/1.1/DTD/svg11.dtd">
<svg version="1.1" id="Layer_1" xmlns="http://www.w3.org/2000/svg" xmlns:xlink="http://www.w3.org/1999/xlink" x="0px" y="0px"
	 viewBox="0 0 48 48" enable-background="new 0 0 48 48" xml:space="preserve">
<g>
	<path fill="#E8B944" d="M18.9,24.7c-0.7-0.7-1.8-0.6-2.4,0L1.4,39.8c-0.6,0.7-0.5,1.7,0.2,2.4l4.3,4c0.7,0.7,1.8,0.7,2.4,0
		l13.8-16.3c0.6-0.7,0.5-1.7-0.2-2.4L18.9,24.7z"/>
	<path fill="#CFD0D1" d="M22.7,11.8c-1.1,1.1-1.7,2.6-1.7,4.1l0,5.8l-0.7,0.8c0.1,0.1,0.2,0.2,0.4,0.3l3,2.8
		c0.2,0.2,0.4,0.4,0.5,0.6L47,1.5C47,1.5,35.5-0.8,22.7,11.8z"/>
</g>
</svg>
