<?xml version="1.0" encoding="utf-8"?>
<!-- Generator: Adobe Illustrator 18.0.0, SVG Export Plug-In . SVG Version: 6.00 Build 0)  -->
<!DOCTYPE svg PUBLIC "-//W3C//DTD SVG 1.1//EN" "http://www.w3.org/Graphics/SVG/1.1/DTD/svg11.dtd">
<svg version="1.1" id="Layer_1" xmlns="http://www.w3.org/2000/svg" xmlns:xlink="http://www.w3.org/1999/xlink" x="0px" y="0px"
	 viewBox="0 0 48 48" enable-background="new 0 0 48 48" xml:space="preserve">
<g>
	<path fill="#F04B36" d="M14.4,4.7L14.5,5l0,0.1l0,0l0,0c0,0,0-0.1,0,0l0,0l0,0l0,0.1c0,0.1,0.1,0.3,0.1,0.4c0,0.1,0.1,0.2,0.1,0.4
		c0,0.3,0.1,0.6,0.1,0.8c0,0.3,0,0.6,0,0.8c0,0.3,0,0.6-0.1,0.8c0,0.3-0.1,0.5-0.1,0.7c-0.1,0.5-0.1,0.9-0.2,1.1
		c0,0.3-0.1,0.4-0.1,0.4s0.1-0.1,0.3-0.4c0.2-0.2,0.5-0.6,0.7-1c0.3-0.4,0.5-1,0.7-1.6c0.2-0.6,0.2-1.3,0.1-2c0-0.2-0.1-0.4-0.1-0.6
		C16.1,5,16,4.9,16,4.8l-0.1-0.1l0-0.1l-0.1-0.2c-0.1-0.1-0.1-0.3-0.2-0.4c-0.1-0.3-0.2-0.5-0.3-0.7c-0.1-0.2-0.1-0.5-0.1-0.7
		c-0.1-0.4,0-0.8,0-1.1c0-0.3,0.1-0.4,0.1-0.4s-0.2,0.1-0.4,0.4c-0.2,0.2-0.4,0.6-0.6,1.1c-0.1,0.3-0.1,0.5-0.1,0.8
		c0,0.3,0,0.6,0.1,0.9C14.3,4.4,14.3,4.6,14.4,4.7z"/>
	<path fill="#F04B36" d="M18.5,4.7L18.6,5l0,0.1l0,0l0,0c0,0,0-0.1,0,0l0,0l0,0l0,0.1c0,0.1,0.1,0.3,0.1,0.4c0,0.1,0.1,0.2,0.1,0.4
		c0,0.3,0.1,0.6,0.1,0.8c0,0.3,0,0.6,0,0.8c0,0.3,0,0.6-0.1,0.8c0,0.3-0.1,0.5-0.1,0.7c-0.1,0.5-0.1,0.9-0.2,1.1
		c0,0.3-0.1,0.4-0.1,0.4s0.1-0.1,0.3-0.4c0.2-0.2,0.5-0.6,0.7-1c0.3-0.4,0.5-1,0.7-1.6c0.2-0.6,0.2-1.3,0.1-2c0-0.2-0.1-0.4-0.1-0.6
		c-0.1-0.2-0.1-0.3-0.2-0.5L20,4.6l0-0.1l-0.1-0.2c-0.1-0.1-0.1-0.3-0.2-0.4c-0.1-0.3-0.2-0.5-0.3-0.7c-0.1-0.2-0.1-0.5-0.1-0.7
		c-0.1-0.4,0-0.8,0-1.1c0-0.3,0.1-0.4,0.1-0.4S19.2,1.1,19,1.4c-0.2,0.2-0.4,0.6-0.6,1.1c-0.1,0.3-0.1,0.5-0.1,0.8
		c0,0.3,0,0.6,0.1,0.9C18.4,4.4,18.5,4.6,18.5,4.7z"/>
	<path fill="#F04B36" d="M22.7,4.7L22.7,5l0,0.1l0,0l0,0c0,0,0-0.1,0,0l0,0l0,0l0,0.1c0,0.1,0.1,0.3,0.1,0.4C23,5.7,23,5.8,23,6
		c0,0.3,0.1,0.6,0.1,0.8c0,0.3,0,0.6,0,0.8c0,0.3,0,0.6-0.1,0.8c0,0.3-0.1,0.5-0.1,0.7c-0.1,0.5-0.1,0.9-0.2,1.1
		c0,0.3-0.1,0.4-0.1,0.4s0.1-0.1,0.3-0.4c0.2-0.2,0.5-0.6,0.7-1c0.3-0.4,0.5-1,0.7-1.6c0.2-0.6,0.2-1.3,0.1-2c0-0.2-0.1-0.4-0.1-0.6
		c-0.1-0.2-0.1-0.3-0.2-0.5l-0.1-0.1l0-0.1L24,4.3c-0.1-0.1-0.1-0.3-0.2-0.4c-0.1-0.3-0.2-0.5-0.3-0.7c-0.1-0.2-0.1-0.5-0.1-0.7
		c-0.1-0.4,0-0.8,0-1.1c0-0.3,0.1-0.4,0.1-0.4s-0.2,0.1-0.4,0.4c-0.2,0.2-0.4,0.6-0.6,1.1c-0.1,0.3-0.1,0.5-0.1,0.8
		c0,0.3,0,0.6,0.1,0.9C22.6,4.4,22.6,4.6,22.7,4.7z"/>
	<path fill="#4DA0D8" d="M30.9,17.6c-0.3,0-0.5,0-0.8,0v-3.5H15.4v9.4h1.9c1,0,1.7,0.8,1.7,1.7v6.1c0,1-0.8,1.7-1.7,1.7h-4.9
		c-1,0-1.7-0.8-1.7-1.7v-6.1c0-1,0.8-1.7,1.7-1.7h1.9v-9.4H8.6v27.4c0,3,2.4,5.4,5.4,5.4h10.6c3,0,5.4-2.4,5.4-5.4v-7
		c0.3,0,0.5,0,0.8,0c4.7,0,8.5-3.8,8.5-8.5C39.4,21.4,35.6,17.6,30.9,17.6z M30.9,31.4c-0.3,0-0.5,0-0.8-0.1V20.8
		c0.3,0,0.5-0.1,0.8-0.1c2.9,0,5.3,2.4,5.3,5.3C36.2,29,33.8,31.4,30.9,31.4z"/>
</g>
</svg>
