<?xml version="1.0" encoding="utf-8"?>
<!-- Generator: Adobe Illustrator 18.0.0, SVG Export Plug-In . SVG Version: 6.00 Build 0)  -->
<!DOCTYPE svg PUBLIC "-//W3C//DTD SVG 1.1//EN" "http://www.w3.org/Graphics/SVG/1.1/DTD/svg11.dtd">
<svg version="1.1" id="Layer_1" xmlns="http://www.w3.org/2000/svg" xmlns:xlink="http://www.w3.org/1999/xlink" x="0px" y="0px"
	 viewBox="0 0 48 48" enable-background="new 0 0 48 48" xml:space="preserve">
<g>
	<path fill="#0DB89A" d="M12.2,6.2c1.7,1,2.9,3.1,3.6,5c2.5-1.1,5.3-1.7,8.2-1.7c2.9,0,5.7,0.6,8.2,1.7c0.8-1.9,1.9-4,3.6-5
		c0.4-0.2,0.6-0.7,0.4-1.1c-0.1-0.4-0.6-0.7-1-0.7c-0.6,0-5,0.4-7.8,2.2c-0.3-1.6-1.1-4-2.8-5.4c0,0-0.1,0-0.1-0.1
		c-0.1,0-0.1-0.1-0.2-0.1c-0.1,0-0.1,0-0.2,0c-0.1,0-0.1,0-0.2,0c-0.1,0-0.1,0-0.2,0c-0.1,0-0.1,0-0.2,0.1c-0.1,0-0.1,0.1-0.2,0.1
		c0,0-0.1,0-0.1,0.1c-1.7,1.4-2.5,3.8-2.8,5.4c-2.8-1.8-7.2-2.2-7.8-2.2c-0.4,0-0.9,0.2-1,0.7C11.6,5.5,11.8,6,12.2,6.2z"/>
	<path fill="#F04B36" d="M24,11.9c-9.7,0-17.5,7.9-17.5,17.5C6.5,39.1,14.3,47,24,47s17.5-7.9,17.5-17.5
		C41.5,19.8,33.7,11.9,24,11.9z M15.2,34.2c-1.2,0-2.1-1-2.1-2.1c0-1.2,1-2.1,2.1-2.1c1.2,0,2.1,1,2.1,2.1
		C17.4,33.3,16.4,34.2,15.2,34.2z M15.2,23.7c-1.2,0-2.1-1-2.1-2.1s1-2.1,2.1-2.1c1.2,0,2.1,1,2.1,2.1S16.4,23.7,15.2,23.7z
		 M21.3,27.1c0-1.2,1-2.1,2.1-2.1c1.2,0,2.1,1,2.1,2.1c0,1.2-1,2.1-2.1,2.1C22.3,29.2,21.3,28.2,21.3,27.1z M24.1,43.1
		c-1.2,0-2.1-1-2.1-2.1c0-1.2,1-2.1,2.1-2.1c1.2,0,2.1,1,2.1,2.1C26.2,42.1,25.3,43.1,24.1,43.1z M29.6,20.7c0-1.2,1-2.1,2.1-2.1
		c1.2,0,2.1,1,2.1,2.1c0,1.2-1,2.1-2.1,2.1C30.6,22.8,29.6,21.9,29.6,20.7z M32.8,34.4c-1.2,0-2.1-1-2.1-2.1c0-1.2,1-2.1,2.1-2.1
		c1.2,0,2.1,1,2.1,2.1C34.9,33.4,33.9,34.4,32.8,34.4z"/>
</g>
</svg>
