<?xml version="1.0" encoding="utf-8"?>
<!-- Generator: Adobe Illustrator 18.0.0, SVG Export Plug-In . SVG Version: 6.00 Build 0)  -->
<!DOCTYPE svg PUBLIC "-//W3C//DTD SVG 1.1//EN" "http://www.w3.org/Graphics/SVG/1.1/DTD/svg11.dtd">
<svg version="1.1" id="Layer_1" xmlns="http://www.w3.org/2000/svg" xmlns:xlink="http://www.w3.org/1999/xlink" x="0px" y="0px"
	 viewBox="0 0 48 48" enable-background="new 0 0 48 48" xml:space="preserve">
<g>
	<circle fill-rule="evenodd" clip-rule="evenodd" fill="#E8B944" cx="3.8" cy="41.6" r="1"/>
	<circle fill-rule="evenodd" clip-rule="evenodd" fill="#E8B944" cx="7.4" cy="42.6" r="1"/>
	<circle fill-rule="evenodd" clip-rule="evenodd" fill="#E8B944" cx="2.4" cy="45.1" r="1"/>
	<circle fill-rule="evenodd" clip-rule="evenodd" fill="#E8B944" cx="5.4" cy="46" r="1"/>
	<path fill="#06728D" d="M9,27.2l-0.7,0.7c-3.1,3.1-3.1,8.2,0,11.4c1.5,1.5,3.5,2.4,5.7,2.4c2.1,0,4.2-0.8,5.7-2.4l0.7-0.7L9,27.2z"
		/>
	<path fill="#E77528" d="M45.6,15.4L32.2,2c-0.7-0.7-1.5-1-2.4-1c-1.1,0-2,0.5-2.7,1.4L9.2,25.6c-1.2,1.6-1.1,4.1,0.4,5.5l7,7
		c0.8,0.8,1.8,1.2,3,1.2c0.9,0,1.8-0.3,2.5-0.8l23.2-17.9c0.8-0.6,1.3-1.5,1.4-2.5C46.7,17.1,46.3,16.1,45.6,15.4z M28.6,3.5
		c0.3-0.4,0.7-0.6,1.2-0.6c0.4,0,0.8,0.2,1.1,0.5l12.5,12.5c-0.2,0-0.3,0.1-0.5,0.1c-1.3,0.4-2.5,1.4-3.8,1.8
		c-1,0.3-2.2,0.3-3.2,0.4c-5.4,0.1-11.1,0.7-15.7,3.6c-1.7,1.1-3.2,2.4-5.1,3.3c-1.2,0.6-2.5,0.9-3.8,1L28.6,3.5z"/>
</g>
</svg>
