<?xml version="1.0" encoding="utf-8"?>
<!-- Generator: Adobe Illustrator 18.0.0, SVG Export Plug-In . SVG Version: 6.00 Build 0)  -->
<!DOCTYPE svg PUBLIC "-//W3C//DTD SVG 1.1//EN" "http://www.w3.org/Graphics/SVG/1.1/DTD/svg11.dtd">
<svg version="1.1" id="Layer_1" xmlns="http://www.w3.org/2000/svg" xmlns:xlink="http://www.w3.org/1999/xlink" x="0px" y="0px"
	 viewBox="0 0 48 48" enable-background="new 0 0 48 48" xml:space="preserve">
<g>
	<path fill="#06728D" d="M40.8,8.4H7.2C3.8,8.4,1,11.2,1,14.6v18.9c0,3.4,2.8,6.2,6.2,6.2h33.6c3.4,0,6.2-2.8,6.2-6.2V14.6
		C47,11.2,44.2,8.4,40.8,8.4z M31.2,32.9H7.1V15.1h24.1V32.9z M39.1,32.2c-1.7,0-3.1-1.4-3.1-3.1c0-1.7,1.4-3.1,3.1-3.1
		c1.7,0,3.1,1.4,3.1,3.1C42.2,30.8,40.8,32.2,39.1,32.2z M42.9,20.3h-7.6v-4.5h7.6V20.3z"/>
</g>
</svg>
