<?xml version="1.0" encoding="utf-8"?>
<!-- Generator: Adobe Illustrator 18.0.0, SVG Export Plug-In . SVG Version: 6.00 Build 0)  -->
<!DOCTYPE svg PUBLIC "-//W3C//DTD SVG 1.1//EN" "http://www.w3.org/Graphics/SVG/1.1/DTD/svg11.dtd">
<svg version="1.1" id="Layer_1" xmlns="http://www.w3.org/2000/svg" xmlns:xlink="http://www.w3.org/1999/xlink" x="0px" y="0px"
	 viewBox="0 0 48 48" enable-background="new 0 0 48 48" xml:space="preserve">
<g>
	<path fill="#E8B944" d="M24.6,38.1L22.4,43c0.5,0,1.1,0.1,1.6,0.1c0.9,0,1.9-0.1,2.8-0.2l1.8,4.1c0.2,0.4,0.5,0.6,0.9,0.6
		c0.1,0,0.3,0,0.4-0.1c0.5-0.2,0.7-0.8,0.5-1.3l-1.6-3.6c-0.7,0.2-1.3,0.3-2,0.4L24.6,38.1z"/>
	<path fill="#E8B944" d="M30.4,22.9L30.4,22.9L30.4,22.9c1,0.4,2,0.5,3,0.1c1-0.4,1.8-1.1,2.2-2l2.1-4.5c0.9-2,0-4.3-2-5.2
		c-1-0.4-2-0.5-3-0.1c-1,0.4-1.8,1.1-2.2,2c0,0,0,0,0,0l-2.1,4.5v0c-0.4,0.9-0.5,2-0.1,3C28.7,21.7,29.5,22.5,30.4,22.9z"/>
	<path fill="#E8B944" d="M20.3,42.7L20.3,42.7l-1.2,2.6c-0.2,0.5,0,1.1,0.5,1.3c0.1,0.1,0.3,0.1,0.4,0.1c0.4,0,0.7-0.2,0.9-0.6
		l1.4-3.1C21.7,42.9,21,42.8,20.3,42.7C20.3,42.7,20.3,42.7,20.3,42.7z"/>
	<path fill="#E8B944" d="M45.3,21.8C45.3,10,35.8,0.5,24,0.5C12.2,0.5,2.7,10,2.7,21.8c0,10.5,7.6,19.2,17.6,20.9l3.2-7L19,25.9
		c-0.5,0.1-1,0.2-1.5,0.2c-0.7,0-1.4-0.1-2.1-0.4c-1.5-0.5-2.7-1.6-3.3-3.1c0,0,0,0,0,0l-4.1-9c-0.2-0.5,0-1.1,0.5-1.3
		c0.5-0.2,1.1,0,1.3,0.5l4.1,9v0c0.4,0.9,1.2,1.7,2.2,2c1,0.4,2,0.3,3-0.1c2-0.9,2.9-3.2,2-5.2v0l-4.1-9c-0.2-0.5,0-1.1,0.5-1.3
		c0.5-0.2,1.1,0,1.3,0.5l4.1,9v0c1.2,2.6,0.3,5.7-2.1,7.3l3.8,8.2l4.1-9.1c-1-0.7-1.8-1.6-2.2-2.8c-0.6-1.5-0.5-3.1,0.1-4.5l0,0
		l2.2-4.9c0.1-0.1,0.1-0.2,0.2-0.3c0.7-1.1,1.7-2,2.9-2.4c1.5-0.5,3.1-0.5,4.5,0.2c2.8,1.3,4.2,4.5,3.1,7.4c0,0,0,0.1,0,0.1
		l-2.2,4.9c-0.7,1.4-1.8,2.5-3.3,3.1c-0.7,0.2-1.4,0.4-2.1,0.4c-0.5,0-1-0.1-1.5-0.2l-4.8,10.6l3.1,6.8
		C38.2,40.3,45.3,31.9,45.3,21.8z M18.4,19.7c0.2,0.5,0,1.1-0.5,1.3c-0.1,0.1-0.3,0.1-0.4,0.1c-0.4,0-0.7-0.2-0.9-0.6l-4.1-9
		c-0.2-0.5,0-1.1,0.5-1.3c0.5-0.2,1.1,0,1.3,0.5L18.4,19.7z"/>
</g>
</svg>
