<?xml version="1.0" encoding="utf-8"?>
<!-- Generator: Adobe Illustrator 18.0.0, SVG Export Plug-In . SVG Version: 6.00 Build 0)  -->
<!DOCTYPE svg PUBLIC "-//W3C//DTD SVG 1.1//EN" "http://www.w3.org/Graphics/SVG/1.1/DTD/svg11.dtd">
<svg version="1.1" id="Layer_1" xmlns="http://www.w3.org/2000/svg" xmlns:xlink="http://www.w3.org/1999/xlink" x="0px" y="0px"
	 viewBox="0 0 48 48" enable-background="new 0 0 48 48" xml:space="preserve">
<g>
	<path fill="#E77528" d="M42.5,29.2l0.1,0.4c0.1,0.5-0.2,0.9-0.7,1.1l-4,1.1c-4.5,1.3-9.2,1.9-13.9,1.9s-9.3-0.6-13.9-1.9l-4-1.1
		c-0.5-0.1-0.7-0.6-0.7-1.1l0.1-0.4C2.7,30,1,31,1,32c0,2.6,10.3,4.7,23,4.7s23-2.1,23-4.7C47,31,45.3,30,42.5,29.2z"/>
	<path fill="#0DB89A" d="M26.9,11.3h-5.9c-1.3,1.5-2.6,6-3.1,13.3c-0.1,1.4-0.3,4.8-0.5,6.8c4.3,0.6,8.7,0.6,13,0
		c-0.1-2-0.3-5.3-0.5-6.7C29.5,17.1,28.2,12.8,26.9,11.3z"/>
	<path fill="#0DB89A" d="M39.2,22.7c-1.3-6-4.6-11-10.2-11.4c1.6,3,2.4,8.4,2.8,13.2c0.1,1.4,0.3,4.6,0.4,6.6
		c1.7-0.3,3.4-0.7,5.1-1.1l3.1-0.9C40.4,29.1,39.5,24.3,39.2,22.7z"/>
	<path fill="#0DB89A" d="M16.2,24.5c0.3-4,1-9.9,2.8-13.2c-5.5,0.4-9,5.6-10.1,11.4c-0.3,1.6-1.2,6.4-1.2,6.4l3.1,0.9
		c1.7,0.5,3.4,0.9,5.1,1.1C15.9,29.1,16.1,25.9,16.2,24.5z"/>
</g>
</svg>
