<?xml version="1.0" encoding="utf-8"?>
<!-- Generator: Adobe Illustrator 18.0.0, SVG Export Plug-In . SVG Version: 6.00 Build 0)  -->
<!DOCTYPE svg PUBLIC "-//W3C//DTD SVG 1.1//EN" "http://www.w3.org/Graphics/SVG/1.1/DTD/svg11.dtd">
<svg version="1.1" id="Layer_1" xmlns="http://www.w3.org/2000/svg" xmlns:xlink="http://www.w3.org/1999/xlink" x="0px" y="0px"
	 viewBox="0 0 48 48" enable-background="new 0 0 48 48" xml:space="preserve">
<g>
	<circle fill="#06728D" cx="11" cy="29.9" r="4.5"/>
	<circle fill="#06728D" cx="16.6" cy="20.3" r="4.5"/>
	<circle fill="#06728D" cx="5.5" cy="20.3" r="4.5"/>
	<line fill="#0DB89A" x1="6.2" y1="5.7" x2="21.8" y2="5.7"/>
	<path fill="#0DB89A" d="M21.8,6.5H6.2c-0.5,0-0.8-0.4-0.8-0.8c0-0.5,0.4-0.8,0.8-0.8h15.6c0.5,0,0.8,0.4,0.8,0.8
		C22.6,6.2,22.3,6.5,21.8,6.5z"/>
	<path fill="#0DB89A" d="M11.2,15.9c-0.4,0-0.7-0.3-0.8-0.7c-0.1-0.3-1.2-8.1,4.3-10.3c0.4-0.2,0.9,0,1.1,0.5c0.2,0.4,0,0.9-0.5,1.1
		C11,8.1,12,14.9,12,14.9c0.1,0.4-0.2,0.9-0.7,0.9C11.3,15.9,11.3,15.9,11.2,15.9z"/>
	<polygon fill="#E8B944" points="44.2,43.1 3.8,43.1 1,38.5 47,38.5 	"/>
	<ellipse transform="matrix(-0.3171 -0.9484 0.9484 -0.3171 20.9263 62.5698)" fill="none" cx="33" cy="23.8" rx="1.7" ry="0.8"/>
	<ellipse transform="matrix(0.3171 -0.9484 0.9484 0.3171 3.3322 52.1293)" fill="none" cx="37.9" cy="23.8" rx="1.7" ry="0.8"/>
	<path fill="#0DB89A" d="M43.1,8.3c0.3-0.1,0.5-0.4,0.4-0.7c-0.1-0.3-0.4-0.5-0.7-0.4c-1.8,0.4-3.2,1.1-4.3,2
		c-0.9-1.2-2.6-1.1-3.4-0.9c-0.1-0.1-0.2-0.2-0.3-0.3C33.7,7,30.8,5.7,26.2,11c-0.3,0.3-0.1,0.8,0.3,0.9c6.7,2.2,8.5-0.4,9-2
		c0.1-0.2,0.1-0.4,0.1-0.5c0.7-0.1,1.8-0.1,2.2,0.6c-2.5,2.5-2.9,5.6-2.9,5.8l1.1,0C36.1,14.9,37.2,9.7,43.1,8.3z"/>
	<path fill="#F04B36" d="M42.4,13.3c-1.8-0.4-3.6,0.3-5.2,1.8c-0.3,0.3-0.7,0.5-1.2,0.6l-1.1,0c-0.4-0.1-0.9-0.3-1.2-0.6
		c-1.6-1.5-3.5-2.2-5.2-1.8c-3.7,0.8-5.5,6.2-4.2,12c1.4,5.8,5.4,9.8,9.1,9c0.5-0.1,0.9-0.3,1.3-0.6c0.4-0.3,1-0.3,1.4,0
		c0.4,0.3,0.9,0.4,1.3,0.6c3.7,0.8,7.7-3.2,9.1-9C47.9,19.5,46.1,14.2,42.4,13.3z M33.5,25.3c-0.4,0.1-1-0.5-1.3-1.3
		c-0.3-0.9-0.2-1.7,0.2-1.9s1,0.5,1.3,1.3C34,24.4,33.9,25.2,33.5,25.3z M38.6,24c-0.3,0.9-0.9,1.5-1.3,1.3c-0.4-0.1-0.5-1-0.2-1.9
		c0.3-0.9,0.9-1.5,1.3-1.3C38.8,22.3,38.9,23.1,38.6,24z"/>
</g>
</svg>
