<?xml version="1.0" encoding="utf-8"?>
<!-- Generator: Adobe Illustrator 18.0.0, SVG Export Plug-In . SVG Version: 6.00 Build 0)  -->
<!DOCTYPE svg PUBLIC "-//W3C//DTD SVG 1.1//EN" "http://www.w3.org/Graphics/SVG/1.1/DTD/svg11.dtd">
<svg version="1.1" id="Layer_1" xmlns="http://www.w3.org/2000/svg" xmlns:xlink="http://www.w3.org/1999/xlink" x="0px" y="0px"
	 viewBox="0 0 48 48" enable-background="new 0 0 48 48" xml:space="preserve">
<g>
	<path fill="#F7A93B" d="M28.2,11.2L23,6c-1.3,1.4-2,3.2-2.2,5.2H28.2z"/>
	<path fill="#F7A93B" d="M29.9,3.1v7.4l5.2-5.2C33.7,4,31.9,3.2,29.9,3.1z"/>
	<path fill="#F7A93B" d="M28.9,10.5V3.1c-2,0.1-3.8,0.9-5.2,2.2L28.9,10.5z"/>
	<path fill="#F7A93B" d="M30.6,11.2H38c-0.1-2-0.9-3.8-2.2-5.2L30.6,11.2z"/>
	<path fill="#F7A93B" d="M29.9,12.9v7.4c2-0.1,3.8-0.9,5.2-2.2L29.9,12.9z"/>
	<path fill="#F7A93B" d="M29.4,0.5c-6.2,0-11.2,5-11.2,11.2c0,6.2,5,11.2,11.2,11.2s11.2-5,11.2-11.2C40.6,5.5,35.6,0.5,29.4,0.5z
		 M29.4,21.3c-5.3,0-9.6-4.3-9.6-9.6c0-5.3,4.3-9.6,9.6-9.6c5.3,0,9.6,4.3,9.6,9.6C39,17,34.7,21.3,29.4,21.3z"/>
	<path fill="#F7A93B" d="M30.6,12.2l5.2,5.2c1.3-1.4,2-3.2,2.2-5.2H30.6z"/>
	<line fill="#06728D" x1="18.4" y1="30.9" x2="18.4" y2="46.5"/>
	<path fill="#06728D" d="M18.4,47.5c-0.6,0-1-0.4-1-1V30.9c0-0.6,0.4-1,1-1c0.6,0,1,0.4,1,1v15.6C19.4,47.1,19,47.5,18.4,47.5z"/>
	<line fill="#06728D" x1="26.2" y1="46.5" x2="10.6" y2="46.5"/>
	<path fill="#06728D" d="M26.2,47.5H10.6c-0.6,0-1-0.4-1-1c0-0.6,0.4-1,1-1h15.6c0.6,0,1,0.4,1,1C27.2,47.1,26.8,47.5,26.2,47.5z"/>
	<path fill="#010101" d="M28.2,12.2h-7.4c0.1,2,0.9,3.8,2.2,5.2L28.2,12.2z"/>
	<path fill="#010101" d="M28.9,12.9l-5.2,5.2c1.4,1.3,3.2,2,5.2,2.2V12.9z"/>
	<path fill="#E77528" d="M29.1,11.2H7.8c0,0-3.2,21.9,10.6,23.3l0,0c0,0,0.1,0,0.1,0c0,0,0.1,0,0.1,0l0,0
		C32.3,33.1,29.1,11.2,29.1,11.2z"/>
</g>
</svg>
