<?xml version="1.0" encoding="utf-8"?>
<!-- Generator: Adobe Illustrator 18.0.0, SVG Export Plug-In . SVG Version: 6.00 Build 0)  -->
<!DOCTYPE svg PUBLIC "-//W3C//DTD SVG 1.1//EN" "http://www.w3.org/Graphics/SVG/1.1/DTD/svg11.dtd">
<svg version="1.1" id="Layer_1" xmlns="http://www.w3.org/2000/svg" xmlns:xlink="http://www.w3.org/1999/xlink" x="0px" y="0px"
	 viewBox="0 0 48 48" enable-background="new 0 0 48 48" xml:space="preserve">
<g>
	<path fill="#294E58" d="M12.9,29h-1.4v-1.4c0-0.5-0.4-1-1-1c-0.5,0-1,0.4-1,1V29c-1.7,0.2-2.9,1.2-2.9,2.4v1.5c0,0.5,0.4,1,1,1
		c0.5,0,1-0.4,1-1l0-1.5c0.1-0.2,0.7-0.6,1.7-0.6h2.6c0.5,0,1-0.4,1-1C13.9,29.4,13.4,29,12.9,29z"/>
	<path fill="#294E58" d="M8.9,47.7c-0.1,0-0.3,0-0.4-0.1C8,47.4,7.8,46.9,8,46.4l5.4-12.3c0.2-0.5,0.8-0.7,1.3-0.5
		c0.5,0.2,0.7,0.8,0.5,1.3L9.7,47.2C9.6,47.5,9.2,47.7,8.9,47.7z"/>
	<path fill="#294E58" d="M40.4,47.7c-0.4,0-0.7-0.2-0.9-0.6l-5.4-12.3c-0.2-0.5,0-1.1,0.5-1.3c0.5-0.2,1.1,0,1.3,0.5l5.4,12.3
		c0.2,0.5,0,1.1-0.5,1.3C40.6,47.7,40.5,47.7,40.4,47.7z"/>
	<path fill="#294E58" d="M24.6,46.9c-0.5,0-1-0.4-1-1V36c0-0.5,0.4-1,1-1s1,0.4,1,1v10C25.6,46.5,25.1,46.9,24.6,46.9z"/>
	<path fill="#06728D" d="M28.5,3.9V1.2c0-0.5-0.4-1-1-1h-5.9c-0.5,0-1,0.4-1,1v2.6C16.2,4.5,13,6.3,13,8.3h23.1
		C36.2,6.3,33,4.5,28.5,3.9z M22.6,3.6V2.2h3.9v1.4c-0.6,0-1.3-0.1-2-0.1C23.9,3.6,23.3,3.6,22.6,3.6z"/>
	<rect x="13" y="11.1" fill="#4DA0D8" width="23.1" height="24.9"/>
</g>
</svg>
