<?xml version="1.0" encoding="utf-8"?>
<!-- Generator: Adobe Illustrator 18.0.0, SVG Export Plug-In . SVG Version: 6.00 Build 0)  -->
<!DOCTYPE svg PUBLIC "-//W3C//DTD SVG 1.1//EN" "http://www.w3.org/Graphics/SVG/1.1/DTD/svg11.dtd">
<svg version="1.1" id="Layer_1" xmlns="http://www.w3.org/2000/svg" xmlns:xlink="http://www.w3.org/1999/xlink" x="0px" y="0px"
	 viewBox="0 0 48 48" enable-background="new 0 0 48 48" xml:space="preserve">
<g>
	<path fill="#CFD0D1" d="M46.1,27.3L38.9,3.5C38.5,2,37.1,1,35.5,1H12.5c-1.6,0-2.9,1-3.4,2.5L1.9,27.3c-0.7,2.2,1,4.5,3.4,4.5h37.4
		C45.1,31.8,46.7,29.5,46.1,27.3z M15.1,24.9c0,0.6-0.5,1-1,1c-0.6,0-1-0.5-1-1v-1.5c0-0.6,0.5-1,1-1c0.6,0,1,0.5,1,1V24.9z
		 M15.1,16.5c0,0.6-0.5,1-1,1c-0.6,0-1-0.5-1-1v-1.5c0-0.6,0.5-1,1-1c0.6,0,1,0.5,1,1V16.5z M16.5,5.7c0,0.6-0.5,1-1,1
		c-0.6,0-1-0.5-1-1V4.2c0-0.6,0.5-1,1-1c0.6,0,1,0.5,1,1V5.7z M21,10.3V8.8c0-0.6,0.5-1,1-1c0.6,0,1,0.5,1,1v1.5c0,0.6-0.5,1-1,1
		C21.5,11.4,21,10.9,21,10.3z M23.5,18.8c0,0.6-0.5,1-1,1c-0.6,0-1-0.5-1-1v-1.5c0-0.6,0.5-1,1-1c0.6,0,1,0.5,1,1V18.8z M27.6,28
		c0,0.6-0.5,1-1,1s-1-0.5-1-1v-1.5c0-0.6,0.5-1,1-1s1,0.5,1,1V28z M27.6,5c0,0.6-0.5,1-1,1s-1-0.5-1-1V3.4c0-0.6,0.5-1,1-1
		s1,0.5,1,1V5z M31.6,18c0,0.6-0.5,1-1,1c-0.6,0-1-0.5-1-1v-1.5c0-0.6,0.5-1,1-1c0.6,0,1,0.5,1,1V18z M34.9,24.9c0,0.6-0.5,1-1,1
		s-1-0.5-1-1v-1.5c0-0.6,0.5-1,1-1s1,0.5,1,1V24.9z M34.9,8c0,0.6-0.5,1-1,1s-1-0.5-1-1V6.5c0-0.6,0.5-1,1-1s1,0.5,1,1V8z"/>
	<path fill="#E8B944" d="M42.7,33.8H5.3c-1.7,0-3.2-0.7-4.3-2v11.7C1,45.4,2.6,47,4.5,47c0.9,0,1.8-0.4,2.5-1l9.7-9.7
		c0.7-0.7,1.6-1,2.5-1h9.6c0.9,0,1.8,0.4,2.5,1L41,46c0.7,0.7,1.6,1,2.5,1h0c1.9,0,3.5-1.6,3.5-3.5V31.8
		C45.9,33.1,44.4,33.8,42.7,33.8z"/>
</g>
</svg>
