<?xml version="1.0" encoding="utf-8"?>
<!-- Generator: Adobe Illustrator 18.0.0, SVG Export Plug-In . SVG Version: 6.00 Build 0)  -->
<!DOCTYPE svg PUBLIC "-//W3C//DTD SVG 1.1//EN" "http://www.w3.org/Graphics/SVG/1.1/DTD/svg11.dtd">
<svg version="1.1" id="Layer_1" xmlns="http://www.w3.org/2000/svg" xmlns:xlink="http://www.w3.org/1999/xlink" x="0px" y="0px"
	 viewBox="0 0 48 48" enable-background="new 0 0 48 48" xml:space="preserve">
<g>
	<path fill="#F04B36" d="M32.9,12.5c-0.6,0-1-0.4-1-1V3.4H16.3v6.1c0,0.6-0.4,1-1,1c-0.6,0-1-0.4-1-1V2.4c0-0.6,0.4-1,1-1h17.7
		c0.6,0,1,0.4,1,1v9.1C33.9,12,33.5,12.5,32.9,12.5z"/>
	<path fill="#CFD0D1" d="M16.2,46.3L16.2,46.3c-0.6,0-1-0.4-1-1l0-16.6c0-0.6,0.4-1,1-1l0,0c0.6,0,1,0.4,1,1l0,16.6
		C17.2,45.9,16.8,46.3,16.2,46.3z"/>
	<path fill="#CFD0D1" d="M16.2,46.6c-0.2,0-0.3,0-0.5-0.1l-5-2.9c-0.3-0.2-0.5-0.5-0.5-0.9l0-6.2c0-0.3,0.2-0.6,0.4-0.8l5-3.3
		c0.3-0.2,0.8-0.2,1.1,0l5,3.3c0.3,0.2,0.4,0.5,0.4,0.8v6.2c0,0.4-0.2,0.7-0.5,0.9l-5,2.9C16.6,46.6,16.4,46.6,16.2,46.6z
		 M12.3,42.2l4,2.3l4-2.3v-5.1l-4-2.7l-4,2.7L12.3,42.2z"/>
	<path fill="#06728D" d="M42.5,16.6c0-2.7-1.5-5.2-3.9-6.4c-10.2-5.2-27-3.4-27-3.4c-3.4,0-6.1,2.7-6.1,6.1l0,9.8
		c0,3.4,2.7,6.1,6.1,6.1l24.8,0c3.4,0,6.1-2.7,6.1-6.1v-0.8L42.5,16.6z M18.1,22.9c-3,0-5.4-2.4-5.4-5.4c0-3,2.4-5.4,5.4-5.4
		c3,0,5.4,2.4,5.4,5.4C23.5,20.5,21.1,22.9,18.1,22.9z"/>
</g>
</svg>
