<?xml version="1.0" encoding="utf-8"?>
<!-- Generator: Adobe Illustrator 18.0.0, SVG Export Plug-In . SVG Version: 6.00 Build 0)  -->
<!DOCTYPE svg PUBLIC "-//W3C//DTD SVG 1.1//EN" "http://www.w3.org/Graphics/SVG/1.1/DTD/svg11.dtd">
<svg version="1.1" id="Layer_1" xmlns="http://www.w3.org/2000/svg" xmlns:xlink="http://www.w3.org/1999/xlink" x="0px" y="0px"
	 viewBox="0 0 48 48" enable-background="new 0 0 48 48" xml:space="preserve">
<g>
	<path fill="#294E58" d="M46.5,11.2L3.9,33.8c-1,0.5-2.2,0.1-2.7-0.8c-0.5-1-0.1-2.2,0.8-2.7c0,0,0.1,0,0.1,0L45.8,9.6
		c0.4-0.2,1,0,1.2,0.4C47.1,10.5,46.9,11,46.5,11.2z"/>
	<path fill="#294E58" d="M36.9,2.5L15.4,45.7c-0.5,1-1.7,1.4-2.6,0.9c-1-0.5-1.4-1.7-0.9-2.6c0,0,0-0.1,0-0.1L35.4,1.7
		c0.2-0.4,0.8-0.6,1.2-0.3C37,1.5,37.1,2.1,36.9,2.5z"/>
</g>
</svg>
