<?xml version="1.0" encoding="utf-8"?>
<!-- Generator: Adobe Illustrator 18.0.0, SVG Export Plug-In . SVG Version: 6.00 Build 0)  -->
<!DOCTYPE svg PUBLIC "-//W3C//DTD SVG 1.1//EN" "http://www.w3.org/Graphics/SVG/1.1/DTD/svg11.dtd">
<svg version="1.1" id="Layer_1" xmlns="http://www.w3.org/2000/svg" xmlns:xlink="http://www.w3.org/1999/xlink" x="0px" y="0px"
	 viewBox="0 0 48 48" enable-background="new 0 0 48 48" xml:space="preserve">
<g>
	<path fill="#0DB89A" d="M24.5,14.1c-0.1,0-0.1,0-0.2,0c-0.6-0.1-0.9-0.6-0.9-1.2C23.5,12.6,25,4,30.8,1.1c0.5-0.3,1.1,0,1.4,0.5
		c0.3,0.5,0,1.1-0.5,1.4c-4.9,2.4-6.2,10.2-6.2,10.3C25.4,13.8,25,14.1,24.5,14.1z"/>
	<path fill="#0DB89A" d="M12.9,10c0,0,9.1,5.9,13-2.9C26,7.1,20.8-0.4,12.9,10z"/>
	<path fill="#E77528" d="M11.8,29.8c0-6,1.7-11.3,4.3-14.8c-0.9-0.5-1.8-0.8-2.7-0.8c-4.9,0-8.8,4.2-8.8,13.2c0,9,5,18.3,9.8,18.3
		c1.1,0,1.7,0,2.4-0.4C13.7,41.9,11.8,36.3,11.8,29.8z"/>
	<path fill="#E77528" d="M34.7,14.2c-1,0-1.9,0.3-2.7,0.8c2.7,3.5,4.3,8.8,4.3,14.8c0,6.5-2,12.1-5,15.6c0.7,0.3,1.3,0.4,2.4,0.4
		c4.9,0,9.8-9.3,9.8-18.3C43.5,18.4,39.5,14.2,34.7,14.2z"/>
	<ellipse fill="#E77528" cx="24" cy="29.8" rx="10.2" ry="17.2"/>
</g>
</svg>
