<?xml version="1.0" encoding="utf-8"?>
<!-- Generator: Adobe Illustrator 18.0.0, SVG Export Plug-In . SVG Version: 6.00 Build 0)  -->
<!DOCTYPE svg PUBLIC "-//W3C//DTD SVG 1.1//EN" "http://www.w3.org/Graphics/SVG/1.1/DTD/svg11.dtd">
<svg version="1.1" id="Layer_1" xmlns="http://www.w3.org/2000/svg" xmlns:xlink="http://www.w3.org/1999/xlink" x="0px" y="0px"
	 viewBox="0 0 48 48" enable-background="new 0 0 48 48" xml:space="preserve">
<g>
	<path fill="#E77528" d="M45,10.7l0.1,0.3l0.1,0.1l0,0l0,0c0,0,0-0.1,0,0l0,0l0,0l0,0.1c0.1,0.2,0.2,0.4,0.2,0.5
		c0,0.1,0.1,0.3,0.1,0.4c0.1,0.3,0.1,0.7,0.1,1c0,0.3,0,0.7,0,1c0,0.3-0.1,0.7-0.1,1c0,0.3-0.1,0.6-0.1,0.9c-0.1,0.6-0.2,1-0.2,1.4
		c0,0.3-0.1,0.5-0.1,0.5s0.2-0.1,0.5-0.4c0.3-0.3,0.6-0.7,1-1.2c0.4-0.5,0.7-1.2,0.9-1.9c0.2-0.7,0.3-1.6,0.2-2.4
		c0-0.2-0.1-0.5-0.2-0.7c-0.1-0.2-0.2-0.4-0.3-0.6L47,10.5L47,10.4l-0.1-0.2c-0.1-0.1-0.2-0.3-0.2-0.5c-0.1-0.3-0.3-0.6-0.4-0.9
		C46.2,8.6,46.1,8.3,46,8C46,7.5,46,7,46,6.7c0-0.3,0.1-0.5,0.1-0.5s-0.2,0.1-0.5,0.4c-0.3,0.3-0.6,0.8-0.8,1.4
		c-0.1,0.3-0.2,0.6-0.2,1c0,0.4,0,0.7,0.1,1.1C44.9,10.3,44.9,10.5,45,10.7z"/>
	<path fill="#F04B36" d="M24,8.2c0.7-0.5,1.1-1.4,1.1-2.4C25.1,4.3,24,3,22.7,3c-1.4,0-2.5,1.3-2.5,2.8c0,1,0.5,1.9,1.1,2.4
		c-3.6,0.6-6.3,3.4-6.3,6.8h15.2C30.2,11.6,27.5,8.8,24,8.2z"/>
	<path fill="#06728D" d="M42.8,20.3l-0.1-3.3c0,0-4.1,2.6-4.6,6.1c-0.5,3.4-2.6,4-2.6,4l-1.6,11.8c0,0,9.2-1.2,9.1-9.9
		c-0.1-8.7,1.9-7.8,1.9-7.8L42.8,20.3z"/>
	<path fill="#06728D" d="M3.5,28.7c0-3.6,2.9-6.6,6.5-6.7c0.4-1.1,1-2.2,1.6-3.1c-0.4-0.1-0.9-0.1-1.4-0.1c-5.5,0-9.9,4.4-9.9,9.9
		s4.4,9.9,9.9,9.9c0,0,0.1,0,0.1,0c-0.4-1.1-0.7-2.1-0.9-3.2C6.1,35,3.5,32.2,3.5,28.7z"/>
	<path fill="#0DB89A" d="M32,16.9H13.4c-2.8,2.8-4.6,7-4.6,12.5c0,5.6,1.8,11.5,4.7,15.6h18.3c2.9-4.1,4.7-10,4.7-15.6
		C36.5,23.9,34.8,19.6,32,16.9z"/>
</g>
</svg>
