<?xml version="1.0" encoding="utf-8"?>
<!-- Generator: Adobe Illustrator 18.0.0, SVG Export Plug-In . SVG Version: 6.00 Build 0)  -->
<!DOCTYPE svg PUBLIC "-//W3C//DTD SVG 1.1//EN" "http://www.w3.org/Graphics/SVG/1.1/DTD/svg11.dtd">
<svg version="1.1" id="Layer_1" xmlns="http://www.w3.org/2000/svg" xmlns:xlink="http://www.w3.org/1999/xlink" x="0px" y="0px"
	 viewBox="0 0 48 48" enable-background="new 0 0 48 48" xml:space="preserve">
<g>
	<g>
		<g>
			<path fill="#4DA0D8" d="M26.7,33.5c3.2,0,3.2-5,0-5S23.5,33.5,26.7,33.5L26.7,33.5z"/>
		</g>
	</g>
	<path fill="none" d="M31,12.9c-0.3-0.4-1-0.6-1.5-0.3l-5.7,3.1l-5.4-3.1c-0.5-0.3-1.2-0.2-1.5,0.3c-0.3,0.4-0.2,1,0.3,1.3l5.1,2.9
		v1.9h2.2v-1.4l6.1-3.3C31.2,13.9,31.3,13.3,31,12.9z"/>
	<rect x="14.3" y="18.9" fill="none" width="5.8" height="3.2"/>
	<rect x="28" y="18.9" fill="none" width="5.8" height="3.2"/>
	<path fill="none" d="M13.8,36.8c-0.6,0-1.1,0.4-1.1,1v4.4c0,0.5,0.5,1,1.1,1c0.6,0,1.1-0.4,1.1-1v-4.4
		C14.9,37.2,14.4,36.8,13.8,36.8z"/>
	<path fill="#4DA0D8" d="M38,24.5H10l-3,13c-0.2,0.8-0.2,1.7,0,2.5l1.4,7h31.1l1.4-7c0.2-0.8,0.2-1.7,0-2.5L38,24.5z M14.9,42.1
		c0,0.5-0.5,1-1.1,1c-0.6,0-1.1-0.4-1.1-1v-4.4c0-0.5,0.5-1,1.1-1c0.6,0,1.1,0.4,1.1,1V42.1z"/>
	<path fill="#E8B944" d="M37.4,22.1h-1.5v-3.2v-2.7V4.7c0-2-2.1-3.7-4.6-3.7H16.7c-2.5,0-4.6,1.7-4.6,3.7v11.5v2.7v3.2h-1.5L10,24.5
		H38L37.4,22.1z M20,22.1h-5.8v-3.2H20V22.1z M24.5,18.9h-2.2v-1.9l-5.1-2.9c-0.5-0.3-0.6-0.9-0.3-1.3c0.3-0.4,1-0.6,1.5-0.3
		l5.4,3.1l5.7-3.1c0.5-0.3,1.2-0.1,1.5,0.3c0.3,0.4,0.2,1-0.4,1.3l-6.1,3.3V18.9z M33.8,22.1H28v-3.2h5.8V22.1z"/>
</g>
</svg>
