<?xml version="1.0" encoding="utf-8"?>
<!-- Generator: Adobe Illustrator 18.0.0, SVG Export Plug-In . SVG Version: 6.00 Build 0)  -->
<!DOCTYPE svg PUBLIC "-//W3C//DTD SVG 1.1//EN" "http://www.w3.org/Graphics/SVG/1.1/DTD/svg11.dtd">
<svg version="1.1" id="Layer_1" xmlns="http://www.w3.org/2000/svg" xmlns:xlink="http://www.w3.org/1999/xlink" x="0px" y="0px"
	 viewBox="0 0 48 48" enable-background="new 0 0 48 48" xml:space="preserve">
<g>
	<path fill="#0DB89A" d="M26,12.3c-0.6,0-1-0.4-1-1V6.4c0-0.6,0.4-1,1-1s1,0.4,1,1v4.9C27,11.8,26.6,12.3,26,12.3z"/>
	<path fill="#0DB89A" d="M20.1,12.3c-0.6,0-1-0.4-1-1V1.5c0-0.6,0.4-1,1-1s1,0.4,1,1v9.8C21.1,11.8,20.6,12.3,20.1,12.3z"/>
	<path fill="#0DB89A" d="M14.1,12.3c-0.6,0-1-0.4-1-1V6.4c0-0.6,0.4-1,1-1c0.6,0,1,0.4,1,1v4.9C15.1,11.8,14.6,12.3,14.1,12.3z"/>
	<path fill="#E77528" d="M47.5,27.5c-0.2-1.6-1-2.3-1.7-2.6c-2-0.9-4.8,0.6-6.2,1.5c0-0.4,0-0.8,0-1.3h0c0,0,0,0,0,0
		c0-0.1,0-0.2,0-0.3c0-5.5-8.8-10-19.6-10s-19.6,4.5-19.6,10c0,0.1,0,0.2,0,0.3h0c0,12.4,8.8,22.4,19.6,22.4
		c5.4,0,10.2-2.5,13.7-6.5c0.2,0.1,0.4,0.2,0.6,0.2c0,0,0.1,0,0.1,0c4-0.4,7.8-3.5,10-6.2C46.7,32.3,47.7,29.6,47.5,27.5z
		 M20.1,16.7c10.3,0,17.5,4.2,17.5,8c0,3.8-7.2,8-17.5,8c-10.3,0-17.5-4.2-17.5-8C2.5,21,9.7,16.7,20.1,16.7z M42.9,33.8
		c-2.2,2.7-5.1,4.7-7.6,5.3c2.1-3,3.5-6.6,4.1-10.5c0.2,0,0.5,0,0.7-0.2c1.4-1,3.9-2.2,4.9-1.7c0.1,0,0.4,0.2,0.5,1
		C45.7,29.3,44.7,31.6,42.9,33.8z"/>
</g>
</svg>
