<?xml version="1.0" encoding="utf-8"?>
<!-- Generator: Adobe Illustrator 18.0.0, SVG Export Plug-In . SVG Version: 6.00 Build 0)  -->
<!DOCTYPE svg PUBLIC "-//W3C//DTD SVG 1.1//EN" "http://www.w3.org/Graphics/SVG/1.1/DTD/svg11.dtd">
<svg version="1.1" id="Layer_1" xmlns="http://www.w3.org/2000/svg" xmlns:xlink="http://www.w3.org/1999/xlink" x="0px" y="0px"
	 viewBox="0 0 48 48" enable-background="new 0 0 48 48" xml:space="preserve">
<g>
	<path fill="#FFD69A" d="M33.6,19.6c0.1,0,0.1,0,0.2,0c0-0.4,0-0.9,0-1.3c0-1.1,0-2.2-0.1-3.3c-0.2-2.2-1.3-5-2.5-6.8
		c-1.4-2.2-4.3-2.5-6.6-2c-2.7,0.6-4.1,3-5.5,5.2c-0.7,1.1-1.2,2.4-1.9,3.5c-0.6,0.9-1.3,2.3-1.3,3.5c0,0.4,0,0.8,0,1.2H33.6z"/>
	<path fill="#FFD69A" d="M14.4,33.8c-0.1,0-0.1,0-0.2,0c0,0.8,0,1.6,0.2,2.1c0.2,0.5,0.6,0.6,0.8,1.1c0.1,0.3,0,0.5,0.1,0.7
		c0.2,0.7,0.4,1.2,0.8,1.8c0.9,1.3,1.7,1.6,3.3,1.6c0.9,0,1.5,0,2.2,0.3c0.8,0.3,1.1,0.6,2,0.5c0.9-0.1,2.2-0.3,3.1-0.5
		c1.3-0.3,1.6-1.8,2.6-2.7c0.9-0.8,1.9-0.4,2.4-1.7c0.4-1,0.4-2.2,0.4-3.3H14.4z"/>
	<path fill="#E77528" d="M44.9,24.6c-0.7,0-5,0.4-8.1,0.9v-1.2c0-1.8-1.4-3.2-3.2-3.2H14.4c-1.8,0-3.2,1.4-3.2,3.2v1.2
		c-3.1-0.5-7.4-0.9-8.1-0.9c-1.1,0-2.1,0.9-2.1,2.1s0.9,2.1,2.1,2.1c0.7,0,5-0.4,8.1-0.9v1.2c0,1.8,1.4,3.2,3.2,3.2h19.2
		c1.8,0,3.2-1.4,3.2-3.2v-1.2c3.1,0.5,7.4,0.9,8.1,0.9c1.1,0,2.1-0.9,2.1-2.1S46.1,24.6,44.9,24.6z"/>
</g>
</svg>
