<?xml version="1.0" encoding="utf-8"?>
<!-- Generator: Adobe Illustrator 18.0.0, SVG Export Plug-In . SVG Version: 6.00 Build 0)  -->
<!DOCTYPE svg PUBLIC "-//W3C//DTD SVG 1.1//EN" "http://www.w3.org/Graphics/SVG/1.1/DTD/svg11.dtd">
<svg version="1.1" id="Layer_1" xmlns="http://www.w3.org/2000/svg" xmlns:xlink="http://www.w3.org/1999/xlink" x="0px" y="0px"
	 viewBox="0 0 48 48" enable-background="new 0 0 48 48" xml:space="preserve">
<g>
	<path fill="#E77528" d="M36.3,1C35.6,1,35,1.5,35,2.2v16.6c0,0.6,0.6,1.2,1.3,1.2s1.3-0.5,1.3-1.2V2.2C37.5,1.5,37,1,36.3,1z"/>
	<path fill="#E77528" d="M31.4,1c-0.7,0-1.3,0.5-1.3,1.2v16.6c0,0.6,0.6,1.2,1.3,1.2c0.7,0,1.3-0.5,1.3-1.2V2.2
		C32.6,1.5,32.1,1,31.4,1z"/>
	<path fill="#E77528" d="M26.5,1c-0.7,0-1.3,0.5-1.3,1.2v16.6c0,0.6,0.6,1.2,1.3,1.2c0.7,0,1.3-0.5,1.3-1.2V2.2
		C27.7,1.5,27.2,1,26.5,1z"/>
	<path fill="#E77528" d="M21.5,1c-0.7,0-1.3,0.5-1.3,1.2v16.6c0,0.6,0.6,1.2,1.3,1.2c0.7,0,1.3-0.5,1.3-1.2V2.2
		C22.8,1.5,22.2,1,21.5,1z"/>
	<path fill="#E77528" d="M16.6,1c-0.7,0-1.3,0.5-1.3,1.2v16.6c0,0.6,0.6,1.2,1.3,1.2c0.7,0,1.3-0.5,1.3-1.2V2.2
		C17.9,1.5,17.3,1,16.6,1z"/>
	<path fill="#E77528" d="M11.7,1c-0.7,0-1.3,0.5-1.3,1.2v16.6c0,0.6,0.6,1.2,1.3,1.2c0.7,0,1.3-0.5,1.3-1.2V2.2
		C13,1.5,12.4,1,11.7,1z"/>
	<path fill="#0DB89A" d="M41.7,6.3L39.6,14c-0.4,1.3-1.7,2.3-3.1,2.3H11.5c-1.5,0-2.8-0.9-3.1-2.3L6.3,6.3H1l4.7,34.5
		c0.5,3.5,3.7,6.2,7.6,6.2h20.9c3.8,0,7.1-2.6,7.6-6.1L47,6.3H41.7z"/>
</g>
</svg>
