<?xml version="1.0" encoding="utf-8"?>
<!-- Generator: Adobe Illustrator 18.0.0, SVG Export Plug-In . SVG Version: 6.00 Build 0)  -->
<!DOCTYPE svg PUBLIC "-//W3C//DTD SVG 1.1//EN" "http://www.w3.org/Graphics/SVG/1.1/DTD/svg11.dtd">
<svg version="1.1" id="Layer_1" xmlns="http://www.w3.org/2000/svg" xmlns:xlink="http://www.w3.org/1999/xlink" x="0px" y="0px"
	 viewBox="0 0 48 48" enable-background="new 0 0 48 48" xml:space="preserve">
<g>
	<path fill="#F04B36" d="M9.2,7.6l22.5-0.1l0-7C26.6,5.2,9.2,7.6,9.2,7.6z"/>
	<path fill="#06728D" d="M9.2,9.8v37.7h29.6V9.8H9.2z M20.6,25.3l0.8,16.6c0.1,0.7-0.5,1.3-1.3,1.3c-0.7,0-1.3-0.6-1.3-1.3l0.8-16.6
		c-1.9-0.3-3.4-2.7-3.4-5.6c0-3.1,1.7-5.6,3.8-5.6s3.8,2.5,3.8,5.6C24,22.6,22.5,24.9,20.6,25.3z M30.1,43.2c-1,0-1.7-0.6-1.7-1.3
		l0.7-11.7c-1.6-4.9-3.1-12.4,0.7-15.9c0.4-0.4,1.1-0.1,1.1,0.4v14.8l0.8,12.4C31.8,42.6,31,43.2,30.1,43.2z"/>
</g>
</svg>
