<?xml version="1.0" encoding="utf-8"?>
<!-- Generator: Adobe Illustrator 18.0.0, SVG Export Plug-In . SVG Version: 6.00 Build 0)  -->
<!DOCTYPE svg PUBLIC "-//W3C//DTD SVG 1.1//EN" "http://www.w3.org/Graphics/SVG/1.1/DTD/svg11.dtd">
<svg version="1.1" id="Layer_1" xmlns="http://www.w3.org/2000/svg" xmlns:xlink="http://www.w3.org/1999/xlink" x="0px" y="0px"
	 viewBox="0 0 48 48" enable-background="new 0 0 48 48" xml:space="preserve">
<g>
	
		<rect x="5.8" y="30.8" transform="matrix(-0.706 -0.7082 0.7082 -0.706 -13.0246 71.9309)" fill="#E77528" width="5.3" height="15.7"/>
	<path fill="#F04B36" d="M43.8,3.4c-0.6-0.6-1.2-1.1-1.9-1.5c0,0.2-0.1,0.5-0.3,0.7c-0.3,0.5-0.9,0.8-1.5,0.7
		c-0.1,0.4-0.2,0.8-0.4,1.1c-0.2,0.3-0.6,0.5-1,0.4c-0.2-0.1-0.5-0.2-0.7-0.1c-0.1,0.1-0.2,0.2-0.2,0.3c-0.3,0.5-1,0.7-1.6,0.7
		c-0.6,0-1.2-0.3-1.7-0.5c-0.1,0.6-0.4,1.2-0.9,1.5C33.1,7.1,32.3,7,32,6.5c-0.4,0.6-1,1-1.7,1.3C30.1,7.9,29.8,8,29.5,8
		c-0.4-0.1-0.7-0.4-0.9-0.7c-0.2-0.4-0.2-0.8-0.2-1.2c-0.9,0-1.8,0-2.6-0.3L8.1,23.4c-1.1,1.1-1.1,2.8,0,3.9l4,4l3.7,3.8l4,4
		c1.1,1.1,2.8,1.1,3.9,0l20-20C48.1,14.7,48.1,7.7,43.8,3.4z"/>
</g>
</svg>
