<?xml version="1.0" encoding="utf-8"?>
<!-- Generator: Adobe Illustrator 18.0.0, SVG Export Plug-In . SVG Version: 6.00 Build 0)  -->
<!DOCTYPE svg PUBLIC "-//W3C//DTD SVG 1.1//EN" "http://www.w3.org/Graphics/SVG/1.1/DTD/svg11.dtd">
<svg version="1.1" id="Layer_1" xmlns="http://www.w3.org/2000/svg" xmlns:xlink="http://www.w3.org/1999/xlink" x="0px" y="0px"
	 viewBox="0 0 48 48" enable-background="new 0 0 48 48" xml:space="preserve">
<g>
	<path fill="#E8B944" d="M33.9,44.5h-8.6V26c0-0.7-0.6-1.3-1.3-1.3c-0.7,0-1.3,0.6-1.3,1.3v18.5h-8.6c-0.7,0-1.3,0.6-1.3,1.3
		c0,0.7,0.6,1.3,1.3,1.3h19.8c0.7,0,1.3-0.6,1.3-1.3C35.1,45,34.6,44.5,33.9,44.5z"/>
	<path fill="#4DA0D8" d="M37.5,2.1C37.4,1.5,36.8,1,36.2,1H11.8c-0.6,0-1.2,0.5-1.3,1.1c0,0.2-0.6,4.1-0.3,8.9c0,0,0,0,0,0
		c0.5,8.1,3.3,18.4,13.7,19.5l0,0c0,0,0.1,0,0.1,0c0,0,0.1,0,0.1,0l0,0C34.6,29.4,37.3,19,37.8,10.9c0,0,0,0,0,0
		C38,6.1,37.5,2.2,37.5,2.1z M12.9,3.5h22.2c0.1,1.4,0.3,4,0.2,6.9c-1.3,0.7-2.8,1-4.7,1c-1.1,0-2.3-0.1-3.7-0.3
		c-1.9-0.3-3.8-0.7-5.6-1.2l-0.1,0c-0.7-0.2-1.5-0.4-2.5-0.4c0,0,0,0,0,0c-0.5,0-1,0.1-1.5,0.2c-0.2,0-0.4,0.1-0.6,0.1
		c-0.6,0.1-1.3,0.1-2,0.1l-0.5,0c-0.5,0-1,0-1.4,0.1C12.6,7.2,12.8,4.8,12.9,3.5z"/>
</g>
</svg>
