<?xml version="1.0" encoding="utf-8"?>
<!-- Generator: Adobe Illustrator 18.0.0, SVG Export Plug-In . SVG Version: 6.00 Build 0)  -->
<!DOCTYPE svg PUBLIC "-//W3C//DTD SVG 1.1//EN" "http://www.w3.org/Graphics/SVG/1.1/DTD/svg11.dtd">
<svg version="1.1" id="Layer_1" xmlns="http://www.w3.org/2000/svg" xmlns:xlink="http://www.w3.org/1999/xlink" x="0px" y="0px"
	 viewBox="0 0 48 48" enable-background="new 0 0 48 48" xml:space="preserve">
<g>
	<path fill="#E8B944" d="M47.4,29.3L42,4.4c-0.5-2.4-2.9-4-5.3-3.4L11.7,6.4c-2.1,0.5-3.5,2.3-3.5,4.4h22.3c3.6,0,6.5,2.9,6.5,6.5
		v19l7-1.5C46.4,34.1,47.9,31.7,47.4,29.3z"/>
	<path fill="#E77528" d="M30.5,12.7H5c-2.5,0-4.5,2-4.5,4.5v25.5c0,2.5,2,4.5,4.5,4.5h25.5c2.5,0,4.5-2,4.5-4.5V17.2
		C35,14.7,32.9,12.7,30.5,12.7z M5.6,22.9c0-1.5,1.2-2.7,2.7-2.7c1.5,0,2.7,1.2,2.7,2.7c0,1.5-1.2,2.7-2.7,2.7
		C6.8,25.6,5.6,24.4,5.6,22.9z M11.6,42.9c-1.1,0-2-0.9-2-2c0-1.1,0.9-2,2-2c1.1,0,2,0.9,2,2C13.7,42,12.8,42.9,11.6,42.9z
		 M23.3,25.6c-1.5,0-2.7-1.2-2.7-2.7c0-1.5,1.2-2.7,2.7-2.7c1.5,0,2.7,1.2,2.7,2.7C26,24.4,24.8,25.6,23.3,25.6z"/>
</g>
</svg>
