<?xml version="1.0" encoding="utf-8"?>
<!-- Generator: Adobe Illustrator 18.0.0, SVG Export Plug-In . SVG Version: 6.00 Build 0)  -->
<!DOCTYPE svg PUBLIC "-//W3C//DTD SVG 1.1//EN" "http://www.w3.org/Graphics/SVG/1.1/DTD/svg11.dtd">
<svg version="1.1" id="Layer_1" xmlns="http://www.w3.org/2000/svg" xmlns:xlink="http://www.w3.org/1999/xlink" x="0px" y="0px"
	 viewBox="0 0 48 48" enable-background="new 0 0 48 48" xml:space="preserve">
<g>
	<path fill="#4DA0D8" d="M20.7,31v-3.3c0-2.7-0.7-5.4-1.9-7.8c-1.3-2.4-1.9-5.1-1.9-7.8V4.5c0.4-0.3,0.6-0.8,0.6-1.2
		c0-1.2-1.6-2.1-3.6-2.1c-2,0-3.6,0.9-3.6,2.1c0,0.4,0.2,0.9,0.6,1.2v7.6c0,2.7-0.7,5.4-1.9,7.8C7.7,22.3,7,25,7,27.7V31H20.7z"/>
	<path fill="#06728D" d="M41,31v-3.5c0-2.7-0.7-5.4-1.9-7.8c-1.3-2.4-1.9-5.1-1.9-7.8V4.3c0.4-0.3,0.6-0.8,0.6-1.2
		c0-1.2-1.6-2.1-3.6-2.1c-2,0-3.6,0.9-3.6,2.1c0,0.4,0.2,0.9,0.6,1.2v7.6c0,2.7-0.7,5.4-1.9,7.8c-1.3,2.4-1.9,5.1-1.9,7.8V31H41z"/>
	<path fill="#0DB89A" d="M43.9,32.8H4.1c-1.7,0-3.1,1.4-3.1,3.1v8C1,45.6,2.4,47,4.1,47h39.8c1.7,0,3.1-1.4,3.1-3.1v-8
		C47,34.2,45.6,32.8,43.9,32.8z M32.7,39.3c-0.2,0.3-0.5,0.5-0.8,0.5c-0.2,0-0.4-0.1-0.5-0.2l-1.7-1.1h-5.6h-0.2h-5.6l-1.7,1.1
		c-0.2,0.1-0.4,0.2-0.5,0.2c-0.3,0-0.7-0.2-0.8-0.5c-0.3-0.5-0.2-1.1,0.3-1.4l2-1.3c0.2-0.1,0.3-0.2,0.5-0.2h5.8h0.2h5.8
		c0.2,0,0.4,0.1,0.5,0.2l2,1.3C32.9,38.2,33,38.8,32.7,39.3z"/>
</g>
</svg>
