<?xml version="1.0" encoding="utf-8"?>
<!-- Generator: Adobe Illustrator 18.0.0, SVG Export Plug-In . SVG Version: 6.00 Build 0)  -->
<!DOCTYPE svg PUBLIC "-//W3C//DTD SVG 1.1//EN" "http://www.w3.org/Graphics/SVG/1.1/DTD/svg11.dtd">
<svg version="1.1" id="Layer_1" xmlns="http://www.w3.org/2000/svg" xmlns:xlink="http://www.w3.org/1999/xlink" x="0px" y="0px"
	 viewBox="0 0 48 48" enable-background="new 0 0 48 48" xml:space="preserve">
<g>
	<path fill="#E8B944" d="M24,18.1c12.7,0,23-2.4,23-5.4c0-2.8-8.9-5.1-20.4-5.4c0-1.4-1.2-2.5-2.6-2.5c-1.4,0-2.6,1.1-2.6,2.5
		C9.9,7.6,1,9.9,1,12.7C1,15.7,11.3,18.1,24,18.1z"/>
	<path fill="#CFD0D1" d="M46.3,20.4H43v-2.5c-6.8,2.2-17.3,2.3-19,2.3c-1.7,0-12.2-0.1-19-2.3v2.5H1.7c-0.4,0-0.7,0.3-0.7,0.7v1
		c0,0.4,0.3,0.7,0.7,0.7H5v16c0,2.5,8.5,4.5,19,4.5s19-2,19-4.5v-16h3.3c0.4,0,0.7-0.3,0.7-0.7v-1C47,20.7,46.7,20.4,46.3,20.4z"/>
</g>
</svg>
