<?xml version="1.0" encoding="utf-8"?>
<!-- Generator: Adobe Illustrator 18.0.0, SVG Export Plug-In . SVG Version: 6.00 Build 0)  -->
<!DOCTYPE svg PUBLIC "-//W3C//DTD SVG 1.1//EN" "http://www.w3.org/Graphics/SVG/1.1/DTD/svg11.dtd">
<svg version="1.1" id="Layer_1" xmlns="http://www.w3.org/2000/svg" xmlns:xlink="http://www.w3.org/1999/xlink" x="0px" y="0px"
	 viewBox="0 0 48 48" enable-background="new 0 0 48 48" xml:space="preserve">
<g>
	<path fill="#E77528" d="M35.6,16c0,5.9-5.2,26.4-11.6,26.4c-6.4,0-11.6-20.5-11.6-26.4c0-5.9,5.2-10.6,11.6-10.6
		C30.4,5.3,35.6,10.1,35.6,16z"/>
	<path fill="#E77528" d="M40.8,31.6c0,2.6-2.3,15.4-5.2,15.4c-2.9,0-5.2-12.7-5.2-15.4c0-2.6,2.3-4.8,5.2-4.8
		C38.5,26.8,40.8,29,40.8,31.6z"/>
	<path fill="#E77528" d="M17.6,31.6c0,2.6-2.3,15.4-5.2,15.4c-2.9,0-5.2-12.7-5.2-15.4c0-2.6,2.3-4.8,5.2-4.8
		C15.3,26.8,17.6,29,17.6,31.6z"/>
	<path fill="#E77528" d="M38.6,16.4c0-2.6-1.3-15.4-3-15.4c-1.6,0-3,12.7-3,15.4c0,2.6,1.3,4.8,3,4.8C37.3,21.2,38.6,19,38.6,16.4z"
		/>
	<path fill="#E77528" d="M15.4,16.4c0-2.6-1.3-15.4-3-15.4s-3,12.7-3,15.4c0,2.6,1.3,4.8,3,4.8S15.4,19,15.4,16.4z"/>
</g>
</svg>
