<?xml version="1.0" encoding="utf-8"?>
<!-- Generator: Adobe Illustrator 18.0.0, SVG Export Plug-In . SVG Version: 6.00 Build 0)  -->
<!DOCTYPE svg PUBLIC "-//W3C//DTD SVG 1.1//EN" "http://www.w3.org/Graphics/SVG/1.1/DTD/svg11.dtd">
<svg version="1.1" id="Layer_1" xmlns="http://www.w3.org/2000/svg" xmlns:xlink="http://www.w3.org/1999/xlink" x="0px" y="0px"
	 viewBox="0 0 48 48" enable-background="new 0 0 48 48" xml:space="preserve">
<g>
	<path fill="#CFD0D1" d="M26.4,9C16.2,9,7.9,11.3,7.9,14.2s8.3,5.2,18.5,5.2s18.5-2.3,18.5-5.2S36.6,9,26.4,9z M26.4,17.8
		c-8.2,0-14.9-1.6-14.9-3.5c0-2,6.7-3.5,14.9-3.5s14.9,1.6,14.9,3.5C41.3,16.2,34.6,17.8,26.4,17.8z"/>
	<path fill="#06728D" d="M46.1,17.7c-3.7,4.5-17.8,4.7-19.7,4.7c-1.8,0-15.9-0.2-19.7-4.7c-0.6,2.1-0.9,4.4-0.9,6.7
		C5.8,36.9,15,47,26.4,47C37.8,47,47,36.9,47,24.5C47,22.1,46.7,19.9,46.1,17.7z"/>
	<path fill="#F04B36" d="M14.8,18.1c-0.4,0-0.9-0.3-1-0.8L10.6,5.6L1.8,3.1C1.2,2.9,0.9,2.3,1,1.8S1.8,0.9,2.3,1l9.4,2.7
		c0.3,0.1,0.6,0.4,0.7,0.7l3.4,12.3c0.2,0.6-0.2,1.1-0.7,1.3C15,18.1,14.9,18.1,14.8,18.1z"/>
</g>
</svg>
