<?xml version="1.0" encoding="utf-8"?>
<!-- Generator: Adobe Illustrator 18.0.0, SVG Export Plug-In . SVG Version: 6.00 Build 0)  -->
<!DOCTYPE svg PUBLIC "-//W3C//DTD SVG 1.1//EN" "http://www.w3.org/Graphics/SVG/1.1/DTD/svg11.dtd">
<svg version="1.1" id="Layer_1" xmlns="http://www.w3.org/2000/svg" xmlns:xlink="http://www.w3.org/1999/xlink" x="0px" y="0px"
	 viewBox="0 0 48 48" enable-background="new 0 0 48 48" xml:space="preserve">
<g>
	<path fill="#F04B36" d="M23.3,24.1l-0.3-6c-0.5,0.2-1,0.5-1.4,0.7c-0.9,0.4-1.7,0.9-2.6,1.3L23.3,24.1z"/>
	<path fill="#F04B36" d="M33.9,13.7c-1.4,0.5-2.9,1-4.5,1.7l4,3.5L33.9,13.7z"/>
	<path fill="#F04B36" d="M13.1,29l-0.8-5c-1.2,0.8-2.4,1.5-3.5,2.3L13.1,29z"/>
	<path fill="#0DB89A" d="M47.4,12.5c-0.8-1.7-5.2-1.4-11.4,0.5c0,0.1,0.1,0.3,0,0.4L35.4,21c0,0.4-0.3,0.7-0.6,0.9
		C34.6,22,34.5,22,34.3,22c-0.2,0-0.5-0.1-0.7-0.3l-5.9-5.2c-0.1-0.1-0.2-0.3-0.3-0.4c-0.8,0.4-1.7,0.7-2.5,1.1
		c0.1,0.1,0.1,0.2,0.1,0.4l0.4,8.9c0,0.4-0.2,0.8-0.6,1c-0.1,0.1-0.3,0.1-0.4,0.1c-0.2,0-0.5-0.1-0.7-0.3l-6.4-5.9
		c-0.1-0.1-0.2-0.2-0.2-0.3c-1,0.6-2.1,1.1-3,1.7c0.1,0.1,0.1,0.2,0.1,0.4l1.2,7.7c0.1,0.4-0.1,0.8-0.4,1c-0.2,0.1-0.4,0.2-0.6,0.2
		c-0.2,0-0.4-0.1-0.5-0.2l-6.6-4.1c-0.1-0.1-0.2-0.2-0.3-0.3c-4.6,3.4-7.1,6.4-6.4,8c1.3,2.8,12.9,0,25.8-6.4
		C39.3,22.8,48.7,15.3,47.4,12.5z"/>
</g>
</svg>
