<?xml version="1.0" encoding="utf-8"?>
<!-- Generator: Adobe Illustrator 18.0.0, SVG Export Plug-In . SVG Version: 6.00 Build 0)  -->
<!DOCTYPE svg PUBLIC "-//W3C//DTD SVG 1.1//EN" "http://www.w3.org/Graphics/SVG/1.1/DTD/svg11.dtd">
<svg version="1.1" id="Layer_1" xmlns="http://www.w3.org/2000/svg" xmlns:xlink="http://www.w3.org/1999/xlink" x="0px" y="0px"
	 viewBox="0 0 48 48" enable-background="new 0 0 48 48" xml:space="preserve">
<g>
	<path fill="#FFD69A" d="M1,1v10.4C4.1,13,6.3,16.7,6.3,21c0,4.3-2.2,8.1-5.3,9.6V47h5.9c-0.4-0.8-0.6-1.7-0.6-2.7
		c0-3.6,2.9-6.5,6.5-6.5s6.5,2.9,6.5,6.5c0,1-0.2,1.9-0.6,2.7H47V1H1z M17.4,16.5c-2.5,0-4.6-2.1-4.6-4.6c0-2.5,2.1-4.6,4.6-4.6
		S22,9.4,22,11.9C22,14.5,20,16.5,17.4,16.5z M34.2,34.3c-2,0-3.6-1.6-3.6-3.6s1.6-3.6,3.6-3.6c2,0,3.6,1.6,3.6,3.6
		S36.1,34.3,34.2,34.3z M37.7,14.7c-1.8,0-3.3-1.5-3.3-3.3c0-1.8,1.5-3.3,3.3-3.3S41,9.6,41,11.4C41,13.2,39.5,14.7,37.7,14.7z"/>
</g>
</svg>
