<?xml version="1.0" encoding="utf-8"?>
<!-- Generator: Adobe Illustrator 18.0.0, SVG Export Plug-In . SVG Version: 6.00 Build 0)  -->
<!DOCTYPE svg PUBLIC "-//W3C//DTD SVG 1.1//EN" "http://www.w3.org/Graphics/SVG/1.1/DTD/svg11.dtd">
<svg version="1.1" id="Layer_1" xmlns="http://www.w3.org/2000/svg" xmlns:xlink="http://www.w3.org/1999/xlink" x="0px" y="0px"
	 viewBox="0 0 48 48" enable-background="new 0 0 48 48" xml:space="preserve">
<g>
	<path fill="#E77528" d="M43.4,4.6C43.8,3.4,43.6,2,42.6,1c-1.3-1.3-3.5-1.3-4.8,0c-1.3,1.3-1.3,3.5,0,4.8c0.3,0.3,0.5,0.5,0.8,0.6
		l-8.8,8.8c-2.9-1.3-6.9-0.3-9.8,2.6c-0.1,0.1-0.3,0.3-0.4,0.4c-0.9,1-2.2,1.6-3.5,1.9c-3.5,0.6-7.2,2.5-10.2,5.6
		c-6.3,6.3-7.8,15.1-3.2,19.6c4.5,4.5,13.3,3.1,19.6-3.2c3.1-3.1,5-6.7,5.6-10.1c0.3-1.4,1-2.6,2-3.5c0.1-0.1,0.3-0.3,0.4-0.4
		c3-3,3.9-7.1,2.5-10l8.8-8.8c0.2,0.3,0.4,0.6,0.6,0.8c1.3,1.3,3.5,1.3,4.8,0c1.3-1.3,1.3-3.5,0-4.8C46,4.4,44.6,4.2,43.4,4.6z"/>
</g>
</svg>
