<?xml version="1.0" encoding="utf-8"?>
<!-- Generator: Adobe Illustrator 18.0.0, SVG Export Plug-In . SVG Version: 6.00 Build 0)  -->
<!DOCTYPE svg PUBLIC "-//W3C//DTD SVG 1.1//EN" "http://www.w3.org/Graphics/SVG/1.1/DTD/svg11.dtd">
<svg version="1.1" id="Layer_1" xmlns="http://www.w3.org/2000/svg" xmlns:xlink="http://www.w3.org/1999/xlink" x="0px" y="0px"
	 viewBox="0 0 48 48" enable-background="new 0 0 48 48" xml:space="preserve">
<g>
	<path fill="#E8B944" d="M22.1,40.2c-7.2,0-13.2-4.3-14.3-10H1c0,9.5,9.5,17.3,21.1,17.3s21.1-7.7,21.1-17.3h-5h-1.8
		C35.3,35.9,29.3,40.2,22.1,40.2z"/>
	<path fill="#4DA0D8" d="M25.9,10.1c0.3,0,0.7,0,1,0.1V9c0-3.8,3.1-6.7,3.1-6.8c0.4-0.4,0.4-1,0.1-1.4c-0.4-0.4-1-0.4-1.4-0.1
		c-0.2,0.1-3.8,3.5-3.8,8.3v1.2C25.2,10.2,25.6,10.1,25.9,10.1z"/>
	<path fill="#0DB89A" d="M24.9,10.1c-5.9,0.7-10.6,7.7-10.6,16.2c0,4.2,1.1,8.1,3.2,11.1c1.5,0.5,3.1,0.7,4.7,0.7
		c0.9,0,1.9-0.1,2.8-0.3V10.1z"/>
	<path fill="#0DB89A" d="M12.2,26.3c0-7.4,3.3-13.8,8.1-16.7c-9,2-15.6,8.7-15.6,16.7c0,0.6,0,1.3,0.1,1.9h4.6l0.3,1.6
		c0.5,2.5,2.2,4.7,4.6,6.2C13,33.1,12.2,29.8,12.2,26.3z"/>
	<path fill="#0DB89A" d="M44.8,34c1.4-2.3,2.2-4.9,2.2-7.7c0-8-6.6-14.7-15.6-16.7c4.8,2.9,8.1,9.2,8.1,16.7c0,0.6,0,1.3-0.1,1.9
		h5.8v2C45.2,31.5,45.1,32.8,44.8,34z"/>
	<path fill="#0DB89A" d="M37.5,26.3c0-8.5-4.7-15.5-10.6-16.2v27.3c3.9-1.3,6.9-4.1,7.6-7.6l0.3-1.6h2.6
		C37.5,27.6,37.5,26.9,37.5,26.3z"/>
</g>
</svg>
