<?xml version="1.0" encoding="utf-8"?>
<!-- Generator: Adobe Illustrator 18.0.0, SVG Export Plug-In . SVG Version: 6.00 Build 0)  -->
<!DOCTYPE svg PUBLIC "-//W3C//DTD SVG 1.1//EN" "http://www.w3.org/Graphics/SVG/1.1/DTD/svg11.dtd">
<svg version="1.1" id="Layer_1" xmlns="http://www.w3.org/2000/svg" xmlns:xlink="http://www.w3.org/1999/xlink" x="0px" y="0px"
	 viewBox="0 0 48 48" enable-background="new 0 0 48 48" xml:space="preserve">
<g>
	<path fill="#F7A93B" d="M12.9,34.3c0,0,2.3-0.1,2-3.6c-0.3-3.5-2.1-4.5-0.8-7.7c0,0-5.1,5.3-4,8.7C10.1,31.7,10.3,34.4,12.9,34.3z"
		/>
	<path fill="#F7A93B" d="M16.3,25.5c0,0,0.2,2.7,2.8,2.6c0,0,2.3-0.1,2-3.6c-0.3-3.5-2.1-4.5-0.7-7.7C20.5,16.9,15.3,22.1,16.3,25.5
		z"/>
	<path fill="#F7A93B" d="M18.1,33.7c-3.6-0.3-3.7,1.9-3.7,1.9c-0.1,2.6,2.6,2.8,2.6,2.8c3.5,1.1,8.9-3.9,8.9-3.9
		C22.6,35.8,21.7,34.1,18.1,33.7z"/>
	<path fill="#F7A93B" d="M20.6,29.6c0,2.6,2.7,2.8,2.7,2.8c3.5,1,8.8-4.1,8.8-4.1c-3.3,1.4-4.2-0.4-7.8-0.7
		C20.7,27.4,20.6,29.6,20.6,29.6z"/>
	<path fill="#F7A93B" d="M23.4,18.5c0,0,0.2,2.7,2.8,2.6c0,0,2.3-0.1,2-3.6C28,14,26.2,13,27.6,9.8C27.6,9.8,22.3,15.1,23.4,18.5z"
		/>
	<path fill="#F7A93B" d="M31.3,20.5c-3.6-0.2-3.7,2-3.7,2c0,2.6,2.7,2.8,2.7,2.8c3.5,1,8.8-4.1,8.8-4.1
		C35.9,22.6,34.9,20.8,31.3,20.5z"/>
	<path fill="#F7A93B" d="M30.5,11.4c0,0,0.2,2.7,2.8,2.6c0,0,2.3-0.1,2-3.6c-0.3-3.5-2.1-4.5-0.7-7.7C34.6,2.8,29.4,8,30.5,11.4z"/>
	<path fill="#F7A93B" d="M34.7,15.5c0,2.6,2.7,2.8,2.7,2.8c3.5,1,8.8-4.1,8.8-4.1c-3.3,1.4-4.2-0.4-7.8-0.7
		C34.8,13.2,34.7,15.5,34.7,15.5z"/>
	<path fill="#F7A93B" d="M38.3,9.4c1.6,2,3.8,0.4,3.8,0.4C45.5,8.3,46.3,1,46.3,1c-1.6,3.1-3.5,2.4-6.5,4.5
		C36.9,7.6,38.3,9.4,38.3,9.4z"/>
	<path fill="#E77528" d="M13.7,40.1c-1.6-4.2-5.1-5-5.3-5.1c-0.6-0.1-1.2,0.3-1.4,0.9c-0.1,0.4,0,0.8,0.3,1.1
		c0.2,0.2,0.3,0.3,0.6,0.3c0.1,0,2.5,0.6,3.6,3.6c0.2,0.6,0.9,0.9,1.5,0.7C13.6,41.4,13.9,40.7,13.7,40.1z"/>
	<path fill="#E77528" d="M9.7,39.1C9.7,39.1,9.7,39.1,9.7,39.1c-0.5-0.5-1.2-0.5-1.6,0L2,45c-0.5,0.4-0.5,1.2,0,1.6c0,0,0,0,0,0
		c0.5,0.5,1.2,0.5,1.6,0l6.1-5.9C10.2,40.3,10.2,39.5,9.7,39.1z"/>
</g>
</svg>
