<?xml version="1.0" encoding="utf-8"?>
<!-- Generator: Adobe Illustrator 18.0.0, SVG Export Plug-In . SVG Version: 6.00 Build 0)  -->
<!DOCTYPE svg PUBLIC "-//W3C//DTD SVG 1.1//EN" "http://www.w3.org/Graphics/SVG/1.1/DTD/svg11.dtd">
<svg version="1.1" id="Layer_1" xmlns="http://www.w3.org/2000/svg" xmlns:xlink="http://www.w3.org/1999/xlink" x="0px" y="0px"
	 viewBox="0 0 48 48" enable-background="new 0 0 48 48" xml:space="preserve">
<g>
	<circle fill="#0DB89A" cx="16.5" cy="19.1" r="4"/>
	<circle fill="#0DB89A" cx="26.5" cy="13.8" r="4"/>
	<path fill="#089277" d="M42.2,6.8c0.7,2.6-0.4,5.5-2.9,6.9c-2.3,1.3-5.2,0.8-7-1c0.5,2.5-0.7,5.1-3,6.3c-2.3,1.3-5.2,0.8-7-1
		c0.5,2.5-0.7,5.1-3,6.3c-2.5,1.3-5.6,0.7-7.3-1.4l-4.5,2.4c1.8,3.3,12,1.3,22.8-4.5C41.1,15.1,48.5,7.7,46.7,4.4L42.2,6.8z"/>
	<circle fill="#0DB89A" cx="36.5" cy="8.5" r="4"/>
	<circle fill="#0DB89A" cx="5.6" cy="33.3" r="4.6"/>
	<circle fill="#0DB89A" cx="17.9" cy="38.9" r="4.6"/>
	<circle fill="#0DB89A" cx="33.6" cy="35.3" r="4.6"/>
</g>
</svg>
