<?xml version="1.0" encoding="utf-8"?>
<!-- Generator: Adobe Illustrator 18.0.0, SVG Export Plug-In . SVG Version: 6.00 Build 0)  -->
<!DOCTYPE svg PUBLIC "-//W3C//DTD SVG 1.1//EN" "http://www.w3.org/Graphics/SVG/1.1/DTD/svg11.dtd">
<svg version="1.1" id="Layer_1" xmlns="http://www.w3.org/2000/svg" xmlns:xlink="http://www.w3.org/1999/xlink" x="0px" y="0px"
	 viewBox="0 0 48 48" enable-background="new 0 0 48 48" xml:space="preserve">
<g>
	<path fill="#294E58" d="M15.7,28.9L2.2,42.4c-1.1,1.1-1.1,2.8,0,3.8c1.1,1.1,2.8,1.1,3.8,0l13.5-13.5c0.5-0.5,0.8-1.2,0.8-1.9
		c0-0.4-0.1-0.8-0.3-1.2l-1.3-1.3C17.7,27.9,16.5,28.1,15.7,28.9z"/>
	<path fill="#F04B36" d="M46.5,12.4c0-0.1,0-0.2,0-0.3c-0.2-1.4-0.8-3-1.6-4.5c-0.3-0.5-0.7-1-1.2-1.5l2.5-2.5
		c0.2-0.2,0.3-0.4,0.3-0.6c0-0.2-0.1-0.5-0.3-0.6c-0.4-0.4-0.9-0.4-1.3,0l-2.5,2.5C41.6,4.1,40.8,3.4,40,3c-1.8-1.1-3.9-2.4-6.4-1.8
		c-1,0.2-2.5,0.6-2.9,2.2c-0.2,1,0.1,2.6,0.4,3.3c0.4,1,1.4,1.7,2.2,2.2c0.2,0.1,0.4,0.3,0.6,0.4c0.2,0.2,0.4,0.3,0.6,0.5
		c0.2,0.1,0.4,0.3,0.6,0.4c0.1,0.1,0.2,0.3,0.4,0.4c0.1,0.2,0.3,0.3,0.5,0.5l-2.1,2.1c-2.2-1.2-4.2-2.3-4.8-4.8
		C29,8,28.5,7.7,28,7.8c-0.5,0.1-0.8,0.6-0.7,1.1c0.7,3.1,3,4.5,5.2,5.7L31,16.1c-0.8-0.7-1.6-1.3-2.3-1.8c-1.8-1.1-3.9-2.4-6.4-1.8
		c-1,0.2-2.5,0.6-2.9,2.2c-0.2,1,0.1,2.6,0.4,3.3c0.4,1,1.4,1.7,2.2,2.2c0.2,0.1,0.4,0.3,0.6,0.4c0.2,0.2,0.4,0.3,0.6,0.5
		c0.2,0.1,0.4,0.3,0.6,0.4c0.1,0.1,0.2,0.3,0.4,0.4c0.1,0.2,0.3,0.3,0.5,0.5l-2.1,2.1c-2.2-1.2-4.2-2.3-4.8-4.8
		c-0.1-0.5-0.6-0.8-1.1-0.7c-0.5,0.1-0.8,0.6-0.7,1.1c0.7,3.1,3,4.5,5.2,5.7l-2.5,2.5l1.3,1.3l2.9-2.9c0.1,0.1,0.2,0.1,0.3,0.2
		c2.3,1.3,3.1,3.9,3.8,6.7c0.1,0.5,0.6,0.8,1.1,0.7c0.4-0.1,0.7-0.5,0.7-0.9c0-0.1,0-0.1,0-0.2c-0.7-3-1.7-6-4.5-7.7l1.6-1.6
		c0.5,1,1.3,1.7,1.6,2c1.4,1.1,2.9,1.6,4.9,1.4l0.1,0c0.8-0.1,2.1-0.2,2.6-1.3c0.1-0.3,0.2-0.6,0.2-0.9c0-0.4-0.1-0.8-0.1-1.3
		c0-0.1,0-0.2,0-0.3c-0.2-1.4-0.8-3-1.6-4.5c-0.3-0.5-0.7-1-1.2-1.5l1.9-1.9c0.1,0.1,0.2,0.1,0.3,0.2c2.3,1.3,3.1,3.9,3.8,6.7
		c0.1,0.5,0.6,0.8,1.1,0.7c0.4-0.1,0.7-0.5,0.7-0.9c0-0.1,0-0.1,0-0.2c-0.7-3-1.7-6-4.5-7.7l1.6-1.6c0.5,1,1.3,1.7,1.6,2
		c1.4,1.1,2.9,1.6,4.9,1.4l0.1,0c0.8-0.1,2.1-0.2,2.6-1.3c0.1-0.3,0.2-0.6,0.2-0.9C46.6,13.3,46.5,12.8,46.5,12.4z"/>
</g>
</svg>
