<?xml version="1.0" encoding="utf-8"?>
<!-- Generator: Adobe Illustrator 18.0.0, SVG Export Plug-In . SVG Version: 6.00 Build 0)  -->
<!DOCTYPE svg PUBLIC "-//W3C//DTD SVG 1.1//EN" "http://www.w3.org/Graphics/SVG/1.1/DTD/svg11.dtd">
<svg version="1.1" id="Layer_1" xmlns="http://www.w3.org/2000/svg" xmlns:xlink="http://www.w3.org/1999/xlink" x="0px" y="0px"
	 viewBox="0 0 48 48" enable-background="new 0 0 48 48" xml:space="preserve">
<g>
	<path fill="#0DB89A" d="M46.2,23.4c-0.8-2-2.2-3.5-3.4-4.7l-3.9-4c-1.7-1.7-3.4-3.5-5.4-5C31.2,8,28.5,6.9,26,5.8
		c-1-0.4-2-0.8-3-1.2c-2.3-0.9-5.4-1.8-8.8-1.4c-3,0.3-6,1.6-8.6,2.8C4.8,6.3,4.2,6.7,3.7,7.2c-2,2.1-1.7,4.5-1.5,6.4
		c0,0.4,0.1,0.8,0.1,1.2c0.1,1.5-0.1,3.1-0.7,4.6l-0.1,0.3c-0.4,1.1-0.8,2.3-0.4,3.3c0.4,1,1.4,1.4,1.8,1.6l0.2,0.1
		c4.1,1.5,8.2,3.5,12,5.8c1.6,1,2.7,2.9,3.3,5.4c0.3,1.6,1,3,2,4.2c1.6,1.9,3.7,2.8,5.3,3.4c0.2,0.1,0.4,0.2,0.6,0.2
		c2.9,1,5.3,1.4,7.6,1.3c1,0,2.1-0.2,3.2-0.5c2.2-0.5,5.2-1.8,7.1-5c0.8-1.3,1.3-2.8,1.6-4C46.8,32,47.7,27.1,46.2,23.4z M43.8,34.9
		c-0.3,1.1-0.7,2.4-1.4,3.5c-1.5,2.5-4,3.6-5.8,4.1c-0.9,0.2-1.8,0.4-2.7,0.4c-2.1,0.1-4.2-0.3-6.8-1.2c-0.2-0.1-0.4-0.1-0.6-0.2
		c-1.4-0.5-3.2-1.3-4.4-2.8c-0.8-0.9-1.3-2-1.6-3.3c-0.7-3.1-2.2-5.5-4.2-6.7c-3.9-2.4-8.1-4.4-12.3-6l-0.2-0.1
		c-0.4-0.1-0.5-0.2-0.6-0.3C3,21.9,3.3,21,3.5,20.3L3.6,20c0.6-1.8,0.9-3.6,0.8-5.4c0-0.4-0.1-0.8-0.1-1.3c-0.2-1.8-0.4-3.3,1-4.7
		c0.3-0.3,0.7-0.6,1.1-0.8c2.4-1.1,5.2-2.4,7.9-2.6c3-0.3,5.8,0.5,7.9,1.3c1,0.4,2,0.8,3,1.2c2.5,1,5,2.1,7.2,3.7
		c1.8,1.3,3.5,3,5.1,4.7l3.9,4c1.1,1.2,2.3,2.4,2.9,4C45.5,27.4,44.7,31.7,43.8,34.9z"/>
	<ellipse transform="matrix(0.3462 -0.9382 0.9382 0.3462 -3.9997 29.7291)" fill="#F7A93B" cx="19.3" cy="17.7" rx="6" ry="9.5"/>
</g>
</svg>
