<?xml version="1.0" encoding="utf-8"?>
<!-- Generator: Adobe Illustrator 18.0.0, SVG Export Plug-In . SVG Version: 6.00 Build 0)  -->
<!DOCTYPE svg PUBLIC "-//W3C//DTD SVG 1.1//EN" "http://www.w3.org/Graphics/SVG/1.1/DTD/svg11.dtd">
<svg version="1.1" id="Layer_1" xmlns="http://www.w3.org/2000/svg" xmlns:xlink="http://www.w3.org/1999/xlink" x="0px" y="0px"
	 viewBox="0 0 48 48" enable-background="new 0 0 48 48" xml:space="preserve">
<g>
	<path fill="#FFD69A" d="M12.6,32.1c-0.2-5.9,2.4-11.5,7.1-15.1c1-0.8,1.8-1.8,2.3-3.1c-1.6-1.2-2.9-2.8-3.6-4.8
		c-0.1-0.2-0.1-0.4-0.2-0.5C16,3.5,10.6,0.9,6.1,2.7s-6.4,7.5-4.2,12.7c0.3,0.6,0.6,1.2,0.9,1.8c1.7,2.6,2.4,5.8,1.6,8.8
		C3,30.6,3.9,35.8,7.2,40c3.2,3.9,8,6,12.8,5.9C15.8,42.7,12.9,37.7,12.6,32.1z"/>
	<path fill="#E77528" d="M44.3,22.6c-1.8-2.7-2.5-6-1.6-9c0.1-0.2,0.1-0.4,0.2-0.6c1.3-5.4-1.5-10.7-6.3-11.8
		C31.8,0.1,26.9,3.6,25.6,9c-0.2,0.7-0.3,1.3-0.3,2c-0.2,3.1-1.5,6.1-4,8c-3.9,3-6.4,7.7-6.1,13c0.3,8,7.1,14.7,15.3,15
		C39.5,47.3,47,40.2,47,31.4C47,28.1,46,25.1,44.3,22.6z M41.1,32.7C40,38.8,34.6,43,29.1,42c-5.5-1-9.1-6.7-8-12.8
		c1.1-6.1,6.5-10.2,12-9.3C38.6,20.9,42.2,26.6,41.1,32.7z"/>
</g>
</svg>
