<?xml version="1.0" encoding="utf-8"?>
<!-- Generator: Adobe Illustrator 18.0.0, SVG Export Plug-In . SVG Version: 6.00 Build 0)  -->
<!DOCTYPE svg PUBLIC "-//W3C//DTD SVG 1.1//EN" "http://www.w3.org/Graphics/SVG/1.1/DTD/svg11.dtd">
<svg version="1.1" id="Layer_1" xmlns="http://www.w3.org/2000/svg" xmlns:xlink="http://www.w3.org/1999/xlink" x="0px" y="0px"
	 viewBox="0 0 48 48" enable-background="new 0 0 48 48" xml:space="preserve">
<g>
	<path fill="#CFD0D1" d="M23.5,1C10.8,1,1,6,1,16C1,22.2,7.9,33,14.4,40c-3.7-7-4.5-13.2-4.6-13.6c-0.1-0.6,0.3-1.1,0.9-1.2
		c0.6,0,1.1,0.3,1.1,0.9c0,0.1,1.3,10.3,8.3,18.9c-3.4-10-3.5-25.3-3.5-26c0-0.6,0.5-1.1,1-1.1c0.6,0,1,0.5,1,1.1
		c0,0.2,0,18.7,4.3,27.8c0.3,0.1,0.7,0.2,1,0.2c0.3,0,0.6,0,1-0.1c4.3-9.1,4.4-27.7,4.4-27.9c0-0.6,0.4-1.1,1-1.1c0.6,0,1,0.5,1,1.1
		c0,0.8,0,16.1-3.5,26c7-8.6,8.3-18.8,8.3-18.9c0.1-0.6,0.5-1,1.1-0.9c0.5,0.1,0.9,0.6,0.9,1.2c0,0.4-1,7.7-5.5,15.3
		c7-6.9,14.3-19,14.3-25.8C47,6,36.2,1,23.5,1z"/>
</g>
</svg>
