<?xml version="1.0" encoding="utf-8"?>
<!-- Generator: Adobe Illustrator 18.0.0, SVG Export Plug-In . SVG Version: 6.00 Build 0)  -->
<!DOCTYPE svg PUBLIC "-//W3C//DTD SVG 1.1//EN" "http://www.w3.org/Graphics/SVG/1.1/DTD/svg11.dtd">
<svg version="1.1" id="Layer_1" xmlns="http://www.w3.org/2000/svg" xmlns:xlink="http://www.w3.org/1999/xlink" x="0px" y="0px"
	 viewBox="0 0 48 48" enable-background="new 0 0 48 48" xml:space="preserve">
<g>
	<path fill="#294E58" d="M31.2,27c-4.4-0.3-7.6-2.9-8.9-4.7c-1.4-2-6.6-3.6-8.7-4C12,18,10.5,18.2,9,18.7c-0.9,0.3-2.1,0.5-3.1,0
		c-2.7-1.4-3,1.9-3,1.9s-2.5,12.6,9.8,17.2c0,0,6.2,1.3,10.3,6c4.1,4.6,15.5,3.7,19.2,1.3c3.8-2.4,3.5-5.4,1.4-8.8
		C41.5,32.8,37.4,27.5,31.2,27z M18.8,35.7l-1.2-0.8c-0.5-0.3-0.6-1-0.3-1.5c0.3-0.5,1-0.6,1.5-0.3l1.2,0.8c0.5,0.3,0.6,1,0.3,1.5
		c0,0,0,0,0,0C20,35.8,19.3,36,18.8,35.7z M29.7,39.6c0,0.1-0.1,0.2-0.1,0.2c-0.2,0.4-0.8,0.6-1.3,0.5L27,39.9
		c-0.6-0.2-0.9-0.8-0.7-1.4c0.2-0.6,0.8-0.9,1.4-0.7l1.3,0.4C29.5,38.4,29.8,39,29.7,39.6z M11.2,27.4c0.5,0.3,0.6,1,0.3,1.5
		c0,0,0,0,0,0c-0.3,0.5-1,0.6-1.5,0.3l-1.2-0.8c-0.5-0.3-0.6-1-0.3-1.5c0.3-0.5,1-0.6,1.5-0.3L11.2,27.4z M12.4,25.1
		c-0.5-0.4-0.6-1-0.2-1.5c0.4-0.5,1-0.6,1.5-0.2l1.1,0.8c0.5,0.3,0.6,1,0.3,1.4c0,0,0,0.1-0.1,0.1c-0.4,0.5-1,0.6-1.5,0.2L12.4,25.1
		z M20,29.4c0.2-0.6,0.8-0.9,1.4-0.7l1.3,0.4c0.6,0.2,0.9,0.8,0.7,1.4c0,0.1-0.1,0.2-0.1,0.2c-0.2,0.4-0.8,0.6-1.3,0.5l-1.3-0.4
		C20.2,30.6,19.9,30,20,29.4z M39.2,39.2c0,0.1-0.1,0.2-0.1,0.2c-0.2,0.4-0.8,0.6-1.3,0.5l-1.3-0.4c-0.6-0.2-0.9-0.8-0.7-1.4
		c0.2-0.6,0.8-0.9,1.4-0.7l1.3,0.4C39.1,38.1,39.4,38.7,39.2,39.2z M31.9,34.7c0,0.1-0.1,0.2-0.1,0.2c-0.2,0.4-0.8,0.6-1.3,0.5
		L29.2,35c-0.6-0.2-0.9-0.8-0.7-1.4c0.2-0.6,0.8-0.9,1.4-0.7l1.3,0.4C31.7,33.5,32,34.1,31.9,34.7z"/>
	<path fill="#4DA0D8" d="M24.4,20.7c0.4,0.5,1.1,1.2,2.1,1.9l-0.1-0.3c-0.2-0.6,0.2-1.2,0.8-1.3c0.6-0.2,1.2,0.2,1.3,0.8l0.4,1.4
		c0.1,0.2,0,0.5-0.1,0.7c0.8,0.3,1.6,0.5,2.5,0.5c5.3,0.4,10.1,3.7,14,9.6c-0.3-2.9-1.2-6-3.6-8.4c-3.1-3.1-3.7-7.3-3.5-9.5
		c0.2-2.4-2.5-7.1-3.8-8.7c-0.9-1.2-2.2-2.1-3.6-2.7c-0.8-0.4-1.9-1-2.4-2.1c-1.1-2.8-3.5-0.6-3.5-0.6s-8,6-5.6,15.4
		C21.3,18.1,23.3,19.2,24.4,20.7z M29,11.5c-0.1-0.6,0.3-1.2,0.8-1.3c0.6-0.1,1.2,0.2,1.3,0.8l0.3,1.4c0.1,0.6-0.2,1.1-0.7,1.3
		c0,0-0.1,0-0.1,0c-0.6,0.1-1.2-0.2-1.3-0.8L29,11.5z M31.9,19.8c0.5-0.3,1.2-0.2,1.5,0.4l0.7,1.2c0.3,0.5,0.2,1.2-0.4,1.5
		c-0.1,0-0.2,0.1-0.2,0.1c-0.5,0.2-1,0-1.3-0.5l-0.7-1.2C31.2,20.8,31.4,20.1,31.9,19.8z M24.1,11.6c-0.2-0.6,0.2-1.2,0.8-1.3
		c0.6-0.2,1.2,0.2,1.3,0.8l0.4,1.4c0.2,0.6-0.2,1.1-0.7,1.3c0,0,0,0-0.1,0c-0.6,0.2-1.2-0.2-1.3-0.8L24.1,11.6z"/>
</g>
</svg>
