<?xml version="1.0" encoding="utf-8"?>
<!-- Generator: Adobe Illustrator 18.0.0, SVG Export Plug-In . SVG Version: 6.00 Build 0)  -->
<!DOCTYPE svg PUBLIC "-//W3C//DTD SVG 1.1//EN" "http://www.w3.org/Graphics/SVG/1.1/DTD/svg11.dtd">
<svg version="1.1" id="Layer_1" xmlns="http://www.w3.org/2000/svg" xmlns:xlink="http://www.w3.org/1999/xlink" x="0px" y="0px"
	 viewBox="0 0 48 48" enable-background="new 0 0 48 48" xml:space="preserve">
<g>
	<path fill="#E8B944" d="M7.3,34.2c-0.2,0-0.4-0.1-0.6-0.3c-0.3-0.3-0.3-0.9,0-1.2c0.5-0.5,0.5-2.3,0.5-2.9l0-0.2c0-0.8,0-2,1.3-2.8
		c0.6-0.4,1.3-0.6,1.9-0.7c0.2,0,0.4-0.1,0.6-0.1c1.5-0.4,2.5-1,3-2.2c0.8-1.9,1.8-3.2,4.2-3.6c1.2-0.2,1.7-0.6,2.4-2.3
		c1-2.1,3.1-2.6,4.6-2.9l0.2,0c0.9-0.2,1.3-0.5,1.4-0.6c0.1-0.1,0.2-0.4,0.3-0.6c0.2-0.6,0.5-1.3,1.3-1.9c1.4-1,3.1-1,4.6-0.9
		c0.2,0,0.4,0,0.7,0c0.5,0,0.9,0.4,0.9,0.9c0,0.5-0.4,0.9-0.9,0.9c-0.2,0-0.5,0-0.7,0c-1.2,0-2.6-0.1-3.5,0.6
		c-0.4,0.3-0.5,0.7-0.7,1.1c-0.1,0.4-0.3,0.7-0.6,1.1c-0.5,0.6-1.5,1-2.3,1.1l-0.2,0c-1.3,0.3-2.8,0.6-3.5,2
		c-0.9,1.9-1.7,2.9-3.7,3.3c-1.7,0.3-2.3,1-2.9,2.5c-0.8,2-2.5,2.7-4.1,3.2c-0.2,0.1-0.5,0.1-0.7,0.2c-0.5,0.1-1,0.2-1.4,0.4
		c-0.5,0.3-0.5,0.7-0.5,1.4l0,0.2c0,1.5-0.1,3.2-1,4.1C7.7,34.2,7.5,34.2,7.3,34.2z"/>
	<path fill="#E77528" d="M41.3,11c1.2-0.5,2.5-1,3.7-0.6c1.8,0.6,2.3,2.9,2,4.8c-0.6,3.5-9,11.3-11.6,13.8
		c-3.5,3.4-7.2,6.7-11.4,9.2c-4.2,2.5-9.1,4.1-14,3.8c-2.6-0.2-5.3-1-6.7-3.2c-0.5-0.7-0.7-1.6-1-2.4c-0.5-1.7-1.1-3.4-1.1-5.2
		c-0.1-2.7,0.9-5.3,2.3-7.6c1.5-2.2,3.4-4.1,5.4-5.9c4.6-3.9,9.6-7.3,15-9.9c1.9-0.9,3.9-1.8,6.1-2c1.3-0.1,2.9,0.3,3.1,1.5
		c0.2,1.3-3.5,0.8-4.7,1.3C20,12.5,12.4,17.7,5.9,24c-2.1,2.1-2.2,5.6-2,8.6c0.1,2.2,1.5,4.1,2.5,4.8c1,0.7,1.7,1.1,2.9,0.8
		c1.3-0.3,2.3-0.8,3.1-1.9c0.8-1.1,1.3-2.4,2.2-3.5c0.5-0.6,1.1-1,1.6-1.6c0.6-0.6,1.2-1.3,1.8-2C22.7,23.7,34.5,14.1,41.3,11z"/>
</g>
</svg>
