<?xml version="1.0" encoding="utf-8"?>
<!-- Generator: Adobe Illustrator 18.0.0, SVG Export Plug-In . SVG Version: 6.00 Build 0)  -->
<!DOCTYPE svg PUBLIC "-//W3C//DTD SVG 1.1//EN" "http://www.w3.org/Graphics/SVG/1.1/DTD/svg11.dtd">
<svg version="1.1" id="Layer_1" xmlns="http://www.w3.org/2000/svg" xmlns:xlink="http://www.w3.org/1999/xlink" x="0px" y="0px"
	 viewBox="0 0 48 48" enable-background="new 0 0 48 48" xml:space="preserve">
<g>
	<path fill="#F7A93B" d="M27.2,42.5c-10.8,9.2-21.7,3.9-25.7,1.5c-0.9-0.6-1.1-1.8-0.4-2.6C8.2,33.8,2,25.2,7.1,16.2
		c7.2-12.7,20.5-6.7,20.5-6.7c0,0,0,0,0.1,0c3.4,1.3,6,4.1,7.2,7.6C36.8,22.8,38.1,33.2,27.2,42.5z"/>
	<path fill="#0DB89A" d="M26.6,12.7c-0.1,0-0.2,0-0.3-0.1c-0.5-0.2-0.8-0.8-0.6-1.3c0.1-0.3,2.5-7,10-11c0.5-0.3,1.1-0.1,1.4,0.4
		c0.3,0.5,0.1,1.1-0.4,1.4c-6.8,3.6-9,9.8-9,9.9C27.4,12.5,27,12.7,26.6,12.7z"/>
	<path fill="#0DB89A" d="M47.2,28.9c-0.2,2.9-0.5,5.9-2,8.4c-0.4,0.7-0.9,1.4-1.4,2c-0.8,1.1-1.6,2.1-2.5,3.2
		c2.5-6.4,1.8-13.6-0.2-20.1c-1.7-5.8-4.5-11.6-9.1-15.6c-0.3-0.3-0.7-0.6-0.9-1c-0.2-0.4-0.2-1,0.2-1.2c0.1-0.1,0.3-0.1,0.4-0.2
		C33.2,4,34.8,4.3,36.2,5c1.4,0.7,2.6,1.7,3.8,2.8c1.3,1.1,2.6,2.3,3.5,3.7c1,1.5,1.6,3.3,2.1,5c0.5,1.6,1,3.1,1.3,4.7
		C47.4,23.7,47.3,26.3,47.2,28.9z"/>
</g>
</svg>
