<?xml version="1.0" encoding="utf-8"?>
<!-- Generator: Adobe Illustrator 18.0.0, SVG Export Plug-In . SVG Version: 6.00 Build 0)  -->
<!DOCTYPE svg PUBLIC "-//W3C//DTD SVG 1.1//EN" "http://www.w3.org/Graphics/SVG/1.1/DTD/svg11.dtd">
<svg version="1.1" id="Layer_1" xmlns="http://www.w3.org/2000/svg" xmlns:xlink="http://www.w3.org/1999/xlink" x="0px" y="0px"
	 viewBox="0 0 48 48" enable-background="new 0 0 48 48" xml:space="preserve">
<g>
	<path fill="#E8B944" d="M28.8,30.5C18.4,30.5,10,34.3,10,39c0,4.7,8.4,8.5,18.7,8.5c10.3,0,18.7-3.8,18.7-8.5
		C47.5,34.3,39.1,30.5,28.8,30.5z M38.2,38.1c-0.2,1.1-0.7,1.6-1.7,2.1c-2.4,1.2-5.3,1.7-8,1.9C27,42.2,25,42.3,23.6,42
		c-1-0.2-2.1-0.9-2.8-1.6c-0.7-0.6-1.1-1.3-1.3-2.1C19.3,37.6,19,36.5,20,36c0.6-0.3,1.9-0.3,2.3,0.2c0.6,0.7,0,1.6,1.4,1.6
		c1.2,0,1.7-1.2,2.7-1.6c0.9-0.4,1.7-0.3,2.7-0.3c1.2,0,2,0.2,2.8,0.9c0.6,0.4,1.3,1,2.1,1c1.6,0.1,1-2.7,3-2
		c0.2,0.1,0.4,0.3,0.6,0.4h0.1C38.3,36.4,38.2,37.7,38.2,38.1z"/>
	<path fill="#0DB89A" d="M20.1,9.3c0.6,0,1-0.4,1-1v-4c0-0.6-0.5-1-1-1c-0.6,0-1,0.4-1,1v4C19.1,8.8,19.5,9.3,20.1,9.3z"/>
	<path fill="#0DB89A" d="M14.6,9.3c0.6,0,1-0.4,1-1V1.5c0-0.6-0.5-1-1-1c-0.6,0-1,0.4-1,1v6.8C13.6,8.8,14.1,9.3,14.6,9.3z"/>
	<path fill="#0DB89A" d="M9.2,9.3c0.6,0,1-0.4,1-1v-4c0-0.6-0.5-1-1-1c-0.6,0-1,0.4-1,1v4C8.2,8.8,8.6,9.3,9.2,9.3z"/>
	<path fill="#F04B36" d="M28.7,27.2c0.9,0.6,1.9,1,3.1,1h0.4c2.8,0,5.1-2.2,5.1-4.9v-5.8c0-2.7-2.3-4.9-5.1-4.9h-0.4
		c-1.1,0-2.2,0.4-3,1v-1.4H0.5v14.2c0,4.6,3.2,8.6,7.9,10.5c1.8-4.9,9.8-8.4,20.2-8.4C28.6,28.1,28.7,27.7,28.7,27.2z M28.8,17.5
		c0-1.6,1.4-2.9,3-2.9h0.4c1.7,0,3,1.3,3,2.9v5.8c0,1.6-1.4,2.9-3,2.9h-0.4c-1.7,0-3-1.3-3-2.9V17.5z"/>
</g>
</svg>
