<?xml version="1.0" encoding="utf-8"?>
<!-- Generator: Adobe Illustrator 18.0.0, SVG Export Plug-In . SVG Version: 6.00 Build 0)  -->
<!DOCTYPE svg PUBLIC "-//W3C//DTD SVG 1.1//EN" "http://www.w3.org/Graphics/SVG/1.1/DTD/svg11.dtd">
<svg version="1.1" id="Layer_1" xmlns="http://www.w3.org/2000/svg" xmlns:xlink="http://www.w3.org/1999/xlink" x="0px" y="0px"
	 viewBox="0 0 48 48" enable-background="new 0 0 48 48" xml:space="preserve">
<g>
	<polygon fill="#F04B36" points="43,32.3 5,32.3 1,26 47,26 	"/>
	<path fill="#F7A93B" d="M5.5,23.8l0.2-0.6c0.5-1.1,1-2.3,1.9-3.1c0.5-0.4,1.2-0.7,1.9-0.8c-0.8,1.4-1.6,2.8-2.4,4.3
		c0,0.1,0,0.2-0.1,0.2h2.2c0.8-1.5,1.6-3,2.5-4.3c0.1-0.1,0.2-0.2,0.2-0.3c0.4,0,0.8,0,1.2,0c0.5,0,1,0.1,1.3,0.2
		c0.3,0.1,0.6,0.3,0.9,0.6c0.5,0.4,0.8,0.9,1.1,1.5c-0.4,0.8-0.7,1.5-0.9,2.3h3.8c-0.2-0.7-0.3-1.5-0.6-2.2c0,0,0.1-0.1,0.1-0.1
		c1-1.3,2-2.2,3.1-2.5c0.2-0.1,0.5-0.1,0.7-0.1c0.1,0.1,0.1,0.2,0.2,0.3c-0.2,0.6-0.4,1.3-0.5,1.9l-0.5,2.7h2l0.2-0.9
		c0.1,0.3,0.1,0.6,0.2,0.9h2.1c-0.3-1.4-0.6-2.8-1.1-4.1c-0.1-0.1-0.1-0.3-0.2-0.5c0.1-0.1,0.2-0.3,0.3-0.4c1.2,0.1,2.4,0.3,3.1,1
		c0.2,0.2,0.4,0.5,0.5,0.7c-0.1,0.1-0.2,0.2-0.3,0.3c-0.7,0.9-1.1,1.9-1.1,2.9h2c0-0.3,0.1-0.6,0.3-0.9c0.1,0.3,0.2,0.6,0.3,0.9h2.1
		c-0.2-0.7-0.4-1.4-0.6-2c-0.1-0.2-0.1-0.4-0.2-0.7c0.3-0.2,0.6-0.4,0.9-0.7c0.2-0.2,0.5-0.3,0.7-0.4c0.1,0,0.2,0,0.2,0
		c0.4,0.5,0.7,1.1,1,1.8c0.3,0.7,0.4,1.4,0.3,2h2c0-0.9-0.1-1.8-0.5-2.7c-0.1-0.4-0.3-0.7-0.5-1c0.2,0,0.4,0.1,0.6,0.2
		c0.2,0.1,0.4,0.2,0.7,0.2c1.4,0.5,3,1.1,4,3.3H43c0,0,0,0,0-0.1c-0.1-0.1-0.1-0.2-0.2-0.4c-1.3-3.4-3.7-4.2-5.3-4.8
		c-0.2-0.1-0.4-0.1-0.6-0.2C35.9,18,35,18,34.1,18c-0.9-1.1-2.1-2.4-3.6-2.7C29.2,15,28,15.4,27,15.7c-0.7,0.2-1.6,0.5-2.4,1.1
		c-0.2,0-0.3,0-0.5,0c-0.2,0-0.3,0-0.5,0c-0.4-0.5-0.9-1-1.4-1.4c-1.2-0.8-2.4-0.9-3.6-0.8c-1.6,0.1-3.2,0.3-4.7,0.6
		c-0.5,0.1-1,0.3-1.5,0.6c-0.6,0.3-1,0.8-1.5,1.4c-1.7,0.1-3.3,0.4-4.6,1.5c-1.3,1.1-1.9,2.6-2.5,3.8l-0.6,1.3H5.5z M30.1,17.2
		c0.6,0.1,1.2,0.6,1.7,1.1c-0.3,0.1-0.5,0.3-0.7,0.4c-0.2,0.1-0.4,0.3-0.6,0.4c-0.2-0.3-0.4-0.5-0.6-0.8c-0.5-0.5-1-0.8-1.6-1
		C28.9,17.2,29.5,17.1,30.1,17.2z M14.4,17.2c1.4-0.3,2.9-0.5,4.4-0.6c1,0,1.8,0,2.4,0.5c0,0,0.1,0,0.1,0.1
		c-1.3,0.4-2.5,1.3-3.6,2.6c-0.3-0.4-0.6-0.8-0.9-1.1c-0.5-0.5-1-0.8-1.5-1c-0.4-0.1-0.7-0.2-1.1-0.3C14.2,17.2,14.3,17.2,14.4,17.2
		z"/>
	<rect x="7.7" y="30.7" fill="#F04B36" width="32.6" height="2.8"/>
</g>
</svg>
