<?xml version="1.0" encoding="utf-8"?>
<!-- Generator: Adobe Illustrator 18.0.0, SVG Export Plug-In . SVG Version: 6.00 Build 0)  -->
<!DOCTYPE svg PUBLIC "-//W3C//DTD SVG 1.1//EN" "http://www.w3.org/Graphics/SVG/1.1/DTD/svg11.dtd">
<svg version="1.1" id="Layer_1" xmlns="http://www.w3.org/2000/svg" xmlns:xlink="http://www.w3.org/1999/xlink" x="0px" y="0px"
	 viewBox="0 0 48 48" enable-background="new 0 0 48 48" xml:space="preserve">
<g>
	<path fill="#FFD69A" d="M10.4,30.4c0.9-15.3,7-20.4,10.7-22.1c-2.6-4.2-5.8-5.4-7.2-5.7c-0.5-0.1-1.1-0.1-1.6,0
		C9.7,3.1,2.1,6.2,1,23.4c-0.2,2.9,0.4,5.9,1.7,8.4c1.5,2.7,4.1,5.6,8.7,6.3C10.6,35.7,10.2,33.1,10.4,30.4z"/>
	<path fill="#4DA0D8" d="M47,23.4C45.9,6.2,38.3,3.1,35.8,2.6c-0.5-0.1-1.1-0.1-1.6,0C32.7,2.9,29.7,4,27.1,8
		c3.6,1.4,10.4,6.2,11.4,22.4c0.2,2.6-0.2,5.2-1,7.5c4.1-0.9,6.4-3.6,7.8-6.1C46.6,29.3,47.1,26.3,47,23.4z"/>
	<path fill="#CFD0D1" d="M34.7,39c1.3-2.5,1.9-5.5,1.7-8.4c-1.1-17.1-8.7-20.2-11.2-20.8c-0.5-0.1-1.1-0.1-1.6,0
		c-2.5,0.6-10.2,3.6-11.2,20.8c-0.2,2.9,0.4,5.9,1.7,8.4c1.6,3,4.7,6.2,10.3,6.5v0c0,0,0,0,0,0c0,0,0,0,0,0v0
		C30,45.2,33.1,42.1,34.7,39z"/>
</g>
</svg>
