<?xml version="1.0" encoding="utf-8"?>
<!-- Generator: Adobe Illustrator 18.0.0, SVG Export Plug-In . SVG Version: 6.00 Build 0)  -->
<!DOCTYPE svg PUBLIC "-//W3C//DTD SVG 1.1//EN" "http://www.w3.org/Graphics/SVG/1.1/DTD/svg11.dtd">
<svg version="1.1" id="Layer_1" xmlns="http://www.w3.org/2000/svg" xmlns:xlink="http://www.w3.org/1999/xlink" x="0px" y="0px"
	 viewBox="0 0 48 48" enable-background="new 0 0 48 48" xml:space="preserve">
<g>
	<path fill="#0DB89A" d="M46.8,19.9c-5.2,4-18.1,4.3-22.8,4.3c-4.6,0-17.6-0.4-22.8-4.4c1,9,5.3,16.7,11.4,21.1
		c-1,0.6-1.6,1.2-1.6,2c0,2.3,5.8,4.1,13,4.1c7.2,0,13-1.8,13-4.1c0-0.7-0.6-1.4-1.6-2C41.4,36.6,45.8,28.9,46.8,19.9z"/>
	<path fill="#E8B944" d="M38.9,11.5c-0.3-1.3-1.1-2.5-2-3.4c-1.1-1-2.3-1.8-3.3-2.8c-1.6-1.5-2.9-3.5-4.8-4.1C28,1,27.1,1,26.3,1
		c-2.1,0.1-4.2,0.1-6.3,0.2c-0.7,0-1.3,0-2,0.3c-0.8,0.3-1.5,1-2.2,1.6c-1.7,1.5-3.3,3.1-5,4.6C10.4,8,10,8.3,9.6,8.5
		c-1,0.5-2.2,0-3.2,0.2C6.2,8.8,6,8.9,5.9,9C5.7,9.3,5.7,9.6,5.7,9.9c0,0.8,0.1,1.7,0.2,2.5c-3.1,1-4.9,2.2-4.9,3.6
		c0,3.2,10.3,5.8,23,5.8c12.7,0,23-2.6,23-5.8C47,14.2,43.9,12.6,38.9,11.5z"/>
</g>
</svg>
