<?xml version="1.0" encoding="utf-8"?>
<!-- Generator: Adobe Illustrator 18.0.0, SVG Export Plug-In . SVG Version: 6.00 Build 0)  -->
<!DOCTYPE svg PUBLIC "-//W3C//DTD SVG 1.1//EN" "http://www.w3.org/Graphics/SVG/1.1/DTD/svg11.dtd">
<svg version="1.1" id="Layer_1" xmlns="http://www.w3.org/2000/svg" xmlns:xlink="http://www.w3.org/1999/xlink" x="0px" y="0px"
	 viewBox="0 0 48 48" enable-background="new 0 0 48 48" xml:space="preserve">
<g>
	<path fill="#4DA0D8" d="M25.4,21.3c-0.6,0-1.2-0.5-1.2-1.1L22.2,7.1c-0.2-1.2-0.8-2.2-1.8-2.8c-1-0.6-2.1-0.9-3.2-0.6l-5.7,2.5
		c-0.6,0.3-1.4,0-1.7-0.7c-0.3-0.6,0-1.4,0.7-1.7l5.8-2.5c0.1,0,0.1-0.1,0.2-0.1c1.8-0.4,3.8-0.1,5.3,1c1.6,1.1,2.6,2.7,2.9,4.6
		l1.9,13.1c0.1,0.7-0.4,1.3-1.1,1.4C25.5,21.3,25.5,21.3,25.4,21.3z"/>
	<path fill="#E77528" d="M18.5,8.5L21,47h14.7l2.5-38.5H18.5z M24.2,23.9l2.4-1c0.6-0.3,1.4,0.1,1.6,0.7l1,2.4
		c0.3,0.6-0.1,1.4-0.7,1.6l-2.4,1c-0.6,0.3-1.4-0.1-1.6-0.7l-1-2.4C23.2,24.9,23.5,24.1,24.2,23.9z M29.2,42.9l-2.4,1
		c-0.6,0.3-1.4-0.1-1.6-0.7l-1-2.4c-0.3-0.6,0.1-1.4,0.7-1.6l2.4-1c0.6-0.3,1.4,0.1,1.6,0.7l1,2.4C30.2,41.9,29.8,42.6,29.2,42.9z
		 M32.5,34.1l-2.4,1c-0.6,0.3-1.4-0.1-1.6-0.7l-1-2.4c-0.3-0.6,0.1-1.4,0.7-1.6l2.4-1c0.6-0.3,1.4,0.1,1.6,0.7l1,2.4
		C33.5,33.2,33.1,33.9,32.5,34.1z M35,19H21.7l-0.5-8h14.3L35,19z"/>
</g>
</svg>
