<?xml version="1.0" encoding="utf-8"?>
<!-- Generator: Adobe Illustrator 18.0.0, SVG Export Plug-In . SVG Version: 6.00 Build 0)  -->
<!DOCTYPE svg PUBLIC "-//W3C//DTD SVG 1.1//EN" "http://www.w3.org/Graphics/SVG/1.1/DTD/svg11.dtd">
<svg version="1.1" id="Layer_1" xmlns="http://www.w3.org/2000/svg" xmlns:xlink="http://www.w3.org/1999/xlink" x="0px" y="0px"
	 viewBox="0 0 48 48" enable-background="new 0 0 48 48" xml:space="preserve">
<g>
	<path fill="#0DB89A" d="M24,48C10.8,48,0,37.2,0,24S10.8,0,24,0s24,10.8,24,24S37.2,48,24,48z M24,2C11.9,2,2,11.9,2,24
		c0,12.1,9.9,22,22,22c12.1,0,22-9.9,22-22C46,11.9,36.1,2,24,2z"/>
	<path fill="#CFD0D1" d="M24,3.6C12.7,3.6,3.6,12.7,3.6,24c0,7.3,3.8,13.7,9.6,17.3l0.5-11.4c-2.4-0.4-4.2-2.7-4.2-5.2V12.7h0.4
		c0.3,0,0.6,0.2,0.6,0.5l1,12c0,0.5,0.4,0.8,0.7,0.8c0.4,0,0.7-0.4,0.7-0.8l1-12c0-0.3,0.3-0.5,0.6-0.5c0.3,0,0.6,0.2,0.6,0.5l1,12
		c0,0.5,0.4,0.8,0.7,0.8h0c0.4,0,0.7-0.4,0.7-0.8l1-12c0-0.3,0.3-0.5,0.6-0.5h0.4v12.3c0,2.6-2,4.7-4.5,5l0.6,12.7
		c2.5,1.1,5.3,1.8,8.3,1.8c2.6,0,5-0.5,7.2-1.3l0.6-13.2c-2.9-0.5-5.2-4.2-5.2-8.6c0-4.8,2.7-8.7,5.9-8.7c3.3,0,5.9,3.9,5.9,8.7
		c0,4.4-2.3,8.1-5.2,8.6l0.6,12c6.3-3.5,10.6-10.2,10.6-17.9C44.4,12.7,35.3,3.6,24,3.6z"/>
</g>
</svg>
