<?xml version="1.0" encoding="utf-8"?>
<!-- Generator: Adobe Illustrator 18.0.0, SVG Export Plug-In . SVG Version: 6.00 Build 0)  -->
<!DOCTYPE svg PUBLIC "-//W3C//DTD SVG 1.1//EN" "http://www.w3.org/Graphics/SVG/1.1/DTD/svg11.dtd">
<svg version="1.1" id="Layer_1" xmlns="http://www.w3.org/2000/svg" xmlns:xlink="http://www.w3.org/1999/xlink" x="0px" y="0px"
	 viewBox="0 0 48 48" enable-background="new 0 0 48 48" xml:space="preserve">
<g>
	<path fill="#E77528" d="M3.6,11.3l0.3,0.2c0.6,0.3,1.2,0.6,1.7,0.8c-0.5,1.2-0.9,3-1,4.5h1.8c0.2-1.5,0.7-3.5,1-3.9
		c0.2-0.2,0.3-0.3,0.3-0.3c0.1,0.1,0.2,0.4,0.2,0.5c0.2,0.5,0.5,2.3,0.7,3.7h1.8c-0.2-1.3-0.5-2.9-0.7-3.9l0.1-0.1
		c0.8-0.7,1.9-0.8,2.9-0.8c0.7,0,1.4,0,1.9,0.3c0.8,0.4,0.7,1.3,0,4.2c0,0.1,0,0.2-0.1,0.2h1.9c0.4-1.4,0.8-3.2,0.4-4.6
		c0.8,0.8,1.5,1.8,2.1,2.8c-0.1,0.7-0.2,1.3-0.2,1.8h3.9c0.2-1.2,0.4-2.6,0.7-3.8c0.8-4.5,1-6,1-6.5c0,0,0,0,0-0.1c0,0,0,0,0,0
		c0.2,0,0.4,0.1,0.6,0.4C25,6.8,25,6.9,25.1,7c0.1,0.2,0.3,0.5,0.5,0.7c0.9,0.8,2.1,0.3,2.7-0.7c0.3-0.5,0.5-1.1,0.6-1.6
		c0.2,0.1,0.3,0.2,0.5,0.3c0.3,0.3,0.5,0.8,0.5,1.3l0,1.3c-1.3,0.2-2.6,1-3.7,2.3c-1,1.1-1.7,2.5-2,3.9c-0.2,0.7-0.3,1.5-0.3,2.3
		h1.8c0-0.5,0.1-1,0.2-1.5c0.3-1.1,0.8-2,1.5-2.9c1.4-1.6,3-2.2,4.3-1.5c1.3,0.7,2.6,2.9,2.7,5.9h1.8c-0.2-3.7-1.7-7-3.9-8.1
		c-0.4-0.2-0.9-0.4-1.4-0.4l0.4-0.3c0.4-0.3,0.6-0.7,0.9-1c0.1-0.1,0.2-0.3,0.3-0.4C32.7,6.1,32.9,6,33,6c0.1,0,0.2,0.1,0.5,0.7
		c0.5,0.9,2.6,6,2.8,6.9l1-0.5c-0.3,1.2-0.6,2.4-0.9,3.6h1.8c0.4-1.7,0.8-3.3,1.3-4.8c0.7-1.9,1.6-3.2,2.6-3.8
		C43.1,7.8,44,7.8,45,8.1c-0.4,0.7-0.9,1.3-1.5,2c-1.1,1.3-2.2,2.7-2.8,4.9c-0.2,0.6-0.3,1.2-0.4,1.8h1.8c0.1-0.3,0.1-0.7,0.2-1
		c0.5-1.6,1.4-2.8,2.4-4c0.6-0.7,1.2-1.5,1.7-2.4c0.6-1,0.7-2,0.3-2.8c-0.3-0.6-0.8-0.8-1-0.8c-1.4-0.3-2.8-0.5-4.2,0.2
		c-1.7,1-2.9,3.2-3.5,4.9c-0.1,0.3-0.2,0.7-0.3,1c-0.7-2-2.3-5.8-2.7-6.6c-0.3-0.6-0.9-1.5-1.7-1.7c-0.7-0.2-1.4,0.2-2.1,1
		c0,0-0.1,0.1-0.1,0.1c-0.2-0.4-0.4-0.7-0.7-1C29.7,3,28.8,2.7,28,2.9L27.4,3l-0.1,0.8c-0.1,0.6-0.2,1.2-0.4,1.6
		c-0.1,0.2-0.3,0.2-0.3,0.2c0,0-0.1-0.1-0.1-0.2c-0.1-0.1-0.1-0.2-0.2-0.3c-0.5-0.7-1.1-1.1-1.8-1.1c-0.8,0-1.4,0.4-1.7,1.2
		c-0.2,0.5-0.2,0.9-0.2,1.2c0,0.5-0.6,3.7-1,6c-0.2,0.9-0.3,1.7-0.4,2.4c-0.1-0.2-0.2-0.3-0.3-0.5c0.4-3.5,0.8-7.7,0.4-8.8
		c-0.7-1.8-2.2-2.7-3.5-2.1c-0.1,0.1-0.3,0.2-0.5,0.3c-0.1,0-0.2,0.1-0.2,0.1l0-0.2c-0.4-1.5-1.5-2.6-2.7-2.7
		c-1.2-0.1-2.3,0.8-2.9,2.2c0,0.1-0.1,0.3-0.1,0.4c0,0.1-0.1,0.3-0.2,0.5c0,0,0,0,0,0c-0.6-0.9-1.6-1.5-2.5-1.5
		c-0.7,0-1.2,0.4-1.6,1C6.9,4.1,6.7,4.5,6.6,4.8C6.5,5,6.4,5.3,6.4,5.4C6.4,5.3,6.2,5.3,6,5.2C5.1,4.8,4.4,4.7,3.7,4.9
		c-1,0.3-1.8,1.3-1.9,2.6C1.5,9.2,2.5,10.8,3.6,11.3z M4.1,7.2c0.3-0.1,0.8,0,1.4,0.2c0.4,0.2,0.9,0.4,1.4,0.2
		C7.7,7.4,8,6.4,8.2,5.8c0.1-0.2,0.2-0.5,0.2-0.6c0,0,0.1-0.2,0.3-0.2C9.1,5,9.6,5.3,10,5.8c0.2,0.3,0.5,0.7,1,0.9
		c1.2,0.4,1.8-1.3,2.1-2.1c0-0.1,0.1-0.2,0.1-0.3c0.2-0.6,0.7-0.9,1.2-0.9c0.5,0,0.9,0.5,1.1,1.1l0,0.2C15.5,5,15.7,5.5,16,5.9
		c0.8,0.9,1.7,0.3,2.1,0c0.1-0.1,0.2-0.1,0.3-0.2c0.4-0.2,1,0.2,1.2,0.8c0.1,0.6-0.1,3-0.3,5.4c-0.6-0.8-1.2-1.6-2-2.2
		c-1.3-1-2.9-1.6-4.6-1.7c-0.7,0-1.6,0-2.5,0.5C9.6,9,9,9.7,8.7,10.6c0,0-0.1-0.1-0.1-0.1c-0.4-0.3-0.9-0.3-1.4-0.2
		c-0.5,0-2.2-0.8-2.7-1.1L4.2,9C3.8,8.8,3.5,8.3,3.5,7.9C3.5,7.6,3.8,7.3,4.1,7.2z"/>
	<path fill="#E77528" d="M28.1,16.8C28.1,16.8,28.1,16.8,28.1,16.8c0-1.3,0.6-2.2,1.1-2.6c0.3-0.2,0.5-0.4,0.7-0.4
		c0.4,0,0.8,0.3,1.1,1c0.3,0.5,0.4,1.3,0.5,2h1.8c-0.1-1.2-0.4-2.4-0.8-3.4c-0.7-1.4-1.7-2.1-2.7-2c-0.5,0.1-1,0.3-1.6,0.8
		c-0.9,0.8-1.8,2.4-1.9,4.5c0,0,0,0.1,0,0.1H28.1z"/>
	<path fill="#06728D" d="M46.3,19.3H1c0,9.7,5.1,18.1,12.5,22.2c-1,0.5-1.5,1.1-1.5,1.8c0,2,5.2,3.6,11.7,3.6s11.7-1.6,11.7-3.6
		c0-0.7-0.6-1.3-1.5-1.8C41.2,37.5,46.3,29.1,46.3,19.3z"/>
</g>
</svg>
