<?xml version="1.0" encoding="utf-8"?>
<!-- Generator: Adobe Illustrator 18.0.0, SVG Export Plug-In . SVG Version: 6.00 Build 0)  -->
<!DOCTYPE svg PUBLIC "-//W3C//DTD SVG 1.1//EN" "http://www.w3.org/Graphics/SVG/1.1/DTD/svg11.dtd">
<svg version="1.1" id="Layer_1" xmlns="http://www.w3.org/2000/svg" xmlns:xlink="http://www.w3.org/1999/xlink" x="0px" y="0px"
	 viewBox="0 0 48 48" enable-background="new 0 0 48 48" xml:space="preserve">
<g>
	<path fill="#CFD0D1" d="M36.4,43.6V4.4c0-0.5-0.4-0.9-0.9-0.9c-0.5,0-0.9,0.4-0.9,0.9v39.2c0,0.5,0.4,0.9,0.9,0.9
		C36,44.5,36.4,44.1,36.4,43.6z"/>
	<g>
		<ellipse fill="#F04B36" cx="35.5" cy="13" rx="3.4" ry="3.1"/>
	</g>
	<g>
		<ellipse fill="#E77528" cx="35.5" cy="19" rx="3.4" ry="1.3"/>
	</g>
	<g>
		<ellipse fill="#4DA0D8" cx="35.5" cy="25.1" rx="3.4" ry="3.1"/>
	</g>
	<g>
		<ellipse fill="#06728D" cx="35.5" cy="31.1" rx="3.4" ry="1.3"/>
	</g>
	<path fill="#CFD0D1" d="M24.9,43.6V4.4c0-0.5-0.4-0.9-0.9-0.9c-0.5,0-0.9,0.4-0.9,0.9v39.2c0,0.5,0.4,0.9,0.9,0.9
		C24.5,44.5,24.9,44.1,24.9,43.6z"/>
	<g>
		<ellipse fill="#06728D" cx="24" cy="13" rx="3.4" ry="3.1"/>
	</g>
	<g>
		<ellipse fill="#4DA0D8" cx="24" cy="19" rx="3.4" ry="1.3"/>
	</g>
	<g>
		<ellipse fill="#F04B36" cx="24" cy="25.1" rx="3.4" ry="3.1"/>
	</g>
	<g>
		<ellipse fill="#06728D" cx="24" cy="31.1" rx="3.4" ry="1.3"/>
	</g>
	<path fill="#CFD0D1" d="M13.4,43.6V4.4c0-0.5-0.4-0.9-0.9-0.9c-0.5,0-0.9,0.4-0.9,0.9v39.2c0,0.5,0.4,0.9,0.9,0.9
		C13,44.5,13.4,44.1,13.4,43.6z"/>
	<g>
		<ellipse fill="#E77528" cx="12.5" cy="13" rx="3.4" ry="3.1"/>
	</g>
	<g>
		<ellipse fill="#E77528" cx="12.5" cy="19" rx="3.4" ry="1.3"/>
	</g>
	<g>
		<ellipse fill="#4DA0D8" cx="12.5" cy="25.1" rx="3.4" ry="3.1"/>
	</g>
	<g>
		<ellipse fill="#F04B36" cx="12.5" cy="31.1" rx="3.4" ry="1.3"/>
	</g>
	<path fill="#0DB89A" d="M44.9,13.9H44V6.6H4v7.3H3.1c-1.7,0-3.1,1.6-3.1,3.5v8.7c0,1.9,1.4,3.5,3.1,3.5H4v8.8h40v-8.8h0.9
		c1.7,0,3.1-1.6,3.1-3.5v-8.7C48,15.4,46.6,13.9,44.9,13.9z M3.1,27.6c-0.6,0-1.1-0.7-1.1-1.5v-8.7c0-0.8,0.5-1.5,1.1-1.5H4v11.7
		H3.1z M42,36.4H6V8.6h36V36.4z M46,26.1c0,0.8-0.5,1.5-1.1,1.5H44V15.9h0.9c0.6,0,1.1,0.7,1.1,1.5V26.1z"/>
</g>
</svg>
