<?xml version="1.0" encoding="utf-8"?>
<!-- Generator: Adobe Illustrator 18.0.0, SVG Export Plug-In . SVG Version: 6.00 Build 0)  -->
<!DOCTYPE svg PUBLIC "-//W3C//DTD SVG 1.1//EN" "http://www.w3.org/Graphics/SVG/1.1/DTD/svg11.dtd">
<svg version="1.1" id="Layer_1" xmlns="http://www.w3.org/2000/svg" xmlns:xlink="http://www.w3.org/1999/xlink" x="0px" y="0px"
	 viewBox="0 0 48 48" enable-background="new 0 0 48 48" xml:space="preserve">
<g>
	<path fill="#CFD0D1" d="M44,20.7c-0.4-0.9-1.2-1.4-2.2-1.4H31c-0.7,0-1.2-0.6-1.2-1.2c0-0.1,0.1-0.2,0.2-0.3
		c2.6-2.1,4.1-5.6,3.3-9.4c-0.8-3.6-3.7-6.5-7.4-7.2c-6-1.1-11.3,3.4-11.3,9.2c0,3,1.4,5.7,3.6,7.4c0.1,0,0.1,0.1,0.1,0.2
		c0,0.7-0.6,1.3-1.3,1.3H6.2c-0.9,0-1.8,0.5-2.2,1.4c-0.7,1.7,0.5,3.3,2.2,3.3h10.2c1,0,1.8,0.8,1.8,1.8v5.3c0,1-0.4,1.9-1.1,2.6
		l0,0L8,42.9c-0.7,0.7-0.9,1.7-0.6,2.5c0.7,1.7,2.8,2,3.9,0.8l9.1-9.1c0.5-0.5,1.1-1,1.8-1.2c1.9-0.7,3.9-0.2,5.2,1.1l9.2,9.2
		c0.5,0.5,1.1,0.7,1.7,0.7c0.9,0,1.8-0.5,2.2-1.5c0.4-0.9,0.1-1.9-0.5-2.6l-9.1-9.1l0,0c-0.7-0.7-1.1-1.6-1.1-2.6v-4.9
		c0-1.2,1-2.2,2.2-2.2h9.9C43.4,24.1,44.7,22.4,44,20.7z M28.3,5.6c1.2,0,2.2,1,2.2,2.2c0,1.2-1,2.2-2.2,2.2c-1.2,0-2.2-1-2.2-2.2
		C26.1,6.6,27.1,5.6,28.3,5.6z M19.7,5.6c1.2,0,2.2,1,2.2,2.2c0,1.2-1,2.2-2.2,2.2s-2.2-1-2.2-2.2C17.5,6.6,18.5,5.6,19.7,5.6z
		 M23.8,16.2c-3.6,0-5.8-2.5-5.9-2.5c-0.4-0.4-0.3-1,0.1-1.4c0.4-0.4,1-0.3,1.4,0.1c0.2,0.2,3.8,4.1,9.4-0.1
		c0.4-0.3,1.1-0.3,1.4,0.2c0.3,0.4,0.3,1.1-0.2,1.4C27.6,15.6,25.5,16.2,23.8,16.2z"/>
</g>
</svg>
