<?xml version="1.0" encoding="utf-8"?>
<!-- Generator: Adobe Illustrator 18.0.0, SVG Export Plug-In . SVG Version: 6.00 Build 0)  -->
<!DOCTYPE svg PUBLIC "-//W3C//DTD SVG 1.1//EN" "http://www.w3.org/Graphics/SVG/1.1/DTD/svg11.dtd">
<svg version="1.1" id="Layer_1" xmlns="http://www.w3.org/2000/svg" xmlns:xlink="http://www.w3.org/1999/xlink" x="0px" y="0px"
	 viewBox="0 0 48 48" enable-background="new 0 0 48 48" xml:space="preserve">
<g>
	<g>
		<path fill="#CFD0D1" d="M7,22.8h4.9c0.1-2.2-0.2-4.3-1.1-6.4c-2.5,1.1-4.3,2.7-5,4.2l1.8,1.7L7,22.8z M9.3,18.7c0.6,0,1,0.4,1,0.9
			s-0.4,0.9-1,0.9c-0.6,0-1-0.4-1-0.9S8.8,18.7,9.3,18.7z"/>
	</g>
	<g>
		<path fill="#CFD0D1" d="M13.1,22.8h22.4v-6l-4,3.8c-1.7-2.5-6.8-5.8-12.8-5.8c-2.5,0-4.8,0.5-6.8,1.2c0.8,2,1.2,4,1.2,6.1
			C13.2,22.2,13.1,22.5,13.1,22.8z"/>
	</g>
	<g>
		<path fill="#F04B36" d="M23.8,7.6l0.1,0.2l0,0.1l0,0l0,0c0,0,0-0.1,0,0l0,0l0,0l0,0c0,0.1,0.1,0.3,0.1,0.4c0,0.1,0.1,0.2,0.1,0.3
			c0,0.2,0.1,0.5,0.1,0.7c0,0.2,0,0.5,0,0.7c0,0.2,0,0.5-0.1,0.7c0,0.2-0.1,0.4-0.1,0.6c-0.1,0.4-0.1,0.7-0.1,1c0,0.2,0,0.4,0,0.4
			s0.1-0.1,0.3-0.3c0.2-0.2,0.4-0.5,0.7-0.9c0.2-0.4,0.5-0.9,0.6-1.4c0.2-0.5,0.2-1.1,0.1-1.7c0-0.2-0.1-0.3-0.1-0.5
			c0-0.2-0.1-0.3-0.2-0.4l-0.1-0.1l0-0.1L25,7.2c-0.1-0.1-0.1-0.2-0.2-0.3c-0.1-0.2-0.2-0.4-0.2-0.6c0-0.2-0.1-0.4-0.1-0.6
			c0-0.4,0-0.7,0-0.9c0-0.2,0.1-0.4,0.1-0.4s-0.1,0.1-0.3,0.3c-0.2,0.2-0.4,0.5-0.5,1c-0.1,0.2-0.1,0.5-0.1,0.7c0,0.3,0,0.5,0.1,0.8
			C23.7,7.3,23.7,7.5,23.8,7.6z"/>
	</g>
	<g>
		<path fill="#F04B36" d="M12.1,7.6l0.1,0.2l0,0.1l0,0l0,0c0,0,0-0.1,0,0l0,0l0,0l0,0c0,0.1,0.1,0.3,0.1,0.4c0,0.1,0.1,0.2,0.1,0.3
			c0,0.2,0.1,0.5,0.1,0.7c0,0.2,0,0.5,0,0.7c0,0.2,0,0.5-0.1,0.7c0,0.2-0.1,0.4-0.1,0.6c-0.1,0.4-0.1,0.7-0.1,1c0,0.2,0,0.4,0,0.4
			s0.1-0.1,0.3-0.3c0.2-0.2,0.4-0.5,0.7-0.9c0.2-0.4,0.5-0.9,0.6-1.4c0.2-0.5,0.2-1.1,0.1-1.7c0-0.2-0.1-0.3-0.1-0.5
			c0-0.2-0.1-0.3-0.2-0.4l-0.1-0.1l0-0.1l-0.1-0.2c-0.1-0.1-0.1-0.2-0.2-0.3C13.1,6.7,13,6.5,13,6.3c0-0.2-0.1-0.4-0.1-0.6
			c0-0.4,0-0.7,0-0.9c0-0.2,0.1-0.4,0.1-0.4s-0.1,0.1-0.3,0.3c-0.2,0.2-0.4,0.5-0.5,1c-0.1,0.2-0.1,0.5-0.1,0.7c0,0.3,0,0.5,0.1,0.8
			C12,7.3,12.1,7.5,12.1,7.6z"/>
	</g>
	<g>
		<path fill="#F04B36" d="M17.6,5.5l0.1,0.3L17.8,6l0,0l0,0c0,0,0-0.1,0,0l0,0l0,0l0,0.1C17.8,6.2,18,6.4,18,6.6
			C18,6.7,18,6.8,18.1,7c0.1,0.3,0.1,0.7,0.1,1c0,0.3,0,0.7,0,1c0,0.3-0.1,0.7-0.1,1c0,0.3-0.1,0.6-0.1,0.9c-0.1,0.6-0.1,1-0.2,1.4
			c0,0.3-0.1,0.5-0.1,0.5s0.2-0.1,0.4-0.4c0.3-0.3,0.6-0.7,0.9-1.2c0.3-0.5,0.6-1.2,0.9-1.9c0.2-0.7,0.3-1.6,0.2-2.4
			c0-0.2-0.1-0.5-0.2-0.7c-0.1-0.2-0.2-0.4-0.2-0.6l-0.1-0.2l-0.1-0.1L19.3,5c-0.1-0.1-0.2-0.3-0.2-0.5C19,4.3,18.8,4,18.8,3.7
			c-0.1-0.3-0.1-0.6-0.2-0.8c-0.1-0.5-0.1-1,0-1.3c0-0.3,0.1-0.5,0.1-0.5s-0.2,0.1-0.5,0.4c-0.3,0.3-0.6,0.8-0.7,1.4
			c-0.1,0.3-0.2,0.6-0.2,1c0,0.4,0,0.7,0.1,1.1C17.5,5.1,17.5,5.3,17.6,5.5z"/>
	</g>
	<polygon fill="#E77528" points="37,29.1 4.2,29.1 1,24.2 40.3,24.2 	"/>
	<path fill="#F7A93B" d="M36.5,32.6c-0.5-0.2-1-0.3-1.5-0.4c-3.7-0.6-7.4-0.8-11.1-0.5c-0.3,0-0.8,0.1-0.8,0.5
		c0,0.3,0.2,0.5,0.4,0.6c1,0.7,2.1,1,3.3,1.4c3.3,1.2,1.1,1.8,0.9,1.9c-0.9,0.1-1.8,0.1-2.7,0.1c-2.8-0.2-5.5-1.2-8.2-2.2
		c-1.4-0.5-2.9-1.1-4.2-1.9c-0.4-0.3-1.1-0.1-1.4,0.4c-0.3,0.4-0.3,1,0,1.4c0.2,0.2,0.4,0.4,0.6,0.6c0.8,0.7,1.6,1.4,2.5,2.1
		c0.9,0.8,1.8,1.5,2.8,2.1c1.2,0.7,2.6,1,3.9,1.6c0.7,0.3,1.3,0.8,2,1c0.5,0.1,1.1,0.2,1.7,0.2c3,0,5.9,0,8.9-0.1c0.7,0,1.3,0,2,0.2
		c1,0.3,2.4,1.2,3,2l0.6-9.7C38.2,33.8,37.4,33,36.5,32.6z"/>
	<path fill="#294E58" d="M38.3,32.3V47H47V32.3H38.3z M42.6,45.7c-0.5,0-0.9-0.4-0.9-0.9c0-0.5,0.4-0.9,0.9-0.9
		c0.5,0,0.9,0.4,0.9,0.9C43.6,45.3,43.2,45.7,42.6,45.7z"/>
</g>
</svg>
