<?xml version="1.0" encoding="utf-8"?>
<!-- Generator: Adobe Illustrator 18.0.0, SVG Export Plug-In . SVG Version: 6.00 Build 0)  -->
<!DOCTYPE svg PUBLIC "-//W3C//DTD SVG 1.1//EN" "http://www.w3.org/Graphics/SVG/1.1/DTD/svg11.dtd">
<svg version="1.1" id="Layer_1" xmlns="http://www.w3.org/2000/svg" xmlns:xlink="http://www.w3.org/1999/xlink" x="0px" y="0px"
	 viewBox="0 0 48 48" enable-background="new 0 0 48 48" xml:space="preserve">
<g>
	<path fill="#F04B36" d="M21.9,18.7c-0.5,0-1-0.4-1.1-0.9L19.1,6.3c-0.2-1-0.7-1.9-1.6-2.5c-0.8-0.6-1.8-0.8-2.8-0.5L9.8,5.4
		c-0.6,0.2-1.2,0-1.4-0.6c-0.2-0.6,0-1.2,0.6-1.4l5-2.2c0.1,0,0.1,0,0.2-0.1c1.6-0.4,3.3-0.1,4.6,0.8c1.4,0.9,2.3,2.4,2.5,4
		l1.7,11.4c0.1,0.6-0.3,1.2-0.9,1.2C22,18.7,21.9,18.7,21.9,18.7z"/>
	<path fill="#E8B944" d="M39.7,15.5C39.7,15.5,39.7,15.5,39.7,15.5c0.2-4.2-0.3-7.5-0.3-7.7c-0.1-0.5-0.5-0.9-1.1-0.9H17
		c-0.5,0-1,0.4-1.1,0.9c0,0.1-0.5,3.5-0.3,7.8c0,0,0,0,0,0c0.4,6.8,2.7,15.4,10.9,16.9v12.4H19c-0.6,0-1.1,0.5-1.1,1.1
		S18.4,47,19,47h17.3c0.6,0,1.1-0.5,1.1-1.1s-0.5-1.1-1.1-1.1h-7.5V32.4C37.1,31,39.3,22.3,39.7,15.5z M33.6,22.7l-2.1,0.8
		c-0.6,0.2-1.2-0.1-1.4-0.6l-0.8-2.1c-0.2-0.6,0.1-1.2,0.6-1.4l2.1-0.8c0.6-0.2,1.2,0.1,1.4,0.6l0.8,2.1
		C34.4,21.9,34.2,22.5,33.6,22.7z M19.1,14.6c-0.4,0-0.8,0-1.2,0c-0.1-2.4,0.1-4.5,0.2-5.6h19.3c0.1,1.2,0.3,3.5,0.2,6
		c-1.1,0.6-2.4,0.8-4.1,0.8c-0.9,0-2-0.1-3.2-0.3c-1.6-0.3-3.3-0.6-4.9-1l-0.1,0c-0.6-0.2-1.3-0.3-2.2-0.3c0,0,0,0,0,0
		c-0.5,0-0.9,0.1-1.3,0.2c-0.2,0-0.3,0.1-0.5,0.1c-0.6,0.1-1.2,0.1-1.8,0.1L19.1,14.6z M24.1,22.9L22,23.8c-0.6,0.2-1.2-0.1-1.4-0.6
		L19.8,21c-0.2-0.6,0.1-1.2,0.6-1.4l2.1-0.8c0.6-0.2,1.2,0.1,1.4,0.6l0.8,2.1C25,22.1,24.7,22.7,24.1,22.9z M26.9,29.4
		c-0.6,0.2-1.2-0.1-1.4-0.6l-0.8-2.1c-0.2-0.6,0.1-1.2,0.6-1.4l2.1-0.8c0.6-0.2,1.2,0.1,1.4,0.6l0.8,2.1c0.2,0.6-0.1,1.2-0.6,1.4
		L26.9,29.4z"/>
</g>
</svg>
