<?xml version="1.0" encoding="utf-8"?>
<!-- Generator: Adobe Illustrator 18.0.0, SVG Export Plug-In . SVG Version: 6.00 Build 0)  -->
<!DOCTYPE svg PUBLIC "-//W3C//DTD SVG 1.1//EN" "http://www.w3.org/Graphics/SVG/1.1/DTD/svg11.dtd">
<svg version="1.1" id="Layer_1" xmlns="http://www.w3.org/2000/svg" xmlns:xlink="http://www.w3.org/1999/xlink" x="0px" y="0px"
	 viewBox="0 0 48 48" enable-background="new 0 0 48 48" xml:space="preserve">
<g>
	<path fill="#E77528" d="M40.4,7L26.2,5c-1.4-0.2-2,0.7-1.4,2l7.1,15c0.6,1.3,1.7,1.3,2.4,0.1l7.3-12.5C42.3,8.4,41.8,7.2,40.4,7z
		 M31.8,10.7c-0.5,0-0.8-0.4-0.8-0.8c0-0.5,0.4-0.8,0.8-0.8c0.4,0,0.8,0.4,0.8,0.8C32.6,10.4,32.2,10.7,31.8,10.7z M33.3,16.3
		c-0.5,0-0.8-0.4-0.8-0.8c0-0.5,0.4-0.8,0.8-0.8c0.4,0,0.8,0.4,0.8,0.8C34.1,15.9,33.7,16.3,33.3,16.3z M35.4,12.4
		c-0.5,0-0.8-0.4-0.8-0.8c0-0.5,0.4-0.8,0.8-0.8c0.5,0,0.8,0.4,0.8,0.8C36.2,12,35.8,12.4,35.4,12.4z"/>
	<path fill="#0DB89A" d="M40.4,15.8l-4.3,7.4c-0.7,1.2-1.8,1.9-3,1.9c-1.3,0-2.4-0.8-3.1-2.2l-4.3-9.1c-0.3,0-0.7,0-1,0l0.7,7.2
		c0.1,1.2-0.2,2.2-0.8,2.9c-0.6,0.7-1.4,1-2.3,1c-0.6,0-1.3-0.2-1.9-0.5L5.9,16.6c-0.1-0.1-0.2-0.1-0.3-0.2
		c-3.2,1.2-5.1,2.7-5.1,4.3c0,3.8,10.5,7,23.5,7c13,0,23.5-3.1,23.5-7C47.5,18.8,44.8,17,40.4,15.8z"/>
	<path fill="#E77528" d="M23.3,21.2L22,6.7c-0.1-1.4-1.2-2-2.5-1.4L6.9,12.3c-1.2,0.7-1.2,1.8,0,2.5l14.4,7.8
		C22.6,23.3,23.5,22.7,23.3,21.2z M13.9,14.1c-0.5,0-0.8-0.4-0.8-0.8c0-0.5,0.4-0.8,0.8-0.8c0.4,0,0.8,0.4,0.8,0.8
		C14.7,13.7,14.3,14.1,13.9,14.1z M17.5,11.6c0-0.5,0.4-0.8,0.8-0.8c0.5,0,0.8,0.4,0.8,0.8c0,0.5-0.4,0.8-0.8,0.8
		C17.9,12.4,17.5,12,17.5,11.6z M18.7,17.1c-0.5,0-0.8-0.4-0.8-0.8c0-0.5,0.4-0.8,0.8-0.8c0.4,0,0.8,0.4,0.8,0.8
		C19.5,16.8,19.1,17.1,18.7,17.1z"/>
	<path fill="#E8B944" d="M23.9,29.7c-9.2,0-18.8-1.6-23.2-4.9C2.7,35.1,12.3,43,23.8,43C35.4,43,45,35.2,47,24.8
		C42.6,28.1,33,29.7,23.9,29.7z"/>
</g>
</svg>
