<?xml version="1.0" encoding="utf-8"?>
<!-- Generator: Adobe Illustrator 18.0.0, SVG Export Plug-In . SVG Version: 6.00 Build 0)  -->
<!DOCTYPE svg PUBLIC "-//W3C//DTD SVG 1.1//EN" "http://www.w3.org/Graphics/SVG/1.1/DTD/svg11.dtd">
<svg version="1.1" id="Layer_1" xmlns="http://www.w3.org/2000/svg" xmlns:xlink="http://www.w3.org/1999/xlink" x="0px" y="0px"
	 viewBox="0 0 48 48" enable-background="new 0 0 48 48" xml:space="preserve">
<g>
	<path fill="#F04B36" d="M16.4,18.1L3.3,10.7c0,0,0,0-0.1,0c-0.8-0.4-1.7-0.1-2,0.7c-0.4,0.8-0.1,1.7,0.7,2l16.5,8.3L16.4,18.1z"/>
	<path fill="#F04B36" d="M35.8,29l-11.2-6.3l1.3,2.8l9.2,4.6c0.3,0.2,0.7,0,0.9-0.3C36.2,29.5,36.1,29.1,35.8,29z"/>
	<path fill="#294E58" d="M44,36.6c-0.1-0.2-0.4-0.2-0.6-0.2c-3.8-0.3-7.7,0.4-11.5,1c-0.3,0-0.5,0.1-0.8,0.1c0,0.2-0.1,0.4-0.1,0.5
		c-0.2,0.6-0.6,1-1.1,1.3c-0.3,0.1-0.6,0.2-0.9,0.2c-0.5,0-0.9-0.2-1.3-0.5c-0.1,0-0.1,0.1-0.2,0.1c-3,2-6,4-9.4,5.2
		c1,1.4,3,1.6,4.7,1.4c2.5-0.4,4.9-1.7,7.3-2.5c3.3-1.1,6.8-1.5,10.3-1.4c0.8,0,1.6,0,2.2-0.4c0.4-0.3,0.6-0.8,0.8-1.3
		c0.3-0.9,0.6-1.9,0.7-2.9C44.1,36.9,44.1,36.7,44,36.6z"/>
	<path fill="#06728D" d="M24.7,33.9c-0.3,0-0.6-0.2-0.7-0.5c-0.5-1.6-1.1-2.6-1.6-3.3c-1.7,0.8-3.3,1.8-4.7,3.1
		c-0.3,0.3-0.6,0.5-0.8,0.8c0.6,0.7,1.2,1.8,1.7,3.2c0.1,0.4-0.1,0.8-0.5,1c-0.1,0-0.2,0-0.3,0c-0.3,0-0.6-0.2-0.7-0.5
		c-0.4-1.1-0.9-1.9-1.3-2.5c-0.9,1.2-1.7,2.5-2.4,3.8c-0.4,0.6-0.7,1.2-0.9,1.9c-0.1,0.7,0,1.5,0.4,2c0.9,0.9,2.3,0.6,3.5,0.2
		c1.6-0.6,3.2-1.2,4.8-1.8c1.8-1,3.5-2.1,5.2-3.2l0.2-0.1c0,0,0.1,0,0.1-0.1L24.7,33.9z"/>
	<path fill="#06728D" d="M46.8,33.3c-1.2-1.9-2.9-3.5-5-4.5c0.3,0.7,0.5,1.6,0.7,2.6c0.1,0.4-0.2,0.8-0.6,0.9c0,0-0.1,0-0.1,0
		c-0.4,0-0.7-0.3-0.8-0.7c-0.3-1.9-0.8-3-1.3-3.6c-0.5-0.1-1.1-0.3-1.6-0.4c-0.8-0.2-1.6-0.5-2.4-0.7c-1-0.2-2-0.1-3,0
		c0.5,0.9,1,2.1,1.3,3.8c0.1,0.4-0.2,0.8-0.6,0.9c0,0-0.1,0-0.1,0c-0.4,0-0.7-0.3-0.8-0.7c-0.3-2.1-1-3.2-1.5-3.9
		c-1.1,0.1-2.3,0.3-3.3,0.6c-0.2,0-0.3,0.1-0.5,0.2l3.7,8c0.3-0.1,0.6-0.1,0.9-0.2c3.2-0.5,6.5-1.1,9.8-1.1c0.7,0,1.3,0,2,0.1
		c0.2,0,0.9,0.1,1.4,0.5c0.1,0,0.2,0,0.3,0c0.1,0,0.2,0,0.3,0C46.6,35.5,47.4,34.3,46.8,33.3z"/>
	<path fill="#F04B36" d="M28.4,37.5l-17.3-33c-0.4-0.7-0.1-1.7,0.6-2.1c0.7-0.4,1.7-0.1,2.1,0.6c0,0,0,0,0,0.1l15.8,33.8
		c0.2,0.3,0,0.7-0.3,0.9C28.9,38,28.6,37.8,28.4,37.5z"/>
</g>
</svg>
