<?xml version="1.0" encoding="utf-8"?>
<!-- Generator: Adobe Illustrator 18.0.0, SVG Export Plug-In . SVG Version: 6.00 Build 0)  -->
<!DOCTYPE svg PUBLIC "-//W3C//DTD SVG 1.1//EN" "http://www.w3.org/Graphics/SVG/1.1/DTD/svg11.dtd">
<svg version="1.1" id="Layer_1" xmlns="http://www.w3.org/2000/svg" xmlns:xlink="http://www.w3.org/1999/xlink" x="0px" y="0px"
	 viewBox="0 0 48 48" enable-background="new 0 0 48 48" xml:space="preserve">
<g>
	<path fill="#E77528" d="M43.9,42.1c-1.6-4.4-1.7-9.1-1.8-13.7C42,22.1,42,15.7,42,9.4c0-1.3,0-2.7-0.7-3.9
		c-0.3-0.5-0.8-1.1-0.4-1.7c2.6,0.3,5.4-0.9,6.1-2.7c-1.7,0.7-4-0.5-5.8,0.1C40.5,1.4,40,2,39.4,2.3c-1.2,0.5-2.7,0.3-4,0.1
		c-3.3-0.5-6.6-0.8-10-1c-2.8-0.1-5.8-0.1-8.4,0.5c-2.1,0.5-4,1.5-6.2,1.6c-1-1.2-2.8-2-4.7-2S2.2,2.1,1,3.1
		c2.4,0.5,4.8,2.1,7.1,1.4c-2.2,4.8-0.4,10-1.3,15c-0.2,1.4-0.7,2.8-0.7,4.2c0,1.1,0.3,2.2,0.5,3.4c0.2,1.5,0.2,3,0.2,4.4
		c0,2.2-0.1,4.4-0.1,6.6c0,1.6-0.1,3.3-1.3,4.7c-1,1.2-2.9,2.3-2.5,3.6c2.9-0.1,5.7-0.2,8.6-0.3c1.2,0,2.4-0.1,3.6,0
		c0.9,0.1,1.8,0.3,2.7,0.4c1.4,0.2,2.8,0.2,4.2,0.2c3.4,0.1,6.7,0.1,10.1,0.1c4.5,0.1,9.2,0.1,13.2-1.3c0.9-0.3,1.8-0.9,1.4-1.5
		C45.2,44.4,44.2,43.1,43.9,42.1z M21.4,14.4c0,0-0.1,3.9-1.8,4.9c0,0-1.1,1-2.1,0c0,0-0.8-0.9,0.6-2.1
		C19.6,15.8,20.7,16.1,21.4,14.4z M19.6,24.5c0,0-1.1,1-2.1,0c0,0-0.8-0.9,0.6-2.1c1.5-1.3,2.5-1,3.2-2.7
		C21.4,19.7,21.3,23.6,19.6,24.5z M21.4,25c0,0-0.1,3.9-1.8,4.9c0,0-1.1,1-2.1,0c0,0-0.8-0.9,0.6-2.1C19.6,26.4,20.7,26.7,21.4,25z
		 M15.7,13.5c0.3-1.9,1.3-2.3,0.7-4.1c0,0,2.4,3.1,1.7,4.9c0,0-0.2,1.4-1.6,1.3C16.6,15.6,15.4,15.4,15.7,13.5z M15.9,17.1
		c1.4,1.2,0.6,2.1,0.6,2.1c-1,1-2.1,0.1-2.1,0.1c-1.7-0.9-1.7-4.8-1.7-4.8C13.4,16.2,14.5,15.9,15.9,17.1z M15.9,22.4
		c1.4,1.2,0.6,2.1,0.6,2.1c-1,1-2.1,0.1-2.1,0.1c-1.7-0.9-1.7-4.8-1.7-4.8C13.4,21.5,14.5,21.2,15.9,22.4z M15.9,27.7
		c1.4,1.2,0.6,2.1,0.6,2.1c-1,1-2.1,0.1-2.1,0.1c-1.7-0.9-1.7-4.8-1.7-4.8C13.4,26.8,14.5,26.5,15.9,27.7z M12.6,29.8
		c0.7,1.7,1.7,1.4,3.2,2.6c1.5,1.2,0.6,2.1,0.6,2.1c-1,1-2.1,0.1-2.1,0.1C12.7,33.8,12.6,29.8,12.6,29.8z M17.6,42.6
		c0,0.3-0.3,0.6-0.6,0.6c0,0,0,0,0,0c-0.3,0-0.6-0.3-0.6-0.6l0-4.5c0-0.3,0.3-0.6,0.6-0.6c0,0,0,0,0,0c0.3,0,0.6,0.3,0.6,0.6
		L17.6,42.6z M19.2,37.2c-0.1,0.3-0.5,0.4-0.8,0.3c-1.6-0.7-2.7,0-2.7,0c-0.1,0.1-0.2,0.1-0.3,0.1c-0.2,0-0.4-0.1-0.5-0.3
		c-0.2-0.3-0.1-0.7,0.2-0.9c0.1,0,1.7-1.1,3.9-0.1C19.2,36.5,19.4,36.9,19.2,37.2z M19.5,34.5c0,0-1.1,0.9-2.1-0.1
		c0,0-0.8-0.9,0.7-2.1c1.5-1.2,2.5-0.9,3.3-2.6C21.4,29.7,21.2,33.7,19.5,34.5z M35.4,14.4c0,0-0.1,3.9-1.8,4.9c0,0-1.1,1-2.1,0
		c0,0-0.8-0.9,0.6-2.1C33.6,15.8,34.7,16.1,35.4,14.4z M33.6,24.5c0,0-1.1,1-2.1,0c0,0-0.8-0.9,0.6-2.1c1.5-1.3,2.5-1,3.2-2.7
		C35.4,19.7,35.3,23.6,33.6,24.5z M35.4,25c0,0-0.1,3.9-1.8,4.9c0,0-1.1,1-2.1,0c0,0-0.8-0.9,0.6-2.1C33.6,26.4,34.7,26.7,35.4,25z
		 M29.7,13.5c0.3-1.9,1.3-2.3,0.7-4.1c0,0,2.4,3.1,1.7,4.9c0,0-0.2,1.4-1.6,1.3C30.6,15.6,29.4,15.4,29.7,13.5z M29.9,17.1
		c1.4,1.2,0.6,2.1,0.6,2.1c-1,1-2.1,0.1-2.1,0.1c-1.7-0.9-1.7-4.8-1.7-4.8C27.4,16.2,28.4,15.9,29.9,17.1z M29.9,22.4
		c1.4,1.2,0.6,2.1,0.6,2.1c-1,1-2.1,0.1-2.1,0.1c-1.7-0.9-1.7-4.8-1.7-4.8C27.4,21.5,28.4,21.2,29.9,22.4z M29.9,27.7
		c1.4,1.2,0.6,2.1,0.6,2.1c-1,1-2.1,0.1-2.1,0.1c-1.7-0.9-1.7-4.8-1.7-4.8C27.4,26.8,28.4,26.5,29.9,27.7z M26.6,29.8
		c0.7,1.7,1.7,1.4,3.2,2.6c1.5,1.2,0.6,2.1,0.6,2.1c-1,1-2.1,0.1-2.1,0.1C26.7,33.8,26.6,29.8,26.6,29.8z M31.6,42.6
		c0,0.3-0.3,0.6-0.6,0.6c0,0,0,0,0,0c-0.3,0-0.6-0.3-0.6-0.6l0-4.5c0-0.3,0.3-0.6,0.6-0.6c0,0,0,0,0,0c0.3,0,0.6,0.3,0.6,0.6
		L31.6,42.6z M33.2,37.2c-0.1,0.3-0.5,0.4-0.8,0.3c-1.6-0.7-2.7,0-2.7,0c-0.1,0.1-0.2,0.1-0.3,0.1c-0.2,0-0.4-0.1-0.5-0.3
		c-0.2-0.3-0.1-0.7,0.2-0.9c0.1,0,1.7-1.1,3.9-0.1C33.2,36.5,33.3,36.9,33.2,37.2z M33.5,34.5c0,0-1.1,0.9-2.1-0.1
		c0,0-0.8-0.9,0.7-2.1c1.5-1.2,2.5-0.9,3.3-2.6C35.4,29.7,35.2,33.7,33.5,34.5z"/>
</g>
</svg>
