<?xml version="1.0" encoding="utf-8"?>
<!-- Generator: Adobe Illustrator 18.0.0, SVG Export Plug-In . SVG Version: 6.00 Build 0)  -->
<!DOCTYPE svg PUBLIC "-//W3C//DTD SVG 1.1//EN" "http://www.w3.org/Graphics/SVG/1.1/DTD/svg11.dtd">
<svg version="1.1" id="Layer_1" xmlns="http://www.w3.org/2000/svg" xmlns:xlink="http://www.w3.org/1999/xlink" x="0px" y="0px"
	 viewBox="0 0 48 48" enable-background="new 0 0 48 48" xml:space="preserve">
<g>
	<path fill="#F04B36" d="M23,5.3l0.1,0.3l0.1,0.1l0,0l0,0c0,0,0-0.1,0,0l0,0l0,0l0,0.1c0.1,0.2,0.1,0.4,0.2,0.5
		c0,0.1,0.1,0.3,0.1,0.4c0.1,0.3,0.1,0.6,0.1,1c0,0.3,0,0.6,0,1c0,0.3-0.1,0.6-0.1,0.9c0,0.3-0.1,0.6-0.1,0.8
		c-0.1,0.5-0.1,1-0.2,1.3c0,0.3-0.1,0.5-0.1,0.5s0.2-0.1,0.4-0.4c0.2-0.3,0.5-0.7,0.8-1.2c0.3-0.5,0.6-1.1,0.8-1.8
		c0.2-0.7,0.3-1.5,0.2-2.3c0-0.2-0.1-0.4-0.2-0.6c-0.1-0.2-0.1-0.4-0.2-0.5l-0.1-0.2L24.7,5l-0.1-0.2c-0.1-0.1-0.1-0.3-0.2-0.4
		c-0.1-0.3-0.2-0.6-0.3-0.8C24,3.3,23.9,3,23.9,2.8c-0.1-0.5-0.1-0.9,0-1.3C23.9,1.2,24,1,24,1s-0.2,0.1-0.4,0.4
		c-0.2,0.3-0.5,0.7-0.7,1.3c-0.1,0.3-0.1,0.6-0.1,1c0,0.3,0,0.7,0.1,1.1C22.9,4.9,22.9,5.1,23,5.3z"/>
	<path fill="#F04B36" d="M28.2,5.3l0.1,0.3l0.1,0.1l0,0l0,0c0,0,0-0.1,0,0l0,0l0,0l0,0.1c0.1,0.2,0.1,0.4,0.2,0.5
		c0,0.1,0.1,0.3,0.1,0.4c0.1,0.3,0.1,0.6,0.1,1c0,0.3,0,0.6,0,1c0,0.3-0.1,0.6-0.1,0.9c0,0.3-0.1,0.6-0.1,0.8
		c-0.1,0.5-0.1,1-0.2,1.3c0,0.3-0.1,0.5-0.1,0.5s0.2-0.1,0.4-0.4c0.2-0.3,0.5-0.7,0.8-1.2c0.3-0.5,0.6-1.1,0.8-1.8
		c0.2-0.7,0.3-1.5,0.2-2.3c0-0.2-0.1-0.4-0.2-0.6c-0.1-0.2-0.1-0.4-0.2-0.5l-0.1-0.2L29.9,5l-0.1-0.2c-0.1-0.1-0.1-0.3-0.2-0.4
		c-0.1-0.3-0.2-0.6-0.3-0.8c-0.1-0.3-0.1-0.5-0.2-0.8c-0.1-0.5-0.1-0.9,0-1.3c0-0.3,0.1-0.5,0.1-0.5S29,1.1,28.8,1.4
		c-0.2,0.3-0.5,0.7-0.7,1.3C28,3,28,3.3,28,3.7c0,0.3,0,0.7,0.1,1.1C28.1,4.9,28.1,5.1,28.2,5.3z"/>
	<path fill="#F04B36" d="M17.8,5.3l0.1,0.3L18,5.7l0,0l0,0c0,0,0-0.1,0,0l0,0l0,0l0,0.1c0.1,0.2,0.1,0.4,0.2,0.5
		c0,0.1,0.1,0.3,0.1,0.4c0.1,0.3,0.1,0.6,0.1,1c0,0.3,0,0.6,0,1c0,0.3-0.1,0.6-0.1,0.9c0,0.3-0.1,0.6-0.1,0.8
		c-0.1,0.5-0.1,1-0.2,1.3c0,0.3-0.1,0.5-0.1,0.5s0.2-0.1,0.4-0.4c0.2-0.3,0.5-0.7,0.8-1.2c0.3-0.5,0.6-1.1,0.8-1.8
		C20,8.1,20.1,7.3,20,6.5c0-0.2-0.1-0.4-0.2-0.6c-0.1-0.2-0.1-0.4-0.2-0.5l-0.1-0.2L19.5,5l-0.1-0.2c-0.1-0.1-0.1-0.3-0.2-0.4
		c-0.1-0.3-0.2-0.6-0.3-0.8c-0.1-0.3-0.1-0.5-0.2-0.8c-0.1-0.5-0.1-0.9,0-1.3c0-0.3,0.1-0.5,0.1-0.5s-0.2,0.1-0.4,0.4
		c-0.2,0.3-0.5,0.7-0.7,1.3c-0.1,0.3-0.1,0.6-0.1,1c0,0.3,0,0.7,0.1,1.1C17.7,4.9,17.7,5.1,17.8,5.3z"/>
	<polygon fill="#F7A93B" points="36.1,15.8 11.9,15.8 9.8,18.6 38.2,18.6 	"/>
	<polygon fill="#06728D" points="24,21.1 11.2,21.1 14.7,47 24,47 33.3,47 36.8,21.1 	"/>
	<rect x="9.8" y="21.1" fill="#F04B36" width="28.3" height="1.9"/>
</g>
</svg>
