<?xml version="1.0" encoding="utf-8"?>
<!-- Generator: Adobe Illustrator 18.0.0, SVG Export Plug-In . SVG Version: 6.00 Build 0)  -->
<!DOCTYPE svg PUBLIC "-//W3C//DTD SVG 1.1//EN" "http://www.w3.org/Graphics/SVG/1.1/DTD/svg11.dtd">
<svg version="1.1" id="Layer_1" xmlns="http://www.w3.org/2000/svg" xmlns:xlink="http://www.w3.org/1999/xlink" x="0px" y="0px"
	 viewBox="0 0 48 48" enable-background="new 0 0 48 48" xml:space="preserve">
<g>
	<path fill="#E77528" d="M37.7,3.1c0-1.2-0.9-2.1-2.1-2.1H12.4c-1.2,0-2.1,0.9-2.1,2.1V6h27.5V3.1z"/>
	<path fill="#0DB89A" d="M37.5,8.2H10.5c-2.2,0-4,1.8-4,4V43c0,2.2,1.8,4,4,4h26.9c2.2,0,4-1.8,4-4V12.2C41.5,10,39.7,8.2,37.5,8.2z
		 M22.9,44c-6.1,0-11-2.4-11-5.2c0-2.9,4.9-5.3,11-5.3s11,2.4,11,5.3C33.9,41.6,29,44,22.9,44z M33.2,34.2c-2.3-1.7-6-2.7-10.3-2.7
		c-0.4,0-0.9,0-1.3,0c0.6-0.8,1.3-1.6,2.1-2.4c4.3-4.3,9.5-6,11.5-3.9C36.9,26.8,36,30.6,33.2,34.2z"/>
</g>
</svg>
