<?xml version="1.0" encoding="utf-8"?>
<!-- Generator: Adobe Illustrator 18.0.0, SVG Export Plug-In . SVG Version: 6.00 Build 0)  -->
<!DOCTYPE svg PUBLIC "-//W3C//DTD SVG 1.1//EN" "http://www.w3.org/Graphics/SVG/1.1/DTD/svg11.dtd">
<svg version="1.1" id="Layer_1" xmlns="http://www.w3.org/2000/svg" xmlns:xlink="http://www.w3.org/1999/xlink" x="0px" y="0px"
	 viewBox="0 0 48 48" enable-background="new 0 0 48 48" xml:space="preserve">
<g>
	<path fill="#F7A93B" d="M9,34.3c4.4-1.5,8.3-4.1,12.1-6.7C22,27,23,26.4,24,26c0.9-0.3,1.8-0.5,2.8-0.6c4.9-0.8,9.9-1.6,14.8-1.3
		c0.3,0,0.6,0.1,0.8,0.3c0.1,0.2,0.1,0.4,0.1,0.7c-0.1,1.3-0.4,2.5-0.9,3.8c-0.2,0.6-0.5,1.3-1,1.7c-0.8,0.6-1.8,0.6-2.8,0.6
		c-4.5-0.1-9.1,0.4-13.4,1.8c-3.1,1.1-6.1,2.7-9.4,3.2C12.9,36.4,10.3,36.1,9,34.3z"/>
	<path fill="#F04B36" d="M46.1,20.2c-1.5-2.5-3.8-4.6-6.5-5.8c0.4,0.9,0.7,2,0.9,3.4c0.1,0.5-0.3,1.1-0.8,1.1c-0.1,0-0.1,0-0.2,0
		c-0.5,0-0.9-0.3-1-0.8c-0.4-2.4-1.1-3.9-1.7-4.7c-0.7-0.2-1.4-0.4-2.1-0.6c-1-0.3-2.1-0.7-3.1-0.9c-1.3-0.2-2.5-0.1-3.8,0
		c0.7,1.1,1.3,2.7,1.7,4.9c0.1,0.5-0.3,1.1-0.8,1.1c-0.1,0-0.1,0-0.2,0c-0.5,0-0.9-0.3-1-0.8c-0.4-2.7-1.3-4.2-2-5
		c-1.5,0.2-2.9,0.4-4.3,0.8c-1.7,0.5-3.2,1.2-4.8,2c0.8,1,1.6,2.5,2.2,4.6c0.2,0.5-0.2,1.1-0.7,1.2c-0.1,0-0.2,0-0.3,0
		c-0.4,0-0.8-0.3-1-0.7c-0.6-2.1-1.4-3.4-2.1-4.2c-2.2,1.1-4.3,2.3-6.1,4C8,20.2,7.7,20.6,7.3,21c0.8,0.9,1.6,2.3,2.2,4.1
		c0.2,0.5-0.1,1.1-0.6,1.3c-0.1,0-0.2,0.1-0.3,0.1c-0.4,0-0.8-0.3-0.9-0.7c-0.5-1.4-1.1-2.5-1.7-3.2c-1.2,1.5-2.2,3.2-3.1,4.9
		c-0.5,0.8-0.9,1.6-1.1,2.5c-0.2,0.9-0.1,1.9,0.6,2.6c1.1,1.2,3,0.8,4.6,0.2c2.1-0.7,4.2-1.6,6.2-2.4c2.3-1.2,4.5-2.7,6.7-4.2L20,26
		c1-0.7,2.1-1.4,3.4-1.9c1.1-0.4,2.2-0.6,3.2-0.7c4.1-0.7,8.4-1.4,12.7-1.4c0.9,0,1.7,0,2.6,0.1c0.3,0,1.1,0.1,1.8,0.6
		c0.1,0,0.2,0,0.4,0c0.1,0,0.3,0,0.4,0C45.8,23,46.8,21.4,46.1,20.2z"/>
</g>
</svg>
