<?xml version="1.0" encoding="utf-8"?>
<!-- Generator: Adobe Illustrator 18.0.0, SVG Export Plug-In . SVG Version: 6.00 Build 0)  -->
<!DOCTYPE svg PUBLIC "-//W3C//DTD SVG 1.1//EN" "http://www.w3.org/Graphics/SVG/1.1/DTD/svg11.dtd">
<svg version="1.1" id="Layer_1" xmlns="http://www.w3.org/2000/svg" xmlns:xlink="http://www.w3.org/1999/xlink" x="0px" y="0px"
	 viewBox="0 0 48 48" enable-background="new 0 0 48 48" xml:space="preserve">
<g>
	<path fill="#E8B944" d="M44,9.3c0-0.1-0.1-0.2-0.2-0.3c-3.1-3.5-0.6-6.3-0.5-6.4c0.4-0.4,0.3-1-0.2-1.4C42.9,1.1,42.7,1,42.5,1l0,0
		l0,0c-0.1,0-0.2,0-0.3,0H10c-3.1,0-5.7,2.1-6,4.7H4v35.8c0,3,2.8,5.5,6.4,5.5H44V12.7L44,9.3L44,9.3L44,9.3z M17.4,24.5l0.9,16.2
		c0.1,0.7-0.6,1.3-1.4,1.3s-1.5-0.6-1.4-1.3l0.9-16.2c-2.2-0.3-3.8-2.6-3.8-5.4c0-3,2-5.5,4.4-5.5c2.4,0,4.4,2.5,4.4,5.5
		C21.3,21.9,19.6,24.2,17.4,24.5z M31.9,42.4c-1.1,0-2-0.6-1.9-1.3l0.8-11.7C29,24.5,27.2,17,31.6,13.4c0.5-0.4,1.2-0.1,1.2,0.4
		v14.8L33.8,41C33.8,41.8,33,42.4,31.9,42.4z M38.6,9.3L38.6,9.3l-28.4,0c-1.8,0-3.4-1-3.8-2.5C5.9,4.8,7.7,3,10,3h30.4
		c-0.7,1.6-0.9,3.9,0.9,6.3H38.6z"/>
</g>
</svg>
