<?xml version="1.0" encoding="utf-8"?>
<!-- Generator: Adobe Illustrator 18.0.0, SVG Export Plug-In . SVG Version: 6.00 Build 0)  -->
<!DOCTYPE svg PUBLIC "-//W3C//DTD SVG 1.1//EN" "http://www.w3.org/Graphics/SVG/1.1/DTD/svg11.dtd">
<svg version="1.1" id="Layer_1" xmlns="http://www.w3.org/2000/svg" xmlns:xlink="http://www.w3.org/1999/xlink" x="0px" y="0px"
	 viewBox="0 0 48 48" enable-background="new 0 0 48 48" xml:space="preserve">
<g>
	<path fill="#06728D" d="M13,15.4l-1.2,0.5c-0.1-0.2-0.4-0.3-0.6-0.2l0.1,0C11,15.7,10.9,16,11,16.2l0.4,1l0,0l1,2.6
		c0.1,0.2,0.4,0.3,0.6,0.2l-0.1,0c0.3-0.1,0.4-0.4,0.3-0.6l1.2-0.5c7.6-2.9,11.2-1,14.2-1.8L45.2,11c1.4-0.5,2.1-1.9,1.7-3.1l-1-2.7
		l0,0l-1-2.7c-0.5-1.2-1.9-1.8-3.3-1.2L24.9,7.4C22.1,8.8,20.7,12.6,13,15.4z"/>
	<path fill="#CFD0D1" d="M8.2,28.9c-0.1-2,0.5-3.9,0.7-5.8c0.2-1.9,0-4,1.1-5.5c0.3-0.5,0.7-0.8,1.2-1.1c0.7,0.6,1.1,1.3,1.2,2.2
		c0,0.2,0.1,0.4,0,0.6c0,0.2-0.2,0.4-0.3,0.6c-0.4,0.8-0.4,1.8-0.3,2.7c0.1,0.9,0.3,1.8,0.4,2.7c0.1,0.8,0.1,1.5,0.1,2.3
		c0,0.6,0,1.2-0.5,1.5c-0.5,0.4-1.2,0.3-1.9,0.2C9.4,29.2,8.9,29.1,8.2,28.9z"/>
	<path fill="#E77528" d="M13.8,45.6H9.1v-10c0-0.4-0.3-0.7-0.7-0.7s-0.7,0.3-0.7,0.7v10H3.1c-0.4,0-0.7,0.3-0.7,0.7
		c0,0.4,0.3,0.7,0.7,0.7h10.6c0.4,0,0.7-0.3,0.7-0.7C14.5,45.9,14.1,45.6,13.8,45.6z"/>
	<path fill="#0DB89A" d="M15.7,22.8c0-0.3-0.3-0.6-0.7-0.6H1.9c-0.3,0-0.6,0.2-0.7,0.6c0,0.1-0.3,2.2-0.2,4.8c0,0,0,0,0,0
		c0.3,4.4,1.8,9.9,7.4,10.5l0,0c0,0,0,0,0.1,0c0,0,0,0,0.1,0l0,0c5.6-0.6,7.1-6.2,7.4-10.6c0,0,0,0,0,0C16,25,15.7,22.9,15.7,22.8z
		 M2.5,23.6h11.9c0.1,0.7,0.2,2.1,0.1,3.7c-0.7,0.4-1.5,0.5-2.5,0.5c-0.6,0-1.2-0.1-2-0.2c-1-0.2-2-0.4-3-0.6l-0.1,0
		c-0.4-0.1-0.8-0.2-1.3-0.2c0,0,0,0,0,0c-0.3,0-0.5,0.1-0.8,0.1c-0.1,0-0.2,0-0.3,0.1C4.1,27,3.8,27,3.4,27l-0.3,0
		c-0.3,0-0.5,0-0.8,0C2.3,25.6,2.4,24.3,2.5,23.6z"/>
</g>
</svg>
