<?xml version="1.0" encoding="utf-8"?>
<!-- Generator: Adobe Illustrator 18.0.0, SVG Export Plug-In . SVG Version: 6.00 Build 0)  -->
<!DOCTYPE svg PUBLIC "-//W3C//DTD SVG 1.1//EN" "http://www.w3.org/Graphics/SVG/1.1/DTD/svg11.dtd">
<svg version="1.1" id="Layer_1" xmlns="http://www.w3.org/2000/svg" xmlns:xlink="http://www.w3.org/1999/xlink" x="0px" y="0px"
	 viewBox="0 0 48 48" enable-background="new 0 0 48 48" xml:space="preserve">
<g>
	<ellipse fill="#06728D" cx="21.8" cy="43.8" rx="9.8" ry="3.2"/>
	<path fill="#06728D" d="M41.2,3.4c-0.7-0.8-1.9-1-2.8-0.3l-11,8.9c0.6,0.7,1.2,1.3,1.6,2.1c0.1,0.2,0.2,0.4,0.3,0.6l11.4-8.4
		c0,0,0,0,0.1-0.1C41.8,5.4,41.9,4.2,41.2,3.4z"/>
	<rect x="20" y="29.9" fill="#4DA0D8" width="3.6" height="13.2"/>
	<path fill="#F7A93B" d="M28.5,6.8c-4.7,0-8.6,3.8-8.6,8.6c0,0.5,0.1,1,0.1,1.4H37c0.1-0.5,0.1-1,0.1-1.4
		C37.1,10.6,33.3,6.8,28.5,6.8z"/>
	<path fill="#F04B36" d="M21.7,6.6c1.8-1.4,4-2.2,6.3-2.2c0.2,0,0.3,0,0.5,0C27,2.4,24.5,1,21.7,1c-2.8,0-5.3,1.4-6.8,3.5
		c0.2,0,0.3,0,0.5,0C17.8,4.5,20,5.3,21.7,6.6z"/>
	<path fill="#4DA0D8" d="M17.2,15.4c0-2.7,1-5.2,2.7-7c-1.4-1-3.1-1.6-5-1.6c-4.7,0-8.6,3.8-8.6,8.6c0,0.5,0.1,1,0.1,1.4h10.8
		C17.2,16.3,17.2,15.9,17.2,15.4z"/>
	<path fill="#CFD0D1" d="M37.2,19.2c0,7.6-6.9,13.8-15.4,13.8S6.4,26.8,6.4,19.2"/>
</g>
</svg>
