<?xml version="1.0" encoding="utf-8"?>
<!-- Generator: Adobe Illustrator 18.0.0, SVG Export Plug-In . SVG Version: 6.00 Build 0)  -->
<!DOCTYPE svg PUBLIC "-//W3C//DTD SVG 1.1//EN" "http://www.w3.org/Graphics/SVG/1.1/DTD/svg11.dtd">
<svg version="1.1" id="Layer_1" xmlns="http://www.w3.org/2000/svg" xmlns:xlink="http://www.w3.org/1999/xlink" x="0px" y="0px"
	 viewBox="0 0 48 48" enable-background="new 0 0 48 48" xml:space="preserve">
<g>
	<path fill="none" d="M23.3,18.2c0.1,0.6,0.7,1.1,1.3,1.1c0.1,0,0.2,0,0.3,0c0.7-0.1,1.2-0.9,1-1.6c-1.1-5.5-6.2-6.8-8.7-6.7
		c-0.7,0-1.3,0.6-1.3,1.4c0,0.7,0.6,1.3,1.3,1.3c0,0,0,0,0,0C17.6,13.6,22.4,13.6,23.3,18.2z"/>
	<path fill="none" d="M34.3,23c-0.7-0.3-1.5,0.1-1.7,0.8c-0.3,0.7,0.1,1.5,0.8,1.7c0,0,3.3,1.3,4.5,4.2c0.7,1.6,0.5,3.4-0.4,5.5
		c-0.3,0.7,0,1.5,0.7,1.8c0.2,0.1,0.4,0.1,0.5,0.1c0.5,0,1-0.3,1.2-0.8c1.2-2.7,1.4-5.3,0.4-7.6C38.7,24.7,34.5,23,34.3,23z"/>
	<path fill="none" d="M20.1,21.5c-0.7-0.1-1.4,0.3-1.6,1.1c-0.1,0.7,0.3,1.4,1.1,1.6c0.3,0.1,7.6,1.5,7.4,6.9c0,0.7,0.5,1.4,1.3,1.4
		c0,0,0,0,0.1,0c0.7,0,1.3-0.6,1.3-1.3C29.9,24.9,23.6,22.1,20.1,21.5z"/>
	<path fill="#E77528" d="M10.9,39.2c1.9-1.7,4.1-3.6,6.2-5.5l-2.3-1.6c-2.8,2.5-5.6,5-8,7.1c2-3.7,3.3-7.4,3.9-9.6l-2-2.8
		c0,0,0,0,0,0c0,0.1-2.1,9.6-7.8,16.3c-0.5,0.5-0.4,1.3,0.1,1.8c0,0.4,0.1,0.7,0.3,1c0.2,0.2,0.4,0.3,0.7,0.4
		C2,46.8,2.2,47,2.4,47.2c0.2,0.2,0.5,0.3,0.8,0.3c0.4,0,0.8-0.2,1.1-0.5c0.1-0.1,6.6-8.2,18.4-6.7c0.3,0,0.6,0,0.8-0.2L19,37.5
		C15.8,37.6,13.1,38.2,10.9,39.2z"/>
	<path fill="#0DB89A" d="M47.5,22.5c0-5-4-9-8.9-9c-0.6,0-1.3,0.1-1.9,0.2c-0.5-1.5-1.6-2.8-3-3.6c0-0.3,0.1-0.7,0.1-1
		c0-4.7-3.8-8.6-8.5-8.6c-3.1,0-5.8,1.6-7.3,4.3c-1.4-0.7-3-1.1-4.6-1.1C7.7,3.6,3.1,8.3,3.1,14c0,3.4,1.6,6.6,4.4,8.5
		c0.1,1.6,0.5,3.1,1.2,4.4l2,2.8c1.1,1.1,2.5,2,4,2.5l2.3,1.6c0.3,1.4,1,2.7,1.9,3.8l4.6,2.7c0.6,0.1,1.2,0.2,1.8,0.2
		c1.1,0,2.1-0.2,3.1-0.6c1.7,3.3,5.1,5.4,8.8,5.4c5.5,0,10-4.5,10-10.1c0-2.3-0.8-4.5-2.2-6.3C46.6,27.1,47.5,24.8,47.5,22.5z
		 M17.3,13.6C17.3,13.6,17.3,13.6,17.3,13.6c-0.8,0-1.3-0.6-1.4-1.3c0-0.7,0.6-1.3,1.3-1.4c2.5-0.1,7.6,1.2,8.7,6.7
		c0.2,0.7-0.3,1.4-1,1.6c-0.1,0-0.2,0-0.3,0c-0.6,0-1.2-0.4-1.3-1.1C22.4,13.6,17.6,13.6,17.3,13.6z M28.3,32.4
		C28.3,32.4,28.3,32.4,28.3,32.4c-0.8,0-1.4-0.7-1.3-1.4c0.2-5.4-7-6.8-7.4-6.9c-0.7-0.1-1.2-0.8-1.1-1.6c0.1-0.7,0.8-1.2,1.6-1.1
		c3.4,0.6,9.8,3.4,9.5,9.6C29.6,31.8,29.1,32.4,28.3,32.4z M39.9,36.2c-0.2,0.5-0.7,0.8-1.2,0.8c-0.2,0-0.4,0-0.5-0.1
		c-0.7-0.3-1-1.1-0.7-1.8c0.9-2,1-3.9,0.4-5.5c-1.2-2.9-4.5-4.2-4.5-4.2c-0.7-0.3-1-1-0.8-1.7c0.3-0.7,1-1,1.7-0.8
		c0.2,0.1,4.4,1.7,6,5.6C41.3,30.9,41.1,33.5,39.9,36.2z"/>
</g>
</svg>
