<?xml version="1.0" encoding="utf-8"?>
<!-- Generator: Adobe Illustrator 18.0.0, SVG Export Plug-In . SVG Version: 6.00 Build 0)  -->
<!DOCTYPE svg PUBLIC "-//W3C//DTD SVG 1.1//EN" "http://www.w3.org/Graphics/SVG/1.1/DTD/svg11.dtd">
<svg version="1.1" id="Layer_1" xmlns="http://www.w3.org/2000/svg" xmlns:xlink="http://www.w3.org/1999/xlink" x="0px" y="0px"
	 viewBox="0 0 48 48" enable-background="new 0 0 48 48" xml:space="preserve">
<g>
	<path fill="#294E58" d="M11.3,20.4c1,1,2.4,1.2,3.2,0.3c0.8-0.9,0.7-2.4-0.3-3.5L6.8,9.1c-1-1-2.4-1.2-3.2-0.3
		c-0.8,0.9-0.7,2.4,0.3,3.5L11.3,20.4z"/>
	<path fill="#294E58" d="M36.7,20.4l7.5-8.1c1-1,1.1-2.6,0.3-3.5c-0.8-0.9-2.2-0.7-3.2,0.3l-7.5,8.1c-1,1-1.1,2.6-0.3,3.5
		C34.3,21.5,35.7,21.4,36.7,20.4z"/>
	<path fill="#FFD69A" d="M44.3,17.1h-2l-4.2,4.6c-0.9,1-2.1,1.5-3.3,1.5c0,0,0,0,0,0c-1.1,0-2.1-0.4-2.8-1.2
		c-1.2-1.3-1.4-3.2-0.6-4.9H16.6c0.8,1.7,0.6,3.6-0.6,4.9c-0.7,0.8-1.7,1.2-2.8,1.2c-1.2,0-2.4-0.6-3.3-1.5l-4.2-4.6h-2
		c-1.5,0-2.7,1.2-2.7,2.7c0,1.5,1.2,2.7,2.7,2.7H5l4.2,22.7c0.1,1,1,1.9,2,1.9h25.7c1,0,1.9-0.9,2-1.9L43,22.4h1.4
		c1.5,0,2.7-1.2,2.7-2.7C47,18.3,45.8,17.1,44.3,17.1z M15.5,41.7H13V27.5h2.6V41.7z M22,41.7h-2.6V27.5H22V41.7z M28.5,41.7H26
		V27.5h2.6V41.7z M35,41.7h-2.6V27.5H35V41.7z"/>
	<path fill="#F04B36" d="M33.9,2.1L33.9,2.1c0.3,0,0.5-0.2,0.5-0.5c0-0.3-0.2-0.5-0.5-0.5h-10c-0.3,0-0.5,0.2-0.5,0.5
		c0,0.3,0.2,0.5,0.5,0.5h0.2L23,4.7V6l0.6,1.4V6.9c0-0.3,0.2-0.5,0.5-0.5s0.5,0.2,0.5,0.5v8.2H33l1.8-1.9V4.7L33.9,2.1z"/>
	<path fill="#F7A93B" d="M10.4,7.9C10.1,8.4,10,9,9.8,9.5l5.1,5.6h4.6c1.4-2.7,1-5.2,0.5-6.8c-0.4-1.2-1.2-2.2-2.2-2.7l-0.6-0.3
		C16.2,4.9,12.6,3.9,10.4,7.9z"/>
	<path fill="#0DB89A" d="M24.3,9.8C24.2,9.2,24,8.6,23.9,8c-0.1-0.2-0.1-0.4-0.2-0.6L23,6c-0.3-0.5-0.7-0.9-1.2-1.3
		c-0.4-0.4-0.8-0.8-1.3-1c-0.3-0.2-0.6-0.3-1-0.3c0.3-0.3,0.7-0.5,1.1-0.8c0.2-0.1,0.2-0.3,0.1-0.5c-0.1-0.2-0.3-0.3-0.5-0.2
		c-1.7,1-2.6,2.4-3.1,3.3l0.6,0.3c0.2-0.4,0.5-0.9,1-1.4c0.1,0.1,0.1,0.1,0.2,0.2c1.6,1.5,2.6,3.6,3.2,5.8c0.4,1.6,0.7,3.2,0.6,4.9
		H24c0.2-0.8,0.3-1.6,0.4-2.4C24.4,11.7,24.5,10.7,24.3,9.8z"/>
</g>
</svg>
