<?xml version="1.0" encoding="utf-8"?>
<!-- Generator: Adobe Illustrator 18.0.0, SVG Export Plug-In . SVG Version: 6.00 Build 0)  -->
<!DOCTYPE svg PUBLIC "-//W3C//DTD SVG 1.1//EN" "http://www.w3.org/Graphics/SVG/1.1/DTD/svg11.dtd">
<svg version="1.1" id="Layer_1" xmlns="http://www.w3.org/2000/svg" xmlns:xlink="http://www.w3.org/1999/xlink" x="0px" y="0px"
	 viewBox="0 0 48 48" enable-background="new 0 0 48 48" xml:space="preserve">
<g>
	<ellipse transform="matrix(0.9854 0.1701 -0.1701 0.9854 6.7067 -2.8886)" fill="#F04B36" cx="20.2" cy="37.7" rx="6.3" ry="7.9"/>
	
		<ellipse transform="matrix(0.8898 -0.4563 0.4563 0.8898 -13.4495 19.708)" fill="#F04B36" cx="34.1" cy="37.7" rx="6.3" ry="7.9"/>
	<path fill="#0DB89A" d="M1,32.9c-0.4,0-0.8-0.2-0.9-0.6c-0.2-0.5,0.1-1.1,0.6-1.3l46-18c0.5-0.2,1.1,0.1,1.3,0.6
		c0.2,0.5-0.1,1.1-0.6,1.3l-46,18C1.2,32.8,1.1,32.9,1,32.9z"/>
	<path fill="#0DB89A" d="M33.2,36.5c-0.3,0-0.6-0.2-0.8-0.4L25,25.1l-2.9,8.9c-0.2,0.5-0.7,0.8-1.3,0.6c-0.5-0.2-0.8-0.7-0.6-1.3
		l3.5-10.9c0.1-0.4,0.4-0.6,0.8-0.7c0.4-0.1,0.8,0.1,1,0.4L34,34.9c0.3,0.5,0.2,1.1-0.3,1.4C33.6,36.4,33.4,36.5,33.2,36.5z"/>
	<path fill="#0DB89A" d="M35,2.4c0,0,3,15.3-7.1,18.1c0,0-1.6-6.2,1.7-9c0,0-5.4,3.1-4.8,9C24.8,20.6,18.1,7.8,35,2.4z"/>
</g>
</svg>
