<?xml version="1.0" encoding="utf-8"?>
<!-- Generator: Adobe Illustrator 18.0.0, SVG Export Plug-In . SVG Version: 6.00 Build 0)  -->
<!DOCTYPE svg PUBLIC "-//W3C//DTD SVG 1.1//EN" "http://www.w3.org/Graphics/SVG/1.1/DTD/svg11.dtd">
<svg version="1.1" id="Layer_1" xmlns="http://www.w3.org/2000/svg" xmlns:xlink="http://www.w3.org/1999/xlink" x="0px" y="0px"
	 viewBox="0 0 48 48" enable-background="new 0 0 48 48" xml:space="preserve">
<g>
	<path fill="#06728D" d="M38.3,7.3H19.8V3.7l0,0c0-0.1,0.1-0.2,0.1-0.3C19.9,2,17.7,1,14.8,1S9.7,2,9.7,3.4c0,0.1,0,0.2,0.1,0.3l0,0
		v3.6H9.7c-1.6,0-3,1.2-3,2.6v34.4c0,1.5,1.3,2.6,3,2.6h28.6c1.6,0,3-1.2,3-2.6V9.9C41.3,8.5,39.9,7.3,38.3,7.3z M14.8,5.8
		c-0.3,0-0.7,0-1,0C14.1,5.7,14.4,5.8,14.8,5.8c0.3,0,0.7,0,1,0C15.5,5.7,15.1,5.8,14.8,5.8z M16.1,5.7c0.2,0,0.4,0,0.5-0.1
		C16.5,5.6,16.3,5.6,16.1,5.7z M17.1,5.5c0.1,0,0.3-0.1,0.4-0.1C17.4,5.4,17.3,5.5,17.1,5.5z M18,5.2c0.1,0,0.2-0.1,0.2-0.1
		C18.1,5.2,18.1,5.2,18,5.2z M18.7,4.9c0,0,0.1,0,0.1-0.1C18.8,4.9,18.7,4.9,18.7,4.9z M19.2,4.6C19.2,4.5,19.2,4.5,19.2,4.6
		C19.2,4.5,19.2,4.5,19.2,4.6z M19.6,4.1C19.6,4.1,19.6,4.1,19.6,4.1C19.6,4.1,19.6,4.1,19.6,4.1z M14.8,2c2.4,0,4,0.8,4,1.4
		c0,0.6-1.5,1.4-4,1.4c-2.4,0-4-0.8-4-1.4C10.8,2.8,12.4,2,14.8,2z M13.4,5.7c-0.2,0-0.4,0-0.6-0.1C13,5.6,13.2,5.6,13.4,5.7z
		 M12.4,5.5c-0.1,0-0.3-0.1-0.4-0.1C12.2,5.4,12.3,5.5,12.4,5.5z M11.6,5.2c-0.1,0-0.2-0.1-0.2-0.1C11.4,5.2,11.5,5.2,11.6,5.2z
		 M10.9,4.9c0,0-0.1,0-0.1-0.1C10.8,4.9,10.8,4.9,10.9,4.9z M10,4.1C10,4.1,10,4.1,10,4.1C10,4.1,10,4.1,10,4.1z M10.3,4.5
		C10.3,4.5,10.3,4.5,10.3,4.5C10.3,4.5,10.3,4.5,10.3,4.5z M38.2,36.6c-4.9,0.3-10.9-14,0-18C38.2,18.7,38.2,27.2,38.2,36.6z"/>
</g>
</svg>
