<?xml version="1.0" encoding="utf-8"?>
<!-- Generator: Adobe Illustrator 18.0.0, SVG Export Plug-In . SVG Version: 6.00 Build 0)  -->
<!DOCTYPE svg PUBLIC "-//W3C//DTD SVG 1.1//EN" "http://www.w3.org/Graphics/SVG/1.1/DTD/svg11.dtd">
<svg version="1.1" id="Layer_1" xmlns="http://www.w3.org/2000/svg" xmlns:xlink="http://www.w3.org/1999/xlink" x="0px" y="0px"
	 viewBox="0 0 48 48" enable-background="new 0 0 48 48" xml:space="preserve">
<g>
	<path fill="#4DA0D8" d="M46.7,23.5c-0.4-1.9-1.1-3.9-2.5-5.3c-1.1-1.1-2.4-1.8-3.8-2.5c-1-0.5-1.9-1-3-1.3
		c-1.2-0.3-2.5-0.4-3.7-0.4c-6.3-0.2-12.6,0.1-18.9,0.8c-1.9,0.2-3.7,0.5-5.5,1.1C4.3,17.7,0.8,23,1,28.3c0.1,1.6,0.5,3.2,1.6,4.3
		C4.1,34,6.4,34.1,8.4,34c1.9,0,3.7,0,5.6,0c0.1-0.2,0.3-0.4,0.5-0.6c1.2-1.4,3.9-4.8,4.1-6.1c0.2-1.3-0.2-3.1-1.5-3.8
		c-1.3-0.8-2.6-1.3-3.4-1.5c-3.4-0.8-6.2,0.5-7,0.9c-0.7,0.4-0.9,1.6-0.9,2.2c-0.1,1.5,0.2,2.6,0.8,3.3c0.9,1,2.5,1.2,4,1.2
		c1.3,0,2.6,0,3.5-0.6c0.5-0.3,0.8-0.8,0.9-1.4c0-0.2,0-0.6-0.2-0.9c-0.4-0.5-1.2-0.7-2-0.8c-0.4-0.1-0.8-0.1-1.1,0
		c-0.6,0.2-0.8,1.1-0.8,1.9c0,0.6-0.4,1-1,1c0,0,0,0,0,0c-0.5,0-1-0.4-1-1c0-1.5,0.5-3.3,2.1-3.9c0.7-0.3,1.4-0.2,2.1-0.1
		c0.8,0.1,2.5,0.3,3.4,1.6c0.5,0.7,0.7,1.5,0.5,2.4c-0.2,1.1-0.8,2.1-1.8,2.7c-1.4,0.9-3.1,1-4.7,1c-1.8-0.1-4-0.3-5.4-1.9
		c-1-1.1-1.4-2.7-1.4-4.7c0.1-2,0.8-3.3,2-3.9c1.2-0.6,4.4-1.9,8.3-1.1c1.4,0.3,3.2,1.3,3.9,1.7c2.2,1.2,2.8,3.8,2.5,5.9
		c-0.2,1.5-2,4-4,6.4c4.3,0,8.5-0.1,12.8-0.1c4.8,0,9.7-0.1,14-2.2c0.5-0.2,0.9-0.5,1.3-0.8c0.5-0.4,0.8-1,1.1-1.6
		c0.6-1,1.1-2,1.2-3.2C47.1,25.2,46.9,24.3,46.7,23.5z"/>
</g>
</svg>
