<?xml version="1.0" encoding="utf-8"?>
<!-- Generator: Adobe Illustrator 18.0.0, SVG Export Plug-In . SVG Version: 6.00 Build 0)  -->
<!DOCTYPE svg PUBLIC "-//W3C//DTD SVG 1.1//EN" "http://www.w3.org/Graphics/SVG/1.1/DTD/svg11.dtd">
<svg version="1.1" id="Layer_1" xmlns="http://www.w3.org/2000/svg" xmlns:xlink="http://www.w3.org/1999/xlink" x="0px" y="0px"
	 viewBox="0 0 48 48" enable-background="new 0 0 48 48" xml:space="preserve">
<g>
	<path fill="#E77528" d="M46.8,33.2c-0.2-2.6-0.5-5.3-1.8-7.5c-1.2-2-3.1-3.4-5.1-4.5c-2.1-1-4.3-1.7-6.4-2.5
		c-1.2-0.4-2.4-1-3.3-1.8c-0.9-0.8-1.6-2-2.2-3.1c-0.8-1.4-1.5-2.8-2.1-4.2c-0.8-1.8-1.4-3.8-2.8-5.2C22.4,3.9,21.7,3.4,21,3
		c-2.8-1.5-6.1-2.3-9.2-1.9c-3.2,0.4-6.2,2-8.1,4.6c-1.5,2.1-2.1,4.8-2.4,7.4c-0.5,4.9,0.2,10,2.6,14.2c1.9,3.3,4.7,5.9,7.5,8.4
		c1.4,1.3,2.8,2.5,4.2,3.8c1.7,1.6,3.4,3.1,5.4,4.4c3.6,2.3,8,3.4,12.2,3.1c1.6-0.1,3.1-0.4,4.5-1.1c1.7-0.8,3.1-2.2,4.7-3.2
		c1-0.7,2.2-1.2,3-2.1C47.1,38.6,47,35.8,46.8,33.2z M13.6,8.3l-2,1.5c-0.3,0.3-0.8,0.3-1.1,0.1c-0.2-0.1-0.3-0.2-0.5-0.4
		C9.6,9.1,9.7,8.4,10.2,8l2-1.5c1.1-0.8,2-1,2.8-0.5c0.6,0.3,0.8,1,0.4,1.6C15.2,8,14.6,8.3,14.1,8C14,8.1,13.8,8.1,13.6,8.3z
		 M15.5,21.8c-0.2,0-0.3,0-0.5-0.1c-0.4-0.2-0.7-0.6-0.7-1c0-0.6,0.5-1.2,1.1-1.2c0.6,0,1.2-0.3,1.7-0.8c0.4-0.5,0.7-1.1,0.6-1.7
		c0-0.6,0.5-1.2,1.1-1.2c0.6,0,1.2,0.5,1.2,1.1c0,1.2-0.4,2.4-1.3,3.3C17.9,21.2,16.7,21.7,15.5,21.8z M20.9,33.3
		c-0.1,0.3-0.4,0.9-1,1.2c-0.6,0.4-1.3,0.4-1.8,0.4c-0.2,0-0.4,0-0.5,0c-0.3,0.1-0.6,0.1-0.9,0c-0.3-0.1-0.5-0.3-0.6-0.6
		c-0.2-0.6,0-1.2,0.5-1.5c0.3-0.2,0.7-0.2,1-0.2c-0.1-0.3-0.1-0.5,0-0.8c0.2-0.6,0.9-0.9,1.5-0.6c0,0,0,0,0.1,0
		c0.3-0.8,0.6-1.7,0.8-2.6c0.1-0.6,0.7-1,1.3-0.9c0.6,0.1,1,0.7,0.9,1.3C22,30.5,21.6,32,20.9,33.3z M28.5,31.9
		C28.5,31.9,28.5,31.9,28.5,31.9c-0.6-0.3-0.9-0.9-0.7-1.5c0.2-0.6,0.8-0.9,1.4-0.7c0,0,0.1,0,0.1-0.1c0.1-0.1,0.2-0.2,0.3-0.2
		c0.2-0.2,0.4-0.3,0.6-0.5c0.3-0.2,0.5-0.3,0.7-0.4c-0.1,0-0.2,0-0.3-0.1c-0.6-0.3-0.9-1-0.7-1.6c0.3-0.6,1-0.9,1.6-0.7
		c0.4,0.1,0.6,0.4,0.7,0.8c0.4-0.9,0.8-1.8,1-2.7c0.2-0.6,0.8-1,1.4-0.8c0.6,0.2,1,0.8,0.8,1.4c-0.3,1.2-0.8,2.4-1.4,3.5
		c-0.3,0.6-0.7,1.3-1.3,1.7c-0.3,0.2-0.7,0.4-0.9,0.5c-0.2,0.1-0.3,0.1-0.5,0.2c-0.1,0.1-0.2,0.2-0.3,0.3c-0.2,0.1-0.3,0.3-0.5,0.4
		C29.9,32.1,29.2,32.2,28.5,31.9z M35.5,38.2l-1,2.5c-0.1,0.3-0.3,0.8-0.7,1.1c-0.9,0.9-2.2,0.7-2.9,0.6c-0.1,0-0.2,0-0.3-0.1
		c-0.5-0.2-0.8-0.7-0.7-1.2c0.1-0.6,0.7-1,1.3-0.9c0.7,0.1,0.9,0.1,0.9,0c0,0,0.1-0.2,0.2-0.4l1-2.5c0.2-0.6,0.9-0.9,1.5-0.6
		C35.4,37,35.7,37.6,35.5,38.2z"/>
</g>
</svg>
