<?xml version="1.0" encoding="utf-8"?>
<!-- Generator: Adobe Illustrator 18.0.0, SVG Export Plug-In . SVG Version: 6.00 Build 0)  -->
<!DOCTYPE svg PUBLIC "-//W3C//DTD SVG 1.1//EN" "http://www.w3.org/Graphics/SVG/1.1/DTD/svg11.dtd">
<svg version="1.1" id="Layer_1" xmlns="http://www.w3.org/2000/svg" xmlns:xlink="http://www.w3.org/1999/xlink" x="0px" y="0px"
	 viewBox="0 0 48 48" enable-background="new 0 0 48 48" xml:space="preserve">
<g>
	<path fill="#F04B36" d="M46.5,1.5c0,0-10.7-3.8-20.7,3.9C24.4,4,22,2.6,19.5,3.8c-4.4,2-10.3,13.5-10.3,13.5l7,0.9
		c-1.5,3.3-2.9,7.3-4,11.9L0.5,35.3c0,0,4.7,3.3,9.5,2.7c-0.6,4.8,2.7,9.5,2.7,9.5l5.2-11.7c4.6-1.1,8.6-2.5,11.9-4l0.9,7
		c0,0,11.5-5.9,13.5-10.3c1.2-2.6-0.2-4.9-1.5-6.4C50.4,12.1,46.5,1.5,46.5,1.5z M41,10.8c-1,1.1-2.8,1-3.8,0c-1-1-1-2.8,0-3.8
		C38.3,5.9,40,5.9,41,7C42.1,8,42.1,9.7,41,10.8z"/>
</g>
</svg>
