<?xml version="1.0" encoding="utf-8"?>
<!-- Generator: Adobe Illustrator 18.0.0, SVG Export Plug-In . SVG Version: 6.00 Build 0)  -->
<!DOCTYPE svg PUBLIC "-//W3C//DTD SVG 1.1//EN" "http://www.w3.org/Graphics/SVG/1.1/DTD/svg11.dtd">
<svg version="1.1" id="Layer_1" xmlns="http://www.w3.org/2000/svg" xmlns:xlink="http://www.w3.org/1999/xlink" x="0px" y="0px"
	 viewBox="0 0 48 48" enable-background="new 0 0 48 48" xml:space="preserve">
<g>
	<path fill="#294E58" d="M16.1,45.2c0,1,0.8,1.8,1.8,1.8h12.2c1,0,1.8-0.8,1.8-1.8V21.7H16.1V45.2z"/>
	<path fill="#4DA0D8" d="M38.3,16.2h-4.6v-0.7c0-0.6-0.5-1.1-1.1-1.1H15.3c-0.6,0-1.1,0.5-1.1,1.1v0.7H9.7c-0.6,0-1,0.4-1,1v20.6
		c0,0.6,0.4,1,1,1c0.6,0,1-0.4,1-1V18.2h3.6v0.7c0,0.6,0.5,1.1,1.1,1.1h17.3c0.6,0,1.1-0.5,1.1-1.1v-0.7h3.6v19.6c0,0.6,0.4,1,1,1
		c0.6,0,1-0.4,1-1V17.2C39.3,16.6,38.9,16.2,38.3,16.2z"/>
	<path fill="#F04B36" d="M28.4,8.8c-1.4-0.9-2.2-2.5-2.2-4.2c0,0,0,0,0-0.1C26.3,2,25.3,1,24,1s-2.3,1-2.3,3.6c0,0,0,0,0,0
		c0,1.7-0.8,3.3-2.2,4.2c-1.4,0.9-2.3,2.3-2.4,3.8h13.6C30.7,11.1,29.8,9.7,28.4,8.8z"/>
</g>
</svg>
