<?xml version="1.0" encoding="utf-8"?>
<!-- Generator: Adobe Illustrator 18.0.0, SVG Export Plug-In . SVG Version: 6.00 Build 0)  -->
<!DOCTYPE svg PUBLIC "-//W3C//DTD SVG 1.1//EN" "http://www.w3.org/Graphics/SVG/1.1/DTD/svg11.dtd">
<svg version="1.1" id="Layer_1" xmlns="http://www.w3.org/2000/svg" xmlns:xlink="http://www.w3.org/1999/xlink" x="0px" y="0px"
	 viewBox="0 0 48 48" enable-background="new 0 0 48 48" xml:space="preserve">
<g>
	<path fill="#F7A93B" d="M28.8,15.3c0.5,0,1-0.4,1-1V9c0-0.5-0.4-1-1-1c-0.5,0-1,0.4-1,1v5.3C27.8,14.8,28.2,15.3,28.8,15.3z"/>
	<path fill="#F7A93B" d="M24,15.3c0.5,0,1-0.4,1-1V6.4c0-0.5-0.4-1-1-1c-0.5,0-1,0.4-1,1v7.9C23,14.8,23.5,15.3,24,15.3z"/>
	<path fill="#F7A93B" d="M19.2,15.3c0.5,0,1-0.4,1-1V9c0-0.5-0.4-1-1-1c-0.5,0-1,0.4-1,1v5.3C18.3,14.8,18.7,15.3,19.2,15.3z"/>
	<path fill="#4DA0D8" d="M41.2,39.9H6.8c-0.7,0-1.3,0.6-1.3,1.3c0,0.7,0.6,1.3,1.3,1.3h34.4c0.7,0,1.3-0.6,1.3-1.3
		C42.6,40.5,42,39.9,41.2,39.9z"/>
	<path fill="#CFD0D1" d="M46.5,20.1h-3.3c0.1-0.7,0.1-1.3,0.1-2H4.6c0,0.7,0,1.3,0.1,2H1.5c-0.5,0-1,0.4-1,1c0,0.5,0.4,1,1,1h3.6
		C7,30.1,14.8,36.1,24,36.1s17-6,18.9-14.1h3.6c0.5,0,1-0.4,1-1C47.5,20.5,47.1,20.1,46.5,20.1z"/>
</g>
</svg>
