<?xml version="1.0" encoding="utf-8"?>
<!-- Generator: Adobe Illustrator 18.0.0, SVG Export Plug-In . SVG Version: 6.00 Build 0)  -->
<!DOCTYPE svg PUBLIC "-//W3C//DTD SVG 1.1//EN" "http://www.w3.org/Graphics/SVG/1.1/DTD/svg11.dtd">
<svg version="1.1" id="Layer_1" xmlns="http://www.w3.org/2000/svg" xmlns:xlink="http://www.w3.org/1999/xlink" x="0px" y="0px"
	 viewBox="0 0 48 48" enable-background="new 0 0 48 48" xml:space="preserve">
<g>
	<circle fill="#F7A93B" cx="11.4" cy="13.4" r="6.4"/>
	<path fill="#0DB89A" d="M36.5,8c-4.4,0-7.9,3.5-7.9,7.9h15.8C44.4,11.5,40.9,8,36.5,8z"/>
	<path fill="#4DA0D8" d="M46.1,18.5H26.9c-0.8,0-1.4,0.6-1.4,1.4c0,0.8,0.6,1.4,1.4,1.4h19.3c0.8,0,1.4-0.6,1.4-1.4
		C47.5,19.1,46.9,18.5,46.1,18.5z"/>
	<path fill="#E77528" d="M34.3,6.2c0.5,0,1-0.4,1-1c0-0.7,0.5-1.2,1.2-1.2c0.7,0,1.2,0.5,1.2,1.2c0,0.5,0.4,1,1,1c0.5,0,1-0.4,1-1
		c0-1.8-1.4-3.2-3.2-3.2c-1.8,0-3.2,1.4-3.2,3.2C33.3,5.8,33.7,6.2,34.3,6.2z"/>
	<path fill="#F04B36" d="M38.3,23c-1.1-0.8-2.5-0.5-3.3,0.5l-6.1,8.3l-10.3-7.8c-0.3-0.2-3.1-1.2-4.3-1.2h-6c-4.3,0-7.9,3.6-7.9,7.9
		V43c0,0,0,3,0,3h21.8c0,0,0,0,0,0V32.7L28,37c0.4,0.3,0.9,0.5,1.4,0.5c0.1,0,0.2,0,0.3,0c0.6-0.1,1.2-0.4,1.6-0.9l7.5-10.2
		C39.6,25.3,39.4,23.8,38.3,23z"/>
</g>
</svg>
