<?xml version="1.0" encoding="utf-8"?>
<!-- Generator: Adobe Illustrator 18.0.0, SVG Export Plug-In . SVG Version: 6.00 Build 0)  -->
<!DOCTYPE svg PUBLIC "-//W3C//DTD SVG 1.1//EN" "http://www.w3.org/Graphics/SVG/1.1/DTD/svg11.dtd">
<svg version="1.1" id="Layer_1" xmlns="http://www.w3.org/2000/svg" xmlns:xlink="http://www.w3.org/1999/xlink" x="0px" y="0px"
	 viewBox="0 0 48 48" enable-background="new 0 0 48 48" xml:space="preserve">
<g>
	<path fill="#FFD69A" d="M3.5,37.2c0,5.7,3.7,10.3,8.2,10.3h24.6c4.5,0,8.2-4.6,8.2-10.3v-0.7H3.5V37.2z"/>
	<path fill="#F04B36" d="M47.4,25.8c-0.3-1.5-1.6-2.3-2.8-2.6c-1.4-0.3-2.5,0.1-3.7,1c-1,0.7-2,2.1-3.2,2.1c-1.3,0-1.2-1.6-2.1-2.5
		c-0.6-0.5-1-0.7-1.6-0.2c-0.7,0.5-0.2,0.8-1.1,0.7c-0.7-0.1-0.7-0.9-1.6-0.1c-0.5,0.4-0.6,1.1-1.1,1.4c-1.5,0.9-1.1-2.3-2.1-3
		c-2.2-1.6-5.4-1.6-6.4,1.8c-0.2,0.6-0.1,1.9-0.6,2.2c-0.8,0.5-1.5-0.8-2.1-1.2c-1-0.6-2,0.2-3-0.7c-0.7-0.7-0.9-1.8-1.5-2.5
		c-0.7-0.8-1.5-0.9-2.4-1c-1.9-0.4-3.3-0.3-4.8,1.3c-0.6,0.6-1.1,1-1.9,0.8c-0.6-0.1-1.4-0.9-2.1-0.5c-1.4,0.7-1.9,3.6-2.6,4.9
		C0.2,29.1,2,30.5,3,30.8c1.2,0.3,2.5-0.2,3.7-0.4c2.4-0.4,5,1.5,7.3,0.6c0.5-0.2,0.9-0.7,1.6-0.7c0.6-0.1,1.5-0.1,2.1,0
		c1.3,0.2,2.8,1.2,4.2,0.7c0.6-0.2,1-1,1.6-1.1c0.9-0.2,1.6,0.4,2.4,0.8c0.9,0.4,2.1,0.7,3,0.6c0.8,0,1.1-0.7,1.8-0.9
		c1.4-0.5,2.6,0.5,3.8,1c1.4,0.5,2.5-0.1,3.7-0.5c2.7-0.7,5.8,1.8,8.1-0.6C47.2,29.3,47.7,27.4,47.4,25.8z"/>
	<path fill="#F7A93B" d="M29,1.2C29,1.2,29,1.1,29,1.2C29,1.1,28.9,1.1,29,1.2c-1.6-0.4-3.3-0.7-5-0.7c-9.4,0-17.4,6.8-20.3,16.3
		h40.7C41.9,9,36.1,3.1,29,1.2z"/>
</g>
</svg>
