<?xml version="1.0" encoding="utf-8"?>
<!-- Generator: Adobe Illustrator 18.0.0, SVG Export Plug-In . SVG Version: 6.00 Build 0)  -->
<!DOCTYPE svg PUBLIC "-//W3C//DTD SVG 1.1//EN" "http://www.w3.org/Graphics/SVG/1.1/DTD/svg11.dtd">
<svg version="1.1" id="Layer_1" xmlns="http://www.w3.org/2000/svg" xmlns:xlink="http://www.w3.org/1999/xlink" x="0px" y="0px"
	 viewBox="0 0 48 48" enable-background="new 0 0 48 48" xml:space="preserve">
<g>
	<path fill="#F04B36" d="M36.6,13.7l-1.9,0.1c0,0-0.7,0.1-1.4,0.5c1.3,1,3,2.6,4.7,5.2l2.7,4l-4.7-1c0,0-2.8-0.6-5.2-0.6
		c-0.5,0-0.9,0-1.2,0.1c-0.1,1.9-0.9,5.1-4.1,8.2L24.6,31l-1.2-0.5c-0.2-0.1-4.1-1.7-5.6-5c-1.2,0.4-2.7,0.7-4.2,0.7
		c-0.9,0-1.7-0.1-2.5-0.3l-1.6-0.5l0.2-1.7c0-0.2,0.4-3.6,2.7-6.6c-0.7-0.6-1.4-1.5-2-2.7C6,17.9,3.2,23,3.2,28.7
		c0,10.4,9.3,18.8,20.8,18.8s20.8-8.4,20.8-18.8C44.8,22.5,41.6,17.1,36.6,13.7z"/>
	<path fill="#0DB89A" d="M15.3,16.8c-3.2,2.8-3.7,7.2-3.7,7.2c3.4,1,7.6-1.1,7.6-1.1c0,3.9,4.9,5.8,4.9,5.8c4.2-4.1,3.5-8.2,3.5-8.2
		c2.1-1.4,8.8,0,8.8,0c-3.2-4.9-6.2-5.8-6.2-5.8c1.5-2.7,4.4-2.9,4.4-2.9c-5.1-3.1-9-2.4-10.9-1.5c0.4-4.6,2.9-7.3,3.1-7.5
		c0.5-0.5,0.5-1.4,0-1.9c-0.5-0.5-1.4-0.5-1.9,0c-0.2,0.2-3.5,3.7-3.9,9.6c-4.2-1.3-9.3,1.8-9.3,1.8C12.6,15.7,15.3,16.8,15.3,16.8z
		"/>
</g>
</svg>
