<?xml version="1.0" encoding="utf-8"?>
<!-- Generator: Adobe Illustrator 18.0.0, SVG Export Plug-In . SVG Version: 6.00 Build 0)  -->
<!DOCTYPE svg PUBLIC "-//W3C//DTD SVG 1.1//EN" "http://www.w3.org/Graphics/SVG/1.1/DTD/svg11.dtd">
<svg version="1.1" id="Layer_1" xmlns="http://www.w3.org/2000/svg" xmlns:xlink="http://www.w3.org/1999/xlink" x="0px" y="0px"
	 viewBox="0 0 48 48" enable-background="new 0 0 48 48" xml:space="preserve">
<g>
	<ellipse fill="#F04B36" cx="28.5" cy="19.1" rx="0.8" ry="0.8"/>
	<ellipse fill="#F04B36" cx="24.6" cy="21.4" rx="0.8" ry="0.7"/>
	<ellipse fill="#F04B36" cx="27.6" cy="22.3" rx="0.8" ry="0.7"/>
	<path fill="#F04B36" d="M24.3,18.2c0,0.4,0.4,0.8,0.8,0.8c0.4,0,0.8-0.3,0.8-0.8c0-0.4-0.4-0.8-0.8-0.8
		C24.7,17.4,24.3,17.8,24.3,18.2z"/>
	<path fill="#294E58" d="M45.9,24.1H2.1c-0.5,0-1,0.4-1,0.9c0,0.5,0.4,0.9,1,0.9h4.2c0.6,8.1,8.3,14.6,17.7,14.6
		c9.5,0,17.2-6.4,17.7-14.6h4.2c0.5,0,1-0.4,1-0.9C46.9,24.5,46.4,24.1,45.9,24.1z"/>
	<path fill="#CFD0D1" d="M31.5,43c-0.2-0.2-0.6-0.4-0.9-0.4H24h-6.6c-0.3,0-0.7,0.1-0.9,0.4l-2.4,2.3c-0.5,0.5-0.5,1.3,0,1.8
		c0.3,0.3,0.6,0.4,0.9,0.4c0.3,0,0.7-0.1,0.9-0.4l2-1.9H24h6.1l2,1.9c0.3,0.2,0.6,0.4,0.9,0.4c0.3,0,0.7-0.1,0.9-0.4
		c0.5-0.5,0.5-1.3,0-1.8L31.5,43z"/>
	<path fill="#FFD69A" d="M5.4,11.1l14.2,6.4c0.9,0.4,2,0.1,2.6-0.7l2.1-3.1c0.5-0.8,0.4-2-0.3-2.6L12.4,0.9
		c-0.7-0.6-1.8-0.5-2.3,0.3L4.8,9C4.3,9.7,4.6,10.7,5.4,11.1z"/>
</g>
</svg>
