<?xml version="1.0" encoding="utf-8"?>
<!-- Generator: Adobe Illustrator 18.0.0, SVG Export Plug-In . SVG Version: 6.00 Build 0)  -->
<!DOCTYPE svg PUBLIC "-//W3C//DTD SVG 1.1//EN" "http://www.w3.org/Graphics/SVG/1.1/DTD/svg11.dtd">
<svg version="1.1" id="Layer_1" xmlns="http://www.w3.org/2000/svg" xmlns:xlink="http://www.w3.org/1999/xlink" x="0px" y="0px"
	 viewBox="0 0 48 48" enable-background="new 0 0 48 48" xml:space="preserve">
<g>
	<rect x="1.6" y="44.8" fill="#06728D" width="44.7" height="2.7"/>
	<path fill="#F04B36" d="M20.7,11.5c0.4,0.3,1,0.2,1.4-0.2c0.3-0.4,0.2-1-0.2-1.4c-0.1,0-0.3-0.3-0.3-1.4c0-0.6,0.1-0.8,0.6-1.5
		l0.2-0.2c0.6-0.7,1.4-1.7,1.9-2.6c0.1-0.3,0.2-0.5,0.3-0.8c0.2,0.2,0.4,0.3,0.6,0.5c1.1,0.9,2.1,1.7,2.5,3c0.4,1.5,0.1,2.7-0.9,3.7
		c-0.4,0.4-0.4,1-0.1,1.4c0.2,0.2,0.5,0.3,0.7,0.3c0.2,0,0.5-0.1,0.6-0.2c1.6-1.4,2.1-3.4,1.5-5.6c-0.5-1.8-1.8-2.9-3.1-4
		C25.7,2,25,1.5,24.5,0.8c-0.3-0.4-0.8-0.4-1.2-0.2c-0.4,0.2-0.6,0.7-0.4,1.2c0,0.1,0,0.7-0.5,1.7c-0.3,0.7-1,1.5-1.6,2.1l-0.2,0.2
		c-0.7,0.8-1.2,1.5-1.1,2.8C19.6,9.2,19.7,10.8,20.7,11.5z"/>
	<circle fill="none" cx="24" cy="32.9" r="4.1"/>
	<circle fill="none" cx="12" cy="32.9" r="4.1"/>
	<circle fill="none" cx="36.1" cy="32.9" r="4.1"/>
	<path fill="#0DB89A" d="M41.2,24H27.3h-6.6H6.8c-2,0-3.6,1.5-3.6,3.3v11.2c0,1.8,1.6,3.3,3.6,3.3h34.5c2,0,3.6-1.5,3.6-3.3V27.3
		C44.9,25.5,43.2,24,41.2,24z M12,37c-2.3,0-4.1-1.8-4.1-4.1c0-2.3,1.8-4.1,4.1-4.1c2.3,0,4.1,1.8,4.1,4.1C16,35.1,14.2,37,12,37z
		 M24,37c-2.3,0-4.1-1.8-4.1-4.1c0-2.3,1.8-4.1,4.1-4.1c2.3,0,4.1,1.8,4.1,4.1C28.1,35.1,26.3,37,24,37z M36.1,37
		c-2.3,0-4.1-1.8-4.1-4.1c0-2.3,1.8-4.1,4.1-4.1s4.1,1.8,4.1,4.1C40.1,35.1,38.3,37,36.1,37z"/>
	<path fill="#F04B36" d="M27.3,14.3h-2.5c0.1-0.2,0.2-0.3,0.2-0.5v-3c0-0.5-0.4-1-1-1c-0.5,0-1,0.4-1,1v3c0,0.2,0.1,0.4,0.2,0.5
		h-2.5V24h6.6V14.3z"/>
</g>
</svg>
