<?xml version="1.0" encoding="utf-8"?>
<!-- Generator: Adobe Illustrator 18.0.0, SVG Export Plug-In . SVG Version: 6.00 Build 0)  -->
<!DOCTYPE svg PUBLIC "-//W3C//DTD SVG 1.1//EN" "http://www.w3.org/Graphics/SVG/1.1/DTD/svg11.dtd">
<svg version="1.1" id="Layer_1" xmlns="http://www.w3.org/2000/svg" xmlns:xlink="http://www.w3.org/1999/xlink" x="0px" y="0px"
	 viewBox="0 0 48 48" enable-background="new 0 0 48 48" xml:space="preserve">
<g>
	<path fill="none" stroke="#010101" stroke-width="2" stroke-linecap="round" stroke-linejoin="round" stroke-miterlimit="10" d="
		M46.5,23.5c0,2.4-8.5,4.4-19.1,4.4c-2.6,0-5.1-0.1-7.3-0.3c-6.9-0.7-11.8-2.2-11.8-4c0-2.4,8.5-4.4,19.1-4.4
		C38,19.1,46.5,21,46.5,23.5z"/>
	<path fill="#F04B36" d="M32.2,14.6c-0.5,0-1-0.4-1-1V8.1c0-0.5,0.4-1,1-1c0.5,0,1,0.4,1,1v5.5C33.2,14.1,32.8,14.6,32.2,14.6z"/>
	<path fill="#F04B36" d="M27.5,14.6c-0.5,0-1-0.4-1-1V4.7c0-0.5,0.4-1,1-1c0.5,0,1,0.4,1,1v8.9C28.4,14.1,28,14.6,27.5,14.6z"/>
	<path fill="#F04B36" d="M22.7,14.6c-0.5,0-1-0.4-1-1V8.1c0-0.5,0.4-1,1-1c0.5,0,1,0.4,1,1v5.5C23.7,14.1,23.2,14.6,22.7,14.6z"/>
	<path fill="#CFD0D1" d="M27.5,18.1c-4.4,0-11.3,0.5-15.8,1.9l-9.9-3.8c-0.5-0.2-1.1,0.1-1.3,0.6c-0.2,0.5,0.1,1.1,0.6,1.3l8,3
		c-1.1,0.6-1.7,1.4-1.7,2.3c0,11.5,9,20.8,20,20.8c11,0,20-9.3,20-20.8C47.5,19.2,34.4,18.1,27.5,18.1z M24.8,22.6L24.8,22.6
		l3.8,1.5c1.1,0.4,1.8,1.5,2,2.7c-1,0-2.1,0.1-3.2,0.1c-2.3,0-4.5-0.1-6.6-0.3c-0.2-0.7-0.2-1.4,0.1-2c0.3-0.8,0.9-1.5,1.7-1.9
		C23.3,22.3,24.1,22.3,24.8,22.6z M27.5,20.1c5.7,0,10,0.5,13,1.2c-0.4,0.1-0.8,0.1-1.2,0.2c-0.6,0.1-1,0.5-1.4,0.8
		c-0.2,0.1-0.3,0.3-0.5,0.4c-0.4,0.2-1.1,0.3-1.4,0.2c-0.2-0.1-0.4-0.3-0.7-0.5c-0.2-0.2-0.3-0.3-0.5-0.5c-0.8-0.6-1.8-0.8-2.9-0.6
		c-0.5,0.1-1.7,0.5-2.4,1l-0.1-0.1c0,0,0,0,0,0l0,0l-3.8-1.5c-1.2-0.5-2.6-0.4-3.8,0.1c-1,0.4-1.7,1.2-2.3,2.1l-4.7-1.8
		C17.8,20.6,22,20.1,27.5,20.1z M18.9,24.8c-0.1,0.5-0.1,1,0,1.5c-7.1-0.8-9.5-2.4-9.5-2.9c0-0.4,0.8-0.9,2.2-1.4L18.9,24.8z"/>
</g>
</svg>
