<?xml version="1.0" encoding="utf-8"?>
<!-- Generator: Adobe Illustrator 18.0.0, SVG Export Plug-In . SVG Version: 6.00 Build 0)  -->
<!DOCTYPE svg PUBLIC "-//W3C//DTD SVG 1.1//EN" "http://www.w3.org/Graphics/SVG/1.1/DTD/svg11.dtd">
<svg version="1.1" id="Layer_1" xmlns="http://www.w3.org/2000/svg" xmlns:xlink="http://www.w3.org/1999/xlink" x="0px" y="0px"
	 viewBox="0 0 48 48" enable-background="new 0 0 48 48" xml:space="preserve">
<g>
	<path fill="#F04B36" d="M22.3,27.4c-0.2-0.1-0.4-0.1-0.7,0.1c-0.4,0.2-0.8,0.5-1.1,1.1C20.2,29,20,29.7,20,30.6l0.1,0
		c0.1-1,0.3-1.7,0.6-2.2c0.3-0.5,0.6-0.8,0.9-0.9C21.8,27.4,22,27.4,22.3,27.4c0.1,0.1,0.3,0.3,0.4,0.5c0.1,0.3,0.1,0.7,0,1.1
		c-0.1,0.5-0.4,0.9-0.7,1.3c-0.3,0.4-0.7,0.7-1.1,0.9c-0.3,0.1-0.6,0.2-0.9,0.1c-0.3-0.1-0.4-0.2-0.5-0.4c-0.1-0.2-0.1-0.5-0.1-0.8
		c0-0.3,0.1-0.7,0.2-1.1c0.1-0.4,0.3-1,0.5-1.6c0.8-0.6,1.6-1.3,2.3-2c0.7-0.7,1.2-1.4,1.5-2.1c0.3-0.6,0.4-1.1,0.3-1.4
		c-0.1-0.3-0.4-0.4-0.7-0.2c-0.4,0.2-0.7,0.5-1.1,0.9c-0.4,0.4-0.8,1-1.1,1.6c-0.4,0.6-0.7,1.2-1,1.9c-0.3,0.6-0.5,1.2-0.7,1.8
		c-0.7,0.4-1.2,0.5-1.6,0.4c-0.4-0.1-0.7-0.3-0.9-0.7c-0.1-0.2-0.1-0.4-0.1-0.7c0-0.3,0.1-0.6,0.3-1c0.2-0.4,0.5-0.8,1.1-1.2
		c0.5-0.4,1.2-0.9,2.2-1.3l0-0.1c-0.9,0.4-1.6,0.8-2.1,1.2c-0.5,0.4-0.9,0.8-1.1,1.2c-0.2,0.4-0.3,0.8-0.4,1.1c0,0.3,0,0.6,0.1,0.8
		c0.2,0.4,0.5,0.7,0.9,0.8c0.4,0.1,1,0,1.7-0.4c-0.2,0.7-0.4,1.3-0.4,1.7c0,0.4,0,0.8,0.2,1.2c0.2,0.4,0.4,0.7,0.7,0.8
		c0.3,0.1,0.7,0.1,1.1-0.1c0.3-0.1,0.6-0.3,0.9-0.6c0.3-0.3,0.5-0.6,0.7-1c0.2-0.4,0.3-0.7,0.4-1c0.1-0.3,0-0.6-0.1-0.9
		C22.6,27.6,22.5,27.4,22.3,27.4z M20.8,24.9c0.4-0.8,0.7-1.4,1.2-2c0.4-0.6,0.9-1,1.3-1.2c0.3-0.1,0.4-0.1,0.5,0.2
		c0.1,0.2,0.1,0.5-0.1,0.9c-0.1,0.4-0.4,0.8-0.8,1.3c-0.4,0.5-0.8,1-1.4,1.6c-0.5,0.6-1.1,1.1-1.7,1.5
		C20.1,26.5,20.4,25.7,20.8,24.9z"/>
	<path fill="#E77528" d="M18.8,24.9c0,0,0,0-0.3,0.2c-0.5,0.4-0.7,0.7-0.8,0.9c-0.2,0.3-0.2,0.5-0.2,0.6c0,0.2,0,0.3,0,0.3
		c0,0.1,0,0.1,0,0.1c0.1,0,0.1,0.1,0.2,0.1c0,0,0,0,0,0c0.1,0,0.1,0,0.1,0c0.3-0.1,0.6-0.6,0.9-1.1c0,0,0,0,0.2-0.5
		c0.2-0.4,0.2-0.4,0.2-0.4C19.4,24.8,19.2,24.7,18.8,24.9z"/>
	<path fill="#010101" d="M21.5,28.9C21.5,28.9,21.5,28.9,21.5,28.9c-0.1,0.2-0.1,0.2-0.1,0.2c-0.1,0.2-0.1,0.3,0,0.1
		C21.5,29.1,21.6,28.9,21.5,28.9z"/>
	<path fill="#E77528" d="M32.1,2.5h2c0.6,0,1-0.4,1-1c0-0.6-0.4-1-1-1H13.9c-0.6,0-1,0.4-1,1c0,0.6,0.4,1,1,1h2l-3.6,4.8v36.4
		c0,2.1,5.2,3.9,11.7,3.9c6.5,0,11.7-1.7,11.7-3.9V7.3L32.1,2.5z M32.5,24.9c-0.1,0.2-0.5,0.9-0.8,1.6c0,0,0,0-0.2,0.3
		c-0.3,0.5-0.3,0.5-0.3,0.5c-0.4,0.3-0.8,0.5-0.8,0.5c-0.1,0-0.2,0-0.3,0.1c-0.1,0-0.2,0-0.3,0c0,0-0.3,0.2-0.5,0.4c0,0,0,0-0.2,0.1
		c-0.2,0.1-0.4,0.1-0.6,0.1c-0.1,0-0.1,0-0.1,0c-0.2,0-0.5,0.2-0.8,0.6c0,0,0,0-0.3,0.2c-0.2,0.1-0.3,0.1-0.5,0.1
		c-0.2,0-0.3,0-0.5-0.1c-0.1-0.1-0.1-0.1-0.1-0.1c-0.1-0.1-0.6,0.4-1.1,1c0,0,0,0-0.5,0.2c-0.2,0.1-0.2,0.1-0.2,0.1
		c-0.2,0-0.4,0-0.5,0c0,0-0.1,0-0.1,0c0,0-0.3-0.1-0.4-0.1c-0.1,0-0.4,0.3-0.6,0.7c0,0,0,0-0.3,0.3c-0.4,0.4-0.8,0.7-1.2,0.8
		c-0.4,0.2-0.8,0.3-1.1,0.3c-0.2,0-0.5,0-0.7-0.1c-0.4-0.1-1-0.5-1.4-1.3c-0.2-0.5-0.3-1.1-0.3-1.6c0-0.1,0-0.1,0-0.1
		c0-0.1-0.2-0.2-0.4-0.2c0,0,0,0-0.2-0.1c-0.7-0.2-1.2-0.7-1.5-1.3c-0.2-0.4-0.2-0.8-0.2-1.3c0-0.5,0.2-1,0.5-1.5
		c0.3-0.5,0.7-1,1.3-1.5c0.6-0.5,0.6-0.5,0.6-0.5c1-0.5,1.9-1,2.2-1.1c0.3-0.1,0.5,0,0.6,0.2c0.1,0.2,0.3,0.2,0.5,0c0,0,0,0,0.2-0.2
		c0.5-0.6,1-0.9,1.5-1.2c0.2-0.1,0.5-0.2,0.7-0.2c0.6,0,1.1,0.3,1.3,0.9c0.3,0.6,0.2,1.4-0.3,2.3c-0.4,0.7-0.9,1.5-1.7,2.3
		c-0.1,0.1-0.1,0.1-0.1,0.1c-0.1,0.1-0.2,0.2-0.1,0.3c0,0,0,0,0,0c0.1,0,0.1,0,0.1,0c0.2,0.1,0.3,0.1,0.4,0c0,0,0,0,0.1-0.1
		c0.4-0.4,0.8-0.8,1.2-0.9c0.2-0.1,0.4-0.1,0.7-0.1c0.1,0,0.1,0,0.1,0c0.1,0,0.4-0.3,0.5-0.7c0.1-0.4,0.3-0.7,0.3-0.5
		c0.1,0.1,0.1,0.2,0.2,0.2c0-0.1,0.3-0.9,0.6-1.7c0.3-0.8,0.6-1.7,0.7-1.9c0.1-0.2,0.8-0.7,1.6-1.1c0.8-0.4,1.1,0.4,0.7,1.6
		c-0.4,1.3-0.5,2.2-0.5,2.2c0.1,0,0.6-0.3,1.1-0.5c0.5-0.3,1-0.6,1-0.6c0-0.1,0.1-0.1,0.1,0c0,0,0.2,0,0.4-0.1
		c0.2-0.1,0.3,0.1,0.2,0.4c-0.1,0.3,0,0.9,0.2,1.3C32.5,24.1,32.6,24.7,32.5,24.9z"/>
	<path fill="#F04B36" d="M31.2,24.9c-0.2,0.3-0.3,0.6-0.4,0.9c-0.1,0.2-0.3,0.4-0.4,0.6c-0.1,0.2-0.2,0.3-0.3,0.3
		c-0.1,0-0.1,0-0.1-0.1c-0.1-0.1,0.1-0.7,0.4-1.7c0-0.1,0.1-0.2,0.1-0.3c0-0.1,0.1-0.3,0.2-0.5l0.1-0.3l-0.5,0.3L30,24.7
		c0,0,0-0.1,0-0.1c0,0,0-0.1,0-0.1c0,0,0,0,0-0.1c0-0.1-0.1-0.2-0.2-0.2c-0.1,0-0.2,0-0.3,0.1c-0.2,0.1-0.5,0.3-0.7,0.5
		c-0.2,0.2-0.4,0.4-0.5,0.7c-0.1,0.2-0.2,0.4-0.2,0.7c-0.1,0.2-0.2,0.4-0.3,0.6c-0.2,0.4-0.4,0.8-0.5,1c-0.1,0.2-0.3,0.3-0.4,0.4
		c-0.1,0-0.1,0-0.2-0.1c0-0.1,0.1-0.5,0.3-1.2l2-6.2l-0.5,0.2l-0.2,0.5c-0.6,1.9-1,2.9-1.2,3.2l-1,2.2l0,0c-0.1,0.4-0.3,0.7-0.6,0.8
		c-0.1,0-0.1,0-0.2,0c0.1-0.4,0.1-0.7,0-0.9c-0.1-0.3-0.3-0.3-0.6-0.2c-0.3,0.1-0.5,0.3-0.8,0.7c-0.3,0.3-0.5,0.7-0.6,1.1
		c-0.1,0.4-0.1,0.7,0,1c0,0.1,0.1,0.2,0.2,0.3c0.1,0.1,0.2,0.1,0.3,0.1c0.1,0,0.2,0,0.3,0c0.5-0.2,0.9-0.8,1.3-1.8c0,0,0.1,0,0.1,0
		c0,0,0.1,0,0.1,0c0.2-0.1,0.4-0.3,0.5-0.6c0.5-1.1,0.8-1.8,1-2.1C27.1,25,27,25.2,27,25.4c-0.1,0.2-0.1,0.3-0.1,0.4
		c-0.2,0.5-0.3,1-0.4,1.4c-0.1,0.4-0.1,0.7,0,0.9c0,0.1,0.1,0.1,0.2,0.2c0.1,0,0.2,0,0.2,0c0.2-0.1,0.4-0.3,0.6-0.6
		c0.1-0.2,0.3-0.6,0.5-1.1c0,0.2,0,0.4,0.1,0.5c0.1,0.2,0.2,0.3,0.3,0.4c0.1,0.1,0.2,0.1,0.4,0c0.3-0.1,0.6-0.6,1-1.4
		c0,0.3,0,0.5,0.1,0.7c0.1,0.1,0.2,0.2,0.3,0.1c0.2-0.1,0.4-0.3,0.5-0.5c0.2-0.3,0.4-0.7,0.7-1.4l0.2-0.4l0-0.1
		C31.5,24.4,31.4,24.6,31.2,24.9z M25.2,27.5c-0.1,0.4-0.3,0.8-0.5,1.1c-0.2,0.4-0.4,0.6-0.7,0.7c-0.1,0-0.2,0.1-0.3,0
		c-0.1,0-0.1-0.1-0.2-0.1c0-0.1,0-0.3,0.1-0.8c0.1-0.4,0.2-0.8,0.4-1.2c0.2-0.4,0.4-0.7,0.6-0.8c0.1,0,0.2,0,0.3,0
		c0.1,0,0.1,0.1,0.2,0.2C25.4,26.8,25.3,27.1,25.2,27.5z M29.8,25.4c-0.1,0.4-0.3,0.8-0.5,1.2c-0.2,0.4-0.4,0.6-0.6,0.7
		c-0.1,0-0.1,0-0.2,0c-0.1,0-0.1-0.1-0.1-0.1c-0.1-0.1,0-0.4,0-0.8c0.1-0.4,0.2-0.8,0.4-1.2c0.2-0.4,0.4-0.6,0.7-0.7
		c0.2-0.1,0.3,0,0.3,0.1C30,24.7,29.9,25,29.8,25.4z"/>
</g>
</svg>
