<?xml version="1.0" encoding="utf-8"?>
<!-- Generator: Adobe Illustrator 18.0.0, SVG Export Plug-In . SVG Version: 6.00 Build 0)  -->
<!DOCTYPE svg PUBLIC "-//W3C//DTD SVG 1.1//EN" "http://www.w3.org/Graphics/SVG/1.1/DTD/svg11.dtd">
<svg version="1.1" id="Layer_1" xmlns="http://www.w3.org/2000/svg" xmlns:xlink="http://www.w3.org/1999/xlink" x="0px" y="0px"
	 viewBox="0 0 48 48" enable-background="new 0 0 48 48" xml:space="preserve">
<g>
	<path fill="#E77528" d="M27.1,15.8c-3.8,0-8.4-1.4-13.2-4.2C8.1,8.3,3.2,9.5,0.6,10.6c0,0.2,0,0.3,0,0.5c0,5.9,6.9,10.6,15.4,10.6
		c6.2,0,11.5-2.5,14-6.2C29,15.7,28.1,15.8,27.1,15.8z"/>
	<path fill="#F04B36" d="M15.3,9.2c7.3,4.2,12.9,4.5,15.9,2.9c0-0.3,0.1-0.6,0.1-1c0-5.9-6.9-10.6-15.4-10.6
		C9.4,0.5,3.8,3.3,1.6,7.3C4.9,6.4,9.8,6.1,15.3,9.2z"/>
	<path fill="#F04B36" d="M32.5,33.1c8.3-2.1,12.5-6,13.4-9.5c-0.1-0.2-0.2-0.3-0.4-0.5c-3.8-4.3-11.9-3-18.2,3.1
		c-4.9,4.7-7.2,10.8-6.1,15.4C23,38.6,26.4,34.7,32.5,33.1z"/>
	<path fill="#E77528" d="M33.2,35.8c-6.6,1.7-9.4,6.5-10.4,9c0,0.1,0.1,0.1,0.1,0.2c3.8,4.3,11.9,3,18.2-3.1
		c4.6-4.4,6.9-10.2,6.3-14.6C45,31,40,34.1,33.2,35.8z"/>
</g>
</svg>
