<?xml version="1.0" encoding="utf-8"?>
<!-- Generator: Adobe Illustrator 18.0.0, SVG Export Plug-In . SVG Version: 6.00 Build 0)  -->
<!DOCTYPE svg PUBLIC "-//W3C//DTD SVG 1.1//EN" "http://www.w3.org/Graphics/SVG/1.1/DTD/svg11.dtd">
<svg version="1.1" id="Layer_1" xmlns="http://www.w3.org/2000/svg" xmlns:xlink="http://www.w3.org/1999/xlink" x="0px" y="0px"
	 viewBox="0 0 48 48" enable-background="new 0 0 48 48" xml:space="preserve">
<g>
	<path fill="#4DA0D8" d="M40.1,5.3L28,20.6L47.4,22c0-0.5,0.1-0.9,0.1-1.4C47.5,14.4,44.6,8.9,40.1,5.3z M37.7,15.9
		c-0.6,0-1.1-0.5-1.1-1.1c0-0.6,0.5-1.1,1.1-1.1c0.6,0,1.1,0.5,1.1,1.1C38.9,15.4,38.4,15.9,37.7,15.9z M43.3,18.7
		c-0.6,0-1.1-0.5-1.1-1.1c0-0.6,0.5-1.1,1.1-1.1c0.6,0,1.1,0.5,1.1,1.1C44.4,18.2,43.9,18.7,43.3,18.7z"/>
	<path fill="#06728D" d="M20,24L32.2,8.7C28.8,6.1,24.6,4.5,20,4.5C9.2,4.5,0.5,13.2,0.5,24c0,10.8,8.7,19.5,19.5,19.5
		c10.3,0,18.7-8,19.5-18.1L20,24z M10.3,30.2c-0.6,0-1.1-0.5-1.1-1.1c0-0.6,0.5-1.1,1.1-1.1c0.6,0,1.1,0.5,1.1,1.1
		C11.4,29.7,10.9,30.2,10.3,30.2z M12.6,19.8c-0.6,0-1.1-0.5-1.1-1.1c0-0.6,0.5-1.1,1.1-1.1c0.6,0,1.1,0.5,1.1,1.1
		C13.7,19.3,13.2,19.8,12.6,19.8z M18.4,10.4c0-1.1,0.9-1.9,1.9-1.9c1.1,0,1.9,0.9,1.9,1.9c0,1.1-0.9,1.9-1.9,1.9
		C19.3,12.3,18.4,11.5,18.4,10.4z M22.1,38.3c-1.6,0-2.9-1.3-2.9-2.9c0-1.6,1.3-2.9,2.9-2.9c1.6,0,2.9,1.3,2.9,2.9
		C25,37,23.7,38.3,22.1,38.3z"/>
</g>
</svg>
