<?xml version="1.0" encoding="utf-8"?>
<!-- Generator: Adobe Illustrator 18.0.0, SVG Export Plug-In . SVG Version: 6.00 Build 0)  -->
<!DOCTYPE svg PUBLIC "-//W3C//DTD SVG 1.1//EN" "http://www.w3.org/Graphics/SVG/1.1/DTD/svg11.dtd">
<svg version="1.1" id="Layer_1" xmlns="http://www.w3.org/2000/svg" xmlns:xlink="http://www.w3.org/1999/xlink" x="0px" y="0px"
	 viewBox="0 0 48 48" enable-background="new 0 0 48 48" xml:space="preserve">
<g>
	<path fill="#0DB89A" d="M46.1,47.5c-0.4,0-0.7-0.1-1-0.4l-7.3-7.5c-0.5-0.5-0.5-1.4,0-1.9c0.5-0.5,1.4-0.5,1.9,0l7.3,7.5
		c0.5,0.5,0.5,1.4,0,1.9C46.8,47.4,46.4,47.5,46.1,47.5z"/>
	<path fill="#E77528" d="M31.7,35.5c0,0-0.3-2.8-4.6-2c-4.3,0.8-5.2,3.1-9.3,1.8c0,0,7,5.7,11,4C28.8,39.3,32.1,38.7,31.7,35.5z"/>
	<path fill="#E77528" d="M23,26.8c0,0-0.1-2.8-4.5-2.4c-4.3,0.4-5.5,2.6-9.4,1c0,0,6.5,6.3,10.7,4.9C19.8,30.3,23.1,30,23,26.8z"/>
	<path fill="#E77528" d="M14.4,18c0,0-0.1-2.8-4.4-2.5c-4.3,0.3-5.5,2.5-9.4,0.8c0,0,6.4,6.4,10.6,5.1C11.1,21.5,14.4,21.3,14.4,18z
		"/>
	<path fill="#E77528" d="M34.8,32.4c0,0-2.7-0.3-2-4.7c0.7-4.4,3-5.4,1.8-9.5c0,0,5.6,7.2,3.9,11.3C38.5,29.5,37.9,32.8,34.8,32.4z"
		/>
	<path fill="#E77528" d="M26.2,23.5c0,0-2.7-0.1-2.4-4.5c0.4-4.4,2.6-5.6,1-9.6c0,0,6.2,6.7,4.8,10.9C29.7,20.3,29.4,23.6,26.2,23.5
		z"/>
	<path fill="#E77528" d="M17.6,14.7c0,0-2.7-0.1-2.4-4.5c0.3-4.4,2.5-5.6,0.8-9.6c0,0,6.3,6.6,5,10.8C21,11.4,20.8,14.7,17.6,14.7z"
		/>
	<path fill="#0DB89A" d="M34.3,40.9c-0.1,0-0.2,0-0.3,0c-0.7-0.2-1.2-0.9-1-1.6c0-0.2,1-4.5,6.2-6.4c0.7-0.3,1.5,0.1,1.8,0.8
		c0.3,0.7-0.1,1.5-0.8,1.8c-3.7,1.4-4.4,4.3-4.5,4.4C35.5,40.4,34.9,40.9,34.3,40.9z"/>
	<path fill="#FFD69A" d="M13.1,5.6c-0.6-0.5-5.9-5-9.8-5c-0.1,0-0.2,0-0.3-0.1c-0.4,0-0.8,0.1-1.1,0.4C1.5,1.2,1.3,1.6,1.4,2.1
		c0,0.1,0,0.2,0.1,0.2c0.1,4,4.4,9.4,4.9,10c0.3,0.3,0.7,0.5,1.1,0.5c0.3,0,0.6-0.1,0.9-0.3c0.6-0.5,0.7-1.3,0.2-1.9
		C7,8.9,4.9,5.8,4.3,3.5c2.2,0.6,5.2,2.7,6.9,4.2C11.5,7.9,11.9,8,12.2,8c0.4,0,0.8-0.2,1-0.5C13.7,6.9,13.6,6.1,13.1,5.6z"/>
</g>
</svg>
