<?xml version="1.0" encoding="utf-8"?>
<!-- Generator: Adobe Illustrator 18.0.0, SVG Export Plug-In . SVG Version: 6.00 Build 0)  -->
<!DOCTYPE svg PUBLIC "-//W3C//DTD SVG 1.1//EN" "http://www.w3.org/Graphics/SVG/1.1/DTD/svg11.dtd">
<svg version="1.1" id="Layer_1" xmlns="http://www.w3.org/2000/svg" xmlns:xlink="http://www.w3.org/1999/xlink" x="0px" y="0px"
	 viewBox="0 0 48 48" enable-background="new 0 0 48 48" xml:space="preserve">
<g>
	<path fill="#E77528" d="M46.9,25.5c-2.5-6.2-8.7-11.5-14.6-12.1l0,0c-0.1-0.1-0.2-0.2-0.4-0.3c-1.5-1-5.6-1.2-6.4-1.2
		c-0.2,0-0.5,0.1-0.7,0.2c-0.2,0.1-0.5,0.3-0.7,0.4c-1.7-1.4-3.3-2-4.8-1.5c-2.8,0.7-4.1,4.4-4.1,4.5c-0.1,0.2-0.1,0.5,0,0.7l0,0
		c-6.4,0.5-12.8,4.3-14.7,15C0.5,32,0.3,32.8,1,33.7c0.5,0.6,1.2,0.7,2.4,0.8c8.3,0.5,29.7,1.2,33.9,2.4
		C42.4,38.3,49.7,32.6,46.9,25.5z M33.2,15.9c0,0.1,0,0.2,0,0.4C33.2,16.1,33.2,16,33.2,15.9z M33.2,15.5c0,0.1,0,0.2,0,0.2
		C33.2,15.6,33.2,15.6,33.2,15.5z M32.6,13.8C32.6,13.7,32.5,13.7,32.6,13.8C32.5,13.7,32.6,13.7,32.6,13.8z M33.2,15.3
		c0-0.1,0-0.1,0-0.2C33.2,15.2,33.2,15.2,33.2,15.3z M33.1,14.9c0-0.1,0-0.1,0-0.2C33.1,14.8,33.1,14.8,33.1,14.9z M33,14.5
		c0,0,0-0.1-0.1-0.1C33,14.4,33,14.4,33,14.5z M32.8,14.1c0,0-0.1-0.1-0.1-0.1C32.8,14,32.8,14.1,32.8,14.1z M15.5,16.6
		C15.5,16.6,15.5,16.6,15.5,16.6C15.5,16.6,15.5,16.6,15.5,16.6z M14,21.7c0.9,0,1.6,0.7,1.6,1.6c0,0.9-0.7,1.6-1.6,1.6
		c-0.9,0-1.6-0.7-1.6-1.6C12.4,22.4,13.1,21.7,14,21.7z M8.9,28.2c-0.5,0-1-0.4-1-1c0-0.5,0.4-1,1-1c0.5,0,1,0.4,1,1
		C9.9,27.8,9.4,28.2,8.9,28.2z M14,31.9c-1.3,0-2.3-1-2.3-2.3c0-1.3,1-2.3,2.3-2.3c1.3,0,2.3,1,2.3,2.3C16.3,30.9,15.3,31.9,14,31.9
		z M34,29.6c-3.2-5.2-7.9-12.8-15.8-13.3c-0.3,0-0.7,0-1,0c0.3-0.8,1.3-2.8,2.7-3.2c0.9-0.2,1.9,0.2,3,1.2c0.9,0.8,2,0.4,2.9-0.1
		c1.7,0.1,4.3,0.4,5,0.8c0.6,0.4,0.2,1.6,0.2,1.6c-0.2,0.5,0.1,1.1,0.6,1.3c0,0,2,0.8,3.2,1.5c0.1,0.1,0.2,0.1,0.3,0.2c0,0,0,0,0,0
		l-0.6,1.6c-0.1,0.3-0.1,0.7,0.2,1c0.2,0.3,0.5,0.4,0.9,0.4c0,0,2.1-0.1,3.5,0.2c0.1,0,0.1,0,0.1,0c0,0.1,0,0.1-0.1,0.2l-2.5,2
		c-0.3,0.2-0.4,0.5-0.4,0.9c0,0.3,0.2,0.6,0.5,0.8c0.8,0.4,2.9,1.8,3.7,2.9c0.9,1.3-1.4,3-1.5,3c-0.3,0.2-0.4,0.5-0.4,0.8
		C37.7,33.1,35.7,32.3,34,29.6z M38.7,33.7c0,0.1,0.1,0.2,0.1,0.3C38.8,33.9,38.8,33.8,38.7,33.7z"/>
</g>
</svg>
