<?xml version="1.0" encoding="utf-8"?>
<!-- Generator: Adobe Illustrator 18.0.0, SVG Export Plug-In . SVG Version: 6.00 Build 0)  -->
<!DOCTYPE svg PUBLIC "-//W3C//DTD SVG 1.1//EN" "http://www.w3.org/Graphics/SVG/1.1/DTD/svg11.dtd">
<svg version="1.1" id="Layer_1" xmlns="http://www.w3.org/2000/svg" xmlns:xlink="http://www.w3.org/1999/xlink" x="0px" y="0px"
	 viewBox="0 0 48 48" enable-background="new 0 0 48 48" xml:space="preserve">
<g>
	<path fill="#0DB89A" d="M24,41.9c-13,0-23.5-10.5-23.5-23.5c0-0.7,0.6-1.3,1.3-1.3s1.3,0.6,1.3,1.3c0,11.5,9.4,20.8,20.8,20.8
		s20.8-9.4,20.8-20.8c0-0.7,0.6-1.3,1.3-1.3s1.3,0.6,1.3,1.3C47.5,31.4,37,41.9,24,41.9z"/>
	<path fill="#F04B36" d="M24.9,18.4c-0.3,2.1-2.1,3.8-4.4,3.8c-1.4,0-2.7-0.7-3.5-1.8c-0.7,0.5-1.5,0.8-2.3,0.8
		c-1.8,0-3.3-1.2-3.8-2.8H5.5c0,10.2,8.3,18.5,18.5,18.5c10.2,0,18.5-8.3,18.5-18.5H24.9z M13.7,24.9l-1.8,1.2
		c-0.2,0.1-0.3,0.1-0.5,0.1c-0.3,0-0.6-0.2-0.8-0.4c-0.3-0.4-0.2-1,0.3-1.3l1.8-1.2c0.5-0.3,1-0.2,1.3,0.3
		C14.3,24,14.2,24.6,13.7,24.9z M20.8,27.4l-0.8,2c-0.1,0.4-0.5,0.6-0.9,0.6c-0.1,0-0.2,0-0.4-0.1c-0.5-0.2-0.7-0.8-0.5-1.2l0.8-2
		c0.2-0.5,0.8-0.7,1.2-0.5C20.7,26.4,21,27,20.8,27.4z M28.1,31.1c-0.1,0-0.2,0.1-0.3,0.1c-0.4,0-0.8-0.2-0.9-0.6l-0.8-2.1
		c-0.2-0.5,0.1-1.1,0.6-1.2c0.5-0.2,1.1,0.1,1.2,0.6l0.8,2.1C28.9,30.3,28.6,30.9,28.1,31.1z M35.4,25.2c-0.2,0.3-0.5,0.4-0.8,0.4
		c-0.2,0-0.4-0.1-0.5-0.2l-1.8-1.3c-0.4-0.3-0.6-0.9-0.3-1.3c0.3-0.4,0.9-0.6,1.3-0.3l1.8,1.3C35.6,24.2,35.7,24.8,35.4,25.2z"/>
	<path fill="#4DA0D8" d="M27.8,11.6c-0.2,0-0.4-0.1-0.5-0.2c-0.4-0.3-0.6-0.9-0.3-1.3l1.5-2.3c0.3-0.4,0.9-0.6,1.3-0.3
		c0.4,0.3,0.6,0.9,0.3,1.3l-1.5,2.3C28.4,11.5,28.1,11.6,27.8,11.6z"/>
	<path fill="#4DA0D8" d="M21.2,10.7c-0.1,0-0.1,0-0.2,0c-0.5-0.1-0.9-0.6-0.8-1.1l0.5-2.7c0.1-0.5,0.6-0.9,1.1-0.8
		c0.5,0.1,0.9,0.6,0.8,1.1l-0.5,2.7C22,10.4,21.6,10.7,21.2,10.7z"/>
	<path fill="#4DA0D8" d="M13,11.8c-0.4,0-0.7-0.2-0.9-0.6l-1.1-2.5c-0.2-0.5,0-1.1,0.5-1.3c0.5-0.2,1.1,0,1.3,0.5l1.1,2.5
		c0.2,0.5,0,1.1-0.5,1.3C13.3,11.8,13.2,11.8,13,11.8z"/>
</g>
</svg>
