<?xml version="1.0" encoding="utf-8"?>
<!-- Generator: Adobe Illustrator 18.0.0, SVG Export Plug-In . SVG Version: 6.00 Build 0)  -->
<!DOCTYPE svg PUBLIC "-//W3C//DTD SVG 1.1//EN" "http://www.w3.org/Graphics/SVG/1.1/DTD/svg11.dtd">
<svg version="1.1" id="Layer_1" xmlns="http://www.w3.org/2000/svg" xmlns:xlink="http://www.w3.org/1999/xlink" x="0px" y="0px"
	 viewBox="0 0 48 48" enable-background="new 0 0 48 48" xml:space="preserve">
<g>
	<path fill="#06728D" d="M31.1,12.8c-9.1,0-16.4,7.3-16.4,16.4c0,9.1,7.3,16.4,16.4,16.4c9.1,0,16.4-7.3,16.4-16.4
		C47.5,20.2,40.2,12.8,31.1,12.8z M26.3,34.7c-1.3,0-2.3-1-2.3-2.3c0-1.3,1-2.3,2.3-2.3c1.3,0,2.3,1,2.3,2.3
		C28.5,33.6,27.5,34.7,26.3,34.7z M27.7,23.3c-1.3,0-2.3-1-2.3-2.3c0-1.3,1-2.3,2.3-2.3c1.3,0,2.3,1,2.3,2.3
		C30,22.3,29,23.3,27.7,23.3z M36.8,33.7c-1.3,0-2.3-1-2.3-2.3c0-1.3,1-2.3,2.3-2.3c1.3,0,2.3,1,2.3,2.3
		C39.1,32.7,38.1,33.7,36.8,33.7z"/>
	<path fill="#F7A93B" d="M31.1,10.8C31.1,10.8,31.2,10.8,31.1,10.8c-2.7-5-8.1-8.4-14.2-8.4C7.8,2.4,0.5,9.7,0.5,18.8
		c0,7.9,5.6,14.5,13,16c-0.6-1.8-0.9-3.7-0.9-5.6C12.7,19,20.9,10.8,31.1,10.8z M9.5,21c-1.3,0-2.3-1-2.3-2.3c0-1.3,1-2.3,2.3-2.3
		c1.3,0,2.3,1,2.3,2.3C11.7,20,10.7,21,9.5,21z M11.7,11.5c0-1.3,1-2.3,2.3-2.3c1.3,0,2.3,1,2.3,2.3c0,1.3-1,2.3-2.3,2.3
		C12.8,13.8,11.7,12.8,11.7,11.5z"/>
</g>
</svg>
