<?xml version="1.0" encoding="utf-8"?>
<!-- Generator: Adobe Illustrator 18.0.0, SVG Export Plug-In . SVG Version: 6.00 Build 0)  -->
<!DOCTYPE svg PUBLIC "-//W3C//DTD SVG 1.1//EN" "http://www.w3.org/Graphics/SVG/1.1/DTD/svg11.dtd">
<svg version="1.1" id="Layer_1" xmlns="http://www.w3.org/2000/svg" xmlns:xlink="http://www.w3.org/1999/xlink" x="0px" y="0px"
	 viewBox="0 0 48 48" enable-background="new 0 0 48 48" xml:space="preserve">
<g>
	<path fill="#CFD0D1" d="M8.7,42.3l-0.5-23c-1.7-1.1-3.7-3.3-3.4-6.9c0.4-4.4,3.8-6.5,4.6-6.9c4-2.5,8.2-4.2,12.4-4.9
		c-5.3-0.2-11.5,1-17.7,4.9c0,0-3.2,1.5-3.5,5.3c-0.3,3.8,2.7,5.3,3.4,5.4l0.5,24.3c0,0,0.1,4.1,3.9,5.5c0.1,0,0.7,0.2,1.4,0.4
		C9.1,45,8.8,43.5,8.7,42.3z"/>
	<path fill="#F04B36" d="M47.5,12.3c-0.1-3.6-3.5-4.9-4-5.3C42.9,6.5,27.9-4,10.4,7.2c0,0-3.2,1.5-3.5,5.3c-0.3,3.8,2.7,5.3,3.4,5.4
		l0.5,24.3c0,0,0.3,5,3.7,5.2c4.3,0.2,25.3-0.6,25.3-0.6S44,47,44,42.5c0.1-4.5-0.5-24.8-0.5-24.8S47.6,15.9,47.5,12.3z M20.3,38.9
		c-1.8,0-3.3-1.7-3.3-3.8c0-2.1,1.5-3.8,3.3-3.8c1.8,0,3.3,1.7,3.3,3.8C23.6,37.3,22.1,38.9,20.3,38.9z M24.5,18.6c-1.1,0-2-1-2-2.3
		c0-1.3,0.9-2.3,2-2.3c1.1,0,2,1,2,2.3C26.5,17.5,25.6,18.6,24.5,18.6z M34.8,33.7c-1.9,0-3.4-1.7-3.4-3.8s1.5-3.8,3.4-3.8
		c1.9,0,3.4,1.7,3.4,3.8S36.7,33.7,34.8,33.7z"/>
</g>
</svg>
