<?xml version="1.0" encoding="utf-8"?>
<!-- Generator: Adobe Illustrator 18.0.0, SVG Export Plug-In . SVG Version: 6.00 Build 0)  -->
<!DOCTYPE svg PUBLIC "-//W3C//DTD SVG 1.1//EN" "http://www.w3.org/Graphics/SVG/1.1/DTD/svg11.dtd">
<svg version="1.1" id="Layer_1" xmlns="http://www.w3.org/2000/svg" xmlns:xlink="http://www.w3.org/1999/xlink" x="0px" y="0px"
	 viewBox="0 0 48 48" enable-background="new 0 0 48 48" xml:space="preserve">
<g>
	<path fill="#F7A93B" d="M47.4,15.3l-3.2-2.4c0,0-0.8-0.4,0.3-2.4C45.5,8.4,45.9,6,45.9,6L46,4.2l-1.8-0.8L41.4,3l-2.1,0.8l0.2,2.8
		c0,0,2.1,3.8,1.7,6.3c-0.4,2.4-1.8,1.6-3.2,3c-1.5,1.4-7.1,19.3-31.1,15.8c0,0-4.4-0.6-5.8,1c0,0-1.7,2.4,1.5,5.7
		c0,0,13.4,12,30.4,3.6C49.9,33.5,47.4,15.3,47.4,15.3z"/>
</g>
</svg>
