<?xml version="1.0" encoding="utf-8"?>
<!-- Generator: Adobe Illustrator 18.0.0, SVG Export Plug-In . SVG Version: 6.00 Build 0)  -->
<!DOCTYPE svg PUBLIC "-//W3C//DTD SVG 1.1//EN" "http://www.w3.org/Graphics/SVG/1.1/DTD/svg11.dtd">
<svg version="1.1" id="Layer_1" xmlns="http://www.w3.org/2000/svg" xmlns:xlink="http://www.w3.org/1999/xlink" x="0px" y="0px"
	 viewBox="0 0 48 48" enable-background="new 0 0 48 48" xml:space="preserve">
<g>
	<path fill="#06728D" d="M47.2,12.5C46,6.4,39.9,1.6,33.5,1.6c-3.5,0-6.9,1.4-9.9,3.9c-2.7,2.3-4.4,5.5-6.4,12.3
		c-2,6.5-6.7,12.5-6.7,12.6c-0.2,0.2-0.2,0.5-0.2,0.7s0.2,0.5,0.4,0.7l1.5,1.2c-0.6,0.7-1.6,1.9-2.6,3.1c-0.6-1.9-2.3-3.3-4.4-3.3
		c-2.6,0-4.6,2.1-4.6,4.6c0,2.6,2.1,4.6,4.6,4.6c0.5,0,1-0.1,1.4-0.2c0,2.5,2.1,4.5,4.6,4.5c2.6,0,4.6-2.1,4.6-4.6
		c0-2.5-2-4.6-4.5-4.6c0.9-1.1,1.9-2.3,2.4-2.9l1.7,1.3c0.2,0.1,0.4,0.2,0.6,0.2c0.1,0,0.1,0,0.2,0c0.3,0,0.5-0.2,0.7-0.4
		c0,0,3.2-4.4,13.7-4.7c5.8-0.2,10.7-2.4,13.9-6.4C47,20.8,48.1,16.6,47.2,12.5z M5.1,40.1c-1.5,0-2.7-1.2-2.7-2.7
		c0-1.5,1.2-2.7,2.7-2.7c1.5,0,2.7,1.2,2.7,2.7C7.8,38.9,6.6,40.1,5.1,40.1z M13.8,41.7c0,1.5-1.2,2.7-2.7,2.7
		c-1.5,0-2.7-1.2-2.7-2.7c0-1.5,1.2-2.7,2.7-2.7C12.6,39.1,13.8,40.3,13.8,41.7z"/>
</g>
</svg>
