<?xml version="1.0" encoding="utf-8"?>
<!-- Generator: Adobe Illustrator 18.0.0, SVG Export Plug-In . SVG Version: 6.00 Build 0)  -->
<!DOCTYPE svg PUBLIC "-//W3C//DTD SVG 1.1//EN" "http://www.w3.org/Graphics/SVG/1.1/DTD/svg11.dtd">
<svg version="1.1" id="Layer_1" xmlns="http://www.w3.org/2000/svg" xmlns:xlink="http://www.w3.org/1999/xlink" x="0px" y="0px"
	 viewBox="0 0 48 48" enable-background="new 0 0 48 48" xml:space="preserve">
<g>
	<path fill="#F7A93B" d="M15,20.4c-1.9,1.9-3.4,4.5-4.1,7.4l10.5-4.6L15,20.4z"/>
	<path fill="#F7A93B" d="M37.6,31.7c0-0.5,0-1-0.1-1.4L24,24.3l-13.5,5.9c0,0.5-0.1,0.9-0.1,1.4L24,37.6L37.6,31.7z"/>
	<path fill="#F7A93B" d="M10.5,33.9c0.3,3.1,1.5,5.9,3.2,8.2l7.8-3.4L10.5,33.9z"/>
	<path fill="#F7A93B" d="M26.6,23.2l10.5,4.6c-0.7-2.9-2.2-5.5-4.1-7.4L26.6,23.2z"/>
	<path fill="#F7A93B" d="M15.1,43.7c2.4,2.4,5.5,3.8,8.9,3.8c3.4,0,6.5-1.4,8.9-3.8L24,39.8L15.1,43.7z"/>
	<path fill="#F7A93B" d="M34.3,42.1c1.7-2.3,2.8-5.1,3.2-8.2l-11,4.8L34.3,42.1z"/>
	<path fill="#F7A93B" d="M18.4,17.9c-0.6,0.3-1.1,0.6-1.7,1l7.2,3.2l7.2-3.2c-1.1-0.8-2.4-1.4-3.8-1.8
		C23.4,15.9,18.4,17.9,18.4,17.9z"/>
	<path fill="#0DB89A" d="M34.9,14.5C30.6,11,25,13.7,25,13.7c1.1-3.4,5.1-5.4,5.1-5.4c-3.2,0.5-5.2,1.3-6.4,2
		c-0.1-7.6,3.2-9.8,3.2-9.8c-4,2.2-5.6,7.6-6,9.3c-3.2-5.1-10-6.2-10-6.2c6.7,4,8,10.9,8,10.9c-2.2-2.2-6.9-1.5-6.9-1.5
		c3.5,1.2,5.7,4.1,6.3,5c0,0,5-2,9-0.8C30.1,14.2,34.9,14.5,34.9,14.5z"/>
</g>
</svg>
