<?xml version="1.0" encoding="utf-8"?>
<!-- Generator: Adobe Illustrator 18.0.0, SVG Export Plug-In . SVG Version: 6.00 Build 0)  -->
<!DOCTYPE svg PUBLIC "-//W3C//DTD SVG 1.1//EN" "http://www.w3.org/Graphics/SVG/1.1/DTD/svg11.dtd">
<svg version="1.1" id="Layer_1" xmlns="http://www.w3.org/2000/svg" xmlns:xlink="http://www.w3.org/1999/xlink" x="0px" y="0px"
	 viewBox="0 0 48 48" enable-background="new 0 0 48 48" xml:space="preserve">
<g>
	<path fill="#06728D" d="M6.1,33c1.5-3.1,1.4-6.6,1.2-9.3c0-0.4-0.1-0.8-0.1-1.2c-0.2-1.7-0.5-3.6,0.2-5.1c0.5-1.3,1.6-2.2,2.7-3
		c0.6-0.5,1.2-1,1.6-1.5c0.3-0.4,0.6-0.7,0.9-1.1c0.9-1.3,1.9-2.7,3.4-3.4c3.1-1.6,6.6-1.8,9.3-1.8c0.8,0,1.7,0,2.6,0.1
		c1.7,0.1,3.5,0.2,5-0.1c2.7-0.4,4.1-1,4.9-1.6C33.9,2.2,29.1,0.5,24,0.5C11,0.5,0.5,11,0.5,24c0,4.1,1.1,8,3,11.4
		C4.5,35,5.5,34.1,6.1,33z"/>
	<path fill="#0DB89A" d="M39.3,6.2c-1.3,1.1-3.3,1.9-6.2,2.3c-1.7,0.3-3.6,0.2-5.4,0.1c-0.9,0-1.7-0.1-2.5-0.1
		c-2.5,0-5.7,0.2-8.4,1.6c-1.1,0.6-1.9,1.7-2.7,2.8c-0.3,0.4-0.6,0.8-0.9,1.2c-0.5,0.7-1.2,1.2-1.9,1.8c-0.9,0.7-1.7,1.4-2.1,2.2
		c-0.4,1.1-0.2,2.7-0.1,4.1c0.1,0.4,0.1,0.9,0.1,1.3c0.3,3,0.3,6.9-1.4,10.4c-0.7,1.4-1.9,2.6-3.3,3.2C8.7,43.4,15.9,47.5,24,47.5
		C37,47.5,47.5,37,47.5,24C47.5,16.9,44.3,10.5,39.3,6.2z M24,31.7c-4.2,0-7.7-3.4-7.7-7.7c0-4.2,3.4-7.7,7.7-7.7s7.7,3.4,7.7,7.7
		C31.7,28.2,28.2,31.7,24,31.7z"/>
</g>
</svg>
