<?xml version="1.0" encoding="utf-8"?>
<!-- Generator: Adobe Illustrator 18.0.0, SVG Export Plug-In . SVG Version: 6.00 Build 0)  -->
<!DOCTYPE svg PUBLIC "-//W3C//DTD SVG 1.1//EN" "http://www.w3.org/Graphics/SVG/1.1/DTD/svg11.dtd">
<svg version="1.1" id="Layer_1" xmlns="http://www.w3.org/2000/svg" xmlns:xlink="http://www.w3.org/1999/xlink" x="0px" y="0px"
	 viewBox="0 0 48 48" enable-background="new 0 0 48 48" xml:space="preserve">
<g>
	<path fill="#CFD0D1" d="M0.5,14.7v26.1c0,2,1.4,3.6,3.1,3.6h3.2v1c0,0.6,0.5,1,1,1c0.6,0,1-0.5,1-1v-1h30.5v1c0,0.6,0.5,1,1,1
		c0.6,0,1-0.5,1-1v-1h3.1c1.7,0,3.1-1.6,3.1-3.6V14.7H0.5z M38.1,32.4c0,2.2-1.6,4.1-3.5,4.1H13.4c-1.9,0-3.5-1.8-3.5-4.1v-6.9
		c0-2.2,1.6-4.1,3.5-4.1h21.2c1.9,0,3.5,1.8,3.5,4.1V32.4z"/>
	<path fill="#F04B36" d="M47.5,11.8V5.2c0-2-1.4-3.6-3.1-3.6H3.6c-1.7,0-3.1,1.6-3.1,3.6v6.6H47.5z M25.7,6.8h2.1
		c0.8,0,1.4,0.6,1.4,1.4c0,0.8-0.6,1.4-1.4,1.4h-2.1c-0.8,0-1.4-0.6-1.4-1.4C24.3,7.4,24.9,6.8,25.7,6.8z M19,6.8h2.1
		c0.8,0,1.4,0.6,1.4,1.4c0,0.8-0.6,1.4-1.4,1.4H19c-0.8,0-1.4-0.6-1.4-1.4C17.6,7.4,18.3,6.8,19,6.8z M12.4,6.8h2.1
		c0.8,0,1.4,0.6,1.4,1.4c0,0.8-0.6,1.4-1.4,1.4h-2.1c-0.8,0-1.4-0.6-1.4-1.4C10.9,7.4,11.6,6.8,12.4,6.8z M5.7,6.8h2.1
		c0.8,0,1.4,0.6,1.4,1.4c0,0.8-0.6,1.4-1.4,1.4H5.7C4.9,9.6,4.3,9,4.3,8.2C4.3,7.4,4.9,6.8,5.7,6.8z"/>
</g>
</svg>
