<?xml version="1.0" encoding="utf-8"?>
<!-- Generator: Adobe Illustrator 18.0.0, SVG Export Plug-In . SVG Version: 6.00 Build 0)  -->
<!DOCTYPE svg PUBLIC "-//W3C//DTD SVG 1.1//EN" "http://www.w3.org/Graphics/SVG/1.1/DTD/svg11.dtd">
<svg version="1.1" id="Layer_1" xmlns="http://www.w3.org/2000/svg" xmlns:xlink="http://www.w3.org/1999/xlink" x="0px" y="0px"
	 viewBox="0 0 48 48" enable-background="new 0 0 48 48" xml:space="preserve">
<g>
	<path fill="#E77528" d="M46.5,27.9h-3.9H5.3H1.5c-0.5,0-1,0.4-1,1c0,0.5,0.4,1,1,1h3.2C6.7,36.1,14.7,40.5,24,40.5
		s17.3-4.4,19.4-10.6h3.2c0.5,0,1-0.4,1-1C47.5,28.3,47.1,27.9,46.5,27.9z"/>
	<path fill="#06728D" d="M32.6,23.9c0.5,0,1-0.4,1-1v-9.6c0-0.5-0.4-1-1-1c-0.5,0-1,0.4-1,1v9.6C31.6,23.5,32,23.9,32.6,23.9z"/>
	<path fill="#06728D" d="M24,23.9c0.5,0,1-0.4,1-1V8.5c0-0.5-0.4-1-1-1c-0.5,0-1,0.4-1,1v14.4C23,23.5,23.5,23.9,24,23.9z"/>
	<path fill="#06728D" d="M15.4,23.9c0.5,0,1-0.4,1-1v-9.6c0-0.5-0.4-1-1-1c-0.5,0-1,0.4-1,1v9.6C14.5,23.5,14.9,23.9,15.4,23.9z"/>
</g>
</svg>
