<?xml version="1.0" encoding="utf-8"?>
<!-- Generator: Adobe Illustrator 18.0.0, SVG Export Plug-In . SVG Version: 6.00 Build 0)  -->
<!DOCTYPE svg PUBLIC "-//W3C//DTD SVG 1.1//EN" "http://www.w3.org/Graphics/SVG/1.1/DTD/svg11.dtd">
<svg version="1.1" id="Layer_1" xmlns="http://www.w3.org/2000/svg" xmlns:xlink="http://www.w3.org/1999/xlink" x="0px" y="0px"
	 viewBox="0 0 48 48" enable-background="new 0 0 48 48" xml:space="preserve">
<g>
	<path fill="#06728D" d="M32.4,0.5H15.6c-2.1,0-3.9,1.7-3.9,3.9v12.2h24.6V4.4C36.3,2.2,34.5,0.5,32.4,0.5z M33.3,12.1
		c0,0.6-0.4,1-1,1c-0.6,0-1-0.4-1-1V6.7c0-0.6,0.4-1,1-1c0.6,0,1,0.4,1,1V12.1z"/>
	<path fill="#294E58" d="M11.7,18.5v22c0,2.1,1.7,3.9,3.9,3.9h0.3v2.1c0,0.6,0.4,1,1,1c0.6,0,1-0.4,1-1v-2.1h12.3v2.1
		c0,0.6,0.4,1,1,1c0.6,0,1-0.4,1-1v-2.1h0.3c2.1,0,3.9-1.7,3.9-3.9v-22H11.7z M33.3,28.2c0,0.6-0.4,1-1,1c-0.6,0-1-0.4-1-1v-5.5
		c0-0.6,0.4-1,1-1c0.6,0,1,0.4,1,1V28.2z"/>
</g>
</svg>
