<?xml version="1.0" encoding="utf-8"?>
<!-- Generator: Adobe Illustrator 18.0.0, SVG Export Plug-In . SVG Version: 6.00 Build 0)  -->
<!DOCTYPE svg PUBLIC "-//W3C//DTD SVG 1.1//EN" "http://www.w3.org/Graphics/SVG/1.1/DTD/svg11.dtd">
<svg version="1.1" id="Layer_1" xmlns="http://www.w3.org/2000/svg" xmlns:xlink="http://www.w3.org/1999/xlink" x="0px" y="0px"
	 viewBox="0 0 48 48" enable-background="new 0 0 48 48" xml:space="preserve">
<g>
	<path fill="#0DB89A" d="M21.9,12.2c3.3,12.5,18.8,4.2,18.8,4.2c-9.1-12.5-19.5-6.2-19.5-6.2L21.9,12.2z"/>
	<path fill="none" d="M30.9,33.8c-1.1-0.7-2-1.5-2.9-2.3c0,0,0,0,0,0c-0.4,0.5-0.8,1.1-1.1,1.7c0.9,0.9,1.9,1.7,3,2.4
		c0.2,0.1,0.3,0.2,0.5,0.2c0.3,0,0.7-0.2,0.9-0.5C31.6,34.7,31.4,34.1,30.9,33.8z"/>
	<polygon fill="#010101" points="15,29.5 15,29.5 15,29.5 	"/>
	<path fill="#F04B36" d="M4.1,36.8c-0.9,4.9,2.4,9.7,7.4,10.5c4.9,0.9,9.7-2.4,10.5-7.4c0.9-4.9-2.3-9.5-7.1-10.5
		c0.1,1.5,0.2,2.3,0.2,2.4c0.1,0.5-0.3,1.1-0.8,1.2c-0.1,0-0.1,0-0.2,0c-0.5,0-0.9-0.3-1-0.8c0-0.2-0.2-1.2-0.3-2.9h0l0,0
		C8.7,29.4,4.9,32.5,4.1,36.8z"/>
	<polygon fill="none" points="28,31.5 28,31.5 28,31.5 	"/>
	<polygon fill="#010101" points="28,31.5 28,31.5 28,31.5 	"/>
	<path fill="#F04B36" d="M36.5,28.4c-3.3-0.6-6.5,0.7-8.5,3.1l0,0c0.9,0.9,1.9,1.7,2.9,2.3c0.5,0.3,0.6,0.9,0.3,1.4
		c-0.2,0.3-0.5,0.5-0.9,0.5c-0.2,0-0.4,0-0.5-0.2c-1.1-0.7-2.1-1.5-3-2.4c0,0,0,0,0,0l0,0c-0.4,0.8-0.7,1.7-0.9,2.6
		c-0.9,4.9,2.4,9.7,7.4,10.5c4.9,0.9,9.7-2.4,10.5-7.4C44.8,34,41.5,29.3,36.5,28.4z"/>
	<path fill="#0DB89A" d="M28,31.5L28,31.5C28,31.5,28,31.5,28,31.5C28,31.5,28,31.5,28,31.5L28,31.5C28,31.5,28,31.5,28,31.5
		c-6.6-6.5-9.5-18.4-9.9-20.5c1.3-3,3.1-6,5.6-8.8c0.4-0.4,0.3-1-0.1-1.4c-0.4-0.4-1-0.3-1.4,0.1c-9.2,10.4-9.6,22.9-9.3,28.5
		c0,0,0,0,0,0c0,0,0,0,0,0l0,0c0.7,0,1.4,0,2,0.2l0,0c-0.2-3.1-0.2-8.9,1.9-15.2c1.3,4.7,4.4,13.5,10,18.9c0,0,0,0,0,0c0,0,0,0,0,0
		l0,0C27.2,32.6,27.6,32,28,31.5z"/>
</g>
</svg>
