<?xml version="1.0" encoding="utf-8"?>
<!-- Generator: Adobe Illustrator 18.0.0, SVG Export Plug-In . SVG Version: 6.00 Build 0)  -->
<!DOCTYPE svg PUBLIC "-//W3C//DTD SVG 1.1//EN" "http://www.w3.org/Graphics/SVG/1.1/DTD/svg11.dtd">
<svg version="1.1" id="Layer_1" xmlns="http://www.w3.org/2000/svg" xmlns:xlink="http://www.w3.org/1999/xlink" x="0px" y="0px"
	 viewBox="0 0 48 48" enable-background="new 0 0 48 48" xml:space="preserve">
<g>
	<path fill="none" d="M23.3,20.9L21.9,20c-0.1-0.1-0.3-0.1-0.4-0.1c-0.3,0-0.5,0.1-0.6,0.3l-0.9,1.4c-0.2,0.3-0.1,0.8,0.2,1l1.5,0.9
		c0.3,0.2,0.8,0.1,1-0.2l0.9-1.4c0.1-0.2,0.1-0.4,0.1-0.5C23.6,21.2,23.5,21,23.3,20.9z"/>
	<path fill="none" d="M27.2,27.5c-0.1-0.3-0.4-0.4-0.7-0.4c-0.1,0-0.2,0-0.3,0.1l-1.6,0.7c-0.2,0.1-0.3,0.2-0.4,0.4
		c-0.1,0.2-0.1,0.4,0,0.6l0.7,1.6c0.2,0.3,0.6,0.5,1,0.4l1.6-0.7c0.2-0.1,0.3-0.2,0.4-0.4c0.1-0.2,0.1-0.4,0-0.6L27.2,27.5z"/>
	<path fill="#E77528" d="M33.5,17.1h-19c-0.3,1.3-0.8,2.2-0.8,2.3c-0.1,0.4-1.5,3.6-1.5,5.6c0,6,4.5,11,10.4,11.6v8.8h-2.5
		c-0.5,0-1,0.4-1,1c0,0.5,0.4,1,1,1h7.6c0.5,0,1-0.4,1-1c0-0.5-0.4-1-1-1h-2.5v-8.8c5.8-0.7,10.4-5.6,10.4-11.6c0-2-0.5-4-1.5-5.7
		C34.2,19.4,33.8,18.4,33.5,17.1z M23.5,21.9l-0.9,1.4c-0.2,0.3-0.7,0.4-1,0.2l-1.5-0.9c-0.3-0.2-0.4-0.7-0.2-1l0.9-1.4
		c0.1-0.2,0.4-0.3,0.6-0.3c0.1,0,0.3,0,0.4,0.1l1.5,0.9c0.2,0.1,0.3,0.3,0.3,0.5C23.7,21.6,23.6,21.8,23.5,21.9z M28,29.7
		c-0.1,0.2-0.2,0.3-0.4,0.4l-1.6,0.7c-0.4,0.2-0.8,0-1-0.4l-0.7-1.6c-0.1-0.2-0.1-0.4,0-0.6c0.1-0.2,0.2-0.3,0.4-0.4l1.6-0.7
		c0.1,0,0.2-0.1,0.3-0.1c0.3,0,0.5,0.2,0.7,0.4l0.7,1.6C28.1,29.3,28.1,29.5,28,29.7z"/>
	<path fill="#06728D" d="M33.3,16.4c-0.6-3.2,0-5.7,2-7.2c0.3-0.3,0.5-0.7,0.3-1.1c-0.1-0.4-0.5-0.7-0.9-0.7H22.4
		c-0.8-1.8-1.6-3.4-2.1-4.4c-0.7-1.3-1.5-2.2-2.5-2.5c-1.2-0.4-2.1,0.1-2.1,0.2l-2.8,1.4c-0.5,0.2-0.7,0.8-0.4,1.3
		C12.6,4,13.2,4.2,13.7,4l2.9-1.5c0,0,0.3-0.1,0.6,0c0.5,0.1,0.9,0.7,1.4,1.5c0.4,0.8,1,2.1,1.7,3.5h-7c-0.4,0-0.8,0.3-0.9,0.7
		c-0.1,0.4,0,0.8,0.3,1.1c2,1.5,2.7,3.9,2,7.2v0c0,0.2-0.1,0.5-0.2,0.7h19C33.4,16.9,33.4,16.7,33.3,16.4z M16.8,15.6
		c0.3-2.4-0.1-4.5-1.3-6.2h5.6c1.1,2.3,2.2,4.8,2.9,6.2H16.8z M31.2,15.6h-5c-0.5-1-1.7-3.6-2.9-6.2h9.2
		C31.4,11.1,30.9,13.2,31.2,15.6z"/>
</g>
</svg>
