<?xml version="1.0" encoding="utf-8"?>
<!-- Generator: Adobe Illustrator 18.0.0, SVG Export Plug-In . SVG Version: 6.00 Build 0)  -->
<!DOCTYPE svg PUBLIC "-//W3C//DTD SVG 1.1//EN" "http://www.w3.org/Graphics/SVG/1.1/DTD/svg11.dtd">
<svg version="1.1" id="Layer_1" xmlns="http://www.w3.org/2000/svg" xmlns:xlink="http://www.w3.org/1999/xlink" x="0px" y="0px"
	 viewBox="0 0 48 48" enable-background="new 0 0 48 48" xml:space="preserve">
<g>
	<path fill="#0DB89A" d="M15.8,15.5c0.2,0.2,0.4,0.2,0.7,0.2c0.3,0,0.6-0.1,0.8-0.3c0.4-0.4,0.3-1-0.1-1.4
		c-5.9-5.2-6.8-11.3-6.8-11.4C10.2,2,9.7,1.7,9.1,1.7C8.6,1.8,8.2,2.3,8.3,2.9C8.3,3.1,9.3,9.8,15.8,15.5z"/>
	<path fill="#F04B36" d="M46.1,34.6c-0.7-3.5-1.5-6.8-2.6-10.2c-0.4-1.3-0.6-2.5-0.9-3.8c-0.4-1.7,0-3.5-0.4-5.2
		c-0.6-2.8-1.7-5.9-3.6-8c-0.9-1-2.4-1.7-3.7-2.1c-1.2-0.4-4.1-0.9-6.6-0.6c0.5-0.9,1-2,1.1-3.1c0-0.4-0.2-0.9-0.6-1
		c-0.4-0.2-0.9-0.1-1.2,0.3c-0.2,0.2-1,0.4-1.4,0.4c-0.2,0-0.4,0.1-0.6,0.1c-0.5,0.1-1.1,0.2-1.7,0.3c-0.8,0.1-1.6,0.2-2.4,0.4
		c-1.3,0.4-2.6,1.1-4,2.1C16.1,5.3,15,7,14.2,9.5c-0.2,0.5,0.1,1.1,0.7,1.3c0.5,0.2,1.1-0.1,1.3-0.7c0.6-2,1.5-3.4,2.8-4.3
		C20.1,5,21.2,4.4,22.3,4c0.6-0.2,1.3-0.3,2-0.4c0.6-0.1,1.2-0.2,1.9-0.3c0.1,0,0.3-0.1,0.5-0.1c0.1,0,0.1,0,0.2,0
		C26.5,4,26,4.8,25.3,5.5c-0.8,0.9-1.6,1.6-2.5,2.3l-0.3,0.3c-0.5,0.4-0.9,0.7-1.4,1c-0.1,0-0.2,0.1-0.3,0.1c-0.4,0.1-1,0.3-1.4,0.9
		c-0.3,0.4-0.2,0.9,0.1,1.2c0.3,0.3,0.8,0.4,1.2,0.2c0.5-0.2,1.6-0.2,2.3-0.1c0.3,0,0.6,0,0.9,0c1.4,0,2.6,0.2,3.7,0.6
		c1.2,0.4,2.3,1.1,2.9,1.8c0.4,0.5,0.7,0.8,0.9,1.1c-0.5,0-1.1,0-1.6,0.2c-1.1,0.4-2.1,1-3.1,1.7c-0.7,0.5-1.4,0.9-2.1,1.2
		c-1.1,0.5-2.4,0.9-3.6,0.6c-0.5-0.1-1.2-0.4-1.7-0.7c-0.1-0.1-0.1-0.1-0.3-0.2c-0.1-0.1-0.2-0.3-0.4-0.4c-0.3-0.3-0.7-0.3-1-0.2
		c-0.4,0.1-0.6,0.5-0.6,0.9c0,0.5,0,1-0.1,1.5c0,1.3-0.1,2.4-0.6,3.6c-0.3,0.6-0.7,1.2-1.1,1.8c-0.4,0.6-0.8,1.1-1.1,1.8
		c-0.2,0.4-0.4,0.8-0.5,1.2C13,26.8,12.4,25.9,12,25c-0.9-2.1-0.8-4.6,0.3-6.6c0.2-0.4,0.2-0.9-0.1-1.2c-0.3-0.3-0.8-0.4-1.2-0.2
		c-0.5,0.3-0.9,0.7-1.3,1c-0.2,0.2-0.3,0.3-0.5,0.5c-0.4,0.3-0.9,0.5-1.5,0.8c-0.2,0.1-0.4,0.2-0.6,0.3l-0.1,0
		c-0.8,0.4-1.8,0.8-2.7,1.1c0-0.1,0-0.1,0.1-0.2c0.1-0.3,0.2-0.6,0.4-0.9c0.7-1.4,1.2-2.5,2.1-3.5c0.4-0.5,1.1-0.9,1.7-1.3
		c0.3-0.2,0.5-0.4,0.8-0.5c0.8-0.6,1.4-0.9,2.2-0.9c0.6,0,1-0.5,1-1c0-0.6-0.4-1-1-1c0,0,0,0,0,0c-1.4,0-2.3,0.5-3.4,1.2
		C8,13,7.7,13.1,7.5,13.3c-0.7,0.5-1.5,1-2.1,1.7c-1.1,1.2-1.7,2.5-2.4,4c-0.2,0.3-0.3,0.7-0.4,1c-0.1,0.2-0.2,0.4-0.2,0.6
		c-0.1,0.1-0.1,0.3-0.2,0.4c-0.2,0.4-0.5,0.8-0.5,1.3c0,0.3,0.1,0.6,0.3,0.8c0.2,0.2,0.5,0.3,0.9,0.3c0.8-0.1,1.7-0.4,2.6-0.8
		c-1,6.5,0.4,14.3,6.6,17.3c2.2,1.1,4.2,1.6,6.6,2.1c2.1,0.4,4.5,0.4,6.5,1.2c3.5,1.5,7.4,4.2,11.3,4.3c1.6,0,3.8,0,5.2-0.8
		c1.2-0.7,2.4-1.5,3.2-2.6C46.7,41.3,46.8,37.9,46.1,34.6z M20.5,34.7c-0.2,0.2-0.5,0.4-0.8,0.4c-0.2,0-0.4-0.1-0.6-0.2
		c-1.8-1.4-2.1-1.7-1.5-2.5c0.3-0.4,1-0.5,1.4-0.1c0,0,0,0,0,0l1.3,1.1C20.8,33.7,20.9,34.3,20.5,34.7z M26.5,38.7
		c-0.2,0.2-0.5,0.4-0.8,0.4c-0.2,0-0.4-0.1-0.6-0.2c-1.8-1.4-2.1-1.7-1.5-2.5c0.3-0.4,1-0.5,1.4-0.1c0,0,0,0,0,0l1.3,1.1
		C26.8,37.7,26.9,38.3,26.5,38.7z M26.8,27.5c-0.2,0.1-0.4,0.2-0.6,0.2c-0.3,0-0.6-0.1-0.8-0.4l-1-1.4c0,0,0,0,0,0
		c-0.3-0.4-0.2-1.1,0.2-1.4c0.5-0.4,0.8-0.4,1.4,0.2l0,0c0,0.1,0.1,0.1,0.1,0.2c0.2,0.3,0.5,0.7,0.9,1.2
		C27.4,26.5,27.3,27.2,26.8,27.5z M29.7,32.3C29.6,32.3,29.6,32.3,29.7,32.3c-0.3-0.5-0.2-1.1,0.2-1.4c0.5-0.4,0.8-0.4,1.4,0.2l0,0
		c0,0.1,0.1,0.1,0.1,0.2c0.2,0.3,0.5,0.7,0.9,1.2c0.3,0.4,0.2,1.1-0.2,1.4C31.9,34,31.7,34,31.5,34c-0.3,0-0.6-0.1-0.8-0.4
		C30.7,33.6,29.8,32.4,29.7,32.3z M34.2,42.2c-0.2,0.2-0.5,0.4-0.8,0.4c-0.2,0-0.4-0.1-0.6-0.2c-1.8-1.4-2.1-1.7-1.5-2.5
		c0.3-0.4,1-0.5,1.4-0.1c0,0,0,0,0,0l1.3,1.1C34.5,41.1,34.5,41.8,34.2,42.2z M35.8,24.4c-0.1,0-0.1,0-0.2,0c-0.5,0-0.9-0.3-1-0.8
		l-0.3-1.7c-0.1-0.5,0.2-1.1,0.8-1.2c0.7-0.1,0.9,0,1.1,0.8l0,0c0,0.1,0,0.1,0,0.2c0.1,0.4,0.2,0.9,0.3,1.5
		C36.7,23.8,36.4,24.3,35.8,24.4z M38,31.6c-0.1,0-0.1,0-0.2,0c-0.5,0-0.9-0.3-1-0.8L36.5,29c0,0,0,0,0,0c-0.1-0.5,0.2-1.1,0.8-1.2
		c0.7-0.1,0.9,0,1.1,0.8l0,0c0,0.1,0,0.1,0,0.2c0.1,0.4,0.2,0.9,0.3,1.5C38.9,30.9,38.5,31.5,38,31.6z M40.3,40.3
		c-0.1,0-0.1,0-0.2,0c-0.5,0-0.9-0.3-1-0.8c-0.5-2.4-0.5-2.7,0.4-2.9c0.5-0.1,1.1,0.2,1.2,0.8c0,0,0,0,0,0l0.3,1.7
		C41.2,39.6,40.9,40.2,40.3,40.3z"/>
</g>
</svg>
