<?xml version="1.0" encoding="utf-8"?>
<!-- Generator: Adobe Illustrator 18.0.0, SVG Export Plug-In . SVG Version: 6.00 Build 0)  -->
<!DOCTYPE svg PUBLIC "-//W3C//DTD SVG 1.1//EN" "http://www.w3.org/Graphics/SVG/1.1/DTD/svg11.dtd">
<svg version="1.1" id="Layer_1" xmlns="http://www.w3.org/2000/svg" xmlns:xlink="http://www.w3.org/1999/xlink" x="0px" y="0px"
	 viewBox="0 0 48 48" enable-background="new 0 0 48 48" xml:space="preserve">
<g>
	<path fill="none" d="M37.3,21.1c0.2,0.2,0.5,0.3,0.7,0.3c0.3,0,0.5-0.1,0.7-0.3l5.5-5.5c0.4-0.4,0.4-1.1,0-1.5
		c-0.4-0.4-1.1-0.4-1.5,0l-5.5,5.5C36.9,20,36.9,20.7,37.3,21.1z"/>
	<path fill="none" d="M34.7,18.2c0.3,0,0.5-0.1,0.7-0.3l5.5-5.5c0.4-0.4,0.4-1.1,0-1.5c-0.4-0.4-1.1-0.4-1.5,0L34,16.4
		c-0.4,0.4-0.4,1.1,0,1.5C34.2,18.1,34.5,18.2,34.7,18.2z"/>
	<path fill="#0DB89A" d="M23.4,18.7c1.4-1.4,1.4-3.6,0-5L13,3.2L0.3,15.9l10.4,10.4c1.4,1.4,3.6,1.4,5,0l3.1-3.1l1.5-1.5L23.4,18.7z
		"/>
	<path fill="#CFD0D1" d="M26.1,27.5l-5.8-5.8l-1.5,1.5l5.8,5.8l-6,6c-0.7-0.2-1.4,0-2,0.5l-5.8,5.8c-0.8,0.8-0.8,2.1,0,2.9
		c0.4,0.4,0.9,0.6,1.5,0.6c0.5,0,1.1-0.2,1.5-0.6l5.8-5.8c0.5-0.5,0.7-1.3,0.5-2l6-6l6,6c-0.2,0.7,0,1.4,0.5,2l5.8,5.8
		c0.4,0.4,0.9,0.6,1.5,0.6c0.5,0,1.1-0.2,1.5-0.6c0.8-0.8,0.8-2.1,0-2.9l-5.8-5.8c-0.5-0.5-1.3-0.7-2-0.5l-6-6l5.8-5.8l-1.5-1.5
		L26.1,27.5z"/>
	<path fill="#F04B36" d="M44.7,21.6c3.6-3.6,3.9-9,0.8-12.1c-3.1-3.1-8.5-2.7-12.1,0.8c-3.3,3.3-3.9,8.2-1.5,11.3c0,0,0,0-0.1,0
		l1.5,1.5c0,0,0,0,0-0.1C36.6,25.5,41.5,24.9,44.7,21.6z M44.2,14.1c0.4,0.4,0.4,1.1,0,1.5l-5.5,5.5c-0.2,0.2-0.5,0.3-0.7,0.3
		c-0.3,0-0.5-0.1-0.7-0.3c-0.4-0.4-0.4-1.1,0-1.5l5.5-5.5C43.2,13.7,43.8,13.7,44.2,14.1z M34,16.4l5.5-5.5c0.4-0.4,1.1-0.4,1.5,0
		c0.4,0.4,0.4,1.1,0,1.5l-5.5,5.5c-0.2,0.2-0.5,0.3-0.7,0.3s-0.5-0.1-0.7-0.3C33.6,17.5,33.6,16.8,34,16.4z"/>
</g>
</svg>
