<?xml version="1.0" encoding="utf-8"?>
<!-- Generator: Adobe Illustrator 18.0.0, SVG Export Plug-In . SVG Version: 6.00 Build 0)  -->
<!DOCTYPE svg PUBLIC "-//W3C//DTD SVG 1.1//EN" "http://www.w3.org/Graphics/SVG/1.1/DTD/svg11.dtd">
<svg version="1.1" id="Layer_1" xmlns="http://www.w3.org/2000/svg" xmlns:xlink="http://www.w3.org/1999/xlink" x="0px" y="0px"
	 viewBox="0 0 48 48" enable-background="new 0 0 48 48" xml:space="preserve">
<g>
	<path fill="#E77528" d="M39.7,20.9H8.3c0,8.2,6.3,15,14.3,15.7v8.9h-3.4c-0.6,0-1,0.5-1,1c0,0.6,0.5,1,1,1h9.7c0.6,0,1-0.5,1-1
		c0-0.6-0.5-1-1-1h-3.4v-8.9C33.4,35.8,39.7,29.1,39.7,20.9z"/>
	<path fill="#F7A93B" d="M25.9,18.6h11.7c0.8-1.2,1.2-2.7,1.2-4.2c0-4.3-3.5-7.7-7.7-7.7c-3.2,0-6,1.9-7.2,4.8c1.3,1.6,2,3.6,2,5.8
		C26,17.7,26,18.2,25.9,18.6z"/>
	<path fill="#06728D" d="M16.7,8c2.2,0,4.1,0.7,5.7,2c1.5-2.9,4.3-4.9,7.5-5.3c-1.2-2.5-3.7-4.2-6.6-4.2c-4,0-7.3,3.3-7.3,7.3
		c0,0.1,0,0.2,0,0.3C16.3,8,16.5,8,16.7,8z"/>
	<path fill="#4DA0D8" d="M23.8,18.6c0.1-0.4,0.1-0.9,0.1-1.3c0-4-3.3-7.3-7.3-7.3c-4,0-7.3,3.3-7.3,7.3c0,0.4,0,0.9,0.1,1.3H23.8z"
		/>
</g>
</svg>
