<?xml version="1.0" encoding="utf-8"?>
<!-- Generator: Adobe Illustrator 18.0.0, SVG Export Plug-In . SVG Version: 6.00 Build 0)  -->
<!DOCTYPE svg PUBLIC "-//W3C//DTD SVG 1.1//EN" "http://www.w3.org/Graphics/SVG/1.1/DTD/svg11.dtd">
<svg version="1.1" id="Layer_1" xmlns="http://www.w3.org/2000/svg" xmlns:xlink="http://www.w3.org/1999/xlink" x="0px" y="0px"
	 viewBox="0 0 48 48" enable-background="new 0 0 48 48" xml:space="preserve">
<g>
	<path fill="#F04B36" d="M43.9,15.7c0,0-2.2-2.3-4.9-2c-2.2,0.2-1.6,0.6-3,0.7c0.3-5.4-3.3-8.8-3.5-9c-0.4-0.4-1-0.3-1.4,0.1
		c-0.4,0.4-0.3,1,0.1,1.4c0,0,3.1,3,2.9,7.6c-1.6-0.1-0.9-0.4-3.1-0.7c-2.6-0.3-4.9,2-4.9,2c-5.3,6.3,2,14.5,4.3,16.1
		c2,1.4,4.1,0.3,4.6,0.1c0.5,0.3,2.6,1.3,4.6-0.1C41.9,30.1,49.2,21.9,43.9,15.7z"/>
	<path fill="#0DB89A" d="M37.4,10c0,0-0.3-5.3,8.4-3.9C45.8,6.2,43.7,12.9,37.4,10z"/>
	<circle fill="#06728D" cx="17.3" cy="18.9" r="3.5"/>
	<circle fill="#06728D" cx="8.3" cy="26.3" r="3.5"/>
	<circle fill="#06728D" cx="18.3" cy="29.8" r="3.5"/>
	<path fill="#CFD0D1" d="M44.1,28.3c-1.3,2-2.9,3.5-3.9,4.3c-0.8,0.6-1.8,0.9-2.8,0.9c-1,0-1.8-0.3-2.4-0.5
		c-0.5,0.2-1.4,0.5-2.4,0.5c-1,0-1.9-0.3-2.8-0.9c-1.7-1.2-5-4.8-6.2-8.9c-4.1,0-7.9,0.5-11.2,1.4c0.2,0.7,0.3,1.4,0.1,2.1
		c-0.4,2.1-2.2,3.6-4.4,3.6c-0.3,0-0.6,0-0.9-0.1c-1.2-0.2-2.2-0.9-2.8-1.9c-0.1-0.1-0.1-0.2-0.2-0.4c-2,1.4-3.2,3.1-3.2,4.9
		c0,5.3,10.4,9.6,23.2,9.6c12.8,0,23.2-4.3,23.2-9.6C47.5,31.4,46.3,29.7,44.1,28.3z M22.7,30.6c-0.4,2.1-2.2,3.6-4.4,3.6
		c-0.3,0-0.6,0-0.9-0.1c-2.4-0.5-4-2.8-3.5-5.2c0.4-2.1,2.2-3.6,4.4-3.6c0.3,0,0.6,0,0.9,0.1c1.2,0.2,2.2,0.9,2.8,1.9
		C22.7,28.3,22.9,29.4,22.7,30.6z"/>
	<path fill="#0DB89A" d="M10.8,14.7c0.1,0.1,4.3-1.7,3.6-4.3C13.8,8,14,5.6,14,5.6C5.1,10.4,10.8,14.7,10.8,14.7z"/>
	<path fill="#0DB89A" d="M10.1,19.5c-0.3,0-0.6-0.1-0.8-0.4c-3.4-4.3-7.2-2.5-7.4-2.4c-0.5,0.2-1.1,0-1.3-0.4
		C0.4,15.8,0.6,15.3,1,15c0.1,0,5.3-2.7,9.8,2.9c0.3,0.4,0.3,1-0.2,1.4C10.5,19.4,10.3,19.5,10.1,19.5z"/>
</g>
</svg>
