<?xml version="1.0" encoding="utf-8"?>
<!-- Generator: Adobe Illustrator 18.0.0, SVG Export Plug-In . SVG Version: 6.00 Build 0)  -->
<!DOCTYPE svg PUBLIC "-//W3C//DTD SVG 1.1//EN" "http://www.w3.org/Graphics/SVG/1.1/DTD/svg11.dtd">
<svg version="1.1" id="Layer_1" xmlns="http://www.w3.org/2000/svg" xmlns:xlink="http://www.w3.org/1999/xlink" x="0px" y="0px"
	 viewBox="0 0 48 48" enable-background="new 0 0 48 48" xml:space="preserve">
<g>
	<rect x="20" y="0.5" fill="#F04B36" width="7.9" height="5.2"/>
	<path fill="#06728D" d="M27.6,7.5h-7.3c-2.6,0-7,10.3-7,12.9v22.4c0,2.6,2.1,4.7,4.7,4.7h12c2.6,0,4.7-2.1,4.7-4.7V20.4
		C34.7,17.9,30.2,7.5,27.6,7.5z M29.6,36.2c0,1-0.8,1.8-1.8,1.8h-7.7c-1,0-1.8-0.8-1.8-1.8V25.5c0-1,0.8-1.8,1.8-1.8h7.7
		c1,0,1.8,0.8,1.8,1.8V36.2z"/>
</g>
</svg>
