<?xml version="1.0" encoding="utf-8"?>
<!-- Generator: Adobe Illustrator 18.0.0, SVG Export Plug-In . SVG Version: 6.00 Build 0)  -->
<!DOCTYPE svg PUBLIC "-//W3C//DTD SVG 1.1//EN" "http://www.w3.org/Graphics/SVG/1.1/DTD/svg11.dtd">
<svg version="1.1" id="Layer_1" xmlns="http://www.w3.org/2000/svg" xmlns:xlink="http://www.w3.org/1999/xlink" x="0px" y="0px"
	 viewBox="0 0 48 48" enable-background="new 0 0 48 48" xml:space="preserve">
<g>
	<path fill="#CFD0D1" d="M46.5,0.5H4.2c-0.5,0-1,0.4-1,1v17.1c0,0.5,0.4,1,1,1h14.5V25c0,0.5,0.4,1,1,1s1-0.4,1-1v-5.4h13.7v20.2h-4
		v0H4.9v0H4.2c-0.5,0-1,0.4-1,1v5.7c0,0.5,0.4,1,1,1h42.3c0.5,0,1-0.4,1-1v-45C47.5,0.9,47.1,0.5,46.5,0.5z"/>
	<path fill="#F7A93B" d="M17.7,23.2c0-0.5-0.4-1-1-1H1.5c-0.5,0-1,0.4-1,1c0,0.5,0.4,1,1,1h15.3C17.3,24.2,17.7,23.8,17.7,23.2z"/>
	<path fill="#06728D" d="M12.2,27.2v1.7c-0.6-0.5-1.2-0.8-1.9-0.7c-1.5,0.3-2.4,2.3-2,4.7c0.4,2.4,1.9,4,3.4,3.8
		c0.4-0.1,0.7-0.2,1-0.5c0.9,2.1,3,3.6,5.4,3.6h3.3c3.2,0,5.9-2.6,5.9-5.9v-6.7H12.2z M11.5,35.6c-0.8,0.1-2-1-2.3-3
		c-0.3-1.7,0.3-3.4,1.2-3.6c0.6-0.1,1.3,0.4,1.8,1.4v3.4c0,0.4,0,0.8,0.1,1.2C12.1,35.4,11.8,35.6,11.5,35.6z"/>
</g>
</svg>
