<?xml version="1.0" encoding="utf-8"?>
<!-- Generator: Adobe Illustrator 18.0.0, SVG Export Plug-In . SVG Version: 6.00 Build 0)  -->
<!DOCTYPE svg PUBLIC "-//W3C//DTD SVG 1.1//EN" "http://www.w3.org/Graphics/SVG/1.1/DTD/svg11.dtd">
<svg version="1.1" id="Layer_1" xmlns="http://www.w3.org/2000/svg" xmlns:xlink="http://www.w3.org/1999/xlink" x="0px" y="0px"
	 viewBox="0 0 48 48" enable-background="new 0 0 48 48" xml:space="preserve">
<g>
	<path fill="#0DB89A" d="M42.3,24.1C42.2,24,42.1,24,42,23.9l0,0c0,0-7.8-5.8-1.9-8.5l0.1-3.2H29.9c1.2-0.7,1.9-1.9,1.9-3.1
		c0-2.2-2.3-4.1-5.2-4.1c-2.9,0-5.2,1.8-5.2,4.1c0,1.3,0.8,2.4,1.9,3.1H13.2l0.1,3.2c6,2.6-1.9,8.5-1.9,8.5l0,0
		c-0.2,0.1-0.4,0.3-0.5,0.4l-2,0.6c-2-1.2-4.8-2.8-7.1-3.5l-1.3,2.8c0,0,3,3.1,5.6,7.5C6.1,32.2,6,32.8,6,33.4
		c0,7.8,9.3,14.1,20.7,14.1c11.4,0,20.7-6.3,20.7-14.1c0-2.7-1.2-5.3-3.2-7.5L42.3,24.1z"/>
	<path fill="#E77528" d="M11,10.4c0-4.4,3.2-7.9,7.2-7.9h16.9c4,0,7.2,3.5,7.2,7.9v13.7l2,1.8c0-0.1,0-0.1,0-0.2V10.4
		c0-5.5-4.1-9.9-9.2-9.9H18.2c-5.1,0-9.2,4.5-9.2,9.9v14.5l2-0.6V10.4z"/>
</g>
</svg>
