<?xml version="1.0" encoding="utf-8"?>
<!-- Generator: Adobe Illustrator 18.0.0, SVG Export Plug-In . SVG Version: 6.00 Build 0)  -->
<!DOCTYPE svg PUBLIC "-//W3C//DTD SVG 1.1//EN" "http://www.w3.org/Graphics/SVG/1.1/DTD/svg11.dtd">
<svg version="1.1" id="Layer_1" xmlns="http://www.w3.org/2000/svg" xmlns:xlink="http://www.w3.org/1999/xlink" x="0px" y="0px"
	 viewBox="0 0 48 48" enable-background="new 0 0 48 48" xml:space="preserve">
<g>
	<path fill="#F04B36" d="M47.5,12.4c0-0.1,0-0.1,0-0.2c0-0.1,0-0.1,0-0.2c0-0.1-0.1-0.1-0.1-0.1c0-0.1-0.1-0.1-0.1-0.2
		c0,0-0.1-0.1-0.1-0.1c-0.1,0-0.1-0.1-0.2-0.1c0,0,0,0,0,0l-32.8-11c-0.3-0.1-0.6-0.1-0.9,0.1L0.9,8.8C0.6,9.1,0.4,9.6,0.6,10
		c-0.1,0.1-0.1,0.3-0.1,0.4v36.1c0,0.3,0.1,0.5,0.3,0.7c0.2,0.2,0.4,0.3,0.7,0.3c0,0,0.1,0,0.1,0l45-4.5c0.5,0,0.9-0.5,0.9-1
		L47.5,12.4C47.5,12.4,47.5,12.4,47.5,12.4z M10.9,20.4c0-0.8,0.5-1.4,1.2-1.4c0.6,0,1.2,0.6,1.2,1.4c0,0.8-0.5,1.4-1.2,1.4
		C11.4,21.8,10.9,21.2,10.9,20.4z M17.2,35.2c0-1.9,1.3-3.4,2.9-3.4c1.6,0,2.9,1.5,2.9,3.4c0,1.9-1.3,3.4-2.9,3.4
		C18.5,38.6,17.2,37,17.2,35.2z M32,21.9c0-1.4,1-2.5,2.1-2.5c1.2,0,2.1,1.1,2.1,2.5c0,1.4-1,2.5-2.1,2.5C33,24.4,32,23.3,32,21.9z
		 M13.9,2.6l25.7,8.6L3.5,9.5L13.9,2.6z"/>
	<ellipse fill="#0DB89A" cx="14.3" cy="5.9" rx="2.3" ry="1.1"/>
</g>
</svg>
