<?xml version="1.0" encoding="utf-8"?>
<!-- Generator: Adobe Illustrator 18.0.0, SVG Export Plug-In . SVG Version: 6.00 Build 0)  -->
<!DOCTYPE svg PUBLIC "-//W3C//DTD SVG 1.1//EN" "http://www.w3.org/Graphics/SVG/1.1/DTD/svg11.dtd">
<svg version="1.1" id="Layer_1" xmlns="http://www.w3.org/2000/svg" xmlns:xlink="http://www.w3.org/1999/xlink" x="0px" y="0px"
	 viewBox="0 0 48 48" enable-background="new 0 0 48 48" xml:space="preserve">
<g>
	<path fill="#FFD69A" d="M46.8,17.7c-1-1.7-2.4-2.6-4.2-2.9c-2.3-0.4-4.7,0.6-6.2,1.5c-0.1-0.4-0.1-0.9-0.2-1.3H1.2
		c-0.5,2.6-0.7,5.3-0.7,8.2c0,9.7,3,18.3,7.6,23.5h21.1c1.7-1.9,3.1-4.2,4.3-6.9c0,0,0,0,0,0C35.4,38.4,51,24.5,46.8,17.7z
		 M35.3,34.7c1-3.5,1.5-7.4,1.5-11.6c0-1.4-0.1-2.7-0.2-4c1.2-0.8,3.5-2.1,5.4-1.8c1,0.2,1.8,0.7,2.4,1.7
		C46.5,22.3,40,30.2,35.3,34.7z"/>
	<path fill="#0DB89A" d="M24.4,12c0.5,0,1-0.4,1-1V5.8c0-0.5-0.4-1-1-1c-0.5,0-1,0.4-1,1V11C23.5,11.6,23.9,12,24.4,12z"/>
	<path fill="#0DB89A" d="M18.7,12c0.5,0,1-0.4,1-1V2.4c0-0.5-0.4-1-1-1c-0.5,0-1,0.4-1,1V11C17.7,11.6,18.2,12,18.7,12z"/>
	<path fill="#0DB89A" d="M12.9,12c0.5,0,1-0.4,1-1V5.8c0-0.5-0.4-1-1-1c-0.5,0-1,0.4-1,1V11C12,11.6,12.4,12,12.9,12z"/>
</g>
</svg>
