<?xml version="1.0" encoding="utf-8"?>
<!-- Generator: Adobe Illustrator 18.0.0, SVG Export Plug-In . SVG Version: 6.00 Build 0)  -->
<!DOCTYPE svg PUBLIC "-//W3C//DTD SVG 1.1//EN" "http://www.w3.org/Graphics/SVG/1.1/DTD/svg11.dtd">
<svg version="1.1" id="Layer_1" xmlns="http://www.w3.org/2000/svg" xmlns:xlink="http://www.w3.org/1999/xlink" x="0px" y="0px"
	 viewBox="0 0 48 48" enable-background="new 0 0 48 48" xml:space="preserve">
<g>
	<path fill="#06728D" d="M46.5,19.1h-45c-0.5,0-1,0.4-1,1c0,0.5,0.4,1,1,1h15v14c0,2.5,2.1,4.6,4.6,4.6h18.5c2.5,0,4.6-2.1,4.6-4.6
		v-14h2.3c0.5,0,1-0.4,1-1C47.5,19.5,47.1,19.1,46.5,19.1z"/>
	<path fill="#F04B36" d="M35.9,17.1c0.5,0,1-0.4,1-1v-4.6c0-0.5-0.4-1-1-1s-1,0.4-1,1v4.6C34.9,16.7,35.4,17.1,35.9,17.1z"/>
	<path fill="#F04B36" d="M30.4,17.1c0.5,0,1-0.4,1-1V9.3c0-0.5-0.4-1-1-1c-0.5,0-1,0.4-1,1v6.8C29.4,16.7,29.8,17.1,30.4,17.1z"/>
	<path fill="#F04B36" d="M24.8,17.1c0.5,0,1-0.4,1-1v-4.6c0-0.5-0.4-1-1-1c-0.5,0-1,0.4-1,1v4.6C23.8,16.7,24.2,17.1,24.8,17.1z"/>
</g>
</svg>
