<?xml version="1.0" encoding="utf-8"?>
<!-- Generator: Adobe Illustrator 18.0.0, SVG Export Plug-In . SVG Version: 6.00 Build 0)  -->
<!DOCTYPE svg PUBLIC "-//W3C//DTD SVG 1.1//EN" "http://www.w3.org/Graphics/SVG/1.1/DTD/svg11.dtd">
<svg version="1.1" id="Layer_1" xmlns="http://www.w3.org/2000/svg" xmlns:xlink="http://www.w3.org/1999/xlink" x="0px" y="0px"
	 viewBox="0 0 48 48" enable-background="new 0 0 48 48" xml:space="preserve">
<g>
	<path fill="#F7A93B" d="M1.9,13l10.6,2.5c-4.6,0.6-9.5,1.9-9.9,4.2c0,0,0,0,0,0c0,0.1,0,0.2,0,0.3c0,0.2,0.1,0.5,0.1,0.7l3.1,15
		c0.2,4.1,12,5.2,18.2,5.2c6.2,0,18-1.1,18.2-5.2l3.1-15c0.1-0.2,0.1-0.5,0.1-0.7c0-3.6-9.9-4.7-14.7-5.1c-0.6-0.8-1.3-1.5-2.3-1.8
		c-0.1-0.1-0.2-0.1-0.3-0.1l-0.3-0.1c0,0,0,0,0,0c0,0,0,0,0,0l-3.6-0.8c0,0,0,0,0,0c-1.2-0.3-2.4-0.1-3.4,0.6
		c-0.8,0.5-1.4,1.3-1.8,2.1c-0.1,0-0.2,0-0.3,0L2.3,11c-0.5-0.1-1.1,0.2-1.2,0.7C1,12.3,1.4,12.8,1.9,13z M43.4,20
		C43.4,20,43.4,20,43.4,20C43.4,20,43.4,20,43.4,20c-0.2,0.5-1.1,0.9-2.5,1.4c0,0,0,0,0,0c-0.3,0.1-0.5,0.2-0.8,0.3
		c-0.1,0-0.1,0-0.2,0c-0.3,0.1-0.6,0.1-0.8,0.2c-0.1,0-0.2,0-0.3,0.1c-0.3,0.1-0.6,0.1-0.9,0.2c-0.1,0-0.2,0-0.3,0.1
		c-0.3,0.1-0.7,0.1-1.1,0.2c-0.1,0-0.2,0-0.2,0c-0.4,0.1-0.8,0.1-1.2,0.2c-0.1,0-0.1,0-0.2,0c-0.4,0.1-0.9,0.1-1.4,0.2
		c-0.1,0-0.1,0-0.2,0c-0.5,0.1-1,0.1-1.5,0.1c-0.1,0-0.2,0-0.3,0c-0.5,0-1,0.1-1.5,0.1c-0.1,0-0.3,0-0.4,0c-0.5,0-1,0.1-1.5,0.1
		c-0.3,0-0.5,0-0.8,0c-0.4,0-0.8,0-1.2,0c-0.7,0-1.4,0-2.1,0s-1.4,0-2.1,0c-0.4,0-0.8,0-1.2,0c-0.3,0-0.5,0-0.8,0
		c-0.5,0-1-0.1-1.5-0.1c-0.1,0-0.2,0-0.3,0c-0.6,0-1.1-0.1-1.6-0.1c0,0-0.1,0-0.1,0c-0.6,0-1.1-0.1-1.6-0.2c0,0,0,0,0,0
		C8.6,22.1,5,20.9,4.6,20c0,0,0,0,0,0c0,0,0,0,0,0c0.3-0.8,4.8-2.6,14.1-3.1l0,0c0,2.3,1.5,4.4,3.7,4.9l3.7,0.8h0h0l0.3,0.1
		c0.1,0,0.2,0,0.2,0c0,0,0,0,0,0c0.2,0,0.3,0,0.5,0c0.9,0,1.7-0.2,2.4-0.7c1.1-0.7,1.8-1.9,2.1-3.2c0.1-0.6,0.1-1.2,0-1.7
		C39.5,17.7,43.2,19.2,43.4,20z M22,14.4c0.6-0.4,1.2-0.5,1.9-0.3l0,0l0,0l3.7,0.8c1.5,0.3,2.4,1.9,2.1,3.5
		c-0.2,0.8-0.6,1.5-1.2,1.9c-0.6,0.4-1.2,0.5-1.9,0.3l-3.7-0.8c-1.5-0.3-2.4-1.9-2.1-3.5C20.9,15.4,21.3,14.8,22,14.4z"/>
	<path fill="#E77528" d="M20.8,10.6c0.6,0,1-0.4,1-1V3.8c0-0.6-0.4-1-1-1c-0.6,0-1,0.4-1,1v5.8C19.8,10.1,20.2,10.6,20.8,10.6z"/>
	<path fill="#E77528" d="M25.4,10.6c0.6,0,1-0.4,1-1V1.5c0-0.6-0.4-1-1-1c-0.6,0-1,0.4-1,1v8.1C24.4,10.1,24.8,10.6,25.4,10.6z"/>
	<path fill="#E77528" d="M30,10.6c0.6,0,1-0.4,1-1V3.8c0-0.6-0.4-1-1-1s-1,0.4-1,1v5.8C29,10.1,29.4,10.6,30,10.6z"/>
	<path fill="#F04B36" d="M44.8,32.8L44.2,36c-0.6,6.4-15.6,6.9-20.2,6.9c-4.6,0-19.6-0.5-20.2-6.9l-0.7-3.2C1.8,34.1,1,35.6,1,37.2
		c0,5.7,10.3,10.3,23,10.3c12.7,0,23-4.6,23-10.3C47,35.6,46.2,34.1,44.8,32.8z"/>
</g>
</svg>
