<?xml version="1.0" encoding="utf-8"?>
<!-- Generator: Adobe Illustrator 18.0.0, SVG Export Plug-In . SVG Version: 6.00 Build 0)  -->
<!DOCTYPE svg PUBLIC "-//W3C//DTD SVG 1.1//EN" "http://www.w3.org/Graphics/SVG/1.1/DTD/svg11.dtd">
<svg version="1.1" id="Layer_1" xmlns="http://www.w3.org/2000/svg" xmlns:xlink="http://www.w3.org/1999/xlink" x="0px" y="0px"
	 viewBox="0 0 48 48" enable-background="new 0 0 48 48" xml:space="preserve">
<g>
	<path fill="#06728D" d="M46.4,33c-0.4-0.7-1-1.1-1.7-1.2c-0.9-0.2-1.9,0.2-2.5,0.6c0-0.1,0-0.2,0-0.2H31.1C31,33,30.9,34,30.9,34.9
		c0,3.4,1,6.3,2.4,8.1H40c0.4-0.5,0.8-1.2,1.1-1.9c0,0,0.1,0,0.1,0c0.2,0,0.3,0,0.5-0.2C41.8,41,48.2,35.8,46.4,33z M42.1,38.6
		c0.3-1.1,0.4-2.4,0.4-3.6c0-0.3,0-0.5,0-0.7c0.1,0,0.2-0.1,0.3-0.1c0.3-0.2,1.1-0.7,1.7-0.6c0.1,0,0.4,0.1,0.6,0.4
		C45.5,34.6,43.6,37,42.1,38.6z"/>
	<path fill="#F04B36" d="M32.2,19.5c0,0-3.3-2.2-6.6,1.4c-1.9,2.1-2.4,1.6-2.8,1.1c1.5-2.4,2.6-5,2.6-6.8c-0.1-1.9-2-4.4-4.4-6.4
		c0.7,0,1.4-0.2,1.8-0.8c0.7-0.9,0.5-2.2-0.4-2.9c-0.9-0.7-2.2-0.5-2.9,0.4c-0.5,0.6-0.5,1.4-0.3,2c-2.6-1.7-5.5-2.9-7.3-2.7
		c-0.3,0-0.7,0.2-1.1,0.3c0,0-0.1,0.1-0.2,0.1c-0.2-1.1-0.7-2.9-2.1-3.7c-0.6-0.3-1.6-0.6-3,0.1C1.5,3.6,2.2,9.8,2.6,13.6l0.1,0.7
		c-0.2,0.4-0.4,0.8-0.5,1.1c-0.3,0.9-0.4,1.8-0.3,2.5c0,0.1,0,0.1,0,0.2l13.4,10.2c0.1,0,0.1,0,0.2,0c1.1,0,2.4-0.7,3.6-1.8l0,0
		c0,0,3.5,2.1,5.6-0.7c2.1-2.8,5-5.6,6.8-4.6l-0.7-1.1L32.2,19.5z M4.1,12.1c-0.3-3.3-0.4-7.6,2-8.8C7,2.8,7.5,3.1,7.6,3.1
		c0.9,0.5,1.3,2.5,1.4,3.2c0,0.1,0,0.2,0.1,0.3C7.6,8,5.6,10.1,4.1,12.1z"/>
	<path fill="#F7A93B" d="M37.9,31C37.9,31,37.8,31,37.9,31c-0.6,0-1-0.5-1-1c0.3-4.5-3.5-6.5-3.6-6.6c-0.5-0.2-0.7-0.8-0.4-1.3
		c0.2-0.5,0.8-0.7,1.3-0.4c0.2,0.1,5,2.6,4.7,8.4C38.8,30.6,38.4,31,37.9,31z"/>
	<path fill="#4DA0D8" d="M46.2,46.7H1.8c-0.7,0-1.3-0.6-1.3-1.3c0-0.7,0.6-1.3,1.3-1.3h44.3c0.7,0,1.3,0.6,1.3,1.3
		C47.5,46.1,46.9,46.7,46.2,46.7z"/>
</g>
</svg>
