<?xml version="1.0" encoding="utf-8"?>
<!-- Generator: Adobe Illustrator 18.0.0, SVG Export Plug-In . SVG Version: 6.00 Build 0)  -->
<!DOCTYPE svg PUBLIC "-//W3C//DTD SVG 1.1//EN" "http://www.w3.org/Graphics/SVG/1.1/DTD/svg11.dtd">
<svg version="1.1" id="Layer_1" xmlns="http://www.w3.org/2000/svg" xmlns:xlink="http://www.w3.org/1999/xlink" x="0px" y="0px"
	 viewBox="0 0 48 48" enable-background="new 0 0 48 48" xml:space="preserve">
<g>
	<path fill="#F7A93B" d="M46.9,15.8c-0.1-0.3-0.2-0.5-0.4-0.6c-1.4-3-7.3-5.1-14.3-6l1.7-4.3L46,2.4c0.5-0.1,0.9-0.6,0.8-1.2
		c-0.1-0.5-0.6-0.9-1.2-0.8L33,3.1c-0.3,0.1-0.6,0.3-0.7,0.6L30.2,9c-2.1-0.2-4.2-0.3-6.3-0.3C13.6,8.7,2.7,11,1.2,15.4
		c-0.1,0.1-0.1,0.2-0.1,0.3c-0.4,1.9-0.6,3.8-0.6,5.6C0.5,35.8,11,47.5,24,47.5s23.5-11.7,23.5-26.1C47.5,19.5,47.3,17.6,46.9,15.8z
		 M23.9,22.3c-13,0-20.9-3.4-20.9-5.9c0-2.4,8-5.9,20.9-5.9c2,0,3.8,0.1,5.5,0.2l-2.8,7c-0.2,0.5,0,1.1,0.5,1.3
		c0.1,0,0.2,0.1,0.4,0.1c0.4,0,0.8-0.2,0.9-0.6l3-7.5c8.4,1,13.4,3.5,13.4,5.4C44.8,18.9,36.9,22.3,23.9,22.3z"/>
	<path fill="#4DA0D8" d="M31.7,12.9l-2.4,6c-0.3,0.7-1,1.2-1.8,1.2c-0.3,0-0.5,0-0.7-0.1c-1-0.4-1.5-1.5-1.1-2.5l2-4.9
		c-1.1-0.1-2.2-0.1-3.3-0.1c-8.9,0-16.1,1.9-16.1,4.2c0,2.3,7.2,4.2,16.1,4.2c8.9,0,16.1-1.9,16.1-4.2C40.5,15,36.9,13.6,31.7,12.9z
		"/>
</g>
</svg>
