<?xml version="1.0" encoding="utf-8"?>
<!-- Generator: Adobe Illustrator 18.0.0, SVG Export Plug-In . SVG Version: 6.00 Build 0)  -->
<!DOCTYPE svg PUBLIC "-//W3C//DTD SVG 1.1//EN" "http://www.w3.org/Graphics/SVG/1.1/DTD/svg11.dtd">
<svg version="1.1" id="Layer_1" xmlns="http://www.w3.org/2000/svg" xmlns:xlink="http://www.w3.org/1999/xlink" x="0px" y="0px"
	 viewBox="0 0 48 48" enable-background="new 0 0 48 48" xml:space="preserve">
<g>
	<path fill="none" d="M8.8,16.1c0.8,0.2,1.6,0.4,2.4,0.6l0-0.1C10.4,16.4,9.6,16.2,8.8,16.1L8.8,16.1z"/>
	<path fill="none" d="M37.7,16.6c1.4-0.4,2.8-0.8,4.1-1.2l0-0.1C40.5,15.8,39.1,16.2,37.7,16.6L37.7,16.6z"/>
	<ellipse fill="none" cx="24.2" cy="32.1" rx="7.4" ry="7.7"/>
	<path fill="#F04B36" d="M41.8,15.3L41.8,15.3c-1.3,0.5-2.6,1-4.1,1.3l0,0c-4.1,1.1-8.6,1.7-13.4,1.7c-4.6,0-9-0.6-13-1.6l0,0.1
		c-0.8-0.2-1.6-0.4-2.4-0.6L8.8,16c-1.3-0.4-2.6-0.9-3.8-1.4L5,14.7c-1.5-0.6-2.9-1.4-4.1-2.1l7.6,34.8h31.4l7.6-34.8
		c-0.8,0.5-1.8,1.1-2.8,1.5l0-0.1C43.8,14.5,42.8,14.9,41.8,15.3z M24.2,39.8c-4.1,0-7.4-3.5-7.4-7.7c0-4.3,3.3-7.7,7.4-7.7
		c4.1,0,7.4,3.5,7.4,7.7C31.6,36.3,28.3,39.8,24.2,39.8z"/>
	<path fill="#465E6B" d="M3.1,4.8C2.8,4.1,2,3.8,1.3,4.2C0.6,4.5,0.3,5.3,0.6,6L5,14.6c1.2,0.5,2.5,1,3.8,1.4L3.1,4.8z"/>
	<path fill="#4DA0D8" d="M36.9,4c-0.8,0-1.4,0.6-1.5,1.3L34.9,17c0,0.1,0,0.1,0,0.2c-0.7,0.1-1.4,0.2-2.1,0.4c0,0,0-0.1,0-0.1
		L31.1,1.8C31,1,30.3,0.5,29.5,0.6c-0.8,0.1-1.3,0.8-1.2,1.5L30,17.7c0,0.1,0,0.1,0,0.1c-1.5,0.1-3,0.2-4.5,0.3l1.4-10.5
		c0.1-0.8-0.4-1.5-1.2-1.6c-0.8-0.1-1.5,0.4-1.6,1.2l-1.5,10.9c-0.6,0-1.2,0-1.8-0.1l1-16c0.1-0.8-0.5-1.4-1.3-1.5
		c-0.8-0.1-1.4,0.5-1.5,1.3l-1,16c-0.2,0-0.3,0-0.5,0c0-0.2,0-0.4,0-0.6L14.4,5.8c-0.2-0.7-1-1.2-1.7-0.9c-0.7,0.2-1.2,1-0.9,1.7
		l3.2,10.8c-0.2,0-0.3,0-0.5-0.1c0-0.1,0-0.1,0-0.2L10,4C9.7,3.3,9,2.9,8.2,3.1c-0.7,0.2-1.1,1-0.9,1.8l3.9,11.8c4,1,8.4,1.6,13,1.6
		c4.8,0,9.3-0.6,13.4-1.7l0.5-11.1C38.3,4.7,37.7,4,36.9,4z"/>
	<path fill="#E2A14A" d="M44.5,4.1C43.8,4,43.1,4.6,43,5.3l-1.2,10c1-0.4,2-0.8,3-1.2l1-8.5C45.8,4.9,45.3,4.2,44.5,4.1z"/>
</g>
</svg>
