<?xml version="1.0" encoding="utf-8"?>
<!-- Generator: Adobe Illustrator 18.0.0, SVG Export Plug-In . SVG Version: 6.00 Build 0)  -->
<!DOCTYPE svg PUBLIC "-//W3C//DTD SVG 1.1//EN" "http://www.w3.org/Graphics/SVG/1.1/DTD/svg11.dtd">
<svg version="1.1" id="Layer_1" xmlns="http://www.w3.org/2000/svg" xmlns:xlink="http://www.w3.org/1999/xlink" x="0px" y="0px"
	 viewBox="0 0 48 48" enable-background="new 0 0 48 48" xml:space="preserve">
<g>
	<path fill="#294E58" d="M0.5,18.4l2.4,20.7c0,4.6,3.8,8.4,8.4,8.4h25.3c4.6,0,8.4-3.8,8.4-8.4l2.4-20.7H0.5z"/>
	<path fill="#F7A93B" d="M23.6,16.3h2.2c-1.3-4.3-5.4-7.5-10.1-7.5s-8.8,3.2-10.1,7.5h2.2c1.2-3.2,4.3-5.4,7.9-5.4
		S22.3,13.1,23.6,16.3z"/>
	<path fill="#F7A93B" d="M10.3,16.3H13c0.7-0.6,1.6-1,2.6-1c1,0,1.9,0.4,2.6,1h2.6c-1.1-1.8-3-3-5.3-3
		C13.4,13.2,11.4,14.4,10.3,16.3z"/>
	<path fill="#F7A93B" d="M15.6,6.7c5.9,0,10.9,4.1,12.3,9.6H30c-0.3-1.4-0.8-2.8-1.5-4c0.8-0.7,1.7-1.1,2.8-1.1
		c2.3,0,4.1,1.8,4.1,4.1c0,0.3,0,0.7-0.1,1h2.1c0.1-0.3,0.1-0.7,0.1-1c0-3.4-2.8-6.2-6.1-6.2c-1.5,0-2.8,0.5-3.9,1.4
		c-0.5-0.6-1-1.2-1.6-1.8c1.5-1.3,3.5-2,5.5-2c4.7,0,8.5,3.8,8.5,8.6c0,0.3,0,0.7-0.1,1h2.1c0-0.3,0.1-0.7,0.1-1
		c0-5.8-4.7-10.6-10.6-10.6c-2.6,0-5.2,1-7.1,2.8C23.6,7,23,6.6,22.3,6.3c2.4-2.4,5.6-3.7,9-3.7c7,0,12.7,5.7,12.7,12.7
		c0,0.3,0,0.7,0,1h2c0-0.3,0-0.7,0-1c0-8.1-6.6-14.7-14.7-14.7c-4.2,0-8.2,1.8-11,4.9c-1.5-0.5-3.1-0.8-4.7-0.8
		c-7,0-12.9,5-14.4,11.6h2.1C4.7,10.8,9.7,6.7,15.6,6.7z"/>
</g>
</svg>
