<?xml version="1.0" encoding="utf-8"?>
<!-- Generator: Adobe Illustrator 18.0.0, SVG Export Plug-In . SVG Version: 6.00 Build 0)  -->
<!DOCTYPE svg PUBLIC "-//W3C//DTD SVG 1.1//EN" "http://www.w3.org/Graphics/SVG/1.1/DTD/svg11.dtd">
<svg version="1.1" id="Layer_1" xmlns="http://www.w3.org/2000/svg" xmlns:xlink="http://www.w3.org/1999/xlink" x="0px" y="0px"
	 viewBox="0 0 48 48" enable-background="new 0 0 48 48" xml:space="preserve">
<g>
	<path fill="#294E58" d="M45.2,32.8c-1.1-1.6-3.3-2.2-5.1-1.3c-0.1,0-0.2,0-0.2,0.1l-2.7,1.8c0,0,0,0,0,0c-0.9,0.6-1.5,1.5-1.7,2.5
		c-0.1,0.7-0.1,1.4,0.2,2.1L24,45.8c-0.4,0.3-0.5,0.8-0.3,1.3c0.2,0.3,0.5,0.4,0.8,0.4c0.2,0,0.3-0.1,0.5-0.2l11.7-7.8
		c0.7,0.7,1.7,1,2.7,1c0.8,0,1.5-0.2,2.2-0.7l2.6-1.7l0,0c0,0,0,0,0,0l0.2-0.1c0.1,0,0.1-0.1,0.2-0.2c0.7-0.6,1.1-1.3,1.3-2.2
		C46,34.7,45.8,33.7,45.2,32.8z"/>
	<path fill="#4DA0D8" d="M41.3,20c0-1.1-0.2-2.3-0.5-3.4c-0.1-0.3-0.3-0.5-0.5-0.6c-2.2-3-12.8-3.8-18.7-3.8c-6.1,0-17.1,0.9-18.8,4
		c-0.1,0.1-0.2,0.2-0.2,0.3c-0.3,1.1-0.5,2.3-0.5,3.4c0,8.6,8.8,15.6,19.6,15.6S41.3,28.6,41.3,20z M21.6,14c10.9,0,17.1,2,17.3,3.1
		c-0.1,0.9-5.5,3.1-17.3,3.1C9.9,20.2,4.4,18,4.4,17.1c0,0,0,0,0-0.1C4.8,16,10.9,14,21.6,14z"/>
	<path fill="#F04B36" d="M26.3,9.7c0.5,0,0.9-0.4,0.9-0.9V4.3c0-0.5-0.4-0.9-0.9-0.9c-0.5,0-0.9,0.4-0.9,0.9v4.5
		C25.4,9.3,25.8,9.7,26.3,9.7z"/>
	<path fill="#F04B36" d="M21.6,9.7c0.5,0,0.9-0.4,0.9-0.9V1.4c0-0.5-0.4-0.9-0.9-0.9c-0.5,0-0.9,0.4-0.9,0.9v7.4
		C20.7,9.3,21.1,9.7,21.6,9.7z"/>
	<path fill="#F04B36" d="M16.9,9.7c0.5,0,0.9-0.4,0.9-0.9V4.3c0-0.5-0.4-0.9-0.9-0.9c-0.5,0-0.9,0.4-0.9,0.9v4.5
		C16,9.3,16.4,9.7,16.9,9.7z"/>
</g>
</svg>
