<?xml version="1.0" encoding="utf-8"?>
<!-- Generator: Adobe Illustrator 18.0.0, SVG Export Plug-In . SVG Version: 6.00 Build 0)  -->
<!DOCTYPE svg PUBLIC "-//W3C//DTD SVG 1.1//EN" "http://www.w3.org/Graphics/SVG/1.1/DTD/svg11.dtd">
<svg version="1.1" id="Layer_1" xmlns="http://www.w3.org/2000/svg" xmlns:xlink="http://www.w3.org/1999/xlink" x="0px" y="0px"
	 viewBox="0 0 48 48" enable-background="new 0 0 48 48" xml:space="preserve">
<g>
	<path fill="none" d="M21,11h-2.8c-0.6,1.5-1.1,3-1.5,4.3c0.1,0,0.3,0.1,0.4,0.1c0.1,0,0.2,0,0.3,0.1c0.2,0,0.3,0,0.5,0.1
		c0.1,0,0.2,0,0.2,0c0.2,0,0.5,0,0.7,0c0,0,0,0,0,0c0.2,0,0.4,0,0.6,0l0.5,0c1,0,1.9,0,2.9-0.2L21,14V11z"/>
	<polygon fill="none" points="25.3,12.9 23.1,11 24.8,14.9 	"/>
	<polygon fill="none" points="21,14 22.9,15.4 21,11 	"/>
	<path fill="none" d="M24.8,14.9c0.3-0.1,0.5-0.2,0.8-0.3c1.2-0.4,2.4-0.9,3.7-1.1c0.8-0.1,1.6-0.1,2.6,0c0.1,0,0.2,0,0.3,0
		c0,0,0.1,0,0.1,0c-0.3-0.8-0.6-1.7-0.9-2.5h-8.3l2.2,1.9L24.8,14.9z"/>
	<path fill="#F7A93B" d="M22.9,15.4l1.9-0.6L23.1,11l-0.8-2l-3.5-8c-0.2-0.4-0.7-0.7-1.1-0.6l-4.4,1.1c-0.5,0.1-0.8,0.7-0.7,1.2
		c0.1,0.5,0.7,0.8,1.2,0.7l3.6-0.9l2.8,6.4l0.8,2L22.9,15.4z"/>
	<path fill="#0DB89A" d="M32.6,45.7c0,0-4.6-3.4-5.2-7.3c-0.2-1.5,0.2-2.9,1.2-4.2c0.5-0.6,0.9-1.2,1.4-1.8
		c3.6-4.5,7.1-8.8,4.7-17.7c-0.4-1.6-1-3.3-1.8-5.1c-0.2-0.4-0.5-0.6-0.9-0.6h-9.8l0.8,2h8.3c0.4,0.9,0.7,1.7,0.9,2.5
		c0,0-0.1,0-0.1,0c-0.1,0-0.2,0-0.3,0c-1-0.1-1.8-0.1-2.6,0c-1.3,0.2-2.5,0.6-3.7,1.1c-0.3,0.1-0.5,0.2-0.8,0.3l-1.9,0.6
		c-1,0.2-1.9,0.2-2.9,0.2l-0.5,0c-0.2,0-0.4,0-0.6,0c0,0,0,0,0,0c-0.2,0-0.4,0-0.7,0c-0.1,0-0.2,0-0.2,0c-0.2,0-0.3,0-0.5-0.1
		c-0.1,0-0.2,0-0.3-0.1c-0.1,0-0.3-0.1-0.4-0.1c0.4-1.4,0.8-2.8,1.5-4.3H21l-0.8-2h-2.6c-0.4,0-0.7,0.2-0.9,0.6
		c-0.9,2.2-1.6,4.2-2,6C12.7,23.9,16,28,19.5,32.4c0.5,0.6,0.9,1.2,1.4,1.8c1,1.3,1.4,2.7,1.2,4.2c-0.6,3.9-5.1,7.3-5.2,7.3
		c-0.3,0.2-0.5,0.7-0.4,1.1c0.1,0.4,0.5,0.7,0.9,0.7H32c0.4,0,0.8-0.3,0.9-0.7C33.1,46.4,32.9,46,32.6,45.7z"/>
</g>
</svg>
