<?xml version="1.0" encoding="utf-8"?>
<!-- Generator: Adobe Illustrator 18.0.0, SVG Export Plug-In . SVG Version: 6.00 Build 0)  -->
<!DOCTYPE svg PUBLIC "-//W3C//DTD SVG 1.1//EN" "http://www.w3.org/Graphics/SVG/1.1/DTD/svg11.dtd">
<svg version="1.1" id="Layer_1" xmlns="http://www.w3.org/2000/svg" xmlns:xlink="http://www.w3.org/1999/xlink" x="0px" y="0px"
	 viewBox="0 0 48 48" enable-background="new 0 0 48 48" xml:space="preserve">
<g>
	<path fill="#F04B36" d="M30.1,14.9c5.3,0,9.7-3.3,9.7-7.2c0-4-4.4-7.2-9.7-7.2H18c-5.3,0-9.7,3.3-9.7,7.2c0,4,4.4,7.2,9.7,7.2h4.9
		h2.3H30.1z"/>
	<path fill="#E77528" d="M25.4,22v-6.3c0-0.3-0.1-0.5-0.2-0.7h-2.3c-0.1,0.2-0.2,0.5-0.2,0.7V23c0,0.6,0.4,1.1,0.9,1.3
		c3.3,1.1,6.5,2.9,6.8,3.6c0,0.9-3.3,2.1-5.1,2.8c-3.5,1.3-6.7,2.4-7,5.1c-0.3,2.2,3,4,6.1,5.2v5.3c0,0.8,0.6,1.4,1.4,1.4
		c0.8,0,1.4-0.6,1.4-1.4v-6.2c0-0.6-0.4-1.1-0.9-1.3c-2.3-0.8-4.7-2.1-5.2-2.7c0.4-0.9,3.4-2,5.2-2.7c3.4-1.2,7-2.5,6.9-5.3
		C33.1,25.3,28.6,23.2,25.4,22z"/>
</g>
</svg>
