<?xml version="1.0" encoding="utf-8"?>
<!-- Generator: Adobe Illustrator 18.0.0, SVG Export Plug-In . SVG Version: 6.00 Build 0)  -->
<!DOCTYPE svg PUBLIC "-//W3C//DTD SVG 1.1//EN" "http://www.w3.org/Graphics/SVG/1.1/DTD/svg11.dtd">
<svg version="1.1" id="Layer_1" xmlns="http://www.w3.org/2000/svg" xmlns:xlink="http://www.w3.org/1999/xlink" x="0px" y="0px"
	 viewBox="0 0 48 48" enable-background="new 0 0 48 48" xml:space="preserve">
<g>
	<path fill="#0DB89A" d="M38.2,44.8H5.9c-0.7,0-1.3,0.6-1.3,1.3c0,0.7,0.6,1.3,1.3,1.3h32.4c0.7,0,1.3-0.6,1.3-1.3
		C39.6,45.4,39,44.8,38.2,44.8z"/>
	<path fill="#E77528" d="M29.7,12c0.5,0,1-0.4,1-1V6.2c0-0.5-0.4-1-1-1c-0.5,0-1,0.4-1,1V11C28.7,11.5,29.1,12,29.7,12z"/>
	<path fill="#E77528" d="M22,12c0.5,0,1-0.4,1-1V1.5c0-0.5-0.4-1-1-1c-0.5,0-1,0.4-1,1V11C21.1,11.5,21.5,12,22,12z"/>
	<path fill="#E77528" d="M14.4,12c0.5,0,1-0.4,1-1V6.2c0-0.5-0.4-1-1-1c-0.5,0-1,0.4-1,1V11C13.5,11.5,13.9,12,14.4,12z"/>
	<path fill="#F7A93B" d="M38.7,17.4h-3.9c-0.1,0-0.1,0-0.2,0l0.2-2.2H9.3L11.9,41h20.4l0.9-8.7c0,0,0,0,0,0h4.2
		c2.6,0,4.8-1.9,4.8-4.2l1.3-6.3c0-0.1,0-0.1,0-0.2C43.5,19.3,41.3,17.4,38.7,17.4z M40.3,27.9c0,0.1,0,0.1,0,0.2
		c0,1.3-1.3,2.3-2.9,2.3h-4.1l1.1-11.2c0.1,0.1,0.3,0.1,0.4,0.1h3.9c1.5,0,2.8,1,2.9,2.2L40.3,27.9z"/>
</g>
</svg>
