<?xml version="1.0" encoding="utf-8"?>
<!-- Generator: Adobe Illustrator 18.0.0, SVG Export Plug-In . SVG Version: 6.00 Build 0)  -->
<!DOCTYPE svg PUBLIC "-//W3C//DTD SVG 1.1//EN" "http://www.w3.org/Graphics/SVG/1.1/DTD/svg11.dtd">
<svg version="1.1" id="Layer_1" xmlns="http://www.w3.org/2000/svg" xmlns:xlink="http://www.w3.org/1999/xlink" x="0px" y="0px"
	 viewBox="0 0 48 48" enable-background="new 0 0 48 48" xml:space="preserve">
<g>
	<path fill="#E77528" d="M29.2,13.8C29.2,13.8,29.2,13.8,29.2,13.8l5,1.1c0,0,0,0,0,0c0,0,0,0,0,0l0.4,0.1c0.1,0,0.1,0,0.2,0
		c0,0,0,0,0,0c0.2,0,0.4,0,0.7,0c1.1,0,2.2-0.3,3.2-1c1.3-0.9,2.3-2.3,2.6-3.9C41.8,7.1,39.9,4,37,3.1c0,0-0.1,0-0.1-0.1L36.5,3
		c0,0,0,0,0,0c0,0,0,0,0,0l-5-1.1h0c-1.6-0.3-3.1-0.1-4.5,0.8c-1.1,0.7-1.8,1.7-2.3,2.9L1.7,0.5C1.2,0.4,0.6,0.7,0.5,1.3
		C0.4,1.8,0.7,2.4,1.3,2.5l23.1,5.1C24.3,10.5,26.3,13.1,29.2,13.8z"/>
	<path fill="#4DA0D8" d="M47.5,20.1c0-0.1,0-0.2,0-0.3H3.3c0,0.1,0,0.2,0,0.3c0,8.3,4.5,15.5,11.1,19.4h0c-1.1,0.8-1.7,1.7-1.7,2.7
		c0,3,5.7,5.4,12.7,5.4c7,0,12.7-2.4,12.7-5.4c0-1-0.6-1.9-1.7-2.7C43,35.6,47.5,28.3,47.5,20.1z"/>
</g>
</svg>
