<?xml version="1.0" encoding="utf-8"?>
<!-- Generator: Adobe Illustrator 18.0.0, SVG Export Plug-In . SVG Version: 6.00 Build 0)  -->
<!DOCTYPE svg PUBLIC "-//W3C//DTD SVG 1.1//EN" "http://www.w3.org/Graphics/SVG/1.1/DTD/svg11.dtd">
<svg version="1.1" id="Layer_1" xmlns="http://www.w3.org/2000/svg" xmlns:xlink="http://www.w3.org/1999/xlink" x="0px" y="0px"
	 viewBox="0 0 48 48" enable-background="new 0 0 48 48" xml:space="preserve">
<g>
	<path fill="#0DB89A" d="M46.8,10.5c-2.8-1-5.6-0.7-8,0.1l3.4-3.4c0.4-0.4,0.4-1,0-1.4c-0.4-0.4-1-0.4-1.4,0l-4.1,4.1
		c1-4,0.8-8.1,0.8-8.4c0-0.6-0.5-0.9-1-1c-0.6,0-1,0.5-1,1c0,0.1,0.3,8.2-2.6,12c-0.1,0.1-0.1,0.2-0.2,0.3l1.3,1.3
		c0.1,0,0.2-0.1,0.3-0.1c0.1,0,6.4-4.6,11.8-2.6c0.5,0.2,1.1-0.1,1.3-0.6C47.6,11.2,47.4,10.7,46.8,10.5z"/>
	<path fill="#F04B36" d="M19.5,13.6c-1.1,1.1-3.5,4.1-6.3,7.9l4.4,4.4c0.5,0.5,0.5,1.4,0,1.9c-0.3,0.3-0.6,0.4-1,0.4s-0.7-0.1-1-0.4
		l-4.1-4.1C5.4,32.7-1.6,44.3,1.1,46.9C3,48.8,9.3,45.8,16,41.8l-3.1-3.1c-0.5-0.5-0.5-1.4,0-1.9c0.5-0.5,1.4-0.5,1.9,0l3.4,3.4
		c0.1,0.1,0.1,0.1,0.1,0.2c4.9-3.1,9.7-6.6,12.8-9.1l-5.7-5.7c-0.5-0.5-0.5-1.4,0-1.9c0.5-0.5,1.4-0.5,1.9,0l5.7,5.7
		c0.1,0.1,0.1,0.1,0.1,0.2c0.5-0.4,0.8-0.7,1.1-1c3.5-3.5,3.3-9.3-0.3-13.4l-1.3-1.3C28.8,10.3,23,10.2,19.5,13.6z"/>
</g>
</svg>
