<?xml version="1.0" encoding="utf-8"?>
<!-- Generator: Adobe Illustrator 18.0.0, SVG Export Plug-In . SVG Version: 6.00 Build 0)  -->
<!DOCTYPE svg PUBLIC "-//W3C//DTD SVG 1.1//EN" "http://www.w3.org/Graphics/SVG/1.1/DTD/svg11.dtd">
<svg version="1.1" id="Layer_1" xmlns="http://www.w3.org/2000/svg" xmlns:xlink="http://www.w3.org/1999/xlink" x="0px" y="0px"
	 viewBox="0 0 48 48" enable-background="new 0 0 48 48" xml:space="preserve">
<g>
	<path fill="#F7A93B" d="M39.8,12c0-1.3-0.4-2.5-1.2-3.6c-2.1-3-6.2-3.6-9.1-1.5c-2.7,1.9-3.5,5.6-2,8.5L11.9,26.4
		C9.7,24,6,23.6,3.3,25.5c-3,2.1-3.6,6.2-1.5,9.1c1.8,2.5,5,3.4,7.7,2.3c0.1,1,0.4,2,1.1,2.8c1.9,2.7,5.6,3.3,8.3,1.4
		c2.5-1.8,3.2-5.2,1.7-7.8l16.6-11.8c2,2.3,5.4,2.7,7.9,0.9c2.7-1.9,3.3-5.6,1.4-8.3C44.9,12.1,42.2,11.3,39.8,12z"/>
</g>
</svg>
