<?xml version="1.0" encoding="utf-8"?>
<!-- Generator: Adobe Illustrator 18.0.0, SVG Export Plug-In . SVG Version: 6.00 Build 0)  -->
<!DOCTYPE svg PUBLIC "-//W3C//DTD SVG 1.1//EN" "http://www.w3.org/Graphics/SVG/1.1/DTD/svg11.dtd">
<svg version="1.1" id="Layer_1" xmlns="http://www.w3.org/2000/svg" xmlns:xlink="http://www.w3.org/1999/xlink" x="0px" y="0px"
	 viewBox="0 0 48 48" enable-background="new 0 0 48 48" xml:space="preserve">
<g>
	<circle fill="#0DB89A" cx="24" cy="11.4" r="1.2"/>
	<circle fill="#0DB89A" cx="20.5" cy="17.9" r="1.2"/>
	<circle fill="#0DB89A" cx="27" cy="20.6" r="1.2"/>
	<circle fill="#0DB89A" cx="23.4" cy="25.9" r="1.2"/>
	<path fill="#F04B36" d="M36.2,15.5L35,18l-0.9,1.7l-10,19.6c0,0-0.1,0-0.1,0c0,0-0.1,0-0.1,0l-10-19.6L13,18l-1.3-2.5
		C4.3,39.8,18.5,40.7,23,40.4v6.1c0,0.5,0.4,1,1,1c0.5,0,1-0.4,1-1v-6.1C29.5,40.7,43.7,39.8,36.2,15.5z"/>
	<path fill="#4DA0D8" d="M14.1,19.6c0.5-0.4,1-0.7,1.6-0.9c0.3-0.1,0.6-0.4,0.7-0.7c0.1-0.3,0-0.7-0.2-0.9c-0.8-0.9-1.3-2-1.3-3.3
		c0-2.2,1.6-4.2,3.8-4.6c0.3-0.1,0.5-0.2,0.6-0.4c0.1-0.2,0.2-0.5,0.1-0.7c-0.1-0.3-0.1-0.6-0.1-0.9c0-2.6,2.1-4.7,4.7-4.7
		c2.6,0,4.7,2.1,4.7,4.7c0,0.3,0,0.6-0.1,0.9c-0.1,0.3,0,0.5,0.1,0.7c0.1,0.2,0.4,0.4,0.6,0.4c2.2,0.4,3.8,2.4,3.8,4.6
		c0,1.2-0.5,2.4-1.3,3.3c-0.2,0.2-0.3,0.6-0.2,0.9c0.1,0.3,0.3,0.6,0.7,0.7c0.6,0.2,1.2,0.5,1.6,0.9c0.1,0,0.1,0.1,0.2,0.1L35,18
		c-0.3-0.2-0.6-0.4-0.9-0.6c0.7-1,1-2.3,1-3.5c0-2.9-1.8-5.4-4.5-6.3c0-0.1,0-0.3,0-0.4c0-3.7-3-6.7-6.7-6.7c-3.7,0-6.7,3-6.7,6.7
		c0,0.1,0,0.3,0,0.4c-2.6,0.9-4.5,3.4-4.5,6.3c0,1.3,0.4,2.5,1,3.5c-0.3,0.2-0.6,0.4-0.9,0.6l0.9,1.7C14,19.7,14,19.7,14.1,19.6z"/>
</g>
</svg>
