<?xml version="1.0" encoding="utf-8"?>
<!-- Generator: Adobe Illustrator 16.0.0, SVG Export Plug-In . SVG Version: 6.00 Build 0)  -->
<!DOCTYPE svg PUBLIC "-//W3C//DTD SVG 1.1//EN" "http://www.w3.org/Graphics/SVG/1.1/DTD/svg11.dtd">
<svg version="1.1" id="Layer_1" xmlns="http://www.w3.org/2000/svg" xmlns:xlink="http://www.w3.org/1999/xlink" x="0px" y="0px"
	 width="48px" height="48px" viewBox="0 0 48 48" enable-background="new 0 0 48 48" xml:space="preserve">
<g>
	<path fill="#CFD0D1" d="M19.787,3.833c-0.27,0-0.539-0.108-0.736-0.322c-0.141-0.152-0.276-0.313-0.412-0.472
		c-0.486-0.573-0.807-0.928-1.258-1.005c-0.5-0.084-0.546-0.044-1.006,0.354c-0.153,0.131-0.318,0.273-0.513,0.42
		c-1.017,0.766-2.27,1.062-3.833,0.907c-1.036-0.104-1.613-0.537-2.122-0.919c-0.26-0.194-0.504-0.377-0.824-0.523
		C8.581,2.042,8.36,1.449,8.589,0.947c0.229-0.503,0.822-0.725,1.326-0.494c0.518,0.236,0.892,0.518,1.192,0.744
		c0.413,0.31,0.64,0.48,1.121,0.528c1.069,0.109,1.817-0.052,2.429-0.513c0.156-0.118,0.289-0.233,0.411-0.338
		c0.574-0.495,1.226-1.055,2.649-0.812c1.191,0.204,1.888,1.024,2.446,1.684c0.117,0.138,0.234,0.277,0.357,0.409
		c0.374,0.405,0.349,1.038-0.057,1.413C20.272,3.745,20.029,3.833,19.787,3.833z"/>
	<path fill="#4CA0D8" d="M42.576,44.147c-0.857,0.09-1.814-0.237-2.83-0.589c-0.803-0.278-1.631-0.565-2.482-0.663
		c-2.074-0.238-4.314-0.07-5.992,0.445c-0.984,0.304-1.895,0.816-2.775,1.313c-1.086,0.611-2.109,1.189-3.139,1.314
		c-1.159,0.141-2.598-0.21-3.865-0.518l-0.254-0.063c-0.432-0.104-0.939-0.273-1.479-0.453c-1.218-0.405-2.59-0.861-3.795-0.791
		c-0.552,0.034-0.971,0.508-0.937,1.06c0.033,0.552,0.511,0.98,1.06,0.937c0.813-0.048,1.994,0.344,3.039,0.692
		c0.58,0.193,1.129,0.376,1.643,0.5l0.25,0.061c1.13,0.274,2.49,0.604,3.786,0.604c0.268,0,0.532-0.014,0.792-0.045
		c1.424-0.172,2.672-0.876,3.881-1.557c0.824-0.464,1.604-0.903,2.381-1.143c1.406-0.434,3.389-0.576,5.176-0.37
		c0.635,0.073,1.326,0.312,2.057,0.565c1.18,0.408,2.402,0.832,3.705,0.688c0.549-0.061,0.943-0.556,0.883-1.104
		C43.619,44.481,43.121,44.083,42.576,44.147z"/>
	<path fill="#4CA0D8" d="M44.602,37.007c-1.633-0.051-2.961,0.654-4.252,1.341c-1.107,0.591-2.152,1.147-3.287,1.147
		c-0.002,0-0.006,0-0.008,0c-0.334,0-0.67-0.003-1.002-0.014c-0.941-0.029-1.861-0.137-2.633-0.547
		c-0.299-0.159-0.553-0.328-0.795-0.486c-0.66-0.434-1.344-0.884-2.461-0.984c-1.686-0.152-3.201,0.541-4.336,1.161
		c-0.389,0.212-0.769,0.452-1.147,0.694c-0.937,0.596-1.822,1.159-2.812,1.201c-1.156,0.047-2.315-0.573-3.302-1.188
		c-3.578-2.229-7.037-2.771-10.002-1.575c-1.295,0.522-2.067,1.264-2.817,2.124c-0.164,0.189-0.327,0.381-0.495,0.581l-0.177,0.21
		c-0.283,0.336-0.583,0.815-0.899,1.322c-0.365,0.584-1.123,1.797-1.487,1.953c-0.526,0.154-0.83,0.705-0.679,1.234
		c0.125,0.438,0.525,0.725,0.961,0.725c0.09,0,0.184-0.012,0.275-0.039c1.056-0.301,1.854-1.578,2.625-2.813
		c0.279-0.445,0.542-0.866,0.733-1.094l0.181-0.214c0.381-0.454,0.705-0.831,1.046-1.158c0.421-0.403,0.866-0.729,1.481-0.978
		c2.181-0.879,4.677-0.541,7.426,0.978c0.256,0.142,0.511,0.278,0.771,0.44c1.246,0.776,2.751,1.553,4.443,1.488
		c1.525-0.064,2.733-0.834,3.801-1.512c0.227-0.145,0.457-0.279,0.686-0.417c0.115-0.069,0.229-0.146,0.348-0.21
		c0.941-0.516,2.064-1.029,3.197-0.925c0.617,0.056,0.986,0.298,1.543,0.664c0.234,0.153,0.486,0.313,0.764,0.471
		c0.063,0.036,0.121,0.073,0.189,0.11c1.482,0.789,3.123,0.792,4.57,0.795c1.623,0.022,3.02-0.732,4.24-1.383
		c1.105-0.588,2.141-1.154,3.24-1.105c0.561,0.02,1.016-0.413,1.035-0.965S45.154,37.026,44.602,37.007z"/>
	<path fill="#274D57" d="M1.169,32.776c0.835,2.17,2.24,4.234,4.579,5.531c0.75-0.861,1.522-1.602,2.817-2.125
		c2.965-1.195,6.424-0.652,10.002,1.575c0.986,0.614,2.146,1.235,3.302,1.188c0.989-0.043,1.875-0.605,2.812-1.202
		c0.379-0.241,0.759-0.481,1.147-0.694c1.135-0.621,2.65-1.313,4.336-1.162c1.117,0.102,1.801,0.551,2.461,0.986
		c0.242,0.158,0.496,0.326,0.795,0.486c0.771,0.409,1.691,0.517,2.633,0.547c1.217-1.061,3.35-2.967,5.502-5.131H1.169z"/>
	<path fill="#274D57" d="M47.838,23.282c-0.184-0.284-0.5-0.455-0.838-0.455L1.045,22.879C0.56,22.902,0.156,23.271,0.1,23.758
		c-0.014,0.116-0.092,0.844-0.099,1.924c-0.002,0.271,0.002,0.563,0.012,0.876c0.044,1.424,0.228,3.229,0.761,5.046h41.926
		c1.602-1.681,3.115-3.444,4.178-5.046c0.199-0.298,0.381-0.591,0.545-0.876c0.188-0.325,0.357-1.145,0.492-1.449
		C48.051,23.924,48.023,23.566,47.838,23.282z"/>
	<path fill="#E8B945" d="M33.063,19.254h-4.975v-7.145c0-0.552-0.447-1-1-1h-4.42V5.651c0-0.859-0.447-1.557-1-1.557
		s-1,0.697-1,1.557v5.458H5.518c-0.552,0-1,0.448-1,1v9.893h29.545v-1.748C34.063,19.702,33.615,19.254,33.063,19.254z
		 M10.899,18.546H6.785v-5.5h4.114V18.546z M18.432,18.546h-4.113v-5.5h4.113V18.546z M25.963,18.546h-4.112v-5.5h4.112V18.546z"/>
</g>
</svg>
