<?xml version="1.0" encoding="utf-8"?>
<!-- Generator: Adobe Illustrator 16.0.0, SVG Export Plug-In . SVG Version: 6.00 Build 0)  -->
<!DOCTYPE svg PUBLIC "-//W3C//DTD SVG 1.1//EN" "http://www.w3.org/Graphics/SVG/1.1/DTD/svg11.dtd">
<svg version="1.1" id="Layer_1" xmlns="http://www.w3.org/2000/svg" xmlns:xlink="http://www.w3.org/1999/xlink" x="0px" y="0px"
	 width="48px" height="48px" viewBox="0 0 48 48" enable-background="new 0 0 48 48" xml:space="preserve">
<g>
	<path fill="#FFFFFF" d="M16.812,12.368c-7.857,0.141-14.145,3.544-14.145,7.724s6.287,7.583,14.145,7.724V12.368z"/>
	<path fill="#274D57" d="M5.83,37.052c-0.036-0.279-0.052-0.518-0.052-0.748c0-0.061,0.003-0.119,0.008-0.18
		c0.016-0.391,0.055-0.719,0.116-1.021c0.567-2.711,2.986-4.676,5.753-4.676c2.183,0,4.145,1.227,5.156,3.072V23.131H3.632
		c1.154-4.316,4.316-10.296,12.988-10.296c0.113,0,0.202-0.024,0.291-0.049c0.23-0.047,0.395-0.25,0.395-0.484v-1.902
		c0-0.222-0.211-0.434-0.425-0.492c-0.059-0.017-0.147-0.041-0.261-0.041C0.416,9.866,0.003,27.255,0,27.437v9.627
		c0,0.273,0.222,0.494,0.495,0.494h1.263h3.995h0.166C5.883,37.392,5.853,37.224,5.83,37.052z"/>
	<path fill="#CFD0D1" d="M16.522,36.116c-0.011-0.277-0.039-0.549-0.094-0.811c-0.463-2.213-2.428-3.879-4.773-3.879
		s-4.311,1.666-4.773,3.879c-0.055,0.262-0.084,0.533-0.094,0.811c-0.002,0.063-0.01,0.125-0.01,0.188
		c0,0.211,0.018,0.418,0.043,0.621c0.308,2.4,2.355,4.26,4.834,4.26s4.525-1.859,4.832-4.26c0.027-0.203,0.045-0.41,0.045-0.621
		C16.532,36.241,16.524,36.179,16.522,36.116z"/>
	<path fill="#CFD0D1" d="M41.71,36.116c-0.011-0.277-0.04-0.549-0.095-0.811c-0.462-2.213-2.426-3.879-4.771-3.879
		c-2.348,0-4.312,1.666-4.774,3.879c-0.055,0.262-0.083,0.533-0.094,0.811c-0.003,0.063-0.01,0.125-0.01,0.188
		c0,0.211,0.018,0.418,0.044,0.621c0.307,2.4,2.354,4.26,4.834,4.26c2.478,0,4.525-1.859,4.832-4.26
		c0.026-0.203,0.044-0.41,0.044-0.621C41.72,36.241,41.712,36.179,41.71,36.116z"/>
	<path fill="#FB4732" d="M47.01,6.815H17.802c-0.547,0-0.99,0.443-0.99,0.99v25.531c0.31,0.535,0.542,1.123,0.672,1.746
		c0.082,0.395,0.127,0.803,0.127,1.221c0,0.24-0.018,0.479-0.047,0.711c-0.002,0.016-0.004,0.031-0.006,0.049h0.244H30.94
		c-0.031-0.25-0.054-0.502-0.054-0.76c0-0.078,0.009-0.152,0.012-0.23c0.014-0.338,0.049-0.67,0.115-0.99
		c0.565-2.699,2.964-4.736,5.83-4.736c2.864,0,5.263,2.037,5.828,4.736c0.066,0.32,0.102,0.652,0.114,0.99
		c0.003,0.078,0.012,0.152,0.012,0.23c0,0.258-0.021,0.51-0.054,0.76h3.521c0.159,0,0.311-0.023,0.453-0.061
		c0.094,0.031,0.188,0.061,0.291,0.061c0.547,0,0.99-0.443,0.99-0.99V7.806C48,7.259,47.557,6.815,47.01,6.815z M38.496,21.354
		h-4.367v4.372H31.16v-4.372h-4.372v-2.969h4.372v-4.37h2.969v4.37h4.367V21.354z"/>
	<polygon fill="#FFFFFF" points="34.129,25.726 34.129,21.354 38.496,21.354 38.496,18.385 34.129,18.385 34.129,14.015 
		31.16,14.015 31.16,18.385 26.788,18.385 26.788,21.354 31.16,21.354 31.16,25.726 	"/>
</g>
</svg>
