<?xml version="1.0" encoding="utf-8"?>
<!-- Generator: Adobe Illustrator 16.0.0, SVG Export Plug-In . SVG Version: 6.00 Build 0)  -->
<!DOCTYPE svg PUBLIC "-//W3C//DTD SVG 1.1//EN" "http://www.w3.org/Graphics/SVG/1.1/DTD/svg11.dtd">
<svg version="1.1" id="Layer_1" xmlns="http://www.w3.org/2000/svg" xmlns:xlink="http://www.w3.org/1999/xlink" x="0px" y="0px"
	 width="48px" height="48px" viewBox="0 0 48 48" enable-background="new 0 0 48 48" xml:space="preserve">
<g>
	<rect x="16.58" y="26.214" fill="#EDF2F2" width="12.326" height="18.125"/>
	<path fill="none" d="M22.392,35.959c-0.243,0.105-0.436,0.303-0.534,0.549l-1.614,4.039c-0.205,0.514,0.045,1.095,0.557,1.3
		l4.041,1.618c0.119,0.048,0.246,0.072,0.372,0.072c0.134,0,0.269-0.027,0.394-0.082c0.244-0.104,0.438-0.301,0.535-0.547
		l1.615-4.041c0.205-0.514-0.045-1.095-0.557-1.3l-4.042-1.617C22.912,35.852,22.636,35.854,22.392,35.959z"/>
	<path fill="none" d="M18.332,28.67c-0.51,0.213-0.75,0.799-0.538,1.309l1.675,4.018c0.102,0.244,0.297,0.438,0.543,0.539
		c0.121,0.051,0.25,0.076,0.38,0.076c0.131,0,0.262-0.026,0.385-0.078l4.019-1.676c0.245-0.102,0.439-0.297,0.54-0.542
		s0.101-0.521-0.002-0.765l-1.675-4.018c-0.213-0.511-0.8-0.752-1.308-0.539L18.332,28.67z"/>
	<polygon fill="#CFD0D1" points="24.606,22.644 27.882,13.529 18.136,13.529 23.28,22.644 	"/>
	<path fill="#CFD0D1" d="M15.839,13.529h-2.663c-0.268,0-0.524,0.106-0.712,0.297s-0.291,0.448-0.288,0.716l0.104,8.102h8.702
		L15.839,13.529z"/>
	<path fill="#CFD0D1" d="M32.698,22.644l0.105-8.102c0.002-0.268-0.102-0.525-0.289-0.716s-0.443-0.297-0.711-0.297h-1.797
		l-3.275,9.114H32.698z"/>
	<path fill="#F7A93B" d="M12.307,24.644l0.25,19.313c0,2.229,1.813,4.043,4.042,4.043H28.38c2.229,0,4.043-1.814,4.043-4.031
		l0.25-19.325h-9.976H12.307z M27.757,38.867l-1.615,4.041c-0.098,0.246-0.291,0.443-0.535,0.547
		c-0.125,0.055-0.26,0.082-0.394,0.082c-0.126,0-0.252-0.024-0.372-0.072L20.8,41.847c-0.512-0.205-0.762-0.786-0.557-1.3
		l1.614-4.039c0.099-0.246,0.291-0.443,0.534-0.549c0.244-0.104,0.52-0.107,0.766-0.009l4.042,1.617
		C27.712,37.772,27.962,38.354,27.757,38.867z M23.657,27.533l1.675,4.018c0.103,0.244,0.103,0.52,0.002,0.765
		s-0.295,0.44-0.54,0.542l-4.019,1.676c-0.123,0.052-0.254,0.078-0.385,0.078c-0.13,0-0.259-0.025-0.38-0.076
		c-0.246-0.101-0.441-0.295-0.543-0.539l-1.675-4.018c-0.212-0.51,0.028-1.096,0.538-1.309l4.018-1.676
		C22.857,26.781,23.444,27.022,23.657,27.533z"/>
	<path fill="#CFD0D1" d="M13.581,5.457c-0.239-0.422-0.747-0.611-1.204-0.451L8.494,6.375C7.973,6.559,7.7,7.13,7.884,7.65
		C8.068,8.172,8.64,8.446,9.16,8.261l3.092-1.09l3.588,6.358h2.297L13.581,5.457z"/>
	<path fill="#274D57" d="M31.3,9.932c0.188-0.52-0.082-1.093-0.602-1.279c-0.52-0.188-1.094,0.083-1.279,0.603l-1.537,4.274h2.125
		L31.3,9.932z"/>
	<path fill="#274D57" d="M32.819,3.753c-0.113,0-0.227-0.02-0.34-0.06c-0.52-0.187-0.789-0.76-0.602-1.279l0.631-1.753
		c0.188-0.52,0.76-0.788,1.279-0.603c0.52,0.188,0.789,0.76,0.602,1.28l-0.631,1.753C33.612,3.499,33.228,3.753,32.819,3.753z"/>
	<path fill="#0093BB" d="M33.157,1.812C28.614,0.178,24.568,1.438,20.8,5.757c-0.105,0.13-0.184,0.304-0.217,0.472
		c-0.1,0.482,0.168,0.973,0.641,1.143l17.595,6.325c0.109,0.04,0.225,0.06,0.338,0.06c0.146,0,0.293-0.032,0.428-0.096
		c0.197-0.094,0.357-0.249,0.459-0.44c0.086-0.159,0.135-0.352,0.129-0.528C40.021,7.013,37.724,3.453,33.157,1.812z"/>
	<g>
		<path fill="#FFFFFF" d="M20.351,41.847l4.041,1.618c0.119,0.048,0.246,0.072,0.371,0.072c0.135,0,0.269-0.027,0.394-0.082
			c0.244-0.104,0.436-0.301,0.535-0.547l1.615-4.041c0.205-0.514-0.045-1.095-0.557-1.3l-4.042-1.617
			c-0.246-0.099-0.521-0.096-0.766,0.009c-0.244,0.105-0.436,0.303-0.535,0.549l-1.613,4.039
			C19.589,41.061,19.839,41.642,20.351,41.847z"/>
		<path fill="#FFFFFF" d="M20.326,34.533l4.02-1.676c0.244-0.102,0.439-0.297,0.539-0.542c0.102-0.245,0.102-0.521-0.002-0.765
			l-1.676-4.018c-0.213-0.511-0.799-0.752-1.307-0.539l-4.018,1.676c-0.51,0.213-0.75,0.799-0.539,1.309l1.676,4.018
			c0.102,0.244,0.297,0.438,0.543,0.539c0.121,0.051,0.25,0.076,0.379,0.076C20.072,34.611,20.203,34.585,20.326,34.533z"/>
	</g>
	<path fill="none" d="M22.392,35.959c-0.243,0.105-0.436,0.303-0.534,0.549l-1.614,4.039c-0.205,0.514,0.045,1.095,0.557,1.3
		l4.041,1.618c0.119,0.048,0.246,0.072,0.372,0.072c0.134,0,0.269-0.027,0.394-0.082c0.244-0.104,0.438-0.301,0.535-0.547
		l1.615-4.041c0.205-0.514-0.045-1.095-0.557-1.3l-4.042-1.617C22.912,35.852,22.636,35.854,22.392,35.959z"/>
	<path fill="none" d="M18.332,28.67c-0.51,0.213-0.75,0.799-0.538,1.309l1.675,4.018c0.102,0.244,0.297,0.438,0.543,0.539
		c0.121,0.051,0.25,0.076,0.38,0.076c0.131,0,0.262-0.026,0.385-0.078l4.019-1.676c0.245-0.102,0.439-0.297,0.54-0.542
		s0.101-0.521-0.002-0.765l-1.675-4.018c-0.213-0.511-0.8-0.752-1.308-0.539L18.332,28.67z"/>
</g>
</svg>
