<?xml version="1.0" encoding="utf-8"?>
<!-- Generator: Adobe Illustrator 16.0.0, SVG Export Plug-In . SVG Version: 6.00 Build 0)  -->
<!DOCTYPE svg PUBLIC "-//W3C//DTD SVG 1.1//EN" "http://www.w3.org/Graphics/SVG/1.1/DTD/svg11.dtd">
<svg version="1.1" id="Layer_1" xmlns="http://www.w3.org/2000/svg" xmlns:xlink="http://www.w3.org/1999/xlink" x="0px" y="0px"
	 width="48px" height="48px" viewBox="0 0 48 48" enable-background="new 0 0 48 48" xml:space="preserve">
<g>
	<path fill="#274D57" d="M1.475,10.521c-0.709,0-1.336-0.513-1.455-1.236C-0.111,8.481,0.432,7.723,1.236,7.59l45.048-7.423
		c0.805-0.134,1.563,0.412,1.696,1.216c0.131,0.804-0.412,1.563-1.217,1.695L1.716,10.502C1.635,10.515,1.554,10.521,1.475,10.521z"
		/>
	<path fill="#274D57" d="M22.835,18.493c-0.547,0-1.072-0.306-1.328-0.83c-0.355-0.733-0.051-1.616,0.682-1.973
		c3.299-1.606,5.093-3.324,5.188-4.967c0.107-1.855-1.992-3.62-2.811-4.144c-0.686-0.438-0.889-1.349-0.454-2.035
		c0.437-0.687,1.344-0.892,2.03-0.458c0.18,0.114,4.4,2.822,4.182,6.791c-0.154,2.819-2.457,5.331-6.844,7.467
		C23.272,18.445,23.052,18.493,22.835,18.493z"/>
	<path fill="#CFD0D1" d="M1.376,30.713h26.311c0-0.004,0-0.006,0-0.01c0.918-7.401-1.293-11.182-1.316-11.219
		c-0.417-0.694-0.199-1.601,0.492-2.023c0.691-0.424,1.591-0.214,2.02,0.474c0.112,0.181,2.708,4.484,1.768,12.778h15.975
		c0.312,0,0.601,0.098,0.839,0.264c-0.388-5.408-3.371-10.433-8.506-14.26c-0.169-0.126-0.375-0.194-0.587-0.194H9.636
		c-0.212,0-0.418,0.068-0.588,0.194c-5.132,3.826-8.114,8.85-8.506,14.254C0.779,30.809,1.067,30.713,1.376,30.713z"/>
	<path fill="#FB4732" d="M46.624,33.664H1.376c-0.309,0-0.597-0.097-0.834-0.26c0.392,5.405,3.375,10.429,8.506,14.254
		c0.17,0.127,0.376,0.195,0.588,0.195H38.37c0.212,0,0.418-0.068,0.587-0.195c5.134-3.826,8.117-8.852,8.506-14.259
		C47.225,33.564,46.936,33.664,46.624,33.664z"/>
</g>
</svg>
