<?xml version="1.0" encoding="utf-8"?>
<!-- Generator: Adobe Illustrator 16.0.0, SVG Export Plug-In . SVG Version: 6.00 Build 0)  -->
<!DOCTYPE svg PUBLIC "-//W3C//DTD SVG 1.1//EN" "http://www.w3.org/Graphics/SVG/1.1/DTD/svg11.dtd">
<svg version="1.1" id="Layer_1" xmlns="http://www.w3.org/2000/svg" xmlns:xlink="http://www.w3.org/1999/xlink" x="0px" y="0px"
	 width="48px" height="48px" viewBox="0 0 48 48" enable-background="new 0 0 48 48" xml:space="preserve">
<g>
	<path fill="#00718D" d="M11.096,37.316c-0.812,0-1.47-0.658-1.47-1.469V7.409c0-2.583,0.77-4.553,2.288-5.854
		c2.069-1.775,4.799-1.581,5.418-1.513c2.396,0.054,4.33,2.015,4.33,4.418c0,2.437-1.988,4.419-4.432,4.419
		c-0.811,0-1.469-0.659-1.469-1.47c0-0.812,0.658-1.47,1.469-1.47c0.822,0,1.492-0.664,1.492-1.479S18.053,2.98,17.23,2.98
		c-0.076,0-0.149-0.006-0.225-0.018c-0.008,0-1.935-0.258-3.193,0.835c-0.828,0.719-1.248,1.934-1.248,3.611v28.439
		C12.564,36.658,11.906,37.316,11.096,37.316z"/>
	<path fill="#00718D" d="M37.434,37.316c-0.811,0-1.469-0.658-1.469-1.469V7.409c0-2.583,0.768-4.553,2.286-5.854
		c2.07-1.775,4.8-1.581,5.417-1.513C46.066,0.095,48,2.056,48,4.459c0,2.437-1.988,4.419-4.432,4.419
		c-0.811,0-1.469-0.659-1.469-1.47c0-0.812,0.658-1.47,1.469-1.47c0.822,0,1.493-0.664,1.493-1.479S44.391,2.98,43.568,2.98
		c-0.076,0-0.15-0.006-0.226-0.018c-0.007,0-1.934-0.258-3.193,0.835c-0.827,0.719-1.247,1.934-1.247,3.611v28.439
		C38.902,36.658,38.244,37.316,37.434,37.316z"/>
	<path fill="#00718D" d="M37.434,16.778H11.729c-0.812,0-1.47-0.658-1.47-1.47c0-0.811,0.658-1.47,1.47-1.47h25.704
		c0.811,0,1.469,0.659,1.469,1.47C38.902,16.12,38.244,16.778,37.434,16.778z"/>
	<path fill="#00718D" d="M37.434,28.258H11.729c-0.812,0-1.47-0.658-1.47-1.469c0-0.813,0.658-1.471,1.47-1.471h25.704
		c0.811,0,1.469,0.658,1.469,1.471C38.902,27.6,38.244,28.258,37.434,28.258z"/>
	<path fill="#00A5D3" d="M35.184,41.142c-1.075,0-2.168-0.179-3.223-0.534c-1.464-0.497-2.619-1.248-3.734-1.973
		c-1.365-0.889-2.545-1.654-4.104-1.833c-2.099-0.239-5.079-0.192-7.352,1.377c-0.11,0.075-0.231,0.167-0.37,0.269
		c-1.047,0.783-2.998,2.24-5.866,2.24c-1.96,0-3.165-1.027-4.229-1.934c-0.236-0.202-0.479-0.408-0.734-0.607
		c-0.282-0.219-0.555-0.503-0.816-0.777c-0.174-0.182-0.465-0.486-0.582-0.563c-0.305-0.107-1.664-0.046-2.293,0.136
		c-0.779,0.228-1.595-0.222-1.82-1.001c-0.227-0.779,0.221-1.594,1.002-1.821c0.742-0.216,3.19-0.593,4.508,0.101
		c0.485,0.258,0.903,0.694,1.308,1.116c0.171,0.179,0.384,0.401,0.493,0.485c0.294,0.228,0.572,0.463,0.842,0.694
		c0.951,0.81,1.485,1.231,2.323,1.231c1.892,0,3.226-0.996,4.108-1.654c0.17-0.129,0.322-0.241,0.457-0.334
		c2.392-1.653,5.627-2.307,9.355-1.879c2.248,0.258,3.837,1.291,5.373,2.289c1.008,0.656,1.961,1.275,3.076,1.652
		c1.583,0.537,3.273,0.508,4.635-0.082c0.697-0.303,1.398-0.791,2.14-1.31c1.597-1.116,3.408-2.376,5.825-2.151
		c0.809,0.076,1.4,0.793,1.324,1.602c-0.076,0.807-0.805,1.4-1.602,1.324c-1.334-0.124-2.512,0.689-3.865,1.635
		c-0.828,0.578-1.684,1.178-2.655,1.599C37.625,40.906,36.418,41.142,35.184,41.142z"/>
	<path fill="#00A5D3" d="M35.184,48c-1.075,0-2.17-0.178-3.225-0.535c-1.462-0.496-2.617-1.246-3.732-1.973
		c-1.365-0.887-2.545-1.654-4.104-1.832c-2.099-0.24-5.079-0.193-7.352,1.377c-0.11,0.074-0.231,0.166-0.37,0.268
		c-1.047,0.784-2.998,2.242-5.866,2.242c-1.96,0-3.165-1.028-4.229-1.936c-0.236-0.201-0.479-0.408-0.734-0.607
		c-0.282-0.219-0.555-0.504-0.818-0.777c-0.174-0.182-0.464-0.485-0.581-0.563c-0.305-0.107-1.663-0.047-2.292,0.137
		c-0.779,0.229-1.595-0.223-1.82-1.002c-0.227-0.779,0.221-1.594,1.002-1.82c0.742-0.216,3.19-0.593,4.508,0.102
		c0.485,0.256,0.902,0.691,1.307,1.113c0.171,0.18,0.384,0.402,0.494,0.486c0.294,0.229,0.572,0.463,0.842,0.695
		c0.951,0.809,1.485,1.232,2.323,1.232c1.892,0,3.226-0.998,4.108-1.656c0.17-0.127,0.322-0.24,0.457-0.334
		c2.392-1.652,5.627-2.305,9.355-1.877c2.248,0.256,3.837,1.289,5.373,2.288c1.008,0.655,1.961,1.274,3.076,1.652
		c1.583,0.538,3.273,0.508,4.635-0.081c0.697-0.303,1.397-0.791,2.139-1.309c1.597-1.117,3.408-2.381,5.826-2.153
		c0.809,0.077,1.4,0.794,1.324,1.602c-0.076,0.809-0.805,1.405-1.602,1.324c-1.334-0.124-2.512,0.69-3.865,1.636
		c-0.828,0.578-1.684,1.178-2.654,1.598C37.625,47.764,36.417,48,35.184,48z"/>
</g>
</svg>
