<?xml version="1.0" encoding="utf-8"?>
<!-- Generator: Adobe Illustrator 16.0.0, SVG Export Plug-In . SVG Version: 6.00 Build 0)  -->
<!DOCTYPE svg PUBLIC "-//W3C//DTD SVG 1.1//EN" "http://www.w3.org/Graphics/SVG/1.1/DTD/svg11.dtd">
<svg version="1.1" id="Layer_1" xmlns="http://www.w3.org/2000/svg" xmlns:xlink="http://www.w3.org/1999/xlink" x="0px" y="0px"
	 width="48px" height="48px" viewBox="0 0 48 48" enable-background="new 0 0 48 48" xml:space="preserve">
<g>
	<path fill="#DD2B00" d="M24,11.361c-0.554,0-1-0.447-1-1V1c0-0.553,0.446-1,1-1c0.553,0,1,0.447,1,1v9.361
		C25,10.914,24.553,11.361,24,11.361z"/>
	<path fill="#DD2B00" d="M27.34,5.066h-6.682c-0.554,0-1-0.447-1-1s0.446-1,1-1h6.682c0.553,0,1,0.447,1,1S27.893,5.066,27.34,5.066
		z"/>
	<path fill="#F7A93B" d="M24.125,31.748h-0.518c-1.771,0-3.209,1.59-3.209,3.543V48h6.935V35.291
		C27.333,33.338,25.895,31.748,24.125,31.748z"/>
	<path fill="#274D57" d="M47.43,29.031l-9.676-4.623V16.43c0-0.385-0.221-0.736-0.568-0.902L24.487,9.459
		c-0.271-0.131-0.588-0.131-0.858-0.002l-12.813,6.068c-0.35,0.166-0.572,0.518-0.572,0.904v8.02l-9.673,4.58
		C0.222,29.195,0,29.547,0,29.934V47c0,0.553,0.446,1,1,1h17.398V35.291c0-3.172,2.338-5.75,5.209-5.75h0.518
		c2.871,0,5.208,2.578,5.208,5.75V48H47c0.551,0,1-0.447,1-1V29.934C48,29.547,47.777,29.197,47.43,29.031z M24,25.133
		c-2.321,0-4.209-1.889-4.209-4.209c0-2.322,1.888-4.209,4.209-4.209c2.32,0,4.208,1.887,4.208,4.209
		C28.208,23.244,26.32,25.133,24,25.133z"/>
</g>
</svg>
