<?xml version="1.0" encoding="utf-8"?>
<!-- Generator: Adobe Illustrator 16.0.0, SVG Export Plug-In . SVG Version: 6.00 Build 0)  -->
<!DOCTYPE svg PUBLIC "-//W3C//DTD SVG 1.1//EN" "http://www.w3.org/Graphics/SVG/1.1/DTD/svg11.dtd">
<svg version="1.1" id="Layer_1" xmlns="http://www.w3.org/2000/svg" xmlns:xlink="http://www.w3.org/1999/xlink" x="0px" y="0px"
	 width="48px" height="48px" viewBox="0 0 48 48" enable-background="new 0 0 48 48" xml:space="preserve">
<g>
	<circle fill="#274D57" cx="24" cy="24" r="24"/>
	<circle fill="#FFFFFF" cx="24" cy="24" r="18.373"/>
	<polygon fill="#0093BB" points="26.784,25.557 31.211,11.106 21.215,22.442 21.215,22.442 26.784,25.557 	"/>
	<polygon fill="#E8B945" points="26.784,25.557 21.215,22.442 16.787,36.893 	"/>
	<path fill="#CFD0D1" d="M9.35,23.499h-2.91C6.436,23.666,6.428,23.832,6.428,24c0,0.203,0.008,0.405,0.015,0.606H9.35V23.499z"/>
	<path fill="#CFD0D1" d="M23.446,41.558c0.184,0.006,0.367,0.015,0.554,0.015c0.186,0,0.369-0.009,0.553-0.015v-2.854h-1.106V41.558
		z"/>
	<path fill="#CFD0D1" d="M41.559,23.499h-2.909v1.107h2.907c0.007-0.201,0.015-0.403,0.015-0.606
		C41.571,23.832,41.563,23.666,41.559,23.499z"/>
	<path fill="#CFD0D1" d="M24.553,6.441C24.369,6.436,24.186,6.428,24,6.428c-0.187,0-0.37,0.008-0.554,0.014v2.961h1.106V6.441z"/>
	<g>
		<path fill="#E8E9E5" d="M24,43.041C13.5,43.041,4.958,34.5,4.958,24C4.958,13.501,13.5,4.959,24,4.959S43.041,13.501,43.041,24
			C43.041,34.5,34.5,43.041,24,43.041z M24,6.428C14.311,6.428,6.428,14.31,6.428,24c0,9.689,7.883,17.572,17.572,17.572
			c9.688,0,17.571-7.883,17.571-17.572C41.571,14.31,33.688,6.428,24,6.428z"/>
	</g>
</g>
</svg>
