<?xml version="1.0" encoding="utf-8"?>
<!-- Generator: Adobe Illustrator 16.0.0, SVG Export Plug-In . SVG Version: 6.00 Build 0)  -->
<!DOCTYPE svg PUBLIC "-//W3C//DTD SVG 1.1//EN" "http://www.w3.org/Graphics/SVG/1.1/DTD/svg11.dtd">
<svg version="1.1" id="Layer_1" xmlns="http://www.w3.org/2000/svg" xmlns:xlink="http://www.w3.org/1999/xlink" x="0px" y="0px"
	 width="48px" height="48px" viewBox="0 0 48 48" enable-background="new 0 0 48 48" xml:space="preserve">
<g>
	<path fill="#F7A93B" d="M26.645,37.413H1.165c-0.564,0-1.02,0.457-1.02,1.02v0.4c0,2.57,1.534,4.582,3.493,4.582h20.532
		c1.958,0,3.493-2.012,3.493-4.582v-0.4C27.664,37.87,27.208,37.413,26.645,37.413z"/>
	<path fill="#FB4732" d="M14.149,36.802c-1.148,0-2.291-0.445-3.397-1.326c-0.886-0.707-1.563-1.025-2.198-1.037
		c-0.373-0.008-0.57-0.01-0.664,0.061c-0.109,0.083-0.203,0.191-0.302,0.295c-0.161,0.174-0.325,0.342-0.5,0.48
		c-2.255,1.781-4.737,1.355-6.808-1.17c-0.357-0.436-0.293-1.078,0.142-1.436c0.437-0.357,1.077-0.293,1.435,0.143
		c1.766,2.152,3.046,1.592,3.966,0.865c0.099-0.078,0.187-0.178,0.278-0.277c0.181-0.191,0.364-0.381,0.565-0.529
		c0.659-0.498,1.359-0.485,1.869-0.473c1.486,0.027,2.641,0.808,3.487,1.484c0.777,0.617,1.57,0.914,2.242,0.879
		c0.487-0.023,1.136-0.488,1.763-0.938c0.397-0.284,0.807-0.579,1.235-0.808c1.14-0.611,2.297-0.527,3.254,0.227
		c0.202,0.16,0.405,0.336,0.61,0.512c0.403,0.344,0.816,0.699,1.186,0.886c0.742,0.378,1.555-0.321,1.788-0.544
		c0.142-0.139,0.271-0.28,0.395-0.414c0.488-0.537,1.095-1.203,2.183-1.239c0.01-0.001,0.021-0.001,0.033-0.001
		c0.547,0,1,0.434,1.018,0.986c0.02,0.563-0.42,1.033-0.984,1.052c-0.199,0.007-0.33,0.122-0.744,0.575
		c-0.15,0.166-0.309,0.338-0.484,0.508c-1.256,1.209-2.836,1.549-4.127,0.895c-0.589-0.299-1.097-0.734-1.588-1.156
		c-0.184-0.157-0.364-0.313-0.546-0.456c-0.274-0.216-0.542-0.292-1.032-0.03c-0.31,0.166-0.647,0.408-1.007,0.666
		c-0.827,0.594-1.765,1.266-2.854,1.318C14.292,36.8,14.22,36.802,14.149,36.802z"/>
	<path fill="#00A5D3" d="M45.076,14.987c-0.193-0.212-0.468-0.333-0.754-0.333H28.137c-0.287,0-0.562,0.121-0.754,0.333
		c-0.194,0.212-0.29,0.496-0.261,0.782l2.532,26.83c0.049,0.523,0.488,0.924,1.016,0.924h11.119c0.524,0,0.966-0.4,1.015-0.924
		l2.533-26.83C45.365,15.482,45.27,15.199,45.076,14.987z"/>
	<path fill="#274D57" d="M46.979,14.504H36.901c0.354-5.704,2.945-8.2,3.003-8.252c0.413-0.377,0.445-1.018,0.072-1.436
		c-0.377-0.42-1.023-0.454-1.439-0.077c-0.142,0.127-3.301,3.054-3.675,9.765h-9.384c-0.563,0-1.02,0.456-1.02,1.02
		s0.457,1.02,1.02,1.02H35.83c0.004,0,0.008,0,0.012,0h11.138c0.563,0,1.021-0.456,1.021-1.02S47.543,14.504,46.979,14.504z"/>
	<path fill="#F7A93B" d="M27.102,25.229c-1.493-3.673-7.04-7.636-13.397-7.636c-3.253,0-7.986,1.06-12.111,6.164
		c-0.226,0.317-2.175,3.162-1.42,5.469c0.232,0.711,0.824,1.664,2.322,2.162c0.103,0.034,0.213,0.053,0.322,0.053h22.287
		c0.02,0,0.036,0,0.054-0.002c0.142-0.008,1.403-0.105,2.155-1.288C28.037,29.013,27.964,27.358,27.102,25.229z M3.515,26.871
		c-0.238,0-0.431-0.192-0.431-0.431s0.192-0.432,0.431-0.432s0.432,0.193,0.432,0.432S3.753,26.871,3.515,26.871z M4.651,29.185
		c-0.238,0-0.43-0.193-0.43-0.432s0.191-0.432,0.43-0.432s0.432,0.193,0.432,0.432S4.89,29.185,4.651,29.185z M7.014,22.461
		c0-0.238,0.194-0.431,0.433-0.431c0.237,0,0.43,0.193,0.43,0.431s-0.192,0.431-0.43,0.431C7.208,22.892,7.014,22.699,7.014,22.461z
		 M7.876,28.03c-0.238,0-0.43-0.193-0.43-0.432c0-0.237,0.191-0.43,0.43-0.43s0.432,0.192,0.432,0.43
		C8.308,27.837,8.114,28.03,7.876,28.03z M10.442,24.947c-0.238,0-0.432-0.193-0.432-0.431c0-0.238,0.193-0.432,0.432-0.432
		c0.237,0,0.432,0.193,0.432,0.432C10.874,24.754,10.68,24.947,10.442,24.947z M12.937,20.88c-0.239,0-0.432-0.193-0.432-0.431
		s0.192-0.431,0.432-0.431c0.238,0,0.431,0.193,0.431,0.431S13.175,20.88,12.937,20.88z M14.767,29.52
		c-0.239,0-0.432-0.192-0.432-0.431s0.192-0.432,0.432-0.432c0.238,0,0.431,0.193,0.431,0.432S15.005,29.52,14.767,29.52z
		 M15.922,25.38c-0.238,0-0.431-0.193-0.431-0.433c0-0.238,0.192-0.431,0.431-0.431s0.433,0.193,0.433,0.431
		C16.354,25.187,16.16,25.38,15.922,25.38z M18.019,21.311c-0.238,0-0.431-0.193-0.431-0.431s0.192-0.431,0.431-0.431
		s0.432,0.193,0.432,0.431S18.257,21.311,18.019,21.311z M19.606,23.954c0-0.238,0.193-0.431,0.432-0.431
		c0.237,0,0.431,0.193,0.431,0.431c0,0.238-0.193,0.432-0.431,0.432C19.8,24.386,19.606,24.192,19.606,23.954z M20.469,28.596
		c-0.238,0-0.431-0.192-0.431-0.431s0.192-0.432,0.431-0.432c0.239,0,0.432,0.193,0.432,0.432S20.708,28.596,20.469,28.596z
		 M24.001,26.44c-0.238,0-0.433-0.193-0.433-0.432s0.194-0.432,0.433-0.432c0.237,0,0.432,0.193,0.432,0.432
		S24.238,26.44,24.001,26.44z"/>
</g>
</svg>
