<?xml version="1.0" encoding="utf-8"?>
<!-- Generator: Adobe Illustrator 16.0.0, SVG Export Plug-In . SVG Version: 6.00 Build 0)  -->
<!DOCTYPE svg PUBLIC "-//W3C//DTD SVG 1.1//EN" "http://www.w3.org/Graphics/SVG/1.1/DTD/svg11.dtd">
<svg version="1.1" id="Layer_1" xmlns="http://www.w3.org/2000/svg" xmlns:xlink="http://www.w3.org/1999/xlink" x="0px" y="0px"
	 width="48px" height="48px" viewBox="0 0 48 48" enable-background="new 0 0 48 48" xml:space="preserve">
<g>
	<path fill="#E77428" d="M48,41.547L36.438,17.736c-0.162-0.331-0.48-0.556-0.848-0.595c-0.366-0.043-0.727,0.11-0.954,0.4
		l-14.09,17.867l-7.409-10.851c-0.199-0.292-0.53-0.467-0.883-0.467c-0.002,0-0.003,0-0.003,0c-0.354,0.001-0.686,0.178-0.884,0.472
		L0,41.416"/>
	<path fill="#F7A93B" d="M20.727,6.454c-3.535,0-6.41,2.875-6.41,6.409s2.875,6.41,6.41,6.41s6.41-2.876,6.41-6.41
		S24.262,6.454,20.727,6.454z"/>
</g>
</svg>
