<?xml version="1.0" encoding="utf-8"?>
<!-- Generator: Adobe Illustrator 16.0.0, SVG Export Plug-In . SVG Version: 6.00 Build 0)  -->
<!DOCTYPE svg PUBLIC "-//W3C//DTD SVG 1.1//EN" "http://www.w3.org/Graphics/SVG/1.1/DTD/svg11.dtd">
<svg version="1.1" id="Layer_1" xmlns="http://www.w3.org/2000/svg" xmlns:xlink="http://www.w3.org/1999/xlink" x="0px" y="0px"
	 width="48px" height="48px" viewBox="0 0 48 48" enable-background="new 0 0 48 48" xml:space="preserve">
<g>
	<path fill="#CFD0D1" d="M32.965,1.737C30.194,0.62,27.17,0,24,0c-2.917,0-5.711,0.521-8.297,1.475C6.537,4.852,0,13.662,0,24
		c0,13.255,10.745,24,24,24c13.254,0,24-10.745,24-24C48,13.915,41.777,5.289,32.965,1.737z M24,37.424
		c-7.414,0-13.424-6.01-13.424-13.424c0-5.646,3.49-10.47,8.428-12.452c1.545-0.621,3.229-0.972,4.996-0.972
		c1.949,0,3.797,0.425,5.469,1.172c4.686,2.095,7.955,6.787,7.955,12.252C37.424,31.414,31.414,37.424,24,37.424z"/>
	<path fill="#FB4732" d="M24,10.576c1.949,0,3.797,0.425,5.469,1.172l3.496-10.011C30.194,0.62,27.17,0,24,0
		c-2.917,0-5.711,0.521-8.297,1.475l3.301,10.073C20.549,10.927,22.233,10.576,24,10.576z"/>
	<path fill="#FB4732" d="M24,37.424c1.949,0,3.797-0.425,5.469-1.172l3.496,10.011C30.194,47.38,27.17,48,24,48
		c-2.917,0-5.711-0.521-8.297-1.475l3.301-10.073C20.549,37.073,22.233,37.424,24,37.424z"/>
	<path fill="#FB4732" d="M37.424,23.667c0,1.949-0.426,3.796-1.172,5.469l10.011,3.495C47.379,29.861,48,26.837,48,23.667
		c0-2.917-0.521-5.712-1.475-8.298L36.452,18.67C37.073,20.216,37.424,21.9,37.424,23.667z"/>
	<path fill="#FB4732" d="M10.576,23.667c0,1.948,0.425,3.796,1.172,5.468L1.737,32.631C0.62,29.861,0,26.836,0,23.667
		c0-2.918,0.521-5.713,1.475-8.298l10.073,3.301C10.926,20.215,10.576,21.899,10.576,23.667z"/>
</g>
</svg>
