<?xml version="1.0" encoding="utf-8"?>
<!-- Generator: Adobe Illustrator 16.0.0, SVG Export Plug-In . SVG Version: 6.00 Build 0)  -->
<!DOCTYPE svg PUBLIC "-//W3C//DTD SVG 1.1//EN" "http://www.w3.org/Graphics/SVG/1.1/DTD/svg11.dtd">
<svg version="1.1" id="Layer_1" xmlns="http://www.w3.org/2000/svg" xmlns:xlink="http://www.w3.org/1999/xlink" x="0px" y="0px"
	 width="48px" height="48px" viewBox="0 0 48 48" enable-background="new 0 0 48 48" xml:space="preserve">
<g>
	<path fill="#274D57" d="M17.794,16.318c-0.553,0-1-0.448-1-1V4.638c0-0.552,0.447-1,1-1c0.552,0,1,0.448,1,1v10.68
		C18.794,15.87,18.346,16.318,17.794,16.318z"/>
	<path fill="#5A7478" d="M8.959,5.984c-0.169,0-0.342-0.021-0.519-0.066c-0.631-0.165-1.15-0.609-1.588-1.36
		C6.576,4.081,6.738,3.468,7.214,3.19c0.478-0.277,1.09-0.116,1.367,0.361c0.189,0.324,0.33,0.423,0.363,0.432
		c0.133,0.041,0.652-0.268,0.9-0.414c0.368-0.217,0.785-0.463,1.246-0.604c0.721-0.22,1.485-0.095,2.158,0.013
		c0.353,0.058,0.941,0.151,1.102,0.078c0.47-0.292,1.084-0.146,1.375,0.322c0.291,0.469,0.145,1.087-0.324,1.378
		c-0.76,0.473-1.669,0.326-2.472,0.196c-0.46-0.075-0.98-0.159-1.257-0.075c-0.232,0.071-0.514,0.237-0.813,0.413
		C10.326,5.606,9.685,5.984,8.959,5.984z"/>
	<path fill="#F7A93B" d="M38.192,17.875 M6.603,31.551 M40.115,17.055v-5.992c0-0.552-0.449-1-1-1H27.431
		c-0.139,0-0.276,0.029-0.403,0.085L5.199,19.787c-0.362,0.16-0.596,0.519-0.596,0.915v10.849 M11.107,24.91l-1.889,0.727
		c-0.178,0.068-0.359,0.101-0.538,0.101c-0.603,0-1.171-0.366-1.4-0.962c-0.298-0.773,0.089-1.641,0.862-1.938l1.889-0.727
		c0.775-0.298,1.642,0.088,1.938,0.862C12.267,23.745,11.88,24.613,11.107,24.91z M17.705,22.344l-1.889,0.727
		c-0.178,0.068-0.359,0.101-0.538,0.101c-0.603,0-1.171-0.366-1.4-0.962c-0.298-0.773,0.089-1.641,0.862-1.938l1.889-0.727
		c0.772-0.299,1.642,0.088,1.938,0.862C18.865,21.179,18.478,22.046,17.705,22.344z M25.484,19.421l-1.891,0.727
		c-0.176,0.068-0.358,0.101-0.537,0.101c-0.604,0-1.172-0.366-1.4-0.962c-0.297-0.773,0.088-1.641,0.861-1.938l1.891-0.727
		c0.772-0.298,1.64,0.088,1.937,0.862C26.642,18.256,26.257,19.124,25.484,19.421z"/>
	<g>
		<path fill="#DD2B00" d="M16.628,19.544l-1.889,0.727c-0.773,0.297-1.16,1.165-0.862,1.938c0.229,0.597,0.798,0.962,1.4,0.962
			c0.179,0,0.36-0.032,0.538-0.101l1.889-0.727c0.773-0.297,1.16-1.165,0.862-1.938C18.27,19.632,17.401,19.245,16.628,19.544z"/>
		<path fill="#DD2B00" d="M22.517,17.348c-0.773,0.297-1.158,1.165-0.861,1.938c0.229,0.597,0.797,0.962,1.4,0.962
			c0.179,0,0.361-0.032,0.537-0.101l1.891-0.727c0.772-0.297,1.157-1.165,0.86-1.938c-0.297-0.773-1.165-1.16-1.937-0.862
			L22.517,17.348z"/>
		<path fill="#DD2B00" d="M10.031,22.11l-1.889,0.727c-0.773,0.297-1.16,1.165-0.862,1.938c0.229,0.596,0.798,0.962,1.4,0.962
			c0.179,0,0.36-0.032,0.538-0.101l1.889-0.727c0.773-0.297,1.16-1.165,0.862-1.938C11.672,22.199,10.806,21.812,10.031,22.11z"/>
	</g>
	<path fill="#274D57" d="M47.846,18.505c-0.191-0.301-0.525-0.482-0.883-0.464c-11.61,0.44-44.98,16.358-46.395,17.036
		c-0.408,0.195-0.635,0.642-0.551,1.088l0.141,0.745l0.373,1.966l0.111,0.587l0.398,2.105c0.084,0.445,0.457,0.778,0.909,0.812
		l37.968,2.774c0.023,0.001,0.049,0.002,0.072,0.002c0.004,0,0.008,0,0.01,0c0.574-0.003,1.012-0.443,1.01-1
		c0-0.193-0.055-0.374-0.15-0.527c-0.377-1.066-0.408-2.508-0.201-4.166c0.545-4.34,2.738-10.173,4.736-14.709
		c0.459-1.044,0.906-2.017,1.322-2.89c0.434-0.911,0.834-1.714,1.17-2.362C48.053,19.186,48.035,18.806,47.846,18.505z"/>
	<path fill="#CFD0D1" d="M8.959,5.984c-0.169,0-0.342-0.021-0.519-0.066c-0.631-0.165-1.15-0.609-1.588-1.36
		C6.576,4.081,6.738,3.468,7.214,3.19c0.478-0.277,1.09-0.116,1.367,0.361c0.189,0.324,0.33,0.423,0.363,0.432
		c0.133,0.041,0.652-0.268,0.9-0.414c0.368-0.217,0.785-0.463,1.246-0.604c0.721-0.22,1.485-0.095,2.158,0.013
		c0.353,0.058,0.941,0.151,1.102,0.078c0.47-0.292,1.084-0.146,1.375,0.322c0.291,0.469,0.145,1.087-0.324,1.378
		c-0.76,0.473-1.669,0.326-2.472,0.196c-0.46-0.075-0.98-0.159-1.257-0.075c-0.232,0.071-0.514,0.237-0.813,0.413
		C10.326,5.606,9.685,5.984,8.959,5.984z"/>
</g>
</svg>
