<?xml version="1.0" encoding="utf-8"?>
<!-- Generator: Adobe Illustrator 16.0.0, SVG Export Plug-In . SVG Version: 6.00 Build 0)  -->
<!DOCTYPE svg PUBLIC "-//W3C//DTD SVG 1.1//EN" "http://www.w3.org/Graphics/SVG/1.1/DTD/svg11.dtd">
<svg version="1.1" id="Layer_1" xmlns="http://www.w3.org/2000/svg" xmlns:xlink="http://www.w3.org/1999/xlink" x="0px" y="0px"
	 width="48px" height="48px" viewBox="0 0 48 48" enable-background="new 0 0 48 48" xml:space="preserve">
<g>
	<path fill="#274D57" d="M47,44.428H1c-0.552,0-1-0.447-1-1c0-0.552,0.448-1,1-1h46c0.553,0,1,0.448,1,1
		C48,43.98,47.553,44.428,47,44.428z"/>
	<g>
		<path fill="#CFD0D1" d="M24,14.386c-11.936,0-21.646,10.773-21.646,24.015c0,0.553,0.448,1,1,1h41.293c0.553,0,1-0.447,1-1
			C45.646,25.159,35.937,14.386,24,14.386z"/>
		<path fill="#CFD0D1" d="M24.002,12.758c2.531,0,4.592-2.061,4.592-4.593s-2.061-4.593-4.592-4.593
			c-2.533,0-4.594,2.061-4.594,4.593S21.469,12.758,24.002,12.758z"/>
	</g>
	<g>
		<path fill="#FFFFFF" d="M42.999,36.617c-0.195,0-0.38-0.115-0.461-0.306c-6.492-15.377-13.98-17.235-14.055-17.252
			c-0.27-0.062-0.438-0.329-0.377-0.599c0.061-0.269,0.328-0.439,0.598-0.377c0.326,0.074,8.065,1.993,14.756,17.838
			c0.107,0.255-0.012,0.548-0.267,0.655C43.13,36.604,43.063,36.617,42.999,36.617z"/>
	</g>
</g>
</svg>
