<?xml version="1.0" encoding="utf-8"?>
<!-- Generator: Adobe Illustrator 16.0.0, SVG Export Plug-In . SVG Version: 6.00 Build 0)  -->
<!DOCTYPE svg PUBLIC "-//W3C//DTD SVG 1.1//EN" "http://www.w3.org/Graphics/SVG/1.1/DTD/svg11.dtd">
<svg version="1.1" id="Layer_1" xmlns="http://www.w3.org/2000/svg" xmlns:xlink="http://www.w3.org/1999/xlink" x="0px" y="0px"
	 width="48px" height="48px" viewBox="0 0 48 48" enable-background="new 0 0 48 48" xml:space="preserve">
<g>
	<path fill="#00B99B" d="M34.573,10.403C29.711,5.388,24.729,3.209,24,0c-0.729,3.209-5.711,5.388-10.573,10.403
		c-4.862,5.012,0,10.401,0,10.401H24h10.573C34.573,20.805,39.436,15.415,34.573,10.403z"/>
	<path fill="#506E76" d="M8.558,16.363c-1.683-2.142-3.407-3.071-3.659-4.441c-0.253,1.37-1.977,2.3-3.659,4.441s0,4.441,0,4.441
		h3.659h3.659C8.558,20.805,10.24,18.505,8.558,16.363z"/>
	<path fill="#506E76" d="M46.761,16.363c-1.683-2.142-3.406-3.071-3.659-4.441c-0.252,1.37-1.977,2.3-3.659,4.441
		c-1.682,2.142,0,4.441,0,4.441h3.659h3.659C46.761,20.805,48.444,18.505,46.761,16.363z"/>
	<path fill="#F7A93B" d="M35.422,23.473H12.578c-0.564,0-1.022,0.422-1.022,0.944v22.639c0,0.521,0.458,0.944,1.022,0.944h7.34
		V35.759c0-3.2,1.731-5.819,3.846-5.819h0.473c2.114,0,3.846,2.619,3.846,5.819V48h7.34c0.564,0,1.022-0.423,1.022-0.944V24.417
		C36.444,23.895,35.986,23.473,35.422,23.473z"/>
	<path fill="#506E76" d="M8.774,23.473H1.022C0.458,23.473,0,23.895,0,24.417v22.639C0,47.577,0.458,48,1.022,48h7.752
		c0.564,0,1.021-0.423,1.021-0.944V24.417C9.796,23.895,9.339,23.473,8.774,23.473z"/>
	<path fill="#506E76" d="M46.978,23.473h-7.752c-0.564,0-1.021,0.422-1.021,0.944v22.639c0,0.521,0.457,0.944,1.021,0.944h7.752
		C47.542,48,48,47.577,48,47.056V24.417C48,23.895,47.542,23.473,46.978,23.473z"/>
</g>
</svg>
