<?xml version="1.0" encoding="utf-8"?>
<!-- Generator: Adobe Illustrator 16.0.0, SVG Export Plug-In . SVG Version: 6.00 Build 0)  -->
<!DOCTYPE svg PUBLIC "-//W3C//DTD SVG 1.1//EN" "http://www.w3.org/Graphics/SVG/1.1/DTD/svg11.dtd">
<svg version="1.1" id="Layer_1" xmlns="http://www.w3.org/2000/svg" xmlns:xlink="http://www.w3.org/1999/xlink" x="0px" y="0px"
	 width="48px" height="48px" viewBox="0 0 48 48" enable-background="new 0 0 48 48" xml:space="preserve">
<g>
	<path fill="#E8E9E5" d="M24.001,40.015c-8.212,0-14.895,1.111-14.895,2.478c0,1.306,13.451,5.257,14.025,5.424
		C23.31,47.968,23.642,48,24.001,48s0.691-0.032,0.869-0.084c0.572-0.167,14.023-4.118,14.023-5.424
		C38.894,41.126,32.212,40.015,24.001,40.015z"/>
	<path fill="#00718D" d="M24.001,0C15.789,0,9.106,6.681,9.106,14.893c0,7.848,13.451,31.595,14.025,32.602
		C23.31,47.807,23.642,48,24.001,48s0.691-0.193,0.869-0.506c0.572-1.007,14.023-24.754,14.023-32.602
		C38.894,6.681,32.212,0,24.001,0z M24.001,24.547c-5.324,0-9.654-4.331-9.654-9.654s4.33-9.654,9.654-9.654
		c5.322,0,9.654,4.331,9.654,9.654S29.323,24.547,24.001,24.547z"/>
	<path fill="#0093BB" d="M24.001,24.547c5.322,0,9.654-4.331,9.654-9.654s-4.332-9.654-9.654-9.654
		c-5.324,0-9.654,4.331-9.654,9.654S18.677,24.547,24.001,24.547z"/>
	<polygon fill="#CF7C3F" points="12.892,4.988 12.892,4.988 12.892,4.988 	"/>
</g>
</svg>
