<?xml version="1.0" encoding="utf-8"?>
<!-- Generator: Adobe Illustrator 16.0.0, SVG Export Plug-In . SVG Version: 6.00 Build 0)  -->
<!DOCTYPE svg PUBLIC "-//W3C//DTD SVG 1.1//EN" "http://www.w3.org/Graphics/SVG/1.1/DTD/svg11.dtd">
<svg version="1.1" id="Layer_1" xmlns="http://www.w3.org/2000/svg" xmlns:xlink="http://www.w3.org/1999/xlink" x="0px" y="0px"
	 width="48px" height="48px" viewBox="0 0 48 48" enable-background="new 0 0 48 48" xml:space="preserve">
<g>
	<path fill="#FFBE5C" d="M35.15,1.212c-4.865,0-8.828,3.712-9.086,8.381h9.061c0.508,0,0.934,0.389,0.98,0.896
		c0.057,0.632,0.086,1.269,0.086,1.891c0,2.311-0.4,4.514-1.102,6.554c0.02,0,0.039,0.002,0.061,0.002
		c5.031,0,9.111-3.967,9.111-8.862C44.262,5.18,40.182,1.212,35.15,1.212z"/>
	<path fill="#CFD0D1" d="M19.69,48c-0.815,0-1.478-0.662-1.478-1.479V30.563c0-0.817,0.662-1.479,1.478-1.479
		c0.816,0,1.478,0.661,1.478,1.479v15.959C21.167,47.338,20.506,48,19.69,48z"/>
	<path fill="#CFD0D1" d="M27.113,48H12.266c-0.816,0-1.478-0.662-1.478-1.479s0.661-1.479,1.478-1.479h14.847
		c0.816,0,1.477,0.662,1.477,1.479S27.93,48,27.113,48z"/>
	<path fill="#F7A93B" d="M35.207,19.915c-0.273,0-0.494-0.221-0.494-0.493c0-0.272,0.221-0.493,0.494-0.493
		c4.752,0,8.619-3.867,8.619-8.62c0-4.752-3.867-8.619-8.619-8.619c-4.754,0-8.621,3.867-8.621,8.619
		c0,0.272-0.221,0.493-0.492,0.493s-0.492-0.221-0.492-0.493c0-5.296,4.309-9.604,9.605-9.604c5.295,0,9.605,4.309,9.605,9.604
		S40.502,19.915,35.207,19.915z"/>
	<path fill="#F7A93B" d="M35.207,10.653c-0.273,0-0.494-0.221-0.494-0.493V1.706c0-0.272,0.221-0.493,0.494-0.493
		c0.271,0,0.492,0.221,0.492,0.493v8.455C35.699,10.432,35.479,10.653,35.207,10.653z"/>
	<path fill="#F7A93B" d="M35.486,10.653c-0.271,0-0.492-0.221-0.492-0.493s0.221-0.493,0.492-0.493h8.275
		c0.271,0,0.492,0.221,0.492,0.493s-0.221,0.493-0.492,0.493H35.486z"/>
	<path fill="#F7A93B" d="M41.723,16.496c-0.125,0-0.242-0.046-0.334-0.131L28.805,4.764c-0.131-0.121-0.154-0.266-0.158-0.342
		s0.01-0.224,0.131-0.354c0.127-0.139,0.281-0.159,0.363-0.159c0.088,0,0.215,0.022,0.332,0.13L42.057,15.64
		c0.131,0.121,0.154,0.267,0.158,0.342c0.004,0.077-0.01,0.224-0.131,0.354C41.959,16.475,41.803,16.496,41.723,16.496z"/>
	<path fill="#F7A93B" d="M35.488,10.367c-0.08,0-0.232-0.02-0.361-0.155c-0.121-0.13-0.135-0.277-0.131-0.353
		c0.002-0.077,0.025-0.223,0.154-0.344l5.842-5.473c0.092-0.086,0.211-0.133,0.336-0.133c0.08,0,0.234,0.021,0.361,0.156
		c0.123,0.129,0.135,0.276,0.133,0.353s-0.025,0.222-0.156,0.344l-5.842,5.473C35.732,10.32,35.613,10.367,35.488,10.367z"/>
	<g>
		<path fill="none" d="M18.978,17.404c-0.188,0.173-0.428,0.258-0.664,0.258c-0.268,0-0.534-0.108-0.728-0.321l-1.566-1.714
			c-1.052,0.1-2.014,0.336-2.758,0.551l-0.404,0.117c-1.361,0.398-2.771,0.806-4.11,0.756c-0.724-0.028-1.363-0.228-1.955-0.607
			c-0.121-0.078-0.235-0.171-0.351-0.263c-0.338-0.267-0.755-0.6-1.322-0.732c-0.525-0.124-1.061,0.204-1.184,0.735
			c-0.124,0.53,0.205,1.06,0.734,1.183c0.137,0.032,0.344,0.197,0.545,0.357c0.168,0.133,0.336,0.265,0.512,0.378
			c0.883,0.567,1.873,0.876,2.94,0.918c1.666,0.064,3.229-0.391,4.742-0.833l0.399-0.116c1.793-0.518,3.127-0.649,4.324-0.426
			c0.941,0.176,1.92,0.69,2.865,1.189c0.426,0.225,0.848,0.447,1.268,0.642c0.697,0.325,1.375,0.45,2.033,0.45
			c1.177,0,2.285-0.402,3.304-0.772c0.723-0.263,1.408-0.511,2.078-0.615c1.627-0.252,2.648-0.042,3.643,0.745
			c0.428,0.339,1.045,0.266,1.385-0.161c0.336-0.427,0.264-1.047-0.162-1.384c-1.443-1.141-2.986-1.483-5.166-1.147
			c-0.861,0.134-1.67,0.427-2.451,0.711c-1.406,0.511-2.621,0.952-3.833,0.388c-0.39-0.182-0.784-0.39-1.181-0.599
			c-0.971-0.511-1.977-1.025-3.07-1.292l0.195,0.213C19.409,16.414,19.379,17.037,18.978,17.404z"/>
	</g>
	<path d="M34.414,13.118"/>
	<path fill="#274D57" d="M5.034,0.413C4.715-0.031,4.1-0.133,3.659,0.183C3.215,0.5,3.112,1.115,3.428,1.558l5.738,8.036h2.421
		L5.034,0.413z"/>
	<path fill="#CFD0D1" d="M36.105,10.489c-0.047-0.507-0.473-0.896-0.98-0.896H11.587l5.309,7.434l0,0l0.43,0.603
		c0.315,0.442,0.214,1.058-0.229,1.374c-0.174,0.124-0.374,0.184-0.572,0.184c-0.307,0-0.609-0.144-0.803-0.413L9.167,9.593h-4.91
		c-0.508,0-0.935,0.388-0.981,0.895c-0.058,0.623-0.087,1.259-0.087,1.892c0,10.14,7.404,18.389,16.502,18.389
		c9.099,0,16.501-8.249,16.501-18.389C36.191,11.758,36.162,11.122,36.105,10.489z"/>
	<path fill="#F7A93B" d="M30.695,18.019c-0.758,0.106-1.52,0.357-2.324,0.623c-1.105,0.364-2.307,0.76-3.579,0.76
		c-0.7,0-1.423-0.121-2.163-0.434c-0.459-0.194-0.922-0.415-1.391-0.639c-1.051-0.503-2.139-1.023-3.2-1.203
		c-0.382-0.064-0.764-0.092-1.143-0.1l0.43,0.603c0.315,0.442,0.214,1.058-0.229,1.374c-0.174,0.124-0.374,0.184-0.572,0.184
		c-0.307,0-0.609-0.144-0.803-0.413l-1.1-1.542c-0.512,0.095-0.996,0.208-1.434,0.323l-0.438,0.117
		c-1.653,0.438-3.358,0.887-5.163,0.826c-0.498-0.018-0.975-0.094-1.438-0.209c2.105,6.138,7.373,10.508,13.541,10.508
		c6.242,0,11.56-4.476,13.613-10.729C32.574,17.885,31.75,17.872,30.695,18.019z"/>
	<circle fill="#FFFFFF" cx="11.494" cy="21.46" r="0.548"/>
	<circle fill="#FFFFFF" cx="26.683" cy="22.904" r="0.548"/>
	<circle fill="#FFFFFF" cx="19.413" cy="25.693" r="0.959"/>
</g>
</svg>
