<?xml version="1.0" encoding="utf-8"?>
<!-- Generator: Adobe Illustrator 16.0.0, SVG Export Plug-In . SVG Version: 6.00 Build 0)  -->
<!DOCTYPE svg PUBLIC "-//W3C//DTD SVG 1.1//EN" "http://www.w3.org/Graphics/SVG/1.1/DTD/svg11.dtd">
<svg version="1.1" id="Layer_1" xmlns="http://www.w3.org/2000/svg" xmlns:xlink="http://www.w3.org/1999/xlink" x="0px" y="0px"
	 width="48px" height="48px" viewBox="0 0 48 48" enable-background="new 0 0 48 48" xml:space="preserve">
<g>
	<path fill="#00B99B" d="M35.668,2.345H24.733c-0.518,0-0.938,0.419-0.938,0.937s0.42,0.937,0.938,0.937v4.245
		c-0.518,0-0.938,0.419-0.938,0.937s0.42,0.938,0.938,0.938h10.935c0.518,0,0.938-0.42,0.938-0.938V3.281
		C36.605,2.764,36.186,2.345,35.668,2.345z"/>
	<path fill="#274D57" d="M24,15.938c-0.518,0-0.938-0.419-0.938-0.937V0.937C23.063,0.419,23.483,0,24,0s0.938,0.419,0.938,0.937
		v14.064C24.938,15.519,24.518,15.938,24,15.938z"/>
	<polygon fill="#5A7478" points="39.977,48 8.024,48 14.997,37.375 33.004,37.375 	"/>
	<path fill="#FB4732" d="M46.465,46.892l-3.561-19.148c0.086-0.142,0.137-0.309,0.137-0.487v-11.32c0-0.518-0.422-0.937-0.938-0.937
		h-7.957c-0.518,0-0.938,0.419-0.938,0.937v4.723h-4.293v-4.723c0-0.518-0.42-0.937-0.938-0.937h-7.957
		c-0.518,0-0.938,0.419-0.938,0.937v4.723h-4.294v-4.723c0-0.518-0.419-0.937-0.937-0.937H5.896c-0.517,0-0.937,0.419-0.937,0.937
		v11.32c0,0.179,0.049,0.346,0.137,0.487L1.534,46.892c-0.051,0.273,0.023,0.556,0.2,0.771C1.913,47.876,2.175,48,2.456,48h5.596
		c-0.057-0.593-0.086-1.192-0.086-1.801v-3.515c0-9.586,7.215-17.43,16.035-17.43c8.818,0,16.033,7.844,16.033,17.43v3.515
		c0,0.608-0.029,1.208-0.086,1.801h5.598c0.279,0,0.541-0.124,0.721-0.338C46.443,47.447,46.518,47.165,46.465,46.892z"/>
	<rect x="23.175" y="38.022" fill="#FFFFFF" width="1.649" height="2.183"/>
	<rect x="23.175" y="42.899" fill="#FFFFFF" width="1.649" height="4.275"/>
</g>
</svg>
