<?xml version="1.0" encoding="utf-8"?>
<!-- Generator: Adobe Illustrator 16.0.0, SVG Export Plug-In . SVG Version: 6.00 Build 0)  -->
<!DOCTYPE svg PUBLIC "-//W3C//DTD SVG 1.1//EN" "http://www.w3.org/Graphics/SVG/1.1/DTD/svg11.dtd">
<svg version="1.1" id="Layer_1" xmlns="http://www.w3.org/2000/svg" xmlns:xlink="http://www.w3.org/1999/xlink" x="0px" y="0px"
	 width="48px" height="48px" viewBox="0 0 48 48" enable-background="new 0 0 48 48" xml:space="preserve">
<g>
	<path fill="#FFBE5C" d="M46.979,30.145H1c-0.554,0-1,0.514-1,1.146v15.563C0,47.486,0.447,48,1,48h5.91c0.553,0,1-0.514,1-1.146
		v-2.898h32.158v2.898c0,0.633,0.447,1.146,1,1.146h5.911c0.554,0,1-0.514,1-1.146V31.291
		C47.979,30.658,47.533,30.145,46.979,30.145z"/>
	<path fill="#00B99B" d="M47.768,26.623l-3.689-7.606c-0.178-0.363-0.512-0.588-0.875-0.588H4.776c-0.361,0-0.697,0.226-0.874,0.588
		l-3.776,7.782c-0.172,0.355-0.167,0.789,0.013,1.139C0.317,28.288,0.646,28.503,1,28.503h45.979c0.008,0,0.015-0.001,0.021,0
		c0.553,0,1-0.514,1-1.146C48,27.078,47.914,26.822,47.768,26.623z"/>
	<rect x="9.436" y="8.985" fill="#009079" width="12.323" height="7.521"/>
	<rect x="25.938" y="8.985" fill="#009079" width="12.324" height="7.521"/>
	<path fill="#FFBE5C" d="M43.666,5.897C22.572-7.33,4.432,5.807,4.251,5.94C3.967,6.152,3.795,6.515,3.795,6.902v10.208h2h2.025
		V9.106c0-0.95,0.671-1.719,1.5-1.719h12.554c0.826,0,1.499,0.769,1.499,1.719v8.004h0.943V9.106c0-0.95,0.671-1.719,1.498-1.719
		h12.555c0.827,0,1.5,0.769,1.5,1.719v8.004h2.316h2V6.902C44.186,6.483,43.986,6.099,43.666,5.897z"/>
</g>
</svg>
