<?xml version="1.0" encoding="utf-8"?>
<!-- Generator: Adobe Illustrator 16.0.0, SVG Export Plug-In . SVG Version: 6.00 Build 0)  -->
<!DOCTYPE svg PUBLIC "-//W3C//DTD SVG 1.1//EN" "http://www.w3.org/Graphics/SVG/1.1/DTD/svg11.dtd">
<svg version="1.1" id="Layer_1" xmlns="http://www.w3.org/2000/svg" xmlns:xlink="http://www.w3.org/1999/xlink" x="0px" y="0px"
	 width="48px" height="48px" viewBox="0 0 48 48" enable-background="new 0 0 48 48" xml:space="preserve">
<g>
	<rect x="11.206" y="4.671" fill="#00B99B" width="24.167" height="34.833"/>
	<path fill="#5A7478" d="M33.455,0h-18.91c-2.993,0-5.428,2.434-5.428,5.428v37.145c0,2.992,2.435,5.428,5.428,5.428h18.91
		c2.993,0,5.428-2.436,5.428-5.428V5.428C38.883,2.434,36.448,0,33.455,0z M34.117,37.123c0,0.553-0.447,1-1,1H14.883
		c-0.553,0-1-0.447-1-1V8.32c0-0.553,0.447-1,1-1h18.234c0.553,0,1,0.447,1,1V37.123z"/>
	<g>
		<path fill="#FFFFFF" d="M26.433,26.293c-0.554,0-1-0.447-1-1c0-0.789-0.643-1.432-1.433-1.432c-0.789,0-1.432,0.643-1.432,1.432
			c0,0.553-0.447,1-1,1s-1-0.447-1-1c0-1.893,1.539-3.432,3.432-3.432s3.433,1.539,3.433,3.432
			C27.433,25.846,26.984,26.293,26.433,26.293z"/>
		<circle fill="#FFFFFF" cx="24" cy="25.527" r="0.549"/>
		<path fill="#FFFFFF" d="M30.178,26.924c-0.553,0-1-0.447-1-1c0-2.854-2.322-5.176-5.178-5.176s-5.178,2.322-5.178,5.176
			c0,0.553-0.447,1-1,1s-1-0.447-1-1c0-3.957,3.219-7.176,7.178-7.176c3.958,0,7.178,3.219,7.178,7.176
			C31.178,26.477,30.73,26.924,30.178,26.924z"/>
	</g>
	<path fill="#CFD0D1" d="M22.965,41.027c-0.553,0-1,0.447-1,1s0.447,1,1,1h2.07c0.553,0,1-0.447,1-1s-0.447-1-1-1H22.965z"/>
	<rect x="19.656" y="3.063" fill="#CFD0D1" width="8.688" height="0.813"/>
</g>
</svg>
