<?xml version="1.0" encoding="utf-8"?>
<!-- Generator: Adobe Illustrator 16.0.0, SVG Export Plug-In . SVG Version: 6.00 Build 0)  -->
<!DOCTYPE svg PUBLIC "-//W3C//DTD SVG 1.1//EN" "http://www.w3.org/Graphics/SVG/1.1/DTD/svg11.dtd">
<svg version="1.1" id="Layer_1" xmlns="http://www.w3.org/2000/svg" xmlns:xlink="http://www.w3.org/1999/xlink" x="0px" y="0px"
	 width="48px" height="48px" viewBox="0 0 48 48" enable-background="new 0 0 48 48" xml:space="preserve">
<g>
	<rect x="19.658" fill="#274D57" width="8.953" height="11.325"/>
	<polygon fill="#00718D" points="36.701,48 23.973,48 23.973,18.337 41.395,23.03 	"/>
	<polygon fill="#008AAC" points="11.299,48 24.027,48 24.027,18.337 6.605,23.03 	"/>
	<polygon fill="#F7A93B" points="11.353,9.168 11.353,21.751 23.973,18.352 23.973,18.337 24,18.344 24.027,18.337 24.027,18.352 
		36.81,21.795 36.81,9.168 	"/>
	<rect x="33.774" y="11.325" fill="#DD2B00" width="1.138" height="5.874"/>
	<rect x="29.669" y="11.325" fill="#DD2B00" width="1.138" height="5.874"/>
	<rect x="25.564" y="11.325" fill="#DD2B00" width="1.138" height="5.874"/>
	<rect x="21.459" y="11.325" fill="#DD2B00" width="1.138" height="5.874"/>
	<rect x="17.354" y="11.325" fill="#DD2B00" width="1.138" height="5.874"/>
	<rect x="13.25" y="11.325" fill="#DD2B00" width="1.138" height="5.874"/>
	<rect x="25.751" y="1.492" fill="#ECECEC" width="1.138" height="6.347"/>
	<rect x="21.381" y="1.492" fill="#ECECEC" width="1.138" height="6.347"/>
</g>
</svg>
