<?xml version="1.0" encoding="utf-8"?>
<!-- Generator: Adobe Illustrator 16.0.0, SVG Export Plug-In . SVG Version: 6.00 Build 0)  -->
<!DOCTYPE svg PUBLIC "-//W3C//DTD SVG 1.1//EN" "http://www.w3.org/Graphics/SVG/1.1/DTD/svg11.dtd">
<svg version="1.1" id="Layer_1" xmlns="http://www.w3.org/2000/svg" xmlns:xlink="http://www.w3.org/1999/xlink" x="0px" y="0px"
	 width="48px" height="48px" viewBox="0 0 48 48" enable-background="new 0 0 48 48" xml:space="preserve">
<g>
	<path fill="#274D57" d="M27.055,37.683c-0.146,0-0.293-0.021-0.436-0.064c-0.388-0.117-0.71-0.387-0.896-0.746L8.926,4.447H4.449
		c-0.828,0-1.5-0.671-1.5-1.5s0.672-1.5,1.5-1.5h5.389c0.561,0,1.074,0.313,1.332,0.81l16.509,31.869l11.977-6.594
		c0.725-0.398,1.639-0.136,2.037,0.591c0.4,0.726,0.135,1.638-0.59,2.038l-13.324,7.336C27.555,37.62,27.306,37.683,27.055,37.683z"
		/>
	<path fill="#D7B353" d="M44.935,22.395L33.432,0.535c-0.123-0.234-0.335-0.411-0.588-0.489c-0.257-0.08-0.529-0.054-0.763,0.07
		L16.714,8.205c-0.488,0.257-0.677,0.862-0.419,1.351l11.504,21.86c0.123,0.234,0.335,0.41,0.588,0.489
		c0.098,0.03,0.197,0.045,0.297,0.045c0.161,0,0.321-0.038,0.466-0.115l15.367-8.089C45.005,23.488,45.192,22.883,44.935,22.395z"/>
	<path fill="#AEB4AD" d="M33.006,37.053c-3.018,0-5.473,2.456-5.473,5.474S29.988,48,33.006,48c3.019,0,5.475-2.456,5.475-5.474
		S36.024,37.053,33.006,37.053z"/>
	<path fill="#FFBE5C" d="M44.935,22.395L33.432,0.535c-0.123-0.234-0.335-0.411-0.588-0.489c-0.257-0.08-0.529-0.054-0.763,0.07
		L16.714,8.205c-0.488,0.257-0.677,0.862-0.419,1.351l11.504,21.86c0.123,0.234,0.335,0.41,0.588,0.489
		c0.098,0.03,0.197,0.045,0.297,0.045c0.161,0,0.321-0.038,0.466-0.115l15.367-8.089C45.005,23.488,45.192,22.883,44.935,22.395z"/>
	<path fill="#00B99B" d="M33.006,37.053c-3.018,0-5.473,2.456-5.473,5.474S29.988,48,33.006,48c3.019,0,5.475-2.456,5.475-5.474
		S36.024,37.053,33.006,37.053z"/>
</g>
</svg>
