<?xml version="1.0" encoding="utf-8"?>
<!-- Generator: Adobe Illustrator 16.0.0, SVG Export Plug-In . SVG Version: 6.00 Build 0)  -->
<!DOCTYPE svg PUBLIC "-//W3C//DTD SVG 1.1//EN" "http://www.w3.org/Graphics/SVG/1.1/DTD/svg11.dtd">
<svg version="1.1" id="Layer_1" xmlns="http://www.w3.org/2000/svg" xmlns:xlink="http://www.w3.org/1999/xlink" x="0px" y="0px"
	 width="48px" height="48px" viewBox="0 0 48 48" enable-background="new 0 0 48 48" xml:space="preserve">
<g>
	<path fill="#CFD0D1" d="M37.418,0.206c-0.553,0-1,0.447-1,1v4.046v0.653v5.794c0,0.699,0.447,0.766,1,0.766s1-0.066,1-0.766V5.905
		V5.252V1.206C38.418,0.653,37.971,0.206,37.418,0.206z"/>
	<path fill="#00B99B" d="M0,42.94c0,2.676,1.826,4.854,4.07,4.854h39.86c2.243,0,4.07-2.178,4.07-4.854V16.914H0V42.94z"/>
	<path fill="#FFB241" d="M43.93,5.905h-5.512v5.512c0,0.553-0.447,1-1,1s-1-0.447-1-1V5.905H11.584v5.512c0,0.553-0.447,1-1,1
		s-1-0.447-1-1V5.905H4.07C1.826,5.905,0,8.083,0,10.761v4.566h48v-4.566C48,8.083,46.174,5.905,43.93,5.905z"/>
	<path fill="#CFD0D1" d="M10.584,0.206c-0.553,0-1,0.447-1,1v4.046v0.653v5.794c0,0.699,0.447,0.766,1,0.766s1-0.066,1-0.766V5.905
		V5.252V1.206C11.584,0.653,11.137,0.206,10.584,0.206z"/>
	<rect y="14.089" fill="#274D57" width="48" height="3.238"/>
	<path fill="#274D57" d="M11.584,10.799v0.672c0,0.553-0.447,1-1,1s-1-0.447-1-1V10.8c-0.31,0.226-0.508,0.552-0.508,0.919
		c0,0.683,0.675,1.236,1.508,1.236s1.509-0.554,1.509-1.236C12.093,11.352,11.894,11.025,11.584,10.799z"/>
	<path fill="#274D57" d="M38.418,10.799v0.672c0,0.553-0.447,1-1,1s-1-0.447-1-1V10.8c-0.311,0.226-0.508,0.552-0.508,0.919
		c0,0.683,0.674,1.236,1.508,1.236c0.833,0,1.508-0.554,1.508-1.236C38.926,11.352,38.728,11.025,38.418,10.799z"/>
	<g>
		<path fill="#FFFFFF" d="M17.371,26.193h-0.045l-2.535,1.368l-0.38-1.503l3.185-1.705h1.683v14.581h-1.907V26.193z"/>
		<path fill="#FFFFFF" d="M33.298,26.014h-5.563l-0.562,3.746c0.337-0.045,0.651-0.09,1.188-0.09c1.122,0,2.244,0.247,3.142,0.785
			c1.144,0.65,2.085,1.906,2.085,3.745c0,2.85-2.265,4.98-5.428,4.98c-1.593,0-2.938-0.448-3.634-0.896l0.493-1.504
			c0.605,0.359,1.795,0.809,3.118,0.809c1.861,0,3.454-1.212,3.454-3.164c-0.021-1.884-1.278-3.229-4.193-3.229
			c-0.831,0-1.48,0.09-2.02,0.157l0.941-6.999h6.977V26.014z"/>
	</g>
</g>
</svg>
