<?xml version="1.0" encoding="utf-8"?>
<!-- Generator: Adobe Illustrator 16.0.0, SVG Export Plug-In . SVG Version: 6.00 Build 0)  -->
<!DOCTYPE svg PUBLIC "-//W3C//DTD SVG 1.1//EN" "http://www.w3.org/Graphics/SVG/1.1/DTD/svg11.dtd">
<svg version="1.1" id="Layer_1" xmlns="http://www.w3.org/2000/svg" xmlns:xlink="http://www.w3.org/1999/xlink" x="0px" y="0px"
	 width="48px" height="48px" viewBox="0 0 48 48" enable-background="new 0 0 48 48" xml:space="preserve">
<g>
	<path fill="#274D57" d="M47.941,34.994c-0.143-0.398-0.52-0.664-0.941-0.664H1c-0.422,0-0.799,0.266-0.941,0.664
		s-0.018,0.843,0.309,1.11l8.236,6.73c0.18,0.146,0.402,0.226,0.633,0.226h29.527c0.23,0,0.453-0.08,0.633-0.226l8.236-6.73
		C47.959,35.837,48.084,35.393,47.941,34.994z"/>
	<path fill="#FFBE5C" d="M42.766,8.113c-0.627-0.432-1.447-0.622-1.963-0.702c-0.01-0.021-0.02-0.044-0.029-0.066
		c-0.426-0.899-1.139-2.405-2.441-2.405c-0.24,0-0.479,0.055-0.709,0.163c-1.381,0.65-1.381,1.911-1.379,2.745
		c0,0.258,0,0.501-0.031,0.706c-0.021,0.138-0.031,0.268-0.043,0.391c-0.039,0.475-0.074,0.885-3.317,2.539
		c-2.135,1.088-5.86,3.43-6.831,6.88c-0.487,1.732-0.203,3.475,0.845,5.181c0.958,1.561,2.473,2.419,4.267,2.419h0.001
		c2.878,0,5.923-2.242,6.792-4.999c0.592-1.886,0.596-3.91,0.6-5.539c0-1.334,0.004-2.716,0.377-3.12
		c0.504-0.548,1.236-0.623,1.953-0.623l0.668,0.007c0.215,0,0.465-0.007,0.697-0.063c0.686-0.169,1.199-0.744,1.338-1.502
		C43.705,9.336,43.393,8.547,42.766,8.113z"/>
	<path fill="#E77428" d="M30.973,27.48C30.972,27.48,30.972,27.48,30.973,27.48c-2.145,0-3.955-1.027-5.101-2.892
		c-1.251-2.038-1.591-4.12-1.009-6.189c0.779-2.769,3.041-4.936,5.216-6.457c-1.055-0.412-2.161-0.627-3.305-0.627
		c-5.274,0-9.605,4.331-9.758,4.487c-8.04,6.933-11.483,7.682-12.591,7.682c-0.197,0-0.299-0.026-0.307-0.026v0.001l-0.709-0.33v4.3
		l0.42,0.069c5.184,0.855,7.09,2.372,7.777,3.493c0.552,0.902,0.348,1.605,0.333,1.652l-0.231,0.662l29.447-0.1l0.15-0.181
		c2.438-2.943,1.41-9.312,1.348-9.654c-0.705-2.16-1.754-3.917-2.941-5.347c-0.09,1.147-0.266,2.336-0.625,3.481
		C38.051,24.801,34.411,27.48,30.973,27.48z"/>
</g>
</svg>
