<?xml version="1.0" encoding="utf-8"?>
<!-- Generator: Adobe Illustrator 16.0.0, SVG Export Plug-In . SVG Version: 6.00 Build 0)  -->
<!DOCTYPE svg PUBLIC "-//W3C//DTD SVG 1.1//EN" "http://www.w3.org/Graphics/SVG/1.1/DTD/svg11.dtd">
<svg version="1.1" id="Layer_1" xmlns="http://www.w3.org/2000/svg" xmlns:xlink="http://www.w3.org/1999/xlink" x="0px" y="0px"
	 width="48px" height="48px" viewBox="0 0 48 48" enable-background="new 0 0 48 48" xml:space="preserve">
<g>
	<path fill="#FFD699" d="M21.795,2.221c-13.916,11.771-9.834,26.081-8.332,30.034l5.236-2.074c0.466-0.184,0.717-0.672,0.589-1.141
		c-0.05-0.179-4.791-18.01,2.545-25.453c0.323-0.329,0.366-0.833,0.104-1.21C21.896,2.318,21.846,2.268,21.795,2.221z"/>
	<path fill="#FFD699" d="M21.719,2.157c-0.275-0.205-0.648-0.264-0.984-0.134C20.163,2.247,6.655,7.609,2.741,18.305
		c-1.898,5.187-1.189,10.719,2.105,16.443c0.182,0.315,0.521,0.497,0.875,0.497c0.126,0,0.254-0.023,0.379-0.072l2.969-1.177
		C2.252,13.693,18.932,3.667,21.719,2.157z"/>
	<path fill="#FB4732" d="M21.795,2.221c-0.024-0.022-0.049-0.044-0.076-0.063C18.932,3.667,2.252,13.693,9.069,33.996l4.395-1.741
		C11.961,28.302,7.879,13.991,21.795,2.221z"/>
	<path fill="#00718D" d="M22.112,36.872c-0.553,0-1-0.434-1-0.967V0.967c0-0.534,0.447-0.967,1-0.967c0.554,0,1,0.433,1,0.967
		v34.938C23.112,36.438,22.666,36.872,22.112,36.872z"/>
	<path fill="#00B99B" d="M31.635,42.858c-0.276-0.152-0.529-0.307-0.763-0.455c-0.558-0.354-0.926-0.588-1.545-0.642
		c-1.131-0.101-2.255,0.396-3.197,0.894c-0.117,0.063-0.23,0.137-0.346,0.203c-0.23,0.133-0.459,0.263-0.688,0.402
		c-1.067,0.656-2.276,1.4-3.801,1.463c-1.693,0.062-3.198-0.689-4.443-1.439c-0.26-0.156-0.516-0.289-0.771-0.426
		c-2.75-1.468-5.247-1.796-7.427-0.945c-0.615,0.24-1.061,0.555-1.482,0.945c-0.316,0.295-0.623,0.636-0.971,1.035
		c2.357,1.43,5.516,2.511,9.689,2.511c7.246,0,13.446-1.216,18.391-2.755c-0.828-0.09-1.666-0.277-2.457-0.685
		C31.756,42.93,31.698,42.894,31.635,42.858z"/>
	<path fill="#00B99B" d="M47.946,36.305c-0.137-0.393-0.518-0.656-0.945-0.656H1c-0.324,0-0.627,0.151-0.814,0.405
		c-0.188,0.256-0.236,0.582-0.131,0.878c0.02,0.055,1.191,3.18,4.52,5.825l0.02-0.021c0.168-0.192,0.33-0.379,0.494-0.561
		c0.75-0.833,1.523-1.549,2.818-2.055c2.965-1.156,6.424-0.631,10.002,1.522c0.987,0.595,2.146,1.194,3.303,1.149
		c0.988-0.041,1.875-0.586,2.813-1.162c0.379-0.234,0.758-0.466,1.147-0.672c1.137-0.6,2.651-1.269,4.336-1.123
		c1.119,0.098,1.803,0.533,2.463,0.953c0.242,0.152,0.496,0.315,0.794,0.47c0.771,0.396,1.692,0.5,2.633,0.529
		c0.333,0.011,0.669,0.013,1.003,0.013c0.002,0,0.006,0,0.007,0c1.136,0,2.181-0.539,3.29-1.109c1.288-0.664,2.617-1.346,4.25-1.296
		c0.107,0.004,0.203,0.036,0.299,0.069c2.055-1.129,3.217-1.973,3.363-2.082C47.948,37.13,48.085,36.696,47.946,36.305z"/>
	<path fill="#00718D" d="M44.245,39.464c-0.096-0.033-0.191-0.065-0.299-0.069c-1.633-0.05-2.962,0.632-4.25,1.296
		c-1.109,0.57-2.154,1.109-3.29,1.109c-0.001,0-0.005,0-0.007,0c-0.334,0-0.67-0.002-1.003-0.013
		c-0.94-0.029-1.861-0.133-2.633-0.529c-0.298-0.154-0.552-0.317-0.794-0.47c-0.66-0.42-1.344-0.855-2.463-0.953
		c-1.685-0.146-3.199,0.523-4.336,1.123c-0.389,0.206-0.768,0.438-1.147,0.672c-0.938,0.576-1.824,1.121-2.813,1.162
		c-1.157,0.045-2.315-0.555-3.303-1.149c-3.578-2.153-7.037-2.679-10.002-1.522c-1.295,0.506-2.068,1.222-2.818,2.055
		c-0.164,0.182-0.326,0.368-0.494,0.561l-0.02,0.021l-0.158,0.183c-0.283,0.324-0.583,0.788-0.898,1.278
		c-0.365,0.563-1.123,1.736-1.488,1.888c-0.525,0.149-0.83,0.682-0.678,1.193C1.477,47.723,1.876,48,2.313,48
		c0.09,0,0.184-0.013,0.274-0.038c1.056-0.291,1.854-1.525,2.625-2.72c0.279-0.431,0.542-0.837,0.733-1.058l0.181-0.207
		c0.026-0.03,0.05-0.055,0.075-0.084c0.348-0.399,0.654-0.74,0.971-1.035c0.422-0.391,0.867-0.705,1.482-0.945
		c2.18-0.851,4.677-0.522,7.427,0.945c0.255,0.137,0.511,0.27,0.771,0.426c1.245,0.75,2.75,1.501,4.443,1.439
		c1.525-0.063,2.734-0.807,3.801-1.463c0.229-0.14,0.457-0.27,0.688-0.402c0.115-0.066,0.229-0.141,0.346-0.203
		c0.942-0.498,2.066-0.994,3.197-0.894c0.619,0.054,0.987,0.288,1.545,0.642c0.233,0.148,0.486,0.303,0.763,0.455
		c0.063,0.035,0.121,0.071,0.19,0.106c0.791,0.407,1.629,0.595,2.457,0.685c0.723,0.078,1.439,0.083,2.113,0.084
		c1.625,0.021,3.021-0.708,4.24-1.337c1.105-0.568,2.14-1.116,3.24-1.069c0.562,0.02,1.016-0.398,1.034-0.933
		C44.926,39.964,44.644,39.602,44.245,39.464z"/>
</g>
</svg>
