<?xml version="1.0" encoding="utf-8"?>
<!-- Generator: Adobe Illustrator 16.0.0, SVG Export Plug-In . SVG Version: 6.00 Build 0)  -->
<!DOCTYPE svg PUBLIC "-//W3C//DTD SVG 1.1//EN" "http://www.w3.org/Graphics/SVG/1.1/DTD/svg11.dtd">
<svg version="1.1" id="Layer_1" xmlns="http://www.w3.org/2000/svg" xmlns:xlink="http://www.w3.org/1999/xlink" x="0px" y="0px"
	 width="48px" height="48px" viewBox="0 0 48 48" enable-background="new 0 0 48 48" xml:space="preserve">
<g>
	<path fill="#F7A93B" d="M24,9.844C16.194,9.844,9.844,16.194,9.844,24S16.194,38.156,24,38.156c7.806,0,14.156-6.351,14.156-14.156
		S31.807,9.844,24,9.844z"/>
	<path fill="#FFBE5C" d="M24,7.406c0.271,0,0.49-0.219,0.49-0.49V1.901c0-0.271-0.22-0.49-0.49-0.49
		c-0.271,0-0.491,0.219-0.491,0.49v5.016C23.509,7.187,23.729,7.406,24,7.406z"/>
	<path fill="#FFBE5C" d="M24,40.594c-0.271,0-0.491,0.22-0.491,0.489V46.1c0,0.271,0.22,0.489,0.491,0.489
		c0.271,0,0.49-0.219,0.49-0.489v-5.017C24.491,40.813,24.271,40.594,24,40.594z"/>
	<path fill="#FFBE5C" d="M27.953,7.885c0.039,0.01,0.078,0.014,0.117,0.014c0.221,0,0.42-0.149,0.476-0.373l1.698-6.919
		c0.064-0.263-0.096-0.527-0.357-0.592c-0.264-0.063-0.529,0.096-0.594,0.359l-1.699,6.919C27.529,7.555,27.691,7.82,27.953,7.885z"
		/>
	<path fill="#FFBE5C" d="M20.043,40.115c-0.263-0.065-0.527,0.097-0.593,0.359l-1.696,6.919c-0.064,0.263,0.098,0.527,0.358,0.592
		C18.153,47.995,18.192,48,18.23,48c0.221,0,0.421-0.149,0.477-0.373l1.696-6.919C20.467,40.444,20.307,40.18,20.043,40.115z"/>
	<path fill="#FFBE5C" d="M41.083,23.51c-0.271,0-0.49,0.219-0.49,0.49s0.22,0.49,0.49,0.49h5.015c0.271,0,0.489-0.219,0.489-0.49
		s-0.218-0.49-0.489-0.49H41.083z"/>
	<path fill="#FFBE5C" d="M6.917,23.51H1.901c-0.271,0-0.488,0.219-0.488,0.49s0.218,0.49,0.488,0.49h5.016
		c0.271,0,0.489-0.219,0.489-0.49S7.188,23.51,6.917,23.51z"/>
	<path fill="#FFBE5C" d="M47.626,29.295l-6.919-1.699c-0.265-0.063-0.529,0.097-0.594,0.359s0.098,0.527,0.359,0.593l6.92,1.698
		c0.039,0.01,0.078,0.015,0.117,0.015c0.22,0,0.42-0.15,0.477-0.373C48.05,29.625,47.889,29.359,47.626,29.295z"/>
	<path fill="#FFBE5C" d="M7.292,20.404c0.04,0.009,0.079,0.014,0.117,0.014c0.221,0,0.421-0.149,0.476-0.373
		c0.064-0.263-0.096-0.527-0.359-0.592l-6.92-1.698c-0.263-0.063-0.527,0.096-0.593,0.358c-0.063,0.263,0.097,0.528,0.36,0.593
		L7.292,20.404z"/>
	<path fill="#FFBE5C" d="M32.288,9.625c0.077,0.044,0.161,0.065,0.243,0.065c0.169,0,0.334-0.088,0.426-0.245L35.462,5.1
		c0.135-0.234,0.056-0.533-0.179-0.669c-0.236-0.135-0.534-0.055-0.67,0.18l-2.506,4.346C31.973,9.19,32.053,9.49,32.288,9.625z"/>
	<path fill="#FFBE5C" d="M15.711,38.375c-0.234-0.136-0.533-0.056-0.669,0.18L12.538,42.9c-0.135,0.234-0.055,0.533,0.18,0.669
		c0.076,0.044,0.16,0.065,0.244,0.065c0.169,0,0.334-0.088,0.424-0.245l2.506-4.346C16.026,38.81,15.946,38.51,15.711,38.375z"/>
	<path fill="#FFBE5C" d="M35.477,12.015c0.094,0.091,0.216,0.136,0.337,0.136c0.129,0,0.258-0.05,0.354-0.151l4.929-5.145
		c0.188-0.195,0.18-0.505-0.015-0.692c-0.196-0.187-0.506-0.181-0.693,0.015l-4.927,5.146C35.273,11.518,35.28,11.828,35.477,12.015
		z"/>
	<path fill="#FFBE5C" d="M12.524,35.985c-0.195-0.188-0.506-0.181-0.691,0.016l-4.928,5.145c-0.188,0.196-0.182,0.506,0.014,0.693
		c0.095,0.091,0.217,0.136,0.34,0.136c0.129,0,0.258-0.051,0.354-0.151l4.928-5.146C12.725,36.482,12.718,36.173,12.524,35.985z"/>
	<path fill="#FFBE5C" d="M43.391,34.614l-4.348-2.505c-0.234-0.136-0.534-0.055-0.668,0.18c-0.135,0.234-0.055,0.534,0.179,0.669
		l4.347,2.505c0.078,0.045,0.162,0.065,0.245,0.065c0.168,0,0.333-0.088,0.425-0.245C43.705,35.049,43.625,34.749,43.391,34.614z"/>
	<path fill="#FFBE5C" d="M4.612,13.386l4.345,2.506c0.077,0.044,0.16,0.065,0.243,0.065c0.17,0,0.334-0.088,0.426-0.245
		c0.134-0.234,0.054-0.534-0.18-0.669L5.1,12.537c-0.234-0.135-0.533-0.055-0.668,0.18C4.296,12.951,4.376,13.251,4.612,13.386z"/>
	<path fill="#FFBE5C" d="M36.678,35.461c-0.195-0.187-0.504-0.181-0.691,0.015S35.805,35.981,36,36.169l5.146,4.928
		c0.095,0.091,0.217,0.136,0.338,0.136c0.129,0,0.258-0.051,0.354-0.151c0.188-0.195,0.181-0.505-0.013-0.692L36.678,35.461z"/>
	<path fill="#FFBE5C" d="M11.323,12.539c0.095,0.091,0.218,0.137,0.34,0.137c0.129,0,0.258-0.051,0.354-0.151
		c0.188-0.195,0.18-0.505-0.016-0.692L6.854,6.904C6.659,6.717,6.348,6.724,6.163,6.919C5.975,7.114,5.981,7.425,6.176,7.611
		L11.323,12.539z"/>
	<path fill="#FFBE5C" d="M38.271,15.536c0.092,0.154,0.256,0.24,0.422,0.24c0.086,0,0.172-0.022,0.249-0.068l4.315-2.558
		c0.232-0.138,0.309-0.438,0.171-0.671c-0.138-0.233-0.438-0.31-0.671-0.172l-4.314,2.558
		C38.211,15.003,38.134,15.303,38.271,15.536z"/>
	<path fill="#FFBE5C" d="M9.727,32.463c-0.137-0.232-0.438-0.31-0.67-0.171l-4.315,2.559c-0.232,0.138-0.31,0.438-0.171,0.671
		c0.092,0.154,0.254,0.239,0.421,0.239c0.085,0,0.172-0.021,0.25-0.068l4.315-2.559C9.79,32.996,9.866,32.696,9.727,32.463z"/>
	<path fill="#FFBE5C" d="M39.877,19.182c0.064,0.212,0.26,0.349,0.469,0.349c0.047,0,0.096-0.007,0.142-0.021l6.821-2.068
		c0.258-0.079,0.404-0.352,0.325-0.611c-0.077-0.259-0.353-0.405-0.61-0.327l-6.818,2.068
		C39.945,18.649,39.799,18.923,39.877,19.182z"/>
	<path fill="#FFBE5C" d="M8.123,28.817c-0.08-0.259-0.353-0.405-0.612-0.326L0.693,30.56c-0.259,0.078-0.404,0.352-0.327,0.61
		c0.064,0.212,0.26,0.348,0.469,0.348c0.047,0,0.095-0.007,0.143-0.021l6.818-2.068C8.054,29.35,8.2,29.076,8.123,28.817z"/>
	<path fill="#FFBE5C" d="M33.135,38.444c-0.137-0.232-0.438-0.31-0.67-0.172c-0.232,0.139-0.311,0.438-0.173,0.672l2.558,4.314
		c0.092,0.154,0.255,0.24,0.422,0.24c0.086,0,0.171-0.022,0.249-0.069c0.233-0.138,0.311-0.438,0.172-0.671L33.135,38.444z"/>
	<path fill="#FFBE5C" d="M14.866,9.556c0.093,0.154,0.256,0.24,0.423,0.24c0.085,0,0.17-0.022,0.249-0.068
		c0.233-0.138,0.309-0.438,0.171-0.671l-2.56-4.314c-0.137-0.233-0.438-0.31-0.67-0.171c-0.234,0.138-0.311,0.438-0.172,0.671
		L14.866,9.556z"/>
	<path fill="#FFBE5C" d="M29.429,40.205c-0.077-0.259-0.351-0.405-0.611-0.326c-0.257,0.078-0.403,0.352-0.326,0.61l2.069,6.818
		c0.064,0.211,0.258,0.348,0.469,0.348c0.046,0,0.095-0.007,0.142-0.021c0.259-0.078,0.404-0.352,0.327-0.611L29.429,40.205z"/>
	<path fill="#FFBE5C" d="M18.572,7.795c0.065,0.211,0.259,0.348,0.47,0.348c0.046,0,0.094-0.007,0.142-0.021
		c0.259-0.078,0.404-0.352,0.326-0.61l-2.07-6.817c-0.079-0.259-0.353-0.405-0.61-0.327c-0.26,0.079-0.404,0.353-0.327,0.611
		L18.572,7.795z"/>
</g>
</svg>
