<?xml version="1.0" encoding="utf-8"?>
<!-- Generator: Adobe Illustrator 16.0.0, SVG Export Plug-In . SVG Version: 6.00 Build 0)  -->
<!DOCTYPE svg PUBLIC "-//W3C//DTD SVG 1.1//EN" "http://www.w3.org/Graphics/SVG/1.1/DTD/svg11.dtd">
<svg version="1.1" id="Layer_1" xmlns="http://www.w3.org/2000/svg" xmlns:xlink="http://www.w3.org/1999/xlink" x="0px" y="0px"
	 width="48px" height="48px" viewBox="0 0 48 48" enable-background="new 0 0 48 48" xml:space="preserve">
<g>
	<path fill="#CFD0D1" d="M24,10.761c-10.625,0-19.27,8.259-19.27,18.411c0,0.511,0.415,0.925,0.925,0.925h36.688
		c0.512,0,0.926-0.414,0.926-0.925C43.27,19.021,34.625,10.761,24,10.761z"/>
	<path fill="#CFD0D1" d="M24,0c-2.583,0-4.684,2.021-4.684,4.506c0,2.486,2.101,4.508,4.684,4.508c2.582,0,4.683-2.022,4.683-4.508
		C28.684,2.021,26.582,0,24,0z"/>
	<path fill="#F7A93B" d="M41.387,36.143c-0.371-0.691-1.182-1.088-2.227-1.088c-0.814,0-1.9,0.261-2.506,0.993
		c-0.738,0.894-1.992,1.439-3.582,2.132c-0.693,0.303-1.48,0.646-2.307,1.057c-0.391,0.194-1.17,0.427-2.658,0.427
		c-0.07,0-0.139-0.001-0.209-0.002c0.703-0.118,1.391-0.238,2.021-0.356c2.656-0.497,2.809-1.995,2.752-2.616
		c-0.105-1.145-1.189-2.227-2.227-2.227c-0.016,0-0.084,0.004-0.1,0.004c-0.09,0.005-0.391,0.006-0.854,0.009
		c-2.744,0.018-10.034,0.064-14.23,0.738C9.95,36.067,4.084,46.184,3.836,46.614c-0.164,0.286-0.164,0.639,0.002,0.924
		C4.004,47.824,4.309,48,4.639,48h11.424c0.362,0,0.691-0.212,0.842-0.541c0.729-1.601,2.662-2.313,6.266-2.313
		c1.268,0,2.605,0.084,3.9,0.165c0.871,0.056,1.723,0.108,2.529,0.136l0.219,0.004c5.32,0,10.936-6.576,11.172-6.855
		c0.021-0.027,0.043-0.055,0.063-0.084C41.787,37.408,41.639,36.614,41.387,36.143z"/>
	<path fill="#274D57" d="M45.275,33.073H2.723c-0.511,0-0.924-0.414-0.924-0.926c0-0.511,0.413-0.925,0.924-0.925h42.552
		c0.512,0,0.926,0.414,0.926,0.925C46.201,32.659,45.787,33.073,45.275,33.073z"/>
	<g>
		<path fill="#FFFFFF" d="M40.201,28.206c-0.184,0-0.361-0.104-0.449-0.281c-5.564-11.383-11.223-12.506-11.279-12.516
			c-0.27-0.048-0.451-0.306-0.406-0.577c0.047-0.271,0.297-0.452,0.572-0.409c0.25,0.042,6.188,1.149,12.012,13.064
			c0.121,0.248,0.02,0.547-0.229,0.669C40.35,28.189,40.275,28.206,40.201,28.206z"/>
	</g>
</g>
</svg>
