<?xml version="1.0" encoding="utf-8"?>
<!-- Generator: Adobe Illustrator 16.0.0, SVG Export Plug-In . SVG Version: 6.00 Build 0)  -->
<!DOCTYPE svg PUBLIC "-//W3C//DTD SVG 1.1//EN" "http://www.w3.org/Graphics/SVG/1.1/DTD/svg11.dtd">
<svg version="1.1" id="Layer_1" xmlns="http://www.w3.org/2000/svg" xmlns:xlink="http://www.w3.org/1999/xlink" x="0px" y="0px"
	 width="48px" height="48px" viewBox="0 0 48 48" enable-background="new 0 0 48 48" xml:space="preserve">
<g>
	<path fill="#274D57" d="M40.191,0H7.807c-1.912,0-3.47,1.557-3.47,3.47V44.53c0,1.913,1.558,3.47,3.47,3.47h32.384
		c1.914,0,3.471-1.557,3.471-3.47V3.47C43.662,1.557,42.105,0,40.191,0z"/>
	<path fill="#E8B945" d="M33.078,31.715H14.92c-0.553,0-1,0.447-1,1s0.447,1,1,1h18.158c0.553,0,1-0.447,1-1
		S33.631,31.715,33.078,31.715z"/>
	<path fill="#FFFFFF" d="M24,5.152c-6.059,0-10.988,4.928-10.988,10.986S17.942,27.125,24,27.125
		c6.058,0,10.986-4.928,10.986-10.986S30.059,5.152,24,5.152z"/>
	<path fill="#E8B945" d="M33.078,38.373H14.92c-0.553,0-1,0.447-1,1s0.447,1,1,1h18.158c0.553,0,1-0.447,1-1
		S33.631,38.373,33.078,38.373z"/>
	<path fill="#274D57" d="M23.891,25.125c1.296,0,3.076-3.012,3.289-7.986H20.6C20.813,22.113,22.592,25.125,23.891,25.125z"/>
	<path fill="#274D57" d="M14.961,17.139c0.363,3.25,2.463,5.98,5.35,7.238c-0.965-1.781-1.593-4.309-1.709-7.238H14.961z"/>
	<path fill="#274D57" d="M23.891,7.152c-1.299,0-3.078,3.012-3.291,7.986h6.58C26.967,10.164,25.188,7.152,23.891,7.152z"/>
	<path fill="#274D57" d="M15.071,15.139h3.641c0.117-2.93,0.744-5.457,1.709-7.238C17.534,9.158,15.433,11.889,15.071,15.139z"/>
	<path fill="#274D57" d="M27.469,24.377c2.887-1.258,4.988-3.988,5.35-7.238h-3.641C29.063,20.068,28.434,22.596,27.469,24.377z"/>
	<path fill="#274D57" d="M32.818,15.139c-0.361-3.25-2.463-5.98-5.35-7.238c0.965,1.781,1.594,4.309,1.709,7.238H32.818z"/>
</g>
</svg>
