<?xml version="1.0" encoding="utf-8"?>
<!-- Generator: Adobe Illustrator 16.0.0, SVG Export Plug-In . SVG Version: 6.00 Build 0)  -->
<!DOCTYPE svg PUBLIC "-//W3C//DTD SVG 1.1//EN" "http://www.w3.org/Graphics/SVG/1.1/DTD/svg11.dtd">
<svg version="1.1" id="Layer_1" xmlns="http://www.w3.org/2000/svg" xmlns:xlink="http://www.w3.org/1999/xlink" x="0px" y="0px"
	 width="48px" height="48px" viewBox="0 0 48 48" enable-background="new 0 0 48 48" xml:space="preserve">
<g>
	<path fill="#5A7478" d="M1.787,26.605c0.275,3.039,1.291,6.159,3.061,9.338c0.182,0.325,0.521,0.514,0.873,0.514
		c0.127,0,0.256-0.024,0.379-0.075l12.602-5.163c0.464-0.189,0.715-0.695,0.588-1.18c-0.016-0.06-0.516-2.009-0.943-4.876
		C11.705,23.703,4.621,25.658,1.787,26.605z"/>
	<path fill="#FFD699" d="M4.947,14.531c-0.886,1.356-1.646,2.821-2.205,4.403c-0.879,2.485-1.192,5.048-0.955,7.671
		c2.834-0.947,9.918-2.902,16.559-1.442c-0.46-3.073-0.834-7.2-0.442-11.21C13.194,12.805,8.243,13.637,4.947,14.531z"/>
	<path fill="#5A7478" d="M21.937,2.459c-0.265-0.389-0.765-0.541-1.202-0.366c-0.49,0.198-10.477,4.305-15.787,12.438
		c3.296-0.895,8.247-1.727,12.956-0.578c0.379-3.893,1.478-7.668,3.93-10.242C22.158,3.369,22.201,2.849,21.937,2.459z"/>
	<path fill="#274D57" d="M22.113,38.14c-0.553,0-1-0.448-1-1V1c0-0.553,0.447-1,1-1c0.552,0,1,0.447,1,1v36.14
		C23.113,37.691,22.665,38.14,22.113,38.14z"/>
	<path fill="#F7A93B" d="M47.947,37.553c-0.139-0.406-0.519-0.679-0.947-0.679H1c-0.322,0-0.627,0.156-0.814,0.42
		s-0.236,0.602-0.13,0.907c0.01,0.026,0.279,0.771,0.914,1.836c0.3,0.505,0.682,1.08,1.158,1.688C4.331,44.534,8.537,48,15.893,48
		c12.178,0,21.398-3.551,26.682-6.275c1.211-0.624,2.212-1.203,2.996-1.688c1.229-0.758,1.926-1.283,2.039-1.369
		C47.949,38.406,48.084,37.959,47.947,37.553z"/>
</g>
</svg>
