<?xml version="1.0" encoding="utf-8"?>
<!-- Generator: Adobe Illustrator 16.0.0, SVG Export Plug-In . SVG Version: 6.00 Build 0)  -->
<!DOCTYPE svg PUBLIC "-//W3C//DTD SVG 1.1//EN" "http://www.w3.org/Graphics/SVG/1.1/DTD/svg11.dtd">
<svg version="1.1" id="Layer_1" xmlns="http://www.w3.org/2000/svg" xmlns:xlink="http://www.w3.org/1999/xlink" x="0px" y="0px"
	 width="48px" height="48px" viewBox="0 0 48 48" enable-background="new 0 0 48 48" xml:space="preserve">
<g>
	<path fill="#CFD0D1" d="M7.482,14.456c0.826,0,1.497-0.656,1.497-1.467V1.554c0-0.81-0.671-1.467-1.497-1.467
		c-0.827,0-1.497,0.657-1.497,1.467v11.436C5.985,13.8,6.655,14.456,7.482,14.456z"/>
	<path fill="#CFD0D1" d="M13.467,0.087c-0.826,0-1.497,0.657-1.497,1.467v11.436c0,2.315-2.014,4.198-4.487,4.198
		c-2.475,0-4.487-1.883-4.487-4.198V1.554c0-0.81-0.672-1.467-1.498-1.467S0,0.744,0,1.554v11.436c0,3.444,2.574,6.324,5.985,6.987
		v26.557c0,0.809,0.67,1.467,1.497,1.467c0.826,0,1.497-0.658,1.497-1.467V19.977c3.411-0.662,5.984-3.543,5.984-6.987V1.554
		C14.964,0.744,14.294,0.087,13.467,0.087z"/>
	<path fill="#CFD0D1" d="M47.595,0.195c-0.252-0.188-0.583-0.243-0.883-0.153c-4.559,1.39-6.11,10.408-7.537,21.167
		c-0.365,2.749-0.679,5.124-1.031,6.44c-0.527,1.966-0.343,3.575,0.549,4.782c0.777,1.055,1.918,1.527,2.745,1.738l-1.278,12.645
		c-0.027,0.279,0.063,0.561,0.253,0.77s0.459,0.328,0.741,0.328h5.849c0.552,0,0.998-0.447,0.998-0.998V0.998
		C48,0.682,47.851,0.384,47.595,0.195z"/>
	<path fill="#CFD0D1" d="M26.933,0c-3.85,0-7.028,2.787-7.436,6.355c-0.027,0.111-0.046,0.227-0.046,0.346v6.201
		c0,3.443,2.573,6.324,5.984,6.987v26.556c0,0.81,0.671,1.467,1.497,1.467c0.827,0,1.498-0.657,1.498-1.467V19.89
		c3.41-0.663,5.984-3.544,5.984-6.987V6.701c0-0.119-0.018-0.234-0.046-0.346C33.962,2.787,30.784,0,26.933,0z"/>
	<path fill="#274D57" d="M41.438,34.17l-1.278,12.645c-0.027,0.279,0.063,0.561,0.253,0.77s0.459,0.328,0.741,0.328h5.849
		c0.552,0,0.998-0.447,0.998-0.998V34.061C48,34.061,40.61,33.959,41.438,34.17z"/>
	<path fill="#274D57" d="M9.944,47.02C9.979,47.559,9.559,48,9.015,48H5.95c-0.545,0-0.965-0.441-0.931-0.98L5.999,31.32
		c0.034-0.538,0.508-0.979,1.053-0.979h0.861c0.545,0,1.02,0.44,1.053,0.979L9.944,47.02z"/>
	<path fill="#274D57" d="M29.396,46.932c0.034,0.539-0.386,0.98-0.93,0.98h-3.064c-0.545,0-0.965-0.441-0.931-0.98l0.979-15.698
		c0.034-0.538,0.507-0.979,1.053-0.979h0.861c0.545,0,1.02,0.441,1.053,0.979L29.396,46.932z"/>
</g>
</svg>
