<?xml version="1.0" encoding="utf-8"?>
<!-- Generator: Adobe Illustrator 16.0.0, SVG Export Plug-In . SVG Version: 6.00 Build 0)  -->
<!DOCTYPE svg PUBLIC "-//W3C//DTD SVG 1.1//EN" "http://www.w3.org/Graphics/SVG/1.1/DTD/svg11.dtd">
<svg version="1.1" id="Layer_1" xmlns="http://www.w3.org/2000/svg" xmlns:xlink="http://www.w3.org/1999/xlink" x="0px" y="0px"
	 width="48px" height="48px" viewBox="0 0 48 48" enable-background="new 0 0 48 48" xml:space="preserve">
<g>
	<path fill="#274D57" d="M46.53,15.606c-0.812,0-1.47-0.744-1.47-1.66V3.319H2.938v10.627c0,0.916-0.658,1.66-1.47,1.66
		C0.658,15.606,0,14.862,0,13.946V1.66C0,0.743,0.658,0,1.469,0H46.53C47.342,0,48,0.743,48,1.66v12.286
		C48,14.862,47.342,15.606,46.53,15.606z"/>
	<path fill="#E8B945" d="M42.597,46.504l-5.295-37.05c-0.076-0.536-0.487-0.931-0.967-0.931h-24.67c-0.48,0-0.891,0.395-0.967,0.931
		L5.372,46.717c-0.046,0.32,0.035,0.646,0.222,0.895C5.779,47.857,6.053,48,6.34,48h35.32c0.007,0,0.013,0,0.021,0
		c0.54,0,0.979-0.496,0.979-1.107C42.66,46.756,42.637,46.625,42.597,46.504z M24.001,39.832c-1.129,0-2.042-1.03-2.042-2.303
		c0-1.271,0.913-2.305,2.042-2.305c1.126,0,2.038,1.033,2.038,2.305C26.039,38.802,25.127,39.832,24.001,39.832z M31.729,24.149
		h-1.867c-0.021,1.212-0.352,2.466-0.814,3.196l-1.238-0.502c0.443-0.752,0.796-1.839,0.796-3.006c0-1.482-0.759-2.485-1.813-2.485
		c-1.017,0-1.645,0.814-2.2,2.36c-0.738,2.129-1.589,3.444-3.197,3.444c-1.535,0-2.698-1.231-2.977-3.152H16.55V22.71h1.792
		c0.039-1.254,0.333-2.109,0.648-2.715l1.221,0.521c-0.223,0.438-0.629,1.294-0.629,2.632c0,1.608,0.851,2.213,1.59,2.213
		c0.961,0,1.441-0.773,2.107-2.589c0.776-2.152,1.737-3.237,3.383-3.237c1.461,0,2.828,1.149,3.143,3.3h1.924V24.149z"/>
	<path fill="#E77428" d="M21.394,27.157c1.608,0,2.459-1.315,3.197-3.444c0.556-1.546,1.184-2.36,2.2-2.36
		c1.055,0,1.813,1.003,1.813,2.485c0,1.167-0.353,2.254-0.796,3.006l1.238,0.502c0.463-0.73,0.794-1.984,0.814-3.196h1.867v-1.314
		h-1.924c-0.314-2.15-1.682-3.3-3.143-3.3c-1.646,0-2.606,1.085-3.383,3.237c-0.666,1.815-1.146,2.589-2.107,2.589
		c-0.739,0-1.59-0.604-1.59-2.213c0-1.338,0.406-2.193,0.629-2.632l-1.221-0.521c-0.315,0.605-0.609,1.461-0.648,2.715H16.55v1.295
		h1.867C18.695,25.926,19.858,27.157,21.394,27.157z"/>
	<ellipse fill="#E77428" cx="24.001" cy="37.528" rx="2.042" ry="2.304"/>
	<g>
		<path fill="#E77428" d="M41.081,46.5H6.918l5.213-36.477h23.735L41.081,46.5z M8.072,45.5h31.856L35,11.023H12.999L8.072,45.5z"/>
	</g>
</g>
</svg>
