<?xml version="1.0" encoding="utf-8"?>
<!-- Generator: Adobe Illustrator 16.0.0, SVG Export Plug-In . SVG Version: 6.00 Build 0)  -->
<!DOCTYPE svg PUBLIC "-//W3C//DTD SVG 1.1//EN" "http://www.w3.org/Graphics/SVG/1.1/DTD/svg11.dtd">
<svg version="1.1" id="Layer_1" xmlns="http://www.w3.org/2000/svg" xmlns:xlink="http://www.w3.org/1999/xlink" x="0px" y="0px"
	 width="48px" height="48px" viewBox="0 0 48 48" enable-background="new 0 0 48 48" xml:space="preserve">
<g>
	<path fill="#FFFFFF" d="M32.324,36.184c0-4.346-3.958-7.879-8.825-7.879c-4.865,0-8.823,3.533-8.823,7.879s3.958,7.881,8.823,7.881
		C28.366,44.064,32.324,40.529,32.324,36.184z"/>
	<path fill="#00B99B" d="M21.323,24.665c-0.013-0.024-0.017-0.056-0.012-0.086l1.691-9.471l-1.309-2.938
		c-0.01-0.024-0.013-0.056-0.008-0.084c0.006-0.025,0.019-0.044,0.034-0.058c-5.19,1.208-9.109,6.459-9.109,12.734
		c0,0.553,0.501,1,1.12,1s1.119-0.447,1.119-1h6.52L21.323,24.665z"/>
	<path fill="#00B99B" d="M26.28,12.029c0.015,0.014,0.028,0.032,0.033,0.058c0.006,0.028,0.002,0.06-0.009,0.084l-1.308,2.938
		l1.691,9.471c0.004,0.03,0,0.062-0.012,0.086l-0.047,0.099h6.52c0,0.553,0.5,1,1.119,1s1.12-0.447,1.12-1
		C35.389,18.488,31.471,13.238,26.28,12.029z"/>
	<path fill="#F9D096" d="M24,0c-2.953,0-5.355,2.402-5.355,5.355s2.402,5.355,5.355,5.355s5.355-2.402,5.355-5.355S26.953,0,24,0z"
		/>
	<path fill="#274D57" d="M9.759,25.438c-0.577,0.049-1.1-0.306-1.189-0.824c-0.047-0.271-1.078-6.661,4.587-10.434
		c0.502-0.334,1.2-0.245,1.563,0.195c0.362,0.441,0.251,1.069-0.248,1.402c-4.545,3.026-3.727,8.273-3.689,8.496
		c0.09,0.544-0.329,1.061-0.939,1.154C9.814,25.432,9.786,25.436,9.759,25.438z"/>
	<path fill="#00A5D3" d="M46.88,25.764H1.12c-0.619,0-1.12-0.447-1.12-1s0.501-1,1.12-1h45.76c0.619,0,1.12,0.447,1.12,1
		S47.499,25.764,46.88,25.764z"/>
	<path fill="#DD2B00" d="M21.159,37.184c0.238,2.965,1.482,4.881,2.34,4.881c0.858,0,2.104-1.916,2.343-4.881H21.159z"/>
	<path fill="#DD2B00" d="M18.906,35.184c0.101-1.469,0.42-2.785,0.905-3.867c-1.451,0.879-2.483,2.264-2.793,3.867H18.906z"/>
	<path fill="#DD2B00" d="M28.095,35.184h1.887c-0.309-1.604-1.341-2.988-2.793-3.867C27.675,32.398,27.994,33.715,28.095,35.184z"/>
	<path fill="#DD2B00" d="M23.499,30.305c-0.857,0-2.102,1.914-2.34,4.879h4.683C25.603,32.219,24.357,30.305,23.499,30.305z"/>
	<path fill="#00A5D3" d="M38.888,23.764H9.112c-0.619,0-1.12,0.447-1.12,1V47c0,0.553,0.501,1,1.12,1h29.775
		c0.619,0,1.12-0.447,1.12-1V24.764C40.008,24.211,39.507,23.764,38.888,23.764z M23.499,44.064c-4.865,0-8.823-3.535-8.823-7.881
		s3.958-7.879,8.823-7.879c4.867,0,8.825,3.533,8.825,7.879S28.366,44.064,23.499,44.064z"/>
	<path fill="#DD2B00" d="M18.906,37.184h-1.888c0.31,1.604,1.342,2.988,2.793,3.869C19.326,39.971,19.007,38.652,18.906,37.184z"/>
	<path fill="#DD2B00" d="M28.095,37.184c-0.101,1.469-0.42,2.787-0.906,3.869c1.452-0.881,2.484-2.266,2.793-3.869H28.095z"/>
</g>
</svg>
