<?xml version="1.0" encoding="utf-8"?>
<!-- Generator: Adobe Illustrator 16.0.0, SVG Export Plug-In . SVG Version: 6.00 Build 0)  -->
<!DOCTYPE svg PUBLIC "-//W3C//DTD SVG 1.1//EN" "http://www.w3.org/Graphics/SVG/1.1/DTD/svg11.dtd">
<svg version="1.1" id="Layer_1" xmlns="http://www.w3.org/2000/svg" xmlns:xlink="http://www.w3.org/1999/xlink" x="0px" y="0px"
	 width="48px" height="48px" viewBox="0 0 48 48" enable-background="new 0 0 48 48" xml:space="preserve">
<g>
	<polygon fill="#FFD699" points="11.659,12.632 45.835,12.632 39.001,30.004 34.538,30.764 15.646,30.573 	"/>
	<ellipse fill="#00B99B" cx="20.394" cy="44.668" rx="2.723" ry="2.598"/>
	<ellipse fill="#00B99B" cx="34.551" cy="44.668" rx="2.724" ry="2.598"/>
	<path fill="#506E76" d="M47.753,11.515c-0.271-0.409-0.73-0.654-1.223-0.654H11.918L9.42,1.813
		C9.244,1.176,8.664,0.734,8.003,0.734H1.469C0.658,0.734,0,1.393,0,2.204s0.658,1.469,1.469,1.469h5.416l7.733,28.009
		c0.176,0.637,0.756,1.078,1.417,1.078h22.601c0.002,0,0.002,0,0.002,0h0.004h0.76l-1.799,4.984H17.533
		c-0.812,0-1.47,0.656-1.47,1.469s0.658,1.469,1.47,1.469h21.103c0.617,0,1.172-0.388,1.381-0.971l2.859-7.922
		c0.162-0.45,0.096-0.951-0.18-1.344c-0.275-0.391-0.725-0.625-1.203-0.625h-0.65l7.045-16.926
		C48.075,12.44,48.026,11.923,47.753,11.515z M43.202,16.503h-6.984l0.627-2.704h7.482L43.202,16.503z M40.327,23.411h-5.709
		l0.92-3.969h6.441L40.327,23.411z M25.478,29.82l-0.424-3.47h5.869l-0.803,3.47H25.478z M24.696,23.411l-0.484-3.969h8.311
		l-0.918,3.969H24.696z M14.287,19.442h6.964l0.484,3.969h-6.352L14.287,19.442z M23.854,16.503l-0.329-2.704h10.304l-0.627,2.704
		H23.854z M20.563,13.799l0.33,2.704h-7.418l-0.746-2.704H20.563z M16.194,26.351h5.898l0.423,3.47h-5.362L16.194,26.351z
		 M33.136,29.82l0.803-3.47h5.168l-1.445,3.47H33.136z"/>
	<ellipse fill="#00B99B" cx="20.394" cy="44.668" rx="2.723" ry="2.598"/>
	<ellipse fill="#00B99B" cx="34.551" cy="44.668" rx="2.724" ry="2.598"/>
</g>
</svg>
