<?xml version="1.0" encoding="utf-8"?>
<!-- Generator: Adobe Illustrator 16.0.0, SVG Export Plug-In . SVG Version: 6.00 Build 0)  -->
<!DOCTYPE svg PUBLIC "-//W3C//DTD SVG 1.1//EN" "http://www.w3.org/Graphics/SVG/1.1/DTD/svg11.dtd">
<svg version="1.1" id="Layer_1" xmlns="http://www.w3.org/2000/svg" xmlns:xlink="http://www.w3.org/1999/xlink" x="0px" y="0px"
	 width="48px" height="48px" viewBox="0 0 48 48" enable-background="new 0 0 48 48" xml:space="preserve">
<g>
	<path fill="#00A5D3" d="M37.854,4.715l0.351-3.617c0.026-0.281-0.063-0.561-0.251-0.77S37.499,0,37.22,0h-11.74h-8.622h-2.969
		H6.436H0.989C0.71,0,0.443,0.119,0.256,0.328s-0.278,0.488-0.251,0.77l4.447,46C4.502,47.609,4.928,48,5.438,48h27.335
		c0.509,0,0.936-0.391,0.984-0.902l1.701-17.594c0.337,0.031,0.674,0.053,1.009,0.053c2.447,0,4.829-0.838,6.823-2.42
		c2.565-2.035,4.253-5.16,4.628-8.574C48.67,11.755,44.154,5.544,37.854,4.715z M44.969,18.23c-0.289,2.619-1.569,5.006-3.512,6.547
		c-1.661,1.317-3.681,1.922-5.71,1.736l1.818-18.807C42.223,8.379,45.536,13.072,44.969,18.23z"/>
	<path fill="#F7A93B" d="M20.133,13.352l-5.148-2.318v-0.005h-2.969v0.03L6.872,13.35c-0.539,0.239-0.886,0.778-0.886,1.372v15.886
		c0,0.828,0.664,1.5,1.484,1.5h12.059c0.82,0,1.484-0.672,1.484-1.5V14.722C21.014,14.13,20.669,13.593,20.133,13.352z"/>
	<polygon fill="#FFD699" points="8.956,29.107 18.044,29.107 18.044,15.695 13.53,13.662 8.956,15.7 	"/>
	<rect x="12.016" fill="#274D57" width="2.969" height="11.028"/>
</g>
</svg>
