<?xml version="1.0" encoding="utf-8"?>
<!-- Generator: Adobe Illustrator 16.0.0, SVG Export Plug-In . SVG Version: 6.00 Build 0)  -->
<!DOCTYPE svg PUBLIC "-//W3C//DTD SVG 1.1//EN" "http://www.w3.org/Graphics/SVG/1.1/DTD/svg11.dtd">
<svg version="1.1" id="Layer_1" xmlns="http://www.w3.org/2000/svg" xmlns:xlink="http://www.w3.org/1999/xlink" x="0px" y="0px"
	 width="48px" height="48px" viewBox="0 0 48 48" enable-background="new 0 0 48 48" xml:space="preserve">
<g>
	<path fill="#DD2B00" d="M23.683,3.889c-0.831-0.116-1.999,0.277-2.593,0.871L0.571,25.28c-0.596,0.595-0.596,1.566,0,2.162
		l16.243,16.243c0.595,0.595,1.566,0.595,2.161,0l20.522-20.52c0.594-0.593,0.99-1.762,0.883-2.597L38.669,7.445
		c-0.107-0.833-0.877-1.61-1.71-1.725L23.683,3.889z"/>
	<circle fill="#D8DBDB" cx="31.753" cy="12.503" r="2.585"/>
	<path fill="#F7A93B" d="M47.87,13.909c-0.141-1.82-2.558-2.892-2.661-2.937c-2.502-1.092-12.69,0.33-13.845,0.496
		c-0.417,0.059-0.707,0.448-0.646,0.865c0.023,0.17,0.102,0.319,0.215,0.432c0.164,0.164,0.402,0.252,0.649,0.217
		c4.19-0.603,11.429-1.3,13.017-0.608c0.567,0.249,1.695,1.009,1.746,1.652c0.033,0.438-0.553,0.876-0.904,1.099
		c-2.68,1.691-4.928,2.425-5.406,2.547c0.093,0.333,0.115,0.667,0.105,0.999c0.039,0.175,0.064,0.349,0.074,0.524
		c0.578-0.104,3.111-0.927,6.043-2.779C47.399,15.694,47.94,14.852,47.87,13.909z"/>
	<path fill="#E77428" d="M33.919,13.911c-0.098,0.147-0.209,0.29-0.338,0.419c-1.01,1.009-2.646,1.009-3.656,0
		c-1.008-1.009-1.008-2.645,0-3.655c0.131-0.13,0.271-0.242,0.42-0.339c-0.496,0.072-0.961,0.281-1.323,0.645
		c-1.009,1.008-0.875,2.778,0.298,3.954c1.176,1.174,2.945,1.309,3.955,0.299C33.638,14.872,33.847,14.408,33.919,13.911z"/>
	
		<rect x="16.44" y="32.63" transform="matrix(-0.7072 0.7071 -0.7071 -0.7072 61.0771 42.8479)" fill="#F1F2F2" width="10.45" height="2.884"/>
	
		<rect x="13.827" y="30.43" transform="matrix(-0.7072 0.7071 -0.7071 -0.7072 54.765 40.2328)" fill="#F1F2F2" width="10.448" height="2.054"/>
	
		<rect x="15.018" y="32.445" transform="matrix(-0.7071 0.7072 -0.7072 -0.7071 57.6458 41.4228)" fill="#F1F2F2" width="10.45" height="0.413"/>
	
		<rect x="4.181" y="21.607" transform="matrix(-0.7072 0.707 -0.707 -0.7072 31.4818 30.5897)" fill="#F1F2F2" width="10.452" height="0.413"/>
	
		<rect x="12.375" y="29.416" transform="matrix(-0.7071 0.7071 -0.7071 -0.7071 51.264 38.7814)" fill="#F1F2F2" width="10.451" height="1.184"/>
	
		<rect x="11.15" y="28.213" transform="matrix(-0.707 0.7072 -0.7072 -0.707 48.308 37.5528)" fill="#F1F2F2" width="10.45" height="1.14"/>
	
		<rect x="5.064" y="22.127" transform="matrix(-0.7072 0.7071 -0.7071 -0.7072 33.6113 31.4702)" fill="#F1F2F2" width="10.45" height="1.138"/>
	
		<rect x="9.935" y="26.847" transform="matrix(-0.707 0.7072 -0.7072 -0.707 45.3734 36.3351)" fill="#F1F2F2" width="10.45" height="1.44"/>
	
		<rect x="8.203" y="24.597" transform="matrix(-0.7071 0.7071 -0.7071 -0.7071 41.191 34.6084)" fill="#F1F2F2" width="10.45" height="2.476"/>
	
		<rect x="6.459" y="23.373" transform="matrix(-0.7072 0.7071 -0.7071 -0.7072 36.9834 32.8684)" fill="#F1F2F2" width="10.451" height="1.44"/>
</g>
</svg>
