<?xml version="1.0" encoding="utf-8"?>
<!-- Generator: Adobe Illustrator 16.0.0, SVG Export Plug-In . SVG Version: 6.00 Build 0)  -->
<!DOCTYPE svg PUBLIC "-//W3C//DTD SVG 1.1//EN" "http://www.w3.org/Graphics/SVG/1.1/DTD/svg11.dtd">
<svg version="1.1" id="Layer_1" xmlns="http://www.w3.org/2000/svg" xmlns:xlink="http://www.w3.org/1999/xlink" x="0px" y="0px"
	 width="48px" height="48px" viewBox="0 0 48 48" enable-background="new 0 0 48 48" xml:space="preserve">
<g>
	<path fill="#506E76" d="M40.07,40.283H17.553c-4.891,0-7.93-3.676-7.93-9.596V9.977c0-3.81-1.766-6.656-3.343-6.656H1.468
		C0.658,3.321,0,2.663,0,1.851c0-0.811,0.658-1.469,1.468-1.469H6.28c3.522,0,6.28,4.215,6.28,9.595v20.71
		c0,2.002,0.488,6.658,4.992,6.658H40.07c3.457,0,4.99-4.568,4.99-6.303V26.6c0-0.811,0.657-1.469,1.47-1.469
		c0.812,0,1.47,0.658,1.47,1.469v4.443C48,34.359,45.35,40.283,40.07,40.283z"/>
	<path fill="#E77428" d="M34.222,15.593c-0.54,0-0.98-0.438-0.98-0.979v-3.512h-8.839v3.512c0,0.541-0.438,0.979-0.979,0.979
		s-0.98-0.438-0.98-0.979v-4.491c0-0.542,0.439-0.98,0.98-0.98h10.798c0.541,0,0.979,0.438,0.979,0.98v4.491
		C35.2,15.155,34.763,15.593,34.222,15.593z"/>
	<circle fill="#00B99B" cx="39.672" cy="44.957" r="2.66"/>
	<circle fill="#00B99B" cx="21.341" cy="44.957" r="2.659"/>
	<path fill="#F7A93B" d="M38.005,13.634H19.641c-2.695,0-4.887,2.417-4.887,5.389v10.913c0,2.971,2.191,5.389,4.887,5.389h18.364
		c2.695,0,4.888-2.418,4.888-5.389V19.023C42.893,16.051,40.7,13.634,38.005,13.634z"/>
</g>
</svg>
