<?xml version="1.0" encoding="utf-8"?>
<!-- Generator: Adobe Illustrator 16.0.0, SVG Export Plug-In . SVG Version: 6.00 Build 0)  -->
<!DOCTYPE svg PUBLIC "-//W3C//DTD SVG 1.1//EN" "http://www.w3.org/Graphics/SVG/1.1/DTD/svg11.dtd">
<svg version="1.1" id="Layer_1" xmlns="http://www.w3.org/2000/svg" xmlns:xlink="http://www.w3.org/1999/xlink" x="0px" y="0px"
	 width="48px" height="48px" viewBox="0 0 48 48" enable-background="new 0 0 48 48" xml:space="preserve">
<g>
	<path fill="#5A7478" d="M47.88,46.504L32.627,0.685C32.491,0.275,32.108,0,31.679,0H16.304c-0.43,0-0.813,0.275-0.949,0.685
		L0.042,46.684c-0.103,0.305-0.051,0.641,0.137,0.9C0.367,47.846,0.668,48,0.991,48h46c0.006,0,0.014,0,0.019,0c0.554,0,1-0.449,1-1
		C48.01,46.818,47.963,46.65,47.88,46.504z M26.046,41.52c0,0.83-0.672,1.5-1.5,1.5s-1.5-0.67-1.5-1.5V28.15
		c0-0.828,0.672-1.5,1.5-1.5s1.5,0.672,1.5,1.5V41.52z M26.046,21.981c0,0.829-0.672,1.5-1.5,1.5s-1.5-0.671-1.5-1.5v-8.355
		c0-0.828,0.672-1.5,1.5-1.5s1.5,0.672,1.5,1.5V21.981z M26.046,7.583c0,0.829-0.672,1.5-1.5,1.5s-1.5-0.671-1.5-1.5V5.141
		c0-0.829,0.672-1.5,1.5-1.5s1.5,0.671,1.5,1.5V7.583z"/>
</g>
</svg>
