<?xml version="1.0" encoding="utf-8"?>
<!-- Generator: Adobe Illustrator 16.0.0, SVG Export Plug-In . SVG Version: 6.00 Build 0)  -->
<!DOCTYPE svg PUBLIC "-//W3C//DTD SVG 1.1//EN" "http://www.w3.org/Graphics/SVG/1.1/DTD/svg11.dtd">
<svg version="1.1" id="Layer_1" xmlns="http://www.w3.org/2000/svg" xmlns:xlink="http://www.w3.org/1999/xlink" x="0px" y="0px"
	 width="48px" height="48px" viewBox="0 0 48 48" enable-background="new 0 0 48 48" xml:space="preserve">
<g>
	<path fill="#AEB4AD" d="M10.223,43.846c-0.143,0-0.285-0.029-0.422-0.092l-5.744-2.602c-0.514-0.232-0.742-0.838-0.51-1.352
		c0.232-0.516,0.838-0.742,1.352-0.51l4.93,2.232l8.63-13.871c0.298-0.479,0.927-0.625,1.407-0.326
		c0.479,0.297,0.625,0.928,0.327,1.406L11.09,43.363C10.899,43.672,10.566,43.846,10.223,43.846z"/>
	<path fill="#E1574C" d="M8.813,39.186c-0.178,0-0.357-0.047-0.521-0.143c-0.485-0.289-0.646-0.914-0.357-1.4l5.526-9.32
		c0.289-0.486,0.914-0.645,1.4-0.357c0.485,0.289,0.645,0.914,0.357,1.4l-5.528,9.32C9.5,39.006,9.161,39.186,8.813,39.186z"/>
	<circle fill="#AEB4AD" cx="10.357" cy="46.455" r="1.544"/>
	<path fill="#EECE7B" d="M29.231,0c-3.194,0-5.793,2.599-5.793,5.792s2.599,5.791,5.793,5.791s5.793-2.598,5.793-5.791
		S32.426,0,29.231,0z"/>
	<path fill="#455D6A" d="M41.108,25.302c1.857,0,3.398-1.513,3.435-3.372c0.033-1.895-1.48-3.465-3.374-3.5
		c-5.111-0.093-10.078-4.999-10.119-5.041c-0.858-0.878-2.188-1.234-3.37-0.909c-4.501,1.242-8.527,8.355-10.048,11.356
		c-0.415,0.818-0.486,1.75-0.202,2.621c0.286,0.873,0.894,1.582,1.713,1.996c0.481,0.244,1.016,0.373,1.552,0.373
		c1.302,0,2.478-0.721,3.066-1.883c0.21-0.414,0.438-0.84,0.679-1.269v5.712l-5.598,11.107c-0.412,0.818-0.482,1.75-0.193,2.623
		c0.288,0.871,0.897,1.578,1.718,1.99c0.486,0.244,1.005,0.369,1.542,0.369c1.307,0,2.483-0.725,3.071-1.891l6.164-12.23
		l3.369,2.551v7.404c0,1.895,1.542,3.436,3.437,3.436c1.894,0,3.435-1.541,3.435-3.436v-9.111c0-1.07-0.508-2.094-1.359-2.74
		l-4.637-3.512v-3.771C37.319,24.891,39.225,25.269,41.108,25.302z"/>
	<path fill="#274D57" d="M10.223,43.846c-0.143,0-0.285-0.029-0.422-0.092l-5.744-2.602c-0.514-0.232-0.742-0.838-0.51-1.352
		c0.232-0.516,0.838-0.742,1.352-0.51l4.93,2.232l8.63-13.871c0.298-0.479,0.927-0.625,1.407-0.326
		c0.479,0.297,0.625,0.928,0.327,1.406L11.09,43.363C10.899,43.672,10.566,43.846,10.223,43.846z"/>
	<path fill="#F7A93B" d="M8.813,39.186c-0.178,0-0.357-0.047-0.521-0.143c-0.485-0.289-0.646-0.914-0.357-1.4l5.526-9.32
		c0.289-0.486,0.914-0.645,1.4-0.357c0.485,0.289,0.645,0.914,0.357,1.4l-5.528,9.32C9.5,39.006,9.161,39.186,8.813,39.186z"/>
	<circle fill="#00B99B" cx="10.357" cy="46.455" r="1.544"/>
	<path fill="#FFBE5C" d="M29.231,0c-3.194,0-5.793,2.599-5.793,5.792s2.599,5.791,5.793,5.791s5.793-2.598,5.793-5.791
		S32.426,0,29.231,0z"/>
	<path fill="#E77428" d="M41.108,25.302c1.857,0,3.398-1.513,3.435-3.372c0.033-1.895-1.48-3.465-3.374-3.5
		c-5.111-0.093-10.078-4.999-10.119-5.041c-0.858-0.878-2.188-1.234-3.37-0.909c-4.501,1.242-8.527,8.355-10.048,11.356
		c-0.415,0.818-0.486,1.75-0.202,2.621c0.286,0.873,0.894,1.582,1.713,1.996c0.481,0.244,1.016,0.373,1.552,0.373
		c1.302,0,2.478-0.721,3.066-1.883c0.21-0.414,0.438-0.84,0.679-1.269v5.712l-5.598,11.107c-0.412,0.818-0.482,1.75-0.193,2.623
		c0.288,0.871,0.897,1.578,1.718,1.99c0.486,0.244,1.005,0.369,1.542,0.369c1.307,0,2.483-0.725,3.071-1.891l6.164-12.23
		l3.369,2.551v7.404c0,1.895,1.542,3.436,3.437,3.436c1.894,0,3.435-1.541,3.435-3.436v-9.111c0-1.07-0.508-2.094-1.359-2.74
		l-4.637-3.512v-3.771C37.319,24.891,39.225,25.269,41.108,25.302z"/>
</g>
</svg>
