<?xml version="1.0" encoding="utf-8"?>
<!-- Generator: Adobe Illustrator 16.0.0, SVG Export Plug-In . SVG Version: 6.00 Build 0)  -->
<!DOCTYPE svg PUBLIC "-//W3C//DTD SVG 1.1//EN" "http://www.w3.org/Graphics/SVG/1.1/DTD/svg11.dtd">
<svg version="1.1" id="Layer_1" xmlns="http://www.w3.org/2000/svg" xmlns:xlink="http://www.w3.org/1999/xlink" x="0px" y="0px"
	 width="48px" height="48px" viewBox="0 0 48 48" enable-background="new 0 0 48 48" xml:space="preserve">
<g>
	<rect x="40.787" y="24.025" fill="#274D57" width="2.996" height="4.96"/>
	<rect x="33.039" y="19.377" fill="#274D57" width="2.996" height="4.959"/>
	<rect x="4.215" y="24.025" fill="#274D57" width="2.998" height="4.96"/>
	<rect x="11.963" y="19.377" fill="#274D57" width="2.998" height="4.959"/>
	<path fill="#5A7478" d="M45.682,28.931l-17.324-9.914c0.004-0.344,0.004-0.686,0.004-1.024c0-9.786-0.889-15.433-2.721-17.264
		C25.039,0.126,24.416,0,24,0c-2.27-0.001-3.057,3.34-3.314,4.438c-0.695,2.948-1.049,7.509-1.049,13.554
		c0,0.338,0.002,0.68,0.004,1.024L2.317,28.931c-0.324,0.133-0.535,0.449-0.535,0.799v2.141c0,0.254,0.113,0.496,0.305,0.658
		c0.193,0.164,0.447,0.234,0.697,0.195l17.242-2.809c0.219,3.455,0.514,6.66,0.861,9.357l-6.693,3.781
		c-0.271,0.152-0.439,0.439-0.439,0.752l0.002,3.332c0,0.229,0.092,0.449,0.252,0.609c0.021,0.023,0.045,0.045,0.07,0.064
		c0.205,0.164,0.473,0.225,0.729,0.168l7.508-1.678c0.521,1.363,1.26,1.697,1.686,1.697c0.837,0,1.335-0.773,1.687-1.697
		l7.504,1.678c0.258,0.057,0.525-0.004,0.73-0.168s0.322-0.412,0.322-0.676v-3.33c0-0.311-0.168-0.6-0.439-0.752l-6.691-3.781
		c0.35-2.699,0.643-5.904,0.859-9.357l17.242,2.809c0.25,0.039,0.506-0.031,0.699-0.195s0.305-0.404,0.305-0.658v-2.141
		C46.217,29.378,46.006,29.063,45.682,28.931z"/>
	<rect x="23.34" y="5.37" fill="#00A5D3" width="1.318" height="35.723"/>
	<path fill="none" d="M20.026,29.915l-0.139,0.023c0.092,0.85,0.195,1.666,0.311,2.443C20.137,31.577,20.079,30.755,20.026,29.915z"
		/>
	<path fill="#274D57" d="M19.493,24.476L3.817,32.505l0.088,0.035l15.982-2.602C19.704,28.237,19.569,26.403,19.493,24.476z"/>
	<path fill="#274D57" d="M28.326,24.527c-0.076,1.9-0.209,3.708-0.391,5.388c0,0.006-0.002,0.012-0.002,0.018
		c0.014,0.006,0.025,0.012,0.037,0.018c0.002-0.012,0.002-0.021,0.002-0.035l15.922,2.592l0.006-0.002L28.326,24.527z"/>
	<path fill="#274D57" d="M20.887,39.257h-0.002c0,0.004,0,0.012,0.002,0.016l-6.693,3.781c-0.271,0.152-0.439,0.439-0.439,0.752
		l0.002,3.332c0,0.229,0.092,0.449,0.252,0.609c0.021,0.023,0.045,0.045,0.07,0.064c0.205,0.164,0.473,0.225,0.729,0.168l7.5-1.676
		C21.643,44.708,21.133,42.216,20.887,39.257z"/>
	<path fill="#274D57" d="M33.805,43.054l-6.635-3.748c-0.25,2.945-0.76,5.424-1.424,7.01l7.445,1.664
		c0.258,0.057,0.525-0.004,0.73-0.168s0.322-0.412,0.322-0.676v-3.33C34.244,43.495,34.076,43.206,33.805,43.054z"/>
	<rect x="23.34" y="41.192" fill="#274D57" width="1.318" height="4.34"/>
	<path fill="#274D57" d="M26.307,6.959c-1.057-1.723-3.558-1.723-4.615,0c-0.363-0.224-0.729-0.447-1.094-0.671
		c1.557-2.54,5.248-2.54,6.804,0C27.037,6.512,26.672,6.735,26.307,6.959z"/>
</g>
</svg>
