<?xml version="1.0" encoding="utf-8"?>
<!-- Generator: Adobe Illustrator 16.0.0, SVG Export Plug-In . SVG Version: 6.00 Build 0)  -->
<!DOCTYPE svg PUBLIC "-//W3C//DTD SVG 1.1//EN" "http://www.w3.org/Graphics/SVG/1.1/DTD/svg11.dtd">
<svg version="1.1" id="Layer_1" xmlns="http://www.w3.org/2000/svg" xmlns:xlink="http://www.w3.org/1999/xlink" x="0px" y="0px"
	 width="48px" height="48px" viewBox="0 0 48 48" enable-background="new 0 0 48 48" xml:space="preserve">
<g>
	<polygon fill="#00B99B" points="0,0 0,48 5.076,48 5.076,37.781 19.369,37.781 19.369,48 24.318,48 24.318,0 	"/>
	<rect x="24.318" y="8.728" fill="#00B99B" width="23.682" height="32.29"/>
	<polygon fill="#009079" points="24.318,48 28.011,41.018 28.011,8.728 24.318,0 	"/>
	<rect x="3.444" y="4.281" fill="#FFD699" width="3.216" height="4.695"/>
	<rect x="3.444" y="12.565" fill="#FFD699" width="3.216" height="4.695"/>
	<rect x="3.444" y="20.85" fill="#FFD699" width="3.216" height="4.694"/>
	<rect x="3.444" y="29.133" fill="#FFD699" width="3.216" height="4.695"/>
	<rect x="10.55" y="4.281" fill="#FFD699" width="3.219" height="4.695"/>
	<rect x="10.55" y="12.565" fill="#FFD699" width="3.219" height="4.695"/>
	<rect x="10.55" y="20.85" fill="#FFD699" width="3.219" height="4.694"/>
	<rect x="10.55" y="29.133" fill="#FFD699" width="3.219" height="4.695"/>
	<rect x="17.657" y="4.281" fill="#FFD699" width="3.219" height="4.695"/>
	<rect x="17.657" y="12.565" fill="#FFD699" width="3.219" height="4.695"/>
	<rect x="17.657" y="20.85" fill="#FFD699" width="3.219" height="4.694"/>
	<rect x="17.657" y="29.133" fill="#FFD699" width="3.219" height="4.695"/>
	<rect x="29.804" y="13.019" fill="#009079" width="2.826" height="3.361"/>
	<rect x="29.804" y="18.95" fill="#009079" width="2.826" height="3.362"/>
	<rect x="29.804" y="24.882" fill="#009079" width="2.826" height="3.362"/>
	<rect x="29.804" y="30.814" fill="#009079" width="2.826" height="3.361"/>
	<rect x="36.046" y="13.019" fill="#009079" width="2.826" height="3.361"/>
	<rect x="36.046" y="18.95" fill="#009079" width="2.826" height="3.362"/>
	<rect x="36.046" y="24.882" fill="#009079" width="2.826" height="3.362"/>
	<rect x="36.046" y="30.814" fill="#009079" width="2.826" height="3.361"/>
	<rect x="42.288" y="13.019" fill="#009079" width="2.826" height="3.361"/>
	<rect x="42.288" y="18.95" fill="#009079" width="2.826" height="3.362"/>
	<rect x="42.288" y="24.882" fill="#009079" width="2.826" height="3.362"/>
	<rect x="42.288" y="30.814" fill="#009079" width="2.826" height="3.361"/>
	<polygon fill="#009079" points="48,48 27.006,48 29.506,42.908 48,42.908 	"/>
	<g>
		<rect x="8.605" y="38.252" fill="#CFD0D1" width="7.221" height="9.748"/>
		<rect x="5.546" y="38.252" fill="#CFD0D1" width="2.609" height="9.748"/>
		<rect x="16.29" y="38.252" fill="#CFD0D1" width="2.609" height="9.748"/>
	</g>
</g>
</svg>
