<?xml version="1.0" encoding="utf-8"?>
<!-- Generator: Adobe Illustrator 16.0.0, SVG Export Plug-In . SVG Version: 6.00 Build 0)  -->
<!DOCTYPE svg PUBLIC "-//W3C//DTD SVG 1.1//EN" "http://www.w3.org/Graphics/SVG/1.1/DTD/svg11.dtd">
<svg version="1.1" id="Layer_1" xmlns="http://www.w3.org/2000/svg" xmlns:xlink="http://www.w3.org/1999/xlink" x="0px" y="0px"
	 width="48px" height="48px" viewBox="0 0 48 48" enable-background="new 0 0 48 48" xml:space="preserve">
<g>
	<path fill="#274D57" d="M1.471,48C0.658,48,0,47.342,0,46.531V1.47C0,0.658,0.658,0,1.471,0c0.811,0,1.469,0.658,1.469,1.47v45.062
		C2.939,47.342,2.281,48,1.471,48z"/>
	<path fill="#FFD699" d="M39.004,11.513H10.629c-2.162,0-3.918,1.758-3.918,3.918v20.038c0,2.16,1.756,3.918,3.918,3.918h28.375
		c2.16,0,3.918-1.758,3.918-3.918V15.431C42.922,13.271,41.164,11.513,39.004,11.513z"/>
	<path fill="#CFD0D1" d="M14.598,16.755c-0.813,0-1.469-0.658-1.469-1.47v-7.38c0-0.813,0.656-1.47,1.469-1.47
		c0.811,0,1.469,0.657,1.469,1.47v7.38C16.066,16.097,15.408,16.755,14.598,16.755z"/>
	<path fill="#7B3A1A" d="M16.066,15.28v0.005c0,0.812-0.658,1.47-1.469,1.47c-0.813,0-1.469-0.658-1.469-1.47V15.28
		c-0.252,0.205-0.406,0.459-0.406,0.739c0,0.664,0.84,1.202,1.875,1.202s1.875-0.538,1.875-1.202
		C16.473,15.739,16.316,15.485,16.066,15.28z"/>
	<path fill="#CFD0D1" d="M35.035,16.755c-0.813,0-1.471-0.658-1.471-1.47v-7.38c0-0.813,0.658-1.47,1.471-1.47
		c0.811,0,1.469,0.657,1.469,1.47v7.38C36.504,16.097,35.846,16.755,35.035,16.755z"/>
	<path fill="#7B3A1A" d="M36.504,15.28v0.005c0,0.812-0.658,1.47-1.469,1.47c-0.813,0-1.471-0.658-1.471-1.47V15.28
		c-0.25,0.205-0.404,0.459-0.404,0.739c0,0.664,0.84,1.202,1.875,1.202s1.875-0.538,1.875-1.202
		C36.91,15.739,36.754,15.485,36.504,15.28z"/>
	<path fill="#274D57" d="M46.531,8.786H1.619c-0.811,0-1.469-0.658-1.469-1.47c0-0.813,0.658-1.469,1.469-1.469h44.912
		C47.342,5.848,48,6.504,48,7.316C48,8.128,47.342,8.786,46.531,8.786z"/>
	<polygon fill="#E77428" points="18.744,26.698 19.398,26.698 19.398,24.405 21.315,24.405 21.315,23.863 19.398,23.863 
		19.398,22.179 21.474,22.179 21.474,21.63 18.744,21.63 	"/>
	<path fill="#E77428" d="M24.459,21.547c-1.354,0-2.354,1.053-2.354,2.662c0,1.534,0.939,2.571,2.279,2.571
		c1.292,0,2.353-0.924,2.353-2.669C26.737,22.607,25.843,21.547,24.459,21.547z M24.421,26.247c-1.03,0-1.616-0.97-1.616-2.053
		c0-1.113,0.542-2.113,1.624-2.113c1.09,0,1.617,1.053,1.617,2.061C26.046,25.292,25.458,26.247,24.421,26.247z"/>
	<path fill="#E77428" d="M30.497,25.307c-0.12-0.525-0.354-0.887-0.746-1.022v-0.022c0.536-0.181,0.956-0.624,0.956-1.293
		c0-0.391-0.142-0.737-0.397-0.963c-0.316-0.286-0.768-0.414-1.468-0.414c-0.45,0-0.924,0.038-1.256,0.105v5.001h0.654v-2.195h0.617
		c0.595,0.022,0.864,0.286,1.016,0.984c0.143,0.632,0.255,1.068,0.338,1.211h0.677C30.782,26.503,30.661,26.014,30.497,25.307z
		 M28.909,24.006H28.24v-1.85c0.106-0.029,0.331-0.061,0.647-0.061c0.691,0.008,1.166,0.294,1.166,0.948
		C30.054,23.623,29.609,24.006,28.909,24.006z"/>
	<path fill="#E77428" d="M19.05,31.526v-0.022c0.534-0.181,0.954-0.623,0.954-1.293c0-0.391-0.142-0.736-0.398-0.963
		c-0.316-0.286-0.768-0.413-1.466-0.413c-0.452,0-0.926,0.037-1.256,0.104v5.001h0.654v-2.195h0.616
		c0.594,0.022,0.865,0.286,1.016,0.985c0.142,0.631,0.256,1.066,0.338,1.21h0.678c-0.106-0.194-0.226-0.685-0.392-1.392
		C19.674,32.023,19.44,31.662,19.05,31.526z M18.207,31.249h-0.668v-1.851c0.104-0.029,0.331-0.06,0.646-0.06
		c0.691,0.007,1.166,0.293,1.166,0.946C19.35,30.865,18.906,31.249,18.207,31.249z"/>
	<polygon fill="#E77428" points="21.583,31.564 23.553,31.564 23.553,31.023 21.583,31.023 21.583,29.422 23.665,29.422 
		23.665,28.872 20.928,28.872 20.928,33.94 23.779,33.94 23.779,33.392 21.583,33.392 	"/>
	<path fill="#E77428" d="M27.815,30.992c0,0.791,0.016,1.406,0.076,2.084l-0.016,0.008c-0.24-0.52-0.533-1.053-0.91-1.647
		l-1.623-2.564h-0.716v5.068h0.618v-2.165c0-0.843-0.016-1.451-0.053-2.092l0.021-0.007c0.256,0.549,0.595,1.128,0.948,1.692
		l1.609,2.571h0.662v-5.068h-0.618V30.992z"/>
	<polygon fill="#E77428" points="28.996,28.872 28.996,29.429 30.538,29.429 30.538,33.94 31.199,33.94 31.199,29.429 
		32.749,29.429 32.749,28.872 	"/>
</g>
</svg>
