<?xml version="1.0" encoding="utf-8"?>
<!-- Generator: Adobe Illustrator 16.0.0, SVG Export Plug-In . SVG Version: 6.00 Build 0)  -->
<!DOCTYPE svg PUBLIC "-//W3C//DTD SVG 1.1//EN" "http://www.w3.org/Graphics/SVG/1.1/DTD/svg11.dtd">
<svg version="1.1" id="Layer_1" xmlns="http://www.w3.org/2000/svg" xmlns:xlink="http://www.w3.org/1999/xlink" x="0px" y="0px"
	 width="48px" height="48px" viewBox="0 0 48 48" enable-background="new 0 0 48 48" xml:space="preserve">
<g>
	<path fill="#D7B353" d="M46.546,23.867c-0.133-0.228-0.28-0.45-0.449-0.656c-0.959-1.167-2.365-1.835-3.857-1.835H10.448
		c-2.759,0-5.003,2.256-5.003,5.029v3.897v12.668c0,2.771,2.244,5.029,5.003,5.029h31.791c2.757,0,5-2.258,5-5.029V26.405
		C47.239,25.51,46.993,24.634,46.546,23.867z"/>
	<path fill="#CF7C3F" d="M9.788,20.278h33.338c1.564,0,3.039,0.701,4.045,1.925c0.178,0.217,0.331,0.448,0.471,0.688
		c0.027-0.064,0.066-0.118,0.08-0.188c0.188-0.922,0.123-1.881-0.188-2.771L41.833,3.533c-0.461-1.33-1.416-2.399-2.688-3.011
		c-1.263-0.608-2.682-0.688-3.998-0.225L3.683,11.386c-2.726,0.958-4.168,3.971-3.216,6.714l3.909,11.244
		c0.038,0.111,0.097,0.209,0.167,0.297v-4.088C4.543,22.645,6.896,20.278,9.788,20.278z"/>
	<path fill="#FFFFFF" d="M26.343,27.703H11.81c-0.528,0-0.957-0.43-0.957-0.957c0-0.529,0.429-0.958,0.957-0.958h14.533
		c0.529,0,0.958,0.429,0.958,0.958C27.301,27.273,26.872,27.703,26.343,27.703z"/>
	<path fill="#233640" d="M41.952,38.066l-2.635,0.74c-0.623-0.826-1.43-1.797-2.303-2.783l4.949-3.586l-1.155-1.158l-5.896,2.477
		c-0.124-0.129-0.248-0.256-0.373-0.379c-2.987-3.01-4.371-3.666-4.824-3.209c-0.449,0.453,0.202,1.848,3.189,4.855
		c0.121,0.125,0.249,0.252,0.377,0.377l-2.46,5.936l1.153,1.16l3.558-4.98c0.981,0.879,1.946,1.689,2.766,2.316l-0.733,2.654
		l0.778,0.785l1.501-2.381c0.357,0.191,0.602,0.262,0.693,0.17c0.093-0.09,0.02-0.338-0.169-0.697l2.362-1.51L41.952,38.066z"/>
	<path fill="#FFFFFF" d="M26.343,36.938H11.81c-0.528,0-0.957,0.428-0.957,0.957s0.429,0.959,0.957,0.959h14.533
		c0.529,0,0.958-0.43,0.958-0.959S26.872,36.938,26.343,36.938z"/>
	<path fill="#FFFFFF" d="M26.343,31.363H11.81c-0.528,0-0.957,0.428-0.957,0.957s0.429,0.957,0.957,0.957h14.533
		c0.529,0,0.958-0.428,0.958-0.957S26.872,31.363,26.343,31.363z"/>
	<path fill="#00718D" d="M46.546,23.867c-0.133-0.228-0.28-0.45-0.449-0.656c-0.959-1.167-2.365-1.835-3.857-1.835H10.448
		c-2.759,0-5.003,2.256-5.003,5.029v3.897v12.668c0,2.771,2.244,5.029,5.003,5.029h31.791c2.757,0,5-2.258,5-5.029V26.405
		C47.239,25.51,46.993,24.634,46.546,23.867z"/>
	<path fill="#008AAC" d="M9.788,20.278h33.338c1.564,0,3.039,0.701,4.045,1.925c0.178,0.217,0.331,0.448,0.471,0.688
		c0.027-0.064,0.066-0.118,0.08-0.188c0.188-0.922,0.123-1.881-0.188-2.771L41.833,3.533c-0.461-1.33-1.416-2.399-2.688-3.011
		c-1.263-0.608-2.682-0.688-3.998-0.225L3.683,11.386c-2.726,0.958-4.168,3.971-3.216,6.714l3.909,11.244
		c0.038,0.111,0.097,0.209,0.167,0.297v-4.088C4.543,22.645,6.896,20.278,9.788,20.278z"/>
	<path fill="#FFD699" d="M26.343,27.703H11.81c-0.528,0-0.957-0.43-0.957-0.957c0-0.529,0.429-0.958,0.957-0.958h14.533
		c0.529,0,0.958,0.429,0.958,0.958C27.301,27.273,26.872,27.703,26.343,27.703z"/>
	<path fill="#274D57" d="M41.952,38.066l-2.635,0.74c-0.623-0.826-1.43-1.797-2.303-2.783l4.949-3.586l-1.155-1.158l-5.896,2.477
		c-0.124-0.129-0.248-0.256-0.373-0.379c-2.987-3.01-4.371-3.666-4.824-3.209c-0.449,0.453,0.202,1.848,3.189,4.855
		c0.121,0.125,0.249,0.252,0.377,0.377l-2.46,5.936l1.153,1.16l3.558-4.98c0.981,0.879,1.946,1.689,2.766,2.316l-0.733,2.654
		l0.778,0.785l1.501-2.381c0.357,0.191,0.602,0.262,0.693,0.17c0.093-0.09,0.02-0.338-0.169-0.697l2.362-1.51L41.952,38.066z"/>
	<path fill="#FFD699" d="M26.343,36.938H11.81c-0.528,0-0.957,0.428-0.957,0.957s0.429,0.959,0.957,0.959h14.533
		c0.529,0,0.958-0.43,0.958-0.959S26.872,36.938,26.343,36.938z"/>
	<path fill="#FFD699" d="M26.343,31.363H11.81c-0.528,0-0.957,0.428-0.957,0.957s0.429,0.957,0.957,0.957h14.533
		c0.529,0,0.958-0.428,0.958-0.957S26.872,31.363,26.343,31.363z"/>
</g>
</svg>
