<?xml version="1.0" encoding="utf-8"?>
<!-- Generator: Adobe Illustrator 16.0.0, SVG Export Plug-In . SVG Version: 6.00 Build 0)  -->
<!DOCTYPE svg PUBLIC "-//W3C//DTD SVG 1.1//EN" "http://www.w3.org/Graphics/SVG/1.1/DTD/svg11.dtd">
<svg version="1.1" id="Layer_1" xmlns="http://www.w3.org/2000/svg" xmlns:xlink="http://www.w3.org/1999/xlink" x="0px" y="0px"
	 width="48px" height="48px" viewBox="0 0 48 48" enable-background="new 0 0 48 48" xml:space="preserve">
<g>
	<path fill="#FFBE5C" d="M28.818,0h-9.635H6.105C2.738,0,0,2.594,0,5.781v36.438C0,45.406,2.738,48,6.105,48h13.078h9.635
		c3.365,0,6.102-2.594,6.102-5.781V5.781C34.92,2.594,32.184,0,28.818,0z"/>
	<path fill="#00B99B" d="M41.896,0H35.9v48h5.996C45.263,48,48,45.406,48,42.219V5.781C48,2.594,45.263,0,41.896,0z"/>
	<path fill="#FB4732" d="M26.303,21.198l-2.109-1.491v-1.811c0-0.828-0.676-1.5-1.506-1.5c-0.73,0-1.338,0.518-1.477,1.205
		l-2.588-1.828V10.08c0-0.828-0.674-1.5-1.506-1.5c-0.83,0-1.505,0.672-1.505,1.5v5.693l-2.586,1.827
		c-0.138-0.687-0.747-1.204-1.476-1.204c-0.832,0-1.506,0.672-1.506,1.5v1.811l-2.111,1.491c-0.678,0.479-0.838,1.416-0.357,2.092
		c0.295,0.412,0.758,0.632,1.23,0.632c0.301,0,0.605-0.09,0.87-0.276l5.936-4.193v6.001l-2.604,1.55
		c-0.714,0.425-0.946,1.347-0.521,2.058c0.282,0.469,0.782,0.73,1.294,0.73c0.263,0,0.529-0.068,0.771-0.213l2.563-1.525
		l2.566,1.525c0.242,0.145,0.508,0.213,0.771,0.213c0.512,0,1.012-0.262,1.293-0.73c0.428-0.713,0.193-1.633-0.52-2.058l-2.605-1.55
		v-6.002l5.939,4.194c0.264,0.187,0.567,0.276,0.869,0.276c0.472,0,0.936-0.22,1.229-0.633
		C27.143,22.613,26.981,21.678,26.303,21.198z"/>
	<path fill="#274D57" d="M25.24,36.523H9.681c-0.831,0-1.505,0.672-1.505,1.5s0.674,1.5,1.505,1.5h15.56
		c0.832,0,1.506-0.672,1.506-1.5S26.072,36.523,25.24,36.523z"/>
	<path fill="#FFFFFF" d="M41.58,30.627c0-0.828-0.674-1.5-1.506-1.5c-0.83,0-1.505,0.672-1.505,1.5v1.867
		c0,0.828,0.675,1.5,1.505,1.5c0.832,0,1.506-0.672,1.506-1.5V30.627z"/>
	<path fill="#FFFFFF" d="M40.074,34.955c-0.83,0-1.505,0.672-1.505,1.5v1.869c0,0.828,0.675,1.5,1.505,1.5
		c0.832,0,1.506-0.672,1.506-1.5v-1.869C41.58,35.627,40.906,34.955,40.074,34.955z"/>
	<path fill="#FFFFFF" d="M41.58,18.967c0-0.828-0.674-1.5-1.506-1.5c-0.83,0-1.505,0.672-1.505,1.5v1.869
		c0,0.828,0.675,1.5,1.505,1.5c0.832,0,1.506-0.672,1.506-1.5V18.967z"/>
	<path fill="#FFFFFF" d="M41.58,24.797c0-0.828-0.674-1.5-1.506-1.5c-0.83,0-1.505,0.672-1.505,1.5v1.867
		c0,0.828,0.675,1.5,1.505,1.5c0.832,0,1.506-0.672,1.506-1.5V24.797z"/>
	<path fill="#FFFFFF" d="M41.58,8.32c0-0.828-0.674-1.5-1.506-1.5c-0.83,0-1.505,0.672-1.505,1.5v6.297c0,0.828,0.675,1.5,1.505,1.5
		c0.832,0,1.506-0.672,1.506-1.5V8.32z"/>
</g>
</svg>
