<?xml version="1.0" encoding="utf-8"?>
<!-- Generator: Adobe Illustrator 16.0.0, SVG Export Plug-In . SVG Version: 6.00 Build 0)  -->
<!DOCTYPE svg PUBLIC "-//W3C//DTD SVG 1.1//EN" "http://www.w3.org/Graphics/SVG/1.1/DTD/svg11.dtd">
<svg version="1.1" id="Layer_1" xmlns="http://www.w3.org/2000/svg" xmlns:xlink="http://www.w3.org/1999/xlink" x="0px" y="0px"
	 width="48px" height="48px" viewBox="0 0 48 48" enable-background="new 0 0 48 48" xml:space="preserve">
<g>
	<rect x="21.682" fill="#FFD699" width="6.334" height="25.5"/>
	<path fill="#274D57" d="M10.553,48c-0.552,0-1-0.447-1-1v-4.137c0-0.551,0.448-1,1-1s1,0.449,1,1V47
		C11.553,47.553,11.104,48,10.553,48z"/>
	<path fill="#274D57" d="M37.445,48c-0.551,0-1-0.447-1-1v-4.137c0-0.551,0.449-1,1-1c0.553,0,1,0.449,1,1V47
		C38.445,47.553,37.998,48,37.445,48z"/>
	<path fill="#274D57" d="M1,18.552c-0.554,0-1-0.447-1-1V7.376c0-0.552,0.446-1,1-1c0.553,0,1,0.448,1,1v10.176
		C2,18.104,1.553,18.552,1,18.552z"/>
	<path fill="#274D57" d="M47,18.552c-0.554,0-1-0.447-1-1V7.376c0-0.552,0.446-1,1-1c0.553,0,1,0.448,1,1v10.176
		C48,18.104,47.553,18.552,47,18.552z"/>
	<path fill="#00B99B" d="M43.449,25.569H4.553c-0.008,0-0.012-0.001-0.02-0.001v10.055c0,3.934,2.658,7.133,5.925,7.133h27.084
		c3.271,0,5.929-3.199,5.929-7.133V25.567C43.463,25.567,43.457,25.569,43.449,25.569z M12.997,36.316
		c-1.798,0-3.253-1.547-3.253-3.455c0-1.91,1.455-3.457,3.253-3.457c1.802,0,3.258,1.547,3.258,3.457
		C16.255,34.77,14.799,36.316,12.997,36.316z M27.102,34.361h-6.199c-0.828,0-1.5-0.672-1.5-1.5s0.672-1.5,1.5-1.5h6.199
		c0.83,0,1.5,0.672,1.5,1.5S27.932,34.361,27.102,34.361z M35.002,36.316c-1.796,0-3.252-1.547-3.252-3.455
		c0-1.91,1.456-3.457,3.252-3.457c1.797,0,3.26,1.547,3.26,3.457C38.262,34.77,36.799,36.316,35.002,36.316z"/>
	<path fill="#FFFFFF" d="M35.002,29.404c-1.796,0-3.252,1.547-3.252,3.457c0,1.908,1.456,3.455,3.252,3.455
		c1.797,0,3.26-1.547,3.26-3.455C38.262,30.951,36.799,29.404,35.002,29.404z"/>
	<path fill="#FFFFFF" d="M16.255,32.861c0-1.91-1.456-3.457-3.258-3.457c-1.798,0-3.253,1.547-3.253,3.457
		c0,1.908,1.455,3.455,3.253,3.455C14.799,36.316,16.255,34.77,16.255,32.861z"/>
	<path fill="#274D57" d="M27.102,34.361c0.83,0,1.5-0.672,1.5-1.5s-0.67-1.5-1.5-1.5h-6.199c-0.828,0-1.5,0.672-1.5,1.5
		s0.672,1.5,1.5,1.5H27.102z"/>
	<path fill="#00A5D3" d="M37.471,0H24.852v25.567h18.619V6C43.471,2.7,40.771,0,37.471,0z"/>
	<path fill="#00A5D3" d="M23.152,0H10.533c-3.3,0-6,2.7-6,6v19.567h18.619V0z"/>
</g>
</svg>
