<?xml version="1.0" encoding="utf-8"?>
<!-- Generator: Adobe Illustrator 16.0.0, SVG Export Plug-In . SVG Version: 6.00 Build 0)  -->
<!DOCTYPE svg PUBLIC "-//W3C//DTD SVG 1.1//EN" "http://www.w3.org/Graphics/SVG/1.1/DTD/svg11.dtd">
<svg version="1.1" id="Layer_1" xmlns="http://www.w3.org/2000/svg" xmlns:xlink="http://www.w3.org/1999/xlink" x="0px" y="0px"
	 width="48px" height="48px" viewBox="0 0 48 48" enable-background="new 0 0 48 48" xml:space="preserve">
<g>
	<path fill="#00718D" d="M46.529,38.686H19.972c-0.702,0-1.306-0.512-1.442-1.225L12.014,3.032H1.469C0.658,3.032,0,2.354,0,1.517
		S0.658,0,1.469,0h11.756c0.703,0,1.306,0.514,1.441,1.227l6.516,34.428h25.348c0.813,0,1.471,0.68,1.471,1.516
		C48,38.008,47.342,38.686,46.529,38.686z"/>
	<path fill="#F7A93B" d="M42.872,18.375H24c-0.542,0-0.979,0.452-0.979,1.011v12.642c0,0.559,0.438,1.01,0.979,1.01h18.872
		c0.542,0,0.979-0.451,0.979-1.01V19.386C43.852,18.827,43.414,18.375,42.872,18.375z"/>
	<path fill="#FFD699" d="M42.872,0.506H24c-0.542,0-0.979,0.452-0.979,1.011v12.637c0,0.559,0.438,1.011,0.979,1.011h18.872
		c0.542,0,0.979-0.452,0.979-1.011V1.517C43.852,0.958,43.414,0.506,42.872,0.506z"/>
	<path fill="#00B99B" d="M44.371,44.705c0,1.82-1.409,3.295-3.15,3.295c-1.742,0-3.157-1.475-3.157-3.295
		c0-1.814,1.415-3.291,3.157-3.291C42.962,41.414,44.371,42.891,44.371,44.705z"/>
	<path fill="#00B99B" d="M26.271,44.705c0,1.82-1.412,3.295-3.151,3.295c-1.745,0-3.157-1.475-3.157-3.295
		c0-1.814,1.412-3.291,3.157-3.291C24.858,41.414,26.271,42.891,26.271,44.705z"/>
</g>
</svg>
