<?xml version="1.0" encoding="utf-8"?>
<!-- Generator: Adobe Illustrator 16.0.0, SVG Export Plug-In . SVG Version: 6.00 Build 0)  -->
<!DOCTYPE svg PUBLIC "-//W3C//DTD SVG 1.1//EN" "http://www.w3.org/Graphics/SVG/1.1/DTD/svg11.dtd">
<svg version="1.1" id="Layer_1" xmlns="http://www.w3.org/2000/svg" xmlns:xlink="http://www.w3.org/1999/xlink" x="0px" y="0px"
	 width="48px" height="48px" viewBox="0 0 48 48" enable-background="new 0 0 48 48" xml:space="preserve">
<g>
	<path fill="#274D57" d="M37.417,0c-0.552,0-1,0.447-1,1v4.046v0.653v5.794c0,0.699,0.448,0.766,1,0.766c0.554,0,1-0.066,1-0.766
		V5.699V5.046V1C38.417,0.447,37.971,0,37.417,0z"/>
	<path fill="#0093BB" d="M0,43.146C0,45.822,1.825,48,4.07,48h39.858C46.174,48,48,45.822,48,43.146V17.121H0V43.146z"/>
	<path fill="#FB4732" d="M43.929,5.699h-5.512v5.512c0,0.553-0.446,1-1,1c-0.552,0-1-0.447-1-1V5.699H11.583v5.512
		c0,0.553-0.446,1-1,1c-0.553,0-1-0.447-1-1V5.699H4.07C1.825,5.699,0,7.877,0,10.555v4.566h48v-4.566
		C48,7.877,46.174,5.699,43.929,5.699z"/>
	<path fill="#274D57" d="M10.583,0c-0.553,0-1,0.447-1,1v4.046v0.653v5.794c0,0.699,0.447,0.766,1,0.766c0.554,0,1-0.066,1-0.766
		V5.699V5.046V1C11.583,0.447,11.137,0,10.583,0z"/>
	<rect x="7.941" y="17.121" fill="#FFFFFF" width="1.605" height="30.879"/>
	<rect x="18.111" y="17.121" fill="#FFFFFF" width="1.605" height="30.879"/>
	<rect x="28.283" y="17.121" fill="#FFFFFF" width="1.604" height="30.879"/>
	<rect x="38.453" y="17.121" fill="#FFFFFF" width="1.607" height="30.879"/>
	<rect y="26.741" fill="#FFFFFF" width="48" height="1.587"/>
	<rect y="15.121" fill="#FFFFFF" width="48" height="2"/>
	<rect y="36.793" fill="#FFFFFF" width="48" height="1.588"/>
	<path fill="#00718D" d="M39.688,48v-9.943c0,0,2.231,0.725,4.091,0.758C45.251,38.842,48,38.057,48,38.057L39.688,48z"/>
	<path fill="#AB3326" d="M11.583,10.593v0.672c0,0.553-0.446,1-1,1c-0.553,0-1-0.447-1-1v-0.671
		c-0.31,0.226-0.508,0.552-0.508,0.919c0,0.683,0.675,1.236,1.508,1.236s1.509-0.554,1.509-1.236
		C12.092,11.146,11.893,10.819,11.583,10.593z"/>
	<path fill="#AB3326" d="M38.417,10.593v0.672c0,0.553-0.446,1-1,1c-0.552,0-1-0.447-1-1v-0.671
		c-0.31,0.226-0.508,0.552-0.508,0.919c0,0.683,0.674,1.236,1.508,1.236c0.833,0,1.508-0.554,1.508-1.236
		C38.925,11.146,38.728,10.819,38.417,10.593z"/>
</g>
</svg>
