<?xml version="1.0" encoding="utf-8"?>
<!-- Generator: Adobe Illustrator 16.0.0, SVG Export Plug-In . SVG Version: 6.00 Build 0)  -->
<!DOCTYPE svg PUBLIC "-//W3C//DTD SVG 1.1//EN" "http://www.w3.org/Graphics/SVG/1.1/DTD/svg11.dtd">
<svg version="1.1" id="Layer_1" xmlns="http://www.w3.org/2000/svg" xmlns:xlink="http://www.w3.org/1999/xlink" x="0px" y="0px"
	 width="48px" height="48px" viewBox="0 0 48 48" enable-background="new 0 0 48 48" xml:space="preserve">
<g>
	<path fill="#00B99B" d="M12.782,32.328c-5.335,0-9.06,2.857-9.06,6.951c0,4.115,3.873,8.721,9.06,8.721
		c5.185,0,9.06-4.605,9.06-8.721C21.842,35.186,18.117,32.328,12.782,32.328z"/>
	<path fill="#00B99B" d="M35.217,32.328c-5.334,0-9.06,2.857-9.06,6.951c0,4.115,3.874,8.721,9.06,8.721
		c5.187,0,9.062-4.605,9.062-8.721C44.278,35.186,40.553,32.328,35.217,32.328z"/>
	<path fill="#274D57" d="M27.225,39.5h-6.45c-0.591,0-1.067-0.479-1.067-1.068s0.477-1.066,1.067-1.066h6.45
		c0.59,0,1.066,0.477,1.066,1.066S27.814,39.5,27.225,39.5z"/>
	<path fill="#274D57" d="M4.293,39.5H1.068c-0.59,0-1.067-0.479-1.067-1.068s0.478-1.066,1.067-1.066h3.225
		c0.59,0,1.067,0.477,1.067,1.066S4.883,39.5,4.293,39.5z"/>
	<path fill="#274D57" d="M46.933,39.5h-3.225c-0.591,0-1.067-0.479-1.067-1.068s0.477-1.066,1.067-1.066h3.225
		c0.59,0,1.067,0.477,1.067,1.066S47.522,39.5,46.933,39.5z"/>
	<path fill="#F7A93B" d="M38.731,10.607c0.609,1.877,0.96,3.895,0.96,6.008c0,0.121-0.008,0.238-0.014,0.357l-0.009,0.186
		c-0.011,0.355-0.208,0.68-0.52,0.85c-4.386,2.398-9.206,3.615-14.333,3.615l0,0c-5.133,0-10.476-1.189-15.881-3.537
		c-0.356-0.154-0.591-0.502-0.602-0.891l-0.01-0.203c-0.008-0.125-0.015-0.25-0.015-0.377c0-2.111,0.351-4.129,0.96-6.008
		C3.375,12.609,0,15.689,0,19.107c0,5.996,10.541,10.695,24,10.695c13.457,0,23.999-4.699,23.999-10.695
		C47.999,15.691,44.625,12.609,38.731,10.607z"/>
	<path fill="#F7A93B" d="M37.141,10.352C35.182,4.324,30.039,0,24,0c-6.038,0-11.182,4.324-13.14,10.352
		c-0.544,1.676-0.856,3.475-0.856,5.357c0,0.115,0.006,0.227,0.013,0.338l0.009,0.182c0.01,0.346,0.219,0.656,0.537,0.795
		c4.82,2.092,9.586,3.154,14.165,3.154c0,0,0.001,0,0.002,0c4.571,0,8.873-1.086,12.784-3.227c0.277-0.15,0.453-0.439,0.464-0.756
		l0.007-0.166c0.007-0.105,0.012-0.211,0.012-0.32C37.996,13.826,37.684,12.025,37.141,10.352z"/>
</g>
</svg>
