<?xml version="1.0" encoding="utf-8"?>
<!-- Generator: Adobe Illustrator 16.0.0, SVG Export Plug-In . SVG Version: 6.00 Build 0)  -->
<!DOCTYPE svg PUBLIC "-//W3C//DTD SVG 1.1//EN" "http://www.w3.org/Graphics/SVG/1.1/DTD/svg11.dtd">
<svg version="1.1" id="Layer_1" xmlns="http://www.w3.org/2000/svg" xmlns:xlink="http://www.w3.org/1999/xlink" x="0px" y="0px"
	 width="48px" height="48px" viewBox="0 0 48 48" enable-background="new 0 0 48 48" xml:space="preserve">
<g>
	<path fill="#FFFFFF" d="M28.436,26.172c0-5.951-4.842-10.793-10.793-10.793S6.85,20.221,6.85,26.172s4.842,10.793,10.793,10.793
		S28.436,32.123,28.436,26.172z"/>
	<path fill="#00B99B" d="M17.643,19.359c-3.756,0-6.813,3.057-6.813,6.813s3.057,6.813,6.813,6.813s6.813-3.057,6.813-6.813
		S21.398,19.359,17.643,19.359z"/>
	<path fill="#00A5D3" d="M40.724,34.223V17.069c0-0.553-0.448-1-1-1s-1,0.447-1,1v17.153c0,0.553,0.448,1,1,1
		S40.724,34.775,40.724,34.223z"/>
	<path fill="#00718D" d="M44.753,10.303H31.656V6.957c0-0.553-0.447-1-1-1H17.344c-0.553,0-1,0.447-1,1v3.346H3.247
		C1.457,10.303,0,11.759,0,13.55v25.245c0,1.791,1.457,3.248,3.247,3.248h41.506c1.79,0,3.247-1.457,3.247-3.248V13.55
		C48,11.759,46.543,10.303,44.753,10.303z M17.643,36.965c-5.951,0-10.793-4.842-10.793-10.793s4.842-10.793,10.793-10.793
		s10.793,4.842,10.793,10.793S23.594,36.965,17.643,36.965z M40.724,34.223c0,0.553-0.448,1-1,1s-1-0.447-1-1V17.069
		c0-0.553,0.448-1,1-1s1,0.447,1,1V34.223z"/>
	<path fill="#00A5D3" d="M2.252,37.598V14.747c0-1.621,1.318-2.939,2.939-2.939H4.184c-1.62,0-2.939,1.318-2.939,2.939v22.851
		c0,1.621,1.319,2.939,2.939,2.939h1.008C3.57,40.537,2.252,39.219,2.252,37.598z"/>
</g>
</svg>
