<?xml version="1.0" encoding="utf-8"?>
<!-- Generator: Adobe Illustrator 16.0.0, SVG Export Plug-In . SVG Version: 6.00 Build 0)  -->
<!DOCTYPE svg PUBLIC "-//W3C//DTD SVG 1.1//EN" "http://www.w3.org/Graphics/SVG/1.1/DTD/svg11.dtd">
<svg version="1.1" id="Layer_1" xmlns="http://www.w3.org/2000/svg" xmlns:xlink="http://www.w3.org/1999/xlink" x="0px" y="0px"
	 width="48px" height="48px" viewBox="0 0 48 48" enable-background="new 0 0 48 48" xml:space="preserve">
<g>
	<rect x="9.09" y="3.532" fill="#FFD699" width="29.861" height="21.657"/>
	<path d="M45.826,9.953l-0.715-0.075c0.121-1.164-0.121-2.019-0.719-2.539c-1.221-1.063-3.566-0.5-3.59-0.493l-0.174-0.698
		c0.111-0.028,2.73-0.659,4.234,0.647C45.648,7.479,45.973,8.541,45.826,9.953z"/>
	<path d="M42.209,22.002c-0.85,0-1.523-0.162-1.58-0.176l0.174-0.699c0.023,0.006,2.369,0.57,3.59-0.493
		c0.598-0.521,0.84-1.375,0.719-2.54l0.715-0.074c0.146,1.412-0.178,2.475-0.963,3.158C44.107,21.836,43.068,22.002,42.209,22.002z"
		/>
	<path d="M2.174,9.953C2.027,8.541,2.352,7.479,3.137,6.795c1.504-1.309,4.121-0.676,4.234-0.647L7.197,6.846
		c-0.023-0.007-2.369-0.569-3.59,0.493C3.01,7.859,2.768,8.714,2.889,9.878L2.174,9.953z"/>
	<path d="M5.793,22.002c-0.859,0-1.9-0.166-2.656-0.824c-0.785-0.684-1.109-1.746-0.963-3.158l0.715,0.074
		c-0.121,1.166,0.121,2.021,0.721,2.541c1.227,1.064,3.564,0.499,3.588,0.492l0.174,0.699C7.316,21.84,6.641,22.002,5.793,22.002z"
		/>
	<path fill="#E77428" d="M40.697,5.684c-0.039-1.612-1.393-2.931-3.01-2.931c0,0-8.531-1.954-14.609-1.954
		C16,0.799,9.875,2.753,9.875,2.753c-1.617,0-2.971,1.318-3.008,2.931L6.023,39.76c-0.004,0.182,0.014,0.359,0.043,0.533h35.43
		c0.029-0.174,0.047-0.352,0.043-0.533L40.697,5.684z M10.959,38.498c-1.828,0-3.309-0.857-3.309-1.914
		c0-1.059,1.48-1.914,3.309-1.914c1.826,0,3.307,0.855,3.307,1.914C14.266,37.641,12.785,38.498,10.959,38.498z M11.367,23.516
		c-1.078,0-1.912-0.879-1.855-1.953l0.77-14.174c0.059-1.073,0.988-1.951,2.066-1.951c0,0,4.045-0.977,10.496-0.977
		c7.842,0,12.373,0.977,12.373,0.977c1.076,0,2.008,0.878,2.064,1.951l0.77,14.174c0.059,1.074-0.777,1.953-1.855,1.953
		c0,0-6.082,0.977-13.758,0.977C15.984,24.492,11.367,23.516,11.367,23.516z M36.361,38.498c-1.826,0-3.309-0.857-3.309-1.914
		c0-1.059,1.482-1.914,3.309-1.914c1.828,0,3.309,0.855,3.309,1.914C39.67,37.641,38.189,38.498,36.361,38.498z"/>
	<path fill="#274D57" d="M41.496,40.293H6.066c0.205,1.264,1.238,2.24,2.537,2.371v2.582c0,1.074,0.881,1.955,1.961,1.955h2.123
		c1.078,0,1.961-0.881,1.961-1.955v-2.555h18.268v2.555c0,1.074,0.881,1.955,1.959,1.955h2.123c1.078,0,1.961-0.881,1.961-1.955
		v-2.582C40.258,42.533,41.291,41.557,41.496,40.293z"/>
	<path fill="#0093BB" d="M48,16.512c0,1.074-0.883,1.953-1.959,1.953h-1.145c-1.078,0-1.961-0.879-1.961-1.953V11.87
		c0-1.075,0.883-1.954,1.961-1.954h1.145c1.076,0,1.959,0.879,1.959,1.954V16.512z"/>
	<path fill="#0093BB" d="M0,16.512c0,1.074,0.881,1.953,1.961,1.953h1.143c1.078,0,1.961-0.879,1.961-1.953V11.87
		c0-1.075-0.883-1.954-1.961-1.954H1.961C0.881,9.916,0,10.795,0,11.87V16.512z"/>
</g>
</svg>
