<?xml version="1.0" encoding="utf-8"?>
<!-- Generator: Adobe Illustrator 16.0.0, SVG Export Plug-In . SVG Version: 6.00 Build 0)  -->
<!DOCTYPE svg PUBLIC "-//W3C//DTD SVG 1.1//EN" "http://www.w3.org/Graphics/SVG/1.1/DTD/svg11.dtd">
<svg version="1.1" id="Layer_1" xmlns="http://www.w3.org/2000/svg" xmlns:xlink="http://www.w3.org/1999/xlink" x="0px" y="0px"
	 width="48px" height="48px" viewBox="0 0 48 48" enable-background="new 0 0 48 48" xml:space="preserve">
<g>
	<path fill="#00B99B" d="M27.007,30.763V7.158C27.007,3.222,24.022,0,20.376,0s-6.631,3.222-6.631,7.158v23.604
		c-2.004,1.811-3.264,4.43-3.264,7.343c0,5.465,4.43,9.895,9.895,9.895s9.895-4.43,9.895-9.895
		C30.271,35.192,29.011,32.573,27.007,30.763z"/>
	<path fill="#DD2B00" d="M20.376,44.632c-3.599,0-6.526-2.928-6.526-6.526c0-1.842,0.785-3.607,2.153-4.844l1.109-1.003V7.158
		c0-2.055,1.494-3.79,3.264-3.79s3.264,1.735,3.264,3.79v25.101l1.109,1.003c1.368,1.236,2.153,3.002,2.153,4.844
		C26.902,41.704,23.975,44.632,20.376,44.632z"/>
	<rect x="28.843" y="6.466" fill="#274D57" width="4.715" height="0.919"/>
	<rect x="28.843" y="9.936" fill="#274D57" width="4.715" height="0.919"/>
	<rect x="28.843" y="13.405" fill="#274D57" width="8.676" height="0.919"/>
	<rect x="28.843" y="16.876" fill="#274D57" width="4.715" height="0.918"/>
	<rect x="28.843" y="20.346" fill="#274D57" width="4.715" height="0.919"/>
	<rect x="28.843" y="23.815" fill="#274D57" width="8.676" height="0.919"/>
	<rect x="28.843" y="27.285" fill="#274D57" width="4.715" height="0.919"/>
</g>
</svg>
