<?xml version="1.0" encoding="utf-8"?>
<!-- Generator: Adobe Illustrator 16.0.0, SVG Export Plug-In . SVG Version: 6.00 Build 0)  -->
<!DOCTYPE svg PUBLIC "-//W3C//DTD SVG 1.1//EN" "http://www.w3.org/Graphics/SVG/1.1/DTD/svg11.dtd">
<svg version="1.1" id="Layer_1" xmlns="http://www.w3.org/2000/svg" xmlns:xlink="http://www.w3.org/1999/xlink" x="0px" y="0px"
	 width="48px" height="48px" viewBox="0 0 48 48" enable-background="new 0 0 48 48" xml:space="preserve">
<g>
	<ellipse fill="#5A7478" cx="23.836" cy="36.959" rx="23.842" ry="9.352"/>
	<ellipse fill="#008AAC" cx="23.835" cy="36.959" rx="14.702" ry="4.697"/>
	<path fill="#E77428" d="M39.879,11.254c0-2.223-7.178-4.024-16.031-4.024c-8.853,0-16.029,1.802-16.029,4.024
		c0,0.033,0.006,0.065,0.01,0.098c-0.004,0.032-0.01,0.064-0.01,0.098v13.623c0,7.891,6.234,14.313,13.898,14.313h4.262
		c7.664,0,13.9-6.422,13.9-14.313V11.449c0-0.033-0.007-0.064-0.01-0.098C39.872,11.319,39.879,11.287,39.879,11.254z
		 M23.848,14.726c-7.748,0-14.029-1.358-14.029-3.034S16.1,8.657,23.848,8.657c7.75,0,14.031,1.358,14.031,3.034
		S31.598,14.726,23.848,14.726z"/>
	<path fill="#E77428" d="M42.719,27.287c-2.916,0-5.289-2.484-5.289-5.539v-4.233c0-3.056,2.373-5.541,5.289-5.541
		c2.914,0,5.287,2.485,5.287,5.541v4.233C48.006,24.803,45.633,27.287,42.719,27.287z M42.719,14.912
		c-1.297,0-2.35,1.168-2.35,2.603v4.233c0,1.434,1.053,2.602,2.35,2.602c1.295,0,2.348-1.168,2.348-2.602v-4.233
		C45.066,16.08,44.014,14.912,42.719,14.912z"/>
	<path fill="#CFD0D1" d="M28.621,11.974c-0.541,0-0.979-0.438-0.979-0.979V5.818c0-0.541,0.438-0.979,0.979-0.979
		c0.543,0,0.98,0.438,0.98,0.979v5.176C29.602,11.535,29.164,11.974,28.621,11.974z"/>
	<path fill="#CFD0D1" d="M23.848,11.974c-0.541,0-0.98-0.438-0.98-0.979V2.669c0-0.541,0.439-0.979,0.98-0.979
		s0.979,0.438,0.979,0.979v8.325C24.826,11.535,24.389,11.974,23.848,11.974z"/>
	<path fill="#CFD0D1" d="M19.074,11.974c-0.541,0-0.98-0.438-0.98-0.979V5.818c0-0.541,0.439-0.979,0.98-0.979
		s0.979,0.438,0.979,0.979v5.176C20.053,11.535,19.615,11.974,19.074,11.974z"/>
	<path fill="#FFD699" d="M23.848,21.611c-2.844,0-10.717-0.182-14.029-2.083v6.659c0,6.174,5.338,11.197,11.898,11.197h4.262
		c6.563,0,11.9-5.023,11.9-11.197v-6.659C34.566,21.43,26.693,21.611,23.848,21.611z"/>
	<ellipse fill="#F7A93B" cx="23.849" cy="19.363" rx="14.03" ry="2.759"/>
</g>
</svg>
