<?xml version="1.0" encoding="utf-8"?>
<!-- Generator: Adobe Illustrator 16.0.0, SVG Export Plug-In . SVG Version: 6.00 Build 0)  -->
<!DOCTYPE svg PUBLIC "-//W3C//DTD SVG 1.1//EN" "http://www.w3.org/Graphics/SVG/1.1/DTD/svg11.dtd">
<svg version="1.1" id="Layer_1" xmlns="http://www.w3.org/2000/svg" xmlns:xlink="http://www.w3.org/1999/xlink" x="0px" y="0px"
	 width="48px" height="48px" viewBox="0 0 48 48" enable-background="new 0 0 48 48" xml:space="preserve">
<g>
	<path fill="#274D57" d="M25.069,23.552l-3.809-9.417c0,0-2.251,0.887-2.659,1.072l3.688,9.117V45.21
		c0,0.771,0.645,1.396,1.439,1.396s1.44-0.625,1.44-1.396V24.061C25.169,23.887,25.135,23.714,25.069,23.552z"/>
	<path fill="#274D57" d="M28.896,46.605h-9.793c-0.795,0-1.44-0.625-1.44-1.396c0-0.77,0.646-1.395,1.44-1.395h9.793
		c0.795,0,1.439,0.625,1.439,1.395C30.336,45.98,29.691,46.605,28.896,46.605z"/>
	<path fill="#00A5D3" d="M46.081,48c-0.609,0-1.207-0.279-1.58-0.803l-4.275-5.982h-29.33c-0.678,0-1.306-0.348-1.651-0.912
		L0.269,25.632c-0.54-0.885-0.239-2.025,0.673-2.548c0.91-0.525,2.09-0.232,2.631,0.651l8.417,13.759h29.242
		c0.63,0,1.221,0.3,1.579,0.802l4.848,6.785c0.604,0.845,0.387,2.004-0.486,2.589C46.839,47.893,46.458,48,46.081,48z"/>
	<path fill="#00A5D3" d="M11.072,48c-0.387,0-0.777-0.114-1.117-0.349c-0.861-0.6-1.059-1.762-0.44-2.596l5.025-6.785
		c0.617-0.834,1.815-1.026,2.68-0.428c0.861,0.598,1.059,1.761,0.44,2.596l-5.025,6.786C12.26,47.729,11.671,48,11.072,48z"/>
	<path fill="#274D57" d="M14.83,2.865c0.078-0.04,0.157-0.076,0.237-0.11c0.124-0.053,0.248-0.104,0.373-0.156
		c0.008-0.004,0.01-0.005,0.021-0.01c0.101-0.049,0.194-0.103,0.285-0.168c0.118-0.086,0.252-0.134,0.39-0.156L15.46,0.594
		c-0.194-0.479-0.753-0.718-1.244-0.528c-0.494,0.188-0.737,0.728-0.544,1.206l0.711,1.761C14.518,2.941,14.669,2.88,14.83,2.865z"
		/>
	<path fill="#FFD699" d="M16.382,2.194c-0.257,0.08-0.513,0.168-0.768,0.264l4.721,12.044l5.195-2.037
		C24.828,10.65,21.962,4.141,16.382,2.194z"/>
	<path fill="#FB4732" d="M14.638,2.859c-0.078,0.036-0.154,0.073-0.232,0.11c-2.771,5.219-0.45,11.945,0.268,13.752l4.68-1.835
		L14.638,2.859z"/>
	<path fill="#FB4732" d="M32.65,9.107c-1.809-4.617-6.46-7.6-11.85-7.6c-0.911,0-1.818,0.086-2.714,0.255
		c5.153,2.554,7.737,8.489,8.43,10.316l5.835-2.288C32.623,9.685,32.757,9.379,32.65,9.107z"/>
	<path fill="#FFD699" d="M12.86,3.815c-5.345,3.362-7.872,9.724-5.692,15.282c0.051,0.13,0.151,0.235,0.279,0.291
		c0.067,0.029,0.14,0.044,0.212,0.044c0.064,0,0.13-0.013,0.192-0.037l5.835-2.287C12.954,15.3,10.818,9.191,12.86,3.815z"/>
</g>
</svg>
