<?xml version="1.0" encoding="utf-8"?>
<!-- Generator: Adobe Illustrator 16.0.0, SVG Export Plug-In . SVG Version: 6.00 Build 0)  -->
<!DOCTYPE svg PUBLIC "-//W3C//DTD SVG 1.1//EN" "http://www.w3.org/Graphics/SVG/1.1/DTD/svg11.dtd">
<svg version="1.1" id="Layer_1" xmlns="http://www.w3.org/2000/svg" xmlns:xlink="http://www.w3.org/1999/xlink" x="0px" y="0px"
	 width="48px" height="48px" viewBox="0 0 48 48" enable-background="new 0 0 48 48" xml:space="preserve">
<g>
	<path fill="#FFD699" d="M14.771,7.343L1.258,0.097c-0.274-0.147-0.592-0.124-0.849,0.06C0.154,0.34,0,0.658,0,1.001v38.753
		c0,0.387,0.195,0.738,0.504,0.904l13.514,7.246C14.137,47.969,14.266,48,14.395,48c0.164,0,0.327-0.053,0.471-0.156
		c0.256-0.184,0.409-0.502,0.409-0.844V8.247C15.274,7.86,15.08,7.508,14.771,7.343z"/>
	<path fill="#F7A93B" d="M31.236,0.156c-0.257-0.184-0.577-0.205-0.85-0.06L16.875,7.343c-0.309,0.165-0.504,0.518-0.504,0.904V47
		c0,0.342,0.153,0.66,0.408,0.844C16.924,47.947,17.087,48,17.251,48c0.129,0,0.258-0.033,0.378-0.096l13.512-7.246
		c0.309-0.166,0.505-0.518,0.505-0.904V1.001C31.646,0.658,31.49,0.34,31.236,0.156z"/>
	<path fill="#FFD699" d="M47.496,7.343L33.982,0.097c-0.274-0.147-0.592-0.124-0.85,0.06c-0.254,0.184-0.408,0.502-0.408,0.845
		v38.753c0,0.387,0.195,0.738,0.504,0.904l13.513,7.246C46.858,47.969,46.99,48,47.119,48c0.161,0,0.326-0.053,0.471-0.156
		C47.846,47.66,48,47.342,48,47V8.247C48,7.86,47.803,7.508,47.496,7.343z"/>
</g>
</svg>
