<?xml version="1.0" encoding="utf-8"?>
<!-- Generator: Adobe Illustrator 16.0.0, SVG Export Plug-In . SVG Version: 6.00 Build 0)  -->
<!DOCTYPE svg PUBLIC "-//W3C//DTD SVG 1.1//EN" "http://www.w3.org/Graphics/SVG/1.1/DTD/svg11.dtd">
<svg version="1.1" id="Layer_1" xmlns="http://www.w3.org/2000/svg" xmlns:xlink="http://www.w3.org/1999/xlink" x="0px" y="0px"
	 width="48px" height="48px" viewBox="0 0 48 48" enable-background="new 0 0 48 48" xml:space="preserve">
<g>
	<path fill="#506E76" d="M42.458,15.153c-0.188-0.211-0.458-0.33-0.74-0.33h-6.161c-0.553,0-1,0.447-1,1
		c0,0.317,0.15,0.597,0.381,0.78h-0.381v5.592h-0.648c-0.554,0-1,0.447-1,1c0,0.086,0.013,0.168,0.034,0.248H5.559v5.471
		c-0.521,0.035-0.936,0.463-0.936,0.994v4.623c0,0.553,0.447,1,1,1h3.854c-0.002-0.039-0.006-0.078-0.006-0.119
		c0-3.045,2.476-5.521,5.521-5.521c3.046,0,5.521,2.477,5.521,5.521c0,0.041-0.005,0.08-0.005,0.119h13.055
		c0-0.039-0.006-0.078-0.006-0.119c0-3.045,2.477-5.521,5.521-5.521s5.521,2.477,5.521,5.521c0,0.041-0.007,0.08-0.007,0.119h0.262
		H47c0.553,0,1-0.447,1-1C48,21.423,42.686,15.401,42.458,15.153z"/>
	<path fill="#DD2B00" d="M34.784,8.066H1c-0.553,0-1,0.447-1,1v19.59c0,0.553,0.447,1,1,1h33.784c0.553,0,1-0.447,1-1V9.066
		C35.784,8.514,35.337,8.066,34.784,8.066z"/>
	<path fill="#274D57" d="M39.078,30.891c-2.495,0-4.521,2.027-4.521,4.521c0,2.492,2.026,4.521,4.521,4.521
		c2.492,0,4.521-2.029,4.521-4.521C43.6,32.918,41.57,30.891,39.078,30.891z"/>
	<path fill="#274D57" d="M14.991,30.891c-2.491,0-4.521,2.027-4.521,4.521c0,2.492,2.029,4.521,4.521,4.521
		c2.495,0,4.521-2.029,4.521-4.521C19.513,32.918,17.486,30.891,14.991,30.891z"/>
	<rect x="2.619" y="10.539" fill="#FFD699" width="0.639" height="16.643"/>
	<rect x="6.893" y="10.539" fill="#FFD699" width="0.637" height="16.643"/>
	<rect x="11.164" y="10.539" fill="#FFD699" width="0.639" height="16.643"/>
	<rect x="15.438" y="10.539" fill="#FFD699" width="0.638" height="16.643"/>
	<rect x="19.709" y="10.539" fill="#FFD699" width="0.639" height="16.643"/>
	<rect x="23.982" y="10.539" fill="#FFD699" width="0.639" height="16.643"/>
	<rect x="28.254" y="10.539" fill="#FFD699" width="0.639" height="16.643"/>
	<rect x="32.525" y="10.539" fill="#FFD699" width="0.641" height="16.643"/>
	<path fill="#FFFFFF" d="M44.754,24.879h-7.738v-7.844h4.608c0,0,1.372,1.737,2.077,3.651C44.55,22.984,44.754,24.879,44.754,24.879
		z"/>
	<rect x="37.016" y="26.252" fill="#FFD699" width="3.354" height="0.688"/>
</g>
</svg>
