<?xml version="1.0" encoding="utf-8"?>
<!-- Generator: Adobe Illustrator 16.0.0, SVG Export Plug-In . SVG Version: 6.00 Build 0)  -->
<!DOCTYPE svg PUBLIC "-//W3C//DTD SVG 1.1//EN" "http://www.w3.org/Graphics/SVG/1.1/DTD/svg11.dtd">
<svg version="1.1" id="Layer_1" xmlns="http://www.w3.org/2000/svg" xmlns:xlink="http://www.w3.org/1999/xlink" x="0px" y="0px"
	 width="48px" height="48px" viewBox="0 0 48 48" enable-background="new 0 0 48 48" xml:space="preserve">
<g>
	<path fill="#0093BB" d="M46.284,12.806c-0.688-1.165-1.569-1.888-2.614-2.153c-5.399-1.366-11.323,9.89-14.183,21.17
		c-0.876,3.465-1.468,6.854-1.759,10.072c-0.049,0.535,0.343,1.008,0.875,1.057c0.501,0.043,0.914-0.293,1.016-0.762l11.543,2.545
		c-0.098,0.449,0.112,0.914,0.549,1.1c0.122,0.051,0.25,0.076,0.375,0.076c0.376,0,0.734-0.223,0.891-0.592
		c1.205-2.863,2.24-5.988,3.076-9.287C48.562,26.139,48.654,16.805,46.284,12.806z M43.467,14.767l-6.738,26.571
		c-0.099,0.391-0.445,0.648-0.826,0.648c-0.07,0-0.143-0.008-0.214-0.027c-0.456-0.117-0.732-0.584-0.616-1.045l6.738-26.571
		c0.115-0.461,0.58-0.74,1.039-0.62C43.307,13.84,43.583,14.307,43.467,14.767z"/>
	<path fill="#274D57" d="M45.586,47.998c-0.161,0-0.322-0.039-0.471-0.123C26.295,37.33,7.602,47.766,7.414,47.871
		c-0.465,0.268-1.056,0.104-1.317-0.363c-0.264-0.467-0.103-1.061,0.361-1.324c0.196-0.115,19.837-11.082,39.599-0.004
		c0.467,0.26,0.633,0.852,0.372,1.32C46.254,47.818,45.924,47.998,45.586,47.998z"/>
	<path fill="#E8B945" d="M14.384,9.918c-2.464,0-4.472,2.008-4.472,4.476c0,2.468,2.008,4.476,4.472,4.476
		c2.466,0,4.474-2.008,4.474-4.476C18.857,11.926,16.85,9.918,14.384,9.918z"/>
	<path fill="#E8B945" d="M14.384,8.952c-0.589,0-1.067-0.48-1.067-1.074V1.074C13.316,0.48,13.795,0,14.384,0
		c0.591,0,1.067,0.48,1.067,1.074v6.804C15.451,8.472,14.975,8.952,14.384,8.952z"/>
	<path fill="#E8B945" d="M14.384,28.785c-0.589,0-1.067-0.48-1.067-1.072v-6.805c0-0.595,0.479-1.074,1.067-1.074
		c0.591,0,1.067,0.479,1.067,1.074v6.805C15.451,28.305,14.975,28.785,14.384,28.785z"/>
	<path fill="#E8B945" d="M27.701,15.467h-6.803c-0.59,0-1.066-0.479-1.066-1.074c0-0.594,0.477-1.073,1.066-1.073h6.803
		c0.59,0,1.068,0.479,1.068,1.073C28.77,14.988,28.291,15.467,27.701,15.467z"/>
	<path fill="#E8B945" d="M7.871,15.467H1.066C0.479,15.467,0,14.988,0,14.394C0,13.8,0.479,13.32,1.066,13.32h6.805
		c0.59,0,1.066,0.479,1.066,1.073C8.938,14.988,8.461,15.467,7.871,15.467z"/>
	<path fill="#E8B945" d="M18.99,10.859c-0.275,0-0.549-0.106-0.758-0.317c-0.416-0.419-0.415-1.099,0.004-1.518l4.813-4.811
		c0.418-0.419,1.094-0.415,1.51,0.004c0.416,0.422,0.413,1.101-0.005,1.519l-4.813,4.812C19.533,10.757,19.262,10.859,18.99,10.859z
		"/>
	<path fill="#E8B945" d="M4.967,24.885c-0.273,0-0.547-0.105-0.756-0.316c-0.416-0.42-0.415-1.1,0.004-1.52l4.81-4.811
		c0.418-0.42,1.095-0.416,1.51,0.006c0.416,0.419,0.415,1.098-0.004,1.518l-4.81,4.811C5.512,24.781,5.24,24.885,4.967,24.885z"/>
	<path fill="#E8B945" d="M23.801,24.885c-0.271,0-0.543-0.104-0.752-0.313l-4.812-4.811c-0.417-0.42-0.42-1.099-0.004-1.518
		c0.416-0.42,1.091-0.424,1.511-0.006l4.81,4.811c0.418,0.42,0.421,1.1,0.005,1.52C24.35,24.779,24.075,24.885,23.801,24.885z"/>
	<path fill="#E8B945" d="M9.777,10.859c-0.272,0-0.544-0.103-0.753-0.312l-4.81-4.812C3.796,5.318,3.795,4.64,4.211,4.218
		c0.415-0.419,1.092-0.423,1.51-0.004l4.81,4.811c0.419,0.419,0.42,1.099,0.004,1.518C10.326,10.753,10.053,10.859,9.777,10.859z"/>
	<path fill="#E8B945" d="M27.701,15.467h-6.803c-0.59,0-1.066-0.479-1.066-1.074c0-0.594,0.477-1.073,1.066-1.073h6.803
		c0.59,0,1.068,0.479,1.068,1.073C28.77,14.988,28.291,15.467,27.701,15.467z"/>
	<path fill="#E8B945" d="M7.871,15.467H1.066C0.479,15.467,0,14.988,0,14.394C0,13.8,0.479,13.32,1.066,13.32h6.805
		c0.59,0,1.066,0.479,1.066,1.073C8.938,14.988,8.461,15.467,7.871,15.467z"/>
</g>
</svg>
