<?xml version="1.0" encoding="utf-8"?>
<!-- Generator: Adobe Illustrator 16.0.0, SVG Export Plug-In . SVG Version: 6.00 Build 0)  -->
<!DOCTYPE svg PUBLIC "-//W3C//DTD SVG 1.1//EN" "http://www.w3.org/Graphics/SVG/1.1/DTD/svg11.dtd">
<svg version="1.1" id="Layer_1" xmlns="http://www.w3.org/2000/svg" xmlns:xlink="http://www.w3.org/1999/xlink" x="0px" y="0px"
	 width="48px" height="48px" viewBox="0 0 48 48" enable-background="new 0 0 48 48" xml:space="preserve">
<g>
	<path fill="#274D57" d="M18.405,10.553c-3.235,0-5.871,2.885-5.871,6.43V27.76c0,1.568,0.528,3.082,1.483,4.262
		c0.196,0.244,0.486,0.371,0.777,0.371c0.221,0,0.442-0.074,0.629-0.225c0.43-0.348,0.496-0.977,0.147-1.406
		c-0.045-0.054-0.073-0.116-0.114-0.172l7.194-8.728c0.173,0.143,0.386,0.239,0.628,0.239c0.553,0,1-0.447,1-1v-4.119
		C24.279,13.438,21.645,10.553,18.405,10.553z"/>
	<path fill="#00B99B" d="M41.983,8.379h-7.376c-1.813,0-3.511,0.859-4.657,2.357L11.279,35.141H6.016C2.699,35.141,0,38.025,0,41.57
		S2.699,48,6.016,48h8.114c1.813,0,3.511-0.859,4.659-2.357l18.669-24.404h4.525c3.316,0,6.017-2.885,6.017-6.43
		S45.3,8.379,41.983,8.379z"/>
	<path fill="#FFB241" d="M18.405,0c-2.396,0-4.345,2.074-4.345,4.625c0,2.549,1.948,4.623,4.345,4.623
		c2.398,0,4.349-2.074,4.349-4.623C22.754,2.074,20.804,0,18.405,0z"/>
	<path fill="#FB4732" d="M47.733,35.43l-7.313-7.92c-0.19-0.205-0.456-0.32-0.734-0.32c-0.28,0-0.545,0.115-0.735,0.32l-7.313,7.916
		c-0.269,0.293-0.342,0.717-0.181,1.08c0.158,0.363,0.518,0.6,0.916,0.6h2.672V47c0,0.553,0.446,1,1,1h7.283c0.552,0,1-0.447,1-1
		v-9.891H47c0.396,0,0.755-0.236,0.916-0.6C48.074,36.146,48.004,35.723,47.733,35.43z"/>
</g>
</svg>
