<?xml version="1.0" encoding="utf-8"?>
<!-- Generator: Adobe Illustrator 16.0.0, SVG Export Plug-In . SVG Version: 6.00 Build 0)  -->
<!DOCTYPE svg PUBLIC "-//W3C//DTD SVG 1.1//EN" "http://www.w3.org/Graphics/SVG/1.1/DTD/svg11.dtd">
<svg version="1.1" id="Layer_1" xmlns="http://www.w3.org/2000/svg" xmlns:xlink="http://www.w3.org/1999/xlink" x="0px" y="0px"
	 width="48px" height="48px" viewBox="0 0 48 48" enable-background="new 0 0 48 48" xml:space="preserve">
<g>
	<polygon fill="#F7A93B" points="46.24,8.646 46.24,6.01 43.439,6.01 43.439,4.56 41.99,4.56 41.99,1.76 39.355,1.76 39.355,4.56 
		35.322,4.56 35.322,1.76 32.686,1.76 32.686,4.56 28.652,4.56 28.652,1.76 26.017,1.76 26.017,4.56 21.983,4.56 21.983,1.76 
		19.348,1.76 19.348,4.56 15.314,4.56 15.314,1.76 12.679,1.76 12.679,4.56 8.646,4.56 8.646,1.76 6.01,1.76 6.01,4.56 4.561,4.56 
		4.561,6.01 1.76,6.01 1.76,8.646 4.561,8.646 4.561,12.679 1.76,12.679 1.76,15.313 4.561,15.313 4.561,19.347 1.76,19.347 
		1.76,21.982 4.561,21.982 4.561,26.017 1.76,26.017 1.76,28.651 4.561,28.651 4.561,32.686 1.76,32.686 1.76,35.32 4.561,35.32 
		4.561,39.354 1.76,39.354 1.76,41.989 4.561,41.989 4.561,43.439 6.01,43.439 6.01,46.24 8.646,46.24 8.646,43.439 12.679,43.439 
		12.679,46.24 15.314,46.24 15.314,43.439 19.348,43.439 19.348,46.24 21.983,46.24 21.983,43.439 26.017,43.439 26.017,46.24 
		28.652,46.24 28.652,43.439 32.686,43.439 32.686,46.24 35.322,46.24 35.322,43.439 39.355,43.439 39.355,46.24 41.99,46.24 
		41.99,43.439 43.439,43.439 43.439,41.989 46.24,41.989 46.24,39.354 43.439,39.354 43.439,35.32 46.24,35.32 46.24,32.686 
		43.439,32.686 43.439,28.651 46.24,28.651 46.24,26.017 43.439,26.017 43.439,21.982 46.24,21.982 46.24,19.347 43.439,19.347 
		43.439,15.313 46.24,15.313 46.24,12.679 43.439,12.679 43.439,8.646 	"/>
	<rect x="7.327" y="7.327" fill="#FFD699" width="33.345" height="33.345"/>
	<path fill="#274D57" d="M36.794,21.781c-4.519,0-8.194-3.676-8.194-8.193c0-4.519,3.676-8.194,8.194-8.194s8.194,3.676,8.194,8.194
		C44.988,18.105,41.313,21.781,36.794,21.781z M36.794,6.263c-4.04,0-7.325,3.286-7.325,7.325s3.285,7.325,7.325,7.325
		c4.039,0,7.325-3.286,7.325-7.325S40.833,6.263,36.794,6.263z M36.794,19.944c-3.505,0-6.357-2.852-6.357-6.356
		c0-3.506,2.853-6.357,6.357-6.357s6.356,2.852,6.356,6.357C43.15,17.093,40.299,19.944,36.794,19.944z M36.794,8.1
		c-3.026,0-5.489,2.462-5.489,5.488c0,3.025,2.463,5.487,5.489,5.487s5.488-2.462,5.488-5.487C42.282,10.562,39.82,8.1,36.794,8.1z"
		/>
	<path fill="#FB4732" d="M23.605,34.86c-0.072,0-0.146-0.032-0.205-0.098c-0.243-0.264-0.465-0.563-0.678-0.851
		c-0.309-0.418-0.6-0.813-0.945-1.092c-1.191-0.964-2.454-1.951-3.645-2.516c-1.632-0.773-3.354-0.426-4.977-0.006
		c-0.648,0.167-1.273,0.429-1.876,0.681c-1.01,0.423-2.053,0.858-3.219,0.858H8.056c-0.258,0-0.539,0.029-0.84,0.062
		c-0.729,0.077-1.559,0.164-2.242-0.188c-0.604-0.311-1.15-0.99-1.678-1.648c-0.284-0.353-0.551-0.687-0.811-0.942
		c-0.145-0.142-0.175-0.412-0.069-0.603c0.108-0.192,0.312-0.231,0.456-0.09c0.29,0.286,0.584,0.652,0.869,1.006
		c0.482,0.602,0.981,1.223,1.467,1.473c0.546,0.282,1.263,0.207,1.957,0.133c0.313-0.032,0.607-0.063,0.89-0.063h0.007
		c1.065,0,2.018-0.397,3.023-0.818c0.621-0.26,1.261-0.528,1.947-0.705c1.637-0.425,3.534-0.806,5.32,0.041
		c1.247,0.592,2.544,1.604,3.764,2.591c0.413,0.335,0.747,0.787,1.071,1.224c0.21,0.285,0.407,0.553,0.624,0.787
		c0.14,0.15,0.159,0.422,0.046,0.606C23.794,34.806,23.699,34.86,23.605,34.86z"/>
	<path fill="#FB4732" d="M23.605,37.679c-0.072,0-0.146-0.031-0.205-0.097c-0.243-0.265-0.464-0.563-0.678-0.852
		c-0.309-0.417-0.6-0.813-0.944-1.092c-1.19-0.963-2.452-1.949-3.646-2.515c-1.63-0.772-3.353-0.427-4.977-0.007
		c-0.648,0.168-1.273,0.43-1.876,0.681c-1.01,0.423-2.053,0.858-3.218,0.858c0,0-0.005,0-0.007,0c-0.258,0-0.541,0.03-0.84,0.062
		c-0.73,0.077-1.559,0.164-2.242-0.188c-0.604-0.313-1.15-0.991-1.678-1.649c-0.284-0.353-0.551-0.687-0.811-0.942
		c-0.145-0.142-0.175-0.411-0.069-0.603c0.108-0.191,0.312-0.23,0.456-0.09c0.29,0.286,0.584,0.652,0.869,1.007
		c0.482,0.601,0.981,1.223,1.468,1.473c0.545,0.281,1.261,0.204,1.956,0.133c0.313-0.033,0.607-0.064,0.89-0.064h0.008
		c1.065,0,2.017-0.397,3.022-0.818c0.62-0.26,1.261-0.527,1.947-0.704c1.639-0.425,3.534-0.807,5.32,0.04
		c1.25,0.594,2.545,1.605,3.764,2.591c0.413,0.336,0.747,0.787,1.071,1.225c0.21,0.284,0.407,0.552,0.624,0.786
		c0.14,0.151,0.159,0.423,0.046,0.606C23.794,37.624,23.699,37.679,23.605,37.679z"/>
	<path fill="#FB4732" d="M23.605,40.497c-0.072,0-0.146-0.031-0.205-0.097c-0.243-0.265-0.464-0.563-0.677-0.851
		c-0.309-0.418-0.6-0.812-0.945-1.093c-1.19-0.962-2.452-1.949-3.646-2.516c-1.63-0.771-3.353-0.426-4.977-0.006
		c-0.648,0.168-1.273,0.429-1.876,0.682c-1.008,0.421-2.053,0.857-3.218,0.857c0,0-0.005,0-0.007,0c-0.256,0-0.539,0.03-0.838,0.062
		c-0.731,0.077-1.56,0.164-2.244-0.188c-0.604-0.312-1.15-0.991-1.679-1.649c-0.283-0.353-0.551-0.686-0.81-0.941
		c-0.145-0.143-0.175-0.412-0.069-0.604c0.108-0.19,0.312-0.229,0.456-0.089c0.29,0.286,0.584,0.651,0.868,1.006
		c0.482,0.602,0.982,1.223,1.468,1.474c0.546,0.281,1.265,0.204,1.958,0.133c0.313-0.033,0.608-0.064,0.89-0.064
		c0.002,0,0.005,0,0.005,0c1.067,0,2.019-0.397,3.024-0.818c0.621-0.26,1.263-0.527,1.947-0.705c1.639-0.424,3.534-0.805,5.32,0.041
		c1.25,0.594,2.545,1.605,3.764,2.592c0.413,0.335,0.747,0.787,1.072,1.225c0.209,0.284,0.407,0.553,0.623,0.786
		c0.14,0.15,0.159,0.423,0.046,0.606C23.794,40.443,23.699,40.497,23.605,40.497z"/>
	<path fill="#FB4732" d="M23.605,43.315c-0.072,0-0.146-0.031-0.205-0.097c-0.243-0.265-0.465-0.563-0.678-0.852
		c-0.309-0.417-0.6-0.812-0.945-1.092c-1.189-0.962-2.451-1.949-3.645-2.515c-1.63-0.772-3.353-0.427-4.977-0.007
		c-0.648,0.168-1.273,0.429-1.876,0.682c-1.008,0.422-2.053,0.857-3.217,0.857c-0.002,0-0.002,0-0.006,0
		c-0.257,0-0.539,0.03-0.839,0.062c-0.731,0.077-1.561,0.164-2.245-0.188c-0.604-0.311-1.15-0.99-1.678-1.647
		c-0.284-0.354-0.551-0.688-0.811-0.943c-0.145-0.142-0.175-0.412-0.069-0.604c0.108-0.19,0.312-0.23,0.456-0.089
		c0.29,0.285,0.584,0.652,0.869,1.006c0.482,0.602,0.981,1.223,1.467,1.473c0.546,0.281,1.263,0.206,1.958,0.133
		c0.313-0.033,0.609-0.064,0.892-0.064c0,0,0.004,0,0.006,0c1.064,0,2.016-0.397,3.021-0.818c0.621-0.259,1.261-0.527,1.947-0.704
		c1.639-0.424,3.534-0.806,5.32,0.041c1.252,0.592,2.545,1.604,3.764,2.591c0.413,0.335,0.747,0.787,1.071,1.224
		c0.21,0.284,0.407,0.553,0.624,0.787c0.14,0.15,0.159,0.422,0.046,0.605C23.794,43.262,23.699,43.315,23.605,43.315z"/>
</g>
</svg>
