<?xml version="1.0" encoding="utf-8"?>
<!-- Generator: Adobe Illustrator 16.0.0, SVG Export Plug-In . SVG Version: 6.00 Build 0)  -->
<!DOCTYPE svg PUBLIC "-//W3C//DTD SVG 1.1//EN" "http://www.w3.org/Graphics/SVG/1.1/DTD/svg11.dtd">
<svg version="1.1" id="Layer_1" xmlns="http://www.w3.org/2000/svg" xmlns:xlink="http://www.w3.org/1999/xlink" x="0px" y="0px"
	 width="48px" height="48px" viewBox="0 0 48 48" enable-background="new 0 0 48 48" xml:space="preserve">
<g>
	<circle fill="#E8E9E5" cx="23.999" cy="24" r="22.518"/>
	<path fill="#009079" d="M24,0C10.773,0,0.053,10.747,0.053,24c0,13.252,10.721,24,23.947,24s23.947-10.748,23.947-24
		C47.947,10.747,37.227,0,24,0z M24,45.827C11.972,45.827,2.219,36.057,2.219,24C2.219,11.943,11.972,2.172,24,2.172
		S45.781,11.943,45.781,24C45.781,36.057,36.028,45.827,24,45.827z"/>
	<path fill="#F7A93B" d="M3.03,18.106C3.1,18.268,3.186,18.434,3.284,18.6c1.04,1.735,2.721,2.905,4.189,4.261
		c0.525,0.483,1.866,1.721,2.097,2.406c0.305,0.898-0.943,1.128-1.271,2.199c-0.314,1.029-0.826,2.822-0.393,3.887
		c0.335,0.816,1.38,1.336,1.897,2.059c0.579,0.805,1.961,1.964,2.146,2.899c0.219,1.087-0.497,2.178-0.086,3.3
		c0.898,0.369,1.857,0.411,2.339-0.498c0.008,0.088,0.016,0.188,0.041,0.274c0.818-1.864,3.024-2.691,4.095-4.241
		c1.256-1.818,1.201-4.521-0.155-6.303c-0.665-0.879-1.344-1.699-2.225-2.443c-1.112-0.94-2.388-0.982-3.583-1.787
		c-0.896-0.604-2.378-1.367-3.014-2.22c-0.801-1.075,0.027-2.239,1.221-2.541c0.421-0.109,1.18-0.01,1.57,0.115
		c0.698,0.223,0.607,0.78,1.241,1.096c1.102,0.557,1.658-0.582,1.993-1.305c0.476-1.029,1.252-2.11,1.533-3.212
		c0.168-0.665-0.112-0.758,0.426-1.319c0.396-0.405,1.245-0.749,1.741-1.029c1.819-1.024,4.526-1.004,2.063-3.238
		c-1.442-1.314-3.294-2.256-4.544-3.768c-0.647-0.785-0.93-1.553-2.068-1.611c-0.996-0.052-1.955,0.369-2.954,0.488
		C7.484,8.929,4.413,13.159,3.03,18.106z"/>
	<path fill="#00718D" d="M30.881,11.891c-0.679,0.306-0.649-0.053-0.933,0.624c-0.148,0.359,0,1.091,0,1.476
		c0,1.372,0.104,3.903,0.104,3.903c1.229,0.628,1.083-1.378,2.585-1.237c1.271,0.115,1.929,1.418,3.098,1.445
		c1.693,0.042,1.665-1.585,2.892-2.151c1.499-0.697,2.121,1.065,2.184,2.151c0.103,1.84-0.702,1.57-2.184,1.871
		c-1.313,0.265-1.896,1.06-3.326,0.899c-1.063-0.12-1.605-0.899-2.563-1.113c-1.289-0.291-2.896-0.041-3.647,1.066
		c-1.05,1.543-1.026,4.521,0.108,5.992c0.713,0.92,1.505,1.17,2.635,1.32c0.985,0.135,2.352-0.119,3.105,0.593
		c1.505,1.413,0.435,5.711,0.595,7.582c0.107,1.237,0.416,1.86,1.718,1.103c1.104-0.64,0.975-1.674,1.486-2.609
		c0.567-1.035,1.313-1.74,1.68-2.838c0.307-0.925,0.285-1.845,0.519-2.796c0.266-1.087,1.216-1.33,1.539-2.271
		c0.465-1.361-0.92-1.159-1.588-1.632c-0.605-0.432-1.161-1.715-1.605-2.328c-0.346-0.473-0.798-0.608-0.233-1.014
		c0.265-0.188,1.396-0.016,1.662,0.131c1.302,0.707,2.292,4.381,4.259,1.84c0.604-0.779,0.604-2.506,0.434-3.919
		c-1.049-5.644-4.264-10.524-8.751-13.741c-0.471,0.447-0.978,1.72-1.244,2.121C34.395,9.858,32.45,11.189,30.881,11.891z"/>
</g>
</svg>
