<?xml version="1.0" encoding="utf-8"?>
<!-- Generator: Adobe Illustrator 16.0.0, SVG Export Plug-In . SVG Version: 6.00 Build 0)  -->
<!DOCTYPE svg PUBLIC "-//W3C//DTD SVG 1.1//EN" "http://www.w3.org/Graphics/SVG/1.1/DTD/svg11.dtd">
<svg version="1.1" id="Layer_1" xmlns="http://www.w3.org/2000/svg" xmlns:xlink="http://www.w3.org/1999/xlink" x="0px" y="0px"
	 width="48px" height="48px" viewBox="0 0 48 48" enable-background="new 0 0 48 48" xml:space="preserve">
<g>
	<path fill="#00B99B" d="M42.208,46.342c0,0.885-0.723,1.605-1.605,1.605H7.398c-0.884,0-1.606-0.721-1.606-1.605V1.659
		c0-0.884,0.723-1.606,1.606-1.606h33.204c0.883,0,1.605,0.723,1.605,1.606V46.342z"/>
	<rect x="10.146" y="3.226" fill="#FFFFFF" width="27.709" height="12.865"/>
	<circle fill="#FFD699" cx="13.808" cy="22.114" r="3.662"/>
	<circle fill="#FFD699" cx="24" cy="22.114" r="3.662"/>
	<circle fill="#FFD699" cx="34.192" cy="22.114" r="3.662"/>
	<circle fill="#FFD699" cx="13.808" cy="31.613" r="3.662"/>
	<circle fill="#FFD699" cx="24" cy="31.613" r="3.662"/>
	<circle fill="#FFD699" cx="13.808" cy="41.114" r="3.662"/>
	<circle fill="#FFD699" cx="24" cy="41.114" r="3.662"/>
	<g>
		<path fill="#274D57" d="M37.854,42.597c0,1.1-0.9,2-2,2H32.53c-1.1,0-2-0.9-2-2V29.086c0-1.1,0.9-2,2-2h3.324c1.1,0,2,0.9,2,2
			V42.597z"/>
	</g>
</g>
</svg>
