<?xml version="1.0" encoding="utf-8"?>
<!-- Generator: Adobe Illustrator 16.0.0, SVG Export Plug-In . SVG Version: 6.00 Build 0)  -->
<!DOCTYPE svg PUBLIC "-//W3C//DTD SVG 1.1//EN" "http://www.w3.org/Graphics/SVG/1.1/DTD/svg11.dtd">
<svg version="1.1" id="Layer_1" xmlns="http://www.w3.org/2000/svg" xmlns:xlink="http://www.w3.org/1999/xlink" x="0px" y="0px"
	 width="48px" height="48px" viewBox="0 0 48 48" enable-background="new 0 0 48 48" xml:space="preserve">
<g>
	<rect x="8.654" y="12.119" fill="#CFD0D1" width="30.691" height="35.829"/>
	<path fill="#00A5D3" d="M46.95,0.052H1.051c-0.551,0-0.998,0.447-0.998,0.998v45.902v0.98h0.834
		c0.053,0.009,0.107,0.017,0.164,0.017h7.383c0.057,0,0.111-0.008,0.164-0.017h0.834v-0.98V12.519H38.57l-0.002,35.43h1h7.382h0.997
		v-0.997V1.049C47.947,0.499,47.502,0.052,46.95,0.052z"/>
	<path fill="#FB4732" d="M17.031,44.074c0.691,1.064,1.35,1.707,2.26,2.377h9.146c2.469-0.842,3.752-3.633,3.973-6.105
		c0.075-0.845,0.001-1.737-0.002-2.589c-0.004-1.167,0.463-2.339,0.326-3.519c-0.826-0.031-1.746-0.1-2.561,0.041
		c-0.721,0.125-2.295,0.574-2.471,1.393c0.127-1.478,0.273-3.09,0.136-4.602c-0.194-2.146-2.042-3.852-3.968-4.692
		c0.006,0.882,0.054,1.783,0.006,2.663c-0.061,1.072-0.568,1.676-1.085,2.553c-0.443,0.75-0.802,1.646-1.132,2.468
		c-0.321,0.794-0.992,2.011-0.877,2.903c-0.496-2.053-3.479-3.988-5.541-4.074c1.335,1.943,0.703,5.263,0.701,7.542
		C15.941,41.855,16.259,42.889,17.031,44.074z"/>
	<path fill="#FFD699" d="M19.569,46.451c-0.595-0.539-1.003-1.055-1.443-1.805c-0.608-1.034-0.823-1.83-0.822-3.041
		c0.001-0.531,0.033-1.148,0.068-1.803c0.06-1.118,0.126-2.365,0.044-3.596c0.75,0.598,1.346,1.338,1.486,1.984
		c0.182,0.829,0.852,1.393,1.597,1.393c0.099,0,0.198-0.01,0.299-0.03c0.858-0.176,1.443-1.063,1.333-2.021
		c-0.02-0.318,0.346-1.229,0.521-1.665c0.092-0.229,0.178-0.444,0.248-0.64l0.027-0.07c0.309-0.85,0.628-1.727,0.997-2.42
		c0.085-0.158,0.17-0.309,0.251-0.455c0.41-0.73,0.869-1.547,1.018-2.73c0.395,0.542,0.671,1.164,0.727,1.846
		c0.121,1.475-0.005,3.093-0.128,4.658l-0.01,0.117c-0.074,0.957,0.536,1.814,1.395,1.957c0.082,0.014,0.163,0.021,0.245,0.021
		c0.66,0,1.256-0.441,1.512-1.11c0.215-0.146,0.711-0.357,1.24-0.459c0.15-0.029,0.322-0.049,0.524-0.059
		c-0.006,0.035-0.011,0.07-0.017,0.107c-0.094,0.605-0.201,1.291-0.199,2.017c0,0.318,0.01,0.644,0.02,0.97
		c0.016,0.619,0.031,1.203-0.012,1.73c-0.163,2.02-1.04,4.328-2.641,5.104H19.569z"/>
</g>
</svg>
