<?xml version="1.0" encoding="utf-8"?>
<!-- Generator: Adobe Illustrator 16.0.0, SVG Export Plug-In . SVG Version: 6.00 Build 0)  -->
<!DOCTYPE svg PUBLIC "-//W3C//DTD SVG 1.1//EN" "http://www.w3.org/Graphics/SVG/1.1/DTD/svg11.dtd">
<svg version="1.1" id="Layer_1" xmlns="http://www.w3.org/2000/svg" xmlns:xlink="http://www.w3.org/1999/xlink" x="0px" y="0px"
	 width="48px" height="48px" viewBox="0 0 48 48" enable-background="new 0 0 48 48" xml:space="preserve">
<g>
	<circle fill="#FFD699" cx="24" cy="24.002" r="23.948"/>
	<path fill="#F7A93B" d="M24,3.109c-11.536,0-20.893,9.354-20.893,20.893c0,11.537,9.356,20.891,20.893,20.891
		c11.538,0,20.893-9.354,20.893-20.891C44.893,12.464,35.538,3.109,24,3.109z M24,43.041c-10.515,0-19.042-8.523-19.042-19.039
		C4.958,13.485,13.485,4.96,24,4.96c10.517,0,19.042,8.525,19.042,19.042C43.042,34.518,34.517,43.041,24,43.041z"/>
	<path fill="#F7A93B" d="M22.618,40.678v-4.103c-2.356-0.041-4.793-0.772-6.215-1.789l0.975-2.722
		c1.463,0.976,3.575,1.748,5.851,1.748c2.884,0,4.835-1.666,4.835-3.981c0-2.235-1.586-3.615-4.592-4.834
		c-4.145-1.626-6.703-3.495-6.703-7.029c0-3.371,2.396-5.931,6.135-6.539V7.324h2.52v3.941c2.438,0.081,4.102,0.73,5.279,1.421
		l-1.016,2.683c-0.852-0.488-2.518-1.382-5.117-1.382c-3.128,0-4.308,1.868-4.308,3.494c0,2.111,1.504,3.168,5.038,4.63
		c4.184,1.707,6.297,3.818,6.297,7.434c0,3.209-2.234,6.218-6.418,6.908v4.225H22.618z"/>
</g>
</svg>
