<?xml version="1.0" encoding="utf-8"?>
<!-- Generator: Adobe Illustrator 16.0.0, SVG Export Plug-In . SVG Version: 6.00 Build 0)  -->
<!DOCTYPE svg PUBLIC "-//W3C//DTD SVG 1.1//EN" "http://www.w3.org/Graphics/SVG/1.1/DTD/svg11.dtd">
<svg version="1.1" id="Layer_1" xmlns="http://www.w3.org/2000/svg" xmlns:xlink="http://www.w3.org/1999/xlink" x="0px" y="0px"
	 width="48px" height="48px" viewBox="0 0 48 48" enable-background="new 0 0 48 48" xml:space="preserve">
<g>
	<path fill="#FB4732" d="M38.143,0H9.857c-3.519,0-6.38,2.861-6.38,6.381v35.238c0,3.518,2.861,6.381,6.38,6.381h28.285
		c3.518,0,6.381-2.863,6.381-6.381V6.381C44.523,2.861,41.66,0,38.143,0z M23.998,21.004c-6.221,0-11.281-6.318-11.281-14.082
		c0-0.553,0.449-1,1-1c0.553,0,1,0.447,1,1c0,6.662,4.164,12.082,9.281,12.082c5.119,0,9.283-5.42,9.283-12.082c0-0.553,0.447-1,1-1
		s1,0.447,1,1C35.281,14.686,30.221,21.004,23.998,21.004z"/>
	<path fill="#FFD699" d="M33.281,6.922c0,6.662-4.164,12.082-9.283,12.082c-5.117,0-9.281-5.42-9.281-12.082c0-0.553-0.447-1-1-1
		c-0.551,0-1,0.447-1,1c0,7.764,5.061,14.082,11.281,14.082c6.223,0,11.283-6.318,11.283-14.082c0-0.553-0.447-1-1-1
		S33.281,6.369,33.281,6.922z"/>
</g>
</svg>
