<?xml version="1.0" encoding="utf-8"?>
<!-- Generator: Adobe Illustrator 16.0.0, SVG Export Plug-In . SVG Version: 6.00 Build 0)  -->
<!DOCTYPE svg PUBLIC "-//W3C//DTD SVG 1.1//EN" "http://www.w3.org/Graphics/SVG/1.1/DTD/svg11.dtd">
<svg version="1.1" id="Layer_1" xmlns="http://www.w3.org/2000/svg" xmlns:xlink="http://www.w3.org/1999/xlink" x="0px" y="0px"
	 width="48px" height="48px" viewBox="0 0 48 48" enable-background="new 0 0 48 48" xml:space="preserve">
<g>
	<ellipse fill="#00B99B" cx="11.414" cy="13.726" rx="9.148" ry="9.804"/>
	<ellipse fill="#233640" cx="11.414" cy="13.725" rx="5.506" ry="5.9"/>
	<path fill="#274D57" d="M45.409,23.488H25.82c-1.425,0-2.591,1.248-2.591,2.777v3.563h-3.526v-7.711
		c1.931-2.191,3.125-5.14,3.125-8.394c0-3.252-1.194-6.2-3.125-8.392V2.775C19.703,1.248,18.537,0,17.111,0H5.715
		c-1.424,0-2.59,1.248-2.59,2.775v2.558C1.191,7.524,0,10.473,0,13.725c0,3.254,1.191,6.202,3.125,8.393v23.105
		C3.125,46.75,4.291,48,5.715,48h11.396c1.426,0,2.592-1.25,2.592-2.777V37.29h3.526v3.644c0,1.527,1.166,2.776,2.591,2.776h19.589
		c1.424,0,2.591-1.249,2.591-2.776V26.266C48,24.736,46.833,23.488,45.409,23.488z M11.414,23.529c-5.053,0-9.148-4.39-9.148-9.805
		c0-5.414,4.096-9.803,9.148-9.803c5.051,0,9.146,4.389,9.146,9.803C20.561,19.14,16.465,23.529,11.414,23.529z M44.468,40.543
		H26.675V25.959h17.793V40.543z"/>
	<rect x="26.675" y="25.959" fill="#FFD699" width="17.793" height="14.584"/>
	<rect x="10.818" y="39.043" fill="#FFFFFF" width="1.189" height="4.962"/>
</g>
</svg>
