<?xml version="1.0" encoding="utf-8"?>
<!-- Generator: Adobe Illustrator 16.0.0, SVG Export Plug-In . SVG Version: 6.00 Build 0)  -->
<!DOCTYPE svg PUBLIC "-//W3C//DTD SVG 1.1//EN" "http://www.w3.org/Graphics/SVG/1.1/DTD/svg11.dtd">
<svg version="1.1" id="Layer_1" xmlns="http://www.w3.org/2000/svg" xmlns:xlink="http://www.w3.org/1999/xlink" x="0px" y="0px"
	 width="48px" height="48px" viewBox="0 0 48 48" enable-background="new 0 0 48 48" xml:space="preserve">
<g>
	<path fill="#E8B945" d="M46.721,40.342c0,1.322-1.083,2.405-2.404,2.405H2.654c-1.322,0-2.404-1.083-2.404-2.405V7.658
		c0-1.323,1.082-2.405,2.404-2.405h41.662c1.321,0,2.404,1.082,2.404,2.405V40.342z"/>
	<path fill="#E77428" d="M39.99,40.839h-2.404v-1.202h2.404V40.839z M35.18,40.839h-2.404v-1.202h2.404V40.839z M30.371,40.839
		h-2.404v-1.202h2.404V40.839z M25.562,40.839h-2.406v-1.202h2.406V40.839z M20.751,40.839h-2.404v-1.202h2.404V40.839z
		 M15.941,40.839h-2.404v-1.202h2.404V40.839z M11.133,40.839H8.729v-1.202h2.404V40.839z M6.322,40.839H5.441
		c-0.661,0-1.297-0.245-1.793-0.689l0.807-0.894c0.271,0.245,0.623,0.381,0.986,0.381h0.881V40.839z M42.612,40.608l-0.487-1.098
		c0.537-0.239,0.885-0.771,0.885-1.355v-2.4h1.202v2.4C44.212,39.213,43.584,40.176,42.612,40.608z M3.961,37.497H2.758v-2.404
		h1.203V37.497z M44.212,33.35H43.01v-2.404h1.202V33.35z M3.961,32.688H2.758v-2.404h1.203V32.688z M44.212,28.54H43.01v-2.404
		h1.202V28.54z M3.961,27.878H2.758v-2.404h1.203V27.878z M44.212,23.73H43.01v-2.404h1.202V23.73z M3.961,23.068H2.758v-2.405
		h1.203V23.068z M44.212,18.921H43.01v-2.404h1.202V18.921z M3.961,18.259H2.758v-2.405h1.203V18.259z M44.212,14.111H43.01v-2.404
		h1.202V14.111z M3.961,13.449H2.758v-2.405h1.203V13.449z M42.961,9.465c-0.152-0.568-0.625-0.994-1.203-1.085l0.188-1.188
		c1.046,0.165,1.901,0.934,2.178,1.96L42.961,9.465z M4.201,9.035L3.196,8.376c0.5-0.761,1.339-1.216,2.245-1.216h0.338v1.202H5.441
		C4.942,8.362,4.479,8.614,4.201,9.035z M39.447,8.362h-2.405V7.16h2.405V8.362z M34.638,8.362h-2.405V7.16h2.405V8.362z
		 M29.828,8.362h-2.404V7.16h2.404V8.362z M25.02,8.362h-2.406V7.16h2.406V8.362z M20.208,8.362h-2.404V7.16h2.404V8.362z
		 M15.399,8.362h-2.405V7.16h2.405V8.362z M10.59,8.362H8.186V7.16h2.404V8.362z"/>
	<path fill="#E8B945" d="M47.75,17.002H34.779c-1.216,0-2.211,0.995-2.211,2.21v10.63c0,1.216,0.995,2.211,2.211,2.211H47.75V17.002
		z"/>
	<path fill="#E77428" d="M47.75,31.178H34.779c-0.737,0-1.336-0.599-1.336-1.336v-10.63c0-0.736,0.599-1.335,1.336-1.335H47.75
		v-1.75H34.779c-1.701,0-3.086,1.384-3.086,3.085v10.63c0,1.702,1.385,3.086,3.086,3.086H47.75V31.178z"/>
	<circle fill="#E77428" cx="38.147" cy="24.527" r="2.311"/>
</g>
</svg>
