<?xml version="1.0" encoding="utf-8"?>
<!-- Generator: Adobe Illustrator 16.0.0, SVG Export Plug-In . SVG Version: 6.00 Build 0)  -->
<!DOCTYPE svg PUBLIC "-//W3C//DTD SVG 1.1//EN" "http://www.w3.org/Graphics/SVG/1.1/DTD/svg11.dtd">
<svg version="1.1" id="Layer_1" xmlns="http://www.w3.org/2000/svg" xmlns:xlink="http://www.w3.org/1999/xlink" x="0px" y="0px"
	 width="48px" height="48px" viewBox="0 0 48 48" enable-background="new 0 0 48 48" xml:space="preserve">
<g>
	<path fill="#00B99B" d="M22.401,38.151c-0.015-2.217-0.034-5.215,1.925-6.261c0.352-0.188,0.673-0.291,0.955-0.384
		c0.514-0.167,0.885-0.286,1.308-0.813c0.765-0.952,1.208-2.316,1.542-3.525c0.128-0.462,0.197-0.958,0.271-1.481
		c0.147-1.042,0.299-2.117,0.927-3.014c0.493-0.707,1.077-1.205,1.643-1.687c0.75-0.639,1.458-1.243,1.829-2.267
		c0.505-1.389,0.721-3.059,0.93-4.672c0.062-0.464,0.118-0.921,0.185-1.364c0.22-1.506,0.708-3.132,1.49-4.969
		c0.123-0.29,0.274-0.562,0.426-0.826c0.007-0.015,0.016-0.027,0.023-0.04H6.729v34.302h14.02
		C21.854,40.291,22.414,39.8,22.401,38.151z"/>
	<path fill="#00A5D3" d="M41.271,6.85h-4.237c-0.113,0.253-0.246,0.488-0.373,0.712c-0.127,0.226-0.258,0.451-0.361,0.697
		c-0.736,1.729-1.194,3.244-1.397,4.632c-0.063,0.437-0.121,0.886-0.18,1.343c-0.218,1.686-0.445,3.435-1.001,4.963
		c-0.482,1.33-1.34,2.061-2.167,2.766c-0.536,0.458-1.045,0.891-1.457,1.481c-0.451,0.645-0.573,1.518-0.704,2.441
		c-0.076,0.547-0.156,1.112-0.307,1.66c-0.371,1.336-0.869,2.855-1.771,3.979c-0.615,0.768-1.203,0.956-1.77,1.139
		c-0.271,0.089-0.529,0.173-0.809,0.322c-1.36,0.727-1.344,3.168-1.331,5.129c0.011,1.5-0.376,2.363-0.977,3.038h18.842V6.85z"/>
	<path fill="#F7A93B" d="M23.405,38.113c-0.013-1.961-0.029-4.402,1.331-5.129c0.279-0.149,0.537-0.233,0.809-0.322
		c0.566-0.183,1.154-0.371,1.77-1.139c0.902-1.123,1.4-2.643,1.771-3.979c0.15-0.548,0.23-1.113,0.307-1.66
		c0.131-0.924,0.253-1.797,0.704-2.441c0.412-0.591,0.921-1.023,1.457-1.481c0.827-0.705,1.685-1.436,2.167-2.766
		c0.556-1.528,0.783-3.277,1.001-4.963c0.059-0.457,0.117-0.906,0.18-1.343c0.203-1.388,0.661-2.902,1.397-4.632
		c0.104-0.246,0.234-0.472,0.361-0.697c0.127-0.224,0.26-0.459,0.373-0.712h-1.18c-0.008,0.013-0.017,0.025-0.023,0.04
		c-0.151,0.265-0.303,0.536-0.426,0.826c-0.782,1.837-1.271,3.463-1.49,4.969c-0.066,0.443-0.123,0.9-0.185,1.364
		c-0.209,1.613-0.425,3.283-0.93,4.672c-0.371,1.023-1.079,1.628-1.829,2.267c-0.565,0.481-1.149,0.979-1.643,1.687
		c-0.628,0.896-0.779,1.972-0.927,3.014c-0.073,0.523-0.143,1.02-0.271,1.481c-0.334,1.209-0.777,2.573-1.542,3.525
		c-0.423,0.526-0.794,0.646-1.308,0.813c-0.282,0.093-0.604,0.196-0.955,0.384c-1.959,1.046-1.939,4.044-1.925,6.261
		c0.013,1.648-0.547,2.14-1.653,3h1.681C23.029,40.477,23.416,39.613,23.405,38.113z"/>
	<path fill="#008AAC" d="M19.846,8.019c-3.19,0-5.784,2.595-5.784,5.784c0,3.048,5.223,12.27,5.446,12.661
		c0.067,0.121,0.198,0.196,0.338,0.196c0.138,0,0.267-0.075,0.337-0.196c0.223-0.392,5.446-9.613,5.446-12.661
		C25.629,10.613,23.034,8.019,19.846,8.019z M19.846,17.552c-2.069,0-3.75-1.682-3.75-3.749s1.681-3.75,3.75-3.75
		c2.066,0,3.748,1.683,3.748,3.75S21.912,17.552,19.846,17.552z"/>
	<path fill="#FFD699" d="M19.846,17.552c2.066,0,3.748-1.682,3.748-3.749s-1.682-3.75-3.748-3.75c-2.069,0-3.75,1.683-3.75,3.75
		S17.776,17.552,19.846,17.552z"/>
	<polygon fill="#E4776E" points="15.53,9.956 15.53,9.956 15.53,9.956 	"/>
	<path fill="#F7A93B" d="M44,0H4C1.799,0,0,1.8,0,4v40c0,2.2,1.799,4,4,4h40c2.199,0,4-1.8,4-4V4C48,1.8,46.199,0,44,0z M44,40
		c0,2.2-1.801,4-4,4H8c-2.201,0-4-1.8-4-4V8c0-2.2,1.799-4,4-4h32c2.199,0,4,1.8,4,4V40z"/>
</g>
</svg>
