<?xml version="1.0" encoding="utf-8"?>
<!-- Generator: Adobe Illustrator 16.0.0, SVG Export Plug-In . SVG Version: 6.00 Build 0)  -->
<!DOCTYPE svg PUBLIC "-//W3C//DTD SVG 1.1//EN" "http://www.w3.org/Graphics/SVG/1.1/DTD/svg11.dtd">
<svg version="1.1" id="Layer_1" xmlns="http://www.w3.org/2000/svg" xmlns:xlink="http://www.w3.org/1999/xlink" x="0px" y="0px"
	 width="48px" height="48px" viewBox="0 0 48 48" enable-background="new 0 0 48 48" xml:space="preserve">
<g>
	<path fill="#CFD0D1" d="M37.281,5.326c-4.953,0-8.982,4.254-8.982,9.48c0,0.553,0.447,1,1,1h15.963c0.553,0,1-0.447,1-1
		C46.262,9.58,42.232,5.326,37.281,5.326z"/>
	<path fill="#E8E9E5" d="M39.174,6.08c3.101,1.278,5.314,4.519,5.314,8.313c0,0.52-0.412,0.939-0.918,0.939h0.586
		c0.506,0,0.917-0.41,0.917-0.918C45.073,10.478,42.58,7.147,39.174,6.08z"/>
	<path fill="#274D57" d="M47,19.99H27.561c-0.553,0-1-0.447-1-1s0.447-1,1-1H47c0.551,0,1,0.447,1,1S47.551,19.99,47,19.99z"/>
	<path fill="#CFD0D1" d="M39.498,4.357c-0.553,0-1-0.447-1-1C38.498,2.609,37.951,2,37.281,2c-0.672,0-1.219,0.609-1.219,1.357
		c0,0.553-0.449,1-1,1c-0.553,0-1-0.447-1-1C34.063,1.506,35.506,0,37.281,0c1.773,0,3.217,1.506,3.217,3.357
		C40.498,3.91,40.05,4.357,39.498,4.357z"/>
	<path fill="#506E76" d="M39.74,21.602c-0.59-0.459-1.291-0.703-2.027-0.703c-1.09,0-2.119,0.551-2.755,1.471l-5.501,7.963
		l-9.504-7.703c-0.555-0.449-3.643-1.473-4.959-1.473H8.963C4.02,21.156,0,25.4,0,30.615V47c0,0.553,0.447,1,1,1h21.957
		c0.529,0,0.963-0.412,0.997-0.932c0.003-0.027,0.003-0.055,0.003-0.08V34.844l4.115,3.336c0.725,0.588,1.684,0.846,2.57,0.707
		c0.903-0.137,1.729-0.658,2.264-1.432l7.557-10.939C41.541,24.957,41.217,22.754,39.74,21.602z"/>
	<path fill="#FFD699" d="M11.979,10.566c0,0-3.464,4.703-6.645,5.104c1.232,2.554,3.744,4.311,6.645,4.311
		c3.594,0,6.602-2.693,7.303-6.267C17.309,13.848,14.445,13.41,11.979,10.566z"/>
	<path fill="#F7A93B" d="M11.979,10.566c2.467,2.844,5.33,3.281,7.303,3.147c0.101-0.516,0.154-1.048,0.154-1.595
		c0-4.334-3.346-7.859-7.457-7.859c-4.112,0-7.457,3.525-7.457,7.859c0,1.278,0.297,2.483,0.813,3.551
		C8.515,15.27,11.979,10.566,11.979,10.566z"/>
</g>
</svg>
