<?xml version="1.0" encoding="utf-8"?>
<!-- Generator: Adobe Illustrator 16.0.0, SVG Export Plug-In . SVG Version: 6.00 Build 0)  -->
<!DOCTYPE svg PUBLIC "-//W3C//DTD SVG 1.1//EN" "http://www.w3.org/Graphics/SVG/1.1/DTD/svg11.dtd">
<svg version="1.1" id="Layer_1" xmlns="http://www.w3.org/2000/svg" xmlns:xlink="http://www.w3.org/1999/xlink" x="0px" y="0px"
	 width="48px" height="48px" viewBox="0 0 48 48" enable-background="new 0 0 48 48" xml:space="preserve">
<g>
	<rect x="14.532" y="23.646" fill="#FFD699" width="18.369" height="11.82"/>
	<path fill="#FFBE5C" d="M47.32,28.299l-9.522-3.221v12.99c0,0.553-0.447,1-1,1H11.202c-0.554,0-1-0.447-1-1v-12.99L0.68,28.299
		C0.273,28.436,0,28.818,0,29.246V46.93c0,0.553,0.446,1,1,1h22.813c0.066,0,0.124-0.025,0.188-0.037
		c0.063,0.012,0.121,0.037,0.187,0.037H47c0.553,0,1-0.447,1-1V29.246C48,28.818,47.727,28.436,47.32,28.299z"/>
	<path fill="#E77428" d="M24.5,3.995V0.57c0-0.276-0.224-0.5-0.5-0.5s-0.5,0.224-0.5,0.5v3.425c-4.892,0.084-8.846,3.951-8.846,8.7
		v2.044h18.69v-2.044C33.345,7.946,29.392,4.079,24.5,3.995z"/>
	<path fill="#274D57" d="M36.122,22.398l-2.802-1.107c0.015-0.067,0.024-0.136,0.024-0.207v-4.503h-18.69v4.503
		c0,0.068,0.009,0.135,0.022,0.199l-2.802,1.115c-0.35,0.139-0.58,0.479-0.58,0.855v1.982v11.961c0,0.51,0.412,0.922,0.921,0.922
		h23.567c0.51,0,0.921-0.412,0.921-0.922V25.236v-1.982C36.704,22.877,36.474,22.535,36.122,22.398z M18.308,33.943
		c0,0.508-0.412,0.92-0.921,0.92s-0.921-0.412-0.921-0.92v-8.676c0-0.508,0.412-0.92,0.921-0.92s0.921,0.412,0.921,0.92V33.943z
		 M24.921,33.943c0,0.508-0.412,0.92-0.921,0.92s-0.921-0.412-0.921-0.92v-8.676c0-0.508,0.412-0.92,0.921-0.92
		s0.921,0.412,0.921,0.92V33.943z M31.534,33.943c0,0.508-0.412,0.92-0.921,0.92s-0.921-0.412-0.921-0.92v-8.676
		c0-0.508,0.412-0.92,0.921-0.92s0.921,0.412,0.921,0.92V33.943z"/>
</g>
</svg>
