<?xml version="1.0" encoding="utf-8"?>
<!-- Generator: Adobe Illustrator 16.0.0, SVG Export Plug-In . SVG Version: 6.00 Build 0)  -->
<!DOCTYPE svg PUBLIC "-//W3C//DTD SVG 1.1//EN" "http://www.w3.org/Graphics/SVG/1.1/DTD/svg11.dtd">
<svg version="1.1" id="Layer_1" xmlns="http://www.w3.org/2000/svg" xmlns:xlink="http://www.w3.org/1999/xlink" x="0px" y="0px"
	 width="48px" height="48px" viewBox="0 0 48 48" enable-background="new 0 0 48 48" xml:space="preserve">
<g>
	<path fill="#5A7478" d="M42.622,0H5.377C2.412,0,0,2.262,0,5.045V47c0,0.553,0.447,1,1,1h8.146c0.552,0,1-0.447,1-1V15.994
		c0-1.123,1.023-2.035,2.282-2.035h23.143c1.259,0,2.283,0.912,2.283,2.035V47c0,0.553,0.447,1,1,1H47c0.552,0,1-0.447,1-1V5.045
		C48,2.262,45.587,0,42.622,0z"/>
	<path fill="#FFB241" d="M24,17.783c-1.889,0-3.425,1.535-3.425,3.424s1.536,3.426,3.425,3.426s3.425-1.537,3.425-3.426
		S25.889,17.783,24,17.783z"/>
	<path fill="#F7A93B" d="M21.849,48c-0.553,0-1-0.447-1-1v-9.584c0-0.553,0.447-1,1-1c0.552,0,1,0.447,1,1V47
		C22.849,47.553,22.4,48,21.849,48z"/>
	<path fill="#F7A93B" d="M26.151,48c-0.553,0-1-0.447-1-1v-9.584c0-0.553,0.447-1,1-1c0.552,0,1,0.447,1,1V47
		C27.151,47.553,26.703,48,26.151,48z"/>
	<path fill="#F7A93B" d="M17.475,37.561c-0.12,0-0.242-0.021-0.36-0.068c-0.515-0.197-0.771-0.777-0.573-1.293l3.425-8.877
		c0.199-0.514,0.78-0.771,1.293-0.572c0.516,0.199,0.772,0.777,0.573,1.293l-3.425,8.877C18.254,37.316,17.876,37.561,17.475,37.561
		z"/>
	<path fill="#F7A93B" d="M30.525,37.561c-0.401,0-0.78-0.244-0.934-0.641l-3.425-8.877c-0.198-0.516,0.059-1.094,0.573-1.293
		c0.514-0.199,1.094,0.059,1.293,0.572l3.425,8.877c0.199,0.516-0.058,1.096-0.573,1.293C30.767,37.539,30.646,37.561,30.525,37.561
		z"/>
	<path fill="#00B99B" d="M16.573,8.422h-3.594c-0.553,0-1-0.447-1-1s0.447-1,1-1h3.594c0.552,0,1,0.447,1,1
		S17.125,8.422,16.573,8.422z"/>
	<path fill="#00B99B" d="M25.796,8.422h-3.593c-0.553,0-1-0.447-1-1s0.447-1,1-1h3.593c0.552,0,1,0.447,1,1
		S26.348,8.422,25.796,8.422z"/>
	<path fill="#00B99B" d="M35.02,8.422h-3.594c-0.553,0-1-0.447-1-1s0.447-1,1-1h3.594c0.552,0,1,0.447,1,1S35.571,8.422,35.02,8.422
		z"/>
	<path fill="#274D57" d="M24.538,25.133h-1.076c-2.001,0-3.628,1.627-3.628,3.627v8.723c0,0.553,0.447,1,1,1h6.331
		c0.552,0,1-0.447,1-1V28.76C28.165,26.76,26.538,25.133,24.538,25.133z"/>
</g>
</svg>
