<?xml version="1.0" encoding="utf-8"?>
<!-- Generator: Adobe Illustrator 16.0.0, SVG Export Plug-In . SVG Version: 6.00 Build 0)  -->
<!DOCTYPE svg PUBLIC "-//W3C//DTD SVG 1.1//EN" "http://www.w3.org/Graphics/SVG/1.1/DTD/svg11.dtd">
<svg version="1.1" id="Layer_1" xmlns="http://www.w3.org/2000/svg" xmlns:xlink="http://www.w3.org/1999/xlink" x="0px" y="0px"
	 width="48px" height="48px" viewBox="0 0 48 48" enable-background="new 0 0 48 48" xml:space="preserve">
<g>
	<path fill="#274D57" d="M18.407,10.553c-3.237,0-5.872,2.885-5.872,6.43V27.76c0,1.568,0.527,3.082,1.482,4.262
		c0.198,0.244,0.486,0.371,0.777,0.371c0.222,0,0.444-0.074,0.63-0.225c0.429-0.348,0.495-0.977,0.147-1.406
		c-0.044-0.053-0.074-0.115-0.115-0.172l7.195-8.727c0.172,0.143,0.386,0.238,0.627,0.238c0.553,0,1-0.447,1-1v-4.119
		C24.279,13.438,21.645,10.553,18.407,10.553z"/>
	<path fill="#CFD0D1" d="M41.985,8.379h-7.378c-1.812,0-3.509,0.859-4.656,2.357L11.279,35.141H6.016C2.699,35.141,0,38.025,0,41.57
		S2.699,48,6.016,48h8.116c1.812,0,3.509-0.859,4.657-2.357l18.67-24.404h4.526c3.316,0,6.015-2.885,6.015-6.43
		S45.302,8.379,41.985,8.379z"/>
	<path fill="#FB4732" d="M47.734,39.76l-7.314,7.92C40.23,47.885,39.965,48,39.686,48s-0.545-0.115-0.734-0.32l-7.313-7.916
		c-0.27-0.293-0.341-0.717-0.182-1.08c0.158-0.363,0.519-0.6,0.916-0.6h2.672v-9.895c0-0.553,0.447-1,1-1h7.284c0.552,0,1,0.447,1,1
		v9.891H47c0.397,0,0.757,0.236,0.916,0.6S48.004,39.467,47.734,39.76z"/>
	<path fill="#FFD699" d="M19.513,3.475c0,0-1.289,2.73-5.252,2.536c0.555,1.874,2.203,3.237,4.146,3.237
		c2.333,0,4.236-1.966,4.337-4.421C21.994,4.828,20.88,4.572,19.513,3.475z"/>
	<path fill="#F7A93B" d="M18.407,0c-2.397,0-4.347,2.074-4.347,4.625c0,0.482,0.07,0.948,0.2,1.386
		c3.963,0.194,5.252-2.536,5.252-2.536c1.367,1.098,2.481,1.354,3.231,1.353c0.003-0.067,0.01-0.134,0.01-0.202
		C22.754,2.074,20.805,0,18.407,0z"/>
</g>
</svg>
