<?xml version="1.0" encoding="utf-8"?>
<!-- Generator: Adobe Illustrator 16.0.0, SVG Export Plug-In . SVG Version: 6.00 Build 0)  -->
<!DOCTYPE svg PUBLIC "-//W3C//DTD SVG 1.1//EN" "http://www.w3.org/Graphics/SVG/1.1/DTD/svg11.dtd">
<svg version="1.1" id="Layer_1" xmlns="http://www.w3.org/2000/svg" xmlns:xlink="http://www.w3.org/1999/xlink" x="0px" y="0px"
	 width="48px" height="48px" viewBox="0 0 48 48" enable-background="new 0 0 48 48" xml:space="preserve">
<g>
	<rect x="3.032" y="13.204" fill="#00B99B" width="12.612" height="20.147"/>
	<path fill="#274D57" d="M46.893,31.359h-8.445v-9.861c0-0.254-0.098-0.499-0.273-0.687l-9.85-10.385
		c-0.188-0.198-0.449-0.31-0.723-0.31H1.106c-0.55,0-0.995,0.445-0.995,0.995v21.243c0,0.551,0.445,0.996,0.995,0.996h3.253V15.362
		c0-0.55,0.445-0.995,0.995-0.995h8.024c0.549,0,0.995,0.445,0.995,0.995v17.989h1.837c0.004,0,0.006-0.002,0.01-0.002h0.491
		c-0.048-0.326-0.081-0.656-0.081-0.996c0-3.758,3.059-6.814,6.816-6.814c3.759,0,6.816,3.057,6.816,6.814
		c0,0.34-0.033,0.67-0.081,0.996h0.179c0.004,0,0.007,0.002,0.007,0.002h7.083c0.004,0,0.007-0.002,0.01-0.002h9.432
		c0.551,0,0.996-0.445,0.996-0.996C47.889,31.805,47.443,31.359,46.893,31.359z"/>
	<path fill="#00A5D3" d="M23.447,26.826c-3.049,0-5.529,2.48-5.529,5.527c0,0.275,0.027,0.543,0.066,0.809
		c0.393,2.666,2.689,4.721,5.463,4.721c2.774,0,5.07-2.055,5.463-4.721c0.039-0.266,0.066-0.533,0.066-0.809
		C28.977,29.307,26.496,26.826,23.447,26.826z"/>
	<rect x="18.512" y="15.244" fill="#00B99B" width="10.465" height="7.262"/>
</g>
</svg>
