<?xml version="1.0" encoding="utf-8"?>
<!-- Generator: Adobe Illustrator 16.0.0, SVG Export Plug-In . SVG Version: 6.00 Build 0)  -->
<!DOCTYPE svg PUBLIC "-//W3C//DTD SVG 1.1//EN" "http://www.w3.org/Graphics/SVG/1.1/DTD/svg11.dtd">
<svg version="1.1" id="Layer_1" xmlns="http://www.w3.org/2000/svg" xmlns:xlink="http://www.w3.org/1999/xlink" x="0px" y="0px"
	 width="48px" height="48px" viewBox="0 0 48 48" enable-background="new 0 0 48 48" xml:space="preserve">
<g>
	<path fill="#FFD699" d="M11.039,48c-1.568,0-2.849-1.281-2.849-2.848L8.191,2.849C8.191,1.282,9.472,0,11.039,0h25.922
		c1.568,0,2.85,1.282,2.85,2.849V31.76v13.393c0,1.566-1.283,2.848-2.85,2.848H11.039z"/>
	<path fill="#FB4732" d="M36.242,1.193H12.301c-0.797,0-1.506,0.372-1.988,0.944c0.414-0.277,0.91-0.442,1.441-0.442h23.941
		c1.447,0,2.631,1.204,2.631,2.676v27.17v12.586c0,0.662-0.248,1.262-0.643,1.73c0.715-0.48,1.189-1.301,1.189-2.232V31.041V3.87
		C38.873,2.397,37.689,1.193,36.242,1.193z"/>
	<path fill="#E77428" d="M11.76,46.809h23.941c0.797,0,1.504-0.373,1.988-0.947c-0.416,0.277-0.91,0.445-1.443,0.445H12.305
		c-1.447,0-2.631-1.205-2.631-2.678v-27.17V3.873c0-0.66,0.248-1.261,0.643-1.73C9.603,2.624,9.128,3.445,9.128,4.376v12.585v27.17
		C9.128,45.604,10.313,46.809,11.76,46.809z"/>
	<path fill="#274D57" d="M39.811,33.545h-1.709v-0.713h1.709V33.545z M35.965,33.545h-2.137v-0.713h2.137V33.545z M31.691,33.545
		h-2.135v-0.713h2.135V33.545z M27.42,33.545h-2.137v-0.713h2.137V33.545z M23.146,33.545H21.01v-0.713h2.137V33.545z
		 M18.873,33.545h-2.137v-0.713h2.137V33.545z M14.6,33.545h-2.137v-0.713H14.6V33.545z M10.326,33.545H8.191v-0.713h2.135V33.545z"
		/>
	<rect x="30.211" y="37.266" fill="#E77428" width="2.586" height="4.818"/>
	<rect x="27.266" y="37.266" fill="#E77428" width="1.844" height="4.818"/>
	<rect x="29.516" y="37.266" fill="#E77428" width="0.371" height="4.818"/>
	<rect x="15.77" y="37.266" fill="#E77428" width="0.371" height="4.818"/>
	<rect x="25.818" y="37.266" fill="#E77428" width="1.059" height="4.818"/>
	<rect x="24.283" y="37.266" fill="#E77428" width="1.021" height="4.818"/>
	<rect x="16.563" y="37.266" fill="#E77428" width="1.021" height="4.818"/>
	<rect x="22.605" y="37.266" fill="#E77428" width="1.293" height="4.818"/>
	<rect x="19.945" y="37.266" fill="#E77428" width="2.221" height="4.818"/>
	<rect x="18.199" y="37.266" fill="#E77428" width="1.291" height="4.818"/>
	<rect x="30.213" y="20.526" fill="#E77428" width="2.586" height="6.325"/>
	<rect x="27.268" y="20.526" fill="#E77428" width="1.844" height="6.325"/>
	<rect x="29.516" y="20.526" fill="#E77428" width="0.371" height="6.325"/>
	<rect x="15.77" y="20.526" fill="#E77428" width="0.371" height="6.325"/>
	<rect x="25.818" y="20.526" fill="#E77428" width="1.061" height="6.325"/>
	<rect x="24.283" y="20.526" fill="#E77428" width="1.021" height="6.325"/>
	<rect x="16.563" y="20.526" fill="#E77428" width="1.021" height="6.325"/>
	<rect x="22.605" y="20.526" fill="#E77428" width="1.293" height="6.325"/>
	<rect x="19.945" y="20.526" fill="#E77428" width="2.221" height="6.325"/>
	<rect x="18.199" y="20.526" fill="#E77428" width="1.293" height="6.325"/>
	<path fill="#DD2B00" d="M13.51,8.244h-1.75V7.612h4.262v0.632h-1.76v5.125H13.51V8.244z"/>
	<path fill="#DD2B00" d="M17.408,7.612v5.757h-0.744V7.612H17.408z"/>
	<path fill="#DD2B00" d="M22.73,13.182c-0.273,0.136-0.82,0.273-1.521,0.273c-1.621,0-2.844-1.025-2.844-2.913
		c0-1.802,1.223-3.023,3.006-3.023c0.719,0,1.172,0.153,1.367,0.257l-0.18,0.606c-0.281-0.138-0.684-0.239-1.16-0.239
		c-1.35,0-2.248,0.862-2.248,2.374c0,1.409,0.813,2.314,2.213,2.314c0.453,0,0.914-0.094,1.213-0.239L22.73,13.182z"/>
	<path fill="#DD2B00" d="M23.664,7.612h0.742v2.776h0.025c0.154-0.222,0.309-0.427,0.453-0.615l1.76-2.161h0.922l-2.084,2.443
		l2.246,3.313H26.85l-1.896-2.827l-0.547,0.633v2.194h-0.742V7.612z"/>
	<path fill="#DD2B00" d="M31.277,10.67h-2.238v2.075h2.494v0.624h-3.238V7.612h3.109v0.624h-2.365v1.819h2.238V10.67z"/>
	<path fill="#DD2B00" d="M33.73,8.244h-1.752V7.612h4.262v0.632h-1.758v5.125H33.73V8.244z"/>
</g>
</svg>
