<?xml version="1.0" encoding="utf-8"?>
<!-- Generator: Adobe Illustrator 16.0.0, SVG Export Plug-In . SVG Version: 6.00 Build 0)  -->
<!DOCTYPE svg PUBLIC "-//W3C//DTD SVG 1.1//EN" "http://www.w3.org/Graphics/SVG/1.1/DTD/svg11.dtd">
<svg version="1.1" id="Layer_1" xmlns="http://www.w3.org/2000/svg" xmlns:xlink="http://www.w3.org/1999/xlink" x="0px" y="0px"
	 width="48px" height="48px" viewBox="0 0 48 48" enable-background="new 0 0 48 48" xml:space="preserve">
<g>
	<path fill="#FFB241" d="M10.07,26.676c3.325,0.528,6.247,2.785,9.612,3.474c3.422,0.7,7.509,1.629,10.835,0.217
		c2.116-0.897,4.486-1.777,6.314-3.284c-0.64-0.157-1.269-0.338-1.89-0.452c-1.765-0.325-3.559-0.769-5.077-1.709
		c-1.769-1.096-3.346-2.4-4.701-3.988c-1.387-1.621-2.16-3.483-2.947-5.428c-0.826-2.036-1.854-3.805-1.854-6.032
		c-0.445-0.081-1.236-0.182-1.691-0.299c-1.084-0.281-2.045-0.772-3.089-1.123c-2.168-0.728-4.361-1.133-6.646-0.694
		C7.675,7.598,6.461,7.938,5.232,8.188C4.376,8.363,3.406,8.276,2.602,8.562c-1.604,0.567-0.945,3.049-1.164,4.4
		c-0.639,3.955-0.221,8.089-0.8,12.057c-0.087,0.589-0.13,1.182-0.182,1.772C2.824,26.058,7.641,26.289,10.07,26.676z"/>
	<path fill="#274D57" d="M24.866,36.029c-4.497-0.222-8.868-0.461-13.2-1.034c-2.055-0.272-4.125-0.58-6.264-0.696
		C3.779,34.211,1.715,33.485,0,33.402c-0.001,1.109,0.083,2.219,0.354,3.076c0.196,0.619,0.271,1.498,0.658,2.051
		c0.256,0.364,1.354,1.891,1.561,2.081c0.432,0.397,2.141,0.122,2.746,0.122c0.959,0,1.916,0,2.873,0c1.252,0,2.504,0,3.755,0
		c0.969,0,2.073,0.15,3.009-0.127c1.115-0.33,0.406-1.14,0.852-2.029c0.238-0.478,0.194-0.41,0.852-0.407
		c0.445,0.002,0.892,0,1.338,0c1.84,0,3.711,0.415,5.358,1.19c1.997,0.938,4.021,0.874,6.238,0.874c2.731,0,5.327-0.691,8.037-0.926
		c2.412-0.208,4.687-1.082,6.891-2.066c1.209-0.54,2.421-1.15,3.083-2.334c0.243-0.436,0.338-0.872,0.375-1.32
		c-3,1.593-5.778,2.578-9.463,2.616C33.967,36.249,29.383,36.252,24.866,36.029z"/>
	<path fill="#5A7478" d="M47.99,32.061c0-1.241-0.121-3.634-1.206-4.432c-0.533-0.394-1.353-0.177-1.993-0.209
		c-1.063-0.052-2.132-0.074-3.204-0.074c-1.086,0-2.211,0.095-3.288,0.003c-0.495-0.042-0.982-0.147-1.467-0.267
		c-1.828,1.507-4.198,2.387-6.314,3.284c-3.326,1.412-7.413,0.483-10.835-0.217c-3.365-0.688-6.287-2.945-9.612-3.474
		c-2.43-0.387-7.246-0.618-9.614,0.115c-0.116,1.275-0.204,2.553-0.315,3.828C0.07,31.427,0.001,32.414,0,33.402
		c1.715,0.083,3.779,0.809,5.402,0.896c2.139,0.116,4.209,0.424,6.264,0.696c4.332,0.573,8.703,0.813,13.2,1.034
		c4.517,0.223,9.101,0.22,13.649,0.174c3.685-0.038,6.463-1.023,9.463-2.616C48.02,33.099,47.99,32.596,47.99,32.061z"/>
	<circle fill="#274D57" cx="24.085" cy="21.828" r="0.406"/>
	<circle fill="#274D57" cx="25.479" cy="23.157" r="0.405"/>
	<circle fill="#274D57" cx="27.114" cy="24.466" r="0.406"/>
	<circle fill="#274D57" cx="28.868" cy="25.462" r="0.406"/>
	<circle fill="#274D57" cx="30.676" cy="26.45" r="0.406"/>
</g>
</svg>
