<?xml version="1.0" encoding="utf-8"?>
<!-- Generator: Adobe Illustrator 16.0.0, SVG Export Plug-In . SVG Version: 6.00 Build 0)  -->
<!DOCTYPE svg PUBLIC "-//W3C//DTD SVG 1.1//EN" "http://www.w3.org/Graphics/SVG/1.1/DTD/svg11.dtd">
<svg version="1.1" id="Layer_1" xmlns="http://www.w3.org/2000/svg" xmlns:xlink="http://www.w3.org/1999/xlink" x="0px" y="0px"
	 width="48px" height="48px" viewBox="0 0 48 48" enable-background="new 0 0 48 48" xml:space="preserve">
<g>
	<path fill="#FFD699" d="M10.622,44.133c4.844-0.502,10.008,0.184,14.771,0.184c3.695,0,7.373,0.24,11.061,0.453
		c6.568-4.293,10.932-11.875,10.932-20.52C47.385,10.857,36.916,0,24,0C11.084,0,0.614,10.857,0.614,24.25
		C0.614,32.48,4.575,39.75,10.622,44.133z"/>
	<path fill="#E77428" d="M7.771,48C7.385,48,7,47.846,6.715,47.541c-0.543-0.582-0.51-1.494,0.072-2.039l7.152-6.668
		c0.582-0.543,1.496-0.512,2.039,0.072c0.543,0.582,0.512,1.496-0.072,2.039l-7.151,6.668C8.477,47.871,8.125,48,7.771,48z"/>
	<path fill="#E77428" d="M40.229,48c-0.354,0-0.707-0.129-0.986-0.387l-7.15-6.67c-0.582-0.541-0.613-1.455-0.07-2.037
		c0.541-0.584,1.455-0.615,2.039-0.072l7.15,6.67c0.582,0.543,0.615,1.455,0.072,2.037C40.998,47.846,40.613,48,40.229,48z"/>
	<path fill="#E77428" d="M38.896,46.758H9.104c-0.797,0-1.444-0.646-1.444-1.441c0-0.797,0.647-1.443,1.444-1.443h29.792
		c0.797,0,1.441,0.646,1.441,1.443C40.338,46.111,39.693,46.758,38.896,46.758z"/>
	<path fill="#FB4732" d="M40.646,40.783c-0.33,0-0.66-0.113-0.932-0.342c-0.607-0.518-0.684-1.426-0.168-2.035
		c3.309-3.9,5.131-8.914,5.131-14.115C44.678,12.488,35.4,2.885,24,2.885c-11.402,0-20.678,9.604-20.678,21.406
		c0,5.166,1.805,10.158,5.079,14.055c0.513,0.609,0.434,1.52-0.176,2.033s-1.519,0.434-2.033-0.176
		c-3.711-4.418-5.755-10.068-5.755-15.912C0.437,10.896,11.006,0,24,0c12.993,0,23.563,10.896,23.563,24.291
		c0,5.885-2.064,11.559-5.813,15.98C41.463,40.609,41.057,40.783,40.646,40.783z"/>
	<rect x="12.901" y="15.254" fill="#00B99B" width="21.484" height="15.844"/>
	<path fill="#00718D" d="M37.863,16.582c-0.125-2.973-2.58-5.391-5.475-5.391h-16.78c-2.894,0-5.349,2.418-5.474,5.393L9.373,35.092
		c-0.063,1.48,0.453,2.869,1.453,3.912c0.963,1.004,2.258,1.557,3.646,1.557h19.056c1.389,0,2.684-0.553,3.646-1.557
		c1-1.043,1.516-2.432,1.453-3.91L37.863,16.582z M33.217,26.313c0,1.615-1.287,2.934-2.869,2.934H17.653
		c-1.582,0-2.871-1.318-2.871-2.934v-7.188c0-1.617,1.289-2.934,2.871-2.934h12.695c1.582,0,2.869,1.316,2.869,2.934V26.313z"/>
	<circle fill="#FFFFFF" cx="15.12" cy="35.521" r="1.993"/>
	<circle fill="#FFFFFF" cx="32.88" cy="35.521" r="1.993"/>
</g>
</svg>
