<?xml version="1.0" encoding="utf-8"?>
<!-- Generator: Adobe Illustrator 16.0.0, SVG Export Plug-In . SVG Version: 6.00 Build 0)  -->
<!DOCTYPE svg PUBLIC "-//W3C//DTD SVG 1.1//EN" "http://www.w3.org/Graphics/SVG/1.1/DTD/svg11.dtd">
<svg version="1.1" id="Layer_1" xmlns="http://www.w3.org/2000/svg" xmlns:xlink="http://www.w3.org/1999/xlink" x="0px" y="0px"
	 width="48px" height="48px" viewBox="0 0 48 48" enable-background="new 0 0 48 48" xml:space="preserve">
<g>
	<path fill="#506E76" d="M26.973,44.502h-1.617V2.239c0-1.231-0.68-2.239-1.513-2.239c-0.833,0-1.514,1.008-1.514,2.239v42.263
		h-1.304c-1.229,0-2.237,0.787-2.237,1.75c0,0.961,1.008,1.748,2.237,1.748h5.948c1.232,0,2.24-0.787,2.24-1.748
		C29.213,45.289,28.205,44.502,26.973,44.502z"/>
	<path fill="#FB4732" d="M25.455,2.623c-0.334-0.026-0.668-0.043-1.008-0.051c0.629,2.176,1.75,7.687,1.319,18.35h5.979
		C31.75,10.336,27.674,4.831,25.455,2.623z"/>
	<path fill="#CFD0D1" d="M26.115,2.679c-0.219-0.024-0.439-0.039-0.66-0.056c2.219,2.208,6.295,7.713,6.289,18.299h5.344
		C36.943,9.314,29.402,4.308,26.115,2.679z"/>
	<path fill="#FB4732" d="M23.438,2.578c-0.338,0.01-0.676,0.021-1.01,0.051c-2.221,2.211-6.29,7.716-6.283,18.293h5.979
		C21.693,10.268,22.811,4.757,23.438,2.578z"/>
	<path fill="#FB4732" d="M26.115,2.679c3.287,1.629,10.828,6.636,10.973,18.243h5.463C42.455,11.474,35.305,3.724,26.115,2.679z"/>
	<path fill="#CFD0D1" d="M22.428,2.629c-0.236,0.02-0.47,0.046-0.703,0.074C18.413,4.358,10.943,9.373,10.8,20.922h5.345
		C16.138,10.345,20.208,4.84,22.428,2.629z"/>
	<path fill="#FB4732" d="M21.725,2.703C12.613,3.819,5.542,11.528,5.45,20.922H10.8C10.943,9.373,18.413,4.358,21.725,2.703z"/>
	<path fill="#CFD0D1" d="M24.666,2.572c-0.215-0.004-0.425-0.022-0.642-0.022c-0.272,0-0.536,0.022-0.803,0.028
		c-0.903,2.179-2.504,7.689-1.889,18.344h5.222C27.174,10.259,25.566,4.748,24.666,2.572z"/>
</g>
</svg>
