<?xml version="1.0" encoding="utf-8"?>
<!-- Generator: Adobe Illustrator 16.0.0, SVG Export Plug-In . SVG Version: 6.00 Build 0)  -->
<!DOCTYPE svg PUBLIC "-//W3C//DTD SVG 1.1//EN" "http://www.w3.org/Graphics/SVG/1.1/DTD/svg11.dtd">
<svg version="1.1" id="Layer_1" xmlns="http://www.w3.org/2000/svg" xmlns:xlink="http://www.w3.org/1999/xlink" x="0px" y="0px"
	 width="48px" height="48px" viewBox="0 0 48 48" enable-background="new 0 0 48 48" xml:space="preserve">
<g>
	<path fill="#5A7478" d="M8.525,48c-0.12,0-0.244-0.018-0.366-0.057c-0.635-0.201-0.988-0.881-0.785-1.518l6.746-21.252
		c0.201-0.635,0.879-0.988,1.518-0.787c0.637,0.203,0.988,0.883,0.787,1.52L9.675,47.158C9.513,47.672,9.038,48,8.525,48z"/>
	<path fill="#5A7478" d="M39.476,48c-0.514,0-0.988-0.328-1.153-0.842l-6.746-21.252c-0.2-0.637,0.151-1.316,0.787-1.52
		c0.642-0.201,1.316,0.152,1.518,0.787l6.746,21.252c0.202,0.637-0.149,1.316-0.787,1.518C39.719,47.982,39.597,48,39.476,48z"/>
	
		<line fill="none" stroke="#4C6370" stroke-width="1.5" stroke-linecap="round" stroke-linejoin="round" stroke-miterlimit="10" x1="34.939" y1="32.506" x2="13.059" y2="32.506"/>
	<path fill="#5A7478" d="M36.487,37.828H11.513c-0.5,0-0.905-0.406-0.905-0.906c0-0.502,0.405-0.906,0.905-0.906h24.974
		c0.5,0,0.906,0.404,0.906,0.906C37.394,37.422,36.987,37.828,36.487,37.828z"/>
	<path fill="#5A7478" d="M37.742,42.242H10.258c-0.5,0-0.906-0.406-0.906-0.906s0.406-0.906,0.906-0.906h27.484
		c0.5,0,0.907,0.406,0.907,0.906S38.242,42.242,37.742,42.242z"/>
	<path fill="#5A7478" d="M38.752,46.656H9.249c-0.5,0-0.906-0.406-0.906-0.906s0.406-0.906,0.906-0.906h29.503
		c0.5,0,0.907,0.406,0.907,0.906S39.252,46.656,38.752,46.656z"/>
	<path fill="#274D57" d="M24.075,0h-0.149c-7.095,0-12.9,5.805-12.9,12.899V33.42h16.037h9.911V18.977v-6.077
		C36.973,5.805,31.171,0,24.075,0z"/>
	<path fill="#00B99B" d="M35.483,13.485c-6.849,4.975-16.118,4.975-22.967,0c1.202-1.654,2.404-3.309,3.607-4.963
		c4.697,3.413,11.056,3.413,15.753,0C33.081,10.177,34.281,11.831,35.483,13.485z"/>
	<rect x="23.196" y="23.357" fill="#FFFFFF" width="1.609" height="8.959"/>
	<circle fill="#FFFFFF" cx="24" cy="5.822" r="1.933"/>
	<path fill="#FFD699" d="M27.062,33.42h9.911V18.977C31.613,19.056,27.271,25.438,27.062,33.42z M33.241,31.16
		c-0.92,0-1.662-0.742-1.662-1.662c0-0.916,0.742-1.662,1.662-1.662c0.918,0,1.659,0.746,1.659,1.662
		C34.9,30.418,34.159,31.16,33.241,31.16z"/>
	<path fill="#FFD699" d="M11.025,18.977V33.42h9.915C20.729,25.438,16.384,19.056,11.025,18.977z M14.759,31.16
		c-0.919,0-1.662-0.742-1.662-1.662c0-0.916,0.743-1.662,1.662-1.662s1.662,0.746,1.662,1.662
		C16.421,30.418,15.678,31.16,14.759,31.16z"/>
</g>
</svg>
