<?xml version="1.0" encoding="utf-8"?>
<!-- Generator: Adobe Illustrator 16.0.0, SVG Export Plug-In . SVG Version: 6.00 Build 0)  -->
<!DOCTYPE svg PUBLIC "-//W3C//DTD SVG 1.1//EN" "http://www.w3.org/Graphics/SVG/1.1/DTD/svg11.dtd">
<svg version="1.1" id="Layer_1" xmlns="http://www.w3.org/2000/svg" xmlns:xlink="http://www.w3.org/1999/xlink" x="0px" y="0px"
	 width="48px" height="48px" viewBox="0 0 48 48" enable-background="new 0 0 48 48" xml:space="preserve">
<g>
	<path fill="#E77428" d="M17.023,9.98h-4.363c-0.531,0-0.961-0.447-0.961-1.002s0.43-1.002,0.961-1.002h4.363
		c0.531,0,0.961,0.447,0.961,1.002S17.555,9.98,17.023,9.98z"/>
	<path fill="#E77428" d="M34.656,9.98h-4.367c-0.529,0-0.959-0.447-0.959-1.002s0.43-1.002,0.959-1.002h4.367
		c0.529,0,0.959,0.447,0.959,1.002S35.186,9.98,34.656,9.98z"/>
	<path fill="#506E76" d="M31.25,16.955V9.197c0-0.24-0.082-0.473-0.234-0.654l-6.793-8.195c-0.186-0.223-0.43-0.363-0.736-0.346
		c-0.283,0.002-0.551,0.135-0.73,0.365l-6.473,8.195c-0.141,0.178-0.219,0.402-0.219,0.635v7.758"/>
	<path fill="#E77428" d="M14.72,18.217h-4.363c-0.531,0-0.961-0.449-0.961-1.002c0-0.555,0.43-1.004,0.961-1.004h4.363
		c0.531,0,0.961,0.449,0.961,1.004C15.682,17.768,15.251,18.217,14.72,18.217z"/>
	<path fill="#E77428" d="M36.959,18.217h-4.365c-0.531,0-0.961-0.449-0.961-1.002c0-0.555,0.43-1.004,0.961-1.004h4.365
		c0.531,0,0.961,0.449,0.961,1.004C37.92,17.768,37.49,18.217,36.959,18.217z"/>
	<path fill="#E77428" d="M8.128,27.727H2.764c-0.53,0-0.96-0.447-0.96-1.002s0.43-1.002,0.96-1.002h5.364
		c0.53,0,0.96,0.447,0.96,1.002S8.659,27.727,8.128,27.727z"/>
	<path fill="#E77428" d="M44.551,27.727h-5.365c-0.529,0-0.959-0.447-0.959-1.002s0.43-1.002,0.959-1.002h5.365
		c0.529,0,0.959,0.447,0.959,1.002S45.08,27.727,44.551,27.727z"/>
	<path fill="#00B99B" d="M32.715,16.211H14.599c-0.531,0-0.961,0.449-0.961,1.004v9.51c0,0.555,0.43,1.002,0.961,1.002
		c0.53,0,0.96-0.447,0.96-1.002h16.197c0,0.555,0.43,1.002,0.959,1.002c0.531,0,0.961-0.447,0.961-1.002v-9.51
		C33.676,16.66,33.246,16.211,32.715,16.211z"/>
	<path fill="#009079" d="M39.186,25.723H8.128c-0.531,0-0.961,0.447-0.961,1.002v13.635c0,0.555,0.43,1.002,0.961,1.002
		c0.53,0,0.96-0.447,0.96-1.002h6.976v-2.895c0-0.264,0.1-0.514,0.273-0.701l6.473-6.898c0.371-0.396,0.977-0.404,1.355-0.018
		l6.793,6.898c0.186,0.189,0.291,0.447,0.291,0.719v2.895h6.977c0,0.555,0.43,1.002,0.959,1.002c0.531,0,0.961-0.447,0.961-1.002
		V26.725C40.146,26.17,39.717,25.723,39.186,25.723z"/>
	<path fill="#E77428" d="M46.771,48c-0.219,0-0.434-0.072-0.617-0.219l-6.926-5.578H7.944l-6.052,5.539
		c-0.403,0.369-1.03,0.336-1.398-0.072c-0.367-0.412-0.335-1.045,0.07-1.416l6.335-5.797c0.185-0.166,0.419-0.258,0.664-0.258
		h32.013c0.223,0,0.441,0.076,0.617,0.217l7.193,5.797c0.43,0.344,0.5,0.975,0.16,1.41C47.352,47.871,47.063,48,46.771,48z"/>
</g>
</svg>
