<?xml version="1.0" encoding="utf-8"?>
<!-- Generator: Adobe Illustrator 16.0.0, SVG Export Plug-In . SVG Version: 6.00 Build 0)  -->
<!DOCTYPE svg PUBLIC "-//W3C//DTD SVG 1.1//EN" "http://www.w3.org/Graphics/SVG/1.1/DTD/svg11.dtd">
<svg version="1.1" id="Layer_1" xmlns="http://www.w3.org/2000/svg" xmlns:xlink="http://www.w3.org/1999/xlink" x="0px" y="0px"
	 width="48px" height="48px" viewBox="0 0 48 48" enable-background="new 0 0 48 48" xml:space="preserve">
<g>
	<rect x="0.463" y="0.462" fill="#FFBE5C" width="47.074" height="47.076"/>
	<rect x="3.178" y="2.739" fill="#FFD699" width="5.041" height="5.699"/>
	<rect x="3.178" y="11.946" fill="#FFD699" width="5.041" height="5.699"/>
	<rect x="3.178" y="21.151" fill="#FFD699" width="5.041" height="5.699"/>
	<rect x="3.178" y="30.356" fill="#FFD699" width="5.041" height="5.699"/>
	<rect x="3.178" y="39.562" fill="#FFD699" width="5.041" height="5.699"/>
	<rect x="39.781" y="2.739" fill="#FFD699" width="5.041" height="5.699"/>
	<rect x="39.781" y="11.946" fill="#FFD699" width="5.041" height="5.699"/>
	<rect x="39.781" y="21.151" fill="#FFD699" width="5.041" height="5.699"/>
	<rect x="39.781" y="30.356" fill="#FFD699" width="5.041" height="5.699"/>
	<rect x="39.781" y="39.562" fill="#FFD699" width="5.041" height="5.699"/>
	<rect x="10.521" y="2.739" fill="#FFFFFF" width="26.959" height="42.521"/>
	<polygon fill="#FB4732" points="28.455,24.112 20.852,28.655 20.852,19.347 	"/>
	<path fill="#FB4732" d="M24,31.694c-4.242,0-7.693-3.451-7.693-7.693s3.451-7.693,7.693-7.693s7.693,3.451,7.693,7.693
		S28.242,31.694,24,31.694z M24,17.288c-3.701,0-6.713,3.012-6.713,6.713s3.012,6.713,6.713,6.713s6.713-3.012,6.713-6.713
		S27.701,17.288,24,17.288z"/>
</g>
</svg>
