<?xml version="1.0" encoding="utf-8"?>
<!-- Generator: Adobe Illustrator 16.0.0, SVG Export Plug-In . SVG Version: 6.00 Build 0)  -->
<!DOCTYPE svg PUBLIC "-//W3C//DTD SVG 1.1//EN" "http://www.w3.org/Graphics/SVG/1.1/DTD/svg11.dtd">
<svg version="1.1" id="Layer_1" xmlns="http://www.w3.org/2000/svg" xmlns:xlink="http://www.w3.org/1999/xlink" x="0px" y="0px"
	 width="48px" height="48px" viewBox="0 0 48 48" enable-background="new 0 0 48 48" xml:space="preserve">
<g>
	<path fill="#274D57" d="M35.631,12.735c-2.465,3.662-6.943,16.074-6.943,16.074C27.344,21.965,17.152,7.642,17.152,7.642
		L16.48,9.87c8.176,12.892,9.295,28.012,9.295,28.012l5.264-1.273c2.016-15.278,6.943-24.192,6.943-24.192L35.631,12.735z"/>
	<ellipse fill="#F7A93B" cx="26.152" cy="41.408" rx="13.958" ry="5.035"/>
	<path fill="#00A5D3" d="M39.777,41.967c-0.804-0.002-1.656-0.006-2.518-0.082c-0.987-0.088-1.985-0.271-2.93-0.67
		c-0.081-0.035-0.149-0.07-0.226-0.104c-0.329-0.148-0.63-0.3-0.909-0.446c-0.664-0.346-1.104-0.574-1.84-0.627
		c-1.35-0.1-2.688,0.387-3.811,0.874c-0.141,0.062-0.275,0.134-0.413,0.199c-0.272,0.13-0.548,0.257-0.818,0.394
		c-1.271,0.643-2.712,1.371-4.53,1.432c-2.017,0.062-3.81-0.674-5.295-1.408c-0.31-0.154-0.613-0.283-0.918-0.417
		c-3.275-1.437-6.252-1.759-8.849-0.926c-0.734,0.235-1.265,0.543-1.767,0.926c-0.377,0.288-0.742,0.622-1.156,1.013
		c-0.03,0.029-0.059,0.053-0.09,0.083l-0.215,0.202c-0.229,0.217-0.541,0.614-0.875,1.035c-0.822,1.047-1.672,2.121-2.744,2.539V48
		h48.25v-8.37c-1.104,0.095-2.17,0.553-3.295,1.028C43.377,41.273,41.713,41.988,39.777,41.967z"/>
	<path fill="#00B99B" d="M16.133,10.245c0,0-4.77-1.095-1.46,14.342c0,0-9.81-7.41-3.31-15.437c0,0-6.146-2.469-10.993,9.51
		c0,0-2.647-12.125,9.435-13.168c0.162-0.014,0.327-0.026,0.494-0.036c0,0-1.063-3.715-8.629-0.751c0,0,7.5-8.713,12.768-0.617
		c0,0,1.418-6.026,6.855-3.445c0,0-3.311-0.261-4.02,3.074c0,0,9.693-4.939,10.048,2.841c0,0-2.128-4.94-8.393-1.606
		c0,0,8.038,1.482,7.329,10.497c0,0-4.152-8.519-8.814-5.741L16.133,10.245z"/>
	<path fill="#00B99B" d="M36.65,14.711c0,0,3.195-0.702,0.978,9.2c0,0,6.575-4.753,2.218-9.902c0,0,4.119-1.583,7.368,6.1
		c0,0,1.773-7.778-6.323-8.447c-0.109-0.009-0.219-0.017-0.331-0.022c0,0,0.712-2.383,5.782-0.482c0,0-5.025-5.589-8.555-0.396
		c0,0-0.951-3.865-4.596-2.209c0,0,2.218-0.167,2.693,1.971c0,0-6.496-3.168-6.733,1.822c0,0,1.426-3.169,5.624-1.03
		c0,0-5.387,0.95-4.91,6.734c0,0,2.781-5.465,5.906-3.683L36.65,14.711z"/>
</g>
</svg>
