<?xml version="1.0" encoding="utf-8"?>
<!-- Generator: Adobe Illustrator 16.0.0, SVG Export Plug-In . SVG Version: 6.00 Build 0)  -->
<!DOCTYPE svg PUBLIC "-//W3C//DTD SVG 1.1//EN" "http://www.w3.org/Graphics/SVG/1.1/DTD/svg11.dtd">
<svg version="1.1" id="Layer_1" xmlns="http://www.w3.org/2000/svg" xmlns:xlink="http://www.w3.org/1999/xlink" x="0px" y="0px"
	 width="48px" height="48px" viewBox="0 0 48 48" enable-background="new 0 0 48 48" xml:space="preserve">
<g>
	<path fill="#274D57" d="M15.1,47.889c-0.367,0-0.74-0.09-1.084-0.276c-1.098-0.595-1.5-1.956-0.9-3.042l6.029-10.92
		c0.6-1.088,1.973-1.486,3.07-0.893c1.098,0.595,1.497,1.957,0.897,3.043l-6.026,10.921C16.674,47.467,15.899,47.889,15.1,47.889z"
		/>
	<path fill="#274D57" d="M37.431,26.992c-0.33,0-0.664-0.129-0.939-0.396l-6.832-6.592c-0.629-0.606-0.717-1.693-0.197-2.427
		c0.521-0.734,1.452-0.836,2.08-0.229l6.832,6.592c0.628,0.606,0.717,1.693,0.197,2.426C38.278,26.779,37.856,26.992,37.431,26.992z
		"/>
	<path fill="#FFD699" d="M27.796,1.24c-0.986,0.552-2.809,1.695-2.753,2.612c0,0-1.49-1.725-1.647,0.196
		c0,0-1.511,2.232-2.938,1.663c0.491,1.955,2.253,3.404,4.361,3.404c2.488,0,4.504-2.016,4.504-4.502
		C29.323,3.27,28.73,2.065,27.796,1.24z"/>
	<path fill="#F7A93B" d="M23.396,4.049c0.157-1.921,1.647-0.196,1.647-0.196c-0.056-0.917,1.767-2.061,2.753-2.612
		c-0.794-0.7-1.833-1.129-2.977-1.129c-2.486,0-4.502,2.015-4.502,4.503c0,0.379,0.053,0.746,0.142,1.098
		C21.885,6.281,23.396,4.049,23.396,4.049z"/>
	<path fill="#274D57" d="M17.6,13.134c0,0,0.553-2.35,5.467-0.755c4.913,1.597,0.518-0.546,0.518-0.546s-4.247-2.14-7.393,0.646
		C14.426,14.041,17.6,13.134,17.6,13.134z"/>
	<path fill="#00B99B" d="M15.346,12.319h-0.297c-2.087,0-3.794,1.706-3.794,3.792v4.064c-1.308,0.766-2.165,2.042-2.165,3.488
		c0,2.343,2.25,4.243,5.023,4.243c0.204,0,0.407-0.014,0.604-0.033c0.11,0.01,0.218,0.033,0.331,0.033h0.297
		c2.086,0,3.791-1.707,3.791-3.792v-8.004C19.137,14.025,17.432,12.319,15.346,12.319z"/>
	<path fill="#274D57" d="M38.761,44.316l-3.41-9.826c-0.141-0.408-0.379-0.777-0.695-1.074l-7.308-6.889v-0.145V14.9v-0.439
		c0-1.485-1.202-2.688-2.688-2.688c-0.051,0-0.098,0.013-0.146,0.015c-0.096-0.009-0.194-0.015-0.292-0.015h-0.637
		c-1.719,0-3.126,1.407-3.126,3.128v11.482c0,0.893,1.046,2.166,2.292,3.187c0.023,0.023,0.04,0.052,0.064,0.073l7.672,7.234
		l3.193,9.203c0.385,1.11,1.428,1.809,2.541,1.809c0.292,0,0.588-0.049,0.881-0.15C38.505,47.252,39.247,45.72,38.761,44.316z"/>
</g>
</svg>
