<?xml version="1.0" encoding="utf-8"?>
<!-- Generator: Adobe Illustrator 16.0.0, SVG Export Plug-In . SVG Version: 6.00 Build 0)  -->
<!DOCTYPE svg PUBLIC "-//W3C//DTD SVG 1.1//EN" "http://www.w3.org/Graphics/SVG/1.1/DTD/svg11.dtd">
<svg version="1.1" id="Layer_1" xmlns="http://www.w3.org/2000/svg" xmlns:xlink="http://www.w3.org/1999/xlink" x="0px" y="0px"
	 width="48px" height="48px" viewBox="0 0 48 48" enable-background="new 0 0 48 48" xml:space="preserve">
<g>
	<path fill="#FB4732" d="M0.876,47.519c-0.412,0-0.746-0.335-0.746-0.747V24.324c0-0.412,0.334-0.747,0.746-0.747
		c0.414,0,0.748,0.335,0.748,0.747v22.447C1.624,47.184,1.29,47.519,0.876,47.519z"/>
	<path fill="#FB4732" d="M12.899,48c-0.412,0-0.746-0.335-0.746-0.747v-9.085H0.876c-0.412,0-0.746-0.335-0.746-0.747
		s0.334-0.747,0.746-0.747h12.023c0.414,0,0.747,0.335,0.747,0.747v9.832C13.646,47.665,13.313,48,12.899,48z"/>
	<path fill="#FB4732" d="M9.853,38.168c-0.109,0-0.219-0.023-0.324-0.074c-0.371-0.18-0.527-0.625-0.349-0.996l2.925-6.066H1.3
		c-0.412,0-0.746-0.334-0.746-0.746s0.334-0.746,0.746-0.746h11.992c0.258,0,0.497,0.132,0.633,0.349
		c0.138,0.218,0.152,0.489,0.041,0.722l-3.441,7.137C10.396,38.012,10.13,38.168,9.853,38.168z"/>
	<path fill="#FB4732" d="M47.125,47.519c-0.413,0-0.747-0.335-0.747-0.747V24.324c0-0.412,0.334-0.747,0.747-0.747
		c0.411,0,0.745,0.335,0.745,0.747v22.447C47.87,47.184,47.536,47.519,47.125,47.519z"/>
	<path fill="#FB4732" d="M35.101,48c-0.412,0-0.746-0.335-0.746-0.747v-9.832c0-0.412,0.334-0.747,0.746-0.747h12.024
		c0.411,0,0.745,0.335,0.745,0.747s-0.334,0.747-0.745,0.747H35.848v9.085C35.848,47.665,35.513,48,35.101,48z"/>
	<path fill="#FB4732" d="M38.149,38.168c-0.277,0-0.545-0.156-0.674-0.422l-3.439-7.137c-0.111-0.232-0.097-0.504,0.04-0.722
		c0.136-0.217,0.375-0.349,0.633-0.349H46.7c0.412,0,0.746,0.334,0.746,0.746s-0.334,0.746-0.746,0.746H35.896l2.925,6.066
		c0.18,0.371,0.022,0.816-0.349,0.996C38.368,38.145,38.259,38.168,38.149,38.168z"/>
	<path fill="#F7A93B" d="M34.913,28.013H13.089c-0.555,0-1.004-0.449-1.004-1.005c0-0.557,0.449-1.006,1.004-1.006h21.824
		c0.555,0,1.004,0.449,1.004,1.006C35.917,27.563,35.468,28.013,34.913,28.013z"/>
	<path fill="#F7A93B" d="M24.001,47.777c-0.555,0-1.006-0.451-1.006-1.006V28.068c0-0.557,0.451-1.006,1.006-1.006
		s1.004,0.449,1.004,1.006v18.703C25.005,47.326,24.556,47.777,24.001,47.777z"/>
	<path fill="#F7A93B" d="M27.589,47.777h-7.175c-0.556,0-1.005-0.451-1.005-1.006c0-0.556,0.449-1.006,1.005-1.006h7.175
		c0.555,0,1.004,0.45,1.004,1.006C28.593,47.326,28.144,47.777,27.589,47.777z"/>
	<path fill="#274D57" d="M22.995,16.23v8.094c0,0.555,0.451,1.004,1.006,1.004s1.004-0.449,1.004-1.004V16.23H22.995z"/>
	<path fill="#274D57" d="M25.005,3.281V1.005C25.005,0.45,24.556,0,24.001,0s-1.006,0.45-1.006,1.005v2.276H25.005z"/>
	<path fill="#00B99B" d="M25.082,3.384c-0.269-0.02-0.538-0.032-0.808-0.036L24.25,16.224l5.554,0.01
		C29.815,14.297,29.538,7.222,25.082,3.384z"/>
	<path fill="#5A7478" d="M22.968,3.381c-4.47,3.82-4.777,10.897-4.771,12.831l5.004,0.009l0.022-12.857
		C23.138,3.368,23.054,3.374,22.968,3.381z"/>
	<path fill="#5A7478" d="M29.423,4.36c-0.844-0.332-1.714-0.584-2.605-0.754c3.84,4.245,4.066,10.686,4.041,12.629l6.238,0.012
		c0.289,0,0.526-0.234,0.526-0.523C37.634,10.787,34.413,6.328,29.423,4.36z"/>
	<path fill="#00B99B" d="M10.378,15.673c0,0.139,0.055,0.274,0.153,0.372c0.053,0.052,0.112,0.092,0.181,0.118
		c0.06,0.023,0.125,0.036,0.191,0.036l6.238,0.011c-0.019-1.941,0.233-8.378,4.087-12.61C15.051,4.762,10.39,9.73,10.378,15.673z"/>
</g>
</svg>
