<?xml version="1.0" encoding="utf-8"?>
<!-- Generator: Adobe Illustrator 16.0.0, SVG Export Plug-In . SVG Version: 6.00 Build 0)  -->
<!DOCTYPE svg PUBLIC "-//W3C//DTD SVG 1.1//EN" "http://www.w3.org/Graphics/SVG/1.1/DTD/svg11.dtd">
<svg version="1.1" id="Layer_1" xmlns="http://www.w3.org/2000/svg" xmlns:xlink="http://www.w3.org/1999/xlink" x="0px" y="0px"
	 width="48px" height="48px" viewBox="0 0 48 48" enable-background="new 0 0 48 48" xml:space="preserve">
<g>
	<path fill="#DD2B00" d="M24.851,11.378h-1.701c-6.133,0-11.121,4.877-11.121,10.872v13.768c0,3.264,2.713,5.922,6.051,5.922h1.867
		v-4.828c0-2.355,1.818-4.273,4.054-4.273c2.239,0,4.063,1.918,4.063,4.273v4.828h1.86c3.336,0,6.049-2.658,6.049-5.922V22.25
		C35.972,16.255,30.983,11.378,24.851,11.378z"/>
	<path fill="#274D57" d="M24.001,33.924c-1.772,0-3.217,1.52-3.217,3.389v6.701c0,1.869,1.444,3.391,3.217,3.391
		c1.775,0,3.221-1.521,3.221-3.391v-6.701C27.222,35.443,25.776,33.924,24.001,33.924z"/>
	<path fill="#5A7478" d="M20.063,6.382h-9.679c-0.537,0-0.973-0.436-0.973-0.973c0-0.538,0.436-0.973,0.973-0.973h9.679
		c0.536,0,0.972,0.436,0.972,0.973C21.034,5.946,20.599,6.382,20.063,6.382z"/>
	<path fill="#5A7478" d="M37.616,6.382h-9.678c-0.537,0-0.973-0.436-0.973-0.973c0-0.538,0.436-0.973,0.973-0.973h9.678
		c0.537,0,0.973,0.436,0.973,0.973C38.589,5.946,38.153,6.382,37.616,6.382z"/>
	<path fill="#274D57" d="M23.993,0.596c-2.703,0-4.904,2.159-4.904,4.813c0,2.653,2.201,4.813,4.904,4.813
		c2.711,0,4.918-2.159,4.918-4.813C28.911,2.755,26.704,0.596,23.993,0.596z"/>
</g>
</svg>
