<?xml version="1.0" encoding="utf-8"?>
<!-- Generator: Adobe Illustrator 16.0.0, SVG Export Plug-In . SVG Version: 6.00 Build 0)  -->
<!DOCTYPE svg PUBLIC "-//W3C//DTD SVG 1.1//EN" "http://www.w3.org/Graphics/SVG/1.1/DTD/svg11.dtd">
<svg version="1.1" id="Layer_1" xmlns="http://www.w3.org/2000/svg" xmlns:xlink="http://www.w3.org/1999/xlink" x="0px" y="0px"
	 width="48px" height="48px" viewBox="0 0 48 48" enable-background="new 0 0 48 48" xml:space="preserve">
<g>
	<ellipse fill="#FFD699" cx="24.054" cy="28.708" rx="6.495" ry="6.648"/>
	<polygon fill="#89451F" points="24.051,33.362 24.051,33.355 24.051,33.355 	"/>
	<path fill="#00718D" d="M31.977,20.855c-0.166-0.168-0.393-0.262-0.627-0.263l-14.631-0.06c-0.006,0-0.01,0-0.016,0
		c-0.482,0.005-0.875,0.398-0.877,0.884l-0.061,14.5c-0.002,0.234,0.092,0.461,0.258,0.627c0.166,0.169,0.391,0.264,0.627,0.266
		l14.631,0.059c0.004,0,0.008,0,0.014,0c0.482-0.005,0.875-0.397,0.877-0.883l0.063-14.5C32.234,21.249,32.143,21.022,31.977,20.855
		z M24.061,34.251c-0.006,0-0.08,0-0.084,0c-3.061-0.014-5.539-2.514-5.527-5.572c0.014-3.016,2.475-5.494,5.488-5.527
		c3.145,0.012,5.623,2.514,5.611,5.572C29.535,31.737,27.074,34.218,24.061,34.251z"/>
	<path fill="#00B99B" d="M30.061,38.157c-0.166-0.166-0.393-0.26-0.627-0.262l-11.361-0.047c-0.484,0.033-0.891,0.393-0.893,0.885
		l-0.033,8.188c-0.002,0.236,0.092,0.462,0.258,0.63c0.166,0.167,0.391,0.262,0.627,0.263l11.359,0.047c0.006,0,0.01,0,0.016,0
		c0.482-0.006,0.875-0.398,0.877-0.884l0.035-8.188C30.318,38.552,30.227,38.325,30.061,38.157z"/>
	<path fill="#00B99B" d="M30.291,12.725c-0.166-0.166-0.391-0.262-0.627-0.262l-0.988-0.005l-1.084-5.052
		C27.504,7,27.143,6.707,26.727,6.705L25.689,6.7l-0.889-5.807c-0.066-0.431-0.438-0.751-0.875-0.754
		c-0.436,0-0.811,0.317-0.881,0.748l-0.939,5.799L21.07,6.682c-0.004,0-0.01,0-0.014,0c-0.412,0.005-0.768,0.293-0.857,0.695
		l-1.123,5.042l-0.99-0.004c-0.221,0.012-0.463,0.091-0.629,0.256c-0.168,0.168-0.262,0.392-0.264,0.628l-0.023,5.296
		c0,0.235,0.094,0.462,0.258,0.63c0.166,0.167,0.393,0.262,0.627,0.263l11.58,0.049c0.004,0,0.01,0,0.014,0
		c0.23-0.003,0.451-0.096,0.615-0.257c0.168-0.167,0.264-0.392,0.264-0.628l0.021-5.298C30.551,13.119,30.457,12.893,30.291,12.725z
		"/>
</g>
</svg>
