<?xml version="1.0" encoding="utf-8"?>
<!-- Generator: Adobe Illustrator 16.0.0, SVG Export Plug-In . SVG Version: 6.00 Build 0)  -->
<!DOCTYPE svg PUBLIC "-//W3C//DTD SVG 1.1//EN" "http://www.w3.org/Graphics/SVG/1.1/DTD/svg11.dtd">
<svg version="1.1" id="Layer_1" xmlns="http://www.w3.org/2000/svg" xmlns:xlink="http://www.w3.org/1999/xlink" x="0px" y="0px"
	 width="48px" height="48px" viewBox="0 0 48 48" enable-background="new 0 0 48 48" xml:space="preserve">
<g>
	<path fill="#F7A93B" d="M42.699,24.8c-0.092,0-0.184-0.027-0.27-0.082c-0.26-0.168-0.35-0.541-0.199-0.832l4.568-8.977
		L36.406,1.069c-0.193-0.258-0.166-0.643,0.063-0.861s0.57-0.184,0.764,0.074L47.871,14.45c0.148,0.195,0.17,0.475,0.057,0.697
		l-4.758,9.344C43.068,24.688,42.887,24.8,42.699,24.8z"/>
	<polygon fill="#F7A93B" points="37.361,1.897 37.078,2.356 39.926,22.327 42.773,23.45 47.33,14.708 	"/>
	<path fill="#FFBE5C" d="M43.189,23.903L36.975,0.435c-0.063-0.232-0.242-0.402-0.457-0.43c-0.215-0.031-0.424,0.092-0.531,0.303
		L25.512,20.923c-0.09,0.174-0.096,0.387-0.02,0.566c0.078,0.18,0.229,0.307,0.404,0.34l16.719,2.963
		c0.029,0.004,0.057,0.008,0.084,0.008c0,0,0.008,0,0.01,0c0.301,0,0.543-0.275,0.543-0.611
		C43.252,24.087,43.229,23.987,43.189,23.903z"/>
	<path fill="#F7A93B" d="M31.473,48c-0.166,0-0.336-0.047-0.49-0.146c-0.473-0.307-0.637-0.986-0.365-1.518l8.332-16.365
		L19.996,4.728c-0.352-0.469-0.299-1.17,0.117-1.566c0.416-0.398,1.041-0.338,1.393,0.131l19.398,25.837
		c0.27,0.357,0.311,0.867,0.104,1.273L32.33,47.441C32.148,47.799,31.816,48,31.473,48z"/>
	<polygon fill="#F7A93B" points="21.74,6.241 21.221,7.075 26.416,43.494 31.609,45.541 39.92,29.6 	"/>
	<path fill="#FFBE5C" d="M32.367,46.367L21.035,3.575c-0.113-0.428-0.441-0.736-0.834-0.787c-0.393-0.057-0.773,0.164-0.971,0.551
		L0.129,40.934c-0.16,0.316-0.173,0.703-0.031,1.033c0.141,0.328,0.415,0.561,0.736,0.617l30.486,5.402
		C31.371,47.996,31.424,48,31.475,48c0.008,0,0.014,0,0.02,0c0.545,0,0.986-0.498,0.986-1.111
		C32.48,46.699,32.441,46.521,32.367,46.367z"/>
</g>
</svg>
