<?xml version="1.0" encoding="utf-8"?>
<!-- Generator: Adobe Illustrator 16.0.0, SVG Export Plug-In . SVG Version: 6.00 Build 0)  -->
<!DOCTYPE svg PUBLIC "-//W3C//DTD SVG 1.1//EN" "http://www.w3.org/Graphics/SVG/1.1/DTD/svg11.dtd">
<svg version="1.1" id="Layer_1" xmlns="http://www.w3.org/2000/svg" xmlns:xlink="http://www.w3.org/1999/xlink" x="0px" y="0px"
	 width="48px" height="48px" viewBox="0 0 48 48" enable-background="new 0 0 48 48" xml:space="preserve">
<g>
	<path fill="#506E76" d="M40.896,29.554c-3.916,0-7.102,3.188-7.102,7.104c0,3.918,3.186,7.105,7.102,7.105
		c3.918,0,7.104-3.188,7.104-7.105C48,32.741,44.814,29.554,40.896,29.554z"/>
	<path fill="#506E76" d="M10.235,29.554c-3.915,0-7.101,3.188-7.101,7.104c0,3.918,3.186,7.105,7.101,7.105
		c3.917,0,7.102-3.188,7.102-7.105C17.337,32.741,14.152,29.554,10.235,29.554z"/>
	<path fill="#274D57" d="M1.557,17.694C0.697,17.694,0,16.997,0,16.138V5.794c0-0.859,0.697-1.557,1.557-1.557
		s1.557,0.697,1.557,1.557v10.344C3.113,16.997,2.416,17.694,1.557,17.694z"/>
	<path fill="#F7A93B" d="M42.133,14.833h-4.486c-0.861,0-1.559-0.699-1.559-1.559s0.697-1.557,1.559-1.557h4.486
		c0.859,0,0.041,0.697,0.041,1.557S42.992,14.833,42.133,14.833z"/>
	<path fill="#F7A93B" d="M42.736,16.128c0,0-1.492,1.021-1.535,3.176c-0.043,2.156-2.83-1.764-2.83-1.764l-0.688-2.506l3.533-0.695
		L42.736,16.128z"/>
	<ellipse fill="#F7A93B" cx="42.262" cy="14.048" rx="1.053" ry="2.33"/>
	<path fill="#DD2B00" d="M40.896,28.169c1.037,0,2.025,0.197,2.943,0.537c-0.596-10.746-5.352-16.111-9.387-19.041
		c-4.795-3.48-9.494-2.682-9.689-2.648c-0.43,0.08-0.768,0.418-0.84,0.85s0.133,0.861,0.516,1.078
		c6.11,3.449,8.715,7.318,7.327,10.898c-1.572,4.059-7.645,6.6-11.325,5.752c-1.717-0.395-1.969-1.197-2.049-1.461
		c-0.686-2.195,2.369-6.635,4.455-8.914c0.277-0.303,0.35-0.742,0.184-1.119c-0.166-0.375-0.537-0.619-0.949-0.619H7.125
		c-0.574,0-1.039,0.465-1.039,1.037v3.35c-8.641,3.131-5.592,19.826-5.453,20.41l1.265-0.072c-0.093-0.502-0.147-1.02-0.147-1.549
		c0-4.68,3.805-8.488,8.485-8.488c4.678,0,8.487,3.809,8.487,8.488c0,0.203-0.016,0.398-0.029,0.598l13.729-0.225
		C32.516,32.433,36.279,28.169,40.896,28.169z"/>
</g>
</svg>
