<?xml version="1.0" encoding="utf-8"?>
<!-- Generator: Adobe Illustrator 16.0.0, SVG Export Plug-In . SVG Version: 6.00 Build 0)  -->
<!DOCTYPE svg PUBLIC "-//W3C//DTD SVG 1.1//EN" "http://www.w3.org/Graphics/SVG/1.1/DTD/svg11.dtd">
<svg version="1.1" id="Layer_1" xmlns="http://www.w3.org/2000/svg" xmlns:xlink="http://www.w3.org/1999/xlink" x="0px" y="0px"
	 width="48px" height="48px" viewBox="0 0 48 48" enable-background="new 0 0 48 48" xml:space="preserve">
<g>
	<path fill="#274D57" d="M42.929,24.309c-0.309-2.453-0.625-4.99-0.625-6.008C42.304,8.209,34.093,0,24.001,0
		C13.909,0,5.699,8.209,5.699,18.301c0,1.018-0.317,3.555-0.624,6.008c-0.332,2.629-0.643,5.111-0.643,6.256
		c0,5.691,3.104,11.203,8.303,14.742c0.17,0.117,0.372,0.178,0.574,0.178c0.163,0,0.326-0.041,0.477-0.119
		c0.334-0.178,0.545-0.523,0.545-0.902v-0.777c0-2.527,2.053-4.582,4.581-4.582h10.18c2.525,0,4.582,2.055,4.582,4.582v0.773
		c0,0.379,0.209,0.725,0.543,0.902s0.738,0.156,1.053-0.057c5.197-3.537,8.299-9.047,8.299-14.74
		C43.567,29.42,43.257,26.938,42.929,24.309z"/>
	<path fill="#FB4732" d="M18.706,46.023h2.486V48h5.617v-1.977h2.484c1.549,0,2.809-1.26,2.809-2.809s-1.26-2.809-2.809-2.809
		H18.706c-1.549,0-2.809,1.26-2.809,2.809S17.157,46.023,18.706,46.023z"/>
	<path fill="#FFD699" d="M19.618,30.971c-0.564,0-1.021,0.459-1.021,1.021c0,0.564,0.457,1.021,1.021,1.021h8.766
		c0.564,0,1.021-0.457,1.021-1.021c0-0.563-0.457-1.021-1.021-1.021H19.618z"/>
	<path fill="#FFD699" d="M33.456,31.992c0,1.035,0.838,1.869,1.873,1.869c1.033,0,1.871-0.834,1.871-1.869
		c0-1.029-0.838-1.869-1.871-1.869C34.294,30.123,33.456,30.963,33.456,31.992z"/>
	<path fill="#FFD699" d="M10.799,31.992c0,1.035,0.836,1.869,1.873,1.869c1.031,0,1.869-0.834,1.869-1.869
		c0-1.029-0.838-1.869-1.869-1.869C11.635,30.123,10.799,30.963,10.799,31.992z"/>
	<path fill="#00B99B" d="M16.562,9.705c-3.354,0-6.085,2.73-6.085,6.086v3.426c0,3.355,2.731,6.086,6.085,6.086h14.877
		c3.357,0,6.088-2.73,6.088-6.086v-3.426c0-3.355-2.73-6.086-6.088-6.086H16.562z"/>
</g>
</svg>
