<?xml version="1.0" encoding="utf-8"?>
<!-- Generator: Adobe Illustrator 16.0.0, SVG Export Plug-In . SVG Version: 6.00 Build 0)  -->
<!DOCTYPE svg PUBLIC "-//W3C//DTD SVG 1.1//EN" "http://www.w3.org/Graphics/SVG/1.1/DTD/svg11.dtd">
<svg version="1.1" id="Layer_1" xmlns="http://www.w3.org/2000/svg" xmlns:xlink="http://www.w3.org/1999/xlink" x="0px" y="0px"
	 width="48px" height="48px" viewBox="0 0 48 48" enable-background="new 0 0 48 48" xml:space="preserve">
<g>
	<path fill="#274D57" d="M36.604,33.384c-3.306,0-4.732-2.877-4.747-2.906c-0.068-0.143-0.009-0.316,0.135-0.385
		c0.143-0.068,0.314-0.01,0.385,0.135l0,0c0.054,0.111,1.363,2.715,4.469,2.574c0.156-0.01,0.293,0.115,0.301,0.273
		c0.007,0.16-0.115,0.295-0.275,0.303C36.781,33.382,36.692,33.384,36.604,33.384z"/>
	<ellipse fill="none" cx="37.409" cy="33.259" rx="1.149" ry="2.258"/>
	<ellipse fill="#274D57" cx="37.409" cy="33.259" rx="1.149" ry="2.258"/>
	<ellipse fill="#FFD699" cx="37.524" cy="33.259" rx="0.666" ry="1.309"/>
	<path fill="#273F47" d="M38.002,31.325c-0.041-0.07-0.111-0.135-0.205-0.191C37.869,31.185,37.938,31.249,38.002,31.325z"/>
	<path fill="#5A7478" d="M37.408,35.517c-0.635,0-1.148-1.01-1.148-2.258s0.514-2.26,1.148-2.26c0.03,0,0.06,0.006,0.09,0.01
		c-0.188-0.055-0.412-0.088-0.652-0.088c-0.234,0-0.452,0.031-0.637,0.084c-0.611,0.051-1.1,1.039-1.1,2.254
		c0,1.234,0.504,2.234,1.129,2.256c0.179,0.049,0.386,0.076,0.607,0.076c0.229,0,0.441-0.029,0.622-0.08
		C37.447,35.513,37.428,35.517,37.408,35.517z"/>
	<path fill="#273F47" d="M37.861,35.335c0.056-0.041,0.101-0.086,0.131-0.133C37.949,35.251,37.906,35.296,37.861,35.335z"/>
	<ellipse fill="none" cx="17.4" cy="38.974" rx="1.158" ry="2.225"/>
	<ellipse fill="#274D57" cx="17.4" cy="38.974" rx="1.158" ry="2.225"/>
	<ellipse fill="#FFD699" cx="17.517" cy="38.974" rx="0.671" ry="1.289"/>
	<path fill="#273F47" d="M17.998,37.073c-0.041-0.07-0.111-0.135-0.207-0.189C17.863,36.935,17.933,36.997,17.998,37.073z"/>
	<path fill="#5A7478" d="M17.4,41.198c-0.641,0-1.158-0.996-1.158-2.225c0-1.227,0.518-2.223,1.158-2.223
		c0.029,0,0.06,0.004,0.09,0.01c-0.189-0.055-0.414-0.086-0.657-0.086c-0.236,0-0.456,0.029-0.642,0.082
		c-0.617,0.051-1.108,1.021-1.108,2.217c0,1.215,0.508,2.201,1.138,2.223c0.18,0.047,0.389,0.074,0.612,0.074
		c0.229,0,0.444-0.029,0.626-0.078C17.439,41.194,17.42,41.198,17.4,41.198z"/>
	<path fill="#273F47" d="M17.855,41.019c0.057-0.041,0.103-0.084,0.133-0.131C17.945,40.937,17.902,40.981,17.855,41.019z"/>
	<line fill="#FAD197" x1="17.834" y1="35.722" x2="17.834" y2="39.104"/>
	<path fill="#274D57" d="M17.834,39.392c-0.159,0-0.288-0.129-0.288-0.287v-3.383c0-0.158,0.129-0.287,0.288-0.287
		s0.289,0.129,0.289,0.287v3.383C18.123,39.263,17.993,39.392,17.834,39.392z"/>
	<ellipse fill="none" cx="19.419" cy="39.194" rx="1.149" ry="2.258"/>
	<ellipse fill="#274D57" cx="19.419" cy="39.194" rx="1.149" ry="2.258"/>
	<ellipse fill="#FFD699" cx="19.534" cy="39.194" rx="0.666" ry="1.307"/>
	<path fill="#273F47" d="M20.012,37.261c-0.04-0.07-0.11-0.135-0.205-0.191C19.879,37.12,19.947,37.185,20.012,37.261z"/>
	<path fill="#5A7478" d="M19.418,41.452c-0.635,0-1.148-1.012-1.148-2.258c0-1.248,0.514-2.26,1.148-2.26
		c0.031,0,0.061,0.004,0.09,0.01c-0.188-0.057-0.411-0.088-0.652-0.088c-0.234,0-0.451,0.031-0.637,0.084
		c-0.611,0.051-1.1,1.039-1.1,2.254c0,1.232,0.504,2.234,1.129,2.256c0.179,0.049,0.387,0.076,0.607,0.076
		c0.229,0,0.441-0.029,0.622-0.08C19.458,41.448,19.438,41.452,19.418,41.452z"/>
	<path fill="#273F47" d="M19.871,41.271c0.057-0.041,0.102-0.086,0.131-0.133C19.96,41.187,19.916,41.231,19.871,41.271z"/>
	<path fill="#F7A93B" d="M39.359,7.243c0,0-1.213,4.086-1.244,4.5c-0.032,0.414-0.352,1.531-1.819,1.883s-3.638,1.563-6.988,1.756
		c-3.351,0.191-4.403,0.479-5.17,0.766c-0.766,0.287-3.894,1.213-5.425,2.52c-1.531,1.309-4.053,4.787-4.563,6.479
		c0,0-2.936,3.352-2.648,5.488c0,0-0.606,3.383,3.606,5.043c0,0,5.584,1.723,10.722-0.16s5.903-3.414,7.021-4.404
		c1.117-0.988,2.234-3.893,2.33-5.439c0.096-1.549-0.605-4.293-1.085-5.25c-0.479-0.957,3.415-2.521,4.372-3.67
		s0.51-0.479,0.893-0.926c0,0,0.384,2.01,0.863,2.904c0,0,0.347,0.342,1.055-0.561c0,0-0.272-2.24-0.33-2.395
		s-0.135-1.211,0.441-1.902c0.577-0.691-0.153-1.672-0.402-1.826c-0.25-0.152-0.212-2.977-0.212-2.977l-0.097-2.115
		c0,0-0.028-0.875-0.768-0.268C39.374,7.128,39.359,7.243,39.359,7.243z"/>
	<path fill="#008AAC" d="M27.822,22.972c0,0-0.417-1.17,0.396-1.389c0.813-0.219,2.498-0.832,2.617-0.951s0.674-0.061,0.932,0.377
		c0.258,0.436,1.012,2.221,0.992,4.283c-0.021,2.063-0.041,2.262-0.258,3.41c0,0-1.051,1.23-2.757,2.004c0,0-1.031,0.336-1.17-0.576
		C28.575,30.13,28.436,23.823,27.822,22.972z"/>
	<path fill="#00718D" d="M31.768,21.009c-0.258-0.438-0.813-0.496-0.932-0.377c-0.031,0.031-0.173,0.098-0.377,0.182
		c0.379,0.572,1.297,2.27,1.17,5.174c0,0,0,1.43-0.285,1.959c0,0-0.365,0.572-1.259,1.145c0,0-1.012,0.576-1.515,0.854
		c0.004,0.119,0.005,0.186,0.005,0.186c0.139,0.912,1.17,0.576,1.17,0.576c1.706-0.773,2.757-2.004,2.757-2.004
		c0.217-1.148,0.237-1.348,0.258-3.41C32.779,23.229,32.025,21.444,31.768,21.009z"/>
	<path fill="#00A5D3" d="M15.406,26.624c2.849,1.211,6.211,0.461,6.211,0.461c2.889-0.664,4.363-1.598,4.363-1.598
		c0.979-0.244,0.861-1.182,0.861-1.182c0.037-0.855-0.395-1.764-0.395-1.764c-0.145-0.436-0.971-0.174-0.971-0.174
		c-0.504,0.191-3.453,0.383-3.453,0.383c-3.16,0.246-4.939-1.174-5.466-1.68c-1.093,1.436-2.104,3.07-2.408,4.074
		c0,0-0.067,0.078-0.18,0.215C14.27,26.194,15.406,26.624,15.406,26.624z"/>
	<ellipse fill="#274D57" cx="23.527" cy="16.767" rx="1.768" ry="0.891"/>
	<polygon fill="#274D57" points="24.59,14.04 22.316,14.04 22.086,16.487 24.705,16.487 	"/>
	<path fill="#274D57" d="M23.211,14.874c0,0-8.492,3.184-11.184,5.703c-2.689,2.52-4.534,3.674-6.686,6.018
		c0,0-4.843,0.615-5.342-1.826c0,0,3.074-4.631,11.279-7.494c0,0,4.822-2,10.395-3.314c0,0-7.897-2.66-16.909-2.488
		c0,0-0.288-0.865,2.517-1.459c0,0,2.018-0.443,7.514,0.652c0,0,6.519,1.826,7.832,2.738c1.314,0.912,1.123,0.125,1.123,0.125
		s3.478-1.498,4.477-1.633c1-0.135,3.594-1.576,8.013-1.596c0,0,2.306-0.27,3.978,1.211c0,0,0.442,0.461-0.385,0.346
		c0,0-7.051-0.211-14.276,2.307c0,0,10.511,2.65,13.662,4.572c0,0,6.418,2.709,8.782,5.918c0,0-0.635,2.307-4.978,1.75
		c0,0-8.666-7.955-14.315-9.781c0,0-3.766-1.518-4.919-1.787C23.788,14.835,23.512,14.759,23.211,14.874z"/>
	<ellipse fill="#FFD699" cx="23.563" cy="13.886" rx="1.354" ry="0.668"/>
</g>
</svg>
