<?xml version="1.0" encoding="utf-8"?>
<!-- Generator: Adobe Illustrator 16.0.0, SVG Export Plug-In . SVG Version: 6.00 Build 0)  -->
<!DOCTYPE svg PUBLIC "-//W3C//DTD SVG 1.1//EN" "http://www.w3.org/Graphics/SVG/1.1/DTD/svg11.dtd">
<svg version="1.1" id="Layer_1" xmlns="http://www.w3.org/2000/svg" xmlns:xlink="http://www.w3.org/1999/xlink" x="0px" y="0px"
	 width="48px" height="48px" viewBox="0 0 48 48" enable-background="new 0 0 48 48" xml:space="preserve">
<g>
	<path fill="#FFBE5C" d="M39.773,21.062L35.213,2.625c-0.215-0.868-0.756-1.599-1.523-2.059c-0.76-0.454-1.646-0.586-2.496-0.37
		L2.559,7.445c-1.77,0.447-2.85,2.262-2.408,4.046l4.562,18.435c0.214,0.869,0.755,1.6,1.522,2.059
		c0.52,0.313,1.101,0.473,1.689,0.473c0.27,0,0.54-0.033,0.808-0.102l1.945-0.492v-7.343c0-1.842,1.485-3.338,3.312-3.338h25.791
		C39.773,21.142,39.783,21.103,39.773,21.062z"/>
	<path fill="#FFBE5C" d="M11.807,33.7v4.402v6.464c0,1.842,1.486,3.339,3.313,3.339h29.517c1.826,0,3.311-1.497,3.311-3.339v-6.464
		v-3.037V33.7H11.807z"/>
	<path fill="#FB4732" d="M17.617,9.592c0.389-0.09,0.732-0.083,0.988-0.026l0.031-0.528c-0.18-0.046-0.578-0.084-1.16,0.052
		c-1.453,0.34-2.213,1.568-1.869,3.035c0.359,1.536,1.548,2.136,2.869,1.827c0.57-0.134,0.988-0.35,1.186-0.513l-0.238-0.451
		c-0.215,0.175-0.572,0.34-0.941,0.427c-1.139,0.267-1.973-0.314-2.242-1.461C15.953,10.723,16.52,9.85,17.617,9.592z"/>
	<path fill="#FB4732" d="M25.344,12.268l-0.475-2.031l0.57-0.133c0.553-0.108,0.861,0.077,1.152,0.691
		c0.268,0.552,0.467,0.932,0.574,1.044l0.625-0.146c-0.139-0.158-0.355-0.584-0.664-1.201c-0.225-0.46-0.518-0.743-0.908-0.783
		l-0.006-0.021c0.455-0.283,0.748-0.785,0.604-1.403c-0.084-0.361-0.293-0.65-0.578-0.803c-0.354-0.196-0.797-0.216-1.445-0.064
		c-0.416,0.097-0.846,0.235-1.137,0.369l1.084,4.622L25.344,12.268z M24.945,7.874c0.641-0.143,1.141,0.019,1.283,0.623
		c0.125,0.535-0.201,0.986-0.848,1.137l-0.619,0.145l-0.4-1.71C24.451,8.019,24.652,7.942,24.945,7.874z"/>
	<path fill="#FB4732" d="M18.477,13.952c0.57-0.134,0.988-0.35,1.186-0.513l-0.238-0.451c-0.215,0.175-0.572,0.34-0.941,0.427
		c-1.139,0.267-1.973-0.314-2.242-1.461c-0.287-1.23,0.279-2.103,1.377-2.361c0.389-0.09,0.732-0.083,0.988-0.026l0.031-0.528
		c-0.18-0.046-0.578-0.084-1.16,0.052c-1.453,0.34-2.213,1.568-1.869,3.035C15.967,13.66,17.156,14.26,18.477,13.952z"/>
	<path fill="#FB4732" d="M20.896,11.756l1.662-0.39l0.846,1.356l0.646-0.152l-2.697-4.309l-0.73,0.171l-0.492,5.057l0.625-0.147
		L20.896,11.756z M21.051,9.791c0.023-0.305,0.035-0.608,0.037-0.903l0.016-0.003c0.133,0.255,0.268,0.517,0.443,0.797l0.775,1.241
		l-1.41,0.332L21.051,9.791z"/>
	<path fill="#FB4732" d="M29.59,11.315c0.91-0.213,1.578-0.619,1.912-1.159c0.336-0.534,0.426-1.215,0.246-1.979
		c-0.176-0.758-0.547-1.243-1.053-1.528c-0.5-0.285-1.166-0.342-2.035-0.138c-0.479,0.113-0.908,0.257-1.264,0.398l1.082,4.608
		C28.793,11.48,29.158,11.416,29.59,11.315z M28.801,6.984c1.279-0.3,2.068,0.255,2.32,1.361c0.297,1.265-0.234,2.152-1.527,2.456
		c-0.236,0.056-0.461,0.1-0.619,0.108l-0.867-3.697C28.258,7.14,28.488,7.058,28.801,6.984z"/>
	<path fill="#FB4732" d="M21.354,8.262l-0.73,0.171l-0.492,5.057l0.625-0.147l0.141-1.586l1.662-0.39l0.846,1.356l0.646-0.152
		L21.354,8.262z M20.912,11.254l0.139-1.464c0.023-0.305,0.035-0.608,0.037-0.903l0.016-0.003c0.133,0.255,0.268,0.517,0.443,0.797
		l0.775,1.241L20.912,11.254z"/>
	<path fill="#FB4732" d="M31.748,8.177c-0.176-0.758-0.547-1.243-1.053-1.528c-0.5-0.285-1.166-0.342-2.035-0.138
		c-0.479,0.113-0.908,0.257-1.264,0.398l1.082,4.608c0.314-0.037,0.68-0.102,1.111-0.203c0.91-0.213,1.578-0.619,1.912-1.159
		C31.838,9.622,31.928,8.941,31.748,8.177z M29.594,10.801c-0.236,0.056-0.461,0.1-0.619,0.108l-0.867-3.697
		c0.15-0.072,0.381-0.155,0.693-0.228c1.279-0.3,2.068,0.255,2.32,1.361C31.418,9.61,30.887,10.498,29.594,10.801z"/>
	<path fill="#FB4732" d="M27.127,10.492c-0.225-0.46-0.518-0.743-0.908-0.783l-0.006-0.021c0.455-0.283,0.748-0.785,0.604-1.403
		c-0.084-0.361-0.293-0.65-0.578-0.803c-0.354-0.196-0.797-0.216-1.445-0.064c-0.416,0.097-0.846,0.235-1.137,0.369l1.084,4.622
		l0.604-0.142l-0.475-2.031l0.57-0.133c0.553-0.108,0.861,0.077,1.152,0.691c0.268,0.552,0.467,0.932,0.574,1.044l0.625-0.146
		C27.652,11.535,27.436,11.109,27.127,10.492z M25.381,9.634l-0.619,0.145l-0.4-1.71c0.09-0.05,0.291-0.126,0.584-0.195
		c0.641-0.143,1.141,0.019,1.283,0.623C26.354,9.032,26.027,9.483,25.381,9.634z"/>
	<rect x="11.807" y="28.885" fill="#274D57" width="36.14" height="3.776"/>
	<path fill="#FFBE5C" d="M44.637,22.225h-3.729H15.12c-1.826,0-3.313,1.498-3.313,3.339v0.646v1.638h36.14v-1.638v-0.646
		C47.947,23.723,46.463,22.225,44.637,22.225z"/>
	<path fill="#F9D096" d="M40.859,42.377c0.539,0,0.975-0.436,0.975-0.975c0-0.538-0.436-0.974-0.975-0.974h-5.055
		c-0.539,0-0.975,0.436-0.975,0.974c0,0.539,0.436,0.975,0.975,0.975H40.859z"/>
</g>
</svg>
