<?xml version="1.0" encoding="utf-8"?>
<!-- Generator: Adobe Illustrator 16.0.0, SVG Export Plug-In . SVG Version: 6.00 Build 0)  -->
<!DOCTYPE svg PUBLIC "-//W3C//DTD SVG 1.1//EN" "http://www.w3.org/Graphics/SVG/1.1/DTD/svg11.dtd">
<svg version="1.1" id="Layer_1" xmlns="http://www.w3.org/2000/svg" xmlns:xlink="http://www.w3.org/1999/xlink" x="0px" y="0px"
	 width="48px" height="48px" viewBox="0 0 48 48" enable-background="new 0 0 48 48" xml:space="preserve">
<g>
	<path fill="#009079" d="M38.809,14.008c0,0-4.309-7.387-12.07-5.969c0,0,0.12,1.582-1.822,2.168c0,0,0.546,1.119-1.125,1.891
		c0,0,0.272,1.332-0.925,1.678c0,0,0.72,1.172-0.933,1.891c0,0,0.879,1.172-1.064,1.863c0,0,0.799,1.41,0,2.609
		C20.071,21.337,38.809,14.008,38.809,14.008z"/>
	<path fill="#00B99B" d="M45.067,17.188c-1.158-0.736,0-1.525-6.632-3.581c-6.636-2.053-16.165,3.897-17.323,6.002l-5.107,4.16
		c0,0-0.985,1.035-2.161,1.006c0.121,0.723,0.198,1.676,0.006,2.531c0.65-0.121,1.354,0.025,1.893,0.834
		c1.054,1.578,12.794,7.949,14.057,8.266c1.264,0.316,6.528,2.475,10.846-0.053c4.319-2.527,4.476-5.107,4.476-5.107l1.316-3.791
		c0,0,0.896-3.105,0.896-4.896C47.333,20.771,46.227,17.927,45.067,17.188z"/>
	<ellipse fill="none" cx="36.202" cy="22.319" rx="3.085" ry="3.527"/>
	<ellipse fill="#FFFFFF" cx="36.202" cy="22.319" rx="3.085" ry="3.527"/>
	<path fill="#274D57" d="M36.2,18.792c1.642,0,2.979,1.463,3.079,3.309c0.004-0.072,0.008-0.146,0.008-0.219
		c0-1.949-1.383-3.527-3.087-3.527c-1.702,0-3.084,1.578-3.084,3.527c0,0.072,0.003,0.146,0.007,0.219
		C33.222,20.255,34.563,18.792,36.2,18.792z"/>
	<ellipse fill="#008AAC" cx="36.783" cy="22.694" rx="2.025" ry="2.285"/>
	<ellipse fill="#00718D" cx="36.783" cy="22.694" rx="1.218" ry="1.373"/>
	<path fill="none" d="M44.425,19.728c0.04,0.189,0.071,0.379,0.096,0.572c-0.013-0.105-0.017-0.137,0.003,0.01
		c0,0,0-0.006-0.003-0.01c0.036,0.264,0.135,0.994,0.083,0.609c0.07,0.51,0.117,1.012,0.141,1.523
		c0.01,0.207,0.018,0.412,0.033,0.617c0.026,0.242,0.025,0.277-0.003,0.102c0.021,0.17,0.046,0.34,0.068,0.512
		c0.023,0.197,0.045,0.396,0.066,0.596c0.012,0.105,0.016,0.168,0.019,0.199c0.005,0.025,0.011,0.053,0.018,0.088
		c0.067,0.344,0.167,0.67,0.296,0.996c0.003,0.004,0.003,0.006,0.005,0.01c1.107-0.342,1.928-1.568,1.928-3.029
		c0-1.727-1.144-3.125-2.555-3.125c-0.096,0-0.19,0.006-0.283,0.02C44.373,19.519,44.404,19.622,44.425,19.728z"/>
	<path fill="#FFFFFF" d="M44.425,19.728c0.04,0.189,0.071,0.379,0.096,0.572c-0.013-0.105-0.017-0.137,0.003,0.01
		c0,0,0-0.006-0.003-0.01c0.036,0.264,0.135,0.994,0.083,0.609c0.07,0.51,0.117,1.012,0.141,1.523
		c0.01,0.207,0.018,0.412,0.033,0.617c0.026,0.242,0.025,0.277-0.003,0.102c0.021,0.17,0.046,0.34,0.068,0.512
		c0.023,0.197,0.045,0.396,0.066,0.596c0.012,0.105,0.016,0.168,0.019,0.199c0.005,0.025,0.011,0.053,0.018,0.088
		c0.067,0.344,0.167,0.67,0.296,0.996c0.003,0.004,0.003,0.006,0.005,0.01c1.107-0.342,1.928-1.568,1.928-3.029
		c0-1.727-1.144-3.125-2.555-3.125c-0.096,0-0.19,0.006-0.283,0.02C44.373,19.519,44.404,19.622,44.425,19.728z"/>
	<path fill="#274D57" d="M44.619,19.009c-0.137,0-0.272,0.014-0.402,0.039c0.02,0.076,0.038,0.15,0.054,0.191
		c0.024,0.059,0.046,0.117,0.065,0.178c0.093-0.012,0.188-0.02,0.283-0.02c1.357,0,2.468,1.295,2.551,2.93
		c0.001-0.064,0.004-0.129,0.004-0.193C47.174,20.407,46.03,19.009,44.619,19.009z"/>
	<path fill="#008AAC" d="M44.604,20.921L44.604,20.921c0.069,0.506,0.116,1.004,0.14,1.512c0.01,0.207,0.018,0.412,0.033,0.617
		c0.026,0.242,0.025,0.277-0.003,0.102c0.021,0.17,0.046,0.34,0.068,0.512c0.023,0.197,0.045,0.396,0.066,0.596
		c0.012,0.105,0.016,0.168,0.019,0.199c0.005,0.025,0.011,0.053,0.018,0.088c0.021,0.111,0.049,0.219,0.078,0.328
		c0.025,0.002,0.051,0.004,0.076,0.004c0.928,0,1.68-0.906,1.68-2.023s-0.752-2.023-1.68-2.023
		C44.928,20.831,44.762,20.862,44.604,20.921C44.619,21.032,44.625,21.067,44.604,20.921z"/>
	<path fill="#00718D" d="M44.744,22.433c0.01,0.207,0.018,0.412,0.033,0.617c0.026,0.242,0.025,0.277-0.003,0.102
		c0.021,0.17,0.046,0.34,0.068,0.512c0.016,0.127,0.029,0.254,0.044,0.381c0.068,0.018,0.141,0.027,0.213,0.027
		c0.559,0,1.009-0.545,1.009-1.217s-0.45-1.217-1.009-1.217c-0.143,0-0.279,0.037-0.403,0.102
		C44.717,21.97,44.733,22.2,44.744,22.433z"/>
	<path fill="#009079" d="M29.997,30.856c0,0-2.167-0.48-2.958-0.895c0,0-2.476-1.521-4.847-1.225c0,0-2.289,0.318-3.604,1.563
		c0,0-0.936,3.137-1.348,3.961c0,0-3.507,2.75-4.195,4.16c0,0-0.309,1.307-0.274,1.721c0,0,1.271-1.066,4.538-0.619
		c0,0,4.16,0.83,9.42-2.766c0,0,3.337-2.428,3.438-2.529C30.271,34.124,28.655,32.335,29.997,30.856z"/>
	<path fill="#DD2B00" d="M44.692,31.011c0,0-0.159,2.666-0.173,2.711c-0.015,0.043-0.898,1.188-0.898,1.188h-1.943l-1.581-0.521
		l-2-1.641l-1.363-1.316l-0.144-0.566c0,0,1.131-0.043,1.173,0c0.044,0.045,4.784,0.045,4.987,0.045S44.692,31.011,44.692,31.011z"
		/>
	<path fill="#274D57" d="M36.2,30.712c0,0,6.209,0,8.692-1.439c0,0,1.785-0.863,2.44-0.396c0,0,1.691,0.787-0.315,1.836
		c0,0-0.634,0.688-2.625,0.961c-1.597,0.219-4.063,0.172-7.777-0.709c0,0,3.975,3.348,5.001,3.672c0,0,2.917,0.287,2.737-1.943
		l0.021-1.018l0.659-0.111c0,0,0.75,2.611-0.25,3.863c-0.806,1.012-1.224,1.766-3.492,1.045C39.024,35.751,36.2,30.712,36.2,30.712z
		"/>
	<path fill="#009079" d="M13.844,24.776c-0.564-0.014-1.172-0.271-1.734-1.006c-1.736-2.264-2.211-5.369-4.633-7.896
		c0,0-4.055-4.002-5.213-5.108c0,0-3.686,9.635,2.211,14.374c0,0-2.422,0.738-2.422,5.529c0,0-0.105,5.738-2.053,7.002
		c0,0,4.054,1.158,7.634-4.16c3.581-5.316,4.003-4.949,4.687-5.475c0.334-0.258,0.908-0.615,1.529-0.729
		C14.042,26.452,13.965,25.499,13.844,24.776z"/>
</g>
</svg>
