<?xml version="1.0" encoding="utf-8"?>
<!-- Generator: Adobe Illustrator 16.0.0, SVG Export Plug-In . SVG Version: 6.00 Build 0)  -->
<!DOCTYPE svg PUBLIC "-//W3C//DTD SVG 1.1//EN" "http://www.w3.org/Graphics/SVG/1.1/DTD/svg11.dtd">
<svg version="1.1" id="Layer_1" xmlns="http://www.w3.org/2000/svg" xmlns:xlink="http://www.w3.org/1999/xlink" x="0px" y="0px"
	 width="48px" height="48px" viewBox="0 0 48 48" enable-background="new 0 0 48 48" xml:space="preserve">
<g>
	<polygon fill="#FFD699" points="12.34,6.141 12.34,22.219 13.708,22.219 16.362,25.244 21.736,32.229 27.108,32.229 29.74,29.596 
		34.396,23.662 37.635,22.219 38.775,22.219 38.775,6.141 	"/>
	<path fill="#506E76" d="M8.182,26.996C3.67,26.996,0,30.666,0,35.178s3.67,8.182,8.182,8.182c4.511,0,8.181-3.67,8.181-8.182
		S12.692,26.996,8.182,26.996z"/>
	<path fill="#506E76" d="M39.817,26.996c-4.513,0-8.184,3.67-8.184,8.182s3.671,8.182,8.184,8.182S48,39.689,48,35.178
		S44.33,26.996,39.817,26.996z"/>
	<path fill="#DD2B00" d="M11.754,23.662c-0.828,0-1.5-0.672-1.5-1.5V7.521c0-0.828,0.672-1.5,1.5-1.5c0.829,0,1.5,0.672,1.5,1.5
		v14.641C13.254,22.99,12.583,23.662,11.754,23.662z"/>
	<path fill="#DD2B00" d="M38.775,23.662c-0.828,0-1.5-0.672-1.5-1.5V7.521c0-0.828,0.672-1.5,1.5-1.5s1.5,0.672,1.5,1.5v14.641
		C40.275,22.99,39.604,23.662,38.775,23.662z"/>
	<path fill="#DD2B00" d="M42.17,7.641H7.354c-0.827,0-1.5-0.672-1.5-1.5s0.673-1.5,1.5-1.5H42.17c0.828,0,1.5,0.672,1.5,1.5
		S42.998,7.641,42.17,7.641z"/>
	<path fill="#F7A93B" d="M15.362,26.223c-0.38,0-0.763-0.145-1.054-0.434c-0.59-0.584-0.596-1.533-0.013-2.121l6.696-6.768
		c0.583-0.59,1.532-0.594,2.121-0.012c0.59,0.582,0.595,1.533,0.012,2.121l-6.696,6.768C16.135,26.074,15.75,26.223,15.362,26.223z"
		/>
	<path fill="#F7A93B" d="M24.76,22.219c-0.398,0-0.795-0.158-1.09-0.471l-6.049-6.408c-0.568-0.602-0.541-1.551,0.061-2.121
		c0.6-0.566,1.552-0.541,2.121,0.063l6.049,6.408c0.568,0.602,0.541,1.551-0.062,2.119C25.5,22.082,25.13,22.219,24.76,22.219z"/>
	<path fill="#DD2B00" d="M28.346,33.529h-8.703l-0.369-0.965C14.602,20.326,2.84,24.459,2.342,24.643
		c-0.779,0.281-1.639-0.115-1.925-0.891c-0.284-0.777,0.11-1.637,0.886-1.924c0.145-0.055,14.386-5.139,20.381,8.701h5.57
		c0.785-2.162,2.942-6.846,7.449-8.893c3.479-1.58,7.529-1.24,12.033,1.01c0.741,0.369,1.041,1.271,0.672,2.012
		c-0.371,0.742-1.271,1.043-2.013,0.672c-3.646-1.824-6.824-2.148-9.438-0.969c-4.526,2.045-6.146,7.988-6.162,8.049L29.5,33.525
		L28.346,33.529z"/>
</g>
</svg>
