<?xml version="1.0" encoding="utf-8"?>
<!-- Generator: Adobe Illustrator 16.0.0, SVG Export Plug-In . SVG Version: 6.00 Build 0)  -->
<!DOCTYPE svg PUBLIC "-//W3C//DTD SVG 1.1//EN" "http://www.w3.org/Graphics/SVG/1.1/DTD/svg11.dtd">
<svg version="1.1" id="Layer_1" xmlns="http://www.w3.org/2000/svg" xmlns:xlink="http://www.w3.org/1999/xlink" x="0px" y="0px"
	 width="48px" height="48px" viewBox="0 0 48 48" enable-background="new 0 0 48 48" xml:space="preserve">
<g>
	<rect x="14.959" y="15.763" fill="#FFD699" width="18.5" height="24.9"/>
	<path fill="#AEB4AD" d="M31.104,11.442H16.897c-2.248,0-4.078,1.828-4.078,4.076v27.906c0,2.248,1.83,4.076,4.078,4.076h14.207
		c2.249,0,4.076-1.828,4.076-4.076V15.519C35.181,13.271,33.354,11.442,31.104,11.442z M31.604,39.331
		c0,0.414-0.339,0.752-0.753,0.752H17.151c-0.414,0-0.752-0.338-0.752-0.752V17.692c0-0.414,0.338-0.752,0.752-0.752h13.699
		c0.414,0,0.753,0.338,0.753,0.752V39.331z"/>
	<path fill="#EDF2F2" d="M23.224,42.265c-0.416,0-0.752,0.334-0.752,0.752c0,0.414,0.336,0.748,0.752,0.748h1.555
		c0.416,0,0.752-0.334,0.752-0.748c0-0.418-0.336-0.752-0.752-0.752H23.224z"/>
	<rect x="20.737" y="13.743" fill="#EDF2F2" width="6.527" height="0.609"/>
	<path fill="#5A7478" d="M31.104,11.442H16.897c-2.248,0-4.078,1.828-4.078,4.076v27.906c0,2.248,1.83,4.076,4.078,4.076h14.207
		c2.249,0,4.076-1.828,4.076-4.076V15.519C35.181,13.271,33.354,11.442,31.104,11.442z M31.604,39.331
		c0,0.414-0.339,0.752-0.753,0.752H17.151c-0.414,0-0.752-0.338-0.752-0.752V17.692c0-0.414,0.338-0.752,0.752-0.752h13.699
		c0.414,0,0.753,0.338,0.753,0.752V39.331z"/>
	<path fill="#EDF2F2" d="M23.224,42.265c-0.416,0-0.752,0.334-0.752,0.752c0,0.414,0.336,0.748,0.752,0.748h1.555
		c0.416,0,0.752-0.334,0.752-0.748c0-0.418-0.336-0.752-0.752-0.752H23.224z"/>
	<rect x="20.737" y="13.743" fill="#EDF2F2" width="6.527" height="0.609"/>
	<path fill="#274D57" d="M44.976,21.12h-1.471c0-10.559-8.592-19.148-19.15-19.148S5.207,10.562,5.207,21.12H3.733
		c0-11.371,9.25-20.621,20.621-20.621S44.976,9.749,44.976,21.12z"/>
	<path fill="#00B99B" d="M39.003,20.327v11.355c0.689,0.291,1.443,0.451,2.234,0.471V19.856
		C40.446,19.874,39.692,20.038,39.003,20.327z"/>
	<path fill="#274D57" d="M41.382,19.849c-0.048,0-0.096,0.006-0.145,0.008v12.297c0.049,0.002,0.097,0.008,0.145,0.008
		c3.4,0,6.156-2.756,6.156-6.156S44.782,19.849,41.382,19.849z"/>
	<path fill="#00B99B" d="M9,20.327v11.355c-0.69,0.291-1.446,0.451-2.235,0.471V19.856C7.554,19.874,8.31,20.038,9,20.327z"/>
	<path fill="#274D57" d="M6.618,19.849c0.051,0,0.096,0.006,0.146,0.008v12.297c-0.051,0.002-0.096,0.008-0.146,0.008
		c-3.4,0-6.156-2.756-6.156-6.156S3.218,19.849,6.618,19.849z"/>
</g>
</svg>
