<?xml version="1.0" encoding="utf-8"?>
<!-- Generator: Adobe Illustrator 16.0.0, SVG Export Plug-In . SVG Version: 6.00 Build 0)  -->
<!DOCTYPE svg PUBLIC "-//W3C//DTD SVG 1.1//EN" "http://www.w3.org/Graphics/SVG/1.1/DTD/svg11.dtd">
<svg version="1.1" id="Layer_1" xmlns="http://www.w3.org/2000/svg" xmlns:xlink="http://www.w3.org/1999/xlink" x="0px" y="0px"
	 width="48px" height="48px" viewBox="0 0 48 48" enable-background="new 0 0 48 48" xml:space="preserve">
<g>
	<path fill="#5A7478" d="M34.333,30.602c-2.501,0-4.537,2.037-4.537,4.539s2.036,4.539,4.537,4.539c2.503,0,4.538-2.037,4.538-4.539
		S36.836,30.602,34.333,30.602z"/>
	<path fill="#5A7478" d="M10.824,30.602c-2.5,0-4.535,2.037-4.535,4.539s2.035,4.539,4.535,4.539c2.504,0,4.538-2.037,4.538-4.539
		S13.328,30.602,10.824,30.602z"/>
	<path fill="#274D57" d="M45.074,25.152c-0.027,0.002-0.05,0.016-0.076,0.016H0v4.07c0,3.404,1.146,6.85,3.333,6.85h1.978
		c-0.053-0.309-0.086-0.625-0.086-0.947c0-3.102,2.521-5.623,5.622-5.623c3.082,0,5.591,2.494,5.617,5.57h12.25
		c0.027-3.076,2.536-5.57,5.618-5.57c3.101,0,5.625,2.521,5.625,5.623c0,0.309-0.033,0.609-0.081,0.906
		c0.069,0.014,0.133,0.041,0.206,0.041h3.459C46,36.088,48,34.01,48,31.457C48,29.729,46.807,27.256,45.074,25.152z"/>
	<path fill="#F7A93B" d="M30.637,12.387c-2.598-2.242-7.504-4.066-10.934-4.066H6.85C3.071,8.32,0,11.393,0,15.172v7.996h43.133
		L30.637,12.387z"/>
	<path fill="#00B99B" d="M43.133,23.168H0v2h44.998c0.026,0,0.049-0.014,0.076-0.016C45.247,25.361,43.133,23.168,43.133,23.168z"/>
	<polygon fill="#E8E9E5" points="38.729,21.639 27.857,21.639 27.857,12.408 	"/>
	<path fill="#E77428" d="M7.568,18.643c-0.191,0.096-0.574,0.191-1.067,0.191c-1.14,0-1.997-0.719-1.997-2.045
		c0-1.264,0.857-2.123,2.111-2.123c0.504,0,0.822,0.109,0.959,0.182l-0.125,0.426c-0.198-0.098-0.48-0.168-0.816-0.168
		c-0.946,0-1.576,0.605-1.576,1.666c0,0.99,0.569,1.625,1.553,1.625c0.318,0,0.642-0.066,0.852-0.168L7.568,18.643z"/>
	<path fill="#E77428" d="M8.901,17.504l-0.419,1.271h-0.54l1.374-4.043h0.629l1.379,4.043h-0.557l-0.432-1.271H8.901z
		 M10.228,17.096l-0.396-1.164c-0.091-0.264-0.15-0.504-0.21-0.736H9.609c-0.061,0.238-0.126,0.484-0.204,0.73l-0.396,1.17H10.228z"
		/>
	<path fill="#E77428" d="M11.92,14.787c0.264-0.055,0.643-0.084,1.001-0.084c0.558,0,0.918,0.102,1.171,0.33
		c0.203,0.18,0.316,0.455,0.316,0.768c0,0.533-0.336,0.887-0.762,1.031v0.018c0.313,0.107,0.499,0.396,0.594,0.816
		c0.133,0.563,0.229,0.953,0.313,1.109h-0.54c-0.066-0.115-0.155-0.463-0.269-0.967c-0.12-0.557-0.336-0.768-0.811-0.785h-0.492
		v1.752H11.92V14.787z M12.441,16.627h0.535c0.557,0,0.91-0.305,0.91-0.768c0-0.521-0.378-0.748-0.929-0.754
		c-0.252,0-0.433,0.023-0.517,0.047V16.627z"/>
	<path fill="#E77428" d="M18.242,18.596c-0.233,0.084-0.695,0.221-1.241,0.221c-0.61,0-1.114-0.156-1.511-0.533
		c-0.348-0.336-0.564-0.875-0.564-1.506c0.006-1.205,0.834-2.086,2.189-2.086c0.468,0,0.834,0.102,1.008,0.186l-0.126,0.426
		c-0.217-0.096-0.485-0.174-0.894-0.174c-0.984,0-1.625,0.611-1.625,1.625c0,1.025,0.617,1.631,1.559,1.631
		c0.342,0,0.575-0.049,0.695-0.107v-1.205h-0.82v-0.42h1.33V18.596z"/>
	<path fill="#E77428" d="M22.497,16.711c0,1.393-0.847,2.129-1.878,2.129c-1.066,0-1.816-0.826-1.816-2.051
		c0-1.283,0.797-2.123,1.876-2.123C21.783,14.666,22.497,15.512,22.497,16.711z M19.359,16.777c0,0.863,0.469,1.637,1.29,1.637
		c0.828,0,1.296-0.762,1.296-1.678c0-0.805-0.421-1.645-1.29-1.645C19.792,15.092,19.359,15.891,19.359,16.777z"/>
</g>
</svg>
