<?xml version="1.0" encoding="utf-8"?>
<!-- Generator: Adobe Illustrator 16.0.0, SVG Export Plug-In . SVG Version: 6.00 Build 0)  -->
<!DOCTYPE svg PUBLIC "-//W3C//DTD SVG 1.1//EN" "http://www.w3.org/Graphics/SVG/1.1/DTD/svg11.dtd">
<svg version="1.1" id="Layer_1" xmlns="http://www.w3.org/2000/svg" xmlns:xlink="http://www.w3.org/1999/xlink" x="0px" y="0px"
	 width="48px" height="48px" viewBox="0 0 48 48" enable-background="new 0 0 48 48" xml:space="preserve">
<g>
	<circle fill="#274D57" cx="24" cy="24" r="24"/>
	<path fill="#00B99B" d="M42.55,34.541h-5.323c0.77-2.756,1.24-5.807,1.354-9.045h6.67C45.024,28.768,44.076,31.834,42.55,34.541z"
		/>
	<path fill="#00B99B" d="M2.75,25.496h6.67c0.111,3.238,0.583,6.289,1.352,9.045H5.449C3.924,31.834,2.975,28.768,2.75,25.496z"/>
	<path fill="#00B99B" d="M5.449,13.461h5.322c-0.769,2.756-1.24,5.805-1.352,9.043H2.75C2.975,19.234,3.924,16.168,5.449,13.461z"/>
	<path fill="#00B99B" d="M25.488,10.469V2.75c2.957,0.734,5.607,3.604,7.456,7.719H25.488z"/>
	<path fill="#00B99B" d="M34.072,13.461c0.856,2.721,1.398,5.795,1.527,9.043H25.488v-9.043H34.072z"/>
	<path fill="#00B99B" d="M22.512,2.75v7.719h-7.457C16.904,6.354,19.554,3.484,22.512,2.75z"/>
	<path fill="#00B99B" d="M22.512,13.461v9.043H12.399c0.129-3.248,0.671-6.322,1.528-9.043H22.512z"/>
	<path fill="#00B99B" d="M12.399,25.496h10.112v9.045h-8.584C13.07,31.82,12.528,28.746,12.399,25.496z"/>
	<path fill="#00B99B" d="M22.512,37.533v7.717c-2.958-0.732-5.607-3.602-7.457-7.717H22.512z"/>
	<path fill="#00B99B" d="M25.488,45.25v-7.717h7.456C31.096,41.648,28.445,44.518,25.488,45.25z"/>
	<path fill="#00B99B" d="M25.488,34.541v-9.045H35.6c-0.129,3.25-0.671,6.324-1.527,9.045H25.488z"/>
	<path fill="#00B99B" d="M38.58,22.504c-0.113-3.238-0.584-6.287-1.354-9.043h5.323c1.526,2.707,2.475,5.773,2.7,9.043H38.58z"/>
	<path fill="#00B99B" d="M40.523,10.469h-4.294c-0.888-2.268-1.997-4.26-3.28-5.902C35.898,5.945,38.49,7.965,40.523,10.469z"/>
	<path fill="#00B99B" d="M15.049,4.566c-1.282,1.643-2.393,3.635-3.279,5.902H7.477C9.51,7.965,12.102,5.945,15.049,4.566z"/>
	<path fill="#00B99B" d="M7.477,37.533h4.293c0.887,2.268,1.997,4.26,3.279,5.9C12.102,42.057,9.51,40.037,7.477,37.533z"/>
	<path fill="#00B99B" d="M32.949,43.434c1.283-1.641,2.393-3.633,3.28-5.9h4.294C38.49,40.037,35.898,42.057,32.949,43.434z"/>
</g>
</svg>
