<?xml version="1.0" encoding="utf-8"?>
<!-- Generator: Adobe Illustrator 16.0.0, SVG Export Plug-In . SVG Version: 6.00 Build 0)  -->
<!DOCTYPE svg PUBLIC "-//W3C//DTD SVG 1.1//EN" "http://www.w3.org/Graphics/SVG/1.1/DTD/svg11.dtd">
<svg version="1.1" id="Layer_1" xmlns="http://www.w3.org/2000/svg" xmlns:xlink="http://www.w3.org/1999/xlink" x="0px" y="0px"
	 width="48px" height="48px" viewBox="0 0 48 48" enable-background="new 0 0 48 48" xml:space="preserve">
<g>
	<path fill="#009079" d="M38.652,19.438c-5.154,0-9.348,4.193-9.348,9.348s4.193,9.348,9.348,9.348S48,33.939,48,28.785
		S43.807,19.438,38.652,19.438z"/>
	<path fill="#009079" d="M9.348,19.438C4.193,19.438,0,23.631,0,28.785s4.193,9.348,9.348,9.348s9.348-4.193,9.348-9.348
		S14.502,19.438,9.348,19.438z"/>
	<path fill="#FB4732" d="M24.835,31.492c-0.125,0-0.252-0.023-0.374-0.072c-0.513-0.207-0.76-0.789-0.554-1.301l7.7-19.082
		c0.207-0.512,0.794-0.756,1.302-0.553c0.513,0.207,0.76,0.789,0.554,1.301l-7.7,19.082C25.605,31.256,25.23,31.492,24.835,31.492z"
		/>
	<path fill="#274D57" d="M35.076,12.412h-5.354c-0.553,0-1-0.447-1-1s0.447-1,1-1h5.354c0.553,0,1,0.447,1,1
		S35.629,12.412,35.076,12.412z"/>
	<path fill="#274D57" d="M15.135,13.863h-3.469c-0.553,0-1-0.447-1-1s0.447-1,1-1h3.469c0.553,0,1,0.447,1,1
		S15.688,13.863,15.135,13.863z"/>
	<path fill="#FB4732" d="M9.348,29.785c-0.131,0-0.263-0.025-0.39-0.08c-0.509-0.215-0.746-0.801-0.532-1.311l7.583-17.916
		c0.156-0.371,0.52-0.611,0.921-0.611h3.992c0.553,0,1,0.447,1,1s-0.447,1-1,1h-3.33l-7.323,17.307
		C10.107,29.557,9.737,29.785,9.348,29.785z"/>
	<path fill="#FB4732" d="M25.005,31.738c-0.324,0-0.633-0.158-0.822-0.432l-9.87-14.244c-0.212-0.305-0.236-0.703-0.063-1.033
		s0.514-0.535,0.886-0.535h15.17c0.326,0,0.631,0.158,0.818,0.424l8.348,11.887c0.197,0.281,0.236,0.643,0.105,0.959
		c-0.132,0.316-0.416,0.543-0.754,0.602l-13.647,2.357C25.118,31.732,25.062,31.738,25.005,31.738z M17.044,17.494l8.42,12.15
		l11.462-1.982l-7.141-10.168H17.044z"/>
</g>
</svg>
