<?xml version="1.0" encoding="utf-8"?>
<!-- Generator: Adobe Illustrator 16.0.0, SVG Export Plug-In . SVG Version: 6.00 Build 0)  -->
<!DOCTYPE svg PUBLIC "-//W3C//DTD SVG 1.1//EN" "http://www.w3.org/Graphics/SVG/1.1/DTD/svg11.dtd">
<svg version="1.1" id="Layer_1" xmlns="http://www.w3.org/2000/svg" xmlns:xlink="http://www.w3.org/1999/xlink" x="0px" y="0px"
	 width="48px" height="48px" viewBox="0 0 48 48" enable-background="new 0 0 48 48" xml:space="preserve">
<g>
	<path fill="#DD2B00" d="M13.787,18.389c-0.786,0-1.424-0.639-1.424-1.424V1.424C12.363,0.639,13.001,0,13.787,0
		c0.785,0,1.424,0.639,1.424,1.424v15.541C15.211,17.75,14.572,18.389,13.787,18.389z"/>
	<path fill="#DD2B00" d="M34.213,18.389c-0.785,0-1.424-0.639-1.424-1.424V1.424C32.789,0.639,33.428,0,34.213,0
		c0.786,0,1.424,0.639,1.424,1.424v15.541C35.637,17.75,34.999,18.389,34.213,18.389z"/>
	<path fill="#DD2B00" d="M39.732,2.848H8.268c-0.785,0-1.423-0.639-1.423-1.424S7.482,0,8.268,0h31.465
		c0.785,0,1.423,0.639,1.423,1.424S40.518,2.848,39.732,2.848z"/>
	<path fill="#00B99B" d="M24,14.064c-0.785,0-1.424-0.637-1.424-1.424V7.564c0-0.787,0.639-1.424,1.424-1.424
		s1.424,0.637,1.424,1.424v5.076C25.424,13.428,24.785,14.064,24,14.064z"/>
	<path fill="#F7A93B" d="M25.538,48H8.957c-0.508,0-0.979-0.27-1.232-0.711s-0.254-0.984,0.002-1.426l6.342-10.936
		c0.395-0.682,1.268-0.91,1.944-0.518c0.681,0.395,0.911,1.266,0.519,1.945l-5.104,8.799h14.11c0.786,0,1.423,0.637,1.423,1.424
		C26.961,47.363,26.324,48,25.538,48z"/>
	<path fill="#F7A93B" d="M39.043,48H22.462c-0.786,0-1.423-0.637-1.423-1.422c0-0.787,0.637-1.424,1.423-1.424h14.111l-5.101-8.799
		c-0.394-0.68-0.162-1.551,0.519-1.945c0.679-0.393,1.551-0.162,1.944,0.518l6.34,10.936c0.254,0.441,0.256,0.984,0.002,1.426
		C40.021,47.73,39.553,48,39.043,48z"/>
	<path fill="#F7A93B" d="M18.961,48c-0.127,0-0.256-0.016-0.383-0.051c-0.758-0.211-1.201-0.996-0.99-1.754l1.796-6.445
		c0.211-0.758,0.996-1.199,1.753-0.99c0.758,0.213,1.2,0.996,0.99,1.754l-1.797,6.445C20.154,47.59,19.583,48,18.961,48z"/>
	<path fill="#F7A93B" d="M29.039,48c-0.623,0-1.195-0.41-1.369-1.041l-1.791-6.447c-0.21-0.756,0.234-1.541,0.99-1.752
		c0.756-0.209,1.543,0.232,1.753,0.99l1.79,6.447c0.211,0.756-0.233,1.543-0.99,1.752C29.295,47.984,29.166,48,29.039,48z"/>
	<path fill="#00718D" d="M24,9.895c-4.471,0-8.753,1.908-11.748,5.232c-2.623,2.906-4.068,6.668-4.068,10.59
		c0,8.721,7.095,15.818,15.816,15.818c8.723,0,15.82-7.098,15.82-15.818C39.82,16.992,32.723,9.895,24,9.895z M24,32.477
		c-3.726,0-6.758-3.033-6.758-6.76c0-1.672,0.617-3.279,1.735-4.523c1.282-1.422,3.112-2.234,5.022-2.234
		c3.725,0,6.757,3.031,6.757,6.758S27.725,32.477,24,32.477z"/>
	<path fill="#00B99B" d="M24,18.355c-2.08,0-4.074,0.887-5.471,2.434c-1.218,1.355-1.89,3.107-1.89,4.926
		c0,4.061,3.303,7.365,7.36,7.365s7.36-3.305,7.36-7.365C31.36,21.656,28.058,18.355,24,18.355z"/>
</g>
</svg>
