<?xml version="1.0" encoding="utf-8"?>
<!-- Generator: Adobe Illustrator 16.0.0, SVG Export Plug-In . SVG Version: 6.00 Build 0)  -->
<!DOCTYPE svg PUBLIC "-//W3C//DTD SVG 1.1//EN" "http://www.w3.org/Graphics/SVG/1.1/DTD/svg11.dtd">
<svg version="1.1" id="Layer_1" xmlns="http://www.w3.org/2000/svg" xmlns:xlink="http://www.w3.org/1999/xlink" x="0px" y="0px"
	 width="48px" height="48px" viewBox="0 0 48 48" enable-background="new 0 0 48 48" xml:space="preserve">
<g>
	<rect x="16.667" y="16.063" fill="#00B99B" width="14.666" height="1.426"/>
	<path fill="#FB4732" d="M23.999,42.502c-8.295,0-15.043-6.748-15.043-15.045h2.898c0,6.697,5.447,12.148,12.145,12.148
		c6.699,0,12.148-5.451,12.148-12.148h2.896C39.044,35.754,32.296,42.502,23.999,42.502z"/>
	<polygon fill="#FB4732" points="37.597,25.016 33.688,28.924 41.503,28.924 	"/>
	<polygon fill="#274D57" points="24.001,48 27.907,44.094 20.095,44.094 	"/>
	<polygon fill="#FB4732" points="10.405,25.016 6.497,28.924 14.312,28.924 	"/>
	<rect x="22.626" y="11.484" fill="#274D57" width="2.75" height="33.398"/>
	<path fill="#CE8933" d="M23.999,0c-3.525,0-6.385,2.859-6.385,6.389c0,3.525,2.859,6.385,6.385,6.385
		c3.529,0,6.389-2.859,6.389-6.385C30.388,2.859,27.528,0,23.999,0z M23.999,10.512c-2.277,0-4.123-1.846-4.123-4.123
		c0-2.279,1.846-4.125,4.123-4.125c2.279,0,4.127,1.846,4.127,4.125C28.126,8.666,26.278,10.512,23.999,10.512z"/>
</g>
</svg>
