<?xml version="1.0" encoding="utf-8"?>
<!-- Generator: Adobe Illustrator 16.0.0, SVG Export Plug-In . SVG Version: 6.00 Build 0)  -->
<!DOCTYPE svg PUBLIC "-//W3C//DTD SVG 1.1//EN" "http://www.w3.org/Graphics/SVG/1.1/DTD/svg11.dtd">
<svg version="1.1" id="Layer_1" xmlns="http://www.w3.org/2000/svg" xmlns:xlink="http://www.w3.org/1999/xlink" x="0px" y="0px"
	 width="48px" height="48px" viewBox="0 0 48 48" enable-background="new 0 0 48 48" xml:space="preserve">
<g>
	<path fill="#00A5D3" d="M37.956,8.904H10.044c-0.553,0-1,0.439-1,0.982v37.131c0,0.543,0.447,0.982,1,0.982h27.912
		c0.553,0,1-0.439,1-0.982V9.887C38.956,9.344,38.509,8.904,37.956,8.904z"/>
	<path fill="#008AAC" d="M10.044,8.904h19.578V0L9.666,8.979C9.782,8.932,9.91,8.904,10.044,8.904z"/>
	<path fill="#B06977" d="M9.635,8.992l-0.07,0.031l0.003,0.004C9.59,9.016,9.611,9.002,9.635,8.992z"/>
	<path fill="#FFFFFF" d="M23.999,18.619c-5.518,0-10.008,4.412-10.008,9.834s4.49,9.832,10.008,9.832
		c5.521,0,10.012-4.41,10.012-9.832S29.52,18.619,23.999,18.619z M16.062,29.436h2.941c0.111,2.398,0.625,4.496,1.419,6.047
		C18.084,34.328,16.399,32.086,16.062,29.436z M19.003,27.471h-2.941c0.338-2.652,2.022-4.893,4.36-6.047
		C19.628,22.973,19.114,25.07,19.003,27.471z M23.999,36.32c-1.145,0-2.77-2.652-2.992-6.885h5.986
		C26.771,33.668,25.145,36.32,23.999,36.32z M21.007,27.471c0.223-4.232,1.848-6.887,2.992-6.887c1.146,0,2.771,2.654,2.994,6.887
		H21.007z M27.577,35.482c0.794-1.551,1.309-3.646,1.42-6.047h2.943C31.603,32.088,29.917,34.33,27.577,35.482z M28.996,27.471
		c-0.11-2.4-0.625-4.498-1.419-6.049c2.34,1.154,4.025,3.395,4.363,6.049H28.996z"/>
</g>
</svg>
