<?xml version="1.0" encoding="utf-8"?>
<!-- Generator: Adobe Illustrator 16.0.0, SVG Export Plug-In . SVG Version: 6.00 Build 0)  -->
<!DOCTYPE svg PUBLIC "-//W3C//DTD SVG 1.1//EN" "http://www.w3.org/Graphics/SVG/1.1/DTD/svg11.dtd">
<svg version="1.1" id="Layer_1" xmlns="http://www.w3.org/2000/svg" xmlns:xlink="http://www.w3.org/1999/xlink" x="0px" y="0px"
	 width="48px" height="48px" viewBox="0 0 48 48" enable-background="new 0 0 48 48" xml:space="preserve">
<g>
	<path fill="#FFBE5C" d="M12.065,22.844c-4.298,0-7.793,3.498-7.793,7.795c0,4.301,3.496,7.799,7.793,7.799
		c4.3,0,7.798-3.498,7.798-7.799C19.863,26.342,16.365,22.844,12.065,22.844z"/>
	<path fill="#274D57" d="M23.66,31.125c-0.08,0-0.16-0.01-0.24-0.029c-0.41-0.104-0.713-0.451-0.754-0.871
		c-0.758-7.6-6.123-9.615-6.951-9.881H6.39c-0.551,0-1-0.447-1-1s0.448-1,1-1h9.471c0.084,0,0.168,0.01,0.252,0.031
		c0.279,0.074,6.256,1.717,8.105,9.102l8.354-12.58c0.305-0.461,0.926-0.586,1.387-0.279c0.461,0.305,0.586,0.926,0.279,1.387
		l-9.744,14.674C24.307,30.961,23.99,31.125,23.66,31.125z"/>
	<path fill="#FFBE5C" d="M40.201,22.844c-0.707,0-1.389,0.104-2.041,0.281l2.967,7.129c0.213,0.512-0.029,1.096-0.539,1.309
		c-0.125,0.053-0.256,0.076-0.383,0.076c-0.393,0-0.764-0.23-0.924-0.615l-2.969-7.129c-2.33,1.348-3.906,3.863-3.906,6.744
		c0,4.301,3.496,7.799,7.795,7.799c4.301,0,7.799-3.498,7.799-7.799C48,26.342,44.502,22.844,40.201,22.844z"/>
	<path fill="#274D57" d="M32.77,10.178c-0.154-0.373-0.52-0.615-0.924-0.615h-3.992c-0.551,0-1,0.447-1,1s0.449,1,1,1h3.326
		l5.133,12.332c0.574-0.332,1.193-0.592,1.848-0.77L32.77,10.178z"/>
	<path fill="#274D57" d="M17.92,21.008c-0.42,0-0.811-0.268-0.949-0.688c-0.172-0.525,0.113-1.09,0.637-1.262l15.545-5.115
		c0.523-0.176,1.09,0.111,1.264,0.637c0.172,0.523-0.113,1.09-0.639,1.262l-15.545,5.115C18.129,20.992,18.023,21.008,17.92,21.008z
		"/>
	<path fill="#DD2B00" d="M38.234,15.453h-2.496c-0.551,0-1-0.447-1-1s0.449-1,1-1h2.496c0.553,0,1,0.447,1,1
		S38.787,15.453,38.234,15.453z"/>
	<path fill="#274D57" d="M1.002,30.424c-0.059,0-0.117-0.006-0.176-0.016c-0.544-0.096-0.906-0.615-0.811-1.16
		c1.563-8.813,8.306-10.789,8.592-10.867c0.529-0.148,1.084,0.162,1.231,0.695c0.148,0.529-0.162,1.08-0.691,1.23
		c-0.245,0.07-5.83,1.764-7.163,9.291C1.899,30.082,1.478,30.424,1.002,30.424z"/>
	<path fill="#DD2B00" d="M19.898,15.893H4.939c-0.553,0-1-0.447-1-1s0.447-1,1-1h14.959c0.553,0,1,0.447,1,1
		S20.451,15.893,19.898,15.893z"/>
</g>
</svg>
