<?xml version="1.0" encoding="utf-8"?>
<!-- Generator: Adobe Illustrator 16.0.0, SVG Export Plug-In . SVG Version: 6.00 Build 0)  -->
<!DOCTYPE svg PUBLIC "-//W3C//DTD SVG 1.1//EN" "http://www.w3.org/Graphics/SVG/1.1/DTD/svg11.dtd">
<svg version="1.1" id="Layer_1" xmlns="http://www.w3.org/2000/svg" xmlns:xlink="http://www.w3.org/1999/xlink" x="0px" y="0px"
	 width="48px" height="48px" viewBox="0 0 48 48" enable-background="new 0 0 48 48" xml:space="preserve">
<g>
	<path fill="#274D57" d="M11.664,47.152c-0.82,0-1.486-0.664-1.486-1.484v-22.91c0-0.818,0.666-1.484,1.486-1.484
		c0.818,0,1.484,0.666,1.484,1.484v22.91C13.148,46.488,12.482,47.152,11.664,47.152z"/>
	<path fill="#E77428" d="M46.516,48H4.588c-0.818,0-1.484-0.666-1.484-1.484c0-0.82,0.666-1.484,1.484-1.484h41.928
		c0.818,0,1.484,0.664,1.484,1.484C48,47.334,47.334,48,46.516,48z"/>
	<path fill="#00B99B" d="M11.664,0C5.232,0,0,5.191,0,11.574c0,6.381,5.232,11.572,11.664,11.572c6.43,0,11.662-5.191,11.662-11.572
		C23.326,5.191,18.094,0,11.664,0z"/>
	<path fill="#DD2B00" d="M11.664,3.373c-0.82,0-1.486,0.664-1.486,1.484v7.297c0,0.82,0.666,1.484,1.486,1.484h5.906
		c0.82,0,1.484-0.664,1.484-1.484s-0.664-1.484-1.484-1.484h-4.422V4.857C13.148,4.037,12.482,3.373,11.664,3.373z"/>
	<path fill="#E77428" d="M39.107,25.695c-0.521,0-0.941-0.42-0.941-0.939v-3.102h-10.08v3.102c0,0.52-0.42,0.939-0.94,0.939
		s-0.94-0.42-0.94-0.939v-4.041c0-0.521,0.42-0.941,0.94-0.941h11.962c0.521,0,0.941,0.42,0.941,0.941v4.041
		C40.049,25.275,39.629,25.695,39.107,25.695z"/>
	<path fill="#FFBE5C" d="M41.764,24.021H24.491c-2.53,0-4.589,2.045-4.589,4.559v9.744c0,2.512,2.059,4.557,4.589,4.557h17.272
		c2.528,0,4.588-2.045,4.588-4.557V28.58C46.352,26.066,44.292,24.021,41.764,24.021z"/>
	<rect x="40.32" y="24.021" fill="#FFD699" width="1.714" height="18.859"/>
	<rect x="24.218" y="24.021" fill="#FFD699" width="1.715" height="18.859"/>
</g>
</svg>
