<?xml version="1.0" encoding="utf-8"?>
<!-- Generator: Adobe Illustrator 16.0.0, SVG Export Plug-In . SVG Version: 6.00 Build 0)  -->
<!DOCTYPE svg PUBLIC "-//W3C//DTD SVG 1.1//EN" "http://www.w3.org/Graphics/SVG/1.1/DTD/svg11.dtd">
<svg version="1.1" id="Layer_1" xmlns="http://www.w3.org/2000/svg" xmlns:xlink="http://www.w3.org/1999/xlink" x="0px" y="0px"
	 width="48px" height="48px" viewBox="0 0 48 48" enable-background="new 0 0 48 48" xml:space="preserve">
<g>
	<path fill="#CFD0D1" d="M4.792,39.101c7.901,0,15.833-1.55,23.748-1.551c3.703-0.001,7.143,0.033,10.669-0.814
		c1.956-0.471,3.995-1.066,5.993-1.166c1.599-0.08,2.998-0.282,2.607-1.998c-0.432-1.898-1.352-3.635-1.716-5.469
		c-0.382-1.941-0.823-3.787-1.281-5.632c-1.057-4.265-1.13-8.715-1.432-13.235C40.969,10.37,10.672,12.44,7.05,12.916
		c-1.587,0.209-3.279,0.56-4.783,0.963c-1.481,0.396-2.361,0.423-2.095,2.247c0.371,2.534,1.155,5.187,1.662,7.753
		c0.517,2.609,0.896,5.039,1.653,7.576C4.164,33.718,5.038,36.771,4.792,39.101"/>
	<path fill="#DD2B00" d="M36.153,34.749c-2.919,0-5.291-2.373-5.291-5.292c0-2.917,2.372-5.29,5.291-5.29
		c2.918,0,5.29,2.373,5.29,5.29C41.443,32.376,39.071,34.749,36.153,34.749z M36.153,24.728c-2.609,0-4.73,2.122-4.73,4.729
		c0,2.608,2.121,4.73,4.73,4.73c2.606,0,4.729-2.122,4.729-4.73C40.882,26.85,38.76,24.728,36.153,24.728z M36.153,33.563
		c-2.265,0-4.105-1.842-4.105-4.105c0-2.263,1.841-4.104,4.105-4.104c2.264,0,4.104,1.841,4.104,4.104
		C40.257,31.721,38.417,33.563,36.153,33.563z M36.153,25.913c-1.955,0-3.545,1.59-3.545,3.544s1.59,3.544,3.545,3.544
		c1.953,0,3.543-1.59,3.543-3.544S38.106,25.913,36.153,25.913z"/>
	<path fill="#274D57" d="M5.934,14.992c-0.184,0-0.333,0.148-0.333,0.334v3.425c-0.133,0.126-0.418,0.358-0.737,0.358
		c-0.004,0-0.007,0-0.011-0.001c-0.211-0.003-0.42-0.118-0.619-0.344v-8.53c0.119-0.178,0.475-0.646,0.905-0.665
		c0.382-0.037,0.728,0.34,0.97,0.675v2.809c0.018-0.002,0.029-0.01,0.047-0.01c0.212-0.006,0.417-0.044,0.62-0.089v-2.815
		c0-0.066-0.021-0.133-0.058-0.188C6.226,9.231,5.681,8.863,5.112,8.902C4.206,8.941,3.634,9.931,3.609,9.974
		c-0.028,0.051-0.042,0.107-0.042,0.164v8.746c0,0.075,0.023,0.148,0.07,0.207c0.35,0.446,0.756,0.678,1.205,0.684
		c0.006,0,0.014,0.002,0.021,0.002c0.75,0,1.304-0.649,1.326-0.678c0.05-0.061,0.079-0.136,0.079-0.215v-3.559
		C6.269,15.14,6.117,14.992,5.934,14.992z"/>
	
		<rect x="9.049" y="15.705" transform="matrix(0.994 -0.1094 0.1094 0.994 -1.6066 2.7871)" fill="#FB4732" width="31.107" height="0.667"/>
	<path fill="#F7A93B" d="M23.847,29.021c-0.055,0.016-0.117,0.008-0.179-0.031c-0.246-0.15-0.479-0.332-0.708-0.508
		c-0.329-0.256-0.639-0.496-0.967-0.637c-1.127-0.483-2.314-0.969-3.355-1.146c-1.428-0.241-2.679,0.401-3.838,1.078
		c-0.465,0.271-0.89,0.608-1.299,0.934c-0.687,0.546-1.396,1.108-2.295,1.362c-0.002,0.001-0.004,0.002-0.004,0.002
		c-0.199,0.055-0.41,0.14-0.635,0.23c-0.546,0.217-1.164,0.464-1.77,0.343c-0.533-0.108-1.102-0.515-1.651-0.907
		c-0.296-0.209-0.575-0.408-0.831-0.549c-0.143-0.078-0.225-0.28-0.185-0.45c0.042-0.171,0.19-0.245,0.332-0.168
		c0.286,0.157,0.592,0.376,0.89,0.587c0.502,0.357,1.023,0.729,1.451,0.814c0.482,0.1,1.019-0.115,1.537-0.323
		c0.234-0.093,0.455-0.181,0.673-0.241c0.001-0.002,0.005-0.002,0.005-0.002c0.822-0.232,1.469-0.746,2.152-1.29
		c0.422-0.335,0.857-0.681,1.348-0.966c1.17-0.685,2.549-1.392,4.109-1.127c1.094,0.184,2.312,0.682,3.466,1.178
		c0.394,0.168,0.749,0.443,1.095,0.711c0.222,0.174,0.434,0.336,0.652,0.47c0.139,0.087,0.214,0.29,0.166,0.458
		C23.98,28.938,23.921,28.999,23.847,29.021z"/>
	<path fill="#F7A93B" d="M24.462,31.193c-0.057,0.016-0.121,0.007-0.181-0.031c-0.246-0.15-0.481-0.332-0.709-0.509
		c-0.327-0.254-0.638-0.496-0.964-0.636c-1.128-0.483-2.315-0.969-3.357-1.146c-1.425-0.24-2.678,0.401-3.838,1.078
		c-0.465,0.271-0.889,0.608-1.3,0.934c-0.685,0.545-1.396,1.109-2.292,1.362c0,0-0.004,0-0.007,0.002
		c-0.197,0.056-0.409,0.142-0.632,0.229c-0.549,0.219-1.168,0.465-1.771,0.343c-0.533-0.108-1.102-0.513-1.652-0.905
		c-0.295-0.211-0.574-0.409-0.83-0.55c-0.143-0.077-0.223-0.28-0.184-0.45c0.041-0.172,0.191-0.246,0.331-0.169
		c0.286,0.157,0.593,0.376,0.89,0.588c0.502,0.357,1.022,0.729,1.451,0.815c0.482,0.099,1.018-0.117,1.539-0.324
		c0.232-0.092,0.453-0.18,0.671-0.242c0,0,0.003-0.001,0.007-0.002c0.82-0.231,1.467-0.744,2.15-1.289
		c0.423-0.334,0.859-0.681,1.347-0.966c1.173-0.685,2.552-1.392,4.111-1.128c1.095,0.186,2.312,0.685,3.466,1.18
		c0.395,0.168,0.749,0.443,1.092,0.709c0.225,0.174,0.435,0.338,0.652,0.471c0.141,0.087,0.216,0.291,0.168,0.458
		C24.594,31.11,24.532,31.172,24.462,31.193z"/>
	<path fill="#F7A93B" d="M25.075,33.366c-0.057,0.015-0.119,0.007-0.18-0.031c-0.246-0.15-0.479-0.333-0.707-0.508
		c-0.329-0.254-0.641-0.495-0.967-0.637c-1.128-0.482-2.315-0.969-3.358-1.146c-1.425-0.239-2.677,0.402-3.838,1.079
		c-0.462,0.271-0.888,0.608-1.296,0.934c-0.688,0.545-1.396,1.108-2.296,1.362c-0.001,0-0.004,0.002-0.005,0.002
		c-0.198,0.055-0.408,0.14-0.633,0.229c-0.547,0.219-1.166,0.466-1.771,0.344c-0.532-0.108-1.102-0.514-1.652-0.906
		c-0.296-0.209-0.574-0.408-0.83-0.549c-0.142-0.078-0.224-0.28-0.184-0.45c0.042-0.171,0.189-0.246,0.332-0.169
		c0.285,0.158,0.592,0.375,0.889,0.588c0.503,0.357,1.023,0.727,1.451,0.815c0.482,0.099,1.02-0.117,1.539-0.324
		c0.234-0.093,0.455-0.182,0.672-0.243c0,0,0.004-0.001,0.006-0.001c0.82-0.231,1.467-0.745,2.152-1.289
		c0.422-0.335,0.857-0.681,1.346-0.967c1.172-0.684,2.551-1.39,4.11-1.127c1.095,0.186,2.313,0.683,3.466,1.179
		c0.393,0.169,0.75,0.443,1.094,0.711c0.223,0.174,0.434,0.338,0.652,0.471c0.14,0.085,0.214,0.291,0.166,0.457
		C25.208,33.284,25.146,33.345,25.075,33.366z"/>
	<path fill="#F7A93B" d="M25.688,35.538c-0.057,0.016-0.118,0.008-0.179-0.03c-0.246-0.149-0.482-0.333-0.708-0.509
		c-0.329-0.254-0.64-0.495-0.967-0.636c-1.125-0.481-2.313-0.97-3.354-1.146c-1.428-0.24-2.68,0.401-3.841,1.078
		c-0.463,0.271-0.888,0.607-1.298,0.934c-0.686,0.545-1.395,1.109-2.293,1.361c-0.002,0.001-0.002,0.001-0.005,0.001
		c-0.196,0.058-0.409,0.142-0.633,0.23c-0.548,0.218-1.168,0.466-1.772,0.344c-0.533-0.106-1.102-0.513-1.65-0.904
		c-0.297-0.211-0.574-0.41-0.831-0.551c-0.143-0.078-0.224-0.28-0.184-0.451c0.04-0.169,0.19-0.245,0.331-0.167
		c0.285,0.156,0.593,0.375,0.89,0.587c0.503,0.357,1.022,0.729,1.452,0.815c0.481,0.098,1.019-0.117,1.538-0.324
		c0.233-0.094,0.454-0.182,0.673-0.244c0.002,0,0.002,0,0.002,0c0.822-0.231,1.469-0.744,2.152-1.289
		c0.422-0.334,0.859-0.681,1.348-0.967c1.172-0.684,2.551-1.391,4.111-1.127c1.094,0.186,2.312,0.684,3.465,1.18
		c0.395,0.168,0.748,0.443,1.092,0.709c0.225,0.174,0.437,0.338,0.652,0.472c0.141,0.085,0.217,0.29,0.168,0.456
		C25.821,35.455,25.76,35.519,25.688,35.538z"/>
	<path fill="#274D57" d="M11.528,20.406l-1.629,0.182l-0.065-0.59l3.968-0.441l0.065,0.588l-1.638,0.184l0.53,4.773l-0.7,0.077
		L11.528,20.406z"/>
	<path fill="#274D57" d="M16.296,19.279l0.596,5.362L16.2,24.718l-0.598-5.363L16.296,19.279z"/>
	<path fill="#274D57" d="M23.03,23.781c-0.239,0.156-0.734,0.34-1.387,0.412c-1.513,0.168-2.756-0.66-2.951-2.418
		c-0.187-1.679,0.824-2.943,2.486-3.129c0.669-0.073,1.105,0.023,1.3,0.099l-0.104,0.583c-0.278-0.098-0.662-0.151-1.106-0.102
		c-1.258,0.139-2.004,1.035-1.848,2.443c0.146,1.313,0.996,2.07,2.301,1.926c0.422-0.047,0.841-0.182,1.104-0.349L23.03,23.781z"/>
	<path fill="#274D57" d="M24.524,18.363l0.693-0.076l0.287,2.586l0.023-0.003c0.121-0.223,0.242-0.43,0.357-0.62l1.415-2.195
		l0.859-0.096l-1.688,2.492l2.435,2.854l-0.818,0.092l-2.058-2.438l-0.445,0.646l0.229,2.045l-0.691,0.077L24.524,18.363z"/>
	<path fill="#274D57" d="M33.134,20.29l-2.084,0.231l0.214,1.932l2.323-0.257l0.064,0.581l-3.014,0.335l-0.597-5.362l2.896-0.322
		l0.064,0.581l-2.204,0.246l0.188,1.694l2.084-0.231L33.134,20.29z"/>
	<path fill="#274D57" d="M36.367,17.643l-1.629,0.181l-0.065-0.589l3.969-0.442l0.065,0.59l-1.639,0.182l0.532,4.773l-0.701,0.078
		L36.367,17.643z"/>
</g>
</svg>
