<?xml version="1.0" encoding="utf-8"?>
<!-- Generator: Adobe Illustrator 16.0.0, SVG Export Plug-In . SVG Version: 6.00 Build 0)  -->
<!DOCTYPE svg PUBLIC "-//W3C//DTD SVG 1.1//EN" "http://www.w3.org/Graphics/SVG/1.1/DTD/svg11.dtd">
<svg version="1.1" id="Layer_1" xmlns="http://www.w3.org/2000/svg" xmlns:xlink="http://www.w3.org/1999/xlink" x="0px" y="0px"
	 width="48px" height="48px" viewBox="0 0 48 48" enable-background="new 0 0 48 48" xml:space="preserve">
<g>
	<path fill="#009079" d="M38.279,24.671c-5.359,0-9.721,4.363-9.721,9.725c0,5.359,4.361,9.721,9.721,9.721
		c5.361,0,9.721-4.361,9.721-9.721C48,29.034,43.641,24.671,38.279,24.671z"/>
	<path fill="#009079" d="M9.727,24.671C4.362,24.671,0,29.034,0,34.396c0,5.359,4.362,9.721,9.727,9.721
		c5.36,0,9.72-4.361,9.72-9.721C19.446,29.034,15.087,24.671,9.727,24.671z"/>
	<path fill="#274D57" d="M23.237,39.507c-0.203,0-0.409-0.041-0.607-0.129c-0.754-0.336-1.096-1.217-0.765-1.973
		c0.144-0.34,3.176-7.832-6.86-15.168c-0.533-0.389-0.747-1.082-0.53-1.707c0.127-0.359,3.168-8.83,9.736-9.33
		c0.775-0.055,1.485,0.502,1.598,1.283c0.013,0.076,0.374,2.189,2.42,3.518c2.021,1.314,5.008,1.459,8.875,0.432
		c0.805-0.211,1.623,0.266,1.835,1.064c0.211,0.801-0.265,1.623-1.065,1.836c-4.758,1.262-8.574,0.975-11.34-0.857
		c-1.846-1.221-2.789-2.865-3.259-4.051c-2.88,0.949-4.77,4.391-5.554,6.109c10.909,8.637,6.932,17.986,6.891,18.082
		C24.361,39.175,23.813,39.507,23.237,39.507z"/>
	<path fill="#FFB241" d="M32.541,7.64c0,2.076-1.683,3.756-3.754,3.756c-2.08,0-3.763-1.68-3.763-3.756
		c0-2.074,1.683-3.756,3.763-3.756C30.858,3.884,32.541,5.565,32.541,7.64z"/>
	<path fill="#FB4732" d="M37.486,27.21c-0.716,0-1.349-0.514-1.475-1.242l-0.653-3.742c-0.142-0.816,0.404-1.594,1.22-1.736
		c0.814-0.143,1.593,0.404,1.735,1.221l0.653,3.742c0.142,0.816-0.404,1.594-1.221,1.736C37.659,27.204,37.571,27.21,37.486,27.21z"
		/>
</g>
</svg>
