<?xml version="1.0" encoding="utf-8"?>
<!-- Generator: Adobe Illustrator 16.0.0, SVG Export Plug-In . SVG Version: 6.00 Build 0)  -->
<!DOCTYPE svg PUBLIC "-//W3C//DTD SVG 1.1//EN" "http://www.w3.org/Graphics/SVG/1.1/DTD/svg11.dtd">
<svg version="1.1" id="Layer_1" xmlns="http://www.w3.org/2000/svg" xmlns:xlink="http://www.w3.org/1999/xlink" x="0px" y="0px"
	 width="48px" height="48px" viewBox="0 0 48 48" enable-background="new 0 0 48 48" xml:space="preserve">
<g>
	<rect x="24.512" y="25.324" fill="#FFD699" width="15.86" height="7.615"/>
	<path fill="#FB4732" d="M41.299,32.939c-0.449,0-0.85-0.314-0.945-0.77l-1.133-5.416c-0.121-0.57-0.768-1.09-1.355-1.09H27.02
		c-0.592,0-1.238,0.52-1.357,1.09l-1.133,5.416c-0.109,0.521-0.621,0.857-1.145,0.748c-0.522-0.109-0.858-0.621-0.748-1.145
		l1.131-5.416c0.311-1.473,1.737-2.627,3.252-2.627h10.846c1.511,0,2.938,1.154,3.247,2.627l1.135,5.416
		c0.108,0.523-0.227,1.035-0.748,1.145C41.432,32.932,41.363,32.939,41.299,32.939z"/>
	<path fill="#274D57" d="M24.543,44.746c-0.533,0-0.967-0.434-0.967-0.967v-2.172c0-0.535,0.434-0.967,0.967-0.967
		c0.535,0,0.969,0.432,0.969,0.967v2.172C25.512,44.313,25.078,44.746,24.543,44.746z"/>
	<path fill="#00B99B" d="M41.619,31.004H23.264c-1.736,0-3.148,1.354-3.148,3.018v5.652c0,1.438,1.055,2.643,2.461,2.945v-1.012
		c0-1.084,0.883-1.967,1.967-1.967c1.086,0,1.969,0.883,1.969,1.967v1.086h11.859v-1.086c0-1.084,0.883-1.967,1.967-1.967
		c1.086,0,1.967,0.883,1.967,1.967v1.012c1.406-0.301,2.463-1.506,2.463-2.945v-5.652C44.768,32.357,43.354,31.004,41.619,31.004z"
		/>
	<path fill="#274D57" d="M40.338,44.746c-0.534,0-0.967-0.434-0.967-0.967v-2.172c0-0.535,0.433-0.967,0.967-0.967
		s0.967,0.432,0.967,0.967v2.172C41.305,44.313,40.872,44.746,40.338,44.746z"/>
	<path fill="#274D57" d="M14.271,27.258c-0.8,0-1.45-0.432-1.45-0.967V2.539c0-0.535,0.65-0.967,1.45-0.967
		c0.802,0,1.451,0.432,1.451,0.967v23.752C15.722,26.826,15.072,27.258,14.271,27.258z"/>
	<path fill="#274D57" d="M47,5.078H1c-0.553,0-1-1.135-1-2.539S0.447,0,1,0h46c0.551,0,1,1.135,1,2.539S47.551,5.078,47,5.078z"/>
	<path fill="#F7A93B" d="M17.408,25.324H5.783c-0.534,0-0.969,0.432-0.969,0.967v20.742C4.814,47.566,5.249,48,5.783,48h11.625
		c0.533,0,0.967-0.434,0.967-0.967V26.291C18.375,25.756,17.941,25.324,17.408,25.324z M12.883,35.934H9.796
		c-0.534,0-0.968-0.432-0.968-0.967S9.262,34,9.796,34h3.087c0.533,0,0.967,0.432,0.967,0.967S13.416,35.934,12.883,35.934z
		 M12.883,31.875H9.796c-0.534,0-0.968-0.432-0.968-0.967s0.434-0.967,0.968-0.967h3.087c0.533,0,0.967,0.432,0.967,0.967
		S13.416,31.875,12.883,31.875z"/>
	<path fill="#DD2B00" d="M9.796,31.875h3.087c0.533,0,0.967-0.432,0.967-0.967s-0.434-0.967-0.967-0.967H9.796
		c-0.534,0-0.968,0.432-0.968,0.967S9.262,31.875,9.796,31.875z"/>
	<path fill="#DD2B00" d="M9.796,35.934h3.087c0.533,0,0.967-0.432,0.967-0.967S13.416,34,12.883,34H9.796
		c-0.534,0-0.968,0.432-0.968,0.967S9.262,35.934,9.796,35.934z"/>
	<path fill="#274D57" d="M47,48H1c-0.553,0-1-0.434-1-0.967c0-0.535,0.447-0.969,1-0.969h46c0.551,0,1,0.434,1,0.969
		C48,47.566,47.551,48,47,48z"/>
	<path fill="#DD2B00" d="M26.662,36.848c0-0.768-0.598-1.395-1.336-1.395c-0.737,0-1.334,0.627-1.334,1.395
		c0,0.773,0.597,1.396,1.334,1.396C26.064,38.244,26.662,37.621,26.662,36.848z"/>
	<path fill="#DD2B00" d="M40.891,36.848c0-0.768-0.598-1.395-1.334-1.395s-1.335,0.627-1.335,1.395c0,0.773,0.599,1.396,1.335,1.396
		S40.891,37.621,40.891,36.848z"/>
	<path fill="#FFD699" d="M34.764,37.814c0.535,0,0.969-0.432,0.969-0.967s-0.434-0.967-0.969-0.967h-4.645
		c-0.533,0-0.967,0.432-0.967,0.967s0.434,0.967,0.967,0.967H34.764z"/>
</g>
</svg>
