<?xml version="1.0" encoding="utf-8"?>
<!-- Generator: Adobe Illustrator 16.0.0, SVG Export Plug-In . SVG Version: 6.00 Build 0)  -->
<!DOCTYPE svg PUBLIC "-//W3C//DTD SVG 1.1//EN" "http://www.w3.org/Graphics/SVG/1.1/DTD/svg11.dtd">
<svg version="1.1" id="Layer_1" xmlns="http://www.w3.org/2000/svg" xmlns:xlink="http://www.w3.org/1999/xlink" x="0px" y="0px"
	 width="48px" height="48px" viewBox="0 0 48 48" enable-background="new 0 0 48 48" xml:space="preserve">
<g>
	<path fill="#E77428" d="M20.316,48c-0.684,0-1.279-0.504-1.378-1.199l-0.711-4.977c-0.108-0.762,0.422-1.469,1.185-1.578
		c0.767-0.104,1.467,0.422,1.578,1.184l0.709,4.977c0.108,0.764-0.42,1.469-1.183,1.578C20.449,47.994,20.382,48,20.316,48z"/>
	<path fill="#E77428" d="M30.481,48c-0.662,0-1.253-0.477-1.372-1.154l-1.121-6.367c-0.133-0.76,0.374-1.482,1.133-1.615
		c0.756-0.131,1.482,0.371,1.616,1.133l1.121,6.367c0.133,0.758-0.374,1.482-1.134,1.615C30.643,47.992,30.563,48,30.481,48z"/>
	<path fill="#E77428" d="M41.742,48H6.256c-0.771,0-1.395-0.625-1.395-1.395c0-0.771,0.624-1.396,1.395-1.396h35.486
		c0.771,0,1.396,0.625,1.396,1.396C43.139,47.375,42.514,48,41.742,48z"/>
	<path fill="#FFD699" d="M24.596,0.797c-0.073-0.506-0.545-0.861-1.052-0.787l-8.771,1.248c-0.245,0.035-0.465,0.166-0.613,0.363
		s-0.211,0.445-0.177,0.689l1.031,7.236c0.066,0.465,0.464,0.801,0.92,0.801c0.043,0,0.087-0.004,0.132-0.01l8.771-1.25
		c0.243-0.035,0.464-0.164,0.612-0.363c0.149-0.197,0.212-0.445,0.178-0.688L24.596,0.797z M20.096,6.676
		c-0.045,0.006-0.09,0.01-0.134,0.01c-0.454,0-0.853-0.334-0.918-0.797l-0.173-1.186c-0.071-0.51,0.281-0.98,0.79-1.055
		c0.505-0.074,0.978,0.281,1.052,0.789l0.173,1.186C20.958,6.131,20.605,6.602,20.096,6.676z"/>
	<path fill="#F7A93B" d="M19.661,3.648c-0.509,0.074-0.861,0.545-0.79,1.055l0.173,1.186c0.065,0.463,0.464,0.797,0.918,0.797
		c0.044,0,0.089-0.004,0.134-0.01c0.51-0.074,0.862-0.545,0.79-1.053l-0.173-1.186C20.639,3.93,20.166,3.574,19.661,3.648z"/>
	<path fill="#FFD699" d="M29.012,10.525c-0.034-0.244-0.164-0.465-0.361-0.613s-0.438-0.211-0.689-0.178l-14.542,2.074
		c-0.244,0.035-0.465,0.166-0.612,0.361c-0.149,0.199-0.212,0.447-0.178,0.691l4.073,28.566c0.067,0.465,0.464,0.801,0.919,0.801
		c0.045,0,0.088-0.004,0.135-0.01l14.54-2.074c0.507-0.072,0.861-0.543,0.788-1.051L29.012,10.525z M24.5,14.371
		c0.521-0.076,0.981,0.279,1.054,0.789l0.171,1.186c0.072,0.508-0.279,0.979-0.788,1.053c-0.045,0.006-0.089,0.01-0.133,0.01
		c-0.455,0-0.854-0.334-0.921-0.797l-0.17-1.188C23.639,14.916,23.992,14.443,24.5,14.371z M17.412,17.529l-0.17-1.184
		c-0.071-0.508,0.283-0.979,0.791-1.051c0.496-0.078,0.979,0.281,1.051,0.789l0.17,1.184c0.072,0.51-0.281,0.98-0.791,1.053
		c-0.042,0.006-0.086,0.008-0.13,0.008C17.878,18.328,17.479,17.994,17.412,17.529z M18.595,25.822l-0.169-1.186
		c-0.072-0.508,0.282-0.979,0.79-1.053c0.497-0.074,0.979,0.283,1.052,0.791l0.169,1.186c0.071,0.508-0.282,0.979-0.79,1.053
		c-0.044,0.004-0.088,0.008-0.131,0.008C19.059,26.621,18.662,26.285,18.595,25.822z M20.829,34.902
		c-0.044,0.008-0.088,0.01-0.131,0.01c-0.456,0-0.854-0.334-0.921-0.799l-0.169-1.184c-0.072-0.51,0.28-0.98,0.79-1.053
		c0.497-0.074,0.979,0.281,1.051,0.791l0.168,1.184C21.691,34.359,21.337,34.83,20.829,34.902z M21.267,20.887l-0.169-1.188
		c-0.073-0.506,0.281-0.979,0.789-1.051c0.496-0.074,0.979,0.281,1.052,0.791l0.17,1.186c0.071,0.506-0.282,0.979-0.792,1.051
		c-0.042,0.006-0.085,0.01-0.13,0.01C21.731,21.686,21.333,21.35,21.267,20.887z M22.448,29.176l-0.169-1.184
		c-0.072-0.508,0.282-0.979,0.79-1.051c0.501-0.074,0.979,0.281,1.052,0.789l0.169,1.186c0.072,0.508-0.282,0.979-0.79,1.051
		c-0.045,0.008-0.088,0.01-0.13,0.01C22.912,29.977,22.517,29.643,22.448,29.176z M24.684,38.26
		c-0.045,0.006-0.088,0.008-0.133,0.008c-0.455,0-0.853-0.336-0.92-0.799l-0.169-1.184c-0.073-0.508,0.28-0.979,0.79-1.051
		c0.51-0.076,0.979,0.281,1.052,0.787l0.169,1.184C25.546,37.715,25.191,38.188,24.684,38.26z M25.063,24.9l-0.167-1.186
		c-0.073-0.508,0.28-0.979,0.788-1.051c0.508-0.074,0.98,0.281,1.054,0.789l0.167,1.184c0.074,0.508-0.28,0.98-0.787,1.053
		c-0.047,0.006-0.089,0.01-0.133,0.01C25.528,25.699,25.132,25.363,25.063,24.9z M27.297,33.98c-0.043,0.008-0.086,0.01-0.131,0.01
		c-0.454,0-0.854-0.334-0.92-0.799l-0.17-1.186c-0.072-0.508,0.282-0.979,0.791-1.051c0.496-0.078,0.979,0.281,1.052,0.789
		l0.169,1.186C28.161,33.438,27.807,33.908,27.297,33.98z"/>
	<path fill="#F7A93B" d="M23.108,20.625l-0.17-1.186c-0.072-0.51-0.556-0.865-1.052-0.791c-0.508,0.072-0.862,0.545-0.789,1.051
		l0.169,1.188c0.066,0.463,0.465,0.799,0.92,0.799c0.045,0,0.088-0.004,0.13-0.01C22.826,21.604,23.18,21.131,23.108,20.625z"/>
	<path fill="#F7A93B" d="M24.804,17.408c0.044,0,0.088-0.004,0.133-0.01c0.509-0.074,0.86-0.545,0.788-1.053l-0.171-1.186
		c-0.072-0.51-0.533-0.865-1.054-0.789c-0.508,0.072-0.861,0.545-0.787,1.053l0.17,1.188C23.949,17.074,24.349,17.408,24.804,17.408
		z"/>
	<path fill="#F7A93B" d="M22.448,29.176c0.068,0.467,0.464,0.801,0.922,0.801c0.042,0,0.085-0.002,0.13-0.01
		c0.508-0.072,0.862-0.543,0.79-1.051l-0.169-1.186c-0.072-0.508-0.551-0.863-1.052-0.789c-0.508,0.072-0.862,0.543-0.79,1.051
		L22.448,29.176z"/>
	<path fill="#F7A93B" d="M23.631,37.469c0.067,0.463,0.465,0.799,0.92,0.799c0.045,0,0.088-0.002,0.133-0.008
		c0.508-0.072,0.862-0.545,0.789-1.055l-0.169-1.184c-0.072-0.506-0.542-0.863-1.052-0.787c-0.51,0.072-0.863,0.543-0.79,1.051
		L23.631,37.469z"/>
	<path fill="#F7A93B" d="M27.919,31.744c-0.073-0.508-0.556-0.867-1.052-0.789c-0.509,0.072-0.863,0.543-0.791,1.051l0.17,1.186
		c0.066,0.465,0.466,0.799,0.92,0.799c0.045,0,0.088-0.002,0.131-0.01c0.51-0.072,0.864-0.543,0.791-1.051L27.919,31.744z"/>
	<path fill="#F7A93B" d="M18.595,25.822c0.067,0.463,0.464,0.799,0.921,0.799c0.043,0,0.087-0.004,0.131-0.008
		c0.508-0.074,0.861-0.545,0.79-1.053l-0.169-1.186c-0.073-0.508-0.555-0.865-1.052-0.791c-0.508,0.074-0.862,0.545-0.79,1.053
		L18.595,25.822z"/>
	<path fill="#F7A93B" d="M19.777,34.113c0.067,0.465,0.465,0.799,0.921,0.799c0.043,0,0.087-0.002,0.131-0.01
		c0.508-0.072,0.862-0.543,0.788-1.051l-0.168-1.184c-0.071-0.51-0.554-0.865-1.051-0.791c-0.51,0.072-0.862,0.543-0.79,1.053
		L19.777,34.113z"/>
	<path fill="#F7A93B" d="M17.412,17.529c0.067,0.465,0.466,0.799,0.921,0.799c0.044,0,0.088-0.002,0.13-0.008
		c0.51-0.072,0.863-0.543,0.791-1.053l-0.17-1.184c-0.072-0.508-0.555-0.867-1.051-0.789c-0.508,0.072-0.862,0.543-0.791,1.051
		L17.412,17.529z"/>
	<path fill="#F7A93B" d="M26.117,25.689c0.507-0.072,0.861-0.545,0.787-1.053l-0.167-1.184c-0.073-0.508-0.546-0.863-1.054-0.789
		c-0.508,0.072-0.861,0.543-0.788,1.051l0.167,1.186c0.069,0.463,0.466,0.799,0.922,0.799C26.028,25.699,26.07,25.695,26.117,25.689
		z"/>
</g>
</svg>
