<?xml version="1.0" encoding="utf-8"?>
<!-- Generator: Adobe Illustrator 16.0.0, SVG Export Plug-In . SVG Version: 6.00 Build 0)  -->
<!DOCTYPE svg PUBLIC "-//W3C//DTD SVG 1.1//EN" "http://www.w3.org/Graphics/SVG/1.1/DTD/svg11.dtd">
<svg version="1.1" id="Layer_1" xmlns="http://www.w3.org/2000/svg" xmlns:xlink="http://www.w3.org/1999/xlink" x="0px" y="0px"
	 width="48px" height="48px" viewBox="0 0 48 48" enable-background="new 0 0 48 48" xml:space="preserve">
<g>
	<path fill="#FAD197" d="M20.399,41.971v-3.416c0-0.564-0.447-1.021-1-1.021s-1,0.457-1,1.021v3.416c0,0.564,0.447,1.02,1,1.02
		S20.399,42.535,20.399,41.971z"/>
	<path fill="#FAD197" d="M26.629,41.971v-3.416c0-0.564-0.448-1.021-1-1.021s-1,0.457-1,1.021v3.416c0,0.564,0.448,1.02,1,1.02
		S26.629,42.535,26.629,41.971z"/>
	<path fill="#F7A93B" d="M30.022,32.52H15.004c-2.296,0-4.163,2.035-4.163,4.539v6.402c0,2.502,1.867,4.539,4.163,4.539h15.019
		c2.295,0,4.162-2.037,4.162-4.539v-6.402C34.185,34.555,32.317,32.52,30.022,32.52z M20.399,41.971c0,0.564-0.447,1.02-1,1.02
		s-1-0.455-1-1.02v-3.416c0-0.564,0.447-1.021,1-1.021s1,0.457,1,1.021V41.971z M26.629,41.971c0,0.564-0.448,1.02-1,1.02
		s-1-0.455-1-1.02v-3.416c0-0.564,0.448-1.021,1-1.021s1,0.457,1,1.021V41.971z"/>
	<path fill="#F7A93B" d="M21.751,34.561c-0.553,0-1-0.457-1-1.02v-4.506c0-0.564,0.447-1.021,1-1.021s1,0.457,1,1.021v4.506
		C22.751,34.104,22.304,34.561,21.751,34.561z"/>
	<path fill="#00B99B" d="M47.451,15.697l-5.776-2.98V1.021c0-0.564-0.447-1.021-1-1.021h-3.737c-0.37,0-0.711,0.211-0.884,0.545
		l-3.492,6.748c-3.473-1.504-7.689-2.324-11.994-2.324C9.034,4.969,0,10.479,0,17.512c0,7.035,9.034,12.545,20.567,12.545
		c10.309,0,18.865-4.549,20.332-10.682l6.365-1.785c0.398-0.111,0.689-0.459,0.73-0.881C48.036,16.289,47.82,15.887,47.451,15.697z"
		/>
	<ellipse fill="#DD2B00" cx="7.32" cy="15.158" rx="1.568" ry="2.037"/>
	<ellipse fill="#DD2B00" cx="13.592" cy="15.158" rx="1.568" ry="2.037"/>
	<ellipse fill="#DD2B00" cx="19.864" cy="15.158" rx="1.568" ry="2.037"/>
	<ellipse fill="#DD2B00" cx="26.135" cy="15.158" rx="1.568" ry="2.037"/>
	<ellipse fill="#DD2B00" cx="32.408" cy="15.158" rx="1.568" ry="2.037"/>
</g>
</svg>
