<?xml version="1.0" encoding="utf-8"?>
<!-- Generator: Adobe Illustrator 16.0.0, SVG Export Plug-In . SVG Version: 6.00 Build 0)  -->
<!DOCTYPE svg PUBLIC "-//W3C//DTD SVG 1.1//EN" "http://www.w3.org/Graphics/SVG/1.1/DTD/svg11.dtd">
<svg version="1.1" id="Layer_1" xmlns="http://www.w3.org/2000/svg" xmlns:xlink="http://www.w3.org/1999/xlink" x="0px" y="0px"
	 width="48px" height="48px" viewBox="0 0 48 48" enable-background="new 0 0 48 48" xml:space="preserve">
<g>
	<path fill="#274D57" d="M32.637,9.326c-0.828,0-1.5-0.665-1.5-1.485V2.969H16.863v4.872c0,0.82-0.67,1.485-1.5,1.485
		c-0.828,0-1.5-0.665-1.5-1.485V1.484c0-0.82,0.672-1.484,1.5-1.484h17.273c0.828,0,1.5,0.664,1.5,1.484v6.356
		C34.137,8.661,33.465,9.326,32.637,9.326z"/>
	<path fill="#E8B945" d="M37.639,7.058H10.361c0.004,0.036,0.021,0.069,0.021,0.106v40.728c0,0.038-0.018,0.07-0.021,0.108h27.277
		c-0.004-0.038-0.02-0.07-0.02-0.108V7.164C37.619,7.127,37.635,7.094,37.639,7.058z"/>
	<path fill="#E8B945" d="M43.773,7.058h-4.176c0.004,0.036,0.021,0.069,0.021,0.106v40.728c0,0.038-0.018,0.07-0.021,0.108h4.176
		C46.104,48,48,45.975,48,43.484V11.57C48,9.082,46.104,7.058,43.773,7.058z"/>
	<path fill="#E8B945" d="M8.383,47.892V7.164c0-0.037,0.016-0.07,0.02-0.106H4.229C1.896,7.058,0,9.082,0,11.57v31.914
		C0,45.975,1.896,48,4.229,48h4.174C8.398,47.962,8.383,47.93,8.383,47.892z"/>
	<path fill="#E77428" d="M7.543,7.058v40.833c0,0.038,0.029,0.071,0.037,0.109h3.523c0.006-0.038,0.037-0.071,0.037-0.109V7.058
		H7.543z"/>
	<path fill="#E77428" d="M36.836,7.058v40.833c0,0.038,0.031,0.071,0.037,0.109h3.521c0.008-0.038,0.037-0.071,0.037-0.109V7.058
		H36.836z"/>
</g>
</svg>
