<?xml version="1.0" encoding="utf-8"?>
<!-- Generator: Adobe Illustrator 16.0.0, SVG Export Plug-In . SVG Version: 6.00 Build 0)  -->
<!DOCTYPE svg PUBLIC "-//W3C//DTD SVG 1.1//EN" "http://www.w3.org/Graphics/SVG/1.1/DTD/svg11.dtd">
<svg version="1.1" id="Layer_1" xmlns="http://www.w3.org/2000/svg" xmlns:xlink="http://www.w3.org/1999/xlink" x="0px" y="0px"
	 width="48px" height="48px" viewBox="0 0 48 48" enable-background="new 0 0 48 48" xml:space="preserve">
<g>
	<ellipse fill="#FFD699" cx="19.297" cy="22.763" rx="14.817" ry="8.836"/>
	<path fill="#009079" d="M30.159,43.883H14.721c-0.929,0-1.68-0.752-1.68-1.678c0-0.928,0.751-1.682,1.68-1.682h15.438
		c0.926,0,1.678,0.754,1.678,1.682C31.837,43.131,31.085,43.883,30.159,43.883z"/>
	<path fill="#009079" d="M24.12,48v-4.932c0-0.928-0.752-1.682-1.68-1.682s-1.68,0.754-1.68,1.682V48H24.12z"/>
	<path fill="#E77428" d="M12.677,32.254c-0.144,0-0.289-0.02-0.434-0.057c-5.977-1.594-9.688-5.051-9.688-9.022
		c0-5.553,7.328-9.902,16.684-9.902c9.355,0,16.684,4.35,16.684,9.902c0,2.172-1.102,4.215-3.186,5.905
		c-0.719,0.582-1.779,0.473-2.361-0.248c-0.584-0.721-0.475-1.779,0.246-2.363c0.887-0.717,1.941-1.871,1.941-3.293
		c0-3.094-5.473-6.543-13.324-6.543c-7.852,0-13.325,3.449-13.325,6.543c0,2.307,2.891,4.629,7.194,5.776
		c0.896,0.238,1.43,1.16,1.189,2.057C14.099,31.758,13.419,32.254,12.677,32.254z"/>
	<path fill="#E77428" d="M34.147,25.768c-0.221,0-0.443-0.043-0.66-0.135c-0.852-0.367-1.246-1.354-0.881-2.208L42.22,1.019
		c0.367-0.854,1.352-1.248,2.207-0.883c0.852,0.365,1.248,1.354,0.883,2.207L35.692,24.75C35.421,25.387,34.8,25.768,34.147,25.768z
		"/>
	<path fill="#274D57" d="M22.44,19.253c-5.709,0-10.355,4.645-10.355,10.352c0,0.697,0.071,1.4,0.211,2.084
		c0.981,4.793,5.248,8.271,10.144,8.271c5.709,0,10.354-4.645,10.354-10.355C32.794,23.898,28.149,19.253,22.44,19.253z"/>
</g>
</svg>
