<?xml version="1.0" encoding="utf-8"?>
<!-- Generator: Adobe Illustrator 16.0.0, SVG Export Plug-In . SVG Version: 6.00 Build 0)  -->
<!DOCTYPE svg PUBLIC "-//W3C//DTD SVG 1.1//EN" "http://www.w3.org/Graphics/SVG/1.1/DTD/svg11.dtd">
<svg version="1.1" id="Layer_1" xmlns="http://www.w3.org/2000/svg" xmlns:xlink="http://www.w3.org/1999/xlink" x="0px" y="0px"
	 width="48px" height="48px" viewBox="0 0 48 48" enable-background="new 0 0 48 48" xml:space="preserve">
<g>
	<path fill="#FFBE5C" d="M27.808,47.912c-0.752-0.158-1.426-0.537-1.949-1.105c-0.201-0.217-0.369-0.459-0.51-0.717
		c-0.684-0.975-1-2.188-0.869-3.416l2.172-20.152c0.301-2.789,2.717-4.975,5.5-4.975h3.652L34.552,5.922
		C34.2,2.656,31.276,0,28.036,0h-17.47c-3.24,0-6.162,2.656-6.515,5.922l-3.87,35.943c-0.177,1.641,0.334,3.244,1.399,4.402
		C2.609,47.385,4.04,48,5.61,48h22.512C28.017,47.973,27.911,47.947,27.808,47.912z"/>
	<path fill="#00B99B" d="M47.831,42.245l-2.17-20.152c-0.215-2.004-2.014-3.635-4.01-3.635h-6.016h-3.777
		c-1.996,0-3.795,1.631-4.01,3.635l-2.17,20.152c-0.109,1.018,0.209,2.018,0.875,2.74c0.645,0.699,1.541,1.086,2.525,1.086h3.977
		h11.375c0.984,0,1.881-0.387,2.527-1.086C47.622,44.263,47.942,43.263,47.831,42.245z"/>
	<path fill="#F7A93B" d="M25.448,5.735c0,4.797-2.891,8.699-6.441,8.699c-3.551,0-6.441-3.902-6.441-8.699c0-0.553-0.458-1-1.022-1
		c-0.565,0-1.022,0.447-1.022,1c0,5.898,3.807,10.699,8.486,10.699c4.68,0,8.486-4.801,8.486-10.699c0-0.553-0.457-1-1.023-1
		C25.905,4.735,25.448,5.183,25.448,5.735z"/>
	<path fill="#009079" d="M40.323,21.396c0,2.691-1.635,4.965-3.568,4.965s-3.566-2.273-3.566-4.965c0-0.553-0.459-1-1.023-1
		s-1.021,0.447-1.021,1c0,3.84,2.516,6.965,5.611,6.965s5.613-3.125,5.613-6.965c0-0.553-0.459-1-1.023-1
		S40.323,20.843,40.323,21.396z"/>
</g>
</svg>
