<?xml version="1.0" encoding="utf-8"?>
<!-- Generator: Adobe Illustrator 16.0.0, SVG Export Plug-In . SVG Version: 6.00 Build 0)  -->
<!DOCTYPE svg PUBLIC "-//W3C//DTD SVG 1.1//EN" "http://www.w3.org/Graphics/SVG/1.1/DTD/svg11.dtd">
<svg version="1.1" id="Layer_1" xmlns="http://www.w3.org/2000/svg" xmlns:xlink="http://www.w3.org/1999/xlink" x="0px" y="0px"
	 width="48px" height="48px" viewBox="0 0 48 48" enable-background="new 0 0 48 48" xml:space="preserve">
<g>
	<path fill="#00718D" d="M14.087,47.433c-0.713,0.713-1.832,0.76-2.487,0.105c-0.654-0.656-0.607-1.775,0.105-2.488l3.096-3.098
		c0.713-0.713,1.833-0.76,2.488-0.104c0.656,0.654,0.607,1.773-0.105,2.486L14.087,47.433z"/>
	<path fill="#00718D" d="M33.912,47.433c0.713,0.713,1.832,0.76,2.488,0.105c0.654-0.656,0.607-1.775-0.105-2.488l-3.098-3.098
		c-0.713-0.713-1.832-0.76-2.486-0.104c-0.656,0.654-0.609,1.773,0.105,2.486L33.912,47.433z"/>
	<circle fill="#F7A93B" cx="24" cy="26.313" r="19.252"/>
	<circle fill="#FFD699" cx="24" cy="26.313" r="17.016"/>
	<circle fill="#FFFFFF" cx="24" cy="26.313" r="15.967"/>
	<path fill="#00718D" d="M20.998,4.315C18.474,0.224,13.155-1.216,8.89,1.12C4.623,3.456,2.972,8.712,5.059,13.044L20.998,4.315z"/>
	<path fill="#00718D" d="M27,4.315c2.525-4.092,7.844-5.531,12.109-3.195c4.268,2.336,5.918,7.592,3.832,11.924L27,4.315z"/>
	<rect x="23.71" y="10.288" fill="#274D57" width="0.578" height="0.777"/>
	<rect x="23.71" y="41.563" fill="#274D57" width="0.578" height="0.777"/>
	<polygon fill="#506E76" points="23.986,24.491 23.281,24.319 22.886,24.882 27.736,37.8 28.473,38.81 28.404,37.562 	"/>
	<polygon fill="#506E76" points="22.898,27.399 23.298,28.007 23.972,27.86 26.836,20.597 26.982,19.356 26.186,20.317 	"/>
	<rect x="39.248" y="26.024" fill="#274D57" width="0.777" height="0.578"/>
	<rect x="7.975" y="26.024" fill="#274D57" width="0.777" height="0.578"/>
	<polygon fill="#DD2B00" points="25.729,27.079 12.429,19.581 11.296,19.151 12.25,19.899 25.549,27.396 25.461,27.552 
		27.502,28.702 27.855,28.073 25.814,26.923 	"/>
	<circle fill="#274D57" cx="24" cy="26.313" r="0.68"/>
</g>
</svg>
