<?xml version="1.0" encoding="utf-8"?>
<!-- Generator: Adobe Illustrator 16.0.0, SVG Export Plug-In . SVG Version: 6.00 Build 0)  -->
<!DOCTYPE svg PUBLIC "-//W3C//DTD SVG 1.1//EN" "http://www.w3.org/Graphics/SVG/1.1/DTD/svg11.dtd">
<svg version="1.1" id="Layer_1" xmlns="http://www.w3.org/2000/svg" xmlns:xlink="http://www.w3.org/1999/xlink" x="0px" y="0px"
	 width="48px" height="48px" viewBox="0 0 48 48" enable-background="new 0 0 48 48" xml:space="preserve">
<g>
	<path fill="#274D57" d="M16.159,48c-0.553,0-1-0.406-1-0.908v-3.908c0-0.502,0.447-0.908,1-0.908c0.551,0,0.997,0.406,0.997,0.908
		v3.908C17.156,47.594,16.709,48,16.159,48z"/>
	<path fill="#274D57" d="M31.84,48c-0.551,0-0.998-0.406-0.998-0.908v-3.908c0-0.502,0.447-0.908,0.998-0.908
		c0.553,0,1,0.406,1,0.908v3.908C32.84,47.594,32.393,48,31.84,48z"/>
	<path fill="#274D57" d="M18.784,13.447V1.854h10.16v11.594h1.471V1.291c0-0.553-0.447-1-0.998-1H18.313
		c-0.553,0-0.999,0.447-0.999,1v12.156H18.784z"/>
	<path fill="#FFBE5C" d="M30.973,12.992H17.028c-3.059,0-5.548,2.49-5.548,5.547v20.188c0,2.008,1.077,3.766,2.681,4.738v-0.281
		c0-1.051,0.896-1.906,1.998-1.906c1.101,0,1.996,0.855,1.996,1.906v1.09h11.689v-1.09c0-1.051,0.895-1.906,1.996-1.906
		s1.998,0.855,1.998,1.906v0.283c1.604-0.975,2.682-2.732,2.682-4.74V18.539C36.52,15.482,34.031,12.992,30.973,12.992z
		 M28.51,24.928h-9.021c-0.826,0-1.498-0.672-1.498-1.498c0-0.828,0.672-1.498,1.498-1.498h9.021c0.826,0,1.498,0.67,1.498,1.498
		C30.008,24.256,29.336,24.928,28.51,24.928z"/>
	<path fill="#274D57" d="M19.489,21.932c-0.826,0-1.498,0.67-1.498,1.498c0,0.826,0.672,1.498,1.498,1.498h9.021
		c0.826,0,1.498-0.672,1.498-1.498c0-0.828-0.672-1.498-1.498-1.498H19.489z"/>
	<rect x="19.417" fill="#00718D" width="8.891" height="2.107"/>
</g>
</svg>
