<?xml version="1.0" encoding="utf-8"?>
<!-- Generator: Adobe Illustrator 16.0.0, SVG Export Plug-In . SVG Version: 6.00 Build 0)  -->
<!DOCTYPE svg PUBLIC "-//W3C//DTD SVG 1.1//EN" "http://www.w3.org/Graphics/SVG/1.1/DTD/svg11.dtd">
<svg version="1.1" id="Layer_1" xmlns="http://www.w3.org/2000/svg" xmlns:xlink="http://www.w3.org/1999/xlink" x="0px" y="0px"
	 width="48px" height="48px" viewBox="0 0 48 48" enable-background="new 0 0 48 48" xml:space="preserve">
<g>
	<path fill="#009079" d="M43.484,38.122l-2.387-0.994c0.87-2.088,5.199-15.793,3.437-26.174c-0.452-2.666-2.578-4.916-4.414-6.408
		H0.462V1.962h40.555l0.35,0.271c2.266,1.766,5.096,4.637,5.715,8.287C48.972,21.646,44.452,35.798,43.484,38.122z"/>
	<circle fill="#274D57" cx="41.593" cy="37.897" r="3.062"/>
	<circle fill="#00B99B" cx="41.594" cy="37.897" r="1.868"/>
	<rect x="26.476" y="0.54" fill="#274D57" width="3.339" height="7.215"/>
	<rect x="7.271" y="0.54" fill="#274D57" width="3.338" height="7.215"/>
	<path fill="#FFBE5C" d="M36.624,38.688c0,4.824-3.816,8.771-8.479,8.771s-8.479-3.947-8.479-8.771V16.31
		c0-4.826,3.816-8.771,8.479-8.771s8.479,3.945,8.479,8.771V38.688z"/>
	<rect x="19.667" y="17.63" fill="#274D57" width="16.957" height="19.738"/>
	<path fill="#FFBE5C" d="M17.418,37.94c0,4.824-3.814,8.773-8.479,8.773c-4.661,0-8.478-3.949-8.478-8.773V15.562
		c0-4.824,3.816-8.771,8.478-8.771c4.664,0,8.479,3.947,8.479,8.771V37.94z"/>
	<rect x="0.462" y="17.63" fill="#274D57" width="16.956" height="19.738"/>
</g>
</svg>
