<?xml version="1.0" encoding="utf-8"?>
<!-- Generator: Adobe Illustrator 16.0.0, SVG Export Plug-In . SVG Version: 6.00 Build 0)  -->
<!DOCTYPE svg PUBLIC "-//W3C//DTD SVG 1.1//EN" "http://www.w3.org/Graphics/SVG/1.1/DTD/svg11.dtd">
<svg version="1.1" id="Layer_1" xmlns="http://www.w3.org/2000/svg" xmlns:xlink="http://www.w3.org/1999/xlink" x="0px" y="0px"
	 width="48px" height="48px" viewBox="0 0 48 48" enable-background="new 0 0 48 48" xml:space="preserve">
<g>
	<path fill="#DD2B00" d="M43.621,43.079c0,2.453-2.006,4.459-4.459,4.459H10.759c-2.452,0-4.459-2.006-4.459-4.459V4.921
		c0-2.451,2.007-4.459,4.459-4.459h28.403c2.453,0,4.459,2.008,4.459,4.459V43.079z"/>
	<path fill="#FFD699" d="M28.916,30.808c-4.564-3.309-7.974-7.881-9.855-13.223c-0.037-0.104-0.119-0.182-0.225-0.215
		c-0.104-0.029-0.217-0.01-0.306,0.055l-0.89,0.676c-0.827,0.625-1.125,2-0.669,3.064c1.765,4.119,4.511,7.805,7.944,10.658
		c0.472,0.395,1.115,0.619,1.767,0.619c0.521,0,0.999-0.145,1.348-0.41l0.891-0.676c0.087-0.064,0.138-0.168,0.138-0.275
		C29.057,30.974,29.004,30.872,28.916,30.808z"/>
	<path fill="#FFD699" d="M21.763,15.786c-0.034-0.104-0.118-0.182-0.223-0.215c-0.104-0.031-0.219-0.01-0.306,0.057l-1.736,1.314
		c-0.119,0.09-0.166,0.246-0.118,0.387c0.513,1.447,1.145,2.863,1.882,4.211c0.049,0.088,0.131,0.148,0.229,0.17
		c0.022,0.006,0.047,0.008,0.072,0.008c0.072,0,0.146-0.023,0.205-0.068l1.737-1.314c0.136-0.104,0.177-0.289,0.095-0.438
		C22.88,18.585,22.263,17.202,21.763,15.786z"/>
	<path fill="#FFD699" d="M31.387,28.745c-1.211-0.879-2.357-1.861-3.408-2.922c-0.12-0.121-0.312-0.135-0.449-0.033l-1.738,1.316
		c-0.077,0.059-0.125,0.148-0.133,0.248c-0.008,0.098,0.028,0.195,0.098,0.264c1.08,1.092,2.256,2.098,3.49,2.994
		c0.061,0.043,0.13,0.066,0.2,0.066c0.073,0,0.146-0.023,0.205-0.07l1.741-1.314c0.086-0.064,0.134-0.168,0.134-0.275
		C31.525,28.909,31.475,28.808,31.387,28.745z"/>
	<path fill="#FFD699" d="M30.604,32.024c-0.391,0-0.778-0.086-1.161-0.17c-0.28-0.063-0.57-0.127-0.866-0.158
		c-0.188-0.02-0.322-0.189-0.303-0.377c0.021-0.188,0.19-0.324,0.376-0.303c0.333,0.035,0.642,0.105,0.939,0.17
		c0.864,0.191,1.485,0.328,2.14-0.367c0.543-0.576,0.527-1.77,0.173-2.523c-0.028-0.064-0.065-0.139-0.103-0.217
		c-0.363-0.736-1.041-2.107-0.124-2.803c0.171-0.127,0.355-0.188,0.507-0.236c0.276-0.09,0.306-0.1,0.297-0.342
		c-0.014-0.336-0.463-0.688-0.859-1c-0.286-0.225-0.555-0.434-0.736-0.676c-0.112-0.15-0.083-0.365,0.067-0.479
		c0.151-0.115,0.364-0.084,0.479,0.066c0.128,0.17,0.363,0.355,0.612,0.551c0.513,0.402,1.096,0.859,1.121,1.51
		c0.029,0.76-0.471,0.922-0.77,1.02c-0.118,0.037-0.227,0.072-0.306,0.133c-0.465,0.352,0.047,1.395,0.323,1.953
		c0.04,0.084,0.077,0.162,0.111,0.229c0.457,0.975,0.473,2.469-0.295,3.283C31.691,31.858,31.146,32.024,30.604,32.024z"/>
	<circle fill="#E77428" cx="8.112" cy="43.681" r="0.629"/>
	<path fill="#274D57" d="M8.111,43.524c-0.125,0-0.225,0.102-0.225,0.227c0,0.365-0.629,0.775-1.529,0.775
		c-0.899,0-1.526-0.41-1.526-0.775c0-0.359,0.601-0.758,1.469-0.775v-0.451c-1.082,0.02-1.921,0.549-1.921,1.227
		c0,0.688,0.869,1.227,1.979,1.227c1.11,0,1.979-0.539,1.979-1.227C8.337,43.626,8.236,43.524,8.111,43.524z"/>
	<circle fill="#E77428" cx="8.112" cy="40.39" r="0.629"/>
	<path fill="#274D57" d="M8.111,40.233c-0.125,0-0.225,0.1-0.225,0.225c0,0.367-0.629,0.775-1.529,0.775
		c-0.899,0-1.526-0.408-1.526-0.775c0-0.359,0.601-0.756,1.469-0.773v-0.451c-1.082,0.018-1.921,0.549-1.921,1.225
		c0,0.689,0.869,1.229,1.979,1.229c1.11,0,1.979-0.539,1.979-1.229C8.337,40.333,8.236,40.233,8.111,40.233z"/>
	<circle fill="#E77428" cx="8.112" cy="37.097" r="0.629"/>
	<path fill="#274D57" d="M8.111,36.94c-0.125,0-0.225,0.102-0.225,0.227c0,0.367-0.629,0.775-1.529,0.775
		c-0.899,0-1.526-0.408-1.526-0.775c0-0.361,0.601-0.756,1.469-0.773v-0.451c-1.082,0.018-1.921,0.547-1.921,1.225
		c0,0.688,0.869,1.227,1.979,1.227c1.11,0,1.979-0.539,1.979-1.227C8.337,37.042,8.236,36.94,8.111,36.94z"/>
	<circle fill="#E77428" cx="8.112" cy="33.806" r="0.629"/>
	<path fill="#274D57" d="M8.111,33.649c-0.125,0-0.225,0.1-0.225,0.225c0,0.367-0.629,0.777-1.529,0.777
		c-0.899,0-1.526-0.41-1.526-0.777c0-0.357,0.601-0.756,1.469-0.773v-0.451c-1.082,0.02-1.921,0.549-1.921,1.225
		c0,0.689,0.869,1.229,1.979,1.229c1.11,0,1.979-0.539,1.979-1.229C8.337,33.749,8.236,33.649,8.111,33.649z"/>
	<circle fill="#E77428" cx="8.112" cy="30.513" r="0.629"/>
	<path fill="#274D57" d="M8.111,30.356c-0.125,0-0.225,0.102-0.225,0.227c0,0.367-0.629,0.775-1.529,0.775
		c-0.899,0-1.526-0.408-1.526-0.775c0-0.359,0.601-0.756,1.469-0.773v-0.453c-1.082,0.02-1.921,0.549-1.921,1.227
		c0,0.689,0.869,1.229,1.979,1.229c1.11,0,1.979-0.539,1.979-1.229C8.337,30.458,8.236,30.356,8.111,30.356z"/>
	<circle fill="#E77428" cx="8.112" cy="27.222" r="0.629"/>
	<path fill="#274D57" d="M8.111,27.063c-0.125,0-0.225,0.102-0.225,0.227c0,0.367-0.629,0.777-1.529,0.777
		c-0.899,0-1.526-0.41-1.526-0.777c0-0.359,0.601-0.756,1.469-0.773v-0.451c-1.082,0.02-1.921,0.549-1.921,1.225
		c0,0.689,0.869,1.229,1.979,1.229c1.11,0,1.979-0.539,1.979-1.229C8.337,27.165,8.236,27.063,8.111,27.063z"/>
	<circle fill="#E77428" cx="8.112" cy="23.929" r="0.629"/>
	<path fill="#274D57" d="M8.111,23.772c-0.125,0-0.225,0.102-0.225,0.227c0,0.367-0.629,0.775-1.529,0.775
		c-0.899,0-1.526-0.408-1.526-0.775c0-0.359,0.601-0.756,1.469-0.775v-0.449c-1.082,0.018-1.921,0.547-1.921,1.225
		c0,0.688,0.869,1.229,1.979,1.229c1.11,0,1.979-0.541,1.979-1.229C8.337,23.874,8.236,23.772,8.111,23.772z"/>
	<circle fill="#E77428" cx="8.112" cy="20.638" r="0.629"/>
	<path fill="#274D57" d="M8.111,20.481c-0.125,0-0.225,0.102-0.225,0.225c0,0.367-0.629,0.777-1.529,0.777
		c-0.899,0-1.526-0.41-1.526-0.777c0-0.359,0.601-0.756,1.469-0.773v-0.451c-1.082,0.02-1.921,0.549-1.921,1.225
		c0,0.689,0.869,1.229,1.979,1.229c1.11,0,1.979-0.539,1.979-1.229C8.337,20.583,8.236,20.481,8.111,20.481z"/>
	<circle fill="#E77428" cx="8.112" cy="17.347" r="0.629"/>
	<path fill="#274D57" d="M8.111,17.188c-0.125,0-0.225,0.102-0.225,0.227c0,0.367-0.629,0.777-1.529,0.777
		c-0.899,0-1.526-0.41-1.526-0.777c0-0.359,0.601-0.756,1.469-0.773V16.19c-1.082,0.018-1.921,0.549-1.921,1.225
		c0,0.688,0.869,1.229,1.979,1.229c1.11,0,1.979-0.541,1.979-1.229C8.337,17.29,8.236,17.188,8.111,17.188z"/>
	<circle fill="#E77428" cx="8.112" cy="14.054" r="0.629"/>
	<path fill="#274D57" d="M8.111,13.897c-0.125,0-0.225,0.102-0.225,0.225c0,0.367-0.629,0.777-1.529,0.777
		c-0.899,0-1.526-0.41-1.526-0.777c0-0.357,0.601-0.754,1.469-0.773v-0.451c-1.082,0.02-1.921,0.549-1.921,1.225
		c0,0.689,0.869,1.229,1.979,1.229c1.11,0,1.979-0.539,1.979-1.229C8.337,13.999,8.236,13.897,8.111,13.897z"/>
	<circle fill="#E77428" cx="8.112" cy="10.761" r="0.629"/>
	<path fill="#274D57" d="M8.111,10.604c-0.125,0-0.225,0.102-0.225,0.227c0,0.367-0.629,0.775-1.529,0.775
		c-0.899,0-1.526-0.408-1.526-0.775c0-0.359,0.601-0.756,1.469-0.773V9.606c-1.082,0.018-1.921,0.549-1.921,1.225
		c0,0.689,0.869,1.229,1.979,1.229c1.11,0,1.979-0.539,1.979-1.229C8.337,10.706,8.236,10.604,8.111,10.604z"/>
	<circle fill="#E77428" cx="8.112" cy="7.47" r="0.629"/>
	<path fill="#274D57" d="M8.111,7.313c-0.125,0-0.225,0.102-0.225,0.227c0,0.365-0.629,0.775-1.529,0.775
		c-0.899,0-1.526-0.41-1.526-0.775c0-0.359,0.601-0.758,1.469-0.775V6.313C5.218,6.333,4.379,6.862,4.379,7.54
		c0,0.688,0.869,1.227,1.979,1.227c1.11,0,1.979-0.539,1.979-1.227C8.337,7.415,8.236,7.313,8.111,7.313z"/>
	<circle fill="#E77428" cx="8.112" cy="4.179" r="0.629"/>
	<path fill="#274D57" d="M8.111,4.022c-0.125,0-0.225,0.1-0.225,0.225c0,0.367-0.629,0.775-1.529,0.775
		c-0.899,0-1.526-0.408-1.526-0.775c0-0.359,0.601-0.756,1.469-0.773V3.022C5.218,3.04,4.379,3.571,4.379,4.247
		c0,0.689,0.869,1.229,1.979,1.229c1.11,0,1.979-0.539,1.979-1.229C8.337,4.122,8.236,4.022,8.111,4.022z"/>
</g>
</svg>
