<?xml version="1.0" encoding="utf-8"?>
<!-- Generator: Adobe Illustrator 16.0.0, SVG Export Plug-In . SVG Version: 6.00 Build 0)  -->
<!DOCTYPE svg PUBLIC "-//W3C//DTD SVG 1.1//EN" "http://www.w3.org/Graphics/SVG/1.1/DTD/svg11.dtd">
<svg version="1.1" id="Layer_1" xmlns="http://www.w3.org/2000/svg" xmlns:xlink="http://www.w3.org/1999/xlink" x="0px" y="0px"
	 width="48px" height="48px" viewBox="0 0 48 48" enable-background="new 0 0 48 48" xml:space="preserve">
<g>
	<path fill="#00B99B" d="M47.531,43.638c0.125,2.146-1.607,3.9-3.852,3.9H4.32c-2.243,0-3.977-1.754-3.852-3.9l2.401-27.25
		c0.125-2.146,2.063-3.9,4.307-3.9h33.647c2.242,0,4.182,1.754,4.307,3.9L47.531,43.638z"/>
	<ellipse fill="#FFFFFF" cx="10.386" cy="16.476" rx="1.976" ry="2.182"/>
	<ellipse fill="#FFFFFF" cx="37.561" cy="16.476" rx="1.977" ry="2.182"/>
	<path fill="#00718D" d="M10.386,14.294c-1.021,0-1.853,0.859-1.956,1.955c-0.006-0.074-0.02-0.146-0.02-0.225
		c0-1.205,0.885-2.182,1.976-2.182s1.976,0.977,1.976,2.182c0,0.078-0.014,0.15-0.021,0.225
		C12.237,15.153,11.408,14.294,10.386,14.294z"/>
	<path fill="#00718D" d="M37.561,14.294c-1.021,0-1.852,0.859-1.955,1.955c-0.008-0.074-0.021-0.146-0.021-0.225
		c0-1.205,0.885-2.182,1.977-2.182s1.977,0.977,1.977,2.182c0,0.078-0.014,0.15-0.021,0.225
		C39.412,15.153,38.582,14.294,37.561,14.294z"/>
	<path fill="#274D57" d="M37.561,17.239c-0.451,0-0.816-0.404-0.816-0.902c0-7.758-5.717-14.072-12.744-14.072
		S11.256,8.579,11.256,16.337c0,0.498-0.365,0.902-0.816,0.902c-0.45,0-0.816-0.404-0.816-0.902C9.623,7.585,16.072,0.462,24,0.462
		s14.377,7.123,14.377,15.875C38.377,16.835,38.012,17.239,37.561,17.239z"/>
	<rect x="12.555" y="27.755" fill="#009079" width="22.891" height="1.352"/>
</g>
</svg>
