<?xml version="1.0" encoding="utf-8"?>
<!-- Generator: Adobe Illustrator 18.0.0, SVG Export Plug-In . SVG Version: 6.00 Build 0)  -->
<!DOCTYPE svg PUBLIC "-//W3C//DTD SVG 1.1//EN" "http://www.w3.org/Graphics/SVG/1.1/DTD/svg11.dtd">
<svg version="1.1" id="Layer_1" xmlns="http://www.w3.org/2000/svg" xmlns:xlink="http://www.w3.org/1999/xlink" x="0px" y="0px"
	 viewBox="0 0 72 72" enable-background="new 0 0 72 72" xml:space="preserve">
<g>
	<path fill="none" d="M28.3,19.6c0-0.1-0.1-0.1-0.1-0.2c-0.1,0-0.1,0-0.2,0L28.3,19.6z"/>
	<path fill="none" d="M31.2,19c-0.4,0.1-0.9,0-1.2-0.2c-0.4-0.3-0.8-0.7-1.1-1c-0.1-0.1-0.2-0.2-0.4-0.2c-0.3,0-0.5,0.3-0.5,0.6
		c0,0.4,0,0.9,0.2,1.3C29.2,19.5,30.3,19.4,31.2,19z"/>
	<path fill="none" d="M29.6,23.2l0.1-0.1c-0.9,0.1-1.7-1-1.3-1.8c-0.5,0.3-1.1,0.1-1.6-0.1c-0.1-0.1-0.3-0.1-0.4-0.2
		c-0.3-0.1-0.7-0.3-1-0.3c-0.4,0-0.7,0.2-0.9,0.5c-0.2,0.4,0.1,1,0.5,1.2c0.4,0.2,0.9,0.2,1.4,0.3C27.4,22.7,28.5,22.9,29.6,23.2z"
		/>
	<path fill="none" d="M29.1,42.2c-0.7,0.1-1.4,0.7-1.6,1.4c-0.3,0.7-0.3,1.5-0.1,2.2c0,0.1,0.1,0.2,0.1,0.3c0.1,0.1,0.2,0.1,0.3,0.1
		c0.4,0,0.8-0.1,1.1-0.3C29,44.7,29.1,43.4,29.1,42.2z"/>
	<path fill="none" d="M33.7,15.6c0.2-0.7-0.1-1.5-0.7-2c-0.6-0.5-1.3-0.7-2-0.9l-0.3,0.2C31.5,14,32.5,14.9,33.7,15.6z"/>
	<path fill="none" d="M27,30.1c-0.4-0.2-1,0-1.4-0.4L25.5,30c0,0.4,0.1,0.9,0.4,1.2c0.3,0.3,0.8,0.4,1.1,0.2
		C27.5,31.1,27.4,30.3,27,30.1z"/>
	<path fill="none" d="M20.7,43.6c-0.4,0-0.8,0-1.2,0l0.2,0.5c-0.9-0.5-2-0.8-3.1-0.8c0.7,1,2.1,1,3.1,1.8c0.1-0.1,0.3-0.2,0.4-0.3
		C20.6,44.5,21.1,44,20.7,43.6z"/>
	<path fill="none" d="M16,46.1c0,0.2,0.2,0.4,0.5,0.4c0.5,0.1,1.1-0.1,1.6-0.3C17.3,46,16.6,45.9,16,46.1z"/>
	<path fill="none" d="M20,24.3l1.1,0.8c0.3,0.2,0.8,0.2,1.1,0c0.3-0.2,0.4-0.7,0.3-1.1C21.7,24.1,20.9,24.2,20,24.3z"/>
	<path fill="none" d="M17.5,35.1l-0.4,0.3c0.1,0,0.2,0,0.2,0C17.4,35.3,17.4,35.2,17.5,35.1z"/>
	<path fill="none" d="M17.7,36.1c0.3,0.2,0.7,0.2,1.1,0.3c0.5,0,1,0,1.5,0c0.3,0,0.7-0.1,0.6-0.4c0-0.2-0.3-0.2-0.4-0.2
		c-1-0.1-2.1-0.2-3.1-0.3C17.4,35.7,17.5,35.9,17.7,36.1z"/>
	<path fill="none" d="M28.9,45.9C28.9,45.9,28.9,45.9,28.9,45.9c0,0.1,0,0.1,0,0.2L28.9,45.9z"/>
	<path fill="none" d="M20.9,45.8c-0.1-0.1-0.3-0.1-0.5-0.1c-0.2-0.1-0.3-0.2-0.4-0.4c-0.1-0.1-0.1-0.1-0.2-0.2
		c-0.3,0.2-0.6,0.4-1,0.6c-0.3,0.2-0.5,0.3-0.8,0.5c0.2,0.1,0.5,0.2,0.7,0.3c0.4,0.2,0.7,0.4,1.1,0.6c0.4,0.1,0.9,0.1,1.2-0.2
		C21.3,46.5,21.3,45.9,20.9,45.8z"/>
	<path fill="none" d="M46.7,19.6c0.3,0,0.6-0.1,0.8-0.4c0.1-0.1,0.1-0.3,0.1-0.4c0-0.9,0-1.9,0-2.8l-0.1,0.6
		c-0.4-0.2-0.7-0.3-1.1-0.4c-0.5-0.1-1.1-0.2-1.5,0.1c-0.2,0.2-0.4,0.5-0.4,0.8C44.3,18.4,45.4,19.7,46.7,19.6z"/>
	<path fill="none" d="M40.6,9.8l-0.5-0.3c-0.9,0-1.4,1.1-1,1.9c0.4,0.8,1.3,1.1,2.2,1C41.5,11.5,41.3,10.5,40.6,9.8z"/>
	<path fill="none" d="M53,43.6c-0.1,0-0.2,0-0.4,0.1c-0.9,0.5-1.7,1-2.6,1.5c-0.6,0.3-1.1,0.7-1.7,0.9c-1.7,0.6-3.7,0.1-5.2-1
		c0.8,0.6,1.7,1.2,2.5,1.8c-0.8-0.1-1.6-0.2-2.4-0.3c-0.1,0.4,0.2,0.8,0.6,1.1C44.1,48,44.5,48,45,48c1.5,0.1,3.1-0.2,4.5-0.8
		c0.3-0.1,0.6-0.2,0.8-0.4c0.4-0.3,0.5-0.9,0.3-1.4c0.4-0.3,1-0.1,1.4,0c0.5,0.1,1.1,0.2,1.4-0.2c0.3-0.4,0.1-0.9-0.1-1.4
		C53.1,43.8,53.1,43.7,53,43.6z"/>
	<path fill="none" d="M41.9,23.7c-0.7,0.1-1.3,0.7-1.4,1.3c-0.1,0.7,0.2,1.4,0.8,1.8c0.4,0.2,0.9,0.3,1.2,0c0.3-0.2,0.3-0.6,0.3-1
		c0-0.7-0.1-1.5-0.4-2.2L41.9,23.7z"/>
	<path fill="none" d="M28.4,50.9l1.2-0.5c0.1-0.2,0.2-0.3,0.4-0.5C29.3,50.1,28.7,50.4,28.4,50.9z"/>
	<path fill="none" d="M53,25.2c-0.8,0.4-1.2,1.2-1.5,2c1.2,0.7,3,0,3.6-1.2C54.9,25.1,53.7,24.8,53,25.2z"/>
	<path fill="none" d="M44.7,37.2c-0.2,0.6-0.2,1.3-0.1,2c0.3,0,0.7,0,1,0c0.2-0.6-0.1-1.4-0.7-1.6L44.7,37.2z"/>
	<path fill="none" d="M34.8,30.3l0.1,0.6c-0.6-0.1-1.2,0.4-1.4,0.9c-0.2,0.6,0.1,1.2,0.5,1.7c0.4,0.4,1.1,0.5,1.4,0.1
		c0.2-0.3,0.1-0.6,0.1-0.9C35.2,31.9,35,31.1,34.8,30.3z"/>
	<path fill="none" d="M50.7,39.9c0.5,0.1,1.1-0.2,1.1-0.7c0-0.4-0.3-0.8-0.6-1.1c-0.4-0.4-0.8-0.8-1.3-1.2l-0.3,0.5
		c0,0.5-0.1,1,0.1,1.5C49.9,39.3,50.2,39.7,50.7,39.9z"/>
	<path fill="none" d="M31,48.7c-0.4,0.3-0.8,0.7-1.1,1.2c1.2-0.5,2.6-0.7,3.2-1.7C32.4,48,31.6,48.3,31,48.7z"/>
	<path fill="#010101" d="M35,51.8l-0.6,0.6C34.6,52.3,34.8,52.1,35,51.8z"/>
	<path fill="#E77528" d="M34.7,67.5c0,0.7,0,1.5-0.4,2.2c-0.3,0.7-1.1,1.2-1.8,1c2.5,0.8,5.2,1,7.8,0.6c-1.1-0.9-1.9-2-2.4-3.3
		c-0.5-1.5-0.6-3.2-0.6-4.8c0.1-4.1,0.5-8.3,1.4-12.3L35,51.8C34.9,57,34.8,62.3,34.7,67.5z"/>
	<path fill="#010101" d="M55,25.9l0.1-0.3C55.1,25.7,55.1,25.8,55,25.9C55,25.9,55,25.9,55,25.9z"/>
	<path fill="#294E58" d="M62.5,30.3c-0.8-0.7-1.9-1.1-2.9-0.8c-1,0.2-1.8,1.3-1.6,2.3c-0.7-1.2,0.1-2.7,1-3.7c0.9-1,2-2.2,1.8-3.6
		c-0.4-2-3.1-2.6-3.8-4.5c-0.3-0.8-0.1-1.8-0.6-2.5c-0.9-1.5-3.8-1.3-4.1-3C52,13.1,53.5,12.2,54,11c0.7-1.7-0.5-3.5-1.7-4.9
		c-0.8-0.9-1.6-1.9-2.8-2.1c-0.8-0.2-2,0-2.3-0.8c-0.2-0.4,0-0.9,0-1.3c-0.1-0.9-1.3-1.6-2.1-1.1c-0.3,0.2-0.6,0.5-0.9,0.7
		c-1.2,1-3.4,0.5-4-0.9C38,2.3,34.9,2.9,32.2,2c-0.5-0.2-1.1-0.4-1.6-0.5c-1-0.1-1.9,0.4-2.7,0.9c-1.4,0.9-2.8,1.9-4,3.1
		c-1.1-0.3-2.3-0.4-3.4-0.1c-0.7,0.1-1.5,0.4-2,1c-0.3,0.4-0.5,0.9-0.7,1.4c-0.8,2.1-2.4,3.9-4.4,5c0.8,0.1,1.6,0.3,2.4,0.4
		c-1.3,0.3-1.8,1.8-1.9,3.1c-0.1,1.3,0.1,2.7-0.6,3.8c-0.4,0.6-0.9,1.1-1.2,1.8c-0.3,0.7-0.1,1.7,0.6,1.8c0.4,0.8-0.1,1.8-0.8,2.3
		c-0.7,0.6-1.6,0.9-2.3,1.5c-1.4,1.2-1.7,3.1-1.8,4.9c-0.1,1.5,0,3,0.6,4.3c0.6,1.3,2,2.4,3.5,2.2c-1.6,1.5-2.7,3.4-3.3,5.5
		c1.4,0.5,2.6,1.3,3.6,2.4c-0.8,0.7-1.2,1.8-1,2.9c1.6-0.1,3.5-0.1,4.7,0.9c0.8,0.7,1.4,1.7,2.4,1.6c0.8-0.1,1.3-0.9,1.8-1.5
		c0.5-0.6,1.5-1.1,2.1-0.5c-0.5,0.8-1,1.6-1.7,2.2c1,0.6,2.3,0.9,3.5,0.8c-0.5,0.7-1.1,1.3-1.8,1.7c1.6,0.7,3.3-0.6,4.6-1.9
		c1.3-1.2,3.1-2.5,4.6-1.7c0.5,0.3,0.8,0.7,1.3,0.9c0.5,0.2,1,0.1,1.5-0.1l0.6-0.6l3.9-0.9c2.5,0.3,4.7-1.7,7.1-2
		c1.1-0.1,2.2,0.1,3.3-0.1c2.5-0.3,4.6-2.4,7-2.2c0.7,0.1,1.6,0.2,2-0.4c0.5-0.9-0.9-2.2-0.2-3c1.7-0.3,3.1-1.5,3.7-3.1
		c0.2-0.6,0.3-1.1,0.6-1.7c0.3-0.6,0.7-1,1.1-1.6C64.7,34.9,64.3,31.9,62.5,30.3z M17.5,35.1c-0.1,0.1-0.1,0.2-0.1,0.3
		c1,0.1,2.1,0.2,3.1,0.3c0.2,0,0.4,0.1,0.4,0.2c0.1,0.3-0.3,0.4-0.6,0.4c-0.5,0-1,0-1.5,0c-0.4,0-0.8,0-1.1-0.3
		c-0.2-0.1-0.4-0.4-0.4-0.7c-0.1,0-0.2,0-0.2,0L17.5,35.1z M21,46.8c-0.3,0.3-0.8,0.3-1.2,0.2c-0.4-0.1-0.8-0.4-1.1-0.6
		c-0.2-0.1-0.4-0.2-0.7-0.3c-0.5,0.3-1,0.4-1.6,0.3c-0.2,0-0.5-0.2-0.5-0.4c0.7-0.1,1.4-0.1,2,0.1c0.3-0.1,0.6-0.3,0.8-0.5
		c0.3-0.2,0.6-0.4,1-0.6c-0.9-0.7-2.4-0.8-3.1-1.8c1.1,0,2.1,0.2,3.1,0.8l-0.2-0.5c0.4,0,0.8,0,1.2,0c0.3,0.4-0.1,0.9-0.6,1.2
		c-0.1,0.1-0.3,0.2-0.4,0.3c0.1,0.1,0.2,0.1,0.2,0.2c0.1,0.1,0.2,0.3,0.4,0.4c0.1,0.1,0.3,0.1,0.5,0.1C21.3,45.9,21.3,46.5,21,46.8z
		 M22.3,25.1c-0.3,0.2-0.8,0.3-1.1,0L20,24.3c0.9-0.1,1.7-0.2,2.6-0.3C22.7,24.4,22.6,24.8,22.3,25.1z M30.9,12.7
		c0.7,0.2,1.5,0.4,2,0.9c0.6,0.5,1,1.3,0.7,2c-1.2-0.7-2.2-1.6-3.1-2.7L30.9,12.7z M28.5,17.5c0.1,0,0.3,0.1,0.4,0.2
		c0.3,0.4,0.7,0.8,1.1,1c0.4,0.2,0.8,0.3,1.2,0.2c0.1,0,0.1-0.1,0.2-0.1c-0.1,0-0.1,0.1-0.2,0.1c-0.9,0.4-2,0.5-3,0.4
		c0,0.1,0.1,0.1,0.1,0.2L28,19.4c0.1,0,0.1,0,0.2,0C28,19,28,18.5,28,18.1C28,17.8,28.2,17.5,28.5,17.5z M24.4,21.2
		c0.1-0.3,0.5-0.5,0.9-0.5c0.4,0,0.7,0.1,1,0.3c0.1,0.1,0.3,0.1,0.4,0.2c0.5,0.2,1.2,0.4,1.6,0.1c-0.4,0.8,0.4,1.9,1.3,1.8l-0.1,0.1
		c-1.1-0.3-2.2-0.5-3.3-0.6c-0.5,0-1,0-1.4-0.3C24.5,22.2,24.2,21.6,24.4,21.2z M25.9,31.2c-0.3-0.3-0.4-0.7-0.4-1.2l0.1-0.3
		c0.3,0.4,0.9,0.1,1.4,0.4c0.4,0.2,0.5,1,0.1,1.2C26.7,31.6,26.2,31.5,25.9,31.2z M27.5,46.1c-0.1-0.1-0.1-0.2-0.1-0.3
		c-0.2-0.7-0.2-1.5,0.1-2.2c0.3-0.7,0.9-1.3,1.6-1.4c0,1.2-0.1,2.5-0.2,3.7c0,0,0,0,0,0l0,0.2c0,0,0-0.1,0-0.1
		c-0.4,0.2-0.7,0.3-1.1,0.3C27.7,46.2,27.5,46.2,27.5,46.1z M29.9,49.9c-0.1,0.2-0.2,0.3-0.4,0.5l-1.2,0.5
		C28.7,50.4,29.3,50.1,29.9,49.9c0.3-0.4,0.7-0.8,1.1-1.2c0.6-0.4,1.4-0.7,2.1-0.6C32.4,49.2,31,49.4,29.9,49.9z M35.3,33.7
		c-0.3,0.4-1,0.2-1.4-0.1c-0.4-0.4-0.7-1.1-0.5-1.7c0.2-0.6,0.8-1,1.4-0.9l-0.1-0.6c0.3,0.8,0.5,1.6,0.7,2.4
		C35.5,33.1,35.5,33.4,35.3,33.7z M49.7,37.3l0.3-0.5c0.4,0.4,0.8,0.8,1.3,1.2c0.3,0.3,0.7,0.7,0.6,1.1c-0.1,0.5-0.7,0.8-1.1,0.7
		c-0.5-0.1-0.8-0.6-1-1.1C49.6,38.3,49.6,37.8,49.7,37.3z M44.5,17.1c0-0.3,0.2-0.6,0.4-0.8c0.4-0.3,1-0.3,1.5-0.1
		c0.4,0.1,0.7,0.2,1.1,0.4l0.1-0.6c0,0.9,0,1.9,0,2.8c0,0.1,0,0.3-0.1,0.4c-0.1,0.3-0.5,0.4-0.8,0.4C45.4,19.7,44.3,18.4,44.5,17.1z
		 M45.5,39.2c-0.3,0-0.7,0-1,0c-0.1-0.7-0.1-1.3,0.1-2l0.1,0.4C45.4,37.8,45.8,38.6,45.5,39.2z M39.1,11.4c-0.4-0.8,0.2-1.9,1-1.9
		l0.5,0.3c0.6,0.7,0.9,1.7,0.6,2.6C40.4,12.5,39.5,12.2,39.1,11.4z M42.6,26.8c-0.3,0.3-0.8,0.3-1.2,0c-0.6-0.3-0.9-1.1-0.8-1.8
		c0.1-0.7,0.7-1.2,1.4-1.3l0.6-0.1c0.3,0.7,0.4,1.4,0.4,2.2C42.9,26.2,42.8,26.6,42.6,26.8z M53.3,45.3c-0.3,0.4-0.9,0.4-1.4,0.2
		c-0.5-0.1-1-0.3-1.4,0c0.2,0.5,0,1-0.3,1.4c-0.2,0.2-0.5,0.3-0.8,0.4c-1.4,0.6-3,0.8-4.5,0.8c-0.4,0-0.9-0.1-1.2-0.3
		c-0.4-0.2-0.7-0.6-0.6-1.1c0.8,0.1,1.6,0.2,2.4,0.3c-0.8-0.6-1.7-1.2-2.5-1.8c1.5,1,3.5,1.6,5.2,1c0.6-0.2,1.2-0.5,1.7-0.9
		c0.9-0.5,1.7-1,2.6-1.5c0.1-0.1,0.2-0.1,0.4-0.1c0.1,0,0.2,0.2,0.2,0.3C53.4,44.3,53.6,44.9,53.3,45.3z M55,25.9
		C55,25.9,55,25.9,55,25.9c-0.6,1.2-2.3,1.9-3.6,1.2c0.3-0.8,0.8-1.6,1.5-2C53.7,24.8,54.9,25.1,55,25.9c0-0.1,0.1-0.2,0.1-0.3
		L55,25.9z"/>
</g>
</svg>
