<?xml version="1.0" encoding="utf-8"?>
<!-- Generator: Adobe Illustrator 18.0.0, SVG Export Plug-In . SVG Version: 6.00 Build 0)  -->
<!DOCTYPE svg PUBLIC "-//W3C//DTD SVG 1.1//EN" "http://www.w3.org/Graphics/SVG/1.1/DTD/svg11.dtd">
<svg version="1.1" id="Layer_1" xmlns="http://www.w3.org/2000/svg" xmlns:xlink="http://www.w3.org/1999/xlink" x="0px" y="0px"
	 viewBox="0 0 72 72" enable-background="new 0 0 72 72" xml:space="preserve">
<g>
	<path fill="#010101" d="M31.7,29.9l-0.4,0.7C31.4,30.5,31.6,30.2,31.7,29.9z"/>
	<path fill="#010101" d="M41.1,13.1C41.1,13.1,41.1,13.1,41.1,13.1c-0.1,0.1-0.2,0.2-0.3,0.3C40.9,13.3,41,13.2,41.1,13.1z"/>
	<path fill="#F04B36" d="M31.6,32.9c-0.2,0.4-0.4,0.7-0.6,1.1c-0.3,0.7-0.4,1.4-0.4,2.1c-0.1,1.7,0.1,3.4,0.5,5.1
		c0.5,2-0.7,4.2-0.3,6.2c0.1,0.4,0.2,0.9,0.4,1.3c0.2,0.5,0.3,1,0.5,1.5c0.2,0.7,0.4,1.4,0.5,2.1c0,0.4,0,0.9,0,1.3
		c0,1.1-0.1,2.2-0.1,3.3C32,61.6,31,66.3,30,70.8c2.7,0.6,5.4,0.8,8.1,0.6c0.5-4.3,0.3-8.8-0.5-13.1c-0.2-1.2-0.5-2.4-0.5-3.6
		c0-1.6,0.5-3,0.9-4.6c0.8-3.6,0.5-7.3,0.3-11c-0.2-2.9-0.4-5.8-0.6-8.7l-5.9-0.6C31.9,30.9,32,31.9,31.6,32.9z"/>
	<path fill="#0DB89A" d="M64.2,30.9c-0.1-0.3-0.4-0.6-0.7-0.7c-0.3-0.1-0.7,0-1,0.1c0.4-0.1,0.7-0.2,1.1-0.4
		c-0.5-0.5-1.2-0.8-1.8-0.9c0.3,0,0.5-0.1,0.8-0.1c0-0.2-0.2-0.4-0.4-0.6c-0.8-0.7-1.9-1-3-0.9c0.3-0.1,0.6-0.2,0.9-0.3
		c-0.5-0.1-1-0.2-1.5-0.4c-0.2,0-0.4-0.1-0.4-0.3c0-0.2,0.2-0.3,0.4-0.3c0.2,0,0.4,0,0.5-0.1c-0.3-0.5-0.6-1-1-1.5
		c-0.2-0.2-0.5-0.4-0.6-0.6c-0.2-0.2-0.2-0.6-0.1-0.8c0.2-0.1,0.4,0,0.6,0.1c0.2,0.1,0.5,0,0.4-0.2c0.6,1.3,1.4,2.4,2.5,3.3
		c0.1-0.5,0.1-1.1,0-1.6c0.2,0.5,0.6,0.9,1,1.3c0.1-0.7,0-1.5-0.3-2.2c0.2,0.4,0.7,0.6,1.1,0.4c-0.2-0.3-0.5-0.6-0.7-1
		c0.3-0.2,0.5-0.4,0.7-0.8c-0.8,0-1.6-0.3-2.3-0.8c0.4,0,0.8-0.1,1.2-0.4c-0.8-0.3-1.5-0.6-2.3-0.9c0.4,0,0.9-0.3,0.9-0.8
		c-1.1-0.5-2.6,0.1-3.4-0.7c0.1-0.2,0.2-0.5,0.3-0.8c-1.3,0-2.5,0.3-3.6,0.9c0-0.3,0-0.6,0.2-0.8c-0.9-0.2-1.9,0.2-2.4,0.9
		c-0.2-0.3-0.2-0.7-0.2-1c-0.4-0.2-0.9,0-1.3,0.3c-0.4,0.3-0.6,0.7-0.9,1.1c-0.1,0.1-0.1,0.2-0.2,0.2c-0.2,0.1-0.5-0.1-0.5-0.3
		c0-0.2,0.1-0.5,0.2-0.7c-0.1-0.3-0.6-0.2-0.8,0.1s-0.4,0.6-0.8,0.6c0-0.5-1.1-0.4-1.1-0.9c0-0.2,0.3-0.4,0.5-0.5
		c0.2-0.1,0.5-0.1,0.7-0.2c0.3-0.2,0.3-0.6,0.1-0.9c-0.2-0.3-0.5-0.4-0.9-0.4c0.8,0.2,1.6,0.4,2.5,0.5c0.1-0.3-0.1-0.6-0.3-0.8
		c0.2,0,0.5,0.1,0.7,0.2s0.5,0.2,0.7,0.1c0.2-0.1,0.3-0.5,0.1-0.6c0.8,0.1,1.6,0.4,2.3,0.7c-0.2-0.4-0.5-0.8-0.9-1
		c0.9,0.4,1.9,0.7,2.8,1.1c0-0.2,0-0.4,0-0.6c0.8,0.2,1.5,0.4,2.3,0.6c0.2,0.1,0.4,0.1,0.6,0.2c0.3-0.4,0.1-1.1-0.2-1.4
		c-0.2,0-0.3-0.1-0.4-0.2c0.1,0,0.3,0.1,0.4,0.2c0.2,0,0.5-0.1,0.6-0.2c0.2-0.3,0.2-0.8,0-1.1c-0.1-0.2-0.3-0.3-0.5-0.4
		c-0.3-0.1-0.7-0.1-1.1-0.1c-0.6,0-1.2-0.2-1.7-0.5c0.5,0,1-0.4,1.1-0.9c-0.8,0.5-1.7,0.8-2.6,0.8c0.2-0.3,0.4-0.5,0.7-0.6
		c-0.9-0.1-1.8-0.1-2.7,0c0.4-0.1,0.8-0.4,1.1-0.8c-0.7-0.2-1.5,0.3-2.1,0.8c0.3-0.4,0.4-0.9,0.4-1.3c-0.9,0.3-1.7,0.8-2.5,1.4
		c0.2-0.3,0.4-0.7,0.6-1c-1.2-0.1-2,1.4-3.1,1.4c0-0.3,0-0.5,0.1-0.8c-0.5,0.6-1.1,1.2-1.6,1.9c-0.1-0.4-0.1-0.8,0-1.2
		c-0.9,0.7-1.6,1.6-2,2.7c0-0.5,0.1-1.1,0.1-1.6c-0.6-0.2-1.2-0.4-1.8-0.4c0.5-0.2,1-0.3,1.6-0.5c0.2-0.3,0.3-0.8,0.1-1.2
		c0.4,0,0.9,0.1,1.3,0.1c-0.4-0.1-0.8-0.3-1.1-0.5c0.4-0.1,0.9-0.1,1.3-0.2c0.4-0.1,0.8-0.5,0.7-0.9c-0.3,0-0.6-0.1-0.9-0.1
		c0.7-0.2,1.3-0.5,1.8-1c-0.3,0-0.6,0.1-0.9,0.3c0.5-0.4,1.1-0.9,1.7-1.2c-0.4-0.1-0.8-0.2-1.2-0.1c0.8-0.5,1.7-0.9,2.7-1
		c-0.2-0.1-0.4-0.3-0.5-0.4c0.6,0.2,1.3,0,1.7-0.4c0.4-0.4,0.6-1.1,0.3-1.6c-0.1,0.4-0.6,0.6-1,0.5c0.3-0.4,0.6-0.8,0.9-1.2
		c-0.7,0.3-1.5,0.6-2.2,1C46,4.5,46.1,4,46.2,3.4c-0.3,0.6-0.6,1.2-0.9,1.8c0-0.3,0-0.6-0.1-0.9c0-0.2-0.2-0.6-0.4-0.5
		c-0.1,0-0.2,0.1-0.2,0.2c-0.2,0.5-0.4,1.1-0.5,1.7c-0.1-0.2,0-0.5,0.1-0.8c0.1-0.3,0-0.6-0.2-0.7c-0.2-0.1-0.4,0.1-0.5,0.2
		c-0.6,0.8-0.5,2-1.3,2.5c0.1-0.7,0.1-1.3,0-2c-0.7,0.4-0.7,1.5-0.5,2.3c0.1,0.2,0.1,0.5,0.1,0.7c0,0.2-0.3,0.4-0.5,0.4
		c0.1-0.7,0-1.5-0.1-2.2c-0.2,0.7-0.4,1.3-0.6,2c-0.1,0.2-0.2,0.5-0.4,0.4c0.1-0.9-0.1-1.9-0.6-2.7c-0.1-0.1-0.1-0.2-0.1-0.3
		c0-0.1,0.1-0.2,0.2-0.3c0.6-0.4,1.2-0.8,1.7-1.2c-0.3,0-0.6-0.1-1-0.1c0.9,0.1,1.7-0.4,2.4-0.9c-0.6,0.1-1.2-0.2-1.5-0.7
		c0.4,0,0.7,0,1.1,0c0-0.7-0.1-1.3-0.3-1.9c-0.1,0.7-0.6,1.4-1.2,1.8c0-0.5,0-1,0-1.6c-0.6,0.4-1,1-1.2,1.7c0-0.5-0.1-1-0.3-1.5
		c-0.4,0.7-0.6,1.4-0.6,2.2c-0.1-0.4-0.2-0.8-0.4-1.2c-0.3,0.8-0.6,1.6-1,2.4c-0.2-0.3-0.3-0.7-0.3-1c-0.5,0.2-0.9,0.7-1.1,1.3
		C35.9,5,35.9,5.8,35.4,6c-0.1-0.2-0.2-0.5-0.3-0.7c-0.5,0.4-0.8,1-0.8,1.6c0,0.4,0.1,0.9-0.3,1.1C34,7.7,33.9,7.4,33.8,7
		c-0.5,0.2-0.8,0.9-0.6,1.4c-0.5-0.4-0.5-1.1-0.4-1.7C32.9,6,33,5.3,32.7,4.8c-0.4,0.5-0.7,1.1-0.9,1.7c-0.3-0.4-0.6-0.8-0.9-1.3
		c-0.3,0.3-0.4,0.7-0.4,1.1c-0.2,0.2-0.5-0.1-0.6-0.3c-0.2-0.3-0.4-0.7-0.6-1c-0.1-0.2-0.3-0.5-0.6-0.5c-0.3,0-0.5,0.3-0.5,0.6
		s0.2,0.5,0.4,0.8c-0.5,0-0.9-0.4-1.2-0.8c-0.3-0.4-0.6-0.8-1-1c-0.4-0.2-1.1-0.2-1.3,0.3c0.5,0,1,0.2,1.3,0.6c-1,0-2-0.2-3-0.4
		c-0.1,0.3,0.1,0.8,0.4,0.9c-0.2,0-0.4,0.2-0.5,0.4c-0.1,0.2,0,0.5,0,0.7c0,0.2,0.1,0.4,0.2,0.5c0.1,0.1,0.4,0.2,0.3,0.4
		c-0.3,0-0.6,0.3-0.5,0.6c0.1,0.3,0.5,0.5,0.7,0.3c0.1,0.6,0.1,1.2,0.2,1.7c0,0.3,0.2,0.7,0.5,0.6c0.2-0.1,0.3-0.3,0.3-0.6
		c0-0.5,0-1.1,0-1.6c0.2,0.2,0.5,0.4,0.8,0.3c0.1,0,0.2-0.1,0.3,0c0.2,0,0.2,0.2,0.3,0.4c0.2,0.7,0.9,1.3,1.6,1.5
		c0.1,0.6,0.5,1.2,1.1,1.4c-0.4,0.1-0.9,0-1.3-0.1c0.6,0.5,1.4,0.9,2.1,1c0.2,0.1,0.3,0.3,0.3,0.6c-0.4,0.1-0.9,0.1-1.3,0
		c0.3,0.5,0.1,1.3-0.5,1.5c0.1-0.4-0.1-0.9-0.4-1.2c0,0.4-0.2,0.9-0.4,1.2c-0.4-0.7-0.7-1.4-0.9-2.1c-0.1,0.2-0.2,0.5-0.2,0.7
		c-0.5-0.5-0.9-1.1-1.2-1.8c-0.1,0.4-0.2,0.8-0.2,1.2c-0.5-0.5-1-1.1-1.4-1.7c-0.1,0.4-0.1,0.7-0.2,1.1c-0.6-0.7-1.2-1.4-1.6-2.2
		c-0.2,0.2-0.2,0.5-0.1,0.7c-0.5-0.3-0.7-1.2-1.2-1.1c-0.3,0-0.5,0.5-0.3,0.8c-0.4-0.4-0.9-0.7-1.3-1.1c-0.1-0.1-0.2-0.1-0.3-0.1
		c-0.2,0-0.3,0.3-0.2,0.5c0,0.2,0.1,0.4,0,0.6c-0.2,0.1-0.5-0.1-0.6-0.4C18,9.8,18,9.5,17.9,9.3c0-0.1-0.1-0.1-0.1-0.2
		c-0.1-0.1-0.3,0.1-0.3,0.2c-0.1,0.3-0.1,0.7,0.1,1c-0.2,0.1-0.4-0.1-0.6-0.3c-0.3-0.2-0.7-0.2-1,0c-0.3,0.2-0.3,0.7-0.2,1
		c-0.3-0.1-0.6-0.2-0.9-0.1c-0.3,0.1-0.6,0.4-0.5,0.7c0.3-0.1,0.7,0,0.9,0.2c-0.8,0.3-1.6,0.9-1.9,1.7c0.6-0.1,1.2-0.4,1.7-0.6
		c-0.1,0.5-0.6,0.8-1,1.1c-0.4,0.3-0.9,0.7-0.8,1.2c0.5,0,1-0.3,1.4-0.6c0.1-0.2,0.3-0.3,0.4-0.5c-0.1,0.2-0.3,0.3-0.4,0.5
		c-0.3,0.4-0.5,0.9-0.6,1.5c0.4,0.1,0.7-0.1,1-0.4c0.2-0.3,0.4-0.6,0.6-0.9c0.4-0.5,1-0.9,1.7-1c-0.6,0.6-1.1,1.3-1.6,2
		c0.5-0.5,1-1,1.5-1.5c0.2-0.2,0.4-0.4,0.6-0.4c0.2-0.1,0.5,0,0.6,0.2c-0.7,0.2-1.3,0.7-1.6,1.3c0.5-0.2,0.9-0.6,1.3-0.9
		c0.4-0.3,1-0.5,1.5-0.2c-0.4,0-0.7,0.3-0.8,0.6c0.8-0.2,1.7-0.3,2.6-0.2c-0.4,0.1-0.8,0.1-1.2,0.2c0.9,0.1,1.8,0.2,2.7,0.3
		c-0.5,0.2-1.1,0.5-1.6,0.7c0.6,0.1,1.3,0.3,1.8,0.7c-0.7,0.7-1.7,1.2-2.7,1.3c0.5,0.2,1,0.4,1.4,0.8c-1.1,0.2-2.3,0.1-3.3-0.4
		c0.2,0.3,0.3,0.5,0.5,0.8c-0.7,0.1-1.5-0.2-1.9-0.7c-0.1,0.3-0.1,0.6,0.1,0.8c0.1,0.1,0.4,0.3,0.2,0.5c0,0-0.1,0.1-0.1,0.1
		c-1,0.4-2.3,0.1-3-0.8c-0.1,0.6,0.3,1.3,0.9,1.5c-1,0.3-2.2,0-2.8-0.8c0.1,0.7,0.3,1.3,0.8,1.8c-0.9,0.2-1.8,0-2.6-0.5
		c0.4,0.4,0.7,0.8,0.9,1.2c-0.6,0.2-1.2,0.3-1.9,0.2c0.4,0.2,0.3,0.9-0.1,1.2c-0.4,0.3-0.9,0.3-1.4,0.3c0.4,0.3,0.8,0.4,1.3,0.4
		c-0.6,0.5-1.1,1-1.7,1.5c0.5,0.2,1,0.3,1.6,0.2c0.3,0.9-0.4,1.8-0.7,2.6c-0.1,0.2,0,0.5,0.2,0.5c0.5-0.5,0.7-1.2,0.8-1.9
		c0.1,1.2-0.7,2.4-0.7,3.7c0.3,0,0.5-0.3,0.5-0.6c0.1-0.3,0.1-0.6,0.3-0.8c-0.2,0.7-0.3,1.4-0.5,2.2c0.3-0.3,0.6-0.6,0.9-0.8
		c0,0.7-0.7,1.3-1.4,1.3c0,0.2,0,0.4,0.1,0.6c0.6,0,1.3,0,1.9,0.1c-0.5,0.7-1.5,0.7-2.4,0.7c0.4,0.4,1,0.5,1.5,0.5
		c-0.5,0.6-1.2,0.9-1.9,1c0.4,0,0.8,0.1,1.2,0.1c0.2,0.3-0.2,0.6-0.5,0.8c-0.3,0.1-0.7,0.4-0.5,0.7c0.5,0,1.1,0,1.6,0
		c-0.8,0.6-1.3,1.4-1.5,2.4c0,0.1-0.1,0.3,0,0.4c0.1,0.2,0.5,0.2,0.7,0c0.2-0.2,0.2-0.5,0.2-0.8c0-0.3,0.1-0.6,0.2-0.8
		c0,0.4-0.1,0.7,0.1,1.1c0.1,0.3,0.5,0.6,0.9,0.4c0-0.7,0-1.5,0.2-2.2c0.3-0.1,0.7,0.3,1,0.1c0.1-0.1,0.1-0.2,0.1-0.3
		c0.1-1.1,0.2-2.2,0.3-3.3c0.1,0.5,0.2,1.1,0.4,1.6c0.3-0.9,0.6-1.8,0.8-2.7c0,0.4,0,0.8,0.1,1.2c0.2,0,0.4-0.2,0.5-0.5
		c0.4-0.9,0.7-1.9,1.1-2.8c0.2,0.9,0.3,1.9,0.3,2.8c0.5-0.9,0.9-1.8,1.4-2.8c0.1,1.6-0.2,3.3-1,4.7c0.4-0.2,0.6-0.6,0.6-1.1
		c0,0.5-0.1,1-0.1,1.5c0.4-0.2,0.6-0.6,0.7-1c0.4-1.1,0.7-2.2,1.1-3.3c0.2,0.7,0.3,1.4,0.2,2.2c0.4-1.3,0.9-2.7,1.8-3.7
		c0,0.4,0,0.9,0,1.3c0.7-0.7,1.2-1.6,1.4-2.5c0,0.6,0.1,1.2,0.2,1.9c0.6-0.4,1.1-1.1,1.4-1.8c0.1,0.5,0.2,1.1,0.2,1.6
		c0.9,0.1,1.5-0.8,1.9-1.5c0,0.4,0,0.8,0,1.2c0.5,0,0.9,0.1,1.4,0.1c-0.1,0.6-0.6,1.1-1,1.6c-0.4,0.6-0.6,1.3-0.7,2
		c-0.3,1.4-0.7,2.9-1,4.3c-0.2,0.7-0.3,1.4,0,2.1c0.2-1.5,0.4-3.1,1.3-4.2c0.7-0.8,1.7-1.3,2.4-2.1c0.5-0.6,0.8-1.3,1.1-1.9
		c0.4-1,0.8-1.9,1.2-2.9c0.1,0.8,0,1.5-0.4,2.2c0.4-0.7,0.9-1.3,1.4-1.9c-0.3,0.9-0.7,1.8-1,2.8c0.7-0.3,1.3-0.8,1.7-1.4l0.4-0.7
		l5.9,0.6c1.8,0.1,2.9,1.9,3.3,3.7c0.4,1.7,0.3,3.6,0.9,5.2c0.5-2.1,0.5-4.3-0.1-6.3c-0.4-1.4-1.1-2.7-1.8-4c-0.3-0.5,0.7-1,1.2-1
		c0.6,0,1,0.4,1.4,0.8c0.4,0.4,0.8,0.8,1.4,0.9c-0.4-0.5-0.7-1.3-0.6-1.9c0.6,0.5,1.2,1.1,1.8,1.6c0.2,0.2,0.5,0.4,0.8,0.2
		c0.1-0.5,0.1-1,0-1.5c0.1,0.7,0.5,1.3,1,1.8c0.5,0.5,1.1,0.9,1.4,1.5c0.6,0.9,0.6,2.2,1.4,3c0.1-0.6,0.1-1.1,0.2-1.7
		c0-0.4,0.1-0.9,0-1.3c-0.2-1-1.1-1.9-1.3-2.9c0.5,0,0.9,0.4,1.2,0.7c0.6,0.5,1.4,0.9,2.1,1c1,0.2,2.2,0.2,3,0.8
		c-0.1-0.4-0.3-0.8-0.4-1.3c0.7,0.8,1.4,1.8,1.9,2.7c0-0.5,0-1,0-1.4c0.5,1.1,1,2.2,1.5,3.2c0.1-0.4,0.1-0.8,0-1.2
		c0.2,0.5,0.4,1,0.6,1.5c0.2,0.4,0.5,0.8,0.9,0.8c0-0.8,0-1.6,0-2.4c0.2,0.1,0.3,0.2,0.4,0.4c0.1-0.1,0.1-0.2,0.1-0.3
		c0-0.6-0.5-1.1-1-1.4c-0.5-0.3-1.1-0.6-1.4-1.1c-0.3-0.6-0.1-1.2,0-1.8c0.3,0.6,0.7,1.1,1,1.7c0-0.5,0-1.1,0-1.6
		c0.6,0.8,1.2,1.7,1.8,2.5c-0.1-0.5-0.1-1-0.1-1.5c0.2,1.2,1,2.3,2,2.8c-0.2-0.4-0.3-0.8-0.5-1.3c0.3,0.5,0.6,1.1,0.9,1.6
		c0,0,0,0.1,0.1,0.1c0.1,0,0.2-0.1,0.2-0.1c0.3-0.4,0.5-0.8,0.8-1.2C64.1,31.5,64.3,31.2,64.2,30.9z"/>
	<path fill="#010101" d="M56.6,15.4c-0.1-0.1-0.2-0.2-0.4-0.2C56.3,15.3,56.4,15.3,56.6,15.4z"/>
	<path fill="#010101" d="M15.2,14.2c-0.2,0.1-0.3,0.3-0.4,0.5C14.9,14.5,15,14.4,15.2,14.2z"/>
</g>
</svg>
