<?xml version="1.0" encoding="utf-8"?>
<!-- Generator: Adobe Illustrator 18.0.0, SVG Export Plug-In . SVG Version: 6.00 Build 0)  -->
<!DOCTYPE svg PUBLIC "-//W3C//DTD SVG 1.1//EN" "http://www.w3.org/Graphics/SVG/1.1/DTD/svg11.dtd">
<svg version="1.1" id="Layer_1" xmlns="http://www.w3.org/2000/svg" xmlns:xlink="http://www.w3.org/1999/xlink" x="0px" y="0px"
	 viewBox="0 0 72 72" enable-background="new 0 0 72 72" xml:space="preserve">
<g>
	<path fill="#010101" d="M34.8,60.1c0.1-0.1,0.1-0.2,0.2-0.3C34.9,59.9,34.8,60,34.8,60.1z"/>
	<path fill="none" d="M27.6,31.6c-0.2-0.2-0.4-0.3-0.6-0.5l-0.1,0.3c0-0.1,0.1-0.1,0.1-0.2c0,0.5,0,1.1,0,1.6c0,0,0,0.1,0,0.1
		c0,0,0.1,0,0.1,0c0.5,0,0.7-0.6,0.7-1c0-0.1,0-0.1-0.1-0.2C27.7,31.7,27.7,31.7,27.6,31.6z"/>
	<path fill="none" d="M24.8,35.4l-0.1,0.3c0,0.2,0,0.4,0.2,0.6c0.2,0.1,0.4,0.2,0.6,0c0.1-0.2,0-0.4-0.1-0.5
		C25.1,35.6,24.9,35.5,24.8,35.4z"/>
	<path fill="none" d="M32,53.1c-0.1-0.1-0.2,0-0.3,0.1c-0.1,0.1-0.1,0.2-0.1,0.3c0,0.3,0,0.6-0.1,0.8c0.1,0.1,0.3,0,0.4-0.1
		C32,54.1,32,54,32,53.8c0-0.4,0-0.7,0-1.1L32,53.1z"/>
	<path fill="none" d="M37.6,58.4l-0.1-0.1c-0.2,0.4,0.1,0.9,0.5,0.9c0.2,0,0.4-0.1,0.6-0.1c0.1,0,0.1,0,0.2,0c0,0,0.1-0.1,0.1-0.1
		c0.1-0.3,0.1-0.7-0.1-1c0,0,0,0,0,0l-0.5-0.1C38,57.9,37.7,58.1,37.6,58.4z"/>
	<path fill="none" d="M38.6,57.6c-0.1,0-0.2,0-0.3,0c0,0,0,0-0.1,0l0.5,0.1C38.7,57.7,38.7,57.7,38.6,57.6z"/>
	<path fill="none" d="M45.8,39.6c-0.6,0.2-1.1,0.8-1,1.4c0,0.2,0.1,0.3,0.3,0.3c0.1,0,0.1,0,0.2,0c0.7-0.2,1.1-1.1,0.8-1.7
		L45.8,39.6z"/>
	<path fill="none" d="M37.1,14c0,0.2,0,0.4,0,0.6c0,0.2,0,0.4,0.1,0.6c0.1,0.2,0.3,0.2,0.5,0.1c0.2-0.7,0-1.4-0.5-1.9L37.1,14z"/>
	<path fill="none" d="M39.7,11c-0.2-0.3-0.5-0.5-0.5-0.8c-0.1,0.3,0,0.6,0.1,0.8c0.2,0.4,0.4,0.8,0.6,1.2c0,0,0-0.1,0.1-0.1
		c0,0.1,0,0.1,0.1,0.2c0.1-0.1,0-0.2,0-0.3C39.9,11.6,39.9,11.3,39.7,11z"/>
	<path fill="#010101" d="M35,57.7c0.4,0,0.7-0.2,1-0.4l-1,0.3C35,57.6,35,57.6,35,57.7z"/>
	<path fill="#E77528" d="M38.8,57.8c0.2,0.3,0.2,0.7,0.1,1c0,0,0,0.1-0.1,0.1c-0.1,0-0.1,0-0.2,0c-0.2,0-0.4,0.1-0.6,0.1
		c-0.4,0-0.7-0.5-0.5-0.9l0.1,0.1c0.2-0.3,0.4-0.5,0.7-0.6L36,57.3c-0.1,0.9-0.5,1.8-1,2.6c0.1-0.1,0.3-0.1,0.5,0
		c0.2,0.1,0.4,0.4,0.5,0.7c0.5,1.9-0.3,3.8-0.3,5.8c0,1.5,0.4,3.2-0.5,4.5c-0.1,0.2-0.3,0.4-0.2,0.5c0.1,0.2,0.3,0.2,0.5,0.2
		c0.9,0,1.7,0,2.6,0c-0.8-2.6-0.7-5.3-0.5-8c0-0.5,0.1-1.1,0.1-1.6c0.1-0.5,0.2-1.1,0.7-1.4c0.3-0.2,0.6-0.2,0.9-0.3
		c0.3-0.1,0.6-0.3,0.7-0.6c0-0.3-0.2-0.6-0.4-0.8c-0.2-0.2-0.3-0.5-0.1-0.8L38.8,57.8C38.8,57.8,38.8,57.8,38.8,57.8z"/>
	<path fill="#06728D" d="M50.7,52.9c-0.1-0.3-0.4-0.5-0.6-0.5c0-0.4,0-0.7,0-1.1c0-0.1,0-0.2,0-0.3c0-0.9,0-1.8,0.3-2.5
		c0.3-0.6,0.8-1.3,0.4-1.8c-0.2-0.3-0.7-0.4-1.1-0.4c-0.3,0-0.7,0-1,0c0.3-0.7-0.7-1.5-0.3-2.1c0.1-0.2,0.4-0.3,0.5-0.5
		c0.1-0.2-0.1-0.3-0.1-0.5c-0.3-0.5-0.6-1-1-1.5c-0.1-0.2-0.2-0.4-0.2-0.6c0-0.4,0.5-0.7,0.5-1c0-0.4-0.6-0.8-0.4-1.2
		c0-0.1,0.1-0.2,0.2-0.3c0.2-0.3,0.1-0.6,0.1-0.9c0-0.8,0.2-1.6,0.5-2.4c-0.5,0-0.8-0.4-1.1-0.8c-0.4-0.7-0.6-1.5-0.8-2.3
		c0-0.1-0.1-0.3,0-0.4c0.1-0.1,0.3-0.1,0.4-0.2c0.2-0.1,0.2-0.3,0.3-0.5c0.3-1.1,0.2-2.3-0.4-3.2c-0.4,0.1-0.9,0-1.3-0.3
		c0.4-0.6,0.4-1.4,0-2c-0.2,0-0.3,0-0.5,0c-0.1-0.8-0.2-1.6-0.7-2.2c-0.1-0.2-0.3-0.3-0.4-0.5c-0.1-0.2-0.1-0.4-0.1-0.6
		c0-0.9-0.1-1.7-0.1-2.6c0-0.7-0.1-1.5-0.7-1.9c-0.1-0.1-0.2-0.1-0.3-0.2c-0.1-0.1-0.1-0.3-0.1-0.5c0.1-1.3-0.9-2.4-1.3-3.7
		c-0.2-0.5-0.3-1.1-0.4-1.6c-0.1-0.6-0.2-1.1-0.3-1.7c-0.1-0.4-0.1-0.9-0.2-1.3c-0.2-0.8-0.5-1.6-0.8-2.4c-0.1-0.2-0.2-0.4-0.2-0.6
		c-0.2-0.6-0.4-1.2-0.6-1.7c-0.1-0.2-0.2-0.5-0.3-0.7c-0.2-0.2-0.4-0.4-0.5-0.7c-0.3-0.5-0.3-1.1-0.6-1.6c-0.3-0.5-1.1-0.9-1.4-0.4
		c-0.3,0.4-0.1,1-0.3,1.4c-0.1,0.1-0.2,0.2-0.4,0.3c-1.2,0.8-1.9,2.5-1.6,3.9c0.1,0.4,0.1,0.9-0.2,1.1c-0.1,0-0.2,0-0.3,0.1
		c-0.1,0.1-0.1,0.2-0.2,0.4c-0.1,0.6-0.1,1.2,0,1.7c0.1,0.3,0.2,0.6,0.2,0.9c0,0.3-0.3,0.6-0.6,0.6c-0.3,0.2-0.3,0.6-0.2,1
		c0.1,0.3,0.3,0.7,0.2,1c0,0.4-0.5,0.7-0.9,0.6c-0.4-0.1-0.7,0.4-0.8,0.9c-0.1,0.7-0.2,1.5-0.3,2.2c-0.4,2.1-1.6,4-1.8,6.1
		c0,0.4-0.1,0.9-0.3,1.2c-0.4,0.5-1,0.6-1.6,0.6c-0.2,0.3,0.4,0.6,0.4,1c0,0.1-0.1,0.2-0.1,0.3c-0.2,0.5,0.3,1,0.7,1.5
		c0.1,0.2,0.2,0.4,0.1,0.5c-0.1,0.1-0.3,0.1-0.5,0.2c-0.5,0.2-0.4,0.9-0.7,1.3c-0.3,0.3-0.9,0.3-1.2,0.6c-0.1,0.1-0.2,0.3-0.3,0.5
		c-0.3,1-0.6,2.1-0.5,3.1c0.1,0.3,0.2,0.7,0.2,1c0,0.3-0.1,0.7-0.4,0.9c-0.3,0.2-0.6,0.2-0.9,0.2c-0.3,0.1-0.6,0.3-0.5,0.6
		c0,0.2,0.2,0.3,0.3,0.4c0.5,0.5,0.8,1.2,0.8,1.8c-0.3,0-0.6,0-0.9,0c0,0.5,0.4,0.8,0.8,1.1c0.3,0.3,0.6,1.2,0.1,1.4
		c-1,0.4-1.9,1.1-2.6,2c0,0.1-0.1,0.1-0.1,0.2c0,0.2,0.1,0.3,0.3,0.4c0.8,0.5,1.6,0.7,2.5,0.7c-0.1,0.6,0.4,1.2,1,1.4
		c0,0.2-0.3,0.3-0.5,0.3c-0.2,0-0.4-0.2-0.6-0.1c-0.6,0.1-0.6,1.1-1.2,1.1c-0.1,0-0.2-0.1-0.4-0.1c-0.3-0.1-0.6,0-0.8,0.2
		c-0.2,0.2-0.2,0.6,0,0.8c0.1,0.1,0.3,0.2,0.4,0.3c0.3,0.3,0.3,0.9,0.2,1.3c-0.2,0.4-0.4,0.8-0.5,1.3c0,0.3,0,0.6-0.1,1
		c-0.1,0.5-0.5,0.9-0.3,1.4c0.1,0.2,0.2,0.3,0.3,0.4c0.6,0.6,1.3,1.1,1.9,1.7c0.1,0.1,0.3,0.2,0.5,0.3c0.1,0,0.3,0,0.4-0.1
		c0.8-0.3,1.5-0.5,2.3-0.8c0.2-0.1,0.6-0.1,0.7,0.1c0,0.1,0.1,0.2,0.1,0.2c0.1,0.4,0.7,0.6,0.9,1c0.1,0.2,0,0.5,0,0.7
		c0,0.2,0.3,0.5,0.5,0.3c0.1-0.1,0.1-0.2,0.1-0.2c0.1-0.3,0.1-0.6,0.2-0.9c0.3,0,0.6,0,0.9,0c0,0.3,0.1,0.5,0.1,0.8
		c0.9,0.1,1.8,0.1,2.5-0.3c0.4-0.2,1-0.6,1.4-0.3c0,0.5,0.4,1,0.9,1.1c0,0.1,0,0.2,0,0.4l1-0.3l2.3,0.4c0,0,0,0,0.1,0
		c0.1,0,0.2-0.1,0.3,0c0.1,0,0.1,0.1,0.2,0.2l0.6,0.1c0,0,0-0.1,0-0.1c0.1-0.1,0.3-0.1,0.4-0.3c0.2-0.2,0.1-0.5,0-0.7
		c-0.1-0.2-0.3-0.4-0.4-0.6c-0.1-0.2,0.1-0.6,0.3-0.6c0.1,0,0.2,0.1,0.3,0.1c0.6,0.2,1.2-0.3,1.9-0.3c0.7,0,1.3,0.4,1.8,0.8
		c0.4,0.3,0.9,0.7,1.3,1c0-0.4-0.1-0.9-0.1-1.3c0-0.2,0-0.5,0.2-0.5c0.1-0.1,0.3,0,0.4,0c0.5,0.2,0.9,0.3,1.4,0.5
		c-0.2-0.3-0.1-0.7,0.2-0.9c0.3-0.2,0.6-0.2,1-0.1c0.3,0,0.7,0.1,1,0c0.4-0.1,0.7-0.4,1-0.4c0.2,0,0.3,0,0.4-0.1
		c0.3-0.1,0.3-0.5,0.2-0.8C50.7,53.5,50.6,53.2,50.7,52.9z M25.4,36.3c-0.1,0.2-0.4,0.2-0.6,0c-0.2-0.1-0.2-0.4-0.2-0.6l0.1-0.3
		c0.2,0.1,0.3,0.2,0.5,0.4C25.4,35.9,25.5,36.1,25.4,36.3z M27.1,33.1c0,0-0.1,0-0.1,0c0,0,0-0.1,0-0.1c0-0.5,0-1.1,0-1.6
		c0,0.1-0.1,0.1-0.1,0.2l0.1-0.3c0.2,0.2,0.4,0.3,0.6,0.5c0.1,0,0.1,0.1,0.2,0.2c0,0.1,0,0.1,0.1,0.2C27.9,32.5,27.6,33,27.1,33.1z
		 M31.9,54.3c-0.1,0.1-0.3,0.2-0.4,0.1c0-0.3,0-0.6,0.1-0.8c0-0.1,0-0.2,0.1-0.3c0.1-0.1,0.2-0.2,0.3-0.1l0-0.4c0,0.4,0,0.7,0,1.1
		C32,54,32,54.1,31.9,54.3z M37.6,15.3c-0.1,0.1-0.4,0-0.5-0.1C37,15,37,14.8,37,14.6c0-0.2,0-0.4,0-0.6l0-0.6
		C37.6,13.9,37.8,14.6,37.6,15.3z M39.9,12.3c0,0-0.1-0.1-0.1-0.2c0,0,0,0.1-0.1,0.1c-0.2-0.4-0.4-0.8-0.6-1.2
		c-0.1-0.3-0.2-0.6-0.1-0.8c0,0.3,0.4,0.5,0.5,0.8c0.2,0.3,0.3,0.6,0.3,1C40,12.1,40,12.2,39.9,12.3z M45.2,41.3c-0.1,0-0.1,0-0.2,0
		c-0.2,0-0.3-0.2-0.3-0.3c-0.1-0.6,0.4-1.2,1-1.4l0.3,0C46.3,40.3,45.9,41.1,45.2,41.3z"/>
</g>
</svg>
