<?xml version="1.0" encoding="utf-8"?>
<!-- Generator: Adobe Illustrator 18.0.0, SVG Export Plug-In . SVG Version: 6.00 Build 0)  -->
<!DOCTYPE svg PUBLIC "-//W3C//DTD SVG 1.1//EN" "http://www.w3.org/Graphics/SVG/1.1/DTD/svg11.dtd">
<svg version="1.1" id="Layer_1" xmlns="http://www.w3.org/2000/svg" xmlns:xlink="http://www.w3.org/1999/xlink" x="0px" y="0px"
	 viewBox="0 0 72 72" enable-background="new 0 0 72 72" xml:space="preserve">
<g>
	<path fill="none" d="M25.1,19.7c0.2-0.3,0.4-0.6,0.5-0.9c0-0.1,0-0.1,0-0.2c-0.1-0.2-0.4-0.2-0.6-0.4c-0.3-0.2-0.2-0.6-0.2-0.9
		c0-0.5-0.1-1-0.3-1.4c-0.5,0.5-0.5,1.3-0.3,2C24.4,18.5,24.8,19.1,25.1,19.7z"/>
	<path fill="none" d="M25.5,10.6c0.5,0.2,1,0.3,1.5,0.4c0.1,0,0.3,0,0.4,0c0.3,0,0.6-0.3,0.7-0.5c0.4-0.5,0.6-1.1,0.6-1.7
		c-0.3,0.3-0.5,0.6-0.8,0.9c-0.2,0.2-0.3,0.3-0.5,0.4c-0.2,0.1-0.4,0.1-0.7,0.1c-0.6,0-1.1,0-1.7-0.1C25,10.4,25.3,10.5,25.5,10.6z"
		/>
	<path fill="none" d="M27.8,30.4c0.3,0.1,0.5,0.1,0.8,0.2c0.7,0.3,1.2,0.9,1.9,0.9c-0.1-0.6-0.7-1.1-1.3-1.4
		c-0.2-0.1-0.3-0.2-0.5-0.2c-0.2-0.1-0.4-0.1-0.5,0c-0.3,0-0.6,0-0.9,0.1C27.3,30.1,27.5,30.3,27.8,30.4z"/>
	<path fill="none" d="M27.6,28.3c0.2,0.1,0.4,0.1,0.5,0c-0.3-0.2-0.3-0.7-0.4-1c-0.1-0.3-0.4-0.6-0.6-0.9c-0.2-0.3-0.3-0.6-0.4-1
		c-0.3,0-0.6,0-0.8,0c-0.1,0-0.1,0-0.2,0.1c0,0,0,0.1,0,0.1c-0.1,0.3,0.1,0.6,0.3,0.7c0.1,0.1,0.2,0.1,0.3,0.2
		c0.2,0.1,0.2,0.3,0.3,0.5c0.2,0.3,0.4,0.7,0.7,1C27.3,28,27.4,28.2,27.6,28.3z"/>
	<path fill="none" d="M19.4,19.8c0,0.1,0.1,0.3,0.1,0.4c0,0,0,0,0-0.1L19.4,19.8z"/>
	<path fill="none" d="M19.6,21.6c0,0.1,0.1,0.3,0.2,0.4c0.1,0.1,0.2,0.2,0.4,0.1c0.2,0,0.2-0.2,0.3-0.4c0-0.2,0-0.3,0-0.5
		c-0.3,0-0.5-0.2-0.6-0.5c-0.1-0.2-0.2-0.4-0.3-0.6C19.5,20.7,19.5,21.2,19.6,21.6z"/>
	<path fill="none" d="M24,40c-0.4,0.3-0.8,0.3-1.2,0.5s-0.9,0.4-1,0.8c0.8,0,1.6,0.1,2.4,0.1c0.2,0,0.5,0,0.6-0.2
		c0.1-0.1,0.1-0.3,0.1-0.5c0-0.4,0-0.8,0-1.3C24.6,39.4,24.3,39.8,24,40z"/>
	<path fill="none" d="M22.1,38.5c-0.2,0-0.4,0.2-0.6,0.3c-0.4,0.2-0.8,0.3-1.2,0.3c-0.2,0-0.4,0-0.6,0.1c-0.2,0.1-0.2,0.4,0,0.5
		c0.1,0,0.2,0,0.2,0c1.3-0.3,2.5-0.4,3.8-0.6C23.2,39,22.7,38.4,22.1,38.5z"/>
	<path fill="none" d="M28,24c-0.2,0.1-0.4,0.3-0.4,0.6c0,0.2,0.1,0.3,0.2,0.5c0.4,0.7,0.5,1.5,0.7,2.3c0.1,0.2,0.1,0.4,0.3,0.6
		c0.2,0.3,0.5,0.5,0.8,0.8c0.3,0.2,0.6,0.4,0.9,0.4c-0.4-0.9-0.8-1.8-1.2-2.7c-0.4-0.9-0.8-1.8-0.8-2.8C28.4,23.7,28.2,23.9,28,24z"
		/>
	<path fill="none" d="M23,37.6c0.1,0.1,0.4,0.3,0.5,0.1c-0.2-0.5-0.7-0.9-0.9-1.4c-0.1-0.3-0.2-0.6-0.2-0.8c0-0.4-0.1-0.7-0.1-1.1
		c-0.3,0.3-0.7,0.4-1.1,0.5c0,0.6,0.3,1.1,0.6,1.5C22.1,36.9,22.6,37.3,23,37.6z"/>
	<path fill="none" d="M34.9,43.6c0,0.1,0,0.2,0,0.2l0.5,0C35.2,43.7,35.1,43.6,34.9,43.6z"/>
	<path fill="none" d="M42,43.4c0.3-0.3,0.5-0.6,0.3-1c-0.2,0-0.3,0.3-0.5,0.4c-0.1,0.1-0.2,0-0.4,0c-0.1,0-0.2,0-0.3,0.1l0.4,0.9
		C41.7,43.7,41.8,43.5,42,43.4z"/>
	<path fill="none" d="M32.2,43.8c0-0.1,0-0.2-0.1-0.2c-0.1-0.1-0.2-0.1-0.3-0.2c-0.3-0.2-0.7-0.4-0.9-0.7l-0.1,0.6
		c0.5,0.5,0.9,1,1.2,1.6l0.1-0.1C32.2,44.4,32.2,44.1,32.2,43.8z"/>
	<path fill="none" d="M38.4,44.6c0.6,0,1.2,0,1.7-0.4c0.1-0.1,0.2-0.2,0.4-0.3c0.1-0.1,0.3-0.1,0.4-0.1c0.2,0,0.4-0.1,0.6-0.2
		l-0.4-0.9c-0.4,0.1-0.8,0.5-1.2,0.8C39.5,44.1,38.9,44.4,38.4,44.6z"/>
	<path fill="none" d="M17.5,29c-0.7-0.3-1.2-0.9-1.4-1.6c0,0.5,0,0.9,0,1.4c0,0.1,0,0.2,0,0.2c0.1,0.2,0.3,0.2,0.5,0.2
		c0.3,0,0.5,0.1,0.8,0.2c0.2,0.1,0.4,0.2,0.6,0.2c0.2,0,0.4-0.3,0.3-0.5C18,29.3,17.7,29.2,17.5,29z"/>
	<path fill="none" d="M32.1,44.7L32.1,44.7c-0.1,0.1,0,0.2,0,0.2C32.1,44.8,32.1,44.7,32.1,44.7z"/>
	<path fill="none" d="M34.4,44.4c-0.1,0-0.3-0.1-0.4-0.2c-0.1-0.1-0.3-0.1-0.4-0.1c-0.1,0.1-0.1,0.2-0.1,0.4c0,0.7-0.1,1.3-0.3,1.9
		c0.3-0.1,0.5-0.2,0.7-0.4c0.1-0.1,0.2-0.2,0.4-0.3c0.3-0.2,0.7-0.1,1-0.1c0.4,0,0.8,0,1.1-0.1c0.2,0,0.4-0.1,0.4-0.3
		c0.1-0.2-0.2-0.4-0.4-0.5c-0.2-0.1-0.5-0.1-0.7-0.2c-0.2-0.1-0.2-0.3-0.3-0.5c0,0,0-0.1-0.1-0.1l-0.5,0c0,0.1,0,0.2-0.1,0.3
		C34.7,44.3,34.5,44.4,34.4,44.4z"/>
	<path fill="none" d="M46,25.8l-0.7,0.6C45.7,26.4,45.9,26.1,46,25.8z"/>
	<path fill="none" d="M50.2,41.8c-0.1,0-0.3,0-0.4,0.1c-0.4,0.2-0.8,0.6-1,1c0.3,0.3,0.9,0.2,1.3,0.1c0.1,0,0.2-0.1,0.2-0.1
		c0.1-0.1,0.1-0.3,0.1-0.4C50.5,42.2,50.5,41.9,50.2,41.8z"/>
	<path fill="none" d="M46.1,25.6c0,0.1-0.1,0.1-0.1,0.2l0.2-0.2c0.7-0.7,1-1.7,0.8-2.7C46.6,23.8,46.4,24.7,46.1,25.6z"/>
	<path fill="none" d="M39.5,24.7c0-0.3,0-0.5-0.1-0.8c-0.1,0-0.1,0.1-0.1,0.2c0,0.5,0.1,1.1,0.2,1.6c0.5-1,1.5-1.8,1.7-2.9
		c-0.5,0.5-0.9,1.1-1.4,1.6C39.8,24.6,39.7,24.7,39.5,24.7z"/>
	<path fill="none" d="M54.9,26.4c-0.1,0.1-0.2,0.2-0.2,0.3c-0.5,0.8-0.7,1.8-0.8,2.8c-0.1,0.4-0.1,0.8-0.2,1.1c0,0,0,0.1,0,0.1
		c0,0,0.1,0.1,0.1,0.1c0.2,0.1,0.5-0.1,0.6-0.3c0.1-0.2,0.1-0.5,0.1-0.7c0-0.2-0.1-0.5,0-0.7c0.1-0.2,0.2-0.5,0.3-0.7
		c0.3-0.5,0.5-1.1,0.6-1.7c0-0.1,0-0.3-0.1-0.4C55.1,26.3,55,26.4,54.9,26.4z"/>
	<path fill="none" d="M50.8,16.2c-0.2,0.3-0.6,0.3-0.9,0.3c-0.3,0.1-0.6,0.2-0.9,0.3c-0.3,0.1-0.6,0.2-0.9,0.1
		c0.2-0.4,0.7-0.7,1.1-0.9c0.4-0.2,0.9-0.3,1.4-0.5c0.1-0.1,0.2-0.1,0.3-0.3c-0.4-0.2-0.8-0.4-1-0.7c-0.1-0.1-0.3-0.3-0.4-0.2
		c-0.1,0-0.1,0.1-0.1,0.2c-0.3,0.6-0.8,1.1-1.4,1.2c-0.4,0.1-0.9,0-1.3,0.1c-0.4,0.1-0.9,0.4-0.9,0.9c0,0.1,0.1,0.3,0.1,0.4
		c0.1,0.2,0.2,0.3,0.3,0.4c0.2,0.3,0.6,0.3,1,0.3c0.4,0,0.7-0.2,1-0.2c0.9-0.1,1.8,0.1,2.7,0c0,0,0.1,0,0.1-0.1c0,0,0-0.1,0-0.2
		C50.9,16.9,50.9,16.5,50.8,16.2z"/>
	<path fill="none" d="M39.4,31.7c0,0-0.1-0.1-0.1-0.1c-0.1,0-0.2,0-0.3,0.1c-0.1,0.1-0.1,0.2-0.1,0.3l0,0.2c-0.1,0.2,0,0.4,0.1,0.5
		c0.2,0.1,0.5,0,0.7-0.1c0.4-0.3,0.7-0.6,1-0.9C40.2,32,39.7,32,39.4,31.7z"/>
	<path fill="none" d="M37.8,17.8c0.1,0,0.2-0.2,0.2-0.3c0-0.1,0-0.3,0.1-0.4c0-0.1,0-0.2,0-0.3c0-0.1-0.1-0.1-0.2-0.1
		c-0.4-0.3-0.7-0.7-0.6-1.2l0,0.3c-0.1,0.6,0,1.2,0.3,1.8C37.6,17.6,37.7,17.8,37.8,17.8z"/>
	<path fill="none" d="M34.7,9.5c0.1-0.5,0-0.9,0-1.4s0.2-1,0.7-1.1c-0.1-0.1-0.3-0.1-0.4-0.1c-0.1,0-0.2,0.1-0.4,0.2
		c-0.4,0.1-0.8,0-1.1,0.1c-0.1,0.5,0.2,0.9,0.5,1.3C34.2,8.8,34.4,9.1,34.7,9.5z"/>
	<path fill="none" d="M31.2,17.9c-0.4-0.3-0.7-0.8-0.6-1.3l0,0.4c0.1,0.4,0.2,0.9,0.4,1.2c0.1,0.1,0.1,0.3,0.3,0.3
		c0.1,0.1,0.3,0.1,0.4-0.1c0.1-0.1,0-0.2-0.1-0.3C31.4,18.1,31.3,18,31.2,17.9z"/>
	<path fill="none" d="M29,33.1c-0.6-0.2-1.3-0.4-1.6-0.9c0,0.3-0.1,0.7,0.1,0.9c0.1,0.2,0.3,0.2,0.4,0.3c0.3,0.1,0.6,0.2,0.9,0.2
		c0.2,0,0.5,0,0.7,0.1c0.3,0.1,0.7,0.4,1,0.3C30.3,33.5,29.6,33.3,29,33.1z"/>
	<path fill="none" d="M33.9,10.5c-0.3-0.5-0.5-1-0.6-1.6c-0.1,0.4-0.2,0.8-0.2,1.1c0,0.8-0.1,1.5-0.3,2.3c0.2-0.2,0.5-0.4,0.7-0.5
		c0.3-0.2,0.6-0.5,0.5-0.8C34.1,10.8,34,10.7,33.9,10.5z"/>
	<path fill="none" d="M37,24.2c-0.1,0.6-0.3,1.3-0.9,1.5c0.1,0.1,0.3,0.2,0.4,0.3c0,0,0.1,0.1,0.1,0c0.1,0,0.1-0.1,0.1-0.1
		c0.7-1.3,1.1-2.8,1.1-4.4C37.6,22.4,37.2,23.3,37,24.2z"/>
	<path fill="none" d="M38.8,35.8c-0.1,0-0.1,0-0.2,0.1c-0.3,0.2-0.5,0.6-0.9,0.8c-0.2,0.1-0.5,0.1-0.7,0.2c-0.2,0.1-0.4,0.3-0.3,0.6
		c0.2,0.2,0.4,0.4,0.7,0.4c0.1,0,0.2-0.1,0.3-0.1c0.3-0.2,0.6-0.3,0.9-0.5c0.1-0.1,0.3-0.2,0.4-0.3c0.1-0.2,0.1-0.5,0-0.8
		C39,35.9,39,35.8,38.8,35.8z"/>
	<path fill="none" d="M27.3,38c-0.8-0.2-1.7-0.4-2.5-0.4c-0.3,0.2,0,0.7,0.3,0.8c0.3,0.1,0.7,0,1,0c0.4,0,0.8,0.2,1.2,0.3
		c0.4,0.2,0.9,0.4,1.2,0.8c0.2,0.4,0.2,0.8,0.5,1.1c0.4,0.4,1.1,0.3,1.6,0.6c-0.6-0.9-0.9-2-1.7-2.7C28.3,38.3,27.8,38.1,27.3,38z"
		/>
	<path fill="none" d="M35.3,32.9c-0.1,0.7-0.3,1.3-0.6,1.9c-0.1,0.3-0.3,0.5-0.4,0.8c-0.2,0.5-0.3,1-0.3,1.5c0,0.6,0,1.2,0,1.8
		c0.1-0.3,0.5-0.1,0.8-0.3c0.1-0.1,0.2-0.2,0.2-0.4c0.1-0.5,0.2-1.1,0.3-1.6c0.1-0.4,0.1-0.7,0.2-1.1c0.2-1.2,0.4-2.5,0-3.6
		C35.5,32.2,35.4,32.5,35.3,32.9z"/>
	<path fill="#F04B36" d="M40.8,43.9c-0.1,0-0.3,0-0.4,0.1c-0.1,0.1-0.2,0.2-0.4,0.3c-0.5,0.4-1.1,0.4-1.7,0.4c0.5-0.3,1-0.6,1.5-1
		c0.4-0.3,0.7-0.7,1.2-0.8l-0.5-1.1c0,0,0,0,0,0.1c-0.1,0.2-0.1,0.3-0.3,0.5c-0.2,0.3-0.6,0.4-0.9,0.6c-0.4,0.2-0.8,0.5-1.1,0.9
		c-0.1,0.1-0.1,0.1-0.2,0.1l-2.8,0c0,0,0,0.1,0.1,0.1c0.1,0.2,0.2,0.4,0.3,0.5c0.2,0.1,0.4,0.2,0.7,0.2c0.2,0.1,0.5,0.3,0.4,0.5
		c0,0.2-0.2,0.3-0.4,0.3c-0.4,0.1-0.7,0.1-1.1,0.1c-0.3,0-0.7-0.1-1,0.1c-0.1,0.1-0.3,0.2-0.4,0.3c-0.2,0.2-0.4,0.3-0.7,0.4
		c0.2-0.6,0.3-1.3,0.3-1.9c0-0.1,0-0.3,0.1-0.4c0.1-0.1,0.3,0,0.4,0.1c0.1,0.1,0.2,0.2,0.4,0.2c0.2,0,0.3-0.1,0.4-0.2
		c0-0.1,0.1-0.2,0.1-0.3l-2,0l-0.8,0.8c0,0.1,0,0.1,0,0.2c0,0,0-0.1-0.1-0.1L30.9,46c0,0.1,0.1,0.2,0.1,0.3c0.1,0.3,0.1,0.5,0,0.8
		c0,0.9-0.1,1.7-0.2,2.6c0,0.4-0.1,0.7-0.1,1.1c0,0.3,0,0.6,0,0.9c0,0.5,0.1,1,0.1,1.5c0.1,1.6,0,3.2,0.3,4.8
		c0.3,1.8,0.8,3.6,0.5,5.3c-0.1,0.9,0.1,1.9-0.1,2.8c0,0.3-0.1,0.5-0.1,0.8c0,0.5,0,0.9,0.1,1.4c0.1,0.4,0.1,0.8,0.1,1.2
		c-0.1,0-0.1,0-0.2,0.1c-0.1,0.1-0.3,0.2-0.4,0.3c-0.3,0.2-0.6,0.5-1,0.7c-0.3,0.2-0.6,0.4-0.8,0.6c0.4,0,0.9-0.1,1.3-0.2
		c0.5-0.1,0.9-0.3,1.3-0.8c0.1-0.2,0.2,0.3,0.3,0.2c0.1-0.1,0.2-0.1,0.3-0.1c0.5-0.1,1-0.1,1.5-0.2c0.1,0,0.3,0,0.4,0.1
		c0.1,0.1,0.2,0.3,0.4,0.4c0.2,0.2,0.4-0.5,0.5-0.4c0.3,0.1,0.5,0.4,0.8,0.6c0.3,0.3,0.6,0.6,0.9,0.9c-0.2-0.6-0.5-1.2-0.9-1.4
		c-0.1-0.1-0.3-0.1-0.4-0.3c-0.1-0.1-0.2-0.3-0.4-0.5c-0.2-0.3-0.6-0.2-0.8-0.2c-0.2,0-0.4,0-0.5,0c-0.2-0.6-0.3-1.2-0.3-1.9
		c0-1.2,0.2-2.4,0.1-3.6c-0.1-0.7-0.1-1.4-0.3-2c-0.2-0.7-0.1-1.4-0.2-2.1c-0.2-1.4,0-2.8-0.1-4.2c0-1.2-0.6-2.4-0.7-3.6
		c-0.1-1.2,0-2.4,0.6-3.5c0.5-0.2,0.6-0.6,0.9-1c0.1-0.1,0.1-0.2,0.2-0.2c0.1-0.1,0.2-0.1,0.3-0.1c0.7-0.1,1.3-0.1,2-0.2
		c1-0.2,2-0.4,2.8-1c0.3-0.3,0.6-0.6,1-0.8c0.5-0.3,1-0.4,1.5-0.4l-0.3-0.7C41.3,43.9,41.1,43.9,40.8,43.9z"/>
	<path fill="#E8B944" d="M62.7,31.3c0.1-0.1,0.2-0.1,0.3-0.2c0.2-0.2,0.2-0.6,0.1-0.9c-0.1-0.3-0.3-0.5-0.4-0.8
		c-0.1-0.2,0-0.5-0.2-0.7c-0.2-0.3-0.6-0.4-1-0.5c-0.2,0-0.4-0.1-0.6-0.1c-0.2,0-0.5-0.1-0.7-0.2c-0.1-0.1-0.2-0.3-0.3-0.4
		c-0.1-0.1-0.3-0.2-0.5-0.1c-0.1-0.3,0.2-0.7,0.1-0.9c-0.1-0.1-0.3-0.1-0.4-0.1c-0.1,0-0.3,0.1-0.4,0.2c-0.6,0.4-1.4,0.6-2.1,0.3
		c0,0-0.1,0-0.1-0.1c0,0,0-0.1,0-0.1c0.1-0.4,0.6-0.6,0.8-1c0.2-0.2,0.2-0.6,0.1-0.8c-0.1-0.3-0.4-0.7-0.7-0.7c-0.3-0.1-0.7,0-1,0.2
		c-0.1,0.1-0.1,0.1-0.2,0.1c-0.1,0-0.2-0.1-0.3-0.2C55.1,24.2,55,24,55,23.9c0-0.1,0-0.1-0.1-0.2c0,0-0.1,0-0.2,0
		c-0.2,0-0.4,0-0.7,0c0-0.3-0.1-0.6-0.1-0.9c-0.2,0-0.4,0-0.6-0.1c-0.2-0.1-0.4-0.2-0.5-0.4c0.2-0.1,0.5-0.1,0.7-0.1
		c0.1,0,0.1,0,0.2,0c0.2,0,0.3-0.3,0.3-0.6c0.1,0.2,0.3,0.4,0.5,0.4c0.1-0.5,0.2-1,0.1-1.5c0.2,0.1,0.5,0.2,0.7,0.2
		c0,0,0.1,0,0.1,0.1c0.1,0,0.1,0.1,0.1,0.2c0,0.2,0.1,0.4,0.1,0.6c0.4,0,0.8,0.1,1.1,0.1c-0.1-0.4-0.2-0.7-0.2-1.1
		c0.3-0.1,0.6,0,0.8,0.2c0.2,0.1,0.5,0.3,0.8,0.2c0-0.3-0.1-0.7-0.3-1c0.4-0.1,0.8,0,1,0.3c0.3-0.1,0.5-0.5,0.5-0.8
		c0-0.3-0.1-0.6-0.1-1c0-0.1,0-0.2-0.1-0.3c-0.1-0.1-0.1-0.1-0.2-0.2c-0.3-0.2-0.6-0.3-0.9-0.5c0.2-0.1,0.2-0.3,0.1-0.5
		c-0.1-0.2-0.3-0.2-0.5-0.3c-0.1,0-0.2-0.2-0.2-0.3c0,0,0.1,0,0.1,0c0.2,0,0.5,0,0.7-0.1c0.1-0.1,0.1-0.3,0-0.5
		c-0.1-0.2-0.2-0.3-0.1-0.5c-0.2,0-0.5,0-0.7-0.2c0-0.1-0.1-0.1-0.1-0.2c-0.2-0.3-0.4-0.6-0.5-0.9c0.2,0,0.5,0,0.7,0
		c0.1,0,0.2,0,0.2,0c0.1,0,0.1-0.1,0.2-0.1c0.2-0.1,0.5,0,0.7-0.1c0.3-0.2,0.2-0.7,0-1c0-0.2,0.2-0.2,0.4-0.1
		c0.1,0.1,0.2,0.2,0.3,0.4c0.2,0.2,0.5,0.3,0.8,0.2c0.3-0.1,0.4-0.4,0.4-0.7c0-0.1-0.1-0.2-0.1-0.4c0-0.1,0-0.3,0.2-0.3
		c0.1,0,0.3,0.1,0.2,0.2c0.2-0.4,0.3-1,0.1-1.4c0-0.1-0.1-0.3-0.1-0.4c0-0.2,0.2-0.2,0.3-0.3c0.1-0.1,0.2-0.3,0.1-0.4
		c-0.4-0.1-0.7-0.6-0.6-1.1c0-0.5,0-0.4-0.2,0.1c-0.1-0.5-0.5-0.8-1-0.9c-0.1-0.2,0.1-0.6-0.2-0.7c-0.1,0-0.2,0-0.2,0
		c-0.2,0-0.4-0.2-0.5-0.4c0-0.2,0-0.5-0.1-0.7c-0.2-0.5-1-0.5-1.5-0.3c-0.1-0.2-0.2-0.4-0.2-0.5c-0.3,0.1-0.2,0.5-0.3,0.7
		c-0.1,0.1-0.3,0.2-0.4,0.2C55.8,6,55.4,6.1,55.1,6c-0.3-0.1-0.6-0.4-0.5-0.7c-0.4,0.3-0.6,0.9-0.8,1.4c-0.2,0.5-0.6,1-1.1,1
		c-0.4,0-0.7-0.2-1-0.3C51.3,7.4,50.8,7.7,51,8c-0.2,0-0.4,0-0.5-0.1c-0.1-0.1-0.2-0.3-0.1-0.5c0-0.1,0.1-0.1,0.2-0.2
		c0.2-0.2,0.3-0.5,0.2-0.8c-0.1-0.3-0.4-0.4-0.7-0.4c-0.1,0-0.2,0-0.3,0c-0.1-0.1-0.1-0.2-0.1-0.4c-0.1-0.6-1.2-0.6-1.1-1.2
		c-0.3,0.1-0.7,0.2-1,0.1c-0.1-0.1-0.2-0.1-0.3-0.1c-0.2,0-0.3,0.1-0.5,0.1c-0.2,0-0.4-0.2-0.6-0.2c-0.2,0-0.4,0.1-0.6,0.2
		c-1.1,0.7-2.3,1.3-3.5,1.6c-0.1,0-0.3,0.1-0.4,0.2c-0.1,0.1-0.2,0.4,0,0.5C41.7,7,41.9,7,42.1,6.9c0.1,0.2-0.2,0.3-0.4,0.3
		c-0.5-0.1-1.1-0.2-1.2-0.7c-0.1-0.2,0.1-0.5,0.1-0.7c0.1-0.2,0-0.6-0.2-0.7C40.3,5.1,40.2,5,40.2,5c-0.1-0.1,0-0.3,0-0.4
		c0.1-0.3,0.1-0.8-0.1-1.1c-0.3-0.5-1.4-0.1-1.6-0.7c-0.1-0.2-0.1-0.4-0.1-0.6c-0.1-0.7-0.9-1.1-1.5-0.8c-0.1-0.1-0.1-0.3-0.1-0.5
		c0-0.3-0.3-0.5-0.6-0.4c-0.3,0.1-0.4,0.4-0.3,0.7c-0.8-0.1-1.6,0-2.3,0.1c-0.6,0.1-1.4,0.3-1.6,0.9c-0.1,0.2-0.1,0.4-0.2,0.6
		c-0.1,0.2-0.2,0.3-0.4,0.3C31,3,31.1,2.5,30.9,2.2c-0.2-0.2-0.7-0.2-0.8,0.1C30,2.4,30,2.6,30,2.8c0,0.2-0.2,0.4-0.3,0.4
		c-0.2,0-0.3-0.4-0.6-0.5c-0.2,0-0.4,0.2-0.4,0.5c0,0.2,0,0.5-0.1,0.7c-0.2,0.2-0.4,0.1-0.6,0c-0.2-0.1-0.3-0.3-0.4-0.5
		c-0.4,0.1-0.7,0.7-0.5,1.1c0.1,0.4,0.6,0.7,0.5,1.2c0,0.4-0.4,0.6-0.8,0.7c-0.4,0.1-0.7,0.1-1.1,0.2c-0.3,0.1-0.5,0.4-0.6,0.7
		c-0.4,0-0.6-0.5-0.6-0.9c0-0.4,0.2-0.8,0.2-1.1c-0.4-0.2-0.9,0-1.2,0.2c-0.4,0.2-0.7,0.5-1.2,0.6c-0.3,0-0.5-0.1-0.8,0
		c-0.4,0.1-0.6,0.7-0.3,1c-0.2,0.2-0.6,0.2-0.8,0c-0.2-0.2-0.3-0.5-0.3-0.8c0-0.1,0-0.2-0.1-0.2c-0.1,0-0.1,0-0.2,0
		c-0.4,0-0.7,0.1-1.1,0.1C19,6.6,19.2,7,19.3,7.4c-0.3-0.1-0.5-0.3-0.8-0.5c-0.3-0.2-0.6-0.3-0.9-0.1c-0.3,0.2-0.3,0.6,0,0.7
		c-0.1,0.4-1,0.3-1.1,0.7c-0.1,0.2,0.1,0.5,0.3,0.5c0.2,0.1,0.5,0,0.7,0c-0.2,0.4-0.6,0.7-1,0.6c-0.1,0.5-0.2,1-0.3,1.6
		c-0.1,0.6,0,1.2,0,1.8c0.2-0.1,0.3-0.4,0.3-0.6c0-0.2,0-0.5,0.1-0.7c0.1,0.3,0.1,0.5,0.2,0.8c0,0.1,0,0.1,0.1,0.1
		c0.1,0,0.2-0.1,0.2-0.2c0.1-0.2,0.1-0.5,0.3-0.7c0.1-0.2,0.4-0.3,0.6-0.2c0.1,0.1,0.2,0.3,0.1,0.4c0,0.1,0,0.2-0.1,0.3
		c-0.1,0.2-0.3,0.2-0.5,0.3c-0.2,0.1-0.4,0.4-0.5,0.6c0,0.1,0,0.3,0.1,0.4c0.1,0.1,0.2,0.1,0.3,0.1c0.1,0.2-0.1,0.3-0.3,0.4
		c-0.2,0-0.4,0-0.5,0.1c-0.2,0.1-0.1,0.4,0,0.6c0.1,0.2,0.3,0.3,0.5,0.4c0.2,0,0.4,0.1,0.5,0.2c0.1,0.2-0.2,0.6,0,0.8
		c0.1,0,0.1,0.1,0.2,0.1c0.4,0,0.8-0.3,1.1-0.7c0,0.2,0,0.3,0,0.5c0,0.1,0,0.1,0,0.2c-0.1,0.1-0.2,0.1-0.2,0.2
		c-0.1,0.1,0,0.3,0.1,0.4c0.1,0.1,0.3,0,0.5,0c0,0.2,0.1,0.4,0,0.5c0,0.1-0.1,0.1-0.1,0.2c-0.2,0.3-0.1,0.8,0.1,1.1
		c-0.3,0.2-0.6,0-0.8-0.2c-0.4-0.3-0.7-0.6-1-1c-0.3-0.4-0.5-0.8-0.8-1.1c-0.2-0.1-0.4-0.2-0.5-0.4c-0.2-0.1-0.3-0.3-0.3-0.5
		c0,0,0-0.1,0-0.1c0,0,0.1,0,0.1,0c0.1,0,0.1-0.1,0.1-0.2c0-0.1-0.1-0.1-0.2-0.2c-0.2-0.1-0.5-0.1-0.7-0.1c-0.2,0-0.5-0.2-0.5-0.5
		c-0.3,0-0.6,0.1-0.8,0.3c-0.2,0.2-0.4,0.5-0.4,0.7c-0.1-0.2-0.4-0.3-0.6-0.3c-0.2,0.1-0.4,0.3-0.4,0.5c-0.2-0.1-0.5,0-0.6,0.1
		c-0.2,0.2-0.3,0.4-0.4,0.6c0,0.1-0.1,0.2-0.2,0.3c-0.1,0.1-0.4,0.2-0.4,0.3c-0.1,0.2,0.2,0.4,0.4,0.5c-0.1,0.2-0.4,0.3-0.6,0.3
		c-0.1,0-0.2,0-0.3,0c-0.2,0-0.3,0.3-0.2,0.4c0.1,0.2,0.3,0.2,0.4,0.1c-0.2,0.4-0.1,0.9,0.2,1.3c0.1,0.1,0.2,0.1,0.3,0.1
		c-0.1,0.1,0,0.2,0.1,0.3c0.1,0.1,0.2,0.1,0.3,0.1c0.3,0,0.6,0,0.9,0c0.1,0.2-0.1,0.4-0.3,0.5c-0.2,0-0.4,0-0.6,0
		c-0.2,0-0.5,0.1-0.5,0.3c-0.1,0.2,0.2,0.4,0.4,0.6c0.1,0.1,0.2,0.1,0.3,0c0,0,0-0.1,0.1-0.1c0.1,0,0.1,0,0.2,0.1
		c0.2,0.2,0.3,0.6,0.2,0.9c0,0.1-0.1,0.2-0.1,0.3c-0.1,0.3,0.1,0.6,0.4,0.7c-0.2,0.1-0.5,0.1-0.7,0.2c-0.1,0-0.1,0-0.2,0.1
		c-0.1,0.1-0.2,0.2-0.1,0.4c0,0.1,0.1,0.3,0.1,0.4c0.2,0.3,0.3,0.6,0.5,1c0.1,0.1,0.1,0.3,0,0.4c-0.1,0-0.2,0-0.3,0.1
		c0,0.1,0,0.1,0.1,0.2c0.1,0,0.1,0,0.2,0.1c0.2,0.1,0.2,0.4,0,0.5c-0.1,0.1-0.4,0.2-0.6,0.2c-0.4,0.1-0.8,0.1-1.2,0.2
		c-0.1,0-0.2,0-0.2,0.1C10,26.6,10.1,27,10,27.2c-0.2,0.2-0.2,0.6-0.5,0.7c-0.1,0-0.1,0-0.2,0c-0.3,0-0.5,0.4-0.4,0.7
		C9,28.9,9.4,29.1,9.7,29c0.1,0,0.2,0,0.2,0c0,0,0.1,0.1,0.1,0.1c0.1,0.4-0.3,0.8-0.4,1.3c-0.1,0.2,0,0.5,0.2,0.5
		c0.1,0,0.2,0,0.3,0.1c0.1,0.1,0.1,0.2,0.1,0.3c0,0.1-0.1,0.2-0.1,0.4c0,0.2,0.1,0.4,0.3,0.6c0.2,0.1,0.4,0.2,0.6,0.3
		c0,0.2-0.1,0.3-0.1,0.5c0,0.3,0.2,0.5,0.5,0.6c0.4,0.2,0.8,0.3,1.2,0.3c-0.1,0.2,0.1,0.4,0,0.6c-0.1,0.1-0.3,0.1-0.5,0.2
		c-0.2,0.1-0.3,0.2-0.4,0.4c-0.1,0.2,0,0.4,0,0.6c0,0.4,0.1,0.7,0.1,1.1c0.3-0.1,0.6,0.4,0.9,0.3c0,0.2,0.1,0.3,0.1,0.5
		c0,0,0,0.1,0,0.1c0,0-0.1,0.1-0.1,0.1c0,0.4-0.1,0.7-0.3,1.1c-0.2,0.5-0.5,0.9-0.4,1.4c0,0.1,0.1,0.3,0.2,0.4c0.1,0,0.1,0,0.2,0
		c-0.3,0.4-0.6,0.8-0.7,1.3c-0.1,0.3-0.1,0.8,0.2,0.9c0.1,0,0.1-0.1,0.2-0.2c0,0.1,0,0.1,0.1,0.2c0.2,0.4,0.5,0.7,0.5,1.1
		c0-0.3,0-0.7,0.1-1c0.2,0.1,0.4,0.3,0.4,0.6c0.1,0.2,0.1,0.5,0.3,0.7c0.1-0.3,0.2-0.6,0.3-0.9c0.2,0.5,0.4,0.9,0.6,1.4
		c0.2-0.3,0.2-0.8,0-1.1c0.2,0.5,0.5,0.9,0.8,1.2c0.2-0.1,0.3-0.3,0.3-0.5c0.1,0.3,0.1,0.7-0.1,0.8c-0.1,0-0.2,0.1-0.2,0.1
		c-0.1,0.1-0.1,0.2-0.1,0.3c0.1,0.7,0.4,1.3,1,1.7c0-0.3-0.1-0.6-0.1-0.9c0.2,0.2,0.2,0.5,0.4,0.8c0.1,0.2,0.3,0.5,0.6,0.5
		c0.3,0,0.6-0.3,0.9-0.2c0.1,0.2,0.3,0.4,0.4,0.6c0.3-0.2,0.3-0.7,0.1-1c-0.1-0.4-0.3-0.7-0.4-1.1c0.3,0.5,0.7,1.1,1,1.6
		c0,0.1,0.1,0.2,0.2,0.1c0.1,0,0.1-0.1,0.1-0.2c0.1-0.2,0.3-0.3,0.6-0.3c0.2,0,0.5-0.1,0.5-0.3c0-0.1,0-0.2,0-0.3
		c0-0.1,0.1-0.1,0.2-0.2c0.2-0.1,0.4-0.2,0.5-0.2c0.2,0,0.4,0.1,0.5,0.2c0.1,0.2,0.1,0.4,0.2,0.6c0.1,0.2,0.3,0.3,0.5,0.3
		c0.2,0,0.4,0.1,0.6,0.2s0.3,0.4,0.2,0.5c0.3,0,0.5,0,0.8,0.1c-0.2,0.1-0.4,0.2-0.6,0.3c-0.1,0-0.1,0.1-0.1,0.1
		c-0.1,0.2,0.2,0.3,0.4,0.3c0.4,0,0.8-0.1,1.2-0.2c0.5,0.1,1,0.1,1.5,0.2c0.2,0,0.4,0,0.6-0.2c0.1-0.1,0.1-0.3,0-0.5
		c0-0.1-0.1-0.1-0.1-0.2c0.3,0.2,0.7,0.3,1.1,0.3c-0.1-0.3-0.3-0.6-0.6-0.6c0-0.2,0.3-0.1,0.4-0.1c0.1,0.1,0.3,0.2,0.4,0
		c0-0.4-0.1-0.8-0.1-1.1c0-0.1,0-0.3,0.1-0.4c0.1-0.1,0.3,0,0.4,0.1c0.1,0.1,0.3,0.2,0.4,0.3c0.1,0.1,0.1,0.1,0.2,0.1
		c0.1,0,0.2-0.1,0.2-0.2c0.2-0.4,0.2-0.8,0.1-1.3c0.3,0,0.6,0,0.7,0.3c0,0.1,0,0.3,0.1,0.4c0.2,0.2,0.4,0,0.6,0
		c0.1,0,0.2,0.1,0.3,0.2l1.1-1.2c-0.3-0.6-0.7-1.1-1.2-1.6l0.1-0.6c0.3,0.3,0.6,0.5,0.9,0.7c0.1,0.1,0.2,0.1,0.3,0.2
		c0,0.1,0.1,0.2,0.1,0.2c0,0.3,0,0.6,0,0.9l0.8-0.8l2,0c0-0.1,0-0.2,0-0.2c0.2,0,0.3,0.1,0.4,0.2l2.8,0c-0.1,0-0.1-0.1-0.2-0.1
		c-0.5-0.5-0.5-1.3-0.4-2c0-0.7,0.1-1.4-0.1-2.1c-0.1-0.2-0.2-0.4-0.2-0.6c0-0.2,0.1-0.5,0.3-0.5c0.2,0,0.3,0.1,0.5,0.2
		c0.2-0.3,0.6-0.3,0.9-0.2c0.3,0.1,0.6,0.4,0.9,0.4c0.3,0.1,0.6,0,0.8,0.3c0.1,0.1,0,0.3,0,0.4c0,0.2,0.1,0.3,0.2,0.4
		c0.1,0.1,0.2,0.2,0.3,0.4c0,0.1,0,0.3-0.1,0.4c-0.1,0.3-0.2,0.5-0.3,0.8l0.5,1.1c0.1,0,0.2-0.1,0.3-0.1c0.1,0,0.3,0,0.4,0
		c0.2-0.1,0.3-0.4,0.5-0.4c0.1,0.3-0.1,0.7-0.3,1c-0.1,0.1-0.3,0.3-0.5,0.4l0.3,0.7c0.6,0,1.3,0.1,1.9,0.3c0.1,0,0.2,0.1,0.3,0.2
		c0,0.1,0,0.2,0,0.2c0,0.3-0.1,0.7,0.2,0.9c0.1,0.2,0.4,0.2,0.5,0.4c0.1,0.1,0.1,0.3,0.2,0.5c0.1,0.7,0.6,1.4,1.3,1.8
		c-0.1-0.5-0.2-1.1-0.3-1.6c0.3,0.5,0.5,1.1,0.8,1.6c0.2,0.3,0.4,0.7,0.7,0.9c0.4,0.2,1.1,0.2,1.2,0.7c0.2-0.2,0.2-0.4,0.2-0.7
		c0.6,0.8,1.6,1.3,2.6,1.2c0.1-0.3,0-0.7-0.2-0.9c0.4,0,1-0.2,1.2,0.2c0.1,0.1,0.1,0.3,0.1,0.3c0.1,0.1,0.2,0.1,0.3,0.1
		c0.1-0.4,0.1-0.9,0-1.4c0.4,0.5,0.8,0.9,1.3,1.4c0.1,0.1,0.2,0.2,0.4,0.2c0.2,0,0.4-0.1,0.6-0.2c0.3-0.1,0.5,0.1,0.8,0.1
		c0.3,0.1,0.6,0.1,0.8-0.1c0.2-0.3,0-0.9,0.2-1.1c0.1-0.1,0.2-0.1,0.3-0.2c0.4-0.3,0.2-1-0.2-1.3c-0.3-0.4-0.8-0.8-0.7-1.3
		c0.5,0.7,1.5,0.9,2.2,0.5c0-0.2,0-0.3,0-0.5c0-0.1,0-0.3,0.1-0.4c0.1-0.1,0.2-0.2,0.3-0.1c0.1,0.1,0.1,0.1,0.1,0.2
		c0.1,0.2,0.3,0.2,0.5,0.2c0.2,0,0.5,0,0.6-0.3c0.1-0.2,0-0.6,0.1-0.8c0.1,0,0.1,0,0.2,0c0,0.1,0.1,0.1,0.1,0.2
		c0.1,0.3,0.5,0.5,0.8,0.5c0.3,0,0.7-0.1,1-0.2c0.1-0.2,0-0.5-0.1-0.6c-0.1-0.1-0.2-0.1-0.3-0.2c-0.1-0.1-0.1-0.2,0-0.3
		c0.2,0,0.3,0.1,0.5,0.1c0.1,0,0.1,0,0.2,0c0,0,0-0.1,0-0.1c0-0.1,0-0.2,0-0.3c0,0,0-0.1,0-0.1c0,0-0.1-0.1-0.1-0.1
		c-0.2-0.1-0.5-0.2-0.7-0.4c-0.2-0.2-0.4-0.4-0.3-0.7c0.2,0.1,0.4,0.1,0.5-0.1c0.1-0.2,0-0.4-0.1-0.5c-0.2-0.2-0.5-0.2-0.7-0.3
		c-0.2-0.1-0.4-0.4-0.3-0.6c0.2,0,0.4-0.2,0.5-0.4c0.1-0.2,0.1-0.5,0.1-0.7c0-0.1,0-0.2-0.1-0.3c-0.1-0.1-0.2-0.2-0.3-0.1
		c-0.1,0-0.1,0.1-0.2,0.1c-0.1,0-0.1,0-0.2,0c0.2-0.3,0.4-0.6,0.2-0.9c-0.1-0.2-0.4-0.3-0.6-0.3c-0.1,0-0.2,0-0.2,0
		c-0.1,0-0.1,0.1-0.1,0.2c-0.1,0.4-0.5,0.6-0.8,0.5c0-0.3-0.1-0.6-0.1-1c0-0.1,0-0.1,0-0.1c0,0-0.1-0.1-0.2-0.1
		c-0.2,0-0.4-0.1-0.6,0c-0.1,0-0.1,0-0.2,0.1c0,0,0,0.1-0.1,0.1c0,0.4,0,0.8,0,1.2c-0.3,0.1-0.7-0.2-0.6-0.5c0-0.2,0.2-0.3,0.3-0.5
		c0.1-0.1,0.1-0.3,0.1-0.4c0-0.2,0-0.4-0.2-0.4c-0.1-0.1-0.3-0.1-0.5,0c-0.2,0-0.3,0.1-0.5,0c-0.1-0.1-0.2-0.3-0.1-0.4
		c0.3-0.1,0.5-0.3,0.6-0.5c-0.3-0.1-0.6-0.1-0.9-0.2c-0.2-0.1-0.4-0.1-0.5-0.3c-0.1-0.1-0.2-0.4-0.1-0.5c0.1-0.2,0.4-0.2,0.5,0
		c0.1,0,0.3,0,0.5-0.1c0.1,0,0.1,0,0.1,0c0,0,0-0.1,0-0.2c-0.1-0.4-0.2-0.9-0.4-1.2c0.1,0.1,0.2,0.3,0.3,0.4
		c0.1,0.1,0.3,0.2,0.5,0.1c0.1,0,0.1-0.1,0.1-0.2c0.2-0.5-0.5-1-0.6-1.5c0.3,0.1,0.6,0.4,1,0.5c0.3,0.1,0.8,0.1,1-0.2
		c-0.3,0-0.6-0.2-0.7-0.4c1,0.1,2,0.3,3,0.5c0.1-0.3-0.2-0.6-0.2-0.9c0-0.1,0-0.1,0-0.2c0,0,0.1-0.1,0.1-0.1
		c0.6-0.1,1.1,0.4,1.7,0.3c0.1,0,0.2,0,0.2-0.1C63,33,63,32.9,63,32.8c0-0.3-0.1-0.6-0.2-0.9C62.7,31.7,62.6,31.5,62.7,31.3z
		 M18,29.7c-0.2,0-0.4-0.1-0.6-0.2c-0.2-0.1-0.5-0.2-0.8-0.2c-0.2,0-0.4,0-0.5-0.2c0-0.1,0-0.2,0-0.2c0-0.5,0-0.9,0-1.4
		c0.2,0.7,0.7,1.3,1.4,1.6c0.3,0.1,0.5,0.2,0.8,0.2C18.5,29.4,18.3,29.7,18,29.7z M29.4,26.4c0.4,0.9,0.8,1.8,1.2,2.7
		c-0.3,0.1-0.7-0.1-0.9-0.4c-0.3-0.2-0.6-0.5-0.8-0.8c-0.1-0.2-0.2-0.4-0.3-0.6c-0.2-0.8-0.3-1.6-0.7-2.3c-0.1-0.2-0.2-0.3-0.2-0.5
		c0-0.2,0.2-0.4,0.4-0.6c0.2-0.1,0.4-0.2,0.5-0.4C28.5,24.5,29,25.5,29.4,26.4z M28.1,29.8c0.2,0,0.4,0,0.5,0
		c0.2,0.1,0.3,0.1,0.5,0.2c0.6,0.3,1.2,0.8,1.3,1.4c-0.7,0.1-1.2-0.6-1.9-0.9c-0.3-0.1-0.5-0.1-0.8-0.2s-0.5-0.3-0.6-0.5
		C27.5,29.8,27.8,29.8,28.1,29.8z M26.6,26.9c-0.1-0.2-0.2-0.4-0.3-0.5c-0.1-0.1-0.2-0.1-0.3-0.2c-0.2-0.2-0.3-0.5-0.3-0.7
		c0,0,0-0.1,0-0.1c0-0.1,0.1-0.1,0.2-0.1c0.3,0,0.6,0,0.8,0c0.1,0.3,0.2,0.7,0.4,1c0.2,0.3,0.4,0.6,0.6,0.9c0.1,0.4,0.1,0.8,0.4,1
		c-0.1,0.1-0.4,0.1-0.5,0c-0.2-0.1-0.3-0.2-0.4-0.4C27,27.5,26.8,27.2,26.6,26.9z M26.7,10.2c0.2,0,0.5,0,0.7-0.1
		c0.2-0.1,0.4-0.3,0.5-0.4c0.3-0.3,0.5-0.6,0.8-0.9c0,0.6-0.2,1.2-0.6,1.7C28,10.7,27.7,11,27.4,11c-0.1,0-0.3,0-0.4,0
		c-0.5-0.1-1-0.2-1.5-0.4c-0.2-0.1-0.5-0.2-0.5-0.5C25.6,10.1,26.1,10.2,26.7,10.2z M24.4,15.9c0.2,0.4,0.3,0.9,0.3,1.4
		c0,0.3,0,0.7,0.2,0.9c0.2,0.1,0.5,0.2,0.6,0.4c0,0.1,0,0.1,0,0.2c-0.1,0.3-0.2,0.7-0.5,0.9c-0.3-0.7-0.7-1.2-1-1.9
		C23.9,17.2,23.9,16.4,24.4,15.9z M22.3,34.4c0,0.4,0.1,0.7,0.1,1.1c0,0.3,0.1,0.6,0.2,0.8c0.2,0.5,0.7,0.9,0.9,1.4
		c-0.1,0.1-0.4,0-0.5-0.1c-0.4-0.4-0.8-0.8-1.2-1.2c-0.3-0.5-0.6-1-0.6-1.5C21.6,34.8,22,34.6,22.3,34.4z M19.4,19.8l0.1,0.3
		c0,0,0,0,0,0.1c0.1,0.2,0.2,0.4,0.3,0.6c0.1,0.2,0.4,0.5,0.6,0.5c0,0.2,0,0.3,0,0.5c0,0.2-0.1,0.3-0.3,0.4c-0.1,0-0.3,0-0.4-0.1
		c-0.1-0.1-0.1-0.2-0.2-0.4c-0.1-0.5-0.1-0.9-0.1-1.4C19.5,20.1,19.4,20,19.4,19.8z M20,39.6c-0.1,0-0.2,0-0.2,0
		c-0.2-0.1-0.1-0.4,0-0.5C20,39,20.2,39,20.4,39c0.4,0,0.8-0.1,1.2-0.3c0.2-0.1,0.4-0.2,0.6-0.3c0.6-0.1,1.1,0.5,1.6,0.5
		c0.1,0,0.2,0,0.3,0c-0.1,0-0.2,0-0.3,0C22.5,39.2,21.2,39.4,20,39.6z M24.9,41.2c-0.1,0.2-0.4,0.2-0.6,0.2c-0.8,0-1.6-0.1-2.4-0.1
		c0.1-0.4,0.6-0.7,1-0.8s0.9-0.2,1.2-0.5c0.3-0.2,0.6-0.6,1-0.5c0,0.4,0,0.8,0,1.3C25,40.9,25,41.1,24.9,41.2z M28.9,40.7
		c-0.3-0.3-0.3-0.8-0.5-1.1c-0.2-0.4-0.7-0.6-1.2-0.8c-0.4-0.2-0.8-0.3-1.2-0.3c-0.3,0-0.7,0.1-1,0c-0.3-0.1-0.5-0.6-0.3-0.8
		c0.9,0.1,1.7,0.2,2.5,0.4c0.5,0.1,1.1,0.3,1.5,0.6c0.9,0.7,1.2,1.8,1.7,2.7C30,41,29.3,41.1,28.9,40.7z M29.6,33.7
		c-0.2-0.1-0.5-0.1-0.7-0.1c-0.3,0-0.6-0.1-0.9-0.2c-0.2-0.1-0.3-0.2-0.4-0.3c-0.2-0.3-0.2-0.6-0.1-0.9c0.3,0.6,1,0.8,1.6,0.9
		c0.6,0.2,1.3,0.4,1.6,0.9C30.2,34.1,29.9,33.8,29.6,33.7z M31.5,18.5c-0.1,0.1-0.3,0.1-0.4,0.1c-0.1-0.1-0.2-0.2-0.3-0.3
		c-0.2-0.4-0.3-0.8-0.4-1.2l0-0.4c-0.1,0.5,0.2,1,0.6,1.3c0.1,0.1,0.2,0.1,0.3,0.2C31.6,18.2,31.6,18.4,31.5,18.5z M33.5,7.2
		c0.3-0.1,0.7,0,1.1-0.1c0.1,0,0.2-0.1,0.4-0.2c0.1,0,0.3,0,0.4,0.1c-0.5,0.1-0.7,0.6-0.7,1.1s0.1,0.9,0,1.4c-0.2-0.3-0.5-0.7-0.7-1
		C33.7,8.1,33.4,7.6,33.5,7.2z M33.6,11.8c-0.2,0.2-0.5,0.4-0.7,0.5c0.1-0.7,0.2-1.5,0.3-2.3c0-0.4,0-0.8,0.2-1.1
		c0.1,0.6,0.3,1.1,0.6,1.6c0.1,0.2,0.2,0.3,0.2,0.5C34.2,11.3,33.9,11.6,33.6,11.8z M35.6,35.4c-0.1,0.4-0.1,0.7-0.2,1.1
		c-0.1,0.5-0.2,1.1-0.3,1.6c0,0.1-0.1,0.3-0.2,0.4c-0.2,0.2-0.7,0-0.8,0.3c0-0.6,0-1.2,0-1.8c0-0.5,0.1-1,0.3-1.5
		c0.1-0.3,0.2-0.5,0.4-0.8c0.3-0.6,0.4-1.3,0.6-1.9c0.1-0.4,0.2-0.7,0.3-1.1C36,32.9,35.8,34.2,35.6,35.4z M37.2,15.7l0-0.3
		c0,0.5,0.2,1,0.6,1.2c0.1,0,0.1,0.1,0.2,0.1c0,0.1,0,0.2,0,0.3c0,0.1,0,0.3-0.1,0.4c0,0.1-0.1,0.3-0.2,0.3c-0.1,0-0.3-0.1-0.3-0.3
		C37.2,17,37.1,16.3,37.2,15.7z M36.6,26c0,0-0.1,0-0.1,0c-0.1-0.1-0.3-0.2-0.4-0.3c0.6-0.2,0.7-0.9,0.9-1.5
		c0.2-0.9,0.6-1.8,0.9-2.7c0,1.5-0.4,3-1.1,4.4C36.7,25.9,36.7,26,36.6,26z M39.1,36.8c-0.1,0.1-0.2,0.2-0.4,0.3
		c-0.3,0.2-0.6,0.3-0.9,0.5c-0.1,0.1-0.2,0.1-0.3,0.1c-0.3,0-0.5-0.2-0.7-0.4c-0.1-0.2,0.1-0.5,0.3-0.6c0.2-0.1,0.5-0.1,0.7-0.2
		c0.4-0.2,0.6-0.6,0.9-0.8c0,0,0.1-0.1,0.2-0.1c0.1,0,0.2,0.2,0.2,0.3C39.1,36.3,39.2,36.6,39.1,36.8z M39.6,32.7
		c-0.2,0.1-0.5,0.3-0.7,0.1c-0.2-0.1-0.2-0.3-0.1-0.5l0-0.2c0-0.1,0-0.2,0.1-0.3c0.1-0.1,0.2-0.2,0.3-0.1c0.1,0,0.1,0.1,0.1,0.1
		c0.3,0.3,0.9,0.3,1.2,0C40.3,32.1,40,32.4,39.6,32.7z M39.6,25.7c-0.2-0.5-0.2-1.1-0.2-1.6c0-0.1,0-0.2,0.1-0.2
		c0.1,0.3,0.1,0.5,0.1,0.8c0.1,0,0.2-0.1,0.3-0.2c0.5-0.5,0.9-1.1,1.4-1.6C41.1,24,40.1,24.7,39.6,25.7z M46.2,25.6L46,25.8
		c-0.1,0.3-0.4,0.6-0.7,0.6l0.7-0.6c0-0.1,0.1-0.1,0.1-0.2c0.3-0.9,0.5-1.9,1-2.7C47.2,23.9,46.9,24.9,46.2,25.6z M50.5,42.5
		c0,0.1,0,0.3-0.1,0.4c-0.1,0.1-0.2,0.1-0.2,0.1c-0.4,0.1-1,0.2-1.3-0.1c0.2-0.4,0.6-0.8,1-1c0.1-0.1,0.3-0.1,0.4-0.1
		C50.5,41.9,50.5,42.2,50.5,42.5z M51,17.4c0,0-0.1,0-0.1,0.1c-0.9,0.1-1.8-0.1-2.7,0c-0.3,0.1-0.7,0.2-1,0.2c-0.4,0-0.7,0-1-0.3
		c-0.1-0.1-0.2-0.3-0.3-0.4c-0.1-0.1-0.1-0.2-0.1-0.4c0-0.4,0.4-0.8,0.9-0.9c0.4-0.1,0.9,0,1.3-0.1c0.6-0.1,1.1-0.6,1.4-1.2
		c0-0.1,0.1-0.2,0.1-0.2c0.2-0.1,0.3,0.1,0.4,0.2c0.3,0.3,0.6,0.6,1,0.7c0,0.1-0.2,0.2-0.3,0.3c-0.4,0.2-0.9,0.3-1.4,0.5
		c-0.4,0.2-0.9,0.5-1.1,0.9c0.3,0.1,0.6,0.1,0.9-0.1c0.3-0.1,0.6-0.3,0.9-0.3c0.3-0.1,0.7,0,0.9-0.3c0.1,0.3,0.1,0.7,0.2,1
		C51,17.3,51,17.3,51,17.4z M55.3,26.8c-0.1,0.6-0.3,1.2-0.6,1.7c-0.1,0.2-0.3,0.4-0.3,0.7c0,0.2,0,0.5,0,0.7c0,0.2,0,0.5-0.1,0.7
		c-0.1,0.2-0.4,0.4-0.6,0.3c0,0-0.1,0-0.1-0.1c0,0,0-0.1,0-0.1c0.1-0.4,0.1-0.8,0.2-1.1c0.2-1,0.3-1.9,0.8-2.8
		c0.1-0.1,0.1-0.2,0.2-0.3c0.1-0.1,0.2-0.1,0.3,0C55.3,26.5,55.3,26.7,55.3,26.8z"/>
</g>
</svg>
