<?xml version="1.0" encoding="utf-8"?>
<!-- Generator: Adobe Illustrator 18.0.0, SVG Export Plug-In . SVG Version: 6.00 Build 0)  -->
<!DOCTYPE svg PUBLIC "-//W3C//DTD SVG 1.1//EN" "http://www.w3.org/Graphics/SVG/1.1/DTD/svg11.dtd">
<svg version="1.1" id="Layer_1" xmlns="http://www.w3.org/2000/svg" xmlns:xlink="http://www.w3.org/1999/xlink" x="0px" y="0px"
	 viewBox="0 0 72 72" enable-background="new 0 0 72 72" xml:space="preserve">
<g>
	<path fill="#010101" d="M17.4,37.3c0-0.1,0-0.3,0-0.4C17.3,37,17.3,37.2,17.4,37.3z"/>
	<path fill="#010101" d="M53.3,31.4C53.3,31.4,53.3,31.4,53.3,31.4C53.3,31.4,53.3,31.4,53.3,31.4z"/>
	<path fill="#010101" d="M29.4,53.7c-0.1,0-0.1,0-0.2,0C29.2,53.8,29.4,53.7,29.4,53.7z"/>
	<path fill="none" d="M38.5,7.9c-0.4,0.3-0.9,0.5-1.4,0.6c0.1,0.6,0.1,1.3,0,1.9c-0.1,0.5-0.5,1-1,1.2l0.2,0
		C37.8,11.2,38.8,9.5,38.5,7.9z"/>
	<path fill="none" d="M40.7,20.8c-0.1,0.1-0.1,0.2-0.2,0.3c-0.1,0.5-0.4,1.1-0.7,1.4c-0.2,0.2-0.4,0.4-0.5,0.6
		c-0.1,0.5,0.3,0.9,0.7,1.1l0.2,0c0.5-0.2,0.9-0.7,1-1.3c0.1-0.6,0-1.1,0-1.7C41.2,21,41,20.6,40.7,20.8z"/>
	<path fill="none" d="M38.9,49.9c-0.3,0.2-0.2,0.6-0.2,1c0,0.7-0.3,1.4-0.9,1.8l0.9,0c0.5-0.4,0.9-1,1-1.6c0.1-0.3,0.1-0.7-0.1-0.9
		C39.5,49.8,39.1,49.7,38.9,49.9z"/>
	<path fill="none" d="M30.6,37.8c-0.1-0.2-0.1-0.4-0.1-0.7c0-0.4-0.2-0.8-0.4-1.1c0,0.8-0.4,1.5-0.9,2.1c-0.3,0.4-0.8,0.8-0.6,1.2
		l0,0.2c0.1-0.3,0.4-0.5,0.8-0.6c0.3,0,0.7,0,1-0.1c0.3-0.1,0.6-0.5,0.4-0.8C30.7,37.9,30.6,37.8,30.6,37.8z"/>
	<path fill="none" d="M30.4,25.5c-0.2,0.4-0.2,0.9-0.4,1.4c-0.2,0.4-0.7,0.8-1.1,0.6c0,0.2,0,0.3,0,0.5l0.1,0.4
		c0.5-0.2,1.1-0.3,1.6-0.5c0.1,0,0.2-0.1,0.3-0.1c0.1-0.1,0.1-0.3,0.1-0.4c0-0.8,0.1-1.7,0.1-2.5C30.8,25,30.5,25.2,30.4,25.5z"/>
	<path fill="none" d="M25.2,18.1c0.1,0.2,0.3,0.3,0.5,0.4c0-0.1,0-0.3,0-0.4C25.5,18.1,25.3,18.1,25.2,18.1z"/>
	<path fill="none" d="M27.2,18.2c-0.4,0.4-1,0.5-1.5,0.3c0,0.6,0,1.3-0.1,1.9l0,0c0.3-0.1,0.4,0.5,0.7,0.5c0.1,0,0.2-0.1,0.3-0.2
		C27.1,20.1,27.4,19.1,27.2,18.2z"/>
	<path fill="none" d="M28.9,46.7c-0.1-0.1-0.1-0.1-0.2-0.1c-0.3,0-0.3,0.4-0.2,0.6c0.1,0.9-0.5,1.9-1.4,2.1l0.1,0.5
		c0.8-0.1,1.5-0.3,2.1-0.8c0.6-0.5,0.9-1.3,0.7-2C29.5,47.1,29.1,47,28.9,46.7z"/>
	<path fill="none" d="M28.3,10.7c0.4,0.5,1.2,0.1,1.9,0.2c0.2-0.2,0.1-0.5-0.1-0.7c-0.2-0.2-0.4-0.3-0.6-0.5C29.1,9.5,29,9,29.2,8.7
		L28,8.3c-0.1,0.6,0,1.2,0.1,1.9C28.1,10.3,28.2,10.6,28.3,10.7z"/>
	<path fill="none" d="M47.6,20.8c0,0.1,0,0.1,0,0.2l0.1,0C47.7,21,47.7,20.8,47.6,20.8z"/>
	<path fill="none" d="M47.5,21.1c0,0.4-0.1,0.7-0.1,1.1c0,0.3,0,0.6,0.3,0.7c0.3,0.1,0.6-0.3,0.5-0.6C48.3,21.7,48,21.2,47.5,21.1z"
		/>
	<path fill="none" d="M43.7,33.5c0.1-0.5-0.2-1.1-0.4-1.6l0,1.1c-0.3-0.1-0.6,0.1-0.7,0.4c-0.1,0.3-0.1,0.6-0.1,0.9
		C43,34.5,43.6,34,43.7,33.5z"/>
	<path fill="none" d="M43.2,42.2c0-0.1,0-0.1,0-0.2c0,0-0.1,0-0.1,0L43.2,42.2z"/>
	<path fill="none" d="M47.4,21c0,0,0.1,0,0.1,0.1c0,0,0,0,0,0L47.4,21z"/>
	<path fill="none" d="M45.8,40.2c-0.1-0.2-0.4-0.5-0.6-0.4c-0.1,0-0.1,0.1-0.2,0.2c-0.3,0.6-0.4,1.5-1.1,1.7c-0.1,0-0.3,0-0.4,0.1
		c-0.1,0-0.2,0.2-0.3,0.3c0.8,0.2,1.5,0.3,2.3,0.3c0.3,0,0.6,0,0.8-0.2c0.3-0.3,0.1-0.8-0.1-1.2C46.1,40.7,45.9,40.4,45.8,40.2z"/>
	<path fill="#E77528" d="M34.5,57.8c0.1,0.2,0.3,0.3,0.5,0.5c0.1,0.2,0.2,0.4,0.2,0.7c0.2,3,0.3,6.1,0.2,9.1c0,1-0.1,2-0.6,2.8
		c-0.1,0.2-0.1,0.1,0.1,0.2c1.2,0.4,2.6,0.6,3.8,0.4c0.3-1.1-0.3-2.2-0.6-3.3c-0.3-0.9-0.3-1.9-0.4-2.9c-0.1-1.8-0.2-3.6-0.3-5.4
		c-0.1-1.1-0.1-2.3,0.4-3.3c0.1-0.2,0.3-0.5,0.5-0.7l-4.2,0.5C34.4,56.7,34.2,57.4,34.5,57.8z"/>
	<path fill="#06728D" d="M54.7,43.7c0,0.2-0.3,0.3-0.5,0.2c-0.2-0.1-0.3-0.2-0.5-0.3c-0.8-0.3-1.4,0.9-2.2,0.8
		c-0.4-0.1-0.6-0.4-0.7-0.8c-0.1-0.4,0-0.8,0.1-1.1c0.5,0.4,1.3,0,1.5-0.6c0.2-0.6,0-1.3-0.2-1.8c-0.2-0.6-0.5-1.2-0.5-1.8
		c0.5-0.3,1.3,0.3,1.6-0.2c0.1-0.1,0.1-0.3,0.1-0.4c0.2-1.3,0.4-2.6,0.6-4c-0.7,0.3-1.3,0.7-2,1c-0.2,0.1-0.5,0.2-0.6,0.1
		c-0.2-0.2-0.1-0.6,0-0.8c0.5-0.8,0.9-1.6,1.4-2.4c0.1-0.1,0.1-0.2,0.2-0.2c0.1,0,0.2,0.1,0.2,0.2c0.5-0.9,0.7-2.1,0.6-3.1
		c-0.3,0.1-0.7,0.3-1,0.5c0.4-1.9,0.8-3.7,1.1-5.6c-0.9,0.1-2,0-2.2-0.9c-0.1-0.3,0-0.6-0.1-0.9c-0.1-0.3-0.4-0.5-0.6-0.4
		c0.4-0.3,0.4-1,0.1-1.4c-0.3-0.4-0.9-0.5-1.4-0.4c1.1-0.3,1.8-1.5,1.5-2.6c-1.1,0-2.1-1-2.1-2.1c-0.4-0.1-0.8-0.1-1.3-0.2
		c0.5-1.2,1.1-2.6,0.4-3.7c-0.2-0.3-0.5-0.5-0.6-0.8c-0.3-0.7,0.2-1.8-0.5-2.2c-0.2-0.1-0.4-0.2-0.6-0.3c-0.3-0.3-0.2-0.8-0.2-1.2
		c0-0.4-0.3-0.9-0.7-0.8c-0.3-0.4,0-1,0.1-1.5c0.1-0.5-0.4-1.2-0.8-0.9C45,3.2,45,3.5,44.8,3.6c-0.3,0.3-0.9,0-1.2-0.3
		c-0.9-0.7-2-1-3.1-1c0-0.3,0-0.6,0-0.9c-1.5-0.1-2.9-0.1-4.4,0c0-0.3-0.1-0.6-0.3-0.8c-0.4-0.1-0.8,0.3-1,0.7
		c-0.1,0.4-0.2,0.9-0.6,1.2c-0.3,0.3-1.1,0-0.9-0.4c-0.1-0.5-1-0.2-1.2,0.3c-0.2,0.5-0.5,1.2-1,1.1c-0.3,0-0.5-0.2-0.7-0.3
		c-0.4-0.2-1-0.1-1.4,0.3c-0.3,0.4-0.3,1,0,1.4c-0.7-0.1-1.5-0.1-1.8,0.5c-0.1,0.2-0.1,0.5-0.2,0.8C27,6.6,26.4,6.9,26,7.3
		c-0.4,0.3-0.9,0.9-0.7,1.4c0.2,0.1,0.4,0.1,0.6-0.1c-0.8,0.9-1.5,1.9-2.2,2.9c0.4,0,0.7,0.7,0.4,0.9c-0.5-0.2-1.1,0.2-1.2,0.8
		c-0.1,0.5,0,1.1,0.2,1.6c-0.8,0-1.6,0.6-1.7,1.4c0.4,0.1,0.9,0,1.3-0.2c0.1,0.4,0.2,0.7,0.1,1.1c-0.1,0.3-0.5,0.6-0.9,0.5
		c-0.1,1.1-0.2,2.1-0.3,3.2c0,0.2,0,0.5-0.2,0.7C21,22,20,21.8,19.5,22.4c-0.2,0.2-0.2,0.6-0.2,0.9c-0.2,2.6,0,5.3,0.6,7.8
		c-0.2-0.6-0.9-1-1.5-0.9c0.3,0.9,0.3,1.9,0,2.7c-0.1,0.3-0.2,0.5-0.2,0.8c0,0.4,0.4,0.7,0.4,1c0.1,0.7-0.8,1.4-0.5,2.1
		c0.1,0.2,0.3,0.3,0.3,0.6c0,0.3-0.4,0.5-0.7,0.3c-0.2-0.1-0.3-0.3-0.3-0.4c0.1,0.9,0.2,1.8,0.3,2.7c0.1,0.6,0.5,1.3,1,1
		c0.1-0.3,0.3-0.7,0.2-1c-0.1-0.3-0.4-0.5-0.6-0.4c0.4-0.1,1,0,1.2,0.4c0.3,0.4,0.3,1-0.1,1.4c-0.2,0.2-0.4,0.3-0.5,0.5
		c-0.6,0.7-0.1,1.7,0.4,2.5c0-0.3,0-0.6,0.1-0.9c0.7,0,0.9,0.9,1,1.6c0.1,1,0.2,2,0.2,3c0.1,0.9,0.4,1.6,0.6,2.4
		c0.3,0,0.6,0,0.9,0.1c-0.2,0.4,0.1,0.9,0.4,1.3c0.3,0.3,0.8,0.7,0.8,1.1c0.2-0.3,0.4-0.5,0.7-0.6c0.1,0.7,0.1,1.4,0.1,2.2
		c0.3,0.1,0.6,0.1,0.9,0.1c0.1-0.2,0.1-0.5,0.2-0.7c-0.1,0.7,0.5,1.5,1.2,1.5c0-0.6-0.1-1.2-0.1-1.7c0.3,0,0.5-0.3,0.7-0.3
		c0.5-0.1,0.6,0.6,0.5,1.1c-0.2,0.4-0.5,0.9-0.2,1.3c0.2,0.3,0.6,0.3,0.8,0.2c0.3-0.2,0.3-0.6,0.2-0.8c0.4,0.2,0.8,0.3,1.3,0.3
		c0.3-0.6,0.1-1.4-0.4-1.9c0.2-0.1,0.4-0.1,0.5,0c0.1,0.1,0,0.1,0,0.2c0.7,0,1.5,0,2.1,0.5c0.7,0.6,0.8,1.7,1.6,2
		c0.3,0.1,0.7,0.1,0.9,0.3l4.2-0.5c0.6-0.6,1.5-0.9,2.2-0.5c0.2,0.1,0.4,0.3,0.6,0.2c0.2,0,0.4-0.3,0.6-0.4c0.4-0.4,1-0.5,1.6-0.3
		c0.5,0.2,0.9,0.8,0.9,1.3c1.1-0.2,2.1-1.1,2.3-2.2c0.3,0.2,0.7,0.3,1.1,0.2c0-0.6,0.1-1.3,0.1-1.9c0-0.1,0-0.3,0.1-0.3
		c0.1,0,0.2,0,0.3,0c0.7,0.2,1.4,0.4,2.1,0.6c0-0.6,0.6-0.9,1.1-1.1c0.6-0.1,1.2-0.1,1.6-0.5c0.7-0.6,0.5-1.7,0.1-2.5
		c0.5-0.3,1-0.9,0.6-1.4c-0.1-0.1-0.3-0.2-0.4-0.3c-0.5-0.4-0.2-1.3,0.3-1.8C54,44.8,54.6,44.3,54.7,43.7z M28,8.3l1.2,0.4
		C29,9,29.1,9.5,29.4,9.8c0.2,0.2,0.4,0.3,0.6,0.5c0.2,0.2,0.3,0.5,0.1,0.7c-0.6-0.1-1.5,0.3-1.9-0.2c-0.1-0.2-0.2-0.4-0.2-0.6
		C28,9.5,28,8.9,28,8.3z M26.5,20.7c-0.1,0.1-0.2,0.2-0.3,0.2c-0.3,0-0.4-0.6-0.7-0.5l0,0c0.1-0.6,0.2-1.3,0.1-1.9
		c-0.2-0.1-0.4-0.2-0.5-0.4c0.2,0,0.3,0,0.5,0c0,0.1,0,0.3,0,0.4c0.5,0.2,1.1,0.1,1.5-0.3C27.4,19.1,27.1,20.1,26.5,20.7z M29.2,49
		c-0.6,0.5-1.4,0.7-2.1,0.8l-0.1-0.5c0.9-0.2,1.6-1.2,1.4-2.1c0-0.3,0-0.7,0.2-0.6c0.1,0,0.2,0.1,0.2,0.1c0.3,0.2,0.7,0.3,1,0.3
		C30.1,47.7,29.8,48.6,29.2,49z M30.4,38.8c-0.3,0.1-0.7,0.1-1,0.1c-0.3,0-0.7,0.2-0.8,0.6l0-0.2c-0.2-0.4,0.2-0.9,0.6-1.2
		c0.5-0.6,0.8-1.3,0.9-2.1c0.2,0.3,0.4,0.7,0.4,1.1c0,0.2,0,0.5,0.1,0.7c0.1,0.1,0.2,0.2,0.2,0.3C31,38.3,30.7,38.7,30.4,38.8z
		 M31,27.4c0,0.1,0,0.3-0.1,0.4c-0.1,0.1-0.2,0.1-0.3,0.1c-0.5,0.2-1.1,0.3-1.6,0.5L28.9,28c0-0.2,0-0.3,0-0.5
		c0.4,0.2,0.9-0.2,1.1-0.6c0.2-0.4,0.2-0.9,0.4-1.4c0.2-0.3,0.4-0.5,0.7-0.6C31.1,25.7,31.1,26.6,31,27.4z M36.2,11.6l-0.2,0
		c-0.1,0-0.1,0-0.2,0.1c0.1,0,0.2,0,0.2-0.1c0.5-0.2,0.9-0.7,1-1.2c0.2-0.6,0.1-1.2,0-1.9c0.5-0.1,1-0.3,1.4-0.6
		C38.8,9.5,37.8,11.2,36.2,11.6z M39.8,51c-0.2,0.6-0.5,1.2-1,1.6l-0.9,0c0.6-0.4,0.9-1.1,0.9-1.8c0-0.3-0.1-0.8,0.2-1
		c0.3-0.2,0.7-0.1,0.8,0.2C39.9,50.4,39.8,50.7,39.8,51z M41.3,23c-0.1,0.6-0.5,1.1-1,1.3l-0.2,0c-0.4-0.3-0.8-0.7-0.7-1.1
		c0.1-0.2,0.3-0.4,0.5-0.6c0.4-0.4,0.6-0.9,0.7-1.4c0-0.1,0-0.3,0.2-0.3c0.2-0.2,0.5,0.2,0.5,0.5C41.3,21.9,41.4,22.5,41.3,23z
		 M42.5,34.3c0-0.3-0.1-0.6,0.1-0.9c0.1-0.3,0.4-0.5,0.7-0.4l0-1.1c0.3,0.5,0.5,1,0.4,1.6C43.6,34,43,34.5,42.5,34.3z M46.3,42.1
		c-0.2,0.2-0.5,0.2-0.8,0.2c-0.8,0-1.5-0.1-2.3-0.3c0,0.1,0,0.1,0,0.2l0.1,0.2l-0.1-0.2L43.1,42c0,0,0.1,0,0.1,0
		c0-0.1,0.1-0.3,0.3-0.3c0.1,0,0.3,0,0.4-0.1c0.7-0.1,0.8-1,1.1-1.7c0-0.1,0.1-0.2,0.2-0.2c0.2-0.1,0.5,0.2,0.6,0.4
		c0.1,0.3,0.3,0.5,0.4,0.8C46.4,41.3,46.6,41.8,46.3,42.1z M47.8,22.8c-0.2-0.1-0.3-0.4-0.3-0.7c0-0.4,0-0.7,0.1-1.1
		c0,0-0.1,0-0.1-0.1l0.1,0c0-0.1,0-0.1,0-0.2c0.1,0,0.2,0.2,0.1,0.2l-0.1,0c0,0,0,0,0,0c0.4,0.2,0.7,0.6,0.8,1.1
		C48.3,22.5,48.1,22.9,47.8,22.8z"/>
</g>
</svg>
