<?xml version="1.0" encoding="utf-8"?>
<!-- Generator: Adobe Illustrator 18.0.0, SVG Export Plug-In . SVG Version: 6.00 Build 0)  -->
<!DOCTYPE svg PUBLIC "-//W3C//DTD SVG 1.1//EN" "http://www.w3.org/Graphics/SVG/1.1/DTD/svg11.dtd">
<svg version="1.1" id="Layer_1" xmlns="http://www.w3.org/2000/svg" xmlns:xlink="http://www.w3.org/1999/xlink" x="0px" y="0px"
	 viewBox="0 0 72 72" enable-background="new 0 0 72 72" xml:space="preserve">
<g>
	<path fill="none" d="M29.3,19.2c0.2-0.2,0.3-0.6,0.2-0.9c-0.6,0.5-1.5,0.4-2.2,0.3c-0.8-0.1-1.6-0.3-2.3-0.1c0,0.2,0.2,0.4,0.4,0.4
		c0.2,0.1,0.4,0.1,0.6,0.1c0.2,0,0.4,0,0.6,0c0.2,0,0.5,0,0.7,0.1c0.2,0.1,0.4,0.3,0.3,0.6c-0.1,0.4-0.6,0.5-0.7,0.8
		c0,0.1,0,0.2,0,0.3c0,0.5-0.6,0.7-1,0.8c-0.1,0-0.3,0.2-0.2,0.3c0,0.1,0.2,0.1,0.3,0.1c0.2,0,0.5-0.1,0.7-0.1c0.1,0,0.3,0,0.4-0.1
		c0.2-0.2,0.3-0.5,0.3-0.8c0-0.2,0-0.4,0-0.6c0-0.1,0-0.2,0.1-0.3c0,0,0.1-0.1,0.2-0.1c0.3-0.1,0.6-0.3,0.9-0.4
		C28.8,19.5,29.1,19.4,29.3,19.2z"/>
	<path fill="none" d="M25.4,43.6c0.1-0.1,0.1-0.3,0-0.5C25.2,43,25,43,24.8,43c-0.3,0.1-0.5,0.3-0.7,0.5c-0.3,0.3-0.6,0.6-0.8,1
		c-0.1,0.2-0.2,0.5-0.4,0.6c-0.1,0-0.2,0-0.3,0c-0.5,0-0.9,0.2-1.2,0.5c0.2,0.2,0.4,0.4,0.5,0.7c0,0.1,0,0.1,0.1,0.2
		c0,0,0.1,0,0.1,0c0.6,0,1.2-0.5,1.3-1.1c0-0.1,0-0.2,0.1-0.3c0.1-0.1,0.3-0.1,0.4-0.1c0.4,0,0.9-0.1,1.3-0.3
		c0.1-0.1,0.2-0.2,0.2-0.3c-0.1-0.1-0.2,0-0.3-0.1c-0.1-0.1-0.1-0.3,0-0.4C25.2,43.8,25.3,43.7,25.4,43.6z"/>
	<path fill="none" d="M26.1,34.5c-0.1,0-0.2,0-0.3,0c-0.4,0.1-0.8,0.3-1.3,0.4c-0.6,0.2-1.4,0.3-1.7-0.2c-0.2-0.3-0.1-0.8-0.5-0.9
		c-0.2-0.1-0.5,0.1-0.6,0.3c-0.1,0.2-0.2,0.5-0.4,0.6c-0.1,0.1-0.3,0.1-0.5,0.1c-1,0.1-2,0.2-3,0.3c-0.3,0-0.6,0.1-0.7,0.4
		c-0.1,0.4,0.4,0.7,0.8,0.7c0.4,0,0.9,0,1.1,0.4c0,0.1,0.1,0.2,0.1,0.3c0.1,0.2,0.4,0.2,0.7,0.1c0,0.3,0.3,0.5,0.6,0.4
		c0.3-0.1,0.5-0.2,0.8-0.3c-0.5,0.7-0.6,1.6-0.4,2.4c0.2,0.1,0.5,0,0.7-0.2c0.2-0.2,0.2-0.4,0.4-0.6c0.4-0.3,0.9,0.1,1.4,0.1
		c0.4,0,0.6-0.4,0.7-0.7c0.1-0.4,0-0.7,0-1.1c0.3,0,0.5,0,0.8,0c0.1-0.3,0.2-0.7,0.5-0.7c0.1,0,0.3,0,0.4,0c0.6-0.1,0.9-0.8,0.6-1.3
		C26.3,34.7,26.2,34.6,26.1,34.5z"/>
	<path fill="none" d="M35.2,26.7c-0.4-0.2-0.9-0.2-1.4-0.2c-0.1,0-0.2,0-0.3,0.1c-0.1,0.1-0.2,0.3-0.3,0.4c-0.3,0.5-0.9,0.8-1.6,0.8
		c-0.6,0.1-1.2-0.1-1.8-0.1c-0.4,0-0.9,0.1-1,0.4c0,0.3,0.2,0.5,0.1,0.8c0,0.2-0.2,0.4-0.3,0.5c-0.5,0.6-0.5,1.6,0,2.2
		c0.2,0.2,0.4,0.4,0.7,0.4c0.3,0,0.5-0.2,0.5-0.5c0-0.2-0.1-0.3,0-0.5c0.1-0.1,0.2-0.1,0.3-0.1c0.3-0.1,0.6-0.1,0.9-0.2
		c0.1,0,0.3-0.1,0.4,0c0.2,0,0.3,0.2,0.4,0.3c0.4,0.3,1,0.4,1.5,0.2c0.3-0.1,0.5-0.4,0.4-0.6c-0.1-0.3-0.6-0.3-0.9-0.6
		c-0.2-0.2,0.1-0.5,0.3-0.6c0.3-0.1,0.5,0,0.8,0c0.1,0,0.3,0,0.3-0.1c0.1-0.1,0.1-0.4-0.1-0.5c-0.1-0.1-0.3-0.2-0.5-0.2
		c0.2-0.3,0.5-0.4,0.8-0.4c0.3,0,0.6,0.1,0.9,0c0.2,0,0.4-0.1,0.4-0.3c0-0.1,0-0.1,0-0.2C35.9,27.3,35.6,26.9,35.2,26.7z"/>
	<path fill="none" d="M36,19.4c0-0.2,0.2-0.4,0.3-0.5c0.3-0.5,0-1.2-0.6-1.3c-0.3,0-0.7-0.1-0.6-0.3c0-0.3,0.4-0.3,0.6-0.5
		c0.1-0.2,0-0.5-0.3-0.6c-0.2-0.1-0.5,0-0.7,0.1c-0.1-0.1,0-0.4,0.2-0.4c0.2-0.1,0.4-0.1,0.5-0.2c0.1-0.1,0.1-0.2,0.1-0.4
		c0.1-1-0.1-2-0.6-2.9c0.1,0.7,0.2,1.4,0.1,2.2c0,0.1,0,0.2-0.1,0.3c-0.1,0.1-0.2,0.1-0.3,0.1c-0.5,0.1-1.1,0.3-1.2,0.9
		c-0.1,0.8,1.1,1.3,1.1,2.1c0,0.2-0.1,0.4-0.1,0.6c0,0.3,0.3,0.4,0.5,0.6c0.3,0.3,0.3,0.7,0.5,1.1c0.2,0.4,0.5,0.7,0.9,0.7
		c0.1,0,0.1,0,0.2-0.1c0.1-0.1,0.1-0.1,0.1-0.2c0-0.3-0.1-0.6-0.3-0.8C36.2,19.7,36.1,19.6,36,19.4z"/>
	<path fill="none" d="M58.8,19.6c0.2-0.3,0.1-0.8,0.4-1.1c0.2-0.2,0.5-0.4,0.7-0.5c0.3-0.2,0.6-0.4,0.8-0.6c0.2-0.2,0.3-0.4,0.3-0.6
		c-0.6,0-1.2,0-1.8,0.1c-0.1,0-0.1,0-0.2,0.1c0,0,0,0.1,0,0.2c0,0.3,0,0.7-0.2,0.9c-0.1,0.1-0.3,0.2-0.4,0.3c0,0.1,0,0.2,0,0.3
		c0,0.5,0,1,0,1.5C58.6,20,58.7,19.8,58.8,19.6z"/>
	<path fill="none" d="M57,22c0.3,0.1,0.7,0.2,1.1,0.2c0.3,0,0.6,0,0.8-0.2c0.2-0.2,0.3-0.6,0-0.8c-0.1-0.1-0.2-0.1-0.3-0.1
		c-0.3-0.2-0.3-0.6-0.3-0.9v0c-0.2,0.1-0.5,0.3-0.7,0.4c-0.5,0.2-0.9,0.7-0.8,1.2c0,0.1,0,0.1,0.1,0.2C56.9,21.9,57,21.9,57,22z"/>
	<path fill="none" d="M38,2.8c0,0.7-0.1,1.4-0.3,2.1c0,0.1,0,0.1-0.1,0.2c-0.1,0.1-0.2,0.1-0.3,0.1c-0.3,0.1-0.7,0.2-0.7,0.5
		c-0.1,0.5,0.8,0.8,0.7,1.3c-0.1,0.2-0.3,0.4-0.6,0.3c-0.2,0-0.5-0.1-0.7-0.3C35.9,7,35.8,7,35.6,7c-0.3,0.1-0.3,0.5-0.3,0.8
		c0,0.3,0.1,0.6,0.3,0.8c0.2,0.2,0.6,0.2,0.9,0.1c0.3-0.1,0.6-0.3,0.8-0.5c0.2-0.3,0.3-0.6,0.1-0.9C37.7,7.4,38,7.2,38,6.9
		c0-0.3-0.2-0.5-0.4-0.7c-0.2-0.2-0.3-0.5-0.1-0.7c0.4,0.2,0.9,0.2,1.4,0.2c0.1,0,0.2,0,0.3-0.1c0.1-0.1,0.1-0.3,0.1-0.4
		C39.2,4.3,38.7,3.3,38,2.8z"/>
	<path fill="none" d="M25.2,11.2c0.3,0.2,0.7,0.3,1,0.2c-0.1-0.4,0-0.8,0.3-1.2c0-0.1,0.1-0.1,0.1-0.1c0.1,0,0.3,0.1,0.3,0.2
		c0.1,0.1,0.1,0.3,0.1,0.4c0.1,0.5,0.7,0.8,1.1,0.6c0.1-0.1,0-0.3-0.1-0.5c-0.1-0.1-0.3-0.2-0.4-0.3c-0.3-0.3-0.6-0.6-0.9-0.9
		c-0.3-0.3-0.6-0.6-1-0.7c-0.5-0.1-1.1,0.2-1.7,0.1c-0.1,0.5,0.1,1,0.4,1.5C24.7,10.8,24.9,11,25.2,11.2z"/>
	<path fill="none" d="M14.2,43.6c-0.1-0.2-0.2-0.4-0.3-0.6c0,0,0,0,0,0c0,0-0.1,0-0.1,0.1c0,0.1,0,0.1,0,0.2c0,0.1-0.1,0.2-0.2,0.3
		c-0.5,0.3-1,0.6-1.4,0.9c0.3,0,0.6,0,1,0c0.5,0.1,1,0.3,1.4,0.7c0.2-0.3,0-0.7-0.1-1C14.4,44,14.3,43.8,14.2,43.6z"/>
	<path fill="none" d="M20.2,6.8c0.1,0.1,0.2,0.1,0.4,0.2c0.4,0.1,0.9,0.3,1.4,0.2c-0.6-0.6-1.2-1.2-1.9-1.7L19.9,5
		c0,0.3,0,0.7,0.1,1C19.9,6.3,20,6.6,20.2,6.8z"/>
	<path fill="none" d="M20.1,28.5c0.1,0.2,0.1,0.4,0.3,0.5c0.2,0.2,0.5,0.1,0.8,0.1c-0.1-0.3-0.2-0.6-0.2-0.9c0-0.1,0-0.1,0-0.2
		c0-0.1,0.1-0.1,0.2-0.1c0.6-0.3,1.1-0.7,1.5-1.1c0.2-0.3,0.4-0.6,0.3-1c-0.2,0.2-0.5,0.4-0.7,0.7c-0.1,0.1-0.2,0.2-0.4,0.3
		c-0.1,0-0.3,0-0.4,0c-0.5-0.1-1.1-0.2-1.4-0.6c-0.7,0.6-1.6,0.8-2.5,0.7c0.3,0.3,0.7,0.3,1.1,0.4C19.3,27.4,19.8,27.9,20.1,28.5z"
		/>
	<path fill="none" d="M18.8,19.4c0.3,0,0.7-0.1,0.8-0.4c0-0.3-0.2-0.5-0.4-0.6c-0.2-0.1-0.5-0.2-0.6-0.4c-0.2-0.3-0.1-0.7-0.3-1
		c-0.2-0.5-1-0.7-1.3-1.2c-0.2,0.9,0.2,1.8,0.6,2.5c0.1,0.1,0.1,0.1,0.2,0.2c0.1,0.1,0.1,0.3,0.3,0.5C18.2,19.2,18.5,19.4,18.8,19.4
		z"/>
	<path fill="none" d="M15.4,11.9c-0.7,0.3-1.5,0.3-2.3,0.2c-0.1,0.1-0.1,0.3,0,0.5c0.1,0.1,0.3,0.2,0.4,0.3c0.3,0.1,0.7,0.1,1,0
		c0.5-0.1,1-0.4,1.5-0.4c0.1,0,0.3,0,0.4,0c0.1-0.1,0.2-0.2,0.3-0.3c0.3-0.5,0.3-1.1,0-1.5C16.6,11.2,16,11.7,15.4,11.9z"/>
	<path fill="none" d="M17.7,18.5c0-0.1-0.1-0.1-0.1-0.2c-0.1,0-0.1-0.1-0.2-0.1L17.7,18.5z"/>
	<path fill="none" d="M46.2,30.9c0.2,0.2,0.3,0.5,0.4,0.8c0.1,0.3,0.1,0.6,0.2,1c0,0.1,0,0.3-0.1,0.4c0,0.1-0.1,0.1-0.2,0.2
		c-0.3,0.3-0.2,0.9-0.1,1.3c0.1,0.6,0.3,1.2,0.4,1.7c0.6-1.5,1.2-3,1.8-4.5c0.1-0.3,0.2-0.5,0.3-0.8c0.1-0.2,0.2-0.5,0.1-0.7
		c-0.1-0.3-0.3-0.4-0.6-0.5c-0.4-0.3-0.9-0.5-1.4-0.5c-0.4,0-0.8,0.2-1.2,0.4c-0.2,0.1-0.4,0.2-0.5,0.4c-0.1,0.2-0.2,0.4-0.1,0.6
		C45.7,30.6,46,30.7,46.2,30.9z"/>
	<path fill="none" d="M44.5,27.4c-0.2-0.1-0.4-0.1-0.6-0.3c0,0.2,0,0.5,0.1,0.7c0.2,0.3,0.7,0.3,1.1,0.3c0.5-0.1,1-0.2,1.6-0.3
		C46,27.9,45.2,27.6,44.5,27.4z"/>
	<path fill="none" d="M51.2,43.7c-0.2-0.4-0.2-1-0.6-1.2c-0.2-0.1-0.4-0.1-0.5-0.3c0-0.1-0.1-0.2-0.1-0.2c-0.1-0.1-0.2-0.2-0.3-0.2
		c-0.5-0.2-1,0.2-1.4,0.4c-0.9,0.5-1.9,0.8-2.9,0.8c0.1,1.1,1.3,2,2.4,1.9c-0.1,0.2-0.2,0.5-0.1,0.7s0.2,0.5,0.5,0.5
		c0.3,0,0.5-0.3,0.7-0.4c0.2-0.1,0.4,0,0.6-0.1c0.1-0.1,0.2-0.2,0.4-0.3c0.4-0.3,0.9,0,1.3,0.2c0.4,0.2,1,0.4,1.3,0
		c0.2-0.3,0-0.8-0.3-1C51.8,44.2,51.4,44,51.2,43.7z"/>
	<path fill="none" d="M54.2,31c0.1,0.1,0.2,0.2,0.3,0.3c0.4,0.4,1.1,0.3,1.7,0.1c0.6-0.2,1.1-0.4,1.7-0.3c-0.1-0.5-0.2-1-0.3-1.4
		c0-0.1,0-0.2,0-0.3c0-0.1,0.1-0.2,0.2-0.3c0.4-0.4,0.8-0.7,1.3-0.9c0.2-0.1,0.3-0.1,0.4-0.3c0.1-0.1,0.2-0.3,0-0.5
		c-0.3-0.3-0.6-0.6-0.9-0.8c-0.5-0.5-1.1-0.9-1.7-1.2c-0.4-0.1-0.9-0.2-1.3,0.1c-0.4,0.2-0.6,0.7-0.5,1.2c0.2,0.5,1,0.7,1.5,0.5
		c0.2,0,0.4-0.1,0.6-0.2c0.1-0.1,0.2-0.1,0.4-0.1c0.3,0,0.6,0.4,0.5,0.7c-0.1,0.3-0.4,0.6-0.7,0.7c-1,0.6-2.2,0.8-3.3,0.7
		c-0.5,0-1.2-0.1-1.5,0.3c-0.1,0.1-0.2,0.3-0.3,0.4c-0.2,0.2-0.4,0.2-0.6,0.3c-0.6,0.3-0.9,1-0.8,1.6c0.4,0.2,0.9-0.2,1.4-0.4
		c0.4-0.2,0.9-0.3,1.4-0.3C53.8,30.9,54,30.9,54.2,31z"/>
	<path fill="none" d="M43.5,26.6c0.1,0.2,0.2,0.3,0.4,0.4c0,0,0.1,0,0.1,0.1c0-0.1,0-0.1-0.1-0.2C43.8,26.8,43.7,26.7,43.5,26.6z"/>
	<path fill="none" d="M52.2,24.3c0.1,0,0.2,0,0.3,0c0.3-0.1,0.2-0.5,0.3-0.8c0.1-0.2,0.2-0.4,0.3-0.6c0.1-0.2,0.2-0.4,0.1-0.6
		c-0.1-0.1-0.3-0.1-0.5-0.1c0-0.3,0.4-0.5,0.7-0.5c0.3,0,0.7-0.1,0.8-0.4c0.1-0.3-0.3-0.6-0.6-0.7c-0.3-0.1-0.7-0.2-0.8-0.5
		c-0.1-0.3,0-0.6,0.1-0.8c0.1-0.4,0-0.8-0.2-1.1c-0.2-0.2-0.4-0.4-0.6-0.7c-0.2-0.2-0.4-0.5-0.3-0.8c-0.4,1-0.2,2.2,0.5,3
		c0.2,0.3,0.6,0.5,0.6,0.9c0,0.7-0.9,1-1.1,1.6c-0.1,0.4,0.1,0.8-0.1,1.1c-0.1,0.3-0.5,0.6-0.4,1C51.4,24.3,51.8,24.3,52.2,24.3z"/>
	<path fill="none" d="M53.6,23.7c0,0.1,0,0.2,0.1,0.3c0.1-0.1,0.2-0.1,0.2-0.2L53.6,23.7z"/>
	<path fill="none" d="M41.7,15.5c0.5,0.3,1.3,0.2,1.6,0.7c0.1,0.1,0.1,0.3,0.1,0.4c0.1,0.3,0.2,0.5,0.4,0.7c0.1,0.1,0.3,0.2,0.4,0.1
		c0.1-0.1,0.1-0.2,0.1-0.2c0-0.6,0-1.1-0.1-1.7c0.2-0.2,0.6,0,0.7,0.3c0-0.4-0.2-0.7-0.5-0.9c-0.2-0.1-0.4-0.2-0.5-0.3
		c-0.2-0.3,0.2-0.7,0.4-0.9c0.1-0.1,0.2-0.1,0.3-0.1c0.1,0,0.2,0.2,0.3,0.3c0.3,0.6,0.4,1.2,0.4,1.9c0,0.2,0,0.3,0.1,0.4
		c0.1,0.1,0.2,0.2,0.3,0.2c0.3,0.1,0.5,0.3,0.8,0.4c0.5,0,0.9-0.5,0.8-1c-0.1-0.5-0.5-0.9-0.9-1.1c-0.5-0.2-1.1-0.4-1.1-0.9
		c0-0.2,0.1-0.4,0.1-0.6c0-0.4-0.4-0.7-0.8-0.9c-0.4-0.2-0.7-0.4-1.1-0.6c-0.1,0-0.2-0.1-0.2,0c0,0-0.1,0.1-0.1,0.1
		c-0.3,0.5-0.2,1.2-0.4,1.7C42.5,13.7,42,14,41.5,14c-0.1,0-0.2,0-0.3,0c-0.1,0.1-0.1,0.1-0.1,0.2C41,14.7,41.2,15.3,41.7,15.5z"/>
	<path fill="none" d="M53.8,24.1c-0.1,0-0.1-0.1-0.1-0.1c-0.2,0.1-0.3,0.2-0.5,0.2c0.2,0.3,0.1,0.7,0.4,0.9c0.1,0.1,0.2,0.1,0.4,0.1
		c0.4,0,0.8-0.1,1.1-0.2c0.1-0.1,0.3-0.1,0.4-0.3c0.1-0.1,0.1-0.3,0-0.4c-0.1-0.1-0.3-0.1-0.5-0.1c-0.2,0-0.4,0-0.6,0
		C54.1,24.2,54,24.2,53.8,24.1z"/>
	<path fill="none" d="M42.8,44c-0.3,0-0.5,0-0.8,0c-0.3,0-0.6-0.2-0.6-0.4c-0.1,0.3-0.1,0.5-0.1,0.8c0,0.1,0,0.2,0.1,0.3
		c0.1,0.2,0.4,0,0.6,0c0.4,0,0.7,0.2,0.9,0.5c0.2,0.2,0.5,0.4,0.7,0.2c0-0.3,0-0.6-0.1-0.9C43.3,44.3,43.1,44.1,42.8,44z"/>
	<path fill="none" d="M41.9,25.6c-0.2,0.2-0.1,0.5-0.2,0.7c-0.1,0.2-0.5,0.2-0.7,0.4c0.4,0,0.8,0,1.2,0.1c0.1,0,0.1,0,0.2,0
		c0.1-0.1,0.1-0.2,0.2-0.2c0.1-0.1,0.2-0.1,0.2-0.1c0.2,0,0.5,0,0.7,0.1c-0.1-0.1-0.2-0.3-0.4-0.4C42.8,25.9,42.2,25.9,41.9,25.6z"
		/>
	<path fill="none" d="M42.9,46.5c-0.5,0.2-1,0.3-1.6,0.2c-0.1,0.4,0,0.9,0.2,1.3c0,0.1,0.1,0.1,0.1,0.2c0.1,0,0.2,0,0.3,0
		c0.2,0.1,0.1,0.3,0.2,0.5c0.1,0.1,0.2,0.1,0.3,0c0.1-0.1,0.2-0.2,0.2-0.3c0.1-0.2,0.2-0.5,0.4-0.7c0.1-0.2,0.2-0.4,0.1-0.6
		C43.2,46.9,42.9,46.8,42.9,46.5z"/>
	<path fill="#E77528" d="M37.9,70.5C37.9,70.5,37.9,70.5,37.9,70.5c-0.1,0-0.2,0-0.3-0.1c0,0.1,0,0.1,0,0.2c-0.1,0-0.1,0.1-0.2,0.1
		c-0.2,0.1-0.3,0.2-0.5,0.3c-0.2,0-0.3,0-0.5,0c-0.2,0-0.4,0.1-0.4,0.2c0,0,0,0-0.1,0c0,0.1,0,0.2,0,0.2c0.3-0.1,0.6-0.2,0.9-0.4
		c0.3-0.1,0.5-0.2,0.8-0.3c0.4-0.1,0.9-0.1,1.4-0.1c0.1,0,0.2,0,0.4,0c0.2,0,0.4,0,0.6,0.1c1,0.1,1.9,0.2,2.9,0.4
		c-0.5-0.4-1.1-0.7-1.6-1.1c0,0-0.1-0.1-0.1-0.1c0.1-0.1,0.2-0.3,0.2-0.5c0.1-0.6-0.1-1.1-0.3-1.7c-1-3.1-0.7-6.5-0.3-9.8l-2.6-0.9
		C38.3,61.6,38.4,66.1,37.9,70.5z"/>
	<path fill="#F04B36" d="M57.8,36.4c0.7,0.2,1.4,0.6,2.2,0.9c2.4,1,5.2,0.8,7.4-0.6c0.1-0.9,0.2-1.9,0.3-2.8
		c-0.6-0.1-1.2,0.1-1.7,0.2c-0.6,0.1-1.2,0.1-1.7-0.2c-0.5-0.3-0.6-1.2-0.1-1.5c-1,0.6-2.1,0.9-3.2,0.9c-0.3,0-0.6,0-0.8-0.3
		c-0.2-0.4,0.3-0.7,0.7-0.8s1-0.2,1.1-0.6c-1.2,0-2.4-0.6-3.2-1.6c0.7-0.6,1.6,0.2,2.4,0.7c0.7,0.4,1.7,0.5,2.4,0s1-1.6,0.4-2.2
		c-0.8-0.9-2.5-0.4-3.2-1.4c0-0.5,0-1,0-1.5c-1,0.2-2.1-0.3-2.6-1.2c1.7-0.2,3.5-0.3,5.2-0.1c0.4-0.6,0-1.5-0.7-1.8
		c-0.2-0.7-0.8-1.3-1.4-1.1c-0.1-0.5-0.6-0.9-1.1-1.1c0.5-0.8,0.5-1.8,0.3-2.7c0.4-0.1,0.9-0.3,1.3-0.1c0.4,0.2,0.8,0.7,1.2,0.5
		c0.2-0.6,0.1-1.4-0.4-1.9c-0.4-0.5-1.1-1-1-1.6c0.1-0.3,0.4-0.6,0.3-0.9c-0.1-0.4-0.7-0.4-1.1-0.3c-0.4,0.6,0.1,1.5-0.4,2
		c-0.3,0.3-0.8,0.3-1.2,0.1c-0.4-0.2-0.6-0.7-0.7-1.1c-0.1-0.2-0.1-0.4-0.3-0.5c-0.1-0.1-0.3-0.2-0.5-0.2c-0.4-0.1-0.9-0.2-1.1,0.1
		c-0.1,0.1-0.1,0.3-0.1,0.5c-0.1,0.7-0.1,1.6,0.3,2.2c0.1,0.2,0.3,0.3,0.3,0.5c0.1,0.4-0.3,0.6-0.7,0.7c-0.4,0-0.8,0-1.1,0.1
		c-0.1-0.7-0.2-1.5-0.4-2.2c0-0.2-0.1-0.4-0.2-0.5c-0.2-0.3-0.6-0.4-1-0.3c-0.4,0.1-0.7,0.2-1,0.3c-0.5,0.1-1,0.2-1.4,0
		c-0.4-0.2-0.7-0.8-0.5-1.2c0.1-0.3,0.4-0.5,0.6-0.7c0.2-0.2,0.3-0.6,0.2-0.9c-1.4-0.7-3.3,0-4.6-0.9c-0.2,0.5,0.4,0.8,0.8,1.1
		c0.4,0.2,1,0.6,0.8,1.1c-0.5,0.3-1.2,0.1-1.5-0.4c-0.3-0.5-0.4-1.1-0.3-1.7c0.1-0.6,0.2-1.1,0.2-1.7c0-0.8,0-1.7,0.1-2.5
		c1.1-0.6,1.7-2.1,1.2-3.3c-0.2,0.3-0.4,0.7-0.6,1c0.1-0.3,0-0.6-0.2-0.8c0,0-0.1-0.1-0.1-0.1c-0.1,0-0.2,0.1-0.2,0.2
		c0,0.1-0.1,0.2-0.2,0.2c-0.1,0-0.1-0.1-0.2-0.2c0,0-0.1,0-0.1,0c0,0,0-0.1,0-0.2C46.6,4,46.5,4,46.4,4c-0.2,0-0.3-0.1-0.5-0.1
		c-0.4-0.1-0.8-0.3-1.3-0.4c0,0.1,0.1,0.2,0.1,0.2c0.1,0,0.2,0,0.3,0.1c0.1,0.1,0.2,0.2,0.3,0.4c0.1,0.2,0.1,0.5,0.2,0.7
		C45,4.6,44.5,4.3,44,4.1c-0.2-0.1-0.4-0.2-0.6-0.3c0.1,0.1,0.2,0.2,0.3,0.4c0.5,0.5,1.1,1,1.8,1.3c0,0,0.1,0,0.1,0.1c0,0,0,0,0,0.1
		c-0.1,0.1-0.2,0.1-0.3,0.1c-0.1,0-0.2-0.1-0.3-0.2c-0.1,0-0.3-0.1-0.4-0.1c-0.6-0.1-1-0.6-1.3-1.1c0,0.3,0.2,0.5,0.3,0.8
		c0.1,0.4,0.2,0.8,0.1,1.1c-0.1,0-0.2,0-0.2-0.1c0-0.1-0.1-0.2-0.1-0.3c-0.1-0.5-0.4-0.9-0.8-1.2c0,0.4,0.1,0.7,0.3,1
		c0.1,0.2,0.3,0.5,0.2,0.7c0,0-0.1,0.1-0.1,0.1c0-0.1-0.1-0.2-0.2-0.2c-0.1,0-0.2-0.1-0.3-0.2c-0.1-0.1,0-0.4,0-0.5
		c0-0.1-0.1-0.1-0.1-0.2c-0.2-0.2-0.3-0.5-0.4-0.7c0,0.3,0,0.5,0,0.8c0,0.1,0,0.2,0,0.4c0,0.1,0.1,0.2,0.2,0.3
		c0.2,0.2,0.4,0.4,0.7,0.4c0,0.1-0.1,0.2-0.3,0.3c-0.1,0-0.3,0.1-0.4,0.2c-0.1,0.1-0.1,0.2,0,0.3c0.2,0,0.5,0,0.7-0.1
		c0.1,0,0.1,0,0.2-0.1c0,0,0.1-0.1,0.1-0.1c0.1-0.1,0.2-0.2,0.4-0.2c0.2-0.1,0.3-0.1,0.5-0.2c0.1,0,0.1-0.1,0.2-0.1
		c0.1,0,0.2,0,0.3-0.1c0.3,0,0.6-0.1,0.9,0c0.3,0,0.5,0.1,0.7,0.3c-0.1,0.3-0.2,0.7-0.3,1c-0.1,0.4-0.5,0.8-0.8,0.5
		c-0.2-0.6-1-1-1.5-0.6c-0.3,0.3-0.3,0.8-0.3,1.2c0,0.4-0.1,0.9-0.5,1c0-0.3-0.5-0.5-0.7-0.3c-0.3,0.2-0.3,0.5-0.3,0.9
		c0,0.5,0.2,1,0.5,1.4c0.1,0.2,0.2,0.3,0.2,0.5c0,0.2-0.3,0.4-0.5,0.4c-0.3,0.1-0.7,0.3-1,0.4c-0.5-0.8-0.6-1.8-0.4-2.7
		c0-0.2,0.1-0.4,0.1-0.6c-0.1-0.4-0.9-0.6-0.9-1c0-0.6,1.3-0.7,1.1-1.3c-0.1-0.5-1.2-0.3-1.2-0.8c0-0.4,0.6-0.5,0.9-0.8
		c0.5-0.4,0.2-1.2-0.2-1.7c-0.3-0.5-0.8-1.2-0.4-1.7c-0.3,0-0.6-0.4-0.6-0.7s0-0.7-0.1-1c0-0.1-0.1-0.2-0.1-0.3
		c-0.2-0.2-0.5,0-0.6,0.1c-0.2,0.2-0.3,0.4-0.5,0.6c-0.4,0.3-0.9,0.1-1.4,0.1c-0.5-0.1-1.1,0.3-1,0.8c-0.5-0.1-0.9-0.5-1.3-0.7
		c-0.4-0.2-0.9-0.2-1.3,0c-0.4,0.2-0.6,0.7-0.5,1.1c0.1,0.4,0.5,0.7,1,0.8c0.4,0.1,0.9,0,1.3-0.1c0.5,0.6-0.3,1.5,0,2.1
		c0.1,0.3,0.5,0.4,0.4,0.7c-0.3,0.1-0.7,0.2-1.1,0.2c-0.2-0.2-0.1-0.5-0.1-0.8c0-0.6-0.7-1.1-1.3-1C31.5,4.7,31,5.3,31,5.9
		c0,0.4,0.2,1-0.2,1.3c-0.1,0.1-0.2,0.1-0.3,0.2c-1.2,0.6-0.3,3-1.4,3.7c-0.2,0.1-0.4,0.2-0.6,0.1c-0.2-0.1-0.4-0.4-0.5-0.6
		c-0.3-0.5-0.5-1.2-0.2-1.7c0.1-0.2,0.3-0.4,0.5-0.7c0.2-0.5-0.1-1.1-0.5-1.5c-0.4-0.4-0.9-0.7-1-1.3c-0.1-0.3,0-0.6-0.1-0.8
		c-0.2-0.6-1-0.9-1.6-1.1c-1-0.3-1.9-0.8-2.7-1.4c0-0.2,0-0.5,0-0.7c-0.4-0.1-0.8-0.1-1.2,0c0.1,0.6-0.5,1.2-1.1,1.2
		c-0.3,0-0.8-0.2-1,0.1C19,3,19,3.1,19,3.3c0.1,0.6,0.2,1.2,0.3,1.8c-0.4-0.1-0.8-0.1-1.2,0c-0.4,0.1-0.7,0.5-0.7,0.9
		c0,0.5,0.5,0.8,0.9,1.3c0.3,0.3,0.4,0.8,0.2,1.2c-0.1,0.4-0.5,0.7-1,0.7c0,0.1,0,0.3,0,0.4c-0.3,0.2-0.7,0.1-1-0.1
		c-0.3-0.2-0.5-0.5-0.8-0.7c-0.6-0.4-1.5-0.2-1.9,0.4c-0.1-0.3-0.4-0.5-0.6-0.5c0,0.4-0.5,0.5-0.9,0.5c-0.4,0-0.8,0.2-0.8,0.5
		c0.1,0.4,0.8,0.4,1.1,0.7c0.1,0.2,0.1,0.5,0.1,0.7c0,0.2,0.3,0.5,0.5,0.3c-0.2,0.6-1,1-1.6,0.8c-0.2,0.3-0.2,0.8,0,1.2
		c0.2,0.4,0.6,0.6,0.9,0.8c0.1,0.2-0.1,0.3-0.3,0.3s-0.3,0-0.5,0c-0.3,0.1-0.4,0.4-0.4,0.7c0,0.3,0.2,0.6,0.3,0.8
		c0.2,0.3,0.4,0.6,0.6,0.8c0.2,0.1,0.4,0.1,0.6,0.2c0.7,0.1,1.5,0.2,2.1-0.1c0.2-0.1,0.4-0.2,0.6-0.2c0.2,0.1,0.3,0.2,0.4,0.4
		c0.2,0.4,0.4,0.7,0.6,1.1c-0.3,0-0.6,0-0.9-0.1c0,0.5,0,1.1,0.2,1.5c0.2,0.5,0.8,0.8,1.2,0.7c0.1,0.5,0.4,1,0.8,1.4
		c-0.6,0.4-1.5,0.3-2-0.3c-0.1-0.1-0.2-0.3-0.4-0.4c-0.2-0.1-0.4-0.2-0.6-0.3c-0.4-0.1-0.7-0.1-1.1,0.1c-0.3,0.2-0.5,0.5-0.5,0.9
		c-0.4,0-0.7,0-1.1,0c-0.1,1.1,0.1,2.2,0.4,3.2c0,0.1,0.1,0.2,0.1,0.3c0.2,0.3,0.6,0.2,1,0.1c-0.3,0.3-0.6,0.6-0.6,1
		c0,0.2,0,0.4,0.1,0.6c0.4,1,1.4,1.6,2.4,1.7c-0.6,0.1-0.7,1.1-1.3,1.5c-0.6,0.4-1.6,0.2-2,0.8c-0.7,0-1.3,0-2,0
		c-0.1,0.3,0.3,0.5,0.6,0.6c0.3,0.1,0.6,0.4,0.5,0.7C11.4,32,11,32.3,11,32.5c0,0.3,0.2,0.5,0.5,0.5c-0.3,0.3-0.7,0.5-1.1,0.7
		c-1.1,0.6-2,1.6-2.3,2.8c0.5-0.7,1.4-1.1,2.2-1.2c-0.4,0.8-1.4,1.1-1.6,2c0,0.2,0,0.4-0.1,0.5c-0.3,0.5-1.1,0.3-1.6,0.6
		c0-0.2-0.1-0.4-0.2-0.5c-0.1-0.1-0.4-0.2-0.5,0c-0.1,0.1-0.1,0.2-0.1,0.3c0,0.5-0.1,0.9,0,1.4c0.1,0.4,0.4,0.9,0.9,1
		c0.2,0.2,0,0.5-0.3,0.6c-0.3,0.1-0.6,0.1-0.7,0.2C6,41.7,6,42,6,42.3c0,0.4,0.1,0.9,0.1,1.3c0.6,0.1,1.1-0.4,1.5-0.9
		c0.4-0.5,0.8-1,1.4-1.1c0.2,0.3,0,0.8-0.4,1.1c-0.3,0.2-0.8,0.3-1.2,0.4c-0.2,0.1-0.4,0.2-0.5,0.4C7,43.7,7.1,44,7.4,43.9
		c0,0.4,0,0.8-0.2,1.1c-0.1,0.2-0.4,0.5-0.6,0.3c-0.1-0.1-0.1-0.2-0.1-0.4c-0.2-0.6-1.1-0.7-1.6-0.4c-0.4,0.3-0.6,0.8-0.5,1.2
		c0.1,0.5,0.5,0.8,1,0.8C5,46.7,4.9,47,5,47.2s0.4,0.3,0.6,0.1c0.2-0.1,0.3-0.4,0.2-0.6c0.3,0.6,0.4,1.2,0.4,1.8
		c0.5,0.2,1.1-0.2,1.1-0.7c0.3,0.2,0.1,0.7,0.4,1C8,49,8.4,48.7,8.5,48.3c0.1-0.3,0.1-0.7,0.2-1c0-0.1,0.1-0.1,0.2-0.2
		c0.2-0.1,0.3,0.1,0.4,0.2s0,0.3-0.1,0.5C9.4,48,9.7,48.1,10,48c0.3-0.1,0.5-0.3,0.5-0.6c0.3,0,0.6,0.3,0.6,0.6
		c0.4-0.1,0.7-0.3,0.9-0.6c0,0.8-0.3,1.6-0.7,2.3c0.2,0.3,0.7,0.3,1,0c0.3-0.3,0.4-0.6,0.7-1c0.2,0.2,0.3,0.6,0.1,0.8
		c-0.1,0.1-0.2,0.1-0.2,0.3c-0.1,0.3,0.3,0.5,0.6,0.5c1.2,0.1,2.5-0.2,3.6-0.7c0,0.5-0.1,0.9,0,1.4c0.1,0.4,0.4,0.9,0.9,1
		c-0.4,0.4-1,0.5-1.5,0.4c-0.5-0.1-0.9-0.5-1.1-1.1c0-0.1,0-0.2-0.1-0.2c-0.1-0.1-0.3-0.1-0.5,0c-0.1,0.1-0.2,0.3-0.3,0.4
		c-0.2,0.5-0.3,1-0.3,1.5c0.5-0.3,1.2-0.4,1.8-0.2c-0.6,0.8-0.9,1.7-1,2.6c0,0.4,0.2,0.8,0.6,1.1c0.5-0.8,1.1-1.6,1.7-2.4
		c0.2-0.2,0.4-0.4,0.7-0.3c-0.1,0.2,0.2,0.4,0.3,0.5c0.2,0.2,0.2,0.6,0.1,0.9c-0.1,0.3-0.4,0.5-0.5,0.8c-0.3,0.5-0.6,1-0.7,1.6
		c0,0.2,0,0.5,0.1,0.7c0.1,0.2,0.4,0.3,0.6,0.2c0.2-0.1,0.2-0.5,0.4-0.6c0.1-0.1,0.3-0.1,0.5-0.2c0.2-0.1,0.3-0.2,0.4-0.4
		c0.5-0.7,0.8-1.4,0.9-2.2c0.1-0.5,0.1-1.1,0.4-1.6c0.2-0.5,0.8-0.9,1.3-0.8c0.2,0,0.4,0.2,0.6,0.2c0.5,0,0.8-0.6,0.9-1.2
		c0-0.5,0-1.2,0.4-1.5c0.4-0.4,1.3-0.4,1.3-1c0.2,0.8,0.3,1.7-0.3,2.3c-0.1,0.1-0.3,0.2-0.4,0.4c-0.3,0.5,0.4,1.1,0.2,1.6
		c-0.2,0.3-0.6,0.3-0.9,0.4c-0.6,0.1-1.1,0.4-1.5,0.8c0.4,0.1,0.8,0.1,1.3,0.2c-0.4,0.6-0.5,1.4-0.3,2.1c0.4-0.3,0.8-0.8,0.8-1.4
		c0,0.4,0.7,0.4,0.9,0c0.2-0.3,0.1-0.8-0.1-1.1c0.6-0.2,0.9-1,1.1-1.6c0.1,0.2,0.3,0.4,0.5,0.3c0.2,0.6,0.4,1.3,0.2,1.9
		c-0.2,0.6-0.8,1.2-1.4,1c0,0.2,0,0.4,0,0.6c0.7,0,1.5-0.2,2-0.7c-0.3,0.7-0.9,1.2-1.7,1.4c0.4,0.1,0.9,0.2,1.3,0.3
		c-0.1,0.7,0.4,1.3,1,1.6c0.6,0.3,1.3,0.3,2,0.2c0-0.3-0.3-0.6-0.7-0.7c-0.3-0.1-0.7-0.1-1-0.3s-0.4-0.7-0.2-0.8
		c0.4,0.3,0.9,0.3,1.3,0c-0.6,0-1.2-0.6-1.2-1.2c0.4,0.4,1.1,0.3,1.6,0.2c0.5-0.1,0.9-0.2,1.4-0.4c0.1,0,0.2-0.1,0.3-0.1
		c0.3-0.2,0.2-0.7,0.3-1c0.2-0.3,0.6-0.4,0.9-0.3c0.3,0.1,0.6,0.4,0.9,0.6c0.3,0.3,0.7,0.6,0.9,1c0.2,0.2,0.3,0.4,0.5,0.6
		c0.2,0.1,0.6,0.2,0.7,0c0-0.6,0-1.2-0.1-1.8c0.1,0.2,0.5,0,0.5-0.2c0-0.2-0.1-0.5-0.3-0.7c-0.1-0.2-0.2-0.5,0-0.7
		c0.2-0.2,0.5-0.1,0.8-0.1c0.5,0,1-0.5,1-1c0.1,0.8,0.1,1.7,0,2.5c0,0.2-0.1,0.4,0,0.6c0.1,0.3,0.4,0.5,0.6,0.7
		c0.2,0.3,0.2,0.6,0.2,0.9l2.6,0.9c0.7,0.4,1.8,0.7,2.1,0c0.1-0.3,0.1-0.5,0.1-0.8c0-1.1,1.4-1.9,2.4-1.4c0-0.5,0.1-1.1,0.1-1.6
		c0.9,0.2,1.4-1,2.3-1.3c1-0.5,2.1,0.4,2.9,1.2c0.2-0.3,0.3-0.7,0.2-1c0.4,1,1.7,1.6,2.8,1.3c-0.1-0.4-0.4-0.6-0.8-0.6
		c2.9-0.1,5.9,0.1,8.8,0.8c0-0.5-0.2-1.1-0.5-1.5c0.5,0.1,1.1,0.1,1.6-0.1c0.5-0.2,0.8-0.9,0.4-1.3c-0.8,0.3-1.7-0.3-1.8-1.1
		c0-0.3,0-0.7-0.2-0.9c-0.2-0.1-0.4-0.1-0.6-0.1c-0.9,0-1.7,0.3-2.6,0.4c-0.9,0-1.9-0.4-2.1-1.3c2.5-0.8,5.2-0.7,7.6,0.2
		c-1.6-2-3.4-4.1-5.8-5.2c-0.5-0.2-1.1-0.4-1.5-0.9c-0.4-0.4-0.5-1.2,0-1.5c0.1-0.1,0.2-0.1,0.2-0.2c0-0.1,0-0.2-0.1-0.3
		c-0.6-0.8-1.9-1.1-2.8-0.7c0-0.5,0-1,0.1-1.5c-0.5-0.2-0.9-0.4-1.4-0.5c-0.1-0.4,0-0.9,0.2-1.3C54.2,36.2,56.1,35.8,57.8,36.4z
		 M14.6,45.2c-0.4-0.4-0.9-0.6-1.4-0.7c-0.3,0-0.6,0-1,0c0.5-0.3,1-0.6,1.4-0.9c0.1-0.1,0.2-0.2,0.2-0.3c0-0.1,0-0.1,0-0.2
		c0-0.1,0.1-0.1,0.1-0.1c0,0,0,0,0,0c0.1,0.2,0.2,0.4,0.3,0.6c0.1,0.2,0.1,0.3,0.2,0.5C14.6,44.5,14.7,44.9,14.6,45.2z M24.1,9
		c0.6,0.1,1.1-0.2,1.7-0.1c0.4,0.1,0.8,0.4,1,0.7c0.3,0.3,0.5,0.7,0.9,0.9c0.1,0.1,0.3,0.2,0.4,0.3c0.1,0.1,0.2,0.3,0.1,0.5
		c-0.5,0.1-1-0.2-1.1-0.6c0-0.1-0.1-0.3-0.1-0.4c-0.1-0.1-0.2-0.2-0.3-0.2c-0.1,0-0.1,0.1-0.1,0.1c-0.3,0.3-0.4,0.8-0.3,1.2
		c-0.3,0.1-0.7,0-1-0.2c-0.3-0.2-0.5-0.5-0.7-0.8C24.2,10,24,9.5,24.1,9z M20.1,5.5c0.7,0.5,1.3,1.1,1.9,1.7C21.5,7.2,21,7.1,20.6,7
		c-0.1,0-0.3-0.1-0.4-0.2c-0.2-0.2-0.2-0.5-0.2-0.7c0-0.3,0-0.7-0.1-1L20.1,5.5z M16.6,12.1c-0.1,0.1-0.1,0.2-0.3,0.3
		c-0.1,0.1-0.3,0-0.4,0c-0.5,0-1,0.3-1.5,0.4c-0.3,0.1-0.7,0.1-1,0c-0.2,0-0.3-0.1-0.4-0.3c-0.1-0.1-0.1-0.3,0-0.5
		c0.8,0.1,1.6,0,2.3-0.2c0.6-0.2,1.2-0.7,1.3-1.3C17,11,16.9,11.6,16.6,12.1z M17.8,18.6c0-0.1-0.1-0.2-0.2-0.2
		C17.6,18.4,17.7,18.5,17.8,18.6l-0.4-0.3c0.1,0,0.2,0,0.2,0.1c-0.5-0.8-0.9-1.7-0.6-2.5c0.2,0.6,1,0.7,1.3,1.2
		c0.1,0.3,0.1,0.7,0.3,1c0.1,0.2,0.4,0.3,0.6,0.4c0.2,0.1,0.4,0.3,0.4,0.6c0,0.3-0.4,0.5-0.8,0.4c-0.3,0-0.6-0.2-0.7-0.4
		C18,18.9,17.9,18.7,17.8,18.6z M20,26.1c0.3,0.4,0.9,0.5,1.4,0.6c0.1,0,0.3,0,0.4,0c0.1,0,0.3-0.2,0.4-0.3c0.2-0.2,0.5-0.4,0.7-0.7
		c0.1,0.3-0.1,0.7-0.3,1c-0.4,0.5-0.9,0.9-1.5,1.1C21.1,27.9,21,28,21,28c0,0.1,0,0.1,0,0.2c0,0.3,0.1,0.6,0.2,0.9
		c-0.3,0.1-0.6,0.1-0.8-0.1c-0.2-0.1-0.2-0.3-0.3-0.5c-0.2-0.6-0.8-1.1-1.4-1.2c-0.4-0.1-0.9-0.1-1.1-0.4C18.4,27,19.3,26.7,20,26.1
		z M25,44.3c0.1,0.1,0.3,0,0.3,0.1c0.1,0.1,0,0.2-0.2,0.3c-0.4,0.2-0.8,0.3-1.3,0.3c-0.1,0-0.3,0-0.4,0.1c-0.1,0.1-0.1,0.2-0.1,0.3
		c-0.2,0.6-0.7,1.2-1.3,1.1c0,0-0.1,0-0.1,0c-0.1,0-0.1-0.1-0.1-0.2c-0.1-0.3-0.2-0.5-0.5-0.7c0.3-0.4,0.8-0.6,1.2-0.5
		c0.1,0,0.2,0,0.3,0c0.2-0.1,0.3-0.3,0.4-0.6c0.2-0.4,0.5-0.7,0.8-1c0.2-0.2,0.4-0.4,0.7-0.5c0.2-0.1,0.4-0.1,0.5,0.1
		c0.1,0.1,0.1,0.3,0,0.5c-0.1,0.1-0.2,0.3-0.3,0.4C25,44.1,24.9,44.3,25,44.3z M25.8,36.1c-0.1,0-0.3,0-0.4,0
		c-0.3,0.1-0.4,0.4-0.5,0.7c-0.3,0-0.5,0-0.8,0c0.1,0.4,0.1,0.7,0,1.1c-0.1,0.4-0.4,0.7-0.7,0.7c-0.5,0.1-1-0.4-1.4-0.1
		c-0.2,0.1-0.2,0.4-0.4,0.6c-0.2,0.2-0.4,0.3-0.7,0.2c-0.2-0.8-0.1-1.7,0.4-2.4c-0.3,0.1-0.5,0.2-0.8,0.3c-0.3,0.1-0.6-0.1-0.6-0.4
		c-0.2,0.1-0.5,0.1-0.7-0.1c-0.1-0.1-0.1-0.2-0.1-0.3c-0.2-0.4-0.7-0.4-1.1-0.4c-0.4,0-0.9-0.3-0.8-0.7c0.1-0.3,0.4-0.4,0.7-0.4
		c1-0.1,2-0.2,3-0.3c0.2,0,0.3,0,0.5-0.1c0.2-0.1,0.3-0.4,0.4-0.6c0.1-0.2,0.4-0.4,0.6-0.3c0.3,0.1,0.3,0.6,0.5,0.9
		c0.3,0.5,1.1,0.4,1.7,0.2c0.4-0.1,0.8-0.3,1.3-0.4c0.1,0,0.2-0.1,0.3,0c0.1,0,0.2,0.1,0.3,0.2C26.7,35.3,26.4,36,25.8,36.1z
		 M27.6,20c-0.1,0-0.1,0.1-0.2,0.1c-0.1,0.1-0.1,0.2-0.1,0.3c0,0.2,0,0.4,0,0.6c0,0.3,0,0.7-0.3,0.8C27,22,26.8,22,26.7,22
		c-0.2,0-0.5,0.1-0.7,0.1c-0.1,0-0.2,0-0.3-0.1c-0.1-0.1,0.1-0.2,0.2-0.3c0.4-0.2,1-0.4,1-0.8c0-0.1,0-0.2,0-0.3
		c0.1-0.4,0.6-0.5,0.7-0.8c0.1-0.2-0.1-0.5-0.3-0.6c-0.2-0.1-0.5-0.1-0.7-0.1c-0.2,0-0.4,0-0.6,0c-0.2,0-0.4,0-0.6-0.1
		c-0.2-0.1-0.4-0.2-0.4-0.4c0.7-0.2,1.5,0,2.3,0.1c0.8,0.1,1.6,0.1,2.2-0.3c0.1,0.3,0,0.7-0.2,0.9c-0.2,0.2-0.5,0.4-0.8,0.5
		C28.2,19.8,27.9,19.9,27.6,20z M36,28c-0.1,0.2-0.3,0.2-0.4,0.3c-0.3,0-0.6,0-0.9,0c-0.3,0-0.6,0.1-0.8,0.4c0.2,0,0.4,0.1,0.5,0.2
		c0.1,0.1,0.2,0.4,0.1,0.5c-0.1,0.1-0.2,0.1-0.3,0.1c-0.3,0-0.5-0.1-0.8,0c-0.3,0.1-0.5,0.4-0.3,0.6c0.2,0.3,0.7,0.2,0.9,0.6
		c0.1,0.3-0.2,0.5-0.4,0.6c-0.5,0.2-1.1,0.1-1.5-0.2c-0.1-0.1-0.3-0.2-0.4-0.3c-0.1,0-0.3,0-0.4,0c-0.3,0.1-0.6,0.1-0.9,0.2
		c-0.1,0-0.2,0-0.3,0.1c-0.1,0.1,0,0.3,0,0.5c0,0.3-0.3,0.5-0.5,0.5c-0.3,0-0.5-0.2-0.7-0.4c-0.5-0.6-0.5-1.6,0-2.2
		c0.1-0.2,0.3-0.3,0.3-0.5c0-0.3-0.2-0.5-0.1-0.8c0.1-0.4,0.6-0.5,1-0.4c0.6,0.1,1.2,0.2,1.8,0.1c0.6-0.1,1.2-0.3,1.6-0.8
		c0.1-0.1,0.1-0.3,0.3-0.4c0.1-0.1,0.2-0.1,0.3-0.1c0.5-0.1,1,0,1.4,0.2c0.4,0.2,0.7,0.6,0.8,1.1C36,27.8,36,27.9,36,28z M36.7,20.6
		c0,0.1,0,0.2-0.1,0.2c0,0-0.1,0.1-0.2,0.1c-0.4,0.1-0.8-0.3-0.9-0.7c-0.2-0.4-0.3-0.8-0.5-1.1c-0.2-0.2-0.4-0.4-0.5-0.6
		c0-0.2,0.1-0.4,0.1-0.6c0-0.8-1.2-1.3-1.1-2.1c0.1-0.5,0.7-0.7,1.2-0.9c0.1,0,0.2,0,0.3-0.1c0.1-0.1,0.1-0.2,0.1-0.3
		c0-0.7,0-1.5-0.1-2.2c0.5,0.9,0.7,1.9,0.6,2.9c0,0.1,0,0.3-0.1,0.4c-0.1,0.1-0.3,0.2-0.5,0.2c-0.2,0.1-0.3,0.3-0.2,0.4
		c0.2-0.1,0.5-0.2,0.7-0.1c0.2,0.1,0.4,0.4,0.3,0.6c-0.1,0.2-0.6,0.2-0.6,0.5c0,0.3,0.4,0.3,0.6,0.3c0.6,0.1,0.9,0.8,0.6,1.3
		C36.2,19,36,19.2,36,19.4c0,0.2,0.2,0.3,0.4,0.4C36.6,20,36.7,20.3,36.7,20.6z M38.8,5.7c-0.5,0-0.9,0-1.4-0.2
		c-0.2,0.2,0,0.5,0.1,0.7C37.8,6.4,38,6.6,38,6.9c0,0.3-0.3,0.5-0.5,0.4c0.1,0.3,0.1,0.7-0.1,0.9c-0.2,0.3-0.5,0.4-0.8,0.5
		c-0.3,0.1-0.7,0.1-0.9-0.1c-0.2-0.2-0.3-0.5-0.3-0.8c0-0.3,0-0.7,0.3-0.8c0.1,0,0.3,0,0.4,0.1c0.2,0.1,0.4,0.2,0.7,0.3
		c0.2,0,0.5-0.1,0.6-0.3c0.1-0.5-0.8-0.8-0.7-1.3c0.1-0.3,0.4-0.4,0.7-0.5c0.1,0,0.2,0,0.3-0.1c0-0.1,0.1-0.1,0.1-0.2
		c0.2-0.7,0.3-1.4,0.3-2.1c0.8,0.5,1.3,1.4,1.3,2.3c0,0.2,0,0.3-0.1,0.4C39,5.7,38.9,5.7,38.8,5.7z M57.6,20.5
		c0.2-0.1,0.5-0.2,0.7-0.4c0-0.5,0-1,0-1.5c0-0.1,0-0.2,0-0.3c0.1-0.1,0.2-0.2,0.4-0.3c0.2-0.2,0.2-0.6,0.2-0.9c0-0.1,0-0.1,0-0.2
		c0-0.1,0.1-0.1,0.2-0.1c0.6,0,1.2,0,1.8-0.1c0.1,0.2-0.1,0.5-0.3,0.6c-0.2,0.2-0.5,0.5-0.8,0.6c-0.3,0.1-0.6,0.3-0.7,0.5
		c-0.2,0.3-0.2,0.7-0.4,1.1c-0.1,0.2-0.3,0.4-0.5,0.5v0c0,0.3,0,0.8,0.3,0.9c0.1,0.1,0.2,0.1,0.3,0.1c0.2,0.2,0.2,0.6,0,0.8
		c-0.2,0.2-0.5,0.2-0.8,0.2c-0.4,0-0.7-0.1-1.1-0.2c-0.1,0-0.1-0.1-0.2-0.1c-0.1-0.1-0.1-0.1-0.1-0.2C56.7,21.2,57.2,20.7,57.6,20.5
		z M54.3,24.1c0.2,0,0.4,0,0.6,0c0.2,0,0.4,0,0.5,0.1c0.1,0.1,0.1,0.3,0,0.4c-0.1,0.1-0.2,0.2-0.4,0.3c-0.3,0.2-0.7,0.2-1.1,0.2
		c-0.1,0-0.3,0-0.4-0.1c-0.3-0.2-0.2-0.6-0.4-0.9c0.2,0,0.3-0.1,0.5-0.2c-0.1-0.1-0.1-0.2-0.1-0.3l0.3,0.1c-0.1,0.1-0.1,0.1-0.2,0.2
		c0,0.1,0.1,0.1,0.1,0.1C54,24.2,54.1,24.2,54.3,24.1z M51.5,23.4c0.1-0.4,0-0.8,0.1-1.1c0.2-0.6,1.1-1,1.1-1.6
		c0-0.4-0.3-0.6-0.6-0.9c-0.7-0.8-0.9-2-0.5-3c-0.1,0.3,0.1,0.6,0.3,0.8c0.2,0.2,0.5,0.4,0.6,0.7c0.2,0.3,0.3,0.7,0.2,1.1
		c-0.1,0.3-0.2,0.6-0.1,0.8c0.1,0.3,0.5,0.4,0.8,0.5c0.3,0.1,0.7,0.3,0.6,0.7c-0.1,0.3-0.5,0.4-0.8,0.4c-0.3,0-0.7,0.2-0.7,0.5
		c0.2,0,0.4,0,0.5,0.1c0.1,0.2,0,0.4-0.1,0.6c-0.1,0.2-0.3,0.4-0.3,0.6c-0.1,0.3,0,0.7-0.3,0.8c-0.1,0-0.2,0-0.3,0
		c-0.4,0-0.7,0-1.1,0C50.9,24,51.3,23.7,51.5,23.4z M41.1,14.3c0-0.1,0-0.2,0.1-0.2c0.1-0.1,0.2-0.1,0.3,0c0.5,0,1-0.3,1.2-0.7
		c0.3-0.5,0.1-1.2,0.4-1.7c0,0,0.1-0.1,0.1-0.1c0.1,0,0.2,0,0.2,0c0.4,0.2,0.7,0.4,1.1,0.6c0.3,0.2,0.7,0.5,0.8,0.9
		c0,0.2-0.1,0.4-0.1,0.6c0,0.5,0.7,0.7,1.1,0.9c0.4,0.2,0.8,0.6,0.9,1.1c0.1,0.5-0.3,1-0.8,1c-0.3,0-0.5-0.2-0.8-0.4
		c-0.1-0.1-0.3-0.1-0.3-0.2c-0.1-0.1-0.1-0.3-0.1-0.4c0-0.6-0.1-1.3-0.4-1.9c-0.1-0.1-0.1-0.3-0.3-0.3c-0.1,0-0.2,0-0.3,0.1
		c-0.3,0.2-0.6,0.6-0.4,0.9c0.1,0.2,0.3,0.2,0.5,0.3c0.3,0.2,0.5,0.6,0.5,0.9c0-0.3-0.4-0.5-0.7-0.3c0.1,0.6,0.1,1.1,0.1,1.7
		c0,0.1,0,0.2-0.1,0.2c-0.1,0.1-0.3,0-0.4-0.1c-0.2-0.2-0.4-0.4-0.4-0.7c0-0.1,0-0.3-0.1-0.4c-0.2-0.5-1-0.5-1.6-0.7
		C41.2,15.3,41,14.7,41.1,14.3z M43.1,47.8c-0.1,0.2-0.2,0.5-0.4,0.7c-0.1,0.1-0.1,0.2-0.2,0.3c-0.1,0.1-0.3,0.1-0.3,0
		c-0.1-0.1,0-0.4-0.2-0.5c-0.1,0-0.2,0-0.3,0c-0.1,0-0.1-0.1-0.1-0.2c-0.2-0.4-0.3-0.9-0.2-1.3c0.5,0.1,1.1,0,1.6-0.2
		c0,0.2,0.2,0.4,0.3,0.6C43.3,47.4,43.2,47.6,43.1,47.8z M42.9,45.2c-0.3-0.2-0.6-0.5-0.9-0.5c-0.2,0-0.5,0.1-0.6,0
		c-0.1-0.1-0.1-0.2-0.1-0.3c0-0.3,0-0.5,0.1-0.8c0,0.3,0.3,0.4,0.6,0.4c0.3,0,0.5-0.1,0.8,0c0.3,0.1,0.6,0.3,0.7,0.6
		c0.1,0.3,0.2,0.6,0.1,0.9C43.4,45.6,43.1,45.4,42.9,45.2z M44.1,27.9c-0.1-0.2-0.1-0.5-0.1-0.7c0,0-0.1,0-0.1-0.1
		c-0.1-0.1-0.2-0.3-0.4-0.4c-0.2-0.1-0.5-0.1-0.7-0.1c-0.1,0-0.2,0-0.2,0.1c-0.1,0.1-0.1,0.2-0.2,0.2c-0.1,0-0.1,0-0.2,0
		c-0.4,0-0.8,0-1.2-0.1c0.2-0.2,0.6-0.2,0.7-0.4c0.1-0.2,0-0.6,0.2-0.7c0.3,0.3,0.9,0.3,1.2,0.6c0.1,0.1,0.2,0.3,0.4,0.4
		c0.2,0.1,0.3,0.2,0.4,0.3c0,0.1,0,0.1,0.1,0.2c0.2,0.1,0.4,0.2,0.6,0.3c0.7,0.2,1.4,0.5,2.2,0.5c-0.5,0.1-1,0.2-1.6,0.3
		C44.8,28.2,44.3,28.2,44.1,27.9z M45.5,30c0.1-0.2,0.3-0.3,0.5-0.4c0.4-0.2,0.7-0.4,1.2-0.4c0.5,0,1,0.3,1.4,0.5
		c0.2,0.1,0.5,0.3,0.6,0.5c0.1,0.2,0,0.5-0.1,0.7c-0.1,0.3-0.2,0.5-0.3,0.8c-0.6,1.5-1.2,3-1.8,4.5c-0.1-0.6-0.3-1.2-0.4-1.7
		c-0.1-0.4-0.2-1,0.1-1.3c0.1-0.1,0.1-0.1,0.2-0.2c0.1-0.1,0.1-0.3,0.1-0.4c0-0.3-0.1-0.7-0.2-1c-0.1-0.3-0.2-0.6-0.4-0.8
		c-0.2-0.2-0.5-0.4-0.8-0.3C45.3,30.5,45.3,30.2,45.5,30z M52.4,45.5c-0.3,0.4-0.9,0.3-1.3,0c-0.4-0.2-0.9-0.5-1.3-0.2
		c-0.1,0.1-0.2,0.2-0.4,0.3c-0.2,0.1-0.4,0-0.6,0.1c-0.3,0.1-0.5,0.4-0.7,0.4c-0.2,0-0.4-0.2-0.5-0.5s0-0.5,0.1-0.7
		c-1.1,0.1-2.2-0.8-2.4-1.9c1,0,2-0.3,2.9-0.8c0.5-0.2,1-0.6,1.4-0.4c0.1,0,0.3,0.1,0.3,0.2c0,0.1,0,0.2,0.1,0.2
		c0.1,0.2,0.3,0.2,0.5,0.3c0.4,0.2,0.4,0.8,0.6,1.2c0.2,0.3,0.6,0.5,0.9,0.8C52.4,44.7,52.6,45.2,52.4,45.5z M50.9,31.7
		c-0.1-0.6,0.2-1.3,0.8-1.6c0.2-0.1,0.4-0.2,0.6-0.3c0.1-0.1,0.2-0.3,0.3-0.4c0.4-0.4,1-0.3,1.5-0.3c1.1,0.1,2.3-0.2,3.3-0.7
		c0.3-0.2,0.6-0.4,0.7-0.7c0.1-0.3-0.2-0.8-0.5-0.7c-0.1,0-0.2,0.1-0.4,0.1c-0.2,0.1-0.4,0.2-0.6,0.2c-0.6,0.1-1.3,0-1.5-0.5
		c-0.2-0.4,0.1-0.9,0.5-1.2c0.4-0.2,0.9-0.2,1.3-0.1c0.7,0.2,1.2,0.7,1.7,1.2c0.3,0.3,0.6,0.6,0.9,0.8c0.1,0.1,0.1,0.3,0,0.5
		c-0.1,0.1-0.3,0.2-0.4,0.3c-0.5,0.2-0.9,0.5-1.3,0.9c-0.1,0.1-0.2,0.2-0.2,0.3c0,0.1,0,0.2,0,0.3c0.1,0.5,0.2,1,0.3,1.4
		c-0.6-0.1-1.1,0.1-1.7,0.3c-0.6,0.2-1.2,0.2-1.7-0.1c-0.1-0.1-0.2-0.2-0.3-0.3c-0.2-0.1-0.4-0.1-0.6-0.1c-0.5,0-1,0.1-1.4,0.3
		C51.8,31.5,51.3,31.9,50.9,31.7z"/>
</g>
</svg>
