<?xml version="1.0" encoding="utf-8"?>
<!-- Generator: Adobe Illustrator 18.0.0, SVG Export Plug-In . SVG Version: 6.00 Build 0)  -->
<!DOCTYPE svg PUBLIC "-//W3C//DTD SVG 1.1//EN" "http://www.w3.org/Graphics/SVG/1.1/DTD/svg11.dtd">
<svg version="1.1" id="Layer_1" xmlns="http://www.w3.org/2000/svg" xmlns:xlink="http://www.w3.org/1999/xlink" x="0px" y="0px"
	 viewBox="0 0 72 72" enable-background="new 0 0 72 72" xml:space="preserve">
<g>
	<path fill="#010101" d="M40.7,71.3c0,0,0.1,0.1,0.1,0.1C40.8,71.4,40.7,71.3,40.7,71.3z"/>
	<path fill="none" d="M31.8,49.9l0.1-0.6c-0.7,0.1-1.4,0-2-0.2c-0.4-0.2-0.8-0.5-1.2-0.3c0.2,0.5,0.3,0.9,0.5,1.4
		c0,0.1,0.1,0.2,0.2,0.3c0.1,0.1,0.2,0,0.4,0c0.6-0.2,1.2-0.4,1.7-0.5c0.2,0.5-0.4,0.8-0.7,1.3c-0.3,0.5,0.1,1.3,0.7,1.4
		c0.3-0.3,0-0.9,0.4-1c0.1-0.1,0.3,0,0.5,0c0.4,0,0.5-0.5,0.4-0.9C32.5,50.2,32.1,50,31.8,49.9z"/>
	<path fill="none" d="M29.5,20.9c0,0,0.1-0.1,0.1-0.1c-0.1,0-0.2,0.1-0.4,0.1c-0.3,0-0.5-0.1-0.8,0c0,0-0.1,0-0.1,0.1
		c0,0,0,0.1,0,0.1c0,0.3,0.1,0.5,0.3,0.7C29,21.5,29.3,21.2,29.5,20.9z"/>
	<path fill="none" d="M30.9,43.9c0.1,0,0.1,0,0.2,0c0.2,0,0.4-0.1,0.5-0.2c0.1-0.1,0.1-0.1,0.1-0.2c0-0.1-0.1-0.3-0.2-0.4
		c-0.2-0.2-0.4-0.3-0.6-0.3c0,0,0,0-0.1,0c0,0,0,0,0,0c0,0,0,0,0,0c-0.2,0.1-0.3,0.2-0.5,0.4c-0.2,0.2-0.3,0.3-0.4,0.5
		c0,0,0,0.1-0.1,0.1c-0.1,0-0.1,0.1-0.2,0.1c-0.1,0.4-0.1,0.9-0.1,1.3c0,0.2,0.1,0.5,0.2,0.7c0.1,0.2,0.4,0.3,0.6,0.3
		c0.1,0,0.2,0,0.2-0.1c0.2-0.1,0.2-0.4,0.1-0.7c-0.1-0.4-0.1-0.8-0.2-1.2c0-0.1,0-0.1,0-0.2c0,0,0,0,0.1,0
		C30.7,44,30.8,44,30.9,43.9z"/>
	<path fill="none" d="M28.7,21.9c0-0.1-0.1-0.1-0.1-0.2c-0.1,0-0.2,0.1-0.3,0.1L28.7,21.9z"/>
	<path fill="none" d="M28.7,22.7l1.2,0.3c0.1,0,0.1,0,0.2,0c-0.1-0.2-0.3-0.3-0.5-0.3C29.2,22.7,28.9,22.7,28.7,22.7z"/>
	<path fill="none" d="M35.3,42.4c0,0.1-0.1,0.2-0.1,0.2c-0.1,0-0.2,0.1-0.2,0.1c-0.4,0.1-0.7,0.5-0.8,0.9c0,0.2,0,0.4,0,0.6
		c0,0.2-0.2,0.4-0.4,0.4c0,0-0.1,0-0.1,0c0,0,0,0.1,0,0.1c0,0.4,0.1,0.8,0.3,1.1c0.2-0.1,0.4-0.3,0.4-0.6c0.1-0.2,0.1-0.5,0.1-0.7
		c0-0.3,0-0.6,0-0.8c0-0.1,0-0.3,0.1-0.4c0.1-0.1,0.2-0.2,0.3-0.2c0.8-0.5,1.3-1.5,1-2.5C35.7,41.2,35.5,41.8,35.3,42.4z"/>
	<path fill="none" d="M35.9,22.4c-0.2,0.1-0.5,0.2-0.6,0c-0.1,0-0.1-0.1-0.2-0.2c-0.2-0.2-0.5-0.2-0.7-0.1l0.4,0.1
		c0.2,0.2,0.2,0.6,0.2,0.9c0,0.1,0,0.3,0,0.4c0.1,0.2,0.5,0.2,0.8,0.2c0.1,0,0.2,0,0.2-0.1c0.1-0.1,0.1-0.2,0.1-0.3
		c0.1-0.1,0.2-0.3,0.3-0.4c0.1-0.1,0.2-0.3,0.1-0.4C36.4,22.3,36.1,22.3,35.9,22.4z"/>
	<path fill="none" d="M31.4,23c-0.4-0.1-0.9-0.1-1.4,0c0,0.1,0.1,0.1,0.1,0.2c0,0,0,0.1,0.1,0.1c0.1,0,0.1,0,0.2,0
		c0.2,0,0.4,0.2,0.6,0.3c0.3,0.2,0.7,0.1,0.9,0c0.2-0.1,0.4-0.3,0.6-0.5c-0.1,0.1-0.3,0.1-0.5,0.1C31.9,23.2,31.6,23,31.4,23z"/>
	<path fill="none" d="M34.8,11c0.1-0.3-0.1-0.7-0.4-0.8c-0.1,0-0.3,0.1-0.4,0c-0.2-0.1-0.4-0.5-0.6-0.3l-0.1,0.4
		c0.3,0.3,0.6,0.7,0.7,1.1C34.3,11.5,34.7,11.3,34.8,11z"/>
	<path fill="none" d="M32.9,21.2l0.1-0.2c-0.3,0.1-0.5,0.2-0.8,0.1c0,0.2,0,0.3,0,0.5c0.2,0,0.3,0.1,0.5,0.1c0.2,0,0.4,0,0.4-0.2
		C33.2,21.4,33.1,21.2,32.9,21.2z"/>
	<path fill="none" d="M19.1,40.7l0.1,0.2c-0.2-0.2-0.4-0.4-0.7-0.4c0,0.2,0,0.4,0,0.6c0,0.1,0,0.1,0,0.2c0,0,0.1,0,0.1,0.1
		c0.2,0,0.4,0,0.5,0c0.2-0.1,0.3-0.2,0.3-0.4C19.4,40.8,19.2,40.6,19.1,40.7z"/>
	<path fill="none" d="M15.7,40.6c-0.1-0.3-0.1-0.6-0.3-0.7c-0.2-0.2-0.6,0-0.5,0.3l-0.1,0.4c0.4,0.4,0.9,0.6,1.4,0.7
		C15.9,41.2,15.7,40.9,15.7,40.6z"/>
	<path fill="none" d="M15.6,44.9l0.2,0C15.7,44.9,15.7,44.9,15.6,44.9z"/>
	<path fill="none" d="M15.5,44.9c0,0-0.1,0.1-0.1,0.1c-0.3,0.3-0.5,0.6-0.7,1c-0.1,0.1-0.2,0.3-0.3,0.2c0.1,0.1,0.4,0.2,0.6,0.1
		c0.2-0.1,0.3-0.2,0.5-0.3c0.1-0.1,0.3-0.2,0.4-0.3c0.1-0.1,0.2-0.3,0.1-0.5C15.8,45.1,15.7,45,15.5,44.9z"/>
	<path fill="none" d="M15.4,44.9C15.5,44.9,15.5,44.9,15.4,44.9c0.1,0,0.1,0,0.1,0L15.4,44.9z"/>
	<path fill="none" d="M12.9,44.3c-0.2,0-0.5,0-0.7,0c-0.4-0.1-0.6-0.4-0.8-0.7l-0.3-0.1c-0.3-0.1-0.6,0.2-0.7,0.5
		c-0.1,0.3,0,0.6,0.1,0.9c0,0.2,0.1,0.3,0.2,0.4c0.1,0.1,0.3,0.1,0.4,0c0.1-0.1,0-0.2,0.1-0.3c0.1-0.1,0.3-0.1,0.4,0
		c0.1,0.1,0.2,0.2,0.2,0.4c0.3,0.5,1,0.6,1.4,0.3S13.4,44.4,12.9,44.3z"/>
	<path fill="none" d="M44.9,29.8c0.2,0,0.4-0.1,0.6,0c0.1-0.5,0.1-1.1-0.2-1.6l-0.4,0.3c-0.1,0.3-0.2,0.5-0.4,0.8
		c0,0.1-0.1,0.2-0.1,0.3C44.5,29.7,44.7,29.8,44.9,29.8z"/>
	<path fill="none" d="M23.1,35.7c0.1,0.3-0.2,0.5-0.1,0.8c0.2,0.1,0.4,0,0.5-0.1c0.1-0.1,0.3-0.3,0.4-0.4c0-0.1,0.1-0.1,0.1-0.2
		c0-0.1,0-0.1,0-0.2c-0.1-0.3-0.4-0.5-0.5-0.8c-0.1-0.3-0.1-0.7-0.6-0.4c-0.4,0.3-0.1,0.7,0.2,1C23,35.5,23,35.6,23.1,35.7z"/>
	<path fill="none" d="M25.9,45.3c-0.2-0.1-0.5-0.2-0.8-0.2c-0.7-0.1-1.3-0.6-2-0.7c-0.1,0-0.2,0-0.3,0.1c-0.1,0.1,0,0.2,0,0.3
		c0,0.5-0.3,0.9-0.7,1.3c-0.6,0.5-1.1,0.9-1.3,1.7c-0.1,0.4-0.1,0.7,0.3,0.7c0.6-0.1,2-2,2.6-0.7c0.3-0.7-0.2-1.6,0.9-1.9
		c0.4-0.1,0.8,0,1.1,0.1c0.1,0,0.2,0.1,0.3,0c0,0,0,0,0.1-0.1C26.3,45.8,26.1,45.5,25.9,45.3z"/>
	<path fill="none" d="M24.8,34.8c0.2-0.1,0.3-0.3,0.4-0.5c0.1-0.2,0.2-0.5,0.3-0.7l-0.1-0.1c-0.3,0-0.6,0.1-0.8,0.3
		c-0.2,0.2-0.4,0.4-0.4,0.7C24.2,34.7,24.5,34.9,24.8,34.8z"/>
	<path fill="none" d="M19.9,28.1c-0.3-0.1-0.6-0.3-0.9-0.3c-0.3,0-0.7,0.2-0.7,0.5c-0.1,0.4,0.3,0.8,0.4,1.1c0.4-0.3,0.8-0.7,1.2-1
		C20,28.3,20.1,28.1,19.9,28.1z"/>
	<path fill="none" d="M30,20.5c-0.1,0-0.2,0.1-0.3,0.2C29.8,20.7,29.9,20.6,30,20.5z"/>
	<path fill="none" d="M53.4,46l0,0.1c0.2,0.8,0.7,1.4,1.4,1.9c0-0.5,0-1-0.2-1.4C54.4,46.2,53.9,45.9,53.4,46z"/>
	<path fill="none" d="M54,14.9c-0.2-0.3-0.4-0.5-0.6-0.8c-0.1,0.2-0.4,0.3-0.6,0.2c-0.2-0.1-0.4-0.4-0.5-0.2c0,0.3,0,0.5,0,0.8
		C52.8,14.9,53.4,14.9,54,14.9L54,14.9z"/>
	<path fill="none" d="M52.7,12.8c-0.1,0.3,0.1,0.6,0.3,0.9c0.1,0.2,0.3,0.4,0.4,0.5c0.1-0.1,0.2-0.3,0.1-0.5
		C53.4,13.2,53,13,52.7,12.8z"/>
	<path fill="none" d="M51.8,42.1c0,0.2,0,0.4,0,0.5l0.2-0.4c0.3,0.1,0.6,0.2,0.9,0.1c0-0.6,0-1.2,0-1.8
		C52.8,41.3,52.4,41.8,51.8,42.1z"/>
	<path fill="none" d="M56,37.3c0.1-0.1,0-0.4-0.1-0.4c-0.2-0.1-0.4,0.1-0.5,0.3c-0.1,0.2,0,0.4,0.1,0.6c0.1,0.1,0.1,0.2,0.2,0.3
		c0.2,0.1,0.6-0.1,0.7-0.3c0.1-0.3,0.1-0.5,0-0.8L56,37.3z"/>
	<path fill="none" d="M43.3,5.7c0.1,0.3,0.3,0.6,0.5,0.8c0,0,0.1,0,0.1,0L43.3,5.7z"/>
	<path fill="none" d="M59.7,35.4c-0.1,0.1-0.2,0.1-0.3,0.2c0.2,0.6,1,0.9,1.5,0.6c0.4-0.3,0.5-0.9,0.6-1.5c-0.3,0.3-0.7,0.5-1.1,0.6
		C60.1,35.4,59.9,35.3,59.7,35.4z"/>
	<path fill="none" d="M58.8,36c0.2,0,0.4-0.2,0.6-0.3c0-0.1,0-0.1,0-0.2L58.8,36z"/>
	<path fill="none" d="M59.9,23.4c0.1-0.1,0.2-0.3,0-0.4c-0.1,0-0.1,0-0.2,0c-0.4,0.3-0.7,0.8-0.9,1.2l0.2-0.3
		C59.4,23.9,59.6,23.7,59.9,23.4z"/>
	<path fill="none" d="M50.1,29.5c-0.1,0.4-0.2,0.8-0.1,1.2c0.1,0.1,0.2-0.1,0.2-0.2c0-0.4,0.1-0.9-0.2-1.3L50.1,29.5z"/>
	<path fill="none" d="M40.6,18.9c0.2-0.1,0.4-0.3,0.5-0.5c0-0.2-0.1-0.5-0.2-0.6c-0.5-0.1-1,0.4-1.3,0.8c0,0-0.1,0.1-0.1,0.1
		c-0.1,0.1-0.3-0.1-0.4-0.2c-0.3-0.4-0.5-0.8-0.6-1.3c0-0.1,0-0.2,0-0.3c0.1-0.1,0.3-0.2,0.2-0.3c0-0.1-0.2-0.1-0.3-0.1
		c-0.3,0-0.7,0-1,0c0,0-0.1,0-0.1,0c0,0-0.1,0.1-0.1,0.1c-0.1,0.2-0.1,0.5-0.1,0.7c0.1,0.4,0.4,0.6,0.7,0.8c0.3,0.2,0.6,0.4,0.9,0.5
		c0.2,0,0.3,0,0.5,0C39.8,18.7,40.2,19,40.6,18.9z"/>
	<path fill="none" d="M43.1,55.3c-0.4-0.1-1.3,0.1-1.8,0c-0.4-0.1-1.6-0.2-1.9-0.5c0.6,0.7,0.7,2,1.8,2.1c0.6,0.1,1.3-0.4,1.7-0.8
		C43.2,55.8,43.5,55.4,43.1,55.3z"/>
	<path fill="none" d="M43.2,43.2c0-0.2,0-0.5,0-0.7C43.1,42.7,43,43,43.2,43.2z"/>
	<path fill="none" d="M43.4,19c0.2-0.3,0.3-0.6,0.2-0.9c-0.2,0-0.4,0-0.6-0.1c0,0-0.1,0-0.1,0c0,0,0,0.1,0,0.1c0,0.4,0,0.8,0.1,1.1
		l-0.5,0.2C42.9,19.4,43.2,19.3,43.4,19z"/>
	<path fill="none" d="M43.7,7.9C44,7.6,44.2,7.3,44.3,7c-0.2-0.1-0.4-0.2-0.6-0.4c-0.4-0.1-0.8,0-1,0.2c-0.3,0.3-0.4,0.8-0.1,1.1
		C42.9,8.1,43.4,8.1,43.7,7.9z"/>
	<path fill="none" d="M47,31.5c0-0.3-0.1-0.7-0.4-0.9c0.2,0.2,0.2,0.4,0.3,0.7c0,0.1,0,0.3,0,0.4c-0.1,0.1-0.2,0.2-0.3,0.1
		c-0.2-0.3-0.4-0.5-0.6-0.8c-0.1-0.1-0.2-0.2-0.3-0.2c-0.1,0-0.2,0.2-0.2,0.3c0,0.1,0,0.2,0,0.3c0.1,0.1,0.2,0.2,0.3,0.2
		c0.1,0.1,0.2,0.3,0.1,0.3c-0.4,0-0.8-0.1-1.1-0.3c-0.1,0.2,0,0.5,0.2,0.6c0.2,0.2,0.4,0.2,0.6,0.3c0.4,0.2,0.9,0.3,1.3,0.5
		c0,0,0.1,0,0.1,0c0.1,0,0.2-0.2,0.2-0.3c0-0.1-0.1-0.3-0.1-0.4C47,32.2,47,31.8,47,31.5z"/>
	<path fill="none" d="M45.1,34.9c-0.1,0-0.1,0-0.2-0.1c-0.1-0.1-0.1-0.2-0.1-0.3c0-0.2,0-0.5-0.2-0.7c-0.2-0.2-0.5-0.2-0.6,0
		C44,33.9,44,34.1,44,34.2c0,0.3,0,0.6,0,0.9l-0.1-0.6c0.1,0.5,0.2,1,0.3,1.6c0.5-0.2,1-0.5,1.4-1c0.1-0.1,0.1-0.2,0-0.3
		C45.5,34.9,45.3,34.9,45.1,34.9z"/>
	<path fill="none" d="M44.1,40.3c-0.2-0.2-0.4-0.7-0.7-0.6L43.2,40c0,0.8,0,1.6,0,2.5c0.1-0.1,0.2-0.3,0.3-0.4
		c0.3-0.3,0.7-0.4,1-0.7c0.3-0.2,0.6-0.7,0.5-1C44.7,40.6,44.3,40.6,44.1,40.3z"/>
	<path fill="none" d="M49.9,18.5c-0.2,0.5-0.6,1-1.2,1.1c-0.5,0.1-1.1,0.1-1.4,0.5c-0.1,0.1-0.1,0.3-0.1,0.4c0,0.7,0.9,1.3,1.5,1
		L48.4,21c0.6,0,1.1-0.4,1.4-0.9C50.1,19.7,50.1,19,49.9,18.5z"/>
	<path fill="#E77528" d="M32.5,64.4c0.4,0.1,0.6,0.6,0.9,0.9c0.2,0.3,0.3,0.8,0.4,1.2c0.1,0.5,0.1,1.1-0.1,1.6
		c-0.2,0.6-0.8,1.1-1.2,1.6c-0.4,0.5-0.6,1.2-0.7,1.9c2.8-0.3,5.6-0.4,8.5-0.2c0.1,0,0.2,0,0.2,0C39,68.9,37.8,66,37.4,63l-6.1,1
		C31.8,64.2,32.1,64.3,32.5,64.4z"/>
	<path fill="#0DB89A" d="M62.1,34.5c-0.5-0.3-1-0.4-1.5-0.6c-0.5-0.3-0.9-0.8-0.8-1.3c0.7,0,1.2-0.6,1.6-1.2c0.3-0.4,0.6-1,0.5-1.5
		c-0.3,0.1-0.7,0.1-1,0.2c-0.2-0.1-0.2-0.3-0.1-0.5c0.1-0.2,0.3-0.3,0.4-0.4c0.5-0.4,0.7-1.1,0.6-1.7c0-0.1,0-0.1-0.1-0.2
		c-0.2-0.2-0.5,0.1-0.5,0.4c-0.3-0.9,0.1-2,0.9-2.5c-0.5,0-1.1,0-1.6,0c-0.1,0-0.3,0-0.4-0.1c-0.3-0.2,0-0.6,0.2-0.9
		c0.2-0.4,0.2-0.8,0.2-1.2c0-0.1,0-0.2-0.1-0.3c-0.1-0.2-0.4-0.2-0.6-0.2c-0.7,0.1-1.5,0.1-2.2,0.2c-0.1,0-0.3,0-0.4,0.1
		c0,0,0.1,0,0.1,0.1c0.1,0.1,0,0.3-0.1,0.4c-0.2,0.3-0.7,0.4-1.1,0.2c0,0-0.1,0-0.1-0.1c0,0,0,0,0,0c-0.2,0.1-0.5,0.2-0.7,0
		c-0.1-0.1-0.1-0.2-0.1-0.3c-0.1-0.1-0.2-0.3-0.1-0.4c0.1,0,0.2,0,0.3,0c0,0,0.1-0.1,0.1-0.1c0.3-0.2,0.7-0.1,1-0.2
		c0.3,0,0.7-0.1,0.9-0.5c0.1-0.2,0.1-0.3,0.1-0.5c0-0.7,0-1.4,0-2.2c0.2,0.1,0.4-0.1,0.5-0.3c0.1-0.2,0-0.4,0-0.6
		c-0.2-1-0.3-2.1-0.5-3.1c-0.4,0.3-0.2,0.8-0.3,1.2c-0.1,0.4-0.4,0.9-0.8,1c0.1,0.2,0.5,0.1,0.5-0.1c0.1,0.3-0.1,0.5-0.4,0.6
		c-0.2,0.1-0.5,0.1-0.8,0.1c-0.4,0-0.8,0-1.2,0c-0.1,0-0.3,0-0.4,0c-0.3-0.1-0.4-0.6-0.2-0.9c0.2-0.3,0.6-0.4,1-0.4
		c0.1,0,0.2,0,0.2,0c0.1,0,0.1-0.1,0.1-0.1c0.3-0.6,0.6-1.1,0.9-1.7c0.3-0.5,0.5-1,0.7-1.5c0.1-0.2,0.2-0.5,0.1-0.8
		c-0.1-0.3-0.4-0.4-0.6-0.3c-0.2,0.4-0.5,0.7-0.9,0.9c-0.4,0.2-0.9,0-1-0.4c0-0.4,0.4-0.7,0.4-1.1c0-0.5-0.7-0.6-1.3-0.6
		c-0.3-0.5,0.2-1,0.7-1.2c0.5-0.2,1.1-0.5,1.2-1c0.1-0.3-0.1-0.6-0.2-0.8c-0.3-0.3-0.7-0.5-1.1-0.4c-0.5-0.5-0.1-1.3,0.4-1.8
		c0.5-0.5,1.1-1,1.1-1.7c-0.6-0.3-1.4-0.2-2,0.2c-0.3,0.2-0.4,0.5-0.7,0.8c-0.6,0.6-1.5,0.9-2.3,0.6C50.1,5.5,49.6,5,49,4.4
		c-0.1-0.2-0.3-0.3-0.5-0.3c-0.1,0-0.2,0.1-0.4,0.1c-0.4,0.1-0.8-0.5-0.5-0.8c0.6-0.3,1.4-0.3,2-0.1c0-0.3-0.2-0.6-0.5-0.7
		c-0.3-0.1-0.6-0.1-0.9-0.1c-0.3,0-0.6-0.1-0.6-0.3c0-0.2,0.2-0.4,0.4-0.5c0.5-0.3,1-0.4,1.5-0.6c0.1-0.2,0.1-0.4,0-0.6
		c-1.4-0.1-2.3,1.7-3.6,1.6c-0.4,0-0.8-0.2-1.1-0.2c-0.4-0.1-0.8,0-1,0.4c-0.1,0.2-0.1,0.4-0.1,0.6c0,0.2-0.2,0.4-0.4,0.4
		c-0.2,0-0.3-0.3-0.4-0.4c-0.4-0.8-1.6-1.2-2.4-0.7c-0.4,0.2-0.8,0.7-0.7,1.2C39.6,2.7,39,2,38.3,1.8c-0.7-0.2-1.5,0.1-1.9,0.7
		c0,0.1-0.1,0.1-0.1,0.2c0,0.5,1.2,0.2,1.2,0.8c0,0.3-0.3,0.4-0.6,0.4c-0.3,0-0.6,0.3-0.5,0.5c0.3,0,0.7-0.1,1-0.1
		c0.1,0.4-0.4,0.6-0.7,0.7c-0.4,0.1-0.8,0.2-0.8,0.6c0,0.1,0.1,0.3,0.1,0.4c0.2,0.9-1.4,1.5-1.1,2.4c-0.4-0.2-0.3-0.8-0.3-1.2
		c0.1-0.4,0-1-0.4-1.1c-0.5-0.2-0.9,0.4-1.1,0.9c-0.2,0.4-0.3,0.8-0.5,1.2c-0.1,0.3-0.2,0.7-0.1,1c0.1,0.2,0.2,0.4,0.2,0.6
		c0,0.3-0.4,0.4-0.7,0.3c-0.2-0.1-0.4-0.4-0.5-0.6c-0.3-0.4-0.6-0.8-1-1c-0.4-0.2-1-0.3-1.4,0c-0.4,0.3-0.7,0.9-1.2,1.1
		c-0.5,0.1-1-0.2-1.1-0.7c-0.1-0.5,0.1-1,0.4-1.3c-0.6-0.6-1.5-0.7-2.2-0.4c-0.1,0-0.2,0.1-0.3,0.1c-0.4,0-0.3-0.6-0.6-0.9
		c-0.2-0.3-0.6-0.2-0.9,0c-0.3,0.2-0.5,0.5-0.8,0.6c-0.4,0.2-0.9,0.1-1.1,0.5c-0.1,0.3,0,0.6,0.1,0.9c0.1,0.3,0.1,0.7-0.2,0.8
		c-0.1,0-0.3,0-0.3,0.1c-0.1,0.1,0.1,0.2,0.2,0.3c0.2,0.2-0.1,0.6-0.3,0.6c-0.3,0.1-0.6,0-0.8,0c-0.5,0-1,0.3-1.3,0.7
		c0.4,0.1,0.9,0.3,1.3,0.4c-0.2,0.4-0.7,0.5-1.1,0.7c-0.4,0.2-0.8,0.7-0.5,1.1c0.1,0.2,0.4,0.2,0.5,0.4c0.2,0.1,0.2,0.4,0.1,0.5
		c-0.2-0.1-0.3,0.3-0.1,0.4c0.1,0.2,0.4,0.2,0.5,0.4c0.2,0.3-0.2,0.7-0.6,0.7c-0.4,0-0.7-0.3-1.1-0.4s-0.9-0.1-1,0.3
		c-0.1,0.2,0,0.4,0,0.5c0.1,0.3,0.4,0.6,0.7,0.7c-0.1,0.4-0.1,0.7-0.2,1.1c0.2,0,0.5,0,0.7,0.1c0.2,0.1,0.3,0.4,0.2,0.6
		c-0.1,0.2-0.4,0.2-0.7,0.2c-0.5,0-0.9,0.3-1.2,0.7c-0.2,0.4-0.2,1,0,1.4c0.9-0.2,1.7-0.9,2.5-0.6c-0.3,0.5-0.6,1-1,1.4
		c-0.4,0.4-0.9,0.6-1.3,1c-0.4,0.5-0.7,1.1-0.7,1.7c0,0.1,0,0.1,0,0.2c0,0.1,0.1,0.1,0.2,0.1c0.2,0,0.4,0,0.6,0
		c-0.2,0.5-0.3,1-0.5,1.4c1.1,0.1,2.1-1,3.1-0.6c0,0,0.1,0,0.1,0.1c0.1,0.2-0.1,0.3-0.3,0.4c-0.7,0.2-1.3,0.5-1.9,0.9
		c-0.2,0.1-0.4,0.3-0.6,0.4c-0.3,0.1-0.5,0.2-0.8,0.3c-0.2,0.2-0.4,0.5-0.2,0.7c0.3,0,0.7,0.1,1,0.1c-0.7,0.4-1.1,1.3-0.9,2.1
		c0.2,0.2,0,0.5-0.2,0.6c-0.2,0.2-0.4,0.4-0.3,0.6c0.6,0.1,1.2-0.3,1.4-0.9c0.1-0.2,0.1-0.5,0.3-0.6c0.3-0.2,0.7-0.1,1.1,0
		c-0.4,0.4-0.6,0.9-0.7,1.4c0,0.1,0,0.2,0,0.3c0,0,0.1,0.1,0.2,0.1c0.6,0.1,1.3,0.3,1.9,0.4c0.1,0.2-0.2,0.4-0.5,0.5
		c-0.9,0.1-1.8,0.1-2.6-0.1c-0.2,0-0.3-0.1-0.5,0c-0.3,0.1-0.4,0.4-0.3,0.7c0.2,0.3,0.7,0.4,0.8,0.7c0.2,0.4-0.2,0.9-0.7,1.1
		c-0.4,0.2-1,0.4-1.2,0.8c-0.1,0.2-0.1,0.3-0.2,0.4c-0.1,0.1-0.2,0.1-0.3,0.1c-0.7,0-1.4,0.4-1.9,0.9c-0.3,0.3-0.5,0.7-0.9,0.9
		c-0.4,0.2-0.8,0-1.3,0c-0.4,0-0.9,0.2-1,0.6c0,0.3,0.1,0.5,0.3,0.7c0.6,0.1,1.3,0.2,1.8-0.2c0.1-0.1,0.2-0.3,0.4-0.4
		c0.2-0.2,0.6-0.3,0.9-0.1c0.2,0.2,0,0.6-0.3,0.8c-0.3,0.2-0.6,0.2-0.8,0.4c-0.3,0.3-0.4,0.8-0.5,1.2c-0.1,0.4-0.4,0.9-0.8,0.9
		c-0.2,0-0.3-0.1-0.5,0c-0.2,0-0.3,0.3-0.1,0.4c-0.2,0.5-0.2,1.1,0.3,1.3c0.1,0,0.2,0.1,0.2,0.2c0.1,0.2-0.1,0.4-0.2,0.7
		c-0.2,0.4,0.2,0.9,0.6,1.2c0.4,0.3,0.8,0.7,0.7,1.2c0.3,0,0.6,0,0.9,0c0.1,0.5-0.7,0.7-0.8,1.1c-0.1,0.5,0.6,0.9,0.4,1.3
		c-0.1,0.1-0.2,0.2-0.2,0.2c-0.3,0.3,0,0.9,0.5,0.9s0.8-0.1,1.2-0.4c0.3-0.3,0.7-0.6,1.1-0.7c0.3-0.1,0.8,0,0.9,0.4
		c0,0.1,0,0.3,0,0.4c0,0.5,0.3,0.9,0.8,1.1c0.4,0.2,0.9,0.2,1.4,0.2c0.4,0,0.8-0.1,1.1,0.2c0.1,0.1,0.1,0.2,0.2,0.3
		c0.1,0.1,0.3,0.1,0.4,0.1c0.4,0,0.8,0,1.1-0.2c0.3-0.2,0.5-0.5,0.8-0.7c0.3-0.2,0.7-0.4,1-0.1c0.1,0.3-0.1,0.6-0.4,0.7
		c-0.3,0.1-0.6,0.2-0.8,0.5c-0.2,0.4,0.3,0.8,0.8,0.8c0.4-0.1,0.7-0.5,0.9-0.9c0.2-0.4,0.2-0.8,0.4-1.2c0.2,0.3,0.3,0.8,0.1,1.1
		c-0.1,0.3-0.4,0.6-0.4,0.9c0,0.4,0.3,0.7,0.7,0.8c0.4,0.1,0.8,0,1.1,0c0.4-0.1,0.9-0.3,0.8-0.7c-0.1-0.3-0.3-0.4-0.5-0.6
		c-0.3-0.4-0.1-0.9,0.1-1.3c0.3-0.4,0.7-0.7,0.9-1.1c0.3,0.1,0.4,0.4,0.4,0.7c0,0.3-0.1,0.6-0.1,0.8c-0.1,0.7,0.4,1.4,1.1,1.7
		c0.7,0.3,1.4,0.1,2-0.3c-0.6,1.3-1.2,2.7-1.7,4c-0.2,0.4-0.4,0.8-0.7,1.1c-0.2,0.2-0.4,0.3-0.6,0.5c-0.2,0.2-0.2,0.5,0,0.7
		c1.4,0.4,3,0.3,4.4-0.2c-0.4,1-1.9,0.8-2.6,1.7c-0.3,0.4-0.3,0.9-0.3,1.4c0.3,0,0.6,0,0.8-0.2c0,0.3,0,0.6,0,0.9
		c0.5-0.1,1-0.2,1.4-0.2c0.1,0,0.2,0,0.2,0c0.1,0.1,0.1,0.3,0.1,0.4c0.1,0.1,0.2,0.2,0.4,0.2c0.4,0.1,0.7,0.2,1.1,0.3l6.1-1
		c1.3,0.3,2.4-0.9,3.2-2c0.3-0.4,0.6-0.8,0.7-1.2c0.1-0.5,0-1-0.4-1.3c-0.2-0.1-0.5-0.2-0.7-0.3c-0.2-0.1-0.4-0.4-0.3-0.7
		c1.3,0.2,2.7-0.1,3.9-0.8c-0.5,2,0.5,4.3,2.4,5.2c0.6-0.4,0.6-1.3,0.2-2c-0.3-0.6-0.9-1.2-0.9-2c0.4-0.1,0.8,0.3,0.7,0.7
		c0.2-0.5,0.2-1,0-1.4c0.3,0.2,0.6,0.3,0.9,0.5c-0.1,0.5,0.5,1,1,0.8c0.5-0.3,0.4-1.2-0.1-1.3c0.5,0,1,0.2,1.3,0.7
		c0.4-0.5-0.2-1.2-0.6-1.6c-0.5-0.5-0.8-1.3-0.3-1.6c0.4,0.6,0.8,1.3,1.2,1.9c0.4-0.1,0.6-0.5,0.6-0.8c0.7,0.4,1.3,0.8,2,1.2
		c0.5,0.3,1,0.7,1,1.3c0.5-0.7,0.2-1.8-0.6-2.1c0.4,0.1,0.6-0.6,0.3-0.9c-0.3-0.3-0.8-0.4-1.2-0.5c-0.4-0.1-0.9-0.3-0.9-0.8
		c-0.1-0.5,0.6-0.8,1-0.5c0.2,0.1,0.2,0.3,0.3,0.5c0.6,1,2,0.8,3.1,0.4c-0.7-0.7-1.3-1.5-2-2.2c0.3-0.4,1-0.3,1.4,0
		c0.4,0.3,0.7,0.7,1.1,1.1c0.6,0.6,1.5,0.8,2.3,0.7c0-0.5-0.6-0.8-1.1-1.1c-1.2-0.6-2.1-1.7-3-2.8c1-0.5,2.3-0.4,3.2,0.2
		c0.4-0.7,0.2-1.6-0.5-2c0.8,0.3,1.5,0.6,2.3,0.8c0.2-0.4,0.3-0.9,0.2-1.4c-0.5,0.1-1.1-0.1-1.5-0.4c0.6-0.2,1.2-0.3,1.8-0.3
		c-0.2-0.4,0.4-0.7,0.9-0.5c0.4,0.2,0.9,0.5,1.3,0.3c0.5-0.2,0.4-0.9,0.1-1.3c-0.3-0.4-0.8-0.7-1-1.2c-0.3-0.7,0.1-1.6,0.5-2.3
		c0.2-0.3,0.3-0.9,0.1-1.2c-0.2-0.4-0.6-0.6-1-0.6c0.2-0.3,0.5-0.3,0.8-0.4c0.3-0.1,0.6-0.5,0.3-0.7c-0.5,0.1-0.9-0.3-0.9-0.8
		c0.3,0.1,0.7-0.2,0.7-0.5c0.4,0.1,0.9,0,0.9-0.4c0-0.3-0.3-0.5-0.6-0.6c-0.3-0.1-0.6-0.4-0.5-0.6c0.6-0.1,1.2-0.2,1.7-0.2
		c0.1,0,0.2,0,0.2-0.1c0.1-0.1,0.1-0.2,0.1-0.2C63,35.3,62.6,34.8,62.1,34.5z M13.2,45.6c-0.4,0.4-1.2,0.2-1.4-0.3
		c-0.1-0.1-0.1-0.3-0.2-0.4c-0.1-0.1-0.3-0.1-0.4,0c-0.1,0.1,0,0.2-0.1,0.3c-0.1,0.1-0.3,0.1-0.4,0c-0.1-0.1-0.2-0.3-0.2-0.4
		c-0.1-0.3-0.2-0.6-0.1-0.9c0.1-0.3,0.4-0.6,0.7-0.5l0.3,0.1c0.2,0.3,0.4,0.6,0.8,0.7c0.2,0,0.5,0,0.7,0
		C13.4,44.4,13.6,45.3,13.2,45.6z M15.9,45.7c-0.1,0.1-0.3,0.2-0.4,0.3c-0.2,0.1-0.3,0.2-0.5,0.3c-0.2,0.1-0.4,0.1-0.6-0.1
		c0.1,0,0.2-0.1,0.3-0.2c0.2-0.3,0.4-0.7,0.7-1c0,0,0.1-0.1,0.1-0.1c0,0-0.1,0-0.1-0.1l0.1,0c0.1,0,0.2,0,0.2,0l-0.2,0
		c0,0,0,0-0.1,0c0.1,0.1,0.3,0.2,0.4,0.3C16.1,45.3,16,45.5,15.9,45.7z M14.7,40.5l0.1-0.4c-0.1-0.2,0.3-0.4,0.5-0.3
		c0.2,0.2,0.3,0.5,0.3,0.7c0.1,0.3,0.2,0.6,0.4,0.6C15.6,41.2,15.1,40.9,14.7,40.5z M19.1,41.4c-0.2,0.1-0.4,0-0.5,0
		c0,0-0.1,0-0.1-0.1c0,0,0-0.1,0-0.2c0-0.2,0-0.4,0-0.6c0.3,0,0.6,0.1,0.7,0.4l-0.1-0.2c0.2-0.1,0.4,0.1,0.4,0.2
		C19.5,41.2,19.3,41.3,19.1,41.4z M19.8,28.5c-0.4,0.3-0.8,0.6-1.2,1c-0.1-0.4-0.5-0.7-0.4-1.1c0.1-0.3,0.4-0.5,0.7-0.5
		c0.3,0,0.6,0.1,0.9,0.3C20.1,28.1,20,28.3,19.8,28.5z M24.6,33.7c0.2-0.2,0.5-0.2,0.8-0.3l0.1,0.1c-0.1,0.2-0.2,0.5-0.3,0.7
		c-0.1,0.2-0.2,0.4-0.4,0.5c-0.3,0.1-0.6-0.1-0.6-0.4C24.1,34.1,24.3,33.8,24.6,33.7z M22.8,34.4c0.5-0.4,0.4,0.1,0.6,0.4
		c0.1,0.3,0.4,0.5,0.5,0.8c0,0.1,0.1,0.1,0,0.2c0,0.1,0,0.1-0.1,0.2c-0.1,0.1-0.2,0.3-0.4,0.4c-0.2,0.1-0.4,0.2-0.5,0.1
		c-0.1-0.2,0.1-0.5,0.1-0.8c0-0.1-0.1-0.1-0.1-0.2C22.7,35.1,22.4,34.8,22.8,34.4z M26.1,46C26.1,46.1,26,46.1,26.1,46
		c-0.2,0.1-0.3,0.1-0.4,0c-0.4-0.1-0.8-0.2-1.1-0.1c-1.1,0.3-0.6,1.2-0.9,1.9c-0.6-1.3-2,0.6-2.6,0.7c-0.4,0.1-0.4-0.2-0.3-0.7
		c0.2-0.8,0.7-1.2,1.3-1.7c0.4-0.3,0.7-0.8,0.7-1.3c0-0.1,0-0.2,0-0.3c0.1-0.1,0.2-0.1,0.3-0.1c0.7,0,1.3,0.5,2,0.7
		c0.3,0.1,0.6,0.1,0.8,0.2C26.1,45.5,26.3,45.8,26.1,46z M28.4,21C28.4,20.9,28.4,20.9,28.4,21c0-0.1,0.1-0.1,0.1-0.1
		c0.3,0,0.5,0,0.8,0c0.1,0,0.3,0,0.4-0.1c0.1-0.1,0.2-0.2,0.3-0.2c-0.1,0.1-0.2,0.2-0.3,0.2c0,0-0.1,0.1-0.1,0.1
		c-0.2,0.3-0.6,0.6-0.9,0.8c0,0.1,0.1,0.1,0.1,0.2l-0.4,0c0.1,0,0.2-0.1,0.3-0.1C28.5,21.5,28.4,21.2,28.4,21z M32.3,51.4
		c-0.2,0-0.3-0.1-0.5,0c-0.4,0.1-0.1,0.8-0.4,1c-0.6-0.1-1-0.9-0.7-1.4c0.3-0.4,0.9-0.8,0.7-1.3c-0.6,0.2-1.1,0.4-1.7,0.5
		c-0.1,0-0.3,0.1-0.4,0c-0.1-0.1-0.1-0.2-0.2-0.3c-0.2-0.5-0.3-0.9-0.5-1.4c0.4-0.1,0.8,0.1,1.2,0.3c0.6,0.3,1.3,0.4,2,0.2l-0.1,0.6
		c0.3,0.2,0.7,0.4,0.8,0.7C32.8,50.9,32.6,51.4,32.3,51.4z M30.6,44.3c0.1,0.4,0.1,0.8,0.2,1.2c0,0.2,0.1,0.5-0.1,0.7
		c-0.1,0.1-0.2,0.1-0.2,0.1c-0.2,0-0.4-0.1-0.6-0.3c-0.1-0.2-0.2-0.4-0.2-0.7c-0.1-0.4,0-0.9,0.1-1.3c0.1,0,0.1-0.1,0.2-0.1
		c0,0,0-0.1,0.1-0.1c0.1-0.2,0.3-0.4,0.4-0.5c0.1-0.2,0.3-0.3,0.5-0.4c0,0,0,0,0,0c0,0,0,0,0,0c0,0,0,0,0.1,0c0.2,0,0.5,0.1,0.6,0.3
		c0.1,0.1,0.2,0.2,0.2,0.4c0,0.1-0.1,0.2-0.1,0.2c-0.1,0.1-0.3,0.2-0.5,0.2c-0.1,0-0.1,0-0.2,0c-0.1,0.1-0.2,0.1-0.3,0.2
		c0,0,0,0-0.1,0C30.5,44.2,30.5,44.2,30.6,44.3z M32.6,23c-0.2,0.2-0.4,0.4-0.6,0.5c-0.3,0.1-0.7,0.2-0.9,0
		c-0.2-0.1-0.4-0.3-0.6-0.3c-0.1,0-0.2,0-0.2,0c0,0-0.1-0.1-0.1-0.1c0-0.1-0.1-0.1-0.1-0.2c-0.1,0-0.1,0-0.2,0l-1.2-0.3
		c0.3,0,0.6-0.1,0.8,0c0.2,0,0.4,0.1,0.5,0.3c0.4-0.1,0.9-0.1,1.4,0c0.2,0.1,0.5,0.2,0.7,0.2C32.3,23.2,32.5,23.2,32.6,23
		c0-0.1,0.1-0.1,0.1-0.2C32.7,23,32.7,23,32.6,23z M33.1,21.6c-0.1,0.1-0.3,0.2-0.4,0.2c-0.2,0-0.3-0.1-0.5-0.1c0-0.2,0-0.3,0-0.5
		c0.3,0,0.6,0,0.8-0.1l-0.1,0.2C33.1,21.2,33.2,21.4,33.1,21.6z M33.4,9.9c0.2-0.1,0.3,0.2,0.6,0.3c0.1,0.1,0.3,0,0.4,0
		c0.3,0,0.5,0.4,0.4,0.8c-0.1,0.3-0.5,0.5-0.8,0.5c-0.1-0.4-0.4-0.8-0.7-1.1L33.4,9.9z M34.8,43c-0.1,0.1-0.2,0.1-0.3,0.2
		c-0.1,0.1-0.1,0.3-0.1,0.4c0,0.3,0,0.6,0,0.8c0,0.2,0,0.5-0.1,0.7c-0.1,0.2-0.2,0.5-0.4,0.6c-0.2-0.3-0.4-0.7-0.3-1.1
		c0,0,0-0.1,0-0.1c0,0,0.1,0,0.1,0c0.2,0,0.4-0.2,0.4-0.4c0-0.2,0-0.4,0-0.6c0-0.4,0.4-0.8,0.8-0.9c0.1,0,0.2,0,0.2-0.1
		c0.1,0,0.1-0.1,0.1-0.2c0.2-0.6,0.4-1.2,0.5-1.8C36.1,41.5,35.6,42.6,34.8,43z M36.4,23c-0.1,0.1-0.2,0.2-0.3,0.4
		c0,0.1,0,0.3-0.1,0.3c-0.1,0.1-0.1,0.1-0.2,0.1c-0.3,0-0.6,0.1-0.8-0.2c-0.1-0.1-0.1-0.3,0-0.4c0-0.3,0.1-0.7-0.2-0.9l-0.4-0.1
		c0.2-0.1,0.5,0,0.7,0.1c0.1,0.1,0.1,0.1,0.2,0.2c0.2,0.1,0.4,0,0.6,0c0.2-0.1,0.5-0.1,0.6,0.1C36.6,22.7,36.5,22.8,36.4,23z
		 M44.6,29.2c0.1-0.3,0.2-0.5,0.4-0.8l0.4-0.3c0.3,0.5,0.4,1.1,0.2,1.6c-0.2,0-0.4,0-0.6,0c-0.2,0-0.4-0.1-0.4-0.3
		C44.5,29.4,44.5,29.3,44.6,29.2z M42.7,6.8c0.3-0.2,0.7-0.3,1-0.2c-0.2-0.2-0.4-0.5-0.5-0.8l0.6,0.9c0,0-0.1,0-0.1,0
		c0.2,0.2,0.3,0.3,0.6,0.4c-0.2,0.3-0.3,0.7-0.6,0.9c-0.3,0.2-0.8,0.3-1,0C42.4,7.6,42.5,7.1,42.7,6.8z M42.9,18.2c0,0,0-0.1,0-0.1
		c0,0,0.1,0,0.1,0c0.2,0,0.4,0,0.6,0.1c0.1,0.3,0,0.7-0.2,0.9c-0.2,0.3-0.6,0.4-0.9,0.5l0.5-0.2C42.9,18.9,42.8,18.5,42.9,18.2z
		 M38.8,18.6c-0.4-0.1-0.7-0.3-0.9-0.5c-0.3-0.2-0.6-0.5-0.7-0.8c-0.1-0.2,0-0.5,0.1-0.7c0,0,0-0.1,0.1-0.1c0,0,0.1,0,0.1,0
		c0.3,0,0.7,0,1,0c0.1,0,0.3,0,0.3,0.1c0,0.1-0.2,0.2-0.2,0.3c0,0.1,0,0.2,0,0.3c0.1,0.5,0.3,0.9,0.6,1.3c0.1,0.1,0.2,0.3,0.4,0.2
		c0,0,0.1-0.1,0.1-0.1c0.3-0.4,0.7-0.9,1.3-0.8c0.2,0.1,0.3,0.4,0.2,0.6c0,0.2-0.2,0.4-0.5,0.5c-0.4,0.1-0.8-0.1-1.2-0.2
		C39.2,18.7,39,18.7,38.8,18.6z M42.9,56.1c-0.4,0.4-1.1,0.9-1.7,0.8c-1.2-0.2-1.2-1.4-1.8-2.1c0.3,0.3,1.5,0.5,1.9,0.5
		c0.5,0.1,1.4-0.2,1.8,0C43.5,55.4,43.2,55.8,42.9,56.1z M44.5,41.5c-0.3,0.2-0.7,0.4-1,0.7c-0.1,0.1-0.2,0.2-0.3,0.4
		c0,0.2,0,0.5,0,0.7c-0.1-0.2-0.1-0.5,0-0.7c0-0.8,0-1.6,0-2.5l0.2-0.3c0.3-0.1,0.5,0.3,0.7,0.6c0.2,0.2,0.6,0.3,0.9,0.1
		C45.1,40.8,44.8,41.2,44.5,41.5z M45.6,35.2c-0.3,0.5-0.8,0.8-1.4,1c-0.1-0.5-0.2-1-0.3-1.6l0.1,0.6c0-0.3,0-0.6,0-0.9
		c0-0.1,0-0.3,0.1-0.4c0.1-0.2,0.5-0.2,0.6,0c0.2,0.2,0.2,0.4,0.2,0.7c0,0.1,0,0.2,0.1,0.3c0,0,0.1,0.1,0.2,0.1c0.2,0,0.3,0,0.5,0.1
		C45.7,35,45.6,35.1,45.6,35.2z M47,33.2c0,0-0.1,0-0.1,0c-0.4-0.2-0.9-0.3-1.3-0.5c-0.2-0.1-0.4-0.2-0.6-0.3
		c-0.2-0.2-0.3-0.4-0.2-0.6c0.3,0.2,0.7,0.3,1.1,0.3c0.1-0.1,0-0.3-0.1-0.3c-0.1-0.1-0.3-0.1-0.3-0.2c-0.1-0.1-0.1-0.2,0-0.3
		c0-0.1,0-0.3,0.2-0.3c0.1,0,0.2,0.1,0.3,0.2c0.2,0.3,0.4,0.5,0.6,0.8c0.1,0.1,0.3,0.1,0.3-0.1c0.1-0.1,0-0.3,0-0.4
		c0-0.2-0.1-0.5-0.3-0.7c0.3,0.2,0.4,0.6,0.4,0.9c0,0.3,0,0.7,0.1,1c0.1,0.1,0.1,0.3,0.1,0.4C47.3,33,47.2,33.2,47,33.2z M49.8,20.2
		C49.5,20.7,49,21,48.4,21l0.3,0.5c-0.6,0.3-1.5-0.2-1.5-1c0-0.2,0-0.3,0.1-0.4c0.3-0.4,0.9-0.4,1.4-0.5c0.5-0.1,1-0.6,1.2-1.1
		C50.1,19,50.1,19.7,49.8,20.2z M50.2,30.5c0,0.1-0.1,0.3-0.2,0.2c-0.1-0.4,0-0.8,0.1-1.2L50,29.2C50.2,29.6,50.2,30.1,50.2,30.5z
		 M52,42.3l-0.2,0.4c0-0.2,0-0.4,0-0.5c0.6-0.3,1-0.9,1.1-1.5c0,0.6,0,1.2,0,1.8C52.6,42.5,52.3,42.4,52,42.3z M52.3,14.9
		c0-0.3,0-0.5,0-0.8c0.2-0.1,0.4,0.1,0.5,0.2c0.2,0.1,0.4,0,0.6-0.2c-0.1-0.2-0.3-0.4-0.4-0.5c-0.2-0.2-0.4-0.6-0.3-0.9
		c0.3,0.2,0.7,0.5,0.8,0.9c0,0.2,0,0.4-0.1,0.5c0.2,0.3,0.4,0.5,0.6,0.8l0,0C53.4,14.9,52.8,14.9,52.3,14.9z M54.8,48.1
		c-0.6-0.5-1.1-1.1-1.4-1.9l0-0.1c0.5-0.2,1,0.2,1.2,0.6C54.9,47.1,54.9,47.6,54.8,48.1z M56.4,37.8c-0.1,0.3-0.4,0.4-0.7,0.3
		c-0.1-0.1-0.2-0.2-0.2-0.3c-0.1-0.2-0.2-0.4-0.1-0.6c0.1-0.2,0.3-0.4,0.5-0.3c0.2,0.1,0.2,0.3,0.1,0.4l0.4-0.4
		C56.4,37.2,56.5,37.5,56.4,37.8z M59.8,23.1c0,0,0.1-0.1,0.2,0c0.1,0,0.1,0.3,0,0.4c-0.2,0.3-0.5,0.5-0.8,0.7l-0.2,0.3
		C59.1,23.8,59.3,23.4,59.8,23.1z M60.8,36.2c-0.5,0.4-1.3,0-1.5-0.6C59.2,35.8,59,36,58.8,36l0.5-0.5c0,0.1,0,0.1,0,0.2
		c0.1-0.1,0.2-0.2,0.3-0.2c0.2-0.1,0.4-0.1,0.6-0.1c0.4,0,0.8-0.2,1.1-0.6C61.4,35.3,61.3,35.9,60.8,36.2z"/>
	<path fill="#0DB89A" d="M32.7,22.9c0,0.1-0.1,0.1-0.1,0.2C32.7,23,32.7,23,32.7,22.9z"/>
</g>
</svg>
