<?xml version="1.0" encoding="utf-8"?>
<!-- Generator: Adobe Illustrator 18.0.0, SVG Export Plug-In . SVG Version: 6.00 Build 0)  -->
<!DOCTYPE svg PUBLIC "-//W3C//DTD SVG 1.1//EN" "http://www.w3.org/Graphics/SVG/1.1/DTD/svg11.dtd">
<svg version="1.1" id="Layer_1" xmlns="http://www.w3.org/2000/svg" xmlns:xlink="http://www.w3.org/1999/xlink" x="0px" y="0px"
	 viewBox="0 0 72 72" enable-background="new 0 0 72 72" xml:space="preserve">
<g>
	<path fill="#010101" d="M43.1,12C43.1,12,43.1,12,43.1,12c0.1-0.1,0.2-0.2,0.3-0.4L43.1,12z"/>
	<path fill="#010101" d="M42.3,30.3c0,0.1,0,0.1,0,0.2c0,0,0,0,0,0C42.4,30.5,42.4,30.4,42.3,30.3z"/>
	<path fill="none" d="M33.8,35.4c0.2,0.1,0.4,0.1,0.5,0.1c0.1,0,0.2,0,0.2,0.1c0.1,0.1,0,0.2,0,0.3c0,0.1,0.3,0.1,0.3,0
		c0.1-0.1,0-0.3,0-0.4c-0.1-0.2-0.2-0.4-0.2-0.6c-0.3,0-0.6,0.2-0.9,0.4l-0.1-0.3C33.5,35.1,33.6,35.3,33.8,35.4z"/>
	<path fill="none" d="M36.8,20.6c0,0.1,0,0.3,0.1,0.4c0,0,0,0.1,0.1,0.1c0,0,0.1,0,0.1,0c0.6-0.3,0.8-1,0.6-1.6
		C37.5,19.9,37.2,20.3,36.8,20.6z"/>
	<path fill="none" d="M38.1,53.8c0.2,0.1,0.4,0.1,0.6,0.1c0.2,0,0.4,0,0.6-0.1c0.1-0.1,0.2-0.1,0.3-0.2c0.2-0.2,0.4-0.4,0.6-0.6
		c0.4-0.4,0.8-0.8,0.8-1.4c0-0.3-0.1-0.6-0.4-0.8c0,0.2,0,0.5,0,0.7c-0.1,0.2-0.2,0.5-0.4,0.6c-0.3,0.1-0.6,0-0.8,0.2
		c0,0.1-0.1,0.1-0.1,0.2c-0.1,0.1-0.1,0.2-0.2,0.3c-0.2,0.3-0.6,0.7-1,0.5C37.9,53.4,38,53.7,38.1,53.8z"/>
	<path fill="none" d="M36.7,6.4c0.2,0.1,0.5,0.1,0.8-0.1l-0.2,0.2c0.6-0.4,0.9-1.1,0.8-1.8C38,5,37.7,5.3,37.4,5.4
		c-0.3,0.1-0.6,0-0.8,0.1C36.3,5.7,36.4,6.2,36.7,6.4z"/>
	<path fill="none" d="M29.7,32.2c-0.1-0.2-0.5-0.2-0.8-0.1c-0.3,0.1-0.5,0.1-0.8,0.1c-0.3,0-0.5-0.1-0.7-0.3
		c-0.2-0.2-0.3-0.6-0.6-0.6c-0.1,0-0.2,0.1-0.3,0.1c-0.3,0.3-0.6,0.6-1,0.8c-0.1,0.1-0.3,0.1-0.4,0.2c-0.1,0.1-0.2,0.3-0.2,0.4
		c0,0.2,0.2,0.3,0.4,0.3s0.4,0,0.5,0.1c0.2,0.1,0.3,0.3,0.5,0.3c0.1,0,0.2-0.1,0.2-0.1c0.3-0.2,0.8-0.3,1,0c0.1,0.1,0.1,0.2,0.2,0.2
		c0.1,0.1,0.2,0.2,0.3,0.2s0.3,0,0.3-0.2c0-0.1,0-0.2,0-0.2c0-0.1,0.2-0.2,0.3-0.3c0.2-0.1,0.3-0.2,0.5-0.3c0.1-0.1,0.3-0.2,0.4-0.3
		C29.7,32.6,29.8,32.4,29.7,32.2z"/>
	<path fill="none" d="M36.7,20.7C36.7,20.6,36.8,20.6,36.7,20.7c0.1-0.1,0.1-0.1,0.1-0.2L36.7,20.7z"/>
	<path fill="none" d="M25.8,40.7c-0.2,0-0.5,0.1-0.6-0.1c-0.1-0.1-0.1-0.2-0.1-0.3c-0.1-0.1-0.2-0.2-0.3-0.1c0,0,0,0.1,0,0.1
		c-0.1,0.4-0.1,0.8,0.1,1.2c0.3,0.5,0.9,0.5,1.5,0.5l-0.8-0.2c0.1-0.2,0.3-0.1,0.5-0.2c0.4-0.1,0.6-0.6,0.4-0.9
		C26.2,40.5,26,40.6,25.8,40.7z"/>
	<path fill="none" d="M27.8,21.3c0,0.1,0.1,0.3,0.3,0.2c0.1,0,0.1-0.2,0.2-0.3c0.1-0.1,0.2,0,0.3,0c0.4,0,0.6-0.4,0.5-0.8
		c-0.1-0.3-0.5-0.5-0.8-0.6c-0.3-0.1-0.7-0.2-0.9-0.4c0.2,0.4,0.4,0.9,0.4,1.3C27.8,20.9,27.8,21.1,27.8,21.3z"/>
	<path fill="none" d="M28.6,41.5c-0.1,0-0.3,0.1-0.4,0.2c-0.2,0.2-0.4,0.3-0.6,0.5c-0.1,0.1-0.3,0.3-0.2,0.4l0.4-0.2
		c0.4,0,0.8-0.2,1-0.5c0.1-0.1,0.1-0.1,0.1-0.2C28.9,41.6,28.7,41.5,28.6,41.5z"/>
	<path fill="none" d="M31.8,19.4c0-0.3,0.4-0.4,0.6-0.6c0.3-0.2,0.2-0.6,0.2-1c0,0.2-0.3,0.3-0.5,0.3c-0.2,0-0.5,0-0.7,0.1
		c-0.1,0.1-0.1,0.2-0.1,0.4c0,0.2,0.1,0.4,0.2,0.6C31.5,19.4,31.7,19.4,31.8,19.4z"/>
	<path fill="none" d="M28.8,23.2c0,0.1,0.1,0.2,0.1,0.3c0.2,0.3,0.5,0.7,0.8,0.9c0.1,0.1,0.2,0.1,0.2,0.2c0,0.1,0.1,0.1,0.1,0.2
		c0.1,0.2,0.1,0.4,0.1,0.6c-0.1,0.2-0.3,0.3-0.5,0.2c0,0.2,0,0.3,0,0.5c0,0.2,0,0.5,0.2,0.6c0.1,0.2,0.4,0.3,0.6,0.2
		c0.3-0.1,0.3-0.5,0.5-0.8c0.2-0.2,0.5-0.3,0.7-0.2c0.2,0.1,0.4,0.3,0.6,0.5c0.2,0.2,0.5,0.3,0.7,0.1c0.2-0.1,0.2-0.4,0-0.5
		c-0.1-0.1-0.3-0.1-0.5-0.2c-0.2,0-0.4-0.2-0.4-0.3c0.4,0,0.7-0.3,0.7-0.7c0-0.4-0.2-0.7-0.5-1c-0.1-0.1-0.1-0.1-0.2-0.2
		c-0.1,0-0.2,0-0.3,0c-0.4,0-0.9-0.2-1.1-0.5c-0.3-0.3-0.4-0.8-0.3-1.2c-0.1,0.5-0.6,0.9-1.1,1C29.2,22.9,28.9,23,28.8,23.2z"/>
	<path fill="none" d="M31.9,19.4c0,0-0.1,0-0.1,0c0,0,0,0,0,0L31.9,19.4z"/>
	<path fill="none" d="M31.8,7.3c0.3,0,0.7,0.1,1,0L32,6.9c0,0,0,0,0,0c0.1,0,0.3,0,0.4,0c0.2-0.1,0.4-0.3,0.4-0.6
		c-0.4,0-0.7,0.2-1,0.4c-0.2,0.1-0.3,0.2-0.3,0.4C31.5,7.3,31.7,7.3,31.8,7.3z"/>
	<path fill="none" d="M39.2,21.2c0.5-0.1,1-0.4,1.6-0.4c-0.5-0.5-1-0.9-1.6-1.2c0.1,0.2,0.1,0.3,0.1,0.5c0,0.2-0.1,0.4-0.4,0.5
		c-0.1,0-0.1,0-0.2,0c-0.2,0.1-0.2,0.3,0,0.4C38.8,21.2,39,21.2,39.2,21.2z"/>
	<path fill="none" d="M36.3,64.2c0,0.1,0.1,0.2,0.1,0.2l0.4-2.6c-0.3,0.1-0.7,0.2-1,0.2C36,62.8,36.2,63.5,36.3,64.2z"/>
	<path fill="none" d="M22.1,42.8c-0.1-0.2-0.4-0.3-0.5-0.2c0.1,0.2-0.2,0.4-0.4,0.4c-0.2,0-0.5-0.1-0.7,0c-0.1,0.1-0.2,0.2-0.3,0.2
		c-0.3,0.2-0.7,0.1-1.1,0c-0.6-0.1-1.1-0.2-1.7-0.2c-0.2,0-0.4,0-0.6,0.1c-0.4,0.2-0.5,0.8-0.3,1.3c0,0,0,0.1,0.1,0.1
		c0,0,0.1,0,0.1,0.1c0.6,0,1-0.5,1.6-0.6c0.3-0.1,0.7,0,1,0.3c0.1,0.1,0.3,0.3,0.5,0.4c0-0.2,0.1-0.4,0.3-0.6
		c0.2-0.1,0.4-0.2,0.6-0.2c0.4-0.1,0.9-0.2,1.3-0.2c0.2,0,0.3-0.1,0.5-0.2c0.1-0.1,0.2-0.3,0.2-0.5C22.4,43.2,22.2,42.9,22.1,42.8z"
		/>
	<path fill="none" d="M33.9,60.5c0-0.8,0.1-1.6,0.3-2.4c-0.3,0.1-0.5,0.4-0.6,0.7c-0.1,0.3-0.1,0.6-0.1,0.9c0,0.7,0,1.3,0.1,2h0
		C34,61.4,33.9,60.9,33.9,60.5z"/>
	<path fill="none" d="M27.4,55.7c-0.1,0.2-0.1,0.4-0.1,0.6c0,0.1,0,0.1,0,0.2c0,0,0.1,0,0.1,0c0.3,0,0.6-0.3,0.6-0.6
		c-0.1-0.2-0.2-0.4-0.2-0.6C27.6,55.4,27.5,55.5,27.4,55.7z"/>
	<path fill="none" d="M36.5,64.4c0.1,0,0.2-0.1,0.3-0.2c0.2-0.1,0.4,0.1,0.6,0.2c0.2,0.1,0.4,0,0.7,0c0.4-0.1,0.8-0.2,1.2-0.2
		c0.1,0,0.2,0,0.2-0.1c0.1-0.1,0-0.3-0.1-0.3c-0.1-0.1-0.3,0-0.4-0.1c-0.5-0.1-0.9-0.6-1-1.1c-0.1-0.3-0.2-0.6-0.4-0.7
		c-0.2-0.1-0.4-0.1-0.7,0L36.5,64.4C36.5,64.4,36.5,64.4,36.5,64.4z"/>
	<polygon fill="none" points="33.7,61.7 33.7,61.7 33.7,61.7 	"/>
	<path fill="none" d="M48.2,29.1c0.3,0,0.6-0.1,0.9-0.3c0.2-0.2,0.4-0.4,0.3-0.6c0-0.1-0.1-0.2-0.1-0.3c0-0.1,0-0.2,0-0.3
		c0-0.1-0.2-0.2-0.3-0.3c-0.2-0.1-0.3-0.2-0.4-0.4c-0.1-0.2,0-0.4,0.2-0.5c0-0.2-0.1-0.3-0.1-0.5c-0.3,0-0.5,0.4-0.4,0.7
		c0.1,0.3,0.2,0.6,0.4,0.9c0,0.1,0.1,0.2,0,0.3c0,0.2-0.2,0.3-0.3,0.4c-0.2,0.1-0.3,0.1-0.5,0.1c0,0-0.1,0-0.1,0
		c-0.1,0-0.1,0.1-0.1,0.2C47.6,28.8,47.9,29.1,48.2,29.1z"/>
	<path fill="none" d="M51,30.9c0.2,0.1,0.4,0.2,0.6,0.3c-0.2,0.2-0.3,0.6-0.2,0.9c0.1,0.3,0.5,0.5,0.8,0.3c0.2-0.1,0.3-0.2,0.3-0.4
		c0.1-0.2,0-0.5,0.2-0.6c0.1-0.1,0.4-0.1,0.6-0.1c0.2,0,0.4-0.2,0.5-0.4c0.1-0.2,0-0.5-0.1-0.6c-0.2-0.2-0.5-0.3-0.6-0.6
		C53,29.6,53,29.4,53,29.2c0-0.2-0.1-0.4-0.3-0.4c-0.1,0-0.2,0.1-0.3,0.2c-0.5,0.3-1.1,0.1-1.6,0.3c-0.4,0.1-0.7,0.5-0.7,0.8
		C50.1,30.5,50.6,30.7,51,30.9z"/>
	<path fill="none" d="M39,19.5c0.1,0,0.1,0.1,0.2,0.1c0,0,0-0.1,0-0.1L39,19.5z"/>
	<path fill="none" d="M27.8,55.2c0,0,0,0.1,0,0.1c0,0,0,0,0.1,0L27.8,55.2z"/>
	<path fill="none" d="M54.5,29.8c0.3,0,0.6-0.1,0.8-0.3c0,0,0.1-0.1,0.1-0.1c0-0.1,0-0.2,0-0.2c-0.3-0.6-0.7-1.2-1.2-1.7
		c-0.1,0.2-0.1,0.4-0.1,0.6c0,0.2,0.1,0.4,0.3,0.4c0.1,0,0.1,0,0.2,0c0.2,0.1,0.2,0.4,0.2,0.6c0,0.1,0,0.1-0.1,0.1c0,0-0.1,0-0.1,0
		c-0.3,0-0.6-0.1-0.8,0.1C53.9,29.7,54.2,29.8,54.5,29.8z"/>
	<path fill="none" d="M50.8,26.2c0.2,0.1,0.4,0.1,0.6,0.1c0.2,0,0.4-0.2,0.4-0.4c0-0.1,0-0.2-0.1-0.2c-0.1-0.2-0.3-0.5-0.4-0.6
		c-0.2-0.2-0.5-0.3-0.7-0.2l-0.1,0c-0.1,0-0.2,0.2-0.2,0.4c0,0.3,0,0.6,0,0.9C50.4,26.1,50.6,26.1,50.8,26.2z"/>
	<path fill="none" d="M39.5,50.3c0.1-0.1,0-0.3,0.1-0.5c0,0,0.1-0.1,0.1-0.1c0.1-0.1,0.2-0.2,0.4-0.4c0.2-0.2,0.4-0.4,0.5-0.6
		c0.1-0.2,0.1-0.5,0-0.7c0,0.2-0.2,0.3-0.4,0.4c-0.2,0.1-0.4,0.1-0.6,0.1c-0.3,0.1-0.6,0.4-0.8,0.7c-0.2,0.3-0.2,0.7-0.3,1.1
		c0.3,0,0.5,0,0.8,0.1C39.4,50.3,39.5,50.3,39.5,50.3z"/>
	<path fill="none" d="M44.4,10.1l0.1-0.2c-0.3,0.2-0.6,0.3-0.9,0.5c-0.4,0.2-0.9,0.5-1,1c0,0.2,0.1,0.5,0.3,0.5c0,0,0.1,0,0.1,0
		l-0.2,0.2c0.1-0.1,0.2-0.2,0.2-0.2c0,0,0,0,0.1,0c0.2,0,0.1,0.3,0.2,0.4c0.1,0.1,0.2,0.1,0.2,0.1c0,0,0.1,0.1,0.1,0.1
		c0-0.2,0.2-0.3,0.3-0.4c0.2-0.3,0.2-0.6,0.1-0.9c0-0.1,0-0.2-0.1-0.4c0-0.1-0.1-0.2-0.1-0.3c0,0,0,0,0,0l0.1-0.1c0,0,0,0,0,0
		c0.2-0.2,0.4-0.3,0.6-0.4C44.7,10,44.6,10,44.4,10.1z"/>
	<path fill="none" d="M42.7,29.2c-0.2,0-0.4,0-0.6,0.2c-0.3,0.2-0.6,0.6-0.5,1c0,0,0,0.1,0.1,0.1c0,0,0.1,0,0.2,0c0.1,0,0.3,0,0.4,0
		c0,0,0,0,0,0c0,0,0,0,0,0c0.2,0,0.4-0.1,0.6-0.2l-0.5-0.1c0.1,0,0.2,0,0.2,0c0.2,0,0.5-0.2,0.5-0.5C43.2,29.5,43,29.3,42.7,29.2z"
		/>
	<path fill="none" d="M42.1,31.5C42.1,31.5,42.2,31.5,42.1,31.5c0.2,0.1,0.3,0.1,0.5,0.1c0.1,0,0.3-0.1,0.3-0.3
		c0-0.2-0.2-0.3-0.3-0.5c-0.1-0.1-0.1-0.1-0.2-0.2c0,0.2-0.1,0.5-0.2,0.7C42.1,31.3,42.1,31.4,42.1,31.5z"/>
	<path fill="none" d="M41.9,67.6c0.3,0.2,0.6,0.3,0.9,0.2c0-0.2-0.2-0.3-0.3-0.4c-0.2-0.1-0.4-0.1-0.5-0.2c-0.3-0.1-0.6-0.4-0.8-0.6
		c-0.4-0.3-0.9-0.5-1.3-0.7C40.4,66.6,41.1,67.1,41.9,67.6z"/>
	<path fill="none" d="M38.3,66.4c0,0.5,0.4,0.9,0.5,1.4c0.2,0.1,0.5,0.1,0.7,0c0.2-0.1,0.4-0.4,0.2-0.6
		C39.3,67.1,38.7,66.8,38.3,66.4z"/>
	<path fill="none" d="M41.5,55c-0.6,0-1.2,0.1-1.9,0.1c-0.1,0-0.2,0-0.3,0.1c-0.1,0.1-0.1,0.2-0.2,0.2c-0.2,0.5-0.5,0.9-0.7,1.4
		c0.3,0.1,0.5,0,0.8-0.1c0.2-0.1,0.4-0.2,0.6-0.2c0.5-0.2,0.9-0.4,1.3-0.7c0.2-0.2,0.4-0.4,0.5-0.7c0,0,0-0.1,0-0.1
		C41.6,55,41.6,55,41.5,55z"/>
	<path fill="none" d="M50,33.7c-0.2-0.1-0.4-0.2-0.6-0.3c-0.2-0.2-0.1-0.6,0.1-0.8c0.1,0,0.1-0.1,0.2-0.1c0-0.1,0-0.1,0-0.2
		c-0.1-0.2-0.1-0.5-0.2-0.7c0-0.1,0-0.2-0.1-0.2c-0.1-0.1-0.2-0.1-0.3-0.1c-0.5,0-1,0-1.5,0c-0.2,0.4,0.3,0.8,0.4,1.2
		c0.1,0.2,0,0.5-0.1,0.7c-0.2,0.5-0.6,1-1.1,1.1c-0.4,0-0.8-0.1-1.1,0.2c-0.1,0.1-0.2,0.2-0.3,0.4c-0.2,0.3-0.6,0.5-0.9,0.5
		c0.4,0.6,1.2,0.6,1.8,0.6c0.4,0,0.9,0,1.3,0c0.1,0,0.3,0,0.4-0.1c0.1-0.1,0.1-0.2,0.2-0.3c0.4-0.6,1.4-0.5,1.9-1
		c0.1-0.1,0.1-0.2,0.1-0.3C50.4,34,50.2,33.8,50,33.7z"/>
	<path fill="none" d="M35.7,25c0.2-0.2,0.3-0.8-0.1-0.7c-0.8,0.1-0.7,2-1.2,2.4c0.5,0.2,1.1-0.2,1.2-0.8c0,0,0-0.1,0-0.1
		c-0.2-0.1-0.4,0-0.4-0.3C35.2,25.1,35.6,25.2,35.7,25z"/>
	<path fill="none" d="M31.9,57.1c-0.1-0.1-0.2,0-0.3,0.1c-0.1,0.1-0.1,0.2-0.2,0.3c0,0-0.1,0-0.1,0.1c0.1,0.5,0.4,0.9,0.8,1.3
		c0-0.6-0.1-1.1-0.1-1.7C31.9,57.2,31.9,57.1,31.9,57.1z"/>
	<path fill="none" d="M31.4,35.3c-0.2-0.3-0.2-0.7-0.2-1c0,0,0-0.1,0-0.1c0,0,0,0-0.1,0c-0.4-0.1-0.8-0.2-1.2-0.1
		c-0.4,0.1-0.7,0.5-0.6,0.9c0,0.2,0.2,0.3,0.3,0.4c0.2,0.1,0.5,0.1,0.7,0.2c0.2,0.2,0.2,0.4,0.4,0.6c0.2,0.2,0.5,0.2,0.8,0.3
		c0.2,0.1,0.4,0.2,0.6,0.3c0,0,0.1,0.1,0.1,0.1c0.1,0,0.1,0,0.2-0.1c0.2-0.3,0-0.6-0.3-0.8C31.9,35.7,31.6,35.5,31.4,35.3z"/>
	<path fill="none" d="M32.8,35l0.1-0.3c0,0-0.1,0-0.1,0C32.8,34.8,32.8,34.9,32.8,35z"/>
	<path fill="none" d="M31.2,57.6C31.2,57.6,31.3,57.6,31.2,57.6c0.1-0.1,0.1-0.1,0.1-0.1L31.2,57.6z"/>
	<path fill="none" d="M33.1,33.9c-0.1-0.2-0.4-0.2-0.5,0c-0.1,0.1-0.1,0.4-0.1,0.6c0,0.1,0.1,0.2,0.3,0.3c0-0.1,0.1-0.2,0.1-0.2
		C33.1,34.3,33.2,34.1,33.1,33.9z"/>
	<path fill="none" d="M30.5,58.7c-0.4-0.1-0.7-0.4-0.9-0.7l0,0c-0.1,0-0.2-0.1-0.2-0.1c-0.2,0-0.4,0.3-0.3,0.5c0,0.1,0,0.1,0,0.2
		c0.1,0.2,0.4,0.1,0.6,0.2c0.2,0.1,0.3,0.4,0.4,0.6c0.2,0.2,0.5,0.4,0.7,0.2c0.3-0.1,0.3-0.5,0.1-0.7C30.9,58.7,30.7,58.7,30.5,58.7
		z"/>
	<path fill="none" d="M35.3,43.3C35.2,43.3,35.2,43.2,35.3,43.3c-0.4-0.1-0.6,0-0.8,0.2c-0.4,0.4-0.3,1-0.4,1.5
		c-0.2,0.7-0.7,1.3-0.8,2.1c0,0.3,0,0.7-0.2,1c0,0.1,0.1,0,0.1,0c0.6-0.5,1-1.3,1.1-2.1c0-0.3,0-0.7,0.1-1c0.1-0.3,0.2-0.6,0.5-0.8
		c0.1,0,0.1-0.1,0.2-0.1c0.2-0.1,0.2-0.4,0.2-0.6C35.3,43.4,35.3,43.3,35.3,43.3z"/>
	<path fill="none" d="M37.4,55.5c-0.3,0.2-0.6,0.4-0.8,0.6c-0.2,0.2-0.2,0.4-0.3,0.7c-0.2,0.4-0.3,0.9-0.5,1.3
		c0.3,0,0.5,0.3,0.7,0.1c0.1-0.1,0.1-0.1,0.1-0.2c0.3-0.7,0.6-1.4,1.1-2c0.2-0.2,0.3-0.4,0.4-0.6c0.2-0.3,0.2-0.7,0.1-1
		C38.1,54.8,37.8,55.2,37.4,55.5z"/>
	<path fill="none" d="M33.2,54.2l0.1,0c0.1,0.2,0.1,0.5,0.3,0.7c0.1,0.2,0.4,0.4,0.6,0.4c0.1,0,0.3,0,0.3-0.1c0-0.1,0-0.1,0.1-0.2
		c0.1-0.7,0-1.5-0.1-2.2C34.1,53.3,33.6,53.7,33.2,54.2z"/>
	<path fill="none" d="M34.4,50.2c-0.3,0.3-0.6,0.6-0.8,0.9c0,0,0,0.1,0,0.1c0,0.1,0.1,0.1,0.1,0.1c0.3,0.1,0.5,0.3,0.8,0.4L34.1,52
		c0.2-0.1,0.3-0.3,0.5-0.4c0,0,0.1-0.1,0.1-0.1c0-0.1,0-0.1,0-0.2C34.6,50.9,34.5,50.6,34.4,50.2z"/>
	<path fill="none" d="M30.2,58.2L29.7,58C29.8,58.1,30,58.3,30.2,58.2z"/>
	<path fill="none" d="M34,49.5c0.2-0.3,0.3-0.6,0.2-0.9c-0.5,0-0.9,0.4-1,0.9c-0.1,0.3,0,0.7-0.1,1l0.3-0.3
		C33.5,50,33.8,49.8,34,49.5z"/>
	<path fill="#010101" d="M32,61.6l-0.7,0.5C31.6,62,31.8,61.8,32,61.6z"/>
	<path fill="#F04B36" d="M60,46.4c-0.2-0.1-0.4-0.1-0.6-0.2c-0.2-0.2-0.1-0.5-0.1-0.7c0.1-0.3,0.3-0.8,0.6-0.8c0.1,0,0.2,0,0.3,0
		c0.3-0.1,0.1-0.5,0-0.7c-0.3-0.3-0.5-0.6-0.8-0.9c-0.1,0.6-0.7,1.1-1.4,1.1c0-0.1,0-0.3,0-0.4c-0.1-0.1-0.3-0.2-0.4-0.1
		c-0.1,0.1-0.1,0.3,0,0.5c0.1,0.2,0,0.4-0.2,0.4c-0.1,0-0.1-0.1-0.2-0.1c-0.2-0.2-0.4-0.4-0.3-0.7c0.1-0.3,0.6-0.3,0.9-0.5
		c0.3-0.2,0.4-0.5,0.2-0.8c-0.2-0.3-0.6-0.4-0.9-0.2c-0.3,0.2-0.4,0.6-0.4,0.9c-0.5-0.2-1.1-0.2-1.6,0.1c-0.1,0.1-0.2,0.1-0.3,0.2
		c-0.1,0.3,0.1,0.6,0.4,0.7c0.3,0.1,0.6,0.1,0.9,0c0,0.1,0,0.3,0,0.4c-0.6-0.1-1.3,0.2-1.9-0.1c-0.4-0.2-0.7-0.6-0.9-1
		c-0.1-0.2-0.2-0.3-0.3-0.5c0.4-0.3,0.8-0.5,1.3-0.5c0-0.2,0-0.4-0.1-0.6c0.2-0.1,0.5-0.1,0.8,0c0.3,0.1,0.6,0.1,0.8,0
		c0.2-0.1,0.4-0.5,0.2-0.7c-0.1-0.1-0.3-0.1-0.5-0.1c-0.2-0.1-0.4-0.2-0.4-0.5c-0.6,0-1.2,0.1-1.8,0.2c0.2-0.5,0.1-1.2-0.4-1.5
		c0,0.1-0.2,0.3-0.3,0.2c-0.1,0-0.3-0.1-0.4-0.2c-0.4-0.1-0.7,0.4-0.5,0.8c-0.2,0.2-0.6,0-0.7-0.2c-0.1-0.2-0.1-0.5-0.1-0.8
		c0-0.2,0-0.4-0.2-0.4c0.2-0.3,0.5-0.6,0.9-0.8c0.3-0.2,0.8-0.2,1.1,0.1c-0.1-0.3-0.2-0.6-0.2-1c0.7,0.4,1.3,0.9,1.7,1.6
		c0.2,0,0.3-0.3,0.2-0.5c-0.1-0.2-0.3-0.3-0.5-0.5c-0.2-0.1-0.3-0.4-0.2-0.6c0.1-0.3,0.5-0.2,0.6,0.1s0.1,0.6,0.3,0.8
		c0.1,0.1,0.3,0.1,0.4,0.3c0.1,0.2,0,0.5,0.2,0.6c0,0,0.1,0,0.1,0c0.5-0.2,0.6-1,0.1-1.2c-0.2-0.1-0.4-0.1-0.6-0.2
		c-0.2-0.1-0.3-0.4-0.2-0.5c0.5-0.1,1-0.3,1.5-0.4c0.2,0,0.4-0.1,0.5-0.3c0.2-0.3-0.2-0.8-0.6-0.8s-0.8,0.1-1.2,0.1
		c-0.4,0-0.8-0.5-0.5-0.8c0.5,0,1.1,0,1.6-0.2c-0.2-0.6-1.2-0.6-1.7-1c-0.6-0.4-0.7-1.5-0.1-1.9c0.1-0.1,0.2-0.1,0.3-0.1
		c0.2,0,0.2,0.2,0.3,0.3c0.3,0.4,0.9,0.5,1.4,0.6c0.3,0,0.7-0.1,0.6-0.3c0-0.1-0.2-0.2-0.3-0.3c-0.1-0.1-0.2-0.2-0.1-0.3
		c0.5,0.1,1,0.2,1.5,0.2c-0.1-0.3-0.4-0.6-0.6-0.7c0.6-0.1,1-0.9,0.8-1.5c-0.1-0.2-0.2-0.4-0.3-0.6c-0.1-0.2-0.1-0.5,0.1-0.7
		c0.5-0.4,1.2,0.8,1.7,0.4c0.2,0.1,0.5-0.3,0.4-0.6c-0.1-0.2-0.3-0.3-0.5-0.4c-0.2-0.1-0.4-0.2-0.6-0.3c-0.2-0.2-0.2-0.5-0.2-0.7
		c-0.3,0.1-0.6-0.1-0.7-0.4c-0.1-0.3,0-0.6,0.2-0.8c-0.6,0.1-1.2,0.2-1.8,0.3c-0.4-0.5-0.1-1.2,0.2-1.7c0.3-0.6,0.6-1.2,0.9-1.7
		c-0.6,0-1.3-0.1-1.9-0.1c0.2-0.4,0.8-0.4,1.2-0.3c0.4,0.1,1,0.1,1.2-0.3c0.1-0.1,0.1-0.3,0.2-0.4c0.3-0.2,0.7,0.1,1-0.2
		c-0.6-0.3-1.2-0.6-1.7-0.9c-0.1,0-0.2-0.1-0.2-0.2c0-0.1,0-0.1,0-0.2c0-0.3,0.1-0.6,0.3-0.9c0.2-0.2,0.6-0.3,0.8-0.1
		c0-0.4-0.4-0.7-0.7-0.7c-0.4-0.1-0.7,0-1.1,0.1c-0.1-0.2-0.1-0.4-0.1-0.6c0,0,0-0.1,0-0.2c0.6-0.1,1-0.9,0.9-1.4
		c0.1-0.1,0.2-0.3,0.3-0.3c-0.5-0.5-0.7-1.2-1-1.7c-0.4-0.6-1.1-1-1.7-0.7c-0.1,0.1-0.2,0.2-0.2,0.3c0,0.3,0.3,0.5,0.5,0.5
		c0.3,0,0.6,0,0.8,0c0.3,0.1,0.4,0.5,0.2,0.6c-0.1,0-0.2,0-0.3,0c-0.5,0-1.1-0.1-1.6-0.3c-0.3,0.2-0.2,0.7,0.1,0.9
		c0.3,0.2,0.6,0.3,0.9,0.5c0.3,0.2,0.4,0.7,0.1,0.9c-0.6,0.5-1.5,1-2,0.5c-0.2-0.2-0.3-0.5-0.4-0.7c-0.2-0.2-0.6-0.2-0.7,0
		c0.5,0.2,0.8,0.8,0.7,1.4c-0.2,0-0.4,0-0.5,0c-0.7-0.6-0.9-1.7-0.4-2.6c0.3,0,0.7,0,1,0c-0.1-0.9-0.2-1.7-0.3-2.6
		c0.3,0,0.5-0.3,0.5-0.6c0-0.3-0.2-0.6-0.4-0.8c-0.6-0.6-1.5-0.8-2.3-0.6c0-0.6,0.9-0.7,1.6-0.6c-0.1-0.5-0.5-0.8-0.8-1.1
		c-0.3-0.3-0.6-0.6-1-0.7c-0.4-0.1-0.9-0.1-1.1,0.3c-0.2,0.3-0.4,0.9-0.8,0.7c0.1-0.7-0.1-1.4-0.7-1.9c-0.2-0.2-0.5-0.3-0.8-0.3
		c-0.3,0.1-0.5,0.4-0.3,0.7c0.1,0.1,0.2,0.2,0.3,0.3c0.1,0.1,0.1,0.3-0.1,0.3c-0.2,0.5-0.7,1.2-1.2,1c-0.2-0.1-0.3-0.2-0.5-0.4
		c-0.4-0.2-1-0.1-1.2,0.3c0-0.6-0.3-1.1-0.8-1.4c-0.5-0.3-1.2-0.2-1.6,0.1c0-0.7,0.1-1.3,0.1-2c0-0.2,0-0.4-0.1-0.6
		C41.3,5,41,4.9,40.8,4.8c-0.4-0.4-0.3-0.9-0.2-1.5c0-0.5-0.1-1.2-0.7-1.2c-0.3,0-0.5,0.2-0.7,0.3c-0.2,0.2-0.5,0.3-0.7,0.3
		c-0.3,0-0.4-0.4-0.2-0.6c-0.6,0.3-1.2-0.5-1.9-0.6c-0.2,0-0.4,0-0.6,0c-0.5,0.1-0.9,0.2-1.4,0.3c-0.1,0-0.2,0-0.4,0
		c-0.2-0.1-0.3-0.3-0.4-0.5c-0.2-0.4-0.7-0.7-1.2-0.8c-0.1,0.4-0.1,0.7-0.1,1.1c-0.1,0.2-0.3,0.1-0.5,0c-0.1-0.1-0.3-0.3-0.4-0.3
		c-0.3-0.1-0.5,0.2-0.7,0.4C30.6,2,30.3,2,30,2.2c-0.3,0.2-0.5,0.6-0.2,0.8c-0.4-0.2-0.7-0.7-0.6-1.1c-0.6-0.1-1.1,0.3-1.3,0.9
		c-0.1,0.5,0.2,1.2,0.7,1.4C27.9,4,27.1,4.3,26.8,5c-0.2-0.4-0.2-0.9-0.1-1.4c-0.9,0-1.7,0.8-1.6,1.7c-0.4,0-0.8,0.2-0.9,0.5
		c0.5,0.1,1.2,0.6,0.9,1.1c-0.2,0.2-0.5,0.3-0.8,0.3c-0.3,0.1-0.6,0.3-0.5,0.6c0.5,0.1,1.1,0.3,1.5,0.6c-0.2,0.2-0.4,0.3-0.6,0.5
		c0,0.3,0.1,0.5,0.3,0.7c0.1,0.1,0.3,0.1,0.4,0.1c-0.3,0.2-0.7,0.2-1,0.2c-0.4,0.1-0.9,0.5-0.7,0.9c0.1,0.2,0.3,0.3,0.4,0.3
		c0.6,0.3,1.1,0.6,1.7,0.9c0.3,0.2,0.7,0.6,0.5,0.9c0.2,0.2,0.5,0.4,0.8,0.4c-0.2,0.1-0.3,0.2-0.5,0.3c0.6,0,1.2,0,1.8,0
		c0,0.5,0.5,0.8,0.9,0.7c-0.1,0.8,0.5,1.5,1.3,1.6c-0.6,0.6,0.6,1.9,0,2.3c-0.2,0.1-0.4,0.1-0.6,0.2c-0.2,0.1-0.2,0.5,0,0.5
		c-0.3,0.2-0.7-0.1-0.7-0.5c0-0.4,0.2-0.7,0.5-0.9c-0.3-0.1-0.7-0.1-1-0.2c0.3-0.5,0.6-1,0.8-1.5c-0.3-0.3-0.6-0.7-0.6-1.1
		c-0.4,0.2-0.5,0.6-0.7,1c-0.2,0.4-0.6,0.7-1,0.5c-0.3-0.1-0.3-0.5-0.5-0.8c-0.3-0.6-0.9-0.8-1.5-1.2c-0.9-0.6-1.7-1.4-2.2-2.4
		c-0.3-0.6-0.4-1.2-0.9-1.6c-0.5-0.4-1.3-0.5-1.6,0.1c-0.1,0.2-0.1,0.5-0.4,0.6c-0.1,0-0.2,0-0.3-0.1c-0.3-0.1-0.6-0.3-0.9-0.4
		c-0.5,0-1.1,0.4-1.1,0.9c0,0.5,0.7,1,1.1,0.6c-0.5,0.5-0.5,1.3-0.2,1.9c0.3-0.2,0.8,0.1,0.9,0.4c0,0.1,0,0.3,0,0.4
		c0.1,0.6,0.7,0.8,1.2,1.1c0.1,0.1,0.2,0.2,0.2,0.3c0,0.2-0.1,0.3-0.3,0.4c-0.2,0.2-0.4,0.3-0.7,0.3c0-0.6-0.4-1.1-0.8-1.4
		c-0.3-0.2-0.7-0.3-1-0.5c-0.3-0.2-0.6-0.5-0.6-0.9c0-0.1,0-0.2,0-0.3c-0.1-0.1-0.3-0.2-0.4-0.2c-0.5,0-1.1,0-1.3,0.4
		c-0.1,0.1-0.1,0.2-0.2,0.3c-0.3,0.3-0.8,0-0.7-0.4c-0.3-0.1-0.7,0.2-0.8,0.5c-0.1,0.3-0.1,0.7,0,1c0.2,0,0.2,0.2,0.1,0.4
		c-0.1,0.1-0.3,0.2-0.4,0.3c-0.1,0.1-0.2,0.3-0.1,0.4c0.6,0.1,1.2,0.1,1.7,0.2c0.1,0,0.2,0,0.2,0.1c0.1,0.1,0,0.2,0,0.3
		c0,0.3,0.4,0.5,0.6,0.8c0.1,0.2,0,0.5,0.1,0.7c0.1,0.5,0.7,0.6,1.1,0.6C17,20,17.8,20.7,18.5,21c0.2,0.1,0.4,0.1,0.6,0.3
		c0.2,0.1,0.3,0.4,0.2,0.6c-0.1,0.3-0.5,0.3-0.8,0.2s-0.6-0.2-0.9,0c0,0.4,0,0.8,0,1.2c0,0.1,0,0.2-0.1,0.3
		c-0.1,0.1-0.2,0.2-0.3,0.3c-0.3,0.2-0.6,0.4-0.8,0.8c-0.2,0.3-0.1,0.8,0.1,1c0.3,0.3,0.9,0.2,1.1,0.5c0.2,0.2,0.2,0.5,0.3,0.8
		c0.2,0.9,0.9,1.7,1.8,1.9c-0.1,0.5,0,1.2,0.4,1.3c0.2,0.1,0.5,0,0.7,0c1.1-0.3,2.2-0.7,3.3-1c-0.1,0.6-0.2,1.2-0.3,1.9
		c0,0.2-0.1,0.3-0.2,0.5c-0.1,0.2-0.3,0.2-0.6,0.3c-0.3,0.1-0.7,0.2-1,0.3c-0.5,0.2-1.1,0.3-1.5-0.1c-0.2-0.2-0.3-0.4-0.5-0.5
		c-0.4-0.2-1,0-1.1-0.4c-1.1-0.6-2.5-0.8-3.6-0.3c-0.3,0.1-0.6,0.3-1,0.4c-0.3,0.1-0.7,0-0.9-0.3c-0.1-0.2-0.1-0.5-0.3-0.7
		C13.2,30,12.9,30,12.6,30c-0.3,0-0.5,0.1-0.8,0c-0.2-0.1-0.4-0.4-0.3-0.6c-0.3,0.3-0.3,0.8-0.2,1.2c0.1,0.4,0.1,0.8,0.4,1
		c0.3,0.3,0.8,0.3,1-0.1c0.1,0.2,0,0.4-0.2,0.5c-0.2,0.1-0.4,0.1-0.6,0c-0.1,0.3,0.3,0.6,0.7,0.6c0.3,0,0.7-0.2,1-0.1
		c0.1,0.4,0,0.9-0.2,1.2c-0.3,0.3-0.9,0.3-1-0.1c-0.1,0.5-0.2,1.1-0.4,1.6c0,0.1-0.1,0.3-0.1,0.4c0,0.3,0.2,0.6,0.5,0.7
		c0.1,0,0.2,0,0.3,0.1c0.3,0.2,0,0.7,0.1,1c0,0.1,0.1,0.3,0.2,0.4c0.1,0.2,0,0.3,0,0.5c-0.1,1.1-0.2,2.2-0.3,3.3
		c0.6-0.1,1.3-0.1,1.7,0.4c0.1,0.2,0.3,0.4,0.5,0.3c0.2,0.4-0.1,1-0.6,1c0.2,0.4,0.7,0.6,1.2,0.5c0.1,0.3-0.3,0.6-0.4,0.9
		c-0.1,0.4,0.4,0.8,0.4,1.3c0,0.1,0,0.3,0.1,0.4c0.1,0.1,0.2,0.1,0.3,0.1c0.5,0,1,0,1.4,0c0.1,0,0.2,0,0.2,0c0.3-0.2,0-0.7,0-1
		c0.4-0.2,0.9,0,1.1,0.4c0.1,0.1,0.1,0.3,0.2,0.3c0.1,0.1,0.2,0.1,0.3,0.1c0.6,0.1,1.2,0.1,1.8,0.2c0.6,0.1,1.3,0.1,1.7-0.3
		c-0.7,0.6-1.5,1-2.4,1.1c-0.2,0-0.4,0-0.6,0c-0.2-0.1-0.5-0.2-0.7-0.2c-0.4,0-0.6,0.5-1,0.6c-0.5,0.1-1.1-0.6-1.6-0.2
		c-0.3,0.3-0.1,0.8,0.3,1c0.4,0.2,0.9,0.1,1.2,0.3c0.1,0.4,0.6,0.5,0.9,0.3c0.2-0.2,0.3-0.4,0.4-0.6c0.4-0.6,1.2-0.7,1.9-0.7
		c-0.2,0.2-0.1,0.6,0.1,0.8c0.3,0.2,0.6,0.1,0.9,0.1c2.1,0,4.3,0.8,6.3,0.2c0,0.5,0.4,0.9,0.8,1c0.4,0.2,0.9,0.2,1.4,0.2
		c0.1,0,0.2,0,0.3,0c0.1-0.1,0.1-0.3,0-0.4c-0.1-0.1-0.3-0.2-0.4-0.3c-0.6-0.3-1.1-1.1-0.7-1.6c0.4,0.1,0.8,0.3,1.2,0.5
		c0.1,0.1,0.3,0.2,0.4,0.3c0.1,0.1,0.1,0.3,0.1,0.5c0,0.6,0.1,1.1,0.1,1.7c0.1,1,0,1.9,0,2.9c-0.3,0.1-0.6-0.2-0.7-0.4
		c-0.4-0.5-1-1-1.6-0.7c-0.1,0.1-0.3,0.2-0.5,0.1c-0.1,0-0.1-0.1-0.1-0.2c-0.1-0.2-0.1-0.5-0.2-0.7c-0.4-0.2-0.6,0.9-1,0.7
		c0-0.2-0.4-0.3-0.6-0.2c-0.2,0.1-0.3,0.3-0.5,0.5c-0.2,0.2-0.4,0.3-0.6,0.2c-0.1-0.4,0.2-0.8,0.4-1.1c-0.5,0.3-1,0.5-1.5,0.8
		c0,0.5,0,1.1-0.4,1.5c-0.1,0.1-0.3,0.2-0.4,0.3c-0.6,0.3-1.3,0.6-2,0.5c-0.4-0.4-0.8-0.8-1.1-1.3c0.6,0.2,1.2,0,1.6-0.5
		c0.2-0.3,0.2-0.9-0.2-1c-0.3,0-0.7,0.3-0.9,0.1c-0.2-0.3,0.2-0.7,0.2-1.1c0-0.4-0.6-0.6-1.1-0.5c-0.4,0.1-0.9,0.3-1.3,0.1
		c0.2-0.2,0.1-0.6-0.2-0.7c-0.3-0.1-0.6-0.1-0.9,0c-0.3,0.1-0.6,0.2-0.9,0.1c-0.2,0.2,0.1,0.5,0.4,0.6c0.4,0.1,0.7,0.3,1.1,0.4
		c0.3,0.4-0.4,0.8-0.3,1.3c0,0.3,0.4,0.5,0.6,0.6c0.1,0.1,0,0.3-0.1,0.3c-0.1,0.1-0.3,0-0.4,0.1c-0.4,0.1-0.5,0.7-0.4,1.1
		c0.1,0.4,0.4,0.8,0.5,1.2c0.3,0.1,0.6,0.1,0.8,0c0.2-0.1,0.3-0.3,0.5-0.4c0.4-0.2,0.9,0,1.2,0.3c-0.3,0.2-0.7,0.3-1,0.4
		c0,0.3,0,0.7,0,1c0,0.1,0,0.2,0,0.3c-0.1,0.3-0.5,0.2-0.8,0.1c-0.3-0.1-0.6-0.3-0.8-0.1c0.1,0.6,0,1.3-0.4,1.8
		c0.5,0.5,1.4,0.2,1.6-0.4c0.1,0.4,0.5,0.6,0.9,0.6c0.4,0,0.8-0.1,1.1-0.2c0.3-0.1,0.7-0.2,0.9-0.5c0.2-0.3,0.2-0.8-0.1-0.9
		c-0.2-0.1-0.3,0-0.5-0.1c-0.1-0.1-0.1-0.3,0-0.4c0.1-0.1,0.3-0.2,0.4-0.2c0.1-0.2,0-0.4-0.1-0.6c-0.1-0.2-0.2-0.5,0-0.5
		c0.1,0,0.1,0,0.2,0c0.4,0,0.8,0.1,1,0.5c0.2,0.2,0.6-0.1,0.6-0.3c0.1-0.3,0-0.6-0.2-0.8c0.3-0.1,0.6-0.2,0.9-0.1
		c0,0.1-0.1,0.3-0.2,0.3c0.3,0.1,0.6,0.1,0.9,0.1c-0.1-0.5,0-1,0.4-1.2c0.3-0.1,0.6,0,0.9,0.1c0.2,0.1,0.4,0.2,0.3,0.4
		c0,0-0.1,0.1-0.1,0.1c-0.3,0.1-0.6,0.2-0.9,0.2c-0.2,0.4-0.1,1,0.2,1.3c0,0,0.1,0.1,0.1,0.2c0,0.1-0.1,0.1-0.2,0.2
		c-0.4,0.2-1,0.1-1.3-0.3c0,0.4-0.2,0.8-0.5,1.1c-0.3,0.3-0.8,0.4-1,0.8c0.7,0.1,1.4,0.1,2.1-0.2c-0.2,0.5-0.8,0.7-1.3,1
		c-0.5,0.3-1,0.7-1.5,1c-1.2,0.6-2.6,0.6-3.9,0.5c0.5,0.4,1.2,0.5,1.7,0.2c0.4,0.2-0.5,0.9-0.1,1.1c0.1,0.1,0.3,0,0.4-0.2
		c0.1-0.2,0.1-0.3,0.2-0.5c0.2-0.3,0.7-0.3,1-0.2c0.4,0.1,0.7,0.3,1.1,0.1c0.4-0.2,0.6-0.7,1.1-0.8c0.3-0.1,0.6,0,0.8-0.2
		c0.1-0.1,0.2-0.3,0.3-0.5c0.2-0.2,0.5-0.1,0.8,0c0.2,0.1,0.5,0.3,0.8,0.3c0.4,0,0.7-0.2,1-0.3c0.3-0.1,0.8-0.2,1,0.1
		c-0.3,0.3-0.4,0.7-0.4,1.1c0,0.5,0.2,1,0.2,1.6c0.1,0.2,0.4,0.1,0.5-0.1c0.1-0.2,0-0.4,0-0.6c0-0.2,0.2-0.4,0.3-0.6
		c0.2-0.3,0.5-0.6,0.9-0.7c0.3-0.1,0.8,0,1,0.3c0.1,0.1,0.1,0.3,0.2,0.4c0.1,0.1,0.3,0.2,0.4,0.1c0,0.2-0.2,0.4-0.4,0.4
		c-0.2,0.1-0.4,0.1-0.6,0.3c-0.2,0.3,0.2,0.7,0.5,0.6c0.1,0,0.1,0,0.1,0l0.7-0.5l1.7,0.1c0-0.7,0-1.3-0.1-2c0-0.3,0-0.6,0.1-0.9
		c0.1-0.3,0.3-0.6,0.6-0.7c-0.2,0.8-0.3,1.6-0.3,2.4c0,0.4,0,0.9-0.2,1.2l3.1,0.2c0.2,0,0.5-0.1,0.7,0c0.2,0.1,0.3,0.4,0.4,0.7
		c0.2,0.5,0.5,1.1,1,1.1c0.1,0,0.3,0,0.4,0.1c0.1,0.1,0.2,0.2,0.1,0.3c0,0.1-0.1,0.1-0.2,0.1c-0.4,0.1-0.8,0.2-1.2,0.2
		c-0.2,0-0.4,0.1-0.7,0c-0.2-0.1-0.4-0.3-0.6-0.2c-0.1,0.1-0.2,0.2-0.3,0.2c0,0,0,0,0,0l-0.2,1.7c0.1,0.1,0.1,0.1,0.2,0.2
		c0.3,0.4,0.9,0.6,1.2,0.3c0,0.5,0.4,0.8,0.8,1.1c0.7,0.5,1.5,1.1,2.3,0.9c0.1,0,0.2-0.1,0.4,0c0.1,0,0.2,0.2,0.3,0.3
		c0.4,0.6,1.5,0.6,1.9-0.1c0.5,0.2,1-0.2,1.5-0.5c0.1-0.1,0.2-0.1,0.3-0.2c0.5,0.6,1.1,1.1,1.6,1.7c0.1,0.1,0.2,0.2,0.3,0.3
		c0.5,0.2,1-0.4,1.5-0.5c0.2,0,0.3,0,0.5-0.1c0.2-0.2,0.1-0.6-0.1-0.8c-0.2-0.2-0.6-0.2-0.8-0.4c-0.4-0.3-0.5-0.9-0.5-1.5
		c0.7-0.3,1.3-0.6,2-0.9c0.1,0.5,0.7,0.6,1.1,0.6c0.5,0,1-0.1,1.3,0.2c0-0.8,1.1-1.3,1.7-0.8c0.2-0.5-0.2-1.1-0.7-1.1
		c-0.4,0-1,0.1-1.1-0.3c0-0.1,0-0.3,0-0.4c-0.1-0.4-0.5-0.5-0.9-0.6c-0.4,0-0.8,0-1-0.3c-0.2-0.2-0.2-0.6-0.4-0.8
		c-0.2-0.4-0.8-0.6-1.3-0.5s-0.9,0.4-1.3,0.7c-0.2,0.1-0.4,0.3-0.6,0.3c-0.8,0.1-1.5-1.1-2.1-0.6c-0.2,0.1-0.2,0.3-0.4,0.4
		c-0.5,0.5-1.4,0.1-2-0.3c-0.3-0.2-0.7-0.5-1-0.7c-0.3-0.3-0.7-0.7-0.5-1.1c1,0.4,2.1-1.5,3.1-0.9c-0.4-0.3-0.8-0.2-1.3-0.2
		c-0.4-0.1-0.9-0.4-0.7-0.8c0.2,0.3,0.7,0.5,1.1,0.4c0.4-0.1,0.7-0.5,0.8-0.9c0.2,0.3,0.4,0.6,0.7,0.7c0.3,0.1,0.7-0.2,0.6-0.5
		c0.3,0.6,0.9,1.1,1.6,1.3c-0.2,0.4-0.6,0.7-1.1,0.7c-0.1,0-0.2,0-0.3-0.1c0,0.2,0,0.4,0,0.5c0.5,0,0.9,0,1.4-0.1
		c0.5,0,1.1-0.3,0.9-0.7c0.1,0.6,0.8,1,1.4,1c0.1-0.2,0.1-0.4,0.2-0.6c-0.6-0.1-1.2-0.6-1.3-1.2c0.4,0.5,1,0.8,1.6,0.9
		c-0.2,0.3-0.1,0.6,0.2,0.8c0.3,0.2,0.6,0.2,0.9,0.3c0-0.2,0.1-0.4,0.1-0.6c0.3,0.4,1,0.3,1.2-0.2c0.2,0.5,0.8,0.8,1.3,0.7
		c-0.3,0.7,0.7,1.7,0.2,2.4c0.4,0.2,0.8,0.2,1.2,0.1c-0.3-0.5-0.5-0.9-0.8-1.4c0.4,0,0.8,0,1.1-0.1c0.3-0.2,0.6-0.6,0.4-0.9
		c-0.2-0.4-0.7-0.5-1.1-0.8c-0.3-0.3-0.4-0.7-0.7-1c-0.4-0.5-1.1-0.6-1.6-0.9c-0.6-0.3-1-1-0.7-1.5c1.1,0,2.3,0,3.4,0
		c0.2,0,0.4,0,0.5-0.1c0.4-0.2,0.6-0.7,0.6-1.2c0-0.5-0.1-0.9-0.1-1.4c1,0,1.9-0.2,2.9-0.5c0.3-0.5,0-1.1-0.5-1.5
		c-1-0.9-2.5-1.1-3.7-0.5c0.4-0.3,0.7-0.6,1.1-0.9c0.4-0.4,1-0.8,1.5-0.5c0.1,0.1,0.3,0.2,0.3,0.3c0.4-0.1,0.8-0.3,1-0.5
		c-0.4,0-0.7-0.1-0.9-0.4c0.5-0.1,1.1-0.3,1.6-0.4c0.1,0.2,0.1,0.4,0.2,0.7c0.2,0.2,0.6-0.1,0.6-0.4c0-0.3-0.2-0.7,0-0.9
		c0.3-0.4,1-0.1,1.3,0.3c0.1-0.2,0.1-0.4,0.2-0.5C60.8,47.4,60.6,46.5,60,46.4z M22.4,43.6c-0.1,0.1-0.3,0.1-0.5,0.2
		c-0.4,0.1-0.9,0.2-1.3,0.2c-0.2,0-0.4,0.1-0.6,0.2c-0.2,0.1-0.3,0.3-0.3,0.6c-0.2,0-0.3-0.2-0.5-0.4c-0.2-0.2-0.6-0.4-1-0.3
		c-0.6,0.1-1,0.6-1.6,0.6c-0.1,0-0.1,0-0.1-0.1c0,0,0-0.1-0.1-0.1c-0.2-0.5-0.1-1.1,0.3-1.3c0.2-0.1,0.4-0.1,0.6-0.1
		c0.6,0,1.2,0.1,1.7,0.2c0.4,0.1,0.8,0.2,1.1,0c0.1-0.1,0.2-0.2,0.3-0.2c0.2-0.1,0.4,0,0.7,0c0.2,0,0.5-0.2,0.4-0.4
		c0.1-0.2,0.4,0,0.5,0.2c0.1,0.2,0.3,0.4,0.5,0.3C22.7,43.3,22.6,43.5,22.4,43.6z M27.5,56.5c0,0-0.1,0-0.1,0c0,0,0-0.1,0-0.2
		c0-0.2,0-0.4,0.1-0.6c0.1-0.2,0.2-0.3,0.4-0.4c0,0,0-0.1,0-0.1l0,0.1c0,0,0,0-0.1,0c0,0.2,0.2,0.4,0.2,0.6
		C28.1,56.2,27.8,56.5,27.5,56.5z M54.6,29.3c0,0,0.1,0,0.1,0c0,0,0.1-0.1,0.1-0.1c0-0.2,0-0.5-0.2-0.6c-0.1,0-0.1,0-0.2,0
		c-0.2-0.1-0.3-0.3-0.3-0.4c0-0.2,0.1-0.4,0.1-0.6c0.5,0.5,0.9,1.1,1.2,1.7c0,0.1,0.1,0.2,0,0.2c0,0-0.1,0.1-0.1,0.1
		c-0.3,0.1-0.5,0.3-0.8,0.3c-0.3,0-0.6-0.1-0.7-0.4C54,29.2,54.3,29.3,54.6,29.3z M50.4,24.8l0.1,0c0.2-0.1,0.5,0,0.7,0.2
		c0.2,0.2,0.3,0.4,0.4,0.6c0,0.1,0.1,0.2,0.1,0.2c0,0.2-0.2,0.4-0.4,0.4c-0.2,0-0.4,0-0.6-0.1c-0.2-0.1-0.4-0.1-0.6-0.1
		c0-0.3,0-0.6,0-0.9C50.2,25,50.3,24.9,50.4,24.8z M50.7,29.2c0.5-0.2,1.1,0,1.6-0.3c0.1-0.1,0.2-0.2,0.3-0.2c0.2,0,0.3,0.2,0.3,0.4
		c0,0.2,0,0.4,0.1,0.6c0.1,0.3,0.5,0.3,0.6,0.6c0.1,0.2,0.2,0.4,0.1,0.6c-0.1,0.2-0.3,0.4-0.5,0.4c-0.2,0-0.4,0-0.6,0.1
		c-0.2,0.1-0.1,0.4-0.2,0.6c0,0.2-0.2,0.3-0.3,0.4c-0.3,0.1-0.7,0-0.8-0.3c-0.1-0.3,0-0.6,0.2-0.9c-0.2-0.1-0.4-0.2-0.6-0.3
		c-0.4-0.2-0.9-0.4-0.9-0.9C50,29.7,50.4,29.3,50.7,29.2z M47.6,28.3c0,0,0.1,0,0.1,0c0.2,0,0.3,0,0.5-0.1c0.2-0.1,0.3-0.2,0.3-0.4
		c0-0.1,0-0.2,0-0.3c-0.1-0.3-0.3-0.6-0.4-0.9c-0.1-0.3,0.1-0.7,0.4-0.7c0,0.2,0.1,0.3,0.1,0.5c-0.2,0.1-0.3,0.3-0.2,0.5
		c0.1,0.2,0.2,0.3,0.4,0.4c0.1,0.1,0.3,0.2,0.3,0.3c0,0.1,0,0.2,0,0.3c0,0.1,0.1,0.2,0.1,0.3c0,0.3-0.1,0.5-0.3,0.6
		c-0.2,0.2-0.6,0.3-0.9,0.3c-0.3,0-0.6-0.3-0.6-0.6C47.6,28.4,47.6,28.3,47.6,28.3z M38.7,20.6c0.1,0,0.1,0,0.2,0
		c0.2,0,0.3-0.3,0.4-0.5c0-0.2,0-0.3-0.1-0.5c-0.1,0-0.1-0.1-0.2-0.1l0.2,0c0,0,0,0.1,0,0.1c0.6,0.4,1.1,0.8,1.6,1.2
		c-0.5-0.1-1,0.3-1.6,0.4c-0.2,0-0.4,0-0.5-0.1C38.6,21,38.6,20.7,38.7,20.6z M38.8,49.2c0.2-0.3,0.4-0.6,0.8-0.7
		c0.2-0.1,0.4-0.1,0.6-0.1c0.2-0.1,0.4-0.2,0.4-0.4c0.1,0.2,0.1,0.5,0,0.7c-0.1,0.2-0.3,0.4-0.5,0.6c-0.1,0.1-0.2,0.2-0.4,0.4
		c0,0-0.1,0.1-0.1,0.1c-0.1,0.2,0,0.4-0.1,0.5c-0.1,0.1-0.2,0.1-0.3,0.1c-0.3,0-0.5,0-0.8-0.1C38.6,49.9,38.6,49.5,38.8,49.2z
		 M39,52.7c0.1-0.1,0.1-0.2,0.2-0.3c0-0.1,0.1-0.1,0.1-0.2c0.2-0.2,0.5-0.1,0.8-0.2c0.2-0.1,0.4-0.3,0.4-0.6c0.1-0.2,0.1-0.5,0-0.7
		c0.2,0.2,0.4,0.5,0.4,0.8c0,0.5-0.4,1-0.8,1.4c-0.2,0.2-0.4,0.4-0.6,0.6c-0.1,0.1-0.2,0.2-0.3,0.2c-0.2,0.1-0.4,0.1-0.6,0.1
		c-0.2,0-0.4,0-0.6-0.1c-0.2-0.1-0.2-0.3-0.1-0.5C38.4,53.4,38.8,53.1,39,52.7z M36.6,5.5c0.2-0.2,0.5-0.1,0.8-0.1
		C37.7,5.3,38,5,38.1,4.7c0.1,0.7-0.2,1.5-0.8,1.8l0.2-0.2c-0.2,0.1-0.5,0.2-0.8,0.1C36.4,6.2,36.3,5.7,36.6,5.5z M37.1,21
		c0,0-0.1,0-0.1,0c0,0-0.1,0-0.1-0.1c-0.1-0.1-0.1-0.2-0.1-0.4c0,0,0,0-0.1,0.1l0.1-0.2c0,0,0,0.1,0,0.1c0.4-0.3,0.7-0.7,0.9-1.1
		C37.9,20,37.6,20.8,37.1,21z M33.5,34.9l0.1,0.3c0.2-0.2,0.5-0.3,0.9-0.4c0.1,0.2,0.2,0.4,0.2,0.6c0,0.1,0.1,0.3,0,0.4
		c-0.1,0.1-0.3,0.2-0.3,0c0-0.1,0-0.2,0-0.3c0-0.1-0.1-0.1-0.2-0.1c-0.2,0-0.4,0-0.5-0.1C33.6,35.3,33.5,35.1,33.5,34.9z M31.8,6.7
		c0.3-0.2,0.7-0.4,1-0.4c0.1,0.2-0.2,0.5-0.4,0.6c-0.1,0-0.3,0-0.4,0c0,0,0,0,0,0l0.8,0.4c-0.3,0-0.7,0-1,0c-0.1,0-0.3-0.1-0.3-0.2
		C31.4,7,31.6,6.8,31.8,6.7z M31.4,18.4c0.2-0.2,0.5-0.1,0.7-0.1c0.2,0,0.5-0.2,0.5-0.3c0,0,0-0.1,0-0.1c0,0,0,0.1,0,0.1
		c0,0.4,0,0.8-0.2,1c-0.2,0.2-0.5,0.3-0.6,0.6c0,0,0.1,0,0.1,0l0.2-0.1l-0.2,0.1l-0.1,0c0,0,0,0,0,0c-0.1,0-0.2-0.1-0.3-0.1
		c-0.2-0.1-0.2-0.4-0.2-0.6C31.2,18.6,31.3,18.5,31.4,18.4z M29.4,22.9c0.5-0.1,0.9-0.5,1.1-1c-0.1,0.4,0,0.9,0.3,1.2
		c0.3,0.3,0.7,0.5,1.1,0.5c0.1,0,0.2,0,0.3,0c0.1,0,0.2,0.1,0.2,0.2c0.3,0.3,0.5,0.6,0.5,1c0,0.4-0.3,0.7-0.7,0.7
		c0,0.2,0.2,0.3,0.4,0.3c0.2,0,0.4,0.1,0.5,0.2c0.2,0.1,0.1,0.4,0,0.5c-0.2,0.2-0.5,0-0.7-0.1c-0.2-0.2-0.4-0.4-0.6-0.5
		c-0.3-0.1-0.6,0-0.7,0.2c-0.2,0.2-0.2,0.6-0.5,0.8c-0.2,0.1-0.5,0-0.6-0.2c-0.1-0.2-0.2-0.4-0.2-0.6c0-0.2,0-0.3,0-0.5
		c0.2,0.1,0.4,0,0.5-0.2c0.1-0.2,0-0.4-0.1-0.6c0-0.1-0.1-0.1-0.1-0.2c-0.1-0.1-0.2-0.1-0.2-0.2c-0.3-0.2-0.6-0.6-0.8-0.9
		c-0.1-0.1-0.1-0.2-0.1-0.3C28.9,23,29.2,22.9,29.4,22.9z M28.2,19.8c0.3,0.1,0.7,0.3,0.8,0.6c0.1,0.3-0.2,0.8-0.5,0.8
		c-0.1,0-0.2,0-0.3,0c-0.1,0.1-0.1,0.3-0.2,0.3c-0.1,0-0.2-0.1-0.3-0.2c-0.1-0.2-0.1-0.4-0.1-0.6c-0.1-0.5-0.2-0.9-0.4-1.3
		C27.5,19.6,27.9,19.7,28.2,19.8z M26,41.5c-0.2,0-0.4,0-0.5,0.2l0.8,0.2c-0.5,0-1.2,0-1.5-0.5c-0.2-0.3-0.2-0.8-0.1-1.2
		c0,0,0-0.1,0-0.1c0.1-0.1,0.2,0,0.3,0.1c0.1,0.1,0.1,0.2,0.1,0.3c0.1,0.2,0.4,0.2,0.6,0.1c0.2,0,0.5-0.1,0.7,0
		C26.6,41,26.4,41.5,26,41.5z M28.8,41.9c-0.2,0.3-0.6,0.5-1,0.5l-0.4,0.2c-0.1-0.2,0.1-0.3,0.2-0.4c0.2-0.2,0.4-0.3,0.6-0.5
		c0.1-0.1,0.2-0.2,0.4-0.2s0.3,0.1,0.3,0.2C28.9,41.8,28.9,41.9,28.8,41.9z M29.2,33c-0.2,0.1-0.3,0.2-0.5,0.3
		c-0.1,0.1-0.3,0.2-0.3,0.3c0,0.1,0,0.2,0,0.2c0,0.1-0.2,0.2-0.3,0.2s-0.2-0.1-0.3-0.2c-0.1-0.1-0.1-0.2-0.2-0.2
		c-0.3-0.3-0.7-0.2-1,0c-0.1,0-0.2,0.1-0.2,0.1c-0.2,0-0.4-0.2-0.5-0.3c-0.2-0.1-0.3-0.1-0.5-0.1s-0.4-0.1-0.4-0.3
		c0-0.2,0.1-0.3,0.2-0.4c0.1-0.1,0.3-0.1,0.4-0.2c0.4-0.2,0.7-0.5,1-0.8c0.1-0.1,0.2-0.2,0.3-0.1c0.3,0,0.4,0.4,0.6,0.6
		c0.2,0.2,0.4,0.3,0.7,0.3c0.3,0,0.5-0.1,0.8-0.1c0.3-0.1,0.6-0.1,0.8,0.1c0.1,0.1,0,0.3-0.1,0.5C29.5,32.8,29.4,32.9,29.2,33z
		 M30.8,59.5c-0.3,0.1-0.6,0-0.7-0.2c-0.1-0.2-0.2-0.5-0.4-0.6c-0.2-0.1-0.4,0-0.6-0.2c0-0.1,0-0.1,0-0.2c0-0.2,0.1-0.5,0.3-0.5
		c0.1,0,0.2,0,0.2,0.1l0.5,0.2c-0.2,0.1-0.3-0.1-0.5-0.2l0,0c0.2,0.3,0.5,0.6,0.9,0.7c0.1,0,0.3,0.1,0.4,0.2
		C31.2,59,31.1,59.4,30.8,59.5z M31.3,57.5C31.3,57.6,31.2,57.6,31.3,57.5l-0.1,0.1L31.3,57.5L31.3,57.5
		C31.3,57.5,31.3,57.5,31.3,57.5c0,0,0.1,0,0.1-0.1c0.1-0.1,0.1-0.2,0.2-0.3c0.1-0.1,0.2-0.2,0.3-0.1c0,0,0,0.1,0,0.1
		c0,0.6,0.1,1.1,0.1,1.7C31.7,58.5,31.4,58,31.3,57.5z M32.4,36.7c0,0.1-0.1,0.1-0.2,0.1c-0.1,0-0.1,0-0.1-0.1
		c-0.2-0.2-0.4-0.3-0.6-0.3c-0.3-0.1-0.6-0.1-0.8-0.3c-0.2-0.2-0.2-0.5-0.4-0.6c-0.2-0.2-0.5-0.1-0.7-0.2c-0.2-0.1-0.3-0.2-0.3-0.4
		c-0.1-0.4,0.2-0.8,0.6-0.9c0.4-0.1,0.8,0,1.2,0.1c0,0,0,0,0.1,0c0,0,0,0.1,0,0.1c0,0.4,0,0.8,0.2,1c0.2,0.3,0.5,0.4,0.8,0.6
		C32.4,36.1,32.6,36.4,32.4,36.7z M32.8,35c-0.1-0.1-0.1-0.2,0-0.3c-0.1,0-0.2-0.1-0.3-0.3c-0.1-0.2-0.1-0.4,0.1-0.6
		c0.1-0.1,0.4-0.1,0.5,0c0.1,0.2,0,0.4-0.2,0.5c-0.1,0.1-0.1,0.2-0.1,0.2c0,0,0.1,0,0.1,0L32.8,35z M34.6,54.9c0,0.1,0,0.2-0.1,0.2
		c-0.1,0.1-0.2,0.1-0.3,0.1c-0.3,0-0.5-0.2-0.6-0.4c-0.1-0.2-0.2-0.5-0.3-0.7l-0.1,0c0.4-0.5,0.9-1,1.3-1.4
		C34.6,53.5,34.7,54.2,34.6,54.9z M33,50.4c0.2-0.3,0.1-0.7,0.1-1c0.1-0.5,0.5-0.9,1-0.9c0.1,0.3,0,0.7-0.2,0.9
		c-0.2,0.3-0.4,0.5-0.7,0.7L33,50.4z M34.6,51.6c-0.2,0.1-0.3,0.3-0.5,0.4l0.2-0.3c-0.3-0.1-0.5-0.3-0.8-0.4c-0.1,0-0.1-0.1-0.1-0.1
		c0,0,0-0.1,0-0.1c0.2-0.3,0.5-0.7,0.8-0.9c0.1,0.4,0.2,0.8,0.3,1.2c0,0.1,0,0.1,0,0.2C34.7,51.6,34.6,51.6,34.6,51.6z M35.2,44
		c-0.1,0-0.1,0.1-0.2,0.1c-0.3,0.2-0.4,0.5-0.5,0.8c-0.1,0.3-0.1,0.7-0.1,1c-0.1,0.8-0.5,1.5-1.1,2.1c0,0-0.1,0.1-0.1,0
		c0.2-0.2,0.2-0.6,0.2-1c0.1-0.7,0.6-1.4,0.8-2.1c0.1-0.5,0-1.1,0.4-1.5c0.2-0.2,0.4-0.3,0.7-0.2c0,0,0.1,0,0.1,0c0,0,0,0.1,0,0.1
		C35.3,43.6,35.3,43.9,35.2,44z M35.6,25.8c0,0,0,0.1,0,0.1c-0.1,0.5-0.7,0.9-1.2,0.8c0.5-0.4,0.4-2.4,1.2-2.4
		c0.4,0,0.3,0.5,0.1,0.7c-0.2,0.2-0.5,0.2-0.5,0.5C35.2,25.8,35.5,25.6,35.6,25.8z M38.3,55.5c-0.1,0.2-0.3,0.4-0.4,0.6
		c-0.5,0.6-0.8,1.2-1.1,2c0,0.1-0.1,0.2-0.1,0.2c-0.2,0.2-0.5-0.1-0.7-0.1c0.2-0.4,0.3-0.9,0.5-1.3c0.1-0.2,0.2-0.5,0.3-0.7
		c0.2-0.3,0.5-0.4,0.8-0.6c0.4-0.3,0.6-0.6,0.9-1C38.4,54.8,38.4,55.2,38.3,55.5z M39.6,67.8c-0.2,0.1-0.5,0.1-0.7,0
		c-0.1-0.5-0.6-0.9-0.5-1.4c0.4,0.5,0.9,0.8,1.5,0.8C40,67.4,39.8,67.7,39.6,67.8z M41.1,66.6c0.3,0.2,0.5,0.4,0.8,0.6
		c0.2,0.1,0.4,0.1,0.5,0.2c0.2,0.1,0.3,0.2,0.3,0.4c-0.3,0.1-0.6-0.1-0.9-0.2c-0.8-0.4-1.5-1-2.1-1.7C40.3,66,40.7,66.3,41.1,66.6z
		 M41.7,55.2c-0.1,0.3-0.3,0.5-0.5,0.7c-0.4,0.3-0.8,0.5-1.3,0.7c-0.2,0.1-0.4,0.2-0.6,0.2c-0.2,0.1-0.5,0.2-0.8,0.1
		c0.2-0.5,0.5-0.9,0.7-1.4c0-0.1,0.1-0.2,0.2-0.2c0.1-0.1,0.2-0.1,0.3-0.1c0.6,0,1.2-0.1,1.9-0.1c0,0,0.1,0,0.1,0
		C41.7,55.1,41.7,55.1,41.7,55.2z M42.5,44.5c-0.1,0.1-0.3,0.2-0.4,0.2c-0.2,0-0.3,0-0.4-0.2c0-0.1-0.1-0.2-0.1-0.3
		c-0.1,0-0.1-0.1-0.2-0.1c-0.4,0-0.7,0.1-1.1,0c-0.4,0-0.7-0.3-0.8-0.6c0-0.1,0-0.2,0.1-0.2c0.1-0.1,0.2,0,0.3,0
		c0.4,0.2,0.8,0.2,1.3,0.2c0.1,0,0.3,0,0.4,0c0.1,0,0.2,0.2,0.2,0.3c0.2,0,0.5,0.1,0.5-0.1c0-0.1,0-0.2,0-0.2
		c-0.1-0.4-0.1-0.7-0.1-1.1c0,0,0-0.1,0-0.1c0-0.1,0.1-0.1,0.2,0c0.1,0,0.1,0.1,0.1,0.2c0.1,0.5-0.1,1,0.1,1.4
		c0,0.1,0.1,0.1,0.1,0.2C42.8,44.3,42.6,44.4,42.5,44.5z M42.7,30.2c-0.1,0-0.2,0-0.2,0l0.5,0.1c-0.2,0.1-0.4,0.2-0.6,0.2
		c0,0,0,0,0,0c0,0.1,0.1,0.2,0.2,0.2c0.2,0.1,0.3,0.3,0.3,0.5c0,0.1-0.1,0.3-0.3,0.3c-0.1,0-0.3,0-0.4-0.1c0,0-0.1,0-0.1-0.1
		c0-0.1,0-0.2,0-0.2c0.1-0.2,0.2-0.4,0.2-0.7c0,0,0,0,0,0c-0.1,0-0.3,0-0.4,0c-0.1,0-0.1,0-0.2,0c0,0-0.1-0.1-0.1-0.1
		c-0.1-0.4,0.1-0.8,0.5-1c0.2-0.1,0.4-0.2,0.6-0.2c0.2,0,0.4,0.2,0.4,0.4C43.2,29.9,43,30.1,42.7,30.2z M44.3,10.4
		C44.2,10.4,44.2,10.4,44.3,10.4l-0.1,0.2c0,0,0,0,0,0c0,0.1,0,0.2,0.1,0.3c0,0.1,0,0.2,0.1,0.4c0,0.3,0,0.6-0.1,0.9
		c-0.1,0.1-0.3,0.3-0.3,0.4c0,0,0,0.1,0,0.1c0,0,0-0.1,0-0.1c0,0-0.1-0.1-0.1-0.1c-0.1,0-0.2,0-0.2-0.1c-0.1-0.1-0.1-0.3-0.2-0.4
		c0,0,0,0-0.1,0c-0.1,0.1-0.1,0.2-0.2,0.2l0.2-0.2c0,0-0.1,0-0.1,0c-0.2,0-0.4-0.3-0.3-0.5c0.1-0.5,0.5-0.8,1-1
		c0.3-0.2,0.6-0.3,0.9-0.5l-0.1,0.2c0.2-0.1,0.3-0.1,0.5-0.2C44.7,10,44.5,10.2,44.3,10.4z M49.2,41.2c0,0.1-0.1,0.1-0.2,0.1
		c-0.7,0-1.4,0-2-0.3c-0.2-0.1-0.3-0.2-0.4-0.3c-0.1-0.1-0.1-0.3,0-0.5C46.7,40,47,40,47.3,40c0.6,0.1,1.2,0.1,1.5,0.6
		c0.1,0.1,0.2,0.3,0.3,0.4C49.2,41,49.3,41.2,49.2,41.2z M50.3,34.5c-0.5,0.6-1.6,0.4-1.9,1c-0.1,0.1-0.1,0.2-0.2,0.3
		c-0.1,0.1-0.3,0.1-0.4,0.1c-0.4,0-0.9,0-1.3,0c-0.7,0-1.5-0.1-1.8-0.6c0.4,0,0.7-0.2,0.9-0.5c0.1-0.1,0.1-0.3,0.3-0.4
		c0.3-0.2,0.7-0.1,1.1-0.2c0.5-0.1,0.9-0.6,1.1-1.1c0.1-0.2,0.1-0.5,0.1-0.7c-0.1-0.4-0.6-0.8-0.4-1.2c0.5,0,1,0,1.5,0
		c0.1,0,0.2,0,0.3,0.1c0.1,0.1,0.1,0.1,0.1,0.2c0.1,0.2,0.1,0.5,0.2,0.7c0,0.1,0,0.1,0,0.2c0,0.1-0.1,0.1-0.2,0.1
		c-0.2,0.2-0.3,0.5-0.1,0.8c0.1,0.2,0.4,0.2,0.6,0.3c0.2,0.1,0.4,0.3,0.4,0.5C50.4,34.3,50.3,34.4,50.3,34.5z M52.4,47.1
		c-0.3,0.1-0.7-0.2-0.9-0.5c-0.2-0.2-0.3-0.4-0.5-0.5c-0.2,0-0.4,0-0.6-0.1l0.4-0.1c0.1,0.1,0.1,0.1,0.2,0.2c0.1,0,0.2,0,0.3,0
		c0.3,0,0.6,0,0.8,0.2c0.1,0.2,0.2,0.4,0.4,0.5c0,0,0.1,0,0.1,0C52.7,47,52.6,47.1,52.4,47.1z"/>
	<path fill="#0DB89A" d="M36.3,64.2c-0.2-0.7-0.3-1.4-0.5-2.1c0.3-0.1,0.7-0.2,1-0.2l-3.1-0.2c0,0,0,0,0,0c0,0,0,0,0,0L32,61.6
		c0.4,0.6,0,1.3-0.2,2c-0.3,1.1-0.1,2.3,0,3.5c0.1,1.2,0.1,2.4-0.6,3.4c0.1,0.1,0.3,0.2,0.4,0.1c-0.5,0.3-1,0.7-1.5,1
		c1.7,0,3.4,0,5.1-0.2c0.1-0.1,0.1-0.3-0.1-0.5c-0.1-0.1-0.3-0.2-0.4-0.3c-0.2-0.2-0.2-0.6-0.2-0.9c0-0.9,0-1.8,0-2.7
		c0-0.7,0.2-1.5,0.9-1.5c0.4,0,0.7,0.3,0.9,0.6l0.2-1.7C36.4,64.4,36.3,64.3,36.3,64.2z"/>
</g>
</svg>
