<?xml version="1.0" encoding="utf-8"?>
<!-- Generator: Adobe Illustrator 18.0.0, SVG Export Plug-In . SVG Version: 6.00 Build 0)  -->
<!DOCTYPE svg PUBLIC "-//W3C//DTD SVG 1.1//EN" "http://www.w3.org/Graphics/SVG/1.1/DTD/svg11.dtd">
<svg version="1.1" id="Layer_1" xmlns="http://www.w3.org/2000/svg" xmlns:xlink="http://www.w3.org/1999/xlink" x="0px" y="0px"
	 viewBox="0 0 72 72" enable-background="new 0 0 72 72" xml:space="preserve">
<g>
	<path fill="#010101" d="M60.6,59.3c-0.6-0.2-1.1-0.3-1.7-0.3C59.4,59.4,60.1,59.6,60.6,59.3z"/>
	<path fill="none" d="M10.1,46.3c0.6-0.3,0.6-1.4,0.1-1.8C9.6,44.8,9,45,8.4,45.1c0.1-0.2,0-0.5-0.2-0.7c-0.4,0.3-0.7,0.7-0.7,1.3
		c0,0.4,0.3,0.8,0.7,0.9c-0.2,0-0.4,0-0.6,0.1c-0.2,0.2-0.2,0.7,0.1,0.9c0.2,0.2,0.6,0.2,0.9,0.2c0.3,0,0.6,0,0.8,0.2
		c0.3,0.3,0.2,1-0.2,1.2c-0.2,0.1-0.3,0.1-0.5,0.1c-0.5,0.1-0.8,1-0.6,1.5c0.3,0.6,1,0.6,1.4,0.2c0.5-0.7,0.1-1.8,0.3-2.7
		c0.1-0.3,0.3-0.6,0.3-0.9c0-0.3-0.3-0.6-0.5-0.4C9.5,46.6,9.8,46.4,10.1,46.3z"/>
	<path fill="none" d="M7.6,54.7l0,0.5c0.5-0.2,1.1-0.4,1.6-0.8c0.5-0.4,0.8-1,0.8-1.7C9.3,53.6,8.5,54.3,7.6,54.7z"/>
	<path fill="none" d="M18.4,57.1c0-0.1-0.1-0.1-0.1-0.2c-0.1,0-0.2,0-0.3,0.1c-0.3,0.3-0.4,0.7-0.6,1c-0.2,0.3-0.7,0.5-0.9,0.2
		c0.1,0.3,0.2,0.6,0.3,0.9c0.4,0.3,0.9-0.8,1.3-0.5c0.3,0.2,0,0.8,0.2,1.2c0.5,0.2,1.1,0,1.5-0.5c0-0.1-0.1-0.1-0.1-0.2
		C19.2,58.6,18.8,57.9,18.4,57.1z"/>
	<path fill="none" d="M8.4,41.8c0.3-0.3,0.6-0.6,0.9-0.9c0.8-0.6,1.9-0.3,2.7-0.7c0.4-0.2,0.7-0.5,1-0.8c0.6-0.6,1.2-1.1,1.4-1.9
		c-1.2,1.1-2.7,1.8-4.3,1.8c-0.2,0-0.4,0-0.6,0.1c-0.1,0-0.3,0.1-0.4,0.2c-0.9,0.6-1.9,1.4-1.9,2.6C7.7,42.2,8.1,42,8.4,41.8z"/>
	<path fill="none" d="M7.2,27.9c0.1,0,0.2,0,0.2-0.1c0.1-0.1,0.1-0.3,0.1-0.4c-0.1-0.6-0.2-1.2-0.5-1.8C6.5,26,5.9,26,5.3,25.7
		c-0.3,0.5,0.1,1.2,0.4,1.5C6.2,27.6,6.7,28,7.2,27.9z"/>
	<path fill="none" d="M8.7,35.5c0.3,0,0.5,0,0.7-0.1c0.2-0.1,0.4-0.4,0.4-0.7c0-0.1,0-0.2,0-0.3c0,0,0.1-0.1,0.1-0.1
		c-1.1-1.1-2.2-2.1-3.3-3.2c0.2,0.6-0.2,1.3-0.6,1.8c-0.1,0.1-0.2,0.3-0.3,0.4c-0.1,0.2-0.3,0.4-0.3,0.6c0,0.2,0.1,0.5,0.3,0.6
		C6,34.6,6.2,34,6.5,33.9C6.8,33.8,7,34,7.2,34.3c0.2,0.3,0.2,0.6,0.4,0.8C7.9,35.4,8.3,35.5,8.7,35.5z"/>
	<path fill="none" d="M9.9,34.4C10,34.4,10,34.4,9.9,34.4C10,34.4,10,34.4,9.9,34.4z"/>
	<path fill="none" d="M18.9,33.3c0.1,0.2,0.2,0.3,0.3,0.4c0,0,0-0.1,0-0.1L18.9,33.3z"/>
	<path fill="none" d="M25.9,51.8c-0.5,0.1-1.1,0.2-1.6,0.3c-0.1,0-0.2,0-0.2,0.1c-0.1,0.1,0,0.2,0,0.3c0.1,0.6,0.6,1,1.1,1.1
		c-0.7,0.7-1.6,1.1-2.4,1.2c-0.3,0-0.5,0-0.8,0.2c-0.4,0.3-0.4,1.2,0,1.5c0.4,0.3,1.1,0,1.2-0.6c0.1-0.2,0.1-0.5,0.1-0.7
		c0.2-0.6,0.8-0.6,1.3-0.7c0.9-0.1,1.8-0.7,2-1.7c0.1-0.3,0-0.7-0.2-0.9C26.3,51.7,26.1,51.7,25.9,51.8z"/>
	<path fill="none" d="M14.1,47.7c1.3-0.7,2.6-1.4,3.9-2c0.7-0.3,1.4-0.6,2.1-0.6c0.3,0,0.7-0.1,0.7-0.4c-1.9,0.1-4,0.3-5.5,1.7
		C14.9,46.8,14.5,47.2,14.1,47.7z"/>
	<path fill="none" d="M10.5,51.2c0.5,0.2,1-0.2,1.3-0.8c0.2-0.4,0.4-0.9,0.6-1.3c-0.5,0.2-1,0.2-1.4,0.5
		C10.5,49.9,10.1,50.7,10.5,51.2z"/>
	<path fill="none" d="M12.6,48.9c-0.1,0.1-0.1,0.2-0.2,0.3c0.1,0,0.1,0,0.2-0.1c0.6-0.3,1.1-0.8,1.6-1.4c-0.2,0.1-0.3,0.2-0.5,0.3
		C13.2,48.2,12.8,48.5,12.6,48.9z"/>
	<path fill="none" d="M19.7,59.5c0.1,0.1,0.1,0.1,0.2,0.1c0.2,0,0.3-0.2,0.3-0.4c0-0.2-0.1-0.4-0.1-0.6C20,59,19.9,59.3,19.7,59.5z"
		/>
	<path fill="none" d="M22,44c-0.4,0.5-0.3,1.4,0.1,1.8c0.4,0.5,1,0.7,1.6,0.8c0.4,0.1,0.8,0.1,1.2,0.2c0,0-0.1-0.1-0.1-0.1
		C23.8,45.9,22.9,45,22,44z"/>
	<path fill="none" d="M33.4,38.6c0.4-0.8-0.5-1.8-0.4-2.8l-0.3,0.1c0,0.7,0,1.3,0,2c0,0.2,0,0.3,0.1,0.5
		C32.8,38.7,33.2,38.8,33.4,38.6z"/>
	<path fill="none" d="M32.4,14.3c-0.1,0.9-0.5,2-1.3,2.1c-0.2,0-0.3,0-0.5,0.1c-0.1,0.1-0.1,0.3-0.1,0.4c-0.1,0.6-0.2,1.2-0.4,1.7
		l0,0.3c0,0.2,0,0.5,0,0.7c0.3-0.9,0.9-1.7,1.4-2.6C32,16.3,32.5,15.3,32.4,14.3z"/>
	<path fill="none" d="M36.5,55.6l0.5-0.5c0.1-0.8,0.2-1.5,0.2-2.3c0,0,0,0,0-0.1c-0.4,0-0.8,0-1.2,0c0.2,0.4-0.2,0.8-0.6,1.1
		c0,0.2,0.1,0.3,0.2,0.5C35.7,54.9,36.1,55.2,36.5,55.6z"/>
	<path fill="none" d="M26.4,12.3c0.3-0.2,0.5-0.3,0.7-0.6c0.2-0.3,0.3-0.7,0.2-1c-0.3-0.3-0.8,0-0.9,0.4s-0.1,0.9,0,1.3L26.4,12.3z"
		/>
	<path fill="none" d="M39.9,54.2c-0.1-0.8-0.2-1.5-0.2-2.3c-0.3,0.1-0.6,0.5-0.6,1C39.2,53.4,39.5,53.8,39.9,54.2z"/>
	<path fill="none" d="M39.6,55.1l0.4,0.1c0-0.3-0.1-0.6-0.1-0.9c-0.4-0.4-0.7-0.8-0.9-1.3c0,0.2,0,0.4,0,0.5
		C39,54,39.3,54.6,39.6,55.1z"/>
	<path fill="none" d="M36,52.8c0.4,0,0.8,0,1.2,0c0-0.1,0-0.2,0-0.3c-0.1-0.1-0.2-0.2-0.3-0.3c-0.5-0.4-0.8-0.9-1-1.6
		c-0.3,0.4,0,1.1-0.1,1.5c-0.1,0.2-0.2,0.4-0.3,0.6c-0.2,0.3-0.2,0.8-0.1,1.2C35.7,53.6,36.1,53.2,36,52.8z"/>
	<path fill="none" d="M23,32.6c0.6,0.1,1.3,0.2,1.6,0.8c0.2-0.2,0.2-0.6,0.2-0.9c0-0.3-0.1-0.8-0.3-0.8c-0.1,0-0.2,0-0.3,0.1
		c-0.8,0.2-1.4-1-2.3-0.9c-0.1,0-0.2,0-0.2,0.1c-0.1,0.1-0.1,0.2-0.1,0.4C21.7,32.1,22.4,32.5,23,32.6z"/>
	<path fill="none" d="M7,25.5C7,25.5,7,25.6,7,25.5C7.1,25.6,7.1,25.6,7,25.5L7,25.5z"/>
	<path fill="none" d="M24.6,33.5C24.6,33.4,24.6,33.4,24.6,33.5c-0.1,0-0.1,0-0.2,0.1L24.6,33.5z"/>
	<path fill="none" d="M20.3,42.1c0.1,0,0.3-0.2,0.3-0.3c0-0.1-0.1-0.2-0.2-0.2c-0.6-0.2-1.2-0.5-1.8-0.7l0.1,1.5
		C19.3,42.3,19.8,42.2,20.3,42.1z"/>
	<path fill="none" d="M24.9,46.9c0.1,0.1,0.3,0.2,0.5,0.2C25.2,47,25,46.9,24.9,46.9z"/>
	<path fill="none" d="M27.4,36.8l0.2,0.3c0-0.1,0.1-0.2,0.1-0.3c0.1-1-0.1-2-0.6-2.9C27.1,34.9,27.2,35.9,27.4,36.8z"/>
	<path fill="none" d="M26,23.7c0.3-0.9,0-1.9-0.2-2.7c-0.2-0.6-0.3-1.3-0.5-1.9c-0.1-0.3-0.2-0.6-0.3-0.8c-0.1-0.2-0.3-0.3-0.4-0.4
		c-0.5-0.4-1-0.8-1.5-1.2c0.1,1.2,0.9,2.1,1.5,3.1C25.3,21,25.8,22.3,26,23.7z"/>
	<path fill="none" d="M20.4,34.5c-0.4-0.2-0.8-0.4-1.1-0.8c-0.3,0.6-0.1,1.5,0.4,2c0.5,0.5,1.3,0.5,1.9,0.3
		C21.5,35.3,20.9,34.8,20.4,34.5z"/>
	<path fill="none" d="M55.6,53.5c-0.5-0.3-1-0.6-1.5-0.7c-0.1,0.5-0.3,1-0.5,1.5c-0.2,0.6-0.2,1.4,0.3,1.7c-0.4-0.6,0-1.7,0.7-1.7
		c0.3,0,0.5,0.1,0.8,0.1c0.3,0,0.6-0.3,0.4-0.6C55.8,53.6,55.7,53.6,55.6,53.5z"/>
	<path fill="none" d="M53.8,52.7c0.1,0,0.2,0,0.3,0.1c0-0.1,0-0.2,0-0.3L53.8,52.7z"/>
	<path fill="none" d="M50.1,53.8c0.1-0.1,0.2-0.2,0.2-0.2c0-0.1,0-0.1,0-0.2L50.1,53.8z"/>
	<path fill="none" d="M28.5,29.6c0.3-0.1,0.6-0.1,0.9,0c0-0.7,0-1.5-0.5-1.9c-0.1-0.1-0.3-0.2-0.4-0.3c-0.4-0.3-0.8-0.8-0.9-1.3
		c-0.5,0.1-0.9,0.8-0.8,1.4l-0.3,0.2c0.9,0.9,1.6,2.1,2.1,3.3C28.8,30.7,28.8,30.1,28.5,29.6z"/>
	<path fill="none" d="M46.6,16.6L46,16.9c0.1,0.8,0.6,1.4,1.3,1.5C47.7,17.7,47.3,16.7,46.6,16.6z"/>
	<path fill="none" d="M48.1,51.5c-0.1,0.1-0.2,0.2-0.2,0.4c0,0.1,0,0.2,0.1,0.3c0.1,0.4,0.2,0.8,0.4,1.2l0-0.2
		c0.2,0.3,0.6,0.3,0.8,0.1c0.2-0.2,0.3-0.6,0.2-0.9C49.2,51.7,48.6,51.2,48.1,51.5z"/>
	<path fill="none" d="M64.4,52.2c-0.2-0.4-0.6-0.7-1-0.8c-0.4-0.1-1-0.1-1.1,0.4c-0.1,0.5,0.5,0.9,0.6,1.4c0.1,0.4-0.1,0.8-0.3,1.1
		c-0.1,0.1-0.1,0.2-0.2,0.2c-0.1,0-0.2-0.2-0.2-0.4c0-0.7-0.1-1.4-0.1-2.1c-0.2,0.3-0.5,0.1-0.8,0.2c-0.5,0.1-0.7,0.9-0.6,1.5
		c0.1,0.6,0.4,1.1,0.5,1.8c0.1,0.6-0.2,1.4-0.8,1.4c0,0.5,0.2,1,0.6,1.1c0.4,0.1,0.9-0.2,0.9-0.7c0-0.2-0.1-0.5,0-0.7
		c0.1-0.2,0.4-0.3,0.6-0.3c0.2,0.1,0.4,0.2,0.7,0.3c0.4,0.1,0.8-0.2,1.2-0.4c-0.1-0.3-0.4-0.5-0.6-0.5c-0.1-0.2,0.1-0.3,0.2-0.3
		c0.1,0,0.3,0,0.4-0.1c0.1-0.2,0-0.4,0-0.6C64.1,53.8,64.7,52.9,64.4,52.2z"/>
	<path fill="none" d="M45.4,26.4c0,0,0.1,0,0.1,0.1c0.2,0.2,0.4,0.6,0.3,1c0-0.2,0.1-0.5,0-0.7C45.7,26.6,45.5,26.4,45.4,26.4z"/>
	<path fill="none" d="M61.1,35c0.2,0.1,0.5,0.1,0.7,0.1c0-0.7,0-1.3,0-2c-0.7-0.1-1.3-0.2-2-0.5c0.4,0.9,0.9,1.9,1.3,2.8L61.1,35z"
		/>
	<path fill="none" d="M63,45.3c0,0.2,0,0.5,0,0.7C63.1,45.9,63.1,45.6,63,45.3z"/>
	<path fill="none" d="M63.9,49.9l0.1,0.4c0.2-0.6,0-1.3-0.4-1.8c-0.2-0.2-0.5-0.3-0.6-0.6c-0.1-0.2-0.1-0.4,0-0.6
		c0-0.4,0-0.8,0.1-1.2c-0.1,0.1-0.1,0.2-0.2,0.3c-0.3,0.2-0.6,0.2-1,0.2c-0.1,0.7,0.2,1.5,0.6,2C62.8,49.1,63.4,49.5,63.9,49.9z"/>
	<path fill="none" d="M59,28.4c0.2,0,0.4,0,0.5-0.1c0.2-0.2,0.3-0.6,0.2-0.9c-0.5,0-1.1,0.1-1.1,0.6c0,0.3,0.2,0.6,0.4,0.8
		c0.3,0.1,0.6,0.1,0.8,0.1L59,28.4z"/>
	<path fill="none" d="M51.8,52.4c-0.5,0.3-1.1,0.7-1.5,1.2c-0.1,0.6-0.1,1.2-0.1,1.9c0,0.4,0.1,0.8,0.3,1c0.3,0.2,0.7,0,0.6-0.4
		c0-0.2-0.2-0.3-0.3-0.4c-0.4-0.5-0.1-1.2,0.2-1.8C51.3,53.3,51.6,52.9,51.8,52.4z"/>
	<path fill="none" d="M28.8,44.4c0.2-0.1,0.5,0,0.7,0c0.2,0,0.5-0.1,0.5-0.4c0-0.2-0.1-0.4-0.2-0.5c-0.2-0.3-0.6-0.7-0.9-0.4
		c-0.1,0.1-0.1,0.2-0.2,0.4c-0.1,0.4-0.2,0.8-0.3,1.2C28.6,44.6,28.7,44.5,28.8,44.4z"/>
	<path fill="none" d="M44.6,26.5l0.7,0c0,0,0,0,0.1,0C45.1,26.3,44.8,26.3,44.6,26.5z"/>
	<path fill="none" d="M34.2,30.1l0.1,0.5c0-0.5-0.2-0.9-0.3-1.4c0-0.2-0.1-0.3-0.1-0.5c-0.2,0-0.3,0-0.4,0.2
		C33.8,29.2,34.1,29.6,34.2,30.1z"/>
	<path fill="none" d="M33.3,41.3c-0.1,0-0.3,0.1-0.4,0.1c-0.3,0.1-0.6-0.2-0.7-0.5l0,0.3c0.2,1,0.8,1.8,1.6,2.1
		c-0.1-0.4,0-0.8,0-1.2C33.9,41.8,33.7,41.3,33.3,41.3z"/>
	<path fill="none" d="M29.4,46.2c-0.5,0-0.8-0.6-0.9-1.1c0-0.1,0-0.3,0-0.4c-0.1,0.2-0.2,0.5-0.2,0.7c0,0.4,0.2,0.8,0.4,1.2l-0.7,1
		C28.4,47,28.8,46.5,29.4,46.2z"/>
	<path fill="none" d="M29,49.1c-0.2-0.4-0.4-0.7-0.6-1.1c-0.3,1,0.3,2.1,1,2.6c0.7,0.5,1.6,0.6,2.4,0.7c-0.7-0.3-1.5-0.5-2.1-1
		C29.5,50,29.3,49.5,29,49.1z"/>
	<path fill="none" d="M31.9,51.3c0.1,0,0.2,0.1,0.3,0.1L31.9,51.3C31.9,51.3,31.9,51.3,31.9,51.3z"/>
	<path fill="none" d="M39.6,32.6l-0.1,0.6c0,0.7,0,1.4,0,2.1c0,0.3,0.1,0.7,0.4,0.6c0.1,0,0.1-0.1,0.2-0.1
		C40.7,34.8,40.5,33.2,39.6,32.6z"/>
	<path fill="none" d="M41.8,31.4C41.8,31.3,41.8,31.3,41.8,31.4C41.8,31.3,41.8,31.3,41.8,31.4L41.8,31.4z"/>
	<path fill="none" d="M33.9,28.6c0.3,0,0.6,0.1,0.8-0.1c0.1-0.1,0.2-0.2,0.2-0.4c0.3-0.8,0.2-1.7-0.1-2.4
		C34.1,26.5,33.8,27.6,33.9,28.6z"/>
	<path fill="none" d="M43.3,29.3c-0.3,0.2-0.6,0-0.9,0c-0.3,0.1-0.6,0.4-0.7,0.9c-0.1,0.4,0,0.8,0.1,1.2c0.6,0.4,1.5-0.1,1.8-0.9
		c0.3-0.7,0.3-1.5,0.2-2.3C43.6,28.5,43.6,29.1,43.3,29.3z"/>
	<path fill="none" d="M39.8,12.6c-0.2-0.3-0.5-0.4-0.9-0.6c-0.1-0.1-0.3-0.1-0.4,0c-0.3,0.1-0.2,0.7,0,1c0.3,0.2,0.6,0.3,0.8,0.6
		l0.5,0.1C40.1,13.4,40,12.9,39.8,12.6z"/>
	<path fill="none" d="M37.9,44.2c-0.1,1,0,2,0.1,3c0.2-0.7,0.2-1.6,0-2.3L37.9,44.2z"/>
	<path fill="#E8B944" d="M67.2,47.6c-0.3,0.1-0.7,0.2-1,0.1c-0.3-0.1-0.6-0.6-0.4-0.9c1.1-0.3,2-1.3,2.2-2.6c-0.9,0.3-2.4,0.2-2.3-1
		c0.1-1.1,1.4-1,2.3-0.7c0.9,0.3,2.2-0.3,1.9-1.2c-0.6-0.1-0.9-0.9-0.7-1.5c-1.1-0.6-2.2-1.2-3.4-1.8c-0.6-0.3-1.3-1.3-0.8-1.8
		c0.6,0,1.2,0,1.9,0c-0.8-0.4-1.4-1.1-1.9-2c0.4-0.3,0.8-0.5,1.2-0.8c0.7,0.5,1.5,0.9,2.2,1.4c0.5,0.4,1.3-0.2,1.2-0.9
		c0.4,0,0.7,0.1,1.1,0.1c0.6-0.4,0.7-1.5,0.5-2.2c-0.3-0.8-0.8-1.4-1.4-1.9c-0.8-0.8-1.5-1.6-2.3-2.4c1,0.2,2-1,1.8-2.2
		c-0.4-0.2-0.9-0.5-1.3-0.7c0-0.6,0-1.2,0-1.9c-0.2-0.3-0.6-0.4-1-0.3c-0.8-0.9-2-1.3-3.1-0.9c0.5-0.8,0.6-1.8,0.4-2.7
		c0.5-0.1,1-0.2,1.5-0.3c0.4-0.5-0.2-1.3-0.8-1.2c-0.6,0-1,0.5-1.6,0.6c-1.6,0.5-2.9-1.3-3.9-2.9c-0.4,0.3-0.8,0.7-1.2,1
		c-0.7-0.6-0.9-1.7-0.5-2.6c-1.1,0.6-2.5,0.2-3.3-0.9c0.4-0.1,0.8-0.2,1.2-0.3c0.5-0.5,0.1-1.4-0.4-1.8c-0.5-0.4-1.2-0.5-1.6-0.9
		c-1.1-0.9-1-2.8-0.8-4.3c-1.6-0.3-3.2-0.7-4.8-1c0-0.4-0.1-0.7-0.1-1.1c-0.8-0.1-1.6-0.3-2.4-0.4c-1.2-0.2-2.7-0.3-3.4,0.9
		c-0.6-1.6-2-2.7-3.5-2.9c-0.1,0.5-0.2,1.1-0.3,1.6c-0.4-0.6-0.9-1.2-1.3-1.7c-0.3,1-0.7,2.1-1.5,2.4c-0.5,0.2-1,0-1.4,0.1
		c-0.5,0.1-1,0.5-1,1c0.1-1.3-1.5-1.6-2.5-2.1c-0.3-0.1-0.6-0.4-0.9-0.4c-0.9,0-1.9,1.6-2.5,0.7C27.1,3,27.7,3.9,28.3,4
		c0.7,0.1,1.3-0.3,1.8-0.7c-1.1,0.7-1.8,2.3-1.7,3.8c-0.4,0.3-0.9-0.2-1.1-0.7c-0.5-1-1-2-1.5-3c-0.6,0.8-0.8,2-0.5,3
		c-1,0.1-1.9,0.5-2.6,1.3c1.3-0.1,3.2,0.5,3,2.1c-0.8-0.9-2.1-1-3-0.3c0.1-0.7-0.5-1.3-1.1-1.2c-0.6,0.1-0.9,1-0.6,1.6
		c-1-0.2-2.1,0.4-2.5,1.4c-0.2-0.6-0.3-1.3-0.3-2c-0.5,1.2-1.1,2.4-1.6,3.6c-0.1,0.4,0.3,0.9,0.6,0.6c-0.1,0.9-0.7,1.7-1.4,1.9
		c-0.5-1.3-1.4-2.4-2.4-2.9c-0.3,0.4-0.5,0.8-0.5,1.4c-0.4-0.8-1.4-0.5-1.9,0.2c-0.5,0.7-0.6,1.6-1.1,2.3C9.6,17,8.7,17.6,8.1,17
		c0-0.6,0-1.3,0-1.9c-2,1.2-4.1,2.6-4.7,5.1c0.5-0.3,1.1,0.5,1,1.2c-0.1,0.7-0.6,1.2-1.1,1.5c-0.5,0.4-1,0.8-1.3,1.4
		C1.8,25,2,25.9,1.9,26.6c-0.1,0.8-0.9,1.5-1.4,1c0.1,1,0.8,1.9,1.6,2c1.8,2.3,1.4,6.4-0.8,8.2c1,0.7,2.4,0.6,3.4-0.3
		c-0.5,1-1.6,1.4-2.5,2c-0.8,0.6-1.4,2.2-0.6,2.9c0.6,0,1.2,0,1.8,0c-0.5,0.8-1,1.6-1.6,2.4c0.6,0.4,1.3,0.3,1.8-0.2
		c0.1,0.5,0.6,0.9,1.1,0.9c0.2-0.5,0.6-0.9,1-1c-0.2,0.7,0,1.6,0.5,2.2c-0.9-0.1-1.5,1.6-0.8,2.3c-0.1,0.4-0.6,0.5-0.9,0.5
		c-0.4,0-0.8,0-1,0.3c-0.2,0.3-0.1,0.7,0.2,0.8c-0.4,0.1-0.8,0.5-0.9,0.9c0.4,1,1.1,1.8,1.9,2.4c0.2,0.3,0.5,0.5,0.7,0.8
		c1.3,1.4,2.6,3,2.5,5c0.8,0.2,1.6,0.3,2.4,0.5c0.1-0.3,0.2-0.7,0.3-1c-0.7-0.6-1.1-1.7-1.2-2.7c0.6-0.1,1.3-0.1,1.9-0.2
		c0.1,0.9,0.3,1.8,0.6,2.7c0.9,0,1.7-0.8,1.9-1.8c0.5,0.6,0.4,1.7,0,2.3c0.5,1.1,2.2,0.6,2.2-0.7c1.6,1.4,3.4,2.3,5.3,2.8
		c-0.2-0.4-0.4-0.7-0.6-1.1c0.5-0.2,1.1,0.3,1.2,0.9c0.6-0.1,1.2-0.5,1.7-1c-0.4,0.4-0.5,1.1-0.2,1.7c0.7,0,1.3-0.7,1.3-1.5
		c0,0.7,0.6,1.3,1.2,1.2c0-0.7,0.2-1.4,0.7-1.7c0.9-2.2,1.3-4.5,1.4-6.9c0.8,0.2,1.6,0.6,2.3,1.2c-0.1,1.3-0.9,2.5-1.9,2.9
		c0.4,0.5,1,0.7,1.5,0.4c-0.6,0.6-1.2,1.2-1.8,1.8c1.9-0.6,3.7-1.7,5.3-3.1c0.2-0.3,0.4-0.5,0.5-0.8c0.4-0.6,0.7-1.2,1.2-1.7
		c0.1-0.1,0.2-0.1,0.3-0.2c-0.1-0.4-0.1-0.8,0.1-1.2c0.1-0.2,0.3-0.3,0.3-0.6c0.2-0.5-0.1-1.1,0.1-1.5c0.1,0.6,0.5,1.2,1,1.6
		c0.1,0.1,0.2,0.2,0.3,0.3c0,0.1,0,0.2,0,0.3c0.6,0,1.1-0.1,1.7-0.2c0,0.1,0.1,0.2,0.1,0.3c0.1-0.4,0.3-0.8,0.6-1
		c0.1,0.8,0.2,1.5,0.2,2.3c0.1,0.1,0.2,0.2,0.3,0.3c-0.1,0.4,0.3,0.6,0.6,0.8c0.6,0.3,1.2,0.6,1.7,0.8c1.3-1.1,2.7-2.3,4-3.4
		c-1.3,2.6-1,6.2,0.7,8.5c0.1-1.6,0.1-3.2,0.2-4.8c0.3,2,1,4.3,2.6,4.7c1.1,0.3,2.2-0.5,3.3-0.3c0.5,0.1,1,0.3,1.5,0.2
		c0.5-0.1,1-0.8,0.7-1.3c-0.5-0.7-1.4-0.6-2.1-0.8c-0.7-0.2-1.5-1.2-1-1.8c1.2-0.4,2.1,2.7,3.1,1.8c0.7-0.7-0.3-1.9-1.1-2.2
		c1.2-0.8,3,0.6,2.7,2.2c0.6,0,1.2,0,1.9,0.1c-0.5-0.5-0.7-1.2-0.5-1.9c1.1,1.7,3.3,1.6,5.1,1.3c0.3-0.1,0.7-0.1,1-0.2
		c0.7-0.1,1.7-0.7,1.4-1.5c0.8,0.5,1.9,0.2,2.4-0.7c0.5-0.9,0.5-2.2-0.2-2.9c-0.6-0.8-1.8-1.6-1.3-2.4c0.7-0.4,1.4-0.9,2.1-1.3
		c0,0.7,1.6,2.1,2.3,2c-0.1-1.1-0.2-2.3-0.2-3.4C69.8,47.6,68.5,47.2,67.2,47.6z M32.7,35.9l0.3-0.1c-0.1,1,0.9,2,0.4,2.8
		c-0.2,0.2-0.6,0.1-0.7-0.2c-0.1-0.1-0.1-0.3-0.1-0.5C32.7,37.2,32.7,36.6,32.7,35.9z M30.1,19l0-0.3c0.2-0.5,0.4-1.1,0.4-1.7
		c0-0.1,0-0.3,0.1-0.4c0.1-0.1,0.3-0.1,0.5-0.1c0.8-0.1,1.1-1.2,1.3-2.1c0.1,1-0.4,2-0.9,2.8c-0.5,0.8-1.1,1.6-1.4,2.6
		C30.1,19.4,30.1,19.2,30.1,19z M26.3,11.1c0.2-0.4,0.7-0.7,0.9-0.4c0.1,0.3,0,0.7-0.2,1c-0.2,0.3-0.5,0.4-0.7,0.6l0,0.1
		C26.3,11.9,26.2,11.5,26.3,11.1z M24.6,17.9c0.2,0.1,0.3,0.2,0.4,0.4c0.2,0.2,0.3,0.5,0.3,0.8c0.2,0.6,0.3,1.3,0.5,1.9
		c0.2,0.9,0.5,1.9,0.2,2.7c-0.2-1.4-0.7-2.8-1.5-3.9c-0.6-1-1.4-1.9-1.5-3.1C23.5,17.1,24,17.5,24.6,17.9z M25.4,47.1
		c-0.2,0-0.3-0.1-0.5-0.2c-0.4-0.1-0.8-0.2-1.2-0.2c-0.6-0.1-1.2-0.3-1.6-0.8c-0.4-0.5-0.5-1.4-0.1-1.8c0.9,0.9,1.9,1.8,2.8,2.7
		c0,0,0.1,0.1,0.1,0.1C25,46.9,25.2,47,25.4,47.1z M21.7,31.1c0.1-0.1,0.1-0.1,0.2-0.1c0.8-0.1,1.5,1.1,2.3,0.9
		c0.1,0,0.2-0.1,0.3-0.1c0.3,0,0.3,0.5,0.3,0.8c0,0.3-0.1,0.7-0.2,0.9c0,0,0,0,0,0l-0.2,0.1c0.1,0,0.1,0,0.1-0.1
		c-0.3-0.6-1-0.7-1.6-0.8c-0.6-0.1-1.3-0.5-1.4-1.2C21.6,31.3,21.6,31.1,21.7,31.1z M20.4,41.5c0.1,0,0.2,0.1,0.2,0.2
		c0,0.2-0.1,0.3-0.3,0.3c-0.5,0.2-1.1,0.2-1.6,0.2l-0.1-1.5C19.2,41,19.8,41.3,20.4,41.5z M5.3,25.7C5.9,26,6.5,26,7,25.6
		c0,0,0,0,0-0.1l0.1,0.1c0,0,0,0,0,0c0.2,0.6,0.4,1.2,0.5,1.8c0,0.2,0,0.3-0.1,0.4c-0.1,0.1-0.1,0.1-0.2,0.1c-0.5,0.1-1-0.3-1.5-0.7
		C5.4,26.8,5.1,26.1,5.3,25.7z M6.5,33.9C6.2,34,6,34.6,5.7,34.6c-0.2,0-0.3-0.3-0.3-0.6c0-0.2,0.2-0.4,0.3-0.6
		C5.9,33.2,6,33.1,6.1,33c0.4-0.5,0.8-1.2,0.6-1.8c1.1,1.1,2.2,2.1,3.3,3.2c0,0,0.1,0,0.1,0.1c0,0,0,0-0.1-0.1c0,0-0.1,0-0.1,0.1
		c0,0.1,0,0.2,0,0.3c0,0.3-0.2,0.6-0.4,0.7c-0.2,0.1-0.5,0.1-0.7,0.1c-0.4,0-0.8,0-1.1-0.4c-0.2-0.2-0.3-0.5-0.4-0.8
		C7,34,6.8,33.8,6.5,33.9z M9.2,39.5c0.1-0.1,0.3-0.2,0.4-0.2c0.2-0.1,0.4-0.1,0.6-0.1c1.5,0,3.1-0.7,4.3-1.8
		c-0.3,0.8-0.9,1.4-1.4,1.9c-0.3,0.3-0.7,0.6-1,0.8c-0.9,0.4-1.9,0.1-2.7,0.7c-0.3,0.2-0.6,0.6-0.9,0.9c-0.3,0.3-0.7,0.5-1.1,0.3
		C7.4,40.9,8.4,40.1,9.2,39.5z M9.2,54.4c-0.5,0.4-1,0.6-1.6,0.8l0-0.5c0.9-0.5,1.7-1.2,2.4-2C10,53.4,9.6,54,9.2,54.4z M9.6,46.8
		c0.2-0.2,0.5,0.1,0.5,0.4c0,0.3-0.2,0.6-0.3,0.9c-0.3,0.9,0.2,2-0.3,2.7c-0.4,0.5-1.1,0.4-1.4-0.2c-0.3-0.6,0-1.4,0.6-1.5
		c0.2,0,0.3,0,0.5-0.1c0.4-0.2,0.5-0.9,0.2-1.2c-0.2-0.2-0.5-0.2-0.8-0.2c-0.3,0-0.6,0-0.9-0.2c-0.2-0.2-0.3-0.7-0.1-0.9
		c0.2,0,0.4,0,0.6-0.1c-0.3-0.1-0.6-0.4-0.7-0.9c0-0.5,0.3-1,0.7-1.3c0.2,0.2,0.2,0.4,0.2,0.7c0.6-0.1,1.1-0.3,1.7-0.6
		c0.6,0.4,0.5,1.5-0.1,1.8C9.8,46.4,9.5,46.6,9.6,46.8z M19.9,59.6c-0.1,0-0.1-0.1-0.2-0.1c-0.4,0.5-1,0.7-1.5,0.5
		c-0.2-0.4,0.1-1-0.2-1.2c-0.4-0.3-0.9,0.8-1.3,0.5c-0.1-0.3-0.2-0.6-0.3-0.9c0.3,0.3,0.7,0.1,0.9-0.2c0.2-0.3,0.4-0.7,0.6-1
		c0.1-0.1,0.2-0.2,0.3-0.1c0.1,0,0.1,0.1,0.1,0.2c0.4,0.7,0.8,1.5,1.1,2.2c0,0.1,0.1,0.1,0.1,0.2c0.2-0.2,0.3-0.5,0.4-0.8
		c0.1,0.2,0.1,0.4,0.1,0.6C20.2,59.5,20,59.7,19.9,59.6z M20.1,45.1c-0.7,0-1.4,0.3-2.1,0.6c-1.3,0.6-2.6,1.3-3.9,2
		c-0.5,0.6-0.9,1.1-1.6,1.4c-0.1,0-0.1,0.1-0.2,0.1c-0.2,0.4-0.4,0.9-0.6,1.3c-0.3,0.5-0.8,1-1.3,0.8c-0.3-0.5,0-1.3,0.5-1.6
		c0.4-0.3,0.9-0.3,1.4-0.5c0.1-0.1,0.1-0.2,0.2-0.3c0.3-0.4,0.7-0.6,1.1-0.9c0.2-0.1,0.3-0.2,0.5-0.3c0.4-0.5,0.7-0.9,1.1-1.3
		c1.5-1.4,3.6-1.6,5.5-1.7C20.8,45,20.4,45.1,20.1,45.1z M19.6,35.7c-0.5-0.4-0.7-1.4-0.4-2c-0.1-0.1-0.2-0.3-0.3-0.4l0.3,0.4
		c0,0,0,0.1,0,0.1c0.3,0.3,0.7,0.6,1.1,0.8c0.5,0.3,1.1,0.8,1.2,1.5C20.9,36.1,20.2,36.1,19.6,35.7z M26.7,52.7
		c-0.2,1-1.2,1.5-2,1.7c-0.5,0.1-1.1,0.2-1.3,0.7c-0.1,0.2-0.1,0.5-0.1,0.7c-0.2,0.6-0.8,0.9-1.2,0.6c-0.4-0.3-0.5-1.2,0-1.5
		c0.2-0.2,0.5-0.2,0.8-0.2c0.9-0.1,1.8-0.5,2.4-1.2c-0.5,0-1-0.5-1.1-1.1c0-0.1,0-0.2,0-0.3c0-0.1,0.1-0.1,0.2-0.1
		c0.5-0.1,1.1-0.2,1.6-0.3c0.2,0,0.4-0.1,0.6,0C26.7,52,26.7,52.4,26.7,52.7z M27.7,36.8c0,0.1-0.1,0.2-0.1,0.3l-0.2-0.3
		c-0.2-0.9-0.3-1.9-0.3-2.8C27.6,34.8,27.8,35.8,27.7,36.8z M26.5,27.8l0.3-0.2c-0.1-0.6,0.3-1.3,0.8-1.4c0.1,0.6,0.4,1.1,0.9,1.3
		c0.1,0.1,0.3,0.2,0.4,0.3c0.5,0.4,0.5,1.2,0.5,1.9c-0.3-0.1-0.6-0.1-0.9,0c0.3,0.4,0.3,1,0.1,1.5C28.1,29.9,27.3,28.7,26.5,27.8z
		 M28.3,45.4c0-0.3,0-0.5,0.2-0.7c0-0.4,0.1-0.8,0.3-1.2c0-0.1,0.1-0.3,0.2-0.4c0.3-0.3,0.7,0.1,0.9,0.4c0.1,0.2,0.2,0.3,0.2,0.5
		c0,0.3-0.3,0.4-0.5,0.4c-0.2,0-0.5-0.1-0.7,0c-0.1,0-0.2,0.1-0.3,0.3c0,0.1,0,0.3,0,0.4c0.1,0.5,0.4,1.1,0.9,1.1
		c-0.5,0.3-1,0.8-1.4,1.4l0.7-1C28.5,46.2,28.3,45.8,28.3,45.4z M32.2,51.5c-0.1-0.1-0.2-0.1-0.3-0.1c-0.8-0.1-1.7-0.2-2.4-0.7
		c-0.7-0.5-1.3-1.6-1-2.6c0.2,0.4,0.4,0.7,0.6,1.1c0.2,0.4,0.5,0.9,0.8,1.2c0.6,0.6,1.4,0.7,2.1,1c0,0,0,0,0.1,0L32.2,51.5
		c0.1,0.1,0.3,0.2,0.4,0.3C32.4,51.6,32.3,51.5,32.2,51.5z M33.8,43.4c-0.8-0.4-1.4-1.2-1.6-2.1l0-0.3c0.1,0.3,0.4,0.6,0.7,0.5
		c0.1,0,0.2-0.1,0.4-0.1c0.3,0,0.5,0.5,0.5,0.9C33.9,42.6,33.7,43,33.8,43.4z M35,28.2c-0.1,0.2-0.1,0.3-0.2,0.4
		c-0.2,0.2-0.5,0.1-0.8,0.1c0,0.2,0,0.3,0.1,0.5c0.1,0.5,0.3,0.9,0.3,1.4l-0.1-0.5c-0.2-0.5-0.5-1-0.8-1.3c0.1-0.1,0.3-0.2,0.4-0.2
		c-0.1-1.1,0.3-2.2,1-2.9C35.2,26.5,35.2,27.4,35,28.2z M38,47.2c-0.1-1-0.1-2-0.1-3l0,0.7C38.2,45.7,38.2,46.5,38,47.2z M38.6,13
		c-0.3-0.2-0.4-0.8,0-1c0.1-0.1,0.3,0,0.4,0c0.3,0.1,0.6,0.3,0.9,0.6c0.2,0.3,0.3,0.8,0.1,1.1l-0.5-0.1C39.2,13.3,38.8,13.2,38.6,13
		z M40,35.7c0,0.1-0.1,0.1-0.2,0.1c-0.2,0.1-0.4-0.3-0.4-0.6c0-0.7,0-1.4,0-2.1l0.1-0.6C40.5,33.2,40.7,34.8,40,35.7z M43.6,30.4
		c-0.3,0.8-1.2,1.3-1.8,0.9c0,0,0,0,0,0l0-0.1c0,0,0,0,0,0c-0.1-0.4-0.1-0.8-0.1-1.2c0.1-0.4,0.3-0.8,0.7-0.9c0.3-0.1,0.6,0.2,0.9,0
		c0.3-0.2,0.3-0.8,0.5-1.1C43.8,28.9,43.9,29.7,43.6,30.4z M45.8,27.5c0.1-0.3,0-0.8-0.3-1c0,0-0.1-0.1-0.1-0.1c0,0,0,0-0.1,0
		l-0.7,0c0.2-0.2,0.5-0.2,0.7,0c0.2,0,0.3,0.1,0.4,0.4C45.8,27,45.8,27.3,45.8,27.5z M47.3,18.4c-0.6-0.1-1.2-0.8-1.3-1.5l0.6-0.3
		C47.3,16.7,47.7,17.7,47.3,18.4z M49.1,53.2c-0.2,0.2-0.6,0.2-0.8-0.1l0,0.2c-0.1-0.4-0.2-0.8-0.4-1.2c0-0.1-0.1-0.2-0.1-0.3
		c0-0.2,0.1-0.3,0.2-0.4c0.5-0.3,1.1,0.1,1.2,0.8C49.4,52.6,49.3,53,49.1,53.2z M50.9,55.6c0.1,0.1,0.2,0.2,0.3,0.4
		c0.1,0.4-0.4,0.6-0.6,0.4c-0.3-0.2-0.3-0.6-0.3-1c0-0.6,0-1.2,0.1-1.9c-0.1,0.1-0.2,0.2-0.2,0.2l0.3-0.4c0,0.1,0,0.1,0,0.2
		c0.5-0.5,1-0.9,1.5-1.2c-0.2,0.5-0.5,1-0.7,1.5C50.8,54.4,50.5,55.1,50.9,55.6z M55.4,54.4c-0.3,0-0.5-0.1-0.8-0.1
		c-0.7,0-1.1,1.1-0.7,1.7c-0.5-0.3-0.5-1.1-0.3-1.7c0.2-0.5,0.4-1,0.5-1.5c-0.1,0-0.2-0.1-0.3-0.1l0.4-0.2c0,0.1,0,0.2,0,0.3
		c0.5,0.1,1,0.4,1.5,0.7c0.1,0.1,0.2,0.1,0.2,0.2C56,54,55.7,54.4,55.4,54.4z M61.8,46.5c0.3,0.1,0.7,0.1,1-0.2
		c0.1-0.1,0.2-0.2,0.2-0.3c0-0.2,0-0.5,0-0.7c0.1,0.2,0.1,0.5,0,0.7c0,0.4,0,0.8-0.1,1.2c0,0.2,0,0.4,0,0.6c0.1,0.3,0.4,0.4,0.6,0.6
		c0.4,0.4,0.6,1.1,0.4,1.8l-0.1-0.4c-0.5-0.4-1.1-0.8-1.5-1.3C62,48,61.7,47.3,61.8,46.5z M59,28.8c-0.3-0.1-0.5-0.4-0.4-0.8
		c0.1-0.5,0.7-0.6,1.1-0.6c0.1,0.3,0,0.7-0.2,0.9c-0.1,0.1-0.3,0.2-0.5,0.1l0.8,0.5C59.5,28.9,59.2,28.9,59,28.8z M61.8,33.1
		c0,0.7,0,1.3,0,2c-0.2,0.1-0.5,0-0.7-0.1l0,0.4c-0.4-0.9-0.9-1.9-1.3-2.8C60.4,32.8,61.1,33,61.8,33.1z M64.3,54.6
		c0.1,0.2,0.2,0.4,0,0.6c-0.1,0.1-0.3,0.1-0.4,0.1c-0.1,0-0.3,0.2-0.2,0.3c0.3,0,0.5,0.2,0.6,0.5c-0.4,0.3-0.8,0.5-1.2,0.4
		c-0.2,0-0.4-0.2-0.7-0.3c-0.2-0.1-0.5,0-0.6,0.3c-0.1,0.2,0,0.4,0,0.7c0,0.5-0.5,0.8-0.9,0.7c-0.4-0.1-0.6-0.6-0.6-1.1
		c0.5,0,0.8-0.7,0.8-1.4c-0.1-0.6-0.4-1.1-0.5-1.8c-0.1-0.6,0.1-1.4,0.6-1.5c0.3,0,0.7,0.1,0.8-0.2c0,0.7,0.1,1.4,0.1,2.1
		c0,0.2,0.1,0.4,0.2,0.4c0.1,0,0.2-0.1,0.2-0.2c0.2-0.3,0.4-0.8,0.3-1.1c-0.1-0.5-0.7-0.9-0.6-1.4c0.1-0.5,0.7-0.6,1.1-0.4
		c0.4,0.1,0.8,0.3,1,0.8C64.7,52.9,64.1,53.8,64.3,54.6z"/>
	<path fill="#E77528" d="M40.2,54.5c-0.1-0.1-0.2-0.2-0.3-0.3c0,0.3,0.1,0.6,0.1,0.9l-0.4-0.1c-0.3-0.5-0.6-1.1-0.6-1.7
		c0-0.2,0-0.4,0-0.5c0-0.1-0.1-0.2-0.1-0.3c-0.5,0.1-1.1,0.2-1.7,0.2c0,0,0,0,0,0.1c0,0.8,0,1.5-0.2,2.3l-0.5,0.5
		c-0.4-0.4-0.8-0.7-1-1.2c-0.1-0.2-0.1-0.3-0.2-0.5c-0.1,0.1-0.2,0.1-0.3,0.2c-0.5,0.4-0.9,1.1-1.2,1.7c-0.2,0.3-0.3,0.5-0.5,0.8
		c0.1-0.1,0.1-0.1,0.2-0.2c0,0.6,0.1,1.2,0.1,1.7c0.3,0,0.7,0.1,1,0.1c1.8,4.3,0.6,10-2.6,13c3.4,0.4,6.8,0.2,10.2-0.5
		c-1.2-3.6-1.7-7.4-1.4-11.2c0-0.7,0.1-1.4,0.4-1.9c0.3-0.6,0.8-1.1,1.3-1.5c0,0,0,0,0,0c-0.6-0.3-1.2-0.6-1.7-0.8
		C40.5,55.1,40.1,54.8,40.2,54.5z"/>
</g>
</svg>
