<?xml version="1.0" encoding="utf-8"?>
<!-- Generator: Adobe Illustrator 18.0.0, SVG Export Plug-In . SVG Version: 6.00 Build 0)  -->
<!DOCTYPE svg PUBLIC "-//W3C//DTD SVG 1.1//EN" "http://www.w3.org/Graphics/SVG/1.1/DTD/svg11.dtd">
<svg version="1.1" id="Layer_1" xmlns="http://www.w3.org/2000/svg" xmlns:xlink="http://www.w3.org/1999/xlink" x="0px" y="0px"
	 viewBox="0 0 72 72" enable-background="new 0 0 72 72" xml:space="preserve">
<g>
	<path fill="#E77528" d="M15.2,22.4c0,0.5,0,1.1,0,1.6c0,0.5,0,1.1-0.4,1.5c-0.3,0.2-0.7,0.4-0.8,0.7c-0.2,0.4,0.2,0.9,0.6,1.1
		c0.4,0.2,0.8,0.5,1,0.9c0.2,0.5-0.1,0.9-0.1,1.4c0,0.9,1.1,1.4,2,1.4c0.2,0,0.4,0,0.6,0.1c0.1,0.1,0.1,0.2,0.1,0.4
		c0.1,0.9-0.2,2,0.5,2.5c0.3,0.2,0.7,0.2,1.1,0.2c0.7,0,1.4-0.1,2-0.1c0.3,0,0.6,0,0.9-0.2c0.3-0.2,0.4-0.6,0.5-0.9
		c0.2-0.5,0.3-1,0.5-1.5c0.1-0.3,0.2-0.5,0.1-0.8c-0.1-0.7-0.9-1.1-1.2-1.7c-0.4-0.7-0.1-1.6,0-2.5c0.1-0.8-0.1-1.9-0.9-2.1
		c-0.6-0.1-1.2,0.3-1.7,0.2c1.1-0.9,2-2.1,2.5-3.5c0.5-1.1,0.6-2.3,0.5-3.4c0.1,0,0.2,0,0.3,0c0.2,0,0.4,0,0.6,0.1
		c0.1,0.1,0.1,0.2,0.1,0.4c0.1,0.9-0.2,2,0.5,2.5c0.3,0.2,0.7,0.2,1.1,0.2c0.7,0,1.4-0.1,2-0.1c0.3,0,0.6,0,0.9-0.2
		c0.3-0.2,0.4-0.6,0.5-0.9c0.2-0.5,0.3-1,0.5-1.5c0.1-0.3,0.2-0.5,0.1-0.8c-0.1-0.7-0.9-1.1-1.2-1.7c-0.4-0.7-0.1-1.6,0-2.5
		s-0.1-1.9-0.9-2.1c-0.7-0.1-1.6,0.5-2-0.1c-0.4-0.5,0.3-1.5-0.3-1.9c-0.3-0.2-0.7,0-1,0c-1.4,0.1-2-2.3-3.4-2.5c0,0.7,0,1.5,0,2.2
		c-0.7-0.3-1.4-0.6-2.2-0.7c-3.2-0.6-6.4,0.6-8.7,3.5c-1.8,2.4-1.9,5.1-0.3,8C10.8,21.3,12.5,22.2,15.2,22.4z M17.8,18.1
		c0-0.1,0-0.3,0-0.4c0.3,0.5,0.3,0.9,0.2,1.3c-0.2,0.7-0.8,1.4-1.5,1.9c-0.1-0.1-0.2-0.2-0.2-0.3C17.2,20.1,17.8,19.2,17.8,18.1z
		 M21.7,20.7c-0.4,1-1.1,2-1.9,2.8c0.1-0.4,0.1-0.8-0.2-1c-0.3-0.2-0.7,0-1,0c-0.5,0-0.9-0.3-1.3-0.6c0.9-0.6,1.6-1.5,1.8-2.5
		c0.3-1.3-0.2-2.4-1.4-3.1c0,0-0.1,0-0.1,0C17.4,16,17.2,15.9,17,16c-0.5-0.5-1.2-0.8-2-0.8c-0.3,0-0.6,0.1-0.9,0.2
		c0.2-0.6,0.7-1.2,1.4-1.7c2-1,4.5-0.4,5.8,1.5c0.2,0.2,0.3,0.5,0.4,0.7c0,0.1,0,0.3,0,0.4c0,0.4,0.2,0.7,0.5,0.9
		C22.3,18.3,22.2,19.5,21.7,20.7z M11.3,12.3c2-2.5,4.8-3.6,7.6-3.1c0.9,0.2,1.7,0.5,2.4,0.9c0,0.2,0,0.4,0,0.6c0,0.5,0,1.1-0.4,1.5
		c-0.2,0.2-0.6,0.3-0.8,0.6c-1.6-0.9-3.6-1-5.3-0.1c0,0,0,0-0.1,0c-1.2,0.8-2,2.2-2,3.3c0,0,0,0.1,0,0.1c-0.4,0.5-0.7,1.2-0.7,1.9
		c0,1.6,1.3,2.9,2.9,2.9c0.1,0,0.1,0,0.2,0c0,0.1,0,0.3,0,0.4c-2.2-0.2-3.6-0.9-4.2-2.2C9.7,16.5,9.7,14.3,11.3,12.3z"/>
	<path fill="#E77528" d="M50.6,40.5c-0.5-0.7-0.4-1.7-0.3-2.6c-0.2,0.5-0.7,1-1.2,1.2c-0.7,0.3-1.5,0.1-2.2,0.5
		c-0.5,0.2-0.8,0.7-0.9,1.3c-0.1,0.5,0.1,1.1,0.5,1.5c0.3,0.3,0.7,0.5,1,0.7c0.3,0.3,0.6,0.6,0.7,1.1c0.8-0.2,1.6-0.4,2.3-0.7
		c0.2,0,0.3-0.1,0.5-0.2c0.2-0.2,0.2-0.4,0.2-0.7c0-0.5,0-1.1-0.2-1.6C50.9,40.8,50.7,40.7,50.6,40.5z"/>
	<path fill="#E77528" d="M60.1,35.4c-0.5-0.7-0.4-1.7-0.3-2.6c-0.2,0.5-0.7,1-1.2,1.2c-0.7,0.3-1.5,0.1-2.2,0.5
		c-0.5,0.2-0.8,0.7-0.9,1.3c-0.1,0.5,0.1,1.1,0.5,1.5c0.3,0.3,0.7,0.5,1,0.7c0.3,0.3,0.6,0.6,0.7,1.1c0.8-0.2,1.6-0.4,2.3-0.7
		c0.2,0,0.3-0.1,0.5-0.2c0.2-0.2,0.2-0.4,0.2-0.7c0-0.5,0-1.1-0.2-1.6C60.3,35.7,60.2,35.6,60.1,35.4z"/>
	<path fill="#E77528" d="M49,9.7c0.3,0.3,0.6,0.6,0.7,1.1c0.8-0.2,1.6-0.4,2.3-0.7c0.2,0,0.3-0.1,0.5-0.2c0.2-0.2,0.2-0.4,0.2-0.7
		c0-0.5,0-1.1-0.2-1.6c-0.1-0.2-0.3-0.3-0.4-0.5c-0.5-0.7-0.4-1.7-0.3-2.6c-0.2,0.5-0.7,1-1.2,1.2C49.8,6,49,5.9,48.3,6.2
		c-0.5,0.2-0.8,0.7-0.9,1.3c-0.1,0.5,0.1,1.1,0.5,1.5C48.2,9.3,48.6,9.5,49,9.7z"/>
	<path fill="#E77528" d="M26.3,6.6c0.3,0.3,0.6,0.6,0.7,1.1c0.8-0.2,1.6-0.4,2.3-0.7c0.2,0,0.3-0.1,0.5-0.2C30,6.6,30,6.4,30,6.1
		c0-0.5,0-1.1-0.2-1.6c-0.1-0.2-0.3-0.3-0.4-0.5c-0.5-0.7-0.4-1.7-0.3-2.6c-0.2,0.5-0.7,1-1.2,1.2c-0.7,0.3-1.5,0.1-2.2,0.5
		c-0.5,0.2-0.8,0.7-0.9,1.3s0.1,1.1,0.5,1.5C25.6,6.2,26,6.3,26.3,6.6z"/>
	<path fill="#E77528" d="M13.2,42.2c0.1,0.1,0.1,0.2,0.1,0.4c0.1,0.9-0.2,2,0.5,2.5c0.3,0.2,0.7,0.2,1.1,0.2c0.7,0,1.4-0.1,2-0.1
		c0.3,0,0.6,0,0.9-0.2c0.3-0.2,0.4-0.6,0.5-0.9c0.2-0.5,0.3-1,0.5-1.5C19,42.2,19,42,19,41.7c-0.1-0.7-0.9-1.1-1.2-1.7
		c-0.4-0.7-0.1-1.6,0-2.5s-0.1-1.9-0.9-2.1c-0.7-0.1-1.6,0.5-2-0.1c-0.4-0.5,0.3-1.5-0.3-1.9c-0.3-0.2-0.7,0-1,0
		c-1.4,0.1-2-2.3-3.4-2.5c0,1.4,0.1,2.7,0.1,4.1c0,0.5,0,1.1-0.4,1.5c-0.3,0.2-0.7,0.4-0.8,0.7c-0.2,0.4,0.2,0.9,0.6,1.1
		c0.4,0.2,0.8,0.5,1,0.9c0.2,0.5-0.1,0.9-0.1,1.4c0,0.9,1.1,1.4,2,1.4C12.8,42.1,13,42.1,13.2,42.2z"/>
	<path fill="#F04B36" d="M63.1,24.5c-0.1-0.7-0.9-1.1-1.2-1.7c-0.4-0.7-0.1-1.6,0-2.5c0.1-0.8-0.1-1.9-0.9-2.1
		c-0.7-0.1-1.6,0.5-2-0.1c-0.4-0.5,0.3-1.5-0.3-1.9c-0.3-0.2-0.7,0-1,0c-1,0-1.6-1.2-2.4-1.9c-0.3-1.1-1.3-2-2.6-2
		c-1.5,0-2.7,1.2-2.7,2.7c0,0,0,0.1,0,0.1c-0.2,0-0.3-0.1-0.5-0.1c-1.9-0.4-3.7-0.1-5.4,0.8c-0.3-0.5-0.8-0.8-1.4-0.9
		c0.6,0,1.3-0.1,1.9-0.1c0.3,0,0.6,0,0.9-0.2c0.3-0.2,0.4-0.6,0.5-0.9c0.2-0.5,0.3-1,0.5-1.5c0.1-0.3,0.2-0.5,0.1-0.8
		c-0.1-0.7-0.9-1.1-1.2-1.7c-0.4-0.7-0.1-1.6,0-2.5c0.1-0.8-0.1-1.9-0.9-2.1c-0.7-0.1-1.6,0.5-2-0.1c-0.4-0.5,0.3-1.5-0.3-1.9
		c-0.3-0.2-0.7,0-1,0c-1.4,0.1-2-2.3-3.4-2.5c0,1.4,0.1,2.7,0.1,4.1c0,0.5,0,1.1-0.4,1.5c-0.3,0.2-0.7,0.4-0.8,0.7
		c-0.2,0.4,0.2,0.9,0.6,1.1c0.4,0.2,0.8,0.5,1,0.9c0.2,0.5-0.1,0.9-0.1,1.4c0,0.9,1.1,1.4,2,1.4c0.2,0,0.4,0,0.6,0.1
		c0.1,0.1,0.1,0.2,0.1,0.4c0.1,0.9-0.2,2,0.5,2.5c0.1,0.1,0.2,0.1,0.3,0.1c-1.3,0.2-2.2,1.2-2.2,2.5c0,0.8,0.3,1.4,0.8,1.9
		c-0.3,0.5-0.5,1-0.7,1.5c0-0.5,0.2-1-0.2-1.3c-0.3-0.2-0.7,0-1,0c-1.4,0.1-2-2.3-3.4-2.5c0,1.3,0.1,2.6,0.1,3.9
		c-0.4-0.5-1.1-0.9-1.9-0.9C32,19.9,31,21,31,22.3c0,1.3,1.1,2.4,2.4,2.4c0.5,0,0.9-0.1,1.2-0.4c0.4,0.2,0.8,0.5,1,0.9
		c0.2,0.5-0.1,0.9-0.1,1.4c0,0.9,1.1,1.4,2,1.4c0.2,0,0.4,0,0.6,0.1c0.1,0.1,0.1,0.2,0.1,0.4c0.1,0.9-0.2,2,0.5,2.5
		c0.1,0,0.1,0.1,0.2,0.1c0.2,2.1,0.6,4.3,0.9,6.1c-1.1,1-2.5,2.1-3.7,2.8c-1.2-0.2-2.5-0.3-3.7-0.3c-0.4-0.8-1.1-2.1-2.2-3.5
		c0.2,0,0.4,0,0.6,0c0.7,0,1.4-0.1,2-0.1c0.3,0,0.6,0,0.9-0.2c0.3-0.2,0.4-0.6,0.5-0.9c0.2-0.5,0.3-1,0.5-1.5
		c0.1-0.3,0.2-0.5,0.1-0.8c-0.1-0.7-0.9-1.1-1.2-1.7c-0.4-0.7-0.1-1.6,0-2.5c0.1-0.8-0.1-1.9-0.9-2.1c-0.7-0.1-1.6,0.5-2-0.1
		c-0.4-0.5,0.3-1.5-0.3-1.9c-0.3-0.2-0.7,0-1,0c-1.4,0.1-2-2.3-3.4-2.5c0,1.4,0.1,2.7,0.1,4.1c0,0.5,0,1.1-0.4,1.5
		c-0.3,0.2-0.7,0.4-0.8,0.7c-0.2,0.4,0.2,0.9,0.6,1.1s0.8,0.5,1,0.9c0.2,0.5-0.1,0.9-0.1,1.4c0,0.9,1.1,1.4,2,1.4
		c0.2,0,0.4,0,0.6,0.1c0.1,0.1,0.1,0.2,0.1,0.4c0,0.5,0,1.1,0,1.6c-1.3-1.3-2.9-2.6-5-3.4c0,0,2.2,3.9,4.1,8.2c-0.1,0-0.3,0-0.4,0
		c-0.2-0.3-0.4-0.6-0.8-0.6c-0.7-0.1-1.6,0.5-2-0.1c-0.4-0.5,0.3-1.5-0.3-1.9c-0.3-0.2-0.7,0-1,0c-1.4,0.1-2-2.3-3.4-2.5
		c0,1.4,0.1,2.7,0.1,4.1c0,0.5,0,1.1-0.4,1.5c-0.3,0.2-0.7,0.4-0.8,0.7c-0.2,0.4,0.2,0.9,0.6,1.1c0.4,0.2,0.8,0.5,1,0.9
		c0.2,0.5-0.1,0.9-0.1,1.4c0,0.9,1.1,1.4,2,1.4c0.2,0,0.4,0,0.6,0.1c0,0,0.1,0.1,0.1,0.2c-4-0.6-8.5-0.8-11.4,1
		c0,0,6.5,0.3,12.1,1.8c0.1,0,0.2,0.1,0.4,0.1c4.8,1.3,8.9,3.5,7.8,7c0,0-0.1,12.8-1.4,15.2h5.6c0,0,4-13.8-2.3-26.7
		c0,0,1.3-0.5,2.9-1.6c3,1.4,4,2.9,4,2.9c1.8,6-1.3,25.5-1.3,25.5h5c4-10.8-0.5-29-0.5-29c-0.3-0.7-0.7-1.4-1-2.1
		c5.2-1.5,9.4-8,9.4-8c-0.5,0.4-1,0.8-1.5,1.2c0.1-0.4,0.3-0.8,0.4-1.2c0.1-0.3,0.2-0.5,0.1-0.8c-0.1-0.4-0.4-0.7-0.7-1.1
		c0.7-0.8,1.3-1.7,1.7-2.6c0.9-2.3,0.7-4.6-0.6-6.5c-1.6-2.4-4.7-3.2-7.2-1.9c0,0,0,0-0.1,0c-0.6,0.4-1.1,0.9-1.4,1.5
		c-0.1-0.1-0.3-0.1-0.5-0.2c0,0.4,0,0.8,0,1.2c-0.1,0.3-0.1,0.6-0.1,0.9c0,0.2,0,0.5,0.2,0.8c0,0.4,0,0.8,0,1.2c0,0.5,0,1.1-0.3,1.4
		c-0.2-0.2-0.3-0.3-0.4-0.5c-0.4-0.7-0.1-1.6,0-2.5c0.1-0.8-0.1-1.9-0.9-2.1c-0.4-0.1-0.8,0.1-1.2,0.2c0.1-0.6,0.4-1.3,0.7-1.8
		c0.2,0.1,0.5,0.1,0.7,0.1c1.4,0,2.5-1.1,2.5-2.5c0-0.2,0-0.3,0-0.5c1.5-0.8,3.1-1,4.8-0.7c0.4,0.1,0.8,0.2,1.1,0.3
		c0.5,0.8,1.3,1.3,2.3,1.3c0,0,0.1,0,0.1,0c0.5,0.4,1,0.9,1.4,1.4c-0.1,0.1-0.1,0.2-0.2,0.3c-0.3,0.2-0.7,0.4-0.8,0.7
		c-0.2,0.4,0.2,0.9,0.6,1.1c0.4,0.2,0.8,0.5,1,0.9c0.2,0.5-0.1,0.9-0.1,1.4c0,0.9,1.1,1.4,2,1.4c0,0,0,0,0,0c0,0.1,0.1,0.2,0.1,0.3
		c0.1,0.3,0.3,0.5,0.6,0.4c0,0.3,0,0.7,0,1c-0.2-0.1-0.4-0.1-0.7-0.1c-1.4,0-2.6,1.2-2.6,2.6s1.2,2.6,2.6,2.6s2.6-1.2,2.6-2.6
		c0-0.4-0.1-0.8-0.3-1.1c0.6,0,1.3-0.1,1.9-0.1c0.3,0,0.6,0,0.9-0.2c0.3-0.2,0.4-0.6,0.5-0.9c0.2-0.5,0.3-1,0.5-1.5
		C63,25,63.1,24.8,63.1,24.5z M48.5,25.6c-0.2,0-0.4-0.1-0.5-0.2c-0.2-0.3-0.1-0.7-0.1-1.1C48.5,24.7,48.6,25.2,48.5,25.6z
		 M31.2,48.2c0,0-0.9-0.3-2.3-0.7c0.1-0.3,0.2-0.7,0.3-1c0.1-0.3,0.2-0.5,0.1-0.8c-0.1-0.7-0.9-1.1-1.2-1.7c-0.4-0.7-0.1-1.6,0-2.5
		c0-0.2,0-0.4,0-0.6c0.2,0,0.4,0,0.6,0.1C29.9,43.6,30.8,46.2,31.2,48.2z M39.7,41.1c0.2-0.3,0.5-0.6,0.7-0.9
		c0.2,0.9,0.3,1.4,0.3,1.4C40.4,41.4,40,41.2,39.7,41.1z M42.8,38.2c-0.2-0.6-0.4-1.1-0.6-1.7c0.2-0.6,0.3-1.2,0.4-1.8
		c0,0-0.3,0.3-0.7,0.7c-0.4-1.5-0.8-2.9-1-4.2c0.3,0,0.6,0,1,0c0.3,0,0.6,0,0.9-0.2c0.3-0.2,0.4-0.6,0.5-0.9
		c0.1-0.4,0.2-0.7,0.4-1.1c0,0,0.1,0,0.1,0c0,0.1,0.1,0.1,0.1,0.2c0.2,0.5-0.1,0.9-0.1,1.4c0,0.9,1.1,1.4,2,1.4c0.2,0,0.4,0,0.6,0.1
		c0,0,0.1,0.1,0.1,0.1c-0.2,0.1-0.3,0.3-0.3,0.6c0,0.2,0.2,0.3,0.3,0.4c0,0.7-0.1,1.4,0.5,1.8c0.3,0.2,0.7,0.2,1.1,0.2
		c0.5,0,1,0,1.6-0.1C46.7,37.1,44.4,37.9,42.8,38.2z M45.9,20.5c0.7-0.3,1.4-0.5,2.1-0.5c-0.5,0.2-0.8,0.7-0.8,1.2
		c0,0.8,0.6,1.4,1.4,1.4s1.4-0.6,1.4-1.4c0-0.3-0.1-0.6-0.3-0.9c0.8,0.3,1.4,0.9,1.9,1.6c1.1,1.6,1.3,3.6,0.5,5.5
		c-0.3,0.8-0.8,1.5-1.3,2.1c-0.2-0.7,0-1.4,0.2-2.2c0.1-0.8-0.1-1.9-0.9-2.1c-0.1,0-0.3,0-0.4,0c0-1-0.5-1.8-1.4-2.4
		c0,0-0.1,0-0.1,0c-0.6-0.3-1.2,0.1-1.6,0.4c-0.8-0.1-1.3-0.9-1.8-1.5C45,21.4,45.4,20.9,45.9,20.5z M54.3,17.1c0,0.2,0,0.3,0,0.5
		c-0.1-0.1-0.2-0.2-0.3-0.3C54.1,17.2,54.2,17.2,54.3,17.1z"/>
	<circle fill="#E77528" cx="33.5" cy="11.2" r="2.5"/>
	<circle fill="#E77528" cx="12.6" cy="29.4" r="2.4"/>
</g>
</svg>
