<?xml version="1.0" encoding="utf-8"?>
<!-- Generator: Adobe Illustrator 18.0.0, SVG Export Plug-In . SVG Version: 6.00 Build 0)  -->
<!DOCTYPE svg PUBLIC "-//W3C//DTD SVG 1.1//EN" "http://www.w3.org/Graphics/SVG/1.1/DTD/svg11.dtd">
<svg version="1.1" id="Layer_1" xmlns="http://www.w3.org/2000/svg" xmlns:xlink="http://www.w3.org/1999/xlink" x="0px" y="0px"
	 viewBox="0 0 72 72" enable-background="new 0 0 72 72" xml:space="preserve">
<g>
	<path fill="#E77528" d="M34.4,31.5c0.2-0.5,0.2-1.1-0.2-1.5c-0.1-0.1-0.2-0.2-0.2-0.3c-0.1-0.2,0-0.3,0-0.5c0-0.4-0.5-0.6-0.8-0.6
		c-0.4,0-0.7,0.3-1,0.5c-0.1,0.1-0.2,0.1-0.2,0.2c-0.2,0.1-0.4-0.1-0.5-0.3c-0.1-0.2-0.2-0.4-0.3-0.6c-0.2-0.3-0.4-0.5-0.8-0.5
		c-0.3,0-0.7,0.2-0.8,0.5c0,0.1-0.1,0.2-0.1,0.3c-0.1,0.1-0.2,0.1-0.3,0.1c-0.4,0-0.9,0.2-1.1,0.5c-0.3,0.3-0.3,0.9,0.1,1.1
		c0.2,0.2,0.6,0.2,0.6,0.5c0,0.2-0.2,0.4-0.4,0.5c-0.2,0.1-0.4,0.1-0.6,0.1c-0.4,0.2-0.6,0.7-0.5,1.1c0.1,0.4,0.4,0.8,0.8,1
		c0.1,0.1,0.1,0.1,0.2,0.2c0,0.1,0.1,0.2,0.1,0.3c0.1,0.5,0.3,1.2,0.8,1.3c0.6,0.1,0.9-0.7,1.4-1c0.2,0.6,1.1,1.4,1.7,1.5
		c0.4,0,0.4-0.9,0.7-1.2c0.4-0.3,1-0.1,1.1-0.5c0.1-0.5-0.5-1-0.8-1.4C33.7,32.3,34.2,31.9,34.4,31.5z"/>
	<path fill="#E77528" d="M48.8,16.1c0.1,0.1,0.1,0.1,0.2,0.2c0,0.1,0.1,0.2,0.1,0.3c0.1,0.5,0.3,1.2,0.8,1.3c0.6,0.1,0.9-0.7,1.4-1
		c0.2,0.6,1.1,1.4,1.7,1.5c0.4,0,0.4-0.9,0.7-1.2c0.4-0.3,1-0.1,1.1-0.5c0.1-0.5-0.5-1-0.8-1.4c0.5-0.1,0.9-0.5,1.2-0.9
		c0.2-0.5,0.2-1.1-0.2-1.5c-0.1-0.1-0.2-0.2-0.2-0.3c-0.1-0.2,0-0.3,0-0.5c0-0.4-0.5-0.6-0.8-0.6c-0.4,0-0.7,0.3-1,0.5
		c-0.1,0.1-0.2,0.1-0.2,0.2c-0.2,0.1-0.4-0.1-0.5-0.3c-0.1-0.2-0.2-0.4-0.3-0.6c-0.2-0.3-0.4-0.5-0.8-0.5c-0.3,0-0.7,0.2-0.8,0.5
		c0,0.1-0.1,0.2-0.1,0.3c-0.1,0.1-0.2,0.1-0.3,0.1c-0.4,0-0.9,0.2-1.1,0.5c-0.3,0.3-0.3,0.9,0.1,1.1c0.2,0.2,0.6,0.2,0.6,0.5
		c0,0.2-0.2,0.4-0.4,0.5c-0.2,0.1-0.4,0.1-0.6,0.1C48,14.1,47.9,14.6,48,15C48.1,15.5,48.4,15.8,48.8,16.1z"/>
	<path fill="#E77528" d="M37.2,13.4c-0.1,0.1-0.2,0.1-0.2,0.2c-0.2,0.1-0.4-0.1-0.5-0.3c-0.1-0.2-0.2-0.4-0.3-0.6
		c-0.2-0.3-0.4-0.5-0.8-0.5c-0.3,0-0.7,0.2-0.8,0.5c0,0.1-0.1,0.2-0.1,0.3c-0.1,0.1-0.2,0.1-0.3,0.1c-0.4,0-0.9,0.2-1.1,0.5
		c-0.3,0.3-0.3,0.9,0.1,1.1c0.2,0.2,0.6,0.2,0.6,0.5c0,0.2-0.2,0.4-0.4,0.5c-0.2,0.1-0.4,0.1-0.6,0.1c-0.4,0.2-0.6,0.7-0.5,1.1
		c0.1,0.4,0.4,0.8,0.8,1c0.1,0.1,0.1,0.1,0.2,0.2c0,0.1,0.1,0.2,0.1,0.3c0.1,0.5,0.3,1.2,0.8,1.3c0.6,0.1,0.9-0.7,1.4-1
		c0.2,0.6,1.1,1.4,1.7,1.5c0.4,0,0.4-0.9,0.7-1.2c0.4-0.3,1-0.1,1.1-0.5c0.1-0.5-0.5-1-0.8-1.4c0.5-0.1,0.9-0.5,1.2-0.9
		c0.2-0.5,0.2-1.1-0.2-1.5c-0.1-0.1-0.2-0.2-0.2-0.3c-0.1-0.2,0-0.3,0-0.5c0-0.4-0.5-0.6-0.8-0.6C37.9,12.9,37.5,13.2,37.2,13.4z"/>
	<path fill="#E77528" d="M39.2,25.3c0.1-0.3,0.1-0.7-0.1-0.9c-0.1-0.1-0.1-0.1-0.2-0.2c0-0.1,0-0.2,0-0.3c0-0.2-0.3-0.4-0.5-0.4
		c-0.2,0-0.4,0.2-0.6,0.3c0,0-0.1,0.1-0.2,0.1c-0.1,0-0.3-0.1-0.3-0.2c-0.1-0.1-0.1-0.3-0.2-0.4C37,23.1,36.8,23,36.6,23
		c-0.2,0-0.4,0.1-0.5,0.3c0,0.1,0,0.1-0.1,0.2c-0.1,0-0.1,0.1-0.2,0.1c-0.3,0-0.5,0.1-0.7,0.3c-0.2,0.2-0.2,0.6,0.1,0.7
		c0.1,0.1,0.4,0.1,0.4,0.3c0,0.1-0.1,0.2-0.2,0.3c-0.1,0-0.3,0-0.4,0.1c-0.3,0.1-0.4,0.4-0.3,0.7c0.1,0.3,0.3,0.5,0.5,0.6
		c0,0,0.1,0.1,0.1,0.1c0,0,0,0.1,0,0.2c0,0.3,0.2,0.8,0.5,0.8c0.4,0,0.6-0.5,0.9-0.7c0.1,0.4,0.7,0.9,1.1,0.9c0.3,0,0.3-0.6,0.5-0.8
		c0.2-0.2,0.6,0,0.7-0.3c0.1-0.3-0.3-0.7-0.5-0.9C38.7,25.8,39,25.6,39.2,25.3z"/>
	<path fill="#E77528" d="M57.7,20.5c0,0,0.1,0.1,0.1,0.1c0,0,0,0.1,0,0.2c0,0.3,0.2,0.8,0.5,0.8c0.4,0,0.6-0.5,0.9-0.7
		c0.1,0.4,0.7,0.9,1.1,0.9c0.3,0,0.3-0.6,0.5-0.8c0.2-0.2,0.6,0,0.7-0.3s-0.3-0.7-0.5-0.9c0.3-0.1,0.6-0.3,0.7-0.6
		c0.1-0.3,0.1-0.7-0.1-0.9c-0.1-0.1-0.1-0.1-0.2-0.2c0-0.1,0-0.2,0-0.3c0-0.2-0.3-0.4-0.5-0.4c-0.2,0-0.4,0.2-0.6,0.3
		c0,0-0.1,0.1-0.2,0.1c-0.1,0-0.3-0.1-0.3-0.2c-0.1-0.1-0.1-0.3-0.2-0.4c-0.1-0.2-0.3-0.3-0.5-0.3c-0.2,0-0.4,0.1-0.5,0.3
		c0,0.1,0,0.1-0.1,0.2c-0.1,0-0.1,0.1-0.2,0.1c-0.3,0-0.5,0.1-0.7,0.3c-0.2,0.2-0.2,0.6,0.1,0.7c0.1,0.1,0.4,0.1,0.4,0.3
		c0,0.1-0.1,0.2-0.2,0.3c-0.1,0-0.3,0-0.4,0.1c-0.3,0.1-0.4,0.4-0.3,0.7C57.3,20.1,57.5,20.3,57.7,20.5z"/>
	<path fill="#E77528" d="M64,34.3c0.1-0.3,0.1-0.7-0.1-0.9c-0.1-0.1-0.1-0.1-0.2-0.2c0-0.1,0-0.2,0-0.3c0-0.2-0.3-0.4-0.5-0.4
		c-0.2,0-0.4,0.2-0.6,0.3c0,0-0.1,0.1-0.2,0.1c-0.1,0-0.3-0.1-0.3-0.2c-0.1-0.1-0.1-0.3-0.2-0.4c-0.1-0.2-0.3-0.3-0.5-0.3
		c-0.2,0-0.4,0.1-0.5,0.3c0,0.1,0,0.1-0.1,0.2c-0.1,0-0.1,0.1-0.2,0.1c-0.3,0-0.5,0.1-0.7,0.3c-0.2,0.2-0.2,0.6,0.1,0.7
		c0.1,0.1,0.4,0.1,0.4,0.3c0,0.1-0.1,0.2-0.2,0.3s-0.3,0-0.4,0.1c-0.3,0.1-0.4,0.4-0.3,0.7s0.3,0.5,0.5,0.6c0,0,0.1,0.1,0.1,0.1
		c0,0,0,0.1,0,0.2c0,0.3,0.2,0.8,0.5,0.8c0.4,0,0.6-0.5,0.9-0.7c0.1,0.4,0.7,0.9,1.1,0.9c0.3,0,0.3-0.6,0.5-0.8
		c0.2-0.2,0.6,0,0.7-0.3c0.1-0.3-0.3-0.7-0.5-0.9C63.6,34.9,63.9,34.6,64,34.3z"/>
	<path fill="#E77528" d="M49.9,41.2c0-0.1,0-0.2,0-0.3c0-0.2-0.3-0.4-0.5-0.4c-0.2,0-0.4,0.2-0.6,0.3c0,0-0.1,0.1-0.2,0.1
		c-0.1,0-0.3-0.1-0.3-0.2c-0.1-0.1-0.1-0.3-0.2-0.4C48,40.1,47.8,40,47.6,40c-0.2,0-0.4,0.1-0.5,0.3c0,0.1,0,0.1-0.1,0.2
		c-0.1,0-0.1,0.1-0.2,0.1c-0.3,0-0.5,0.1-0.7,0.3C46,41,46,41.4,46.2,41.5c0.1,0.1,0.4,0.1,0.4,0.3c0,0.1-0.1,0.2-0.2,0.3
		c-0.1,0-0.3,0-0.4,0.1c-0.3,0.1-0.4,0.4-0.3,0.7c0.1,0.3,0.3,0.5,0.5,0.6c0,0,0.1,0.1,0.1,0.1c0,0,0,0.1,0,0.2
		c0,0.3,0.2,0.8,0.5,0.8c0.4,0,0.6-0.5,0.9-0.7c0.1,0.4,0.7,0.9,1.1,0.9c0.3,0,0.3-0.6,0.5-0.8c0.2-0.2,0.6,0,0.7-0.3
		c0.1-0.3-0.3-0.7-0.5-0.9c0.3-0.1,0.6-0.3,0.7-0.6c0.1-0.3,0.1-0.7-0.1-0.9C50,41.3,49.9,41.2,49.9,41.2z"/>
	<path fill="#E77528" d="M55.3,36.3c0-0.1,0-0.2,0-0.3c0-0.2-0.3-0.4-0.5-0.4c-0.2,0-0.4,0.2-0.6,0.3c0,0-0.1,0.1-0.2,0.1
		c-0.1,0-0.3-0.1-0.3-0.2c-0.1-0.1-0.1-0.3-0.2-0.4c-0.1-0.2-0.3-0.3-0.5-0.3c-0.2,0-0.4,0.1-0.5,0.3c0,0.1,0,0.1-0.1,0.2
		c-0.1,0-0.1,0.1-0.2,0.1c-0.3,0-0.5,0.1-0.7,0.3c-0.2,0.2-0.2,0.6,0.1,0.7c0.1,0.1,0.4,0.1,0.4,0.3c0,0.1-0.1,0.2-0.2,0.3
		c-0.1,0-0.3,0-0.4,0.1c-0.3,0.1-0.4,0.4-0.3,0.7s0.3,0.5,0.5,0.6c0,0,0.1,0.1,0.1,0.1c0,0,0,0.1,0,0.2c0,0.3,0.2,0.8,0.5,0.8
		c0.4,0,0.6-0.5,0.9-0.7c0.1,0.4,0.7,0.9,1.1,0.9c0.3,0,0.3-0.6,0.5-0.8c0.2-0.2,0.6,0,0.7-0.3c0.1-0.3-0.3-0.7-0.5-0.9
		c0.3-0.1,0.6-0.3,0.7-0.6c0.1-0.3,0.1-0.7-0.1-0.9C55.4,36.5,55.4,36.4,55.3,36.3z"/>
	<path fill="#E77528" d="M25.4,14.4c0,0,0.1,0.1,0.1,0.1c0,0,0,0.1,0,0.2c0,0.3,0.2,0.8,0.5,0.8c0.4,0,0.6-0.5,0.9-0.7
		c0.1,0.4,0.7,0.9,1.1,0.9c0.3,0,0.3-0.6,0.5-0.8c0.2-0.2,0.6,0,0.7-0.3c0.1-0.3-0.3-0.7-0.5-0.9c0.3-0.1,0.6-0.3,0.7-0.6
		c0.1-0.3,0.1-0.7-0.1-0.9c-0.1-0.1-0.1-0.1-0.2-0.2c0-0.1,0-0.2,0-0.3c0-0.2-0.3-0.4-0.5-0.4c-0.2,0-0.4,0.2-0.6,0.3
		c0,0-0.1,0.1-0.2,0.1c-0.1,0-0.3-0.1-0.3-0.2c-0.1-0.1-0.1-0.3-0.2-0.4c-0.1-0.2-0.3-0.3-0.5-0.3c-0.2,0-0.4,0.1-0.5,0.3
		c0,0.1,0,0.1-0.1,0.2c-0.1,0-0.1,0.1-0.2,0.1c-0.3,0-0.5,0.1-0.7,0.3c-0.2,0.2-0.2,0.6,0.1,0.7c0.1,0.1,0.4,0.1,0.4,0.3
		c0,0.1-0.1,0.2-0.2,0.3c-0.1,0-0.3,0-0.4,0.1c-0.3,0.1-0.4,0.4-0.3,0.7C25,14,25.2,14.2,25.4,14.4z"/>
	<path fill="#E77528" d="M43.6,11.7c-0.1,0-0.3-0.1-0.3-0.2c-0.1-0.1-0.1-0.3-0.2-0.4c-0.1-0.2-0.3-0.3-0.5-0.3
		c-0.2,0-0.4,0.1-0.5,0.3c0,0.1,0,0.1-0.1,0.2c-0.1,0-0.1,0.1-0.2,0.1c-0.3,0-0.5,0.1-0.7,0.3c-0.2,0.2-0.2,0.6,0.1,0.7
		c0.1,0.1,0.4,0.1,0.4,0.3c0,0.1-0.1,0.2-0.2,0.3c-0.1,0-0.3,0-0.4,0.1c-0.3,0.1-0.4,0.4-0.3,0.7c0.1,0.3,0.3,0.5,0.5,0.6
		c0,0,0.1,0.1,0.1,0.1c0,0,0,0.1,0,0.2c0,0.3,0.2,0.8,0.5,0.8c0.4,0,0.6-0.5,0.9-0.7c0.1,0.4,0.7,0.9,1.1,0.9c0.3,0,0.3-0.6,0.5-0.8
		c0.2-0.2,0.6,0,0.7-0.3c0.1-0.3-0.3-0.7-0.5-0.9c0.3-0.1,0.6-0.3,0.7-0.6c0.1-0.3,0.1-0.7-0.1-0.9c-0.1-0.1-0.1-0.1-0.2-0.2
		c0-0.1,0-0.2,0-0.3c0-0.2-0.3-0.4-0.5-0.4c-0.2,0-0.4,0.2-0.6,0.3C43.7,11.6,43.6,11.7,43.6,11.7z"/>
	<path fill="#E77528" d="M40.1,6.9c0,0,0.1,0.1,0.1,0.1c0,0,0,0.1,0,0.2c0,0.3,0.2,0.8,0.5,0.8c0.4,0,0.6-0.5,0.9-0.7
		c0.1,0.4,0.7,0.9,1.1,0.9c0.3,0,0.3-0.6,0.5-0.8c0.2-0.2,0.6,0,0.7-0.3c0.1-0.3-0.3-0.7-0.5-0.9c0.3-0.1,0.6-0.3,0.7-0.6
		c0.1-0.3,0.1-0.7-0.1-0.9c-0.1-0.1-0.1-0.1-0.2-0.2c0-0.1,0-0.2,0-0.3c0-0.2-0.3-0.4-0.5-0.4c-0.2,0-0.4,0.2-0.6,0.3
		c0,0-0.1,0.1-0.2,0.1c-0.1,0-0.3-0.1-0.3-0.2c-0.1-0.1-0.1-0.3-0.2-0.4c-0.1-0.2-0.3-0.3-0.5-0.3c-0.2,0-0.4,0.1-0.5,0.3
		c0,0.1,0,0.1-0.1,0.2c-0.1,0-0.1,0.1-0.2,0.1c-0.3,0-0.5,0.1-0.7,0.3c-0.2,0.2-0.2,0.6,0.1,0.7C40.3,5,40.5,5,40.6,5.2
		c0,0.1-0.1,0.2-0.2,0.3c-0.1,0-0.3,0-0.4,0.1c-0.3,0.1-0.4,0.4-0.3,0.7C39.7,6.5,39.9,6.7,40.1,6.9z"/>
	<path fill="#E77528" d="M20.5,28c0.1-0.3,0.1-0.7-0.1-0.9c-0.1-0.1-0.1-0.1-0.2-0.2c0-0.1,0-0.2,0-0.3c0-0.2-0.3-0.4-0.5-0.4
		c-0.2,0-0.4,0.2-0.6,0.3c0,0-0.1,0.1-0.2,0.1c-0.1,0-0.3-0.1-0.3-0.2c-0.1-0.1-0.1-0.3-0.2-0.4c-0.1-0.2-0.3-0.3-0.5-0.3
		c-0.2,0-0.4,0.1-0.5,0.3c0,0.1,0,0.1-0.1,0.2c-0.1,0-0.1,0.1-0.2,0.1c-0.3,0-0.5,0.1-0.7,0.3c-0.2,0.2-0.2,0.6,0.1,0.7
		c0.1,0.1,0.4,0.1,0.4,0.3c0,0.1-0.1,0.2-0.2,0.3c-0.1,0-0.3,0-0.4,0.1c-0.3,0.1-0.4,0.4-0.3,0.7c0.1,0.3,0.3,0.5,0.5,0.6
		c0,0,0.1,0.1,0.1,0.1c0,0,0,0.1,0,0.2c0,0.3,0.2,0.8,0.5,0.8c0.4,0,0.6-0.5,0.9-0.7c0.1,0.4,0.7,0.9,1.1,0.9c0.3,0,0.3-0.6,0.5-0.8
		c0.2-0.2,0.6,0,0.7-0.3c0.1-0.3-0.3-0.7-0.5-0.9C20,28.5,20.3,28.3,20.5,28z"/>
	<path fill="#E77528" d="M11.5,31.1c0.2-0.2,0.6,0,0.7-0.3c0.1-0.3-0.3-0.7-0.5-0.9c0.3-0.1,0.6-0.3,0.7-0.6
		c0.1-0.3,0.1-0.7-0.1-0.9c-0.1-0.1-0.1-0.1-0.2-0.2c0-0.1,0-0.2,0-0.3c0-0.2-0.3-0.4-0.5-0.4c-0.2,0-0.4,0.2-0.6,0.3
		c0,0-0.1,0.1-0.2,0.1c-0.1,0-0.3-0.1-0.3-0.2c-0.1-0.1-0.1-0.3-0.2-0.4c-0.1-0.2-0.3-0.3-0.5-0.3c-0.2,0-0.4,0.1-0.5,0.3
		c0,0.1,0,0.1-0.1,0.2c-0.1,0-0.1,0.1-0.2,0.1c-0.3,0-0.5,0.1-0.7,0.3c-0.2,0.2-0.2,0.6,0.1,0.7c0.1,0.1,0.4,0.1,0.4,0.3
		c0,0.1-0.1,0.2-0.2,0.3c-0.1,0-0.3,0-0.4,0.1c-0.3,0.1-0.4,0.4-0.3,0.7c0.1,0.3,0.3,0.5,0.5,0.6c0,0,0.1,0.1,0.1,0.1
		c0,0,0,0.1,0,0.2c0,0.3,0.2,0.8,0.5,0.8c0.4,0,0.6-0.5,0.9-0.7c0.1,0.4,0.7,0.9,1.1,0.9C11.3,31.9,11.3,31.3,11.5,31.1z"/>
	<path fill="#4DA0D8" d="M58.8,25.4c-0.1-0.2,0-0.5,0-0.7c-0.1-0.5-0.6-0.8-1.1-0.8c-0.5,0-0.9,0.3-1.3,0.7
		c-0.1,0.1-0.2,0.2-0.3,0.2c-0.3,0.1-0.6-0.1-0.7-0.4c-0.2-0.3-0.2-0.6-0.4-0.8c-0.2-0.4-0.6-0.7-1-0.7c-0.4,0-0.9,0.2-1,0.6
		c-0.1,0.1-0.1,0.3-0.2,0.4c-0.1,0.1-0.3,0.1-0.4,0.1c-0.6,0-1.2,0.2-1.5,0.7c-0.4,0.5-0.3,1.2,0.1,1.5c0.3,0.2,0.8,0.3,0.8,0.7
		c0,0.3-0.2,0.5-0.5,0.6c-0.3,0.1-0.6,0.1-0.8,0.2c-0.5,0.2-0.8,0.9-0.6,1.5c0.1,0.4,0.4,0.8,0.7,1.1c-0.5,0.2-1,0.4-1.6,0.7
		c0-0.1-0.1-0.2-0.1-0.2c-0.1-0.1-0.2-0.2-0.2-0.3c-0.1-0.2,0-0.3,0-0.5c0-0.4-0.5-0.6-0.8-0.6c-0.4,0-0.7,0.3-1,0.5
		c-0.1,0.1-0.2,0.1-0.2,0.2c-0.2,0.1-0.4-0.1-0.5-0.3c-0.1-0.2-0.2-0.4-0.3-0.6c-0.2-0.3-0.4-0.5-0.8-0.5c-0.3,0-0.7,0.2-0.8,0.5
		c0,0.1-0.1,0.2-0.1,0.3c-0.1,0.1-0.2,0.1-0.3,0.1c-0.3,0-0.5,0.1-0.8,0.2c1.6-3.2,3.4-8.2,2.5-12.8c0,0-7.5,17.7-13.1,23.5
		c0,0-5.9-6.1-6.9-15.1c0,0,0-0.2-0.1-0.5c0.2-0.2,0.4-0.4,0.6-0.6c0.2,0.6,1.1,1.4,1.7,1.5c0.4,0,0.4-0.9,0.7-1.2
		c0.4-0.3,1-0.1,1.1-0.5c0.1-0.5-0.5-1-0.8-1.4c0.5-0.1,0.9-0.5,1.2-0.9c0.2-0.5,0.2-1.1-0.2-1.5c-0.1-0.1-0.2-0.2-0.2-0.3
		c-0.1-0.2,0-0.3,0-0.5c0-0.4-0.5-0.6-0.8-0.6c-0.4,0-0.7,0.3-1,0.5c-0.1,0.1-0.2,0.1-0.2,0.2c-0.2,0.1-0.4-0.1-0.5-0.3
		c-0.1-0.2-0.2-0.4-0.3-0.6c-0.2-0.3-0.4-0.5-0.8-0.5c-0.3,0-0.7,0.2-0.8,0.5c0,0.1-0.1,0.2-0.1,0.3c-0.1,0.1-0.2,0.1-0.3,0.1
		c-0.4,0-0.9,0.2-1.1,0.5c-0.3,0.3-0.3,0.9,0.1,1.1c0.2,0.2,0.6,0.2,0.6,0.5c0,0.2-0.2,0.4-0.4,0.5c-0.2,0.1-0.4,0.1-0.6,0.1
		c-0.4,0.2-0.6,0.7-0.5,1.1c0.1,0.3,0.2,0.5,0.4,0.7c0,0.2-0.1,0.4-0.1,0.6c0,0-0.4,12.8,7.8,18.4c0,0-3.9-1.3-6.2-3
		c0.2-0.2,0.3-0.4,0.4-0.6c0.3-0.6,0.2-1.4-0.2-2c-0.1-0.1-0.3-0.3-0.3-0.5c-0.1-0.2,0-0.5,0-0.7c-0.1-0.5-0.6-0.8-1.1-0.8
		S22,34.7,21.7,35c-0.1,0.1-0.2,0.2-0.3,0.2c-0.3,0.1-0.6-0.1-0.7-0.4c-0.2-0.3-0.2-0.6-0.4-0.8c-0.2-0.4-0.6-0.7-1-0.7
		c-0.1,0-0.3,0-0.4,0.1c0,0-0.1,0-0.1,0c-0.5,0-0.9,0.3-1.3,0.7c-0.1,0.1-0.2,0.2-0.3,0.2c-0.3,0.1-0.6-0.1-0.7-0.4
		c-0.2-0.3-0.2-0.6-0.4-0.8c-0.2-0.4-0.6-0.7-1-0.7c-0.4,0-0.9,0.2-1,0.6c-0.1,0.1-0.1,0.3-0.2,0.4c-0.1,0.1-0.3,0.1-0.4,0.1
		c-0.6,0-1.2,0.2-1.5,0.7c-0.4,0.5-0.3,1.2,0.1,1.5c0.3,0.2,0.8,0.3,0.8,0.7c0,0.3-0.2,0.5-0.5,0.6c-0.3,0.1-0.6,0.1-0.8,0.2
		c-0.5,0.2-0.8,0.9-0.6,1.5c0.1,0.6,0.6,1,1.1,1.4c0.1,0.1,0.2,0.1,0.3,0.2c0.1,0.1,0.1,0.2,0.1,0.3c0.1,0.7,0.3,1.6,1.1,1.7
		c0.8,0.1,1.2-1,1.9-1.4c0.2,0.7,0.9,1.4,1.7,1.8c0.2,0.3,0.4,0.6,0.8,0.6c0.8,0.1,1.2-1,1.9-1.4c0.3,0.9,1.5,1.9,2.4,2
		c0.5,0.1,0.6-1.3,1-1.7c0.5-0.5,1.4-0.1,1.6-0.7c0-0.1,0-0.1,0-0.2c1.5,1.2,4,2.6,6.9,2.4c0,0-5.2,22.6-5.1,27.8h10.2
		c0,0-3.3-25.4-2-29.8c0,0,0.2-0.2,0.6-0.6c0.2,0.3,0.4,0.5,0.6,0.7c0.1,0.1,0.1,0.1,0.2,0.2c0,0.1,0.1,0.2,0.1,0.3
		c0.1,0.5,0.3,1.2,0.8,1.3c0.6,0.1,0.9-0.7,1.4-1c0.2,0.6,1.1,1.4,1.7,1.5c0.4,0,0.4-0.9,0.7-1.2c0.4-0.3,1-0.1,1.1-0.5
		c0.1-0.5-0.5-1-0.8-1.4c0.5-0.1,0.9-0.5,1.2-0.9c0.2-0.5,0.2-1.1-0.2-1.5c-0.1-0.1-0.2-0.2-0.2-0.3c-0.1-0.2,0-0.3,0-0.5
		c0-0.4-0.5-0.6-0.8-0.6c-0.4,0-0.7,0.3-1,0.5c-0.1,0.1-0.2,0.1-0.2,0.2c-0.2,0.1-0.4-0.1-0.5-0.3c-0.1-0.2-0.2-0.4-0.2-0.5
		c0.5-0.7,0.9-1.3,1-1.8c0,0,1.3-0.1,3.1-0.3c0.1,0.5,0.3,1.2,0.8,1.2c0.6,0.1,0.9-0.7,1.4-1c0.2,0.6,1.1,1.4,1.7,1.5
		c0.4,0,0.4-0.9,0.7-1.2c0.4-0.3,1-0.1,1.1-0.5c0.1-0.3-0.2-0.7-0.5-1c1.2-0.4,2.3-0.9,3.2-1.5c0.2,0.5,0.4,0.8,0.9,0.9
		c0.8,0.1,1.2-1,1.9-1.4c0.3,0.9,1.5,1.9,2.4,2c0.5,0.1,0.6-1.3,1-1.7c0.5-0.5,1.4-0.1,1.6-0.7c0.2-0.7-0.7-1.4-1.1-1.9
		c0.7-0.2,1.3-0.6,1.6-1.3c0.3-0.6,0.2-1.4-0.2-2C59,25.7,58.8,25.5,58.8,25.4z M42.2,30.5c0,0.2,0.1,0.3,0.3,0.4
		c0.2,0.2,0.6,0.2,0.6,0.5c0,0.2-0.2,0.4-0.4,0.5c-0.2,0.1-0.4,0.1-0.6,0.1c-0.3,0.1-0.4,0.4-0.5,0.6c-0.2,0-0.5,0.1-0.7,0.1
		C40.9,32.7,41.4,31.9,42.2,30.5z"/>
	<path fill="#E77528" d="M13.6,19.8c0.1,0.1,0.2,0.1,0.3,0.2c0.1,0.1,0.1,0.2,0.1,0.3c0.1,0.7,0.3,1.6,1.1,1.7
		c0.8,0.1,1.2-1,1.9-1.4c0.3,0.9,1.5,1.9,2.4,2c0.5,0.1,0.6-1.3,1-1.7c0.5-0.5,1.4-0.1,1.6-0.7c0.2-0.7-0.7-1.4-1.1-1.9
		c0.7-0.2,1.3-0.6,1.6-1.3c0.3-0.6,0.2-1.4-0.2-2c-0.1-0.1-0.3-0.3-0.3-0.5c-0.1-0.2,0-0.5,0-0.7c-0.1-0.5-0.6-0.8-1.1-0.8
		c-0.5,0-0.9,0.3-1.3,0.7C19.1,13.9,19,14,18.8,14c-0.3,0.1-0.6-0.1-0.7-0.4c-0.2-0.3-0.2-0.6-0.4-0.8c-0.2-0.4-0.6-0.7-1-0.7
		c-0.4,0-0.9,0.2-1,0.6c-0.1,0.1-0.1,0.3-0.2,0.4c-0.1,0.1-0.3,0.1-0.4,0.1c-0.6,0-1.2,0.2-1.5,0.7c-0.4,0.5-0.3,1.2,0.1,1.5
		c0.3,0.2,0.8,0.3,0.8,0.7c0,0.3-0.2,0.5-0.5,0.6c-0.3,0.1-0.6,0.1-0.8,0.2c-0.5,0.2-0.8,0.9-0.6,1.5C12.7,19,13.1,19.5,13.6,19.8z"
		/>
	<path fill="#E77528" d="M29.5,8.2c0.1,0.1,0.2,0.1,0.3,0.2c0.1,0.1,0.1,0.2,0.1,0.3c0.1,0.7,0.3,1.6,1.1,1.7c0.8,0.1,1.2-1,1.9-1.4
		c0.3,0.9,1.5,1.9,2.4,2c0.5,0.1,0.6-1.3,1-1.7c0.5-0.5,1.4-0.1,1.6-0.7C37.8,8,37,7.3,36.6,6.7c0.7-0.2,1.3-0.6,1.6-1.3
		c0.3-0.6,0.2-1.4-0.2-2c-0.1-0.1-0.3-0.3-0.3-0.5c-0.1-0.2,0-0.5,0-0.7c-0.1-0.5-0.6-0.8-1.1-0.8c-0.5,0-0.9,0.3-1.3,0.7
		c-0.1,0.1-0.2,0.2-0.3,0.2C34.4,2.5,34.1,2.3,34,2c-0.2-0.3-0.2-0.6-0.4-0.8c-0.2-0.4-0.6-0.7-1-0.7c-0.4,0-0.9,0.2-1,0.6
		c-0.1,0.1-0.1,0.3-0.2,0.4c-0.1,0.1-0.3,0.1-0.4,0.1c-0.6,0-1.2,0.2-1.5,0.7C29,2.7,29,3.5,29.5,3.8c0.3,0.2,0.8,0.3,0.8,0.7
		c0,0.3-0.2,0.5-0.5,0.6c-0.3,0.1-0.6,0.1-0.8,0.2c-0.5,0.2-0.8,0.9-0.6,1.5C28.6,7.4,29,7.8,29.5,8.2z"/>
</g>
</svg>
