<?xml version="1.0" encoding="utf-8"?>
<!-- Generator: Adobe Illustrator 18.0.0, SVG Export Plug-In . SVG Version: 6.00 Build 0)  -->
<!DOCTYPE svg PUBLIC "-//W3C//DTD SVG 1.1//EN" "http://www.w3.org/Graphics/SVG/1.1/DTD/svg11.dtd">
<svg version="1.1" id="Layer_1" xmlns="http://www.w3.org/2000/svg" xmlns:xlink="http://www.w3.org/1999/xlink" x="0px" y="0px"
	 viewBox="0 0 72 72" enable-background="new 0 0 72 72" xml:space="preserve">
<g>
	<path fill="#F04B36" d="M49.3,55.2c-0.1-0.2,0-0.3,0-0.5c0-0.3-0.4-0.6-0.8-0.5c-0.3,0-0.7,0.2-0.9,0.5c-0.1,0.1-0.1,0.1-0.2,0.1
		c-0.2,0.1-0.4-0.1-0.5-0.3c-0.1-0.2-0.2-0.4-0.3-0.6c-0.1-0.3-0.4-0.5-0.7-0.5c-0.3,0-0.6,0.1-0.7,0.4c0,0.1-0.1,0.2-0.1,0.3
		c-0.1,0.1-0.2,0.1-0.3,0.1c-0.4,0-0.8,0.2-1.1,0.5c-0.2,0.3-0.2,0.8,0.1,1.1c0.2,0.2,0.5,0.2,0.6,0.5c0,0.2-0.2,0.4-0.3,0.4
		c-0.2,0.1-0.4,0.1-0.6,0.1c-0.4,0.2-0.5,0.6-0.4,1c0.1,0.4,0.4,0.7,0.7,1c0.1,0,0.1,0.1,0.2,0.2c0,0.1,0.1,0.2,0.1,0.2
		c0.1,0.5,0.2,1.1,0.7,1.2c0.6,0.1,0.8-0.7,1.3-1c0.2,0.6,1,1.3,1.6,1.4c0.4,0,0.4-0.9,0.7-1.1c0.3-0.3,1,0,1.1-0.5
		c0.1-0.5-0.5-1-0.8-1.3c0.5-0.1,0.9-0.4,1.1-0.9c0.2-0.4,0.1-1-0.2-1.4C49.5,55.4,49.4,55.3,49.3,55.2z"/>
	<path fill="#F04B36" d="M59.9,55.9c0-0.2,0.1-0.3,0.1-0.5c0-0.3-0.3-0.7-0.6-0.7c-0.3-0.1-0.7,0.1-1,0.2c-0.1,0-0.2,0.1-0.3,0.1
		c-0.2,0-0.4-0.2-0.4-0.4c-0.1-0.2-0.1-0.4-0.1-0.6c-0.1-0.3-0.3-0.6-0.6-0.7c-0.3-0.1-0.6,0-0.8,0.2c-0.1,0.1-0.1,0.2-0.2,0.2
		c-0.1,0.1-0.2,0-0.3,0c-0.4-0.1-0.8-0.1-1.1,0.2c-0.3,0.2-0.4,0.8-0.2,1.1c0.2,0.2,0.5,0.3,0.4,0.6c0,0.2-0.2,0.3-0.4,0.3
		c-0.2,0-0.4-0.1-0.6,0c-0.4,0.1-0.7,0.5-0.7,0.9c0,0.4,0.2,0.8,0.5,1.1c0.1,0.1,0.1,0.1,0.1,0.2c0,0.1,0,0.2,0,0.2
		c-0.1,0.5-0.1,1.1,0.4,1.3c0.5,0.2,1-0.5,1.5-0.6c0,0.6,0.6,1.5,1.2,1.7c0.4,0.1,0.6-0.7,0.9-0.9c0.4-0.2,0.9,0.2,1.2-0.2
		c0.2-0.4-0.2-1.1-0.4-1.5c0.5,0,1-0.2,1.3-0.6c0.3-0.4,0.4-0.9,0.2-1.4C59.9,56.2,59.9,56,59.9,55.9z"/>
	<path fill="#F04B36" d="M26.8,60.6c-0.1-0.2,0-0.3,0-0.5c0-0.3-0.4-0.6-0.8-0.5c-0.3,0-0.7,0.2-0.9,0.5c-0.1,0.1-0.1,0.1-0.2,0.1
		c-0.2,0.1-0.4-0.1-0.5-0.3c-0.1-0.2-0.2-0.4-0.3-0.6c-0.1-0.3-0.4-0.5-0.7-0.5c-0.3,0-0.6,0.1-0.7,0.4c0,0.1-0.1,0.2-0.1,0.3
		c-0.1,0.1-0.2,0.1-0.3,0.1c-0.4,0-0.8,0.2-1.1,0.5c-0.2,0.3-0.2,0.8,0.1,1.1c0.2,0.1,0.5,0.2,0.6,0.5c0,0.2-0.2,0.4-0.3,0.4
		c-0.2,0.1-0.4,0.1-0.6,0.1c-0.4,0.2-0.5,0.6-0.4,1c0.1,0.4,0.4,0.7,0.7,1c0.1,0,0.1,0.1,0.2,0.2c0,0.1,0.1,0.2,0.1,0.2
		c0.1,0.5,0.2,1.1,0.7,1.2c0.6,0.1,0.8-0.7,1.3-1c0.2,0.6,1,1.3,1.6,1.4c0.4,0,0.4-0.9,0.7-1.1c0.3-0.3,1,0,1.1-0.5
		c0.1-0.5-0.5-1-0.8-1.3c0.5-0.1,0.9-0.4,1.1-0.9c0.2-0.4,0.1-1-0.2-1.4C27,60.8,26.9,60.7,26.8,60.6z"/>
	<path fill="#F04B36" d="M16.6,62c-0.1-0.2,0-0.3,0-0.5c0-0.3-0.4-0.6-0.8-0.5c-0.3,0-0.7,0.2-0.9,0.5c-0.1,0.1-0.1,0.1-0.2,0.1
		c-0.2,0.1-0.4-0.1-0.5-0.3s-0.2-0.4-0.3-0.6c-0.1-0.3-0.4-0.5-0.7-0.5c-0.3,0-0.6,0.1-0.7,0.4c0,0.1-0.1,0.2-0.1,0.3
		C12.3,61,12.1,61,12,61c-0.4,0-0.8,0.2-1.1,0.5c-0.2,0.3-0.2,0.8,0.1,1.1c0.2,0.2,0.5,0.2,0.6,0.5c0,0.2-0.2,0.4-0.3,0.4
		c-0.2,0.1-0.4,0.1-0.6,0.1c-0.4,0.2-0.5,0.6-0.4,1c0.1,0.4,0.4,0.7,0.7,1c0.1,0,0.1,0.1,0.2,0.2c0,0.1,0.1,0.2,0.1,0.2
		c0.1,0.5,0.2,1.1,0.7,1.2c0.6,0.1,0.8-0.7,1.3-1c0.2,0.6,1,1.3,1.6,1.4c0.4,0,0.4-0.9,0.7-1.1c0.3-0.3,1,0,1.1-0.5
		c0.1-0.5-0.5-1-0.8-1.3c0.5-0.1,0.9-0.4,1.1-0.9c0.2-0.4,0.1-1-0.2-1.4C16.8,62.2,16.7,62.1,16.6,62z"/>
	<path fill="#F04B36" d="M21.5,52.1c0-0.2,0.1-0.4,0-0.6c-0.1-0.3-0.3-0.4-0.5-0.6c-0.5-0.3-1.1-0.7-1.7-0.7c-0.2,0-0.5,0.1-0.7,0.1
		c-1,0.1-1.9-0.6-2.7-1.2c0.4,0.5,0.6,1.2,0.5,1.8c-0.1,0.8-0.7,1.6-0.8,2.4c0,0.6,0.3,1.2,0.7,1.6c0.5,0.4,1.2,0.5,1.8,0.3
		c0.5-0.1,0.8-0.4,1.3-0.6c0.4-0.2,1-0.2,1.4-0.1C21,53.9,21.3,53,21.5,52.1z"/>
	<path fill="#F04B36" d="M48.6,64.9c-0.5-0.3-1.1-0.7-1.7-0.7c-0.2,0-0.5,0.1-0.7,0.1c-1,0.1-1.9-0.6-2.7-1.2
		c0.4,0.5,0.6,1.2,0.5,1.8c-0.1,0.8-0.7,1.6-0.8,2.4c0,0.6,0.3,1.2,0.7,1.6c0.5,0.4,1.2,0.5,1.8,0.3c0.5-0.1,0.8-0.4,1.3-0.6
		c0.4-0.2,1-0.2,1.4-0.1c0.2-0.9,0.4-1.8,0.7-2.6c0-0.2,0.1-0.4,0-0.6C49.1,65.2,48.9,65,48.6,64.9z"/>
	<path fill="#F04B36" d="M67,61.7c-0.5-0.3-1.1-0.7-1.7-0.7c-0.2,0-0.5,0.1-0.7,0.1c-1,0.1-1.9-0.6-2.7-1.2c0.4,0.5,0.6,1.2,0.5,1.8
		c-0.1,0.8-0.7,1.6-0.8,2.4c0,0.6,0.3,1.2,0.7,1.6c0.5,0.4,1.2,0.5,1.8,0.3c0.5-0.1,0.8-0.4,1.3-0.6c0.4-0.2,1-0.2,1.4-0.1
		c0.2-0.9,0.4-1.8,0.7-2.6c0-0.2,0.1-0.4,0-0.6C67.5,62,67.2,61.9,67,61.7z"/>
	<path fill="#E77528" d="M34,45.9c-1.5-0.2-3.3-0.4-4.5,0.5c-0.4,0.3-0.7,0.6-0.9,1c0.1,0,0.1-0.1,0.2-0.1c4.2,1.5,7.2,3.7,6.2,7.1
		c0,0-0.1,14.4-1.6,17.1h6.3c0,0,3.4-11.7-0.3-24.3c-0.5-0.3-1-0.4-1.5-0.5C36.6,46.4,35.3,46.1,34,45.9z"/>
	<path fill="#06728D" d="M67.8,25.5c-0.5-0.3-1-0.4-1.3-0.9c-0.7-1,0.4-2.3,1.3-3.1c2-1.8,3.5-4.6,2.7-7.1c-0.5-1.6-1.9-2.7-3.4-3.5
		c-5.7-2.8-12.4-0.5-18.6,0.8c-2,0.4-4.2,0.7-5.8-0.6c-0.8-0.6-1.3-1.5-1.8-2.4c-3.2-5-9.1-8.2-15-8.3c-1.1,0-2.3,0.1-3.4,0.4
		c-3.7,1.1-6,5-6.4,8.8c-0.4,3.8,0.8,7.6,2.4,11.1c-2.9-2.1-6.7-2.6-10.1-1.4c-3.3,1.2-5.9,4.1-6.8,7.5c-0.6,2.2-0.4,4.7,0.8,6.7
		c2.4,4.2,7.9,5.2,12.6,5.7c1.1,0.1,2.4,0.2,3.2-0.5c0,1.4,0,2.8,0.4,4.1c-1.1,0-2.2,0.1-3.2,0.4c0.2-0.4,0.1-1-0.2-1.3
		c-0.1-0.1-0.2-0.2-0.2-0.3c-0.1-0.2,0-0.3,0-0.5c0-0.3-0.4-0.6-0.8-0.5c-0.3,0-0.7,0.2-0.9,0.5c-0.1,0.1-0.1,0.1-0.2,0.1
		c-0.2,0.1-0.4-0.1-0.5-0.3c-0.1-0.2-0.2-0.4-0.3-0.6c-0.1-0.3-0.4-0.5-0.7-0.5c-0.3,0-0.6,0.1-0.7,0.4c0,0.1-0.1,0.2-0.1,0.3
		c-0.1,0.1-0.2,0.1-0.3,0.1c-0.4,0-0.8,0.2-1.1,0.5c-0.2,0.3-0.2,0.8,0.1,1.1c0.2,0.2,0.5,0.2,0.6,0.5c0,0.2-0.2,0.4-0.3,0.4
		c-0.2,0.1-0.4,0.1-0.6,0.1c-0.4,0.2-0.5,0.6-0.4,1c0.1,0.4,0.4,0.7,0.7,1c0.1,0,0.1,0.1,0.2,0.2c0,0.1,0.1,0.2,0.1,0.2
		c0.1,0.5,0.2,1.1,0.7,1.2c0.6,0.1,0.8-0.7,1.3-1c0.2,0.6,1,1.3,1.6,1.4c0.4,0,0.4-0.9,0.7-1.1c0.3-0.3,1,0,1.1-0.5
		c0.1-0.3-0.1-0.5-0.3-0.8c1.4,0.1,3.3,0.3,5.3,0.7c0.5,0.5,1.1,0.8,1.5,1.3c0.9,0.9,1.4,2.2,2.3,3.1c0.9,0.9,2.6,1.2,3.3,0.1
		c0.4-0.6,0.3-1.4,0.7-2c0.1-0.2,0.3-0.3,0.5-0.4c0.2-0.4,0.5-0.8,0.9-1c1.3-0.9,3-0.8,4.5-0.5c1.3,0.2,2.6,0.5,3.9,0.7
		c0.5,0.1,1.1,0.3,1.5,0.5c0-0.1,0-0.1,0-0.2c0.3,0.2,0.7,0.4,1,0.6c5.2,3,11.5,3.4,17.5,3c1.2-0.1,2.5-0.2,3.6-0.7
		c1-0.5,1.8-1.4,2.5-2.2c3.7-4.5,5.9-10.1,6.1-15.9C70.2,29.4,69.8,26.7,67.8,25.5z"/>
</g>
</svg>
