<?xml version="1.0" encoding="utf-8"?>
<!-- Generator: Adobe Illustrator 18.0.0, SVG Export Plug-In . SVG Version: 6.00 Build 0)  -->
<!DOCTYPE svg PUBLIC "-//W3C//DTD SVG 1.1//EN" "http://www.w3.org/Graphics/SVG/1.1/DTD/svg11.dtd">
<svg version="1.1" id="Layer_1" xmlns="http://www.w3.org/2000/svg" xmlns:xlink="http://www.w3.org/1999/xlink" x="0px" y="0px"
	 viewBox="0 0 72 72" enable-background="new 0 0 72 72" xml:space="preserve">
<g>
	<path fill="#0DB89A" d="M39.3,42.7c9.3-4.7,14.6-13.1,14.6-13.1C50.4,33.4,43.2,37,39,38.9l-0.8-10.4c6.7-3.1,11.5-8.2,13.9-11.2
		c0,0.2,0.1,0.4,0.1,0.5c0,0.1,0.1,0.2,0.2,0.3c0.1,0.1,0.2,0.1,0.4,0.2c0.9,0.2,1.9,0,2.6-0.6c0.7-0.6,1.2-1.5,1.8-2.3
		c0.3-0.3,0.6-0.7,0.8-1c0.3-0.4,0.5-0.8,0.6-1.3c0.2-0.4,0.3-0.9,0.4-1.4c0.2-0.9,0.1-1.8,0.6-2.6c-0.6,0.3-1.2,0.6-1.9,0.8
		c-1.3,0.4-2.6,0.5-3.8,0.9c-1.4,0.4-2.8,1.3-3.7,2.5c-0.4,0.5-0.7,1.1-0.7,1.8c0,0.3,0.1,0.7,0.4,0.9c0.1,0.1,0.3,0.1,0.5,0.2
		c0.6,0.1,1.1,0.2,1.7,0.3c0,0,0,0.1,0,0.1C47.9,20,41.3,23.2,38,24.7L36.1,0.5l-1,17.6c-3.7-1.2-12.4-4.3-16.4-7.6
		c0,0,5.9,7.1,16.2,10.6l-0.7,13c-3.3-1.1-9-3.2-13-5.6c0-0.1,0-0.3,0-0.4c0.5,0,0.9-0.2,1.3-0.5c0.1-0.1,0.2-0.2,0.3-0.3
		c0.1-0.1,0.1-0.3,0.1-0.4c0-0.9-0.5-1.8-1.3-2.4c-0.8-0.6-1.8-0.7-2.6-1.1c-0.4-0.2-0.8-0.4-1.2-0.5c-0.5-0.2-0.9-0.2-1.4-0.3
		c-0.5-0.1-1-0.1-1.4,0c-0.9,0.1-1.8,0.4-2.6,0.1c0.5,0.5,0.9,1,1.3,1.6c0.7,1.1,1.2,2.3,1.9,3.4c0.8,1.3,1.9,2.4,3.3,2.9
		c0.6,0.2,1.3,0.4,1.9,0.2c0.3-0.1,0.6-0.3,0.8-0.6c0.1-0.2,0.1-0.3,0-0.5c0-0.2,0-0.3,0-0.5c2.5,2.3,6.9,5.5,12.7,7.7l-0.7,13
		c-4.2-1.5-11.2-4.2-14.6-7c0,0,5.2,6.3,14.4,9.9l-1,18.5h9.4l-1-13.6c8.6-3.7,13.4-9.5,13.4-9.5c-1.1,0.9-2.6,1.8-4.3,2.7
		c0.2-0.4,0.3-0.9,0.3-1.4c0-1.8-1.4-3.2-3.2-3.2c-1.8,0-3.2,1.4-3.2,3.2c0,1.5,1,2.8,2.5,3.1c-2,0.9-4,1.7-5.7,2.3L39.3,42.7z"/>
	<path fill="#E8B944" d="M59.5,24.4c-0.1-0.2-0.3-0.3-0.4-0.5c-0.6-0.8-0.4-1.8-0.3-2.7c-0.2,0.6-0.7,1-1.2,1.3
		c-0.7,0.3-1.6,0.1-2.3,0.5c-0.5,0.3-0.9,0.8-1,1.4s0.1,1.2,0.6,1.6c0.3,0.3,0.8,0.5,1.1,0.8c0.3,0.3,0.6,0.7,0.7,1.1
		c0.8-0.2,1.6-0.5,2.4-0.7c0.2,0,0.3-0.1,0.5-0.2c0.2-0.2,0.2-0.5,0.2-0.7C59.8,25.5,59.8,24.9,59.5,24.4z"/>
	<path fill="#E8B944" d="M23.3,38.7c-0.7,0.3-1.6,0.1-2.3,0.5c-0.5,0.3-0.9,0.8-1,1.4c-0.1,0.6,0.1,1.2,0.6,1.6
		c0.3,0.3,0.8,0.5,1.1,0.8c0.3,0.3,0.6,0.7,0.7,1.1c0.8-0.2,1.6-0.5,2.4-0.7c0.2,0,0.3-0.1,0.5-0.2c0.2-0.2,0.2-0.5,0.2-0.7
		c0-0.6,0.1-1.2-0.3-1.7c-0.1-0.2-0.3-0.3-0.4-0.5c-0.6-0.8-0.4-1.8-0.3-2.7C24.4,38,23.9,38.5,23.3,38.7z"/>
	<path fill="#E8B944" d="M26.1,28.5c0.6,0,1.2,0.1,1.7-0.2c0.2-0.1,0.3-0.3,0.5-0.4c0.8-0.5,1.8-0.4,2.7-0.3c-0.6-0.2-1-0.7-1.2-1.3
		c-0.3-0.7-0.1-1.6-0.5-2.3c-0.3-0.5-0.8-0.9-1.3-1c-0.6-0.1-1.2,0.1-1.6,0.5c-0.3,0.3-0.5,0.7-0.8,1.1c-0.3,0.3-0.7,0.6-1.1,0.7
		c0.2,0.8,0.4,1.6,0.7,2.4c0,0.2,0.1,0.3,0.2,0.5C25.6,28.5,25.9,28.5,26.1,28.5z"/>
	<path fill="#E8B944" d="M42.4,12.6c0.3,0.3,0.6,0.7,0.7,1.1c0.8-0.2,1.6-0.5,2.4-0.7c0.2,0,0.3-0.1,0.5-0.2
		c0.2-0.2,0.2-0.5,0.2-0.7c0-0.6,0.1-1.2-0.3-1.7c-0.1-0.2-0.3-0.3-0.4-0.5c-0.6-0.8-0.4-1.8-0.3-2.7c-0.2,0.6-0.7,1-1.2,1.3
		c-0.7,0.3-1.6,0.1-2.3,0.5c-0.5,0.3-0.9,0.8-1,1.4c-0.1,0.6,0.1,1.2,0.6,1.6C41.7,12.2,42.1,12.4,42.4,12.6z"/>
	<path fill="#E8B944" d="M25.7,4.5c0.3,0.7,0.2,1.6,0.6,2.3c0.3,0.5,0.8,0.8,1.4,0.9S29,7.4,29.3,7c0.3-0.3,0.4-0.8,0.7-1.1
		c0.3-0.4,0.6-0.6,1.1-0.8c-0.3-0.8-0.6-1.6-0.8-2.4c-0.1-0.2-0.1-0.3-0.3-0.5C29.8,2,29.5,2,29.3,2c-0.6,0-1.2,0-1.6,0.4
		c-0.2,0.1-0.3,0.3-0.5,0.5c-0.7,0.6-1.8,0.6-2.7,0.5C25,3.5,25.5,3.9,25.7,4.5z"/>
	<circle fill="#E8B944" cx="44" cy="32.8" r="3.2"/>
	<circle fill="#E8B944" cx="29" cy="44" r="3.2"/>
</g>
</svg>
