<?xml version="1.0" encoding="utf-8"?>
<!-- Generator: Adobe Illustrator 18.0.0, SVG Export Plug-In . SVG Version: 6.00 Build 0)  -->
<!DOCTYPE svg PUBLIC "-//W3C//DTD SVG 1.1//EN" "http://www.w3.org/Graphics/SVG/1.1/DTD/svg11.dtd">
<svg version="1.1" id="Layer_1" xmlns="http://www.w3.org/2000/svg" xmlns:xlink="http://www.w3.org/1999/xlink" x="0px" y="0px"
	 viewBox="0 0 72 72" enable-background="new 0 0 72 72" xml:space="preserve">
<g>
	<path fill="#E77528" d="M60.4,29.4c-0.2-0.6-0.9-0.8-1.5-0.8c-0.6,0-1.2,0.2-1.8,0c0.8-0.3,1.5-1,1.9-1.9c0.2-0.5,0.2-1.1-0.2-1.4
		c-0.3-0.2-0.7,0-1,0.2c-0.2,0.1-0.4,0.3-0.5,0.5c-0.3,0.5-0.2,1.2-0.5,1.8c-0.1,0.2-0.5,0.4-0.6,0.2c0-0.1,0-0.2,0-0.3
		c0-0.3-0.1-0.6-0.2-0.8c-0.2-0.4-0.4-0.8-0.8-1c-0.4-0.2-0.9-0.3-1.2,0c-0.2,0.2-0.3,0.5-0.3,0.8c-1.5,1.1-5,2.9-12.2,3.9
		c0,0,6.2-9.2,4.6-17c0,0-8,18.7-13.9,24.8c0,0-6.2-6.5-7.3-15.9c0,0-1.8-8.2-2.6-1.6c0,0-0.4,13.5,8.2,19.4c0,0-7-2.4-8.2-4.9
		c0,0-3.5-1.2,0,2.7c0,0,3.8,4.4,8.9,4c0,0-5.5,23.9-5.4,29.4h10.8c0,0-3.5-26.8-2.2-31.5c0,0,5-5.1,5.7-7.1c0,0,11.8-0.5,14.2-5.1
		c0.1,0.1,0.2,0.1,0.3,0.2c0.4,0.3,0.8,0.5,1.2,0.5c0.1,0.2,0,0.5-0.2,0.5c-0.2,0.1-0.4,0.1-0.7,0.1c-0.4,0-0.8,0.2-1.1,0.4
		c-0.1,0.1-0.9,1.1-0.6,1.4c0.1,0.1,0.2,0.2,0.4,0.3c0.4,0.2,0.9,0.2,1.3,0c0.2-0.1,0.3-0.2,0.4-0.3c0.2-0.3,0.2-0.8,0.5-1
		c0.1,0,0.1,0,0.2,0C56,29.8,56,30,56,30.2c0,0.6-0.1,1.2,0,1.8c0.2,0.6,0.8,1.1,1.3,0.9c0.2-0.1,0.4-0.3,0.6-0.4
		c0.1-0.1,0.2-0.3,0.3-0.4c0.1-0.4-0.3-0.8-0.6-1.1c-0.2-0.3-0.3-0.7-0.2-1c0.2,0,0.4,0.2,0.5,0.3c0.3,0.3,0.6,0.5,1,0.6
		c0.4,0.1,0.8,0,1.2-0.2C60.4,30.3,60.5,29.8,60.4,29.4z"/>
	<path fill="#4DA0D8" d="M53.9,16.3c-0.2,0.1-0.4,0.1-0.7,0.1c-0.4,0-0.8,0.2-1.1,0.4c-0.1,0.1-0.9,1.1-0.6,1.4
		c0.1,0.1,0.2,0.2,0.4,0.3c0.4,0.2,0.9,0.2,1.3,0c0.2-0.1,0.3-0.2,0.4-0.3c0.2-0.3,0.2-0.8,0.5-1c0.1,0,0.1,0,0.2,0
		c0.1,0.1,0.2,0.2,0.1,0.4c0,0.6-0.1,1.2,0,1.8c0.2,0.6,0.8,1.1,1.3,0.9c0.2-0.1,0.4-0.3,0.6-0.4c0.1-0.1,0.2-0.3,0.3-0.4
		c0.1-0.4-0.3-0.8-0.6-1.1c-0.2-0.3-0.3-0.7-0.2-1c0.2,0,0.4,0.2,0.5,0.3c0.3,0.3,0.6,0.5,1,0.6c0.4,0.1,0.8,0,1.2-0.2
		c0.3-0.2,0.5-0.7,0.4-1.1C58.7,16.2,58,16,57.4,16c-0.6,0-1.2,0.2-1.8,0c0.8-0.3,1.5-1,1.9-1.9c0.2-0.5,0.2-1.1-0.2-1.4
		c-0.3-0.2-0.7,0-1,0.2c-0.2,0.1-0.4,0.3-0.5,0.5c-0.3,0.5-0.2,1.2-0.5,1.8c-0.1,0.2-0.5,0.4-0.6,0.2c0-0.1,0-0.2,0-0.3
		c0-0.3-0.1-0.6-0.2-0.8c-0.2-0.4-0.4-0.8-0.8-1c-0.4-0.2-0.9-0.3-1.2,0c-0.3,0.3-0.4,0.8-0.2,1.1c0.2,0.4,0.5,0.7,0.8,0.9
		c0.4,0.3,0.8,0.5,1.2,0.5C54.3,15.9,54.1,16.2,53.9,16.3z"/>
	<path fill="#4DA0D8" d="M44,8.7c-0.2,0.1-0.4,0.1-0.7,0.1c-0.4,0-0.8,0.2-1.1,0.4c-0.1,0.1-0.9,1.1-0.6,1.4
		c0.1,0.1,0.2,0.2,0.4,0.3c0.4,0.2,0.9,0.2,1.3,0c0.2-0.1,0.3-0.2,0.4-0.3c0.2-0.3,0.2-0.8,0.5-1c0.1,0,0.1,0,0.2,0
		c0.1,0.1,0.2,0.2,0.1,0.4c0,0.6-0.1,1.2,0,1.8c0.2,0.6,0.8,1.1,1.3,0.9c0.2-0.1,0.4-0.3,0.6-0.4c0.1-0.1,0.2-0.3,0.3-0.4
		c0.1-0.4-0.3-0.8-0.6-1.1c-0.2-0.3-0.3-0.7-0.2-1c0.2,0,0.4,0.2,0.5,0.3c0.3,0.3,0.6,0.5,1,0.6c0.4,0.1,0.8,0,1.2-0.2
		c0.3-0.2,0.5-0.7,0.4-1.1c-0.2-0.6-0.9-0.8-1.5-0.8c-0.6,0-1.2,0.2-1.8,0c0.8-0.3,1.5-1,1.9-1.9c0.2-0.5,0.2-1.1-0.2-1.4
		c-0.3-0.2-0.7,0-1,0.2c-0.2,0.1-0.4,0.3-0.5,0.5c-0.3,0.5-0.2,1.2-0.5,1.8c-0.1,0.2-0.5,0.4-0.6,0.2c0-0.1,0-0.2,0-0.3
		c0-0.3-0.1-0.6-0.2-0.8c-0.2-0.4-0.4-0.8-0.8-1c-0.4-0.2-0.9-0.3-1.2,0c-0.3,0.3-0.4,0.8-0.2,1.1c0.2,0.4,0.5,0.7,0.8,0.9
		c0.4,0.3,0.8,0.5,1.2,0.5C44.3,8.3,44.2,8.6,44,8.7z"/>
	<path fill="#4DA0D8" d="M13.2,21.9c0.2-0.1,0.3-0.2,0.4-0.3c0.2-0.3,0.2-0.8,0.5-1c0.1,0,0.1,0,0.2,0c0.1,0.1,0.2,0.2,0.1,0.4
		c0,0.6-0.1,1.2,0,1.8c0.2,0.6,0.8,1.1,1.3,0.9c0.2-0.1,0.4-0.3,0.6-0.4c0.1-0.1,0.2-0.3,0.3-0.4c0.1-0.4-0.3-0.8-0.6-1.1
		c-0.2-0.3-0.3-0.7-0.2-1c0.2,0,0.4,0.2,0.5,0.3c0.3,0.3,0.6,0.5,1,0.6c0.4,0.1,0.8,0,1.2-0.2c0.3-0.2,0.5-0.7,0.4-1.1
		c-0.2-0.6-0.9-0.8-1.5-0.8c-0.6,0-1.2,0.2-1.8,0c0.8-0.3,1.5-1,1.9-1.9c0.2-0.5,0.2-1.1-0.2-1.4c-0.3-0.2-0.7,0-1,0.2
		c-0.2,0.1-0.4,0.3-0.5,0.5c-0.3,0.5-0.2,1.2-0.5,1.8c-0.1,0.2-0.5,0.4-0.6,0.2c0-0.1,0-0.2,0-0.3c0-0.3-0.1-0.6-0.2-0.8
		c-0.2-0.4-0.4-0.8-0.8-1c-0.4-0.2-0.9-0.3-1.2,0c-0.3,0.3-0.4,0.8-0.2,1.1c0.2,0.4,0.5,0.7,0.8,0.9c0.4,0.3,0.8,0.5,1.2,0.5
		c0.1,0.2,0,0.5-0.2,0.5c-0.2,0.1-0.4,0.1-0.7,0.1c-0.4,0-0.8,0.2-1.1,0.4c-0.1,0.1-0.9,1.1-0.6,1.4c0.1,0.1,0.2,0.2,0.4,0.3
		C12.4,22.1,12.9,22.1,13.2,21.9z"/>
	<path fill="#4DA0D8" d="M36.8,13.4c-0.3,0.5-0.2,1.2-0.5,1.7c-0.1,0.2-0.5,0.4-0.6,0.2c0-0.1,0-0.2,0-0.3c0-0.3-0.1-0.5-0.2-0.8
		c-0.2-0.4-0.4-0.7-0.8-0.9c-0.3-0.2-0.8-0.2-1.1,0c-0.3,0.3-0.3,0.7-0.2,1.1c0.1,0.4,0.4,0.6,0.8,0.9c0.3,0.2,0.7,0.4,1.2,0.5
		c0.1,0.2,0,0.4-0.2,0.5s-0.4,0.1-0.6,0.1c-0.4,0-0.8,0.2-1.1,0.4c-0.1,0.1-0.9,1-0.6,1.3c0.1,0.1,0.2,0.2,0.4,0.2
		c0.4,0.2,0.8,0.2,1.2,0c0.2-0.1,0.3-0.2,0.4-0.3c0.2-0.3,0.2-0.8,0.5-1c0.1,0,0.1,0,0.2,0c0.1,0.1,0.1,0.2,0.1,0.4
		c0,0.6-0.1,1.2,0,1.7c0.2,0.6,0.7,1,1.3,0.9c0.2-0.1,0.4-0.2,0.5-0.4c0.1-0.1,0.2-0.3,0.3-0.4c0.1-0.4-0.3-0.7-0.5-1.1
		c-0.2-0.3-0.3-0.7-0.2-1c0.2,0,0.3,0.2,0.5,0.3c0.2,0.3,0.6,0.5,0.9,0.5c0.4,0.1,0.8,0,1.1-0.2c0.3-0.2,0.5-0.7,0.4-1.1
		C39.7,16.2,39,16,38.4,16c-0.6,0-1.2,0.2-1.7,0c0.8-0.3,1.5-1,1.8-1.8c0.2-0.4,0.2-1.1-0.2-1.3c-0.3-0.2-0.7,0-1,0.1
		C37.1,13.1,37,13.3,36.8,13.4z"/>
	<path fill="#4DA0D8" d="M24.3,4c-0.2,0.1-0.4,0.1-0.6,0.1c-0.4,0-0.8,0.2-1.1,0.4c-0.1,0.1-0.9,1-0.6,1.3c0.1,0.1,0.2,0.2,0.4,0.2
		c0.4,0.2,0.8,0.2,1.2,0c0.2-0.1,0.3-0.2,0.4-0.3c0.2-0.3,0.2-0.8,0.5-1c0.1,0,0.1,0,0.2,0c0.1,0.1,0.1,0.2,0.1,0.4
		c0,0.6-0.1,1.2,0,1.7c0.2,0.6,0.7,1,1.3,0.9c0.2-0.1,0.4-0.2,0.5-0.4c0.1-0.1,0.2-0.3,0.3-0.4c0.1-0.4-0.3-0.7-0.5-1.1
		c-0.2-0.3-0.3-0.7-0.2-1c0.2,0,0.3,0.2,0.5,0.3c0.2,0.3,0.6,0.5,0.9,0.5c0.4,0.1,0.8,0,1.1-0.2s0.5-0.7,0.4-1.1
		c-0.2-0.5-0.9-0.7-1.4-0.7c-0.6,0-1.2,0.2-1.7,0c0.8-0.3,1.5-1,1.8-1.8c0.2-0.4,0.2-1.1-0.2-1.3c-0.3-0.2-0.7,0-1,0.1
		C26.3,0.8,26.1,1,26,1.2c-0.3,0.5-0.2,1.2-0.5,1.7C25.4,3.1,25,3.2,24.9,3c0-0.1,0-0.2,0-0.3c0-0.3-0.1-0.5-0.2-0.8
		c-0.2-0.4-0.4-0.7-0.8-0.9c-0.3-0.2-0.8-0.2-1.1,0c-0.3,0.3-0.3,0.7-0.2,1.1C22.7,2.5,23,2.8,23.3,3c0.3,0.2,0.7,0.4,1.2,0.5
		C24.6,3.7,24.5,3.9,24.3,4z"/>
	<path fill="#4DA0D8" d="M26.7,12.8c0.8-0.3,1.5-1,1.8-1.8c0.2-0.4,0.2-1.1-0.2-1.3c-0.3-0.2-0.7,0-1,0.1c-0.2,0.1-0.4,0.2-0.5,0.4
		c-0.3,0.5-0.2,1.2-0.5,1.7c-0.1,0.2-0.5,0.4-0.6,0.2c0-0.1,0-0.2,0-0.3c0-0.3-0.1-0.5-0.2-0.8c-0.2-0.4-0.4-0.7-0.8-0.9
		c-0.3-0.2-0.8-0.2-1.1,0c-0.3,0.3-0.3,0.7-0.2,1.1c0.1,0.4,0.4,0.6,0.8,0.9c0.3,0.2,0.7,0.4,1.2,0.5c0.1,0.2,0,0.4-0.2,0.5
		c-0.2,0.1-0.4,0.1-0.6,0.1c-0.4,0-0.8,0.2-1.1,0.4c-0.1,0.1-0.9,1-0.6,1.3c0.1,0.1,0.2,0.2,0.4,0.2c0.4,0.2,0.8,0.2,1.2,0
		c0.2-0.1,0.3-0.2,0.4-0.3c0.2-0.3,0.2-0.8,0.5-1c0.1,0,0.1,0,0.2,0c0.1,0.1,0.1,0.2,0.1,0.4c0,0.6-0.1,1.2,0,1.7s0.7,1,1.3,0.9
		c0.2-0.1,0.4-0.2,0.5-0.4c0.1-0.1,0.2-0.3,0.3-0.4c0.1-0.4-0.3-0.7-0.5-1.1c-0.2-0.3-0.3-0.7-0.2-1c0.2,0,0.3,0.2,0.5,0.3
		c0.2,0.3,0.6,0.5,0.9,0.5c0.4,0.1,0.8,0,1.1-0.2s0.5-0.7,0.4-1.1c-0.2-0.5-0.9-0.7-1.4-0.7C27.8,12.8,27.3,13,26.7,12.8z"/>
	<path fill="#4DA0D8" d="M21,29.4c-0.2-0.5-0.9-0.7-1.4-0.7c-0.6,0-1.2,0.2-1.7,0c0.8-0.3,1.5-1,1.8-1.8c0.2-0.4,0.2-1.1-0.2-1.3
		c-0.3-0.2-0.7,0-1,0.1c-0.2,0.1-0.4,0.2-0.5,0.4c-0.3,0.5-0.2,1.2-0.5,1.7c-0.1,0.2-0.5,0.4-0.6,0.2c0-0.1,0-0.2,0-0.3
		c0-0.3-0.1-0.5-0.2-0.8c-0.2-0.4-0.4-0.7-0.8-0.9c-0.3-0.2-0.8-0.2-1.1,0c-0.3,0.3-0.3,0.7-0.2,1.1c0.1,0.4,0.4,0.6,0.8,0.9
		c0.3,0.2,0.7,0.4,1.2,0.5c0.1,0.2,0,0.4-0.2,0.5c-0.2,0.1-0.4,0.1-0.6,0.1c-0.4,0-0.8,0.2-1.1,0.4c-0.1,0.1-0.9,1-0.6,1.3
		c0.1,0.1,0.2,0.2,0.4,0.2c0.4,0.2,0.8,0.2,1.2,0c0.2-0.1,0.3-0.2,0.4-0.3c0.2-0.3,0.2-0.8,0.5-1c0.1,0,0.1,0,0.2,0
		c0.1,0.1,0.1,0.2,0.1,0.4c0,0.6-0.1,1.2,0,1.7c0.2,0.6,0.7,1,1.3,0.9c0.2-0.1,0.4-0.2,0.5-0.4c0.1-0.1,0.2-0.3,0.3-0.4
		c0.1-0.4-0.3-0.7-0.5-1.1c-0.2-0.3-0.3-0.7-0.2-1c0.2,0,0.3,0.2,0.5,0.3c0.2,0.3,0.6,0.5,0.9,0.5c0.4,0.1,0.8,0,1.1-0.2
		C21,30.2,21.1,29.8,21,29.4z"/>
	<path fill="#4DA0D8" d="M31.7,25.8c-0.2,0.1-0.4,0.1-0.6,0.1c-0.3,0-0.7,0.1-1,0.3c-0.1,0.1-0.8,0.9-0.5,1.2
		c0.1,0.1,0.2,0.2,0.3,0.2c0.3,0.1,0.7,0.1,1.1,0c0.1-0.1,0.3-0.1,0.4-0.3c0.2-0.3,0.1-0.7,0.4-0.9c0.1,0,0.1,0,0.2,0
		c0.1,0,0.1,0.2,0.1,0.3c0,0.5-0.1,1.1,0,1.6c0.1,0.5,0.7,1,1.1,0.8c0.2-0.1,0.3-0.2,0.5-0.4c0.1-0.1,0.2-0.2,0.2-0.4
		c0.1-0.4-0.3-0.7-0.5-1c-0.2-0.3-0.2-0.6-0.2-0.9c0.2,0,0.3,0.2,0.4,0.3c0.2,0.2,0.5,0.4,0.9,0.5c0.3,0.1,0.7,0,1-0.2
		c0.3-0.2,0.4-0.6,0.3-1c-0.2-0.5-0.8-0.7-1.3-0.7c-0.5,0-1.1,0.1-1.5,0c0.7-0.3,1.3-0.9,1.6-1.6c0.2-0.4,0.2-1-0.2-1.2
		c-0.3-0.1-0.6,0-0.9,0.1c-0.2,0.1-0.3,0.2-0.4,0.4c-0.3,0.4-0.2,1.1-0.4,1.5c-0.1,0.2-0.4,0.3-0.5,0.1c0-0.1,0-0.2,0-0.3
		c0-0.2-0.1-0.5-0.2-0.7c-0.2-0.3-0.4-0.7-0.7-0.9c-0.3-0.2-0.8-0.2-1,0c-0.3,0.2-0.3,0.7-0.2,1c0.1,0.3,0.4,0.6,0.7,0.8
		c0.3,0.2,0.7,0.4,1.1,0.4C32,25.5,31.9,25.7,31.7,25.8z"/>
	<path fill="#4DA0D8" d="M14.7,13.3c0.3,0.1,0.7,0.1,1.1,0c0.1-0.1,0.3-0.1,0.4-0.3c0.2-0.3,0.1-0.7,0.4-0.9c0.1,0,0.1,0,0.2,0
		c0.1,0,0.1,0.2,0.1,0.3c0,0.5-0.1,1.1,0,1.6s0.7,1,1.1,0.8c0.2-0.1,0.3-0.2,0.5-0.4c0.1-0.1,0.2-0.2,0.2-0.4c0.1-0.4-0.3-0.7-0.5-1
		c-0.2-0.3-0.2-0.6-0.2-0.9c0.2,0,0.3,0.2,0.4,0.3c0.2,0.2,0.5,0.4,0.9,0.5c0.3,0.1,0.7,0,1-0.2c0.3-0.2,0.4-0.6,0.3-1
		c-0.2-0.5-0.8-0.7-1.3-0.7c-0.5,0-1.1,0.1-1.5,0c0.7-0.3,1.3-0.9,1.6-1.6c0.2-0.4,0.2-1-0.2-1.2c-0.3-0.1-0.6,0-0.9,0.1
		c-0.2,0.1-0.3,0.2-0.4,0.4c-0.3,0.4-0.2,1.1-0.4,1.5c-0.1,0.2-0.4,0.3-0.5,0.1c0-0.1,0-0.2,0-0.3c0-0.2-0.1-0.5-0.2-0.7
		c-0.2-0.3-0.4-0.7-0.7-0.9c-0.3-0.2-0.8-0.2-1,0c-0.3,0.2-0.3,0.7-0.2,1c0.1,0.3,0.4,0.6,0.7,0.8c0.3,0.2,0.7,0.4,1.1,0.4
		c0.1,0.2,0,0.4-0.2,0.5c-0.2,0.1-0.4,0.1-0.6,0.1c-0.3,0-0.7,0.1-1,0.3c-0.1,0.1-0.8,0.9-0.5,1.2C14.4,13.2,14.5,13.3,14.7,13.3z"
		/>
	<path fill="#4DA0D8" d="M17.6,36.4c-0.5,0-1.1,0.1-1.5,0c0.7-0.3,1.3-0.9,1.6-1.6c0.2-0.4,0.2-1-0.2-1.2c-0.3-0.1-0.6,0-0.9,0.1
		c-0.2,0.1-0.3,0.2-0.4,0.4c-0.3,0.4-0.2,1.1-0.4,1.5c-0.1,0.2-0.4,0.3-0.5,0.1c0-0.1,0-0.2,0-0.3c0-0.2-0.1-0.5-0.2-0.7
		c-0.2-0.3-0.4-0.7-0.7-0.9c-0.3-0.2-0.8-0.2-1,0c-0.3,0.2-0.3,0.7-0.2,1c0.1,0.3,0.4,0.6,0.7,0.8c0.3,0.2,0.7,0.4,1.1,0.4
		c0.1,0.2,0,0.4-0.2,0.5c-0.2,0.1-0.4,0.1-0.6,0.1c-0.3,0-0.7,0.1-1,0.3c-0.1,0.1-0.8,0.9-0.5,1.2c0.1,0.1,0.2,0.2,0.3,0.2
		c0.3,0.1,0.7,0.1,1.1,0c0.1-0.1,0.3-0.1,0.4-0.3c0.2-0.3,0.1-0.7,0.4-0.9c0.1,0,0.1,0,0.2,0c0.1,0,0.1,0.2,0.1,0.3
		c0,0.5-0.1,1.1,0,1.6c0.1,0.5,0.7,1,1.1,0.8c0.2-0.1,0.3-0.2,0.5-0.4c0.1-0.1,0.2-0.2,0.2-0.4c0.1-0.4-0.3-0.7-0.5-1
		c-0.2-0.3-0.2-0.6-0.2-0.9c0.2,0,0.3,0.2,0.4,0.3c0.2,0.2,0.5,0.4,0.9,0.5c0.3,0.1,0.7,0,1-0.2c0.3-0.2,0.4-0.6,0.3-1
		C18.8,36.5,18.2,36.4,17.6,36.4z"/>
	<path fill="#4DA0D8" d="M48.6,21.6c0-0.1,0-0.2,0-0.3c0-0.2-0.1-0.5-0.2-0.7c-0.2-0.3-0.4-0.7-0.7-0.9c-0.3-0.2-0.8-0.2-1,0
		c-0.3,0.2-0.3,0.7-0.2,1c0.1,0.3,0.4,0.6,0.7,0.8c0.3,0.2,0.7,0.4,1.1,0.4c0.1,0.2,0,0.4-0.2,0.5c-0.2,0.1-0.4,0.1-0.6,0.1
		c-0.3,0-0.7,0.1-1,0.3c-0.1,0.1-0.8,0.9-0.5,1.2c0.1,0.1,0.2,0.2,0.3,0.2c0.3,0.1,0.7,0.1,1.1,0c0.1-0.1,0.3-0.1,0.4-0.3
		c0.2-0.3,0.1-0.7,0.4-0.9c0.1,0,0.1,0,0.2,0c0.1,0,0.1,0.2,0.1,0.3c0,0.5-0.1,1.1,0,1.6c0.1,0.5,0.7,1,1.1,0.8
		c0.2-0.1,0.3-0.2,0.5-0.4c0.1-0.1,0.2-0.2,0.2-0.4c0.1-0.4-0.3-0.7-0.5-1c-0.2-0.3-0.2-0.6-0.2-0.9c0.2,0,0.3,0.2,0.4,0.3
		c0.2,0.2,0.5,0.4,0.9,0.5c0.3,0.1,0.7,0,1-0.2c0.3-0.2,0.4-0.6,0.3-1c-0.2-0.5-0.8-0.7-1.3-0.7c-0.5,0-1.1,0.1-1.5,0
		c0.7-0.3,1.3-0.9,1.6-1.6c0.2-0.4,0.2-1-0.2-1.2c-0.3-0.1-0.6,0-0.9,0.1c-0.2,0.1-0.3,0.2-0.4,0.4c-0.3,0.4-0.2,1.1-0.4,1.5
		C49,21.6,48.7,21.8,48.6,21.6z"/>
	<path fill="#4DA0D8" d="M31.8,9.2c0.3,0.1,0.7,0.1,1.1,0c0.1-0.1,0.3-0.1,0.4-0.3c0.2-0.3,0.1-0.7,0.4-0.9c0.1,0,0.1,0,0.2,0
		c0.1,0,0.1,0.2,0.1,0.3c0,0.5-0.1,1.1,0,1.6c0.1,0.5,0.7,1,1.1,0.8c0.2-0.1,0.3-0.2,0.5-0.4c0.1-0.1,0.2-0.2,0.2-0.4
		c0.1-0.4-0.3-0.7-0.5-1c-0.2-0.3-0.2-0.6-0.2-0.9c0.2,0,0.3,0.2,0.4,0.3c0.2,0.2,0.5,0.4,0.9,0.5c0.3,0.1,0.7,0,1-0.2
		c0.3-0.2,0.4-0.6,0.3-1C37.6,7.2,37,7,36.5,7.1c-0.5,0-1.1,0.1-1.5,0c0.7-0.3,1.3-0.9,1.6-1.6c0.2-0.4,0.2-1-0.2-1.2
		c-0.3-0.1-0.6,0-0.9,0.1c-0.2,0.1-0.3,0.2-0.4,0.4c-0.3,0.4-0.2,1.1-0.4,1.5c-0.1,0.2-0.4,0.3-0.5,0.1c0-0.1,0-0.2,0-0.3
		c0-0.2-0.1-0.5-0.2-0.7c-0.2-0.3-0.4-0.7-0.7-0.9c-0.3-0.2-0.8-0.2-1,0c-0.3,0.2-0.3,0.7-0.2,1c0.1,0.3,0.4,0.6,0.7,0.8
		c0.3,0.2,0.7,0.4,1.1,0.4c0.1,0.2,0,0.4-0.2,0.5S33.1,7.4,33,7.4c-0.3,0-0.7,0.1-1,0.3c-0.1,0.1-0.8,0.9-0.5,1.2
		C31.5,9.1,31.7,9.1,31.8,9.2z"/>
</g>
</svg>
