<?xml version="1.0" encoding="utf-8"?>
<!-- Generator: Adobe Illustrator 18.0.0, SVG Export Plug-In . SVG Version: 6.00 Build 0)  -->
<!DOCTYPE svg PUBLIC "-//W3C//DTD SVG 1.1//EN" "http://www.w3.org/Graphics/SVG/1.1/DTD/svg11.dtd">
<svg version="1.1" id="Layer_1" xmlns="http://www.w3.org/2000/svg" xmlns:xlink="http://www.w3.org/1999/xlink" x="0px" y="0px"
	 viewBox="0 0 72 72" enable-background="new 0 0 72 72" xml:space="preserve">
<g>
	<path fill="#0DB89A" d="M24.8,20.7c0.3,0.2,0.6,0.4,0.9,0.3c0.2,0,0.3-0.1,0.4-0.2c0.5-0.3,0.9-0.7,1.4-1.1
		c0.3,0.4,0.7,0.6,1.1,0.8c0.1,0,0.2,0.1,0.4,0.1c0.1,0,0.3-0.1,0.4-0.2c0.7-0.6,1.2-1.5,1.2-2.4c0-1-0.4-1.9-0.6-2.8
		c-0.1-0.4-0.1-0.9-0.2-1.3c-0.1-0.5-0.3-0.9-0.6-1.3c-0.2-0.4-0.5-0.8-0.8-1.2c-0.6-0.7-1.3-1.3-1.6-2.1c-0.1,0.7-0.3,1.3-0.6,2
		c-0.5,1.2-1.3,2.3-1.8,3.5c-0.6,1.4-0.9,3-0.5,4.4C24.1,19.7,24.3,20.3,24.8,20.7z"/>
	<path fill="#0DB89A" d="M44.8,37.3c-0.2,0-0.3,0-0.5,0c-0.6,0.1-1.1,0.2-1.7,0.4c-0.1-0.5-0.3-0.9-0.7-1.2
		c-0.1-0.1-0.2-0.2-0.3-0.2c-0.1,0-0.3,0-0.4,0c-0.9,0.2-1.7,0.8-2.2,1.6c-0.5,0.9-0.5,1.9-0.8,2.8c-0.1,0.4-0.3,0.8-0.4,1.3
		c-0.1,0.5-0.1,1-0.1,1.5c0,0.5,0,1,0.1,1.4c0.2,0.9,0.6,1.7,0.5,2.6c0.4-0.5,0.9-1,1.4-1.5c1-0.8,2.2-1.5,3.2-2.3
		c1.2-1,2.1-2.3,2.5-3.7c0.2-0.6,0.2-1.3,0-1.9C45.4,37.6,45.2,37.3,44.8,37.3z"/>
	<path fill="#0DB89A" d="M30.2,26.9c-0.2-0.1-0.3-0.1-0.5,0c-0.6,0-1.2,0.1-1.7,0.1c0-0.5-0.2-0.9-0.5-1.3c-0.1-0.1-0.2-0.2-0.3-0.3
		c-0.1-0.1-0.3-0.1-0.4-0.1c-0.9,0-1.8,0.5-2.4,1.3c-0.6,0.8-0.8,1.8-1.1,2.7c-0.2,0.4-0.4,0.8-0.5,1.2c-0.2,0.5-0.2,1-0.3,1.4
		c-0.1,0.5-0.1,1,0,1.5c0.1,0.9,0.4,1.8,0.1,2.7c0.5-0.5,1-0.9,1.6-1.3c1.1-0.7,2.4-1.2,3.5-1.9c1.3-0.8,2.4-2,3-3.4
		c0.2-0.6,0.4-1.3,0.2-1.9C30.7,27.3,30.5,27,30.2,26.9z"/>
	<path fill="#0DB89A" d="M41.4,8.7c1,0.9,2.5,1.2,3.6,0.3c0.6-0.5,0.9-1.3,1-2.1s-0.2-1.6-0.5-2.4c-0.6-1.5-1.5-2.9-2.6-4.1
		C42.6,2,41.1,3,40.5,4.4C39.8,5.8,40.2,7.7,41.4,8.7z"/>
	<path fill="#0DB89A" d="M39.9,18.5c-1.3,0.3-2.4,1.4-2.3,2.7c0.1,0.8,0.6,1.5,1.2,2c0.6,0.5,1.4,0.7,2.2,0.9
		c1.6,0.4,3.2,0.5,4.8,0.2c-1.1-1.1-1.1-2.8-1.9-4.2C43.2,18.9,41.5,18.1,39.9,18.5z"/>
	<path fill="#0DB89A" d="M50.2,34.9c-1.3,0.3-2.4,1.4-2.3,2.7c0.1,0.8,0.6,1.5,1.2,2c0.6,0.5,1.4,0.7,2.2,0.9
		c1.6,0.4,3.2,0.5,4.8,0.2c-1.1-1.1-1.1-2.8-1.9-4.2C53.5,35.3,51.8,34.5,50.2,34.9z"/>
	<path fill="#0DB89A" d="M25.6,34.9c-0.7,0.3-1.3,1-1.5,1.7c-0.3,0.8-0.3,1.6-0.2,2.4c0.1,1.6,0.5,3.2,1.2,4.7
		c0.7-1.4,2.4-1.9,3.4-3c1-1.2,1.2-3.1,0.4-4.4C28.3,35.2,26.8,34.5,25.6,34.9z"/>
	<path fill="#0DB89A" d="M16.7,26.4c-0.7,0.3-1.3,1-1.5,1.7c-0.3,0.8-0.3,1.6-0.2,2.4c0.1,1.6,0.5,3.2,1.2,4.7
		c0.7-1.4,2.4-1.9,3.4-3c1-1.2,1.2-3.1,0.4-4.4C19.3,26.7,17.9,25.9,16.7,26.4z"/>
	<path fill="#E77528" d="M56.2,28.6c-1.2,0.3-2.3,1.4-2.3,2.6l-8.6-2l4.1-3.7c0.1,0.1,0.2,0.1,0.2,0.2c-0.3,0.4-0.5,0.8-0.5,1.3
		c0,0.1,0,0.3,0,0.4c0,0.1,0.1,0.2,0.2,0.3c0.7,0.6,1.7,0.9,2.6,0.7c1-0.2,1.8-0.8,2.7-1.1c0.4-0.2,0.8-0.3,1.2-0.5
		c0.4-0.2,0.8-0.5,1.2-0.8c0.4-0.3,0.7-0.6,1-1c0.6-0.7,1-1.6,1.7-2c-0.7,0-1.4-0.1-2.1-0.2c-1.3-0.3-2.5-0.8-3.8-1c0,0-0.1,0-0.2,0
		l0.2-0.2l-0.3,0.2c-1.4-0.2-2.9-0.2-4.3,0.4c-0.6,0.3-1.2,0.7-1.5,1.2c-0.2,0.3-0.2,0.7-0.1,1c0.1,0.2,0.2,0.3,0.3,0.4
		c0.2,0.1,0.3,0.3,0.5,0.4l-14,9.6l-0.4-15.6l9.2-6.1l11.5,1.1l-9.9-2.3l6.2-5.5c-0.1,0.2-0.1,0.4-0.1,0.6c0,0.1,0,0.3,0,0.4
		c0,0.1,0.1,0.2,0.2,0.3c0.7,0.6,1.7,0.9,2.6,0.7c1-0.2,1.8-0.8,2.7-1.1c0.4-0.2,0.8-0.3,1.2-0.5C58.6,6.6,59,6.3,59.3,6
		c0.4-0.3,0.7-0.6,1-1c0.6-0.7,1-1.6,1.7-2c-0.7,0-1.4-0.1-2.1-0.2c-1.3-0.3-2.5-0.8-3.8-1c-1.5-0.3-3.1-0.2-4.5,0.4
		c-0.6,0.3-1.2,0.7-1.5,1.2c-0.2,0.3-0.2,0.7-0.1,1c0.1,0.2,0.2,0.3,0.3,0.4c0.4,0.4,0.9,0.7,1.3,1.1l-17.4,12l-0.2-5.9
		c0.5,0,1.1-0.1,1.5-0.5c0.6-0.5,0.9-1.3,1-2.1c0-0.8-0.2-1.6-0.5-2.4c-0.6-1.5-1.5-2.9-2.6-4.1c-0.3,1.5-1.7,2.5-2.4,3.9
		c-0.6,1.4-0.2,3.3,0.9,4.3c0.5,0.4,1.1,0.7,1.8,0.8l-0.4,15.3L16.5,15.4c0.1-0.1,0.2-0.1,0.3-0.2c0.6-0.5,0.9-1.3,1-2.1
		c0-0.8-0.2-1.6-0.5-2.4c-0.6-1.5-1.5-2.9-2.6-4.1c-0.3,1.5-1.7,2.5-2.4,3.9c-0.6,1.4-0.2,3.3,0.9,4.3c0.8,0.7,1.9,1,2.9,0.7
		l6.8,6.1l-5.6,1.3c0.4-0.8,0.4-1.6,0-2.3c-0.4-0.7-1.2-1.1-2-1.2c-0.8-0.1-1.6,0-2.4,0.2c-1.6,0.4-3.1,1-4.4,1.9
		c1.5,0.5,2.2,2.1,3.5,2.9c1.3,0.8,3.2,0.7,4.4-0.3c0.2-0.2,0.4-0.3,0.5-0.5l7.6-0.8l8.9,5.9l-1.1,42.9h3.4l-0.9-35.3l8.8-5.8
		l10.3,1c0.1,0.8,0.6,1.5,1.2,1.9c0.6,0.5,1.4,0.7,2.2,0.9c1.6,0.4,3.2,0.5,4.8,0.2c-1.1-1.1-1.1-2.8-1.9-4.2
		C59.5,29,57.8,28.3,56.2,28.6z"/>
	<path fill="#0DB89A" d="M57.5,12.1c-1.3,0.3-2.4,1.4-2.3,2.7c0.1,0.8,0.6,1.5,1.2,2c0.6,0.5,1.4,0.7,2.2,0.9
		c1.6,0.4,3.2,0.5,4.8,0.2c-1.1-1.1-1.1-2.8-1.9-4.2C60.8,12.5,59,11.8,57.5,12.1z"/>
</g>
</svg>
