<?xml version="1.0" encoding="utf-8"?>
<!-- Generator: Adobe Illustrator 18.0.0, SVG Export Plug-In . SVG Version: 6.00 Build 0)  -->
<!DOCTYPE svg PUBLIC "-//W3C//DTD SVG 1.1//EN" "http://www.w3.org/Graphics/SVG/1.1/DTD/svg11.dtd">
<svg version="1.1" id="Layer_1" xmlns="http://www.w3.org/2000/svg" xmlns:xlink="http://www.w3.org/1999/xlink" x="0px" y="0px"
	 viewBox="0 0 72 72" enable-background="new 0 0 72 72" xml:space="preserve">
<g>
	<path fill="#4DA0D8" d="M8.8,20.3c0.3,0.3,0.6,0.6,0.7,1c0.8-0.2,1.5-0.4,2.3-0.6c0.2,0,0.3-0.1,0.4-0.2c0.2-0.2,0.2-0.4,0.2-0.7
		c0-0.5,0-1.1-0.2-1.5c-0.1-0.2-0.3-0.3-0.4-0.5c-0.5-0.7-0.4-1.7-0.3-2.5c-0.2,0.5-0.6,1-1.2,1.2c-0.7,0.3-1.5,0.1-2.1,0.5
		c-0.5,0.2-0.8,0.7-0.9,1.3c-0.1,0.5,0.1,1.1,0.5,1.5C8.1,19.9,8.4,20,8.8,20.3z"/>
	<path fill="#4DA0D8" d="M3.8,43.9c-0.4-0.5-0.3-1.2-0.2-1.9c-0.1,0.4-0.5,0.7-0.9,0.9c-0.5,0.2-1.1,0.1-1.6,0.3
		c-0.3,0.2-0.6,0.5-0.7,0.9c-0.1,0.4,0.1,0.8,0.4,1.1c0.2,0.2,0.5,0.3,0.8,0.5c0.2,0.2,0.4,0.5,0.5,0.8c0.6-0.2,1.1-0.3,1.7-0.5
		c0.1,0,0.2-0.1,0.3-0.2c0.1-0.1,0.1-0.3,0.1-0.5c0-0.4,0-0.8-0.2-1.1C4,44.1,3.9,44,3.8,43.9z"/>
	<path fill="#4DA0D8" d="M11.3,40.6c-0.5,0.2-1.1,0.1-1.6,0.3c-0.3,0.2-0.6,0.5-0.7,0.9c-0.1,0.4,0.1,0.8,0.4,1.1
		c0.2,0.2,0.5,0.3,0.8,0.5c0.2,0.2,0.4,0.5,0.5,0.8c0.6-0.2,1.1-0.3,1.7-0.5c0.1,0,0.2-0.1,0.3-0.2c0.1-0.1,0.1-0.3,0.1-0.5
		c0-0.4,0-0.8-0.2-1.1c-0.1-0.1-0.2-0.2-0.3-0.4c-0.4-0.5-0.3-1.2-0.2-1.9C12,40.1,11.7,40.5,11.3,40.6z"/>
	<path fill="#4DA0D8" d="M18.4,53c-0.4-0.5-0.3-1.2-0.2-1.9c-0.1,0.4-0.5,0.7-0.9,0.9c-0.5,0.2-1.1,0.1-1.6,0.3
		c-0.3,0.2-0.6,0.5-0.7,0.9c-0.1,0.4,0.1,0.8,0.4,1.1c0.2,0.2,0.5,0.3,0.8,0.5c0.2,0.2,0.4,0.5,0.5,0.8c0.6-0.2,1.1-0.3,1.7-0.5
		c0.1,0,0.2-0.1,0.3-0.2c0.1-0.1,0.1-0.3,0.1-0.5c0-0.4,0-0.8-0.2-1.1C18.6,53.2,18.5,53.1,18.4,53z"/>
	<path fill="#4DA0D8" d="M48.9,58.1c-0.5,0-1,0.1-1.4,0c0.7-0.3,1.2-0.8,1.5-1.5c0.1-0.4,0.2-0.9-0.2-1.1c-0.3-0.1-0.6,0-0.8,0.1
		c-0.2,0.1-0.3,0.2-0.4,0.4c-0.3,0.4-0.2,1-0.4,1.4c-0.1,0.2-0.4,0.3-0.5,0.1c0-0.1,0-0.2,0-0.2c0-0.2-0.1-0.4-0.2-0.7
		c-0.2-0.3-0.3-0.6-0.6-0.8c-0.3-0.2-0.7-0.2-1,0c-0.2,0.2-0.3,0.6-0.2,0.9c0.1,0.3,0.4,0.5,0.6,0.7c0.3,0.2,0.6,0.4,1,0.4
		c0.1,0.2,0,0.4-0.2,0.4c-0.2,0.1-0.3,0.1-0.5,0.1c-0.3,0-0.6,0.1-0.9,0.3c-0.1,0.1-0.7,0.9-0.5,1.1c0.1,0.1,0.2,0.2,0.3,0.2
		c0.3,0.1,0.7,0.1,1,0c0.1-0.1,0.2-0.1,0.3-0.2c0.2-0.3,0.1-0.7,0.4-0.8c0,0,0.1,0,0.2,0c0.1,0,0.1,0.2,0.1,0.3c0,0.5-0.1,1,0,1.4
		c0.1,0.5,0.6,0.9,1.1,0.7c0.2-0.1,0.3-0.2,0.5-0.3c0.1-0.1,0.2-0.2,0.2-0.4c0.1-0.3-0.3-0.6-0.5-0.9c-0.2-0.2-0.2-0.6-0.2-0.8
		c0.2,0,0.3,0.1,0.4,0.3c0.2,0.2,0.5,0.4,0.8,0.5c0.3,0.1,0.7,0,0.9-0.2c0.3-0.2,0.4-0.6,0.3-0.9C50,58.3,49.4,58.1,48.9,58.1z"/>
	<path fill="#4DA0D8" d="M56.6,54.6c-0.5,0-1,0.1-1.4,0c0.7-0.3,1.2-0.8,1.5-1.5c0.1-0.4,0.2-0.9-0.2-1.1c-0.3-0.1-0.6,0-0.8,0.1
		c-0.2,0.1-0.3,0.2-0.4,0.4c-0.3,0.4-0.2,1-0.4,1.4c-0.1,0.2-0.4,0.3-0.5,0.1c0-0.1,0-0.2,0-0.2c0-0.2-0.1-0.4-0.2-0.7
		c-0.2-0.3-0.3-0.6-0.6-0.8s-0.7-0.2-1,0c-0.2,0.2-0.3,0.6-0.2,0.9c0.1,0.3,0.4,0.5,0.6,0.7c0.3,0.2,0.6,0.4,1,0.4
		c0.1,0.2,0,0.4-0.2,0.4C53.7,55,53.5,55,53.3,55c-0.3,0-0.6,0.1-0.9,0.3c-0.1,0.1-0.7,0.9-0.5,1.1c0.1,0.1,0.2,0.2,0.3,0.2
		c0.3,0.1,0.7,0.1,1,0c0.1-0.1,0.2-0.1,0.3-0.2c0.2-0.3,0.1-0.7,0.4-0.8c0.1,0,0.1,0,0.2,0c0.1,0,0.1,0.2,0.1,0.3c0,0.5-0.1,1,0,1.4
		c0.1,0.5,0.6,0.9,1.1,0.7c0.2-0.1,0.3-0.2,0.5-0.3c0.1-0.1,0.2-0.2,0.2-0.4c0.1-0.3-0.3-0.6-0.5-0.9c-0.2-0.2-0.2-0.6-0.2-0.8
		c0.2,0,0.3,0.1,0.4,0.3c0.2,0.2,0.5,0.4,0.8,0.5c0.3,0.1,0.7,0,0.9-0.2c0.3-0.2,0.4-0.6,0.3-0.9C57.6,54.8,57.1,54.6,56.6,54.6z"/>
	<path fill="#4DA0D8" d="M65.1,23c0.3,0.1,0.7,0.1,1,0c0.1-0.1,0.2-0.1,0.3-0.2c0.2-0.3,0.1-0.7,0.4-0.8c0.1,0,0.1,0,0.2,0
		c0.1,0,0.1,0.2,0.1,0.3c0,0.5-0.1,1,0,1.4c0.1,0.5,0.6,0.9,1.1,0.7c0.2-0.1,0.3-0.2,0.5-0.3c0.1-0.1,0.2-0.2,0.2-0.4
		c0.1-0.3-0.3-0.6-0.5-0.9c-0.2-0.2-0.2-0.6-0.2-0.8c0.2,0,0.3,0.1,0.4,0.3c0.2,0.2,0.5,0.4,0.8,0.5c0.3,0.1,0.7,0,0.9-0.2
		c0.3-0.2,0.4-0.6,0.3-0.9C70.5,21.2,70,21,69.5,21c-0.5,0-1,0.1-1.4,0c0.7-0.3,1.2-0.8,1.5-1.5c0.1-0.4,0.2-0.9-0.2-1.1
		c-0.3-0.1-0.6,0-0.8,0.1c-0.2,0.1-0.3,0.2-0.4,0.4c-0.3,0.4-0.2,1-0.4,1.4c-0.1,0.2-0.4,0.3-0.5,0.1c0-0.1,0-0.2,0-0.2
		c0-0.2-0.1-0.4-0.2-0.7c-0.2-0.3-0.3-0.6-0.6-0.8c-0.3-0.2-0.7-0.2-1,0c-0.2,0.2-0.3,0.6-0.2,0.9s0.4,0.5,0.6,0.7
		c0.3,0.2,0.6,0.4,1,0.4c0.1,0.2,0,0.4-0.2,0.4c-0.2,0.1-0.3,0.1-0.5,0.1c-0.3,0-0.6,0.1-0.9,0.3c-0.1,0.1-0.7,0.9-0.5,1.1
		C64.9,22.9,65,23,65.1,23z"/>
	<path fill="#4DA0D8" d="M20.4,43.3c-0.1,0-0.1,0-0.2,0c0-0.2-0.1-0.5-0.2-0.7c-0.1-0.1-0.2-0.2-0.2-0.3c0.3-0.3,0.6-0.7,0.7-1.2
		c0.2-0.5,0.2-1.2-0.3-1.5c-0.3-0.2-0.8,0-1.1,0.2c-0.2,0.1-0.4,0.3-0.6,0.5c-0.2,0.3-0.3,0.7-0.3,1c-0.4,0.1-0.8,0.1-1.1,0.2
		c0-0.1-0.1-0.2-0.1-0.3c-0.2-0.4-0.5-0.8-0.9-1.1c-0.4-0.2-1-0.3-1.3,0c-0.3,0.3-0.4,0.8-0.2,1.3c0.2,0.4,0.5,0.7,0.9,1
		c0.3,0.2,0.6,0.4,0.9,0.5c0,0.2,0.1,0.4,0.3,0.6c0,0-0.1,0.1-0.2,0.1c-0.2,0.1-0.5,0.1-0.7,0.1c-0.4,0-0.9,0.2-1.2,0.4
		c-0.2,0.1-1,1.2-0.7,1.6c0.1,0.1,0.3,0.2,0.4,0.3c0.4,0.2,0.9,0.2,1.4,0c0.2-0.1,0.3-0.2,0.5-0.3c0.2-0.4,0.2-0.9,0.6-1.1
		c0.1,0,0.2,0,0.2,0c0.1,0.1,0.2,0.3,0.2,0.4c0,0.7-0.2,1.3,0,2c0.2,0.6,0.8,1.2,1.5,1c0.2-0.1,0.4-0.3,0.6-0.5
		c0.1-0.1,0.3-0.3,0.3-0.5c0.1-0.5-0.4-0.8-0.6-1.2c-0.2-0.3-0.3-0.7-0.2-1.1c0.1,0,0.1,0,0.2-0.1c0.1,0.1,0.3,0.2,0.4,0.3
		c0.3,0.3,0.7,0.5,1.1,0.6c0.4,0.1,0.9,0,1.3-0.2c0.4-0.3,0.6-0.8,0.4-1.2C21.9,43.5,21.1,43.3,20.4,43.3z"/>
	<path fill="#4DA0D8" d="M12.2,49.3c-0.7,0-1.3,0.2-2,0c0.9-0.4,1.7-1.1,2.1-2.1c0.2-0.5,0.2-1.2-0.3-1.5c-0.3-0.2-0.8,0-1.1,0.2
		c-0.2,0.1-0.4,0.3-0.6,0.5c-0.4,0.6-0.2,1.4-0.6,2c-0.1,0.3-0.5,0.4-0.7,0.2c-0.1-0.1,0-0.2,0-0.3c0-0.3-0.1-0.6-0.3-0.9
		c-0.2-0.4-0.5-0.8-0.9-1.1c-0.4-0.2-1-0.3-1.3,0c-0.3,0.3-0.4,0.8-0.2,1.3c0.2,0.4,0.5,0.7,0.9,1C7.7,48.8,8.2,49,8.7,49
		c0.1,0.2,0,0.5-0.3,0.6c-0.2,0.1-0.5,0.1-0.7,0.1c-0.4,0-0.9,0.2-1.2,0.4c-0.2,0.1-1,1.2-0.7,1.6C5.9,51.9,6,52,6.2,52
		c0.4,0.2,0.9,0.2,1.4,0C7.7,52,7.9,51.9,8,51.7c0.2-0.4,0.2-0.9,0.6-1.1c0.1,0,0.2,0,0.2,0C8.9,50.6,9,50.8,9,51c0,0.7-0.2,1.3,0,2
		c0.2,0.6,0.8,1.2,1.5,1c0.2-0.1,0.4-0.3,0.6-0.5c0.1-0.1,0.3-0.3,0.3-0.5c0.1-0.5-0.4-0.8-0.6-1.2c-0.2-0.3-0.3-0.8-0.2-1.2
		c0.2,0,0.4,0.2,0.6,0.4c0.3,0.3,0.7,0.5,1.1,0.6c0.4,0.1,0.9,0,1.3-0.2c0.4-0.3,0.6-0.8,0.4-1.2C13.6,49.5,12.9,49.3,12.2,49.3z"/>
	<path fill="#4DA0D8" d="M27.1,38.5c0.4,0.8,1.1,1.1,2,0.5c-0.3-0.1-0.6-0.3-0.9-0.4C27.9,38.5,27.5,38.5,27.1,38.5z"/>
	<path fill="#4DA0D8" d="M33.7,46.6c0.1-0.2,0.1-0.4,0.2-0.6C33.9,46.3,33.8,46.5,33.7,46.6C33.7,46.6,33.7,46.6,33.7,46.6z"/>
	<path fill="#4DA0D8" d="M33.9,46.6c0.3,0,0.6,0,0.9-0.1c0.3-0.1,0.5-0.5,0.3-0.8c-0.3,0-0.7-0.2-1-0.3c-0.1,0.2-0.2,0.5-0.3,0.7
		c-0.1,0.2-0.1,0.4-0.2,0.6C33.8,46.6,33.9,46.6,33.9,46.6z"/>
	<path fill="#E77528" d="M33.7,46.6c0.1-0.2,0.1-0.4,0.2-0.6c0.1-0.3,0.2-0.6,0.3-0.9c0.8-2.1,1.9-4.2,3-6.2
		c-5.6-0.2-11.2-0.7-16.7-1.6c-0.6-0.1-1.2-0.2-1.8,0.1c-0.1,0-0.2,0.1-0.3,0.2c0.2,0.2,0.4,0.3,0.6,0.5c1.4,1.1,2.7,2.2,4.1,3.3
		c0,0,0,0,0,0c6.7,17,3.1,20.7,3.1,20.7h8.8c-3.2-6.1-2.4-10.5-2.4-10.5c-0.1-0.6,0-1.2,0.1-1.9c0.1,0,0.1,0,0.2,0
		C33.2,48.7,33.4,47.6,33.7,46.6C33.7,46.6,33.7,46.6,33.7,46.6z M27.1,38.5c0.4,0,0.7,0,1.1,0.1c0.3,0.1,0.6,0.2,0.9,0.4
		C28.2,39.6,27.5,39.3,27.1,38.5z"/>
	<path fill="#F7A93B" d="M70.3,31.9c-1-2.3-2.1-4.8-4.4-5.8c-2.1-0.9-4.6-0.1-6.9-0.5c-0.3,0-0.7-0.2-0.8-0.5
		c-0.2-0.5,0.4-0.8,0.8-1c1.5-0.7,2.9-1.7,3.4-3.3c0.6-2-0.7-4.1-2.5-5.1c-1.8-1-3.9-1-6-0.7c-2.2,0.3-4.4,0.9-6.5,1.6
		c-0.7,0.2-1.5,0.4-2.3,0.6c0.1-0.1,0.1-0.2,0.1-0.3c0.1-0.3-0.3-0.6-0.5-0.9c-0.2-0.2-0.2-0.6-0.2-0.8c0.2,0,0.3,0.1,0.4,0.3
		c0.2,0.2,0.5,0.4,0.8,0.5c0.3,0.1,0.7,0,0.9-0.2c0.3-0.2,0.4-0.6,0.3-0.9c-0.2-0.5-0.7-0.6-1.2-0.6c-0.5,0-1,0.1-1.4,0
		c0.7-0.3,1.2-0.8,1.5-1.5c0.1-0.4,0.2-0.9-0.2-1.1c-0.3-0.1-0.6,0-0.8,0.1c-0.2,0.1-0.3,0.2-0.4,0.4c-0.3,0.4-0.2,1-0.4,1.4
		c-0.1,0.2-0.4,0.3-0.5,0.1c0-0.1,0-0.2,0-0.2c0-0.2-0.1-0.4-0.2-0.7c-0.2-0.3-0.3-0.6-0.6-0.8c-0.3-0.2-0.7-0.2-1,0
		c-0.2,0.2-0.3,0.6-0.2,0.9c0.1,0.3,0.4,0.5,0.6,0.7c0.3,0.2,0.6,0.4,1,0.4c0.1,0.2,0,0.4-0.2,0.4c-0.2,0.1-0.3,0.1-0.5,0.1
		c-0.3,0-0.6,0.1-0.9,0.3C41.6,15,41,15.7,41.3,16c0.1,0.1,0.2,0.2,0.3,0.2c0.3,0.1,0.7,0.1,1,0c0.1-0.1,0.2-0.1,0.3-0.2
		c0.2-0.3,0.1-0.7,0.4-0.8c0,0,0.1,0,0.2,0c0.1,0,0.1,0.2,0.1,0.3c0,0.5-0.1,1,0,1.4c0.1,0.2,0.2,0.4,0.3,0.5
		c-1.6,0.2-3.1,0.2-4.5-0.5c-1.8-0.9-3-2.7-4.5-4c-1.4-1.2-3.1-2.1-4.9-2.5c0-0.1,0-0.2,0-0.3c0,0.1-0.1,0.2-0.1,0.3
		c-1-0.3-2.1-0.4-3.2-0.5c-3-0.1-5.9,0.4-8.8,1.2c-0.7,0.2-1.5,0.4-2,1c-0.3,0.4-0.5,0.9-0.6,1.4c-0.4,2,0.2,4.2,1.5,5.8
		c0.4,0.5,0.9,1,1,1.6c0.1,0.7-0.4,1.4-1.1,1.8c-0.6,0.3-1.4,0.4-2.1,0.5c-2.4,0.2-4.8,0.5-6.8,1.8c-2,1.3-3.3,3.9-2.5,6.1
		c0.3,0.8,0.8,1.4,1.5,2c-0.2,0.1-0.4,0.3-0.5,0.5c-0.4,0.6-0.2,1.4-0.6,2c-0.1,0.3-0.5,0.4-0.7,0.2c-0.1-0.1,0-0.2,0-0.3
		c0-0.3-0.1-0.6-0.3-0.9c-0.2-0.4-0.5-0.8-0.9-1.1c-0.4-0.2-1-0.3-1.3,0c-0.3,0.3-0.4,0.8-0.2,1.3c0.2,0.4,0.5,0.7,0.9,1
		c0.4,0.3,0.9,0.5,1.3,0.6c0.1,0.2,0,0.5-0.3,0.6c-0.2,0.1-0.5,0.1-0.7,0.1c-0.4,0-0.9,0.2-1.2,0.4c-0.2,0.1-1,1.2-0.7,1.6
		c0.1,0.1,0.3,0.2,0.4,0.3c0.4,0.2,0.9,0.2,1.4,0c0.2-0.1,0.3-0.2,0.5-0.3c0.2-0.4,0.2-0.9,0.6-1.1c0.1,0,0.2,0,0.2,0
		c0.1,0.1,0.2,0.3,0.2,0.4c0,0.7-0.2,1.3,0,2c0.2,0.6,0.8,1.2,1.5,1c0.2-0.1,0.4-0.3,0.6-0.5c0.1-0.1,0.3-0.3,0.3-0.5
		c0.1-0.5-0.4-0.8-0.6-1.2c-0.2-0.3-0.3-0.8-0.2-1.2c0.2,0,0.4,0.2,0.6,0.4c0.3,0.3,0.7,0.5,1.1,0.6c0.4,0.1,0.9,0,1.3-0.2
		c0.4-0.3,0.6-0.8,0.4-1.2c-0.2-0.6-1-0.9-1.7-0.8c-0.7,0-1.3,0.2-2,0c0.9-0.4,1.7-1.1,2.1-2.1c0-0.1,0.1-0.2,0.1-0.3
		c0.5,0.3,1,0.5,1.6,0.8c1.5,0.7,3.1,1.4,4.8,1.6c0.6,0.1,1.2,0.1,1.8,0.2c0,0.1,0,0.3,0.1,0.4c0.2,0.6,0.8,1.2,1.5,1
		c0.2-0.1,0.4-0.2,0.5-0.4c0,0,0,0,0.1,0.1c0.1-0.1,0.2-0.1,0.3-0.2c0.5-0.3,1.2-0.2,1.8-0.1c5.5,0.9,11.1,1.4,16.7,1.6
		c-1.2,2-2.2,4-3,6.2c-0.1,0.3-0.2,0.6-0.3,0.9c0.1-0.2,0.2-0.5,0.3-0.7c0.3,0.2,0.7,0.3,1,0.3c0.2,0.3,0,0.6-0.3,0.8
		c-0.3,0.1-0.6,0.1-0.9,0.1c-0.1,0-0.1,0-0.2,0c-0.3,1-0.6,2-0.7,3.1c0.2,0,0.5-0.1,0.7-0.2c0.2-0.1,0.4-0.2,0.6-0.4
		c0.3-0.5,0.2-1.2,0.7-1.4c0.1,0,0.2-0.1,0.3,0c0.2,0.1,0.2,0.3,0.2,0.5c0,0.9-0.2,1.7,0,2.6c0.2,0.8,1.1,1.6,1.9,1.3
		c0.3-0.1,0.6-0.4,0.8-0.6c0.2-0.2,0.3-0.4,0.4-0.6c0.1-0.6-0.5-1.1-0.8-1.6c-0.3-0.4-0.4-1-0.3-1.5c0.3,0,0.5,0.3,0.7,0.5
		c0.4,0.4,0.9,0.7,1.4,0.8c0.6,0.1,1.2,0,1.7-0.3c0.5-0.4,0.7-1,0.5-1.6c-0.3-0.8-1.3-1.1-2.1-1.1c-0.9,0-1.7,0.2-2.5-0.1
		c1.2-0.5,2.2-1.5,2.7-2.7c0.3-0.7,0.3-1.6-0.3-1.9c-0.4-0.2-1,0-1.4,0.2c-0.3,0.2-0.5,0.4-0.7,0.6c-0.5,0.7-0.3,1.8-0.7,2.6
		c-0.2,0.3-0.7,0.6-0.9,0.2c-0.1-0.1,0-0.3,0-0.4c0-0.4-0.2-0.8-0.3-1.2c-0.1-0.1-0.1-0.2-0.2-0.4c0.6-1.2,1.2-2.5,1.9-3.7
		c1.7,0.3,3.3,1,4.9,1.7c0.6,0.3,1.1,0.5,1.7,0.8c0.1,0.1,0.3,0.2,0.4,0.3c0.3,0.3,0.6,0.6,0.7,1c0.4-0.1,0.8-0.2,1.2-0.3
		c1.3,0.5,2.7,1,4,1.4c-0.2,0.7-0.1,1.4-0.5,2c-0.2,0.3-0.7,0.6-0.9,0.2c-0.1-0.1,0-0.3,0-0.4c0-0.4-0.2-0.8-0.3-1.2
		c-0.3-0.5-0.6-1.1-1.1-1.4c-0.5-0.3-1.2-0.4-1.7,0c-0.4,0.4-0.5,1.1-0.3,1.6c0.2,0.5,0.7,1,1.1,1.3c0.5,0.4,1.1,0.7,1.7,0.7
		c0.2,0.3,0,0.6-0.3,0.8c-0.3,0.1-0.6,0.1-0.9,0.1c-0.6,0-1.1,0.2-1.6,0.5c-0.2,0.1-1.3,1.5-0.9,2c0.1,0.2,0.3,0.3,0.5,0.4
		c0.6,0.2,1.2,0.2,1.8,0c0.2-0.1,0.4-0.2,0.6-0.4c0.3-0.5,0.2-1.2,0.7-1.4c0.1,0,0.2-0.1,0.3,0c0.2,0.1,0.2,0.3,0.2,0.5
		c0,0.9-0.2,1.7,0,2.6c0.2,0.8,1.1,1.6,1.9,1.3c0.3-0.1,0.6-0.4,0.8-0.6c0.2-0.2,0.3-0.4,0.4-0.6c0.1-0.6-0.5-1.1-0.8-1.6
		c-0.3-0.4-0.4-1-0.3-1.5c0.3,0,0.5,0.3,0.7,0.5c0.4,0.4,0.9,0.7,1.4,0.8c0.6,0.1,1.2,0,1.7-0.3c0.5-0.4,0.7-1,0.5-1.6
		c-0.3-0.8-1.3-1.1-2.1-1.1c-0.9,0-1.7,0.2-2.5-0.1c0.8-0.3,1.4-0.8,1.9-1.4c0.1,0.1,0.1,0.2,0.2,0.3c0.2,0.2,0.5,0.3,0.8,0.5
		c0.2,0.2,0.4,0.5,0.5,0.8c0.6-0.2,1.1-0.3,1.7-0.5c0.1,0,0.2-0.1,0.3-0.2c0.1-0.1,0.1-0.3,0.1-0.5c0-0.4,0-0.8-0.2-1.1
		c-0.1-0.1-0.2-0.2-0.3-0.4c0,0,0-0.1-0.1-0.1c0.4,0,0.8,0,1.2-0.1c0,0,0,0,0,0c-0.1,0.4,0.1,0.8,0.4,1.1c0.2,0.2,0.5,0.3,0.8,0.5
		c0.2,0.2,0.4,0.5,0.5,0.8c0.6-0.2,1.1-0.3,1.7-0.5c0.1,0,0.2-0.1,0.3-0.2c0.1-0.1,0.1-0.3,0.1-0.5c0-0.4,0-0.8-0.2-1.1
		c-0.1-0.1-0.2-0.2-0.3-0.4c0-0.1-0.1-0.1-0.1-0.2c0.4-0.1,0.8-0.1,1.2-0.2c2.3-0.4,4.7-0.8,6.8-2c2.1-1.1,3.8-3.2,4-5.5
		C71.6,35,71,33.4,70.3,31.9z"/>
</g>
</svg>
