<?xml version="1.0" encoding="utf-8"?>
<!-- Generator: Adobe Illustrator 18.0.0, SVG Export Plug-In . SVG Version: 6.00 Build 0)  -->
<!DOCTYPE svg PUBLIC "-//W3C//DTD SVG 1.1//EN" "http://www.w3.org/Graphics/SVG/1.1/DTD/svg11.dtd">
<svg version="1.1" id="Layer_1" xmlns="http://www.w3.org/2000/svg" xmlns:xlink="http://www.w3.org/1999/xlink" x="0px" y="0px"
	 viewBox="0 0 72 72" enable-background="new 0 0 72 72" xml:space="preserve">
<g>
	<path fill="#0DB89A" d="M38.3,3.7c0.2,0.2,0.4,0.3,0.5,0.6C39,4.6,39.2,5,39.3,5.4c0.3,0.8,0.5,1.6,0.8,2.4c0,0.1,0.1,0.3,0.2,0.4
		c0.2,0.3,0.6,0.5,1,0.5c0.4,0,0.8,0,1.1,0c0.8,0.1,1.5,0.6,2.3,0.5c0.6-0.1,1.2-0.6,1.3-1.3c0-0.3,0-0.6,0-0.9
		c-0.1-0.7-0.2-1.4-0.3-2.1c0-0.2-0.1-0.5-0.3-0.6c-0.2-0.1-0.5,0-0.7,0.1c-0.4,0.3-0.9,0.6-1.2,0.9c-0.2-0.1-0.2-0.4-0.1-0.6
		c0.1-0.2,0.2-0.4,0.4-0.5c0.2-0.3,0.4-0.6,0.5-1c0.1-0.3,0.1-0.6-0.1-0.8c-0.1-0.2-0.4-0.2-0.6-0.2c-0.2,0-0.4,0.1-0.7,0.1
		c-0.4,0.1-0.9,0-1.3,0c-0.4,0-0.7,0.1-1.1,0.2c-0.4,0.1-0.8,0.2-1.2,0.2c-0.4,0.1-0.8,0.2-1,0.5c0,0-0.1,0.1,0,0.1
		C38.2,3.6,38.2,3.7,38.3,3.7z"/>
	<path fill="#0DB89A" d="M45.4,14.2c0.2-0.3,0.4-0.6,0.5-1c0.1-0.3,0.1-0.6-0.1-0.8c-0.1-0.2-0.4-0.2-0.6-0.2
		c-0.2,0-0.4,0.1-0.7,0.1c-0.4,0.1-0.9,0-1.3,0c-0.4,0-0.7,0.1-1.1,0.2c-0.4,0.1-0.8,0.2-1.2,0.2c-0.4,0.1-0.8,0.2-1,0.5
		c0,0-0.1,0.1,0,0.1c0,0.1,0.1,0.1,0.1,0.1c0.2,0.2,0.4,0.3,0.5,0.6c0.2,0.4,0.4,0.8,0.5,1.2c0.3,0.8,0.5,1.6,0.8,2.4
		c0,0.1,0.1,0.3,0.2,0.4c0.2,0.3,0.6,0.5,1,0.5c0.4,0,0.8,0,1.1,0c0.8,0.1,1.5,0.6,2.3,0.5c0.6-0.1,1.2-0.6,1.3-1.3
		c0-0.3,0-0.6,0-0.9c-0.1-0.7-0.2-1.4-0.3-2.1c0-0.2-0.1-0.5-0.3-0.6c-0.2-0.1-0.5,0-0.7,0.1c-0.4,0.3-0.9,0.6-1.2,0.9
		c-0.2-0.1-0.2-0.4-0.1-0.6C45.2,14.5,45.3,14.3,45.4,14.2z"/>
	<path fill="#0DB89A" d="M27.9,24.2c0.2-0.3,0.4-0.6,0.5-1c0.1-0.3,0.1-0.6-0.1-0.8c-0.1-0.2-0.4-0.2-0.6-0.2
		c-0.2,0-0.4,0.1-0.7,0.1c-0.4,0.1-0.9,0-1.3,0c-0.4,0-0.7,0.1-1.1,0.2c-0.4,0.1-0.8,0.2-1.2,0.2c-0.4,0.1-0.8,0.2-1,0.5
		c0,0-0.1,0.1,0,0.1c0,0.1,0.1,0.1,0.1,0.1c0.2,0.2,0.4,0.3,0.5,0.6c0.2,0.4,0.4,0.8,0.5,1.2c0.3,0.8,0.5,1.6,0.8,2.4
		c0,0.1,0.1,0.3,0.2,0.4c0.2,0.3,0.6,0.5,1,0.5c0.4,0,0.8,0,1.1,0c0.8,0.1,1.5,0.6,2.3,0.5c0.6-0.1,1.2-0.6,1.3-1.3
		c0-0.3,0-0.6,0-0.9c-0.1-0.7-0.2-1.4-0.3-2.1c0-0.2-0.1-0.5-0.3-0.6c-0.2-0.1-0.5,0-0.7,0.1c-0.4,0.3-0.9,0.6-1.2,0.9
		c-0.2-0.1-0.2-0.4-0.1-0.6C27.6,24.5,27.8,24.4,27.9,24.2z"/>
	<path fill="#0DB89A" d="M47.8,7.2c0.2,0.2,0.4,0.3,0.5,0.6c0.2,0.4,0.4,0.8,0.5,1.2c0.3,0.8,0.5,1.6,0.8,2.4c0,0.1,0.1,0.3,0.2,0.4
		c0.2,0.3,0.6,0.5,1,0.5c0.4,0,0.8,0,1.1,0c0.8,0.1,1.5,0.6,2.3,0.5c0.6-0.1,1.2-0.6,1.3-1.3c0-0.3,0-0.6,0-0.9
		c-0.1-0.7-0.2-1.4-0.3-2.1c0-0.2-0.1-0.5-0.3-0.6c-0.2-0.1-0.5,0-0.7,0.1c-0.4,0.3-0.9,0.6-1.2,0.9c-0.2-0.1-0.2-0.4-0.1-0.6
		c0.1-0.2,0.2-0.4,0.4-0.5c0.2-0.3,0.4-0.6,0.5-1c0.1-0.3,0.1-0.6-0.1-0.8c-0.1-0.2-0.4-0.2-0.6-0.2c-0.2,0-0.4,0.1-0.7,0.1
		c-0.4,0.1-0.9,0-1.3,0c-0.4,0-0.7,0.1-1.1,0.2c-0.4,0.1-0.8,0.2-1.2,0.2c-0.4,0.1-0.8,0.2-1,0.5c0,0-0.1,0.1,0,0.1
		C47.7,7.1,47.8,7.1,47.8,7.2z"/>
	<path fill="#0DB89A" d="M26.4,1.9c0.2,0.2,0.4,0.3,0.5,0.6c0.2,0.4,0.4,0.8,0.5,1.2C27.7,4.4,28,5.2,28.2,6c0,0.1,0.1,0.3,0.2,0.4
		c0.2,0.3,0.6,0.5,1,0.5c0.4,0,0.8,0,1.1,0C31.2,7,32,7.5,32.7,7.4c0.6-0.1,1.2-0.6,1.3-1.3c0-0.3,0-0.6,0-0.9
		c-0.1-0.7-0.2-1.4-0.3-2.1c0-0.2-0.1-0.5-0.3-0.6c-0.2-0.1-0.5,0-0.7,0.1c-0.4,0.3-0.9,0.6-1.2,0.9c-0.2-0.1-0.2-0.4-0.1-0.6
		c0.1-0.2,0.2-0.4,0.4-0.5c0.2-0.3,0.4-0.6,0.5-1c0.1-0.3,0.1-0.6-0.1-0.8c-0.1-0.2-0.4-0.2-0.6-0.2c-0.2,0-0.4,0.1-0.7,0.1
		c-0.4,0.1-0.9,0-1.3,0c-0.4,0-0.7,0.1-1.1,0.2c-0.4,0.1-0.8,0.2-1.2,0.2c-0.4,0.1-0.8,0.2-1,0.5c0,0-0.1,0.1,0,0.1
		C26.3,1.8,26.3,1.8,26.4,1.9z"/>
	<path fill="#0DB89A" d="M53.7,20.5c-0.4,0.1-0.8,0.2-1,0.5c0,0-0.1,0.1,0,0.1c0,0.1,0.1,0.1,0.1,0.1c0.2,0.2,0.4,0.3,0.5,0.6
		c0.2,0.4,0.4,0.8,0.5,1.2c0.3,0.8,0.5,1.6,0.8,2.4c0,0.1,0.1,0.3,0.2,0.4c0.2,0.3,0.6,0.5,1,0.5c0.4,0,0.8,0,1.1,0
		c0.8,0.1,1.5,0.6,2.3,0.5c0.6-0.1,1.2-0.6,1.3-1.3c0-0.3,0-0.6,0-0.9c-0.1-0.7-0.2-1.4-0.3-2.1c0-0.2-0.1-0.5-0.3-0.6
		c-0.2-0.1-0.5,0-0.7,0.1c-0.4,0.3-0.9,0.6-1.2,0.9c-0.2-0.1-0.2-0.4-0.1-0.6c0.1-0.2,0.2-0.4,0.4-0.5c0.2-0.3,0.4-0.6,0.5-1
		c0.1-0.3,0.1-0.6-0.1-0.8c-0.1-0.2-0.4-0.2-0.6-0.2c-0.2,0-0.4,0.1-0.7,0.1c-0.4,0.1-0.9,0-1.3,0c-0.4,0-0.7,0.1-1.1,0.2
		C54.5,20.3,54.1,20.4,53.7,20.5z"/>
	<path fill="#0DB89A" d="M14.3,21c0-0.2-0.1-0.5-0.3-0.6c-0.2-0.1-0.5,0-0.7,0.1c-0.4,0.3-0.9,0.6-1.2,0.9c-0.2-0.1-0.2-0.4-0.1-0.6
		c0.1-0.2,0.2-0.4,0.4-0.5c0.2-0.3,0.4-0.6,0.5-1c0.1-0.3,0.1-0.6-0.1-0.8c-0.1-0.2-0.4-0.2-0.6-0.2c-0.2,0-0.4,0.1-0.7,0.1
		c-0.4,0.1-0.9,0-1.3,0c-0.4,0-0.7,0.1-1.1,0.2c-0.4,0.1-0.8,0.2-1.2,0.2c-0.4,0.1-0.8,0.2-1,0.5c0,0-0.1,0.1,0,0.1
		c0,0.1,0.1,0.1,0.1,0.1c0.2,0.2,0.4,0.3,0.5,0.6C7.7,20.6,7.8,21,8,21.4c0.3,0.8,0.5,1.6,0.8,2.4c0,0.1,0.1,0.3,0.2,0.4
		c0.2,0.3,0.6,0.5,1,0.5c0.4,0,0.8,0,1.1,0c0.8,0.1,1.5,0.6,2.3,0.5c0.6-0.1,1.2-0.6,1.3-1.3c0-0.3,0-0.6,0-0.9
		C14.5,22.4,14.4,21.7,14.3,21z"/>
	<path fill="#0DB89A" d="M14.3,39.1c0-0.2-0.1-0.5-0.3-0.6c-0.2-0.1-0.5,0-0.7,0.1c-0.4,0.3-0.9,0.6-1.2,0.9
		c-0.2-0.1-0.2-0.4-0.1-0.6c0.1-0.2,0.2-0.4,0.4-0.5c0.2-0.3,0.4-0.6,0.5-1c0.1-0.3,0.1-0.6-0.1-0.8c-0.1-0.2-0.4-0.2-0.6-0.2
		c-0.2,0-0.4,0.1-0.7,0.1c-0.4,0.1-0.9,0-1.3,0c-0.4,0-0.7,0.1-1.1,0.2c-0.4,0.1-0.8,0.2-1.2,0.2c-0.4,0.1-0.8,0.2-1,0.5
		c0,0-0.1,0.1,0,0.1c0,0.1,0.1,0.1,0.1,0.1c0.2,0.2,0.4,0.3,0.5,0.6c0.2,0.4,0.4,0.8,0.5,1.2c0.3,0.8,0.5,1.6,0.8,2.4
		c0,0.1,0.1,0.3,0.2,0.4c0.2,0.3,0.6,0.5,1,0.5c0.4,0,0.8,0,1.1,0c0.8,0.1,1.5,0.6,2.3,0.5c0.6-0.1,1.2-0.6,1.3-1.3
		c0-0.3,0-0.6,0-0.9C14.5,40.5,14.4,39.8,14.3,39.1z"/>
	<path fill="#0DB89A" d="M16.7,34.7c0.2,0.3,0.6,0.5,1,0.5c0.4,0,0.8,0,1.1,0c0.8,0.1,1.5,0.6,2.3,0.5c0.6-0.1,1.2-0.6,1.3-1.3
		c0-0.3,0-0.6,0-0.9c-0.1-0.7-0.2-1.4-0.3-2.1c0-0.2-0.1-0.5-0.3-0.6c-0.2-0.1-0.5,0-0.7,0.1c-0.4,0.3-0.9,0.6-1.2,0.9
		c-0.2-0.1-0.2-0.4-0.1-0.6c0.1-0.2,0.2-0.4,0.4-0.5c0.2-0.3,0.4-0.6,0.5-1c0.1-0.3,0.1-0.6-0.1-0.8c-0.1-0.2-0.4-0.2-0.6-0.2
		c-0.2,0-0.4,0.1-0.7,0.1c-0.4,0.1-0.9,0-1.3,0c-0.4,0-0.7,0.1-1.1,0.2c-0.4,0.1-0.8,0.2-1.2,0.2c-0.4,0.1-0.8,0.2-1,0.5
		c0,0-0.1,0.1,0,0.1c0,0.1,0.1,0.1,0.1,0.1c0.2,0.2,0.4,0.3,0.5,0.6c0.2,0.4,0.4,0.8,0.5,1.2c0.3,0.8,0.5,1.6,0.8,2.4
		C16.6,34.4,16.6,34.6,16.7,34.7z"/>
	<path fill="#E77528" d="M55.1,50.7c0-0.2-0.1-0.5-0.3-0.6c-0.2-0.1-0.5,0-0.7,0.1c-0.4,0.3-0.9,0.6-1.2,0.9
		c-0.1-0.1-0.1-0.3-0.1-0.5c1.3-1.2,2-2,2-2c-0.4,0.3-0.8,0.6-1.2,0.9c0.1-0.2,0.1-0.3,0.2-0.5c0.1-0.3,0.1-0.6-0.1-0.8
		C53.5,48,53.3,48,53.1,48c-0.2,0-0.4,0.1-0.7,0.1c-0.4,0.1-0.9,0-1.3,0c-0.4,0-0.7,0.1-1.1,0.2c-0.4,0.1-0.8,0.2-1.2,0.2
		c-0.4,0.1-0.8,0.2-1,0.5c0,0-0.1,0.1,0,0.1c0,0.1,0.1,0.1,0.1,0.1c0.2,0.2,0.4,0.3,0.5,0.6c0.2,0.4,0.4,0.8,0.5,1.2
		c0.1,0.3,0.2,0.6,0.3,0.9c-2.7,1.3-5.6,2.4-7.9,3.2L40.4,43c1.8-0.9,3.5-2,5-3.1c0.4,0.4,1,0.7,1.5,0.8c0.6,0.1,1.3,0.1,1.9,0.3
		c1.3,0.3,2.6,1.2,3.9,1.2c1,0,1.8-0.8,1.9-1.8c0-0.5-0.1-0.9-0.2-1.4c-0.3-1.1-0.6-2.3-0.9-3.4c-0.1-0.4-0.2-0.8-0.6-1.1
		c-0.4-0.3-0.8-0.1-1.2,0.1c-0.4,0.2-0.7,0.4-1.1,0.7c2.7-2.9,4.2-5.2,4.2-5.2c-1.1,1.2-2.7,2.5-4.4,3.6c0.2-0.3,0.3-0.7,0.4-1.1
		c0.1-0.4,0.1-0.9-0.3-1.3c-0.3-0.3-0.7-0.5-1.1-0.5c-0.4,0-0.7,0-1.1,0.1c-0.7,0-1.5-0.1-2.2-0.2c-0.6,0-1.2,0-1.8,0.1
		c-0.6,0.1-1.3,0.1-1.9,0.2c-0.6,0.1-1.3,0.1-1.6,0.6c0,0.1-0.1,0.1,0,0.2c0,0.1,0.1,0.2,0.2,0.2c0.4,0.3,0.7,0.6,1,1
		c0.5,0.6,0.8,1.3,1.1,2c0.4,0.8,0.7,1.6,1.1,2.4c-1.5,0.8-2.9,1.5-4.1,2l-0.8-10.3c9.9-4.6,15.5-13.5,15.5-13.5
		c-3.8,4.1-11.9,8-15.8,9.8l-1.8-24l-0.7,12c-0.1-0.4-0.1-0.8-0.2-1.2c0-0.2-0.1-0.5-0.3-0.6c-0.2-0.1-0.5,0-0.7,0.1
		c-0.4,0.3-0.9,0.6-1.2,0.9C34,12.3,34,12,34.1,11.8c0.1-0.2,0.2-0.4,0.4-0.5c0.2-0.3,0.4-0.6,0.5-1c0.1-0.3,0.1-0.6-0.1-0.8
		c-0.1-0.2-0.4-0.2-0.6-0.2c-0.2,0-0.4,0.1-0.7,0.1c-0.4,0.1-0.9,0-1.3,0c-0.4,0-0.7,0.1-1.1,0.2c-0.4,0.1-0.8,0.2-1.2,0.2
		c-0.4,0.1-0.8,0.2-1,0.5c0,0-0.1,0.1,0,0.1c0,0.1,0.1,0.1,0.1,0.1c0.2,0.2,0.4,0.3,0.5,0.6c0.2,0.4,0.4,0.8,0.5,1.2
		c0.3,0.8,0.5,1.6,0.8,2.4c0,0.1,0.1,0.3,0.2,0.4c0.2,0.3,0.6,0.5,1,0.5c0.4,0,0.8,0,1.1,0c0.8,0.1,1.5,0.6,2.3,0.5
		c0.4-0.1,0.8-0.3,1-0.6l-0.2,3c-2.4-0.8-6.9-2.4-10.9-4.3c0.2-0.2,0.4-0.3,0.5-0.5c0.4-0.6,0.5-1.3,0.4-2c-0.1-0.6-0.3-1.2-0.4-1.9
		c-0.1-1.3,0.3-2.9-0.1-4c-0.4-1-1.4-1.5-2.3-1.2C23,4.8,22.6,5,22.2,5.3c-1,0.6-2,1.3-3,1.9c-0.3,0.2-0.7,0.5-0.8,0.9
		c-0.1,0.5,0.2,0.8,0.4,1.1c0.5,0.5,1.2,1,1.8,1.3c-0.1,0.3-0.4,0.4-0.6,0.5c0,0-0.1-0.1-0.1-0.1c0,0,0,0,0.1,0.1
		c-0.1,0-0.2,0-0.2,0c-0.3,0-0.6-0.1-0.9-0.2c-0.5-0.2-1.1-0.2-1.7-0.1c-0.4,0.1-0.9,0.2-1.1,0.7c-0.2,0.4-0.2,0.8-0.1,1.2
		c0.1,0.4,0.3,0.7,0.4,1c0.3,0.7,0.3,1.4,0.5,2.2c0.2,0.6,0.4,1.1,0.6,1.6c0.3,0.6,0.5,1.2,0.8,1.7c0.3,0.6,0.6,1.2,1.1,1.3
		c0.1,0,0.2,0,0.2,0c0.1-0.1,0.1-0.2,0.1-0.3c0.2-0.4,0.4-0.9,0.6-1.2c0.4-0.6,1-1.2,1.6-1.7c0.8-0.7,1.5-1.5,2.3-2.2
		c2.7,2.2,6.7,4.7,11.7,6.4l-0.7,12.9c-4-1.4-11.7-4.3-15.3-7.3c0,0,5.5,6.7,15.2,10.2l-0.7,12.9c-2.1-0.8-5-1.8-7.8-3.1
		c0-0.2,0-0.5-0.1-0.7c-0.1-0.6-0.4-1.2-0.5-1.9c-0.2-1.3,0.1-2.9-0.5-4c-0.4-0.9-1.5-1.4-2.4-1c-0.4,0.2-0.8,0.5-1.2,0.8
		c-0.9,0.7-1.9,1.5-2.8,2.2c-0.3,0.2-0.7,0.5-0.7,1c-0.1,0.5,0.2,0.8,0.5,1.1c0.6,0.5,1.2,0.9,1.9,1.2c-0.1,0.4-0.5,0.6-0.8,0.6
		c-0.3,0-0.6-0.1-0.9-0.2c-0.5-0.1-1.1-0.1-1.7,0c-0.4,0.1-0.9,0.3-1.1,0.8c-0.2,0.4-0.1,0.8,0,1.2c0.1,0.3,0.3,0.6,0.5,1
		c0.3,0.6,0.5,1.4,0.7,2.1c0.2,0.6,0.5,1.1,0.8,1.6c0.3,0.6,0.6,1.1,0.9,1.7c0.3,0.5,0.7,1.1,1.2,1.2c0.1,0,0.2,0,0.2,0
		c0.1-0.1,0.1-0.2,0.1-0.3c0.1-0.5,0.3-0.9,0.5-1.3c0.4-0.7,0.9-1.3,1.4-1.8c1-1.1,1.9-2.2,2.9-3.2c0.1-0.1,0.2-0.2,0.3-0.3
		c2.2,1.5,4.9,3.1,8.1,4.4l-1,18.4h9.3l-1-13.5c3.3-1.4,6-3.1,8.1-4.7c0,0,0,0.1,0,0.1c0,0.1,0.1,0.3,0.2,0.4c0.2,0.3,0.6,0.5,1,0.5
		c0.4,0,0.8,0,1.1,0c0.8,0.1,1.5,0.6,2.3,0.5c0.6-0.1,1.2-0.6,1.3-1.3c0-0.3,0-0.6,0-0.9C55.3,52.1,55.2,51.4,55.1,50.7z"/>
	<path fill="#0DB89A" d="M31.8,38.9c0.2-0.3,0.4-0.6,0.5-1c0.1-0.3,0.1-0.6-0.1-0.8c-0.1-0.2-0.4-0.2-0.6-0.2
		c-0.2,0-0.4,0.1-0.7,0.1c-0.4,0.1-0.9,0-1.3,0c-0.4,0-0.7,0.1-1.1,0.2c-0.4,0.1-0.8,0.2-1.2,0.2c-0.4,0.1-0.8,0.2-1,0.5
		c0,0-0.1,0.1,0,0.1c0,0.1,0.1,0.1,0.1,0.1c0.2,0.2,0.4,0.3,0.5,0.6c0.2,0.4,0.4,0.8,0.5,1.2c0.3,0.8,0.5,1.6,0.8,2.4
		c0,0.1,0.1,0.3,0.2,0.4c0.2,0.3,0.6,0.5,1,0.5c0.4,0,0.8,0,1.1,0c0.8,0.1,1.5,0.6,2.3,0.5c0.6-0.1,1.2-0.6,1.3-1.3
		c0-0.3,0-0.6,0-0.9c-0.1-0.7-0.2-1.4-0.3-2.1c0-0.2-0.1-0.5-0.3-0.6c-0.2-0.1-0.5,0-0.7,0.1c-0.4,0.3-0.9,0.6-1.2,0.9
		c-0.2-0.1-0.2-0.4-0.1-0.6C31.5,39.2,31.7,39.1,31.8,38.9z"/>
	<path fill="#0DB89A" d="M32.5,57.6c0-0.2-0.1-0.5-0.3-0.6c-0.2-0.1-0.5,0-0.7,0.1c-0.4,0.3-0.9,0.6-1.2,0.9
		c-0.2-0.1-0.2-0.4-0.1-0.6c0.1-0.2,0.2-0.4,0.4-0.5c0.2-0.3,0.4-0.6,0.5-1c0.1-0.3,0.1-0.6-0.1-0.8c-0.1-0.2-0.4-0.2-0.6-0.2
		c-0.2,0-0.4,0.1-0.7,0.1c-0.4,0.1-0.9,0-1.3,0c-0.4,0-0.7,0.1-1.1,0.2c-0.4,0.1-0.8,0.2-1.2,0.2c-0.4,0.1-0.8,0.2-1,0.5
		c0,0-0.1,0.1,0,0.1c0,0.1,0.1,0.1,0.1,0.1c0.2,0.2,0.4,0.3,0.5,0.6c0.2,0.4,0.4,0.8,0.5,1.2c0.3,0.8,0.5,1.6,0.8,2.4
		c0,0.1,0.1,0.3,0.2,0.4c0.2,0.3,0.6,0.5,1,0.5c0.4,0,0.8,0,1.1,0c0.8,0.1,1.5,0.6,2.3,0.5c0.6-0.1,1.2-0.6,1.3-1.3
		c0-0.3,0-0.6,0-0.9C32.7,59,32.6,58.3,32.5,57.6z"/>
	<path fill="#0DB89A" d="M58.5,39.8c0.4,0,0.8,0,1.1,0c0.8,0.1,1.5,0.6,2.3,0.5c0.6-0.1,1.2-0.6,1.3-1.3c0-0.3,0-0.6,0-0.9
		c-0.1-0.7-0.2-1.4-0.3-2.1c0-0.2-0.1-0.5-0.3-0.6c-0.2-0.1-0.5,0-0.7,0.1c-0.4,0.3-0.9,0.6-1.2,0.9c-0.2-0.1-0.2-0.4-0.1-0.6
		c0.1-0.2,0.2-0.4,0.4-0.5c0.2-0.3,0.4-0.6,0.5-1c0.1-0.3,0.1-0.6-0.1-0.8c-0.1-0.2-0.4-0.2-0.6-0.2c-0.2,0-0.4,0.1-0.7,0.1
		c-0.4,0.1-0.9,0-1.3,0c-0.4,0-0.7,0.1-1.1,0.2c-0.4,0.1-0.8,0.2-1.2,0.2c-0.4,0.1-0.8,0.2-1,0.5c0,0-0.1,0.1,0,0.1
		c0,0.1,0.1,0.1,0.1,0.1c0.2,0.2,0.4,0.3,0.5,0.6c0.2,0.4,0.4,0.8,0.5,1.2c0.3,0.8,0.5,1.6,0.8,2.4c0,0.1,0.1,0.3,0.2,0.4
		C57.7,39.7,58.1,39.8,58.5,39.8z"/>
	<path fill="#0DB89A" d="M65.1,51.6c-0.1-0.7-0.2-1.4-0.3-2.1c0-0.2-0.1-0.5-0.3-0.6c-0.2-0.1-0.5,0-0.7,0.1
		c-0.4,0.3-0.9,0.6-1.2,0.9c-0.2-0.1-0.2-0.4-0.1-0.6c0.1-0.2,0.2-0.4,0.4-0.5c0.2-0.3,0.4-0.6,0.5-1c0.1-0.3,0.1-0.6-0.1-0.8
		c-0.1-0.2-0.4-0.2-0.6-0.2c-0.2,0-0.4,0.1-0.7,0.1c-0.4,0.1-0.9,0-1.3,0c-0.4,0-0.7,0.1-1.1,0.2c-0.4,0.1-0.8,0.2-1.2,0.2
		c-0.4,0.1-0.8,0.2-1,0.5c0,0-0.1,0.1,0,0.1c0,0.1,0.1,0.1,0.1,0.1c0.2,0.2,0.4,0.3,0.5,0.6c0.2,0.4,0.4,0.8,0.5,1.2
		c0.3,0.8,0.5,1.6,0.8,2.4c0,0.1,0.1,0.3,0.2,0.4c0.2,0.3,0.6,0.5,1,0.5c0.4,0,0.8,0,1.1,0c0.8,0.1,1.5,0.6,2.3,0.5
		c0.6-0.1,1.2-0.6,1.3-1.3C65.2,52.2,65.1,51.9,65.1,51.6z"/>
</g>
</svg>
