<?xml version="1.0" encoding="utf-8"?>
<!-- Generator: Adobe Illustrator 18.0.0, SVG Export Plug-In . SVG Version: 6.00 Build 0)  -->
<!DOCTYPE svg PUBLIC "-//W3C//DTD SVG 1.1//EN" "http://www.w3.org/Graphics/SVG/1.1/DTD/svg11.dtd">
<svg version="1.1" id="Layer_1" xmlns="http://www.w3.org/2000/svg" xmlns:xlink="http://www.w3.org/1999/xlink" x="0px" y="0px"
	 viewBox="0 0 72 72" enable-background="new 0 0 72 72" xml:space="preserve">
<g>
	<path fill="#E77528" d="M48.8,31.5c0-0.5,0-1.1-0.3-1.6c-0.1-0.2-0.3-0.3-0.4-0.5c-0.5-0.7-0.4-1.7-0.3-2.6c-0.2,0.6-0.7,1-1.2,1.2
		c-0.7,0.3-1.5,0.1-2.2,0.5c-0.5,0.2-0.8,0.8-0.9,1.3c-0.1,0.5,0.1,1.1,0.5,1.5c0.3,0.3,0.7,0.5,1.1,0.7c0.1,0.1,0.2,0.1,0.2,0.2
		c-1.2,1.8-3.2,4.5-6.2,6.8c-0.1-0.5-0.2-1.1-0.3-1.6c-0.6-2.4-2.1-4.5-2.4-6.9c-0.1-0.7,0-1.4,0.1-2.1c3.9-1.7,13.9-6.5,16.8-13.8
		c0.9,0,1.7-0.8,1.7-1.8c0-1-0.8-1.8-1.8-1.8c-1,0-1.8,0.8-1.8,1.8c0,0.7,0.4,1.3,1,1.6c-1.7,2.4-4.6,5.9-9,8.3
		c0.1-0.3,0.2-0.6,0.2-0.9c0-1.4-1.1-2.6-2.6-2.6s-2.6,1.1-2.6,2.6c0,1,0.6,1.9,1.5,2.3c-0.9,0.3-1.8,0.5-2.8,0.7
		c0.4-2.5,0.4-5.1,0.2-7.7c1.8-1.4,3.5-3.3,3.7-5.5c0,0-1.2,2.6-3.8,4.5c-0.2-2-0.5-4.1-0.8-6.1c0,2.9-0.8,5.8-1.6,8.6
		c-5.5-3.7-8.2-9-8.6-9.7c0.5-0.6,0.9-1.4,0.9-2.2c0-1.8-1.5-3.2-3.2-3.2c-1.8,0-3.2,1.5-3.2,3.2c0,1.8,1.5,3.2,3.2,3.2
		c0.9,0,1.7-0.4,2.3-1c0.6,4.7,4.2,8.5,8.1,11.3c-0.9,2.8-1.8,5.7-2.1,8.6c0,0.1,0,0.1,0,0.2c-5.5-4-8.1-9.4-8.1-9.4
		c0.5,4.6,4,8.4,7.9,11.3c-0.1,2.3,0.1,4.7,0.3,7C20.9,36,15.8,25.1,15.8,25.1c0.9,8.5,12.1,14.3,16.9,16.4c0.2,2.2,0.3,4.3,0.2,6.5
		c-1.7,7-3.8,12.5-7.7,20c-0.7,1.4-1.9,2.4-3,3.5c7.8-0.2,15.6-0.4,23.4-0.6c-1.3-3.9-2.6-7.8-3.9-11.7c-1.4-4.2-2.8-8.5-2.8-13
		c0-1.7,0.2-3.5,0.2-5.2c2.8-2.2,5.3-4.8,6.6-7.9c0,0,0,0,0,0c0.8-0.2,1.6-0.4,2.3-0.7c0.2,0,0.3-0.1,0.5-0.2
		C48.7,32,48.8,31.8,48.8,31.5z"/>
	<path fill="#F04B36" d="M30.3,5.7C30.7,6,30.9,6.4,31,6.8c0.8-0.2,1.6-0.4,2.3-0.7c0.2,0,0.3-0.1,0.5-0.2C34,5.7,34,5.5,34,5.2
		c0-0.5,0-1.1-0.3-1.6c-0.1-0.2-0.3-0.3-0.4-0.5c-0.5-0.7-0.4-1.7-0.3-2.6c-0.2,0.6-0.7,1-1.2,1.2c-0.7,0.3-1.5,0.1-2.2,0.5
		c-0.5,0.2-0.8,0.8-0.9,1.3C28.7,4,28.9,4.6,29.3,5C29.6,5.3,30,5.4,30.3,5.7z"/>
	<path fill="#F04B36" d="M44.2,14c0.3,0.3,0.6,0.6,0.7,1.1c0.8-0.2,1.6-0.4,2.3-0.7c0.2,0,0.3-0.1,0.5-0.2c0.2-0.2,0.2-0.4,0.2-0.7
		c0-0.5,0-1.1-0.3-1.6c-0.1-0.2-0.3-0.3-0.4-0.5c-0.5-0.7-0.4-1.7-0.3-2.6c-0.2,0.6-0.7,1-1.2,1.2c-0.7,0.3-1.5,0.1-2.2,0.5
		c-0.5,0.2-0.8,0.8-0.9,1.3c-0.1,0.5,0.1,1.1,0.5,1.5C43.4,13.5,43.8,13.7,44.2,14z"/>
	<path fill="#F04B36" d="M20.6,17.1c0.3,0.3,0.6,0.6,0.7,1.1c0.8-0.2,1.6-0.4,2.3-0.7c0.2,0,0.3-0.1,0.5-0.2
		c0.2-0.2,0.2-0.4,0.2-0.7c0-0.5,0-1.1-0.3-1.6c-0.1-0.2-0.3-0.3-0.4-0.5c-0.5-0.7-0.4-1.7-0.3-2.6c-0.2,0.6-0.7,1-1.2,1.2
		c-0.7,0.3-1.5,0.1-2.2,0.5c-0.5,0.2-0.8,0.8-0.9,1.3c-0.1,0.5,0.1,1.1,0.5,1.5C19.9,16.7,20.3,16.8,20.6,17.1z"/>
	<path fill="#F04B36" d="M17.8,34.8c-0.2-0.4-0.2-0.8-0.2-1.3c-0.8-0.1-1.6-0.3-2.4-0.4c-0.2,0-0.3-0.1-0.5,0
		c-0.2,0.1-0.4,0.3-0.5,0.5c-0.3,0.5-0.5,1-0.5,1.5c0,0.2,0.1,0.4,0.1,0.6c0.2,0.9-0.4,1.7-0.9,2.5c0.4-0.4,1-0.6,1.6-0.6
		c0.8,0.1,1.4,0.6,2.2,0.5c0.5,0,1.1-0.3,1.4-0.8c0.3-0.5,0.4-1.1,0.2-1.6C18.3,35.5,18,35.2,17.8,34.8z"/>
	<path fill="#F04B36" d="M22.8,43.6c0.8,0.1,1.4,0.6,2.2,0.5c0.5,0,1.1-0.3,1.4-0.8c0.3-0.5,0.4-1.1,0.2-1.6
		c-0.2-0.4-0.4-0.7-0.6-1.1c-0.2-0.4-0.2-0.8-0.2-1.3c-0.8-0.1-1.6-0.3-2.4-0.4c-0.2,0-0.3-0.1-0.5,0c-0.2,0.1-0.4,0.3-0.5,0.5
		c-0.3,0.5-0.5,1-0.5,1.5c0,0.2,0.1,0.4,0.1,0.6c0.2,0.9-0.4,1.7-0.9,2.5C21.6,43.7,22.2,43.5,22.8,43.6z"/>
	<path fill="#F04B36" d="M60.1,21.3c-0.2-0.2-0.4-0.4-0.6-0.6c-0.5-0.4-1-0.9-1.5-1.3c-0.2-0.1-0.4-0.3-0.6-0.3
		c-0.2,0.1-0.4,0.3-0.4,0.6c-0.1,0.5-0.2,1-0.3,1.5c-0.2,0-0.4-0.2-0.4-0.4c-0.1-0.2-0.1-0.4-0.1-0.6c0-0.4-0.1-0.7-0.3-1.1
		c-0.1-0.2-0.3-0.5-0.6-0.5c-0.2,0-0.4,0.1-0.6,0.2c-0.2,0.2-0.3,0.3-0.4,0.5c-0.3,0.3-0.6,0.6-0.9,0.9c-0.2,0.3-0.5,0.5-0.7,0.8
		c-0.2,0.3-0.5,0.6-0.7,0.9c-0.2,0.3-0.5,0.7-0.4,1c0,0.1,0,0.1,0.1,0.1c0,0,0.1,0,0.2,0c0.2,0,0.5,0,0.7,0.1
		c0.4,0.1,0.8,0.3,1.1,0.5c0.7,0.4,1.4,0.8,2.1,1.2c0.1,0.1,0.2,0.2,0.4,0.2c0.4,0.1,0.7-0.1,1-0.3c0.3-0.2,0.5-0.5,0.8-0.7
		c0.6-0.4,1.4-0.6,1.9-1.1C60.4,22.6,60.4,21.8,60.1,21.3z"/>
	<path fill="#F04B36" d="M18.9,28.1c0.3,0.1,0.7,0.1,1.1,0c0.1-0.1,0.3-0.1,0.4-0.3c0.2-0.3,0.1-0.7,0.4-0.9c0.1,0,0.1,0,0.2,0
		c0.1,0,0.1,0.2,0.1,0.3c0,0.5-0.1,1.1,0,1.6c0.1,0.5,0.7,0.9,1.1,0.8c0.2-0.1,0.3-0.2,0.5-0.4c0.1-0.1,0.2-0.2,0.2-0.4
		c0.1-0.4-0.3-0.7-0.5-1c-0.2-0.3-0.2-0.6-0.2-0.9c0.2,0,0.3,0.2,0.4,0.3c0.2,0.2,0.5,0.4,0.9,0.5c0.3,0.1,0.7,0,1-0.2
		c0.3-0.2,0.4-0.6,0.3-1c-0.2-0.5-0.8-0.7-1.3-0.7c-0.5,0-1.1,0.1-1.5,0c0.7-0.3,1.3-0.9,1.6-1.6c0.2-0.4,0.2-1-0.2-1.2
		c-0.3-0.1-0.6,0-0.9,0.1c-0.2,0.1-0.3,0.2-0.4,0.4c-0.3,0.4-0.2,1.1-0.4,1.5c-0.1,0.2-0.4,0.3-0.5,0.1c0-0.1,0-0.2,0-0.3
		c0-0.2-0.1-0.5-0.2-0.7c-0.2-0.3-0.4-0.7-0.7-0.9s-0.8-0.2-1,0c-0.3,0.2-0.3,0.7-0.2,1c0.1,0.3,0.4,0.6,0.7,0.8
		c0.3,0.2,0.7,0.4,1,0.4c0.1,0.2,0,0.4-0.2,0.5c-0.2,0.1-0.4,0.1-0.6,0.1c-0.3,0-0.7,0.1-1,0.3c-0.1,0.1-0.8,0.9-0.5,1.2
		C18.6,27.9,18.7,28,18.9,28.1z"/>
	<path fill="#F04B36" d="M53.5,37.8c-0.5,0-1.1,0.1-1.5,0c0.7-0.3,1.3-0.9,1.6-1.6c0.2-0.4,0.2-1-0.2-1.2c-0.3-0.1-0.6,0-0.9,0.1
		c-0.2,0.1-0.3,0.2-0.4,0.4c-0.3,0.4-0.2,1.1-0.4,1.5c-0.1,0.2-0.4,0.3-0.5,0.1c0-0.1,0-0.2,0-0.3c0-0.2-0.1-0.5-0.2-0.7
		c-0.2-0.3-0.4-0.7-0.7-0.9c-0.3-0.2-0.8-0.2-1,0c-0.3,0.2-0.3,0.7-0.2,1c0.1,0.3,0.4,0.6,0.7,0.8c0.3,0.2,0.7,0.4,1,0.4
		c0.1,0.2,0,0.4-0.2,0.5c-0.2,0.1-0.4,0.1-0.6,0.1c-0.3,0-0.7,0.1-1,0.3c-0.1,0.1-0.8,0.9-0.5,1.2c0.1,0.1,0.2,0.2,0.3,0.2
		c0.3,0.1,0.7,0.1,1.1,0c0.1-0.1,0.3-0.1,0.4-0.3c0.2-0.3,0.1-0.7,0.4-0.9c0.1,0,0.1,0,0.2,0c0.1,0,0.1,0.2,0.1,0.3
		c0,0.5-0.1,1.1,0,1.6c0.1,0.5,0.7,0.9,1.1,0.8c0.2-0.1,0.3-0.2,0.5-0.4c0.1-0.1,0.2-0.2,0.2-0.4c0.1-0.4-0.3-0.7-0.5-1
		c-0.2-0.3-0.2-0.6-0.2-0.9c0.2,0,0.3,0.2,0.4,0.3c0.2,0.2,0.5,0.4,0.9,0.5c0.3,0.1,0.7,0,1-0.2c0.3-0.2,0.4-0.6,0.3-1
		C54.6,38,54,37.8,53.5,37.8z"/>
	<circle fill="#F04B36" cx="53.2" cy="29.6" r="1.8"/>
	<circle fill="#F04B36" cx="39.6" cy="6.1" r="2.9"/>
	<circle fill="#F04B36" cx="13.8" cy="21.9" r="2.1"/>
	<circle fill="#F04B36" cx="28.5" cy="32.8" r="2.9"/>
</g>
</svg>
