<?xml version="1.0" encoding="utf-8"?>
<!-- Generator: Adobe Illustrator 18.0.0, SVG Export Plug-In . SVG Version: 6.00 Build 0)  -->
<!DOCTYPE svg PUBLIC "-//W3C//DTD SVG 1.1//EN" "http://www.w3.org/Graphics/SVG/1.1/DTD/svg11.dtd">
<svg version="1.1" id="Layer_1" xmlns="http://www.w3.org/2000/svg" xmlns:xlink="http://www.w3.org/1999/xlink" x="0px" y="0px"
	 viewBox="0 0 72 72" enable-background="new 0 0 72 72" xml:space="preserve">
<g>
	<path fill="#F7A93B" d="M62.1,13.1c0.5-0.4,0.7-1,0.7-1.6c0-0.6-0.2-1.2-0.4-1.8c-0.5-1.1-1.1-2.2-1.9-3.1c-0.2,1.2-1.3,1.9-1.8,3
		c-0.5,1.1-0.2,2.5,0.7,3.3C60.2,13.5,61.4,13.7,62.1,13.1z"/>
	<path fill="#F7A93B" d="M43.9,11.4c0.5-0.4,0.7-1,0.7-1.6c0-0.6-0.2-1.2-0.4-1.8c-0.5-1.1-1.1-2.2-1.9-3.1c-0.2,1.2-1.3,1.9-1.8,3
		c-0.5,1.1-0.2,2.5,0.7,3.3C41.9,11.8,43.1,12.1,43.9,11.4z"/>
	<path fill="#F7A93B" d="M17.6,27.4c0.5-0.4,0.7-1,0.7-1.6c0-0.6-0.2-1.2-0.4-1.8c-0.5-1.1-1.1-2.2-1.9-3.1c-0.2,1.2-1.3,1.9-1.8,3
		c-0.5,1.1-0.2,2.5,0.7,3.3C15.6,27.8,16.8,28,17.6,27.4z"/>
	<path fill="#F7A93B" d="M46.4,27.5c-0.5,1.1-0.2,2.5,0.7,3.3c0.7,0.7,1.9,0.9,2.7,0.3c0.5-0.4,0.7-1,0.7-1.6c0-0.6-0.2-1.2-0.4-1.8
		c-0.5-1.1-1.1-2.2-1.9-3.1C48,25.7,46.9,26.5,46.4,27.5z"/>
	<path fill="#F7A93B" d="M50.1,16.9c-0.5-1.1-1.1-2.2-1.9-3.1c-0.2,1.2-1.3,1.9-1.8,3c-0.5,1.1-0.2,2.5,0.7,3.3
		c0.7,0.7,1.9,0.9,2.7,0.3c0.5-0.4,0.7-1,0.7-1.6C50.5,18.1,50.4,17.5,50.1,16.9z"/>
	<path fill="#F7A93B" d="M57.8,25.5c0.5-0.4,0.7-1,0.7-1.6c0-0.6-0.2-1.2-0.4-1.8c-0.5-1.1-1.1-2.2-1.9-3.1c-0.2,1.2-1.3,1.9-1.8,3
		c-0.5,1.1-0.2,2.5,0.7,3.3C55.8,25.9,57,26.1,57.8,25.5z"/>
	<path fill="#E77528" d="M65.8,32.8c-0.8,0-1.6,0.2-2.4-0.1c1.2-0.5,2.1-1.5,2.5-2.7c0.2-0.7,0.3-1.6-0.3-1.9
		c-0.4-0.2-0.9,0-1.4,0.2c-0.3,0.2-0.5,0.4-0.7,0.6c-0.5,0.7-0.3,1.8-0.7,2.5c-0.2,0.3-0.7,0.6-0.8,0.2c-0.1-0.1,0-0.3,0-0.4
		c0-0.4-0.1-0.8-0.3-1.2c-0.3-0.5-0.6-1.1-1.1-1.4c-0.5-0.3-1.2-0.4-1.6,0c-0.4,0.4-0.5,1-0.3,1.5c-0.4,0.3-0.8,0.7-1.4,1.1
		c-0.4-0.6-1.1-0.9-1.9-0.9c-1.3,0-2.4,1.1-2.4,2.4c0,0.4,0.1,0.7,0.3,1c-3.6,1.9-8.8,3.8-15.7,4.5c0.5-1.8,0.5-3.6,0.3-5.5
		c1.5-0.6,2.9-1.3,3.8-2.2c0.4,0.4,1,0.7,1.6,0.7c1.2,0,2.2-1,2.2-2.2c0-1.2-1-2.2-2.2-2.2c-1.2,0-2.2,1-2.2,2.2
		c0,0.4,0.1,0.7,0.3,1c-0.8,0.6-2,1.3-3.6,2c-0.1-0.6-0.2-1.2-0.4-1.7c1-0.1,1.8-0.9,1.8-1.9c0-1.1-0.9-2-2-2c-1.1,0-2,0.9-2,2
		c0,0.7,0.4,1.3,1,1.7c-0.4,1.3-1,2.5-1.7,3.8C32.1,33.1,30,32,28.4,31c0,0-0.1-0.1-0.1-0.1c0,0,0,0,0,0c-2.2-1.3-3.7-2.6-4.5-3.3
		c0,0,0.1-0.1,0.1-0.1c0.1-0.1,0.2-0.3,0.2-0.4c0.1-0.4-0.3-0.7-0.5-1.1c-0.2-0.3-0.2-0.7-0.2-1c0.2,0,0.3,0.2,0.5,0.3
		c0.2,0.3,0.6,0.5,0.9,0.5c0.4,0.1,0.8,0,1.1-0.2c0.3-0.2,0.5-0.7,0.3-1.1c-0.2-0.6-0.8-0.7-1.4-0.7c-0.5,0-1.1,0.2-1.6,0
		c0.8-0.3,1.4-1,1.7-1.8c0.2-0.5,0.2-1.1-0.2-1.3c-0.3-0.2-0.6,0-0.9,0.1c-0.2,0.1-0.4,0.3-0.5,0.4c-0.3,0.5-0.2,1.2-0.5,1.7
		c-0.1,0.2-0.5,0.4-0.6,0.2c0-0.1,0-0.2,0-0.3c0-0.3-0.1-0.5-0.2-0.8c-0.2-0.4-0.4-0.7-0.7-0.9c-0.3-0.2-0.8-0.2-1.1,0
		c-0.3,0.3-0.3,0.7-0.2,1.1c0.1,0.4,0.4,0.6,0.7,0.9c0.3,0.2,0.7,0.4,1.1,0.5c0.1,0.2,0,0.4-0.2,0.5c-0.2,0.1-0.4,0.1-0.6,0.1
		c-0.4,0-0.7,0.2-1,0.4c-0.1,0.1-0.8,1-0.6,1.4c0.1,0.1,0.2,0.2,0.3,0.2c0.4,0.2,0.8,0.2,1.1,0c0.1-0.1,0.3-0.2,0.4-0.3
		c0.2-0.3,0.1-0.8,0.5-1c0.1,0,0.1,0,0.2,0c0.1,0.1,0.1,0.2,0.1,0.4c0,0.6-0.1,1.2,0,1.7c0.2,0.6,0.7,1.1,1.2,0.9c0,0,0,0,0,0
		c0.7,1.6,2.2,3,4.3,4.2c-0.4,0.6-0.9,1.1-1.2,1.7c-0.5,1.1-0.2,2.5,0.7,3.3c0.7,0.7,1.9,0.9,2.7,0.3c0.5-0.4,0.7-1,0.7-1.6
		c0-0.6-0.2-1.2-0.4-1.8c-0.1-0.2-0.2-0.4-0.3-0.7c1.3,0.6,2.6,1.2,4,1.8c-1.2,2-2.4,4-2.8,6.1c0,0,0,0.1,0,0.1
		c-4.9-1.9-8.1-4.2-9.6-5.6c0.3,0,0.5-0.1,0.8-0.3c0.5-0.4,0.7-1,0.7-1.6c0-0.6-0.2-1.2-0.4-1.8c-0.5-1.1-1.1-2.2-1.9-3.1
		c-0.2,1.2-1.3,1.9-1.8,3c-0.5,1.1-0.2,2.5,0.7,3.3c0.3,0.3,0.7,0.5,1.2,0.6c1.4,2.8,5.6,5.2,10.2,7c-0.1,1.7,0.1,3.3,0.4,5
		c-10.7-1.1-17.2-5.2-20.2-7.6c0-0.1,0-0.2,0-0.3c0-1.7-1.4-3-3-3c-1.7,0-3,1.4-3,3c0,1.7,1.4,3,3,3c1.2,0,2.2-0.7,2.7-1.7
		c4.3,4.5,15.5,7.6,20.9,8.9c0.3,1.5,0.4,3.1,0.3,4.6c-2.3,5-5,8.9-10.2,14.3c-0.9,1-2.6,1.7-4,2.5c10.4-0.2,20.7-0.3,31.1-0.5
		c-1.7-2.8-3.4-5.5-5.1-8.3c-1.8-3-3.7-6.1-3.7-9.2c0-1.2,0.3-2.5,0.3-3.7c3.3-1.4,6.4-3,8.2-5c0.5,1.2,1.7,2.1,3.1,2.1
		c1.8,0,3.3-1.5,3.3-3.3c0-1.8-1.5-3.3-3.3-3.3c-1.8,0-3.3,1.5-3.3,3.3c-1.6,1.3-4.3,3.1-8.1,4.7c-0.1-0.4-0.2-0.8-0.4-1.1
		c-0.8-1.7-2.9-3.2-3.1-4.9c-0.1-0.5,0-1,0.1-1.5c1.4-0.3,3.3-0.8,5.5-1.4c-0.3,0.4-0.7,0.8-0.9,1.3c-0.5,1.1-0.2,2.5,0.7,3.3
		c0.7,0.7,1.9,0.9,2.7,0.3c0.5-0.4,0.7-1,0.7-1.6c0-0.6-0.2-1.2-0.4-1.8c-0.3-0.7-0.6-1.4-1.1-2c3.4-1,7.2-2.4,10.3-4.1
		c0.3,0.2,0.7,0.3,1.2,0.3c1.3,0,2.4-1.1,2.4-2.4c0-0.1,0-0.2,0-0.3c0.5-0.5,1-0.9,1.3-1.4c0.2,0.2,0.4,0.5,0.7,0.6
		c0.5,0.4,1,0.7,1.6,0.7c0.2,0.3,0,0.6-0.3,0.8c-0.3,0.1-0.6,0.1-0.9,0.1c-0.5,0-1.1,0.2-1.5,0.5c-0.2,0.1-1.2,1.5-0.8,2
		c0.1,0.2,0.3,0.3,0.5,0.4c0.5,0.2,1.2,0.2,1.7,0c0.2-0.1,0.4-0.2,0.6-0.4c0.3-0.5,0.2-1.2,0.7-1.4c0.1,0,0.2-0.1,0.3,0
		c0.2,0.1,0.2,0.3,0.2,0.5c0,0.9-0.2,1.7,0,2.6c0.2,0.8,1,1.6,1.8,1.3c0.3-0.1,0.5-0.4,0.8-0.6c0.2-0.2,0.3-0.4,0.4-0.6
		c0.1-0.6-0.5-1.1-0.8-1.6c-0.3-0.4-0.4-1-0.3-1.5c0.3,0,0.5,0.3,0.7,0.5c0.4,0.4,0.8,0.7,1.3,0.8c0.5,0.1,1.1,0,1.6-0.3
		c0.4-0.4,0.7-1,0.5-1.6C67.6,33,66.6,32.7,65.8,32.8z"/>
	<path fill="#F7A93B" d="M36.1,17.3c-0.1-0.1,0-0.3,0-0.4c0-0.4-0.1-0.8-0.3-1.2c-0.3-0.5-0.6-1.1-1.1-1.4c-0.5-0.3-1.2-0.4-1.6,0
		c-0.4,0.4-0.5,1.1-0.3,1.6c0.2,0.5,0.6,1,1.1,1.3c0.5,0.4,1,0.7,1.6,0.7c0.2,0.3,0,0.6-0.3,0.8c-0.3,0.1-0.6,0.1-0.9,0.1
		c-0.5,0-1.1,0.2-1.5,0.5c-0.2,0.1-1.2,1.5-0.8,2c0.1,0.2,0.3,0.3,0.5,0.4c0.5,0.2,1.2,0.2,1.7,0c0.2-0.1,0.4-0.2,0.6-0.4
		c0.3-0.5,0.2-1.2,0.7-1.4c0.1,0,0.2-0.1,0.3,0c0.2,0.1,0.2,0.3,0.2,0.5c0,0.9-0.2,1.7,0,2.6c0.2,0.8,1,1.6,1.8,1.3
		c0.3-0.1,0.5-0.4,0.8-0.6c0.2-0.2,0.3-0.4,0.4-0.6c0.1-0.6-0.5-1.1-0.8-1.6c-0.3-0.4-0.4-1-0.3-1.5c0.3,0,0.5,0.3,0.7,0.5
		c0.4,0.4,0.8,0.7,1.3,0.8c0.5,0.1,1.1,0,1.6-0.3c0.4-0.4,0.7-1,0.5-1.6c-0.3-0.8-1.2-1.1-2-1.1c-0.8,0-1.6,0.2-2.4-0.1
		c1.2-0.5,2.1-1.5,2.5-2.7c0.2-0.7,0.3-1.6-0.3-1.9c-0.4-0.2-0.9,0-1.4,0.2c-0.3,0.2-0.5,0.4-0.7,0.6c-0.5,0.7-0.3,1.8-0.7,2.5
		C36.7,17.4,36.2,17.6,36.1,17.3z"/>
	<path fill="#F7A93B" d="M22,15.4c0.4,0.2,0.8,0.2,1.1,0c0.1-0.1,0.3-0.2,0.4-0.3c0.2-0.3,0.1-0.8,0.5-1c0.1,0,0.1,0,0.2,0
		c0.1,0.1,0.1,0.2,0.1,0.4c0,0.6-0.1,1.2,0,1.7c0.2,0.6,0.7,1.1,1.2,0.9c0.2-0.1,0.4-0.2,0.5-0.4c0.1-0.1,0.2-0.3,0.2-0.4
		c0.1-0.4-0.3-0.7-0.5-1.1c-0.2-0.3-0.2-0.7-0.2-1c0.2,0,0.3,0.2,0.5,0.3c0.2,0.3,0.6,0.5,0.9,0.5c0.4,0.1,0.8,0,1.1-0.2
		c0.3-0.2,0.5-0.7,0.3-1.1c-0.2-0.6-0.8-0.7-1.4-0.7c-0.5,0-1.1,0.2-1.6,0c0.8-0.3,1.4-1,1.7-1.8c0.2-0.5,0.2-1.1-0.2-1.3
		c-0.3-0.2-0.6,0-0.9,0.1c-0.2,0.1-0.4,0.3-0.5,0.4c-0.3,0.5-0.2,1.2-0.5,1.7c-0.1,0.2-0.5,0.4-0.6,0.2c0-0.1,0-0.2,0-0.3
		c0-0.3-0.1-0.5-0.2-0.8c-0.2-0.4-0.4-0.7-0.7-0.9c-0.3-0.2-0.8-0.2-1.1,0c-0.3,0.3-0.3,0.7-0.2,1.1c0.1,0.4,0.4,0.6,0.7,0.9
		c0.3,0.2,0.7,0.4,1.1,0.5c0.1,0.2,0,0.4-0.2,0.5c-0.2,0.1-0.4,0.1-0.6,0.1c-0.4,0-0.7,0.2-1,0.4c-0.1,0.1-0.8,1-0.6,1.4
		C21.8,15.3,21.9,15.4,22,15.4z"/>
	<path fill="#F7A93B" d="M45,6.1c0.4,0.2,0.8,0.2,1.1,0C46.3,6,46.4,6,46.5,5.8c0.2-0.3,0.1-0.8,0.5-1c0.1,0,0.1,0,0.2,0
		c0.1,0.1,0.1,0.2,0.1,0.4c0,0.6-0.1,1.2,0,1.7C47.5,7.5,48,8,48.5,7.8c0.2-0.1,0.4-0.2,0.5-0.4c0.1-0.1,0.2-0.3,0.2-0.4
		c0.1-0.4-0.3-0.7-0.5-1.1c-0.2-0.3-0.2-0.7-0.2-1c0.2,0,0.3,0.2,0.5,0.3c0.2,0.3,0.6,0.5,0.9,0.5c0.4,0.1,0.8,0,1.1-0.2
		c0.3-0.2,0.5-0.7,0.3-1.1c-0.2-0.6-0.8-0.7-1.4-0.7c-0.5,0-1.1,0.2-1.6,0c0.8-0.3,1.4-1,1.7-1.8c0.2-0.5,0.2-1.1-0.2-1.3
		c-0.3-0.2-0.6,0-0.9,0.1c-0.2,0.1-0.4,0.3-0.5,0.4c-0.3,0.5-0.2,1.2-0.5,1.7c-0.1,0.2-0.5,0.4-0.6,0.2c0-0.1,0-0.2,0-0.3
		c0-0.3-0.1-0.5-0.2-0.8C47,1.6,46.8,1.2,46.5,1c-0.3-0.2-0.8-0.2-1.1,0c-0.3,0.3-0.3,0.7-0.2,1.1c0.1,0.4,0.4,0.6,0.7,0.9
		c0.3,0.2,0.7,0.4,1.1,0.5c0.1,0.2,0,0.4-0.2,0.5c-0.2,0.1-0.4,0.1-0.6,0.1c-0.4,0-0.7,0.2-1,0.4c-0.1,0.1-0.8,1-0.6,1.4
		C44.7,6,44.9,6.1,45,6.1z"/>
	<path fill="#F7A93B" d="M5.6,31.4C5.8,31.3,6,31.1,6.1,31c0.1-0.1,0.2-0.3,0.2-0.4c0.1-0.4-0.3-0.7-0.5-1.1c-0.2-0.3-0.2-0.7-0.2-1
		c0.2,0,0.3,0.2,0.5,0.3C6.4,29,6.7,29.2,7,29.3c0.4,0.1,0.8,0,1.1-0.2c0.3-0.2,0.5-0.7,0.3-1.1c-0.2-0.6-0.8-0.7-1.4-0.7
		c-0.5,0-1.1,0.2-1.6,0c0.8-0.3,1.4-1,1.7-1.8C7.4,25,7.4,24.4,7,24.2c-0.3-0.2-0.6,0-0.9,0.1c-0.2,0.1-0.4,0.3-0.5,0.4
		c-0.3,0.5-0.2,1.2-0.5,1.7c-0.1,0.2-0.5,0.4-0.6,0.2c0-0.1,0-0.2,0-0.3c0-0.3-0.1-0.5-0.2-0.8c-0.2-0.4-0.4-0.7-0.7-0.9
		c-0.3-0.2-0.8-0.2-1.1,0c-0.3,0.3-0.3,0.7-0.2,1.1c0.1,0.4,0.4,0.6,0.7,0.9c0.3,0.2,0.7,0.4,1.1,0.5c0.1,0.2,0,0.4-0.2,0.5
		c-0.2,0.1-0.4,0.1-0.6,0.1c-0.4,0-0.7,0.2-1,0.4c-0.1,0.1-0.8,1-0.6,1.4c0.1,0.1,0.2,0.2,0.3,0.2c0.4,0.2,0.8,0.2,1.1,0
		c0.1-0.1,0.3-0.2,0.4-0.3c0.2-0.3,0.1-0.8,0.5-1c0.1,0,0.1,0,0.2,0c0.1,0.1,0.1,0.2,0.1,0.4c0,0.6-0.1,1.2,0,1.7
		C4.6,31.1,5.1,31.6,5.6,31.4z"/>
	<circle fill="#F7A93B" cx="67" cy="22.3" r="3.3"/>
	<circle fill="#F7A93B" cx="52.4" cy="10" r="1.2"/>
	<circle fill="#F7A93B" cx="17.4" cy="11.1" r="2.2"/>
	<circle fill="#F7A93B" cx="14.4" cy="37.8" r="2.2"/>
	<circle fill="#F7A93B" cx="31.9" cy="5.5" r="4.4"/>
	<circle fill="#F7A93B" cx="10.3" cy="17.2" r="1.4"/>
</g>
</svg>
