<?xml version="1.0" encoding="utf-8"?>
<!-- Generator: Adobe Illustrator 18.0.0, SVG Export Plug-In . SVG Version: 6.00 Build 0)  -->
<!DOCTYPE svg PUBLIC "-//W3C//DTD SVG 1.1//EN" "http://www.w3.org/Graphics/SVG/1.1/DTD/svg11.dtd">
<svg version="1.1" id="Layer_1" xmlns="http://www.w3.org/2000/svg" xmlns:xlink="http://www.w3.org/1999/xlink" x="0px" y="0px"
	 viewBox="0 0 72 72" enable-background="new 0 0 72 72" xml:space="preserve">
<g>
	<path fill="#F04B36" d="M50.5,35.2C50.5,35.2,50.5,35.2,50.5,35.2C50.4,35.2,50.4,35.2,50.5,35.2z"/>
	<path fill="#F04B36" d="M55.4,38.9c-0.1,0-0.2-0.1-0.3-0.1c-0.7,0-1.3-0.2-2-0.4c-0.1,0-0.2,0-0.2-0.1c-0.1-0.1-0.1-0.4,0.1-0.5
		c0.1-0.1,0.3-0.1,0.5-0.1c0.3,0,0.5,0,0.8,0.1c0.1,0,0.2,0,0.2,0c0.1,0,0.2-0.2,0.2-0.3c0.1-0.2,0.1-0.4,0.1-0.6
		c-0.1-0.2-0.2-0.3-0.4-0.3c-0.2,0-0.3,0-0.5,0c-0.4,0-0.9,0-1.3,0c-0.3,0-0.6-0.1-0.8-0.3c-0.1-0.1-0.1-0.3-0.2-0.5
		c-0.4-0.9-1-0.7-1.1-0.7c-0.2,0.3-0.3,0.6-0.2,1c0.1,0.3,0.2,0.7,0.3,1c0,0.1,0,0.2,0,0.3c-0.1,0.2-0.4,0.3-0.5,0.4
		c-0.2,0.1-0.3,0.3-0.4,0.5c-0.2,0.2-0.4,0.4-0.6,0.7c-0.2,0.3-0.2,0.6,0,0.8c0.2,0.2,0.6,0.1,0.9,0c0.4-0.2,0.8-0.5,1.1-0.7
		c0.3-0.2,0.6-0.5,0.7-0.9c-0.1,0.6-0.1,1.2-0.5,1.7c-0.1,0.2-0.3,0.3-0.4,0.5c-0.2,0.4-0.2,0.8-0.2,1.3c0,0.2,0,0.4,0.1,0.6
		c0,0,0,0.1,0.1,0.1c0.1,0,0.1,0,0.2,0c0.3-0.1,0.5-0.2,0.7-0.3c0.1,0,0.1-0.1,0.2-0.1c0-0.1,0.1-0.1,0.1-0.2
		c0.1-0.5,0.2-1.1,0.2-1.6c0,0.4,0,0.9,0.1,1.3c0,0.2,0.1,0.5,0.2,0.7c0.2,0.4,0.7,0.5,1.2,0.6c0,0,0.1,0,0.1,0c0,0,0.1-0.1,0.1-0.1
		c0.2-0.5,0-1.1-0.3-1.6c-0.3-0.5-0.6-1-0.6-1.6c0.3,0.2,0.6,0.2,1,0.3c0.6,0.1,1.1,0.2,1.7,0.3c0.1,0,0.1,0,0.2,0
		c0.1,0,0.1-0.1,0.2-0.2c0.1-0.3,0-0.5-0.2-0.8C55.6,39,55.5,39,55.4,38.9z"/>
	<path fill="#06728D" d="M60.7,30.9c-0.3-0.5-0.9-0.7-1.4-0.8s-1.2-0.1-1.6-0.5c0.3-0.1,0.6-0.4,0.8-0.6c0.4-0.4,0.9-0.8,1.3-1.1
		c0,0,0.1-0.1,0.1-0.1c0-0.1,0-0.2-0.1-0.3c-0.2-0.2-0.4-0.3-0.7-0.3c-0.1,0-0.2,0-0.3,0.1c-0.1,0.1-0.2,0.1-0.3,0.2
		c-0.5,0.5-1,0.9-1.5,1.3c-0.1,0.1-0.1,0.1-0.2,0.1c-0.2,0-0.3-0.2-0.3-0.4c0-0.2,0.1-0.4,0.2-0.5c0.2-0.2,0.4-0.4,0.6-0.6
		c0.1-0.1,0.1-0.1,0.2-0.2c0-0.1,0-0.2-0.1-0.3c-0.1-0.2-0.2-0.4-0.4-0.4c-0.2,0-0.4,0-0.5,0.1c-0.1,0.1-0.2,0.2-0.3,0.4
		c0.1-0.3,0.1-0.6,0.2-0.9c0-0.3,0-0.6,0-0.9c0.1,0,0.3,0.1,0.4,0.1c0.2,0,0.4-0.1,0.5-0.2c0.1-0.2,0.1-0.4,0.1-0.6
		c0-0.1,0-0.3-0.1-0.3c-0.1,0-0.2,0-0.2,0c-0.2,0-0.4,0-0.7,0c0-0.3-0.1-0.6-0.1-0.8c0.6,0,1.2-0.1,1.8,0c0.1,0,0.2,0,0.3,0
		c0.1,0,0.2-0.1,0.3-0.2c0.2-0.2,0.3-0.4,0.3-0.7c0-0.1,0-0.2-0.1-0.2c-0.1,0-0.1,0-0.2,0c-0.6,0-1.1,0-1.7-0.1c-0.3,0-0.7,0-1,0.1
		c0.1-0.6,0.5-1,0.9-1.4c0.4-0.4,0.7-1,0.6-1.5c0,0,0-0.1-0.1-0.1c0,0-0.1,0-0.1,0c-0.5,0-1,0.1-1.3,0.4c-0.2,0.2-0.3,0.4-0.3,0.6
		c-0.1,0.3-0.2,0.5-0.2,0.8c0,0,0,0,0-0.1c0-0.4,0-0.7,0-1.1c0-0.1,0-0.1,0-0.2c0-0.1-0.1-0.1-0.1-0.1c-0.2-0.2-0.4-0.3-0.7-0.5
		c-0.1,0-0.1-0.1-0.2-0.1c0,0-0.1,0.1-0.1,0.1c0,0,0,0.1-0.1,0.1c-0.6-0.7-1.3-1.3-2.1-1.9c-0.3-0.2-0.7-0.4-1.1-0.5
		c0,0,0.1-0.1,0.1-0.1c0.1-0.2,0.1-0.4,0.1-0.6c0-0.1,0-0.3-0.1-0.3c-0.1-0.1-0.2-0.1-0.2-0.1c-0.3,0-0.5-0.1-0.8-0.2
		c-0.2-0.1-0.4-0.1-0.5-0.3c-0.1-0.2-0.1-0.4,0.1-0.5c0.1,0,0.2,0,0.3,0c0.7,0.1,1.4,0.1,2,0.3c0.1,0,0.2,0.1,0.3,0.1
		c0.1,0,0.2-0.1,0.3-0.1c0.2-0.2,0.4-0.4,0.4-0.7c0-0.1,0-0.2-0.1-0.3c0,0-0.1,0-0.2-0.1c-0.6-0.1-1.1-0.2-1.7-0.3
		c-0.3-0.1-0.7-0.1-1,0c0.1-0.6,0.6-0.9,1-1.3c0.4-0.4,0.9-0.9,0.8-1.4c0,0,0-0.1,0-0.1c0,0-0.1,0-0.1,0c-0.5-0.1-1-0.1-1.3,0.2
		c-0.2,0.2-0.3,0.4-0.4,0.6c-0.2,0.4-0.4,0.8-0.5,1.3c0.2-0.5,0.3-1.1,0.3-1.6c0-0.1,0-0.1,0-0.2c0-0.1-0.1-0.1-0.1-0.1
		c-0.2-0.2-0.4-0.4-0.6-0.6c-0.1,0-0.1-0.1-0.2-0.1c0,0-0.1,0-0.1,0.1c-0.1,0.2-0.2,0.4-0.3,0.6c-0.1,0.4-0.3,0.9-0.2,1.3
		c0.1,0.2,0.2,0.4,0.2,0.6c0.2,0.6,0.1,1.2-0.1,1.8c0.1-0.4-0.2-0.7-0.4-1.1c-0.2-0.4-0.5-0.8-0.8-1.1c-0.2-0.2-0.5-0.4-0.8-0.3
		c-0.3,0.1-0.3,0.5-0.3,0.8c0.1,0.3,0.2,0.5,0.3,0.8c0.1,0.2,0.1,0.4,0.2,0.6c0.1,0.2,0.4,0.3,0.4,0.6c0,0.1,0,0.2-0.1,0.3
		c-0.1,0.3-0.4,0.5-0.5,0.8c-1.7,0.1-3.4,0.7-4.8,1.8c-1.4,1.1-2.4,2.3-3,3.8c-0.1,0-0.3,0.1-0.4,0.1c-0.3,0.1-0.7,0.2-1,0.4
		c-0.1-0.6,0.2-1.1,0.5-1.6c0.2-0.4,0.3-0.8,0.3-1.2c2.2-0.9,3.9-2.4,5-4.4c0.1,0.4,0.5,0.7,0.9,0.7c0.5,0,1-0.4,1-1
		c0-0.5-0.4-1-1-1c-0.1,0-0.2,0-0.3,0.1c0.3-0.8,0.5-1.7,0.6-2.6c0.2-3.7-1.3-6.8-4.3-9c-3.3-2-7.4-1.8-10.3,0.4
		c-1.8,1.3-2.9,3.1-3.3,5.1c-0.1,0-0.2-0.1-0.3-0.1c-0.8,0-1.6,0.4-2.1,1.1c-0.4,0.6-0.6,1.3-0.8,1.9c-0.3-0.3-0.6-0.6-1-0.9
		c-1.8-1.1-4-1-5.6,0.2c-1.4,1.1-2.1,2.6-1.9,4.3c0.2,2.2,2.2,4,4.5,4c1.1,0,2.1-0.5,2.9-1.3c0.1-0.1,0.1-0.1,0.2-0.2
		c0,0.1,0,0.1,0,0.2c0.3-0.3,0.6-0.5,0.9-0.8c-0.6,1.1-1.7,2-3,2.3l0.2,0.7c1.8-0.5,3.3-1.9,3.8-3.6c0.2-0.1,0.3-0.2,0.5-0.3
		c-0.2,0.2-0.4,0.5-0.4,0.8c0,0.5,0.4,1,1,1c0.5,0,1-0.4,1-1c0-0.5-0.4-1-1-1c-0.1,0-0.2,0-0.3,0c0.6-0.3,1.2-0.6,1.8-0.9
		c0.2-0.1,0.4-0.3,0.6-0.4c1,1.6,2.5,2.9,4.3,3.5c0,0.1,0,0.3,0,0.5c0-0.1-0.1-0.2-0.1-0.3c-0.1-0.1-0.1-0.2-0.2-0.3
		c-0.1-0.1-0.1-0.1-0.2,0c-0.1,0.1-0.1,0.2-0.1,0.2c0,0.1,0.1,0.2,0.1,0.2c0,0.1,0,0.1,0.1,0.2c0,0.1,0.1,0.1,0.1,0.2
		c0,0,0,0.1,0,0.1c0,0.1-0.1,0.2-0.1,0.3c0,0.1-0.1,0.2,0,0.3c0,0,0.1,0.1,0.3-0.2c0,0,0-0.1,0.1-0.1c0.1-0.1,0.1-0.1,0.2-0.1
		c0.1,0,0.2,0,0.3,0.1c0,0,0.1,0,0.1,0c0,0,0.1,0,0.1-0.1c0-0.1,0-0.1,0-0.2c0,0,0-0.1,0-0.1c0,0,0,0-0.1,0c-0.1,0-0.1,0-0.2,0
		c0,0-0.1,0-0.1-0.1c0,0,0-0.1,0-0.2c0,0,0,0,0.1,0c0.2,0,0.3,0,0.5,0c0,0,0.1,0,0.1,0c0,0,0,0,0.1,0c0,0,0-0.1,0.1-0.1
		c0.6,0.1,1.3,0.2,1.9,0.2c2,0,3.9-0.8,5.4-2.4c0.9-0.9,1.5-2,1.9-3.2c0.6-0.1,1-0.5,1-1.1c0-0.4-0.3-0.8-0.7-1c0-0.2,0-0.3,0-0.5
		c0-0.2,0-0.4-0.1-0.5c0.2-0.2,0.3-0.5,0.3-0.8c0-0.5-0.4-0.9-0.8-1.1c-0.4-1-1.1-1.9-2-2.6c-1.5-1.3-3.5-1.9-5.5-1.7
		c-2,0.2-3.4,1.4-4.5,2.6c-0.8,0.9-1.3,2.1-1.4,3.4c-0.4,0-0.8,0-1.2,0.1c0-0.2-0.1-0.4-0.1-0.5c0.2-2.1,1.3-3.9,3.2-5.3
		c2.7-2.1,6.4-2.2,9.5-0.4c2.8,2,4.2,4.9,4,8.3c-0.4,3.8-3.2,6.9-6.9,7.9l0.1,0.2c-0.1,0.1-0.1,0.1-0.2,0.2
		c-0.1,0.2-0.1,0.5-0.2,0.7c0,0.4,0,0.9,0,1.3c0-0.5-0.2-1.1-0.3-1.6c0-0.1,0-0.1-0.1-0.2c0,0-0.1-0.1-0.2-0.1
		c-0.2-0.1-0.3-0.1-0.5-0.2l-0.1-1.4v1.3c-0.1,0-0.1-0.1-0.2-0.1c-0.1,0-0.1,0-0.2,0c0,0-0.1,0.1-0.1,0.1c-0.1,0.2-0.1,0.4,0,0.6
		c0,0.3,0,0.7,0.2,0.9c-0.2-0.2-0.5-0.4-0.7-0.6c-4.7-2.8-10.3-2.6-14.3,0.6c-1.2,0.9-2.2,1.9-2.9,3c-0.1-0.1-0.2-0.1-0.2-0.2
		c-0.3-0.3-0.6-0.7-0.8-1c-0.1-0.1-0.2-0.3-0.3-0.4c-0.1-0.1-0.3-0.2-0.5-0.1c-0.2,0.1-0.3,0.2-0.4,0.4c-0.1,0.1-0.1,0.2-0.1,0.3
		c0,0.1,0.1,0.1,0.2,0.2c0.2,0.2,0.4,0.4,0.6,0.6c0.1,0.1,0.2,0.3,0.2,0.5c0,0.2-0.2,0.4-0.3,0.4c-0.1,0-0.2-0.1-0.2-0.1
		c-0.5-0.4-1.1-0.8-1.5-1.3c-0.1-0.1-0.2-0.2-0.3-0.2c-0.1,0-0.2-0.1-0.3-0.1c-0.3,0-0.5,0.1-0.7,0.3c-0.1,0.1-0.1,0.2-0.1,0.3
		c0,0.1,0.1,0.1,0.1,0.1c0.4,0.4,0.9,0.8,1.3,1.1c0.3,0.2,0.5,0.5,0.8,0.6c-0.4,0.4-1,0.5-1.6,0.5c-0.6,0.1-1.2,0.3-1.4,0.8
		c0,0,0,0.1,0,0.1c0,0,0,0.1,0.1,0.1c0.4,0.3,0.8,0.6,1.2,0.5c0.2,0,0.5-0.1,0.7-0.3c0.4-0.2,0.8-0.5,1.1-0.8
		c-0.4,0.3-0.8,0.7-1.1,1.2c0,0.1-0.1,0.1-0.1,0.2c0,0.1,0,0.1,0,0.2c0.1,0.3,0.1,0.5,0.2,0.8c0,0.1,0,0.1,0.1,0.2c0,0,0.1,0,0.1,0
		c0.2-0.1,0.4-0.2,0.5-0.3c0.3-0.3,0.7-0.6,0.8-1c0.1-0.2,0.1-0.4,0.1-0.6c0.1-0.6,0.6-1,1-1.5c-0.2,0.2-0.2,0.5-0.3,0.7
		c-0.7,1.8-1,3.8-0.7,5.8c0.1,1,0.3,1.9,0.7,2.7c0,0,0,0,0,0c-0.2,0.4-0.2,0.8-0.3,1.2c-0.1,0.4-0.1,0.8-0.1,1.3
		c0,0.8,0.3,1.6,0,2.3c0.5-0.4,1-0.8,1.5-1.1c0.3-0.2,0.6-0.3,0.9-0.5c2.2,2.5,5.4,4.1,9,4.1c1.4,0,2.7-0.3,4-0.8
		c-0.1,0.1-0.1,0.2-0.2,0.3c-0.1,0.2-0.1,0.3-0.2,0.5c-0.2,0.2-0.5,0.3-0.8,0.3c-0.4,0-0.9,0-1.3,0c-0.2,0-0.4,0-0.5,0
		c-0.2,0-0.3,0.2-0.4,0.3c-0.1,0.2,0,0.4,0.1,0.6c0,0.1,0.1,0.2,0.2,0.3c0.1,0,0.2,0,0.2,0c0.3-0.1,0.5-0.1,0.8-0.1
		c0.2,0,0.4,0,0.5,0.1c0.1,0.1,0.2,0.4,0.1,0.5c-0.1,0.1-0.2,0.1-0.2,0.1c-0.6,0.2-1.3,0.4-2,0.4c-0.1,0-0.2,0-0.3,0.1
		c-0.1,0-0.2,0.1-0.2,0.2c-0.2,0.2-0.2,0.5-0.2,0.8c0,0.1,0.1,0.2,0.2,0.2c0.1,0,0.1,0,0.2,0c0.6-0.1,1.1-0.2,1.7-0.3
		c0.3-0.1,0.7-0.1,1-0.3c0.1,0.6-0.3,1.1-0.5,1.6c-0.3,0.5-0.5,1.1-0.3,1.6c0,0,0,0.1,0.1,0.1c0,0,0.1,0,0.1,0
		c0.5-0.1,0.9-0.3,1.2-0.7c0.1-0.2,0.2-0.4,0.2-0.7c0.1-0.4,0.1-0.9,0-1.3c0,0.5,0.1,1.1,0.3,1.6c0,0.1,0,0.1,0.1,0.2
		c0,0,0.1,0.1,0.2,0.1c0.2,0.1,0.5,0.2,0.8,0.3c0.1,0,0.1,0,0.2,0c0,0,0.1-0.1,0.1-0.1c0.1-0.2,0.1-0.4,0.1-0.6c0-0.4,0-0.9-0.3-1.3
		c-0.1-0.2-0.3-0.3-0.4-0.5c-0.3-0.3-0.4-0.7-0.5-1.2c0.1,0,0.1,0,0.2-0.1c0.1,0.2,0.3,0.3,0.5,0.4c0.4,0.3,0.7,0.5,1.1,0.7
		c0.3,0.1,0.6,0.2,0.9,0c0.2-0.2,0.2-0.6,0-0.8c-0.2-0.2-0.4-0.4-0.6-0.7c-0.1-0.1-0.2-0.2-0.2-0.3c1.1-0.5,2.1-1.2,2.9-1.9v29.7h3
		l-1.7-30.9c0.1-0.1,0.2-0.2,0.3-0.3c0,0.6,0.2,1.2,0.6,1.6c0.5,0.7,1.3,1,2,1.6c0.3,0.2,0.6,0.5,0.9,0.7c0.4,0.2,0.7,0.4,1.1,0.6
		c0.4,0.2,0.8,0.3,1.2,0.4c0.8,0.1,1.6,0.1,2.3,0.5c-0.3-0.5-0.5-1.1-0.7-1.7c-0.3-1.1-0.4-2.3-0.8-3.4c-0.4-1.3-1.1-2.5-2.2-3.3
		c-0.4-0.3-1-0.6-1.5-0.6c-0.3,0-0.6,0.1-0.8,0.3c-0.1,0.1-0.1,0.3-0.2,0.4c-0.1,0.5-0.2,1-0.3,1.5c-0.2,0-0.5,0-0.7,0
		c1.1-1.6,1.8-3.4,2.2-5.3c0.1,0.1,0.3,0.1,0.5,0.1c0.6,0,1.1-0.5,1.1-1.1c0-0.6-0.5-1.1-1.1-1.1c-0.1,0-0.2,0-0.3,0.1
		c0-0.7,0-1.3-0.1-2c1.6,1.8,3.9,3,6.5,3c2,0,3.9-0.8,5.4-2.4c0.4-0.4,0.7-0.8,1-1.3c0.1,0.2,0.3,0.3,0.5,0.4
		c0.2,0.1,0.5,0.2,0.8,0.3c-0.4,0.6-0.8,1.2-1.3,1.7c-0.1-0.2-0.3-0.4-0.5-0.4c-0.3,0-0.5,0.2-0.5,0.5c0,0.2,0.1,0.4,0.3,0.5
		c-1,0.8-2.2,1.5-3.6,1.8l0.2,0.7c2.5-0.7,4.5-2.2,5.9-4.2c0,0.1-0.1,0.3-0.1,0.5c0,0.2,0.1,0.4,0.1,0.6c0.1,0.3,0.1,0.6,0.2,0.9
		c0.1,0.3,0.4,0.5,0.6,0.5c0.3,0,0.5-0.4,0.5-0.7c0.1-0.4,0.1-0.9,0.1-1.3c0-0.4,0-0.8-0.3-1.1c0.4,0.4,0.9,0.9,1,1.5
		c0.1,0.2,0.1,0.4,0.1,0.6c0.1,0.4,0.5,0.7,0.8,1c0.2,0.1,0.3,0.3,0.5,0.3c0,0,0.1,0,0.1,0c0.1,0,0.1-0.1,0.1-0.2
		c0.1-0.3,0.1-0.5,0.2-0.8c0-0.1,0-0.1,0-0.2c0-0.1-0.1-0.1-0.1-0.2c-0.3-0.4-0.7-0.8-1.1-1.2c0.3,0.3,0.7,0.6,1.1,0.8
		c0.2,0.1,0.4,0.2,0.7,0.3c0.5,0.1,0.9-0.2,1.2-0.5c0,0,0.1-0.1,0.1-0.1C60.7,31,60.7,31,60.7,30.9z M22.3,13.1c0,0.1,0,0.2,0,0.3
		c0-0.3-0.1-0.6-0.3-0.9c-0.5-0.9-1.5-1.6-2.5-1.6c-0.8,0-1.5,0.4-2,1c-0.5,0.6-0.7,1.4-0.5,2.2c0.3,0.9,1.2,1.6,2.2,1.6l0.1,0
		c0.6-0.1,1.3-0.3,1.6-1.1c0.3-0.5,0.2-0.9,0.1-1.4c-0.2-0.5-0.6-1-1.1-1.1c-0.4-0.1-0.8,0-1.1,0.3c-0.2,0.1-0.2,0.3-0.2,0.3
		c0,0.2,0.2,0.4,0.3,0.5c0,0,0.1,0.1,0.1,0.1c0,0,0,0,0,0l0.5,0.4c0.4-0.5,0.1-0.8-0.1-1c0.1,0,0.2,0,0.3,0c0.3,0.1,0.5,0.3,0.6,0.6
		c0.1,0.4,0.1,0.6-0.1,0.9l0,0c-0.1,0.4-0.5,0.5-1.1,0.6l0,0c-0.7,0-1.3-0.5-1.5-1.1c-0.1-0.6,0-1.1,0.4-1.6
		c0.4-0.4,0.9-0.7,1.5-0.7c0.8,0,1.5,0.6,1.8,1.2c0.2,0.3,0.2,0.7,0.2,1c-0.1,0.1-0.1,0.3-0.1,0.5c0,0,0,0.1,0,0.1
		c-0.1,0.2-0.1,0.3-0.3,0.5c-0.5,0.8-1.4,1.2-2.3,1.1c-1-0.1-1.8-0.7-2.2-1.6c-0.4-1-0.3-2,0.4-2.7c0.7-0.7,1.2-1.1,2.1-1.2
		c0.9-0.1,1.8,0.2,2.5,0.8c0.3,0.3,0.6,0.6,0.8,1C22.4,12.6,22.4,12.8,22.3,13.1z M21.8,16.2c-0.7,0.7-1.5,1.1-2.4,1.1
		c-2,0-3.7-1.5-3.9-3.4c-0.2-1.4,0.4-2.7,1.6-3.7c1.3-1.1,3.2-1.1,4.8-0.2c0.4,0.3,0.8,0.7,1.1,1.1c-0.1,0.1-0.1,0.3-0.2,0.4
		c-0.2-0.3-0.4-0.5-0.7-0.7c-0.8-0.7-1.9-1.1-3-0.9c-1.1,0.1-1.8,0.8-2.5,1.4c-0.8,0.9-1,2.2-0.5,3.5c0.5,1.2,1.5,1.9,2.8,2
		c1.2,0.1,2.3-0.4,2.9-1.4c0-0.1,0.1-0.1,0.1-0.2c0.1,0.1,0.3,0.1,0.4,0.1C22.2,15.6,22,15.9,21.8,16.2z M32.1,17.1
		C32.1,17.1,32.1,17.1,32.1,17.1C32.1,17.1,32.2,17.1,32.1,17.1C32.1,17.1,32.1,17.1,32.1,17.1z M30.3,5.7c1.1-1.1,2.3-2.2,4.1-2.4
		c1.8-0.2,3.5,0.4,4.9,1.6C40,5.5,40.6,6.3,41,7.1c-0.4,0.2-0.6,0.6-0.6,1c0,0.6,0.5,1.1,1.1,1.1c0,0,0.1,0,0.1,0c0,0.1,0,0.2,0,0.2
		c0,0.1,0,0.3,0,0.4c-0.5,0.1-0.9,0.5-0.9,1.1c0,0.4,0.2,0.7,0.5,0.9c-0.1,0.4-0.2,0.7-0.4,1.1c-0.2-0.4-0.6-0.7-1-0.7
		c-0.1,0-0.2,0-0.4,0.1c0.8-1.5,0.9-3.2,0.1-4.7c-0.1-0.1-0.2-0.3-0.3-0.4c0.4-0.1,0.8-0.6,0.8-1C40.1,5.5,39.6,5,39,5
		c-0.5,0-0.9,0.3-1,0.7c-0.9-0.6-1.8-1-2.8-1c-1.4,0-2.7,0.6-3.6,1.7c-0.9,1.1-1.2,2.5-0.9,3.9c0.4,1.5,1.9,2.7,3.5,2.9
		c0.2,0.1,0.3,0.1,0.5,0.1c0.3,0,0.6-0.1,0.8-0.3c0.9-0.2,1.7-0.6,2.1-1.7c0.5-0.9,0.4-1.6,0.2-2.5c-0.2-0.6-0.5-1.1-0.9-1.4
		C37,7.3,37.2,7,37.2,6.7c0-0.4-0.2-0.7-0.4-0.9c0.5,0.2,0.9,0.5,1.3,0.9c0.1,0.1,0.2,0.2,0.3,0.3c0.2,0.3,0.5,0.6,0.6,0.9
		c0.8,1.4,0.6,3-0.3,4.5c-0.2,0.3-0.4,0.5-0.6,0.8c-0.2-0.3-0.5-0.4-0.9-0.4c-0.6,0-1.1,0.5-1.1,1.1c0,0.2,0.1,0.4,0.1,0.5
		c-0.7,0.3-1.5,0.4-2.2,0.3c-2-0.2-3.6-1.4-4.4-3.3c0-0.1-0.1-0.2-0.1-0.3c0,0,0-0.1,0-0.1c0.2-0.5,0.3-1.1,0.2-1.7
		c-0.1-0.3-0.2-0.6-0.5-0.7c0,0,0,0-0.1,0C29.2,7.5,29.6,6.5,30.3,5.7z M35,6.7C35,6.8,35,6.9,35,7c-0.3,0.1-0.6,0.2-0.9,0.5
		c-0.2,0.1-0.2,0.3-0.3,0.4c0,0,0,0.1,0,0.1c-0.4,0.1-0.8,0.6-0.8,1c0,0.6,0.5,1.1,1.1,1.1c0.4,0,0.7-0.2,0.9-0.4l0,0
		c0.4-0.5,0.3-0.9,0.1-1.2c-0.1-0.1-0.2-0.2-0.3-0.3c0,0-0.1-0.1-0.1-0.1c0,0-0.1-0.1-0.1-0.1c0.3-0.3,0.6-0.3,0.9-0.3
		c0.1,0.1,0.3,0.1,0.5,0.1C36.5,8,37,8.5,37.1,9.1c0.2,0.7,0.2,1.3-0.2,2l0,0c-0.2,0.6-0.6,0.9-1.1,1.1c0-0.6-0.5-1.1-1.1-1.1
		c-0.6,0-1.1,0.5-1.1,1.1c0,0,0,0.1,0,0.1c-1-0.3-1.9-1.2-2.2-2.3c-0.3-1.1,0-2.3,0.7-3.3c0.7-0.9,1.9-1.5,3-1.5
		c0.3,0,0.7,0.1,1,0.2c0,0-0.1,0-0.1,0C35.5,5.6,35,6.1,35,6.7z M29,11.8c1,2,2.8,3.2,4.9,3.4c1,0.1,2-0.1,2.9-0.5
		c0.1,0,0.2,0.1,0.4,0.1c0.6,0,1.1-0.5,1.1-1c0.2-0.2,0.4-0.3,0.5-0.5c0,0.6,0.5,1.1,1.1,1.1c-0.1,0.1-0.2,0.2-0.2,0.3
		c-1.3,1.4-3,2.1-4.9,2.1c-0.8,0-1.6-0.1-2.3-0.4c0-0.1,0.1-0.2,0.1-0.3c0,0,0,0,0,0c0,0,0,0,0,0c-0.1,0-0.2,0-0.3,0.1
		c0,0,0,0,0,0.1c0,0-0.1,0-0.1,0c0,0,0,0,0,0c0,0,0,0,0,0c-0.1,0-0.1-0.1-0.2-0.1c0,0,0,0,0,0c0,0,0,0,0,0c0,0,0,0,0,0.1
		c-1.6-0.7-2.9-1.8-3.7-3.2C28.4,12.7,28.7,12.3,29,11.8z M37.5,22.9c0.1-0.1,0.1-0.1,0.2-0.1c0.2-0.1,0.4-0.1,0.6-0.2
		c-0.1,0.3-0.1,0.6-0.1,0.9c0,0-0.1,0-0.1,0c-0.2,0-0.4,0-0.5-0.1c-0.1-0.1-0.1-0.2-0.2-0.2C37.4,23.1,37.4,23,37.5,22.9z
		 M36.2,23.2c-0.1-0.3-0.3-0.6-0.6-0.8l0-0.2c0.2,0.2,0.4,0.4,0.6,0.6C36.2,22.9,36.2,23.1,36.2,23.2z M15.8,31.8
		c-0.2-1.4-0.1-2.7,0.1-3.9c0.1,0.2,0.2,0.5,0.5,0.5c0.3,0,0.6-0.2,0.6-0.5c0.1-0.3,0.1-0.6,0.2-0.9c0-0.2,0.1-0.4,0.1-0.6
		c0-0.2-0.1-0.5,0-0.7c0.1-0.1,0.1-0.2,0.2-0.2c0.3-0.2,0.6-0.3,0.9-0.4c0.3-0.2,0.6-0.4,0.6-0.8c0,0-0.3-0.6-1.2-0.4
		c-0.1,0-0.2,0.1-0.3,0.1c0.7-1,1.6-1.9,2.6-2.6c3.8-3,9.1-3.2,13.5-0.6c0.5,0.4,1,0.8,1.5,1.2v0.3c-0.3-0.2-0.7-0.4-1-0.6
		c-0.3-0.1-0.6-0.2-0.9,0.1c-0.2,0.2-0.1,0.6,0,0.8c0.2,0.2,0.4,0.4,0.6,0.6c0.1,0.2,0.2,0.3,0.4,0.5c0.2,0.1,0.5,0.2,0.6,0.4
		c0.1,0.1,0.1,0.2,0,0.3c0,0.2-0.1,0.4-0.1,0.7c-0.4-0.5-0.8-0.9-1.3-1.3c-2.1-1.8-4.9-2.7-7.6-2.4c-2.8,0.3-4.7,1.9-6.3,3.6
		c-1.4,1.6-2.1,3.7-1.9,5.9c-0.2,0.1-0.4,0.3-0.5,0.5c-0.5,0.7-0.7,1.5-1.1,2.3c0,0.1-0.1,0.1-0.1,0.2C16,33.1,15.9,32.5,15.8,31.8z
		 M32.6,28.1c-0.1,0.2-0.2,0.4-0.2,0.6c0,0.6,0.4,1,1,1c0.5,1.7,0.2,3.6-0.9,5.2c-1.5,2.2-4.2,3.5-6.8,3.2c-1.8-0.2-3.3-0.9-4.6-2.1
		c0.6-0.5,1.1-1.1,1.5-1.9c1,1,2.4,1.7,3.9,1.7l0.2,0c1.4-0.3,3.3-0.6,3.9-2.5c0.6-1.3,0.6-2.3,0.3-3.4c-0.3-1-1-1.9-1.9-2.3
		c-0.1-0.2-0.3-0.5-0.3-0.7c0-0.1-0.1-0.2,0-0.3c0-0.2,0.3-0.3,0.5-0.5c0.1-0.2,0.2-0.4,0.3-0.5c0-0.1,0.1-0.1,0.1-0.2
		C30.7,25.9,31.8,26.9,32.6,28.1z M20.4,25.4c1.2-1.2,2.4-2.3,4.1-2.9c0,0.4,0.3,0.9,0.6,1.2c0.2,0.2,0.5,0.5,0.6,0.8
		c-0.5,0.1-1,0.3-1.4,0.6c-0.4,0-0.7,0-1.1,0c-0.1,0-0.1,0-0.2,0c-0.1,0-0.1,0.1-0.1,0.2c0,0.2,0.1,0.4,0.2,0.6
		c-0.2,0.2-0.5,0.5-0.7,0.7c-1.1,1.4-1.6,3.3-1.2,5.1c-0.2,0-0.4,0-0.7,0c0-0.4-0.2-0.8-0.4-1.1c-0.1-0.1-0.1-0.2-0.2-0.2
		c-0.1-0.1-0.2-0.1-0.3-0.1c-0.3,0-0.6,0.1-0.9,0.2C18.6,28.5,19.2,26.8,20.4,25.4z M23.8,26.2c0.7-0.1,1.3-0.1,2,0
		c0.1,0,0.2,0,0.3,0.1c0.2,0.1,0.1,0.3,0,0.5c-0.1,0.1-0.3,0.2-0.5,0.2C25.4,27,25.1,27,24.9,27c-0.1,0-0.2,0-0.2,0
		c-0.1,0.1-0.1,0.2-0.1,0.3c0,0.2,0,0.4,0.1,0.6c0.1,0.1,0.3,0.2,0.5,0.2c0.2,0,0.3,0,0.5-0.1c0.2,0,0.4-0.1,0.6-0.1
		c0,0-0.1,0.1-0.1,0.1c-0.2,0.1-0.3,0.3-0.3,0.5c0,0.3,0.3,0.6,0.5,0.9c0.5,0.5,0.8,0.8,0.4,1.2l0.5,0.4c0.8-1,0-1.8-0.5-2.2
		c-0.1-0.1-0.2-0.2-0.3-0.3l0,0c0.3-0.3,0.8-0.5,1.2-0.5c0.1,0.1,0.2,0.3,0.2,0.4c0.6,0.8,1.2,0.5,1.2,0.5c0-0.1,0.1-0.2,0.1-0.3
		c0.5,0.4,0.8,0.9,1,1.6c0.3,1,0.3,1.8-0.3,3l0,0c-0.5,1.5-2,1.8-3.4,2.1l-0.1,0c-1.4,0-2.7-0.7-3.6-1.7c0.1-0.4,0.2-0.8,0.1-1.1
		c-0.1-0.3-0.2-0.6-0.5-0.7c-0.1-0.1-0.3-0.1-0.4-0.1c-0.1,0-0.1,0-0.2,0c-0.4-1.6,0-3.3,1.1-4.6C23.2,26.7,23.5,26.4,23.8,26.2
		C23.8,26.2,23.8,26.2,23.8,26.2z M26.5,22.5c0,0.1,0,0.1,0,0.2c0,0.5,0,1.1,0.1,1.6c0,0,0,0,0,0c-0.1-0.4-0.2-0.8-0.3-1.3
		c-0.1-0.2-0.2-0.5-0.3-0.6c-0.1-0.1-0.3-0.2-0.4-0.3c0.2-0.1,0.5-0.1,0.7-0.1c0.3,0,0.6,0,0.9,0c-0.2,0.1-0.4,0.3-0.5,0.4
		C26.6,22.4,26.6,22.4,26.5,22.5z M27.9,25.1c-0.2,0.3-0.5,0.6-0.5,1c0-0.4-0.1-0.8,0-1.2c0,0,0,0,0,0c0.2,0,0.4,0,0.6,0
		C28,25,27.9,25.1,27.9,25.1z M18.5,37.6c0.5-0.2,1-0.5,1.5-0.7c0.2-0.1,0.4-0.2,0.6-0.4c1.3,1.3,3.1,2.2,5,2.3
		c2.9,0.3,5.7-1,7.4-3.5c1.2-1.8,1.6-3.8,1-5.7c0.3-0.2,0.5-0.5,0.5-0.9c0-0.6-0.5-1.1-1.1-1.1c-0.1,0-0.2,0-0.3,0
		c-0.9-1.3-2.1-2.3-3.4-2.9c0.1-0.3,0.1-0.6-0.2-0.8c-0.3-0.2-0.6,0-0.8,0.2c-0.1,0.1-0.2,0.1-0.2,0.2c-0.3-0.1-0.6-0.1-1-0.1
		c0.1-0.1,0.2-0.3,0.2-0.4c0.2-0.4,0.1-0.9,0-1.3c0-0.2-0.1-0.4-0.2-0.5c2.1,0.1,4.1,0.9,5.7,2.3c0.8,0.7,1.5,1.5,2,2.4v9.5
		c-0.4,0.8-1,1.5-1.6,2.2c-1.9,2-4.4,3.1-7,3.1C23.5,41.4,20.5,39.9,18.5,37.6z M35.9,27.7c0.4,1,0.7,2,0.7,3
		c0.1,1.1-0.1,2.2-0.4,3.3L35.9,27.7z M31.8,43.2c0,0-0.1-0.1-0.1-0.1c0-0.1,0-0.2,0-0.3c0-0.3,0.2-0.7,0.2-1c0.1-0.3,0-0.7-0.2-1
		c0,0,0,0-0.1,0c1-0.5,1.9-1.2,2.6-2c0.4-0.4,0.8-0.9,1.1-1.3v3.4C34.3,41.8,33.1,42.6,31.8,43.2z M39.6,32.6
		C39.6,32.7,39.5,32.7,39.6,32.6c-0.3,2.6-1.4,5-3,7l-0.2-3.9c0.7-1.6,1.1-3.3,1-5.1c-0.1-1.6-0.6-3.1-1.4-4.5
		c0.1-0.1,0.3-0.3,0.4-0.6c0.1-0.2,0.1-0.4,0.2-0.5c0.2-0.2,0.5-0.3,0.8-0.3c0.1,0,0.2,0,0.4,0c0.3,0.4,0.5,0.9,0.7,1.4
		c0.1,0.8,0.4,1.6,0.8,2.4C39.5,29.7,39.6,31.2,39.6,32.6z M51.5,29.9c-1.3,1.4-3,2.1-4.9,2.1c-2.9,0-5.5-1.6-6.8-3.9
		c-0.2-0.8-0.5-1.6-0.8-2.3c0-0.2-0.1-0.3-0.1-0.5c0-0.3-0.1-0.5-0.1-0.8c0.1,0,0.1,0,0.2,0c0.2-0.1,0.3-0.2,0.4-0.3
		c0.1-0.2,0-0.4-0.1-0.6c0-0.1-0.1-0.2-0.2-0.3c-0.1,0-0.1,0-0.2,0c0-0.3,0.1-0.6,0.2-1c0.2,0,0.4-0.1,0.5-0.1c0.1,0,0.2,0,0.3-0.1
		c0.1,0,0.2-0.1,0.2-0.2c0.1-0.2,0.2-0.5,0.1-0.8c0-0.1-0.1-0.2-0.2-0.2c-0.1,0-0.1,0-0.2,0c-0.1,0-0.3,0.1-0.4,0.1
		c0.5-1.2,1.4-2.2,2.5-3.1c1.2-1,2.7-1.5,4.2-1.6c0,0.1,0,0.2,0.1,0.3c0,0,0.6,0.4,1.2-0.3c0,0,0,0,0,0c1.3,0.1,2.7,0.5,3.9,1.3
		c0.9,0.6,1.6,1.4,2.2,2.2c-0.1,0.3-0.1,0.6,0,0.9c0.1,0.2,0.2,0.4,0.3,0.6c0.3,0.5,0.2,1.2,0.2,1.8c0-0.4-0.2-0.7-0.5-1
		c-0.2-0.2-0.4-0.5-0.6-0.7c-0.4-0.7-0.9-1.3-1.5-1.8c-0.4-0.3-0.7-0.6-1.1-0.8c0,0,0,0,0,0c0-0.5-0.4-1-1-1c-0.3,0-0.5,0.1-0.7,0.3
		c-0.9-0.2-1.8-0.3-2.7-0.2c-2,0.2-3.4,1.4-4.5,2.6c-1.5,1.7-1.8,4-0.9,6.3c1,2.1,2.8,3.5,5,3.7c2.1,0.2,4.1-0.8,5.3-2.5
		c1.1-1.6,1.2-3.5,0.3-5.2c-1-1.7-2.8-2.8-4.4-2.8c-1.3,0-2.6,0.6-3.4,1.6c-0.2-0.4-0.6-0.6-1-0.6c-0.2,0-0.3,0-0.4,0.1c0,0,0,0,0,0
		c1.1-1.1,2.3-2.2,4.1-2.4c0.8-0.1,1.6,0,2.3,0.2c0,0,0,0,0,0c0,0.5,0.4,1,1,1c0.3,0,0.5-0.1,0.7-0.3c0.3,0.2,0.7,0.4,1,0.7
		c0.3,0.3,0.6,0.6,0.9,0.9c0,0,0,0,0,0c-0.3,0.2-0.3,0.5-0.2,0.8c0.1,0.3,0.3,0.5,0.4,0.8c0.1,0.2,0.2,0.4,0.3,0.5
		c0.2,0.2,0.4,0.3,0.5,0.5c0,0.1,0,0.2,0,0.3c-0.1,0.3-0.3,0.6-0.4,0.9c-0.1,0.3-0.2,0.7,0,1c0,0,0.4,0.2,0.9-0.1
		C53.3,27.3,52.6,28.8,51.5,29.9z M42.6,23.2C42.6,23.2,42.6,23.2,42.6,23.2c-0.1,0.7-0.2,1.5,0,2.3c0.5,1.7,2.1,2.9,3.8,2.9l0.2,0
		c1.1-0.2,2.4-0.5,2.8-1.8c0.5-0.9,0.4-1.6,0.2-2.5c-0.3-0.9-1-1.7-1.8-1.9c-0.7-0.2-1.3,0-1.8,0.5c-0.2,0.1-0.2,0.3-0.3,0.4
		c0,0.3,0.2,0.5,0.4,0.7c0.4,0.4,0.5,0.5,0.3,0.7L47,25c0.6-0.8,0-1.4-0.3-1.7c0,0-0.1-0.1-0.1-0.1c0.4-0.4,0.8-0.4,1.1-0.3
		c0.6,0.2,1.2,0.7,1.3,1.4c0.2,0.7,0.2,1.3-0.2,2l0,0c-0.3,1-1.3,1.2-2.3,1.4l-0.1,0c-1.4,0-2.7-1.1-3.1-2.4c-0.3-1.1,0-2.3,0.7-3.3
		c0.7-0.9,1.9-1.5,3-1.5c1.4,0,3,1,3.8,2.5c0.8,1.4,0.6,3-0.3,4.5c-1,1.6-2.9,2.4-4.7,2.2c-2-0.2-3.6-1.4-4.4-3.3
		c-0.6-1.6-0.6-3.2,0-4.5C41.4,22.7,41.9,23.2,42.6,23.2z M54.5,28.5c-0.2,0-0.3-0.1-0.5-0.1c-0.2-0.1-0.4-0.1-0.6,0
		c0.5-1.1,0.8-2.2,0.8-3.4c0.2-0.1,0.5-0.1,0.7,0c0.2,0,0.5,0.1,0.7,0.1c0,0.3,0,0.7,0,1c-0.1,0.8-0.3,1.6-0.6,2.3
		C54.8,28.4,54.7,28.5,54.5,28.5z"/>
	<path fill="#F04B36" d="M52.5,25.9C52.5,25.9,52.5,25.9,52.5,25.9C52.5,25.9,52.5,25.9,52.5,25.9z"/>
	<path fill="#F04B36" d="M31.7,40.8C31.7,40.8,31.7,40.8,31.7,40.8C31.7,40.8,31.7,40.8,31.7,40.8z"/>
	<path fill="#F04B36" d="M19.2,24.3L19.2,24.3C19.2,24.3,19.2,24.3,19.2,24.3z"/>
	<path fill="#F04B36" d="M46.3,16.8C46.3,16.8,46.3,16.8,46.3,16.8C46.3,16.8,46.3,16.8,46.3,16.8z"/>
	<path fill="#F04B36" d="M29.1,28.9L29.1,28.9C29.1,28.9,29.1,28.9,29.1,28.9z"/>
	<circle fill="#F04B36" cx="26.5" cy="33.8" r="1.2"/>
	<circle fill="#F04B36" cx="20.2" cy="27.3" r="0.5"/>
</g>
</svg>
