<?xml version="1.0" encoding="utf-8"?>
<!-- Generator: Adobe Illustrator 18.0.0, SVG Export Plug-In . SVG Version: 6.00 Build 0)  -->
<!DOCTYPE svg PUBLIC "-//W3C//DTD SVG 1.1//EN" "http://www.w3.org/Graphics/SVG/1.1/DTD/svg11.dtd">
<svg version="1.1" id="Layer_1" xmlns="http://www.w3.org/2000/svg" xmlns:xlink="http://www.w3.org/1999/xlink" x="0px" y="0px"
	 viewBox="0 0 72 72" enable-background="new 0 0 72 72" xml:space="preserve">
<g>
	<path fill="#E77528" d="M46,45.6c0,0,0.9-1.1-0.5-1.4c-1.4-0.2-0.9,1.1-5,0.5c0,0-4.2-7.5-9.5-4.9c0,0,11.5,10.6,8.2,31.7h8.2
		c0,0-3.2-13.5-4.8-17C42.5,54.5,41,47.8,46,45.6z"/>
	<path fill="#06728D" d="M47.2,32.8c-0.9-0.8-1.9-1.4-3.1-1.5c-0.5-0.1-1,0-1.5,0.2c-0.2,0.1-0.4,0.3-0.4,0.6c0,0.1,0,0.3,0.1,0.4
		c0.1,0.4,0.3,0.9,0.4,1.3c-0.3,0.1-0.6,0.3-0.8,0.6c-0.1,0.1-0.1,0.2-0.1,0.3c0,0.1,0,0.2,0,0.3c0.2,0.7,0.7,1.3,1.4,1.5
		c0.7,0.3,1.5,0.2,2.2,0.3c0.3,0.1,0.7,0.1,1,0.2c0.4,0,0.8,0,1.1-0.1c0.4-0.1,0.7-0.1,1.1-0.2c0.6-0.2,1.3-0.6,2-0.6
		c-0.5-0.3-0.9-0.6-1.3-1C48.5,34.3,47.9,33.5,47.2,32.8z"/>
	<path fill="#06728D" d="M59.1,28.8c-1-0.3-1.8-0.9-2.8-1.2c-1.1-0.4-2.3-0.5-3.4-0.2c-0.5,0.1-0.9,0.4-1.2,0.8
		c-0.2,0.2-0.3,0.5-0.2,0.7c0,0.1,0.1,0.2,0.2,0.3c0.3,0.3,0.6,0.7,0.9,1c-0.3,0.3-0.4,0.6-0.5,0.9c0,0.1,0,0.2,0,0.3
		c0,0.1,0.1,0.2,0.2,0.3c0.5,0.5,1.2,0.9,1.9,0.8c0.7,0,1.4-0.4,2.1-0.6c0.3-0.1,0.7-0.1,1-0.3c0.4-0.1,0.7-0.3,1-0.5
		c0.3-0.2,0.6-0.4,0.9-0.7c0.5-0.5,0.9-1.1,1.5-1.4C60.1,29.1,59.6,28.9,59.1,28.8z"/>
	<path fill="#06728D" d="M57.1,37.8c-0.7-1-1.6-1.8-2.7-2.2c-0.5-0.2-1-0.3-1.5-0.1c-0.2,0.1-0.5,0.2-0.6,0.5c0,0.1,0,0.3,0,0.4
		c0,0.4,0.1,0.9,0.2,1.3c-0.4,0.1-0.7,0.2-1,0.4c-0.1,0.1-0.1,0.1-0.2,0.2c0,0.1,0,0.2,0,0.3c0.1,0.7,0.5,1.4,1.1,1.8
		c0.6,0.4,1.4,0.5,2.1,0.8c0.3,0.1,0.6,0.3,1,0.4c0.4,0.1,0.7,0.1,1.1,0.2c0.4,0,0.7,0,1.1,0c0.7-0.1,1.4-0.4,2-0.2
		c-0.4-0.4-0.7-0.8-1-1.2C58.1,39.6,57.7,38.6,57.1,37.8z"/>
	<path fill="#06728D" d="M27.3,34.8c-0.3-0.2-0.5-0.4-0.8-0.6c-0.3-0.2-0.7-0.3-1-0.5c-0.4-0.1-0.7-0.2-1.1-0.3
		c-0.7-0.1-1.4,0-2-0.4c0.3,0.5,0.5,0.9,0.7,1.4c0.3,1,0.5,2,0.8,2.9c0.4,1.1,1.1,2.1,2,2.8c0.4,0.3,0.9,0.5,1.4,0.5
		c0.3,0,0.5-0.1,0.7-0.3c0.1-0.1,0.1-0.2,0.1-0.4c0.1-0.4,0.2-0.9,0.2-1.3c0.4,0,0.7,0,1-0.2c0.1,0,0.2-0.1,0.2-0.2
		c0.1-0.1,0.1-0.2,0.1-0.3c0.1-0.7-0.1-1.5-0.5-2C28.6,35.5,27.9,35.2,27.3,34.8z"/>
	<path fill="#06728D" d="M44.6,27.6c0,0.1,0,0.1,0.1,0.2c0,0,0.1,0.1,0.2,0.1c0.4,0.1,0.9,0,1.2-0.2c0.4-0.3,0.6-0.7,0.9-1
		c0.1-0.2,0.3-0.3,0.4-0.5c0.1-0.2,0.2-0.4,0.3-0.6c0.1-0.2,0.2-0.4,0.2-0.6c0.1-0.4,0.1-0.9,0.3-1.2c-0.3,0.1-0.6,0.3-0.9,0.4
		c-0.6,0.2-1.2,0.2-1.8,0.4c-0.7,0.2-1.3,0.6-1.8,1.1c-0.2,0.2-0.4,0.5-0.4,0.8c0,0.2,0,0.3,0.2,0.4c0.1,0,0.1,0.1,0.2,0.1
		c0.3,0.1,0.5,0.1,0.8,0.2C44.5,27.1,44.5,27.4,44.6,27.6z"/>
	<path fill="#06728D" d="M13.5,18.1c0.3,0.1,0.5,0.1,0.8,0.2c0,0.2,0,0.4,0.1,0.6c0,0.1,0,0.1,0.1,0.2c0,0,0.1,0.1,0.2,0.1
		c0.4,0.1,0.9,0,1.2-0.2c0.4-0.3,0.6-0.7,0.9-1c0.1-0.2,0.3-0.3,0.4-0.5c0.1-0.2,0.2-0.4,0.3-0.6c0.1-0.2,0.2-0.4,0.2-0.6
		c0.1-0.4,0.1-0.9,0.3-1.2c-0.3,0.1-0.6,0.3-0.9,0.4c-0.6,0.2-1.2,0.2-1.8,0.4c-0.7,0.2-1.3,0.6-1.8,1.1c-0.2,0.2-0.4,0.5-0.4,0.8
		c0,0.2,0,0.3,0.2,0.4C13.3,18.1,13.4,18.1,13.5,18.1z"/>
	<path fill="#06728D" d="M53.5,23.5c-0.2,0.2-0.4,0.5-0.4,0.8c0,0.2,0,0.3,0.2,0.4c0.1,0,0.1,0.1,0.2,0.1c0.3,0.1,0.5,0.1,0.8,0.2
		c0,0.2,0,0.4,0.1,0.6c0,0.1,0,0.1,0.1,0.2c0,0,0.1,0.1,0.2,0.1c0.4,0.1,0.9,0,1.2-0.2c0.4-0.3,0.6-0.7,0.9-1
		c0.1-0.2,0.3-0.3,0.4-0.5c0.1-0.2,0.2-0.4,0.3-0.6c0.1-0.2,0.2-0.4,0.2-0.6c0.1-0.4,0.1-0.9,0.3-1.2c-0.3,0.1-0.6,0.3-0.9,0.4
		c-0.6,0.2-1.2,0.2-1.8,0.4C54.6,22.6,53.9,23,53.5,23.5z"/>
	<path fill="#06728D" d="M44,8.6c-0.2,0.2-0.4,0.5-0.4,0.8c0,0.2,0,0.3,0.2,0.4C43.9,9.9,44,10,44,10c0.3,0.1,0.5,0.1,0.8,0.2
		c0,0.2,0,0.4,0.1,0.6c0,0.1,0,0.1,0.1,0.2c0,0,0.1,0.1,0.2,0.1c0.4,0.1,0.9,0,1.2-0.2c0.4-0.3,0.6-0.7,0.9-1
		c0.1-0.2,0.3-0.3,0.4-0.5c0.1-0.2,0.2-0.4,0.3-0.6c0.1-0.2,0.2-0.4,0.2-0.6c0.1-0.4,0.1-0.9,0.3-1.2C48.3,7,48,7.1,47.6,7.2
		c-0.6,0.2-1.2,0.2-1.8,0.4C45.1,7.7,44.5,8.1,44,8.6z"/>
	<path fill="#06728D" d="M41.6,3.7c0.3,0.1,0.5,0.1,0.8,0.2c0,0.2,0,0.4,0.1,0.6c0,0.1,0,0.1,0.1,0.2c0,0,0.1,0.1,0.2,0.1
		c0.4,0.1,0.9,0,1.2-0.2c0.4-0.3,0.6-0.7,0.9-1C45,3.3,45.1,3.1,45.3,3c0.1-0.2,0.2-0.4,0.3-0.6c0.1-0.2,0.2-0.4,0.2-0.6
		c0.1-0.4,0.1-0.9,0.3-1.2c-0.3,0.1-0.6,0.3-0.9,0.4C44.6,1,44,1.1,43.4,1.2c-0.7,0.2-1.3,0.6-1.8,1.1c-0.2,0.2-0.4,0.5-0.4,0.8
		c0,0.2,0,0.3,0.2,0.4C41.4,3.6,41.5,3.7,41.6,3.7z"/>
	<path fill="#06728D" d="M20.5,20.3c0.1,0.3,0.2,0.7,0.3,1c0.2,0.3,0.4,0.7,0.6,1c0.2,0.3,0.5,0.6,0.7,0.8c0.5,0.5,1.2,0.8,1.5,1.4
		c0-0.5,0.1-1.1,0.2-1.6c0.2-1,0.7-1.9,0.9-2.9c0.3-1.1,0.3-2.4-0.1-3.4c-0.2-0.5-0.5-0.9-0.9-1.2c-0.2-0.1-0.5-0.2-0.7-0.1
		c-0.1,0.1-0.2,0.1-0.3,0.2c-0.3,0.3-0.6,0.7-0.9,1c-0.3-0.2-0.6-0.4-1-0.4c-0.1,0-0.2,0-0.3,0c-0.1,0-0.2,0.1-0.3,0.2
		c-0.5,0.5-0.7,1.3-0.6,2C19.9,19,20.3,19.6,20.5,20.3z"/>
	<path fill="#06728D" d="M51.7,15.1c0.1,0.3,0.2,0.7,0.3,1c0.2,0.3,0.4,0.7,0.6,1c0.2,0.3,0.5,0.6,0.7,0.8c0.5,0.5,1.2,0.8,1.5,1.4
		c0-0.5,0.1-1.1,0.2-1.6c0.2-1,0.7-1.9,0.9-2.9c0.3-1.1,0.3-2.4-0.1-3.4c-0.2-0.5-0.5-0.9-0.9-1.2c-0.2-0.1-0.5-0.2-0.7-0.1
		c-0.1,0.1-0.2,0.1-0.3,0.2c-0.3,0.3-0.6,0.7-0.9,1c-0.3-0.2-0.6-0.4-1-0.4c-0.1,0-0.2,0-0.3,0c-0.1,0-0.2,0.1-0.3,0.2
		c-0.5,0.5-0.7,1.3-0.6,2C51,13.7,51.4,14.4,51.7,15.1z"/>
	<path fill="#06728D" d="M40.7,26.6c0.5-0.9,1.2-1.6,1.7-2.5c0.6-1,0.9-2.2,0.8-3.3c0-0.5-0.2-1-0.5-1.4c-0.2-0.2-0.4-0.3-0.7-0.3
		c-0.1,0-0.2,0.1-0.4,0.1c-0.4,0.2-0.8,0.5-1.1,0.7c-0.2-0.3-0.5-0.5-0.8-0.7c-0.1,0-0.2-0.1-0.3-0.1c-0.1,0-0.2,0-0.3,0.1
		c-0.6,0.3-1.1,1-1.2,1.7c-0.1,0.7,0.1,1.5,0.2,2.2c0,0.3,0,0.7,0.1,1c0.1,0.4,0.2,0.7,0.3,1.1c0.1,0.3,0.3,0.7,0.5,1
		c0.4,0.6,0.9,1.1,1,1.8C40.2,27.6,40.4,27.1,40.7,26.6z"/>
	<path fill="#06728D" d="M51.2,16.8c0.2-0.5,0.2-1.2-0.2-1.6c-0.1-0.1-0.2-0.2-0.3-0.4c-0.1-0.2,0-0.4,0-0.6c0-0.4-0.5-0.7-0.9-0.6
		c-0.4,0-0.8,0.3-1.1,0.5c-0.1,0.1-0.2,0.1-0.3,0.2c-0.2,0.1-0.5-0.1-0.6-0.3c-0.1-0.2-0.2-0.5-0.3-0.7c-0.2-0.3-0.5-0.6-0.8-0.6
		c-0.4,0-0.7,0.2-0.9,0.5c0,0.1-0.1,0.2-0.1,0.3c-0.1,0.1-0.2,0.1-0.4,0.1c-0.5,0-1,0.2-1.2,0.6c-0.3,0.4-0.3,1,0.1,1.3
		c0.2,0.2,0.6,0.2,0.7,0.5c0,0.2-0.2,0.4-0.4,0.5s-0.5,0.1-0.7,0.2c-0.4,0.2-0.6,0.8-0.5,1.2c0.1,0.5,0.5,0.8,0.9,1.1
		c0.1,0.1,0.2,0.1,0.2,0.2c0,0.1,0.1,0.2,0.1,0.3c0.1,0.6,0.3,1.3,0.9,1.4c0.7,0.1,1-0.8,1.6-1.2c0.2,0.7,1.2,1.6,1.9,1.6
		c0.5,0,0.5-1,0.8-1.4c0.4-0.4,1.1-0.1,1.3-0.6c0.1-0.5-0.6-1.2-0.9-1.6C50.5,17.7,51,17.3,51.2,16.8z"/>
	<path fill="#06728D" d="M21.9,13.1c0.1,0.1,0.2,0.1,0.2,0.2c0,0.1,0.1,0.2,0.1,0.3c0.1,0.6,0.3,1.3,0.9,1.4c0.7,0.1,1-0.8,1.6-1.2
		c0.2,0.7,1.2,1.6,1.9,1.6c0.5,0,0.5-1,0.8-1.4c0.4-0.4,1.1-0.1,1.3-0.6c0.1-0.5-0.6-1.2-0.9-1.6c0.5-0.1,1-0.5,1.3-1
		c0.2-0.5,0.2-1.2-0.2-1.6c-0.1-0.1-0.2-0.2-0.3-0.4c-0.1-0.2,0-0.4,0-0.6c0-0.4-0.5-0.7-0.9-0.6c-0.4,0-0.8,0.3-1.1,0.5
		c-0.1,0.1-0.2,0.1-0.3,0.2C26,8.4,25.8,8.2,25.6,8c-0.1-0.2-0.2-0.5-0.3-0.7c-0.2-0.3-0.5-0.6-0.8-0.6c-0.4,0-0.7,0.2-0.9,0.5
		c0,0.1-0.1,0.2-0.1,0.3c-0.1,0.1-0.2,0.1-0.4,0.1c-0.5,0-1,0.2-1.2,0.6c-0.3,0.4-0.3,1,0.1,1.3c0.2,0.2,0.6,0.2,0.7,0.5
		c0,0.2-0.2,0.4-0.4,0.5c-0.2,0.1-0.5,0.1-0.7,0.2c-0.4,0.2-0.6,0.8-0.5,1.2C21.2,12.4,21.5,12.8,21.9,13.1z"/>
	<path fill="#06728D" d="M32.8,13.1c-0.8,0.3-1.6,0.1-2.4,0.5c-0.5,0.3-0.9,0.8-1,1.4c-0.1,0.6,0.1,1.2,0.6,1.6
		c0.3,0.3,0.8,0.5,1.1,0.8c0.4,0.3,0.6,0.7,0.7,1.1c0.8-0.2,1.7-0.5,2.5-0.7c0.2,0,0.4-0.1,0.5-0.2c0.2-0.2,0.2-0.5,0.2-0.7
		c0-0.6,0.1-1.2-0.3-1.7c-0.1-0.2-0.3-0.3-0.4-0.5c-0.6-0.8-0.5-1.8-0.3-2.8C33.9,12.4,33.4,12.9,32.8,13.1z"/>
	<path fill="#06728D" d="M38.2,14.4c-0.1,0.5,0.1,1,0.5,1.4c0.3,0.3,0.6,0.4,0.9,0.7c0.3,0.2,0.5,0.6,0.6,1c0.7-0.2,1.4-0.4,2.1-0.6
		c0.1,0,0.3-0.1,0.4-0.2c0.2-0.2,0.2-0.4,0.2-0.6c0-0.5,0-1-0.2-1.4c-0.1-0.2-0.2-0.3-0.4-0.5c-0.5-0.6-0.4-1.5-0.3-2.4
		c-0.2,0.5-0.6,0.9-1.1,1.1c-0.6,0.2-1.4,0.1-2,0.4C38.6,13.5,38.3,13.9,38.2,14.4z"/>
	<path fill="#06728D" d="M37.4,32c-0.8,0.3-1.6,0.1-2.4,0.5c-0.5,0.3-0.9,0.8-1,1.4c-0.1,0.6,0.1,1.2,0.6,1.6
		c0.3,0.3,0.8,0.5,1.1,0.8c0.4,0.3,0.6,0.7,0.7,1.1c0.8-0.2,1.7-0.5,2.5-0.7c0.2,0,0.4-0.1,0.5-0.2c0.2-0.2,0.2-0.5,0.2-0.7
		c0-0.6,0.1-1.2-0.3-1.7c-0.1-0.2-0.3-0.3-0.4-0.5c-0.6-0.8-0.5-1.8-0.3-2.8C38.5,31.3,38,31.8,37.4,32z"/>
	<path fill="#06728D" d="M31.9,31.8c0.4-0.1,0.6-0.4,0.9-0.7c0.2-0.2,0.4-0.4,0.4-0.7c0.1-0.7-0.5-1.2-0.9-1.8
		C32,28.2,31.8,27.6,32,27c0.3,0,0.6,0.3,0.8,0.5c0.4,0.4,1,0.8,1.6,0.9c0.6,0.1,1.3,0,1.9-0.3c0.5-0.4,0.8-1.1,0.6-1.7
		c-0.3-0.9-1.4-1.2-2.4-1.2c-0.9,0-1.9,0.3-2.8-0.1c1.3-0.5,2.5-1.6,3-3c0.3-0.7,0.3-1.8-0.4-2.1c-0.5-0.3-1.1,0-1.6,0.2
		c-0.3,0.2-0.6,0.4-0.8,0.7c-0.5,0.8-0.3,2-0.8,2.8c-0.2,0.4-0.8,0.6-1,0.3c-0.1-0.1-0.1-0.3-0.1-0.5c0-0.5-0.2-0.9-0.4-1.3
		c-0.3-0.6-0.7-1.2-1.3-1.6c-0.6-0.4-1.4-0.4-1.9,0c-0.5,0.4-0.6,1.2-0.3,1.8c0.2,0.6,0.7,1.1,1.3,1.4c0.6,0.4,1.2,0.7,1.9,0.8
		c0.2,0.3-0.1,0.7-0.4,0.9c-0.3,0.1-0.7,0.1-1,0.1c-0.6,0-1.2,0.3-1.8,0.6c-0.2,0.1-1.4,1.7-1,2.2c0.2,0.2,0.4,0.3,0.6,0.4
		c0.6,0.3,1.4,0.3,2,0c0.3-0.1,0.5-0.3,0.6-0.5c0.3-0.5,0.3-1.3,0.8-1.6c0.1,0,0.2-0.1,0.3,0c0.2,0.1,0.2,0.4,0.2,0.6
		c0,1-0.2,1.9,0,2.8C30,31.3,31,32.2,31.9,31.8z"/>
	<path fill="#06728D" d="M33.1,6.5c-0.3,0.1-0.7,0.1-1,0.1c-0.6,0-1.2,0.3-1.8,0.6c-0.2,0.1-1.4,1.7-1,2.2c0.2,0.2,0.4,0.3,0.6,0.4
		c0.6,0.3,1.4,0.3,2,0c0.2-0.1,0.5-0.3,0.6-0.5c0.3-0.5,0.3-1.3,0.8-1.6c0.1,0,0.2-0.1,0.3,0c0.2,0.1,0.2,0.4,0.2,0.6
		c0,1-0.2,1.9,0,2.8c0.3,0.9,1.2,1.7,2.1,1.4c0.4-0.1,0.6-0.4,0.9-0.7c0.2-0.2,0.4-0.4,0.4-0.7c0.1-0.7-0.5-1.2-0.9-1.8
		c-0.3-0.5-0.4-1.1-0.3-1.6c0.3,0,0.6,0.3,0.8,0.5c0.4,0.4,1,0.8,1.6,0.9c0.6,0.1,1.3,0,1.9-0.3c0.5-0.4,0.8-1.1,0.6-1.7
		C40.6,6.3,39.5,6,38.6,6c-0.9,0-1.9,0.3-2.8-0.1c1.3-0.5,2.5-1.6,3-3C39,2.2,39,1.2,38.3,0.8c-0.5-0.3-1.1,0-1.6,0.2
		c-0.3,0.2-0.6,0.4-0.8,0.7c-0.5,0.8-0.3,2-0.8,2.8c-0.2,0.4-0.8,0.6-1,0.3c-0.1-0.1-0.1-0.3-0.1-0.5c0-0.5-0.2-0.9-0.4-1.3
		c-0.3-0.6-0.7-1.2-1.3-1.6c-0.6-0.4-1.4-0.4-1.9,0c-0.5,0.4-0.6,1.2-0.3,1.8C30.6,4,31,4.5,31.6,4.9c0.6,0.4,1.2,0.7,1.9,0.8
		C33.7,6,33.4,6.4,33.1,6.5z"/>
	<path fill="#06728D" d="M23,30.4c-0.3-0.9-1.4-1.2-2.4-1.2c-0.9,0-1.9,0.3-2.8-0.1c1.3-0.5,2.5-1.6,3-3c0.3-0.7,0.3-1.8-0.4-2.1
		c-0.5-0.3-1.1,0-1.6,0.2c-0.3,0.2-0.6,0.4-0.8,0.7c-0.5,0.8-0.3,2-0.8,2.8c-0.2,0.4-0.8,0.6-1,0.3c-0.1-0.1-0.1-0.3-0.1-0.5
		c0-0.5-0.2-0.9-0.4-1.3c-0.3-0.6-0.7-1.2-1.3-1.6c-0.6-0.4-1.4-0.4-1.9,0c-0.5,0.4-0.6,1.2-0.3,1.8c0.2,0.6,0.7,1.1,1.3,1.4
		c0.6,0.4,1.2,0.7,1.9,0.8c0.2,0.3-0.1,0.7-0.4,0.9c-0.3,0.1-0.7,0.1-1,0.1c-0.6,0-1.2,0.3-1.8,0.6c-0.2,0.1-1.4,1.7-1,2.2
		c0.2,0.2,0.4,0.3,0.6,0.4c0.6,0.3,1.4,0.3,2,0c0.2-0.1,0.5-0.3,0.6-0.5c0.3-0.5,0.3-1.3,0.8-1.6c0.1,0,0.2-0.1,0.3,0
		c0.2,0.1,0.2,0.4,0.2,0.6c0,1-0.2,1.9,0,2.8c0.3,0.9,1.2,1.7,2.1,1.4c0.4-0.1,0.6-0.4,0.9-0.7c0.2-0.2,0.4-0.4,0.4-0.7
		c0.1-0.7-0.5-1.2-0.9-1.8c-0.3-0.5-0.4-1.1-0.3-1.6c0.3,0,0.6,0.3,0.8,0.5c0.4,0.4,1,0.8,1.6,0.9c0.6,0.1,1.3,0,1.9-0.3
		C23,31.7,23.3,31,23,30.4z"/>
</g>
</svg>
