<?xml version="1.0" encoding="utf-8"?>
<!-- Generator: Adobe Illustrator 18.0.0, SVG Export Plug-In . SVG Version: 6.00 Build 0)  -->
<!DOCTYPE svg PUBLIC "-//W3C//DTD SVG 1.1//EN" "http://www.w3.org/Graphics/SVG/1.1/DTD/svg11.dtd">
<svg version="1.1" id="Layer_1" xmlns="http://www.w3.org/2000/svg" xmlns:xlink="http://www.w3.org/1999/xlink" x="0px" y="0px"
	 viewBox="0 0 72 72" enable-background="new 0 0 72 72" xml:space="preserve">
<g>
	<path fill="#F04B36" d="M14.3,18c0.2,0.1,0.5,0.2,0.7,0.1c0.1,0,0.2-0.1,0.3-0.2c0.3-0.3,0.5-0.6,0.8-0.9c0.3,0.2,0.6,0.3,0.9,0.4
		c0.1,0,0.2,0,0.3,0c0.1,0,0.2-0.1,0.2-0.2c0.4-0.5,0.7-1.2,0.6-1.8c-0.1-0.7-0.5-1.3-0.7-1.9c-0.1-0.3-0.2-0.6-0.3-0.9
		c-0.1-0.3-0.3-0.6-0.6-0.9c-0.2-0.3-0.4-0.5-0.7-0.7c-0.5-0.4-1.1-0.7-1.4-1.3c0,0.5-0.1,1-0.2,1.4c-0.2,0.9-0.6,1.8-0.8,2.7
		c-0.2,1-0.2,2.1,0.2,3.1C13.7,17.3,13.9,17.7,14.3,18z"/>
	<path fill="#F04B36" d="M21.2,13.2c0.2,0.1,0.5,0.2,0.7,0.1c0.1,0,0.2-0.1,0.3-0.2c0.3-0.3,0.5-0.6,0.8-0.9
		c0.3,0.2,0.6,0.3,0.9,0.4c0.1,0,0.2,0,0.3,0c0.1,0,0.2-0.1,0.2-0.2c0.4-0.5,0.7-1.2,0.6-1.8c-0.1-0.7-0.5-1.3-0.7-1.9
		c-0.1-0.3-0.2-0.6-0.3-0.9c-0.1-0.3-0.3-0.6-0.6-0.9c-0.2-0.3-0.4-0.5-0.7-0.7c-0.5-0.4-1.1-0.7-1.4-1.3c0,0.5-0.1,1-0.2,1.4
		c-0.2,0.9-0.6,1.8-0.8,2.7c-0.2,1-0.2,2.1,0.2,3.1C20.6,12.6,20.8,13,21.2,13.2z"/>
	<path fill="#F04B36" d="M52.1,18.3c0,0.5-0.1,1-0.2,1.4c-0.2,0.9-0.6,1.8-0.8,2.7c-0.2,1-0.2,2.1,0.2,3.1c0.2,0.4,0.4,0.8,0.8,1.1
		c0.2,0.1,0.5,0.2,0.7,0.1c0.1,0,0.2-0.1,0.3-0.2c0.3-0.3,0.5-0.6,0.8-0.9c0.3,0.2,0.6,0.3,0.9,0.4c0.1,0,0.2,0,0.3,0
		c0.1,0,0.2-0.1,0.2-0.2c0.4-0.5,0.7-1.2,0.6-1.8c-0.1-0.7-0.5-1.3-0.7-1.9c-0.1-0.3-0.2-0.6-0.3-0.9c-0.1-0.3-0.3-0.6-0.6-0.9
		c-0.2-0.3-0.4-0.5-0.7-0.7C53,19.1,52.4,18.8,52.1,18.3z"/>
	<path fill="#F04B36" d="M42,26.1c-0.1-0.3-0.3-0.5-0.5-0.7c-0.2-0.2-0.4-0.5-0.6-0.6c-0.4-0.4-0.9-0.6-1.2-1.1
		c0,0.4-0.1,0.8-0.1,1.2c-0.2,0.8-0.5,1.5-0.7,2.3c-0.2,0.9-0.2,1.8,0.2,2.7c0.1,0.4,0.4,0.7,0.7,0.9c0.2,0.1,0.4,0.2,0.6,0.1
		c0.1,0,0.2-0.1,0.2-0.2c0.2-0.3,0.5-0.5,0.7-0.8c0.2,0.2,0.5,0.3,0.8,0.3c0.1,0,0.2,0,0.2,0c0.1,0,0.1-0.1,0.2-0.1
		c0.4-0.4,0.6-1,0.5-1.5c-0.1-0.6-0.4-1.1-0.6-1.6C42.2,26.6,42.1,26.3,42,26.1z"/>
	<path fill="#E77528" d="M63.2,28.6c-0.5-0.1-1.1-0.3-1.3-0.7c-0.2-0.3-0.2-0.7-0.5-0.9c-0.4-0.3-0.9,0-1.2,0.3
		c-0.3,0.3-0.6,0.7-1.1,0.7c-0.5,0-0.9-0.3-1.3-0.4c-0.9-0.2-1.6,0.7-1.8,1.6c0,0.2-0.1,0.4-0.3,0.5c-0.1,0.1-0.3,0.1-0.4,0
		c-0.9-0.1-1.8-0.7-2.5-0.1c-0.3,0.2-0.4,0.6-0.4,1c-0.1,0.6-0.3,1.3-0.4,1.9c0,0.1,0,0.2-0.1,0.3c-1.6-0.2-3.1-0.4-4.6-0.5
		c0-0.1,0-0.2,0-0.3c0-0.7-0.6-1.3-1.3-1.3s-1.3,0.6-1.3,1.3c0,0.1,0,0.1,0,0.2c-3.5-0.1-6.5,0.2-9.1,0.6c0.5-0.6,0.8-1.3,0.8-2.1
		c0-1.7-1.4-3.1-3.1-3.1c-1.7,0-3.1,1.4-3.1,3.1c0,1.3,0.8,2.4,1.9,2.9c-2.3,0.6-4.2,1.4-5.6,2.1c0.8-4.5,1.9-8.4,3.1-11.8
		c1.1,0.1,5.3,0.3,10.9-2.8c0.2,0.1,0.3,0.1,0.5,0.2c0.5,0.1,1,0.3,1.5,0.4c0.3,0.1,0.5,0.1,0.8,0.1c0.7-0.1,1-0.9,1.6-1.3
		c0.7-0.4,1.6-0.2,2.4-0.1c0.8,0.1,1.9-0.2,2-1c0.1-0.7-0.6-1.5,0-2c0.5-0.4,1.5,0.2,1.9-0.4c0.2-0.3,0-0.7,0-1
		c-0.1-1.4,2.1-2,2.2-3.4c-1.3,0.1-2.7,0.2-4,0.3c-0.5,0-1.1,0.1-1.5-0.3c-0.3-0.2-0.4-0.6-0.7-0.7c-0.4-0.2-0.8,0.2-1.1,0.6
		c-0.2,0.4-0.4,0.8-0.8,1c-0.4,0.2-0.9,0-1.4,0c-0.9,0.1-1.3,1.1-1.3,2c0,0.2,0,0.4-0.1,0.6c-0.1,0.1-0.2,0.1-0.4,0.2
		c-0.9,0.1-2-0.1-2.4,0.6c-0.2,0.3-0.2,0.7-0.1,1.1c0,0.3,0.1,0.7,0.1,1c-0.8,0.2-1.5,0.5-2.3,0.7c0.2-0.3,0.3-0.6,0.3-1
		c0-1-0.8-1.8-1.8-1.8s-1.8,0.8-1.8,1.8c0,0.7,0.4,1.3,1,1.6c-1.5,0.3-3,0.6-4.3,0.6c1.3-3.2,2.8-5.9,4.1-8.1c0.4,0,0.8-0.1,1.2-0.1
		c0.3,0,0.6,0,0.8-0.2c0.6-0.3,0.7-1.2,1.1-1.7c0.5-0.6,1.4-0.7,2.2-0.9C41.1,9.6,42,9,41.8,8.2c-0.2-0.7-1.1-1.3-0.7-1.9
		c0.3-0.6,1.5-0.3,1.6-1c0.1-0.3-0.2-0.6-0.4-0.9c-0.6-1.3,1.3-2.6,1-4c-1.2,0.5-2.4,1.1-3.7,1.6c-0.5,0.2-1,0.4-1.5,0.2
		c-0.3-0.1-0.6-0.5-0.9-0.5c-0.4,0-0.7,0.5-0.8,0.9c-0.1,0.4-0.1,0.9-0.4,1.2c-0.3,0.3-0.9,0.3-1.3,0.5C34,4.8,33.9,6,34.2,6.8
		c0.1,0.2,0.2,0.4,0.1,0.6c-0.1,0.1-0.2,0.2-0.3,0.3C33.2,8,32.1,8.1,31.9,9C31.9,9.3,32,9.7,32.2,10c0.2,0.5,0.4,0.9,0.6,1.4
		c-5.2,4.6-8.9,10-11.4,15.7c-0.9-0.4-1.7-0.9-2.6-1.5c0,0,0,0,0.1,0c1.8,0,3.2-1.4,3.2-3.2c0-1.8-1.4-3.2-3.2-3.2
		c-1.8,0-3.2,1.4-3.2,3.2c0,0.4,0.1,0.8,0.2,1.2c-1.5-1.1-2.9-2.3-4.1-3.3c0-0.1,0.1-0.3,0.1-0.4c0-0.2,0.1-0.4,0-0.6
		c-0.1-0.5-0.7-0.7-0.9-1.1c-0.3-0.5-0.2-1.1-0.1-1.7c0-0.6-0.2-1.3-0.8-1.3c-0.5,0-1,0.5-1.4,0.1c-0.3-0.3,0.1-1.1-0.3-1.3
		c-0.2-0.1-0.5,0-0.7,0.1c-1,0.1-1.5-1.4-2.4-1.4c0.1,0.9,0.2,1.8,0.3,2.7c0,0.4,0.1,0.7-0.2,1C5.2,16.7,5,16.8,4.9,17
		c-0.1,0.3,0.2,0.6,0.5,0.7c0.3,0.1,0.6,0.3,0.7,0.5c0.1,0.3,0,0.6,0,1C6.2,19.8,7,20.1,7.6,20c0.1,0,0.3,0,0.4,0
		c0.1,0.1,0.1,0.2,0.1,0.2c0.1,0.6,0,1.4,0.5,1.6c0.2,0.1,0.5,0.1,0.8,0.1c0.5-0.1,0.9-0.1,1.4-0.2c0.1,0,0.1,0,0.2,0
		c3.5,5.4,7.3,7.5,9.4,8.3c-2,5.4-3,10.9-3.5,16c-1-1.1-1.9-2.3-2.8-3.5c0.3,0.3,0.7,0.5,1.1,0.5c0.8,0,1.5-0.7,1.5-1.5
		c0-0.8-0.7-1.5-1.5-1.5c-0.8,0-1.5,0.7-1.5,1.5c0,0.3,0.1,0.5,0.2,0.8c-0.7-0.9-1.3-1.9-1.9-2.7c0,0,0,0,0.1,0
		c0.2-0.2,0.3-0.4,0.3-0.7c0.1-0.4,0.2-0.7,0.2-1.1c0-0.2,0.1-0.4,0-0.6c-0.1-0.5-0.7-0.7-0.9-1.1c-0.3-0.5-0.2-1.1-0.1-1.7
		c0-0.6-0.2-1.3-0.8-1.3c-0.5,0-1,0.5-1.4,0.1C9,33,9.4,32.3,9,32.1c-0.2-0.1-0.5,0-0.7,0.1c-1,0.1-1.5-1.4-2.4-1.4
		c0.1,0.9,0.2,1.8,0.3,2.7c0,0.4,0.1,0.7-0.2,1c-0.2,0.2-0.4,0.3-0.5,0.5c-0.1,0.3,0.2,0.6,0.5,0.7c0.3,0.1,0.6,0.3,0.7,0.5
		c0.1,0.3,0,0.6,0,1c0.1,0.6,0.8,0.9,1.4,0.8c0.1,0,0.3,0,0.4,0c0.1,0.1,0.1,0.2,0.1,0.2c0.1,0.6,0,1.4,0.5,1.6
		c0.2,0.1,0.5,0.1,0.8,0.1c0.1,0,0.2,0,0.4-0.1c1.6,5.6,4.2,8.8,6.1,10.5c-0.5,11.8,1.8,21,1.8,21h9.4c-2.2-10.8-2.6-20.3-1.9-28.4
		c6.5-4.5,20.7-7.2,28.2-8.3c0.1,0.1,0.2,0.1,0.3,0.2c0.2,0.1,0.5,0.3,0.7,0.3c0.7,0.1,1.2-0.6,1.9-0.7c0.8-0.2,1.6,0.3,2.3,0.6
		c0.8,0.3,1.8,0.3,2.2-0.4c0.3-0.6-0.1-1.6,0.5-1.9c0.6-0.3,1.4,0.6,1.9,0.2c0.3-0.2,0.2-0.6,0.3-1c0.3-1.4,2.6-1.3,3.1-2.6
		C65.8,29.2,64.5,28.9,63.2,28.6z"/>
	<circle fill="#F04B36" cx="10.6" cy="27.5" r="1.3"/>
</g>
</svg>
