<?xml version="1.0" encoding="utf-8"?>
<!-- Generator: Adobe Illustrator 18.0.0, SVG Export Plug-In . SVG Version: 6.00 Build 0)  -->
<!DOCTYPE svg PUBLIC "-//W3C//DTD SVG 1.1//EN" "http://www.w3.org/Graphics/SVG/1.1/DTD/svg11.dtd">
<svg version="1.1" id="Layer_1" xmlns="http://www.w3.org/2000/svg" xmlns:xlink="http://www.w3.org/1999/xlink" x="0px" y="0px"
	 viewBox="0 0 72 72" enable-background="new 0 0 72 72" xml:space="preserve">
<g>
	<path fill="#F7A93B" d="M57.8,30.9c-0.6,0-1.3,0.2-1.8,0c0.9-0.3,1.6-1.1,2-2c0.2-0.5,0.2-1.2-0.3-1.4c-0.3-0.2-0.7,0-1,0.2
		c-0.2,0.1-0.4,0.3-0.5,0.5c-0.4,0.5-0.2,1.3-0.5,1.9c-0.1,0.2-0.5,0.4-0.6,0.2c0-0.1,0-0.2,0-0.3c0-0.3-0.1-0.6-0.2-0.8
		c-0.2-0.4-0.4-0.8-0.8-1c-0.4-0.2-0.9-0.3-1.2,0c-0.3,0.3-0.4,0.8-0.2,1.2c0.2,0.4,0.5,0.7,0.8,0.9c0.4,0.3,0.8,0.5,1.3,0.5
		c0.1,0.2,0,0.5-0.2,0.6c-0.2,0.1-0.4,0.1-0.7,0.1c-0.4,0-0.8,0.2-1.2,0.4c-0.1,0.1-0.9,1.1-0.6,1.5c0.1,0.1,0.2,0.2,0.4,0.3
		c0.4,0.2,0.9,0.2,1.3,0c0.2-0.1,0.3-0.2,0.4-0.3c0.2-0.3,0.2-0.9,0.5-1c0.1,0,0.1,0,0.2,0c0.1,0.1,0.2,0.2,0.2,0.4
		c0,0.6-0.2,1.3,0,1.9c0.2,0.6,0.8,1.1,1.4,0.9c0.2-0.1,0.4-0.3,0.6-0.4c0.1-0.1,0.2-0.3,0.3-0.5c0.1-0.4-0.4-0.8-0.6-1.2
		c-0.2-0.3-0.3-0.7-0.2-1.1c0.2,0,0.4,0.2,0.5,0.3c0.3,0.3,0.6,0.5,1,0.6c0.4,0.1,0.9,0,1.2-0.2c0.3-0.3,0.5-0.7,0.4-1.1
		C59.1,31.1,58.4,30.9,57.8,30.9z"/>
	<path fill="#F7A93B" d="M49.7,20.4c-0.2,0.1-0.4,0.3-0.5,0.5c-0.4,0.5-0.2,1.3-0.5,1.9c-0.1,0.2-0.5,0.4-0.6,0.2c0-0.1,0-0.2,0-0.3
		c0-0.3-0.1-0.6-0.2-0.8c-0.2-0.4-0.4-0.8-0.8-1s-0.9-0.3-1.2,0c-0.3,0.3-0.4,0.8-0.2,1.2c0.2,0.4,0.5,0.7,0.8,0.9
		c0.4,0.3,0.8,0.5,1.3,0.5c0.1,0.2,0,0.5-0.2,0.6c-0.2,0.1-0.4,0.1-0.7,0.1c-0.4,0-0.8,0.2-1.2,0.4c-0.1,0.1-0.9,1.1-0.6,1.5
		c0.1,0.1,0.2,0.2,0.4,0.3c0.4,0.2,0.9,0.2,1.3,0c0.2-0.1,0.3-0.2,0.4-0.3c0.2-0.3,0.2-0.9,0.5-1c0.1,0,0.1,0,0.2,0
		c0.1,0.1,0.2,0.2,0.2,0.4c0,0.6-0.2,1.3,0,1.9c0.2,0.6,0.8,1.1,1.4,0.9c0.2-0.1,0.4-0.3,0.6-0.4c0.1-0.1,0.2-0.3,0.3-0.5
		c0.1-0.4-0.4-0.8-0.6-1.2c-0.2-0.3-0.3-0.7-0.2-1.1c0.2,0,0.4,0.2,0.5,0.3c0.3,0.3,0.6,0.5,1,0.6c0.4,0.1,0.9,0,1.2-0.2
		c0.3-0.3,0.5-0.7,0.4-1.1c-0.2-0.6-0.9-0.8-1.6-0.8c-0.6,0-1.3,0.2-1.8,0c0.9-0.3,1.6-1.1,2-2c0.2-0.5,0.2-1.2-0.3-1.4
		C50.5,20.1,50.1,20.2,49.7,20.4z"/>
	<path fill="#F7A93B" d="M39.5,35.2c0.3,0.3,0.6,0.5,1,0.6c0.4,0.1,0.9,0,1.2-0.2c0.3-0.3,0.5-0.7,0.4-1.1c-0.2-0.6-0.9-0.8-1.6-0.8
		c-0.6,0-1.3,0.2-1.8,0c0.9-0.3,1.6-1.1,2-2c0.2-0.5,0.2-1.2-0.3-1.4c-0.3-0.2-0.7,0-1,0.2c-0.2,0.1-0.4,0.3-0.5,0.5
		c-0.4,0.5-0.2,1.3-0.5,1.9c-0.1,0.2-0.5,0.4-0.6,0.2c0-0.1,0-0.2,0-0.3c0-0.3-0.1-0.6-0.2-0.8c-0.2-0.4-0.4-0.8-0.8-1
		c-0.4-0.2-0.9-0.3-1.2,0c-0.3,0.3-0.4,0.8-0.2,1.2c0.2,0.4,0.5,0.7,0.8,0.9c0.4,0.3,0.8,0.5,1.3,0.5c0.1,0.2,0,0.5-0.2,0.6
		c-0.2,0.1-0.4,0.1-0.7,0.1c-0.4,0-0.8,0.2-1.2,0.4c-0.1,0.1-0.9,1.1-0.6,1.5c0.1,0.1,0.2,0.2,0.4,0.3c0.4,0.2,0.9,0.2,1.3,0
		c0.2-0.1,0.3-0.2,0.4-0.3c0.2-0.3,0.2-0.9,0.5-1c0.1,0,0.1,0,0.2,0c0.1,0.1,0.2,0.2,0.2,0.4c0,0.6-0.2,1.3,0,1.9
		c0.2,0.6,0.8,1.1,1.4,0.9c0.2-0.1,0.4-0.3,0.6-0.4c0.1-0.1,0.2-0.3,0.3-0.5c0.1-0.4-0.4-0.8-0.6-1.2c-0.2-0.3-0.3-0.7-0.2-1.1
		C39.2,34.9,39.3,35.1,39.5,35.2z"/>
	<path fill="#F7A93B" d="M30.7,32.6c0.3,0.3,0.6,0.5,1,0.6c0.4,0.1,0.9,0,1.2-0.2c0.3-0.3,0.5-0.7,0.4-1.1c-0.2-0.6-0.9-0.8-1.6-0.8
		c-0.6,0-1.3,0.2-1.8,0c0.9-0.3,1.6-1.1,2-2c0.2-0.5,0.2-1.2-0.3-1.4c-0.3-0.2-0.7,0-1,0.2c-0.2,0.1-0.4,0.3-0.5,0.5
		c-0.4,0.5-0.2,1.3-0.5,1.9c-0.1,0.2-0.5,0.4-0.6,0.2c0-0.1,0-0.2,0-0.3c0-0.3-0.1-0.6-0.2-0.8c-0.2-0.4-0.4-0.8-0.8-1
		c-0.4-0.2-0.9-0.3-1.2,0c-0.3,0.3-0.4,0.8-0.2,1.2c0.2,0.4,0.5,0.7,0.8,0.9c0.4,0.3,0.8,0.5,1.3,0.5c0.1,0.2,0,0.5-0.2,0.6
		c-0.2,0.1-0.4,0.1-0.7,0.1c-0.4,0-0.8,0.2-1.2,0.4c-0.1,0.1-0.9,1.1-0.6,1.5c0.1,0.1,0.2,0.2,0.4,0.3c0.4,0.2,0.9,0.2,1.3,0
		c0.2-0.1,0.3-0.2,0.4-0.3c0.2-0.3,0.2-0.9,0.5-1c0.1,0,0.1,0,0.2,0c0.1,0.1,0.2,0.2,0.2,0.4c0,0.6-0.2,1.3,0,1.9
		c0.2,0.6,0.8,1.1,1.4,0.9c0.2-0.1,0.4-0.3,0.6-0.4c0.1-0.1,0.2-0.3,0.3-0.5c0.1-0.4-0.4-0.8-0.6-1.2c-0.2-0.3-0.3-0.7-0.2-1.1
		C30.4,32.2,30.5,32.4,30.7,32.6z"/>
	<path fill="#F7A93B" d="M61.5,18.2c-0.3-0.8-1.2-1-2-1c-0.8,0-1.6,0.2-2.4-0.1c1.1-0.4,2.1-1.4,2.5-2.5c0.2-0.6,0.3-1.5-0.3-1.8
		c-0.4-0.2-0.9,0-1.3,0.2c-0.3,0.2-0.5,0.4-0.7,0.6c-0.5,0.7-0.3,1.7-0.7,2.4c-0.2,0.3-0.7,0.5-0.8,0.2c-0.1-0.1,0-0.3,0-0.4
		c0-0.4-0.1-0.7-0.3-1.1c-0.3-0.5-0.6-1-1.1-1.3c-0.5-0.3-1.2-0.3-1.6,0c-0.4,0.4-0.5,1-0.3,1.5c0.2,0.5,0.6,0.9,1.1,1.2
		c0.5,0.3,1,0.6,1.6,0.7c0.2,0.3,0,0.6-0.3,0.7s-0.6,0.1-0.9,0.1c-0.5,0-1.1,0.2-1.5,0.5c-0.2,0.1-1.2,1.4-0.8,1.9
		c0.1,0.2,0.3,0.3,0.5,0.3c0.5,0.2,1.1,0.2,1.7,0c0.2-0.1,0.4-0.2,0.5-0.4c0.3-0.4,0.2-1.1,0.7-1.3c0.1,0,0.2-0.1,0.3,0
		c0.2,0.1,0.2,0.3,0.2,0.5c0,0.8-0.2,1.6,0,2.4c0.2,0.8,1,1.5,1.8,1.2c0.3-0.1,0.5-0.3,0.7-0.6c0.2-0.2,0.3-0.4,0.4-0.6
		c0.1-0.6-0.5-1-0.8-1.5c-0.3-0.4-0.4-0.9-0.3-1.4c0.3,0,0.5,0.2,0.7,0.4c0.3,0.4,0.8,0.6,1.3,0.7c0.5,0.1,1.1,0,1.6-0.3
		C61.4,19.3,61.7,18.7,61.5,18.2z"/>
	<path fill="#F7A93B" d="M20.8,24c-0.1-0.1,0-0.3,0-0.4c0-0.4-0.1-0.7-0.3-1.1c-0.3-0.5-0.6-1-1.1-1.3c-0.5-0.3-1.2-0.3-1.6,0
		c-0.4,0.4-0.5,1-0.3,1.5c0.2,0.5,0.6,0.9,1.1,1.2c0.5,0.3,1,0.6,1.6,0.7c0.2,0.3,0,0.6-0.3,0.7c-0.3,0.1-0.6,0.1-0.9,0.1
		c-0.5,0-1.1,0.2-1.5,0.5c-0.2,0.1-1.2,1.4-0.8,1.9c0.1,0.2,0.3,0.3,0.5,0.3c0.5,0.2,1.1,0.2,1.7,0c0.2-0.1,0.4-0.2,0.5-0.4
		c0.3-0.4,0.2-1.1,0.7-1.3c0.1,0,0.2-0.1,0.3,0c0.2,0.1,0.2,0.3,0.2,0.5c0,0.8-0.2,1.6,0,2.4c0.2,0.8,1,1.5,1.8,1.2
		c0.3-0.1,0.5-0.3,0.7-0.6c0.2-0.2,0.3-0.4,0.4-0.6c0.1-0.6-0.5-1-0.8-1.5c-0.3-0.4-0.4-0.9-0.3-1.4c0.3,0,0.5,0.2,0.7,0.4
		c0.3,0.4,0.8,0.6,1.3,0.7c0.5,0.1,1.1,0,1.6-0.3c0.4-0.3,0.7-0.9,0.5-1.5c-0.3-0.8-1.2-1-2-1c-0.8,0-1.6,0.2-2.4-0.1
		c1.1-0.4,2.1-1.4,2.5-2.5c0.2-0.6,0.3-1.5-0.3-1.8c-0.4-0.2-0.9,0-1.3,0.2c-0.3,0.2-0.5,0.4-0.7,0.6c-0.5,0.7-0.3,1.7-0.7,2.4
		C21.5,24.1,21,24.3,20.8,24z"/>
	<path fill="#F7A93B" d="M36.6,12.5c-0.3,0.1-0.6,0.1-0.9,0.1c-0.5,0-1.1,0.2-1.5,0.5c-0.2,0.1-1.2,1.4-0.8,1.9
		c0.1,0.2,0.3,0.3,0.5,0.3c0.5,0.2,1.1,0.2,1.7,0c0.2-0.1,0.4-0.2,0.5-0.4c0.3-0.4,0.2-1.1,0.7-1.3c0.1,0,0.2-0.1,0.3,0
		c0.2,0.1,0.2,0.3,0.2,0.5c0,0.8-0.2,1.6,0,2.4c0.2,0.8,1,1.5,1.8,1.2c0.3-0.1,0.5-0.3,0.7-0.6c0.2-0.2,0.3-0.4,0.4-0.6
		c0.1-0.6-0.5-1-0.8-1.5c-0.3-0.4-0.4-0.9-0.3-1.4c0.3,0,0.5,0.2,0.7,0.4c0.3,0.4,0.8,0.6,1.3,0.7c0.5,0.1,1.1,0,1.6-0.3
		c0.4-0.3,0.7-0.9,0.5-1.5c-0.3-0.8-1.2-1-2-1c-0.8,0-1.6,0.2-2.4-0.1c1.1-0.4,2.1-1.4,2.5-2.5C41.6,8.8,41.6,8,41,7.7
		c-0.4-0.2-0.9,0-1.3,0.2C39.4,8,39.2,8.2,39,8.5c-0.5,0.7-0.3,1.7-0.7,2.4c-0.2,0.3-0.7,0.5-0.8,0.2c-0.1-0.1,0-0.3,0-0.4
		c0-0.4-0.1-0.7-0.3-1.1c-0.3-0.5-0.6-1-1.1-1.3c-0.5-0.3-1.2-0.3-1.6,0c-0.4,0.4-0.5,1-0.3,1.5c0.2,0.5,0.6,0.9,1.1,1.2
		c0.5,0.3,1,0.6,1.6,0.7C37.1,12,36.9,12.4,36.6,12.5z"/>
	<path fill="#F7A93B" d="M15,13.7c-0.3,0.1-0.6,0.1-0.9,0.1c-0.5,0-1.1,0.2-1.5,0.5c-0.2,0.1-1.2,1.4-0.8,1.9
		c0.1,0.2,0.3,0.3,0.5,0.3c0.5,0.2,1.1,0.2,1.7,0c0.2-0.1,0.4-0.2,0.5-0.4c0.3-0.4,0.2-1.1,0.7-1.3c0.1,0,0.2-0.1,0.3,0
		c0.2,0.1,0.2,0.3,0.2,0.5c0,0.8-0.2,1.6,0,2.4c0.2,0.8,1,1.5,1.8,1.2c0.3-0.1,0.5-0.3,0.7-0.6c0.2-0.2,0.3-0.4,0.4-0.6
		c0.1-0.6-0.5-1-0.8-1.5c-0.3-0.4-0.4-0.9-0.3-1.4c0.3,0,0.5,0.2,0.7,0.4c0.3,0.4,0.8,0.6,1.3,0.7c0.5,0.1,1.1,0,1.6-0.3
		c0.4-0.3,0.7-0.9,0.5-1.5c-0.3-0.8-1.2-1-2-1c-0.8,0-1.6,0.2-2.4-0.1c1.1-0.4,2.1-1.4,2.5-2.5C20,10,20,9.2,19.4,8.9
		c-0.4-0.2-0.9,0-1.3,0.2c-0.3,0.2-0.5,0.4-0.7,0.6c-0.5,0.7-0.3,1.7-0.7,2.4c-0.2,0.3-0.7,0.5-0.8,0.2c-0.1-0.1,0-0.3,0-0.4
		c0-0.4-0.1-0.7-0.3-1.1c-0.3-0.5-0.6-1-1.1-1.3c-0.5-0.3-1.2-0.3-1.6,0c-0.4,0.4-0.5,1-0.3,1.5c0.2,0.5,0.6,0.9,1.1,1.2
		c0.5,0.3,1,0.6,1.6,0.7C15.4,13.2,15.2,13.5,15,13.7z"/>
	<path fill="#F7A93B" d="M42.5,25.1c0.2,0.2,0.5,0.4,0.9,0.5c0.4,0.1,0.7,0,1-0.2c0.3-0.2,0.4-0.6,0.3-1c-0.2-0.5-0.8-0.7-1.3-0.7
		c-0.5,0-1.1,0.1-1.6,0c0.7-0.3,1.4-0.9,1.6-1.7c0.2-0.4,0.2-1-0.2-1.2c-0.3-0.1-0.6,0-0.9,0.1c-0.2,0.1-0.3,0.2-0.4,0.4
		c-0.3,0.4-0.2,1.1-0.4,1.6c-0.1,0.2-0.4,0.3-0.5,0.1c0-0.1,0-0.2,0-0.3c0-0.2-0.1-0.5-0.2-0.7c-0.2-0.3-0.4-0.7-0.7-0.9
		c-0.3-0.2-0.8-0.2-1,0c-0.3,0.2-0.3,0.7-0.2,1c0.1,0.3,0.4,0.6,0.7,0.8c0.3,0.2,0.7,0.4,1.1,0.5c0.1,0.2,0,0.4-0.2,0.5
		c-0.2,0.1-0.4,0.1-0.6,0.1c-0.3,0-0.7,0.1-1,0.3c-0.1,0.1-0.8,0.9-0.5,1.2c0.1,0.1,0.2,0.2,0.3,0.2c0.3,0.1,0.7,0.1,1.1,0
		c0.1-0.1,0.3-0.1,0.4-0.3c0.2-0.3,0.1-0.7,0.4-0.9c0.1,0,0.1,0,0.2,0c0.1,0,0.1,0.2,0.1,0.3c0,0.5-0.1,1.1,0,1.6
		c0.1,0.5,0.7,1,1.2,0.8c0.2-0.1,0.3-0.2,0.5-0.4c0.1-0.1,0.2-0.2,0.2-0.4c0.1-0.4-0.3-0.7-0.5-1c-0.2-0.3-0.2-0.6-0.2-0.9
		C42.3,24.8,42.4,25,42.5,25.1z"/>
	<path fill="#F7A93B" d="M24.1,8.9c0.3,0.1,0.7,0.1,1.1,0c0.1-0.1,0.3-0.1,0.4-0.3c0.2-0.3,0.1-0.7,0.4-0.9c0.1,0,0.1,0,0.2,0
		c0.1,0,0.1,0.2,0.1,0.3c0,0.5-0.1,1.1,0,1.6c0.1,0.5,0.7,1,1.2,0.8c0.2-0.1,0.3-0.2,0.5-0.4c0.1-0.1,0.2-0.2,0.2-0.4
		c0.1-0.4-0.3-0.7-0.5-1c-0.2-0.3-0.2-0.6-0.2-0.9c0.2,0,0.3,0.2,0.4,0.3c0.2,0.2,0.5,0.4,0.9,0.5c0.4,0.1,0.7,0,1-0.2
		c0.3-0.2,0.4-0.6,0.3-1c-0.2-0.5-0.8-0.7-1.3-0.7c-0.5,0-1.1,0.1-1.6,0c0.7-0.3,1.4-0.9,1.6-1.7c0.2-0.4,0.2-1-0.2-1.2
		c-0.3-0.1-0.6,0-0.9,0.1c-0.2,0.1-0.3,0.2-0.4,0.4c-0.3,0.4-0.2,1.1-0.4,1.6c-0.1,0.2-0.4,0.3-0.5,0.1c0-0.1,0-0.2,0-0.3
		c0-0.2-0.1-0.5-0.2-0.7c-0.2-0.3-0.4-0.7-0.7-0.9c-0.3-0.2-0.8-0.2-1,0c-0.3,0.2-0.3,0.7-0.2,1c0.1,0.3,0.4,0.6,0.7,0.8
		c0.3,0.2,0.7,0.4,1.1,0.5c0.1,0.2,0,0.4-0.2,0.5c-0.2,0.1-0.4,0.1-0.6,0.1c-0.3,0-0.7,0.1-1,0.3c-0.1,0.1-0.8,0.9-0.5,1.2
		C23.8,8.8,23.9,8.9,24.1,8.9z"/>
	<path fill="#F7A93B" d="M48.6,10.7c-0.2,0.1-0.3,0.2-0.4,0.4c-0.3,0.4-0.2,1.1-0.4,1.6c-0.1,0.2-0.4,0.3-0.5,0.1c0-0.1,0-0.2,0-0.3
		c0-0.2-0.1-0.5-0.2-0.7c-0.2-0.3-0.4-0.7-0.7-0.9c-0.3-0.2-0.8-0.2-1,0c-0.3,0.2-0.3,0.7-0.2,1c0.1,0.3,0.4,0.6,0.7,0.8
		c0.3,0.2,0.7,0.4,1.1,0.5c0.1,0.2,0,0.4-0.2,0.5c-0.2,0.1-0.4,0.1-0.6,0.1c-0.3,0-0.7,0.1-1,0.3c-0.1,0.1-0.8,0.9-0.5,1.2
		c0.1,0.1,0.2,0.2,0.3,0.2c0.3,0.1,0.7,0.1,1.1,0c0.1-0.1,0.3-0.1,0.4-0.3c0.2-0.3,0.1-0.7,0.4-0.9c0.1,0,0.1,0,0.2,0
		c0.1,0,0.1,0.2,0.1,0.3c0,0.5-0.1,1.1,0,1.6c0.1,0.5,0.7,1,1.2,0.8c0.2-0.1,0.3-0.2,0.5-0.4c0.1-0.1,0.2-0.2,0.2-0.4
		c0.1-0.4-0.3-0.7-0.5-1c-0.2-0.3-0.2-0.6-0.2-0.9c0.2,0,0.3,0.2,0.4,0.3c0.2,0.2,0.5,0.4,0.9,0.5c0.4,0.1,0.7,0,1-0.2
		c0.3-0.2,0.4-0.6,0.3-1c-0.2-0.5-0.8-0.7-1.3-0.7c-0.5,0-1.1,0.1-1.6,0c0.7-0.3,1.4-0.9,1.6-1.7c0.2-0.4,0.2-1-0.2-1.2
		C49.2,10.4,48.8,10.6,48.6,10.7z"/>
	<path fill="#F7A93B" d="M43.3,8.5c0.3,0.1,0.7,0.1,1.1,0c0.1-0.1,0.3-0.1,0.4-0.3C45,8,44.9,7.5,45.2,7.4c0.1,0,0.1,0,0.2,0
		c0.1,0,0.1,0.2,0.1,0.3c0,0.5-0.1,1.1,0,1.6s0.7,1,1.2,0.8c0.2-0.1,0.3-0.2,0.5-0.4c0.1-0.1,0.2-0.2,0.2-0.4c0.1-0.4-0.3-0.7-0.5-1
		c-0.2-0.3-0.2-0.6-0.2-0.9c0.2,0,0.3,0.2,0.4,0.3c0.2,0.2,0.5,0.4,0.9,0.5c0.4,0.1,0.7,0,1-0.2c0.3-0.2,0.4-0.6,0.3-1
		c-0.2-0.5-0.8-0.7-1.3-0.7c-0.5,0-1.1,0.1-1.6,0c0.7-0.3,1.4-0.9,1.6-1.7c0.2-0.4,0.2-1-0.2-1.2c-0.3-0.1-0.6,0-0.9,0.1
		c-0.2,0.1-0.3,0.2-0.4,0.4c-0.3,0.4-0.2,1.1-0.4,1.6c-0.1,0.2-0.4,0.3-0.5,0.1c0-0.1,0-0.2,0-0.3c0-0.2-0.1-0.5-0.2-0.7
		c-0.2-0.3-0.4-0.7-0.7-0.9c-0.3-0.2-0.8-0.2-1,0c-0.3,0.2-0.3,0.7-0.2,1c0.1,0.3,0.4,0.6,0.7,0.8c0.3,0.2,0.7,0.4,1.1,0.5
		c0.1,0.2,0,0.4-0.2,0.5c-0.2,0.1-0.4,0.1-0.6,0.1c-0.3,0-0.7,0.1-1,0.3C43.4,7.1,42.7,8,43,8.3C43.1,8.4,43.2,8.4,43.3,8.5z"/>
	<path fill="#F7A93B" d="M35.5,5.6c0.3,0.1,0.7,0.1,1.1,0c0.1-0.1,0.3-0.1,0.4-0.3c0.2-0.3,0.1-0.7,0.4-0.9c0.1,0,0.1,0,0.2,0
		c0.1,0,0.1,0.2,0.1,0.3c0,0.5-0.1,1.1,0,1.6c0.1,0.5,0.7,1,1.2,0.8c0.2-0.1,0.3-0.2,0.5-0.4c0.1-0.1,0.2-0.2,0.2-0.4
		c0.1-0.4-0.3-0.7-0.5-1c-0.2-0.3-0.2-0.6-0.2-0.9c0.2,0,0.3,0.2,0.4,0.3c0.2,0.2,0.5,0.4,0.9,0.5c0.4,0.1,0.7,0,1-0.2
		c0.3-0.2,0.4-0.6,0.3-1c-0.2-0.5-0.8-0.7-1.3-0.7c-0.5,0-1.1,0.1-1.6,0c0.7-0.3,1.4-0.9,1.6-1.7c0.2-0.4,0.2-1-0.2-1.2
		c-0.3-0.1-0.6,0-0.9,0.1c-0.2,0.1-0.3,0.2-0.4,0.4c-0.3,0.4-0.2,1.1-0.4,1.6c-0.1,0.2-0.4,0.3-0.5,0.1c0-0.1,0-0.2,0-0.3
		c0-0.2-0.1-0.5-0.2-0.7c-0.2-0.3-0.4-0.7-0.7-0.9c-0.3-0.2-0.8-0.2-1,0c-0.3,0.2-0.3,0.7-0.2,1s0.4,0.6,0.7,0.8
		C36.7,3,37,3.2,37.4,3.2c0.1,0.2,0,0.4-0.2,0.5c-0.2,0.1-0.4,0.1-0.6,0.1c-0.3,0-0.7,0.1-1,0.3c-0.1,0.1-0.8,0.9-0.5,1.2
		C35.2,5.5,35.3,5.5,35.5,5.6z"/>
	<path fill="#F7A93B" d="M14.2,33.4c0.2-0.1,0.3-0.2,0.5-0.4c0.1-0.1,0.2-0.2,0.2-0.4c0.1-0.4-0.3-0.7-0.5-1
		c-0.2-0.3-0.2-0.6-0.2-0.9c0.2,0,0.3,0.2,0.4,0.3c0.2,0.2,0.5,0.4,0.9,0.5c0.4,0.1,0.7,0,1-0.2c0.3-0.2,0.4-0.6,0.3-1
		c-0.2-0.5-0.8-0.7-1.3-0.7c-0.5,0-1.1,0.1-1.6,0c0.7-0.3,1.4-0.9,1.6-1.7c0.2-0.4,0.2-1-0.2-1.2c-0.3-0.1-0.6,0-0.9,0.1
		c-0.2,0.1-0.3,0.2-0.4,0.4c-0.3,0.4-0.2,1.1-0.4,1.6c-0.1,0.2-0.4,0.3-0.5,0.1c0-0.1,0-0.2,0-0.3c0-0.2-0.1-0.5-0.2-0.7
		c-0.2-0.3-0.4-0.7-0.7-0.9c-0.3-0.2-0.8-0.2-1,0c-0.3,0.2-0.3,0.7-0.2,1c0.1,0.3,0.4,0.6,0.7,0.8c0.3,0.2,0.7,0.4,1.1,0.5
		c0.1,0.2,0,0.4-0.2,0.5c-0.2,0.1-0.4,0.1-0.6,0.1c-0.3,0-0.7,0.1-1,0.3c-0.1,0.1-0.8,0.9-0.5,1.2c0.1,0.1,0.2,0.2,0.3,0.2
		c0.3,0.1,0.7,0.1,1.1,0c0.1-0.1,0.3-0.1,0.4-0.3c0.2-0.3,0.1-0.7,0.4-0.9c0.1,0,0.1,0,0.2,0c0.1,0,0.1,0.2,0.1,0.3
		c0,0.5-0.1,1.1,0,1.6C13.2,33.2,13.7,33.6,14.2,33.4z"/>
	<path fill="#F7A93B" d="M30.7,20.4c0.1,0.3,0.4,0.6,0.7,0.8c0.3,0.2,0.7,0.4,1.1,0.5c0.1,0.2,0,0.4-0.2,0.5
		c-0.2,0.1-0.4,0.1-0.6,0.1c-0.3,0-0.7,0.1-1,0.3c-0.1,0.1-0.8,0.9-0.5,1.2c0.1,0.1,0.2,0.2,0.3,0.2c0.3,0.1,0.7,0.1,1.1,0
		c0.1-0.1,0.3-0.1,0.4-0.3c0.2-0.3,0.1-0.7,0.4-0.9c0.1,0,0.1,0,0.2,0c0.1,0,0.1,0.2,0.1,0.3c0,0.5-0.1,1.1,0,1.6
		c0.1,0.5,0.7,1,1.2,0.8c0.2-0.1,0.3-0.2,0.5-0.4c0.1-0.1,0.2-0.2,0.2-0.4c0.1-0.4-0.3-0.7-0.5-1c-0.2-0.3-0.2-0.6-0.2-0.9
		c0.2,0,0.3,0.2,0.4,0.3c0.2,0.2,0.5,0.4,0.9,0.5c0.4,0.1,0.7,0,1-0.2c0.3-0.2,0.4-0.6,0.3-1c-0.2-0.5-0.8-0.7-1.3-0.7
		c-0.5,0-1.1,0.1-1.6,0c0.7-0.3,1.4-0.9,1.6-1.7c0.2-0.4,0.2-1-0.2-1.2c-0.3-0.1-0.6,0-0.9,0.1c-0.2,0.1-0.3,0.2-0.4,0.4
		c-0.3,0.4-0.2,1.1-0.4,1.6c-0.1,0.2-0.4,0.3-0.5,0.1c0-0.1,0-0.2,0-0.3c0-0.2-0.1-0.5-0.2-0.7c-0.2-0.3-0.4-0.7-0.7-0.9
		c-0.3-0.2-0.8-0.2-1,0C30.6,19.7,30.6,20.1,30.7,20.4z"/>
	<path fill="#F7A93B" d="M27.9,15.6c0.7-0.3,1.4-0.9,1.6-1.7c0.2-0.4,0.2-1-0.2-1.2c-0.3-0.1-0.6,0-0.9,0.1
		c-0.2,0.1-0.3,0.2-0.4,0.4c-0.3,0.4-0.2,1.1-0.4,1.6C27.5,15,27.1,15.2,27,15c0-0.1,0-0.2,0-0.3c0-0.2-0.1-0.5-0.2-0.7
		c-0.2-0.3-0.4-0.7-0.7-0.9c-0.3-0.2-0.8-0.2-1,0c-0.3,0.2-0.3,0.7-0.2,1c0.1,0.3,0.4,0.6,0.7,0.8c0.3,0.2,0.7,0.4,1.1,0.5
		c0.1,0.2,0,0.4-0.2,0.5c-0.2,0.1-0.4,0.1-0.6,0.1c-0.3,0-0.7,0.1-1,0.3c-0.1,0.1-0.8,0.9-0.5,1.2c0.1,0.1,0.2,0.2,0.3,0.2
		c0.3,0.1,0.7,0.1,1.1,0c0.1-0.1,0.3-0.1,0.4-0.3c0.2-0.3,0.1-0.7,0.4-0.9c0.1,0,0.1,0,0.2,0c0.1,0,0.1,0.2,0.1,0.3
		c0,0.5-0.1,1.1,0,1.6c0.1,0.5,0.7,1,1.2,0.8c0.2-0.1,0.3-0.2,0.5-0.4c0.1-0.1,0.2-0.2,0.2-0.4c0.1-0.4-0.3-0.7-0.5-1
		c-0.2-0.3-0.2-0.6-0.2-0.9c0.2,0,0.3,0.2,0.4,0.3c0.2,0.2,0.5,0.4,0.9,0.5c0.4,0.1,0.7,0,1-0.2c0.3-0.2,0.4-0.6,0.3-1
		c-0.2-0.5-0.8-0.7-1.3-0.7C28.9,15.6,28.4,15.8,27.9,15.6z"/>
	<path fill="#E77528" d="M42.9,44c5.1,0.3,15.5-8.2,16.2-8.8c0,0-11.2,7.4-17.7,7c0,0,9.2-5.2,6.3-10.8c0,0-3.6,10.5-11.5,10.6
		c0,0-9.7-0.8-15.6-9.4c-1.2-1.7-0.1,7.4,11.4,9.9c0,0-11.9-0.6-18.2-6.8c0,0,0.9,6.7,10.7,7.7c0,0,14.9-2.5,9.8,11.6
		c0,0-3.3,13.3-3.5,14.2c0,0,3.4,5,13.5,0l-4.4-16.5C39.8,52.8,37.8,43.6,42.9,44z"/>
</g>
</svg>
