<?xml version="1.0" encoding="utf-8"?>
<!-- Generator: Adobe Illustrator 18.0.0, SVG Export Plug-In . SVG Version: 6.00 Build 0)  -->
<!DOCTYPE svg PUBLIC "-//W3C//DTD SVG 1.1//EN" "http://www.w3.org/Graphics/SVG/1.1/DTD/svg11.dtd">
<svg version="1.1" id="Layer_1" xmlns="http://www.w3.org/2000/svg" xmlns:xlink="http://www.w3.org/1999/xlink" x="0px" y="0px"
	 viewBox="0 0 72 72" enable-background="new 0 0 72 72" xml:space="preserve">
<g>
	<path fill="#E77528" d="M65.6,17.3c-0.2-0.6-1-0.8-1.6-0.8c-0.6,0-1.3,0.2-1.9,0c0.9-0.4,1.6-1.1,2-2c0.2-0.5,0.2-1.2-0.3-1.4
		c-0.3-0.2-0.7,0-1.1,0.2c-0.2,0.1-0.4,0.3-0.5,0.5c-0.4,0.5-0.2,1.3-0.5,1.9c-0.1,0.2-0.5,0.4-0.7,0.2c-0.1-0.1,0-0.2,0-0.3
		c0-0.3-0.1-0.6-0.2-0.9c-0.2-0.4-0.5-0.8-0.8-1c-0.4-0.2-0.9-0.3-1.3,0c-0.3,0.3-0.4,0.8-0.2,1.2c0.2,0.4,0.5,0.7,0.8,1
		c0.4,0.3,0.8,0.5,1.3,0.5c0.1,0.2,0,0.5-0.3,0.6C60.1,17,59.9,17,59.7,17c-0.4,0-0.8,0.2-1.2,0.4c-0.1,0.1-1,1.1-0.7,1.5
		c0.1,0.1,0.3,0.2,0.4,0.3c0,0,0,0,0,0c-1.3,1.2-3.7,3.4-6.4,5.4c0.1-0.4,0.2-0.8,0.2-1.2c0-1.7-1.4-3.2-3.2-3.2
		c-1.7,0-3.2,1.4-3.2,3.2c0,1.7,1.4,3.2,3.2,3.2c0,0,0,0,0.1,0c-0.9,0.6-1.8,1.1-2.6,1.4c-2.6-5.9-6.5-11.6-12.1-16.3
		c0.1,0,0.2,0.1,0.3,0.1c0.8,0.2,1.7,0.1,2.3-0.4c0.6-0.5,1-1.4,0.7-2.2c-0.4-1.1-1.7-1.5-2.9-1.5c-1.2,0-2.4,0.3-3.5-0.1
		c1.7-0.7,3-2,3.7-3.7c0.4-0.9,0.4-2.2-0.5-2.6c-0.6-0.3-1.4-0.1-2,0.3c-0.4,0.2-0.7,0.5-1,0.9c-0.7,1-0.4,2.4-1,3.5
		c-0.3,0.4-1,0.8-1.2,0.3c-0.1-0.2-0.1-0.4-0.1-0.6c0-0.6-0.2-1.1-0.5-1.6c-0.4-0.8-0.8-1.5-1.5-1.9c-0.7-0.4-1.7-0.5-2.3,0.1
		c-0.6,0.5-0.7,1.5-0.4,2.2c0.3,0.7,0.9,1.3,1.6,1.8c0.7,0.5,1.5,0.9,2.4,1c0.2,0.4-0.1,0.9-0.5,1.1c-0.4,0.2-0.8,0.2-1.3,0.2
		c-0.8,0.1-1.5,0.3-2.2,0.8c-0.3,0.2-1.8,2.1-1.2,2.8c0.2,0.2,0.5,0.4,0.7,0.5c0.8,0.3,1.7,0.3,2.4,0c0.3-0.1,0.6-0.3,0.8-0.6
		c0.4-0.6,0.3-1.7,1-2c0.1-0.1,0.3-0.1,0.4,0c0.3,0.1,0.3,0.5,0.3,0.7c-0.1,1.2-0.3,2.4,0,3.5c0.3,1.1,1.5,2.1,2.6,1.8
		c0.4-0.2,0.8-0.5,1.1-0.8c0.2-0.3,0.5-0.5,0.5-0.9c0-0.1,0-0.2,0-0.3c1.2,2.1,2.6,4.6,3.9,7.7c-6-0.3-15.5-4.2-15.5-4.2
		c8.3,7.8,15.2,7.4,16.7,7.3c1.2,3.4,2.3,7.2,3,11.6c-1.4-0.7-3.2-1.4-5.5-2.1c1.1-0.5,1.9-1.6,1.9-2.9c0-1.7-1.4-3.1-3.1-3.1
		s-3.1,1.4-3.1,3.1c0,0.8,0.3,1.5,0.8,2.1c-2.6-0.4-5.5-0.7-8.9-0.6c0-0.1,0-0.1,0-0.2c0-0.7-0.6-1.3-1.3-1.3
		c-0.7,0-1.3,0.6-1.3,1.3c0,0.1,0,0.2,0,0.3c-1.6,0.1-3.3,0.3-5.1,0.6c0.2-0.3,0.3-0.6,0.4-0.8c0.3-0.8,0.3-1.8-0.4-2.2
		c-0.5-0.3-1.1,0-1.6,0.3c-0.3,0.2-0.6,0.4-0.8,0.7c-0.5,0.8-0.4,1.8-0.7,2.7c-0.4,0.1-0.8,0.2-1.2,0.3c0-0.1,0-0.1,0-0.2
		c0-0.5-0.2-0.9-0.4-1.3c-0.3-0.6-0.7-1.2-1.3-1.6c-0.6-0.4-1.4-0.4-1.9,0.1c-0.5,0.4-0.6,1.2-0.3,1.9c0.2,0.6,0.8,1.1,1.3,1.5
		c0.6,0.4,1.3,0.8,2,0.8c0.2,0.3-0.1,0.7-0.4,0.9c-0.3,0.2-0.7,0.1-1.1,0.2c-0.6,0-1.3,0.3-1.8,0.6c-0.2,0.2-1.5,1.7-1,2.3
		c0.2,0.2,0.4,0.3,0.6,0.4c0.6,0.3,1.4,0.3,2,0c0.3-0.1,0.5-0.3,0.7-0.5c0.4-0.5,0.3-1.4,0.8-1.6c0.1,0,0.2-0.1,0.3,0
		c0.2,0.1,0.2,0.4,0.2,0.6c0,1-0.2,2,0,2.9c0.3,0.9,1.2,1.8,2.2,1.5c0.4-0.1,0.7-0.4,0.9-0.7c0.2-0.2,0.4-0.4,0.4-0.7
		c0.1-0.7-0.6-1.2-0.9-1.8c-0.3-0.5-0.4-1.1-0.3-1.7c0.3,0,0.6,0.3,0.8,0.5c0.4,0.5,1,0.8,1.6,0.9c0.7,0.1,1.4,0,1.9-0.4
		c0.5-0.4,0.8-1.2,0.6-1.8c-0.3-0.9-1.5-1.3-2.4-1.2c-1,0-2,0.3-2.9-0.1c0.3-0.1,0.6-0.3,0.9-0.5c7.1,1.1,21.6,3.7,28.2,8.2
		c0.6,7.9,0.3,17.2-1.9,27.8h9.2c0,0,2.2-9,1.7-20.6c2.2-2.1,5.6-6.4,6.9-14.5c0,0-1.8,3.1-4.3,6.5c0.1-0.2,0.2-0.5,0.2-0.8
		c0-0.8-0.7-1.5-1.5-1.5c-0.8,0-1.5,0.7-1.5,1.5c0,0.8,0.7,1.5,1.5,1.5c0.4,0,0.8-0.2,1.1-0.5c-0.9,1.2-1.8,2.4-2.8,3.5
		c-0.5-5.1-1.5-10.5-3.4-15.7c2.4-1,7.2-3.8,11.2-11.6c0.3,0,0.6,0,0.9-0.1c0.2-0.1,0.3-0.2,0.4-0.3c0.2-0.3,0.2-0.9,0.5-1.1
		c0.1,0,0.1,0,0.2,0c0.1,0.1,0.2,0.3,0.2,0.4c0,0.6-0.2,1.3,0,1.9c0.2,0.6,0.8,1.2,1.4,1c0.2-0.1,0.4-0.3,0.6-0.5
		c0.1-0.1,0.2-0.3,0.3-0.5c0.1-0.5-0.4-0.8-0.6-1.2c-0.2-0.3-0.3-0.7-0.2-1.1c0.2,0,0.4,0.2,0.5,0.4c0.3,0.3,0.6,0.5,1,0.6
		c0.4,0.1,0.9,0,1.3-0.2C65.5,18.3,65.7,17.8,65.6,17.3z"/>
	<path fill="#0DB89A" d="M63.3,28.7c-0.6,0-1.3,0.2-1.9,0c0.9-0.4,1.6-1.1,2-2c0.2-0.5,0.2-1.2-0.3-1.4c-0.3-0.2-0.7,0-1.1,0.2
		c-0.2,0.1-0.4,0.3-0.5,0.5c-0.4,0.5-0.2,1.3-0.5,1.9c-0.1,0.2-0.5,0.4-0.7,0.2c-0.1-0.1,0-0.2,0-0.3c0-0.3-0.1-0.6-0.2-0.9
		c-0.2-0.4-0.5-0.8-0.8-1c-0.4-0.2-0.9-0.3-1.3,0c-0.3,0.3-0.4,0.8-0.2,1.2c0.2,0.4,0.5,0.7,0.8,1c0.4,0.3,0.8,0.5,1.3,0.5
		c0.1,0.2,0,0.5-0.3,0.6c-0.2,0.1-0.5,0.1-0.7,0.1c-0.4,0-0.8,0.2-1.2,0.4c-0.1,0.1-1,1.1-0.7,1.5c0.1,0.1,0.3,0.2,0.4,0.3
		c0.4,0.2,0.9,0.2,1.3,0c0.2-0.1,0.3-0.2,0.4-0.3c0.2-0.3,0.2-0.9,0.5-1.1c0.1,0,0.1,0,0.2,0c0.1,0.1,0.2,0.3,0.2,0.4
		c0,0.6-0.2,1.3,0,1.9c0.2,0.6,0.8,1.2,1.4,1c0.2-0.1,0.4-0.3,0.6-0.5c0.1-0.1,0.2-0.3,0.3-0.5c0.1-0.5-0.4-0.8-0.6-1.2
		c-0.2-0.3-0.3-0.7-0.2-1.1c0.2,0,0.4,0.2,0.5,0.4c0.3,0.3,0.6,0.5,1,0.6c0.4,0.1,0.9,0,1.3-0.2c0.3-0.3,0.5-0.8,0.4-1.2
		C64.7,28.9,63.9,28.7,63.3,28.7z"/>
	<path fill="#0DB89A" d="M36.8,47.3c-0.6,0-1.3,0.2-1.9,0c0.9-0.4,1.6-1.1,2-2c0.2-0.5,0.2-1.2-0.3-1.4c-0.3-0.2-0.7,0-1.1,0.2
		c-0.2,0.1-0.4,0.3-0.5,0.5c-0.4,0.5-0.2,1.3-0.5,1.9c-0.1,0.2-0.5,0.4-0.7,0.2c-0.1-0.1,0-0.2,0-0.3c0-0.3-0.1-0.6-0.2-0.9
		c-0.2-0.4-0.5-0.8-0.8-1c-0.4-0.2-0.9-0.3-1.3,0c-0.3,0.3-0.4,0.8-0.2,1.2s0.5,0.7,0.8,1c0.4,0.3,0.8,0.5,1.3,0.5
		c0.1,0.2,0,0.5-0.3,0.6c-0.2,0.1-0.5,0.1-0.7,0.1c-0.4,0-0.8,0.2-1.2,0.4c-0.1,0.1-1,1.1-0.7,1.5c0.1,0.1,0.3,0.2,0.4,0.3
		c0.4,0.2,0.9,0.2,1.3,0c0.2-0.1,0.3-0.2,0.4-0.3c0.2-0.3,0.2-0.9,0.5-1.1c0.1,0,0.1,0,0.2,0c0.1,0.1,0.2,0.3,0.2,0.4
		c0,0.6-0.2,1.3,0,1.9c0.2,0.6,0.8,1.2,1.4,1c0.2-0.1,0.4-0.3,0.6-0.5c0.1-0.1,0.2-0.3,0.3-0.5c0.1-0.5-0.4-0.8-0.6-1.2
		c-0.2-0.3-0.3-0.7-0.2-1.1c0.2,0,0.4,0.2,0.5,0.4c0.3,0.3,0.6,0.5,1,0.6c0.4,0.1,0.9,0,1.3-0.2c0.3-0.3,0.5-0.8,0.4-1.2
		C38.2,47.5,37.5,47.2,36.8,47.3z"/>
	<path fill="#0DB89A" d="M51,6.7c0.4,0.2,0.9,0.2,1.3,0c0.2-0.1,0.3-0.2,0.4-0.3C53,6,52.9,5.5,53.3,5.3c0.1,0,0.1,0,0.2,0
		c0.1,0.1,0.2,0.3,0.2,0.4c0,0.6-0.2,1.3,0,1.9c0.2,0.6,0.8,1.2,1.4,1c0.2-0.1,0.4-0.3,0.6-0.5c0.1-0.1,0.2-0.3,0.3-0.5
		c0.1-0.5-0.4-0.8-0.6-1.2c-0.2-0.3-0.3-0.7-0.2-1.1c0.2,0,0.4,0.2,0.5,0.4c0.3,0.3,0.6,0.5,1,0.6c0.4,0.1,0.9,0,1.3-0.2
		c0.3-0.3,0.5-0.8,0.4-1.2c-0.2-0.6-1-0.8-1.6-0.8c-0.6,0-1.3,0.2-1.9,0c0.9-0.4,1.6-1.1,2-2c0.2-0.5,0.2-1.2-0.3-1.4
		c-0.3-0.2-0.7,0-1.1,0.2C55.3,0.9,55.1,1,55,1.2c-0.4,0.5-0.2,1.3-0.5,1.9c-0.1,0.2-0.5,0.4-0.7,0.2c-0.1-0.1,0-0.2,0-0.3
		c0-0.3-0.1-0.6-0.2-0.9c-0.2-0.4-0.5-0.8-0.8-1c-0.4-0.2-0.9-0.3-1.3,0c-0.3,0.3-0.4,0.8-0.2,1.2c0.2,0.4,0.5,0.7,0.8,1
		c0.4,0.3,0.8,0.5,1.3,0.5c0.1,0.2,0,0.5-0.3,0.6c-0.2,0.1-0.5,0.1-0.7,0.1c-0.4,0-0.8,0.2-1.2,0.4c-0.1,0.1-1,1.1-0.7,1.5
		C50.7,6.6,50.8,6.6,51,6.7z"/>
	<path fill="#0DB89A" d="M13,15.9c0.4,0.2,0.9,0.2,1.3,0c0.2-0.1,0.3-0.2,0.4-0.3c0.2-0.3,0.2-0.9,0.5-1.1c0.1,0,0.1,0,0.2,0
		c0.1,0.1,0.2,0.3,0.2,0.4c0,0.6-0.2,1.3,0,1.9c0.2,0.6,0.8,1.2,1.4,1c0.2-0.1,0.4-0.3,0.6-0.5c0.1-0.1,0.2-0.3,0.3-0.5
		c0.1-0.5-0.4-0.8-0.6-1.2c-0.2-0.3-0.3-0.7-0.2-1.1c0.2,0,0.4,0.2,0.5,0.4c0.3,0.3,0.6,0.5,1,0.6c0.4,0.1,0.9,0,1.3-0.2
		c0.3-0.3,0.5-0.8,0.4-1.2c-0.2-0.6-1-0.8-1.6-0.8c-0.6,0-1.3,0.2-1.9,0c0.9-0.4,1.6-1.1,2-2c0.2-0.5,0.2-1.2-0.3-1.4
		c-0.3-0.2-0.7,0-1.1,0.2c-0.2,0.1-0.4,0.3-0.5,0.5c-0.4,0.5-0.2,1.3-0.5,1.9c-0.1,0.2-0.5,0.4-0.7,0.2c-0.1-0.1,0-0.2,0-0.3
		c0-0.3-0.1-0.6-0.2-0.9c-0.2-0.4-0.5-0.8-0.8-1c-0.4-0.2-0.9-0.3-1.3,0c-0.3,0.3-0.4,0.8-0.2,1.2c0.2,0.4,0.5,0.7,0.8,1
		c0.4,0.3,0.8,0.5,1.3,0.5c0.1,0.2,0,0.5-0.3,0.6c-0.2,0.1-0.5,0.1-0.7,0.1c-0.4,0-0.8,0.2-1.2,0.4c-0.1,0.1-1,1.1-0.7,1.5
		C12.7,15.8,12.9,15.9,13,15.9z"/>
	<path fill="#0DB89A" d="M50.5,18.3c0.1,0,0.2,0,0.3,0c0.3,0,0.6-0.2,0.9-0.4c0.3,0.3,0.5,0.6,0.8,0.9c0.1,0.1,0.2,0.2,0.3,0.2
		c0.2,0.1,0.5,0,0.7-0.1c0.4-0.2,0.6-0.6,0.8-1c0.4-1,0.4-2.1,0.2-3.1c-0.2-0.9-0.6-1.7-0.8-2.6c-0.1-0.5-0.2-0.9-0.2-1.4
		c-0.3,0.5-0.9,0.8-1.3,1.2c-0.3,0.2-0.5,0.5-0.7,0.7c-0.2,0.3-0.4,0.5-0.6,0.8c-0.1,0.3-0.2,0.6-0.3,0.9c-0.2,0.6-0.6,1.2-0.7,1.9
		c-0.1,0.6,0.1,1.3,0.6,1.8C50.3,18.2,50.4,18.3,50.5,18.3z"/>
	<path fill="#0DB89A" d="M43.7,13.6c0.1,0,0.2,0,0.3,0c0.3,0,0.6-0.2,0.9-0.4c0.3,0.3,0.5,0.6,0.8,0.9c0.1,0.1,0.2,0.2,0.3,0.2
		c0.2,0.1,0.5,0,0.7-0.1c0.4-0.2,0.6-0.6,0.8-1c0.4-1,0.4-2.1,0.2-3.1c-0.2-0.9-0.6-1.7-0.8-2.6c-0.1-0.5-0.2-0.9-0.2-1.4
		c-0.3,0.5-0.9,0.8-1.3,1.2c-0.3,0.2-0.5,0.5-0.7,0.7c-0.2,0.3-0.4,0.5-0.6,0.8c-0.1,0.3-0.2,0.6-0.3,0.9c-0.2,0.6-0.6,1.2-0.7,1.9
		c-0.1,0.6,0.1,1.3,0.6,1.8C43.5,13.5,43.6,13.6,43.7,13.6z"/>
	<path fill="#0DB89A" d="M13.4,26.7c0.1,0,0.2,0,0.3,0c0.3,0,0.6-0.2,0.9-0.4c0.3,0.3,0.5,0.6,0.8,0.9c0.1,0.1,0.2,0.2,0.3,0.2
		c0.2,0.1,0.5,0,0.7-0.1c0.4-0.2,0.6-0.6,0.8-1c0.4-1,0.4-2.1,0.2-3.1c-0.2-0.9-0.6-1.7-0.8-2.6c-0.1-0.5-0.2-0.9-0.2-1.4
		c-0.3,0.5-0.9,0.8-1.3,1.2c-0.3,0.2-0.5,0.5-0.7,0.7c-0.2,0.3-0.4,0.5-0.6,0.8c-0.1,0.3-0.2,0.6-0.3,0.9c-0.2,0.6-0.6,1.2-0.7,1.9
		c-0.1,0.6,0.1,1.3,0.6,1.8C13.2,26.6,13.3,26.7,13.4,26.7z"/>
	<path fill="#0DB89A" d="M26.1,30.9c0.3,0,0.5-0.2,0.7-0.3c0.2,0.3,0.4,0.5,0.7,0.8c0.1,0.1,0.1,0.1,0.2,0.2c0.2,0.1,0.4,0,0.6-0.1
		c0.3-0.2,0.5-0.5,0.7-0.9c0.3-0.8,0.4-1.8,0.2-2.6c-0.2-0.8-0.5-1.5-0.7-2.2c-0.1-0.4-0.1-0.8-0.1-1.2c-0.3,0.5-0.8,0.7-1.2,1.1
		c-0.2,0.2-0.4,0.4-0.6,0.6c-0.2,0.2-0.4,0.5-0.5,0.7c-0.1,0.2-0.2,0.5-0.3,0.7c-0.2,0.5-0.5,1-0.6,1.6c-0.1,0.5,0.1,1.1,0.5,1.5
		c0.1,0.1,0.1,0.1,0.2,0.1C26,30.9,26.1,30.9,26.1,30.9z"/>
	<path fill="#0DB89A" d="M25.4,43.4c-0.1-0.4-0.1-0.8-0.1-1.2c-0.3,0.5-0.8,0.7-1.2,1.1c-0.2,0.2-0.4,0.4-0.6,0.6
		c-0.2,0.2-0.4,0.5-0.5,0.7c-0.1,0.2-0.2,0.5-0.3,0.7c-0.2,0.5-0.5,1-0.6,1.6c-0.1,0.5,0.1,1.1,0.5,1.5c0.1,0.1,0.1,0.1,0.2,0.1
		c0.1,0,0.1,0,0.2,0c0.3,0,0.5-0.2,0.7-0.3c0.2,0.3,0.4,0.5,0.7,0.8c0.1,0.1,0.1,0.1,0.2,0.2c0.2,0.1,0.4,0,0.6-0.1
		c0.3-0.2,0.5-0.5,0.7-0.9c0.3-0.8,0.4-1.8,0.2-2.6C25.9,44.8,25.5,44.1,25.4,43.4z"/>
	<circle fill="#0DB89A" cx="54.1" cy="33.2" r="1.5"/>
	<circle fill="#0DB89A" cx="29" cy="17.8" r="1.7"/>
	<circle fill="#0DB89A" cx="57" cy="28.4" r="1.3"/>
</g>
</svg>
