<?xml version="1.0" encoding="utf-8"?>
<!-- Generator: Adobe Illustrator 18.0.0, SVG Export Plug-In . SVG Version: 6.00 Build 0)  -->
<!DOCTYPE svg PUBLIC "-//W3C//DTD SVG 1.1//EN" "http://www.w3.org/Graphics/SVG/1.1/DTD/svg11.dtd">
<svg version="1.1" id="Layer_1" xmlns="http://www.w3.org/2000/svg" xmlns:xlink="http://www.w3.org/1999/xlink" x="0px" y="0px"
	 viewBox="0 0 72 72" enable-background="new 0 0 72 72" xml:space="preserve">
<g>
	<path fill="#06728D" d="M40.5,48.2c0-0.1-0.1-0.2-0.3-0.2s-0.2,0-0.3,0c-0.5,0.1-1.1,0-1.6-0.2c0.1-0.1,0.3-0.2,0.4-0.3
		c0.1-0.1,0.3-0.2,0.4-0.3c0.1-0.1,0.1-0.3,0-0.5c0,0-0.1-0.1-0.1-0.1c0,0-0.1,0-0.1,0c-0.2,0.1-0.4,0.3-0.6,0.5
		c-0.2,0.2-0.5,0.3-0.7,0.3c-0.1,0-0.2-0.1-0.3,0c-0.1,0.1,0,0.2,0,0.3c0.1,0.2,0.1,0.4,0.2,0.6c-0.1,0.2-0.4,0.2-0.5,0.4
		c0,0.1,0,0.2,0,0.2c0,0.2,0,0.4-0.1,0.6c-0.1,0.1-0.1,0.3-0.1,0.4c0,0.1,0.1,0.2,0.2,0.3c0,0,0,0,0,0c0,0,0,0,0.1,0
		c0.2,0,0.3-0.3,0.4-0.5c0-0.2-0.1-0.4-0.1-0.6c0.4,0.6,0.8,1.2,1.2,1.8c0.1,0.1,0.2,0.3,0.3,0.2c0.1,0,0.2-0.1,0.1-0.2
		c0-0.1,0-0.2-0.1-0.3c-0.2-0.5-0.5-1-0.7-1.4c0.4,0.2,0.7,0.4,1.1,0.6c0.4,0.1,0.9,0.1,1.2-0.1c-0.1-0.2-0.3-0.3-0.4-0.4
		c-0.4-0.3-0.8-0.6-1.2-0.9C39.4,48.5,40,48.4,40.5,48.2z"/>
	<path fill="#06728D" d="M55.8,22C55.8,22,55.8,22,55.8,22c0,0.1,0,0.1,0,0.1c0.2,0.1,0.4,0.1,0.6,0c0.2-0.1,0.3-0.3,0.4-0.5
		c-0.2,0.7-0.4,1.3-0.6,2c0,0.1-0.1,0.3,0,0.4c0.1,0.1,0.2,0,0.3,0c0.1-0.1,0.1-0.2,0.2-0.3c0.2-0.5,0.4-1,0.7-1.5
		c0.1,0.4,0.1,0.8,0.3,1.2c0.2,0.4,0.4,0.8,0.8,0.9c0.1-0.2,0.1-0.4,0.1-0.6c0-0.5,0-1,0-1.5c0.3,0.5,0.8,0.9,1.3,1.2
		c0.1-0.1,0.1-0.2,0-0.3c-0.1-0.1-0.1-0.2-0.2-0.3c-0.4-0.4-0.7-0.8-0.8-1.4c0.2,0,0.3,0.1,0.5,0.1c0.2,0.1,0.3,0.1,0.5,0.1
		c0.2,0,0.3-0.1,0.4-0.3c0,0,0-0.1,0-0.1c0,0-0.1-0.1-0.1-0.1c-0.3-0.1-0.5-0.1-0.8-0.2c-0.3-0.1-0.5-0.2-0.7-0.4
		c-0.1-0.1-0.1-0.2-0.2-0.2c-0.1,0-0.2,0.1-0.2,0.2c-0.1,0.2-0.2,0.4-0.3,0.5c-0.2,0-0.4-0.2-0.6-0.1c-0.1,0-0.1,0.1-0.2,0.1
		c-0.2,0.1-0.3,0.2-0.5,0.3c-0.1,0-0.3,0.1-0.4,0.2C55.8,21.8,55.8,21.9,55.8,22z"/>
	<path fill="#06728D" d="M60.9,42c-0.3-0.1-0.5-0.1-0.8-0.2c-0.3-0.1-0.5-0.2-0.7-0.4c-0.1-0.1-0.1-0.2-0.2-0.2
		c-0.1,0-0.2,0.1-0.2,0.2c-0.1,0.2-0.2,0.4-0.3,0.5c-0.2,0-0.4-0.2-0.6-0.1c-0.1,0-0.1,0.1-0.2,0.1c-0.2,0.1-0.3,0.2-0.5,0.3
		c-0.1,0-0.3,0.1-0.4,0.2c-0.1,0.1-0.1,0.2-0.1,0.3c0,0,0,0,0,0.1c0,0,0,0,0,0.1c0.2,0.1,0.4,0.1,0.6,0c0.2-0.1,0.3-0.3,0.4-0.5
		c-0.2,0.7-0.4,1.3-0.6,2c0,0.1-0.1,0.3,0,0.4c0.1,0.1,0.2,0,0.3,0c0.1-0.1,0.1-0.2,0.2-0.3c0.2-0.5,0.4-1,0.7-1.5
		c0.1,0.4,0.1,0.8,0.3,1.2c0.2,0.4,0.4,0.8,0.8,0.9c0.1-0.2,0.1-0.4,0.1-0.6c0-0.5,0-1,0-1.5c0.3,0.5,0.8,0.9,1.3,1.2
		c0.1-0.1,0.1-0.2,0-0.3c-0.1-0.1-0.1-0.2-0.2-0.3c-0.4-0.4-0.7-0.8-0.8-1.4c0.2,0,0.3,0.1,0.5,0.1c0.2,0.1,0.3,0.1,0.5,0.1
		c0.2,0,0.3-0.1,0.4-0.3c0,0,0-0.1,0-0.1C61,42,60.9,42,60.9,42z"/>
	<path fill="#06728D" d="M6.6,29.8c-0.1,0.1,0,0.2,0,0.3c0.1,0.2,0.1,0.4,0.2,0.6c-0.1,0.2-0.4,0.2-0.5,0.4c0,0.1,0,0.2,0,0.2
		c0,0.2,0,0.4-0.1,0.6c-0.1,0.1-0.1,0.3-0.1,0.4c0,0.1,0.1,0.2,0.2,0.3c0,0,0,0,0,0c0,0,0,0,0.1,0c0.2,0,0.3-0.3,0.4-0.5
		c0-0.2-0.1-0.4-0.1-0.6c0.4,0.6,0.8,1.2,1.2,1.8c0.1,0.1,0.2,0.3,0.3,0.2c0.1,0,0.2-0.1,0.1-0.2c0-0.1,0-0.2-0.1-0.3
		c-0.2-0.5-0.5-1-0.7-1.4c0.4,0.2,0.7,0.4,1.1,0.6c0.4,0.1,0.9,0.1,1.2-0.1c-0.1-0.2-0.3-0.3-0.4-0.4c-0.4-0.3-0.8-0.6-1.2-0.9
		c0.6,0.1,1.2,0,1.8-0.3c0-0.1-0.1-0.2-0.3-0.2c-0.1,0-0.2,0-0.3,0c-0.5,0.1-1.1,0-1.6-0.2C7.9,30,8,29.9,8.2,29.9
		c0.1-0.1,0.3-0.2,0.4-0.3c0.1-0.1,0.1-0.3,0-0.5c0,0-0.1-0.1-0.1-0.1c0,0-0.1,0-0.1,0c-0.2,0.1-0.4,0.3-0.6,0.5
		c-0.2,0.2-0.5,0.3-0.7,0.3C6.9,29.8,6.7,29.7,6.6,29.8z"/>
	<path fill="#06728D" d="M46.2,44.7c0-0.1-0.1-0.2-0.3-0.2c-0.1,0-0.2,0-0.3,0c-0.5,0.1-1.1,0-1.6-0.2c0.1-0.1,0.3-0.2,0.4-0.3
		c0.1-0.1,0.3-0.2,0.4-0.3c0.1-0.1,0.1-0.3,0-0.5c0,0-0.1-0.1-0.1-0.1c0,0-0.1,0-0.1,0c-0.2,0.1-0.4,0.3-0.6,0.5
		c-0.2,0.2-0.5,0.3-0.7,0.3c-0.1,0-0.2-0.1-0.3,0c-0.1,0.1,0,0.2,0,0.3c0.1,0.2,0.1,0.4,0.2,0.6c-0.1,0.2-0.4,0.2-0.5,0.4
		c0,0.1,0,0.2,0,0.2c0,0.2,0,0.4-0.1,0.6c-0.1,0.1-0.1,0.3-0.1,0.4c0,0.1,0.1,0.2,0.2,0.3c0,0,0,0,0,0c0,0,0,0,0.1,0
		c0.2,0,0.3-0.3,0.4-0.5c0-0.2-0.1-0.4-0.1-0.6c0.4,0.6,0.8,1.2,1.2,1.8c0.1,0.1,0.2,0.3,0.3,0.2c0.1,0,0.2-0.1,0.1-0.2
		c0-0.1,0-0.2-0.1-0.3c-0.2-0.5-0.5-1-0.7-1.4c0.4,0.2,0.7,0.4,1.1,0.6c0.4,0.1,0.9,0.1,1.2-0.1c-0.1-0.2-0.3-0.3-0.4-0.4
		c-0.4-0.3-0.8-0.6-1.2-0.9C45,45.1,45.6,45,46.2,44.7z"/>
	<path fill="#06728D" d="M7,26.1c-0.1-0.2-0.3-0.3-0.4-0.4c-0.4-0.3-0.8-0.6-1.2-0.9c0.6,0.1,1.2,0,1.8-0.3c0-0.1-0.1-0.2-0.3-0.2
		c-0.1,0-0.2,0-0.3,0c-0.5,0.1-1.1,0-1.6-0.2c0.1-0.1,0.3-0.2,0.4-0.3c0.1-0.1,0.3-0.2,0.4-0.3c0.1-0.1,0.1-0.3,0-0.5
		c0,0-0.1-0.1-0.1-0.1c0,0-0.1,0-0.1,0c-0.2,0.1-0.4,0.3-0.6,0.5c-0.2,0.2-0.5,0.3-0.7,0.3c-0.1,0-0.2-0.1-0.3,0
		c-0.1,0.1,0,0.2,0,0.3c0.1,0.2,0.1,0.4,0.2,0.6c-0.1,0.2-0.4,0.2-0.5,0.4c0,0.1,0,0.2,0,0.2c0,0.2,0,0.4-0.1,0.6
		c-0.1,0.1-0.1,0.3-0.1,0.4c0,0.1,0.1,0.2,0.2,0.3c0,0,0,0,0,0c0,0,0,0,0.1,0c0.2,0,0.3-0.3,0.4-0.5c0-0.2-0.1-0.4-0.1-0.6
		c0.4,0.6,0.8,1.2,1.2,1.8c0.1,0.1,0.2,0.3,0.3,0.2c0.1,0,0.2-0.1,0.1-0.2c0-0.1,0-0.2-0.1-0.3c-0.2-0.5-0.5-1-0.7-1.4
		C5,25.8,5.4,26,5.8,26.1C6.2,26.3,6.6,26.3,7,26.1z"/>
	<path fill="#06728D" d="M68.1,34c-0.4-0.3-0.8-0.6-1.2-0.9c0.6,0.1,1.2,0,1.8-0.3c0-0.1-0.1-0.2-0.3-0.2c-0.1,0-0.2,0-0.3,0
		c-0.5,0.1-1.1,0-1.6-0.2c0.1-0.1,0.3-0.2,0.4-0.3c0.1-0.1,0.3-0.2,0.4-0.3c0.1-0.1,0.1-0.3,0-0.5c0,0-0.1-0.1-0.1-0.1
		c0,0-0.1,0-0.1,0c-0.2,0.1-0.4,0.3-0.6,0.5c-0.2,0.2-0.5,0.3-0.7,0.3c-0.1,0-0.2-0.1-0.3,0c-0.1,0.1,0,0.2,0,0.3
		c0.1,0.2,0.1,0.4,0.2,0.6c-0.1,0.2-0.4,0.2-0.5,0.4c0,0.1,0,0.2,0,0.2c0,0.2,0,0.4-0.1,0.6c-0.1,0.1-0.1,0.3-0.1,0.4
		c0,0.1,0.1,0.2,0.2,0.3c0,0,0,0,0,0c0,0,0,0,0.1,0c0.2,0,0.3-0.3,0.4-0.5c0-0.2-0.1-0.4-0.1-0.6c0.4,0.6,0.8,1.2,1.2,1.8
		c0.1,0.1,0.2,0.3,0.3,0.2c0.1,0,0.2-0.1,0.1-0.2c0-0.1,0-0.2-0.1-0.3c-0.2-0.5-0.5-1-0.7-1.4c0.4,0.2,0.7,0.4,1.1,0.6
		c0.4,0.1,0.9,0.1,1.2-0.1C68.4,34.3,68.3,34.2,68.1,34z"/>
	<path fill="#06728D" d="M60.2,26.1C60.2,26.1,60.3,26.1,60.2,26.1c0.1,0,0.1,0,0.1,0c0.2,0,0.3-0.3,0.4-0.5c0-0.2-0.1-0.4-0.1-0.6
		c0.4,0.6,0.8,1.2,1.2,1.8c0.1,0.1,0.2,0.3,0.3,0.2c0.1,0,0.2-0.1,0.1-0.2c0-0.1,0-0.2-0.1-0.3c-0.2-0.5-0.5-1-0.7-1.4
		c0.4,0.2,0.7,0.4,1.1,0.6c0.4,0.1,0.9,0.1,1.2-0.1c-0.1-0.2-0.3-0.3-0.4-0.4c-0.4-0.3-0.8-0.6-1.2-0.9c0.6,0.1,1.2,0,1.8-0.3
		c0-0.1-0.1-0.2-0.3-0.2c-0.1,0-0.2,0-0.3,0c-0.5,0.1-1.1,0-1.6-0.2c0.1-0.1,0.3-0.2,0.4-0.3c0.1-0.1,0.3-0.2,0.4-0.3
		c0.1-0.1,0.1-0.3,0-0.5c0,0-0.1-0.1-0.1-0.1c0,0-0.1,0-0.1,0c-0.2,0.1-0.4,0.3-0.6,0.5c-0.2,0.2-0.5,0.3-0.7,0.3
		c-0.1,0-0.2-0.1-0.3,0c-0.1,0.1,0,0.2,0,0.3c0.1,0.2,0.1,0.4,0.2,0.6c-0.1,0.2-0.4,0.2-0.5,0.4c0,0.1,0,0.2,0,0.2
		c0,0.2,0,0.4-0.1,0.6c-0.1,0.1-0.1,0.3-0.1,0.4C60.1,25.9,60.2,26,60.2,26.1z"/>
	<path fill="#06728D" d="M20.5,7.5c0.2,0.1,0.4,0.1,0.6,0.2c0,0.2-0.1,0.4,0,0.6c0,0.1,0.1,0.1,0.2,0.2c0.2,0.1,0.3,0.3,0.4,0.5
		c0.1,0.1,0.1,0.3,0.3,0.4c0.1,0.1,0.2,0.1,0.3,0.1c0,0,0,0,0.1,0c0,0,0,0,0,0c0.1-0.2,0-0.4-0.1-0.6c-0.2-0.2-0.4-0.2-0.6-0.3
		c0.7,0.1,1.4,0.2,2.1,0.2c0.1,0,0.3,0,0.4-0.1c0-0.1,0-0.2-0.1-0.3c-0.1-0.1-0.2-0.1-0.3-0.1c-0.5-0.1-1-0.2-1.6-0.4
		c0.4-0.1,0.8-0.3,1.2-0.5c0.4-0.2,0.7-0.6,0.7-1c-0.2,0-0.4,0-0.6,0.1c-0.5,0.1-1,0.2-1.4,0.3c0.4-0.4,0.8-1,0.9-1.5
		c-0.1,0-0.2,0-0.3,0.1c-0.1,0.1-0.1,0.2-0.2,0.3c-0.3,0.5-0.7,0.8-1.2,1.1c0-0.2,0-0.3,0-0.5c0-0.2,0-0.3,0-0.5
		c-0.1-0.2-0.2-0.3-0.4-0.3c0,0-0.1,0-0.1,0c0,0,0,0.1,0,0.1c0,0.3,0,0.5,0,0.8c0,0.3-0.1,0.5-0.3,0.7c-0.1,0.1-0.2,0.2-0.2,0.3
		C20.2,7.4,20.4,7.4,20.5,7.5z"/>
	<path fill="#06728D" d="M52.3,17.9c0.2,0.1,0.4,0.1,0.6,0.2c0,0.2-0.1,0.4,0,0.6c0,0.1,0.1,0.1,0.2,0.2c0.2,0.1,0.3,0.3,0.4,0.5
		c0.1,0.1,0.1,0.3,0.3,0.4c0.1,0.1,0.2,0.1,0.3,0.1c0,0,0,0,0.1,0c0,0,0,0,0,0c0.1-0.2,0-0.4-0.1-0.6c-0.2-0.2-0.4-0.2-0.6-0.3
		c0.7,0.1,1.4,0.2,2.1,0.2c0.1,0,0.3,0,0.4-0.1c0-0.1,0-0.2-0.1-0.3s-0.2-0.1-0.3-0.1c-0.5-0.1-1-0.2-1.6-0.4
		c0.4-0.1,0.8-0.3,1.2-0.5c0.4-0.2,0.7-0.6,0.7-1c-0.2,0-0.4,0-0.6,0.1c-0.5,0.1-1,0.2-1.4,0.3c0.4-0.4,0.8-1,0.9-1.5
		c-0.1,0-0.2,0-0.3,0.1c-0.1,0.1-0.1,0.2-0.2,0.3c-0.3,0.5-0.7,0.8-1.2,1.1c0-0.2,0-0.3,0-0.5c0-0.2,0-0.3,0-0.5
		c-0.1-0.2-0.2-0.3-0.4-0.3c0,0-0.1,0-0.1,0c0,0,0,0.1,0,0.1c0,0.3,0,0.5,0,0.8c0,0.3-0.1,0.5-0.3,0.7c-0.1,0.1-0.2,0.2-0.2,0.3
		C52,17.8,52.2,17.9,52.3,17.9z"/>
	<path fill="#06728D" d="M13.5,40.2c0.7,0.1,1.4,0.2,2.1,0.2c0.1,0,0.3,0,0.4-0.1c0-0.1,0-0.2-0.1-0.3c-0.1-0.1-0.2-0.1-0.3-0.1
		c-0.5-0.1-1-0.2-1.6-0.4c0.4-0.1,0.8-0.3,1.2-0.5s0.7-0.6,0.7-1c-0.2,0-0.4,0-0.6,0.1c-0.5,0.1-1,0.2-1.4,0.3
		c0.4-0.4,0.8-1,0.9-1.5c-0.1,0-0.2,0-0.3,0.1c-0.1,0.1-0.1,0.2-0.2,0.3c-0.3,0.5-0.7,0.8-1.2,1.1c0-0.2,0-0.3,0-0.5
		c0-0.2,0-0.3,0-0.5c-0.1-0.2-0.2-0.3-0.4-0.3c0,0-0.1,0-0.1,0c0,0,0,0.1,0,0.1c0,0.3,0,0.5,0,0.8c0,0.3-0.1,0.5-0.3,0.7
		c-0.1,0.1-0.2,0.2-0.2,0.3c0,0.1,0.1,0.2,0.2,0.2c0.2,0.1,0.4,0.1,0.6,0.2c0,0.2-0.1,0.4,0,0.6c0,0.1,0.1,0.1,0.2,0.2
		c0.2,0.1,0.3,0.3,0.4,0.5c0.1,0.1,0.1,0.3,0.3,0.4c0.1,0.1,0.2,0.1,0.3,0.1c0,0,0,0,0.1,0c0,0,0,0,0,0c0.1-0.2,0-0.4-0.1-0.6
		C14,40.4,13.7,40.3,13.5,40.2z"/>
	<path fill="#06728D" d="M56.8,30.3c0-0.1,0-0.2-0.1-0.3c-0.1-0.1-0.2-0.1-0.3-0.1c-0.5-0.1-1-0.2-1.6-0.4c0.4-0.1,0.8-0.3,1.2-0.5
		c0.4-0.2,0.7-0.6,0.7-1c-0.2,0-0.4,0-0.6,0.1c-0.5,0.1-1,0.2-1.4,0.3c0.4-0.4,0.8-1,0.9-1.5c-0.1,0-0.2,0-0.3,0.1
		c-0.1,0.1-0.1,0.2-0.2,0.3c-0.3,0.5-0.7,0.8-1.2,1.1c0-0.2,0-0.3,0-0.5c0-0.2,0-0.3,0-0.5c-0.1-0.2-0.2-0.3-0.4-0.3
		c0,0-0.1,0-0.1,0c0,0,0,0.1,0,0.1c0,0.3,0,0.5,0,0.8c0,0.3-0.1,0.5-0.3,0.7c-0.1,0.1-0.2,0.2-0.2,0.3c0,0.1,0.1,0.2,0.2,0.2
		c0.2,0.1,0.4,0.1,0.6,0.2c0,0.2-0.1,0.4,0,0.6c0,0.1,0.1,0.1,0.2,0.2c0.2,0.1,0.3,0.3,0.4,0.5c0.1,0.1,0.1,0.3,0.3,0.4
		c0.1,0.1,0.2,0.1,0.3,0.1c0,0,0,0,0.1,0c0,0,0,0,0,0c0.1-0.2,0-0.4-0.1-0.6c-0.2-0.2-0.4-0.2-0.6-0.3c0.7,0.1,1.4,0.2,2.1,0.2
		C56.5,30.4,56.7,30.4,56.8,30.3z"/>
	<path fill="#06728D" d="M36.2,33.7c-0.2-0.1-0.4-0.1-0.6-0.1c-0.5,0-1,0-1.5,0c0.5-0.3,1-0.8,1.2-1.3c-0.1-0.1-0.2-0.1-0.3,0
		c-0.1,0.1-0.2,0.1-0.3,0.2c-0.4,0.4-0.9,0.7-1.4,0.8c0-0.2,0.1-0.3,0.1-0.5c0.1-0.2,0.1-0.3,0.1-0.5c0-0.2-0.1-0.3-0.3-0.4
		c0,0-0.1,0-0.1,0c0,0-0.1,0.1-0.1,0.1C33,32.4,33,32.7,33,32.9c-0.1,0.3-0.2,0.5-0.4,0.6c-0.1,0.1-0.2,0.1-0.2,0.2
		c0,0.1,0.1,0.2,0.2,0.2c0.2,0.1,0.3,0.2,0.5,0.3c0,0.2-0.2,0.4-0.1,0.6c0,0.1,0.1,0.1,0.1,0.2c0.1,0.2,0.2,0.3,0.3,0.5
		c0,0.1,0.1,0.3,0.2,0.4c0.1,0.1,0.2,0.1,0.3,0.1c0,0,0,0,0.1,0c0,0,0,0,0.1,0c0.1-0.2,0.1-0.4,0-0.6c-0.1-0.2-0.3-0.3-0.5-0.4
		c0.7,0.2,1.3,0.5,2,0.7c0.1,0,0.3,0.1,0.4,0c0.1-0.1,0-0.2,0-0.3c-0.1-0.1-0.2-0.1-0.2-0.2c-0.5-0.2-1-0.5-1.4-0.7
		c0.4,0,0.9-0.1,1.2-0.2C35.7,34.3,36.1,34.1,36.2,33.7z"/>
	<path fill="#06728D" d="M12.3,31.9c0.2,0.1,0.3,0.2,0.5,0.3c0,0.2-0.2,0.4-0.1,0.6c0,0.1,0.1,0.1,0.1,0.2c0.1,0.2,0.2,0.3,0.3,0.5
		c0,0.1,0.1,0.3,0.2,0.4c0.1,0.1,0.2,0.1,0.3,0.1c0,0,0,0,0.1,0c0,0,0,0,0.1,0c0.1-0.2,0.1-0.4,0-0.6c-0.1-0.2-0.3-0.3-0.5-0.4
		c0.7,0.2,1.3,0.5,2,0.7c0.1,0,0.3,0.1,0.4,0c0.1-0.1,0-0.2,0-0.3c-0.1-0.1-0.2-0.1-0.2-0.2c-0.5-0.2-1-0.5-1.4-0.7
		c0.4,0,0.9-0.1,1.2-0.2s0.8-0.4,0.9-0.8c-0.2-0.1-0.4-0.1-0.6-0.1c-0.5,0-1,0-1.5,0c0.5-0.3,1-0.8,1.2-1.3c-0.1-0.1-0.2-0.1-0.3,0
		c-0.1,0.1-0.2,0.1-0.3,0.2c-0.4,0.4-0.9,0.7-1.4,0.8c0-0.2,0.1-0.3,0.1-0.5c0.1-0.2,0.1-0.3,0.1-0.5c0-0.2-0.1-0.3-0.3-0.4
		c0,0-0.1,0-0.1,0c0,0-0.1,0.1-0.1,0.1c-0.1,0.3-0.1,0.5-0.2,0.8c-0.1,0.3-0.2,0.5-0.4,0.6c-0.1,0.1-0.2,0.1-0.2,0.2
		C12.1,31.8,12.2,31.8,12.3,31.9z"/>
	<path fill="#06728D" d="M22.2,18.2c-0.2-0.1-0.4-0.1-0.6-0.1c-0.5,0-1,0-1.5,0c0.5-0.3,1-0.8,1.2-1.3c-0.1-0.1-0.2-0.1-0.3,0
		c-0.1,0.1-0.2,0.1-0.3,0.2c-0.4,0.4-0.9,0.7-1.4,0.8c0-0.2,0.1-0.3,0.1-0.5c0.1-0.2,0.1-0.3,0.1-0.5c0-0.2-0.1-0.3-0.3-0.4
		c0,0-0.1,0-0.1,0c0,0-0.1,0.1-0.1,0.1c-0.1,0.3-0.1,0.5-0.2,0.8c-0.1,0.3-0.2,0.5-0.4,0.6c-0.1,0.1-0.2,0.1-0.2,0.2
		c0,0.1,0.1,0.2,0.2,0.2c0.2,0.1,0.3,0.2,0.5,0.3c0,0.2-0.2,0.4-0.1,0.6c0,0.1,0.1,0.1,0.1,0.2c0.1,0.2,0.2,0.3,0.3,0.5
		c0,0.1,0.1,0.3,0.2,0.4c0.1,0.1,0.2,0.1,0.3,0.1c0,0,0,0,0.1,0c0,0,0,0,0.1,0c0.1-0.2,0.1-0.4,0-0.6c-0.1-0.2-0.3-0.3-0.5-0.4
		c0.7,0.2,1.3,0.5,2,0.7c0.1,0,0.3,0.1,0.4,0c0.1-0.1,0-0.2,0-0.3c-0.1-0.1-0.2-0.1-0.2-0.2c-0.5-0.2-1-0.5-1.4-0.7
		c0.4,0,0.9-0.1,1.2-0.2C21.7,18.8,22,18.5,22.2,18.2z"/>
	<path fill="#06728D" d="M25.1,11.2C25.1,11.2,25.2,11.2,25.1,11.2c0.3,0.1,0.5,0,0.6-0.2c0.1-0.2,0.2-0.4,0.2-0.6
		c0,0.7,0,1.4,0,2.1c0,0.1,0,0.3,0.2,0.4c0.1,0,0.2,0,0.2-0.1c0.1-0.1,0.1-0.2,0.1-0.3c0-0.5,0.1-1.1,0.1-1.6
		c0.2,0.4,0.4,0.8,0.7,1.1c0.3,0.3,0.7,0.6,1.1,0.6c0-0.2-0.1-0.4-0.1-0.6c-0.2-0.5-0.3-0.9-0.5-1.4c0.5,0.4,1,0.6,1.6,0.7
		c0-0.1,0-0.2-0.1-0.3c-0.1-0.1-0.2-0.1-0.3-0.2c-0.5-0.2-0.9-0.6-1.2-1c0.2-0.1,0.3,0,0.5,0c0.2,0,0.3,0,0.5-0.1
		c0.1-0.1,0.3-0.2,0.3-0.4c0,0,0-0.1-0.1-0.1c0,0-0.1,0-0.1,0c-0.3,0-0.5,0.1-0.8,0.1c-0.3,0-0.6,0-0.8-0.2C27.1,9,27,8.9,26.9,8.9
		c-0.1,0-0.1,0.1-0.2,0.3c0,0.2-0.1,0.4-0.1,0.6c-0.2,0.1-0.5-0.1-0.6,0.1c-0.1,0.1-0.1,0.1-0.1,0.2c-0.1,0.2-0.2,0.3-0.4,0.5
		c-0.1,0.1-0.3,0.2-0.3,0.3C25.1,10.9,25.1,11,25.1,11.2C25.1,11.2,25.1,11.2,25.1,11.2z"/>
	<path fill="#06728D" d="M34.3,11.9c-0.2-0.1-0.4-0.1-0.6-0.1c-0.5,0-1,0-1.5,0c0.5-0.3,1-0.8,1.2-1.3c-0.1-0.1-0.2-0.1-0.3,0
		c-0.1,0.1-0.2,0.1-0.3,0.2c-0.4,0.4-0.9,0.7-1.4,0.8c0-0.2,0.1-0.3,0.1-0.5c0.1-0.2,0.1-0.3,0.1-0.5c0-0.2-0.1-0.3-0.3-0.4
		c0,0-0.1,0-0.1,0c0,0-0.1,0.1-0.1,0.1c-0.1,0.3-0.1,0.5-0.2,0.8c-0.1,0.3-0.2,0.5-0.4,0.6c-0.1,0.1-0.2,0.1-0.2,0.2
		c0,0.1,0.1,0.2,0.2,0.2c0.2,0.1,0.3,0.2,0.5,0.3c0,0.2-0.2,0.4-0.1,0.6c0,0.1,0.1,0.1,0.1,0.2c0.1,0.2,0.2,0.3,0.3,0.5
		c0,0.1,0.1,0.3,0.2,0.4c0.1,0.1,0.2,0.1,0.3,0.1c0,0,0,0,0.1,0c0,0,0,0,0.1,0c0.1-0.2,0.1-0.4,0-0.6c-0.1-0.2-0.3-0.3-0.5-0.4
		c0.7,0.2,1.3,0.5,2,0.7c0.1,0,0.3,0.1,0.4,0c0.1-0.1,0-0.2,0-0.3c-0.1-0.1-0.2-0.1-0.2-0.2c-0.5-0.2-1-0.5-1.4-0.7
		c0.4,0,0.9-0.1,1.2-0.2C33.7,12.5,34.1,12.3,34.3,11.9z"/>
	<path fill="#06728D" d="M43.9,6.7c0.4,0.4,0.6,0.9,0.8,1.4c-0.2,0-0.3-0.1-0.5-0.1c-0.2-0.1-0.3-0.1-0.5-0.1
		c-0.2,0-0.3,0.1-0.4,0.3c0,0,0,0.1,0,0.1c0,0,0.1,0.1,0.1,0.1c0.2,0.1,0.5,0.1,0.8,0.2c0.3,0.1,0.5,0.2,0.6,0.5
		c0.1,0.1,0.1,0.2,0.2,0.2c0.1,0,0.2-0.1,0.3-0.2c0.1-0.2,0.2-0.3,0.4-0.5c0.2,0,0.4,0.2,0.6,0.2c0.1,0,0.1-0.1,0.2-0.1
		c0.2-0.1,0.3-0.2,0.5-0.3c0.1,0,0.3-0.1,0.4-0.2c0.1-0.1,0.1-0.2,0.1-0.3c0,0,0,0,0-0.1c0,0,0,0,0-0.1c-0.2-0.1-0.4-0.1-0.6,0
		c-0.2,0.1-0.3,0.3-0.4,0.5c0.3-0.7,0.5-1.3,0.8-2c0.1-0.1,0.1-0.3,0-0.4c-0.1-0.1-0.2,0-0.3,0c-0.1,0.1-0.1,0.2-0.2,0.2
		c-0.2,0.5-0.5,0.9-0.7,1.4c0-0.4-0.1-0.9-0.2-1.3c-0.1-0.4-0.4-0.8-0.8-1c-0.1,0.2-0.1,0.4-0.1,0.6c0,0.5,0,1,0,1.5
		c-0.3-0.5-0.7-1-1.3-1.3c-0.1,0.1-0.1,0.2,0,0.3C43.8,6.5,43.9,6.6,43.9,6.7z"/>
	<path fill="#06728D" d="M39.3,3.6c0.2,0.1,0.5,0.1,0.8,0.2c0.3,0.1,0.5,0.2,0.6,0.5c0.1,0.1,0.1,0.2,0.2,0.3c0.1,0,0.2-0.1,0.3-0.2
		c0.1-0.2,0.2-0.3,0.4-0.5c0.2,0,0.4,0.2,0.6,0.2c0.1,0,0.1-0.1,0.2-0.1c0.2-0.1,0.3-0.2,0.5-0.3c0.1,0,0.3-0.1,0.4-0.2
		c0.1-0.1,0.1-0.2,0.1-0.3c0,0,0,0,0-0.1c0,0,0,0,0-0.1c-0.2-0.1-0.4-0.1-0.6,0c-0.2,0.1-0.3,0.3-0.4,0.5c0.3-0.7,0.5-1.3,0.8-2
		c0.1-0.1,0.1-0.3,0-0.4c-0.1-0.1-0.2,0-0.3,0c-0.1,0.1-0.1,0.2-0.2,0.2c-0.2,0.5-0.5,0.9-0.7,1.4c0-0.4-0.1-0.9-0.2-1.3
		c-0.1-0.4-0.4-0.8-0.8-1c-0.1,0.2-0.1,0.4-0.1,0.6c0,0.5,0,1,0,1.5c-0.3-0.5-0.7-1-1.3-1.3c-0.1,0.1-0.1,0.2,0,0.3
		c0,0.1,0.1,0.2,0.2,0.3c0.4,0.4,0.6,0.9,0.8,1.4c-0.2,0-0.3-0.1-0.5-0.1c-0.2-0.1-0.3-0.1-0.5-0.1c-0.2,0-0.3,0.1-0.4,0.3
		c0,0,0,0.1,0,0.1C39.2,3.5,39.3,3.5,39.3,3.6z"/>
	<path fill="#06728D" d="M35.4,5c0.2,0.1,0.3,0.2,0.5,0.3c0,0.2-0.2,0.4-0.1,0.6c0,0.1,0.1,0.1,0.1,0.2c0.1,0.2,0.2,0.3,0.3,0.5
		c0,0.1,0.1,0.3,0.2,0.4c0.1,0.1,0.2,0.1,0.3,0.1c0,0,0,0,0.1,0c0,0,0,0,0.1,0c0.1-0.2,0.1-0.4,0-0.6c-0.1-0.2-0.3-0.3-0.5-0.4
		c0.7,0.2,1.3,0.5,2,0.7c0.1,0,0.3,0.1,0.4,0c0.1-0.1,0-0.2,0-0.3c-0.1-0.1-0.2-0.1-0.2-0.2c-0.5-0.2-1-0.5-1.4-0.7
		c0.4,0,0.9-0.1,1.2-0.2c0.4-0.1,0.8-0.4,0.9-0.8c-0.2-0.1-0.4-0.1-0.6-0.1c-0.5,0-1,0-1.5,0c0.5-0.3,1-0.8,1.2-1.3
		c-0.1-0.1-0.2-0.1-0.3,0c-0.1,0.1-0.2,0.1-0.3,0.2c-0.4,0.4-0.9,0.7-1.4,0.8c0-0.2,0.1-0.3,0.1-0.5c0.1-0.2,0.1-0.3,0.1-0.5
		c0-0.2-0.1-0.3-0.3-0.4c0,0-0.1,0-0.1,0c0,0-0.1,0.1-0.1,0.1C36,3.4,36,3.6,35.9,3.9c-0.1,0.3-0.2,0.5-0.4,0.6
		c-0.1,0.1-0.2,0.1-0.2,0.2C35.2,4.9,35.3,4.9,35.4,5z"/>
	<path fill="#06728D" d="M53.8,34c-0.1-0.1-0.2-0.1-0.3-0.2c-0.5-0.3-0.8-0.7-1.1-1.2c0.2,0,0.3,0,0.5,0c0.2,0,0.3,0,0.5,0
		c0.2-0.1,0.3-0.2,0.3-0.4c0,0,0-0.1,0-0.1c0,0-0.1,0-0.1,0c-0.3,0-0.5,0-0.8,0c-0.3,0-0.5-0.1-0.7-0.3c-0.1-0.1-0.2-0.2-0.3-0.2
		c-0.1,0-0.2,0.1-0.2,0.2c-0.1,0.2-0.1,0.4-0.2,0.6c-0.2,0-0.4-0.1-0.6,0c-0.1,0-0.1,0.1-0.2,0.2c-0.1,0.2-0.3,0.3-0.4,0.4
		c-0.1,0.1-0.3,0.1-0.3,0.3c-0.1,0.1-0.1,0.2-0.1,0.3c0,0,0,0,0,0.1c0,0,0,0,0,0c0.2,0.1,0.4,0,0.6-0.1c0.2-0.2,0.2-0.4,0.3-0.6
		c-0.1,0.7-0.1,1.4-0.2,2.1c0,0.1,0,0.3,0.1,0.4c0.1,0,0.2,0,0.3-0.1c0.1-0.1,0.1-0.2,0.1-0.3c0.1-0.5,0.2-1,0.3-1.6
		c0.1,0.4,0.3,0.8,0.5,1.2c0.2,0.4,0.6,0.6,1,0.7c0-0.2,0-0.4-0.1-0.6c-0.1-0.5-0.2-1-0.4-1.4c0.4,0.4,1,0.7,1.6,0.9
		C53.9,34.2,53.9,34.1,53.8,34z"/>
	<path fill="#06728D" d="M9.8,37.1C9.4,36.9,9,36.5,8.7,36c0.2,0,0.3,0,0.5,0c0.2,0,0.3,0,0.5,0c0.2-0.1,0.3-0.2,0.3-0.4
		c0,0,0-0.1,0-0.1c0,0-0.1,0-0.1,0c-0.3,0-0.5,0-0.8,0c-0.3,0-0.5-0.1-0.7-0.3C8.2,35.1,8.1,35,8,35c-0.1,0-0.2,0.1-0.2,0.2
		c-0.1,0.2-0.1,0.4-0.2,0.6c-0.2,0-0.4-0.1-0.6,0c-0.1,0-0.1,0.1-0.2,0.2c-0.1,0.2-0.3,0.3-0.4,0.4c-0.1,0.1-0.3,0.1-0.3,0.3
		C6,36.8,6,36.9,6,37c0,0,0,0,0,0.1c0,0,0,0,0,0c0.2,0.1,0.4,0,0.6-0.1c0.2-0.2,0.2-0.4,0.3-0.6c-0.1,0.7-0.1,1.4-0.2,2.1
		c0,0.1,0,0.3,0.1,0.4c0.1,0,0.2,0,0.3-0.1c0.1-0.1,0.1-0.2,0.1-0.3c0.1-0.5,0.2-1,0.3-1.6c0.1,0.4,0.3,0.8,0.5,1.2
		c0.2,0.4,0.6,0.6,1,0.7c0-0.2,0-0.4-0.1-0.6c-0.1-0.5-0.2-1-0.4-1.4c0.4,0.4,1,0.8,1.6,0.9c0-0.1,0-0.2-0.1-0.3
		C10,37.3,9.9,37.2,9.8,37.1z"/>
	<path fill="#E77528" d="M35.9,53.1c-1-0.4-1.9-1.1-2.5-1.9c0.3-0.1,0.7-0.1,1,0c0.3,0,0.7,0,1-0.1c0.3-0.1,0.6-0.4,0.6-0.7
		c0-0.1,0-0.2-0.1-0.2c-0.1,0-0.2-0.1-0.3-0.1c-0.6,0-1.1,0.1-1.6,0.1c-0.6,0-1.1-0.1-1.6-0.4c-0.2-0.1-0.4-0.3-0.6-0.3
		c-0.2,0-0.3,0.3-0.4,0.4c-0.1,0.4-0.2,0.7-0.3,1.1c-0.4,0.1-0.9-0.1-1.3,0.1c-0.1,0.1-0.2,0.2-0.3,0.3c0,0.1-0.1,0.1-0.1,0.2
		c0-1.6,0.1-3.2,0.2-4.7c7.8-5.4,28.3-7.7,28.3-7.7c-14.3-3.6-23.3-0.8-27.5,1.3c0.7-3.8,1.6-7.2,2.7-10.2c1.3,0.2,7.3,0.4,14.6-6.4
		c0,0-2.3,0.9-5.2,1.9c-0.6-0.6-1.3-1.2-1.9-1.8c0.8,0.1,1.5,0.2,2.3,0.1c0.8-0.1,1.6-0.5,2.2-1.1c-0.3-0.2-0.7-0.3-1-0.4
		c-0.9-0.2-1.7-0.4-2.6-0.7c1.1-0.3,2.2-1,3-2C44.5,20,44.2,19.9,44,20c-0.2,0.1-0.4,0.2-0.6,0.3c-0.9,0.6-2,0.9-3,0.9
		c0.1-0.3,0.4-0.6,0.6-0.9c0.2-0.3,0.4-0.6,0.5-0.9c0.1-0.3,0-0.7-0.2-0.8c-0.1,0-0.2-0.1-0.3,0c-0.1,0-0.1,0.1-0.2,0.2
		c-0.3,0.4-0.6,1-0.9,1.4c-0.3,0.5-0.7,0.9-1.2,1.1c-0.2,0.1-0.5,0.1-0.6,0.3c-0.1,0.2,0,0.4,0.1,0.6c0.2,0.3,0.4,0.6,0.7,0.9
		c-0.2,0.4-0.6,0.7-0.7,1.1c0,0.2,0.1,0.3,0.1,0.4c0.1,0.4,0.2,0.8,0.2,1.2c0,0.3-0.1,0.6,0,0.9c0.1,0.2,0.3,0.3,0.4,0.4
		c0,0,0,0,0.1,0c-1.7,0.4-3.4,0.7-4.9,0.8c2.3-5.6,4.9-9.2,6.3-11c0,0.2,0.1,0.3,0.2,0.5c0.1,0.2,0.3,0.2,0.5,0.3c0,0,0.1,0,0.1,0
		c0,0,0.1,0,0.1-0.1c0.3-0.3,0.3-0.9,0.1-1.2c-0.1-0.1-0.2-0.2-0.2-0.3c0.1-0.1,0.1-0.2,0.2-0.2c0.9,0.3,1.8,0.7,2.8,1
		c0.2,0.1,0.5,0.1,0.7-0.1c0.1-0.2,0.1-0.4,0-0.6c-0.1-0.2-0.3-0.2-0.4-0.3c-0.8-0.4-1.7-0.9-2.5-1.3c0.8-0.1,1.5-0.2,2.3-0.6
		c0.7-0.3,1.4-0.9,1.8-1.7C45.6,12,45.3,12,44.9,12c-0.9,0-1.8,0.1-2.7,0.1c1-0.7,1.8-1.6,2.3-2.7c-0.2-0.1-0.4-0.1-0.6,0
		c-0.2,0.1-0.3,0.3-0.5,0.5c-0.7,0.8-1.6,1.4-2.6,1.8c0-0.3,0.2-0.7,0.3-1c0.1-0.3,0.2-0.7,0.2-1c0-0.3-0.2-0.7-0.5-0.7
		c-0.1,0-0.2,0-0.3,0c-0.1,0.1-0.1,0.1-0.1,0.2c-0.2,0.5-0.3,1.1-0.4,1.6c-0.2,0.5-0.4,1.1-0.8,1.4c-0.2,0.1-0.4,0.2-0.5,0.5
		c0,0.2,0.1,0.4,0.3,0.5c0.3,0.2,0.6,0.4,0.9,0.7c-0.1,0.4-0.4,0.8-0.3,1.2c0,0.1,0.1,0.3,0.2,0.4c0.2,0.3,0.3,0.6,0.4,0.9
		c-7,4.6-11.6,10.6-14.4,17c-1.7-0.8-3.6-2.1-5.3-3.4c0.9-0.6,1.8-1,2.8-1.2c-0.1,0.3-0.3,0.6-0.5,0.9c-0.2,0.3-0.4,0.6-0.4,0.9
		c-0.1,0.3,0,0.7,0.3,0.8c0.1,0,0.2,0.1,0.3,0c0.1,0,0.1-0.1,0.2-0.2c0.3-0.5,0.5-1,0.7-1.5c0.3-0.5,0.6-1,1.1-1.2
		c0.2-0.1,0.5-0.1,0.5-0.4c0.1-0.2-0.1-0.4-0.2-0.5c-0.2-0.3-0.5-0.6-0.7-0.8c0.2-0.4,0.6-0.7,0.6-1.2c0-0.2-0.1-0.3-0.1-0.4
		C25,24.9,25,24.6,25,24.2c0-0.3,0-0.6-0.1-0.8c-0.1-0.2-0.3-0.3-0.5-0.4c0,0-0.1,0-0.1,0c0,0-0.1,0-0.1,0.1
		c-0.3,0.3-0.4,0.8-0.3,1.2c0.1,0.4,0.4,0.7,0.6,1c-1.1-0.7-2.1-1.3-3.2-2c-0.2-0.1-0.5-0.3-0.7-0.1c-0.1,0.1-0.2,0.4-0.1,0.6
		c0.1,0.2,0.2,0.3,0.4,0.4c0.7,0.6,1.5,1.2,2.2,1.8c-0.8,0-1.6-0.1-2.3,0.1c-0.8,0.2-1.6,0.6-2.1,1.3c0.3,0.2,0.7,0.3,1.1,0.3
		c0.9,0.1,1.8,0.3,2.6,0.4c-0.8,0.3-1.6,0.8-2.2,1.5c-3-2.3-5.3-4.7-5.3-4.7C18.3,32.4,22.8,35,25,35.9c-0.6,1.6-1.1,3.2-1.5,4.8
		c-0.2-0.3-0.4-0.5-0.7-0.8c0.2-0.4,0.6-0.7,0.6-1.2c0-0.2-0.1-0.3-0.1-0.4C23,38.1,23,37.7,23,37.3c0-0.3,0-0.6-0.1-0.8
		c-0.1-0.2-0.3-0.3-0.5-0.4c0,0-0.1,0-0.1,0c0,0-0.1,0-0.1,0.1c-0.3,0.3-0.4,0.8-0.3,1.2c0.1,0.4,0.4,0.7,0.6,1
		c-1.1-0.7-2.1-1.3-3.2-2c-0.2-0.1-0.5-0.3-0.7-0.1c-0.2,0.1-0.2,0.4-0.1,0.6c0.1,0.2,0.2,0.3,0.4,0.4c0.7,0.6,1.5,1.2,2.2,1.8
		c-0.8,0-1.6-0.1-2.3,0.1c-0.8,0.2-1.6,0.6-2.1,1.3c0.3,0.2,0.7,0.3,1.1,0.3c0.9,0.1,1.8,0.3,2.6,0.4c-1.1,0.4-2.1,1.2-2.8,2.2
		c0.1,0.2,0.4,0.2,0.6,0.1c0.2-0.1,0.4-0.2,0.6-0.4c0.9-0.6,1.9-1.1,2.9-1.2c-0.1,0.3-0.3,0.6-0.5,0.9c-0.2,0.3-0.4,0.6-0.4,0.9
		c-0.1,0.3,0,0.7,0.3,0.8c0.1,0,0.2,0.1,0.3,0c0.1,0,0.1-0.1,0.2-0.2c0.3-0.5,0.5-1,0.7-1.5c0.3-0.5,0.6-1,1.1-1.2c0,0,0,0,0.1,0
		c-0.6,2.7-1.1,5.4-1.3,8c-3.3-3.8-6.3-8.9-6.3-8.9c1.2,7.1,4.1,10.9,6.1,12.7c-0.4,10.2,1.5,18,1.5,18h8.1
		c-1.4-6.7-1.9-12.9-1.9-18.3c0.2-0.3,0.3-0.6,0.4-0.9c0,1.2,0,2.5-0.1,3.7c0,0.2,0,0.6,0.3,0.6c0.2,0.1,0.4,0,0.5-0.2
		c0.1-0.1,0.1-0.3,0.2-0.5c0.1-0.9,0.3-1.9,0.4-2.8c0.4,0.7,0.7,1.4,1.3,2c0.5,0.6,1.3,1.1,2.2,1.1c0-0.4-0.1-0.7-0.3-1.1
		c-0.3-0.8-0.6-1.7-1-2.5c0.9,0.7,2.1,1.2,3.4,1.3c0.1-0.2,0-0.4-0.2-0.6C36.4,53.3,36.2,53.2,35.9,53.1z M39.7,25.8
		c-0.1-0.4-0.3-0.7-0.5-1c0.7,0.5,1.5,1.1,2.2,1.6c-0.7,0.2-1.4,0.4-2.1,0.6c0,0,0,0,0,0C39.6,26.7,39.7,26.2,39.7,25.8z M40.7,15.4
		c0.2,0.1,0.5,0.2,0.7,0.3c-0.1,0-0.2,0.1-0.2,0.1C41,15.7,40.8,15.5,40.7,15.4z"/>
	<path fill="#06728D" d="M12.9,25.7c-0.2,0.3-0.4,0.6-0.4,0.9c-0.1,0.3,0,0.7,0.3,0.8c0.1,0,0.2,0.1,0.3,0c0.1,0,0.1-0.1,0.2-0.2
		c0.3-0.5,0.5-1,0.7-1.5c0.3-0.5,0.6-1,1.1-1.2c0.2-0.1,0.5-0.1,0.5-0.4c0.1-0.2-0.1-0.4-0.2-0.5c-0.2-0.3-0.5-0.6-0.7-0.8
		c0.2-0.4,0.6-0.7,0.6-1.2c0-0.2-0.1-0.3-0.1-0.4c-0.2-0.3-0.2-0.7-0.3-1.1c0-0.3,0-0.6-0.1-0.8c-0.1-0.2-0.3-0.3-0.5-0.4
		c0,0-0.1,0-0.1,0c0,0-0.1,0-0.1,0.1c-0.3,0.3-0.4,0.8-0.3,1.2c0.1,0.4,0.4,0.7,0.6,1c-1.1-0.7-2.1-1.3-3.2-2
		c-0.2-0.1-0.5-0.3-0.7-0.1c-0.2,0.1-0.2,0.4-0.1,0.6c0.1,0.2,0.2,0.3,0.4,0.4c0.7,0.6,1.5,1.2,2.2,1.8c-0.8,0-1.6-0.1-2.3,0.1
		c-0.8,0.2-1.6,0.6-2.1,1.3c0.3,0.2,0.7,0.3,1.1,0.3c0.9,0.1,1.8,0.3,2.6,0.4c-1.1,0.4-2.1,1.2-2.8,2.2c0.1,0.2,0.4,0.2,0.6,0.1
		c0.2-0.1,0.4-0.2,0.6-0.4c0.9-0.6,1.9-1.1,2.9-1.2C13.3,25.1,13.1,25.4,12.9,25.7z"/>
	<path fill="#06728D" d="M52.9,46c-0.9,0.1-1.8,0.2-2.7,0.3c0.9-0.7,1.7-1.7,2.1-2.9c-0.2-0.1-0.4-0.1-0.6,0.1
		c-0.2,0.1-0.3,0.3-0.5,0.5c-0.7,0.9-1.5,1.5-2.5,1.9c0-0.3,0.1-0.7,0.2-1c0.1-0.3,0.2-0.7,0.2-1c0-0.3-0.2-0.7-0.5-0.7
		c-0.1,0-0.2,0-0.2,0.1c-0.1,0.1-0.1,0.2-0.1,0.2c-0.2,0.5-0.2,1.1-0.3,1.6c-0.1,0.5-0.3,1.1-0.8,1.4c-0.2,0.1-0.4,0.3-0.4,0.5
		c0,0.2,0.2,0.4,0.3,0.5c0.3,0.2,0.6,0.4,0.9,0.6c0,0.4-0.4,0.9-0.2,1.3c0,0.1,0.2,0.3,0.2,0.4c0.2,0.3,0.4,0.6,0.6,1
		c0.1,0.3,0.1,0.6,0.3,0.8c0.1,0.1,0.4,0.2,0.6,0.2c0,0,0.1,0,0.1,0c0,0,0.1,0,0.1-0.1c0.3-0.4,0.2-0.9,0-1.2s-0.5-0.6-0.9-0.8
		c1.2,0.3,2.4,0.7,3.6,1c0.2,0.1,0.5,0.1,0.7-0.1c0.1-0.2,0.1-0.4-0.1-0.6c-0.1-0.1-0.3-0.2-0.4-0.3c-0.9-0.4-1.7-0.8-2.6-1.1
		c0.8-0.2,1.5-0.3,2.2-0.7c0.7-0.4,1.4-1,1.7-1.8C53.6,45.9,53.2,45.9,52.9,46z"/>
	<path fill="#06728D" d="M12.4,13.9c0.5,0.2,1,0.4,1.6,0.6c0.5,0.2,1,0.5,1.3,1c0.1,0.2,0.2,0.4,0.4,0.5c0.2,0.1,0.4-0.1,0.5-0.2
		c0.2-0.3,0.5-0.6,0.7-0.8c0.4,0.1,0.8,0.5,1.2,0.4c0.2,0,0.3-0.1,0.4-0.2c0.3-0.2,0.7-0.3,1.1-0.4c0.3,0,0.6,0,0.8-0.2
		c0.2,0,0.4,0.1,0.6,0.1c0.3,0.1,0.5,0.2,0.7,0.4c0.1,0.1,0.1,0.2,0.2,0.2c0.1,0,0.2-0.1,0.2-0.2c0.1-0.2,0.2-0.4,0.3-0.5
		c0.2,0,0.4,0.2,0.6,0.1c0.1,0,0.1-0.1,0.2-0.1c0.1-0.1,0.3-0.3,0.5-0.3c0.1-0.1,0.3-0.1,0.4-0.2c0.1-0.1,0.1-0.2,0.1-0.3
		c0,0,0,0,0-0.1c0,0,0,0,0,0c-0.2-0.1-0.4-0.1-0.6,0c-0.2,0.1-0.3,0.3-0.4,0.5c0.2-0.7,0.4-1.4,0.6-2c0-0.1,0.1-0.3,0-0.4
		c-0.1-0.1-0.2,0-0.3,0c-0.1,0.1-0.1,0.2-0.2,0.3c-0.2,0.5-0.4,1-0.6,1.5c-0.1-0.4-0.1-0.8-0.3-1.2c-0.2-0.4-0.5-0.7-0.8-0.9
		c-0.1,0.2-0.1,0.4,0,0.6c0,0.5,0.1,1,0.1,1.5c-0.3-0.5-0.8-0.9-1.4-1.1c-0.1,0.1,0,0.2,0,0.3c0.1,0.1,0.1,0.2,0.2,0.2
		c0.4,0.4,0.7,0.8,0.9,1.3c-0.2,0-0.3-0.1-0.5-0.1c-0.1,0-0.1,0-0.2-0.1c0,0,0,0,0,0c0,0,0-0.1,0-0.1c0,0,0-0.1-0.1-0.1
		c-0.3-0.3-0.8-0.3-1.2-0.2c-0.4,0.2-0.6,0.5-0.9,0.7c0.5-1.1,1.1-2.3,1.6-3.4c0.1-0.2,0.2-0.5,0-0.7c-0.2-0.1-0.4-0.1-0.6,0
		c-0.2,0.1-0.3,0.2-0.4,0.4c-0.5,0.8-1,1.6-1.5,2.4c-0.1-0.8-0.1-1.6-0.4-2.3c-0.3-0.8-0.8-1.5-1.5-1.9c-0.2,0.3-0.2,0.7-0.2,1.1
		c0,0.9-0.1,1.8-0.1,2.7c-0.6-1-1.5-1.9-2.5-2.6c-0.2,0.1-0.1,0.4,0,0.6c0.1,0.2,0.3,0.4,0.4,0.5c0.7,0.8,1.3,1.7,1.5,2.7
		c-0.3-0.1-0.6-0.2-1-0.4c-0.3-0.2-0.6-0.3-1-0.3c-0.3,0-0.7,0.1-0.8,0.4c0,0.1,0,0.2,0,0.3C12.2,13.8,12.3,13.8,12.4,13.9z"/>
	<path fill="#06728D" d="M67,40.5c-0.9,0.1-1.8,0.2-2.7,0.3c0.9-0.7,1.7-1.7,2.1-2.9c-0.2-0.1-0.4-0.1-0.6,0.1
		c-0.2,0.1-0.3,0.3-0.5,0.5C64.8,39.4,64,40,63,40.4c0-0.3,0.1-0.7,0.2-1s0.2-0.7,0.2-1c0-0.3-0.2-0.7-0.5-0.7c-0.1,0-0.2,0-0.2,0.1
		c-0.1,0.1-0.1,0.2-0.1,0.2c-0.2,0.5-0.2,1.1-0.3,1.6c-0.1,0.5-0.3,1.1-0.8,1.4c-0.2,0.1-0.4,0.3-0.4,0.5c0,0.2,0.2,0.4,0.3,0.5
		c0.3,0.2,0.6,0.4,0.9,0.6c0,0.4-0.4,0.9-0.2,1.3c0,0.1,0.2,0.3,0.3,0.4c0.2,0.3,0.4,0.6,0.6,1c0.1,0.3,0.1,0.6,0.3,0.8
		c0.1,0.1,0.4,0.2,0.6,0.2c0,0,0.1,0,0.1,0c0,0,0.1,0,0.1-0.1c0.3-0.4,0.2-0.9,0-1.2s-0.5-0.6-0.9-0.8c1.2,0.3,2.4,0.7,3.6,1
		c0.2,0.1,0.5,0.1,0.7-0.1c0.1-0.2,0.1-0.4-0.1-0.6c-0.1-0.1-0.3-0.2-0.4-0.3c-0.9-0.4-1.7-0.8-2.6-1.1c0.8-0.2,1.5-0.3,2.2-0.7
		c0.7-0.4,1.4-1,1.7-1.8C67.8,40.5,67.4,40.5,67,40.5z"/>
	<path fill="#06728D" d="M62.9,32.6c-0.4-0.1-0.7-0.1-1.1,0c-0.9,0.1-1.8,0.2-2.7,0.3c0.9-0.7,1.7-1.7,2.1-2.9
		c-0.2-0.1-0.4-0.1-0.6,0.1c-0.2,0.1-0.3,0.3-0.5,0.5c-0.7,0.9-1.5,1.5-2.5,1.9c0-0.3,0.1-0.7,0.2-1c0.1-0.3,0.2-0.7,0.2-1
		c0-0.3-0.2-0.7-0.5-0.7c-0.1,0-0.2,0-0.2,0.1c-0.1,0.1-0.1,0.2-0.1,0.2c-0.2,0.5-0.2,1.1-0.3,1.6c-0.1,0.5-0.3,1.1-0.8,1.4
		c-0.2,0.1-0.4,0.3-0.4,0.5c0,0.2,0.2,0.4,0.3,0.5c0.3,0.2,0.6,0.4,0.9,0.6c0,0.4-0.4,0.9-0.2,1.3c0,0.1,0.2,0.3,0.2,0.4
		c0.2,0.3,0.4,0.6,0.6,1c0.1,0.3,0.1,0.6,0.3,0.8c0.1,0.1,0.4,0.2,0.6,0.2c0,0,0.1,0,0.1,0c0,0,0.1,0,0.1-0.1c0.3-0.4,0.2-0.9,0-1.2
		c-0.2-0.3-0.5-0.6-0.9-0.8c1.2,0.3,2.4,0.7,3.6,1c0.2,0.1,0.5,0.1,0.7-0.1c0.1-0.2,0.1-0.4-0.1-0.6c-0.1-0.1-0.3-0.2-0.4-0.3
		c-0.9-0.4-1.7-0.8-2.6-1.1c0.8-0.2,1.5-0.3,2.2-0.7C61.9,34.1,62.6,33.5,62.9,32.6z"/>
	<path fill="#06728D" d="M47.1,34.5c-0.2-0.1-0.4-0.2-0.6-0.3c-1-0.4-1.9-1.1-2.5-1.9c0.3-0.1,0.7-0.1,1,0s0.7,0,1-0.1
		c0.3-0.1,0.6-0.4,0.6-0.7c0-0.1,0-0.2-0.1-0.2c-0.1,0-0.2-0.1-0.3-0.1c-0.6,0-1.1,0.1-1.6,0.1c-0.6,0-1.1-0.1-1.6-0.4
		c-0.2-0.1-0.4-0.3-0.6-0.3c-0.2,0-0.3,0.3-0.4,0.4c-0.1,0.4-0.2,0.7-0.3,1.1c-0.4,0.1-0.9-0.1-1.3,0.1c-0.1,0.1-0.2,0.2-0.3,0.3
		c-0.2,0.3-0.5,0.6-0.9,0.8c-0.3,0.2-0.5,0.3-0.7,0.5c-0.1,0.2-0.1,0.4-0.1,0.6c0,0,0,0.1,0,0.1c0,0,0.1,0.1,0.1,0.1
		c0.4,0.2,0.9,0,1.2-0.3c0.3-0.3,0.4-0.7,0.5-1c0,1.2,0,2.5-0.1,3.7c0,0.2,0,0.6,0.3,0.6c0.2,0.1,0.4,0,0.5-0.2
		c0.1-0.1,0.1-0.3,0.2-0.5c0.1-0.9,0.3-1.9,0.4-2.8c0.4,0.7,0.7,1.4,1.3,2c0.5,0.6,1.3,1.1,2.2,1.1c0-0.4-0.1-0.7-0.3-1.1
		c-0.3-0.8-0.6-1.7-1-2.5c0.9,0.7,2.1,1.2,3.4,1.3C47.4,34.8,47.3,34.6,47.1,34.5z"/>
	<path fill="#06728D" d="M46.9,22.9c-0.1,0.2-0.1,0.4-0.1,0.6c0,0,0,0.1,0,0.1c0,0,0.1,0.1,0.1,0.1c0.4,0.2,0.9,0,1.2-0.3
		c0.3-0.3,0.4-0.7,0.5-1c0,1.2,0,2.5-0.1,3.7c0,0.2,0,0.6,0.3,0.6c0.2,0.1,0.4,0,0.5-0.2c0.1-0.1,0.1-0.3,0.2-0.5
		c0.1-0.9,0.3-1.9,0.4-2.8c0.4,0.7,0.7,1.4,1.3,2c0.5,0.6,1.3,1.1,2.2,1.1c0-0.4-0.1-0.7-0.3-1.1c-0.3-0.8-0.7-1.7-1-2.5
		c0.9,0.7,2.1,1.2,3.4,1.3c0.1-0.2,0-0.4-0.2-0.6c-0.2-0.1-0.4-0.2-0.6-0.3c-1-0.4-1.9-1.1-2.5-1.9c0.3-0.1,0.7-0.1,1,0
		c0.3,0,0.7,0,1-0.1c0.3-0.1,0.6-0.4,0.6-0.7c0-0.1,0-0.2-0.1-0.2c-0.1,0-0.2-0.1-0.3-0.1c-0.6,0-1.1,0.1-1.6,0.1
		c-0.6,0-1.1-0.1-1.6-0.4c-0.2-0.1-0.4-0.3-0.6-0.3c-0.2,0-0.3,0.3-0.4,0.4c-0.1,0.4-0.2,0.7-0.3,1.1c-0.4,0.1-0.9-0.1-1.3,0.1
		c-0.1,0.1-0.2,0.2-0.3,0.3c-0.2,0.3-0.5,0.6-0.9,0.8C47.4,22.6,47.1,22.7,46.9,22.9z"/>
	<path fill="#06728D" d="M27.2,20c-0.3-0.1-0.7-0.1-1,0c-0.3,0.1-0.6,0.3-0.6,0.6c0,0.1,0,0.2,0.1,0.2c0.1,0.1,0.2,0.1,0.3,0.1
		c0.5,0.1,1.1,0,1.7,0.1c0.6,0,1.1,0.2,1.5,0.5c0.2,0.2,0.3,0.4,0.6,0.4c0.2,0,0.3-0.2,0.4-0.4c0.2-0.3,0.3-0.7,0.5-1
		c0.4,0,0.9,0.2,1.3,0c0.1-0.1,0.2-0.2,0.3-0.3c0.3-0.3,0.6-0.5,0.9-0.7c0.3-0.1,0.6-0.2,0.7-0.4c0.1-0.2,0.1-0.4,0.1-0.6
		c0,0,0-0.1,0-0.1c0,0-0.1-0.1-0.1-0.1c-0.4-0.2-0.9-0.1-1.2,0.2c-0.3,0.3-0.5,0.6-0.6,1c0.2-1.2,0.3-2.5,0.5-3.7
		c0-0.2,0-0.6-0.2-0.7c-0.2-0.1-0.4,0-0.5,0.1c-0.1,0.1-0.2,0.3-0.2,0.5c-0.2,0.9-0.5,1.8-0.7,2.7c-0.3-0.7-0.6-1.5-1-2.1
		c-0.5-0.6-1.2-1.2-2-1.4c-0.1,0.4,0,0.7,0.1,1.1c0.2,0.9,0.5,1.7,0.7,2.6c-0.8-0.8-2-1.4-3.2-1.7c-0.1,0.2,0,0.4,0.1,0.6
		c0.2,0.2,0.4,0.3,0.6,0.4c0.9,0.5,1.7,1.3,2.3,2.2C27.9,20.1,27.6,20.1,27.2,20z"/>
	<path fill="#06728D" d="M25.9,4.9C25.9,4.9,26,5,26,5c0.4,0.2,0.9,0,1.2-0.3s0.4-0.7,0.5-1c0,1.2,0,2.5-0.1,3.7
		c0,0.2,0,0.6,0.3,0.6c0.2,0.1,0.4,0,0.5-0.2c0.1-0.1,0.1-0.3,0.2-0.5c0.1-0.9,0.3-1.9,0.4-2.8c0.4,0.7,0.7,1.4,1.3,2
		c0.5,0.6,1.3,1.1,2.2,1.1c0-0.4-0.1-0.7-0.3-1.1c-0.3-0.8-0.6-1.7-1-2.5c0.9,0.7,2.1,1.2,3.4,1.3c0.1-0.2,0-0.4-0.2-0.6
		c-0.2-0.1-0.4-0.2-0.6-0.3c-1-0.4-1.9-1.1-2.5-1.9c0.3-0.1,0.7-0.1,1,0c0.3,0,0.7,0,1-0.1C33.7,2.3,34,2.1,34,1.8
		c0-0.1,0-0.2-0.1-0.2c-0.1,0-0.2-0.1-0.3-0.1c-0.6,0-1.1,0.1-1.6,0.1c-0.6,0-1.1-0.1-1.6-0.4C30.2,1.1,30,0.9,29.8,1
		c-0.2,0-0.3,0.3-0.4,0.4c-0.1,0.4-0.2,0.7-0.3,1.1c-0.4,0.1-0.9-0.1-1.3,0.1c-0.1,0.1-0.2,0.2-0.3,0.3c-0.2,0.3-0.5,0.6-0.9,0.8
		C26.4,3.8,26.1,4,26,4.2C25.9,4.4,25.9,4.6,25.9,4.9C25.9,4.8,25.9,4.9,25.9,4.9z"/>
</g>
</svg>
