<?xml version="1.0" encoding="utf-8"?>
<!-- Generator: Adobe Illustrator 18.0.0, SVG Export Plug-In . SVG Version: 6.00 Build 0)  -->
<!DOCTYPE svg PUBLIC "-//W3C//DTD SVG 1.1//EN" "http://www.w3.org/Graphics/SVG/1.1/DTD/svg11.dtd">
<svg version="1.1" id="Layer_1" xmlns="http://www.w3.org/2000/svg" xmlns:xlink="http://www.w3.org/1999/xlink" x="0px" y="0px"
	 viewBox="0 0 72 72" enable-background="new 0 0 72 72" xml:space="preserve">
<g>
	<path fill="#E77528" d="M42.3,40.9c-1.4,0.2-2.6,1.1-4,1.4c-0.7,0.2-1.5,0.2-2.3,0c0.3,0.2,0.6,0.5,1,0.7c0,0,0,0,0.1,0
		c-0.3,0.2-0.5,0.3-0.5,0.3c-2.7,2.5-3.6-0.5-3.9-3c-0.2-0.3-0.4-0.5-0.5-0.8c-0.6,2-3.4,2.4-4.9,3.8c-0.2,0.2-0.4,0.4-0.6,0.6
		c0.3,0,0.6-0.1,0.9-0.3c9.7,22.9,5,27.8,5,27.8h10.5C39.2,64.2,40.2,59,40.2,59c-0.4-4.1,3-10.9,6.6-16.9c-0.5-0.4-1.1-0.6-1.7-0.8
		C44.2,41,43.3,40.8,42.3,40.9z"/>
	<path fill="#F04B36" d="M62.9,17.2c-3-5.1-7.8-9.7-13.7-10c-1.9-0.1-3.8,0.2-5.6-0.3c-4.2-1.1-6.7-6.2-11-6.4
		c-4.3-0.2-6.9,4.6-8.5,8.5c-0.6,1.4-1.1,2.8-1.7,4.2c-3.8-2.2-8.9-2.7-12.5-0.1c-3.6,2.6-4.4,8.6-1,11.3c3.4,2.7,8.9,1.1,12.4,3.7
		c-2.8,2.5-5.8,5.7-4.9,9.3c0.8,2.9,3.9,4.5,6.6,5.7c1.1,0.5,2.4,1,3.6,0.8c0.2-0.2,0.3-0.4,0.6-0.6c1.6-1.4,4.3-1.8,4.9-3.8
		c0.1,0.3,0.3,0.6,0.5,0.8c0-0.1,0-0.3,0-0.4c1.1,0.8,2.2,1.6,3.4,2.4c0.8,0.1,1.5,0.2,2.3,0c1.4-0.4,2.6-1.2,4-1.4
		c0.9-0.1,1.9,0.1,2.8,0.4c0.6,0.2,1.2,0.4,1.7,0.8c0.1-0.1,0.2-0.3,0.2-0.4c1.5,0.9,3.4,1.3,4.5,0.1c1.6-1.7,0.1-4.1-0.4-6.4
		c0.3-0.5,0.7-1,1-1.4c2.4-0.3,4.8-0.6,7-1.6c2.6-1.1,4.9-3.1,5.8-5.7C65.9,23.5,64.6,20.1,62.9,17.2z"/>
</g>
</svg>
