<?xml version="1.0" encoding="utf-8"?>
<!-- Generator: Adobe Illustrator 18.0.0, SVG Export Plug-In . SVG Version: 6.00 Build 0)  -->
<!DOCTYPE svg PUBLIC "-//W3C//DTD SVG 1.1//EN" "http://www.w3.org/Graphics/SVG/1.1/DTD/svg11.dtd">
<svg version="1.1" id="Layer_1" xmlns="http://www.w3.org/2000/svg" xmlns:xlink="http://www.w3.org/1999/xlink" x="0px" y="0px"
	 viewBox="0 0 72 72" enable-background="new 0 0 72 72" xml:space="preserve">
<g>
	<path fill="#E77528" d="M53.9,21.5c0.3,0.3,0.7,0.5,1.1,0.5c0.4,0,0.5-1,0.8-1.3c0.4-0.4,1.1-0.1,1.3-0.6c0.1-0.5-0.6-1.1-0.9-1.6
		c0.5-0.1,1-0.5,1.3-1c0.2-0.5,0.2-1.2-0.2-1.6c-0.1-0.1-0.2-0.2-0.3-0.4c-0.1-0.2,0-0.4,0-0.6c0-0.4-0.5-0.7-0.9-0.6
		c-0.4,0-0.8,0.3-1.1,0.5c-0.1,0.1-0.2,0.1-0.3,0.2c-0.2,0.1-0.5-0.1-0.6-0.3s-0.2-0.5-0.3-0.7c-0.2-0.3-0.5-0.5-0.8-0.6
		c-0.4,0-0.7,0.2-0.9,0.5c0,0.1-0.1,0.2-0.1,0.3c-0.1,0.1-0.2,0.1-0.4,0.1c-0.5,0-1,0.2-1.2,0.5c-0.3,0.4-0.3,1,0.1,1.3
		c0.2,0.2,0.6,0.2,0.7,0.5c0,0.2-0.2,0.4-0.4,0.5c-0.2,0.1-0.5,0.1-0.7,0.2c-0.4,0.2-0.6,0.8-0.5,1.2c0.1,0.5,0.5,0.8,0.9,1.1
		c0.1,0.1,0.2,0.1,0.2,0.2c0,0.1,0.1,0.2,0.1,0.3c0.1,0.6,0.3,1.3,0.9,1.4c0.6,0.1,1-0.8,1.5-1.1C48.3,29.7,36.9,38,36.9,38
		c-1.5-9.7,3.3-26.5,4.3-29.9c0.4,0.5,1,0.9,1.5,1c0.4,0,0.5-1,0.8-1.3c0.4-0.4,1.1-0.1,1.3-0.6C45,6.6,44.3,6,43.9,5.6
		c0.5-0.1,1-0.5,1.3-1s0.2-1.2-0.2-1.6c-0.1-0.1-0.2-0.2-0.3-0.4c-0.1-0.2,0-0.4,0-0.6c0-0.4-0.5-0.7-0.9-0.6
		c-0.4,0-0.8,0.3-1.1,0.5C42.6,2,42.5,2,42.4,2.1C42.2,2.1,42,2,41.8,1.7c-0.1-0.2-0.2-0.5-0.3-0.7c-0.2-0.3-0.5-0.5-0.8-0.6
		c-0.4,0-0.7,0.2-0.9,0.5c0,0.1-0.1,0.2-0.1,0.3c-0.1,0.1-0.2,0.1-0.4,0.1c-0.5,0-1,0.2-1.2,0.5c-0.3,0.4-0.3,1,0.1,1.3
		c0.2,0.2,0.6,0.2,0.7,0.5c0,0.2-0.2,0.4-0.4,0.5c-0.2,0.1-0.5,0.1-0.7,0.2c-0.4,0.2-0.6,0.8-0.5,1.2c0.1,0.5,0.5,0.8,0.9,1.1
		c0.1,0.1,0.2,0.1,0.2,0.2c0,0.1,0.1,0.2,0.1,0.3c0.1,0.6,0.3,1.3,0.9,1.4c0.7,0.1,1-0.8,1.6-1.1c0,0.1,0.1,0.3,0.2,0.4
		c-15,13.8-7.2,63.7-7.2,63.7h6c-0.9-1.2-3.3-29.4-3.3-29.4C48.7,35.1,52.7,26.7,53.9,21.5z"/>
	<path fill="#E8B944" d="M31,17.5c-0.1-0.2,0-0.4,0-0.6c0-0.4-0.5-0.7-0.9-0.6c-0.4,0-0.8,0.3-1.1,0.5c-0.1,0.1-0.2,0.1-0.3,0.2
		c-0.2,0.1-0.5-0.1-0.6-0.3c-0.1-0.2-0.2-0.5-0.3-0.7c-0.2-0.3-0.5-0.5-0.8-0.6c-0.4,0-0.7,0.2-0.9,0.5c0,0.1-0.1,0.2-0.1,0.3
		c-0.1,0.1-0.2,0.1-0.4,0.1c-0.5,0-1,0.2-1.2,0.5c-0.3,0.4-0.3,1,0.1,1.3c0.2,0.2,0.6,0.2,0.7,0.5c0,0.2-0.2,0.4-0.4,0.5
		c-0.2,0.1-0.5,0.1-0.7,0.2c-0.4,0.2-0.6,0.8-0.5,1.2c0.1,0.5,0.5,0.8,0.9,1.1c0.1,0.1,0.2,0.1,0.2,0.2c0,0.1,0.1,0.2,0.1,0.3
		c0.1,0.6,0.3,1.3,0.9,1.4c0.7,0.1,1-0.8,1.6-1.1c0.2,0.7,1.2,1.5,1.9,1.6c0.4,0,0.5-1,0.8-1.3c0.4-0.4,1.1-0.1,1.3-0.6
		c0.1-0.5-0.6-1.1-0.9-1.6c0.5-0.1,1-0.5,1.3-1c0.2-0.5,0.2-1.2-0.2-1.6C31.1,17.7,31,17.6,31,17.5z"/>
	<path fill="#E8B944" d="M26.4,36.3c-0.1-0.2,0-0.4,0-0.6c0-0.4-0.5-0.7-0.9-0.6c-0.4,0-0.8,0.3-1.1,0.5c-0.1,0.1-0.2,0.1-0.3,0.2
		c-0.2,0.1-0.5-0.1-0.6-0.3c-0.1-0.2-0.2-0.5-0.3-0.7c-0.2-0.3-0.5-0.5-0.8-0.6c-0.4,0-0.7,0.2-0.9,0.5c0,0.1-0.1,0.2-0.1,0.3
		c-0.1,0.1-0.2,0.1-0.4,0.1c-0.5,0-1,0.2-1.2,0.5c-0.3,0.4-0.3,1,0.1,1.3c0.2,0.2,0.6,0.2,0.7,0.5c0,0.2-0.2,0.4-0.4,0.5
		c-0.2,0.1-0.5,0.1-0.7,0.2c-0.4,0.2-0.6,0.8-0.5,1.2c0.1,0.5,0.5,0.8,0.9,1.1c0.1,0.1,0.2,0.1,0.2,0.2c0,0.1,0.1,0.2,0.1,0.3
		c0.1,0.6,0.3,1.3,0.9,1.4c0.7,0.1,1-0.8,1.6-1.1c0.2,0.7,1.2,1.5,1.9,1.6c0.4,0,0.5-1,0.8-1.3c0.4-0.4,1.1-0.1,1.3-0.6
		c0.1-0.5-0.6-1.1-0.9-1.6c0.5-0.1,1-0.5,1.3-1c0.2-0.5,0.2-1.2-0.2-1.6C26.5,36.6,26.4,36.5,26.4,36.3z"/>
	<path fill="#E8B944" d="M19.3,25c0.4-0.4,1.1-0.1,1.3-0.6c0.1-0.5-0.6-1.1-0.9-1.6c0.5-0.1,1-0.5,1.3-1c0.2-0.5,0.2-1.2-0.2-1.6
		c-0.1-0.1-0.2-0.2-0.3-0.4c-0.1-0.2,0-0.4,0-0.6c0-0.4-0.5-0.7-0.9-0.6c-0.4,0-0.8,0.3-1.1,0.5c-0.1,0.1-0.2,0.1-0.3,0.2
		c-0.2,0.1-0.5-0.1-0.6-0.3c-0.1-0.2-0.2-0.5-0.3-0.7c-0.2-0.3-0.5-0.5-0.8-0.6c-0.4,0-0.7,0.2-0.9,0.5c0,0.1-0.1,0.2-0.1,0.3
		c-0.1,0.1-0.2,0.1-0.4,0.1c-0.5,0-1,0.2-1.2,0.5c-0.3,0.4-0.3,1,0.1,1.3c0.2,0.2,0.6,0.2,0.7,0.5c0,0.2-0.2,0.4-0.4,0.5
		c-0.2,0.1-0.5,0.1-0.7,0.2c-0.4,0.2-0.6,0.8-0.5,1.2c0.1,0.5,0.5,0.8,0.9,1.1c0.1,0.1,0.2,0.1,0.2,0.2c0,0.1,0.1,0.2,0.1,0.3
		c0.1,0.6,0.3,1.3,0.9,1.4c0.7,0.1,1-0.8,1.6-1.1c0.2,0.7,1.2,1.5,1.9,1.6C19,26.4,19,25.3,19.3,25z"/>
	<path fill="#E8B944" d="M45.6,12.5c0.3,0.3,0.8,0.5,1.1,0.8c0.4,0.3,0.6,0.7,0.7,1.1c0.8-0.2,1.6-0.5,2.5-0.7
		c0.2,0,0.4-0.1,0.5-0.2c0.2-0.2,0.2-0.5,0.2-0.7c0-0.6,0.1-1.2-0.3-1.7c-0.1-0.2-0.3-0.3-0.4-0.5c-0.6-0.8-0.4-1.8-0.3-2.8
		c-0.2,0.6-0.7,1.1-1.3,1.3c-0.8,0.3-1.6,0.1-2.3,0.5c-0.5,0.3-0.9,0.8-1,1.4C44.9,11.5,45.1,12.1,45.6,12.5z"/>
	<path fill="#E8B944" d="M21.8,13c0.4,0.3,0.6,0.7,0.7,1.1c0.8-0.2,1.6-0.5,2.5-0.7c0.2,0,0.4-0.1,0.5-0.2c0.2-0.2,0.2-0.5,0.2-0.7
		c0-0.6,0.1-1.2-0.3-1.7c-0.1-0.2-0.3-0.3-0.4-0.5c-0.6-0.8-0.4-1.8-0.3-2.8c-0.2,0.6-0.7,1.1-1.3,1.3c-0.8,0.3-1.6,0.1-2.3,0.5
		c-0.5,0.3-0.9,0.8-1,1.4c-0.1,0.6,0.1,1.2,0.6,1.6C21.1,12.5,21.5,12.7,21.8,13z"/>
	<path fill="#E8B944" d="M58.9,31.1c-0.2-1.5-1.3-2.9-1.1-4.4c-1.4,0.8-2.7,1.9-3.7,3.1c-0.5,0.6-1,1.3-1.2,2.1
		c-0.2,0.8-0.2,1.7,0.3,2.3c0.7,1.1,2.3,1.3,3.5,0.7C58.2,34.3,59.1,32.7,58.9,31.1z"/>
	<path fill="#E8B944" d="M30.9,11.5c1.4-0.7,2.4-2.3,2.2-3.9c-0.2-1.5-1.3-2.9-1.1-4.4c-1.4,0.8-2.7,1.9-3.7,3.1
		c-0.5,0.6-1,1.3-1.2,2.1c-0.2,0.8-0.2,1.7,0.3,2.3C28.1,11.8,29.7,12,30.9,11.5z"/>
	<path fill="#E8B944" d="M46.3,38.5c-1.4,0.8-2.7,1.9-3.7,3.1c-0.5,0.6-1,1.3-1.2,2.1c-0.2,0.8-0.2,1.7,0.3,2.3
		c0.7,1.1,2.3,1.3,3.5,0.7c1.4-0.7,2.4-2.3,2.2-3.9C47.2,41.4,46.1,40,46.3,38.5z"/>
	<path fill="#E8B944" d="M26.4,28c-1.3-0.9-3.2-0.9-4.4,0.1c-1.2,0.9-1.9,2.6-3.3,3.2c1.4,0.8,3,1.3,4.6,1.6c0.8,0.1,1.6,0.2,2.4,0
		c0.8-0.2,1.5-0.7,1.9-1.4C28.1,30.2,27.5,28.7,26.4,28z"/>
	<path fill="#E8B944" d="M44.5,19.7c-1.1-0.6-2.6,0-3.4,1c-1,1.3-1,3.2-0.1,4.4c0.9,1.3,2.5,2,3,3.4c0.8-1.4,1.4-2.9,1.8-4.5
		c0.2-0.8,0.2-1.6,0.1-2.4C45.7,20.8,45.2,20,44.5,19.7z"/>
</g>
</svg>
