<?xml version="1.0" encoding="utf-8"?>
<!-- Generator: Adobe Illustrator 18.0.0, SVG Export Plug-In . SVG Version: 6.00 Build 0)  -->
<!DOCTYPE svg PUBLIC "-//W3C//DTD SVG 1.1//EN" "http://www.w3.org/Graphics/SVG/1.1/DTD/svg11.dtd">
<svg version="1.1" id="Layer_1" xmlns="http://www.w3.org/2000/svg" xmlns:xlink="http://www.w3.org/1999/xlink" x="0px" y="0px"
	 viewBox="0 0 72 72" enable-background="new 0 0 72 72" xml:space="preserve">
<g>
	<path fill="#F04B36" d="M58.7,54.2c0-3.6-2.8-6.8-7.2-9.1c2.8-1.9,4.5-4.3,4.5-7c0-3.9-3.8-7.4-9.5-9.3c2.2-1.4,3.6-3.2,3.6-5.1
		c0-4.3-6.3-7.7-14.1-7.7c-7.8,0-14.1,3.5-14.1,7.7c0,2,1.4,3.8,3.6,5.1c-5.7,1.9-9.5,5.4-9.5,9.3c0,2.6,1.7,5.1,4.5,7
		c-4.4,2.3-7.2,5.5-7.2,9.1c0,6.2,8.1,11.3,18.8,12.3v5h7.8v-5C50.5,65.5,58.7,60.4,58.7,54.2z"/>
	<polygon fill="#4DA0D8" points="31.5,14.2 36,11.9 40.5,14.2 39.6,9.3 43.2,5.7 38.2,5 36,0.5 33.8,5 28.8,5.7 32.4,9.3 	"/>
</g>
</svg>
