<?xml version="1.0" encoding="utf-8"?>
<!-- Generator: Adobe Illustrator 18.0.0, SVG Export Plug-In . SVG Version: 6.00 Build 0)  -->
<!DOCTYPE svg PUBLIC "-//W3C//DTD SVG 1.1//EN" "http://www.w3.org/Graphics/SVG/1.1/DTD/svg11.dtd">
<svg version="1.1" id="Layer_1" xmlns="http://www.w3.org/2000/svg" xmlns:xlink="http://www.w3.org/1999/xlink" x="0px" y="0px"
	 viewBox="0 0 72 72" enable-background="new 0 0 72 72" xml:space="preserve">
<g>
	<path fill="#06728D" d="M61.6,10.6c0.5-0.4,0.7-1,0.7-1.6c0-0.6-0.2-1.2-0.4-1.8c-0.5-1.2-1.1-2.2-2-3.1c-0.2,1.2-1.3,1.9-1.8,3
		c-0.5,1.1-0.2,2.5,0.7,3.3C59.6,11,60.8,11.3,61.6,10.6z"/>
	<path fill="#06728D" d="M35.3,8.9c0.5-0.4,0.7-1,0.7-1.6c0-0.6-0.2-1.2-0.4-1.8c-0.5-1.2-1.1-2.2-2-3.1c-0.2,1.2-1.3,1.9-1.8,3
		c-0.5,1.1-0.2,2.5,0.7,3.3C33.4,9.3,34.6,9.6,35.3,8.9z"/>
	<path fill="#06728D" d="M13.2,21.5c-0.5,1.1-0.2,2.5,0.7,3.3c0.7,0.7,1.9,0.9,2.7,0.3c0.5-0.4,0.7-1,0.7-1.6c0-0.6-0.2-1.2-0.4-1.8
		c-0.5-1.2-1.1-2.2-2-3.1C14.8,19.6,13.7,20.4,13.2,21.5z"/>
	<path fill="#06728D" d="M55.6,16.5c-0.2,1.2-1.3,1.9-1.8,3c-0.5,1.1-0.2,2.5,0.7,3.3c0.7,0.7,1.9,0.9,2.7,0.3
		c0.5-0.4,0.7-1,0.7-1.6c0-0.6-0.2-1.2-0.4-1.8C57.1,18.5,56.4,17.5,55.6,16.5z"/>
	<path fill="#06728D" d="M27.8,13.8c0.3,0.8,0.9,1.3,1.6,1.8c0.7,0.5,1.5,0.9,2.4,1c0.2,0.4-0.1,0.9-0.5,1.1
		c-0.4,0.2-0.9,0.2-1.3,0.2c-0.8,0.1-1.6,0.3-2.2,0.8c-0.3,0.2-1.8,2.1-1.2,2.8c0.2,0.2,0.5,0.4,0.8,0.5c0.8,0.3,1.7,0.3,2.5,0
		c0.3-0.1,0.6-0.3,0.8-0.6c0.4-0.6,0.3-1.7,1-2c0.1-0.1,0.3-0.1,0.4,0c0.3,0.1,0.3,0.5,0.3,0.8c-0.1,1.2-0.3,2.4,0,3.6
		c0.3,1.2,1.5,2.2,2.6,1.8c0.4-0.2,0.8-0.5,1.1-0.9c0.2-0.3,0.5-0.5,0.5-0.9c0.2-0.9-0.7-1.5-1.1-2.2c-0.4-0.6-0.5-1.4-0.4-2.1
		c0.4,0,0.7,0.4,1,0.7c0.5,0.6,1.2,1,2,1.1c0.8,0.2,1.7,0.1,2.3-0.4c0.7-0.5,1-1.4,0.8-2.2c-0.4-1.1-1.8-1.5-3-1.5
		c-1.2,0-2.4,0.3-3.5-0.1c1.7-0.7,3.1-2.1,3.8-3.8c0.4-0.9,0.4-2.2-0.5-2.7c-0.6-0.3-1.4-0.1-2,0.3c-0.4,0.2-0.8,0.5-1,0.9
		c-0.7,1-0.4,2.5-1,3.6c-0.3,0.5-1,0.8-1.2,0.3c-0.1-0.2-0.1-0.4-0.1-0.6c0-0.6-0.2-1.1-0.5-1.6c-0.4-0.8-0.9-1.5-1.6-2
		c-0.7-0.4-1.7-0.5-2.4,0.1C27.6,12.1,27.5,13,27.8,13.8z"/>
	<path fill="#E77528" d="M67.5,32.3c-1.2,0-2.4,0.3-3.5-0.1c1.7-0.7,3.1-2.1,3.8-3.8c0.4-0.9,0.4-2.2-0.5-2.7
		c-0.6-0.3-1.4-0.1-2,0.3c-0.4,0.2-0.8,0.5-1,0.9c-0.7,1-0.4,2.5-1,3.6c-0.3,0.5-1,0.8-1.2,0.3c-0.1-0.2-0.1-0.4-0.1-0.6
		c0-0.6-0.2-1.1-0.5-1.6c-0.4-0.8-0.9-1.5-1.6-2c-0.7-0.4-1.7-0.5-2.4,0.1c-0.6,0.5-0.7,1.4-0.4,2.1c-1.5,1.2-3.8,2.6-6.8,3.9
		c-0.2-0.2-0.4-0.5-0.6-0.7c-0.1,0.4-0.3,0.8-0.5,1.1c-3.3,1.3-7.4,2.4-12.4,2.9c0.5-1.8,0.5-3.7,0.3-5.5c2.5-1,4.7-2.3,5-3.9
		c0,0-1.6,1.8-5.1,3.3c-0.2-1.5-0.6-2.9-1.1-4.4c0,2.1-1,4.2-2.1,6.2c-2.5-0.9-4.6-2-6.3-3c0,0-0.1-0.1-0.1-0.1c0,0,0,0,0,0
		c-2.3-1.4-3.7-2.6-4.5-3.4c0,0,0.1-0.1,0.1-0.1c0.1-0.1,0.2-0.3,0.2-0.4c0.1-0.4-0.3-0.7-0.5-1.1c-0.2-0.3-0.2-0.7-0.2-1
		c0.2,0,0.3,0.2,0.5,0.3c0.2,0.3,0.6,0.5,0.9,0.5c0.4,0.1,0.8,0,1.1-0.2c0.3-0.2,0.5-0.7,0.4-1.1c-0.2-0.6-0.8-0.8-1.4-0.7
		c-0.6,0-1.1,0.2-1.6,0c0.8-0.3,1.4-1,1.7-1.8c0.2-0.5,0.2-1.1-0.2-1.3c-0.3-0.2-0.6,0-0.9,0.2c-0.2,0.1-0.4,0.3-0.5,0.4
		c-0.3,0.5-0.2,1.2-0.5,1.7c-0.1,0.2-0.5,0.4-0.6,0.2c0-0.1,0-0.2,0-0.3c0-0.3-0.1-0.5-0.2-0.8c-0.2-0.4-0.4-0.7-0.7-1
		c-0.3-0.2-0.8-0.2-1.1,0c-0.3,0.3-0.3,0.7-0.2,1.1c0.1,0.4,0.4,0.7,0.7,0.9c0.3,0.2,0.7,0.5,1.1,0.5c0.1,0.2,0,0.4-0.2,0.5
		c-0.2,0.1-0.4,0.1-0.6,0.1c-0.4,0-0.7,0.2-1,0.4c-0.1,0.1-0.8,1-0.6,1.4c0.1,0.1,0.2,0.2,0.4,0.3c0.4,0.2,0.8,0.2,1.2,0
		c0.1-0.1,0.3-0.2,0.4-0.3c0.2-0.3,0.1-0.8,0.5-1c0.1,0,0.1,0,0.2,0c0.1,0.1,0.1,0.2,0.1,0.4c0,0.6-0.1,1.2,0,1.7
		c0.2,0.6,0.7,1.1,1.2,0.9c0,0,0,0,0,0c0.7,1.6,2.3,3,4.3,4.3c-0.4,0.6-0.9,1.1-1.2,1.8c-0.5,1.1-0.2,2.5,0.7,3.3
		c0.7,0.7,1.9,0.9,2.7,0.3c0.5-0.4,0.7-1,0.7-1.6c0-0.6-0.2-1.2-0.4-1.8c-0.1-0.2-0.2-0.4-0.3-0.7c1.3,0.6,2.6,1.2,4.1,1.8
		c-1.2,2-2.4,4.1-2.9,6.2c0,0,0,0.1,0,0.1c-5-1.9-8.2-4.3-9.7-5.7c0.3,0,0.5-0.1,0.8-0.3c0.5-0.4,0.7-1,0.7-1.6
		c0-0.6-0.2-1.2-0.4-1.8c-0.5-1.2-1.1-2.2-2-3.1c-0.2,1.2-1.3,1.9-1.8,3c-0.5,1.1-0.2,2.5,0.7,3.3c0.3,0.3,0.8,0.5,1.2,0.6
		c1.4,2.8,5.6,5.2,10.3,7c-0.1,1.7,0.1,3.4,0.4,5c-1.3-0.1-2.6-0.3-3.8-0.5c0-0.2,0.1-0.4,0-0.5c-0.2-0.6-0.8-0.8-1.4-0.7
		c-0.6,0-1.1,0.2-1.6,0c0.8-0.3,1.4-1,1.7-1.8c0.2-0.5,0.2-1.1-0.2-1.3c-0.3-0.2-0.6,0-0.9,0.2c-0.2,0.1-0.4,0.3-0.5,0.4
		c-0.3,0.5-0.2,1.2-0.5,1.7c-0.1,0.2-0.5,0.4-0.6,0.2c0-0.1,0-0.2,0-0.3c0-0.3-0.1-0.5-0.2-0.8c-0.2-0.4-0.4-0.7-0.7-1
		c-0.3-0.2-0.8-0.2-1.1,0c-0.3,0.3-0.3,0.7-0.2,1.1c0.1,0.4,0.4,0.7,0.7,0.9c0.3,0.2,0.7,0.5,1.1,0.5c0.1,0.1,0,0.3-0.1,0.4
		c-5.6-1.6-9.4-4-11.6-5.7c-0.4-0.6-0.5-1.3-0.4-2c0.4,0,0.7,0.4,1,0.7c0.5,0.6,1.2,1,2,1.1c0.8,0.2,1.7,0.1,2.3-0.4
		c0.7-0.5,1-1.4,0.8-2.2c-0.4-1.1-1.8-1.5-3-1.5c-1.2,0-2.4,0.3-3.5-0.1c1.7-0.7,3.1-2.1,3.8-3.8c0.4-0.9,0.4-2.2-0.5-2.7
		c-0.6-0.3-1.4-0.1-2,0.3c-0.4,0.2-0.8,0.5-1,0.9c-0.7,1-0.4,2.5-1,3.6c-0.3,0.5-1,0.8-1.2,0.3c-0.1-0.2-0.1-0.4-0.1-0.6
		c0-0.6-0.2-1.1-0.5-1.6c-0.4-0.8-0.9-1.5-1.6-2C5,27.9,4,27.9,3.3,28.4c-0.6,0.5-0.7,1.5-0.4,2.3c0.3,0.8,0.9,1.3,1.6,1.8
		c0.7,0.5,1.5,0.9,2.4,1c0.2,0.4-0.1,0.9-0.5,1.1c-0.4,0.2-0.9,0.2-1.3,0.2c-0.8,0.1-1.6,0.3-2.2,0.8c-0.3,0.2-1.8,2.1-1.2,2.8
		c0.2,0.2,0.5,0.4,0.8,0.5c0.8,0.3,1.7,0.3,2.5,0c0.3-0.1,0.6-0.3,0.8-0.6c0.4-0.6,0.3-1.7,1-2c0.1-0.1,0.3-0.1,0.4,0
		c0.3,0.1,0.3,0.5,0.3,0.8c-0.1,1.2-0.3,2.4,0,3.6c0.3,1.2,1.5,2.2,2.6,1.8c0.4-0.2,0.8-0.5,1.1-0.9c0.2-0.2,0.4-0.5,0.5-0.8
		c2.3,1.6,5.3,3,8.5,4.1c-0.2,0.3-0.5,0.9-0.3,1.1c0.1,0.1,0.2,0.2,0.4,0.3c0.4,0.2,0.8,0.2,1.2,0c0.1-0.1,0.3-0.2,0.4-0.3
		c0.1-0.1,0.1-0.3,0.2-0.5c0.2,0.1,0.4,0.1,0.6,0.2c0,0.5-0.1,0.9,0,1.4c0.2,0.6,0.7,1.1,1.2,0.9c0.2-0.1,0.4-0.2,0.5-0.4
		c0.1-0.1,0.2-0.3,0.2-0.4c0.1-0.3-0.2-0.6-0.4-0.9c2.6,0.8,5,1.4,6.7,1.8c0.3,1.6,0.4,3.1,0.3,4.7c-2.3,5.1-5.1,9-10.3,14.4
		c-1,1-2.6,1.7-4,2.5c10.5-0.2,21-0.3,31.4-0.5c-1.7-2.8-3.5-5.6-5.2-8.4c-1.9-3-3.7-6.1-3.8-9.3c0-1.3,0.3-2.5,0.3-3.8
		c2.1-0.9,4.2-1.9,5.8-3c0,0.1,0,0.2,0.1,0.2c0.1,0.1,0.2,0.2,0.4,0.3c0.4,0.2,0.8,0.2,1.2,0c0.1-0.1,0.3-0.2,0.4-0.3
		c0.2-0.3,0.1-0.8,0.5-1c0.1,0,0.1,0,0.2,0c0.1,0.1,0.1,0.2,0.1,0.4c0,0.6-0.1,1.2,0,1.7c0.2,0.6,0.7,1.1,1.2,0.9
		c0.2-0.1,0.4-0.2,0.5-0.4c0.1-0.1,0.2-0.3,0.2-0.4c0.1-0.4-0.3-0.7-0.5-1.1c-0.2-0.3-0.2-0.7-0.2-1c0.2,0,0.3,0.2,0.5,0.3
		c0.2,0.3,0.6,0.5,0.9,0.5c0.4,0.1,0.8,0,1.1-0.2c0.3-0.2,0.5-0.7,0.4-1.1c-0.2-0.6-0.8-0.8-1.4-0.7c-0.6,0-1.1,0.2-1.6,0
		c0.8-0.3,1.4-1,1.7-1.8c0.2-0.5,0.2-1.1-0.2-1.3c-0.3-0.2-0.6,0-0.9,0.2c-0.1,0.1-0.3,0.2-0.4,0.4c0-0.1,0-0.1,0.1-0.2
		c0,0-0.4,0.5-1.4,1.3c0-0.1,0-0.1-0.1-0.2c-0.2-0.4-0.4-0.7-0.7-1c-0.3-0.2-0.8-0.2-1.1,0c-0.3,0.3-0.3,0.7-0.2,1.1
		c0.1,0.4,0.4,0.7,0.7,0.9c0,0,0.1,0.1,0.1,0.1c-1.6,1.2-4.1,2.8-7.4,4.2c-0.1-0.4-0.2-0.8-0.4-1.1c-0.8-1.7-2.9-3.2-3.2-5
		c-0.1-0.5,0-1,0.1-1.5c1.4-0.3,3.3-0.8,5.5-1.4c-0.3,0.4-0.7,0.8-0.9,1.3c-0.5,1.1-0.2,2.5,0.7,3.3c0.7,0.7,1.9,0.9,2.7,0.3
		c0.5-0.4,0.7-1,0.7-1.6c0-0.6-0.2-1.2-0.4-1.8c-0.3-0.7-0.6-1.4-1.1-2c1.5-0.5,3-1,4.6-1.5c-0.4,1.1-0.1,2.4,0.7,3.2
		c0.7,0.7,1.9,0.9,2.7,0.3c0.5-0.4,0.7-1,0.7-1.6c0-0.6-0.2-1.2-0.4-1.8c-0.2-0.5-0.4-0.9-0.7-1.3c2.6-1.2,5-2.5,6.6-4.1
		c0.3,0.4,0.7,0.7,1.1,1c0.7,0.5,1.5,0.9,2.4,1c0.2,0.4-0.1,0.9-0.5,1.1c-0.4,0.2-0.9,0.2-1.3,0.2c-0.8,0.1-1.6,0.3-2.2,0.8
		c-0.3,0.2-1.8,2.1-1.2,2.8c0.2,0.2,0.5,0.4,0.8,0.5c0.8,0.3,1.7,0.3,2.5,0c0.3-0.1,0.6-0.3,0.8-0.6c0.4-0.6,0.3-1.7,1-2
		c0.1-0.1,0.3-0.1,0.4,0c0.3,0.1,0.3,0.5,0.3,0.8c-0.1,1.2-0.3,2.4,0,3.6c0.3,1.2,1.5,2.2,2.6,1.8c0.4-0.2,0.8-0.5,1.1-0.9
		c0.2-0.3,0.5-0.5,0.5-0.9c0.2-0.9-0.7-1.5-1.1-2.2c-0.4-0.6-0.5-1.4-0.4-2.1c0.4,0,0.7,0.4,1,0.7c0.5,0.6,1.2,1,2,1.1
		c0.8,0.2,1.7,0.1,2.3-0.4c0.7-0.5,1-1.4,0.8-2.2C70.1,32.7,68.7,32.3,67.5,32.3z M47.7,43.1c-0.1,0-0.2,0.1-0.3,0.1
		c0.2-0.2,0.4-0.3,0.5-0.5C47.9,42.8,47.8,43,47.7,43.1z M48.9,41.9c-0.1,0.2-0.4,0.3-0.5,0.2c0.3-0.4,0.6-0.8,0.8-1.2
		C49,41.2,49,41.6,48.9,41.9z"/>
	<path fill="#06728D" d="M2.8,21.1C3,21,3.2,20.9,3.4,20.7c0.3-0.5,0.2-1.2,0.7-1.4c0.1,0,0.2-0.1,0.3,0c0.2,0.1,0.2,0.3,0.2,0.5
		c0,0.9-0.2,1.7,0,2.6c0.2,0.8,1,1.6,1.8,1.3c0.3-0.1,0.5-0.4,0.8-0.6c0.2-0.2,0.3-0.4,0.4-0.6c0.1-0.6-0.5-1.1-0.8-1.6
		c-0.3-0.4-0.4-1-0.3-1.5c0.3,0,0.5,0.3,0.7,0.5c0.4,0.4,0.8,0.7,1.3,0.8c0.5,0.1,1.2,0,1.6-0.3c0.4-0.4,0.7-1,0.5-1.6
		c-0.3-0.8-1.2-1.1-2-1.1c-0.8,0-1.7,0.2-2.4-0.1c1.2-0.5,2.1-1.5,2.6-2.7C9,14.1,9,13.2,8.4,12.9c-0.4-0.2-1,0-1.4,0.2
		c-0.3,0.2-0.5,0.4-0.7,0.7c-0.5,0.7-0.3,1.8-0.7,2.6c-0.2,0.3-0.7,0.6-0.8,0.2c-0.1-0.1,0-0.3,0-0.4c0-0.4-0.1-0.8-0.3-1.2
		c-0.3-0.6-0.6-1.1-1.1-1.4c-0.5-0.3-1.2-0.4-1.6,0c-0.4,0.4-0.5,1.1-0.3,1.6c0.2,0.5,0.6,1,1.1,1.3c0.5,0.4,1.1,0.7,1.7,0.7
		c0.2,0.3,0,0.6-0.3,0.8c-0.3,0.1-0.6,0.1-0.9,0.1c-0.5,0-1.1,0.2-1.5,0.6c-0.2,0.1-1.2,1.5-0.8,2c0.1,0.2,0.3,0.3,0.5,0.4
		C1.7,21.4,2.3,21.4,2.8,21.1z"/>
	<path fill="#06728D" d="M42,9.1c-0.3,0.1-0.6,0.1-0.9,0.1c-0.5,0-1.1,0.2-1.5,0.6c-0.2,0.1-1.2,1.5-0.8,2c0.1,0.2,0.3,0.3,0.5,0.4
		c0.5,0.2,1.2,0.2,1.7,0c0.2-0.1,0.4-0.2,0.6-0.4c0.3-0.5,0.2-1.2,0.7-1.4c0.1,0,0.2-0.1,0.3,0c0.2,0.1,0.2,0.3,0.2,0.5
		c0,0.9-0.2,1.7,0,2.6c0.2,0.8,1,1.6,1.8,1.3c0.3-0.1,0.5-0.4,0.8-0.6c0.2-0.2,0.3-0.4,0.4-0.6c0.1-0.6-0.5-1.1-0.8-1.6
		c-0.3-0.4-0.4-1-0.3-1.5c0.3,0,0.5,0.3,0.7,0.5c0.4,0.4,0.8,0.7,1.3,0.8c0.3,0.1,0.5,0.1,0.8,0c-0.3,1-1.3,1.7-1.7,2.6
		c-0.5,1.1-0.2,2.5,0.7,3.3c0.7,0.7,1.9,0.9,2.7,0.3c0.5-0.4,0.7-1,0.7-1.6c0-0.6-0.2-1.2-0.4-1.8c-0.4-1-1-2-1.7-2.9
		c0.2-0.1,0.4-0.1,0.5-0.3c0.4-0.4,0.7-1,0.5-1.6c-0.3-0.8-1.2-1.1-2-1.1c-0.8,0-1.7,0.2-2.4-0.1c1.2-0.5,2.1-1.5,2.6-2.7
		c0.2-0.7,0.3-1.6-0.3-1.9c-0.4-0.2-1,0-1.4,0.2c-0.3,0.2-0.5,0.4-0.7,0.7c-0.5,0.7-0.3,1.8-0.7,2.6c-0.2,0.3-0.7,0.6-0.8,0.2
		c-0.1-0.1,0-0.3,0-0.4c0-0.4-0.1-0.8-0.3-1.2c-0.3-0.6-0.6-1.1-1.1-1.4c-0.5-0.3-1.2-0.4-1.6,0c-0.4,0.4-0.5,1.1-0.3,1.6
		c0.2,0.5,0.6,1,1.1,1.3c0.5,0.4,1.1,0.7,1.7,0.7C42.5,8.6,42.3,9,42,9.1z"/>
	<path fill="#06728D" d="M71.4,18.4c-0.3-0.8-1.2-1.1-2-1.1c-0.8,0-1.7,0.2-2.4-0.1c1.2-0.5,2.1-1.5,2.6-2.7
		c0.2-0.7,0.3-1.6-0.3-1.9c-0.4-0.2-1,0-1.4,0.2c-0.3,0.2-0.5,0.4-0.7,0.7c-0.5,0.7-0.3,1.8-0.7,2.6c-0.2,0.3-0.7,0.6-0.8,0.2
		c-0.1-0.1,0-0.3,0-0.4c0-0.4-0.1-0.8-0.3-1.2c-0.3-0.6-0.6-1.1-1.1-1.4c-0.5-0.3-1.2-0.4-1.6,0c-0.4,0.4-0.5,1.1-0.3,1.6
		c0.2,0.5,0.6,1,1.1,1.3c0.5,0.4,1.1,0.7,1.7,0.7c0.2,0.3,0,0.6-0.3,0.8c-0.3,0.1-0.6,0.1-0.9,0.1c-0.5,0-1.1,0.2-1.5,0.6
		c-0.2,0.1-1.2,1.5-0.8,2c0.1,0.2,0.3,0.3,0.5,0.4c0.5,0.2,1.2,0.2,1.7,0c0.2-0.1,0.4-0.2,0.6-0.4c0.3-0.5,0.2-1.2,0.7-1.4
		c0.1,0,0.2-0.1,0.3,0c0.2,0.1,0.2,0.3,0.2,0.5c0,0.9-0.2,1.7,0,2.6c0.2,0.8,1,1.6,1.8,1.3c0.3-0.1,0.5-0.4,0.8-0.6
		c0.2-0.2,0.3-0.4,0.4-0.6c0.1-0.6-0.5-1.1-0.8-1.6c-0.3-0.4-0.4-1-0.3-1.5c0.3,0,0.5,0.3,0.7,0.5c0.4,0.4,0.8,0.7,1.3,0.8
		c0.5,0.1,1.2,0,1.6-0.3C71.4,19.7,71.6,19,71.4,18.4z"/>
	<path fill="#06728D" d="M48.4,20.2c-0.5,0.7-0.3,1.8-0.7,2.6c-0.2,0.3-0.7,0.6-0.8,0.2c-0.1-0.1,0-0.3,0-0.4c0-0.4-0.1-0.8-0.3-1.2
		c-0.3-0.6-0.6-1.1-1.1-1.4c-0.5-0.3-1.2-0.4-1.6,0c-0.4,0.4-0.5,1.1-0.3,1.6c0.2,0.5,0.6,1,1.1,1.3c0.5,0.4,1.1,0.7,1.7,0.7
		c0.2,0.3,0,0.6-0.3,0.8c-0.3,0.1-0.6,0.1-0.9,0.1c-0.5,0-1.1,0.2-1.5,0.6c-0.2,0.1-1.2,1.5-0.8,2c0.1,0.2,0.3,0.3,0.5,0.4
		c0.5,0.2,1.2,0.2,1.7,0c0.2-0.1,0.4-0.2,0.6-0.4c0.3-0.5,0.2-1.2,0.7-1.4c0.1,0,0.2-0.1,0.3,0c0.2,0.1,0.2,0.3,0.2,0.5
		c0,0.9-0.2,1.7,0,2.6c0.2,0.8,1,1.6,1.8,1.3c0.3-0.1,0.5-0.4,0.8-0.6c0.2-0.2,0.3-0.4,0.4-0.6c0.1-0.6-0.5-1.1-0.8-1.6
		c-0.3-0.4-0.4-1-0.3-1.5c0.3,0,0.5,0.3,0.7,0.5c0.4,0.4,0.8,0.7,1.3,0.8c0.5,0.1,1.2,0,1.6-0.3c0.4-0.4,0.7-1,0.5-1.6
		c-0.3-0.8-1.2-1.1-2-1.1c-0.8,0-1.7,0.2-2.4-0.1c1.2-0.5,2.1-1.5,2.6-2.7c0.2-0.7,0.3-1.6-0.3-1.9c-0.4-0.2-1,0-1.4,0.2
		C48.8,19.7,48.6,19.9,48.4,20.2z"/>
	<path fill="#06728D" d="M22.3,9.5c0.4,0.2,0.8,0.2,1.2,0c0.1-0.1,0.3-0.2,0.4-0.3c0.2-0.3,0.1-0.8,0.5-1c0.1,0,0.1,0,0.2,0
		c0.1,0.1,0.1,0.2,0.1,0.4c0,0.6-0.1,1.2,0,1.7c0.2,0.6,0.7,1.1,1.2,0.9c0.2-0.1,0.4-0.2,0.5-0.4c0.1-0.1,0.2-0.3,0.2-0.4
		c0.1-0.4-0.3-0.7-0.5-1.1c-0.2-0.3-0.2-0.7-0.2-1c0.2,0,0.3,0.2,0.5,0.3C26.6,8.9,27,9,27.3,9.1c0.4,0.1,0.8,0,1.1-0.2
		c0.3-0.2,0.5-0.7,0.4-1.1c-0.2-0.6-0.8-0.8-1.4-0.7c-0.6,0-1.1,0.2-1.6,0c0.8-0.3,1.4-1,1.7-1.8c0.2-0.5,0.2-1.1-0.2-1.3
		c-0.3-0.2-0.6,0-0.9,0.2c-0.2,0.1-0.4,0.3-0.5,0.4c-0.3,0.5-0.2,1.2-0.5,1.7c-0.1,0.2-0.5,0.4-0.6,0.2c0-0.1,0-0.2,0-0.3
		c0-0.3-0.1-0.5-0.2-0.8c-0.2-0.4-0.4-0.7-0.7-1c-0.3-0.2-0.8-0.2-1.1,0c-0.3,0.3-0.3,0.7-0.2,1.1c0.1,0.4,0.4,0.7,0.7,0.9
		c0.3,0.2,0.7,0.5,1.1,0.5c0.1,0.2,0,0.4-0.2,0.5c-0.2,0.1-0.4,0.1-0.6,0.1c-0.4,0-0.7,0.2-1,0.4c-0.1,0.1-0.8,1-0.6,1.4
		C22.1,9.4,22.2,9.4,22.3,9.5z"/>
	<path fill="#06728D" d="M51.6,13c0.4,0.2,0.8,0.2,1.2,0c0.1-0.1,0.3-0.2,0.4-0.3c0.2-0.3,0.1-0.8,0.5-1c0.1,0,0.1,0,0.2,0
		c0.1,0.1,0.1,0.2,0.1,0.4c0,0.6-0.1,1.2,0,1.7c0.2,0.6,0.7,1.1,1.2,0.9c0.2-0.1,0.4-0.2,0.5-0.4c0.1-0.1,0.2-0.3,0.2-0.4
		c0.1-0.4-0.3-0.7-0.5-1.1c-0.2-0.3-0.2-0.7-0.2-1c0.2,0,0.3,0.2,0.5,0.3c0.2,0.3,0.6,0.5,0.9,0.5c0.4,0.1,0.8,0,1.1-0.2
		c0.3-0.2,0.5-0.7,0.4-1.1c-0.2-0.6-0.8-0.8-1.4-0.7s-1.1,0.2-1.6,0c0.8-0.3,1.4-1,1.7-1.8c0.2-0.5,0.2-1.1-0.2-1.3
		c-0.3-0.2-0.6,0-0.9,0.2c-0.2,0.1-0.4,0.3-0.5,0.4c-0.3,0.5-0.2,1.2-0.5,1.7c-0.1,0.2-0.5,0.4-0.6,0.2c0-0.1,0-0.2,0-0.3
		c0-0.3-0.1-0.5-0.2-0.8c-0.2-0.4-0.4-0.7-0.7-1c-0.3-0.2-0.8-0.2-1.1,0c-0.3,0.3-0.3,0.7-0.2,1.1c0.1,0.4,0.4,0.7,0.7,0.9
		c0.3,0.2,0.7,0.5,1.1,0.5c0.1,0.2,0,0.4-0.2,0.5C53.2,11,53,11,52.8,11c-0.4,0-0.7,0.2-1,0.4c-0.1,0.1-0.8,1-0.6,1.4
		C51.3,12.9,51.4,13,51.6,13z"/>
	<path fill="#06728D" d="M13.3,14.5c0.4,0.2,0.8,0.2,1.2,0c0.1-0.1,0.3-0.2,0.4-0.3c0.2-0.3,0.1-0.8,0.5-1c0.1,0,0.1,0,0.2,0
		c0.1,0.1,0.1,0.2,0.1,0.4c0,0.6-0.1,1.2,0,1.7c0.2,0.6,0.7,1.1,1.2,0.9c0.2-0.1,0.4-0.2,0.5-0.4c0.1-0.1,0.2-0.3,0.2-0.4
		c0.1-0.4-0.3-0.7-0.5-1.1c-0.2-0.3-0.2-0.7-0.2-1c0.2,0,0.3,0.2,0.5,0.3c0.2,0.3,0.6,0.5,0.9,0.5c0.4,0.1,0.8,0,1.1-0.2
		c0.3-0.2,0.5-0.7,0.4-1.1c-0.2-0.6-0.8-0.8-1.4-0.7c-0.6,0-1.1,0.2-1.6,0c0.8-0.3,1.4-1,1.7-1.8c0.2-0.5,0.2-1.1-0.2-1.3
		c-0.3-0.2-0.6,0-0.9,0.2c-0.2,0.1-0.4,0.3-0.5,0.4c-0.3,0.5-0.2,1.2-0.5,1.7c-0.1,0.2-0.5,0.4-0.6,0.2c0-0.1,0-0.2,0-0.3
		c0-0.3-0.1-0.5-0.2-0.8c-0.2-0.4-0.4-0.7-0.7-1c-0.3-0.2-0.8-0.2-1.1,0c-0.3,0.3-0.3,0.7-0.2,1.1c0.1,0.4,0.4,0.7,0.7,0.9
		c0.3,0.2,0.7,0.5,1.1,0.5c0.1,0.2,0,0.4-0.2,0.5c-0.2,0.1-0.4,0.1-0.6,0.1c-0.4,0-0.7,0.2-1,0.4c-0.1,0.1-0.8,1-0.6,1.4
		C13.1,14.3,13.2,14.4,13.3,14.5z"/>
</g>
</svg>
