<?xml version="1.0" encoding="utf-8"?>
<!-- Generator: Adobe Illustrator 18.0.0, SVG Export Plug-In . SVG Version: 6.00 Build 0)  -->
<!DOCTYPE svg PUBLIC "-//W3C//DTD SVG 1.1//EN" "http://www.w3.org/Graphics/SVG/1.1/DTD/svg11.dtd">
<svg version="1.1" id="Layer_1" xmlns="http://www.w3.org/2000/svg" xmlns:xlink="http://www.w3.org/1999/xlink" x="0px" y="0px"
	 viewBox="0 0 72 72" enable-background="new 0 0 72 72" xml:space="preserve">
<g>
	<path fill="#010101" d="M5.9,39.9c-0.3,0.1-0.6,0.2-0.9,0.4C5.2,40.1,5.5,40,5.9,39.9z"/>
	<path fill="#F04B36" d="M34.2,17.3c2.3-1,4.6-2,7-3c-1.2-0.5-2.4-0.9-3.7-1.1c-1-0.2-2.1-0.3-2.9-0.9c-1.4-1.2-1.1-3.4-1-5.3
		c0.2-2.2-0.1-4.4-0.8-6.5c-0.3,1.5-1,2.8-1.7,4.2c-2.6,5-5.3,10.1-7.9,15.1C27,20.3,30.7,18.8,34.2,17.3z"/>
	<path fill="#E77528" d="M30.8,51.4c-0.6,0.2-1.2,0.5-1.7,0.8c1.8,4.1,0.6,9.1,2.1,13.4c0.6,1.8,1.7,3.5,1.9,5.5
		c3,0.3,6.1,0.5,9.1,0.4c-1.4-4.9-3.2-9.6-5.5-14.1c-0.8-1.5-1.6-3.2-1.5-4.9c0-0.4,0.1-0.8,0.4-1c0.1-0.1,0.1-0.1,0.2-0.1
		c-0.3-0.1-0.7-0.2-1.1-0.2C33.4,51.1,32.1,51,30.8,51.4z"/>
	<path fill="#F04B36" d="M66,46.1c-9.9-1-19.9,0.4-29.9,0.6c-0.5,0-1,0-1.4-0.2s-0.6-0.8-0.3-1.2c2.5-1.2,5.2-1.8,7.8-2.9
		c3.7-1.7,6.8-4.5,9.8-7.2c0.6-0.5,1.2-1.1,1.4-1.8c-4.9-0.7-9.9-1.1-14.9-1.1c-0.8,0-1.6,0-2.3-0.3c-0.7-0.3-1.3-1-1.2-1.8
		c0.1-0.7,0.6-1.2,1.1-1.7c2.8-2.6,5.7-5.1,8.5-7.7c0.6-0.5,1.2-1.2,0.8-1.9c-0.3-0.6-1.1-0.6-1.7-0.6c-9.3,0.6-18.2,4.4-26.8,8.1
		c4.9-0.6,9.8-0.8,14.7-0.5c-1.2,1.5-2.8,2.5-4.4,3.5c-6.8,4.1-14,7.6-21.4,10.5c3.3-1.1,6.9-1,10.4-1.2c4.8-0.2,9.6-0.9,14.4-1.7
		C24,43.4,15.9,48.1,8,52.7c7-0.3,13.9-0.7,20.9-1c0.1,0.2,0.2,0.4,0.3,0.5c0.5-0.4,1.1-0.7,1.7-0.8c1.2-0.3,2.6-0.3,3.8-0.2
		c0.4,0,0.7,0,1.1,0.2c0.3-0.1,0.6-0.2,0.9-0.2c6.7-0.6,13.4-1.2,20.1-1.8C60.2,49,63.9,48.7,67,47C67.3,46.6,66.6,46.2,66,46.1z"/>
</g>
</svg>
