<?xml version="1.0" encoding="utf-8"?>
<!-- Generator: Adobe Illustrator 18.0.0, SVG Export Plug-In . SVG Version: 6.00 Build 0)  -->
<!DOCTYPE svg PUBLIC "-//W3C//DTD SVG 1.1//EN" "http://www.w3.org/Graphics/SVG/1.1/DTD/svg11.dtd">
<svg version="1.1" id="Layer_1" xmlns="http://www.w3.org/2000/svg" xmlns:xlink="http://www.w3.org/1999/xlink" x="0px" y="0px"
	 viewBox="0 0 72 72" enable-background="new 0 0 72 72" xml:space="preserve">
<g>
	<path fill="#E77528" d="M47.7,9.5c-17,15-7.6,25.4-7.6,25.4c3.8-3.1,5.5-11.5,5.5-11.5c0.9,4.6-2.3,12.4-2.3,12.4
		C57.6,30.1,47.7,9.5,47.7,9.5z"/>
	<path fill="#E77528" d="M47.7,42.1c4.9,0,11.6-5.3,11.6-5.3c-2.2,4.1-9.7,8.1-9.7,8.1c14.6,4.6,20.2-17.5,20.2-17.5
		C47.1,28,47.7,42.1,47.7,42.1z"/>
	<path fill="#E77528" d="M53.3,25.6c0,0,3.4-3.3,5.9-3.7c0,0-4,2.6-4.8,5.2c0,0,7.3,2.8,11.5-9C66,18.1,53.4,17.1,53.3,25.6z"/>
	<path fill="#E77528" d="M53.5,15.1c0,0-0.4-4.7,0.8-6.9c0,0-0.4,4.7,1,7c0,0,6.7-3.9,0.2-14.7C55.6,0.5,47,9.7,53.5,15.1z"/>
	<path fill="#E77528" d="M26.4,12.4c0,0-3.6-3-4.3-5.5c0,0,3,3.7,5.6,4.3c0,0,2-7.5-10.1-10.6C17.7,0.5,18,13.1,26.4,12.4z"/>
	<path fill="#E77528" d="M14.7,27.1c-0.8-2.6-4.8-5.2-4.8-5.2c2.6,0.4,5.9,3.7,5.9,3.7c-0.1-8.5-12.7-7.5-12.7-7.5
		C7.5,29.9,14.7,27.1,14.7,27.1z"/>
	<path fill="#E77528" d="M34.2,20.1c0,0-0.8-6.2,0.7-9.3c0,0-0.3,6.3,1.8,9.2c0,0,8.7-5.6-0.6-19.5C36.1,0.5,25.2,13.2,34.2,20.1z"
		/>
	<path fill="#E77528" d="M30.5,36c0,0-5.3-6.6-5.7-11.3c0,0,4.1,7.5,8.6,9.5c0,0,6.1-12.7-14.5-22.2C18.9,12,15.3,34.5,30.5,36z"/>
	<path fill="#E77528" d="M2.2,27.4c0,0,5.6,22.1,20.2,17.5c0,0-7.5-3.9-9.7-8.1c0,0,6.7,5.3,11.6,5.3C24.3,42.1,24.9,28,2.2,27.4z"
		/>
	<path fill="#0DB89A" d="M42.8,56c0.3-1.5,0.4-3,0.4-4.5c0-1.8,0.6-3.8,1.3-5.6c0.4-1,1.1-1.9,1.5-3c-1.8,1.2-4.2,1.2-6.4,1.2
		c-0.7-2.3,1-4.7,0.7-7.1c-0.4,0.1-0.8,0.3-1.2,0.4c-0.2,0.9-0.8,1.7-1.6,2.1c-0.8,0.4-1.8,0.4-2.6,0.1c-0.5-0.2-1-0.6-1.5-0.9
		c-0.5-0.3-1.2-0.4-1.7-0.1c0.3,1.2,0.4,2.3,0.5,3.5c0,0.7,0,1.5-0.5,2c-0.4,0.3-0.9,0.4-1.4,0.4c-1.9,0-3.5-1.4-5.4-1.5
		c-0.1,0-0.2,0-0.2,0.1c-0.1,0.1-0.1,0.2-0.1,0.3c0.1,0.6,0.7,1,1.2,1.4c1.2,0.9,2.1,2.1,2.9,3.3c1.2,1.8,2.1,3.8,2.5,6
		c0.1,0.9,0.2,1.8,0.2,2.8c0,3.3-0.1,6.6-0.4,9.9c-0.1,1.4-0.3,2.6-0.8,3.9c3.4-0.5,6.8-0.4,10.1,0.3c0.6,0.1,1.2,0.3,1.8,0.4
		c1,0.2,2.1,0.2,3.1,0.1c-0.9-0.3-1.5-1.1-1.9-1.9c-0.4-0.8-0.5-1.8-0.6-2.7c-0.3-2.2-0.5-4.4-0.6-6.6c0-0.6,0-1.2,0.1-1.8
		C42.4,57.6,42.7,56.8,42.8,56z"/>
</g>
</svg>
