<?xml version="1.0" encoding="utf-8"?>
<!-- Generator: Adobe Illustrator 18.0.0, SVG Export Plug-In . SVG Version: 6.00 Build 0)  -->
<!DOCTYPE svg PUBLIC "-//W3C//DTD SVG 1.1//EN" "http://www.w3.org/Graphics/SVG/1.1/DTD/svg11.dtd">
<svg version="1.1" id="Layer_1" xmlns="http://www.w3.org/2000/svg" xmlns:xlink="http://www.w3.org/1999/xlink" x="0px" y="0px"
	 viewBox="0 0 72 72" enable-background="new 0 0 72 72" xml:space="preserve">
<g>
	<path fill="#E77528" d="M36.3,25.7C27.8,51.3,33,71.5,33,71.5l5.9,0C34.2,56.5,36.3,25.7,36.3,25.7z"/>
	<path fill="#06728D" d="M46,49.2c11-1.5,15.1-7.1,15.1-7.1c-7.6-0.4-13.2-3.9-17.2-7.8c7.8-1.7,10.6-7,10.6-7c-5.8-0.4-10-4-13-8.1
		c4.5-1.4,6.2-4.8,6.2-4.8c-8.2-0.7-11.6-12.1-12.1-14h-0.1c-0.5,1.9-3.9,13.3-12.1,14c0,0,1.8,3.7,6.7,4.9c-2.9,4-7.1,7.5-12.8,7.9
		c0,0,2.9,5.3,10.6,7c-4,3.9-9.6,7.3-17.2,7.8c0,0,4.1,5.6,15.1,7.1c-4.9,2.8-11.7,5.3-20.8,5.6c0,0,5,5.5,23.8,5.6
		c-0.6-9.6,1.7-25.7,8.2-41.3c0,0,0,23.6,2.5,41.3c21.3,0.6,27.3-5.6,27.3-5.6C57.7,54.5,50.9,52.1,46,49.2z"/>
</g>
</svg>
