<?xml version="1.0" encoding="utf-8"?>
<!-- Generator: Adobe Illustrator 18.0.0, SVG Export Plug-In . SVG Version: 6.00 Build 0)  -->
<!DOCTYPE svg PUBLIC "-//W3C//DTD SVG 1.1//EN" "http://www.w3.org/Graphics/SVG/1.1/DTD/svg11.dtd">
<svg version="1.1" id="Layer_1" xmlns="http://www.w3.org/2000/svg" xmlns:xlink="http://www.w3.org/1999/xlink" x="0px" y="0px"
	 viewBox="0 0 72 72" enable-background="new 0 0 72 72" xml:space="preserve">
<g>
	<path fill="#E77528" d="M58.2,34.5c-2,0.3-4.1,0.1-6.1,0.4c-2.3,0.3-4.6,1.1-6.2,2.7c-0.7,0.6-1.3,1.4-1.4,2.4
		c-0.1,0.5,0.1,1,0.5,1.4c0.2,0.2,0.5,0.3,0.7,0.4c0.4,0.2,0.8,0.3,1.2,0.4c-3.2,1.7-6.4,2.8-8.3,3.5c1.2-5.5,1.9-10.3,2.3-14.4
		c3.3-0.9,6.8-6.4,9-10.7c0.2,0.2,0.3,0.4,0.5,0.6c0.1,0.1,0.3,0.2,0.5,0.3c0.2,0.1,0.4,0,0.6,0c1.4-0.3,2.7-1.2,3.4-2.4
		c0.7-1.3,0.8-2.7,1.2-4.1c0.2-0.6,0.4-1.2,0.6-1.9c0.1-0.7,0.2-1.4,0.1-2.1c0-0.7-0.1-1.4-0.3-2.1c-0.3-1.2-1-2.4-0.8-3.7
		c-0.7,0.8-1.4,1.6-2.3,2.3c-1.6,1.3-3.4,2.3-5,3.6c-1.8,1.5-3.3,3.4-3.9,5.5c-0.2,0.9-0.3,1.9,0.1,2.7c0.2,0.4,0.6,0.8,1.1,0.9
		c0.3,0,0.5,0,0.8-0.1c0.9-0.2,1.8-0.4,2.7-0.7c0,0,0,0.1,0,0.1c-2.8,3.4-6.2,6.2-8.3,8c0.4-12.5-2.7-18.7-4.4-21.1
		c1.1-0.4,1.9-1.5,1.9-2.8c0-1.7-1.3-3-3-3c-1.7,0-3,1.3-3,3c0,1.7,1.3,3,3,3c0.2,0,0.4,0,0.6-0.1c0.3,1,0.6,2,0.9,3.1
		c-0.2-0.2-0.5-0.3-0.8-0.3c-0.7,0-1.2,0.6-1.2,1.2c0,0.7,0.6,1.2,1.2,1.2c0.5,0,0.9-0.3,1.1-0.7c1.2,6.8,0.6,15-0.4,21.6
		c-2.1-1.7-5.6-4.6-8.5-8.1c0.2-0.3,0.3-0.7,0.5-1c0.6,0.3,1.3,0.4,2,0.3c0.2,0,0.4-0.1,0.5-0.2c0.2-0.1,0.3-0.3,0.4-0.5
		c0-0.1,0.1-0.1,0.1-0.2c0,1,0.8,1.8,1.9,1.8c1,0,1.9-0.8,1.9-1.9c0-1-0.8-1.9-1.9-1.9c-0.6,0-1,0.2-1.4,0.6
		c0.2-0.9,0.2-1.9-0.1-2.7c-0.5-1.4-1.5-2.4-2.3-3.6c-0.3-0.5-0.6-1.1-1-1.7c-0.4-0.6-1-1-1.5-1.5c-0.5-0.4-1.1-0.9-1.7-1.2
		c-1.1-0.6-2.5-0.9-3.3-1.9c0.2,1,0.2,2.1,0.2,3.2c-0.1,2-0.6,4.1-0.6,6.1c-0.1,2.3,0.4,4.7,1.6,6.6c0.5,0.8,1.2,1.5,2.1,1.8
		c0.5,0.1,1,0.1,1.4-0.2c0.2-0.2,0.3-0.4,0.5-0.6c0.1-0.1,0.2-0.3,0.2-0.4c2.1,4.1,5.4,9.2,8.5,10.4c-1,5.6-2,9.4-2,9.4
		c-0.8,2.7-1.3,5.6-1.6,8.4c-1.8-1.5-4.3-3.7-6.7-6.2c0.1-0.1,0.1-0.2,0.2-0.4c0.6-1.3,0.7-2.9,0.1-4.2c-0.6-1.3-1.7-2.2-2.6-3.4
		c-0.4-0.5-0.7-1.1-1.2-1.6c-0.5-0.5-1-1-1.6-1.4c-0.6-0.4-1.2-0.8-1.8-1c-1-0.4-2.1-0.6-3-1.2c0-0.1,0-0.3,0-0.4
		c0-1.6-1.3-2.8-2.8-2.8c-1.6,0-2.8,1.3-2.8,2.8c0,1.6,1.3,2.8,2.8,2.8c1.1,0,2.1-0.7,2.6-1.6c0.1,0.7,0.2,1.3,0.2,2
		c0.1,2-0.2,4.1-0.1,6.2c0.1,2.3,0.8,4.6,2.2,6.4c0.6,0.7,1.3,1.4,2.2,1.6c0.5,0.1,1,0,1.4-0.3c0.2-0.2,0.3-0.4,0.4-0.7
		c0.4-0.8,0.7-1.7,1.1-2.6c0.5,0.2,0.9,0.2,1.4,0.2c2,3.7,4.9,8.1,7.7,9.6c-0.2,7.6,1.1,13.9,1.1,13.9h4.8
		c-2.3-5.1-1.1-17.7-0.5-22.7c2.9,0,6.9-2.9,10.2-5.7c0,0.5,0,0.9,0.1,1.4c0.1,0.2,0.1,0.4,0.3,0.5c0.1,0.2,0.4,0.2,0.6,0.3
		c1.4,0.5,3,0.4,4.2-0.2c1.3-0.7,2.1-1.9,3.2-2.8c0.5-0.4,1-0.8,1.5-1.3c0.5-0.5,0.9-1.1,1.2-1.7c0.3-0.6,0.7-1.2,0.9-1.9
		c0.4-1.2,0.4-2.6,1.3-3.6C60.3,34.1,59.3,34.3,58.2,34.5z"/>
	<path fill="#294E58" d="M58.1,23.2c0,0.3,0.1,0.6,0.3,0.8c0.2,0.2,0.4,0.2,0.5,0.4c0.2,0.1,0.3,0.3,0.4,0.5
		c0.4-0.1,0.8-0.2,1.2-0.3c0.1,0,0.2,0,0.2-0.1c0.1-0.1,0.1-0.2,0.1-0.3c0-0.3,0-0.6-0.1-0.8c-0.1-0.1-0.1-0.2-0.2-0.3
		c-0.3-0.4-0.2-0.9-0.1-1.3c-0.1,0.3-0.3,0.5-0.6,0.6c-0.4,0.1-0.8,0.1-1.1,0.2C58.3,22.7,58.1,22.9,58.1,23.2z"/>
	<path fill="#294E58" d="M19.5,29.8c-0.4,0.1-0.8,0.1-1.1,0.2c-0.3,0.1-0.4,0.4-0.5,0.7c0,0.3,0.1,0.6,0.3,0.8
		c0.2,0.2,0.4,0.2,0.5,0.4c0.2,0.1,0.3,0.3,0.4,0.5c0.4-0.1,0.8-0.2,1.2-0.3c0.1,0,0.2,0,0.2-0.1c0.1-0.1,0.1-0.2,0.1-0.3
		c0-0.3,0-0.6-0.1-0.8c-0.1-0.1-0.1-0.2-0.2-0.3c-0.3-0.4-0.2-0.9-0.1-1.3C20,29.5,19.8,29.7,19.5,29.8z"/>
	<path fill="#294E58" d="M18,21.4c0.2,0.1,0.3,0.3,0.4,0.5c0.4-0.1,0.8-0.2,1.2-0.3c0.1,0,0.2,0,0.2-0.1c0.1-0.1,0.1-0.2,0.1-0.3
		c0-0.3,0-0.6-0.1-0.8c-0.1-0.1-0.1-0.2-0.2-0.3c-0.3-0.4-0.2-0.9-0.1-1.3c-0.1,0.3-0.3,0.5-0.6,0.6c-0.4,0.1-0.8,0.1-1.1,0.2
		c-0.3,0.1-0.4,0.4-0.5,0.7c0,0.3,0.1,0.6,0.3,0.8C17.6,21.2,17.8,21.3,18,21.4z"/>
	<path fill="#294E58" d="M27.1,35.3c-0.4,0.1-0.8,0.1-1.1,0.2c-0.3,0.1-0.4,0.4-0.5,0.7s0.1,0.6,0.3,0.8c0.2,0.2,0.4,0.2,0.5,0.4
		c0.2,0.1,0.3,0.3,0.4,0.5c0.4-0.1,0.8-0.2,1.2-0.3c0.1,0,0.2,0,0.2-0.1c0.1-0.1,0.1-0.2,0.1-0.3c0-0.3,0-0.6-0.1-0.8
		c-0.1-0.1-0.1-0.2-0.2-0.3c-0.3-0.4-0.2-0.9-0.1-1.3C27.6,34.9,27.4,35.2,27.1,35.3z"/>
	<circle fill="#294E58" cx="30.4" cy="44.8" r="1.6"/>
	<circle fill="#294E58" cx="49.2" cy="28.3" r="2.5"/>
	<circle fill="#294E58" cx="58.2" cy="10.4" r="1.3"/>
	<circle fill="#294E58" cx="47.4" cy="54.4" r="1.8"/>
	<circle fill="#294E58" cx="42.5" cy="39" r="1.4"/>
	<circle fill="#294E58" cx="32" cy="37.6" r="1.4"/>
	<circle fill="#294E58" cx="43.2" cy="10.5" r="1.2"/>
	<circle fill="#294E58" cx="17.9" cy="25.8" r="1.9"/>
	<circle fill="#294E58" cx="12.5" cy="17.7" r="1.8"/>
	<circle fill="#294E58" cx="46.5" cy="2.6" r="2.1"/>
	<circle fill="#294E58" cx="51.2" cy="49.8" r="1.9"/>
</g>
</svg>
