<?xml version="1.0" encoding="utf-8"?>
<!-- Generator: Adobe Illustrator 18.0.0, SVG Export Plug-In . SVG Version: 6.00 Build 0)  -->
<!DOCTYPE svg PUBLIC "-//W3C//DTD SVG 1.1//EN" "http://www.w3.org/Graphics/SVG/1.1/DTD/svg11.dtd">
<svg version="1.1" id="Layer_1" xmlns="http://www.w3.org/2000/svg" xmlns:xlink="http://www.w3.org/1999/xlink" x="0px" y="0px"
	 viewBox="0 0 72 72" enable-background="new 0 0 72 72" xml:space="preserve">
<g>
	<path fill="#E77528" d="M49.7,33.7c-2.1,0-3.9,1.7-3.9,3.9c0,0.8,0.2,1.6,0.7,2.2c-4.4,2.9-9.6,4.9-12.4,5.9
		c1.2-5.5,1.9-10.3,2.3-14.4c4.2-1.1,8.7-9.7,10.5-13.7c0.5,0.4,1.1,0.6,1.7,0.6c1.6,0,2.8-1.3,2.8-2.8s-1.3-2.8-2.8-2.8
		c-0.7,0-1.3,0.3-1.8,0.7c0.4-0.6,0.6-1.4,0.6-2.2c0-2.4-1.9-4.3-4.3-4.3c-2.4,0-4.3,1.9-4.3,4.3c0,2.4,1.9,4.3,4.3,4.3
		c1.2,0,2.3-0.5,3-1.2c-0.2,0.4-0.3,0.8-0.3,1.2c0,0.8,0.3,1.5,0.9,2c-3,4.3-7.4,8.1-10,10.2C37.1,14.8,34,8.7,32.3,6.3
		c1.1-0.4,1.9-1.5,1.9-2.8c0-1.7-1.3-3-3-3c-1.7,0-3,1.3-3,3c0,1.7,1.3,3,3,3c0.2,0,0.4,0,0.6-0.1c2.7,7.5,2,18,0.8,26.2
		c-2.4-1.9-6.4-5.3-9.5-9.4c0.1,0,0.2,0,0.3,0c2.2,0,4-1.8,4-4c0-2.2-1.8-4-4-4c-2.2,0-4,1.8-4,4c0,1.8,1.2,3.4,2.9,3.8
		c2,4.1,5.9,11.3,9.7,12.8c-1,5.6-2,9.4-2,9.4c-0.8,2.7-1.3,5.6-1.6,8.4c-2.4-2-6.1-5.2-8.9-8.9c0.9-0.9,1.5-2.2,1.5-3.6
		c0-2.8-2.3-5.1-5.1-5.1c-2.8,0-5.1,2.3-5.1,5.1c0,2.8,2.3,5.1,5.1,5.1c1.2,0,2.3-0.4,3.2-1.1c1.9,4,5.5,10.5,9.1,12.3
		c-0.2,7.6,1.1,13.9,1.1,13.9h4.8c-2.3-5.1-1.1-17.7-0.5-22.7c4,0,10-5.4,13.3-8.7c0.7,0.8,1.7,1.2,2.8,1.2c2.1,0,3.9-1.7,3.9-3.9
		C53.5,35.4,51.8,33.7,49.7,33.7z"/>
	<circle fill="#0DB89A" cx="16.1" cy="11.2" r="3.3"/>
	<circle fill="#0DB89A" cx="13.8" cy="23.3" r="3"/>
	<circle fill="#0DB89A" cx="9.1" cy="34.1" r="2.8"/>
	<circle fill="#0DB89A" cx="19.7" cy="31.2" r="2.9"/>
	<circle fill="#0DB89A" cx="26" cy="44.8" r="1.6"/>
	<circle fill="#0DB89A" cx="43.7" cy="33.8" r="2.5"/>
	<circle fill="#0DB89A" cx="55" cy="24.8" r="2.7"/>
	<circle fill="#0DB89A" cx="52.8" cy="7.8" r="1.3"/>
	<circle fill="#0DB89A" cx="60.7" cy="20" r="2.1"/>
	<circle fill="#0DB89A" cx="62.8" cy="39.2" r="3"/>
	<circle fill="#0DB89A" cx="55.2" cy="51.3" r="2.4"/>
	<circle fill="#0DB89A" cx="43" cy="54.4" r="1.8"/>
	<circle fill="#0DB89A" cx="38.1" cy="39" r="1.4"/>
	<circle fill="#0DB89A" cx="40" cy="18.1" r="1.2"/>
	<circle fill="#0DB89A" cx="29.4" cy="22.9" r="1.9"/>
	<circle fill="#0DB89A" cx="24.4" cy="7.7" r="4.2"/>
	<circle fill="#0DB89A" cx="8.1" cy="17.7" r="1.8"/>
	<circle fill="#0DB89A" cx="42.1" cy="2.6" r="2.1"/>
	<circle fill="#0DB89A" cx="60.8" cy="32.2" r="3.1"/>
	<circle fill="#0DB89A" cx="46.7" cy="49.8" r="1.9"/>
</g>
</svg>
