<?xml version="1.0" encoding="utf-8"?>
<!-- Generator: Adobe Illustrator 18.0.0, SVG Export Plug-In . SVG Version: 6.00 Build 0)  -->
<!DOCTYPE svg PUBLIC "-//W3C//DTD SVG 1.1//EN" "http://www.w3.org/Graphics/SVG/1.1/DTD/svg11.dtd">
<svg version="1.1" id="Layer_1" xmlns="http://www.w3.org/2000/svg" xmlns:xlink="http://www.w3.org/1999/xlink" x="0px" y="0px"
	 viewBox="0 0 72 72" enable-background="new 0 0 72 72" xml:space="preserve">
<g>
	<path fill="#E77528" d="M36,5.2c0.1,0,0.1-0.1,0.2-0.1C36.2,5,36.2,5,36.3,4.9c0.1-0.5,0-1.1-0.3-1.6c-0.3-0.5-0.9-0.8-1.3-1.1
		C34.4,2,34.3,1.8,34,1.6c-0.2-0.2-0.5-0.3-0.8-0.4C33,1.1,32.7,1,32.5,0.9c-0.5-0.1-1.1-0.1-1.5-0.4c0.2,0.4,0.3,0.8,0.4,1.2
		c0.2,0.8,0.2,1.6,0.5,2.3c0.2,0.9,0.7,1.7,1.4,2.3c0.3,0.2,0.7,0.5,1,0.5c0.2,0,0.4,0,0.5-0.2c0.1-0.1,0.1-0.2,0.1-0.3
		c0.1-0.3,0.2-0.7,0.2-1C35.4,5.3,35.7,5.3,36,5.2z"/>
	<path fill="#E77528" d="M49.1,32.5c0-0.1,0-0.2,0-0.3c0-0.2-0.3-0.3-0.5-0.3c-0.2,0-0.4,0.1-0.5,0.3c0,0-0.1,0.1-0.1,0.1
		c-0.1,0-0.2-0.1-0.3-0.2c-0.1-0.1-0.1-0.2-0.2-0.3c-0.1-0.2-0.2-0.3-0.4-0.3c-0.2,0-0.4,0.1-0.4,0.3c0,0.1,0,0.1-0.1,0.1
		c0,0-0.1,0-0.2,0c-0.2,0-0.5,0.1-0.6,0.3c-0.1,0.2-0.1,0.5,0.1,0.6c0.1,0.1,0.3,0.1,0.3,0.3c0,0.1-0.1,0.2-0.2,0.2
		c-0.1,0-0.2,0-0.3,0.1c-0.2,0.1-0.3,0.4-0.2,0.6c0.1,0.2,0.2,0.4,0.4,0.6c0,0,0.1,0.1,0.1,0.1c0,0,0,0.1,0,0.1
		c0,0.3,0.1,0.7,0.4,0.7c0.3,0,0.5-0.4,0.8-0.6c0.1,0.4,0.6,0.8,1,0.8c0.2,0,0.2-0.5,0.4-0.7c0.2-0.2,0.6,0,0.6-0.3
		c0.1-0.3-0.3-0.6-0.4-0.8c0.3-0.1,0.5-0.3,0.6-0.5c0.1-0.3,0.1-0.6-0.1-0.8C49.1,32.7,49.1,32.6,49.1,32.5z"/>
	<path fill="#E77528" d="M48.6,12.9c-0.1-0.1-0.1-0.2-0.2-0.3c-0.3-0.4-0.2-0.9-0.2-1.4c-0.1,0.3-0.3,0.5-0.6,0.6
		c-0.4,0.1-0.8,0.1-1.2,0.2c-0.3,0.1-0.4,0.4-0.5,0.7c0,0.3,0.1,0.6,0.3,0.8c0.2,0.2,0.4,0.2,0.6,0.4c0.2,0.1,0.3,0.3,0.4,0.6
		c0.4-0.1,0.8-0.2,1.2-0.3c0.1,0,0.2-0.1,0.2-0.1c0.1-0.1,0.1-0.2,0.1-0.4C48.8,13.5,48.8,13.2,48.6,12.9z"/>
	<path fill="#E77528" d="M28.4,44.8c-0.1-0.1-0.1-0.2-0.2-0.3c-0.3-0.4-0.2-0.9-0.2-1.4c-0.1,0.3-0.3,0.5-0.6,0.6
		c-0.4,0.1-0.8,0.1-1.2,0.2c-0.3,0.1-0.4,0.4-0.5,0.7c0,0.3,0.1,0.6,0.3,0.8c0.2,0.2,0.4,0.2,0.6,0.4c0.2,0.1,0.3,0.3,0.4,0.6
		c0.4-0.1,0.8-0.2,1.2-0.3c0.1,0,0.2-0.1,0.2-0.1c0.1-0.1,0.1-0.2,0.1-0.4C28.5,45.4,28.5,45.1,28.4,44.8z"/>
	<path fill="#E77528" d="M45.7,51.5c-0.1-0.1-0.1-0.2-0.2-0.3c-0.3-0.4-0.2-0.9-0.2-1.4c-0.1,0.3-0.3,0.5-0.6,0.6
		c-0.4,0.1-0.8,0.1-1.2,0.2c-0.3,0.1-0.4,0.4-0.5,0.7c0,0.3,0.1,0.6,0.3,0.8c0.2,0.2,0.4,0.2,0.6,0.4c0.2,0.1,0.3,0.3,0.4,0.6
		c0.4-0.1,0.8-0.2,1.2-0.3c0.1,0,0.2-0.1,0.2-0.1c0.1-0.1,0.1-0.2,0.1-0.4C45.8,52.1,45.8,51.7,45.7,51.5z"/>
	<path fill="#E77528" d="M32.1,9.6C32,9.5,32,9.4,31.9,9.4C31.6,9,31.7,8.5,31.7,8c-0.1,0.3-0.3,0.5-0.6,0.6
		c-0.4,0.1-0.8,0.1-1.2,0.2c-0.3,0.1-0.4,0.4-0.5,0.7c0,0.3,0.1,0.6,0.3,0.8c0.2,0.2,0.4,0.2,0.6,0.4c0.2,0.1,0.3,0.3,0.4,0.6
		c0.4-0.1,0.8-0.2,1.2-0.3c0.1,0,0.2-0.1,0.2-0.1c0.1-0.1,0.1-0.2,0.1-0.4C32.2,10.2,32.3,9.9,32.1,9.6z"/>
	<path fill="#E77528" d="M45.4,24.4c-0.1-0.2-0.2-0.4-0.3-0.5c-0.1-0.2-0.1-0.4,0-0.6c0.1-0.2,0.4-0.3,0.7-0.3c0.3,0,0.7,0,1,0.2
		c0.2,0.1,0.4,0.2,0.6,0.2c0.2,0,0.4,0,0.5-0.2c-0.4-0.2-0.8-0.5-1.2-0.8c-0.2-0.2-0.4-0.4-0.3-0.6c0-0.2,0.3-0.3,0.5-0.4
		c0.6-0.3,1.2-0.5,1.7-0.8c0.2-0.1,0.5-0.2,0.7-0.3c0.6-0.1,1.2,0.2,1.5,0.8c0.3,0.6,0.1,1.4,0.2,2.1c0.1,0.3,0.2,0.7,0.3,1
		c0.1,0.3,0.1,0.7-0.2,1c-0.1,0.1-0.2,0.2-0.3,0.3c-0.6,0.4-1.2,0.9-1.9,1.3c-0.3,0.2-0.6,0.5-0.9,0.8c-0.1,0.2-0.3,0.4-0.3,0.6
		c0,0,0,0.1-0.1,0.1c0,0-0.1,0-0.1,0c-0.3-0.1-0.6-0.5-0.7-0.8c-0.2-0.3-0.4-0.6-0.5-1c-0.2-0.3-0.3-0.6-0.4-0.9
		C45.7,25.2,45.6,24.8,45.4,24.4z"/>
	<path fill="#E77528" d="M23.6,48.7c0.2,0,0.4-0.1,0.6-0.1c0.2,0,0.4,0.1,0.5,0.2c0.1,0.2,0.1,0.5,0,0.7c-0.1,0.3-0.3,0.6-0.5,0.9
		c-0.1,0.1-0.3,0.3-0.4,0.5c-0.1,0.2-0.1,0.4,0,0.6c0.4-0.3,0.8-0.6,1.2-0.8c0.2-0.1,0.5-0.2,0.7-0.1c0.2,0.1,0.2,0.4,0.2,0.6
		c0,0.6,0.1,1.3,0.1,1.9c0,0.3,0,0.5,0,0.8c-0.1,0.6-0.7,1-1.3,1.1c-0.7,0-1.3-0.5-2-0.6c-0.3-0.1-0.7-0.1-1-0.1
		c-0.3-0.1-0.7-0.2-0.9-0.5c-0.1-0.1-0.1-0.3-0.1-0.4c-0.1-0.7-0.3-1.5-0.5-2.2c-0.1-0.4-0.2-0.8-0.4-1.1c-0.1-0.2-0.3-0.4-0.4-0.5
		c0,0-0.1-0.1-0.1-0.1c0,0,0-0.1,0.1-0.1c0.2-0.3,0.6-0.3,1-0.4c0.4,0,0.7-0.1,1.1-0.1c0.3,0,0.7-0.1,1-0.1
		C22.7,48.6,23.1,48.7,23.6,48.7z"/>
	<path fill="#E77528" d="M46.2,42.1c0-0.2,0.1-0.4,0.1-0.6c0.1-0.2,0.2-0.4,0.4-0.4c0.2-0.1,0.5,0.1,0.7,0.2
		c0.3,0.2,0.5,0.5,0.7,0.8c0.1,0.2,0.2,0.4,0.3,0.5c0.1,0.1,0.4,0.2,0.5,0.2c-0.2-0.4-0.3-0.9-0.4-1.4c0-0.2,0-0.5,0.1-0.7
		c0.2-0.1,0.4-0.1,0.6,0c0.6,0.2,1.2,0.3,1.9,0.5c0.3,0.1,0.5,0.1,0.7,0.3c0.5,0.3,0.8,1,0.6,1.5c-0.2,0.7-0.8,1.1-1.2,1.8
		c-0.2,0.3-0.3,0.7-0.4,1c-0.2,0.3-0.4,0.6-0.8,0.7c-0.1,0-0.3,0-0.4,0c-0.8-0.1-1.5-0.1-2.3-0.2c-0.4,0-0.8,0-1.2,0
		c-0.2,0-0.5,0.1-0.6,0.2c0,0-0.1,0.1-0.1,0c0,0-0.1,0-0.1-0.1c-0.2-0.3-0.1-0.7-0.1-1.1c0.1-0.4,0.1-0.7,0.2-1.1
		c0.1-0.3,0.1-0.7,0.2-1C45.9,42.9,46.1,42.5,46.2,42.1z"/>
	<path fill="#E77528" d="M24.8,22c0.2,0,0.4-0.1,0.6,0c0.2,0,0.4,0.1,0.5,0.3c0.1,0.2,0.1,0.5,0,0.7c-0.1,0.3-0.3,0.6-0.6,0.9
		c-0.1,0.1-0.3,0.3-0.4,0.4c-0.1,0.2-0.1,0.4,0,0.6c0.4-0.3,0.8-0.5,1.2-0.7c0.2-0.1,0.5-0.2,0.7,0c0.2,0.1,0.2,0.4,0.2,0.6
		c0,0.6,0,1.3,0,1.9c0,0.3,0,0.5-0.1,0.8c-0.2,0.6-0.7,1-1.3,1c-0.7,0-1.3-0.5-2-0.7c-0.3-0.1-0.7-0.1-1-0.2
		c-0.3-0.1-0.7-0.2-0.8-0.6c-0.1-0.1-0.1-0.3-0.1-0.4c-0.1-0.8-0.3-1.5-0.4-2.2c-0.1-0.4-0.2-0.8-0.3-1.1c-0.1-0.2-0.2-0.4-0.4-0.6
		c0,0-0.1-0.1-0.1-0.1c0,0,0-0.1,0.1-0.1c0.2-0.3,0.6-0.3,1-0.4c0.4,0,0.7-0.1,1.1-0.1c0.3,0,0.7-0.1,1,0C24,21.9,24.4,22,24.8,22z"
		/>
	<path fill="#E77528" d="M41.2,56.5c0.3,0,0.7,0,1,0c0.2,0,0.3,0,0.4-0.1c0.1-0.1,0.2-0.3,0.3-0.4c0.1-0.2,0.2-0.5,0.2-0.7
		c0-0.1,0.1-0.2,0.1-0.4c0-0.3-0.4-0.5-0.6-0.8c-0.2-0.3,0-0.8,0-1.1c0.1-0.4-0.1-0.9-0.5-0.9c-0.3-0.1-0.8,0.2-1,0
		c-0.2-0.3,0.1-0.7-0.1-0.9c-0.1-0.1-0.3,0-0.5,0c-0.7,0-1-1-1.6-1.1c0,0.6,0,1.3,0,1.9c0,0.2,0,0.5-0.2,0.7
		c-0.1,0.1-0.3,0.2-0.4,0.3c-0.1,0.2,0.1,0.4,0.3,0.5s0.4,0.2,0.5,0.4c0.1,0.2,0,0.4,0,0.7c0,0.4,0.5,0.7,1,0.7c0.1,0,0.2,0,0.3,0.1
		c0,0,0.1,0.1,0.1,0.2c0,0.4-0.1,0.9,0.2,1.2C40.8,56.5,41,56.5,41.2,56.5z"/>
	<path fill="#E77528" d="M50.6,32.5c0.5,0.4,1.3,0.6,1.8,0.2c0.3-0.2,0.5-0.7,0.5-1.1c0-0.4-0.1-0.8-0.3-1.2c-0.3-0.8-0.7-1.4-1.3-2
		c-0.1,0.8-0.9,1.2-1.2,1.9C49.8,31.1,50,32,50.6,32.5z"/>
	<path fill="#E77528" d="M20.3,44.4c0.5,0.4,1.3,0.6,1.8,0.2c0.3-0.2,0.5-0.7,0.5-1.1c0-0.4-0.1-0.8-0.3-1.2c-0.3-0.8-0.7-1.4-1.3-2
		c-0.1,0.8-0.9,1.2-1.2,1.9C19.5,43,19.7,43.9,20.3,44.4z"/>
	<path fill="#E77528" d="M32.3,17.1c0.5,0.4,1.3,0.6,1.8,0.2c0.3-0.2,0.5-0.7,0.5-1.1c0-0.4-0.1-0.8-0.3-1.2c-0.3-0.8-0.7-1.4-1.3-2
		c-0.1,0.8-0.9,1.2-1.2,1.9C31.5,15.7,31.7,16.6,32.3,17.1z"/>
	<path fill="#E77528" d="M19.7,36.5c0.1,0.1,0.2,0.2,0.3,0.2c0.3,0.1,0.7,0.1,1,0c0.1-0.1,0.2-0.1,0.3-0.2c0.2-0.2,0.1-0.7,0.4-0.8
		c0,0,0.1,0,0.2,0c0.1,0,0.1,0.2,0.1,0.3c0,0.5-0.1,0.9,0,1.4c0.1,0.5,0.6,0.9,1,0.7c0.2-0.1,0.3-0.2,0.4-0.3
		c0.1-0.1,0.2-0.2,0.2-0.3c0.1-0.3-0.3-0.6-0.4-0.9c-0.2-0.2-0.2-0.5-0.2-0.8c0.2,0,0.3,0.1,0.4,0.3c0.2,0.2,0.5,0.4,0.8,0.4
		c0.3,0.1,0.7,0,0.9-0.2c0.3-0.2,0.4-0.6,0.3-0.9c-0.1-0.4-0.7-0.6-1.2-0.6c-0.5,0-0.9,0.1-1.4,0c0.7-0.3,1.2-0.8,1.5-1.5
		c0.1-0.4,0.2-0.9-0.2-1.1c-0.2-0.1-0.5,0-0.8,0.1c-0.2,0.1-0.3,0.2-0.4,0.4c-0.3,0.4-0.2,1-0.4,1.4c-0.1,0.2-0.4,0.3-0.5,0.1
		c0-0.1,0-0.1,0-0.2c0-0.2-0.1-0.4-0.2-0.6c-0.1-0.3-0.3-0.6-0.6-0.8c-0.3-0.2-0.7-0.2-0.9,0c-0.2,0.2-0.3,0.6-0.2,0.9
		c0.1,0.3,0.4,0.5,0.6,0.7c0.3,0.2,0.6,0.4,0.9,0.4c0.1,0.1,0,0.4-0.2,0.4c-0.2,0.1-0.3,0.1-0.5,0.1c-0.3,0-0.6,0.1-0.9,0.3
		C20.1,35.5,19.5,36.2,19.7,36.5z"/>
	<path fill="#E77528" d="M39.3,9.7c0.1,0.1,0.2,0.2,0.3,0.2c0.3,0.1,0.7,0.1,1,0c0.1-0.1,0.2-0.1,0.3-0.2C41.1,9.4,41,9,41.3,8.9
		c0,0,0.1,0,0.2,0c0.1,0,0.1,0.2,0.1,0.3c0,0.5-0.1,0.9,0,1.4c0.1,0.5,0.6,0.9,1,0.7c0.2-0.1,0.3-0.2,0.4-0.3
		c0.1-0.1,0.2-0.2,0.2-0.3c0.1-0.3-0.3-0.6-0.4-0.9c-0.2-0.2-0.2-0.5-0.2-0.8c0.2,0,0.3,0.1,0.4,0.3c0.2,0.2,0.5,0.4,0.8,0.4
		c0.3,0.1,0.7,0,0.9-0.2C45,9.2,45.1,8.9,45,8.5c-0.1-0.4-0.7-0.6-1.2-0.6c-0.5,0-0.9,0.1-1.4,0c0.7-0.3,1.2-0.8,1.5-1.5
		c0.1-0.4,0.2-0.9-0.2-1.1c-0.2-0.1-0.5,0-0.8,0.1c-0.2,0.1-0.3,0.2-0.4,0.4c-0.3,0.4-0.2,1-0.4,1.4c-0.1,0.2-0.4,0.3-0.5,0.1
		c0-0.1,0-0.1,0-0.2c0-0.2-0.1-0.4-0.2-0.6c-0.1-0.3-0.3-0.6-0.6-0.8c-0.3-0.2-0.7-0.2-0.9,0c-0.2,0.2-0.3,0.6-0.2,0.9
		c0.1,0.3,0.4,0.5,0.6,0.7c0.3,0.2,0.6,0.4,0.9,0.4c0.1,0.1,0,0.4-0.2,0.4c-0.2,0.1-0.3,0.1-0.5,0.1c-0.3,0-0.6,0.1-0.9,0.3
		C39.7,8.6,39.1,9.4,39.3,9.7z"/>
	<path fill="#E77528" d="M42.5,32.6c-0.2,0.1-0.4-0.1-0.6,0.1c-0.1,0.1-0.1,0.1-0.1,0.2c-0.1,0.2-0.2,0.4-0.4,0.5
		c-0.1,0.1-0.2,0.2-0.3,0.3c0,0.1,0,0.3,0,0.4c0,0,0,0,0,0.1c0,0,0,0,0,0c0.2,0.1,0.4,0,0.5-0.2s0.2-0.4,0.2-0.7c0,0.8,0,1.7,0,2.5
		c0,0.2,0,0.4,0.1,0.4c0.1,0,0.2,0,0.2-0.1c0.1-0.1,0.1-0.2,0.1-0.3c0.1-0.6,0.1-1.2,0.2-1.9c0.2,0.5,0.3,0.9,0.6,1.3
		c0.3,0.4,0.6,0.7,1,0.8c0-0.2-0.1-0.5-0.1-0.7c-0.1-0.6-0.3-1.1-0.4-1.7c0.4,0.5,1,0.8,1.5,0.9c0-0.1,0-0.3-0.1-0.4
		c-0.1-0.1-0.2-0.1-0.3-0.2c-0.5-0.3-0.9-0.7-1.1-1.2c0.2-0.1,0.3,0,0.5,0c0.2,0,0.3,0,0.5-0.1s0.3-0.3,0.3-0.5c0-0.1,0-0.1-0.1-0.1
		c0,0-0.1,0-0.1,0c-0.3,0-0.5,0.1-0.8,0.1c-0.3,0-0.5,0-0.7-0.2c-0.1-0.1-0.2-0.2-0.3-0.2c-0.1,0-0.1,0.2-0.2,0.3
		C42.6,32.2,42.5,32.4,42.5,32.6z"/>
	<path fill="#E77528" d="M28.9,37.3c-0.2,0.1-0.4-0.1-0.6,0.1c-0.1,0.1-0.1,0.1-0.1,0.2c-0.1,0.2-0.2,0.4-0.4,0.5
		c-0.1,0.1-0.2,0.2-0.3,0.3c0,0.1,0,0.3,0,0.4c0,0,0,0,0,0.1c0,0,0,0,0,0c0.2,0.1,0.4,0,0.5-0.2c0.1-0.2,0.2-0.4,0.2-0.7
		c0,0.8,0,1.7,0,2.5c0,0.2,0,0.4,0.1,0.4c0.1,0,0.2,0,0.2-0.1c0.1-0.1,0.1-0.2,0.1-0.3c0.1-0.6,0.1-1.2,0.2-1.9
		c0.2,0.5,0.3,0.9,0.6,1.3s0.6,0.7,1,0.8c0-0.2-0.1-0.5-0.1-0.7c-0.1-0.6-0.3-1.1-0.4-1.7c0.4,0.5,1,0.8,1.5,0.9
		c0-0.1,0-0.3-0.1-0.4c-0.1-0.1-0.2-0.1-0.3-0.2c-0.5-0.3-0.9-0.7-1.1-1.2c0.2-0.1,0.3,0,0.5,0c0.2,0,0.3,0,0.5-0.1
		c0.1-0.1,0.3-0.3,0.3-0.5c0-0.1,0-0.1-0.1-0.1c0,0-0.1,0-0.1,0c-0.3,0-0.5,0.1-0.8,0.1c-0.3,0-0.5,0-0.7-0.2
		c-0.1-0.1-0.2-0.2-0.3-0.2c-0.1,0-0.1,0.2-0.2,0.3C29,36.8,28.9,37.1,28.9,37.3z"/>
	<path fill="#E77528" d="M32.6,21.2c-0.2,0.1-0.4-0.1-0.6,0.1c-0.1,0.1-0.1,0.1-0.1,0.2c-0.1,0.2-0.2,0.4-0.4,0.5
		c-0.1,0.1-0.2,0.2-0.3,0.3c0,0.1,0,0.3,0,0.4c0,0,0,0,0,0.1c0,0,0,0,0,0c0.2,0.1,0.4,0,0.5-0.2c0.1-0.2,0.2-0.4,0.2-0.7
		c0,0.8,0,1.7,0,2.5c0,0.2,0,0.4,0.1,0.4c0.1,0,0.2,0,0.2-0.1c0.1-0.1,0.1-0.2,0.1-0.3c0.1-0.6,0.1-1.2,0.2-1.9
		c0.2,0.5,0.3,0.9,0.6,1.3c0.3,0.4,0.6,0.7,1,0.8c0-0.2-0.1-0.5-0.1-0.7c-0.1-0.6-0.3-1.1-0.4-1.7c0.4,0.5,1,0.8,1.5,0.9
		c0-0.1,0-0.3-0.1-0.4c-0.1-0.1-0.2-0.1-0.3-0.2c-0.5-0.3-0.9-0.7-1.1-1.2c0.2-0.1,0.3,0,0.5,0c0.2,0,0.3,0,0.5-0.1
		c0.1-0.1,0.3-0.3,0.3-0.5c0-0.1,0-0.1-0.1-0.1c0,0-0.1,0-0.1,0c-0.3,0-0.5,0.1-0.8,0.1c-0.3,0-0.5,0-0.7-0.2
		c-0.1-0.1-0.2-0.2-0.3-0.2c-0.1,0-0.1,0.2-0.2,0.3C32.7,20.8,32.6,21,32.6,21.2z"/>
	<path fill="#E77528" d="M42,18c-0.1,0.2-0.4,0.2-0.4,0.4c0,0.1,0,0.2,0,0.3c0,0.2,0,0.5,0,0.7c0,0.2-0.1,0.3,0,0.5
		c0,0.1,0.1,0.2,0.2,0.3c0,0,0,0,0.1,0c0,0,0,0,0.1,0c0.2,0,0.3-0.3,0.3-0.5c0-0.2-0.1-0.5-0.2-0.7c0.5,0.7,1,1.3,1.5,2
		c0.1,0.1,0.2,0.3,0.4,0.3c0.1,0,0.1-0.1,0.1-0.2c0-0.1-0.1-0.2-0.1-0.3c-0.3-0.5-0.6-1.1-1-1.6c0.4,0.3,0.8,0.5,1.2,0.7
		c0.4,0.2,0.9,0.2,1.3,0c-0.1-0.2-0.3-0.4-0.5-0.5c-0.4-0.4-0.9-0.7-1.3-1.1c0.6,0.1,1.2,0,1.8-0.2c0-0.1-0.2-0.2-0.3-0.2
		c-0.1,0-0.2,0-0.3,0c-0.5,0-1.1-0.1-1.7-0.3c0.1-0.1,0.2-0.2,0.4-0.3c0.1-0.1,0.3-0.2,0.3-0.3c0.1-0.1,0.1-0.4-0.1-0.5
		c0,0-0.1-0.1-0.1-0.1c0,0-0.1,0-0.1,0c-0.2,0.1-0.4,0.4-0.6,0.5S42.3,17.1,42,17c-0.1,0-0.3-0.1-0.3,0c-0.1,0.1,0,0.2,0,0.3
		C41.8,17.6,41.9,17.8,42,18z"/>
	<path fill="#E77528" d="M28.5,16.7c-0.1-0.2,0.1-0.4-0.1-0.6c-0.1-0.1-0.1-0.1-0.2-0.1c-0.2-0.1-0.4-0.2-0.5-0.4
		c-0.1-0.1-0.2-0.2-0.3-0.3c-0.1,0-0.3,0-0.4,0c0,0,0,0-0.1,0c0,0,0,0,0,0c-0.1,0.2,0,0.4,0.2,0.5c0.2,0.1,0.4,0.2,0.7,0.2
		c-0.8,0-1.7,0-2.5,0c-0.2,0-0.4,0-0.4,0.1c0,0.1,0,0.2,0.1,0.2c0.1,0.1,0.2,0.1,0.3,0.1c0.6,0.1,1.2,0.1,1.9,0.2
		c-0.5,0.2-0.9,0.3-1.3,0.6c-0.4,0.3-0.7,0.6-0.8,1c0.2,0,0.5-0.1,0.7-0.1c0.6-0.1,1.1-0.3,1.7-0.4c-0.5,0.4-0.8,1-0.9,1.5
		c0.1,0,0.3,0,0.4-0.1c0.1-0.1,0.2-0.2,0.2-0.3c0.3-0.5,0.7-0.9,1.3-1.1c0.1,0.2,0,0.3,0,0.5c0,0.2,0,0.3,0.1,0.5s0.3,0.3,0.5,0.3
		c0.1,0,0.1,0,0.1-0.1c0,0,0-0.1,0-0.1c0-0.3-0.1-0.5-0.1-0.8c0-0.3,0-0.5,0.2-0.7c0.1-0.1,0.2-0.2,0.2-0.3c0-0.1-0.2-0.1-0.3-0.2
		C28.9,16.8,28.7,16.8,28.5,16.7z"/>
	<path fill="#06728D" d="M52.6,37c-4.8,4.1-12,6.9-15.4,8.1c1.2-5.6,2-10.4,2.3-14.7c5.6-1.5,11.7-16.1,11.7-16.1
		c-3,5.1-8.4,9.9-11.4,12.3c0.6-17.5-5.5-22.8-5.5-22.8c3.4,7.7,2.7,19.2,1.4,28.1c-3-2.3-8.6-7.2-11.7-12.5c0,0,5.7,13.8,11.2,15.9
		C34,41,33,45,33,45c-0.8,2.8-1.3,5.7-1.6,8.5c-3.1-2.5-8.1-7-10.9-11.8c0,0,5.4,13,10.7,15.7c-0.2,7.8,1.1,14.2,1.1,14.2h4.9
		c-2.4-5.1-1.1-18.1-0.5-23.1C42.5,48.5,52.6,37,52.6,37z"/>
</g>
</svg>
