<?xml version="1.0" encoding="utf-8"?>
<!-- Generator: Adobe Illustrator 18.0.0, SVG Export Plug-In . SVG Version: 6.00 Build 0)  -->
<!DOCTYPE svg PUBLIC "-//W3C//DTD SVG 1.1//EN" "http://www.w3.org/Graphics/SVG/1.1/DTD/svg11.dtd">
<svg version="1.1" id="Layer_1" xmlns="http://www.w3.org/2000/svg" xmlns:xlink="http://www.w3.org/1999/xlink" x="0px" y="0px"
	 viewBox="0 0 72 72" enable-background="new 0 0 72 72" xml:space="preserve">
<g>
	<rect x="30.8" y="62.6" fill="#E77528" width="10.5" height="8.9"/>
	<path fill="#CFD0D1" d="M49.8,47.9h7.8c0,0-5.6-7-11.1-15.9h2.8c0,0-10.7-17.1-12.7-29.3c-0.2-1-0.3-1.7-0.4-2
		c0-0.2-0.1-0.3-0.1-0.2c-0.1,0-0.1,0.1-0.1,0.2c-0.1,0.3-0.3,1-0.4,2C33.5,14.9,22.8,32,22.8,32h2.8c-5.4,8.9-11.1,15.9-11.1,15.9
		h7.8c-5.4,8.5-10.5,14.7-10.5,14.7h19h10.5h19C60.2,62.6,55.2,56.4,49.8,47.9z"/>
</g>
</svg>
