<?xml version="1.0" encoding="utf-8"?>
<!-- Generator: Adobe Illustrator 18.0.0, SVG Export Plug-In . SVG Version: 6.00 Build 0)  -->
<!DOCTYPE svg PUBLIC "-//W3C//DTD SVG 1.1//EN" "http://www.w3.org/Graphics/SVG/1.1/DTD/svg11.dtd">
<svg version="1.1" id="Layer_1" xmlns="http://www.w3.org/2000/svg" xmlns:xlink="http://www.w3.org/1999/xlink" x="0px" y="0px"
	 viewBox="0 0 72 72" enable-background="new 0 0 72 72" xml:space="preserve">
<g>
	<path fill="#E77528" d="M55.5,45.4c-1.2-0.2-2.3,0.7-2.5,2c0,0.3-0.3,1.2-0.7,1.4c-0.4,0.2-1.2,0.1-2.1-0.4c-0.5-0.2-1-0.5-1.5-0.9
		l3.3-3.8c0.8-0.9,0.7-2.4-0.2-3.2c-0.9-0.8-2.4-0.7-3.2,0.2l-3.2,3.8l-1.8-1.6l3.3-3.9c0.8-0.9,0.7-2.4-0.2-3.2
		c-0.9-0.8-2.4-0.7-3.2,0.2l-3.3,3.8l-1.8-1.7V27.6l5.7,5.2c1,0.9,2.1,1.6,3.2,2.1c1.3,0.6,2.4,0.8,3.3,0.8c1.1,0,2-0.3,2.6-0.7
		c2.4-1.4,2.8-4.3,2.8-4.6c0.1-1.2-0.8-2.3-2-2.5c-1.2-0.1-2.3,0.8-2.5,2c0,0.2-0.2,1-0.6,1.2c-0.2,0.1-0.8,0.1-1.8-0.3
		c-0.4-0.2-0.8-0.4-1.2-0.7l2.9-3.3c0.8-0.9,0.7-2.4-0.2-3.2c-0.9-0.8-2.4-0.7-3.2,0.2l-2.9,3.3l-1.4-1.2l2.9-3.4
		c0.8-0.9,0.7-2.4-0.2-3.2c-0.9-0.8-2.4-0.7-3.2,0.2l-2.9,3.3l-1.5-1.3V9l3.7,3.3c0.9,0.8,1.7,1.3,2.6,1.8c1.1,0.5,2,0.7,2.8,0.7
		c1,0,1.7-0.3,2.3-0.6c2.1-1.2,2.4-3.7,2.5-4c0.1-1.2-0.7-2.3-2-2.5c-1.2-0.2-2.3,0.7-2.5,1.9c0,0.2-0.2,0.5-0.2,0.6
		c0,0-0.3,0.1-1-0.3c-0.5-0.2-1-0.5-1.5-1l-1.7-1.5l2-2.4C46.1,4.1,46,2.7,45,1.9c-0.9-0.8-2.4-0.7-3.2,0.2l-2,2.3L38.3,3V2.8
		c0-1.2-1-2.3-2.3-2.3s-2.3,1-2.3,2.3V3l-1.9,1.7l-2.1-2.5c-0.8-0.9-2.2-1.1-3.2-0.2c-0.9,0.8-1.1,2.2-0.2,3.2l2.2,2.6L27,9
		c-0.5,0.5-1,0.8-1.5,1c-0.7,0.3-1,0.3-1,0.3c-0.1-0.1-0.2-0.4-0.2-0.6c-0.2-1.2-1.2-2.1-2.5-2c-1.2,0.1-2.1,1.2-2,2.5
		c0,0.3,0.4,2.8,2.5,4c0.5,0.3,1.3,0.6,2.3,0.6c0.8,0,1.7-0.2,2.8-0.7c0.9-0.4,1.8-1,2.6-1.8L33.7,9v12.5l-1.5,1.3l-2.9-3.3
		c-0.8-0.9-2.2-1-3.2-0.2c-0.9,0.8-1.1,2.2-0.2,3.2l2.9,3.4l-1.4,1.2l-2.9-3.3c-0.8-0.9-2.2-1.1-3.2-0.2c-0.9,0.8-1.1,2.2-0.2,3.2
		l2.9,3.3c-0.4,0.3-0.8,0.5-1.2,0.7c-1,0.4-1.6,0.5-1.8,0.3c-0.3-0.2-0.5-0.8-0.6-1.2c-0.1-1.2-1.2-2.1-2.5-2
		c-1.2,0.1-2.1,1.2-2,2.5c0,0.3,0.4,3.2,2.8,4.6c0.6,0.4,1.5,0.7,2.6,0.7c0.9,0,2-0.2,3.3-0.8c1.1-0.5,2.1-1.2,3.2-2.1l5.7-5.2v10.6
		l-1.8,1.7l-3.3-3.8c-0.8-0.9-2.2-1.1-3.2-0.2c-0.9,0.8-1.1,2.2-0.2,3.2l3.3,3.9l-1.8,1.6l-3.2-3.8c-0.8-0.9-2.2-1-3.2-0.2
		c-0.9,0.8-1.1,2.2-0.2,3.2l3.3,3.8c-0.5,0.4-1,0.7-1.5,0.9c-1,0.4-1.8,0.6-2.1,0.4c-0.4-0.2-0.7-1.1-0.7-1.4
		c-0.1-1.2-1.2-2.1-2.5-2c-1.2,0.1-2.1,1.2-2,2.5c0,0.3,0.4,3.4,3,4.8c0.6,0.4,1.5,0.7,2.7,0.7c1,0,2.2-0.2,3.5-0.8
		c1.2-0.5,2.3-1.3,3.4-2.3l6.6-5.9v24.9c0,1.2,1,2.3,2.3,2.3s2.3-1,2.3-2.3V44.3l6.6,5.9c1.1,1,2.2,1.8,3.4,2.3
		c1.4,0.6,2.5,0.8,3.5,0.8c1.2,0,2.1-0.3,2.7-0.7c2.5-1.5,2.9-4.5,3-4.8C57.6,46.6,56.7,45.5,55.5,45.4z"/>
</g>
</svg>
