<?xml version="1.0" encoding="utf-8"?>
<!-- Generator: Adobe Illustrator 18.0.0, SVG Export Plug-In . SVG Version: 6.00 Build 0)  -->
<!DOCTYPE svg PUBLIC "-//W3C//DTD SVG 1.1//EN" "http://www.w3.org/Graphics/SVG/1.1/DTD/svg11.dtd">
<svg version="1.1" id="Layer_1" xmlns="http://www.w3.org/2000/svg" xmlns:xlink="http://www.w3.org/1999/xlink" x="0px" y="0px"
	 viewBox="0 0 72 72" enable-background="new 0 0 72 72" xml:space="preserve">
<g>
	<path fill="#294E58" d="M53.5,51.1l-16-39.8c-0.6-1.6-2.9-1.6-3.5,0L18.5,51.1c-0.5,1.2,0.4,2.5,1.7,2.5h12.2v5.5
		c0,1.5,1.3,2.8,2.8,2.8h1.4c1.5,0,2.8-1.3,2.8-2.8v-5.5h12.2C53.1,53.6,54,52.3,53.5,51.1z"/>
	<g>
		<path fill="#4DA0D8" d="M16.6,54.2c-0.8-1.2-1-2.7-0.5-4l6.1-15.7l-5.9-14.6c-0.5-1.3-2.4-1.3-2.9,0l-12.9,33C0.2,54,1,55,2,55
			h10.2v4.6c0,1.3,1,2.3,2.3,2.3h1.2c1.3,0,2.3-1,2.3-2.3v-4.1C17.5,55.2,16.9,54.8,16.6,54.2z"/>
		<path fill="#4DA0D8" d="M55.4,54.2c0.8-1.2,1-2.7,0.5-4l-6.1-15.7l5.9-14.6c0.5-1.3,2.4-1.3,2.9,0l12.9,33C71.8,54,71,55,70,55
			H59.8v4.6c0,1.3-1,2.3-2.3,2.3h-1.2c-1.3,0-2.3-1-2.3-2.3v-4.1C54.5,55.2,55.1,54.8,55.4,54.2z"/>
	</g>
</g>
</svg>
