<?xml version="1.0" encoding="utf-8"?>
<!-- Generator: Adobe Illustrator 18.0.0, SVG Export Plug-In . SVG Version: 6.00 Build 0)  -->
<!DOCTYPE svg PUBLIC "-//W3C//DTD SVG 1.1//EN" "http://www.w3.org/Graphics/SVG/1.1/DTD/svg11.dtd">
<svg version="1.1" id="Layer_1" xmlns="http://www.w3.org/2000/svg" xmlns:xlink="http://www.w3.org/1999/xlink" x="0px" y="0px"
	 viewBox="0 0 72 72" enable-background="new 0 0 72 72" xml:space="preserve">
<g>
	<path fill="none" d="M36.5,47.4c1.2-0.5,2.2-1.4,3-2.5c0.7-1,1.1-2.1,1.9-3c0,0,0.1-0.1,0.1-0.1h-5.3
		C36.4,43.7,36.5,45.6,36.5,47.4z"/>
	<path fill="none" d="M34.2,41.9h-0.9h-4.2c1,2.9,2.4,5.7,4.2,8.2C33.2,47.3,33.5,44.5,34.2,41.9z"/>
	<path fill="#E77528" d="M41.3,42c-0.8,0.9-1.2,2-1.9,3c-0.7,1.1-1.8,1.9-3,2.5c0.1-1.9-0.1-3.7-0.4-5.6h-2c-0.7,2.7-1,5.4-0.9,8.2
		c-1.8-2.5-3.2-5.3-4.2-8.2h-2.7c-0.1,0.2-0.1,0.3-0.1,0.5c0,1.2,0.8,3.2,1.2,4.4c0.8,2.5,3,4.3,4,6.6c1.3,2.8,0.9,6,0.3,9
		c-0.6,3-1.7,6-1.5,9.1h11.7c-1.2-1.4-2.3-3-2.9-4.7c-0.4-1.1-0.5-2.2-0.7-3.3c-0.5-2.8-0.8-5.6-1-8.4c-0.1-1.5-0.2-3.1,0.5-4.4
		c0.6-1,1.5-1.8,2.3-2.6c1.8-1.7,3.1-3.9,3.9-6.2h-2.8C41.4,41.9,41.3,41.9,41.3,42z"/>
	<path fill="#F7A93B" d="M49.7,41.8c5.9-0.7,10.5-5.6,10.5-11.7c0-4.5-2.5-8.4-6.3-10.4c0-0.3,0-0.5,0-0.8C54,8.7,46,0.5,36.2,0.5
		c-7.1,0-13.2,4.3-16,10.5c-0.8-0.4-1.7-0.7-2.6-0.7c-3.2,0-5.7,2.6-5.7,5.7c0,2.5,1.6,4.6,3.8,5.4c-2.3,2.1-3.8,5.2-3.8,8.6
		c0,6.1,4.6,11,10.5,11.7v0.1h2.6h1.5h2.7h4.2h0.9h2h5.3h2.8L49.7,41.8L49.7,41.8z"/>
</g>
</svg>
