<?xml version="1.0" encoding="utf-8"?>
<!-- Generator: Adobe Illustrator 18.0.0, SVG Export Plug-In . SVG Version: 6.00 Build 0)  -->
<!DOCTYPE svg PUBLIC "-//W3C//DTD SVG 1.1//EN" "http://www.w3.org/Graphics/SVG/1.1/DTD/svg11.dtd">
<svg version="1.1" id="Layer_1" xmlns="http://www.w3.org/2000/svg" xmlns:xlink="http://www.w3.org/1999/xlink" x="0px" y="0px"
	 viewBox="0 0 72 72" enable-background="new 0 0 72 72" xml:space="preserve">
<g>
	<path fill="#E77528" d="M31.6,56.4c-0.9,3.1-1,6.5-1.1,9.7c0,1.6,0.1,3.4,1.3,4.5c0.9,0.8,2.2,0.8,3.4,0.9c1.2,0,2.5,0.1,3.7,0.1
		c0.3,0,0.6,0,0.8-0.2c0.4-0.3,0.4-0.8,0.4-1.2c-0.1-2.4-0.1-4.9-0.2-7.3c0-1.9-0.1-4,1-5.6c0.5-0.7,1.2-1.3,1.9-1.7l0,0L31.6,56.4z
		"/>
	<path fill="#06728D" d="M63.3,40.9c-2.8-4.8-3.5-10.6-6.3-15.3c-2-3.4-4.9-6.1-6.8-9.5c-1.5-2.8-2.4-5.9-4.3-8.4
		c-2.3-3.2-6-5-9.6-6.6c-0.7-0.3-1.4-0.6-2.1-0.6c-1.2,0-2.1,0.8-3,1.6c-2.4,2.2-4.6,4.7-6.5,7.4c-0.9,0.2-1.5,1-2.1,1.8
		c-0.8,1.2-1.7,2.4-2.5,3.5c-2.7,3.8-5.4,7.7-6.8,12.2c-0.4,1.4-0.7,2.9-1.2,4.3c-1.2,3.2-3.5,6-4.9,9.1c-1.1,2.5-1.6,5.2-3.1,7.5
		c-0.3,0.5-0.6,0.9-0.8,1.4c-0.3,1,0.1,2.2,0.9,3c0.8,0.8,1.8,1.2,2.8,1.5c7.8,2.6,16.5,0.4,24.4,2.5l11.3-0.8l0,0
		c1.3-0.7,3-1,4.5-1.3c2.2-0.4,4.2-0.5,6.4-0.4c4.7,0.2,9.5-0.2,14.1-1.2c0.2,0,0.4-0.1,0.5-0.3c0.1-0.1,0.1-0.3,0.1-0.5
		C68.7,47.8,65.4,44.5,63.3,40.9z"/>
</g>
</svg>
