<?xml version="1.0" encoding="utf-8"?>
<!-- Generator: Adobe Illustrator 18.0.0, SVG Export Plug-In . SVG Version: 6.00 Build 0)  -->
<!DOCTYPE svg PUBLIC "-//W3C//DTD SVG 1.1//EN" "http://www.w3.org/Graphics/SVG/1.1/DTD/svg11.dtd">
<svg version="1.1" id="Layer_1" xmlns="http://www.w3.org/2000/svg" xmlns:xlink="http://www.w3.org/1999/xlink" x="0px" y="0px"
	 viewBox="0 0 72 72" enable-background="new 0 0 72 72" xml:space="preserve">
<g>
	<path fill="#06728D" d="M63.4,33.3c0-0.4-0.1-0.8-0.1-1.2c1.5-1.5,2.4-3.2,2.4-5c0-2.8-2-5.3-5.3-7.2C63.2,18,65,15.7,65,13
		c0-5.9-9-10.7-20.1-10.7c-0.9,0-1.9,0-2.8,0.1c-3.3-1.3-7.3-2-11.7-2c-11.1,0-20.1,4.8-20.1,10.7c0,1.5,0.6,2.9,1.7,4.2
		c-3.4,1.9-5.5,4.5-5.5,7.3c0,3.3,2.8,6.2,7.2,8.2c0.5,3.4,4.1,6.3,9.2,8.1l7,2.3c2.1,1,4.6,1.8,7.4,2.3l3,0.4c1,0.1,2,0.1,3,0.1
		c1.2,0,2.5-0.1,3.6-0.2l4.2-0.7C58.3,41.5,63.4,37.7,63.4,33.3z"/>
	<path fill="#E77528" d="M44.8,44.8c-1.9,1-3.6,2.4-4.6,4.4c0-1.8,0-3.5,0-5.3l-3-0.4c-0.1,0.8-0.2,1.5-0.4,2.3
		c-0.1,0.4-0.3,0.8-0.6,1c-0.4,0.2-0.9,0.1-1.3,0c-2.5-0.8-4.1-3.2-5.1-5.6l-7-2.3c1.8,2.4,3.9,4.6,6.3,6.4c1.3,1,2.7,1.9,3.8,3.1
		c1.3,1.5,2.1,3.3,2.7,5.1c2,5.8,2.9,11.9,2.7,18c1.9,0,3.8,0,5.7,0c-0.8-4-1.5-8-1.6-12.1c-0.1-2.2,0.1-4.6,1-6.6
		c0.6-1.3,1.5-2.5,2.5-3.6c1.7-2.1,3.4-4.1,5.2-6l-4.2,0.7C46.2,44.1,45.5,44.4,44.8,44.8z"/>
</g>
</svg>
