<?xml version="1.0" encoding="utf-8"?>
<!-- Generator: Adobe Illustrator 18.0.0, SVG Export Plug-In . SVG Version: 6.00 Build 0)  -->
<!DOCTYPE svg PUBLIC "-//W3C//DTD SVG 1.1//EN" "http://www.w3.org/Graphics/SVG/1.1/DTD/svg11.dtd">
<svg version="1.1" id="Layer_1" xmlns="http://www.w3.org/2000/svg" xmlns:xlink="http://www.w3.org/1999/xlink" x="0px" y="0px"
	 viewBox="0 0 72 72" enable-background="new 0 0 72 72" xml:space="preserve">
<g>
	<polygon fill="none" points="36,22.4 36,22.4 36,22.4 	"/>
	<polygon fill="none" points="29.7,59.4 29.7,59.4 29.7,59.4 	"/>
	<rect x="29.7" y="59.4" fill="#0DB89A" width="12.7" height="12.1"/>
	<path fill="#06728D" d="M71.2,51.7c0,0-20.7,5.3-25.7-9.2c4,0.8,10.7,0.1,19.1-8.1c0,0-18.5,4.7-21.4-9.4c2.4,0,5.9-1,10-5.1
		c0,0-10.7,1.5-13.1-7.2L35.9,0.5l-4,12.3C27.4,23.5,18.8,20,18.8,20c4.1,4.1,7.6,5.1,10,5.1c-2.9,14.1-21.4,9.4-21.4,9.4
		c8.4,8.3,15,9,19.1,8.1C21.4,57,0.8,51.7,0.8,51.7c17.5,17.3,28.9,7.7,28.9,7.7l0,0v0l12.7,0l0,0C42.3,59.4,53.7,69,71.2,51.7z
		 M36,22.4L36,22.4L36,22.4L36,22.4z"/>
</g>
</svg>
