<?xml version="1.0" encoding="utf-8"?>
<!-- Generator: Adobe Illustrator 18.0.0, SVG Export Plug-In . SVG Version: 6.00 Build 0)  -->
<!DOCTYPE svg PUBLIC "-//W3C//DTD SVG 1.1//EN" "http://www.w3.org/Graphics/SVG/1.1/DTD/svg11.dtd">
<svg version="1.1" id="Layer_1" xmlns="http://www.w3.org/2000/svg" xmlns:xlink="http://www.w3.org/1999/xlink" x="0px" y="0px"
	 viewBox="0 0 72 72" enable-background="new 0 0 72 72" xml:space="preserve">
<g>
	<path fill="#F7A93B" d="M21.8,20.6h28.3c2.4,0,3.8-2,2.4-3.5L38.5,1.5c-1.2-1.3-3.7-1.3-4.9,0L19.4,17.1
		C18,18.6,19.4,20.6,21.8,20.6z"/>
	<path fill="#F7A93B" d="M20.1,34.5h31.9c2.7,0,4.3-2.3,2.8-4l-6.9-7.6H24.2l-6.9,7.6C15.8,32.2,17.4,34.5,20.1,34.5z"/>
	<path fill="#F7A93B" d="M18.1,51.3h35.9c3,0,4.8-2.6,3.1-4.5l-9.1-10H24.1l-9.1,10C13.3,48.7,15,51.3,18.1,51.3z"/>
	<path fill="#F7A93B" d="M59.7,66.5L47.9,53.5H24.1L12.3,66.5c-1.9,2.1,0.1,5,3.5,5h40.3C59.6,71.5,61.6,68.6,59.7,66.5z"/>
</g>
</svg>
