<?xml version="1.0" encoding="utf-8"?>
<!-- Generator: Adobe Illustrator 18.0.0, SVG Export Plug-In . SVG Version: 6.00 Build 0)  -->
<!DOCTYPE svg PUBLIC "-//W3C//DTD SVG 1.1//EN" "http://www.w3.org/Graphics/SVG/1.1/DTD/svg11.dtd">
<svg version="1.1" id="Layer_1" xmlns="http://www.w3.org/2000/svg" xmlns:xlink="http://www.w3.org/1999/xlink" x="0px" y="0px"
	 viewBox="0 0 72 72" enable-background="new 0 0 72 72" xml:space="preserve">
<g>
	<circle fill="none" cx="31" cy="12" r="0.7"/>
	<circle fill="none" cx="31.9" cy="35.2" r="1.5"/>
	<circle fill="none" cx="36.1" cy="48.4" r="1"/>
	<circle fill="none" cx="36.9" cy="7.8" r="0.8"/>
	<circle fill="none" cx="26.8" cy="50.8" r="0.9"/>
	<circle fill="none" cx="42.8" cy="13.2" r="0.5"/>
	<circle fill="none" cx="28.5" cy="41.8" r="0.8"/>
	<circle fill="none" cx="32.2" cy="28.3" r="0.5"/>
	<circle fill="none" cx="44.9" cy="51.9" r="1.5"/>
	<circle fill="none" cx="38.7" cy="38" r="0.3"/>
	<circle fill="none" cx="42.4" cy="29.6" r="0.8"/>
	<circle fill="none" cx="38.6" cy="18.2" r="0.9"/>
	<circle fill="none" cx="42.8" cy="41.4" r="0.4"/>
	<circle fill="none" cx="44.8" cy="33.5" r="0.6"/>
	<path fill="#0DB89A" d="M49.5,47.2h6.1l-9.2-10.9h6.6L42.5,23.7h6.8l-9-9.4h6.3L36,0.5L25.4,14.3h6.3l-9,9.4h6.8L18.9,36.3h6.6
		l-9.2,10.9h6.1l-9,9.4h19h7.2h19L49.5,47.2z M42.8,12.7c0.3,0,0.5,0.2,0.5,0.5c0,0.3-0.2,0.5-0.5,0.5c-0.3,0-0.5-0.2-0.5-0.5
		C42.4,12.9,42.6,12.7,42.8,12.7z M26.8,51.7c-0.5,0-0.9-0.4-0.9-0.9c0-0.5,0.4-0.9,0.9-0.9c0.5,0,0.9,0.4,0.9,0.9
		C27.7,51.3,27.3,51.7,26.8,51.7z M28.5,42.6c-0.4,0-0.8-0.4-0.8-0.8s0.4-0.8,0.8-0.8c0.4,0,0.8,0.4,0.8,0.8S28.9,42.6,28.5,42.6z
		 M32.2,27.7c0.3,0,0.5,0.2,0.5,0.5c0,0.3-0.2,0.5-0.5,0.5c-0.3,0-0.5-0.2-0.5-0.5C31.7,28,31.9,27.7,32.2,27.7z M31,12.7
		c-0.4,0-0.7-0.3-0.7-0.7c0-0.4,0.3-0.7,0.7-0.7c0.4,0,0.7,0.3,0.7,0.7C31.7,12.4,31.4,12.7,31,12.7z M31.9,36.7
		c-0.8,0-1.5-0.7-1.5-1.5s0.7-1.5,1.5-1.5c0.8,0,1.5,0.7,1.5,1.5S32.7,36.7,31.9,36.7z M36.1,49.4c-0.5,0-1-0.4-1-1c0-0.5,0.4-1,1-1
		c0.5,0,1,0.4,1,1C37.1,48.9,36.6,49.4,36.1,49.4z M36.9,8.7c-0.5,0-0.8-0.4-0.8-0.8c0-0.5,0.4-0.8,0.8-0.8c0.5,0,0.8,0.4,0.8,0.8
		C37.7,8.3,37.4,8.7,36.9,8.7z M38.7,38.4c-0.2,0-0.3-0.1-0.3-0.3s0.1-0.3,0.3-0.3s0.3,0.1,0.3,0.3S38.9,38.4,38.7,38.4z M38.6,19
		c-0.5,0-0.9-0.4-0.9-0.9c0-0.5,0.4-0.9,0.9-0.9c0.5,0,0.9,0.4,0.9,0.9C39.5,18.6,39.1,19,38.6,19z M44.8,32.9
		c0.3,0,0.6,0.3,0.6,0.6c0,0.3-0.3,0.6-0.6,0.6c-0.3,0-0.6-0.3-0.6-0.6C44.2,33.2,44.4,32.9,44.8,32.9z M42.8,41.8
		c-0.2,0-0.4-0.2-0.4-0.4c0-0.2,0.2-0.4,0.4-0.4s0.4,0.2,0.4,0.4C43.2,41.7,43,41.8,42.8,41.8z M42.4,30.4c-0.4,0-0.8-0.4-0.8-0.8
		c0-0.4,0.4-0.8,0.8-0.8c0.4,0,0.8,0.4,0.8,0.8C43.2,30,42.8,30.4,42.4,30.4z M44.9,53.5c-0.8,0-1.5-0.7-1.5-1.5s0.7-1.5,1.5-1.5
		c0.8,0,1.5,0.7,1.5,1.5S45.8,53.5,44.9,53.5z"/>
	<rect x="32.4" y="56.5" fill="#E77528" width="7.2" height="15"/>
</g>
</svg>
