<?xml version="1.0" encoding="utf-8"?>
<!-- Generator: Adobe Illustrator 18.0.0, SVG Export Plug-In . SVG Version: 6.00 Build 0)  -->
<!DOCTYPE svg PUBLIC "-//W3C//DTD SVG 1.1//EN" "http://www.w3.org/Graphics/SVG/1.1/DTD/svg11.dtd">
<svg version="1.1" id="Layer_1" xmlns="http://www.w3.org/2000/svg" xmlns:xlink="http://www.w3.org/1999/xlink" x="0px" y="0px"
	 viewBox="0 0 72 72" enable-background="new 0 0 72 72" xml:space="preserve">
<g>
	<path fill="#F7A93B" d="M71.3,56.2L49.9,2.9c-0.8-2.1-3.8-2.1-4.6,0L24.5,56.2c-0.6,1.6,0.6,3.4,2.3,3.4h16.4V67
		c0,2.1,1.7,3.7,3.7,3.7h1.9c2.1,0,3.7-1.7,3.7-3.7v-7.4H69C70.8,59.6,72,57.8,71.3,56.2z"/>
	<path fill="#294E58" d="M22,60.4c-1.1-1.6-1.3-3.6-0.6-5.4l8.2-21l-7.8-19.5c-0.7-1.7-3.2-1.7-3.8,0L0.6,58.7
		c-0.5,1.4,0.5,2.8,1.9,2.8h13.6v6.1c0,1.7,1.4,3.1,3.1,3.1h1.6c1.7,0,3.1-1.4,3.1-3.1v-5.4C23.2,61.7,22.5,61.1,22,60.4z"/>
</g>
</svg>
