<?xml version="1.0" encoding="utf-8"?>
<!-- Generator: Adobe Illustrator 18.0.0, SVG Export Plug-In . SVG Version: 6.00 Build 0)  -->
<!DOCTYPE svg PUBLIC "-//W3C//DTD SVG 1.1//EN" "http://www.w3.org/Graphics/SVG/1.1/DTD/svg11.dtd">
<svg version="1.1" id="Layer_1" xmlns="http://www.w3.org/2000/svg" xmlns:xlink="http://www.w3.org/1999/xlink" x="0px" y="0px"
	 viewBox="0 0 72 72" enable-background="new 0 0 72 72" xml:space="preserve">
<g>
	<path fill="#0DB89A" d="M55.7,15.1c0.2,0.3,0.5,0.6,0.7,0.9c-0.1-0.5-0.2-1-0.4-1.5c3.6,4.6,7.7,8.9,12.2,12.8
		c-1.1-2.8-2.2-5.5-3.3-8.3c1.3,1,2.5,1.9,3.8,2.9c-1.4-5-4.6-9.6-8.9-12.6c3.9-0.6,7.8-1.2,11.6-1.8c-0.3-0.5-0.9-0.8-1.4-1
		c-2.6-1.1-5.3-2-8.1-1.9c-2.8,0.1-5.7,1.3-7.2,3.7c-1.6-2.3-3.3-4.5-5.1-6.6c-0.7,2.6-0.6,5.3,0.2,7.8c-2.3-0.1-4.5-2-6.6-1.3
		c-0.9,0.3-1.5,1-2.1,1.7c-2,2.3-3.8,4.8-5.3,7.4C38.9,15.4,42.4,14,46,13c-4.6,3.5-8.9,8.3-9.2,14.1c4.7-2.9,9.3-6,13.6-9.5
		c0.1-0.1,0.1-0.3,0.2-0.4C52.5,18,54.9,17,55.7,15.1z"/>
	<path fill="#0DB89A" d="M17.7,47.8c-1-1.3-1.5-2.5-0.4-3.5c0.4-0.4,1.1-0.4,1.7-0.5c4.9-0.6,9.7-1.2,14.6-1.8
		c-1-1.5-2.8-2.1-4.5-2.3c-1.7-0.2-3.5,0-5.2-0.2c-0.8-0.1-1.8-0.7-1.5-1.4c0.1-0.4,0.6-0.6,1-0.7c2.1-0.7,4.4-0.7,6.5-0.1
		c-2.6-1.7-5.5-3.4-8.6-2.9c-2.2,0.4-4.2,2-4.9,4.2c-0.1-2.8-2.6-5.3-5.4-5.4c0.7,2.7,1.5,5.3,2.2,8c-2.7-1.2-5.2-3.1-7.1-5.4
		c-0.6,1.2-0.3,2.6,0.5,3.7c0.7,1.1,1.8,1.8,2.9,2.6c-4.1-0.9-8.7,2.5-8.9,6.7c3.2-0.9,6.5-1.9,9.7-2.8c-1.9,2.5-2,6-1,9
		c1,3,3,5.5,4.9,8c-2.4-4.4-1.8-10.3,1.5-14.1c-1.2,4.1-0.4,5.4,0.9,6.7c0.2-2-0.8-4.4,0.6-5.9c0.2,0.2,0.4,0.4,0.6,0.5
		c0.1-0.6,0.2-1.2,0.3-1.8C17.9,48.1,17.8,47.9,17.7,47.8z"/>
	<path fill="#E77528" d="M60.2,54.9c-0.4-0.2-0.8-0.3-1.2-0.5c1-12.9,0.4-25.9-2.6-38.5c-0.2-0.3-0.5-0.6-0.7-0.9
		c-0.8,1.9-3.2,2.9-5.1,2.2c-0.1,0.1-0.1,0.3-0.2,0.4c0.1,0,0.1-0.1,0.2-0.1c2.1,7.5,4.2,15.1,3.6,22.9c-0.2,2.6-0.7,5.3-1.3,7.9
		c-0.3,1.4-0.6,2.8-0.9,4.2c-9.7-1.8-20,0-30-2.3c-1.4-0.3-2.9-0.8-4-1.8c-0.2,0.6-0.3,1.2-0.3,1.8c2.5,2.3,5.9,3.7,9.4,4.3
		c3.7,0.7,7.4,0.7,11.2,0.9c4.3,0.2,8.6,0.7,12.9,1.4c-0.4,1.8-0.7,3.5-1.1,5.3c-0.6,2.9-1.2,5.9-2.6,8.5c3.1-1,6.4-1.1,9.5-0.3
		c0.7-3.7,1.2-7.5,1.6-11.3c1.2,0.6,2.2,1.5,3,2.6c1.8,2.5,1.9,5.9,2,9c1.9-0.2,3.8-0.3,5.7-0.5c-2.7-3.7-2.3-9.2-5.5-12.5
		C62.8,56.3,61.5,55.5,60.2,54.9z"/>
</g>
</svg>
