<?xml version="1.0" encoding="utf-8"?>
<!-- Generator: Adobe Illustrator 18.0.0, SVG Export Plug-In . SVG Version: 6.00 Build 0)  -->
<!DOCTYPE svg PUBLIC "-//W3C//DTD SVG 1.1//EN" "http://www.w3.org/Graphics/SVG/1.1/DTD/svg11.dtd">
<svg version="1.1" id="Layer_1" xmlns="http://www.w3.org/2000/svg" xmlns:xlink="http://www.w3.org/1999/xlink" x="0px" y="0px"
	 viewBox="0 0 72 72" enable-background="new 0 0 72 72" xml:space="preserve">
<g>
	<path fill="#0DB89A" d="M46.2,34.6C46,36,45.7,37.4,45,38.5c-0.7,1.2-2.1,2-3.5,1.7c0.6-6.5,0-9.3,0.6-15.8
		c0.3-3.1,4.4-7.5,5.9-10.3c1.4-2.7,2.1-3.9,2.7-6.9c0.1-0.5,0.1-1.1,0-1.6c-0.1-0.3-0.4-0.6-0.7-0.9c-1.3-1.1-3.6-0.6-4.3,1
		c-0.3,0.7-0.1,1.6-0.4,2.4c-1.7,5.7-2.7,5.8-4.5,9.2c0-3.5-0.1-7-0.1-10.5c0-1.3,0-2.7-0.5-3.9c-0.5-1.2-1.4-2.4-2.7-2.6
		c-1.6-0.3-3.2,0.8-4,2.2c-0.8,1.4-1,3-1.1,4.6c-1.3,12.3-2.5,24.6-3.8,36.9c-1.3-0.6-1.9-2.1-2-3.5c-0.1-1.4,0.2-2.8,0.3-4.2
		c0.1-1.5,0-3-0.9-4.2c-0.9-1.2-2.7-1.7-3.8-0.9c-1.3,0.9-1.2,2.9-1,4.6c0.5,2.8,1.2,5.7,2,8.4c1.1,3.9,3,8.1,6.8,9.4
		c1.2,5.9,2.3,12.5-0.9,17.6c3.4-2.3,8-1.3,12-0.2C41.2,63.6,42.1,56,43,48.4c0.1-0.9,0.2-1.9,0.6-2.8c0.6-1.6,1.9-2.8,3-4.2
		c3.3-4,4.8-9.5,4.1-14.6c-0.1-0.6-0.2-1.3-0.6-1.8c-0.4-0.5-1.2-0.8-1.7-0.4c-0.5,0.3-0.6,0.9-0.7,1.5
		C47.1,28.9,46.7,31.8,46.2,34.6z"/>
</g>
</svg>
