<?xml version="1.0" encoding="utf-8"?>
<!-- Generator: Adobe Illustrator 18.0.0, SVG Export Plug-In . SVG Version: 6.00 Build 0)  -->
<!DOCTYPE svg PUBLIC "-//W3C//DTD SVG 1.1//EN" "http://www.w3.org/Graphics/SVG/1.1/DTD/svg11.dtd">
<svg version="1.1" id="Layer_1" xmlns="http://www.w3.org/2000/svg" xmlns:xlink="http://www.w3.org/1999/xlink" x="0px" y="0px"
	 viewBox="0 0 72 72" enable-background="new 0 0 72 72" xml:space="preserve">
<g>
	<path fill="#E77528" d="M39.6,59.7c6.2-0.9,13-4,20.2-11.1H39.5c0-0.4,0-0.7,0-1.1c4.5-1.1,9.5-4.3,14.7-11H39.4
		c0-1.4,0-2.8-0.1-4.3c2.7-0.9,5.6-3,8.7-6.9h-8.8c-0.1-2.4-0.1-4.6-0.2-6.8c1.2-1.2,2.5-3.1,3.8-6.1h-4c-0.1-2.7-0.2-5-0.2-6.7
		c-0.1-1.9-0.1-2.9-0.1-2.9c-0.1-1.3-1.1-2.3-2.3-2.3c-1.4-0.1-2.5,1-2.6,2.3c0,0,0,1.1-0.1,2.9c-0.1,1.7-0.1,4-0.2,6.7h-3.9
		c0,0.3,1.4,4,3.6,6.1c-0.1,2.1-0.1,4.4-0.2,6.8H24c0.1,0.3,3.4,5.3,8.6,6.9c0,1.4-0.1,2.8-0.1,4.2H17.8c0.1,0.5,5.9,9,14.6,11
		c0,0.3,0,0.7,0,1H12.2c0.2,0.5,8.2,9.6,20.1,11.2c0,0.1,0,0.3,0,0.4c0,3.2,0,5.8,0,7.7c-0.1,0.9,0.2,1.7,0.5,2.2
		c0.3,0.5,0.7,0.8,0.7,0.8c1.4,1,3.4,1.1,4.9,0c0,0,0.4-0.3,0.7-0.8c0.4-0.5,0.6-1.2,0.5-2.2c0-1.9,0-4.5,0-7.7
		C39.6,60,39.6,59.8,39.6,59.7z"/>
</g>
</svg>
