<?xml version="1.0" encoding="utf-8"?>
<!-- Generator: Adobe Illustrator 18.0.0, SVG Export Plug-In . SVG Version: 6.00 Build 0)  -->
<!DOCTYPE svg PUBLIC "-//W3C//DTD SVG 1.1//EN" "http://www.w3.org/Graphics/SVG/1.1/DTD/svg11.dtd">
<svg version="1.1" id="Layer_1" xmlns="http://www.w3.org/2000/svg" xmlns:xlink="http://www.w3.org/1999/xlink" x="0px" y="0px"
	 viewBox="0 0 72 72" enable-background="new 0 0 72 72" xml:space="preserve">
<path fill="#0DB89A" d="M49,33.2c0.5,0.5,1.2,0.8,1.9,0.8c0.7,0,1.4-0.3,1.9-0.8c1-1,1-2.7,0-3.7L38.4,15.1V9.5L49,20.1
	c0.5,0.5,1.2,0.8,1.9,0.8c0.7,0,1.4-0.3,1.9-0.8c1-1,1-2.7,0-3.7L37.7,1.3c-0.1-0.1-0.3-0.2-0.4-0.3c0,0-0.1,0-0.1-0.1
	c-0.1-0.1-0.2-0.1-0.3-0.2c-0.1,0-0.1,0-0.2-0.1c-0.1,0-0.2-0.1-0.3-0.1c-0.2,0-0.3-0.1-0.5-0.1c-0.2,0-0.4,0-0.5,0.1
	c-0.1,0-0.2,0.1-0.3,0.1c-0.1,0-0.1,0-0.2,0.1c-0.1,0-0.2,0.1-0.3,0.2c0,0-0.1,0-0.1,0.1C34.2,1,34,1.2,33.9,1.3L19.3,15.9
	c-1,1-1,2.7,0,3.7c1,1,2.7,1,3.7,0L33.1,9.5v5.6L19.3,29c-1,1-1,2.7,0,3.7c1,1,2.7,1,3.7,0l10.1-10.1v5.6L19.3,42.1
	c-1,1-1,2.7,0,3.7c1,1,2.7,1,3.7,0l10.1-10.1v5.6L19.3,55.1c-1,1-1,2.7,0,3.7c1,1,2.7,1,3.7,0l10.1-10.1v20.1c0,1.5,1.2,2.6,2.6,2.6
	c1.5,0,2.6-1.2,2.6-2.6V48.7L49,59.3c0.5,0.5,1.2,0.8,1.9,0.8c0.7,0,1.4-0.3,1.9-0.8c1-1,1-2.7,0-3.7L38.4,41.3v-5.6L49,46.2
	c0.5,0.5,1.2,0.8,1.9,0.8c0.7,0,1.4-0.3,1.9-0.8c1-1,1-2.7,0-3.7L38.4,28.2v-5.6L49,33.2z"/>
</svg>
