<?xml version="1.0" encoding="utf-8"?>
<!-- Generator: Adobe Illustrator 18.0.0, SVG Export Plug-In . SVG Version: 6.00 Build 0)  -->
<!DOCTYPE svg PUBLIC "-//W3C//DTD SVG 1.1//EN" "http://www.w3.org/Graphics/SVG/1.1/DTD/svg11.dtd">
<svg version="1.1" id="Layer_1" xmlns="http://www.w3.org/2000/svg" xmlns:xlink="http://www.w3.org/1999/xlink" x="0px" y="0px"
	 viewBox="0 0 72 72" enable-background="new 0 0 72 72" xml:space="preserve">
<g>
	<path fill="#E77528" d="M34.2,15.3c-0.3,0.4-0.5,0.9-0.7,1.3c-0.1,0.3-0.3,0.6-0.4,0.9c2.1,7.5,4.1,15.2,3.5,22.9
		c-0.2,2.7-0.8,5.4-1.3,8.1c-1,4.7-1.9,9.4-2.9,14.1c-0.6,3-1.3,6.1-2.7,8.8c3.2-1,6.6-1.1,9.8-0.3c3-16.6,3.7-33.7,0.6-50.2
		c-0.5-2.2-1-4.4-1.5-6.6C37,14.2,35.2,14.2,34.2,15.3z"/>
	<path fill="#F04B36" d="M42.5,8.3c4-0.6,8-1.2,12-1.8c-0.3-0.5-0.9-0.8-1.5-1c-2.7-1.1-5.5-2.1-8.4-2c-2.9,0.1-5.9,1.4-7.4,3.8
		c-1.6-2.4-3.4-4.7-5.3-6.8c-0.7,2.6-0.6,5.5,0.2,8.1c-2.4-0.2-4.6-2.1-6.8-1.3c-0.9,0.3-1.6,1-2.2,1.8c-2.1,2.4-3.9,4.9-5.5,7.7
		c3.3-1.9,6.9-3.4,10.6-4.5c-4.7,3.7-9.2,8.6-9.5,14.6c5-3,9.7-6.3,14.2-9.9c0.1,0.2,0.1,0.5,0.2,0.7c0.1-0.3,0.3-0.6,0.4-0.9
		c0.2-0.5,0.4-0.9,0.7-1.3c1-1.2,2.8-1.1,4.4-1c0.5,2.2,1,4.4,1.5,6.6c-0.4-2.4-1-4.9-1.6-7.3c3.8,4.8,8,9.2,12.6,13.2
		c-1.1-2.8-2.3-5.7-3.4-8.5c1.3,1,2.6,2,3.9,3C50.1,16.1,46.8,11.5,42.5,8.3z"/>
</g>
</svg>
