<?xml version="1.0" encoding="utf-8"?>
<!-- Generator: Adobe Illustrator 18.0.0, SVG Export Plug-In . SVG Version: 6.00 Build 0)  -->
<!DOCTYPE svg PUBLIC "-//W3C//DTD SVG 1.1//EN" "http://www.w3.org/Graphics/SVG/1.1/DTD/svg11.dtd">
<svg version="1.1" id="Layer_1" xmlns="http://www.w3.org/2000/svg" xmlns:xlink="http://www.w3.org/1999/xlink" x="0px" y="0px"
	 viewBox="0 0 72 72" enable-background="new 0 0 72 72" xml:space="preserve">
<g>
	<path fill="#E77528" d="M46.7,35.3c0.7,3.1-0.3,6.4-1.7,9.3s-3.2,5.6-4.2,8.7c-1.9,5.8-0.9,12.2,0.2,18.2
		c-3.3-1.1-6.8-1.5-10.3-1.1c-0.7-2.1,0.9-4.2,1.6-6.3c0.6-1.6,0.7-3.2,0.8-4.9c0.4-5.6,0.4-11.7-2.7-16.3c-0.5-0.7-1-1.4-1.7-1.8
		c-0.5-0.3-1-0.5-1.6-0.7c-4.5-1.8-9.4-4-11.4-8.5c3.7,3.1,8.1,5.3,12.9,6.3c-4.7-6.6-7.1-14.9-6.7-23c5.4,8.7,7.9,19.3,15.2,26.6
		c1.1-0.2,1.3-1.7,1.3-2.8c0-1.9,0.4-3.7,1-5.5c0.3-0.8,1.1-1.8,1.8-1.3c-0.6,4.9-1.1,9.8-1.7,14.7c1.1,0.3,1.9-1,2.3-2.1
		c0.8-2.4,1.7-4.8,2.5-7.2C44.9,36.4,45.6,35.1,46.7,35.3z"/>
	<path fill="#0DB89A" d="M17.8,22.7c-3.1-0.1-6.4,0.5-9.2-0.7c-3.1-1.3-4.9-4.6-5.8-7.9c1-0.2,1.9,0.7,2.7,1.3
		C6.7,16,8,16.2,9.3,16.5c3,0.7,5.8,2.3,7.8,4.6C17.6,21.5,18,22.1,17.8,22.7z"/>
	<path fill="#0DB89A" d="M13.6,0.7c0.2-0.3,0.7-0.1,1,0.1c3.2,2,5.4,5.5,5.9,9.2c0.2,1.3,0.2,2.6,0.1,3.9c0,0.7-0.2,1.5-0.9,1.7
		c-0.8-0.9-1.9-1.4-2.8-2.2c-2-1.8-2.9-4.5-3.2-7.2c-0.2-1.6-0.3-3.3-0.2-4.9C13.5,1,13.5,0.8,13.6,0.7z"/>
	<path fill="#0DB89A" d="M26.9,17.5c-0.5-1.2-1-2.5-0.9-3.8c0.1-1.7,1-3.2,1.9-4.6c0.6-0.9,1.1-1.8,1.7-2.7c0.2-0.3,0.4-0.7,0.8-0.7
		c0.6-0.1,1.1,0.6,1.3,1.3c0.9,3.3,0.8,7-0.3,10.2c-0.4,1.1-0.9,2.2-1.2,3.4c-0.1,0.5-0.4,1.2-0.9,1.1C28.4,20.4,27.6,19,26.9,17.5z
		"/>
	<path fill="#0DB89A" d="M43.4,26.8c-0.6-1.6-2-2.8-3-4.2c-1.4-1.9-2.3-4.4-4.3-5.7c-1.7,2.4-0.7,6.8,1,9c0.9,1.2,2.3,2.9,3.6,3.7
		C43.1,31.1,44.3,29.2,43.4,26.8z"/>
	<path fill="#0DB89A" d="M50,12.8c0.7,0.1,1.3,0.7,1.6,1.4c0.3,0.7,0.3,1.4,0.2,2.1c-0.2,2-1.1,3.8-2,5.7c-0.4,0.8-0.8,1.6-1.2,2.5
		c-0.4,0.9-0.9,1.8-1.3,2.7c-0.2,0.4-0.4,0.7-0.7,1s-0.8,0.3-1.1,0c-0.1-0.2-0.2-0.4-0.2-0.6C45,26,44.7,24.5,44.5,23
		c-0.1-0.8-0.3-1.5-0.3-2.3c0.1-2.4,1.6-4.4,3.1-6.2C48,13.6,48.9,12.7,50,12.8z"/>
	<path fill="#0DB89A" d="M47,33c-0.6-0.6-0.5-1.5-0.1-2.2c0.4-0.7,1.1-1.1,1.8-1.5c3.4-2,7.1-4,11-3.6c-1.1,1.3-1.9,2.9-3,4.1
		C54.3,32.4,50.5,33.3,47,33z"/>
	<path fill="#0DB89A" d="M16.5,33c0.6-0.6,0.5-1.5,0.1-2.2c-0.4-0.7-1.1-1.1-1.8-1.5c-3.4-2-7.1-4-11-3.6c1.1,1.3,1.9,2.9,3,4.1
		C9.2,32.4,13,33.3,16.5,33z"/>
	<path fill="#0DB89A" d="M69.2,31.8c-2.5,0.5-5.1-0.6-7.6-0.7c-3.2-0.1-6.4,1.6-7.8,4.4c1.6-0.2,3.2,0.2,4.8,0.6
		c1.8,0.4,3.8,0.7,5.6,0.4c0.9-0.2,1.8-0.5,2.6-1C68,34.7,69.2,33.3,69.2,31.8z"/>
	<path fill="#0DB89A" d="M63.5,43.9c-1.4-1.2-3.1-2-4.4-3.2c-0.4-0.4-0.8-0.9-1.3-1.4c-2.3-2.2-6.2-2.3-8.6-0.3
		c1.9,2,4.3,3.4,6.8,4.8c2.2,1.2,4.8,2.4,7.2,1.7c0.3-0.1,0.7-0.3,0.8-0.6C64.1,44.5,63.8,44.2,63.5,43.9z"/>
	<path fill="#0DB89A" d="M48.1,41c0.5,0.1,1,0.5,1.4,0.8c3.4,3,4.7,8.1,3.3,12.4c-0.2,0.5-0.4,1.1-0.6,1.6c-0.2,0.5-0.4,1-0.6,1.4
		c-0.1,0.2-0.1,0.3-0.2,0.4c-0.3,0.3-0.8,0.3-1.1,0.1c-0.3-0.2-0.6-0.6-0.8-0.9c-1.3-2-2.7-4.2-2.9-6.6c-0.1-1.1,0.1-2.2,0.3-3.2
		c0.3-1.9,0.6-3.8,0.9-5.6c0-0.1,0.1-0.3,0.2-0.4C47.8,40.9,48,40.9,48.1,41z"/>
</g>
</svg>
