<?xml version="1.0" encoding="utf-8"?>
<!-- Generator: Adobe Illustrator 18.0.0, SVG Export Plug-In . SVG Version: 6.00 Build 0)  -->
<!DOCTYPE svg PUBLIC "-//W3C//DTD SVG 1.1//EN" "http://www.w3.org/Graphics/SVG/1.1/DTD/svg11.dtd">
<svg version="1.1" id="Layer_1" xmlns="http://www.w3.org/2000/svg" xmlns:xlink="http://www.w3.org/1999/xlink" x="0px" y="0px"
	 viewBox="0 0 72 72" enable-background="new 0 0 72 72" xml:space="preserve">
<g>
	<path fill="#E77528" d="M50,30.2c-0.4,1.6-0.9,3.1-1.3,4.7c-0.2,0.9-0.5,1.9-1.3,2.7c-0.5,0.5-4.2,5.2-6,6.8
		c-1.1,1-2.6,1.6-3.7,2.7c0-3,0-6,0-9c0-2,0.1-4.1,0.5-6c0.3-1.3,0.8-2.4,1.2-3.7c1-2.9,1.6-6,1.7-9.1c-0.4-0.3-0.9,0.1-1.2,0.5
		c-2.2,3.3-3.7,7-4.8,10.8c-0.8-1.2-1.2-2.7-1.4-4.1c-0.2-1.6-0.4-3.2-0.5-4.8c-0.7,0.2-0.9,1.1-1,1.9c-0.1,1.6-0.2,3.2-0.2,4.8
		c0,1.3,0.1,2.7,0.5,4c0.3,1,0.9,2,1.4,2.9c-0.1,0.7-0.3,1.4-0.4,2.1c-0.4,2.7-0.7,5.5-0.9,8.2c-0.5-0.4-0.9-0.9-1.3-1.4
		c-0.9-1.3-2.2-2.4-3.2-3.7c-1.6-2-3.4-3.9-4.2-6.3c-0.7,2.4,0.1,5,1.5,7c1.4,2,3.4,3.6,5.1,5.3c0.6,0.6,1.3,1.3,1.9,1.9
		c-0.1,2.5-0.2,5-0.2,7.6c0,2.5-0.1,5.1,0.1,7.6c0.2,2.8,0.6,6-1.4,7.9c3.5-1.1,7.5-2.1,10.6-0.1c-2.4-5.7-3.4-11.9-3.8-18.1
		c1.1-0.7,1.9-2.4,2.9-3.3c1.6-1.4,2.3-2.8,3.9-4.1C49.2,42.2,51,35.9,50,30.2z"/>
	<path fill="#294E58" d="M22.3,35.9c-0.3-0.4-0.8-0.5-1.2-0.5c-4.2-0.6-8.6-0.2-12.5,1.2c2.7,1.5,5.8,1.8,8.8,1.9
		c1.3,0.1,2.7,0.1,3.9-0.4c0.4-0.2,0.9-0.5,1.1-0.9C22.5,36.9,22.6,36.3,22.3,35.9z"/>
	<path fill="#294E58" d="M13.3,25.4c-0.8-1.7-1.6-3.5-1.5-5.4c1.7,0.7,3.2,1.8,4.5,3.1c1.1,1.1,2,2.4,3.1,3.5c0.7,0.6,1.4,1.2,2,1.9
		c0.6,0.7,1,1.6,0.8,2.5c0,0.1-0.1,0.3-0.2,0.3c-0.1,0.1-0.3,0.1-0.4,0c-2-0.3-4.2-0.7-5.7-2.1C14.7,28.3,14,26.8,13.3,25.4z"/>
	<path fill="#294E58" d="M24.7,27.5c-1.3-1.7-2.7-3.4-3.3-5.4c-0.9-2.7-0.2-5.7,0.8-8.4c0.3,0,0.5,0.3,0.6,0.6
		c1.3,3.2,2.1,6.7,2.4,10.2C25.2,25.5,25.2,26.6,24.7,27.5z"/>
	<path fill="#294E58" d="M49.3,30.7c-0.3,0.8-0.6,1.7-1.4,2.1c-0.6,0.3-1.4,0.2-2-0.2c-0.6-0.4-0.9-1-1.1-1.7
		c-0.5-1.8,0.2-3.6,0.9-5.4c0.4-1,0.8-2,1.2-3c0.5-1.2,1-2.4,2.2-3c0.2-0.1,0.5-0.2,0.7-0.1c0.3,0.1,0.3,0.5,0.4,0.8
		C50.7,23.7,50.4,27.3,49.3,30.7z"/>
	<path fill="#294E58" d="M51.1,34.5c0.5-1.5,1.8-2.8,3.3-3.2c1.1-0.3,2.3-0.1,3.4-0.1c1.6,0,3.1-0.1,4.6-0.5c0.1,0,0.3-0.1,0.4,0
		c0.2,0,0.3,0.2,0.4,0.3c0.4,0.6,0.4,1.4,0,2c-0.3,0.6-0.9,1.1-1.5,1.5c-1.9,1.2-4.2,1.6-6.4,1.8c-0.4,0-0.8,0.1-1.2,0
		C53.1,36,52.3,34.6,51.1,34.5z"/>
	<path fill="#294E58" d="M50.6,38.9c-0.1,0.1,0,0.3,0,0.4c0.4,1.5,1.5,2.7,2.8,3.5c1.3,0.8,2.8,1.3,4.3,1.7c1.8,0.5,3.7,1.1,5.6,1
		c-1.9-2.7-4.3-5.1-7-6.9c-0.4-0.3-0.9-0.6-1.4-0.7c-0.4-0.1-0.8,0-1.2,0.1c-0.9,0.2-1.8,0.4-2.7,0.6C50.9,38.6,50.7,38.7,50.6,38.9
		z"/>
	<path fill="#294E58" d="M45.3,14.2c0.5-0.3,1-0.4,1.5-0.6c3.1-1,6.3-2.6,9.5-2.2c0.3,1.2-0.6,2.3-1.6,3.1
		c-2.8,2.4-6.4,3.7-10.1,3.7c-0.4,0-0.8,0-1.2,0.1C43.5,16.8,43.9,15,45.3,14.2z"/>
	<path fill="#294E58" d="M39.2,8c0.2-0.8,0.5-1.5,0.8-2.2c0.7-1.8,1.4-3.5,2.2-5.3c1.1,1.2,1.2,2.9,1.3,4.5c0,1.4,0,2.9,0,4.3
		c0,1.2,0,2.4-0.3,3.6c-0.3,1-0.9,2-1.8,2.6c-1.1-1.4-1.8-3-2.1-4.7C39,9.9,39,8.9,39.2,8z"/>
	<path fill="#294E58" d="M33.4,14.4c-0.7-0.5-3.4-3.7-3.7-4.9c-0.3-1.1-0.5-2.2-0.6-3.3c0-0.2,0-0.6,0.2-0.7c0.2-0.1,0.5,0,0.7,0.1
		c1.8,1.2,3.7,2.4,5.2,4c1.5,1.6,2.8,3.5,3.3,5.6c0.1,0.3,0.1,0.6-0.1,0.9c-0.1,0.1-0.3,0.2-0.4,0.2c-0.8,0.2-1.7,0-2.5-0.4
		C34.7,15.5,34.1,14.9,33.4,14.4z"/>
</g>
</svg>
