<?xml version="1.0" encoding="utf-8"?>
<!-- Generator: Adobe Illustrator 18.0.0, SVG Export Plug-In . SVG Version: 6.00 Build 0)  -->
<!DOCTYPE svg PUBLIC "-//W3C//DTD SVG 1.1//EN" "http://www.w3.org/Graphics/SVG/1.1/DTD/svg11.dtd">
<svg version="1.1" id="Layer_1" xmlns="http://www.w3.org/2000/svg" xmlns:xlink="http://www.w3.org/1999/xlink" x="0px" y="0px"
	 viewBox="0 0 72 72" enable-background="new 0 0 72 72" xml:space="preserve">
<g>
	<path fill="#E77528" d="M34.9,43.2c-0.8-0.1-1.7-0.3-2.1-1c-0.4,0.1-0.6,0.6-0.7,1c-0.4,2.4,0.6,4.8,1.3,7.1
		c1.9,6.2,2.1,13.1-0.3,19.1c-0.1,0.2-0.2,0.4-0.1,0.6c0.1,0.2,0.3,0.4,0.6,0.5c1.2,0.5,2.5,0.8,3.8,0.9c0.8,0.1,1.6,0.1,2.4-0.2
		c0.8-0.3,1.5-0.9,1.7-1.7c0.1-0.5,0-1,0-1.5c-0.6-3.6-1.2-7.2-1.4-10.9c-0.1-3.7,0.3-7.4,1.6-10.8c0.4-1.1,1-2.2,1.2-3.3
		C40.2,43.5,37.5,43.6,34.9,43.2z"/>
	<path fill="#F7A93B" d="M62.6,22.5c0-3.8-2.8-6.9-6.5-7.5c0.7-1.3,1.1-2.8,1.1-4.4c0-5.2-4.2-9.3-9.4-9.3c-3.5,0-6.5,1.9-8.1,4.6
		c-1.8-3.2-5.3-5.4-9.4-5.4c-5.9,0-10.6,4.5-10.6,10c0,0.5,0,0.9,0.1,1.3c-0.5-0.1-0.9-0.2-1.4-0.2c-4.9,0-8.9,4.8-8.9,10.7
		s4,10.7,8.9,10.7c0.3,0,0.6,0,0.9-0.1c-0.1,0.5-0.2,1-0.2,1.6c0,4.2,3.4,7.6,7.6,7.6c2.1,0,4-0.9,5.4-2.3c1.5,0.5,3.1,0.7,4.9,0.7
		c2.4,0,4.6-0.5,6.4-1.3c1.4,1.7,3.5,2.8,5.9,2.8c4.2,0,7.6-3.4,7.6-7.6c0-1.7-0.6-3.3-1.6-4.6C59.2,30,62.6,26.7,62.6,22.5z"/>
</g>
</svg>
