<?xml version="1.0" encoding="utf-8"?>
<!-- Generator: Adobe Illustrator 18.0.0, SVG Export Plug-In . SVG Version: 6.00 Build 0)  -->
<!DOCTYPE svg PUBLIC "-//W3C//DTD SVG 1.1//EN" "http://www.w3.org/Graphics/SVG/1.1/DTD/svg11.dtd">
<svg version="1.1" id="Layer_1" xmlns="http://www.w3.org/2000/svg" xmlns:xlink="http://www.w3.org/1999/xlink" x="0px" y="0px"
	 viewBox="0 0 72 72" enable-background="new 0 0 72 72" xml:space="preserve">
<g>
	<path fill="#E77528" d="M42.9,25.5c0,0-1.5,6.3-4.5,11.6c-2.5-8.7-6.5-16.6-12.5-19.7c0,0,4,12.1,6.2,27c-6.2-2.6-12-7.8-12-7.8
		c0.3,5.1,9.9,10,12.4,11.2c1,7.8,1.3,16.1,0.3,23.7H43c0,0-0.1-15.8-3.6-30.5C41.2,37.7,45.3,29.5,42.9,25.5z"/>
	<path fill="#F04B36" d="M36,0.5C20.4,0.5,7.7,13.8,7.7,30.1c0,7.3,2.6,14.1,6.8,19.2c-2.3-3.8-3.6-8.4-3.6-13.2
		c0-13.8,10.6-24.9,23.6-24.9c13,0,23.6,11.2,23.6,24.9c0,9.2-4.8,17.3-11.8,21.6c10.6-4.3,18.1-15,18.1-27.6
		C64.3,13.8,51.6,0.5,36,0.5z"/>
</g>
</svg>
