<?xml version="1.0" encoding="utf-8"?>
<!-- Generator: Adobe Illustrator 18.0.0, SVG Export Plug-In . SVG Version: 6.00 Build 0)  -->
<!DOCTYPE svg PUBLIC "-//W3C//DTD SVG 1.1//EN" "http://www.w3.org/Graphics/SVG/1.1/DTD/svg11.dtd">
<svg version="1.1" id="Layer_1" xmlns="http://www.w3.org/2000/svg" xmlns:xlink="http://www.w3.org/1999/xlink" x="0px" y="0px"
	 viewBox="0 0 72 72" enable-background="new 0 0 72 72" xml:space="preserve">
<g>
	<path fill="none" d="M30.9,33.7c-0.1,0-0.2,0-0.3-0.1c-0.2,0.1-0.3,0.2-0.5,0.3c-1,0.5-2.1,0.6-3.2,0.4c1.5,1.5,2.9,2.4,4.1,2.9
		C31,36.1,30.9,34.8,30.9,33.7z"/>
	<path fill="none" d="M30.2,33.9c0.2-0.1,0.3-0.2,0.5-0.3c-0.1,0-0.3,0-0.4,0c-1.2,0-2.5,0.1-3.6,0.5c0.1,0.1,0.2,0.2,0.2,0.2
		C28.1,34.5,29.2,34.5,30.2,33.9z"/>
	<path fill="none" d="M37.1,35.5c0.1,0.7,0.1,1.7,0.2,2.8c0.9-0.4,2.1-1,3.2-2.1c-0.2-0.2-0.5-0.5-0.6-0.8c-0.1-0.2-0.2-0.5-0.4-0.7
		c-0.4-0.5-1.1-0.2-1.8,0.1C37.5,35.1,37.3,35.3,37.1,35.5C37.1,35.5,37.1,35.5,37.1,35.5z"/>
	<path fill="none" d="M39.5,34.9c0.2,0.2,0.2,0.4,0.4,0.7c0.2,0.3,0.4,0.5,0.6,0.8c0,0,0.1-0.1,0.1-0.1c-0.5-0.6-0.7-1.4-0.4-2.1
		c-0.5-0.3-1.2-0.2-1.8,0.2c-0.3,0.2-0.5,0.4-0.7,0.6C38.4,34.7,39.1,34.4,39.5,34.9z"/>
	<path fill="#E77528" d="M40.5,36.3c-1.2,1.1-2.3,1.7-3.2,2.1c-0.1-1.1-0.1-2.1-0.2-2.8c0,0,0,0,0,0c0.2-0.2,0.5-0.4,0.7-0.6
		c-0.5,0.2-1,0.3-1.3,0c-0.7-0.6-0.2-2.2-1.1-2.3c-0.4-0.1-0.7,0.3-0.8,0.6c-0.1,0.4,0,0.7,0.1,1.1c-0.6-1.1-2-1.6-3.1-1.1
		c-0.3,0.1-0.5,0.3-0.8,0.5c0.1,0,0.2,0,0.3,0.1c0,1.1,0.1,2.4,0.1,3.5c-1.2-0.5-2.6-1.4-4.1-2.9c-0.4-0.1-0.8-0.1-1.2-0.2
		c0,0.2,0,0.3,0,0.5c0.1-0.1,0.2-0.2,0.3-0.2c1,1.8,2.6,3.8,4.6,4.2c0.2,0,0.4,0.1,0.5,0.1c0.1,1.1,0.2,1.8,0.2,1.8
		c2.3,6.3,1.8,26.3,1.8,26.3c-1.6,3-0.4,4.7-0.4,4.7h7.7c2.5-1.4,0.7-4.4,0.7-4.4C39.3,63,38,47.9,37.3,39.5
		c0.4-0.1,0.9-0.2,1.5-0.3c0.9-0.2,1.6-0.8,2.2-1.5c-0.1-0.4-0.2-0.7-0.4-1.1C40.7,36.5,40.6,36.4,40.5,36.3z"/>
	<path fill="#06728D" d="M61.7,29c0.1-0.3,0.2-0.6,0.2-0.9c0.1-3.9-3.8-7-3.8-10.9c0-0.4,0-0.7-0.1-1c-0.2-0.5-0.8-0.6-1.1-1
		c-0.6-0.8,0-2.1-0.8-2.7c-0.3-0.2-0.7-0.3-1.1-0.4c-1.5-0.3-2.7-1.6-2.9-3.1C52,8.5,52,8,51.8,7.5c-0.4-1.1-1.6-1.6-2.7-1.8
		c-1.1-0.2-2.3-0.3-3.2-1c-0.3-0.2-0.6-0.5-1-0.8c-0.7-0.4-1.6-0.4-2.5-0.3C40.7,3.9,39,4,37.2,4.1c-0.3,0-0.7,0-1-0.1
		c-0.6-0.3-0.8-1-1.1-1.6c-0.3-0.6-1.3-1-1.6-0.4c0.2-1-1.2-1.5-2.1-1.3c-1,0.2-2,0.6-2.8,0.1c-0.3-0.2-0.5-0.4-0.8-0.4
		c-0.2,0-0.4,0.1-0.6,0.3c-1.5,1.1-3.3,2.4-3.3,4.3c0,0.6,0.1,1.1,0,1.7c-0.1,0.5-0.5,1-0.8,1.4c-1.3,1.6-2.6,3.2-3.9,4.9
		c-0.2,0.3-0.4,0.5-0.7,0.6c-0.2,0.1-0.5,0.1-0.8,0.2c-1.3,0.3-1.8,1.8-2.5,2.9c-1,1.4-2.8,2.4-2.8,4.1c0,0.8,0.4,1.9-0.3,2.4
		c-0.3,0.2-0.7,0.2-1.1,0.3c-1.1,0.4-1.2,2-0.6,2.9c0.6,1,1.7,1.6,2.4,2.4c-0.7,0.3-0.6,1.4-0.1,2c0.5,0.6,1.2,1,1.5,1.7
		c0.1,0.3,0.1,0.5,0.2,0.8c0.6,1,2.3,0.3,3.3,0.9c0.3-0.7,0.5-1.5,0.7-2.2c2.2,0.2,3.3,3.1,5.4,3.6c0.2,0,0.4,0.1,0.6,0
		c0.4-0.1,0.6-0.4,0.9-0.7c0.1-0.1,0.2-0.2,0.3-0.3c0-0.2,0-0.3,0-0.5c0.4,0.1,0.8,0.2,1.2,0.2c-0.1-0.1-0.2-0.2-0.2-0.2
		c1.1-0.4,2.4-0.5,3.6-0.5c0.1,0,0.3,0,0.4,0c0.3-0.2,0.5-0.4,0.8-0.5c1.1-0.5,2.6,0,3.1,1.1c-0.1-0.4-0.2-0.7-0.1-1.1
		c0.1-0.4,0.4-0.7,0.8-0.6c0.9,0.1,0.4,1.7,1.1,2.3c0.4,0.3,0.8,0.2,1.3,0c0.2-0.2,0.5-0.4,0.7-0.6c0.5-0.3,1.2-0.5,1.8-0.2
		c-0.3,0.7-0.1,1.5,0.4,2.1c0,0-0.1,0.1-0.1,0.1c0.1,0.1,0.2,0.2,0.3,0.3c0.2,0.3,0.3,0.7,0.4,1.1c0.2-0.3,0.5-0.6,0.7-0.9
		c0.3,0,0.6,0.1,0.9,0.2c0.4,0.2,0.7,0.6,1,0.9c0.9,1.1,2.8,1.8,3.9,0.9c0.8-0.7,0.9-1.8,1.3-2.7c0.4-1.1,1.1-2.1,2.1-2.9
		c0.2-0.1,0.4-0.3,0.7-0.2c0.3,0.1,0.4,0.4,0.5,0.6c0.5,0.7,1.7,0.5,2.5,0.2c1.8-0.7,3.6-1.3,5.4-2c0.3-0.1,0.6-0.3,0.8-0.6
		c0.1-0.2,0-0.5,0-0.8C61,29.9,61.5,29.5,61.7,29z"/>
</g>
</svg>
