<?xml version="1.0" encoding="utf-8"?>
<!-- Generator: Adobe Illustrator 18.0.0, SVG Export Plug-In . SVG Version: 6.00 Build 0)  -->
<!DOCTYPE svg PUBLIC "-//W3C//DTD SVG 1.1//EN" "http://www.w3.org/Graphics/SVG/1.1/DTD/svg11.dtd">
<svg version="1.1" id="Layer_1" xmlns="http://www.w3.org/2000/svg" xmlns:xlink="http://www.w3.org/1999/xlink" x="0px" y="0px"
	 viewBox="0 0 72 72" enable-background="new 0 0 72 72" xml:space="preserve">
<g>
	<path fill="#E77528" d="M32,51.7c0,0.1-0.1,0.3-0.1,0.4c-0.4,1.8-1.4,3.4-2.3,4.9c-0.5,0.8-1.1,1.7-1.4,2.6c-1,2.7-0.1,5.8-0.6,8.6
		c-0.1,0.3-0.1,0.7-0.4,0.9c-0.7,0.7-2.2,0.4-2.5,1.3c1.6,1.5,4.4,1.2,6-0.2c0.5-0.4,0.9-0.9,1.5-1c1.5-0.4,2.9,1.5,4.4,1.1
		c0.1-4.6-2.8-9.1-1.6-13.6c0.4-1.6,1.3-2.9,2.3-4.2c0.1,0.1,0.1,0.2,0.1,0.3c0.1-0.7,0.3-1.4,0.5-2C36,50.2,33.9,50.8,32,51.7z"/>
	<path fill="#0DB89A" d="M71,24.1c0-0.4,0-0.9-0.3-1.3c-0.5-1-1.9-1.1-3-1.3c-2.6-0.5-4.7-2.7-5.2-5.3c-0.2-1.1-0.1-2.2-0.2-3.3
		c0-2.2-0.3-4.3-1.4-6.2c-1-1.9-2.8-3.5-4.9-3.9c-2.9-0.5-5.7,1.1-8.6,0.8c-1.1-0.1-2.2-0.5-3.2-0.9c-2.7-1-5.5-2-8.4-2.3
		C33.1,0.3,30,1,27.9,3c-0.9,0.9-1.6,2-2.6,2.9c-0.7,0.6-1.5,1-2.1,1.7c-1.8,1.9-1.4,4.9-0.9,7.5c-0.8-0.4-1.7-0.8-2.5-1.3
		c-1.4-0.7-3-1.4-4.5-1.1c-1.8,0.4-3.1,2.1-4,3.7c-0.9,1.7-1.7,3.6-1.7,5.5c0,1.9,1,4,2.8,4.8c0.7,0.3,1.5,0.4,2.1,0.9
		c0.6,0.5,0.7,1.6,0,1.9c-0.2,0.1-0.5,0.1-0.8,0.1c-1.5-0.2-2.9-0.9-4.5-0.9c-2.4,0.1-4.3,1.9-5.9,3.6c-0.6,0.7-1.3,1.4-1.7,2.2
		c-0.7,1.4-0.7,3-0.7,4.6c0,1.9,0,3.9,1.2,5.3C3,45.6,4.3,46.2,5.4,47c1.5,1,2.7,2.3,3.6,3.8c0.5,0.9,0.9,1.8,1.7,2.5
		c1,0.9,2.4,1.1,3.7,1.2c6,0.3,11.7-2.1,17.7-2.7c0,0,0,0,0,0c1.9-0.9,4-1.6,5.9-0.8c-0.2,0.7-0.4,1.3-0.5,2
		c0.2,0.4,0.3,0.9,0.5,1.4c0.7,1.9,2.6,3.3,4.6,3.8c2,0.6,4.1,0.5,6.1,0.4c1.1,0,2.1-0.1,3.1-0.5c1.4-0.6,2.3-1.9,3.5-2.8
		c1.4-1.1,3.2-1.7,4.7-2.8c1.4-1.1,2.5-3.1,1.7-4.8c-0.6-0.5-1.3-0.9-2-1.4c0.7-1.3,2.1-2,3.4-2.8c1.3-0.8,2.6-1.9,2.6-3.4
		c0-0.8-0.4-1.6-0.5-2.4c-0.2-0.8-0.1-1.8,0.6-2.3c0.3-0.2,0.5-0.2,0.8-0.3c2-0.6,3.5-2.6,4.1-4.6C71.2,28.4,71.1,26.3,71,24.1z"/>
</g>
</svg>
