<?xml version="1.0" encoding="utf-8"?>
<!-- Generator: Adobe Illustrator 18.0.0, SVG Export Plug-In . SVG Version: 6.00 Build 0)  -->
<!DOCTYPE svg PUBLIC "-//W3C//DTD SVG 1.1//EN" "http://www.w3.org/Graphics/SVG/1.1/DTD/svg11.dtd">
<svg version="1.1" id="Layer_1" xmlns="http://www.w3.org/2000/svg" xmlns:xlink="http://www.w3.org/1999/xlink" x="0px" y="0px"
	 viewBox="0 0 72 72" enable-background="new 0 0 72 72" xml:space="preserve">
<g>
	<path fill="#0DB89A" d="M31.9,53.6c-0.3,0.1-0.6,0.2-0.9,0.4c0.3,0,0.6,0,0.9,0c-0.1,2.9-0.6,11.8-4.7,14.5c0,0-0.2,3.6,4.6,1.6
		c0.1-0.1,0.2-0.1,0.4-0.2c0,0,3.4,3.3,8.9,0.4c0,0-7.6-3.7-2.3-16.4c0.2,0,0.5,0,0.7,0c-1.3-0.3-2.6-0.4-3.9-0.5
		C34.3,53.3,33.1,53.3,31.9,53.6z"/>
	<path fill="#E77528" d="M43.9,37.6c6.8,5.7,15.7,1.6,15.7,1.6C44.4,33.9,39.1,0.5,39.1,0.5c-4.6,16.1-15.9,21.4-15.9,21.4
		c1.6,3.7,7.1,1,7.1,1C25.3,31.1,17,35.3,17,35.3c6.9,2.7,10.8-0.5,10.8-0.5C25.5,49.7,8,55.5,8,55.5s14-1.1,23-1.5
		c0.3-0.1,0.6-0.3,0.9-0.4c1.2-0.3,2.4-0.3,3.6-0.2c1.3,0.1,2.7,0.2,3.9,0.5c9.4,0.3,24.5,1.6,24.5,1.6
		C45.2,48.1,43.9,37.6,43.9,37.6z"/>
</g>
</svg>
