<?xml version="1.0" encoding="utf-8"?>
<!-- Generator: Adobe Illustrator 18.0.0, SVG Export Plug-In . SVG Version: 6.00 Build 0)  -->
<!DOCTYPE svg PUBLIC "-//W3C//DTD SVG 1.1//EN" "http://www.w3.org/Graphics/SVG/1.1/DTD/svg11.dtd">
<svg version="1.1" id="Layer_1" xmlns="http://www.w3.org/2000/svg" xmlns:xlink="http://www.w3.org/1999/xlink" x="0px" y="0px"
	 viewBox="0 0 72 72" enable-background="new 0 0 72 72" xml:space="preserve">
<g>
	<path fill="none" d="M31.7,36.5c1.1-0.2,2.1-1.1,2.3-2.2c0.1-0.3,0.1-0.5,0.1-0.8c-1.8-0.3-3.5-0.5-5.3-0.8c-0.3,0-0.7-0.1-1-0.1
		c0.5,0.7,0.6,1.7,1,2.4C29.4,36.1,30.6,36.7,31.7,36.5z"/>
	<path fill="none" d="M35.4,38.1c-0.2,0.7-0.1,1.6,0.5,2c0.8,0.5,1.8-0.2,2.4-1c0.7-0.9,1.3-1.9,2.1-2.7c0.1-0.1,0.3-0.3,0.4-0.4
		c-0.4-0.2-0.7-0.4-1.1-0.6c-0.5-0.3-0.9-0.7-1.5-1c-0.3-0.1-0.6-0.2-0.9-0.3c0,0.8-0.4,1.5-0.8,2.1C36.2,36.8,35.7,37.4,35.4,38.1z
		"/>
	<path fill="none" d="M39.7,35.4c0.3,0.2,0.7,0.4,1.1,0.6c0,0,0,0,0,0c-1-0.7-1.9-1.5-2.5-2.4c-0.3,0-0.6,0-0.9,0c0,0.2,0,0.3,0,0.5
		c0.3,0.1,0.6,0.2,0.9,0.3C38.8,34.6,39.2,35,39.7,35.4z"/>
	<path fill="none" d="M28.9,32.8c1.8,0.3,3.5,0.5,5.3,0.8c0,0,0-0.1,0-0.1c-2.2-0.2-4.3-0.6-6.1-1.2c-0.1,0.1-0.2,0.1-0.3,0.2
		c0,0,0.1,0.1,0.1,0.1c0,0,0.1,0.1,0.1,0.1C28.2,32.7,28.5,32.8,28.9,32.8z"/>
	<path fill="#E77528" d="M40.8,36c-0.1,0.1-0.3,0.3-0.4,0.4c-0.8,0.8-1.3,1.8-2.1,2.7c-0.6,0.7-1.6,1.4-2.4,1
		c-0.6-0.4-0.8-1.3-0.5-2c0.2-0.7,0.8-1.2,1.2-1.8c0.4-0.6,0.8-1.4,0.8-2.1c-0.3-0.1-0.7-0.1-1-0.2c-0.7-0.1-1.5-0.2-2.2-0.3
		c0,0.3-0.1,0.5-0.1,0.8c-0.2,1.1-1.2,2-2.3,2.2c-1.1,0.2-2.3-0.4-2.8-1.4c-0.4-0.8-0.5-1.7-1-2.4c-0.2,0-0.5,0-0.7,0.1
		C26.5,33,26,33.5,25.5,34c0,0,0,0-0.1,0.1c0.3,0.4,0.6,0.9,0.9,1.3c2.1,2.8,3.1,6.3,3.6,9.7c0.5,3.5,0.4,7,0.2,10.5
		c-0.1,2.5-0.2,5-0.2,7.5c0,1.4-0.1,2.8-0.8,4c-0.1,0.1-0.2,0.2-0.2,0.4c-3.6,0.4-6,1.1-6,1.9c0,1.2,5,2.2,11.3,2.2
		c6.2,0,11.3-1,11.3-2.2c0-1.1-3.9-1.9-9.1-2.1c0.8-4.5,0.5-9.1,0.9-13.7c0.4-5,2-10.3,5.9-13.4c0.8-0.6,1.7-1.3,2.2-2.1
		c-0.8-0.4-1.6-0.7-2.4-1C42.4,36.6,41.6,36.3,40.8,36z"/>
	<path fill="#0DB89A" d="M47.2,37.8c2.7,0,5.2-0.9,7-2.2c1.6,1.4,3.5,2.2,5.7,2.2c5.2,0,9.4-4.9,9.4-11s-4.2-11-9.4-11
		c0,0-0.1,0-0.1,0c0-0.3,0.1-0.6,0.1-1c0-5-4.6-9-10.2-9c-0.6,0-1.2,0.1-1.8,0.1c-1.1-2.8-3.3-4.7-6-4.7c-1.5,0-2.9,0.6-4,1.7
		c-1.6-1.5-3.8-2.4-6.3-2.4c-4,0-7.3,2.4-8.3,5.6c-1.1-0.2-2.3-0.3-3.6-0.3c-6.3,0-11.5,2.7-11.5,5.9c0,0.6,0.2,1.1,0.4,1.6
		c-3.7,2.2-6.1,5.7-6.1,9.6c0,6.7,7,12.1,15.5,12.1c2.5,0,4.9-0.5,7-1.3c0.1,0.1,0.1,0.2,0.2,0.3c0,0,0,0,0.1-0.1
		c0.5-0.5,0.9-0.9,1.6-1.1c0.2-0.1,0.5-0.1,0.7-0.1c0,0-0.1-0.1-0.1-0.1c0,0-0.1-0.1-0.1-0.1c0.1-0.1,0.2-0.1,0.3-0.2
		c1.9,0.6,3.9,1,6.1,1.2c0,0,0,0.1,0,0.1c0.7,0.1,1.5,0.2,2.2,0.3c0.3,0.1,0.7,0.1,1,0.2c0-0.2,0-0.3,0-0.5c0.3,0,0.6,0,0.9,0
		c0.6,0.9,1.5,1.7,2.5,2.4c0,0,0,0,0,0c0.7,0.4,1.5,0.6,2.3,0.9c0.8,0.3,1.6,0.7,2.4,1c0.1-0.1,0.1-0.2,0.1-0.3
		C46.2,37.7,46.7,37.8,47.2,37.8z"/>
</g>
</svg>
