<?xml version="1.0" encoding="utf-8"?>
<!-- Generator: Adobe Illustrator 18.0.0, SVG Export Plug-In . SVG Version: 6.00 Build 0)  -->
<!DOCTYPE svg PUBLIC "-//W3C//DTD SVG 1.1//EN" "http://www.w3.org/Graphics/SVG/1.1/DTD/svg11.dtd">
<svg version="1.1" id="Layer_1" xmlns="http://www.w3.org/2000/svg" xmlns:xlink="http://www.w3.org/1999/xlink" x="0px" y="0px"
	 viewBox="0 0 72 72" enable-background="new 0 0 72 72" xml:space="preserve">
<g>
	<path fill="#E77528" d="M40.6,47.2c0-0.6,0.7-1.3,0.3-1.6c-1.4-0.8-2.9-1.6-4.5-2c-1.6-0.4-3.4-0.3-4.8,0.6
		c-0.4,0.3-0.8,0.7-1.2,1.1c0.2-0.1,0.5-0.3,0.7-0.4v26.7h9.7V47.8c0,0,0,0,0,0C40.7,47.6,40.6,47.4,40.6,47.2z"/>
	<path fill="#0DB89A" d="M48,48.6c7.5,0,13.5-6.4,13.5-14.3c0-3.1-0.9-5.9-2.5-8.3c0.3-1.2,0.5-2.5,0.5-3.8c0-6.1-3.6-11.2-8.7-13.3
		c-0.7-4.8-5.5-8.5-11.2-8.5c-5.4,0-9.9,3.3-11.1,7.7C22.5,9,17.7,14.1,17,20.6c-3.9,2.5-6.5,7-6.5,12.2C10.5,40.6,16.5,47,24,47
		c2.3,0,4.5-0.6,6.5-1.8c0.3-0.4,0.7-0.8,1.2-1.1c1.4-0.9,3.2-1,4.8-0.6c1.6,0.4,3.1,1.2,4.5,2c0.5,0.3-0.3,1-0.3,1.6
		c0,0.2,0.1,0.4,0.2,0.5c0,0,0,0,0,0v-1.3C42.9,47.8,45.4,48.6,48,48.6z"/>
</g>
</svg>
