<?xml version="1.0" encoding="utf-8"?>
<!-- Generator: Adobe Illustrator 18.0.0, SVG Export Plug-In . SVG Version: 6.00 Build 0)  -->
<!DOCTYPE svg PUBLIC "-//W3C//DTD SVG 1.1//EN" "http://www.w3.org/Graphics/SVG/1.1/DTD/svg11.dtd">
<svg version="1.1" id="Layer_1" xmlns="http://www.w3.org/2000/svg" xmlns:xlink="http://www.w3.org/1999/xlink" x="0px" y="0px"
	 viewBox="0 0 72 72" enable-background="new 0 0 72 72" xml:space="preserve">
<g>
	<path fill="#0DB89A" d="M54.2,7.9c0,0-7.5,5-4.6,9.3C54.8,16.9,54.2,7.9,54.2,7.9z"/>
	<path fill="#0DB89A" d="M45.5,13.6c4.7-2.2,0.9-10.3,0.9-10.3S41.2,10.6,45.5,13.6z"/>
	<path fill="#0DB89A" d="M26.5,20.6c4.7-2.2,0.9-10.3,0.9-10.3S22.2,17.6,26.5,20.6z"/>
	<path fill="#0DB89A" d="M16.8,28.2c-0.4-5.2-9.4-4.4-9.4-4.4S12.6,31.2,16.8,28.2z"/>
	<path fill="#0DB89A" d="M53.5,22.8c5.2-0.3,4.6-9.3,4.6-9.3S50.5,18.5,53.5,22.8z"/>
	<path fill="#0DB89A" d="M21.6,20c2.9-4.4-4.7-9.3-4.7-9.3S16.4,19.8,21.6,20z"/>
	<path fill="#0DB89A" d="M40.9,19.7c4.6-2.5,0.2-10.4,0.2-10.4S36.4,17,40.9,19.7z"/>
	<path fill="#0DB89A" d="M36.9,10.9c4.6-2.5,0.2-10.4,0.2-10.4S32.4,8.2,36.9,10.9z"/>
	<path fill="#0DB89A" d="M32.4,13.6c4.6-2.5,0.2-10.4,0.2-10.4S27.9,10.9,32.4,13.6z"/>
	<path fill="#0DB89A" d="M50.6,35.9c4.8-2.1,1-10.3,1-10.3S46.4,32.9,50.6,35.9z"/>
	<path fill="#0DB89A" d="M40.4,31.2c0,0-7.6,5.1-4,9.4C42.1,40.2,40.4,31.2,40.4,31.2z"/>
	<path fill="#0DB89A" d="M43.6,22.8c5.2-0.3,4.6-9.3,4.6-9.3S40.7,18.5,43.6,22.8z"/>
	<path fill="#0DB89A" d="M45.5,28.2c5.2,0.6,6.1-8.4,6.1-8.4S43.4,23.5,45.5,28.2z"/>
	<path fill="#E77528" d="M54.6,33.6c1.4,4.8,9.9,2.7,9.9,2.7s-5.2-5.4-8.9-3.6c0.2-0.2,0.5-0.4,0.6-0.6c4.1-1.4,3.5-9.1,3.5-9.1
		s-7.4,4.9-4.6,9.2c-4,2.6-9,9.6-9,9.6c1.4-17-5.8-21-5.8-21c1.6,1.5,2.6,3.6,3.3,5.9c-2.3-2.3-6.8-3.1-6.8-3.1s2.9,8,7.6,6.8
		c1,6.3,0.1,12.7,0.1,12.7c-2.1,1.3-4.4,11.5-4.4,11.5c-5.3-6.9-7.6-12.8-7.6-12.8c-0.4-0.7-0.7-1.3-1-2c4-1.6,2.6-9.1,2.6-9.1
		s-3,2-4.3,4.6c-0.5-1.8-0.8-3.4-0.9-4.9c0.1,0.4,0.2,0.8,0.5,1.2c5.2-0.1,5-9.1,5-9.1s-5.1,3.1-5.6,6.6c0-3.7,1.1-6.4,2.2-8.2
		c0,0,0,0.1,0,0.1c5.1,1.1,6.9-7.8,6.9-7.8s-7.3,2.4-7.1,6.7c-5.1,5.4-3,16.2-3,16.2c-0.2-1-1.4-2.9-2.8-5.1
		c3.6-2.6,0.2-9.9,0.2-9.9s-2.4,3.3-2.6,6.4c-0.8-1.2-1.6-2.3-2.3-3.2c0.1-0.1,0.3-0.2,0.4-0.2c-0.4-5.2-9.4-4.4-9.4-4.4
		s4,5.8,7.9,5c0.5,1.9,1.2,3.8,2.1,5.9c-2.8-1.5-7.4-0.4-7.4-0.4s5,6.9,9.1,4c3.5,7.2,7.8,13.6,7.8,13.6c-0.9-0.1-2-0.5-3.1-1.2
		c0,0,0,0,0,0c-0.5-0.7-1.2-1.1-1.9-1.3c-1.1-0.9-2.1-1.9-2.9-2.7c-1-4.1-8.6-4.5-8.6-4.5s4,8.1,8.7,5.7c0-0.1,0-0.2,0-0.3
		c0.5,0.6,1,1.1,1.5,1.6c-3.3,0-7.1,3-7.1,3s7.4,3,9.9-0.7c2.4,1.7,4.4,2.3,4.4,2.3C40.6,62.3,35,71.5,35,71.5l9.9-0.1l-1.9-2.2
		c1.3-1.8,0-15.4,0-15.4c-0.1-3,0.9-6,2.5-8.9c2.3,3.8,9.8,1.3,9.8,1.3s-5.1-4.6-8.7-3.2c1-1.5,2-2.9,3.1-4.2
		c2.1,4.1,9.9,1.5,9.9,1.5s-4.8-4.3-8.4-3.3C52.5,35.7,53.7,34.5,54.6,33.6z"/>
</g>
</svg>
