<?xml version="1.0" encoding="utf-8"?>
<!-- Generator: Adobe Illustrator 18.0.0, SVG Export Plug-In . SVG Version: 6.00 Build 0)  -->
<!DOCTYPE svg PUBLIC "-//W3C//DTD SVG 1.1//EN" "http://www.w3.org/Graphics/SVG/1.1/DTD/svg11.dtd">
<svg version="1.1" id="Layer_1" xmlns="http://www.w3.org/2000/svg" xmlns:xlink="http://www.w3.org/1999/xlink" x="0px" y="0px"
	 viewBox="0 0 72 72" enable-background="new 0 0 72 72" xml:space="preserve">
<g>
	<path fill="#E77528" d="M25.9,51c-0.3,0-0.7,0-1,0.1c0.8,0.1,1.6,0.1,2.4,0.2c-0.1,0.4-0.2,0.9-0.3,1.3c-0.4,1.7-1.3,3.3-2.3,4.8
		c-0.5,0.8-1.1,1.6-1.4,2.5c-1,2.6-0.1,5.6-0.6,8.4c-0.1,0.3-0.1,0.7-0.4,0.9c-0.6,0.7-2.2,0.4-2.5,1.3c1.6,1.5,4.2,1.2,5.9-0.2
		c0.4-0.4,0.9-0.9,1.4-1c1.5-0.4,2.8,1.4,4.3,1.1c0.1-4.5-2.7-8.9-1.5-13.2c0.5-1.9,1.7-3.5,3-4.9c0-0.3,0-0.6,0.1-0.9
		C30.8,50.8,28.3,50.9,25.9,51z"/>
	<path fill="#FFD69A" d="M68,20.9c0-1.3-0.1-2.7-1-3.5c-1-0.9-2.6-0.7-4-0.6c-1.4,0.2-3.1,0.1-3.8-1.1c-0.2-0.4-0.3-0.8-0.4-1.3
		c-0.2-2.4,0.8-4.9-0.3-7.1c-0.8-1.6-2.5-2.4-4.2-2.9c-1.7-0.5-3.5-0.6-5.1-1.4c-0.5-0.3-1.2-0.6-1.7-0.4c-0.3,0.1-0.6,0.4-0.9,0.6
		c-1,0.8-2.5,0.9-3.7,0.5c-1.3-0.4-2.4-1.1-3.6-1.6c-2.9-1.4-6.2-2-9.4-1.6c-0.8,0.1-1.7,0.2-2.3,0.7c-0.7,0.5-1.2,1.3-1,2.1
		c0.1,0.5,0.4,0.9,0.5,1.4c0.1,1-1,1.7-2,1.8c-1,0.1-2,0-2.9,0.5c-1.2,0.7-1.6,2.2-1.5,3.6c0.1,1.4,0.7,2.7,0.8,4.1
		c0.1,1.4-0.3,3-1.5,3.6c-1,0.5-2.2,0.2-3.3,0.1c-2-0.2-4.3,0.3-5.6,1.8c-1.4,1.5-1.5,4.2,0,5.5c0.7,0.6,1.6,0.9,2.2,1.6
		c0.7,0.9,0.4,2.5-0.6,3.1c-0.9,0.5-2,0.3-2.9,0.5c-1.8,0.3-3.2,1.6-4.1,3.1c-0.9,1.6-1.2,3.4-1.4,5.1c-0.1,1-0.2,2.1,0.1,3.1
		c0.5,1.6,2,2.7,3,4.1c0.6,0.8,1,1.8,1.7,2.5c1.2,1.1,3,1.3,4.6,1.4c3.9,0.2,7.6,0.5,11.4,0.9c0.3-0.1,0.7-0.1,1-0.1
		c2.4-0.1,4.8-0.2,7.1,0.4c0,0.3-0.1,0.6-0.1,0.9c0.2-0.2,0.3-0.3,0.5-0.5c0.1,0,0.3,0,0.4,0c1.3,2.5,2.9,5.2,5.5,6.1
		c1.2,0.4,2.5,0.5,3.8,0.5c2.3,0,4.8-0.1,6.7-1.4c2.3-1.6,3.5-4.5,5.8-6c0.6-0.4,1.2-0.7,1.6-1.2c0.8-0.9,0.7-2.4-0.2-3.2
		c-0.6-0.6-1.5-0.8-2.2-1.2c-0.7-0.4-1.4-1.2-1.1-2c0.3-0.7,1.1-0.9,1.8-1.1c2-0.6,4.1-2,4.5-4c0.3-1.5,1.5-2.8,2-4.3
		c0.2-0.5,0.4-1,0.8-1.4c0.8-0.8,2.1-0.8,3-1.4c1.7-1,1.9-3.4,1.9-5.3C68,24.1,68,22.5,68,20.9z"/>
</g>
</svg>
