<?xml version="1.0" encoding="utf-8"?>
<!-- Generator: Adobe Illustrator 18.0.0, SVG Export Plug-In . SVG Version: 6.00 Build 0)  -->
<!DOCTYPE svg PUBLIC "-//W3C//DTD SVG 1.1//EN" "http://www.w3.org/Graphics/SVG/1.1/DTD/svg11.dtd">
<svg version="1.1" id="Layer_1" xmlns="http://www.w3.org/2000/svg" xmlns:xlink="http://www.w3.org/1999/xlink" x="0px" y="0px"
	 viewBox="0 0 72 72" enable-background="new 0 0 72 72" xml:space="preserve">
<g>
	<path fill="#E77528" d="M49.2,23.1c0,0-1.6,6.6-4.8,12.2c-2.7-9.2-6.8-17.4-13.2-20.7c0,0,4.3,12.8,6.6,28.4
		c-6.5-2.7-12.6-8.2-12.6-8.2c0.3,5.3,10.4,10.5,13.1,11.8c1,8.2,1.4,17,0.3,25h10.7c0,0-0.1-16.6-3.8-32.1
		C47.4,35.9,51.7,27.3,49.2,23.1z"/>
	<path fill="#0DB89A" d="M37.6,12.8c8.4-3.1,0-12.3,0-12.3S29.2,9.7,37.6,12.8z"/>
	<path fill="#0DB89A" d="M52.5,3.8c0,0-11.5,4.9-5.1,11.2C56.4,15.7,52.5,3.8,52.5,3.8z"/>
	<path fill="#0DB89A" d="M61.7,12.8c0,0-12.2,2.6-7.2,10C63.2,25.2,61.7,12.8,61.7,12.8z"/>
	<path fill="#0DB89A" d="M51.3,38.3c-1.7,8.8,10.5,6.4,10.5,6.4S58.3,32.7,51.3,38.3z"/>
	<path fill="#0DB89A" d="M54.5,30.8c3.3,8.3,12.3-0.3,12.3-0.3S57.3,22.3,54.5,30.8z"/>
	<path fill="#0DB89A" d="M25.4,15.5c5.3-7.2-6.7-10.3-6.7-10.3S16.7,17.5,25.4,15.5z"/>
	<path fill="#0DB89A" d="M18.4,22.7C20.3,14,8,16.2,8,16.2S11.3,28.2,18.4,22.7z"/>
	<path fill="#0DB89A" d="M16.7,33.1c0.1-8.9-11.5-4.4-11.5-4.4S10.9,39.9,16.7,33.1z"/>
	<path fill="#0DB89A" d="M22.7,55.4c0,0,11.5-4.7,5.3-11.1C19.1,43.5,22.7,55.4,22.7,55.4z"/>
	<path fill="#0DB89A" d="M10.8,46.3c0,0,12.3,2.2,10.4-6.5C14.2,34.3,10.8,46.3,10.8,46.3z"/>
	<path fill="#0DB89A" d="M34.1,32.9c1.7-9.5-14.8-12.3-14.8-12.3S25,36.3,34.1,32.9z"/>
</g>
</svg>
