<?xml version="1.0" encoding="utf-8"?>
<!-- Generator: Adobe Illustrator 18.0.0, SVG Export Plug-In . SVG Version: 6.00 Build 0)  -->
<!DOCTYPE svg PUBLIC "-//W3C//DTD SVG 1.1//EN" "http://www.w3.org/Graphics/SVG/1.1/DTD/svg11.dtd">
<svg version="1.1" id="Layer_1" xmlns="http://www.w3.org/2000/svg" xmlns:xlink="http://www.w3.org/1999/xlink" x="0px" y="0px"
	 viewBox="0 0 72 72" enable-background="new 0 0 72 72" xml:space="preserve">
<g>
	<path fill="#E77528" d="M31.3,57.3c-0.4,0.2-0.7,0.5-1,0.8l0.2,13.3h5.2v0h5.3l0.2-13c-1.4-1.5-3.8-1.7-5.9-1.8
		C34,56.7,32.5,56.7,31.3,57.3z"/>
	<path fill="#CFD0D1" d="M47.8,63V52.4c0,0,1.4,5.6,19.2,3c0,0-6.7-1.7-13-7.9c0,0,3.7,2.1,11.5,0c0,0-7.1-3.5-13-10.4
		c0,0,2.8,0.5,5.7-0.8c0,0-5.3-2.5-8.2-6.6c0,0,3,1.7,8,0c0,0-6.7-2.6-10.3-8.6c0,0,2.3-1.3,3.2-0.8c0,0-4.1-2.8-4.3-5.1
		c0,0,2.4,1.2,5.2,0.8c0,0-14-8.3-16.1-15.4c-2.1,7.1-15.9,15.4-15.9,15.4C22.7,16.2,25,15,25,15c-0.3,2.3-4.3,5.1-4.3,5.1
		c0.9-0.5,3.1,0.8,3.1,0.8c-3.5,5.9-10.1,8.6-10.1,8.6c4.9,1.7,7.9,0,7.9,0c-2.8,4.1-8,6.6-8,6.6c2.8,1.3,5.6,0.8,5.6,0.8
		C13.4,44,6.4,47.4,6.4,47.4c7.7,2.1,11.4,0,11.4,0C11.7,53.7,5,55.4,5,55.4c17.5,2.6,18.9-3,18.9-3V63l6.4-4.8v0
		c0.3-0.3,0.6-0.6,1-0.8c1.2-0.7,2.6-0.6,4-0.6c2.1,0.1,4.5,0.3,5.9,1.8l0-0.4L47.8,63z"/>
</g>
</svg>
