<?xml version="1.0" encoding="utf-8"?>
<!-- Generator: Adobe Illustrator 18.0.0, SVG Export Plug-In . SVG Version: 6.00 Build 0)  -->
<!DOCTYPE svg PUBLIC "-//W3C//DTD SVG 1.1//EN" "http://www.w3.org/Graphics/SVG/1.1/DTD/svg11.dtd">
<svg version="1.1" id="Layer_1" xmlns="http://www.w3.org/2000/svg" xmlns:xlink="http://www.w3.org/1999/xlink" x="0px" y="0px"
	 viewBox="0 0 72 72" enable-background="new 0 0 72 72" xml:space="preserve">
<g>
	<path fill="#294E58" d="M34.3,26.8c2.1,0.2,4.7-0.9,5.4-3.5c0.6-2.4,0.3-5,0.1-6.3c-0.2-0.9-0.1-1.8,0.1-2.6
		c0.4-1.1,1.1-2.3,2.7-1.9c0,0,2,0.4,2.4,1.9c0,0,0.3-4.3-3.9-3.6c0,0,6.9-5.6-0.3-10.4c0,0,3.6,3.6-0.5,5.7c0,0-2,0.9-2.8,2.2
		c0,0-0.2-1.5-1.4-2.1c0,0,0.5,2.7-2.5,5.1c-0.9,0.7-1.6,1.4-2.3,2.3c-1.2,1.7-2.6,4.6-1.5,7.9c0,0,0.8,3.2,2.5,4.6
		c0.7,0.3,1.4,0.6,2,1C34.3,27,34.3,26.9,34.3,26.8z"/>
	<path fill="#294E58" d="M37.3,33.5c0,0,0,0.1,0,0.1c0,0,0,0.1,0,0.1c0.4,1.6,2.6,3.3,4.5,2.1c1.4-0.9,2.5-2.4,2.9-3.2
		c0.3-0.5,0.8-1,1.3-1.3c0.7-0.4,1.5-0.6,2.1,0.5c0,0,0.7,1.3,0.2,2.3c0,0,2.2-2-0.1-4c0,0,5.7,0.8,4.7-5.5c0,0-0.1,3.7-2.9,2.6
		c0,0-1.3-0.6-2.2-0.4c0,0,0.6-0.8,0.4-1.8c0,0-1.1,1.7-3.5,1.2c-0.7-0.1-1.4-0.2-2.1,0c-1.3,0.2-3.3,1-4.3,3.3c0,0-0.9,1.7-1,3.2
		c0,0,0,0-0.1,0C37.2,33.1,37.2,33.3,37.3,33.5C37.3,33.5,37.3,33.5,37.3,33.5z"/>
	<path fill="#294E58" d="M27.4,36.5c1.1-1.1,1.7-3.1,0.2-4.4c-1.2-1.1-2.9-1.7-3.8-2c-0.6-0.2-1.2-0.5-1.6-0.9
		c-0.5-0.5-1-1.3-0.1-2.1c0,0,1-1,2.2-0.8c0,0-2.5-1.5-3.8,1.1c0,0-0.7-5.7-6.5-3c0,0,3.6-0.9,3.3,2.1c0,0-0.2,1.4,0.2,2.3
		c0,0-1-0.4-1.9,0.1c0,0,1.9,0.6,2.1,3c0.1,0.7,0.2,1.4,0.5,2c0.6,1.2,1.8,2.9,4.3,3.3c0,0,1.9,0.4,3.4,0.1c0,0,0.1,0.1,0.1,0.1
		C26.4,36.9,26.9,36.6,27.4,36.5z"/>
	<path fill="#294E58" d="M66.9,36.5c0,0-0.1,5.1-4.5,3.5c0,0-2.1-0.8-3.5-0.5c0,0,0.9-1.1,0.6-2.5c0,0-1.7,2.2-5.4,1.7
		c-1.1-0.2-2.2-0.2-3.2-0.1c-2.1,0.3-5.1,1.3-6.7,4.4c0,0-1.4,2.3-1.6,4.3c0.1,0.5,0.2,1.1,0.2,1.6c0.9,2,4,4.1,6.9,2.5
		c2.2-1.2,3.8-3.2,4.6-4.3c0.5-0.7,1.2-1.3,2-1.7c1-0.5,2.4-0.8,3.2,0.7c0,0,1.1,1.7,0.3,3.1c0,0,3.4-2.8-0.1-5.4
		C59.6,43.9,68.5,45,66.9,36.5z"/>
	<path fill="#E77528" d="M42.5,47.5c-2.2,1-4.6,2.3-6.5,3.8c-1.2-5.3-1.8-10.1-2-14.3c0.5-0.9,1.5-2,3.2-3.4c0-0.2,0-0.4,0-0.6
		c-1,0.6-2.2,1.2-3.2,2c0-3,0.1-5.6,0.3-7.8c-0.6-0.4-1.3-0.7-2-1c0.1,0.1,0.2,0.2,0.3,0.2c-1,3.6-1.6,8.1-2,12.9
		c-1-0.3-2.4-0.9-4.1-2.2c0,0,0.1,0,0.1-0.1c0,0,0.1,0,0.1,0c0.2-0.1,0.4-0.3,0.6-0.5c-0.5,0.1-1,0.4-1.3,0.9
		c1.3,1.3,2.9,2.8,4.5,3.6c0,0,0,0,0,0c-0.3,5.6-0.2,11.4-0.1,16.3c-1.1-0.4-2.5-1-4-1.8c0.1,0,0.1-0.1,0.2-0.1c0,0,0.1-0.1,0.1-0.1
		c0,0,0.1-0.1,0.1-0.1c-0.1,0-0.1,0.1-0.2,0.1c-0.3,0.2-0.6,0.4-0.9,0.6c1.4,1.1,3.1,2.4,4.8,3.3c0.3,6.2,0.7,10.5,0.7,10.5
		c6.4,3.9,11.2,0,11.2,0c-2.6-5.5-4.4-10.7-5.7-15.6c0.5-1.3,2-3.3,5.8-5.9c0,0.1,0,0.1,0,0.2c0,0,0,0.1,0,0.1
		c0,0.1,0.1,0.2,0.1,0.4C42.7,48.4,42.6,47.9,42.5,47.5C42.5,47.4,42.5,47.4,42.5,47.5z"/>
	<path fill="#294E58" d="M26.7,55.3c0.1,0,0.1-0.1,0.2-0.1c1.5-1.6,2.1-5.5-0.7-7.4c-2-1.4-4.6-1.9-5.9-2.2c-0.9-0.1-1.7-0.5-2.4-1
		c-0.9-0.7-1.8-1.8-0.8-3.2c0,0,1-1.7,2.6-1.6c0,0-4-1.7-4.7,2.5c0,0-3-8.4-9.9-3.1c0,0,4.6-2.2,5.2,2.4c0,0,0.2,2.2,1.1,3.3
		c0,0-1.5-0.3-2.5,0.6c0,0,2.7,0.5,3.9,4c0.3,1,0.8,2,1.4,2.9c1.2,1.7,3.5,4,7,4c0,0,2.8,0.2,4.6-0.6c0,0,0,0,0,0
		C26,55.7,26.4,55.5,26.7,55.3z"/>
</g>
</svg>
