<?xml version="1.0" encoding="utf-8"?>
<!-- Generator: Adobe Illustrator 18.0.0, SVG Export Plug-In . SVG Version: 6.00 Build 0)  -->
<!DOCTYPE svg PUBLIC "-//W3C//DTD SVG 1.1//EN" "http://www.w3.org/Graphics/SVG/1.1/DTD/svg11.dtd">
<svg version="1.1" id="Layer_1" xmlns="http://www.w3.org/2000/svg" xmlns:xlink="http://www.w3.org/1999/xlink" x="0px" y="0px"
	 viewBox="0 0 72 72" enable-background="new 0 0 72 72" xml:space="preserve">
<g>
	<path fill="#4DA0D8" d="M62,19.3c0-7.1-5.8-12.9-12.9-12.9c-1.7,0-3.3,0.3-4.7,0.9C42,3.3,37.6,0.5,32.5,0.5c-4.7,0-8.8,2.4-11.3,6
		c-4.9,0-8.9,4-8.9,8.9c0,1.1,0.2,2.1,0.6,3.1c-1.8,2-2.9,4.6-2.9,7.5c0,4,2.1,7.5,5.2,9.5c-0.5,1.4-0.8,2.9-0.8,4.5
		c0,7.1,5.8,12.9,12.9,12.9c0.6,0,1.3-0.1,1.9-0.2c0.2-0.1,0.3-0.1,0.5-0.2c1-0.4,2.1-0.5,3.2-0.5c1.5,0,3.1,0.3,4.3,1.1
		c0,0,0,0,0,0c1,0.2,2,0.4,3.1,0.4c6.9,0,12.5-5.4,12.9-12.2c3.7-1.1,6.5-4.5,6.5-8.5c0-1.6-0.4-3.1-1.2-4.4
		C60.6,26,62,22.8,62,19.3z"/>
	<path fill="#E77528" d="M29.6,52.5c-0.2,0.1-0.3,0.1-0.5,0.2c0.2,0,0.4-0.1,0.7-0.1c-0.3,2.9-0.8,5.7-0.7,8.6
		c0,1.7,0.2,3.5-0.2,5.2c-0.4,1.7-1.7,3.3-3.4,3.4c-0.3,0-0.5,0-0.8,0.1c-0.2,0.1-0.4,0.5-0.2,0.6c1.3-0.1,2.7-0.4,4-0.9
		c0.1,0.5,0.1,1.1,0.2,1.6c0.4,0.3,1,0,1.2-0.4c0.3-0.4,0.3-1,0.7-1.4c0.3-0.3,0.6-0.4,1-0.5c1.5-0.4,3.2-0.1,4.5,0.7
		c0.2,0.1,0.5-0.1,0.4-0.3c-1-2.2-1.9-4.4-2.1-6.7c-0.3-3.4,1-6.7,2.8-9.6c-1.2-0.8-2.8-1.2-4.3-1.1C31.7,52,30.7,52.2,29.6,52.5z"
		/>
</g>
</svg>
