<?xml version="1.0" encoding="utf-8"?>
<!-- Generator: Adobe Illustrator 18.0.0, SVG Export Plug-In . SVG Version: 6.00 Build 0)  -->
<!DOCTYPE svg PUBLIC "-//W3C//DTD SVG 1.1//EN" "http://www.w3.org/Graphics/SVG/1.1/DTD/svg11.dtd">
<svg version="1.1" id="Layer_1" xmlns="http://www.w3.org/2000/svg" xmlns:xlink="http://www.w3.org/1999/xlink" x="0px" y="0px"
	 viewBox="0 0 72 72" enable-background="new 0 0 72 72" xml:space="preserve">
<g>
	<path fill="#E77528" d="M31.8,20.2c0,0-4.4,39.7-2.8,46.6h4.4C33.4,66.9,30.9,21.5,31.8,20.2z"/>
	<path fill="#0DB89A" d="M71.5,41.8c0,0-4-0.6-10.5,2.3c-0.6,0.3-1.3,0.5-1.9,0.5c-2.2,0.1-7.2,0.1-10-2.4c0,0,3.9-2.5,12.8-2.1
		c0,0-6.4-1.2-12.8,0.8c0,0,0.9-6.3,9.5-5.5C58.6,35.3,65,35.7,71.5,41.8z"/>
	<path fill="#0DB89A" d="M65.8,22.1c0,0-3.8,1.5-8,7.1c-0.4,0.5-0.9,1-1.5,1.4c-1.9,1.2-6.2,3.6-9.9,2.7c0,0,2.2-4.1,10.2-8.1
		c0,0-6.2,2-10.8,6.9c0,0-2.3-6,5.6-9.4C51.4,22.7,57.2,19.9,65.8,22.1z"/>
	<path fill="#0DB89A" d="M40.2,27.6c0,0-0.5,2.1,0.7,5.7c0.1,0.3,0.2,0.7,0.2,1.1c-0.1,1.2-0.3,3.8-1.8,5.1c0,0-1.1-2.2-0.4-6.9
		c0,0-1,3.3-0.3,6.8c0,0-3.3-0.8-2.4-5.3C36,34.1,36.6,30.7,40.2,27.6z"/>
	<path fill="#0DB89A" d="M53.8,47.8c0,0-2.2-0.1-5.2-2.3c-0.3-0.2-0.6-0.4-1-0.5c-1.1-0.3-3.7-0.8-5.4,0.3c0,0,1.8,1.7,6.5,2.4
		c0,0-3.5,0-6.6-1.7c0,0-0.2,3.4,4.4,3.8C46.4,49.9,49.8,50.4,53.8,47.8z"/>
	<path fill="#0DB89A" d="M23.8,14.7c0,0-0.5,2.1,0.7,5.7c0.1,0.3,0.2,0.7,0.2,1.1c-0.1,1.2-0.3,3.8-1.8,5.1c0,0-1.1-2.2-0.4-6.9
		c0,0-1,3.3-0.3,6.8c0,0-3.3-0.8-2.4-5.3C19.7,21.1,20.2,17.8,23.8,14.7z"/>
	<path fill="#0DB89A" d="M18.2,37.2c0,0,1.2,1.2,4.2,1.8c0.3,0.1,0.5,0.2,0.8,0.3c0.8,0.5,2.5,1.8,2.8,3.3c0,0-2-0.1-4.9-2.5
		c0,0,1.9,2,4.6,3c0,0-1.9,1.9-4.6-0.5C21,42.7,18.9,40.9,18.2,37.2z"/>
	<path fill="#0DB89A" d="M24.6,26.9c0,0,0.7,1.6,0.2,4.6c0,0.3-0.1,0.6,0,0.8c0.2,0.9,0.7,2.9,2.1,3.8c0,0,0.6-1.9-0.5-5.5
		c0,0,1.2,2.5,1.1,5.3c0,0,2.5-1,1.3-4.5C28.6,31.5,27.8,28.9,24.6,26.9z"/>
	<path fill="#0DB89A" d="M11.1,31.3c0,0,1.6,0.7,4.6,0.2c0.3,0,0.6,0,0.8,0c0.9,0.2,2.9,0.8,3.8,2.1c0,0-1.9,0.6-5.5-0.6
		c0,0,2.5,1.2,5.3,1.1c0,0-1.1,2.5-4.5,1.2C15.6,35.3,13,34.5,11.1,31.3z"/>
	<path fill="#0DB89A" d="M37.9,57.3c0,0,0.1-1.7-1.4-4.3c-0.1-0.2-0.2-0.5-0.3-0.8c-0.1-0.9-0.3-3,0.6-4.3c0,0,1.2,1.5,1.4,5.3
		c0,0,0.3-2.7-0.9-5.4c0,0,2.7,0.1,2.7,3.8C40.1,51.6,40.2,54.3,37.9,57.3z"/>
	<path fill="#0DB89A" d="M0.5,8.8c0,0,2.3,3.4,8.8,6.1c0.6,0.3,1.2,0.6,1.7,1.1c1.6,1.5,4.9,5.2,5,9c0,0-4.5-1.1-10.2-8
		c0,0,3.4,5.5,9.3,8.9c0,0-5.2,3.7-10.5-3.2C4.5,22.7,0.4,17.7,0.5,8.8z"/>
	<path fill="#0DB89A" d="M37.6,5.1c0,0-1.6,3.8-0.5,10.7c0.1,0.7,0.1,1.3,0,2c-0.4,2.1-1.8,6.9-4.9,9c0,0-1.5-4.4,1.3-12.9
		c0,0-2.9,5.8-2.6,12.6c0,0-5.9-2.5-2.9-10.6C28.1,15.9,30.1,9.8,37.6,5.1z"/>
	<path fill="#0DB89A" d="M12.1,23.3c0,0,12.5,9.6,17.6,24.4v-3.5C29.7,44.2,24.7,30.9,12.1,23.3z"/>
	<path fill="#0DB89A" d="M49.9,29c0,0-13.7,12.5-17.9,29.9l-0.5-4C31.6,54.9,35.8,39.2,49.9,29z"/>
	<path fill="#0DB89A" d="M35,47v1.8c10.2-6.6,20.3-8.9,20.3-8.9C47,40.8,40,44,35,47z"/>
</g>
</svg>
