<?xml version="1.0" encoding="utf-8"?>
<!-- Generator: Adobe Illustrator 18.0.0, SVG Export Plug-In . SVG Version: 6.00 Build 0)  -->
<!DOCTYPE svg PUBLIC "-//W3C//DTD SVG 1.1//EN" "http://www.w3.org/Graphics/SVG/1.1/DTD/svg11.dtd">
<svg version="1.1" id="Layer_1" xmlns="http://www.w3.org/2000/svg" xmlns:xlink="http://www.w3.org/1999/xlink" x="0px" y="0px"
	 viewBox="0 0 72 72" enable-background="new 0 0 72 72" xml:space="preserve">
<g>
	<path fill="#06728D" d="M16.7,44.5c1.4-0.4-0.7-2.9-0.7-2.9C14.5,44.6,16.7,44.5,16.7,44.5z"/>
	<path fill="#06728D" d="M13.9,44.3c1,0.8,1.2-3.5,1.2-3.5C12.5,42.5,13.9,44.3,13.9,44.3z"/>
	<path fill="#06728D" d="M10,39.9c-0.2,1.3,3.6-0.7,3.6-0.7C10.8,37.9,10,39.9,10,39.9z"/>
	<path fill="#06728D" d="M13.7,30.2c-0.5,1.1,2.1,1,2.1,1C14.7,28.8,13.7,30.2,13.7,30.2z"/>
	<path fill="#06728D" d="M16.8,31.1c0.2-2.5-1.6-2.5-1.6-2.5C14.2,28.8,16.8,31.1,16.8,31.1z"/>
	<path fill="#06728D" d="M20,28.4c-0.7-0.8-1.4,2.6-1.4,2.6C20.8,30,20,28.4,20,28.4z"/>
	<path fill="#06728D" d="M11.6,27.4c1.1,0.9,2-2.2,2-2.2C10.3,25.7,11.6,27.4,11.6,27.4z"/>
	<path fill="#06728D" d="M10.2,25c-0.1,1.3,3.6-1,3.6-1C10.9,22.9,10.2,25,10.2,25z"/>
	<path fill="#06728D" d="M11.7,19.3c-1.2,0.6,2.6,2.6,2.6,2.6C13.8,18.9,11.7,19.3,11.7,19.3z"/>
	<path fill="#06728D" d="M16.8,5.8c0,0-1.8-1.2-2,2.1C14.8,7.9,17.8,6.8,16.8,5.8z"/>
	<path fill="#06728D" d="M14.3,4.5c0,0-2,0.8-0.7,3.6C13.5,8.2,15.5,4.4,14.3,4.5z"/>
	<path fill="#06728D" d="M11.5,8.9c0,0-2.3-3.7-2.8-2.5C8.7,6.4,8.4,8.6,11.5,8.9z"/>
	<path fill="#06728D" d="M7.9,20.3c1,1.1,2.2-1.9,2.2-1.9C6.8,18.4,7.9,20.3,7.9,20.3z"/>
	<path fill="#06728D" d="M6.8,17.7c-0.2,1.3,3.7-0.6,3.7-0.6C7.7,15.7,6.8,17.7,6.8,17.7z"/>
	<path fill="#06728D" d="M11.2,15.1c-0.2-3.1-2.3-2.9-2.3-2.9C7.7,12.7,11.2,15.1,11.2,15.1z"/>
	<path fill="#06728D" d="M23.5,5.5c-2.3-2.5-2.9-0.4-2.9-0.4C20.5,6.6,23.5,5.5,23.5,5.5z"/>
	<path fill="#06728D" d="M24.6,5c-0.8-3-2.9-2.3-2.9-2.3C20.6,3.3,24.6,5,24.6,5z"/>
	<path fill="#06728D" d="M27.2,0.6c-1.1-0.6-0.6,3.7-0.6,3.7C28.8,2.1,27.2,0.6,27.2,0.6z"/>
	<path fill="#06728D" d="M21.4,14.1c0,0,3.1,0.9,2.9-0.5C24.3,13.6,23.5,11.6,21.4,14.1z"/>
	<path fill="#06728D" d="M23,11.1c0,0-2.1-0.5-2.8,2.5C20.2,13.6,24.1,11.8,23,11.1z"/>
	<path fill="#06728D" d="M17.4,9.4c0,0-1.5,1.6,0.8,3.6C18.2,13,18.5,8.7,17.4,9.4z"/>
	<path fill="#06728D" d="M31.1,25c0,0,2.4,2.2,2.8,0.8C34,25.8,34.2,23.6,31.1,25z"/>
	<path fill="#06728D" d="M33.9,23c0,0-1.7-1.4-3.5,1.1C30.3,24,34.6,24,33.9,23z"/>
	<path fill="#06728D" d="M28.7,22.6c0,0,2.2-3.7,0.9-3.6C29.6,19,27.6,19.7,28.7,22.6z"/>
	<path fill="#06728D" d="M49.1,12.6c0,0,2.4,2.2,2.8,0.8C52,13.4,52.2,11.2,49.1,12.6z"/>
	<path fill="#06728D" d="M48.3,11.7c0,0,4.3,0,3.5-1.1C51.9,10.6,50.2,9.2,48.3,11.7z"/>
	<path fill="#06728D" d="M47.6,6.6c0,0-2,0.8-0.9,3.6C46.7,10.2,48.9,6.5,47.6,6.6z"/>
	<path fill="#06728D" d="M51.4,23.4c0,0,2.4,2.2,2.8,0.8C54.2,24.2,54.4,22,51.4,23.4z"/>
	<path fill="#06728D" d="M50.5,22.4c0,0,4.3,0,3.5-1.1C54.1,21.4,52.4,20,50.5,22.4z"/>
	<path fill="#06728D" d="M49,21c0,0,2.2-3.7,0.9-3.6C49.8,17.4,47.8,18.2,49,21z"/>
	<path fill="#E77528" d="M59.7,27.9c2.8,0.3,2.5-1.6,2.5-1.6c-2.8,1.3-5.4-0.2-5.9-0.5c1.4-1.3,2.6-2.4,3.3-3c2.5-1,4.2,1.6,4.2,1.6
		c1.5-2.8-3.6-2.8-3.6-2.8c2.8-4.4,5.2-3.8,5.2-3.8c-2.1-3.5-5.4,2.7-5.4,2.7c0.5-2.8-1.4-2.6-1.4-2.6c1,2.4-0.1,4.7-0.6,5.6
		C52.9,26.6,46.9,35,46.9,35c0.3-3.6,0.3-6.8,0-9.5c3.2-2.5,5.4,0.9,5.4,0.9c1.5-2.8-3.6-2.8-3.6-2.8c2.8-4.4,5.2-3.8,5.2-3.8
		c-2.1-3.5-5.4,2.7-5.4,2.7c0.5-2.8-1.4-2.6-1.4-2.6c0.7,1.8,0.3,3.5-0.1,4.6c-0.5-4-1.4-7.1-2.5-9.3c3.4-3,5.7,0.6,5.7,0.6
		c1.5-2.8-3.6-2.8-3.6-2.8C49.3,8.4,51.6,9,51.6,9c-2.1-3.5-5.4,2.7-5.4,2.7C46.7,8.9,44.8,9,44.8,9c1,2.4-0.1,4.6-0.6,5.6
		c-0.6-1.1-1.2-2-1.7-2.8C42.2,11,41.5,8.3,43.3,6c0,0-1.8-0.7-2.1,2.1c0,0-1.4-6.8-4.5-4.1c0,0,2.4,0.1,3.9,5.2
		c0,0-4.9-1.5-4.3,1.6c0,0,2.6-2.2,4.9,0.1c2,2.7,3.1,6.2,3.7,9.8c-0.8-0.8-2.3-2.5-2.2-5c0,0-1.9,0.4-0.6,2.9c0,0-5-4.9-6-0.9
		c0,0,2.1-1.2,6.1,2.1c0,0-4.9,1.5-2.7,3.7c0,0,1.2-4.2,5.4-2.2c0.4,3,0.5,5.9,0.5,8.4c-0.8-0.9-2-2.5-1.9-4.8c0,0-1.9,0.4-0.6,2.9
		c0,0-5-4.9-6-0.9c0,0,2.1-1.2,6.1,2.1c0,0-4.9,1.5-2.7,3.7c0,0,1.1-3.9,5-2.3c-0.1,3.5-0.5,6-0.5,6c-0.7,0.4-1.4,1.6-2.1,3.2
		c-0.8-2.4,1.8-3.3,1.8-3.3c-1.8-1.6-2.7,2.1-2.7,2.1c-2.7-2.9-1.8-4.5-1.8-4.5C37.2,35,41,38.6,41,38.6c-1.9-0.9-2.2,0.6-2.2,0.6
		c1.8-0.2,3.1,0.7,3.7,1.3c-1.7,4.2-3.1,10.3-3.1,10.3c-5-6.5-7.8-12.2-8.9-14.5c3.1-2.2,5.2,1,5.2,1c1.5-2.8-3.6-2.8-3.6-2.8
		c2.8-4.4,5.2-3.8,5.2-3.8c-2.1-3.5-5.4,2.7-5.4,2.7c0.5-2.8-1.4-2.6-1.4-2.6c0.7,1.9,0.3,3.6-0.2,4.8c-0.1-0.2-0.1-0.3-0.1-0.3
		c-1.5-2.9-2.6-5.5-3.3-8c3.1-2.3,5.3,0.9,5.3,0.9c1.5-2.8-3.6-2.8-3.6-2.8c2.8-4.4,5.2-3.8,5.2-3.8c-2.1-3.5-5.4,2.7-5.4,2.7
		c0.5-2.8-1.4-2.6-1.4-2.6c0.7,1.9,0.3,3.6-0.2,4.7c-1.3-4.8-1.1-8.6-0.4-11.6l0,0.1c4.4-2,5.5,2.3,5.5,2.3c2.4-2.2-2.5-3.9-2.5-3.9
		c4.1-3.2,6.2-1.9,6.2-1.9c-0.8-4-6,0.7-6,0.7c1.4-2.5-0.5-3-0.5-3c0.1,2.8-1.9,4.5-2.6,5.1c1.6-5.6,5.1-8.1,5.1-8.1
		c-1.7,0.8-3,1.9-4.1,3.3c-0.1-1.1-0.2-3.4,1.6-5.3c0,0-1.7-0.9-2.3,1.9c0,0-0.7-6.9-4-4.5c0,0,2.4,0.4,3.3,5.5c0,0-4.7-2-4.4,1.2
		c0,0,3.6-2.4,5.5,1.7c-4.8,6.9-2.5,18.4-2.5,18.4c-0.4-1.7-3.4-6.3-6.1-10.2c1.8-3.5,5.2-1.4,5.2-1.4c0.1-3.2-4.5-1-4.5-1
		c0.7-5.2,3.1-5.7,3.1-5.7c-3.4-2.2-3.8,4.7-3.8,4.7c-0.8-2.7-2.4-1.8-2.4-1.8c1.4,1.3,1.8,3,1.8,4.2c-1.2-1.7-2.3-3.3-3.2-4.4
		c-0.5-3.7,3.3-4.1,3.3-4.1c-1.8-2.7-4.2,1.9-4.2,1.9C11.1,5.8,12.8,4,12.8,4C8.7,4.2,12.5,10,12.5,10c-2.2-1.8-3,0-3,0
		c2,0.2,3.3,1.5,4.1,2.4c0.4,1.6,0.9,3.4,1.5,5.2c-1-0.7-2.5-2.2-2.6-4.5c0,0-1.8,0.7-0.1,3c0,0-5.6-4.1-6.1,0c0,0,1.9-1.5,6.4,1.2
		c0,0-4.6,2.2-2.1,4.1c0,0,0.6-4.2,4.8-3c0.6,1.6,1.3,3.2,2,4.8c-0.9-0.7-1.8-1.8-2.1-3.4c0,0-1.7,0.9,0.2,3c0,0-6.1-3.5-6,0.6
		c0,0,1.7-1.7,6.4,0.5c0,0-4.4,2.7-1.6,4.3c0,0,0.1-3.7,3.7-3.6c4.4,9.1,10,17.6,10,17.6c-3.3-0.2-7.8-4.5-10.3-7.2
		c0.1-0.8,0.7-2.8,2.6-3.7c0,0-1.1-1.1-2.3,0.8c0,0,1.3-5.5-1.9-4.5c0,0,1.7,0.9,1.1,5.1c0,0-3.1-2.8-3.7-0.2c0,0,2.8-0.8,3.6,1.9
		c-0.8-0.8-1.2-1.4-1.2-1.4c0.4,0.8,0.9,1.6,1.4,2.3c0,0.1,0,0.1,0,0.2l0.1,0c0.2,0.3,0.5,0.7,0.7,1c-0.8,0.5-3.2,1.7-5.8,0.6
		c0,0-0.2,1.9,2.6,1.5c0,0-6.3,3.1-2.8,5.4c0,0-0.5-2.4,4-5.1c0,0-0.2,5.1,2.7,3.7c0,0-3.5-2.5-0.4-5.7c4.7,5.7,10.6,7.8,10.6,7.8
		c10.7,15.5,3.9,26.8,3.9,26.8l12.2-0.2L43,68.6c1.6-2.2,0-19,0-19c-0.1-4.8,2-9.7,4.9-14c1.6,2.5,4.2-1.8,4.2-1.8
		c2.3,4.7,0.6,6.4,0.6,6.4c4.1,0,0.6-6,0.6-6c2.1,1.9,3,0.1,3,0.1c-2.9-0.5-4.3-3.1-4.6-3.8c1.5-1.7,3-3.3,4.3-4.6
		c3.5,3.2,0,5.9,0,5.9c2.9,1.3,2.6-3.8,2.6-3.8c4.6,2.5,4.2,4.9,4.2,4.9C66.1,30.8,59.7,27.9,59.7,27.9z M48,35.5
		c1-1.6,2.2-3,3.3-4.4C51.9,34.9,48.8,35.4,48,35.5z"/>
	<path fill="#06728D" d="M58.4,33.8c0,0,2.2,0.1,0.6-2.9C58.9,30.9,56.9,33.4,58.4,33.8z"/>
	<path fill="#06728D" d="M59.9,30c0,0,0.3,4.3,1.3,3.5C61.2,33.5,62.4,31.7,59.9,30z"/>
	<path fill="#06728D" d="M61.2,28.4c0,0,3.9,1.9,3.6,0.6C64.9,29,64,27,61.2,28.4z"/>
	<path fill="#06728D" d="M48.8,38.3c0,0,1.7,1.3,2.1-2C50.9,36.3,47.8,37.2,48.8,38.3z"/>
	<path fill="#06728D" d="M51.2,39.7c0,0,2.1-0.7,0.9-3.6C52.2,36.1,49.9,39.8,51.2,39.7z"/>
	<path fill="#06728D" d="M54.2,35.5c0,0,2.1,3.8,2.6,2.6C56.9,38.1,57.3,36,54.2,35.5z"/>
	<path fill="#06728D" d="M43.4,34.7c0,0-1.5-0.6-1.1,1.9C42.3,36.6,44.3,35.3,43.4,34.7z"/>
	<path fill="#06728D" d="M41.3,34.3c0,0-1.3,1,0.1,2.8C41.4,37,42.2,33.9,41.3,34.3z"/>
	<path fill="#06728D" d="M40.1,37.9c0,0-2.3-2.3-2.4-1.3C37.6,36.6,37.8,38.2,40.1,37.9z"/>
	<path fill="#06728D" d="M62.9,21.4c0,0,2.4,2.2,2.8,0.8C65.7,22.1,65.9,20,62.9,21.4z"/>
	<path fill="#06728D" d="M62,20.4c0,0,4.3,0,3.5-1.1C65.6,19.3,63.9,18,62,20.4z"/>
	<path fill="#06728D" d="M61.3,15.3c0,0-2,0.8-0.9,3.6C60.5,19,62.6,15.2,61.3,15.3z"/>
	<path fill="#06728D" d="M31.9,13.8c0,0,1.5,2.8,2.4,1.7C34.3,15.5,35.2,13.5,31.9,13.8z"/>
	<path fill="#06728D" d="M35.1,12.8c0,0-1.1-1.9-3.7-0.2C31.4,12.6,35.5,14,35.1,12.8z"/>
	<path fill="#06728D" d="M30.4,10.7c0,0,3.3-2.8,2-3.1C32.5,7.6,30.3,7.6,30.4,10.7z"/>
	<path fill="#06728D" d="M37.7,34.9c0,0,0.2-2.2-2.8-0.8C34.9,34.2,37.3,36.3,37.7,34.9z"/>
	<path fill="#06728D" d="M37.6,32.1c0,0-1.7-1.4-3.5,1.1C34.1,33.2,38.4,33.2,37.6,32.1z"/>
	<path fill="#06728D" d="M33.3,28.1c0,0-2,0.8-0.9,3.6C32.5,31.7,34.6,28,33.3,28.1z"/>
	<path fill="#06728D" d="M38.1,8.2c-2.5-2.2-2.9-0.1-2.9-0.1C35.2,9.6,38.1,8.2,38.1,8.2z"/>
	<path fill="#06728D" d="M39.1,7.5c-1.1-2.9-3.1-2-3.1-2C35,6.3,39.1,7.5,39.1,7.5z"/>
	<path fill="#06728D" d="M41.3,2.9c-1.2-0.5-0.2,3.7-0.2,3.7C43,4.2,41.3,2.9,41.3,2.9z"/>
	<path fill="#06728D" d="M37.1,22c0.8,1.2,2.5-1.6,2.5-1.6C36.2,20,37.1,22,37.1,22z"/>
	<path fill="#06728D" d="M36.3,19.3c-0.4,1.2,3.7,0,3.7,0C37.6,17.5,36.3,19.3,36.3,19.3z"/>
	<path fill="#06728D" d="M39.2,14.2c-1.3,0.2,1.9,3.2,1.9,3.2C41.4,14.4,39.2,14.2,39.2,14.2z"/>
	<path fill="#06728D" d="M40.4,29.8c-3.3-0.4-2.5,1.6-2.5,1.6C38.8,32.6,40.4,29.8,40.4,29.8z"/>
	<path fill="#06728D" d="M37.2,28.7c-0.4,1.2,3.7,0,3.7,0C38.4,26.9,37.2,28.7,37.2,28.7z"/>
	<path fill="#06728D" d="M40.1,23.6c-1.3,0.2,1.9,3.2,1.9,3.2C42.3,23.7,40.1,23.6,40.1,23.6z"/>
</g>
</svg>
