<?xml version="1.0" encoding="utf-8"?>
<!-- Generator: Adobe Illustrator 18.0.0, SVG Export Plug-In . SVG Version: 6.00 Build 0)  -->
<!DOCTYPE svg PUBLIC "-//W3C//DTD SVG 1.1//EN" "http://www.w3.org/Graphics/SVG/1.1/DTD/svg11.dtd">
<svg version="1.1" id="Layer_1" xmlns="http://www.w3.org/2000/svg" xmlns:xlink="http://www.w3.org/1999/xlink" x="0px" y="0px"
	 viewBox="0 0 72 72" enable-background="new 0 0 72 72" xml:space="preserve">
<g>
	<path fill="#E8B944" d="M58.6,19.5c-0.3-0.3-0.6-0.6-0.8-1c-0.2-0.4,0-1,0.3-1.3c0.2-0.2,0.4-0.3,0.6-0.5c0.5-0.5,0.3-1.4,0-2
		c-0.3-0.7-0.8-1.3-0.8-2c-0.1-0.8,0.4-1.6,0.6-2.4c0.4-2.2-1.7-4.3-4-4.5c-0.7-0.1-1.5,0-2.2,0c-2.5-0.1-4.9-1.4-6.8-3.1
		c-0.8-0.7-1.5-1.4-2.5-1.8c-0.9-0.4-2.2-0.4-2.9,0.4c-0.2,0.2-0.3,0.4-0.5,0.6C39.3,2,38.9,2,38.5,2c-1.3,0.1-2.7,0.1-3.9-0.1
		c-0.7-0.2-1.5-0.4-2.2-0.5c-1.9-0.2-3.6,0.7-5.4,1.2C25.5,3,24,3,22.5,2.7c-1-0.2-2-0.6-3.1-0.7c-1.1-0.1-2.2,0-3,0.7
		c-0.5,0.5-0.9,1.1-1.1,1.8C15,5.4,15,6.3,15.6,6.9c0.2,0.2,0.4,0.3,0.5,0.5c0.5,0.7-0.4,1.6-1.2,1.8s-1.8,0.3-2.3,1
		c-0.2,0.3-0.3,0.7-0.4,1c-0.3,1.4-0.5,3,0.5,4c0.2,0.3,0.5,0.5,0.7,0.8c0.6,0.9,0,2-0.4,3c-0.4,1.1-0.6,2.3-0.4,3.4
		c0.1,0.4,0.1,0.7,0.4,1c0.6,0.7,1.8,0.2,2.8,0.5c1.8,0.5,1.9,3.1,3.5,4.1c1,0.7,2.3,0.5,3.5,0.2c0.2,0,0.5-0.1,0.7-0.2
		c0.3-0.2,0.3-0.6,0.4-1c0.4-1.2,1.7-1.8,2.9-1.8c0.2,0,0.4,0,0.6,0.1c0.4,0.3,1,0.8,1.6,1.3c0.3-0.1,0.6-0.3,0.9-0.4
		c0.1,0,0.2-0.1,0.3-0.1c0-0.3-0.1-0.6-0.1-0.9c0-1.3,1.8-1.6,2.3-0.5c0,0,0,0,0,0c0.3,0.7,0.7,1.3,1.3,1.8c1.4,0.3,2.9,0.1,4.2-0.6
		c0.2-0.1,0.4-0.2,0.5-0.3c0-0.3,0-0.6,0.1-0.9c0.5-0.3,1-0.5,1.6-0.4c0.9,0.2,1.3,0.6,1.5,1c0.3,0.5,0.3,1.1,0.2,1.6
		c0,0.3,0,0.6,0.1,0.8c0.3,1,1.2,1.7,2.1,2.2c2.1,1.3,4.8,2.4,7,1.2c1.6-0.9,2.5-2.8,2.5-4.7c0-0.6,0-1.2,0.5-1.5
		c0.2-0.1,0.4-0.1,0.7-0.1c1.5,0,3,0.6,4.2-0.5c0.3-0.3,0.6-0.7,0.7-1.1C60.2,21.9,59.6,20.5,58.6,19.5z"/>
	<path fill="#E77528" d="M41.7,25.4c0.1,0.2,0.2,0.5,0.2,0.8c-1.7,0.7-2.8,2-3.7,3.2c0.1-1.2,0.2-2.5,0.3-3.7
		c-0.2,0.1-0.4,0.2-0.5,0.3c-1.2,0.7-2.8,0.9-4.2,0.6c0.1,0.1,0.3,0.2,0.5,0.3c0.1,1.5,0.2,3.1,0.3,4.6c-0.7-1.5-2-3.8-4.3-5.4
		c0,0,0,0,0,0c-0.1,0-0.2,0.1-0.3,0.1c-0.3,0.1-0.6,0.3-0.9,0.4c2.1,1.8,4.9,4.6,5.7,7.1c0,0.8,0.1,1.5,0.1,2.3
		c0.2,6-0.5,11.9-1.2,17.8c-0.5,4.2-0.2,8.8-0.7,13c-0.1,0.3-0.3,0.6-0.4,0.9c0,0,0,0,0,0c-0.3,0.8-0.9,1.6-1.7,2.2
		C29.9,70.3,29,70.6,28,71c1.6,0.1,3.2-0.2,4.5-0.8c0.1-0.1,0.3-0.1,0.4-0.2c0.6,0.5,1.4,0.7,2.2,0.7c0.5,0,1-0.1,1.5-0.3
		c0,0,0,0,0,0c0.1,0.1,0.3,0.2,0.5,0.2c1.7,0.4,3.4,0.7,5.1,1c-0.6-0.7-1.3-1.3-1.9-2c-0.4-0.4-0.8-0.9-1.5-1.1c0,0-0.1,0-0.1,0
		c1.1-1.9,0.8-4.6,0.5-6.9c-1.4-10.2-1.8-20.5-1.2-30.7c1.1-1.5,2.6-2.9,3.8-3.9c0,0,0,0.1,0,0.1C42,26.5,41.9,25.8,41.7,25.4z"/>
</g>
</svg>
