<?xml version="1.0" encoding="utf-8"?>
<!-- Generator: Adobe Illustrator 18.0.0, SVG Export Plug-In . SVG Version: 6.00 Build 0)  -->
<!DOCTYPE svg PUBLIC "-//W3C//DTD SVG 1.1//EN" "http://www.w3.org/Graphics/SVG/1.1/DTD/svg11.dtd">
<svg version="1.1" id="Layer_1" xmlns="http://www.w3.org/2000/svg" xmlns:xlink="http://www.w3.org/1999/xlink" x="0px" y="0px"
	 viewBox="0 0 72 72" enable-background="new 0 0 72 72" xml:space="preserve">
<g>
	<path fill="#F04B36" d="M28.1,22.2c0.5,0,1,0,1.5,0c0-0.1,0-0.2,0-0.3c3-0.7,5.3-3.4,5.3-6.6c0-3.8-3.1-6.8-6.8-6.8
		c-3.8,0-6.8,3.1-6.8,6.8c0,3.4,2.4,6.1,5.6,6.7c0,0.1,0,0.2,0,0.2C27.3,22.2,27.7,22.2,28.1,22.2z"/>
	<path fill="#F04B36" d="M44,30.8c1.1,2.3,3.4,3.8,6.1,3.8c3.8,0,6.8-3.1,6.8-6.8S53.9,21,50.2,21c-3.8,0-6.8,3.1-6.8,6.8
		c0,0.1,0,0.2,0,0.4c0,0-0.1,0-0.1,0C43.4,29.1,43.6,29.9,44,30.8C44,30.8,44,30.8,44,30.8z"/>
	<path fill="#F04B36" d="M34.7,53.1C34.7,53,34.8,53,34.7,53.1c1.2,0.6,2.4,1,3.8,1c3.8,0,6.8-3.1,6.8-6.8c0-3.8-3.1-6.8-6.8-6.8
		c-3.8,0-6.8,3.1-6.8,6.8c0,1.3,0.4,2.5,1,3.6c0.5,0.3,1,0.5,1.3,0.9C34.4,52.2,34.5,52.6,34.7,53.1z"/>
	<path fill="#E77528" d="M45.6,13.3C45.6,13.4,45.6,13.4,45.6,13.3c-1.9,1.5-8.4,6.5-13.7,15.3c-1.4-2.2-2-4.6-2.3-6.4
		c-0.5,0-1,0-1.5,0c-0.4,0-0.8,0-1.2,0c0.3,2.4,1.2,5.9,3.6,8.9c-2.3,4.4-4.3,9.7-5.3,15.7c-1-1.6-1.6-3.4-2-4.9
		c-0.1,0.1-0.3,0.1-0.4,0.2c-0.8,0.5-1.4,1.1-1.9,1.8c0.6,2,1.6,4.2,3.3,6.2c0.1,0.2,0.3,0.3,0.5,0.3c-0.4,4.3-0.4,9.1,0.3,14.2
		c-5.1,0.1-9.1,1.6-9.1,3.4c0,1.9,4.4,3.4,9.8,3.4s9.8-1.5,9.8-3.4c0-1.6-3.3-3-7.8-3.3c-0.4-2.9-0.6-5.7-0.6-8.3
		c3.2-0.6,5.8-2,7.7-3.4c-0.2-0.5-0.3-0.9-0.7-1.3c-0.4-0.4-0.9-0.6-1.3-0.9c0,0.1,0.1,0.1,0.1,0.2c-1.5,1.1-3.4,2.1-5.7,2.7
		c0.4-9.7,3.4-17.6,7-23.5c2,0.7,4,1,5.9,1c1.5,0,2.9-0.2,4-0.4c-0.4-0.8-0.6-1.7-0.7-2.6c-2,0.4-4.8,0.6-7.7-0.3
		c5-7.4,10.5-11.5,11.8-12.4c-0.2-0.5-0.6-1-1-1.4C46.1,13.8,45.9,13.5,45.6,13.3z"/>
	<path fill="#F04B36" d="M22.7,42.3c0.1-0.1,0.3-0.1,0.4-0.2c0,0,0-0.1,0-0.1c1.6-1.2,2.6-3.2,2.6-5.3c0-3.8-3.1-6.8-6.8-6.8
		S12,32.9,12,36.7c0,3.8,3.1,6.8,6.8,6.8c0.6,0,1.2-0.1,1.7-0.2c0.1,0.3,0.2,0.6,0.2,0.8C21.3,43.4,21.9,42.8,22.7,42.3z"/>
	<path fill="#F04B36" d="M47.7,15.3c1.2,0.8,2.7,1.3,4.3,1.3c4.4,0,8-3.6,8-8c0-4.4-3.6-8-8-8c-4.4,0-8,3.6-8,8
		c0,1.8,0.6,3.5,1.6,4.8c0.3,0.2,0.6,0.4,0.8,0.7c0.4,0.4,0.8,0.9,1,1.4C47.5,15.4,47.6,15.3,47.7,15.3
		C47.7,15.3,47.7,15.3,47.7,15.3z"/>
</g>
</svg>
