<?xml version="1.0" encoding="utf-8"?>
<!-- Generator: Adobe Illustrator 18.0.0, SVG Export Plug-In . SVG Version: 6.00 Build 0)  -->
<!DOCTYPE svg PUBLIC "-//W3C//DTD SVG 1.1//EN" "http://www.w3.org/Graphics/SVG/1.1/DTD/svg11.dtd">
<svg version="1.1" id="Layer_1" xmlns="http://www.w3.org/2000/svg" xmlns:xlink="http://www.w3.org/1999/xlink" x="0px" y="0px"
	 viewBox="0 0 72 72" enable-background="new 0 0 72 72" xml:space="preserve">
<g>
	<path fill="none" d="M53.2,19.4c0.1-0.1,0.1-0.2,0.2-0.3c0,0,0,0-0.1-0.1C53.3,19.2,53.2,19.3,53.2,19.4z"/>
	<path fill="none" d="M50.1,25.1c0,0-0.1,0.1-0.1,0.1c0,0,0,0.1,0,0.1C50,25.3,50.1,25.2,50.1,25.1z"/>
	<path fill="#010101" d="M50,25.2C50,25.2,49.9,25.3,50,25.2C49.9,25.3,50,25.3,50,25.2C50,25.2,50,25.2,50,25.2z"/>
	<path fill="#E77528" d="M42,54.9c-1.7-3.7-3.9-7.1-6.2-10c2.6-3.7-0.6-11.2-0.6-11.2s-2.2,3.9-2.4,7.5c-1.7-1.9-3.3-3.5-4.9-5
		c-0.1,0.8,0.1,1.7-0.1,2.5c-0.1,0.5-0.4,0.9-0.7,1.4c0,0,0.1,0,0.1,0c0-0.1,0.1-0.1,0.1-0.2c3.9,3.8,8.2,8.9,11.4,15
		c-2.8-1.5-6.1-2-6.1-2s4,7.3,8.5,7.5c0.6,1.6,1,3.2,1.4,4.9c-4.2,0.8-6.9,3.1-6.9,3.1c-0.6,0.5-0.7,1.5-0.1,2.1
		c0.5,0.6,1.5,0.7,2.1,0.1c0.3-0.2,6.9-5.8,15.2,0.1c0.3,0.2,0.6,0.3,0.9,0.3c0.5,0,0.9-0.2,1.2-0.6c0.5-0.7,0.3-1.6-0.3-2.1
		c-2.9-2.1-5.6-3-8.1-3.2c0-0.2,0-0.4,0-0.6c-1.4-5.2-1.4-10.6-0.7-15.9c4.4-0.6,7.9-7.8,7.9-7.8s-4.1,0.9-7,2.9
		c1.2-4.9,2.8-9.4,4.5-13.2c-0.7-1.5-1.1-3.2-1.1-4.9C46.4,32.6,42.1,43.7,42,54.9z"/>
	<path fill="#F7A93B" d="M60,16.7c0-0.7-0.1-1.3-0.4-1.9c2.7,0.2,11.3,0.3,9.4-7.1c-6.2-4.4-9.2,3.6-10,6.2c-0.4-0.5-1-0.9-1.7-1.1
		C59.4,11.1,65.6,5,59,1.2c-7.5,1.3-3.9,9.1-2.7,11.5c-0.7,0-1.3,0.1-1.9,0.4c0.2-2.7,0.3-11.3-7.1-9.4c-4.4,6.2,3.6,9.2,6.2,10
		c-0.5,0.4-0.9,1-1.1,1.7c-1.8-2.1-7.8-8.2-11.7-1.6c1.3,7.5,9.1,3.9,11.5,2.7c0,0.7,0.1,1.3,0.4,1.9c-2.7-0.2-11.3-0.3-9.4,7.1
		c2.9,2,5,1.4,6.6-0.1c0,0,0-0.1,0-0.1c0,0,0,0,0,0c0,0,0.1-0.1,0.1-0.1c0,0.1-0.1,0.2-0.1,0.3c0,1.7,0.3,3.4,1.1,4.9
		c0-0.1,0.1-0.2,0.1-0.3c0.5,0.7,1.2,1.3,2.2,1.9c7.4-1.2,4.1-8.8,2.7-11.3c0-0.1,0.1-0.1,0.1-0.1c0.6,0,1.2-0.1,1.8-0.4
		c-0.2,2.7-0.3,11.3,7.1,9.4c4.4-6.2-3.6-9.2-6.2-10c0.5-0.4,0.9-1,1.1-1.7c1.8,2.1,7.8,8.2,11.7,1.6C70.2,11.8,62.4,15.4,60,16.7z
		 M53.2,19.4c0-0.1,0.1-0.2,0.1-0.3c0,0,0,0,0.1,0.1C53.3,19.3,53.3,19.4,53.2,19.4z"/>
	<path fill="#F7A93B" d="M27.9,36.2c-0.1,0-0.1-0.1-0.2-0.1c-0.5-2.1-2.6-3.2-4.6-3.9c-1.4-1.1-2.5-1.9-3.2-2.4c0-0.1,0-0.2,0.1-0.3
		c2.1,1.7,9.2,6.6,11.8-0.5c-2.6-7.2-9.6-2.2-11.8-0.5c-0.1-0.7-0.4-1.3-0.8-1.8c2.7-0.3,11.2-1.8,8-8.7c-6.9-3.2-8.4,5.2-8.7,8
		c-0.5-0.4-1.1-0.7-1.8-0.7c1.7-2.1,6.6-9.2-0.5-11.8C8.9,16,13.9,23,15.6,25.1c-0.7,0.1-1.3,0.4-1.8,0.7c-0.3-2.7-1.8-11.2-8.7-8
		c-3.2,6.9,5.2,8.4,8,8.7c-0.4,0.5-0.7,1.1-0.7,1.8c-2.1-1.7-9.2-6.6-11.8,0.5c2.6,7.2,9.6,2.2,11.8,0.5c0.1,0.7,0.4,1.3,0.7,1.8
		c-2.7,0.3-11.2,1.8-8,8.7c6.9,3.2,8.4-5.2,8.7-8c0.5,0.4,1.1,0.7,1.8,0.7c-1.7,2.1-6.6,9.2,0.5,11.8c7.2-2.6,2.2-9.6,0.5-11.8
		c0.6-0.1,1.1-0.3,1.6-0.6c0.1,0.1,0.2,0.1,0.3,0.2c0.4,3,2,10.6,8.6,7.6c0.3-0.4,0.6-0.9,0.7-1.4C28,37.9,27.8,37,27.9,36.2z"/>
</g>
</svg>
