<?xml version="1.0" encoding="utf-8"?>
<!-- Generator: Adobe Illustrator 18.0.0, SVG Export Plug-In . SVG Version: 6.00 Build 0)  -->
<!DOCTYPE svg PUBLIC "-//W3C//DTD SVG 1.1//EN" "http://www.w3.org/Graphics/SVG/1.1/DTD/svg11.dtd">
<svg version="1.1" id="Layer_1" xmlns="http://www.w3.org/2000/svg" xmlns:xlink="http://www.w3.org/1999/xlink" x="0px" y="0px"
	 viewBox="0 0 72 72" enable-background="new 0 0 72 72" xml:space="preserve">
<g>
	<path fill="none" d="M41.4,30c0.6,0.1,1.2,0.2,1.8,0.4c-0.8-0.8-1.5-1.6-2.1-2.4c-0.9,0.8-2,1.5-3.4,2.2C39,30,40.2,29.8,41.4,30z"
		/>
	<path fill="none" d="M32,31.3c0.2-0.3,0.3-0.7,0.6-0.9c0.1-0.1,0.2-0.2,0.4-0.2l0-0.1c-0.3-0.1-0.5-0.3-0.8-0.4
		c-0.4,0.9-1,1.7-1.7,2.6C31.1,32.1,31.6,31.8,32,31.3z"/>
	<path fill="none" d="M41.4,43.4l0.3,4.8l9.6-12.9c-0.1-0.2-0.2-0.3-0.3-0.5c-1.8-1-3.5-2.4-5.2-3.4c0,0,0,0-0.1,0L41.4,43.4z"/>
	<path fill="none" d="M26.6,35.8c0.1-0.4,0.1-0.8,0.2-1.2l-0.3-0.5c-0.4,0-0.7,0-1.1,0c0.1,1.9-0.4,4.1-1.6,6.6l0.1,0.1
		C25.3,39.5,26.3,37.7,26.6,35.8z"/>
	<path fill="#0DB89A" d="M50.9,34.9c0.1,0.2,0.2,0.3,0.3,0.5l-9.6,12.9l-0.3-4.8l4.2-11.9c0,0,0,0,0.1,0c-0.8-0.5-1.6-0.9-2.5-1.1
		c0.1,0.1,0.3,0.3,0.4,0.4l-5,7.7l-1.4-8.1c0.2-0.1,0.3-0.2,0.5-0.3c-1.1,0.1-2.1,0.2-3.2,0.1c-0.5-0.1-1.1-0.2-1.5,0l-0.5,7l-2-4.8
		c0,0,0-0.1,0.1-0.1c-1.2,0.4-2.7,0.6-3.4,1.7c-0.1,0.2-0.2,0.4-0.3,0.7l5.7,8.8l-1.2,3.5l-7.3-6.1c-0.7,0.7-1.5,1.3-2.4,1.7
		c-0.3,0.1-0.6,0.3-0.9,0.4c0,0,0,0,0,0l7.9,17.8v10.9h16l-1.8-11.2l10.8-24c-0.6-0.4-1.2-0.7-1.9-1.1C51.3,35.1,51.1,35,50.9,34.9z
		"/>
	<path fill="#06728D" d="M66.6,11.3c0,0-4.3,1.3-8.7,3.8c-0.6-6.5-3.1-12.4-3.1-12.4s-7.2,3.8-11.9,9.4c-2.7-6.3-7.5-11.6-7.5-11.6
		s-5.6,6.1-8.1,13.1c-5.2-4.5-11.9-7.1-11.9-7.1S13,14.9,14,22.4c-4.8-1.9-9.4-2.5-9.4-2.5s-1.2,26.7,15.8,23
		c0.3-0.1,0.6-0.3,0.9-0.4c0.9-0.4,1.7-1,2.4-1.7l-0.1-0.1c1.2-2.5,1.7-4.7,1.6-6.6c0.3,0,0.7,0,1.1,0l0.3,0.5
		c0.1-0.2,0.1-0.5,0.3-0.7c0.7-1.1,2.2-1.2,3.4-1.7c0.7-0.9,1.3-1.8,1.7-2.6c0.2,0.1,0.5,0.3,0.8,0.4l0,0.1c0.5-0.2,1,0,1.5,0
		c1.1,0.2,2.1,0.1,3.2-0.1c1.3-0.7,2.5-1.4,3.4-2.2c0.6,0.8,1.3,1.6,2.1,2.4c0.9,0.3,1.7,0.7,2.5,1.1c1.2-0.1,2.2-0.2,3.2-0.4
		c0.4,1.2,1.1,2.5,2.1,3.8c0.2,0.1,0.4,0.2,0.6,0.3c0.6,0.3,1.3,0.6,1.9,1.1l0,0C72.1,38.5,66.6,11.3,66.6,11.3z"/>
</g>
</svg>
