<?xml version="1.0" encoding="utf-8"?>
<!-- Generator: Adobe Illustrator 18.0.0, SVG Export Plug-In . SVG Version: 6.00 Build 0)  -->
<!DOCTYPE svg PUBLIC "-//W3C//DTD SVG 1.1//EN" "http://www.w3.org/Graphics/SVG/1.1/DTD/svg11.dtd">
<svg version="1.1" id="Layer_1" xmlns="http://www.w3.org/2000/svg" xmlns:xlink="http://www.w3.org/1999/xlink" x="0px" y="0px"
	 viewBox="0 0 72 72" enable-background="new 0 0 72 72" xml:space="preserve">
<g>
	
		<ellipse transform="matrix(-0.5079 -0.8614 0.8614 -0.5079 17.973 37.4223)" fill="#F7A93B" cx="19.7" cy="13.6" rx="1.7" ry="4.5"/>
	
		<ellipse transform="matrix(-5.313829e-002 -0.9986 0.9986 -5.313829e-002 7.0578 67.662)" fill="none" cx="35.6" cy="30.5" rx="2" ry="5.4"/>
	<ellipse transform="matrix(0.5079 0.8614 -0.8614 0.5079 33.7535 -21.8493)" fill="none" cx="36" cy="18.6" rx="1.7" ry="4.5"/>
	<ellipse transform="matrix(-0.8267 -0.5627 0.5627 -0.8267 -0.3282 60.34)" fill="none" cx="9.1" cy="30.2" rx="1.7" ry="4.5"/>
	<ellipse transform="matrix(0.9193 0.3936 -0.3936 0.9193 11.9234 -20.9069)" fill="none" cx="56.9" cy="18.6" rx="4.5" ry="1.7"/>
	<ellipse transform="matrix(-0.5325 -0.8464 0.8464 -0.5325 67.0459 107.1015)" fill="none" cx="63.1" cy="35" rx="4.5" ry="1.7"/>
	<path fill="#E77528" d="M44.8,38.2c-3.2-1.1-6.5-2.2-9.8-2.5c-1.7-0.2-3.3-0.1-5-0.1c-1,0-2.1,0-3.1,0.5c-0.9,0.4-1.6,1.2-2.4,1.7
		c-1.1,0.7-2.5,0.9-3.5,1.7c-0.2,0.2-0.4,0.4-0.6,0.7c0.4-0.1,0.8-0.2,1.2-0.3c0,0.1,0,0.2,0,0.3c0.7,6.2,0.1,12.6-2,18.5
		c-0.3,0.9-0.6,1.8-0.5,2.7c0.3,1.8,2.2,2.9,4,3.5c7.9,2.8,16.5,3.5,24.7,1.9c2.5-0.5,5.4-1.5,6.2-4c0.5-1.5,0.1-3.2-0.6-4.6
		c-0.7-1.5-1.5-2.8-2-4.3c-0.5-1.6-0.5-3.4-0.5-5.1c0-2.7,0.1-5.4,0.1-8.2c0.1,0,0.1,0,0.2,0c-0.4-0.2-0.8-0.3-1.3-0.4
		C48.2,39.4,46.5,38.8,44.8,38.2z"/>
	<path fill="#F7A93B" d="M70.9,28.6c-0.4-1.2-1-2.4-1.5-3.6c-1-2.4-1.2-5.2-2.6-7.4c-1.4-2.2-3.7-3.6-6-4.9
		c-2.2-1.3-4.4-2.6-6.6-3.9c-0.9-0.5-1.7-1-2.7-1.3C50.3,7.1,49,7,47.7,6.7c-2.8-0.6-5.5-1.5-8.4-2c-5.9-0.9-11.9,0.7-17.7,2.3
		c-1,0.3-2.1,0.6-3,1c-1.1,0.5-2.1,1.1-3.1,1.7c-1.8,1.1-3.7,2.2-5.3,3.5C3.7,18.4,0,26.8,0.6,35.1c0.2,2.5,0.9,5.2,3.1,6.5
		c1.6,0.9,3.6,0.8,5.4,0.7c0.5,0,1.1-0.1,1.6-0.3c0.4-0.2,0.7-0.5,1.1-0.7c0.9-0.4,1.9-0.2,2.9-0.2c1.8,0.1,3.6-0.5,5.4-0.9
		c0.1,0,0.2-0.1,0.4-0.1c0.2-0.2,0.4-0.5,0.6-0.7c1-0.8,2.3-1,3.5-1.7c0.8-0.5,1.5-1.3,2.4-1.7c0.9-0.4,2-0.5,3.1-0.5
		c1.7,0,3.4,0,5,0.1c3.4,0.3,6.6,1.4,9.8,2.5c1.7,0.6,3.4,1.1,5.1,1.7c0.4,0.1,0.8,0.3,1.3,0.4c2.8,0.3,5.7,0.7,8.5,0.9
		c3.1,0.3,6.5,0.4,9.3-1c0.7-0.4,1.4-0.8,1.8-1.5c0.3-0.6,0.4-1.2,0.5-1.8C71.5,34.1,71.8,31.3,70.9,28.6z M10.5,31.1
		c-1.4,2.1-3.2,3.3-3.9,2.8c-0.8-0.5-0.2-2.6,1.2-4.7c1.4-2.1,3.2-3.3,3.9-2.8C12.4,27,11.9,29.1,10.5,31.1z M20.5,15
		c-2.2,1.3-4.3,1.7-4.7,0.9c-0.5-0.8,0.9-2.4,3.1-3.7c2.2-1.3,4.3-1.7,4.7-0.9C24,12.1,22.7,13.7,20.5,15z M35.2,17.2
		c2.2-1.3,4.3-1.7,4.7-0.9c0.5,0.8-0.9,2.4-3.1,3.7c-2.2,1.3-4.3,1.7-4.7,0.9C31.6,20.1,33,18.5,35.2,17.2z M35.7,32.4
		c-3,0.2-5.4-0.6-5.5-1.7c-0.1-1.1,2.3-2.1,5.3-2.2c3-0.2,5.4,0.6,5.5,1.7C41,31.3,38.7,32.3,35.7,32.4z M56.3,20.1
		c-2.3-1-3.9-2.5-3.5-3.3c0.4-0.8,2.5-0.7,4.8,0.3c2.3,1,3.9,2.5,3.5,3.3C60.7,21.2,58.6,21.1,56.3,20.1z M65.5,38.9
		c-0.8,0.5-2.5-0.8-3.8-2.9c-1.3-2.1-1.8-4.2-1-4.7c0.8-0.5,2.5,0.8,3.8,2.9C65.8,36.3,66.3,38.4,65.5,38.9z"/>
</g>
</svg>
