<?xml version="1.0" encoding="utf-8"?>
<!-- Generator: Adobe Illustrator 18.0.0, SVG Export Plug-In . SVG Version: 6.00 Build 0)  -->
<!DOCTYPE svg PUBLIC "-//W3C//DTD SVG 1.1//EN" "http://www.w3.org/Graphics/SVG/1.1/DTD/svg11.dtd">
<svg version="1.1" id="Layer_1" xmlns="http://www.w3.org/2000/svg" xmlns:xlink="http://www.w3.org/1999/xlink" x="0px" y="0px"
	 viewBox="0 0 72 72" enable-background="new 0 0 72 72" xml:space="preserve">
<g>
	<path fill="#0DB89A" d="M39.9,7c0.7,0.7,1.5,1.2,1.9,2.2C41.9,9.4,42,9.7,42,10c0,0.1,0,0.2-0.1,0.3c-0.1,0.1-0.1,0.2-0.2,0.3
		c-0.3,0.3-0.3,0.8-0.2,1.2c0.1,0.2,0.1,0.4,0.2,0.5c0.2,0.3,0.5,0.4,0.8,0.3c0.5-0.1,1.1-0.1,1.3-0.5c0.1-0.1,0.1-0.3,0.1-0.5
		c0-0.3,0.1-0.6,0.1-1c0-0.1,0-0.3,0.1-0.4c0.2-0.4,0.6-0.5,1-0.5c0.4,0,0.8,0.2,1.2,0.3c0.7,0.2,1.5,0.1,2.2-0.1
		c0.4-0.1,0.9-0.3,0.9-0.7c0-0.3-0.2-0.5-0.5-0.6c-0.3-0.1-0.6-0.1-0.8-0.1c-0.7-0.1-1.4-0.3-2-0.7c-0.1,0-0.1-0.1-0.2-0.2
		c-0.1-0.2,0-0.4,0.2-0.5c0.2-0.1,0.3-0.1,0.5-0.1c0.5-0.1,1-0.2,1.4-0.5c0.3-0.2,0.5-0.5,0.7-0.8c0.4-0.5,0.8-1,1.2-1.6
		c0.2-0.2,0.3-0.5,0.1-0.7c-0.1-0.1-0.1-0.1-0.2-0.1c-0.6-0.1-1.2,0-1.6,0.3c-0.2,0.1-0.3,0.3-0.5,0.4c-0.2,0.1-0.4,0.2-0.6,0.1
		C47,4.1,47,3.7,47,3.5s0.3-0.5,0.5-0.7c0.4-0.6,0.6-1.4,0.5-2.1c-0.7-0.2-1.5-0.1-2.2,0.2c-0.2,0.1-0.4,0.2-0.5,0.4
		c-0.2,0.2-0.1,0.6-0.1,0.8c0,0.7,0,1.3-0.2,1.9c-0.1,0.2-0.2,0.5-0.5,0.5c-0.3,0-0.5-0.3-0.6-0.6c-0.2-0.6-0.6-1.2-1-1.7
		c-0.2-0.3-0.4-0.5-0.7-0.7c-0.3-0.2-0.7-0.2-0.9,0c-0.4,0.2-0.5,0.8-0.4,1.2C41,3,41.3,3.4,41.6,3.7c0.7,1,1.2,2.2,1.4,3.4
		c-0.3,0.1-0.7-0.2-0.9-0.5c-0.4-0.5-0.8-1-1.3-1.3c-0.4-0.2-0.8-0.2-1.2-0.2c-0.1,0-0.1,0-0.2,0c-0.1,0-0.1,0.1-0.1,0.1
		c-0.1,0.3-0.1,0.6,0,0.9C39.4,6.6,39.6,6.8,39.9,7z"/>
	<path fill="#0DB89A" d="M25.7,14.1c0.4,0.2,0.9,0.2,1.4,0.3c1.2,0.2,2.4,0.6,3.4,1.4c-0.1,0.3-0.6,0.4-1,0.3
		c-0.6-0.1-1.3-0.2-1.9,0.1c-0.4,0.2-0.6,0.4-0.9,0.7c0,0-0.1,0.1-0.1,0.2c0,0.1,0,0.1,0,0.2c0.1,0.3,0.4,0.5,0.7,0.6
		c0.3,0.1,0.6,0.1,0.9,0.1c1-0.1,1.9-0.3,2.9,0.1c0.3,0.1,0.5,0.3,0.8,0.5c0.1,0.1,0.1,0.2,0.2,0.3c0,0.1,0,0.2,0.1,0.4
		c0.1,0.4,0.4,0.8,0.8,1c0.2,0.1,0.4,0.1,0.5,0.2c0.3,0.1,0.6-0.1,0.8-0.4c0.2-0.4,0.7-0.8,0.6-1.3c0-0.2-0.2-0.3-0.3-0.4
		c-0.2-0.2-0.4-0.5-0.6-0.7c-0.1-0.1-0.2-0.2-0.2-0.3c-0.2-0.4,0-0.8,0.3-1.1c0.3-0.3,0.7-0.4,1-0.7c0.6-0.4,1-1,1.4-1.7
		c0.2-0.4,0.4-0.9,0.1-1.2c-0.2-0.2-0.5-0.2-0.8-0.1c-0.3,0.1-0.5,0.3-0.7,0.5c-0.5,0.5-1.2,0.8-1.9,0.9c-0.1,0-0.1,0-0.2,0
		c-0.2,0-0.3-0.3-0.2-0.4c0-0.2,0.2-0.3,0.3-0.5c0.3-0.4,0.5-0.8,0.6-1.3c0-0.4,0-0.7-0.1-1.1c-0.1-0.7-0.2-1.3-0.3-2
		c0-0.3-0.2-0.6-0.4-0.6c-0.1,0-0.1,0-0.2,0.1c-0.5,0.3-0.8,0.8-0.8,1.4c0,0.2,0,0.4-0.1,0.7c-0.1,0.2-0.2,0.4-0.4,0.5
		c-0.3,0.1-0.6-0.1-0.7-0.4c-0.1-0.3-0.2-0.6-0.2-0.8c-0.2-0.7-0.6-1.4-1.2-1.8c-0.6,0.4-1.1,1-1.3,1.7c-0.1,0.2-0.1,0.4,0,0.6
		c0.1,0.3,0.3,0.5,0.5,0.7c0.5,0.4,1,0.9,1.2,1.5c0.1,0.2,0.2,0.5,0,0.7c-0.2,0.3-0.6,0.1-0.9,0c-0.6-0.2-1.3-0.4-2-0.5
		c-0.3,0-0.7,0-1,0.1c-0.3,0.1-0.6,0.3-0.7,0.7C24.9,13.4,25.3,13.9,25.7,14.1z"/>
	<path fill="#0DB89A" d="M21.4,27.7c-0.3-0.1-0.6-0.2-0.9-0.3c-0.1,0-0.3-0.1-0.4-0.2c-0.3-0.2-0.3-0.7-0.2-1.1
		c0.1-0.4,0.4-0.7,0.6-1.1c0.3-0.6,0.4-1.4,0.5-2.1c0-0.4,0-1-0.5-1.1c-0.3-0.1-0.6,0.1-0.7,0.3c-0.2,0.2-0.2,0.5-0.3,0.8
		c-0.2,0.7-0.7,1.3-1.2,1.7c-0.1,0-0.1,0.1-0.2,0.1c-0.2,0-0.4-0.1-0.4-0.3c-0.1-0.2,0-0.4,0-0.5c0.1-0.5,0.1-1-0.1-1.5
		c-0.1-0.3-0.3-0.6-0.6-0.9c-0.4-0.5-0.8-1.1-1.2-1.6c-0.2-0.2-0.4-0.5-0.7-0.3c-0.1,0-0.1,0.1-0.1,0.2c-0.3,0.5-0.3,1.1-0.1,1.6
		c0.1,0.2,0.2,0.4,0.3,0.6c0.1,0.2,0,0.5-0.1,0.6c-0.2,0.2-0.6,0.2-0.8,0c-0.2-0.2-0.4-0.4-0.6-0.6c-0.5-0.6-1.2-0.9-1.9-1
		c-0.4,0.6-0.5,1.4-0.4,2.1c0,0.2,0.1,0.4,0.2,0.5c0.2,0.2,0.5,0.3,0.8,0.3c0.6,0.1,1.3,0.3,1.8,0.7c0.2,0.1,0.4,0.3,0.3,0.6
		c-0.1,0.3-0.5,0.4-0.8,0.4c-0.7,0.1-1.3,0.3-1.9,0.5c-0.3,0.1-0.6,0.3-0.8,0.5c-0.2,0.2-0.4,0.6-0.3,0.9c0.1,0.4,0.6,0.7,1.1,0.7
		c0.5,0,0.9-0.2,1.3-0.4c1.2-0.4,2.4-0.6,3.7-0.4c0,0.4-0.4,0.6-0.7,0.7c-0.6,0.2-1.2,0.5-1.6,1c-0.2,0.3-0.4,0.7-0.5,1.1
		c0,0.1,0,0.1,0,0.2c0,0.1,0.1,0.1,0.1,0.1c0.2,0.2,0.6,0.2,0.9,0.2c0.3-0.1,0.6-0.2,0.8-0.4c0.8-0.5,1.6-1.1,2.6-1.3
		c0.3,0,0.6,0,0.9,0c0.1,0,0.2,0.1,0.3,0.1c0.1,0.1,0.1,0.2,0.2,0.3c0.3,0.3,0.7,0.5,1.1,0.5c0.2,0,0.4,0,0.6-0.1
		c0.3-0.1,0.5-0.4,0.5-0.7c0-0.5,0.2-1-0.1-1.4C21.7,27.8,21.5,27.8,21.4,27.7z"/>
	<path fill="#0DB89A" d="M61.4,18.1c0-0.1-0.1-0.1-0.1-0.2c-0.4-0.4-1-0.6-1.5-0.6c-0.2,0-0.4,0.1-0.7,0.1c-0.2,0-0.5-0.1-0.6-0.3
		c-0.1-0.3,0-0.6,0.2-0.8c0.2-0.2,0.5-0.3,0.8-0.4c0.7-0.3,1.2-0.8,1.5-1.5c-0.5-0.6-1.2-0.9-1.9-1c-0.2,0-0.4,0-0.6,0.1
		c-0.3,0.1-0.4,0.4-0.6,0.7c-0.3,0.6-0.7,1.1-1.2,1.5c-0.2,0.1-0.4,0.3-0.7,0.1c-0.3-0.2-0.2-0.6-0.2-0.9c0.1-0.7,0.2-1.3,0.1-2
		c0-0.3-0.1-0.7-0.2-1c-0.2-0.3-0.4-0.5-0.8-0.6c-0.5,0-0.9,0.4-1,0.8c-0.1,0.4-0.1,0.9,0,1.4c0.1,1.2-0.2,2.5-0.7,3.6
		c-0.3-0.1-0.5-0.5-0.5-0.9c0-0.6-0.1-1.3-0.4-1.8c-0.2-0.3-0.5-0.6-0.9-0.8c-0.1,0-0.1-0.1-0.2-0.1c-0.1,0-0.1,0-0.2,0.1
		c-0.3,0.2-0.4,0.5-0.5,0.8c0,0.3,0,0.6,0.1,0.9c0.2,0.9,0.6,1.9,0.4,2.9c0,0.3-0.2,0.6-0.3,0.8c-0.1,0.1-0.1,0.2-0.2,0.2
		c-0.1,0.1-0.2,0.1-0.3,0.1c-0.4,0.1-0.7,0.5-0.8,0.9c-0.1,0.2-0.1,0.4-0.1,0.6c0,0.3,0.2,0.6,0.5,0.7c0.5,0.1,0.9,0.5,1.3,0.3
		c0.2-0.1,0.3-0.2,0.4-0.3c0.2-0.2,0.4-0.5,0.6-0.7c0.1-0.1,0.2-0.2,0.3-0.3c0.3-0.2,0.8-0.1,1.1,0.1c0.3,0.2,0.5,0.6,0.8,0.9
		c0.5,0.5,1.2,0.8,1.9,1.1c0.4,0.2,0.9,0.3,1.2-0.1c0.2-0.2,0.1-0.6-0.1-0.8c-0.2-0.2-0.4-0.4-0.6-0.6c-0.6-0.4-1-1-1.2-1.7
		c0-0.1-0.1-0.1,0-0.2c0-0.2,0.2-0.3,0.4-0.3c0.2,0,0.4,0.1,0.5,0.2c0.4,0.2,0.9,0.4,1.4,0.4c0.4,0,0.7-0.1,1-0.2
		c0.6-0.2,1.3-0.4,1.9-0.6C61.2,18.6,61.5,18.4,61.4,18.1z"/>
	<path fill="#0DB89A" d="M48.1,27.8c0.4-0.1,0.8-0.3,1.1-0.6c0.2-0.2,0.4-0.5,0.6-0.7c0.3-0.5,0.6-1,0.9-1.5c0.1-0.2,0.2-0.5,0-0.6
		c-0.1,0-0.1-0.1-0.2-0.1c-0.5,0-1,0.1-1.3,0.5c-0.1,0.1-0.3,0.3-0.4,0.4c-0.2,0.1-0.4,0.2-0.5,0.1C48.1,25.3,48,25,48,24.7
		c0.1-0.2,0.2-0.5,0.3-0.7c0.3-0.6,0.4-1.2,0.2-1.8c-0.6-0.1-1.3,0-1.8,0.4c-0.1,0.1-0.3,0.2-0.4,0.4c-0.1,0.2-0.1,0.5,0,0.7
		c0.1,0.6,0.1,1.1,0,1.7c-0.1,0.2-0.2,0.4-0.4,0.5c-0.3,0.1-0.5-0.2-0.6-0.5c-0.3-0.5-0.6-1-1-1.4c-0.2-0.2-0.4-0.4-0.7-0.5
		c-0.3-0.1-0.6-0.1-0.8,0.1c-0.3,0.2-0.4,0.7-0.2,1.1c0.2,0.4,0.5,0.6,0.7,0.9c0.7,0.8,1.3,1.8,1.5,2.8c-0.3,0.1-0.6-0.1-0.8-0.3
		c-0.4-0.4-0.8-0.8-1.3-1c-0.3-0.1-0.7-0.1-1,0c-0.1,0-0.1,0-0.2,0.1c0,0-0.1,0.1-0.1,0.1c-0.1,0.2,0,0.5,0.1,0.8
		c0.1,0.2,0.3,0.4,0.6,0.6c0.7,0.5,1.4,0.9,1.9,1.7c0.1,0.2,0.2,0.5,0.2,0.7c0,0.1,0,0.2,0,0.3c0,0.1-0.1,0.2-0.2,0.3
		c-0.2,0.3-0.2,0.7,0,1.1c0.1,0.2,0.2,0.3,0.3,0.4c0.2,0.2,0.5,0.3,0.7,0.2c0.4-0.2,0.9-0.2,1.1-0.5c0.1-0.1,0.1-0.3,0.1-0.4
		c0-0.3,0-0.6,0-0.8c0-0.1,0-0.2,0-0.4c0.1-0.3,0.5-0.5,0.8-0.5c0.3,0,0.7,0.1,1,0.1c0.6,0.1,1.3-0.1,1.9-0.3
		c0.4-0.1,0.8-0.4,0.7-0.7c0-0.2-0.3-0.4-0.5-0.5s-0.5,0-0.7,0c-0.6,0-1.2-0.1-1.8-0.4c-0.1,0-0.1-0.1-0.2-0.1
		c-0.1-0.1,0-0.3,0.1-0.4C47.8,27.9,48,27.9,48.1,27.8z"/>
	<path fill="#0DB89A" d="M54.4,41.6c0.6-0.1,1.1-0.3,1.6-0.6c0.3-0.1,0.5-0.3,0.7-0.5c0.2-0.2,0.3-0.5,0.2-0.8
		c-0.1-0.4-0.6-0.5-1-0.5c-0.4,0-0.8,0.3-1.1,0.4c-1,0.5-2.1,0.7-3.1,0.6c0-0.3,0.3-0.5,0.5-0.7c0.5-0.3,1-0.5,1.3-1
		c0.2-0.3,0.3-0.6,0.3-1c0-0.1,0-0.1,0-0.2c0,0-0.1-0.1-0.1-0.1c-0.2-0.2-0.5-0.2-0.8-0.1c-0.3,0.1-0.5,0.2-0.7,0.4
		c-0.7,0.5-1.3,1.1-2.1,1.3c-0.2,0.1-0.5,0.1-0.8,0c-0.1,0-0.2,0-0.3-0.1c-0.1-0.1-0.1-0.2-0.2-0.2c-0.2-0.3-0.6-0.4-1-0.3
		c-0.2,0-0.3,0.1-0.5,0.1c-0.3,0.1-0.4,0.4-0.4,0.6c0,0.4-0.1,0.9,0.2,1.2c0.1,0.1,0.3,0.1,0.4,0.2c0.3,0.1,0.5,0.1,0.8,0.2
		c0.1,0,0.2,0.1,0.3,0.1c0.3,0.2,0.4,0.6,0.3,0.9c-0.1,0.3-0.3,0.6-0.4,1c-0.2,0.6-0.3,1.2-0.2,1.9c0,0.4,0.1,0.8,0.5,0.9
		c0.2,0.1,0.5-0.1,0.6-0.3c0.1-0.2,0.2-0.5,0.2-0.7c0.2-0.6,0.5-1.1,0.9-1.6c0,0,0.1-0.1,0.2-0.1c0.2-0.1,0.3,0.1,0.4,0.2
		c0.1,0.1,0,0.3,0,0.5c0,0.4,0,0.9,0.2,1.2c0.1,0.3,0.3,0.5,0.5,0.8c0.4,0.4,0.8,0.9,1.1,1.3c0.2,0.2,0.4,0.4,0.6,0.2
		c0.1,0,0.1-0.1,0.1-0.2c0.2-0.5,0.2-1-0.1-1.4c-0.1-0.2-0.2-0.3-0.3-0.5c-0.1-0.2-0.1-0.4,0-0.5c0.2-0.2,0.5-0.2,0.7-0.1
		c0.2,0.1,0.4,0.3,0.6,0.5c0.5,0.4,1.1,0.7,1.7,0.7c0.3-0.6,0.3-1.3,0.2-1.9c0-0.2-0.1-0.3-0.2-0.4C56.3,43,56,43,55.7,43
		c-0.6-0.1-1.1-0.2-1.6-0.5c-0.2-0.1-0.4-0.3-0.3-0.5C53.8,41.7,54.2,41.6,54.4,41.6z"/>
	<path fill="#0DB89A" d="M34.8,45.6c-0.4-0.1-0.8-0.4-1.2-0.2c-0.1,0.1-0.2,0.2-0.3,0.3c-0.2,0.2-0.3,0.4-0.5,0.7
		c-0.1,0.1-0.1,0.2-0.2,0.3c-0.3,0.2-0.7,0.1-1-0.1c-0.3-0.2-0.5-0.5-0.8-0.7c-0.5-0.4-1.1-0.7-1.7-0.9c-0.4-0.1-0.8-0.2-1,0.1
		c-0.1,0.2-0.1,0.5,0.1,0.7c0.2,0.2,0.4,0.3,0.6,0.5c0.5,0.4,0.9,0.8,1.1,1.4c0,0.1,0.1,0.1,0.1,0.2c0,0.2-0.2,0.3-0.3,0.3
		c-0.2,0-0.3-0.1-0.5-0.1c-0.4-0.2-0.8-0.3-1.2-0.2c-0.3,0-0.6,0.1-0.9,0.3c-0.5,0.2-1.1,0.4-1.6,0.6c-0.2,0.1-0.5,0.3-0.4,0.5
		c0,0.1,0.1,0.1,0.1,0.2c0.4,0.3,0.9,0.5,1.3,0.4c0.2,0,0.4-0.1,0.6-0.1c0.2,0,0.4,0.1,0.5,0.2c0.1,0.2,0,0.5-0.2,0.7
		c-0.2,0.2-0.4,0.2-0.7,0.4c-0.6,0.3-1,0.8-1.3,1.4c0.4,0.5,1.1,0.7,1.7,0.8c0.2,0,0.4,0,0.5-0.1c0.2-0.1,0.3-0.4,0.5-0.6
		c0.3-0.5,0.6-1,1-1.3c0.2-0.1,0.4-0.2,0.6-0.2c0.3,0.1,0.2,0.5,0.2,0.8c-0.1,0.6-0.1,1.2,0,1.7c0,0.3,0.1,0.6,0.2,0.8
		c0.1,0.2,0.4,0.4,0.7,0.4c0.4,0,0.7-0.4,0.8-0.8c0.1-0.4,0-0.8,0-1.2c-0.1-1.1,0.1-2.2,0.5-3.2c0.3,0.1,0.4,0.4,0.5,0.7
		c0.1,0.5,0.1,1.1,0.4,1.6c0.2,0.3,0.5,0.5,0.8,0.6c0.1,0,0.1,0.1,0.2,0.1c0.1,0,0.1,0,0.1-0.1c0.2-0.1,0.3-0.4,0.4-0.7
		c0-0.3,0-0.5-0.1-0.8c-0.2-0.8-0.6-1.6-0.5-2.5c0-0.3,0.1-0.5,0.2-0.7c0-0.1,0.1-0.2,0.2-0.2c0.1-0.1,0.2-0.1,0.3-0.1
		c0.3-0.1,0.6-0.5,0.7-0.8c0-0.2,0.1-0.3,0-0.5C35.2,46,35,45.7,34.8,45.6z"/>
	<path fill="#0DB89A" d="M24.5,32.1c0.4,0.2,0.9,0.1,1.4,0.1c1.2,0,2.5,0.3,3.6,1c-0.1,0.3-0.5,0.4-0.9,0.4c-0.6,0-1.3,0-1.8,0.3
		c-0.3,0.2-0.6,0.5-0.8,0.8c0,0.1-0.1,0.1-0.1,0.2c0,0.1,0,0.1,0,0.2c0.1,0.3,0.4,0.4,0.7,0.5c0.3,0.1,0.6,0,0.9,0
		c1-0.2,1.9-0.5,2.9-0.3c0.3,0.1,0.6,0.2,0.8,0.4c0.1,0.1,0.2,0.1,0.2,0.2c0.1,0.1,0.1,0.2,0.1,0.4c0.1,0.4,0.5,0.7,0.9,0.9
		c0.2,0.1,0.4,0.1,0.6,0.1c0.3,0,0.6-0.2,0.7-0.5c0.2-0.4,0.6-0.9,0.4-1.3c-0.1-0.2-0.2-0.3-0.3-0.4c-0.2-0.2-0.5-0.4-0.7-0.6
		c-0.1-0.1-0.2-0.2-0.3-0.3c-0.2-0.3-0.1-0.8,0.2-1.1c0.3-0.3,0.6-0.5,0.9-0.8c0.6-0.5,0.9-1.1,1.2-1.8c0.2-0.4,0.3-0.9,0-1.2
		c-0.2-0.2-0.6-0.1-0.8,0c-0.2,0.2-0.4,0.4-0.6,0.6c-0.5,0.5-1.1,0.9-1.8,1.1c-0.1,0-0.1,0-0.2,0c-0.2,0-0.3-0.2-0.3-0.4
		c0-0.2,0.1-0.3,0.2-0.5c0.2-0.4,0.4-0.9,0.4-1.4c0-0.4-0.1-0.7-0.2-1.1c-0.2-0.6-0.3-1.3-0.5-1.9c-0.1-0.3-0.2-0.6-0.5-0.5
		c-0.1,0-0.1,0.1-0.2,0.1c-0.4,0.4-0.7,0.9-0.7,1.5c0,0.2,0,0.4,0,0.7c0,0.2-0.1,0.4-0.3,0.5c-0.3,0.1-0.6,0-0.8-0.3
		c-0.2-0.2-0.2-0.5-0.3-0.8c-0.2-0.7-0.8-1.3-1.4-1.6c-0.6,0.5-1,1.1-1.1,1.8c0,0.2-0.1,0.4,0,0.6c0.1,0.3,0.4,0.4,0.6,0.6
		c0.5,0.4,1.1,0.8,1.4,1.3c0.1,0.2,0.2,0.5,0.1,0.7c-0.2,0.3-0.6,0.2-0.9,0.1c-0.7-0.2-1.3-0.2-2-0.2c-0.3,0-0.7,0-1,0.2
		c-0.3,0.1-0.6,0.4-0.6,0.7C23.6,31.6,24,32,24.5,32.1z"/>
	<path fill="#E77528" d="M52.4,26.7c0,0-1.5,7.3-9.3,10.8c-1.2-2.9-2.7-5.8-4.6-8.3c1.1-1.7,4.2-7.9-0.6-13.3c0,0,2.8,5.5-0.8,11.5
		c-1.5-1.7-3.1-3.3-5-4.6c0,0,5.9,7.7,8.5,21.6c-3.8-3.1-9.8-6.6-16.6-4.6c0,0,9.4-0.1,17.3,9.1c0.8,6.5,0.7,14.1-0.8,22.7h5.7
		c0,0,2.8-16.5-2.1-31.4C47.4,38.4,52.8,34.5,52.4,26.7z"/>
</g>
</svg>
