<?xml version="1.0" encoding="utf-8"?>
<!-- Generator: Adobe Illustrator 18.0.0, SVG Export Plug-In . SVG Version: 6.00 Build 0)  -->
<!DOCTYPE svg PUBLIC "-//W3C//DTD SVG 1.1//EN" "http://www.w3.org/Graphics/SVG/1.1/DTD/svg11.dtd">
<svg version="1.1" id="Layer_1" xmlns="http://www.w3.org/2000/svg" xmlns:xlink="http://www.w3.org/1999/xlink" x="0px" y="0px"
	 viewBox="0 0 72 72" enable-background="new 0 0 72 72" xml:space="preserve">
<g>
	<path fill="#E77528" d="M39.8,50.8c0.1,0.1,0.1,0.2,0.2,0.2c0.9,6.5,0.9,13.8-1.3,20.5h8.2c0,0-0.4-9.7-3.6-20.6c0,0,0-0.1,0-0.1
		c-0.2,0-0.3-0.1-0.5-0.1C41.8,50.5,40.7,50.3,39.8,50.8z"/>
	<path fill="#4DA0D8" d="M64.5,22.1c-0.1-0.6-0.8-0.8-1.4-0.9c-0.8-0.2-1.7-0.3-2.5-0.5c-0.3-0.1-0.6-0.1-0.8-0.4
		c-0.1-0.2-0.1-0.5-0.1-0.8c0.2-1.6,0.4-3.2,0.6-4.8c-1.2-0.1-2.4-0.1-3.6-0.2c-0.8-2.3,2.6-4.4,1.9-6.8c-1.1-0.4-2.4-0.4-3.5,0.1
		c-0.8,0.3-1.5,0.8-2.3,0.6c-1.1-0.3-1.3-1.7-1.6-2.9c-0.4-1.5-1.4-2.9-2.8-3.7c-0.3-0.2-0.6-0.3-1-0.3C47.2,1.6,47,1.8,46.8,2
		C46,3,45.7,4.3,45.9,5.5c-0.8-0.5-1.1-1.4-1.4-2.2s-0.6-1.7-1.3-2.3c-0.7-0.6-1.9-0.6-2.3,0.1c-0.4,0.7,0,1.7-0.5,2.3
		c-0.5,0.8-1.8,0.6-2.5-0.1c-0.7-0.7-1.1-1.6-1.8-2.2c-0.7-0.6-2.1-0.7-2.5,0.2c-0.1,0.4-0.1,0.8-0.2,1.2c-0.3,1.6-2.4,1.8-4,1.6
		c-1.4-0.2-2.8-0.3-4.1-0.5c-0.7-0.1-1.5-0.2-2.1,0.2c-0.7,0.3-1.1,1.2-0.7,1.8c0.2,0.3,0.7,0.5,1,0.7c0.3,0.2,0.6,0.8,0.3,1.1
		c-1.7,0-3.4,0-5.1,0c-0.2,0-0.5,0-0.7,0.2c-0.2,0.2-0.3,0.5-0.3,0.8c0.8,1,1.2,2.6,1.5,3.8c0.1,0.3,0.1,0.6-0.1,0.8
		c-0.2,0.3-0.7,0.3-1,0.3c-1.5-0.2-3-0.7-4.5-0.5c-1.5,0.3-2.8,2-2,3.2c0.6,0.8,1.7,1,2.7,1.2c1,0.3,2,1.2,1.7,2.1
		c-1.6-0.1-3.2-0.1-4.9-0.2c-0.3,0-0.7,0-1,0.2c-0.3,0.2-0.4,0.6-0.3,0.9c0.2,2.4,4.3,2.7,4.7,5c-1.3,0.5-2.7,0.4-4,0.6
		c-1.3,0.2-2.8,1-3,2.3c-0.3,1.6,1.4,3,2.9,3c1.6,0.1,3.1-0.8,4.4-1.6c-2.9,1.5-4.7,4.8-4.5,8c0,0.4,0.1,0.8,0.3,1
		c0.5,0.6,1.5,0.3,2.1-0.1c1.7-1,3.2-2.3,4.4-3.9c-1.5,2.5-1.9,5.6-1.1,8.4c0.3,0.9,0.7,1.8,1.6,2c0.8,0.2,1.6-0.4,2-1
		c0.4-0.7,0.5-1.5,0.6-2.3c-0.2,1.6-0.2,3.2-0.2,4.8c0,0.5,0,1,0.3,1.5c0.6,1.1,2.5,1,3.3,0.1c1.1-1.2,2.4-2.6,3.7-3.5
		c0.2,2.6-0.7,3.9-1.3,6.5c0.2,1.8,2.4,0.9,3.6,1.1c1.1,0.2,0.3-4.9,1.4-5.4c0.5,0.3,0.6,1,0.6,1.6c0,1-0.2,2-0.1,3
		c0.1,1,0.6,2,1.5,2.4c1.2,0.5,2.6-0.4,3.2-1.6c0.5-1.2,0.4-2.6,0.3-3.9c0.5-0.6,1.5,0,1.9,0.7c0.3,0.6,0.6,1.2,1,1.7
		c0.9-0.5,2-0.3,3.1-0.1c0.2,0,0.3,0.1,0.5,0.1c0.4-1.1,0.2-2.6,0.9-3.6c1.6,0.6,3.3,1.2,5,1.6c0.1-1.3,0.4-2.7,0.4-4
		c1.3,0.4,2,1.8,2.9,2.9c0.9,1.1,2.4,2,3.6,1.2c1.1-0.7,0.9-2.3,0.4-3.5c-0.5-1.2-1.4-2.3-1.4-3.5c1.5-0.1,2.9,0.5,4.4,0.3
		c1.5-0.1,3-1.6,2.3-2.9c-0.4-0.7-1.2-0.9-1.9-1.3c-0.7-0.4-1.3-1.2-1-1.9c0.1-0.3,0.4-0.5,0.7-0.6c1-0.6,2.1-1.2,2.9-2.1
		c0.8-0.9,1.2-2.3,0.5-3.3c-0.9,0-1.7-0.3-2.4-0.9c1.2-2.1,2.5-4.1,3.7-6.2C64.4,22.7,64.6,22.4,64.5,22.1z"/>
</g>
</svg>
