<?xml version="1.0" encoding="utf-8"?>
<!-- Generator: Adobe Illustrator 18.0.0, SVG Export Plug-In . SVG Version: 6.00 Build 0)  -->
<!DOCTYPE svg PUBLIC "-//W3C//DTD SVG 1.1//EN" "http://www.w3.org/Graphics/SVG/1.1/DTD/svg11.dtd">
<svg version="1.1" id="Layer_1" xmlns="http://www.w3.org/2000/svg" xmlns:xlink="http://www.w3.org/1999/xlink" x="0px" y="0px"
	 viewBox="0 0 72 72" enable-background="new 0 0 72 72" xml:space="preserve">
<g>
	<path fill="#E77528" d="M63.3,29.5c0.3-1.4,0.5-2.7,0.6-3.8c4.5-2.7-1.1-8.8-1.1-8.8s-6.2,6.8-0.3,9.2c-0.7,1.7-1.6,3.8-2.9,6
		C58.9,30,57.2,28,57.2,28s-5.9,6.4-0.7,9c-1.7,2.3-3.7,4.4-6,6.2c0.5-2.6-1.1-5.9-1.1-5.9s-7.7,4.5-3.3,8.5c-2.2,1-4.6,1.6-7.3,1.7
		l-0.9-10.9c4.1-1,7.2-2.6,9.5-4.4c1.6,3.3,6-0.3,6-0.3s-1.7-1.7-3.5-2.1c1.7-1.9,2.7-3.9,3.4-5.7c1.6,3.3,6-0.3,6-0.3
		s-3.5-3.5-5.5-1.5c0.2-1,0.3-1.8,0.4-2.6c3-1.8-0.7-5.9-0.7-5.9s-4.1,4.5-0.2,6.2c-0.5,1.1-1.1,2.6-1.9,4.1
		c-0.5-1.4-1.7-2.7-1.7-2.7s-3.9,4.3-0.5,6.1c-1.1,1.5-2.5,3-4,4.2c0.3-1.7-0.7-4-0.7-4s-5.2,3-2.2,5.7c-1.4,0.6-2.9,1-4.5,1.1
		l-1-11.9c3.1-0.8,5.5-1.9,7.3-3.3c1.2,2.4,4.4-0.2,4.4-0.2s-1.3-1.3-2.6-1.5c1.2-1.4,2-2.9,2.5-4.2c1.2,2.5,4.4-0.2,4.4-0.2
		s-2.5-2.6-4-1.1c0.2-0.7,0.3-1.3,0.3-1.9c2.2-1.3-0.5-4.4-0.5-4.4s-3,3.3-0.1,4.5c-0.3,0.8-0.8,1.9-1.4,3c-0.4-1.1-1.2-2-1.2-2
		s-2.9,3.2-0.3,4.5c-0.8,1.1-1.8,2.2-3,3.1c0.2-1.3-0.5-2.9-0.5-2.9s-3.8,2.2-1.6,4.2C39.2,20.7,38,21,36.7,21L36,12.7L35.5,21
		c-1.3,0-2.5-0.3-3.6-0.8c2.2-2-1.6-4.2-1.6-4.2s-0.8,1.6-0.5,2.9c-1.2-0.9-2.1-2-3-3.1c2.5-1.3-0.3-4.5-0.3-4.5s-0.9,0.9-1.2,2
		c-0.6-1.1-1.1-2.2-1.4-3c2.9-1.2-0.1-4.5-0.1-4.5s-2.7,3-0.5,4.4c0,0.5,0.1,1.2,0.3,1.9c-1.5-1.5-4,1.1-4,1.1s3.3,2.7,4.4,0.2
		c0.5,1.4,1.2,2.8,2.5,4.2c-1.3,0.2-2.6,1.5-2.6,1.5s3.2,2.7,4.4,0.2c1.8,1.4,4.1,2.5,7.3,3.3l-0.7,11.8c-1.4-0.2-2.6-0.5-3.8-1
		c3-2.7-2.2-5.7-2.2-5.7s-1,2.2-0.7,4c-1.6-1.2-2.9-2.6-4-4.2c3.5-1.7-0.5-6.1-0.5-6.1s-1.2,1.3-1.7,2.7c-0.8-1.5-1.5-2.9-1.9-4.1
		c3.9-1.6-0.2-6.2-0.2-6.2S16,18,19,19.9c0.1,0.7,0.2,1.6,0.4,2.6c-2-2-5.5,1.5-5.5,1.5s4.4,3.6,6,0.3c0.6,1.8,1.7,3.8,3.4,5.7
		c-1.7,0.3-3.5,2.1-3.5,2.1s4.4,3.6,6,0.3c2.2,1.7,5,3.2,8.8,4.2L34,47.8v-0.2c-3,0-5.7-0.6-8.1-1.7c4.4-4-3.3-8.5-3.3-8.5
		s-1.5,3.3-1.1,5.9c-2.3-1.8-4.3-3.9-6-6.2c5.2-2.6-0.7-9-0.7-9s-1.7,1.9-2.5,4.1c-1.2-2.2-2.2-4.3-2.9-6c5.9-2.4-0.3-9.2-0.3-9.2
		S3.6,23,8.1,25.7c0.1,1.1,0.3,2.4,0.6,3.8c-3-3-8.2,2.2-8.2,2.2s6.6,5.4,9,0.4c0.9,2.7,2.5,5.7,5,8.5c-2.6,0.5-5.2,3.1-5.2,3.1
		s6.5,5.4,8.9,0.5c3.7,2.9,8.7,5.3,15.5,6.9l-0.9,15.1h7.4l-1.2-15.3c6.4-1.5,11.1-3.9,14.7-6.7c2.4,4.9,8.9-0.5,8.9-0.5
		s-2.6-2.6-5.2-3.1c2.5-2.8,4.1-5.8,5-8.5c2.4,5,9-0.4,9-0.4S66.4,26.5,63.3,29.5z"/>
</g>
</svg>
