<?xml version="1.0" encoding="utf-8"?>
<!-- Generator: Adobe Illustrator 18.0.0, SVG Export Plug-In . SVG Version: 6.00 Build 0)  -->
<!DOCTYPE svg PUBLIC "-//W3C//DTD SVG 1.1//EN" "http://www.w3.org/Graphics/SVG/1.1/DTD/svg11.dtd">
<svg version="1.1" id="Layer_1" xmlns="http://www.w3.org/2000/svg" xmlns:xlink="http://www.w3.org/1999/xlink" x="0px" y="0px"
	 viewBox="0 0 72 72" enable-background="new 0 0 72 72" xml:space="preserve">
<g>
	<path fill="#F04B36" d="M36.8,22.6c0,0.1,0,0.2,0,0.3C36.8,22.8,36.8,22.8,36.8,22.6C36.8,22.7,36.8,22.7,36.8,22.6z"/>
	<path fill="#F04B36" d="M36.9,31.7c0.4,0.4,1,0.7,1.7,1c5.6-2.1,1.9-7.5,0.5-9.3c0,0,0-0.1,0-0.1c0.5-0.1,1-0.3,1.3-0.6
		c0.2,2.2,1.4,9,7,6.4c2.6-5.5-4.2-6.7-6.4-7c0.3-0.4,0.5-0.9,0.6-1.5c1.7,1.4,7.4,5.3,9.4-0.4c-2.1-5.7-7.7-1.8-9.4-0.4
		c-0.1-0.5-0.3-1-0.6-1.5c2.2-0.2,9-1.4,6.4-7c-5.5-2.6-6.7,4.2-7,6.4c-0.4-0.3-0.9-0.5-1.5-0.6c1.4-1.7,5.3-7.4-0.4-9.4
		c-5.7,2.1-1.8,7.7-0.4,9.4c-0.5,0.1-1,0.3-1.5,0.6c-0.2-2.2-1.4-9-7-6.4c-2.6,5.5,4.2,6.7,6.4,7c-0.3,0.4-0.5,0.9-0.6,1.5
		c-1.7-1.4-7.4-5.3-9.4,0.4c2.1,5.7,7.7,1.8,9.4,0.4c0.1,0.5,0.3,1,0.6,1.5c-2.2,0.2-9,1.4-6.4,7c2.6,1.2,4.3,0.3,5.3-1.2
		c-0.1,0.4-0.2,0.8-0.3,1.2c0,0,0.1-0.1,0.1-0.1C35.5,29.9,36.2,30.8,36.9,31.7z M36.8,22.6C36.8,22.7,36.8,22.7,36.8,22.6
		c0,0.1,0,0.2,0,0.3C36.8,22.8,36.8,22.7,36.8,22.6z"/>
	<path fill="#F04B36" d="M71.5,34.6c-2.1-5.7-7.7-1.8-9.4-0.4c-0.1-0.5-0.3-1-0.6-1.5c2.2-0.2,9-1.4,6.4-7c-5.5-2.6-6.7,4.2-7,6.4
		c-0.4-0.3-0.9-0.5-1.5-0.6c1.4-1.7,5.3-7.4-0.4-9.4c-5.7,2.1-1.8,7.7-0.4,9.4c-0.5,0.1-1,0.3-1.5,0.6c-0.2-2.2-1.4-9-7-6.4
		c-2.6,5.5,4.2,6.7,6.4,7c-0.3,0.4-0.5,0.9-0.6,1.5c-1.7-1.4-7.4-5.3-9.4,0.4c2.1,5.7,7.7,1.8,9.4,0.4c0,0.3,0.1,0.5,0.2,0.7
		c-0.5,0.3-1.1,0.6-1.9,1.2c-1.7,0.4-3.7,1.3-4.4,3c0.1,0,0.1,0.1,0.2,0.2c0.1,0.2,0.1,0.4,0.1,0.6c0,0.9,0,2,0.2,2.9
		c4.7,2,6.2-2.8,6.6-5.5c0.5-0.3,0.8-0.5,0.9-0.5c0.2,0.1,0.4,0.1,0.7,0.2c-1.4,1.7-5.3,7.4,0.4,9.4c5.7-2.1,1.8-7.7,0.4-9.4
		c0.5-0.1,1-0.3,1.5-0.6c0.2,2.2,1.4,9,7,6.4c2.6-5.5-4.2-6.7-6.4-7c0.3-0.4,0.5-0.9,0.6-1.5C63.8,36.4,69.4,40.3,71.5,34.6z"/>
	<path fill="#F04B36" d="M22.5,36.7c-0.1-0.1-0.1-0.1-0.2-0.2c-0.4-1.7-2.1-2.6-3.7-3.2c-1.1-0.9-2-1.5-2.6-1.9c0-0.1,0-0.1,0-0.2
		c1.7,1.4,7.4,5.3,9.4-0.4c-2.1-5.7-7.7-1.8-9.4-0.4c-0.1-0.5-0.3-1-0.6-1.5c2.2-0.2,9-1.4,6.4-7c-5.5-2.6-6.7,4.2-7,6.4
		c-0.4-0.3-0.9-0.5-1.5-0.6c1.4-1.7,5.3-7.4-0.4-9.4c-5.7,2.1-1.8,7.7-0.4,9.4c-0.5,0.1-1,0.3-1.5,0.6c-0.2-2.2-1.4-9-7-6.4
		c-2.6,5.5,4.2,6.7,6.4,7c-0.3,0.4-0.5,0.9-0.6,1.5C8.2,29,2.6,25,0.5,30.8c2.1,5.7,7.7,1.8,9.4,0.4c0.1,0.5,0.3,1,0.6,1.5
		c-2.2,0.2-9,1.4-6.4,7c5.5,2.6,6.7-4.2,7-6.4c0.4,0.3,0.9,0.5,1.5,0.6c-1.4,1.7-5.3,7.4,0.4,9.4c5.7-2.1,1.8-7.7,0.4-9.4
		c0.5-0.1,0.9-0.2,1.2-0.5c0.1,0.1,0.2,0.1,0.3,0.2c0.3,2.4,1.6,8.5,6.9,6.1c0-0.1,0-0.1,0.1-0.2c0.1,0.1,0.3,0.3,0.4,0.4
		C22.7,38.8,22.8,37.7,22.5,36.7z"/>
	<path fill="#E77528" d="M50.1,40.6c0-0.2,0-0.4-0.1-0.6c0-0.1-0.1-0.1-0.2-0.2c0,0.1-0.1,0.1-0.1,0.2c-4.7,3.6-10.4,9.2-13.2,16.3
		c-1-3-1.5-6.3-1.6-9.5c3.4-1.1,5.1-7.3,5.1-7.3S37,40.8,35,42.8c0.2-4.1,0.9-8,1.7-11.3c0.1,0.1,0.2,0.1,0.2,0.2
		c-0.7-0.9-1.4-1.8-2-2.8c0,0-0.1,0.1-0.1,0.1c-1.5,5.4-2.9,12.9-2.1,20.4c-1.2-2.1-2.5-4.1-3.9-5.8c2.1-2.9-0.5-9-0.5-9
		s-1.7,3.1-1.9,6c-1.3-1.5-2.6-2.8-3.8-3.9c0.3,1,0.2,2.2-0.2,3.2c3,3,6.3,6.9,8.7,11.6c-2.3-1.2-4.9-1.6-4.9-1.6s3.2,5.9,6.8,6
		c0.4,1.3,0.8,2.6,1.1,3.9c-3.3,0.6-5.5,2.5-5.6,2.5c-0.5,0.4-0.5,1.2-0.1,1.7c0.4,0.5,1.2,0.5,1.7,0.1c0.2-0.2,5.5-4.7,12.2,0.1
		c0.2,0.2,0.5,0.2,0.7,0.2c0.4,0,0.7-0.2,1-0.5c0.4-0.5,0.3-1.3-0.3-1.7c-2-1.4-3.9-2.2-5.7-2.5c0.4-1.6,1-3.2,1.8-4.6
		c2.8,2.6,9.4-0.5,9.4-0.5s-5.2-2.6-8.3-1.4c1.4-2.2,3-4.3,4.7-6.1c2.8,2.7,9.4-0.4,9.4-0.4s-4.2-2.1-7.3-1.7c0.8-0.7,1.6-1.4,2.3-2
		c0.1,0.1,0.1,0.3,0.2,0.5c0.1,0,0.1,0.1,0.2,0.1C50.1,42.6,50.1,41.5,50.1,40.6z"/>
</g>
</svg>
