<?xml version="1.0" encoding="utf-8"?>
<!-- Generator: Adobe Illustrator 18.0.0, SVG Export Plug-In . SVG Version: 6.00 Build 0)  -->
<!DOCTYPE svg PUBLIC "-//W3C//DTD SVG 1.1//EN" "http://www.w3.org/Graphics/SVG/1.1/DTD/svg11.dtd">
<svg version="1.1" id="Layer_1" xmlns="http://www.w3.org/2000/svg" xmlns:xlink="http://www.w3.org/1999/xlink" x="0px" y="0px"
	 viewBox="0 0 72 72" enable-background="new 0 0 72 72" xml:space="preserve">
<g>
	<circle fill="none" cx="37.7" cy="17.1" r="1"/>
	<circle fill="none" cx="35.6" cy="34.9" r="1.1"/>
	<circle fill="none" cx="32" cy="9.7" r="0.7"/>
	<circle fill="none" cx="18.2" cy="21.4" r="0.8"/>
	<circle fill="none" cx="27.6" cy="30.9" r="1.2"/>
	<circle fill="none" cx="17.9" cy="37.3" r="1.6"/>
	<circle fill="none" cx="52.9" cy="23.1" r="0.9"/>
	<circle fill="none" cx="40.4" cy="20.5" r="0.9"/>
	<circle fill="none" cx="47.2" cy="11.7" r="0.7"/>
	<circle fill="none" cx="49.4" cy="38.3" r="1.1"/>
	<path fill="#E77528" d="M33.8,45.1c-0.6,0.1-1.1,0.4-1.6,0.7c0.1,0,0.2,0,0.2,0c-0.1,3.5-0.8,22.8-5,25.7h15.9
		c0,0-5.4-8.6-4.7-23.3c-0.2-0.4-0.4-0.9-0.7-1.3C36.9,45.7,35.4,44.8,33.8,45.1z"/>
	<path fill="#0DB89A" d="M60,24.3c-0.2-0.5-0.5-1-0.6-1.6c-0.6-2.1,0.5-4.3,0.7-6.5c0.2-1.5,0-3-0.5-4.4c-0.7-1.8-1.9-3.3-3.3-4.6
		c-0.6-0.6-1.3-1.2-2.1-1.6c-0.9-0.4-1.8-0.6-2.8-0.8c-2.4-0.6-4.5-1.9-6.8-2.9c-2.3-1-4.8-1.7-7.2-1.1c-0.9,0.2-1.7,0.7-2.7,0.8
		c-1.1,0.1-2.2-0.2-3.3-0.4c-3.4-0.7-7-0.6-10.1,0.9c-3.1,1.5-5.4,4.7-5.5,8.1c0,1.1,0.2,2.3-0.1,3.4c-0.2,0.9-0.7,1.7-1.2,2.5
		c-0.9,1.5-1.7,3-2.5,4.5c-0.4,0.8-0.8,1.7-1,2.6c-0.4,2.2,0.7,4.4,0.9,6.7c0.2,2.2-0.5,4.4-0.1,6.5c0.5,2.8,2.9,5.1,5.6,6.2
		c2.7,1.2,5.6,1.4,8.5,1.8c0.4,0,0.9,0.1,1.2,0.4c0.2,0.2,0.6,0.7,0.6,0.7c0.3,0.3,0.8,0.3,1.3,0.3c1,0,2,0,3,0
		c0.5-0.4,1-0.6,1.6-0.7c1.5-0.3,3.1,0.7,4,1.9c0.3,0.4,0.5,0.8,0.7,1.3c0-0.1,0-0.2,0-0.2c1.2,0.6,2.4,1.1,3.7,1.2
		c1.8,0.1,3.5-0.6,5.2-1.3c2.2-0.9,4.4-2,5.6-4c0.6-1,0.8-2.2,1.4-3.3c1-2,2.8-3.5,4.2-5.3C60.9,32.2,61.4,27.9,60,24.3z M18.2,20.6
		c0.5,0,0.8,0.4,0.8,0.8c0,0.5-0.4,0.8-0.8,0.8c-0.5,0-0.8-0.4-0.8-0.8C17.3,20.9,17.7,20.6,18.2,20.6z M17.9,38.9
		c-0.9,0-1.6-0.7-1.6-1.6c0-0.9,0.7-1.6,1.6-1.6c0.9,0,1.6,0.7,1.6,1.6C19.6,38.2,18.8,38.9,17.9,38.9z M27.6,32.1
		c-0.7,0-1.2-0.5-1.2-1.2c0-0.7,0.5-1.2,1.2-1.2c0.7,0,1.2,0.5,1.2,1.2C28.8,31.6,28.2,32.1,27.6,32.1z M32,10.4
		c-0.4,0-0.7-0.3-0.7-0.7C31.2,9.3,31.6,9,32,9c0.4,0,0.7,0.3,0.7,0.7C32.7,10.1,32.4,10.4,32,10.4z M35.6,35.9
		c-0.6,0-1.1-0.5-1.1-1.1c0-0.6,0.5-1.1,1.1-1.1c0.6,0,1.1,0.5,1.1,1.1C36.7,35.4,36.2,35.9,35.6,35.9z M37.7,18.1c-0.6,0-1-0.4-1-1
		c0-0.6,0.4-1,1-1c0.6,0,1,0.4,1,1C38.7,17.7,38.2,18.1,37.7,18.1z M40.4,21.3c-0.5,0-0.9-0.4-0.9-0.9c0-0.5,0.4-0.9,0.9-0.9
		c0.5,0,0.9,0.4,0.9,0.9C41.3,20.9,40.9,21.3,40.4,21.3z M47.2,12.4c-0.4,0-0.7-0.3-0.7-0.7c0-0.4,0.3-0.7,0.7-0.7
		c0.4,0,0.7,0.3,0.7,0.7C47.9,12.1,47.6,12.4,47.2,12.4z M49.4,39.4c-0.6,0-1.1-0.5-1.1-1.1c0-0.6,0.5-1.1,1.1-1.1
		c0.6,0,1.1,0.5,1.1,1.1C50.5,38.9,50,39.4,49.4,39.4z M52.9,24c-0.5,0-0.9-0.4-0.9-0.9c0-0.5,0.4-0.9,0.9-0.9
		c0.5,0,0.9,0.4,0.9,0.9C53.8,23.6,53.4,24,52.9,24z"/>
</g>
</svg>
