<?xml version="1.0" encoding="utf-8"?>
<!-- Generator: Adobe Illustrator 18.0.0, SVG Export Plug-In . SVG Version: 6.00 Build 0)  -->
<!DOCTYPE svg PUBLIC "-//W3C//DTD SVG 1.1//EN" "http://www.w3.org/Graphics/SVG/1.1/DTD/svg11.dtd">
<svg version="1.1" id="Layer_1" xmlns="http://www.w3.org/2000/svg" xmlns:xlink="http://www.w3.org/1999/xlink" x="0px" y="0px"
	 viewBox="0 0 72 72" enable-background="new 0 0 72 72" xml:space="preserve">
<g>
	<path fill="#06728D" d="M33.6,18c1.1,0.1,2.2,0.1,3.3-0.1c0.7-0.1,1.3-0.3,1.9-0.5c2-0.9,3.4-2.7,4.5-4.5c0.5-0.7,0.9-1.4,1.2-2.3
		c0.5-1.4,0.4-2.9,0.2-4.3c0-0.3-0.1-0.6-0.3-0.7c-0.3-0.2-0.6,0-0.9,0.1c-1.7,1-3,2.6-4.7,3.7c-0.8,0.5-1.7,0.9-2.3,1.5
		c0.4-0.9,0.3-2,0.2-3c-0.3-2.5-0.7-5-1.8-7.2c-0.1-0.1-0.2-0.3-0.3-0.3c-0.1,0-0.2,0.1-0.2,0.2c-0.5,0.7-1,1.4-1.5,2.2
		c-0.6,0.9-1.2,2-1.4,3.1c-0.2,1.2,0.1,2.6-0.2,3.8c-0.1,0.2-0.2,0.5-0.4,0.6c-0.2,0.1-0.4,0.1-0.6,0c-1.6-0.4-2.6-1.9-3.6-3.1
		c-0.9-1-2-1.9-3.2-2.6C23.2,5.8,23.6,7,23.9,8c0.4,1.4,0.8,2.7,1.2,4.1c0.2,0.7,0.4,1.3,0.7,1.9c0.4,0.7,1,1.2,1.6,1.6
		c1.3,1,2.8,1.7,4.4,2.1c0,0.1,0,0.1,0,0.2c0.6,0,1.3,0.1,1.8,0.4C33.6,18.2,33.6,18.1,33.6,18z"/>
	<path fill="#E77528" d="M34.4,49.6c-2.4-10.9-1.6-23.9-0.8-31.3c-0.5-0.3-1.1-0.4-1.8-0.4c-0.3,2.9-0.6,6.6-0.8,10.7
		c-0.2-0.2-0.4-0.5-0.6-0.7c0.1,0.5,0.1,0.9,0.2,1.4c0.3,2.2,0.5,4.6,0.3,6.9c0,0,0.1,0,0.1-0.1c0.4,11.3,2.7,23.7,10,29.9
		c-1,0.6-1.7,1.3-1.7,2.2c0,1.8,3,3.3,6.6,3.3c3.7,0,6.6-1.5,6.6-3.3c0-1.6-2.2-2.8-5.1-3.2c1.3-2.7,1.8-6.1,1.9-9.3
		c0.4,0.3,0.9,0.4,1.3,0.4c0.4,0.1,0.7,0.1,1.1-0.1c0.6-0.3,0.6-1.2,0.8-1.9c0-0.1,0-0.2,0.1-0.3c0.1-0.1,0.3-0.1,0.5-0.1
		c0.6-0.1,1.1-0.6,1.2-1.1c0.1-0.3,0-0.6,0.2-0.8c0.1-0.2,0.4-0.2,0.5-0.3c0.6-0.3,1-0.8,1.1-1.4c-0.7,0-1.4,0-2.1,0
		c-0.2,0-0.5,0-0.7,0.2c-0.1,0.1-0.2,0.3-0.3,0.4c-0.1,0.1-0.4,0.1-0.5,0.1c-0.5,0-1.1,0.4-1.3,0.9c-0.1,0.1-0.1,0.3-0.2,0.3
		C51,52,50.8,52,50.6,52c-0.5,0-1,0.3-1.3,0.7c-0.1-1.7-0.2-3.3-0.3-4.5c0.7-0.2,1.3-0.5,1.8-0.9c0.3-0.2,0.5-0.4,0.6-0.7
		c0.1-0.2,0.2-0.5,0.3-0.8c0.2-0.6,0.3-1.1,0.5-1.7c0.1-0.4,0.3-0.9,0.2-1.4c-0.5,0.3-0.9,0.6-1.3,1c-0.4,0.5-0.8,1.1-1.5,1.3
		c-0.1,0-0.2,0-0.3,0c-0.1,0-0.1-0.1-0.2-0.2c-0.1-0.5,0-1-0.1-1.5c-0.1-0.5-0.3-0.9-0.6-1.3c-0.2-0.3-0.4-0.6-0.6-0.9
		c0,0,0-0.1-0.1-0.1c-0.1,0-0.1,0.1-0.1,0.1c-0.5,0.9-0.6,1.9-0.7,3c-0.1,0.4-0.1,0.9,0.1,1.2c-0.3-0.3-0.6-0.4-1-0.6
		c-0.7-0.4-1.2-1.1-1.9-1.5c-0.1-0.1-0.3-0.1-0.4-0.1c-0.1,0.1-0.1,0.2-0.1,0.3c-0.1,0.6-0.1,1.2,0.1,1.8c0.1,0.3,0.3,0.6,0.5,0.9
		c0.5,0.7,1,1.5,1.9,1.8c0.2,0.1,0.5,0.2,0.8,0.2c0.5,0.1,0.9,0.1,1.4,0c0.3,3,0.7,8.4-0.3,12.9c-0.7-3.7-2.9-5.3-3-5.3
		c0,0-0.1,0-0.1,0c0.3-0.4,0.6-0.8,0.8-1.3c0.1-0.3,0.2-0.5,0.2-0.8c0-0.2-0.1-0.5-0.2-0.7c-0.2-0.5-0.3-1-0.5-1.5
		c-0.1-0.4-0.3-0.8-0.5-1.1c-0.2,0.4-0.4,0.9-0.5,1.4c-0.1,0.6-0.1,1.2-0.5,1.7c-0.1,0.1-0.1,0.1-0.2,0.1c-0.1,0-0.2,0-0.2-0.1
		c-0.3-0.3-0.5-0.8-0.8-1.1c-0.3-0.3-0.7-0.5-1-0.7c-0.3-0.1-0.6-0.3-0.9-0.4c0,0-0.1,0-0.1,0c-0.1,0-0.1,0.1,0,0.1
		c0.1,0.9,0.5,1.8,0.9,2.6c0.2,0.3,0.3,0.7,0.7,0.9c-0.3-0.1-0.7,0-1,0c-0.7,0-1.4-0.2-2.2-0.2c-0.1,0-0.3,0-0.3,0.1
		c0,0.1,0,0.2,0,0.3c0.2,0.5,0.5,1,0.9,1.3c0.3,0.2,0.5,0.3,0.8,0.4c0.7,0.3,1.5,0.6,2.3,0.5c0.2,0,0.5-0.1,0.7-0.2
		c0.5-0.2,0.9-0.5,1.3-0.8c0,0.1,0.1,0.1,0.1,0.2c0,0,2.6,2,2.9,6.6c-0.2,0.7-0.5,1.3-0.8,1.9c-0.2,0-0.5,0-0.7,0
		c-1.1,0-2.1,0.1-3,0.4c-3.4-2.6-5.8-6.6-7.3-11.3c0.6-10.7,6.4-15.6,7-16c-0.4-0.4-0.8-0.9-1.2-1.3C40.3,37.6,36,41.5,34.4,49.6z"
		/>
	<path fill="#06728D" d="M30.6,29.3c-0.1-0.5-0.1-0.9-0.2-1.4c-0.7-0.6-1.6-1-2.5-1c-0.4,0-0.9,0.1-1.2-0.2
		c-0.3-0.2-0.4-0.5-0.5-0.8c-0.5-1.2-1.8-2.1-3.1-2.2c-0.5,0-1,0-1.3-0.3c-0.3-0.3-0.4-0.7-0.7-1c-0.4-0.4-1.1-0.5-1.6-0.4
		c-1.7,0-3.5,0-5.2,0.1c0.3,1.5,1.4,2.8,2.8,3.5c0.5,0.2,1,0.4,1.3,0.8c0.4,0.5,0.4,1.3,0.5,2c0.3,1.4,1.5,2.6,3,2.8
		c0.4,0.1,0.9,0,1.2,0.4c0.2,0.2,0.2,0.4,0.3,0.7c0.4,1.7,0.3,3.9,1.9,4.7c0.8,0.4,1.7,0.3,2.6,0.2c1.1-0.2,2.2-0.4,3.1-1
		C31.1,33.9,30.9,31.5,30.6,29.3z"/>
	<path fill="#06728D" d="M43,37.6c0.9,0.8,1.9,1.5,3.1,2c0.5,0.2,1.1,0.4,1.7,0.5c1.9,0.3,3.8-0.4,5.6-1.2c0.7-0.3,1.4-0.6,2-1.1
		c1-0.8,1.7-2,2.3-3.1c0.1-0.2,0.2-0.5,0.1-0.7c-0.1-0.3-0.5-0.3-0.8-0.4c-1.8-0.1-3.5,0.5-5.3,0.5c-0.8,0-1.7-0.2-2.5,0
		c0.8-0.5,1.2-1.3,1.6-2.2c1-2,2-4.1,2.2-6.3c0-0.1,0-0.3-0.1-0.4c-0.1,0-0.2,0-0.2,0c-0.7,0.3-1.5,0.6-2.2,0.9
		c-0.9,0.4-1.9,0.9-2.6,1.6c-0.8,0.8-1.2,2-2,2.7c-0.2,0.1-0.4,0.3-0.6,0.3c-0.2,0-0.4-0.1-0.5-0.3c-1-1-1-2.7-1.2-4.1
		c-0.2-1.2-0.6-2.4-1.1-3.5c-0.7,0.7-1,1.7-1.3,2.7c-0.4,1.2-0.7,2.4-1.1,3.7c-0.2,0.6-0.4,1.2-0.4,1.8c0,0.7,0.2,1.4,0.4,2
		c0.4,1.2,1.1,2.3,1.9,3.2c-0.1,0-0.2,0.1-0.2,0.1c0,0-0.1,0.1-0.2,0.2c0.4,0.4,0.8,0.9,1.2,1.3c0,0,0.1,0,0.1,0
		C42.8,37.9,42.9,37.8,43,37.6z"/>
</g>
</svg>
