<?xml version="1.0" encoding="utf-8"?>
<!-- Generator: Adobe Illustrator 18.0.0, SVG Export Plug-In . SVG Version: 6.00 Build 0)  -->
<!DOCTYPE svg PUBLIC "-//W3C//DTD SVG 1.1//EN" "http://www.w3.org/Graphics/SVG/1.1/DTD/svg11.dtd">
<svg version="1.1" id="Layer_1" xmlns="http://www.w3.org/2000/svg" xmlns:xlink="http://www.w3.org/1999/xlink" x="0px" y="0px"
	 viewBox="0 0 72 72" enable-background="new 0 0 72 72" xml:space="preserve">
<g>
	<circle fill="none" cx="33.7" cy="41.9" r="2.9"/>
	<circle fill="none" cx="28.8" cy="20.7" r="2.9"/>
	<circle fill="none" cx="21.8" cy="36.6" r="1.8"/>
	<circle fill="none" cx="40.3" cy="25.8" r="2.2"/>
	<circle fill="none" cx="46.8" cy="12.7" r="1.8"/>
	<circle fill="none" cx="49.7" cy="32.6" r="2.3"/>
	<path fill="#E77528" d="M34.5,50.8c-1-0.4-2.1-0.9-3-0.3c-0.4,0.3-0.6,0.7-0.8,1.1c0.5,6.2,2.2,10.5,2.2,10.5
		c3,8.2-1.7,9.4-1.7,9.4h15.8c-8.2-1.1-10.8-10.6-11.6-19.8c0,0,0,0,0,0c-0.1-0.2-0.2-0.4-0.3-0.6C34.9,51,34.7,50.9,34.5,50.8z"/>
	<path fill="#4DA0D8" d="M60.6,27.8c0-3.4-1.3-6.6-3.4-9c0.5-1.5,0.8-3,0.8-4.7c0-7.5-6.1-13.7-13.7-13.7c-5.9,0-10.9,3.7-12.8,9
		c-1.3-0.4-2.6-0.6-3.9-0.6C20.1,8.9,14,15,14,22.5c0,2.3,0.6,4.5,1.6,6.4c-2.6,2.5-4.2,6-4.2,9.8c0,7.5,6.1,13.7,13.7,13.7
		c2,0,3.9-0.4,5.6-1.2c0,0.1,0,0.2,0,0.3c0.2-0.4,0.4-0.8,0.8-1.1c0.9-0.6,2-0.2,3,0.3c0.2,0.1,0.5,0.2,0.6,0.4
		c0.2,0.2,0.2,0.4,0.3,0.6c2.4,2.1,5.5,3.4,9,3.4C51.9,55.1,58,49,58,41.5c0-1.6-0.3-3.2-0.8-4.7C59.3,34.4,60.6,31.3,60.6,27.8z
		 M21.8,38.4c-1,0-1.8-0.8-1.8-1.8s0.8-1.8,1.8-1.8c1,0,1.8,0.8,1.8,1.8S22.7,38.4,21.8,38.4z M28.8,23.6c-1.6,0-2.9-1.3-2.9-2.9
		c0-1.6,1.3-2.9,2.9-2.9c1.6,0,2.9,1.3,2.9,2.9C31.7,22.3,30.4,23.6,28.8,23.6z M33.7,44.7c-1.6,0-2.8-1.3-2.8-2.9s1.3-2.9,2.8-2.9
		c1.6,0,2.8,1.3,2.8,2.9S35.3,44.7,33.7,44.7z M40.3,28c-1.2,0-2.2-1-2.2-2.2c0-1.2,1-2.2,2.2-2.2s2.2,1,2.2,2.2
		C42.5,27,41.5,28,40.3,28z M45,12.7c0-1,0.8-1.8,1.8-1.8c1,0,1.8,0.8,1.8,1.8c0,1-0.8,1.8-1.8,1.8C45.8,14.6,45,13.7,45,12.7z
		 M49.7,34.8c-1.2,0-2.3-1-2.3-2.3c0-1.2,1-2.3,2.3-2.3c1.3,0,2.3,1,2.3,2.3C52,33.8,51,34.8,49.7,34.8z"/>
</g>
</svg>
