<?xml version="1.0" encoding="utf-8"?>
<!-- Generator: Adobe Illustrator 18.0.0, SVG Export Plug-In . SVG Version: 6.00 Build 0)  -->
<!DOCTYPE svg PUBLIC "-//W3C//DTD SVG 1.1//EN" "http://www.w3.org/Graphics/SVG/1.1/DTD/svg11.dtd">
<svg version="1.1" id="Layer_1" xmlns="http://www.w3.org/2000/svg" xmlns:xlink="http://www.w3.org/1999/xlink" x="0px" y="0px"
	 viewBox="0 0 72 72" enable-background="new 0 0 72 72" xml:space="preserve">
<g>
	<path fill="#E77528" d="M34.2,63c0.2-4.9,5.3-6.8,5.3-6.8c-2.2-1.5-5.5,1.1-7,2.5c-1.1-4-1.1-7.9-0.5-11.6
		C34.5,40.9,44.9,35,44.9,35c-3.7,1.2-8.1,3.9-11.4,6.2c2.7-7.8,7.3-13.2,7.3-13.2c-8.8,4-11.9,11.6-12.6,19c-1.4-1-3.6-2.1-6-1.9
		c0,0,4.1,2.5,5.9,5.9c0.1,8.1,2.6,15,2.6,15c2.5,4.1-2.1,5.6-2.1,5.6h12.2C37.8,68.8,35.6,65.9,34.2,63z"/>
	<path fill="#294E58" d="M46.7,27.2c-0.1-4.1,2.9-7.5,6.6-7.6c3.8-0.1,6.9,3.1,7,7.2c0,1.3-0.3,2.6-0.8,3.7c1.3-1.5,2-3.4,2-5.5
		c-0.1-4.4-3.8-7.9-8.2-7.8c-4.4,0.1-7.9,3.8-7.8,8.2c0.1,2.1,0.9,4,2.2,5.3C47.1,29.8,46.8,28.5,46.7,27.2z"/>
	<path fill="#294E58" d="M56.2,14.2c-2.7,0-5.2,1-7,2.7c1.4-0.7,3-1.2,4.8-1.2c5.3,0,9.6,4,9.6,8.9s-4.3,8.9-9.6,8.9
		c-1.7,0-3.4-0.4-4.8-1.2c1.9,1.7,4.3,2.7,7,2.7c5.8,0,10.4-4.7,10.4-10.4C66.6,18.9,61.9,14.2,56.2,14.2z"/>
	<path fill="#294E58" d="M45.7,39.7c2.3-0.1,4.2,1.9,4.3,4.4c0,0.8-0.2,1.6-0.5,2.2c0.8-0.9,1.2-2.1,1.2-3.3c-0.1-2.7-2.3-4.8-5-4.8
		c-2.7,0.1-4.8,2.3-4.8,5c0,1.3,0.6,2.4,1.4,3.3c-0.4-0.6-0.6-1.4-0.6-2.2C41.5,41.8,43.4,39.7,45.7,39.7z"/>
	<path fill="#294E58" d="M47.4,36.3c-1.6,0-3.1,0.6-4.3,1.7c0.9-0.5,1.8-0.7,2.9-0.7c3.2,0,5.8,2.4,5.8,5.4s-2.6,5.4-5.8,5.4
		c-1.1,0-2-0.3-2.9-0.7c1.1,1,2.6,1.7,4.3,1.7c3.5,0,6.3-2.8,6.3-6.3C53.7,39.2,50.9,36.3,47.4,36.3z"/>
	<path fill="#294E58" d="M10.2,14.2c2.3-0.1,4.2,1.9,4.3,4.4c0,0.8-0.2,1.6-0.5,2.2c0.8-0.9,1.2-2.1,1.2-3.3c-0.1-2.7-2.3-4.8-5-4.8
		c-2.7,0.1-4.8,2.3-4.8,5C5.5,19,6,20.2,6.8,21c-0.4-0.6-0.6-1.4-0.6-2.2C6.1,16.3,7.9,14.3,10.2,14.2z"/>
	<path fill="#294E58" d="M16.4,17.2c0,3-2.6,5.4-5.8,5.4c-1.1,0-2-0.3-2.9-0.7c1.1,1,2.6,1.7,4.3,1.7c3.5,0,6.3-2.8,6.3-6.3
		c0-3.5-2.8-6.3-6.3-6.3c-1.6,0-3.1,0.6-4.3,1.7c0.9-0.5,1.8-0.7,2.9-0.7C13.8,11.8,16.4,14.3,16.4,17.2z"/>
	<path fill="#294E58" d="M29.7,9.4c4.2-1,8.5,1.9,9.6,6.5c0.3,1.5,0.3,3-0.1,4.4c1.1-1.9,1.5-4.3,1-6.6c-1.1-5-6.1-8.1-11.1-6.9
		c-5,1.1-8.1,6.1-6.9,11.1c0.5,2.3,1.9,4.3,3.7,5.5c-0.9-1.1-1.6-2.4-2-3.9C22.9,14.8,25.5,10.4,29.7,9.4z"/>
	<path fill="#294E58" d="M39.2,6.3c4.1,3.8,4.2,10.5,0,15c-1.4,1.5-3,2.5-4.7,3.1c2.9-0.2,5.7-1.5,7.8-3.8
		c4.5-4.9,4.2-12.4-0.7-16.9c-4.9-4.5-12.4-4.2-16.9,0.7c-2.1,2.3-3.2,5.2-3.2,8.1c0.5-1.8,1.4-3.5,2.7-4.9
		C28.4,3,35.1,2.5,39.2,6.3z"/>
	<path fill="#294E58" d="M27.7,30.2c1.5,1.4,2.5,3,3.1,4.7c-0.2-2.9-1.5-5.7-3.8-7.8c-4.9-4.5-12.4-4.2-16.9,0.7
		c-4.5,4.9-4.2,12.4,0.7,16.9c2.3,2.1,5.2,3.2,8.1,3.2c-1.8-0.5-3.5-1.4-4.9-2.7c-4.5-4.1-5-10.8-1.2-15
		C16.5,26.1,23.3,26,27.7,30.2z"/>
</g>
</svg>
