<?xml version="1.0" encoding="utf-8"?>
<!-- Generator: Adobe Illustrator 18.0.0, SVG Export Plug-In . SVG Version: 6.00 Build 0)  -->
<!DOCTYPE svg PUBLIC "-//W3C//DTD SVG 1.1//EN" "http://www.w3.org/Graphics/SVG/1.1/DTD/svg11.dtd">
<svg version="1.1" id="Layer_1" xmlns="http://www.w3.org/2000/svg" xmlns:xlink="http://www.w3.org/1999/xlink" x="0px" y="0px"
	 viewBox="0 0 72 72" enable-background="new 0 0 72 72" xml:space="preserve">
<g>
	<path fill="#E77528" d="M38.5,50.9c-0.6,0-1.2,0-1.8,0c-0.2,0-0.4,0-0.5,0.1c-0.2,0.1-0.3,0.3-0.4,0.5c-0.2,0.4-0.4,0.8-0.6,1.2
		c0.5-0.3,1-0.7,1.4-1.1c-0.7,9.2-3.4,18.7-11.6,19.8h15.8c0,0-4.8-1.3-1.7-9.4c0,0,1.7-4.5,2.2-10.8C40.5,51,39.5,50.9,38.5,50.9z"
		/>
	<path fill="#F7A93B" d="M46.9,52.4c7.5,0,13.7-6.1,13.7-13.7c0-3.9-1.6-7.3-4.2-9.8c1-1.9,1.6-4.1,1.6-6.4C58,15,51.9,8.9,44.4,8.9
		c-1.4,0-2.7,0.2-3.9,0.6c-1.9-5.2-6.9-9-12.8-9C20.1,0.5,14,6.6,14,14.2c0,1.6,0.3,3.2,0.8,4.7c-2.1,2.4-3.4,5.5-3.4,9
		c0,3.4,1.3,6.6,3.4,9c-0.5,1.5-0.8,3-0.8,4.7c0,7.5,6.1,13.7,13.7,13.7c2.8,0,5.4-0.9,7.6-2.3c0.2-0.4,0.4-0.8,0.6-1.2
		c0.1-0.2,0.2-0.4,0.4-0.5c0.2-0.1,0.3-0.1,0.5-0.1c0.6,0,1.2,0,1.8,0c0.9,0,1.9,0,2.8,0.3c0,0,0,0,0,0C43.1,52,44.9,52.4,46.9,52.4
		z"/>
</g>
</svg>
