<?xml version="1.0" encoding="utf-8"?>
<!-- Generator: Adobe Illustrator 18.0.0, SVG Export Plug-In . SVG Version: 6.00 Build 0)  -->
<!DOCTYPE svg PUBLIC "-//W3C//DTD SVG 1.1//EN" "http://www.w3.org/Graphics/SVG/1.1/DTD/svg11.dtd">
<svg version="1.1" id="Layer_1" xmlns="http://www.w3.org/2000/svg" xmlns:xlink="http://www.w3.org/1999/xlink" x="0px" y="0px"
	 viewBox="0 0 72 72" enable-background="new 0 0 72 72" xml:space="preserve">
<g>
	<path fill="#E77528" d="M55.3,37.8c-0.3-0.2-0.7-0.4-0.9-0.7c-0.6-0.8-0.1-1.9,0.7-2.5c0.7-0.6,1.7-0.9,2.3-1.7
		c1.2-1.3,0.9-3.4,0.5-5.2c-0.1-0.3-0.2-0.7-0.4-0.9c-0.3-0.3-0.8-0.3-1.2-0.4c-2.9-0.2-5.9-0.4-8.4,1c-2.5,1.3-4.2,4.8-2.6,7.2
		c-0.8-0.9-2-1.7-3.2-2.2c-0.3-0.1-0.6-0.2-1-0.2c1-5.1,1.5-8.7,1.5-8.8c0,0,0-0.1,0-0.1C43.2,9.9,46.3,6.1,48,5
		c0.4-0.2,0.7-0.4,1-0.4c0,0.1,0.1,0.2,0.1,0.3c0.1,0.1,0.1,0.3,0.2,0.4c0.2,0.2,0.6,0.2,0.9,0.1c0.1,0,0.2,0,0.3,0
		c0.3,0.1,0.2,0.6,0.3,0.9c0.1,0.3,0.6,0.4,0.9,0.4c0.3-0.1,0.7-0.2,1-0.3c0.3,0,0.6,0,0.9,0c0.3,0,0.6-0.1,0.9-0.3
		c0.3-0.4,0.2-1,0.5-1.3c0.3-0.3,0.9-0.3,1.1-0.8c0.1-0.3,0-0.6-0.2-0.8c-0.2-0.2-0.5-0.3-0.7-0.5c-0.1-0.1-0.2-0.2-0.3-0.3
		c0-0.1,0-0.3,0-0.4c0-0.4-0.3-0.7-0.5-1c-0.1-0.2-0.3-0.4-0.5-0.4c-0.3-0.1-0.6,0.1-0.9,0.2c-0.6,0.2-1.3,0.1-1.9,0
		c-0.5,0-1.1,0-1.2,0.5c-0.1,0.3,0.1,0.6,0.2,0.8c0.1,0.2,0.1,0.3,0.1,0.5c-0.8-0.1-1.9,0-3,0.7C44.4,5,42.5,9,41.5,15.4
		c-0.8-2.4-1.7-4.7-2.5-6.3c0.2-0.2,0.3-0.6,0.3-0.9c0-0.5-0.1-1-0.1-1.5c0-0.5,0.2-0.9,0.3-1.3c0.1-0.4,0.1-1-0.2-1.3
		C38.9,3.6,38,3.5,37.6,3c-0.4-0.5-0.2-1.5-0.8-1.8C36.5,0.9,36,1,35.6,1.3c-0.3,0.2-0.6,0.6-0.9,0.9c-0.2,0.1-0.3,0.3-0.5,0.3
		c-0.2,0-0.4-0.1-0.6-0.1C33,2.2,32.5,2.5,32,2.8c-0.3,0.1-0.6,0.3-0.8,0.6c-0.2,0.4-0.1,0.9,0,1.4c0.1,0.9-0.3,1.8-0.5,2.7
		c-0.2,0.7-0.3,1.6,0.4,1.9c0.4,0.2,0.8,0.1,1.3,0c0.4-0.1,1,0,1.1,0.4c0.2,0.4-0.1,0.8,0,1.2c0.1,0.6,0.9,0.7,1.5,0.7
		c0.4,0,0.7,0,1.1-0.1c0.2,0,0.5-0.1,0.6-0.2c0.4-0.3,0.4-0.8,0.4-1.2c0-0.2,0-0.3,0.1-0.5c0,0,0,0,0.1-0.1
		c1.3,2.7,3.8,8.6,3.6,12.4c0,0,0,0,0,0c0,0.4,0,0.8-0.1,1.1c-0.1,0.5-0.7,4.2-1.6,9.2c-0.2,0.1-0.4,0.2-0.6,0.3
		c-1.1,0.7-2.3,2.2-3.6,2.2c-0.1,0.3-0.4,0.5-0.8,0.6c0.2-0.4,0.3-0.7,0.5-1.1c0.7-2.3,0.1-4.7-0.4-7c-0.1-0.4-0.2-0.8-0.5-1
		c-0.3-0.2-0.6-0.1-0.9-0.1c-2.9,0.4-6.1,1.4-7,4.2c-0.6,2-0.1,4.7-1.9,5.6c-1.6-2.5-5.1-2.7-8.1-2.5c-0.7,0-1.5,0.1-2.1,0.5
		c-1,0.7-1.1,2-1.2,3.2c-0.1,2-0.3,4.1,0.4,6c0.7,1.9,2.5,3.6,4.5,3.4c1-0.1,2-0.5,3-0.3c0.6,0.1,1.1,0.5,1.6,0.8
		c0.8,0.6,1.6,1.1,2.5,1.5c1.3,3.6,3.8,9.2,7.3,12.8c0,0.2,0,0.4,0,0.6c0.3,2.4,1.1,4.7,2.4,6.7c-0.7-0.5-1.6-0.9-2.4-1
		c0.6,1.3,1.5,2.4,2.5,3.4c0.1,0.1,0.3,0.3,0.4,0.3c0.4,0.1,0.7-0.3,1-0.6c0.1-0.1,0.3-0.2,0.4-0.2c0.2,0.2,0.4,0.3,0.6,0.5
		c0.2,0.1,0.3,0.1,0.5,0.1c0.3,0,0.6-0.2,0.8-0.4c0-0.1,0.1-0.1,0.1-0.2c1,0.2,2.1,0.6,3,0.1c-0.9-0.5-1.4-1.6-1.7-2.5
		c-0.4-1.1-0.8-2.2-1.2-3.3c2.7-6.2,6-19.3,7.1-24c0.9,0.5,1.5,1.3,2.3,1.9c3.3,2.8,8.1,2.4,12.4,1.9C59.5,41.9,57.8,39.2,55.3,37.8
		z M43.3,40.5c-1,4.2-3.8,15.3-6.2,21.7c-0.2-0.7-0.3-1.5-0.2-2.2c-0.8-0.2-1.5-0.1-2.3,0.1c0.1-0.9,0.2-1.5,0.3-1.6
		c1.6-4.9,3.1-11,4.3-16.7C40.6,41.2,42,40.6,43.3,40.5z M32.3,38.1c0,0.7,0,1.4,0,2c0,0.5,0,1,0.2,1.4c0.3,0.7,1.1,1.2,1.8,1.3
		c0.9,0.2,1.8,0.1,2.8-0.2c-0.4,1.6-0.7,3.3-1.1,5c-0.2-1.9-1.3-3.8-2.9-4.8c-1.3-0.8-3.1-1.2-3.9-2.6C30.2,39.7,31.3,39,32.3,38.1z
		 M32.9,51.8c0.6,0.1,1.3,0.2,1.9-0.2c0.1,0,0.1-0.1,0.1-0.1c-0.6,2.3-1.2,4.5-1.9,6.5c0,0,0,0.1,0,0.1c0,0.1-0.2,0.8-0.3,1.9
		c-2.6-2.8-4.6-6.8-5.9-10C28.8,50.8,30.8,51.4,32.9,51.8z"/>
</g>
</svg>
