<?xml version="1.0" encoding="utf-8"?>
<!-- Generator: Adobe Illustrator 18.0.0, SVG Export Plug-In . SVG Version: 6.00 Build 0)  -->
<!DOCTYPE svg PUBLIC "-//W3C//DTD SVG 1.1//EN" "http://www.w3.org/Graphics/SVG/1.1/DTD/svg11.dtd">
<svg version="1.1" id="Layer_1" xmlns="http://www.w3.org/2000/svg" xmlns:xlink="http://www.w3.org/1999/xlink" x="0px" y="0px"
	 viewBox="0 0 72 72" enable-background="new 0 0 72 72" xml:space="preserve">
<g>
	<path fill="none" d="M44.7,16c0.1,0,0.2,0,0.3,0l-0.4-0.6C44.7,15.7,44.7,15.8,44.7,16z"/>
	<path fill="none" d="M41.8,16.4c-1,0.8-1.1,2.4-0.5,3.6c0.6,1.2,1.7,2,2.8,2.7c0.7-0.6,0.5-1.7,0.1-2.5c-0.4-0.8-1-1.6-0.9-2.6
		c0.8-0.1,1.4-0.8,1.4-1.6C43.7,15.9,42.6,15.8,41.8,16.4z"/>
	<path fill="none" d="M27.8,26.4c-2.3,0.1-4.6,0.1-6.9,0.2c1.1,0.2,2,0.8,2.5,1.8c0.2,0.4,0.3,0.8,0.6,1.1c0.5,0.5,1.3,0.4,2,0.3
		c1-0.2,2-0.5,2.8-1.1c0.8-0.7,1.2-1.8,0.7-2.7C29,26.4,28.4,26.4,27.8,26.4z"/>
	<path fill="none" d="M46.6,27.8c-0.9,2.3-1.1,4.9-0.5,7.3c0.2,0.8,0.4,1.5,1,2.1c0.6,0.5,1.5,0.7,2.1,0.3c0.6-0.4,0.6-1.2,0.7-1.9
		c0-1.5,0-3-0.5-4.3C48.8,29.8,47.9,28.5,46.6,27.8z"/>
	<path fill="none" d="M19.7,26.7c0.4,0,0.8,0,1.1,0C20.5,26.6,20.1,26.6,19.7,26.7z"/>
	<path fill="#E77528" d="M26.4,49.2c-2.1,1.9-5.1,2.2-7.6,3.5c0.8-0.2,1.7-0.3,2.6-0.4c-3.5,5.2-7.2,12.7-4.7,18.7l4.3,0.5
		c0,0,0.1-2.2,0.5-5.2c0.9-1.9,1.6-3.9,1.7-5.9c0.4-4.3,3-8.4,4.7-12.4c0.1-0.1,0.3-0.1,0.4,0c0,0-0.1-0.1-0.1-0.1
		C27.5,48.1,26.9,48.7,26.4,49.2z"/>
	<path fill="#F04B36" d="M68.5,27.8c-0.5-1.4-1.8-2.7-3.3-2.6c-0.6,0.1-1.3,0.3-1.7-0.1c-0.2-0.2-0.2-0.5-0.2-0.8
		c0.2-2.4,4.5-2.8,4.6-5.3c0-1.3-1.3-2.2-2.5-2.6c-1.2-0.4-2.6-0.8-3.3-1.8c-1.2-1.7-0.3-4.8-2.3-5.6c-1.1-0.4-2.3,0.4-3.2,1.2
		c-1,0.8-2,1.7-2.6,2.9c-0.5,1.1-0.7,2.3-1.2,3.4c-0.5,1.1-1.6,2-2.8,1.8c0.3-0.9-0.1-1.9-0.9-2.5c-0.8-0.5-1.9-0.4-2.6,0.2
		c1.6-2.5,5.7-3.3,6-6.2c0.1-0.7-0.2-1.5-0.8-1.8c-0.4-0.2-0.9-0.2-1.4-0.2c-1.8,0.1-3.6,0.2-5.5,0.4c-0.4,0-0.8,0-1-0.2
		c-0.3-0.3-0.2-0.8-0.1-1.3c0.5-1.8,1-3.6,1.5-5.5c-2.1-0.8-4.9-1.4-6.3,0.4c-0.5,0.6-0.7,1.3-1,2c-1,2.2-3,3.9-5.3,4.6
		c-0.1-1.2,0.3-2.4,1-3.3c-1.6-0.6-3.9-1-4.6,0.5c-0.5,0.9,0,2.1,0,3.1c0.1,1.1-0.7,2.4-1.7,2.1c-0.3-0.1-0.5-0.3-0.7-0.5
		c-1.3-1.6-1.3-3.8-1.6-5.8c-0.1-0.5-0.2-1-0.6-1.4c-0.3-0.2-0.7-0.3-1-0.4c-2.2-0.4-5-0.4-6,1.6c-0.7,1.5,0.2,3.2,1.4,4.2
		c1.2,1,2.8,1.6,4.2,2.4c1.4,0.8,2.7,2.1,2.7,3.7c-4.6-0.3-9.2-0.6-13.9-0.9c-0.4,0-0.8,0-1,0.2c-0.2,0.2-0.3,0.5-0.4,0.8
		c-0.4,1.6-0.3,3.7,1.2,4.3c0.8,0.3,2.2,0.5,1.9,1.4c-0.1,0.3-0.4,0.5-0.7,0.6c-1.2,0.5-2.5,1-3.4,2c-0.9,1-1.3,2.6-0.4,3.6
		c0.5,0.5,1.3,0.8,1.4,1.5c0.1,0.7-0.7,1.3-1.3,1.6c-3.2,1.9-5.4,5.3-6,8.9c1.2,0.8,2.8,0.3,4.2,0.4c2,0.3,3.4,2,4.6,3.5
		c0.3,0.3,0.5,0.7,0.5,1.2c0,0.6-0.5,1-0.9,1.4c-3.3,3.3-4.8,8.2-3.9,12.8c3.2-2.5,7.1-4.3,11.1-5.1c2.5-1.3,5.5-1.6,7.6-3.5
		c0.6-0.5,1.1-1.1,1.8-1.3c0,0,0.1,0.1,0.1,0.1c0.4,0.1,0.7,0.7,0.9,1.1c2.5,5.7,6.6,8.9,7.2,15.1c1.6-1.3,3.2-2.6,4.8-3.9
		c0.2-0.2,0.4-0.4,0.7-0.4c1-0.2,1.2,1.4,1.4,2.4c0.6,2.6,4,3.2,6.2,4.8c0.5,0.4,1.2,0.8,1.7,0.5c0.1-0.1,0.2-0.2,0.3-0.4
		c3.8-5.5,4.6-13,2-19.1c1.3,0.1,2.6-0.5,3.2-1.6c0.6-1.1,0.5-2.6-0.3-3.6c2.1,0.5,4.5-0.4,5.9-2c1.4-1.7,1.8-4.1,1-6.1
		c1.7,0.4,3.6-0.4,4.6-1.8C69,31.4,69.1,29.5,68.5,27.8z M28.8,28.7C28,29.4,27,29.7,26,29.9c-0.7,0.1-1.5,0.2-2-0.3
		c-0.3-0.3-0.4-0.8-0.6-1.1c-0.5-1-1.4-1.6-2.5-1.8c-0.4,0-0.8,0-1.1,0c0.4-0.1,0.8-0.1,1.1,0c2.3-0.1,4.6-0.1,6.9-0.2
		c0.6,0,1.2-0.1,1.6-0.4C30,26.9,29.6,28.1,28.8,28.7z M44.7,16c0,0.8-0.6,1.5-1.4,1.6c-0.1,0.9,0.5,1.7,0.9,2.6
		c0.4,0.8,0.6,2-0.1,2.5c-1.1-0.8-2.2-1.6-2.8-2.7c-0.6-1.2-0.5-2.8,0.5-3.6C42.6,15.8,43.7,15.9,44.7,16c0-0.2,0-0.4-0.1-0.5
		l0.4,0.6C44.9,16,44.8,16,44.7,16z M49.1,37.5c-0.6,0.5-1.5,0.3-2.1-0.3c-0.6-0.5-0.8-1.3-1-2.1c-0.5-2.4-0.3-5,0.5-7.3
		c1.3,0.7,2.2,2,2.6,3.4c0.5,1.4,0.5,2.9,0.5,4.3C49.8,36.3,49.7,37.1,49.1,37.5z"/>
</g>
</svg>
