<?xml version="1.0" encoding="utf-8"?>
<!-- Generator: Adobe Illustrator 18.0.0, SVG Export Plug-In . SVG Version: 6.00 Build 0)  -->
<!DOCTYPE svg PUBLIC "-//W3C//DTD SVG 1.1//EN" "http://www.w3.org/Graphics/SVG/1.1/DTD/svg11.dtd">
<svg version="1.1" id="Layer_1" xmlns="http://www.w3.org/2000/svg" xmlns:xlink="http://www.w3.org/1999/xlink" x="0px" y="0px"
	 viewBox="0 0 72 72" enable-background="new 0 0 72 72" xml:space="preserve">
<g>
	<path fill="#294E58" d="M55.3,17.9c12.7-4.2,1-17,1-17c0,3.8-3.6,9.1-3.6,9.1c-1.7,3.5-0.2,6.1,0.9,7.4c0,0,0,0.1-0.1,0.1
		c0.3,0.1,0.6,0.1,1,0.2C54.8,17.6,55.1,17.7,55.3,17.9z"/>
	<path fill="#294E58" d="M62.3,23.9C58.5,26.8,52,28.2,52,28.2c-1.2,0.4-2.2,1-3,1.6c0.1-0.1,0.1-0.3,0.2-0.4
		c-1.7,2.3-3.4,5-3.1,7.7c0-0.1,0.1-0.2,0.1-0.4C54.3,40.8,62.3,23.9,62.3,23.9z"/>
	<path fill="#E77528" d="M49.2,29.4c2-4.4,4-8.3,5.7-11.3c0.2-0.1,0.3-0.1,0.5-0.2c-0.2-0.2-0.5-0.2-0.8-0.3c-0.3-0.1-0.6-0.1-1-0.2
		c-10.9,14.7-14,31-14,31c-0.8-10.3-4.1-19.1-8-25.9c0.2,0,0.3-0.1,0.4-0.1c-1.2-0.9-2.1-2.4-2.8-3.8c-0.2-0.5-0.5-1-0.7-1.5
		c0,0.1-0.1,0.2-0.1,0.4c-1.7-2.4-3.3-4.6-4.9-6.3c0,0,0-0.1,0-0.1c-0.4,0.2-0.7,0.4-0.9,0.8c0,0,0.1,0,0.1,0
		c3.5,5,6.1,10.4,8.2,15.8c0.5,0.4,1.1,0.8,1.5,1.3c1.4,1.6,1.4,4,1.4,6.1c0,0.9,0,1.7,0,2.6c0.1-0.1,0.2-0.1,0.3-0.1
		c3.1,11.9,3.7,22.7,3.8,28.4c-2.1,0.4-3.6,1.5-3.6,2.7c0,1.6,2.5,2.9,5.7,2.9c3.1,0,5.7-1.3,5.7-2.9c0-1.4-1.9-2.6-4.5-2.8
		c-0.8-9.6,1.6-19.7,4.9-28.6C45.7,34.4,47.5,31.7,49.2,29.4z"/>
	<path fill="#294E58" d="M32.5,29c-0.4-0.5-0.9-0.9-1.5-1.3c0,0.1,0.1,0.2,0.1,0.3c-1-0.5-2.2-0.9-3.6-1.2c0,0-10.8-0.4-15.6-3.8
		c0,0,3.8,24.8,21.9,14.7c0-0.9,0-1.7,0-2.6C33.9,32.9,33.9,30.6,32.5,29z"/>
	<path fill="#294E58" d="M31.9,22.5c11.5-2.1,3.5-16.2,3.5-16.2c-0.8,3.7-5.6,8.1-5.6,8.1c-0.8,1-1.2,1.9-1.4,2.8
		c0.2,0.5,0.5,1,0.7,1.5C29.9,20.1,30.7,21.5,31.9,22.5z"/>
	<path fill="#294E58" d="M23.5,11.1C27.1-2.2,9.7,0.8,9.7,0.8c3.2,2,5.8,8,5.8,8c2.3,3.7,5.7,3.4,7.2,3.1
		C22.9,11.5,23.1,11.2,23.5,11.1z"/>
</g>
</svg>
