<?xml version="1.0" encoding="utf-8"?>
<!-- Generator: Adobe Illustrator 18.0.0, SVG Export Plug-In . SVG Version: 6.00 Build 0)  -->
<!DOCTYPE svg PUBLIC "-//W3C//DTD SVG 1.1//EN" "http://www.w3.org/Graphics/SVG/1.1/DTD/svg11.dtd">
<svg version="1.1" id="Layer_1" xmlns="http://www.w3.org/2000/svg" xmlns:xlink="http://www.w3.org/1999/xlink" x="0px" y="0px"
	 viewBox="0 0 72 72" enable-background="new 0 0 72 72" xml:space="preserve">
<g>
	<path fill="#E77528" d="M59.3,22.7c-0.1-0.9-0.6-1.9-1.4-2.3c-0.3-0.2-0.6-0.3-0.7-0.5c0.1-0.2,0.1-0.5,0-0.7
		c0-0.1,0.1-0.1,0.1-0.2c0.5-0.8,0.6-1.8,0.5-2.7c-0.2,0.8-0.6,1.5-1,2.1c-0.2-0.3-0.4-0.6-0.6-0.9C56,17.2,56,17,55.9,16.7
		c0,0.1-0.1,0.3-0.1,0.4c-0.4-0.5-0.9-0.9-1.5-1.2c-0.3-0.2-0.8-0.4-1.4-0.4c-1,0-1.8,0.8-2.3,2.2c-0.4,1-0.7,2-1,3
		c-0.9,2.7-1.7,5.3-3.1,7.6c-1.2,1.9-3.2,4-5.7,4.8c0.1-2-0.2-4-0.9-5.9c-2,1-4,2-6,2.9c-0.2,0.1-0.5,0.2-0.7,0.3
		c0.1-3.2,0.1-6.4,0-9.6l0-0.3c0-0.3,0-0.6,0-0.8c0.1,0.1,0.1,0.1,0.2,0.2c0.6,0.5,1.4,1,2.2,0.8c0.5-0.1,1-0.4,1.4-0.8
		c0.7-0.6,1.5-1.2,2-2c0.5-0.8,0.8-1.8,0.4-2.7c0-0.1-0.1-0.2-0.1-0.3c0.1-0.1,0.1-0.2,0.1-0.3c0-0.2,0-0.5,0.1-0.7
		c0.1-0.1,0.3-0.1,0.4-0.2c0.9-0.3,1.6-0.9,2.1-1.7c-0.7,0.5-1.6,0.8-2.4,1c0-0.2,0-0.3,0-0.5c0.2-0.5,0.4-0.9,0.6-1.4
		c-0.2,0.1-0.4,0.3-0.6,0.5c0-1,0-2,0-2.9c-0.1-0.9-0.1-1.9-0.6-2.8c-0.6-1.1-1.6-1.8-2.7-1.8c0,0,0,0-0.1,0c-1,0-1.9,0.6-2.7,1.7
		c-0.1,0.2-0.2,0.3-0.3,0.5c-0.1-1-0.2-2.1-0.5-3.1c0-0.2-0.1-0.3-0.2-0.5C32.2,2.3,32,1.8,32,1.3c0-0.5-0.4-0.8-0.8-0.8
		c0,0,0,0,0,0c-0.5,0-0.8,0.4-0.8,0.8c0,0.7,0.2,1.4,0.4,2c0,0.2,0.1,0.3,0.1,0.5c0.4,1.3,0.5,2.7,0.5,4.1c-1.1-0.3-2.5,0-4.1,0.9
		c-1.1,0.6-2.1,1.4-3,2.3c-0.5-0.6-0.9-1.2-1.4-1.9c-0.4,0.3-0.5,0.9-0.2,1.3c-2,0.7-3.6,2.5-4,4.5c-0.1,0.6-0.1,1.2,0.1,1.7
		c0.2,0.5,0.6,0.9,1,1.3c0.6,0.5,1.4,1,2.2,0.8c0.5-0.1,1-0.4,1.4-0.8c0.7-0.6,1.5-1.2,2-2c0.5-0.8,0.8-1.8,0.4-2.7
		c-0.1-0.4-0.4-0.8-0.2-1.1c0,0,0.1-0.1,0.1-0.1c0,0,0,0,0,0c0.1-0.1,0.3-0.2,0.5-0.2c0.8-0.3,1.5-0.9,2-1.6c1.6-0.9,2.6-0.9,3-0.6
		c0.1,0.1,0.2,0.1,0.2,0.2c0,0.2,0,0.4,0,0.6c0,1.4-0.1,2.8,0,4.2c0,0.1,0,0.2,0.1,0.3c0,2,0,4,0.1,5.9l0,0.3
		c0.1,3.5,0.1,7.1-0.1,10.6c-0.2,0.2-0.5,0.4-0.7,0.7c-0.2,0.2-0.4,0.5-0.6,0.7c-0.8,0.5-1.8-0.3-2.5-1.1c-0.6-0.8-1.6-1.6-2.5-1.1
		c0.5,0.7-0.4,1.6-1.3,1.4c-0.8-0.1-1.4-0.8-2-1.4c-0.9-0.8-2-1.4-3.2-1.6c-0.2,2.7-0.4,5.3-0.6,8c-0.2,2.5-0.2,5.4,1.8,6.8
		c1.8,1.3,4.3,0.7,6.6,0.5c-0.2,0.4-0.5,0.9-0.7,1.3c-0.2,0.3-0.3,0.6-0.5,0.9c-0.4-0.5-0.8-1-1.1-1.5c-0.3,0.8,0,1.8,0.6,2.3
		c-0.1,0.1-0.1,0.3-0.2,0.4c-0.4,0.7-0.7,1.4-1.1,2.1c-0.2,0.2-0.4,0.4-0.6,0.6c-0.2,0.3-0.2,0.7-0.3,1.1c-0.2,0.3-0.3,0.7-0.5,1
		c-0.8,1.7-1.5,3.3-2.2,4.9c-0.7,1.6-1.3,3.1-1.8,4.3c-0.5,1.3-0.9,2.3-1.2,3.1c-0.3,0.8-0.5,1.2-0.5,1.2c0,0,0,0.1,0,0.1
		c0,0,0,0.1,0,0.1c-2.3,0.3-3.9,1.2-3.9,2.3c0,1.3,2.4,2.4,5.3,2.4s5.3-1.1,5.3-2.4c0-0.9-1.1-1.6-2.6-2c0-0.1,0.1-0.3,0.1-0.5
		c0.2-0.8,0.6-1.8,1-3.1c0.4-1.3,0.9-2.8,1.5-4.4c0.1-0.3,0.2-0.6,0.3-1c0.2,0.5,0.5,1.1,0.8,1.5c0.5,0.8,1.3,1.4,2,2
		c0.8,0.7,1.8,1.5,2.9,1.3c0.9-0.1,1.6-0.9,2.1-1.7c1.6-2.4,2.4-5.4,2.3-8.3c0-1.1-0.2-2.2-1-3c-0.4-0.4-0.8-0.7-1.1-1.1
		c-0.6-1-0.2-2.5-1-3.4c-1.1,0.8-2.1,1.6-3,2.5c0,0-0.1,0.1-0.1,0.1c0.2-0.4,0.3-0.8,0.5-1.2c0.3-0.7,0.6-1.4,0.9-2
		c0.3-0.6,0.6-1.1,0.8-1.6c0,0,0,0,0,0c0.2,0,0.4,0,0.5,0.1c0.8,0.3,1.3,1.3,1.8,2c1.7,2.5,5.2,3.5,8,2.4c0.3,2.8,1.8,5.5,4,7.2
		c0.7,0.6,1.5,1,2.4,1c1.4,0,2.5-1.3,3.1-2.6c1.3-2.9,0.9-6.4-1-8.9c0.9-0.8,1.2-2.2,0.8-3.3c-0.3,0.6-0.6,1.1-0.9,1.7
		c-0.5-0.6-0.1-1.5,0.1-2.2s-0.2-1.9-0.9-1.7c0,0.7-0.1,1.3-0.1,2c-1.7-0.2-3.5,0-5.2,0.7c0-0.6,0-1.1,0-1.7
		c-1.4,0.2-2.7,0.4-4.1,0.7c1.2-1.7,2-3.7,2.3-5.7c2.9-0.7,5.4-2.9,6.9-5.1c1.3,0,2.6,0,3.8,0c0.4,0,0.8,0,1,0.1
		c0.1,0.1,0.2,0.2,0.3,0.4c-0.3-0.1-0.7-0.2-1-0.3c-0.2,0.5,0.2,1,0.6,1.1c-1.2,1.8-1.3,4.2-0.3,6c0.3,0.5,0.6,1,1.1,1.3
		c0.5,0.3,1,0.3,1.6,0.4c0.8,0,1.7-0.1,2.2-0.7c0.3-0.4,0.5-0.9,0.6-1.5c0.2-0.9,0.4-1.8,0.3-2.8c-0.1-0.9-0.5-1.9-1.3-2.4
		c-0.3-0.2-0.8-0.4-0.8-0.8c0-0.3,0.1-0.5,0.3-0.7c0.5-0.8,0.6-1.7,0.5-2.5c0.8,0,1.6-0.2,2-0.7c0.3-0.4,0.5-1,0.6-1.5
		C59.2,24.6,59.4,23.6,59.3,22.7z M33.4,10.3C33.5,9.1,33.9,8,34.7,7c0.3-0.4,0.8-1,1.4-1c0.5,0,1,0.4,1.2,0.9
		c0.3,0.6,0.4,1.4,0.4,2.1c0.1,1.3,0.1,2.7,0,4c-0.4-0.6-0.9-1.1-1.3-1.7c-0.4,0.3-0.5,0.9-0.2,1.3c-1.3,0.4-2.4,1.3-3.2,2.5
		c0-1.2,0.1-2.3,0.2-3.5c0-0.4,0-0.7,0-1C33.3,10.5,33.3,10.4,33.4,10.3z M55,30.1c-0.2-0.7-0.3-1.4-0.5-2.1
		c-0.2,0.6-0.3,1.2-0.4,1.7c-0.2-0.4-0.5-0.8-0.9-1.1c-0.7-0.4-1.4-0.4-1.9-0.4c-0.9,0-1.9,0-2.8,0c1.2-2.2,2-4.6,2.7-7
		c0.3-1,0.6-2,1-2.9c0.3-0.8,0.6-1.1,0.8-1.1c0.1,0,0.4,0.1,0.5,0.2c0.8,0.5,1.5,1.2,2,2c0,0,0,0,0,0.1c-0.8-0.2-1.6-0.4-2.4-0.6
		c-0.2,0.5,0.2,1,0.7,1.1c-1.1,1.8-1.2,4.2-0.2,6c0.3,0.5,0.7,1,1.2,1.3c0.5,0.3,1,0.3,1.6,0.3c0,0,0.1,0,0.1,0
		C56.1,28.6,55.6,29.4,55,30.1z"/>
</g>
</svg>
