<?xml version="1.0" encoding="utf-8"?>
<!-- Generator: Adobe Illustrator 18.0.0, SVG Export Plug-In . SVG Version: 6.00 Build 0)  -->
<!DOCTYPE svg PUBLIC "-//W3C//DTD SVG 1.1//EN" "http://www.w3.org/Graphics/SVG/1.1/DTD/svg11.dtd">
<svg version="1.1" id="Layer_1" xmlns="http://www.w3.org/2000/svg" xmlns:xlink="http://www.w3.org/1999/xlink" x="0px" y="0px"
	 viewBox="0 0 72 72" enable-background="new 0 0 72 72" xml:space="preserve">
<g>
	<path fill="#E77528" d="M49.8,36.6c-0.9-0.4-1.7-0.6-2.3-0.5c3.7-3.3,7.8-6.1,7.8-6.1C50.1,30.1,45,35.8,45,35.8
		c0.8-4.2,4.4-11.5,4.4-11.5C47,26.2,44.9,30,44.9,30c0.8-1.4,0-5.8,0-5.8c-0.4,14.4-7.4,20.7-9.6,22.4c-0.1-0.3-0.2-0.5-0.3-0.8
		c-3.1-8.4-3.7-15.2-3.1-20.6c7.3,1.7,6.6-8.4,6.6-8.4c-1.3,1.9-4.6,3.7-4.6,3.7c-0.7,0.5-1.1,1-1.5,1.5c2.2-9.6,8.2-13.7,8.2-13.7
		c-4.3,1.8-7.1,4.6-9,7.9C30.9,8,33.2,0.5,33.2,0.5c-2.2,1.2-2.9,8.4-2.9,8.4c-1.9-4.7-4.3-4.8-4.3-4.8c4.5,6.1,4.7,12,4.4,15.1
		c0,0,0,0.1-0.1,0.1c-0.4-1.4-1.2-3.5-3-5.8c0,0-3.9-4.1-5.7-7.4c0,0,1.9,13,8.2,14.8c-0.2,0.8-0.4,1.6-0.6,2.4
		c-1.6-3.1-7-3.9-7-3.9c1.6,1.7,2.7,5.3,2.7,5.3c1.1,2.4,3,2.9,3.8,3c-0.1,1.2-0.1,2.4-0.1,3.5c0.1,3.9,0.9,7.7,2.1,11.4
		c1.7,5.2,2.7,10.5,3.3,15.1c-1.4-2-4.7-7.7-4.7-16.1c0,0-2,1.3-1.3,6.3c0,0-2.7-3.8-5.2-5.2c2-6-7.2-7.4-7.2-7.4
		c1.6,1.7,2.7,5.3,2.7,5.3c1.3,3.1,4.1,3,4.1,3c0,0,0,0,0-0.1c2.6,2.9,8.6,10,11.9,18c0.5,5.9,0.4,10,0.4,10h2.9
		c2.2-5.9-0.3-17.1-1.6-21.9c0-0.2-0.1-0.3-0.1-0.5c2.7-1.3,6.2-7.1,6.2-7.1c0.5-0.9,1.2-1.9,2.1-2.8c3.2,8.1,12.1,0.1,12.1,0.1
		C53.7,39.3,49.8,36.6,49.8,36.6z"/>
	<path fill="#06728D" d="M56.4,19.9c-1.3,1.9-4.6,3.7-4.6,3.7c-2.7,1.9-2,4.7-2,4.7C57,30.1,56.4,19.9,56.4,19.9z"/>
	<path fill="#06728D" d="M41.1,0.5c-1.3,1.9-4.6,3.7-4.6,3.7c-2.7,1.9-2,4.7-2,4.7C41.7,10.7,41.1,0.5,41.1,0.5z"/>
</g>
</svg>
