<?xml version="1.0" encoding="utf-8"?>
<!-- Generator: Adobe Illustrator 18.0.0, SVG Export Plug-In . SVG Version: 6.00 Build 0)  -->
<!DOCTYPE svg PUBLIC "-//W3C//DTD SVG 1.1//EN" "http://www.w3.org/Graphics/SVG/1.1/DTD/svg11.dtd">
<svg version="1.1" id="Layer_1" xmlns="http://www.w3.org/2000/svg" xmlns:xlink="http://www.w3.org/1999/xlink" x="0px" y="0px"
	 viewBox="0 0 72 72" enable-background="new 0 0 72 72" xml:space="preserve">
<g>
	<path fill="#0DB89A" d="M67.1,40.9c-3.1-3-7.4-4.5-11.7-4.1c-1.3,0.1-2.6,0.4-3.7-0.1c-1.1-0.5-1.7-2.3-0.7-3
		c-1.5-0.6-3.1,0.3-4.4,1.2c2.5-7.8,6.1-15.1,10.8-21.8c-5.5,6-11,12.1-15,19.1c-3.6,6.4-6,13.5-7.2,20.7c1.3-9.2,2.5-18.5,3.8-27.7
		c0.4-2.8,0.8-5.6,1.8-8.2c1.7-4.5,5.2-8.3,6.9-12.8c-2.8,3.1-5.3,6.5-7.6,10c0.3-1.8,0.4-3.6,0.3-5.4c-1.4,3.1-2.7,6.2-4.1,9.3
		C36,13.5,35.8,9,35.6,4.4c-1.6,2.7-2.7,5.7-3.4,8.7c-0.2-3.1-0.4-6.1-0.6-9.2c-3.3,1.3-4,5.5-4.2,9.1c-0.6,9.2-1.1,18.5-1.7,27.7
		c-3.4-10.9-0.8-22.8-3.1-34C21,6.5,20.1,8.4,19.8,10c-1.2,7.4-1.6,14.8-1.4,22.3c-1.9-8.7-3.8-17.3-5.6-26c-2.8,5-3.1,11-2.2,16.7
		c1,5.6,3.2,10.9,5.4,16.2c-1.1-2.4-2.4-5.1-4.9-5.8c-3.3-0.9-6.4,1.9-7.9,4.9c-2.7,5.2-2.9,11.3-2.7,17.1c1.2-5.4,2.6-10.7,4.3-16
		c3.7,3,4.9,8,7.9,11.7c2,2.5,4.8,4.4,6.4,7.2c1.3,2.2,1.7,5,3.5,6.8c1.6,1.7,4.1,2.3,6.4,2.7c2.6,0.5,6,0.4,7-2
		c0.6-1.5-0.1-3.2,0.5-4.7c0.5-1.2,1.6-1.9,2.6-2.7c3.6-2.8,5.8-6.8,8.6-10.3c2.8-3.6,6.4-6.9,10.9-7.2c1.1-0.1,2.4,0,3.3,0.6
		c0.8,0.5,1.4,1.2,2,1.9c2.5,3,5.1,6.1,7.6,9.1C71.8,48.2,70.1,43.9,67.1,40.9z"/>
</g>
</svg>
