<?xml version="1.0" encoding="utf-8"?>
<!-- Generator: Adobe Illustrator 18.0.0, SVG Export Plug-In . SVG Version: 6.00 Build 0)  -->
<!DOCTYPE svg PUBLIC "-//W3C//DTD SVG 1.1//EN" "http://www.w3.org/Graphics/SVG/1.1/DTD/svg11.dtd">
<svg version="1.1" id="Layer_1" xmlns="http://www.w3.org/2000/svg" xmlns:xlink="http://www.w3.org/1999/xlink" x="0px" y="0px"
	 viewBox="0 0 72 72" enable-background="new 0 0 72 72" xml:space="preserve">
<g>
	<path fill="#0DB89A" d="M66.3,57.8c-1.2-0.7-2.1-1.9-3.2-3c-2.8-2.9-6-5.1-9.2-7.3c-1.4-1-2.8-1.9-4.3-2.5c-2.9-1.1-6-0.8-9-0.5
		c1-1.8,2.9-2,4.6-2c3.1,0,6.2,0,9.1,1.4c1.9,0.9,3.6,2.3,5.5,3c3.5,1.3,7.3,0.1,10.9-1.3c-3.5-2.4-7.2-4.6-10.9-6.4
		c-2.7-1.3-5.5-2.5-8.3-1.9c-3.5,0.8-6.4,4.3-10,4.7c4.7-5.4,10.3-9.5,16.4-11.8c-1.3-1-3-1-4.4-0.4c-1.4,0.6-2.7,1.7-3.9,2.9
		c-3,2.7-6,5.4-9,8.1c1.4-2.5,2.8-4.9,4.2-7.4c1.6-2.9,3.4-5.9,5.9-7.6c3.7-2.4,8-1.3,12-0.2c-0.6-2.3-2.9-2.9-4.8-2.9
		c-5.1,0-10.5,0.9-14.4,5.1c-3.1,3.4-4.7,8.6-6.2,13.5c0.6-4.3,0.2-8.7,0.4-13c0.3-5.1,1.4-10,3.3-14.5c-2.3,0.4-3.6,3.7-4.2,6.6
		c-1,5.4-1.2,11-1.1,16.5c-0.4-9.3-3-18.4-7.5-25.6c0.8,3,1.7,6.1,1.5,9.3c-1.7-3.3-4.6-5.6-7.6-6c3.7,2.7,6.3,7.8,6.6,13.3
		c-2.6-2.5-5.9-3.6-9.1-2.9c-1.7,0.3-3.4,1.3-4.5,3c2.8-2.7,6.8-3.2,10-1.3c0.5,0.3,1,1.1,0.7,1.6c-2.8-0.5-5.6-0.9-8.3-0.2
		c2.8,0.2,5.5,1.2,7.9,3c1.2,0.9,2.6,2.8,1.7,4.3c-2.2,0-4.1-1.6-6.2-2.6c-1.2-0.5-2.4-0.8-3.6-1.1c-3-0.7-6-1.4-9-2.2
		c0,1.5,1.3,2.4,2.5,2.8c2,0.8,4.2,1.2,6.3,1.3c0.9,0.1,1.9,0,2.8,0.3c0.9,0.3,1.7,0.8,2.5,1.4c1.7,1.2,3.4,2.4,5.1,3.5
		c0.3,0.2,0.7,0.5,0.8,0.9c0.3,0.7-0.2,1.6-0.8,1.9c-0.6,0.3-1.2,0.2-1.9,0.2c-8.8-0.7-16.5,7.2-25,9.8c5.2-0.1,10.4-1.8,15-4.7
		c1.8-1.1,3.5-2.5,5.4-3.3c2.7-1.2,5.6-1.3,8.4-0.3c0.6,1,0.4,0.5,0.5,2c0.1,1.4-0.9,2.5-1.8,3.1c-1.3,1-3.1,1.8-3.4,3.7
		c2.9,1,5.3-3.4,8.3-3.8c1.2-0.1,2.4,0.5,3.7,0.8c1.2,0.3,2.6,0.3,3.5-0.8c0.3-0.3,0.5-0.8,0.8-1.1c0.4-0.4,1-0.5,1.5-0.5
		c3.2-0.2,6.2,2.2,8.7,4.8c2.5,2.6,4.8,5.7,7.8,7.4c4,2.4,8.9,1.9,12.6-1.1C69.8,58.9,67.9,58.8,66.3,57.8z"/>
</g>
</svg>
