<?xml version="1.0" encoding="utf-8"?>
<!-- Generator: Adobe Illustrator 18.0.0, SVG Export Plug-In . SVG Version: 6.00 Build 0)  -->
<!DOCTYPE svg PUBLIC "-//W3C//DTD SVG 1.1//EN" "http://www.w3.org/Graphics/SVG/1.1/DTD/svg11.dtd">
<svg version="1.1" id="Layer_1" xmlns="http://www.w3.org/2000/svg" xmlns:xlink="http://www.w3.org/1999/xlink" x="0px" y="0px"
	 viewBox="0 0 72 72" enable-background="new 0 0 72 72" xml:space="preserve">
<g>
	<path fill="#0DB89A" d="M44.8,15.8c1,2.6,2.9,4.9,5.2,6.4c0.4,0.3,0.9,0.5,1.4,0.6c1.2,0.1,2.2-1.1,2.3-2.3c0.1-1.2-0.4-2.4-1-3.5
		c1.7,1.4,2.9,3.4,4.5,5c1.6,1.6,3.8,2.8,6,2.3c2.2-0.5,3.7-2.8,3.5-5c-0.2-2.2-1.8-4.2-3.9-4.9c-0.6-0.2-1.2-0.4-1.4-0.9
		c1.3,0.1,2.6,0.2,3.9,0.4c0.7,0.1,1.4,0.1,2-0.3c0.5-0.3,0.8-0.9,0.9-1.4c0.5-2.1-0.8-4.4-2.7-5.5c-1.9-1.1-4.2-1.2-6.4-0.9
		c-0.6-0.3-0.3-1.2,0.3-1.5C60.1,4,60.7,4,61.2,3.5c0.6-0.6,0.4-1.6-0.1-2.2c-0.6-0.6-1.4-0.8-2.2-0.8c-3.5-0.2-6.7,2.1-10.2,2.2
		c-1.6,0-3.2-0.4-4.8-0.4c-1.6,0-3.4,0.6-4.1,2.1c-0.2,0.4-0.3,0.9-0.1,1.3c0.2,0.6,0.9,0.9,1.6,1.1c1.4,0.5,2.9,1,4.3,1.4
		c-1.4,1.1-1.7,3.2-1.4,5c0,0.1-0.1,0.1-0.1,0.2c0.2,1,0.3,2,0.5,3C44.6,16.2,44.7,16,44.8,15.8z"/>
	<path fill="#0DB89A" d="M68.5,45.1c-1.1-1.7-2.3-3.5-4.3-4c-1.1-0.3-2.5-0.2-3.2-1.2c-1-1.5,1.1-3.4,0.6-5
		c-0.4-1.7-2.9-1.8-4.3-0.9c-1.5,0.9-2.5,2.4-4,3.3c-0.2,0.1-0.4,0.2-0.6,0.3c-0.1-0.3-0.3-0.6-0.5-0.8c-0.4,0.6-1,1-1.7,1
		c-0.1,0-0.2,0-0.3,0c0.1,0.1,0.1,0.2,0.2,0.3c-0.3,0-0.6-0.1-0.9-0.1c-0.8-0.2-1.6-0.6-2.4-0.7c-1.6,0-2.8,1.3-3.8,2.6
		c-0.3,0.4-0.7,0.9-0.5,1.4c0.1,0.3,0.4,0.5,0.6,0.7c1.1,0.9,2.3,1.7,3.4,2.6c-2.4,0.9-3,4.1-2.7,6.7c0.2,1.3,0.5,2.7,1.3,3.7
		c0.8,1.1,2.3,1.7,3.5,1.3c2-0.6,2.5-3.2,2.6-5.3c0.4-0.4,1-0.1,1.3,0.4c0.2,0.5,0.1,1,0,1.5c-0.7,4.1-0.4,9,2.9,11.5
		c2.2,1.7,5.1,1.8,7.9,2c0.5,0,1.1,0,1.5-0.3c0.5-0.4,0.5-1,0.6-1.6c0.3-3.5,0.6-7.3-1.2-10.3c-1.4-2.4-4-4-5.1-6.6
		c1.8-0.4,3.3,1,4.8,2.1c1.4,1.1,3.6,1.9,4.9,0.6C70.4,48.7,69.4,46.6,68.5,45.1z"/>
	<path fill="#F04B36" d="M52.3,36.7c-4.1-7.5-10.5-8.5-12.8-8.6l0.2-0.8c0.2-0.7,0.4-1.4,0.7-2.2c0.3-0.7,0.5-1.4,0.8-2.1
		c0.3-0.7,0.6-1.4,0.9-2.1c0.6-1.4,1.3-2.7,2-4c0.1-0.1,0.2-0.3,0.3-0.4c-0.2-1-0.4-2-0.5-3c-0.1,0.1-0.2,0.3-0.3,0.4
		c-0.4,0.7-0.8,1.4-1.2,2.1c-0.8,1.4-1.5,2.8-2.1,4.2c-0.3,0.7-0.6,1.4-0.9,2.2c-0.3,0.7-0.6,1.5-0.9,2.2c-0.3,0.7-0.5,1.5-0.8,2.2
		l-0.7,2.2l0,0.1l0,0.1c-0.1,0.3-0.1,0.5-0.1,0.8c-3-5.5-7.2-7.6-10.2-8.3c-0.2,0.6-0.3,1.2-0.2,1.8c0,0.2,0.1,0.3,0.1,0.4
		c2.9,0.8,7,3.2,9.5,9.8c-0.1,0.3-0.1,0.6-0.2,0.8L35.4,37c0-0.6-0.1-1.2-0.2-1.7c0,1.9-0.2,3.9-0.7,5.8c0.1-0.1,0.2-0.3,0.2-0.4
		c-0.6,3.1-1.2,6.3-1.7,9.4c-0.3,1.8-0.5,3.5-0.8,5.3c-0.3,1.8-0.4,3.6-0.6,5.4c-0.1,0.9-0.1,1.8-0.2,2.7c-0.1,0.9-0.1,1.8-0.2,2.7
		c0,0.1,0,0.3,0,0.4c-2.2,0.4-3.7,1.3-3.7,2.4c0,1.3,2.1,2.3,4.8,2.6c0,0,0,0,0,0h0.9c0,0,0.1,0,0.1,0c0,0,0.1,0,0.1,0h1
		c0,0,0,0,0,0c2.7-0.2,4.8-1.3,4.8-2.6c0-1.1-1.4-2-3.4-2.4c0-0.1,0-0.2,0-0.2c0-1.7,0.2-3.5,0.3-5.3l0.3-5.3l0.3-5.3
		c0.3-3.5,0.5-7.1,0.9-10.6c0.2-1.8,0.4-3.5,0.6-5.3c0.2-1.5,0.4-2.9,0.6-4.4c1,0,7.2,0.2,11.3,7.4c0.1,0,0.2,0,0.3,0
		C51.3,37.6,51.9,37.2,52.3,36.7z"/>
	<path fill="#0DB89A" d="M35.3,35.2c-0.3-1.6-0.9-3.2-1.5-4.7c-0.6-1.3-1.3-2.6-2.6-3.1c-1.5-0.6-3.7-0.1-4.3-1.6
		c-0.3-0.7,0.1-1.6-0.3-2.3c0,0,0,0,0,0c0-0.1-0.1-0.3-0.1-0.4c-0.1-0.6,0-1.2,0.2-1.8c-1-0.3-1.9-0.4-2.5-0.4c-0.8-1.7-1-3.8-2.4-5
		c-1.6-1.4-4.1-0.9-6.2-0.4c0.7,0.9,1.3,1.8,2,2.6c-3.7-1.5-7.8-1.8-11.6-1c-0.8,2.5,1.5,5.5,4.2,5.4c0.2,1.2-1.4,1.7-2.6,1.6
		c-1.2-0.1-2.6-0.3-3.3,0.6c-0.5,0.7-0.3,1.6-0.6,2.3c-0.3,1-1.4,1.8-1.3,2.8c0.1,1,1.1,1.6,2,2c1.5,0.6,3.2,1,4.7,0.7
		c1.6-0.3,3.1-1.6,3.2-3.2c0.7-0.3,1.2,0.7,1.1,1.4c-0.1,0.7-0.5,1.4-0.4,2.1c0.1,0.9,1,1.5,2,1.6c0.9,0.1,1.8-0.3,2.6-0.7
		c1.2-0.7,2.5-1.5,3.3-2.6c0.8-1.2,1.1-2.7,0.5-4c2.8,1.4,2,5.7,4,8.2c1.2,1.5,3.2,2.1,4.9,3c1.7,1,3.2,2.9,2.4,4.7
		c0.8-0.6,1.5-1.4,1.9-2.2C35,39.1,35.3,37.2,35.3,35.2z"/>
</g>
</svg>
