<?xml version="1.0" encoding="utf-8"?>
<!-- Generator: Adobe Illustrator 18.0.0, SVG Export Plug-In . SVG Version: 6.00 Build 0)  -->
<!DOCTYPE svg PUBLIC "-//W3C//DTD SVG 1.1//EN" "http://www.w3.org/Graphics/SVG/1.1/DTD/svg11.dtd">
<svg version="1.1" id="Layer_1" xmlns="http://www.w3.org/2000/svg" xmlns:xlink="http://www.w3.org/1999/xlink" x="0px" y="0px"
	 viewBox="0 0 72 72" enable-background="new 0 0 72 72" xml:space="preserve">
<g>
	<path fill="#F04B36" d="M41.7,27.4c0.1-0.1,0.3-0.2,0.4-0.3c11.6,7.2,13.8-10.3,13.8-10.3C53,19.3,46.6,20,46.6,20
		c-3.3,0.9-4.5,3.1-4.9,4.8C41.8,25.7,41.8,26.6,41.7,27.4z"/>
	<path fill="#F04B36" d="M23.9,35.4C23.9,35.4,23.9,35.4,23.9,35.4c3.2-11.2-13-10.4-13-10.4c2.9,2.4,4.7,8.6,4.7,8.6
		c1.9,4.2,5.8,4.1,7,4c0.3-0.5,0.7-1.1,1-1.6C23.7,35.8,23.8,35.6,23.9,35.4z"/>
	<path fill="#F04B36" d="M61,27.5C56.8,33.1,45.4,37,45.4,37c-6.8,3.5-7.1,9.5-6.8,12.4c0.6,0.9,1.3,1.7,2,2.5
		c0.1,0,0.1-0.1,0.2-0.1C64.1,59.3,61,27.5,61,27.5z"/>
	<path fill="#F04B36" d="M41.4,16.1c0.1,0.3,0,0.5,0,0.8c0.2-0.3,0.3-0.6,0.5-0.8c12.6,0.2,6.5-15.6,6.5-15.6
		C47,4,41.6,7.7,41.6,7.7c-2.7,2.5-2.4,5.2-2,6.8c-0.1,0-0.1,0.1-0.1,0.1c0,0.1,0.1,0.2,0.2,0.2C40.2,15.4,41.1,15.4,41.4,16.1z"/>
	<path fill="#E77528" d="M38.7,50.4c-2,0.9-3.8,2.4-5,3.6C32.2,48.5,32.1,43,33,38c1.5-3.9,5.1-7.6,8.7-10.5c0.1-0.9,0.1-1.7,0-2.6
		c-0.1,0.2-0.1,0.4-0.1,0.6c-2.3,1.4-4.5,2.8-6.4,4.1c1.8-5.1,4.2-9.5,6.2-12.7c0.1-0.3,0.1-0.5,0-0.8c-0.2-0.7-1.2-0.7-1.7-1.2
		c-0.1-0.1-0.1-0.1-0.2-0.2c-7.9,5.9-10.9,14.5-11.6,22.9c-1.1-0.8-2.4-1.6-4-2.1c-0.1,0.2-0.2,0.4-0.3,0.6c-0.3,0.5-0.6,1.1-1,1.6
		c0.2,0,0.4-0.1,0.4-0.1c1.6,1.4,3.5,3.3,4.6,5.5c0.2,11.2,3.6,20.7,3.6,20.7c3.5,5.7-2.9,7.7-2.9,7.7h16.9
		c-4.2-3.8-7.2-7.7-9.2-11.7c0.2-3.9,2.6-6.4,4.6-7.9c-0.7-0.8-1.4-1.6-2-2.5C38.7,49.8,38.7,50.1,38.7,50.4z"/>
</g>
</svg>
