<?xml version="1.0" encoding="utf-8"?>
<!-- Generator: Adobe Illustrator 18.0.0, SVG Export Plug-In . SVG Version: 6.00 Build 0)  -->
<!DOCTYPE svg PUBLIC "-//W3C//DTD SVG 1.1//EN" "http://www.w3.org/Graphics/SVG/1.1/DTD/svg11.dtd">
<svg version="1.1" id="Layer_1" xmlns="http://www.w3.org/2000/svg" xmlns:xlink="http://www.w3.org/1999/xlink" x="0px" y="0px"
	 viewBox="0 0 72 72" enable-background="new 0 0 72 72" xml:space="preserve">
<g>
	<path fill="#0DB89A" d="M57,17.6c-0.3-0.4-0.7-0.7-1.1-0.9c-1.9-1-4.2-1.4-6.4-1.1c-0.1,3.4-0.3,6.7-0.4,10.1c0,0.5,0,1,0.2,1.4
		c0.3,0.4,0.8,0.6,1.2,1c0.4,0.5,0.3,1.3,0.2,1.9c-0.9,5.7-2.7,11.3-5.3,16.5C45,41,44.7,35.2,47.1,30.2c0.2-0.5,0.5-1,0.7-1.6
		c0.2-0.6,0.2-1.3,0.2-2c0-2.6-0.2-5.1-0.8-7.6c-0.3-1.6-0.8-3.3-2.2-4.4c-0.7-0.6-1.7-0.9-2.6-0.6c-2.2,0.6-2.5,3.3-2.4,5.5
		c0.2,3.7,0.7,7.3,1.5,10.9c0.3,1.4,0.7,2.9,0.7,4.3c0.2,4.1-1.7,8.1-2.1,12.2c-0.5,4.2,0.5,8.9-1.9,12.3c-0.8-0.6-1-1.7-1.1-2.7
		C36,45.3,39.5,34,38.8,22.7c-0.1-1.4-0.6-3.2-2-3.3c-0.5-2.2,0.4-4.4,1.5-6.4c1.1-1.9,2.5-3.8,3.2-5.9c0.7-2.1,0.6-4.7-1-6.3
		c-0.2-0.2-0.5-0.4-0.8-0.4c-0.3,0-0.5,0.1-0.7,0.3c-1.6,1-2.6,2.8-2.7,4.6c-0.8-1.1-1.3-2.4-1.4-3.8c-0.7-0.5-1.7,0-2.2,0.7
		c-0.4,0.7-0.5,1.6-0.5,2.5c0,3.6,0.2,7.2,0.7,10.8c-2.1-0.9-2.5-3.6-3.1-5.9c-0.5-2-1.3-3.9-2.5-5.6c-1.2-1.8-3.1-3.6-5.4-3.3
		c-1.4,0.2-2.5,1.2-2.6,2.6c-0.1,1.4,1.1,2.4,2.1,3.3c1.6,1.5,3,3.1,4.1,5c0.3,0.5,0.6,1,0.6,1.6c0,0.4-0.1,0.8-0.4,1.1
		c-1.2,1.8-3.4,0.6-3.4-0.9c-0.9,1.1-1.5,2.5-1.6,3.9c0,0.5,0,1.1-0.6,1.4c-0.6,0.3-1.3,0-1.6-0.5c-0.8-1.6,0.3-3.1,1.2-4.4
		c0.8-1.2,1.4-2.8,0.4-3.9c-0.9-1-2.6-0.8-4-1.1c-0.9-0.2-1.6,0.5-1.6,1.4c0.1,5.1,0.4,10.3,1.9,15.2c0.9,2.9,2.1,5.7,3.2,8.6
		c2.5,6.3,4.5,12.8,5.9,19.4c0.9,4.1,1.6,8.3,3.7,12c2.1,3.6,6,6.6,10.2,6.2c0.6-2.9,1.2-5.7,1.8-8.6c1.4-0.4,2.4-1.6,3-3
		c1.8-4.2,0.5-9.7,3.7-13c0.4-0.4,0.9-0.8,1.3-1.3c0.7-0.9,0.9-2.1,1.1-3.2c0.7-4.7,1.4-9.3,2.2-14c1.8-0.3,3.2-1.7,3.9-3.4
		c0.7-1.6,0.8-3.5,0.9-5.2C57.4,19.1,57.4,18.3,57,17.6z M30.5,40.6c-0.9-2.6-2.3-5-2.7-7.6c-0.7-4.7,1.8-9.7,0.1-14.1
		c-1.5,1.6-2.1,4-1.5,6.1c-2.3-2.9-1.5-7.7,1.6-9.7c1.4,1.1,3.1,1.9,4.8,2.1c0.6,13.9,1.2,27.9,1.8,41.8
		C31.5,53.6,32.6,46.6,30.5,40.6z"/>
</g>
</svg>
