<?xml version="1.0" encoding="utf-8"?>
<!-- Generator: Adobe Illustrator 18.0.0, SVG Export Plug-In . SVG Version: 6.00 Build 0)  -->
<!DOCTYPE svg PUBLIC "-//W3C//DTD SVG 1.1//EN" "http://www.w3.org/Graphics/SVG/1.1/DTD/svg11.dtd">
<svg version="1.1" id="Layer_1" xmlns="http://www.w3.org/2000/svg" xmlns:xlink="http://www.w3.org/1999/xlink" x="0px" y="0px"
	 viewBox="0 0 72 72" enable-background="new 0 0 72 72" xml:space="preserve">
<g>
	<path fill="#06728D" d="M71.4,27.9c-5.3,2.7-10.4,5.8-15.2,9.2c-0.9,0.6-1.7,1.2-2.4,2c-0.6,0.8-1.6,1.9-2.4,1.3
		c0.3-0.9,0.5-1.8,0.4-2.7c-0.1-0.9-0.8-1.8-1.7-1.9c-1-0.1-1.9,0.7-2.6,1.5c-4.7,5.4-9.4,10.9-12.6,17.3c-1.8,3.6-6.2,10.1-6.4,9.5
		c-0.3-0.6-0.3-1.3-0.2-2c0.3-3.3,2.1-6,4.3-8.5c1.8-2.1,3-4.7,4.1-7.2c3.4-7.7,6.5-15.5,9.1-23.4c1.1-3.4,2.2-7.3,0.6-10.6
		c-4.1,2.6-7.2,6.6-8.7,11.1c-1.1,3.3-1.3,6.7-1.9,10.1c-0.7,3.9-2,7.7-3.7,11.3C30.4,47.9,28.3,51,25,52c0.6-4.8,2.4-9.5,3.1-14.3
		c1.4-9.6-1.9-19.3-5.4-28.4c-0.4-1.1-0.9-2.3-2-3c0,12.3,0,24.6,0,36.9c0,2.4,0,4.9-1,7.1c-0.2,0.4-0.6,0.9-1.1,0.8
		c-0.6-5.7-1.2-11.4-1.8-17c-0.2-2.1-0.5-4.3-1.3-6.2c-1-2.6-2.9-4.7-4.7-6.7c-0.9-1-1.8-2-2.9-3c-0.9-0.8-1.8-1.4-2.6-2.2
		c-2.1-2-3.6-4.7-4.9-7.3c0.8,2.6,1,5.5,1.6,8.1c0.5,2,2.2,3.4,3.2,5.1c1.7,2.8,1.8,6.5,3.8,9.1c0.9,1.2,2.2,2.1,3.2,3.2
		c1,1.1,1.9,2.5,1.8,4c0,0.4-0.2,0.9-0.6,1c-0.5,0.2-1-0.1-1.4-0.4c-2-1.6-3.5-3.7-4.3-6.1c-0.8,2.2,0.1,4.7,1.4,6.7
		c1.3,2,3,3.6,4.2,5.7c2.1,3.6,2.3,8,2.4,12.2c0,3.1-0.4,6.8-3.1,8.4c6.2,0,12.3,0,18.5-0.1c2.7,0,5.3,0,8-0.3
		c6.9-0.8,13.5-3.4,20-6c1-0.4,2-0.8,2.6-1.7c-5,1.1-9.9,2.5-14.7,4.1c-3.9,1.3-8,2.9-12,2.2c-0.3-0.7,0.6-1.4,1.3-1.7
		c4.8-1.9,9.8-3.4,14.8-4.3c1.5-0.3,3.3-0.6,4.2-1.9c-2.4-0.2-4.7-0.4-7.1-0.5c-0.5,0-1-0.1-1.3-0.5c2.3-1.7,4.7-3.4,7-5.1
		c1.9-1.4,3.9-2.8,6-3.9c3.7-1.9,8.2-3.2,10.3-6.8c-7.5,2.6-15.2,5.2-21.2,10.4c-3,2.6-5.7,5.9-9.6,6.6c1.9-4.8,7-7.2,11.2-10.1
		c1.3-0.9,2.5-1.9,3.8-2.9c5.3-4.3,10.5-8.7,15.8-13C71.1,29.4,71.8,28.6,71.4,27.9z"/>
</g>
</svg>
