<?xml version="1.0" encoding="utf-8"?>
<!-- Generator: Adobe Illustrator 18.0.0, SVG Export Plug-In . SVG Version: 6.00 Build 0)  -->
<!DOCTYPE svg PUBLIC "-//W3C//DTD SVG 1.1//EN" "http://www.w3.org/Graphics/SVG/1.1/DTD/svg11.dtd">
<svg version="1.1" id="Layer_1" xmlns="http://www.w3.org/2000/svg" xmlns:xlink="http://www.w3.org/1999/xlink" x="0px" y="0px"
	 viewBox="0 0 72 72" enable-background="new 0 0 72 72" xml:space="preserve">
<g>
	<path fill="#E77528" d="M51.5,31c0,0.1,0.1,0.2,0.1,0.3c2-0.6,4-1.1,6-1.7c0.4-0.1,0.9-0.2,1.2-0.6c0.4-0.4,0.5-1.1,0.5-1.7
		c0.1-1.4,0.1-2.9-0.6-4.1c-0.3-0.5-0.7-0.8-1-1.3c-1.4-1.9-1.1-4.4-0.7-6.7c-0.5,1.4-1.7,2.6-3.1,3.1c-1.8,0.7-3.9,0.3-5.7,1.2
		c-1.2,0.6-2.2,1.9-2.4,3.3c-0.2,1.4,0.3,2.9,1.4,3.9c0.7,0.6,1.6,1,2.3,1.6c-3.2,2.6-7,5.1-7.8,3.1c0,0-1.6-4-5.1-7.5
		c0,0,0-0.1,0-0.1c0.2-0.7,0.4-1.3,0.7-2c0.1-0.3,0.2-0.7,0.2-1.1c-0.1-0.9-1.1-1.4-1.6-2.2c-0.5-1-0.1-2.1,0.1-3.2
		c0.2-1.1-0.2-2.5-1.2-2.7c-0.9-0.2-2.1,0.7-2.6-0.1c-0.5-0.7,0.3-2-0.4-2.5c-0.4-0.3-0.9-0.1-1.3,0C28.5,10,27.8,7,26,6.7
		c0,1.8,0.1,3.5,0.1,5.3c0,0.7,0,1.4-0.5,1.9c-0.3,0.3-0.9,0.5-1,0.9c-0.2,0.5,0.2,1.1,0.7,1.5c0.5,0.3,1.1,0.6,1.3,1.2
		c0.2,0.6-0.1,1.2-0.1,1.8c0.1,1.2,1.4,1.9,2.6,1.9c0.3,0,0.6,0,0.7,0.2c0.1,0.1,0.2,0.3,0.2,0.5c0.1,1.1-0.3,2.6,0.6,3.2
		c0.4,0.3,0.9,0.3,1.4,0.2c0.4,0,0.9,0,1.3-0.1c2.4,4.8,5.5,11.7,6.2,16c0,0-17-5.8-24.7-1c0,0,29.5,1.4,26.4,11.5
		c0,0-0.1,16.7-1.8,19.7h7.3c0,0,5.3-17.9-2.9-34.7C43.8,36.8,48.3,35.2,51.5,31z"/>
	<path fill="#4DA0D8" d="M23.9,33.2c0.1,0.1,0.2,0.1,0.2,0.2c0,0.1,0.1,0.2,0.1,0.3c0.1,0.6,0.3,1.3,0.8,1.4c0.6,0.1,1-0.8,1.5-1.1
		c0.2,0.7,1.2,1.5,1.9,1.6c0.4,0,0.5-1,0.8-1.3c0.4-0.4,1.1-0.1,1.2-0.6c0.1-0.5-0.5-1.1-0.9-1.6c0.5-0.1,1-0.5,1.2-1
		s0.2-1.2-0.2-1.6c-0.1-0.1-0.2-0.2-0.3-0.4c-0.1-0.2,0-0.4,0-0.6c0-0.4-0.5-0.7-0.9-0.6c-0.4,0-0.8,0.3-1.1,0.5
		c-0.1,0.1-0.2,0.1-0.3,0.2c-0.2,0.1-0.5-0.1-0.6-0.3c-0.1-0.2-0.2-0.4-0.3-0.7C27,27.3,26.7,27,26.4,27c-0.3,0-0.7,0.2-0.8,0.5
		c0,0.1-0.1,0.2-0.1,0.3c-0.1,0.1-0.2,0.1-0.4,0.1c-0.5,0-0.9,0.2-1.2,0.5c-0.3,0.4-0.3,1,0.1,1.2c0.2,0.2,0.6,0.2,0.7,0.5
		c0,0.2-0.2,0.4-0.4,0.5c-0.2,0.1-0.5,0.1-0.7,0.1c-0.4,0.2-0.6,0.7-0.5,1.2C23.2,32.5,23.5,32.9,23.9,33.2z"/>
	<path fill="#4DA0D8" d="M41.8,12.9c0.1,0.1,0.2,0.1,0.2,0.2c0,0.1,0.1,0.2,0.1,0.3c0.1,0.6,0.3,1.3,0.8,1.4c0.6,0.1,1-0.8,1.5-1.1
		c0.2,0.7,1.2,1.5,1.9,1.6c0.4,0,0.5-1,0.8-1.3c0.4-0.4,1.1-0.1,1.2-0.6c0.1-0.5-0.5-1.1-0.9-1.6c0.5-0.1,1-0.5,1.2-1
		c0.2-0.5,0.2-1.2-0.2-1.6c-0.1-0.1-0.2-0.2-0.3-0.4c-0.1-0.2,0-0.4,0-0.6c0-0.4-0.5-0.7-0.9-0.6c-0.4,0-0.8,0.3-1.1,0.5
		c-0.1,0.1-0.2,0.1-0.3,0.2c-0.2,0.1-0.5-0.1-0.6-0.3c-0.1-0.2-0.2-0.4-0.3-0.7C45,7,44.6,6.7,44.3,6.7c-0.3,0-0.7,0.2-0.8,0.5
		c0,0.1-0.1,0.2-0.1,0.3c-0.1,0.1-0.2,0.1-0.4,0.1c-0.5,0-0.9,0.2-1.2,0.5c-0.3,0.4-0.3,1,0.1,1.2c0.2,0.2,0.6,0.2,0.7,0.5
		c0,0.2-0.2,0.4-0.4,0.5c-0.2,0.1-0.5,0.1-0.7,0.1c-0.4,0.2-0.6,0.7-0.5,1.2C41.1,12.2,41.4,12.6,41.8,12.9z"/>
	<path fill="#4DA0D8" d="M59.2,41.3c0.2-0.5,0.2-1.2-0.2-1.6c-0.1-0.1-0.2-0.2-0.3-0.4c-0.1-0.2,0-0.4,0-0.6c0-0.4-0.5-0.7-0.9-0.6
		c-0.4,0-0.8,0.3-1.1,0.5c-0.1,0.1-0.2,0.1-0.3,0.2c-0.2,0.1-0.5-0.1-0.6-0.3c-0.1-0.2-0.2-0.4-0.3-0.7c-0.2-0.3-0.5-0.5-0.8-0.6
		c-0.3,0-0.7,0.2-0.8,0.5c0,0.1-0.1,0.2-0.1,0.3c-0.1,0.1-0.2,0.1-0.4,0.1c-0.5,0-0.9,0.2-1.2,0.5c-0.3,0.4-0.3,1,0.1,1.2
		c0.2,0.2,0.6,0.2,0.7,0.5c0,0.2-0.2,0.4-0.4,0.5c-0.2,0.1-0.5,0.1-0.7,0.1c-0.4,0.2-0.6,0.7-0.5,1.2c0.1,0.5,0.5,0.8,0.8,1.1
		c0.1,0.1,0.2,0.1,0.2,0.2c0,0.1,0.1,0.2,0.1,0.3c0.1,0.6,0.3,1.3,0.8,1.4c0.6,0.1,1-0.8,1.5-1.1c0.2,0.7,1.2,1.5,1.9,1.6
		c0.4,0,0.5-1,0.8-1.3c0.4-0.4,1.1-0.1,1.2-0.6c0.1-0.5-0.5-1.1-0.9-1.6C58.5,42.2,59,41.8,59.2,41.3z"/>
	<path fill="#4DA0D8" d="M22.2,44.9c-0.1-0.2,0-0.4,0-0.6c0-0.4-0.5-0.7-0.9-0.6c-0.4,0-0.8,0.3-1.1,0.5c-0.1,0.1-0.2,0.1-0.3,0.2
		c-0.2,0.1-0.5-0.1-0.6-0.3c-0.1-0.2-0.2-0.4-0.3-0.7c-0.2-0.3-0.5-0.5-0.8-0.6c-0.3,0-0.7,0.2-0.8,0.5c0,0.1-0.1,0.2-0.1,0.3
		c-0.1,0.1-0.2,0.1-0.4,0.1c-0.5,0-0.9,0.2-1.2,0.5c-0.3,0.4-0.3,1,0.1,1.2c0.2,0.2,0.6,0.2,0.7,0.5c0,0.2-0.2,0.4-0.4,0.5
		c-0.2,0.1-0.5,0.1-0.7,0.1c-0.4,0.2-0.6,0.7-0.5,1.2c0.1,0.5,0.5,0.8,0.8,1.1c0.1,0.1,0.2,0.1,0.2,0.2c0,0.1,0.1,0.2,0.1,0.3
		c0.1,0.6,0.3,1.3,0.8,1.4c0.6,0.1,1-0.8,1.5-1.1c0.2,0.7,1.2,1.5,1.9,1.6c0.4,0,0.5-1,0.8-1.3c0.4-0.4,1.1-0.1,1.2-0.6
		c0.1-0.5-0.5-1.1-0.9-1.6c0.5-0.1,1-0.5,1.2-1c0.2-0.5,0.2-1.2-0.2-1.6C22.4,45.2,22.3,45.1,22.2,44.9z"/>
	<path fill="#4DA0D8" d="M15.8,23.7c0.1,0.1,0.2,0.1,0.2,0.2c0,0.1,0.1,0.2,0.1,0.3c0.1,0.6,0.3,1.3,0.8,1.4c0.6,0.1,1-0.8,1.5-1.1
		c0.2,0.7,1.2,1.5,1.9,1.6c0.4,0,0.5-1,0.8-1.3c0.4-0.4,1.1-0.1,1.2-0.6c0.1-0.5-0.5-1.1-0.9-1.6c0.5-0.1,1-0.5,1.2-1
		c0.2-0.5,0.2-1.2-0.2-1.6c-0.1-0.1-0.2-0.2-0.3-0.4c-0.1-0.2,0-0.4,0-0.6c0-0.4-0.5-0.7-0.9-0.6c-0.4,0-0.8,0.3-1.1,0.5
		C20.1,19,20.1,19,20,19.1c-0.2,0.1-0.5-0.1-0.6-0.3c-0.1-0.2-0.2-0.4-0.3-0.7c-0.2-0.3-0.5-0.5-0.8-0.6c-0.3,0-0.7,0.2-0.8,0.5
		c0,0.1-0.1,0.2-0.1,0.3c-0.1,0.1-0.2,0.1-0.4,0.1c-0.5,0-0.9,0.2-1.2,0.5c-0.3,0.4-0.3,1,0.1,1.2c0.2,0.2,0.6,0.2,0.7,0.5
		c0,0.2-0.2,0.4-0.4,0.5c-0.2,0.1-0.5,0.1-0.7,0.1c-0.4,0.2-0.6,0.7-0.5,1.2C15,23,15.4,23.4,15.8,23.7z"/>
	<path fill="#4DA0D8" d="M15.6,36.5c0.5-0.2,1-0.5,1.5-0.7c0.5-0.2,1.1-0.2,1.6-0.1c0.3-1,0.5-2,0.8-3c0.1-0.2,0.1-0.4,0-0.6
		c-0.1-0.3-0.4-0.5-0.6-0.7c-0.6-0.4-1.2-0.8-2-0.8c-0.3,0-0.5,0.1-0.8,0.1c-1.2,0.1-2.2-0.6-3.1-1.4c0.5,0.6,0.7,1.4,0.6,2.1
		c-0.2,1-0.9,1.8-0.9,2.8c0,0.7,0.3,1.4,0.9,1.9C14.1,36.5,14.9,36.7,15.6,36.5z"/>
	<path fill="#4DA0D8" d="M34,5.4c0,0.7,0.3,1.4,0.9,1.9s1.3,0.6,2,0.4c0.5-0.2,1-0.5,1.5-0.7c0.5-0.2,1.1-0.2,1.6-0.1
		c0.3-1,0.5-2,0.8-3c0.1-0.2,0.1-0.4,0-0.6c-0.1-0.3-0.4-0.5-0.6-0.7c-0.6-0.4-1.2-0.8-2-0.8c-0.3,0-0.5,0.1-0.8,0.1
		c-1.2,0.1-2.2-0.6-3.1-1.4c0.5,0.6,0.7,1.4,0.6,2.1C34.7,3.6,34,4.4,34,5.4z"/>
	<path fill="#4DA0D8" d="M51.9,12.2c0,0.7,0.3,1.4,0.9,1.9s1.3,0.6,2,0.4c0.5-0.2,1-0.5,1.5-0.7c0.5-0.2,1.1-0.2,1.6-0.1
		c0.3-1,0.5-2,0.8-3c0.1-0.2,0.1-0.4,0-0.6c-0.1-0.3-0.4-0.5-0.6-0.7c-0.6-0.4-1.2-0.8-2-0.8c-0.3,0-0.5,0.1-0.8,0.1
		c-1.2,0.1-2.2-0.6-3.1-1.4c0.5,0.6,0.7,1.4,0.6,2.1C52.7,10.4,52,11.2,51.9,12.2z"/>
	<path fill="#4DA0D8" d="M34.7,47.7c-0.6-0.4-1.2-0.8-2-0.8c-0.3,0-0.5,0.1-0.8,0.1c-1.2,0.1-2.2-0.6-3.1-1.4
		c0.5,0.6,0.7,1.4,0.6,2.1c-0.2,1-0.9,1.8-0.9,2.8c0,0.7,0.3,1.4,0.9,1.9c0.6,0.4,1.3,0.6,2,0.4c0.5-0.2,1-0.5,1.5-0.7
		c0.5-0.2,1.1-0.2,1.6-0.1c0.3-1,0.5-2,0.8-3c0.1-0.2,0.1-0.4,0-0.6C35.2,48.1,34.9,47.9,34.7,47.7z"/>
	<path fill="#4DA0D8" d="M16.1,10.7c0,0.7,0.3,1.4,0.9,1.9c0.6,0.4,1.3,0.6,2,0.4c0.5-0.2,1-0.5,1.5-0.7c0.5-0.2,1.1-0.2,1.6-0.1
		c0.3-1,0.5-2,0.8-3c0.1-0.2,0.1-0.4,0-0.6c-0.1-0.3-0.4-0.5-0.6-0.7c-0.6-0.4-1.2-0.8-2-0.8c-0.3,0-0.5,0.1-0.8,0.1
		c-1.2,0.1-2.2-0.6-3.1-1.4c0.5,0.6,0.7,1.4,0.6,2.1C16.9,8.9,16.2,9.7,16.1,10.7z"/>
</g>
</svg>
