<?xml version="1.0" encoding="utf-8"?>
<!-- Generator: Adobe Illustrator 18.0.0, SVG Export Plug-In . SVG Version: 6.00 Build 0)  -->
<!DOCTYPE svg PUBLIC "-//W3C//DTD SVG 1.1//EN" "http://www.w3.org/Graphics/SVG/1.1/DTD/svg11.dtd">
<svg version="1.1" id="Layer_1" xmlns="http://www.w3.org/2000/svg" xmlns:xlink="http://www.w3.org/1999/xlink" x="0px" y="0px"
	 viewBox="0 0 72 72" enable-background="new 0 0 72 72" xml:space="preserve">
<g>
	<path fill="#E77528" d="M52.6,48.2c-0.7,0-1.5,0.2-2.2,0c1.1-0.4,1.9-1.3,2.4-2.4c0.2-0.6,0.2-1.4-0.3-1.7c-0.4-0.2-0.9,0-1.2,0.2
		c-0.2,0.1-0.5,0.3-0.6,0.6c-0.4,0.6-0.2,1.6-0.6,2.2c-0.2,0.3-0.6,0.5-0.8,0.2c-0.1-0.1,0-0.2,0-0.4c0-0.4-0.1-0.7-0.3-1
		c-0.2-0.5-0.5-1-1-1.2c-0.5-0.3-1.1-0.3-1.5,0c-0.4,0.3-0.4,0.9-0.2,1.4c0.2,0.5,0.6,0.8,1,1.1c0.5,0.3,1,0.6,1.5,0.6
		c0.1,0.2,0,0.6-0.3,0.7c-0.3,0.1-0.5,0.1-0.8,0.1c-0.5,0-1,0.2-1.4,0.5c-0.2,0.1-1.1,1.3-0.8,1.8c0.1,0.1,0.2,0.2,0.4,0.3
		c-3.1,1.6-6.7,3.1-9.5,4.1l-0.9-12.1c2.2-1.1,4.1-2.4,5.9-3.8c0,0.5,0,0.9,0.1,1.4c0.2,0.7,0.9,1.4,1.6,1.1
		c0.3-0.1,0.5-0.3,0.7-0.5c0.1-0.2,0.3-0.3,0.3-0.6c0.1-0.5-0.4-0.9-0.7-1.4c-0.2-0.4-0.3-0.9-0.2-1.3c0.3,0,0.4,0.2,0.6,0.4
		c0.3,0.4,0.8,0.6,1.2,0.7c0.5,0.1,1.1,0,1.5-0.3c0.4-0.3,0.6-0.9,0.5-1.4c-0.2-0.7-1.1-1-1.9-0.9c-0.2,0-0.4,0-0.6,0
		c3.5-3.4,5.3-6.4,5.3-6.4c-1.2,1.3-2.8,2.5-4.5,3.7c0.2-0.6,0.1-1.2-0.4-1.5c-0.4-0.2-0.9,0-1.2,0.2c-0.2,0.1-0.5,0.3-0.6,0.6
		c-0.4,0.6-0.2,1.6-0.6,2.2c-0.2,0.3-0.6,0.5-0.8,0.2c-0.1-0.1,0-0.2,0-0.4c0-0.4-0.1-0.7-0.3-1c-0.2-0.5-0.5-1-1-1.2
		c-0.5-0.3-1.1-0.3-1.5,0c-0.4,0.3-0.4,0.9-0.2,1.4c0.2,0.5,0.6,0.8,1,1.1c0.5,0.3,1,0.6,1.5,0.6c0,0.1,0,0.1,0,0.2
		c-0.4,0.2-0.8,0.4-1.1,0.6c0,0,0,0,0,0c-0.5,0-1,0.2-1.4,0.5c-0.1,0-0.2,0.2-0.4,0.5c-1.1,0.5-2.1,1-3,1.4l-0.8-10.2
		c0.9-0.4,1.8-0.9,2.7-1.4c0.4,0.1,0.9,0.1,1.3-0.1c0.2-0.1,0.4-0.2,0.5-0.4c0.2-0.2,0.2-0.6,0.3-0.9c0.2-0.1,0.4-0.3,0.6-0.4
		c0.2,0.1,0.2,0.3,0.2,0.5c0,0.8-0.2,1.5,0,2.2c0.2,0.7,0.9,1.4,1.6,1.1c0.3-0.1,0.5-0.3,0.7-0.5c0.1-0.2,0.3-0.3,0.3-0.6
		c0.1-0.5-0.4-0.9-0.7-1.4c-0.2-0.4-0.3-0.9-0.2-1.3c0.3,0,0.4,0.2,0.6,0.4c0.3,0.4,0.8,0.6,1.2,0.7c0.5,0.1,1.1,0,1.5-0.3
		c0.4-0.3,0.6-0.9,0.5-1.4c-0.2-0.7-1.1-1-1.9-0.9c-0.7,0-1.4,0.2-2,0c0.3-0.2,0.5-0.4,0.8-0.7c0.1-0.1,0.2-0.1,0.3-0.2
		c2.1-1.8,3.7-3.6,4.9-5c0.2-0.1,0.4-0.3,0.5-0.4c0.1-0.2,0.3-0.3,0.3-0.6c0,0,0,0,0-0.1c0.5-0.7,0.9-1.2,1.1-1.5
		c0.4,0.1,0.9,0,1.3-0.3c0.4-0.3,0.6-0.9,0.5-1.4c-0.2-0.7-1.1-1-1.9-0.9c-0.7,0-1.5,0.2-2.2,0c1.1-0.4,1.9-1.3,2.4-2.4
		c0.2-0.6,0.2-1.4-0.3-1.7c-0.4-0.2-0.9,0-1.2,0.2c-0.2,0.1-0.5,0.3-0.6,0.6c-0.4,0.6-0.2,1.6-0.6,2.2c-0.2,0.3-0.6,0.5-0.8,0.2
		c-0.1-0.1,0-0.2,0-0.4c0-0.4-0.1-0.7-0.3-1c-0.2-0.5-0.5-1-1-1.2c-0.5-0.3-1.1-0.3-1.5,0c-0.4,0.3-0.4,0.9-0.2,1.4
		c0.2,0.5,0.6,0.8,1,1.1c0.5,0.3,1,0.6,1.5,0.6c0.1,0.2,0,0.6-0.3,0.7c-0.3,0.1-0.5,0.1-0.8,0.1c-0.5,0-1,0.2-1.4,0.5
		c-0.2,0.1-1.1,1.3-0.8,1.8c0.1,0.2,0.3,0.3,0.5,0.3c0.5,0.2,1.1,0.2,1.6,0c0.2-0.1,0.4-0.2,0.5-0.4c0.3-0.4,0.2-1.1,0.6-1.3
		c0.1,0,0.2-0.1,0.2,0c0.2,0.1,0.2,0.3,0.2,0.5c0,0.8-0.2,1.5,0,2.2c0.1,0.4,0.4,0.7,0.7,1c-0.9,0.7-1.9,1.3-2.9,1.9
		c0,0-0.1-0.1-0.1-0.1c-0.4-0.2-0.9,0-1.2,0.2c-0.2,0.1-0.5,0.3-0.6,0.6c-0.1,0.2-0.2,0.4-0.2,0.6c-0.5,0.3-0.9,0.5-1.4,0.7
		c0-0.1-0.1-0.2-0.1-0.3c-0.2-0.5-0.5-1-1-1.2c-0.5-0.3-1.1-0.3-1.5,0c-0.4,0.3-0.4,0.9-0.2,1.4c0.2,0.4,0.5,0.8,0.9,1.1
		c-1.5,0.7-2.8,1.4-3.9,1.8L32.6,7.9c0.2,0,0.3-0.1,0.5-0.1c0.2-0.1,0.4-0.2,0.5-0.4c0.3-0.4,0.2-1.1,0.6-1.3c0.1,0,0.2-0.1,0.2,0
		c0.2,0.1,0.2,0.3,0.2,0.5c0,0.8-0.2,1.5,0,2.2c0.2,0.7,0.9,1.4,1.6,1.1c0.3-0.1,0.5-0.3,0.7-0.5c0.1-0.2,0.3-0.3,0.3-0.6
		c0.1-0.5-0.4-0.9-0.7-1.4c-0.2-0.4-0.3-0.9-0.2-1.3c0.3,0,0.4,0.2,0.6,0.4c0.3,0.4,0.8,0.6,1.2,0.7c0.5,0.1,1.1,0,1.5-0.3
		c0.4-0.3,0.6-0.9,0.5-1.4c-0.2-0.7-1.1-1-1.9-0.9c-0.7,0-1.5,0.2-2.2,0c1.1-0.4,1.9-1.3,2.4-2.4c0.2-0.6,0.2-1.4-0.3-1.7
		c-0.4-0.2-0.9,0-1.2,0.2c-0.2,0.1-0.5,0.3-0.6,0.6C35.8,2,36,2.9,35.6,3.6c-0.2,0.3-0.6,0.5-0.8,0.2c-0.1-0.1,0-0.2,0-0.4
		c0-0.4-0.1-0.7-0.3-1c-0.2-0.5-0.5-1-1-1.2c-0.5-0.3-1.1-0.3-1.5,0c-0.4,0.3-0.4,0.9-0.2,1.4c0.1,0.2,0.2,0.3,0.2,0.4l-0.1,2.6
		c0,0-0.1,0-0.1,0.1C31.6,5.8,30.7,7,31,7.5c0.1,0.2,0.3,0.3,0.5,0.3c0.1,0,0.2,0.1,0.3,0.1l-0.6,11.2c-1.5-0.5-4-1.4-6.6-2.4
		c0.1,0,0.1-0.1,0.1-0.1c0.4-0.3,0.6-0.9,0.5-1.4c-0.2-0.7-1.1-1-1.9-0.9c-0.7,0-1.5,0.2-2.2,0c1.1-0.4,1.9-1.3,2.4-2.4
		c0.2-0.6,0.2-1.4-0.3-1.7c-0.4-0.2-0.9,0-1.2,0.2c-0.2,0.1-0.5,0.3-0.6,0.6c-0.4,0.6-0.2,1.6-0.6,2.2c-0.2,0.3-0.6,0.5-0.8,0.2
		c-0.1-0.1,0-0.2,0-0.4c0-0.4-0.1-0.7-0.3-1c-0.2-0.5-0.5-1-1-1.2c-0.5-0.3-1.1-0.3-1.5,0c-0.4,0.3-0.4,0.9-0.2,1.4
		c0.2,0.5,0.6,0.8,1,1.1c0.5,0.3,1,0.6,1.5,0.6c0.1,0.1,0.1,0.2,0,0.3c-1.7-0.9-3.2-1.8-4.3-2.7c0,0,1.1,1.4,3.2,3.2
		c0,0-0.1,0-0.1,0c-0.5,0-1,0.2-1.4,0.5c-0.2,0.1-1.1,1.3-0.8,1.8c0.1,0.2,0.3,0.3,0.5,0.3c0.5,0.2,1.1,0.2,1.6,0
		c0.2-0.1,0.4-0.2,0.5-0.4c0.3-0.4,0.2-1.1,0.6-1.3c0.1,0,0.1,0,0.2,0c0.1,0.1,0.1,0.1,0.2,0.2c0,0.1,0,0.2,0,0.3
		c0,0.8-0.2,1.5,0,2.2c0.2,0.7,0.9,1.4,1.6,1.1c0.3-0.1,0.5-0.3,0.7-0.5c0.1-0.2,0.3-0.3,0.3-0.6c0.1-0.3-0.1-0.6-0.3-0.8
		c2.4,1.6,5.4,3.2,8.9,4.4l-0.7,12.8c-0.4-0.1-0.9-0.3-1.3-0.5c0.1-0.2,0.1-0.4,0-0.7c-0.2-0.7-1.1-1-1.9-0.9c-0.7,0-1.5,0.2-2.2,0
		c1.1-0.4,1.9-1.3,2.4-2.4c0.2-0.6,0.2-1.4-0.3-1.7c-0.4-0.2-0.9,0-1.2,0.2c-0.2,0.1-0.5,0.3-0.6,0.6c-0.4,0.6-0.2,1.6-0.6,2.2
		c-0.2,0.3-0.6,0.5-0.8,0.2c-0.1-0.1,0-0.2,0-0.4c0-0.4-0.1-0.7-0.3-1c-0.2-0.5-0.5-1-1-1.2s-1.1-0.3-1.5,0
		c-0.4,0.3-0.4,0.9-0.2,1.4c0,0.1,0.1,0.2,0.2,0.3c-1.8-0.9-3.5-1.8-4.9-2.8c0-0.2,0-0.4,0-0.6c0.3,0,0.4,0.2,0.6,0.4
		c0.3,0.4,0.8,0.6,1.2,0.7c0.5,0.1,1.1,0,1.5-0.3c0.4-0.3,0.6-0.9,0.5-1.4c-0.2-0.7-1.1-1-1.9-0.9c-0.7,0-1.5,0.2-2.2,0
		c1.1-0.4,1.9-1.3,2.4-2.4c0.2-0.6,0.2-1.4-0.3-1.7c-0.4-0.2-0.9,0-1.2,0.2c-0.2,0.1-0.5,0.3-0.6,0.6c-0.4,0.6-0.2,1.6-0.6,2.2
		c-0.2,0.3-0.6,0.5-0.8,0.2c-0.1-0.1,0-0.2,0-0.4c0-0.4-0.1-0.7-0.3-1c-0.2-0.5-0.5-1-1-1.2c-0.5-0.3-1.1-0.3-1.5,0
		c-0.4,0.3-0.4,0.9-0.2,1.4c0.2,0.5,0.6,0.8,1,1.1c0.5,0.3,1,0.6,1.5,0.6c0.1,0.2,0,0.6-0.3,0.7c-0.3,0.1-0.5,0.1-0.8,0.1
		c-0.5,0-1,0.2-1.4,0.5c-0.2,0.1-1.1,1.3-0.8,1.8c0.1,0.2,0.3,0.3,0.5,0.3c0.5,0.2,1.1,0.2,1.6,0c0.2-0.1,0.4-0.2,0.5-0.4
		c0.3-0.4,0.2-1.1,0.6-1.3c0.1,0,0.2-0.1,0.2,0c0.2,0.1,0.2,0.3,0.2,0.5c0,0.8-0.2,1.5,0,2.2c0.2,0.7,0.9,1.4,1.6,1.1
		c0.3-0.1,0.5-0.3,0.7-0.5c0.1-0.2,0.3-0.3,0.3-0.6c0.1-0.5-0.4-0.9-0.7-1.4c-0.1-0.1-0.1-0.2-0.2-0.3c1,1.1,2.9,2.9,5.7,4.7
		c-0.4,0.1-0.7,0.2-1.1,0.4c-0.2,0.1-1.1,1.3-0.8,1.8c0.1,0.2,0.3,0.3,0.5,0.3c0.5,0.2,1.1,0.2,1.6,0c0.2-0.1,0.4-0.2,0.5-0.4
		c0.3-0.4,0.2-1,0.6-1.3c0.1,0.1,0.3,0.2,0.4,0.3c0,0.1,0,0.1,0,0.2c0,0.8-0.2,1.5,0,2.2c0.2,0.7,0.9,1.4,1.6,1.1
		c0.3-0.1,0.5-0.3,0.7-0.5c0.1-0.2,0.3-0.3,0.3-0.6c0.1-0.5-0.4-0.9-0.7-1.3c1.4,0.7,3,1.5,4.7,2.1l-0.7,12.8
		c-1.7-0.6-4-1.4-6.2-2.4c0.2-0.2,0.3-0.5,0.4-0.8c0.2-0.6,0.2-1.4-0.3-1.7c-0.4-0.2-0.9,0-1.2,0.2c-0.2,0.1-0.5,0.3-0.6,0.6
		c-0.2,0.2-0.2,0.5-0.3,0.8c-2.3-1.1-4.5-2.3-6-3.6c0,0,0.8,1,2.4,2.5c-0.1,0-0.2,0.1-0.3,0.2c-0.4,0.3-0.4,0.9-0.2,1.4
		c0.2,0.5,0.6,0.8,1,1.1c0.5,0.3,1,0.6,1.5,0.6c0.1,0.2,0,0.6-0.3,0.7c-0.3,0.1-0.5,0.1-0.8,0.1c-0.5,0-1,0.2-1.4,0.5
		c-0.2,0.1-1.1,1.3-0.8,1.8c0.1,0.2,0.3,0.3,0.5,0.3c0.5,0.2,1.1,0.2,1.6,0c0.2-0.1,0.4-0.2,0.5-0.4c0.3-0.4,0.2-1.1,0.6-1.3
		c0.1,0,0.2-0.1,0.2,0c0.2,0.1,0.2,0.3,0.2,0.5c0,0.8-0.2,1.5,0,2.2c0.2,0.7,0.9,1.4,1.6,1.1c0.3-0.1,0.5-0.3,0.7-0.5
		c0.1-0.2,0.3-0.3,0.3-0.6c0.1-0.5-0.4-0.9-0.7-1.4c-0.2-0.4-0.3-0.9-0.2-1.3c0.3,0,0.4,0.2,0.6,0.4c0.3,0.4,0.8,0.6,1.2,0.7
		c0.5,0.1,1.1,0,1.5-0.3c0.2-0.1,0.3-0.3,0.4-0.6c1.2,0.7,2.5,1.3,4,1.8l-1,18.2h9.2l-1-13.4c4.7-2,8.3-4.7,10.5-6.7
		c0.2,0,0.3-0.1,0.5-0.1c0.2-0.1,0.4-0.2,0.5-0.4c0.1-0.2,0.2-0.4,0.2-0.6c0.2-0.2,0.5-0.5,0.6-0.7c0,0,0,0,0,0
		c0.2,0.1,0.2,0.3,0.2,0.5c0,0.8-0.2,1.5,0,2.2c0.2,0.7,0.9,1.4,1.6,1.1c0.3-0.1,0.5-0.3,0.7-0.5c0.1-0.2,0.3-0.3,0.3-0.6
		c0.1-0.5-0.4-0.9-0.7-1.4c-0.2-0.4-0.3-0.9-0.2-1.3c0.3,0,0.4,0.2,0.6,0.4c0.3,0.4,0.8,0.6,1.2,0.7c0.5,0.1,1.1,0,1.5-0.3
		c0.4-0.3,0.6-0.9,0.5-1.4C54.2,48.5,53.4,48.2,52.6,48.2z M47.5,16.4c-0.2-0.4-0.3-0.9-0.2-1.3c0.3,0,0.4,0.2,0.6,0.4
		c0.3,0.4,0.8,0.6,1.2,0.7c0,0,0.1,0,0.1,0c-0.3,0.3-0.7,0.7-1.1,1C47.9,17,47.7,16.7,47.5,16.4z M20,48.8c-0.1-0.1,0-0.2,0-0.4
		c0-0.2,0-0.3-0.1-0.4c0.3,0.2,0.6,0.4,0.9,0.6C20.6,48.9,20.1,49.1,20,48.8z M21.2,49.7c0.2-0.1,0.4-0.2,0.6-0.3
		c0.2,0.1,0.4,0.3,0.6,0.4C22,49.8,21.6,49.8,21.2,49.7z M32.2,3.3c0.2,0.2,0.4,0.3,0.6,0.5c0.5,0.3,1,0.6,1.5,0.6
		c0.1,0.2,0,0.6-0.3,0.7c-0.3,0.1-0.5,0.1-0.8,0.1c-0.3,0-0.5,0.1-0.8,0.2L32.2,3.3z"/>
	<path fill="#F04B36" d="M56.9,36.1c-0.7,0-1.5,0.2-2.2,0c1.1-0.4,1.9-1.3,2.4-2.4c0.2-0.6,0.2-1.4-0.3-1.7c-0.4-0.2-0.9,0-1.2,0.2
		c-0.2,0.1-0.5,0.3-0.6,0.6c-0.4,0.6-0.2,1.6-0.6,2.2c-0.2,0.3-0.6,0.5-0.8,0.2c-0.1-0.1,0-0.2,0-0.4c0-0.4-0.1-0.7-0.3-1
		c-0.2-0.5-0.5-1-1-1.2c-0.5-0.3-1.1-0.3-1.5,0c-0.4,0.3-0.4,0.9-0.2,1.4c0.2,0.5,0.6,0.8,1,1.1c0.5,0.3,1,0.6,1.5,0.6
		c0.1,0.2,0,0.6-0.3,0.7c-0.3,0.1-0.5,0.1-0.8,0.1c-0.5,0-1,0.2-1.4,0.5c-0.2,0.1-1.1,1.3-0.8,1.8c0.1,0.2,0.3,0.3,0.5,0.3
		c0.5,0.2,1.1,0.2,1.6,0c0.2-0.1,0.4-0.2,0.5-0.4c0.3-0.4,0.2-1.1,0.6-1.3c0.1,0,0.2-0.1,0.2,0c0.2,0.1,0.2,0.3,0.2,0.5
		c0,0.8-0.2,1.5,0,2.2c0.2,0.7,0.9,1.4,1.6,1.1c0.3-0.1,0.5-0.3,0.7-0.5c0.1-0.2,0.3-0.3,0.3-0.6c0.1-0.5-0.4-0.9-0.7-1.4
		C55,38.5,54.9,38,55,37.6c0.3,0,0.4,0.2,0.6,0.4c0.3,0.4,0.8,0.6,1.2,0.7c0.5,0.1,1.1,0,1.5-0.3c0.4-0.3,0.6-0.9,0.5-1.4
		C58.5,36.3,57.7,36.1,56.9,36.1z"/>
	<path fill="#F04B36" d="M67.2,30c-0.2-0.7-1.1-1-1.9-0.9c-0.7,0-1.5,0.2-2.2,0c1.1-0.4,1.9-1.3,2.4-2.4c0.2-0.6,0.2-1.4-0.3-1.7
		c-0.4-0.2-0.9,0-1.2,0.2c-0.2,0.1-0.5,0.3-0.6,0.6c-0.4,0.6-0.2,1.6-0.6,2.2c-0.2,0.3-0.6,0.5-0.8,0.2c-0.1-0.1,0-0.2,0-0.4
		c0-0.4-0.1-0.7-0.3-1c-0.2-0.5-0.5-1-1-1.2c-0.5-0.3-1.1-0.3-1.5,0c-0.4,0.3-0.4,0.9-0.2,1.4c0.2,0.5,0.6,0.8,1,1.1
		c0.5,0.3,1,0.6,1.5,0.6c0.1,0.2,0,0.6-0.3,0.7c-0.3,0.1-0.5,0.1-0.8,0.1c-0.5,0-1,0.2-1.4,0.5c-0.2,0.1-1.1,1.3-0.8,1.8
		c0.1,0.2,0.3,0.3,0.5,0.3c0.5,0.2,1.1,0.2,1.6,0c0.2-0.1,0.4-0.2,0.5-0.4c0.3-0.4,0.2-1.1,0.6-1.3c0.1,0,0.2-0.1,0.2,0
		c0.2,0.1,0.2,0.3,0.2,0.5c0,0.8-0.2,1.5,0,2.2c0.2,0.7,0.9,1.4,1.6,1.1c0.3-0.1,0.5-0.3,0.7-0.5c0.1-0.2,0.3-0.3,0.3-0.6
		c0.1-0.5-0.4-0.9-0.7-1.4c-0.2-0.4-0.3-0.9-0.2-1.3c0.3,0,0.4,0.2,0.6,0.4c0.3,0.4,0.8,0.6,1.2,0.7c0.5,0.1,1.1,0,1.5-0.3
		C67.1,31.1,67.3,30.5,67.2,30z"/>
	<path fill="#F04B36" d="M12.1,37.5c-0.7,0-1.5,0.2-2.2,0c1.1-0.4,1.9-1.3,2.4-2.4c0.2-0.6,0.2-1.4-0.3-1.7c-0.4-0.2-0.9,0-1.2,0.2
		c-0.2,0.1-0.5,0.3-0.6,0.6c-0.4,0.6-0.2,1.6-0.6,2.2c-0.2,0.3-0.6,0.5-0.8,0.2c-0.1-0.1,0-0.2,0-0.4c0-0.4-0.1-0.7-0.3-1
		c-0.2-0.5-0.5-1-1-1.2c-0.5-0.3-1.1-0.3-1.5,0c-0.4,0.3-0.4,0.9-0.2,1.4c0.2,0.5,0.6,0.8,1,1.1c0.5,0.3,1,0.6,1.5,0.6
		c0.1,0.2,0,0.6-0.3,0.7C7.6,38,7.3,38,7,38c-0.5,0-1,0.2-1.4,0.5c-0.2,0.1-1.1,1.3-0.8,1.8c0.1,0.2,0.3,0.3,0.5,0.3
		c0.5,0.2,1.1,0.2,1.6,0c0.2-0.1,0.4-0.2,0.5-0.4c0.3-0.4,0.2-1.1,0.6-1.3c0.1,0,0.2-0.1,0.2,0c0.2,0.1,0.2,0.3,0.2,0.5
		c0,0.8-0.2,1.5,0,2.2c0.2,0.7,0.9,1.4,1.6,1.1c0.3-0.1,0.5-0.3,0.7-0.5c0.1-0.2,0.3-0.3,0.3-0.6c0.1-0.5-0.4-0.9-0.7-1.4
		c-0.2-0.4-0.3-0.9-0.2-1.3c0.3,0,0.4,0.2,0.6,0.4c0.3,0.4,0.8,0.6,1.2,0.7c0.5,0.1,1.1,0,1.5-0.3c0.4-0.3,0.6-0.9,0.5-1.4
		C13.8,37.7,12.9,37.4,12.1,37.5z"/>
	<path fill="#F04B36" d="M54.1,14.6c-0.3,0.1-0.5,0.1-0.8,0.1c-0.5,0-1,0.2-1.4,0.5c-0.2,0.1-1.1,1.3-0.8,1.8
		c0.1,0.2,0.3,0.3,0.5,0.3c0.5,0.2,1.1,0.2,1.6,0c0.2-0.1,0.4-0.2,0.5-0.4c0.3-0.4,0.2-1.1,0.6-1.3c0.1,0,0.2-0.1,0.2,0
		c0.2,0.1,0.2,0.3,0.2,0.5c0,0.8-0.2,1.5,0,2.2c0.2,0.7,0.9,1.4,1.6,1.1c0.3-0.1,0.5-0.3,0.7-0.5c0.1-0.2,0.3-0.3,0.3-0.6
		c0.1-0.5-0.4-0.9-0.7-1.4c-0.2-0.4-0.3-0.9-0.2-1.3c0.3,0,0.4,0.2,0.6,0.4c0.3,0.4,0.8,0.6,1.2,0.7c0.5,0.1,1.1,0,1.5-0.3
		c0.4-0.3,0.6-0.9,0.5-1.4c-0.2-0.7-1.1-1-1.9-0.9c-0.7,0-1.5,0.2-2.2,0c1.1-0.4,1.9-1.3,2.4-2.4c0.2-0.6,0.2-1.4-0.3-1.7
		c-0.4-0.2-0.9,0-1.2,0.2c-0.2,0.1-0.5,0.3-0.6,0.6c-0.4,0.6-0.2,1.6-0.6,2.2c-0.2,0.3-0.6,0.5-0.8,0.2c-0.1-0.1,0-0.2,0-0.4
		c0-0.4-0.1-0.7-0.3-1c-0.2-0.5-0.5-1-1-1.2c-0.5-0.3-1.1-0.3-1.5,0c-0.4,0.3-0.4,0.9-0.2,1.4c0.2,0.5,0.6,0.8,1,1.1
		c0.5,0.3,1,0.6,1.5,0.6C54.6,14.2,54.4,14.5,54.1,14.6z"/>
	<path fill="#F04B36" d="M53.1,23.3c-0.7,0.3-1.6,0.1-2.3,0.5c-0.5,0.3-0.9,0.8-0.9,1.3c-0.1,0.6,0.1,1.2,0.5,1.5
		c0.3,0.3,0.7,0.5,1.1,0.7c0.3,0.3,0.6,0.7,0.7,1.1c0.8-0.2,1.6-0.5,2.4-0.7c0.2,0,0.3-0.1,0.5-0.2c0.2-0.2,0.2-0.4,0.2-0.7
		c0-0.6,0-1.2-0.3-1.6c-0.1-0.2-0.3-0.3-0.4-0.5c-0.5-0.7-0.4-1.8-0.3-2.7C54.1,22.6,53.7,23.1,53.1,23.3z"/>
	<path fill="#F04B36" d="M19.6,39.3c-0.7,0.3-1.6,0.1-2.3,0.5c-0.5,0.3-0.9,0.8-0.9,1.3c-0.1,0.6,0.1,1.2,0.5,1.5
		c0.3,0.3,0.7,0.5,1.1,0.7c0.3,0.3,0.6,0.7,0.7,1.1c0.8-0.2,1.6-0.5,2.4-0.7c0.2,0,0.3-0.1,0.5-0.2c0.2-0.2,0.2-0.4,0.2-0.7
		c0-0.6,0-1.2-0.3-1.6c-0.1-0.2-0.3-0.3-0.4-0.5C20.5,40,20.6,39,20.8,38C20.6,38.6,20.1,39.1,19.6,39.3z"/>
	<path fill="#F04B36" d="M23.1,27.3c0.2,0.2,0.4,0.2,0.7,0.2c0.6,0,1.2,0.1,1.6-0.2c0.2-0.1,0.3-0.3,0.5-0.4
		c0.7-0.5,1.8-0.4,2.7-0.3c-0.6-0.2-1-0.7-1.2-1.2c-0.3-0.7-0.1-1.6-0.5-2.3c-0.3-0.5-0.8-0.9-1.3-1c-0.6-0.1-1.2,0.1-1.5,0.5
		c-0.3,0.3-0.5,0.7-0.8,1.1c-0.3,0.3-0.7,0.6-1.1,0.7c0.2,0.8,0.4,1.6,0.7,2.4C22.9,27,23,27.1,23.1,27.3z"/>
	<path fill="#F04B36" d="M42.7,47.7c-0.3-0.7-0.1-1.6-0.5-2.3c-0.3-0.5-0.8-0.9-1.3-1c-0.6-0.1-1.2,0.1-1.5,0.5
		c-0.3,0.3-0.5,0.7-0.8,1.1c-0.3,0.3-0.7,0.6-1.1,0.7c0.2,0.8,0.4,1.6,0.7,2.4c0,0.2,0.1,0.3,0.2,0.5c0.2,0.2,0.4,0.2,0.7,0.2
		c0.6,0,1.2,0.1,1.6-0.2c0.2-0.1,0.3-0.3,0.5-0.4c0.7-0.5,1.8-0.4,2.7-0.3C43.3,48.7,42.9,48.3,42.7,47.7z"/>
	<path fill="#F04B36" d="M37.6,10.1c-0.5,0.3-0.9,0.8-0.9,1.3c-0.1,0.6,0.1,1.2,0.5,1.5c0.3,0.3,0.7,0.5,1.1,0.7
		c0.3,0.3,0.6,0.7,0.7,1.1c0.8-0.2,1.6-0.5,2.4-0.7c0.2,0,0.3-0.1,0.5-0.2c0.2-0.2,0.2-0.4,0.2-0.7c0-0.6,0-1.2-0.3-1.6
		c-0.1-0.2-0.3-0.3-0.4-0.5c-0.5-0.7-0.4-1.8-0.3-2.7c-0.2,0.6-0.7,1-1.2,1.2C39.2,9.9,38.3,9.7,37.6,10.1z"/>
	<path fill="#F04B36" d="M21.9,5.7c0.3,0.7,0.2,1.6,0.6,2.2c0.3,0.5,0.8,0.8,1.4,0.9c0.6,0,1.1-0.2,1.5-0.6c0.3-0.3,0.4-0.8,0.7-1.1
		c0.3-0.4,0.6-0.6,1-0.8c-0.3-0.8-0.6-1.6-0.8-2.3c-0.1-0.2-0.1-0.3-0.3-0.4c-0.2-0.2-0.5-0.2-0.7-0.2c-0.6,0-1.2,0-1.6,0.4
		c-0.2,0.1-0.3,0.3-0.5,0.4c-0.7,0.6-1.7,0.5-2.7,0.5C21.2,4.8,21.7,5.2,21.9,5.7z"/>
</g>
</svg>
