<?xml version="1.0" encoding="utf-8"?>
<!-- Generator: Adobe Illustrator 18.0.0, SVG Export Plug-In . SVG Version: 6.00 Build 0)  -->
<!DOCTYPE svg PUBLIC "-//W3C//DTD SVG 1.1//EN" "http://www.w3.org/Graphics/SVG/1.1/DTD/svg11.dtd">
<svg version="1.1" id="Layer_1" xmlns="http://www.w3.org/2000/svg" xmlns:xlink="http://www.w3.org/1999/xlink" x="0px" y="0px"
	 viewBox="0 0 72 72" enable-background="new 0 0 72 72" xml:space="preserve">
<g>
	<path fill="#06728D" d="M58.6,24.1c-0.7,0.3-1.6,0.1-2.2,0.5c-0.5,0.3-0.8,0.8-0.9,1.3c-0.1,0.6,0.1,1.1,0.5,1.5
		c0.3,0.3,0.7,0.5,1.1,0.7c0.3,0.3,0.6,0.7,0.7,1.1c0.8-0.2,1.6-0.4,2.4-0.7c0.2,0,0.3-0.1,0.5-0.2c0.2-0.2,0.2-0.4,0.2-0.7
		c0-0.6,0-1.2-0.3-1.6c-0.1-0.2-0.3-0.3-0.4-0.5c-0.5-0.7-0.4-1.7-0.3-2.6C59.6,23.4,59.1,23.9,58.6,24.1z"/>
	<path fill="#06728D" d="M18.8,20.8C19,21,19.3,21,19.5,21c0.6,0,1.2,0.1,1.6-0.2c0.2-0.1,0.3-0.3,0.5-0.4c0.7-0.5,1.7-0.4,2.6-0.3
		c-0.6-0.2-1-0.7-1.2-1.2c-0.3-0.7-0.1-1.6-0.5-2.2c-0.2-0.5-0.7-0.9-1.3-0.9c-0.6-0.1-1.1,0.1-1.5,0.5c-0.3,0.3-0.5,0.7-0.7,1.1
		c-0.3,0.3-0.7,0.6-1.1,0.7c0.2,0.8,0.4,1.6,0.6,2.4C18.7,20.5,18.7,20.7,18.8,20.8z"/>
	<path fill="#06728D" d="M19,33c-0.3,0.3-0.7,0.6-1.1,0.7c0.2,0.8,0.4,1.6,0.6,2.4c0,0.2,0.1,0.3,0.2,0.5c0.2,0.2,0.4,0.2,0.7,0.2
		c0.6,0,1.2,0.1,1.6-0.2c0.2-0.1,0.3-0.3,0.5-0.4c0.7-0.5,1.7-0.4,2.6-0.3c-0.6-0.2-1-0.7-1.2-1.2c-0.3-0.7-0.1-1.6-0.5-2.2
		c-0.2-0.5-0.7-0.9-1.3-0.9c-0.6-0.1-1.1,0.1-1.5,0.5C19.5,32.3,19.3,32.7,19,33z"/>
	<path fill="#06728D" d="M42.4,12.4c-0.1,0.6,0.1,1.1,0.5,1.5c0.3,0.3,0.7,0.5,1.1,0.7c0.3,0.3,0.6,0.7,0.7,1.1
		c0.8-0.2,1.6-0.4,2.4-0.7c0.2,0,0.3-0.1,0.5-0.2c0.2-0.2,0.2-0.4,0.2-0.7c0-0.6,0-1.2-0.3-1.6c-0.1-0.2-0.3-0.3-0.4-0.5
		c-0.5-0.7-0.4-1.7-0.3-2.6c-0.2,0.6-0.7,1-1.2,1.2c-0.7,0.3-1.6,0.1-2.2,0.5C42.8,11.3,42.5,11.8,42.4,12.4z"/>
	<path fill="#06728D" d="M27.9,6.8c0.3,0.7,0.2,1.5,0.6,2.2c0.3,0.5,0.8,0.8,1.4,0.8c0.6,0,1.1-0.2,1.5-0.6c0.3-0.3,0.4-0.8,0.7-1.1
		c0.3-0.4,0.6-0.6,1-0.8c-0.3-0.8-0.5-1.5-0.8-2.3c-0.1-0.2-0.1-0.3-0.2-0.4c-0.2-0.2-0.5-0.2-0.7-0.2c-0.6,0-1.2,0-1.6,0.4
		c-0.2,0.1-0.3,0.3-0.5,0.4c-0.7,0.6-1.7,0.5-2.6,0.5C27.1,5.8,27.6,6.2,27.9,6.8z"/>
	<circle fill="#06728D" cx="34.1" cy="14.4" r="3.1"/>
	<circle fill="#06728D" cx="62.4" cy="44.9" r="1.6"/>
	<circle fill="#06728D" cx="49.1" cy="40.6" r="1.6"/>
	<circle fill="#06728D" cx="31" cy="44.9" r="3.1"/>
	<path fill="#06728D" d="M12.6,36.7c-0.5-0.7-0.4-1.7-0.3-2.6c-0.2,0.6-0.7,1-1.2,1.2c-0.7,0.3-1.6,0.1-2.2,0.5
		C8.4,36,8,36.5,7.9,37c-0.1,0.6,0.1,1.1,0.5,1.5c0.3,0.3,0.7,0.5,1.1,0.7c0.3,0.3,0.6,0.7,0.7,1.1c0.8-0.2,1.6-0.4,2.4-0.7
		c0.2,0,0.3-0.1,0.5-0.2c0.2-0.2,0.2-0.4,0.2-0.7c0-0.6,0-1.2-0.3-1.6C12.9,37,12.7,36.9,12.6,36.7z"/>
	<path fill="#06728D" d="M22.1,50.2c-0.2-0.1-0.5,0.1-0.7,0.2c-0.5,0.3-1,0.6-1.2,1.1c-0.1,0.2-0.1,0.4-0.2,0.6
		c-0.3,0.8-1.3,1.3-2.1,1.6c0.6-0.1,1.2,0,1.7,0.4c0.6,0.5,0.9,1.3,1.6,1.6c0.5,0.3,1.1,0.3,1.6,0.1c0.5-0.2,0.9-0.7,1-1.3
		c0.1-0.4,0-0.9,0.1-1.3c0.1-0.4,0.2-0.8,0.5-1.2c-0.6-0.5-1.2-1.1-1.8-1.6C22.4,50.4,22.3,50.2,22.1,50.2z"/>
	<path fill="#06728D" d="M62.1,38.4c0.4-0.5,0.4-1.2,0.1-1.8c-0.2-0.2-0.4-0.4-0.6-0.6c-0.5-0.4-1-0.9-1.6-1.3
		c-0.2-0.1-0.4-0.3-0.6-0.3c-0.2,0.1-0.4,0.3-0.4,0.6c-0.1,0.5-0.2,1-0.3,1.5c-0.2,0-0.4-0.2-0.4-0.4c-0.1-0.2-0.1-0.4-0.1-0.6
		c0-0.4-0.1-0.7-0.3-1.1c-0.1-0.2-0.3-0.5-0.6-0.5c-0.2,0-0.4,0.1-0.6,0.2c-0.2,0.2-0.3,0.4-0.4,0.5c-0.3,0.3-0.6,0.6-0.9,0.9
		c-0.2,0.3-0.5,0.5-0.7,0.8c-0.2,0.3-0.5,0.6-0.7,0.9c-0.2,0.3-0.5,0.7-0.4,1c0,0.1,0,0.1,0.1,0.1c0,0,0.1,0,0.2,0
		c0.2,0,0.5,0,0.7,0.1c0.4,0.1,0.8,0.3,1.2,0.5c0.7,0.4,1.4,0.8,2.1,1.2c0.1,0.1,0.3,0.2,0.4,0.2c0.4,0.1,0.7-0.1,1-0.3
		c0.3-0.2,0.5-0.5,0.9-0.7C60.8,39.1,61.6,39,62.1,38.4z"/>
	<path fill="#E77528" d="M57.2,49.8c-0.6,0-1.2,0.2-1.8,0c0.9-0.4,1.6-1.3,1.9-2.3c0.2-0.6,0.2-1.4-0.2-1.6c-0.3-0.2-0.7,0-1,0.2
		c-0.2,0.1-0.4,0.3-0.5,0.6c-0.4,0.6-0.2,1.5-0.5,2.2c-0.1,0.3-0.5,0.5-0.6,0.2c0-0.1,0-0.2,0-0.4c0-0.3-0.1-0.7-0.2-1
		c-0.2-0.5-0.4-0.9-0.8-1.2c-0.4-0.3-0.9-0.3-1.2,0c-0.3,0.3-0.4,0.9-0.2,1.4c0.2,0.5,0.5,0.8,0.8,1.1c0.4,0.3,0.8,0.6,1.2,0.6
		c0.1,0.2,0,0.4-0.1,0.5c-0.1,0.1-0.2,0.1-0.3,0.2c-0.2,0-0.3,0-0.5,0.1c-0.4,0-0.8,0.2-1.1,0.5c-0.1,0.1-0.3,0.4-0.5,0.7
		c-0.2,0.1-0.4,0.2-0.5,0.3c0.2-0.4,0.3-0.9,0.3-1.3c0-1.7-1.4-3.1-3.1-3.1s-3.1,1.4-3.1,3.1c0,1.5,1,2.7,2.4,3
		c-1.9,0.8-3.9,1.6-5.5,2.2L41,43.7C50,39.1,55.1,31,55.1,31c-1.6,1.8-4.1,3.5-6.7,5c0-0.1-0.1-0.3-0.2-0.4
		c-0.1-0.2-0.3-0.2-0.5-0.3c-0.8-0.5-1.4-1.2-1.9-2.1c0.3-0.1,0.5-0.1,0.8,0c0.3,0,0.5,0,0.8-0.1c0.2-0.1,0.4-0.4,0.4-0.8
		c0-0.1,0-0.2-0.1-0.2C47.7,32,47.6,32,47.6,32c-0.4,0-0.8,0.1-1.3,0.1c-0.4,0-0.9-0.1-1.2-0.4c-0.1-0.1-0.3-0.4-0.5-0.3
		c-0.2,0-0.2,0.3-0.3,0.5c-0.1,0.4-0.2,0.8-0.3,1.2c-0.3,0.1-0.7-0.1-1,0.1c-0.1,0.1-0.2,0.2-0.2,0.4c-0.2,0.3-0.4,0.6-0.7,0.9
		c-0.2,0.2-0.4,0.3-0.5,0.6c-0.1,0.2-0.1,0.4-0.1,0.7c0,0,0,0.1,0,0.1c0,0,0,0.1,0.1,0.1c0.3,0.2,0.7,0,0.9-0.4
		c0.2-0.3,0.3-0.7,0.4-1.2c0,1.4,0,2.8,0,4.1c0,0.1,0,0.3,0,0.4c-0.9,0.4-1.7,0.8-2.4,1.1L40,30c3.2-1.5,6-3.5,8.3-5.5
		c-0.2,0.3-0.2,0.8-0.1,1.2c0.2,0.5,0.5,0.8,0.8,1.1c0.4,0.3,0.8,0.6,1.2,0.6c0.1,0.2,0,0.6-0.2,0.7c-0.2,0.1-0.4,0.1-0.7,0.1
		c-0.4,0-0.8,0.2-1.1,0.5c-0.1,0.1-0.9,1.3-0.6,1.7c0.1,0.1,0.2,0.2,0.4,0.3c0.4,0.2,0.9,0.2,1.3,0c0.2-0.1,0.3-0.2,0.4-0.4
		c0.2-0.4,0.2-1,0.5-1.2c0.1,0,0.1,0,0.2,0c0.1,0.1,0.2,0.3,0.1,0.5c0,0.7-0.2,1.5,0,2.2c0.2,0.7,0.8,1.3,1.3,1.1
		c0.2-0.1,0.4-0.3,0.6-0.5c0.1-0.2,0.2-0.3,0.3-0.5c0.1-0.5-0.3-0.9-0.6-1.4c-0.2-0.4-0.3-0.8-0.2-1.3c0.2,0,0.4,0.2,0.5,0.4
		c0.3,0.3,0.6,0.6,1,0.7c0.4,0.1,0.9,0,1.2-0.3c0.3-0.3,0.5-0.9,0.4-1.3c-0.2-0.7-0.9-0.9-1.5-0.9c-0.6,0-1.2,0.2-1.8,0
		c0.9-0.4,1.6-1.3,1.9-2.3c0.2-0.6,0.2-1.4-0.2-1.6c-0.3-0.2-0.7,0-1,0.2c-0.2,0.1-0.4,0.3-0.5,0.6c-0.4,0.6-0.2,1.5-0.5,2.2
		c-0.1,0.3-0.5,0.5-0.6,0.2c0-0.1,0-0.2,0-0.4c0-0.3-0.1-0.7-0.2-1c-0.2-0.5-0.4-0.9-0.8-1.2c-0.3-0.2-0.6-0.3-0.9-0.2
		c2-1.8,3.6-3.6,4.7-5c0,0.2,0.1,0.3,0.1,0.5c0,0.1,0.1,0.2,0.2,0.3c0.1,0.1,0.2,0.1,0.4,0.2c0.9,0.2,1.8,0,2.5-0.6
		c0.7-0.6,1.1-1.5,1.7-2.2c0.3-0.3,0.6-0.6,0.8-1c0.3-0.4,0.5-0.8,0.6-1.3c0.2-0.4,0.3-0.9,0.4-1.3c0.2-0.8,0.1-1.8,0.5-2.5
		c-0.6,0.3-1.2,0.6-1.8,0.8c-1.2,0.4-2.5,0.5-3.7,0.9c-1.4,0.4-2.7,1.2-3.6,2.4c-0.4,0.5-0.7,1.1-0.7,1.7c0,0.3,0.1,0.7,0.4,0.9
		c0.1,0.1,0.3,0.1,0.5,0.2c0.5,0.1,1.1,0.2,1.6,0.3c0,0,0,0.1,0,0.1c-1.5,1.3-3.4,2.5-5.4,3.7c0.4-0.5,0.7-1.2,0.7-1.9
		c0-1.7-1.4-3.1-3.1-3.1c-1.7,0-3.1,1.4-3.1,3.1s1.4,3.1,3.1,3.1c0.1,0,0.2,0,0.4,0c-2.4,1.3-4.6,2.3-6.2,3L38.3,8.1
		c0,0,0-0.1,0.1-0.1c0.1-0.2,0.1-0.4,0.1-0.6c0.1-1,0.2-2.1,0.3-3.1c0.3,0.8,0.6,1.5,1,2.2c0.4,0.6,1,1.2,1.7,1.3
		c0-0.4-0.1-0.8-0.2-1.2c-0.2-0.9-0.5-1.8-0.7-2.7c0.7,0.8,1.6,1.3,2.5,1.5c0.1-0.2,0-0.5-0.2-0.6c-0.1-0.2-0.3-0.2-0.5-0.3
		c-0.8-0.5-1.4-1.2-1.9-2.1c0.3-0.1,0.5-0.1,0.8,0c0.3,0,0.5,0,0.8-0.1c0.2-0.1,0.4-0.4,0.4-0.8c0-0.1,0-0.2-0.1-0.2
		c-0.1-0.1-0.1-0.1-0.2-0.1c-0.4,0-0.8,0.1-1.3,0.1c-0.4,0-0.9-0.1-1.2-0.4c-0.1-0.1-0.3-0.4-0.5-0.3c-0.2,0-0.2,0.3-0.3,0.5
		c-0.1,0.4-0.2,0.8-0.3,1.2c-0.3,0.1-0.7-0.1-1,0.1c-0.1,0.1-0.2,0.2-0.2,0.4C37.4,3,37.2,3.3,37,3.5c-0.2,0.2-0.4,0.3-0.5,0.6
		c-0.1,0.2-0.1,0.4-0.1,0.7c0,0,0,0.1,0,0.1c0,0,0,0.1,0.1,0.1c0.3,0.2,0.7,0,0.9-0.4c0.2-0.3,0.3-0.7,0.4-1.2c0,0.7,0,1.5,0,2.2
		L37,19.9c-3.5-1.2-12-4.2-15.8-7.4c0,0,5.7,6.9,15.7,10.2l-0.7,12.6c-3.9-1.3-11.4-4.1-15-7.1c0,0,5.4,6.5,14.8,9.9l-0.7,12.6
		c-3.2-1.1-8.1-3-11.7-5.1c0-0.1,0-0.3,0-0.4c0.4,0,0.9-0.2,1.2-0.5c0.1-0.1,0.2-0.2,0.2-0.3c0.1-0.1,0.1-0.3,0.1-0.4
		c0-0.9-0.5-1.7-1.2-2.3c-0.7-0.5-1.7-0.7-2.6-1.1c-0.4-0.2-0.8-0.4-1.2-0.5c-0.4-0.2-0.9-0.2-1.4-0.3c-0.5,0-0.9-0.1-1.4,0
		c-0.9,0.1-1.7,0.4-2.5,0.1c0.5,0.5,0.9,1,1.2,1.6c0.7,1.1,1.1,2.3,1.8,3.3c0.8,1.2,1.9,2.3,3.2,2.8c0.6,0.2,1.2,0.4,1.8,0.2
		c0.3-0.1,0.6-0.3,0.7-0.6c0.1-0.2,0.1-0.3,0-0.5c0-0.1,0-0.3,0-0.4c1.6,1.4,3.9,3.3,6.9,4.9c-0.1,0-0.1,0.1-0.2,0.1
		c-0.7,0.3-1.6,0.1-2.2,0.5c-0.5,0.3-0.8,0.8-0.9,1.3c-0.1,0.6,0.1,1.1,0.5,1.5c0.3,0.3,0.7,0.5,1.1,0.7c0.3,0.3,0.6,0.7,0.7,1.1
		c0.8-0.2,1.6-0.4,2.4-0.7c0.2,0,0.3-0.1,0.5-0.2c0.2-0.2,0.2-0.4,0.2-0.7c0-0.6,0-1.2-0.3-1.6c-0.1-0.2-0.3-0.3-0.4-0.5
		c-0.2-0.3-0.3-0.7-0.4-1c1.1,0.6,2.3,1.2,3.6,1.7l-1,17.9h9l-1-13.2c4-1.7,7.2-3.9,9.4-5.7c0.1,0.1,0.2,0.1,0.2,0.2
		c0.4,0.2,0.9,0.2,1.3,0c0.2-0.1,0.3-0.2,0.4-0.4c0.2-0.4,0.2-1,0.5-1.2c0.1,0,0.1,0,0.2,0c0.1,0.1,0.2,0.3,0.1,0.5
		c0,0.7-0.2,1.5,0,2.2c0.2,0.7,0.8,1.3,1.3,1.1c0.2-0.1,0.4-0.3,0.6-0.5c0.1-0.2,0.2-0.3,0.3-0.5c0.1-0.5-0.3-0.9-0.6-1.4
		c-0.2-0.4-0.3-0.8-0.2-1.3c0.2,0,0.4,0.2,0.5,0.4c0.3,0.3,0.6,0.6,1,0.7c0.4,0.1,0.9,0,1.2-0.3c0.3-0.3,0.5-0.9,0.4-1.3
		C58.6,50,57.8,49.8,57.2,49.8z M48.1,36.2c-0.5,0.3-1.1,0.6-1.6,0.9c-0.2-0.8-0.4-1.6-0.6-2.3C46.5,35.5,47.3,36,48.1,36.2z
		 M43.8,38.4c0.1-1,0.2-2.1,0.3-3.1c0.3,0.8,0.6,1.5,1,2.2c0.1,0.1,0.1,0.2,0.2,0.3c-0.5,0.3-1,0.5-1.5,0.8
		C43.8,38.5,43.8,38.5,43.8,38.4z"/>
	<path fill="#06728D" d="M15,29.1c0.1,0,0.1,0,0.2,0c0.1,0.1,0.2,0.3,0.1,0.5c0,0.7-0.2,1.5,0,2.2c0.2,0.7,0.8,1.3,1.3,1.1
		c0.2-0.1,0.4-0.3,0.6-0.5c0.1-0.2,0.2-0.3,0.3-0.5c0.1-0.5-0.3-0.9-0.6-1.4c-0.2-0.4-0.3-0.8-0.2-1.3c0.2,0,0.4,0.2,0.5,0.4
		c0.3,0.3,0.6,0.6,1,0.7c0.4,0.1,0.9,0,1.2-0.3c0.3-0.3,0.5-0.9,0.4-1.3c-0.2-0.7-0.9-0.9-1.5-0.9c-0.6,0-1.2,0.2-1.8,0
		c0.9-0.4,1.6-1.3,1.9-2.3c0.2-0.6,0.2-1.4-0.2-1.6c-0.3-0.2-0.7,0-1,0.2c-0.2,0.1-0.4,0.3-0.5,0.6c-0.4,0.6-0.2,1.5-0.5,2.2
		c-0.1,0.3-0.5,0.5-0.6,0.2c0-0.1,0-0.2,0-0.4c0-0.3-0.1-0.7-0.2-1c-0.2-0.5-0.4-0.9-0.8-1.2c-0.4-0.3-0.9-0.3-1.2,0
		c-0.3,0.3-0.4,0.9-0.2,1.4c0.2,0.5,0.5,0.8,0.8,1.1c0.4,0.3,0.8,0.6,1.2,0.6c0.1,0.2,0,0.6-0.2,0.7c-0.2,0.1-0.4,0.1-0.7,0.1
		c-0.4,0-0.8,0.2-1.1,0.5c-0.1,0.1-0.9,1.3-0.6,1.7c0.1,0.1,0.2,0.2,0.4,0.3c0.4,0.2,0.9,0.2,1.3,0c0.2-0.1,0.3-0.2,0.4-0.4
		C14.7,30,14.7,29.3,15,29.1z"/>
	<path fill="#06728D" d="M29.7,27.3c-0.2,0.1-0.4,0.1-0.7,0.1c-0.4,0-0.8,0.2-1.1,0.5c-0.1,0.1-0.9,1.3-0.6,1.7
		c0.1,0.1,0.2,0.2,0.4,0.3c0.4,0.2,0.9,0.2,1.3,0c0.2-0.1,0.3-0.2,0.4-0.4c0.2-0.4,0.2-1,0.5-1.2c0.1,0,0.1,0,0.2,0
		c0.1,0.1,0.2,0.3,0.1,0.5c0,0.7-0.2,1.5,0,2.2c0.2,0.7,0.8,1.3,1.3,1.1c0.2-0.1,0.4-0.3,0.6-0.5c0.1-0.2,0.2-0.3,0.3-0.5
		c0.1-0.5-0.3-0.9-0.6-1.4c-0.2-0.4-0.3-0.8-0.2-1.3c0.2,0,0.4,0.2,0.5,0.4c0.3,0.3,0.6,0.6,1,0.7c0.4,0.1,0.9,0,1.2-0.3
		c0.3-0.3,0.5-0.9,0.4-1.3c-0.2-0.7-0.9-0.9-1.5-0.9c-0.6,0-1.2,0.2-1.8,0c0.9-0.4,1.6-1.3,1.9-2.3c0.2-0.6,0.2-1.4-0.2-1.6
		c-0.3-0.2-0.7,0-1,0.2c-0.2,0.1-0.4,0.3-0.5,0.6c-0.4,0.6-0.2,1.5-0.5,2.2c-0.1,0.3-0.5,0.5-0.6,0.2c0-0.1,0-0.2,0-0.4
		c0-0.3-0.1-0.7-0.2-1c-0.2-0.5-0.4-0.9-0.8-1.2c-0.4-0.3-0.9-0.3-1.2,0c-0.3,0.3-0.4,0.9-0.2,1.4c0.2,0.5,0.5,0.8,0.8,1.1
		c0.4,0.3,0.8,0.6,1.2,0.6C30.1,26.9,30,27.2,29.7,27.3z"/>
	<path fill="#06728D" d="M49.9,6.9C49.7,7,49.5,7,49.3,7c-0.4,0-0.8,0.2-1.1,0.5c-0.1,0.1-0.9,1.3-0.6,1.7c0.1,0.1,0.2,0.2,0.4,0.3
		c0.4,0.2,0.9,0.2,1.3,0c0.2-0.1,0.3-0.2,0.4-0.4c0.2-0.4,0.2-1,0.5-1.2c0.1,0,0.1,0,0.2,0c0.1,0.1,0.2,0.3,0.1,0.5
		c0,0.7-0.2,1.5,0,2.2c0.2,0.7,0.8,1.3,1.3,1.1c0.2-0.1,0.4-0.3,0.6-0.5c0.1-0.2,0.2-0.3,0.3-0.5c0.1-0.5-0.3-0.9-0.6-1.4
		c-0.2-0.4-0.3-0.8-0.2-1.3c0.2,0,0.4,0.2,0.5,0.4c0.3,0.3,0.6,0.6,1,0.7c0.4,0.1,0.9,0,1.2-0.3C54.9,8.5,55.1,8,55,7.5
		c-0.2-0.7-0.9-0.9-1.5-0.9c-0.6,0-1.2,0.2-1.8,0c0.9-0.4,1.6-1.3,1.9-2.3c0.2-0.6,0.2-1.4-0.2-1.6c-0.3-0.2-0.7,0-1,0.2
		c-0.2,0.1-0.4,0.3-0.5,0.6c-0.4,0.6-0.2,1.5-0.5,2.2c-0.1,0.3-0.5,0.5-0.6,0.2c0-0.1,0-0.2,0-0.4c0-0.3-0.1-0.7-0.2-1
		c-0.2-0.5-0.4-0.9-0.8-1.2c-0.4-0.3-0.9-0.3-1.2,0C48,3.5,48,4.1,48.1,4.5c0.2,0.5,0.5,0.8,0.8,1.1c0.4,0.3,0.8,0.6,1.2,0.6
		C50.3,6.5,50.1,6.8,49.9,6.9z"/>
	<path fill="#06728D" d="M22.4,7.9C22.2,8,22,7.9,21.8,8c-0.4,0-0.8,0.2-1.1,0.5c-0.1,0.1-0.9,1.3-0.6,1.7c0.1,0.1,0.2,0.2,0.4,0.3
		c0.4,0.2,0.9,0.2,1.3,0c0.2-0.1,0.3-0.2,0.4-0.4c0.2-0.4,0.2-1,0.5-1.2c0.1,0,0.1,0,0.2,0c0.1,0.1,0.2,0.3,0.1,0.5
		c0,0.7-0.2,1.5,0,2.2c0.2,0.7,0.8,1.3,1.3,1.1c0.2-0.1,0.4-0.3,0.6-0.5c0.1-0.2,0.2-0.3,0.3-0.5c0.1-0.5-0.3-0.9-0.6-1.4
		c-0.2-0.4-0.3-0.8-0.2-1.3c0.2,0,0.4,0.2,0.5,0.4c0.3,0.3,0.6,0.6,1,0.7c0.4,0.1,0.9,0,1.2-0.3c0.3-0.3,0.5-0.9,0.4-1.3
		c-0.2-0.7-0.9-0.9-1.5-0.9c-0.6,0-1.2,0.2-1.8,0C25,7,25.7,6.2,26,5.1c0.2-0.6,0.2-1.4-0.2-1.6c-0.3-0.2-0.7,0-1,0.2
		c-0.2,0.1-0.4,0.3-0.5,0.6c-0.4,0.6-0.2,1.5-0.5,2.2c-0.1,0.3-0.5,0.5-0.6,0.2c0-0.1,0-0.2,0-0.4c0-0.3-0.1-0.7-0.2-1
		C22.6,4.8,22.4,4.3,22,4c-0.4-0.3-0.9-0.3-1.2,0c-0.3,0.3-0.4,0.9-0.2,1.4c0.2,0.5,0.5,0.8,0.8,1.1c0.4,0.3,0.8,0.6,1.2,0.6
		C22.8,7.4,22.6,7.7,22.4,7.9z"/>
</g>
</svg>
