<?xml version="1.0" encoding="utf-8"?>
<!-- Generator: Adobe Illustrator 18.0.0, SVG Export Plug-In . SVG Version: 6.00 Build 0)  -->
<!DOCTYPE svg PUBLIC "-//W3C//DTD SVG 1.1//EN" "http://www.w3.org/Graphics/SVG/1.1/DTD/svg11.dtd">
<svg version="1.1" id="Layer_1" xmlns="http://www.w3.org/2000/svg" xmlns:xlink="http://www.w3.org/1999/xlink" x="0px" y="0px"
	 viewBox="0 0 72 72" enable-background="new 0 0 72 72" xml:space="preserve">
<g>
	<path fill="#E77528" d="M70.8,35.7c-0.4-1.4-1.4-2.5-2.9-3.2c0.1,0,0.1-0.1,0.2-0.2c0.1-0.1,0.3-0.3,0.3-0.4
		c0.1-0.4-0.4-0.7-0.6-1.1c-0.2-0.3-0.3-0.7-0.2-1c0.2,0,0.4,0.2,0.6,0.3c0.3,0.3,0.7,0.5,1.1,0.6c0.4,0.1,0.9,0,1.3-0.2
		c0.4-0.2,0.6-0.7,0.4-1.1c-0.2-0.6-1-0.8-1.7-0.7c-0.7,0-1.3,0.2-2,0c0.9-0.3,1.7-1,2.1-1.9c0.2-0.5,0.2-1.1-0.3-1.3
		c-0.3-0.2-0.8,0-1.1,0.2c-0.2,0.1-0.4,0.3-0.6,0.4c-0.4,0.5-0.2,1.2-0.6,1.8c-0.1,0.2-0.5,0.4-0.7,0.2c-0.1-0.1,0-0.2,0-0.3
		c0-0.3-0.1-0.6-0.3-0.8c-0.2-0.4-0.5-0.8-0.9-1s-1-0.2-1.3,0c-0.3,0.3-0.4,0.7-0.2,1.1c-2.9,0.6-5.6,2.4-7.1,5
		c-0.1,0.2-0.2,0.4-0.3,0.7c-0.5,0-1.1,0-1.6,0c-1.1,0-2.2,0.1-3.3,0.2c-0.6,0.1-1.1,0.1-1.7,0.2c-0.6,0.1-1.1,0.1-1.7,0.2
		c-1.1,0.2-2.3,0.4-3.4,0.7c-0.6,0.1-1.1,0.3-1.6,0.4c-0.5,0.2-1.1,0.3-1.6,0.5c-2.1,0.7-3.9,1.6-5.5,2.5c-0.4,0.2-0.7,0.5-1.1,0.7
		c-0.3,0.2-0.5,0.4-0.8,0.7c-0.1-0.2-0.1-0.3-0.3-0.4c-0.1-0.1-0.1-0.1-0.2-0.1c0.1-0.1,0.2-0.3,0.3-0.4c0.4-0.5,0.8-1.1,1.2-1.7
		c0.2-0.3,0.5-0.6,0.7-0.9c0.2-0.3,0.5-0.6,0.8-0.9c0.3-0.3,0.5-0.6,0.8-0.9c0.3-0.3,0.6-0.6,0.9-0.9c0.6-0.6,1.2-1.1,1.9-1.7
		c0.7-0.5,1.4-1,2-1.5c0.7-0.5,1.4-0.9,2.1-1.4c0.7-0.4,1.4-0.8,2-1.2c0.7-0.3,1.3-0.7,1.9-1c0.5-0.2,0.9-0.4,1.3-0.6
		c0.3-0.1,0.5-0.2,0.8-0.4c0.3-0.1,0.5-0.2,0.7-0.3c0.1,0.5,0.4,0.9,0.8,1.3c0.9,0.9,2.4,1.2,3.5,0.7c1.1-0.4,1.7-1.5,2.9-1.7
		c-1-0.8-2.2-1.5-3.5-1.9c-0.5-0.2-1-0.3-1.5-0.4c0.9-0.9,1.6-2,2-3.2c0.9-2.1,0.9-4.2,0.1-6.2c0.2,0,0.4,0,0.6-0.1
		c0.2-0.1,0.3-0.2,0.5-0.3c0.2-0.3,0.2-0.8,0.6-1c0.1,0,0.2,0,0.2,0c0.1,0.1,0.2,0.2,0.2,0.4c0,0.6-0.2,1.2,0,1.8
		c0.2,0.6,0.8,1.1,1.5,0.9c0.1,0,0.2-0.1,0.3-0.1c0.1,0.5,0.2,1,0.3,1.5c0.1,0.4,0.4,0.6,0.8,0.5c0.4-0.1,0.6-0.4,0.5-0.8
		c-0.3-1.3-0.6-2.4-1-3.5c0.2,0.1,0.5,0.3,0.8,0.3c0.4,0.1,0.9,0,1.3-0.2c0.4-0.2,0.6-0.7,0.4-1.1c-0.2-0.6-1-0.8-1.7-0.7
		c-0.5,0-1.1,0.1-1.6,0c0-0.1-0.1-0.1-0.1-0.2c0.8-0.4,1.5-1,1.8-1.8c0.2-0.5,0.2-1.1-0.3-1.3c-0.3-0.2-0.8,0-1.1,0.2
		c-0.2,0.1-0.4,0.3-0.6,0.4c-0.3,0.4-0.3,1-0.4,1.5c-1.8-2.9-4.2-4.7-7.4-5.3c-3.3-0.6-6.6,0.4-9.1,2.9c-0.1,0-0.3,0-0.4,0
		c0.1,0.1,0.1,0.2,0.2,0.3c-0.3,0.3-0.6,0.6-0.8,0.9c-2.1,2.8-2.2,5.9-0.4,9.4c0.9,2,2.9,3,6.1,3.3c0,0,0.1,0,0.1,0
		c2-0.2,3.9-1.8,4.4-3.7c0.4-1.5-0.2-2.8-1.6-3.7c0,0-0.1,0-0.1,0c-1-0.4-1.7,0.3-2.3,0.9c-0.7,0.7-0.9,0.8-1.1,0.6
		c-0.6-0.4-1-0.9-1-1.6c0-0.8,0.5-1.7,1.3-2.4c0.5,0.1,1,0,1.3-0.2c0.2-0.2,0.4-0.4,0.5-0.6c2-0.4,4.2,0.4,5.4,2.2
		c1.3,1.9,1.5,4.2,0.6,6.4c-1.1,2.7-3.7,4.9-6.5,5.5c-0.2,0-0.4,0.2-0.5,0.5c-0.8,0.3-1.6,0.6-2.4,0.9c0.3-0.6,0.3-1.5-0.1-2.2
		c-0.6-1.1-1.9-1.9-3.1-1.8c-1.1,0.1-2.1,0.9-3.3,0.7c0.7,1.1,1.7,2.1,2.7,2.9c0.5,0.4,1.1,0.8,1.7,1c0.2,0.1,0.4,0.1,0.6,0.1
		c-0.7,0.3-1.3,0.7-2,1.1c-0.8,0.5-1.5,0.9-2.3,1.5c-0.8,0.5-1.5,1.1-2.1,1.7c-0.5,0.4-1,0.9-1.4,1.4c0-0.5-0.1-1-0.3-1.4
		c-0.6-1.1-1.9-1.9-3.1-1.8c-1.1,0.1-2.1,0.9-3.3,0.7c0.7,1.1,1.7,2.1,2.7,2.9c0.5,0.4,1.1,0.8,1.7,1c0.3,0.1,0.7,0.1,1,0.1
		c-0.2,0.3-0.5,0.6-0.7,0.9c-0.5,0.6-0.9,1.3-1.2,1.9c-0.2,0.3-0.3,0.6-0.4,0.9c-0.1,0.2-0.2,0.5-0.3,0.7c-0.2-0.6-0.4-1.2-0.6-1.8
		c-0.3-0.7-0.6-1.5-1-2.2c-0.2-0.4-0.4-0.7-0.5-1.1c-0.2-0.4-0.4-0.7-0.6-1.1c-0.2-0.4-0.4-0.7-0.6-1.1c-0.2-0.3-0.5-0.7-0.7-1
		c-0.2-0.3-0.5-0.7-0.7-1c-0.2-0.3-0.5-0.6-0.7-1c-0.5-0.6-1-1.2-1.5-1.7c-0.5-0.5-0.9-1-1.3-1.4c0.3-0.3,0.4-0.6,0.6-1
		c0.2-0.6,0.4-1.1,0.6-1.7c0.2,0,0.5,0,0.7-0.1c0.2-0.1,0.3-0.2,0.5-0.3c0.2-0.3,0.2-0.8,0.6-1c0.1,0,0.2,0,0.2,0
		c0.1,0.1,0.2,0.2,0.2,0.4c0,0.6-0.2,1.2,0,1.8c0.2,0.6,0.8,1.1,1.5,0.9c0.2-0.1,0.4-0.2,0.6-0.4c0.1-0.1,0.3-0.3,0.3-0.4
		c0.1-0.4-0.4-0.7-0.6-1.1c-0.2-0.3-0.3-0.7-0.2-1c0.2,0,0.4,0.2,0.6,0.3c0.3,0.3,0.7,0.5,1.1,0.6c0.4,0.1,0.9,0,1.3-0.2
		c0.4-0.2,0.6-0.7,0.4-1.1c-0.2-0.6-1-0.8-1.7-0.7c-0.7,0-1.3,0.2-2,0c0.9-0.3,1.7-1,2.1-1.9c0.2-0.5,0.2-1.1-0.3-1.3
		c-0.3-0.2-0.8,0-1.1,0.2c-0.2,0.1-0.4,0.3-0.6,0.4c-0.4,0.5-0.2,1.2-0.6,1.8c-0.1,0.2-0.5,0.4-0.7,0.2c-0.1-0.1,0-0.2,0-0.3
		c0-0.3-0.1-0.6-0.3-0.8c-0.2-0.3-0.4-0.6-0.7-0.8c0.3-2-0.2-3.9-1.3-5.6c-1.9-2.8-5.5-3.7-8.5-2.2c0,0,0,0-0.1,0
		c-0.1,0.1-0.1,0.1-0.2,0.2c-0.4-0.4-0.8-0.8-1.4-0.9c0,0.8,0,1.5,0.1,2.3c-0.5,0.7-0.8,1.5-0.8,2.3c0,0.5,0.1,1.1,0.5,1.7
		c0,0.1-0.1,0.1-0.2,0.2c-0.3,0.3-0.8,0.4-0.9,0.8c-0.2,0.5,0.2,1,0.7,1.3s1,0.5,1.2,1c0.2,0.5-0.1,1.1-0.1,1.7
		c0.1,1.1,1.3,1.7,2.3,1.7c0.2,0,0.5,0,0.7,0.2c0.1,0.1,0.1,0.3,0.2,0.5c0.1,0.6,0,1.2,0,1.8c-0.2,0-0.3,0.1-0.5,0.1
		c-0.4,0.1-0.6,0.4-0.5,0.8c0.1,0.3,0.3,0.5,0.6,0.5c0,0,0.1,0,0.1,0c0.3-0.1,0.6-0.1,0.8-0.2c0.4,0.2,0.8,0.2,1.2,0.2
		c0.8,0,1.6-0.1,2.4-0.1c0.1,0.1,0.2,0.2,0.3,0.3c0.4,0.5,0.8,1,1.2,1.6c0.4,0.6,0.8,1.2,1.3,1.8c0.4,0.6,0.9,1.3,1.2,2
		c0.2,0.3,0.4,0.7,0.6,1c0.2,0.3,0.4,0.7,0.6,1.1c0.4,0.7,0.7,1.4,1,2.1c0.4,0.7,0.6,1.4,0.9,2.1c0.2,0.5,0.3,0.9,0.5,1.4
		c0,0,0,0,0,0c0,0-0.1-0.1-0.1-0.1c-0.4-0.3-0.7-0.7-1.1-1c-0.4-0.3-0.8-0.6-1.2-0.9c-0.9-0.6-1.8-1.2-2.8-1.7
		c-0.2-0.1-0.5-0.2-0.7-0.4l-0.8-0.3c-0.5-0.2-1-0.4-1.6-0.6c-0.5-0.2-1.1-0.4-1.6-0.5c-0.5-0.1-1.1-0.3-1.6-0.4
		c-1.1-0.3-2.1-0.4-3.1-0.6c-1-0.1-2-0.2-3-0.3c-0.5,0-0.9,0-1.3-0.1c-0.1-0.4-0.2-0.7-0.3-1c-0.8-1.6-2.6-2.5-4.3-2.3
		c-1.7,0.3-3.2,1.5-4.8,1.3c1,1.5,2.2,2.9,3.6,3.9c0.7,0.5,1.5,1,2.3,1.2c0.9,0.2,1.8,0.1,2.5-0.4c0.5-0.4,0.8-0.9,1-1.5
		c0.4,0.1,0.8,0.1,1.2,0.2c0.9,0.1,1.8,0.3,2.8,0.5c1,0.2,1.9,0.5,2.9,0.8c1,0.3,2,0.7,2.9,1c0.5,0.2,1,0.4,1.4,0.6l0.7,0.3
		c0.2,0.1,0.4,0.2,0.7,0.4c0.9,0.5,1.7,1,2.5,1.6c0.4,0.3,0.7,0.6,1.1,0.9c0.4,0.3,0.7,0.6,1,0.9c0.5,0.5,0.9,0.9,1.4,1.4
		c0.1,0.4,0.1,0.8,0.1,1.1c-0.1,1.1-0.8,6.7-1.1,7.7c-1.1,5.1-3.7,9.7-4.5,14.8c-0.1,0.7-0.2,1.5,0.3,2c0.5,0.6,1.3,0.6,2,0.6
		c4.6,0.1,8.3,0.1,12.9,0.2c-0.6-9-4.2-17.7-4.6-26.7c0,0,0.1,0,0.1-0.1c0.3-0.1,0.5-0.3,0.8-0.4c0.3-0.2,0.6-0.3,0.9-0.5
		c0.3-0.2,0.7-0.4,1-0.6c0.7-0.4,1.5-0.8,2.3-1.2c0.8-0.4,1.8-0.8,2.7-1.1c1-0.3,2-0.7,3-1c1-0.3,2.1-0.6,3.2-0.8
		c0.8-0.2,1.7-0.3,2.5-0.5c0.1,1.8,0.4,3.5,0.9,4.9c-0.3-0.1-0.7-0.2-1-0.1c-1.1,0.1-2.1,0.9-3.3,0.7c0.7,1.1,1.7,2.1,2.7,2.9
		c0.5,0.4,1.1,0.8,1.7,1s1.3,0.2,1.7-0.1c0.1-0.1,0.2-0.1,0.2-0.2c1.3,1.7,3,3,5.1,3.7c1,0.3,2.1,0.5,3.1,0.5c2.6,0,5.2-1.1,7.4-3.2
		C71.6,42.5,72.1,39.4,70.8,35.7z M44.9,16.3c1.2,0.7,2.1-0.2,2.7-0.8c0.3-0.3,0.6-0.6,0.8-0.6c1.1,0.7,1.1,1.6,1,2.2
		c-0.3,1.3-1.8,2.6-3.2,2.7c-2.7-0.2-4.3-1-5-2.6c-1.6-3-1.5-5.7,0.2-8c0.2-0.2,0.4-0.5,0.6-0.7c0.5,0.6,1.1,1.1,1.7,1.6
		c0.2,0.2,0.5,0.4,0.8,0.6c-0.8,0.9-1.3,2-1.2,2.9C43.3,14.4,43.6,15.5,44.9,16.3z M47.7,9.1c-0.1-0.2-0.1-0.5-0.3-0.7
		c-0.6-1-1.8-1.8-2.9-1.8c1.8-1,3.7-1.3,5.7-0.9c1.8,0.3,3.3,1.1,4.6,2.3c-0.1,0-0.2,0.1-0.3,0.1c-0.3,0.3-0.4,0.7-0.2,1.1
		c0.2,0.4,0.5,0.7,0.9,0.9c0.4,0.3,0.9,0.5,1.3,0.5c0.1,0.2,0,0.4-0.3,0.5c-0.2,0.1-0.5,0.1-0.7,0.1c-0.4,0-0.9,0.2-1.2,0.4
		c0,0-0.1,0.1-0.3,0.3C52.7,9.8,50.2,8.7,47.7,9.1z M25.5,19.1c0.1,0.2,0,0.4-0.3,0.5c-0.2,0.1-0.5,0.1-0.7,0.1
		c-0.2,0-0.4,0-0.6,0.1c0.2-0.3,0.4-0.7,0.5-1c0,0,0,0,0,0C24.8,19,25.1,19.1,25.5,19.1z M15.9,10.1c2.3-1.2,5.2-0.4,6.7,1.8
		c0.9,1.4,1.3,3,1.1,4.6c-0.1,0-0.2,0.1-0.3,0.1c-0.3,0.3-0.4,0.7-0.2,1.1c0,0.1,0.1,0.1,0.1,0.2c0,0.1-0.1,0.3-0.1,0.4
		c-0.1,0.3-0.3,0.6-0.5,0.9c-0.1-0.1-0.2-0.3-0.3-0.4c-0.5-0.9-0.1-1.9,0-2.9s-0.1-2.2-1.1-2.4c-0.8-0.1-1.9,0.6-2.4-0.1
		c-0.5-0.6,0.3-1.8-0.3-2.3c-0.3-0.2-0.8,0-1.2,0C16.8,11.2,16.3,10.7,15.9,10.1C15.9,10.2,15.9,10.1,15.9,10.1z M64.6,28.1
		C64.7,28.1,64.7,28.1,64.6,28.1c0.3,0.1,0.6,0.2,1,0.3c0.1,0.2,0,0.4-0.3,0.5C65.1,29,64.9,29,64.6,29c-0.4,0-0.9,0.2-1.2,0.4
		c-0.2,0.1-1,1-0.7,1.4c0.1,0.1,0.3,0.2,0.4,0.3c0.4,0.2,0.9,0.2,1.4,0c0.2-0.1,0.3-0.2,0.5-0.3c0.2-0.3,0.2-0.8,0.6-1
		c0.1,0,0.2,0,0.2,0c0.1,0.1,0.2,0.2,0.2,0.4c0,0.6-0.1,1.1,0,1.7c-0.2-0.1-0.5-0.1-0.7-0.2c0,0-0.1,0-0.1,0
		c-1.3-0.1-2.6,0.5-3.6,1.3c-0.4,0-0.9-0.1-1.3-0.1c-0.9-0.1-1.8-0.1-2.8-0.1c0,0,0,0,0,0C58.9,30.1,61.8,28.3,64.6,28.1z
		 M61.3,38.5C61.3,38.6,61.4,38.6,61.3,38.5c1,0.6,1.8-0.1,2.5-0.5c0.7-0.6,1-0.6,1.2-0.5c0.6,0.5,0.8,1.1,0.8,1.7
		c-0.1,0.9-1,2-2.1,2.5c-2.5,0.9-5.2-0.3-6.4-2.7c-0.8-1.6-0.9-3.3-0.4-4.9c0.2,0,0.5,0,0.7,0c1-0.1,1.9-0.1,2.7-0.1
		c0.1,0,0.3,0,0.4,0c-0.1,0.2-0.3,0.5-0.4,0.7C59.7,36.1,60.1,37.5,61.3,38.5z M68.2,44c-2.7,2.5-6.1,3.4-9.3,2.3
		c-2.3-0.8-4.1-2.3-5.3-4.5c-0.1-0.1-0.1-0.3-0.2-0.4c0-0.1-0.1-0.2-0.1-0.2c-0.8-1.8-1.4-4-1.5-6.6c0.9-0.1,1.8-0.2,2.7-0.3
		c0.3,0,0.6-0.1,1-0.1c-0.4,1.8-0.2,3.7,0.6,5.4c1.5,3,5,4.4,8.1,3.3c0,0,0.1,0,0.1,0c1.6-0.8,2.7-2.2,2.8-3.6
		c0.1-0.7-0.1-1.8-1.3-2.8c-1.1-0.8-2.1,0-2.8,0.5c-0.3,0.3-0.7,0.5-0.9,0.5c-1-0.8-0.9-1.7-0.6-2.3c0.2-0.5,0.5-0.9,0.9-1.2
		c0,0,0.1,0,0.1,0c0.7,0,1.3,0,1.8,0c1,0,1.5,0,1.5,0l0.1-0.4c0,0-0.6-0.1-1.5-0.3c-0.2,0-0.5-0.1-0.7-0.1c0.4-0.2,0.9-0.3,1.4-0.3
		c2.6,0.6,4.1,1.6,4.6,3.2C70.7,39.3,70.3,41.9,68.2,44z"/>
	<path fill="#294E58" d="M33,21.9c-1.1,0.1-2.1,0.9-3.3,0.7c0.7,1.1,1.7,2.1,2.7,2.9c0.5,0.4,1.1,0.8,1.7,1c0.6,0.2,1.3,0.2,1.7-0.1
		c0.8-0.5,0.8-1.7,0.3-2.7C35.5,22.6,34.1,21.8,33,21.9z"/>
	<path fill="#294E58" d="M12.9,29.3c0.5,0.4,1.1,0.8,1.7,1c0.6,0.2,1.3,0.2,1.7-0.1c0.8-0.5,0.8-1.7,0.3-2.7
		c-0.6-1.1-1.9-1.9-3.1-1.8c-1.1,0.1-2.1,0.9-3.3,0.7C10.9,27.5,11.8,28.5,12.9,29.3z"/>
	<path fill="#294E58" d="M59.6,17.8c-0.7,0.1-1.3,0.2-1.9,0.5c-0.6,0.3-1,0.8-1.1,1.3c-0.2,0.9,0.7,1.8,1.7,2.1
		c1.2,0.4,2.7,0,3.5-0.9c0.7-0.9,0.9-2.1,1.8-2.8C62.3,17.7,60.9,17.7,59.6,17.8z"/>
	<path fill="#294E58" d="M48.4,27.1c-0.6-0.3-1.2-0.3-1.7-0.1c-0.8,0.4-1,1.6-0.6,2.6c0.5,1.2,1.7,2.1,2.9,2.2
		c1.1,0.1,2.2-0.6,3.3-0.3c-0.6-1.2-1.4-2.3-2.3-3.2C49.5,27.8,48.9,27.4,48.4,27.1z"/>
	<path fill="#294E58" d="M30.4,12.9c-0.2,0.1-0.5,0.1-0.7,0.1c-0.4,0-0.9,0.2-1.2,0.4c-0.2,0.1-1,1-0.7,1.4c0.1,0.1,0.3,0.2,0.4,0.3
		c0.4,0.2,0.9,0.2,1.4,0c0.2-0.1,0.3-0.2,0.5-0.3c0.2-0.3,0.2-0.8,0.6-1c0.1,0,0.2,0,0.2,0c0.1,0.1,0.2,0.2,0.2,0.4
		c0,0.6-0.2,1.2,0,1.8c0.2,0.6,0.8,1.1,1.5,0.9c0.2-0.1,0.4-0.2,0.6-0.4c0.1-0.1,0.3-0.3,0.3-0.4c0.1-0.4-0.4-0.7-0.6-1.1
		c-0.2-0.3-0.3-0.7-0.2-1c0.2,0,0.4,0.2,0.6,0.3c0.3,0.3,0.7,0.5,1.1,0.6c0.4,0.1,0.9,0,1.3-0.2c0.4-0.2,0.6-0.7,0.4-1.1
		c-0.2-0.6-1-0.8-1.7-0.7c-0.7,0-1.3,0.2-2,0c0.9-0.3,1.7-1,2.1-1.9c0.2-0.5,0.2-1.1-0.3-1.3c-0.3-0.2-0.8,0-1.1,0.2
		c-0.2,0.1-0.4,0.3-0.6,0.4c-0.4,0.5-0.2,1.2-0.6,1.8c-0.1,0.2-0.5,0.4-0.7,0.2c-0.1-0.1,0-0.2,0-0.3c0-0.3-0.1-0.6-0.3-0.8
		c-0.2-0.4-0.5-0.8-0.9-1c-0.4-0.2-1-0.2-1.3,0c-0.3,0.3-0.4,0.7-0.2,1.1c0.2,0.4,0.5,0.7,0.9,0.9c0.4,0.3,0.9,0.5,1.3,0.5
		C30.8,12.5,30.6,12.8,30.4,12.9z"/>
</g>
</svg>
