<?xml version="1.0" encoding="utf-8"?>
<!-- Generator: Adobe Illustrator 18.0.0, SVG Export Plug-In . SVG Version: 6.00 Build 0)  -->
<!DOCTYPE svg PUBLIC "-//W3C//DTD SVG 1.1//EN" "http://www.w3.org/Graphics/SVG/1.1/DTD/svg11.dtd">
<svg version="1.1" id="Layer_1" xmlns="http://www.w3.org/2000/svg" xmlns:xlink="http://www.w3.org/1999/xlink" x="0px" y="0px"
	 viewBox="0 0 72 72" enable-background="new 0 0 72 72" xml:space="preserve">
<g>
	<path fill="#E77528" d="M35.2,39.2c-1.6-10.4,4.3-29.4,4.3-29.4c-5.7,4.9-8.1,14.9-8.9,25.5c-5.5-3.9-7.9-12.1-7.9-12.1
		c-0.5,8.6,5.8,14.4,7.7,16c-0.7,16.2,1.9,32.3,1.9,32.3h5.8C37.2,70.3,35,43.1,35,43.1c18.3-10.4,17.2-24.4,17.2-24.4
		C49.4,28.9,35.2,39.2,35.2,39.2z"/>
	<circle fill="#F7A93B" cx="42.7" cy="46.4" r="2.8"/>
	<circle fill="#F7A93B" cx="55.2" cy="37.4" r="2.2"/>
	<circle fill="#F7A93B" cx="49.4" cy="41.6" r="2"/>
	<circle fill="#F7A93B" cx="57.4" cy="14.3" r="3.6"/>
	<circle fill="#F7A93B" cx="42.9" cy="25.2" r="3"/>
	<circle fill="#F7A93B" cx="45.9" cy="16.5" r="1.4"/>
	<circle fill="#F7A93B" cx="38.7" cy="31.4" r="1.4"/>
	<circle fill="#F7A93B" cx="43" cy="2.2" r="1.7"/>
	<circle fill="#F7A93B" cx="32.7" cy="9.3" r="2.6"/>
	<circle fill="#F7A93B" cx="19.9" cy="17.2" r="2.9"/>
	<circle fill="#F7A93B" cx="19.2" cy="31.8" r="3.6"/>
	<circle fill="#F7A93B" cx="21.3" cy="47.6" r="2.1"/>
	<circle fill="#F7A93B" cx="28.6" cy="27" r="2.4"/>
	<circle fill="#F7A93B" cx="24.4" cy="8.8" r="1.8"/>
	<circle fill="#F7A93B" cx="38.7" cy="4.8" r="1.6"/>
	<circle fill="#F7A93B" cx="50.8" cy="9.4" r="1.4"/>
	<circle fill="#F7A93B" cx="61.3" cy="32.3" r="1.9"/>
	<circle fill="#F7A93B" cx="12.2" cy="34.2" r="1.9"/>
	<circle fill="#F7A93B" cx="24.4" cy="39" r="1.6"/>
	<circle fill="#F7A93B" cx="19.2" cy="24.6" r="1.6"/>
	<circle fill="#F7A93B" cx="10.9" cy="23.2" r="2.1"/>
	<circle fill="#F7A93B" cx="28" cy="17.9" r="2.3"/>
	<circle fill="#F7A93B" cx="46" cy="9.3" r="2.1"/>
	<circle fill="#F7A93B" cx="31" cy="2.2" r="1.7"/>
	<circle fill="#F7A93B" cx="57.7" cy="24" r="3"/>
</g>
</svg>
