<?xml version="1.0" encoding="utf-8"?>
<!-- Generator: Adobe Illustrator 18.0.0, SVG Export Plug-In . SVG Version: 6.00 Build 0)  -->
<!DOCTYPE svg PUBLIC "-//W3C//DTD SVG 1.1//EN" "http://www.w3.org/Graphics/SVG/1.1/DTD/svg11.dtd">
<svg version="1.1" id="Layer_1" xmlns="http://www.w3.org/2000/svg" xmlns:xlink="http://www.w3.org/1999/xlink" x="0px" y="0px"
	 viewBox="0 0 72 72" enable-background="new 0 0 72 72" xml:space="preserve">
<g>
	<path fill="#0DB89A" d="M32,30.7C31.5,32,32,33.9,33.1,35c0.9,0.9,2.4,1.2,3.3,0.5c0.6-0.5,0.8-1.3,0.8-2.1c0-0.8-0.3-1.6-0.6-2.3
		c-0.6-1.5-1.5-2.9-2.6-4.2C33.9,28.4,32.6,29.3,32,30.7z"/>
	<path fill="#0DB89A" d="M41.4,26.9c-0.1,1.3,0.5,2.7,1.7,2.9c0.7,0.2,1.5-0.1,2.1-0.7c0.6-0.5,1.1-1.2,1.5-1.9
		c0.8-1.4,1.4-3,1.7-4.6c-1.3,0.8-2.8,0.3-4.2,0.7C42.7,23.9,41.5,25.3,41.4,26.9z"/>
	<path fill="#0DB89A" d="M56,17.9c0.7,0.2,1.5-0.1,2.1-0.7c0.6-0.5,1.1-1.2,1.5-1.9c0.8-1.4,1.4-3,1.7-4.6c-1.3,0.8-2.8,0.3-4.2,0.7
		c-1.4,0.4-2.6,1.9-2.7,3.5C54.2,16.3,54.8,17.7,56,17.9z"/>
	<path fill="#0DB89A" d="M56.7,30.2c-1.2-0.9-3-1.1-4.4-0.3c-1.1,0.6-1.9,1.9-1.5,3c0.3,0.7,1,1.2,1.7,1.4c0.8,0.2,1.6,0.2,2.4,0.2
		c1.6-0.1,3.3-0.5,4.8-1.2C58.2,32.6,57.8,31.1,56.7,30.2z"/>
	<path fill="#0DB89A" d="M55.8,22.8c-0.2,1.3,0.5,2.7,1.6,3c0.7,0.2,1.5-0.1,2.1-0.6c0.6-0.5,1.1-1.2,1.5-1.9c0.8-1.4,1.4-3,1.8-4.6
		c-1.3,0.8-2.8,0.2-4.2,0.6C57.2,19.8,56,21.3,55.8,22.8z"/>
	<path fill="#0DB89A" d="M43.4,12.5c0.6-0.4,1-1.1,1.1-1.9c0.1-0.8,0-1.6-0.2-2.4c-0.4-1.6-1.1-3.1-1.9-4.5
		c-0.4,1.4-1.8,2.1-2.5,3.4c-0.7,1.3-0.6,3.2,0.4,4.4C40.9,12.5,42.4,13.1,43.4,12.5z"/>
	<path fill="#0DB89A" d="M26.5,12.1c0.2,1.5,1.4,2.9,2.9,3.3c1.3,0.4,2.7,0,3.2-1.1c0.3-0.7,0.1-1.5-0.3-2.2c-0.4-0.7-1-1.3-1.6-1.8
		c-1.3-1-2.7-1.9-4.2-2.5C27.1,9.2,26.3,10.6,26.5,12.1z"/>
	<path fill="#0DB89A" d="M30.4,5.9c0.2,1.5,1.4,2.9,2.9,3.3c1.3,0.4,2.7,0,3.2-1.1c0.3-0.7,0.1-1.5-0.3-2.2c-0.4-0.7-1-1.3-1.6-1.8
		c-1.3-1-2.7-1.9-4.2-2.5C31,3.1,30.3,4.5,30.4,5.9z"/>
	<path fill="#0DB89A" d="M49.1,19.9c0.7-0.3,1.1-1,1.4-1.7c0.2-0.8,0.2-1.6,0.1-2.4c-0.2-1.6-0.6-3.2-1.3-4.7c-0.6,1.4-2.1,1.9-3,3
		c-0.9,1.2-1,3.1-0.2,4.4C46.7,19.6,48,20.4,49.1,19.9z"/>
	<path fill="#0DB89A" d="M67.4,32.8c0.6-0.5,1.1-1.2,1.5-1.9c0.8-1.4,1.4-3,1.8-4.6c-1.3,0.8-2.8,0.2-4.2,0.6
		c-1.4,0.4-2.6,1.9-2.8,3.4c-0.2,1.3,0.5,2.7,1.6,3C65.9,33.5,66.7,33.3,67.4,32.8z"/>
	<path fill="#0DB89A" d="M64,26.2c0.7,0.2,1.5-0.1,2.1-0.6c0.6-0.5,1.1-1.2,1.5-1.9c0.8-1.4,1.4-3,1.8-4.6c-1.3,0.8-2.8,0.2-4.2,0.6
		c-1.4,0.4-2.6,1.9-2.8,3.4C62.2,24.5,62.9,25.9,64,26.2z"/>
	<path fill="#0DB89A" d="M60.7,41c-0.4-1.4-1.8-2.6-3.4-2.9c-1.3-0.2-2.7,0.4-3,1.6c-0.2,0.7,0.1,1.5,0.6,2.1
		c0.5,0.6,1.2,1.1,1.9,1.5c1.4,0.8,2.9,1.5,4.5,1.8C60.5,43.9,61.1,42.4,60.7,41z"/>
	<path fill="#0DB89A" d="M70.9,38.7c-0.4-1.4-1.8-2.6-3.4-2.9c-1.3-0.2-2.7,0.4-3,1.6c-0.2,0.7,0.1,1.5,0.6,2.1
		c0.5,0.6,1.2,1.1,1.9,1.5c1.4,0.8,2.9,1.5,4.5,1.8C70.8,41.6,71.3,40.1,70.9,38.7z"/>
	<path fill="#0DB89A" d="M36,19.6c0.2,1.6,0.6,3.2,1.3,4.7c0.6-1.4,2.1-1.9,3-3c0.9-1.2,1-3.1,0.2-4.4c-0.6-1.1-2-1.9-3.1-1.4
		c-0.7,0.3-1.1,1-1.3,1.7C35.9,17.9,35.9,18.8,36,19.6z"/>
	<path fill="#0DB89A" d="M24.8,24.2c0.6,0.5,1.3,0.9,2.1,1.2c1.5,0.6,3.2,1,4.8,1c-1-1.2-0.7-2.7-1.3-4.1c-0.6-1.3-2.3-2.3-3.8-2.2
		c-1.3,0-2.6,0.9-2.7,2C23.8,22.9,24.2,23.6,24.8,24.2z"/>
	<path fill="#0DB89A" d="M19.4,8.9c1.5,0.6,3.2,1,4.8,1c-1-1.2-0.7-2.7-1.3-4.1c-0.6-1.3-2.3-2.3-3.8-2.2c-1.3,0-2.6,0.9-2.7,2
		c-0.1,0.7,0.3,1.5,0.9,2C17.9,8.2,18.6,8.6,19.4,8.9z"/>
	<path fill="#0DB89A" d="M20.9,26.5c-0.8-1.3-2.5-2.2-4-1.9c-1.4,0.2-2.6,1.4-4.1,1.2c1,1.3,2.2,2.4,3.5,3.4
		c0.7,0.5,1.4,0.9,2.2,1.1c0.8,0.2,1.6,0.1,2.2-0.4C21.6,29.2,21.5,27.6,20.9,26.5z"/>
	<path fill="#0DB89A" d="M9.7,13.5c0.4,0.7,1,1.2,1.8,1.3c1.2,0.2,2.2-0.9,2.6-2.2c0.4-1.5-0.2-3.3-1.4-4.2
		c-1.2-0.9-2.8-0.9-3.7-2.1C8.7,7.9,8.7,9.6,9,11.2C9.1,12,9.3,12.8,9.7,13.5z"/>
	<path fill="#0DB89A" d="M8.4,28.7c0.9-0.7,0.9-2.3,0.2-3.4c-0.8-1.3-2.5-2.2-4-1.9c-1.4,0.2-2.6,1.4-4.1,1.2C1.5,26,2.7,27.1,4,28
		c0.7,0.5,1.4,0.9,2.2,1.1C7,29.3,7.8,29.2,8.4,28.7z"/>
	<path fill="#0DB89A" d="M23.1,37.6c0.7,0.5,1.4,0.9,2.2,1.1c0.8,0.2,1.6,0.1,2.2-0.4c0.9-0.7,0.9-2.3,0.2-3.4
		c-0.8-1.3-2.5-2.2-4-1.9c-1.4,0.2-2.6,1.4-4.1,1.2C20.5,35.6,21.7,36.7,23.1,37.6z"/>
	<path fill="#0DB89A" d="M18.3,20.5c1.1,0.3,2.4-0.6,2.9-1.8c0.6-1.5,0.3-3.3-0.8-4.4c-1-1-2.6-1.3-3.4-2.6
		c-0.5,1.6-0.7,3.2-0.7,4.8c0,0.8,0.1,1.6,0.4,2.4C17.1,19.6,17.6,20.3,18.3,20.5z"/>
	<path fill="#0DB89A" d="M7.8,23.2c1.1,0.3,2.4-0.6,2.9-1.8c0.6-1.5,0.3-3.3-0.8-4.4c-1-1-2.6-1.3-3.4-2.6c-0.5,1.6-0.7,3.2-0.7,4.8
		c0,0.8,0.1,1.6,0.4,2.4C6.6,22.3,7.1,23,7.8,23.2z"/>
	<path fill="#0DB89A" d="M14.2,34.1c0.3-1.1-0.6-2.3-1.8-2.8C10.9,30.7,9,31,8,32.1c-1,1-1.3,2.6-2.6,3.4c1.6,0.5,3.2,0.7,4.9,0.7
		c0.8,0,1.6-0.1,2.4-0.4C13.3,35.3,14,34.8,14.2,34.1z"/>
	<path fill="#0DB89A" d="M19.9,39.6c-1.5-0.6-3.3-0.3-4.4,0.8c-1,1-1.3,2.6-2.6,3.4c1.6,0.5,3.2,0.7,4.9,0.7c0.8,0,1.6-0.1,2.4-0.4
		c0.7-0.3,1.4-0.9,1.6-1.6C22,41.3,21.1,40.1,19.9,39.6z"/>
	<path fill="#E77528" d="M62.5,30.7L62.5,30.7c-0.5,0.7-1.2,1.4-1.8,2c-0.7,0.6-1.4,1.2-2.2,1.7c-0.4,0.3-0.8,0.5-1.2,0.8L56.2,36
		c-0.4,0.2-0.8,0.4-1.2,0.7c-0.4,0.2-0.8,0.4-1.2,0.6c-0.8,0.4-1.7,0.8-2.6,1.1l-1.3,0.5c-0.4,0.2-0.9,0.3-1.3,0.5
		c-0.9,0.3-1.8,0.6-2.7,0.9l-1.3,0.4l-0.7,0.2l-0.7,0.2l-2.7,0.7l-2.8,0.6l-0.2,0.1c0.2-1,0.5-1.9,1-2.5c0,0,11.2-9.3,15.1-11.6
		c3.9-2.4-8,4.4-13.4,6.8c0,0-5.1,3.5-5.6,7.6c0,0-0.1,0-0.1,0c-0.6-1.6-4.3-10.2-10.6-14.4c0,0,5.8,5,7.7,14.3
		c-0.7-0.1-1.3-0.2-2-0.3c-0.4-0.1-0.9-0.2-1.3-0.3c-0.4-0.1-0.9-0.2-1.3-0.4c-0.4-0.2-0.9-0.3-1.3-0.5c-0.4-0.2-0.8-0.4-1.3-0.6
		c-0.4-0.2-0.8-0.4-1.2-0.7L22,39c-0.6-0.7-1.2-1.3-1.7-1.9c-0.6-0.6-1.2-1.3-1.8-1.9c-0.6-0.6-1.3-1.3-1.9-1.9
		c-0.3-0.3-0.7-0.6-1-0.9c-0.3-0.3-0.7-0.6-1.1-0.9c0,0,0,0,0,0c-0.2-0.1-0.4-0.1-0.6,0.1c-0.1,0.2-0.1,0.4,0.1,0.6l0,0
		c0.3,0.2,0.7,0.5,1,0.8c0.3,0.3,0.7,0.6,1,0.8c0.6,0.6,1.3,1.2,1.9,1.8c0.6,0.6,1.2,1.3,1.8,1.9c0.6,0.7,1.2,1.3,1.7,2l0,0
		c0,0,0,0,0.1,0.1l1.2,0.9c0.4,0.3,0.8,0.5,1.2,0.8c0.8,0.5,1.7,0.9,2.6,1.3c0.4,0.2,0.9,0.3,1.4,0.5c0.5,0.2,0.9,0.3,1.4,0.4
		c0.8,0.2,1.7,0.4,2.6,0.5c0.8,5.3,0.4,11.8-2.8,19.6c0,0-3.8,5.7,2.8,6.3c0,0,9.9,2.2,9.2-3.3c0,0-4.5-14.4-3.8-22.6l0.1,0l0.7-0.1
		l2.8-0.6l2.8-0.7l0.6-0.2c-0.3,0.2-0.4,0.5-0.5,0.9c-0.2,0.7,0.1,1.5,0.6,2.1c0.5,0.6,1.2,1.1,1.9,1.5c1.4,0.8,2.9,1.5,4.5,1.8
		c-0.7-1.3-0.2-2.8-0.6-4.2c-0.4-1.4-1.8-2.6-3.4-2.9c-0.1,0-0.1,0-0.2,0c0.9-0.3,1.7-0.6,2.6-0.9c0.4-0.2,0.9-0.3,1.3-0.5l1.3-0.6
		c0.9-0.4,1.7-0.8,2.6-1.2c0.4-0.2,0.8-0.5,1.3-0.7c0.4-0.2,0.8-0.5,1.2-0.7l1.2-0.8c0.4-0.3,0.8-0.6,1.2-0.9
		c0.8-0.6,1.5-1.2,2.2-1.9c0.7-0.7,1.3-1.4,1.9-2.3c0.1-0.2,0.1-0.4-0.1-0.6C62.9,30.5,62.6,30.5,62.5,30.7z"/>
</g>
</svg>
