<?xml version="1.0" encoding="utf-8"?>
<!-- Generator: Adobe Illustrator 18.0.0, SVG Export Plug-In . SVG Version: 6.00 Build 0)  -->
<!DOCTYPE svg PUBLIC "-//W3C//DTD SVG 1.1//EN" "http://www.w3.org/Graphics/SVG/1.1/DTD/svg11.dtd">
<svg version="1.1" id="Layer_1" xmlns="http://www.w3.org/2000/svg" xmlns:xlink="http://www.w3.org/1999/xlink" x="0px" y="0px"
	 viewBox="0 0 72 72" enable-background="new 0 0 72 72" xml:space="preserve">
<g>
	<path fill="none" d="M26,49.5c2.5,1.1,5.1,2.1,7.1,2.8l0.2-3.4c-1.5,0.5-3.2,0.7-5,0.7C27.5,49.7,26.7,49.6,26,49.5z"/>
	<path fill="#E77528" d="M34.1,48.5c-3.6,1-7.3,0.9-11,0.6c2.2,1.9,5.5,4.2,9.8,5.9L32,71.5h8.4l-0.9-12.2c7.7-3.3,12-8.5,12-8.5
		c-2.8,2.3-8.4,4.6-12.2,6l-0.6-8.6c-0.1-0.1-0.2-0.1-0.3-0.2C36.9,47.5,35.4,48.1,34.1,48.5z M33.1,52.3c-2-0.7-4.6-1.7-7.1-2.8
		c0.7,0.1,1.5,0.2,2.3,0.2c1.7,0,3.4-0.3,5-0.7L33.1,52.3z"/>
	<path fill="#E8B944" d="M40.6,47.8c9.8,0,17.8-6.8,17.8-15.3c0-0.4,0-0.8-0.1-1.1c2.7-2.7,4.3-6.5,4.3-10.6
		c0-7.3-5.2-13.4-12.1-14.8c-2.8-3.4-7-5.5-11.6-5.5c-4,0-7.7,1.6-10.4,4.2c-0.5,0-1-0.1-1.5-0.1c-9.8,0-17.8,6.8-17.8,15.3
		c0,4.5,2.3,8.6,6,11.4c-1.1,1.7-1.7,3.7-1.7,5.8c0,5.3,3.8,9.8,9.1,11.7c0.1,0.1,0.2,0.2,0.4,0.3c3.7,0.3,7.4,0.5,11-0.6
		c1.4-0.4,2.8-1,4.2-0.5c0.1,0,0.2,0.1,0.3,0.2l0-0.4C39.2,47.8,39.9,47.8,40.6,47.8z"/>
</g>
</svg>
