<?xml version="1.0" encoding="utf-8"?>
<!-- Generator: Adobe Illustrator 18.0.0, SVG Export Plug-In . SVG Version: 6.00 Build 0)  -->
<!DOCTYPE svg PUBLIC "-//W3C//DTD SVG 1.1//EN" "http://www.w3.org/Graphics/SVG/1.1/DTD/svg11.dtd">
<svg version="1.1" id="Layer_1" xmlns="http://www.w3.org/2000/svg" xmlns:xlink="http://www.w3.org/1999/xlink" x="0px" y="0px"
	 viewBox="0 0 72 72" enable-background="new 0 0 72 72" xml:space="preserve">
<g>
	<path fill="#0DB89A" d="M51.2,20c-0.8,0.3-1.7,0.1-2.5,0.5c-0.6,0.3-1,0.8-1,1.5c-0.1,0.6,0.1,1.3,0.6,1.7c0.4,0.3,0.8,0.5,1.2,0.8
		c0.4,0.3,0.7,0.7,0.8,1.2c0.9-0.2,1.8-0.5,2.6-0.7c0.2-0.1,0.4-0.1,0.5-0.2c0.2-0.2,0.2-0.5,0.2-0.8c0-0.6,0.1-1.3-0.3-1.8
		c-0.1-0.2-0.3-0.4-0.5-0.6c-0.6-0.8-0.5-2-0.3-3C52.4,19.2,51.9,19.7,51.2,20z"/>
	<path fill="#0DB89A" d="M34.2,24.2c0.2-0.2,0.2-0.5,0.2-0.8c0-0.6,0.1-1.3-0.3-1.8c-0.1-0.2-0.3-0.4-0.5-0.6c-0.6-0.8-0.5-2-0.3-3
		c-0.2,0.6-0.7,1.1-1.4,1.4c-0.8,0.3-1.7,0.1-2.5,0.5c-0.6,0.3-1,0.8-1,1.5c-0.1,0.6,0.1,1.3,0.6,1.7c0.4,0.3,0.8,0.5,1.2,0.8
		c0.4,0.3,0.7,0.7,0.8,1.2c0.9-0.2,1.8-0.5,2.6-0.7C33.8,24.4,34,24.3,34.2,24.2z"/>
	<path fill="#0DB89A" d="M34.8,6.4c0.4,0.3,0.7,0.7,0.8,1.2c0.9-0.2,1.8-0.5,2.6-0.7c0.2-0.1,0.4-0.1,0.5-0.2
		c0.2-0.2,0.2-0.5,0.2-0.8C39,5.2,39,4.5,38.7,4c-0.1-0.2-0.3-0.4-0.5-0.6c-0.6-0.8-0.5-2-0.3-3c-0.2,0.6-0.7,1.1-1.4,1.4
		C35.7,2.2,34.8,2,34,2.4c-0.6,0.3-1,0.8-1,1.5s0.1,1.3,0.6,1.7C33.9,5.9,34.4,6.1,34.8,6.4z"/>
	<path fill="#0DB89A" d="M7.7,17.1c-0.4-0.6-0.4-1.4-0.2-2.2c-0.2,0.5-0.5,0.8-1,1c-0.6,0.2-1.3,0.1-1.9,0.4
		c-0.4,0.2-0.7,0.6-0.8,1.1c-0.1,0.5,0.1,0.9,0.4,1.3c0.3,0.2,0.6,0.4,0.9,0.6c0.3,0.2,0.5,0.5,0.6,0.9c0.7-0.2,1.3-0.4,2-0.6
		c0.1,0,0.3-0.1,0.4-0.2c0.1-0.1,0.2-0.4,0.2-0.6c0-0.5,0-1-0.2-1.3C7.9,17.3,7.8,17.2,7.7,17.1z"/>
	<path fill="#0DB89A" d="M18.6,6.5c0.3,0.2,0.5,0.5,0.6,0.9c0.7-0.2,1.3-0.4,2-0.6c0.1,0,0.3-0.1,0.4-0.2c0.1-0.1,0.2-0.4,0.2-0.6
		c0-0.5,0-1-0.2-1.3c-0.1-0.2-0.2-0.3-0.3-0.4c-0.4-0.6-0.4-1.4-0.2-2.2c-0.2,0.5-0.5,0.8-1,1c-0.6,0.2-1.3,0.1-1.9,0.4
		c-0.4,0.2-0.7,0.6-0.8,1.1c-0.1,0.5,0.1,0.9,0.4,1.3C18,6.1,18.3,6.3,18.6,6.5z"/>
	<path fill="#0DB89A" d="M41.3,19.8c0.3,0.2,0.5,0.5,0.6,0.9c0.7-0.2,1.3-0.4,2-0.6c0.1,0,0.3-0.1,0.4-0.2c0.1-0.1,0.2-0.4,0.2-0.6
		c0-0.5,0-1-0.2-1.3c-0.1-0.2-0.2-0.3-0.3-0.4c-0.4-0.6-0.4-1.4-0.2-2.2c-0.2,0.5-0.5,0.8-1,1c-0.6,0.2-1.3,0.1-1.9,0.4
		c-0.4,0.2-0.7,0.6-0.8,1.1c-0.1,0.5,0.1,0.9,0.4,1.3C40.7,19.5,41,19.6,41.3,19.8z"/>
	<path fill="#0DB89A" d="M30.6,29.3c-0.6,0.2-1.3,0.1-1.9,0.4c-0.4,0.2-0.7,0.6-0.8,1.1c-0.1,0.5,0.1,0.9,0.4,1.3
		c0.3,0.2,0.6,0.4,0.9,0.6c0.3,0.2,0.5,0.5,0.6,0.9c0.7-0.2,1.3-0.4,2-0.6c0.1,0,0.3-0.1,0.4-0.2c0.1-0.1,0.2-0.4,0.2-0.6
		c0-0.5,0-1-0.2-1.3c-0.1-0.2-0.2-0.3-0.3-0.4c-0.4-0.6-0.4-1.4-0.2-2.2C31.4,28.7,31.1,29.1,30.6,29.3z"/>
	<path fill="#0DB89A" d="M26,48.2c-0.4-0.6-0.4-1.4-0.2-2.2c-0.2,0.5-0.5,0.8-1,1c-0.6,0.2-1.3,0.1-1.9,0.4
		c-0.4,0.2-0.7,0.6-0.8,1.1c-0.1,0.5,0.1,0.9,0.4,1.3c0.3,0.2,0.6,0.4,0.9,0.6c0.3,0.2,0.5,0.5,0.6,0.9c0.7-0.2,1.3-0.4,2-0.6
		c0.1,0,0.3-0.1,0.4-0.2c0.1-0.1,0.2-0.4,0.2-0.6c0-0.5,0-1-0.2-1.3C26.3,48.5,26.1,48.4,26,48.2z"/>
	<path fill="#0DB89A" d="M68,27.8c-0.1-0.2-0.2-0.3-0.3-0.4c-0.4-0.6-0.4-1.4-0.2-2.2c-0.2,0.5-0.5,0.8-1,1
		c-0.6,0.2-1.3,0.1-1.9,0.4c-0.4,0.2-0.7,0.6-0.8,1.1c-0.1,0.5,0.1,0.9,0.4,1.3c0.3,0.2,0.6,0.4,0.9,0.6c0.3,0.2,0.5,0.5,0.6,0.9
		c0.7-0.2,1.3-0.4,2-0.6c0.1,0,0.3-0.1,0.4-0.2c0.1-0.1,0.2-0.4,0.2-0.6C68.2,28.7,68.3,28.2,68,27.8z"/>
	<path fill="#0DB89A" d="M13.9,14.7c-0.1,0.5,0.1,0.9,0.4,1.3c0.3,0.2,0.6,0.4,0.9,0.6c0.3,0.2,0.5,0.5,0.6,0.9
		c0.7-0.2,1.3-0.4,2-0.6c0.1,0,0.3-0.1,0.4-0.2c0.1-0.1,0.2-0.4,0.2-0.6c0-0.5,0-1-0.2-1.3c-0.1-0.2-0.2-0.3-0.3-0.4
		c-0.4-0.6-0.4-1.4-0.2-2.2c-0.2,0.5-0.5,0.8-1,1c-0.6,0.2-1.3,0.1-1.9,0.4C14.2,13.9,13.9,14.3,13.9,14.7z"/>
	<path fill="#0DB89A" d="M23.6,26.7c-0.6,0.2-1.3,0.1-1.9,0.4c-0.4,0.2-0.7,0.6-0.8,1.1c-0.1,0.5,0.1,0.9,0.4,1.3
		c0.3,0.2,0.6,0.4,0.9,0.6c0.3,0.2,0.5,0.5,0.6,0.9c0.7-0.2,1.3-0.4,2-0.6c0.1,0,0.3-0.1,0.4-0.2c0.1-0.1,0.2-0.4,0.2-0.6
		c0-0.5,0-1-0.2-1.3c-0.1-0.2-0.2-0.3-0.3-0.4c-0.4-0.6-0.4-1.4-0.2-2.2C24.4,26.1,24,26.5,23.6,26.7z"/>
	<path fill="#0DB89A" d="M37.1,11.4c-0.6,0.2-1.3,0.1-1.9,0.4c-0.4,0.2-0.7,0.6-0.8,1.1c-0.1,0.5,0.1,0.9,0.4,1.3
		c0.3,0.2,0.6,0.4,0.9,0.6c0.3,0.2,0.5,0.5,0.6,0.9c0.7-0.2,1.3-0.4,2-0.6c0.1,0,0.3-0.1,0.4-0.2c0.1-0.1,0.2-0.4,0.2-0.6
		c0-0.5,0-1-0.2-1.3c-0.1-0.2-0.2-0.3-0.3-0.4c-0.4-0.6-0.4-1.4-0.2-2.2C37.9,10.9,37.5,11.3,37.1,11.4z"/>
	<path fill="#E77528" d="M56.8,32.8c0.3,0,0.6,0.3,0.8,0.6c0.4,0.5,1,0.8,1.7,0.9c0.7,0.1,1.4,0,2-0.4c0.6-0.4,0.9-1.2,0.6-1.9
		c-0.3-1-1.5-1.3-2.5-1.3c-1,0-2,0.3-3-0.1c0.9-0.3,1.7-0.9,2.3-1.7c0.1,0.1,0.1,0.2,0.2,0.3c0.3,0.2,0.6,0.4,0.9,0.6
		c0.3,0.2,0.5,0.5,0.6,0.9c0.7-0.2,1.3-0.4,2-0.6c0.1,0,0.3-0.1,0.4-0.2c0.1-0.1,0.2-0.4,0.2-0.6c0-0.5,0-1-0.2-1.3
		c-0.1-0.2-0.2-0.3-0.3-0.4c-0.4-0.6-0.4-1.4-0.2-2.2c-0.2,0.5-0.5,0.8-1,1c-0.4,0.2-0.9,0.1-1.4,0.2c0.1-0.6-0.1-1.3-0.6-1.6
		c-0.5-0.3-1.2,0-1.7,0.3c-0.3,0.2-0.6,0.4-0.9,0.8c-0.6,0.9-0.3,2.1-0.8,3c0,0.1-0.1,0.1-0.1,0.1c-0.2-0.8-1-1.2-1-1.2
		c0,0-0.1,0.1-0.1,0.1c-0.1-0.2-0.2-0.4-0.3-0.6c-0.3-0.6-0.7-1.3-1.3-1.7c-0.6-0.4-1.5-0.4-2,0.1c-0.5,0.5-0.6,1.3-0.3,1.9
		c0.3,0.6,0.8,1.1,1.3,1.5c0.3,0.2,0.6,0.4,1,0.6c-0.4,0.5-0.8,1-1.2,1.5c-0.4,0.1-0.7,0.3-1.1,0.5c-0.2,0.1-1.4,1.6-1.1,2.3
		c-2.4,2.4-5.5-1.6-5.5-1.6c-0.1-0.1-0.2-0.2-0.3-0.4c0.1,0,0.3,0.1,0.4,0.1c0.7,0.1,1.4,0,2-0.4c0.6-0.4,0.9-1.2,0.6-1.9
		c-0.3-1-1.5-1.3-2.5-1.3c-1,0-2,0.3-3-0.1c1.4-0.6,2.6-1.7,3.2-3.2c0.3-0.8,0.3-1.9-0.4-2.3c-0.5-0.3-1.2,0-1.7,0.3
		c-0.3,0.2-0.6,0.4-0.9,0.8c-0.6,0.9-0.3,2.1-0.8,3c-0.2,0.4-0.8,0.7-1,0.3c-0.1-0.1-0.1-0.3-0.1-0.5c0-0.5-0.2-0.9-0.4-1.4
		c-0.3-0.6-0.7-1.3-1.3-1.7c-0.6-0.4-1.5-0.4-2,0.1c-0.5,0.5-0.6,1.3-0.3,1.9c0.3,0.6,0.8,1.1,1.3,1.5c0.6,0.4,1.3,0.8,2,0.9
		c0.2,0.3-0.1,0.8-0.4,0.9c-0.3,0.2-0.7,0.1-1.1,0.2c-0.7,0-1.3,0.3-1.9,0.6c-0.2,0.2-1.5,1.8-1,2.4c0.2,0.2,0.4,0.3,0.6,0.4
		c0.7,0.3,1.4,0.3,2.1,0c0.3-0.1,0.5-0.3,0.7-0.5c0.4-0.5,0.3-1.4,0.9-1.7c0.1,0,0.2-0.1,0.3,0c0.2,0.1,0.3,0.4,0.2,0.6
		c0,1-0.3,2,0,3c0.3,1,1.3,1.8,2.2,1.5c0,0,0,0,0,0c-0.6,5.5-3.9,7.6-3.9,7.6c-2.9,2.7-3.7-1.1-3.9-3.8c0.3,0.1,0.6,0,0.9-0.1
		c0.1-0.1,0.3-0.2,0.4-0.3c0.2-0.3,0.2-0.8,0.5-1c0.1,0,0.1,0,0.2,0c0.1,0.1,0.1,0.2,0.1,0.4c0,0.6-0.1,1.2,0,1.7
		c0.2,0.5,0.7,1,1.2,0.9c0.2-0.1,0.4-0.2,0.5-0.4c0.1-0.1,0.2-0.3,0.3-0.4c0.1-0.4-0.3-0.7-0.5-1.1c-0.2-0.3-0.3-0.6-0.2-1
		c0.2,0,0.3,0.2,0.5,0.3c0.2,0.3,0.6,0.5,0.9,0.5c0.4,0.1,0.8,0,1.1-0.2c0.3-0.2,0.5-0.7,0.4-1c-0.2-0.5-0.8-0.7-1.4-0.7
		c-0.6,0-1.1,0.2-1.7,0c0.8-0.3,1.5-1,1.8-1.8c0.2-0.4,0.2-1.1-0.2-1.3c-0.3-0.2-0.7,0-0.9,0.1c-0.2,0.1-0.4,0.2-0.5,0.4
		c-0.3,0.5-0.2,1.2-0.5,1.7c-0.1,0.2-0.5,0.4-0.6,0.2c0-0.1,0-0.2,0-0.3c0-0.3-0.1-0.5-0.2-0.8c-0.2-0.4-0.4-0.7-0.7-0.9
		s-0.8-0.2-1.1,0c-0.3,0.3-0.3,0.7-0.2,1.1c0.1,0.4,0.4,0.6,0.8,0.9c0.3,0.2,0.7,0.4,1.1,0.5c0.1,0.2,0,0.4-0.2,0.5
		C35.3,38,35,38,34.8,38c-0.4,0-0.7,0.2-1.1,0.4c0,0,0,0,0,0c0-0.4,0-0.6,0-0.6c0.1-2-1.2-0.7-1.2-0.7c-1.1,3.8-5.3,3.6-5.3,3.6
		c11.6,25.6,6.5,30.9,6.5,30.9h10.3c-3.8-7.2-2.8-12.3-2.8-12.3c-0.5-6,7.2-18.2,11.4-24.4c0.1-0.1,0.3-0.2,0.4-0.3
		c0.1-0.2,0.2-0.3,0.2-0.5c0.3-0.4,0.6-0.8,0.8-1.2c0,0,0.1,0,0.1,0c0.2,0.1,0.3,0.4,0.2,0.6c0,1-0.3,2,0,3c0.3,1,1.3,1.8,2.2,1.5
		c0.4-0.1,0.7-0.4,0.9-0.7c0.2-0.2,0.4-0.5,0.4-0.7c0.1-0.7-0.6-1.3-1-1.9C56.8,34.1,56.7,33.4,56.8,32.8z M41.7,31.1
		c0.1,0,0.2,0,0.4,0.1c-0.2,0.1-0.3,0.3-0.4,0.5C41.7,31.5,41.7,31.3,41.7,31.1z"/>
	<path fill="#0DB89A" d="M46,10.2c-0.3,0.1-0.6,0.1-0.9,0.1c-0.5,0-1,0.2-1.5,0.5c-0.2,0.1-1.2,1.4-0.8,1.8c0.1,0.2,0.3,0.3,0.5,0.3
		c0.5,0.2,1.1,0.2,1.6,0c0.2-0.1,0.4-0.2,0.5-0.4c0.3-0.4,0.2-1.1,0.7-1.3c0.1,0,0.2-0.1,0.3,0c0.2,0.1,0.2,0.3,0.2,0.5
		c0,0.8-0.2,1.6,0,2.3c0.2,0.8,1,1.4,1.7,1.2c0.3-0.1,0.5-0.3,0.7-0.6c0.2-0.2,0.3-0.4,0.3-0.6c0.1-0.6-0.4-1-0.7-1.5
		c-0.3-0.4-0.3-0.9-0.3-1.4c0.3,0,0.5,0.2,0.6,0.4c0.3,0.4,0.8,0.6,1.3,0.7c0.5,0.1,1.1,0,1.5-0.3c0.4-0.3,0.7-0.9,0.5-1.4
		c-0.2-0.7-1.2-1-1.9-1c-0.8,0-1.6,0.2-2.3-0.1c1.1-0.4,2-1.3,2.4-2.5c0.2-0.6,0.3-1.5-0.3-1.8c-0.4-0.2-0.9,0-1.3,0.2
		c-0.3,0.2-0.5,0.3-0.7,0.6C47.9,7,48.1,8,47.7,8.7c-0.2,0.3-0.6,0.5-0.8,0.2c-0.1-0.1,0-0.2,0-0.4c0-0.4-0.1-0.7-0.3-1.1
		c-0.2-0.5-0.6-1-1-1.3c-0.5-0.3-1.1-0.3-1.5,0c-0.4,0.4-0.5,1-0.3,1.5c0.2,0.5,0.6,0.9,1,1.2c0.5,0.3,1,0.6,1.6,0.7
		C46.5,9.8,46.3,10.1,46,10.2z"/>
	<path fill="#0DB89A" d="M55.2,22.3c0.4,0.2,0.8,0.2,1.2,0c0.1-0.1,0.3-0.2,0.4-0.3c0.2-0.3,0.2-0.8,0.5-1c0.1,0,0.1,0,0.2,0
		c0.1,0.1,0.1,0.2,0.1,0.4c0,0.6-0.1,1.2,0,1.7c0.2,0.5,0.7,1,1.2,0.9c0.2-0.1,0.4-0.2,0.5-0.4c0.1-0.1,0.2-0.3,0.3-0.4
		c0.1-0.4-0.3-0.7-0.5-1.1c-0.2-0.3-0.3-0.6-0.2-1c0.2,0,0.3,0.2,0.5,0.3c0.2,0.3,0.6,0.5,0.9,0.5c0.4,0.1,0.8,0,1.1-0.2
		c0.3-0.2,0.5-0.7,0.4-1c-0.2-0.5-0.8-0.7-1.4-0.7c-0.6,0-1.1,0.2-1.7,0c0.8-0.3,1.5-1,1.8-1.8c0.2-0.4,0.2-1.1-0.2-1.3
		c-0.3-0.2-0.7,0-0.9,0.1c-0.2,0.1-0.4,0.2-0.5,0.4c-0.3,0.5-0.2,1.2-0.5,1.7c-0.1,0.2-0.5,0.4-0.6,0.2c0-0.1,0-0.2,0-0.3
		c0-0.3-0.1-0.5-0.2-0.8c-0.2-0.4-0.4-0.7-0.7-0.9c-0.3-0.2-0.8-0.2-1.1,0c-0.3,0.3-0.3,0.7-0.2,1.1c0.1,0.4,0.4,0.6,0.8,0.9
		c0.3,0.2,0.7,0.4,1.1,0.5c0.1,0.2,0,0.4-0.2,0.5c-0.2,0.1-0.4,0.1-0.6,0.1c-0.4,0-0.7,0.2-1.1,0.4c-0.1,0.1-0.9,1-0.6,1.3
		C55,22.2,55.1,22.3,55.2,22.3z"/>
	<path fill="#0DB89A" d="M55.1,43.4c-0.6,0-1.1,0.2-1.7,0c0.8-0.3,1.5-1,1.8-1.8c0.2-0.4,0.2-1.1-0.2-1.3c-0.3-0.2-0.7,0-0.9,0.1
		c-0.2,0.1-0.4,0.2-0.5,0.4c-0.3,0.5-0.2,1.2-0.5,1.7c-0.1,0.2-0.5,0.4-0.6,0.2c0-0.1,0-0.2,0-0.3c0-0.3-0.1-0.5-0.2-0.8
		c-0.2-0.4-0.4-0.7-0.7-0.9c-0.3-0.2-0.8-0.2-1.1,0C50,41,50,41.4,50.1,41.8c0.1,0.4,0.4,0.6,0.8,0.9c0.3,0.2,0.7,0.4,1.1,0.5
		c0.1,0.2,0,0.4-0.2,0.5c-0.2,0.1-0.4,0.1-0.6,0.1c-0.4,0-0.7,0.2-1.1,0.4c-0.1,0.1-0.9,1-0.6,1.3c0.1,0.1,0.2,0.2,0.4,0.2
		c0.4,0.2,0.8,0.2,1.2,0c0.1-0.1,0.3-0.2,0.4-0.3c0.2-0.3,0.2-0.8,0.5-1c0.1,0,0.1,0,0.2,0c0.1,0.1,0.1,0.2,0.1,0.4
		c0,0.6-0.1,1.2,0,1.7c0.2,0.5,0.7,1,1.2,0.9c0.2-0.1,0.4-0.2,0.5-0.4c0.1-0.1,0.2-0.3,0.3-0.4c0.1-0.4-0.3-0.7-0.5-1.1
		c-0.2-0.3-0.3-0.6-0.2-1c0.2,0,0.3,0.2,0.5,0.3c0.2,0.3,0.6,0.5,0.9,0.5c0.4,0.1,0.8,0,1.1-0.2c0.3-0.2,0.5-0.7,0.4-1
		C56.3,43.5,55.6,43.3,55.1,43.4z"/>
	<path fill="#0DB89A" d="M64.1,39.2c-0.6,0-1.1,0.2-1.7,0c0.8-0.3,1.5-1,1.8-1.8c0.2-0.4,0.2-1.1-0.2-1.3c-0.3-0.2-0.7,0-0.9,0.1
		c-0.2,0.1-0.4,0.2-0.5,0.4c-0.3,0.5-0.2,1.2-0.5,1.7c-0.1,0.2-0.5,0.4-0.6,0.2c0-0.1,0-0.2,0-0.3c0-0.3-0.1-0.5-0.2-0.8
		c-0.2-0.4-0.4-0.7-0.7-0.9c-0.3-0.2-0.8-0.2-1.1,0c-0.3,0.3-0.3,0.7-0.2,1.1c0.1,0.4,0.4,0.6,0.8,0.9c0.3,0.2,0.7,0.4,1.1,0.5
		c0.1,0.2,0,0.4-0.2,0.5c-0.2,0.1-0.4,0.1-0.6,0.1c-0.4,0-0.7,0.2-1.1,0.4c-0.1,0.1-0.9,1-0.6,1.3c0.1,0.1,0.2,0.2,0.4,0.2
		c0.4,0.2,0.8,0.2,1.2,0c0.1-0.1,0.3-0.2,0.4-0.3c0.2-0.3,0.2-0.8,0.5-1c0.1,0,0.1,0,0.2,0c0.1,0.1,0.1,0.2,0.1,0.4
		c0,0.6-0.1,1.2,0,1.7c0.2,0.5,0.7,1,1.2,0.9c0.2-0.1,0.4-0.2,0.5-0.4c0.1-0.1,0.2-0.3,0.3-0.4c0.1-0.4-0.3-0.7-0.5-1.1
		c-0.2-0.3-0.3-0.6-0.2-1c0.2,0,0.3,0.2,0.5,0.3c0.2,0.3,0.6,0.5,0.9,0.5c0.4,0.1,0.8,0,1.1-0.2c0.3-0.2,0.5-0.7,0.4-1
		C65.3,39.4,64.6,39.2,64.1,39.2z"/>
	<path fill="#0DB89A" d="M22.2,42c0.2,0.8,1,1.4,1.7,1.2c0.3-0.1,0.5-0.3,0.7-0.6c0.2-0.2,0.3-0.4,0.3-0.6c0.1-0.6-0.4-1-0.7-1.5
		c-0.3-0.4-0.3-0.9-0.3-1.4c0.3,0,0.5,0.2,0.6,0.4c0.3,0.4,0.8,0.6,1.3,0.7c0.5,0.1,1.1,0,1.5-0.3c0.4-0.3,0.7-0.9,0.5-1.4
		c-0.2-0.7-1.2-1-1.9-1c-0.8,0-1.6,0.2-2.3-0.1c1.1-0.4,2-1.3,2.4-2.5c0.2-0.6,0.3-1.5-0.3-1.8c-0.4-0.2-0.9,0-1.3,0.2
		c-0.3,0.2-0.5,0.3-0.7,0.6c-0.5,0.7-0.3,1.6-0.6,2.3c-0.2,0.3-0.6,0.5-0.8,0.2c-0.1-0.1,0-0.2,0-0.4c0-0.4-0.1-0.7-0.3-1.1
		c-0.2-0.5-0.6-1-1-1.3c-0.5-0.3-1.1-0.3-1.5,0c-0.4,0.4-0.5,1-0.3,1.5c0.2,0.5,0.6,0.9,1,1.2c0.5,0.3,1,0.6,1.6,0.7
		c0.1,0.2,0,0.6-0.3,0.7c-0.3,0.1-0.6,0.1-0.9,0.1c-0.5,0-1,0.2-1.5,0.5c-0.2,0.1-1.2,1.4-0.8,1.8c0.1,0.2,0.3,0.3,0.5,0.3
		c0.5,0.2,1.1,0.2,1.6,0c0.2-0.1,0.4-0.2,0.5-0.4c0.3-0.4,0.2-1.1,0.7-1.3c0.1,0,0.2-0.1,0.3,0c0.2,0.1,0.2,0.3,0.2,0.5
		C22.1,40.5,22,41.3,22.2,42z"/>
	<path fill="#0DB89A" d="M27.2,5.3c-0.3,0.1-0.6,0.1-0.9,0.1c-0.5,0-1,0.2-1.5,0.5C24.7,6,23.7,7.3,24,7.7c0.1,0.2,0.3,0.3,0.5,0.3
		c0.5,0.2,1.1,0.2,1.6,0c0.2-0.1,0.4-0.2,0.5-0.4c0.3-0.4,0.2-1.1,0.7-1.3c0.1,0,0.2-0.1,0.3,0c0.2,0.1,0.2,0.3,0.2,0.5
		c0,0.8-0.2,1.6,0,2.3s1,1.4,1.7,1.2c0.3-0.1,0.5-0.3,0.7-0.6c0.2-0.2,0.3-0.4,0.3-0.6c0.1-0.6-0.4-1-0.7-1.5
		c-0.3-0.4-0.3-0.9-0.3-1.4c0.3,0,0.5,0.2,0.6,0.4c0.3,0.4,0.8,0.6,1.3,0.7c0.5,0.1,1.1,0,1.5-0.3c0.4-0.3,0.7-0.9,0.5-1.4
		c-0.2-0.7-1.2-1-1.9-1c-0.8,0-1.6,0.2-2.3-0.1c1.1-0.4,2-1.3,2.4-2.5C32,1.7,32,0.9,31.4,0.6c-0.4-0.2-0.9,0-1.3,0.2
		c-0.3,0.2-0.5,0.3-0.7,0.6C29,2.1,29.2,3,28.8,3.7C28.7,4,28.2,4.2,28,3.9c-0.1-0.1,0-0.2,0-0.4c0-0.4-0.1-0.7-0.3-1.1
		c-0.2-0.5-0.6-1-1-1.3c-0.5-0.3-1.1-0.3-1.5,0c-0.4,0.4-0.5,1-0.3,1.5c0.2,0.5,0.6,0.9,1,1.2c0.5,0.3,1,0.6,1.6,0.7
		C27.6,4.8,27.4,5.2,27.2,5.3z"/>
	<path fill="#0DB89A" d="M10.6,13.9c0.3-0.1,0.5-0.3,0.7-0.6c0.2-0.2,0.3-0.4,0.3-0.6c0.1-0.6-0.4-1-0.7-1.5
		c-0.3-0.4-0.3-0.9-0.3-1.4c0.3,0,0.5,0.2,0.6,0.4c0.3,0.4,0.8,0.6,1.3,0.7c0.5,0.1,1.1,0,1.5-0.3c0.4-0.3,0.7-0.9,0.5-1.4
		c-0.2-0.7-1.2-1-1.9-1c-0.8,0-1.6,0.2-2.3-0.1c1.1-0.4,2-1.3,2.4-2.5c0.2-0.6,0.3-1.5-0.3-1.8c-0.4-0.2-0.9,0-1.3,0.2
		c-0.3,0.2-0.5,0.3-0.7,0.6c-0.5,0.7-0.3,1.6-0.6,2.3C9.7,7.6,9.3,7.8,9.1,7.5C9,7.4,9,7.2,9,7.1C9,6.7,8.9,6.4,8.7,6
		c-0.2-0.5-0.6-1-1-1.3c-0.5-0.3-1.1-0.3-1.5,0c-0.4,0.4-0.5,1-0.3,1.5c0.2,0.5,0.6,0.9,1,1.2c0.5,0.3,1,0.6,1.6,0.7
		c0.1,0.2,0,0.6-0.3,0.7C8,9,7.7,8.9,7.4,9c-0.5,0-1,0.2-1.5,0.5c-0.2,0.1-1.2,1.4-0.8,1.8c0.1,0.2,0.3,0.3,0.5,0.3
		c0.5,0.2,1.1,0.2,1.6,0c0.2-0.1,0.4-0.2,0.5-0.4C8,10.8,8,10.1,8.4,9.9c0.1,0,0.2-0.1,0.3,0c0.2,0.1,0.2,0.3,0.2,0.5
		c0,0.8-0.2,1.6,0,2.3S9.9,14.2,10.6,13.9z"/>
	<path fill="#0DB89A" d="M20.7,12.8c-0.4,0.4-0.5,1-0.3,1.5c0.2,0.5,0.6,0.9,1,1.2c0.5,0.3,1,0.6,1.6,0.7c0.1,0.2,0,0.6-0.3,0.7
		C22.5,17,22.2,17,21.9,17c-0.5,0-1,0.2-1.5,0.5c-0.2,0.1-1.2,1.4-0.8,1.8c0.1,0.2,0.3,0.3,0.5,0.3c0.5,0.2,1.1,0.2,1.6,0
		c0.2-0.1,0.4-0.2,0.5-0.4c0.3-0.4,0.2-1.1,0.7-1.3c0.1,0,0.2-0.1,0.3,0c0.2,0.1,0.2,0.3,0.2,0.5c0,0.8-0.2,1.6,0,2.3
		c0.2,0.8,1,1.4,1.7,1.2c0.3-0.1,0.5-0.3,0.7-0.6c0.2-0.2,0.3-0.4,0.3-0.6c0.1-0.6-0.4-1-0.7-1.5c-0.3-0.4-0.3-0.9-0.3-1.4
		c0.3,0,0.5,0.2,0.6,0.4c0.3,0.4,0.8,0.6,1.3,0.7c0.5,0.1,1.1,0,1.5-0.3c0.4-0.3,0.7-0.9,0.5-1.4c-0.2-0.7-1.2-1-1.9-1
		c-0.8,0-1.6,0.2-2.3-0.1c1.1-0.4,2-1.3,2.4-2.5c0.2-0.6,0.3-1.5-0.3-1.8c-0.4-0.2-0.9,0-1.3,0.2c-0.3,0.2-0.5,0.3-0.7,0.6
		c-0.5,0.7-0.3,1.6-0.6,2.3c-0.2,0.3-0.6,0.5-0.8,0.2c-0.1-0.1,0-0.2,0-0.4c0-0.4-0.1-0.7-0.3-1.1c-0.2-0.5-0.6-1-1-1.3
		C21.8,12.5,21.1,12.5,20.7,12.8z"/>
	<path fill="#0DB89A" d="M19.4,24.5c-0.2-0.7-1.2-1-1.9-1c-0.8,0-1.6,0.2-2.3-0.1c1.1-0.4,2-1.3,2.4-2.5c0.2-0.6,0.3-1.5-0.3-1.8
		c-0.4-0.2-0.9,0-1.3,0.2c-0.3,0.2-0.5,0.3-0.7,0.6c-0.5,0.7-0.3,1.6-0.6,2.3c-0.2,0.3-0.6,0.5-0.8,0.2c-0.1-0.1,0-0.2,0-0.4
		c0-0.4-0.1-0.7-0.3-1.1c-0.2-0.5-0.6-1-1-1.3c-0.5-0.3-1.1-0.3-1.5,0c-0.4,0.4-0.5,1-0.3,1.5c0.2,0.5,0.6,0.9,1,1.2
		c0.5,0.3,1,0.6,1.6,0.7c0.1,0.2,0,0.6-0.3,0.7S12.5,24,12.2,24c-0.5,0-1,0.2-1.5,0.5c-0.2,0.1-1.2,1.4-0.8,1.8
		c0.1,0.2,0.3,0.3,0.5,0.3c0.5,0.2,1.1,0.2,1.6,0c0.2-0.1,0.4-0.2,0.5-0.4c0.3-0.4,0.2-1.1,0.7-1.3c0.1,0,0.2-0.1,0.3,0
		c0.2,0.1,0.2,0.3,0.2,0.5c0,0.8-0.2,1.6,0,2.3s1,1.4,1.7,1.2c0.3-0.1,0.5-0.3,0.7-0.6c0.2-0.2,0.3-0.4,0.3-0.6
		c0.1-0.6-0.4-1-0.7-1.5c-0.3-0.4-0.3-0.9-0.3-1.4c0.3,0,0.5,0.2,0.6,0.4c0.3,0.4,0.8,0.6,1.3,0.7c0.5,0.1,1.1,0,1.5-0.3
		C19.4,25.6,19.6,25,19.4,24.5z"/>
</g>
</svg>
