<?xml version="1.0" encoding="utf-8"?>
<!-- Generator: Adobe Illustrator 18.0.0, SVG Export Plug-In . SVG Version: 6.00 Build 0)  -->
<!DOCTYPE svg PUBLIC "-//W3C//DTD SVG 1.1//EN" "http://www.w3.org/Graphics/SVG/1.1/DTD/svg11.dtd">
<svg version="1.1" id="Layer_1" xmlns="http://www.w3.org/2000/svg" xmlns:xlink="http://www.w3.org/1999/xlink" x="0px" y="0px"
	 viewBox="0 0 72 72" enable-background="new 0 0 72 72" xml:space="preserve">
<g>
	<path fill="#F7A93B" d="M41.4,12.9c0.5-0.4,1-0.8,1.6-1.1c1.1-0.6,2.3-1,3.4-1.6c1.2-0.7,2.3-1.7,2.9-3c0.3-0.6,0.4-1.2,0.3-1.8
		C49.4,5,49.3,4.7,49,4.6c-0.1-0.1-0.3-0.1-0.5-0.1c-0.5,0-1.1,0-1.6,0c0-0.4-0.2-0.9-0.4-1.2c-0.1-0.1-0.1-0.2-0.2-0.2
		C46.1,3,46,3,45.8,3c-0.9,0-1.7,0.4-2.3,1.1c-0.6,0.7-0.8,1.6-1.2,2.5c-0.2,0.4-0.4,0.7-0.6,1.1c-0.2,0.4-0.3,0.9-0.3,1.3
		c-0.1,0.4-0.1,0.9-0.1,1.4C41.4,11.2,41.6,12.1,41.4,12.9z"/>
	<path fill="#F7A93B" d="M28.1,53.5c-1.1,0.6-2.3,0.9-3.4,1.5c-1.3,0.6-2.4,1.6-3.1,2.9c-0.3,0.5-0.5,1.2-0.4,1.8
		c0.1,0.3,0.2,0.6,0.5,0.8c0.1,0.1,0.3,0.1,0.5,0.1c0.5,0,1.1,0,1.6,0c0,0.4,0.1,0.9,0.4,1.2c0.1,0.1,0.1,0.2,0.2,0.3
		c0.1,0.1,0.2,0.1,0.4,0.1c0.9,0.1,1.8-0.3,2.3-1c0.6-0.7,0.9-1.6,1.3-2.4c0.2-0.4,0.4-0.7,0.6-1.1c0.2-0.4,0.3-0.9,0.4-1.3
		c0.1-0.4,0.2-0.9,0.2-1.4c0-0.8-0.2-1.7,0.1-2.5C29.2,52.8,28.7,53.2,28.1,53.5z"/>
	<path fill="#F7A93B" d="M61.2,39.3c-0.1-0.3-0.2-0.6-0.5-0.7c-0.1-0.1-0.3-0.1-0.5-0.1c-0.5,0-1.1,0-1.6,0c0-0.4-0.2-0.9-0.4-1.2
		c-0.1-0.1-0.1-0.2-0.2-0.2C57.8,37,57.7,37,57.5,37c-0.9,0-1.7,0.4-2.3,1.1c-0.6,0.7-0.8,1.6-1.2,2.5c-0.2,0.4-0.4,0.7-0.6,1.1
		c-0.2,0.4-0.3,0.9-0.3,1.3c-0.1,0.4-0.1,0.9-0.1,1.4c0,0.8,0.3,1.7,0,2.5c0.5-0.4,1-0.8,1.6-1.1c1.1-0.6,2.3-1,3.4-1.6
		c1.2-0.7,2.3-1.7,2.9-3C61.2,40.5,61.3,39.9,61.2,39.3z"/>
	<path fill="#E77528" d="M56.4,50.1c-0.3-0.3-0.6-0.6-0.9-0.8c-0.4-0.3-0.8-0.5-1.2-0.7c-0.4-0.2-0.8-0.3-1.3-0.4
		c-0.8-0.2-1.7-0.2-2.4-0.6c0.3,0.6,0.5,1.2,0.7,1.8c0.2,0.7,0.3,1.4,0.4,2.1c-3.1,1.8-7.2,3.4-10.2,4.5l-0.9-11.7
		c5.7-2.9,9.9-7.3,12-10c0.1,0,0.3,0.1,0.4,0.1c1,0,1.7-0.8,1.7-1.7c0-1-0.8-1.7-1.7-1.7c-1,0-1.7,0.8-1.7,1.7
		c0,0.6,0.3,1.1,0.7,1.4c-3.6,2.8-8.5,5.3-11.7,6.7l-0.7-9.9c3.3-1.5,6.1-3.6,8.4-5.6c-0.2,0.4-0.3,0.8-0.5,1.1
		c-0.2,0.4-0.4,0.7-0.6,1.1c-0.2,0.4-0.3,0.9-0.3,1.3c-0.1,0.4-0.1,0.9-0.1,1.4c0,0.8,0.3,1.7,0,2.5c0.5-0.4,1-0.8,1.6-1.1
		c1.1-0.6,2.3-1,3.4-1.6c1.2-0.7,2.3-1.7,2.9-3c0.3-0.6,0.4-1.2,0.3-1.8c-0.1-0.3-0.2-0.6-0.5-0.7c-0.1-0.1-0.3-0.1-0.5-0.1
		c-0.5,0-1.1,0-1.6,0c0-0.4-0.2-0.9-0.4-1.2c-0.1-0.1-0.1-0.2-0.2-0.2c-0.1-0.1-0.2-0.1-0.4-0.1c-0.2,0-0.4,0-0.6,0.1
		c0.5-0.6,1-1.1,1.5-1.6c0.3,0.3,0.8,0.5,1.2,0.5c1,0,1.7-0.8,1.7-1.7c0-0.6-0.3-1.2-0.9-1.5c0.3-0.4,0.5-0.7,0.5-0.7
		c-0.2,0.2-0.4,0.4-0.6,0.6c-0.2-0.1-0.5-0.2-0.7-0.2c-1,0-1.7,0.8-1.7,1.7c0,0.2,0,0.3,0.1,0.5c-3.9,2.9-9.2,5.4-12.1,6.7L37.8,7.9
		C39.6,7.6,41,6.1,41,4.2c0-2.1-1.7-3.7-3.7-3.7c-2.1,0-3.7,1.7-3.7,3.7c0,2.1,1.7,3.7,3.7,3.7c0,0,0.1,0,0.1,0l-0.7,12.9
		c-3.5-1.2-11.8-4.1-15.5-7.2c0,0,2.4,2.9,6.8,5.8c-0.3-0.1-0.6-0.2-1-0.2c-1.5,0-2.6,1.2-2.6,2.6c0,1.5,1.2,2.6,2.6,2.6
		c1.5,0,2.6-1.2,2.6-2.6c0-0.7-0.3-1.4-0.8-1.9c2.2,1.4,4.8,2.7,7.8,3.7L35.8,36c-3.8-1.3-11.2-4.1-14.7-7c0,0,5.3,6.4,14.5,9.7
		l-0.7,12.4c-4-1.4-10.6-4-13.8-6.7c0,0,0.8,1,2.4,2.4c-0.7-0.2-1.4-0.3-2.1-0.5c-0.4-0.1-0.8-0.3-1.2-0.4C19.7,46,19.3,46,18.8,46
		c-0.5,0-0.9,0-1.4,0.1c-0.8,0.2-1.6,0.6-2.5,0.5c0.5,0.4,1,0.9,1.4,1.4c0.8,1,1.4,2.1,2.2,3c0.9,1.1,2.1,2,3.5,2.3
		c0.6,0.2,1.2,0.2,1.8,0c0.3-0.1,0.6-0.3,0.6-0.7c0-0.2,0-0.3,0-0.5c-0.1-0.5-0.2-1.1-0.3-1.6c0.4-0.1,0.8-0.3,1.1-0.6
		c0.1-0.1,0.2-0.2,0.2-0.3c0-0.1,0-0.3,0-0.4c0-0.3-0.2-0.6-0.3-0.8c2.3,1.8,5.5,4,9.6,5.5l-1,17.6h8.9l-1-12.9
		c4.5-1.9,8-4.5,10.1-6.4c0.1,0.3,0.1,0.6,0.2,0.8c0.4,1.4,1.1,2.7,2.2,3.6c0.5,0.4,1,0.7,1.6,0.7c0.3,0,0.7-0.1,0.8-0.3
		c0.1-0.1,0.1-0.3,0.2-0.4c0.1-0.5,0.3-1.1,0.4-1.6c0.4,0.1,0.9,0.1,1.3-0.1c0.1,0,0.2-0.1,0.3-0.2c0.1-0.1,0.1-0.2,0.2-0.3
		c0.2-0.8,0.1-1.8-0.5-2.5C57.9,51.1,57.1,50.7,56.4,50.1z"/>
	<path fill="#F7A93B" d="M24.8,11.9c0.3,0.3,0.6,0.6,1,0.8c0.4,0.3,0.8,0.4,1.2,0.6c0.4,0.2,0.9,0.3,1.3,0.4
		c0.8,0.2,1.7,0.1,2.4,0.5c-0.3-0.6-0.6-1.2-0.8-1.8c-0.4-1.2-0.5-2.4-0.8-3.6c-0.4-1.4-1.2-2.6-2.3-3.5c-0.5-0.4-1.1-0.7-1.7-0.7
		c-0.3,0-0.7,0.1-0.8,0.4c-0.1,0.1-0.1,0.3-0.2,0.4C24.1,5.9,24,6.5,23.9,7c-0.4-0.1-0.9,0-1.3,0.1c-0.1,0-0.2,0.1-0.3,0.2
		c-0.1,0.1-0.1,0.2-0.2,0.3c-0.2,0.8,0,1.8,0.6,2.5C23.3,10.9,24.1,11.3,24.8,11.9z"/>
	<path fill="#F7A93B" d="M15.1,28.4c0.3,0.3,0.6,0.6,1,0.8c0.4,0.3,0.8,0.4,1.2,0.6c0.4,0.2,0.9,0.3,1.3,0.4
		c0.8,0.2,1.7,0.1,2.4,0.5c-0.3-0.6-0.6-1.2-0.8-1.8c-0.4-1.2-0.5-2.4-0.8-3.6c-0.4-1.4-1.2-2.6-2.3-3.5c-0.5-0.4-1.1-0.7-1.7-0.7
		c-0.3,0-0.7,0.1-0.8,0.4c-0.1,0.1-0.1,0.3-0.2,0.4c-0.1,0.5-0.2,1.1-0.3,1.6c-0.4-0.1-0.9,0-1.3,0.1c-0.1,0-0.2,0.1-0.3,0.2
		c-0.1,0.1-0.1,0.2-0.2,0.3c-0.2,0.8,0,1.8,0.6,2.5C13.6,27.5,14.4,27.9,15.1,28.4z"/>
	<path fill="#F7A93B" d="M19,34.5c-0.1,0.1-0.1,0.3-0.2,0.4c-0.1,0.5-0.2,1.1-0.3,1.6c-0.4-0.1-0.9,0-1.3,0.1
		c-0.1,0-0.2,0.1-0.3,0.2c-0.1,0.1-0.1,0.2-0.2,0.3c-0.2,0.8,0,1.8,0.6,2.5c0.6,0.7,1.4,1.1,2.1,1.7c0.3,0.3,0.6,0.6,1,0.8
		c0.4,0.3,0.8,0.4,1.2,0.6c0.4,0.2,0.9,0.3,1.3,0.4c0.8,0.2,1.7,0.1,2.4,0.5c-0.3-0.6-0.6-1.2-0.8-1.8c-0.4-1.2-0.5-2.4-0.8-3.6
		c-0.4-1.4-1.2-2.6-2.3-3.5c-0.5-0.4-1.1-0.7-1.7-0.7C19.5,34.1,19.2,34.2,19,34.5z"/>
	<circle fill="#F7A93B" cx="59" cy="27.7" r="1.7"/>
	<circle fill="#F7A93B" cx="50.5" cy="59" r="1.7"/>
	<circle fill="#F7A93B" cx="47.5" cy="47.7" r="2"/>
	<circle fill="#F7A93B" cx="29.2" cy="43.2" r="2.5"/>
	<circle fill="#F7A93B" cx="16.7" cy="54.9" r="2.5"/>
	<circle fill="#F7A93B" cx="45.8" cy="13.6" r="1.6"/>
	<circle fill="#F7A93B" cx="12.4" cy="33.1" r="1.6"/>
	<circle fill="#F7A93B" cx="18.4" cy="13.6" r="1.6"/>
</g>
</svg>
