<?xml version="1.0" encoding="utf-8"?>
<!-- Generator: Adobe Illustrator 18.0.0, SVG Export Plug-In . SVG Version: 6.00 Build 0)  -->
<!DOCTYPE svg PUBLIC "-//W3C//DTD SVG 1.1//EN" "http://www.w3.org/Graphics/SVG/1.1/DTD/svg11.dtd">
<svg version="1.1" id="Layer_1" xmlns="http://www.w3.org/2000/svg" xmlns:xlink="http://www.w3.org/1999/xlink" x="0px" y="0px"
	 viewBox="0 0 72 72" enable-background="new 0 0 72 72" xml:space="preserve">
<g>
	<path fill="#E77528" d="M49.6,55.7c0.2-0.1,0.4-0.3,0.6-0.5c0.1-0.1,0.3-0.3,0.3-0.5c0.1-0.5-0.4-0.8-0.6-1.2
		c-0.2-0.3-0.3-0.8-0.2-1.1c0.2,0,0.4,0.2,0.5,0.4c0.3,0.3,0.7,0.5,1.1,0.6c0.4,0.1,0.9,0,1.3-0.2c0.4-0.3,0.6-0.8,0.4-1.2
		c-0.2-0.6-1-0.9-1.6-0.8c-0.7,0-1.3,0.2-1.9,0c0.9-0.4,1.7-1.1,2.1-2.1c0.2-0.5,0.2-1.2-0.3-1.5c-0.3-0.2-0.8,0-1.1,0.2
		c-0.2,0.1-0.4,0.3-0.6,0.5c-0.4,0.6-0.2,1.4-0.5,2c-0.1,0.3-0.5,0.4-0.7,0.2c-0.1-0.1,0-0.2,0-0.3c0-0.3-0.1-0.6-0.3-0.9
		c-0.2-0.4-0.5-0.8-0.9-1.1c-0.4-0.2-1-0.3-1.3,0c-0.3,0.3-0.4,0.8-0.2,1.2c0.2,0.4,0.5,0.7,0.9,1c0.4,0.3,0.8,0.5,1.3,0.6
		c0.1,0.2,0,0.5-0.3,0.6c-0.2,0.1-0.5,0.1-0.7,0.1c-0.4,0-0.9,0.2-1.2,0.4c-0.2,0.1-1,1.2-0.7,1.6c0.1,0.1,0.2,0.2,0.3,0.2
		c-2.7,1.4-5.9,2.7-8.4,3.6l-0.8-10.6c8-4.1,12.5-11.3,12.5-11.3c-3,3.3-9.2,6.4-12.8,8.1l-0.7-9c2.4-1.1,4.6-2.6,6.4-4
		c0.2,0.4,0.5,0.7,0.9,1c0.4,0.3,0.8,0.5,1.3,0.6c0.1,0.2,0,0.5-0.3,0.6c-0.2,0.1-0.5,0.1-0.7,0.1c-0.4,0-0.9,0.2-1.2,0.4
		c-0.2,0.1-1,1.2-0.7,1.6c0.1,0.1,0.3,0.2,0.4,0.3c0.4,0.2,0.9,0.2,1.4,0c0.2-0.1,0.3-0.2,0.4-0.3c0.2-0.3,0.2-0.9,0.6-1.1
		c0.1,0,0.1,0,0.2,0c0.1,0.1,0.2,0.3,0.2,0.4c0,0.7-0.2,1.3,0,2c0.2,0.6,0.8,1.2,1.4,1c0.2-0.1,0.4-0.3,0.6-0.5
		c0.1-0.1,0.3-0.3,0.3-0.5c0.1-0.5-0.4-0.8-0.6-1.2c-0.2-0.3-0.3-0.8-0.2-1.1c0.2,0,0.4,0.2,0.5,0.4c0.3,0.3,0.7,0.5,1.1,0.6
		c0.4,0.1,0.9,0,1.3-0.2c0.4-0.3,0.6-0.8,0.4-1.2c-0.2-0.6-1-0.9-1.6-0.8c-0.7,0-1.3,0.2-1.9,0c0.9-0.4,1.7-1.1,2.1-2.1
		c0.2-0.5,0.2-1.2-0.3-1.5c-0.3-0.2-0.8,0-1.1,0.2c-0.2,0.1-0.4,0.3-0.6,0.5c-0.4,0.6-0.2,1.4-0.5,2c-0.1,0.3-0.5,0.4-0.7,0.2
		c-0.1-0.1,0-0.2,0-0.3c0-0.3-0.1-0.6-0.3-0.9c-0.2-0.4-0.5-0.8-0.9-1.1c0,0,0,0,0,0c3.6-3.3,5.6-6.4,5.6-6.4
		c-3.3,3.6-10.4,7-13.7,8.5l-1.2-15.5c0.1,0,0.3-0.1,0.4-0.1c0.2-0.1,0.3-0.2,0.4-0.3c0.2-0.3,0.2-0.9,0.6-1.1c0.1,0,0.1,0,0.2,0
		c0.1,0.1,0.2,0.3,0.2,0.4c0,0.7-0.2,1.3,0,2c0.2,0.6,0.8,1.2,1.4,1c0.2-0.1,0.4-0.3,0.6-0.5c0.1-0.1,0.3-0.3,0.3-0.5
		c0.1-0.5-0.4-0.8-0.6-1.2c-0.2-0.3-0.3-0.8-0.2-1.1c0.2,0,0.4,0.2,0.5,0.4c0.3,0.3,0.7,0.5,1.1,0.6c0.4,0.1,0.9,0,1.3-0.2
		c0.4-0.3,0.6-0.8,0.4-1.2c-0.2-0.6-1-0.9-1.6-0.8c-0.7,0-1.3,0.2-1.9,0c0.9-0.4,1.7-1.1,2.1-2.1c0.2-0.5,0.2-1.2-0.3-1.5
		c-0.3-0.2-0.8,0-1.1,0.2c-0.2,0.1-0.4,0.3-0.6,0.5c-0.4,0.6-0.2,1.4-0.5,2c-0.1,0.3-0.5,0.4-0.7,0.2c-0.1-0.1,0-0.2,0-0.3
		c0-0.3-0.1-0.6-0.3-0.9c-0.2-0.4-0.5-0.8-0.9-1.1c-0.4-0.2-1-0.3-1.3,0c-0.3,0.3-0.4,0.8-0.2,1.2c0.1,0.1,0.1,0.3,0.2,0.4l-0.1,2.3
		c0,0-0.1,0-0.1,0.1c-0.2,0.1-1,1.2-0.7,1.6c0.1,0.1,0.3,0.2,0.4,0.3c0.1,0,0.2,0,0.2,0.1l-0.6,9.9c-1.3-0.4-3.5-1.2-5.8-2.1
		c0,0,0.1-0.1,0.1-0.1c0.4-0.3,0.6-0.8,0.4-1.2c-0.2-0.6-1-0.9-1.6-0.8c-0.7,0-1.3,0.2-1.9,0c0.9-0.4,1.7-1.1,2.1-2.1
		c0.2-0.5,0.2-1.2-0.3-1.5c-0.3-0.2-0.8,0-1.1,0.2c-0.2,0.1-0.4,0.3-0.6,0.5c-0.4,0.6-0.2,1.4-0.5,2c-0.1,0.3-0.5,0.4-0.7,0.2
		c-0.1-0.1,0-0.2,0-0.3c0-0.3-0.1-0.6-0.3-0.9c-0.2-0.4-0.5-0.8-0.9-1.1c-0.4-0.2-1-0.3-1.3,0c-0.3,0.3-0.4,0.8-0.2,1.2
		c0.2,0.4,0.5,0.7,0.9,1c0.4,0.3,0.8,0.5,1.3,0.6c0.1,0.1,0.1,0.2,0,0.3c-1.5-0.8-2.8-1.6-3.8-2.4c0,0,1,1.2,2.8,2.8c0,0,0,0-0.1,0
		c-0.4,0-0.9,0.2-1.2,0.4c-0.2,0.1-1,1.2-0.7,1.6c0.1,0.1,0.3,0.2,0.4,0.3c0.4,0.2,0.9,0.2,1.4,0c0.2-0.1,0.3-0.2,0.4-0.3
		c0.2-0.3,0.2-0.9,0.6-1.1c0,0,0.1,0,0.1,0c0.1,0.1,0.1,0.1,0.2,0.2c0,0.1,0,0.2,0,0.3c0,0.7-0.2,1.3,0,2c0.2,0.6,0.8,1.2,1.4,1
		c0.2-0.1,0.4-0.3,0.6-0.5c0.1-0.1,0.3-0.3,0.3-0.5c0.1-0.3-0.1-0.5-0.2-0.7c2.1,1.4,4.7,2.8,7.8,3.8l-0.6,11.2
		c-0.6-0.2-1.3-0.5-2.1-0.7c0,0,0.1,0,0.1-0.1c0.4-0.3,0.6-0.8,0.4-1.2c-0.2-0.6-1-0.9-1.6-0.8c-0.7,0-1.3,0.2-1.9,0
		c0.9-0.4,1.7-1.1,2.1-2.1c0.2-0.5,0.2-1.2-0.3-1.5c-0.3-0.2-0.8,0-1.1,0.2c-0.2,0.1-0.4,0.3-0.6,0.5c-0.4,0.6-0.2,1.4-0.5,2
		c-0.1,0.3-0.5,0.4-0.7,0.2c-0.1-0.1,0-0.2,0-0.3c0-0.3-0.1-0.6-0.3-0.9c-0.2-0.4-0.5-0.8-0.9-1.1c-0.4-0.2-1-0.3-1.3,0
		c-0.3,0.3-0.4,0.8-0.2,1.2c0.2,0.4,0.5,0.7,0.9,1c0.4,0.3,0.8,0.5,1.3,0.6c0.1,0.1,0,0.3-0.1,0.5c-2.5-1.1-5-2.4-6.5-3.7
		c0,0,1.6,2,4.6,4.2c-0.1,0-0.2,0.1-0.2,0.1c-0.2,0.1-1,1.2-0.7,1.6c0.1,0.1,0.3,0.2,0.4,0.3c0.4,0.2,0.9,0.2,1.4,0
		c0.2-0.1,0.3-0.2,0.4-0.3c0.1-0.2,0.2-0.4,0.2-0.5c0.2,0.1,0.5,0.3,0.7,0.4c0,0.5-0.1,0.9,0.1,1.4c0.2,0.6,0.8,1.2,1.4,1
		c0.2-0.1,0.4-0.3,0.6-0.5c0.1-0.1,0.3-0.3,0.3-0.5c0,0,0,0,0,0c1.2,0.6,2.5,1.2,3.9,1.7L30.9,53c-0.4-0.2-0.9-0.3-1.4-0.5
		c-0.1-0.1-0.2-0.3-0.3-0.5c-0.2-0.6-0.1-1.4-0.4-2c-0.2-0.4-0.7-0.8-1.2-0.8c-0.5-0.1-1,0.1-1.4,0.5c-0.3,0.3-0.4,0.6-0.7,0.9
		c-0.1,0.1-0.2,0.2-0.3,0.3c-2.7-1.1-5.3-2.5-7-3.9c0,0,2.4,2.9,6.7,5.6c0.1,0.2,0.1,0.5,0.2,0.7c0,0.1,0.1,0.3,0.2,0.4
		c0.2,0.2,0.4,0.2,0.6,0.2c0.4,0,0.8,0,1.1-0.1c1.1,0.6,2.3,1.2,3.6,1.7l-0.9,16h8.1l-0.9-11.7c4.2-1.8,7.3-4.1,9.3-5.9
		c0.1,0,0.3-0.1,0.4-0.1c0.2-0.1,0.3-0.2,0.4-0.3c0.1-0.2,0.2-0.4,0.2-0.5c0.2-0.2,0.4-0.4,0.6-0.6c0,0,0,0,0,0
		c0.1,0.1,0.2,0.3,0.2,0.4c0,0.7-0.2,1.3,0,2C48.3,55.4,48.9,55.9,49.6,55.7z M33.4,11.6c0.1,0.2,0.3,0.3,0.5,0.4
		c0.4,0.3,0.8,0.5,1.3,0.6c0.1,0.2,0,0.5-0.3,0.6c-0.2,0.1-0.5,0.1-0.7,0.1c-0.2,0-0.5,0.1-0.7,0.2L33.4,11.6z"/>
	<path fill="#294E58" d="M54.8,61.1c-0.7,0-1.3,0.2-1.9,0c0.9-0.4,1.7-1.1,2.1-2.1c0.2-0.5,0.2-1.2-0.3-1.5c-0.3-0.2-0.8,0-1.1,0.2
		c-0.2,0.1-0.4,0.3-0.6,0.5c-0.4,0.6-0.2,1.4-0.5,2c-0.1,0.3-0.5,0.4-0.7,0.2c-0.1-0.1,0-0.2,0-0.3c0-0.3-0.1-0.6-0.3-0.9
		c-0.2-0.4-0.5-0.8-0.9-1.1c-0.4-0.2-1-0.3-1.3,0c-0.3,0.3-0.4,0.8-0.2,1.2c0.2,0.4,0.5,0.7,0.9,1c0.4,0.3,0.8,0.5,1.3,0.6
		c0.1,0.2,0,0.5-0.3,0.6c-0.2,0.1-0.5,0.1-0.7,0.1c-0.4,0-0.9,0.2-1.2,0.4c-0.2,0.1-1,1.2-0.7,1.6c0.1,0.1,0.3,0.2,0.4,0.3
		c0.4,0.2,0.9,0.2,1.4,0c0.2-0.1,0.3-0.2,0.4-0.3c0.2-0.3,0.2-0.9,0.6-1.1c0.1,0,0.1,0,0.2,0c0.1,0.1,0.2,0.3,0.2,0.4
		c0,0.7-0.2,1.3,0,2c0.2,0.6,0.8,1.2,1.4,1c0.2-0.1,0.4-0.3,0.6-0.5c0.1-0.1,0.3-0.3,0.3-0.5c0.1-0.5-0.4-0.8-0.6-1.2
		c-0.2-0.3-0.3-0.8-0.2-1.1c0.2,0,0.4,0.2,0.5,0.4c0.3,0.3,0.7,0.5,1.1,0.6c0.4,0.1,0.9,0,1.3-0.2c0.4-0.3,0.6-0.8,0.4-1.2
		C56.2,61.3,55.5,61.1,54.8,61.1z"/>
	<path fill="#294E58" d="M53.9,42.1c0.3,0.3,0.7,0.5,1.1,0.6c0.4,0.1,0.9,0,1.3-0.2c0.4-0.3,0.6-0.8,0.4-1.2c-0.2-0.6-1-0.9-1.6-0.8
		c-0.7,0-1.3,0.2-1.9,0c0.9-0.4,1.7-1.1,2.1-2.1c0.2-0.5,0.2-1.2-0.3-1.5c-0.3-0.2-0.8,0-1.1,0.2c-0.2,0.1-0.4,0.3-0.6,0.5
		c-0.4,0.6-0.2,1.4-0.5,2c-0.1,0.3-0.5,0.4-0.7,0.2c-0.1-0.1,0-0.2,0-0.3c0-0.3-0.1-0.6-0.3-0.9c-0.2-0.4-0.5-0.8-0.9-1.1
		c-0.4-0.2-1-0.3-1.3,0c-0.3,0.3-0.4,0.8-0.2,1.2c0.2,0.4,0.5,0.7,0.9,1c0.4,0.3,0.8,0.5,1.3,0.6c0.1,0.2,0,0.5-0.3,0.6
		c-0.2,0.1-0.5,0.1-0.7,0.1c-0.4,0-0.9,0.2-1.2,0.4c-0.2,0.1-1,1.2-0.7,1.6c0.1,0.1,0.3,0.2,0.4,0.3c0.4,0.2,0.9,0.2,1.4,0
		c0.2-0.1,0.3-0.2,0.4-0.3c0.2-0.3,0.2-0.9,0.6-1.1c0.1,0,0.1,0,0.2,0c0.1,0.1,0.2,0.3,0.2,0.4c0,0.7-0.2,1.3,0,2
		c0.2,0.6,0.8,1.2,1.4,1c0.2-0.1,0.4-0.3,0.6-0.5c0.1-0.1,0.3-0.3,0.3-0.5c0.1-0.5-0.4-0.8-0.6-1.2c-0.2-0.3-0.3-0.8-0.2-1.1
		C53.6,41.7,53.8,41.9,53.9,42.1z"/>
	<path fill="#294E58" d="M70.8,52c-0.2-0.6-1-0.9-1.6-0.8c-0.7,0-1.3,0.2-1.9,0c0.9-0.4,1.7-1.1,2.1-2.1c0.2-0.5,0.2-1.2-0.3-1.5
		c-0.3-0.2-0.8,0-1.1,0.2c-0.2,0.1-0.4,0.3-0.6,0.5c-0.4,0.6-0.2,1.4-0.5,2c-0.1,0.3-0.5,0.4-0.7,0.2c-0.1-0.1,0-0.2,0-0.3
		c0-0.3-0.1-0.6-0.3-0.9c-0.2-0.4-0.5-0.8-0.9-1.1c-0.4-0.2-1-0.3-1.3,0c-0.3,0.3-0.4,0.8-0.2,1.2c0.2,0.4,0.5,0.7,0.9,1
		c0.4,0.3,0.8,0.5,1.3,0.6c0.1,0.2,0,0.5-0.3,0.6c-0.2,0.1-0.5,0.1-0.7,0.1c-0.4,0-0.9,0.2-1.2,0.4c-0.2,0.1-1,1.2-0.7,1.6
		c0.1,0.1,0.3,0.2,0.4,0.3c0.4,0.2,0.9,0.2,1.4,0c0.2-0.1,0.3-0.2,0.4-0.3c0.2-0.3,0.2-0.9,0.6-1.1c0.1,0,0.1,0,0.2,0
		c0.1,0.1,0.2,0.3,0.2,0.4c0,0.7-0.2,1.3,0,2c0.2,0.6,0.8,1.2,1.4,1c0.2-0.1,0.4-0.3,0.6-0.5c0.1-0.1,0.3-0.3,0.3-0.5
		c0.1-0.5-0.4-0.8-0.6-1.2c-0.2-0.3-0.3-0.8-0.2-1.1c0.2,0,0.4,0.2,0.5,0.4c0.3,0.3,0.7,0.5,1.1,0.6c0.4,0.1,0.9,0,1.3-0.2
		C70.7,53,70.9,52.5,70.8,52z"/>
	<path fill="#294E58" d="M63.1,43.7c0.2-0.3,0.2-0.9,0.6-1.1c0.1,0,0.1,0,0.2,0C64,42.7,64,42.9,64,43c0,0.7-0.2,1.3,0,2
		c0.2,0.6,0.8,1.2,1.4,1c0.2-0.1,0.4-0.3,0.6-0.5c0.1-0.1,0.3-0.3,0.3-0.5c0.1-0.5-0.4-0.8-0.6-1.2c-0.2-0.3-0.3-0.8-0.2-1.1
		c0.2,0,0.4,0.2,0.5,0.4c0.3,0.3,0.7,0.5,1.1,0.6c0.4,0.1,0.9,0,1.3-0.2c0.4-0.3,0.6-0.8,0.4-1.2c-0.2-0.6-1-0.9-1.6-0.8
		c-0.7,0-1.3,0.2-1.9,0c0.9-0.4,1.7-1.1,2.1-2.1c0.2-0.5,0.2-1.2-0.3-1.5c-0.3-0.2-0.8,0-1.1,0.2c-0.2,0.1-0.4,0.3-0.6,0.5
		c-0.4,0.6-0.2,1.4-0.5,2c-0.1,0.3-0.5,0.4-0.7,0.2c-0.1-0.1,0-0.2,0-0.3c0-0.3-0.1-0.6-0.3-0.9c-0.2-0.4-0.5-0.8-0.9-1.1
		c-0.4-0.2-1-0.3-1.3,0c-0.3,0.3-0.4,0.8-0.2,1.2c0.2,0.4,0.5,0.7,0.9,1c0.4,0.3,0.8,0.5,1.3,0.6c0.1,0.2,0,0.5-0.3,0.6
		c-0.2,0.1-0.5,0.1-0.7,0.1c-0.4,0-0.9,0.2-1.2,0.4c-0.2,0.1-1,1.2-0.7,1.6c0.1,0.1,0.3,0.2,0.4,0.3c0.4,0.2,0.9,0.2,1.4,0
		C62.8,44,63,43.9,63.1,43.7z"/>
	<path fill="#294E58" d="M61.3,24c-0.2,0.1-0.5,0.1-0.7,0.1c-0.4,0-0.9,0.2-1.2,0.4c-0.2,0.1-1,1.2-0.7,1.6c0.1,0.1,0.3,0.2,0.4,0.3
		c0.4,0.2,0.9,0.2,1.4,0c0.2-0.1,0.3-0.2,0.4-0.3c0.2-0.3,0.2-0.9,0.6-1.1c0.1,0,0.1,0,0.2,0c0.1,0.1,0.2,0.3,0.2,0.4
		c0,0.7-0.2,1.3,0,2c0.2,0.6,0.8,1.2,1.4,1c0.2-0.1,0.4-0.3,0.6-0.5c0.1-0.1,0.3-0.3,0.3-0.5c0.1-0.5-0.4-0.8-0.6-1.2
		c-0.2-0.3-0.3-0.8-0.2-1.1c0.2,0,0.4,0.2,0.5,0.4c0.3,0.3,0.7,0.5,1.1,0.6c0.4,0.1,0.9,0,1.3-0.2c0.4-0.3,0.6-0.8,0.4-1.2
		c-0.2-0.6-1-0.9-1.6-0.8c-0.7,0-1.3,0.2-1.9,0c0.9-0.4,1.7-1.1,2.1-2.1c0.2-0.5,0.2-1.2-0.3-1.5c-0.3-0.2-0.8,0-1.1,0.2
		c-0.2,0.1-0.4,0.3-0.6,0.5c-0.4,0.6-0.2,1.4-0.5,2c-0.1,0.3-0.5,0.4-0.7,0.2c-0.1-0.1,0-0.2,0-0.3c0-0.3-0.1-0.6-0.3-0.9
		c-0.2-0.4-0.5-0.8-0.9-1.1c-0.4-0.2-1-0.3-1.3,0c-0.3,0.3-0.4,0.8-0.2,1.2s0.5,0.7,0.9,1c0.4,0.3,0.8,0.5,1.3,0.6
		C61.7,23.6,61.5,23.9,61.3,24z"/>
	<path fill="#294E58" d="M56.7,32.5c0.2,0.4,0.5,0.7,0.9,1c0.4,0.3,0.8,0.5,1.3,0.6c0.1,0.2,0,0.5-0.3,0.6c-0.2,0.1-0.5,0.1-0.7,0.1
		c-0.4,0-0.9,0.2-1.2,0.4c-0.2,0.1-1,1.2-0.7,1.6c0.1,0.1,0.3,0.2,0.4,0.3c0.4,0.2,0.9,0.2,1.4,0c0.2-0.1,0.3-0.2,0.4-0.3
		c0.2-0.3,0.2-0.9,0.6-1.1c0.1,0,0.1,0,0.2,0c0.1,0.1,0.2,0.3,0.2,0.4c0,0.7-0.2,1.3,0,2c0.2,0.6,0.8,1.2,1.4,1
		c0.2-0.1,0.4-0.3,0.6-0.5c0.1-0.1,0.3-0.3,0.3-0.5c0.1-0.5-0.4-0.8-0.6-1.2c-0.2-0.3-0.3-0.8-0.2-1.1c0.2,0,0.4,0.2,0.5,0.4
		c0.3,0.3,0.7,0.5,1.1,0.6c0.4,0.1,0.9,0,1.3-0.2c0.4-0.3,0.6-0.8,0.4-1.2c-0.2-0.6-1-0.9-1.6-0.8c-0.7,0-1.3,0.2-1.9,0
		c0.9-0.4,1.7-1.1,2.1-2.1c0.2-0.5,0.2-1.2-0.3-1.5c-0.3-0.2-0.8,0-1.1,0.2c-0.2,0.1-0.4,0.3-0.6,0.5c-0.4,0.6-0.2,1.4-0.5,2
		c-0.1,0.3-0.5,0.4-0.7,0.2c-0.1-0.1,0-0.2,0-0.3c0-0.3-0.1-0.6-0.3-0.9c-0.2-0.4-0.5-0.8-0.9-1.1c-0.4-0.2-1-0.3-1.3,0
		C56.6,31.5,56.6,32.1,56.7,32.5z"/>
	<path fill="#294E58" d="M7.6,31.8c-0.7,0-1.3,0.2-1.9,0c0.9-0.4,1.7-1.1,2.1-2.1C8,29.2,8,28.5,7.5,28.2c-0.3-0.2-0.8,0-1.1,0.2
		c-0.2,0.1-0.4,0.3-0.6,0.5c-0.4,0.6-0.2,1.4-0.5,2c-0.1,0.3-0.5,0.4-0.7,0.2c-0.1-0.1,0-0.2,0-0.3c0-0.3-0.1-0.6-0.3-0.9
		c-0.2-0.4-0.5-0.8-0.9-1.1c-0.4-0.2-1-0.3-1.3,0c-0.3,0.3-0.4,0.8-0.2,1.2s0.5,0.7,0.9,1c0.4,0.3,0.8,0.5,1.3,0.6
		c0.1,0.2,0,0.5-0.3,0.6c-0.2,0.1-0.5,0.1-0.7,0.1c-0.4,0-0.9,0.2-1.2,0.4c-0.2,0.1-1,1.2-0.7,1.6c0.1,0.1,0.3,0.2,0.4,0.3
		c0.4,0.2,0.9,0.2,1.4,0c0.2-0.1,0.3-0.2,0.4-0.3c0.2-0.3,0.2-0.9,0.6-1.1c0.1,0,0.1,0,0.2,0c0.1,0.1,0.2,0.3,0.2,0.4
		c0,0.7-0.2,1.3,0,2c0.2,0.6,0.8,1.2,1.4,1c0.2-0.1,0.4-0.3,0.6-0.5c0.1-0.1,0.3-0.3,0.3-0.5c0.1-0.5-0.4-0.8-0.6-1.2
		C6,34,5.9,33.5,5.9,33.1c0.2,0,0.4,0.2,0.5,0.4c0.3,0.3,0.7,0.5,1.1,0.6c0.4,0.1,0.9,0,1.3-0.2c0.4-0.3,0.6-0.8,0.4-1.2
		C9.1,32,8.3,31.8,7.6,31.8z"/>
	<path fill="#294E58" d="M13.5,11.8c-0.2,0.1-0.5,0.1-0.7,0.1c-0.4,0-0.9,0.2-1.2,0.4c-0.2,0.1-1,1.2-0.7,1.6
		c0.1,0.1,0.3,0.2,0.4,0.3c0.4,0.2,0.9,0.2,1.4,0c0.2-0.1,0.3-0.2,0.4-0.3c0.2-0.3,0.2-0.9,0.6-1.1c0.1,0,0.1,0,0.2,0
		C14,12.8,14,13,14,13.2c0,0.7-0.2,1.3,0,2c0.2,0.6,0.8,1.2,1.4,1c0.2-0.1,0.4-0.3,0.6-0.5c0.1-0.1,0.3-0.3,0.3-0.5
		c0.1-0.5-0.4-0.8-0.6-1.2c-0.2-0.3-0.3-0.8-0.2-1.1c0.2,0,0.4,0.2,0.5,0.4c0.3,0.3,0.7,0.5,1.1,0.6c0.4,0.1,0.9,0,1.3-0.2
		c0.4-0.3,0.6-0.8,0.4-1.2c-0.2-0.6-1-0.9-1.6-0.8c-0.7,0-1.3,0.2-1.9,0c0.9-0.4,1.7-1.1,2.1-2.1c0.2-0.5,0.2-1.2-0.3-1.5
		c-0.3-0.2-0.8,0-1.1,0.2c-0.2,0.1-0.4,0.3-0.6,0.5c-0.4,0.6-0.2,1.4-0.5,2c-0.1,0.3-0.5,0.4-0.7,0.2c-0.1-0.1,0-0.2,0-0.3
		c0-0.3-0.1-0.6-0.3-0.9c-0.2-0.4-0.5-0.8-0.9-1.1c-0.4-0.2-1-0.3-1.3,0c-0.3,0.3-0.4,0.8-0.2,1.2c0.2,0.4,0.5,0.7,0.9,1
		c0.4,0.3,0.8,0.5,1.3,0.6C13.9,11.4,13.7,11.7,13.5,11.8z"/>
	<path fill="#294E58" d="M6.3,20.6c-0.2,0.1-0.5,0.1-0.7,0.1c-0.4,0-0.9,0.2-1.2,0.4c-0.2,0.1-1,1.2-0.7,1.6
		c0.1,0.1,0.3,0.2,0.4,0.3c0.4,0.2,0.9,0.2,1.4,0c0.2-0.1,0.3-0.2,0.4-0.3c0.2-0.3,0.2-0.9,0.6-1.1c0.1,0,0.1,0,0.2,0
		c0.1,0.1,0.2,0.3,0.2,0.4c0,0.7-0.2,1.3,0,2c0.2,0.6,0.8,1.2,1.4,1c0.2-0.1,0.4-0.3,0.6-0.5c0.1-0.1,0.3-0.3,0.3-0.5
		c0.1-0.5-0.4-0.8-0.6-1.2c-0.2-0.3-0.3-0.8-0.2-1.1c0.2,0,0.4,0.2,0.5,0.4c0.3,0.3,0.7,0.5,1.1,0.6c0.4,0.1,0.9,0,1.3-0.2
		c0.4-0.3,0.6-0.8,0.4-1.2c-0.2-0.6-1-0.9-1.6-0.8c-0.7,0-1.3,0.2-1.9,0c0.9-0.4,1.7-1.1,2.1-2.1c0.2-0.5,0.2-1.2-0.3-1.5
		c-0.3-0.2-0.8,0-1.1,0.2c-0.2,0.1-0.4,0.3-0.6,0.5c-0.4,0.6-0.2,1.4-0.5,2c-0.1,0.3-0.5,0.4-0.7,0.2c-0.1-0.1,0-0.2,0-0.3
		c0-0.3-0.1-0.6-0.3-0.9c-0.2-0.4-0.5-0.8-0.9-1.1c-0.4-0.2-1-0.3-1.3,0c-0.3,0.3-0.4,0.8-0.2,1.2c0.2,0.4,0.5,0.7,0.9,1
		C5.6,19.7,6,20,6.5,20C6.6,20.2,6.5,20.5,6.3,20.6z"/>
	<path fill="#294E58" d="M28.1,60.3c-0.7,0-1.3,0.2-1.9,0c0.9-0.4,1.7-1.1,2.1-2.1c0.2-0.5,0.2-1.2-0.3-1.5c-0.3-0.2-0.8,0-1.1,0.2
		c-0.2,0.1-0.4,0.3-0.6,0.5c-0.4,0.6-0.2,1.4-0.5,2c-0.1,0.3-0.5,0.4-0.7,0.2c-0.1-0.1,0-0.2,0-0.3c0-0.3-0.1-0.6-0.3-0.9
		c-0.2-0.4-0.5-0.8-0.9-1.1c-0.4-0.2-1-0.3-1.3,0c-0.3,0.3-0.4,0.8-0.2,1.2c0.2,0.4,0.5,0.7,0.9,1c0.4,0.3,0.8,0.5,1.3,0.6
		c0.1,0.2,0,0.5-0.3,0.6c-0.2,0.1-0.5,0.1-0.7,0.1c-0.4,0-0.9,0.2-1.2,0.4c-0.2,0.1-1,1.2-0.7,1.6c0.1,0.1,0.3,0.2,0.4,0.3
		c0.4,0.2,0.9,0.2,1.4,0c0.2-0.1,0.3-0.2,0.4-0.3c0.2-0.3,0.2-0.9,0.6-1.1c0.1,0,0.1,0,0.2,0c0.1,0.1,0.2,0.3,0.2,0.4
		c0,0.7-0.2,1.3,0,2c0.2,0.6,0.8,1.2,1.4,1c0.2-0.1,0.4-0.3,0.6-0.5c0.1-0.1,0.3-0.3,0.3-0.5c0.1-0.5-0.4-0.8-0.6-1.2
		c-0.2-0.3-0.3-0.8-0.2-1.1c0.2,0,0.4,0.2,0.5,0.4c0.3,0.3,0.7,0.5,1.1,0.6c0.4,0.1,0.9,0,1.3-0.2c0.4-0.3,0.6-0.8,0.4-1.2
		C29.6,60.5,28.8,60.2,28.1,60.3z"/>
	<path fill="#294E58" d="M12.6,43.3c0,0.7-0.2,1.3,0,2c0.2,0.6,0.8,1.2,1.4,1c0.2-0.1,0.4-0.3,0.6-0.5c0.1-0.1,0.3-0.3,0.3-0.5
		c0.1-0.5-0.4-0.8-0.6-1.2c-0.2-0.3-0.3-0.8-0.2-1.1c0.2,0,0.4,0.2,0.5,0.4c0.3,0.3,0.7,0.5,1.1,0.6c0.4,0.1,0.9,0,1.3-0.2
		c0.4-0.3,0.6-0.8,0.4-1.2c-0.2-0.6-1-0.9-1.6-0.8c-0.7,0-1.3,0.2-1.9,0c0.9-0.4,1.7-1.1,2.1-2.1c0.2-0.5,0.2-1.2-0.3-1.5
		c-0.3-0.1-0.6-0.1-0.8,0c0-0.1,0-0.2,0.1-0.4c0-0.5,0-1-0.2-1.4c-0.1-0.2-0.2-0.3-0.4-0.5c-0.5-0.6-0.4-1.6-0.3-2.4
		c-0.2,0.5-0.6,0.9-1.1,1.1c-0.6,0.2-1.4,0.1-2,0.4c-0.4,0.2-0.8,0.7-0.8,1.2c-0.1,0.5,0.1,1,0.5,1.4c0.3,0.3,0.6,0.4,0.9,0.7
		c0.3,0.2,0.5,0.6,0.6,1c0.6-0.2,1.3-0.4,1.9-0.6c0,0-0.1,0.1-0.1,0.2c-0.4,0.6-0.2,1.4-0.5,2c-0.1,0.3-0.5,0.4-0.7,0.2
		c-0.1-0.1,0-0.2,0-0.3c0-0.3-0.1-0.6-0.3-0.9c-0.2-0.4-0.5-0.8-0.9-1.1c-0.4-0.2-1-0.3-1.3,0c-0.3,0.3-0.4,0.8-0.2,1.2
		c0.2,0.4,0.5,0.7,0.9,1c0.4,0.3,0.8,0.5,1.3,0.6c0.1,0.2,0,0.5-0.3,0.6c-0.2,0.1-0.5,0.1-0.7,0.1c-0.4,0-0.9,0.2-1.2,0.4
		c-0.2,0.1-1,1.2-0.7,1.6c0.1,0.1,0.3,0.2,0.4,0.3c0.4,0.2,0.9,0.2,1.4,0c0.2-0.1,0.3-0.2,0.4-0.3c0.2-0.3,0.2-0.9,0.6-1.1
		c0.1,0,0.1,0,0.2,0C12.6,43,12.6,43.2,12.6,43.3z"/>
	<path fill="#294E58" d="M18.9,53.8c-0.7,0-1.3,0.2-1.9,0c0.9-0.4,1.7-1.1,2.1-2.1c0.2-0.5,0.2-1.2-0.3-1.5c-0.3-0.2-0.8,0-1.1,0.2
		c-0.2,0.1-0.4,0.3-0.6,0.5c-0.4,0.6-0.2,1.4-0.5,2c-0.1,0.3-0.5,0.4-0.7,0.2c-0.1-0.1,0-0.2,0-0.3c0-0.3-0.1-0.6-0.3-0.9
		c-0.2-0.4-0.5-0.8-0.9-1.1c-0.4-0.2-1-0.3-1.3,0c-0.3,0.3-0.4,0.8-0.2,1.2c0.2,0.4,0.5,0.7,0.9,1c0.4,0.3,0.8,0.5,1.3,0.6
		c0.1,0.2,0,0.5-0.3,0.6c-0.2,0.1-0.5,0.1-0.7,0.1c-0.4,0-0.9,0.2-1.2,0.4c-0.2,0.1-1,1.2-0.7,1.6c0.1,0.1,0.3,0.2,0.4,0.3
		c0.4,0.2,0.9,0.2,1.4,0c0.2-0.1,0.3-0.2,0.4-0.3c0.2-0.3,0.2-0.9,0.6-1.1c0.1,0,0.1,0,0.2,0c0.1,0.1,0.2,0.3,0.2,0.4
		c0,0.7-0.2,1.3,0,2c0.2,0.6,0.8,1.2,1.4,1c0.2-0.1,0.4-0.3,0.6-0.5c0.1-0.1,0.3-0.3,0.3-0.5c0.1-0.5-0.4-0.8-0.6-1.2
		c-0.2-0.3-0.3-0.8-0.2-1.1c0.2,0,0.4,0.2,0.5,0.4c0.3,0.3,0.7,0.5,1.1,0.6c0.4,0.1,0.9,0,1.3-0.2c0.4-0.3,0.6-0.8,0.4-1.2
		C20.4,54,19.6,53.8,18.9,53.8z"/>
	<path fill="#294E58" d="M49.1,19.4c-0.2,0.1-0.5,0.1-0.7,0.1c-0.4,0-0.9,0.2-1.2,0.4c-0.2,0.1-1,1.2-0.7,1.6
		c0.1,0.1,0.3,0.2,0.4,0.3c0.4,0.2,0.9,0.2,1.4,0c0.2-0.1,0.3-0.2,0.4-0.3c0.2-0.3,0.2-0.9,0.6-1.1c0.1,0,0.1,0,0.2,0
		c0.1,0.1,0.2,0.3,0.2,0.4c0,0.7-0.2,1.3,0,2c0.2,0.6,0.8,1.2,1.4,1c0.2-0.1,0.4-0.3,0.6-0.5c0.1-0.1,0.3-0.3,0.3-0.5
		c0.1-0.5-0.4-0.8-0.6-1.2c-0.2-0.3-0.3-0.8-0.2-1.1c0.2,0,0.4,0.2,0.5,0.4c0.3,0.3,0.7,0.5,1.1,0.6c0.4,0.1,0.9,0,1.3-0.2
		c0.4-0.3,0.6-0.8,0.4-1.2c-0.2-0.6-1-0.9-1.6-0.8c-0.7,0-1.3,0.2-1.9,0c0.9-0.4,1.7-1.1,2.1-2.1c0.2-0.5,0.2-1.2-0.3-1.5
		c-0.3-0.2-0.8,0-1.1,0.2c-0.2,0.1-0.4,0.3-0.6,0.5c-0.4,0.6-0.2,1.4-0.5,2c-0.1,0.3-0.5,0.4-0.7,0.2c-0.1-0.1,0-0.2,0-0.3
		c0-0.3-0.1-0.6-0.3-0.9c-0.2-0.4-0.5-0.8-0.9-1.1c-0.4-0.2-1-0.3-1.3,0c-0.3,0.3-0.4,0.8-0.2,1.2c0.2,0.4,0.5,0.7,0.9,1
		c0.4,0.3,0.8,0.5,1.3,0.6C49.5,19,49.3,19.3,49.1,19.4z"/>
	<path fill="#294E58" d="M27.6,4.5c-0.2,0.1-0.5,0.1-0.7,0.1c-0.4,0-0.9,0.2-1.2,0.4c-0.2,0.1-1,1.2-0.7,1.6
		c0.1,0.1,0.3,0.2,0.4,0.3c0.4,0.2,0.9,0.2,1.4,0c0.2-0.1,0.3-0.2,0.4-0.3c0.2-0.3,0.2-0.9,0.6-1.1c0.1,0,0.1,0,0.2,0
		c0.1,0.1,0.2,0.3,0.2,0.4c0,0.7-0.2,1.3,0,2c0.2,0.6,0.8,1.2,1.4,1c0.2-0.1,0.4-0.3,0.6-0.5c0.1-0.1,0.3-0.3,0.3-0.5
		c0.1-0.5-0.4-0.8-0.6-1.2c-0.2-0.3-0.3-0.8-0.2-1.1c0.2,0,0.4,0.2,0.5,0.4c0.3,0.3,0.7,0.5,1.1,0.6c0.4,0.1,0.9,0,1.3-0.2
		S33.1,5.5,33,5c-0.2-0.6-1-0.9-1.6-0.8c-0.7,0-1.3,0.2-1.9,0c0.9-0.4,1.7-1.1,2.1-2.1c0.2-0.5,0.2-1.2-0.3-1.5
		c-0.3-0.2-0.8,0-1.1,0.2c-0.2,0.1-0.4,0.3-0.6,0.5c-0.4,0.6-0.2,1.4-0.5,2c-0.1,0.3-0.5,0.4-0.7,0.2c-0.1-0.1,0-0.2,0-0.3
		c0-0.3-0.1-0.6-0.3-0.9c-0.2-0.4-0.5-0.8-0.9-1.1c-0.4-0.2-1-0.3-1.3,0c-0.3,0.3-0.4,0.8-0.2,1.2c0.2,0.4,0.5,0.7,0.9,1
		c0.4,0.3,0.8,0.5,1.3,0.6C28,4.1,27.8,4.4,27.6,4.5z"/>
	<path fill="#294E58" d="M10.8,29.4c0.3,0.2,0.5,0.6,0.6,1c0.7-0.2,1.4-0.4,2.1-0.6c0.1,0,0.3-0.1,0.4-0.2c0.2-0.2,0.2-0.4,0.2-0.6
		c0-0.5,0-1-0.2-1.4c-0.1-0.2-0.2-0.3-0.4-0.5c-0.5-0.6-0.4-1.6-0.3-2.4c-0.2,0.5-0.6,0.9-1.1,1.1c-0.6,0.2-1.4,0.1-2,0.4
		c-0.4,0.2-0.8,0.7-0.8,1.2c-0.1,0.5,0.1,1,0.5,1.4C10.1,29,10.5,29.2,10.8,29.4z"/>
	<path fill="#294E58" d="M21.2,27.4c-0.6,0.2-1.4,0.1-2,0.4c-0.4,0.2-0.8,0.7-0.8,1.2c-0.1,0.5,0.1,1,0.5,1.4
		c0.3,0.3,0.6,0.4,0.9,0.7c0.3,0.2,0.5,0.6,0.6,1c0.7-0.2,1.4-0.4,2.1-0.6c0.1,0,0.3-0.1,0.4-0.2c0.2-0.2,0.2-0.4,0.2-0.6
		c0-0.5,0-1-0.2-1.4c-0.1-0.2-0.2-0.3-0.4-0.5c-0.5-0.6-0.4-1.6-0.3-2.4C22.1,26.8,21.7,27.2,21.2,27.4z"/>
	<path fill="#294E58" d="M52.2,26.2c-0.1,0.5,0.1,1,0.5,1.4c0.3,0.3,0.6,0.4,0.9,0.7c0.3,0.2,0.5,0.6,0.6,1c0.7-0.2,1.4-0.4,2.1-0.6
		c0.1,0,0.3-0.1,0.4-0.2c0.2-0.2,0.2-0.4,0.2-0.6c0-0.5,0-1-0.2-1.4c-0.1-0.2-0.2-0.3-0.4-0.5c-0.5-0.6-0.4-1.5-0.3-2.4
		c-0.2,0.5-0.6,0.9-1.1,1.1c-0.6,0.2-1.4,0.1-2,0.4C52.6,25.2,52.2,25.7,52.2,26.2z"/>
	<path fill="#294E58" d="M42.6,60.3c-0.5-0.6-0.4-1.5-0.3-2.4c-0.2,0.5-0.6,0.9-1.1,1.1c-0.6,0.2-1.4,0.1-2,0.4
		c-0.4,0.2-0.8,0.7-0.8,1.2c-0.1,0.5,0.1,1,0.5,1.4c0.3,0.3,0.6,0.4,0.9,0.7c0.3,0.2,0.5,0.6,0.6,1c0.7-0.2,1.4-0.4,2.1-0.6
		c0.1,0,0.3-0.1,0.4-0.2c0.2-0.2,0.2-0.4,0.2-0.6c0-0.5,0-1-0.2-1.4C42.9,60.6,42.7,60.4,42.6,60.3z"/>
	<path fill="#294E58" d="M60.2,48.7c-0.5-0.6-0.4-1.5-0.3-2.4c-0.2,0.5-0.6,0.9-1.1,1.1c-0.6,0.2-1.4,0.1-2,0.4
		c-0.4,0.2-0.8,0.7-0.8,1.2c-0.1,0.5,0.1,1,0.5,1.4c0.3,0.3,0.6,0.4,0.9,0.7c0.3,0.2,0.5,0.6,0.6,1c0.7-0.2,1.4-0.4,2.1-0.6
		c0.1,0,0.3-0.1,0.4-0.2c0.2-0.2,0.2-0.4,0.2-0.6c0-0.5,0-1-0.2-1.4C60.4,49,60.3,48.9,60.2,48.7z"/>
	<path fill="#294E58" d="M37.8,23.8c-0.6,0.2-1.4,0.1-2,0.4c-0.4,0.2-0.8,0.7-0.8,1.2c-0.1,0.5,0.1,1,0.5,1.4
		c0.3,0.3,0.6,0.4,0.9,0.7c0.3,0.2,0.5,0.6,0.6,1c0.7-0.2,1.4-0.4,2.1-0.6c0.1,0,0.3-0.1,0.4-0.2c0.2-0.2,0.2-0.4,0.2-0.6
		c0-0.5,0-1-0.2-1.4c-0.1-0.2-0.2-0.3-0.4-0.5c-0.5-0.6-0.4-1.5-0.3-2.4C38.7,23.2,38.3,23.6,37.8,23.8z"/>
	<path fill="#294E58" d="M60.2,56.9c-0.5-0.6-0.4-1.5-0.3-2.4c-0.2,0.5-0.6,0.9-1.1,1.1c-0.6,0.2-1.4,0.1-2,0.4
		c-0.4,0.2-0.8,0.7-0.8,1.2c-0.1,0.5,0.1,1,0.5,1.4c0.3,0.3,0.6,0.4,0.9,0.7c0.3,0.2,0.5,0.6,0.6,1c0.7-0.2,1.4-0.4,2.1-0.6
		c0.1,0,0.3-0.1,0.4-0.2c0.2-0.2,0.2-0.4,0.2-0.6c0-0.5,0-1-0.2-1.4C60.4,57.2,60.3,57.1,60.2,56.9z"/>
	<path fill="#294E58" d="M22.3,43.2c-0.6,0.2-1.4,0.1-2,0.4c-0.4,0.2-0.8,0.7-0.8,1.2c-0.1,0.5,0.1,1,0.5,1.4
		c0.3,0.3,0.6,0.4,0.9,0.7c0.3,0.2,0.5,0.6,0.6,1c0.7-0.2,1.4-0.4,2.1-0.6c0.1,0,0.3-0.1,0.4-0.2c0.2-0.2,0.2-0.4,0.2-0.6
		c0-0.5,0-1-0.2-1.4c-0.1-0.2-0.2-0.3-0.4-0.5c-0.5-0.6-0.4-1.6-0.3-2.4C23.2,42.6,22.8,43,22.3,43.2z"/>
	<path fill="#294E58" d="M42.2,48.6c-0.2-0.4-0.7-0.8-1.2-0.8c-0.5-0.1-1,0.1-1.4,0.5c-0.3,0.3-0.4,0.6-0.7,0.9
		c-0.2,0.3-0.6,0.5-1,0.6c0.2,0.7,0.4,1.4,0.6,2.1c0,0.1,0.1,0.3,0.2,0.4c0.2,0.2,0.4,0.2,0.6,0.2c0.5,0,1,0.1,1.4-0.2
		c0.2-0.1,0.3-0.2,0.5-0.4c0.7-0.5,1.6-0.4,2.4-0.2c-0.5-0.2-0.9-0.6-1.1-1.1C42.3,50,42.5,49.2,42.2,48.6z"/>
	<path fill="#294E58" d="M38.2,17.6c-0.4,0.2-0.8,0.7-0.8,1.2c-0.1,0.5,0.1,1,0.5,1.4c0.3,0.3,0.6,0.4,0.9,0.7
		c0.3,0.2,0.5,0.6,0.6,1c0.7-0.2,1.4-0.4,2.1-0.6c0.1,0,0.3-0.1,0.4-0.2c0.2-0.2,0.2-0.4,0.2-0.6c0-0.5,0-1-0.2-1.4
		c-0.1-0.2-0.2-0.3-0.4-0.5c-0.5-0.6-0.4-1.6-0.3-2.4c-0.2,0.5-0.6,0.9-1.1,1.1C39.5,17.4,38.8,17.3,38.2,17.6z"/>
	<path fill="#294E58" d="M24.4,13.8c0.3,0.6,0.2,1.4,0.6,2c0.3,0.4,0.7,0.7,1.2,0.7c0.5,0,1-0.2,1.3-0.6c0.2-0.3,0.4-0.7,0.6-1
		c0.2-0.3,0.5-0.6,0.9-0.7c-0.2-0.7-0.5-1.4-0.7-2.1c-0.1-0.1-0.1-0.3-0.2-0.4c-0.2-0.1-0.4-0.1-0.6-0.1c-0.5,0-1,0-1.4,0.3
		c-0.2,0.1-0.3,0.3-0.4,0.4c-0.6,0.5-1.5,0.5-2.3,0.4C23.7,12.9,24.2,13.3,24.4,13.8z"/>
</g>
</svg>
