<?xml version="1.0" encoding="utf-8"?>
<!-- Generator: Adobe Illustrator 18.0.0, SVG Export Plug-In . SVG Version: 6.00 Build 0)  -->
<!DOCTYPE svg PUBLIC "-//W3C//DTD SVG 1.1//EN" "http://www.w3.org/Graphics/SVG/1.1/DTD/svg11.dtd">
<svg version="1.1" id="Layer_1" xmlns="http://www.w3.org/2000/svg" xmlns:xlink="http://www.w3.org/1999/xlink" x="0px" y="0px"
	 viewBox="0 0 72 72" enable-background="new 0 0 72 72" xml:space="preserve">
<g>
	<path fill="#F04B36" d="M55.3,22.9c-0.5,0.3-0.9,0.8-1,1.4c-0.1,0.6,0.1,1.2,0.6,1.6c0.3,0.3,0.8,0.5,1.1,0.8
		c0.4,0.3,0.6,0.7,0.8,1.2c0.9-0.2,1.7-0.5,2.6-0.7c0.2-0.1,0.4-0.1,0.5-0.2c0.2-0.2,0.2-0.5,0.2-0.7c0-0.6,0.1-1.2-0.3-1.7
		c-0.1-0.2-0.3-0.4-0.4-0.5C58.7,23.1,58.8,22,59,21c-0.2,0.6-0.7,1.1-1.3,1.3C56.9,22.6,56,22.5,55.3,22.9z"/>
	<path fill="#F04B36" d="M40.6,11.2c-0.2,0.6-0.7,1.1-1.3,1.3c-0.8,0.3-1.7,0.1-2.4,0.5c-0.5,0.3-0.9,0.8-1,1.4
		c-0.1,0.6,0.1,1.2,0.6,1.6c0.3,0.3,0.8,0.5,1.1,0.8c0.4,0.3,0.6,0.7,0.8,1.2c0.9-0.2,1.7-0.5,2.6-0.7c0.2-0.1,0.4-0.1,0.5-0.2
		c0.2-0.2,0.2-0.5,0.2-0.7c0-0.6,0.1-1.2-0.3-1.7c-0.1-0.2-0.3-0.4-0.4-0.5C40.3,13.2,40.4,12.2,40.6,11.2z"/>
	<path fill="#F04B36" d="M39.8,30.8c0.2-0.2,0.2-0.5,0.2-0.7c0-0.6,0.1-1.2-0.3-1.7c-0.1-0.2-0.3-0.4-0.4-0.5
		c-0.6-0.8-0.5-1.9-0.3-2.9c-0.2,0.6-0.7,1.1-1.3,1.3c-0.8,0.3-1.7,0.1-2.4,0.5c-0.5,0.3-0.9,0.8-1,1.4c-0.1,0.6,0.1,1.2,0.6,1.6
		c0.3,0.3,0.8,0.5,1.1,0.8c0.4,0.3,0.6,0.7,0.8,1.2c0.9-0.2,1.7-0.5,2.6-0.7C39.4,30.9,39.6,30.9,39.8,30.8z"/>
	<path fill="#F04B36" d="M21.4,31.6c0.3,0.3,0.8,0.5,1.1,0.8c0.4,0.3,0.6,0.7,0.8,1.2c0.9-0.2,1.7-0.5,2.6-0.7
		c0.2-0.1,0.4-0.1,0.5-0.2c0.2-0.2,0.2-0.5,0.2-0.7c0-0.6,0.1-1.2-0.3-1.7c-0.1-0.2-0.3-0.4-0.4-0.5c-0.6-0.8-0.5-1.9-0.3-2.9
		c-0.2,0.6-0.7,1.1-1.3,1.3c-0.8,0.3-1.7,0.1-2.4,0.5c-0.5,0.3-0.9,0.8-1,1.4C20.7,30.6,21,31.2,21.4,31.6z"/>
	<path fill="#F04B36" d="M49.2,16.7c-0.2,0.3-0.5,0.7-0.4,1.1c0,0.1,0,0.1,0.1,0.1c0,0,0.1,0,0.2,0c0.3,0,0.5,0,0.8,0.1
		c0.4,0.1,0.8,0.3,1.2,0.6c0.8,0.4,1.5,0.8,2.3,1.3c0.1,0.1,0.3,0.2,0.4,0.2c0.4,0.1,0.8-0.1,1.1-0.3c0.3-0.2,0.6-0.6,0.9-0.8
		c0.7-0.5,1.6-0.6,2.1-1.2c0.4-0.5,0.5-1.3,0.1-1.9c-0.2-0.3-0.4-0.5-0.6-0.7c-0.6-0.5-1.1-1-1.7-1.4c-0.2-0.2-0.4-0.3-0.7-0.3
		c-0.3,0.1-0.4,0.4-0.5,0.6c-0.2,0.5-0.3,1.1-0.3,1.6c-0.2,0-0.4-0.2-0.5-0.4c-0.1-0.2-0.1-0.5-0.1-0.7c0-0.4-0.1-0.8-0.3-1.2
		C53.2,13.3,53,13,52.7,13c-0.2,0-0.5,0.1-0.6,0.3c-0.2,0.2-0.3,0.4-0.4,0.6c-0.3,0.4-0.7,0.7-1,1c-0.3,0.3-0.5,0.6-0.7,0.9
		C49.7,16.1,49.4,16.4,49.2,16.7z"/>
	<path fill="#F04B36" d="M31.4,5.5c0,0,0.1,0,0.2,0c0.3,0,0.5,0,0.8,0.1c0.4,0.1,0.8,0.3,1.2,0.6c0.8,0.4,1.5,0.8,2.3,1.3
		c0.1,0.1,0.3,0.2,0.4,0.2c0.4,0.1,0.8-0.1,1.1-0.3c0.3-0.2,0.6-0.6,0.9-0.8C39.1,6.2,40,6,40.5,5.4C40.9,4.9,41,4,40.6,3.5
		C40.4,3.2,40.2,3,40,2.8c-0.6-0.5-1.1-1-1.7-1.4c-0.2-0.2-0.4-0.3-0.7-0.3c-0.3,0.1-0.4,0.4-0.5,0.6c-0.2,0.5-0.3,1.1-0.3,1.6
		c-0.2,0-0.4-0.2-0.5-0.4c-0.1-0.2-0.1-0.5-0.1-0.7c0-0.4-0.1-0.8-0.3-1.2c-0.1-0.3-0.3-0.5-0.6-0.6c-0.2,0-0.5,0.1-0.6,0.3
		c-0.2,0.2-0.3,0.4-0.4,0.6c-0.3,0.4-0.7,0.7-1,1c-0.3,0.3-0.5,0.6-0.7,0.9c-0.2,0.3-0.5,0.7-0.7,1c-0.2,0.3-0.5,0.7-0.4,1.1
		C31.4,5.4,31.4,5.5,31.4,5.5z"/>
	<path fill="#F04B36" d="M11.6,19.4c0,0,0.1,0,0.2,0c0.3,0,0.5,0,0.8,0.1c0.4,0.1,0.8,0.3,1.2,0.6c0.8,0.4,1.5,0.8,2.3,1.3
		c0.1,0.1,0.3,0.2,0.4,0.2c0.4,0.1,0.8-0.1,1.1-0.3c0.3-0.2,0.6-0.6,0.9-0.8c0.7-0.5,1.6-0.6,2.1-1.2c0.4-0.5,0.5-1.3,0.1-1.9
		c-0.2-0.3-0.4-0.5-0.6-0.7c-0.6-0.5-1.1-1-1.7-1.4c-0.2-0.2-0.4-0.3-0.7-0.3c-0.3,0.1-0.4,0.4-0.5,0.6c-0.2,0.5-0.3,1.1-0.3,1.6
		c-0.2,0-0.4-0.2-0.5-0.4c-0.1-0.2-0.1-0.5-0.1-0.7c0-0.4-0.1-0.8-0.3-1.2c-0.1-0.3-0.3-0.5-0.6-0.6c-0.2,0-0.5,0.1-0.6,0.3
		c-0.2,0.2-0.3,0.4-0.4,0.6c-0.3,0.4-0.7,0.7-1,1c-0.3,0.3-0.5,0.6-0.7,0.9c-0.2,0.3-0.5,0.7-0.7,1c-0.2,0.3-0.5,0.7-0.4,1.1
		C11.6,19.4,11.6,19.4,11.6,19.4z"/>
	<path fill="#E77528" d="M58.3,31.2c-2.2,0-4,1.8-4,4c0,1.6,0.9,3,2.3,3.6c-3.4,2-9.9,5.4-14.2,5.1c0,0,4.2-2.4,5.8-5.6
		c0.6-0.2,1.1-0.3,1.7-0.5c0.2-0.1,0.4-0.1,0.5-0.2c0.2-0.2,0.2-0.5,0.2-0.7c0-0.6,0.1-1.2-0.3-1.7c-0.1-0.2-0.3-0.4-0.4-0.5
		c-0.6-0.8-0.5-1.9-0.3-2.9c-0.2,0.6-0.7,1.1-1.3,1.3c-0.8,0.3-1.7,0.1-2.4,0.5c-0.5,0.3-0.9,0.8-1,1.4c-0.1,0.6,0.1,1.2,0.6,1.6
		c0.3,0.3,0.8,0.5,1.1,0.8c-1.7,2.8-4.7,6.2-9.1,6.3c0,0-9.1-0.8-14.6-8.8c-1.1-1.6-0.1,7,10.7,9.3c0,0-11.1-0.6-17.1-6.3
		c0,0,0.8,6.2,10,7.2c0,0,13.9-2.3,9.2,10.9c0,0-3.1,12.4-3.3,13.3c0,0,3.2,4.6,12.7,0L40.7,54c0,0-1.8-8.6,2.9-8.3
		c3.6,0.2,10-4.2,13.2-6.7c0.4,0.2,0.9,0.3,1.4,0.3c2.2,0,4-1.8,4-4C62.3,33,60.5,31.2,58.3,31.2z"/>
	<circle fill="#F04B36" cx="46.4" cy="26.1" r="4"/>
	<circle fill="#F04B36" cx="46.4" cy="8.2" r="4"/>
	<circle fill="#F04B36" cx="34.7" cy="37.9" r="4"/>
	<circle fill="#F04B36" cx="29.6" cy="22.1" r="4"/>
	<circle fill="#F04B36" cx="25.5" cy="9.8" r="4"/>
	<circle fill="#F04B36" cx="13.7" cy="32.3" r="4"/>
</g>
</svg>
