<?xml version="1.0" encoding="utf-8"?>
<!-- Generator: Adobe Illustrator 18.0.0, SVG Export Plug-In . SVG Version: 6.00 Build 0)  -->
<!DOCTYPE svg PUBLIC "-//W3C//DTD SVG 1.1//EN" "http://www.w3.org/Graphics/SVG/1.1/DTD/svg11.dtd">
<svg version="1.1" id="Layer_1" xmlns="http://www.w3.org/2000/svg" xmlns:xlink="http://www.w3.org/1999/xlink" x="0px" y="0px"
	 viewBox="0 0 72 72" enable-background="new 0 0 72 72" xml:space="preserve">
<g>
	<path fill="#4DA0D8" d="M24.1,53.9c-1.1,0.5-2.3,0.9-3.3,1.4c-1.2,0.6-2.3,1.6-3,2.8c-0.3,0.5-0.5,1.1-0.4,1.7
		c0.1,0.3,0.2,0.6,0.5,0.7c0.1,0.1,0.3,0.1,0.5,0.1c0.5,0,1.1,0,1.6,0c0,0.4,0.1,0.8,0.4,1.2c0.1,0.1,0.1,0.2,0.2,0.3
		c0.1,0.1,0.2,0.1,0.4,0.1c0.9,0,1.7-0.3,2.3-1c0.6-0.7,0.8-1.6,1.3-2.3c0.2-0.4,0.4-0.7,0.6-1.1c0.2-0.4,0.3-0.8,0.4-1.3
		c0.1-0.4,0.2-0.9,0.2-1.3c0-0.8-0.2-1.7,0.1-2.4C25.2,53.3,24.6,53.6,24.1,53.9z"/>
	<path fill="#4DA0D8" d="M64.9,33.6c-0.1-0.3-0.2-0.6-0.5-0.7c-0.1-0.1-0.3-0.1-0.5-0.1c-0.5,0-1.1,0-1.6,0c0-0.4-0.2-0.8-0.4-1.2
		c-0.1-0.1-0.1-0.2-0.2-0.2c-0.1-0.1-0.2-0.1-0.4-0.1c-0.9,0-1.7,0.4-2.2,1.1c-0.6,0.7-0.8,1.6-1.2,2.4c-0.2,0.4-0.4,0.7-0.6,1.1
		c-0.2,0.4-0.3,0.9-0.3,1.3c-0.1,0.4-0.1,0.9-0.1,1.3c0,0.8,0.3,1.7,0,2.4c0.5-0.4,1-0.8,1.6-1.1c1.1-0.6,2.2-1,3.3-1.6
		c1.2-0.7,2.3-1.7,2.9-3C64.8,34.8,65,34.2,64.9,33.6z"/>
	<path fill="#E77528" d="M52.3,46.1c-0.3-0.3-0.6-0.6-0.9-0.8c-0.4-0.3-0.8-0.5-1.2-0.6c-0.4-0.2-0.8-0.3-1.3-0.4
		c-0.8-0.2-1.7-0.2-2.4-0.6c0.3,0.6,0.5,1.2,0.7,1.8c0.3,1.2,0.4,2.4,0.7,3.6c0.2,0.6,0.4,1.3,0.8,1.9c-3.1,2.2-8.1,4.2-11.6,5.4
		l-0.9-11.4c4.1-2.1,7.4-4.9,9.6-7.4c0.2-0.1,0.4-0.3,0.5-0.6c0.6-0.7,1.1-1.3,1.6-1.9c0.1,0,0.3,0.1,0.4,0.1c0.9,0,1.7-0.8,1.7-1.7
		s-0.8-1.7-1.7-1.7s-1.7,0.8-1.7,1.7c0,0.6,0.3,1.1,0.7,1.4c-0.4,0.3-0.8,0.6-1.2,0.9c-0.2-0.2-0.5-0.4-0.8-0.4
		c-0.6,0-1.2,0.5-1.2,1.2c0,0.2,0,0.3,0.1,0.5c-2.9,1.8-6.1,3.4-8.3,4.4l-0.7-9.7c6.9-3.2,11.5-8.6,13.5-11.2c0.1,0,0.1,0,0.2,0
		c0.6,0,1.2-0.5,1.2-1.2c0-0.6-0.5-1.2-1.2-1.2c-0.6,0-1.2,0.5-1.2,1.2c0,0.4,0.2,0.8,0.6,1c-3.9,3.4-10.2,6.4-13.4,7.8L33.6,9.2
		C34,9,34.3,8.6,34.3,8.1c0-0.5-0.4-1-0.9-1.1l-0.1-1.3l-0.1,1.3c0,0-0.1,0-0.1,0c-0.6,0-1.2,0.5-1.2,1.2c0,0.6,0.5,1.1,1.1,1.2
		L32.4,22c-3.4-1.1-11.5-4-15.2-7.1c0,0,5.5,6.6,15,9.8l-0.7,12.1c-3.3-1.1-9.2-3.3-12.9-5.7c0-0.1,0-0.2,0-0.3
		c0-0.6-0.5-1.2-1.2-1.2s-1.2,0.5-1.2,1.2c0,0.6,0.5,1.2,1.2,1.2c0.4,0,0.8-0.2,1-0.5c2.1,2,6.5,5.8,12.9,8.1l-0.7,12.1
		c-3.8-1.3-9.9-3.7-13.2-6.3c0-0.6-0.5-1.1-1.2-1.1c-0.6,0-1.2,0.5-1.2,1.2c0,0.6,0.5,1.2,1.2,1.2c0.6,0,1.1-0.5,1.1-1.1
		c1.2,1.3,5.8,6,13,8.8l-1,17.2h8.7l-1-12.6c5.9-2.5,9.9-6.2,11.6-7.9c0.3,0.5,0.8,1,1.3,1.5c0.5,0.4,1,0.7,1.6,0.7
		c0.3,0,0.6-0.1,0.8-0.3c0.1-0.1,0.1-0.3,0.2-0.4c0.1-0.5,0.3-1,0.4-1.6c0.4,0.1,0.9,0,1.3-0.1c0.1,0,0.2-0.1,0.3-0.2
		c0.1-0.1,0.1-0.2,0.2-0.3c0.2-0.8,0.1-1.7-0.5-2.4C53.8,47.1,53,46.7,52.3,46.1z"/>
	<path fill="#4DA0D8" d="M23.6,13c0.3,0.3,0.6,0.5,0.9,0.8c0.4,0.3,0.8,0.4,1.2,0.6c0.4,0.2,0.8,0.3,1.3,0.4
		c0.8,0.2,1.7,0.1,2.4,0.5c-0.3-0.6-0.6-1.1-0.7-1.8c-0.4-1.2-0.5-2.4-0.8-3.5c-0.4-1.3-1.2-2.6-2.3-3.4c-0.5-0.4-1-0.7-1.6-0.7
		c-0.3,0-0.6,0.1-0.8,0.3C23,6.4,23,6.6,22.9,6.7c-0.1,0.5-0.2,1-0.3,1.6c-0.4-0.1-0.9,0-1.3,0.1c-0.1,0-0.2,0.1-0.3,0.2
		C21,8.7,21,8.9,20.9,9c-0.2,0.8,0,1.7,0.5,2.4C22,12.1,22.9,12.5,23.6,13z"/>
	<path fill="#4DA0D8" d="M16.6,42.8c0.4,0.3,0.8,0.4,1.2,0.6c0.4,0.2,0.8,0.3,1.3,0.4c0.8,0.2,1.7,0.1,2.4,0.5
		c-0.3-0.6-0.6-1.1-0.7-1.8c-0.4-1.2-0.5-2.4-0.8-3.5c-0.4-1.3-1.2-2.6-2.3-3.4c-0.5-0.4-1-0.7-1.6-0.7c-0.3,0-0.6,0.1-0.8,0.3
		c-0.1,0.1-0.1,0.3-0.2,0.4c-0.1,0.5-0.2,1-0.3,1.6c-0.4-0.1-0.9,0-1.3,0.1c-0.1,0-0.2,0.1-0.3,0.2c-0.1,0.1-0.1,0.2-0.2,0.3
		c-0.2,0.8,0,1.7,0.5,2.4c0.6,0.7,1.4,1.1,2.1,1.7C16,42.3,16.3,42.6,16.6,42.8z"/>
	<circle fill="#4DA0D8" cx="46" cy="19.4" r="1.7"/>
	<circle fill="#4DA0D8" cx="54.3" cy="28.7" r="1.7"/>
	<circle fill="#4DA0D8" cx="46" cy="59.3" r="1.7"/>
	<circle fill="#4DA0D8" cx="43" cy="48.2" r="2"/>
	<circle fill="#4DA0D8" cx="25.1" cy="43.8" r="2.4"/>
	<circle fill="#4DA0D8" cx="12.9" cy="55.3" r="2.4"/>
	<circle fill="#4DA0D8" cx="25.1" cy="29.4" r="2.6"/>
	<circle fill="#4DA0D8" cx="40.6" cy="19.4" r="1.6"/>
	<circle fill="#4DA0D8" cx="8.7" cy="34" r="1.6"/>
	<circle fill="#4DA0D8" cx="14.5" cy="14.9" r="1.6"/>
	<circle fill="#4DA0D8" cx="50.3" cy="13.4" r="1.2"/>
	<circle fill="#4DA0D8" cx="53.4" cy="12.8" r="1.2"/>
	<circle fill="#4DA0D8" cx="56" cy="14.9" r="1.2"/>
	<circle fill="#4DA0D8" cx="56.4" cy="17.9" r="1.2"/>
	<circle fill="#4DA0D8" cx="54.3" cy="20.4" r="1.2"/>
	<circle fill="#4DA0D8" cx="51.5" cy="20.9" r="1.2"/>
	<circle fill="#4DA0D8" cx="48.4" cy="15.9" r="1.2"/>
	<circle fill="#4DA0D8" cx="34.6" cy="2.2" r="1.2"/>
	<circle fill="#4DA0D8" cx="37.6" cy="1.7" r="1.2"/>
	<circle fill="#4DA0D8" cx="40.2" cy="3.7" r="1.2"/>
	<circle fill="#4DA0D8" cx="40.6" cy="6.7" r="1.2"/>
	<circle fill="#4DA0D8" cx="38.6" cy="9.2" r="1.2"/>
	<circle fill="#4DA0D8" cx="35.7" cy="9.7" r="1.2"/>
	<circle fill="#4DA0D8" cx="32.6" cy="4.7" r="1.2"/>
	<circle fill="#4DA0D8" cx="46.8" cy="30.6" r="1.2"/>
	<circle fill="#4DA0D8" cx="49.8" cy="30" r="1.2"/>
	<circle fill="#4DA0D8" cx="52.4" cy="32" r="1.2"/>
	<circle fill="#4DA0D8" cx="52.9" cy="35" r="1.2"/>
	<circle fill="#4DA0D8" cx="50.8" cy="37.6" r="1.2"/>
	<circle fill="#4DA0D8" cx="47.9" cy="38" r="1.2"/>
	<circle fill="#4DA0D8" cx="44.8" cy="33.1" r="1.2"/>
	<circle fill="#4DA0D8" cx="13.6" cy="23.8" r="1.2"/>
	<circle fill="#4DA0D8" cx="16.6" cy="23.2" r="1.2"/>
	<circle fill="#4DA0D8" cx="19.2" cy="25.3" r="1.2"/>
	<circle fill="#4DA0D8" cx="19.7" cy="28.2" r="1.2"/>
	<circle fill="#4DA0D8" cx="14.7" cy="31.3" r="1.2"/>
	<circle fill="#4DA0D8" cx="12.2" cy="29.6" r="1.2"/>
	<circle fill="#4DA0D8" cx="11.7" cy="26.3" r="1.2"/>
	<circle fill="#4DA0D8" cx="10.7" cy="44" r="1.2"/>
	<circle fill="#4DA0D8" cx="13.8" cy="43.4" r="1.2"/>
	<circle fill="#4DA0D8" cx="16.8" cy="48.4" r="1.2"/>
	<circle fill="#4DA0D8" cx="14.7" cy="51" r="1.2"/>
	<circle fill="#4DA0D8" cx="11.9" cy="51.4" r="1.2"/>
	<circle fill="#4DA0D8" cx="9.3" cy="49.8" r="1.2"/>
	<circle fill="#4DA0D8" cx="8.8" cy="46.5" r="1.2"/>
</g>
</svg>
