<?xml version="1.0" encoding="utf-8"?>
<!-- Generator: Adobe Illustrator 18.0.0, SVG Export Plug-In . SVG Version: 6.00 Build 0)  -->
<!DOCTYPE svg PUBLIC "-//W3C//DTD SVG 1.1//EN" "http://www.w3.org/Graphics/SVG/1.1/DTD/svg11.dtd">
<svg version="1.1" id="Layer_1" xmlns="http://www.w3.org/2000/svg" xmlns:xlink="http://www.w3.org/1999/xlink" x="0px" y="0px"
	 viewBox="0 0 72 72" enable-background="new 0 0 72 72" xml:space="preserve">
<g>
	<path fill="#4DA0D8" d="M33.8,40.9c0.4,0.3,0.6,0.7,0.7,1.1c0.8-0.2,1.6-0.5,2.5-0.7c0.2,0,0.4-0.1,0.5-0.2
		c0.2-0.2,0.2-0.5,0.2-0.7c0-0.6,0.1-1.2-0.3-1.7c-0.1-0.2-0.3-0.3-0.4-0.5c-0.6-0.8-0.4-1.8-0.3-2.8c-0.2,0.6-0.7,1.1-1.3,1.3
		c-0.8,0.3-1.6,0.1-2.3,0.5c-0.5,0.3-0.9,0.8-1,1.4c-0.1,0.6,0.1,1.2,0.6,1.6C33.1,40.4,33.5,40.6,33.8,40.9z"/>
	<path fill="#4DA0D8" d="M34.1,22.7c-0.8,0.3-1.6,0.1-2.3,0.5c-0.5,0.2-0.8,0.7-0.9,1.2c-0.2,0-0.4,0-0.6,0.1
		c-0.9,0.3-1.5,1.1-1.5,2.1c0,0.8,0.5,1.6,1.2,1.7c0.5,0.1,0.9-0.1,1.3-0.4c0.4-0.3,0.6-0.7,0.8-1.1c0,0,0,0,0,0
		c0.1,0.1,0.3,0.2,0.4,0.3c0.4,0.3,0.6,0.7,0.7,1.1c0.8-0.2,1.6-0.5,2.5-0.7c0.2,0,0.4-0.1,0.5-0.2c0.2-0.2,0.2-0.5,0.2-0.7
		c0-0.6,0.1-1.2-0.3-1.7c-0.1-0.2-0.3-0.3-0.4-0.5c-0.6-0.8-0.4-1.8-0.3-2.8C35.2,22,34.7,22.5,34.1,22.7z"/>
	<path fill="#4DA0D8" d="M52.7,22.7c-0.8,0.3-1.6,0.1-2.3,0.5c-0.5,0.3-0.9,0.8-1,1.4c-0.1,0.6,0.1,1.2,0.6,1.6
		c0.3,0.3,0.8,0.5,1.1,0.8c0.4,0.3,0.6,0.7,0.7,1.1c0.8-0.2,1.6-0.5,2.5-0.7c0.2,0,0.4-0.1,0.5-0.2c0.2-0.2,0.2-0.5,0.2-0.7
		c0-0.6,0.1-1.2-0.3-1.7c-0.1-0.2-0.3-0.3-0.4-0.5c-0.6-0.8-0.4-1.8-0.3-2.8C53.7,22,53.3,22.5,52.7,22.7z"/>
	<path fill="#4DA0D8" d="M66,16.3c-0.1-0.2-0.3-0.3-0.4-0.5C65.1,15,65.2,14,65.3,13c-0.2,0.6-0.7,1.1-1.3,1.3
		c-0.8,0.3-1.6,0.1-2.3,0.5c-0.5,0.3-0.9,0.8-1,1.4c-0.1,0.6,0.1,1.2,0.6,1.6c0.3,0.3,0.8,0.5,1.1,0.8c0.4,0.3,0.6,0.7,0.7,1.1
		c0.8-0.2,1.6-0.5,2.5-0.7c0.2,0,0.4-0.1,0.5-0.2c0.2-0.2,0.2-0.5,0.2-0.7C66.3,17.5,66.4,16.8,66,16.3z"/>
	<path fill="#4DA0D8" d="M9.2,21.6c0.4,0.3,0.6,0.7,0.7,1.1c0.8-0.2,1.6-0.5,2.5-0.7c0.2,0,0.4-0.1,0.5-0.2c0.2-0.2,0.2-0.5,0.2-0.7
		c0-0.6,0.1-1.2-0.3-1.7c-0.1-0.2-0.3-0.3-0.4-0.5c-0.6-0.8-0.4-1.8-0.3-2.8c-0.2,0.6-0.7,1.1-1.3,1.3c-0.8,0.3-1.6,0.1-2.3,0.5
		c-0.5,0.3-0.9,0.8-1,1.4c-0.1,0.6,0.1,1.2,0.6,1.6C8.4,21.1,8.9,21.3,9.2,21.6z"/>
	<path fill="#4DA0D8" d="M33.8,6.8c0.4,0.3,0.6,0.7,0.7,1.1c0.8-0.2,1.6-0.5,2.5-0.7c0.2,0,0.4-0.1,0.5-0.2c0.2-0.2,0.2-0.5,0.2-0.7
		c0-0.6,0.1-1.2-0.3-1.7c-0.1-0.2-0.3-0.3-0.4-0.5c-0.6-0.8-0.4-1.8-0.3-2.8c-0.2,0.6-0.7,1.1-1.3,1.3c-0.8,0.3-1.6,0.1-2.3,0.5
		c-0.5,0.3-0.9,0.8-1,1.4C32.1,5,32.3,5.6,32.7,6C33.1,6.3,33.5,6.5,33.8,6.8z"/>
	<path fill="#4DA0D8" d="M35.6,10.3c-0.5,0.4-0.6,1.2-0.3,1.8c0.2,0.6,0.7,1.1,1.3,1.4c0.6,0.4,1.2,0.7,1.9,0.8
		c0.2,0.3-0.1,0.7-0.4,0.9c-0.3,0.1-0.7,0.1-1,0.1c-0.6,0-1.2,0.3-1.8,0.6c-0.2,0.1-1.4,1.7-1,2.2c0.2,0.2,0.4,0.3,0.6,0.4
		c0.6,0.2,1.3,0.3,2,0c0.2-0.1,0.5-0.3,0.6-0.5c0.3-0.5,0.3-1.3,0.8-1.6c0.1,0,0.2-0.1,0.3,0c0.2,0.1,0.2,0.4,0.2,0.6
		c0,0.9-0.2,1.9,0,2.8c0.3,0.9,1.2,1.7,2.1,1.4c0.4-0.1,0.6-0.4,0.9-0.7c0.2-0.2,0.4-0.4,0.4-0.7c0.1-0.7-0.5-1.2-0.9-1.8
		c-0.3-0.5-0.4-1.1-0.3-1.6c0.3,0,0.6,0.3,0.8,0.5c0.4,0.4,1,0.8,1.5,0.9c0.6,0.1,1.3,0,1.8-0.3c0.5-0.4,0.8-1.1,0.6-1.7
		c-0.3-0.9-1.4-1.2-2.3-1.2c-0.9,0-1.9,0.3-2.8-0.1c1.3-0.5,2.4-1.6,3-3c0.3-0.7,0.3-1.8-0.4-2.1c-0.5-0.3-1.1,0-1.6,0.2
		c-0.3,0.2-0.6,0.4-0.8,0.7c-0.5,0.8-0.3,2-0.8,2.8c-0.2,0.4-0.8,0.6-1,0.3c-0.1-0.1-0.1-0.3-0.1-0.5c0-0.4-0.2-0.9-0.4-1.3
		c-0.3-0.6-0.7-1.2-1.2-1.5C36.9,9.9,36.1,9.8,35.6,10.3z"/>
	<path fill="#4DA0D8" d="M18.1,13c-0.3,0.1-0.7,0.1-1,0.1c-0.6,0-1.2,0.3-1.8,0.6c-0.2,0.1-1.4,1.7-1,2.2c0.2,0.2,0.4,0.3,0.6,0.4
		c0.6,0.2,1.3,0.3,2,0c0.2-0.1,0.5-0.3,0.6-0.5c0.3-0.5,0.3-1.3,0.8-1.6c0.1,0,0.2-0.1,0.3,0c0.2,0.1,0.2,0.4,0.2,0.6
		c0,0.9-0.2,1.9,0,2.8c0.3,0.9,1.2,1.7,2.1,1.4c0.4-0.1,0.6-0.4,0.9-0.7c0.2-0.2,0.4-0.4,0.4-0.7c0.1-0.7-0.5-1.2-0.9-1.8
		c-0.3-0.5-0.4-1.1-0.3-1.6c0.3,0,0.6,0.3,0.8,0.5c0.4,0.4,1,0.8,1.5,0.9c0.6,0.1,1.3,0,1.8-0.3c0.5-0.4,0.8-1.1,0.6-1.7
		c-0.3-0.9-1.4-1.2-2.3-1.2c-0.9,0-1.9,0.3-2.8-0.1c1.3-0.5,2.4-1.6,3-3c0.3-0.7,0.3-1.8-0.4-2.1c-0.5-0.3-1.1,0-1.6,0.2
		c-0.3,0.2-0.6,0.4-0.8,0.7c-0.5,0.8-0.3,2-0.8,2.8c-0.2,0.4-0.8,0.6-1,0.3c-0.1-0.1-0.1-0.3-0.1-0.5c0-0.4-0.2-0.9-0.4-1.3
		C18.4,9,18,8.4,17.5,8.1c-0.6-0.4-1.4-0.4-1.9,0c-0.5,0.4-0.6,1.2-0.3,1.8c0.2,0.6,0.7,1.1,1.3,1.4c0.6,0.4,1.2,0.7,1.9,0.8
		C18.6,12.4,18.4,12.8,18.1,13z"/>
	<path fill="#4DA0D8" d="M22.5,26.6c0.1-0.2,0-0.5-0.2-0.6c-0.1-0.2-0.3-0.3-0.5-0.4c-0.8-0.5-1.5-1.3-2-2.2c0.3-0.1,0.5-0.1,0.8,0
		c0.3,0,0.6,0,0.8-0.1c0.3-0.1,0.5-0.4,0.4-0.8c0-0.1,0-0.2-0.1-0.3c-0.1-0.1-0.1-0.1-0.2-0.1c-0.4,0-0.9,0.1-1.3,0.1
		c-0.4,0-0.9-0.1-1.2-0.4c-0.1-0.2-0.3-0.4-0.5-0.3c-0.2,0-0.2,0.3-0.3,0.5c-0.1,0.4-0.2,0.8-0.3,1.2c-0.3,0.1-0.7-0.1-1,0.1
		c-0.1,0.1-0.2,0.2-0.2,0.4c-0.2,0.4-0.4,0.7-0.7,0.9c-0.2,0.2-0.4,0.3-0.5,0.6c-0.1,0.2-0.1,0.5-0.1,0.7c0,0,0,0.1,0,0.1
		c0,0,0.1,0.1,0.1,0.1c0.3,0.2,0.7,0,0.9-0.4c0.2-0.3,0.3-0.8,0.4-1.2c0,1.4,0,2.9-0.1,4.3c0,0.3,0,0.6,0.2,0.7
		c0.2,0.1,0.3-0.1,0.4-0.2c0.1-0.2,0.1-0.4,0.1-0.6c0.1-1.1,0.2-2.2,0.3-3.2c0.3,0.8,0.6,1.6,1,2.3c0.4,0.7,1,1.2,1.7,1.3
		c0-0.4-0.1-0.8-0.2-1.2c-0.3-1-0.5-1.9-0.8-2.9C20.5,25.9,21.5,26.5,22.5,26.6z"/>
	<path fill="#4DA0D8" d="M25.2,11.8C25.3,11.8,25.3,11.8,25.2,11.8c0.4,0.3,0.8,0,1-0.3c0.2-0.3,0.3-0.8,0.4-1.2
		c0,1.4,0,2.9-0.1,4.3c0,0.3,0,0.6,0.2,0.7c0.2,0.1,0.3-0.1,0.4-0.2c0.1-0.2,0.1-0.4,0.1-0.6c0.1-1.1,0.2-2.2,0.3-3.2
		c0.3,0.8,0.6,1.6,1,2.3s1,1.2,1.7,1.3c0-0.4-0.1-0.8-0.2-1.2c-0.3-1-0.5-1.9-0.8-2.9c0.7,0.8,1.7,1.4,2.7,1.5
		c0.1-0.2,0-0.5-0.2-0.6c-0.1-0.2-0.3-0.3-0.5-0.4c-0.8-0.5-1.5-1.3-2-2.2c0.3-0.1,0.5-0.1,0.8,0c0.3,0,0.6,0,0.8-0.1
		c0.3-0.1,0.5-0.4,0.4-0.8c0-0.1,0-0.2-0.1-0.3c-0.1-0.1-0.1-0.1-0.2-0.1c-0.4,0-0.9,0.1-1.3,0.1c-0.4,0-0.9-0.1-1.2-0.4
		c-0.1-0.2-0.3-0.4-0.5-0.3c-0.2,0-0.2,0.3-0.3,0.5c-0.1,0.4-0.2,0.8-0.3,1.2c-0.3,0.1-0.7-0.1-1,0.1c-0.1,0.1-0.2,0.2-0.2,0.4
		c-0.2,0.4-0.4,0.7-0.7,0.9c-0.2,0.2-0.4,0.3-0.5,0.6c-0.1,0.2-0.1,0.5-0.1,0.7C25.2,11.7,25.2,11.7,25.2,11.8z"/>
	<path fill="#4DA0D8" d="M53.4,8.4C53.4,8.4,53.4,8.5,53.4,8.4c0.4,0.3,0.8,0,1-0.3c0.2-0.3,0.3-0.8,0.4-1.2c0,1.4,0,2.9-0.1,4.3
		c0,0.3,0,0.6,0.2,0.7c0.2,0.1,0.3-0.1,0.4-0.2c0.1-0.2,0.1-0.4,0.1-0.6c0.1-1.1,0.2-2.2,0.3-3.2c0.3,0.8,0.6,1.6,1,2.3
		c0.4,0.7,1,1.2,1.7,1.3c0-0.4-0.1-0.8-0.2-1.2c-0.3-1-0.5-1.9-0.8-2.9c0.7,0.8,1.7,1.4,2.7,1.5c0.1-0.2,0-0.5-0.2-0.6
		c-0.1-0.2-0.3-0.3-0.5-0.4c-0.8-0.5-1.5-1.3-2-2.2c0.3-0.1,0.5-0.1,0.8,0c0.3,0,0.6,0,0.8-0.1c0.3-0.1,0.5-0.4,0.4-0.8
		c0-0.1,0-0.2-0.1-0.3c-0.1-0.1-0.1-0.1-0.2-0.1c-0.4,0-0.9,0.1-1.3,0.1c-0.4,0-0.9-0.1-1.2-0.4c-0.1-0.2-0.3-0.4-0.5-0.3
		c-0.2,0-0.2,0.3-0.3,0.5c-0.1,0.4-0.2,0.8-0.3,1.2c-0.3,0.1-0.7-0.1-1,0.1c-0.1,0.1-0.2,0.2-0.2,0.4C54.5,6.4,54.2,6.7,54,7
		c-0.2,0.2-0.4,0.3-0.5,0.6c-0.1,0.2-0.1,0.5-0.1,0.7C53.4,8.3,53.4,8.4,53.4,8.4z"/>
	<path fill="#4DA0D8" d="M49.4,14c-0.3,0.1-0.7-0.1-1,0.1c-0.1,0.1-0.2,0.2-0.2,0.4c-0.2,0.4-0.4,0.7-0.7,0.9
		c-0.2,0.2-0.4,0.3-0.5,0.6c-0.1,0.2-0.1,0.5-0.1,0.7c0,0,0,0.1,0,0.1c0,0,0.1,0.1,0.1,0.1c0.3,0.2,0.7,0,0.9-0.4
		c0.2-0.3,0.3-0.8,0.4-1.2c0,1.4,0,2.9-0.1,4.3c0,0.3,0,0.6,0.2,0.7c0.2,0.1,0.3-0.1,0.4-0.2c0.1-0.2,0.1-0.4,0.1-0.6
		c0.1-1.1,0.2-2.2,0.3-3.2c0.3,0.8,0.6,1.6,1,2.3c0.4,0.7,1,1.2,1.7,1.3c0-0.4-0.1-0.8-0.2-1.2c-0.3-1-0.5-1.9-0.8-2.9
		c0.7,0.8,1.7,1.4,2.7,1.5c0.1-0.2,0-0.5-0.2-0.6c-0.1-0.2-0.3-0.3-0.5-0.4c-0.8-0.5-1.5-1.3-2-2.2c0.3-0.1,0.5-0.1,0.8,0
		c0.3,0,0.6,0,0.8-0.1c0.3-0.1,0.5-0.4,0.4-0.8c0-0.1,0-0.2-0.1-0.3c-0.1-0.1-0.1-0.1-0.2-0.1c-0.4,0-0.9,0.1-1.3,0.1
		c-0.4,0-0.9-0.1-1.2-0.4c-0.1-0.2-0.3-0.4-0.5-0.3c-0.2,0-0.2,0.3-0.3,0.5C49.6,13.2,49.5,13.6,49.4,14z"/>
	<path fill="#4DA0D8" d="M42.8,5.1C42.8,5.1,42.8,5.1,42.8,5.1c0.4,0.3,0.8,0,1-0.3C44,4.4,44.1,4,44.2,3.6c0,1.4,0,2.9-0.1,4.3
		c0,0.3,0,0.6,0.2,0.7c0.2,0.1,0.3-0.1,0.4-0.2C44.9,8.2,44.9,8,45,7.8c0.1-1.1,0.2-2.2,0.3-3.2c0.3,0.8,0.6,1.6,1,2.3
		c0.4,0.7,1,1.2,1.7,1.3c0-0.4-0.1-0.8-0.2-1.2C47.6,6,47.3,5,47.1,4c0.7,0.8,1.7,1.4,2.7,1.5c0.1-0.2,0-0.5-0.2-0.6
		c-0.1-0.2-0.3-0.3-0.5-0.4c-0.8-0.5-1.5-1.3-2-2.2c0.3-0.1,0.5-0.1,0.8,0c0.3,0,0.6,0,0.8-0.1c0.3-0.1,0.5-0.4,0.4-0.8
		c0-0.1,0-0.2-0.1-0.3C49,1.1,49,1.1,48.9,1.1c-0.4,0-0.9,0.1-1.3,0.1c-0.4,0-0.9-0.1-1.2-0.4c-0.1-0.2-0.3-0.4-0.5-0.3
		c-0.2,0-0.2,0.3-0.3,0.5c-0.1,0.4-0.2,0.8-0.3,1.2c-0.3,0.1-0.7-0.1-1,0.1c-0.1,0.1-0.2,0.2-0.2,0.4c-0.2,0.4-0.4,0.7-0.7,0.9
		c-0.2,0.2-0.4,0.3-0.5,0.6c-0.1,0.2-0.1,0.5-0.1,0.7C42.8,5,42.8,5,42.8,5.1z"/>
	<path fill="#4DA0D8" d="M55.7,37.9c-0.9-0.1-1.8,0.5-2.2,1.4c-0.3,0.7-0.1,1.6,0.5,2c0.4,0.2,0.9,0.2,1.3,0.1
		c0.4-0.1,0.8-0.4,1.2-0.8c0.7-0.6,1.3-1.4,1.7-2.2C57.4,38.6,56.6,38,55.7,37.9z"/>
	<path fill="#E77528" d="M53.1,36.6c-0.6-0.6-1.6-0.9-2.1-1.7c-0.4,0.9-0.5,1.8-0.6,2.7c0,0.5,0,0.9,0.2,1.4
		c0.1,0.3,0.3,0.6,0.6,0.8c-3.3,2-9.6,5.2-13.8,5c0,0,3.9-2.2,5.5-5.2c0.1,0.1,0.2,0.1,0.4,0.1c0.5,0.1,0.9-0.1,1.3-0.4
		c0.4-0.3,0.6-0.7,0.8-1.1c0.4-0.8,0.7-1.8,0.8-2.7c-0.8,0.5-1.8,0.2-2.6,0.5c0,0-0.1,0-0.1,0.1c0-0.1-0.1-0.2-0.1-0.3
		c0.1,0,0.2,0.1,0.3,0.1c0.5,0.1,0.9-0.1,1.3-0.4c0.4-0.3,0.6-0.7,0.8-1.1c0.4-0.8,0.7-1.8,0.8-2.7c-0.8,0.5-1.8,0.2-2.6,0.5
		c-0.9,0.3-1.5,1.1-1.5,2.1c0,0.5,0.2,1,0.5,1.3c-0.2,0.5-0.5,1.2-1,2.2c0-0.8-0.5-1.6-1.3-1.9c-0.8-0.4-1.8-0.2-2.5-0.8
		c0,0.9,0.1,1.9,0.5,2.8c0.2,0.4,0.4,0.9,0.7,1.2c0.3,0.3,0.8,0.6,1.2,0.6c0.1,0,0.2,0,0.4-0.1c-1.7,2.5-4.4,5.2-8.2,5.2
		c0,0-8.8-0.7-14.2-8.5c-1.1-1.6-0.1,6.7,10.4,9c0,0-7.1-0.4-12.9-3.5c0-0.1-0.1-0.2-0.1-0.4c-0.4-0.8-1.4-1.3-2.3-1.2c0,0,0,0,0,0
		c0,0-0.1-0.1-0.1-0.1c0.1,0,0.2-0.1,0.3-0.1c0.6-0.4,0.7-1.4,0.4-2c-0.4-0.8-1.4-1.3-2.3-1.2c-0.9,0.1-1.7,0.8-2.6,0.7
		c0.5,0.8,1.1,1.5,1.9,2.1c0.4,0.3,0.8,0.6,1.2,0.7c0.1,0,0.2,0,0.3,0c0,0.1,0.1,0.2,0.1,0.2c-0.6,0.2-1.1,0.5-1.7,0.4
		c0.5,0.8,1.1,1.5,1.9,2.1c0.4,0.3,0.8,0.5,1.2,0.7c0.3,0.1,0.7,0.1,1,0c1.4,1.2,3.6,2.2,6.9,2.6c0,0,13.5-2.2,8.9,10.6
		c0,0-3,12-3.2,12.9c0,0,3.1,4.5,12.3,0l-4-15c0,0-1.8-8.3,2.8-8c3.4,0.2,9.6-4.1,12.8-6.5c0.7,0.2,1.5-0.2,1.8-0.9
		C53.9,38.3,53.7,37.2,53.1,36.6z"/>
	<path fill="#4DA0D8" d="M59.7,23.8c-0.3,0.3-0.7,0.7-0.9,1.1c-0.2,0.4-0.3,0.9-0.1,1.4c0.3,0.7,1.2,0.9,1.9,0.7
		c0.9-0.2,1.6-1.1,1.6-2c0-0.9-0.5-1.8-0.2-2.6C61.2,22.7,60.4,23.2,59.7,23.8z"/>
	<path fill="#4DA0D8" d="M57.5,34.4c-0.9-0.1-1.8,0.5-2.2,1.4c-0.3,0.7-0.1,1.6,0.5,2c0.4,0.2,0.9,0.2,1.3,0.1
		c0.4-0.1,0.8-0.4,1.2-0.8c0.7-0.6,1.3-1.4,1.7-2.2C59.2,35.1,58.3,34.5,57.5,34.4z"/>
	<path fill="#4DA0D8" d="M53.3,36.5c0.7,0.2,1.5-0.2,1.9-0.9c0.4-0.8,0.3-1.9-0.4-2.5c-0.6-0.6-1.6-0.9-2.1-1.7
		c-0.4,0.9-0.5,1.8-0.6,2.7c0,0.5,0,0.9,0.2,1.4C52.5,36,52.9,36.4,53.3,36.5z"/>
	<path fill="#4DA0D8" d="M59.2,30.9c-0.9-0.1-1.8,0.5-2.2,1.4c-0.3,0.7-0.1,1.6,0.5,2c0.4,0.2,0.9,0.2,1.3,0.1
		c0.4-0.1,0.8-0.4,1.2-0.8c0.7-0.6,1.3-1.4,1.7-2.2C60.9,31.6,60.1,31,59.2,30.9z"/>
	<path fill="#4DA0D8" d="M56.9,32.1c0.4-0.8,0.3-1.9-0.4-2.5c-0.6-0.6-1.6-0.9-2.1-1.7c-0.4,0.9-0.5,1.8-0.6,2.7
		c0,0.5,0,0.9,0.2,1.4c0.2,0.4,0.5,0.8,0.9,1C55.7,33.3,56.5,32.8,56.9,32.1z"/>
	<path fill="#4DA0D8" d="M60.9,27.4c-0.9-0.1-1.8,0.5-2.2,1.4c-0.3,0.7-0.1,1.6,0.5,2c0.4,0.2,0.9,0.2,1.3,0.1
		c0.4-0.1,0.8-0.4,1.2-0.8c0.7-0.6,1.3-1.4,1.7-2.2C62.6,28.1,61.8,27.5,60.9,27.4z"/>
	<path fill="#4DA0D8" d="M58.6,28.6c0.4-0.8,0.3-1.9-0.4-2.5c-0.6-0.6-1.6-0.9-2.1-1.7c-0.4,0.9-0.5,1.8-0.6,2.7
		c0,0.5,0,0.9,0.2,1.4c0.2,0.4,0.5,0.8,0.9,1C57.5,29.8,58.3,29.3,58.6,28.6z"/>
	<path fill="#4DA0D8" d="M44.4,24c0.7-0.6,1.1-1.6,0.8-2.5c-0.3-0.8-1.1-1.5-1.2-2.4c-0.7,0.6-1.3,1.4-1.7,2.2
		c-0.2,0.4-0.4,0.9-0.4,1.3c0,0.5,0.1,1,0.4,1.3C42.8,24.6,43.8,24.5,44.4,24z"/>
	<path fill="#4DA0D8" d="M41.1,31.8c-0.8-0.4-1.8-0.2-2.5-0.8c0,0.9,0.1,1.9,0.5,2.8c0.2,0.4,0.4,0.9,0.7,1.2
		c0.3,0.3,0.8,0.6,1.2,0.6c0.7,0,1.3-0.8,1.4-1.5C42.4,33.2,41.9,32.2,41.1,31.8z"/>
	<path fill="#4DA0D8" d="M44,32c0.5,0.1,0.9-0.1,1.3-0.4c0.4-0.3,0.6-0.7,0.8-1.1c0.4-0.8,0.7-1.8,0.8-2.7c-0.8,0.5-1.8,0.2-2.6,0.5
		c-0.9,0.3-1.5,1.1-1.5,2.1C42.8,31.1,43.3,31.9,44,32z"/>
	<path fill="#4DA0D8" d="M41.4,27.9c-0.8-0.4-1.8-0.2-2.5-0.8c0,0.9,0.1,1.9,0.5,2.8c0.2,0.4,0.4,0.9,0.7,1.2
		c0.3,0.3,0.8,0.6,1.2,0.6c0.7,0,1.3-0.8,1.4-1.5C42.8,29.3,42.2,28.3,41.4,27.9z"/>
	<path fill="#4DA0D8" d="M44.7,24.3c-0.9,0.3-1.5,1.1-1.5,2.1c0,0.8,0.5,1.6,1.2,1.7c0.5,0.1,0.9-0.1,1.3-0.4
		c0.4-0.3,0.6-0.7,0.8-1.1c0.4-0.8,0.7-1.8,0.8-2.7C46.6,24.4,45.6,24.1,44.7,24.3z"/>
	<path fill="#4DA0D8" d="M41.8,24.1c-0.8-0.4-1.8-0.2-2.5-0.8c0,0.9,0.1,1.9,0.5,2.8c0.2,0.4,0.4,0.9,0.7,1.2
		c0.3,0.3,0.8,0.6,1.2,0.6c0.7,0,1.3-0.8,1.4-1.5C43.1,25.4,42.6,24.4,41.8,24.1z"/>
	<path fill="#4DA0D8" d="M28.8,39.9c0.5,0.1,0.9-0.1,1.3-0.4c0.4-0.3,0.6-0.7,0.8-1.1c0.4-0.8,0.7-1.8,0.8-2.7
		c-0.8,0.5-1.8,0.2-2.6,0.5c-0.9,0.3-1.5,1.1-1.5,2.1C27.6,38.9,28.1,39.7,28.8,39.9z"/>
	<path fill="#4DA0D8" d="M26.2,35.8c-0.8-0.4-1.8-0.2-2.5-0.8c0,0.9,0.1,1.9,0.4,2.8c0.2,0.4,0.4,0.9,0.7,1.2
		c0.3,0.3,0.8,0.6,1.2,0.6c0.7,0,1.3-0.8,1.4-1.5C27.6,37.2,27,36.2,26.2,35.8z"/>
	<path fill="#4DA0D8" d="M29.5,19.3c-0.7,0.6-1.3,1.4-1.7,2.2c-0.2,0.4-0.4,0.9-0.4,1.3c0,0.5,0.1,1,0.4,1.3c0.5,0.5,1.5,0.4,2.1,0
		c0.7-0.5,1.1-1.6,0.8-2.5C30.4,20.8,29.6,20.2,29.5,19.3z"/>
	<path fill="#4DA0D8" d="M29.5,32.2c-0.9,0.3-1.5,1.1-1.5,2.1c0,0.8,0.5,1.6,1.2,1.7c0.5,0.1,0.9-0.1,1.3-0.4
		c0.4-0.3,0.6-0.7,0.8-1.1c0.4-0.8,0.7-1.8,0.8-2.7C31.4,32.2,30.4,32,29.5,32.2z"/>
	<path fill="#4DA0D8" d="M26.6,31.9c-0.8-0.4-1.8-0.2-2.5-0.8c0,0.9,0.1,1.9,0.4,2.8c0.2,0.4,0.4,0.9,0.7,1.2
		c0.3,0.3,0.8,0.6,1.2,0.6c0.7,0,1.3-0.8,1.4-1.5C27.9,33.3,27.4,32.3,26.6,31.9z"/>
	<path fill="#4DA0D8" d="M29.9,28.3c-0.9,0.3-1.5,1.1-1.5,2.1c0,0.8,0.5,1.6,1.2,1.7c0.5,0.1,0.9-0.1,1.3-0.4
		c0.4-0.3,0.6-0.7,0.8-1.1c0.4-0.8,0.7-1.8,0.8-2.7C31.7,28.4,30.7,28.1,29.9,28.3z"/>
	<path fill="#4DA0D8" d="M24.9,30c0.2,0.4,0.4,0.9,0.7,1.2c0.3,0.3,0.8,0.6,1.2,0.6c0.7,0,1.3-0.8,1.4-1.5c0.1-0.9-0.4-1.9-1.3-2.3
		c-0.8-0.4-1.8-0.2-2.5-0.8C24.4,28.2,24.6,29.1,24.9,30z"/>
	<path fill="#4DA0D8" d="M24.8,23.3c0,0.9,0.1,1.9,0.4,2.8c0.2,0.4,0.4,0.9,0.7,1.2c0.3,0.3,0.8,0.6,1.2,0.6c0.7,0,1.3-0.8,1.4-1.5
		c0.1-0.9-0.4-1.9-1.3-2.3C26.5,23.8,25.5,23.9,24.8,23.3z"/>
	<path fill="#4DA0D8" d="M18,42.1c0.4-0.2,0.7-0.6,0.9-1c0.1-0.4,0.1-0.9,0.1-1.4c-0.1-0.9-0.3-1.9-0.8-2.7
		c-0.4,0.8-1.4,1.1-1.9,1.8c-0.6,0.7-0.7,1.8-0.2,2.6C16.4,41.9,17.3,42.3,18,42.1z"/>
	<path fill="#4DA0D8" d="M7.6,28.5c0.2,0.4,0.6,0.8,1.1,0.8c0.7,0.2,1.5-0.4,1.7-1.1c0.3-0.9,0-1.9-0.7-2.5C9,25.2,8,25.1,7.5,24.3
		c-0.2,0.9-0.3,1.9-0.2,2.8C7.3,27.6,7.4,28.1,7.6,28.5z"/>
	<path fill="#4DA0D8" d="M17.1,37.5c0.1-0.4,0.1-0.9,0.1-1.4c-0.1-0.9-0.3-1.9-0.8-2.7c-0.4,0.8-1.4,1.1-1.9,1.8
		c-0.6,0.7-0.7,1.8-0.2,2.6c0.4,0.6,1.2,1.1,1.9,0.8C16.6,38.4,16.9,38,17.1,37.5z"/>
	<path fill="#4DA0D8" d="M12.7,31.8c-0.6,0.7-0.7,1.8-0.2,2.6c0.4,0.6,1.2,1.1,1.9,0.8c0.4-0.2,0.7-0.6,0.9-1
		c0.1-0.4,0.1-0.9,0.1-1.4c-0.1-0.9-0.3-1.9-0.8-2.7C14.2,30.8,13.2,31.1,12.7,31.8z"/>
	<path fill="#4DA0D8" d="M10.5,36.5c0.5,0.1,1,0.1,1.3-0.2c0.6-0.4,0.7-1.4,0.4-2c-0.4-0.8-1.4-1.3-2.3-1.2
		c-0.9,0.1-1.7,0.8-2.6,0.7c0.5,0.8,1.1,1.5,1.9,2.1C9.7,36.2,10.1,36.4,10.5,36.5z"/>
	<path fill="#4DA0D8" d="M10.9,28.3c-0.6,0.7-0.7,1.8-0.2,2.6c0.4,0.6,1.2,1.1,1.9,0.8c0.4-0.2,0.7-0.6,0.9-1
		c0.1-0.4,0.1-0.9,0.1-1.4c-0.1-0.9-0.3-1.9-0.8-2.7C12.4,27.3,11.5,27.6,10.9,28.3z"/>
	<path fill="#4DA0D8" d="M8.8,33.1c0.5,0.1,1,0.1,1.3-0.2c0.6-0.4,0.7-1.4,0.4-2c-0.4-0.8-1.4-1.3-2.3-1.2c-0.9,0.1-1.7,0.8-2.6,0.7
		c0.5,0.8,1.1,1.5,1.9,2.1C7.9,32.7,8.3,32.9,8.8,33.1z"/>
</g>
</svg>
