<?xml version="1.0" encoding="utf-8"?>
<!-- Generator: Adobe Illustrator 18.0.0, SVG Export Plug-In . SVG Version: 6.00 Build 0)  -->
<!DOCTYPE svg PUBLIC "-//W3C//DTD SVG 1.1//EN" "http://www.w3.org/Graphics/SVG/1.1/DTD/svg11.dtd">
<svg version="1.1" id="Layer_1" xmlns="http://www.w3.org/2000/svg" xmlns:xlink="http://www.w3.org/1999/xlink" x="0px" y="0px"
	 viewBox="0 0 72 72" enable-background="new 0 0 72 72" xml:space="preserve">
<g>
	<path fill="#E77528" d="M50.2,21.5c-2.9,0-5.7,0.6-7.7,2c-0.9,0.6-1.6,1.4-1.7,2.4c-0.1,0.5,0.1,1.1,0.6,1.5
		c0.3,0.2,0.6,0.4,0.9,0.5c1,0.4,1.9,0.8,2.9,1.1c-3.9,2.9-7,4-9,4.3c-3.4-9-3.1-16.2-3.1-16.2c-4,0,0.7,20,0.7,20
		c-6.9-3.9-18.2-1-18.2-1c15,0.4,19,6.1,19,6.1c2.1,6.9-1.4,29.1-1.4,29.1h5.7c4.6-12.4-0.5-33.2-0.5-33.2c-0.4-0.8-0.8-1.6-1.1-2.4
		c3.3-1,6.3-3.7,8.3-6c0,0.5,0,0.9,0.2,1.4c0.1,0.2,0.2,0.4,0.3,0.6c0.2,0.2,0.4,0.3,0.7,0.4c1.7,0.7,3.7,0.9,5.3,0.3
		c1.6-0.6,2.6-1.8,3.9-2.6c0.6-0.4,1.3-0.7,1.8-1.2c0.6-0.5,1.1-1.1,1.5-1.7c0.4-0.6,0.8-1.2,1.1-1.9c0.5-1.3,0.5-2.8,1.5-3.7
		c-1.2,0.2-2.6,0.3-3.9,0.4C55.4,21.9,52.8,21.5,50.2,21.5z"/>
	<path fill="#294E58" d="M45.9,11.5c1.7-0.4,3-2,3-3.7c0.1-1.7-0.8-3.3-0.3-4.9c-1.6,0.6-3.2,1.5-4.5,2.7c-0.7,0.6-1.3,1.2-1.7,2
		c-0.4,0.8-0.5,1.7-0.1,2.5C42.9,11.3,44.5,11.9,45.9,11.5z"/>
	<path fill="#294E58" d="M63.1,9.8c-1.6,0.6-3.2,1.5-4.5,2.7c-0.7,0.6-1.3,1.2-1.7,2c-0.4,0.8-0.5,1.7-0.1,2.5
		c0.6,1.3,2.2,1.8,3.6,1.4c1.7-0.4,3-2,3-3.7C63.6,13.1,62.6,11.4,63.1,9.8z"/>
	<path fill="#294E58" d="M48.2,18.7c0.7,1.4,2.4,2.1,3.8,1.8c1.7-0.4,2.9-2,2.8-3.8c0-1.8-1.1-3.7-0.7-5.4c-1.6,0.5-3.1,1.4-4.4,2.6
		c-0.6,0.6-1.2,1.2-1.6,2.1C47.8,16.8,47.8,17.8,48.2,18.7z"/>
	<path fill="#294E58" d="M48.6,35.7c-1.6,0.6-3.2,1.5-4.5,2.7c-0.7,0.6-1.3,1.2-1.7,2c-0.4,0.8-0.5,1.7-0.1,2.5
		c0.6,1.3,2.2,1.8,3.6,1.4c1.7-0.4,3-2,3-3.7C49.1,38.9,48.1,37.3,48.6,35.7z"/>
	<path fill="#294E58" d="M23.5,10.1c1.3,0.6,2.8-0.1,3.6-1.3c1-1.4,0.9-3.5-0.2-4.8c-1-1.3-2.8-2-3.5-3.5c-0.8,1.5-1.4,3.2-1.6,5
		c-0.1,0.9-0.2,1.8,0.1,2.6C22.2,8.9,22.7,9.7,23.5,10.1z"/>
	<path fill="#294E58" d="M35.3,13.3c1.5-0.8,2.5-2.6,2.2-4.3c-0.3-1.6-1.5-3.1-1.3-4.7c-1.5,0.9-2.8,2.2-3.8,3.6
		c-0.5,0.7-1,1.5-1.2,2.3c-0.2,0.8-0.1,1.8,0.4,2.5C32.3,13.8,34,13.9,35.3,13.3z"/>
	<path fill="#294E58" d="M22.8,20.4c0.5,0.7,1.3,1.2,2.2,1.3c1.4,0.1,2.6-1.2,2.9-2.5c0.4-1.7-0.4-3.5-1.9-4.4
		c-1.4-0.8-3.3-0.8-4.5-2c-0.2,1.7-0.1,3.5,0.3,5.2C22,18.9,22.3,19.7,22.8,20.4z"/>
	<path fill="#294E58" d="M36.9,16.9c-0.7,0.6-1.3,1.2-1.7,2c-0.4,0.8-0.5,1.7-0.1,2.5c0.6,1.3,2.2,1.8,3.6,1.4c1.7-0.4,3-2,3-3.7
		c0.1-1.7-0.8-3.3-0.3-4.9C39.7,14.8,38.2,15.7,36.9,16.9z"/>
	<path fill="#294E58" d="M13.4,28.3c-1.6-0.5-3.4,0-4.8-0.9c0.2,1.7,0.7,3.5,1.5,5c0.4,0.8,0.9,1.5,1.5,2.1c0.7,0.6,1.6,0.9,2.4,0.8
		c1.4-0.2,2.3-1.7,2.3-3.1C16.2,30.4,15,28.8,13.4,28.3z"/>
	<path fill="#294E58" d="M24,32.6c0.7,0.5,1.6,0.9,2.4,0.7c1.4-0.3,2.2-1.8,2.2-3.2c-0.1-1.7-1.3-3.3-3-3.8
		c-1.6-0.4-3.4,0.1-4.9-0.7c0.2,1.7,0.8,3.4,1.6,5C22.8,31.3,23.3,32.1,24,32.6z"/>
	<path fill="#294E58" d="M14.8,23.8c1.2,0.6,2.9,0,3.7-1.2c1-1.4,1-3.4,0-4.8c-1-1.3-2.8-2-3.4-3.6c-0.9,1.5-1.5,3.2-1.8,4.9
		c-0.1,0.9-0.2,1.8,0,2.6C13.5,22.6,14.1,23.4,14.8,23.8z"/>
</g>
</svg>
