<?xml version="1.0" encoding="utf-8"?>
<!-- Generator: Adobe Illustrator 18.0.0, SVG Export Plug-In . SVG Version: 6.00 Build 0)  -->
<!DOCTYPE svg PUBLIC "-//W3C//DTD SVG 1.1//EN" "http://www.w3.org/Graphics/SVG/1.1/DTD/svg11.dtd">
<svg version="1.1" id="Layer_1" xmlns="http://www.w3.org/2000/svg" xmlns:xlink="http://www.w3.org/1999/xlink" x="0px" y="0px"
	 viewBox="0 0 48 48" enable-background="new 0 0 48 48" xml:space="preserve">
<g>
	<path fill="#06728D" d="M1.5,6.7c-0.5,0-1,0.4-1,1v10c0,0.5,0.4,1,1,1c0.5,0,1-0.4,1-1v-10C2.5,7.2,2,6.7,1.5,6.7z"/>
	<path fill="#06728D" d="M46.5,6.7c-0.5,0-1,0.4-1,1v10c0,0.5,0.4,1,1,1c0.5,0,1-0.4,1-1v-10C47.5,7.2,47.1,6.7,46.5,6.7z"/>
	<path fill="#4DA0D8" d="M23,1H10.7C7.8,1,5.4,3.9,5.4,7.5v15.6H23V1z"/>
	<path fill="#4DA0D8" d="M37.3,1H25v22.1h17.6V7.5C42.6,3.9,40.2,1,37.3,1z"/>
	<path fill="#F04B36" d="M5.4,35.4c0,3,1.7,5.5,3.9,6.3v3.9c0,0.8,0.7,1.5,1.5,1.5c0.8,0,1.5-0.7,1.5-1.5v-3.7h23.4v3.7
		c0,0.8,0.7,1.5,1.5,1.5c0.8,0,1.5-0.7,1.5-1.5v-3.9c2.3-0.7,3.9-3.3,3.9-6.3V25H5.4V35.4z M34.8,29.3c1.8,0,3.2,1.5,3.2,3.4
		c0,1.9-1.4,3.4-3.2,3.4c-1.8,0-3.2-1.5-3.2-3.4C31.6,30.8,33,29.3,34.8,29.3z M21,31.7H27c0.5,0,1,0.4,1,1c0,0.5-0.4,1-1,1H21
		c-0.5,0-1-0.4-1-1C20,32.1,20.4,31.7,21,31.7z M13.2,29.3c1.8,0,3.2,1.5,3.2,3.4c0,1.9-1.4,3.4-3.2,3.4c-1.8,0-3.2-1.5-3.2-3.4
		C10,30.8,11.5,29.3,13.2,29.3z"/>
</g>
</svg>
