<?xml version="1.0" encoding="utf-8"?>
<!-- Generator: Adobe Illustrator 18.0.0, SVG Export Plug-In . SVG Version: 6.00 Build 0)  -->
<!DOCTYPE svg PUBLIC "-//W3C//DTD SVG 1.1//EN" "http://www.w3.org/Graphics/SVG/1.1/DTD/svg11.dtd">
<svg version="1.1" id="Layer_1" xmlns="http://www.w3.org/2000/svg" xmlns:xlink="http://www.w3.org/1999/xlink" x="0px" y="0px"
	 viewBox="0 0 48 48" enable-background="new 0 0 48 48" xml:space="preserve">
<g>
	<path fill="#0DB89A" d="M40.5,0.5h-33c-3.9,0-7,3.1-7,7V33c0,3,1.9,5.7,4.8,6.7c0,0,0.1,0,0.1,0c0.6,2.2,2.4,3.9,4.6,4.1v2.7
		c0,0.6,0.5,1,1,1c0.6,0,1-0.5,1-1v-2.7h24v2.7c0,0.6,0.5,1,1,1c0.6,0,1-0.5,1-1v-2.7c2.1-0.2,3.9-1.9,4.6-4.1
		c0.3-0.1,0.6-0.2,0.9-0.3c2.4-1.2,4-3.6,4-6.3V7.6C47.5,3.7,44.4,0.5,40.5,0.5z M13.3,38c-1.7,0-3.2-1.4-3.2-3.1
		c0-1.7,1.4-3.1,3.2-3.1c1.7,0,3.2,1.4,3.2,3.1C16.5,36.6,15.1,38,13.3,38z M27,35.9h-6c-0.6,0-1-0.5-1-1s0.5-1,1-1h6
		c0.6,0,1,0.5,1,1S27.6,35.9,27,35.9z M34.7,38c-1.7,0-3.2-1.4-3.2-3.1c0-1.7,1.4-3.1,3.2-3.1c1.7,0,3.2,1.4,3.2,3.1
		C37.8,36.6,36.4,38,34.7,38z M45.5,33c0,1.8-1,3.5-2.6,4.4v-8.7H5.1v8.7c-1.6-0.9-2.6-2.5-2.6-4.4V7.6c0-2.7,2.2-5,5-5h33
		c2.7,0,5,2.2,5,5V33z"/>
	<path fill="#CFD0D1" d="M25,26.6h17.8V11.5c0-3.3-2.3-5.9-5.2-5.9H25V26.6z"/>
	<path fill="#CFD0D1" d="M23,26.6v-21H10.4c-2.9,0-5.2,2.7-5.2,5.9v15.1H23z"/>
</g>
</svg>
