<?xml version="1.0" encoding="utf-8"?>
<!-- Generator: Adobe Illustrator 18.0.0, SVG Export Plug-In . SVG Version: 6.00 Build 0)  -->
<!DOCTYPE svg PUBLIC "-//W3C//DTD SVG 1.1//EN" "http://www.w3.org/Graphics/SVG/1.1/DTD/svg11.dtd">
<svg version="1.1" id="Layer_1" xmlns="http://www.w3.org/2000/svg" xmlns:xlink="http://www.w3.org/1999/xlink" x="0px" y="0px"
	 viewBox="0 0 48 48" enable-background="new 0 0 48 48" xml:space="preserve">
<g>
	<path fill="#294E58" d="M1.5,14.4c-0.5,0-1,0.4-1,1v5.7c0,0.5,0.4,1,1,1c0.5,0,1-0.4,1-1v-5.7C2.5,14.9,2,14.4,1.5,14.4z"/>
	<path fill="#294E58" d="M46.5,14.4c-0.5,0-1,0.4-1,1v5.7c0,0.5,0.4,1,1,1c0.5,0,1-0.4,1-1v-5.7C47.5,14.9,47.1,14.4,46.5,14.4z"/>
	<path fill="#F04B36" d="M5.2,32.1c0,3.9,1.9,7.4,4.7,9.1v3.3c0,0.8,0.7,1.5,1.5,1.5c0.8,0,1.5-0.7,1.5-1.5v-2.3
		c0.3,0,0.6,0.1,0.9,0.1h20.5c0.3,0,0.6,0,0.9-0.1v2.3c0,0.8,0.7,1.5,1.5,1.5c0.8,0,1.5-0.7,1.5-1.5v-3.3c2.8-1.7,4.7-5.1,4.7-9.1
		v-6H5.2V32.1z M34.3,31.1c1.7,0,3.1,1.3,3.1,2.9c0,1.6-1.4,2.9-3.1,2.9c-1.7,0-3.1-1.3-3.1-2.9C31.3,32.4,32.7,31.1,34.3,31.1z
		 M21.1,33h5.8c0.5,0,1,0.4,1,1c0,0.5-0.4,1-1,1h-5.8c-0.5,0-1-0.4-1-1C20.1,33.5,20.5,33,21.1,33z M13.7,31.1
		c1.7,0,3.1,1.3,3.1,2.9c0,1.6-1.4,2.9-3.1,2.9c-1.7,0-3.1-1.3-3.1-2.9C10.6,32.4,12,31.1,13.7,31.1z"/>
	<path fill="#FFD69A" d="M26,2.1h-4c-9.3,0-16.8,9-16.8,20.1v2h37.5v-2C42.8,11.1,35.2,2.1,26,2.1z"/>
</g>
</svg>
