<?xml version="1.0" encoding="utf-8"?>
<!-- Generator: Adobe Illustrator 18.0.0, SVG Export Plug-In . SVG Version: 6.00 Build 0)  -->
<!DOCTYPE svg PUBLIC "-//W3C//DTD SVG 1.1//EN" "http://www.w3.org/Graphics/SVG/1.1/DTD/svg11.dtd">
<svg version="1.1" id="Layer_1" xmlns="http://www.w3.org/2000/svg" xmlns:xlink="http://www.w3.org/1999/xlink" x="0px" y="0px"
	 viewBox="0 0 48 48" enable-background="new 0 0 48 48" xml:space="preserve">
<g>
	<path fill="#06728D" d="M35.9,40.5c0.3-0.2,0.5-0.4,0.8-0.6c0.9-0.9,1.3-2.1,1.2-3.4L37.1,18c-0.1-2.6-2.2-4.7-4.7-4.7H15.6
		c-2.5,0-4.6,2.1-4.7,4.7l-0.8,18.5c-0.1,1.3,0.4,2.5,1.2,3.4c0.2,0.2,0.5,0.4,0.8,0.6L6.9,45c-0.6,0.5-0.7,1.4-0.2,2
		c0.3,0.3,0.7,0.5,1.1,0.5c0.3,0,0.7-0.1,0.9-0.3l0.9-0.8h28.7l0.9,0.8c0.3,0.2,0.6,0.3,0.9,0.3c0.4,0,0.8-0.2,1.1-0.5
		c0.5-0.6,0.4-1.5-0.2-2L35.9,40.5z M16,20.5c0-1,0.7-1.7,1.7-1.7h12.7c0.9,0,1.7,0.8,1.7,1.7v7.2c0,1-0.7,1.7-1.7,1.7H17.7
		c-0.9,0-1.7-0.8-1.7-1.7V20.5z M13.1,43.5l2.7-2.3h16.5l2.7,2.3H13.1z"/>
	<path fill="#294E58" d="M24,0.5C11,0.5,0.5,11.4,0.5,24.7c0,5.3,1.7,10.5,4.9,14.7h3.4c-0.4-0.9-0.6-2-0.6-3L9,17.9
		c0.2-3.6,3.1-6.5,6.7-6.5h16.7c3.5,0,6.5,2.9,6.7,6.5l0.8,18.5c0,1.1-0.2,2.1-0.6,3h3.5c3.1-4.2,4.8-9.4,4.8-14.7
		C47.5,11.4,37,0.5,24,0.5z"/>
</g>
</svg>
