<?xml version="1.0" encoding="utf-8"?>
<!-- Generator: Adobe Illustrator 18.0.0, SVG Export Plug-In . SVG Version: 6.00 Build 0)  -->
<!DOCTYPE svg PUBLIC "-//W3C//DTD SVG 1.1//EN" "http://www.w3.org/Graphics/SVG/1.1/DTD/svg11.dtd">
<svg version="1.1" id="Layer_1" xmlns="http://www.w3.org/2000/svg" xmlns:xlink="http://www.w3.org/1999/xlink" x="0px" y="0px"
	 viewBox="0 0 48 48" enable-background="new 0 0 48 48" xml:space="preserve">
<g>
	<rect x="15.5" y="10.8" fill="none" width="17" height="9.7"/>
	<path fill="#F7A93B" d="M24,41c3.4,0,6.5-3.9,8.8-8.9l1.3-3.1c2.1-5.4,3.4-11.4,3.4-14.9c0-7.5-6.1-13.6-13.6-13.6
		c-7.5,0-13.6,6.1-13.6,13.6c0,3.5,1.3,9.5,3.4,14.9l1.3,3.1C17.5,37.1,20.6,41,24,41z M15.5,10.8h17v9.7h-17V10.8z"/>
	<path fill="#294E58" d="M34.4,29.2c-0.1-0.1-0.1-0.1-0.2-0.2l-1.3,3.1l6.9,9.4H8.3l6.9-9.4L13.8,29c-0.1,0.1-0.1,0.1-0.2,0.2
		l-11.7,16c-0.5,0.7-0.3,1.6,0.3,2.1c0.3,0.2,0.6,0.3,0.9,0.3c0.5,0,0.9-0.2,1.2-0.6l1.9-2.5c0.1,0,0.3,0.1,0.4,0.1h34.8
		c0.1,0,0.3,0,0.4-0.1l1.9,2.5c0.3,0.4,0.7,0.6,1.2,0.6c0.3,0,0.6-0.1,0.9-0.3c0.7-0.5,0.8-1.4,0.3-2.1L34.4,29.2z"/>
</g>
</svg>
