<?xml version="1.0" encoding="utf-8"?>
<!-- Generator: Adobe Illustrator 18.0.0, SVG Export Plug-In . SVG Version: 6.00 Build 0)  -->
<!DOCTYPE svg PUBLIC "-//W3C//DTD SVG 1.1//EN" "http://www.w3.org/Graphics/SVG/1.1/DTD/svg11.dtd">
<svg version="1.1" id="Layer_1" xmlns="http://www.w3.org/2000/svg" xmlns:xlink="http://www.w3.org/1999/xlink" x="0px" y="0px"
	 viewBox="0 0 48 48" enable-background="new 0 0 48 48" xml:space="preserve">
<g>
	<path fill="none" d="M14,24h20c1.5,0,2.8-1.2,2.8-2.8v-11c0-1.5-1.2-2.8-2.8-2.8H14c-1.5,0-2.8,1.2-2.8,2.8v11
		C11.2,22.8,12.5,24,14,24z"/>
	<path fill="#F04B36" d="M36.5,38.7l2.7-0.3c0.9-0.3,1.7-0.8,2.4-1.5c1.1-1.2,1.7-2.8,1.6-4.4L42.2,7.6c-0.1-3.4-3.1-6.2-6.5-6.2
		H12.4C8.9,1.4,6,4.2,5.8,7.6L4.8,32.5c-0.1,1.7,0.5,3.2,1.6,4.4c0.7,0.7,1.5,1.2,2.4,1.5l2.7,0.3H36.5z M11.2,10.3
		c0-1.5,1.2-2.8,2.8-2.8h20c1.5,0,2.8,1.2,2.8,2.8v11c0,1.5-1.2,2.8-2.8,2.8H14c-1.5,0-2.8-1.2-2.8-2.8V10.3z"/>
	<path fill="#0DB89A" d="M39.2,38.4l-2.7,0.3l5.4,4.5H6.1l5.4-4.5l-2.7-0.3l-7.9,6.5c-0.4,0.3-0.5,1-0.1,1.4
		c0.2,0.2,0.5,0.4,0.8,0.4c0.2,0,0.4-0.1,0.6-0.2l1.6-1.3h40.6l1.6,1.3c0.2,0.2,0.4,0.2,0.6,0.2c0.3,0,0.6-0.1,0.8-0.4
		c0.3-0.4,0.3-1-0.1-1.4L39.2,38.4z"/>
</g>
</svg>
