<?xml version="1.0" encoding="utf-8"?>
<!-- Generator: Adobe Illustrator 18.0.0, SVG Export Plug-In . SVG Version: 6.00 Build 0)  -->
<!DOCTYPE svg PUBLIC "-//W3C//DTD SVG 1.1//EN" "http://www.w3.org/Graphics/SVG/1.1/DTD/svg11.dtd">
<svg version="1.1" id="Layer_1" xmlns="http://www.w3.org/2000/svg" xmlns:xlink="http://www.w3.org/1999/xlink" x="0px" y="0px"
	 viewBox="0 0 48 48" enable-background="new 0 0 48 48" xml:space="preserve">
<g>
	<path fill="#4DA0D8" d="M46.5,20.5H29.8c-0.5-1.5-1.4-2.8-2.5-3.6h4c0.5,0,1-0.4,1-1c0-0.5-0.4-1-1-1H25v-3.6c0-0.5-0.4-1-1-1
		s-1,0.4-1,1v3.6h-6.3c-0.5,0-1,0.4-1,1c0,0.5,0.4,1,1,1h4c-1.1,0.9-2,2.1-2.5,3.6H1.5c-0.5,0-1,0.4-1,1c0,0.5,0.4,1,1,1h4.7
		c-0.2,0.4-0.3,0.8-0.3,1.3c0,1.5,1.2,2.8,2.8,2.8c1.5,0,2.8-1.2,2.8-2.8c0-0.5-0.1-0.9-0.3-1.3h6.8c0,0.2,0,0.4,0,0.6
		c0,4,2.8,7.3,6.2,7.3c3.4,0,6.2-3.3,6.2-7.3c0-0.2,0-0.4,0-0.6H37c-0.2,0.4-0.3,0.8-0.3,1.3c0,1.5,1.2,2.8,2.8,2.8
		c1.5,0,2.8-1.2,2.8-2.8c0-0.5-0.1-0.9-0.3-1.3h4.7c0.5,0,1-0.4,1-1C47.5,20.9,47.1,20.5,46.5,20.5z M24.4,22.4h-0.9
		c-0.5,0-1-0.4-1-1c0-0.5,0.4-1,1-1h0.9c0.5,0,1,0.4,1,1C25.4,22,25,22.4,24.4,22.4z"/>
	<path fill="#F04B36" d="M24,33c-0.5,0-1,0.4-1,1v2.7c0,0.5,0.4,1,1,1s1-0.4,1-1V34C25,33.5,24.5,33,24,33z"/>
	<path fill="#F04B36" d="M11.8,30.3c-0.5,0-1,0.4-1,1V34c0,0.5,0.4,1,1,1c0.5,0,1-0.4,1-1v-2.7C12.8,30.8,12.3,30.3,11.8,30.3z"/>
	<path fill="#F04B36" d="M15.3,30.3c-0.5,0-1,0.4-1,1V34c0,0.5,0.4,1,1,1c0.5,0,1-0.4,1-1v-2.7C16.3,30.8,15.9,30.3,15.3,30.3z"/>
	<path fill="#F04B36" d="M34,30.3c-0.5,0-1,0.4-1,1V34c0,0.5,0.4,1,1,1c0.5,0,1-0.4,1-1v-2.7C35,30.8,34.6,30.3,34,30.3z"/>
	<path fill="#F04B36" d="M37.6,30.3c-0.5,0-1,0.4-1,1V34c0,0.5,0.4,1,1,1c0.5,0,1-0.4,1-1v-2.7C38.5,30.8,38.1,30.3,37.6,30.3z"/>
</g>
</svg>
