<?xml version="1.0" encoding="utf-8"?>
<!-- Generator: Adobe Illustrator 18.0.0, SVG Export Plug-In . SVG Version: 6.00 Build 0)  -->
<!DOCTYPE svg PUBLIC "-//W3C//DTD SVG 1.1//EN" "http://www.w3.org/Graphics/SVG/1.1/DTD/svg11.dtd">
<svg version="1.1" id="Layer_1" xmlns="http://www.w3.org/2000/svg" xmlns:xlink="http://www.w3.org/1999/xlink" x="0px" y="0px"
	 viewBox="0 0 48 48" enable-background="new 0 0 48 48" xml:space="preserve">
<g>
	<path fill="#06728D" d="M37.1,37.7c0.6-1.7,0.8-3.5,0.7-5.3H10.2c0,1.8,0.1,3.7,0.7,5.3c-2.2,0.5-7.7,2.4-8.9,8.2
		c-0.2,0.8,0.3,1.5,1.1,1.7c0.1,0,0.2,0,0.3,0c0.7,0,1.3-0.5,1.4-1.2c1.1-5.2,7.1-6,7.4-6.1c0,0,0.1,0,0.1,0
		c0.1,0.1,0.2,0.2,0.3,0.4c2.2,2.6,6.1,3.9,11.5,3.9c5.3,0,9.1-1.3,11.3-3.8c0.1-0.1,0.2-0.3,0.3-0.4c0,0,0.1,0,0.1,0
		c0.3,0,6.3,0.9,7.4,6.1c0.1,0.7,0.7,1.2,1.4,1.2c0.1,0,0.2,0,0.3,0c0.8-0.2,1.3-0.9,1.1-1.7C44.8,40,39.3,38.2,37.1,37.7z"/>
	<path fill="#294E58" d="M46.1,4.5H25.7V1.8c0-0.8-0.6-1.4-1.4-1.4c-0.8,0-1.4,0.6-1.4,1.4v2.6H1.9c-0.8,0-1.4,0.6-1.4,1.4
		c0,0.8,0.6,1.4,1.4,1.4h20.9v3.1c-4.8,0.4-8.9,3.3-10.6,7.2h23.6c-1.7-3.8-5.5-6.6-10.1-7.1V7.3h20.3c0.8,0,1.4-0.6,1.4-1.4
		C47.5,5.1,46.9,4.5,46.1,4.5z"/>
	<path fill="#4DA0D8" d="M37.2,25.9c-0.2-1.6-0.4-3-0.4-4.1c0-0.8-0.1-1.5-0.2-2.2H11.6c-0.2,0.7-0.2,1.5-0.2,2.2
		c0,1.1-0.2,2.5-0.5,4.2c-0.2,1.4-0.4,2.9-0.6,4.4h27.4C37.6,28.8,37.4,27.3,37.2,25.9z"/>
</g>
</svg>
