<?xml version="1.0" encoding="utf-8"?>
<!-- Generator: Adobe Illustrator 18.0.0, SVG Export Plug-In . SVG Version: 6.00 Build 0)  -->
<!DOCTYPE svg PUBLIC "-//W3C//DTD SVG 1.1//EN" "http://www.w3.org/Graphics/SVG/1.1/DTD/svg11.dtd">
<svg version="1.1" id="Layer_1" xmlns="http://www.w3.org/2000/svg" xmlns:xlink="http://www.w3.org/1999/xlink" x="0px" y="0px"
	 viewBox="0 0 48 48" enable-background="new 0 0 48 48" xml:space="preserve">
<g>
	<path fill="#4DA0D8" d="M12.7,38.2L7.5,46c-0.2,0.3-0.2,0.7-0.1,1c0.2,0.3,0.5,0.5,0.9,0.5h9c0-0.2,0-0.3,0.1-0.5l1.5-5.1
		C16.5,41.1,14.4,39.8,12.7,38.2z"/>
	<path fill="#4DA0D8" d="M35.3,38.2c-1.7,1.6-3.8,2.9-6.1,3.7l1.5,5.1c0,0.2,0.1,0.3,0.1,0.5h9c0.4,0,0.7-0.2,0.9-0.5
		c0.2-0.3,0.2-0.7-0.1-1L35.3,38.2z"/>
	<path fill="#E77528" d="M24,42.7c-0.8,0-1.5-0.1-2.3-0.2l-1.4,4.9h7.4l-1.4-4.9C25.5,42.7,24.8,42.7,24,42.7z"/>
	<path fill="none" d="M24,21.5c-1.4,0-2.7,0.6-3.6,1.6c-0.8,0.9-1.3,2.1-1.3,3.3c0,2.7,2.2,4.9,4.9,4.9c2.7,0,4.9-2.2,4.9-4.9
		C28.9,23.6,26.7,21.5,24,21.5z"/>
	<path fill="#F04B36" d="M36.1,18.2l-3-3c-2.1-1.8-4.8-2.9-7.7-3.2V8.4c0-0.8-0.7-1.5-1.5-1.5c-0.8,0-1.5,0.7-1.5,1.5V12
		c-2.8,0.3-5.5,1.4-7.7,3.2l-3,3c0,0.1,0,0.2,0,0.3c-1.5,2.3-2.3,5-2.3,7.8c0,8,6.5,14.4,14.4,14.4c8,0,14.4-6.5,14.4-14.4
		c0-2.9-0.9-5.6-2.3-7.8C36.1,18.4,36.1,18.3,36.1,18.2z M24,31.2c-2.7,0-4.9-2.2-4.9-4.9c0-1.2,0.4-2.4,1.3-3.3
		c0.9-1,2.2-1.6,3.6-1.6c2.7,0,4.9,2.2,4.9,4.9C28.9,29,26.7,31.2,24,31.2z"/>
	<path fill="#294E58" d="M14.8,3.5h18.3v11.7l3,3V3.5h4.3c0.8,0,1.5-0.7,1.5-1.5c0-0.8-0.7-1.5-1.5-1.5H7.6C6.8,0.5,6.1,1.2,6.1,2
		c0,0.8,0.7,1.5,1.5,1.5h4.3v14.7l3-3V3.5z"/>
</g>
</svg>
