<?xml version="1.0" encoding="utf-8"?>
<!-- Generator: Adobe Illustrator 18.0.0, SVG Export Plug-In . SVG Version: 6.00 Build 0)  -->
<!DOCTYPE svg PUBLIC "-//W3C//DTD SVG 1.1//EN" "http://www.w3.org/Graphics/SVG/1.1/DTD/svg11.dtd">
<svg version="1.1" id="Layer_1" xmlns="http://www.w3.org/2000/svg" xmlns:xlink="http://www.w3.org/1999/xlink" x="0px" y="0px"
	 viewBox="0 0 48 48" enable-background="new 0 0 48 48" xml:space="preserve">
<g>
	<path fill="#4DA0D8" d="M40.5,43.7c-0.4-0.4-1-0.4-1.4,0c-1.5,1.4-3.2,1.7-5.4,1c-0.5-0.2-0.9-0.3-1.3-0.5c-1.6-0.7-3.1-1.3-5.4,0
		c-1,0.6-1.7,0.8-2.6,0.7c-0.4-0.1-0.8-0.2-1.3-0.4c-0.5-0.2-1-0.4-1.6-0.5c-2.4-0.4-4.6,0.2-6.7,0.8c-2.2,0.6-4.2,1.2-6.3,0.5
		C8,45,7.4,45.3,7.2,45.8c-0.2,0.5,0.1,1.1,0.7,1.3c0.9,0.3,1.8,0.4,2.6,0.4c1.7,0,3.3-0.5,4.9-0.9c2-0.6,3.8-1.1,5.8-0.7
		c0.4,0.1,0.8,0.2,1.2,0.4c0.5,0.2,1.1,0.5,1.8,0.6c1.5,0.2,2.6-0.2,3.9-0.9c1.4-0.8,2.2-0.5,3.6,0.1c0.4,0.2,0.9,0.4,1.4,0.6
		c2.8,1,5.4,0.5,7.4-1.4C40.9,44.7,40.9,44.1,40.5,43.7z"/>
	<path fill="#4DA0D8" d="M15.5,40.6c0,0.3,0.2,0.4,0.5,0.4h7v-23c-2.9,5.4-12.6,8.3-12.7,8.3c-0.2,0-0.3,0.2-0.3,0.3
		c0,0.2,0,0.3,0.1,0.5C14.5,32.4,15.5,40.5,15.5,40.6z"/>
	<path fill="#0DB89A" d="M25,18.1v23h7c0.3,0,0.5-0.2,0.5-0.4c0-0.1,1-8.2,5.4-13.4c0.1-0.1,0.2-0.3,0.1-0.5c0-0.2-0.2-0.3-0.3-0.3
		C37.6,26.4,27.9,23.5,25,18.1z"/>
	<path fill="#E77528" d="M21.9,17.5l4.2,0c1.4,2.7,5,4.8,8,6.2V12.9c0-0.1-0.1-0.3-0.3-0.3H25V1.5c0-0.6-0.5-1-1-1c-0.6,0-1,0.5-1,1
		v11.1h-8.8c-0.1,0-0.3,0.1-0.3,0.3v10.8C16.9,22.3,20.5,20.2,21.9,17.5z"/>
</g>
</svg>
