<?xml version="1.0" encoding="utf-8"?>
<!-- Generator: Adobe Illustrator 18.0.0, SVG Export Plug-In . SVG Version: 6.00 Build 0)  -->
<!DOCTYPE svg PUBLIC "-//W3C//DTD SVG 1.1//EN" "http://www.w3.org/Graphics/SVG/1.1/DTD/svg11.dtd">
<svg version="1.1" id="Layer_1" xmlns="http://www.w3.org/2000/svg" xmlns:xlink="http://www.w3.org/1999/xlink" x="0px" y="0px"
	 viewBox="0 0 48 48" enable-background="new 0 0 48 48" xml:space="preserve">
<g>
	<path fill="#0DB89A" d="M46.5,40.9c-1.4,0-2.8-0.4-4.2-0.8c-1.9-0.5-3.9-1.1-6.3-0.7c-0.1,0-0.1,0-0.2,0c1.9-6.7,6.9-10,7-10
		c0.1-0.1,0.1-0.2,0.1-0.3c0-0.1-0.1-0.2-0.3-0.2L8,31.7l-3.2,0.5c-0.1,0-0.1,0.1-0.2,0.1c0,0.1,0,0.2,0,0.2L9.4,41
		c-0.3,0.1-0.6,0.1-1,0.1c-2.4,0.1-4.3-0.4-6.6-1.2c-0.5-0.2-1.1,0.1-1.2,0.6c-0.2,0.5,0.1,1.1,0.6,1.2c2.3,0.8,4.3,1.3,6.8,1.3
		c0.2,0,0.4,0,0.5,0c1.8-0.1,2.9-0.6,3.9-1.2c0.5-0.3,1.1-0.6,1.8-0.8c3.8-1.3,9.1,0.2,10.7,0.7l0.8,0.3c1.7,0.6,3.3,1.1,5.5,0.8
		c1.1-0.1,2-0.5,3-0.8c0.7-0.3,1.4-0.5,2.1-0.7c2-0.3,3.7,0.2,5.5,0.7c1.5,0.4,3,0.8,4.7,0.8c0,0,0,0,0,0c0.5,0,1-0.4,1-1
		C47.5,41.4,47.1,40.9,46.5,40.9z"/>
	<path fill="#F7A93B" d="M16.7,26.1c0-0.1-0.1-0.2-0.2-0.2H8.1c-0.1,0-0.2,0.1-0.2,0.2v3.6l8.8-0.7V26.1z"/>
	<path fill="#F04B36" d="M18.7,26.1v2.8l16.4-1.3V19c0-0.1-0.1-0.2-0.2-0.2h-12V5.9c0-0.5-0.4-1-1-1c-0.5,0-1,0.4-1,1v12.9h-6.3
		c-0.1,0-0.2,0.1-0.2,0.2v4.9h2.1C17.7,23.9,18.7,24.9,18.7,26.1z M28.1,23.9c0-0.5,0.4-1,1-1c0.5,0,1,0.4,1,1v1.8c0,0.5-0.4,1-1,1
		c-0.5,0-1-0.4-1-1V23.9z M21.1,23.9c0-0.5,0.4-1,1-1c0.5,0,1,0.4,1,1v1.8c0,0.5-0.4,1-1,1c-0.5,0-1-0.4-1-1V23.9z"/>
</g>
</svg>
