<?xml version="1.0" encoding="utf-8"?>
<!-- Generator: Adobe Illustrator 18.0.0, SVG Export Plug-In . SVG Version: 6.00 Build 0)  -->
<!DOCTYPE svg PUBLIC "-//W3C//DTD SVG 1.1//EN" "http://www.w3.org/Graphics/SVG/1.1/DTD/svg11.dtd">
<svg version="1.1" id="Layer_1" xmlns="http://www.w3.org/2000/svg" xmlns:xlink="http://www.w3.org/1999/xlink" x="0px" y="0px"
	 viewBox="0 0 48 48" enable-background="new 0 0 48 48" xml:space="preserve">
<g>
	<path fill="#E77528" d="M26.7,30.9l16.9-1.6c0.3,0,0.5-0.3,0.4-0.5c0-0.2-1.8-17-18.5-25.1c-0.1-0.1-0.3-0.1-0.4,0
		c-0.1,0.1-0.2,0.2-0.3,0.3c0,0.2-4.7,23.6-15.1,27.6c-0.2,0.1-0.4,0.3-0.3,0.6c0.1,0.2,0.3,0.4,0.5,0.4c0,0,0,0,0,0l13.8-1.3v5
		l3-0.3V30.9z"/>
	<path fill="#4DA0D8" d="M46.5,40.6c-1.1,0-2,0.5-3,0.9c-0.6,0.3-1.2,0.6-1.7,0.7c-0.9,0.2-1.8-0.1-2.8-0.5l0.3,0
		c0.1,0,0.2-0.1,0.3-0.2l7.4-9c0.1-0.2,0.1-0.4,0-0.6c-0.1-0.2-0.4-0.2-0.6-0.2c-5.5,2.2-13,3.5-19.9,4.3l-3,0.3
		C14.6,37.1,7.1,37.1,7,37.1c-0.2,0-0.3,0.1-0.4,0.2c-0.1,0.2-0.1,0.3,0,0.5L8.3,41c-0.1,0.1-0.2,0.1-0.3,0.2
		c-0.8,0.5-1.3,0.8-2.4,0.8c-0.8,0-1.4-0.1-1.9-0.2c-0.2,0-0.4-0.1-0.6-0.2c-0.5-0.2-1-0.4-1.7-0.4c-0.5,0-1,0.5-1,1
		c0,0.5,0.5,1,1,1c0.2,0,0.5,0.1,0.9,0.3c0.3,0.1,0.6,0.2,0.9,0.3c0.7,0.2,1.4,0.2,2.4,0.2c1.7,0,2.5-0.5,3.4-1
		c0.3-0.2,0.6-0.3,0.9-0.5c0.1,0,0.2-0.1,0.3-0.1l2.5,0c0.8,0.3,1.6,0.7,2.6,1.3c2,1.2,3.8,0.3,5.2-0.4c0.6-0.3,1.1-0.6,1.7-0.7
		c1-0.2,1.9,0.3,2.9,0.8c0.9,0.5,2,1.1,3.2,1.1c0.1,0,0.2,0,0.4,0c1.7,0,3.1-0.7,4.3-1.3c0.3-0.1,0.6-0.3,0.9-0.4
		c1-0.5,2-0.1,3.4,0.4c0.2,0.1,0.5,0.2,0.7,0.3l0.1,0c1.2,0.5,2.6,1,4.1,0.7c0.8-0.2,1.5-0.5,2.2-0.8c0.8-0.4,1.4-0.7,2.1-0.7
		c0.5,0,1-0.4,1-1C47.5,41,47.1,40.6,46.5,40.6z"/>
</g>
</svg>
