<?xml version="1.0" encoding="utf-8"?>
<!-- Generator: Adobe Illustrator 18.0.0, SVG Export Plug-In . SVG Version: 6.00 Build 0)  -->
<!DOCTYPE svg PUBLIC "-//W3C//DTD SVG 1.1//EN" "http://www.w3.org/Graphics/SVG/1.1/DTD/svg11.dtd">
<svg version="1.1" id="Layer_1" xmlns="http://www.w3.org/2000/svg" xmlns:xlink="http://www.w3.org/1999/xlink" x="0px" y="0px"
	 viewBox="0 0 48 48" enable-background="new 0 0 48 48" xml:space="preserve">
<g>
	<path fill="#0DB89A" d="M8.8,30.3c-0.2,0-0.4-0.1-0.6-0.2c-0.5-0.3-0.6-1-0.2-1.4l4.9-6.6c-1.2-0.7-2.6-1-4-1
		c-4.6,0-8.3,3.7-8.3,8.3c0,4.6,3.7,8.3,8.3,8.3c4.6,0,8.3-3.7,8.3-8.3c0-2.4-1-4.5-2.6-6l-4.9,6.6C9.4,30.2,9.1,30.3,8.8,30.3z"/>
	<path fill="#0DB89A" d="M39.2,21c-1.4,0-2.7,0.3-3.8,0.9c1.1,2.2,2.5,4.5,4.6,6.6c0.4,0.4,0.4,1.1,0,1.4c-0.2,0.2-0.4,0.3-0.7,0.3
		c-0.3,0-0.5-0.1-0.7-0.3c-2.1-2.3-3.7-4.6-4.8-6.8c-1.7,1.5-2.7,3.7-2.7,6.1c0,4.6,3.7,8.3,8.3,8.3c4.6,0,8.3-3.7,8.3-8.3
		C47.5,24.7,43.8,21,39.2,21z"/>
	<path fill="#F04B36" d="M32.7,12.4h1.5c0.6,0,1-0.5,1-1c0-0.6-0.5-1-1-1h-5.7c-0.6,0-1,0.5-1,1c0,0.6,0.5,1,1,1h2.1
		c0,0.8,0.2,1.9,0.4,3.2H17.4l-0.7-1.3h1.5c0.6,0,1-0.5,1-1c0-0.6-0.5-1-1-1h-6.4c-0.6,0-1,0.5-1,1c0,0.6,0.5,1,1,1h2.8
		c0,0.1,0,0.2,0.1,0.3l1.5,2.9l-3.3,4.5c0.6,0.3,1.2,0.7,1.6,1.2l2.7-3.7l5.7,11.1c0.2,0.3,0.5,0.5,0.9,0.6c0,0,0,0,0.1,0
		c0.3,0,0.7-0.2,0.8-0.5l7.5-11.3c0.4,1.2,0.9,2.4,1.5,3.6c0.5-0.5,1.1-0.9,1.7-1.2C33.3,17.8,32.8,14.1,32.7,12.4z M23.9,28.2
		l-5.4-10.5h12.4L23.9,28.2z"/>
</g>
</svg>
