<?xml version="1.0" encoding="utf-8"?>
<!-- Generator: Adobe Illustrator 18.0.0, SVG Export Plug-In . SVG Version: 6.00 Build 0)  -->
<!DOCTYPE svg PUBLIC "-//W3C//DTD SVG 1.1//EN" "http://www.w3.org/Graphics/SVG/1.1/DTD/svg11.dtd">
<svg version="1.1" id="Layer_1" xmlns="http://www.w3.org/2000/svg" xmlns:xlink="http://www.w3.org/1999/xlink" x="0px" y="0px"
	 viewBox="0 0 48 48" enable-background="new 0 0 48 48" xml:space="preserve">
<g>
	<path fill="#294E58" d="M24,31c-2,0-3.7,1.7-3.7,3.9v8.7c0,2.1,1.6,3.9,3.7,3.9c2,0,3.7-1.7,3.7-3.9v-8.7C27.7,32.8,26,31,24,31z"
		/>
	<path fill="#F7A93B" d="M28.3,6.4H38c0.8,0,1.5-0.7,1.5-1.5c0-0.8-0.7-1.5-1.5-1.5h-9.7C27.6,1.7,26,0.5,24,0.5
		c-2,0-3.6,1.2-4.3,2.9H10c-0.8,0-1.5,0.7-1.5,1.5c0,0.8,0.7,1.5,1.5,1.5h9.7C20.2,7.6,21,8.5,22.2,9h3.7C27,8.5,27.8,7.6,28.3,6.4z
		"/>
	<path fill="#06728D" d="M12.2,19.6v14.2c0,3.1,2.6,5.6,5.7,5.6h0.4v-4.5c0-3.2,2.5-5.9,5.7-5.9c3.1,0,5.7,2.6,5.7,5.9v4.5h0.4
		c3.2,0,5.7-2.5,5.7-5.6V19.6c0-5.6-4.4-10.2-10-10.6h-3.7C16.6,9.5,12.2,14.1,12.2,19.6z"/>
</g>
</svg>
