<?xml version="1.0" encoding="utf-8"?>
<!-- Generator: Adobe Illustrator 18.0.0, SVG Export Plug-In . SVG Version: 6.00 Build 0)  -->
<!DOCTYPE svg PUBLIC "-//W3C//DTD SVG 1.1//EN" "http://www.w3.org/Graphics/SVG/1.1/DTD/svg11.dtd">
<svg version="1.1" id="Layer_1" xmlns="http://www.w3.org/2000/svg" xmlns:xlink="http://www.w3.org/1999/xlink" x="0px" y="0px"
	 viewBox="0 0 48 48" enable-background="new 0 0 48 48" xml:space="preserve">
<g>
	<path fill="#294E58" d="M34.7,21.5h-4.5c-0.8,0-1.5,0.7-1.5,1.5c0,0.8,0.7,1.5,1.5,1.5h4.5c0.8,0,1.5-0.7,1.5-1.5
		C36.2,22.1,35.5,21.5,34.7,21.5z"/>
	<path fill="#294E58" d="M17.6,34.7h-4.5c-0.8,0-1.5,0.7-1.5,1.5c0,0.8,0.7,1.5,1.5,1.5h4.5c0.8,0,1.5-0.7,1.5-1.5
		C19,35.4,18.4,34.7,17.6,34.7z"/>
	<path fill="#0DB89A" d="M38.8,3.4c0.8,0,1.5-0.7,1.5-1.5c0-0.8-0.7-1.5-1.5-1.5H9.2C8.4,0.5,7.7,1.2,7.7,2c0,0.8,0.7,1.5,1.5,1.5
		h13.4h2.9H38.8z"/>
	<path fill="#F04B36" d="M26.3,14.8h-0.9c0-0.1,0.1-0.2,0.1-0.4v-11h-2.9v11c0,0.1,0,0.2,0.1,0.4h-0.9c-1.1,0-1.9,0.9-1.9,1.9v28.8
		c0,1.1,0.9,1.9,1.9,1.9h4.5c1.1,0,1.9-0.9,1.9-1.9V16.7C28.2,15.7,27.3,14.8,26.3,14.8z"/>
</g>
</svg>
