<?xml version="1.0" encoding="utf-8"?>
<!-- Generator: Adobe Illustrator 18.0.0, SVG Export Plug-In . SVG Version: 6.00 Build 0)  -->
<!DOCTYPE svg PUBLIC "-//W3C//DTD SVG 1.1//EN" "http://www.w3.org/Graphics/SVG/1.1/DTD/svg11.dtd">
<svg version="1.1" id="Layer_1" xmlns="http://www.w3.org/2000/svg" xmlns:xlink="http://www.w3.org/1999/xlink" x="0px" y="0px"
	 viewBox="0 0 48 48" enable-background="new 0 0 48 48" xml:space="preserve">
<g>
	<path fill="#F7A93B" d="M12.8,18.3l-6,5.3c-0.1,0-0.1,0.1-0.1,0.2v23.4c0,0.1,0.1,0.2,0.2,0.2c0,0,0.1,0,0.1,0c0.1,0,0.1,0,0.2-0.1
		l6-6.7V18.4c0-0.1-0.1-0.1-0.1-0.1C13,18.2,12.9,18.3,12.8,18.3z"/>
	<path fill="#F7A93B" d="M41.2,23.7l-6-5.3c-0.1-0.1-0.2-0.1-0.3,0c-0.1,0-0.1,0.1-0.1,0.1v22.3l6,6.7c0,0.1,0.1,0.1,0.2,0.1
		c0,0,0.1,0,0.1,0c0.1,0,0.2-0.1,0.2-0.2V23.8C41.2,23.8,41.2,23.7,41.2,23.7z"/>
	<path fill="#4DA0D8" d="M32.4,20C31.9,16.2,30,4.3,24.2,0.6c0,0-0.1-0.1-0.2-0.1c-0.1,0-0.1,0-0.1,0.1c0,0,0,0,0,0
		c-5.8,3.7-7.7,15.5-8.2,19.3C18.9,20.6,25.6,21.6,32.4,20z M24,17.7c-0.6,0-1-0.5-1-1v-4.7c0-0.6,0.5-1,1-1s1,0.5,1,1v4.7
		C25,17.3,24.6,17.7,24,17.7z"/>
	<path fill="#F04B36" d="M24.5,22.9c-3.7,0-6.9-0.5-8.9-0.9v17.7c0,0.1,0,0.1,0,0.1c1,1.4,5.2,1.9,8.4,1.9c3.2,0,7.4-0.5,8.4-1.9
		c0,0,0-0.1,0-0.1l0-17.7C29.7,22.6,27,22.9,24.5,22.9z"/>
</g>
</svg>
