<?xml version="1.0" encoding="utf-8"?>
<!-- Generator: Adobe Illustrator 18.0.0, SVG Export Plug-In . SVG Version: 6.00 Build 0)  -->
<!DOCTYPE svg PUBLIC "-//W3C//DTD SVG 1.1//EN" "http://www.w3.org/Graphics/SVG/1.1/DTD/svg11.dtd">
<svg version="1.1" id="Layer_1" xmlns="http://www.w3.org/2000/svg" xmlns:xlink="http://www.w3.org/1999/xlink" x="0px" y="0px"
	 viewBox="0 0 48 48" enable-background="new 0 0 48 48" xml:space="preserve">
<g>
	<polygon fill="none" points="22.5,36.3 22.5,22.7 14.1,22.7 20.2,36.3 	"/>
	<polygon fill="none" points="27.8,36.3 33.9,22.7 25.5,22.7 25.5,36.3 	"/>
	<path fill="#06728D" d="M27.8,36.3h-2.3V22.7h-2.9v13.6h-2.3l-6.1-13.6l-3.4-0.3l6.7,14.9v9.2c0,0.5,0.4,1,1,1h11.1
		c0.5,0,1-0.4,1-1v-9.2l6.7-14.9l-3.4,0.3L27.8,36.3z"/>
	<path fill="#E77528" d="M39,15.5c0-8.3-6.7-15-15-15S9,7.2,9,15.5c0,2.3,0.5,4.5,1.5,6.6c0.1,0.1,0.1,0.2,0.2,0.3l3.4,0.3h8.4h2.9
		h8.4l3.4-0.3c0.1-0.1,0.2-0.2,0.2-0.3C38.5,20,39,17.8,39,15.5z"/>
</g>
</svg>
