<?xml version="1.0" encoding="utf-8"?>
<!-- Generator: Adobe Illustrator 18.0.0, SVG Export Plug-In . SVG Version: 6.00 Build 0)  -->
<!DOCTYPE svg PUBLIC "-//W3C//DTD SVG 1.1//EN" "http://www.w3.org/Graphics/SVG/1.1/DTD/svg11.dtd">
<svg version="1.1" id="Layer_1" xmlns="http://www.w3.org/2000/svg" xmlns:xlink="http://www.w3.org/1999/xlink" x="0px" y="0px"
	 viewBox="0 0 48 48" enable-background="new 0 0 48 48" xml:space="preserve">
<g>
	<path fill="#294E58" d="M13.7,30.2c-3.4,0-6.1,2.7-6.1,6.1c0,3.4,2.7,6.1,6.1,6.1c3.4,0,6.1-2.7,6.1-6.1
		C19.8,33,17.1,30.2,13.7,30.2z"/>
	<path fill="#294E58" d="M36.7,30.2c-3.4,0-6.1,2.7-6.1,6.1c0,3.4,2.7,6.1,6.1,6.1c3.4,0,6.1-2.7,6.1-6.1C42.8,33,40,30.2,36.7,30.2
		z"/>
	<path fill="#0DB89A" d="M43.8,25h-5.6c0.1-0.5,0-1-0.1-1.5l-2-6.1c-0.6-1.8-2.7-3.4-4.6-3.4h-6.1c-2,0-3.7,1.6-3.7,3.7V18v2.7v2.9
		c0,0.5,0.1,1,0.3,1.5h-3.8h-2.4H7.2c-2,0-3.7,1.6-3.7,3.7V33c0,1.5,0.9,2.7,2.1,3.3c0-4.4,3.6-8,8.1-8c4.5,0,8.1,3.6,8.1,8.1
		c0,0.1,0,0.2,0,0.3h6.9c0-0.1,0-0.2,0-0.3c0-4.4,3.6-8.1,8.1-8.1c4.5,0,8.1,3.6,8.1,8.1c0,0.1,0,0.1,0,0.2c1.6-0.4,2.8-1.8,2.8-3.5
		v-4.3C47.5,26.7,45.9,25,43.8,25z"/>
	<path fill="#F04B36" d="M18.1,24.8L5.9,7.6h2.4l13.2,13c0.1,0.1,0.1,0.1,0.2,0.1V18L9.4,5.9C9.2,5.7,9,5.6,8.7,5.6H4
		c-0.4,0-0.7,0.2-0.9,0.5C3,6.4,3,6.7,3.1,6.9C3,7,3,7.2,3,7.3v9c0,0.5,0.3,0.8,0.8,1c0,0,1.5,0.4,1.5,1.5c0,0.6-0.2,1.7-1.3,1.7
		c-1,0-1.5-0.4-1.5-1.3c0-0.5-0.4-1-1-1c-0.5,0-1,0.4-1,1c0,2,1.4,3.3,3.5,3.3c2.2,0,3.2-1.9,3.2-3.7C7.2,17,6,16.1,5,15.6V9.7
		L15.9,25h2.4C18.2,25,18.2,24.9,18.1,24.8z"/>
</g>
</svg>
