<?xml version="1.0" encoding="utf-8"?>
<!-- Generator: Adobe Illustrator 18.0.0, SVG Export Plug-In . SVG Version: 6.00 Build 0)  -->
<!DOCTYPE svg PUBLIC "-//W3C//DTD SVG 1.1//EN" "http://www.w3.org/Graphics/SVG/1.1/DTD/svg11.dtd">
<svg version="1.1" id="Layer_1" xmlns="http://www.w3.org/2000/svg" xmlns:xlink="http://www.w3.org/1999/xlink" x="0px" y="0px"
	 viewBox="0 0 48 48" enable-background="new 0 0 48 48" xml:space="preserve">
<g>
	<path fill="#294E58" d="M40.1,28.1c-2.2,0-4.1,1.8-4.1,4.1c0,2.2,1.8,4.1,4.1,4.1c2.2,0,4.1-1.8,4.1-4.1
		C44.2,29.9,42.3,28.1,40.1,28.1z"/>
	<path fill="#294E58" d="M16.9,28.1c-1.9,0-3.6,1.4-4,3.2c-0.4-1.8-2-3.2-4-3.2c-2.2,0-4.1,1.8-4.1,4.1c0,2.2,1.8,4.1,4.1,4.1
		c1.9,0,3.6-1.4,4-3.2c0.4,1.8,2,3.2,4,3.2c2.2,0,4.1-1.8,4.1-4.1C21,29.9,19.2,28.1,16.9,28.1z"/>
	<path fill="#4DA0D8" d="M44.5,16.2h-5.4v7.7h8.1c0.1,0,0.2,0,0.4,0.1v-4.7C47.5,17.6,46.1,16.2,44.5,16.2z"/>
	<path fill="#E77528" d="M38.1,25.9c-0.6,0-1-0.4-1-1v-8.7h-0.4c-0.8,0-1.5,0.3-2,0.8v-2.2c0-1.7-1.4-3-3-3H3.6
		c-1.7,0-3.1,1.4-3.1,3v14.8c0,1.5,1.1,2.7,2.5,3c0-0.1,0-0.3,0-0.4c0-3.3,2.7-6.1,6.1-6.1c1.5,0,2.9,0.6,4,1.5
		c1.1-0.9,2.5-1.5,4-1.5c3.3,0,6.1,2.7,6.1,6.1c0,0.2,0,0.3,0,0.5h8.6c1,0,1.9-0.5,2.5-1.3c0.4-3,2.9-5.3,6-5.3c3.3,0,6,2.7,6.1,6
		c0.8-0.5,1.3-1.5,1.3-2.5v-3.8c-0.1,0-0.2,0.1-0.4,0.1H38.1z"/>
</g>
</svg>
