<?xml version="1.0" encoding="utf-8"?>
<!-- Generator: Adobe Illustrator 18.0.0, SVG Export Plug-In . SVG Version: 6.00 Build 0)  -->
<!DOCTYPE svg PUBLIC "-//W3C//DTD SVG 1.1//EN" "http://www.w3.org/Graphics/SVG/1.1/DTD/svg11.dtd">
<svg version="1.1" id="Layer_1" xmlns="http://www.w3.org/2000/svg" xmlns:xlink="http://www.w3.org/1999/xlink" x="0px" y="0px"
	 viewBox="0 0 48 48" enable-background="new 0 0 48 48" xml:space="preserve">
<g>
	<path fill="#4DA0D8" d="M11.4,29.7c-2.6,0-4.7,2.1-4.7,4.7c0,2.6,2.1,4.7,4.7,4.7c2.6,0,4.7-2.1,4.7-4.7
		C16,31.8,13.9,29.7,11.4,29.7z"/>
	<path fill="#4DA0D8" d="M36.7,29.7c-2.6,0-4.7,2.1-4.7,4.7c0,2.6,2.1,4.7,4.7,4.7c2.6,0,4.7-2.1,4.7-4.7
		C41.4,31.8,39.3,29.7,36.7,29.7z"/>
	<path fill="#F04B36" d="M30.4,12.1c0-0.1-0.1-0.2-0.3-0.3c-0.2-0.1-3.3-1.5-8.5-2.3v10.7h11.6L30.4,12.1z"/>
	<path fill="#F7A93B" d="M45.8,22.6c0-0.2-0.2-0.4-0.5-0.4h-9.8h-1.6H20.6c-0.6,0-1-0.4-1-1V9.3C17.9,9.1,16.1,9,14,9
		C9.7,9,5.3,9.5,0.9,10.6c-0.2,0.1-0.4,0.3-0.4,0.5v23.3c0,0.3,0.2,0.5,0.5,0.5h3.7c0-0.1,0-0.3,0-0.4c0-3.7,3-6.7,6.7-6.7
		c3.7,0,6.7,3,6.7,6.7c0,0.1,0,0.3,0,0.4h12.1c0-0.1,0-0.3,0-0.4c0-3.7,3-6.7,6.7-6.7c3.7,0,6.7,3,6.7,6.7c0,0.1,0,0.3,0,0.4H47
		c0.1,0,0.3-0.1,0.4-0.2c0.1-0.1,0.1-0.3,0.1-0.4L45.8,22.6z"/>
</g>
</svg>
