<?xml version="1.0" encoding="utf-8"?>
<!-- Generator: Adobe Illustrator 18.0.0, SVG Export Plug-In . SVG Version: 6.00 Build 0)  -->
<!DOCTYPE svg PUBLIC "-//W3C//DTD SVG 1.1//EN" "http://www.w3.org/Graphics/SVG/1.1/DTD/svg11.dtd">
<svg version="1.1" id="Layer_1" xmlns="http://www.w3.org/2000/svg" xmlns:xlink="http://www.w3.org/1999/xlink" x="0px" y="0px"
	 viewBox="0 0 48 48" enable-background="new 0 0 48 48" xml:space="preserve">
<g>
	<path fill="#CFD0D1" d="M26.3,8.4c0.1-0.4,0-0.8-0.2-1.1l-3.7-6.1c-0.4-0.7-1.3-0.9-2-0.5c-0.7,0.4-0.9,1.3-0.5,2l3.4,5.6
		l-5.6,22.9l2.8,0.8L26.3,8.4z"/>
	<path fill="#0DB89A" d="M25,39.3c0-3.2-1.9-6-4.6-7.3l-2.8-0.8c-0.3,0-0.5,0-0.8,0c-4.5,0-8.2,3.7-8.2,8.2c0,4.5,3.7,8.2,8.2,8.2
		c3.5,0,6.5-2.2,7.6-5.3L25,39.3C25,39.3,25,39.3,25,39.3z"/>
	<path fill="#CFD0D1" d="M37.9,39.4H25l-0.5,2.9c0.1,0,0.2,0,0.4,0h13c0.8,0,1.5-0.7,1.5-1.5C39.3,40,38.7,39.4,37.9,39.4z"/>
</g>
</svg>
