<?xml version="1.0" encoding="utf-8"?>
<!-- Generator: Adobe Illustrator 18.0.0, SVG Export Plug-In . SVG Version: 6.00 Build 0)  -->
<!DOCTYPE svg PUBLIC "-//W3C//DTD SVG 1.1//EN" "http://www.w3.org/Graphics/SVG/1.1/DTD/svg11.dtd">
<svg version="1.1" id="Layer_1" xmlns="http://www.w3.org/2000/svg" xmlns:xlink="http://www.w3.org/1999/xlink" x="0px" y="0px"
	 viewBox="0 0 48 48" enable-background="new 0 0 48 48" xml:space="preserve">
<g>
	<path fill="#294E58" d="M40,28.2c-4.1,0-7.5,3.3-7.5,7.5c0,4.1,3.3,7.5,7.5,7.5c4.1,0,7.5-3.3,7.5-7.5C47.5,31.5,44.2,28.2,40,28.2
		z"/>
	<path fill="#294E58" d="M10.4,28.2c-4.1,0-7.5,3.3-7.5,7.5c0,4.1,3.3,7.5,7.5,7.5c4.1,0,7.5-3.3,7.5-7.5
		C17.9,31.5,14.5,28.2,10.4,28.2z"/>
	<path fill="#4DA0D8" d="M3.5,16.2V6.4c0-0.8-0.7-1.5-1.5-1.5c-0.8,0-1.5,0.7-1.5,1.5v9.8c0,0.8,0.7,1.5,1.5,1.5
		C2.8,17.7,3.5,17,3.5,16.2z"/>
	<path fill="#E77528" d="M40,26.2c0.4,0,0.9,0,1.3,0.1c-0.9-5.1-2.4-8.7-4.2-11.4h1.8c0.8,0,1.5-0.7,1.5-1.5c0-0.8-0.7-1.5-1.5-1.5
		h-4.2c-3.5-3.4-7.3-3.8-8.9-3.8c-0.8,0-1.2,0.1-1.2,0.1c-0.1,0-0.2,0.1-0.2,0.2c0,0.1,0,0.2,0.1,0.3c7.4,4.2,8.1,8.1,7.5,10.6
		c-1,4-6.2,6.7-10.2,6.7h0c-0.6,0-1.1-0.1-1.6-0.2c-1.4-0.3-2.2-0.9-2.5-1.9c-1-3.2,4.3-9.1,4.4-9.2c0.1-0.1,0.1-0.2,0-0.3
		c0-0.1-0.1-0.1-0.2-0.1H7.7c-0.1,0-0.2,0.1-0.2,0.2v3.7c-6,1.8-6,9.3-5.6,13.2c1.5-3.1,4.7-5.3,8.5-5.3c5.2,0,9.4,4.2,9.4,9.4
		c0,0.1,0,0.2,0,0.2h10.8c0-0.1,0-0.2,0-0.2C30.6,30.4,34.8,26.2,40,26.2z"/>
</g>
</svg>
