<?xml version="1.0" encoding="utf-8"?>
<!-- Generator: Adobe Illustrator 18.0.0, SVG Export Plug-In . SVG Version: 6.00 Build 0)  -->
<!DOCTYPE svg PUBLIC "-//W3C//DTD SVG 1.1//EN" "http://www.w3.org/Graphics/SVG/1.1/DTD/svg11.dtd">
<svg version="1.1" id="Layer_1" xmlns="http://www.w3.org/2000/svg" xmlns:xlink="http://www.w3.org/1999/xlink" x="0px" y="0px"
	 viewBox="0 0 48 48" enable-background="new 0 0 48 48" xml:space="preserve">
<g>
	<path fill="#0DB89A" d="M47.2,26.5c-0.4-0.4-1-0.4-1.4,0l-2.9,2.9l-2-4.6l3.4-3.4c0.4-0.4,0.4-1,0-1.4c-0.4-0.4-1-0.4-1.4,0
		L40,22.9l-2.4-5.6l6.5-6.2c1.5-1.5,2.4-3.3,2.4-5.1c0-1.3-0.4-2.4-1.2-3.2c-0.8-0.8-1.9-1.2-3.2-1.2c-1.8,0-3.7,0.9-5.2,2.4
		l-6.2,6.5L25.2,8L28,5.1c0.4-0.4,0.4-1,0-1.4c-0.4-0.4-1-0.4-1.4,0l-3.4,3.4l-4.6-2l2.9-2.9c0.4-0.4,0.4-1,0-1.4
		c-0.4-0.4-1-0.4-1.4,0l-3.5,3.5l-4.5-2c-0.2-0.1-0.4,0-0.6,0.1L6.6,7.3C6.5,7.4,6.5,7.6,6.5,7.7c0,0.1,0.1,0.3,0.2,0.4l15.5,11.3
		l-7.4,7.8L4.2,22.5c-0.2-0.1-0.4,0-0.6,0.1l-3,3c-0.1,0.1-0.2,0.2-0.1,0.4c0,0.1,0.1,0.3,0.2,0.4l9.9,7.2c-0.2,1.3,0,2.4,0.7,3.1
		c0.7,0.7,1.8,1,3.1,0.7l7.2,9.9c0.1,0.1,0.2,0.2,0.4,0.2c0,0,0,0,0,0c0.1,0,0.3-0.1,0.4-0.1l3-3c0.1-0.1,0.2-0.4,0.1-0.6l-4.7-10.7
		l7.8-7.4l11.3,15.5c0.1,0.1,0.2,0.2,0.4,0.2c0.2,0,0.3,0,0.4-0.1l4.9-4.9c0.1-0.1,0.2-0.4,0.1-0.6l-2-4.5l3.5-3.5
		C47.6,27.5,47.6,26.9,47.2,26.5z"/>
</g>
</svg>
