<?xml version="1.0" encoding="utf-8"?>
<!-- Generator: Adobe Illustrator 18.0.0, SVG Export Plug-In . SVG Version: 6.00 Build 0)  -->
<!DOCTYPE svg PUBLIC "-//W3C//DTD SVG 1.1//EN" "http://www.w3.org/Graphics/SVG/1.1/DTD/svg11.dtd">
<svg version="1.1" id="Layer_1" xmlns="http://www.w3.org/2000/svg" xmlns:xlink="http://www.w3.org/1999/xlink" x="0px" y="0px"
	 viewBox="0 0 48 48" enable-background="new 0 0 48 48" xml:space="preserve">
<g>
	<g>
		<path fill="#06728D" d="M39.3,45.5c0,1.2-1,2.2-2.1,2.2c-1.2,0-2.1-1-2.1-2.2c0-1.2,1-2.2,2.1-2.2C38.4,43.3,39.3,44.3,39.3,45.5z
			"/>
	</g>
	<g>
		<g>
			<path fill="#06728D" d="M12.9,45.5c0,1.2-1,2.2-2.1,2.2c-1.2,0-2.1-1-2.1-2.2c0-1.2,1-2.2,2.1-2.2C12,43.3,12.9,44.3,12.9,45.5z"
				/>
		</g>
		<g>
			<path fill="#06728D" d="M18.4,45.5c0,1.2-1,2.2-2.1,2.2c-1.2,0-2.1-1-2.1-2.2c0-1.2,1-2.2,2.1-2.2C17.4,43.3,18.4,44.3,18.4,45.5
				z"/>
		</g>
		<g>
			<path fill="#06728D" d="M33.9,45.5c0,1.2-1,2.2-2.1,2.2c-1.2,0-2.1-1-2.1-2.2c0-1.2,1-2.2,2.1-2.2C32.9,43.3,33.9,44.3,33.9,45.5
				z"/>
		</g>
		<rect x="9.1" y="18.3" fill="none" width="10.7" height="13.1"/>
		<rect x="28.1" y="18.3" fill="none" width="10.7" height="13.1"/>
		<path fill="#F04B36" d="M16.1,6.8L24,2.4l7.9,4.4l-7.3,4.1h4l5.8-3.2c0.3-0.2,0.5-0.5,0.5-0.9c0-0.4-0.2-0.7-0.5-0.9l-9.9-5.5
			c-0.3-0.2-0.7-0.2-1,0l-9.9,5.5c-0.3,0.2-0.5,0.5-0.5,0.9c0,0.4,0.2,0.7,0.5,0.9l5.8,3.2h4L16.1,6.8z"/>
		<path fill="#0DB89A" d="M39.9,10.9H28.5h-4h-1.1h-4H8.1c-3.9,0-7.1,3-7.1,6.7V34c0,3.7,3.2,6.7,7.1,6.7h31.8c3.9,0,7.1-3,7.1-6.7
			V17.6C47,13.9,43.8,10.9,39.9,10.9z M19.9,31.4H9.1V18.3h10.7V31.4z M38.9,31.4H28.1V18.3h10.7V31.4z"/>
	</g>
</g>
</svg>
