<?xml version="1.0" encoding="utf-8"?>
<!-- Generator: Adobe Illustrator 18.0.0, SVG Export Plug-In . SVG Version: 6.00 Build 0)  -->
<!DOCTYPE svg PUBLIC "-//W3C//DTD SVG 1.1//EN" "http://www.w3.org/Graphics/SVG/1.1/DTD/svg11.dtd">
<svg version="1.1" id="Layer_1" xmlns="http://www.w3.org/2000/svg" xmlns:xlink="http://www.w3.org/1999/xlink" x="0px" y="0px"
	 viewBox="0 0 48 48" enable-background="new 0 0 48 48" xml:space="preserve">
<g>
	<path fill="#F04B36" d="M10.8,29.5c-2.8,0-5.1,2.3-5.1,5.1c0,2.8,2.3,5.1,5.1,5.1s5.1-2.3,5.1-5.1C16,31.8,13.7,29.5,10.8,29.5z"/>
	<path fill="#F04B36" d="M34.3,29.5c-2.8,0-5.1,2.3-5.1,5.1c0,2.8,2.3,5.1,5.1,5.1c2.8,0,5.1-2.3,5.1-5.1
		C39.5,31.8,37.2,29.5,34.3,29.5z"/>
	<path fill="#294E58" d="M30.3,12.2C27.8,10,23,8.3,19.7,8.3H6.8c-3.5,0-6.3,2.8-6.3,6.4v8h41.9L30.3,12.2z"/>
	<path fill="#0DB89A" d="M44.4,24.6H0.5v4.1c0,3.1,1,6.3,2.8,6.3h0.4c0-0.1,0-0.3,0-0.4c0-3.9,3.2-7.1,7.1-7.1
		c3.9,0,7.1,3.2,7.1,7.1c0,0.2,0,0.3,0,0.4h9.3c0-0.1,0-0.3,0-0.4c0-3.9,3.2-7.1,7.1-7.1c3.9,0,7.1,3.2,7.1,7.1c0,0.2,0,0.3,0,0.4
		h2.1c2.2,0,4-1.9,4-4.1C47.5,29.2,46.2,26.7,44.4,24.6z"/>
</g>
</svg>
