<?xml version="1.0" encoding="utf-8"?>
<!-- Generator: Adobe Illustrator 18.0.0, SVG Export Plug-In . SVG Version: 6.00 Build 0)  -->
<!DOCTYPE svg PUBLIC "-//W3C//DTD SVG 1.1//EN" "http://www.w3.org/Graphics/SVG/1.1/DTD/svg11.dtd">
<svg version="1.1" id="Layer_1" xmlns="http://www.w3.org/2000/svg" xmlns:xlink="http://www.w3.org/1999/xlink" x="0px" y="0px"
	 viewBox="0 0 48 48" enable-background="new 0 0 48 48" xml:space="preserve">
<g>
	<path fill="#06728D" d="M11.8,32.9c-3.2,0-5.7,2.6-5.7,5.7c0,3.2,2.6,5.7,5.7,5.7c3.2,0,5.7-2.6,5.7-5.7
		C17.5,35.5,14.9,32.9,11.8,32.9z"/>
	<path fill="#E77528" d="M33,12.4c-0.9,0-1.5,0.1-1.6,0.1c-0.3,0-0.4,0.2-0.4,0.5v17.6h-3V4.1c0-0.2-0.1-0.4-0.3-0.4
		c-0.2-0.1-0.4-0.1-0.5,0L0.7,21.8c-0.1,0.1-0.2,0.2-0.2,0.4v15.9c0,0.3,0.2,0.5,0.5,0.5h3.1c0-4.2,3.5-7.6,7.7-7.6
		c4.2,0,7.7,3.4,7.7,7.6h9.9c0-4.2,3.5-7.6,7.7-7.6c3.9,0,7.2,2.9,7.7,6.7H47c0.3,0,0.5-0.2,0.5-0.5v-9.8
		C47.5,13.5,36.4,12.4,33,12.4z M17.8,27.3c-0.2,0.2-0.5,0.3-0.7,0.3c-0.2,0-0.5-0.1-0.7-0.3l-6.1-5.6c-0.4-0.4-0.4-1-0.1-1.4
		c0.4-0.4,1-0.4,1.4-0.1l6.1,5.6C18.1,26.3,18.1,26.9,17.8,27.3z M23.2,24.5c-0.2,0.2-0.5,0.3-0.7,0.3c-0.2,0-0.5-0.1-0.7-0.3
		L15.7,19c-0.4-0.4-0.4-1-0.1-1.4c0.4-0.4,1-0.4,1.4-0.1l6.1,5.6C23.5,23.5,23.6,24.1,23.2,24.5z"/>
	<path fill="#06728D" d="M37.2,32.9c-3.2,0-5.7,2.6-5.7,5.7c0,3.2,2.6,5.7,5.7,5.7c3.2,0,5.7-2.6,5.7-5.7
		C42.9,35.5,40.3,32.9,37.2,32.9z"/>
</g>
</svg>
