<?xml version="1.0" encoding="utf-8"?>
<!-- Generator: Adobe Illustrator 18.0.0, SVG Export Plug-In . SVG Version: 6.00 Build 0)  -->
<!DOCTYPE svg PUBLIC "-//W3C//DTD SVG 1.1//EN" "http://www.w3.org/Graphics/SVG/1.1/DTD/svg11.dtd">
<svg version="1.1" id="Layer_1" xmlns="http://www.w3.org/2000/svg" xmlns:xlink="http://www.w3.org/1999/xlink" x="0px" y="0px"
	 viewBox="0 0 48 48" enable-background="new 0 0 48 48" xml:space="preserve">
<g>
	<path fill="#294E58" d="M43.9,39.5H17.3c-2,0-3.6,1.6-3.6,3.6v0.8c0,2,1.6,3.6,3.6,3.6h26.6c2,0,3.6-1.6,3.6-3.6v-0.8
		C47.5,41.1,45.9,39.5,43.9,39.5z"/>
	<circle fill="#F04B36" cx="24.2" cy="21.2" r="1.5"/>
	<path fill="none" d="M19.1,18.4h-0.1l-0.4,8h1.7c0,0-0.1-0.1-0.1-0.1c-0.1-0.2-0.1-0.6,0.2-0.7l3.2-1.8c0.3-0.5,0.8-0.8,1.4-0.8
		c1,0,1.8,0.9,1.8,2v1.3c0,0,0,0.1,0,0.1h1.8l-1.1-8H19.1z"/>
	<path fill="none" d="M22.9,25.1l-2.1,1.2h2.1c0,0,0-0.1,0-0.1V25.1z"/>
	<path fill="#E77528" d="M0.6,25.9c0.5,4.2,3.7,8.5,9.4,8.5c0.6,0,1.2,0,1.8-0.1c0.2,0,0.3-0.1,0.4-0.2c0.1-0.1,0.1-0.3,0-0.4
		L6.5,18.9l-1.4-1.5C1.9,18.4,0.1,21.8,0.6,25.9z"/>
	<path fill="none" d="M19.1,18.4h-0.1l-0.4,8h1.7c0,0-0.1-0.1-0.1-0.1c-0.1-0.2-0.1-0.6,0.2-0.7l3.2-1.8c0.3-0.5,0.8-0.8,1.4-0.8
		c1,0,1.8,0.9,1.8,2v1.3c0,0,0,0.1,0,0.1h1.8l-1.1-8H19.1z"/>
	<path fill="none" d="M22.9,25.1l-2.1,1.2h2.1c0,0,0-0.1,0-0.1V25.1z"/>
	<path fill="#0DB89A" d="M42.3,22.6L42.3,22.6h-3h-8.5c0,0-0.1,0-0.1,0l-0.3-3.1c0-2.3-1.9-4.2-4.2-4.2h-6.4c-2.3,0-4.2,1.9-4.2,4.2
		V32c0,2.1,1.6,3.9,3.7,4.2v1.2h7.2h9.8h9.7c0.6,0,1-0.5,1-1v-9.1C47.1,24.7,45,22.6,42.3,22.6z M20.8,26.4l2.1-1.2v1.1
		c0,0,0,0.1,0,0.1H20.8z M26.5,26.4c0,0,0-0.1,0-0.1V25c0-1.1-0.8-2-1.8-2c-0.6,0-1.1,0.3-1.4,0.8l-3.2,1.8
		c-0.2,0.1-0.3,0.5-0.2,0.7c0,0.1,0.1,0.1,0.1,0.1h-1.7l0.4-8h0.1h8.1l1.1,8H26.5z"/>
	<path fill="#06728D" d="M21.2,1.8c-0.9-0.9-2.1-1.3-3.3-1.2c-1.2,0.1-2.3,0.8-3,1.9l-9.9,15l1.4,1.5L16.6,3.5
		c0.4-0.6,0.9-0.9,1.5-1c0.6-0.1,1.2,0.2,1.7,0.6l19.6,19.4h2.9L21.2,1.8z"/>
</g>
</svg>
