<?xml version="1.0" encoding="utf-8"?>
<!-- Generator: Adobe Illustrator 18.0.0, SVG Export Plug-In . SVG Version: 6.00 Build 0)  -->
<!DOCTYPE svg PUBLIC "-//W3C//DTD SVG 1.1//EN" "http://www.w3.org/Graphics/SVG/1.1/DTD/svg11.dtd">
<svg version="1.1" id="Layer_1" xmlns="http://www.w3.org/2000/svg" xmlns:xlink="http://www.w3.org/1999/xlink" x="0px" y="0px"
	 viewBox="0 0 48 48" enable-background="new 0 0 48 48" xml:space="preserve">
<g>
	<path fill="#06728D" d="M38.3,30.6c-2.4,0-4.3,1.9-4.3,4.3c0,2.4,1.9,4.3,4.3,4.3c2.4,0,4.3-1.9,4.3-4.3
		C42.7,32.5,40.7,30.6,38.3,30.6z"/>
	<polygon fill="#F04B36" points="22.8,18 10.7,18 7.1,22.1 29.6,22.1 	"/>
	<path fill="#F7A93B" d="M46.2,26.5c0-0.1-0.1-0.2-0.2-0.2l-12.2-2.1H4.8c0,0,0,0-0.1,0l-4,1.1c-0.1,0-0.2,0.1-0.2,0.2v7.6
		c0,0.1,0.1,0.3,0.3,0.3H2c0.7-2.7,3.2-4.7,6.1-4.7c2.9,0,5.4,2,6.1,4.7h18c0.7-2.7,3.2-4.7,6.1-4.7c2.9,0,5.4,2,6.1,4.7h2.8
		c0.1,0,0.1,0,0.2-0.1c0-0.1,0.1-0.1,0.1-0.2L46.2,26.5z"/>
	<path fill="#06728D" d="M8.1,30.6c-2.4,0-4.3,1.9-4.3,4.3c0,2.4,1.9,4.3,4.3,4.3c2.4,0,4.3-1.9,4.3-4.3
		C12.4,32.5,10.5,30.6,8.1,30.6z"/>
	<rect x="12.4" y="11.9" fill="#4DA0D8" width="3.2" height="3.2"/>
	<rect x="15.6" y="8.8" fill="#0DB89A" width="3.2" height="3.2"/>
	<rect x="18.8" y="11.9" fill="#06728D" width="3.2" height="3.2"/>
</g>
</svg>
