<?xml version="1.0" encoding="utf-8"?>
<!-- Generator: Adobe Illustrator 18.0.0, SVG Export Plug-In . SVG Version: 6.00 Build 0)  -->
<!DOCTYPE svg PUBLIC "-//W3C//DTD SVG 1.1//EN" "http://www.w3.org/Graphics/SVG/1.1/DTD/svg11.dtd">
<svg version="1.1" id="Layer_1" xmlns="http://www.w3.org/2000/svg" xmlns:xlink="http://www.w3.org/1999/xlink" x="0px" y="0px"
	 viewBox="0 0 48 48" enable-background="new 0 0 48 48" xml:space="preserve">
<g>
	<path fill="#F7A93B" d="M18.9,20.6h13.9c0.1,0,0.2-0.1,0.2-0.1c0-0.1,0-0.2,0-0.3l-6.4-9.3c0-0.1-0.1-0.1-0.2-0.1h-7.5
		c-0.1,0-0.3,0.1-0.3,0.3l0,9.3c0,0.1,0,0.1,0.1,0.2C18.8,20.6,18.8,20.6,18.9,20.6z"/>
	<path fill="#06728D" d="M38.3,28.6c-2.4,0-4.3,1.9-4.3,4.3c0,2.4,1.9,4.3,4.3,4.3c2.4,0,4.3-1.9,4.3-4.3
		C42.7,30.5,40.7,28.6,38.3,28.6z"/>
	<path fill="#CFD0D1" d="M46.2,24.5c0-0.1-0.1-0.2-0.2-0.2l-12.2-2.1H0.8c-0.1,0-0.3,0.1-0.3,0.3V31c0,0.1,0.1,0.3,0.3,0.3H2
		c0.7-2.7,3.2-4.7,6.1-4.7c2.9,0,5.4,2,6.1,4.7h18c0.7-2.7,3.2-4.7,6.1-4.7c2.9,0,5.4,2,6.1,4.7h2.8c0.1,0,0.1,0,0.2-0.1
		c0-0.1,0.1-0.1,0.1-0.2L46.2,24.5z"/>
	<path fill="#06728D" d="M8.1,28.6c-2.4,0-4.3,1.9-4.3,4.3c0,2.4,1.9,4.3,4.3,4.3c2.4,0,4.3-1.9,4.3-4.3
		C12.4,30.5,10.5,28.6,8.1,28.6z"/>
</g>
</svg>
