<?xml version="1.0" encoding="utf-8"?>
<!-- Generator: Adobe Illustrator 18.0.0, SVG Export Plug-In . SVG Version: 6.00 Build 0)  -->
<!DOCTYPE svg PUBLIC "-//W3C//DTD SVG 1.1//EN" "http://www.w3.org/Graphics/SVG/1.1/DTD/svg11.dtd">
<svg version="1.1" id="Layer_1" xmlns="http://www.w3.org/2000/svg" xmlns:xlink="http://www.w3.org/1999/xlink" x="0px" y="0px"
	 viewBox="0 0 48 48" enable-background="new 0 0 48 48" xml:space="preserve">
<g>
	<path fill="#F04B36" d="M6.7,36.1c-3.1,0-5.6,2.6-5.6,5.7c0,3.1,2.5,5.7,5.6,5.7c3.1,0,5.6-2.6,5.6-5.7
		C12.3,38.7,9.8,36.1,6.7,36.1z"/>
	<path fill="#F04B36" d="M36.9,27.2c-5.5,0-10,4.5-10,10.1c0,5.6,4.5,10.1,10,10.1c5.5,0,10-4.6,10-10.1
		C46.9,31.8,42.4,27.2,36.9,27.2z"/>
	<path fill="#0DB89A" d="M36.9,25.2c1.6,0,3.2,0.3,4.6,0.9l-2.1-5.8c0,0,0,0,0,0L37.3,5.9c0,0,0-0.1,0-0.1C36.8,3.9,35,0.5,31,0.5
		H16c-0.8,0-1.5,0.7-1.5,1.5c0,0.8,0.7,1.5,1.5,1.5h3.6l-3.1,19.7L9.9,24c-0.1,0-0.2,0.1-0.2,0.2l-2.8,10c4.1,0.1,7.4,3.5,7.4,7.7
		c0,0.1,0,0.2,0,0.3h11.6c-0.6-1.4-0.9-3-0.9-4.7C25,30.7,30.3,25.2,36.9,25.2z M22.5,3.5H31c2.4,0,3.2,2.4,3.3,2.9l2.1,14.2
		l-17,2.2L22.5,3.5z"/>
</g>
</svg>
