<?xml version="1.0" encoding="utf-8"?>
<!-- Generator: Adobe Illustrator 18.0.0, SVG Export Plug-In . SVG Version: 6.00 Build 0)  -->
<!DOCTYPE svg PUBLIC "-//W3C//DTD SVG 1.1//EN" "http://www.w3.org/Graphics/SVG/1.1/DTD/svg11.dtd">
<svg version="1.1" id="Layer_1" xmlns="http://www.w3.org/2000/svg" xmlns:xlink="http://www.w3.org/1999/xlink" x="0px" y="0px"
	 viewBox="0 0 48 48" enable-background="new 0 0 48 48" xml:space="preserve">
<g>
	<path fill="#06728D" d="M47.2,32.4H0.8c-0.1,0-0.1,0-0.2,0.1c0,0.1-0.1,0.1-0.1,0.2c0,0.1,1.9,11.5,15.8,11.5h19.5c0,0,0,0,0,0
		c0.1,0,11.7-2.4,11.7-11.5C47.5,32.5,47.4,32.4,47.2,32.4z"/>
	<path fill="#F04B36" d="M9.8,30.9h10.9c0.1,0,0.3-0.1,0.3-0.3V16.8c0-0.1-0.1-0.3-0.3-0.3H9.8c-0.1,0-0.3,0.1-0.3,0.3v13.9
		C9.6,30.8,9.7,30.9,9.8,30.9z"/>
	<path fill="#0DB89A" d="M30,9.4h3.6c0.6,0,1-0.5,1-1c0-0.6-0.5-1-1-1H30V4.8c0-0.6-0.5-1-1-1c-0.6,0-1,0.5-1,1v2.6H24
		c-0.6,0-1,0.5-1,1c0,0.6,0.5,1,1,1h3.9v9.4h2V9.4z"/>
	<path fill="#F7A93B" d="M43.6,18.8H30h-2h-5.2c-0.1,0-0.3,0.1-0.3,0.3v11.6c0,0.1,0.1,0.3,0.3,0.3h20.8c0.1,0,0.3-0.1,0.3-0.3V19.1
		C43.8,18.9,43.7,18.8,43.6,18.8z"/>
</g>
</svg>
