<?xml version="1.0" encoding="utf-8"?>
<!-- Generator: Adobe Illustrator 18.0.0, SVG Export Plug-In . SVG Version: 6.00 Build 0)  -->
<!DOCTYPE svg PUBLIC "-//W3C//DTD SVG 1.1//EN" "http://www.w3.org/Graphics/SVG/1.1/DTD/svg11.dtd">
<svg version="1.1" id="Layer_1" xmlns="http://www.w3.org/2000/svg" xmlns:xlink="http://www.w3.org/1999/xlink" x="0px" y="0px"
	 viewBox="0 0 48 48" enable-background="new 0 0 48 48" xml:space="preserve">
<g>
	<path fill="#0DB89A" d="M43,6.2H7.7c-2,0-3.7,1.3-4.3,3.2h7.4c0.3,0,0.6,0.1,0.8,0.4c0.2,0.3,0.3,0.6,0.2,0.9l-2.1,7.6h37.5
		c0.1,0,0.2,0,0.3,0.1v-7.6C47.5,8.2,45.5,6.2,43,6.2z M16.2,14.2c0,0.6-0.5,1-1,1s-1-0.5-1-1v-2.5c0-0.6,0.5-1,1-1s1,0.5,1,1V14.2z
		 M22.8,14.2c0,0.6-0.5,1-1,1c-0.6,0-1-0.5-1-1v-2.5c0-0.6,0.5-1,1-1c0.6,0,1,0.5,1,1V14.2z M29.4,14.2c0,0.6-0.5,1-1,1
		c-0.6,0-1-0.5-1-1v-2.5c0-0.6,0.5-1,1-1c0.6,0,1,0.5,1,1V14.2z M36,14.2c0,0.6-0.5,1-1,1c-0.6,0-1-0.5-1-1v-2.5c0-0.6,0.5-1,1-1
		c0.6,0,1,0.5,1,1V14.2z M42.5,14.2c0,0.6-0.5,1-1,1c-0.6,0-1-0.5-1-1v-2.5c0-0.6,0.5-1,1-1c0.6,0,1,0.5,1,1V14.2z"/>
	<polygon fill="#E77528" points="9.5,11.3 3.1,11.3 1.2,20.5 7,20.5 	"/>
	<path fill="#F04B36" d="M10,33c-2.4,0-4.4,2-4.4,4.4c0,2.4,2,4.4,4.4,4.4c2.4,0,4.4-2,4.4-4.4C14.4,35,12.4,33,10,33z"/>
	<path fill="#CFD0D1" d="M9.3,20.2C9.3,20.2,9.2,20.2,9.3,20.2l-0.5,1.6c-0.1,0.4-0.5,0.7-1,0.7H1c-0.1,0-0.2,0-0.2,0l-0.3,1.5v9.4
		c0,2,1.3,3.6,3.1,4.2c0-0.1,0-0.1,0-0.2c0-3.5,2.9-6.4,6.4-6.4c3.5,0,6.4,2.9,6.4,6.4c0,0.1,0,0.3,0,0.4h4.4
		c-0.1-0.1-0.1-0.3-0.1-0.4V24c0-0.6,0.5-1,1-1c0.6,0,1,0.5,1,1v13.4c0,0.1,0,0.3-0.1,0.4h3.4c0-0.1,0-0.3,0-0.4
		c0-3.5,2.9-6.4,6.4-6.4c3.5,0,6.4,2.9,6.4,6.4c0,0.1,0,0.3,0,0.4H43c2.5,0,4.5-2,4.5-4.5V20.2c-0.1,0-0.2,0.1-0.3,0.1H9.3z
		 M16.2,26.5c0,0.6-0.5,1-1,1s-1-0.5-1-1V24c0-0.6,0.5-1,1-1s1,0.5,1,1V26.5z M29.4,26.5c0,0.6-0.5,1-1,1c-0.6,0-1-0.5-1-1V24
		c0-0.6,0.5-1,1-1c0.6,0,1,0.5,1,1V26.5z M36,26.5c0,0.6-0.5,1-1,1c-0.6,0-1-0.5-1-1V24c0-0.6,0.5-1,1-1c0.6,0,1,0.5,1,1V26.5z
		 M42.5,26.5c0,0.6-0.5,1-1,1c-0.6,0-1-0.5-1-1V24c0-0.6,0.5-1,1-1c0.6,0,1,0.5,1,1V26.5z"/>
	<path fill="#F04B36" d="M32.5,33c-2.4,0-4.4,2-4.4,4.4c0,2.4,2,4.4,4.4,4.4c2.4,0,4.4-2,4.4-4.4C36.9,35,35,33,32.5,33z"/>
</g>
</svg>
