<?xml version="1.0" encoding="utf-8"?>
<!-- Generator: Adobe Illustrator 18.0.0, SVG Export Plug-In . SVG Version: 6.00 Build 0)  -->
<!DOCTYPE svg PUBLIC "-//W3C//DTD SVG 1.1//EN" "http://www.w3.org/Graphics/SVG/1.1/DTD/svg11.dtd">
<svg version="1.1" id="Layer_1" xmlns="http://www.w3.org/2000/svg" xmlns:xlink="http://www.w3.org/1999/xlink" x="0px" y="0px"
	 viewBox="0 0 48 48" enable-background="new 0 0 48 48" xml:space="preserve">
<g>
	<path fill="#F04B36" d="M44.4,30.9H21.3c-1.7,0-3.1,1.4-3.1,3.1v1.3c0,1.7,1.4,3.1,3.1,3.1h23.1c1.7,0,3.1-1.4,3.1-3.1V34
		C47.5,32.3,46.1,30.9,44.4,30.9z"/>
	<path fill="#F7A93B" d="M14.2,26.7c0-0.1,0-0.2-0.1-0.2c-0.1,0-0.2,0-0.3,0l-13.2,9c-0.1,0.1-0.1,0.2-0.1,0.3
		c0,0.1,0.1,0.2,0.2,0.2l12.5,1.8c0,0,0,0,0,0c0.1,0,0.1,0,0.2-0.1c0.1,0,0.1-0.1,0.1-0.2l0.2-3.8l0.3-4.3L14.2,26.7z"/>
	<path fill="#294E58" d="M19.7,24.4l-5.6,5l-0.3,4.3c0.1,0,0.1-0.1,0.2-0.1l5.6-5l0.6-4.4C20,24.2,19.8,24.3,19.7,24.4z"/>
	<path fill="#4DA0D8" d="M45.6,29.1l-1.4-8.5c0-0.1-0.1-0.2-0.2-0.2H38L37.3,9.8c0-0.1-0.1-0.2-0.3-0.2h-9c-0.1,0-0.2,0.1-0.2,0.2
		l-4,10.7h-3c-0.1,0-0.2,0.1-0.3,0.2l-0.5,3.5l-0.6,4.4l-0.1,0.6H45.6z"/>
</g>
</svg>
