<?xml version="1.0" encoding="utf-8"?>
<!-- Generator: Adobe Illustrator 18.0.0, SVG Export Plug-In . SVG Version: 6.00 Build 0)  -->
<!DOCTYPE svg PUBLIC "-//W3C//DTD SVG 1.1//EN" "http://www.w3.org/Graphics/SVG/1.1/DTD/svg11.dtd">
<svg version="1.1" id="Layer_1" xmlns="http://www.w3.org/2000/svg" xmlns:xlink="http://www.w3.org/1999/xlink" x="0px" y="0px"
	 viewBox="0 0 48 48" enable-background="new 0 0 48 48" xml:space="preserve">
<g>
	<path fill="#F04B36" d="M36.9,30.7c-2.9,0-5.3,2.4-5.3,5.3s2.4,5.3,5.3,5.3c2.9,0,5.3-2.4,5.3-5.3S39.8,30.7,36.9,30.7z"/>
	<path fill="#F04B36" d="M11.1,30.7c-2.9,0-5.3,2.4-5.3,5.3s2.4,5.3,5.3,5.3c2.9,0,5.3-2.4,5.3-5.3S14.1,30.7,11.1,30.7z"/>
	<path fill="#0DB89A" d="M47.2,6.7H18.4V36h11.1c0,0,0,0,0,0c0-4.1,3.3-7.3,7.3-7.3s7.3,3.3,7.3,7.3c0,0,0,0,0,0h3
		c0.1,0,0.3-0.1,0.3-0.3V6.9C47.5,6.8,47.4,6.7,47.2,6.7z M37.9,20.2h-4.4v4.4c0,0.6-0.5,1-1,1c-0.6,0-1-0.5-1-1v-4.4h-4.4
		c-0.6,0-1-0.5-1-1c0-0.6,0.5-1,1-1h4.4v-4.4c0-0.6,0.5-1,1-1c0.6,0,1,0.5,1,1v4.4h4.4c0.6,0,1,0.5,1,1C39,19.8,38.5,20.2,37.9,20.2
		z"/>
	<path fill="#F7A93B" d="M11.1,28.7c2.1,0,3.9,0.9,5.3,2.2V10.3C1.9,10.9,0.5,26.8,0.5,27v8.8c0,0.1,0.1,0.3,0.3,0.3h3c0,0,0,0,0,0
		C3.8,32,7.1,28.7,11.1,28.7z"/>
</g>
</svg>
