<?xml version="1.0" encoding="utf-8"?>
<!-- Generator: Adobe Illustrator 18.0.0, SVG Export Plug-In . SVG Version: 6.00 Build 0)  -->
<!DOCTYPE svg PUBLIC "-//W3C//DTD SVG 1.1//EN" "http://www.w3.org/Graphics/SVG/1.1/DTD/svg11.dtd">
<svg version="1.1" id="Layer_1" xmlns="http://www.w3.org/2000/svg" xmlns:xlink="http://www.w3.org/1999/xlink" x="0px" y="0px"
	 viewBox="0 0 48 48" enable-background="new 0 0 48 48" xml:space="preserve">
<g>
	<path fill="none" d="M25.6,37.4c-0.6,0-1,0.5-1,1v3.4c0,0.6,0.5,1,1,1c0.6,0,1-0.5,1-1v-3.4C26.7,37.9,26.2,37.4,25.6,37.4z"/>
	<path fill="none" d="M19.4,37.4c-0.6,0-1,0.5-1,1v3.4c0,0.6,0.5,1,1,1c0.6,0,1-0.5,1-1v-3.4C20.4,37.9,19.9,37.4,19.4,37.4z"/>
	<path fill="#CFD0D1" d="M40.4,18.8l6.9-1.9c0.1,0,0.2-0.1,0.2-0.2c0-0.1,0-0.2-0.1-0.3l-6.3-3.2v-12C41.1,1.1,41,1,40.9,1h-3.8
		C37,1,36.9,1,36.9,1.1L33,8.4C29.5,6.8,25,5.9,20.5,5.9c-11,0-20,5.2-20,11.7c0,6.4,8.8,11.6,19.7,11.7l3-0.1
		C32.3,28.4,39.5,24.2,40.4,18.8z"/>
	<path fill="#F04B36" d="M30.1,33.2h-6.8v-4.1l-3,0.1v4h-5.3c-1.9,0-3.4,1.7-3.4,3.7v6.3c0,2.1,1.5,3.7,3.4,3.7h15.2
		c1.9,0,3.4-1.7,3.4-3.7v-6.3C33.5,34.9,32,33.2,30.1,33.2z M20.4,41.8c0,0.6-0.5,1-1,1c-0.6,0-1-0.5-1-1v-3.4c0-0.6,0.5-1,1-1
		c0.6,0,1,0.5,1,1V41.8z M26.7,41.8c0,0.6-0.5,1-1,1c-0.6,0-1-0.5-1-1v-3.4c0-0.6,0.5-1,1-1c0.6,0,1,0.5,1,1V41.8z"/>
</g>
</svg>
