<?xml version="1.0" encoding="utf-8"?>
<!-- Generator: Adobe Illustrator 18.0.0, SVG Export Plug-In . SVG Version: 6.00 Build 0)  -->
<!DOCTYPE svg PUBLIC "-//W3C//DTD SVG 1.1//EN" "http://www.w3.org/Graphics/SVG/1.1/DTD/svg11.dtd">
<svg version="1.1" id="Layer_1" xmlns="http://www.w3.org/2000/svg" xmlns:xlink="http://www.w3.org/1999/xlink" x="0px" y="0px"
	 viewBox="0 0 48 48" enable-background="new 0 0 48 48" xml:space="preserve">
<g>
	<path fill="#E77528" d="M44.5,33.8h-4.8c0.1,0.5,0.2,0.9,0.2,1.4c0,0.5-0.1,1-0.2,1.5h4.9c0.8,0,1.5-0.7,1.5-1.5
		C46,34.4,45.3,33.8,44.5,33.8z"/>
	<path fill="#4DA0D8" d="M33.3,30.7c-2.5,0-4.5,2-4.5,4.5s2,4.5,4.5,4.5c2.5,0,4.5-2,4.5-4.5S35.8,30.7,33.3,30.7z"/>
	<path fill="#4DA0D8" d="M8.7,30.7c-2.5,0-4.5,2-4.5,4.5s2,4.5,4.5,4.5c2.5,0,4.5-2,4.5-4.5S11.2,30.7,8.7,30.7z"/>
	<path fill="#F04B36" d="M47.3,14.1c-1.1-4.1-8.4-5.9-15.2-5.9c-2.2,0-4.2,0.2-5.6,0.6c-2.5,0.7-4.6,2.4-5.9,4.7
		c-1.4,2.5-1.7,5.4-0.9,8.2c1.3,4.6,5.4,7.9,10,7.9c0.9,0,1.7-0.1,2.6-0.4c3.8-1.1,11.5-5.9,14.2-10.8
		C47.4,16.9,47.7,15.4,47.3,14.1z"/>
	<path fill="#E77528" d="M26.9,33.8h-9.8c-0.1,0-0.1,0-0.2,0V15.6l-0.9-0.1c0,0-0.8-0.1-1.9-0.1c-8.6,0-13.7,4.1-13.7,11.1v10.2h1.9
		c-0.1-0.5-0.2-1-0.2-1.5c0-3.6,2.9-6.5,6.5-6.5c3.6,0,6.5,2.9,6.5,6.5c0,0.5-0.1,1-0.2,1.5h1.9v0c0.1,0,0.1,0,0.2,0h9.8
		c-0.1-0.5-0.2-1-0.2-1.5C26.7,34.7,26.8,34.2,26.9,33.8z"/>
</g>
</svg>
