<?xml version="1.0" encoding="utf-8"?>
<!-- Generator: Adobe Illustrator 18.0.0, SVG Export Plug-In . SVG Version: 6.00 Build 0)  -->
<!DOCTYPE svg PUBLIC "-//W3C//DTD SVG 1.1//EN" "http://www.w3.org/Graphics/SVG/1.1/DTD/svg11.dtd">
<svg version="1.1" id="Layer_1" xmlns="http://www.w3.org/2000/svg" xmlns:xlink="http://www.w3.org/1999/xlink" x="0px" y="0px"
	 viewBox="0 0 48 48" enable-background="new 0 0 48 48" xml:space="preserve">
<g>
	<path fill="#4DA0D8" d="M38.4,26.6c-4,0-7.2,3.2-7.2,7.2c0,4,3.2,7.2,7.2,7.2c4,0,7.2-3.3,7.2-7.2C45.7,29.9,42.4,26.6,38.4,26.6z"
		/>
	<path fill="#4DA0D8" d="M12.7,26.6c-4,0-7.2,3.2-7.2,7.2c0,4,3.2,7.2,7.2,7.2c4,0,7.2-3.3,7.2-7.2C19.9,29.9,16.7,26.6,12.7,26.6z"
		/>
	<path fill="#0DB89A" d="M47.3,10.3c-0.6-1.2-2.1-1.8-4.6-1.8l-25.1,0v0l-0.6,0l-0.3-0.9c-0.1-0.4-0.5-0.7-0.9-0.7H3
		c-0.5,0-1,0.4-1,1s0.4,1,1,1h12l1.4,4.1h2.1l5.3,15.6c0.1,0.1,0.4,0.7,1,0.9c0.7,0.2,1.6-0.3,2.2-0.7c2.3-1.7,10.4-9.2,15-13.5
		l0.2-0.2c-0.3,0.3-0.5,0.5-0.8,0.8v2.7c2.7-2.5,4.8-4.4,5-4.6c0,0,0.1-0.1,0.1-0.1C46.6,13.7,48,11.9,47.3,10.3z M28.5,21.8
		c-0.1,0-0.2,0.1-0.4,0.1c-0.4,0-0.8-0.2-0.9-0.6l-2.5-6.3c-0.2-0.5,0-1.1,0.6-1.3c0.5-0.2,1.1,0,1.3,0.6l2.5,6.3
		C29.2,21.1,29,21.6,28.5,21.8z M33.9,18.2c-0.1,0.1-0.3,0.1-0.4,0.1c-0.4,0-0.7-0.2-0.9-0.6L31.3,15c-0.2-0.5,0-1.1,0.5-1.3
		c0.5-0.2,1.1,0,1.3,0.5l1.3,2.7C34.6,17.4,34.4,18,33.9,18.2z"/>
	<path fill="#F04B36" d="M7.4,13.1l-5,8.2l16.7,0L16.4,13H7.6C7.5,13,7.5,13,7.4,13.1z"/>
	<path fill="#E77528" d="M25.1,31.5c-0.3,0-0.6,0-0.9-0.1c-1.6-0.4-2.3-1.9-2.3-2l-2.1-6.2c-0.1,0.1-0.3,0.1-0.4,0.1h0l-18.2,0
		l-0.7,1.1c0,0,0,0.1,0,0.1v11.6c0,0.1,0.1,0.2,0.2,0.2h3.1c-0.2-0.8-0.3-1.6-0.3-2.4c0-5.1,4.1-9.2,9.2-9.2c5.1,0,9.2,4.1,9.2,9.2
		c0,0.8-0.1,1.5-0.3,2.2l7.8-0.1c-0.2-0.7-0.3-1.4-0.3-2.1c0-5.1,4.1-9.2,9.2-9.2c1,0,2,0.2,2.9,0.5v-6.5
		c-4.6,4.3-11.1,10.2-13.2,11.7C27.1,31.1,26.1,31.5,25.1,31.5z"/>
</g>
</svg>
