<?xml version="1.0" encoding="utf-8"?>
<!-- Generator: Adobe Illustrator 18.0.0, SVG Export Plug-In . SVG Version: 6.00 Build 0)  -->
<!DOCTYPE svg PUBLIC "-//W3C//DTD SVG 1.1//EN" "http://www.w3.org/Graphics/SVG/1.1/DTD/svg11.dtd">
<svg version="1.1" id="Layer_1" xmlns="http://www.w3.org/2000/svg" xmlns:xlink="http://www.w3.org/1999/xlink" x="0px" y="0px"
	 viewBox="0 0 48 48" enable-background="new 0 0 48 48" xml:space="preserve">
<g>
	<path fill="#010101" d="M24,0.6C24,0.6,24,0.6,24,0.6C24,0.5,24.1,0.5,24,0.6C24.1,0.5,24,0.5,24,0.6C24,0.5,23.9,0.5,24,0.6
		C23.9,0.5,24,0.5,24,0.6C24,0.6,24,0.6,24,0.6z"/>
	<path fill="#4DA0D8" d="M21.7,28.1c0.1,0.2,1.6,3.9,2.3,7.1c0.6-3.2,2.2-6.9,2.2-7.1c8-17.1-2-26-2.1-26.1c0,0-0.1-0.1-0.1-0.1
		c0,0-0.1,0.1-0.1,0.1C23.5,2.4,13.8,11.1,21.7,28.1z"/>
	<path fill="#0DB89A" d="M25.6,0.6c1.2,1.1,10.7,11,2.5,28.4c0,0-1.9,4.6-2.3,7.7c0,0,0,0,0,0c0,0,0,0,0.1,0c0.1,0,0.2-0.1,0.2-0.1
		c1.3-2.7,4.7-5.4,7.4-7.6c0.4-0.3,0.8-0.6,1.1-0.9c3.7-3,5.8-7.3,5.8-11.9C40.4,8,33.9,1.3,25.6,0.6z"/>
	<path fill="#F04B36" d="M22.1,36.6C22.1,36.6,22.2,36.6,22.1,36.6C22.2,36.6,22.2,36.6,22.1,36.6c-0.3-3.1-2.2-7.7-2.2-7.7
		c-8.1-17.3,1.4-27.2,2.5-28.3C14.1,1.3,7.6,8,7.6,16.1c0,4.6,2.1,8.9,5.8,11.9c0.4,0.3,0.7,0.6,1.1,0.9c2.7,2.2,6.1,4.9,7.4,7.6
		C21.9,36.6,22,36.6,22.1,36.6z"/>
	<path fill="#E77528" d="M28.7,40.5h-9.3c-0.1,0-0.3,0.1-0.3,0.3v6.5c0,0.1,0.1,0.3,0.3,0.3h9.3c0.1,0,0.3-0.1,0.3-0.3v-6.5
		C28.9,40.6,28.8,40.5,28.7,40.5z"/>
</g>
</svg>
