<?xml version="1.0" encoding="utf-8"?>
<!-- Generator: Adobe Illustrator 18.0.0, SVG Export Plug-In . SVG Version: 6.00 Build 0)  -->
<!DOCTYPE svg PUBLIC "-//W3C//DTD SVG 1.1//EN" "http://www.w3.org/Graphics/SVG/1.1/DTD/svg11.dtd">
<svg version="1.1" id="Layer_1" xmlns="http://www.w3.org/2000/svg" xmlns:xlink="http://www.w3.org/1999/xlink" x="0px" y="0px"
	 viewBox="0 0 48 48" enable-background="new 0 0 48 48" xml:space="preserve">
<g>
	<path fill="#294E58" d="M46.1,41H1.9c-0.8,0-1.4,0.6-1.4,1.4s0.6,1.4,1.4,1.4h44.1c0.8,0,1.4-0.6,1.4-1.4S46.9,41,46.1,41z"/>
	<path fill="#F04B36" d="M3.7,38.7h4.3c0.8,0,1.4-0.6,1.4-1.4c0-0.8-0.6-1.4-1.4-1.4H3.7c-0.8,0-1.4,0.6-1.4,1.4
		C2.2,38.1,2.9,38.7,3.7,38.7z"/>
	<path fill="#F04B36" d="M15.6,35.8c-0.8,0-1.4,0.6-1.4,1.4c0,0.8,0.6,1.4,1.4,1.4h4.3c0.8,0,1.4-0.6,1.4-1.4c0-0.8-0.6-1.4-1.4-1.4
		H15.6z"/>
	<path fill="#F04B36" d="M27.6,35.8c-0.8,0-1.4,0.6-1.4,1.4c0,0.8,0.6,1.4,1.4,1.4h4.3c0.8,0,1.4-0.6,1.4-1.4c0-0.8-0.6-1.4-1.4-1.4
		H27.6z"/>
	<path fill="#F04B36" d="M39.5,35.8c-0.8,0-1.4,0.6-1.4,1.4c0,0.8,0.6,1.4,1.4,1.4h4.3c0.8,0,1.4-0.6,1.4-1.4c0-0.8-0.6-1.4-1.4-1.4
		H39.5z"/>
	<path fill="#06728D" d="M21.2,10.1C21.7,9.8,22,9.3,22,8.8c0-0.5-0.3-1-0.7-1.3l-5.6-3.2c-0.4-0.3-1-0.3-1.4,0L8.5,7.6
		C8.1,7.8,7.8,8.3,7.8,8.8c0,0.5,0.3,1,0.7,1.2l2.9,1.7h6.9L21.2,10.1z M14.9,10.4l-2.7-1.6l2.7-1.6l2.7,1.6L14.9,10.4z"/>
	<path fill="#CFD0D1" d="M43,20.5c-1.9,0.6-4.8,0.7-6.8,0.7c-1.4,0-2.5-0.1-2.6-0.1c-0.5,0-0.9-0.5-0.9-1c0-0.5,0.5-0.9,1-0.9
		c1.6,0.1,5.7,0.2,8.2-0.4c-1.5-2.1-3.3-3.9-4.9-4.8c-2.7-1.5-7.6-2.2-11.3-2.2h-7.3h-6.9H2.8c-0.3,0-0.5,0.2-0.5,0.5v7h22.9
		c0.5,0,1,0.4,1,1c0,0.5-0.4,1-1,1H2.3v11.3c0,0.3,0.2,0.5,0.5,0.5H42c0.1,0,0.2,0,0.3-0.1c0.5-0.4,3.3-2.6,3.4-4
		C46,26.5,44.8,23.4,43,20.5z"/>
</g>
</svg>
