<?xml version="1.0" encoding="utf-8"?>
<!-- Generator: Adobe Illustrator 18.0.0, SVG Export Plug-In . SVG Version: 6.00 Build 0)  -->
<!DOCTYPE svg PUBLIC "-//W3C//DTD SVG 1.1//EN" "http://www.w3.org/Graphics/SVG/1.1/DTD/svg11.dtd">
<svg version="1.1" id="Layer_1" xmlns="http://www.w3.org/2000/svg" xmlns:xlink="http://www.w3.org/1999/xlink" x="0px" y="0px"
	 viewBox="0 0 48 48" enable-background="new 0 0 48 48" xml:space="preserve">
<g>
	<path fill="#0DB89A" d="M41.7,23.5c-0.3-2.4-0.6-4.9-0.6-5.9c0-9.4-7.7-17.1-17.1-17.1S6.9,8.2,6.9,17.6c0,1-0.3,3.5-0.6,5.9
		c-0.3,2.5-0.6,4.9-0.6,6c0,5.3,2.9,10.4,7.8,13.7c0,0,0.1,0,0.1,0c0,0,0.1,0,0.1,0c0.1,0,0.1-0.1,0.1-0.2v-0.8
		c0-2.9,2.3-5.2,5.2-5.2H29c2.9,0,5.2,2.3,5.2,5.2v0.8c0,0.1,0.1,0.2,0.1,0.2c0.1,0,0.2,0,0.3,0c4.9-3.3,7.8-8.4,7.8-13.7
		C42.3,28.5,42,26.1,41.7,23.5z M13,32.7c-1,0-1.8-0.8-1.8-1.8c0-1,0.8-1.8,1.8-1.8c1,0,1.8,0.8,1.8,1.8C14.8,31.9,14,32.7,13,32.7z
		 M28.3,31.9h-8.5c-0.5,0-1-0.4-1-1c0-0.5,0.4-1,1-1h8.5c0.5,0,1,0.4,1,1C29.3,31.5,28.8,31.9,28.3,31.9z M31.2,23.2H16.8
		c-2.6,0-4.7-2.1-4.7-4.7v-3.3c0-2.6,2.1-4.7,4.7-4.7h14.5c2.6,0,4.7,2.1,4.7,4.7v3.3C35.9,21.1,33.8,23.2,31.2,23.2z M35,32.7
		c-1,0-1.8-0.8-1.8-1.8c0-1,0.8-1.8,1.8-1.8s1.8,0.8,1.8,1.8C36.9,31.9,36,32.7,35,32.7z"/>
	<path fill="#F04B36" d="M29.2,40.8H18.8c-0.5,0-1,0.4-1,1s0.4,1,1,1H23v3.7c0,0.5,0.4,1,1,1c0.5,0,1-0.4,1-1v-3.7h4.2
		c0.5,0,1-0.4,1-1S29.7,40.8,29.2,40.8z"/>
</g>
</svg>
