<?xml version="1.0" encoding="utf-8"?>
<!-- Generator: Adobe Illustrator 18.0.0, SVG Export Plug-In . SVG Version: 6.00 Build 0)  -->
<!DOCTYPE svg PUBLIC "-//W3C//DTD SVG 1.1//EN" "http://www.w3.org/Graphics/SVG/1.1/DTD/svg11.dtd">
<svg version="1.1" id="Layer_1" xmlns="http://www.w3.org/2000/svg" xmlns:xlink="http://www.w3.org/1999/xlink" x="0px" y="0px"
	 viewBox="0 0 48 48" enable-background="new 0 0 48 48" xml:space="preserve">
<g>
	<path fill="#F7A93B" d="M15.1,11.1c2.1,0,3.9-1.4,4.5-3.3h8.6c0.8,0,1.5-0.7,1.5-1.5c0-0.8-0.7-1.5-1.5-1.5h-8.6
		C19,3,17.2,1.6,15.1,1.6c-2.1,0-3.9,1.4-4.5,3.3H2c-0.8,0-1.5,0.7-1.5,1.5c0,0.8,0.7,1.5,1.5,1.5h8.6C11.2,9.7,13,11.1,15.1,11.1z"
		/>
	<path fill="#294E58" d="M42.7,28.5c-0.8,0-1.5,0.7-1.5,1.5v15c0,0.8,0.7,1.5,1.5,1.5c0.8,0,1.5-0.7,1.5-1.5V30
		C44.2,29.1,43.5,28.5,42.7,28.5z"/>
	<path fill="#F04B36" d="M45.7,19.8c0-0.1-0.1-0.1-0.2-0.1H28c-0.1,0-0.2,0-0.2,0.1c-1.2,2.1-1.8,4.5-1.8,7c0,7,4.8,12.7,10.8,12.7
		c0,0,0.1,0,0.2,0c0.1,0,0.2-0.1,0.2-0.2v-7.8c0-3.6,2.5-6.5,5.5-6.5c1.7,0,3.3,0.9,4.3,2.5c0.1,0.1,0.2,0.1,0.3,0.1
		c0.1,0,0.2-0.1,0.2-0.2c0-0.1,0-0.1,0-0.2c0-0.1,0-0.2,0-0.3C47.5,24.3,46.9,21.9,45.7,19.8z"/>
	<path fill="#4DA0D8" d="M18,12h-5.7c-3.5,0-6.3,2.3-6.3,5.2v17c0,2.3,1.9,4.4,4.6,5l1.1,0V28.7c0-1.9,1.5-3.4,3.4-3.4
		c1.9,0,3.4,1.5,3.4,3.4v10.6l0.6,0h0l0,0c2.9-0.5,5-2.6,5-5.1v-17C24.2,14.4,21.4,12,18,12z M17.3,20.1h-4.3c-0.5,0-1-0.4-1-1
		c0-0.5,0.4-1,1-1h4.3c0.5,0,1,0.4,1,1C18.2,19.6,17.8,20.1,17.3,20.1z"/>
	<path fill="#294E58" d="M15.1,27.3c-0.8,0-1.5,0.7-1.5,1.5v16.2c0,0.8,0.7,1.5,1.5,1.5c0.8,0,1.5-0.7,1.5-1.5V28.7
		C16.6,27.9,15.9,27.3,15.1,27.3z"/>
</g>
</svg>
