<?xml version="1.0" encoding="utf-8"?>
<!-- Generator: Adobe Illustrator 18.0.0, SVG Export Plug-In . SVG Version: 6.00 Build 0)  -->
<!DOCTYPE svg PUBLIC "-//W3C//DTD SVG 1.1//EN" "http://www.w3.org/Graphics/SVG/1.1/DTD/svg11.dtd">
<svg version="1.1" id="Layer_1" xmlns="http://www.w3.org/2000/svg" xmlns:xlink="http://www.w3.org/1999/xlink" x="0px" y="0px"
	 viewBox="0 0 48 48" enable-background="new 0 0 48 48" xml:space="preserve">
<g>
	<path fill="#E77528" d="M7.6,21.8l2.4-1c0.7-0.3,1.1-1.1,0.8-1.9c-0.3-0.7-1.1-1.1-1.9-0.8l-2.4,1l-1-2.4C5.2,16,4.3,15.7,3.6,16
		c-0.7,0.3-1.1,1.1-0.8,1.9l1,2.4l-2.4,1c-0.7,0.3-1.1,1.1-0.8,1.9C0.8,23.7,1.4,24,1.9,24c0.2,0,0.4,0,0.5-0.1l2.4-1l1,2.4
		c0.2,0.6,0.8,0.9,1.3,0.9c0.2,0,0.4,0,0.5-0.1c0.7-0.3,1.1-1.1,0.8-1.9L7.6,21.8z"/>
	<path fill="#06728D" d="M38.4,30l-2.6,1.2c0,0.2,0.1,0.4,0.3,0.5c0.9,1.1,1.4,2.4,1.7,3.4H26.8c0.4-2.6,1.1-3.8,1.1-3.8l-2.4-1.6
		c0,0-0.1,0.1-0.1,0.1c-0.1,0.2-1.2,2.2-1.7,6.6c0,0.4,0.1,0.8,0.4,1.1c0.3,0.3,0.7,0.5,1.1,0.5h14.3c0.4,0,0.8-0.2,1.1-0.5
		c0.3-0.3,0.4-0.7,0.4-1.1C40.9,36.2,40.5,32.8,38.4,30z"/>
	<path fill="#0DB89A" d="M23.3,22.6L9.7,22.4c-0.1,0-0.2,0.1-0.2,0.2c0,0.1,0,0.2,0.1,0.3l14.9,5.9c0.3,0.3,0.6,0.6,1,0.9l2.4,1.6
		C28,31.1,28,31.1,28,31c1.3,0.5,2.7,0.7,4.2,0.7c1.3,0,2.5-0.2,3.6-0.5l2.6-1.2c2-1.3,3.2-3.1,3.2-5.2c0-3.5-3.7-6.5-8.3-6.9
		L30.4,18C27.1,18.5,24.4,20.2,23.3,22.6z"/>
	<path fill="#F04B36" d="M46.1,11H33.2c-0.2-0.6-0.7-1-1.4-1c-0.6,0-1.2,0.4-1.4,1H17.6c-0.8,0-1.4,0.6-1.4,1.4
		c0,0.8,0.6,1.4,1.4,1.4h12.8V18l2.9-0.1v-4h12.8c0.8,0,1.4-0.6,1.4-1.4C47.5,11.7,46.9,11,46.1,11z"/>
</g>
</svg>
