<?xml version="1.0" encoding="utf-8"?>
<!-- Generator: Adobe Illustrator 18.0.0, SVG Export Plug-In . SVG Version: 6.00 Build 0)  -->
<!DOCTYPE svg PUBLIC "-//W3C//DTD SVG 1.1//EN" "http://www.w3.org/Graphics/SVG/1.1/DTD/svg11.dtd">
<svg version="1.1" id="Layer_1" xmlns="http://www.w3.org/2000/svg" xmlns:xlink="http://www.w3.org/1999/xlink" x="0px" y="0px"
	 viewBox="0 0 48 48" enable-background="new 0 0 48 48" xml:space="preserve">
<g>
	<ellipse fill="#06728D" cx="16.8" cy="5.9" rx="4.1" ry="4"/>
	<path fill="#06728D" d="M31.2,9.9c2.2,0,4.1-1.8,4.1-4c0-2.2-1.8-4-4.1-4c-2.2,0-4.1,1.8-4.1,4C27.1,8.1,29,9.9,31.2,9.9z"/>
	<path fill="#F7A93B" d="M3.8,27c-1.5,1.3-2.4,3.2-2.4,5.3v0.7c0,2.8,1.7,5.3,4.1,6.5v3.3c0,1.7,1.4,3.1,3.2,3.1h1
		c1.8,0,3.2-1.4,3.2-3.1v-2.6h22.3v2.6c0,1.7,1.4,3.1,3.2,3.1h1c1.8,0,3.2-1.4,3.2-3.1v-3.3c2.4-1.2,4.1-3.6,4.1-6.5v-0.7
		c0-2.1-0.9-4-2.4-5.3H3.8z M10.3,34.4c-1,0-1.8-0.8-1.8-1.7c0-1,0.8-1.7,1.8-1.7c1,0,1.8,0.8,1.8,1.7
		C12.1,33.7,11.3,34.4,10.3,34.4z M30.4,33.7H17.6c-0.5,0-1-0.4-1-1c0-0.5,0.4-1,1-1h12.8c0.5,0,1,0.4,1,1
		C31.4,33.2,31,33.7,30.4,33.7z M37.7,34.4c-1,0-1.8-0.8-1.8-1.7c0-1,0.8-1.7,1.8-1.7c1,0,1.8,0.8,1.8,1.7
		C39.4,33.7,38.6,34.4,37.7,34.4z"/>
	<path fill="#CFD0D1" d="M46.5,21h-5.2c-0.1,0-0.2,0-0.2,0l-2.2-8.7H9.1l-2.2,8.7c-0.1,0-0.2,0-0.2,0H1.5c-0.5,0-1,0.4-1,1
		c0,0.5,0.4,1,1,1h5l-0.5,2.1h36.1L41.5,23h5c0.5,0,1-0.4,1-1C47.5,21.5,47.1,21,46.5,21z M28.4,23h-8.9c-0.5,0-1-0.4-1-1
		c0-0.5,0.4-1,1-1h8.9c0.5,0,1,0.4,1,1C29.4,22.5,29,23,28.4,23z"/>
</g>
</svg>
