<?xml version="1.0" encoding="utf-8"?>
<!-- Generator: Adobe Illustrator 18.0.0, SVG Export Plug-In . SVG Version: 6.00 Build 0)  -->
<!DOCTYPE svg PUBLIC "-//W3C//DTD SVG 1.1//EN" "http://www.w3.org/Graphics/SVG/1.1/DTD/svg11.dtd">
<svg version="1.1" id="Layer_1" xmlns="http://www.w3.org/2000/svg" xmlns:xlink="http://www.w3.org/1999/xlink" x="0px" y="0px"
	 viewBox="0 0 48 48" enable-background="new 0 0 48 48" xml:space="preserve">
<g>
	<path fill="#E77528" d="M42.8,9.3c-0.1-0.1-0.2-0.2-0.4-0.2H29.8c-0.3,0-0.5,0.2-0.5,0.5v9.9h17.4C45.4,13.7,43,9.6,42.8,9.3z"/>
	<path fill="#294E58" d="M16.8,27.9c-3.1,0-5.5,2.5-5.5,5.5c0,3,2.5,5.5,5.5,5.5c3,0,5.5-2.5,5.5-5.5C22.3,30.4,19.8,27.9,16.8,27.9
		z"/>
	<path fill="#0DB89A" d="M47.1,21.4H29.3v3.4H6.2c-0.4,0-0.8,0.2-1.1,0.5l-4.3,5c-0.5,0.6-0.5,1.5,0.2,2.1c0.3,0.2,0.6,0.4,1,0.4
		c0.4,0,0.8-0.2,1.1-0.5l3.8-4.5h22.5l0.2,3.6c0,0.3,0.2,0.5,0.5,0.5h1.2c0.8-3.3,3.7-5.8,7.3-5.8c3.6,0,6.5,2.5,7.3,5.8h0.7
		c0.2,0,0.4-0.2,0.5-0.4C47.7,27.9,47.6,24.5,47.1,21.4z"/>
	<path fill="#294E58" d="M38.5,27.9c-3,0-5.5,2.5-5.5,5.5c0,3,2.5,5.5,5.5,5.5c3,0,5.5-2.5,5.5-5.5C44,30.4,41.5,27.9,38.5,27.9z"/>
</g>
</svg>
