<?xml version="1.0" encoding="utf-8"?>
<!-- Generator: Adobe Illustrator 18.0.0, SVG Export Plug-In . SVG Version: 6.00 Build 0)  -->
<!DOCTYPE svg PUBLIC "-//W3C//DTD SVG 1.1//EN" "http://www.w3.org/Graphics/SVG/1.1/DTD/svg11.dtd">
<svg version="1.1" id="Layer_1" xmlns="http://www.w3.org/2000/svg" xmlns:xlink="http://www.w3.org/1999/xlink" x="0px" y="0px"
	 viewBox="0 0 48 48" enable-background="new 0 0 48 48" xml:space="preserve">
<g>
	<path fill="#F04B36" d="M31.4,27.7c0.5-0.5,0.7-1.1,0.7-1.8c0-0.7-0.3-1.3-0.8-1.8c-1-0.9-2.7-0.9-3.6,0.1c-0.9,1-0.9,2.6,0.1,3.6
		c0.5,0.4,1.1,0.7,1.7,0.7C30.2,28.6,30.9,28.3,31.4,27.7z"/>
	<path fill="#F04B36" d="M38.8,34.6c-0.5,0.5-0.7,1.1-0.7,1.8c0,0.7,0.3,1.3,0.8,1.8c0.5,0.4,1.1,0.7,1.7,0.7c0.7,0,1.4-0.3,1.8-0.8
		c0.9-1,0.9-2.6-0.1-3.6C41.3,33.6,39.7,33.7,38.8,34.6z"/>
	<path fill="#4DA0D8" d="M7.6,32.2c-1.8,0-3.3,1.5-3.3,3.3c0,1.8,1.5,3.3,3.3,3.3c1.8,0,3.3-1.5,3.3-3.3
		C10.9,33.7,9.5,32.2,7.6,32.2z"/>
	<path fill="#4DA0D8" d="M26.3,32.2c-1.8,0-3.3,1.5-3.3,3.3c0,1.8,1.5,3.3,3.3,3.3c1.8,0,3.3-1.5,3.3-3.3
		C29.6,33.7,28.1,32.2,26.3,32.2z"/>
	<path fill="#F04B36" d="M12.8,23C12.8,23,12.8,22.9,12.8,23c0-0.1,0-0.1,0-0.2c0-0.5-0.4-1-1-1H9.4v-2c0-0.5-0.4-1-1-1
		c-0.5,0-1,0.4-1,1v2H5.1c-0.3,0-0.6,0.2-0.8,0.4c-0.4,0.7-2.2,3.4-3.1,5.8h11.6V23z"/>
	<path fill="#E77528" d="M16.8,34.4V13.6h1.9v14.6c0,0.1,0,0.1,0,0.2c0.1,0.7,1,2.1,3,2.1c2.4,0,3.3-2.1,3.5-3.2
		c0.1-0.5-0.3-1-0.8-1.1c-0.5-0.1-1,0.3-1.1,0.8c0,0.2-0.3,1.5-1.5,1.5c-0.8,0-1-0.3-1.1-0.5V13.6h2.9c0.5,0,1-0.4,1-1
		c0-0.5-0.4-1-1-1h-6.8V9.8c0-0.5-0.4-1-1-1c-0.5,0-1,0.4-1,1v24.5h-2.1v-4.3H0.6c0,0.2-0.1,0.4-0.1,0.6v4.7c0,0.5,0.4,1,1,1h1.7
		c-0.1-0.3-0.1-0.5-0.1-0.8c0-2.5,2-4.5,4.5-4.5c2.5,0,4.5,2,4.5,4.5c0,0.3,0,0.6-0.1,0.8h9.8c-0.1-0.3-0.1-0.5-0.1-0.8
		c0-0.4,0.1-0.8,0.2-1.1H16.8z"/>
	<path fill="#E77528" d="M34,34.4h-3.3c0.1,0.4,0.2,0.7,0.2,1.1c0,0.3,0,0.6-0.1,0.8H34c0.5,0,1-0.4,1-1C35,34.8,34.5,34.4,34,34.4z
		"/>
	<path fill="#F7A93B" d="M47.4,34.9l-0.9-1.5l0.1-4.2c0-0.3-0.1-0.6-0.3-0.7l-4.5-4.2c-0.1-0.1-0.2-0.1-0.3-0.2l-4.9-2.3
		c-0.1-0.1-0.3-0.1-0.4-0.1l-6.2-2.3c-0.3-0.1-0.6-0.1-0.9,0.1l-2.7,1.9c-0.2,0.2-0.4,0.4-0.4,0.7c0,0.3,0.1,0.6,0.3,0.8l0.5,0.5
		c0,0,0,0,0,0c0.7-0.7,1.7-1.2,2.8-1.2c1,0,1.9,0.3,2.5,1c0.7,0.7,1.2,1.6,1.2,2.6c0,1-0.3,2-1,2.7c0,0,0,0,0,0l5.6,5.2c0,0,0,0,0,0
		c0.7-0.7,1.7-1.2,2.7-1.2c1,0,1.9,0.3,2.6,1c1.5,1.4,1.6,3.8,0.2,5.3c0,0,0,0,0,0c0.2,0.1,0.4,0.2,0.6,0.2c0,0,0,0,0,0
		c0.3,0,0.5-0.1,0.7-0.3l2.6-2.8C47.5,35.7,47.6,35.3,47.4,34.9z"/>
</g>
</svg>
