<?xml version="1.0" encoding="utf-8"?>
<!-- Generator: Adobe Illustrator 18.0.0, SVG Export Plug-In . SVG Version: 6.00 Build 0)  -->
<!DOCTYPE svg PUBLIC "-//W3C//DTD SVG 1.1//EN" "http://www.w3.org/Graphics/SVG/1.1/DTD/svg11.dtd">
<svg version="1.1" id="Layer_1" xmlns="http://www.w3.org/2000/svg" xmlns:xlink="http://www.w3.org/1999/xlink" x="0px" y="0px"
	 viewBox="0 0 48 48" enable-background="new 0 0 48 48" xml:space="preserve">
<g>
	<path fill="#4DA0D8" d="M2.8,25.6h27.6c0.1,0,0.3-0.1,0.4-0.2c2.5-3,2.5-7.3,0-10.2c-0.1-0.1-0.2-0.2-0.4-0.2h-7v-1.8
		c0-0.5-0.4-1-1-1c-0.5,0-1,0.4-1,1V15h-8.2v-1.8c0-0.5-0.4-1-1-1s-1,0.4-1,1V15H2.8c-0.1,0-0.3,0.1-0.4,0.2c-2.5,3-2.5,7.3,0,10.2
		C2.5,25.5,2.6,25.6,2.8,25.6z"/>
	<path fill="#0DB89A" d="M41.7,29.6c-1.7,0-3.1,1.4-3.1,3.1c0,1.7,1.4,3.1,3.1,3.1c1.7,0,3.1-1.4,3.1-3.1
		C44.8,31,43.4,29.6,41.7,29.6z"/>
	<path fill="#F04B36" d="M44.7,18.6c-0.2-0.3-0.5-0.5-0.8-0.5h-7.2c-0.5,0-1,0.4-1,1v5.2H47C46.2,21.1,44.8,18.8,44.7,18.6z"/>
	<path fill="#0DB89A" d="M47.3,26.3H35.8v1.2c0,0,0,0.1,0,0.1v0.1H1.6c-0.5,0-1,0.4-1,1c0,0.5,0.4,1,1,1h4.6c-1.7,0.1-3,1.4-3,3.1
		c0,1.7,1.4,3.1,3.1,3.1c1.7,0,3.1-1.4,3.1-3.1c0-1.7-1.3-3-3-3.1h9.4c-1.7,0.1-3,1.4-3,3.1c0,1.7,1.4,3.1,3.1,3.1
		c1.7,0,3.1-1.4,3.1-3.1c0-1.7-1.3-3-3-3.1h19.7v1.9c0,0.5,0.4,0.9,0.9,1c0.1-2.7,2.3-4.8,5-4.8c2.7,0,4.8,2.1,5,4.7
		c0.2-0.1,0.4-0.3,0.5-0.6C47.6,29.8,47.6,28,47.3,26.3z"/>
</g>
</svg>
