<?xml version="1.0" encoding="utf-8"?>
<!-- Generator: Adobe Illustrator 18.0.0, SVG Export Plug-In . SVG Version: 6.00 Build 0)  -->
<!DOCTYPE svg PUBLIC "-//W3C//DTD SVG 1.1//EN" "http://www.w3.org/Graphics/SVG/1.1/DTD/svg11.dtd">
<svg version="1.1" id="Layer_1" xmlns="http://www.w3.org/2000/svg" xmlns:xlink="http://www.w3.org/1999/xlink" x="0px" y="0px"
	 viewBox="0 0 48 48" enable-background="new 0 0 48 48" xml:space="preserve">
<g>
	<path fill="#E77528" d="M13.4,25.3v22h3.8v-22c0-0.1,0-0.3,0.1-0.4h-3.9C13.4,25,13.4,25.2,13.4,25.3z"/>
	<path fill="#E77528" d="M19.2,25.3v22H23v-22c0-0.1,0-0.3,0.1-0.4h-4C19.2,25,19.2,25.2,19.2,25.3z"/>
	<path fill="#E77528" d="M47,24.9h-4.7c0,0.1,0.1,0.2,0.1,0.4v22H47c0.3,0,0.5-0.2,0.5-0.5V25.4C47.5,25.1,47.3,24.9,47,24.9z"/>
	<path fill="#E77528" d="M25,25.3v22h3.8v-22c0-0.1,0-0.3,0.1-0.4h-3.9C25,25,25,25.2,25,25.3z"/>
	<path fill="#E77528" d="M0.5,25.4v21.3c0,0.3,0.2,0.5,0.5,0.5h4.6v-22c0-0.1,0-0.3,0.1-0.4H1C0.7,24.9,0.5,25.1,0.5,25.4z"/>
	<path fill="#E77528" d="M30.8,25.3v22h3.8v-22c0-0.1,0-0.3,0.1-0.4h-3.9C30.8,25,30.8,25.2,30.8,25.3z"/>
	<path fill="#E77528" d="M8.1,24.9H7.5c0,0.1,0.1,0.2,0.1,0.4v22h3.8v-22c0-0.1,0-0.2,0.1-0.3l0.3-0.2L8.1,24.9
		C8.1,24.9,8.1,24.9,8.1,24.9z"/>
	<path fill="#0DB89A" d="M26.5,15.8c-0.4-0.3-0.9-0.5-1.5-0.6V13c2.1-0.5,3.6-2.3,3.6-4.5c0-0.6-0.4-1-1-1c-0.6,0-1,0.4-1,1
		c0,1.1-0.7,2-1.6,2.4c0-0.5-0.5-1-1-1c-0.5,0-1,0.4-1,1c-1-0.4-1.7-1.3-1.7-2.5V1.8c0-0.6-0.4-1-1-1c-0.6,0-1,0.4-1,1v6.7
		c0,2.2,1.6,4.1,3.7,4.5v2.2c-0.5,0.1-1.1,0.3-1.5,0.6L8.1,24.9l3.6,0l10.9-7.4c0.7-0.5,2-0.5,2.8,0l10.9,7.4l3.6,0L26.5,15.8z"/>
	<path fill="#E77528" d="M39.9,24.8l-3.6,0l0.2,0.2c0,0.1,0.1,0.2,0.1,0.3v22h3.8v-22c0-0.1,0-0.3,0.1-0.4H40
		C39.9,24.9,39.9,24.8,39.9,24.8z"/>
</g>
</svg>
