<?xml version="1.0" encoding="utf-8"?>
<!-- Generator: Adobe Illustrator 18.0.0, SVG Export Plug-In . SVG Version: 6.00 Build 0)  -->
<!DOCTYPE svg PUBLIC "-//W3C//DTD SVG 1.1//EN" "http://www.w3.org/Graphics/SVG/1.1/DTD/svg11.dtd">
<svg version="1.1" id="Layer_1" xmlns="http://www.w3.org/2000/svg" xmlns:xlink="http://www.w3.org/1999/xlink" x="0px" y="0px"
	 viewBox="0 0 48 48" enable-background="new 0 0 48 48" xml:space="preserve">
<g>
	<path fill="#0DB89A" d="M45.1,25.7L27.9,36c-0.2,0.1-0.5,0.2-0.8,0.1c-0.3-0.1-0.5-0.2-0.7-0.5L14,15c-0.3-0.6-2.4-4.4-6-4.4H2
		c-0.8,0-1.5,0.7-1.5,1.5c0,0.8,0.7,1.5,1.5,1.5h6c1.9,0,3.3,2.8,3.4,2.8c0,0,0,0.1,0.1,0.1l12.4,20.7c0.4,0.6,0.9,1.1,1.4,1.4
		c-1.2,0.9-1.9,2.3-1.9,3.9c0,2.7,2.2,4.9,4.9,4.9c2.7,0,4.9-2.2,4.9-4.9c0-2-1.2-3.6-2.8-4.4l16.2-9.7c0.7-0.4,0.9-1.3,0.5-2
		C46.7,25.5,45.8,25.3,45.1,25.7z"/>
	<path fill="#F04B36" d="M47.1,17.5L37.9,2.2c-0.6-0.9-1.6-1.5-2.6-1.5c-0.6,0-1.1,0.2-1.6,0.4l-15.3,9.2c-1.5,0.9-1.9,2.8-1,4.2
		l9.2,15.3c0.5,0.9,1.6,1.5,2.6,1.5c0,0,0,0,0,0c0.6,0,1.1-0.2,1.6-0.4L46,21.7c0.7-0.4,1.2-1.1,1.4-1.9
		C47.6,19,47.5,18.2,47.1,17.5z"/>
</g>
</svg>
