<?xml version="1.0" encoding="utf-8"?>
<!-- Generator: Adobe Illustrator 18.0.0, SVG Export Plug-In . SVG Version: 6.00 Build 0)  -->
<!DOCTYPE svg PUBLIC "-//W3C//DTD SVG 1.1//EN" "http://www.w3.org/Graphics/SVG/1.1/DTD/svg11.dtd">
<svg version="1.1" id="Layer_1" xmlns="http://www.w3.org/2000/svg" xmlns:xlink="http://www.w3.org/1999/xlink" x="0px" y="0px"
	 viewBox="0 0 48 48" enable-background="new 0 0 48 48" xml:space="preserve">
<g>
	<path fill="#294E58" d="M41.8,39.5H25.6c-3,0-5.4,1.8-5.4,4c0,2.2,2.4,4,5.4,4h16.2c3,0,5.4-1.8,5.4-4
		C47.2,41.3,44.8,39.5,41.8,39.5z"/>
	<polygon fill="none" points="8.6,17.6 5,22.1 12.2,22.1 	"/>
	<path fill="#CFD0D1" d="M5,22.1H2.4H1.3c-0.3,0-0.5,0.2-0.5,0.5v17c0,0.3,0.2,0.5,0.5,0.5h14.6c0.3,0,0.5-0.2,0.5-0.5v-17
		c0-0.3-0.2-0.5-0.5-0.5h-1.1h-2.6H5z"/>
	<path fill="#F04B36" d="M7.5,0.9c-0.3-0.4-1-0.5-1.4-0.2C5.6,1,5.5,1.6,5.8,2l1.7,2.3v11c0,0.1,0,0.2,0.1,0.3l-5.3,6.6H5l3.6-4.5
		l3.6,4.5h2.6l-5.3-6.6c0-0.1,0.1-0.2,0.1-0.3V7l17.9,23.6l1.7-1.1L7.5,0.9z"/>
	<polygon fill="#0DB89A" points="24,37.5 44.5,37.5 42.7,30.4 38,30.4 38,23.5 29.2,23.5 29.2,29.5 27.5,30.6 24,30.6 	"/>
</g>
</svg>
