<?xml version="1.0" encoding="utf-8"?>
<!-- Generator: Adobe Illustrator 18.0.0, SVG Export Plug-In . SVG Version: 6.00 Build 0)  -->
<!DOCTYPE svg PUBLIC "-//W3C//DTD SVG 1.1//EN" "http://www.w3.org/Graphics/SVG/1.1/DTD/svg11.dtd">
<svg version="1.1" id="Layer_1" xmlns="http://www.w3.org/2000/svg" xmlns:xlink="http://www.w3.org/1999/xlink" x="0px" y="0px"
	 viewBox="0 0 48 48" enable-background="new 0 0 48 48" xml:space="preserve">
<g>
	<path fill="#E77528" d="M17.6,6.9c-0.6,0-1,0.5-1,1V22H2.9c-0.6,0-1,0.5-1,1c0,0.6,0.5,1,1,1h13.7v12.9c0,0.6,0.5,1,1,1
		c0.6,0,1-0.5,1-1v-29C18.6,7.4,18.2,6.9,17.6,6.9z"/>
	<path fill="#F04B36" d="M13.3,18.7V6.9c0-0.3-0.2-0.5-0.5-0.5H1c-0.3,0-0.5,0.2-0.5,0.5v11.8c0,0.3,0.2,0.5,0.5,0.5h11.8
		C13.1,19.2,13.3,19,13.3,18.7z"/>
	<path fill="#F7A93B" d="M27,31.8c-2.7,0-4.9,2.2-4.9,4.9c0,2.7,2.2,4.9,4.9,4.9c2.7,0,4.9-2.2,4.9-4.9C31.9,34,29.7,31.8,27,31.8z"
		/>
	<path fill="#4DA0D8" d="M44.1,33.3c1.3,0,2.4,0.5,3.3,1.3v-2.5c0-2.5-2.1-3.3-3.2-3.4h-8.2V17.1c0-0.3-0.2-0.5-0.5-0.5h-7.7
		c-0.2,0-0.3,0.1-0.4,0.2l-5.8,9.8c0,0.1-0.1,0.2-0.1,0.3v6.4c1.1-1.8,3.2-3.1,5.5-3.1c3.5,0,6.4,2.9,6.4,6.4c0,0.4,0,0.7-0.1,1.1
		h5.8C39.4,35.3,41.5,33.3,44.1,33.3z"/>
	<circle fill="#F7A93B" cx="44.1" cy="38.2" r="3.4"/>
</g>
</svg>
