<?xml version="1.0" encoding="utf-8"?>
<!-- Generator: Adobe Illustrator 18.0.0, SVG Export Plug-In . SVG Version: 6.00 Build 0)  -->
<!DOCTYPE svg PUBLIC "-//W3C//DTD SVG 1.1//EN" "http://www.w3.org/Graphics/SVG/1.1/DTD/svg11.dtd">
<svg version="1.1" id="Layer_1" xmlns="http://www.w3.org/2000/svg" xmlns:xlink="http://www.w3.org/1999/xlink" x="0px" y="0px"
	 viewBox="0 0 48 48" enable-background="new 0 0 48 48" xml:space="preserve">
<g>
	<path fill="#06728D" d="M46.1,29h-5V17.7h5c0.8,0,1.4-0.6,1.4-1.4c0-0.8-0.6-1.4-1.4-1.4H25.4v-5c0-0.8-0.6-1.4-1.4-1.4
		c-0.8,0-1.4,0.6-1.4,1.4v5H1.9c-0.8,0-1.4,0.6-1.4,1.4c0,0.8,0.6,1.4,1.4,1.4h5V29h-5c-0.8,0-1.4,0.6-1.4,1.4
		c0,0.8,0.6,1.4,1.4,1.4h14.2c-0.3,1.8-1.2,4.2-2.9,4.9c-0.7,0.3-1.1,1.1-0.8,1.9c0.2,0.6,0.8,0.9,1.3,0.9c0.2,0,0.4,0,0.5-0.1
		c3.4-1.3,4.4-5.4,4.7-7.6H29c0.3,2.2,1.4,6.3,4.7,7.6c0.2,0.1,0.4,0.1,0.5,0.1c0.6,0,1.1-0.3,1.3-0.9c0.3-0.7-0.1-1.6-0.8-1.9
		c-1.7-0.7-2.6-3.1-2.9-4.9h14.2c0.8,0,1.4-0.6,1.4-1.4C47.5,29.7,46.9,29,46.1,29z M38.2,29h-8.4c1.4-1.5,2.3-3.5,2.3-5.7
		c0-2.2-0.9-4.2-2.3-5.7h8.4V29z M9.8,17.7h8.4c-1.4,1.5-2.3,3.5-2.3,5.7c0,2.2,0.9,4.2,2.3,5.7H9.8V17.7z"/>
	<circle fill="#F04B36" cx="24" cy="23.3" r="5.6"/>
</g>
</svg>
