<?xml version="1.0" encoding="utf-8"?>
<!-- Generator: Adobe Illustrator 18.0.0, SVG Export Plug-In . SVG Version: 6.00 Build 0)  -->
<!DOCTYPE svg PUBLIC "-//W3C//DTD SVG 1.1//EN" "http://www.w3.org/Graphics/SVG/1.1/DTD/svg11.dtd">
<svg version="1.1" id="Layer_1" xmlns="http://www.w3.org/2000/svg" xmlns:xlink="http://www.w3.org/1999/xlink" x="0px" y="0px"
	 viewBox="0 0 48 48" enable-background="new 0 0 48 48" xml:space="preserve">
<g>
	<path fill="#4DA0D8" d="M21.9,3.3c-0.8-0.2-1.6,0.2-1.8,1l-10,34.2l-7.7-2.9c-0.8-0.3-1.6,0.1-1.9,0.9c-0.3,0.8,0.1,1.6,0.9,1.9
		l9.1,3.4c0.2,0.1,0.3,0.1,0.5,0.1c0.2,0,0.5-0.1,0.7-0.2c0.4-0.2,0.6-0.5,0.8-0.9L22.9,5.1C23.2,4.3,22.7,3.5,21.9,3.3z"/>
	<path fill="#294E58" d="M25.2,34.4c-2.9,0-5.2,2.3-5.2,5.2c0,2.9,2.3,5.2,5.2,5.2c2.2,0,4.2-1.4,4.9-3.4c0.2-0.5,0.3-1.1,0.3-1.7
		C30.3,36.7,28,34.4,25.2,34.4z"/>
	<circle fill="#294E58" cx="40.3" cy="41.3" r="3.5"/>
	<path fill="#F7A93B" d="M19,28.8h21.5v-1.5h0V11.1c0-0.3-0.2-0.5-0.5-0.5h-9.2c-6.7,0-8.6,6.3-8.7,6.4L19,28.8z"/>
	<path fill="#F04B36" d="M47,27.4h-4.6v2.5c0,0.5-0.4,1-1,1h-23l-2.5,9.5c0,0.1,0,0.3,0.1,0.4c0.1,0.1,0.2,0.2,0.4,0.2h2.1
		c-0.1-0.4-0.1-0.8-0.1-1.3c0-3.7,3-6.6,6.6-6.6s6.6,3,6.6,6.6c0,0.4-0.1,0.9-0.1,1.3h3.7c0.2-2.5,2.3-4.5,4.9-4.5
		c2.6,0,4.6,2,4.9,4.5H47c0.3,0,0.5-0.2,0.5-0.5V27.8C47.5,27.6,47.3,27.4,47,27.4z"/>
</g>
</svg>
