<?xml version="1.0" encoding="utf-8"?>
<!-- Generator: Adobe Illustrator 18.0.0, SVG Export Plug-In . SVG Version: 6.00 Build 0)  -->
<!DOCTYPE svg PUBLIC "-//W3C//DTD SVG 1.1//EN" "http://www.w3.org/Graphics/SVG/1.1/DTD/svg11.dtd">
<svg version="1.1" id="Layer_1" xmlns="http://www.w3.org/2000/svg" xmlns:xlink="http://www.w3.org/1999/xlink" x="0px" y="0px"
	 viewBox="0 0 48 48" enable-background="new 0 0 48 48" xml:space="preserve">
<g>
	<circle fill="#F04B36" cx="6.8" cy="35.6" r="6.3"/>
	<circle fill="#F04B36" cx="23.5" cy="35.6" r="6.3"/>
	<circle fill="#F04B36" cx="37.3" cy="38.6" r="3.3"/>
	<path fill="#0DB89A" d="M47.3,38.2L39,27.4l-1.3,1.9c-0.2,0.3-0.5,0.5-0.9,0.4c-0.2,0-0.3-0.1-0.5-0.2c-0.3-0.2-0.5-0.5-0.4-0.9
		c0-0.2,0.1-0.3,0.2-0.5l1.3-1.9c2.5-3.7-0.4-7.1-0.5-7.2c-0.1-0.1-0.2-0.3-0.2-0.5H35v-8c0-0.6-0.4-1-1-1c-0.6,0-1,0.4-1,1v8h-8.5
		v-3.8c0-0.6-0.4-1-1-1c-0.6,0-1,0.4-1,1v3.8h-2.2v6.8c0,0.6-0.4,1-1,1c-0.6,0-1-0.4-1-1v-6.8h0V8.2c0-0.2-0.1-0.4-0.3-0.5
		c-2.3-1.1-4.9-1.6-7.6-1.6c-4.6,0-8.2,1.5-8.3,1.6C2,7.9,1.8,8,1.8,8.2V29c1.4-1,3.1-1.6,4.9-1.6c4.5,0,8.2,3.7,8.2,8.2
		c0,0.4,0,0.8-0.1,1.2l0.4,0c-0.1-0.4-0.1-0.8-0.1-1.2c0-4.5,3.7-8.2,8.2-8.2s8.2,3.7,8.2,8.2c0,0.7-0.1,1.5-0.3,2.2l0.7,0.2
		c0.3-2.6,2.5-4.6,5.2-4.6c2.9,0,5.3,2.4,5.3,5.3c0,0.2,0,0.3-0.1,0.5l4.5,0c0,0,0,0,0,0c0.3,0,0.5-0.2,0.5-0.5
		C47.5,38.4,47.4,38.3,47.3,38.2z"/>
</g>
</svg>
