<?xml version="1.0" encoding="utf-8"?>
<!-- Generator: Adobe Illustrator 18.0.0, SVG Export Plug-In . SVG Version: 6.00 Build 0)  -->
<!DOCTYPE svg PUBLIC "-//W3C//DTD SVG 1.1//EN" "http://www.w3.org/Graphics/SVG/1.1/DTD/svg11.dtd">
<svg version="1.1" id="Layer_1" xmlns="http://www.w3.org/2000/svg" xmlns:xlink="http://www.w3.org/1999/xlink" x="0px" y="0px"
	 viewBox="0 0 48 48" enable-background="new 0 0 48 48" xml:space="preserve">
<g>
	<path fill="#06728D" d="M35.9,14.3l0.5-0.5l2.5,2.5l0,0c0.6,0.6,1.5,0.6,2.1,0c0.6-0.6,0.6-1.6,0-2.1l-2.4-2.4
		c0.5-0.6,0.5-1.5,0-2.1C37.9,9,37,9,36.4,9.5L33.9,7c-0.6-0.6-1.6-0.6-2.1,0c-1.1,1.1-0.3,1.8,1.1,3.2l1.4,1.4l-0.5,0.5
		c0,0-0.1,0.1-0.1,0.2l2.1,2.1C35.8,14.3,35.8,14.3,35.9,14.3z"/>
	<path fill="#4DA0D8" d="M38.4,24.7c-1.5-1.3-3-2.7-4.6-4.1c1.9-3,2.2-5,1.9-6.2l-2.1-2.1c-1.5-0.4-3.6,0.3-6.2,1.8
		c-1.5-1.6-2.8-3.1-4.1-4.6c-4.7-5.3-8.1-9.1-10.9-9.1c-0.8,0-1.5,0.3-2.1,0.9c-2.1,2.1,1.2,11.2,8.4,20c-4,4-7.9,8.8-10.6,12.9
		c-2.9-2.5-5.4-4-6.6-4c-0.3,0-0.5,0.1-0.7,0.3c-1.1,1.1,1.8,5.2,4.6,8.3c-1,2.2-1.2,3.5-0.5,4.2c0.7,0.7,2.1,0.5,4.2-0.5
		c3.3,3,6.2,4.9,7.6,4.9c0.3,0,0.5-0.1,0.7-0.3c1-1-1.2-4.4-3.7-7.3c4.1-2.7,8.9-6.7,12.9-10.6c7.2,5.9,14.5,9,18,9h0
		c0.9,0,1.6-0.2,2-0.6c0.6-0.6,1-1.4,0.9-2.2C47.4,32.8,43.7,29.4,38.4,24.7z"/>
</g>
</svg>
