<?xml version="1.0" encoding="utf-8"?>
<!-- Generator: Adobe Illustrator 18.0.0, SVG Export Plug-In . SVG Version: 6.00 Build 0)  -->
<!DOCTYPE svg PUBLIC "-//W3C//DTD SVG 1.1//EN" "http://www.w3.org/Graphics/SVG/1.1/DTD/svg11.dtd">
<svg version="1.1" id="Layer_1" xmlns="http://www.w3.org/2000/svg" xmlns:xlink="http://www.w3.org/1999/xlink" x="0px" y="0px"
	 viewBox="0 0 48 48" enable-background="new 0 0 48 48" xml:space="preserve">
<path fill="#F7A93B" d="M47.4,0.6c-0.2-0.2-0.5-0.2-0.7,0C40.9,5.9,34,8.8,26.1,9.2c-0.9,2.4-3.4,7.2-9.4,13.5
	C16.5,22.9,16.2,23,16,23c-0.2,0-0.5-0.1-0.7-0.3c-0.4-0.4-0.4-1,0-1.4c5.2-5.4,7.6-9.7,8.6-12.1C15,9.1,8.1,6,8.1,5.9
	C7.9,5.8,7.7,5.9,7.5,6l-4.2,4.2c-0.1,0.1-0.1,0.2-0.1,0.4c0,0.1,0.1,0.3,0.1,0.4c3.8,3.8,8.3,13.7,9.5,16.5L2.1,26.9
	c-0.3,0-0.5,0.2-0.5,0.4l-1.1,5.9c0,0.2,0.1,0.4,0.2,0.5L9,39l5.3,8.2c0.1,0.1,0.3,0.2,0.4,0.2c0,0,0.1,0,0.1,0l5.9-1.1
	c0.2,0,0.4-0.3,0.4-0.5l-0.5-10.8c2.8,1.2,12.6,5.7,16.5,9.5c0.2,0.2,0.5,0.2,0.7,0l4.2-4.2c0.1-0.1,0.2-0.4,0.1-0.6
	c-0.1-0.1-3.2-7-3.3-16c-2.3,1-6.7,3.4-12.2,8.7c-0.2,0.2-0.4,0.3-0.7,0.3c-0.3,0-0.5-0.1-0.7-0.3c-0.4-0.4-0.4-1,0-1.4
	c6.5-6.2,11.4-8.6,13.7-9.5c0.3-6.5,2.5-13.8,8.5-20.4C47.5,1.1,47.5,0.8,47.4,0.6z"/>
</svg>
