<?xml version="1.0" encoding="utf-8"?>
<!-- Generator: Adobe Illustrator 18.0.0, SVG Export Plug-In . SVG Version: 6.00 Build 0)  -->
<!DOCTYPE svg PUBLIC "-//W3C//DTD SVG 1.1//EN" "http://www.w3.org/Graphics/SVG/1.1/DTD/svg11.dtd">
<svg version="1.1" id="Layer_1" xmlns="http://www.w3.org/2000/svg" xmlns:xlink="http://www.w3.org/1999/xlink" x="0px" y="0px"
	 viewBox="0 0 48 48" enable-background="new 0 0 48 48" xml:space="preserve">
<g>
	<path fill="#4DA0D8" d="M7.2,37.1c-0.1,0-0.1,0-0.2,0c-0.6-0.1-0.9-0.6-0.8-1.2c0.1-0.3,0.5-2.9,1.9-6.4c-0.3,0-0.6-0.1-0.9-0.1
		c-3.7,0-6.7,3-6.7,6.7c0,3.7,3,6.7,6.7,6.7c3.7,0,6.7-3,6.7-6.7c0-2.7-1.6-5-3.8-6c-1.4,3.5-1.8,6.1-1.9,6.2
		C8.1,36.7,7.7,37.1,7.2,37.1z"/>
	<path fill="#0DB89A" d="M33.1,13.9c-0.8,0-1.5,0.1-2.3,0.2l3.3,14c0.1,0.5-0.2,1.1-0.8,1.2c-0.1,0-0.2,0-0.2,0
		c-0.5,0-0.9-0.3-1-0.8l-3.3-14c-5.9,1.8-10.2,7.3-10.2,13.8c0,8,6.5,14.4,14.4,14.4c8,0,14.4-6.5,14.4-14.4
		C47.5,20.3,41,13.9,33.1,13.9z"/>
	<path fill="#F04B36" d="M29.2,7.3h3.8c0.6,0,1-0.5,1-1s-0.5-1-1-1h-9.8c-0.6,0-1,0.5-1,1s0.5,1,1,1h3.9l0.5,2.1
		c-8.1,2.2-13.3,7.9-16.5,13.5H4.9c-0.6,0-1,0.5-1,1c0,0.6,0.5,1,1,1H10c-0.8,1.6-1.4,3.1-2,4.5c0.7,0.1,1.4,0.3,2,0.6
		c0.6-1.6,1.4-3.3,2.3-5.1h2.5c0.6,0,1-0.5,1-1c0-0.6-0.5-1-1-1h-1.3c3-4.8,7.7-9.6,14.5-11.5l0.7,3.1c0.6-0.2,1.3-0.3,2-0.4
		L29.2,7.3z"/>
</g>
</svg>
