<?xml version="1.0" encoding="utf-8"?>
<!-- Generator: Adobe Illustrator 18.0.0, SVG Export Plug-In . SVG Version: 6.00 Build 0)  -->
<!DOCTYPE svg PUBLIC "-//W3C//DTD SVG 1.1//EN" "http://www.w3.org/Graphics/SVG/1.1/DTD/svg11.dtd">
<svg version="1.1" id="Layer_1" xmlns="http://www.w3.org/2000/svg" xmlns:xlink="http://www.w3.org/1999/xlink" x="0px" y="0px"
	 viewBox="0 0 48 48" enable-background="new 0 0 48 48" xml:space="preserve">
<g>
	<path fill="#06728D" d="M34.4,27.1H7.8c-4,0-7.3,3.2-7.3,7.2c0,4,3.3,7.2,7.3,7.2h26.6c4,0,7.3-3.2,7.3-7.2
		C41.7,30.3,38.4,27.1,34.4,27.1z M8.1,36.5c-1.2,0-2.2-1-2.2-2.2c0-1.2,1-2.2,2.2-2.2c1.2,0,2.2,1,2.2,2.2
		C10.3,35.5,9.3,36.5,8.1,36.5z M21.1,36.5c-1.2,0-2.2-1-2.2-2.2c0-1.2,1-2.2,2.2-2.2c1.2,0,2.2,1,2.2,2.2
		C23.3,35.5,22.3,36.5,21.1,36.5z M34.1,36.5c-1.2,0-2.2-1-2.2-2.2c0-1.2,1-2.2,2.2-2.2c1.2,0,2.2,1,2.2,2.2
		C36.4,35.5,35.4,36.5,34.1,36.5z"/>
	<path fill="#F7A93B" d="M46,9.8H29.3l-1-3.1c0-0.1-0.1-0.2-0.2-0.2H14.2c-0.1,0-0.2,0.1-0.2,0.2l-3,11.3c-1.5,0-2.6,0.5-3.5,1.5
		c-1.9,2.1-1.7,5.7-1.7,5.8c0,0.1,0.1,0.2,0.3,0.2h30.2c0.1,0,0.3-0.1,0.3-0.3c0-5.4-3.5-6.5-4.3-6.7l-1.8-5.8H46
		c0.9,0,1.5-0.7,1.5-1.5C47.5,10.4,46.8,9.8,46,9.8z"/>
</g>
</svg>
