<?xml version="1.0" encoding="utf-8"?>
<!-- Generator: Adobe Illustrator 18.0.0, SVG Export Plug-In . SVG Version: 6.00 Build 0)  -->
<!DOCTYPE svg PUBLIC "-//W3C//DTD SVG 1.1//EN" "http://www.w3.org/Graphics/SVG/1.1/DTD/svg11.dtd">
<svg version="1.1" id="Layer_1" xmlns="http://www.w3.org/2000/svg" xmlns:xlink="http://www.w3.org/1999/xlink" x="0px" y="0px"
	 viewBox="0 0 48 48" enable-background="new 0 0 48 48" xml:space="preserve">
<g>
	<path fill="#CFD0D1" d="M40.8,35c-3.4,0-6.2,2.8-6.2,6.3c0,3.4,2.8,6.2,6.2,6.2c3.4,0,6.2-2.8,6.2-6.2C47,37.8,44.2,35,40.8,35z"/>
	<path fill="#CFD0D1" d="M7.2,35C3.8,35,1,37.8,1,41.3c0,3.4,2.8,6.2,6.2,6.2c3.4,0,6.2-2.8,6.2-6.2C13.5,37.8,10.7,35,7.2,35z"/>
	<path fill="#F04B36" d="M7.2,33.1h31c0.4,0,0.9-0.2,1.1-0.5c0.3-0.3,0.4-0.8,0.3-1.2L34.5,4c-0.1-0.3-0.2-0.6-0.5-0.9
		c-0.7-0.6-3.3-2.6-5.3-2.6c-0.8,0-1.5,0.7-1.5,1.5c0,0.8,0.7,1.5,1.5,1.5c0.6,0,1.9,0.8,3,1.6l4.7,25.1H7.2c-0.8,0-1.5,0.7-1.5,1.5
		C5.8,32.4,6.4,33.1,7.2,33.1z"/>
</g>
</svg>
