<?xml version="1.0" encoding="utf-8"?>
<!-- Generator: Adobe Illustrator 18.0.0, SVG Export Plug-In . SVG Version: 6.00 Build 0)  -->
<!DOCTYPE svg PUBLIC "-//W3C//DTD SVG 1.1//EN" "http://www.w3.org/Graphics/SVG/1.1/DTD/svg11.dtd">
<svg version="1.1" id="Layer_1" xmlns="http://www.w3.org/2000/svg" xmlns:xlink="http://www.w3.org/1999/xlink" x="0px" y="0px"
	 viewBox="0 0 48 48" enable-background="new 0 0 48 48" xml:space="preserve">
<g>
	<path fill="#E77528" d="M41,24.4c-3.2,0-5.8,2.6-5.8,5.8c0,3.2,2.6,5.8,5.8,5.8c3.2,0,5.8-2.6,5.8-5.8C46.8,27,44.2,24.4,41,24.4z"
		/>
	<path fill="#E77528" d="M15,24.4c-3.2,0-5.8,2.6-5.8,5.8c0,3.2,2.6,5.8,5.8,5.8c3.2,0,5.8-2.6,5.8-5.8C20.8,27,18.2,24.4,15,24.4z"
		/>
	<path fill="#E8B944" d="M46.1,17.3H12.4c-5.3,0-9.3-4.7-9.3-4.8c-0.5-0.6-1.4-0.7-2-0.2c-0.6,0.5-0.7,1.4-0.2,2
		c0.2,0.2,4.8,5.9,11.5,5.9h33.7c0.8,0,1.4-0.6,1.4-1.4C47.5,18,46.9,17.3,46.1,17.3z"/>
</g>
</svg>
