<?xml version="1.0" encoding="utf-8"?>
<!-- Generator: Adobe Illustrator 18.0.0, SVG Export Plug-In . SVG Version: 6.00 Build 0)  -->
<!DOCTYPE svg PUBLIC "-//W3C//DTD SVG 1.1//EN" "http://www.w3.org/Graphics/SVG/1.1/DTD/svg11.dtd">
<svg version="1.1" id="Layer_1" xmlns="http://www.w3.org/2000/svg" xmlns:xlink="http://www.w3.org/1999/xlink" x="0px" y="0px"
	 viewBox="0 0 48 48" enable-background="new 0 0 48 48" xml:space="preserve">
<g>
	<path fill="#F7A93B" d="M46.9,25.5c-1.7-3.8-7.1-7.8-17-7.8c-5.5,0-9.1-0.9-10.6-2.6c-1.1-1.3-0.8-2.7-0.7-3.7
		c0.1-0.3,0.1-0.6,0.1-0.8c0-1.2,1.6-7.2,2.2-9.5c0-0.2,0-0.3-0.1-0.4c-0.1-0.1-0.2-0.2-0.4-0.2H1C0.7,0.5,0.5,0.7,0.5,1v30.9
		c0,0.3,0.2,0.5,0.5,0.5l37.6,0c0,0,0.5,0,1.2,0c3.7,0,5.9-0.5,6.7-1.4C47.7,29.7,47.8,27.6,46.9,25.5z"/>
	<path fill="#E77528" d="M9.3,35.2c-3.3,0-6,2.8-6,6.1c0,3.4,2.7,6.1,6,6.1c3.3,0,6-2.7,6-6.1C15.3,38,12.6,35.2,9.3,35.2z"/>
	<path fill="#E77528" d="M36.9,35.2c-3.3,0-6,2.8-6,6.1c0,3.4,2.7,6.1,6,6.1c3.3,0,6-2.7,6-6.1C42.9,38,40.2,35.2,36.9,35.2z"/>
</g>
</svg>
