<?xml version="1.0" encoding="utf-8"?>
<!-- Generator: Adobe Illustrator 18.0.0, SVG Export Plug-In . SVG Version: 6.00 Build 0)  -->
<!DOCTYPE svg PUBLIC "-//W3C//DTD SVG 1.1//EN" "http://www.w3.org/Graphics/SVG/1.1/DTD/svg11.dtd">
<svg version="1.1" id="Layer_1" xmlns="http://www.w3.org/2000/svg" xmlns:xlink="http://www.w3.org/1999/xlink" x="0px" y="0px"
	 viewBox="0 0 48 48" enable-background="new 0 0 48 48" xml:space="preserve">
<g>
	<path fill="#0DB89A" d="M46.5,14c-0.1-0.1-0.2-0.2-0.4-0.2H1.9c-0.2,0-0.3,0.1-0.4,0.2c-0.1,0.1-0.1,0.3-0.1,0.4l7.2,19.1
		c0.1,0.2,0.2,0.3,0.4,0.3h29.8c0.2,0,0.4-0.1,0.5-0.3l7.2-19.1C46.6,14.3,46.6,14.2,46.5,14z"/>
	<path fill="#CFD0D1" d="M15.1,37.2c-2.8,0-5,2.3-5,5c0,2.8,2.2,5,5,5c2.8,0,5-2.3,5-5C20.1,39.5,17.8,37.2,15.1,37.2z"/>
	<path fill="#CFD0D1" d="M32.9,37.2c-2.8,0-5,2.3-5,5c0,2.8,2.2,5,5,5c2.8,0,5-2.3,5-5C37.9,39.5,35.7,37.2,32.9,37.2z"/>
	<path fill="#F04B36" d="M45.6,11.7c-1.5-2-3-3.6-4.8-5c-0.2-0.2-0.5-0.4-0.7-0.7c-0.5-0.5-1.1-1.1-1.7-1.3
		c-0.5-0.2-1.1-0.2-1.6-0.2c-0.2,0-0.5,0-0.7,0c-0.2,0-0.5,0-0.7,0c-1.2-2.5-3.5-2.5-5.5-2.5c-0.9,0-1.9,0-2.8-0.3
		c-3-0.9-6.3-1.1-9-0.7c-1.8,0.3-3.1,1.4-4.4,2.5c-1.3,1.1-2.6,2.1-4.3,2.4c-3.9,0.6-6.2,2.3-7.6,5.6c0,0.1,0,0.2,0,0.3H45.6z"/>
</g>
</svg>
