<?xml version="1.0" encoding="utf-8"?>
<!-- Generator: Adobe Illustrator 18.0.0, SVG Export Plug-In . SVG Version: 6.00 Build 0)  -->
<!DOCTYPE svg PUBLIC "-//W3C//DTD SVG 1.1//EN" "http://www.w3.org/Graphics/SVG/1.1/DTD/svg11.dtd">
<svg version="1.1" id="Layer_1" xmlns="http://www.w3.org/2000/svg" xmlns:xlink="http://www.w3.org/1999/xlink" x="0px" y="0px"
	 viewBox="0 0 48 48" enable-background="new 0 0 48 48" xml:space="preserve">
<g>
	<path fill="#F04B36" d="M14,41.3c0,3.4-2.7,6.2-6.1,6.2H7.3c-3.4,0-6.1-2.8-6.1-6.2v-7.4c0-3.4,2.7-6.2,6.1-6.2h0.6
		c3.4,0,6.1,2.8,6.1,6.2V41.3z"/>
	<path fill="#F04B36" d="M46.8,41.3c0,3.4-2.7,6.2-6.1,6.2h-0.6c-3.4,0-6.1-2.8-6.1-6.2v-7.4c0-3.4,2.7-6.2,6.1-6.2h0.6
		c3.4,0,6.1,2.8,6.1,6.2V41.3z"/>
	<path fill="#06728D" d="M44.3,19.1C41.5,18.6,34,16.4,31.9,12c-1-2.1-2.2-3.6-3.4-4.7c7.9-0.7,11.6-4.1,11.8-4.2
		c0.6-0.6,0.6-1.5,0.1-2.1c-0.6-0.6-1.5-0.6-2.1-0.1c0,0-4.3,3.8-13.5,3.5c-0.1,0-0.2,0-0.3,0c-0.1,0-0.2,0-0.3,0
		C14.8,4.7,10.6,1,10.5,0.9C9.9,0.3,9,0.4,8.4,1C7.9,1.6,7.9,2.5,8.5,3.1c0.2,0.2,3.8,3.6,11.8,4.2C19,8.4,17.8,9.9,16.8,12
		c-2.4,5.3-12.3,7.1-12.4,7.1c-0.7,0.1-1.3,0.8-1.2,1.5c0,0.7,0.6,1.3,1.4,1.4c0.2,0,18.2,1.3,18.2,13.6c0,0.8,0.7,1.5,1.5,1.5
		c0,0,0.1,0,0.1,0c0,0,0.1,0,0.1,0c0.8,0,1.5-0.7,1.5-1.5c0-12.3,18-13.6,18.2-13.6c0.7,0,1.3-0.6,1.4-1.4
		C45.5,19.9,45,19.2,44.3,19.1z M24.4,20.8c-1.7,0-3.1-1.4-3.1-3.2c0-1.7,1.4-3.2,3.1-3.2c1.7,0,3.1,1.4,3.1,3.2
		C27.5,19.4,26.1,20.8,24.4,20.8z"/>
</g>
</svg>
