<?xml version="1.0" encoding="utf-8"?>
<!-- Generator: Adobe Illustrator 18.0.0, SVG Export Plug-In . SVG Version: 6.00 Build 0)  -->
<!DOCTYPE svg PUBLIC "-//W3C//DTD SVG 1.1//EN" "http://www.w3.org/Graphics/SVG/1.1/DTD/svg11.dtd">
<svg version="1.1" id="Layer_1" xmlns="http://www.w3.org/2000/svg" xmlns:xlink="http://www.w3.org/1999/xlink" x="0px" y="0px"
	 viewBox="0 0 48 48" enable-background="new 0 0 48 48" xml:space="preserve">
<g>
	<circle fill="#4DA0D8" cx="41.7" cy="34.1" r="5.7"/>
	<circle fill="#4DA0D8" cx="7.3" cy="34.1" r="5.7"/>
	<path fill="#F04B36" d="M45.4,23.1c0.3,0.1,0.7-0.1,0.9-0.3c0.2-0.3,0.3-0.6,0.2-0.9c-0.1-0.5-3.2-11.5-13.1-13.7
		c-0.5-0.1-1.1,0.2-1.2,0.8c-0.1,0.5,0.2,1.1,0.8,1.2c5.2,1.2,8.3,5.3,10,8.4l-5-2.8c-3.9-2.6-10.7-1.8-12.8,0.7
		c-1.5,1.8-8.6,3.1-11.9,1.2c-4.1-2.3-11.8,0.1-12.1,0.2c-0.4,0.1-0.7,0.5-0.7,1c0,0.4,0.3,0.8,0.8,0.9c0.2,0,15.8,4,16.6,16.9
		c0,0.5,0.5,0.9,1,0.9h11c0.5,0,0.9-0.4,1-0.8c0-0.1,1.3-8.3,6.6-12.1C39.7,23.1,42.3,22.5,45.4,23.1z"/>
</g>
</svg>
