<?xml version="1.0" encoding="utf-8"?>
<!-- Generator: Adobe Illustrator 18.0.0, SVG Export Plug-In . SVG Version: 6.00 Build 0)  -->
<!DOCTYPE svg PUBLIC "-//W3C//DTD SVG 1.1//EN" "http://www.w3.org/Graphics/SVG/1.1/DTD/svg11.dtd">
<svg version="1.1" id="Layer_1" xmlns="http://www.w3.org/2000/svg" xmlns:xlink="http://www.w3.org/1999/xlink" x="0px" y="0px"
	 viewBox="0 0 48 48" enable-background="new 0 0 48 48" xml:space="preserve">
<g>
	<path fill="#F7A93B" d="M46,32.2h-6.5V19.3c0-0.1-0.1-0.3-0.1-0.3L25.5,5.2C25.4,5.1,25.3,5,25.1,5H7c-5.9,0-6.5,5.7-6.5,5.8v18.7
		c0,4.8,5.3,5.6,5.4,5.6H12c0.6-4.1,4.2-7.3,8.4-7.3c4.3,0,7.8,3.2,8.4,7.3H39h7c0.8,0,1.5-0.7,1.5-1.5C47.5,32.8,46.8,32.2,46,32.2
		z M12.7,20.1H7.2v-9h5.6V20.1z M18.9,20.1v-9h3l8.7,9H18.9z"/>
	<path fill="#0DB89A" d="M20.5,29.8c-3.6,0-6.6,3-6.6,6.6c0,3.6,3,6.6,6.6,6.6c3.6,0,6.6-3,6.6-6.6C27.1,32.7,24.1,29.8,20.5,29.8z"
		/>
</g>
</svg>
