<?xml version="1.0" encoding="utf-8"?>
<!-- Generator: Adobe Illustrator 18.0.0, SVG Export Plug-In . SVG Version: 6.00 Build 0)  -->
<!DOCTYPE svg PUBLIC "-//W3C//DTD SVG 1.1//EN" "http://www.w3.org/Graphics/SVG/1.1/DTD/svg11.dtd">
<svg version="1.1" id="Layer_1" xmlns="http://www.w3.org/2000/svg" xmlns:xlink="http://www.w3.org/1999/xlink" x="0px" y="0px"
	 viewBox="0 0 48 48" enable-background="new 0 0 48 48" xml:space="preserve">
<g>
	<path fill="#E77528" d="M40.4,27.2c-0.4,0-0.7,0-1,0.1l2.4,6.5c0.3,0.8-0.1,1.6-0.9,1.9c-0.2,0.1-0.3,0.1-0.5,0.1
		c-0.6,0-1.2-0.4-1.4-1l-2.4-6.5c-2,1.3-3.3,3.5-3.3,6c0,3.9,3.2,7.1,7.1,7.1c3.9,0,7.1-3.2,7.1-7.1C47.5,30.4,44.3,27.2,40.4,27.2z
		"/>
	<path fill="#F04B36" d="M35.2,16.1c0-3.1-0.8-5.5-2.4-7.2c-2.3-2.4-5.4-2.4-5.6-2.4c-0.8,0-1.5,0.7-1.5,1.5c0,0.8,0.6,1.5,1.5,1.5
		c0,0,2,0,3.5,1.6c0.4,0.4,0.7,0.9,1,1.5c-2.1-0.9-4.4-0.7-5.7-0.2c-0.8,0.3-1.1,1.1-0.9,1.9c0.3,0.8,1.1,1.1,1.9,0.9
		c0.1-0.1,3.6-1.3,5.4,2l1.1,3.1l-1.7,2.5c-0.1,0-0.2,0-0.2,0H21.4l-0.9-2.8h2.1c0.8,0,1.5-0.7,1.5-1.5c0-0.8-0.7-1.5-1.5-1.5h-8.3
		c-0.8,0-1.5,0.7-1.5,1.5c0,0.8,0.7,1.5,1.5,1.5h3.1l0.9,2.8H13c-8.5,0-12.1,5.2-12.2,5.4c-0.4,0.7-0.3,1.6,0.4,2
		c0.3,0.2,0.5,0.3,0.8,0.3c0.5,0,0.9-0.2,1.2-0.6c0.1-0.2,2.5-3.5,8.3-4.1v1.8c0.5-0.1,1-0.2,1.5-0.2c0.5,0,1,0.1,1.5,0.2v-1.8h4.8
		l3.7,11c0.2,0.5,0.6,0.9,1.2,1c0.1,0,0.1,0,0.2,0c0.5,0,0.9-0.2,1.2-0.6l9.3-13.5l1.8,4.8c0.8-0.5,1.8-0.9,2.8-1L35.2,16.1z"/>
	<path fill="#4DA0D8" d="M13,35.4c-0.8,0-1.5-0.7-1.5-1.5v-6.5c-3.2,0.7-5.7,3.6-5.7,7c0,3.9,3.2,7.1,7.1,7.1c3.9,0,7.1-3.2,7.1-7.1
		c0-3.4-2.4-6.3-5.7-7v6.5C14.5,34.7,13.8,35.4,13,35.4z"/>
</g>
</svg>
