<?xml version="1.0" encoding="utf-8"?>
<!-- Generator: Adobe Illustrator 18.0.0, SVG Export Plug-In . SVG Version: 6.00 Build 0)  -->
<!DOCTYPE svg PUBLIC "-//W3C//DTD SVG 1.1//EN" "http://www.w3.org/Graphics/SVG/1.1/DTD/svg11.dtd">
<svg version="1.1" id="Layer_1" xmlns="http://www.w3.org/2000/svg" xmlns:xlink="http://www.w3.org/1999/xlink" x="0px" y="0px"
	 viewBox="0 0 48 48" enable-background="new 0 0 48 48" xml:space="preserve">
<g>
	<path fill="#F04B36" d="M33.6,42.4c-0.8,0-1.5-0.7-1.5-1.5v-4.1c-2,0.6-3.5,2.5-3.5,4.8c0,2.8,2.3,5,5,5c2.8,0,5-2.3,5-5
		c0-2.3-1.5-4.1-3.5-4.8v4.1C35.1,41.7,34.4,42.4,33.6,42.4z"/>
	<path fill="#06728D" d="M13.9,34.9c0,0-0.1,0-0.1,0c-0.8,0-1.4-0.6-1.5-1.3L11,20.5C5,21.7,0.5,27,0.5,33.4
		c0,7.3,5.9,13.2,13.2,13.2C21,46.6,27,40.7,27,33.4c0-7.2-5.8-13.1-13-13.2l1.3,13.1C15.3,34.1,14.7,34.8,13.9,34.9z"/>
	<path fill="#0DB89A" d="M46.8,30.6c-0.7-0.5-1.6-0.3-2.1,0.4l-2.1,3.2l-7.3-8.1c-0.1-0.1-0.2-0.1-0.3-0.2V11.5
		c0-0.8-0.7-1.5-1.5-1.5H12.5c0,0-0.1,0-0.1,0l-1.2-7.4c-0.1-0.7-0.7-1.3-1.5-1.3H3.4C2.6,1.4,1.9,2,1.9,2.9c0,0.8,0.7,1.5,1.5,1.5
		h5.1l2.5,16l0,0.1c0.9-0.2,1.8-0.3,2.7-0.3c0.1,0,0.1,0,0.2,0l0-0.2l-1.1-7h19.3v23.8c0.5-0.1,1-0.2,1.5-0.2c0.5,0,1,0.1,1.5,0.2
		v-6.6l6.6,7.4c0.3,0.3,0.7,0.5,1.1,0.5c0,0,0.1,0,0.1,0c0.5,0,0.9-0.3,1.1-0.7l3.2-4.7C47.7,32,47.5,31,46.8,30.6z"/>
</g>
</svg>
