<?xml version="1.0" encoding="utf-8"?>
<!-- Generator: Adobe Illustrator 18.0.0, SVG Export Plug-In . SVG Version: 6.00 Build 0)  -->
<!DOCTYPE svg PUBLIC "-//W3C//DTD SVG 1.1//EN" "http://www.w3.org/Graphics/SVG/1.1/DTD/svg11.dtd">
<svg version="1.1" id="Layer_1" xmlns="http://www.w3.org/2000/svg" xmlns:xlink="http://www.w3.org/1999/xlink" x="0px" y="0px"
	 viewBox="0 0 48 48" enable-background="new 0 0 48 48" xml:space="preserve">
<g>
	<circle fill="#F04B36" cx="11.5" cy="34.9" r="6.1"/>
	<path fill="#F04B36" d="M41.4,28.8c-0.3,0-0.6,0-0.9,0.1c1.3,3,2.2,5.3,2.3,5.5c0.3,0.8-0.1,1.6-0.8,1.9c-0.2,0.1-0.4,0.1-0.6,0.1
		c-0.6,0-1.1-0.3-1.4-0.9c-0.5-1.3-1.4-3.3-2.3-5.5c-1.5,1.1-2.5,2.9-2.5,4.9c0,3.4,2.8,6.1,6.1,6.1c3.4,0,6.1-2.8,6.1-6.1
		S44.7,28.8,41.4,28.8z"/>
	<path fill="#CFD0D1" d="M37.3,21.7c0.7-0.3,1.4-0.6,2.1-0.8c0.8-0.2,1.3-1,1-1.8c-0.2-0.8-1-1.3-1.8-1c-0.9,0.2-1.7,0.6-2.5,0.9
		c-0.5-1-0.9-1.9-1.3-2.7c-1.5-5.2-3.3-8.2-5.5-9.2c-1.4-0.6-2.5-0.1-2.7,0c-0.7,0.4-1,1.3-0.6,2c0.4,0.7,1.3,1,2,0.6
		c0.1,0,0.1,0.1,0.1,0.1c0.3,0.1,0.9,0.5,1.6,1.7c-2.1-0.2-3.9,1.1-4.1,1.3c-0.6,0.5-0.7,1.4-0.2,2.1c0.5,0.6,1.4,0.7,2.1,0.2
		c0.2-0.2,1.2-0.8,2-0.6c0.5,0.1,1,0.4,1.4,1c0.6,0.8,1.5,2.6,2.6,4.9c-4.7,3.1-8.4,7.9-10.4,11c-2.3-5.3-6.3-8.2-11.5-8.2
		c-7.8,0-10.8,5.3-10.9,5.6c-0.4,0.7-0.1,1.6,0.6,2c0.7,0.4,1.6,0.1,2-0.6c0,0,2.2-4,8.3-4c4.9,0,8.1,3.1,9.7,9.1
		c0.2,0.6,0.6,1,1.2,1.1c0.1,0,0.1,0,0.2,0c0.5,0,1-0.3,1.3-0.8c0.1-0.1,4.6-8.1,10.8-12.4c1,2.2,2,4.6,3,6.8c0.8-0.6,1.7-1,2.7-1.1
		C39.5,26.7,38.4,24.1,37.3,21.7z"/>
	<path fill="#294E58" d="M7.3,22.1c0.2,0,3.1,0.7,7,0.7c2,0,4.2-0.2,6.4-0.7c0.8-0.2,1.3-1,1.1-1.8c-0.2-0.8-1-1.3-1.8-1.1
		c-5.8,1.4-12,0-12,0c-0.8-0.2-1.6,0.3-1.8,1.1C6,21.1,6.5,21.9,7.3,22.1z"/>
	<path fill="#294E58" d="M3.1,24.6c0.8,0,1.5-0.7,1.5-1.5v-6.2c0-0.8-0.7-1.5-1.5-1.5c-0.8,0-1.5,0.7-1.5,1.5v6.2
		C1.6,23.9,2.3,24.6,3.1,24.6z"/>
</g>
</svg>
