<?xml version="1.0" encoding="utf-8"?>
<!-- Generator: Adobe Illustrator 18.0.0, SVG Export Plug-In . SVG Version: 6.00 Build 0)  -->
<!DOCTYPE svg PUBLIC "-//W3C//DTD SVG 1.1//EN" "http://www.w3.org/Graphics/SVG/1.1/DTD/svg11.dtd">
<svg version="1.1" id="Layer_1" xmlns="http://www.w3.org/2000/svg" xmlns:xlink="http://www.w3.org/1999/xlink" x="0px" y="0px"
	 viewBox="0 0 48 48" enable-background="new 0 0 48 48" xml:space="preserve">
<g>
	<path fill="#0DB89A" d="M17.8,21.6c0,0,0-0.1,0-0.1c2-7.1-1.7-12.8-2.6-14L8.9,9.7v5.7c0,0.4-0.3,0.8-0.7,1c-3,1.1-4.5,4.7-5.1,6.4
		c2.5,0.2,4.4,3.3,4.4,7.4c0,0.8-0.1,1.7-0.2,2.4l6.8,1.2C14,33,14,32.2,14,31.5C14,27.2,15.5,23.6,17.8,21.6z"/>
	<path fill="#F04B36" d="M21.8,22.1c-3.1,0-5.7,4.3-5.7,9.4c0,5.1,2.6,9.4,5.7,9.4c3.1,0,5.7-4.3,5.7-9.4
		C27.6,26.4,24.9,22.1,21.8,22.1z"/>
	<path fill="#E77528" d="M20.2,20.2c0.5-0.2,1-0.2,1.6-0.2c0.4,0,0.8,0.1,1.2,0.1l10.8-0.6C32.3,14.5,29,9.4,28,8L17.5,7.1
		C18.9,9.3,21.3,14.2,20.2,20.2z"/>
	<path fill="#F04B36" d="M3,24.8c-1.2,0-2.5,2.3-2.5,5.3c0,3,1.3,5.3,2.5,5.3c1.2,0,2.5-2.3,2.5-5.3C5.4,27.1,4.1,24.8,3,24.8z"/>
	<path fill="#06728D" d="M47.4,28.1c-0.6-3.8-3.7-6.4-4.6-7.1l-16.5,1c2,2.1,3.3,5.5,3.3,9.4c0,3.5-1,6.5-2.6,8.6l17.7-3.4
		C47,33.8,47.8,30.9,47.4,28.1z"/>
</g>
</svg>
