<?xml version="1.0" encoding="utf-8"?>
<!-- Generator: Adobe Illustrator 18.0.0, SVG Export Plug-In . SVG Version: 6.00 Build 0)  -->
<!DOCTYPE svg PUBLIC "-//W3C//DTD SVG 1.1//EN" "http://www.w3.org/Graphics/SVG/1.1/DTD/svg11.dtd">
<svg version="1.1" id="Layer_1" xmlns="http://www.w3.org/2000/svg" xmlns:xlink="http://www.w3.org/1999/xlink" x="0px" y="0px"
	 viewBox="0 0 48 48" enable-background="new 0 0 48 48" xml:space="preserve">
<g>
	<circle fill="#F04B36" cx="42.3" cy="37.3" r="5.2"/>
	<circle fill="#F04B36" cx="5.7" cy="37.3" r="5.2"/>
	<path fill="#0DB89A" d="M42,29.4c0.8,0.2,1.6-0.4,1.8-1.2c0.2-0.8-0.4-1.6-1.2-1.8c-0.1,0-2.1-0.4-4.4,0.1L30.8,7.5
		c-0.2-0.4-0.5-0.7-0.9-0.9c-0.4-0.2-0.8-0.1-1.2,0l-4,1.9c-0.8,0.4-1.1,1.3-0.7,2c0.4,0.8,1.3,1.1,2,0.7l2.5-1.2l6.9,17.6
		c-0.2,0.1-0.4,0.3-0.6,0.4c-1.5,1.2-2.6,3-3.1,5.2H16.2c-0.3-0.9-0.9-2.1-1.8-3.3c1.6-1.3,3.3-3.5,3.1-6.7h4.6
		c0.8,0,1.5-0.7,1.5-1.5c0-0.8-0.7-1.5-1.5-1.5H10.4l-0.8-3.4h8.7c0.8,0,1.5-0.7,1.5-1.5c0-0.8-0.7-1.5-1.5-1.5H8.9l-1.7-7
		C7,5.8,6.2,5.3,5.4,5.5C4.6,5.7,4,6.5,4.2,7.4l3.4,14.7c0.2,0.7,0.8,1.2,1.5,1.2h5.3c0.2,2.5-1.3,3.9-2.2,4.6
		c-0.2-0.2-0.5-0.3-0.7-0.5c-2.3-1.3-5-1.4-8-0.4c-0.8,0.3-1.2,1.1-1,1.9c0.3,0.8,1.1,1.2,1.9,1c2.1-0.7,4-0.6,5.5,0.2
		c2.8,1.5,3.7,5.2,3.7,5.2c0.2,0.7,0.8,1.2,1.5,1.2h16.3c0,0.8,0.7,1.5,1.5,1.5c0,0,0,0,0,0c0.8,0,1.5-0.7,1.5-1.5
		c0.1-2.8,0.8-4.7,2.2-5.9C38.8,28.8,41.9,29.4,42,29.4z"/>
</g>
</svg>
