<?xml version="1.0" encoding="utf-8"?>
<!-- Generator: Adobe Illustrator 18.0.0, SVG Export Plug-In . SVG Version: 6.00 Build 0)  -->
<!DOCTYPE svg PUBLIC "-//W3C//DTD SVG 1.1//EN" "http://www.w3.org/Graphics/SVG/1.1/DTD/svg11.dtd">
<svg version="1.1" id="Layer_1" xmlns="http://www.w3.org/2000/svg" xmlns:xlink="http://www.w3.org/1999/xlink" x="0px" y="0px"
	 viewBox="0 0 48 48" enable-background="new 0 0 48 48" xml:space="preserve">
<g>
	<path fill="#CFD0D1" d="M6.4,29.8c-3.3,0-5.9,2.6-5.9,5.9c0,3.3,2.6,5.9,5.9,5.9c3.3,0,5.9-2.6,5.9-5.9
		C12.3,32.5,9.7,29.8,6.4,29.8z"/>
	<path fill="#CFD0D1" d="M32.7,29.8c-3.3,0-5.9,2.6-5.9,5.9c0,3.3,2.6,5.9,5.9,5.9c3.3,0,5.9-2.6,5.9-5.9
		C38.6,32.5,35.9,29.8,32.7,29.8z"/>
	<path fill="#E77528" d="M31.5,9.7L19.8,6.4c-0.1,0-0.2,0-0.2,0L7.9,9.1C7.6,9.2,7.5,9.4,7.5,9.6c0,0.9,0.2,22.2,12.1,22.2l0.1,0
		c0.1,0,0.3,0,0.7,0c2.4,0,10.1-1.6,11.5-21.7C31.9,10,31.7,9.7,31.5,9.7z M17.4,20.2c0,0.5-0.4,1-1,1c-0.5,0-1-0.4-1-1v-6
		c0-0.5,0.4-1,1-1c0.5,0,1,0.4,1,1V20.2z M23.9,20.2c0,0.5-0.4,1-1,1c-0.5,0-1-0.4-1-1v-6c0-0.5,0.4-1,1-1c0.5,0,1,0.4,1,1V20.2z"/>
	<path fill="#4DA0D8" d="M2,26.9h7.3c-0.3-0.6-0.7-1.3-0.9-2H2c-0.5,0-1,0.4-1,1C1,26.4,1.5,26.9,2,26.9z"/>
	<path fill="#4DA0D8" d="M47.3,18.2c-0.4-0.4-1-0.5-1.4-0.1l-7.8,6.7h-7.2c-0.3,0.7-0.6,1.4-0.9,2h8.5c0.2,0,0.5-0.1,0.6-0.2l8-7
		C47.6,19.3,47.6,18.6,47.3,18.2z"/>
</g>
</svg>
