<?xml version="1.0" encoding="utf-8"?>
<!-- Generator: Adobe Illustrator 18.0.0, SVG Export Plug-In . SVG Version: 6.00 Build 0)  -->
<!DOCTYPE svg PUBLIC "-//W3C//DTD SVG 1.1//EN" "http://www.w3.org/Graphics/SVG/1.1/DTD/svg11.dtd">
<svg version="1.1" id="Layer_1" xmlns="http://www.w3.org/2000/svg" xmlns:xlink="http://www.w3.org/1999/xlink" x="0px" y="0px"
	 viewBox="0 0 48 48" enable-background="new 0 0 48 48" xml:space="preserve">
<g>
	<path fill="#06728D" d="M25.5,21.8v-17c1.5-0.3,3.2-0.7,5.1-1.5c0.8-0.3,1.1-1.2,0.8-1.9c-0.3-0.8-1.2-1.1-1.9-0.8
		C21.8,3.7,19.2,1.1,19.1,1c-0.5-0.6-1.4-0.7-2-0.2c-0.6,0.5-0.7,1.4-0.2,2.1c0.2,0.3,1.9,2.1,5.7,2.2v16.8c0.5-0.1,1-0.1,1.5-0.1
		C24.5,21.7,25,21.8,25.5,21.8z"/>
	<path fill="#0DB89A" d="M25.5,21.8v9.4l2.3-1.8c0.5-0.4,1.1-0.4,1.7-0.1l3.5,2.1c0.7,0.4,0.9,1.3,0.5,2c-0.4,0.7-1.3,0.9-2,0.5
		l-2.6-1.6l-9.6,7.5c-0.3,0.2-0.6,0.3-0.9,0.3c-0.3,0-0.6-0.1-0.9-0.3l-2.6-1.9c-0.7-0.5-0.8-1.4-0.3-2.1c0.5-0.7,1.4-0.8,2.1-0.3
		l1.7,1.3l4.3-3.3V21.8c-6.4,0.7-11.4,6.2-11.4,12.8c0,7.1,5.8,12.9,12.9,12.9c7.1,0,12.9-5.8,12.9-12.9
		C36.9,28,31.9,22.6,25.5,21.8z"/>
</g>
</svg>
