<?xml version="1.0" encoding="utf-8"?>
<!-- Generator: Adobe Illustrator 18.0.0, SVG Export Plug-In . SVG Version: 6.00 Build 0)  -->
<!DOCTYPE svg PUBLIC "-//W3C//DTD SVG 1.1//EN" "http://www.w3.org/Graphics/SVG/1.1/DTD/svg11.dtd">
<svg version="1.1" id="Layer_1" xmlns="http://www.w3.org/2000/svg" xmlns:xlink="http://www.w3.org/1999/xlink" x="0px" y="0px"
	 viewBox="0 0 48 48" enable-background="new 0 0 48 48" xml:space="preserve">
<g>
	<path fill="#4DA0D8" d="M39.3,17.5c-0.1-0.1-0.2-0.1-0.3-0.1h-8.9c0.7,2.4,1.5,6.9,0.9,13.7c0,0.1,0,0.1-0.1,0.2h16.6
		C47.2,26.1,44.3,21.2,39.3,17.5z"/>
	<path fill="#0DB89A" d="M10.6,47c0.1,0.1,0.2,0.1,0.3,0.1H39c0.1,0,0.2,0,0.3-0.1c5-3.7,7.8-8.6,8.2-13.8h-45
		C2.8,38.4,5.6,43.3,10.6,47z"/>
	<path fill="#F7A93B" d="M10.9,17.4c-0.1,0-0.2,0-0.3,0.1c-5,3.7-7.8,8.6-8.2,13.8h26.6c0-0.1-0.1-0.3-0.1-0.4
		c0.7-7-0.3-11.5-1-13.5h-1.1h-5.2H10.9z"/>
	<path fill="#E77528" d="M47.5,2.1c-0.1-0.8-0.9-1.3-1.7-1.2L1.7,8.6c-0.8,0.1-1.3,0.9-1.2,1.7c0.1,0.7,0.7,1.2,1.4,1.2
		c0.1,0,0.2,0,0.3,0l22.5-3.9c0.6,0.5,2.7,2.2,2.6,4.3c-0.1,1.7-1.9,3.6-5.1,5.2c-0.2,0.1-0.3,0.2-0.5,0.4h5.2
		c2-1.7,3.2-3.5,3.3-5.4c0.1-2.1-0.9-3.8-2-5l18.1-3.2C47.1,3.6,47.6,2.9,47.5,2.1z"/>
</g>
</svg>
