<?xml version="1.0" encoding="utf-8"?>
<!-- Generator: Adobe Illustrator 18.0.0, SVG Export Plug-In . SVG Version: 6.00 Build 0)  -->
<!DOCTYPE svg PUBLIC "-//W3C//DTD SVG 1.1//EN" "http://www.w3.org/Graphics/SVG/1.1/DTD/svg11.dtd">
<svg version="1.1" id="Layer_1" xmlns="http://www.w3.org/2000/svg" xmlns:xlink="http://www.w3.org/1999/xlink" x="0px" y="0px"
	 viewBox="0 0 48 48" enable-background="new 0 0 48 48" xml:space="preserve">
<g>
	<path fill="#F04B36" d="M25.4,8.2l20.9-4.4c0.8-0.2,1.3-0.9,1.1-1.7c-0.2-0.8-0.9-1.3-1.7-1.1L1.6,10.3c-0.8,0.2-1.3,0.9-1.1,1.7
		c0.1,0.7,0.7,1.1,1.4,1.1c0.1,0,0.2,0,0.3,0l20.3-4.3v6.8c0,0,0,0,0,0h2.9c0,0,0,0,0,0V8.2z"/>
	<path fill="#CFD0D1" d="M9.9,15.6c-0.1,0-0.2,0-0.3,0.1c-5.3,4.2-8.2,9.7-8.2,15.6c0,5.9,2.9,11.4,8.2,15.6C9.7,47,9.8,47,9.9,47
		h8.3c0.3,0,0.5-0.2,0.5-0.5V36.3c0-0.3-0.2-0.5-0.5-0.5h-9v-12h29.6v12h-9c-0.3,0-0.5,0.2-0.5,0.5v10.2c0,0.3,0.2,0.5,0.5,0.5h8.3
		c0.1,0,0.2,0,0.3-0.1c5.3-4.2,8.2-9.7,8.2-15.6c0-5.9-2.9-11.4-8.2-15.6c-0.1-0.1-0.2-0.1-0.3-0.1H25.4h-2.9H9.9z"/>
</g>
</svg>
