<?xml version="1.0" encoding="utf-8"?>
<!-- Generator: Adobe Illustrator 18.0.0, SVG Export Plug-In . SVG Version: 6.00 Build 0)  -->
<!DOCTYPE svg PUBLIC "-//W3C//DTD SVG 1.1//EN" "http://www.w3.org/Graphics/SVG/1.1/DTD/svg11.dtd">
<svg version="1.1" id="Layer_1" xmlns="http://www.w3.org/2000/svg" xmlns:xlink="http://www.w3.org/1999/xlink" x="0px" y="0px"
	 viewBox="0 0 48 48" enable-background="new 0 0 48 48" xml:space="preserve">
<g>
	<path fill="#F04B36" d="M6.6,33.8c-2.8,0-5.1,2.3-5.1,5.1c0,2.8,2.3,5.1,5.1,5.1c2.8,0,5.1-2.3,5.1-5.1
		C11.6,36.1,9.4,33.8,6.6,33.8z"/>
	<path fill="#F04B36" d="M37.4,33.8c-2.8,0-5.1,2.3-5.1,5.1c0,2.8,2.3,5.1,5.1,5.1c2.8,0,5.1-2.3,5.1-5.1
		C42.5,36.1,40.2,33.8,37.4,33.8z"/>
	<path fill="#06728D" d="M44.4,24.8c-2-1.8-4.4-2-5.9-1.9c0.9-7-0.5-12.1-4.2-15.3C27,1.2,13.5,5.2,13,5.4c-0.5,0.2-0.8,0.7-0.7,1.2
		c0.2,0.5,0.7,0.8,1.2,0.7c0,0,0.7-0.2,1.9-0.5L7.2,28.2c-3.2,0.1-6,1.3-6.1,1.4c-0.5,0.2-0.7,0.8-0.5,1.3c0.2,0.5,0.8,0.7,1.3,0.5
		c0,0,2.9-1.2,6-1.2h0c0,0,0,0,0,0c1.3,0,2.6,0.2,3.7,0.8c1.8,0.9,3,2.7,3.5,5.2c0.1,0.5,0.5,0.8,1,0.8h12.5c0.4,0,0.8-0.3,1-0.7
		c0,0,1.4-4.4,5.5-6.2c2.8-1.3,6.2-1.1,10.1,0.5c0.3,1.7,0.4,3.9,0.1,6.4c-0.1,0.5,0.3,1,0.9,1.1c0,0,0.1,0,0.1,0
		c0.5,0,0.9-0.4,1-0.9C48,31.3,47,27.1,44.4,24.8z M22.5,22.9l-2.2-2.1l-7.6,8.5c-0.5-0.3-1.2-0.6-1.9-0.8c0,0,0-0.1,0.1-0.1l8-9
		L17,17.6c-0.4-0.4-0.4-1,0-1.4c0.4-0.4,1-0.4,1.4,0l5.5,5.3c0.4,0.4,0.4,1,0,1.4c-0.2,0.2-0.4,0.3-0.7,0.3
		C22.9,23.1,22.7,23,22.5,22.9z M32.8,25.5c-1.1,1.5-3,2.2-5.7,2.2c-0.8,0-1.8-0.1-2.8-0.2c-0.5-0.1-0.9-0.6-0.8-1.1
		c0.1-0.5,0.6-0.9,1.1-0.8c2.3,0.3,5.4,0.4,6.6-1.2c1.3-1.8,0.1-5.2-0.4-6.4c-0.2-0.5,0-1.1,0.4-1.3c0.5-0.2,1.1,0,1.3,0.4
		C32.6,17.3,35.1,22.4,32.8,25.5z"/>
</g>
</svg>
