<?xml version="1.0" encoding="utf-8"?>
<!-- Generator: Adobe Illustrator 18.0.0, SVG Export Plug-In . SVG Version: 6.00 Build 0)  -->
<!DOCTYPE svg PUBLIC "-//W3C//DTD SVG 1.1//EN" "http://www.w3.org/Graphics/SVG/1.1/DTD/svg11.dtd">
<svg version="1.1" id="Layer_1" xmlns="http://www.w3.org/2000/svg" xmlns:xlink="http://www.w3.org/1999/xlink" x="0px" y="0px"
	 viewBox="0 0 48 48" enable-background="new 0 0 48 48" xml:space="preserve">
<g>
	<path fill="#E77528" d="M44.3,33.2H4c-0.8,0-1.5,0.7-1.5,1.5c0,0.8,0.7,1.5,1.5,1.5h40.3c0.8,0,1.5-0.7,1.5-1.5
		C45.8,33.9,45.1,33.2,44.3,33.2z"/>
	<path fill="#06728D" d="M10.2,38c-2.5,0-4.6,2.1-4.6,4.6s2.1,4.6,4.6,4.6c2.5,0,4.6-2.1,4.6-4.6S12.8,38,10.2,38z"/>
	<path fill="#06728D" d="M38.2,38c-2.5,0-4.6,2.1-4.6,4.6s2.1,4.6,4.6,4.6c2.5,0,4.6-2.1,4.6-4.6S40.7,38,38.2,38z"/>
	<path fill="#F04B36" d="M31.6,30.3v-5.7h-4v5.7c0,0.2,0,0.3-0.1,0.5h4.2C31.6,30.6,31.6,30.4,31.6,30.3z"/>
	<rect x="27.6" y="15" fill="#F04B36" width="4" height="6.6"/>
	<path fill="#0DB89A" d="M4.7,30.8h20c-0.1-0.2-0.1-0.3-0.1-0.5V7.3c0-0.2,0-0.3,0.1-0.5h-6.9v-3h1.7c0.8,0,1.5-0.7,1.5-1.5
		c0-0.8-0.7-1.5-1.5-1.5H13c-0.8,0-1.5,0.7-1.5,1.5c0,0.8,0.7,1.5,1.5,1.5h1.7v3H4.7C4.5,6.8,4.4,6.9,4.3,7
		c-5.1,6.5-5.1,17.1,0,23.5C4.4,30.7,4.5,30.8,4.7,30.8z"/>
	<path fill="#F04B36" d="M27.6,12h4V7.3c0-0.2,0-0.3,0.1-0.5h-4.2c0.1,0.2,0.1,0.3,0.1,0.5V12z"/>
	<path fill="#0DB89A" d="M34.5,30.8h8.8c0.2,0,0.3-0.1,0.4-0.2c5.1-6.5,5.1-17.1,0-23.5c-0.1-0.1-0.2-0.2-0.4-0.2h-8.8
		c0.1,0.2,0.1,0.3,0.1,0.5v22.9C34.6,30.4,34.6,30.6,34.5,30.8z"/>
</g>
</svg>
