<?xml version="1.0" encoding="utf-8"?>
<!-- Generator: Adobe Illustrator 18.0.0, SVG Export Plug-In . SVG Version: 6.00 Build 0)  -->
<!DOCTYPE svg PUBLIC "-//W3C//DTD SVG 1.1//EN" "http://www.w3.org/Graphics/SVG/1.1/DTD/svg11.dtd">
<svg version="1.1" id="Layer_1" xmlns="http://www.w3.org/2000/svg" xmlns:xlink="http://www.w3.org/1999/xlink" x="0px" y="0px"
	 viewBox="0 0 48 48" enable-background="new 0 0 48 48" xml:space="preserve">
<g>
	<path fill="#CFD0D1" d="M47.4,7.4c-0.1-0.2-0.3-0.2-0.5-0.2l-46,12.1c-0.2,0-0.3,0.2-0.4,0.4c0,0.2,0,0.4,0.2,0.5l9.7,6.6l1,13.5
		c0,0.2,0.2,0.4,0.4,0.5c0,0,0.1,0,0.1,0c0.2,0,0.3-0.1,0.4-0.3l4.8-8.6l7.8,8c0.1,0.1,0.3,0.2,0.4,0.2c0.2,0,0.3-0.1,0.4-0.2
		l21.7-32C47.5,7.8,47.5,7.5,47.4,7.4z"/>
</g>
</svg>
