<?xml version="1.0" encoding="utf-8"?>
<!-- Generator: Adobe Illustrator 18.0.0, SVG Export Plug-In . SVG Version: 6.00 Build 0)  -->
<!DOCTYPE svg PUBLIC "-//W3C//DTD SVG 1.1//EN" "http://www.w3.org/Graphics/SVG/1.1/DTD/svg11.dtd">
<svg version="1.1" id="Layer_1" xmlns="http://www.w3.org/2000/svg" xmlns:xlink="http://www.w3.org/1999/xlink" x="0px" y="0px"
	 viewBox="0 0 48 48" enable-background="new 0 0 48 48" xml:space="preserve">
<g>
	<path fill="#F04B36" d="M8.4,29.1c-4,0-7.3,3.3-7.3,7.3c0,4,3.3,7.3,7.3,7.3c4,0,7.3-3.3,7.3-7.3C15.7,32.4,12.5,29.1,8.4,29.1z"/>
	<path fill="#F04B36" d="M42.4,32.5c-2.8,0-5.1,2.3-5.1,5.1c0,2.8,2.3,5.1,5.1,5.1c2.8,0,5.1-2.3,5.1-5.1
		C47.5,34.8,45.2,32.5,42.4,32.5z"/>
	<path fill="#06728D" d="M0.5,31.6c1.6-2.7,4.6-4.5,7.9-4.5c3.6,0,6.8,2.1,8.3,5.1V4.3H0.5V31.6z"/>
	<path fill="#0DB89A" d="M41.3,26.8C41.5,13.5,27,4.5,26.8,4.4l-0.1-0.1h-8v29.2h15.5l0.1-0.1C38.5,30.6,41.2,28.5,41.3,26.8z"/>
</g>
</svg>
