<?xml version="1.0" encoding="utf-8"?>
<!-- Generator: Adobe Illustrator 18.0.0, SVG Export Plug-In . SVG Version: 6.00 Build 0)  -->
<!DOCTYPE svg PUBLIC "-//W3C//DTD SVG 1.1//EN" "http://www.w3.org/Graphics/SVG/1.1/DTD/svg11.dtd">
<svg version="1.1" id="Layer_1" xmlns="http://www.w3.org/2000/svg" xmlns:xlink="http://www.w3.org/1999/xlink" x="0px" y="0px"
	 viewBox="0 0 48 48" enable-background="new 0 0 48 48" xml:space="preserve">
<g>
	<circle fill="#E77528" cx="8" cy="35.6" r="7.3"/>
	<path fill="#E77528" d="M40.1,28.3c-4,0-7.3,3.3-7.3,7.3s3.3,7.3,7.3,7.3c4,0,7.3-3.3,7.3-7.3S44.2,28.3,40.1,28.3z"/>
	<path fill="#F7A93B" d="M36,24.2c2.8-1.3,6.2-0.9,10,1c0.5,0.3,1.1,0,1.4-0.5c0.3-0.5,0-1.1-0.5-1.4c-2.4-1.2-4.7-1.8-6.8-1.9V7.5
		c0-0.1,0-0.3-0.1-0.4h2.5c0.6,0,1-0.5,1-1c0-0.6-0.5-1-1-1H7.1c-0.6,0-1,0.5-1,1c0,0.6,0.5,1,1,1h3.5c0,0.1-0.1,0.2-0.1,0.4v14.4
		c-4.9-1-9.3,0.6-9.4,0.6c-0.5,0.2-0.8,0.8-0.6,1.3c0.2,0.5,0.8,0.8,1.3,0.6c0.5-0.2,12.9-4.6,17.9,8.3l0.3,0.7h9.3l0.2-0.8
		C29.5,32.6,31.1,26.4,36,24.2z M25.5,21.7c-0.2,0.2-0.4,0.3-0.7,0.3c-0.3,0-0.5-0.1-0.7-0.3l-2-2.1l-5.3,5.4
		c-0.5-0.5-1-0.9-1.7-1.2l5.6-5.6l-2.8-2.9c-0.4-0.4-0.4-1.1,0-1.4c0.4-0.4,1.1-0.4,1.4,0l6.1,6.5C26,20.6,25.9,21.3,25.5,21.7z"/>
</g>
</svg>
