<?xml version="1.0" encoding="utf-8"?>
<!-- Generator: Adobe Illustrator 18.0.0, SVG Export Plug-In . SVG Version: 6.00 Build 0)  -->
<!DOCTYPE svg PUBLIC "-//W3C//DTD SVG 1.1//EN" "http://www.w3.org/Graphics/SVG/1.1/DTD/svg11.dtd">
<svg version="1.1" id="Layer_1" xmlns="http://www.w3.org/2000/svg" xmlns:xlink="http://www.w3.org/1999/xlink" x="0px" y="0px"
	 viewBox="0 0 48 48" enable-background="new 0 0 48 48" xml:space="preserve">
<g>
	<path fill="#F04B36" d="M47.4,24.4c-0.5-2.1-2.2-3.8-4.1-5.9c-1.1-1.1-2.2-2.3-3.2-3.6c-2.6-3.4-5.3-7.6-5.3-7.6
		c-0.4-0.6-1.1-0.8-1.8-0.5c-0.6,0.3-1,1-0.8,1.7c0.4,1.7,0.2,3.2-0.8,4.8c-3.9,6.5-18,9.9-18.2,9.9c-0.8,0.2-1.3,1-1.1,1.7
		c0.1,0.6,0.6,1,1.2,1.1l0,0c0,0,7,2.2,4.8,7.8C15.9,39.4,4.7,46.8,4.7,46.8l23.6-0.1c0.2,0.1,0.3,0.1,0.5,0.1c0.6,0,1.1-0.4,1.4-1
		c2.6-7.2,3.8-13.8,4.2-17c1.2,0.2,2.5-0.1,3.6-0.3c0.8-0.2,1.5-0.3,2.2-0.3c1.1,0,1.8,0.4,2.5,0.8c0.8,0.5,1.8,1.1,3.1,0.5
		C47.2,28.7,47.7,25.7,47.4,24.4z"/>
	<path fill="#06728D" d="M6,42.3c0.2,0,0.4,0,0.6-0.1c7.4-3.6,10.7-7,10.2-10.5c-0.7-5.1-9.8-7.3-13.4-8.1c0-5.6,7.1-10,9.8-11.5
		c4.3,5.3,9.7,5,12.1,4.1c0.7-0.3,1.1-1.1,0.8-1.9c-0.3-0.7-1.1-1.1-1.9-0.8c-0.2,0.1-5.3,1.9-9.5-4.1C14.4,8.9,13.6,8.7,13,9
		C12.5,9.2-0.8,15.5,0.6,25c0.1,0.6,0.6,1.1,1.2,1.2C6.6,27,13.6,29.4,14,32.1c0.1,0.9-0.4,3.4-8.6,7.5c-0.7,0.3-1,1.2-0.7,1.9
		C4.9,42,5.4,42.3,6,42.3z"/>
	<ellipse fill="#F7A93B" cx="18.7" cy="4.7" rx="3.4" ry="3.5"/>
</g>
</svg>
