<?xml version="1.0" encoding="utf-8"?>
<!-- Generator: Adobe Illustrator 18.0.0, SVG Export Plug-In . SVG Version: 6.00 Build 0)  -->
<!DOCTYPE svg PUBLIC "-//W3C//DTD SVG 1.1//EN" "http://www.w3.org/Graphics/SVG/1.1/DTD/svg11.dtd">
<svg version="1.1" id="Layer_1" xmlns="http://www.w3.org/2000/svg" xmlns:xlink="http://www.w3.org/1999/xlink" x="0px" y="0px"
	 viewBox="0 0 48 48" enable-background="new 0 0 48 48" xml:space="preserve">
<g>
	<path fill="#F04B36" d="M24.9,39.6V6.1c4.4,2,18.4,8.9,20.4,18.6c0.9,4.5-0.9,9.2-5.5,13.8l3.3-0.7c3.7-4.5,5.1-9,4.2-13.5
		C44.8,12.8,28.4,5.4,24.9,3.9V2.5c0-0.5-0.4-1-1-1c-0.5,0-1,0.4-1,1v1.9c-0.6,2.1-8.9,28-18.5,31.7C4.4,36.1,14.3,40.1,24.9,39.6z"
		/>
	<path fill="#06728D" d="M46.6,36.8c0,0-1.3,0.4-3.5,1l-3.3,0.7c-3.4,0.6-7.9,1.2-13.1,1.2c-0.6,0-1.2,0-1.8,0
		c-10.6,0.5-20.5-3.5-20.5-3.5c-1.1-0.4-2.1-0.7-3.2-1.2c-0.2-0.1-0.4,0-0.6,0.2c-0.1,0.2-0.1,0.4,0,0.6l8.5,10.6
		c0.1,0.1,0.2,0.2,0.4,0.2h31.3c0.2,0,0.3-0.1,0.4-0.2l6-8.7c0.1-0.2,0.1-0.4,0-0.6C47,36.8,46.8,36.8,46.6,36.8z"/>
</g>
</svg>
