<?xml version="1.0" encoding="utf-8"?>
<!-- Generator: Adobe Illustrator 18.0.0, SVG Export Plug-In . SVG Version: 6.00 Build 0)  -->
<!DOCTYPE svg PUBLIC "-//W3C//DTD SVG 1.1//EN" "http://www.w3.org/Graphics/SVG/1.1/DTD/svg11.dtd">
<svg version="1.1" id="Layer_1" xmlns="http://www.w3.org/2000/svg" xmlns:xlink="http://www.w3.org/1999/xlink" x="0px" y="0px"
	 viewBox="0 0 48 48" enable-background="new 0 0 48 48" xml:space="preserve">
<g>
	<path fill="#F04B36" d="M47.4,17.6c-0.1-0.3-0.3-0.5-0.6-0.6L43.9,16L37.6,5.4c-0.2-0.4-0.6-0.5-1.1-0.5L23.3,7.8
		C23,7.8,22.8,8,22.6,8.2l-1.8-0.7V7.5c0-0.3-0.2-0.6-0.4-0.8l-3-2c-0.5-0.3-1.1-0.2-1.4,0.3c-0.3,0.5-0.2,1.1,0.3,1.4L18.8,8v14
		c0,0.4,0.3,0.8,0.6,0.9l19.4,7.2c0.1,0,0.2,0.1,0.3,0.1c0.3,0,0.6-0.2,0.8-0.5l7.3-11.3C47.5,18.2,47.5,17.9,47.4,17.6z"/>
	<circle fill="#E77528" cx="12.9" cy="39.5" r="4"/>
	<circle fill="#E77528" cx="33.9" cy="39.5" r="4"/>
	<path fill="#CFD0D1" d="M15.7,18.5c0-0.1-0.1-0.2-0.2-0.2H6.8c-0.1,0-0.1,0-0.2,0.1c-0.1,0-4.8,4.1-5.9,10h15V18.5z"/>
	<path fill="#294E58" d="M46.5,33.3H15.7c0,0,0,0,0,0v-3.1H0.5c0,0.1,0,0.3,0,0.4v7.9c0,0.1,0.1,0.2,0.2,0.2h6.2
		c0.4-2.9,2.9-5.2,5.9-5.2c3,0,5.5,2.3,5.9,5.2H28c0.4-2.9,2.9-5.2,5.9-5.2c3,0,5.5,2.3,5.9,5.2h6.6c0.1,0,0.2-0.1,0.2-0.2v-5
		C46.8,33.4,46.6,33.3,46.5,33.3z"/>
</g>
</svg>
