<?xml version="1.0" encoding="utf-8"?>
<!-- Generator: Adobe Illustrator 18.0.0, SVG Export Plug-In . SVG Version: 6.00 Build 0)  -->
<!DOCTYPE svg PUBLIC "-//W3C//DTD SVG 1.1//EN" "http://www.w3.org/Graphics/SVG/1.1/DTD/svg11.dtd">
<svg version="1.1" id="Layer_1" xmlns="http://www.w3.org/2000/svg" xmlns:xlink="http://www.w3.org/1999/xlink" x="0px" y="0px"
	 viewBox="0 0 48 48" enable-background="new 0 0 48 48" xml:space="preserve">
<g>
	<path fill="#0DB89A" d="M47,29.7l-6.3-5.6c4.9-5.2,6.9-11.6,4.7-16.8c0-0.1-0.1-0.2-0.1-0.2c-0.1-0.3-0.3-0.5-0.5-0.6
		c-0.9-1.2-2.8-2.4-7-2.4c-1.3,0-2.7,0.1-4.2,0.3c2,1.3,3.7,3.1,5,5.2l0.9,1.5l-1.4,1c-3.8,2.7-8.5,5.4-13.7,7.5
		c-5.2,2.2-10.4,3.8-15,4.6l-1.7,0.3L7.2,23c-0.7-2.4-0.7-4.9-0.3-7.2c-4.7,3.6-6.9,7.1-6.3,9.7c0,0.1,0,0.3,0.1,0.4
		c0,0.1,0,0.1,0.1,0.2c1.8,4.2,5.8,7,11.3,8c1.3,0.2,2.6,0.3,4,0.4l-0.4,8.4c0,0.8,0.6,1.5,1.4,1.5c0,0,0,0,0.1,0
		c0.8,0,1.4-0.6,1.5-1.4l0.4-8.6c3.4-0.3,7-1.1,10.5-2.6c3.5-1.5,6.6-3.5,9.2-5.7l6.4,5.7c0.3,0.2,0.6,0.4,1,0.4
		c0.4,0,0.8-0.2,1.1-0.5C47.7,31.1,47.6,30.2,47,29.7z M28.3,29.2c-3.1,1.3-6.2,2.1-9.2,2.3l0.1-1.2c0-0.8-0.6-1.5-1.4-1.5
		c-0.8,0-1.5,0.6-1.5,1.4l-0.1,1.4c-1.2,0-2.4-0.1-3.6-0.3c-2.3-0.4-4.2-1.2-5.8-2.2c0.4,0,0.8,0,1.3,0h0c4.9,0,11.5-1.6,18.2-4.4
		c5.8-2.4,10.9-5.5,14.4-8.6c0.9-0.8,1.7-1.6,2.4-2.4c-0.5,2.9-2.1,5.9-4.6,8.6l-1.1-1c-0.6-0.5-1.5-0.5-2.1,0.1
		c-0.5,0.6-0.5,1.5,0.1,2.1l0.9,0.8C34.2,26.1,31.4,27.8,28.3,29.2z"/>
	<path fill="#06728D" d="M23.6,18c5.2-2.2,9.8-4.8,13.3-7.3C33.2,4.4,25.2,1.8,18,4.8c-7.2,3-10.9,10.7-9,17.7
		C13.3,21.7,18.3,20.2,23.6,18z M26.9,10.4l1.2-0.5c0.5-0.2,1.1,0,1.3,0.5c0.2,0.5,0,1.1-0.5,1.3l-1.2,0.5c-0.1,0.1-0.3,0.1-0.4,0.1
		c-0.4,0-0.7-0.2-0.9-0.6C26.2,11.1,26.4,10.6,26.9,10.4z M20.7,13l1.2-0.5c0.5-0.2,1.1,0,1.3,0.5c0.2,0.5,0,1.1-0.5,1.3l-1.2,0.5
		c-0.1,0.1-0.3,0.1-0.4,0.1c-0.4,0-0.7-0.2-0.9-0.6C20,13.7,20.2,13.2,20.7,13z M14.5,15.6l1.2-0.5c0.5-0.2,1.1,0,1.3,0.5
		c0.2,0.5,0,1.1-0.5,1.3l-1.2,0.5c-0.1,0.1-0.3,0.1-0.4,0.1c-0.4,0-0.7-0.2-0.9-0.6C13.8,16.4,14,15.8,14.5,15.6z"/>
</g>
</svg>
