<?xml version="1.0" encoding="utf-8"?>
<!-- Generator: Adobe Illustrator 18.0.0, SVG Export Plug-In . SVG Version: 6.00 Build 0)  -->
<!DOCTYPE svg PUBLIC "-//W3C//DTD SVG 1.1//EN" "http://www.w3.org/Graphics/SVG/1.1/DTD/svg11.dtd">
<svg version="1.1" id="Layer_1" xmlns="http://www.w3.org/2000/svg" xmlns:xlink="http://www.w3.org/1999/xlink" x="0px" y="0px"
	 viewBox="0 0 48 48" enable-background="new 0 0 48 48" xml:space="preserve">
<g>
	<path fill="#F04B36" d="M9.7,33.1H1.5c-0.5,0-1,0.4-1,1c0,0.5,0.4,1,1,1h8.2c0.5,0,1-0.4,1-1C10.6,33.5,10.2,33.1,9.7,33.1z"/>
	<path fill="#F04B36" d="M9.7,37.2H1.5c-0.5,0-1,0.4-1,1c0,0.5,0.4,1,1,1h8.2c0.5,0,1-0.4,1-1C10.6,37.6,10.2,37.2,9.7,37.2z"/>
	<path fill="#F04B36" d="M9.7,41.2H1.5c-0.5,0-1,0.4-1,1c0,0.5,0.4,1,1,1h8.2c0.5,0,1-0.4,1-1C10.6,41.7,10.2,41.2,9.7,41.2z"/>
	<path fill="#F04B36" d="M9.7,45.3H1.5c-0.5,0-1,0.4-1,1c0,0.5,0.4,1,1,1h8.2c0.5,0,1-0.4,1-1C10.6,45.7,10.2,45.3,9.7,45.3z"/>
	<path fill="#F04B36" d="M37.4,34.1c0,0.5,0.4,1,1,1h8.2c0.5,0,1-0.4,1-1c0-0.5-0.4-1-1-1h-8.2C37.8,33.1,37.4,33.5,37.4,34.1z"/>
	<path fill="#F04B36" d="M46.5,37.2h-8.2c-0.5,0-1,0.4-1,1c0,0.5,0.4,1,1,1h8.2c0.5,0,1-0.4,1-1C47.5,37.6,47.1,37.2,46.5,37.2z"/>
	<path fill="#F04B36" d="M46.5,41.2h-8.2c-0.5,0-1,0.4-1,1c0,0.5,0.4,1,1,1h8.2c0.5,0,1-0.4,1-1C47.5,41.7,47.1,41.2,46.5,41.2z"/>
	<path fill="#F04B36" d="M46.5,45.3h-8.2c-0.5,0-1,0.4-1,1c0,0.5,0.4,1,1,1h8.2c0.5,0,1-0.4,1-1C47.5,45.7,47.1,45.3,46.5,45.3z"/>
	<path fill="#F7A93B" d="M38.4,8.1C38.3,8,38.1,7.9,38,7.9h-4.5V1.2c0-0.3-0.2-0.5-0.5-0.5H15c-0.3,0-0.5,0.2-0.5,0.5v6.7H10
		C9.9,7.9,9.7,8,9.6,8.1c-0.2,0.3-2.7,4-4.8,8.8h38.4C41.1,12.1,38.6,8.4,38.4,8.1z"/>
	<path fill="#06728D" d="M45.9,29.4c0.3-3.3-0.6-7.1-1.9-10.5H4C2.7,22.3,1.8,26,2.1,29.4c0,0.3,0.2,0.4,0.5,0.4h11.2v9.9
		c0,0.3,0.2,0.5,0.5,0.5h19.5c0.3,0,0.5-0.2,0.5-0.5v-9.9h11.2C45.7,29.8,45.9,29.6,45.9,29.4z"/>
</g>
</svg>
