<?xml version="1.0" encoding="utf-8"?>
<!-- Generator: Adobe Illustrator 18.0.0, SVG Export Plug-In . SVG Version: 6.00 Build 0)  -->
<!DOCTYPE svg PUBLIC "-//W3C//DTD SVG 1.1//EN" "http://www.w3.org/Graphics/SVG/1.1/DTD/svg11.dtd">
<svg version="1.1" id="Layer_1" xmlns="http://www.w3.org/2000/svg" xmlns:xlink="http://www.w3.org/1999/xlink" x="0px" y="0px"
	 viewBox="0 0 48 48" enable-background="new 0 0 48 48" xml:space="preserve">
<g>
	<path fill="#F04B36" d="M46.1,1.4H25c-0.2-0.5-0.7-0.9-1.3-0.9c-0.6,0-1.1,0.4-1.3,0.9H1.9c-0.8,0-1.4,0.6-1.4,1.4
		c0,0.8,0.6,1.4,1.4,1.4h20.2v2.8C22.8,7,23.4,6.9,24,6.9c0.4,0,0.7,0,1,0.1V4.3h21c0.8,0,1.4-0.6,1.4-1.4
		C47.5,2.1,46.9,1.4,46.1,1.4z"/>
	<path fill="#4DA0D8" d="M9.1,23.6c0,1.6,0.2,3.2,0.6,4.7h12.4V7.1C14.8,8.1,9.1,15.1,9.1,23.6z"/>
	<path fill="#4DA0D8" d="M38.2,28.4c0.4-1.5,0.6-3.1,0.6-4.7c0-8.8-6.1-16-13.8-16.6v21.4H38.2z"/>
	<path fill="#0DB89A" d="M34.7,35.2c1.2-1.4,2.2-3.1,2.9-4.9H10.4c0.7,1.8,1.7,3.5,2.9,4.9L6.5,45.3c-0.3,0.4-0.3,1-0.1,1.5
		c0.2,0.5,0.7,0.8,1.3,0.8h3.5c0.8,0,1.4-0.6,1.4-1.4c0-0.8-0.6-1.4-1.4-1.4h-0.8l5-7.4c2.4,2,5.4,3.1,8.6,3.1s6.2-1.2,8.6-3.1
		l5,7.4h-0.8c-0.8,0-1.4,0.6-1.4,1.4c0,0.8,0.6,1.4,1.4,1.4h3.5c0.5,0,1-0.3,1.3-0.8c0.2-0.5,0.2-1-0.1-1.5L34.7,35.2z"/>
</g>
</svg>
