<?xml version="1.0" encoding="utf-8"?>
<!-- Generator: Adobe Illustrator 18.0.0, SVG Export Plug-In . SVG Version: 6.00 Build 0)  -->
<!DOCTYPE svg PUBLIC "-//W3C//DTD SVG 1.1//EN" "http://www.w3.org/Graphics/SVG/1.1/DTD/svg11.dtd">
<svg version="1.1" id="Layer_1" xmlns="http://www.w3.org/2000/svg" xmlns:xlink="http://www.w3.org/1999/xlink" x="0px" y="0px"
	 viewBox="0 0 48 48" enable-background="new 0 0 48 48" xml:space="preserve">
<g>
	<path fill="#06728D" d="M46,8.9H21.1c-0.3-2.8-3.5-4.3-3.9-4.4c-0.2-0.1-0.4-0.1-0.6-0.1H9.1C8.3,4.3,7.6,5,7.6,5.8
		c0,0.8,0.7,1.5,1.5,1.5h7.2c0.7,0.4,1.8,1.2,1.8,1.9v20.7c0,0.8,0.7,1.5,1.5,1.5H46c0.8,0,1.5-0.7,1.5-1.5V10.4
		C47.5,9.6,46.8,8.9,46,8.9z"/>
	<path fill="#CFD0D1" d="M12.9,35.6c-2.2,0-4,1.8-4,4c0,2.2,1.8,4,4,4c2.2,0,4-1.8,4-4C16.9,37.4,15.2,35.6,12.9,35.6z"/>
	<circle fill="#CFD0D1" cx="34.2" cy="39.6" r="4"/>
	<path fill="#F04B36" d="M15.8,18.4c0-0.1-0.1-0.3-0.3-0.3H6.8c-0.1,0-0.1,0-0.2,0.1c-0.1,0-4.8,4.1-5.9,10h15.1V18.4z"/>
	<path fill="#E77528" d="M46.8,33.4h-31c0,0,0,0,0,0v-3.1H0.5c0,0.1,0,0.3,0,0.4v8c0,0.1,0.1,0.3,0.3,0.3H7c0.4-3,2.9-5.2,6-5.2
		s5.6,2.3,6,5.2h9.3c0.4-3,2.9-5.2,6-5.2s5.6,2.3,6,5.2h6.7c0.1,0,0.3-0.1,0.3-0.3v-5C47.1,33.5,47,33.4,46.8,33.4z"/>
</g>
</svg>
