<?xml version="1.0" encoding="utf-8"?>
<!-- Generator: Adobe Illustrator 18.0.0, SVG Export Plug-In . SVG Version: 6.00 Build 0)  -->
<!DOCTYPE svg PUBLIC "-//W3C//DTD SVG 1.1//EN" "http://www.w3.org/Graphics/SVG/1.1/DTD/svg11.dtd">
<svg version="1.1" id="Layer_1" xmlns="http://www.w3.org/2000/svg" xmlns:xlink="http://www.w3.org/1999/xlink" x="0px" y="0px"
	 viewBox="0 0 48 48" enable-background="new 0 0 48 48" xml:space="preserve">
<g>
	<path fill="#F7A93B" d="M45.4,34h-1c-0.1-0.8-0.4-1.5-0.9-2.1l0.7-0.7c0.4-0.4,0.4-1,0-1.4c-0.4-0.4-1-0.4-1.4,0l-0.7,0.7
		c-0.6-0.4-1.3-0.7-2.1-0.9v-1c0-0.6-0.5-1-1-1c-0.6,0-1,0.5-1,1v1c-0.8,0.1-1.5,0.4-2.1,0.9l-0.7-0.7c-0.4-0.4-1-0.4-1.4,0
		c-0.4,0.4-0.4,1,0,1.4l0.7,0.7c-0.4,0.6-0.7,1.3-0.9,2.1h-1c-0.6,0-1,0.5-1,1c0,0.6,0.5,1,1,1h1c0.1,0.8,0.4,1.5,0.9,2.1l-0.7,0.7
		c-0.4,0.4-0.4,1,0,1.4c0.2,0.2,0.5,0.3,0.7,0.3c0.3,0,0.5-0.1,0.7-0.3l0.7-0.7c0.6,0.4,1.3,0.7,2.1,0.9v1c0,0.6,0.5,1,1,1
		c0.6,0,1-0.5,1-1v-1c0.8-0.1,1.5-0.4,2.1-0.9l0.7,0.7c0.2,0.2,0.5,0.3,0.7,0.3c0.3,0,0.5-0.1,0.7-0.3c0.4-0.4,0.4-1,0-1.4l-0.7-0.7
		c0.4-0.6,0.7-1.3,0.9-2.1h1c0.6,0,1-0.5,1-1C46.5,34.5,46,34,45.4,34z"/>
	<path fill="#F7A93B" d="M14.4,34h-0.7c-0.2-0.9-0.5-1.6-1-2.3l0.5-0.5c0.4-0.4,0.4-1,0-1.4c-0.4-0.4-1-0.4-1.4,0l-0.5,0.5
		c-0.7-0.5-1.5-0.8-2.3-1v-0.7c0-0.6-0.5-1-1-1c-0.6,0-1,0.5-1,1v0.7c-0.9,0.2-1.6,0.5-2.3,1l-0.5-0.5c-0.4-0.4-1-0.4-1.4,0
		c-0.4,0.4-0.4,1,0,1.4l0.5,0.5c-0.5,0.7-0.8,1.5-1,2.3H1.5c-0.6,0-1,0.5-1,1c0,0.6,0.5,1,1,1h0.7c0.2,0.9,0.5,1.6,1,2.3l-0.5,0.5
		c-0.4,0.4-0.4,1,0,1.4c0.2,0.2,0.5,0.3,0.7,0.3c0.3,0,0.5-0.1,0.7-0.3l0.5-0.5c0.7,0.5,1.5,0.8,2.3,1v0.7c0,0.6,0.5,1,1,1
		c0.6,0,1-0.5,1-1v-0.7c0.9-0.2,1.6-0.5,2.3-1l0.5,0.5c0.2,0.2,0.5,0.3,0.7,0.3c0.3,0,0.5-0.1,0.7-0.3c0.4-0.4,0.4-1,0-1.4l-0.5-0.5
		c0.5-0.7,0.8-1.5,1-2.3h0.7c0.6,0,1-0.5,1-1C15.4,34.5,15,34,14.4,34z"/>
	<path fill="#0DB89A" d="M46.9,21.9c-4.3-3.3-10.2-2.5-10.4-2.5c0,0,0,0,0,0H21.3c-0.7-0.1-2.5-0.8-2.1-3.8c0.1-0.5-0.1-1-0.6-1.4
		c-0.4-0.3-1-0.4-1.5-0.3l-2.8,1c0-1.3,0.4-5.3,5.4-6.4c0.8-0.2,1.4-1,1.2-1.8c-0.2-0.8-1-1.4-1.8-1.2c-6.7,1.5-8,7.2-7.8,10
		c0,0.1,0.1,0.2,0.1,0.4l-2.1,0.7c-0.5,0.2-0.9,0.6-1,1.1l-0.6,2.4l-4.3,1.9c-0.7,0.3-1.1,1.1-0.9,1.8c0.2,0.7,0.9,1.2,1.7,1.1
		c0,0,0.7-0.1,1.7-0.1c4.3,0,11.9,1.2,14.3,9.2c0.2,0.6,0.8,1.1,1.5,1.1h5.1c0.8,0,1.5-0.7,1.5-1.5c0-0.4,0.2-9.2,8.8-11
		c0,0,0.1,0,0.1,0c1.1-0.1,5-0.2,7.8,1.9c0.3,0.2,0.6,0.3,0.9,0.3c0.5,0,0.9-0.2,1.2-0.6C47.7,23.4,47.6,22.5,46.9,21.9z"/>
</g>
</svg>
