<?xml version="1.0" encoding="utf-8"?>
<!-- Generator: Adobe Illustrator 18.0.0, SVG Export Plug-In . SVG Version: 6.00 Build 0)  -->
<!DOCTYPE svg PUBLIC "-//W3C//DTD SVG 1.1//EN" "http://www.w3.org/Graphics/SVG/1.1/DTD/svg11.dtd">
<svg version="1.1" id="Layer_1" xmlns="http://www.w3.org/2000/svg" xmlns:xlink="http://www.w3.org/1999/xlink" x="0px" y="0px"
	 viewBox="0 0 48 48" enable-background="new 0 0 48 48" xml:space="preserve">
<g>
	<path fill="#0DB89A" d="M43.1,43.6h-1.2V5.1h-4.6v21.9H26.2v1.5c0,0.3-0.3,0.6-0.6,0.6h-1.1V34h7.9c0,0.1,0,0.3,0,0.4
		c0.4-0.1,0.9,0,1.2,0.1c0.9,0.3,1.5,1,1.4,1.7c0,1-1,2.3-5.3,3.6c-0.4,0.3-0.7,0.6-1.1,0.9c2.6,0.3,4.4,0.9,4.4,1.5
		c0,1-3.9,1.7-8.8,1.7c-4.9,0-8.8-0.8-8.8-1.7c0-0.6,1.8-1.2,4.5-1.5c-2.2-1.4-3.7-3.9-3.7-6.8h7.3V29h-1.1c-0.3,0-0.6-0.3-0.6-0.6
		v-1.5H10.6V5.1H6.1v38.5H4.9c-1.3,0-2.3,0.9-2.3,2c0,1.1,1,2,2.3,2h38.2c1.3,0,2.3-0.9,2.3-2C45.4,44.5,44.4,43.6,43.1,43.6z"/>
	<path fill="#0DB89A" d="M33.3,35.4c-0.3-0.1-0.7-0.1-1.1,0c-0.2,1.1-0.6,2.2-1.3,3.1c2.9-1.1,3.1-2,3.1-2.2
		C34.1,35.8,33.7,35.6,33.3,35.4z"/>
	<path fill="#F7A93B" d="M35.6,3.4c0-1.6-1.3-2.9-2.9-2.9H15.3c-1.6,0-2.9,1.3-2.9,2.9v21.8h23.2V3.4z"/>
</g>
</svg>
