<?xml version="1.0" encoding="utf-8"?>
<!-- Generator: Adobe Illustrator 18.0.0, SVG Export Plug-In . SVG Version: 6.00 Build 0)  -->
<!DOCTYPE svg PUBLIC "-//W3C//DTD SVG 1.1//EN" "http://www.w3.org/Graphics/SVG/1.1/DTD/svg11.dtd">
<svg version="1.1" id="Layer_1" xmlns="http://www.w3.org/2000/svg" xmlns:xlink="http://www.w3.org/1999/xlink" x="0px" y="0px"
	 viewBox="0 0 48 48" enable-background="new 0 0 48 48" xml:space="preserve">
<g>
	<g>
		<rect x="10.9" y="37" fill="#ED9322" width="26.2" height="0.6"/>
		<rect x="9.6" y="39.6" fill="#ED9322" width="28.7" height="0.6"/>
		<rect x="8.6" y="42.2" fill="#ED9322" width="30.7" height="0.6"/>
		<rect x="7.1" y="44.8" fill="#ED9322" width="33.7" height="0.6"/>
	</g>
	<path fill="#06728D" d="M43.5,19.2h-2.1v-7.8h-3v5.5H9.6v-5.5h-3v7.8H4.5c-2.2,0-4,1.6-4,3.7v14.6c0,2,1.8,3.7,4,3.7h1.6l-2.5,6.4
		h40.8l-2.5-6.4h1.6c2.2,0,4-1.6,4-3.7V22.9C47.5,20.8,45.7,19.2,43.5,19.2z M3.9,24.2c-0.7,0-1.3-0.5-1.3-1.2
		c0-0.7,0.6-1.2,1.3-1.2c0.7,0,1.3,0.5,1.3,1.2C5.2,23.7,4.6,24.2,3.9,24.2z M43,46.6H5l4.3-10.9h29.3L43,46.6z M42.2,38.4h-1.4
		l-1.4-3.7H8.6l-1.4,3.7H5.8v-5.5c0-1,0.9-1.8,2-1.8h32.5c1.1,0,2,0.8,2,1.8V38.4z M44.9,23.4h-4.8v-1.6h4.8V23.4z"/>
	<rect x="10.9" y="0.5" fill="#CFD0D1" width="26.2" height="15.2"/>
	<circle fill="#F04B36" cx="3.9" cy="23" r="0.9"/>
</g>
</svg>
