<?xml version="1.0" encoding="utf-8"?>
<!-- Generator: Adobe Illustrator 18.0.0, SVG Export Plug-In . SVG Version: 6.00 Build 0)  -->
<!DOCTYPE svg PUBLIC "-//W3C//DTD SVG 1.1//EN" "http://www.w3.org/Graphics/SVG/1.1/DTD/svg11.dtd">
<svg version="1.1" id="Layer_1" xmlns="http://www.w3.org/2000/svg" xmlns:xlink="http://www.w3.org/1999/xlink" x="0px" y="0px"
	 viewBox="0 0 48 48" enable-background="new 0 0 48 48" xml:space="preserve">
<g>
	<path fill="#E77528" d="M11.7,17.6c1.8,0,3.2-1.5,3.2-3.2s-1.5-3.2-3.2-3.2c-1.8,0-3.2,1.5-3.2,3.2S9.9,17.6,11.7,17.6z M11.7,12.1
		c1.3,0,2.3,1,2.3,2.3c0,1.3-1,2.3-2.3,2.3c-1.3,0-2.3-1-2.3-2.3C9.4,13.1,10.5,12.1,11.7,12.1z"/>
	<path fill="#E77528" d="M11.7,25.4c-2.6,0-4.8,2.2-4.8,4.8c0,2.6,2.2,4.8,4.8,4.8c2.6,0,4.8-2.2,4.8-4.8
		C16.5,27.5,14.4,25.4,11.7,25.4z M11.7,34c-2.1,0-3.8-1.7-3.8-3.8c0-2.1,1.7-3.8,3.8-3.8c2.1,0,3.8,1.7,3.8,3.8
		C15.5,32.3,13.8,34,11.7,34z"/>
	<path fill="#0DB89A" d="M19.2,5.5H4.3c-2.1,0-3.8,1.7-3.8,3.8v27.5c0,2.1,1.7,3.8,3.8,3.8h0.1v1.2c0,0.4,0.3,0.8,0.8,0.8h2.8
		c0.4,0,0.8-0.3,0.8-0.8v-1.2h6.2v1.2c0,0.4,0.3,0.8,0.8,0.8h2.8c0.4,0,0.8-0.3,0.8-0.8v-1.2c2.1,0,3.7-1.7,3.7-3.8V9.3
		C22.9,7.2,21.2,5.5,19.2,5.5z M11.7,9.8c2.5,0,4.5,2,4.5,4.5c0,2.5-2,4.5-4.5,4.5c-2.5,0-4.5-2-4.5-4.5C7.2,11.8,9.2,9.8,11.7,9.8z
		 M11.7,37.3c-3.9,0-7.1-3.2-7.1-7.1s3.2-7.1,7.1-7.1c3.9,0,7.1,3.2,7.1,7.1S15.6,37.3,11.7,37.3z"/>
	<circle fill="#F04B36" cx="33.2" cy="25.3" r="1.8"/>
	<circle fill="#F04B36" cx="39.4" cy="25.3" r="1.8"/>
	<path fill="#0DB89A" d="M43.7,5.5H28.8c-2.1,0-3.8,1.7-3.8,3.8v27.5c0,2.1,1.7,3.8,3.8,3.8h0v1.2c0,0.4,0.3,0.8,0.8,0.8h2.8
		c0.4,0,0.8-0.3,0.8-0.8v-1.2h6.2v1.2c0,0.4,0.3,0.8,0.8,0.8h2.8c0.4,0,0.8-0.3,0.8-0.8v-1.2h0c2.1,0,3.8-1.7,3.8-3.8V9.3
		C47.5,7.2,45.8,5.5,43.7,5.5z M31.3,35.1h-2.5V34h2.5V35.1z M35.5,35.1H33V34h2.5V35.1z M39.7,35.1h-2.5V34h2.5V35.1z M31.3,29.4
		c-0.9,0-1.7-0.8-1.7-1.7v-5c0-0.9,0.8-1.7,1.7-1.7h10c0.9,0,1.7,0.8,1.7,1.7v5c0,0.9-0.8,1.7-1.7,1.7H31.3z M43.9,35.1h-2.5V34h2.5
		V35.1z M45.1,12.7H27.4V8.9h17.7V12.7z"/>
</g>
</svg>
