<?xml version="1.0" encoding="utf-8"?>
<!-- Generator: Adobe Illustrator 18.0.0, SVG Export Plug-In . SVG Version: 6.00 Build 0)  -->
<!DOCTYPE svg PUBLIC "-//W3C//DTD SVG 1.1//EN" "http://www.w3.org/Graphics/SVG/1.1/DTD/svg11.dtd">
<svg version="1.1" id="Layer_1" xmlns="http://www.w3.org/2000/svg" xmlns:xlink="http://www.w3.org/1999/xlink" x="0px" y="0px"
	 viewBox="0 0 48 48" enable-background="new 0 0 48 48" xml:space="preserve">
<g>
	<path fill="#06728D" d="M46.1,12.9h-14c-0.8,0-1.4,0.7-1.4,1.6v31.4c0,0.9,0.6,1.6,1.4,1.6h14c0.8,0,1.4-0.7,1.4-1.6V14.5
		C47.5,13.6,46.9,12.9,46.1,12.9z M39.7,45.2c0,0.4-0.2,0.8-0.5,0.8c-0.3,0-0.5-0.4-0.5-0.8v-7.4h1V45.2z M39.7,35.9h-1V34
		c0-0.4,0.2-0.8,0.5-0.8c0.3,0,0.5,0.4,0.5,0.8V35.9z M45.7,20.2H32.6v-3.7h13.1V20.2z"/>
	<path fill="#0DB89A" d="M28.1,37.3h-0.8l-1.7-4.6h2.5v-5H2.3V4.1c0-0.9,0.7-1.6,1.5-1.6h32.9c0.7,0,1.3,0.6,1.4,1.4v7.5H40V3.9V3.4
		V2.1c0-0.9-0.7-1.6-1.5-1.6H2c-0.8,0-1.5,0.7-1.5,1.6v28.9c0,0.9,0.7,1.6,1.5,1.6h12.9l-1.7,4.6h-2.3v2.3h17.4
		c-0.2-0.5-0.2-1-0.2-1.5V37.3z M20.2,31.1c-0.5,0-0.9-0.5-0.9-1c0-0.6,0.4-1,0.9-1c0.5,0,0.9,0.5,0.9,1
		C21.2,30.6,20.8,31.1,20.2,31.1z"/>
</g>
</svg>
