<?xml version="1.0" encoding="utf-8"?>
<!-- Generator: Adobe Illustrator 18.0.0, SVG Export Plug-In . SVG Version: 6.00 Build 0)  -->
<!DOCTYPE svg PUBLIC "-//W3C//DTD SVG 1.1//EN" "http://www.w3.org/Graphics/SVG/1.1/DTD/svg11.dtd">
<svg version="1.1" id="Layer_1" xmlns="http://www.w3.org/2000/svg" xmlns:xlink="http://www.w3.org/1999/xlink" x="0px" y="0px"
	 viewBox="0 0 48 48" enable-background="new 0 0 48 48" xml:space="preserve">
<g>
	<path fill="#E77528" d="M33.3,0.5H14.7c-2.3,0-4.1,1.9-4.1,4.1v38.7c0,2.3,1.9,4.1,4.1,4.1h18.6c2.3,0,4.1-1.9,4.1-4.1V4.6
		C37.4,2.4,35.6,0.5,33.3,0.5z M24,44.7c-4.2,0-7.7-3.4-7.7-7.7c0-4.2,3.4-7.7,7.7-7.7c4.2,0,7.7,3.4,7.7,7.7
		C31.7,41.3,28.2,44.7,24,44.7z M33.3,27.1H14.7V4.7h18.6V27.1z"/>
	<circle fill="#F04B36" cx="24" cy="37" r="4.4"/>
</g>
</svg>
