<?xml version="1.0" encoding="utf-8"?>
<!-- Generator: Adobe Illustrator 18.0.0, SVG Export Plug-In . SVG Version: 6.00 Build 0)  -->
<!DOCTYPE svg PUBLIC "-//W3C//DTD SVG 1.1//EN" "http://www.w3.org/Graphics/SVG/1.1/DTD/svg11.dtd">
<svg version="1.1" id="Layer_1" xmlns="http://www.w3.org/2000/svg" xmlns:xlink="http://www.w3.org/1999/xlink" x="0px" y="0px"
	 viewBox="0 0 48 48" enable-background="new 0 0 48 48" xml:space="preserve">
<g>
	<polygon fill="#4DA0D8" points="38.9,2.4 30.4,10.3 37.5,17.9 46,10.3 	"/>
	<path fill="#FFFFFF" d="M39,10.9l-2,1.8l1.7,1.8l2-1.8L39,10.9z M37.5,12.8l1.5-1.4l1.3,1.4l-1.5,1.4L37.5,12.8z"/>
	<path fill="#FFFFFF" d="M36.1,7.8l-2,1.8l1.7,1.8l2-1.8L36.1,7.8z M34.6,9.7l1.5-1.4l1.3,1.4L35.9,11L34.6,9.7z"/>
	<path fill="#F04B36" d="M39.3,18.2l8.2-7.7l-8.7-9.2L30.6,9l-1.3-1.4c-0.6-0.6-1.6-0.7-2.3-0.1L1,32c-0.6,0.6-0.7,1.6-0.1,2.3
		l11.4,12c0.6,0.6,1.6,0.7,2.3,0.1l26-24.5c0.6-0.6,0.7-1.6,0.1-2.3L39.3,18.2z M31.7,10.1l7-6.6l6.5,6.9l-7,6.6L31.7,10.1z"/>
</g>
</svg>
