<?xml version="1.0" encoding="utf-8"?>
<!-- Generator: Adobe Illustrator 18.0.0, SVG Export Plug-In . SVG Version: 6.00 Build 0)  -->
<!DOCTYPE svg PUBLIC "-//W3C//DTD SVG 1.1//EN" "http://www.w3.org/Graphics/SVG/1.1/DTD/svg11.dtd">
<svg version="1.1" id="Layer_1" xmlns="http://www.w3.org/2000/svg" xmlns:xlink="http://www.w3.org/1999/xlink" x="0px" y="0px"
	 viewBox="0 0 48 48" enable-background="new 0 0 48 48" xml:space="preserve">
<g>
	<path fill="#06728D" d="M35.4,1h-1.8V0.5h-3.7V1H12.6c-1.1,0-1.9,0.8-1.9,1.7v43.1c0,1,0.9,1.7,1.9,1.7h22.7c1.1,0,1.9-0.8,1.9-1.7
		V2.7C37.3,1.7,36.4,1,35.4,1z M20.3,3h7.4v0.9h-7.4V3z M24,45.8c-1.1,0-1.9-0.9-1.9-1.9c0-1.1,0.9-1.9,1.9-1.9
		c1.1,0,1.9,0.9,1.9,1.9C25.9,45,25.1,45.8,24,45.8z M33.9,40.4H14.1V5.8h19.9V40.4z"/>
</g>
</svg>
