<?xml version="1.0" encoding="utf-8"?>
<!-- Generator: Adobe Illustrator 18.0.0, SVG Export Plug-In . SVG Version: 6.00 Build 0)  -->
<!DOCTYPE svg PUBLIC "-//W3C//DTD SVG 1.1//EN" "http://www.w3.org/Graphics/SVG/1.1/DTD/svg11.dtd">
<svg version="1.1" id="Layer_1" xmlns="http://www.w3.org/2000/svg" xmlns:xlink="http://www.w3.org/1999/xlink" x="0px" y="0px"
	 viewBox="0 0 48 48" enable-background="new 0 0 48 48" xml:space="preserve">
<g>
	<path fill="#0DB89A" d="M39.9,1h-2.7V0.5h-3.7V1H8.1C6.8,1,5.7,2.1,5.7,3.4v41.7c0,1.3,1.1,2.4,2.4,2.4h31.8c1.3,0,2.4-1.1,2.4-2.4
		V3.4C42.3,2.1,41.2,1,39.9,1z M21.8,2.7h4.4c0.3,0,0.5,0.2,0.5,0.5c0,0.3-0.2,0.5-0.5,0.5h-4.4c-0.3,0-0.5-0.2-0.5-0.5
		C21.3,2.9,21.5,2.7,21.8,2.7z M9.5,2.5c0.3,0,0.6,0.3,0.6,0.6c0,0.3-0.3,0.6-0.6,0.6S8.9,3.5,8.9,3.1C8.9,2.8,9.2,2.5,9.5,2.5z
		 M24,46.4c-0.9,0-1.7-0.7-1.7-1.7c0-0.9,0.7-1.7,1.7-1.7s1.7,0.7,1.7,1.7C25.7,45.6,24.9,46.4,24,46.4z M39.4,41.8H8.6V5.2h30.9
		V41.8z"/>
</g>
</svg>
