<?xml version="1.0" encoding="utf-8"?>
<!-- Generator: Adobe Illustrator 18.0.0, SVG Export Plug-In . SVG Version: 6.00 Build 0)  -->
<!DOCTYPE svg PUBLIC "-//W3C//DTD SVG 1.1//EN" "http://www.w3.org/Graphics/SVG/1.1/DTD/svg11.dtd">
<svg version="1.1" id="Layer_1" xmlns="http://www.w3.org/2000/svg" xmlns:xlink="http://www.w3.org/1999/xlink" x="0px" y="0px"
	 viewBox="0 0 48 48" enable-background="new 0 0 48 48" xml:space="preserve">
<g>
	<path fill="#06728D" d="M12.8,41H27c1.4,0,2.5-1.2,2.5-2.7V8.5c0-1.5-1.1-2.7-2.5-2.7H16.8v-4c0-0.7-0.6-1.4-1.3-1.4h-0.1
		c-0.7,0-1.3,0.6-1.3,1.4v4h-1.4c-1.4,0-2.5,1.2-2.5,2.7v29.8C10.3,39.8,11.4,41,12.8,41z M21.7,38.2h-3.5V35h3.5V38.2z M21.7,32.7
		h-3.5v-3.1h3.5V32.7z M21.7,27.3h-3.5v-3.1h3.5V27.3z M26.9,38.2h-3.5V35h3.5V38.2z M26.9,32.7h-3.5v-3.1h3.5V32.7z M26.9,27.3
		h-3.5v-3.1h3.5V27.3z M13.1,9.3h13.7v11.4H13.1V9.3z M13.1,24.2h3.5v3.1h-3.5V24.2z M13.1,29.6h3.5v3.1h-3.5V29.6z M13.1,35h3.5
		v3.1h-3.5V35z"/>
	<path fill="#0DB89A" d="M47.4,43.6l-1.8-7.1c-0.5-2.2-2.7-3.9-4.8-3.9H32v5.7c0,3-2.3,5.4-5.1,5.4H12.8c-2.8,0-5.1-2.4-5.1-5.4
		v-5.7H7.2c-2.1,0-4.2,1.8-4.8,3.9l-1.8,7.1c-0.5,2.2,0.7,3.9,2.8,3.9h41.2C46.7,47.5,47.9,45.7,47.4,43.6z M38.5,42.4
		c-1.3,0-2.4-1.1-2.4-2.5c0-1.4,1.1-2.5,2.4-2.5c1.3,0,2.4,1.1,2.4,2.5C40.8,41.3,39.8,42.4,38.5,42.4z"/>
</g>
</svg>
