<?xml version="1.0" encoding="utf-8"?>
<!-- Generator: Adobe Illustrator 18.0.0, SVG Export Plug-In . SVG Version: 6.00 Build 0)  -->
<!DOCTYPE svg PUBLIC "-//W3C//DTD SVG 1.1//EN" "http://www.w3.org/Graphics/SVG/1.1/DTD/svg11.dtd">
<svg version="1.1" id="Layer_1" xmlns="http://www.w3.org/2000/svg" xmlns:xlink="http://www.w3.org/1999/xlink" x="0px" y="0px"
	 viewBox="0 0 48 48" enable-background="new 0 0 48 48" xml:space="preserve">
<g>
	<ellipse fill="none" cx="28.2" cy="19.2" rx="2.1" ry="2.1"/>
	<path fill="#E77528" d="M7.4,23.2C-3.6,31.1,1.8,36,1.8,36c4.5,3.7,9-2.4,9-2.4c2.8-10.9,14.3-9.8,14.3-9.8l0.9-9.4
		C26,14.3,18.3,15.3,7.4,23.2z"/>
	<ellipse fill="none" cx="28.2" cy="19.2" rx="2.1" ry="2.1"/>
	<path fill="#E77528" d="M15.2,37.5c-5.2,3.5-3.8,6.2-2.3,9c1.5,2.9,8.4-1,12.1-4.9c3.7-3.9,9.7-19.5,9.7-19.5l-9.5,1.6
		C24.6,33.9,15.2,37.5,15.2,37.5z"/>
	<path fill="#4DA0D8" d="M47.5,2.9l-12.1,12c1.3,2.8-1.5,6.1-1.5,6.1c-1.8,0.9-1.6-0.8-1.6-0.8c2.4-1.3,0.8-7.1,0.8-7.1L45.2,0.5
		L34.8,5.7L26,14.3l-0.9,9.4l9.5-1.6l8.6-8.8L47.5,2.9z M28.2,21.3c-1.2,0-2.1-0.9-2.1-2.1c0-1.2,1-2.1,2.1-2.1
		c1.2,0,2.1,0.9,2.1,2.1C30.4,20.4,29.4,21.3,28.2,21.3z"/>
</g>
</svg>
