<?xml version="1.0" encoding="utf-8"?>
<!-- Generator: Adobe Illustrator 18.0.0, SVG Export Plug-In . SVG Version: 6.00 Build 0)  -->
<!DOCTYPE svg PUBLIC "-//W3C//DTD SVG 1.1//EN" "http://www.w3.org/Graphics/SVG/1.1/DTD/svg11.dtd">
<svg version="1.1" id="Layer_1" xmlns="http://www.w3.org/2000/svg" xmlns:xlink="http://www.w3.org/1999/xlink" x="0px" y="0px"
	 viewBox="0 0 48 48" enable-background="new 0 0 48 48" xml:space="preserve">
<g>
	<path fill="none" d="M31.9,13.3c-0.8,0.9-0.8,2.2,0,3.1c0.9,0.9,2.2,0.8,3.1,0c0.8-0.9,0.8-2.2,0-3.1
		C34.1,12.4,32.8,12.4,31.9,13.3z"/>
	<path fill="#F7A93B" d="M3.8,26.4c-7.2,8.2-0.2,10.2-0.2,10.2c5.5,1.3,8.6-5.7,8.6-5.7c3.1-8.8,14.1-8.9,14.1-8.9l-1-9.9
		C13.4,15.9,3.8,26.4,3.8,26.4z"/>
	<path fill="none" d="M31.9,13.3c-0.8,0.9-0.8,2.2,0,3.1c0.9,0.9,2.2,0.8,3.1,0c0.8-0.9,0.8-2.2,0-3.1
		C34.1,12.4,32.8,12.4,31.9,13.3z"/>
	<path fill="#F7A93B" d="M17.6,36.7c-7.1,3-5.7,7.8-5.7,7.8c3.1,5.8,8.5,1.5,8.5,1.5C31,39.5,34.6,24.7,34.6,24.7c0-1,0.4-1.7,1-2.3
		l-9.5-0.4C26.6,31.5,17.6,36.7,17.6,36.7z"/>
	<path fill="#06728D" d="M47.5,9.1L39,10.8c1.1,2.3-0.8,3.8-0.8,3.8c-0.3-3.1-2.1-4.5-2.1-4.5l2.6-9.5c-8.8-1.3-13.4,11.6-13.4,11.6
		l1,9.9l9.5,0.4c1.2-1.2,3-1.6,3-1.6C46.4,19.6,47.5,9.1,47.5,9.1z M35,16.4c-0.8,0.9-2.2,0.9-3.1,0c-0.9-0.8-0.9-2.2,0-3.1
		c0.8-0.9,2.2-0.9,3.1,0C35.8,14.1,35.9,15.5,35,16.4z"/>
</g>
</svg>
