<?xml version="1.0" encoding="utf-8"?>
<!-- Generator: Adobe Illustrator 18.0.0, SVG Export Plug-In . SVG Version: 6.00 Build 0)  -->
<!DOCTYPE svg PUBLIC "-//W3C//DTD SVG 1.1//EN" "http://www.w3.org/Graphics/SVG/1.1/DTD/svg11.dtd">
<svg version="1.1" id="Layer_1" xmlns="http://www.w3.org/2000/svg" xmlns:xlink="http://www.w3.org/1999/xlink" x="0px" y="0px"
	 viewBox="0 0 48 48" enable-background="new 0 0 48 48" xml:space="preserve">
<g>
	<path fill="#06728D" d="M29.2,20.7c-0.6-0.3-1.3-0.1-1.7,0.5c-0.3,0.6-0.1,1.3,0.5,1.7c0,0,2.7,1.6,3.4,4.8
		c0.6,2.9-0.5,6.3-3.3,10.1c-0.4,0.5-0.3,1.3,0.3,1.7c0.2,0.2,0.5,0.2,0.7,0.2c0.4,0,0.7-0.2,1-0.5c3.2-4.4,4.4-8.4,3.7-12.1
		C32.8,22.8,29.3,20.8,29.2,20.7z"/>
	<path fill="#4DA0D8" d="M34.6,13.3c-1.6-2.5-4.3-8-0.1-12.8H21.9c0,0-4.3,3.7-2.3,10.4C23.6,11.1,30.2,11.6,34.6,13.3z"/>
	<path fill="#0DB89A" d="M35.6,14.6L35.6,14.6L35.6,14.6c-4-2-11.3-2.6-15.7-2.8c0,0,0,0,0,0.1c-0.1,0-0.1,0-0.2,0
		c-7.5,0-13.6,8-13.6,17.8c0,9.9,6.1,17.8,13.6,17.8c0.1,0,0.2,0,0.3,0v0h7.9v0c0.1,0,0.2,0,0.3,0c7.5,0,13.6-8,13.6-17.8
		C41.9,23.3,39.4,17.8,35.6,14.6z M28.7,41.1c-4.7,0-8.5-5.1-8.5-11.4c0-6.3,3.8-11.4,8.5-11.4c4.7,0,8.5,5.1,8.5,11.4
		C37.3,36,33.4,41.1,28.7,41.1z"/>
</g>
</svg>
