<?xml version="1.0" encoding="utf-8"?>
<!-- Generator: Adobe Illustrator 18.0.0, SVG Export Plug-In . SVG Version: 6.00 Build 0)  -->
<!DOCTYPE svg PUBLIC "-//W3C//DTD SVG 1.1//EN" "http://www.w3.org/Graphics/SVG/1.1/DTD/svg11.dtd">
<svg version="1.1" id="Layer_1" xmlns="http://www.w3.org/2000/svg" xmlns:xlink="http://www.w3.org/1999/xlink" x="0px" y="0px"
	 viewBox="0 0 48 48" enable-background="new 0 0 48 48" xml:space="preserve">
<g>
	<path fill="none" d="M22.2,7c-2.8,1.7-4.6,4-4.3,5.5l11.2-6.6C28,4.9,25,5.3,22.2,7z"/>
	<ellipse transform="matrix(0.4213 -0.9069 0.9069 0.4213 -4.6975 23.4259)" fill="none" cx="16" cy="15.4" rx="1.8" ry="0.9"/>
	<path fill="#F7A93B" d="M33.4,2.1C10.9,3,12.5,21.3,12.5,21.3l0,0c-0.2,1.3-2.7,13.8-4.5,16C6,39.6,0.5,40,0.5,40l11.7,6.9
		c-0.2-2.4-2.7-5.1-0.8-7.9c1.8-2.7,9.5-10.3,10.4-11.1l0,0c0,0,0,0,0-0.1c0,0,0,0,0,0l0,0C26.6,16,37.1,5.9,37.1,5.9l-0.3-0.3
		l-2.9-3L33.4,2.1z M16.8,15.8c-0.4,0.9-1.1,1.5-1.5,1.3c-0.4-0.2-0.5-1.1,0-2c0.4-0.9,1.1-1.5,1.5-1.3C17.2,14,17.2,14.9,16.8,15.8
		z M17.9,12.4c-0.3-1.5,1.5-3.8,4.3-5.5C25,5.3,28,4.9,29.1,5.9L17.9,12.4z"/>
	<path fill="#E77528" d="M46.2,3.6c-0.9-1.2-3-3.2-7.4-2.3c-0.2,0-0.4,0.1-0.7,0.1c-1.3,0.2-2.9,0.5-4.2,1.2l2.9,3
		c0.8-0.2,1.6-0.3,2-0.4c0.3-0.1,0.6-0.1,0.8-0.1c1.7-0.3,2.8-0.1,3.4,0.8c0.7,1,0.6,2.5,0.3,3.1c-0.3,0.5-1.6,2.3-2.9,4.1
		c-4.7,6.4-6.9,9.5-7.3,10.8c-0.7,2.3-0.6,4.7,0.3,6.4l3.4-1.8c-0.4-0.8-0.4-2.2-0.1-3.4c0.4-1.1,4.5-6.7,6.7-9.7
		c1.8-2.4,2.8-3.8,3.2-4.4C47.7,9.1,47.9,6,46.2,3.6z"/>
</g>
</svg>
