<?xml version="1.0" encoding="utf-8"?>
<!-- Generator: Adobe Illustrator 18.0.0, SVG Export Plug-In . SVG Version: 6.00 Build 0)  -->
<!DOCTYPE svg PUBLIC "-//W3C//DTD SVG 1.1//EN" "http://www.w3.org/Graphics/SVG/1.1/DTD/svg11.dtd">
<svg version="1.1" id="Layer_1" xmlns="http://www.w3.org/2000/svg" xmlns:xlink="http://www.w3.org/1999/xlink" x="0px" y="0px"
	 viewBox="0 0 48 48" enable-background="new 0 0 48 48" xml:space="preserve">
<g>
	<rect x="30.5" y="31.4" fill="#E77528" width="11.7" height="0.5"/>
	<path fill="#0DB89A" d="M45.2,0.5H2.8c-1.2,0-2.3,1-2.3,2.3v42.4c0,1.3,1,2.3,2.3,2.3h42.5c1.2,0,2.3-1,2.3-2.3V2.8
		C47.5,1.5,46.5,0.5,45.2,0.5z M7.2,26c0,0.3-0.2,0.5-0.5,0.5H3.8c-0.2,0-0.5-0.2-0.5-0.5v-1.6c0-0.3,0.2-0.5,0.5-0.5h2.9
		c0.2,0,0.5,0.2,0.5,0.5V26z M7.2,22.2c0,0.3-0.2,0.5-0.5,0.5H3.8c-0.2,0-0.5-0.2-0.5-0.5v-1.6c0-0.3,0.2-0.5,0.5-0.5h2.9
		c0.2,0,0.5,0.2,0.5,0.5V22.2z M7.2,18.4c0,0.3-0.2,0.5-0.5,0.5H3.8c-0.2,0-0.5-0.2-0.5-0.5v-1.6c0-0.3,0.2-0.5,0.5-0.5h2.9
		c0.2,0,0.5,0.2,0.5,0.5V18.4z M7.2,14.6c0,0.3-0.2,0.5-0.5,0.5H3.8c-0.2,0-0.5-0.2-0.5-0.5V13c0-0.3,0.2-0.5,0.5-0.5h2.9
		c0.2,0,0.5,0.2,0.5,0.5V14.6z M8,7.5c0-1.3,1-2.3,2.3-2.3h27.5c1.2,0,2.3,1,2.3,2.3v19.2c0,1.3-1,2.3-2.3,2.3H10.3
		c-1.2,0-2.3-1-2.3-2.3V7.5z M27,37c0.1,0.4-0.2,0.7-0.6,0.7H15.2c-0.4,0-0.6-0.3-0.5-0.7l1.2-4.9c0.1-0.4,0.5-0.7,0.8-0.7h8.5
		c0.4,0,0.7,0.3,0.8,0.7L27,37z M39.5,43.9H8.5v-2.3h31.1V43.9z M42.9,32.8h-13V31l1.1-0.9h10.7l1.1,0.9V32.8z M44.7,26
		c0,0.3-0.2,0.5-0.5,0.5h-2.9c-0.2,0-0.5-0.2-0.5-0.5v-1.6c0-0.3,0.2-0.5,0.5-0.5h2.9c0.2,0,0.5,0.2,0.5,0.5V26z M44.7,22.2
		c0,0.3-0.2,0.5-0.5,0.5h-2.9c-0.2,0-0.5-0.2-0.5-0.5v-1.6c0-0.3,0.2-0.5,0.5-0.5h2.9c0.2,0,0.5,0.2,0.5,0.5V22.2z M44.7,18.4
		c0,0.3-0.2,0.5-0.5,0.5h-2.9c-0.2,0-0.5-0.2-0.5-0.5v-1.6c0-0.3,0.2-0.5,0.5-0.5h2.9c0.2,0,0.5,0.2,0.5,0.5V18.4z M44.7,14.6
		c0,0.3-0.2,0.5-0.5,0.5h-2.9c-0.2,0-0.5-0.2-0.5-0.5V13c0-0.3,0.2-0.5,0.5-0.5h2.9c0.2,0,0.5,0.2,0.5,0.5V14.6z"/>
	<path fill="#4DA0D8" d="M36.2,27.1H11.8c-1,0-1.8-0.8-1.8-1.8V8.5c0-1,0.8-1.8,1.8-1.8h24.4c1,0,1.8,0.8,1.8,1.8v16.8
		C38,26.3,37.2,27.1,36.2,27.1z"/>
</g>
</svg>
