<?xml version="1.0" encoding="utf-8"?>
<!-- Generator: Adobe Illustrator 18.0.0, SVG Export Plug-In . SVG Version: 6.00 Build 0)  -->
<!DOCTYPE svg PUBLIC "-//W3C//DTD SVG 1.1//EN" "http://www.w3.org/Graphics/SVG/1.1/DTD/svg11.dtd">
<svg version="1.1" id="Layer_1" xmlns="http://www.w3.org/2000/svg" xmlns:xlink="http://www.w3.org/1999/xlink" x="0px" y="0px"
	 viewBox="0 0 48 48" enable-background="new 0 0 48 48" xml:space="preserve">
<g>
	<path fill="#4DA0D8" d="M11.8,3.5v40.9c0,1.7,1.4,3,3,3v-47C13.2,0.5,11.8,1.9,11.8,3.5z"/>
	<path fill="#F7A93B" d="M33.1,0.5H15.6v47h17.6c1.7,0,3-1.4,3-3V3.5C36.2,1.9,34.8,0.5,33.1,0.5z M19.4,43.6
		c-0.9,0-1.7-0.8-1.7-1.7c0-0.9,0.8-1.7,1.7-1.7c0.9,0,1.7,0.8,1.7,1.7C21.1,42.8,20.3,43.6,19.4,43.6z M19.4,37.1
		c-0.9,0-1.7-0.8-1.7-1.7c0-0.9,0.8-1.7,1.7-1.7c0.9,0,1.7,0.8,1.7,1.7C21.1,36.3,20.3,37.1,19.4,37.1z M19.4,30.5
		c-0.9,0-1.7-0.8-1.7-1.7c0-0.9,0.8-1.7,1.7-1.7c0.9,0,1.7,0.8,1.7,1.7C21.1,29.8,20.3,30.5,19.4,30.5z M25.5,43.6
		c-0.9,0-1.7-0.8-1.7-1.7c0-0.9,0.8-1.7,1.7-1.7c0.9,0,1.7,0.8,1.7,1.7C27.2,42.8,26.4,43.6,25.5,43.6z M25.5,37.1
		c-0.9,0-1.7-0.8-1.7-1.7c0-0.9,0.8-1.7,1.7-1.7c0.9,0,1.7,0.8,1.7,1.7C27.2,36.3,26.4,37.1,25.5,37.1z M25.5,30.5
		c-0.9,0-1.7-0.8-1.7-1.7c0-0.9,0.8-1.7,1.7-1.7c0.9,0,1.7,0.8,1.7,1.7C27.2,29.8,26.4,30.5,25.5,30.5z M31.6,43.6
		c-0.9,0-1.7-0.8-1.7-1.7c0-0.9,0.8-1.7,1.7-1.7c0.9,0,1.7,0.8,1.7,1.7C33.3,42.8,32.5,43.6,31.6,43.6z M31.6,37.1
		c-0.9,0-1.7-0.8-1.7-1.7c0-0.9,0.8-1.7,1.7-1.7c0.9,0,1.7,0.8,1.7,1.7C33.3,36.3,32.5,37.1,31.6,37.1z M31.6,30.5
		c-0.9,0-1.7-0.8-1.7-1.7c0-0.9,0.8-1.7,1.7-1.7c0.9,0,1.7,0.8,1.7,1.7C33.3,29.8,32.5,30.5,31.6,30.5z M17.2,23l1-14.1h14.6l1,14.1
		H17.2z M33.8,6H17.2V4.3h16.6V6z"/>
</g>
</svg>
