<?xml version="1.0" encoding="utf-8"?>
<!-- Generator: Adobe Illustrator 18.0.0, SVG Export Plug-In . SVG Version: 6.00 Build 0)  -->
<!DOCTYPE svg PUBLIC "-//W3C//DTD SVG 1.1//EN" "http://www.w3.org/Graphics/SVG/1.1/DTD/svg11.dtd">
<svg version="1.1" id="Layer_1" xmlns="http://www.w3.org/2000/svg" xmlns:xlink="http://www.w3.org/1999/xlink" x="0px" y="0px"
	 viewBox="0 0 48 48" enable-background="new 0 0 48 48" xml:space="preserve">
<g>
	<path fill="#E77528" d="M42.3,25.8l-0.7,2.1c1.1,0.5,2.4,1.6,2.9,2.6c1.8,3.2,0.7,7.3-0.4,10.5c-1.8,5.1-6.6,4.6-11.6,4.1
		c-1.3-0.1-2.7-0.3-4-0.3c-0.6,0-1.1,0.5-1.1,1.1c0,0.5,0.3,0.9,0.7,1.1c0.1,0,0.2,0.1,0.3,0.1c1.2,0,2.4,0.2,3.8,0.3
		c5.1,0.5,11.5,1.2,13.9-5.5c1.2-3.4,2.5-8.3,0.3-12.3C45.7,28.1,44,26.5,42.3,25.8z"/>
	<path fill="#06728D" d="M16.6,30.9l0.5,0.2l-2.3,6.6c-0.4,1.1-0.1,2.3,0.6,2.6c0.8,0.3,1.7-0.5,2.1-1.6l2.3-6.6l0.5,0.2l0.7-2
		l-3.7-1.3L16.6,30.9z"/>
	<path fill="#4DA0D8" d="M38.7,22.8l2.5-7.1c0.7-1.9-0.3-4-2.3-4.7L9.8,0.7C7.8,0,5.7,1,5.1,3L0.4,16.2l3.1,1.1l-1.4,3.9
		c-0.4,1.1,0.2,2.4,1.4,2.8l0.9,0.3l3.7,1.3l9.2,3.2l3.7,1.3l1.2,0.4c1.1,0.4,2.4-0.2,2.8-1.4l1.4-3.9l10.1,3.5l0.5-1.5l4.2,1.5
		l0.4-1l0.7-2.1l0.5-1.5L38.7,22.8z"/>
	<path fill="#06728D" d="M3.7,26.3l0.5,0.2l-2.3,6.6c-0.4,1.1-0.1,2.3,0.6,2.6c0.8,0.3,1.7-0.5,2.1-1.6L7,27.5l0.5,0.2l0.7-2
		l-3.7-1.3L3.7,26.3z"/>
</g>
</svg>
