<?xml version="1.0" encoding="utf-8"?>
<!-- Generator: Adobe Illustrator 18.0.0, SVG Export Plug-In . SVG Version: 6.00 Build 0)  -->
<!DOCTYPE svg PUBLIC "-//W3C//DTD SVG 1.1//EN" "http://www.w3.org/Graphics/SVG/1.1/DTD/svg11.dtd">
<svg version="1.1" id="Layer_1" xmlns="http://www.w3.org/2000/svg" xmlns:xlink="http://www.w3.org/1999/xlink" x="0px" y="0px"
	 viewBox="0 0 48 48" enable-background="new 0 0 48 48" xml:space="preserve">
<g>
	<path fill="#4DA0D8" d="M11.4,5.9H9.6c-3,0-5.5,1.8-5.5,4v33.6c0,2.2,2.5,4,5.5,4h1.8c3,0,5.5-1.8,5.5-4V9.9
		C16.9,7.7,14.5,5.9,11.4,5.9z"/>
	<path fill="#0DB89A" d="M2.9,10c-1.4,0.6-2.3,2-2.3,3.6v27.3c0,1.6,1,3.1,2.4,3.7c0-0.3-0.1-0.7-0.1-1V10z"/>
	<path fill="#0DB89A" d="M43.5,9.6h-1.7l1-9.1H19.7l1,9.1h-2.6c0,0.1,0,0.2,0,0.3v33.6c0,0.5-0.1,0.9-0.1,1.3h25.4c2.2,0,4-1.8,4-4
		V13.6C47.4,11.4,45.6,9.6,43.5,9.6z M21.6,2.3h19.2L40,9.6l0,0l-0.4,3.5l0,0l-0.3,3h-16l-0.3-3l0,0l-0.4-3.5l0,0L21.6,2.3z
		 M22.8,39c-1.2,0-2.2-1-2.2-2.2c0-1.2,1-2.2,2.2-2.2c1.2,0,2.2,1,2.2,2.2C25,38,24,39,22.8,39z M22.8,29.5c-1.2,0-2.2-1-2.2-2.2
		c0-1.2,1-2.2,2.2-2.2c1.2,0,2.2,1,2.2,2.2C25,28.5,24,29.5,22.8,29.5z M31.1,39c-1.2,0-2.2-1-2.2-2.2c0-1.2,1-2.2,2.2-2.2
		c1.2,0,2.2,1,2.2,2.2C33.4,38,32.3,39,31.1,39z M31.1,29.5c-1.2,0-2.2-1-2.2-2.2c0-1.2,1-2.2,2.2-2.2c1.2,0,2.2,1,2.2,2.2
		C33.4,28.5,32.3,29.5,31.1,29.5z M39.4,39c-1.2,0-2.2-1-2.2-2.2c0-1.2,1-2.2,2.2-2.2c1.2,0,2.2,1,2.2,2.2C41.7,38,40.7,39,39.4,39z
		 M39.4,29.5c-1.2,0-2.2-1-2.2-2.2c0-1.2,1-2.2,2.2-2.2c1.2,0,2.2,1,2.2,2.2C41.7,28.5,40.7,29.5,39.4,29.5z M42.2,21.1H20v-8h1.1
		l0.5,4.7h19.2l0.5-4.7h0.9V21.1z"/>
	<rect x="24.7" y="4.9" fill="#D14D37" width="13.1" height="1"/>
	<rect x="24.7" y="8.7" fill="#D14D37" width="13.1" height="1"/>
	<rect x="24.7" y="12.4" fill="#D14D37" width="13.1" height="1"/>
</g>
</svg>
