<?xml version="1.0" encoding="utf-8"?>
<!-- Generator: Adobe Illustrator 18.0.0, SVG Export Plug-In . SVG Version: 6.00 Build 0)  -->
<!DOCTYPE svg PUBLIC "-//W3C//DTD SVG 1.1//EN" "http://www.w3.org/Graphics/SVG/1.1/DTD/svg11.dtd">
<svg version="1.1" id="Layer_1" xmlns="http://www.w3.org/2000/svg" xmlns:xlink="http://www.w3.org/1999/xlink" x="0px" y="0px"
	 viewBox="0 0 48 48" enable-background="new 0 0 48 48" xml:space="preserve">
<g>
	<path fill="#E8B944" d="M5.1,43.5h8.9c2.7-1.9,4.5-5.5,4.6-9.7H0.5C0.6,38,2.5,41.6,5.1,43.5z"/>
	<rect x="0.5" y="45.8" fill="#0DB89A" width="47" height="1.7"/>
	<rect x="33.9" y="33.4" fill="none" width="2.3" height="5"/>
	<path fill="#E77528" d="M47.5,36.9L45.1,10c-0.2-2.2-1.8-4-3.5-4H28.3c-1.7,0-3.3,1.8-3.5,4l-1,10.9h-2.2h-4.7h-2.1v-2.3H13v11.5
		h1.8v-2.3h8.3l-0.8,9c-0.2,2.2,1.1,4,2.8,4h0.7v2h2.6v-2h12.7v2h2.6v-2h0.9C46.4,40.9,47.7,39.1,47.5,36.9z M36.2,38.4h-2.3v-5h2.3
		V38.4z"/>
	<polygon fill="#06728D" points="14.9,9.8 16.9,9.8 16.9,20.9 21.6,20.9 21.6,9.8 23.6,9.8 23.6,3.3 14.9,3.3 	"/>
	<path fill="#4DA0D8" d="M9.4,0.5c0.4,1.6,1.6,2.8,3,2.8h2.5h8.7h15.9c1.4,0,2.6-1.2,3-2.8H9.4z"/>
</g>
</svg>
