<?xml version="1.0" encoding="utf-8"?>
<!-- Generator: Adobe Illustrator 18.0.0, SVG Export Plug-In . SVG Version: 6.00 Build 0)  -->
<!DOCTYPE svg PUBLIC "-//W3C//DTD SVG 1.1//EN" "http://www.w3.org/Graphics/SVG/1.1/DTD/svg11.dtd">
<svg version="1.1" id="Layer_1" xmlns="http://www.w3.org/2000/svg" xmlns:xlink="http://www.w3.org/1999/xlink" x="0px" y="0px"
	 viewBox="0 0 48 48" enable-background="new 0 0 48 48" xml:space="preserve">
<g>
	<polygon fill="#4DA0D8" points="19.9,31.8 21,33 28.1,26.5 27,25.3 	"/>
	<path fill="none" d="M17.8,22.8c0.3-0.3,0.3-0.7,0-1c-0.3-0.3-0.7-0.3-0.9,0c-0.3,0.3-0.3,0.7,0,1C17.1,23.1,17.5,23.1,17.8,22.8z"
		/>
	<circle fill="none" cx="24" cy="19.6" r="0.7"/>
	<ellipse fill="none" cx="24" cy="29" rx="6.2" ry="6.3"/>
	<circle fill="none" cx="24" cy="38.6" r="0.7"/>
	<path fill="none" d="M16.9,35.3c-0.3,0.3-0.3,0.7,0,1c0.3,0.3,0.7,0.3,0.9,0c0.3-0.3,0.3-0.7,0-1C17.5,35.1,17.1,35.1,16.9,35.3z"
		/>
	<ellipse fill="none" cx="14.6" cy="29.1" rx="0.7" ry="0.7"/>
	<path fill="none" d="M30.2,21.9c-0.3,0.3-0.3,0.7,0,1c0.3,0.3,0.7,0.3,0.9,0c0.3-0.3,0.3-0.7,0-1C30.9,21.6,30.5,21.6,30.2,21.9z"
		/>
	<path fill="none" d="M30.2,35.3c-0.3,0.3-0.3,0.7,0,1c0.3,0.3,0.7,0.3,0.9,0c0.3-0.3,0.3-0.7,0-1C30.9,35.1,30.5,35.1,30.2,35.3z"
		/>
	<ellipse fill="none" cx="33.4" cy="29.1" rx="0.7" ry="0.7"/>
	<path fill="none" d="M10.2,9.1c1.6,3,3.2,6,4.8,9c1.9-1.5,4.1-2.5,6.3-2.9c0.2-0.8,1.3-1.3,2.6-1.4l-0.2-6.3L24,5.5l0.3,2.1
		l-0.2,6.3c1.3,0,2.3,0.6,2.6,1.3c2.4,0.4,4.7,1.4,6.8,3c1.6-3,3.2-6,4.8-9C29.7,2.6,18.8,2.6,10.2,9.1z"/>
	<path fill="#E77528" d="M9.2,45.4c-1.1,0.9-2.8,1-4.1,1c-0.8,0-1.7-0.7-2.1-1.8c-0.4-0.9-0.8-4.9-0.8-6v-2C2.6,36,2.7,35,2.7,35
		c0.1-0.8,0.2-2,0.2-2.8V20.1c0-0.8-0.2-1.4-0.4-1.4c-0.2,0-0.4-0.6-0.4-1.4v-2.4c0-0.8-0.2-1.4-0.5-1.4c-0.3,0-0.5,0.6-0.5,1.4v2.4
		c0,0.8-0.2,1.4-0.4,1.4c-0.2,0-0.4,0.6-0.4,1.4v12.1c0,0.8,0.1,2,0.2,2.8c0,0,0.2,1,0.5,1.6l0,2c0,0.9,0.4,5.3,0.8,6.5
		c0.6,1.4,1.8,2.4,3.1,2.4c0.1,0,0.1,0,0.2,0c1.4,0,3.3-0.2,4.6-1.3c1.3-1.1,2-3.3,2.1-5.3h-1C10.9,42.6,10.3,44.5,9.2,45.4z"/>
	<ellipse fill="none" cx="24" cy="29" rx="6.2" ry="6.3"/>
	<path fill="none" d="M16.9,35.3c-0.3,0.3-0.3,0.7,0,1c0.3,0.3,0.7,0.3,0.9,0c0.3-0.3,0.3-0.7,0-1C17.5,35.1,17.1,35.1,16.9,35.3z"
		/>
	<circle fill="none" cx="24" cy="38.6" r="0.7"/>
	<path fill="none" d="M17.8,22.8c0.3-0.3,0.3-0.7,0-1c-0.3-0.3-0.7-0.3-0.9,0c-0.3,0.3-0.3,0.7,0,1C17.1,23.1,17.5,23.1,17.8,22.8z"
		/>
	<path fill="none" d="M30.2,35.3c-0.3,0.3-0.3,0.7,0,1c0.3,0.3,0.7,0.3,0.9,0c0.3-0.3,0.3-0.7,0-1C30.9,35.1,30.5,35.1,30.2,35.3z"
		/>
	<circle fill="none" cx="24" cy="19.6" r="0.7"/>
	<ellipse fill="none" cx="14.6" cy="29.1" rx="0.7" ry="0.7"/>
	<ellipse fill="none" cx="33.4" cy="29.1" rx="0.7" ry="0.7"/>
	<path fill="none" d="M30.2,21.9c-0.3,0.3-0.3,0.7,0,1c0.3,0.3,0.7,0.3,0.9,0c0.3-0.3,0.3-0.7,0-1C30.9,21.6,30.5,21.6,30.2,21.9z"
		/>
	<path fill="none" d="M10.2,9.1c1.6,3,3.2,6,4.8,9c1.9-1.5,4.1-2.5,6.3-2.9c0.2-0.8,1.3-1.3,2.6-1.4l-0.2-6.3L24,5.5l0.3,2.1
		l-0.2,6.3c1.3,0,2.3,0.6,2.6,1.3c2.4,0.4,4.7,1.4,6.8,3c1.6-3,3.2-6,4.8-9C29.7,2.6,18.8,2.6,10.2,9.1z"/>
	<path fill="#E77528" d="M47.1,17.6c-0.2,0-0.4-0.6-0.4-1.4v-2.4c0-0.8-0.2-1.4-0.5-1.4c-0.3,0-0.5,0.6-0.5,1.4v2.4
		c0,0.8-0.2,1.4-0.4,1.4c-0.2,0-0.4,0.6-0.4,1.4v12.1c0,0.8,0.1,2,0.2,2.8c0,0,0.2,1,0.5,1.6v2c0,1.1-0.4,5.2-0.8,6
		c-0.4,1-1.3,1.8-2.1,1.8c-1.3,0-3-0.1-4.1-1c-0.8-0.7-1.4-2.1-1.6-3.5h-1.1c0.2,1.7,1,3.3,2,4.3c1.3,1.1,3.2,1.3,4.6,1.3
		c0.1,0,0.2,0,0.2,0c1.2,0,2.5-1,3.1-2.4c0.5-1.1,0.8-5.5,0.8-6.5l0-2c0.3-0.6,0.5-1.6,0.5-1.6c0.1-0.8,0.2-2,0.2-2.8V19
		C47.5,18.3,47.3,17.6,47.1,17.6z"/>
	<path fill="#06728D" d="M38.8,40.9c1,0,1.7-0.8,1.7-1.8V2.3c0-1-0.8-1.8-1.7-1.8H9.2c-1,0-1.7,0.8-1.7,1.8v36.9
		c0,1,0.8,1.8,1.7,1.8h1.7h1h24.1h1.1H38.8z M14.6,29.8c-0.4,0-0.7-0.3-0.7-0.7c0-0.4,0.3-0.7,0.7-0.7c0.4,0,0.7,0.3,0.7,0.7
		C15.2,29.5,14.9,29.8,14.6,29.8z M17.8,36.3c-0.3,0.3-0.7,0.3-0.9,0c-0.3-0.3-0.3-0.7,0-1c0.3-0.3,0.7-0.3,0.9,0
		C18.1,35.6,18.1,36,17.8,36.3z M16.9,21.9c0.3-0.3,0.7-0.3,0.9,0c0.3,0.3,0.3,0.7,0,1c-0.3,0.3-0.7,0.3-0.9,0
		C16.6,22.6,16.6,22.2,16.9,21.9z M24,39.3c-0.4,0-0.7-0.3-0.7-0.7c0-0.4,0.3-0.7,0.7-0.7c0.4,0,0.7,0.3,0.7,0.7
		C24.7,39,24.4,39.3,24,39.3z M24,35.3c-3.4,0-6.2-2.8-6.2-6.3c0-3.5,2.8-6.3,6.2-6.3c3.4,0,6.2,2.8,6.2,6.3
		C30.2,32.5,27.4,35.3,24,35.3z M23.3,19.6c0-0.4,0.3-0.7,0.7-0.7c0.4,0,0.7,0.3,0.7,0.7c0,0.4-0.3,0.7-0.7,0.7
		C23.6,20.3,23.3,20,23.3,19.6z M31.1,36.3c-0.3,0.3-0.7,0.3-0.9,0c-0.3-0.3-0.3-0.7,0-1c0.3-0.3,0.7-0.3,0.9,0
		C31.4,35.6,31.4,36,31.1,36.3z M31.1,22.8c-0.3,0.3-0.7,0.3-0.9,0c-0.3-0.3-0.3-0.7,0-1c0.3-0.3,0.7-0.3,0.9,0
		C31.4,22.2,31.4,22.6,31.1,22.8z M33.4,29.8c-0.4,0-0.7-0.3-0.7-0.7c0-0.4,0.3-0.7,0.7-0.7c0.4,0,0.7,0.3,0.7,0.7
		C34.1,29.5,33.8,29.8,33.4,29.8z M33.5,18.1c-2.1-1.6-4.4-2.6-6.8-3c-0.2-0.7-1.3-1.2-2.6-1.3l0.2-6.3L24,5.5l-0.3,2.1l0.2,6.3
		c-1.3,0-2.4,0.6-2.6,1.4c-2.2,0.5-4.3,1.4-6.3,2.9c-1.6-3-3.2-6-4.8-9c8.6-6.5,19.5-6.5,28.1,0C36.7,12.1,35.1,15.1,33.5,18.1z"/>
</g>
</svg>
