<?xml version="1.0" encoding="utf-8"?>
<!-- Generator: Adobe Illustrator 18.0.0, SVG Export Plug-In . SVG Version: 6.00 Build 0)  -->
<!DOCTYPE svg PUBLIC "-//W3C//DTD SVG 1.1//EN" "http://www.w3.org/Graphics/SVG/1.1/DTD/svg11.dtd">
<svg version="1.1" id="Layer_1" xmlns="http://www.w3.org/2000/svg" xmlns:xlink="http://www.w3.org/1999/xlink" x="0px" y="0px"
	 viewBox="0 0 48 48" enable-background="new 0 0 48 48" xml:space="preserve">
<g>
	<polygon fill="#4DA0D8" points="7,47.2 8.4,47.2 8.4,47.5 9.6,47.5 9.6,47.2 38.4,47.2 38.4,47.5 39.6,47.5 39.6,47.2 41,47.2 
		41,46.6 7,46.6 	"/>
	<path fill="#F7A93B" d="M23.3,0.5H8c-1.3,0-2.3,1-2.3,2.3v42.7h17.6V0.5z M21.7,27h-1v-5.8h1V27z"/>
	<path fill="#E77528" d="M40,0.5H24.7v45h17.6V2.8C42.3,1.5,41.3,0.5,40,0.5z M27.2,27h-1v-5.8h1V27z M37.2,31.2H32v-4.8h5.2V31.2z"
		/>
</g>
</svg>
