<?xml version="1.0" encoding="utf-8"?>
<!-- Generator: Adobe Illustrator 18.0.0, SVG Export Plug-In . SVG Version: 6.00 Build 0)  -->
<!DOCTYPE svg PUBLIC "-//W3C//DTD SVG 1.1//EN" "http://www.w3.org/Graphics/SVG/1.1/DTD/svg11.dtd">
<svg version="1.1" id="Layer_1" xmlns="http://www.w3.org/2000/svg" xmlns:xlink="http://www.w3.org/1999/xlink" x="0px" y="0px"
	 viewBox="0 0 48 48" enable-background="new 0 0 48 48" xml:space="preserve">
<g>
	<ellipse fill="#F04B36" cx="24" cy="30.1" rx="6.7" ry="5.9"/>
	<path fill="#CFD0D1" d="M0.5,45.5c0,1.1,1,2,2.3,2h42.4c1.3,0,2.3-0.9,2.3-2V9.2h-47V45.5z M24,20.2c6.1,0,11.1,4.4,11.1,9.9
		c0,5.5-5,9.9-11.1,9.9c-6.1,0-11.1-4.4-11.1-9.9C12.9,24.6,17.9,20.2,24,20.2z"/>
	<path fill="#0DB89A" d="M45.2,0.5H2.8c-1.3,0-2.3,0.9-2.3,2v5.4h47V2.5C47.5,1.4,46.5,0.5,45.2,0.5z M32.6,6.2
		c-1.1,0-1.9-0.8-1.9-1.7s0.9-1.7,1.9-1.7c1.1,0,1.9,0.8,1.9,1.7S33.7,6.2,32.6,6.2z M38.8,6.2c-1.1,0-1.9-0.8-1.9-1.7
		s0.9-1.7,1.9-1.7c1.1,0,1.9,0.8,1.9,1.7S39.9,6.2,38.8,6.2z"/>
</g>
</svg>
