<?xml version="1.0" encoding="utf-8"?>
<!-- Generator: Adobe Illustrator 18.0.0, SVG Export Plug-In . SVG Version: 6.00 Build 0)  -->
<!DOCTYPE svg PUBLIC "-//W3C//DTD SVG 1.1//EN" "http://www.w3.org/Graphics/SVG/1.1/DTD/svg11.dtd">
<svg version="1.1" id="Layer_1" xmlns="http://www.w3.org/2000/svg" xmlns:xlink="http://www.w3.org/1999/xlink" x="0px" y="0px"
	 viewBox="0 0 48 48" enable-background="new 0 0 48 48" xml:space="preserve">
<g>
	<ellipse fill="#0DB89A" cx="11.1" cy="5.4" rx="1.5" ry="1.3"/>
	<ellipse fill="#7C3926" cx="19.7" cy="5.4" rx="1.5" ry="1.3"/>
	<ellipse fill="#F7A93B" cx="28.3" cy="5.4" rx="1.5" ry="1.3"/>
	<ellipse fill="#4DA0D8" cx="36.9" cy="5.4" rx="1.5" ry="1.3"/>
	<path fill="#F04B36" d="M41,1.6V1.5c0-0.5-0.5-1-1.2-1h-10c-0.6,0-1.2,0.4-1.2,1v0.1H17.4V1.5c0-0.5-0.5-1-1.2-1h-10
		C5.6,0.5,5,0.9,5,1.5v0.1H0.5v45.9h47V1.6H41z M39.3,40H8.7V18.5h30.7V40z M43.6,7.7H4.4V3.4h39.2V7.7z"/>
</g>
</svg>
