<?xml version="1.0" encoding="utf-8"?>
<!-- Generator: Adobe Illustrator 18.0.0, SVG Export Plug-In . SVG Version: 6.00 Build 0)  -->
<!DOCTYPE svg PUBLIC "-//W3C//DTD SVG 1.1//EN" "http://www.w3.org/Graphics/SVG/1.1/DTD/svg11.dtd">
<svg version="1.1" id="Layer_1" xmlns="http://www.w3.org/2000/svg" xmlns:xlink="http://www.w3.org/1999/xlink" x="0px" y="0px"
	 viewBox="0 0 48 48" enable-background="new 0 0 48 48" xml:space="preserve">
<g>
	<circle fill="#F04B36" cx="9.4" cy="15.8" r="1.8"/>
	<circle fill="#0DB89A" cx="27.5" cy="15.8" r="1.8"/>
	<circle fill="#ED9322" cx="41.2" cy="13.4" r="1.1"/>
	<circle fill="#659C41" cx="41.2" cy="20.5" r="1.1"/>
	<circle fill="#4DA0D8" cx="41.2" cy="27.5" r="1.1"/>
	<circle fill="#773879" cx="41.2" cy="34.6" r="1.1"/>
	<circle fill="#E77528" cx="9.4" cy="32.2" r="1.8"/>
	<circle fill="#4DA0D8" cx="27.5" cy="32.2" r="1.8"/>
	<path fill="#06728D" d="M45.5,7.6h-43c-1.1,0-2,0.9-2,2v28.9c0,1.1,0.9,2,2,2h43c1.1,0,2-0.9,2-2V9.5C47.5,8.5,46.6,7.6,45.5,7.6z
		 M9.4,38.2c-3.4,0-6.1-2.7-6.1-6.1c0-3.4,2.7-6.1,6.1-6.1c3.4,0,6.1,2.7,6.1,6.1C15.5,35.5,12.8,38.2,9.4,38.2z M9.4,21.9
		c-3.4,0-6.1-2.7-6.1-6.1s2.7-6.1,6.1-6.1c3.4,0,6.1,2.7,6.1,6.1S12.8,21.9,9.4,21.9z M27.5,38.2c-3.4,0-6.1-2.7-6.1-6.1
		c0-3.4,2.7-6.1,6.1-6.1s6.1,2.7,6.1,6.1C33.6,35.5,30.9,38.2,27.5,38.2z M27.5,21.9c-3.4,0-6.1-2.7-6.1-6.1s2.7-6.1,6.1-6.1
		s6.1,2.7,6.1,6.1S30.9,21.9,27.5,21.9z M44.4,37.8h-6.1V10.2h6.1V37.8z"/>
</g>
</svg>
