<?xml version="1.0" encoding="utf-8"?>
<!-- Generator: Adobe Illustrator 18.0.0, SVG Export Plug-In . SVG Version: 6.00 Build 0)  -->
<!DOCTYPE svg PUBLIC "-//W3C//DTD SVG 1.1//EN" "http://www.w3.org/Graphics/SVG/1.1/DTD/svg11.dtd">
<svg version="1.1" id="Layer_1" xmlns="http://www.w3.org/2000/svg" xmlns:xlink="http://www.w3.org/1999/xlink" x="0px" y="0px"
	 viewBox="0 0 48 48" enable-background="new 0 0 48 48" xml:space="preserve">
<g>
	<polygon fill="#F04B36" points="9.8,38.1 11.6,40.1 11.6,2.5 9.8,0.5 	"/>
	<path fill="#0DB89A" d="M35.4,22h0.7v-4.9H33c-1.6-2.6-3.7-5.2-6.3-7.5l1.8-0.8l-1-2.2l-3,1.3c-3.1-2.2-6.9-4.1-11.4-5.5v37.3
		l2.7,7.7h0.1l22.1-6.1C38.4,36.4,38.3,29.1,35.4,22z M28,38.3L27.8,36l1.8-0.2l-1-11.2l-1.8,0.2l-0.3-3.6c0,0,0,0,0,0
		c2.9-0.1,6.2,4.5,6.3,8.9C33.1,34.5,30.9,38.1,28,38.3z"/>
</g>
</svg>
