<?xml version="1.0" encoding="utf-8"?>
<!-- Generator: Adobe Illustrator 18.0.0, SVG Export Plug-In . SVG Version: 6.00 Build 0)  -->
<!DOCTYPE svg PUBLIC "-//W3C//DTD SVG 1.1//EN" "http://www.w3.org/Graphics/SVG/1.1/DTD/svg11.dtd">
<svg version="1.1" id="Layer_1" xmlns="http://www.w3.org/2000/svg" xmlns:xlink="http://www.w3.org/1999/xlink" x="0px" y="0px"
	 viewBox="0 0 48 48" enable-background="new 0 0 48 48" xml:space="preserve">
<g>
	<circle fill="#4DA0D8" cx="13.8" cy="35" r="3.6"/>
	<path fill="#0DB89A" d="M27.1,25.7L27.1,25.7l-13,0c-5.2,0-9.3,4.2-9.3,9.3c0,5.2,4.2,9.4,9.3,9.4h17.2c0,0,0,0,0,0h16.2V25.7H27.1
		z M13.8,41.9C10,41.9,7,38.8,7,35c0-3.8,3.1-6.9,6.8-6.9c3.8,0,6.8,3.1,6.8,6.9C20.6,38.8,17.6,41.9,13.8,41.9z"/>
	<path fill="#E77528" d="M3.7,35c0-5.7,4.6-10.3,10.3-10.3h13V13.4c0-1.1-0.9-2-1.9-2h-3.5v-11H6v11H2.4c-1.1,0-1.9,0.9-1.9,2v32.1
		c0,1.1,0.9,2,1.9,2h22.7c1.1,0,1.9-0.9,1.9-2v-0.2h-13C8.4,45.4,3.7,40.7,3.7,35z M16.2,3.7H20v3.8h-3.8V3.7z M7.6,3.7h3.8v3.8H7.6
		V3.7z"/>
</g>
</svg>
