<?xml version="1.0" encoding="utf-8"?>
<!-- Generator: Adobe Illustrator 18.0.0, SVG Export Plug-In . SVG Version: 6.00 Build 0)  -->
<!DOCTYPE svg PUBLIC "-//W3C//DTD SVG 1.1//EN" "http://www.w3.org/Graphics/SVG/1.1/DTD/svg11.dtd">
<svg version="1.1" id="Layer_1" xmlns="http://www.w3.org/2000/svg" xmlns:xlink="http://www.w3.org/1999/xlink" x="0px" y="0px"
	 viewBox="0 0 48 48" enable-background="new 0 0 48 48" xml:space="preserve">
<g>
	<polygon fill="none" points="9.3,20.4 10.9,20.4 15.4,3.6 13.8,3.6 	"/>
	<path fill="none" d="M19.9,25.6c0.1-0.3-0.1-0.5-0.3-0.6c-0.2-0.1-0.5,0.1-0.6,0.3c-0.1,0.4-2.8,10.7,0.6,18.1
		c0.1,0.2,0.2,0.3,0.4,0.3c0.1,0,0.1,0,0.2-0.1c0.2-0.1,0.3-0.4,0.2-0.6C17.2,35.9,19.9,25.7,19.9,25.6z"/>
	<path fill="#F04B36" d="M40.1,24.2c1.7,0,2.8-1.4,2.3-3L36.8,3.2c-0.4-1.7-2.2-3-3.9-3H14.6c-1.7,0-3.4,1.4-3.8,3L5.6,21.1
		c-0.4,1.7,0.7,3,2.4,3h9.7h12.6H40.1z M10.9,20.4H9.3l4.5-16.7h1.7L10.9,20.4z"/>
	<path fill="none" d="M19.9,25.6c0.1-0.3-0.1-0.5-0.3-0.6c-0.2-0.1-0.5,0.1-0.6,0.3c-0.1,0.4-2.8,10.7,0.6,18.1
		c0.1,0.2,0.2,0.3,0.4,0.3c0.1,0,0.1,0,0.2-0.1c0.2-0.1,0.3-0.4,0.2-0.6C17.2,35.9,19.9,25.7,19.9,25.6z"/>
	<polygon fill="#06728D" points="37.6,42.9 34.4,42.9 34.4,44 30.7,44 30.4,44 17.6,44 7.3,44 7.3,47.8 40.7,47.8 40.7,44 37.6,44 	
		"/>
	<path fill="#0DB89A" d="M32.4,34.2c0-3.8-0.8-7.3-2.1-10H17.7c-1.3,2.7-2.1,6.2-2.1,10c0,3.8,0.8,7.2,2,9.9h12.7
		C31.6,41.4,32.4,37.9,32.4,34.2z M20.3,43.6c-0.1,0-0.1,0.1-0.2,0.1c-0.2,0-0.3-0.1-0.4-0.3c-3.5-7.4-0.8-17.6-0.6-18.1
		c0.1-0.3,0.3-0.4,0.6-0.3c0.2,0.1,0.4,0.3,0.3,0.6c0,0.1-2.7,10.3,0.6,17.4C20.6,43.2,20.5,43.5,20.3,43.6z"/>
</g>
</svg>
