<?xml version="1.0" encoding="utf-8"?>
<!-- Generator: Adobe Illustrator 18.0.0, SVG Export Plug-In . SVG Version: 6.00 Build 0)  -->
<!DOCTYPE svg PUBLIC "-//W3C//DTD SVG 1.1//EN" "http://www.w3.org/Graphics/SVG/1.1/DTD/svg11.dtd">
<svg version="1.1" id="Layer_1" xmlns="http://www.w3.org/2000/svg" xmlns:xlink="http://www.w3.org/1999/xlink" x="0px" y="0px"
	 viewBox="0 0 48 48" enable-background="new 0 0 48 48" xml:space="preserve">
<g>
	<rect x="4.6" y="19.5" fill="none" width="32.6" height="22.7"/>
	<rect x="39.9" y="22.6" fill="none" width="5.2" height="0.8"/>
	<rect x="39.9" y="28.5" fill="none" width="5.2" height="0.8"/>
	<rect x="39.9" y="25.5" fill="none" width="5.2" height="0.8"/>
	<ellipse fill="none" cx="42.7" cy="39.7" rx="2.5" ry="2.4"/>
	<path fill="#A61E23" d="M7.8,1c0-0.1-0.1-0.3-0.2-0.3C7.5,0.5,7.4,0.5,7.3,0.5C7,0.5,6.8,0.8,6.8,1l0.7,11.3h1L7.8,1z"/>
	<path fill="#A61E23" d="M11.5,12.8l7.7-7.3c0.2-0.2,0.2-0.5,0-0.7c-0.2-0.2-0.5-0.2-0.7,0l-7.9,7.5h1V12.8z"/>
	<rect x="39.9" y="28.5" fill="none" width="5.2" height="0.8"/>
	<rect x="39.9" y="25.5" fill="none" width="5.2" height="0.8"/>
	<rect x="39.9" y="22.6" fill="none" width="5.2" height="0.8"/>
	<rect x="4.6" y="19.5" fill="none" width="32.6" height="22.7"/>
	<ellipse fill="none" cx="42.7" cy="39.7" rx="2.5" ry="2.4"/>
	<polygon fill="#BC772B" points="11.4,12.8 11.5,12.8 11.5,12.4 10.5,12.4 8.5,12.4 7.5,12.4 5.9,12.4 5.9,14.9 11.4,14.9 	"/>
	<path fill="#CFD0D1" d="M44.9,14.9H11.4H5.9H3.1c-1.4,0-2.6,1.1-2.6,2.5v26.8c0,1.4,1.2,2.5,2.6,2.5h3.3v0.8H11v-0.8H37v0.8h4.6
		v-0.8h3.3c1.4,0,2.6-1.1,2.6-2.5V17.4C47.5,16.1,46.3,14.9,44.9,14.9z M39.9,22.6h5.2v0.8h-5.2V22.6z M39.9,25.5h5.2v0.8h-5.2V25.5
		z M37.2,42.2H4.6V19.5h32.6V42.2z M39.9,28.5h5.2v0.8h-5.2V28.5z M42.7,42c-1.4,0-2.5-1.1-2.5-2.4c0-1.3,1.1-2.4,2.5-2.4
		c1.4,0,2.5,1.1,2.5,2.4C45.2,41,44.1,42,42.7,42z"/>
</g>
</svg>
