<?xml version="1.0" encoding="utf-8"?>
<!-- Generator: Adobe Illustrator 18.0.0, SVG Export Plug-In . SVG Version: 6.00 Build 0)  -->
<!DOCTYPE svg PUBLIC "-//W3C//DTD SVG 1.1//EN" "http://www.w3.org/Graphics/SVG/1.1/DTD/svg11.dtd">
<svg version="1.1" id="Layer_1" xmlns="http://www.w3.org/2000/svg" xmlns:xlink="http://www.w3.org/1999/xlink" x="0px" y="0px"
	 viewBox="0 0 48 48" enable-background="new 0 0 48 48" xml:space="preserve">
<g>
	<path fill="#06728D" d="M15.5,11.9c-6.4,0-11.6,5.2-11.6,11.6c0,6.4,5.2,11.6,11.6,11.6c6.4,0,11.6-5.2,11.6-11.6
		C27.2,17.1,22,11.9,15.5,11.9z M11.3,13.9c0,0,2.4-1.2,4.2-1c0,0,2.3,0,2,2.5c0,0-0.4,2.1-1.2,3.4c-0.1,0.2-0.2,0.4-0.3,0.6
		c-0.2,0-0.3,0-0.5,0c-1.3,0-2.5,0.6-3.3,1.6l-0.1,0c0,0-1.8-2-2.2-2.7C9.4,17.1,8.9,14.8,11.3,13.9z M14.5,27.7
		c0,0-0.9,2.5-1.4,3.2c-0.6,0.9-2.4,2.4-4.4,0.8c0,0-2.2-1.6-2.8-3.3c0,0-1.1-2,1.4-2.9c0,0,2.1-0.6,3.5-0.5c0.3,0,0.6,0,0.9,0.1
		c0.5,1.2,1.6,2.2,2.9,2.5L14.5,27.7z M15.5,26.4c-1.6,0-2.9-1.3-2.9-2.9c0-1.6,1.3-2.9,2.9-2.9c1.6,0,2.9,1.3,2.9,2.9
		C18.4,25.1,17.1,26.4,15.5,26.4z M25.4,24.8c0.1,0.4,0.1,0.9,0,1.6c0,0-0.4,2.6-1.7,4c0,0-1.3,1.9-3.2,0.1c0,0-1.5-1.6-2-2.9
		c-0.1-0.2-0.2-0.5-0.3-0.8c0.9-0.8,1.5-1.9,1.5-3.2c0-0.2,0-0.4-0.1-0.6c0.8-0.1,2.4-0.2,3.1-0.1C23.5,22.8,25,23.4,25.4,24.8z"/>
	<path fill="#0DB89A" d="M43.7,5.8H4.3c-2.1,0-3.8,1.7-3.8,3.8v27.9c0,2.1,1.7,3.8,3.8,3.8H8v0.9h3.6v-0.9h24.8v0.9H40v-0.9h3.8
		c2.1,0,3.8-1.7,3.8-3.8V9.6C47.5,7.5,45.8,5.8,43.7,5.8z M15.5,36.3c-7.1,0-12.8-5.7-12.8-12.8c0-7.1,5.7-12.8,12.8-12.8
		s12.8,5.7,12.8,12.8C28.3,30.6,22.6,36.3,15.5,36.3z M43.5,34.7H33.2V12.4h10.3V34.7z"/>
</g>
</svg>
