<?xml version="1.0" encoding="utf-8"?>
<!-- Generator: Adobe Illustrator 18.0.0, SVG Export Plug-In . SVG Version: 6.00 Build 0)  -->
<!DOCTYPE svg PUBLIC "-//W3C//DTD SVG 1.1//EN" "http://www.w3.org/Graphics/SVG/1.1/DTD/svg11.dtd">
<svg version="1.1" id="Layer_1" xmlns="http://www.w3.org/2000/svg" xmlns:xlink="http://www.w3.org/1999/xlink" x="0px" y="0px"
	 viewBox="0 0 48 48" enable-background="new 0 0 48 48" xml:space="preserve">
<g>
	<path fill="#E8B944" d="M44.7,7.7H3.3c-1.5,0-2.8,1.3-2.8,2.8v26.2c0,1.5,1.3,2.8,2.8,2.8h2.9v0.7H12v-0.7h24v0.7h5.8v-0.7h2.9
		c1.5,0,2.8-1.3,2.8-2.8V10.6C47.5,9,46.2,7.7,44.7,7.7z M36.9,35.5H4.2V11.8h32.6V35.5z M42.2,33.1c-1.3,0-2.4-1.1-2.4-2.4
		c0-1.3,1.1-2.4,2.4-2.4c1.3,0,2.4,1.1,2.4,2.4C44.6,32,43.5,33.1,42.2,33.1z M45.5,18.2h-6.8v-3.9h6.8V18.2z"/>
</g>
</svg>
