<?xml version="1.0" encoding="utf-8"?>
<!-- Generator: Adobe Illustrator 18.0.0, SVG Export Plug-In . SVG Version: 6.00 Build 0)  -->
<!DOCTYPE svg PUBLIC "-//W3C//DTD SVG 1.1//EN" "http://www.w3.org/Graphics/SVG/1.1/DTD/svg11.dtd">
<svg version="1.1" id="Layer_1" xmlns="http://www.w3.org/2000/svg" xmlns:xlink="http://www.w3.org/1999/xlink" x="0px" y="0px"
	 viewBox="0 0 48 48" enable-background="new 0 0 48 48" xml:space="preserve">
<g>
	<polygon fill="#B16A78" points="23.6,33.5 26,31.8 23.6,30.1 	"/>
	<polygon fill="#B16A78" points="23.6,24.7 23.6,28.2 26,26.5 	"/>
	<polygon fill="none" points="22.6,22.6 22.6,28.2 20.9,26.1 19.9,26.9 22,29 22,29.1 20.1,31.3 20.9,32.2 22.6,30 22.6,35.7 
		27.8,31.8 24.1,29.1 27.8,26.5 	"/>
	<rect x="18.3" y="3.8" fill="none" width="3.8" height="3.7"/>
	<rect x="25.9" y="3.8" fill="none" width="3.8" height="3.7"/>
	<path fill="#E77528" d="M35.4,11.5h-3.5H16.2h-3.5c-1.1,0-1.9,0.9-1.9,2v32.1c0,1.1,0.9,2,1.9,2h22.7c1.1,0,1.9-0.9,1.9-2v-1.2
		V25.7V13.4C37.3,12.3,36.4,11.5,35.4,11.5z M27.8,31.8l-5.2,3.9V30l-1.8,2.1l-0.8-0.8l1.9-2.2V29l-2-2.1l0.9-0.8l1.8,2.1v-5.7
		l5.2,3.9l-3.8,2.7L27.8,31.8z"/>
	<path fill="#06728D" d="M31.8,0.5H16.2v11h15.6V0.5z M22.1,7.6h-3.8V3.8h3.8V7.6z M29.7,7.6h-3.8V3.8h3.8V7.6z"/>
</g>
</svg>
