<?xml version="1.0" encoding="utf-8"?>
<!-- Generator: Adobe Illustrator 18.0.0, SVG Export Plug-In . SVG Version: 6.00 Build 0)  -->
<!DOCTYPE svg PUBLIC "-//W3C//DTD SVG 1.1//EN" "http://www.w3.org/Graphics/SVG/1.1/DTD/svg11.dtd">
<svg version="1.1" id="Layer_1" xmlns="http://www.w3.org/2000/svg" xmlns:xlink="http://www.w3.org/1999/xlink" x="0px" y="0px"
	 viewBox="0 0 48 48" enable-background="new 0 0 48 48" xml:space="preserve">
<g>
	<path fill="#CFD0D1" d="M18.9,19c-0.4,0-0.8,0-1.1-0.1c-1.9-0.2-4.6,0.7-4.6,0.7c-3.1,1.1-1.8,3.8-1.8,3.8c0.8,2.2,3.6,4.2,3.6,4.2
		c2.6,2.1,4.9,0.2,5.7-1c0.6-0.9,1.8-4.1,1.8-4.1l0-0.2C21,21.8,19.6,20.6,18.9,19z"/>
	<path fill="#CFD0D1" d="M19.6,13.6l0.1,0.1c1-1.2,2.5-2,4.2-2c0.2,0,0.4,0,0.6,0c0.2-0.3,0.3-0.5,0.4-0.7c1-1.6,1.5-4.4,1.5-4.4
		C27,3.2,24,3.3,24,3.3c-2.4-0.3-5.4,1.3-5.4,1.3c-3.1,1.3-2.4,4.3-1.7,5.5C17.3,11.1,19.6,13.6,19.6,13.6z"/>
	<path fill="#CFD0D1" d="M27.4,21.2c0.2,0.3,0.3,0.7,0.4,1c0.7,1.8,2.7,3.8,2.7,3.8c2.4,2.3,4.2-0.1,4.2-0.1
		c1.6-1.7,2.2-5.1,2.2-5.1c0.2-0.8,0.2-1.5,0-2c-0.5-1.8-2.4-2.5-3.5-2.6c-0.8-0.1-3,0.1-4,0.2c0,0.3,0.1,0.5,0.1,0.8
		C29.4,18.7,28.6,20.2,27.4,21.2z"/>
	<path fill="#F04B36" d="M27.7,17c0-2.1-1.7-3.8-3.8-3.8c-2.1,0-3.8,1.7-3.8,3.8c0,2.1,1.7,3.8,3.8,3.8C26,20.8,27.7,19.1,27.7,17z"
		/>
	<path fill="#06728D" d="M26,39.8v-6.2c8.2-1,14.6-8,14.6-16.5c0-9.2-7.4-16.6-16.6-16.6c-9.2,0-16.6,7.4-16.6,16.6
		c0,8.5,6.4,15.5,14.6,16.5v6.2c-5.3,0.4-9.3,1.9-9.3,3.8c0,2.1,5.2,3.9,11.6,3.9c6.4,0,11.6-1.7,11.6-3.9C36,41.6,31.6,40,26,39.8z
		 M8.9,17.1C8.9,8.8,15.7,2,24,2c8.3,0,15.1,6.8,15.1,15.1c0,8.3-6.8,15.1-15.1,15.1C15.7,32.2,8.9,25.4,8.9,17.1z"/>
</g>
</svg>
