<?xml version="1.0" encoding="utf-8"?>
<!-- Generator: Adobe Illustrator 18.0.0, SVG Export Plug-In . SVG Version: 6.00 Build 0)  -->
<!DOCTYPE svg PUBLIC "-//W3C//DTD SVG 1.1//EN" "http://www.w3.org/Graphics/SVG/1.1/DTD/svg11.dtd">
<svg version="1.1" id="Layer_1" xmlns="http://www.w3.org/2000/svg" xmlns:xlink="http://www.w3.org/1999/xlink" x="0px" y="0px"
	 viewBox="0 0 48 48" enable-background="new 0 0 48 48" xml:space="preserve">
<g>
	<path fill="#CE8931" d="M39.7,16.7l-1.9,1.6l1.5,1.7l1.9-1.6L39.7,16.7z M38.2,18.3l1.4-1.2l1.1,1.3l-1.4,1.2L38.2,18.3z"/>
	<path fill="#CE8931" d="M37.2,13.8l-1.9,1.6l1.5,1.7l1.9-1.6L37.2,13.8z M35.7,15.4l1.4-1.2l1.1,1.3l-1.4,1.2L35.7,15.4z"/>
	<polygon fill="none" points="39.8,10.1 33,15.7 38.6,22.1 45.4,16.5 	"/>
	<polygon fill="#E77528" points="39.8,10.1 45.4,16.5 38.6,22.1 39.6,23.2 47.5,16.7 40,8.1 32.1,14.6 33,15.7 	"/>
	<path fill="#0DB89A" d="M4.6,26.2L23.2,3.3c0.6-0.8,0.5-1.9-0.3-2.5c-0.8-0.6-1.9-0.5-2.5,0.3l-19.4,24c-0.5,0.7-0.5,1.6,0,2.2
		l4.4,5L8,30.1L4.6,26.2z"/>
	<path fill="#06728D" d="M40.7,24.5l-1.2-1.3l-1-1.1L33,15.7l-1-1.1l-1.2-1.3c-0.5-0.6-1.5-0.7-2.1-0.2L8,30.1l-2.8,2.3l-1.6,1.3
		c-0.6,0.5-0.7,1.4-0.2,2L13.4,47c0.5,0.6,1.5,0.7,2.1,0.2l25.1-20.6C41.2,26.1,41.2,25.1,40.7,24.5z"/>
</g>
</svg>
