<?xml version="1.0" encoding="utf-8"?>
<!-- Generator: Adobe Illustrator 18.0.0, SVG Export Plug-In . SVG Version: 6.00 Build 0)  -->
<!DOCTYPE svg PUBLIC "-//W3C//DTD SVG 1.1//EN" "http://www.w3.org/Graphics/SVG/1.1/DTD/svg11.dtd">
<svg version="1.1" id="Layer_1" xmlns="http://www.w3.org/2000/svg" xmlns:xlink="http://www.w3.org/1999/xlink" x="0px" y="0px"
	 viewBox="0 0 48 48" enable-background="new 0 0 48 48" xml:space="preserve">
<g>
	<rect x="4.5" y="2" fill="#294E58" width="1.7" height="4.4"/>
	<rect x="9.6" y="2" fill="#294E58" width="1.7" height="4.4"/>
	<rect x="34.5" y="34.8" fill="none" width="11.2" height="6.4"/>
	<path fill="#F04B36" d="M13.1,25.4c1.2,0,2.2-0.9,2.2-2V7.5h-1.1v-7H1.6v7H0.5v15.9c0,1.1,1,2,2.2,2h3.9h2.2H13.1z M2.3,7.5V1.2
		h11.2v6.4H2.3z"/>
	<rect x="34.5" y="34.8" fill="none" width="11.2" height="6.4"/>
	<path fill="#E77528" d="M41.7,12.6c0-4.3-4-7.9-8.8-7.9c-4.8,0-9.9,3.6-9.9,7.9v15.1h0v11.9c0,3.3-4,5.9-7.7,5.9
		c-3.6,0-6.6-2.7-6.6-5.9V25.4H6.6v14.2c0,4.3,4,7.9,8.8,7.9c4.8,0,9.9-3.6,9.9-7.9V24.5h0V12.6c0-3.3,4-5.9,7.7-5.9
		c3.6,0,6.6,2.7,6.6,5.9v12.8h2.2V12.6z"/>
	<path fill="#294E58" d="M45.3,25.4h-3.6h-2.2h-4.6c-1.2,0-2.2,0.9-2.2,2v7.4h1.1v7h12.6v-7h1.1v-7.4C47.5,26.3,46.5,25.4,45.3,25.4
		z M45.7,41.1H34.5v-6.4h11.2V41.1z"/>
</g>
</svg>
