<?xml version="1.0" encoding="utf-8"?>
<!-- Generator: Adobe Illustrator 18.0.0, SVG Export Plug-In . SVG Version: 6.00 Build 0)  -->
<!DOCTYPE svg PUBLIC "-//W3C//DTD SVG 1.1//EN" "http://www.w3.org/Graphics/SVG/1.1/DTD/svg11.dtd">
<svg version="1.1" id="Layer_1" xmlns="http://www.w3.org/2000/svg" xmlns:xlink="http://www.w3.org/1999/xlink" x="0px" y="0px"
	 viewBox="0 0 48 48" enable-background="new 0 0 48 48" xml:space="preserve">
<g>
	<path fill="#F04B36" d="M7.9,2.2c6.1,0,11,5.4,11,12.1c0,0.5,0.3,0.8,0.8,0.8c0.4,0,0.8-0.4,0.8-0.8c0-7.6-5.6-13.8-12.5-13.8
		c-0.4,0-0.8,0.4-0.8,0.8C7.1,1.8,7.5,2.2,7.9,2.2z"/>
	<path fill="#CFD0D1" d="M7.9,9.7c2.3,0,4.2,2.1,4.2,4.6c0,0.5,0.3,0.8,0.8,0.8c0.4,0,0.8-0.4,0.8-0.8C13.6,10.8,11,8,7.9,8
		C7.5,8,7.1,8.4,7.1,8.8C7.1,9.3,7.5,9.7,7.9,9.7z"/>
	<path fill="#06728D" d="M7.9,6.1c4.1,0,7.4,3.7,7.4,8.2c0,0.5,0.3,0.8,0.8,0.8c0.4,0,0.8-0.4,0.8-0.8c0-5.4-4-9.8-9-9.8
		c-0.4,0-0.8,0.4-0.8,0.8C7.1,5.7,7.5,6.1,7.9,6.1z"/>
	<path fill="#F04B36" d="M35,0.5c-0.4,0-0.8,0.4-0.8,0.8c0,0.5,0.3,0.8,0.8,0.8c6.1,0,11,5.4,11,12.1c0,0.5,0.3,0.8,0.8,0.8
		c0.4,0,0.8-0.4,0.8-0.8C47.5,6.7,41.9,0.5,35,0.5z"/>
	<path fill="#CFD0D1" d="M35,9.7c2.3,0,4.2,2.1,4.2,4.6c0,0.5,0.3,0.8,0.8,0.8c0.4,0,0.8-0.4,0.8-0.8c0-3.4-2.6-6.3-5.7-6.3
		c-0.4,0-0.8,0.4-0.8,0.8C34.2,9.3,34.6,9.7,35,9.7z"/>
	<path fill="#06728D" d="M35,4.4c-0.4,0-0.8,0.4-0.8,0.8c0,0.5,0.3,0.8,0.8,0.8c4.1,0,7.4,3.7,7.4,8.2c0,0.5,0.3,0.8,0.8,0.8
		c0.4,0,0.8-0.4,0.8-0.8C43.9,8.8,39.9,4.4,35,4.4z"/>
	<path fill="#3B8174" d="M41.6,34.7h-5.8V14.9c0-0.5-0.3-0.8-0.8-0.8c-0.4,0-0.8,0.4-0.8,0.8v19.8H8.7V14.9c0-0.5-0.3-0.8-0.8-0.8
		c-0.4,0-0.8,0.4-0.8,0.8v19.8H2.6c-1.2,0-2.1,1.1-2.1,2.3v8.1c0,1.3,1,2.3,2.1,2.3h38.9c1.2,0,2.1-1.1,2.1-2.3v-8.1
		C43.7,35.8,42.7,34.7,41.6,34.7z M34.4,37.3h5.7v1.4h-5.7V37.3z M24.3,37.3H30v1.4h-5.7V37.3z M14.2,37.3h5.7v1.4h-5.7V37.3z
		 M4.1,37.3h5.7v1.4H4.1V37.3z M40.4,44.3H3.8v-2.1h36.6V44.3z"/>
</g>
</svg>
