<?xml version="1.0" encoding="utf-8"?>
<!-- Generator: Adobe Illustrator 18.0.0, SVG Export Plug-In . SVG Version: 6.00 Build 0)  -->
<!DOCTYPE svg PUBLIC "-//W3C//DTD SVG 1.1//EN" "http://www.w3.org/Graphics/SVG/1.1/DTD/svg11.dtd">
<svg version="1.1" id="Layer_1" xmlns="http://www.w3.org/2000/svg" xmlns:xlink="http://www.w3.org/1999/xlink" x="0px" y="0px"
	 viewBox="0 0 48 48" enable-background="new 0 0 48 48" xml:space="preserve">
<g>
	<path fill="#294E58" d="M11.6,17.7c1.8,0,3.2-1.4,3.2-3.2c0-1.8-1.4-3.2-3.2-3.2c-1.8,0-3.2,1.4-3.2,3.2
		C8.4,16.2,9.8,17.7,11.6,17.7z M11.6,12.2c1.2,0,2.3,1,2.3,2.2s-1,2.2-2.3,2.2c-1.2,0-2.2-1-2.2-2.2S10.4,12.2,11.6,12.2z"/>
	<path fill="#294E58" d="M11.6,25.4c-2.6,0-4.8,2.1-4.8,4.8c0,2.6,2.1,4.8,4.8,4.8s4.8-2.1,4.8-4.8C16.4,27.5,14.2,25.4,11.6,25.4z
		 M11.6,33.9c-2.1,0-3.8-1.7-3.8-3.8c0-2.1,1.7-3.8,3.8-3.8c2.1,0,3.8,1.7,3.8,3.8C15.4,32.2,13.7,33.9,11.6,33.9z"/>
	<path fill="#E77528" d="M19,5.7H4.2c-2.1,0-3.7,1.7-3.7,3.7v27.3c0,2.1,1.7,3.7,3.7,3.7h0.1v1.2c0,0.4,0.3,0.7,0.7,0.7h2.8
		c0.4,0,0.7-0.3,0.7-0.7v-1.2h6.1v1.2c0,0.4,0.3,0.7,0.7,0.7h2.8c0.4,0,0.7-0.3,0.7-0.7v-1.2c2,0,3.7-1.7,3.7-3.7V9.4
		C22.7,7.3,21,5.7,19,5.7z M11.6,9.9c2.5,0,4.5,2,4.5,4.5c0,2.5-2,4.5-4.5,4.5c-2.5,0-4.5-2-4.5-4.5C7.1,12,9.1,9.9,11.6,9.9z
		 M17.3,34.2c0.5,0.2,0.9,0.7,0.9,1.2c0,0.7-0.6,1.3-1.3,1.3c-0.6,0-1-0.4-1.2-0.9c-1.2,0.8-2.6,1.3-4.1,1.3c-1.5,0-2.9-0.5-4.1-1.3
		c-0.2,0.5-0.7,0.9-1.2,0.9c-0.7,0-1.3-0.6-1.3-1.3c0-0.6,0.4-1,0.9-1.2c-0.8-1.1-1.3-2.5-1.3-4.1c0-1.5,0.5-2.9,1.3-4
		C5.4,25.9,5,25.4,5,24.9c0-0.7,0.6-1.3,1.3-1.3c0.6,0,1,0.4,1.2,0.8c1.2-0.8,2.6-1.3,4.1-1.3c1.5,0,2.9,0.5,4.1,1.3
		c0.2-0.5,0.7-0.9,1.2-0.9c0.7,0,1.3,0.6,1.3,1.3c0,0.6-0.4,1-0.9,1.2c0.8,1.1,1.3,2.5,1.3,4C18.6,31.7,18.2,33.1,17.3,34.2z"/>
	<path fill="#F04B36" d="M36.4,17.7c1.8,0,3.2-1.4,3.2-3.2c0-1.8-1.4-3.2-3.2-3.2c-1.8,0-3.2,1.4-3.2,3.2
		C33.2,16.2,34.6,17.7,36.4,17.7z M36.4,12.2c1.2,0,2.2,1,2.2,2.2s-1,2.2-2.2,2.2c-1.2,0-2.2-1-2.2-2.2S35.1,12.2,36.4,12.2z"/>
	<path fill="#F04B36" d="M36.4,25.4c-2.6,0-4.8,2.1-4.8,4.8c0,2.6,2.1,4.8,4.8,4.8c2.6,0,4.8-2.1,4.8-4.8
		C41.1,27.5,39,25.4,36.4,25.4z M36.4,33.9c-2.1,0-3.8-1.7-3.8-3.8c0-2.1,1.7-3.8,3.8-3.8c2.1,0,3.8,1.7,3.8,3.8
		C40.2,32.2,38.5,33.9,36.4,33.9z"/>
	<path fill="#0DB89A" d="M43.8,5.7H29c-2.1,0-3.7,1.7-3.7,3.7v27.3c0,2.1,1.7,3.7,3.7,3.7h0.1v1.2c0,0.4,0.3,0.7,0.7,0.7h2.8
		c0.4,0,0.7-0.3,0.7-0.7v-1.2h6.1v1.2c0,0.4,0.3,0.7,0.7,0.7H43c0.4,0,0.7-0.3,0.7-0.7v-1.2c2,0,3.7-1.7,3.7-3.7V9.4
		C47.5,7.3,45.8,5.7,43.8,5.7z M36.4,9.9c2.5,0,4.5,2,4.5,4.5c0,2.5-2,4.5-4.5,4.5c-2.5,0-4.5-2-4.5-4.5C31.9,12,33.9,9.9,36.4,9.9z
		 M42.1,34.2c0.5,0.2,0.9,0.7,0.9,1.2c0,0.7-0.6,1.3-1.3,1.3c-0.6,0-1-0.4-1.2-0.9c-1.2,0.8-2.6,1.3-4.1,1.3c-1.5,0-2.9-0.5-4.1-1.3
		c-0.2,0.5-0.7,0.9-1.2,0.9c-0.7,0-1.3-0.6-1.3-1.3c0-0.6,0.4-1,0.9-1.2c-0.8-1.1-1.3-2.5-1.3-4.1c0-1.5,0.5-2.9,1.3-4
		c-0.5-0.2-0.9-0.7-0.9-1.2c0-0.7,0.6-1.3,1.3-1.3c0.6,0,1,0.4,1.2,0.8c1.2-0.8,2.6-1.3,4.1-1.3c1.5,0,2.9,0.5,4.1,1.3
		c0.2-0.5,0.7-0.9,1.2-0.9c0.7,0,1.3,0.6,1.3,1.3c0,0.6-0.4,1-0.9,1.2c0.8,1.1,1.3,2.5,1.3,4C43.4,31.7,42.9,33.1,42.1,34.2z"/>
</g>
</svg>
