<?xml version="1.0" encoding="utf-8"?>
<!-- Generator: Adobe Illustrator 18.0.0, SVG Export Plug-In . SVG Version: 6.00 Build 0)  -->
<!DOCTYPE svg PUBLIC "-//W3C//DTD SVG 1.1//EN" "http://www.w3.org/Graphics/SVG/1.1/DTD/svg11.dtd">
<svg version="1.1" id="Layer_1" xmlns="http://www.w3.org/2000/svg" xmlns:xlink="http://www.w3.org/1999/xlink" x="0px" y="0px"
	 viewBox="0 0 48 48" enable-background="new 0 0 48 48" xml:space="preserve">
<g>
	<ellipse fill="#0DB89A" cx="4.5" cy="42.2" rx="3.6" ry="3.4"/>
	<path fill="#F7A93B" d="M45.7,44.9c-8.1-0.6-7-4-8.4-6.5l-0.9,0.3l-1.6,0.5l-0.6,0.2l1.5,5.5h-0.4v2.6h12.2v-2.6H45.7z"/>
	<path fill="#831619" d="M6.8,25.5c0-0.3-0.3-0.6-0.6-0.6H3.2c-0.3,0-0.6,0.3-0.6,0.6V28l4.1,0.1V25.5z"/>
	<path fill="#06728D" d="M6.7,28.2C6.7,28.2,6.8,28.2,6.7,28.2L2.6,28c-0.7,0-1.4,0-2.1,0v9.7c1.1-0.8,2.5-1.3,4-1.3
		c3.4,0,6.2,2.6,6.2,5.8c0,1.3-0.5,2.5-1.3,3.5h24.3c0,0-0.8-9.8-13.7-14.8l-2.3-0.8C14.7,29.2,11.1,28.5,6.7,28.2z"/>
	<path fill="#F04B36" d="M6,12.6C6.4,10,7.5,1.9,17,2.7c1.3,0.1,2.9,0.8,4.1,1.8c1.1,0.9,1.5,3.4,1.7,4.5l0,0l12,30.2l1.6-0.5
		L25.1,8.6h0c-0.4-2.2-0.9-4.5-2.4-5.7c-1.2-1-3.3-2.2-5.4-2.3c-5.4-0.4-12,1.2-13.4,11.8l0,0.3c-0.3,2.1-0.3,4.9,2,7
		c1,0.9,2.2,1.5,3.3,2.1c0.6,0.3,1.1,0.6,1.6,0.9c0.8,0.5,1.5,0.8,2.3,1.2c1.2,0.6,2.4,1.2,3.3,2c1.2,1,1.4,2.6,1.5,4.3l2.3,0.8
		c0-2.3-0.1-4.8-2.2-6.7c-1.2-1-2.5-1.7-3.8-2.3c-0.7-0.4-1.4-0.7-2.1-1.1c-0.6-0.4-1.2-0.7-1.8-1c-1-0.5-2-1-2.8-1.7
		c-1.3-1.2-1.7-2.8-1.3-5.2L6,12.6z"/>
</g>
</svg>
