<?xml version="1.0" encoding="utf-8"?>
<!-- Generator: Adobe Illustrator 18.0.0, SVG Export Plug-In . SVG Version: 6.00 Build 0)  -->
<!DOCTYPE svg PUBLIC "-//W3C//DTD SVG 1.1//EN" "http://www.w3.org/Graphics/SVG/1.1/DTD/svg11.dtd">
<svg version="1.1" id="Layer_1" xmlns="http://www.w3.org/2000/svg" xmlns:xlink="http://www.w3.org/1999/xlink" x="0px" y="0px"
	 viewBox="0 0 48 48" enable-background="new 0 0 48 48" xml:space="preserve">
<g>
	<g>
		<path fill="#F7A93B" d="M9.6,26H8.3c-0.8,0-1.5,0.7-1.8,1.7H4.3c-2.1,0-3.8,2.2-3.8,4.9v8.2c0,2.7,1.7,4.9,3.8,4.9h2.3
			c0.2,1,0.9,1.7,1.8,1.7h1.3c1,0,1.9-1.1,1.9-2.5V28.5C11.4,27.1,10.6,26,9.6,26z"/>
		<path fill="#F7A93B" d="M43.7,27.2h-2.3c-0.2-1-0.9-1.7-1.8-1.7h-1.3c-1,0-1.9,1.1-1.9,2.5v16.6c0,1.4,0.8,2.5,1.9,2.5h1.3
			c0.8,0,1.5-0.7,1.8-1.7h2.3c2.1,0,3.8-2.2,3.8-4.9v-8.2C47.5,29.4,45.8,27.2,43.7,27.2z"/>
	</g>
	<path fill="#0DB89A" d="M44,24.7C42-7.6,6-7.6,4,24.7c0.6,0.1,1.3,0.1,1.9,0.2c1.8-29.3,34.4-29.3,36.2,0
		C42.7,24.9,43.3,24.8,44,24.7z"/>
</g>
</svg>
