<?xml version="1.0" encoding="utf-8"?>
<!-- Generator: Adobe Illustrator 18.0.0, SVG Export Plug-In . SVG Version: 6.00 Build 0)  -->
<!DOCTYPE svg PUBLIC "-//W3C//DTD SVG 1.1//EN" "http://www.w3.org/Graphics/SVG/1.1/DTD/svg11.dtd">
<svg version="1.1" id="Layer_1" xmlns="http://www.w3.org/2000/svg" xmlns:xlink="http://www.w3.org/1999/xlink" x="0px" y="0px"
	 viewBox="0 0 48 48" enable-background="new 0 0 48 48" xml:space="preserve">
<g>
	<circle fill="#F04B36" cx="24" cy="18.7" r="2.9"/>
	<path fill="#294E58" d="M39.5,0.5H8.5c-1.4,0-2.6,1.2-2.6,2.6v41.8c0,1.4,1.2,2.6,2.6,2.6h30.9c1.4,0,2.6-1.2,2.6-2.6V3.1
		C42.1,1.7,40.9,0.5,39.5,0.5z M8.3,4.8c0-1.1,0.9-2,2-2c1.1,0,2,0.9,2,2c0,1.1-0.9,2-2,2C9.2,6.8,8.3,5.9,8.3,4.8z M21.5,44.3
		c0,0-9.4,0.1-12-7.8l5.3-2.6c0,0,2,4.2,8,5.4L21.5,44.3z M24.1,32.4l3.5-10.2l-8.9,9.1c-5-2.1-8.5-7-8.5-12.7
		C10.3,11.1,16.4,5,24,5c7.6,0,13.7,6.1,13.7,13.7C37.7,26.2,31.6,32.3,24.1,32.4z M37.1,45.2c-1.1,0-2-0.9-2-2c0-1.1,0.9-2,2-2
		c1.1,0,2,0.9,2,2C39.1,44.3,38.2,45.2,37.1,45.2z M37.1,6.8c-1.1,0-2-0.9-2-2c0-1.1,0.9-2,2-2c1.1,0,2,0.9,2,2
		C39.1,5.9,38.2,6.8,37.1,6.8z"/>
</g>
</svg>
