<?xml version="1.0" encoding="utf-8"?>
<!-- Generator: Adobe Illustrator 18.0.0, SVG Export Plug-In . SVG Version: 6.00 Build 0)  -->
<!DOCTYPE svg PUBLIC "-//W3C//DTD SVG 1.1//EN" "http://www.w3.org/Graphics/SVG/1.1/DTD/svg11.dtd">
<svg version="1.1" id="Layer_1" xmlns="http://www.w3.org/2000/svg" xmlns:xlink="http://www.w3.org/1999/xlink" x="0px" y="0px"
	 viewBox="0 0 48 48" enable-background="new 0 0 48 48" xml:space="preserve">
<g>
	<circle fill="#F7A93B" cx="24" cy="19.9" r="6.4"/>
	<path fill="#F04B36" d="M44.9,47.5L33.6,36.8c5.9-3.3,9.8-9.6,9.8-16.9C43.4,9.2,34.7,0.5,24,0.5C13.3,0.5,4.6,9.2,4.6,19.9
		c0,7.2,4,13.5,9.8,16.9L3.1,47.5H44.9z M12.2,19.9c0-6.5,5.3-11.8,11.8-11.8c6.5,0,11.8,5.3,11.8,11.8c0,6.5-5.3,11.8-11.8,11.8
		C17.5,31.7,12.2,26.4,12.2,19.9z"/>
</g>
</svg>
