<?xml version="1.0" encoding="utf-8"?>
<!-- Generator: Adobe Illustrator 18.0.0, SVG Export Plug-In . SVG Version: 6.00 Build 0)  -->
<!DOCTYPE svg PUBLIC "-//W3C//DTD SVG 1.1//EN" "http://www.w3.org/Graphics/SVG/1.1/DTD/svg11.dtd">
<svg version="1.1" id="Layer_1" xmlns="http://www.w3.org/2000/svg" xmlns:xlink="http://www.w3.org/1999/xlink" x="0px" y="0px"
	 viewBox="0 0 48 48" enable-background="new 0 0 48 48" xml:space="preserve">
<g>
	<path fill="#06728D" d="M45.3,0.8h-8.9v14.9H11.6V0.8H2.7c-1.2,0-2.2,0.9-2.2,2v42.5c0,1.1,1,2,2.2,2h42.6c1.2,0,2.2-0.9,2.2-2V2.8
		C47.5,1.7,46.5,0.8,45.3,0.8z M24,40.7c-4.8,0-8.7-3.9-8.7-8.7c0-4.8,3.9-8.7,8.7-8.7c4.8,0,8.7,3.9,8.7,8.7
		C32.7,36.8,28.8,40.7,24,40.7z"/>
	<rect x="17.8" y="6.1" fill="#F04B36" width="12.4" height="4.5"/>
</g>
</svg>
