<?xml version="1.0" encoding="utf-8"?>
<!-- Generator: Adobe Illustrator 18.0.0, SVG Export Plug-In . SVG Version: 6.00 Build 0)  -->
<!DOCTYPE svg PUBLIC "-//W3C//DTD SVG 1.1//EN" "http://www.w3.org/Graphics/SVG/1.1/DTD/svg11.dtd">
<svg version="1.1" id="Layer_1" xmlns="http://www.w3.org/2000/svg" xmlns:xlink="http://www.w3.org/1999/xlink" x="0px" y="0px"
	 viewBox="0 0 48 48" enable-background="new 0 0 48 48" xml:space="preserve">
<g>
	<path fill="#E77528" d="M35.9,0.5H12.1c-0.9,0-1.6,0.7-1.6,1.6v43.8c0,0.9,0.7,1.6,1.6,1.6h23.8c0.9,0,1.6-0.7,1.6-1.6V2.1
		C37.5,1.2,36.8,0.5,35.9,0.5z M24.9,43c0,0.9-0.4,1.6-0.9,1.6c-0.5,0-0.9-0.7-0.9-1.6V30.2h1.8V43z M24.9,28.5h-1.8v-1.9
		c0-0.9,0.4-1.6,0.9-1.6c0.5,0,0.9,0.7,0.9,1.6V28.5z M34.5,17.8h-21v-5.3h21V17.8z M34.5,10.3h-21V4.9h21V10.3z"/>
</g>
</svg>
