<?xml version="1.0" encoding="utf-8"?>
<!-- Generator: Adobe Illustrator 18.0.0, SVG Export Plug-In . SVG Version: 6.00 Build 0)  -->
<!DOCTYPE svg PUBLIC "-//W3C//DTD SVG 1.1//EN" "http://www.w3.org/Graphics/SVG/1.1/DTD/svg11.dtd">
<svg version="1.1" id="Layer_1" xmlns="http://www.w3.org/2000/svg" xmlns:xlink="http://www.w3.org/1999/xlink" x="0px" y="0px"
	 viewBox="0 0 48 48" enable-background="new 0 0 48 48" xml:space="preserve">
<g>
	
		<ellipse transform="matrix(-0.6937 -0.7202 0.7202 -0.6937 62.8798 52.2349)" fill="#4DA0D8" cx="42.5" cy="12.7" rx="0.6" ry="1.1"/>
	<ellipse fill="none" cx="22.4" cy="41.9" rx="1.6" ry="1.1"/>
	<ellipse transform="matrix(-0.6935 -0.7204 0.7204 -0.6935 62.8685 52.2407)" fill="none" cx="42.5" cy="12.7" rx="1.1" ry="1.9"/>
	<path fill="#E77528" d="M44.3,11.1C44.3,11.1,44.3,11.1,44.3,11.1L44.3,11.1l-6.8-7c-0.7-0.7-1.6-0.9-2.4-0.7l-1.5,1.2
		c-0.5,0.9-0.3,2.1,0.4,2.9l6.7,7l0,0c0,0,0,0,0,0c0.5,0.5,1.7,0.2,2.7-0.7C44.4,12.8,44.8,11.6,44.3,11.1z M43.3,13.5
		c-0.8,0.7-1.7,1-2.1,0.6c-0.4-0.4-0.1-1.4,0.6-2.1c0.8-0.7,1.7-1,2.1-0.6C44.3,11.8,44,12.8,43.3,13.5z"/>
	<ellipse fill="none" cx="22.4" cy="41.9" rx="1.6" ry="1.1"/>
	<path fill="#06728D" d="M22.3,26.6c1.1-1.9,1.6-3.7,1.7-5.4c0.1-3.2,0.3-6.5,0.8-10.7c0.3-3,0.7-5.6,3.1-7.4
		c0.9-0.7,2.3-0.9,3.3-0.5c0.5,0.2,1.6,1.1,2.5,2l1.5-1.2c-1.1-1.1-2.5-2.3-3.3-2.5c-1.7-0.6-3.6-0.3-5.1,0.7
		c-3,2.2-3.6,5.5-3.9,8.7c-0.4,4.3-0.6,7.6-0.8,10.8c-0.1,1.4-0.5,2.9-1.5,4.6c-0.4,0.8-1.9,2.3-2.8,2.9L19,30
		C20.5,29,22,27,22.3,26.6z"/>
	<path fill="#0DB89A" d="M19.2,35c-0.5-1-1-2.5-0.4-4.2c0.1-0.3,0.2-0.6,0.2-0.8l-1.2-1.4c-0.5,0-0.9,0.2-0.9,0.2l-6.6,4V35
		l-3.5,0.7l0.9,1.2c-2.6,1.1-4.1,2.7-4.1,4.4c0,3.4,6.5,6.2,14.5,6.2c8,0,14.5-2.8,14.5-6.2C32.5,38,26.6,35.3,19.2,35z M22.4,43
		c-0.9,0-1.6-0.5-1.6-1.1c0-0.6,0.7-1.1,1.6-1.1c0.9,0,1.6,0.5,1.6,1.1C24,42.5,23.3,43,22.4,43z"/>
</g>
</svg>
