<?xml version="1.0" encoding="utf-8"?>
<!-- Generator: Adobe Illustrator 18.0.0, SVG Export Plug-In . SVG Version: 6.00 Build 0)  -->
<!DOCTYPE svg PUBLIC "-//W3C//DTD SVG 1.1//EN" "http://www.w3.org/Graphics/SVG/1.1/DTD/svg11.dtd">
<svg version="1.1" id="Layer_1" xmlns="http://www.w3.org/2000/svg" xmlns:xlink="http://www.w3.org/1999/xlink" x="0px" y="0px"
	 viewBox="0 0 48 48" enable-background="new 0 0 48 48" xml:space="preserve">
<g>
	<circle fill="#06728D" cx="24" cy="24" r="6.2"/>
	<path fill="#CFD0D1" d="M30.2,35.8c-0.5,0-0.9,0-1.2,0.1v6.2c0.3,0,0.6,0.1,1,0.1c2.2,0,3.4-1.2,3.4-3.4
		C33.4,37,32.3,35.8,30.2,35.8z"/>
	<path fill="#CFD0D1" d="M15.8,35.8c-0.5,0-0.9,0-1.2,0.1v6.2c0.3,0,0.6,0.1,1,0.1c2.2,0,3.4-1.2,3.4-3.4C19,37,17.9,35.8,15.8,35.8
		z"/>
	<path fill="#CFD0D1" d="M24,0.5C11,0.5,0.5,11,0.5,24C0.5,37,11,47.5,24,47.5C37,47.5,47.5,37,47.5,24C47.5,11,37,0.5,24,0.5z
		 M24,15.6c4.7,0,8.4,3.8,8.4,8.4c0,4.7-3.8,8.4-8.4,8.4c-4.7,0-8.4-3.8-8.4-8.4C15.6,19.3,19.3,15.6,24,15.6z M18.9,41.9
		c-0.7,0.7-2,1.1-3.5,1.1c-0.7,0-1.3,0-1.9-0.1v-7.8c0.6-0.1,1.4-0.2,2.2-0.2c1.5,0,2.5,0.3,3.2,1c0.7,0.6,1.1,1.6,1.1,2.8
		C20.1,40.1,19.7,41.2,18.9,41.9z M24.3,43h-1.1L20.5,35h1.1l1.2,3.9c0.3,1.1,0.6,2,0.8,3h0C24,41,24.3,40,24.7,39L26,35h1.1
		L24.3,43z M33.3,41.9c-0.7,0.7-2,1.1-3.5,1.1c-0.7,0-1.3,0-1.9-0.1v-7.8c0.6-0.1,1.4-0.2,2.2-0.2c1.5,0,2.5,0.3,3.2,1
		c0.7,0.6,1.1,1.6,1.1,2.8C34.4,40.1,34,41.2,33.3,41.9z"/>
</g>
</svg>
