<?xml version="1.0" encoding="utf-8"?>
<!-- Generator: Adobe Illustrator 18.0.0, SVG Export Plug-In . SVG Version: 6.00 Build 0)  -->
<!DOCTYPE svg PUBLIC "-//W3C//DTD SVG 1.1//EN" "http://www.w3.org/Graphics/SVG/1.1/DTD/svg11.dtd">
<svg version="1.1" id="Layer_1" xmlns="http://www.w3.org/2000/svg" xmlns:xlink="http://www.w3.org/1999/xlink" x="0px" y="0px"
	 viewBox="0 0 48 48" enable-background="new 0 0 48 48" xml:space="preserve">
<g>
	<path fill="#F04B36" d="M30.8,37C23.9,37.9,11,24.5,10.9,17.5c0-1.4,1.7-3.4,3.6-5.1L5.3,3.3c-2.6,2.6-4.8,6.1-4.8,8.3
		C0.7,24.5,24.4,49,37,47.4c2.2-0.3,5.4-2.6,7.9-5.3l-9.2-9.1C34,35,32.2,36.8,30.8,37z"/>
	<path fill="#0DB89A" d="M14.7,10.3c0.5,0.5,1.4,0.5,1.9,0l0.2-0.2c0.5-0.5,0.5-1.4,0-1.9L9.4,0.9C8.8,0.4,8,0.4,7.5,0.9L7.3,1.1
		C6.8,1.7,6.8,2.5,7.3,3L14.7,10.3z"/>
	<path fill="#0DB89A" d="M47.1,37.9l-7.4-7.3c-0.5-0.5-1.4-0.5-1.9,0l-0.2,0.2c-0.5,0.5-0.5,1.4,0,1.9l7.4,7.3
		c0.5,0.5,1.4,0.5,1.9,0l0.2-0.2C47.6,39.3,47.6,38.4,47.1,37.9z"/>
</g>
</svg>
