<?xml version="1.0" encoding="utf-8"?>
<!-- Generator: Adobe Illustrator 18.0.0, SVG Export Plug-In . SVG Version: 6.00 Build 0)  -->
<!DOCTYPE svg PUBLIC "-//W3C//DTD SVG 1.1//EN" "http://www.w3.org/Graphics/SVG/1.1/DTD/svg11.dtd">
<svg version="1.1" id="Layer_1" xmlns="http://www.w3.org/2000/svg" xmlns:xlink="http://www.w3.org/1999/xlink" x="0px" y="0px"
	 viewBox="0 0 48 48" enable-background="new 0 0 48 48" xml:space="preserve">
<g>
	<path fill="#4DA0D8" d="M45.1,14.9h-0.3v8.9h0.3c1.3,0,2.4-1.1,2.4-2.4v-4.2C47.5,16,46.4,14.9,45.1,14.9z"/>
	<path fill="#E77528" d="M40.9,9.7H15.2V5h-0.9v4.7h-0.8V23h-2.7V9.7H4.5c-1.3,0-2.4,1.1-2.4,2.4L4,27.6h3.5v1.5H10v3.6h1.1v-3.6
		h2.5v-1.5h2.1v-4.4c0-1.6,1.1-3,2.4-3h9.4c1.3,0,2.4,1.3,2.4,3V34H3.5c-1.6,0-3,1.1-3,2.4c0,1.3,1.3,2.4,3,2.4H5V43h38.2v-8.2V34
		V12.1C43.3,10.8,42.2,9.7,40.9,9.7z M35,19.9c-2,0-3.7-1.6-3.7-3.7s1.6-3.7,3.7-3.7c2,0,3.7,1.6,3.7,3.7S37.1,19.9,35,19.9z"/>
</g>
</svg>
