<?xml version="1.0" encoding="utf-8"?>
<!-- Generator: Adobe Illustrator 18.0.0, SVG Export Plug-In . SVG Version: 6.00 Build 0)  -->
<!DOCTYPE svg PUBLIC "-//W3C//DTD SVG 1.1//EN" "http://www.w3.org/Graphics/SVG/1.1/DTD/svg11.dtd">
<svg version="1.1" id="Layer_1" xmlns="http://www.w3.org/2000/svg" xmlns:xlink="http://www.w3.org/1999/xlink" x="0px" y="0px"
	 viewBox="0 0 48 48" enable-background="new 0 0 48 48" xml:space="preserve">
<g>
	<polygon fill="#F7A93B" points="41.4,0.5 10.2,0.5 1.5,18 46.5,18 	"/>
	<path fill="#294E58" d="M31.2,27.5c-3.7,0-6.7,3-6.7,6.7c0,3.7,3,6.7,6.7,6.7c3.7,0,6.7-3,6.7-6.7C37.9,30.5,34.9,27.5,31.2,27.5z
		 M32.9,39.2c1.1-1,1.8-2.4,1.8-3.9c0-2.9-2.4-5.3-5.3-5.3c-0.6,0-1.2,0.1-1.7,0.3c0.9-0.8,2.1-1.3,3.4-1.3c2.9,0,5.3,2.4,5.3,5.3
		C36.4,36.5,35,38.4,32.9,39.2z"/>
	<path fill="#F04B36" d="M44.8,20.9H3.2c-1.4,0-2.6,1.3-2.6,2.9v20.7c0,1.6,1.2,2.9,2.6,2.9h41.5c1.4,0,2.6-1.3,2.6-2.9V23.9
		C47.3,22.3,46.2,20.9,44.8,20.9z M8.1,41.3h-3V38h3V41.3z M8.1,35.8h-3v-3.2h3V35.8z M8.1,30.4h-3v-3.2h3V30.4z M31.2,44.3
		c-5.6,0-10.1-4.5-10.1-10.1c0-5.6,4.5-10.1,10.1-10.1c5.6,0,10.1,4.5,10.1,10.1C41.3,39.8,36.8,44.3,31.2,44.3z"/>
</g>
</svg>
