<?xml version="1.0" encoding="utf-8"?>
<!-- Generator: Adobe Illustrator 18.0.0, SVG Export Plug-In . SVG Version: 6.00 Build 0)  -->
<!DOCTYPE svg PUBLIC "-//W3C//DTD SVG 1.1//EN" "http://www.w3.org/Graphics/SVG/1.1/DTD/svg11.dtd">
<svg version="1.1" id="Layer_1" xmlns="http://www.w3.org/2000/svg" xmlns:xlink="http://www.w3.org/1999/xlink" x="0px" y="0px"
	 viewBox="0 0 48 48" enable-background="new 0 0 48 48" xml:space="preserve">
<g>
	<path fill="#0DB89A" d="M2.2,34.3h15.2l-2,3h-2.7v2.5h22v-2.5H32l-2-3h15.3c1,0,1.7-0.8,1.7-1.8V2.3c0-1-0.8-1.8-1.7-1.8h-43
		c-1,0-1.7,0.8-1.7,1.8v30.3C0.5,33.5,1.3,34.3,2.2,34.3z M23.8,32.6c-0.6,0-1.1-0.5-1.1-1.1c0-0.6,0.5-1.1,1.1-1.1
		c0.6,0,1.1,0.5,1.1,1.1C24.9,32.1,24.4,32.6,23.8,32.6z M2.7,4.4c0-1,0.8-1.8,1.7-1.8h38.7c1,0,1.7,0.8,1.7,1.8v24.5H2.7V4.4z"/>
	<path fill="#294E58" d="M46.6,40.9H1.9c-0.5,0-0.9,0.4-0.9,1v4.6c0,0.5,0.4,1,0.9,1h44.6c0.5,0,0.9-0.4,0.9-1v-4.6
		C47.5,41.4,47.1,40.9,46.6,40.9z M21.5,44.2H3.3v-1.8h18.2V44.2z M28.5,45.1c-0.5,0-0.9-0.4-0.9-0.9c0-0.5,0.4-0.9,0.9-0.9
		c0.5,0,0.9,0.4,0.9,0.9C29.4,44.7,29,45.1,28.5,45.1z M32.1,45.1c-0.5,0-0.9-0.4-0.9-0.9c0-0.5,0.4-0.9,0.9-0.9
		c0.5,0,0.9,0.4,0.9,0.9C33,44.7,32.6,45.1,32.1,45.1z M35.8,45.1c-0.5,0-0.9-0.4-0.9-0.9c0-0.5,0.4-0.9,0.9-0.9
		c0.5,0,0.9,0.4,0.9,0.9C36.7,44.7,36.3,45.1,35.8,45.1z M39.4,45.1c-0.5,0-0.9-0.4-0.9-0.9c0-0.5,0.4-0.9,0.9-0.9
		c0.5,0,0.9,0.4,0.9,0.9C40.3,44.7,39.9,45.1,39.4,45.1z M43,45.1c-0.5,0-0.9-0.4-0.9-0.9c0-0.5,0.4-0.9,0.9-0.9
		c0.5,0,0.9,0.4,0.9,0.9C43.9,44.7,43.5,45.1,43,45.1z"/>
</g>
</svg>
