<?xml version="1.0" encoding="utf-8"?>
<!-- Generator: Adobe Illustrator 18.0.0, SVG Export Plug-In . SVG Version: 6.00 Build 0)  -->
<!DOCTYPE svg PUBLIC "-//W3C//DTD SVG 1.1//EN" "http://www.w3.org/Graphics/SVG/1.1/DTD/svg11.dtd">
<svg version="1.1" id="Layer_1" xmlns="http://www.w3.org/2000/svg" xmlns:xlink="http://www.w3.org/1999/xlink" x="0px" y="0px"
	 viewBox="0 0 48 48" enable-background="new 0 0 48 48" xml:space="preserve">
<g>
	<path fill="#E77528" d="M22.7,21.9l4-5.1c-0.7-0.8-0.6-2.1,0.2-3.2l3.2-4.2c0.8-1.1,2.2-1.5,3.1-1l3.5-4.5C29-2,17.6,0,11,8.5
		c-0.3,0.4-0.6,0.8-0.9,1.3C13.9,14.2,18.1,18.2,22.7,21.9z"/>
	<path fill="#294E58" d="M9.8,10.2C3.3,19.4-4.6,37.6,4.9,45.1c9.6,7.5,25.2-4.6,32.5-13.1C26.9,26.6,17.5,19.2,9.8,10.2z"/>
	<path fill="#0DB89A" d="M47.2,3.8C44.7,1.5,40,1.9,36.7,3.3c-0.1,0.1-0.3,0.2-0.3,0.3c0.2,0.1,0.4,0.2,0.5,0.3
		c0.2,0.2,0.4,0.4,0.5,0.6c-0.1-0.1-0.2-0.2-0.3-0.2l-3.5,4.5c0.7,0.8,0.6,2.2-0.2,3.2l-3.2,4.2c-0.8,1.1-2.2,1.5-3.1,1l-4,5.1
		c4.6,3.6,9.5,6.7,14.7,9.4c0.4-0.4,0.7-0.8,1-1.2c6.4-8.2,5.8-19.5-1.2-25.7c2.8-1,6.5-1.3,8.3,0.2c0,0,0.1,0.1,0.1,0.1
		c0.3,0.3,0.9,0.3,1.1-0.1C47.6,4.6,47.6,4.1,47.2,3.8z"/>
</g>
</svg>
