<?xml version="1.0" encoding="utf-8"?>
<!-- Generator: Adobe Illustrator 18.0.0, SVG Export Plug-In . SVG Version: 6.00 Build 0)  -->
<!DOCTYPE svg PUBLIC "-//W3C//DTD SVG 1.1//EN" "http://www.w3.org/Graphics/SVG/1.1/DTD/svg11.dtd">
<svg version="1.1" id="Layer_1" xmlns="http://www.w3.org/2000/svg" xmlns:xlink="http://www.w3.org/1999/xlink" x="0px" y="0px"
	 viewBox="0 0 48 48" enable-background="new 0 0 48 48" xml:space="preserve">
<g>
	<path fill="#E77528" d="M45.7,12.2H34.8v-1.1H13.2v1.1H2.3c-1,0-1.8,0.8-1.8,1.8v19.8c0,1,0.8,1.8,1.8,1.8h1.2v0.9
		c0,0.3,0.2,0.5,0.5,0.5h11.6c0.3,0,0.5-0.2,0.5-0.5v-0.9h15.9v0.9c0,0.3,0.2,0.5,0.5,0.5H44c0.3,0,0.5-0.2,0.5-0.5v-0.9h1.2
		c1,0,1.8-0.8,1.8-1.8V14C47.5,13,46.7,12.2,45.7,12.2z M43.8,32H4.2V15.7h39.7V32z"/>
	<polygon fill="#4DA0D8" points="8.2,19.7 8.2,19.7 8.2,29.3 9.7,29.3 9.7,18.3 8.4,18.3 6,19.5 6.3,20.7 	"/>
	<path fill="#4DA0D8" d="M20.8,28.1h-5v0l0.9-0.8c2.3-2.2,3.8-3.9,3.8-5.9c0-1.6-1-3.2-3.4-3.2c-1.3,0-2.4,0.5-3.1,1.1l0.5,1.1
		c0.5-0.4,1.3-0.9,2.3-0.9c1.6,0,2.2,1,2.2,2.2c0,1.7-1.3,3.1-4.1,5.8l-1.2,1.1v0.9h7.1V28.1z"/>
	<path fill="#4DA0D8" d="M23.6,23.5c0.6,0,1-0.5,1-1.1c0-0.6-0.4-1.1-1-1.1c-0.6,0-1,0.4-1,1.1C22.5,23,23,23.5,23.6,23.5z"/>
	<path fill="#4DA0D8" d="M23.6,29.5c0.6,0,1-0.5,1-1.1c0-0.6-0.4-1.1-1-1.1c-0.6,0-1,0.4-1,1.1C22.5,29,23,29.5,23.6,29.5z"/>
	<path fill="#4DA0D8" d="M29.4,29.5c2.4,0,3.8-2.1,3.8-5.8c0-3.5-1.3-5.6-3.7-5.6c-2.2,0-3.8,2-3.8,5.7
		C25.8,27.5,27.3,29.5,29.4,29.5z M29.6,19.2c1.5,0,2.2,1.8,2.2,4.5c0,2.8-0.7,4.6-2.3,4.6c-1.4,0-2.2-1.6-2.2-4.5
		C27.3,20.8,28.2,19.2,29.6,19.2z"/>
	<path fill="#4DA0D8" d="M38.2,29.5c2.4,0,3.8-2.1,3.8-5.8c0-3.5-1.3-5.6-3.7-5.6c-2.2,0-3.8,2-3.8,5.7C34.6,27.5,36,29.5,38.2,29.5
		z M38.3,19.2c1.5,0,2.2,1.8,2.2,4.5c0,2.8-0.7,4.6-2.3,4.6c-1.4,0-2.2-1.6-2.2-4.5C36,20.8,37,19.2,38.3,19.2z"/>
</g>
</svg>
