<?xml version="1.0" encoding="utf-8"?>
<!-- Generator: Adobe Illustrator 18.0.0, SVG Export Plug-In . SVG Version: 6.00 Build 0)  -->
<!DOCTYPE svg PUBLIC "-//W3C//DTD SVG 1.1//EN" "http://www.w3.org/Graphics/SVG/1.1/DTD/svg11.dtd">
<svg version="1.1" id="Layer_1" xmlns="http://www.w3.org/2000/svg" xmlns:xlink="http://www.w3.org/1999/xlink" x="0px" y="0px"
	 viewBox="0 0 48 48" enable-background="new 0 0 48 48" xml:space="preserve">
<g>
	<path fill="none" d="M32.5,22.3c0-4.8-1.5-8.7-3.4-9v18.1C31,31,32.5,27.1,32.5,22.3z"/>
	<path fill="#06728D" d="M44.9,42.9L44.4,42l-1.7,0.9l-0.8-1.5l1.7-0.9l-0.5-0.9l-1.7,0.9L41.1,40l-3.5,1.9c-0.7,0.4-1,1.3-0.6,2
		l0.1,0.3c-0.4,0.2-0.7,0.4-1.1,0.6c-0.2,0.1-0.5,0.2-0.7,0.4c0,0,0,0,0,0c-1.9,1-3.9,1.4-5.8,0.5l-0.7,1.3c1,0.5,2,0.7,3,0.7
		c1.5,0,2.9-0.5,4.3-1.3c0,0,0,0,0,0c0.2-0.1,0.4-0.2,0.6-0.3c0.4-0.2,0.8-0.4,1.2-0.6l0.2,0.4c0.4,0.7,1.3,1,2,0.6l3.5-1.9
		l-0.4-0.7L44.9,42.9z"/>
	<path fill="none" d="M32.5,22.3c0-4.8-1.5-8.7-3.4-9v18.1C31,31,32.5,27.1,32.5,22.3z"/>
	<path fill="#A61E23" d="M34.6,22.1c0-7-3-12.7-6.7-13.2l1.2,4.4c1.9,0.4,3.4,4.3,3.4,9c0,4.8-1.5,8.7-3.4,9l0.3,3.4
		C32.4,33.2,34.6,28.1,34.6,22.1z"/>
	<path fill="#F04B36" d="M6.4,43.7c-0.8,0-1.5,0.7-1.5,1.5v0.4C5,46.3,5.6,47,6.4,47H28c0.3,0,0.5-0.1,0.7-0.2l0.7-1.3v-0.4
		c0-0.8-0.7-1.5-1.5-1.5h-2H8.4H6.4z"/>
	<path fill="#0DB89A" d="M29.7,40l-0.3-5.2l-0.3-3.4V13.3l-1.2-4.4c-0.6-2.3-3.3-4.2-6.3-5.5c0,0,0,0,0,0c0.2-1.2-1.3-2.4-3.2-2.7
		c-1.6-0.2-3.1,0.3-3.6,1.2c-3.8,0-7.1,2.4-8.2,5.6L3.1,6.9c0,0,1.4,4.5,3,6.6L4.8,40c0,1.7,1.1,3,2.6,3.5l1.1,0.2H26
		C28.1,43.7,29.7,42,29.7,40z"/>
	<path fill="#B58A3B" d="M8.4,43.7l-1.1-0.2C7.7,43.6,8.1,43.7,8.4,43.7z"/>
</g>
</svg>
