<?xml version="1.0" encoding="utf-8"?>
<!-- Generator: Adobe Illustrator 18.0.0, SVG Export Plug-In . SVG Version: 6.00 Build 0)  -->
<!DOCTYPE svg PUBLIC "-//W3C//DTD SVG 1.1//EN" "http://www.w3.org/Graphics/SVG/1.1/DTD/svg11.dtd">
<svg version="1.1" id="Layer_1" xmlns="http://www.w3.org/2000/svg" xmlns:xlink="http://www.w3.org/1999/xlink" x="0px" y="0px"
	 viewBox="0 0 48 48" enable-background="new 0 0 48 48" xml:space="preserve">
<g>
	<path fill="#CFD0D1" d="M44.2,19v-5.3H0.5v20.4h43.7V29h3.3V19H44.2z M42.5,32.5H2.2v-17h40.3V32.5z"/>
	<path fill="#0DB89A" d="M41.7,16.3H3.1v15.3h38.6V16.3z M11,24.4H7.6c-0.2,0-0.4-0.2-0.4-0.4c0-0.2,0.2-0.4,0.4-0.4H11
		c0.2,0,0.4,0.2,0.4,0.4C11.4,24.2,11.2,24.4,11,24.4z M36.3,24.4H35v1.3c0,0.2-0.2,0.4-0.4,0.4c-0.2,0-0.4-0.2-0.4-0.4v-1.3h-1.3
		c-0.2,0-0.4-0.2-0.4-0.4c0-0.2,0.2-0.4,0.4-0.4h1.3v-1.3c0-0.2,0.2-0.4,0.4-0.4c0.2,0,0.4,0.2,0.4,0.4v1.3h1.3
		c0.2,0,0.4,0.2,0.4,0.4C36.7,24.2,36.5,24.4,36.3,24.4z"/>
</g>
</svg>
