<?xml version="1.0" encoding="utf-8"?>
<!-- Generator: Adobe Illustrator 18.0.0, SVG Export Plug-In . SVG Version: 6.00 Build 0)  -->
<!DOCTYPE svg PUBLIC "-//W3C//DTD SVG 1.1//EN" "http://www.w3.org/Graphics/SVG/1.1/DTD/svg11.dtd">
<svg version="1.1" id="Layer_1" xmlns="http://www.w3.org/2000/svg" xmlns:xlink="http://www.w3.org/1999/xlink" x="0px" y="0px"
	 viewBox="0 0 48 48" enable-background="new 0 0 48 48" xml:space="preserve">
<g>
	<path fill="#06728D" d="M43.5,19.8h-39H3H0.5v16.3h47V19.8h-3.4H43.5z M10.3,24H6.9c-0.2,0-0.4-0.2-0.4-0.4c0-0.2,0.2-0.4,0.4-0.4
		h3.3c0.2,0,0.4,0.2,0.4,0.4C10.7,23.8,10.5,24,10.3,24z M41.7,24h-1.3v1.3c0,0.2-0.2,0.4-0.4,0.4c-0.2,0-0.4-0.2-0.4-0.4V24h-1.3
		c-0.2,0-0.4-0.2-0.4-0.4c0-0.2,0.2-0.4,0.4-0.4h1.3v-1.3c0-0.2,0.2-0.4,0.4-0.4c0.2,0,0.4,0.2,0.4,0.4v1.3h1.3
		c0.2,0,0.4,0.2,0.4,0.4C42.1,23.8,42,24,41.7,24z"/>
	<path fill="#F04B36" d="M44.8,14.4v-2.5h-2.9v2.5h-3.8v-0.5c0-0.5-0.4-0.8-0.8-0.8h-4.1c-0.5,0-0.8,0.4-0.8,0.8v0.5h-5.4v-0.5
		c0-0.5-0.4-0.8-0.8-0.8h-4.1c-0.5,0-0.8,0.4-0.8,0.8v0.5h-5.4v-0.5c0-0.5-0.4-0.8-0.8-0.8h-4.1c-0.5,0-0.8,0.4-0.8,0.8v0.5H6.1
		v-2.5H3.2v2.5H0.5v4.2h4v-0.8h39v0.8h4v-4.2H44.8z"/>
</g>
</svg>
