<?xml version="1.0" encoding="utf-8"?>
<!-- Generator: Adobe Illustrator 18.0.0, SVG Export Plug-In . SVG Version: 6.00 Build 0)  -->
<!DOCTYPE svg PUBLIC "-//W3C//DTD SVG 1.1//EN" "http://www.w3.org/Graphics/SVG/1.1/DTD/svg11.dtd">
<svg version="1.1" id="Layer_1" xmlns="http://www.w3.org/2000/svg" xmlns:xlink="http://www.w3.org/1999/xlink" x="0px" y="0px"
	 viewBox="0 0 48 48" enable-background="new 0 0 48 48" xml:space="preserve">
<g>
	<path fill="#06728D" d="M21.2,19.8C21.2,19.8,21.2,19.7,21.2,19.8c0-1.6,1.2-2.8,2.8-2.8c1.5,0,2.8,1.3,2.8,2.8c0,0,0,0,0,0h5
		c0,0,0,0,0,0c0-4.3-3.5-7.8-7.8-7.8c-4.3,0-7.8,3.5-7.8,7.8c0,0,0,0,0,0H21.2z"/>
	<path fill="#A61E23" d="M22.7,19.7C22.7,19.7,22.7,19.8,22.7,19.7l2.6,0c0,0,0,0,0,0c0-0.7-0.6-1.3-1.3-1.3
		C23.3,18.4,22.7,19,22.7,19.7z"/>
	<path fill="#CFD0D1" d="M46.5,29.4H1.5c-0.5,0-1,0.4-1,1v4.7c0,0.5,0.4,1,1,1h45.1c0.5,0,1-0.4,1-1v-4.7
		C47.5,29.9,47.1,29.4,46.5,29.4z M21.2,32.7H2.8V31h18.4V32.7z M28.3,33.7c-0.5,0-0.9-0.4-0.9-0.9c0-0.5,0.4-0.9,0.9-0.9
		c0.5,0,0.9,0.4,0.9,0.9C29.2,33.2,28.8,33.7,28.3,33.7z M32,33.7c-0.5,0-0.9-0.4-0.9-0.9c0-0.5,0.4-0.9,0.9-0.9
		c0.5,0,0.9,0.4,0.9,0.9C32.9,33.2,32.5,33.7,32,33.7z M35.6,33.7c-0.5,0-0.9-0.4-0.9-0.9c0-0.5,0.4-0.9,0.9-0.9
		c0.5,0,0.9,0.4,0.9,0.9C36.6,33.2,36.1,33.7,35.6,33.7z M39.3,33.7c-0.5,0-0.9-0.4-0.9-0.9c0-0.5,0.4-0.9,0.9-0.9
		c0.5,0,0.9,0.4,0.9,0.9C40.2,33.2,39.8,33.7,39.3,33.7z M43,33.7c-0.5,0-0.9-0.4-0.9-0.9c0-0.5,0.4-0.9,0.9-0.9
		c0.5,0,0.9,0.4,0.9,0.9C43.9,33.2,43.5,33.7,43,33.7z"/>
	<polygon fill="#E77528" points="40.4,21.1 9.5,21.1 2.1,28 45.9,28 	"/>
</g>
</svg>
