<?xml version="1.0" encoding="utf-8"?>
<!-- Generator: Adobe Illustrator 18.0.0, SVG Export Plug-In . SVG Version: 6.00 Build 0)  -->
<!DOCTYPE svg PUBLIC "-//W3C//DTD SVG 1.1//EN" "http://www.w3.org/Graphics/SVG/1.1/DTD/svg11.dtd">
<svg version="1.1" id="Layer_1" xmlns="http://www.w3.org/2000/svg" xmlns:xlink="http://www.w3.org/1999/xlink" x="0px" y="0px"
	 viewBox="0 0 48 48" enable-background="new 0 0 48 48" xml:space="preserve">
<g>
	<rect x="29.7" y="30.1" fill="#0DB89A" width="2.9" height="1.5"/>
	<rect x="26.1" y="30.1" fill="#0DB89A" width="2.9" height="1.5"/>
	<rect x="22.6" y="30.1" fill="#0DB89A" width="2.9" height="1.5"/>
	<rect x="11.9" y="30.1" fill="#0DB89A" width="2.9" height="1.5"/>
	<rect x="15.4" y="30.1" fill="#0DB89A" width="2.9" height="1.5"/>
	<rect x="29.7" y="24.4" fill="#0DB89A" width="2.9" height="1.5"/>
	<rect x="33.3" y="24.4" fill="#0DB89A" width="2.9" height="1.5"/>
	<rect x="36.8" y="27.2" fill="#0DB89A" width="2.9" height="1.5"/>
	<rect x="36.8" y="30.1" fill="#0DB89A" width="2.9" height="1.5"/>
	<rect x="33.3" y="30.1" fill="#0DB89A" width="2.9" height="1.5"/>
	<rect x="15.4" y="27.2" fill="#0DB89A" width="2.9" height="1.5"/>
	<rect x="22.6" y="27.2" fill="#0DB89A" width="2.9" height="1.5"/>
	<rect x="8.3" y="30.1" fill="#0DB89A" width="2.9" height="1.5"/>
	<rect x="33.3" y="27.2" fill="#0DB89A" width="2.9" height="1.5"/>
	<rect x="29.7" y="27.2" fill="#0DB89A" width="2.9" height="1.5"/>
	<rect x="36.8" y="24.4" fill="#0DB89A" width="2.9" height="1.5"/>
	<rect x="26.1" y="27.2" fill="#0DB89A" width="2.9" height="1.5"/>
	<rect x="19" y="27.2" fill="#0DB89A" width="2.9" height="1.5"/>
	<rect x="11.9" y="27.2" fill="#0DB89A" width="2.9" height="1.5"/>
	<rect x="8.3" y="27.2" fill="#0DB89A" width="2.9" height="1.5"/>
	<rect x="26.1" y="24.4" fill="#0DB89A" width="2.9" height="1.5"/>
	<rect x="19" y="30.1" fill="#0DB89A" width="2.9" height="1.5"/>
	<rect x="36.8" y="33" fill="#0DB89A" width="2.9" height="1.5"/>
	<rect x="40.4" y="33" fill="#0DB89A" width="2.9" height="1.5"/>
	<rect x="33.3" y="33" fill="#0DB89A" width="2.9" height="1.5"/>
	<rect x="29.7" y="33" fill="#0DB89A" width="2.9" height="1.5"/>
	<path fill="#465E6B" d="M45.6,16.5H24.3c0-0.4,0-0.8-0.1-1.1c-0.3-0.9-3.7-3.4-4.9-3.9c-1-0.4-1.7-1-2.6-1.9
		c-0.2-0.2-0.5-0.2-0.7,0s-0.2,0.5,0,0.7c0.8,0.8,1.7,1.6,2.9,2.1c1.1,0.4,4.1,2.8,4.3,3.3c0.1,0.2,0.1,0.5,0,0.8H2.4
		c-1.1,0-1.9,0.9-1.9,1.9v18.3c0,1.1,0.9,1.9,1.9,1.9h43.1c1.1,0,1.9-0.9,1.9-1.9V18.4C47.5,17.3,46.6,16.5,45.6,16.5z M44,24.4v1.5
		v1.4v1.5v1.4v1.5V33v1.5v1.4h-0.7h-2.9h-0.7h-2.9h-0.7h-2.9h-0.7h-2.9H29h-2.9h-0.7H8.3H7.6H4.7H4v-1.4V33v-1.4v-1.5v-1.4v-1.5
		v-1.4v-1.5V23h0.7h2.9h0.7h2.9h0.7h2.9h0.7h2.9H19h2.9h0.7h2.9h0.7H29h0.7h2.9h0.7h2.9h0.7h2.9h0.7h2.9H44V24.4z M44,20.6H4v-1.2
		H44V20.6z"/>
	<rect x="26.1" y="33" fill="#0DB89A" width="2.9" height="1.5"/>
	<rect x="40.4" y="24.4" fill="#0DB89A" width="2.9" height="1.5"/>
	<rect x="40.4" y="27.2" fill="#0DB89A" width="2.9" height="1.5"/>
	<rect x="40.4" y="30.1" fill="#0DB89A" width="2.9" height="1.5"/>
	<rect x="19" y="24.4" fill="#0DB89A" width="2.9" height="1.5"/>
	<rect x="15.4" y="24.4" fill="#0DB89A" width="2.9" height="1.5"/>
	<rect x="8.3" y="24.4" fill="#0DB89A" width="2.9" height="1.5"/>
	<rect x="11.9" y="24.4" fill="#0DB89A" width="2.9" height="1.5"/>
	<rect x="22.6" y="24.4" fill="#0DB89A" width="2.9" height="1.5"/>
	<rect x="4.7" y="30.1" fill="#0DB89A" width="2.9" height="1.5"/>
	<rect x="4.7" y="24.4" fill="#0DB89A" width="2.9" height="1.5"/>
	<rect x="8.3" y="33" fill="#0DB89A" width="17.1" height="1.5"/>
	<rect x="4.7" y="33" fill="#0DB89A" width="2.9" height="1.5"/>
	<rect x="4.7" y="27.2" fill="#0DB89A" width="2.9" height="1.5"/>
</g>
</svg>
