<?xml version="1.0" encoding="utf-8"?>
<!-- Generator: Adobe Illustrator 18.0.0, SVG Export Plug-In . SVG Version: 6.00 Build 0)  -->
<!DOCTYPE svg PUBLIC "-//W3C//DTD SVG 1.1//EN" "http://www.w3.org/Graphics/SVG/1.1/DTD/svg11.dtd">
<svg version="1.1" id="Layer_1" xmlns="http://www.w3.org/2000/svg" xmlns:xlink="http://www.w3.org/1999/xlink" x="0px" y="0px"
	 viewBox="0 0 48 48" enable-background="new 0 0 48 48" xml:space="preserve">
<g>
	<path fill="#CFD0D1" d="M47,10.4L37.6,1C37,0.3,36,0.3,35.3,1L1,35.4C0.3,36,0.3,37,1,37.6l9.4,9.4c0.6,0.6,1.6,0.6,2.3,0L47,12.6
		C47.7,12,47.7,11,47,10.4z M34.9,4.3c0.6-0.6,1.6-0.6,2.2,0c0.6,0.6,0.6,1.6,0,2.2c-0.6,0.6-1.6,0.6-2.2,0
		C34.3,5.9,34.3,4.9,34.9,4.3z M21.1,18.1c0.6-0.6,1.6-0.6,2.2,0c0.6,0.6,0.6,1.6,0,2.2c-0.6,0.6-1.6,0.6-2.2,0
		C20.5,19.7,20.5,18.7,21.1,18.1z M9.2,34.4c-0.6,0.6-1.6,0.6-2.2,0c-0.6-0.6-0.6-1.6,0-2.2c0.6-0.6,1.6-0.6,2.2,0
		C9.9,32.8,9.9,33.8,9.2,34.4z M12.7,37.8c-0.6,0.6-1.6,0.6-2.2,0c-0.6-0.6-0.6-1.6,0-2.2c0.6-0.6,1.6-0.6,2.2,0
		C13.3,36.2,13.3,37.2,12.7,37.8z M14.4,25c1-1,2.4-1.3,3.8-1.1l0,1.6c-1.1-0.2-2,0-2.7,0.6c-0.6,0.6-0.8,1.6-0.6,2.7l-1.6,0
		C13.1,27.3,13.4,25.9,14.4,25z M16.1,41.2c-0.6,0.6-1.6,0.6-2.2,0c-0.6-0.6-0.6-1.6,0-2.2c0.6-0.6,1.6-0.6,2.2,0
		C16.7,39.7,16.7,40.6,16.1,41.2z M15.4,32.7c-0.9-0.9-1.5-1.9-1.8-2.9l1.7,0c0.3,0.6,0.7,1.2,1.2,1.8c0.5,0.5,1.1,0.9,1.8,1.2
		l0,1.7C17.2,34.2,16.2,33.6,15.4,32.7z M19.3,24.1c1,0.3,2,0.9,2.9,1.8c0.9,0.9,1.5,1.9,1.8,2.9l-1.7,0c-0.3-0.6-0.7-1.2-1.2-1.8
		c-0.5-0.5-1.1-0.9-1.8-1.2L19.3,24.1z M23.1,33.6c-1,1-2.4,1.3-3.8,1.1l0-1.6c1.1,0.2,2,0,2.7-0.6c0.6-0.6,0.8-1.6,0.6-2.7l1.6,0
		C24.5,31.3,24.1,32.7,23.1,33.6z M26.8,23.7c-0.6,0.6-1.6,0.6-2.2,0c-0.6-0.6-0.6-1.6,0-2.2c0.6-0.6,1.6-0.6,2.2,0
		C27.4,22.1,27.4,23.1,26.8,23.7z M25.2,16.2c-0.6-0.6-0.6-1.6,0-2.2c0.6-0.6,1.6-0.6,2.2,0c0.6,0.6,0.6,1.6,0,2.2
		C26.8,16.8,25.8,16.8,25.2,16.2z M30.2,27.1c-0.6,0.6-1.6,0.6-2.2,0c-0.6-0.6-0.6-1.6,0-2.2c0.6-0.6,1.6-0.6,2.2,0
		C30.8,25.6,30.8,26.5,30.2,27.1z M30.9,19.6c-0.6,0.6-1.6,0.6-2.2,0c-0.6-0.6-0.6-1.6,0-2.2c0.6-0.6,1.6-0.6,2.2,0
		C31.5,18,31.5,19,30.9,19.6z M29.3,12.1c-0.6-0.6-0.6-1.6,0-2.2c0.6-0.6,1.6-0.6,2.2,0c0.6,0.6,0.6,1.6,0,2.2
		C30.9,12.7,29.9,12.7,29.3,12.1z M34.3,23c-0.6,0.6-1.6,0.6-2.2,0c-0.6-0.6-0.6-1.6,0-2.2c0.6-0.6,1.6-0.6,2.2,0
		C34.9,21.5,34.9,22.4,34.3,23z M35,15.5c-0.6,0.6-1.6,0.6-2.2,0c-0.6-0.6-0.6-1.6,0-2.2c0.6-0.6,1.6-0.6,2.2,0
		C35.6,13.9,35.6,14.9,35,15.5z M38.4,18.9c-0.6,0.6-1.6,0.6-2.2,0c-0.6-0.6-0.6-1.6,0-2.2c0.6-0.6,1.6-0.6,2.2,0
		C39,17.3,39,18.3,38.4,18.9z M43.7,13c-0.6,0.6-1.6,0.6-2.2,0c-0.6-0.6-0.6-1.6,0-2.2c0.6-0.6,1.6-0.6,2.2,0
		C44.3,11.5,44.3,12.4,43.7,13z"/>
	<circle fill="#F04B36" cx="36" cy="5.4" r="1.1"/>
</g>
</svg>
