<?xml version="1.0" encoding="utf-8"?>
<!-- Generator: Adobe Illustrator 18.0.0, SVG Export Plug-In . SVG Version: 6.00 Build 0)  -->
<!DOCTYPE svg PUBLIC "-//W3C//DTD SVG 1.1//EN" "http://www.w3.org/Graphics/SVG/1.1/DTD/svg11.dtd">
<svg version="1.1" id="Layer_1" xmlns="http://www.w3.org/2000/svg" xmlns:xlink="http://www.w3.org/1999/xlink" x="0px" y="0px"
	 viewBox="0 0 48 48" enable-background="new 0 0 48 48" xml:space="preserve">
<g>
	<path fill="#0DB89A" d="M45.3,23.8v-0.5c0,0,0,0,0-0.1c0,0,0-0.1,0-0.1c0-3.2-1.8-6.1-4.7-8.4l-1,1.6H6.1l-1-1.6
		C2.3,17,0.5,20,0.5,23.1c0,0,0,0.1,0,0.1c0,0,0,0,0,0.1v19.2c0,1.6,1.2,2.9,2.6,2.9h1.1v2.1h37.4v-2.1h1.1c1.4,0,2.6-1.3,2.6-2.9
		V25.3c0.7,0.2,1.4,0.3,2.2,0.3v-1.5C46.8,24.1,46.1,24,45.3,23.8z M35.8,41.4c-3.1,0-5.7-2.9-5.7-6.4c0-3.6,2.6-6.4,5.7-6.4
		c3.1,0,5.7,2.9,5.7,6.4C41.5,38.5,39,41.4,35.8,41.4z"/>
	<ellipse fill="#F04B36" cx="36" cy="35" rx="3.3" ry="3.8"/>
	<path fill="#F7A93B" d="M32.7,14.7l1.9-5.2c0.8,0.1,1.4,0.1,1.5-0.2c0.3-0.9-3.5-3.5-8.4-5.8c-5-2.3-9.3-3.5-9.6-2.6
		C18,1.1,18.3,1.6,19,2.1l-4.6,12.5H32.7z"/>
</g>
</svg>
