<?xml version="1.0" encoding="utf-8"?>
<!-- Generator: Adobe Illustrator 18.0.0, SVG Export Plug-In . SVG Version: 6.00 Build 0)  -->
<!DOCTYPE svg PUBLIC "-//W3C//DTD SVG 1.1//EN" "http://www.w3.org/Graphics/SVG/1.1/DTD/svg11.dtd">
<svg version="1.1" id="Layer_1" xmlns="http://www.w3.org/2000/svg" xmlns:xlink="http://www.w3.org/1999/xlink" x="0px" y="0px"
	 viewBox="0 0 48 48" enable-background="new 0 0 48 48" xml:space="preserve">
<g>
	<path fill="#F04B36" d="M25.3,38.9c6.2-0.7,11-6,11-12.5h-1.7c0,6-4.8,10.9-10.6,10.9c-5.8,0-10.6-4.9-10.6-10.9h-1.7
		c0,6.5,4.8,11.9,11,12.5v5.5h-7.5v3.1h17.5v-3.1h-7.5V38.9z"/>
	<path fill="#4DA0D8" d="M20.7,25c0,0.5-0.5,1-1.2,1h-3.6c0.4,4.9,3.8,8.7,8.1,8.7s7.7-3.9,8.1-8.7h-3.6c-0.6,0-1.2-0.4-1.2-1
		c0-0.5,0.5-1,1.2-1h3.7v-2.9h-3.7c-0.6,0-1.2-0.4-1.2-1c0-0.5,0.5-1,1.2-1h3.7v-2.9h-3.7c-0.6,0-1.2-0.4-1.2-1c0-0.5,0.5-1,1.2-1
		h3.7v-2.9h-3.7c-0.6,0-1.2-0.4-1.2-1c0-0.5,0.5-1,1.2-1h3.6c-0.3-4.9-3.8-8.8-8.1-8.8c-4.3,0-7.8,3.9-8.1,8.8h3.6
		c0.6,0,1.2,0.4,1.2,1c0,0.5-0.5,1-1.2,1h-3.7v2.9h3.7c0.6,0,1.2,0.4,1.2,1c0,0.5-0.5,1-1.2,1h-3.7v2.9h3.7c0.6,0,1.2,0.4,1.2,1
		c0,0.5-0.5,1-1.2,1h-3.7V24h3.7C20.2,24,20.7,24.4,20.7,25z"/>
</g>
</svg>
