<?xml version="1.0" encoding="utf-8"?>
<!-- Generator: Adobe Illustrator 18.0.0, SVG Export Plug-In . SVG Version: 6.00 Build 0)  -->
<!DOCTYPE svg PUBLIC "-//W3C//DTD SVG 1.1//EN" "http://www.w3.org/Graphics/SVG/1.1/DTD/svg11.dtd">
<svg version="1.1" id="Layer_1" xmlns="http://www.w3.org/2000/svg" xmlns:xlink="http://www.w3.org/1999/xlink" x="0px" y="0px"
	 viewBox="0 0 48 48" enable-background="new 0 0 48 48" xml:space="preserve">
<g>
	<path fill="#F04B36" d="M46,5.6c-2.9-5-9.1-6.6-13.9-3.6c-3.2,2.1-4.9,5.7-4.8,9.3l0,0c0,1.8,0.5,3.6,1.5,5.3
		c2.9,5.1,9.1,6.6,13.9,3.6c2.1-1.4,3.6-3.5,4.3-5.8C47.9,11.6,47.6,8.4,46,5.6z"/>
	<path fill="#06728D" d="M27.5,17.5c-0.9-1.6-1.5-3.4-1.6-5.2L6.4,24.9c-2.1,1.4-3,4-2.4,6.2c-2,1.3-3.1,2.6-3.4,4
		c-0.4,1.8,0.6,3.4,1.7,5.1c1.2,2,2.6,4.2,2.5,7.3l1.5,0c0-3.6-1.5-6.1-2.8-8.2c-0.9-1.5-1.7-2.7-1.4-3.8c0.2-0.9,1.1-1.8,2.6-2.9
		c1.5,2.2,4.5,2.8,6.9,1.2l19.4-12.6C29.6,20.4,28.4,19.1,27.5,17.5z M16.8,26.3l-1.5-2.6l6-3.9l1.5,2.6L16.8,26.3z"/>
</g>
</svg>
