<?xml version="1.0" encoding="utf-8"?>
<!-- Generator: Adobe Illustrator 18.0.0, SVG Export Plug-In . SVG Version: 6.00 Build 0)  -->
<!DOCTYPE svg PUBLIC "-//W3C//DTD SVG 1.1//EN" "http://www.w3.org/Graphics/SVG/1.1/DTD/svg11.dtd">
<svg version="1.1" id="Layer_1" xmlns="http://www.w3.org/2000/svg" xmlns:xlink="http://www.w3.org/1999/xlink" x="0px" y="0px"
	 viewBox="0 0 48 48" enable-background="new 0 0 48 48" xml:space="preserve">
<g>
	<path fill="#CFD0D1" d="M33.4,0.5c-0.3,0-0.6,0.3-0.6,0.6s0.3,0.6,0.6,0.6c4.8,0,8.7,3.9,8.7,8.7c0,0.3,0.3,0.6,0.6,0.6
		c0.3,0,0.6-0.3,0.6-0.6C43.3,5,38.9,0.5,33.4,0.5z"/>
	<path fill="#CFD0D1" d="M33.4,5.9c-0.3,0-0.6,0.3-0.6,0.6c0,0.3,0.3,0.6,0.6,0.6c1.8,0,3.3,1.5,3.3,3.3c0,0.3,0.3,0.6,0.6,0.6
		c0.3,0,0.6-0.3,0.6-0.6C37.9,7.9,35.9,5.9,33.4,5.9z"/>
	<path fill="#CFD0D1" d="M33.4,3.3c-0.3,0-0.6,0.3-0.6,0.6c0,0.3,0.3,0.6,0.6,0.6c3.3,0,5.9,2.6,5.9,5.9c0,0.3,0.3,0.6,0.6,0.6
		c0.3,0,0.6-0.3,0.6-0.6C40.5,6.5,37.3,3.3,33.4,3.3z"/>
	<path fill="#0DB89A" d="M6.4,15.3C6.4,15.4,6.3,15.4,6.4,15.3C2.7,19.2,5.2,27.5,12,33.9c0.8,0.8,1.7,1.5,2.6,2.2L8.3,47.5h13.1
		l-5.3-10.3c5.7,3.7,11.6,4.5,14.5,1.6c-3.1-0.3-8.8-3.8-14.4-9.1C10.4,24.1,6.5,18.3,6.4,15.3z"/>
	<path fill="#E77528" d="M32.1,11.5l-8.5,8.6c-5.9-5.3-11.9-8.1-13.8-6.2c-1.9,2,1.5,8.4,7.7,14.3c6.2,5.9,12.8,9,14.7,7
		c1.9-2-1.4-8.1-7.2-13.8l8.5-8.6c0.4-0.4,0.4-1,0-1.4C33.1,11.1,32.5,11.1,32.1,11.5z"/>
</g>
</svg>
