<?xml version="1.0" encoding="utf-8"?>
<!-- Generator: Adobe Illustrator 18.0.0, SVG Export Plug-In . SVG Version: 6.00 Build 0)  -->
<!DOCTYPE svg PUBLIC "-//W3C//DTD SVG 1.1//EN" "http://www.w3.org/Graphics/SVG/1.1/DTD/svg11.dtd">
<svg version="1.1" id="Layer_1" xmlns="http://www.w3.org/2000/svg" xmlns:xlink="http://www.w3.org/1999/xlink" x="0px" y="0px"
	 viewBox="0 0 48 48" enable-background="new 0 0 48 48" xml:space="preserve">
<g>
	<rect x="0.5" y="13" fill="#010101" width="5.7" height="22.1"/>
	<path fill="#CFD0D1" d="M41.3,24c0-5.7-3.4-10.9-8.4-12.9c-0.5-0.2-1.1,0.1-1.2,0.6c-0.2,0.5,0.1,1.1,0.6,1.3
		c4.3,1.7,7.2,6.2,7.2,11c0,4.9-2.9,9.3-7.2,11c-0.5,0.2-0.7,0.8-0.6,1.3c0.1,0.4,0.5,0.7,0.9,0.7c0.1,0,0.2,0,0.3-0.1
		C37.9,34.9,41.3,29.7,41.3,24z"/>
	<path fill="#CFD0D1" d="M36.7,7.4c-0.5-0.2-1.1,0.1-1.2,0.6c-0.2,0.5,0.1,1.1,0.6,1.3c5.7,2.3,9.6,8.2,9.6,14.7
		c0,6.5-3.8,12.4-9.6,14.7c-0.5,0.2-0.7,0.8-0.6,1.3c0.1,0.4,0.5,0.7,0.9,0.7c0.1,0,0.2,0,0.3-0.1C43.2,38,47.5,31.3,47.5,24
		C47.5,16.7,43.2,10,36.7,7.4z"/>
	<rect x="0.5" y="13" fill="#06728D" width="5.7" height="22.1"/>
	<path fill="#CFD0D1" d="M33.2,23.9c0-3.7-2.1-7.1-5.4-8.6v2.3c2.1,1.3,3.4,3.7,3.4,6.4c0,2.6-1.3,5-3.4,6.4v2.3
		C31.1,31.1,33.2,27.7,33.2,23.9z"/>
	<polygon fill="#F7A93B" points="27.9,17.6 27.9,15.3 27.9,0.5 8.2,13 8.2,13 8.2,13 8.2,35 8.2,35 27.9,47.5 27.9,32.6 27.9,30.3 	
		"/>
	<g>
		
			<rect x="22.3" y="-2.3" transform="matrix(0.7261 0.6876 -0.6876 0.7261 22.3265 -9.6304)" fill="#F04B36" width="2" height="51"/>
	</g>
</g>
</svg>
