<?xml version="1.0" encoding="utf-8"?>
<!-- Generator: Adobe Illustrator 18.0.0, SVG Export Plug-In . SVG Version: 6.00 Build 0)  -->
<!DOCTYPE svg PUBLIC "-//W3C//DTD SVG 1.1//EN" "http://www.w3.org/Graphics/SVG/1.1/DTD/svg11.dtd">
<svg version="1.1" id="Layer_1" xmlns="http://www.w3.org/2000/svg" xmlns:xlink="http://www.w3.org/1999/xlink" x="0px" y="0px"
	 viewBox="0 0 48 48" enable-background="new 0 0 48 48" xml:space="preserve">
<g>
	<ellipse fill="#F04B36" cx="11.7" cy="13.9" rx="5.4" ry="5.8"/>
	<rect x="26.6" y="25.9" fill="none" width="17.4" height="14.3"/>
	<ellipse fill="none" cx="11.7" cy="13.9" rx="9" ry="9.6"/>
	<rect x="8.9" y="39.9" fill="none" width="5.5" height="2.9"/>
	<path fill="#06728D" d="M19.8,22.2c1.9-2.1,3.1-5,3.1-8.2s-1.2-6.1-3.1-8.2V3.2c0-1.5-1.1-2.7-2.5-2.7H6.1c-1.4,0-2.5,1.2-2.5,2.7
		v2.5c-1.9,2.1-3.1,5-3.1,8.2s1.2,6.1,3.1,8.2v22.6c0,1.5,1.1,2.7,2.5,2.7h11.2c1.4,0,2.5-1.2,2.5-2.7V37v-7.3V22.2z M14.4,42.8H8.9
		v-2.9h5.5V42.8z M11.7,23.5c-4.9,0-9-4.3-9-9.6s4-9.6,9-9.6c4.9,0,9,4.3,9,9.6C20.6,19.2,16.6,23.5,11.7,23.5z"/>
	<rect x="26.6" y="25.9" fill="none" width="17.4" height="14.3"/>
	<path fill="#E77528" d="M45,23.5H25.8c-1.4,0-2.5,1.2-2.5,2.7v3.5V37v3.6c0,1.5,1.1,2.7,2.5,2.7H45c1.4,0,2.5-1.2,2.5-2.7V26.2
		C47.5,24.7,46.4,23.5,45,23.5z M44,40.2H26.6V25.9H44V40.2z"/>
	<rect x="19.8" y="29.7" fill="#3B8174" width="3.5" height="7.3"/>
</g>
</svg>
