<?xml version="1.0" encoding="utf-8"?>
<!-- Generator: Adobe Illustrator 18.0.0, SVG Export Plug-In . SVG Version: 6.00 Build 0)  -->
<!DOCTYPE svg PUBLIC "-//W3C//DTD SVG 1.1//EN" "http://www.w3.org/Graphics/SVG/1.1/DTD/svg11.dtd">
<svg version="1.1" id="Layer_1" xmlns="http://www.w3.org/2000/svg" xmlns:xlink="http://www.w3.org/1999/xlink" x="0px" y="0px"
	 viewBox="0 0 48 48" enable-background="new 0 0 48 48" xml:space="preserve">
<g>
	<path fill="#F04B36" d="M39.9,30.1h-2.7v-2.7c0-0.5-0.4-0.9-0.9-0.9s-0.9,0.4-0.9,0.9v2.7h-2.7c-0.5,0-0.9,0.4-0.9,0.9
		s0.4,0.9,0.9,0.9h2.7v2.7c0,0.5,0.4,0.9,0.9,0.9s0.9-0.4,0.9-0.9v-2.7h2.7c0.5,0,0.9-0.4,0.9-0.9C40.7,30.5,40.4,30.1,39.9,30.1z"
		/>
	<circle fill="none" cx="11.1" cy="26.6" r="1.5"/>
	<circle fill="none" cx="11.1" cy="35.3" r="1.5"/>
	<circle fill="none" cx="6.8" cy="31" r="1.5"/>
	<circle fill="none" cx="15.4" cy="31" r="1.5"/>
	<rect x="19.8" y="22.2" fill="none" width="8.5" height="2.9"/>
	<circle fill="none" cx="36.3" cy="30.7" r="7.7"/>
	<path fill="#ED9322" d="M30.1,7.8h0.1c0.5-0.2,0.7-0.6,0.5-1.1S30.1,6,29.6,6.2h-0.1c-2.4,0.8-7.3,2.5-7,12.8h1.7
		C24,9.9,28,8.6,30.1,7.8z"/>
	<path fill="#4DA0D8" d="M36.9,19L36.9,19H24.3h-1.7H11.1l0,0C5.2,19.4,0.5,24.4,0.5,30.4c0,6.3,5.1,11.5,11.5,11.5
		c3.2,0,6.1-1.3,8.2-3.4h7.7c2.1,2.1,5,3.4,8.2,3.4c6.3,0,11.5-5.1,11.5-11.5C47.5,24.4,42.8,19.4,36.9,19z M6.8,32.5
		c-0.9,0-1.5-0.7-1.5-1.5c0-0.9,0.7-1.5,1.5-1.5s1.5,0.7,1.5,1.5S7.6,32.5,6.8,32.5z M11.1,36.8c-0.9,0-1.5-0.7-1.5-1.5
		c0-0.9,0.7-1.5,1.5-1.5c0.9,0,1.5,0.7,1.5,1.5S12,36.8,11.1,36.8z M11.1,28.2c-0.9,0-1.5-0.7-1.5-1.5c0-0.9,0.7-1.5,1.5-1.5
		c0.9,0,1.5,0.7,1.5,1.5S12,28.2,11.1,28.2z M15.4,32.5c-0.9,0-1.5-0.7-1.5-1.5c0-0.9,0.7-1.5,1.5-1.5c0.9,0,1.5,0.7,1.5,1.5
		C17,31.8,16.3,32.5,15.4,32.5z M28.2,25.1h-8.5v-2.9h8.5V25.1z M36.3,38.4c-4.2,0-7.7-3.4-7.7-7.7c0-4.2,3.4-7.7,7.7-7.7
		c4.2,0,7.7,3.4,7.7,7.7C43.9,34.9,40.5,38.4,36.3,38.4z"/>
</g>
</svg>
