<?xml version="1.0" encoding="utf-8"?>
<!-- Generator: Adobe Illustrator 18.0.0, SVG Export Plug-In . SVG Version: 6.00 Build 0)  -->
<!DOCTYPE svg PUBLIC "-//W3C//DTD SVG 1.1//EN" "http://www.w3.org/Graphics/SVG/1.1/DTD/svg11.dtd">
<svg version="1.1" id="Layer_1" xmlns="http://www.w3.org/2000/svg" xmlns:xlink="http://www.w3.org/1999/xlink" x="0px" y="0px"
	 viewBox="0 0 48 48" enable-background="new 0 0 48 48" xml:space="preserve">
<g>
	<path fill="#06728D" d="M8.1,30.9h31.8c1.2,0,2.2-1,2.2-2.3V2.8c0-1.3-1-2.3-2.2-2.3H8.1c-1.2,0-2.2,1-2.2,2.3v25.7
		C5.9,29.8,6.9,30.9,8.1,30.9z M11.1,6.6c0-0.9,0.7-1.6,1.6-1.6h22.5c0.9,0,1.6,0.7,1.6,1.6v18.2c0,0.9-0.7,1.6-1.6,1.6H12.7
		c-0.9,0-1.6-0.7-1.6-1.6C11.1,24.8,11.1,6.6,11.1,6.6z"/>
	<path fill="#E77528" d="M47.2,44.4l-5.7-11.3H6.8l-6,11.3c-0.7,1.7-0.1,3.1,1.4,3.1h43.6C47.3,47.5,47.9,46.1,47.2,44.4z
		 M20.6,45.3l0.9-3.7h5l0.9,3.7H20.6z M5.5,39.7l2.2-4.8h32.4l2.2,4.8H5.5z"/>
</g>
</svg>
