<?xml version="1.0" encoding="utf-8"?>
<!-- Generator: Adobe Illustrator 18.0.0, SVG Export Plug-In . SVG Version: 6.00 Build 0)  -->
<!DOCTYPE svg PUBLIC "-//W3C//DTD SVG 1.1//EN" "http://www.w3.org/Graphics/SVG/1.1/DTD/svg11.dtd">
<svg version="1.1" id="Layer_1" xmlns="http://www.w3.org/2000/svg" xmlns:xlink="http://www.w3.org/1999/xlink" x="0px" y="0px"
	 viewBox="0 0 48 48" enable-background="new 0 0 48 48" xml:space="preserve">
<g>
	<path fill="#0DB89A" d="M9.6,19H8.3c-0.8,0-1.5,0.5-1.8,1.2H4.3c-2.1,0-3.8,1.6-3.8,3.6v6c0,2,1.7,3.6,3.8,3.6h2.3
		c0.2,0.7,0.9,1.2,1.8,1.2h1.2c1,0,1.9-0.8,1.9-1.8v-12C11.4,19.9,10.6,19,9.6,19z"/>
	<path fill="#0DB89A" d="M43.7,19.9h-2.3c-0.2-0.7-0.9-1.2-1.8-1.2h-1.2c-1,0-1.9,0.8-1.9,1.8v12c0,1,0.8,1.8,1.9,1.8h1.2
		c0.8,0,1.5-0.5,1.8-1.2h0.7c-1.6,7.2-6.9,9.3-9.9,10c-0.5-0.9-1.6-1.6-2.8-1.6c-1.8,0-3.2,1.4-3.2,3c0,1.7,1.4,3,3.2,3
		c1.6,0,3-1.2,3.1-2.7C36,44,42.3,41.4,44,33c1.9-0.2,3.4-1.7,3.4-3.5v-6C47.5,21.5,45.8,19.9,43.7,19.9z"/>
	<path fill="#F04B36" d="M41.5,18.3c0.6,0,1.3-0.1,1.9-0.1c-1.9-23.5-38-23.5-39.9,0c0.6,0,1.3,0.1,1.9,0.1C7.1-3,39.8-3,41.5,18.3z
		"/>
</g>
</svg>
