<?xml version="1.0" encoding="utf-8"?>
<!-- Generator: Adobe Illustrator 18.0.0, SVG Export Plug-In . SVG Version: 6.00 Build 0)  -->
<!DOCTYPE svg PUBLIC "-//W3C//DTD SVG 1.1//EN" "http://www.w3.org/Graphics/SVG/1.1/DTD/svg11.dtd">
<svg version="1.1" id="Layer_1" xmlns="http://www.w3.org/2000/svg" xmlns:xlink="http://www.w3.org/1999/xlink" x="0px" y="0px"
	 viewBox="0 0 48 48" enable-background="new 0 0 48 48" xml:space="preserve">
<g>
	<path fill="#E77528" d="M44.3,5L43,3.7c-4.2-4.2-11.2-4.3-15.5,0L3.7,27.6c-4.3,4.2-4.3,11.2,0,15.5L5,44.3
		c4.2,4.2,11.2,4.2,15.5,0l23.9-23.9C48.6,16.2,48.6,9.2,44.3,5z M9,40.5c-0.4,0.4-1.1,0.4-1.5,0s-0.4-1.1,0-1.5s1.1-0.4,1.5,0
		S9.4,40.1,9,40.5z M9,36.3c-0.4,0.4-1.1,0.4-1.5,0s-0.4-1.1,0-1.5s1.1-0.4,1.5,0S9.4,35.9,9,36.3z M13.3,40.5
		c-0.4,0.4-1.1,0.4-1.5,0s-0.4-1.1,0-1.5s1.1-0.4,1.5,0S13.7,40.1,13.3,40.5z M11.7,34.7c0.4-0.4,1.1-0.4,1.5,0s0.4,1.1,0,1.5
		s-1.1,0.4-1.5,0C11.3,35.9,11.3,35.2,11.7,34.7z M23.3,37.7l-13-13l14.4-14.4l13,13L23.3,37.7z M40,13.6c-0.3,0.3-0.8,0.3-1.1,0
		l-1.7-1.7l-1.7,1.7c-0.3,0.3-0.8,0.3-1.1,0s-0.3-0.8,0-1.1l1.7-1.7l-1.7-1.7c-0.3-0.3-0.3-0.8,0-1.1s0.8-0.3,1.1,0l1.7,1.7L38.9,8
		c0.3-0.3,0.8-0.3,1.1,0s0.3,0.8,0,1.1l-1.7,1.7l1.7,1.7C40.3,12.8,40.3,13.3,40,13.6z"/>
</g>
</svg>
