<?xml version="1.0" encoding="utf-8"?>
<!-- Generator: Adobe Illustrator 18.0.0, SVG Export Plug-In . SVG Version: 6.00 Build 0)  -->
<!DOCTYPE svg PUBLIC "-//W3C//DTD SVG 1.1//EN" "http://www.w3.org/Graphics/SVG/1.1/DTD/svg11.dtd">
<svg version="1.1" id="Layer_1" xmlns="http://www.w3.org/2000/svg" xmlns:xlink="http://www.w3.org/1999/xlink" x="0px" y="0px"
	 viewBox="0 0 48 48" enable-background="new 0 0 48 48" xml:space="preserve">
<g>
	<path fill="#EF9622" d="M1.4,16.5c-0.4,0-0.7-0.2-0.9-0.6c-0.2-0.5,0-1.1,0.5-1.3c0.7-0.3,1.4-0.5,2.2-0.8s1.5-0.5,2.1-0.8
		c1-0.5,1-0.5,1.2-1c0.1-0.3,0.2-0.6,0.4-1c0.9-1.9,1.9-4.4,5.4-4c0.5,0.1,0.9,0.5,0.9,1.1c0,0.5-0.5,0.9-1,0.9
		c-1.9-0.2-2.4,0.6-3.4,2.9c-0.2,0.4-0.3,0.7-0.3,0.9c-0.4,1.1-0.7,1.5-2.3,2.2c-0.7,0.3-1.5,0.6-2.3,0.8c-0.7,0.2-1.4,0.5-2,0.7
		C1.7,16.5,1.6,16.5,1.4,16.5z"/>
	<path fill="#06728D" d="M43.7,16.9L40.9,4.8c-0.5-2.1-2.8-3.8-5-3.8h-15c-2.3,0-4.2,1.8-4.2,3.9v0.6h-5.5l-0.6,13.9
		c-1.4,2.5-2.1,5.3-2.1,8.3c0,6.3,3.4,11.8,8.5,15.1V47h22.1v-4.3c5.1-3.3,8.5-8.8,8.5-15.1C47.5,23.6,46.1,19.9,43.7,16.9z
		 M37.4,4.2L36,11.1c-2.5-1-5.2-1.6-8-1.6c-2.4,0-4.6,0.4-6.7,1.1l-1.2-6.3h17.3V4.2z M28,41.8c-8.3,0-15.1-6.3-15.1-14.1
		S19.7,13.6,28,13.6s15.1,6.3,15.1,14.1S36.3,41.8,28,41.8z"/>
	<ellipse fill="#D14D37" cx="20.5" cy="30.9" rx="0.9" ry="0.8"/>
	<ellipse fill="#D14D37" cx="30" cy="21.9" rx="0.9" ry="0.8"/>
	<ellipse fill="#D14D37" cx="24.4" cy="30.9" rx="0.9" ry="0.8"/>
	<ellipse fill="#D14D37" cx="26.1" cy="21.9" rx="0.9" ry="0.8"/>
	<ellipse fill="#D14D37" cx="35.6" cy="30.9" rx="0.9" ry="0.8"/>
	<path fill="#0DB89A" d="M28,15c-7.5,0-13.5,5.7-13.5,12.7S20.6,40.4,28,40.4c7.5,0,13.5-5.7,13.5-12.7S35.5,15,28,15z M22.4,34.6
		c-2.1,0-3.9-1.6-3.9-3.6s1.7-3.6,3.9-3.6c2.1,0,3.9,1.6,3.9,3.6C26.3,32.9,24.6,34.6,22.4,34.6z M24.1,21.9c0-2,1.7-3.6,3.9-3.6
		c2.1,0,3.9,1.6,3.9,3.6s-1.7,3.6-3.9,3.6C25.9,25.5,24.1,23.9,24.1,21.9z M33.6,34.6c-2.1,0-3.9-1.6-3.9-3.6s1.7-3.6,3.9-3.6
		c2.1,0,3.9,1.6,3.9,3.6C37.5,32.9,35.7,34.6,33.6,34.6z"/>
	<ellipse fill="#D14D37" cx="31.6" cy="30.9" rx="0.9" ry="0.8"/>
</g>
</svg>
