<?xml version="1.0" encoding="utf-8"?>
<!-- Generator: Adobe Illustrator 18.0.0, SVG Export Plug-In . SVG Version: 6.00 Build 0)  -->
<!DOCTYPE svg PUBLIC "-//W3C//DTD SVG 1.1//EN" "http://www.w3.org/Graphics/SVG/1.1/DTD/svg11.dtd">
<svg version="1.1" id="Layer_1" xmlns="http://www.w3.org/2000/svg" xmlns:xlink="http://www.w3.org/1999/xlink" x="0px" y="0px"
	 viewBox="0 0 48 48" enable-background="new 0 0 48 48" xml:space="preserve">
<g>
	<path fill="#F7A93B" d="M11.4,0.5H9.6c-3,0-5.4,2-5.4,4.5v38c0,2.5,2.4,4.5,5.4,4.5h1.8c3,0,5.4-2,5.4-4.5V5
		C16.8,2.5,14.4,0.5,11.4,0.5z"/>
	<path fill="#06728D" d="M2.8,5.1C1.5,5.8,0.5,7.3,0.5,9.1V40c0,1.9,1,3.5,2.4,4.1c0-0.4-0.1-0.7-0.1-1.1V5.1z"/>
	<path fill="#06728D" d="M43.5,4.6H18.1c0,0.1,0,0.2,0,0.4v38c0,0.5-0.1,1-0.1,1.5h25.5c2.2,0,4-2,4-4.5V9.1
		C47.5,6.7,45.7,4.6,43.5,4.6z M22.8,37.9c-1.2,0-2.3-1.1-2.3-2.5c0-1.4,1-2.5,2.3-2.5c1.2,0,2.2,1.1,2.2,2.5
		C25,36.8,24,37.9,22.8,37.9z M22.8,27.2c-1.2,0-2.3-1.1-2.3-2.5c0-1.4,1-2.5,2.3-2.5c1.2,0,2.2,1.1,2.2,2.5
		C25,26.1,24,27.2,22.8,27.2z M31.1,37.9c-1.2,0-2.3-1.1-2.3-2.5c0-1.4,1-2.5,2.3-2.5c1.2,0,2.2,1.1,2.2,2.5
		C33.4,36.8,32.4,37.9,31.1,37.9z M31.1,27.2c-1.2,0-2.3-1.1-2.3-2.5c0-1.4,1-2.5,2.3-2.5c1.2,0,2.2,1.1,2.2,2.5
		C33.4,26.1,32.4,27.2,31.1,27.2z M39.5,37.9c-1.2,0-2.3-1.1-2.3-2.5c0-1.4,1-2.5,2.3-2.5c1.2,0,2.2,1.1,2.2,2.5
		C41.7,36.8,40.7,37.9,39.5,37.9z M39.5,27.2c-1.2,0-2.3-1.1-2.3-2.5c0-1.4,1-2.5,2.3-2.5c1.2,0,2.2,1.1,2.2,2.5
		C41.7,26.1,40.7,27.2,39.5,27.2z M42.3,17.6H20v-9h22.3V17.6z"/>
</g>
</svg>
