<?xml version="1.0" encoding="utf-8"?>
<!-- Generator: Adobe Illustrator 18.0.0, SVG Export Plug-In . SVG Version: 6.00 Build 0)  -->
<!DOCTYPE svg PUBLIC "-//W3C//DTD SVG 1.1//EN" "http://www.w3.org/Graphics/SVG/1.1/DTD/svg11.dtd">
<svg version="1.1" id="Layer_1" xmlns="http://www.w3.org/2000/svg" xmlns:xlink="http://www.w3.org/1999/xlink" x="0px" y="0px"
	 viewBox="0 0 48 48" enable-background="new 0 0 48 48" xml:space="preserve">
<g>
	<polygon fill="#F7A93B" points="41.7,7.5 41.7,20.8 47.5,24.8 47.5,3.5 	"/>
	<path fill="none" d="M10.9,3.6C6.5,3.6,3,7.9,3,13.2c0,5.3,3.5,9.7,7.9,9.7c4.4,0,7.9-4.3,7.9-9.7C18.8,7.9,15.3,3.6,10.9,3.6z"/>
	<path fill="#E77528" d="M6.8,24.9v17.6c0,2.7,1.8,4.9,3.9,4.9c2.2,0,3.9-2.2,3.9-4.9v-8.4h0.8v-5.1h-0.8v-3.8
		C14.7,25.3,9.5,25.9,6.8,24.9z"/>
	<path fill="#06728D" d="M39.7,7.5L13.5,0.9c-0.3-0.1-0.6-0.2-1-0.2l-0.2,0v0c-0.5-0.1-0.9-0.2-1.4-0.2C5.2,0.5,0.5,6.2,0.5,13.2
		c0,5.2,2.6,9.7,6.3,11.7c2.8,1,7.9,0.4,7.9,0.4l25.1-4.2V7.5z M10.9,22.9c-4.4,0-7.9-4.3-7.9-9.7c0-5.3,3.5-9.7,7.9-9.7
		c4.4,0,7.9,4.3,7.9,9.7C18.8,18.6,15.3,22.9,10.9,22.9z"/>
</g>
</svg>
