<?xml version="1.0" encoding="utf-8"?>
<!-- Generator: Adobe Illustrator 18.0.0, SVG Export Plug-In . SVG Version: 6.00 Build 0)  -->
<!DOCTYPE svg PUBLIC "-//W3C//DTD SVG 1.1//EN" "http://www.w3.org/Graphics/SVG/1.1/DTD/svg11.dtd">
<svg version="1.1" id="Layer_1" xmlns="http://www.w3.org/2000/svg" xmlns:xlink="http://www.w3.org/1999/xlink" x="0px" y="0px"
	 viewBox="0 0 48 48" enable-background="new 0 0 48 48" xml:space="preserve">
<g>
	<path fill="#06728D" d="M38.5,0.5h-29c-1.1,0-2,0.9-2,1.9v43.2c0,1,0.9,1.9,2,1.9h29c1.1,0,2-0.9,2-1.9V2.4
		C40.4,1.4,39.6,0.5,38.5,0.5z M17.7,41.1c0,0.3-0.3,0.6-0.6,0.6H12c-0.3,0-0.6-0.3-0.6-0.6v-3.2c0-0.3,0.3-0.6,0.6-0.6H17
		c0.3,0,0.6,0.3,0.6,0.6V41.1z M17.7,32.9c0,0.3-0.3,0.6-0.6,0.6H12c-0.3,0-0.6-0.3-0.6-0.6v-3.2c0-0.3,0.3-0.6,0.6-0.6H17
		c0.3,0,0.6,0.3,0.6,0.6V32.9z M17.7,24.6c0,0.3-0.3,0.6-0.6,0.6H12c-0.3,0-0.6-0.3-0.6-0.6v-3.2c0-0.3,0.3-0.6,0.6-0.6H17
		c0.3,0,0.6,0.3,0.6,0.6V24.6z M27.2,41.1c0,0.3-0.3,0.6-0.6,0.6h-5.1c-0.3,0-0.6-0.3-0.6-0.6v-3.2c0-0.3,0.3-0.6,0.6-0.6h5.1
		c0.3,0,0.6,0.3,0.6,0.6V41.1z M27.2,32.9c0,0.3-0.3,0.6-0.6,0.6h-5.1c-0.3,0-0.6-0.3-0.6-0.6v-3.2c0-0.3,0.3-0.6,0.6-0.6h5.1
		c0.3,0,0.6,0.3,0.6,0.6V32.9z M27.2,24.6c0,0.3-0.3,0.6-0.6,0.6h-5.1c-0.3,0-0.6-0.3-0.6-0.6v-3.2c0-0.3,0.3-0.6,0.6-0.6h5.1
		c0.3,0,0.6,0.3,0.6,0.6V24.6z M36.6,41.1c0,0.3-0.3,0.6-0.6,0.6H31c-0.3,0-0.6-0.3-0.6-0.6v-3.2c0-0.3,0.3-0.6,0.6-0.6H36
		c0.3,0,0.6,0.3,0.6,0.6V41.1z M36.6,32.9c0,0.3-0.3,0.6-0.6,0.6H31c-0.3,0-0.6-0.3-0.6-0.6v-3.2c0-0.3,0.3-0.6,0.6-0.6H36
		c0.3,0,0.6,0.3,0.6,0.6V32.9z M36.6,24.6c0,0.3-0.3,0.6-0.6,0.6H31c-0.3,0-0.6-0.3-0.6-0.6v-3.2c0-0.3,0.3-0.6,0.6-0.6H36
		c0.3,0,0.6,0.3,0.6,0.6V24.6z M36.9,14.9H11.1V6.7h25.7V14.9z"/>
	<rect x="12.2" y="7.6" fill="#F7A93B" width="23.6" height="6.3"/>
</g>
</svg>
