<?xml version="1.0" encoding="utf-8"?>
<!-- Generator: Adobe Illustrator 18.0.0, SVG Export Plug-In . SVG Version: 6.00 Build 0)  -->
<!DOCTYPE svg PUBLIC "-//W3C//DTD SVG 1.1//EN" "http://www.w3.org/Graphics/SVG/1.1/DTD/svg11.dtd">
<svg version="1.1" id="Layer_1" xmlns="http://www.w3.org/2000/svg" xmlns:xlink="http://www.w3.org/1999/xlink" x="0px" y="0px"
	 viewBox="0 0 48 48" enable-background="new 0 0 48 48" xml:space="preserve">
<g>
	<path fill="#E77528" d="M37.8,45.5l-1.3-6.6c-0.1-0.7-0.7-1.4-1.4-1.7c0,0,0,0,0,0v-7.7h0.1c0.9,0,1.6-0.7,1.6-1.5
		c0-0.8-0.7-1.5-1.6-1.5h-0.1v-6.1c0.9,0,1.6-0.7,1.6-1.5c0-0.8-0.7-1.5-1.6-1.5v-6.1c0.8-0.1,1.4-0.7,1.4-1.5
		c0-0.8-0.7-1.5-1.5-1.5c-0.3-2.6-2.5-4.7-5.2-4.7h-1c0.2-0.3,0.3-0.6,0.3-0.9V2.1c0-0.9-0.7-1.6-1.6-1.6h-7.3
		c-0.9,0-1.6,0.7-1.6,1.6v0.5c0,0.3,0.1,0.7,0.3,0.9h-1c-2.7,0-4.9,2.1-5.2,4.7h-0.8c-0.9,0-1.6,0.7-1.6,1.5c0,0.8,0.7,1.5,1.6,1.5
		h0.8v6.1h-0.7c-0.9,0-1.6,0.7-1.6,1.5c0,0.8,0.7,1.5,1.6,1.5h0.7v6.1h-0.5c-0.9,0-1.6,0.7-1.6,1.5c0,0.8,0.7,1.5,1.6,1.5h0.5v7.7
		c0,0,0,0,0,0c-0.7,0.3-1.2,1-1.4,1.7l-1.3,6.6c-0.2,1.1,0.5,2,1.7,2h24.3C37.3,47.5,38.1,46.6,37.8,45.5z M20.3,3.3
		c0-0.6,0.5-1.1,1.1-1.1h5.2c0.6,0,1.1,0.5,1.1,1.1v0.2h-7.4V3.3z M15.3,11.2h17.5v6.1H15.3V11.2z M15.3,20.3h17.5v6.1H15.3V20.3z
		 M16.7,44.9c-1.3,0-2.3-1-2.3-2.3c0-1.3,1-2.3,2.3-2.3c1.3,0,2.3,1,2.3,2.3C19,43.9,18,44.9,16.7,44.9z M23.6,35.4v0.8h-8.4v-6.8
		h17.5v6.8h-8.4v-0.8H23.6z M31.3,44.9c-1.3,0-2.3-1-2.3-2.3c0-1.3,1-2.3,2.3-2.3c1.3,0,2.3,1,2.3,2.3
		C33.5,43.9,32.5,44.9,31.3,44.9z"/>
	<path fill="#4DA0D8" d="M36.5,38.9c-0.1-0.7-0.7-1.3-1.3-1.7H12.8c-0.7,0.3-1.2,1-1.3,1.7l-1.3,6.6c-0.2,1.1,0.5,2,1.7,2h24.3
		c1.1,0,1.9-0.9,1.7-2L36.5,38.9z M16.7,44.9c-1.3,0-2.3-1-2.3-2.3c0-1.3,1-2.3,2.3-2.3c1.3,0,2.3,1,2.3,2.3
		C19,43.9,18,44.9,16.7,44.9z M31.3,44.9c-1.3,0-2.3-1-2.3-2.3c0-1.3,1-2.3,2.3-2.3c1.3,0,2.3,1,2.3,2.3
		C33.5,43.9,32.5,44.9,31.3,44.9z"/>
	<path fill="#F04B36" d="M12,11.2h23.2v0c0.8-0.1,1.4-0.7,1.4-1.5c0-0.8-0.7-1.5-1.5-1.5c-0.3-2.6-2.5-4.7-5.2-4.7h-1
		c0.2-0.3,0.3-0.6,0.3-0.9V2.1c0-0.9-0.7-1.6-1.6-1.6h-7.3c-0.9,0-1.6,0.7-1.6,1.6v0.5c0,0.3,0.1,0.7,0.3,0.9h-1
		c-2.7,0-4.9,2.1-5.2,4.7h-0.8c-0.9,0-1.6,0.7-1.6,1.5C10.5,10.5,11.2,11.2,12,11.2z M20.3,3.3c0-0.6,0.5-1.1,1.1-1.1h5.2
		c0.6,0,1.1,0.5,1.1,1.1v0.2h-7.4V3.3z"/>
</g>
</svg>
