<?xml version="1.0" encoding="utf-8"?>
<!-- Generator: Adobe Illustrator 18.0.0, SVG Export Plug-In . SVG Version: 6.00 Build 0)  -->
<!DOCTYPE svg PUBLIC "-//W3C//DTD SVG 1.1//EN" "http://www.w3.org/Graphics/SVG/1.1/DTD/svg11.dtd">
<svg version="1.1" id="Layer_1" xmlns="http://www.w3.org/2000/svg" xmlns:xlink="http://www.w3.org/1999/xlink" x="0px" y="0px"
	 viewBox="0 0 48 48" enable-background="new 0 0 48 48" xml:space="preserve">
<g>
	<path fill="#F04B36" d="M17.1,46.4h3.7c0.6,0.6,1.8,1.1,3.2,1.1c1.4,0,2.5-0.4,3.2-1.1h3.7v-4.1l-13.7,3.9V46.4z"/>
	<polygon fill="#F04B36" points="17.1,45.5 30.9,41.6 30.9,40.4 17.1,44.3 	"/>
	<polygon fill="#F04B36" points="17.1,42.4 17.1,43.5 30.9,39.7 30.9,39.4 27.7,39.4 	"/>
	<polygon fill="#F04B36" points="17.1,41.6 25.1,39.4 17.1,39.4 	"/>
	<path fill="#F7A93B" d="M34.1,25c2.6-2.6,4.2-6.2,4.2-10.2c0-7.9-6.4-14.3-14.3-14.3c-7.9,0-14.3,6.4-14.3,14.3
		c0,4.2,1.8,8,4.8,10.6c0,0,0,0,0,0c2.9,4.2,2.8,12.1,2.8,12.1h4.4c-0.1-6.2-0.7-17.6-3-19.8c-0.8-0.8-1.2-1.3-0.9-1.6
		c0.1-0.2,0.2-0.2,0.3-0.2c0.5,0,1.8,0.6,3.9,1.9l0.3,0.2l1.3-1.5c0.1-0.1,0.2-0.1,0.3-0.1c0.1,0,0.2,0,0.3,0.1c0,0,0.1,0.1,0.1,0.1
		l0,0l1.2,1.5l0.3-0.2c2.1-1.3,3.3-1.9,3.9-1.9c0.2,0,0.2,0,0.3,0.2c0.3,0.4-0.1,0.8-0.9,1.6c-2.2,2.2-2.9,13.5-3,19.8H31
		C31,37.6,30.8,29,34.1,25C34.1,25,34.1,25,34.1,25z"/>
	<path fill="#F7A93B" d="M27.7,18.5l0.5-1.2l-1.1,0.6c-0.5,0.3-1.1,0.6-1.6,0.9c-0.1,0-0.1,0.1-0.2,0.1c-0.1,0-0.2-0.1-0.3-0.1
		l-1.2-1.5l-1.2,1.4c-0.1,0.1-0.2,0.1-0.3,0.1c-0.1,0-0.1,0-0.2-0.1c-0.5-0.3-1-0.6-1.6-0.9l-1.1-0.6l0.5,1.2
		c2.1,4.5,2.4,15.7,2.4,19.1h2.9C25.4,34.1,25.6,22.9,27.7,18.5z"/>
</g>
</svg>
