<?xml version="1.0" encoding="utf-8"?>
<!-- Generator: Adobe Illustrator 18.0.0, SVG Export Plug-In . SVG Version: 6.00 Build 0)  -->
<!DOCTYPE svg PUBLIC "-//W3C//DTD SVG 1.1//EN" "http://www.w3.org/Graphics/SVG/1.1/DTD/svg11.dtd">
<svg version="1.1" id="Layer_1" xmlns="http://www.w3.org/2000/svg" xmlns:xlink="http://www.w3.org/1999/xlink" x="0px" y="0px"
	 viewBox="0 0 48 48" enable-background="new 0 0 48 48" xml:space="preserve">
<g>
	<path fill="#E77528" d="M2.2,33.8v-7.9h3.3v9.8C5.5,36.9,6.6,38,8,38h18.1c1.4,0,2.5-1.1,2.5-2.3V22.9c0-1-0.7-1.8-1.6-2.2l3.1-3.6
		c0.2-0.2,0.2-0.6,0.1-0.8c-0.1-0.3-0.4-0.4-0.8-0.4h-21c-0.5,0-0.9,0.4-0.9,0.8v3.9c0,0,0,0,0,0c-1.3,0.1-2.3,1.1-2.3,2.3v1.4H1.4
		c-0.5,0-0.9,0.3-0.9,0.8v8.7c0,0.4,0.4,0.8,0.9,0.8C1.8,34.6,2.2,34.3,2.2,33.8z M9.4,17.4h18.3l-2,2.3H9.4V17.4z"/>
	<rect x="13.5" y="10.8" fill="#BA2B28" width="8.9" height="3.1"/>
	<path fill="#4DA0D8" d="M43.3,0.5H5c-2.3,0-4.2,1.8-4.2,3.9v6.4h12.7h8.9h11v29.9H0.8v2.9c0,2.1,1.9,3.9,4.2,3.9h38.2
		c2.3,0,4.2-1.8,4.2-3.9V4.4C47.5,2.3,45.6,0.5,43.3,0.5z"/>
</g>
</svg>
