<?xml version="1.0" encoding="utf-8"?>
<!-- Generator: Adobe Illustrator 18.0.0, SVG Export Plug-In . SVG Version: 6.00 Build 0)  -->
<!DOCTYPE svg PUBLIC "-//W3C//DTD SVG 1.1//EN" "http://www.w3.org/Graphics/SVG/1.1/DTD/svg11.dtd">
<svg version="1.1" id="Layer_1" xmlns="http://www.w3.org/2000/svg" xmlns:xlink="http://www.w3.org/1999/xlink" x="0px" y="0px"
	 viewBox="0 0 48 48" enable-background="new 0 0 48 48" xml:space="preserve">
<g>
	<path fill="#F04B36" d="M47.1,44L25.7,1.9c-1-1.9-2.6-1.9-3.6,0L0.9,44c-1,1.9-0.2,3.5,1.7,3.5h42.7C47.3,47.5,48.1,45.9,47.1,44z
		 M38.6,43H9.4c-1.9,0-2.7-1.6-1.7-3.5l14.5-28.7c1-1.9,2.6-1.9,3.6,0l14.6,28.7C41.3,41.4,40.5,43,38.6,43z"/>
	<polygon fill="#0DB89A" points="22.2,24 24.9,14.8 22.2,14.8 18.2,27 25.5,27 24,33.4 21,32 22.7,41.3 29.9,35.2 26.5,34.2 
		29.9,24 	"/>
</g>
</svg>
