<?xml version="1.0" encoding="utf-8"?>
<!-- Generator: Adobe Illustrator 18.0.0, SVG Export Plug-In . SVG Version: 6.00 Build 0)  -->
<!DOCTYPE svg PUBLIC "-//W3C//DTD SVG 1.1//EN" "http://www.w3.org/Graphics/SVG/1.1/DTD/svg11.dtd">
<svg version="1.1" id="Layer_1" xmlns="http://www.w3.org/2000/svg" xmlns:xlink="http://www.w3.org/1999/xlink" x="0px" y="0px"
	 viewBox="0 0 48 48" enable-background="new 0 0 48 48" xml:space="preserve">
<g>
	<polygon fill="#F04B36" points="24.8,33.8 23.2,33.8 10.3,33.8 8.3,39 39.7,39 37.7,33.8 	"/>
	<circle fill="#7C963B" cx="35.6" cy="22.9" r="1.5"/>
	<circle fill="#7C963B" cx="14.2" cy="22.9" r="1.5"/>
	<path fill="#294E58" d="M45.9,9H2.1c-0.9,0-1.6,0.7-1.6,1.6v26.8c0,0.9,0.7,1.6,1.6,1.6h4.5l0.8-2l1.9-4.8h14h1.6h14l1.9,4.9
		l0.7,1.8h4.5c0.9,0,1.6-0.7,1.6-1.6V10.6C47.5,9.8,46.8,9,45.9,9z M14.2,26.8c-2.1,0-3.9-1.7-3.9-3.9c0-2.1,1.7-3.9,3.9-3.9
		c2.1,0,3.9,1.7,3.9,3.9C18.1,25.1,16.4,26.8,14.2,26.8z M1.9,29.4V16.5h6.5c-1.7,1.6-2.8,3.9-2.8,6.4c0,2.6,1.1,4.9,2.9,6.5H1.9z
		 M20,29.4c1.8-1.6,2.9-3.9,2.9-6.5c0-2.5-1.1-4.8-2.8-6.4H33c-2.5,1-4.3,3.5-4.3,6.4c0,3,1.9,5.5,4.5,6.5H20z M35.6,19.1
		c2.1,0,3.9,1.7,3.9,3.9c0,2.1-1.7,3.9-3.9,3.9c-2.1,0-3.9-1.7-3.9-3.9C31.7,20.8,33.4,19.1,35.6,19.1z M46.1,29.4h-8.2
		c2.6-1,4.5-3.5,4.5-6.5c0-2.9-1.8-5.4-4.3-6.4h8V29.4z"/>
</g>
</svg>
