<?xml version="1.0" encoding="utf-8"?>
<!-- Generator: Adobe Illustrator 18.0.0, SVG Export Plug-In . SVG Version: 6.00 Build 0)  -->
<!DOCTYPE svg PUBLIC "-//W3C//DTD SVG 1.1//EN" "http://www.w3.org/Graphics/SVG/1.1/DTD/svg11.dtd">
<svg version="1.1" id="Layer_1" xmlns="http://www.w3.org/2000/svg" xmlns:xlink="http://www.w3.org/1999/xlink" x="0px" y="0px"
	 viewBox="0 0 48 48" enable-background="new 0 0 48 48" xml:space="preserve">
<g>
	<path fill="#4DA0D8" d="M0.5,47.5h47v-6.6h-47V47.5z M29.9,43.2c0.8,0,1.4,0.6,1.4,1.4c0,0.8-0.6,1.4-1.4,1.4
		c-0.8,0-1.4-0.6-1.4-1.4C28.5,43.8,29.1,43.2,29.9,43.2z M24,43.2c0.8,0,1.4,0.6,1.4,1.4c0,0.8-0.6,1.4-1.4,1.4
		c-0.8,0-1.4-0.6-1.4-1.4C22.6,43.8,23.2,43.2,24,43.2z M18.1,43.2c0.8,0,1.4,0.6,1.4,1.4c0,0.8-0.6,1.4-1.4,1.4
		c-0.8,0-1.4-0.6-1.4-1.4C16.7,43.8,17.4,43.2,18.1,43.2z"/>
	<polygon fill="none" points="12.3,17.1 4.8,36.8 43.2,36.8 35.7,17.1 	"/>
	<path fill="#CFD0D1" d="M10.3,14.2L0.5,39.7h47l-9.8-25.5H10.3z M4.8,36.8l7.5-19.7h23.4l7.5,19.7H4.8z"/>
	<polygon fill="#06728D" points="47.5,0.5 0.5,0.5 10.3,14.2 37.7,14.2 	"/>
</g>
</svg>
