<?xml version="1.0" encoding="utf-8"?>
<!-- Generator: Adobe Illustrator 18.0.0, SVG Export Plug-In . SVG Version: 6.00 Build 0)  -->
<!DOCTYPE svg PUBLIC "-//W3C//DTD SVG 1.1//EN" "http://www.w3.org/Graphics/SVG/1.1/DTD/svg11.dtd">
<svg version="1.1" id="Layer_1" xmlns="http://www.w3.org/2000/svg" xmlns:xlink="http://www.w3.org/1999/xlink" x="0px" y="0px"
	 viewBox="0 0 48 48" enable-background="new 0 0 48 48" xml:space="preserve">
<g>
	<polygon fill="#F7A93B" points="18.9,33.8 2.8,33.8 2.8,17.1 0.5,17.1 0.5,47.5 2.8,47.5 2.8,37.1 22.1,37.1 22.1,33.8 22.1,24.3 
		18.9,23.5 	"/>
	<path fill="#4DA0D8" d="M40.8,14.9L40,14.8l7.5-4.7L9.1,0.5L6.4,13.4l10.9,2.4L28,18l10.9,2.3l0.4-2.9l1.1,0.2
		c0.6,0.1,1.1-0.3,1.2-0.9l0.1-0.7C41.7,15.5,41.3,15,40.8,14.9z"/>
	<path fill="#F04B36" d="M16.1,20.9c-0.2,0.9,0.3,1.9,1.2,2.1l1.7,0.4l3.2,0.8l2.4,0.6c0.9,0.2,1.8-0.3,2-1.2L28,18l-10.6-2.3
		L16.1,20.9z"/>
</g>
</svg>
