<?xml version="1.0" encoding="utf-8"?>
<!-- Generator: Adobe Illustrator 18.0.0, SVG Export Plug-In . SVG Version: 6.00 Build 0)  -->
<!DOCTYPE svg PUBLIC "-//W3C//DTD SVG 1.1//EN" "http://www.w3.org/Graphics/SVG/1.1/DTD/svg11.dtd">
<svg version="1.1" id="Layer_1" xmlns="http://www.w3.org/2000/svg" xmlns:xlink="http://www.w3.org/1999/xlink" x="0px" y="0px"
	 viewBox="0 0 48 48" enable-background="new 0 0 48 48" xml:space="preserve">
<g>
	<polygon fill="none" points="22.4,14.7 30.1,18.1 30.4,17.4 22.7,14 	"/>
	<polygon fill="none" points="21.5,16.9 29.2,20.3 29.5,19.6 21.8,16.2 	"/>
	<polygon fill="none" points="32.2,13 24.5,9.6 24.2,10.3 31.9,13.7 	"/>
	<polygon fill="none" points="33,10.8 25.4,7.4 25.1,8.1 32.8,11.5 	"/>
	<polygon fill="none" points="31.3,15.2 23.6,11.8 23.3,12.5 31,15.9 	"/>
	<path fill="none" d="M34.5,26l-2.2-1c-1,2.7-2.4,7.2-0.7,7.9C33.5,29.7,35,26.6,34.5,26z"/>
	<path fill="#F04B36" d="M27.6,45.6c-0.7,0-1.5-0.3-2.3-0.7c-0.3-0.1-0.5-0.2-0.8-0.4l-5.9-2.6c-0.5-0.2-1,0-1.2,0.5
		c-0.2,0.5,0,1,0.5,1.2l5.9,2.6c0.2,0.1,0.5,0.2,0.7,0.3c0.2,0.1,0.5,0.2,0.8,0.4c0.7,0.3,1.5,0.6,2.4,0.5c2.2-0.1,3-1.8,3.6-3.2
		l-1.6-0.7C29.1,44.9,28.7,45.6,27.6,45.6z"/>
	<path fill="#06728D" d="M47.5,17.3c0,0-2-4.2-4-5.5c-4.2-2.6-8.3-5-14.3-6.3c-2.6-0.6-5.4-0.2-7.4,1.3l-3.1,6
		c-0.2,3.4,1.4,6.6,4.4,7.9l7.8,3.6c-0.9,2.2-3.6,9.2-0.3,10.5c-1.8,3-3.4,5.5-3.4,5.5l-1.5-0.7L25,41.4l4.7,2.1l1.6,0.7l2.8,1.2
		C40.3,39.7,46.9,19.2,47.5,17.3z M25.4,7.4l7.7,3.4l-0.3,0.7l-7.7-3.4L25.4,7.4z M24.5,9.6l7.7,3.4l-0.3,0.7l-7.7-3.4L24.5,9.6z
		 M29.2,20.3l-7.7-3.4l0.3-0.7l7.7,3.4L29.2,20.3z M30.1,18.1l-7.7-3.4l0.3-0.7l7.7,3.4L30.1,18.1z M23.3,12.5l0.3-0.7l7.7,3.4
		L31,15.9L23.3,12.5z M32.4,25l2.2,1c0.5,0.6-1,3.7-2.8,6.9C30,32.2,31.4,27.7,32.4,25z"/>
	<path fill="#E77528" d="M2,0.6C1.4,0.4,0.7,0.5,0.5,1C0.4,1.4,0.7,2,1.3,2.3l11.3,5l0.7-1.6L2,0.6z"/>
	<polygon fill="#E77528" points="13.9,4.3 13.3,5.7 12.7,7.3 12.1,8.8 15.7,10.4 17.5,5.9 	"/>
	<polygon fill="#E77528" points="17.9,5.1 17.5,5.9 15.7,10.4 15.4,11.3 18.7,12.8 21.8,6.8 	"/>
</g>
</svg>
