<?xml version="1.0" encoding="utf-8"?>
<!-- Generator: Adobe Illustrator 18.0.0, SVG Export Plug-In . SVG Version: 6.00 Build 0)  -->
<!DOCTYPE svg PUBLIC "-//W3C//DTD SVG 1.1//EN" "http://www.w3.org/Graphics/SVG/1.1/DTD/svg11.dtd">
<svg version="1.1" id="Layer_1" xmlns="http://www.w3.org/2000/svg" xmlns:xlink="http://www.w3.org/1999/xlink" x="0px" y="0px"
	 viewBox="0 0 48 48" enable-background="new 0 0 48 48" xml:space="preserve">
<g>
	<path fill="#F7A93B" d="M42.7,10.6L43.1,6c0.1-0.2,0.2-0.3,0.2-0.5c0-1.3-2.5-2.5-6.2-3l0.6-2h-9.2L29,2.4c-4,0.5-6.8,1.7-6.8,3
		c0,0.2,0.1,0.5,0.3,0.7l3.4,23.6c-0.6,0.1-1.1,0.4-1.4,0.8c-0.4-0.1-0.7-0.2-1.2-0.2h-7.8v-8.7h1.3v-1.9H8.3v1.9h1.3v8.7h-2
		c-1.6,0-2.9,0.9-3.4,2.1c-1.7,0-3.1,1.3-3.6,2.6c-0.2,0.6-0.1,1.2-0.1,1.7c0,0.5,0.1,0.9,0,1.2c-0.1,0.3,0.1,0.7,0.5,0.8
		c0.1,0,0.1,0,0.2,0c0.3,0,0.6-0.2,0.7-0.4C2.1,37.8,2,37.2,2,36.7c0-0.5-0.1-0.9,0-1.2c0.3-0.8,1.1-1.6,2-1.7v6.3
		c0,0.9,0.4,1.7,1.1,2.3H2.4v5.2h41.3v-5.2h-2.1c1.3-0.1,2.1-1,2-2.1l-1.1-8.5c-0.1-1-1-1.8-2.2-2l2.3-17.9c1.6,0.1,3.6,0.8,3.5,5.7
		c-0.1,2.3-0.4,4.8-1,7.4c-0.1,0.3,0.2,0.7,0.6,0.7c0,0,0.1,0,0.1,0c0.3,0,0.6-0.2,0.7-0.5c0.6-2.6,1-5.2,1-7.6
		C47.6,13.2,46,10.8,42.7,10.6z M5.5,33.5c0-1,1-1.9,2.1-1.9h15.6c0.2,0,0.4,0,0.5,0.1c0,0,0,0,0,0.1l-1.1,8.5
		c-0.1,0.7,0.2,1.3,0.8,1.7c-0.1,0-0.1,0-0.2,0H7.6c-1.2,0-2.1-0.8-2.1-1.9V33.5z M30.5,36.6c0-1.4,1.3-2.6,2.9-2.6
		c1.6,0,2.9,1.1,2.9,2.6c0,1.4-1.3,2.6-2.9,2.6C31.8,39.1,30.5,38,30.5,36.6z M39,28.8h-3.6v-0.7c0-0.7-0.6-1.2-1.4-1.2h-1.2
		c-0.8,0-1.4,0.6-1.4,1.2v0.7h-4.3l-3-21.5c1.9,0.8,5.1,1.4,8.6,1.4c3.7,0,7-0.6,8.8-1.5L39,28.8z"/>
	<path fill="#F04B36" d="M43.6,40.3l-1.1-8.5c-0.1-0.8-0.8-1.6-1.7-1.9H25.5c-0.5,0.2-0.9,0.4-1.2,0.7c-0.4-0.1-0.7-0.2-1.2-0.2
		h-7.8v-8.7h1.3v-1.9H8.3v1.9h1.3v8.7h-2c-1.6,0-2.9,0.9-3.4,2.1c-1.7,0-3.1,1.3-3.6,2.6c-0.2,0.6-0.1,1.2-0.1,1.7
		c0,0.5,0.1,0.9,0,1.2c-0.1,0.3,0.1,0.7,0.5,0.8c0.1,0,0.1,0,0.2,0c0.3,0,0.6-0.2,0.7-0.4C2.1,37.8,2,37.2,2,36.7
		c0-0.5-0.1-0.9,0-1.2c0.3-0.8,1.1-1.6,2-1.7v6.3c0,0.9,0.4,1.7,1.1,2.3H2.4v5.2h41.3v-5.2h-2.1C42.9,42.2,43.8,41.3,43.6,40.3z
		 M23.7,31.8l-1.1,8.5c-0.1,0.7,0.2,1.3,0.8,1.7c-0.1,0-0.1,0-0.2,0H7.6c-1.2,0-2.1-0.8-2.1-1.9v-6.6c0-1,1-1.9,2.1-1.9h15.6
		C23.4,31.6,23.6,31.7,23.7,31.8C23.7,31.7,23.7,31.7,23.7,31.8z M33.4,39.1c-1.6,0-2.9-1.1-2.9-2.6c0-1.4,1.3-2.6,2.9-2.6
		c1.6,0,2.9,1.1,2.9,2.6C36.3,38,35,39.1,33.4,39.1z"/>
	<path fill="#0DB89A" d="M41.6,42.3c1.3-0.1,2.1-1,2-2.1l-1.1-8.5c-0.1-0.8-0.8-1.6-1.7-1.9H25.5c-0.5,0.2-0.9,0.4-1.2,0.7
		c-0.4-0.1-0.7-0.2-1.2-0.2h-7.8v-0.1H9.6v0.1h-2c-1.6,0-2.9,0.9-3.4,2.1c-1.7,0-3.1,1.3-3.6,2.6c-0.2,0.6-0.1,1.2-0.1,1.7
		c0,0.5,0.1,0.9,0,1.2c-0.1,0.3,0.1,0.7,0.5,0.8c0.1,0,0.1,0,0.2,0c0.3,0,0.6-0.2,0.7-0.4C2.1,37.8,2,37.2,2,36.7
		c0-0.5-0.1-0.9,0-1.2c0.3-0.8,1.1-1.6,2-1.7v6.3c0,0.9,0.4,1.7,1.1,2.3H2.4v5.2h41.3v-5.2H41.6z M23.7,31.8l-1.1,8.5
		c-0.1,0.7,0.2,1.3,0.8,1.7c-0.1,0-0.1,0-0.2,0H7.6c-1.2,0-2.1-0.8-2.1-1.9v-6.6c0-1,1-1.9,2.1-1.9h15.6
		C23.4,31.6,23.6,31.7,23.7,31.8C23.7,31.7,23.7,31.7,23.7,31.8z M33.4,39.1c-1.6,0-2.9-1.1-2.9-2.6c0-1.4,1.3-2.6,2.9-2.6
		c1.6,0,2.9,1.1,2.9,2.6C36.3,38,35,39.1,33.4,39.1z"/>
	<path fill="#06728D" d="M1,38.8c0.1,0,0.1,0,0.2,0c0.3,0,0.6-0.2,0.7-0.4C2.1,37.8,2,37.2,2,36.7c0-0.5-0.1-0.9,0-1.2
		c0.3-0.8,1.1-1.6,2-1.7v6.3c0,0.7,0.3,1.3,0.7,1.8h2.4c-1-0.2-1.7-0.9-1.7-1.8v-6.6c0-1,1-1.9,2.1-1.9h15.6c0.2,0,0.4,0,0.5,0.1
		c0,0,0,0,0,0.1l-1.1,8.5c-0.1,0.7,0.2,1.3,0.8,1.6h19.5c0.5-0.4,0.9-1,0.8-1.6l-1.1-8.5c-0.1-0.8-0.8-1.6-1.7-1.9H25.5
		c-0.5,0.2-0.9,0.4-1.2,0.7c-0.4-0.1-0.7-0.2-1.2-0.2h-7.8v-0.1H9.6v0.1h-2c-1.6,0-2.9,0.9-3.4,2.1c-1.7,0-3.1,1.3-3.6,2.6
		c-0.2,0.6-0.1,1.2-0.1,1.7c0,0.5,0.1,0.9,0,1.2C0.4,38.4,0.6,38.7,1,38.8z M33.4,34c1.6,0,2.9,1.1,2.9,2.6c0,1.4-1.3,2.6-2.9,2.6
		c-1.6,0-2.9-1.1-2.9-2.6C30.5,35.2,31.8,34,33.4,34z"/>
</g>
</svg>
