<?xml version="1.0" encoding="utf-8"?>
<!-- Generator: Adobe Illustrator 18.0.0, SVG Export Plug-In . SVG Version: 6.00 Build 0)  -->
<!DOCTYPE svg PUBLIC "-//W3C//DTD SVG 1.1//EN" "http://www.w3.org/Graphics/SVG/1.1/DTD/svg11.dtd">
<svg version="1.1" id="Layer_1" xmlns="http://www.w3.org/2000/svg" xmlns:xlink="http://www.w3.org/1999/xlink" x="0px" y="0px"
	 viewBox="0 0 48 48" enable-background="new 0 0 48 48" xml:space="preserve">
<g>
	<rect x="21.4" y="5.1" fill="none" width="17.4" height="6.7"/>
	<path fill="none" d="M7.3,34.2v10.9c0,0.4,0.4,0.8,0.8,0.8h2.4V33.4H8.1C7.6,33.4,7.3,33.7,7.3,34.2z"/>
	<path fill="none" d="M15.4,45.1V34.2c0-0.4-0.4-0.8-0.8-0.8h-2.4v12.5h2.4C15.1,45.9,15.4,45.5,15.4,45.1z"/>
	<path fill="#E77528" d="M47.5,4.3c0-0.2-0.2-0.4-0.5-0.4c-0.2,0-0.4,0.2-0.4,0.4c0.1,0.9,0,1.6-0.5,2c-0.8,0.8-2.4,0.8-3.9,0.8V2.9
		c0-1.3-1.1-2.4-2.5-2.4H3c-1.4,0-2.5,1.1-2.5,2.4v14.5c0,1.3,1.1,2.4,2.5,2.4h1.8v0.4c0,1.1,0.9,2,2,2h3.7h1.8h3.6c1.1,0,2-0.9,2-2
		v-0.4h21.8c1.4,0,2.5-1.1,2.5-2.4V8c0.3,0,0.5,0,0.8,0c1.5,0,2.9-0.1,3.7-1C47.4,6.3,47.6,5.5,47.5,4.3z M38.8,11.8H21.4V5.1h17.4
		V11.8z"/>
	<path fill="#06728D" d="M10.4,31.7H8.1c-1.4,0-2.5,1.1-2.5,2.4v10.9c0,1.3,1.1,2.4,2.5,2.4h6.5c1.4,0,2.5-1.1,2.5-2.4V34.2
		c0-1.3-1.1-2.4-2.5-2.4h-2.4v-9.4h-1.8V31.7z M10.4,45.9H8.1c-0.4,0-0.8-0.4-0.8-0.8V34.2c0-0.4,0.4-0.8,0.8-0.8h2.4V45.9z
		 M12.3,33.4h2.4c0.4,0,0.8,0.4,0.8,0.8v10.9c0,0.4-0.4,0.8-0.8,0.8h-2.4V33.4z"/>
</g>
</svg>
