<?xml version="1.0" encoding="utf-8"?>
<!-- Generator: Adobe Illustrator 18.0.0, SVG Export Plug-In . SVG Version: 6.00 Build 0)  -->
<!DOCTYPE svg PUBLIC "-//W3C//DTD SVG 1.1//EN" "http://www.w3.org/Graphics/SVG/1.1/DTD/svg11.dtd">
<svg version="1.1" id="Layer_1" xmlns="http://www.w3.org/2000/svg" xmlns:xlink="http://www.w3.org/1999/xlink" x="0px" y="0px"
	 viewBox="0 0 48 48" enable-background="new 0 0 48 48" xml:space="preserve">
<g>
	<circle fill="none" cx="22.6" cy="41" r="2.9"/>
	<path fill="none" d="M21.9,9.8c-3.5,0-6.6-0.6-8.5-1.6l3,24.1h4.2v-0.8c0-0.8,0.6-1.4,1.4-1.4h1.1c0.8,0,1.4,0.6,1.4,1.4v0.8h3.5
		l2.5-24.2C28.8,9.1,25.6,9.8,21.9,9.8z"/>
	<path fill="#0DB89A" d="M31.5,35.6c-0.1-1.1-1-2-2.1-2.3l-14.3,0c-1.1,0.3-1.9,1.2-2,2.2l-1.1,9.5c-0.2,1.3,0.9,2.4,2.2,2.4h16.2
		c1.4,0,2.4-1.1,2.2-2.4L31.5,35.6z M22.6,43.8c-1.6,0-2.9-1.3-2.9-2.9c0-1.6,1.3-2.9,2.9-2.9c1.6,0,2.9,1.3,2.9,2.9
		C25.5,42.6,24.2,43.8,22.6,43.8z"/>
	<path fill="#CFD0D1" d="M31.6,13.3c1.6,0.1,3.6,0.9,3.4,6.4c-0.1,2.6-0.4,5.4-1,8.3c-0.1,0.4,0.2,0.8,0.5,0.8c0,0,0.1,0,0.1,0
		c0.3,0,0.6-0.2,0.7-0.6c0.6-2.9,1-5.8,1-8.5c0.1-5-1.5-7.6-4.7-7.8l0.4-5.2c0.1-0.2,0.1-0.4,0.1-0.6c0-1.5-2.5-2.8-6.1-3.3l0.6-2.3
		h-9.1l0.6,2.2c-3.9,0.5-6.7,1.9-6.7,3.4c0,0.3,0.1,0.5,0.3,0.8l3.3,26.5l14.3,0L31.6,13.3z M24.6,32.3v-0.8c0-0.8-0.6-1.4-1.4-1.4
		H22c-0.8,0-1.4,0.6-1.4,1.4v0.8h-4.2l-3-24.1c1.9,0.9,5,1.6,8.5,1.6c3.7,0,6.9-0.7,8.7-1.7l-2.5,24.2H24.6z"/>
</g>
</svg>
