<?xml version="1.0" encoding="utf-8"?>
<!-- Generator: Adobe Illustrator 18.0.0, SVG Export Plug-In . SVG Version: 6.00 Build 0)  -->
<!DOCTYPE svg PUBLIC "-//W3C//DTD SVG 1.1//EN" "http://www.w3.org/Graphics/SVG/1.1/DTD/svg11.dtd">
<svg version="1.1" id="Layer_1" xmlns="http://www.w3.org/2000/svg" xmlns:xlink="http://www.w3.org/1999/xlink" x="0px" y="0px"
	 viewBox="0 0 48 48" enable-background="new 0 0 48 48" xml:space="preserve">
<g>
	<path fill="#E77528" d="M42.1,0.5H5.9c-3,0-5.4,2.2-5.4,5v37c0,2.7,2.4,5,5.4,5h36.3c3,0,5.4-2.2,5.4-5v-37
		C47.5,2.7,45.1,0.5,42.1,0.5z M38.1,17.9c0.2-0.5,0.9-0.8,1.3-0.5c0.4,0.3,0.6,0.7,0.6,1.2c0,0.1,0,0.3,0,0.4
		c0.1,0.5-0.2,1-0.5,1.3c-0.3,0.3-0.8,0.2-1.1,0c-0.5-0.4-0.5-0.9-0.5-1.4C37.9,18.6,38,18.2,38.1,17.9z M37.4,17
		c0.2,0.3,0.2,0.7,0.3,1c0,0-0.1,0-0.1,0c0.1,0.5-0.1,1-0.4,1.3c-0.4,0.4-0.8,0.4-1.2,0c-0.5-0.5-0.5-2-0.1-2.5
		C36.5,16.2,37,16.4,37.4,17z M10.7,16.8c0.5-0.6,0.9-0.5,1.4,0.1c0.2,0.3,0.3,0.7,0.4,1.1c0,0,0,0-0.1,0c0,0.5-0.2,0.9-0.4,1.3
		c-0.3,0.5-0.8,0.5-1.2,0.1C10.1,18.7,10.1,17.5,10.7,16.8z M8.1,17.9c0.3-0.6,1-0.7,1.4-0.3C10,18,10,18.5,10.1,19
		C10,19.5,10,20,9.6,20.3c-0.5,0.5-1.3,0.3-1.5-0.4C7.8,19.3,7.9,18.6,8.1,17.9z M6.4,20c0.1-0.2,0.2-0.5,0.5-0.5
		c0.3,0,0.6,0.2,0.7,0.3c0.2,0.3,0.5,0.6,0.4,1.1c0,0.2,0,0.4-0.1,0.6C7.9,21.8,7.8,22,7.5,22c-0.3,0-0.6,0-0.8-0.3
		C6.3,21.2,6.2,20.6,6.4,20z M17.8,26.4c-0.3,0.5-0.5,1.1-1,1.4c-0.7,0.5-1.3,0.9-2,1.3c-0.6,0.4-1.2,0.8-1.6,1.3
		c-0.3,0.4-0.5,0.8-0.8,1.3c-0.3,0.5-0.2,1.1,0.1,1.6c0.5,1.2,1.1,2.3,1.6,3.5c0.5,1,0.9,1.9,1,3c0.1,0.9-0.1,1.8-0.4,2.7
		c-0.3,0.7-0.7,1.4-1.3,1.8c-0.3,0.2-0.7,0.3-1.1,0.4c-0.2,0-0.4,0-0.6,0c-1.2,0.1-2.2-0.4-3-1.2c-0.6-0.5-0.8-1.3-1-2
		c-0.1-0.5-0.1-1-0.2-1.5c0-0.4-0.1-0.9,0-1.3c0.2-0.8,0.2-1.7,0.2-2.5c0-0.7-0.1-1.5-0.2-2.2C7.2,33,7,32,6.9,31.1
		c-0.1-0.8-0.2-1.6-0.3-2.4c-0.1-0.6-0.2-1.3-0.1-1.9c0.1-1.3,0.2-2.6,0.9-3.8c0.6-1,1.3-1.8,2.3-2.3c1.1-0.6,2.2-0.8,3.4-0.8
		c1,0,2,0.3,2.9,0.9c1,0.6,1.6,1.6,1.9,2.8C18.2,24.5,18.2,25.5,17.8,26.4z M12.7,17.3c0-0.6,0.2-1,0.6-1.4c0.3-0.3,0.9-0.2,1.2,0.1
		c0.9,0.7,0.8,2.1,0.4,2.9c-0.3,0.6-0.9,0.8-1.5,0.5c-0.2-0.1-0.4-0.4-0.5-0.6c-0.1-0.2-0.2-0.5-0.2-0.8
		C12.7,17.8,12.7,17.6,12.7,17.3z M19.1,18.6c-0.2,0.8-0.6,1.5-1.5,1.9c-0.4,0.2-1.1,0-1.5-0.3c-0.4-0.4-0.5-0.9-0.6-1.4
		c-0.2-0.7-0.1-1.5,0.2-2.1c0.2-0.4,0.4-0.7,0.6-1c0.3-0.5,0.7-0.6,1.2-0.7c0,0,0.1,0,0.1-0.1c0.1,0,0.1,0,0.2,0
		c0.5,0.2,0.9,0.6,1.2,1c0.1,0.2,0.2,0.4,0.2,0.7C19.2,17.3,19.2,18,19.1,18.6z M18.5,5.8l4.6,4.9c-2.9,0.1-5.8,0.7-8.5,1.9
		c-1-2.1-2.1-4.3-3.1-6.4c8-3.3,17.1-3.3,25,0c-1,2.1-2.1,4.3-3.1,6.4c-2.9-1.2-6-1.8-9.1-1.9l-5.1-5.4c-0.2-0.2-0.4-0.2-0.6,0
		C18.3,5.4,18.3,5.6,18.5,5.8z M34.9,19c-0.4,0.7-1.4,0.7-1.8-0.1c-0.5-0.9-0.5-1.8,0-2.7c0.5-0.8,1.3-0.7,1.9,0.1
		c0.3,0.4,0.4,0.8,0.3,1.3C35.4,18.2,35.1,18.6,34.9,19z M28.9,16.2c0.3-0.8,0.9-1.2,1.7-1.1c0.5,0.1,0.8,0.4,1.1,0.8
		c0.5,0.7,0.8,1.4,0.8,2.4c0,0.5,0,1-0.3,1.4c-0.2,0.3-0.4,0.5-0.7,0.8c0,0,0,0,0,0c-0.5,0-1.1,0.2-1.5-0.3
		c-0.7-0.7-1.1-1.5-1.2-2.4C28.6,17.3,28.7,16.7,28.9,16.2z M41.3,28.6c-0.1,1-0.2,2-0.3,3.1c-0.1,1-0.3,1.9-0.4,2.9
		c-0.1,0.9-0.1,1.9-0.1,2.8c0,0.7,0.1,1.4,0.1,2.1c0,0.7-0.1,1.4-0.3,2.1c-0.2,0.7-0.5,1.3-0.9,1.8c-0.4,0.5-0.9,0.9-1.5,1.1
		c-0.3,0.1-0.6,0.2-1,0.2c-0.2,0-0.4,0-0.6,0c-0.8,0.1-1.6-0.2-2.1-0.8c-0.3-0.3-0.5-0.8-0.7-1.2c-0.4-0.8-0.6-1.6-0.5-2.4
		c0.1-1,0.3-1.9,0.7-2.8c0.6-1.2,1.1-2.3,1.6-3.5c0.2-0.5,0.5-1,0.4-1.6c0-0.7-0.3-1.2-0.7-1.7c-0.4-0.5-1-1-1.5-1.4
		c-0.4-0.3-0.8-0.4-1.2-0.7c-0.8-0.6-1.6-1.1-2-2.1c-0.4-0.8-0.6-1.6-0.4-2.4c0.2-0.8,0.4-1.6,0.9-2.3c0.6-0.7,1.3-1.3,2.2-1.5
		c0.6-0.2,1.2-0.4,1.8-0.4c1.3,0,2.6,0.3,3.7,1c1.4,0.9,2.4,2.1,2.6,3.8c0.1,0.8,0.1,1.6,0.2,2.4c0,0,0,0-0.1,0
		C41.3,27.6,41.3,28.1,41.3,28.6z M41.5,21.5c-0.1,0.3-0.7,0.6-1,0.5c-0.1,0-0.3-0.2-0.3-0.3c-0.4-0.8-0.2-1.7,0.5-2.2
		c0.2-0.1,0.6,0,0.7,0.2c0.2,0.3,0.3,0.6,0.4,0.8C41.6,20.9,41.6,21.2,41.5,21.5z"/>
</g>
</svg>
