<?xml version="1.0" encoding="utf-8"?>
<!-- Generator: Adobe Illustrator 18.0.0, SVG Export Plug-In . SVG Version: 6.00 Build 0)  -->
<!DOCTYPE svg PUBLIC "-//W3C//DTD SVG 1.1//EN" "http://www.w3.org/Graphics/SVG/1.1/DTD/svg11.dtd">
<svg version="1.1" id="Layer_1" xmlns="http://www.w3.org/2000/svg" xmlns:xlink="http://www.w3.org/1999/xlink" x="0px" y="0px"
	 viewBox="0 0 48 48" enable-background="new 0 0 48 48" xml:space="preserve">
<g>
	<ellipse fill="none" cx="24.4" cy="43.5" rx="1.2" ry="1"/>
	<path fill="#F04B36" d="M39.4,1.8L39.4,1.8c-0.3-1-1.6-1.5-2.8-1.2l-5.8,1.7c-1,0.3-1.7,1-1.8,1.8l0.5,1.4C30,6,31,6.2,31.9,5.9
		l5.8-1.7C38.9,3.9,39.7,2.8,39.4,1.8z"/>
	<ellipse fill="none" cx="24.4" cy="43.5" rx="1.2" ry="1"/>
	<path fill="#06728D" d="M17.7,32.8c1.2-3,2.2-5.5,2.3-6.5c0.4-3.7,0.6-7.4,0.7-11c0.1-2.5,0.9-6,2.9-7.7c0.7-0.6,4.1-1.6,5.9-2.1
		L29,4.1c-3.2,0.9-5.5,1.6-6.3,2.3c-2.4,2-3.3,5.9-3.4,8.8c-0.1,3.6-0.4,7.2-0.7,10.9c-0.1,0.9-1.4,4.2-2.2,6.1
		c-0.4,1-0.6,1.6-0.7,1.9l1.3,0.5C17.1,34.4,17.4,33.6,17.7,32.8z"/>
	<path fill="#0DB89A" d="M20.2,37c-0.9-0.2-1.8-0.3-2.7-0.4c-0.1-0.8-0.3-1.7-0.5-1.9l-1.3-0.5l-1.6,2.7c-1.3,0.3-2.3,0.8-3,1.5
		c-0.3-0.1-0.8-0.5-1.2-1.2c-0.4-0.7-0.5-1.4-0.3-1.8c0.2-0.2,0.1-0.5-0.1-0.7c-0.2-0.2-0.5-0.1-0.7,0.1c-0.6,0.8-0.3,2,0.2,2.8
		c0.3,0.5,0.8,1.1,1.4,1.5c-0.2,0.3-0.3,0.6-0.4,0.9c-0.6,2.8,2.9,6,7.9,7.1c5,1.1,9.6-0.2,10.2-3C28.8,41.3,25.2,38.1,20.2,37z
		 M24.4,44.6c-0.7,0-1.2-0.5-1.2-1c0-0.6,0.5-1,1.2-1c0.7,0,1.2,0.5,1.2,1C25.6,44.1,25.1,44.6,24.4,44.6z"/>
</g>
</svg>
