<?xml version="1.0" encoding="utf-8"?>
<!-- Generator: Adobe Illustrator 18.0.0, SVG Export Plug-In . SVG Version: 6.00 Build 0)  -->
<!DOCTYPE svg PUBLIC "-//W3C//DTD SVG 1.1//EN" "http://www.w3.org/Graphics/SVG/1.1/DTD/svg11.dtd">
<svg version="1.1" id="Layer_1" xmlns="http://www.w3.org/2000/svg" xmlns:xlink="http://www.w3.org/1999/xlink" x="0px" y="0px"
	 viewBox="0 0 48 48" enable-background="new 0 0 48 48" xml:space="preserve">
<g>
	<path fill="#0DB89A" d="M46.3,2.5L46,1.9l-0.4,0.5C44.2,4,35.4,7.8,28.3,10.6l-0.7,0.3l0.5,0.5c3.2,3.6,2.3,7.1,1.9,8.1l-0.3,0.9
		l0.9-0.3c3.4-1,14.9-7.6,15.4-7.9l0.1-0.1l0.1-0.1C48.7,7.3,46.9,3.6,46.3,2.5z"/>
	<path fill="#E77528" d="M45.4,2.3C40.5-0.2,24,0.6,24,0.6c-0.7-0.5-23.5,7-23.5,7c0,2,1.2,4.2,1.2,4.2L2,12c0.2,0,2.1,0.2,4.9,0.5
		l-0.5-1.2c0,0-0.3-1,0.7-1.2c0,0,16.7,1.7,16.7,2.5c0,0-0.4,1.7,1.3,2.3c0,0,1,2,0.4,2.5l-14.9-2.1c0,0-1.5-0.3-2.1-1.6l-4.9-0.6
		l2,3.3c0,0,22.3,3,24.2,3.2c0-0.1,0-0.1,0-0.2c0-0.1,0.6-1.3,0.5-3L25.5,16c-0.2-0.5-0.4-1-0.4-1c-0.1-0.1-0.3-0.1-0.4-0.2
		c3.2,0.4,5.4,0.7,5.4,0.7c-0.3-1.3-1-2.8-2.4-4.4c-0.1-0.1-0.1-0.2-0.1-0.3c0-0.1,0.1-0.2,0.2-0.3C32.3,8.8,44.2,4,45.4,2.3z"/>
	<path fill="#010101" d="M30.1,15.5l0.1,1.1C30.2,16.2,30.2,15.9,30.1,15.5z"/>
	<polygon fill="#4DA0D8" points="24.4,14.7 30.2,15.5 30.3,16.6 25.3,16 	"/>
	<path fill="#4DA0D8" d="M47.2,39.8C46.4,38.4,40.8,16,40.8,16l-12.5,5.1c0.5,1,1,2,1.5,3c-0.6,0.3-0.6,1.9-0.1,3.7
		c0.6,1.9,1.5,3.2,2.2,3c0,0,0,0,0.1,0c1.4,6.2,1.1,11.2,1.1,11.2c0.1,4.5,4.9,5.4,4.9,5.4c6.2,0.8,7.9-2,7.9-2
		C48,42.9,47.2,39.8,47.2,39.8z"/>
</g>
</svg>
