<?xml version="1.0" encoding="utf-8"?>
<!-- Generator: Adobe Illustrator 18.0.0, SVG Export Plug-In . SVG Version: 6.00 Build 0)  -->
<!DOCTYPE svg PUBLIC "-//W3C//DTD SVG 1.1//EN" "http://www.w3.org/Graphics/SVG/1.1/DTD/svg11.dtd">
<svg version="1.1" id="Layer_1" xmlns="http://www.w3.org/2000/svg" xmlns:xlink="http://www.w3.org/1999/xlink" x="0px" y="0px"
	 viewBox="0 0 48 48" enable-background="new 0 0 48 48" xml:space="preserve">
<g>
	<path fill="#0DB89A" d="M24,40.4c12.7,0,23-10,23.5-22.5h-47C1,30.4,11.3,40.4,24,40.4z M24,29.8c0.4,0,0.7,0.1,1.1,0.2
		c-1,0-1.8,0.8-1.8,1.8c0,1,0.8,1.8,1.8,1.8c1,0,1.8-0.8,1.8-1.8c0-0.4-0.2-0.8-0.4-1.1c1.1,0.8,1.8,2.1,1.8,3.5
		c0,2.4-1.9,4.3-4.3,4.3c-2.4,0-4.3-1.9-4.3-4.3C19.7,31.7,21.6,29.8,24,29.8z"/>
	<rect x="0.5" y="7.6" fill="#E77528" width="47" height="7.2"/>
</g>
</svg>
