<?xml version="1.0" encoding="utf-8"?>
<!-- Generator: Adobe Illustrator 18.0.0, SVG Export Plug-In . SVG Version: 6.00 Build 0)  -->
<!DOCTYPE svg PUBLIC "-//W3C//DTD SVG 1.1//EN" "http://www.w3.org/Graphics/SVG/1.1/DTD/svg11.dtd">
<svg version="1.1" id="Layer_1" xmlns="http://www.w3.org/2000/svg" xmlns:xlink="http://www.w3.org/1999/xlink" x="0px" y="0px"
	 viewBox="0 0 48 48" enable-background="new 0 0 48 48" xml:space="preserve">
<g>
	<path fill="#FFD69A" d="M35.1,20.1c-6.8,0-12.4,5.2-12.4,11.7c0,6.5,5.5,11.7,12.4,11.7c6.8,0,12.4-5.2,12.4-11.7
		C47.5,25.3,42,20.1,35.1,20.1z M35.1,36c-2.4,0-4.4-1.9-4.4-4.2c0-2.3,2-4.2,4.4-4.2c2.4,0,4.4,1.9,4.4,4.2
		C39.6,34.1,37.6,36,35.1,36z"/>
	<ellipse fill="#F04B36" cx="35.1" cy="31.8" rx="2.1" ry="2"/>
	<path fill="#06728D" d="M6.8,27.4h14.3c0.4-1.2,1-2.3,1.7-3.3H10.7c-0.7,0-1.3-0.6-1.3-1.2V9.1c0-0.7,0.6-1.2,1.3-1.2h18.8
		c0.7,0,1.3,0.6,1.3,1.2v9.3c1.4-0.4,2.9-0.6,4.4-0.6V6.3c0-1-0.8-1.8-1.9-1.8H6.8C5.8,4.5,5,5.3,5,6.3v19.4
		C5,26.6,5.8,27.4,6.8,27.4z"/>
	<path fill="#F7A93B" d="M17.2,38.2l0.7-2.8h2.9c-0.1-0.5-0.2-0.9-0.3-1.4H4.6l1.9-3.6h13.9c0-0.5,0.1-0.9,0.2-1.4H5.7l-5,8.5
		c-0.6,1.3-0.1,2.3,1.2,2.3h21.2c-0.4-0.5-0.8-1.1-1.1-1.7H17.2z"/>
</g>
</svg>
