<?xml version="1.0" encoding="utf-8"?>
<!-- Generator: Adobe Illustrator 18.0.0, SVG Export Plug-In . SVG Version: 6.00 Build 0)  -->
<!DOCTYPE svg PUBLIC "-//W3C//DTD SVG 1.1//EN" "http://www.w3.org/Graphics/SVG/1.1/DTD/svg11.dtd">
<svg version="1.1" id="Layer_1" xmlns="http://www.w3.org/2000/svg" xmlns:xlink="http://www.w3.org/1999/xlink" x="0px" y="0px"
	 viewBox="0 0 48 48" enable-background="new 0 0 48 48" xml:space="preserve">
<g>
	<polygon fill="#4DA0D8" points="28,0.5 26.1,2.4 45.6,23.2 47.5,21.3 	"/>
	<path fill="#F04B36" d="M24.3,24c5.1,5.5,13.7,5.7,19.5,0.8L24.4,4.1C19.3,9.8,19.2,18.6,24.3,24z"/>
	<path fill="#0DB89A" d="M19.8,19.9L2.6,36.7c-2.6,2.5-2.8,6.5-0.5,9c2.3,2.5,6.3,2.4,8.8-0.1l17.2-16.8c-1.9-0.8-3.6-2-5.1-3.6
		C21.6,23.7,20.5,21.9,19.8,19.9z M16.1,33.6l-1.6-1.7l4.5-4.4l1.6,1.7L16.1,33.6z"/>
</g>
</svg>
