<?xml version="1.0" encoding="utf-8"?>
<!-- Generator: Adobe Illustrator 18.0.0, SVG Export Plug-In . SVG Version: 6.00 Build 0)  -->
<!DOCTYPE svg PUBLIC "-//W3C//DTD SVG 1.1//EN" "http://www.w3.org/Graphics/SVG/1.1/DTD/svg11.dtd">
<svg version="1.1" id="Layer_1" xmlns="http://www.w3.org/2000/svg" xmlns:xlink="http://www.w3.org/1999/xlink" x="0px" y="0px"
	 viewBox="0 0 48 48" enable-background="new 0 0 48 48" xml:space="preserve">
<g>
	<path fill="#06728D" d="M30.5,12.4v2.1c0,0.3-0.2,0.5-0.5,0.5h-0.3v0.6h-1.2v-0.6h-0.3c-0.3,0-0.5-0.2-0.5-0.5v-1.9
		c-2.4,0.2-4.8,0.2-7.3,0.1v1.8c0,0.3-0.2,0.5-0.5,0.5h-0.3v0.6h-1.2v-0.6h-0.3c-0.3,0-0.5-0.2-0.5-0.5v-2c-1.4-0.1-2.8-0.3-4.2-0.5
		v33.1c0,1.3,1,2.3,2.3,2.3h16.6c1.3,0,2.3-1,2.3-2.3V11.8C33.2,12.1,31.8,12.3,30.5,12.4C30.5,12.4,30.5,12.4,30.5,12.4z M33.7,28
		H14.3v-0.6h19.4V28z M33.9,25.7H14.1l1.4-2.4h17L33.9,25.7z"/>
	<path fill="#F04B36" d="M32.3,0.5H15.7c-1.3,0-2.3,1-2.3,2.3v8.7c7,1,14.2,1,21.2-0.3V2.8C34.6,1.5,33.6,0.5,32.3,0.5z M31.7,6.8
		c-0.4,0-0.7-0.3-0.7-0.7c0-0.4,0.3-0.7,0.7-0.7c0.4,0,0.7,0.3,0.7,0.7C32.4,6.5,32.1,6.8,31.7,6.8z M31.7,4.2
		c-0.4,0-0.7-0.3-0.7-0.7s0.3-0.7,0.7-0.7c0.4,0,0.7,0.3,0.7,0.7S32.1,4.2,31.7,4.2z"/>
</g>
</svg>
