<?xml version="1.0" encoding="utf-8"?>
<!-- Generator: Adobe Illustrator 18.0.0, SVG Export Plug-In . SVG Version: 6.00 Build 0)  -->
<!DOCTYPE svg PUBLIC "-//W3C//DTD SVG 1.1//EN" "http://www.w3.org/Graphics/SVG/1.1/DTD/svg11.dtd">
<svg version="1.1" id="Layer_1" xmlns="http://www.w3.org/2000/svg" xmlns:xlink="http://www.w3.org/1999/xlink" x="0px" y="0px"
	 viewBox="0 0 48 48" enable-background="new 0 0 48 48" xml:space="preserve">
<g>
	<path fill="#F7A93B" d="M45.3,3.1C42.1-0.4,36.6-0.3,33,3.2L17.6,18.4l-1.6-1.8l-7.3,7.2l14.9,16.2l7.3-7.2L29.2,31l15.4-15.2
		C48.2,12.3,48.5,6.5,45.3,3.1z M42.2,13.3L26.8,28.4l-2.4-2.6c0.7-0.6,1.4-1.2,2.2-2l7-6.9c3.1-3,5.1-6.1,4.4-6.7
		c-0.6-0.7-3.7,1.2-6.7,4.3l-7,6.9c-0.7,0.7-1.4,1.5-2,2.1l-2.4-2.6L35.3,5.7c2.3-2.2,5.6-2.3,7.6-0.3C44.8,7.6,44.5,11.1,42.2,13.3
		z"/>
	<path fill="#4DA0D8" d="M6,26.3c-1.3,1.2-1.3,3.3-0.1,4.6l1.3,1.4l-1.5,1.5c2.1,2.1,6.5,6.3,8.9,7.7l0.5-0.5l1.3,1.4
		c1.2,1.3,3.2,1.4,4.5,0.1l1.7-1.7L7.7,24.7L6,26.3z"/>
	<path fill="#4DA0D8" d="M2.4,37.1c2.1,2.1,6.5,6.3,8.9,7.7l0.6-0.6c-2.7-1.7-6.9-5.7-8.9-7.7L2.4,37.1z"/>
	<path fill="#4DA0D8" d="M4,35.5c2.1,2.1,6.5,6.3,8.9,7.7l0.6-0.6c-2.7-1.7-6.9-5.7-8.9-7.7L4,35.5z"/>
	<path fill="#4DA0D8" d="M1,39.1l7.4,8c0.7-0.3,1.3-0.7,1.9-1.3l0,0c-2.6-1.7-6.7-5.6-8.8-7.6C1.3,38.5,1.2,38.8,1,39.1z"/>
	<path fill="#4DA0D8" d="M2.1,45.7c1.4,1.6,3.5,2.1,5.5,1.7L0.7,40C0.2,41.9,0.6,44.1,2.1,45.7z"/>
</g>
</svg>
