<?xml version="1.0" encoding="utf-8"?>
<!-- Generator: Adobe Illustrator 18.0.0, SVG Export Plug-In . SVG Version: 6.00 Build 0)  -->
<!DOCTYPE svg PUBLIC "-//W3C//DTD SVG 1.1//EN" "http://www.w3.org/Graphics/SVG/1.1/DTD/svg11.dtd">
<svg version="1.1" id="Layer_1" xmlns="http://www.w3.org/2000/svg" xmlns:xlink="http://www.w3.org/1999/xlink" x="0px" y="0px"
	 viewBox="0 0 48 48" enable-background="new 0 0 48 48" xml:space="preserve">
<g>
	<path fill="#E77528" d="M0.5,10V38h47V10H0.5z M39.3,12.9h3.8c0.7,0,1.2,0.5,1.2,1.2c0,0.6-0.5,1.2-1.2,1.2h-3.8
		c-0.7,0-1.2-0.5-1.2-1.2C38.1,13.5,38.6,12.9,39.3,12.9z M30.7,12.9h3.8c0.7,0,1.2,0.5,1.2,1.2c0,0.6-0.5,1.2-1.2,1.2h-3.8
		c-0.7,0-1.2-0.5-1.2-1.2C29.5,13.5,30,12.9,30.7,12.9z M22.1,12.9h3.8c0.7,0,1.2,0.5,1.2,1.2c0,0.6-0.5,1.2-1.2,1.2h-3.8
		c-0.7,0-1.2-0.5-1.2-1.2C20.9,13.5,21.4,12.9,22.1,12.9z M13.5,12.9h3.8c0.7,0,1.2,0.5,1.2,1.2c0,0.6-0.5,1.2-1.2,1.2h-3.8
		c-0.7,0-1.2-0.5-1.2-1.2C12.3,13.5,12.8,12.9,13.5,12.9z M4.9,12.9h3.8c0.7,0,1.2,0.5,1.2,1.2c0,0.6-0.5,1.2-1.2,1.2H4.9
		c-0.7,0-1.2-0.5-1.2-1.2C3.7,13.5,4.2,12.9,4.9,12.9z M3,36.2V21.4h2.4v9.9h1.1v5H3z M7.8,36.2v-5h1.1v-9.9h1.3v9.9h1.1v5H7.8z
		 M12.6,36.2v-5h1.1v-9.9H15v9.9h1.1v5H12.6z M17.4,36.2v-5h1.1v-9.9h1.3v9.9h1.1v5H17.4z M22.2,36.2v-5h1.1v-9.9h1.3v9.9h1.1v5
		H22.2z M27.1,36.2v-5h1.1v-9.9h1.3v9.9h1.1v5H27.1z M31.9,36.2v-5H33v-9.9h1.3v9.9h1.1v5H31.9z M36.7,36.2v-5h1.1v-9.9h1.3v9.9h1.1
		v5H36.7z M45,36.2h-3.5v-5h1.1v-9.9H45V36.2z"/>
</g>
</svg>
