<?xml version="1.0" encoding="utf-8"?>
<!-- Generator: Adobe Illustrator 18.0.0, SVG Export Plug-In . SVG Version: 6.00 Build 0)  -->
<!DOCTYPE svg PUBLIC "-//W3C//DTD SVG 1.1//EN" "http://www.w3.org/Graphics/SVG/1.1/DTD/svg11.dtd">
<svg version="1.1" id="Layer_1" xmlns="http://www.w3.org/2000/svg" xmlns:xlink="http://www.w3.org/1999/xlink" x="0px" y="0px"
	 viewBox="0 0 48 48" enable-background="new 0 0 48 48" xml:space="preserve">
<g>
	<path fill="#0DB89A" d="M31,10.4v6.6h2.2c-0.4,2.8-2,8.1-8,8.5c0,0,0,0,0,0V6.6h4.3l-6.1-6.1l-6.1,6.1h4.8v26.9
		c-5.3-1.2-6.4-6.7-6.7-9c0.5-0.6,0.9-1.3,0.9-2.2c0-1.8-1.4-3.2-3.2-3.2c-1.8,0-3.2,1.4-3.2,3.2c0,1.5,1.1,2.8,2.5,3.1
		c0.6,4.2,3.1,10.1,9.7,11.2v4.9c-1,0.5-1.7,1.6-1.7,2.8c0,1.8,1.4,3.2,3.2,3.2c1.8,0,3.2-1.4,3.2-3.2c0-1.2-0.7-2.3-1.7-2.8v-13
		c0,0,0.1,0,0.1,0c0,0,0.1,0,0.1,0c7.7-0.5,10.4-7.1,10.9-11.6h1.7v-6.6H31z"/>
</g>
</svg>
