<?xml version="1.0" encoding="utf-8"?>
<!-- Generator: Adobe Illustrator 18.0.0, SVG Export Plug-In . SVG Version: 6.00 Build 0)  -->
<!DOCTYPE svg PUBLIC "-//W3C//DTD SVG 1.1//EN" "http://www.w3.org/Graphics/SVG/1.1/DTD/svg11.dtd">
<svg version="1.1" id="Layer_1" xmlns="http://www.w3.org/2000/svg" xmlns:xlink="http://www.w3.org/1999/xlink" x="0px" y="0px"
	 viewBox="0 0 48 48" enable-background="new 0 0 48 48" xml:space="preserve">
<g>
	<polygon fill="none" points="34.3,12.8 34.5,12.7 34.3,12.7 	"/>
	<path fill="none" d="M39,30.1c0-0.5-0.5-0.9-0.9-1.1c-0.4-0.1-0.8-0.2-1.2,0c-0.2,1.5-0.7,2.9-1.4,4.1C38.8,31.6,39,30.3,39,30.1z"
		/>
	<path fill="#06728D" d="M37.9,38c0-0.9-1.9-1.6-4.8-2c0.4-0.3,0.9-0.7,1.2-1.2c4.7-1.7,5.7-3.5,5.7-4.8c0-1-0.6-1.9-1.6-2.3
		c-0.4-0.2-0.9-0.2-1.4-0.2c0-0.2,0-0.3,0-0.5H19.5c0,3.7,1.6,7,4.1,8.9c-2.9,0.4-4.9,1.1-4.9,2c0,0.6,1.1,1.2,2.8,1.6H35
		C36.8,39.3,37.9,38.7,37.9,38z M37,29c0.4-0.1,0.8-0.1,1.2,0c0.4,0.2,0.9,0.5,0.9,1.1c0,0.3-0.2,1.5-3.4,3
		C36.3,31.8,36.8,30.4,37,29z"/>
	<polygon fill="none" points="34.3,12.8 34.5,12.7 34.3,12.7 	"/>
	<path fill="#F7A93B" d="M43.5,12c2.4-0.8,4.1-2,4-2.8c-0.2-0.8-2.2-0.8-4.6,0c-1.7,0.5-3,1.3-3.6,2l-3.9,1.3l-0.9,0.3l-0.3,1.4
		l5.3-1.7C40.4,12.6,41.9,12.5,43.5,12z"/>
	<polygon fill="none" points="34.3,12.8 34.5,12.7 34.3,12.7 	"/>
	<path fill="#F7A93B" d="M22.3,14.4c-0.8,0.1-2.2,0.9-3.6,2.1c-2,1.7-3.3,3.6-2.9,4.2c0.4,0.6,2.3-0.2,4.3-1.9
		c1.4-1.2,2.5-2.5,2.9-3.4l3-2.5l-1.6-0.3L22.3,14.4z"/>
	<path fill="#CFD0D1" d="M34.3,16v-1.9l0.3-1.4l-0.3,0.1v-0.1h0.3l0.9-0.3V7.2c0-1.8-1.2-3.3-2.7-3.3h-4.4V0.5h-9v3.3H15V1.4H8v2.4
		H3.2c-1.5,0-2.7,1.5-2.7,3.3v37c0,1.8,1.2,3.3,2.7,3.3h29.5c1.5,0,2.7-1.5,2.7-3.3v-4.5H35H21.5h-4.9c-1.5,0-2.7-1.5-2.7-3.3V16
		c0-1.8,1.2-3.3,2.7-3.3h7.7l1.6,0.3v3H34.3z"/>
</g>
</svg>
