<?xml version="1.0" encoding="utf-8"?>
<!-- Generator: Adobe Illustrator 18.0.0, SVG Export Plug-In . SVG Version: 6.00 Build 0)  -->
<!DOCTYPE svg PUBLIC "-//W3C//DTD SVG 1.1//EN" "http://www.w3.org/Graphics/SVG/1.1/DTD/svg11.dtd">
<svg version="1.1" id="Layer_1" xmlns="http://www.w3.org/2000/svg" xmlns:xlink="http://www.w3.org/1999/xlink" x="0px" y="0px"
	 viewBox="0 0 48 48" enable-background="new 0 0 48 48" xml:space="preserve">
<g>
	<ellipse fill="#4DA0D8" cx="25.5" cy="9.4" rx="2.4" ry="2.3"/>
	<path fill="#F04B36" d="M23.1,14.7c0.5-0.6,0.6-1.4,0.4-2.1l0.3-0.3c-1.1-0.6-1.8-1.7-1.8-3c0-1.9,1.5-3.4,3.5-3.4
		c1.6,0,2.9,1,3.3,2.4c0.4-0.6,0.4-1.5-0.1-2.1l-4.1-5.2c-0.6-0.8-1.7-0.9-2.5-0.3l-4.9,3.8c-0.6-0.4-1.5-0.4-2.2-0.1L1.3,11.4
		c-0.9,0.4-1.1,1.4-0.5,2.2l9.9,12.5c0.6,0.8,1.6,0.8,2.3,0.1L23.1,14.7z"/>
	<path fill="#06728D" d="M44.3,41.6h-13l10.4-12.2c2.3,0,4.2-1.9,4.2-4.1c0-2.3-1.9-4.1-4.2-4.1c-0.6,0-1.2,0.1-1.7,0.4L29,9.7
		c-0.1,1.5-1.2,2.6-2.6,3l11.1,11.9c0,0.2-0.1,0.4-0.1,0.7c0,0.8,0.3,1.6,0.7,2.3l-12,14.1h-2.3v-1.9l-3.2,0.6l-3.4-0.6v1.9h-2
		c-1.8,0-3.2,1.4-3.2,3.2v2.7h35.5v-2.7C47.5,43,46,41.6,44.3,41.6z"/>
</g>
</svg>
