<?xml version="1.0" encoding="utf-8"?>
<!-- Generator: Adobe Illustrator 18.0.0, SVG Export Plug-In . SVG Version: 6.00 Build 0)  -->
<!DOCTYPE svg PUBLIC "-//W3C//DTD SVG 1.1//EN" "http://www.w3.org/Graphics/SVG/1.1/DTD/svg11.dtd">
<svg version="1.1" id="Layer_1" xmlns="http://www.w3.org/2000/svg" xmlns:xlink="http://www.w3.org/1999/xlink" x="0px" y="0px"
	 viewBox="0 0 48 48" enable-background="new 0 0 48 48" xml:space="preserve">
<g>
	<path fill="#F04B36" d="M23.2,25.2c-0.1,0-0.2,0-0.3,0l-13-4v19.2l1.4-0.7c0.1-0.1,12.1-6.3,23.7,0l1.4,0.8V21.2l-13,4
		C23.4,25.2,23.3,25.2,23.2,25.2z"/>
	<path fill="#4DA0D8" d="M45.1,14.2L23.4,7.6c-0.2-0.1-0.4-0.1-0.6,0L1.2,14.2c-0.4,0.1-0.7,0.5-0.7,0.9c0,0.4,0.3,0.8,0.7,0.9
		l8.7,2.6l13,4c0.1,0,0.2,0,0.3,0c0.1,0,0.2,0,0.3,0l13-4l4.9-1.5l-16.4-2.4c-0.5-0.1-0.9-0.6-0.8-1.1c0.1-0.5,0.6-0.9,1.1-0.8
		l18.6,2.7v0.8l1.3-0.4c0.4-0.1,0.7-0.5,0.7-0.9C45.8,14.7,45.6,14.4,45.1,14.2z"/>
	<path fill="#E77528" d="M41.9,17.3v11.1c0,0.5,0.4,1,1,1c0.5,0,1-0.4,1-1v-12l-2.5,0.8L41.9,17.3z"/>
	<path fill="#E77528" d="M46.5,38.3c-0.5,0-1-0.4-1-1v-5.9l-2.6-1.1c-0.5-0.2-0.7-0.8-0.5-1.3c0.2-0.5,0.8-0.7,1.3-0.5l3.2,1.4
		c0.4,0.2,0.6,0.5,0.6,0.9v6.5C47.5,37.9,47.1,38.3,46.5,38.3z"/>
	<path fill="#E77528" d="M39.3,38.3c-0.5,0-1-0.4-1-1v-6.5c0-0.4,0.2-0.7,0.6-0.9l3.2-1.4c0.5-0.2,1.1,0,1.3,0.5
		c0.2,0.5,0,1.1-0.5,1.3l-2.6,1.1v5.9C40.2,37.9,39.8,38.3,39.3,38.3z"/>
	<path fill="#E77528" d="M42.9,37.3c-0.5,0-1-0.4-1-1V30c0-0.5,0.4-1,1-1c0.5,0,1,0.4,1,1v6.3C43.8,36.9,43.4,37.3,42.9,37.3z"/>
</g>
</svg>
