<?xml version="1.0" encoding="utf-8"?>
<!-- Generator: Adobe Illustrator 18.0.0, SVG Export Plug-In . SVG Version: 6.00 Build 0)  -->
<!DOCTYPE svg PUBLIC "-//W3C//DTD SVG 1.1//EN" "http://www.w3.org/Graphics/SVG/1.1/DTD/svg11.dtd">
<svg version="1.1" id="Layer_1" xmlns="http://www.w3.org/2000/svg" xmlns:xlink="http://www.w3.org/1999/xlink" x="0px" y="0px"
	 viewBox="0 0 48 48" enable-background="new 0 0 48 48" xml:space="preserve">
<g>
	<path fill="#CC3736" d="M6,47.5c-0.1,0-0.2,0-0.2,0c-0.5-0.1-0.8-0.7-0.7-1.2l2.6-10.6c0.1-0.5,0.7-0.8,1.2-0.7
		c0.5,0.1,0.8,0.7,0.7,1.2L7,46.8C6.8,47.2,6.5,47.5,6,47.5z"/>
	<path fill="#CC3736" d="M15.7,8.1c-0.1,0-0.2,0-0.2,0c-0.5-0.1-0.8-0.7-0.7-1.2l1.4-5.6c0.1-0.5,0.7-0.8,1.2-0.7
		c0.5,0.1,0.8,0.7,0.7,1.2l-1.4,5.6C16.5,7.8,16.1,8.1,15.7,8.1z"/>
	<path fill="#CC3736" d="M42,47.5c-0.4,0-0.8-0.3-0.9-0.7l-2.6-10.6c-0.1-0.5,0.2-1,0.7-1.2c0.5-0.1,1,0.2,1.2,0.7l2.6,10.6
		c0.1,0.5-0.2,1-0.7,1.2C42.1,47.5,42.1,47.5,42,47.5z"/>
	<path fill="#CC3736" d="M32.3,8.1c-0.4,0-0.8-0.3-0.9-0.7L30,1.7c-0.1-0.5,0.2-1,0.7-1.2c0.5-0.1,1,0.2,1.2,0.7l1.4,5.6
		c0.1,0.5-0.2,1-0.7,1.2C32.4,8.1,32.4,8.1,32.3,8.1z"/>
	<path fill="#E2A14A" d="M24,47.5c-0.5,0-1-0.4-1-1v-9.8c0-0.5,0.4-1,1-1c0.5,0,1,0.4,1,1v9.8C25,47.1,24.5,47.5,24,47.5z"/>
	<path fill="#E2A14A" d="M24,8.1c-0.5,0-1-0.4-1-1V1.5c0-0.5,0.4-1,1-1c0.5,0,1,0.4,1,1v5.6C25,7.6,24.5,8.1,24,8.1z"/>
	<path fill="#06728D" d="M14,22.6c-1.4,0.1-3.1,0.4-3.7,1.1c-0.3,0.4-0.6,1-0.4,1.5c0.1,0.4,0.5,0.7,1.1,0.9c1.3,0.5,2.7-0.6,3-1.1
		C14,24.5,14,23.6,14,22.6z"/>
	<path fill="#06728D" d="M24.1,19.6c-1.7,0-3.1,1.5-3.1,3.4c0,1.9,1.4,3.4,3.1,3.4c1.7,0,3.1-1.5,3.1-3.4
		C27.3,21.1,25.9,19.6,24.1,19.6z"/>
	<path fill="#06728D" d="M46.5,6.1H1.5c-0.5,0-1,0.4-1,1v28.8c0,0.5,0.4,1,1,1h45.1c0.5,0,1-0.4,1-1V7.1C47.5,6.6,47.1,6.1,46.5,6.1
		z M15.4,28.7c-0.1,0-0.2,0-0.2,0c-0.4,0-0.8-0.3-0.9-0.7c0-0.1-0.1-0.2-0.1-0.5c-0.1,0.1-0.2,0.1-0.3,0.2c-0.7,0.4-1.5,0.5-2.2,0.5
		c-0.5,0-0.9-0.1-1.3-0.2c-1.5-0.6-2.1-1.5-2.3-2.2c-0.3-1.3,0.2-2.6,0.8-3.3c1.1-1.4,3.6-1.7,5-1.8c-0.1-0.4-0.3-0.7-0.6-0.9
		c-1.1-0.8-3.4-0.2-4.1,0.1c-0.5,0.2-1.1,0-1.3-0.5c-0.2-0.5,0-1.1,0.5-1.3c0.4-0.1,3.7-1.4,5.9,0.1c1.1,0.8,1.7,2,1.7,3.8
		c0,4.7,0.1,5.4,0.1,5.5C16.2,28,15.9,28.6,15.4,28.7z M24.1,28.4c-1.2,0-2.3-0.4-3.1-1.2v0.4c0,0.5-0.4,1-1,1c-0.5,0-1-0.4-1-1
		V13.4c0-0.5,0.4-1,1-1c0.5,0,1,0.4,1,1v5.3c0.9-0.7,2-1.2,3.1-1.2c2.8,0,5.1,2.4,5.1,5.4S26.9,28.4,24.1,28.4z M40,26.1
		c-0.1,0.1-0.1,0.2-0.2,0.3c-1,1.2-2.4,2-3.9,2c-2.8,0-5.1-2.4-5.1-5.4s2.3-5.4,5.1-5.4c1.4,0,2.8,0.6,3.7,1.7
		c0.4,0.4,0.3,1-0.1,1.4c-0.4,0.4-1,0.3-1.4-0.1c-0.6-0.7-1.4-1.1-2.3-1.1c-1.7,0-3.1,1.5-3.1,3.4c0,1.9,1.4,3.4,3.1,3.4
		c0.9,0,1.8-0.4,2.4-1.2c0.1-0.1,0.1-0.1,0.1-0.2c0.3-0.4,0.9-0.6,1.3-0.3C40.2,25.1,40.3,25.7,40,26.1z"/>
</g>
</svg>
