<?xml version="1.0" encoding="utf-8"?>
<!-- Generator: Adobe Illustrator 18.0.0, SVG Export Plug-In . SVG Version: 6.00 Build 0)  -->
<!DOCTYPE svg PUBLIC "-//W3C//DTD SVG 1.1//EN" "http://www.w3.org/Graphics/SVG/1.1/DTD/svg11.dtd">
<svg version="1.1" id="Layer_1" xmlns="http://www.w3.org/2000/svg" xmlns:xlink="http://www.w3.org/1999/xlink" x="0px" y="0px"
	 viewBox="0 0 48 48" enable-background="new 0 0 48 48" xml:space="preserve">
<g>
	<path fill="#E77528" d="M7.7,22.4c-0.4,0.2-0.5,0.6-0.5,1C8.6,30.5,7.1,36,5.8,39c-1.5-0.4-3.1,0-4.2,1c-0.8,0.8-1.1,1.8-1.1,2.8
		c0,1.1,0.5,2,1.3,2.8l0.9,0.8c0.8,0.7,1.7,1.1,2.8,1.1c1.1,0,2.2-0.4,3-1.2c1.1-1.1,1.4-2.7,0.9-4.1c2.4-1.1,6.7-2.6,12.2-2.6
		c1.3,0,2.6,0.1,4,0.2c0.4,0,0.8-0.1,1-0.5c0.1-0.1,5.6-10.4,8-15.2L22.9,13.9C18,16.5,7.8,22.4,7.7,22.4z M18.9,33
		c-2.6,0-4.6-2-4.6-4.5c0-2.5,2.1-4.5,4.6-4.5c2.6,0,4.6,2,4.6,4.5C23.5,30.9,21.5,33,18.9,33z"/>
	<path fill="#F04B36" d="M47.2,11.9L34.8,0.7c-0.4-0.3-1-0.3-1.3,0L23.4,11.1c-0.2,0.2-0.3,0.4-0.3,0.7c0,0.3,0.1,0.5,0.3,0.7
		l0.4,0.4l11.4,10.3l0.6,0.5c0.2,0.2,0.4,0.2,0.6,0.2c0.2,0,0.5-0.1,0.7-0.3l10.1-10.3c0.2-0.2,0.3-0.4,0.3-0.7
		C47.5,12.4,47.4,12.1,47.2,11.9z"/>
</g>
</svg>
