<?xml version="1.0" encoding="utf-8"?>
<!-- Generator: Adobe Illustrator 18.0.0, SVG Export Plug-In . SVG Version: 6.00 Build 0)  -->
<!DOCTYPE svg PUBLIC "-//W3C//DTD SVG 1.1//EN" "http://www.w3.org/Graphics/SVG/1.1/DTD/svg11.dtd">
<svg version="1.1" id="Layer_1" xmlns="http://www.w3.org/2000/svg" xmlns:xlink="http://www.w3.org/1999/xlink" x="0px" y="0px"
	 viewBox="0 0 48 48" enable-background="new 0 0 48 48" xml:space="preserve">
<g>
	<path fill="#4DA0D8" d="M39.9,18c-0.1-0.2-0.1-0.4-0.2-0.6c0.5,1.7,1,3.3,1.4,4.9c0.4,1.2,0.7,2.6,1,3.9c0.1,0.6,0.3,1.3,0.5,1.9
		c0.5,2.2,1,4.7,1.5,7.3c0,0,0,0,0,0c0.3-0.1,0.6-0.2,0.9-0.3c1.2-0.6,2-1.4,2.3-2.4C48.4,27.8,45.6,22.3,39.9,18z"/>
	<path fill="#4DA0D8" d="M35.1,42.5l-0.3-2c-0.6-4-1-7.7-1.3-11c0-0.7-0.1-1.3-0.2-2c-0.1-1.3-0.2-2.7-0.3-4
		c-0.1-1.7-0.2-3.4-0.2-5.2l0-0.1c-1.4-0.6-2.5-1.7-3.2-3.3c0-0.1-0.3-0.8-0.4-1.8c-0.9-0.2-1.8-0.4-2.7-0.5
		c-12.8-1.9-24.5,4.2-26,13.7c-0.6,3.7,0.4,7.5,2.8,10.9c3.6,5.1,10.3,8.8,17.7,10c1.8,0.3,3.7,0.5,5.5,0.5c3.2,0,6.2-0.7,8-3
		c0.3-0.4,0.5-0.8,0.6-1.2C35.2,43.1,35.1,42.8,35.1,42.5z M5.8,25.3c0-2.3,2.3-4.2,5.2-4.2c2.9,0,5.2,1.8,5.2,4.2
		c0,2.3-2.3,4.2-5.2,4.2C8.1,29.5,5.8,27.7,5.8,25.3z M17,39.8c-2.9,0-5.2-1.8-5.2-4.2c0-2.3,2.3-4.2,5.2-4.2c2.9,0,5.2,1.8,5.2,4.2
		C22.2,37.9,19.9,39.8,17,39.8z M22.1,23.8c-2.9,0-5.2-1.8-5.2-4.2c0-2.3,2.3-4.2,5.2-4.2c2.9,0,5.2,1.8,5.2,4.2
		C27.3,21.9,25,23.8,22.1,23.8z"/>
	<path fill="#F04B36" d="M39.1,16.5c0.4-0.3,0.8-0.6,1.1-0.9c0.9-1,1.4-2.2,1.3-3.6C41.4,7.8,37.2,2.6,35,0.5
		c0.5,2.1-0.4,3.3-2.2,5.7l-0.1,0.1c-0.3,0.4-0.6,0.7-0.9,1.1c-0.2,0.2-0.3,0.5-0.5,0.7l-0.1,0.2c-0.1,0.2-0.2,0.3-0.2,0.5
		c0,0.1-0.1,0.2-0.1,0.3c-0.1,0.1-0.1,0.3-0.2,0.5l-0.1,0.2c0,0.2-0.1,0.3-0.1,0.5l0,0.2c-0.1,0.4-0.1,0.9-0.2,1.4
		c0,0.2,0,0.4,0,0.6c0,0.2,0,0.4,0,0.5c0.1,0.9,0.3,1.6,0.3,1.6c0.5,1.3,1.5,2.3,2.6,2.8l0.6,0.3l4.7-0.6L39.1,16.5z"/>
	<path fill="#06728D" d="M44.1,41.2l-0.3-2c-0.1-0.8-0.3-1.5-0.4-2.2l-0.3-1.4c-0.5-2.7-1-5.1-1.5-7.2c-0.2-0.6-0.3-1.2-0.5-1.9
		c-0.3-1.3-0.6-2.6-1-3.9c-0.4-1.6-0.9-3.2-1.4-4.9l-0.2-0.7l-4.7,0.6l0,0.8c0,1.7,0.1,3.5,0.2,5.2c0,1.3,0.2,2.6,0.3,3.9
		c0.1,0.7,0.1,1.3,0.2,2c0.3,3.3,0.7,7,1.3,11l0.3,2c0,0.2,0.1,0.4,0.1,0.6c0,0.2,0.1,0.3,0.2,0.5c0.1,0.1,0.2,0.3,0.3,0.4
		c0.4,0.4,1,0.6,1.4,0.8c0.4,0.2,0.8,0.2,0.8,0.2c0.3,0.1,0.7,0.1,1,0.1c0.8,0,1.5-0.2,2.2-0.6c0,0,0.3-0.2,0.7-0.5
		c0.2-0.2,0.8-0.6,1.1-1.2C44.2,42.3,44.3,41.8,44.1,41.2z"/>
</g>
</svg>
