<?xml version="1.0" encoding="utf-8"?>
<!-- Generator: Adobe Illustrator 18.0.0, SVG Export Plug-In . SVG Version: 6.00 Build 0)  -->
<!DOCTYPE svg PUBLIC "-//W3C//DTD SVG 1.1//EN" "http://www.w3.org/Graphics/SVG/1.1/DTD/svg11.dtd">
<svg version="1.1" id="Layer_1" xmlns="http://www.w3.org/2000/svg" xmlns:xlink="http://www.w3.org/1999/xlink" x="0px" y="0px"
	 viewBox="0 0 48 48" enable-background="new 0 0 48 48" xml:space="preserve">
<g>
	<path fill="#F04B36" d="M9.1,21c-1.1-0.6-4.7-2.6-4.9-4.7c-0.2-2,3.7-4.9,5.3-6l0.2-0.1c0.2-0.1,3.8-1.6,6.8,1.6l-1.4,1.3
		c-1.8-2-4.1-1.3-4.5-1.2c-2.3,1.5-4.4,3.5-4.4,4.1c0.1,0.6,1.9,2.1,3.9,3.1L9.1,21z"/>
	<path fill="#06728D" d="M9.9,27.7c-5.2,0-9.4,4.2-9.4,9.4c0,5.2,4.2,9.4,9.4,9.4c5.2,0,9.4-4.2,9.4-9.4
		C19.3,31.9,15.1,27.7,9.9,27.7z"/>
	<path fill="#06728D" d="M38.1,27.7c-5.2,0-9.4,4.2-9.4,9.4c0,5.2,4.2,9.4,9.4,9.4c5.2,0,9.4-4.2,9.4-9.4
		C47.5,31.9,43.3,27.7,38.1,27.7z"/>
	<path fill="#4DA0D8" d="M36.7,18.3c-0.3-0.7-0.8-1.2-1.5-1.5c-2.4-1.1-14.5-6.6-17.1-6.6h0c-0.4,0-1.6,0.5-1.9,0.8l-6.8,7.8
		l-0.1,0.1c-0.1,0.2-1,1.6-1,3.1c-0.2,1.4,0.6,2.7,1.9,3.3l7.8,3.3l4,9.6c0.5,1.2,1.7,2,3,2c0.4,0,0.8-0.1,1.2-0.2
		c0.8-0.3,1.4-0.9,1.7-1.7c0.3-0.8,0.3-1.7,0-2.5l-5-12L19,22.1l3.8-4.3L33,22c1.4,0.6,3.1-0.1,3.7-1.5C37,19.8,37,19,36.7,18.3z"/>
	<path fill="#F7A93B" d="M26.7,1.5c-2.8,0-5,2.3-5,5c0,2.8,2.3,5,5,5c2.8,0,5-2.3,5-5C31.7,3.8,29.5,1.5,26.7,1.5z"/>
</g>
</svg>
