<?xml version="1.0" encoding="utf-8"?>
<!-- Generator: Adobe Illustrator 18.0.0, SVG Export Plug-In . SVG Version: 6.00 Build 0)  -->
<!DOCTYPE svg PUBLIC "-//W3C//DTD SVG 1.1//EN" "http://www.w3.org/Graphics/SVG/1.1/DTD/svg11.dtd">
<svg version="1.1" id="Layer_1" xmlns="http://www.w3.org/2000/svg" xmlns:xlink="http://www.w3.org/1999/xlink" x="0px" y="0px"
	 viewBox="0 0 48 48" enable-background="new 0 0 48 48" xml:space="preserve">
<g>
	<path fill="#F7A93B" d="M23.6,1.9c-4.6,0.1-8.3,3.9-8.2,8.6c0.1,4.7,3.9,8.4,8.4,8.3c4.6-0.1,8.3-3.9,8.2-8.6
		C32,5.5,28.2,1.8,23.6,1.9z"/>
	<path fill="#0DB89A" d="M39.8,35.5c-0.9-0.7-1.8-2-2.1-3c-0.2-0.6-0.3-1.9,0.4-2.8c-0.1-0.4-0.2-0.8-0.1-1.2c0.1-0.9,0.5-1.2,1-1.4
		c-0.1-0.6,0-1.4,0.6-2c0.4-0.4,0.8-0.6,1.3-0.6c-0.1-1,0.3-2,1-2.7c0.2-0.3,0.5-0.5,1-0.5c0.1,0,0.1,0,0.2,0.1l-0.1-6
		c0-0.3-0.2-0.6-0.4-0.8c-0.3-0.2-0.6-0.2-0.9-0.1l-16.8,7.1c-0.3,0.1-0.6,0.5-0.6,0.9l0.3,22.6c0,0.3,0.2,0.6,0.4,0.7
		c0.2,0.1,0.3,0.2,0.5,0.2c0.1,0,0.2,0,0.3-0.1l16.8-6.4c0.4-0.1,0.6-0.5,0.6-0.9l0-2.5c-0.3,0.1-0.5,0.1-0.8,0.1
		C41.6,36.3,40.6,36,39.8,35.5z"/>
	<path fill="#0DB89A" d="M40.9,26.3c-0.2,0.2-0.2,0.4,0.1,1.2c0.1,0.3,0.1,0.6-0.1,0.8c-0.2,0.2-0.4,0.4-0.7,0.4l-0.2,0
		c-0.1,0-0.1,0-0.2,0c0,0.2,0.1,0.4,0.1,0.5c0.4,0.2,0.5,0.7,0.3,1.1c-0.1,0.3-0.4,0.6-0.8,0.6c-0.1,0.2-0.1,0.8,0,1
		c0.2,0.6,0.9,1.6,1.4,2c0.4,0.3,0.9,0.5,1.4,0.5l-0.1-8c-0.2,0-0.4,0-0.5-0.1C41.4,26.2,41.1,26.2,40.9,26.3z"/>
	<path fill="#F7A93B" d="M47.3,27c-0.3-1.2-0.8-2.2-1.6-3.4c-0.3-0.5-1.4-2-2.7-2.3l0,1.6c0,0.5-0.4,0.9-0.9,0.9l0,2.6
		c0.2,0,0.4-0.1,0.5-0.2c0.3-0.3,0.4-0.7,0.2-1c-0.2-0.5-0.3-1.3,0-1.9c0.4,0.3,0.8,0.8,1.2,1.3c0.7,1,1.1,1.8,1.3,2.8
		c0.5,2.1-0.2,4.1-1.2,5.9c-0.4,0.7-0.9,1-1.3,1.1c-0.2,0.1-0.4,0.1-0.7,0l0,0c0.5,0,0.9,0.4,0.9,0.9l0,0.8c0.1,0,0.1,0,0.2,0
		c1.1-0.3,2-1,2.5-2C47,32.1,48,29.7,47.3,27z"/>
	<path fill="#0DB89A" d="M22.8,21.7l-17-6.6C5.6,15,5.3,15,5,15.2c-0.2,0.2-0.4,0.5-0.4,0.8l0.1,6c0.1,0,0.1,0,0.2-0.1
		c0.4-0.1,0.8,0.1,1,0.4C6.6,23,7,24,6.9,25c0.5,0,0.9,0.2,1.3,0.6c0.7,0.6,0.8,1.4,0.7,2c0.5,0.2,0.9,0.5,1,1.4
		c0.1,0.4,0,0.8-0.1,1.2c0.7,0.8,0.6,2.2,0.5,2.7c-0.3,1.1-1.1,2.4-2,3.1c-0.8,0.6-1.7,0.9-2.7,1c-0.3,0-0.5,0-0.8-0.1l0,2.5
		c0,0.4,0.3,0.7,0.6,0.8l17,5.9c0.1,0,0.2,0.1,0.3,0.1c0.2,0,0.4-0.1,0.5-0.2c0.2-0.2,0.4-0.5,0.4-0.8l-0.3-22.6
		C23.4,22.2,23.2,21.9,22.8,21.7z"/>
	<path fill="#0DB89A" d="M7.3,34.5c0.5-0.4,1.2-1.4,1.4-2.1c0.1-0.3,0-0.8,0-1c-0.4,0-0.7-0.2-0.8-0.6c-0.2-0.4,0-0.8,0.3-1.1
		c0.1,0,0.1-0.3,0.1-0.5c-0.1,0-0.1,0-0.2,0l-0.2,0c-0.3,0-0.6-0.2-0.7-0.4c-0.2-0.2-0.2-0.5-0.1-0.8c0.3-0.8,0.2-1,0-1.2
		c-0.1-0.1-0.5-0.1-0.8,0C6.1,27,5.9,27,5.7,27l0.1,8C6.3,35,6.8,34.8,7.3,34.5z"/>
	<path fill="#F7A93B" d="M5.8,35.1L5.8,35.1c-0.2,0-0.4,0-0.7,0c-0.4-0.1-1-0.3-1.4-1.1c-1-1.8-1.8-3.8-1.3-5.9
		c0.2-1,0.6-1.8,1.2-2.8c0.4-0.6,0.8-1.1,1.2-1.4c0.3,0.5,0.4,1.2,0.1,1.9c-0.2,0.4-0.1,0.8,0.2,1C5.3,26.9,5.5,27,5.7,27l0-2.6
		c-0.5,0-0.9-0.4-0.9-0.9l0-1.6c-1.2,0.4-2.3,1.9-2.6,2.4c-0.7,1.2-1.2,2.2-1.4,3.4c-0.6,2.7,0.4,5.1,1.5,7.2c0.6,1,1.5,1.7,2.6,2
		c0.1,0,0.1,0,0.2,0l0-0.8C4.9,35.5,5.3,35.1,5.8,35.1z"/>
</g>
</svg>
