<?xml version="1.0" encoding="utf-8"?>
<!-- Generator: Adobe Illustrator 18.0.0, SVG Export Plug-In . SVG Version: 6.00 Build 0)  -->
<!DOCTYPE svg PUBLIC "-//W3C//DTD SVG 1.1//EN" "http://www.w3.org/Graphics/SVG/1.1/DTD/svg11.dtd">
<svg version="1.1" id="Layer_1" xmlns="http://www.w3.org/2000/svg" xmlns:xlink="http://www.w3.org/1999/xlink" x="0px" y="0px"
	 viewBox="0 0 48 48" enable-background="new 0 0 48 48" xml:space="preserve">
<g>
	<path fill="#06728D" d="M31.1,33.8c-0.2,0-0.3,0-0.4-0.1c-0.4-0.2-0.5-0.7-0.2-1.1l9-13.4c0.2-0.4,0.7-0.5,1.1-0.2
		c0.4,0.2,0.5,0.7,0.2,1.1l-9,13.4C31.6,33.7,31.4,33.8,31.1,33.8z"/>
	<path fill="#06728D" d="M42.7,21.6c-0.2,0-0.3,0-0.4-0.1l-4.8-3.2c-0.4-0.2-0.5-0.7-0.2-1.1c0.2-0.4,0.7-0.5,1.1-0.2l4.8,3.2
		c0.4,0.2,0.5,0.7,0.2,1.1C43.2,21.5,43,21.6,42.7,21.6z"/>
	<path fill="#06728D" d="M9.8,9.4H3.2c-0.5,0-1-0.4-1-1s0.4-1,1-1h6.6c0.5,0,1,0.4,1,1S10.3,9.4,9.8,9.4z"/>
	<path fill="#06728D" d="M9.8,17.2H3.2c-0.5,0-1-0.4-1-1c0-0.5,0.4-1,1-1h6.6c0.5,0,1,0.4,1,1C10.7,16.8,10.3,17.2,9.8,17.2z"/>
	<path fill="#06728D" d="M9.8,25H3.2c-0.5,0-1-0.4-1-1s0.4-1,1-1h6.6c0.5,0,1,0.4,1,1S10.3,25,9.8,25z"/>
	<path fill="#06728D" d="M9.8,32.7H3.2c-0.5,0-1-0.4-1-1c0-0.5,0.4-1,1-1h6.6c0.5,0,1,0.4,1,1C10.7,32.3,10.3,32.7,9.8,32.7z"/>
	<path fill="#06728D" d="M9.8,40.5H3.2c-0.5,0-1-0.4-1-1c0-0.5,0.4-1,1-1h6.6c0.5,0,1,0.4,1,1C10.7,40.1,10.3,40.5,9.8,40.5z"/>
	<path fill="#4DA0D8" d="M34.4,36.2l-8.4,6.1c-0.2,0.1-0.4,0.2-0.6,0.2c-0.2,0-0.4-0.1-0.5-0.2c-0.3-0.2-0.5-0.6-0.4-1l2.4-10.1
		c0-0.1,0.1-0.2,0.1-0.3L38.9,13V4.6c0-2.3-1.7-4.1-3.7-4.1H8.9c-2.1,0-3.7,1.9-3.7,4.1v38.7c0,2.3,1.7,4.1,3.7,4.1h26.2
		c2.1,0,3.7-1.9,3.7-4.1V30.6c0-0.2-0.1-0.4-0.2-0.6l-4,6C34.5,36.1,34.5,36.2,34.4,36.2z M17.6,9.4h12.2c0.8,0,1.5,0.7,1.5,1.5
		c0,0.8-0.7,1.5-1.5,1.5H17.6c-0.8,0-1.5-0.7-1.5-1.5C16.2,10.1,16.8,9.4,17.6,9.4z M17.6,17.4h12.2c0.8,0,1.5,0.7,1.5,1.5
		c0,0.8-0.7,1.5-1.5,1.5H17.6c-0.8,0-1.5-0.7-1.5-1.5C16.2,18.1,16.8,17.4,17.6,17.4z M16.2,26.9c0-0.8,0.7-1.5,1.5-1.5h7.7
		c0.8,0,1.5,0.7,1.5,1.5c0,0.8-0.7,1.5-1.5,1.5h-7.7C16.8,28.3,16.2,27.7,16.2,26.9z"/>
	<path fill="#F04B36" d="M26.1,41.3c-0.2,0-0.3,0-0.4-0.1c-0.3-0.2-0.4-0.5-0.3-0.9l2-8.4c0-0.1,0.1-0.2,0.1-0.3l11.9-17.9
		c0.2-0.4,0.7-0.5,1.1-0.2l5,3.4c0.2,0.1,0.3,0.3,0.3,0.5c0,0.2,0,0.4-0.1,0.6L33.8,35.9c-0.1,0.1-0.1,0.2-0.2,0.2l-7,5
		C26.4,41.3,26.3,41.3,26.1,41.3z M28.8,32.5l-1.4,6.1l5.1-3.7l11.4-17.1l-3.7-2.5L28.8,32.5z"/>
</g>
</svg>
