<?xml version="1.0" encoding="utf-8"?>
<!-- Generator: Adobe Illustrator 18.0.0, SVG Export Plug-In . SVG Version: 6.00 Build 0)  -->
<!DOCTYPE svg PUBLIC "-//W3C//DTD SVG 1.1//EN" "http://www.w3.org/Graphics/SVG/1.1/DTD/svg11.dtd">
<svg version="1.1" id="Layer_1" xmlns="http://www.w3.org/2000/svg" xmlns:xlink="http://www.w3.org/1999/xlink" x="0px" y="0px"
	 viewBox="0 0 48 48" enable-background="new 0 0 48 48" xml:space="preserve">
<g>
	<path fill="#06728D" d="M43.7,0.5c-2.1,0-3.8,2-3.8,4.5v38c0,2.5,1.7,4.5,3.8,4.5c2.1,0,3.8-2,3.8-4.5V5
		C47.5,2.5,45.8,0.5,43.7,0.5z"/>
	<path fill="#294E58" d="M13.1,13.7H7.5c-0.5,0-1-0.4-1-1c0-0.5,0.4-1,1-1h5.6c0.5,0,1,0.4,1,1C14,13.2,13.6,13.7,13.1,13.7z"/>
	<path fill="#294E58" d="M22.6,13.7h-6.3c-0.5,0-1-0.4-1-1c0-0.5,0.4-1,1-1h6.3c0.5,0,1,0.4,1,1C23.5,13.2,23.1,13.7,22.6,13.7z"/>
	<path fill="#294E58" d="M32.6,13.7h-6.5c-0.5,0-1-0.4-1-1c0-0.5,0.4-1,1-1h6.5c0.5,0,1,0.4,1,1C33.6,13.2,33.2,13.7,32.6,13.7z"/>
	<path fill="#294E58" d="M40.9,13.7h-4.4c-0.5,0-1-0.4-1-1c0-0.5,0.4-1,1-1h4.4c0.5,0,1,0.4,1,1C41.9,13.2,41.4,13.7,40.9,13.7z"/>
	<path fill="#294E58" d="M13.7,25.8H7.5c-0.5,0-1-0.4-1-1c0-0.5,0.4-1,1-1h6.2c0.5,0,1,0.4,1,1C14.7,25.4,14.2,25.8,13.7,25.8z"/>
	<path fill="#294E58" d="M24,25.8h-7.8c-0.5,0-1-0.4-1-1c0-0.5,0.4-1,1-1H24c0.5,0,1,0.4,1,1C25,25.4,24.6,25.8,24,25.8z"/>
	<path fill="#294E58" d="M40.9,25.8H28.4c-0.5,0-1-0.4-1-1c0-0.5,0.4-1,1-1h12.5c0.5,0,1,0.4,1,1C41.9,25.4,41.4,25.8,40.9,25.8z"/>
	<path fill="#294E58" d="M19.4,38H7.5c-0.5,0-1-0.4-1-1c0-0.5,0.4-1,1-1h11.9c0.5,0,1,0.4,1,1C20.4,37.6,20,38,19.4,38z"/>
	<path fill="#294E58" d="M40.9,38H23.4c-0.5,0-1-0.4-1-1c0-0.5,0.4-1,1-1h17.5c0.5,0,1,0.4,1,1C41.9,37.6,41.4,38,40.9,38z"/>
	<path fill="#F04B36" d="M13.1,17.8c2.3,0,4.2-2.3,4.2-5.1s-1.9-5.1-4.2-5.1c-2.3,0-4.2,2.3-4.2,5.1S10.7,17.8,13.1,17.8z"/>
	<path fill="#06728D" d="M22.9,17.8c2.3,0,4.2-2.3,4.2-5.1s-1.9-5.1-4.2-5.1c-2.3,0-4.2,2.3-4.2,5.1S20.6,17.8,22.9,17.8z"/>
	<path fill="#E77528" d="M33.2,7.5c-2.3,0-4.2,2.3-4.2,5.1s1.9,5.1,4.2,5.1c2.3,0,4.2-2.3,4.2-5.1S35.5,7.5,33.2,7.5z"/>
	<path fill="#4DA0D8" d="M13.1,19.7c-2.3,0-4.2,2.3-4.2,5.1c0,2.8,1.9,5.1,4.2,5.1c2.3,0,4.2-2.3,4.2-5.1
		C17.3,22,15.4,19.7,13.1,19.7z"/>
	<path fill="#F04B36" d="M24.8,19.7c-2.3,0-4.2,2.3-4.2,5.1c0,2.8,1.9,5.1,4.2,5.1c2.3,0,4.2-2.3,4.2-5.1C29,22,27.1,19.7,24.8,19.7
		z"/>
	<path fill="#F7A93B" d="M19.7,31.9c-2.3,0-4.2,2.3-4.2,5.1c0,2.8,1.9,5.1,4.2,5.1c2.3,0,4.2-2.3,4.2-5.1
		C23.9,34.2,22,31.9,19.7,31.9z"/>
	<path fill="#06728D" d="M4.3,0.5c-2.1,0-3.8,2-3.8,4.5v38c0,2.5,1.7,4.5,3.8,4.5s3.8-2,3.8-4.5V5C8.1,2.5,6.4,0.5,4.3,0.5z"/>
</g>
</svg>
