<?xml version="1.0" encoding="utf-8"?>
<!-- Generator: Adobe Illustrator 18.0.0, SVG Export Plug-In . SVG Version: 6.00 Build 0)  -->
<!DOCTYPE svg PUBLIC "-//W3C//DTD SVG 1.1//EN" "http://www.w3.org/Graphics/SVG/1.1/DTD/svg11.dtd">
<svg version="1.1" id="Layer_1" xmlns="http://www.w3.org/2000/svg" xmlns:xlink="http://www.w3.org/1999/xlink" x="0px" y="0px"
	 viewBox="0 0 48 48" enable-background="new 0 0 48 48" xml:space="preserve">
<g>
	<rect x="10.7" y="9.6" fill="#F7A93B" width="13.6" height="24"/>
	<path fill="#74BDAF" d="M40.4,10.9c-0.2,0-0.4-0.1-0.6-0.2c-2-1.4-3.2-3.1-3.4-5c-0.3-2.7,1.4-4.8,1.5-4.9c0.3-0.4,1-0.5,1.4-0.1
		c0.4,0.3,0.5,1,0.1,1.4l0,0c0,0-1.3,1.5-1,3.4C38.5,6.8,39.4,8,41,9.1c0.4,0.3,0.5,0.9,0.2,1.3C41,10.7,40.7,10.9,40.4,10.9z"/>
	<path fill="#F04B36" d="M42.1,8.9H23.5v20.7c0,0.4-0.2,0.8-0.6,0.9c-0.4,0.1-0.8,0-1.1-0.3l-4.4-5l-4,4.9c-0.2,0.2-0.5,0.4-0.8,0.4
		c-0.1,0-0.2,0-0.3-0.1c-0.4-0.1-0.6-0.5-0.6-0.9V8.9h-0.4c-0.1,0-0.1,0-0.2,0C10.9,9,10.7,9,10.5,9C8,9,6.9,6.7,6.8,6.6
		C6.6,6.2,6.2,5.9,5.7,6C5.3,6.1,5,6.5,5,7v35.6c0,0,0,0.1,0,0.1c0.7,4.6,5.5,4.8,6,4.8v-1l0.1,1h31c0.5,0,1-0.4,1-1V9.9
		C43,9.4,42.6,8.9,42.1,8.9z"/>
	<path fill="#06728D" d="M42.1,10.9H9.8c0,0-0.1,0-0.1,0C8,10.6,6.8,10,5.9,8.9c-1.1-1.5-1-3.3-1-3.7c0-3.6,3.1-4.6,4.8-4.6h30.6
		c0.5,0,1,0.4,1,1s-0.4,1-1,1H9.8c-0.3,0-2.9,0.2-2.9,2.8c0,0,0,0.1,0,0.1C6.8,5.9,6.6,8.5,9.9,8.9h32.2c0.5,0,1,0.4,1,1
		C43,10.4,42.6,10.9,42.1,10.9z"/>
</g>
</svg>
