<?xml version="1.0" encoding="utf-8"?>
<!-- Generator: Adobe Illustrator 18.0.0, SVG Export Plug-In . SVG Version: 6.00 Build 0)  -->
<!DOCTYPE svg PUBLIC "-//W3C//DTD SVG 1.1//EN" "http://www.w3.org/Graphics/SVG/1.1/DTD/svg11.dtd">
<svg version="1.1" id="Layer_1" xmlns="http://www.w3.org/2000/svg" xmlns:xlink="http://www.w3.org/1999/xlink" x="0px" y="0px"
	 viewBox="0 0 48 48" enable-background="new 0 0 48 48" xml:space="preserve">
<g>
	<path fill="#F04B36" d="M43.3,10.9c-0.2,0-0.4-0.1-0.6-0.2c-2-1.4-3.2-3.1-3.4-5c-0.3-2.7,1.4-4.8,1.5-4.9c0.3-0.4,1-0.5,1.4-0.1
		c0.4,0.3,0.5,1,0.1,1.4l0,0c0,0-1.3,1.5-1,3.4c0.2,1.3,1.1,2.5,2.6,3.6c0.4,0.3,0.5,0.9,0.2,1.3C43.9,10.7,43.6,10.9,43.3,10.9z"/>
	<path fill="#F04B36" d="M43.3,10.9H12.7c0,0-0.1,0-0.1,0c-1.6-0.2-2.9-0.9-3.7-2c-1.1-1.5-1-3.3-1-3.7c0-3.6,3.1-4.6,4.8-4.6h30.6
		c0.5,0,1,0.4,1,1c0,0.5-0.4,1-1,1H12.7c-0.3,0-2.9,0.2-2.9,2.8c0,0,0,0.1,0,0.1c-0.1,0.5-0.3,3.1,2.9,3.6h30.5c0.5,0,1,0.4,1,1
		C44.2,10.4,43.8,10.9,43.3,10.9z"/>
	<path fill="#F7A93B" d="M44.9,8.9H14.6h-0.4c-0.1,0-0.1,0-0.2,0C13.8,9,13.6,9,13.3,9c-2.4,0-3.6-2.4-3.6-2.5
		C9.5,6.2,9.1,5.9,8.6,6C8.2,6.1,7.9,6.5,7.9,7v10.2c2.3-1.6,5.1-2.5,8.1-2.5c7.9,0,14.4,6.4,14.4,14.4c0,7.9-6.4,14.4-14.4,14.4
		c-3,0-5.8-0.9-8.1-2.5v1.7c0,0,0,0.1,0,0.1c0.7,4.6,5.5,4.8,6,4.8v-1l0.1,1h31c0.5,0,1-0.4,1-1V9.9C45.9,9.4,45.5,8.9,44.9,8.9z"/>
	<g>
		<path fill="#4DA0D8" d="M3.2,23.3h3c-0.4,1.5-0.6,3.1-0.7,4.7H2.1C2.2,26.3,2.6,24.7,3.2,23.3z"/>
		<path fill="#4DA0D8" d="M29.9,28h-3.5c-0.1-1.6-0.3-3.2-0.7-4.7h3C29.4,24.7,29.8,26.3,29.9,28z"/>
		<path fill="#4DA0D8" d="M24.4,28h-3.7c0-1.5-0.1-3.1-0.3-4.7h3.3C24,24.7,24.3,26.3,24.4,28z"/>
		<path fill="#4DA0D8" d="M16,43.1c-0.6-0.2-1.5-2.5-2.1-6.3h4.2C17.5,40.6,16.6,42.9,16,43.1z"/>
		<path fill="#4DA0D8" d="M13.6,34.7c-0.1-1.4-0.2-3-0.3-4.7h5.2c0,1.7-0.1,3.3-0.3,4.7H13.6z"/>
		<path fill="#4DA0D8" d="M13.4,28c0-1.7,0.1-3.3,0.3-4.7h4.7c0.1,1.4,0.2,3,0.3,4.7H13.4z"/>
		<path fill="#4DA0D8" d="M16,14.9C16,14.9,16,14.9,16,14.9c0.6,0.2,1.6,2.4,2.1,6.3h-4.2C14.5,17.4,15.4,15.1,16,14.9z"/>
		<path fill="#4DA0D8" d="M20.1,21.3c-0.3-2-0.7-4-1.3-5.5c1.7,1,3.2,3,4.1,5.5H20.1z"/>
		<path fill="#4DA0D8" d="M13.1,15.8c-0.6,1.5-1,3.4-1.3,5.5H9C10,18.8,11.4,16.8,13.1,15.8z"/>
		<path fill="#4DA0D8" d="M11.6,23.3c-0.2,1.6-0.2,3.3-0.3,4.7H7.6c0.1-1.7,0.3-3.2,0.7-4.7H11.6z"/>
		<path fill="#4DA0D8" d="M2.1,30h3.5c0.1,1.6,0.3,3.2,0.7,4.7h-3C2.6,33.3,2.2,31.7,2.1,30z"/>
		<path fill="#4DA0D8" d="M7.6,30h3.7c0,1.5,0.1,3.1,0.3,4.7H8.3C7.9,33.3,7.7,31.7,7.6,30z"/>
		<path fill="#4DA0D8" d="M11.8,36.8c0.3,2,0.7,4,1.3,5.5c-1.7-1-3.2-3-4.1-5.5H11.8z"/>
		<path fill="#4DA0D8" d="M18.9,42.2c0.6-1.5,1-3.4,1.3-5.5H23C22,39.3,20.6,41.2,18.9,42.2z"/>
		<path fill="#4DA0D8" d="M20.4,34.7c0.2-1.6,0.2-3.3,0.3-4.7h3.7c-0.1,1.7-0.3,3.2-0.7,4.7H20.4z"/>
		<path fill="#4DA0D8" d="M26.4,30h3.5c-0.1,1.7-0.5,3.2-1.2,4.7h-3C26.1,33.3,26.3,31.7,26.4,30z"/>
		<path fill="#4DA0D8" d="M27.6,21.3h-2.5c-0.6-1.8-1.5-3.3-2.5-4.6C24.7,17.8,26.4,19.3,27.6,21.3z"/>
		<path fill="#4DA0D8" d="M9.3,16.7c-1,1.3-1.8,2.8-2.5,4.6H4.4C5.6,19.3,7.3,17.8,9.3,16.7z"/>
		<path fill="#4DA0D8" d="M4.4,36.8h2.5c0.6,1.8,1.5,3.3,2.5,4.6C7.3,40.3,5.6,38.7,4.4,36.8z"/>
		<path fill="#4DA0D8" d="M22.7,41.4c1-1.3,1.8-2.8,2.5-4.6h2.5C26.4,38.7,24.7,40.3,22.7,41.4z"/>
	</g>
</g>
</svg>
