<?xml version="1.0" encoding="utf-8"?>
<!-- Generator: Adobe Illustrator 18.0.0, SVG Export Plug-In . SVG Version: 6.00 Build 0)  -->
<!DOCTYPE svg PUBLIC "-//W3C//DTD SVG 1.1//EN" "http://www.w3.org/Graphics/SVG/1.1/DTD/svg11.dtd">
<svg version="1.1" id="Layer_1" xmlns="http://www.w3.org/2000/svg" xmlns:xlink="http://www.w3.org/1999/xlink" x="0px" y="0px"
	 viewBox="0 0 48 48" enable-background="new 0 0 48 48" xml:space="preserve">
<g>
	<path fill="#374F5A" d="M24,43.7c-0.1,0-0.1,0-0.2,0l-22.5-4c-0.5-0.1-0.8-0.5-0.8-1V9.4c0-0.4,0.3-0.8,0.6-0.9l3.4-1.2
		C5,7.1,5.6,7.4,5.8,7.9c0.2,0.5-0.1,1.1-0.6,1.2l-2.7,1v27.8l21.7,3.9c0.5,0.1,0.9,0.6,0.8,1.1C24.9,43.3,24.5,43.7,24,43.7z"/>
	<path fill="#374F5A" d="M24,43.7c-0.5,0-0.9-0.3-1-0.8c-0.1-0.5,0.3-1,0.8-1.1l21.7-3.9V10.1l-2.7-1c-0.5-0.2-0.8-0.7-0.6-1.2
		c0.2-0.5,0.7-0.8,1.2-0.6l3.4,1.2c0.4,0.1,0.6,0.5,0.6,0.9v29.3c0,0.5-0.3,0.9-0.8,1l-22.5,4C24.1,43.7,24.1,43.7,24,43.7z"/>
	<path fill="#CFD0D1" d="M30.7,30.8c-2.1,1.6-4.7,2.5-7.4,2.5c-3.2,0-6.3-1.3-8.6-3.5c-2.3-2.3-3.5-5.3-3.5-8.5
		c0-3.2,1.3-6.3,3.5-8.5c2.3-2.3,5.3-3.5,8.5-3.5c3.2,0,6.3,1.3,8.6,3.5c4.3,4.3,4.7,11.2,1,15.9l7.8,7.8c0.7,0.3,1.3,0.7,2,1.1
		c0.2,0.1,0.3,0.1,0.5,0.1c0.2,0,0.3,0,0.5-0.1c0.3-0.2,0.5-0.5,0.5-0.8V6.5c0-0.3-0.2-0.6-0.5-0.8c-6.1-3.9-13.5-4-19.7-0.3
		C17.8,1.7,10.5,1.8,4.3,5.7C4,5.9,3.9,6.2,3.9,6.5v30.2c0,0.4,0.2,0.7,0.5,0.8c0.3,0.2,0.7,0.2,1,0c5.7-3.6,12.4-3.6,18.1,0
		c0,0,0,0,0,0c0,0,0,0,0,0c0,0,0.1,0,0.1,0c0,0,0.1,0,0.1,0c0.1,0,0.1,0,0.2,0c0,0,0,0,0.1,0c0,0,0,0,0,0c0,0,0.1,0,0.1,0
		c0,0,0.1,0,0.1,0c0,0,0.1,0,0.1,0c0,0,0.1,0,0.1,0c0,0,0,0,0,0c0,0,0,0,0,0c3.2-2,6.7-2.9,10.2-2.6L30.7,30.8z"/>
	<path fill="#F04B36" d="M46.3,45.3c-0.2,0-0.5-0.1-0.7-0.3L30,29.4c-0.4-0.4-0.4-1,0-1.4c0.4-0.4,1-0.4,1.4,0L47,43.6
		c0.4,0.4,0.4,1,0,1.4C46.8,45.2,46.6,45.3,46.3,45.3z"/>
	<path fill="#4DA0D8" d="M31,13.5c-2.1-2.1-4.8-3.2-7.7-3.2c-2.9,0-5.6,1.1-7.7,3.2c-2.1,2.1-3.2,4.8-3.2,7.7c0,2.9,1.1,5.6,3.2,7.7
		c2.1,2.1,4.8,3.2,7.7,3.2c2.9,0,5.6-1.1,7.7-3.2C35.2,24.7,35.2,17.8,31,13.5z M28.5,17.3c-0.4,0.4-0.9,0.4-1.3,0
		c-2.2-2.2-5.8-2.2-8,0c-0.9,0.9-1.4,2-1.6,3.2c-0.1,0.5-0.5,0.8-0.9,0.8c0,0-0.1,0-0.1,0c-0.5-0.1-0.8-0.5-0.8-1
		c0.2-1.6,1-3.1,2.1-4.2c2.9-2.9,7.6-2.9,10.5,0C28.9,16.3,28.9,16.9,28.5,17.3z"/>
</g>
</svg>
