<?xml version="1.0" encoding="utf-8"?>
<!-- Generator: Adobe Illustrator 18.0.0, SVG Export Plug-In . SVG Version: 6.00 Build 0)  -->
<!DOCTYPE svg PUBLIC "-//W3C//DTD SVG 1.1//EN" "http://www.w3.org/Graphics/SVG/1.1/DTD/svg11.dtd">
<svg version="1.1" id="Layer_1" xmlns="http://www.w3.org/2000/svg" xmlns:xlink="http://www.w3.org/1999/xlink" x="0px" y="0px"
	 viewBox="0 0 48 48" enable-background="new 0 0 48 48" xml:space="preserve">
<g>
	<path fill="#294E58" d="M18.7,11.7C18.7,11.7,18.7,11.7,18.7,11.7l-9.5-0.3l3.5,12.9l0.5-0.5c0.1-0.1,7.2-6.6,16.4-4.5l0.7,0.2
		L27,6.7c0-0.1,0-0.1-0.1-0.1l-8,5C18.9,11.6,18.8,11.7,18.7,11.7z"/>
	<path fill="#CFD0D1" d="M18.3,5.1c-0.5,0-0.9-0.3-1-0.8c0-0.5,0.3-0.9,0.8-1l11.8-1.2l0.3,0.9l2.1-1.3c0.2-0.1,0.2-0.3,0.2-0.5
		C32.4,1.1,32.2,1,32,1L15.9,0.5c-0.1,0-0.2,0-0.3,0.1L2.1,9.1C1.9,9.2,1.8,9.4,1.9,9.6C1.9,9.8,2.1,9.9,2.3,10l6.6,0.2l9.5,0.3
		c0,0,0,0,0,0c0.1,0,0.2,0,0.2-0.1l8-5l1.9-1.2C27.9,4.2,18.3,5.1,18.3,5.1z"/>
	<path fill="#F04B36" d="M31.4,11.8c-0.2,0-0.4-0.1-0.4-0.3l-2.1-7.8l-10.6,1c-0.3,0-0.5-0.2-0.5-0.4c0-0.2,0.2-0.5,0.4-0.5
		l11.4-1.1l2.3,8.5c0.1,0.2-0.1,0.5-0.3,0.6C31.5,11.8,31.5,11.8,31.4,11.8z"/>
	<path fill="#F04B36" d="M35.1,15.9c-0.2,0-0.4-0.1-0.4-0.3c-0.3-0.9-0.7-1.6-1.4-2.4l-0.1-0.1c-0.2-0.3-0.5-0.6-0.8-0.8
		c-0.1-0.1-0.3-0.1-0.5-0.2c-0.3-0.1-0.7-0.3-0.9-0.5c-0.2-0.2-0.1-0.5,0.1-0.6c0.2-0.2,0.5-0.1,0.6,0.1c0.1,0.1,0.3,0.2,0.5,0.3
		c0.2,0.1,0.4,0.2,0.6,0.3c0.4,0.3,0.7,0.6,1,1l0.1,0.1c0.7,0.9,1.2,1.6,1.5,2.7c0.1,0.2-0.1,0.5-0.3,0.6
		C35.2,15.9,35.2,15.9,35.1,15.9z"/>
	<path fill="#F04B36" d="M31.8,17.2c-0.1,0-0.2,0-0.3-0.1c-0.3-0.3-0.5-0.7-0.8-1.3c-0.1-0.1-0.1-0.3-0.2-0.4
		c-0.1-0.3-0.3-0.6-0.4-1c-0.2-0.6-0.2-1.1-0.1-1.6c0-0.2,0.4-1.7,1.2-1.9c0.2-0.1,0.5,0.1,0.5,0.3c0.1,0.2-0.1,0.5-0.3,0.5
		c-0.2,0.1-0.4,0.7-0.5,1.2c-0.1,0.4-0.1,0.8,0.1,1.2c0.1,0.3,0.2,0.5,0.3,0.8c0.1,0.2,0.1,0.3,0.2,0.5c0.2,0.5,0.4,0.9,0.6,1.1
		c0.2,0.2,0.2,0.5,0,0.6C32.1,17.1,32,17.2,31.8,17.2z"/>
	<path fill="#F04B36" d="M33.5,16.9c-0.2,0-0.4-0.2-0.4-0.4c0-0.2-0.2-0.5-0.4-0.8c-0.1-0.1-0.2-0.3-0.2-0.4
		c-0.1-0.1-0.2-0.3-0.2-0.4c-0.1-0.3-0.3-0.5-0.4-0.9c-0.1-0.2-0.2-0.4-0.3-0.7c-0.3-0.6-0.5-1.3-0.7-2c-0.1-0.2,0.1-0.5,0.3-0.6
		c0.2-0.1,0.5,0.1,0.6,0.3c0.2,0.6,0.4,1.3,0.7,1.9c0.1,0.2,0.2,0.5,0.3,0.7c0.1,0.3,0.2,0.5,0.4,0.7c0.1,0.1,0.2,0.3,0.2,0.5
		c0.1,0.1,0.1,0.2,0.2,0.4c0.2,0.3,0.4,0.7,0.5,1.1C34,16.6,33.9,16.9,33.5,16.9C33.6,16.9,33.6,16.9,33.5,16.9z"/>
	<path fill="#06728D" d="M46,46.1l-6-13.3c-0.1-0.3-0.5-0.5-0.8-0.5H9.2c-0.4,0-0.7,0.2-0.8,0.5l-6,13.4c-0.1,0.3-0.1,0.6,0.1,0.9
		c0.2,0.3,0.5,0.4,0.8,0.4h42c0,0,0,0,0,0c0.5,0,0.9-0.4,0.9-0.9C46.2,46.4,46.1,46.2,46,46.1z M14.3,43h-2.2
		c-0.5,0-0.9-0.4-0.9-0.9c0-0.5,0.4-0.9,0.9-0.9h2.2c0.5,0,0.9,0.4,0.9,0.9C15.2,42.6,14.8,43,14.3,43z M15.6,38.6h-1.9
		c-0.5,0-0.9-0.4-0.9-0.9c0-0.5,0.4-0.9,0.9-0.9h1.9c0.5,0,0.9,0.4,0.9,0.9C16.5,38.2,16.1,38.6,15.6,38.6z M21.6,43h-2.2
		c-0.5,0-0.9-0.4-0.9-0.9c0-0.5,0.4-0.9,0.9-0.9h2.2c0.5,0,0.9,0.4,0.9,0.9C22.5,42.6,22.1,43,21.6,43z M22,38.6h-1.9
		c-0.5,0-0.9-0.4-0.9-0.9c0-0.5,0.4-0.9,0.9-0.9H22c0.5,0,0.9,0.4,0.9,0.9C22.9,38.2,22.5,38.6,22,38.6z M25.6,37.7
		c0-0.5,0.4-0.9,0.9-0.9h1.9c0.5,0,0.9,0.4,0.9,0.9c0,0.5-0.4,0.9-0.9,0.9h-1.9C26,38.6,25.6,38.2,25.6,37.7z M29,43h-2.2
		c-0.5,0-0.9-0.4-0.9-0.9c0-0.5,0.4-0.9,0.9-0.9H29c0.5,0,0.9,0.4,0.9,0.9C29.9,42.6,29.5,43,29,43z M31.9,37.7
		c0-0.5,0.4-0.9,0.9-0.9h1.9c0.5,0,0.9,0.4,0.9,0.9c0,0.5-0.4,0.9-0.9,0.9h-1.9C32.3,38.6,31.9,38.2,31.9,37.7z M36.4,43h-2.2
		c-0.5,0-0.9-0.4-0.9-0.9c0-0.5,0.4-0.9,0.9-0.9h2.2c0.5,0,0.9,0.4,0.9,0.9C37.3,42.6,36.9,43,36.4,43z"/>
	<path fill="#F7A93B" d="M29.4,13.1c0-0.2,0-0.4,0.1-0.6c0-0.2,0.2-1,0.7-1.7l-0.8-3H28L29.4,13.1z"/>
	<path fill="#4DA0D8" d="M37.6,7.9h-6l0.7,2.6c0.1,0,0.2,0.1,0.3,0.1c0.2,0.1,0.5,0.2,0.7,0.4c0.5,0.3,0.8,0.7,1.1,1.1l0.1,0.1
		c0.8,0.9,1.3,1.8,1.7,2.9c0.2,0.6-0.2,1.2-0.8,1.3c-0.1,0-0.2,0-0.3,0c-0.2,0-0.3,0-0.5-0.1c0,0.5-0.3,1-0.9,1.1l-0.1,0l-0.1,0
		c-0.3,0-0.6-0.1-0.8-0.3c-0.1,0.1-0.1,0.2-0.2,0.3c-0.2,0.2-0.5,0.3-0.7,0.3c-0.3,0-0.6-0.1-0.8-0.4c-0.3-0.3-0.6-0.8-0.8-1.4
		l1.2,4.3l-1.8-0.4c-1.2-0.3-2.4-0.4-3.6-0.4c-7,0-12.1,4.5-12.3,4.7l-1.3,1.2l-4-14.7l-0.4,0v16.5c0,2,1.4,3.6,3.2,3.6h26.4
		c1.8,0,3.2-1.6,3.2-3.6V11.5C40.8,9.5,39.4,7.9,37.6,7.9z"/>
	<path fill="#010101" d="M18.8,11c-0.1,0-0.1,0-0.2,0.1l0.1,0L18.8,11z"/>
</g>
</svg>
