<?xml version="1.0" encoding="utf-8"?>
<!-- Generator: Adobe Illustrator 18.0.0, SVG Export Plug-In . SVG Version: 6.00 Build 0)  -->
<!DOCTYPE svg PUBLIC "-//W3C//DTD SVG 1.1//EN" "http://www.w3.org/Graphics/SVG/1.1/DTD/svg11.dtd">
<svg version="1.1" id="Layer_1" xmlns="http://www.w3.org/2000/svg" xmlns:xlink="http://www.w3.org/1999/xlink" x="0px" y="0px"
	 viewBox="0 0 48 48" enable-background="new 0 0 48 48" xml:space="preserve">
<g>
	<path fill="#06728D" d="M8.4,15.5c-0.5,0-1-0.4-1-1V1.5c0-0.5,0.4-1,1-1c0.5,0,1,0.4,1,1v13.1C9.4,15.1,9,15.5,8.4,15.5z"/>
	<path fill="#06728D" d="M24,24.6c-0.5,0-1-0.4-1-1V1.5c0-0.5,0.4-1,1-1c0.5,0,1,0.4,1,1v22.1C25,24.1,24.5,24.6,24,24.6z"/>
	<path fill="#06728D" d="M39.6,33.6c-0.5,0-1-0.4-1-1V1.5c0-0.5,0.4-1,1-1c0.5,0,1,0.4,1,1v31.2C40.5,33.2,40.1,33.6,39.6,33.6z"/>
	<path fill="#06728D" d="M8.4,47.5c-0.5,0-1-0.4-1-1v-4.9c0-0.5,0.4-1,1-1c0.5,0,1,0.4,1,1v4.9C9.4,47.1,9,47.5,8.4,47.5z"/>
	<path fill="#06728D" d="M24,47.5c-0.5,0-1-0.4-1-1v-4.9c0-0.5,0.4-1,1-1c0.5,0,1,0.4,1,1v4.9C25,47.1,24.5,47.5,24,47.5z"/>
	<path fill="#06728D" d="M39.6,47.5c-0.5,0-1-0.4-1-1v-4.9c0-0.5,0.4-1,1-1c0.5,0,1,0.4,1,1v4.9C40.5,47.1,40.1,47.5,39.6,47.5z"/>
	<circle fill="#294E58" cx="24" cy="37.1" r="4.5"/>
	<circle fill="#F04B36" cx="39.6" cy="37.1" r="4.5"/>
	<circle fill="#0DB89A" cx="24" cy="28.1" r="4.5"/>
	<circle fill="#0DB89A" cx="8.4" cy="37.1" r="4.5"/>
	<circle fill="#F7A93B" cx="8.4" cy="28.1" r="4.5"/>
	<circle fill="#F04B36" cx="8.4" cy="19.1" r="4.5"/>
	<path fill="#294E58" d="M46.5,47.5H1.5c-0.5,0-1-0.4-1-1c0-0.5,0.4-1,1-1h45.1c0.5,0,1,0.4,1,1C47.5,47.1,47.1,47.5,46.5,47.5z"/>
</g>
</svg>
