<?xml version="1.0" encoding="utf-8"?>
<!-- Generator: Adobe Illustrator 18.0.0, SVG Export Plug-In . SVG Version: 6.00 Build 0)  -->
<!DOCTYPE svg PUBLIC "-//W3C//DTD SVG 1.1//EN" "http://www.w3.org/Graphics/SVG/1.1/DTD/svg11.dtd">
<svg version="1.1" id="Layer_1" xmlns="http://www.w3.org/2000/svg" xmlns:xlink="http://www.w3.org/1999/xlink" x="0px" y="0px"
	 viewBox="0 0 48 48" enable-background="new 0 0 48 48" xml:space="preserve">
<g>
	<path fill="#F04B36" d="M46.1,33.7l-1.5-1.2l-3.2,3.8l1.5,1.2c1.4,1.1,3.3,1.2,4.2,0.1C47.9,36.6,47.5,34.8,46.1,33.7z"/>
	<path fill="#F04B36" d="M43.8,31.9L27.9,19.1c0,0-4.9-2.2-6.1-1.8c-0.1,0.6,2.8,5.6,2.8,5.6l15.9,12.8L42,34l0,0L43.8,31.9z"/>
	<path fill="#06728D" d="M0.7,46.8c0.1,0.1,0.1,0.2,0.2,0.3c0.2,0.1,0.4,0.2,0.6,0.2c0.1,0,0.1,0,0.2,0l34.8-8.2
		c0.2,0,0.3-0.1,0.5-0.3l-14.6-8L0.7,46.8z"/>
	<path fill="#4DA0D8" d="M22.6,28.7l14.5,7.9v-2.9l-13-10.4l-0.1-0.1c-3-5.2-2.9-5.8-2.9-6.1l0-0.4l0.4-0.1c0.2-0.1,0.4-0.1,0.6-0.1
		c1.7,0,5.5,1.7,6,1.9l0.1,0l8.9,7.1V1.7c0-0.5-0.4-1-1-1H1.5c-0.5,0-1,0.4-1,1v42.7l21.1-15.7C21.9,28.6,22.3,28.5,22.6,28.7z
		 M7.9,6h20.2c0.5,0,1,0.4,1,1s-0.4,1-1,1H7.9c-0.5,0-1-0.4-1-1S7.4,6,7.9,6z M7.9,12.4h20.2c0.5,0,1,0.4,1,1c0,0.5-0.4,1-1,1H7.9
		c-0.5,0-1-0.4-1-1C7,12.8,7.4,12.4,7.9,12.4z M7.9,18.9H21c0.5,0,1,0.4,1,1c0,0.5-0.4,1-1,1H7.9c-0.5,0-1-0.4-1-1
		C7,19.4,7.4,18.9,7.9,18.9z M7,26.4c0-0.5,0.4-1,1-1h17.2c0.5,0,1,0.4,1,1c0,0.5-0.4,1-1,1H7.9C7.4,27.3,7,26.9,7,26.4z"/>
</g>
</svg>
