<?xml version="1.0" encoding="utf-8"?>
<!-- Generator: Adobe Illustrator 18.0.0, SVG Export Plug-In . SVG Version: 6.00 Build 0)  -->
<!DOCTYPE svg PUBLIC "-//W3C//DTD SVG 1.1//EN" "http://www.w3.org/Graphics/SVG/1.1/DTD/svg11.dtd">
<svg version="1.1" id="Layer_1" xmlns="http://www.w3.org/2000/svg" xmlns:xlink="http://www.w3.org/1999/xlink" x="0px" y="0px"
	 viewBox="0 0 48 48" enable-background="new 0 0 48 48" xml:space="preserve">
<g>
	<path fill="#4DA0D8" d="M16.7,13.7V3.9H8.7v9.8c-2.1,0.8-3.9,2.2-5.2,4h18.3C20.6,15.9,18.8,14.5,16.7,13.7z"/>
	<path fill="#F7A93B" d="M22.9,19.6c0,0-0.1,0-0.1,0H2.6c0,0-0.1,0-0.1,0c-0.6,1.4-1,3-1,4.6c0,6.2,5,11.2,11.2,11.2
		c6.2,0,11.2-5,11.2-11.2C23.9,22.5,23.5,21,22.9,19.6z"/>
	<path fill="#0DB89A" d="M18.2,0.5h-2.4H9.7H7.3c-0.5,0-0.9,0.4-0.9,0.9c0,0.5,0.4,0.9,0.9,0.9h1.5h7.9h1.5c0.5,0,0.9-0.4,0.9-0.9
		C19.1,0.9,18.7,0.5,18.2,0.5z"/>
	<polygon fill="#CFD0D1" points="25.6,29.1 23.6,31.6 37.3,31.6 35.4,29.1 35.4,16.1 25.6,16.1 	"/>
	<path fill="#F04B36" d="M36.8,12.6h-2.4h-7.9h-2.4c-0.5,0-0.9,0.4-0.9,0.9c0,0.5,0.4,0.9,0.9,0.9h1.5h9.8h1.5
		c0.5,0,0.9-0.4,0.9-0.9C37.8,13,37.4,12.6,36.8,12.6z"/>
	<path fill="#F04B36" d="M45.2,41.7l-6.4-8.3c0,0-0.1,0-0.1,0H22.3c-0.1,0-0.1,0-0.1,0l-6.4,8.3c-1.2,1.6-1.6,3.1-1,4.2
		c0.3,0.6,1.1,1.6,3.1,1.6h25.2c2,0,2.8-1,3.1-1.6C46.8,44.8,46.4,43.3,45.2,41.7z"/>
</g>
</svg>
