<?xml version="1.0" encoding="utf-8"?>
<!-- Generator: Adobe Illustrator 18.0.0, SVG Export Plug-In . SVG Version: 6.00 Build 0)  -->
<!DOCTYPE svg PUBLIC "-//W3C//DTD SVG 1.1//EN" "http://www.w3.org/Graphics/SVG/1.1/DTD/svg11.dtd">
<svg version="1.1" id="Layer_1" xmlns="http://www.w3.org/2000/svg" xmlns:xlink="http://www.w3.org/1999/xlink" x="0px" y="0px"
	 viewBox="0 0 48 48" enable-background="new 0 0 48 48" xml:space="preserve">
<g>
	<path fill="#06728D" d="M19.5,41.3c-0.4,0-0.7-0.2-0.9-0.6c-0.2-0.5,0-1.1,0.5-1.3l2.1-0.9l-1.6-24.1L9,8.7
		C8.7,8.5,8.5,8.1,8.5,7.7c0-0.4,0.3-0.7,0.7-0.8L28,0.6c0.3-0.1,0.7,0,0.9,0.2c0.3,0.2,0.4,0.5,0.3,0.9l-1.4,10.2l11.9,19.1
		l1.6-0.9c0.5-0.3,1.1-0.1,1.3,0.4c0.3,0.5,0.1,1.1-0.4,1.3l-2.4,1.3c-0.5,0.2-1,0.1-1.3-0.3L26,12.5c-0.1-0.2-0.2-0.4-0.1-0.6
		l1.2-9L11.9,8l9.1,5c0.3,0.2,0.5,0.5,0.5,0.8l1.7,25.3c0,0.4-0.2,0.8-0.6,1l-2.7,1.2C19.7,41.3,19.6,41.3,19.5,41.3z"/>
	<path fill="#06728D" d="M7.2,28c-0.2,0-0.4-0.1-0.6-0.2l-5.1-4.4c-0.3-0.2-0.4-0.6-0.3-0.9c0.1-0.3,0.3-0.6,0.7-0.7l16-5
		c0.3-0.1,0.6,0,0.9,0.1c0.2,0.2,0.4,0.5,0.4,0.8v5c0,0.5-0.4,1-1,1c-0.5,0-1-0.4-1-1v-3.7L4.1,23l3.8,3.3c0.4,0.3,0.5,1,0.1,1.4
		C7.7,27.8,7.5,28,7.2,28z"/>
	<path fill="#FFD69A" d="M42.8,16.4c-3.1-2-6.5-0.6-6.7-0.5c0,0,0,0,0,0h0l-4.1,1.4L40,30.3l1.2-0.7c0.2-0.1,0.5-0.2,0.7-0.2
		c0.5,0,1,0.3,1.3,0.8c0.4,0.7,0.1,1.6-0.6,2l-2.4,1.3c-0.2,0.1-0.5,0.2-0.7,0.2c-0.5,0-1-0.3-1.2-0.7l-9.1-14.6l-6.7,2.3l1.2,18.4
		c0,0.6-0.3,1.2-0.9,1.4L20,41.7c-0.2,0.1-0.4,0.1-0.6,0.1c-0.6,0-1.1-0.3-1.3-0.9c-0.3-0.7,0-1.6,0.8-1.9l1.8-0.8l-1.1-16.6L7.1,26
		c-0.1,0-0.1,0-0.2,0.1l0,0c0,0,0,0,0,0C6,26.4,5.1,27,4.2,27.8c-0.2,0.1-4.2,3-3.5,7.1c0.6,4,5.2,7.5,13.6,10.4v1.2
		c0,0.5,0.4,1,1,1c0.5,0,1-0.4,1-1v-1.9c0,0,0.1,0.1,0.1,0.1h0c0,0,0,0,0,0c0.1,0.1,0.3,0.1,0.4,0.1c0,0,0,0,0,0c0,0,0,0,0,0
		c0.1,0,0.3,0,0.4-0.1l29.6-13.1c0.1-0.1,0.2-0.2,0.3-0.3c0,0,0.1-0.1,0.1-0.1c0,0,0-0.1,0-0.1c0-0.1,0.1-0.1,0.1-0.2
		c0,0,0-0.1,0-0.1c0-0.1,0-0.1,0-0.2C47.5,23.3,46,18.4,42.8,16.4z M15.6,43.7c-10.1-3.4-12.7-6.8-13-9c-0.4-3,2.7-5.3,2.8-5.3
		c0.8-0.7,1.5-1.1,2.1-1.4c0,0,0,0,0,0l0.1,0c0,0,0,0,0.1,0c0.3-0.1,0.7-0.2,1-0.2c4.5,0,6.8,11.8,7.2,16.1
		C15.8,43.8,15.7,43.7,15.6,43.7z"/>
</g>
</svg>
