<?xml version="1.0" encoding="utf-8"?>
<!-- Generator: Adobe Illustrator 18.0.0, SVG Export Plug-In . SVG Version: 6.00 Build 0)  -->
<!DOCTYPE svg PUBLIC "-//W3C//DTD SVG 1.1//EN" "http://www.w3.org/Graphics/SVG/1.1/DTD/svg11.dtd">
<svg version="1.1" id="Layer_1" xmlns="http://www.w3.org/2000/svg" xmlns:xlink="http://www.w3.org/1999/xlink" x="0px" y="0px"
	 viewBox="0 0 48 48" enable-background="new 0 0 48 48" xml:space="preserve">
<g>
	<path fill="#F04B36" d="M22,14.7c-0.5,0-1-0.4-1-1v-5c0-0.5,0.4-1,1-1c0.5,0,1,0.4,1,1v5C22.9,14.3,22.5,14.7,22,14.7z"/>
	<path fill="#06728D" d="M38.1,29.6c-2.9,0-5.3,2.4-5.3,5.3c0,2.9,2.4,5.3,5.3,5.3c2.9,0,5.3-2.4,5.3-5.3
		C43.5,31.9,41.1,29.6,38.1,29.6z"/>
	<path fill="#06728D" d="M10.8,29.6c-2.9,0-5.3,2.4-5.3,5.3c0,2.9,2.4,5.3,5.3,5.3c2.9,0,5.3-2.4,5.3-5.3
		C16.2,31.9,13.8,29.6,10.8,29.6z"/>
	<rect x="22.2" y="18.3" fill="#4DA0D8" width="5.2" height="5"/>
	<rect x="29.4" y="18.3" fill="#4DA0D8" width="5.2" height="5"/>
	<path fill="#F7A93B" d="M46.5,12.8H17.9c-0.5,0-0.9,0.4-1,0.9c-0.1,2.9-0.7,7.4-1.6,8.4c-0.9,0.9-3.4,1.3-5.6,1.6
		c-2.5,0.4-4.8,0.7-6.2,1.8c-1.9,1.6-2.8,7.9-3,9.2c0,0.3,0,0.6,0.2,0.8c0.2,0.2,0.4,0.3,0.7,0.3h3.2c0-0.3-0.1-0.6-0.1-1
		c0-3.5,2.8-6.3,6.3-6.3c3.5,0,6.3,2.8,6.3,6.3c0,0.3,0,0.7-0.1,1h14.9c0-0.3-0.1-0.6-0.1-1c0-3.5,2.8-6.3,6.3-6.3
		c3.5,0,6.3,2.8,6.3,6.3c0,0.3,0,0.7-0.1,1h2.2c0.5,0,1-0.4,1-1V13.8C47.5,13.2,47.1,12.8,46.5,12.8z M43.7,24.3c0,0.5-0.4,1-1,1
		h-7.2h-7.2h-7.2c-0.5,0-1-0.4-1-1v-7c0-0.5,0.4-1,1-1h7.2h7.2h7.2c0.5,0,1,0.4,1,1V24.3z"/>
	<rect x="36.6" y="18.3" fill="#4DA0D8" width="5.2" height="5"/>
</g>
</svg>
