<?xml version="1.0" encoding="utf-8"?>
<!-- Generator: Adobe Illustrator 18.0.0, SVG Export Plug-In . SVG Version: 6.00 Build 0)  -->
<!DOCTYPE svg PUBLIC "-//W3C//DTD SVG 1.1//EN" "http://www.w3.org/Graphics/SVG/1.1/DTD/svg11.dtd">
<svg version="1.1" id="Layer_1" xmlns="http://www.w3.org/2000/svg" xmlns:xlink="http://www.w3.org/1999/xlink" x="0px" y="0px"
	 viewBox="0 0 48 48" enable-background="new 0 0 48 48" xml:space="preserve">
<g>
	<path fill="#F7A93B" d="M23.8,15.9V4.6h-8.7v11.2c-2.4,0.9-4.4,2.5-5.8,4.5h20.4C28.2,18.4,26.2,16.8,23.8,15.9z"/>
	<path fill="#F04B36" d="M30.7,22.3H8.1C7.4,23.9,7,25.6,7,27.5c0,6.9,5.6,12.4,12.4,12.4c6.9,0,12.4-5.6,12.4-12.4
		C31.8,25.6,31.4,23.9,30.7,22.3z"/>
	<path fill="#F04B36" d="M25.5,1.2h-2.7H16h-2.7c-0.5,0-0.9,0.4-0.9,0.9s0.4,0.9,0.9,0.9h1.8h8.7h1.8c0.5,0,0.9-0.4,0.9-0.9
		S26.1,1.2,25.5,1.2z"/>
	<path fill="#06728D" d="M39.6,47.5c-0.8,0-1.4-0.6-1.4-1.4V1.9c0-0.8,0.6-1.4,1.4-1.4c0.8,0,1.4,0.6,1.4,1.4v44.2
		C41,46.9,40.3,47.5,39.6,47.5z"/>
	<path fill="#06728D" d="M46.1,10.9H8.7c-0.8,0-1.4-0.6-1.4-1.4c0-0.8,0.6-1.4,1.4-1.4h37.4c0.8,0,1.4,0.6,1.4,1.4
		C47.5,10.3,46.9,10.9,46.1,10.9z"/>
	<path fill="#294E58" d="M46.1,47.5H1.9c-0.8,0-1.4-0.6-1.4-1.4s0.6-1.4,1.4-1.4h44.2c0.8,0,1.4,0.6,1.4,1.4S46.9,47.5,46.1,47.5z"
		/>
</g>
</svg>
