<?xml version="1.0" encoding="utf-8"?>
<!-- Generator: Adobe Illustrator 18.0.0, SVG Export Plug-In . SVG Version: 6.00 Build 0)  -->
<!DOCTYPE svg PUBLIC "-//W3C//DTD SVG 1.1//EN" "http://www.w3.org/Graphics/SVG/1.1/DTD/svg11.dtd">
<svg version="1.1" id="Layer_1" xmlns="http://www.w3.org/2000/svg" xmlns:xlink="http://www.w3.org/1999/xlink" x="0px" y="0px"
	 viewBox="0 0 48 48" enable-background="new 0 0 48 48" xml:space="preserve">
<g>
	<path fill="#0DB89A" d="M24,40.4c-5.1,0-9.8-2-13.2-5.3C8.4,38.6,6.8,42.4,6,46.4c0,0.3,0,0.6,0.2,0.8c0.2,0.2,0.4,0.3,0.7,0.3
		h34.1c0.3,0,0.5-0.1,0.7-0.3C42,47,42,46.7,42,46.4c-0.7-4-2.4-7.8-4.8-11.4C33.8,38.3,29.1,40.4,24,40.4z"/>
	<path fill="#06728D" d="M24,0.5C13.5,0.5,5,9,5,19.5c0,5.4,2.3,10.2,5.9,13.7c3.4,3.3,8.1,5.3,13.2,5.3c5.1,0,9.8-2,13.2-5.3
		c3.6-3.5,5.9-8.3,5.9-13.7C43,9,34.5,0.5,24,0.5z M24,30.7c-6.1,0-11.1-5-11.1-11.1c0-6.1,5-11.1,11.1-11.1c6.1,0,11.1,5,11.1,11.1
		C35.1,25.7,30.1,30.7,24,30.7z"/>
</g>
</svg>
