<?xml version="1.0" encoding="utf-8"?>
<!-- Generator: Adobe Illustrator 18.0.0, SVG Export Plug-In . SVG Version: 6.00 Build 0)  -->
<!DOCTYPE svg PUBLIC "-//W3C//DTD SVG 1.1//EN" "http://www.w3.org/Graphics/SVG/1.1/DTD/svg11.dtd">
<svg version="1.1" id="Layer_1" xmlns="http://www.w3.org/2000/svg" xmlns:xlink="http://www.w3.org/1999/xlink" x="0px" y="0px"
	 viewBox="0 0 48 48" enable-background="new 0 0 48 48" xml:space="preserve">
<g>
	<path fill="#06728D" d="M15.3,4.3l-3.8-3.5c-0.2-0.2-0.6-0.3-0.9-0.2L2.8,2.4C2.5,2.5,2.2,2.8,2.1,3.1C2,3.4,2.1,3.8,2.3,4l6.6,6.4
		C9,9,9.6,7.7,10.6,6.6C12,5.2,13.9,4.6,15.3,4.3z"/>
	<path fill="#F7A93B" d="M41.3,27.7C31.2,16.4,18.6,5.3,18.5,5.2c-0.2-0.2-0.4-0.2-0.6-0.2c-0.1,0-0.8,0-1.7,0.2l0.5,0.5L15.3,7
		l-0.1-0.1l-4.5,4L10,11.6l-0.3-0.3c0,0.4,0,0.8,0,1.2c0,0.2,0.1,0.4,0.2,0.6c0.2,0.2,17,18.6,18.9,27.7c1.1,5.6,4.2,6.8,6.6,6.8h0
		c1.8,0,3.4-0.7,4.2-1c0.2-0.1,0.3-0.1,0.3-0.1l0,0c1-0.2,3.9-2.1,5.3-5.1C46.4,38.4,46.8,33.8,41.3,27.7z M34.8,37.6
		c-0.7-2.9-19.5-25.1-19.5-25.1l3.1-2c3.8,2.6,22.5,23.5,22.5,23.5L34.8,37.6z"/>
	<path fill="#AA6527" d="M10.7,10.9l4.5-4L15.3,7l1.3-1.4l-0.5-0.5c-1.4,0.2-3.4,0.9-4.8,2.3c-1,1-1.5,2.3-1.6,3.8l0.3,0.3
		L10.7,10.9z"/>
</g>
</svg>
