<?xml version="1.0" encoding="utf-8"?>
<!-- Generator: Adobe Illustrator 18.0.0, SVG Export Plug-In . SVG Version: 6.00 Build 0)  -->
<!DOCTYPE svg PUBLIC "-//W3C//DTD SVG 1.1//EN" "http://www.w3.org/Graphics/SVG/1.1/DTD/svg11.dtd">
<svg version="1.1" id="Layer_1" xmlns="http://www.w3.org/2000/svg" xmlns:xlink="http://www.w3.org/1999/xlink" x="0px" y="0px"
	 viewBox="0 0 48 48" enable-background="new 0 0 48 48" xml:space="preserve">
<g>
	<path fill="#4DA0D8" d="M38.5,6.9H40c0.5,0,1-0.4,1-1V1.5c0-0.5-0.4-1-1-1H8c-0.5,0-1,0.4-1,1v4.4c0,0.5,0.4,1,1,1h1.5
		c0.9,8.1,4.8,14.7,10.1,17.1c-5.3,2.4-9.3,9.1-10.2,17.2H8c-0.5,0-1,0.4-1,1v4.4c0,0.5,0.4,1,1,1h32c0.5,0,1-0.4,1-1v-4.4
		c0-0.5-0.4-1-1-1h-1.5c-0.8-8.1-4.8-14.8-10.2-17.2C33.7,21.5,37.6,15,38.5,6.9z"/>
</g>
</svg>
