<?xml version="1.0" encoding="utf-8"?>
<!-- Generator: Adobe Illustrator 18.0.0, SVG Export Plug-In . SVG Version: 6.00 Build 0)  -->
<!DOCTYPE svg PUBLIC "-//W3C//DTD SVG 1.1//EN" "http://www.w3.org/Graphics/SVG/1.1/DTD/svg11.dtd">
<svg version="1.1" id="Layer_1" xmlns="http://www.w3.org/2000/svg" xmlns:xlink="http://www.w3.org/1999/xlink" x="0px" y="0px"
	 viewBox="0 0 48 48" enable-background="new 0 0 48 48" xml:space="preserve">
<path fill="#E77528" d="M20.2,14.8c0,0.1,0,0.2,0,0.4c0,0.2,0,0.3,0,0.5c0,0,0,0.1,0,0.1V40c0,0.6-0.5,1-1.1,1c-0.5,0-0.9-0.3-1-0.8
	v2.8c0,0.2,0,0.4,0,0.5c0,0.1,0,0.1,0,0.2c0,0.1,0,0.2,0.1,0.3c0,0.1,0.1,0.2,0.1,0.3c0,0.1,0.1,0.1,0.1,0.2
	c0.1,0.3,0.3,0.6,0.6,0.9c0,0,0.1,0.1,0.1,0.1c0.1,0.1,0.1,0.2,0.2,0.2c0.1,0.1,0.1,0.1,0.2,0.2c0.1,0.1,0.3,0.2,0.4,0.3
	c0.1,0,0.1,0.1,0.2,0.1c0.3,0.2,0.6,0.4,0.9,0.5c0.4,0.2,0.9,0.3,1.4,0.4c0,0,0.1,0,0.1,0c0,0,0.1,0,0.1,0c0.3,0,0.7,0.1,1,0.1
	c0,0,0,0,0,0c0,0,0,0,0,0c0.1,0,0.2,0,0.3,0c0.1,0,0.3,0,0.4,0c0.1,0,0.2,0,0.3,0c0.1,0,0.3,0,0.4-0.1c0,0,0.1,0,0.1,0
	c1.1-0.2,1.9-0.5,2-0.6c0,0,0.1,0,0.1,0l0.3-0.2c0,0,0,0,0,0L47,35.9c0.3-0.2,0.5-0.5,0.5-0.8V5.9c0-0.3-0.1-0.5-0.3-0.7
	C47.1,5.2,47,5.1,47,5.1c-0.3-0.2-0.6-0.2-0.9,0c0,0-0.1,0-0.1,0c-0.1,0-0.4,0.2-0.8,0.4C40.3,6,39,5.3,38.7,5c0,0-0.1-0.1-0.1-0.1
	l0,0c0.5-0.3,0.7-0.9,0.4-1.3c-0.3-0.5-0.9-0.6-1.4-0.4l-7.8,4.1v-4c0-0.3-0.1-0.5-0.3-0.7c-0.1-0.1-0.1-0.1-0.2-0.2
	c-0.3-0.2-0.6-0.2-1,0c0,0-0.1,0-0.1,0c-0.1,0-0.4,0.2-0.8,0.4c-4.8,0.4-6.1-0.3-6.3-0.5c0,0-0.1-0.1-0.1-0.1l0,0
	C21.6,2,21.7,1.4,21.4,1c-0.3-0.5-0.9-0.6-1.4-0.4L1.7,10.4c0,0-0.1,0-0.1,0.1c-0.5,0.4-1,1-1,1.8c0,0,0,0,0,0l0,28.2
	c0,0.2,0,0.4,0,0.5c0,0.1,0,0.2,0.1,0.4c0,0,0,0.1,0,0.1c0.2,0.9,0.8,1.7,1.7,2.3c0.6,0.4,1.1,0.6,1.1,0.7c0,0,0,0,0.1,0
	c0.8,0.4,1.6,0.5,2.4,0.5c0,0,0,0,0.1,0c0,0,0,0,0,0c0,0,0.1,0,0.1,0c0.2,0,0.4,0,0.6,0c0.1,0,0.2,0,0.3,0c0.2,0,0.4-0.1,0.5-0.1
	c0,0,0.1,0,0.1,0c1-0.2,1.8-0.5,1.8-0.5c0,0,0.1,0,0.1-0.1l8.4-4.7V15.8c0,0,0-0.1,0-0.1c0-0.2,0-0.3,0-0.5c0-0.8,0.2-1.4,0.5-1.7
	c0.1-0.1,0.2-0.2,0.3-0.3l4.3-2.3c0.5-0.3,1.2-0.1,1.5,0.3c0.3,0.4,0.6,0.8,0.7,0.7l1.6-0.8l2.4-1.3c0,0,0,0,0,0l7.5-4
	C36.9,6,37,6.1,37.1,6.2c0.7,0.8,2.1,1.3,4.3,1.4c-4.9,2.7-12.1,6.6-13.1,7.2c-1.2,0.6-2.5,0.8-3.9,0.8c-0.7,0-1.3-0.1-1.8-0.1
	c-0.3-0.1-0.6-0.1-1-0.2c0,0,0,0,0,0c-0.1,0-0.1,0-0.2,0c-0.6-0.2-0.9-0.3-1-0.4 M11.4,39.5c0,0.5-0.5,1-1.1,1c-0.6,0-1.1-0.4-1.1-1
	V18.1c0-0.5,0.5-1,1.1-1c0.6,0,1.1,0.4,1.1,1V39.5z M11.3,11.8l-0.1,0.1c0,0,0,0,0,0c-0.4,0.2-0.6,0.3-0.7,0.4
	c-0.3,0.2-1.1,0.5-2.2,0.7c0,0-0.1,0-0.1,0c-0.4,0.1-0.9,0.1-1.4,0.1c-2.9-0.1-3.8-0.7-4.1-0.9c0-0.1,0.1-0.1,0.2-0.2l16.4-8.7
	c0.1,0.1,0.1,0.2,0.2,0.3c0.7,0.8,2.1,1.3,4.3,1.4C19.4,7.3,13.6,10.5,11.3,11.8z M28.8,41.7c0,0.5-0.5,1-1.1,1
	c-0.6,0-1.1-0.4-1.1-1v-22c0-0.5,0.5-1,1.1-1c0.6,0,1.1,0.4,1.1,1V41.7z"/>
</svg>
