<?xml version="1.0" encoding="utf-8"?>
<!-- Generator: Adobe Illustrator 18.0.0, SVG Export Plug-In . SVG Version: 6.00 Build 0)  -->
<!DOCTYPE svg PUBLIC "-//W3C//DTD SVG 1.1//EN" "http://www.w3.org/Graphics/SVG/1.1/DTD/svg11.dtd">
<svg version="1.1" id="Layer_1" xmlns="http://www.w3.org/2000/svg" xmlns:xlink="http://www.w3.org/1999/xlink" x="0px" y="0px"
	 viewBox="0 0 48 48" enable-background="new 0 0 48 48" xml:space="preserve">
<g>
	<path fill="#294E58" d="M45.8,1.1c-0.6-0.4-1.4-0.7-2.1-0.7c-1.5,0-2.9,0.9-3.7,2.2l-3.6,6.1h0.4v1L38,9.8l3.7-6.2
		c0.5-0.8,1.2-1.3,2-1.3c0.4,0,0.7,0.1,1,0.3c1,0.7,1.2,2.3,0.5,3.6l-2.4,4l1.2,0.1l0.7-0.7c0.2,0.2,0.3,0.3,0.5,0.5l1.7-2.9
		C48.1,5.1,47.7,2.4,45.8,1.1z"/>
	<path fill="#F04B36" d="M36.5,16.8c0.9,0.7,2.3,0.2,3-1l3.3-5.6L38,9.8l-2,3.4C35.2,14.5,35.5,16.1,36.5,16.8z"/>
	<path fill="#F04B36" d="M37.5,19c-0.8,0-1.5-0.2-2.1-0.7c-1.8-1.3-2.3-4-1.1-6.1l2.1-3.5H3.8c-1.9,0-3.4,1.7-3.4,3.7v31.4
		c0,2,1.5,3.7,3.4,3.7h38.7c1.9,0,3.4-1.7,3.4-3.7V12.5c0-0.9-0.3-1.7-0.8-2.3l-4,6.7C40.3,18.2,38.9,19,37.5,19z M11.4,24.8H7v2.2
		h4.1v1.6H7v3.1h4.4v1.6H5.3V23.1h6.1V24.8z M19.6,30.9h-7.2v-1.5h7.2V30.9z M19.6,28.2h-7.2v-1.5h7.2V28.2z M30.4,33.3h-1.6v-4.4
		c0-0.3,0-0.6,0-0.9c0-0.3-0.1-0.4-0.1-0.6c-0.1-0.1-0.1-0.2-0.2-0.3c-0.2-0.1-0.6-0.2-1.1,0.1c-0.2,0.1-0.5,0.3-0.7,0.5l0,0.1
		c0,0.1,0,0.2,0,0.4v5H25v-4.4c0-0.3,0-0.6,0-0.9c0-0.3-0.1-0.4-0.1-0.6c-0.1-0.1-0.1-0.2-0.2-0.3c-0.2-0.1-0.7-0.2-1.1,0.1
		c-0.2,0.1-0.5,0.3-0.7,0.5v5.5h-1.6v-7.7h1.6V26c0.2-0.1,0.3-0.3,0.5-0.4c0.7-0.4,1.6-0.4,2.3,0c0.3,0.2,0.5,0.4,0.6,0.7
		c0.3-0.3,0.5-0.5,0.8-0.7c0.6-0.4,1.5-0.4,2.1-0.2c0.3,0.1,0.5,0.3,0.7,0.5c0.2,0.2,0.4,0.5,0.5,0.9c0.1,0.3,0.2,0.8,0.2,1.3V33.3z
		 M36.7,27.8h-0.4l-0.1-0.1c-0.1-0.1-0.2-0.1-0.3-0.2c-0.1-0.1-0.3-0.2-0.4-0.3c-0.1-0.1-0.3-0.1-0.5-0.2c-0.8-0.2-1.4,0-1.8,0.5
		c-0.3,0.4-0.5,1.1-0.5,1.9c0,0.8,0.2,1.4,0.5,1.9c0.3,0.4,0.7,0.6,1.2,0.6c0.3,0,0.7-0.1,0.9-0.2c0.3-0.2,0.6-0.4,0.8-0.6l0.1-0.1
		h0.4v1.8l-0.1,0.1c-0.1,0.1-0.3,0.1-0.4,0.2c-0.2,0.1-0.3,0.1-0.5,0.2c-0.2,0.1-0.4,0.1-0.5,0.1c-0.2,0-0.4,0.1-0.6,0.1
		c-0.5,0-0.9-0.1-1.4-0.2c-0.4-0.2-0.8-0.4-1.1-0.8c-0.3-0.3-0.5-0.8-0.7-1.3c-0.2-0.5-0.2-1.1-0.2-1.7c0-0.7,0.1-1.2,0.3-1.7
		c0.2-0.5,0.4-0.9,0.7-1.2c0.3-0.3,0.7-0.6,1.1-0.8c0.8-0.3,1.7-0.4,2.5-0.1c0.4,0.1,0.7,0.3,1,0.4l0.1,0.1V27.8z M41,28.8h-3.5
		v-1.1l0.1-0.1c0.2-0.2,0.4-0.4,0.6-0.6c0.2-0.2,0.4-0.4,0.6-0.6c0.4-0.4,0.6-0.8,0.7-1c0.1-0.2,0.2-0.5,0.2-0.7c0-0.1,0-0.2,0-0.3
		c0-0.1-0.1-0.1-0.1-0.2c0,0-0.1-0.1-0.2-0.1c-0.1,0-0.4,0-0.5,0c-0.1,0-0.2,0.1-0.3,0.1c-0.1,0-0.2,0.1-0.2,0.1
		c-0.1,0.1-0.1,0.1-0.2,0.1l-0.1,0h-0.3l0-0.2v-0.9l0.1-0.1c0.1-0.1,0.4-0.2,0.6-0.2c0.8-0.2,1.6-0.1,2,0.3c0.3,0.3,0.5,0.7,0.5,1.2
		c0,0.2,0,0.4-0.1,0.6c-0.1,0.2-0.1,0.4-0.2,0.5c-0.1,0.2-0.2,0.3-0.3,0.5c-0.1,0.2-0.2,0.3-0.4,0.5c-0.2,0.2-0.4,0.5-0.7,0.8
		c-0.1,0.1-0.1,0.1-0.2,0.2H41V28.8z"/>
</g>
</svg>
