<?xml version="1.0" encoding="utf-8"?>
<!-- Generator: Adobe Illustrator 18.0.0, SVG Export Plug-In . SVG Version: 6.00 Build 0)  -->
<!DOCTYPE svg PUBLIC "-//W3C//DTD SVG 1.1//EN" "http://www.w3.org/Graphics/SVG/1.1/DTD/svg11.dtd">
<svg version="1.1" id="Layer_1" xmlns="http://www.w3.org/2000/svg" xmlns:xlink="http://www.w3.org/1999/xlink" x="0px" y="0px"
	 viewBox="0 0 48 48" enable-background="new 0 0 48 48" xml:space="preserve">
<g>
	<path fill="#4DA0D8" d="M46,21.4c-1.9-2.6-5.5-4.5-10.1-5.3c-2-0.3-3.3-1-3.9-1.9c-0.2-0.3-0.3-0.7-0.3-1H16.3c0,0.3-0.1,0.6-0.3,1
		c-0.5,0.9-1.9,1.6-3.9,1.9C7.5,16.9,3.9,18.8,2,21.4c-0.8,1.1-1.3,2.4-1.5,3.8h47C47.3,23.8,46.8,22.6,46,21.4z"/>
	<path fill="#06728D" d="M30.9,0.5H17.1c-1.8,0-3.2,1.5-3.2,3.3v7.9h2.4h15.4h2.4V3.8C34.1,2,32.7,0.5,30.9,0.5z"/>
	<path fill="#E77528" d="M0.5,27.1c0,0.3,0.1,0.6,0.1,0.9c1.2,6.2,6.3,18.4,6.5,18.9l0.2,0.6h16.5h0.1h16.5l0.2-0.6
		c0.2-0.5,5.4-12.7,6.5-18.9c0.1-0.3,0.1-0.6,0.1-0.9H0.5z"/>
</g>
</svg>
