<?xml version="1.0" encoding="utf-8"?>
<!-- Generator: Adobe Illustrator 18.0.0, SVG Export Plug-In . SVG Version: 6.00 Build 0)  -->
<!DOCTYPE svg PUBLIC "-//W3C//DTD SVG 1.1//EN" "http://www.w3.org/Graphics/SVG/1.1/DTD/svg11.dtd">
<svg version="1.1" id="Layer_1" xmlns="http://www.w3.org/2000/svg" xmlns:xlink="http://www.w3.org/1999/xlink" x="0px" y="0px"
	 viewBox="0 0 48 48" enable-background="new 0 0 48 48" xml:space="preserve">
<g>
	<path fill="#F04B36" d="M28.9,22.7l-7.8-1.2l-1.5-3.6c-1.1-2.3-1.7-3.1-3.4-4c-2.5-1.3-5.7-0.4-7,2.1c-2.3,4.3-3.4,8.6-3.4,13.3
		c0,3.2,3,5.7,6.3,5c0.3,0,0.5,0,0.8,0c0,0,1.6-0.2,3.2,0.2c0,0,0.1,0,0.1,0c0.2,0.1,1.4,0.4,1.7,0.6c0.1,0,0.2,0.1,0.3,0.1
		c0.4,0,0.8-0.2,0.9-0.6c0.1-0.4,0-0.8-0.2-1l5.3-5.3l1,0.1c0.5,0.1,1-0.3,1.1-0.9c0-0.4-0.1-0.7-0.4-0.9l2.1-2.1l0.7,0.1
		c0.5,0.1,1-0.3,1.1-0.8C29.8,23.3,29.5,22.8,28.9,22.7z M21.1,29.3c0-0.1-0.1-0.2-0.2-0.3c-0.6-0.6-1.8-0.9-4.8-1.1
		c0-0.5,0.1-1,0.2-1.5l0,0.1c0.3,0.5,0.7,0.8,1.2,1.1c0.1,0.1,0.2,0.1,0.4,0.1l5.5,0.5L21.1,29.3z"/>
	<path fill="#06728D" d="M46.5,0.5h-15c-0.3,0-0.6,0.2-0.8,0.4c-0.2,0.3-0.2,0.6-0.1,0.9C31.5,4.3,32,7.1,32,9.9
		c0,10.1-6.1,18.7-13.8,19.5c-0.5,0.1-0.9,0.5-0.9,1v16.2c0,0.5,0.4,1,1,1h28.2c0.5,0,1-0.4,1-1V1.5C47.5,0.9,47.1,0.5,46.5,0.5z"/>
	<path fill="#F7A93B" d="M18.3,2.7c-2.9,0-5.3,2.4-5.3,5.3c0,2.9,2.4,5.3,5.3,5.3c2.9,0,5.3-2.4,5.3-5.3C23.6,5.1,21.2,2.7,18.3,2.7
		z"/>
	<path fill="#0DB89A" d="M4.5,47.5c-0.5,0-1-0.4-1-1V35l-3-16.6c-0.1-0.5,0.3-1,0.8-1.1c0.5-0.1,1,0.3,1.1,0.8l3,16.6
		c0,0.1,0,0.1,0,0.2v11.6C5.5,47.1,5,47.5,4.5,47.5z"/>
	<path fill="#0DB89A" d="M16.6,47c-0.5,0-0.9-0.3-1-0.8l-2.1-10.3h-9c-0.5,0-1-0.4-1-1c0-0.5,0.4-1,1-1h9.8c0.5,0,0.9,0.3,1,0.8
		l2.3,11.1c0.1,0.5-0.2,1-0.8,1.1C16.7,47,16.6,47,16.6,47z"/>
</g>
</svg>
