<?xml version="1.0" encoding="utf-8"?>
<!-- Generator: Adobe Illustrator 18.0.0, SVG Export Plug-In . SVG Version: 6.00 Build 0)  -->
<!DOCTYPE svg PUBLIC "-//W3C//DTD SVG 1.1//EN" "http://www.w3.org/Graphics/SVG/1.1/DTD/svg11.dtd">
<svg version="1.1" id="Layer_1" xmlns="http://www.w3.org/2000/svg" xmlns:xlink="http://www.w3.org/1999/xlink" x="0px" y="0px"
	 viewBox="0 0 48 48" enable-background="new 0 0 48 48" xml:space="preserve">
<g>
	<path fill="#F04B36" d="M22.1,47.5c-0.5,0-1-0.4-1-1v-6.4c0-0.5,0.4-1,1-1c0.5,0,1,0.4,1,1v6.4C23,47.1,22.6,47.5,22.1,47.5z"/>
	<path fill="#F04B36" d="M30.6,47.5h-17c-0.5,0-1-0.4-1-1c0-0.5,0.4-1,1-1h17c0.5,0,1,0.4,1,1C31.6,47.1,31.1,47.5,30.6,47.5z"/>
	<path fill="#06728D" d="M22.1,41.1c-5.8,0-11.2-2.2-15.4-6.2c-0.4-0.4-0.4-1,0-1.4c0.4-0.4,1-0.4,1.4,0c3.8,3.7,8.8,5.7,14,5.7
		c11.1,0,20.1-9,20.1-20.1c0-6.7-3.3-13-8.9-16.7C32.8,2,32.7,1.4,33,0.9c0.3-0.4,0.9-0.6,1.3-0.3c6.1,4.1,9.8,11,9.8,18.3
		C44.1,31.2,34.2,41.1,22.1,41.1z"/>
	<g>
		<path fill="#4DA0D8" d="M3.9,20.1h5c0.1,2.3,0.4,4.4,0.9,6.4H5.5C4.6,24.6,4,22.4,3.9,20.1z"/>
		<path fill="#4DA0D8" d="M5.5,11.5h4.3c-0.5,2-0.8,4.2-0.9,6.4h-5C4,15.6,4.6,13.5,5.5,11.5z"/>
		<path fill="#4DA0D8" d="M40.3,17.9h-5c-0.1-2.3-0.4-4.4-0.9-6.4h4.3C39.6,13.5,40.1,15.6,40.3,17.9z"/>
		<path fill="#4DA0D8" d="M33.1,17.9h-5.2c0-1.9-0.1-4.2-0.4-6.4h4.6C32.7,13.5,33,15.6,33.1,17.9z"/>
		<path fill="#4DA0D8" d="M18.5,17.9c0-2.4,0.2-4.5,0.4-6.4h6.5c0.2,1.9,0.3,4,0.4,6.4H18.5z"/>
		<path fill="#4DA0D8" d="M25.7,20.1c0,2.4-0.2,4.5-0.4,6.4h-6.5c-0.2-1.9-0.3-4-0.4-6.4H25.7z"/>
		<path fill="#4DA0D8" d="M27.2,9.3c-0.4-2.9-1-5.7-1.9-7.7c2.5,1.3,4.7,4.1,6.1,7.7H27.2z"/>
		<path fill="#4DA0D8" d="M25,9.3h-5.9c0.8-5.6,2.2-8.5,3-8.5C22.8,0.7,24.2,3.6,25,9.3z"/>
		<path fill="#4DA0D8" d="M18.8,1.6c-0.9,2-1.5,4.8-1.9,7.7h-4.2C14.1,5.6,16.3,2.8,18.8,1.6z"/>
		<path fill="#4DA0D8" d="M16.6,11.5c-0.2,2.3-0.3,4.5-0.4,6.4H11c0.1-2.3,0.4-4.5,1-6.4H16.6z"/>
		<path fill="#4DA0D8" d="M11,20.1h5.2c0,1.9,0.1,4.2,0.4,6.4H12C11.5,24.6,11.1,22.4,11,20.1z"/>
		<path fill="#4DA0D8" d="M16.9,28.7c0.4,2.9,1,5.7,1.9,7.7c-2.5-1.3-4.7-4.1-6.1-7.7H16.9z"/>
		<path fill="#4DA0D8" d="M19.1,28.7H25c-0.8,5.6-2.2,8.5-3,8.5C21.3,37.3,19.9,34.4,19.1,28.7z"/>
		<path fill="#4DA0D8" d="M25.3,36.5c0.9-2,1.5-4.8,1.9-7.7h4.2C30,32.4,27.9,35.2,25.3,36.5z"/>
		<path fill="#4DA0D8" d="M27.5,26.5c0.2-2.3,0.3-4.5,0.4-6.4h5.2c-0.1,2.3-0.4,4.5-1,6.4H27.5z"/>
		<path fill="#4DA0D8" d="M35.3,20.1h5c-0.1,2.3-0.7,4.5-1.6,6.4h-4.3C34.9,24.5,35.2,22.4,35.3,20.1z"/>
		<path fill="#4DA0D8" d="M37.5,9.3h-3.8c-0.9-2.7-2.3-4.9-3.8-6.7C33,4,35.7,6.4,37.5,9.3z"/>
		<path fill="#4DA0D8" d="M14.2,2.5c-1.6,1.8-2.9,4.1-3.8,6.7H6.7C8.5,6.4,11.1,4,14.2,2.5z"/>
		<path fill="#4DA0D8" d="M6.7,28.7h3.8c0.9,2.7,2.3,4.9,3.8,6.7C11.1,34,8.5,31.6,6.7,28.7z"/>
		<path fill="#4DA0D8" d="M29.9,35.5c1.6-1.8,2.9-4.1,3.8-6.7h3.8C35.7,31.6,33,34,29.9,35.5z"/>
	</g>
</g>
</svg>
