<?xml version="1.0" encoding="utf-8"?>
<!-- Generator: Adobe Illustrator 18.0.0, SVG Export Plug-In . SVG Version: 6.00 Build 0)  -->
<!DOCTYPE svg PUBLIC "-//W3C//DTD SVG 1.1//EN" "http://www.w3.org/Graphics/SVG/1.1/DTD/svg11.dtd">
<svg version="1.1" id="Layer_1" xmlns="http://www.w3.org/2000/svg" xmlns:xlink="http://www.w3.org/1999/xlink" x="0px" y="0px"
	 viewBox="0 0 48 48" enable-background="new 0 0 48 48" xml:space="preserve">
<g>
	<path fill="#ED7161" d="M13.4,20.1h-1.9V5.8l-1.3-2.3L8.8,5.8v14.4H6.9V5.5c0-0.2,0-0.3,0.1-0.5l2.3-4c0.3-0.6,1.3-0.6,1.7,0l2.3,4
		c0.1,0.1,0.1,0.3,0.1,0.5V20.1z"/>
	<rect x="6.9" y="32.3" fill="#ED7161" width="1.9" height="8.9"/>
	<rect x="11.5" y="32.3" fill="#010101" width="1.9" height="8.9"/>
	<path fill="#ED9322" d="M18,20.1h-1.9V5.8l-1.3-2.3l-1.3,2.3v14.4h-1.9V5.5c0-0.2,0-0.3,0.1-0.5l2.3-4c0.3-0.6,1.3-0.6,1.7,0l2.3,4
		C18,5.2,18,5.3,18,5.5V20.1z"/>
	<rect x="11.5" y="32.3" fill="#ED9322" width="1.9" height="8.9"/>
	<rect x="16.1" y="32.3" fill="#010101" width="1.9" height="8.9"/>
	<path fill="#4DA0D8" d="M22.7,20.1h-1.9V5.8l-1.3-2.3L18,5.8v14.4h-1.9V5.5c0-0.2,0-0.3,0.1-0.5l2.3-4c0.3-0.6,1.3-0.6,1.7,0l2.3,4
		c0.1,0.1,0.1,0.3,0.1,0.5V20.1z"/>
	<rect x="16.1" y="32.3" fill="#4DA0D8" width="1.9" height="8.9"/>
	<rect x="20.7" y="32.3" fill="#010101" width="1.9" height="8.9"/>
	<path fill="#F04B36" d="M27.3,20.1h-1.9V5.8L24,3.4l-1.3,2.3v14.4h-1.9V5.5c0-0.2,0-0.3,0.1-0.5l2.3-4c0.3-0.6,1.3-0.6,1.7,0l2.3,4
		c0.1,0.1,0.1,0.3,0.1,0.5V20.1z"/>
	<rect x="20.7" y="32.3" fill="#F04B36" width="1.9" height="8.9"/>
	<rect x="25.3" y="32.3" fill="#010101" width="1.9" height="8.9"/>
	<path fill="#394751" d="M31.9,20.1H30V5.8l-1.3-2.3l-1.3,2.3v14.4h-1.9V5.5c0-0.2,0-0.3,0.1-0.5l2.3-4c0.2-0.3,0.5-0.5,0.8-0.5l0,0
		c0.3,0,0.7,0.2,0.8,0.5l2.3,4c0.1,0.1,0.1,0.3,0.1,0.5V20.1z"/>
	<rect x="25.3" y="32.3" fill="#394751" width="1.9" height="8.9"/>
	<rect x="30" y="32.3" fill="#010101" width="1.9" height="8.9"/>
	<path fill="#4D9385" d="M36.5,20.1h-1.9V5.8l-1.3-2.3l-1.3,2.3v14.4H30V5.5c0-0.2,0-0.3,0.1-0.5l2.3-4c0.3-0.6,1.3-0.6,1.7,0l2.3,4
		c0.1,0.1,0.1,0.3,0.1,0.5V20.1z"/>
	<rect x="30" y="32.3" fill="#4D9385" width="1.9" height="8.9"/>
	<rect x="34.6" y="32.3" fill="#010101" width="1.9" height="8.9"/>
	<path fill="#B58A3B" d="M41.1,20.1h-1.9V5.8l-1.3-2.3l-1.3,2.3v14.4h-1.9V5.5c0-0.2,0-0.3,0.1-0.5L37,1c0.3-0.6,1.3-0.6,1.7,0L41,5
		c0.1,0.1,0.1,0.3,0.1,0.5V20.1z"/>
	<rect x="34.6" y="32.3" fill="#B58A3B" width="1.9" height="8.9"/>
	<rect x="39.2" y="32.3" fill="#B58A3B" width="1.9" height="8.9"/>
	<path fill="#0DB89A" d="M42.1,0.7v18.5H5.9V0.7H0.5v46.8h47V0.7H42.1z M6.6,40.1v-7h34.7v7H6.6z"/>
</g>
</svg>
