<?xml version="1.0" encoding="utf-8"?>
<!-- Generator: Adobe Illustrator 18.0.0, SVG Export Plug-In . SVG Version: 6.00 Build 0)  -->
<!DOCTYPE svg PUBLIC "-//W3C//DTD SVG 1.1//EN" "http://www.w3.org/Graphics/SVG/1.1/DTD/svg11.dtd">
<svg version="1.1" id="Layer_1" xmlns="http://www.w3.org/2000/svg" xmlns:xlink="http://www.w3.org/1999/xlink" x="0px" y="0px"
	 viewBox="0 0 48 48" enable-background="new 0 0 48 48" xml:space="preserve">
<g>
	<path fill="#283F47" d="M42,20.4h-5.4c-0.5,0-1-0.5-1-1.1V17c0-0.6,0.4-1.1,1-1.1c0.5,0,1,0.5,1,1.1v1.2h3.4v-2.9
		c0-0.6,0.4-1.1,1-1.1c0.5,0,1,0.5,1,1.1v4C43,19.9,42.6,20.4,42,20.4z"/>
	<path fill="#F7A93B" d="M11.4,0.5c-2.5,0-4.5,2.2-4.5,5c0,2.7,2,5,4.5,5c2.5,0,4.5-2.2,4.5-5C15.9,2.7,13.9,0.5,11.4,0.5z"/>
	<path fill="#0DB89A" d="M29.4,14.8c-1-1.5-3-1.8-4.3-0.7l-5.5,4.4l-3.9-4.4c-1.2-1.7-3.3-3-4.9-3H9c-2.1,0-3.8,1.9-3.8,4.2v14.1
		c0,2.3,1.7,4.2,3.8,4.2h2.3c0.2,0,0.3,0,0.5,0h6.7v10.5c0,1.9,1.4,3.4,3.1,3.4c1.7,0,3.1-1.5,3.1-3.4V30.2c0-1.9-1.4-3.4-3.1-3.4
		H16v-2.7l1.1,1.2c1,1.2,2.8,1.3,4,0.4l7.6-6.1c0.7-0.5,1.1-1.3,1.2-2.2C30,16.5,29.8,15.6,29.4,14.8z"/>
	<path fill="#06728D" d="M44.6,4.9L34.5,1.3c-0.3-0.1-0.6,0-0.9,0.2c-0.3,0.2-0.4,0.5-0.4,0.9v15.2c0,0.3,0.1,0.7,0.4,0.9
		c0.2,0.1,0.4,0.2,0.6,0.2c0.1,0,0.2,0,0.3,0L44.6,15c0.4-0.1,0.7-0.6,0.7-1V5.9C45.3,5.5,45.1,5,44.6,4.9z"/>
	<path fill="#5C2D2D" d="M34.2,47.5c-0.2,0-0.4-0.1-0.5-0.2c-0.4-0.3-0.6-1-0.3-1.5l12-20L43.8,23H28.5c-0.5,0-1-0.5-1-1.1
		c0-0.6,0.4-1.1,1-1.1h15.8c0.3,0,0.7,0.2,0.8,0.5l2.2,3.9c0.2,0.4,0.2,0.8,0,1.1L35,47C34.8,47.3,34.5,47.5,34.2,47.5z"/>
	<path fill="#5C2D2D" d="M44.4,47.5H28.5c-0.5,0-1-0.5-1-1.1c0-0.6,0.4-1.1,1-1.1h15.8c0.5,0,1,0.5,1,1.1
		C45.3,47,44.9,47.5,44.4,47.5z"/>
	<path fill="#6E3C3C" d="M16.8,35.5H5c-0.4,0-0.8-0.3-0.9-0.8L0.5,18.2c-0.1-0.6,0.2-1.1,0.7-1.3c0.5-0.1,1,0.2,1.2,0.8l3.4,15.7
		h11.1c0.5,0,1,0.5,1,1.1C17.8,35,17.4,35.5,16.8,35.5z"/>
	<path fill="#6E3C3C" d="M10.4,47.5c-0.5,0-1-0.5-1-1.1V34.9c0-0.6,0.4-1.1,1-1.1c0.5,0,1,0.5,1,1.1v11.5C11.4,47,11,47.5,10.4,47.5
		z"/>
	<path fill="#6E3C3C" d="M14.4,47.5H6.6c-0.5,0-1-0.5-1-1.1c0-0.6,0.4-1.1,1-1.1h7.8c0.5,0,1,0.5,1,1.1C15.4,47,15,47.5,14.4,47.5z"
		/>
</g>
</svg>
