<?xml version="1.0" encoding="utf-8"?>
<!-- Generator: Adobe Illustrator 18.0.0, SVG Export Plug-In . SVG Version: 6.00 Build 0)  -->
<!DOCTYPE svg PUBLIC "-//W3C//DTD SVG 1.1//EN" "http://www.w3.org/Graphics/SVG/1.1/DTD/svg11.dtd">
<svg version="1.1" id="Layer_1" xmlns="http://www.w3.org/2000/svg" xmlns:xlink="http://www.w3.org/1999/xlink" x="0px" y="0px"
	 viewBox="0 0 48 48" enable-background="new 0 0 48 48" xml:space="preserve">
<g>
	<path fill="#F04B36" d="M19.5,22.5H4.4c-0.5,0-0.9-1.4-0.9-3.1c0-1.7,0.4-3.1,0.9-3.1h15.1c0.5,0,0.9,1.4,0.9,3.1
		C20.4,21.1,20,22.5,19.5,22.5z"/>
	<path fill="#E77528" d="M19.5,47.5c-0.8,0-1.4-0.6-1.4-1.4V7.8H5.8v38.3c0,0.8-0.6,1.4-1.4,1.4c-0.8,0-1.4-0.6-1.4-1.4V6.4
		C3,5.6,3.6,5,4.4,5h15.1c0.8,0,1.4,0.6,1.4,1.4v39.7C20.9,46.9,20.3,47.5,19.5,47.5z"/>
	<path fill="#E77528" d="M42,47.5c-0.8,0-1.4-0.6-1.4-1.4V24.8H26v21.3c0,0.8-0.6,1.4-1.4,1.4c-0.8,0-1.4-0.6-1.4-1.4V23.3
		c0-0.8,0.6-1.4,1.4-1.4H42c0.8,0,1.4,0.6,1.4,1.4v22.7C43.4,46.9,42.8,47.5,42,47.5z"/>
	<path fill="#E77528" d="M42,24.8c-0.1,0-0.2,0-0.3,0c-0.8-0.1-1.3-0.9-1.1-1.7l4.1-21.4c0.1-0.8,0.9-1.3,1.7-1.1
		c0.8,0.1,1.3,0.9,1.1,1.7l-4.1,21.4C43.3,24.3,42.7,24.8,42,24.8z"/>
	<path fill="#F04B36" d="M22.8,7.8H1.9c-0.8,0-1.4-0.6-1.4-1.4C0.5,5.6,1.1,5,1.9,5h20.9c0.8,0,1.4,0.6,1.4,1.4
		C24.3,7.2,23.6,7.8,22.8,7.8z"/>
</g>
</svg>
