<?xml version="1.0" encoding="utf-8"?>
<!-- Generator: Adobe Illustrator 18.0.0, SVG Export Plug-In . SVG Version: 6.00 Build 0)  -->
<!DOCTYPE svg PUBLIC "-//W3C//DTD SVG 1.1//EN" "http://www.w3.org/Graphics/SVG/1.1/DTD/svg11.dtd">
<svg version="1.1" id="Layer_1" xmlns="http://www.w3.org/2000/svg" xmlns:xlink="http://www.w3.org/1999/xlink" x="0px" y="0px"
	 viewBox="0 0 48 48" enable-background="new 0 0 48 48" xml:space="preserve">
<g>
	<path fill="#06728D" d="M39.3,42.7L27.6,17.5c-0.2-0.5-0.7-0.8-1.3-0.8h0c-0.5,0-1,0.3-1.3,0.8L13.4,42.7c-0.3,0.7,0,1.6,0.7,1.9
		c0.7,0.3,1.5,0,1.9-0.7l9-19.5v21.6c0,0.8,0.6,1.4,1.4,1.4c0.8,0,1.4-0.6,1.4-1.4V24.5l9,19.5c0.2,0.5,0.7,0.8,1.3,0.8
		c0.2,0,0.4,0,0.6-0.1C39.3,44.3,39.6,43.5,39.3,42.7z"/>
	<path fill="#4DA0D8" d="M36.2,14.6c0.7-2.7,0.5-4.4,0.2-4.7l-13-4.3c0.2,1.7,0,3.9-0.7,6.3c-0.6,2.2-1.5,4.3-2.6,5.8l13.6,1.8
		l0.1-0.4C34.1,19,35.4,17.5,36.2,14.6z"/>
	<path fill="#0DB89A" d="M21.3,4.9L8.9,0.7l0,0c0.7,0.2,1.4,0.7,1.8,1.5c0.9,1.6,1,4.3,0.3,7c-1.1,3.8-3.4,6.5-5.6,6.5
		c-0.2,0-0.3,0-0.5-0.1l0,0l13.1,1.7c0.8-0.8,2.1-2.8,3-6C21.7,8.4,21.7,6,21.3,4.9z"/>
	<path fill="#06728D" d="M9.1,2.1C8.7,1.3,8.1,0.8,7.3,0.6c0,0-0.1,0-0.1,0C4.9,0,2.2,2.9,1,7c-0.8,2.7-0.7,5.4,0.3,7
		c0.5,0.8,1.1,1.3,1.9,1.5c0,0,0.1,0,0.1,0c0.2,0,0.3,0.1,0.5,0.1c2.2,0,4.6-2.7,5.6-6.5C10.1,6.3,10,3.6,9.1,2.1z"/>
	<path fill="#F04B36" d="M47.3,13.5l-8.8-2.9c0.1,1.4-0.1,3.1-0.5,4.6c-0.5,1.7-1.2,3.5-2.1,4.6l8.4,1.1l0.8,0.1
		c0,0,1.3-0.7,2.1-3.3C47.8,15.3,47.3,13.5,47.3,13.5z"/>
</g>
</svg>
