<?xml version="1.0" encoding="utf-8"?>
<!-- Generator: Adobe Illustrator 18.0.0, SVG Export Plug-In . SVG Version: 6.00 Build 0)  -->
<!DOCTYPE svg PUBLIC "-//W3C//DTD SVG 1.1//EN" "http://www.w3.org/Graphics/SVG/1.1/DTD/svg11.dtd">
<svg version="1.1" id="Layer_1" xmlns="http://www.w3.org/2000/svg" xmlns:xlink="http://www.w3.org/1999/xlink" x="0px" y="0px"
	 viewBox="0 0 48 48" enable-background="new 0 0 48 48" xml:space="preserve">
<g>
	<path fill="#F04B36" d="M10.1,9.1c-0.5,0-1-0.4-1-1V1.5c0-0.5,0.4-1,1-1c0.5,0,1,0.4,1,1v6.7C11.1,8.7,10.6,9.1,10.1,9.1z"/>
	<path fill="#F04B36" d="M17.1,9.1c-0.5,0-1-0.4-1-1V1.5c0-0.5,0.4-1,1-1s1,0.4,1,1v6.7C18,8.7,17.6,9.1,17.1,9.1z"/>
	<path fill="#F04B36" d="M24,9.1c-0.5,0-1-0.4-1-1V1.5c0-0.5,0.4-1,1-1c0.5,0,1,0.4,1,1v6.7C25,8.7,24.5,9.1,24,9.1z"/>
	<path fill="#F04B36" d="M30.9,9.1c-0.5,0-1-0.4-1-1V1.5c0-0.5,0.4-1,1-1s1,0.4,1,1v6.7C31.9,8.7,31.5,9.1,30.9,9.1z"/>
	<path fill="#F04B36" d="M37.9,9.1c-0.5,0-1-0.4-1-1V1.5c0-0.5,0.4-1,1-1c0.5,0,1,0.4,1,1v6.7C38.9,8.7,38.4,9.1,37.9,9.1z"/>
	<path fill="#BA2B28" d="M16.1,24.8h-3c-0.5,0-1-0.4-1-1c0-0.5,0.4-1,1-1h3c0.5,0,1,0.4,1,1C17,24.4,16.6,24.8,16.1,24.8z"/>
	<path fill="#BA2B28" d="M25.7,24.8h-3c-0.5,0-1-0.4-1-1c0-0.5,0.4-1,1-1h3c0.5,0,1,0.4,1,1C26.6,24.4,26.2,24.8,25.7,24.8z"/>
	<path fill="#BA2B28" d="M35.3,24.8h-3c-0.5,0-1-0.4-1-1c0-0.5,0.4-1,1-1h3c0.5,0,1,0.4,1,1C36.2,24.4,35.8,24.8,35.3,24.8z"/>
	<path fill="#BC772B" d="M16.1,30.4h-3c-0.5,0-1-0.4-1-1c0-0.5,0.4-1,1-1h3c0.5,0,1,0.4,1,1C17,29.9,16.6,30.4,16.1,30.4z"/>
	<path fill="#BC772B" d="M25.7,30.4h-3c-0.5,0-1-0.4-1-1c0-0.5,0.4-1,1-1h3c0.5,0,1,0.4,1,1C26.6,29.9,26.2,30.4,25.7,30.4z"/>
	<path fill="#BC772B" d="M35.3,30.4h-3c-0.5,0-1-0.4-1-1c0-0.5,0.4-1,1-1h3c0.5,0,1,0.4,1,1C36.2,29.9,35.8,30.4,35.3,30.4z"/>
	<path fill="#845050" d="M16.1,35.9h-3c-0.5,0-1-0.4-1-1c0-0.5,0.4-1,1-1h3c0.5,0,1,0.4,1,1C17,35.5,16.6,35.9,16.1,35.9z"/>
	<path fill="#845050" d="M25.7,35.9h-3c-0.5,0-1-0.4-1-1c0-0.5,0.4-1,1-1h3c0.5,0,1,0.4,1,1C26.6,35.5,26.2,35.9,25.7,35.9z"/>
	<path fill="#845050" d="M35.3,35.9h-3c-0.5,0-1-0.4-1-1c0-0.5,0.4-1,1-1h3c0.5,0,1,0.4,1,1C36.2,35.5,35.8,35.9,35.3,35.9z"/>
	<path fill="#06728D" d="M43.1,4.8h-2.3v3.4c0,1.6-1.3,2.9-2.9,2.9c-1.6,0-2.9-1.3-2.9-2.9V4.8h-1.1v3.4c0,1.6-1.3,2.9-2.9,2.9
		c-1.6,0-2.9-1.3-2.9-2.9V4.8h-1.1v3.4c0,1.6-1.3,2.9-2.9,2.9s-2.9-1.3-2.9-2.9V4.8H20v3.4c0,1.6-1.3,2.9-2.9,2.9s-2.9-1.3-2.9-2.9
		V4.8H13v3.4c0,1.6-1.3,2.9-2.9,2.9c-1.6,0-2.9-1.3-2.9-2.9V4.8H4.9c-2.4,0-4.4,2-4.4,4.4v33.9c0,2.4,2,4.4,4.4,4.4h38.3
		c2.4,0,4.4-2,4.4-4.4V9.2C47.5,6.8,45.5,4.8,43.1,4.8z M42.3,41.2c0,0.5-0.4,1-1,1H6.9c-0.5,0-1-0.4-1-1V17.5c0-0.5,0.4-1,1-1h34.4
		c0.5,0,1,0.4,1,1V41.2z"/>
</g>
</svg>
