<?xml version="1.0" encoding="utf-8"?>
<!-- Generator: Adobe Illustrator 18.0.0, SVG Export Plug-In . SVG Version: 6.00 Build 0)  -->
<!DOCTYPE svg PUBLIC "-//W3C//DTD SVG 1.1//EN" "http://www.w3.org/Graphics/SVG/1.1/DTD/svg11.dtd">
<svg version="1.1" id="Layer_1" xmlns="http://www.w3.org/2000/svg" xmlns:xlink="http://www.w3.org/1999/xlink" x="0px" y="0px"
	 viewBox="0 0 48 48" enable-background="new 0 0 48 48" xml:space="preserve">
<g>
	<path fill="#F04B36" d="M30.6,36.4l-0.4-2.8c0,0,0.1,0,0.1,0c0.4-0.2,1.1-1.8,1.4-2.6c0.5-1.2,1-2.3,1.7-3c0.7-0.7,1.8-1.2,3-1.7
		c0.8-0.4,2.4-1.1,2.6-1.5c0.1-0.4-0.5-2-0.8-2.9c-0.5-1.2-0.9-2.4-0.9-3.4c0-1,0.4-2.1,0.9-3.4c0.3-0.9,1-2.4,0.8-2.9
		c-0.2-0.4-1.8-1.1-2.6-1.5c-1.2-0.5-2.3-1-3-1.7c-0.7-0.7-1.2-1.8-1.7-3c-0.4-0.8-1.1-2.4-1.5-2.6c-0.4-0.1-2,0.5-2.9,0.8
		C26.1,4.7,25,5.1,24,5.1c-1,0-2.1-0.4-3.4-0.9c-0.9-0.3-2.4-0.9-2.9-0.8c-0.4,0.2-1.1,1.8-1.5,2.6c-0.5,1.2-1,2.3-1.7,3
		c-0.7,0.7-1.8,1.2-3,1.7c-0.8,0.4-2.4,1.1-2.6,1.5c-0.1,0.4,0.5,2,0.8,2.9c0.5,1.2,0.9,2.4,0.9,3.4c0,1-0.4,2.1-0.9,3.4
		c-0.3,0.9-1,2.4-0.8,2.9c0.2,0.4,1.8,1.1,2.6,1.5c1.2,0.5,2.3,1,3,1.7c0.7,0.7,1.2,1.8,1.7,3c0.4,0.8,1.1,2.4,1.5,2.6l-0.4,2.8
		c-0.3,0-0.5-0.1-0.7-0.2c-1.5-0.6-2.3-2.4-3-4.1c-0.4-0.8-0.8-1.8-1.1-2.1c-0.3-0.3-1.3-0.8-2.1-1.1c-1.7-0.8-3.5-1.5-4.1-3
		c-0.6-1.5,0.1-3.3,0.8-5c0.3-0.8,0.7-1.8,0.7-2.3S7.4,17,7.1,16.1c-0.7-1.8-1.4-3.6-0.8-5c0.6-1.5,2.4-2.3,4.1-3
		c0.8-0.4,1.8-0.8,2.1-1.1c0.3-0.3,0.8-1.3,1.1-2.1c0.8-1.7,1.5-3.5,3-4.1c1.5-0.6,3.3,0.1,5,0.8c0.8,0.3,1.8,0.7,2.3,0.7
		c0.5,0,1.5-0.4,2.3-0.7c1.8-0.7,3.6-1.4,5-0.8c1.5,0.6,2.3,2.4,3,4.1c0.4,0.8,0.8,1.8,1.1,2.1c0.3,0.3,1.3,0.8,2.1,1.1
		c1.7,0.8,3.5,1.5,4.1,3c0.6,1.5-0.1,3.3-0.8,5c-0.3,0.8-0.7,1.8-0.7,2.3s0.4,1.5,0.7,2.3c0.7,1.8,1.4,3.6,0.8,5
		c-0.6,1.5-2.4,2.2-4.1,3c-0.8,0.4-1.8,0.8-2.1,1.1c-0.3,0.3-0.8,1.3-1.1,2.1c-0.8,1.7-1.5,3.5-3,4.1C31.1,36.3,30.9,36.3,30.6,36.4
		z"/>
	<path fill="#0DB89A" d="M24.1,8.4c-6,0-10.9,4.5-10.9,9.9c0,3,1.5,5.9,4.1,7.8v20.4c0,0.4,0.2,0.7,0.6,0.9c0.1,0,0.2,0.1,0.4,0.1
		c0.3,0,0.5-0.1,0.7-0.3l4.9-5.2l5.2,5.2c0.3,0.3,0.7,0.4,1,0.2c0.4-0.1,0.6-0.5,0.6-0.9V26.2c2.6-1.9,4.1-4.8,4.1-7.8
		C34.9,12.9,30.1,8.4,24.1,8.4z"/>
</g>
</svg>
