<?xml version="1.0" encoding="utf-8"?>
<!-- Generator: Adobe Illustrator 18.0.0, SVG Export Plug-In . SVG Version: 6.00 Build 0)  -->
<!DOCTYPE svg PUBLIC "-//W3C//DTD SVG 1.1//EN" "http://www.w3.org/Graphics/SVG/1.1/DTD/svg11.dtd">
<svg version="1.1" id="Layer_1" xmlns="http://www.w3.org/2000/svg" xmlns:xlink="http://www.w3.org/1999/xlink" x="0px" y="0px"
	 viewBox="0 0 48 48" enable-background="new 0 0 48 48" xml:space="preserve">
<g>
	<path fill="#06728D" d="M45.6,47.5H2.4c-1,0-1.9-0.8-1.9-1.9V2.4c0-1,0.8-1.9,1.9-1.9c1,0,1.9,0.8,1.9,1.9v41.4h41.4
		c1,0,1.9,0.8,1.9,1.9C47.5,46.7,46.7,47.5,45.6,47.5z"/>
	<path fill="#F04B36" d="M32.9,32.1c-0.4,0-0.8-0.1-1.1-0.3L16,20.6l-7.5,9.9c-0.6,0.8-1.8,1-2.6,0.4c-0.8-0.6-1-1.8-0.4-2.6
		l8.6-11.4c0.6-0.8,1.7-1,2.6-0.4l15.4,10.9l10-21.8c0.4-0.9,1.5-1.3,2.5-0.9c0.9,0.4,1.3,1.5,0.9,2.5L34.5,31
		c-0.2,0.5-0.7,0.9-1.2,1C33.2,32.1,33,32.1,32.9,32.1z"/>
	<path fill="#F04B36" d="M45.6,14.1c-0.9,0-1.6-0.6-1.8-1.5l-0.9-4.2l-4.4,1.4c-1,0.3-2-0.2-2.3-1.2c-0.3-1,0.2-2,1.2-2.3l6.4-2.1
		c0.5-0.2,1-0.1,1.5,0.2c0.5,0.3,0.8,0.7,0.9,1.2l1.3,6.2c0.2,1-0.4,2-1.4,2.2C45.9,14.1,45.8,14.1,45.6,14.1z"/>
</g>
</svg>
