<?xml version="1.0" encoding="utf-8"?>
<!-- Generator: Adobe Illustrator 18.0.0, SVG Export Plug-In . SVG Version: 6.00 Build 0)  -->
<!DOCTYPE svg PUBLIC "-//W3C//DTD SVG 1.1//EN" "http://www.w3.org/Graphics/SVG/1.1/DTD/svg11.dtd">
<svg version="1.1" id="Layer_1" xmlns="http://www.w3.org/2000/svg" xmlns:xlink="http://www.w3.org/1999/xlink" x="0px" y="0px"
	 viewBox="0 0 48 48" enable-background="new 0 0 48 48" xml:space="preserve">
<g>
	<path fill="#06728D" d="M23.2,4.8V3.2c0.6,0,1.1-0.4,1.1-0.9c0-0.5-0.5-0.9-1.1-0.9h-5.3c-0.6,0-1.1,0.4-1.1,0.9v3.3
		c0,0.5,0.5,0.9,1.1,0.9h5.3c0.6,0,1.1-0.4,1.1-0.9C24.3,5.2,23.8,4.8,23.2,4.8z"/>
	<path fill="#06728D" d="M24,10.5c-0.5,0-1-0.4-1-1v-8c0-0.5,0.4-1,1-1c0.5,0,1,0.4,1,1v8C25,10,24.5,10.5,24,10.5z"/>
	<path fill="#4DA0D8" d="M46.5,43.8H1.5c-0.5,0-1-0.4-1-1c0-0.5,0.4-1,1-1h45.1c0.5,0,1,0.4,1,1C47.5,43.4,47.1,43.8,46.5,43.8z"/>
	<path fill="#4DA0D8" d="M46.5,47.5H1.5c-0.5,0-1-0.4-1-1c0-0.5,0.4-1,1-1h45.1c0.5,0,1,0.4,1,1C47.5,47.1,47.1,47.5,46.5,47.5z"/>
	<path fill="#E77528" d="M46.5,22.3H34.8v-6.5h0.8c0,0,0,0,0,0c0.5,0,1-0.4,1-1c0-0.4-0.3-0.8-0.7-0.9L24.4,8.6
		c-0.3-0.1-0.5-0.1-0.8,0L12,13.9c-0.4,0.2-0.6,0.6-0.5,1.1c0.1,0.4,0.5,0.8,0.9,0.8h0.8v6.5H1.5c-0.5,0-1,0.4-1,1v16.3
		c0,0.5,0.4,1,1,1h17.9V30.4c0-0.6,0.4-1,1-1h7.3c0.5,0,1,0.5,1,1v10.1h17.9c0.5,0,1-0.4,1-1V23.3C47.5,22.7,47.1,22.3,46.5,22.3z
		 M6.9,36.7c0,0.5-0.4,1-1,1s-1-0.4-1-1V34c0-0.5,0.4-1,1-1s1,0.4,1,1V36.7z M6.9,30.3c0,0.5-0.4,1-1,1s-1-0.4-1-1v-2.8
		c0-0.5,0.4-1,1-1s1,0.4,1,1V30.3z M11.1,36.7c0,0.5-0.4,1-1,1c-0.5,0-1-0.4-1-1V34c0-0.5,0.4-1,1-1c0.5,0,1,0.4,1,1V36.7z
		 M11.1,30.3c0,0.5-0.4,1-1,1c-0.5,0-1-0.4-1-1v-2.8c0-0.5,0.4-1,1-1c0.5,0,1,0.4,1,1V30.3z M15.4,36.7c0,0.5-0.4,1-1,1
		c-0.5,0-1-0.4-1-1V34c0-0.5,0.4-1,1-1c0.5,0,1,0.4,1,1V36.7z M15.4,30.3c0,0.5-0.4,1-1,1c-0.5,0-1-0.4-1-1v-2.8c0-0.5,0.4-1,1-1
		c0.5,0,1,0.4,1,1V30.3z M20.7,25c0,0.5-0.4,1-1,1c-0.5,0-1-0.4-1-1v-2.8c0-0.5,0.4-1,1-1c0.5,0,1,0.4,1,1V25z M20.7,18.6
		c0,0.5-0.4,1-1,1c-0.5,0-1-0.4-1-1v-2.8c0-0.5,0.4-1,1-1c0.5,0,1,0.4,1,1V18.6z M25,25c0,0.5-0.4,1-1,1c-0.5,0-1-0.4-1-1v-2.8
		c0-0.5,0.4-1,1-1c0.5,0,1,0.4,1,1V25z M25,18.6c0,0.5-0.4,1-1,1c-0.5,0-1-0.4-1-1v-2.8c0-0.5,0.4-1,1-1c0.5,0,1,0.4,1,1V18.6z
		 M29.2,25c0,0.5-0.4,1-1,1c-0.5,0-1-0.4-1-1v-2.8c0-0.5,0.4-1,1-1c0.5,0,1,0.4,1,1V25z M29.2,18.6c0,0.5-0.4,1-1,1
		c-0.5,0-1-0.4-1-1v-2.8c0-0.5,0.4-1,1-1c0.5,0,1,0.4,1,1V18.6z M34.6,36.7c0,0.5-0.4,1-1,1c-0.5,0-1-0.4-1-1V34c0-0.5,0.4-1,1-1
		c0.5,0,1,0.4,1,1V36.7z M34.6,30.3c0,0.5-0.4,1-1,1c-0.5,0-1-0.4-1-1v-2.8c0-0.5,0.4-1,1-1c0.5,0,1,0.4,1,1V30.3z M38.8,36.7
		c0,0.5-0.4,1-1,1c-0.5,0-1-0.4-1-1V34c0-0.5,0.4-1,1-1c0.5,0,1,0.4,1,1V36.7z M38.8,30.3c0,0.5-0.4,1-1,1c-0.5,0-1-0.4-1-1v-2.8
		c0-0.5,0.4-1,1-1c0.5,0,1,0.4,1,1V30.3z M43.1,36.7c0,0.5-0.4,1-1,1c-0.5,0-1-0.4-1-1V34c0-0.5,0.4-1,1-1c0.5,0,1,0.4,1,1V36.7z
		 M43.1,30.3c0,0.5-0.4,1-1,1c-0.5,0-1-0.4-1-1v-2.8c0-0.5,0.4-1,1-1c0.5,0,1,0.4,1,1V30.3z"/>
</g>
</svg>
