<?xml version="1.0" encoding="utf-8"?>
<!-- Generator: Adobe Illustrator 18.0.0, SVG Export Plug-In . SVG Version: 6.00 Build 0)  -->
<!DOCTYPE svg PUBLIC "-//W3C//DTD SVG 1.1//EN" "http://www.w3.org/Graphics/SVG/1.1/DTD/svg11.dtd">
<svg version="1.1" id="Layer_1" xmlns="http://www.w3.org/2000/svg" xmlns:xlink="http://www.w3.org/1999/xlink" x="0px" y="0px"
	 viewBox="0 0 48 48" enable-background="new 0 0 48 48" xml:space="preserve">
<g>
	<path fill="#F04B36" d="M46.5,0.5H1.5c-0.5,0-1,0.4-1,0.8v12.9c0,0.5,0.4,0.8,1,0.8h45.1c0.5,0,1-0.4,1-0.8V1.3
		C47.5,0.9,47.1,0.5,46.5,0.5z M29.7,8.9H18.3c-0.5,0-1-0.5-1-1.1c0-0.6,0.4-1.1,1-1.1h11.5c0.5,0,1,0.5,1,1.1
		C30.7,8.4,30.3,8.9,29.7,8.9z"/>
	<path fill="#0DB89A" d="M46.5,16.7H1.5c-0.5,0-1,0.4-1,0.8v12.9c0,0.5,0.4,0.8,1,0.8h45.1c0.5,0,1-0.4,1-0.8V17.5
		C47.5,17.1,47.1,16.7,46.5,16.7z M29.7,25.1H18.3c-0.5,0-1-0.5-1-1.1c0-0.6,0.4-1.1,1-1.1h11.5c0.5,0,1,0.5,1,1.1
		C30.7,24.6,30.3,25.1,29.7,25.1z"/>
	<path fill="#06728D" d="M46.5,32.9H1.5c-0.5,0-1,0.4-1,0.8v12.9c0,0.5,0.4,0.8,1,0.8h45.1c0.5,0,1-0.4,1-0.8V33.7
		C47.5,33.3,47.1,32.9,46.5,32.9z M29.7,41.3H18.3c-0.5,0-1-0.5-1-1.1c0-0.6,0.4-1.1,1-1.1h11.5c0.5,0,1,0.5,1,1.1
		C30.7,40.8,30.3,41.3,29.7,41.3z"/>
</g>
</svg>
