<?xml version="1.0" encoding="utf-8"?>
<!-- Generator: Adobe Illustrator 18.0.0, SVG Export Plug-In . SVG Version: 6.00 Build 0)  -->
<!DOCTYPE svg PUBLIC "-//W3C//DTD SVG 1.1//EN" "http://www.w3.org/Graphics/SVG/1.1/DTD/svg11.dtd">
<svg version="1.1" id="Layer_1" xmlns="http://www.w3.org/2000/svg" xmlns:xlink="http://www.w3.org/1999/xlink" x="0px" y="0px"
	 viewBox="0 0 48 48" enable-background="new 0 0 48 48" xml:space="preserve">
<g>
	<path fill="#F7A93B" d="M24,0.5c-3.9,0-7.1,3.2-7.1,7.1s3.2,7.1,7.1,7.1c3.9,0,7.1-3.2,7.1-7.1S27.9,0.5,24,0.5z"/>
	<path fill="#4DA0D8" d="M46.9,35.8L35,18.5c-0.6-0.9-1.7-1.6-2.5-1.8C30,16.1,26.3,16,24.3,16c-3.4,0-6.7,0.3-8.8,0.7
		c-0.9,0.2-2,1-2.5,1.8L1.1,35.8c-0.6,0.8-0.8,1.8-0.5,2.8c0.3,1,1,1.9,2,2.4c0.6,0.3,1.4,0.5,2.1,0.5c1.5,0,2.8-0.7,3.6-1.8
		l6.5-9.5v16.3c0,0.5,0.4,1,1,1h16.5c0.5,0,1-0.4,1-1V30.2l6.5,9.5c0.8,1.1,2.1,1.8,3.6,1.8c0.7,0,1.4-0.2,2.1-0.5
		c1-0.5,1.7-1.4,2-2.4C47.6,37.6,47.5,36.6,46.9,35.8z"/>
</g>
</svg>
