<?xml version="1.0" encoding="utf-8"?>
<!-- Generator: Adobe Illustrator 18.0.0, SVG Export Plug-In . SVG Version: 6.00 Build 0)  -->
<!DOCTYPE svg PUBLIC "-//W3C//DTD SVG 1.1//EN" "http://www.w3.org/Graphics/SVG/1.1/DTD/svg11.dtd">
<svg version="1.1" id="Layer_1" xmlns="http://www.w3.org/2000/svg" xmlns:xlink="http://www.w3.org/1999/xlink" x="0px" y="0px"
	 viewBox="0 0 48 48" enable-background="new 0 0 48 48" xml:space="preserve">
<g>
	<g>
		<path fill="#F04B36" d="M24,47.4c-7,0-12.5-10.3-12.5-23.4C11.5,10.9,17,0.6,24,0.6S36.5,10.9,36.5,24C36.5,37.1,31,47.4,24,47.4z
			 M24,3.4c-5.2,0-9.7,9.4-9.7,20.6s4.4,20.6,9.7,20.6s9.7-9.4,9.7-20.6S29.2,3.4,24,3.4z"/>
	</g>
	<g>
		<path fill="#0DB89A" d="M9.3,40.2c-3.5,0-6.1-0.9-7.5-2.7c-1.1-1.3-1.5-3.1-1.1-5C1.6,27.3,8,20.4,16.9,15
			c7.6-4.5,15.7-7.3,21.7-7.3c3.5,0,6.1,0.9,7.5,2.7c1.1,1.3,1.5,3.1,1.1,5C46.4,20.7,40,27.6,31.1,33C23.5,37.5,15.4,40.2,9.3,40.2
			z M38.7,10.6c-5.4,0-13.2,2.6-20.3,6.9C9,23.1,4.1,29.3,3.5,33c-0.2,1.1,0,2,0.5,2.7c0.9,1.1,2.8,1.7,5.3,1.7
			c5.4,0,13.2-2.6,20.3-6.9C39,24.9,43.9,18.7,44.5,15c0.2-1.1,0-2-0.5-2.7C43.1,11.2,41.2,10.6,38.7,10.6z"/>
	</g>
	<g>
		<path fill="#06728D" d="M38.6,40.7c-6,0-14.4-3-22-7.9C7.9,27.1,1.8,20.1,1.1,14.8c-0.3-2,0.2-3.7,1.3-5c1.4-1.6,3.9-2.5,7-2.5
			c6,0,14.4,3,22,7.9c8.7,5.6,14.8,12.6,15.5,17.9c0.3,2-0.2,3.7-1.3,5C44.2,39.8,41.7,40.7,38.6,40.7z M9.4,10.1
			c-2.3,0-4,0.5-4.9,1.5c-0.6,0.7-0.8,1.6-0.7,2.8c0.6,4.4,6.3,10.9,14.2,16c7.1,4.6,15,7.5,20.5,7.5c2.3,0,4-0.5,4.9-1.5
			c0.6-0.7,0.8-1.6,0.7-2.8c-0.6-4.4-6.3-10.9-14.2-16C22.7,13,14.9,10.1,9.4,10.1z"/>
	</g>
</g>
</svg>
