<?xml version="1.0" encoding="utf-8"?>
<!-- Generator: Adobe Illustrator 18.0.0, SVG Export Plug-In . SVG Version: 6.00 Build 0)  -->
<!DOCTYPE svg PUBLIC "-//W3C//DTD SVG 1.1//EN" "http://www.w3.org/Graphics/SVG/1.1/DTD/svg11.dtd">
<svg version="1.1" id="Layer_1" xmlns="http://www.w3.org/2000/svg" xmlns:xlink="http://www.w3.org/1999/xlink" x="0px" y="0px"
	 viewBox="0 0 48 48" enable-background="new 0 0 48 48" xml:space="preserve">
<g>
	<path fill="#0DB89A" d="M24.1,40.7c-0.4,0-0.7-0.1-1-0.4c-0.6-0.6-0.6-1.5,0-2l18-18c3.9-3.9,4-10.2,0.2-14
		c-3.8-3.8-10.1-3.7-14,0.2L3.4,30.2c-0.6,0.6-1.5,0.6-2,0c-0.6-0.6-0.6-1.5,0-2L25.3,4.3c5-5,13.1-5.1,18.1-0.2
		c4.9,4.9,4.9,13-0.2,18.1l-18,18C24.9,40.5,24.5,40.7,24.1,40.7z"/>
	<path fill="#F04B36" d="M13.8,47.5c-2.5,0-4.9-0.9-6.8-2.8C3.3,41,3.4,34.8,7.2,31l13.2-13.2c0.6-0.6,1.5-0.6,2,0
		c0.6,0.6,0.6,1.5,0,2L9.2,33c-2.7,2.7-2.8,7.1-0.1,9.7c2.6,2.6,7,2.6,9.7-0.1L32,29.4c0.6-0.6,1.5-0.6,2,0c0.6,0.6,0.6,1.5,0,2
		L20.8,44.6C18.9,46.5,16.3,47.5,13.8,47.5z"/>
	<path fill="#F7A93B" d="M18.4,36.2c-0.4,0-0.7-0.1-1-0.4c-0.6-0.6-0.6-1.5,0-2l18.2-18.2c1.3-1.3,1.3-3.3,0.1-4.6
		c-1.2-1.2-3.3-1.2-4.6,0.1L17.4,24.8c-0.6,0.6-1.5,0.6-2,0c-0.6-0.6-0.6-1.5,0-2L29.1,9c2.4-2.4,6.2-2.4,8.6-0.1
		c2.4,2.4,2.3,6.2-0.1,8.6L19.4,35.8C19.2,36.1,18.8,36.2,18.4,36.2z"/>
</g>
</svg>
