<?xml version="1.0" encoding="utf-8"?>
<!-- Generator: Adobe Illustrator 18.0.0, SVG Export Plug-In . SVG Version: 6.00 Build 0)  -->
<!DOCTYPE svg PUBLIC "-//W3C//DTD SVG 1.1//EN" "http://www.w3.org/Graphics/SVG/1.1/DTD/svg11.dtd">
<svg version="1.1" id="Layer_1" xmlns="http://www.w3.org/2000/svg" xmlns:xlink="http://www.w3.org/1999/xlink" x="0px" y="0px"
	 viewBox="0 0 48 48" enable-background="new 0 0 48 48" xml:space="preserve">
<g>
	<path fill="#F04B36" d="M47.4,45.9L34.2,11.5H9.3l-8.7,25c-0.1,0.4-0.1,0.8,0.1,1.1c0.2,0.3,0.5,0.5,0.8,0.5h18.7l3.3,8.7
		c0.2,0.4,0.5,0.7,0.9,0.7h22.1c0.3,0,0.6-0.2,0.8-0.5C47.5,46.6,47.5,46.2,47.4,45.9z M2.9,35.9l7.8-22.3l8.6,22.3H2.9z M32.1,38.1
		c-0.1,0.1-0.2,0.1-0.3,0.1c-0.3,0-0.6-0.2-0.8-0.4l-6.4-9.4v7.2c0,0.6-0.4,1.1-1,1.1c-0.5,0-1-0.5-1-1.1V25c0-0.5,0.3-0.9,0.6-1.1
		c0.4-0.2,0.8,0,1.1,0.4l6.2,9.2l-0.9-17.8c0-0.6,0.4-1.2,0.9-1.2c0.5,0,1,0.4,1,1.1l1.1,21.4C32.8,37.4,32.5,37.9,32.1,38.1z"/>
	<path fill="#0DB89A" d="M35.2,0.5H8.1c-0.5,0-1,0.5-1,1.1v7.2c0,0.6,0.4,1.1,1,1.1h1.3h24.9h1c0.5,0,1-0.5,1-1.1V1.6
		C36.2,1,35.8,0.5,35.2,0.5z"/>
</g>
</svg>
