<?xml version="1.0" encoding="utf-8"?>
<!-- Generator: Adobe Illustrator 18.0.0, SVG Export Plug-In . SVG Version: 6.00 Build 0)  -->
<!DOCTYPE svg PUBLIC "-//W3C//DTD SVG 1.1//EN" "http://www.w3.org/Graphics/SVG/1.1/DTD/svg11.dtd">
<svg version="1.1" id="Layer_1" xmlns="http://www.w3.org/2000/svg" xmlns:xlink="http://www.w3.org/1999/xlink" x="0px" y="0px"
	 viewBox="0 0 48 48" enable-background="new 0 0 48 48" xml:space="preserve">
<g>
	<path fill="#06728D" d="M24,47.5c-0.8,0-1.4-0.6-1.4-1.4v-19c0-0.8,0.6-1.4,1.4-1.4c0.8,0,1.4,0.6,1.4,1.4v19
		C25.4,46.9,24.8,47.5,24,47.5z"/>
	<path fill="#CFD0D1" d="M36.5,23.7c-0.8,0-1.4-0.6-1.4-1.4c0-6.1-5-11.1-11.1-11.1c-6.1,0-11.1,5-11.1,11.1c0,0.8-0.6,1.4-1.4,1.4
		c-0.8,0-1.4-0.6-1.4-1.4c0-7.7,6.2-13.9,13.9-13.9c7.7,0,13.9,6.2,13.9,13.9C37.9,23,37.3,23.7,36.5,23.7z"/>
	<path fill="#F04B36" d="M24,15.9c-3.5,0-6.4,2.9-6.4,6.4c0,3.5,2.9,6.4,6.4,6.4c3.5,0,6.4-2.9,6.4-6.4C30.4,18.7,27.5,15.9,24,15.9
		z"/>
	<path fill="#CFD0D1" d="M44.3,23.7c-0.8,0-1.4-0.6-1.4-1.4c0-10.4-8.5-18.9-18.9-18.9c-10.4,0-18.9,8.5-18.9,18.9
		c0,0.8-0.6,1.4-1.4,1.4c-0.8,0-1.4-0.6-1.4-1.4C2.2,10.3,12,0.5,24,0.5c12,0,21.8,9.8,21.8,21.8C45.8,23,45.1,23.7,44.3,23.7z"/>
</g>
</svg>
