<?xml version="1.0" encoding="utf-8"?>
<!-- Generator: Adobe Illustrator 18.0.0, SVG Export Plug-In . SVG Version: 6.00 Build 0)  -->
<!DOCTYPE svg PUBLIC "-//W3C//DTD SVG 1.1//EN" "http://www.w3.org/Graphics/SVG/1.1/DTD/svg11.dtd">
<svg version="1.1" id="Layer_1" xmlns="http://www.w3.org/2000/svg" xmlns:xlink="http://www.w3.org/1999/xlink" x="0px" y="0px"
	 viewBox="0 0 48 48" enable-background="new 0 0 48 48" xml:space="preserve">
<g>
	<path fill="#FFD69A" d="M45,0.5H9.9c-0.5,0-1,0.4-1,1v32.2c0,0.3,0.1,0.5,0.3,0.7c0.2,0.2,0.4,0.3,0.7,0.3h0l23.8,0
		c-1.8,1.6-2.4,3.9-2.4,5.4c0,4.1,3.3,7.4,7.4,7.4c4.1,0,7.4-3.3,7.4-7.4V1.5C46,0.9,45.6,0.5,45,0.5z M39.4,28.6H15.5
		c-0.5,0-1-0.4-1-1c0-0.5,0.4-1,1-1h23.9c0.5,0,1,0.4,1,1C40.4,28.2,39.9,28.6,39.4,28.6z M39.4,19.3H15.5c-0.5,0-1-0.4-1-1
		c0-0.5,0.4-1,1-1h23.9c0.5,0,1,0.4,1,1C40.4,18.9,39.9,19.3,39.4,19.3z M39.4,10H15.5c-0.5,0-1-0.4-1-1c0-0.5,0.4-1,1-1h23.9
		c0.5,0,1,0.4,1,1C40.4,9.6,39.9,10,39.4,10z"/>
	<path fill="#E77528" d="M38.6,47.5H9.9c-4.3,0-7.9-3.4-7.9-7.7c0-4.2,3.5-7.7,7.9-7.7h28.7c0.8,0,1.5,0.6,1.5,1.5s-0.6,1.5-1.5,1.5
		c-2.7,0-5,2.1-5,4.8c0,2.6,2.2,4.8,5,4.8c0.8,0,1.5,0.6,1.5,1.5C40.1,46.9,39.4,47.5,38.6,47.5z M9.9,35.1c-2.7,0-5,2.1-5,4.8
		c0,2.6,2.2,4.8,5,4.8h22.6c-1.1-1.3-1.7-3-1.7-4.8c0-1.8,0.6-3.5,1.7-4.8H9.9z"/>
</g>
</svg>
