<?xml version="1.0" encoding="utf-8"?>
<!-- Generator: Adobe Illustrator 18.0.0, SVG Export Plug-In . SVG Version: 6.00 Build 0)  -->
<!DOCTYPE svg PUBLIC "-//W3C//DTD SVG 1.1//EN" "http://www.w3.org/Graphics/SVG/1.1/DTD/svg11.dtd">
<svg version="1.1" id="Layer_1" xmlns="http://www.w3.org/2000/svg" xmlns:xlink="http://www.w3.org/1999/xlink" x="0px" y="0px"
	 viewBox="0 0 48 48" enable-background="new 0 0 48 48" xml:space="preserve">
<g>
	<path fill="#CFD0D1" d="M41.2,0.5H6.8c-0.5,0-1,0.4-1,1v45.1c0,0.5,0.4,1,1,1h34.3c0.5,0,1-0.4,1-1V1.5C42.1,0.9,41.7,0.5,41.2,0.5
		z M11.4,8.9c0-0.5,0.4-1,1-1h9.1c0.5,0,1,0.4,1,1V21c0,0.5-0.4,1-1,1h-9.1c-0.5,0-1-0.4-1-1V8.9z M35.7,40.1H12.3c-0.5,0-1-0.4-1-1
		c0-0.5,0.4-1,1-1h23.3c0.5,0,1,0.4,1,1C36.6,39.7,36.2,40.1,35.7,40.1z M35.7,34H12.3c-0.5,0-1-0.4-1-1c0-0.5,0.4-1,1-1h23.3
		c0.5,0,1,0.4,1,1C36.6,33.6,36.2,34,35.7,34z M35.7,28H12.3c-0.5,0-1-0.4-1-1c0-0.5,0.4-1,1-1h23.3c0.5,0,1,0.4,1,1
		C36.6,27.6,36.2,28,35.7,28z M35.7,21.9h-7.9c-0.5,0-1-0.4-1-1c0-0.5,0.4-1,1-1h7.9c0.5,0,1,0.4,1,1C36.6,21.5,36.2,21.9,35.7,21.9
		z M35.7,15.9h-7.9c-0.5,0-1-0.4-1-1c0-0.5,0.4-1,1-1h7.9c0.5,0,1,0.4,1,1C36.6,15.5,36.2,15.9,35.7,15.9z M35.7,9.8h-7.9
		c-0.5,0-1-0.4-1-1c0-0.5,0.4-1,1-1h7.9c0.5,0,1,0.4,1,1C36.6,9.4,36.2,9.8,35.7,9.8z"/>
</g>
</svg>
