<?xml version="1.0" encoding="utf-8"?>
<!-- Generator: Adobe Illustrator 18.0.0, SVG Export Plug-In . SVG Version: 6.00 Build 0)  -->
<!DOCTYPE svg PUBLIC "-//W3C//DTD SVG 1.1//EN" "http://www.w3.org/Graphics/SVG/1.1/DTD/svg11.dtd">
<svg version="1.1" id="Layer_1" xmlns="http://www.w3.org/2000/svg" xmlns:xlink="http://www.w3.org/1999/xlink" x="0px" y="0px"
	 viewBox="0 0 48 48" enable-background="new 0 0 48 48" xml:space="preserve">
<g>
	<path fill="#F04B36" d="M10.8,42.8c-0.5,0-1-0.4-1-1V6.6c0-0.5,0.4-1,1-1h26.8c0.5,0,1,0.4,1,1c0,0.5-0.4,1-1,1H11.8v34.2
		C11.8,42.3,11.4,42.8,10.8,42.8z"/>
	<path fill="#4DA0D8" d="M6,37.6c-0.5,0-1-0.4-1-1V1.5c0-0.5,0.4-1,1-1h26.8c0.5,0,1,0.4,1,1s-0.4,1-1,1H7v34.2
		C7,37.2,6.6,37.6,6,37.6z"/>
	<path fill="#F7A93B" d="M42,10.4H15.1c-0.5,0-1,0.4-1,1v35.2c0,0.5,0.4,1,1,1H42c0.5,0,1-0.4,1-1V11.3C42.9,10.8,42.5,10.4,42,10.4
		z M37.7,41.7H19.4c-0.5,0-1-0.4-1-1c0-0.5,0.4-1,1-1h18.2c0.5,0,1,0.4,1,1C38.6,41.3,38.2,41.7,37.7,41.7z M37.7,35.9H19.4
		c-0.5,0-1-0.4-1-1c0-0.5,0.4-1,1-1h18.2c0.5,0,1,0.4,1,1C38.6,35.5,38.2,35.9,37.7,35.9z M37.7,30.1H19.4c-0.5,0-1-0.4-1-1
		c0-0.5,0.4-1,1-1h18.2c0.5,0,1,0.4,1,1C38.6,29.7,38.2,30.1,37.7,30.1z M37.7,24.3H19.4c-0.5,0-1-0.4-1-1c0-0.5,0.4-1,1-1h18.2
		c0.5,0,1,0.4,1,1C38.6,23.8,38.2,24.3,37.7,24.3z M37.7,18.5H19.4c-0.5,0-1-0.4-1-1c0-0.5,0.4-1,1-1h18.2c0.5,0,1,0.4,1,1
		C38.6,18,38.2,18.5,37.7,18.5z"/>
</g>
</svg>
