<?xml version="1.0" encoding="utf-8"?>
<!-- Generator: Adobe Illustrator 18.0.0, SVG Export Plug-In . SVG Version: 6.00 Build 0)  -->
<!DOCTYPE svg PUBLIC "-//W3C//DTD SVG 1.1//EN" "http://www.w3.org/Graphics/SVG/1.1/DTD/svg11.dtd">
<svg version="1.1" id="Layer_1" xmlns="http://www.w3.org/2000/svg" xmlns:xlink="http://www.w3.org/1999/xlink" x="0px" y="0px"
	 viewBox="0 0 48 48" enable-background="new 0 0 48 48" xml:space="preserve">
<g>
	<path fill="#0DB89A" d="M41.2,0.5H6.8c-0.5,0-1,0.4-1,1v45.1c0,0.5,0.4,1,1,1h34.3c0.5,0,1-0.4,1-1V1.5C42.1,0.9,41.7,0.5,41.2,0.5
		z M35.7,40.1h-7.8c-0.5,0-1-0.4-1-1c0-0.5,0.4-1,1-1h7.8c0.5,0,1,0.4,1,1C36.6,39.7,36.2,40.1,35.7,40.1z M35.7,34H12.3
		c-0.5,0-1-0.4-1-1c0-0.5,0.4-1,1-1h23.3c0.5,0,1,0.4,1,1C36.6,33.6,36.2,34,35.7,34z M35.7,28H12.3c-0.5,0-1-0.4-1-1
		c0-0.5,0.4-1,1-1h23.3c0.5,0,1,0.4,1,1C36.6,27.6,36.2,28,35.7,28z M19.2,16.9c0-2.7,2.2-4.8,4.8-4.8c2.7,0,4.8,2.2,4.8,4.8
		s-2.2,4.8-4.8,4.8C21.3,21.7,19.2,19.5,19.2,16.9z M36.5,18.7c-0.5,0-1-0.4-1-1c0-5.6-5.2-10.1-11.5-10.1
		c-6.4,0-11.5,4.5-11.5,10.1c0,0.5-0.4,1-1,1c-0.5,0-1-0.4-1-1c0-6.6,6-12.1,13.5-12.1c7.4,0,13.5,5.4,13.5,12.1
		C37.5,18.3,37,18.7,36.5,18.7z"/>
</g>
</svg>
