<?xml version="1.0" encoding="utf-8"?>
<!-- Generator: Adobe Illustrator 18.0.0, SVG Export Plug-In . SVG Version: 6.00 Build 0)  -->
<!DOCTYPE svg PUBLIC "-//W3C//DTD SVG 1.1//EN" "http://www.w3.org/Graphics/SVG/1.1/DTD/svg11.dtd">
<svg version="1.1" id="Layer_1" xmlns="http://www.w3.org/2000/svg" xmlns:xlink="http://www.w3.org/1999/xlink" x="0px" y="0px"
	 viewBox="0 0 48 48" enable-background="new 0 0 48 48" xml:space="preserve">
<g>
	<path fill="#F7A93B" d="M40.8,0.5H7.2c-3.7,0-6.7,3.1-6.7,6.9v22.7c0,3.8,3,6.9,6.7,6.9h19.8c13.2,10.5,13.5,10.5,14,10.5
		c0.5,0,1-0.4,1-1c0-0.3,0-0.6-4.8-9.5h3.8c3.7,0,6.7-3.1,6.7-6.9V7.4C47.5,3.6,44.5,0.5,40.8,0.5z M37.7,29.1H10.3
		c-0.8,0-1.5-0.7-1.5-1.5c0-0.8,0.7-1.5,1.5-1.5h27.4c0.8,0,1.5,0.7,1.5,1.5C39.2,28.4,38.5,29.1,37.7,29.1z M37.7,20.1H10.3
		c-0.8,0-1.5-0.7-1.5-1.5c0-0.8,0.7-1.5,1.5-1.5h27.4c0.8,0,1.5,0.7,1.5,1.5C39.2,19.4,38.5,20.1,37.7,20.1z M37.7,11.1H10.3
		c-0.8,0-1.5-0.7-1.5-1.5c0-0.8,0.7-1.5,1.5-1.5h27.4c0.8,0,1.5,0.7,1.5,1.5C39.2,10.4,38.5,11.1,37.7,11.1z"/>
</g>
</svg>
