<?xml version="1.0" encoding="utf-8"?>
<!-- Generator: Adobe Illustrator 18.0.0, SVG Export Plug-In . SVG Version: 6.00 Build 0)  -->
<!DOCTYPE svg PUBLIC "-//W3C//DTD SVG 1.1//EN" "http://www.w3.org/Graphics/SVG/1.1/DTD/svg11.dtd">
<svg version="1.1" id="Layer_1" xmlns="http://www.w3.org/2000/svg" xmlns:xlink="http://www.w3.org/1999/xlink" x="0px" y="0px"
	 viewBox="0 0 48 48" enable-background="new 0 0 48 48" xml:space="preserve">
<g>
	<path fill="#F04B36" d="M27.7,47c-0.6,0-1.1-0.4-1.3-1c0-0.1-2.5-8.1-8.1-10.4c-0.7-0.3-1-1.1-0.8-1.8c0.3-0.7,1.1-1,1.8-0.8
		c6.8,2.8,9.6,11.8,9.7,12.1c0.2,0.7-0.2,1.5-0.9,1.7C28,47,27.9,47,27.7,47z"/>
	<path fill="#E2A14A" d="M38.9,4.3c-0.1-0.2-0.2-0.5-0.4-0.6l-5.6-3.1c-0.4-0.2-0.9-0.1-1.2,0.3l-3,4.4c-0.1,0.2-0.2,0.5-0.1,0.7
		c0.1,0.2,0.2,0.5,0.4,0.6l5.6,3.1c0.1,0.1,0.3,0.1,0.4,0.1c0.3,0,0.6-0.1,0.8-0.4l3-4.4C38.9,4.8,38.9,4.5,38.9,4.3z"/>
	<path fill="#06728D" d="M34.8,12.5c-0.2-0.9-0.8-1.7-1.6-2.1l-4.9-2.7c-0.5-0.3-1.1-0.4-1.7-0.4c-1.4,0-2.8,0.8-3.6,2l-9.7,14.4
		l11.3,6.2l9.6-14.3C34.9,14.6,35.1,13.5,34.8,12.5z"/>
	<path fill="#294E58" d="M24.7,47.5c-0.8,0-1.4-0.6-1.4-1.4c0-0.8,0.6-1.4,1.4-1.4c8.7,0,15.7-6.3,15.7-14.1c0-5-3-9.7-7.9-12.2
		c-0.7-0.3-0.9-1.2-0.6-1.8c0.3-0.7,1.2-0.9,1.8-0.6c5.8,3,9.4,8.6,9.4,14.6C43.2,40,34.9,47.5,24.7,47.5z"/>
	<path fill="#294E58" d="M40.1,47.5h-26c-0.8,0-1.4-0.6-1.4-1.4c0-0.8,0.6-1.4,1.4-1.4h26c0.8,0,1.4,0.6,1.4,1.4
		C41.4,46.9,40.8,47.5,40.1,47.5z"/>
	<path fill="#0DB89A" d="M31.4,35.7H6.2c-0.8,0-1.4-0.6-1.4-1.4c0-0.8,0.6-1.4,1.4-1.4h25.2c0.8,0,1.4,0.6,1.4,1.4
		C32.7,35.1,32.1,35.7,31.4,35.7z"/>
</g>
</svg>
