<?xml version="1.0" encoding="utf-8"?>
<!-- Generator: Adobe Illustrator 18.0.0, SVG Export Plug-In . SVG Version: 6.00 Build 0)  -->
<!DOCTYPE svg PUBLIC "-//W3C//DTD SVG 1.1//EN" "http://www.w3.org/Graphics/SVG/1.1/DTD/svg11.dtd">
<svg version="1.1" id="Layer_1" xmlns="http://www.w3.org/2000/svg" xmlns:xlink="http://www.w3.org/1999/xlink" x="0px" y="0px"
	 viewBox="0 0 48 48" enable-background="new 0 0 48 48" xml:space="preserve">
<g>
	<path fill="#06728D" d="M40.7,31.5c1.1,0,2.2,0.2,3.1,0.7V3.4c0-0.5-0.4-1-1-1H5.2c-0.5,0-1,0.4-1,1v28.8c0.9-0.4,2-0.7,3.1-0.7
		H40.7z M29,15c0.4-0.4,1-0.4,1.4,0c0.4,0.4,0.4,1,0,1.4c-0.8,0.8-0.8,2.2,0,3.1c0.4,0.4,0.4,1,0,1.4c-0.2,0.2-0.4,0.3-0.7,0.3
		c-0.2,0-0.5-0.1-0.7-0.3C27.4,19.3,27.4,16.7,29,15z M27.1,11.8c0.4,0.4,0.4,1,0,1.4c-2.7,2.7-2.7,7,0,9.6c0.4,0.4,0.4,1,0,1.4
		c-0.2,0.2-0.4,0.3-0.7,0.3c-0.2,0-0.5-0.1-0.7-0.3c-3.4-3.4-3.4-9,0-12.4C26.1,11.4,26.7,11.4,27.1,11.8z M21.8,7.9
		c0.4-0.4,1-0.4,1.4,0c0.4,0.4,0.4,1,0,1.4c-4.8,4.8-4.8,12.6,0,17.5c0.4,0.4,0.4,1,0,1.4c-0.2,0.2-0.4,0.3-0.7,0.3
		c-0.2,0-0.5-0.1-0.7-0.3C16.2,22.5,16.2,13.4,21.8,7.9z"/>
	<path fill="#0DB89A" d="M43.8,34c-0.9-0.4-2-0.7-3.1-0.7H7.3c-1.1,0-2.2,0.2-3.1,0.7c-2.2,1-3.7,3.1-3.7,5.4c0,3.4,3,6.1,6.8,6.1
		h33.4c3.7,0,6.8-2.7,6.8-6.1C47.5,37.1,46,35,43.8,34z M16.3,42H9.7c-0.5,0-1-0.4-1-1s0.4-1,1-1h6.6c0.5,0,1,0.4,1,1
		S16.9,42,16.3,42z M27.3,42h-6.6c-0.5,0-1-0.4-1-1s0.4-1,1-1h6.6c0.5,0,1,0.4,1,1S27.8,42,27.3,42z"/>
</g>
</svg>
