<?xml version="1.0" encoding="utf-8"?>
<!-- Generator: Adobe Illustrator 18.0.0, SVG Export Plug-In . SVG Version: 6.00 Build 0)  -->
<!DOCTYPE svg PUBLIC "-//W3C//DTD SVG 1.1//EN" "http://www.w3.org/Graphics/SVG/1.1/DTD/svg11.dtd">
<svg version="1.1" id="Layer_1" xmlns="http://www.w3.org/2000/svg" xmlns:xlink="http://www.w3.org/1999/xlink" x="0px" y="0px"
	 viewBox="0 0 48 48" enable-background="new 0 0 48 48" xml:space="preserve">
<g>
	<path fill="#F04B36" d="M35.5,10.6C35.4,10.6,35.4,10.6,35.5,10.6c-0.6,0-1-0.5-1-1c0.1-2-1-3.8-2.4-3.9c-0.6,0-1.3,0.3-1.8,0.9
		c-0.6,0.7-0.9,1.7-1,2.7c0,0.5-0.5,1-1,0.9c-0.5,0-1-0.5-0.9-1c0.1-1.5,0.6-2.9,1.4-3.9c0.9-1.1,2.1-1.7,3.4-1.6
		c2.5,0.1,4.4,2.7,4.3,5.9C36.4,10.2,36,10.6,35.5,10.6z"/>
	<path fill="#F7A93B" d="M27.5,9.5c-2.7-4.4-7.3-6.9-12.4-6.9C7,2.5,0.5,9.1,0.5,17.2C0.5,25.4,7,32,15.1,32c1.4,0,2.7-0.2,4-0.6
		c0.5-0.1,0.8-0.7,0.7-1.2c-0.1-0.3-0.3-0.5-0.6-0.6l7.2-18.7c0.3,0.1,0.6,0.1,0.9-0.1C27.6,10.5,27.8,10,27.5,9.5z M16.2,17.2
		c0,0.3-0.2,0.7-0.5,0.8l-5.4,3.2c-0.2,0.1-0.3,0.1-0.5,0.1c-0.3,0-0.7-0.2-0.8-0.5c-0.3-0.5-0.1-1.1,0.3-1.3l4.9-3V7.4
		c0-0.5,0.4-1,1-1c0.5,0,1,0.4,1,1V17.2z"/>
	<path fill="#F04B36" d="M35.1,42.3c-0.5,0-0.9-0.4-1-0.9c0-0.5,0.4-1,0.9-1l1.5-0.1c1.8-0.1,2.9-0.2,4-0.3c3.8-0.5,5-1.6,5-1.9
		c0-0.9-4.9-3.2-14.6-3.6c-4.1-0.2-8,0.1-10.9,0.7c-3.2,0.7-3.9,1.5-3.9,1.7c0,0.6,3,2.5,10.5,3.3c0.5,0.1,0.9,0.5,0.9,1.1
		c-0.1,0.5-0.5,0.9-1.1,0.9c-2.9-0.3-12.3-1.6-12.2-5.3c0.1-1.6,1.9-2.8,5.5-3.6c3.1-0.7,7.1-0.9,11.4-0.8
		c5.8,0.2,16.6,1.7,16.5,5.6c-0.1,1.9-2.6,3.3-6.7,3.8c-1.1,0.1-2.3,0.2-4.1,0.3L35.1,42.3C35.1,42.3,35.1,42.3,35.1,42.3z"/>
	<path fill="#4DA0D8" d="M46.9,36.4c-4.9-7-4.6-16.9-4.5-19c0.1-2.5-0.9-4.7-2.8-6.4c-1.9-1.7-4.6-2.7-7.7-2.8
		c-6.4-0.3-10.9,3.3-11.1,8.5c0,1.9-0.6,11.9-6.1,18.6c-0.2,0.3-0.3,0.7-0.1,1c0.2,0.3,0.5,0.6,0.9,0.6c0.3,0,0.5-0.1,0.7-0.3
		c1.1-1.1,5.4-2.2,12.3-2.2c0.8,0,1.6,0,2.4,0c7.8,0.3,13.3,1.9,14.5,3.3c0.2,0.2,0.4,0.3,0.7,0.3l0,0c0,0,0,0,0,0c0,0,0,0,0,0
		c0.5,0,1-0.4,1-1C47.2,36.8,47,36.6,46.9,36.4z"/>
	<path fill="#294E58" d="M31.1,34.9l-0.2,0c-2.8,0-5.1,2.2-5.2,5c-0.1,2.9,2.1,5.3,5,5.5l0.2,0c2.6,0,4.7-1.8,5.2-4.3
		c0-0.1,0-0.2,0-0.3c0-0.1,0-0.3,0-0.4C36.2,37.5,33.9,35.1,31.1,34.9z"/>
</g>
</svg>
