<?xml version="1.0" encoding="utf-8"?>
<!-- Generator: Adobe Illustrator 18.0.0, SVG Export Plug-In . SVG Version: 6.00 Build 0)  -->
<!DOCTYPE svg PUBLIC "-//W3C//DTD SVG 1.1//EN" "http://www.w3.org/Graphics/SVG/1.1/DTD/svg11.dtd">
<svg version="1.1" id="Layer_1" xmlns="http://www.w3.org/2000/svg" xmlns:xlink="http://www.w3.org/1999/xlink" x="0px" y="0px"
	 viewBox="0 0 48 48" enable-background="new 0 0 48 48" xml:space="preserve">
<g>
	<path fill="#0DB89A" d="M39,28.5c-0.5,0-1-0.5-1-1V25H10.3v2.5c0,0.6-0.4,1-1,1c-0.5,0-1-0.5-1-1v-4.6H40v4.6
		C40,28.1,39.6,28.5,39,28.5z"/>
	<path fill="#0DB89A" d="M24.2,25c-0.5,0-1-0.5-1-1v-3.6c0-0.6,0.4-1,1-1c0.5,0,1,0.5,1,1v3.6C25.1,24.5,24.7,25,24.2,25z"/>
	<path fill="#294E58" d="M32.8,16.7c0-4.7-3-7.8-4.2-8.8c0.4-0.7,0.6-1.5,0.6-2.4c0-2.8-2.3-5.1-5-5.1c-2.8,0-5,2.3-5,5.1
		c0,0.9,0.2,1.7,0.6,2.4c-1.2,1-4.2,4.1-4.2,8.8v1h8.7h8.7V16.7z M21.3,9.7L21.3,9.7C21.3,9.7,21.3,9.7,21.3,9.7
		C21.3,9.7,21.3,9.7,21.3,9.7z M27,9.7C27,9.7,27,9.7,27,9.7C27,9.7,27,9.7,27,9.7L27,9.7z"/>
	<path fill="#E77528" d="M13.6,37.9c0.4-0.7,0.6-1.5,0.6-2.3c0-2.8-2.3-5-5-5c-2.8,0-5,2.2-5,5c0,0.8,0.2,1.6,0.6,2.3
		c-1.2,1-4.2,4-4.2,8.6v1h8.7h8.7v-1C17.8,41.9,14.8,38.9,13.6,37.9z M6.3,39.7L6.3,39.7C6.3,39.7,6.4,39.7,6.3,39.7
		C6.4,39.7,6.3,39.7,6.3,39.7z"/>
	<path fill="#F04B36" d="M43.3,37.9c0.4-0.7,0.6-1.5,0.6-2.3c0-2.8-2.3-5-5-5c-2.8,0-5,2.2-5,5c0,0.8,0.2,1.6,0.6,2.3
		c-1.2,1-4.2,4-4.2,8.6v1h8.7h8.7v-1C47.5,41.9,44.5,38.9,43.3,37.9z"/>
</g>
</svg>
