<?xml version="1.0" encoding="utf-8"?>
<!-- Generator: Adobe Illustrator 18.0.0, SVG Export Plug-In . SVG Version: 6.00 Build 0)  -->
<!DOCTYPE svg PUBLIC "-//W3C//DTD SVG 1.1//EN" "http://www.w3.org/Graphics/SVG/1.1/DTD/svg11.dtd">
<svg version="1.1" id="Layer_1" xmlns="http://www.w3.org/2000/svg" xmlns:xlink="http://www.w3.org/1999/xlink" x="0px" y="0px"
	 viewBox="0 0 48 48" enable-background="new 0 0 48 48" xml:space="preserve">
<g>
	<path fill="#CFD0D1" d="M43.6,17.2c-0.4-0.3-1-0.3-1.4,0.1l-1.8,2.2c-1-8.2-8-14.6-16.5-14.6c-0.5,0-1,0.4-1,1c0,0.5,0.4,1,1,1
		c7.6,0,13.8,5.8,14.6,13.2l-2.3-1.8c-0.4-0.3-1-0.2-1.4,0.2c-0.3,0.4-0.2,1,0.2,1.4l4.7,3.6l4-4.8C44.1,18.2,44,17.6,43.6,17.2z"/>
	<path fill="#CFD0D1" d="M22.4,42.1c-7.6,0-13.8-5.8-14.6-13.1l2.2,1.7c0.4,0.3,1,0.2,1.4-0.2c0.3-0.4,0.2-1-0.2-1.4l-4.7-3.6
		l-4,4.8c-0.3,0.4-0.3,1,0.1,1.4c0.2,0.1,0.4,0.2,0.6,0.2c0.3,0,0.6-0.1,0.7-0.4l1.9-2.2c0.9,8.3,8,14.7,16.5,14.7c0.5,0,1-0.4,1-1
		S22.9,42.1,22.4,42.1z"/>
	<path fill="#0DB89A" d="M17.5,10.4c0.6-1,1-2.1,1-3.4c0-3.6-2.9-6.5-6.5-6.5C8.3,0.5,5.4,3.4,5.4,7c0,1.2,0.4,2.4,1,3.4
		c-1.3,1.1-5.9,5.2-5.9,11.9v1h11.4h11.4v-1C23.4,15.6,18.8,11.5,17.5,10.4z M7.8,12.1L7.8,12.1C7.7,12,7.8,12,7.8,12.1
		C7.8,12.1,7.8,12.1,7.8,12.1z M8.6,14.2L8.6,14.2C8.6,14.1,8.7,14.1,8.6,14.2C8.7,14.1,8.6,14.1,8.6,14.2z"/>
	<path fill="#E77528" d="M41.6,34.6c0.6-1,1-2.1,1-3.4c0-3.6-2.9-6.5-6.5-6.5c-3.6,0-6.5,2.9-6.5,6.5c0,1.2,0.4,2.4,1,3.4
		c-1.3,1.1-5.9,5.2-5.9,11.9v1h11.4h11.4v-1C47.5,39.8,42.9,35.7,41.6,34.6z M32.7,38.4l-0.1-0.2c0.1,0,0.2,0,0.2,0.1
		C32.9,38.3,32.8,38.4,32.7,38.4z M31.9,36.3C31.9,36.3,31.9,36.3,31.9,36.3l-0.1-0.1C31.9,36.2,31.9,36.2,31.9,36.3z"/>
</g>
</svg>
