<?xml version="1.0" encoding="utf-8"?>
<!-- Generator: Adobe Illustrator 18.0.0, SVG Export Plug-In . SVG Version: 6.00 Build 0)  -->
<!DOCTYPE svg PUBLIC "-//W3C//DTD SVG 1.1//EN" "http://www.w3.org/Graphics/SVG/1.1/DTD/svg11.dtd">
<svg version="1.1" id="Layer_1" xmlns="http://www.w3.org/2000/svg" xmlns:xlink="http://www.w3.org/1999/xlink" x="0px" y="0px"
	 viewBox="0 0 48 48" enable-background="new 0 0 48 48" xml:space="preserve">
<path fill="#4DA0D8" d="M32.3,34.3c-2.1,1.7-4.7,2.6-7.4,2.6c-3.2,0-6.3-1.3-8.5-3.5c-2.3-2.3-3.5-5.3-3.5-8.5
	c0-3.2,1.3-6.3,3.5-8.5c2.3-2.3,5.3-3.5,8.5-3.5c3.2,0,6.3,1.3,8.5,3.5c2.3,2.3,3.5,5.3,3.5,8.5c0,2.7-0.9,5.3-2.6,7.4l8.6,8.6V9.9
	c0-0.5-0.4-1-1-1h-1.3c-1.4-1.1-2.2-2.2-2.4-3.5c-0.2-1.3,0.4-2.5,0.8-3h1.3c0.5,0,1-0.4,1-1c0-0.5-0.4-1-1-1H9.8
	C7.1,0.5,5,2.6,5,5.2v1C5,6.3,5,6.5,5,6.7C5,6.8,5,6.9,5,7v36.5c0,0.1,0,0.2,0.1,0.3c0,0,0,0,0,0c0,0.1,0.4,1,1.5,2
	c0,0,0,0.1,0.1,0.1c0.3,0.3,0.7,0.5,1,0.7c0.1,0,0.2,0.1,0.3,0.1c0,0,0,0,0,0c0.9,0.4,1.9,0.8,3.3,0.8c0.3,0,0.7,0,1-0.1H42
	c0.5,0,1-0.4,1-1v-1.5L32.3,34.3z M9.8,8.9c-0.1,0-0.3,0-0.4,0C8.9,8.8,8,8.5,7.3,7.5C7.1,7.1,6.9,6.7,6.9,6.2v-1
	c0-1.5,1.3-2.8,2.9-2.8h27.1c-0.4,0.8-0.7,2-0.5,3.3c0.1,1.2,0.6,2.2,1.5,3.2H9.8z"/>
<path fill="#06728D" d="M39.7,38.7L27.9,26.9l0.4-0.5c1.6-2,2.4-4.4,2.4-7c0-3-1.2-5.9-3.3-8c-2.1-2.1-5-3.3-8-3.3
	c-3,0-5.9,1.2-8,3.3c-2.1,2.1-3.3,5-3.3,8c0,3,1.2,5.9,3.3,8c2.1,2.1,5,3.3,8,3.3c2.5,0,5-0.8,7-2.4l0.5-0.4l11.8,11.8
	c0.1,0.1,0.3,0.2,0.5,0.2c0.2,0,0.4-0.1,0.5-0.2C40,39.4,40,39,39.7,38.7z M19.4,23.2c-2.4,0-4.3-1.9-4.3-4.3c0-2.4,1.9-4.3,4.3-4.3
	c2.4,0,4.3,1.9,4.3,4.3C23.7,21.2,21.8,23.2,19.4,23.2z"/>
</svg>
