<?xml version="1.0" encoding="utf-8"?>
<!-- Generator: Adobe Illustrator 18.0.0, SVG Export Plug-In . SVG Version: 6.00 Build 0)  -->
<!DOCTYPE svg PUBLIC "-//W3C//DTD SVG 1.1//EN" "http://www.w3.org/Graphics/SVG/1.1/DTD/svg11.dtd">
<svg version="1.1" id="Layer_1" xmlns="http://www.w3.org/2000/svg" xmlns:xlink="http://www.w3.org/1999/xlink" x="0px" y="0px"
	 viewBox="0 0 48 48" enable-background="new 0 0 48 48" xml:space="preserve">
<g>
	<path fill="#F04B36" d="M34.5,10.2h-1.2c-1.3-1-2-2-2.2-3.2c-0.2-1.2,0.4-2.3,0.7-2.8h1.2c0.5,0,0.9-0.4,0.9-0.9s-0.4-0.9-0.9-0.9
		h-28c-2.4,0-4.4,1.9-4.4,4.3v0.9c0,0.2,0,0.3,0,0.5c0,0.1,0,0.2,0,0.3v33.4c0,0.1,0,0.2,0.1,0.3c0,0,0,0,0,0c0,0.1,0.4,1,1.3,1.8
		c0,0,0,0.1,0.1,0.1c0.3,0.3,0.6,0.5,0.9,0.7c0.1,0,0.2,0.1,0.2,0.1c0,0,0,0,0,0c0.8,0.4,1.8,0.7,3,0.7c0.3,0,0.6,0,0.9-0.1h27.4
		c0.5,0,0.9-0.4,0.9-0.9V11.1C35.3,10.6,34.9,10.2,34.5,10.2z M4.9,10.2c-0.1,0-0.3,0-0.4,0C4,10.1,3.2,9.8,2.6,8.9
		C2.4,8.5,2.3,8.1,2.3,7.7V6.8c0-1.4,1.2-2.5,2.6-2.5h24.8c-0.3,0.8-0.6,1.8-0.5,3c0.1,1.1,0.6,2.1,1.4,3H4.9z M30.7,42.2
		c-0.1,0.1-0.2,0.1-0.4,0.1c-0.2,0-0.4-0.1-0.6-0.2l-8.5-7.3h-7c-0.5,0-0.9-0.4-0.9-0.9V22.1c0-0.5,0.4-0.9,0.9-0.9h7l8.4-7.3
		c0.3-0.2,0.6-0.3,1-0.1c0.3,0.1,0.5,0.5,0.5,0.8l0,26.9C31.2,41.8,31,42.1,30.7,42.2z"/>
	<path fill="#CFD0D1" d="M42.1,39.8c-0.2,0-0.5-0.1-0.6-0.3c-0.3-0.3-0.3-0.9,0-1.3c5.7-5.7,5.7-14.9,0-20.5c-0.3-0.3-0.3-0.9,0-1.3
		c0.3-0.3,0.9-0.3,1.3,0c6.3,6.3,6.3,16.7,0,23C42.6,39.7,42.3,39.8,42.1,39.8z"/>
	<path fill="#CFD0D1" d="M38.1,35.7c-0.2,0-0.5-0.1-0.6-0.3c-0.3-0.3-0.3-0.9,0-1.3c1.7-1.7,2.6-3.9,2.6-6.2s-0.9-4.5-2.6-6.2
		c-0.3-0.3-0.3-0.9,0-1.3c0.3-0.3,0.9-0.3,1.3,0c2,2,3.1,4.6,3.1,7.5s-1.1,5.5-3.1,7.5C38.5,35.6,38.3,35.7,38.1,35.7z"/>
</g>
</svg>
