<?xml version="1.0" encoding="utf-8"?>
<!-- Generator: Adobe Illustrator 18.0.0, SVG Export Plug-In . SVG Version: 6.00 Build 0)  -->
<!DOCTYPE svg PUBLIC "-//W3C//DTD SVG 1.1//EN" "http://www.w3.org/Graphics/SVG/1.1/DTD/svg11.dtd">
<svg version="1.1" id="Layer_1" xmlns="http://www.w3.org/2000/svg" xmlns:xlink="http://www.w3.org/1999/xlink" x="0px" y="0px"
	 viewBox="0 0 48 48" enable-background="new 0 0 48 48" xml:space="preserve">
<g>
	<path fill="#4DA0D8" d="M14.2,43.4c0-8.8,5.7-14.5,7.8-16.2c-0.8-1.4-1.2-2.9-1.2-4.5c0-5.1,4.2-9.3,9.3-9.3c5.1,0,9.3,4.2,9.3,9.3
		c0,1.6-0.4,3.1-1.2,4.5c0.8,0.7,2.1,1.9,3.4,3.6V9.9c0-0.5-0.4-1-1-1h-1.3c-1.4-1.1-2.2-2.2-2.4-3.5c-0.2-1.3,0.4-2.5,0.8-3h1.3
		c0.5,0,1-0.4,1-1c0-0.5-0.4-1-1-1H8.3c-2.6,0-4.8,2.1-4.8,4.7v1c0,0.2,0,0.3,0.1,0.5c0,0.1-0.1,0.2-0.1,0.3v36.5
		c0,0.1,0,0.2,0.1,0.3c0,0,0,0,0,0c0,0.1,0.4,1,1.5,2c0,0,0,0.1,0.1,0.1c0.3,0.3,0.7,0.5,1,0.7c0.1,0,0.2,0.1,0.3,0.1c0,0,0,0,0,0
		c0.9,0.4,1.9,0.8,3.3,0.8c0.3,0,0.7,0,1-0.1h29.9c0.5,0,1-0.4,1-1v-1.4H14.2V43.4z M8.3,8.9c-0.1,0-0.3,0-0.4,0
		C7.4,8.8,6.5,8.5,5.9,7.5C5.6,7.1,5.5,6.7,5.5,6.2v-1c0-1.5,1.3-2.8,2.9-2.8h27.1c-0.4,0.8-0.7,2-0.5,3.3c0.1,1.2,0.6,2.2,1.5,3.2
		H8.3z"/>
	<path fill="#06728D" d="M36.8,27.5c0.8-1.3,1.3-2.8,1.3-4.4c0-4.4-3.6-8.1-8.1-8.1c-4.4,0-8.1,3.6-8.1,8.1c0,1.6,0.5,3.1,1.3,4.4
		c-1.2,1-7.6,6.3-7.6,15.2v0.9h14.4h14.4v-0.9C44.5,33.8,38.1,28.4,36.8,27.5z"/>
</g>
</svg>
