<?xml version="1.0" encoding="utf-8"?>
<!-- Generator: Adobe Illustrator 18.0.0, SVG Export Plug-In . SVG Version: 6.00 Build 0)  -->
<!DOCTYPE svg PUBLIC "-//W3C//DTD SVG 1.1//EN" "http://www.w3.org/Graphics/SVG/1.1/DTD/svg11.dtd">
<svg version="1.1" id="Layer_1" xmlns="http://www.w3.org/2000/svg" xmlns:xlink="http://www.w3.org/1999/xlink" x="0px" y="0px"
	 viewBox="0 0 48 48" enable-background="new 0 0 48 48" xml:space="preserve">
<g>
	<path fill="#F7A93B" d="M40.3,31c-0.2,0.2-0.5,0.8-0.5,1.1v2.8c0,1.2-0.7,2.3-1.6,2.9c1,0.1,1.7,0.9,1.7,1.9c0,0.7-0.4,1.3-1,1.7
		c0.6,0.3,1,1,1,1.7c0,1.1-0.9,1.9-1.9,1.9H30c-1.1,0-1.9-0.9-1.9-1.9c0-0.7,0.4-1.3,1-1.7c-0.6-0.3-1-1-1-1.7
		c0-0.9,0.7-1.7,1.5-1.9c-1-0.6-1.7-1.7-1.7-3v-2.8c0-0.3-0.3-0.9-0.5-1.1c-0.5-0.4-4.5-4.2-4.5-8.5c0-6.1,4.9-11,11-11
		c3.3,0,6.3,1.5,8.3,3.8V9.9c0-0.5-0.4-1-1-1h-1.3c-1.4-1.1-2.2-2.2-2.4-3.5c-0.2-1.3,0.4-2.5,0.8-3h1.3c0.5,0,1-0.4,1-1
		c0-0.5-0.4-1-1-1H8.9c-2.6,0-4.8,2.1-4.8,4.7v1c0,0.2,0,0.3,0.1,0.5c0,0.1-0.1,0.2-0.1,0.3v36.5c0,0.1,0,0.2,0.1,0.3c0,0,0,0,0,0
		c0,0.1,0.4,1,1.5,2c0,0,0,0.1,0.1,0.1c0.3,0.3,0.7,0.5,1,0.7c0.1,0,0.2,0.1,0.3,0.1c0,0,0,0,0,0c0.9,0.4,1.9,0.8,3.3,0.8
		c0.3,0,0.7,0,1-0.1h29.9c0.5,0,1-0.4,1-1V29C41.3,30.1,40.5,30.8,40.3,31z M8.9,8.9c-0.1,0-0.3,0-0.4,0C8,8.8,7.1,8.5,6.5,7.5
		C6.2,7.1,6.1,6.7,6.1,6.2v-1c0-1.5,1.3-2.8,2.9-2.8H36c-0.4,0.8-0.7,2-0.5,3.3c0.1,1.2,0.6,2.2,1.5,3.2H8.9z"/>
	<path fill="#0DB89A" d="M33.8,12.5c-5.5,0-10,4.5-10,10c0,3.9,4.1,7.6,4.2,7.8c0.4,0.4,0.8,1.3,0.8,1.9v2.8c0,1.4,1.1,2.5,2.5,2.5
		h4.9c1.4,0,2.5-1.1,2.5-2.5v-2.8c0-0.6,0.4-1.5,0.8-1.9c0.2-0.2,4.2-3.9,4.2-7.8C43.9,17,39.4,12.5,33.8,12.5z"/>
	<path fill="#0DB89A" d="M37.9,40.7H30c-0.5,0-1-0.4-1-1c0-0.5,0.4-1,1-1h7.9c0.5,0,1,0.4,1,1C38.9,40.3,38.4,40.7,37.9,40.7z"/>
	<path fill="#0DB89A" d="M37.9,44.1H30c-0.5,0-1-0.4-1-1c0-0.5,0.4-1,1-1h7.9c0.5,0,1,0.4,1,1C38.9,43.6,38.4,44.1,37.9,44.1z"/>
</g>
</svg>
