<?xml version="1.0" encoding="utf-8"?>
<!-- Generator: Adobe Illustrator 18.0.0, SVG Export Plug-In . SVG Version: 6.00 Build 0)  -->
<!DOCTYPE svg PUBLIC "-//W3C//DTD SVG 1.1//EN" "http://www.w3.org/Graphics/SVG/1.1/DTD/svg11.dtd">
<svg version="1.1" id="Layer_1" xmlns="http://www.w3.org/2000/svg" xmlns:xlink="http://www.w3.org/1999/xlink" x="0px" y="0px"
	 viewBox="0 0 48 48" enable-background="new 0 0 48 48" xml:space="preserve">
<g>
	<path fill="#E77528" d="M22.1,45c-1.1,0-1.9-0.9-1.9-1.9c0-0.5,0-0.7,2-4.4h-0.1c-3,0-5.4-2.5-5.4-5.5V19.4c0-3,2.4-5.5,5.4-5.5
		h16.6v-4c0-0.5-0.4-1-1-1h-1.3C35,7.9,34.2,6.7,34,5.5c-0.2-1.3,0.4-2.5,0.8-3h1.3c0.5,0,1-0.4,1-1c0-0.5-0.4-1-1-1H5.5
		c-2.6,0-4.8,2.1-4.8,4.7v1c0,0.2,0,0.3,0.1,0.5c0,0.1-0.1,0.2-0.1,0.3v36.5c0,0.1,0,0.2,0.1,0.3c0,0,0,0,0,0c0,0.1,0.4,1,1.5,2
		c0,0,0,0.1,0.1,0.1c0.3,0.3,0.7,0.5,1,0.7c0.1,0,0.2,0.1,0.3,0.1c0,0,0,0,0,0c0.9,0.4,1.9,0.8,3.3,0.8c0.3,0,0.7,0,1-0.1h29.9
		c0.5,0,1-0.4,1-1v-7.9h-7.6C23,45,22.9,45,22.1,45z M5.5,8.9c-0.1,0-0.3,0-0.4,0C4.6,8.8,3.7,8.5,3,7.5C2.8,7.1,2.6,6.7,2.6,6.2v-1
		c0-1.5,1.3-2.8,2.9-2.8h27.1c-0.4,0.8-0.7,2-0.5,3.3c0.1,1.2,0.6,2.2,1.5,3.2H5.5z"/>
	<path fill="#CFD0D1" d="M42.8,14.9H22.1c-2.5,0-4.5,2-4.5,4.5v13.7c0,2.5,2,4.5,4.5,4.5h1.7c-2.7,4.9-2.7,5.1-2.7,5.4
		c0,0.5,0.4,1,1,1c0.4,0,0.6,0,8.7-6.3h12c2.5,0,4.5-2,4.5-4.5V19.4C47.3,16.9,45.3,14.9,42.8,14.9z M40.9,32.6H24.1
		c-0.5,0-1-0.4-1-1c0-0.5,0.4-1,1-1h16.9c0.5,0,1,0.4,1,1C41.9,32.1,41.4,32.6,40.9,32.6z M40.9,27.2H24.1c-0.5,0-1-0.4-1-1
		c0-0.5,0.4-1,1-1h16.9c0.5,0,1,0.4,1,1C41.9,26.7,41.4,27.2,40.9,27.2z M40.9,21.7H24.1c-0.5,0-1-0.4-1-1s0.4-1,1-1h16.9
		c0.5,0,1,0.4,1,1S41.4,21.7,40.9,21.7z"/>
</g>
</svg>
