<?xml version="1.0" encoding="utf-8"?>
<!-- Generator: Adobe Illustrator 18.0.0, SVG Export Plug-In . SVG Version: 6.00 Build 0)  -->
<!DOCTYPE svg PUBLIC "-//W3C//DTD SVG 1.1//EN" "http://www.w3.org/Graphics/SVG/1.1/DTD/svg11.dtd">
<svg version="1.1" id="Layer_1" xmlns="http://www.w3.org/2000/svg" xmlns:xlink="http://www.w3.org/1999/xlink" x="0px" y="0px"
	 viewBox="0 0 48 48" enable-background="new 0 0 48 48" xml:space="preserve">
<g>
	<path fill="#F04B36" d="M1.9,47.5c-0.4,0-0.7-0.1-1-0.4c-0.6-0.6-0.6-1.5,0-2l15.6-15.6c0.6-0.6,1.5-0.6,2,0c0.6,0.6,0.6,1.5,0,2
		L3,47.1C2.7,47.4,2.3,47.5,1.9,47.5z"/>
	<path fill="#0DB89A" d="M47.2,14.9L33.1,0.8c-0.4-0.4-1-0.4-1.4,0l-4.5,4.5C27.1,5.4,27,5.7,27,5.9c0,0.3,0.1,0.5,0.3,0.7l1.2,1.2
		l-6.6,6.6c-1.4-0.4-2.9-0.6-4.3-0.6c-4.5,0-8.6,1.7-11.8,4.9c-0.4,0.4-0.4,1,0,1.4L28,42.3c0.2,0.2,0.4,0.3,0.7,0.3
		c0.2,0,0.5-0.1,0.7-0.3c4.2-4.2,5.9-10.4,4.3-16.1l6.6-6.6l1.2,1.2c0.4,0.4,1,0.4,1.4,0l4.5-4.5c0.2-0.2,0.3-0.4,0.3-0.7
		C47.5,15.3,47.4,15.1,47.2,14.9z"/>
</g>
</svg>
