<?xml version="1.0" encoding="utf-8"?>
<!-- Generator: Adobe Illustrator 18.0.0, SVG Export Plug-In . SVG Version: 6.00 Build 0)  -->
<!DOCTYPE svg PUBLIC "-//W3C//DTD SVG 1.1//EN" "http://www.w3.org/Graphics/SVG/1.1/DTD/svg11.dtd">
<svg version="1.1" id="Layer_1" xmlns="http://www.w3.org/2000/svg" xmlns:xlink="http://www.w3.org/1999/xlink" x="0px" y="0px"
	 viewBox="0 0 48 48" enable-background="new 0 0 48 48" xml:space="preserve">
<g>
	<path fill="#E77528" d="M28.9,1v29.4c0,3.9,3.3,7.1,7.2,7.1h1.1c4,0,7.2-3.2,7.2-7.1V1H28.9z M34.5,32.4c-0.8,0-1.4-0.6-1.4-1.4
		c0-0.7,0.6-1.4,1.4-1.4s1.4,0.6,1.4,1.4C35.9,31.8,35.2,32.4,34.5,32.4z M34.5,26.2c-0.8,0-1.4-0.6-1.4-1.4c0-0.7,0.6-1.4,1.4-1.4
		s1.4,0.6,1.4,1.4C35.9,25.6,35.2,26.2,34.5,26.2z M37.2,20.1c0-0.7,0.6-1.4,1.4-1.4c0.8,0,1.4,0.6,1.4,1.4c0,0.7-0.6,1.4-1.4,1.4
		C37.8,21.5,37.2,20.9,37.2,20.1z M39.5,28.4c-0.8,0-1.4-0.6-1.4-1.4c0-0.7,0.6-1.4,1.4-1.4c0.8,0,1.4,0.6,1.4,1.4
		C40.9,27.8,40.2,28.4,39.5,28.4z"/>
	<path fill="#F04B36" d="M3.6,1v29.4c0,3.9,3.3,7.1,7.2,7.1h1.1c4,0,7.2-3.2,7.2-7.1V1H3.6z M7.6,20.1c0-0.7,0.6-1.4,1.4-1.4
		c0.8,0,1.4,0.6,1.4,1.4c0,0.7-0.6,1.4-1.4,1.4C8.2,21.5,7.6,20.9,7.6,20.1z M9.9,30.2c-0.8,0-1.4-0.6-1.4-1.4
		c0-0.7,0.6-1.4,1.4-1.4c0.8,0,1.4,0.6,1.4,1.4C11.3,29.6,10.6,30.2,9.9,30.2z M12.9,33.3c-0.8,0-1.4-0.6-1.4-1.4
		c0-0.7,0.6-1.4,1.4-1.4c0.8,0,1.4,0.6,1.4,1.4C14.3,32.7,13.7,33.3,12.9,33.3z M14.3,25.4c-0.8,0-1.4-0.6-1.4-1.4
		c0-0.7,0.6-1.4,1.4-1.4c0.8,0,1.4,0.6,1.4,1.4C15.6,24.7,15,25.4,14.3,25.4z"/>
	<path fill="#06728D" d="M24,47.5c-0.8,0-1.4-0.6-1.4-1.4V1.9c0-0.8,0.6-1.4,1.4-1.4c0.8,0,1.4,0.6,1.4,1.4v44.2
		C25.4,46.9,24.8,47.5,24,47.5z"/>
	<path fill="#06728D" d="M7.1,16H1.9c-0.8,0-1.4-0.6-1.4-1.4c0-0.8,0.6-1.4,1.4-1.4h5.2c0.8,0,1.4,0.6,1.4,1.4
		C8.5,15.4,7.9,16,7.1,16z"/>
	<path fill="#06728D" d="M46.1,16h-5.2c-0.8,0-1.4-0.6-1.4-1.4c0-0.8,0.6-1.4,1.4-1.4h5.2c0.8,0,1.4,0.6,1.4,1.4
		C47.5,15.4,46.9,16,46.1,16z"/>
	<path fill="#06728D" d="M32.2,16H15.8c-0.8,0-1.4-0.6-1.4-1.4c0-0.8,0.6-1.4,1.4-1.4h16.4c0.8,0,1.4,0.6,1.4,1.4
		C33.6,15.4,33,16,32.2,16z"/>
	<path fill="#06728D" d="M37.2,47.5H10.8c-0.8,0-1.4-0.6-1.4-1.4c0-0.8,0.6-1.4,1.4-1.4h26.4c0.8,0,1.4,0.6,1.4,1.4
		C38.6,46.9,38,47.5,37.2,47.5z"/>
</g>
</svg>
