<?xml version="1.0" encoding="utf-8"?>
<!-- Generator: Adobe Illustrator 18.0.0, SVG Export Plug-In . SVG Version: 6.00 Build 0)  -->
<!DOCTYPE svg PUBLIC "-//W3C//DTD SVG 1.1//EN" "http://www.w3.org/Graphics/SVG/1.1/DTD/svg11.dtd">
<svg version="1.1" id="Layer_1" xmlns="http://www.w3.org/2000/svg" xmlns:xlink="http://www.w3.org/1999/xlink" x="0px" y="0px"
	 viewBox="0 0 48 48" enable-background="new 0 0 48 48" xml:space="preserve">
<g>
	<path fill="#F04B36" d="M24,45.6c-0.5,0-1-0.4-1-1V36c0-0.5,0.4-1,1-1c0.5,0,1,0.4,1,1v8.6C25,45.1,24.5,45.6,24,45.6z"/>
	<path fill="#F04B36" d="M12.5,47.5c-0.3,0-0.5-0.1-0.7-0.3c-0.4-0.4-0.4-1,0-1.4l10.9-10.6c0.4-0.4,1-0.4,1.4,0
		c0.4,0.4,0.4,1,0,1.4L13.1,47.2C13,47.4,12.7,47.5,12.5,47.5z"/>
	<path fill="#F04B36" d="M35.5,47.5c-0.2,0-0.5-0.1-0.7-0.3L24,36.7c-0.4-0.4-0.4-1,0-1.4c0.4-0.4,1-0.4,1.4,0l10.9,10.6
		c0.4,0.4,0.4,1,0,1.4C36,47.4,35.8,47.5,35.5,47.5z"/>
	<path fill="#4DA0D8" d="M33.3,28.8h-6.2v-3.6h1.4c4.4,0,8-3.6,8-8V8.5c0-4.4-3.6-8-8-8h-9.1c-4.4,0-8,3.6-8,8v8.7c0,4.4,3.6,8,8,8
		h1.4v3.6h-6.2c-2.8,0-5.2,1.8-5.2,4.1c0,2.3,2.3,4.1,5.2,4.1h18.7c2.8,0,5.2-1.8,5.2-4.1C38.5,30.6,36.2,28.8,33.3,28.8z"/>
</g>
</svg>
