<?xml version="1.0" encoding="utf-8"?>
<!-- Generator: Adobe Illustrator 18.0.0, SVG Export Plug-In . SVG Version: 6.00 Build 0)  -->
<!DOCTYPE svg PUBLIC "-//W3C//DTD SVG 1.1//EN" "http://www.w3.org/Graphics/SVG/1.1/DTD/svg11.dtd">
<svg version="1.1" id="Layer_1" xmlns="http://www.w3.org/2000/svg" xmlns:xlink="http://www.w3.org/1999/xlink" x="0px" y="0px"
	 viewBox="0 0 48 48" enable-background="new 0 0 48 48" xml:space="preserve">
<g>
	<path fill="#D48D2A" d="M23.2,38.9c-6.1,0-12.7,1.4-12.7,4.3c0,3,6.6,4.3,12.7,4.3c6.1,0,12.7-1.4,12.7-4.3
		C35.9,40.2,29.3,38.9,23.2,38.9z"/>
	<path fill="#D14D37" d="M20.6,44.6c-0.3,0-0.7-0.1-1-0.4C19,43.7,2.7,29.5,5.5,16.9C6.9,10.6,12.7,6,22.8,3.2
		c0.8-0.2,1.6,0.2,1.8,1c0.2,0.8-0.2,1.6-1,1.8c-8.9,2.5-14,6.4-15.2,11.6C6,28.4,21.4,41.9,21.6,42.1c0.6,0.5,0.7,1.4,0.1,2.1
		C21.4,44.5,21,44.6,20.6,44.6z"/>
	<path fill="#0DB89A" d="M38.6,0.5H26.4c-2.3,0-4.2,1.9-4.2,4.2v1.9c0,2.3,1.9,4.2,4.2,4.2h12.2c2.3,0,4.2-1.9,4.2-4.2V4.7
		C42.8,2.4,40.9,0.5,38.6,0.5z"/>
	<path fill="#9B4730" d="M32.5,19.9c-0.5,0-1-0.4-1-1v-5.6c0-0.5,0.4-1,1-1c0.5,0,1,0.4,1,1v5.6C33.5,19.4,33,19.9,32.5,19.9z"/>
	<path fill="#010101" d="M26,17.1c-0.2,0-0.4-0.1-0.6-0.2c-0.4-0.3-0.5-0.9-0.2-1.3l2.3-3.2c0.3-0.4,0.9-0.5,1.3-0.2
		c0.4,0.3,0.5,0.9,0.2,1.3l-2.3,3.2C26.6,16.9,26.3,17.1,26,17.1z"/>
	<path fill="#C9862A" d="M26,17.1c-0.2,0-0.4-0.1-0.6-0.2c-0.4-0.3-0.5-0.9-0.2-1.3l2.3-3.2c0.3-0.4,0.9-0.5,1.3-0.2
		c0.4,0.3,0.5,0.9,0.2,1.3l-2.3,3.2C26.6,16.9,26.3,17.1,26,17.1z"/>
	<path fill="#764C3F" d="M38.9,17.1c-0.3,0-0.6-0.1-0.8-0.4l-2.3-3.2c-0.3-0.4-0.2-1,0.2-1.3c0.4-0.3,1-0.2,1.3,0.2l2.3,3.2
		c0.3,0.4,0.2,1-0.2,1.3C39.3,17,39.1,17.1,38.9,17.1z"/>
</g>
</svg>
