<?xml version="1.0" encoding="utf-8"?>
<!-- Generator: Adobe Illustrator 18.0.0, SVG Export Plug-In . SVG Version: 6.00 Build 0)  -->
<!DOCTYPE svg PUBLIC "-//W3C//DTD SVG 1.1//EN" "http://www.w3.org/Graphics/SVG/1.1/DTD/svg11.dtd">
<svg version="1.1" id="Layer_1" xmlns="http://www.w3.org/2000/svg" xmlns:xlink="http://www.w3.org/1999/xlink" x="0px" y="0px"
	 viewBox="0 0 48 48" enable-background="new 0 0 48 48" xml:space="preserve">
<g>
	<polygon fill="#394751" points="15.7,6.5 18.9,20.9 22.6,20.1 19.3,5.8 	"/>
	<polygon fill="#659C41" points="9.6,6.5 12.9,20.9 16.5,20.1 13.3,5.8 	"/>
	<polygon fill="#C57829" points="3.6,6.5 6.8,20.9 10.5,20.1 7.3,5.8 	"/>
	<path fill="#C9C7C7" d="M46.5,0.5H1.5c-0.5,0-1,0.4-1,0.9v21.1c0,0.5,0.4,0.9,1,0.9h45.1c0.5,0,1-0.4,1-0.9V1.4
		C47.5,0.9,47.1,0.5,46.5,0.5z M36,21.7l-5.5,1.2c-0.1,0-0.1,0-0.2,0c-0.2,0-0.4,0-0.5-0.1c-0.2-0.1-0.4-0.3-0.4-0.6l-0.1-0.3
		l-4.8,1c-0.1,0-0.1,0-0.2,0c-0.2,0-0.4,0-0.5-0.1c-0.2-0.1-0.4-0.3-0.4-0.6l-0.1-0.3l-4.8,1c-0.1,0-0.1,0-0.2,0
		c-0.2,0-0.4,0-0.5-0.1c-0.2-0.1-0.4-0.3-0.4-0.6l-0.1-0.3l-4.8,1c-0.1,0-0.1,0-0.2,0c-0.2,0-0.4,0-0.5-0.1
		c-0.2-0.1-0.4-0.3-0.4-0.6l-0.1-0.3l-4.8,1c-0.1,0-0.1,0-0.2,0c-0.2,0-0.4,0-0.5-0.1c-0.2-0.1-0.4-0.3-0.4-0.6L1.5,6
		c-0.1-0.5,0.2-1,0.7-1.1l5.5-1.2c0.3-0.1,0.5,0,0.7,0.1C8.7,4,8.9,4.3,8.9,4.5L9,4.8l4.8-1c0.3-0.1,0.5,0,0.7,0.1
		C14.8,4,14.9,4.3,15,4.5L15,4.8l4.8-1c0.3-0.1,0.5,0,0.7,0.1C20.8,4,21,4.3,21,4.5l0.1,0.3l4.8-1c0.3-0.1,0.5,0,0.7,0.1
		C26.8,4,27,4.3,27,4.5l0.4,1.9l4.8-1c0.3-0.1,0.5,0,0.7,0.1c0.2,0.1,0.4,0.3,0.4,0.6l3.3,14.5C36.8,21.1,36.5,21.6,36,21.7z"/>
	<polygon fill="#9979AA" points="28.1,8.2 31,20.9 34.6,20.1 31.7,7.4 	"/>
	<polygon fill="#D14D37" points="21.7,6.5 24.9,20.9 28.6,20.1 25.3,5.8 	"/>
	<path fill="#9E926A" d="M46.5,24.5H1.5c-0.5,0-1,0.4-1,0.9v21.1c0,0.5,0.4,0.9,1,0.9h45.1c0.5,0,1-0.4,1-0.9V25.4
		C47.5,24.9,47.1,24.5,46.5,24.5z M47.3,30.1l-3.6,16.1c-0.1,0.2-0.2,0.4-0.4,0.6c-0.2,0.1-0.3,0.1-0.5,0.1c-0.1,0-0.1,0-0.2,0
		l-4.8-1l-0.1,0.3c-0.1,0.2-0.2,0.4-0.4,0.6c-0.2,0.1-0.3,0.1-0.5,0.1c-0.1,0-0.1,0-0.2,0l-4.8-1l-0.1,0.3c-0.1,0.2-0.2,0.4-0.4,0.6
		C31,46.9,30.9,47,30.7,47c-0.1,0-0.1,0-0.2,0l-4.8-1l-0.1,0.3c-0.1,0.2-0.2,0.4-0.4,0.6C25,46.9,24.8,47,24.6,47
		c-0.1,0-0.1,0-0.2,0l-4.8-1l-0.1,0.3c-0.1,0.2-0.2,0.4-0.4,0.6C19,46.9,18.8,47,18.6,47c-0.1,0-0.1,0-0.2,0l-5.5-1.2
		c-0.5-0.1-0.8-0.6-0.7-1.1l3.3-14.5c0.1-0.2,0.2-0.4,0.4-0.6c0.2-0.1,0.5-0.2,0.7-0.1l4.8,1l0.4-1.9c0.1-0.2,0.2-0.4,0.4-0.6
		c0.2-0.1,0.5-0.2,0.7-0.1l4.8,1l0.1-0.3c0.1-0.2,0.2-0.4,0.4-0.6c0.2-0.1,0.5-0.2,0.7-0.1l4.8,1l0.1-0.3c0.1-0.2,0.2-0.4,0.4-0.6
		c0.2-0.1,0.5-0.2,0.7-0.1l4.8,1l0.1-0.3c0.1-0.2,0.2-0.4,0.4-0.6c0.2-0.1,0.5-0.2,0.7-0.1l5.5,1.2C47.1,29.2,47.4,29.6,47.3,30.1z"
		/>
	<polygon fill="#D14D37" points="29.5,29.9 26.3,44.2 29.9,45 33.2,30.6 	"/>
	<polygon fill="#4DA0D8" points="17.1,31.5 14.2,44.2 17.9,45 20.7,32.3 	"/>
	<polygon fill="#D48D2A" points="23.5,29.9 20.3,44.2 23.9,45 27.1,30.6 	"/>
	<polygon fill="#831619" points="38.4,44.2 42,45 45.2,30.6 41.6,29.9 	"/>
	<polygon fill="#469B54" points="35.6,29.9 32.3,44.2 36,45 39.2,30.6 	"/>
</g>
</svg>
