<?xml version="1.0" encoding="utf-8"?>
<!-- Generator: Adobe Illustrator 18.0.0, SVG Export Plug-In . SVG Version: 6.00 Build 0)  -->
<!DOCTYPE svg PUBLIC "-//W3C//DTD SVG 1.1//EN" "http://www.w3.org/Graphics/SVG/1.1/DTD/svg11.dtd">
<svg version="1.1" id="Layer_1" xmlns="http://www.w3.org/2000/svg" xmlns:xlink="http://www.w3.org/1999/xlink" x="0px" y="0px"
	 viewBox="0 0 48 48" enable-background="new 0 0 48 48" xml:space="preserve">
<g>
	<path fill="#831619" d="M30.6,20.9c-0.6,0-1.1-0.6-1.1-1.4v-3.1c0-0.8,0.5-1.4,1.1-1.4c0.6,0,1.1,0.6,1.1,1.4v3.1
		C31.8,20.2,31.3,20.9,30.6,20.9z"/>
	<path fill="#831619" d="M36.1,20.9H25.2c-0.6,0-1.1-0.4-1.1-0.9s0.5-0.9,1.1-0.9h10.9c0.6,0,1.1,0.4,1.1,0.9S36.7,20.9,36.1,20.9z"
		/>
	<path fill="#D48D2A" d="M41,47.5c-0.6,0-1.1-0.4-1.1-1V27c0-0.5,0.5-1,1.1-1c0.6,0,1.1,0.4,1.1,1v19.6C42.1,47.1,41.6,47.5,41,47.5
		z"/>
	<path fill="#D48D2A" d="M6.5,47.5c-0.6,0-1.1-0.4-1.1-0.9v-2.2c0-0.5,0.5-0.9,1.1-0.9s1.1,0.4,1.1,0.9v2.2
		C7.6,47.1,7.1,47.5,6.5,47.5z"/>
	<path fill="#D48D2A" d="M2.3,35.8c0-0.5,0.5-0.9,1.1-0.9h14.1c0.6,0,1.1,0.4,1.1,0.9c0,0.5-0.5,0.9-1.1,0.9H3.4
		C2.8,36.7,2.3,36.3,2.3,35.8v7.8c0,0.5,0.5,0.9,1.1,0.9h14.8c0.6,0,1.1-0.4,1.1-0.9V29h-17V35.8z M14.3,40.7h-2.8
		c-0.6,0-1.1-0.4-1.1-0.9c0-0.5,0.5-0.9,1.1-0.9h2.8c0.6,0,1.1,0.4,1.1,0.9C15.4,40.3,14.9,40.7,14.3,40.7z M11.5,30.7h2.8
		c0.6,0,1.1,0.4,1.1,0.9c0,0.5-0.5,0.9-1.1,0.9h-2.8c-0.6,0-1.1-0.4-1.1-0.9C10.4,31.1,10.9,30.7,11.5,30.7z"/>
	<path fill="#D48D2A" d="M46.4,21.9H1.6c-0.6,0-1.1,0.4-1.1,0.9v4.1c0,0.5,0.5,0.9,1.1,0.9h0.7h17h27.1c0.6,0,1.1-0.4,1.1-0.9v-4.1
		C47.5,22.3,47,21.9,46.4,21.9z"/>
	<rect x="20.9" y="4.2" fill="#394751" width="19.5" height="12.9"/>
	<path fill="#9E926A" d="M16.7,0.5H6.5c-0.6,0-1.1,0.4-1.1,0.9V20c0,0.5,0.5,0.9,1.1,0.9h10.2c0.6,0,1.1-0.4,1.1-0.9V1.4
		C17.8,0.9,17.3,0.5,16.7,0.5z M10,3.4h3.2c0.6,0,1.1,0.4,1.1,0.9c0,0.5-0.5,0.9-1.1,0.9H10c-0.6,0-1.1-0.4-1.1-0.9
		C8.9,3.8,9.4,3.4,10,3.4z M11.6,15.9c-1.8,0-3.3-1.2-3.3-2.8c0-1.5,1.5-2.8,3.3-2.8c1.8,0,3.3,1.2,3.3,2.8
		C14.9,14.6,13.4,15.9,11.6,15.9z"/>
</g>
</svg>
