<?xml version="1.0" encoding="utf-8"?>
<!-- Generator: Adobe Illustrator 18.0.0, SVG Export Plug-In . SVG Version: 6.00 Build 0)  -->
<!DOCTYPE svg PUBLIC "-//W3C//DTD SVG 1.1//EN" "http://www.w3.org/Graphics/SVG/1.1/DTD/svg11.dtd">
<svg version="1.1" id="Layer_1" xmlns="http://www.w3.org/2000/svg" xmlns:xlink="http://www.w3.org/1999/xlink" x="0px" y="0px"
	 viewBox="0 0 48 48" enable-background="new 0 0 48 48" xml:space="preserve">
<g>
	<path fill="#06728D" d="M36.4,45.4c-6.6,0-12-5.4-12-11.9c0-6.6,5.4-11.9,12-11.9c0.8,0,1.5,0.1,2.2,0.2V9.9c0-0.5-0.4-1-1-1h-1.3
		c-1.4-1.1-2.2-2.2-2.4-3.5c-0.2-1.3,0.4-2.5,0.8-3H36c0.5,0,1-0.4,1-1c0-0.5-0.4-1-1-1H5.4c-2.6,0-4.8,2.1-4.8,4.7v1
		c0,0.2,0,0.3,0.1,0.5c0,0.1-0.1,0.2-0.1,0.3v36.5c0,0.1,0,0.2,0.1,0.3c0,0,0,0,0,0c0,0.1,0.4,1,1.5,2c0,0,0,0.1,0.1,0.1
		c0.3,0.3,0.7,0.5,1,0.7c0.1,0,0.2,0.1,0.3,0.1c0,0,0,0,0,0c0.9,0.4,1.9,0.8,3.3,0.8c0.3,0,0.7,0,1-0.1h29.9c0.5,0,1-0.4,1-1v-1.3
		C37.9,45.3,37.1,45.4,36.4,45.4z M5.4,8.9c-0.1,0-0.3,0-0.4,0C4.4,8.8,3.5,8.5,2.9,7.5C2.7,7.1,2.5,6.7,2.5,6.2v-1
		c0-1.5,1.3-2.8,2.9-2.8h27.1c-0.4,0.8-0.7,2-0.5,3.3c0.1,1.2,0.6,2.2,1.5,3.2H5.4z"/>
	<path fill="#0DB89A" d="M36.4,22.5c-6.1,0-11,4.9-11,11c0,6,4.9,11,11,11c6.1,0,11-4.9,11-11C47.4,27.4,42.5,22.5,36.4,22.5z
		 M40.1,37.1c-0.2,0.2-0.4,0.3-0.7,0.3c-0.2,0-0.5-0.1-0.7-0.3l-2.3-2.3l-2.3,2.3c-0.2,0.2-0.4,0.3-0.7,0.3c-0.2,0-0.5-0.1-0.7-0.3
		c-0.4-0.4-0.4-1,0-1.4l2.3-2.3l-2.3-2.3c-0.4-0.4-0.4-1,0-1.4c0.4-0.4,1-0.4,1.4,0l2.3,2.3l2.3-2.3c0.4-0.4,1-0.4,1.4,0
		c0.4,0.4,0.4,1,0,1.4l-2.3,2.3l2.3,2.3C40.4,36.1,40.4,36.7,40.1,37.1z"/>
</g>
</svg>
