<?xml version="1.0" encoding="utf-8"?>
<!-- Generator: Adobe Illustrator 18.0.0, SVG Export Plug-In . SVG Version: 6.00 Build 0)  -->
<!DOCTYPE svg PUBLIC "-//W3C//DTD SVG 1.1//EN" "http://www.w3.org/Graphics/SVG/1.1/DTD/svg11.dtd">
<svg version="1.1" id="Layer_1" xmlns="http://www.w3.org/2000/svg" xmlns:xlink="http://www.w3.org/1999/xlink" x="0px" y="0px"
	 viewBox="0 0 48 48" enable-background="new 0 0 48 48" xml:space="preserve">
<g>
	<path fill="#06728D" d="M11.6,47.5c-0.5,0-1-0.4-1-1v-3.9c0-0.5,0.4-1,1-1c0.5,0,1,0.4,1,1v3.9C12.5,47.1,12.1,47.5,11.6,47.5z"/>
	<path fill="#06728D" d="M36.4,47.5c-0.5,0-1-0.4-1-1v-3.9c0-0.5,0.4-1,1-1c0.5,0,1,0.4,1,1v3.9C37.4,47.1,37,47.5,36.4,47.5z"/>
	<path fill="#F7A93B" d="M1.5,25.2c-0.5,0-1-0.4-1-1V13.6c0-0.5,0.4-1,1-1s1,0.4,1,1v10.6C2.4,24.7,2,25.2,1.5,25.2z"/>
	<path fill="#F7A93B" d="M46.5,25.2c-0.5,0-1-0.4-1-1V13.6c0-0.5,0.4-1,1-1c0.5,0,1,0.4,1,1v10.6C47.5,24.7,47.1,25.2,46.5,25.2z"/>
	<path fill="#06728D" d="M33.4,2.4H14.6c-0.5,0-1-0.4-1-1c0-0.5,0.4-1,1-1h18.8c0.5,0,1,0.4,1,1C34.4,2,33.9,2.4,33.4,2.4z"/>
	<path fill="#0DB89A" d="M39.9,4.8H8.1C5.8,4.8,3.9,6.7,3.9,9v30.5c0,2.3,1.9,4.2,4.2,4.2h31.8c2.3,0,4.2-1.9,4.2-4.2V9
		C44.1,6.7,42.2,4.8,39.9,4.8z M8,27.1V11.3h15v15.8H8z M12.3,38.6c-1.3,0-2.3-1-2.3-2.2c0-1.2,1-2.2,2.3-2.2c1.3,0,2.3,1,2.3,2.2
		C14.6,37.6,13.6,38.6,12.3,38.6z M19.9,37.9c0,0.5-0.4,1-1,1c-0.5,0-1-0.4-1-1v-6.2c0-0.5,0.4-1,1-1c0.5,0,1,0.4,1,1V37.9z
		 M25,37.9c0,0.5-0.4,1-1,1c-0.5,0-1-0.4-1-1v-6.2c0-0.5,0.4-1,1-1c0.5,0,1,0.4,1,1V37.9z M30,37.9c0,0.5-0.4,1-1,1
		c-0.5,0-1-0.4-1-1v-6.2c0-0.5,0.4-1,1-1c0.5,0,1,0.4,1,1V37.9z M35.7,38.6c-1.3,0-2.3-1-2.3-2.2c0-1.2,1-2.2,2.3-2.2
		c1.3,0,2.3,1,2.3,2.2C37.9,37.6,36.9,38.6,35.7,38.6z M40,27.1H25V11.3h15V27.1z"/>
</g>
</svg>
