<?xml version="1.0" encoding="utf-8"?>
<!-- Generator: Adobe Illustrator 18.0.0, SVG Export Plug-In . SVG Version: 6.00 Build 0)  -->
<!DOCTYPE svg PUBLIC "-//W3C//DTD SVG 1.1//EN" "http://www.w3.org/Graphics/SVG/1.1/DTD/svg11.dtd">
<svg version="1.1" id="Layer_1" xmlns="http://www.w3.org/2000/svg" xmlns:xlink="http://www.w3.org/1999/xlink" x="0px" y="0px"
	 viewBox="0 0 48 48" enable-background="new 0 0 48 48" xml:space="preserve">
<g>
	<path fill="#E77528" d="M36.4,45.4c-6.6,0-12-5.4-12-11.9c0-6.6,5.4-11.9,12-11.9c0.8,0,1.5,0.1,2.2,0.2V9.9c0-0.5-0.4-1-1-1h-1.3
		c-1.4-1.1-2.2-2.2-2.4-3.5c-0.2-1.3,0.4-2.5,0.8-3H36c0.5,0,1-0.4,1-1c0-0.5-0.4-1-1-1H5.4c-2.6,0-4.8,2.1-4.8,4.7v1
		c0,0.2,0,0.3,0.1,0.5c0,0.1-0.1,0.2-0.1,0.3v36.5c0,0.1,0,0.2,0.1,0.3c0,0,0,0,0,0c0,0.1,0.4,1,1.5,2c0,0,0.1,0.1,0.1,0.1
		c0.3,0.3,0.7,0.5,1,0.7c0.1,0,0.2,0.1,0.3,0.1c0,0,0,0,0,0c0.9,0.4,1.9,0.8,3.3,0.8c0.3,0,0.7,0,1-0.1h29.9c0.5,0,1-0.4,1-1v-1.3
		C37.9,45.3,37.1,45.4,36.4,45.4z M5.4,8.9c-0.1,0-0.3,0-0.4,0C4.4,8.8,3.5,8.5,2.9,7.5C2.7,7.1,2.5,6.7,2.5,6.2v-1
		c0-1.5,1.3-2.8,2.9-2.8h27.1c-0.4,0.8-0.7,2-0.5,3.3c0.1,1.2,0.6,2.2,1.5,3.2H5.4z"/>
	<path fill="#06728D" d="M36.4,22.5c-6.1,0-11,4.9-11,11c0,6,4.9,11,11,11c6.1,0,11-4.9,11-11C47.4,27.4,42.5,22.5,36.4,22.5z
		 M42,33c0,0.5-0.5,0.9-1,0.9h-8.4c0,0.5,0.4,2.3,1.6,3.3c0.8,0.7,1.8,1,3,0.9c0.7-0.1,1.7-0.3,2.6-1.3c0.3-0.4,0.9-0.5,1.4-0.2
		c0.4,0.3,0.5,0.9,0.2,1.4c-1,1.3-2.3,1.9-3.9,2.1c-0.2,0-0.4,0-0.6,0c-1.5,0-2.8-0.5-3.9-1.5c-1.8-1.7-2.2-4.3-2.2-4.9
		c0-3.2,1.5-7,5.9-7c1.6,0,2.9,0.5,3.9,1.5C42.2,30.1,42,32.8,42,33z"/>
	<path fill="#394751" d="M36.6,28.7c-2.4,0-3.4,1.7-3.7,3.2H40c-0.1-0.7-0.3-1.6-1-2.3C38.5,29,37.7,28.7,36.6,28.7z"/>
</g>
</svg>
