<?xml version="1.0" encoding="utf-8"?>
<!-- Generator: Adobe Illustrator 18.0.0, SVG Export Plug-In . SVG Version: 6.00 Build 0)  -->
<!DOCTYPE svg PUBLIC "-//W3C//DTD SVG 1.1//EN" "http://www.w3.org/Graphics/SVG/1.1/DTD/svg11.dtd">
<svg version="1.1" id="Layer_1" xmlns="http://www.w3.org/2000/svg" xmlns:xlink="http://www.w3.org/1999/xlink" x="0px" y="0px"
	 viewBox="0 0 48 48" enable-background="new 0 0 48 48" xml:space="preserve">
<g>
	<path fill="#0DB89A" d="M36.4,22.1c0.1,0,0.2,0,0.4,0V1.5c0-0.5-0.4-1-1-1H1.5c-0.5,0-1,0.4-1,1v45.1c0,0.5,0.4,1,1,1h34.4
		c0.5,0,1-0.4,1-1v-0.6c-0.1,0-0.2,0-0.4,0c-6.6,0-12-5.4-12-11.9C24.4,27.4,29.8,22.1,36.4,22.1z M22.4,7.9h8c0.5,0,1,0.4,1,1
		c0,0.5-0.4,1-1,1h-8c-0.5,0-1-0.4-1-1C21.4,8.3,21.9,7.9,22.4,7.9z M22.4,14h8c0.5,0,1,0.4,1,1c0,0.5-0.4,1-1,1h-8
		c-0.5,0-1-0.4-1-1C21.4,14.4,21.9,14,22.4,14z M6,8.9c0-0.5,0.4-1,1-1h9.1c0.5,0,1,0.4,1,1V21c0,0.5-0.4,1-1,1H7c-0.5,0-1-0.4-1-1
		V8.9z M21.8,40.1H7c-0.5,0-1-0.4-1-1c0-0.5,0.4-1,1-1h14.9c0.5,0,1,0.4,1,1C22.8,39.7,22.4,40.1,21.8,40.1z M21.8,34H7
		c-0.5,0-1-0.4-1-1c0-0.5,0.4-1,1-1h14.9c0.5,0,1,0.4,1,1C22.8,33.6,22.4,34,21.8,34z M21.8,28H7c-0.5,0-1-0.4-1-1c0-0.5,0.4-1,1-1
		h14.9c0.5,0,1,0.4,1,1C22.8,27.6,22.4,28,21.8,28z M22.4,21.9c-0.5,0-1-0.4-1-1c0-0.5,0.4-1,1-1h8c0.5,0,1,0.4,1,1c0,0.5-0.4,1-1,1
		H22.4z"/>
	<path fill="#06728D" d="M36.4,23c-6.1,0-11.1,4.9-11.1,11c0,6.1,5,11,11.1,11c6.1,0,11.1-4.9,11.1-11C47.5,28,42.5,23,36.4,23z
		 M37.1,39.3c0,0.5-0.4,1-1,1c-0.5,0-1-0.4-1-1v-0.7c0-0.5,0.4-1,1-1c0.5,0,1,0.4,1,1V39.3z M37.9,33.5c-0.8,1-0.8,2.1-0.8,2.1
		c0,0.5-0.4,1-0.9,1c0,0,0,0-0.1,0c-0.5,0-0.9-0.4-1-0.9c0-0.1-0.1-1.9,1.2-3.5c0.8-1,0.9-1.5,0.9-1.6c0-0.1,0-0.2,0-0.2
		c0-0.5-0.2-0.6-0.3-0.6c-0.5-0.3-1.5,0-2,0.2c-0.5,0.2-1.1,0-1.3-0.5c-0.2-0.5,0-1.1,0.5-1.3c0.2-0.1,2.3-0.9,3.8,0
		c0.5,0.3,1,0.8,1.2,1.9C39.4,30.6,39.3,31.7,37.9,33.5z"/>
</g>
</svg>
