<?xml version="1.0" encoding="utf-8"?>
<!-- Generator: Adobe Illustrator 18.0.0, SVG Export Plug-In . SVG Version: 6.00 Build 0)  -->
<!DOCTYPE svg PUBLIC "-//W3C//DTD SVG 1.1//EN" "http://www.w3.org/Graphics/SVG/1.1/DTD/svg11.dtd">
<svg version="1.1" id="Layer_1" xmlns="http://www.w3.org/2000/svg" xmlns:xlink="http://www.w3.org/1999/xlink" x="0px" y="0px"
	 viewBox="0 0 48 48" enable-background="new 0 0 48 48" xml:space="preserve">
<g>
	<path fill="#F04B36" d="M24,24.4L44.6,8.5c-0.6-0.3-1.2-0.4-1.9-0.4H5.3C4.7,8.1,4,8.3,3.4,8.5L24,24.4z"/>
	<path fill="#E77528" d="M1.9,38.2L20.2,24L1.9,9.9c-0.1,0-0.1-0.1-0.1-0.2c-0.8,0.9-1.3,2-1.3,3.2V35c0,1.3,0.5,2.4,1.3,3.3
		C1.8,38.2,1.8,38.2,1.9,38.2z"/>
	<path fill="#E77528" d="M46.2,9.8c0,0.1-0.1,0.1-0.1,0.2L27.8,24l18.3,14.1c0,0,0.1,0.1,0.1,0.1c0.8-0.9,1.3-2,1.3-3.3V13
		C47.5,11.7,47,10.6,46.2,9.8z"/>
	<path fill="#F7A93B" d="M26.1,25.3l-1.5,1.2c-0.2,0.1-0.4,0.2-0.6,0.2c-0.2,0-0.4-0.1-0.6-0.2l-1.5-1.2L3.5,39.5
		c0.6,0.2,1.2,0.4,1.8,0.4h37.3c0.7,0,1.3-0.1,1.8-0.4L26.1,25.3z"/>
</g>
</svg>
