<?xml version="1.0" encoding="utf-8"?>
<!-- Generator: Adobe Illustrator 18.0.0, SVG Export Plug-In . SVG Version: 6.00 Build 0)  -->
<!DOCTYPE svg PUBLIC "-//W3C//DTD SVG 1.1//EN" "http://www.w3.org/Graphics/SVG/1.1/DTD/svg11.dtd">
<svg version="1.1" id="Layer_1" xmlns="http://www.w3.org/2000/svg" xmlns:xlink="http://www.w3.org/1999/xlink" x="0px" y="0px"
	 viewBox="0 0 48 48" enable-background="new 0 0 48 48" xml:space="preserve">
<g>
	<path fill="#939CA5" d="M15.6,9.3c-0.3,0-0.6-0.2-0.8-0.4c-0.3-0.4-0.2-1,0.3-1.3c4.6-3,8.5-5.6,8.6-5.6c0.3-0.2,0.7-0.2,1,0
		c0,0,4,2.5,8.5,5.6c0.4,0.3,0.6,0.9,0.3,1.3c-0.3,0.4-0.9,0.6-1.3,0.3c-3.5-2.4-6.3,0-7.5-0.7c-1.2,0.8-4.8-1.6-8.4,0.8
		C15.9,9.3,15.8,9.3,15.6,9.3z"/>
	<path fill="#06728D" d="M2.1,44.9l9.5-15.1l-11.1-11c-0.1,0.2-0.1,0.4-0.1,0.5v22.1C0.5,42.8,1.1,44,2.1,44.9z"/>
	<path fill="#939CA5" d="M40.2,23.5l6.1-6.1c-0.9-0.9-2.6-2.3-5.5-4.4c-0.2-0.1-0.4-0.2-0.6-0.2V23.5z"/>
	<path fill="#939CA5" d="M7.9,12.5c-0.1,0-0.2,0.1-0.4,0.2c-3.1,2.2-4.8,3.6-5.8,4.5l6.1,6.1V12.5z"/>
	<path fill="#CFD0D1" d="M34.8,30.6H13.4L3.8,45.9c0.5,0.2,1,0.3,1.5,0.3h37.3c0.6,0,1.2-0.1,1.7-0.3L34.8,30.6z"/>
	<path fill="#06728D" d="M36.6,29.8l9.4,15c0.9-0.9,1.5-2.1,1.5-3.5V19.3c0-0.1,0-0.2,0-0.3L36.6,29.8z"/>
	<path fill="#F04B36" d="M39.9,23.4c-0.5,0-1-0.5-1-1V9.4H9.1v12.9c0,0.6-0.4,1-1,1c-0.5,0-1-0.5-1-1V8.4c0-0.6,0.4-1,1-1h31.8
		c0.5,0,1,0.5,1,1v13.9C40.8,22.9,40.4,23.4,39.9,23.4z"/>
	<g>
		<rect x="15.3" y="13.6" fill="#F04B36" width="17.9" height="1.9"/>
	</g>
	<g>
		<rect x="15.3" y="19.5" fill="#F04B36" width="17.9" height="1.9"/>
	</g>
	<g>
		<rect x="15.3" y="25.1" fill="#F04B36" width="17.9" height="1.9"/>
	</g>
</g>
</svg>
