<?xml version="1.0" encoding="utf-8"?>
<!-- Generator: Adobe Illustrator 18.0.0, SVG Export Plug-In . SVG Version: 6.00 Build 0)  -->
<!DOCTYPE svg PUBLIC "-//W3C//DTD SVG 1.1//EN" "http://www.w3.org/Graphics/SVG/1.1/DTD/svg11.dtd">
<svg version="1.1" id="Layer_1" xmlns="http://www.w3.org/2000/svg" xmlns:xlink="http://www.w3.org/1999/xlink" x="0px" y="0px"
	 viewBox="0 0 48 48" enable-background="new 0 0 48 48" xml:space="preserve">
<g>
	<path fill="#F7A93B" d="M32.6,23c-6.1,0-11,4.9-11,11s5,11,11,11c6.1,0,11-4.9,11-11S38.7,23,32.6,23z M36.3,36.2
		c0.4,0.4,0.4,1,0,1.4c-0.2,0.2-0.4,0.3-0.7,0.3c-0.2,0-0.5-0.1-0.7-0.3l-2.3-2.3l-2.3,2.3c-0.2,0.2-0.4,0.3-0.7,0.3
		c-0.2,0-0.5-0.1-0.7-0.3c-0.4-0.4-0.4-1,0-1.4l2.3-2.3L29,31.6c-0.4-0.4-0.4-1,0-1.4c0.4-0.4,1-0.4,1.4,0l2.3,2.3l2.3-2.3
		c0.4-0.4,1-0.4,1.4,0c0.4,0.4,0.4,1,0,1.4L34,33.9L36.3,36.2z"/>
	<path fill="#939CA5" d="M44.8,3.6c-0.6-0.3-1.4-0.5-2.1-0.5H5.3C4.7,3.1,4,3.2,3.4,3.5L24,19.4L44.8,3.6z"/>
	<path fill="#06728D" d="M1.8,4.7C1,5.5,0.5,6.7,0.5,7.9V30c0,1.4,0.6,2.6,1.5,3.5l18.4-14.4L1.8,4.7z"/>
	<path fill="#CFD0D1" d="M29,22.6L26,20.3l-1.5,1.1c-0.2,0.1-0.4,0.2-0.6,0.2c-0.2,0-0.4-0.1-0.6-0.2L22,20.3L3.8,34.6
		c0.5,0.2,1,0.3,1.6,0.3h15.3c0-0.3,0-0.6,0-0.9C20.6,28.6,24.1,24.1,29,22.6z"/>
	<path fill="#06728D" d="M46.4,4.8L27.6,19.1l3.8,3c0.4,0,0.8-0.1,1.2-0.1c6,0,11,4.4,11.9,10.1l1.6,1.3c0.9-0.9,1.4-2.1,1.4-3.4
		V7.9C47.5,6.7,47.1,5.7,46.4,4.8z"/>
</g>
</svg>
