<?xml version="1.0" encoding="utf-8"?>
<!-- Generator: Adobe Illustrator 18.0.0, SVG Export Plug-In . SVG Version: 6.00 Build 0)  -->
<!DOCTYPE svg PUBLIC "-//W3C//DTD SVG 1.1//EN" "http://www.w3.org/Graphics/SVG/1.1/DTD/svg11.dtd">
<svg version="1.1" id="Layer_1" xmlns="http://www.w3.org/2000/svg" xmlns:xlink="http://www.w3.org/1999/xlink" x="0px" y="0px"
	 viewBox="0 0 48 48" enable-background="new 0 0 48 48" xml:space="preserve">
<g>
	<path fill="#4DA0D8" d="M29,17.7L28.8,3.2L18.3,3.4l0.2,14.5c-3.1,1.2-5.6,3.2-7.3,5.8l25.3-0.4C34.7,20.8,32.1,18.8,29,17.7z"/>
	<path fill="#E77528" d="M37.7,25.2l-27.5,0.4c-1,2.1-1.5,4.4-1.5,6.8c0.1,8.5,7.1,15.2,15.6,15.1c8.5-0.1,15.2-7.1,15.1-15.6
		C39.3,29.5,38.7,27.2,37.7,25.2z"/>
	<path fill="#F04B36" d="M31.2,0.4l-3.4,0.1l-8.5,0.1l-3.4,0.1c-0.5,0-0.9,0.4-0.9,1c0,0.5,0.4,0.9,1,0.9l2.5,0l10.4-0.2l2.5,0
		c0.5,0,0.9-0.4,0.9-1C32.1,0.8,31.7,0.4,31.2,0.4z"/>
</g>
</svg>
