<?xml version="1.0" encoding="utf-8"?>
<!-- Generator: Adobe Illustrator 18.0.0, SVG Export Plug-In . SVG Version: 6.00 Build 0)  -->
<!DOCTYPE svg PUBLIC "-//W3C//DTD SVG 1.1//EN" "http://www.w3.org/Graphics/SVG/1.1/DTD/svg11.dtd">
<svg version="1.1" id="Layer_1" xmlns="http://www.w3.org/2000/svg" xmlns:xlink="http://www.w3.org/1999/xlink" x="0px" y="0px"
	 viewBox="0 0 48 48" enable-background="new 0 0 48 48" xml:space="preserve">
<g>
	<path fill="#4DA0D8" d="M32.1,4.6c0-1.1-0.4-2.2-1.3-3c-0.8-0.8-1.9-1.2-3-1.2c-1.2,0-2.3,0.4-3.1,1.2l-3.5,3.3H24l2-2
		c0.5-0.5,1.1-0.7,1.8-0.7c0.7,0,1.3,0.2,1.7,0.7c0.4,0.4,0.7,1,0.7,1.6c0,0.6-0.3,1.2-0.7,1.7l-0.4,0.3c0.4,0.6,0.7,1.3,0.7,2l1-1
		C31.7,6.9,32.1,5.8,32.1,4.6z"/>
	<path fill="#0DB89A" d="M29.8,8.6l-3.8,3.6c-0.8,0.8-1.9,1.2-3.1,1.2c-1.1,0-2.2-0.4-3-1.2c-0.8-0.8-1.3-1.8-1.3-2.9
		c0-1.1,0.5-2.2,1.3-3l1.3-1.2h-17c-2.1,0-3.8,1.6-3.8,3.6v29.5c0,2,1.7,3.6,3.8,3.6h9.9H26c2.1,0,3.8-1.6,3.8-3.6V9.8L29.8,8.6
		C29.8,8.7,29.8,8.6,29.8,8.6z M7,17.1h16.6c0.5,0,0.9,0.4,0.9,0.9c0,0.5-0.4,0.9-0.9,0.9H7c-0.5,0-0.9-0.4-0.9-0.9
		C6.1,17.6,6.5,17.1,7,17.1z M7,24.2h16.6c0.5,0,0.9,0.4,0.9,0.9c0,0.5-0.4,0.9-0.9,0.9H7c-0.5,0-0.9-0.4-0.9-0.9
		C6.1,24.6,6.5,24.2,7,24.2z M7,33.1c-0.5,0-0.9-0.4-0.9-0.9c0-0.5,0.4-0.9,0.9-0.9h16.6c0.5,0,0.9,0.4,0.9,0.9
		c0,0.5-0.4,0.9-0.9,0.9H7z"/>
	<path fill="#0DB89A" d="M20.6,9.3c0,0.6,0.2,1.2,0.7,1.6c0.9,0.9,2.6,0.9,3.5,0l4.4-4.2c-0.7-1-1.8-1.6-3.2-1.6h-2l-2.7,2.6
		C20.9,8.1,20.6,8.7,20.6,9.3z"/>
	<path fill="#F7A93B" d="M35.9,15.9c0,0.6,0.2,1.2,0.7,1.6c0.9,0.9,2.6,0.9,3.5,0l4.3-4.1c-0.5-1.4-1.9-2.5-3.6-2.5h-0.6l-3.6,3.4
		C36.2,14.7,35.9,15.3,35.9,15.9z"/>
	<path fill="#831619" d="M47.5,11.2c0-1.1-0.4-2.2-1.3-3c-0.8-0.8-1.9-1.2-3-1.2c-1.2,0-2.3,0.4-3.1,1.2l-2.6,2.5h2.7l1.2-1.1
		C41.9,9.2,42.5,9,43.2,9c0.7,0,1.3,0.2,1.7,0.7c0.4,0.4,0.7,1,0.7,1.6c0,0.6-0.3,1.2-0.7,1.7l-0.4,0.4c0.1,0.4,0.2,0.7,0.2,1.1v1.3
		l1.5-1.5C47,13.4,47.5,12.4,47.5,11.2z"/>
	<path fill="#F7A93B" d="M41.4,18.8c-0.8,0.8-1.9,1.2-3.1,1.2c-1.1,0-2.2-0.4-3-1.2c-0.8-0.8-1.3-1.8-1.3-2.9c0-1.1,0.5-2.2,1.3-3
		l2.1-2.1h-6.6v28.4c0,2-1.7,3.6-3.8,3.6H15.3v1.1c0,2,1.7,3.6,3.8,3.6h21.7c2.1,0,3.8-1.6,3.8-3.6V15.7L41.4,18.8z M42,42.8h-8.7
		c-0.5,0-0.9-0.4-0.9-0.9c0-0.5,0.4-0.9,0.9-0.9H42c0.5,0,0.9,0.4,0.9,0.9C43,42.3,42.6,42.8,42,42.8z M42,35.7h-5.5
		c-0.5,0-0.9-0.4-0.9-0.9s0.4-0.9,0.9-0.9H42c0.5,0,0.9,0.4,0.9,0.9S42.6,35.7,42,35.7z M42,28.7h-5.5c-0.5,0-0.9-0.4-0.9-0.9
		c0-0.5,0.4-0.9,0.9-0.9H42c0.5,0,0.9,0.4,0.9,0.9C43,28.2,42.6,28.7,42,28.7z"/>
</g>
</svg>
