<?xml version="1.0" encoding="utf-8"?>
<!-- Generator: Adobe Illustrator 18.0.0, SVG Export Plug-In . SVG Version: 6.00 Build 0)  -->
<!DOCTYPE svg PUBLIC "-//W3C//DTD SVG 1.1//EN" "http://www.w3.org/Graphics/SVG/1.1/DTD/svg11.dtd">
<svg version="1.1" id="Layer_1" xmlns="http://www.w3.org/2000/svg" xmlns:xlink="http://www.w3.org/1999/xlink" x="0px" y="0px"
	 viewBox="0 0 48 48" enable-background="new 0 0 48 48" xml:space="preserve">
<g>
	<path fill="#E77528" d="M24,21.7L37.6,4.9C33.8,2.2,29.1,0.5,24,0.5c-6.4,0-12.1,2.5-16.4,6.7L24,21.7z"/>
	<path fill="#4DA0D8" d="M1.6,31.2l19.7-7.8L5.6,9.5c-3.2,4-5.1,9.1-5.1,14.6C0.5,26.5,0.9,29,1.6,31.2C1.6,31.2,1.6,31.2,1.6,31.2z
		"/>
	<path fill="#0DB89A" d="M40,6.8L25.7,24.4v23c12.2-0.9,21.8-11,21.8-23.4C47.5,17.2,44.6,11.1,40,6.8z"/>
	<path fill="#F7A93B" d="M22.6,26.1L2.8,34.1c0,0,0,0,0,0C6.4,41.6,13.9,47,22.6,47.5V26.1z"/>
</g>
</svg>
