<?xml version="1.0" encoding="utf-8"?>
<!-- Generator: Adobe Illustrator 18.0.0, SVG Export Plug-In . SVG Version: 6.00 Build 0)  -->
<!DOCTYPE svg PUBLIC "-//W3C//DTD SVG 1.1//EN" "http://www.w3.org/Graphics/SVG/1.1/DTD/svg11.dtd">
<svg version="1.1" id="Layer_1" xmlns="http://www.w3.org/2000/svg" xmlns:xlink="http://www.w3.org/1999/xlink" x="0px" y="0px"
	 viewBox="0 0 48 48" enable-background="new 0 0 48 48" xml:space="preserve">
<g>
	<path fill="#F7A93B" d="M38.7,12.2c3.3,0,5.9-2.6,5.9-5.9c0-3.2-2.7-5.9-5.9-5.9s-5.9,2.6-5.9,5.9C32.8,9.6,35.5,12.2,38.7,12.2z"
		/>
	<path fill="#566C7A" d="M11.4,16.2c-0.6,0-1.2-0.4-1.4-1.1c-0.2-0.8,0.2-1.6,1-1.8l22.9-6.2c0.8-0.2,1.6,0.2,1.8,1
		c0.2,0.8-0.2,1.6-1,1.8l-22.9,6.2C11.6,16.1,11.5,16.2,11.4,16.2z"/>
	<path fill="#4DA0D8" d="M6.4,10.3c-3.3,0-5.9,2.6-5.9,5.9c0,3.2,2.7,5.9,5.9,5.9s5.9-2.6,5.9-5.9C12.3,12.9,9.7,10.3,6.4,10.3z"/>
	<path fill="#566C7A" d="M31.8,31.6c-0.3,0-0.5-0.1-0.8-0.2L9.5,19.6c-0.8-0.4-1-1.4-0.6-2.1c0.4-0.8,1.4-1,2.1-0.6l21.6,11.9
		c0.8,0.4,1,1.4,0.6,2.1C32.9,31.3,32.4,31.6,31.8,31.6z"/>
	<path fill="#F04B36" d="M38.7,25.3c-4.8,0-8.8,3.9-8.8,8.7c0,4.8,3.9,8.7,8.8,8.7c4.8,0,8.8-3.9,8.8-8.7
		C47.5,29.2,43.6,25.3,38.7,25.3z"/>
	<path fill="#566C7A" d="M21.9,42.3c-0.6,0-1.2-0.4-1.4-1c-0.2-0.8,0.2-1.6,0.9-1.8l10-3.2c0.8-0.2,1.6,0.2,1.8,0.9
		c0.2,0.8-0.2,1.6-0.9,1.8l-10,3.2C22.2,42.3,22.1,42.3,21.9,42.3z"/>
	<path fill="#0DB89A" d="M18.7,38.2c-2.6,0-4.7,2.1-4.7,4.7c0,2.6,2.1,4.7,4.7,4.7c2.6,0,4.7-2.1,4.7-4.7
		C23.5,40.3,21.3,38.2,18.7,38.2z"/>
</g>
</svg>
