<?xml version="1.0" encoding="utf-8"?>
<!-- Generator: Adobe Illustrator 18.0.0, SVG Export Plug-In . SVG Version: 6.00 Build 0)  -->
<!DOCTYPE svg PUBLIC "-//W3C//DTD SVG 1.1//EN" "http://www.w3.org/Graphics/SVG/1.1/DTD/svg11.dtd">
<svg version="1.1" id="Layer_1" xmlns="http://www.w3.org/2000/svg" xmlns:xlink="http://www.w3.org/1999/xlink" x="0px" y="0px"
	 viewBox="0 0 48 48" enable-background="new 0 0 48 48" xml:space="preserve">
<g>
	<path fill="#F7A93B" d="M31.9,0.5H16.1c-1.9,0-3.5,1.6-3.5,3.5v23.2c0,1.9,1.6,3.5,3.5,3.5h15.7c1.9,0,3.5-1.6,3.5-3.5V4
		C35.3,2.1,33.8,0.5,31.9,0.5z"/>
	<path fill="#F04B36" d="M42.5,16.8h-4c-0.5,0-1,0.4-1,1V28c0,0.2-0.1,4.6-4,4.6H23.1h-0.8h-7.9c-3.8,0-4-4.1-4-4.5V17.7
		c0-0.5-0.4-1-1-1h-4c-0.5,0-1,0.4-1,1s0.4,1,1,1h3V28c0.1,2.2,1.4,6.4,6,6.4h6.9L13.3,46c-0.3,0.4-0.2,1,0.2,1.3
		c0.2,0.1,0.4,0.2,0.6,0.2c0.3,0,0.6-0.1,0.8-0.4L23,35.5v11c0,0.5,0.4,1,1,1c0.5,0,1-0.4,1-1v-11l8.1,11.6c0.2,0.3,0.5,0.4,0.8,0.4
		c0.2,0,0.4-0.1,0.6-0.2c0.4-0.3,0.5-0.9,0.2-1.3l-8.1-11.5h6.9c4.6,0,5.9-4.2,6-6.5v-9.3h3c0.5,0,1-0.4,1-1S43,16.8,42.5,16.8z"/>
</g>
</svg>
