<?xml version="1.0" encoding="utf-8"?>
<!-- Generator: Adobe Illustrator 18.0.0, SVG Export Plug-In . SVG Version: 6.00 Build 0)  -->
<!DOCTYPE svg PUBLIC "-//W3C//DTD SVG 1.1//EN" "http://www.w3.org/Graphics/SVG/1.1/DTD/svg11.dtd">
<svg version="1.1" id="Layer_1" xmlns="http://www.w3.org/2000/svg" xmlns:xlink="http://www.w3.org/1999/xlink" x="0px" y="0px"
	 viewBox="0 0 48 48" enable-background="new 0 0 48 48" xml:space="preserve">
<g>
	<path fill="#4DA0D8" d="M36.7,14.1c-0.2-0.2-0.6-0.2-0.9-0.1l-11.4,3.5l-10.8-3.3c-0.3-0.1-0.6,0-0.8,0.1c-0.6-0.1-1.1,0.4-1.1,1
		v3.5c0.3,0,0.6,0,0.9,0c1.8,0,3.5,0.4,5.1,1.2c2.9,1.4,5.2,3.8,6.3,6.9c0.4,1.2,0.7,2.5,0.7,3.7c3.2,0.1,6.9,0.8,10.8,2.7
		c0.1,0.1,0.3,0.1,0.4,0.1c0.2,0,0.4,0,0.5-0.1c0.3-0.2,0.5-0.5,0.5-0.8V14.8C37.1,14.5,36.9,14.3,36.7,14.1z"/>
	<path fill="#4DA0D8" d="M24.5,19.4c-0.1,0-0.2,0-0.3,0L3.7,13.1C3.3,13,3,12.6,3,12.2c0-0.4,0.3-0.8,0.7-0.9L24.2,5
		c0.2-0.1,0.4-0.1,0.6,0l20.5,6.2c0.4,0.1,0.7,0.5,0.7,0.9c0,0.4-0.3,0.8-0.7,0.9l-20.5,6.2C24.7,19.3,24.6,19.4,24.5,19.4z
		 M7.3,12.2l17.2,5.2l17.2-5.2L24.5,6.9L7.3,12.2z"/>
	<path fill="#F04B36" d="M46.9,26.1L44,24.8c0,0,0-0.1,0-0.1V12.6L26.4,10c-0.5-0.1-1,0.3-1.1,0.8c-0.1,0.5,0.3,1,0.8,1.1l16,2.3
		v10.5c0,0,0,0.1,0,0.1l-2.9,1.2c-0.4,0.2-0.6,0.5-0.6,0.9v6.2c0,0.5,0.4,1,1,1c0.5,0,1-0.4,1-1v-5.5l1.5-0.6v5.2c0,0.5,0.4,1,1,1
		c0.5,0,1-0.4,1-1v-5.2l1.5,0.7v5.5c0,0.5,0.4,1,1,1c0.5,0,1-0.4,1-1V27C47.5,26.6,47.3,26.2,46.9,26.1z"/>
	<path fill="#9E926A" d="M15.4,27.4c0.3,0.3,0.6,0.6,0.9,0.9l8.1-1.5c0-0.1,0-0.1-0.1-0.2c-1-2.8-2.9-5.1-5.5-6.5L15.4,27.4z"/>
	<path fill="#CFD0D1" d="M8.6,31.6c-0.2-0.9-0.1-1.8,0.3-2.6c0.7-1.5,2.2-2.5,3.9-2.5c0.3,0,0.6,0,0.9,0.1l3.4-7.3
		c-1.4-0.5-2.8-0.8-4.3-0.8c-0.3,0-0.6,0-0.9,0c-4.4,0.3-8.3,3-10.2,7c-1.2,2.6-1.5,5.6-0.7,8.4L8.6,31.6z"/>
	<path fill="#CFD0D1" d="M17,30.1c0.1,0.8,0,1.7-0.4,2.4c-0.7,1.5-2.2,2.5-3.9,2.5c-0.2,0-0.4,0-0.5-0.1l-2.6,7.6
		c1,0.3,2,0.4,3.1,0.4c4.7,0,9.1-2.8,11.1-7.1c0.8-1.8,1.2-3.7,1.2-5.6c0-0.5-0.1-1.1-0.2-1.6L17,30.1z"/>
	<path fill="#9E926A" d="M10.4,34.3c-0.4-0.3-0.7-0.6-1-1l-7.8,2.4c1.2,2.7,3.3,4.9,6,6.1c0.1,0,0.2,0.1,0.3,0.1L10.4,34.3z"/>
	<path fill="#394751" d="M12.8,28.4c-0.9,0-1.7,0.5-2.1,1.3c-0.5,1.2,0,2.6,1.1,3.1c1.1,0.5,2.6,0,3.1-1.1c0.5-1.2,0-2.6-1.1-3.1
		C13.5,28.5,13.1,28.4,12.8,28.4z"/>
</g>
</svg>
