<?xml version="1.0" encoding="utf-8"?>
<!-- Generator: Adobe Illustrator 18.0.0, SVG Export Plug-In . SVG Version: 6.00 Build 0)  -->
<!DOCTYPE svg PUBLIC "-//W3C//DTD SVG 1.1//EN" "http://www.w3.org/Graphics/SVG/1.1/DTD/svg11.dtd">
<svg version="1.1" id="Layer_1" xmlns="http://www.w3.org/2000/svg" xmlns:xlink="http://www.w3.org/1999/xlink" x="0px" y="0px"
	 viewBox="0 0 48 48" enable-background="new 0 0 48 48" xml:space="preserve">
<g>
	<path fill="#F04B36" d="M27,28.5c-0.2,0-0.5-0.1-0.7-0.3l-6-6c-0.2-0.2-0.3-0.4-0.3-0.7c0-0.3,0.1-0.5,0.3-0.7l0.3-0.3
		c-0.1,0-0.2,0.1-0.3,0.2c-2,1.7-4,3.6-6,5.6C10.1,30.6,6.4,35,4,38.7c-2.8,4.2-3.5,6.9-2.2,8.2c0.4,0.4,1,0.6,1.7,0.6
		c3.9,0,12.3-6.7,18.9-13.3c2-2,3.9-4,5.6-6c0.1-0.1,0.1-0.2,0.2-0.3l-0.3,0.3C27.5,28.4,27.3,28.5,27,28.5z"/>
	<path fill="#ED9322" d="M36.6,18l-6-6c-0.4-0.4-1-0.4-1.4,0l-8.5,8.5c0.3-0.1,0.7,0,1,0.2l6.1,6.1c0.3,0.3,0.3,0.7,0.2,1l8.5-8.5
		C36.9,19,36.9,18.4,36.6,18z"/>
	<path fill="#4DA0D8" d="M46,0.7c-0.2-0.2-0.6-0.3-0.8-0.2c-0.3,0.1-0.6,0.3-0.7,0.6c-0.3,0.8-1,1.9-2,2.5c-0.7,0.5-1.7,0.5-2.7,0.6
		c-0.5,0-1.1,0.1-1.6,0.1c-1.6,0.3-3.4,0.5-4.8,1.8c-1.3,1.2-2.1,2.6-2.6,3.7c-0.2,0.4-0.1,0.8,0.2,1.1l6.3,6.3
		c0.2,0.2,0.4,0.3,0.7,0.3c1.1,0,5.3-1.7,7.4-5.8C47.6,7.4,47,1.6,46,0.7z"/>
</g>
</svg>
