<?xml version="1.0" encoding="utf-8"?>
<!-- Generator: Adobe Illustrator 18.0.0, SVG Export Plug-In . SVG Version: 6.00 Build 0)  -->
<!DOCTYPE svg PUBLIC "-//W3C//DTD SVG 1.1//EN" "http://www.w3.org/Graphics/SVG/1.1/DTD/svg11.dtd">
<svg version="1.1" id="Layer_1" xmlns="http://www.w3.org/2000/svg" xmlns:xlink="http://www.w3.org/1999/xlink" x="0px" y="0px"
	 viewBox="0 0 48 48" enable-background="new 0 0 48 48" xml:space="preserve">
<g>
	<path fill="#F04B36" d="M37.6,46.1l-3.1-4.9c-0.2-0.3-0.5-0.4-0.8-0.4h-9.5h-0.4h-9.5c-0.3,0-0.6,0.2-0.8,0.4l-3.1,4.9
		c-0.3,0.4-0.1,1,0.3,1.3c0.2,0.1,0.3,0.1,0.5,0.1c0.3,0,0.6-0.1,0.8-0.4l2.9-4.5h9h0.4h9l2.9,4.5c0.2,0.3,0.5,0.4,0.8,0.4
		c0.2,0,0.3,0,0.5-0.1C37.8,47.1,37.9,46.5,37.6,46.1z"/>
	<path fill="#06728D" d="M9.6,0.5C5.4,0.5,2,3.9,2,8.1c0,1.7,0.6,3.3,1.6,4.7c0.2,0.2,0.4,0.3,0.7,0.3c0.2,0,0.4-0.1,0.6-0.2
		l10.5-8.1c0.4-0.3,0.5-0.9,0.2-1.3C14.2,1.6,12,0.5,9.6,0.5z"/>
	<path fill="#06728D" d="M38.4,0.5c-2.4,0-4.6,1.1-6,3.1c-0.3,0.4-0.2,1,0.2,1.3L43.1,13c0.2,0.1,0.4,0.2,0.6,0.2
		c0.3,0,0.5-0.1,0.7-0.3c1.1-1.4,1.6-3,1.6-4.7C46,3.9,42.6,0.5,38.4,0.5z"/>
	<path fill="#4DA0D8" d="M24,5C14.6,5,6.9,12.8,6.9,22.3c0,9.5,7.7,17.3,17.1,17.3c9.4,0,17.1-7.7,17.1-17.3C41.1,12.8,33.4,5,24,5z
		 M30.3,23.6h-6.1c-0.8,0-1.4-0.6-1.4-1.4V10.5c0-0.8,0.6-1.4,1.4-1.4c0.8,0,1.4,0.6,1.4,1.4v10.4h4.8c0.8,0,1.4,0.6,1.4,1.4
		C31.7,23,31.1,23.6,30.3,23.6z"/>
</g>
</svg>
