<?xml version="1.0" encoding="utf-8"?>
<!-- Generator: Adobe Illustrator 18.0.0, SVG Export Plug-In . SVG Version: 6.00 Build 0)  -->
<!DOCTYPE svg PUBLIC "-//W3C//DTD SVG 1.1//EN" "http://www.w3.org/Graphics/SVG/1.1/DTD/svg11.dtd">
<svg version="1.1" id="Layer_1" xmlns="http://www.w3.org/2000/svg" xmlns:xlink="http://www.w3.org/1999/xlink" x="0px" y="0px"
	 viewBox="0 0 48 48" enable-background="new 0 0 48 48" xml:space="preserve">
<g>
	<path fill="#0DB89A" d="M36.8,13.1C36.6,13,36.2,12.9,36,13l-11.4,3.5l-10.8-3.3c-0.3-0.1-0.6,0-0.8,0.1c-0.6-0.1-1.1,0.4-1.1,1
		v8.7h8.9c1.1,0,1.9,0.9,1.9,1.9v4.2c0.5,0.2,1.2,0.4,2.3,0.4c3.2,0.1,6.9,0.8,10.8,2.7c0.1,0.1,0.3,0.1,0.4,0.1
		c0.2,0,0.4,0,0.5-0.1c0.3-0.2,0.5-0.5,0.5-0.8V13.9C37.2,13.6,37.1,13.3,36.8,13.1z"/>
	<path fill="#06728D" d="M20.8,22.9h-2.1v6.5H4.5v-6.5H2.4c-1.1,0-1.9,0.9-1.9,1.9v18.3c0,1.1,0.9,1.9,1.9,1.9h18.3
		c1.1,0,1.9-0.9,1.9-1.9V29v-4.2C22.7,23.8,21.8,22.9,20.8,22.9z M11.6,41.2c-3.1,0-5.6-2.5-5.6-5.6c0-3.1,2.5-5.6,5.6-5.6
		s5.6,2.5,5.6,5.6C17.2,38.7,14.7,41.2,11.6,41.2z"/>
	<polygon fill="#F7A93B" points="6.5,27.2 16.7,27.2 16.7,22.9 11.9,22.9 6.5,22.9 	"/>
	<path fill="#0DB89A" d="M24.5,17.3c-0.1,0-0.2,0-0.3,0L3.8,11c-0.4-0.1-0.7-0.5-0.7-0.9s0.3-0.8,0.7-0.9L24.3,3
		c0.2-0.1,0.4-0.1,0.6,0l20.4,6.2c0.4,0.1,0.7,0.5,0.7,0.9s-0.3,0.8-0.7,0.9l-20.4,6.2C24.7,17.3,24.6,17.3,24.5,17.3z M7.5,10.1
		l17.1,5.2l17.1-5.2L24.5,4.9L7.5,10.1z"/>
	<path fill="#F04B36" d="M43.1,23.6c-0.5,0-1-0.4-1-1V12.2L26.2,9.9c-0.5-0.1-0.9-0.6-0.8-1.1c0.1-0.5,0.6-0.9,1.1-0.8l17.6,2.6
		v12.1C44.1,23.1,43.6,23.6,43.1,23.6z"/>
	<path fill="#F04B36" d="M46.5,32c-0.5,0-1-0.4-1-1v-5.5l-2.5-1.1c-0.5-0.2-0.7-0.8-0.5-1.3c0.2-0.5,0.8-0.7,1.3-0.5l3,1.3
		c0.4,0.2,0.6,0.5,0.6,0.9V31C47.5,31.5,47.1,32,46.5,32z"/>
	<path fill="#F04B36" d="M39.7,32c-0.5,0-1-0.4-1-1v-6.2c0-0.4,0.2-0.7,0.6-0.9l3-1.3c0.5-0.2,1.1,0,1.3,0.5c0.2,0.5,0,1.1-0.5,1.3
		l-2.5,1.1V31C40.6,31.5,40.2,32,39.7,32z"/>
	<path fill="#F04B36" d="M43.1,31c-0.5,0-1-0.4-1-1v-6c0-0.5,0.4-1,1-1c0.5,0,1,0.4,1,1v6C44.1,30.5,43.6,31,43.1,31z"/>
</g>
</svg>
