<?xml version="1.0" encoding="utf-8"?>
<!-- Generator: Adobe Illustrator 18.0.0, SVG Export Plug-In . SVG Version: 6.00 Build 0)  -->
<!DOCTYPE svg PUBLIC "-//W3C//DTD SVG 1.1//EN" "http://www.w3.org/Graphics/SVG/1.1/DTD/svg11.dtd">
<svg version="1.1" id="Layer_1" xmlns="http://www.w3.org/2000/svg" xmlns:xlink="http://www.w3.org/1999/xlink" x="0px" y="0px"
	 viewBox="0 0 48 48" enable-background="new 0 0 48 48" xml:space="preserve">
<g>
	<path fill="#4DA0D8" d="M37.5,6.5h-4.7l1.9,4.2c0.2,0.3,0.3,0.7,0.3,1c0,1.1-0.8,1.9-1.9,1.9l0,0H14.9c-0.7,0-1.3-0.3-1.6-0.9
		c-0.4-0.6-0.4-1.2-0.1-1.9l2-4.5h-4.7c-2,0-3.7,1.6-3.7,3.5v34c0,1.9,1.6,3.5,3.7,3.5h27.1c2,0,3.7-1.6,3.7-3.5V10
		C41.2,8,39.6,6.5,37.5,6.5z M28.2,31.8h-8.5c-0.5,0-1-0.4-1-1c0-0.5,0.4-1,1-1h8.5c0.5,0,1,0.4,1,1C29.2,31.4,28.8,31.8,28.2,31.8z
		"/>
	<path fill="#F04B36" d="M27.1,2.4h-6.1c-0.5,0-1-0.4-1-1c0-0.5,0.4-1,1-1h6.1c0.5,0,1,0.4,1,1C28,2,27.6,2.4,27.1,2.4z"/>
	<path fill="#F04B36" d="M33.9,11.2l-3.3-7.3c-0.2-0.3-0.5-0.6-0.9-0.6H18.3c-0.4,0-0.7,0.2-0.9,0.6L14,11.4
		c-0.1,0.3-0.1,0.6,0.1,0.9c0.2,0.3,0.5,0.4,0.8,0.4h18.2c0,0,0,0,0,0c0.5,0,1-0.4,1-1C34.1,11.5,34,11.3,33.9,11.2z"/>
</g>
</svg>
