<?xml version="1.0" encoding="utf-8"?>
<!-- Generator: Adobe Illustrator 18.0.0, SVG Export Plug-In . SVG Version: 6.00 Build 0)  -->
<!DOCTYPE svg PUBLIC "-//W3C//DTD SVG 1.1//EN" "http://www.w3.org/Graphics/SVG/1.1/DTD/svg11.dtd">
<svg version="1.1" id="Layer_1" xmlns="http://www.w3.org/2000/svg" xmlns:xlink="http://www.w3.org/1999/xlink" x="0px" y="0px"
	 viewBox="0 0 48 48" enable-background="new 0 0 48 48" xml:space="preserve">
<g>
	<path fill="#F7A93B" d="M37.5,6.5h-4.7l1.9,4.2c0.2,0.3,0.3,0.7,0.3,1c0,1.1-0.8,1.9-1.9,1.9l0,0H14.9c-0.7,0-1.3-0.3-1.6-0.9
		c-0.4-0.6-0.4-1.2-0.1-1.9l2-4.5h-4.7c-2,0-3.7,1.6-3.7,3.5v34c0,1.9,1.6,3.5,3.7,3.5h27.1c2,0,3.7-1.6,3.7-3.5V10
		C41.2,8,39.6,6.5,37.5,6.5z M27.7,34.5c-0.2,0.2-0.4,0.3-0.7,0.3c-0.2,0-0.5-0.1-0.7-0.3L24,32.2l-2.3,2.3
		c-0.2,0.2-0.4,0.3-0.7,0.3c-0.2,0-0.5-0.1-0.7-0.3c-0.4-0.4-0.4-1,0-1.4l2.3-2.3l-2.3-2.3c-0.4-0.4-0.4-1,0-1.4
		c0.4-0.4,1-0.4,1.4,0l2.3,2.3l2.3-2.3c0.4-0.4,1-0.4,1.4,0c0.4,0.4,0.4,1,0,1.4l-2.3,2.3l2.3,2.3C28.1,33.6,28.1,34.2,27.7,34.5z"
		/>
	<path fill="#4DA0D8" d="M20.9,2.4h6.1c0.5,0,1-0.4,1-1c0-0.5-0.4-1-1-1h-6.1c-0.5,0-1,0.4-1,1C20,2,20.4,2.4,20.9,2.4z"/>
	<path fill="#4DA0D8" d="M14.1,12.3c0.2,0.3,0.5,0.4,0.8,0.4h18.2c0,0,0,0,0,0c0.5,0,1-0.4,1-1c0-0.2-0.1-0.4-0.2-0.6l-3.3-7.3
		c-0.2-0.3-0.5-0.6-0.9-0.6H18.3c-0.4,0-0.7,0.2-0.9,0.6L14,11.4C13.9,11.6,13.9,12,14.1,12.3z"/>
</g>
</svg>
