<?xml version="1.0" encoding="utf-8"?>
<!-- Generator: Adobe Illustrator 18.0.0, SVG Export Plug-In . SVG Version: 6.00 Build 0)  -->
<!DOCTYPE svg PUBLIC "-//W3C//DTD SVG 1.1//EN" "http://www.w3.org/Graphics/SVG/1.1/DTD/svg11.dtd">
<svg version="1.1" id="Layer_1" xmlns="http://www.w3.org/2000/svg" xmlns:xlink="http://www.w3.org/1999/xlink" x="0px" y="0px"
	 viewBox="0 0 48 48" enable-background="new 0 0 48 48" xml:space="preserve">
<g>
	<path fill="#F04B36" d="M44.6,28.3L26.8,10.6c-0.4-0.4-0.9-0.4-1.3,0L11,25c-0.2,0.2-0.3,0.4-0.3,0.6c0,0.2,0.1,0.5,0.3,0.6
		l17.8,17.8c1.9,1.9,4.4,3,7.2,3c2.7,0,5.2-1,7.2-3l1.4-1.4C48.5,38.7,48.5,32.3,44.6,28.3z"/>
	<path fill="#0DB89A" d="M20.8,11.6L10.4,1.2c-0.4-0.4-0.9-0.4-1.3,0L0.8,9.6C0.6,9.8,0.5,10,0.5,10.3c0,0.2,0.1,0.5,0.3,0.6
		l10.3,10.3c0.2,0.2,0.4,0.3,0.6,0.3c0.2,0,0.5-0.1,0.6-0.3l8.4-8.4c0.2-0.2,0.3-0.4,0.3-0.6C21.1,12,21,11.8,20.8,11.6z M8.9,12.8
		c-0.2,0.2-0.4,0.3-0.6,0.3c-0.2,0-0.5-0.1-0.6-0.3L5.9,11c-0.4-0.4-0.4-0.9,0-1.3c0.4-0.4,0.9-0.4,1.3,0l1.8,1.8
		C9.3,11.9,9.3,12.4,8.9,12.8z M12.3,9.4c-0.2,0.2-0.4,0.3-0.6,0.3c-0.2,0-0.5-0.1-0.6-0.3L9.3,7.7c-0.4-0.4-0.4-0.9,0-1.3
		c0.4-0.4,0.9-0.4,1.3,0l1.8,1.8C12.7,8.5,12.7,9.1,12.3,9.4z"/>
</g>
</svg>
