<?xml version="1.0" encoding="utf-8"?>
<!-- Generator: Adobe Illustrator 18.0.0, SVG Export Plug-In . SVG Version: 6.00 Build 0)  -->
<!DOCTYPE svg PUBLIC "-//W3C//DTD SVG 1.1//EN" "http://www.w3.org/Graphics/SVG/1.1/DTD/svg11.dtd">
<svg version="1.1" id="Layer_1" xmlns="http://www.w3.org/2000/svg" xmlns:xlink="http://www.w3.org/1999/xlink" x="0px" y="0px"
	 viewBox="0 0 48 48" enable-background="new 0 0 48 48" xml:space="preserve">
<g>
	<path fill="#06728D" d="M1.9,44.1c-0.8,0-1.4-0.6-1.4-1.4V9.1c0-2.9,2.7-5.2,6-5.2h12.1c3.3,0,6,2.3,6,5.2c0,1.2,1.4,2.3,3.1,2.3
		h10c3.3,0,6,2.6,6,5.8c0,0.8-0.6,1.4-1.4,1.4c-0.8,0-1.4-0.6-1.4-1.4c0-1.6-1.4-2.9-3.1-2.9h-10c-3.3,0-6-2.3-6-5.2
		c0-1.2-1.4-2.3-3.1-2.3H6.5c-1.7,0-3.1,1.1-3.1,2.3v33.5C3.4,43.4,2.7,44.1,1.9,44.1z"/>
	<path fill="#E77528" d="M47.3,17.6c-0.2-0.2-0.5-0.4-0.8-0.4H9.7c-0.4,0-0.8,0.3-0.9,0.7L1,42.8c-0.1,0.3,0,0.6,0.1,0.9
		c0.2,0.2,0.5,0.4,0.8,0.4h36.8c0.4,0,0.8-0.3,0.9-0.7l7.8-24.9C47.5,18.2,47.5,17.9,47.3,17.6z"/>
</g>
</svg>
