<?xml version="1.0" encoding="utf-8"?>
<!-- Generator: Adobe Illustrator 18.0.0, SVG Export Plug-In . SVG Version: 6.00 Build 0)  -->
<!DOCTYPE svg PUBLIC "-//W3C//DTD SVG 1.1//EN" "http://www.w3.org/Graphics/SVG/1.1/DTD/svg11.dtd">
<svg version="1.1" id="Layer_1" xmlns="http://www.w3.org/2000/svg" xmlns:xlink="http://www.w3.org/1999/xlink" x="0px" y="0px"
	 viewBox="0 0 48 48" enable-background="new 0 0 48 48" xml:space="preserve">
<g>
	<path fill="#06728D" d="M32.4,44.5h-7v-7.3c0-0.8-0.7-1.5-1.5-1.5c-0.8,0-1.5,0.7-1.5,1.5v7.3h-7c-0.8,0-1.5,0.7-1.5,1.5
		c0,0.8,0.7,1.5,1.5,1.5h16.8c0.8,0,1.5-0.7,1.5-1.5C33.9,45.2,33.2,44.5,32.4,44.5z"/>
	<polygon fill="#BA2B28" points="8.3,22.4 10.4,21.9 9.8,18.9 	"/>
	<path fill="#F04B36" d="M41.7,0.5H6.3c-3.2,0-5.8,2.6-5.8,5.9v25.4c0,3.3,2.6,5.9,5.8,5.9h35.4c3.2,0,5.8-2.6,5.8-5.9V6.4
		C47.5,3.1,44.9,0.5,41.7,0.5z M16.2,23.6l-2.4,0.5l0.6,3.4c0.1,0.8-0.4,1.6-1.2,1.7c-0.1,0-0.2,0-0.3,0c-0.7,0-1.3-0.5-1.4-1.2
		l-0.6-3.3L6,25.9c-0.5,0.1-1.1-0.1-1.4-0.5c-0.3-0.4-0.4-1-0.2-1.5l4.7-10.4c0.3-0.6,0.9-0.9,1.5-0.8c0.6,0.1,1.1,0.6,1.3,1.2
		l1.4,7.4l2.3-0.5c0.8-0.2,1.6,0.3,1.7,1.1C17.4,22.7,16.9,23.5,16.2,23.6z M28.9,20.6l-3.2,0.6l0.5,2.2c0.2,0.8-0.3,1.6-1.1,1.8
		c-0.1,0-0.2,0-0.3,0c-0.7,0-1.3-0.5-1.4-1.2l-0.5-2.2l-3,0.6c-0.1,0-0.2,0-0.3,0c-0.7,0-1.3-0.5-1.4-1.2c-0.2-0.8,0.4-1.6,1.1-1.7
		l3-0.6l-0.4-2c-0.2-0.8,0.3-1.6,1.1-1.8c0.8-0.2,1.6,0.3,1.7,1.1l0.4,2l3.2-0.7c0.8-0.2,1.6,0.4,1.7,1.2
		C30.2,19.6,29.7,20.4,28.9,20.6z M42.6,22.4l-8.4,1.9c-0.1,0-0.2,0-0.3,0c-0.4,0-0.8-0.2-1-0.5c-0.4-0.4-0.5-0.9-0.4-1.4
		c0.1-0.2,0.6-2.1,2.8-5.5c1.4-2.2,1.4-3.7,1.4-4.1c-0.5-0.9-1-0.9-1.2-1c-1-0.2-2.2,0.8-2.5,1c-0.6,0.5-1.5,0.5-2.1-0.1
		c-0.5-0.6-0.5-1.5,0.1-2.1c0.2-0.2,2.4-2.1,4.9-1.7c1,0.2,2.3,0.7,3.4,2.6c0.1,0.1,0.1,0.2,0.1,0.3c0.1,0.3,0.7,2.9-1.7,6.7
		c-0.5,0.9-1,1.6-1.3,2.2l5.6-1.3c0.8-0.2,1.6,0.3,1.7,1.1C43.9,21.4,43.4,22.2,42.6,22.4z"/>
</g>
</svg>
