<?xml version="1.0" encoding="utf-8"?>
<!-- Generator: Adobe Illustrator 18.0.0, SVG Export Plug-In . SVG Version: 6.00 Build 0)  -->
<!DOCTYPE svg PUBLIC "-//W3C//DTD SVG 1.1//EN" "http://www.w3.org/Graphics/SVG/1.1/DTD/svg11.dtd">
<svg version="1.1" id="Layer_1" xmlns="http://www.w3.org/2000/svg" xmlns:xlink="http://www.w3.org/1999/xlink" x="0px" y="0px"
	 viewBox="0 0 48 48" enable-background="new 0 0 48 48" xml:space="preserve">
<g>
	<path fill="#0DB89A" d="M1.5,32.5l-1,10.2c0,0.4,0.2,0.8,0.5,0.9c0.1,0.1,0.3,0.1,0.4,0.1c0.2,0,0.5-0.1,0.7-0.3l7.4-7"/>
	<path fill="#010101" d="M20.6,35.1"/>
	<path fill="#06728D" d="M13.8,32.5l-1,10.2c0,0.4,0.2,0.8,0.5,0.9c0.1,0.1,0.3,0.1,0.4,0.1c0.2,0,0.5-0.1,0.7-0.3l7.4-7"/>
	<path fill="#F7A93B" d="M26.2,32.5l-1,10.2c0,0.4,0.2,0.8,0.5,0.9c0.1,0.1,0.3,0.1,0.4,0.1c0.2,0,0.5-0.1,0.7-0.3l7.5-7"/>
	<path fill="#0DB89A" d="M21.5,6.5l-4-2c-1.1-0.6-2.6,0-3.2,1.1l-1.7,3.4c-0.2,0.5,0,1,0.4,1.3l6.5,3.2c0.1,0.1,0.3,0.1,0.4,0.1
		c0.1,0,0.2,0,0.3-0.1c0.2-0.1,0.4-0.3,0.5-0.5l1.7-3.4c0.3-0.6,0.3-1.2,0.1-1.8C22.5,7.2,22.1,6.7,21.5,6.5z"/>
	<path fill="#06728D" d="M33.9,6.5l-4-2c-0.3-0.2-0.7-0.2-1-0.2c-0.9,0-1.7,0.5-2.1,1.3l-1.7,3.4c-0.2,0.5,0,1,0.4,1.3l6.5,3.2
		c0.1,0.1,0.3,0.1,0.4,0.1c0.1,0,0.2,0,0.3-0.1c0.2-0.1,0.4-0.3,0.5-0.5l1.7-3.4c0.3-0.6,0.3-1.2,0.1-1.8
		C34.9,7.2,34.4,6.7,33.9,6.5z"/>
	<path fill="#F7A93B" d="M47.4,7.8c-0.2-0.6-0.6-1.1-1.2-1.4l-4-2c-0.3-0.2-0.7-0.2-1-0.2c-0.9,0-1.7,0.5-2.1,1.3l-1.7,3.4
		c-0.2,0.5,0,1,0.4,1.3l6.5,3.2c0.1,0.1,0.3,0.1,0.4,0.1c0.1,0,0.2,0,0.3-0.1c0.2-0.1,0.4-0.3,0.5-0.5l1.7-3.4
		C47.5,9.1,47.6,8.4,47.4,7.8z"/>
	<path fill="#0DB89A" d="M19.3,14.3L12.7,11c-0.2-0.1-0.5-0.1-0.7,0c-0.2,0.1-0.4,0.3-0.5,0.5L2.1,30.3c-0.2,0.5,0,1,0.4,1.3
		l6.6,3.3C9.2,34.9,9.4,35,9.5,35c0.1,0,0.2,0,0.3-0.1c0.2-0.1,0.4-0.3,0.5-0.5l9.3-18.9C19.9,15.1,19.7,14.5,19.3,14.3z"/>
	<path fill="#06728D" d="M32.1,14.8c-0.1-0.2-0.3-0.4-0.5-0.5L25,11c-0.5-0.2-1,0-1.3,0.4l-9.3,18.9c-0.1,0.2-0.1,0.5,0,0.7
		c0.1,0.2,0.3,0.4,0.5,0.5l6.6,3.3c0.1,0.1,0.3,0.1,0.4,0.1c0.4,0,0.7-0.2,0.9-0.5L32,15.6C32.1,15.3,32.1,15.1,32.1,14.8z"/>
	<path fill="#F7A93B" d="M44.4,14.8c-0.1-0.2-0.3-0.4-0.5-0.5L37.3,11c-0.5-0.2-1,0-1.3,0.4l-9.3,18.9c-0.1,0.2-0.1,0.5,0,0.7
		c0.1,0.2,0.3,0.4,0.5,0.5l6.6,3.3c0.1,0.1,0.3,0.1,0.4,0.1c0.4,0,0.7-0.2,0.9-0.5l9.3-18.9C44.4,15.3,44.5,15.1,44.4,14.8z"/>
</g>
</svg>
