<?xml version="1.0" encoding="utf-8"?>
<!-- Generator: Adobe Illustrator 18.0.0, SVG Export Plug-In . SVG Version: 6.00 Build 0)  -->
<!DOCTYPE svg PUBLIC "-//W3C//DTD SVG 1.1//EN" "http://www.w3.org/Graphics/SVG/1.1/DTD/svg11.dtd">
<svg version="1.1" id="Layer_1" xmlns="http://www.w3.org/2000/svg" xmlns:xlink="http://www.w3.org/1999/xlink" x="0px" y="0px"
	 viewBox="0 0 48 48" enable-background="new 0 0 48 48" xml:space="preserve">
<g>
	<path fill="#F7A93B" d="M7.3,46.6c0,0.5,0.4,0.9,1,0.9h10.4V34.3c0-0.6,0.4-1,1-1h8.6c0.5,0,1,0.5,1,1v13.2h10.4c0.5,0,1-0.4,1-0.9
		V19.5H7.3V46.6z M34,23.3c0-0.5,0.4-0.9,1-0.9c0.5,0,1,0.4,1,0.9v6.7c0,0.5-0.4,0.9-1,0.9c-0.5,0-1-0.4-1-0.9V23.3z M34,34.9
		c0-0.5,0.4-0.9,1-0.9c0.5,0,1,0.4,1,0.9v6.7c0,0.5-0.4,0.9-1,0.9c-0.5,0-1-0.4-1-0.9V34.9z M26.7,23.3c0-0.5,0.4-0.9,1-0.9
		c0.5,0,1,0.4,1,0.9v6.7c0,0.5-0.4,0.9-1,0.9c-0.5,0-1-0.4-1-0.9V23.3z M19.4,23.3c0-0.5,0.4-0.9,1-0.9c0.5,0,1,0.4,1,0.9v6.7
		c0,0.5-0.4,0.9-1,0.9c-0.5,0-1-0.4-1-0.9V23.3z M12,23.3c0-0.5,0.4-0.9,1-0.9c0.5,0,1,0.4,1,0.9v6.7c0,0.5-0.4,0.9-1,0.9
		c-0.5,0-1-0.4-1-0.9V23.3z M12,34.9c0-0.5,0.4-0.9,1-0.9c0.5,0,1,0.4,1,0.9v6.7c0,0.5-0.4,0.9-1,0.9c-0.5,0-1-0.4-1-0.9V34.9z"/>
	<path fill="#F04B36" d="M47.1,16L24.6,0.7c-0.3-0.2-0.8-0.2-1.1,0L0.9,16c-0.3,0.2-0.5,0.7-0.4,1c0.1,0.4,0.5,0.6,0.9,0.6h5.9h33.3
		h5.9c0.4,0,0.8-0.3,0.9-0.6C47.6,16.7,47.4,16.3,47.1,16z"/>
</g>
</svg>
