<?xml version="1.0" encoding="utf-8"?>
<!-- Generator: Adobe Illustrator 18.0.0, SVG Export Plug-In . SVG Version: 6.00 Build 0)  -->
<!DOCTYPE svg PUBLIC "-//W3C//DTD SVG 1.1//EN" "http://www.w3.org/Graphics/SVG/1.1/DTD/svg11.dtd">
<svg version="1.1" id="Layer_1" xmlns="http://www.w3.org/2000/svg" xmlns:xlink="http://www.w3.org/1999/xlink" x="0px" y="0px"
	 viewBox="0 0 48 48" enable-background="new 0 0 48 48" xml:space="preserve">
<g>
	<rect x="0.8" y="5.7" fill="#CFD0D1" width="3" height="3"/>
	<path fill="#CFD0D1" d="M38.5,8.7h-5.8v-3h5.8V8.7z M26.9,8.7h-5.8v-3h5.8V8.7z M15.3,8.7H9.5v-3h5.8V8.7z"/>
	<rect x="44.2" y="5.7" fill="#CFD0D1" width="3" height="3"/>
	<rect x="0.8" y="16.9" fill="#CFD0D1" width="3" height="3"/>
	<path fill="#CFD0D1" d="M38.5,19.9h-5.8v-3h5.8V19.9z M26.9,19.9h-5.8v-3h5.8V19.9z M15.3,19.9H9.5v-3h5.8V19.9z"/>
	<rect x="44.2" y="16.9" fill="#CFD0D1" width="3" height="3"/>
	<rect x="0.8" y="28.1" fill="#CFD0D1" width="3" height="3"/>
	<path fill="#CFD0D1" d="M38.5,31.1h-5.8v-3h5.8V31.1z M26.9,31.1h-5.8v-3h5.8V31.1z M15.3,31.1H9.5v-3h5.8V31.1z"/>
	<rect x="44.2" y="28.1" fill="#CFD0D1" width="3" height="3"/>
	<rect x="0.8" y="39.3" fill="#CFD0D1" width="3" height="3"/>
	<path fill="#CFD0D1" d="M38.5,42.3h-5.8v-3h5.8V42.3z M26.9,42.3h-5.8v-3h5.8V42.3z M15.3,42.3H9.5v-3h5.8V42.3z"/>
	<rect x="44.2" y="39.3" fill="#CFD0D1" width="3" height="3"/>
	<path fill="#F04B36" d="M5.9,30.8c-0.2,0-0.4,0-0.6-0.1c-0.8-0.3-1.1-1.2-0.7-2L14.5,7c0.2-0.5,0.8-0.9,1.4-0.9c0,0,0,0,0,0
		c0.6,0,1.1,0.3,1.4,0.9L27,28.6c0.3,0.8,0,1.6-0.7,2c-0.8,0.3-1.6,0-2-0.8l-8.4-18.6L7.3,29.9C7,30.4,6.5,30.8,5.9,30.8z"/>
	<path fill="#F04B36" d="M21.7,22.3H9.9c-0.8,0-1.5-0.7-1.5-1.5c0-0.8,0.7-1.5,1.5-1.5h11.8c0.8,0,1.5,0.7,1.5,1.5
		C23.2,21.7,22.5,22.3,21.7,22.3z"/>
	<path fill="#06728D" d="M34.4,31.3c-4,0-7.2-3.2-7.2-7.2c0-4,3.2-7.2,7.2-7.2s7.2,3.2,7.2,7.2C41.6,28.1,38.4,31.3,34.4,31.3z
		 M34.4,20c-2.3,0-4.2,1.9-4.2,4.2c0,2.3,1.9,4.2,4.2,4.2s4.2-1.9,4.2-4.2C38.6,21.8,36.7,20,34.4,20z"/>
	<path fill="#06728D" d="M40.3,31.2c-0.8,0-1.5-0.7-1.5-1.5V18.3c0-0.8,0.7-1.5,1.5-1.5c0.8,0,1.5,0.7,1.5,1.5v11.3
		C41.8,30.5,41.2,31.2,40.3,31.2z"/>
</g>
</svg>
