<?xml version="1.0" encoding="utf-8"?>
<!-- Generator: Adobe Illustrator 18.0.0, SVG Export Plug-In . SVG Version: 6.00 Build 0)  -->
<!DOCTYPE svg PUBLIC "-//W3C//DTD SVG 1.1//EN" "http://www.w3.org/Graphics/SVG/1.1/DTD/svg11.dtd">
<svg version="1.1" id="Layer_1" xmlns="http://www.w3.org/2000/svg" xmlns:xlink="http://www.w3.org/1999/xlink" x="0px" y="0px"
	 viewBox="0 0 48 48" enable-background="new 0 0 48 48" xml:space="preserve">
<g>
	<path fill="#F04B36" d="M36.4,23.5l-6-3l-3-4.2c-0.4-1.9-1.8-3.4-3.6-4.1c-0.7,0.3-1.5,0.5-2.4,0.5c-0.7,0-1.4-0.1-2.1-0.4
		c-1,0.5-1.9,1.2-2.5,2.2c-0.1-0.1-0.3-0.1-0.4-0.1h-5.8c-0.5,0-1,0.4-1,1v10.8c0,0.5,0.4,1,1,1h5.4L10,42.9
		c-0.7,1.7,0.2,3.7,1.9,4.4c0.4,0.2,0.8,0.2,1.2,0.2c1.4,0,2.6-0.9,3.1-2.2l5.3-13.7c0.3,0,0.7,0,1-0.1l4.1,5l0.6,7.8
		c0.1,1.8,1.6,3.1,3.4,3.1c0.1,0,0.2,0,0.2,0c0.9-0.1,1.7-0.5,2.3-1.2c0.6-0.7,0.9-1.6,0.8-2.5l-0.6-8.8c0-0.7-0.3-1.3-0.7-1.9
		l-5.1-6.3c0-0.1,0-0.2,0.1-0.3l5.9,2.9c0.5,0.2,1,0.4,1.5,0.4c1.3,0,2.4-0.7,3-1.9C38.7,26.3,38.1,24.3,36.4,23.5z M15.6,25.2h-3.9
		v-8.9h3.9V25.2z"/>
	<path fill="#F7A93B" d="M21.5,0.5c-3.2,0-5.7,2.6-5.7,5.7c0,2.4,1.5,4.5,3.7,5.3c0.6,0.2,1.3,0.4,2.1,0.4c0.8,0,1.6-0.2,2.4-0.5
		c2-0.9,3.4-2.9,3.4-5.2C27.2,3.1,24.6,0.5,21.5,0.5z"/>
</g>
</svg>
