<?xml version="1.0" encoding="utf-8"?>
<!-- Generator: Adobe Illustrator 18.0.0, SVG Export Plug-In . SVG Version: 6.00 Build 0)  -->
<!DOCTYPE svg PUBLIC "-//W3C//DTD SVG 1.1//EN" "http://www.w3.org/Graphics/SVG/1.1/DTD/svg11.dtd">
<svg version="1.1" id="Layer_1" xmlns="http://www.w3.org/2000/svg" xmlns:xlink="http://www.w3.org/1999/xlink" x="0px" y="0px"
	 viewBox="0 0 48 48" enable-background="new 0 0 48 48" xml:space="preserve">
<g>
	<path fill="#F04B36" d="M33.9,32.1L24,33.9l-9.7-1.7c-0.5-0.1-1,0.3-1.1,0.8c-0.1,0.5,0.3,1,0.8,1.1l9.8,1.8c0.1,0,0.1,0,0.2,0l0,0
		h0h0l0,0c0.1,0,0.1,0,0.2,0L34.3,34c0.5-0.1,0.9-0.6,0.8-1.1C35,32.4,34.5,32,33.9,32.1z"/>
	<path fill="#F7A93B" d="M15.3,34.5c-0.6-2-1.5-4.4-1.5-5.4c0.1-0.2,0.3-0.8,0.6-1.2c0.9-1.8,2.2-4.4,1.2-6.2
		c-0.3-0.5-0.8-0.8-1.4-0.8c-1.9,0-4.9,3.4-4.9,3.4c-0.3,0.4-0.5,0.7-0.7,1c0,0.1-0.1,0.2-0.1,0.2l0-6.4c0-0.5-0.4-0.9-0.8-1
		c-0.5-0.1-0.9-0.1-1.3-0.1c-3.5,0-4.5,2.3-4.7,3c-0.1,0.3-0.3,0.9-0.2,1.6c0,0.4,0.2,0.8,0.3,1c0,0.1,0.1,0.2,0.1,0.2
		c0,0.1-0.1,0.2-0.2,0.4c-0.2,0.2-0.3,0.5-0.4,0.8c-0.2,0.7-0.2,1.4-0.1,2c0,0.4-0.1,0.7-0.2,1c-0.1,0.4-0.2,0.8-0.2,1.4
		c0,2,1.6,4.1,3,5.8c1,1.2,3.4,4.5,4.7,6.8c0.2,0.3,0.5,0.5,0.8,0.5c0.1,0,0.3,0,0.4-0.1l6.6-3.1c0.4-0.2,0.6-0.7,0.5-1.1
		C16.3,37.4,15.8,36,15.3,34.5z"/>
	<path fill="#0DB89A" d="M40.9,9.6L39,8.9V8.4c0-0.3-0.1-0.6-0.4-0.8c-0.1-0.1-3.2-2.3-7.6-2.3c-2.4,0-4.8,0.7-7,1.9
		c-2.2-1.3-4.6-1.9-7-1.9c-4.4,0-7.5,2.2-7.6,2.3C9.2,7.8,9,8.1,9,8.4v0.5L7.2,9.6c-0.4,0.1-0.6,0.5-0.6,0.9v6.7
		c0.4,0,0.7,0,1.1,0.1c1,0.1,1.7,0.9,1.7,1.9l0,3.7c1.2-1.2,3.2-2.8,4.8-2.8c0.9,0,1.8,0.5,2.2,1.3c1.3,2.3-0.1,5.1-1.2,7.1
		c-0.1,0.2-0.3,0.6-0.4,0.8c0,0,0,0.1,0,0.2c0.5,0,1-0.1,1.5-0.1c4.5,0,7,1.8,7.1,1.9c0,0,0,0,0.1,0c0,0,0.1,0,0.1,0.1
		c0,0,0,0,0.1,0c0.1,0.1,0.3,0.1,0.4,0.1c0.1,0,0.3,0,0.4-0.1c0,0,0,0,0.1,0c0,0,0.1,0,0.1-0.1c0,0,0,0,0.1,0c0,0,2.5-1.9,7.1-1.9
		c0.5,0,1,0,1.5,0.1c0-0.1,0-0.1,0-0.2c-0.1-0.2-0.3-0.6-0.4-0.8c-1.1-2-2.5-4.9-1.2-7.1c0.5-0.8,1.3-1.3,2.2-1.3
		c1.7,0,3.7,1.7,4.8,2.8l0-3.7c0-1,0.7-1.8,1.7-1.9c0.4-0.1,0.8-0.1,1.2-0.1v-6.7C41.5,10.1,41.2,9.7,40.9,9.6z"/>
	<path fill="#F7A93B" d="M47.3,28.2c-0.1-0.4-0.2-0.7-0.2-1.1c0-0.6,0.1-1.3-0.1-1.9c-0.1-0.3-0.3-0.6-0.4-0.8
		c-0.1-0.1-0.2-0.3-0.2-0.3c0,0,0.1-0.2,0.1-0.2c0.1-0.3,0.3-0.6,0.3-1c0-0.6-0.1-1.2-0.2-1.6c-0.2-0.7-1.2-3-4.7-3
		c-0.4,0-0.9,0-1.3,0.1c-0.5,0.1-0.8,0.5-0.8,1l0,6.4c0-0.1-0.1-0.1-0.1-0.2c-0.2-0.3-0.4-0.7-0.7-1c0,0-3-3.4-4.9-3.4
		c-0.6,0-1.1,0.3-1.4,0.8c-1.1,1.8,0.2,4.3,1.2,6.2c0.2,0.4,0.5,0.9,0.6,1.2c-0.1,0.9-0.9,3.4-1.5,5.4c-0.5,1.5-0.9,2.9-1.2,3.9
		c-0.1,0.5,0.1,0.9,0.5,1.1l6.6,3.1c0.1,0.1,0.3,0.1,0.4,0.1c0.3,0,0.7-0.2,0.8-0.5c1.3-2.3,3.7-5.6,4.7-6.8c1.4-1.6,3-3.7,3-5.8
		C47.5,29.1,47.4,28.6,47.3,28.2z"/>
</g>
</svg>
