<?xml version="1.0" encoding="utf-8"?>
<!-- Generator: Adobe Illustrator 18.0.0, SVG Export Plug-In . SVG Version: 6.00 Build 0)  -->
<!DOCTYPE svg PUBLIC "-//W3C//DTD SVG 1.1//EN" "http://www.w3.org/Graphics/SVG/1.1/DTD/svg11.dtd">
<svg version="1.1" id="Layer_1" xmlns="http://www.w3.org/2000/svg" xmlns:xlink="http://www.w3.org/1999/xlink" x="0px" y="0px"
	 viewBox="0 0 48 48" enable-background="new 0 0 48 48" xml:space="preserve">
<g>
	<path fill="#E77528" d="M14.8,26c-0.9,0-1.7-0.4-2.2-1c-1.1-1.2-0.9-3.1,0.3-4.1l4.6-4c0.4-0.3,1-0.3,1.3,0.1
		c0.3,0.4,0.3,1-0.1,1.3l-4.6,4c-0.5,0.4-0.5,1.1-0.1,1.6c0.4,0.4,1.1,0.5,1.6,0.1l1.8-1.6c0.4-0.3,1-0.3,1.3,0.1
		c0.3,0.4,0.3,1-0.1,1.3l-1.8,1.6C16.2,25.7,15.5,26,14.8,26z"/>
	<path fill="#06728D" d="M29.4,1.8l-5.1-1.3c-0.1,0-0.3,0-0.4,0l-5.1,1.3C18.3,1.9,18,2.3,18,2.7c0,0.4,0.3,0.8,0.7,0.9L20.5,4v0.6
		c-0.8,0.9-1.3,2.1-1.3,3.3c0,2.7,2.2,4.8,4.8,4.8c2.7,0,4.8-2.2,4.8-4.8c0-1.2-0.5-2.4-1.3-3.3V4l1.8-0.4c0.4-0.1,0.7-0.5,0.7-0.9
		S29.8,1.9,29.4,1.8z"/>
	<path fill="#F7A93B" d="M35.4,42.6L30,36.4V33c0-0.1,0-0.2,0-0.2v-4.8l4.2-3c0.7-0.5,1.2-1.3,1.2-2.2c0-0.9-0.3-1.7-1-2.3l-5.8-5.2
		c-0.7-0.6-1.5-0.8-2.4-0.7c-0.2,0-0.3,0-0.5,0h-3.9c-2.4,0-4.3,1.9-4.3,4.3v13.8l-4.5,11c-0.6,1.5,0.1,3.2,1.6,3.8
		c0.4,0.1,0.7,0.2,1.1,0.2c1.2,0,2.3-0.7,2.7-1.8l4.9-10.4l0.7,2.3c0,0.7,0.3,1.3,0.7,1.8l6.1,7c0.6,0.6,1.4,1,2.2,1
		c0.7,0,1.4-0.3,1.9-0.7c0.6-0.5,0.9-1.2,1-2C36.1,44,35.9,43.2,35.4,42.6z M29,32.6h-8.4c-0.5,0-0.9-0.4-0.9-0.9v-7.8
		c0-0.5,0.4-0.9,0.9-0.9H27c0.5,0,0.9,0.4,0.9,0.9c0,0.5-0.4,0.9-0.9,0.9h-5.5v6H29c0.5,0,0.9,0.4,0.9,0.9
		C29.9,32.2,29.5,32.6,29,32.6z"/>
</g>
</svg>
