<?xml version="1.0" encoding="utf-8"?>
<!-- Generator: Adobe Illustrator 18.0.0, SVG Export Plug-In . SVG Version: 6.00 Build 0)  -->
<!DOCTYPE svg PUBLIC "-//W3C//DTD SVG 1.1//EN" "http://www.w3.org/Graphics/SVG/1.1/DTD/svg11.dtd">
<svg version="1.1" id="Layer_1" xmlns="http://www.w3.org/2000/svg" xmlns:xlink="http://www.w3.org/1999/xlink" x="0px" y="0px"
	 viewBox="0 0 48 48" enable-background="new 0 0 48 48" xml:space="preserve">
<g>
	<path fill="#0DB89A" d="M42.7,5H5.3C2.7,5,0.5,7.2,0.5,9.9v32.7c0,2.7,2.2,4.9,4.8,4.9h37.3c2.7,0,4.8-2.2,4.8-4.9V9.9
		C47.5,7.2,45.3,5,42.7,5z M41.5,41.2c0,0.5-0.4,1-1,1H7.5c-0.5,0-1-0.4-1-1V15.6c0-0.5,0.4-1,1-1h33.1c0.5,0,1,0.4,1,1V41.2z"/>
	<path fill="#294E58" d="M12.1,11.3c-0.5,0-1-0.4-1-1V1.5c0-0.5,0.4-1,1-1c0.5,0,1,0.4,1,1v8.8C13,10.9,12.6,11.3,12.1,11.3z"/>
	<path fill="#294E58" d="M35.9,11.3c-0.5,0-1-0.4-1-1V1.5c0-0.5,0.4-1,1-1c0.5,0,1,0.4,1,1v8.8C36.9,10.9,36.5,11.3,35.9,11.3z"/>
	<path fill="#F04B36" d="M23.3,37.7h-9.8c-0.5,0-1-0.3-1.3-0.8c-0.3-0.5-0.2-1,0-1.5c0.3-0.5,0.8-1,1.8-2c2.2-2.2,6.9-6.7,6.1-9.8
		c-0.3-1-0.7-1.3-1.1-1.5c-1.5-0.7-4.2,0.2-5,0.6c-0.7,0.3-1.6,0-1.9-0.7c-0.3-0.7,0-1.6,0.7-2c0.5-0.2,4.5-2.1,7.5-0.6
		c1.3,0.6,2.3,1.8,2.7,3.4c1.1,4.3-3,8.8-6.1,11.8h6.3c0.8,0,1.5,0.7,1.5,1.5S24.1,37.7,23.3,37.7z"/>
	<path fill="#F04B36" d="M32.4,38.2c-0.8,0-1.5-0.7-1.5-1.5V22.6l-1.1,0.7c-0.7,0.4-1.6,0.2-2-0.5c-0.4-0.7-0.2-1.6,0.5-2l3.3-1.9
		c0.5-0.3,1-0.3,1.5,0c0.4,0.3,0.7,0.8,0.7,1.3v16.7C33.8,37.6,33.2,38.2,32.4,38.2z"/>
	<path fill="#F04B36" d="M34.5,38.2h-4.7c-0.8,0-1.5-0.7-1.5-1.5c0-0.8,0.7-1.5,1.5-1.5h4.7c0.8,0,1.5,0.7,1.5,1.5
		C36,37.6,35.3,38.2,34.5,38.2z"/>
</g>
</svg>
