<?xml version="1.0" encoding="utf-8"?>
<!-- Generator: Adobe Illustrator 18.0.0, SVG Export Plug-In . SVG Version: 6.00 Build 0)  -->
<!DOCTYPE svg PUBLIC "-//W3C//DTD SVG 1.1//EN" "http://www.w3.org/Graphics/SVG/1.1/DTD/svg11.dtd">
<svg version="1.1" id="Layer_1" xmlns="http://www.w3.org/2000/svg" xmlns:xlink="http://www.w3.org/1999/xlink" x="0px" y="0px"
	 viewBox="0 0 48 48" enable-background="new 0 0 48 48" xml:space="preserve">
<g>
	<path fill="#4DA0D8" d="M22.7,14.2C14.5,10,7.5,9.3,4.1,9.3c-1.8,0-2.8,0.2-2.8,0.2c-0.4,0.1-0.8,0.5-0.8,1l0.2,32
		c0,0.3,0.1,0.5,0.3,0.7c0.2,0.2,0.5,0.3,0.7,0.2c0.6-0.1,1.2-0.1,1.9-0.1c7.3,0,18.3,4.1,18.4,4.1c0.1,0,0.2,0.1,0.3,0.1
		c0.2,0,0.4-0.1,0.5-0.2c0.2-0.2,0.4-0.5,0.4-0.8V15.1C23.3,14.7,23.1,14.4,22.7,14.2z"/>
	<path fill="#4DA0D8" d="M46.7,9.5c0,0-1.1-0.2-2.8-0.2c-3.4,0-10.4,0.6-18.7,4.9c-0.3,0.2-0.5,0.5-0.5,0.9v31.4
		c0,0.3,0.1,0.6,0.4,0.8c0.2,0.1,0.3,0.2,0.5,0.2c0.1,0,0.2,0,0.3-0.1c0.1,0,11.1-4.1,18.4-4.1c0.7,0,1.3,0,1.9,0.1
		c0.3,0,0.5-0.1,0.7-0.2c0.2-0.2,0.3-0.4,0.3-0.7l0.2-32C47.5,10,47.2,9.6,46.7,9.5z"/>
	<path fill="#CFD0D1" d="M21.7,12.3c-0.2,0-0.4-0.1-0.6-0.2C14.6,6.4,5.8,6.3,5.7,6.3c-0.5,0-0.9-0.4-0.9-1c0-0.5,0.4-1,0.9-1
		c0.4,0,9.6,0.1,16.5,6.2c0.4,0.3,0.4,1,0.1,1.4C22.2,12.2,22,12.3,21.7,12.3z"/>
	<path fill="#CFD0D1" d="M22.9,10.3c-0.3,0-0.6-0.1-0.8-0.4c-2.9-4.6-9.4-7.5-9.5-7.6c-0.5-0.2-0.7-0.8-0.5-1.3
		c0.2-0.5,0.7-0.7,1.2-0.5c0.3,0.1,7.1,3.2,10.3,8.3c0.3,0.4,0.2,1-0.2,1.3C23.2,10.3,23,10.3,22.9,10.3z"/>
	<path fill="#CFD0D1" d="M26.3,12.3c-0.3,0-0.5-0.1-0.7-0.4c-0.3-0.4-0.3-1,0.1-1.4c7-6.2,16.1-6.2,16.5-6.2c0.5,0,0.9,0.4,0.9,1
		c0,0.5-0.4,1-0.9,1c-0.1,0-8.9,0.1-15.4,5.8C26.7,12.2,26.5,12.3,26.3,12.3z"/>
	<path fill="#CFD0D1" d="M25.1,10.3c-0.2,0-0.4-0.1-0.5-0.2c-0.4-0.3-0.5-0.9-0.2-1.3c3.2-5.1,10-8.1,10.3-8.3c0.5-0.2,1,0,1.2,0.5
		c0.2,0.5,0,1.1-0.5,1.3c-0.1,0-6.6,3-9.5,7.6C25.7,10.2,25.4,10.3,25.1,10.3z"/>
</g>
</svg>
