<?xml version="1.0" encoding="utf-8"?>
<!-- Generator: Adobe Illustrator 18.0.0, SVG Export Plug-In . SVG Version: 6.00 Build 0)  -->
<!DOCTYPE svg PUBLIC "-//W3C//DTD SVG 1.1//EN" "http://www.w3.org/Graphics/SVG/1.1/DTD/svg11.dtd">
<svg version="1.1" id="Layer_1" xmlns="http://www.w3.org/2000/svg" xmlns:xlink="http://www.w3.org/1999/xlink" x="0px" y="0px"
	 viewBox="0 0 48 48" enable-background="new 0 0 48 48" xml:space="preserve">
<g>
	<path fill="#F7A93B" d="M38.7,14.9c-2.8,0-5.1,2.2-5.1,5c0,2.8,2.3,5,5.1,5c2.8,0,5.1-2.2,5.1-5C43.9,17.1,41.6,14.9,38.7,14.9z"/>
	<path fill="#F04B36" d="M47.5,28.8c0-0.2-0.1-1.4-0.9-2c-0.8-0.7-1.7-0.9-2.3-0.9c-0.1,0-0.2,0-0.2,0H31.5c-0.1,0-0.2,0-0.2,0h-0.3
		c-0.2,0-0.4,0.1-0.6,0.2c-0.4,0.2-0.8,0.5-1.1,0.9l-2.8,3.7l-3.7-3.6c-1-1-2.9-1-4,0c-1.1,1.1-1.1,2.8,0,3.8l6,5.9
		c0.5,0.5,1.2,0.8,2,0.8l0.2,0c0.8-0.1,1.6-0.5,2-1.1l1-1.3v11.4c0,0.5,0.4,1,1,1h15.6c0.6,0,1-0.4,1-1L47.5,28.8z"/>
	<path fill="#FFD69A" d="M26.6,5.2L1.7,0.5c-0.3-0.1-0.6,0-0.8,0.2C0.6,0.9,0.5,1.2,0.5,1.5v26.8c0,0.3,0.1,0.6,0.4,0.8
		c0.2,0.1,0.4,0.2,0.6,0.2c0.1,0,0.2,0,0.3,0l15.7-4.4l-3.1-9.7c-0.2-0.5,0.1-1.1,0.7-1.2c0.5-0.2,1.1,0.1,1.3,0.6l3.1,9.7l7.3-2
		c0.4-0.1,0.7-0.5,0.7-0.9V6.2C27.4,5.7,27,5.3,26.6,5.2z M10.1,5.2c1.5,0,2.7,1.2,2.7,2.6c0,1.4-1.2,2.6-2.7,2.6
		c-1.5,0-2.7-1.2-2.7-2.6C7.4,6.4,8.6,5.2,10.1,5.2z M15.8,10.6l-4.5,2.7v3.5l3.8,3.5c0.4,0.4,0.4,1,0,1.4c-0.2,0.2-0.5,0.3-0.7,0.3
		c-0.2,0-0.5-0.1-0.7-0.3l-3.3-3l-3.4,5.1c-0.2,0.3-0.5,0.4-0.8,0.4c-0.2,0-0.4-0.1-0.5-0.2c-0.5-0.3-0.6-0.9-0.3-1.3l3.9-5.8v-3.6
		l-4.6-2.7c-0.5-0.3-0.6-0.9-0.3-1.3c0.3-0.5,0.9-0.6,1.4-0.3l4.4,2.6c0,0,0.1,0,0.1,0c0,0,0.1,0,0.1,0l4.3-2.6
		c0.5-0.3,1.1-0.1,1.4,0.3C16.5,9.7,16.3,10.3,15.8,10.6z"/>
	<path fill="#5C2D2D" d="M18.5,28c0.1,0.4,0.5,0.7,1,0.7c0.1,0,0.2,0,0.3,0c0.5-0.2,0.8-0.7,0.7-1.2l-1-3.2l-1.9,0.5L18.5,28z"/>
</g>
</svg>
