<?xml version="1.0" encoding="utf-8"?>
<!-- Generator: Adobe Illustrator 18.0.0, SVG Export Plug-In . SVG Version: 6.00 Build 0)  -->
<!DOCTYPE svg PUBLIC "-//W3C//DTD SVG 1.1//EN" "http://www.w3.org/Graphics/SVG/1.1/DTD/svg11.dtd">
<svg version="1.1" id="Layer_1" xmlns="http://www.w3.org/2000/svg" xmlns:xlink="http://www.w3.org/1999/xlink" x="0px" y="0px"
	 viewBox="0 0 48 48" enable-background="new 0 0 48 48" xml:space="preserve">
<g>
	<path fill="#CFD0D1" d="M23.4,4.2c-3.1-2.5-6.6-3.7-10.5-3.7C6.4,0.5,1.1,4,0.9,4.2C0.7,4.4,0.5,4.7,0.5,5v29.5
		c0,0.3,0.2,0.7,0.4,0.8c0.2,0.1,0.3,0.2,0.5,0.2c0.1,0,0.3,0,0.4-0.1c3-1.5,6.3-2.2,9.8-2.2c6,0,10.7,2.2,10.7,2.2
		c0.3,0.1,0.6,0.1,0.9-0.1c0.3-0.2,0.4-0.5,0.4-0.8V5C23.8,4.7,23.6,4.4,23.4,4.2z M5.9,19.9c0.3-0.1,7.2-2.5,12.5,0
		c0.5,0.2,0.7,0.8,0.5,1.3c-0.2,0.5-0.8,0.7-1.3,0.5c-4.6-2.2-11,0-11.1,0c-0.1,0-0.2,0.1-0.3,0.1c-0.4,0-0.8-0.3-0.9-0.7
		C5.1,20.7,5.4,20.1,5.9,19.9z M5.9,13.8c0.3-0.1,7.2-2.5,12.5,0c0.5,0.2,0.7,0.8,0.5,1.3c-0.2,0.5-0.8,0.7-1.3,0.5
		c-4.6-2.2-11,0-11.1,0c-0.1,0-0.2,0.1-0.3,0.1c-0.4,0-0.8-0.3-0.9-0.7C5.1,14.6,5.4,14,5.9,13.8z M18.8,27.4
		c-0.2,0.5-0.8,0.7-1.3,0.5c-4.6-2.2-11,0-11.1,0C6.4,28,6.3,28,6.2,28c-0.4,0-0.8-0.3-0.9-0.7c-0.2-0.5,0.1-1.1,0.6-1.3
		c0.3-0.1,7.2-2.5,12.5,0C18.8,26.3,19,26.9,18.8,27.4z M18.8,9c-0.2,0.5-0.8,0.7-1.3,0.5c-4.6-2.2-11,0-11.1,0
		c-0.1,0-0.2,0.1-0.3,0.1c-0.4,0-0.8-0.3-0.9-0.7C5.1,8.4,5.4,7.9,5.9,7.7c0.3-0.1,7.2-2.5,12.5,0C18.8,8,19,8.5,18.8,9z"/>
	<path fill="#CFD0D1" d="M27.6,29.9l3-1.3c0.1-2.1,0.4-9.1,0.4-10.4c0-2,1.8-3.4,3.5-3.4c1.7,0,2.5,2.1,2.5,2.4
		c0,0.1,0.1,0.2,0.1,0.3c0.1,3.6,0.4,7.9,0.8,8.9c0.7,0.3,1.2,0.8,1.6,1.3c0.6-0.5,1.4-1,2.3-1c0.6,0,1.1,0.2,1.5,0.6
		c0.2,0.2,0.4,0.5,0.5,0.8c0.5-0.3,1.2-0.6,2-0.6c0.4,0,0.8,0.1,1.1,0.3V5c0-0.3-0.1-0.6-0.4-0.8C43.5,1.8,39.9,0.5,36,0.5
		c-6.5,0-11.8,3.5-12,3.7c-0.3,0.2-0.4,0.5-0.4,0.8v29.5c0,0.3,0.2,0.7,0.4,0.8c0.2,0.1,0.3,0.2,0.5,0.2c0.1,0,0.3,0,0.4-0.1
		c1-0.5,2.1-0.9,3.2-1.3l-1.1-3C26.9,30.6,27.1,30.1,27.6,29.9z M28.5,7.7c0.3-0.1,7.2-2.5,12.5,0C41.4,8,41.6,8.5,41.4,9
		c-0.2,0.4-0.5,0.6-0.9,0.6c-0.1,0-0.3,0-0.4-0.1c-4.6-2.2-11,0-11.1,0c-0.5,0.2-1-0.1-1.2-0.6C27.7,8.4,28,7.9,28.5,7.7z"/>
	<path fill="#F7A93B" d="M32.7,47.5l-0.1-4.6L28,30.8l3.6-1.5l0-0.6c0-0.9,0.4-9,0.4-10.4c0-1.4,1.3-2.4,2.5-2.4
		c1,0,1.6,1.7,1.6,1.7c0.1,2.9,0.3,8,0.9,9.3l0.2,0.4l0.4,0.1c0.5,0.2,0.9,0.6,1.2,1l0.6,0.8l0.8-0.7c0.4-0.3,1-0.8,1.7-0.8
		c0.3,0,0.6,0.1,0.8,0.3c0.1,0.1,0.2,0.3,0.3,0.5l0.4,1l0.9-0.5c0.5-0.3,1-0.4,1.6-0.4c1.5,0,1.6,2.5,1.6,2.6l-3.3,11.1v5.1H32.7z"
		/>
</g>
</svg>
