<?xml version="1.0" encoding="utf-8"?>
<!-- Generator: Adobe Illustrator 18.0.0, SVG Export Plug-In . SVG Version: 6.00 Build 0)  -->
<!DOCTYPE svg PUBLIC "-//W3C//DTD SVG 1.1//EN" "http://www.w3.org/Graphics/SVG/1.1/DTD/svg11.dtd">
<svg version="1.1" id="Layer_1" xmlns="http://www.w3.org/2000/svg" xmlns:xlink="http://www.w3.org/1999/xlink" x="0px" y="0px"
	 viewBox="0 0 48 48" enable-background="new 0 0 48 48" xml:space="preserve">
<g>
	<path fill="#06728D" d="M39.2,33.8c0-0.7-0.6-1.3-1.3-1.3H10.4c-4.6,0-8.3,3.4-8.3,7.5c0,4.1,3.7,7.5,8.3,7.5h27.5
		c0.7,0,1.3-0.6,1.3-1.3c0-0.7-0.6-1.3-1.3-1.3H10.4c-3.1,0-5.7-2.2-5.7-4.9c0-2.7,2.5-4.9,5.7-4.9h27.5
		C38.6,35.1,39.2,34.5,39.2,33.8z"/>
	<path fill="#06728D" d="M35.9,36.6H8.7c-0.7,0-1.3,0.6-1.3,1.3c0,0.7,0.6,1.3,1.3,1.3h27.2c0.7,0,1.3-0.6,1.3-1.3
		C37.2,37.2,36.6,36.6,35.9,36.6z"/>
	<path fill="#06728D" d="M35.9,40.8H8.7c-0.7,0-1.3,0.6-1.3,1.3s0.6,1.3,1.3,1.3h27.2c0.7,0,1.3-0.6,1.3-1.3S36.6,40.8,35.9,40.8z"
		/>
	<path fill="#0DB89A" d="M37.6,16H10.1c-0.7,0-1.3,0.6-1.3,1.3c0,0.7,0.6,1.3,1.3,1.3h27.5c3.1,0,5.7,2.2,5.7,4.9
		c0,2.7-2.5,4.9-5.7,4.9H10.1c-0.7,0-1.3,0.6-1.3,1.3c0,0.7,0.6,1.3,1.3,1.3h27.5c4.6,0,8.3-3.4,8.3-7.5C45.9,19.4,42.2,16,37.6,16z
		"/>
	<path fill="#0DB89A" d="M12.1,22.9h27.2c0.7,0,1.3-0.6,1.3-1.3c0-0.7-0.6-1.3-1.3-1.3H12.1c-0.7,0-1.3,0.6-1.3,1.3
		C10.8,22.4,11.4,22.9,12.1,22.9z"/>
	<path fill="#0DB89A" d="M12.1,26.7h27.2c0.7,0,1.3-0.6,1.3-1.3c0-0.7-0.6-1.3-1.3-1.3H12.1c-0.7,0-1.3,0.6-1.3,1.3
		C10.8,26.1,11.4,26.7,12.1,26.7z"/>
	<path fill="#F04B36" d="M15.1,12.9c0,0.7,0.6,1.3,1.3,1.3h20.8c3.6,0,6.6-3.1,6.6-6.9c0-3.8-3-6.9-6.6-6.9H16.4
		c-0.7,0-1.3,0.6-1.3,1.3c0,0.7,0.6,1.3,1.3,1.3h20.8c2.2,0,4,1.9,4,4.2c0,2.3-1.8,4.2-4,4.2H16.4C15.7,11.6,15.1,12.2,15.1,12.9z"
		/>
	<path fill="#F04B36" d="M17.9,6.8h20.6c0.7,0,1.3-0.6,1.3-1.3c0-0.7-0.6-1.3-1.3-1.3H17.9c-0.7,0-1.3,0.6-1.3,1.3
		C16.5,6.2,17.1,6.8,17.9,6.8z"/>
	<path fill="#F04B36" d="M17.9,10.5h20.6c0.7,0,1.3-0.6,1.3-1.3c0-0.7-0.6-1.3-1.3-1.3H17.9c-0.7,0-1.3,0.6-1.3,1.3
		C16.5,9.9,17.1,10.5,17.9,10.5z"/>
</g>
</svg>
