<?xml version="1.0" encoding="utf-8"?>
<!-- Generator: Adobe Illustrator 18.0.0, SVG Export Plug-In . SVG Version: 6.00 Build 0)  -->
<!DOCTYPE svg PUBLIC "-//W3C//DTD SVG 1.1//EN" "http://www.w3.org/Graphics/SVG/1.1/DTD/svg11.dtd">
<svg version="1.1" id="Layer_1" xmlns="http://www.w3.org/2000/svg" xmlns:xlink="http://www.w3.org/1999/xlink" x="0px" y="0px"
	 viewBox="0 0 48 48" enable-background="new 0 0 48 48" xml:space="preserve">
<g>
	<rect x="11.5" y="6.2" fill="#F7A93B" width="25" height="11.3"/>
	<path fill="#06728D" d="M38.3,0.5H9.7C7.7,0.5,6,2.1,6,4v40c0,1.9,1.7,3.5,3.7,3.5h28.5c2.1,0,3.7-1.6,3.7-3.5V4
		C42,2.1,40.3,0.5,38.3,0.5z M12.7,7.6h22.5v8.6H12.7V7.6z M16.5,39.2h-3c-0.5,0-1-0.4-1-1c0-0.5,0.4-1,1-1h3c0.5,0,1,0.4,1,1
		C17.5,38.8,17.1,39.2,16.5,39.2z M16.5,31.9h-3c-0.5,0-1-0.4-1-1c0-0.5,0.4-1,1-1h3c0.5,0,1,0.4,1,1C17.5,31.4,17.1,31.9,16.5,31.9
		z M16.5,24.5h-3c-0.5,0-1-0.4-1-1c0-0.5,0.4-1,1-1h3c0.5,0,1,0.4,1,1C17.5,24,17.1,24.5,16.5,24.5z M25.5,39.2h-3c-0.5,0-1-0.4-1-1
		c0-0.5,0.4-1,1-1h3c0.5,0,1,0.4,1,1C26.5,38.8,26,39.2,25.5,39.2z M25.5,31.9h-3c-0.5,0-1-0.4-1-1c0-0.5,0.4-1,1-1h3
		c0.5,0,1,0.4,1,1C26.5,31.4,26,31.9,25.5,31.9z M25.5,24.5h-3c-0.5,0-1-0.4-1-1c0-0.5,0.4-1,1-1h3c0.5,0,1,0.4,1,1
		C26.5,24,26,24.5,25.5,24.5z M34.4,39.2h-3c-0.5,0-1-0.4-1-1c0-0.5,0.4-1,1-1h3c0.5,0,1,0.4,1,1C35.4,38.8,35,39.2,34.4,39.2z
		 M34.4,31.9h-3c-0.5,0-1-0.4-1-1c0-0.5,0.4-1,1-1h3c0.5,0,1,0.4,1,1C35.4,31.4,35,31.9,34.4,31.9z M34.4,24.5h-3c-0.5,0-1-0.4-1-1
		c0-0.5,0.4-1,1-1h3c0.5,0,1,0.4,1,1C35.4,24,35,24.5,34.4,24.5z"/>
</g>
</svg>
