<?xml version="1.0" encoding="utf-8"?>
<!-- Generator: Adobe Illustrator 18.0.0, SVG Export Plug-In . SVG Version: 6.00 Build 0)  -->
<!DOCTYPE svg PUBLIC "-//W3C//DTD SVG 1.1//EN" "http://www.w3.org/Graphics/SVG/1.1/DTD/svg11.dtd">
<svg version="1.1" id="Layer_1" xmlns="http://www.w3.org/2000/svg" xmlns:xlink="http://www.w3.org/1999/xlink" x="0px" y="0px"
	 viewBox="0 0 48 48" enable-background="new 0 0 48 48" xml:space="preserve">
<g>
	<path fill="#06728D" d="M29,34.4c-0.3,0-1.2-0.3-1.6-0.8c-0.1-0.1-0.2-0.3-0.2-0.6c2.9-1.3,4.9-4.2,4.9-7.4c0-4.5-3.6-8.1-8.1-8.1
		c-4.5,0-8.1,3.6-8.1,8.1c0,3.2,1.9,6.1,4.9,7.4c0,0.4-0.1,0.6-0.2,0.6c-0.4,0.5-1.3,0.8-1.7,0.8c-1.4,0.3-2.7,0.7-3.9,1.3
		c-5.9,2.8-6.6,7.9-6.6,8.1c0,0.3,0.1,0.5,0.2,0.7c0.2,0.2,0.4,0.3,0.7,0.3h29.3c0.3,0,0.5-0.1,0.7-0.3c0.2-0.2,0.3-0.5,0.2-0.7
		C39.6,43.5,38.6,36.5,29,34.4z"/>
	<path fill="#F04B36" d="M24,14.4c-0.8,0-1.4-0.6-1.4-1.4V4.5c0-0.8,0.6-1.4,1.4-1.4c0.8,0,1.4,0.6,1.4,1.4V13
		C25.4,13.8,24.8,14.4,24,14.4z"/>
	<path fill="#F04B36" d="M10.3,25.8H1.9c-0.8,0-1.4-0.6-1.4-1.4c0-0.8,0.6-1.4,1.4-1.4h8.4c0.8,0,1.4,0.6,1.4,1.4
		C11.8,25.2,11.1,25.8,10.3,25.8z"/>
	<path fill="#F04B36" d="M14.6,16.1c-0.4,0-0.7-0.1-1-0.4l-5.9-6c-0.6-0.6-0.6-1.5,0-2c0.6-0.6,1.5-0.6,2,0l5.9,6
		c0.6,0.6,0.6,1.5,0,2C15.3,16,14.9,16.1,14.6,16.1z"/>
	<path fill="#F04B36" d="M46.1,25.8h-8.4c-0.8,0-1.4-0.6-1.4-1.4c0-0.8,0.6-1.4,1.4-1.4h8.4c0.8,0,1.4,0.6,1.4,1.4
		C47.5,25.2,46.9,25.8,46.1,25.8z"/>
	<path fill="#F04B36" d="M33.4,16.1c-0.4,0-0.7-0.1-1-0.4c-0.6-0.6-0.6-1.5,0-2l5.9-6c0.6-0.6,1.5-0.6,2,0c0.6,0.6,0.6,1.5,0,2
		l-5.9,6C34.2,16,33.8,16.1,33.4,16.1z"/>
</g>
</svg>
