<?xml version="1.0" encoding="utf-8"?>
<!-- Generator: Adobe Illustrator 18.0.0, SVG Export Plug-In . SVG Version: 6.00 Build 0)  -->
<!DOCTYPE svg PUBLIC "-//W3C//DTD SVG 1.1//EN" "http://www.w3.org/Graphics/SVG/1.1/DTD/svg11.dtd">
<svg version="1.1" id="Layer_1" xmlns="http://www.w3.org/2000/svg" xmlns:xlink="http://www.w3.org/1999/xlink" x="0px" y="0px"
	 viewBox="0 0 48 48" enable-background="new 0 0 48 48" xml:space="preserve">
<g>
	<g>
		<rect x="1.1" y="44.2" fill="#06728D" width="45.7" height="3.3"/>
	</g>
	<g>
		<rect x="40.3" y="20" fill="#4DA0D8" width="2.8" height="25.9"/>
	</g>
	<g>
		<polygon fill="#4DA0D8" points="24,7.3 43.1,20 41.6,22.3 22.5,9.6 		"/>
	</g>
	<g>
		<path fill="#F7A93B" d="M16.9,16.8l-5.5-7.5l11.4-8.5c0.8-0.6,2-0.4,2.7,0.4l3.3,4.4c0.6,0.8,0.4,2-0.4,2.7L16.9,16.8z"/>
	</g>
	<g>
		<path fill="#F7A93B" d="M13.5,7.8l5.5,7.5l-2.8,2c-2.1,1.5-5,1.1-6.5-1l0,0c-1.5-2.1-1.1-5,1-6.5L13.5,7.8z"/>
	</g>
	<g>
		<path fill="#F04B36" d="M20.8,8.2c-3.7-5-10.9-6.1-15.9-2.4l13.5,18.3C23.5,20.4,24.5,13.2,20.8,8.2z"/>
	</g>
	<g>
		<rect x="29.2" y="42.1" fill="#F04B36" width="7.8" height="3"/>
	</g>
</g>
</svg>
