<?xml version="1.0" encoding="utf-8"?>
<!-- Generator: Adobe Illustrator 18.0.0, SVG Export Plug-In . SVG Version: 6.00 Build 0)  -->
<!DOCTYPE svg PUBLIC "-//W3C//DTD SVG 1.1//EN" "http://www.w3.org/Graphics/SVG/1.1/DTD/svg11.dtd">
<svg version="1.1" id="Layer_1" xmlns="http://www.w3.org/2000/svg" xmlns:xlink="http://www.w3.org/1999/xlink" x="0px" y="0px"
	 viewBox="0 0 48 48" enable-background="new 0 0 48 48" xml:space="preserve">
<g>
	<g>
		<path fill="#F04B36" d="M18.9,44.5c-0.3,0-0.5-0.1-0.7-0.3c-0.4-0.4-0.4-1,0-1.4L41,20c1.9-1.9,3-4.5,3-7.2c0-2.7-1.1-5.3-3-7.2
			c-1.9-1.9-4.5-3-7.2-3c-2.7,0-5.3,1.1-7.2,3L3.7,28.3c-0.4,0.4-1,0.4-1.4,0c-0.4-0.4-0.4-1,0-1.4L25.1,4.1
			c2.3-2.3,5.4-3.6,8.6-3.6c3.3,0,6.3,1.3,8.6,3.6c2.3,2.3,3.6,5.4,3.6,8.6c0,3.3-1.3,6.3-3.6,8.6L19.6,44.2
			C19.4,44.4,19.1,44.5,18.9,44.5z"/>
	</g>
	<g>
		<path fill="#4DA0D8" d="M12.4,47.5c-2.5,0-4.9-1-6.6-2.7c-3.7-3.7-3.7-9.6,0-13.3l20.6-20.6c0.4-0.4,1-0.4,1.4,0
			c0.4,0.4,0.4,1,0,1.4L7.1,32.9c-2.9,2.9-2.9,7.6,0,10.5c1.4,1.4,3.3,2.2,5.2,2.2c2,0,3.8-0.8,5.2-2.2c0.4-0.4,1-0.4,1.4,0
			c0.4,0.4,0.4,1,0,1.4C17.2,46.5,14.9,47.5,12.4,47.5z"/>
	</g>
	<g>
		<path fill="#F7A93B" d="M14.5,41c-0.3,0-0.5-0.1-0.7-0.3c-0.4-0.4-0.4-1,0-1.4l20.7-20.7c1.8-1.8,1.8-4.7,0-6.6
			c-0.9-0.9-2-1.4-3.3-1.4c-1.2,0-2.4,0.5-3.3,1.4c-0.4,0.4-1,0.4-1.4,0c-0.4-0.4-0.4-1,0-1.4c1.2-1.2,2.9-1.9,4.7-1.9
			c1.8,0,3.4,0.7,4.7,1.9c2.6,2.6,2.6,6.8,0,9.3L15.2,40.7C15,40.9,14.7,41,14.5,41z"/>
	</g>
</g>
</svg>
