<?xml version="1.0" encoding="utf-8"?>
<!-- Generator: Adobe Illustrator 18.0.0, SVG Export Plug-In . SVG Version: 6.00 Build 0)  -->
<!DOCTYPE svg PUBLIC "-//W3C//DTD SVG 1.1//EN" "http://www.w3.org/Graphics/SVG/1.1/DTD/svg11.dtd">
<svg version="1.1" id="Layer_1" xmlns="http://www.w3.org/2000/svg" xmlns:xlink="http://www.w3.org/1999/xlink" x="0px" y="0px"
	 viewBox="0 0 48 48" enable-background="new 0 0 48 48" xml:space="preserve">
<g>
	<g>
		<path fill="#0DB89A" d="M14,21.6V9c-5.5,0.6-10,6.5-11.3,14.4C5.2,22.6,9.2,21.7,14,21.6z"/>
	</g>
	<g>
		<path fill="#0DB89A" d="M16,21.6c3.4,0.1,7.2,0.6,11.2,1.9C25.9,15.6,21.4,9.6,16,9V21.6z"/>
	</g>
	<g>
		<path fill="#06728D" d="M2.5,25.5c-0.1,0.9-0.1,1.8-0.1,2.7C2.3,38.9,8,47.5,15,47.5c7,0,12.6-8.6,12.6-19.3
			c0-0.9-0.1-1.8-0.1-2.6C16.1,21.8,6.3,24.2,2.5,25.5z"/>
	</g>
	<g>
		<path fill="#4DA0D8" d="M44.7,20.6c-0.4,0-0.8-0.2-0.9-0.6c-0.8-2.1-1.9-4.9-3.7-7.1C39,11.6,35,6.8,33.9,5.7
			c-2.3-2.3-6-3.5-10.3-3.2c-1.9,0.1-3.6,0.5-5,1.1c-0.9,0.4-1.5,0.8-1.8,1.4c-0.2,0.4-0.3,0.8-0.4,1.3C16.2,7,16.1,7.8,16,8.6
			c-0.1,0.5-0.5,0.9-1.1,0.8C14.4,9.4,14,8.9,14,8.3c0.1-0.9,0.2-1.7,0.4-2.6c0.1-0.6,0.3-1.2,0.6-1.8c0.5-0.9,1.4-1.6,2.7-2.2
			c1.6-0.7,3.5-1.1,5.6-1.3c4.8-0.3,9.2,1.1,11.8,3.8c1.1,1.2,5.4,6.2,6.3,7.3c2,2.4,3.2,5.4,4,7.7c0.2,0.5-0.1,1.1-0.6,1.2
			C44.9,20.6,44.8,20.6,44.7,20.6z"/>
	</g>
</g>
</svg>
