<?xml version="1.0" encoding="utf-8"?>
<!-- Generator: Adobe Illustrator 18.0.0, SVG Export Plug-In . SVG Version: 6.00 Build 0)  -->
<!DOCTYPE svg PUBLIC "-//W3C//DTD SVG 1.1//EN" "http://www.w3.org/Graphics/SVG/1.1/DTD/svg11.dtd">
<svg version="1.1" id="Layer_1" xmlns="http://www.w3.org/2000/svg" xmlns:xlink="http://www.w3.org/1999/xlink" x="0px" y="0px"
	 viewBox="0 0 48 48" enable-background="new 0 0 48 48" xml:space="preserve">
<g>
	<g>
		<rect x="21.9" y="24.5" fill="#06728D" width="4.2" height="7.9"/>
	</g>
	<g>
		<path fill="#E77528" d="M41.1,8.2h-4.3V4.9c0-2.4-1.8-4.4-3.9-4.4H15.1c-2.2,0-3.9,2-3.9,4.4v3.3H6.9c-3.5,0-6.4,3.2-6.4,7v7h19.3
			v-2.9h8.3v2.9h19.3v-7C47.5,11.3,44.7,8.2,41.1,8.2z M13.2,4.9c0-1.2,0.9-2.1,1.9-2.1h17.8c1,0,1.9,0.9,1.9,2.1v3.3H13.2V4.9z"/>
	</g>
	<g>
		<path fill="#F04B36" d="M28.2,34.6h-8.3V24.5H0.5v16c0,3.9,2.8,7,6.4,7h34.3c3.5,0,6.4-3.2,6.4-7v-16H28.2V34.6z"/>
	</g>
</g>
</svg>
