<?xml version="1.0" encoding="utf-8"?>
<!-- Generator: Adobe Illustrator 18.0.0, SVG Export Plug-In . SVG Version: 6.00 Build 0)  -->
<!DOCTYPE svg PUBLIC "-//W3C//DTD SVG 1.1//EN" "http://www.w3.org/Graphics/SVG/1.1/DTD/svg11.dtd">
<svg version="1.1" id="Layer_1" xmlns="http://www.w3.org/2000/svg" xmlns:xlink="http://www.w3.org/1999/xlink" x="0px" y="0px"
	 viewBox="0 0 48 48" enable-background="new 0 0 48 48" xml:space="preserve">
<g>
	<path fill="#06728D" d="M35.5,0.5H12.5c-3.8,0-6.8,3.1-6.8,6.8v33.3c0,3.8,3.1,6.8,6.8,6.8h22.9c3.8,0,6.8-3.1,6.8-6.8V7.3
		C42.3,3.6,39.2,0.5,35.5,0.5z M9.5,5.6H38v8.7H9.5V5.6z M13.6,42.4c-1.9,0-3.4-1.5-3.4-3.4c0-1.9,1.5-3.4,3.4-3.4S17,37.1,17,39
		C17,40.9,15.5,42.4,13.6,42.4z M13.6,33.7c-1.9,0-3.4-1.5-3.4-3.4c0-1.9,1.5-3.4,3.4-3.4s3.4,1.5,3.4,3.4
		C17,32.1,15.5,33.7,13.6,33.7z M13.6,24.9c-1.9,0-3.4-1.5-3.4-3.4c0-1.9,1.5-3.4,3.4-3.4s3.4,1.5,3.4,3.4
		C17,23.4,15.5,24.9,13.6,24.9z M24.5,42.4c-1.9,0-3.4-1.5-3.4-3.4c0-1.9,1.5-3.4,3.4-3.4S28,37.1,28,39
		C28,40.9,26.4,42.4,24.5,42.4z M24.5,33.7c-1.9,0-3.4-1.5-3.4-3.4c0-1.9,1.5-3.4,3.4-3.4s3.4,1.5,3.4,3.4
		C28,32.1,26.4,33.7,24.5,33.7z M24.5,24.9c-1.9,0-3.4-1.5-3.4-3.4c0-1.9,1.5-3.4,3.4-3.4s3.4,1.5,3.4,3.4
		C28,23.4,26.4,24.9,24.5,24.9z M35.1,42.4c-1.9,0-3.4-1.5-3.4-3.4c0-1.9,1.5-3.4,3.4-3.4c1.9,0,3.4,1.5,3.4,3.4
		C38.5,40.9,37,42.4,35.1,42.4z M35.1,33.7c-1.9,0-3.4-1.5-3.4-3.4c0-1.9,1.5-3.4,3.4-3.4c1.9,0,3.4,1.5,3.4,3.4
		C38.5,32.1,37,33.7,35.1,33.7z M35.1,24.9c-1.9,0-3.4-1.5-3.4-3.4c0-1.9,1.5-3.4,3.4-3.4c1.9,0,3.4,1.5,3.4,3.4
		C38.5,23.4,37,24.9,35.1,24.9z"/>
</g>
</svg>
