<?xml version="1.0" encoding="utf-8"?>
<!-- Generator: Adobe Illustrator 18.0.0, SVG Export Plug-In . SVG Version: 6.00 Build 0)  -->
<!DOCTYPE svg PUBLIC "-//W3C//DTD SVG 1.1//EN" "http://www.w3.org/Graphics/SVG/1.1/DTD/svg11.dtd">
<svg version="1.1" id="Layer_1" xmlns="http://www.w3.org/2000/svg" xmlns:xlink="http://www.w3.org/1999/xlink" x="0px" y="0px"
	 viewBox="0 0 48 48" enable-background="new 0 0 48 48" xml:space="preserve">
<g>
	<polygon fill="#F04B36" points="34,2.3 39.3,7.6 38.2,8.8 32.9,3.5 31.2,5.1 34.9,8.7 33.7,9.9 30.1,6.3 28.5,7.9 32.1,11.5 
		30.9,12.7 27.3,9 25.7,10.7 29.3,14.3 28.2,15.4 24.5,11.8 22.9,13.4 28.2,18.7 27.1,19.9 21.8,14.6 20.1,16.2 23.8,19.8 22.6,21 
		19,17.4 17.4,19 21,22.6 19.8,23.8 16.2,20.1 14.6,21.8 18.2,25.4 17.1,26.5 13.4,22.9 11.8,24.5 17.1,29.8 15.9,31 10.7,25.7 
		9,27.3 12.7,30.9 11.5,32.1 7.9,28.5 6.3,30.1 9.9,33.7 8.7,34.9 5.1,31.2 3.5,32.9 7.1,36.5 6,37.7 2.3,34 0.5,35.9 12.1,47.5 
		47.5,12.1 35.9,0.5 	"/>
</g>
</svg>
