<?xml version="1.0" encoding="utf-8"?>
<!-- Generator: Adobe Illustrator 18.0.0, SVG Export Plug-In . SVG Version: 6.00 Build 0)  -->
<!DOCTYPE svg PUBLIC "-//W3C//DTD SVG 1.1//EN" "http://www.w3.org/Graphics/SVG/1.1/DTD/svg11.dtd">
<svg version="1.1" id="Layer_1" xmlns="http://www.w3.org/2000/svg" xmlns:xlink="http://www.w3.org/1999/xlink" x="0px" y="0px"
	 viewBox="0 0 48 48" enable-background="new 0 0 48 48" xml:space="preserve">
<g>
	<path fill="#CFD0D1" d="M7,0.5v37.2l9.8,9.8H41v-47H7z M18.6,45.7l-9.8-9.8h9.8V45.7z M35.4,32H12.6c-0.5,0-0.9-0.4-0.9-0.9
		c0-0.5,0.4-0.9,0.9-0.9h22.8c0.5,0,0.9,0.4,0.9,0.9C36.3,31.6,35.9,32,35.4,32z M35.4,24.3H12.6c-0.5,0-0.9-0.4-0.9-0.9
		c0-0.5,0.4-0.9,0.9-0.9h22.8c0.5,0,0.9,0.4,0.9,0.9C36.3,23.9,35.9,24.3,35.4,24.3z M35.4,16.5H12.6c-0.5,0-0.9-0.4-0.9-0.9
		c0-0.5,0.4-0.9,0.9-0.9h22.8c0.5,0,0.9,0.4,0.9,0.9C36.3,16.1,35.9,16.5,35.4,16.5z M35.4,8.8H12.6c-0.5,0-0.9-0.4-0.9-0.9
		c0-0.5,0.4-0.9,0.9-0.9h22.8c0.5,0,0.9,0.4,0.9,0.9C36.3,8.4,35.9,8.8,35.4,8.8z"/>
</g>
</svg>
