<?xml version="1.0" encoding="utf-8"?>
<!-- Generator: Adobe Illustrator 18.0.0, SVG Export Plug-In . SVG Version: 6.00 Build 0)  -->
<!DOCTYPE svg PUBLIC "-//W3C//DTD SVG 1.1//EN" "http://www.w3.org/Graphics/SVG/1.1/DTD/svg11.dtd">
<svg version="1.1" id="Layer_1" xmlns="http://www.w3.org/2000/svg" xmlns:xlink="http://www.w3.org/1999/xlink" x="0px" y="0px"
	 viewBox="0 0 48 48" enable-background="new 0 0 48 48" xml:space="preserve">
<g>
	<path fill="#06728D" d="M22,19.3L19.3,28c-0.1,0.4,0.2,0.8,0.6,0.6l8.7-2.7C27.2,23.2,24.8,20.8,22,19.3z"/>
</g>
<g>
	<path fill="#0DB89A" d="M34.3,16.5c-1-0.9-2.2-1.7-3.4-2.4L13.7,31.4c1.2,0.7,2.3,1.5,3.3,2.4L34.3,16.5z"/>
</g>
<g>
	<path fill="#F04B36" d="M31.5,13.7L14.2,31c0.9,1,1.7,2.1,2.4,3.4L33.8,17C33.2,15.8,32.4,14.7,31.5,13.7z"/>
</g>
<g>
	<path fill="#0DB89A" d="M38.7,40.4l-2.3,1.5L28,44.5c-0.2,0.1-0.5,0.1-0.7,0.1c-0.8,0-1.5-0.4-2-1c-0.5-0.6-0.6-1.5-0.4-2.2
		l2.6-8.4l0.4-0.6h-15c-0.5,0-0.9-0.4-0.9-0.9c0-0.5,0.4-0.9,0.9-0.9h16.2l5.8-5.8h-22c-0.5,0-0.9-0.4-0.9-0.9
		c0-0.5,0.4-0.9,0.9-0.9h22.3c0.4,0,0.7,0.3,0.8,0.7l4.6-4.6V0.5H7.4v37.4l9.6,9.6h23.6v-8.9L38.7,40.4z M12.9,7.8h22.3
		c0.5,0,0.9,0.4,0.9,0.9c0,0.5-0.4,0.9-0.9,0.9H12.9c-0.5,0-0.9-0.4-0.9-0.9C12,8.2,12.4,7.8,12.9,7.8z M12.9,15.4h22.3
		c0.5,0,0.9,0.4,0.9,0.9c0,0.5-0.4,0.9-0.9,0.9H12.9c-0.5,0-0.9-0.4-0.9-0.9C12,15.8,12.4,15.4,12.9,15.4z M18.8,45.7l-9.6-9.6h9.6
		V45.7z"/>
</g>
</svg>
