<?xml version="1.0" encoding="utf-8"?>
<!-- Generator: Adobe Illustrator 18.0.0, SVG Export Plug-In . SVG Version: 6.00 Build 0)  -->
<!DOCTYPE svg PUBLIC "-//W3C//DTD SVG 1.1//EN" "http://www.w3.org/Graphics/SVG/1.1/DTD/svg11.dtd">
<svg version="1.1" id="Layer_1" xmlns="http://www.w3.org/2000/svg" xmlns:xlink="http://www.w3.org/1999/xlink" x="0px" y="0px"
	 viewBox="0 0 48 48" enable-background="new 0 0 48 48" xml:space="preserve">
<rect x="6.8" y="19.6" fill="#F04B36" width="34.4" height="8.9"/>
<path fill="#F7A93B" d="M43.4,9c0-0.1-0.1-0.2-0.2-0.3c-3-3.6-0.6-6.4-0.5-6.6c0.4-0.4,0.3-1.1-0.2-1.4c-0.2-0.1-0.4-0.2-0.6-0.2v0
	h0c-0.1,0-0.2,0-0.3,0H10.4c-3,0-5.5,2.1-5.8,4.8H4.6v36.6c0,3.1,2.8,5.6,6.2,5.6h32.7V12.4L43.4,9L43.4,9L43.4,9z M6.9,6.4
	c-0.4-2.1,1.3-3.9,3.5-3.9h29.5c-0.7,1.6-0.9,4,0.8,6.5h-2.6v0H10.5C8.8,9,7.2,8,6.9,6.4z"/>
<rect x="13.5" y="15" fill="#FFFFFF" width="21.1" height="18"/>
<rect x="15" y="16.6" fill="#4DA0D8" width="18" height="14.8"/>
</svg>
