<?xml version="1.0" encoding="utf-8"?>
<!-- Generator: Adobe Illustrator 18.0.0, SVG Export Plug-In . SVG Version: 6.00 Build 0)  -->
<!DOCTYPE svg PUBLIC "-//W3C//DTD SVG 1.1//EN" "http://www.w3.org/Graphics/SVG/1.1/DTD/svg11.dtd">
<svg version="1.1" id="Layer_1" xmlns="http://www.w3.org/2000/svg" xmlns:xlink="http://www.w3.org/1999/xlink" x="0px" y="0px"
	 viewBox="0 0 48 48" enable-background="new 0 0 48 48" xml:space="preserve">
<g>
	<circle fill="none" cx="16.3" cy="16.3" r="11.5"/>
	<path fill="#E77528" d="M46.8,43.2L29.2,25.6l-3.6,3.6l17.6,17.6c1,1,2.6,1,3.6,0v0C47.7,45.8,47.7,44.2,46.8,43.2z"/>
	<path fill="#F04B36" d="M27.6,5.1C21.4-1,11.3-1,5.1,5.1C-1,11.3-1,21.4,5.1,27.6c5.6,5.6,14.3,6.1,20.5,1.6l3.6-3.6
		C33.7,19.4,33.1,10.7,27.6,5.1z M24.5,24.5C20,29,12.7,29,8.2,24.5C3.7,20,3.7,12.7,8.2,8.2c4.5-4.5,11.8-4.5,16.3,0
		C29,12.7,29,20,24.5,24.5z"/>
</g>
</svg>
