<?xml version="1.0" encoding="utf-8"?>
<!-- Generator: Adobe Illustrator 18.0.0, SVG Export Plug-In . SVG Version: 6.00 Build 0)  -->
<!DOCTYPE svg PUBLIC "-//W3C//DTD SVG 1.1//EN" "http://www.w3.org/Graphics/SVG/1.1/DTD/svg11.dtd">
<svg version="1.1" id="Layer_1" xmlns="http://www.w3.org/2000/svg" xmlns:xlink="http://www.w3.org/1999/xlink" x="0px" y="0px"
	 viewBox="0 0 48 48" enable-background="new 0 0 48 48" xml:space="preserve">
<g>
	<g>
		<ellipse fill="#F7A93B" cx="25.9" cy="43.4" rx="11.8" ry="4.1"/>
	</g>
	<g>
		<rect x="23" y="36.6" fill="#CFD0D1" width="5.8" height="6.9"/>
	</g>
	<g>
		<path fill="#06728D" d="M26,37.8c-10.7,0-19.5-8.7-19.5-19.5c0-7.7,4.5-14.6,11.5-17.8c0.5-0.2,1.1,0,1.3,0.5
			c0.2,0.5,0,1.1-0.5,1.3C12.6,5.2,8.6,11.5,8.6,18.4c0,9.6,7.8,17.5,17.5,17.5c5.3,0,10.3-2.4,13.6-6.5c0.3-0.4,1-0.5,1.4-0.1
			c0.4,0.3,0.5,1,0.1,1.4C37.5,35.2,32,37.8,26,37.8z"/>
	</g>
	<g>
		<path fill="#BA2B28" d="M38.2,33.3c-0.3,0-0.6-0.1-0.8-0.4l-22.8-29c-0.3-0.4-0.3-1.1,0.2-1.4c0.4-0.3,1.1-0.3,1.4,0.2l22.8,29
			c0.3,0.4,0.3,1.1-0.2,1.4C38.6,33.2,38.4,33.3,38.2,33.3z"/>
	</g>
	<g>
		<circle fill="#4DA0D8" cx="26" cy="18.4" r="14.8"/>
	</g>
</g>
</svg>
