<?xml version="1.0" encoding="utf-8"?>
<!-- Generator: Adobe Illustrator 18.0.0, SVG Export Plug-In . SVG Version: 6.00 Build 0)  -->
<!DOCTYPE svg PUBLIC "-//W3C//DTD SVG 1.1//EN" "http://www.w3.org/Graphics/SVG/1.1/DTD/svg11.dtd">
<svg version="1.1" id="Layer_1" xmlns="http://www.w3.org/2000/svg" xmlns:xlink="http://www.w3.org/1999/xlink" x="0px" y="0px"
	 viewBox="0 0 48 48" enable-background="new 0 0 48 48" xml:space="preserve">
<g>
	<g>
		<path fill="#06728D" d="M9.7,29.7c3.1-2.3,9.6-3,13.9-3c4.3,0,10.9,0.7,13.9,3v-8.5l9.2-2.9l-23.1-7.3L0.5,18.3l9.2,2.9V29.7z"/>
	</g>
	<g>
		<ellipse fill="#294E58" cx="23.6" cy="32.7" rx="13.9" ry="4.3"/>
	</g>
	<g>
		<path fill="#A61E23" d="M44.8,23.1c-0.5,0-0.8-0.4-0.8-0.8v-3.4c0-0.5,0.4-0.8,0.8-0.8c0.5,0,0.8,0.4,0.8,0.8v3.4
			C45.7,22.7,45.3,23.1,44.8,23.1z"/>
	</g>
	<g>
		<path fill="#E77528" d="M45,36.9c0.2,0.2,0.6,0,0.7-0.2c0.2-0.2,0.2-0.5,0.2-0.8c0.2-1.5,0.2-3,0.2-4.5c0.1,1.2,0.1,2.4,0,3.6
			c0,0.4-0.1,0.9,0.1,1.2c0.2,0.4,0.7,0.6,1.1,0.3c0.1-0.9,0.1-1.9,0.1-2.8c0.1-2.2,0.1-4.4-0.7-6.4c-0.3-0.7-0.6-1.4-0.5-2.1
			c0-0.2,0.1-0.3,0.2-0.5c0.2-0.7,0.1-1.5,0.1-2.2c0-0.2-0.1-0.4-0.2-0.6c-0.2-0.3-0.5-0.4-0.8-0.4c-0.8-0.2-1.7-0.4-2.2,0.2
			c-0.2,0.2-0.3,0.6-0.3,0.9c-0.1,0.9,0,1.8,0.4,2.6c0.2,0.5,0.5,0.9,0.5,1.4c0.1,0.8-0.4,1.6-0.9,2.3c-0.7,1.2-1.1,2.5-1.2,3.9
			c-0.1,0.8,0,1.7,0.3,2.5c0.1,0.3,0.5,0.7,0.8,0.5c0.2-0.1,0.2-0.4,0.2-0.6c0.1-1.3,0.1-2.7,0.2-4c0.5,0.7,0.5,1.6,0.3,2.5
			c-0.1,0.8-0.4,1.7-0.4,2.5c0.3,0.1,0.7-0.2,0.8-0.4c0.2-0.3,0.2-0.6,0.3-1c0.2-1.2,0.3-2.4,0.5-3.6c0.4,1.5,0.4,3.1,0,4.5
			C44.8,36.2,44.8,36.7,45,36.9z"/>
	</g>
</g>
</svg>
