<?xml version="1.0" encoding="utf-8"?>
<!-- Generator: Adobe Illustrator 18.0.0, SVG Export Plug-In . SVG Version: 6.00 Build 0)  -->
<!DOCTYPE svg PUBLIC "-//W3C//DTD SVG 1.1//EN" "http://www.w3.org/Graphics/SVG/1.1/DTD/svg11.dtd">
<svg version="1.1" id="Layer_1" xmlns="http://www.w3.org/2000/svg" xmlns:xlink="http://www.w3.org/1999/xlink" x="0px" y="0px"
	 viewBox="0 0 48 48" enable-background="new 0 0 48 48" xml:space="preserve">
<g>
	<g>
		<path fill="#F04B36" d="M0.5,2.2v45.3h14.8V2.2H0.5z M12.1,43.3H3.7v-8.9h8.3V43.3z M12.1,15.1H3.7c-0.6,0-1.1-0.4-1.1-1
			s0.5-1,1.1-1h8.3c0.6,0,1.1,0.4,1.1,1S12.7,15.1,12.1,15.1z M12.1,8.4H3.7c-0.6,0-1.1-0.4-1.1-1c0-0.5,0.5-1,1.1-1h8.3
			c0.6,0,1.1,0.4,1.1,1C13.2,7.9,12.7,8.4,12.1,8.4z"/>
	</g>
	<g>
		<path fill="#E77528" d="M15.6,5.2l18.1,42.3l13.9-4.7L29.4,0.5L15.6,5.2z M42.8,39.9L35,42.6l-3.5-8.3l7.8-2.6L42.8,39.9z
			 M31.5,13.6l-7.8,2.6c-0.6,0.2-1.2-0.1-1.4-0.6c-0.2-0.5,0.1-1.1,0.6-1.3l7.8-2.6c0.6-0.2,1.2,0.1,1.4,0.6
			C32.4,12.8,32.1,13.4,31.5,13.6z M28.8,7.3l-7.8,2.6c-0.6,0.2-1.2-0.1-1.4-0.6c-0.2-0.5,0.1-1.1,0.6-1.3l7.8-2.6
			c0.6-0.2,1.2,0.1,1.4,0.6C29.7,6.5,29.4,7.1,28.8,7.3z"/>
	</g>
</g>
</svg>
