<?xml version="1.0" encoding="utf-8"?>
<!-- Generator: Adobe Illustrator 18.0.0, SVG Export Plug-In . SVG Version: 6.00 Build 0)  -->
<!DOCTYPE svg PUBLIC "-//W3C//DTD SVG 1.1//EN" "http://www.w3.org/Graphics/SVG/1.1/DTD/svg11.dtd">
<svg version="1.1" id="Layer_1" xmlns="http://www.w3.org/2000/svg" xmlns:xlink="http://www.w3.org/1999/xlink" x="0px" y="0px"
	 viewBox="0 0 48 48" enable-background="new 0 0 48 48" xml:space="preserve">
<g>
	<g>
		<path fill="#F04B36" d="M15.6,37.8c0,0.4-0.1,0.8-0.3,1.1c-0.4,0.6-1.3,2.5-3.6,3.5c-0.7,0.3-1.4,0.5-2.1,0.6
			c-1,0.1-2,0.3-2.9,0.1c-1-0.1-1.9-0.6-2.5-1.4c0.7,0,1.4-0.5,2-0.9c0.6-0.4,1.2-0.8,1.5-1.4c0.3-0.5,0.5-1.1,0.7-1.6
			c0.7-1.7,2.3-3,4.1-3.2c0.6-0.1,1.2-0.1,1.7,0.2C15.3,35.1,15.7,36.5,15.6,37.8z"/>
	</g>
	<g>
		<g>
			<path fill="#06728D" d="M20.1,31.6l-1.8-1.8c-0.3-0.3-0.3-0.8,0-1L44.1,3.1c0.8-0.8,2.1-0.8,2.8,0v0c0.8,0.8,0.8,2.1,0,2.8
				L21.2,31.6C20.9,31.9,20.4,31.9,20.1,31.6z"/>
		</g>
	</g>
	<g>
		<g>
			<path fill="#06728D" d="M17.6,34.2l-1.7-1.7c-0.3-0.3-0.3-0.8,0-1.1l0,0c0.3-0.3,0.8-0.3,1.1,0l1.7,1.7c0.3,0.3,0.3,0.8,0,1.1
				l0,0C18.4,34.5,17.9,34.5,17.6,34.2z"/>
		</g>
	</g>
	<g>
		<g>
			<g>
				<path fill="#CFD0D1" d="M41.3,20.5c-0.7-1.4-2-2.2-3.6-2.8L22.5,32.9c-0.5,0.5-1.1,0.7-1.8,0.7c0,0.4-0.1,0.7-0.3,1.1
					c1,0.9,1.4,2.1,0.9,3.2c-0.6,1.4-2.5,1.9-4.2,1.2c-0.1,0-0.1-0.1-0.2-0.1c0,0,0,0.1-0.1,0.1l-0.1,0.1c-0.4,0.7-1.4,2.4-3.4,3.5
					c3,1.5,6.2,2.6,8.7,2.7c1.2,0,2.3,0,3.5-0.1c1.7-0.1,3.4-0.2,5-0.7c1-0.3,1.9-0.8,2.8-1.3c2.4-1.4,4.7-3,6.3-5.2
					c2.4-3.5,2.8-8,2.9-12.3c0-0.9,0-1.9-0.2-2.8C42.2,22.1,41.8,21.3,41.3,20.5z M30.4,40.1c-1.7,0.7-3.6,0-4.1-1.4
					c-0.5-1.4,0.4-3.1,2.1-3.8c1.7-0.7,3.6,0,4.1,1.4C33.1,37.8,32.1,39.5,30.4,40.1z M38.7,30.1c-1.1,1.5-2.9,2-4.2,1.2
					c-1.3-0.9-1.4-2.8-0.3-4.3c1.1-1.5,2.9-2,4.2-1.2C39.6,26.6,39.8,28.5,38.7,30.1z"/>
			</g>
		</g>
		<g>
			<g>
				<path fill="#CFD0D1" d="M6.3,38.3c0.3-0.2,0.5-0.4,0.6-0.6c0.1-0.1,0.2-0.4,0.3-0.6c0.1-0.2,0.1-0.4,0.2-0.6
					c0.3-0.7,0.7-1.3,1.1-1.8c-0.8-0.2-1.5-0.7-2-1.5c-1.1-1.5-0.9-3.5,0.3-4.3c1.2-0.9,3.1-0.4,4.2,1.1c0.6,0.8,0.8,1.8,0.7,2.6
					c0.3-0.1,0.5-0.1,0.8-0.2c0.3,0,0.6-0.1,0.8-0.1c0.2,0,0.3,0,0.4,0c0-0.2-0.1-0.4-0.1-0.6c0-0.7,0.3-1.3,0.7-1.8l0.1-0.1
					c0.5-0.5,1.1-0.7,1.8-0.8c0-0.7,0.3-1.3,0.7-1.8l12.3-12.3c-0.8-0.2-1.6-0.5-1.9-1.2c-0.1-0.3-0.1-0.6-0.2-0.9
					c-0.1-1.4,0.2-2.8,0.1-4.2C27.4,7.5,27,6,26,5.1c-0.8-0.7-2-1-3-1.2c-1.2-0.3-2.4-0.5-3.6-0.6c-2.1-0.1-4.2,0.5-6.2,1.2
					C12,4.8,10.8,5.3,9.7,5.9c-2,1.1-3.9,2.7-5.3,4.5C1.6,14.1,0.3,19,0.5,23.7C0.8,28.4,1.9,33.4,5,37C5.4,37.4,5.8,37.8,6.3,38.3z
					 M18.8,11.1c2.1,0,3.7,1.7,3.7,3.7c0,2.1-1.7,3.7-3.7,3.7c-2.1,0-3.7-1.7-3.7-3.7C15,12.8,16.7,11.1,18.8,11.1z"/>
			</g>
		</g>
	</g>
	<circle fill="#294E58" cx="19.6" cy="14.2" r="5.3"/>
	<circle fill="#0DB89A" cx="36.3" cy="28.5" r="4.3"/>
	<circle fill="#F04B36" cx="8.5" cy="20.3" r="4.3"/>
	<circle fill="#4DA0D8" cx="29.1" cy="37.5" r="4.2"/>
	<circle fill="#F7A93B" cx="8.5" cy="31.1" r="3.4"/>
	<path fill="#9E926A" d="M21.7,34.4c0.6,0.5,1,1.1,1.2,1.8c0.2,0.7,0.2,1.6-0.2,2.2c-0.2,0.4-0.5,0.7-0.9,1
		c-1.5,1.1-3.5,1.4-5.4,1.8c0.8-1.5,0.9-3.3,0.3-4.9c1.4-0.1,2.8-0.8,3.7-1.8c0.1-0.2,0.3-0.3,0.5-0.4C21.2,34,21.5,34.2,21.7,34.4z
		"/>
</g>
</svg>
