<?xml version="1.0" encoding="utf-8"?>
<!-- Generator: Adobe Illustrator 18.0.0, SVG Export Plug-In . SVG Version: 6.00 Build 0)  -->
<!DOCTYPE svg PUBLIC "-//W3C//DTD SVG 1.1//EN" "http://www.w3.org/Graphics/SVG/1.1/DTD/svg11.dtd">
<svg version="1.1" id="Layer_1" xmlns="http://www.w3.org/2000/svg" xmlns:xlink="http://www.w3.org/1999/xlink" x="0px" y="0px"
	 viewBox="0 0 48 48" enable-background="new 0 0 48 48" xml:space="preserve">
<g>
	<path fill="#F04B36" d="M15.7,47.2c-0.1,0-0.3,0-0.4-0.1c-0.7-0.2-1.2-1-0.9-1.8l3.9-12.3c0.2-0.8,1-1.2,1.8-0.9
		c0.7,0.2,1.2,1,0.9,1.8L17,46.2C16.8,46.8,16.3,47.2,15.7,47.2z"/>
	<path fill="#F04B36" d="M42.4,47.2c-0.6,0-1.2-0.4-1.4-1l-3.9-12.3c-0.2-0.7,0.2-1.6,0.9-1.8c0.7-0.2,1.6,0.2,1.8,0.9l3.9,12.3
		c0.2,0.7-0.2,1.6-0.9,1.8C42.7,47.2,42.5,47.2,42.4,47.2z"/>
	<path fill="#4DA0D8" d="M41.7,28.7l-5.3-6.8H21.6l-5.3,6.8c-1.1,1.4-1.4,2.7-0.9,3.8c0.3,0.5,1,1.4,2.8,1.4h21.5
		c1.8,0,2.5-0.9,2.8-1.4C43.1,31.4,42.8,30.1,41.7,28.7z"/>
	<polygon fill="#F7A93B" points="24.7,18 23.1,20 34.9,20 33.4,18 33.4,7 24.7,7 	"/>
	<path fill="#F04B36" d="M34.5,3.6h-2.1h-6.8h-2.1c-0.5,0-0.9,0.4-0.9,0.9c0,0.5,0.4,0.9,0.9,0.9h1.1h8.7h1.1c0.5,0,0.9-0.4,0.9-0.9
		C35.4,4.1,35,3.6,34.5,3.6z"/>
	<path fill="#06728D" d="M46.1,44.7H4.7V15.2h32.5c0.8,0,1.4-0.6,1.4-1.4c0-0.8-0.6-1.4-1.4-1.4H4.7V1.9c0-0.8-0.6-1.4-1.4-1.4
		c-0.8,0-1.4,0.6-1.4,1.4v10.4c-0.7,0.1-1.3,0.7-1.3,1.4c0,0.7,0.6,1.3,1.3,1.4v29.5c-0.7,0.1-1.3,0.7-1.3,1.4
		c0,0.8,0.6,1.4,1.4,1.4h44.2c0.8,0,1.4-0.6,1.4-1.4C47.5,45.3,46.9,44.7,46.1,44.7z"/>
</g>
</svg>
