<?xml version="1.0" encoding="utf-8"?>
<!-- Generator: Adobe Illustrator 18.0.0, SVG Export Plug-In . SVG Version: 6.00 Build 0)  -->
<!DOCTYPE svg PUBLIC "-//W3C//DTD SVG 1.1//EN" "http://www.w3.org/Graphics/SVG/1.1/DTD/svg11.dtd">
<svg version="1.1" id="Layer_1" xmlns="http://www.w3.org/2000/svg" xmlns:xlink="http://www.w3.org/1999/xlink" x="0px" y="0px"
	 viewBox="0 0 48 48" enable-background="new 0 0 48 48" xml:space="preserve">
<g>
	<ellipse transform="matrix(-0.3173 -0.9483 0.9483 -0.3173 -10.9679 38.9415)" fill="none" cx="8.5" cy="23.4" rx="2.7" ry="5.2"/>
	<ellipse transform="matrix(-0.3174 0.9483 -0.9483 -0.3174 69.8103 28.6839)" fill="none" cx="24.6" cy="39.5" rx="5.2" ry="2.7"/>
	<path fill="none" d="M22.8,24.2L23,25l0.8,0.2c-0.1-0.2-0.2-0.5-0.3-0.7C23.3,24.4,23.1,24.3,22.8,24.2z"/>
	<circle fill="none" cx="25.5" cy="22.4" r="1.6"/>
	<path fill="#06728D" d="M22.5,21.6L16,23.8c0.6-1,0.8-2.1,0.4-3c-0.9-2.6-5.1-3.5-9.4-2c-4.4,1.5-7.2,4.7-6.3,7.3
		c0.9,2.6,5.1,3.5,9.4,2c0.3-0.1,0.6-0.2,0.8-0.3l10.2-3.4c0.6-0.2,1.2-0.3,1.7-0.1L22.5,21.6L22.5,21.6z M9.4,26
		c-2.7,0.9-5.3,0.5-5.8-0.9c-0.5-1.4,1.4-3.3,4.1-4.2c2.7-0.9,5.3-0.5,5.8,0.9C14,23.2,12.1,25,9.4,26z"/>
	<path fill="#06728D" d="M23.6,26.9l-3.4,10.2c-0.1,0.3-0.2,0.5-0.3,0.8c-1.5,4.4-0.6,8.6,2,9.4c2.6,0.9,5.8-2,7.3-6.3
		c1.5-4.4,0.5-8.6-2-9.4c-0.9-0.3-2-0.1-3,0.4l2.1-6.2l-2.5-0.6C23.9,25.7,23.9,26.3,23.6,26.9z M26.2,34.5c1.4,0.5,1.8,3.1,0.9,5.8
		c-0.9,2.7-2.8,4.6-4.2,4.1c-1.4-0.5-1.8-3.1-0.9-5.8C23,35.9,24.8,34,26.2,34.5z"/>
	<path fill="#CFD0D1" d="M47.3,13.3l-18.9,6.3l6.3-18.9c-2-0.7-5.3,0.1-5.9,2.1l-6.3,18.7l0.4,2.7c0.2,0.1,0.4,0.2,0.6,0.3
		c0.2,0.2,0.3,0.4,0.3,0.7l2.5,0.6l0.1-0.3l18.7-6.3C47.2,18.6,47.9,15.4,47.3,13.3z M26.7,23.5c-0.6,0.6-1.7,0.6-2.3,0
		c-0.6-0.6-0.6-1.7,0-2.3c0.6-0.6,1.7-0.6,2.3,0C27.3,21.9,27.3,22.9,26.7,23.5z"/>
</g>
</svg>
