<?xml version="1.0" encoding="utf-8"?>
<!-- Generator: Adobe Illustrator 18.0.0, SVG Export Plug-In . SVG Version: 6.00 Build 0)  -->
<!DOCTYPE svg PUBLIC "-//W3C//DTD SVG 1.1//EN" "http://www.w3.org/Graphics/SVG/1.1/DTD/svg11.dtd">
<svg version="1.1" id="Layer_1" xmlns="http://www.w3.org/2000/svg" xmlns:xlink="http://www.w3.org/1999/xlink" x="0px" y="0px"
	 viewBox="0 0 48 48" enable-background="new 0 0 48 48" xml:space="preserve">
<g>
	<g>
		<g>
			<g>
				<polygon fill="#F04B36" points="3.9,32.3 0.5,33.2 3.1,30.8 33.3,13.6 34.2,15.1 				"/>
			</g>
		</g>
	</g>
	<g>
		<g>
			<g>
				<polygon fill="#F04B36" points="15.7,44.1 14.8,47.5 17.2,44.9 34.4,14.7 32.9,13.8 				"/>
			</g>
		</g>
	</g>
	<g>
		<g>
			<path fill="#F04B36" d="M33.1,25.2c-1.6,0-3.2-0.4-4.7-1.1l0.9-1.8c3.2,1.7,7.1,1,9.7-1.5c3.2-3.2,3.2-8.5,0-11.8
				c-3.2-3.2-8.5-3.2-11.8,0c-2.6,2.6-3.2,6.5-1.5,9.8L24,19.7c-2.1-4-1.4-8.9,1.8-12.1c4-4,10.6-4,14.6,0c4,4,4,10.6,0,14.6
				C38.4,24.2,35.8,25.2,33.1,25.2z"/>
		</g>
	</g>
	<g>
		<g>
			<path fill="#294E58" d="M30.3,33.4c-0.3,0-0.5-0.1-0.7-0.3l-9.8-9.8c-0.4-0.4-0.4-1,0-1.4c0.4-0.4,1-0.4,1.4,0l9.8,9.8
				c0.4,0.4,0.4,1,0,1.4C30.8,33.3,30.5,33.4,30.3,33.4z"/>
		</g>
	</g>
	<g>
		<g>
			<path fill="#06728D" d="M39.7,9.3c-0.3,0-0.5-0.1-0.7-0.3c-0.4-0.4-0.4-1,0-1.4l6.8-6.8c0.4-0.4,1-0.4,1.4,0c0.4,0.4,0.4,1,0,1.4
				L40.4,9C40.2,9.2,39.9,9.3,39.7,9.3z"/>
		</g>
	</g>
</g>
</svg>
