<?xml version="1.0" encoding="utf-8"?>
<!-- Generator: Adobe Illustrator 18.0.0, SVG Export Plug-In . SVG Version: 6.00 Build 0)  -->
<!DOCTYPE svg PUBLIC "-//W3C//DTD SVG 1.1//EN" "http://www.w3.org/Graphics/SVG/1.1/DTD/svg11.dtd">
<svg version="1.1" id="Layer_1" xmlns="http://www.w3.org/2000/svg" xmlns:xlink="http://www.w3.org/1999/xlink" x="0px" y="0px"
	 viewBox="0 0 48 48" enable-background="new 0 0 48 48" xml:space="preserve">
<g>
	<path fill="#06728D" d="M30.4,0.5H17.6c-2.4,0-4.4,2-4.4,4.4V18c0,2.4,2,4.4,4.4,4.4h12.8c2.4,0,4.4-2,4.4-4.4V4.9
		C34.8,2.5,32.8,0.5,30.4,0.5z M26.8,17.8h-5.6v-1.1l2-0.2V6.9l-2,0V5.9l3.7-0.8v11.4l2,0.2V17.8z"/>
	<path fill="#F04B36" d="M17.7,25.6H4.9c-2.4,0-4.4,2-4.4,4.4v13.1c0,2.4,2,4.4,4.4,4.4h12.8c2.4,0,4.4-2,4.4-4.4V30
		C22.1,27.6,20.1,25.6,17.7,25.6z M15.5,43H7.3v-1.2l4.2-4.6c0.7-0.8,1.3-1.5,1.5-2c0.3-0.5,0.4-1,0.4-1.5c0-0.6-0.2-1.2-0.6-1.6
		c-0.4-0.4-0.9-0.7-1.5-0.7c-0.9,0-1.5,0.2-1.9,0.7c-0.4,0.4-0.6,1.1-0.6,1.9H7.1l0-0.1c0-1.1,0.3-2,1.1-2.8
		c0.8-0.7,1.8-1.1,3.1-1.1c1.1,0,2.1,0.3,2.7,1c0.7,0.7,1,1.5,1,2.5c0,0.7-0.2,1.4-0.6,2.1c-0.4,0.7-1,1.4-1.7,2.2l-3.3,3.6l0,0h4.5
		l0.1-1.5h1.5V43z"/>
	<path fill="#0DB89A" d="M43.1,25.6H30.3c-2.4,0-4.4,2-4.4,4.4v13.1c0,2.4,2,4.4,4.4,4.4h12.8c2.4,0,4.4-2,4.4-4.4V30
		C47.5,27.6,45.5,25.6,43.1,25.6z M39.6,42.1c-0.8,0.7-1.7,1-2.9,1c-1.2,0-2.1-0.3-2.9-0.9c-0.8-0.6-1.1-1.5-1.1-2.5l0-0.1h1.6
		c0,0.7,0.2,1.2,0.6,1.6c0.4,0.4,1,0.6,1.7,0.6c0.7,0,1.3-0.2,1.7-0.6c0.4-0.4,0.6-1,0.6-1.8c0-0.8-0.2-1.4-0.6-1.7
		c-0.4-0.4-0.9-0.6-1.7-0.6h-1.5v-1.3h1.5c0.8,0,1.3-0.2,1.6-0.6c0.3-0.4,0.5-0.9,0.5-1.6c0-0.7-0.2-1.3-0.5-1.7
		c-0.4-0.4-0.9-0.6-1.6-0.6c-0.7,0-1.2,0.2-1.6,0.6c-0.4,0.4-0.6,0.9-0.6,1.6h-1.7l0-0.1c0-1,0.3-1.8,1-2.5c0.7-0.7,1.7-1,2.8-1
		c1.2,0,2.1,0.3,2.8,0.9c0.7,0.6,1,1.5,1,2.7c0,0.5-0.2,1-0.5,1.6c-0.3,0.5-0.8,0.9-1.4,1.2c0.8,0.3,1.3,0.6,1.6,1.2
		c0.3,0.5,0.5,1.1,0.5,1.8C40.7,40.5,40.4,41.4,39.6,42.1z"/>
</g>
</svg>
