<?xml version="1.0" encoding="utf-8"?>
<!-- Generator: Adobe Illustrator 18.0.0, SVG Export Plug-In . SVG Version: 6.00 Build 0)  -->
<!DOCTYPE svg PUBLIC "-//W3C//DTD SVG 1.1//EN" "http://www.w3.org/Graphics/SVG/1.1/DTD/svg11.dtd">
<svg version="1.1" id="Layer_1" xmlns="http://www.w3.org/2000/svg" xmlns:xlink="http://www.w3.org/1999/xlink" x="0px" y="0px"
	 viewBox="0 0 48 48" enable-background="new 0 0 48 48" xml:space="preserve">
<g>
	<polygon fill="#F04B36" points="24,0.5 0.5,16.1 47.5,16.1 	"/>
	<path fill="#E77528" d="M7.6,19v28.5h11.9V34.9h9v12.6h11.9V19H7.6z M13.5,42.4c0,0.5-0.5,0.9-1,0.9s-1-0.4-1-0.9v-6.8
		c0-0.5,0.5-0.9,1-0.9s1,0.4,1,0.9V42.4z M13.5,30.5c0,0.5-0.5,0.9-1,0.9s-1-0.4-1-0.9v-6.8c0-0.5,0.5-0.9,1-0.9s1,0.4,1,0.9V30.5z
		 M25,30.5c0,0.5-0.5,0.9-1,0.9c-0.6,0-1-0.4-1-0.9v-6.8c0-0.5,0.5-0.9,1-0.9c0.6,0,1,0.4,1,0.9V30.5z M36.5,42.4
		c0,0.5-0.5,0.9-1,0.9c-0.6,0-1-0.4-1-0.9v-6.8c0-0.5,0.5-0.9,1-0.9c0.6,0,1,0.4,1,0.9V42.4z M36.5,30.5c0,0.5-0.5,0.9-1,0.9
		c-0.6,0-1-0.4-1-0.9v-6.8c0-0.5,0.5-0.9,1-0.9c0.6,0,1,0.4,1,0.9V30.5z"/>
</g>
</svg>
