<?xml version="1.0" encoding="utf-8"?>
<!-- Generator: Adobe Illustrator 18.0.0, SVG Export Plug-In . SVG Version: 6.00 Build 0)  -->
<!DOCTYPE svg PUBLIC "-//W3C//DTD SVG 1.1//EN" "http://www.w3.org/Graphics/SVG/1.1/DTD/svg11.dtd">
<svg version="1.1" id="Layer_1" xmlns="http://www.w3.org/2000/svg" xmlns:xlink="http://www.w3.org/1999/xlink" x="0px" y="0px"
	 viewBox="0 0 48 48" enable-background="new 0 0 48 48" xml:space="preserve">
<g>
	<g>
		<rect x="19.2" y="37.9" fill="#CFD0D1" width="9.7" height="7.7"/>
	</g>
	<g>
		<rect x="13.6" y="44.3" fill="#0DB89A" width="20.8" height="2.8"/>
	</g>
	<g>
		<path fill="#F04B36" d="M44.1,0.9H3.9C2,0.9,0.5,2.5,0.5,4.4v32.2C0.5,38.4,2,40,3.9,40h40.2c1.9,0,3.4-1.5,3.4-3.4V4.4
			C47.5,2.5,46,0.9,44.1,0.9z M24,37.9c-0.7,0-1.2-0.5-1.2-1.2c0-0.7,0.5-1.2,1.2-1.2c0.7,0,1.2,0.5,1.2,1.2
			C25.2,37.4,24.7,37.9,24,37.9z M44,33.7H4V4.8H44V33.7z"/>
	</g>
</g>
</svg>
