<?xml version="1.0" encoding="utf-8"?>
<!-- Generator: Adobe Illustrator 18.0.0, SVG Export Plug-In . SVG Version: 6.00 Build 0)  -->
<!DOCTYPE svg PUBLIC "-//W3C//DTD SVG 1.1//EN" "http://www.w3.org/Graphics/SVG/1.1/DTD/svg11.dtd">
<svg version="1.1" id="Layer_1" xmlns="http://www.w3.org/2000/svg" xmlns:xlink="http://www.w3.org/1999/xlink" x="0px" y="0px"
	 viewBox="0 0 48 48" enable-background="new 0 0 48 48" xml:space="preserve">
<g>
	<g>
		<path fill="#F04B36" d="M32.4,33.9H1.9c-0.8,0-1.4-0.6-1.4-1.4V1.9c0-0.8,0.6-1.4,1.4-1.4h30.5c0.8,0,1.4,0.6,1.4,1.4v30.5
			C33.9,33.2,33.2,33.9,32.4,33.9z M3.4,31H31V3.4H3.4V31z"/>
	</g>
	<g>
		<path fill="#06728D" d="M46.1,47.5c-0.4,0-0.7-0.1-1-0.4L31.4,33.4c-0.6-0.6-0.6-1.5,0-2c0.6-0.6,1.5-0.6,2,0L47.1,45
			c0.6,0.6,0.6,1.5,0,2C46.8,47.4,46.4,47.5,46.1,47.5z"/>
	</g>
	<g>
		<path fill="#06728D" d="M46.1,17c-0.4,0-0.7-0.1-1-0.4L31.4,3c-0.6-0.6-0.6-1.5,0-2c0.6-0.6,1.5-0.6,2,0l13.6,13.6
			c0.6,0.6,0.6,1.5,0,2C46.8,16.9,46.4,17,46.1,17z"/>
	</g>
	<g>
		<path fill="#06728D" d="M15.6,47.5c-0.4,0-0.7-0.1-1-0.4L0.9,33.4c-0.6-0.6-0.6-1.5,0-2c0.6-0.6,1.5-0.6,2,0L16.6,45
			c0.6,0.6,0.6,1.5,0,2C16.3,47.4,16,47.5,15.6,47.5z"/>
	</g>
	<g>
		<path fill="#06728D" d="M15.6,17c-0.4,0-0.7-0.1-1-0.4L0.9,3c-0.6-0.6-0.6-1.5,0-2c0.6-0.6,1.5-0.6,2,0l13.6,13.6
			c0.6,0.6,0.6,1.5,0,2C16.3,16.9,16,17,15.6,17z"/>
	</g>
	<g>
		<path fill="#E77528" d="M46.1,47.5H15.6c-0.8,0-1.4-0.6-1.4-1.4V15.6c0-0.8,0.6-1.4,1.4-1.4h30.5c0.8,0,1.4,0.6,1.4,1.4v30.5
			C47.5,46.9,46.9,47.5,46.1,47.5z M17,44.6h27.6V17H17V44.6z"/>
	</g>
</g>
</svg>
