<?xml version="1.0" encoding="utf-8"?>
<!-- Generator: Adobe Illustrator 18.0.0, SVG Export Plug-In . SVG Version: 6.00 Build 0)  -->
<!DOCTYPE svg PUBLIC "-//W3C//DTD SVG 1.1//EN" "http://www.w3.org/Graphics/SVG/1.1/DTD/svg11.dtd">
<svg version="1.1" id="Layer_1" xmlns="http://www.w3.org/2000/svg" xmlns:xlink="http://www.w3.org/1999/xlink" x="0px" y="0px"
	 viewBox="0 0 48 48" enable-background="new 0 0 48 48" xml:space="preserve">
<g>
	<path fill="#0DB89A" d="M37.3,2.6C37.8,2.5,38.1,2,38,1.5c-0.1-0.5-0.6-0.8-1.1-0.7c-3.1,0.7-5.5,2-7.4,3.5C28,2.2,25,2.4,23.6,2.6
		c-0.1-0.2-0.3-0.3-0.4-0.5C21,0.3,16-1.9,8,7.2C7.6,7.8,7.8,8.6,8.5,8.8C19.9,12.6,23.1,8.2,24,5.4c0.1-0.3,0.1-0.6,0.2-0.9
		c1.2-0.2,3.1-0.2,3.8,1c-4.3,4.3-5,9.7-5,9.9l1.9,0C25.2,13.9,27,5,37.3,2.6z"/>
	<path fill="#F04B36" d="M36,11.2c-3-0.7-6.2,0.6-9,3.2c-0.6,0.6-1.3,0.9-2,1.1l-1.9,0c-0.7-0.2-1.5-0.5-2.1-1.1
		c-2.8-2.6-6-3.9-9-3.2c-6.3,1.4-9.5,10.7-7.2,20.6c2.3,10,9.3,16.9,15.6,15.5c0.8-0.2,1.6-0.5,2.3-1c0.8-0.5,1.7-0.5,2.5,0
		c0.7,0.4,1.5,0.8,2.3,1c6.3,1.4,13.3-5.5,15.6-15.5C45.5,21.9,42.3,12.6,36,11.2z"/>
</g>
</svg>
