<?xml version="1.0" encoding="utf-8"?>
<!-- Generator: Adobe Illustrator 18.0.0, SVG Export Plug-In . SVG Version: 6.00 Build 0)  -->
<!DOCTYPE svg PUBLIC "-//W3C//DTD SVG 1.1//EN" "http://www.w3.org/Graphics/SVG/1.1/DTD/svg11.dtd">
<svg version="1.1" id="Layer_1" xmlns="http://www.w3.org/2000/svg" xmlns:xlink="http://www.w3.org/1999/xlink" x="0px" y="0px"
	 viewBox="0 0 48 48" enable-background="new 0 0 48 48" xml:space="preserve">
<g>
	<g>
		<path fill="#0DB89A" d="M5.2,47.5c-0.1,0-0.2,0-0.2,0c-0.5-0.1-0.9-0.7-0.7-1.2L7,35.7c0.1-0.5,0.7-0.8,1.2-0.7
			c0.5,0.1,0.9,0.7,0.7,1.2L6.2,46.8C6.1,47.2,5.7,47.5,5.2,47.5z"/>
	</g>
	<g>
		<path fill="#0DB89A" d="M15.3,8.1c-0.1,0-0.2,0-0.2,0c-0.5-0.1-0.9-0.7-0.7-1.2l1.4-5.6c0.1-0.5,0.7-0.8,1.2-0.7
			c0.5,0.1,0.9,0.7,0.7,1.2l-1.4,5.6C16.2,7.8,15.8,8.1,15.3,8.1z"/>
	</g>
	<g>
		<path fill="#0DB89A" d="M42.8,47.5c-0.5,0-0.9-0.3-1-0.7l-2.7-10.6c-0.1-0.5,0.2-1,0.7-1.2c0.5-0.1,1.1,0.2,1.2,0.7l2.7,10.6
			c0.1,0.5-0.2,1-0.7,1.2C42.9,47.5,42.8,47.5,42.8,47.5z"/>
	</g>
	<g>
		<path fill="#0DB89A" d="M32.6,8.1c-0.5,0-0.9-0.3-1-0.7l-1.4-5.6c-0.1-0.5,0.2-1,0.7-1.2c0.5-0.1,1.1,0.2,1.2,0.7l1.4,5.6
			c0.1,0.5-0.2,1-0.7,1.2C32.8,8.1,32.7,8.1,32.6,8.1z"/>
	</g>
	<path fill="#06728D" d="M24,47.5c-0.6,0-1-0.4-1-1V32.4c0-0.5,0.5-1,1-1c0.6,0,1,0.4,1,1v14.2C25,47.1,24.6,47.5,24,47.5z"/>
	<path fill="#06728D" d="M24,8.1c-0.6,0-1-0.4-1-1V1.5c0-0.5,0.5-1,1-1c0.6,0,1,0.4,1,1v5.6C25,7.6,24.6,8.1,24,8.1z"/>
	<path fill="#F04B36" d="M0.5,7.1v28.8h47V7.1H0.5z M14.8,26.9h-5V26l1.7-0.2v-8.1l-1.8,0v-0.9l3.3-0.7v9.7l1.7,0.2V26.9z
		 M26.6,26.9h-7.3v-1L23,22c0.7-0.7,1.1-1.3,1.3-1.7c0.2-0.4,0.4-0.8,0.4-1.3c0-0.5-0.2-1-0.5-1.4c-0.3-0.4-0.8-0.6-1.3-0.6
		c-0.8,0-1.4,0.2-1.7,0.6c-0.4,0.4-0.6,0.9-0.6,1.6h-1.5l0,0c0-0.9,0.3-1.7,1-2.3c0.7-0.6,1.6-1,2.8-1c1,0,1.8,0.3,2.4,0.9
		c0.6,0.6,0.9,1.3,0.9,2.2c0,0.6-0.2,1.2-0.5,1.8c-0.4,0.6-0.9,1.2-1.5,1.9l-3,3.1l0,0h4l0.1-1.2h1.3V26.9z M37.2,26.2
		c-0.7,0.6-1.5,0.8-2.6,0.8c-1,0-1.9-0.3-2.6-0.8c-0.7-0.5-1-1.3-1-2.2l0,0h1.5c0,0.6,0.2,1,0.5,1.4c0.4,0.3,0.9,0.5,1.5,0.5
		c0.6,0,1.2-0.2,1.5-0.5c0.4-0.3,0.5-0.8,0.5-1.5c0-0.7-0.2-1.2-0.5-1.5c-0.3-0.3-0.8-0.5-1.5-0.5h-1.3v-1.1h1.3
		c0.7,0,1.2-0.2,1.4-0.5c0.3-0.3,0.4-0.8,0.4-1.4c0-0.6-0.2-1.1-0.5-1.4c-0.3-0.3-0.8-0.5-1.4-0.5c-0.6,0-1.1,0.2-1.4,0.5
		c-0.4,0.3-0.5,0.8-0.5,1.3h-1.5l0,0c0-0.8,0.3-1.5,0.9-2.1c0.6-0.6,1.5-0.9,2.5-0.9c1,0,1.9,0.3,2.5,0.8c0.6,0.5,0.9,1.3,0.9,2.3
		c0,0.4-0.1,0.9-0.4,1.3c-0.3,0.4-0.7,0.8-1.3,1c0.7,0.2,1.2,0.5,1.4,1c0.3,0.5,0.4,1,0.4,1.5C38.2,24.9,37.9,25.7,37.2,26.2z"/>
</g>
</svg>
