<?xml version="1.0" encoding="utf-8"?>
<!-- Generator: Adobe Illustrator 18.0.0, SVG Export Plug-In . SVG Version: 6.00 Build 0)  -->
<!DOCTYPE svg PUBLIC "-//W3C//DTD SVG 1.1//EN" "http://www.w3.org/Graphics/SVG/1.1/DTD/svg11.dtd">
<svg version="1.1" id="Layer_1" xmlns="http://www.w3.org/2000/svg" xmlns:xlink="http://www.w3.org/1999/xlink" x="0px" y="0px"
	 viewBox="0 0 48 48" enable-background="new 0 0 48 48" xml:space="preserve">
<g>
	<path fill="#F04B36" d="M18.5,47.5c-0.2,0-0.4-0.1-0.6-0.2c-0.4-0.3-0.5-0.9-0.2-1.4l21.4-28.7c0.3-0.4,0.9-0.5,1.4-0.2
		c0.4,0.3,0.5,0.9,0.2,1.4L19.2,47.1C19.1,47.4,18.8,47.5,18.5,47.5z"/>
	<path fill="#F04B36" d="M18.5,47.5c-0.1,0-0.3,0-0.4-0.1l-14-6.1c-0.4-0.2-0.7-0.7-0.5-1.2l3.5-11.9c0.1-0.3,0.3-0.5,0.5-0.6
		c0.3-0.1,0.5-0.1,0.8,0l14,6.1c0.4,0.2,0.7,0.7,0.5,1.2l-3.5,11.9c-0.1,0.3-0.3,0.5-0.5,0.6C18.7,47.5,18.6,47.5,18.5,47.5z
		 M5.7,39.9l12.2,5.3l3-10L8.6,29.9L5.7,39.9z"/>
	<path fill="#F04B36" d="M39.9,18.8c-0.1,0-0.2,0-0.3,0c-0.5-0.2-0.8-0.7-0.6-1.2l3.6-12c0.2-0.5,0.7-0.8,1.2-0.6
		c0.5,0.2,0.8,0.7,0.6,1.2l-3.6,12C40.7,18.5,40.3,18.8,39.9,18.8z"/>
	<path fill="#4DA0D8" d="M19.1,13.8L7.3,28c-0.2,0.2-0.3,0.5-0.2,0.8c0.1,0.3,0.3,0.5,0.6,0.7l14,6.1c0.1,0.1,0.3,0.1,0.4,0.1
		c0.3,0,0.6-0.1,0.8-0.4l7.9-10.6l1-5L19.1,13.8z"/>
	<path fill="#4DA0D8" d="M44.4,5.5c-0.1-0.3-0.3-0.5-0.6-0.6L31.1,0.6c-0.4-0.1-0.8,0-1.1,0.3l-9.6,11.4l12.8,5.8
		c0.4,0.2,0.6,0.6,0.6,1.1l-0.4,1.7L44.3,6.4C44.5,6.1,44.5,5.8,44.4,5.5z"/>
	<path fill="#F04B36" d="M29.5,30.2c-0.1,0.5,0.2,1,0.8,1.1c0.1,0,0.1,0,0.2,0c0.4,0,0.9-0.3,0.9-0.8l2-9.7l-2.7,3.7L29.5,30.2z"/>
</g>
</svg>
