<?xml version="1.0" encoding="utf-8"?>
<!-- Generator: Adobe Illustrator 18.0.0, SVG Export Plug-In . SVG Version: 6.00 Build 0)  -->
<!DOCTYPE svg PUBLIC "-//W3C//DTD SVG 1.1//EN" "http://www.w3.org/Graphics/SVG/1.1/DTD/svg11.dtd">
<svg version="1.1" id="Layer_1" xmlns="http://www.w3.org/2000/svg" xmlns:xlink="http://www.w3.org/1999/xlink" x="0px" y="0px"
	 viewBox="0 0 48 48" enable-background="new 0 0 48 48" xml:space="preserve">
<g>
	<path fill="#0DB89A" d="M20.9,41.7l15.9-20.6l-5-5l-5-5L6.3,27.1c0,0,4.9,5.1-1.4,15.1c-1.1-0.7-2.5-0.5-3.5,0.4
		c-1.1,1.1-1.1,2.9,0,4.1c1.1,1.1,2.9,1.1,4.1,0c0.9-0.9,1.1-2.4,0.4-3.5C15.8,36.9,20.9,41.7,20.9,41.7z M14.7,33.3
		c-1.1-1.1-1.1-2.9,0-4c0.9-0.9,2.2-1,3.2-0.5c0,0,0-0.1,0.1-0.1l5.5-5.5c0.4-0.4,0.9-0.4,1.3,0c0.4,0.4,0.4,0.9,0,1.3L19.3,30
		c0,0-0.1,0.1-0.1,0.1c0.5,1,0.4,2.4-0.5,3.2C17.6,34.4,15.8,34.4,14.7,33.3z"/>
	
		<rect x="25" y="5.8" transform="matrix(0.7071 0.7071 -0.7071 0.7071 19.2833 -21.3281)" fill="#06728D" width="20.7" height="13.6"/>
</g>
</svg>
