<?xml version="1.0" encoding="utf-8"?>
<!-- Generator: Adobe Illustrator 18.0.0, SVG Export Plug-In . SVG Version: 6.00 Build 0)  -->
<!DOCTYPE svg PUBLIC "-//W3C//DTD SVG 1.1//EN" "http://www.w3.org/Graphics/SVG/1.1/DTD/svg11.dtd">
<svg version="1.1" id="Layer_1" xmlns="http://www.w3.org/2000/svg" xmlns:xlink="http://www.w3.org/1999/xlink" x="0px" y="0px"
	 viewBox="0 0 48 48" enable-background="new 0 0 48 48" xml:space="preserve">
<g>
	<path fill="#F04B36" d="M24,24.8c-5.4,0-9.8,4.3-9.8,9.6c0,5.3,4.4,9.6,9.8,9.6c5.4,0,9.8-4.3,9.8-9.6C33.8,29.1,29.4,24.8,24,24.8
		z M27,41.1h-6v-1.2l2.1-0.3v-10l-2.1,0v-1.1l4-0.8v12l2.1,0.3V41.1z"/>
	<path fill="none" d="M24,23.3c-6.3,0-11.3,5-11.3,11.1c0,6.1,5.1,11.1,11.3,11.1c6.3,0,11.3-5,11.3-11.1
		C35.3,28.3,30.3,23.3,24,23.3z"/>
	<polygon fill="#374F5A" points="5.2,0.5 5.2,0.5 5.2,0.5 	"/>
	<polygon fill="#F7A93B" points="39,6.2 42.8,0.5 5.2,0.5 5.2,0.5 9,6.2 	"/>
	<path fill="#06728D" d="M47.5,3.7l-4.7-3.2L39,6.2L28.7,22.1c-1.5-0.5-3-0.8-4.7-0.8s-3.2,0.3-4.7,0.8L9,6.2L5.2,0.5L0.5,3.7
		l13.8,21.7c-2.3,2.3-3.6,5.5-3.6,9c0,7.2,6,13.1,13.3,13.1s13.3-5.9,13.3-13.1c0-3.5-1.4-6.6-3.6-9L47.5,3.7z M35.3,34.4
		c0,6.1-5.1,11.1-11.3,11.1c-6.3,0-11.3-5-11.3-11.1c0-6.1,5.1-11.1,11.3-11.1C30.3,23.3,35.3,28.3,35.3,34.4z"/>
</g>
</svg>
