<?xml version="1.0" encoding="utf-8"?>
<!-- Generator: Adobe Illustrator 18.0.0, SVG Export Plug-In . SVG Version: 6.00 Build 0)  -->
<!DOCTYPE svg PUBLIC "-//W3C//DTD SVG 1.1//EN" "http://www.w3.org/Graphics/SVG/1.1/DTD/svg11.dtd">
<svg version="1.1" id="Layer_1" xmlns="http://www.w3.org/2000/svg" xmlns:xlink="http://www.w3.org/1999/xlink" x="0px" y="0px"
	 viewBox="0 0 48 48" enable-background="new 0 0 48 48" xml:space="preserve">
<g>
	<rect x="12.9" y="43.9" fill="#F04B36" width="22.3" height="3.6"/>
	<path fill="#E77528" d="M46.3,6.6c-0.5-1.5-1.9-2.6-3.9-2.9c-1-0.2-2.1-0.1-3,0.2c0,0,0,0,0,0c0.2-2.1,0.2-3.5,0.2-3.5H8.4
		c0,0,0,1.3,0.2,3.5c0,0,0,0,0,0c-0.9-0.3-2-0.4-3-0.2C3.6,4.1,2.2,5.1,1.7,6.6c-0.6,1.7-0.3,4.7,4.2,9.6c1.9,2.1,4.2,4,8.7,6.3
		c0,0,0,0,0,0c1.3,1.9,2.8,3.8,4.7,5.4c0.9,0.7,1.7,1.6,2.3,2.6c1.4,2.3,2.4,6.1-3.5,8.8h0v2.2h12.1v-2.2h0
		c-5.9-2.7-4.9-6.5-3.5-8.8c0.6-1,1.4-1.8,2.3-2.6c1.9-1.6,3.4-3.4,4.7-5.4c0,0,0,0,0,0c4.5-2.3,6.8-4.2,8.7-6.3
		C46.7,11.4,46.9,8.3,46.3,6.6z M7.5,15.5c-3.1-3.3-4.5-6.3-3.8-8C4,6.5,5,5.8,6.3,5.6c0.3,0,0.6-0.1,0.8-0.1c0.6,0,1.1,0.1,1.6,0.2
		c0.5,3.7,1.5,9,3.9,13.9C10.1,18.1,8.7,16.7,7.5,15.5z M40.4,15.5c-1.1,1.2-2.6,2.6-5.2,4.2c2.4-5,3.5-10.2,3.9-13.9
		c0.5-0.2,1-0.2,1.6-0.2c0.3,0,0.6,0,0.8,0.1c1.3,0.2,2.3,0.9,2.6,1.8C44.8,9.2,43.4,12.1,40.4,15.5z"/>
</g>
</svg>
