<?xml version="1.0" encoding="utf-8"?>
<!-- Generator: Adobe Illustrator 18.0.0, SVG Export Plug-In . SVG Version: 6.00 Build 0)  -->
<!DOCTYPE svg PUBLIC "-//W3C//DTD SVG 1.1//EN" "http://www.w3.org/Graphics/SVG/1.1/DTD/svg11.dtd">
<svg version="1.1" id="Layer_1" xmlns="http://www.w3.org/2000/svg" xmlns:xlink="http://www.w3.org/1999/xlink" x="0px" y="0px"
	 viewBox="0 0 48 48" enable-background="new 0 0 48 48" xml:space="preserve">
<g>
	<path fill="#0DB89A" d="M1.7,47.5c0-12.3,10-22.3,22.3-22.3c12.3,0,22.3,10,22.3,22.3"/>
	<path fill="#F7A93B" d="M32.1,14.6c-1.3-1-4.6-1.6-8.1-1.6c-3.5,0-6.9,0.7-8.1,1.6l-1.2,0.9c0.5,4.8,4.5,8.5,9.3,8.5
		c4.8,0,8.8-3.7,9.3-8.4L32.1,14.6z"/>
	<path fill="#06728D" d="M14.7,13.1c2-1.6,6.4-2,9.3-2s7.3,0.5,9.3,2V7.4l6.1-1.9L24,0.5L8.5,5.4l6.1,1.9V13.1z"/>
	<path fill="#A61E23" d="M38.1,8.6c-0.3,0-0.6-0.3-0.6-0.6V5.8c0-0.3,0.3-0.6,0.6-0.6c0.3,0,0.6,0.3,0.6,0.6v2.3
		C38.7,8.4,38.4,8.6,38.1,8.6z"/>
	<path fill="#F04B36" d="M38.3,17.8c0.2,0.1,0.4,0,0.5-0.1c0.1-0.2,0.1-0.4,0.2-0.5c0.1-1,0.1-2,0.1-3c0.1,0.8,0.1,1.6,0,2.4
		c0,0.3-0.1,0.6,0.1,0.8s0.5,0.4,0.7,0.2c0.1-0.6,0.1-1.2,0.1-1.9c0-1.4,0.1-2.9-0.5-4.3c-0.2-0.4-0.4-0.9-0.3-1.4
		c0-0.1,0.1-0.2,0.1-0.3c0.2-0.5,0.1-1,0-1.5c0-0.1,0-0.3-0.1-0.4c-0.1-0.2-0.3-0.2-0.5-0.3c-0.5-0.1-1.1-0.2-1.5,0.2
		C37,8,36.9,8.2,36.9,8.4c-0.1,0.6,0,1.2,0.3,1.8c0.1,0.3,0.3,0.6,0.4,0.9c0.1,0.6-0.3,1.1-0.6,1.6c-0.5,0.8-0.7,1.7-0.8,2.6
		c0,0.6,0,1.1,0.2,1.6c0.1,0.2,0.4,0.5,0.6,0.3C37,17.1,37,17,37,16.8c0-0.9,0.1-1.8,0.1-2.7c0.3,0.5,0.3,1.1,0.2,1.7
		c-0.1,0.6-0.3,1.1-0.3,1.7c0.2,0,0.4-0.1,0.6-0.3c0.1-0.2,0.1-0.4,0.2-0.6c0.1-0.8,0.2-1.6,0.3-2.4c0.3,1,0.3,2,0,3
		C38.1,17.4,38.1,17.7,38.3,17.8z"/>
</g>
</svg>
