<?xml version="1.0" encoding="utf-8"?>
<!-- Generator: Adobe Illustrator 18.0.0, SVG Export Plug-In . SVG Version: 6.00 Build 0)  -->
<!DOCTYPE svg PUBLIC "-//W3C//DTD SVG 1.1//EN" "http://www.w3.org/Graphics/SVG/1.1/DTD/svg11.dtd">
<svg version="1.1" id="Layer_1" xmlns="http://www.w3.org/2000/svg" xmlns:xlink="http://www.w3.org/1999/xlink" x="0px" y="0px"
	 viewBox="0 0 48 48" enable-background="new 0 0 48 48" xml:space="preserve">
<g>
	<path fill="#F04B36" d="M32.8,23c0,0-8.1-6.7-11-6.6l-5.1,5.5c0,0,5.6,2.1,9.7,7.2L32.8,23z"/>
	<path fill="#F04B36" d="M34.4,23.3c-0.2,0-0.4-0.1-0.7,0c-0.3,0.1-0.6,0.3-0.8,0.5c-1.4,1.2-5.4,5.2-5.7,6.1
		c2.3,0.1,4.6,1.1,6.2,2.7c-0.4-1.8-0.6-3.6-0.6-5.4c2.4-0.5,4.8-1.3,7.1-2.3c-0.8-0.9-2-1.1-3.2-1.3C36,23.5,35.2,23.4,34.4,23.3z"
		/>
	<g>
		<path fill="#E77528" d="M8.7,47.1c-0.5,0-1-0.1-1.3-0.2c-3.2-1.4-5.7-3.7-6.7-6.4c-0.6-1.5-0.7-3.6,0.8-4.9
			c1.3-1.1,3.2-1.1,5.7,0.2c1,0.5,2.1,1.1,2.7,2.2c0.4,0.7,0.6,1.6,0.4,2.4c-0.2,0.7-0.6,1.2-1.1,1.6c-1,0.6-2.3,0.4-3.3-0.5
			c-0.8-0.7-1.2-1.6-1.6-2.3c-0.2-0.5,0-1,0.4-1.3c0.5-0.2,1,0,1.3,0.4C6.3,39,6.6,39.6,7.1,40c0.4,0.3,0.8,0.4,1.1,0.3
			c0.1-0.1,0.2-0.2,0.2-0.4c0.1-0.3,0-0.7-0.2-1c-0.4-0.6-1.2-1.1-2-1.5c-1.2-0.6-2.7-1.2-3.6-0.4c-0.7,0.6-0.6,1.8-0.2,2.8
			C3.4,42,5.4,44,8.2,45.1c0,0,1.1,0.4,2.3-0.7c0.5-0.4,2-1.9,4.1-4c8-7.9,24.7-24.4,31.6-29.1c0.4-0.3,1-0.2,1.3,0.3
			c0.3,0.4,0.2,1-0.3,1.3c-6.7,4.5-23.3,21-31.3,28.8c-2.2,2.2-3.7,3.6-4.2,4.1C10.7,46.8,9.6,47.1,8.7,47.1z"/>
	</g>
	<g>
		<path fill="#0DB89A" d="M16.1,23.7l-0.8-0.3c-1.2,1.3-2.5,2.5-3.7,3.7c-1.1,1.1-2.4,2.4-3.8,3.5c-0.6,0.5-1.2,1-1.7,1.5
			c-1.3,1.1-2.6,2.2-3.9,3.1c1.3-0.7,3-0.5,5.1,0.6c1,0.5,2.1,1.1,2.7,2.2c0.4,0.7,0.6,1.6,0.4,2.4c-0.1,0.5-0.3,0.9-0.7,1.2
			c0,0,0,0,0,0c3-3,6-6,9-8.8c1.5-1.4,3-2.9,4.5-4.4C19.8,25.1,16.1,23.7,16.1,23.7z"/>
	</g>
	<g>
		<path fill="#0DB89A" d="M40.4,2c-2.2-1.3-5-1.8-6.4,0c-3.4,4.3-6.9,8.6-10.6,12.7c2.6,0.7,6.1,3.1,8.6,5.1
			c2.1-1.9,4.4-3.9,6.8-5.8c0.6-0.4,1.2-0.9,1.8-1.3c1.3-0.9,2.6-1.8,3.7-2.9c0.3-0.4,1.2-1.3,1-2.5c-0.1-0.6-0.4-1-0.7-1.3
			C43.4,4.7,42.1,3.1,40.4,2z"/>
	</g>
</g>
</svg>
