<?xml version="1.0" encoding="utf-8"?>
<!-- Generator: Adobe Illustrator 18.0.0, SVG Export Plug-In . SVG Version: 6.00 Build 0)  -->
<!DOCTYPE svg PUBLIC "-//W3C//DTD SVG 1.1//EN" "http://www.w3.org/Graphics/SVG/1.1/DTD/svg11.dtd">
<svg version="1.1" id="Layer_1" xmlns="http://www.w3.org/2000/svg" xmlns:xlink="http://www.w3.org/1999/xlink" x="0px" y="0px"
	 viewBox="0 0 48 48" enable-background="new 0 0 48 48" xml:space="preserve">
<g>
	<circle fill="#06728D" cx="9.6" cy="32.7" r="4.9"/>
	<circle fill="#06728D" cx="38.3" cy="32.7" r="4.9"/>
	<path fill="#4DA0D8" d="M13,10.4c-1.1,0-1.9,0.9-1.9,1.9v6.7H3c-1.4,0-2.5,1.1-2.5,2.5v11.1h2.3c0-3.7,3-6.7,6.7-6.7
		c3.7,0,6.7,3,6.7,6.7h15.3c0-3.7,3-6.7,6.7-6.7c3.7,0,6.7,3,6.7,6.7h2.5V10.4H13z M20,18.7h-5.4v-5.4H20V18.7z M29.6,31.6h-7.1
		V13.2h7.1V31.6z M37.5,18.7h-5.4v-5.4h5.4V18.7z M46.2,18.7h-5.4v-5.4h5.4V18.7z"/>
	<rect x="23.6" y="14.5" fill="#F04B36" width="4.8" height="7.8"/>
</g>
</svg>
