<?xml version="1.0" encoding="utf-8"?>
<!-- Generator: Adobe Illustrator 18.0.0, SVG Export Plug-In . SVG Version: 6.00 Build 0)  -->
<!DOCTYPE svg PUBLIC "-//W3C//DTD SVG 1.1//EN" "http://www.w3.org/Graphics/SVG/1.1/DTD/svg11.dtd">
<svg version="1.1" id="Layer_1" xmlns="http://www.w3.org/2000/svg" xmlns:xlink="http://www.w3.org/1999/xlink" x="0px" y="0px"
	 viewBox="0 0 48 48" enable-background="new 0 0 48 48" xml:space="preserve">
<g>
	<path fill="#F04B36" d="M9.6,46.8c-0.2,0-0.5-0.1-0.7-0.2c-0.8-0.4-1.1-1.3-0.7-2.1l3.5-6.9c0.4-0.8,1.3-1.1,2.1-0.7
		c0.8,0.4,1.1,1.3,0.7,2.1L11,45.9C10.7,46.5,10.1,46.8,9.6,46.8z"/>
	<path fill="#F04B36" d="M38.4,46.8c-0.6,0-1.1-0.3-1.4-0.8L33.5,39c-0.4-0.8-0.1-1.7,0.7-2.1c0.8-0.4,1.7-0.1,2.1,0.7l3.5,6.9
		c0.4,0.8,0.1,1.7-0.7,2.1C38.9,46.7,38.7,46.8,38.4,46.8z"/>
	<g>
		<path fill="#06728D" d="M8.1,1.2c-4.2,0-7.6,3.4-7.6,7.6c0,1.8,0.6,3.4,1.6,4.7l12-9.3C12.7,2.4,10.6,1.2,8.1,1.2z"/>
	</g>
	<g>
		<path fill="#06728D" d="M39.9,1.2c4.2,0,7.6,3.4,7.6,7.6c0,1.8-0.6,3.4-1.6,4.7l-12-9.3C35.3,2.4,37.4,1.2,39.9,1.2z"/>
	</g>
	<path fill="#0DB89A" d="M24,5.3c-10.2,0-18.5,8.3-18.5,18.6c0,10.3,8.3,18.6,18.5,18.6c10.2,0,18.5-8.3,18.5-18.6
		C42.5,13.6,34.2,5.3,24,5.3z M33.6,15.2L25,24.6c-0.2,0.2-0.4,0.3-0.6,0.3l-8.8,1.3c-0.1,0-0.1,0-0.2,0c-0.5,0-0.9-0.4-1-0.9
		c-0.1-0.6,0.3-1.1,0.9-1.2l8.5-1.2l8.3-9.1c0.4-0.4,1-0.4,1.5-0.1C33.9,14.2,34,14.8,33.6,15.2z"/>
</g>
</svg>
