<?xml version="1.0" encoding="utf-8"?>
<!-- Generator: Adobe Illustrator 18.0.0, SVG Export Plug-In . SVG Version: 6.00 Build 0)  -->
<!DOCTYPE svg PUBLIC "-//W3C//DTD SVG 1.1//EN" "http://www.w3.org/Graphics/SVG/1.1/DTD/svg11.dtd">
<svg version="1.1" id="Layer_1" xmlns="http://www.w3.org/2000/svg" xmlns:xlink="http://www.w3.org/1999/xlink" x="0px" y="0px"
	 viewBox="0 0 48 48" enable-background="new 0 0 48 48" xml:space="preserve">
<g>
	<path fill="#4DA0D8" d="M45.5,5.4c-0.8-0.3-1.5-0.2-2.1,0V3.9c0-1.9-1.5-3.4-3.3-3.4H7.8C6,0.5,4.6,2,4.6,3.9v1.5
		C4,5.2,3.3,5.1,2.5,5.4c-1.2,0.5-2,1.8-2,3.2v11.6c0,0.6,0.4,1,1,1c0.5,0,1-0.5,1-1V8.6c0-0.6,0.3-1.1,0.7-1.2
		c0.6-0.3,1.1,0.2,1.4,0.5v28.6c0,1.8,1.4,3.3,3.1,3.4v3.7c0,2.2,1.7,3.9,3.7,3.9s3.7-1.8,3.7-3.9v-3.7h17.9v3.7
		c0,2.2,1.7,3.9,3.7,3.9c2,0,3.7-1.8,3.7-3.9v-3.7c1.7-0.1,3.1-1.6,3.1-3.4V7.8c0.2-0.3,0.8-0.8,1.4-0.5c0.4,0.2,0.7,0.7,0.7,1.2
		v11.6c0,0.6,0.4,1,1,1c0.5,0,1-0.5,1-1V8.6C47.5,7.2,46.7,5.9,45.5,5.4z M33.6,33.2c0-1.3,1-2.4,2.3-2.4c1.3,0,2.3,1.1,2.3,2.4
		c0,1.3-1,2.4-2.3,2.4C34.6,35.6,33.6,34.5,33.6,33.2z M8.5,7.4h31.1v14.8H8.5V7.4z M12.1,35.6c-1.3,0-2.3-1.1-2.3-2.4
		c0-1.3,1-2.4,2.3-2.4c1.3,0,2.3,1.1,2.3,2.4C14.4,34.5,13.4,35.6,12.1,35.6z M29.9,34.2H18.1v-6h11.9V34.2z"/>
	<rect x="10.4" y="8.8" fill="#E77528" width="27.3" height="11.9"/>
	<circle fill="#F04B36" cx="12.1" cy="33.2" r="1.7"/>
	<circle fill="#F04B36" cx="35.9" cy="33.2" r="1.7"/>
</g>
</svg>
