<?xml version="1.0" encoding="utf-8"?>
<!-- Generator: Adobe Illustrator 18.0.0, SVG Export Plug-In . SVG Version: 6.00 Build 0)  -->
<!DOCTYPE svg PUBLIC "-//W3C//DTD SVG 1.1//EN" "http://www.w3.org/Graphics/SVG/1.1/DTD/svg11.dtd">
<svg version="1.1" id="Layer_1" xmlns="http://www.w3.org/2000/svg" xmlns:xlink="http://www.w3.org/1999/xlink" x="0px" y="0px"
	 viewBox="0 0 48 48" enable-background="new 0 0 48 48" xml:space="preserve">
<g>
	<path fill="#F04B36" d="M24,47.5c-6.4,0-11.4-10.3-11.4-23.5c0-13.2,5-23.5,11.4-23.5c6.4,0,11.4,10.3,11.4,23.5
		C35.4,37.2,30.4,47.5,24,47.5z M24,2.5c-5.1,0-9.4,9.9-9.4,21.5c0,11.7,4.3,21.5,9.4,21.5c5.1,0,9.4-9.9,9.4-21.5
		C33.4,12.3,29.1,2.5,24,2.5z"/>
	<path fill="#0DB89A" d="M12.2,39c-4.4,0-7.6-1.4-9-4c-3-5.7,3.8-14.9,15.4-21.1C24.5,10.8,30.8,9,35.8,9c4.4,0,7.6,1.4,9,4
		c3,5.7-3.8,14.9-15.4,21.1C23.5,37.2,17.2,39,12.2,39z M35.8,11c-4.7,0-10.6,1.7-16.2,4.7C9.3,21.1,2.6,29.5,5,34.1
		C6,36,8.5,37,12.2,37c4.7,0,10.6-1.7,16.2-4.7c10.3-5.5,17-13.9,14.6-18.4C42,12,39.5,11,35.8,11z"/>
	<path fill="#F7A93B" d="M35.8,39L35.8,39c-5,0-11.2-1.8-17.1-4.9C7,27.9,0.2,18.7,3.2,13c1.4-2.6,4.6-4,9-4c5,0,11.2,1.8,17.1,4.9
		C41,20.1,47.8,29.3,44.8,35C43.4,37.6,40.2,39,35.8,39z M12.2,11C8.5,11,6,12,5,13.9c-2.4,4.5,4.3,13,14.6,18.4
		c5.6,3,11.5,4.7,16.2,4.7c3.7,0,6.3-1,7.3-2.9c2.4-4.5-4.3-13-14.6-18.4C22.8,12.7,16.9,11,12.2,11z"/>
</g>
</svg>
