<?xml version="1.0" encoding="utf-8"?>
<!-- Generator: Adobe Illustrator 18.0.0, SVG Export Plug-In . SVG Version: 6.00 Build 0)  -->
<!DOCTYPE svg PUBLIC "-//W3C//DTD SVG 1.1//EN" "http://www.w3.org/Graphics/SVG/1.1/DTD/svg11.dtd">
<svg version="1.1" id="Layer_1" xmlns="http://www.w3.org/2000/svg" xmlns:xlink="http://www.w3.org/1999/xlink" x="0px" y="0px"
	 viewBox="0 0 48 48" enable-background="new 0 0 48 48" xml:space="preserve">
<g>
	<g>
		<g>
			<path fill="#0DB89A" d="M9,23.7c-2.1,0-4.2-0.7-5.8-1.8c-0.3-0.2-0.4-0.5-0.4-0.8V8.5c0-0.5,0.5-1,1-1c0.6,0,1,0.4,1,1
				c0,0.7,1.7,1.7,4.3,1.7c2.7,0,4.3-1,4.3-1.7c0-0.5,0.5-1,1-1c0.6,0,1,0.4,1,1v13.1c0,0.4-0.3,0.8-0.8,0.9
				c-0.4,0.1-0.9,0.2-1.3,0.3c-1.1,0.3-2.2,0.6-3.4,0.7C9.8,23.7,9.4,23.7,9,23.7z M4.8,20.6c1.4,0.9,3.3,1.3,5,1.1
				c1-0.1,2-0.4,3.1-0.7c0.2-0.1,0.4-0.1,0.6-0.2v-9.6c-1.1,0.6-2.6,0.9-4.3,0.9c-1.7,0-3.2-0.3-4.3-0.9V20.6z"/>
		</g>
	</g>
	<g>
		<g>
			<path fill="#F04B36" d="M9.2,12.2c-3.7,0-6.4-1.6-6.4-3.6c0-2.1,2.8-3.7,6.4-3.7c3.7,0,6.4,1.6,6.4,3.7
				C15.6,10.6,12.9,12.2,9.2,12.2z M9.2,6.8c-2.7,0-4.3,1-4.3,1.7c0,0.7,1.7,1.7,4.3,1.7c2.7,0,4.3-1,4.3-1.7
				C13.5,7.8,11.8,6.8,9.2,6.8z"/>
		</g>
	</g>
	<g>
		<g>
			<path fill="#E77528" d="M14.2,20.8c-0.5,0.1-0.9,0.2-1.4,0.4c-1,0.3-2,0.6-3,0.7c-1.9,0.3-4-0.2-5.5-1.3l-1.7-1.2l0.2,12.6
				c0,3.3,3,5.9,6.5,5.9c3.5,0,6.4-2.8,6.3-6.1l-0.2-11.4L14.2,20.8z M7,34.5c-0.7,0-1.3-0.5-1.3-1.2c0-0.7,0.6-1.2,1.3-1.2
				c0.7,0,1.3,0.5,1.3,1.2C8.3,33.9,7.8,34.5,7,34.5z M8.9,26.7c-0.7,0-1.3-0.5-1.4-1.2c0-0.7,0.6-1.2,1.3-1.3
				c0.7,0,1.3,0.5,1.4,1.2C10.2,26.1,9.6,26.7,8.9,26.7z M11.9,31.5c-0.9,0-1.6-0.6-1.6-1.4c0-0.8,0.7-1.5,1.5-1.5
				c0.9,0,1.6,0.6,1.6,1.4C13.4,30.9,12.7,31.5,11.9,31.5z"/>
		</g>
	</g>
	<g>
		<g>
			<path fill="#0DB89A" d="M38.7,23.7c-2.1,0-4.2-0.7-5.8-1.8c-0.3-0.2-0.4-0.5-0.4-0.8V8.5c0-0.5,0.5-1,1-1c0.6,0,1,0.4,1,1
				c0,0.7,1.7,1.7,4.3,1.7c2.7,0,4.3-1,4.3-1.7c0-0.5,0.5-1,1-1c0.6,0,1,0.4,1,1v13.1c0,0.4-0.3,0.8-0.8,0.9
				c-0.4,0.1-0.9,0.2-1.3,0.3c-1.1,0.3-2.2,0.6-3.4,0.7C39.5,23.7,39.1,23.7,38.7,23.7z M34.6,20.6c1.4,0.9,3.3,1.3,5,1.1
				c1-0.1,2-0.4,3.1-0.7c0.2-0.1,0.4-0.1,0.6-0.2v-9.6c-1.1,0.6-2.6,0.9-4.3,0.9c-1.7,0-3.2-0.3-4.3-0.9V20.6z"/>
		</g>
	</g>
	<g>
		<g>
			<path fill="#F04B36" d="M38.9,12.2c-3.7,0-6.4-1.6-6.4-3.6c0-2.1,2.8-3.7,6.4-3.7c3.7,0,6.4,1.6,6.4,3.7
				C45.3,10.6,42.6,12.2,38.9,12.2z M38.9,6.8c-2.6,0-4.3,1-4.3,1.7c0,0.7,1.7,1.7,4.3,1.7c2.7,0,4.3-1,4.3-1.7
				C43.2,7.8,41.6,6.8,38.9,6.8z"/>
		</g>
	</g>
	<g>
		<g>
			<path fill="#E77528" d="M43.9,20.4c-0.5,0.1-0.9,0.2-1.4,0.4c-1,0.3-2,0.6-3,0.7c-1.9,0.3-4-0.2-5.5-1.3L32.3,19l0.2,12.6
				c0,3.3,3,5.9,6.5,5.9c3.5,0,6.4-2.8,6.3-6.1l-0.2-11.4L43.9,20.4z M36.8,34.1c-0.7,0-1.3-0.5-1.3-1.2c0-0.7,0.6-1.2,1.3-1.2
				c0.7,0,1.3,0.5,1.3,1.2C38,33.5,37.5,34.1,36.8,34.1z M38.6,26.3c-0.7,0-1.3-0.5-1.4-1.2c0-0.7,0.6-1.2,1.3-1.3
				c0.7,0,1.3,0.5,1.4,1.2C39.9,25.7,39.4,26.3,38.6,26.3z M41.6,31.1c-0.9,0-1.6-0.6-1.6-1.4c0-0.8,0.7-1.5,1.5-1.5
				c0.9,0,1.6,0.6,1.6,1.4C43.1,30.4,42.5,31.1,41.6,31.1z"/>
		</g>
	</g>
	<path fill="#06728D" d="M46.5,15.4h-1.8c-0.5,0-1-0.4-1-1c0-0.5,0.4-1,1-1h1.8c0.5,0,1,0.4,1,1C47.5,15,47.1,15.4,46.5,15.4z"/>
	<path fill="#06728D" d="M3.2,15.4H1.5c-0.5,0-1-0.4-1-1c0-0.5,0.4-1,1-1h1.8c0.5,0,1,0.4,1,1C4.2,15,3.8,15.4,3.2,15.4z"/>
	<g>
		<path fill="#06728D" d="M24.4,47.5c-0.5,0-1-0.4-1-1v-45c0-0.5,0.4-1,1-1c0.5,0,1,0.4,1,1v45C25.3,47.1,24.9,47.5,24.4,47.5z"/>
	</g>
	<g>
		<path fill="#06728D" d="M38.9,47.5H9.8c-0.5,0-1-0.4-1-1c0-0.5,0.4-1,1-1h29.1c0.5,0,1,0.4,1,1C39.9,47.1,39.4,47.5,38.9,47.5z"/>
	</g>
	<g>
		<path fill="#06728D" d="M33.4,15.4H15.3c-0.5,0-1-0.4-1-1c0-0.5,0.4-1,1-1h18.1c0.5,0,1,0.4,1,1C34.4,15,34,15.4,33.4,15.4z"/>
	</g>
</g>
</svg>
