<?xml version="1.0" encoding="utf-8"?>
<!-- Generator: Adobe Illustrator 18.0.0, SVG Export Plug-In . SVG Version: 6.00 Build 0)  -->
<!DOCTYPE svg PUBLIC "-//W3C//DTD SVG 1.1//EN" "http://www.w3.org/Graphics/SVG/1.1/DTD/svg11.dtd">
<svg version="1.1" id="Layer_1" xmlns="http://www.w3.org/2000/svg" xmlns:xlink="http://www.w3.org/1999/xlink" x="0px" y="0px"
	 viewBox="0 0 48 48" enable-background="new 0 0 48 48" xml:space="preserve">
<g>
	<polygon fill="#F04B36" points="34.6,7.4 20.2,23 19.8,38.8 24.7,37.6 40.9,10.8 	"/>
	<path fill="#4DA0D8" d="M24,0.5C11,0.5,0.5,11,0.5,24C0.5,37,11,47.5,24,47.5C37,47.5,47.5,37,47.5,24C47.5,11,37,0.5,24,0.5z
		 M5.7,25H3.3c-0.6,0-1-0.5-1-1c0-0.6,0.5-1,1-1h2.4c0.6,0,1,0.5,1,1C6.7,24.6,6.2,25,5.7,25z M23,3.3c0-0.6,0.5-1,1-1
		c0.6,0,1,0.5,1,1v2.4c0,0.6-0.5,1-1,1c-0.6,0-1-0.5-1-1V3.3z M25,44.7c0,0.6-0.5,1-1,1c-0.6,0-1-0.5-1-1v-2.4c0-0.6,0.5-1,1-1
		c0.6,0,1,0.5,1,1V44.7z M36.5,12.4L25,24.5l-1.4,11.9c-0.1,0.5-0.5,0.9-1,0.9c0,0-0.1,0-0.1,0c-0.6-0.1-1-0.6-0.9-1.1L23,23.9
		c0-0.2,0.1-0.4,0.3-0.6L35,11c0.4-0.4,1-0.4,1.4,0C36.8,11.3,36.9,12,36.5,12.4z M44.7,25h-2.4c-0.6,0-1-0.5-1-1c0-0.6,0.5-1,1-1
		h2.4c0.6,0,1,0.5,1,1C45.7,24.6,45.3,25,44.7,25z"/>
</g>
</svg>
