<?xml version="1.0" encoding="utf-8"?>
<!-- Generator: Adobe Illustrator 18.0.0, SVG Export Plug-In . SVG Version: 6.00 Build 0)  -->
<!DOCTYPE svg PUBLIC "-//W3C//DTD SVG 1.1//EN" "http://www.w3.org/Graphics/SVG/1.1/DTD/svg11.dtd">
<svg version="1.1" id="Layer_1" xmlns="http://www.w3.org/2000/svg" xmlns:xlink="http://www.w3.org/1999/xlink" x="0px" y="0px"
	 viewBox="0 0 48 48" enable-background="new 0 0 48 48" xml:space="preserve">
<g>
	<rect x="13.2" y="1.2" fill="#F04B36" width="3.5" height="12.5"/>
	<path fill="#06728D" d="M43.1,0.5h-8.8v13.3c0,1.8-1.5,3.2-3.2,3.2H12.7c-1.8,0-3.2-1.5-3.2-3.2V0.5H4.9c-2.4,0-4.4,2-4.4,4.4v38.3
		c0,2.4,2,4.4,4.4,4.4h38.3c2.4,0,4.4-2,4.4-4.4V4.9C47.5,2.5,45.5,0.5,43.1,0.5z M24,40.7c-5.2,0-9.5-4.2-9.5-9.5
		c0-5.2,4.2-9.5,9.5-9.5c5.2,0,9.5,4.2,9.5,9.5C33.5,36.5,29.2,40.7,24,40.7z"/>
	<circle fill="#F7A93B" cx="23.9" cy="31.2" r="7.4"/>
</g>
</svg>
