<?xml version="1.0" encoding="utf-8"?>
<!-- Generator: Adobe Illustrator 18.0.0, SVG Export Plug-In . SVG Version: 6.00 Build 0)  -->
<!DOCTYPE svg PUBLIC "-//W3C//DTD SVG 1.1//EN" "http://www.w3.org/Graphics/SVG/1.1/DTD/svg11.dtd">
<svg version="1.1" id="Layer_1" xmlns="http://www.w3.org/2000/svg" xmlns:xlink="http://www.w3.org/1999/xlink" x="0px" y="0px"
	 viewBox="0 0 48 48" enable-background="new 0 0 48 48" xml:space="preserve">
<g>
	<g>
		<g>
			<path fill="#F04B36" d="M22.7,12.2l-6-11.3c-0.3-0.5-1-0.5-1.3,0l-6,11.3C13.8,13.5,18.4,13.5,22.7,12.2z"/>
		</g>
	</g>
	<g>
		<g>
			<path fill="#06728D" d="M22.9,47.5V13.9c-1.9,0.5-3.8,0.8-5.7,0.9v32.7H22.9z"/>
		</g>
	</g>
	<g>
		<g>
			<path fill="#F7A93B" d="M14.9,47.5V14.8c-1.9-0.1-3.8-0.4-5.7-0.9v33.6H14.9z"/>
		</g>
	</g>
	<g>
		<path fill="#0DB89A" d="M31.5,14.6c-0.3-0.4-0.6-0.8-0.7-1.3c-0.2-0.9-1.1-3.5,0.1-6.5c0.3-0.9,0.8-1.7,1.4-2.4
			c0.8-1,1.6-2,2.6-2.8c1-0.8,2.4-1.2,3.6-1c-0.6,0.7-0.8,1.7-1,2.6c-0.2,0.9-0.3,1.8-0.1,2.7c0.2,0.8,0.6,1.4,0.9,2.1
			c0.9,2.2,0.6,4.9-0.8,6.8c-0.4,0.6-1,1.2-1.7,1.4C34.2,16.8,32.5,15.8,31.5,14.6z"/>
	</g>
	<g>
		<path fill="#E77528" d="M38.8,47.5V24.1c0-0.3-0.3-0.6-0.6-0.6h-7.4c-0.3,0-0.6,0.3-0.6,0.6v23.4H38.8z"/>
	</g>
	<g>
		<path fill="#E77528" d="M31,18.8h7c0.4,0,0.8,0.3,0.8,0.8v0.5c0,0.4-0.3,0.8-0.8,0.8h-7c-0.4,0-0.8-0.3-0.8-0.8v-0.5
			C30.2,19.2,30.5,18.8,31,18.8z"/>
	</g>
</g>
</svg>
