<?xml version="1.0" encoding="utf-8"?>
<!-- Generator: Adobe Illustrator 18.0.0, SVG Export Plug-In . SVG Version: 6.00 Build 0)  -->
<!DOCTYPE svg PUBLIC "-//W3C//DTD SVG 1.1//EN" "http://www.w3.org/Graphics/SVG/1.1/DTD/svg11.dtd">
<svg version="1.1" id="Layer_1" xmlns="http://www.w3.org/2000/svg" xmlns:xlink="http://www.w3.org/1999/xlink" x="0px" y="0px"
	 viewBox="0 0 48 48" enable-background="new 0 0 48 48" xml:space="preserve">
<g>
	<path fill="#06728D" d="M24,26.6L45.4,9.4c-0.4-0.2-0.8-0.2-1.2-0.2H3.8C3.4,9.2,3,9.3,2.6,9.4L24,26.6z"/>
	<g>
		<path fill="#0DB89A" d="M46.7,37.6c0.5-0.6,0.8-1.3,0.8-2.1v-23c0-0.6-0.2-1.2-0.5-1.7L28.8,25.4L46.7,37.6z"/>
	</g>
	<g>
		<path fill="#4DA0D8" d="M27.1,26.8l-2.5,2C24.5,28.9,24.2,29,24,29c-0.2,0-0.5-0.1-0.6-0.2l-2.4-2l-17.7,12c0.2,0,0.4,0.1,0.7,0.1
			h40.4c0.2,0,0.4,0,0.7-0.1L27.1,26.8z"/>
	</g>
	<g>
		<path fill="#0DB89A" d="M19.2,25.4L1,10.7c-0.3,0.5-0.5,1.1-0.5,1.7v23c0,0.8,0.3,1.5,0.8,2.1L19.2,25.4z"/>
	</g>
</g>
</svg>
