<?xml version="1.0" encoding="utf-8"?>
<!-- Generator: Adobe Illustrator 18.0.0, SVG Export Plug-In . SVG Version: 6.00 Build 0)  -->
<!DOCTYPE svg PUBLIC "-//W3C//DTD SVG 1.1//EN" "http://www.w3.org/Graphics/SVG/1.1/DTD/svg11.dtd">
<svg version="1.1" id="Layer_1" xmlns="http://www.w3.org/2000/svg" xmlns:xlink="http://www.w3.org/1999/xlink" x="0px" y="0px"
	 viewBox="0 0 48 48" enable-background="new 0 0 48 48" xml:space="preserve">
<g>
	<g>
		<path fill="#0DB89A" d="M8.8,12.7l-6.2,5c0.4,0.1,0.8,0.2,1.2,0.2h5V12.7z"/>
	</g>
	<g>
		<polygon fill="#0DB89A" points="32.7,7.5 24,0.5 15.3,7.5 		"/>
	</g>
	<g>
		<path fill="#0DB89A" d="M39.2,12.7v5.2h5c0.4,0,0.8-0.1,1.2-0.2L39.2,12.7z"/>
	</g>
	<path fill="#F04B36" d="M9.9,26.6V10.8c0-1.3,1-2.3,2.3-2.3h23.7c1.3,0,2.3,1,2.3,2.3v15.8l2-1.6V10.8c0-2.4-1.9-4.3-4.3-4.3H12.1
		c-2.4,0-4.3,1.9-4.3,4.3V25L9.9,26.6z"/>
	<path fill="#F04B36" d="M13.8,13.4h20.4c0.4,0,0.8-0.3,0.8-0.8c0-0.4-0.3-0.8-0.8-0.8H13.8c-0.4,0-0.8,0.3-0.8,0.8
		C13,13,13.4,13.4,13.8,13.4z"/>
	<path fill="#F04B36" d="M13.8,19.8h20.4c0.4,0,0.8-0.3,0.8-0.8s-0.3-0.8-0.8-0.8H13.8c-0.4,0-0.8,0.3-0.8,0.8S13.4,19.8,13.8,19.8z
		"/>
	<path fill="#F04B36" d="M13.8,32.6h20.4c0.4,0,0.8-0.3,0.8-0.8c0-0.4-0.3-0.8-0.8-0.8H13.8c-0.4,0-0.8,0.3-0.8,0.8
		C13,32.3,13.4,32.6,13.8,32.6z"/>
	<path fill="#F04B36" d="M13.8,26.2h20.4c0.4,0,0.8-0.3,0.8-0.8c0-0.4-0.3-0.8-0.8-0.8H13.8c-0.4,0-0.8,0.3-0.8,0.8
		C13,25.9,13.4,26.2,13.8,26.2z"/>
	<g>
		<path fill="#4DA0D8" d="M46.7,46.3c0.5-0.6,0.8-1.3,0.8-2.1V21.2c0-0.6-0.2-1.2-0.5-1.7L28.8,34.2L46.7,46.3z"/>
	</g>
	<g>
		<path fill="#06728D" d="M27.1,35.5l-2.4,2c-0.2,0.2-0.4,0.2-0.6,0.2s-0.5-0.1-0.6-0.2l-2.4-2L3.2,47.4c0.2,0,0.4,0.1,0.7,0.1h40.4
			c0.2,0,0.4,0,0.7-0.1L27.1,35.5z"/>
	</g>
	<g>
		<path fill="#4DA0D8" d="M19.2,34.2L1,19.5c-0.3,0.5-0.5,1.1-0.5,1.7v22.9c0,0.8,0.3,1.5,0.8,2.1L19.2,34.2z"/>
	</g>
</g>
</svg>
