<?xml version="1.0" encoding="utf-8"?>
<!-- Generator: Adobe Illustrator 18.0.0, SVG Export Plug-In . SVG Version: 6.00 Build 0)  -->
<!DOCTYPE svg PUBLIC "-//W3C//DTD SVG 1.1//EN" "http://www.w3.org/Graphics/SVG/1.1/DTD/svg11.dtd">
<svg version="1.1" id="Layer_1" xmlns="http://www.w3.org/2000/svg" xmlns:xlink="http://www.w3.org/1999/xlink" x="0px" y="0px"
	 viewBox="0 0 48 48" enable-background="new 0 0 48 48" xml:space="preserve">
<g>
	<path fill="#F04B36" d="M41.8,35.8c1.2-1.7,1.6-3.9,0.9-6.1c-1.1-3.8-5-5.9-8.7-4.8c-3.7,1.1-5.8,5.1-4.7,8.9
		c0.6,2.1,2.2,3.8,4.1,4.5L32,46.6l2.6-1.1l2,2l1.5-8.6l5.9,6.3l0.6-2.8l2.8-0.5L41.8,35.8z"/>
	<path fill="#FFD69A" d="M43.7,0.5H4.3c-2.1,0-3.8,1.7-3.8,3.8V34c0,2.1,1.7,3.8,3.8,3.8h25c-0.8-1-1.4-2.1-1.8-3.3
		c-0.7-2.4-0.4-4.8,0.7-7c1.1-2.2,3-3.7,5.3-4.5c0.8-0.3,1.7-0.4,2.6-0.4c3.9,0,7.5,2.7,8.6,6.6c0.6,2.1,0.5,4.4-0.4,6.3l1.5,1.6
		c1-0.7,1.6-1.8,1.6-3.2V4.3C47.5,2.2,45.8,0.5,43.7,0.5z M22.2,33.8H6.9c-0.6,0-1-0.5-1-1c0-0.6,0.5-1,1-1h15.2c0.6,0,1,0.5,1,1
		C23.2,33.3,22.7,33.8,22.2,33.8z M22.2,27.2H6.9c-0.6,0-1-0.5-1-1s0.5-1,1-1h15.2c0.6,0,1,0.5,1,1S22.7,27.2,22.2,27.2z M24,18.7
		c-2.2,0-4-1.8-4-4.1c0-2.3,1.8-4.1,4-4.1s4,1.8,4,4.1C28,16.8,26.2,18.7,24,18.7z M42.5,11.7c-0.3,0.5-0.9,0.6-1.4,0.3
		C30.7,4.8,17.3,4.8,7,12c-0.2,0.1-0.4,0.2-0.6,0.2c-0.3,0-0.6-0.2-0.8-0.5c-0.3-0.5-0.2-1.1,0.3-1.4c11.1-7.7,25.3-7.7,36.4,0
		C42.7,10.6,42.8,11.3,42.5,11.7z"/>
</g>
</svg>
