<?xml version="1.0" encoding="utf-8"?>
<!-- Generator: Adobe Illustrator 18.0.0, SVG Export Plug-In . SVG Version: 6.00 Build 0)  -->
<!DOCTYPE svg PUBLIC "-//W3C//DTD SVG 1.1//EN" "http://www.w3.org/Graphics/SVG/1.1/DTD/svg11.dtd">
<svg version="1.1" id="Layer_1" xmlns="http://www.w3.org/2000/svg" xmlns:xlink="http://www.w3.org/1999/xlink" x="0px" y="0px"
	 viewBox="0 0 48 48" enable-background="new 0 0 48 48" xml:space="preserve">
<g>
	<rect x="8.8" y="2.1" fill="#F04B36" width="30.3" height="7.6"/>
	<rect x="26.4" y="9" fill="#F7A93B" width="10.8" height="19.1"/>
	<path fill="#06728D" d="M40.9,9c0-0.1-0.1-0.2-0.2-0.3c-2.7-3.6-0.5-6.4-0.4-6.6c0.3-0.4,0.3-1.1-0.1-1.4c-0.2-0.1-0.3-0.2-0.5-0.2
		v0h0c-0.1,0-0.2,0-0.2,0H12.1c-2.7,0-4.8,2.1-5.1,4.8h0v36.6c0,3.1,2.4,5.6,5.4,5.6H41V12.4L40.9,9L40.9,9L40.9,9z M36.3,9L36.3,9
		L36,9v17.2l-4.3-3.8l-4.3,3.8V9H12.3C10.8,9,9.4,8,9.1,6.4c-0.4-2.1,1.1-3.9,3.1-3.9h25.7c-0.6,1.6-0.7,4,0.7,6.5H36.3z"/>
</g>
</svg>
