<?xml version="1.0" encoding="utf-8"?>
<!-- Generator: Adobe Illustrator 18.0.0, SVG Export Plug-In . SVG Version: 6.00 Build 0)  -->
<!DOCTYPE svg PUBLIC "-//W3C//DTD SVG 1.1//EN" "http://www.w3.org/Graphics/SVG/1.1/DTD/svg11.dtd">
<svg version="1.1" id="Layer_1" xmlns="http://www.w3.org/2000/svg" xmlns:xlink="http://www.w3.org/1999/xlink" x="0px" y="0px"
	 viewBox="0 0 48 48" enable-background="new 0 0 48 48" xml:space="preserve">
<g>
	<path fill="#F04B36" d="M24.6,31c-0.5,0-0.9-0.2-1.2-0.5l-0.5-0.4c-0.3-0.3-0.5-0.7-0.6-1.2c0-0.5,0.2-0.9,0.5-1.2
		c0.3-0.3,0.8-0.5,1.3-0.5c0.1,0,0.2,0,0.3,0l0.8,0.1l0.3-0.7c0.7-1.9,1.5-5,0.7-8.9c0.6-0.3,5.4-3.1,8.2-4.6l0.9-0.5l-0.5-0.9
		l5.7-5.9l7.1,6.4l-5.8,5.9l-0.9-0.6l-0.5,1c-1.4,2.7-3.8,7.3-4.3,8.2c-0.8-0.1-1.6-0.1-2.3-0.1c-3,0-5.4,0.7-6.8,1.4l-0.7,0.3
		l0.2,0.8c0.1,0.5-0.1,1.1-0.4,1.5C25.5,30.8,25,31,24.6,31z M32.2,16.7c-2.3,0-4.1,1.8-4.1,4s1.8,4,4.1,4s4.1-1.8,4.1-4
		S34.5,16.7,32.2,16.7z"/>
	<path fill="#4DA0D8" d="M42.5,18.8c-0.2,0.2-0.5,0.3-0.7,0.3c-0.2,0-0.4-0.1-0.6-0.2c-1.5,2.9-4.2,8-4.3,8.2
		c-0.2,0.4-0.6,0.6-1,0.5c-0.7-0.1-1.5-0.1-2.2-0.1c-2.8,0-5,0.7-6.4,1.3c0.2,0.8-0.1,1.7-0.7,2.4c-0.5,0.5-1.3,0.8-2,0.8
		c-0.7,0-1.4-0.3-1.9-0.7l-0.5-0.4c-0.5-0.5-0.9-1.2-0.9-1.9c0-0.7,0.2-1.4,0.8-1.9c0.6-0.6,1.5-0.9,2.4-0.8
		c0.7-1.7,1.4-4.7,0.6-8.3c-0.1-0.4,0.1-0.8,0.5-1.1c0.2-0.1,5.3-3.1,8.2-4.6c-0.1-0.1-0.2-0.3-0.2-0.5c0-0.3,0.1-0.5,0.3-0.7
		l4.2-4.3H5.3c-2.6,0-4.8,2.1-4.8,4.8v25.9c0,2.6,2.1,4.8,4.8,4.8h33c2.6,0,4.8-2.1,4.8-4.8V18.2L42.5,18.8z M7.5,12.7h18.2
		c0.5,0,1,0.4,1,1c0,0.5-0.4,1-1,1H7.5c-0.5,0-1-0.4-1-1C6.5,13.1,7,12.7,7.5,12.7z M7.5,18.3h15.1c0.5,0,1,0.4,1,1s-0.4,1-1,1H7.5
		c-0.5,0-1-0.4-1-1S7,18.3,7.5,18.3z M7.5,23.9h15.1c0.5,0,1,0.4,1,1c0,0.5-0.4,1-1,1H7.5c-0.5,0-1-0.4-1-1
		C6.5,24.3,7,23.9,7.5,23.9z M7.5,29.5h11.7c0.5,0,1,0.4,1,1c0,0.5-0.4,1-1,1H7.5c-0.5,0-1-0.4-1-1C6.5,29.9,7,29.5,7.5,29.5z
		 M35.8,37H7.5c-0.5,0-1-0.4-1-1c0-0.5,0.4-1,1-1h28.3c0.5,0,1,0.4,1,1C36.8,36.6,36.3,37,35.8,37z"/>
</g>
</svg>
