<?xml version="1.0" encoding="utf-8"?>
<!-- Generator: Adobe Illustrator 18.0.0, SVG Export Plug-In . SVG Version: 6.00 Build 0)  -->
<!DOCTYPE svg PUBLIC "-//W3C//DTD SVG 1.1//EN" "http://www.w3.org/Graphics/SVG/1.1/DTD/svg11.dtd">
<svg version="1.1" id="Layer_1" xmlns="http://www.w3.org/2000/svg" xmlns:xlink="http://www.w3.org/1999/xlink" x="0px" y="0px"
	 viewBox="0 0 48 48" enable-background="new 0 0 48 48" xml:space="preserve">
<g>
	<path fill="#0DB89A" d="M33.4,27.2c3.4-2.7,5.6-7,5.6-11.7c0-8.3-6.7-15-15-15c-8.3,0-15,6.7-15,15c0,4.7,2.2,8.9,5.6,11.7l-8,15.7
		l6-0.7l3,5.3L24,31.1l8.3,16.4l3-5.3l6,0.7L33.4,27.2z M24,27.6c-6.7,0-12.1-5.4-12.1-12.1c0-6.7,5.4-12.1,12.1-12.1
		c6.7,0,12.1,5.4,12.1,12.1C36.1,22.2,30.7,27.6,24,27.6z"/>
	<path fill="#F04B36" d="M24,6.3c-5.1,0-9.2,4.1-9.2,9.2c0,5.1,4.1,9.2,9.2,9.2c5.1,0,9.2-4.1,9.2-9.2C33.2,10.4,29.1,6.3,24,6.3z"
		/>
</g>
</svg>
