<?xml version="1.0" encoding="utf-8"?>
<!-- Generator: Adobe Illustrator 18.0.0, SVG Export Plug-In . SVG Version: 6.00 Build 0)  -->
<!DOCTYPE svg PUBLIC "-//W3C//DTD SVG 1.1//EN" "http://www.w3.org/Graphics/SVG/1.1/DTD/svg11.dtd">
<svg version="1.1" id="Layer_1" xmlns="http://www.w3.org/2000/svg" xmlns:xlink="http://www.w3.org/1999/xlink" x="0px" y="0px"
	 viewBox="0 0 48 48" enable-background="new 0 0 48 48" xml:space="preserve">
<g>
	<path fill="#E77528" d="M39.1,45.4c-0.3,0-0.5-0.1-0.7-0.3L24,30.7L9.6,45.1c-0.4,0.4-1,0.4-1.4,0c-0.4-0.4-0.4-1,0-1.4l15.1-15.1
		c0.4-0.4,1-0.4,1.4,0l15.1,15.1c0.4,0.4,0.4,1,0,1.4C39.6,45.3,39.4,45.4,39.1,45.4z"/>
	<path fill="#F04B36" d="M24,47.5c-0.5,0-1-0.4-1-1V29.3c0-0.5,0.4-1,1-1c0.5,0,1,0.4,1,1v17.3C25,47.1,24.5,47.5,24,47.5z"/>
	<g>
		<path fill="#4DA0D8" d="M24.4,14.4c-0.8,0-1.5,0.5-1.8,1.4c0,0.1-0.1,0.3-0.1,0.5v1.2c0,0.1,0,0.3,0.1,0.4
			c0.2,0.8,0.9,1.4,1.8,1.4c1.2,0,2-1,2-2.5C26.3,15.5,25.6,14.4,24.4,14.4z"/>
	</g>
	<g>
		<path fill="#4DA0D8" d="M15.6,18.2c0,0.8,0.5,1.1,1.1,1.1c0.8,0,1.4-0.5,1.6-1.1c0-0.1,0.1-0.3,0.1-0.4v-1.1
			C17.1,16.7,15.6,16.9,15.6,18.2z"/>
	</g>
	<g>
		<path fill="#4DA0D8" d="M46.5,28.3H45V2.5h1.5c0.5,0,1-0.4,1-1s-0.4-1-1-1h-45c-0.5,0-1,0.4-1,1s0.4,1,1,1h0.2v25.8H1.5
			c-0.5,0-1,0.4-1,1c0,0.5,0.4,1,1,1h45c0.5,0,1-0.4,1-1C47.5,28.7,47.1,28.3,46.5,28.3z M18.5,20l-0.1-0.8h0c-0.4,0.5-1,1-2,1
			c-1.3,0-2-0.9-2-1.8c0-1.6,1.4-2.4,3.9-2.4v-0.1c0-0.5-0.1-1.5-1.5-1.5c-0.6,0-1.2,0.2-1.7,0.5L14.9,14c0.5-0.3,1.3-0.6,2.1-0.6
			c2,0,2.4,1.3,2.4,2.6v2.4c0,0.6,0,1.1,0.1,1.5H18.5z M24.6,20.2c-0.9,0-1.7-0.4-2.1-1.2h0L22.3,20h-1c0-0.4,0.1-1.1,0.1-1.7v-7.8
			h1.2v4h0c0.4-0.7,1.2-1.2,2.2-1.2c1.6,0,2.7,1.3,2.7,3.3C27.5,19,26,20.2,24.6,20.2z M31.9,19.2c0.7,0,1.1-0.2,1.4-0.3l0.2,0.9
			c-0.3,0.2-1,0.4-1.8,0.4c-1.9,0-3.2-1.3-3.2-3.3c0-2,1.4-3.4,3.5-3.4c0.7,0,1.3,0.2,1.6,0.3l-0.3,0.9c-0.3-0.2-0.7-0.3-1.4-0.3
			c-1.5,0-2.3,1.1-2.3,2.4C29.6,18.3,30.6,19.2,31.9,19.2z"/>
	</g>
</g>
</svg>
