<?xml version="1.0" encoding="utf-8"?>
<!-- Generator: Adobe Illustrator 18.0.0, SVG Export Plug-In . SVG Version: 6.00 Build 0)  -->
<!DOCTYPE svg PUBLIC "-//W3C//DTD SVG 1.1//EN" "http://www.w3.org/Graphics/SVG/1.1/DTD/svg11.dtd">
<svg version="1.1" id="Layer_1" xmlns="http://www.w3.org/2000/svg" xmlns:xlink="http://www.w3.org/1999/xlink" x="0px" y="0px"
	 viewBox="0 0 48 48" enable-background="new 0 0 48 48" xml:space="preserve">
<g>
	<path fill="#0DB89A" d="M13,47.5c-6.9,0-12.5-5.7-12.5-12.7C0.5,27.7,6.1,22,13,22c6.9,0,12.5,5.7,12.5,12.7
		C25.6,41.8,20,47.5,13,47.5z M13,24C7.2,24,2.5,28.8,2.5,34.8c0,5.9,4.7,10.7,10.5,10.7c5.8,0,10.5-4.8,10.5-10.7
		C23.6,28.8,18.9,24,13,24z"/>
	<g>
		<path fill="#F7A93B" d="M36.5,22l11-14.5L44.1,4l-3.4-3.5L26.4,11.7c0,0,3.4,3.6-1,10.6c-0.8-0.5-1.8-0.4-2.4,0.3
			c-0.8,0.8-0.8,2.1,0,2.8s2,0.8,2.8,0c0.7-0.7,0.7-1.7,0.3-2.5C33,18.5,36.5,22,36.5,22z M32.2,16c-0.8-0.8-0.8-2,0-2.8
			c0.6-0.6,1.5-0.7,2.2-0.4c0,0,0-0.1,0.1-0.1l3.8-3.9c0.2-0.3,0.6-0.3,0.9,0c0.2,0.3,0.2,0.7,0,0.9l-3.8,3.9c0,0-0.1,0-0.1,0.1
			c0.4,0.7,0.2,1.7-0.4,2.3C34.2,16.8,33,16.8,32.2,16z"/>
	</g>
	<line fill="#010101" x1="6.6" y1="9.9" x2="38.2" y2="42.1"/>
	<path fill="#F04B36" d="M38.2,43.1c-0.3,0-0.5-0.1-0.7-0.3L5.9,10.6c-0.4-0.4-0.4-1,0-1.4c0.4-0.4,1-0.4,1.4,0l31.7,32.2
		c0.4,0.4,0.4,1,0,1.4C38.8,43,38.5,43.1,38.2,43.1z"/>
</g>
</svg>
