<?xml version="1.0" encoding="utf-8"?>
<!-- Generator: Adobe Illustrator 18.0.0, SVG Export Plug-In . SVG Version: 6.00 Build 0)  -->
<!DOCTYPE svg PUBLIC "-//W3C//DTD SVG 1.1//EN" "http://www.w3.org/Graphics/SVG/1.1/DTD/svg11.dtd">
<svg version="1.1" id="Layer_1" xmlns="http://www.w3.org/2000/svg" xmlns:xlink="http://www.w3.org/1999/xlink" x="0px" y="0px"
	 viewBox="0 0 48 48" enable-background="new 0 0 48 48" xml:space="preserve">
<g>
	<path fill="#CFD0D1" d="M43.9,8.8c0,0-3.8,2.4-10.4,0c-6.6-2.4-8.4,0.5-8.4,0.5v27.7c0,0,3.3-2.1,9.4-0.7c0,0,7.8,0.6,9.4-1.2V8.8z
		"/>
	<path fill="#9A9FA4" d="M4,8.8c0,0,3.8,2.4,10.4,0c6.6-2.4,8.4,0.5,8.4,0.5v27.7c0,0-3.3-2.1-9.4-0.7c0,0-7.8,0.6-9.4-1.2V8.8z"/>
	<path fill="#F04B36" d="M45.6,13.1v22.6l-0.4,0.5c-0.7,0.8-2.3,1.9-7.8,1.9c0,0,0,0,0,0c-1.6,0-2.9-0.1-3-0.1l-0.1,0l-0.1,0
		c-1.3-0.3-2.5-0.4-3.7-0.4c-2.9,0-4.5,0.9-4.5,0.9l-1.5,0.9v0.7l-0.6-0.4L23.4,40l0-0.6l-1.5-1c-0.1-0.1-1.7-0.9-4.5-0.9
		c-1.2,0-2.4,0.1-3.7,0.4l-0.1,0l-0.1,0c-0.1,0-1.3,0.1-3,0.1c-5.5,0-7.1-1.1-7.8-1.9l-0.4-0.5V13.1H0.5v27h47v-27H45.6z"/>
</g>
</svg>
