<?xml version="1.0" encoding="utf-8"?>
<!-- Generator: Adobe Illustrator 18.0.0, SVG Export Plug-In . SVG Version: 6.00 Build 0)  -->
<!DOCTYPE svg PUBLIC "-//W3C//DTD SVG 1.1//EN" "http://www.w3.org/Graphics/SVG/1.1/DTD/svg11.dtd">
<svg version="1.1" id="Layer_1" xmlns="http://www.w3.org/2000/svg" xmlns:xlink="http://www.w3.org/1999/xlink" x="0px" y="0px"
	 viewBox="0 0 48 48" enable-background="new 0 0 48 48" xml:space="preserve">
<g>
	<rect x="23.4" y="3.5" transform="matrix(0.8921 -0.4518 0.4518 0.8921 -0.7229 12.3075)" fill="#4DA0D8" width="4" height="8.3"/>
	<rect x="20.5" y="1.5" transform="matrix(0.8921 -0.4518 0.4518 0.8921 0.93 10.9057)" fill="#F04B36" width="5.5" height="3.9"/>
	<path fill="#4DA0D8" d="M22.2,13.7l3.4,7.3l-7.8,0.2c0,0-10.6,13.2,4.4,23.2h19v3.1H13.1c0,0-15.9-19.8,3.1-33.8H22.2z"/>
	<polygon fill="#06728D" points="37.7,23.9 29.5,23.6 23.2,11.2 29.5,7.9 	"/>
	<rect x="19.2" y="36" fill="#06728D" width="20.9" height="1.6"/>
	<rect x="24" y="36.8" fill="#06728D" width="11.4" height="2.4"/>
	<g>
		<rect x="26.4" y="23.6" fill="#F04B36" width="13.2" height="1.3"/>
	</g>
	<g>
		<g>
			<rect x="36.2" y="26.2" fill="#F04B36" width="2.6" height="2.5"/>
		</g>
		<g>
			<rect x="31.7" y="26.2" fill="#F04B36" width="2.6" height="2.5"/>
		</g>
		<g>
			<rect x="27.1" y="26.2" fill="#F04B36" width="2.6" height="2.5"/>
		</g>
	</g>
</g>
</svg>
