<?xml version="1.0" encoding="utf-8"?>
<!-- Generator: Adobe Illustrator 18.0.0, SVG Export Plug-In . SVG Version: 6.00 Build 0)  -->
<!DOCTYPE svg PUBLIC "-//W3C//DTD SVG 1.1//EN" "http://www.w3.org/Graphics/SVG/1.1/DTD/svg11.dtd">
<svg version="1.1" id="Layer_1" xmlns="http://www.w3.org/2000/svg" xmlns:xlink="http://www.w3.org/1999/xlink" x="0px" y="0px"
	 viewBox="0 0 48 48" enable-background="new 0 0 48 48" xml:space="preserve">
<g>
	<path fill="#F7A93B" d="M24,29.9c-10.7,0-19.6-3.6-23.5-8.8v13.2c0,6,10.5,10.9,23.5,10.9c13,0,23.5-4.9,23.5-10.9V21.1
		C43.6,26.3,34.7,29.9,24,29.9z M24,43.7c-3.3,0-6-2.7-6-6s2.7-6,6-6c3.3,0,6,2.7,6,6S27.3,43.7,24,43.7z"/>
	<path fill="#F04B36" d="M24,2.7C11,2.7,0.5,8.3,0.5,15.3S11,27.9,24,27.9c13,0,23.5-5.6,23.5-12.6S37,2.7,24,2.7z M24.6,25.8
		c-0.7,0.1-1.3,0.1-2,0.1c-1.2,0-2.4-0.1-3.6-0.4V5c1.1-0.2,2.3-0.4,3.6-0.4c0.7,0,1.4,0,2,0.1V25.8z"/>
</g>
</svg>
