<?xml version="1.0" encoding="utf-8"?>
<!-- Generator: Adobe Illustrator 18.0.0, SVG Export Plug-In . SVG Version: 6.00 Build 0)  -->
<!DOCTYPE svg PUBLIC "-//W3C//DTD SVG 1.1//EN" "http://www.w3.org/Graphics/SVG/1.1/DTD/svg11.dtd">
<svg version="1.1" id="Layer_1" xmlns="http://www.w3.org/2000/svg" xmlns:xlink="http://www.w3.org/1999/xlink" x="0px" y="0px"
	 viewBox="0 0 48 48" enable-background="new 0 0 48 48" xml:space="preserve">
<g>
	<ellipse fill="#F04B36" cx="24" cy="4.3" rx="4.2" ry="3.8"/>
	<path fill="#06728D" d="M23.6,29.8c1.7,0,12.1,0.1,19.1,1.9c-1.6-2-2.6-4.5-2.6-7.1v-9.8C40.1,6.6,32.9,5,24,5v0c0,0,0,0-0.1,0
		c0,0,0,0-0.1,0v0C15,5,7.8,6.6,7.8,14.7v9.8c0,2.5-0.9,4.9-2.4,6.9C12.3,29.8,22,29.8,23.6,29.8z"/>
	<ellipse fill="#CFD0D1" cx="24" cy="37.3" rx="23.5" ry="4.8"/>
	<ellipse fill="#394751" cx="24" cy="43.4" rx="4.8" ry="4.1"/>
</g>
</svg>
