<?xml version="1.0" encoding="utf-8"?>
<!-- Generator: Adobe Illustrator 18.0.0, SVG Export Plug-In . SVG Version: 6.00 Build 0)  -->
<!DOCTYPE svg PUBLIC "-//W3C//DTD SVG 1.1//EN" "http://www.w3.org/Graphics/SVG/1.1/DTD/svg11.dtd">
<svg version="1.1" id="Layer_1" xmlns="http://www.w3.org/2000/svg" xmlns:xlink="http://www.w3.org/1999/xlink" x="0px" y="0px"
	 viewBox="0 0 48 48" enable-background="new 0 0 48 48" xml:space="preserve">
<g>
	<path fill="#566C7A" d="M10.7,46c-0.2,0-0.4-0.1-0.6-0.2c-0.5-0.4-0.6-1.1-0.3-1.6l11.9-19.1c0.3-0.5,1-0.6,1.4-0.3
		c0.5,0.4,0.6,1.1,0.3,1.6L11.5,45.5C11.3,45.8,11,46,10.7,46z"/>
	<path fill="#CFD0D1" d="M30.2,47.5c-0.4,0-0.8-0.3-1-0.8l-6-20.6c-0.2-0.6,0.1-1.2,0.7-1.4c0.5-0.2,1.1,0.1,1.3,0.7l6,20.6
		c0.2,0.6-0.1,1.2-0.7,1.4C30.4,47.5,30.3,47.5,30.2,47.5z"/>
	<path fill="#F04B36" d="M37.3,46c-0.3,0-0.6-0.2-0.8-0.5L24.4,26.4c-0.3-0.5-0.2-1.2,0.2-1.6c0.5-0.4,1.1-0.2,1.4,0.3l12.1,19.1
		c0.3,0.5,0.2,1.2-0.2,1.6C37.7,45.9,37.5,46,37.3,46z"/>
	<polygon fill="#4DA0D8" points="46.2,25.5 38.3,22.6 39.7,18.1 47.5,21 	"/>
	<path fill="#F7A93B" d="M8.9,1.8c0.5,1.9,0.5,4.5-0.4,7.3c-0.8,2.8-2.2,5-3.6,6.1l37.3,10.6l2.3-7.7L8.9,1.8z"/>
	<path fill="#0DB89A" d="M7.1,8.6c-1.1,3.8-3.4,6.4-5,5.8c-1.6-0.6-2.1-4.2-0.9-8c1.1-3.8,3.4-6.4,5-5.8C7.8,1.2,8.3,4.8,7.1,8.6z"
		/>
	<polygon fill="#4DA0D8" points="27.5,26.9 23.1,26.9 20.5,26.9 20.5,23.6 27.5,23.6 	"/>
</g>
</svg>
