<?xml version="1.0" encoding="utf-8"?>
<!-- Generator: Adobe Illustrator 18.0.0, SVG Export Plug-In . SVG Version: 6.00 Build 0)  -->
<!DOCTYPE svg PUBLIC "-//W3C//DTD SVG 1.1//EN" "http://www.w3.org/Graphics/SVG/1.1/DTD/svg11.dtd">
<svg version="1.1" id="Layer_1" xmlns="http://www.w3.org/2000/svg" xmlns:xlink="http://www.w3.org/1999/xlink" x="0px" y="0px"
	 viewBox="0 0 48 48" enable-background="new 0 0 48 48" xml:space="preserve">
<g>
	<path fill="#CFD0D1" d="M46.5,47.5h-45c-0.5,0-1-0.4-1-1c0-0.6,0.4-1,1-1h45c0.5,0,1,0.4,1,1C47.5,47.1,47.1,47.5,46.5,47.5z"/>
	<g>
		<path fill="#F04B36" d="M16.8,42L2.6,46.5c-0.6,0.2-1.2-0.4-1-1.1l4.4-14.5C10.5,33.4,14.3,37.3,16.8,42z"/>
	</g>
	<g>
		<path fill="#F7A93B" d="M7.1,29.2c2,1.1,3.8,2.5,5.4,4l18.6-19c-1.6-1.6-3.3-3-5.1-4.4L7.1,29.2z"/>
	</g>
	<g>
		<path fill="#0DB89A" d="M14.5,35.2c1.5,1.7,2.8,3.6,3.9,5.6l19-19.4c-1.3-1.8-2.8-3.5-4.3-5.2L14.5,35.2z"/>
	</g>
	<g>
		<path fill="#06728D" d="M35.2,0.5l-7.8,7.9c3.2,1.8,9,7.4,11.3,11.5l7.8-7.9C45.5,9.1,39.3,2.4,35.2,0.5z"/>
	</g>
</g>
</svg>
