<?xml version="1.0" encoding="utf-8"?>
<!-- Generator: Adobe Illustrator 18.0.0, SVG Export Plug-In . SVG Version: 6.00 Build 0)  -->
<!DOCTYPE svg PUBLIC "-//W3C//DTD SVG 1.1//EN" "http://www.w3.org/Graphics/SVG/1.1/DTD/svg11.dtd">
<svg version="1.1" id="Layer_1" xmlns="http://www.w3.org/2000/svg" xmlns:xlink="http://www.w3.org/1999/xlink" x="0px" y="0px"
	 viewBox="0 0 48 48" enable-background="new 0 0 48 48" xml:space="preserve">
<g>
	<path fill="#4DA0D8" d="M28.2,32.5c-2.7,1.6-5.8,1.6-8.5,0c0.1-0.4,0.2-0.8,0.3-1.2c2.5,1.5,5.3,1.5,7.8,0
		C28,31.7,28.1,32.1,28.2,32.5z"/>
	<path fill="#4DA0D8" d="M28.2,26.6c-2.7-1.6-5.8-1.6-8.5,0c0.1,0.4,0.2,0.8,0.3,1.2c2.5-1.5,5.3-1.5,7.8,0
		C28,27.3,28.1,26.9,28.2,26.6z"/>
	<path fill="#F04B36" d="M2.8,27.9c-0.2,0-0.4,0-0.5-0.1c-0.5-0.3-0.6-0.9-0.4-1.4l8.3-14.1c0.9-1.5,2.3-2.6,4-3
		c1.7-0.4,3.5-0.2,5,0.7c0.5,0.3,0.6,0.9,0.4,1.4c-0.3,0.5-0.9,0.6-1.4,0.4c-1-0.6-2.3-0.8-3.4-0.5c-1.2,0.3-2.2,1-2.8,2.1L3.6,27.4
		C3.4,27.8,3.1,27.9,2.8,27.9z"/>
	<path fill="#F04B36" d="M45.2,27.9c-0.3,0-0.7-0.2-0.9-0.5l-8.3-14.1c-0.6-1-1.6-1.8-2.8-2.1c-1.2-0.3-2.4-0.1-3.4,0.5
		c-0.5,0.3-1.1,0.1-1.4-0.4c-0.3-0.5-0.1-1.1,0.4-1.4c1.5-0.9,3.3-1.1,5-0.7c1.7,0.4,3.1,1.5,4,3l8.3,14.1c0.3,0.5,0.1,1.1-0.4,1.4
		C45.6,27.9,45.4,27.9,45.2,27.9z"/>
	<g>
		<path fill="#F7A93B" d="M8.6,22.7c-4.5,0-8.1,3.6-8.1,8.1s3.6,8.1,8.1,8.1c4.5,0,14.3-5.2,14.3-9.7S13.1,22.7,8.6,22.7z M8.6,36.7
			c-3.2,0-5.9-2.6-5.9-5.9s2.6-5.9,5.9-5.9c5.3,0,12.1,2.4,12.1,4.3C20.7,31.7,12.7,36.7,8.6,36.7z"/>
	</g>
	<g>
		<path fill="#F7A93B" d="M39.4,22.7c-4.5,0-14.3,2.1-14.3,6.6s9.9,9.7,14.3,9.7c4.5,0,8.1-3.6,8.1-8.1S43.9,22.7,39.4,22.7z
			 M39.4,36.7c-4.1,0-12.1-4.9-12.1-7.4c0-1.9,6.8-4.3,12.1-4.3c3.2,0,5.9,2.6,5.9,5.9S42.6,36.7,39.4,36.7z"/>
	</g>
</g>
</svg>
