<?xml version="1.0" encoding="utf-8"?>
<!-- Generator: Adobe Illustrator 18.0.0, SVG Export Plug-In . SVG Version: 6.00 Build 0)  -->
<!DOCTYPE svg PUBLIC "-//W3C//DTD SVG 1.1//EN" "http://www.w3.org/Graphics/SVG/1.1/DTD/svg11.dtd">
<svg version="1.1" id="Layer_1" xmlns="http://www.w3.org/2000/svg" xmlns:xlink="http://www.w3.org/1999/xlink" x="0px" y="0px"
	 viewBox="0 0 48 48" enable-background="new 0 0 48 48" xml:space="preserve">
<g>
	<path fill="#294E58" d="M17.5,21.4c-0.5,0-1-0.3-1.3-0.8c-0.6-1.2-1-2.6-1-4c0-4.8,3.9-8.8,8.8-8.8c4.8,0,8.8,3.9,8.8,8.8
		c0,1.4-0.3,2.7-0.9,3.9c-0.4,0.7-1.2,1-1.9,0.6c-0.7-0.4-1-1.2-0.6-1.9c0.4-0.8,0.6-1.7,0.6-2.6c0-3.3-2.6-5.9-5.9-5.9
		c-3.3,0-5.9,2.6-5.9,5.9c0,0.9,0.2,1.9,0.6,2.7c0.4,0.7,0.1,1.6-0.6,1.9C17.9,21.4,17.7,21.4,17.5,21.4z"/>
	<path fill="#06728D" d="M6.4,47.5c-0.2,0-0.4,0-0.6-0.1c-0.7-0.3-1-1.2-0.7-1.9l13.5-28.6c0.3-0.7,1.2-1,1.9-0.7
		c0.7,0.3,1,1.2,0.7,1.9L7.7,46.7C7.4,47.2,6.9,47.5,6.4,47.5z"/>
	<path fill="#06728D" d="M41.6,47.5c-0.5,0-1-0.3-1.3-0.8L26.8,18.1c-0.3-0.7,0-1.6,0.7-1.9c0.7-0.3,1.6,0,1.9,0.7l13.5,28.6
		c0.3,0.7,0,1.6-0.7,1.9C42,47.5,41.8,47.5,41.6,47.5z"/>
	<path fill="#F04B36" d="M24,10.8c-0.8,0-1.4-0.6-1.4-1.4V1.9c0-0.8,0.6-1.4,1.4-1.4s1.4,0.6,1.4,1.4v7.4
		C25.4,10.1,24.8,10.8,24,10.8z"/>
	<path fill="#0DB89A" d="M39.3,35.6H8.7c-0.8,0-1.4-0.6-1.4-1.4s0.6-1.4,1.4-1.4h30.6c0.8,0,1.4,0.6,1.4,1.4S40.1,35.6,39.3,35.6z"
		/>
</g>
</svg>
