<?xml version="1.0" encoding="utf-8"?>
<!-- Generator: Adobe Illustrator 18.0.0, SVG Export Plug-In . SVG Version: 6.00 Build 0)  -->
<!DOCTYPE svg PUBLIC "-//W3C//DTD SVG 1.1//EN" "http://www.w3.org/Graphics/SVG/1.1/DTD/svg11.dtd">
<svg version="1.1" id="Layer_1" xmlns="http://www.w3.org/2000/svg" xmlns:xlink="http://www.w3.org/1999/xlink" x="0px" y="0px"
	 viewBox="0 0 48 48" enable-background="new 0 0 48 48" xml:space="preserve">
<g>
	<path fill="#F04B36" d="M29.2,41.1l-8.7,2.8c-0.4,0.1-0.8-0.3-0.6-0.7l2.7-9.1C25.3,35.7,27.7,38.2,29.2,41.1z"/>
	<path fill="#0DB89A" d="M23.3,33.1c1.2,0.7,2.3,1.5,3.4,2.5L38,23.8c-1-1-2-1.9-3.1-2.7L23.3,33.1z"/>
	<path fill="#0DB89A" d="M27.8,36.8c0.9,1.1,1.7,2.2,2.4,3.5l11.7-12.1C41,27.1,40.2,26,39.2,25L27.8,36.8z"/>
	<path fill="#F04B36" d="M40.6,15.2l-4.8,4.9c2,1.1,5.5,4.6,6.9,7.2l4.8-4.9C46.8,20.5,43.1,16.4,40.6,15.2z"/>
	<g>
		<g>
			<path fill="#06728D" d="M5.4,2.8c-1.5,0-3,0.4-4.4,1.2C0.5,4.4,0.4,5,0.6,5.5C0.9,6,1.5,6.1,2,5.9c1.1-0.7,2.3-1,3.4-1V2.8z"/>
		</g>
	</g>
	<g>
		<g>
			<path fill="#06728D" d="M5.4,7.7C3.9,7.7,2.4,8.2,1,9c-0.5,0.3-0.6,0.9-0.4,1.4C0.9,10.9,1.5,11,2,10.8c1.1-0.7,2.3-1,3.4-1V7.7z
				"/>
		</g>
	</g>
	<g>
		<g>
			<path fill="#06728D" d="M5.4,12.6c-1.5,0-3,0.4-4.4,1.2c-0.5,0.3-0.6,0.9-0.4,1.4c0.3,0.5,0.9,0.7,1.3,0.4c1.1-0.7,2.3-1,3.4-1
				V12.6z"/>
		</g>
	</g>
	<g>
		<g>
			<path fill="#06728D" d="M5.4,17.6c-1.5,0-3,0.4-4.4,1.2c-0.5,0.3-0.6,0.9-0.4,1.4c0.3,0.5,0.9,0.7,1.3,0.4c1.1-0.7,2.3-1,3.4-1
				V17.6z"/>
		</g>
	</g>
	<g>
		<g>
			<path fill="#06728D" d="M5.4,22.5c-1.5,0-3,0.4-4.4,1.2c-0.5,0.3-0.6,0.9-0.4,1.4c0.3,0.5,0.9,0.7,1.3,0.4c1.1-0.7,2.3-1,3.4-1
				V22.5z"/>
		</g>
	</g>
	<g>
		<g>
			<path fill="#06728D" d="M5.4,27.4c-1.5,0-3,0.4-4.4,1.2c-0.5,0.3-0.6,0.9-0.4,1.4c0.3,0.5,0.9,0.7,1.3,0.4c1.1-0.7,2.3-1,3.4-1
				V27.4z"/>
		</g>
	</g>
	<g>
		<g>
			<path fill="#06728D" d="M5.4,32.3c-1.5,0-3,0.4-4.4,1.2c-0.5,0.3-0.6,0.9-0.4,1.4c0.3,0.5,0.9,0.7,1.3,0.4c1.1-0.7,2.3-1,3.4-1
				V32.3z"/>
		</g>
	</g>
	<g>
		<g>
			<path fill="#06728D" d="M5.4,37.2c-1.5,0-3,0.4-4.4,1.2c-0.5,0.3-0.6,0.9-0.4,1.4c0.3,0.5,0.9,0.7,1.3,0.4c1.1-0.7,2.3-1,3.4-1
				V37.2z"/>
		</g>
	</g>
	<g>
		<g>
			<path fill="#06728D" d="M5.4,42.1c-1.5,0-3,0.4-4.4,1.2c-0.5,0.3-0.6,0.9-0.4,1.4c0.3,0.5,0.9,0.7,1.3,0.4c1.1-0.7,2.3-1,3.4-1
				V42.1z"/>
		</g>
	</g>
	<path fill="#CFD0D1" d="M31.7,41.6l-2.3,1.5L21,45.8c-0.2,0.1-0.5,0.1-0.7,0.1c-0.8,0-1.5-0.4-2-1c-0.5-0.7-0.6-1.5-0.4-2.3
		l2.6-8.7l1.5-2.3l12.8-13.2v0l4.9-5v-11c0-1-0.8-1.8-1.7-1.8H7.1c-0.9,0-1.7,0.8-1.7,1.8v0.6c1.5,0,3,0.4,4.4,1.2
		c0.5,0.3,0.6,0.9,0.4,1.4C10,5.8,9.7,6,9.4,6C9.2,6,9,5.9,8.9,5.9c-1.1-0.7-2.3-1-3.4-1v2.9c1.5,0,3,0.4,4.4,1.2
		c0.5,0.3,0.6,0.9,0.4,1.4c-0.2,0.3-0.5,0.5-0.9,0.5c-0.2,0-0.3,0-0.5-0.1c-1.1-0.7-2.3-1-3.4-1v2.9c1.5,0,3,0.4,4.4,1.2
		c0.5,0.3,0.6,0.9,0.4,1.4c-0.2,0.3-0.5,0.5-0.9,0.5c-0.2,0-0.3,0-0.5-0.1c-1.1-0.7-2.3-1-3.4-1v2.9c1.5,0,3,0.4,4.4,1.2
		c0.5,0.3,0.6,0.9,0.4,1.4c-0.2,0.3-0.5,0.5-0.9,0.5c-0.2,0-0.3,0-0.5-0.1c-1.1-0.7-2.3-1-3.4-1v2.9c1.5,0,3,0.4,4.4,1.2
		c0.5,0.3,0.6,0.9,0.4,1.4c-0.2,0.3-0.5,0.5-0.9,0.5c-0.2,0-0.3,0-0.5-0.1c-1.1-0.7-2.3-1-3.4-1v2.9c1.5,0,3,0.4,4.4,1.2
		c0.5,0.3,0.6,0.9,0.4,1.4c-0.2,0.3-0.5,0.5-0.9,0.5c-0.2,0-0.3,0-0.5-0.1c-1.1-0.7-2.3-1-3.4-1v2.9c1.5,0,3,0.4,4.4,1.2
		c0.5,0.3,0.6,0.9,0.4,1.4c-0.2,0.3-0.5,0.5-0.9,0.5c-0.2,0-0.3,0-0.5-0.1c-1.1-0.7-2.3-1-3.4-1v2.9c1.5,0,3,0.4,4.4,1.2
		c0.5,0.3,0.6,0.9,0.4,1.4c-0.2,0.3-0.5,0.5-0.9,0.5c-0.2,0-0.3,0-0.5-0.1c-1.1-0.7-2.3-1-3.4-1v2.9c1.5,0,3,0.4,4.4,1.2
		c0.5,0.3,0.6,0.9,0.4,1.4C10,45,9.7,45.2,9.4,45.2c-0.2,0-0.3,0-0.5-0.1c-1.1-0.7-2.3-1-3.4-1v1.6c0,1,0.8,1.8,1.7,1.8h30.8
		c0.9,0,1.7-0.8,1.7-1.8V33.5L31.7,41.6z"/>
</g>
</svg>
