<?xml version="1.0" encoding="utf-8"?>
<!-- Generator: Adobe Illustrator 18.0.0, SVG Export Plug-In . SVG Version: 6.00 Build 0)  -->
<!DOCTYPE svg PUBLIC "-//W3C//DTD SVG 1.1//EN" "http://www.w3.org/Graphics/SVG/1.1/DTD/svg11.dtd">
<svg version="1.1" id="Layer_1" xmlns="http://www.w3.org/2000/svg" xmlns:xlink="http://www.w3.org/1999/xlink" x="0px" y="0px"
	 viewBox="0 0 48 48" enable-background="new 0 0 48 48" xml:space="preserve">
<g>
	<path fill="#294E58" d="M5.2,47.5c-0.1,0-0.2,0-0.2,0c-0.5-0.1-0.9-0.7-0.7-1.2L7,35.7c0.1-0.5,0.7-0.8,1.2-0.7
		c0.5,0.1,0.9,0.7,0.7,1.2L6.2,46.8C6.1,47.2,5.7,47.5,5.2,47.5z"/>
	<path fill="#294E58" d="M15.3,8.1c-0.1,0-0.2,0-0.2,0c-0.5-0.1-0.9-0.7-0.7-1.2l1.4-5.6c0.1-0.5,0.7-0.8,1.2-0.7
		c0.5,0.1,0.9,0.7,0.7,1.2l-1.4,5.6C16.2,7.8,15.8,8.1,15.3,8.1z"/>
	<path fill="#294E58" d="M42.8,47.5c-0.5,0-0.9-0.3-1-0.7l-2.7-10.6c-0.1-0.5,0.2-1,0.7-1.2c0.5-0.1,1.1,0.2,1.2,0.7l2.7,10.6
		c0.1,0.5-0.2,1-0.7,1.2C42.9,47.5,42.8,47.5,42.8,47.5z"/>
	<path fill="#294E58" d="M32.7,8.1c-0.5,0-0.9-0.3-1-0.7l-1.4-5.6c-0.1-0.5,0.2-1,0.7-1.2c0.5-0.1,1.1,0.2,1.2,0.7l1.4,5.6
		c0.1,0.5-0.2,1-0.7,1.2C32.8,8.1,32.7,8.1,32.7,8.1z"/>
	<path fill="#F04B36" d="M24,47.5c-0.6,0-1-0.4-1-1V32.4c0-0.5,0.5-1,1-1c0.6,0,1,0.4,1,1v14.2C25,47.1,24.6,47.5,24,47.5z"/>
	<path fill="#F04B36" d="M24,8.1c-0.6,0-1-0.4-1-1V1.5c0-0.5,0.5-1,1-1c0.6,0,1,0.4,1,1v5.6C25,7.6,24.6,8.1,24,8.1z"/>
	<rect x="0.5" y="7.1" fill="#4DA0D8" width="47" height="28.8"/>
</g>
</svg>
