<?xml version="1.0" encoding="utf-8"?>
<!-- Generator: Adobe Illustrator 18.0.0, SVG Export Plug-In . SVG Version: 6.00 Build 0)  -->
<!DOCTYPE svg PUBLIC "-//W3C//DTD SVG 1.1//EN" "http://www.w3.org/Graphics/SVG/1.1/DTD/svg11.dtd">
<svg version="1.1" id="Layer_1" xmlns="http://www.w3.org/2000/svg" xmlns:xlink="http://www.w3.org/1999/xlink" x="0px" y="0px"
	 viewBox="0 0 48 48" enable-background="new 0 0 48 48" xml:space="preserve">
<g>
	<g>
		<path fill="#F04B36" d="M8.1,22.6c-0.1,0-0.3,0-0.4-0.1c-0.5-0.2-0.7-0.8-0.5-1.4c0.4-0.8,0.7-1.8,1-2.7l0.3-0.8
			c2.1-6.1,8.3-9.6,11.3-10.6c4.3-1.4,8.8-0.3,9.8,2.4c0.4,1.1,0.5,2.2,0.2,3.3c-0.2,0.8-0.5,1.5-1,2c-0.6,0.6-1.4,0.9-2.2,1
			c-1.7,0.4-3.4,0.7-5.1,0.7c-0.6,0-1-0.4-1-1c0-0.6,0.4-1,1-1c1.6,0,3.1-0.3,4.7-0.6c0.5-0.1,1-0.3,1.3-0.5c0.2-0.2,0.4-0.5,0.5-1
			c0.2-0.7,0.1-1.4-0.2-2.2c-0.5-1.4-3.9-2.3-7.3-1.2c-0.1,0-7.7,2.6-10,9.3l-0.3,0.8c-0.3,1-0.7,2-1.1,2.9
			C8.9,22.4,8.5,22.6,8.1,22.6z"/>
	</g>
	<g>
		<path fill="#06728D" d="M46,18.8H2c-0.8,0-1.5,0.7-1.5,1.5V40c0,0.8,0.7,1.5,1.5,1.5H46c0.8,0,1.5-0.7,1.5-1.5V20.3
			C47.5,19.5,46.8,18.8,46,18.8z M28.6,22.2H32v3h-3.4V22.2z M28.6,29.5H32v3h-3.4V29.5z M22.3,22.2h3.4v3h-3.4V22.2z M22.3,29.5
			h3.4v3h-3.4V29.5z M16,22.2h3.4v3H16V22.2z M16,29.5h3.4v3H16V29.5z M9.7,22.2h3.4v3H9.7V22.2z M6.8,39.1H3.4v-3h3.4V39.1z
			 M6.8,32.4H3.4v-3h3.4V32.4z M6.8,25.2H3.4v-3h3.4V25.2z M9.7,29.5h3.4v3H9.7V29.5z M36.6,39.1H11.4v-3h25.2V39.1z M38.3,32.4
			h-3.4v-3h3.4V32.4z M38.3,25.2h-3.4v-3h3.4V25.2z M44.6,39.1h-3.4v-3h3.4V39.1z M44.6,32.4h-3.4v-3h3.4V32.4z M44.6,25.2h-3.4v-3
			h3.4V25.2z"/>
	</g>
</g>
</svg>
