<?xml version="1.0" encoding="utf-8"?>
<!-- Generator: Adobe Illustrator 18.0.0, SVG Export Plug-In . SVG Version: 6.00 Build 0)  -->
<!DOCTYPE svg PUBLIC "-//W3C//DTD SVG 1.1//EN" "http://www.w3.org/Graphics/SVG/1.1/DTD/svg11.dtd">
<svg version="1.1" id="Layer_1" xmlns="http://www.w3.org/2000/svg" xmlns:xlink="http://www.w3.org/1999/xlink" x="0px" y="0px"
	 viewBox="0 0 48 48" enable-background="new 0 0 48 48" xml:space="preserve">
<g>
	<g>
		<path fill="#F04B36" d="M27.5,11.3c0.1,0,0.1,0.1,0.2,0.1c3.2-2.5,6.4-5.9,6.5-9.9c0-0.5-0.4-1-1-1c-0.5,0-1,0.4-1,1
			c0,3.6-3.3,6.7-6.4,8.9C26.4,10.7,26.9,11,27.5,11.3z"/>
	</g>
	<g>
		<path fill="#F04B36" d="M29.6,38.3c-0.8-0.7-1.8-1.3-3-1.9c-2.5-1.3-10.7-6-10.8-11.6l0-1.5c0,0,0-0.1,0-0.1
			c0-0.1-0.3-3.2,3.8-6.6c0.7-0.5,1.5-1.1,2.4-1.6c-0.6-0.4-1.2-0.8-1.8-1.2c-0.7,0.4-1.3,0.8-1.8,1.3c-4.7,3.8-4.6,7.6-4.5,8.3
			l0,1.5c0.1,6.6,8.3,11.5,11.8,13.3c1.1,0.6,1.9,1.1,2.7,1.7c4.1,3.3,3.8,6.4,3.8,6.6c-0.1,0.5,0.3,1,0.8,1.1c0,0,0.1,0,0.1,0
			c0.5,0,0.9-0.4,1-0.8C34.1,46.5,34.6,42.4,29.6,38.3z"/>
	</g>
	<g>
		<path fill="#D48D2A" d="M32.3,5.8H15.7c-0.5,0-1-0.4-1-1c0-0.5,0.4-1,1-1h16.6c0.5,0,1,0.4,1,1C33.3,5.4,32.8,5.8,32.3,5.8z"/>
	</g>
	<g>
		<path fill="#0DB89A" d="M30.9,18.6H17.1c-0.5,0-1-0.4-1-1c0-0.5,0.4-1,1-1h13.8c0.5,0,1,0.4,1,1C31.9,18.2,31.4,18.6,30.9,18.6z"
			/>
	</g>
	<g>
		<path fill="#566C7A" d="M30.9,31.4H17.1c-0.5,0-1-0.4-1-1c0-0.5,0.4-1,1-1h13.8c0.5,0,1,0.4,1,1C31.9,30.9,31.4,31.4,30.9,31.4z"
			/>
	</g>
	<g>
		<path fill="#FFCD74" d="M32.3,44.1H15.7c-0.5,0-1-0.4-1-1c0-0.5,0.4-1,1-1h16.6c0.5,0,1,0.4,1,1C33.3,43.7,32.8,44.1,32.3,44.1z"
			/>
	</g>
	<g>
		<path fill="#4DA0D8" d="M25.7,14.8c1.1,0.6,1.9,1.1,2.7,1.7c4.1,3.4,3.8,6.5,3.8,6.6c0,0,0,0.1,0,0.1l0,1.5c0,3.6-3.3,6.7-6.4,8.9
			c0.6,0.3,1.1,0.7,1.7,0.9c0.1,0,0.1,0.1,0.2,0.1c3.2-2.5,6.4-5.9,6.5-10l0-1.5c0.1-0.6,0.2-4.5-4.5-8.3c-0.8-0.7-1.8-1.3-3-1.9
			c-2.5-1.3-10.7-6-10.8-11.6c0-0.5-0.4-1-1-1c-0.5,0-1,0.5-1,1C14,8.1,22.2,13,25.7,14.8z"/>
	</g>
	<g>
		<path fill="#4DA0D8" d="M20.2,37c-0.7,0.4-1.3,0.8-1.8,1.3c-5,4.1-4.5,8.2-4.5,8.4c0.1,0.5,0.5,0.8,1,0.8c0,0,0.1,0,0.1,0
			c0.5-0.1,0.9-0.6,0.8-1.1c0-0.1-0.3-3.2,3.8-6.6c0.7-0.5,1.5-1.1,2.4-1.6C21.4,37.9,20.8,37.5,20.2,37z"/>
	</g>
</g>
</svg>
