<?xml version="1.0" encoding="utf-8"?>
<!-- Generator: Adobe Illustrator 18.0.0, SVG Export Plug-In . SVG Version: 6.00 Build 0)  -->
<!DOCTYPE svg PUBLIC "-//W3C//DTD SVG 1.1//EN" "http://www.w3.org/Graphics/SVG/1.1/DTD/svg11.dtd">
<svg version="1.1" id="Layer_1" xmlns="http://www.w3.org/2000/svg" xmlns:xlink="http://www.w3.org/1999/xlink" x="0px" y="0px"
	 viewBox="0 0 48 48" enable-background="new 0 0 48 48" xml:space="preserve">
<g>
	<path fill="#F04B36" d="M30.1,20.7c-0.6,0-1-0.5-1-1v-2.2c0-0.6,0.5-1,1-1c0.6,0,1,0.5,1,1v2.2C31.1,20.2,30.6,20.7,30.1,20.7z"/>
	<path fill="#F04B36" d="M35,20.7h-9.9c-0.6,0-1-0.5-1-1c0-0.6,0.5-1,1-1H35c0.6,0,1,0.5,1,1C36,20.2,35.6,20.7,35,20.7z"/>
	<path fill="#06728D" d="M21.2,3.5v14h17.7v-14H21.2z M36.9,15.6H23.2v-10h13.7V15.6z"/>
	<path fill="#06728D" d="M8,0.5v20.2h9.3V0.5H8z M9.2,2.1h7.1v1.7H9.2V2.1z"/>
	<path fill="#E77528" d="M43.7,22.8H4.3c-0.4,0-0.7,0.3-0.7,0.7v3c0,0.4,0.3,0.7,0.7,0.7h0.9v9.5v5.7v1.7H7v2.3c0,0.6,0.5,1,1,1
		c0.6,0,1-0.5,1-1v-2.3h9.5v0h20v2.3c0,0.6,0.5,1,1,1c0.6,0,1-0.5,1-1V27.3h3.2c0.4,0,0.7-0.3,0.7-0.7v-3
		C44.4,23.2,44.1,22.8,43.7,22.8z M17,37.8c0,0.6-0.5,1-1,1c-0.6,0-1-0.5-1-1v-6.1c0-0.6,0.5-1,1-1c0.6,0,1,0.5,1,1V37.8z
		 M38.5,41.9H18.7v-5.1v-9.5h19.8V41.9z"/>
</g>
</svg>
