<?xml version="1.0" encoding="utf-8"?>
<!-- Generator: Adobe Illustrator 18.0.0, SVG Export Plug-In . SVG Version: 6.00 Build 0)  -->
<!DOCTYPE svg PUBLIC "-//W3C//DTD SVG 1.1//EN" "http://www.w3.org/Graphics/SVG/1.1/DTD/svg11.dtd">
<svg version="1.1" id="Layer_1" xmlns="http://www.w3.org/2000/svg" xmlns:xlink="http://www.w3.org/1999/xlink" x="0px" y="0px"
	 viewBox="0 0 48 48" enable-background="new 0 0 48 48" xml:space="preserve">
<g>
	<path fill="#F7A93B" d="M46.3,24.4C46.3,24.4,46.3,24.4,46.3,24.4c-2.2-1.7-5.2-4.7-5.1-6.1c0-0.4,0.2-0.9,0.3-1.4
		c0.2-0.6,0.4-1.1,0.4-1.7c0.2-2-1.6-4.3-2.7-5.4c-2-2.1-4.9-4.2-7.1-4.2c-0.7,0-1.4,0.3-2,0.5c-0.4,0.2-0.8,0.3-1.3,0.4
		c-1.5,0-4.4-2.8-6.1-4.8c0,0,0-0.1-0.1-0.1c-1.5-1.4-4-1.4-5.4,0.1l-4.1,4.2c-0.7,0.7-1.1,1.7-1.1,2.7c0,1,0.4,2,1.2,2.7l7.4,7.2
		L0.8,39c-0.4,0.4-0.4,1,0,1.4l7.4,7.2c0.2,0.2,0.4,0.3,0.7,0.3c0.2,0,0.5-0.1,0.7-0.3l20-20.6l7.4,7.1c0.7,0.7,1.7,1.1,2.7,1.1
		c1,0,2-0.4,2.7-1.2l4.1-4.2C47.9,28.3,47.8,25.9,46.3,24.4z"/>
	<path fill="#F04B36" d="M46.3,24.4C46.3,24.4,46.3,24.4,46.3,24.4c-2.2-1.7-5.2-4.7-5.1-6.1c0-0.4,0.2-0.9,0.3-1.4
		c0.2-0.6,0.4-1.1,0.4-1.7c0.2-2-1.6-4.3-2.7-5.4c-2-2.1-4.9-4.2-7.1-4.2c-0.7,0-1.4,0.3-2,0.5c-0.4,0.2-0.8,0.3-1.3,0.4
		c-1.5,0-4.4-2.8-6.1-4.8c0,0,0-0.1-0.1-0.1c-1.5-1.4-4-1.4-5.4,0.1l-4.1,4.2c-0.7,0.7-1.1,1.7-1.1,2.7c0,1,0.4,2,1.2,2.7l7.4,7.2
		l8.8,8.5l7.4,7.1c0.7,0.7,1.7,1.1,2.7,1.1c1,0,2-0.4,2.7-1.2l4.1-4.2C47.9,28.3,47.8,25.9,46.3,24.4z"/>
</g>
</svg>
