<?xml version="1.0" encoding="utf-8"?>
<!-- Generator: Adobe Illustrator 18.0.0, SVG Export Plug-In . SVG Version: 6.00 Build 0)  -->
<!DOCTYPE svg PUBLIC "-//W3C//DTD SVG 1.1//EN" "http://www.w3.org/Graphics/SVG/1.1/DTD/svg11.dtd">
<svg version="1.1" id="Layer_1" xmlns="http://www.w3.org/2000/svg" xmlns:xlink="http://www.w3.org/1999/xlink" x="0px" y="0px"
	 viewBox="0 0 48 48" enable-background="new 0 0 48 48" xml:space="preserve">
<g>
	<path fill="#CFD0D1" d="M0.5,0.5v22.1h47V0.5H0.5z M11,21l-3.4,0.7c-0.7,0.1-1.3-0.3-1.4-0.9L2.9,6.2C2.8,5.6,3.2,5,3.8,4.9
		l3.4-0.7C7.9,4,8.5,4.4,8.7,5L12,19.7C12.1,20.3,11.7,20.9,11,21z M18.5,21l-3.4,0.7c-0.7,0.1-1.3-0.3-1.4-0.9L10.4,6.2
		c-0.1-0.6,0.3-1.2,0.9-1.3l3.4-0.7C15.4,4,16,4.4,16.1,5l3.3,14.6C19.6,20.3,19.2,20.9,18.5,21z M26,21l-3.4,0.7
		c-0.7,0.1-1.3-0.3-1.4-0.9L17.8,6.2c-0.1-0.6,0.3-1.2,0.9-1.3l3.4-0.7C22.8,4,23.5,4.4,23.6,5l3.3,14.6C27,20.3,26.6,20.9,26,21z
		 M33.4,21L30,21.7c-0.7,0.1-1.3-0.3-1.4-0.9L25.3,6.2c-0.1-0.6,0.3-1.2,0.9-1.3l3.4-0.7C30.3,4,30.9,4.4,31.1,5l3.3,14.6
		C34.5,20.3,34.1,20.9,33.4,21z"/>
	<path fill="#06728D" d="M0.5,25.4v22.1h47V25.4H0.5z M18,46.6l-3.4-0.7c-0.6-0.1-1.1-0.7-0.9-1.3L16.9,30c0.1-0.6,0.8-1,1.4-0.9
		l3.4,0.7c0.6,0.1,1.1,0.7,0.9,1.3l-3.3,14.6C19.3,46.4,18.6,46.8,18,46.6z M25.4,46.6L22,45.9c-0.6-0.1-1.1-0.7-0.9-1.3L24.4,30
		c0.1-0.6,0.8-1,1.4-0.9l3.4,0.7c0.6,0.1,1.1,0.7,0.9,1.3l-3.3,14.6C26.7,46.4,26.1,46.8,25.4,46.6z M32.9,46.6l-3.4-0.7
		c-0.6-0.1-1.1-0.7-0.9-1.3L31.9,30c0.1-0.6,0.8-1,1.4-0.9l3.4,0.7c0.6,0.1,1.1,0.7,0.9,1.3l-3.3,14.6
		C34.2,46.4,33.6,46.8,32.9,46.6z M45.1,31.2l-3.3,14.6c-0.1,0.6-0.8,1-1.4,0.9L37,45.9c-0.6-0.1-1.1-0.7-0.9-1.3L39.3,30
		c0.1-0.6,0.8-1,1.4-0.9l3.4,0.7C44.8,29.9,45.2,30.5,45.1,31.2z"/>
</g>
</svg>
