<?xml version="1.0" encoding="utf-8"?>
<!-- Generator: Adobe Illustrator 18.0.0, SVG Export Plug-In . SVG Version: 6.00 Build 0)  -->
<!DOCTYPE svg PUBLIC "-//W3C//DTD SVG 1.1//EN" "http://www.w3.org/Graphics/SVG/1.1/DTD/svg11.dtd">
<svg version="1.1" id="Layer_1" xmlns="http://www.w3.org/2000/svg" xmlns:xlink="http://www.w3.org/1999/xlink" x="0px" y="0px"
	 viewBox="0 0 48 48" enable-background="new 0 0 48 48" xml:space="preserve">
<g>
	<g>
		<path fill="#CFD0D1" d="M39.5,47.5c-4.1,0-7.4-3.3-7.4-7.4c0-0.5,0.4-1,1-1s1,0.4,1,1c0,3,2.4,5.4,5.4,5.4s5.4-2.4,5.4-5.4
			c0-0.5,0.4-1,1-1c0.5,0,1,0.4,1,1C46.9,44.2,43.6,47.5,39.5,47.5z"/>
	</g>
	<g>
		<g>
			<path fill="#CFD0D1" d="M45.9,40.9c-0.5,0-1-0.4-1-1V2.5H11.8v31.1c0,0.5-0.4,1-1,1s-1-0.4-1-1V1.5c0-0.5,0.4-1,1-1h35
				c0.5,0,1,0.4,1,1v38.5C46.9,40.5,46.4,40.9,45.9,40.9z"/>
		</g>
		<g>
			<path fill="#0DB89A" d="M39.9,10.1H16.1c-0.5,0-1-0.4-1-1c0-0.5,0.4-1,1-1h23.8c0.5,0,1,0.4,1,1C40.9,9.6,40.4,10.1,39.9,10.1z"
				/>
		</g>
		<g>
			<path fill="#0DB89A" d="M39.9,19.3H16.1c-0.5,0-1-0.4-1-1c0-0.5,0.4-1,1-1h23.8c0.5,0,1,0.4,1,1C40.9,18.9,40.4,19.3,39.9,19.3z"
				/>
		</g>
		<g>
			<path fill="#0DB89A" d="M39.9,28.6H16.1c-0.5,0-1-0.4-1-1c0-0.5,0.4-1,1-1h23.8c0.5,0,1,0.4,1,1C40.9,28.2,40.4,28.6,39.9,28.6z"
				/>
		</g>
		<path fill="#4DA0D8" d="M40.7,32.8H8.5c-4.1,0-7.4,3.3-7.4,7.4c0,4.1,3.3,7.4,7.4,7.4h31c0.5,0,1-0.4,1-1c0-0.5-0.4-1-1-1
			c-3,0-5.4-2.4-5.4-5.4c0-3,2.4-5.4,5.4-5.4c0.3,0,0.6,0,1,0.1c0.3,0.1,0.6,0,0.8-0.2c0.2-0.2,0.4-0.5,0.4-0.8v-0.1
			C41.6,33.2,41.2,32.8,40.7,32.8z"/>
	</g>
</g>
</svg>
