<?xml version="1.0" encoding="utf-8"?>
<!-- Generator: Adobe Illustrator 18.0.0, SVG Export Plug-In . SVG Version: 6.00 Build 0)  -->
<!DOCTYPE svg PUBLIC "-//W3C//DTD SVG 1.1//EN" "http://www.w3.org/Graphics/SVG/1.1/DTD/svg11.dtd">
<svg version="1.1" id="Layer_1" xmlns="http://www.w3.org/2000/svg" xmlns:xlink="http://www.w3.org/1999/xlink" x="0px" y="0px"
	 viewBox="0 0 48 48" enable-background="new 0 0 48 48" xml:space="preserve">
<g>
	<path fill="#CFD0D1" d="M37.9,7.3h-4.4l0.6,1.2c0.5,1.1,0.4,2.4-0.3,3.5c-0.7,1.1-1.8,1.7-3.1,1.7H17.3c-1.3,0-2.4-0.6-3.1-1.7
		c-0.7-1.1-0.8-2.4-0.3-3.5l0.6-1.2h-4.4c-1.5,0-2.8,1.2-2.8,2.6v35c0,1.4,1.2,2.6,2.8,2.6h27.9c1.5,0,2.8-1.2,2.8-2.6v-35
		C40.7,8.5,39.4,7.3,37.9,7.3z"/>
	<path fill="#06728D" d="M32.3,9.4l-1.9-4.3c-0.3-0.6-0.9-1-1.5-1h-1.3c0.8-0.4,1.3-0.9,1.3-1.5c0-1.2-2.1-2.2-4.7-2.2
		s-4.7,1-4.7,2.2c0,0.6,0.5,1.1,1.3,1.5h-1.3c-0.7,0-1.3,0.4-1.5,1l-1.9,4.3c-0.5,1.1,0.3,2.4,1.5,2.4h13.5
		C32,11.7,32.8,10.5,32.3,9.4z"/>
</g>
</svg>
