<?xml version="1.0" encoding="utf-8"?>
<!-- Generator: Adobe Illustrator 18.0.0, SVG Export Plug-In . SVG Version: 6.00 Build 0)  -->
<!DOCTYPE svg PUBLIC "-//W3C//DTD SVG 1.1//EN" "http://www.w3.org/Graphics/SVG/1.1/DTD/svg11.dtd">
<svg version="1.1" id="Layer_1" xmlns="http://www.w3.org/2000/svg" xmlns:xlink="http://www.w3.org/1999/xlink" x="0px" y="0px"
	 viewBox="0 0 48 48" enable-background="new 0 0 48 48" xml:space="preserve">
<g>
	<path fill="#4DA0D8" d="M36.7,5C33.2,2.2,28.8,0.5,24,0.5C18.1,0.5,12.9,3,9.2,7l15,13.3L36.7,5z"/>
	<path fill="#06728D" d="M7.5,8.8c-3.3,3.6-5.2,8.3-5.2,13.5c0,2.6,0.5,5.1,1.4,7.4l18.9-7.5L7.5,8.8z"/>
	<path fill="#F04B36" d="M45.8,22.3c0-6.3-2.9-11.8-7.3-15.5L26,22.1v20.2C36.9,42.2,45.8,33.3,45.8,22.3z"/>
	<path fill="#F7A93B" d="M2.8,34.8c2.9,7.4,10.2,12.7,18.7,12.7c0.1,0,0.2,0,0.2,0V27.3L2.8,34.8z"/>
</g>
</svg>
