<?xml version="1.0" encoding="utf-8"?>
<!-- Generator: Adobe Illustrator 18.0.0, SVG Export Plug-In . SVG Version: 6.00 Build 0)  -->
<!DOCTYPE svg PUBLIC "-//W3C//DTD SVG 1.1//EN" "http://www.w3.org/Graphics/SVG/1.1/DTD/svg11.dtd">
<svg version="1.1" id="Layer_1" xmlns="http://www.w3.org/2000/svg" xmlns:xlink="http://www.w3.org/1999/xlink" x="0px" y="0px"
	 viewBox="0 0 48 48" enable-background="new 0 0 48 48" xml:space="preserve">
<g>
	<path fill="#CFD0D1" d="M5.9,3.1v41.8c0,1.4,1.2,2.6,2.6,2.6h30.9c1.5,0,2.6-1.2,2.6-2.6V3.1c0-1.4-1.2-2.6-2.6-2.6H8.5
		C7.1,0.5,5.9,1.7,5.9,3.1z M26.7,8.2h9.6v12.6h-9.6V8.2z M11.7,7.2h8.4c0.6,0,1,0.5,1,1s-0.5,1-1,1h-8.4c-0.6,0-1-0.5-1-1
		S11.1,7.2,11.7,7.2z M11.7,17.7h8.4c0.6,0,1,0.5,1,1c0,0.6-0.5,1-1,1h-8.4c-0.6,0-1-0.5-1-1C10.7,18.2,11.1,17.7,11.7,17.7z
		 M36.3,40.8H11.7c-0.6,0-1-0.5-1-1s0.5-1,1-1h24.6c0.6,0,1,0.5,1,1S36.9,40.8,36.3,40.8z M36.3,30.3H11.7c-0.6,0-1-0.5-1-1
		c0-0.6,0.5-1,1-1h24.6c0.6,0,1,0.5,1,1C37.3,29.8,36.9,30.3,36.3,30.3z"/>
</g>
</svg>
