<?xml version="1.0" encoding="utf-8"?>
<!-- Generator: Adobe Illustrator 18.0.0, SVG Export Plug-In . SVG Version: 6.00 Build 0)  -->
<!DOCTYPE svg PUBLIC "-//W3C//DTD SVG 1.1//EN" "http://www.w3.org/Graphics/SVG/1.1/DTD/svg11.dtd">
<svg version="1.1" id="Layer_1" xmlns="http://www.w3.org/2000/svg" xmlns:xlink="http://www.w3.org/1999/xlink" x="0px" y="0px"
	 viewBox="0 0 48 48" enable-background="new 0 0 48 48" xml:space="preserve">
<g>
	<g>
		<ellipse fill="#0DB89A" cx="24" cy="4.2" rx="3.6" ry="3.7"/>
	</g>
	<g>
		<path fill="#0DB89A" d="M24,8.4c-4.7,0-8.5,3.9-8.5,8.7h17C32.5,12.3,28.7,8.4,24,8.4z"/>
	</g>
	<polygon fill="#06728D" points="26.2,47.5 26.2,23.4 36.7,23.4 36.7,19.5 11.3,19.5 11.3,23.4 21.7,23.4 21.7,47.5 	"/>
	<g>
		<g>
			<path fill="#F04B36" d="M6.2,7.7c2.2,0,4-2.1,3.4-4.5C9.4,1.9,8.3,0.9,7,0.6C4.8,0.1,2.7,1.8,2.7,4.1C2.7,6.1,4.3,7.7,6.2,7.7
				L6.2,7.7z M6.2,7.7"/>
		</g>
		<g>
			<path fill="#F04B36" d="M19,26.4c0-0.2-0.2-0.4-0.4-0.4h-6.9v0.1H0.5v5.2h13.4l0,15.8c0,0.1,0,0.2,0.1,0.3
				c0.1,0.1,0.2,0.1,0.3,0.1l4.2,0c0.1,0,0.2,0,0.3-0.1c0.1-0.1,0.1-0.2,0.1-0.3L19,26.4z"/>
		</g>
		<g>
			<path fill="#F04B36" d="M5.6,31.2H0.5V12c0-1.4,1.1-2.6,2.5-2.6l0,0c1.4,0,2.5,1.2,2.5,2.6V31.2z"/>
		</g>
	</g>
	<g>
		<g>
			<path fill="#F04B36" d="M41.8,7.7c1.9,0,3.5-1.6,3.5-3.6c0-2.3-2-4-4.3-3.5c-1.3,0.3-2.3,1.3-2.6,2.6C37.8,5.6,39.5,7.7,41.8,7.7
				L41.8,7.7z M41.8,7.7"/>
		</g>
		<g>
			<path fill="#F04B36" d="M29,26.4c0-0.2,0.2-0.4,0.4-0.4h6.9v0.1h11.2v5.2H34.1l0,15.8c0,0.1,0,0.2-0.1,0.3
				c-0.1,0.1-0.2,0.1-0.3,0.1l-4.2,0c-0.1,0-0.2,0-0.3-0.1C29,47.3,29,47.2,29,47.1L29,26.4z"/>
		</g>
		<g>
			<path fill="#F04B36" d="M42.4,31.2h5.1V12c0-1.4-1.1-2.6-2.5-2.6l0,0c-1.4,0-2.5,1.2-2.5,2.6V31.2z"/>
		</g>
	</g>
</g>
</svg>
