<?xml version="1.0" encoding="utf-8"?>
<!-- Generator: Adobe Illustrator 18.0.0, SVG Export Plug-In . SVG Version: 6.00 Build 0)  -->
<!DOCTYPE svg PUBLIC "-//W3C//DTD SVG 1.1//EN" "http://www.w3.org/Graphics/SVG/1.1/DTD/svg11.dtd">
<svg version="1.1" id="Layer_1" xmlns="http://www.w3.org/2000/svg" xmlns:xlink="http://www.w3.org/1999/xlink" x="0px" y="0px"
	 viewBox="0 0 48 48" enable-background="new 0 0 48 48" xml:space="preserve">
<g>
	<path fill="#4DA0D8" d="M43.1,25.6H30.3c-2.4,0-4.4,2-4.4,4.4v13.1c0,2.4,2,4.4,4.4,4.4h12.8c2.4,0,4.4-2,4.4-4.4V30
		C47.5,27.6,45.5,25.6,43.1,25.6z M41.5,37.5h-9.7c-0.6,0-1-0.5-1-1c0-0.6,0.5-1,1-1h9.7c0.6,0,1,0.5,1,1
		C42.6,37.1,42.1,37.5,41.5,37.5z"/>
	<path fill="#F04B36" d="M43.1,0.5H30.3c-2.4,0-4.4,2-4.4,4.4V18c0,2.4,2,4.4,4.4,4.4h12.8c2.4,0,4.4-2,4.4-4.4V4.9
		C47.5,2.5,45.5,0.5,43.1,0.5z M41.5,14.9h-9.7c-0.6,0-1-0.5-1-1s0.5-1,1-1h9.7c0.6,0,1,0.5,1,1S42.1,14.9,41.5,14.9z M41.5,10.1
		h-9.7c-0.6,0-1-0.5-1-1c0-0.6,0.5-1,1-1h9.7c0.6,0,1,0.5,1,1C42.6,9.6,42.1,10.1,41.5,10.1z"/>
	<path fill="#0DB89A" d="M17.7,25.6H4.9c-2.4,0-4.4,2-4.4,4.4v13.1c0,2.4,2,4.4,4.4,4.4h12.8c2.4,0,4.4-2,4.4-4.4V30
		C22.1,27.6,20.1,25.6,17.7,25.6z M16.4,37.5h-4.1v4.1c0,0.6-0.5,1-1,1s-1-0.5-1-1v-4.1H6.2c-0.6,0-1-0.5-1-1c0-0.6,0.5-1,1-1h4.1
		v-4.1c0-0.6,0.5-1,1-1s1,0.5,1,1v4.1h4.1c0.6,0,1,0.5,1,1C17.4,37.1,17,37.5,16.4,37.5z"/>
	<path fill="#06728D" d="M17.7,0.5H4.9c-2.4,0-4.4,2-4.4,4.4V18c0,2.4,2,4.4,4.4,4.4h12.8c2.4,0,4.4-2,4.4-4.4V4.9
		C22.1,2.5,20.1,0.5,17.7,0.5z M15.6,14.4c0.4,0.4,0.4,1,0,1.4c-0.2,0.2-0.5,0.3-0.7,0.3s-0.5-0.1-0.7-0.3l-2.9-2.9l-2.9,2.9
		c-0.2,0.2-0.5,0.3-0.7,0.3c-0.3,0-0.5-0.1-0.7-0.3c-0.4-0.4-0.4-1,0-1.4l2.9-2.9L6.9,8.6c-0.4-0.4-0.4-1,0-1.4c0.4-0.4,1-0.4,1.4,0
		l2.9,2.9l2.9-2.9c0.4-0.4,1-0.4,1.4,0c0.4,0.4,0.4,1,0,1.4l-2.9,2.9L15.6,14.4z"/>
</g>
</svg>
