<?xml version="1.0" encoding="utf-8"?>
<!-- Generator: Adobe Illustrator 18.0.0, SVG Export Plug-In . SVG Version: 6.00 Build 0)  -->
<!DOCTYPE svg PUBLIC "-//W3C//DTD SVG 1.1//EN" "http://www.w3.org/Graphics/SVG/1.1/DTD/svg11.dtd">
<svg version="1.1" id="Layer_1" xmlns="http://www.w3.org/2000/svg" xmlns:xlink="http://www.w3.org/1999/xlink" x="0px" y="0px"
	 viewBox="0 0 48 48" enable-background="new 0 0 48 48" xml:space="preserve">
<g>
	<path fill="#F04B36" d="M28.5,21.5H8.3c-1.2,1.8-1.9,4-1.9,6.3c0,6.5,5.4,11.7,12,11.7c6.6,0,12-5.2,12-11.7
		C30.4,25.5,29.7,23.3,28.5,21.5z M12.3,26c-0.7,0-1.3-0.6-1.3-1.3c0-0.7,0.6-1.3,1.3-1.3c0.7,0,1.3,0.6,1.3,1.3
		C13.6,25.4,13,26,12.3,26z M16.8,37.2c-1.2,0-2.2-1-2.2-2.2c0-1.2,1-2.2,2.2-2.2c1.2,0,2.2,1,2.2,2.2C19,36.3,18,37.2,16.8,37.2z
		 M19.6,26.9c-1.1,0-2-0.9-2-1.9c0-1.1,0.9-1.9,2-1.9c1.1,0,2,0.9,2,1.9C21.5,26.1,20.6,26.9,19.6,26.9z M24.3,31
		C23,31,22,30,22,28.7c0-1.2,1-2.2,2.3-2.2c1.3,0,2.3,1,2.3,2.2C26.5,30,25.5,31,24.3,31z"/>
	<g>
		<path fill="#F04B36" d="M28.5,22.5H8.3c-0.4,0-0.7-0.2-0.9-0.5c-0.2-0.3-0.2-0.7,0-1c1.5-2.3,3.8-4.1,6.4-5.1V3.5c0-0.5,0.4-1,1-1
			H22c0.5,0,1,0.4,1,1v12.4c2.6,1,4.9,2.7,6.4,5.1c0.2,0.3,0.2,0.7,0,1C29.2,22.3,28.9,22.5,28.5,22.5z M10.3,20.6h16.2
			c-1.3-1.4-3-2.4-4.8-3c-0.4-0.1-0.7-0.5-0.7-0.9V4.5h-5.1v12.2c0,0.4-0.3,0.8-0.7,0.9C13.3,18.1,11.6,19.2,10.3,20.6z"/>
	</g>
	<path fill="#F04B36" d="M18.4,40.5c-7.2,0-13-5.7-13-12.7c0-2.4,0.7-4.8,2-6.8c0.2-0.3,0.5-0.4,0.8-0.4h20.2c0.3,0,0.7,0.2,0.8,0.4
		c1.3,2,2,4.4,2,6.8C31.4,34.8,25.6,40.5,18.4,40.5z M8.9,22.5c-1,1.6-1.5,3.5-1.5,5.3c0,5.9,4.9,10.7,11,10.7c6.1,0,11-4.8,11-10.7
		c0-1.9-0.5-3.7-1.4-5.3H8.9z"/>
	<g>
		<path fill="#F7A93B" d="M24.8,4.5H12c-0.5,0-1-0.4-1-1c0-0.5,0.4-1,1-1h12.8c0.5,0,1,0.4,1,1C25.8,4,25.3,4.5,24.8,4.5z"/>
	</g>
	<g>
		<path fill="#06728D" d="M39.4,47.1c-0.7,0-1.2-0.5-1.2-1.2V1.7c0-0.7,0.6-1.2,1.2-1.2c0.7,0,1.2,0.5,1.2,1.2v44.2
			C40.7,46.6,40.1,47.1,39.4,47.1z"/>
	</g>
	<g>
		<path fill="#06728D" d="M46.3,10.7H7.2c-0.7,0-1.2-0.5-1.2-1.2s0.6-1.2,1.2-1.2h39.1c0.7,0,1.2,0.5,1.2,1.2S46.9,10.7,46.3,10.7z"
			/>
	</g>
	<rect x="0.5" y="43.7" fill="#06728D" width="45.6" height="3.8"/>
</g>
</svg>
