<?xml version="1.0" encoding="utf-8"?>
<!-- Generator: Adobe Illustrator 18.0.0, SVG Export Plug-In . SVG Version: 6.00 Build 0)  -->
<!DOCTYPE svg PUBLIC "-//W3C//DTD SVG 1.1//EN" "http://www.w3.org/Graphics/SVG/1.1/DTD/svg11.dtd">
<svg version="1.1" id="Layer_1" xmlns="http://www.w3.org/2000/svg" xmlns:xlink="http://www.w3.org/1999/xlink" x="0px" y="0px"
	 viewBox="0 0 48 48" enable-background="new 0 0 48 48" xml:space="preserve">
<g>
	<path fill="#CFD0D1" d="M34.9,29.4H13.1l-3.1,18.1h27.9L34.9,29.4z M18.3,32.9h11.4c0.6,0,1,0.4,1,1c0,0.5-0.5,1-1,1H18.3
		c-0.6,0-1-0.4-1-1C17.3,33.4,17.8,32.9,18.3,32.9z M17.5,37.5h13.1c0.6,0,1,0.4,1,1c0,0.5-0.5,1-1,1H17.5c-0.6,0-1-0.4-1-1
		C16.4,37.9,16.9,37.5,17.5,37.5z M31,44H17c-0.6,0-1-0.4-1-1c0-0.5,0.5-1,1-1h14c0.6,0,1,0.4,1,1C32,43.5,31.6,44,31,44z"/>
	<path fill="#06728D" d="M45.7,8.1h-9.9V0.5H12.2v7.6H4.3c-2.6,0-3.8,1.2-3.8,3.7V35c0,0.5,1.3,1.7,2.8,1.7h6.5l1.6-9.3h25.2
		l1.6,9.3h6.5c1.6,0,2.8-1.2,2.8-2.7V10.8C47.5,9.3,46.2,8.1,45.7,8.1z M10.3,16.3h-6v-3.4h6V16.3z M14.3,2.5h19.5v5.6H14.3V2.5z"/>
</g>
</svg>
