<?xml version="1.0" encoding="utf-8"?>
<!-- Generator: Adobe Illustrator 18.0.0, SVG Export Plug-In . SVG Version: 6.00 Build 0)  -->
<!DOCTYPE svg PUBLIC "-//W3C//DTD SVG 1.1//EN" "http://www.w3.org/Graphics/SVG/1.1/DTD/svg11.dtd">
<svg version="1.1" id="Layer_1" xmlns="http://www.w3.org/2000/svg" xmlns:xlink="http://www.w3.org/1999/xlink" x="0px" y="0px"
	 viewBox="0 0 48 48" enable-background="new 0 0 48 48" xml:space="preserve">
<g>
	<path fill="#E77528" d="M47.1,12.2c-0.3-0.2-0.7-0.1-1,0.1L4.3,45.9C4,46.1,3.9,46.6,4,47c0.1,0.4,0.5,0.7,0.9,0.7h41.7
		c0.5,0,1-0.4,1-1V13.1C47.6,12.7,47.4,12.4,47.1,12.2z M40.1,39.4c0,0.5-0.4,1-1,1H25.4c-0.4,0-0.8-0.3-0.9-0.7
		c-0.1-0.4,0-0.8,0.3-1.1l13.7-10.4c0.3-0.2,0.7-0.3,1-0.1c0.3,0.2,0.5,0.5,0.5,0.9V39.4z"/>
	<path fill="#06728D" d="M41.9,9.1c-4.4-5.6-11.1-8.7-18.2-8.7c-5.3,0-10.3,1.8-14.5,5.1c-4.9,3.9-7.9,9.4-8.6,15.6
		c-0.7,6.2,1.1,12.2,4.9,17.1c0.2,0.2,0.5,0.4,0.8,0.4c0.2,0,0.4-0.1,0.6-0.2l34.9-27.8c0.2-0.2,0.3-0.4,0.4-0.7
		C42.1,9.6,42,9.3,41.9,9.1z M27.9,13.8L13.2,25.6c-0.2,0.1-0.4,0.2-0.6,0.2c-0.3,0-0.6-0.1-0.8-0.4c-1.4-1.7-2-4-1.8-6.3
		c0.3-2.8,1.8-5.4,4.2-7.3c2-1.6,4.5-2.5,6.9-2.5c2.8,0,5.3,1.2,6.9,3.2c0.2,0.2,0.2,0.5,0.2,0.7C28.2,13.4,28.1,13.7,27.9,13.8z"/>
</g>
</svg>
