<?xml version="1.0" encoding="utf-8"?>
<!-- Generator: Adobe Illustrator 18.0.0, SVG Export Plug-In . SVG Version: 6.00 Build 0)  -->
<!DOCTYPE svg PUBLIC "-//W3C//DTD SVG 1.1//EN" "http://www.w3.org/Graphics/SVG/1.1/DTD/svg11.dtd">
<svg version="1.1" id="Layer_1" xmlns="http://www.w3.org/2000/svg" xmlns:xlink="http://www.w3.org/1999/xlink" x="0px" y="0px"
	 viewBox="0 0 48 48" enable-background="new 0 0 48 48" xml:space="preserve">
<g>
	<path fill="#06728D" d="M41,12.9c-0.8,0.3-1.5,0.8-2.3,1c-1,0.3-2,0.2-3,0.3c-1.2,0.2-2.4,0.9-3.3,1.8c-0.7,0.8-1.2,1.7-2,2.2
		c-0.5,0.3-1.1,0.4-1.7,0.6c-1.6,0.5-2.9,1.7-3.6,3.2c-0.3,0.7-0.6,1.4-1,2c-0.7,0.9-1.8,1.2-2.6,2C20.7,26.9,20.3,28,20,29
		c-0.7,2.1-1.5,4.3-1.3,6.5c-0.6,0.6-1.3,1.1-1.4,1.3c-1.1,1.2-2.2,2.6-3.1,3.9c-0.4,0.5-0.2,1.2,0.3,1.5c0.2,0.1,0.4,0.2,0.6,0.2
		c0.3,0,0.7-0.2,0.9-0.5c0.9-1.3,1.9-2.5,3-3.7c0.6-0.6,1.2-1.2,1.8-1.7c0.1,0,0.2-0.1,0.4-0.2c1.8-0.7,3.8-0.6,5.6-1.3
		c0.6-0.2,1.3-0.7,1.4-1.3c0.1-0.4,0-0.8,0.1-1.2c0.2-0.8,1.2-1,1.9-1.3c0.3-0.2,0.7-0.4,0.9-0.7c0.3-0.3,0.6-0.8,0.6-1.3
		c-0.1-0.5-0.6-0.9-1-0.7c0.8-0.5,1.6-0.9,2.4-1.4c0.4-0.2,0.9-0.5,1.1-0.9c0.3-0.4,0.4-0.9,0.2-1.4c-0.1-0.1-0.2-0.2-0.1-0.4
		c0-0.1,0.1-0.1,0.2-0.2c2.1-0.7,4.2-1.5,6.3-2.2c1.1-0.4,2.4-0.9,2.8-2.1c-0.3-0.1-0.6-0.2-1-0.2c1.2-2.3,2.6-4.6,4.2-6.7
		c0.2-0.3,0.2-0.4,0.8-0.9C44.2,11.2,43.1,12,41,12.9z"/>
	<path fill="#0DB89A" d="M31.1,33.3c-0.2,0.1-0.4,0.2-0.6,0.3c0,0-0.1,0-0.1,0c0,0.2,0,0.4-0.1,0.6c-0.3,1.3-1.3,2.3-2.8,2.9
		c-1.1,0.4-2.2,0.6-3.2,0.7c-0.9,0.1-1.7,0.3-2.4,0.5c-0.1,0-0.1,0-0.2,0.1c-0.4,0.4-0.9,0.8-1.3,1.3c-0.1,0.1-0.2,0.3-0.4,0.4
		c0.4,0.2,0.6,0.5,0.6,1c0,0.6-0.5,1.1-1.1,1.1h-1.2c-0.3,0.3-0.5,0.7-0.8,1c-0.6,0.9-1.6,1.4-2.7,1.4c-0.7,0-1.3-0.2-1.9-0.6
		c-0.6-0.4-1.1-1.1-1.3-1.8H5.7c-0.6,0-1.1-0.5-1.1-1.1C4.5,40.5,5,40,5.7,40H12c0.1-0.2,0.2-0.4,0.3-0.6c1-1.4,2.1-2.8,3.3-4.1
		c0.1-0.1,0.4-0.4,0.8-0.8c0-0.3,0-0.5,0.1-0.8H5.7c-0.6,0-1.1-0.5-1.1-1.1c0-0.6,0.5-1.1,1.1-1.1h11.2c0.3-1.2,0.7-2.3,1-3.2
		c0.3-1,0.8-2.1,1.6-3.1H5.7c-0.6,0-1.1-0.5-1.1-1.1c0-0.6,0.5-1.1,1.1-1.1h16.6c0.1-0.1,0.1-0.1,0.2-0.2c0.1-0.2,0.3-0.5,0.4-0.9
		c0.1-0.3,0.2-0.5,0.3-0.8c1-2,2.8-3.5,4.9-4.3c0.2-0.1,0.4-0.1,0.6-0.2c0.3-0.1,0.6-0.2,0.7-0.2c0.2-0.1,0.5-0.5,0.8-0.9
		c0.2-0.3,0.5-0.6,0.7-0.9c0.7-0.8,1.5-1.4,2.4-1.8V2.7c0-0.9-0.7-1.7-1.7-1.7H2.2C1.2,1,0.5,1.8,0.5,2.7v42.6
		c0,0.9,0.7,1.7,1.7,1.7h29.4c0.9,0,1.7-0.7,1.7-1.7V31.5c-0.2,0.2-0.4,0.5-0.6,0.7C32.1,32.7,31.6,33,31.1,33.3z M5.7,6.3H28
		c0.6,0,1.1,0.5,1.1,1.1c0,0.6-0.5,1.1-1.1,1.1H5.7C5,8.5,4.5,8,4.5,7.4C4.5,6.8,5,6.3,5.7,6.3z M5.7,14.3H28c0.6,0,1.1,0.5,1.1,1.1
		c0,0.6-0.5,1.1-1.1,1.1H5.7c-0.6,0-1.1-0.5-1.1-1.1C4.5,14.8,5,14.3,5.7,14.3z"/>
</g>
</svg>
