<?xml version="1.0" encoding="utf-8"?>
<!-- Generator: Adobe Illustrator 18.0.0, SVG Export Plug-In . SVG Version: 6.00 Build 0)  -->
<!DOCTYPE svg PUBLIC "-//W3C//DTD SVG 1.1//EN" "http://www.w3.org/Graphics/SVG/1.1/DTD/svg11.dtd">
<svg version="1.1" id="Layer_1" xmlns="http://www.w3.org/2000/svg" xmlns:xlink="http://www.w3.org/1999/xlink" x="0px" y="0px"
	 viewBox="0 0 48 48" enable-background="new 0 0 48 48" xml:space="preserve">
<g>
	<g>
		<rect x="20.4" y="18.4" fill="#06728D" width="7.3" height="6.7"/>
	</g>
	<g>
		<path fill="#F7A93B" d="M30.7,0.5H17.4c-1.6,0-2.9,1.2-3,2.8l-0.8,15.3c-0.1,1.7,1.3,3.1,3,3.1h15c1.7,0,3.1-1.4,3-3.1L33.6,3.3
			C33.5,1.7,32.2,0.5,30.7,0.5z"/>
	</g>
	<g>
		<line fill="#F7A93B" x1="24" y1="29" x2="24" y2="39.8"/>
	</g>
	<g>
		<line fill="#F7A93B" x1="24" y1="29" x2="24" y2="45.1"/>
	</g>
	<g>
		<rect x="23" y="29" fill="#F7A93B" width="1.9" height="16.1"/>
	</g>
	<g>
		<path fill="#F7A93B" d="M36.8,46.1c-0.2,0-0.5-0.1-0.7-0.3c-6.9-6.3-17.3-6.3-24.2,0c-0.4,0.4-1,0.3-1.4-0.1
			c-0.4-0.4-0.3-1,0.1-1.4c7.6-7,19.2-7,26.8,0c0.4,0.4,0.4,1,0.1,1.4C37.3,46,37,46.1,36.8,46.1z"/>
	</g>
	<g>
		<circle fill="#F04B36" cx="24" cy="45.7" r="1.8"/>
	</g>
	<g>
		<circle fill="#F04B36" cx="36.1" cy="45.7" r="1.8"/>
	</g>
	<g>
		<circle fill="#F04B36" cx="11.9" cy="45.7" r="1.8"/>
	</g>
	<g>
		<path fill="#0DB89A" d="M34.2,31.4H13.8c-1.9,0-3.5-1.6-3.5-3.5v-0.2c0-1.9,1.6-3.5,3.5-3.5h20.5c1.9,0,3.5,1.6,3.5,3.5v0.2
			C37.7,29.8,36.2,31.4,34.2,31.4z"/>
	</g>
</g>
</svg>
