<?xml version="1.0" encoding="utf-8"?>
<!-- Generator: Adobe Illustrator 18.0.0, SVG Export Plug-In . SVG Version: 6.00 Build 0)  -->
<!DOCTYPE svg PUBLIC "-//W3C//DTD SVG 1.1//EN" "http://www.w3.org/Graphics/SVG/1.1/DTD/svg11.dtd">
<svg version="1.1" id="Layer_1" xmlns="http://www.w3.org/2000/svg" xmlns:xlink="http://www.w3.org/1999/xlink" x="0px" y="0px"
	 viewBox="0 0 48 48" enable-background="new 0 0 48 48" xml:space="preserve">
<g>
	<g>
		<path fill="#F04B36" d="M8.2,24c-0.3,0-0.5-0.1-0.7-0.3c-0.4-0.4-0.4-1.1,0-1.5l11.1-10.6c0.4-0.4,0.9-0.4,1.3-0.1l9,7.1L41.2,5.8
			c0.4-0.4,1-0.4,1.4,0c0.4,0.4,0.4,1.1,0,1.5L29.8,20.8c-0.4,0.4-1,0.4-1.4,0.1l-9-7.1l-10.5,10C8.7,24,8.5,24,8.2,24z"/>
	</g>
	<g>
		<polygon fill="#88C057" points="9.3,47.5 12.6,47.5 12.6,25.7 9.3,28.9 		"/>
	</g>
	<g>
		<polygon fill="#06728D" points="18,20.5 18,47.5 21.4,47.5 21.4,20.9 19.4,19.3 		"/>
	</g>
	<g>
		<polygon fill="#BC772B" points="26.8,25.2 26.8,47.5 30.1,47.5 30.1,27.9 29.1,27 		"/>
	</g>
	<g>
		<polygon fill="#4DA0D8" points="35.6,20.2 35.6,47.5 38.9,47.5 38.9,16.7 		"/>
	</g>
	<g>
		<polygon fill="#F04B36" points="47.5,0.5 36.3,3 45.1,11.8 		"/>
	</g>
	<g>
		<rect x="0.5" y="2.1" fill="#CFD0D1" width="3.3" height="45.4"/>
	</g>
	<g>
		<rect x="0.5" y="44.1" fill="#CFD0D1" width="44.8" height="3.4"/>
	</g>
</g>
</svg>
