<?xml version="1.0" encoding="utf-8"?>
<!-- Generator: Adobe Illustrator 18.0.0, SVG Export Plug-In . SVG Version: 6.00 Build 0)  -->
<!DOCTYPE svg PUBLIC "-//W3C//DTD SVG 1.1//EN" "http://www.w3.org/Graphics/SVG/1.1/DTD/svg11.dtd">
<svg version="1.1" id="Layer_1" xmlns="http://www.w3.org/2000/svg" xmlns:xlink="http://www.w3.org/1999/xlink" x="0px" y="0px"
	 viewBox="0 0 48 48" enable-background="new 0 0 48 48" xml:space="preserve">
<g>
	<g>
		<polygon fill="#F04B36" points="24,6.6 21.7,13 26.4,13 24.1,6.6 		"/>
	</g>
	<g>
		<path fill="#F04B36" d="M30.4,0.5H17.6c-2.4,0-4.4,2-4.4,4.4V18c0,2.4,2,4.4,4.4,4.4h12.8c2.4,0,4.4-2,4.4-4.4V4.9
			C34.8,2.5,32.8,0.5,30.4,0.5z M31.1,18.9h-4.3v-1.3l1.1-0.2l-1-2.7H21l-1,2.7l1.1,0.2v1.3h-4.2v-1.3l1.1-0.2l5.2-13.4h1.7L30,17.4
			l1.1,0.2V18.9z"/>
	</g>
	<g>
		<path fill="#0DB89A" d="M12.7,37H8.9v5.4h3.5c0.9,0,1.6-0.2,2.1-0.7c0.5-0.5,0.8-1.1,0.8-1.9c0-0.9-0.2-1.6-0.6-2
			C14.2,37.2,13.6,37,12.7,37z"/>
	</g>
	<g>
		<path fill="#0DB89A" d="M14,34.8c0.4-0.4,0.7-1,0.7-1.7c0-0.8-0.3-1.4-0.8-1.8c-0.5-0.4-1.2-0.6-2.2-0.6H8.9v4.7h3.3
			C13,35.4,13.6,35.2,14,34.8z"/>
	</g>
	<g>
		<path fill="#0DB89A" d="M17.7,25.6H4.9c-2.4,0-4.4,2-4.4,4.4v13.1c0,2.4,2,4.4,4.4,4.4h12.8c2.4,0,4.4-2,4.4-4.4V30
			C22.1,27.6,20.1,25.6,17.7,25.6z M16,42.9c-0.9,0.7-2.1,1.1-3.6,1.1H5.3v-1.3l1.7-0.3V30.7l-1.7-0.3v-1.3h1.7h4.8
			c1.5,0,2.8,0.3,3.6,1c0.9,0.7,1.3,1.7,1.3,3c0,0.7-0.2,1.2-0.6,1.8c-0.4,0.5-1,0.9-1.7,1.2c0.9,0.2,1.6,0.6,2.1,1.3
			c0.5,0.7,0.8,1.5,0.8,2.4C17.3,41.1,16.9,42.2,16,42.9z"/>
	</g>
	<path fill="#4DA0D8" d="M43.1,25.6H30.3c-2.4,0-4.4,2-4.4,4.4v13.1c0,2.4,2,4.4,4.4,4.4h12.8c2.4,0,4.4-2,4.4-4.4V30
		C47.5,27.6,45.5,25.6,43.1,25.6z M42.5,33.7H41l-0.4-2.1c-0.3-0.3-0.7-0.6-1.2-0.8c-0.5-0.2-1-0.3-1.7-0.3c-1.5,0-2.7,0.6-3.6,1.7
		c-0.8,1.1-1.2,2.5-1.2,4.3v0.2c0,1.7,0.4,3.1,1.2,4.3c0.8,1.1,1.9,1.7,3.4,1.7c0.7,0,1.3-0.1,1.8-0.3c0.5-0.2,1-0.5,1.3-0.8
		l0.4-2.1h1.4V42c-0.4,0.5-1.1,1-1.9,1.5c-0.9,0.4-1.8,0.6-3,0.6c-1.9,0-3.5-0.7-4.7-2.1c-1.2-1.4-1.9-3.2-1.9-5.4v-0.2
		c0-2.2,0.6-4,1.8-5.4c1.2-1.4,2.8-2.1,4.8-2.1c1.1,0,2.1,0.2,3,0.7c0.9,0.4,1.5,0.9,1.9,1.5V33.7z"/>
</g>
</svg>
