<?xml version="1.0" encoding="utf-8"?>
<!-- Generator: Adobe Illustrator 18.0.0, SVG Export Plug-In . SVG Version: 6.00 Build 0)  -->
<!DOCTYPE svg PUBLIC "-//W3C//DTD SVG 1.1//EN" "http://www.w3.org/Graphics/SVG/1.1/DTD/svg11.dtd">
<svg version="1.1" id="Layer_1" xmlns="http://www.w3.org/2000/svg" xmlns:xlink="http://www.w3.org/1999/xlink" x="0px" y="0px"
	 viewBox="0 0 48 48" enable-background="new 0 0 48 48" xml:space="preserve">
<g>
	<path fill="#0DB89A" d="M47.2,42.8l-7-6.9c1.8-2.4,1.6-5.9-0.7-8.1c-2.5-2.4-6.5-2.4-8.9,0c-2.5,2.4-2.5,6.4,0,8.9
		c2.2,2.2,5.7,2.4,8.1,0.6l7,6.9c0.4,0.4,1,0.4,1.4,0l0,0C47.6,43.8,47.6,43.2,47.2,42.8z M31.9,35.4c-1.8-1.8-1.8-4.7,0-6.4
		c1.8-1.8,4.7-1.8,6.5,0c1.8,1.8,1.8,4.7,0,6.4C36.6,37.2,33.6,37.2,31.9,35.4z"/>
	<path fill="#F7A93B" d="M31.1,14.6c-1.3-1-4.6-1.6-8.2-1.6c-3.5,0-6.9,0.7-8.2,1.6l-1.2,0.9c0.5,4.8,4.5,8.5,9.4,8.5
		c4.9,0,8.9-3.7,9.4-8.4L31.1,14.6z"/>
	<path fill="#06728D" d="M13.6,13.1c2.1-1.6,6.5-2,9.4-2s7.3,0.5,9.4,2V7.4l6.2-1.9L22.9,0.5L7.4,5.4l6.2,1.9V13.1z"/>
	<path fill="#A61E23" d="M37.2,8.6c-0.3,0-0.6-0.3-0.6-0.6V5.8c0-0.3,0.3-0.6,0.6-0.6c0.3,0,0.6,0.3,0.6,0.6v2.3
		C37.8,8.4,37.5,8.6,37.2,8.6z"/>
	<path fill="#A61E23" d="M37.3,17.8c0.2,0.1,0.4,0,0.5-0.1c0.1-0.2,0.1-0.4,0.2-0.5c0.1-1,0.1-2,0.1-3c0.1,0.8,0.1,1.6,0,2.4
		c0,0.3-0.1,0.6,0.1,0.8c0.1,0.3,0.5,0.4,0.7,0.2c0.1-0.6,0.1-1.2,0.1-1.9c0-1.4,0.1-2.9-0.5-4.3c-0.2-0.4-0.4-0.9-0.3-1.4
		c0-0.1,0.1-0.2,0.1-0.3c0.2-0.5,0.1-1,0-1.5c0-0.1,0-0.3-0.1-0.4c-0.1-0.2-0.3-0.2-0.5-0.3c-0.5-0.1-1.1-0.2-1.5,0.2
		C36,8,36,8.2,36,8.4c-0.1,0.6,0,1.2,0.3,1.8c0.1,0.3,0.3,0.6,0.4,0.9c0.1,0.6-0.3,1.1-0.6,1.6c-0.5,0.8-0.7,1.7-0.8,2.6
		c0,0.6,0,1.1,0.2,1.6c0.1,0.2,0.4,0.5,0.6,0.3c0.1-0.1,0.1-0.2,0.1-0.4c0-0.9,0.1-1.8,0.1-2.7c0.3,0.5,0.3,1.1,0.2,1.7
		c-0.1,0.6-0.3,1.1-0.3,1.7c0.2,0,0.4-0.1,0.6-0.3c0.1-0.2,0.2-0.4,0.2-0.6c0.1-0.8,0.2-1.6,0.3-2.4c0.3,1,0.3,2,0,3
		C37.2,17.4,37.1,17.7,37.3,17.8z"/>
	<path fill="#F04B36" d="M43.8,46.2l-5.5-5.5c-1,0.4-2.1,0.6-3.2,0.6c-2.4,0-4.7-0.9-6.4-2.6c-3.5-3.5-3.6-9.2-0.1-12.7
		c-1.8-0.5-3.7-0.7-5.6-0.7c-12.4,0-22.5,10-22.5,22.3h44.9c0-0.1,0-0.2,0-0.3C44.8,47,44.3,46.7,43.8,46.2z"/>
</g>
</svg>
