<?xml version="1.0" encoding="utf-8"?>
<!-- Generator: Adobe Illustrator 18.0.0, SVG Export Plug-In . SVG Version: 6.00 Build 0)  -->
<!DOCTYPE svg PUBLIC "-//W3C//DTD SVG 1.1//EN" "http://www.w3.org/Graphics/SVG/1.1/DTD/svg11.dtd">
<svg version="1.1" id="Layer_1" xmlns="http://www.w3.org/2000/svg" xmlns:xlink="http://www.w3.org/1999/xlink" x="0px" y="0px"
	 viewBox="0 0 48 48" enable-background="new 0 0 48 48" xml:space="preserve">
<g>
	<path fill="#CC3736" d="M14,21c-0.6,0-1-0.5-1-1v-8.7c0-0.4,0.3-0.8,0.7-1L17.8,9c0.5-0.2,1.1,0.1,1.3,0.7c0.2,0.5-0.1,1.1-0.7,1.3
		L15,12V20C15,20.5,14.5,21,14,21z"/>
	<g>
		<ellipse fill="#FFD69A" cx="26" cy="5.5" rx="4.9" ry="5"/>
	</g>
	<g>
		<path fill="#06728D" d="M35.9,16.5c-2.1-3.3-5.7-5.4-9.9-5.4c-4.2,0-7.8,2.2-9.9,5.4H35.9z"/>
	</g>
	<g>
		<path fill="#F7A93B" d="M36.7,18.8H11.3V41H8.2v6.5h31.5V41h-3.1V18.8z M19.2,35c0,0.5-0.4,1-1,1c-0.5,0-1-0.4-1-1V23
			c0-0.5,0.4-1,1-1c0.5,0,1,0.4,1,1V35z M24.9,35c0,0.5-0.4,1-1,1c-0.5,0-1-0.4-1-1V23c0-0.5,0.4-1,1-1c0.5,0,1,0.4,1,1V35z
			 M30.6,35c0,0.5-0.4,1-1,1c-0.5,0-1-0.4-1-1V23c0-0.5,0.4-1,1-1c0.5,0,1,0.4,1,1V35z"/>
	</g>
</g>
</svg>
