<?xml version="1.0" encoding="utf-8"?>
<!-- Generator: Adobe Illustrator 18.0.0, SVG Export Plug-In . SVG Version: 6.00 Build 0)  -->
<!DOCTYPE svg PUBLIC "-//W3C//DTD SVG 1.1//EN" "http://www.w3.org/Graphics/SVG/1.1/DTD/svg11.dtd">
<svg version="1.1" id="Layer_1" xmlns="http://www.w3.org/2000/svg" xmlns:xlink="http://www.w3.org/1999/xlink" x="0px" y="0px"
	 viewBox="0 0 48 48" enable-background="new 0 0 48 48" xml:space="preserve">
<g>
	<g>
		<path fill="#F04B36" d="M19.3,47.3c-0.5,0-1-0.4-1-1V7.2H5v39.1c0,0.5-0.4,1-1,1c-0.5,0-1-0.4-1-1V6.2c0-0.5,0.4-1,1-1h15.3
			c0.5,0,1,0.4,1,1v40.1C20.3,46.8,19.8,47.3,19.3,47.3z"/>
	</g>
	<g>
		<path fill="#BA2B28" d="M19.3,21.4H4c-0.5,0-1-0.4-1-1c0-0.5,0.4-1,1-1h15.3c0.5,0,1,0.4,1,1C20.3,20.9,19.8,21.4,19.3,21.4z"/>
	</g>
	<g>
		<path fill="#F04B36" d="M42.1,47.5c-0.7,0-1.2-0.5-1.2-1.2V24.5H25.7v21.8c0,0.7-0.5,1.2-1.2,1.2c-0.7,0-1.2-0.5-1.2-1.2v-23
			c0-0.7,0.5-1.2,1.2-1.2h17.7c0.7,0,1.2,0.5,1.2,1.2v23C43.3,47,42.8,47.5,42.1,47.5z"/>
	</g>
	<g>
		<path fill="#BA2B28" d="M42.1,24.5c-0.1,0-0.2,0-0.2,0c-0.7-0.1-1.1-0.8-1-1.4l4.2-21.6c0.1-0.7,0.8-1.1,1.4-1
			c0.7,0.1,1.1,0.8,1,1.4l-4.2,21.6C43.2,24.1,42.7,24.5,42.1,24.5z"/>
	</g>
	<g>
		<rect x="4" y="6.2" fill="#4DA0D8" width="15.3" height="14.2"/>
	</g>
	<g>
		<path fill="#F04B36" d="M19.3,21.4H4c-0.5,0-1-0.4-1-1V6.2c0-0.5,0.4-1,1-1h15.3c0.5,0,1,0.4,1,1v14.2
			C20.3,20.9,19.8,21.4,19.3,21.4z M5,19.4h13.4V7.2H5V19.4z"/>
	</g>
	<g>
		<path fill="#06728D" d="M22.7,7.2H1.5c-0.5,0-1-0.4-1-1c0-0.5,0.4-1,1-1h21.2c0.5,0,1,0.4,1,1C23.7,6.7,23.2,7.2,22.7,7.2z"/>
	</g>
</g>
</svg>
