<?xml version="1.0" encoding="utf-8"?>
<!-- Generator: Adobe Illustrator 18.0.0, SVG Export Plug-In . SVG Version: 6.00 Build 0)  -->
<!DOCTYPE svg PUBLIC "-//W3C//DTD SVG 1.1//EN" "http://www.w3.org/Graphics/SVG/1.1/DTD/svg11.dtd">
<svg version="1.1" id="Layer_1" xmlns="http://www.w3.org/2000/svg" xmlns:xlink="http://www.w3.org/1999/xlink" x="0px" y="0px"
	 viewBox="0 0 48 48" enable-background="new 0 0 48 48" xml:space="preserve">
<g>
	<rect x="15.8" y="6.5" fill="#4DA0D8" width="16.4" height="9.3"/>
	<path fill="#06728D" d="M35.6,11.2H12.4V3c0-1.4,1.1-2.5,2.5-2.5h18.2c1.4,0,2.5,1.1,2.5,2.5V11.2z"/>
	<path fill="#F04B36" d="M32.9,47.5H15.1c-3.9,0-7.2-2.1-8.1-5.1L2.2,25.6c-0.5-1.7-0.1-3.4,1-4.9L6.1,17c1.5-2,4.2-3.1,7.1-3.1
		h21.7c2.9,0,5.6,1.2,7.1,3.1l2.9,3.7c1.1,1.5,1.5,3.2,1,4.9l-4.8,16.8C40.1,45.4,36.7,47.5,32.9,47.5z"/>
</g>
</svg>
