<?xml version="1.0" encoding="utf-8"?>
<!-- Generator: Adobe Illustrator 18.0.0, SVG Export Plug-In . SVG Version: 6.00 Build 0)  -->
<!DOCTYPE svg PUBLIC "-//W3C//DTD SVG 1.1//EN" "http://www.w3.org/Graphics/SVG/1.1/DTD/svg11.dtd">
<svg version="1.1" id="Layer_1" xmlns="http://www.w3.org/2000/svg" xmlns:xlink="http://www.w3.org/1999/xlink" x="0px" y="0px"
	 viewBox="0 0 48 48" enable-background="new 0 0 48 48" xml:space="preserve">
<g>
	<g>
		<g>
			<path fill="#4DA0D8" d="M11.2,45.3c-0.7,0-1.2-0.5-1.2-1.2V1.6c0-0.7,0.5-1.2,1.2-1.2c0.7,0,1.2,0.5,1.2,1.2v42.5
				C12.4,44.8,11.9,45.3,11.2,45.3z"/>
		</g>
	</g>
	<g>
		<g>
			<circle fill="#E77528" cx="11.2" cy="36.6" r="4.4"/>
		</g>
	</g>
	<g>
		<g>
			<circle fill="#0DB89A" cx="11.2" cy="26.6" r="4.4"/>
		</g>
	</g>
	<g>
		<g>
			<circle fill="#F04B36" cx="11.2" cy="16.6" r="4.4"/>
		</g>
	</g>
	<g>
		<g>
			<path fill="#4DA0D8" d="M24,45.3c-0.7,0-1.2-0.5-1.2-1.2V1.6c0-0.7,0.5-1.2,1.2-1.2c0.7,0,1.2,0.5,1.2,1.2v42.5
				C25.2,44.8,24.7,45.3,24,45.3z"/>
		</g>
	</g>
	<g>
		<g>
			<circle fill="#F04B36" cx="24" cy="36.6" r="4.4"/>
		</g>
	</g>
	<g>
		<g>
			<circle fill="#0DB89A" cx="24" cy="26.6" r="4.4"/>
		</g>
	</g>
	<g>
		<g>
			<path fill="#4DA0D8" d="M36.8,45.3c-0.7,0-1.2-0.5-1.2-1.2V1.6c0-0.7,0.5-1.2,1.2-1.2C37.4,0.4,38,1,38,1.6v42.5
				C38,44.8,37.4,45.3,36.8,45.3z"/>
		</g>
	</g>
	<g>
		<g>
			<circle fill="#E77528" cx="36.8" cy="36.6" r="4.4"/>
		</g>
	</g>
	<g>
		<rect x="0.5" y="44" fill="#06728D" width="47" height="3.6"/>
	</g>
</g>
</svg>
