<?xml version="1.0" encoding="utf-8"?>
<!-- Generator: Adobe Illustrator 18.0.0, SVG Export Plug-In . SVG Version: 6.00 Build 0)  -->
<!DOCTYPE svg PUBLIC "-//W3C//DTD SVG 1.1//EN" "http://www.w3.org/Graphics/SVG/1.1/DTD/svg11.dtd">
<svg version="1.1" id="Layer_1" xmlns="http://www.w3.org/2000/svg" xmlns:xlink="http://www.w3.org/1999/xlink" x="0px" y="0px"
	 viewBox="0 0 48 48" enable-background="new 0 0 48 48" xml:space="preserve">
<g>
	<polygon fill="#F7A93B" points="17.6,22.7 14.8,26.3 33.2,26.3 30.4,22.7 30.4,4.2 17.6,4.2 	"/>
	<path fill="#F04B36" d="M32.8,0.5h-3.3H18.5h-3.3c-0.5,0-0.9,0.4-0.9,0.9c0,0.5,0.4,0.9,0.9,0.9h2.4h12.8h2.4
		c0.5,0,0.9-0.4,0.9-0.9C33.7,0.9,33.3,0.5,32.8,0.5z"/>
	<path fill="#0DB89A" d="M44,40.1l-9.3-11.9H13.3L4,40.1c-1.6,2-2,4-1.3,5.4c0.4,0.7,1.4,2,4,2h34.7c2.6,0,3.6-1.2,4-2
		C46,44,45.6,42.1,44,40.1z"/>
</g>
</svg>
