<?xml version="1.0" encoding="utf-8"?>
<!-- Generator: Adobe Illustrator 18.0.0, SVG Export Plug-In . SVG Version: 6.00 Build 0)  -->
<!DOCTYPE svg PUBLIC "-//W3C//DTD SVG 1.1//EN" "http://www.w3.org/Graphics/SVG/1.1/DTD/svg11.dtd">
<svg version="1.1" id="Layer_1" xmlns="http://www.w3.org/2000/svg" xmlns:xlink="http://www.w3.org/1999/xlink" x="0px" y="0px"
	 viewBox="0 0 48 48" enable-background="new 0 0 48 48" xml:space="preserve">
<path fill="#06728D" d="M43.9,0.5v15.1c0,2.3-1.9,4.2-4.2,4.2H8.3c-2.3,0-4.2-1.9-4.2-4.2V0.5H0.5v47h47v-47H43.9z M13.7,32.4h3.7
	v9.4h-3.7V32.4z M22.2,32.4h3.7v9.4h-3.7V32.4z M30.7,32.4h3.7v9.4h-3.7V32.4z M4.9,37.1c0-2.3,1.7-4.3,4-4.6v9.3
	C6.6,41.4,4.9,39.5,4.9,37.1z M39.1,41.7v-9.3c2.3,0.3,4,2.3,4,4.6C43.1,39.5,41.4,41.4,39.1,41.7z"/>
<polygon fill="#F7A93B" points="26.4,20.1 24,15.9 21.6,20.1 21.6,32.1 26.4,32.1 "/>
<polygon fill="#06728D" points="26.4,20.1 24,15.9 21.6,20.1 21.6,32.1 26.4,32.1 "/>
<polygon fill="#F04B36" points="26.4,20.1 24,15.9 21.6,20.1 21.6,32.1 26.4,32.1 "/>
<polygon fill="#0DB89A" points="26.4,20.1 24,15.9 21.6,20.1 21.6,32.1 26.4,32.1 "/>
</svg>
