<?xml version="1.0" encoding="utf-8"?>
<!-- Generator: Adobe Illustrator 18.0.0, SVG Export Plug-In . SVG Version: 6.00 Build 0)  -->
<!DOCTYPE svg PUBLIC "-//W3C//DTD SVG 1.1//EN" "http://www.w3.org/Graphics/SVG/1.1/DTD/svg11.dtd">
<svg version="1.1" id="Layer_1" xmlns="http://www.w3.org/2000/svg" xmlns:xlink="http://www.w3.org/1999/xlink" x="0px" y="0px"
	 viewBox="0 0 48 48" enable-background="new 0 0 48 48" xml:space="preserve">
<g>
	<path fill="#F04B36" d="M47.5,14.6l-9.3-9.3l-6.1,6.1l1.4,1.4l-12.2,9.5c0,0,3.1,3.2-0.9,9.6c-0.7-0.4-1.6-0.3-2.2,0.3
		c-0.7,0.7-0.7,1.9,0,2.6c0.7,0.7,1.9,0.7,2.6,0c0.6-0.6,0.7-1.5,0.3-2.2c6.3-4,9.6-0.9,9.6-0.9L40,19.4l1.4,1.4L47.5,14.6z
		 M33,20.6l-3.5,3.5c0,0-0.1,0-0.1,0.1c0.3,0.7,0.2,1.5-0.3,2.1c-0.7,0.7-1.8,0.7-2.5,0s-0.7-1.8,0-2.5c0.6-0.6,1.4-0.7,2.1-0.3
		c0,0,0-0.1,0.1-0.1l3.5-3.5c0.2-0.2,0.6-0.2,0.8,0C33.3,20,33.3,20.4,33,20.6z"/>
	<path fill="#F7A93B" d="M30.8,34.3l-1.5-1.4c0,0-0.8-0.6-2.3-0.6c-1.2,0-2.5,0.4-3.9,1.1c0,0.7-0.2,1.3-0.5,1.9h8.8
		c0.5,0,0.9,0.4,0.9,0.9c0,0.5-0.4,0.9-0.9,0.9H5c-0.5,0-0.9-0.4-0.9-0.9c0-0.5,0.4-0.9,0.9-0.9h11.3c-0.8-1.4-0.6-3.2,0.6-4.4
		c0.7-0.7,1.6-1.1,2.6-1.1c0,0,0,0,0,0c2.2-4.2,0.5-6.2,0.5-6.2L18.5,22l1.6-1.2l10.6-8.2l-1.1-1.1H4c-1.9,0-3.5,1.6-3.5,3.5v24.1
		c0,1.9,1.6,3.5,3.5,3.5h30.7c1.9,0,3.5-1.6,3.5-3.5V24.7L30.8,34.3z M5,17.1h14.8c0.5,0,0.9,0.4,0.9,0.9c0,0.5-0.4,0.9-0.9,0.9H5
		c-0.5,0-0.9-0.4-0.9-0.9C4.1,17.5,4.5,17.1,5,17.1z M5,26.3h12.2c0.5,0,0.9,0.4,0.9,0.9s-0.4,0.9-0.9,0.9H5c-0.5,0-0.9-0.4-0.9-0.9
		S4.5,26.3,5,26.3z"/>
</g>
</svg>
