<?xml version="1.0" encoding="utf-8"?>
<!-- Generator: Adobe Illustrator 18.0.0, SVG Export Plug-In . SVG Version: 6.00 Build 0)  -->
<!DOCTYPE svg PUBLIC "-//W3C//DTD SVG 1.1//EN" "http://www.w3.org/Graphics/SVG/1.1/DTD/svg11.dtd">
<svg version="1.1" id="Layer_1" xmlns="http://www.w3.org/2000/svg" xmlns:xlink="http://www.w3.org/1999/xlink" x="0px" y="0px"
	 viewBox="0 0 48 48" enable-background="new 0 0 48 48" xml:space="preserve">
<g>
	<path fill="#F7A93B" d="M44.6,0.6c-7.6,2.6-23.4,9.8-31.7,27l3.6,3.8l3.8,3.6c17.2-8.2,24.4-24.1,27-31.7C48,1.7,46.3,0,44.6,0.6z
		 M22,27.6c-0.5,0.5-1.2,0.5-1.6,0c-0.5-0.5-0.5-1.2,0-1.6l9.9-9.9c0.5-0.5,1.2-0.5,1.6,0c0.5,0.5,0.5,1.2,0,1.6L22,27.6z"/>
	<path fill="#4DA0D8" d="M10.8,26.6c2-4.3,4.5-7.9,7.2-11.1l-4.4,0.3c-0.3,0-0.6,0.1-0.8,0.4L4,25c-0.8,0.8-0.2,2.1,0.9,2.1
		L10.8,26.6L10.8,26.6z"/>
	<path fill="#4DA0D8" d="M32.2,34.3l0.3-4.4c-3.2,2.7-6.8,5.2-11.1,7.2l-0.1,0L20.9,43c-0.1,1.1,1.3,1.7,2.1,0.9l8.9-8.9
		C32.1,34.9,32.2,34.6,32.2,34.3z"/>
	<g>
		<path fill="#F04B36" d="M1.5,38.3c-0.3,0-0.6-0.1-0.8-0.4c-0.3-0.4-0.2-1.1,0.2-1.4L11,29.3c0.4-0.3,1.1-0.2,1.4,0.2
			c0.3,0.4,0.2,1.1-0.2,1.4L2.1,38.1C1.9,38.2,1.7,38.3,1.5,38.3z"/>
	</g>
	<g>
		<path fill="#F04B36" d="M10.7,47.5c-0.2,0-0.4-0.1-0.6-0.2c-0.4-0.3-0.6-0.9-0.2-1.4l7.2-10.1c0.3-0.4,0.9-0.6,1.4-0.2
			c0.4,0.3,0.6,0.9,0.2,1.4l-7.2,10.1C11.3,47.4,11,47.5,10.7,47.5z"/>
	</g>
	<g>
		<path fill="#F04B36" d="M5.7,43.3c-0.3,0-0.5-0.1-0.7-0.3c-0.4-0.4-0.4-1,0-1.4l9-9c0.4-0.4,1-0.4,1.4,0c0.4,0.4,0.4,1,0,1.4l-9,9
			C6.2,43.2,6,43.3,5.7,43.3z"/>
	</g>
</g>
</svg>
