<?xml version="1.0" encoding="utf-8"?>
<!-- Generator: Adobe Illustrator 18.0.0, SVG Export Plug-In . SVG Version: 6.00 Build 0)  -->
<!DOCTYPE svg PUBLIC "-//W3C//DTD SVG 1.1//EN" "http://www.w3.org/Graphics/SVG/1.1/DTD/svg11.dtd">
<svg version="1.1" id="Layer_1" xmlns="http://www.w3.org/2000/svg" xmlns:xlink="http://www.w3.org/1999/xlink" x="0px" y="0px"
	 viewBox="0 0 48 48" enable-background="new 0 0 48 48" xml:space="preserve">
<g>
	<path fill="#F7A93B" d="M12.3,8.5c2.2,0,4-1.8,4-4c0-2.2-1.8-4-4-4c-2.2,0-4,1.8-4,4C8.3,6.7,10.1,8.5,12.3,8.5L12.3,8.5z
		 M12.3,8.5"/>
	<path fill="#394751" d="M3.2,37.3H14v-2.8H3.2V37.3z M3.2,37.3"/>
	<path fill="#394751" d="M6,47.5v-13H3.2v13H6z M6,47.5"/>
	<path fill="#394751" d="M14,47.5v-13h-2.8v13H14z M14,47.5"/>
	<path fill="#06728D" d="M39.3,17.5l5.5-9.8l-2.7-1l-4.7,7.8H28v3L39.3,17.5L39.3,17.5z M39.3,17.5"/>
	<polygon fill="#E77528" points="32.4,47.5 32.4,23.9 43,23.9 43,20.1 17.4,20.1 17.4,23.9 27.9,23.9 27.9,47.5 	"/>
	<path fill="#4DA0D8" d="M24.7,14.3c-0.1-0.1-0.2-0.1-0.3-0.1h-9.6c-0.6-2.1-2.6-3.7-4.9-3.7c-2.9,0-5.2,2.3-5.2,5.2V31h10.3l0,0
		h3.1l0,15.5c0,0.1,0,0.2,0.1,0.3c0.1,0.1,0.2,0.1,0.3,0.1l4.3,0c0.1,0,0.2,0,0.3-0.1c0.1-0.1,0.1-0.2,0.1-0.3l0-20.2
		c0-0.2-0.2-0.4-0.4-0.4h-7.8v-7.8l9.4,0c0.2,0,0.4-0.2,0.4-0.4l0-3C24.8,14.5,24.7,14.4,24.7,14.3z"/>
</g>
</svg>
