<?xml version="1.0" encoding="utf-8"?>
<!-- Generator: Adobe Illustrator 18.0.0, SVG Export Plug-In . SVG Version: 6.00 Build 0)  -->
<!DOCTYPE svg PUBLIC "-//W3C//DTD SVG 1.1//EN" "http://www.w3.org/Graphics/SVG/1.1/DTD/svg11.dtd">
<svg version="1.1" id="Layer_1" xmlns="http://www.w3.org/2000/svg" xmlns:xlink="http://www.w3.org/1999/xlink" x="0px" y="0px"
	 viewBox="0 0 48 48" enable-background="new 0 0 48 48" xml:space="preserve">
<g>
	<path fill="#0DB89A" d="M30.8,19.1h-3.6l-1.8,3.6h-2.8l-1.8-3.6h-3.5c-2.1,0-3.7,1.6-3.7,3.7v24.7h21.1V22.8
		C34.5,20.7,32.9,19.1,30.8,19.1z M24,41.6l-4.2-4.8L22.3,24h3.3l2.6,12.9L24,41.6z"/>
	<ellipse fill="#F7A93B" cx="24" cy="8.5" rx="8.1" ry="8"/>
	<g>
		<path fill="#0DB89A" d="M3.2,38c-0.7,0-1.3-0.2-1.8-0.7c-1.1-1-1.1-2.6-0.1-3.7l13.3-13.7c1-1,2.7-1.1,3.7-0.1
			c1.1,1,1.1,2.6,0.1,3.7L5.1,37.2C4.5,37.8,3.8,38,3.2,38z"/>
	</g>
	<g>
		<path fill="#0DB89A" d="M44.8,38c0.7,0,1.3-0.2,1.8-0.7c1.1-1,1.1-2.6,0.1-3.7L33.4,19.9c-1-1-2.7-1.1-3.7-0.1
			c-1.1,1-1.1,2.6-0.1,3.7l13.3,13.7C43.5,37.8,44.2,38,44.8,38z"/>
	</g>
</g>
</svg>
