<?xml version="1.0" encoding="utf-8"?>
<!-- Generator: Adobe Illustrator 18.0.0, SVG Export Plug-In . SVG Version: 6.00 Build 0)  -->
<!DOCTYPE svg PUBLIC "-//W3C//DTD SVG 1.1//EN" "http://www.w3.org/Graphics/SVG/1.1/DTD/svg11.dtd">
<svg version="1.1" id="Layer_1" xmlns="http://www.w3.org/2000/svg" xmlns:xlink="http://www.w3.org/1999/xlink" x="0px" y="0px"
	 viewBox="0 0 48 48" enable-background="new 0 0 48 48" xml:space="preserve">
<g>
	<g>
		<ellipse fill="#294E58" cx="9.2" cy="31.2" rx="2.8" ry="2.9"/>
	</g>
	<g>
		<path fill="#D57945" d="M9.2,34.4c-3.7,0-6.7,3-6.7,6.8h13.4C15.9,37.5,12.9,34.4,9.2,34.4z"/>
	</g>
	<g>
		<ellipse fill="#294E58" cx="24.2" cy="31.2" rx="2.8" ry="2.9"/>
	</g>
	<g>
		<path fill="#659C41" d="M24.2,34.4c-3.7,0-6.7,3-6.7,6.8H31C31,37.5,28,34.4,24.2,34.4z"/>
	</g>
	<g>
		<ellipse fill="#294E58" cx="39.3" cy="31.2" rx="2.8" ry="2.9"/>
	</g>
	<g>
		<path fill="#4DA0D8" d="M39.3,34.4c-3.7,0-6.7,3-6.7,6.8H46C46,37.5,43,34.4,39.3,34.4z"/>
	</g>
	<rect x="0.5" y="45.4" fill="#E77528" width="47" height="2.1"/>
	<path fill="#F04B36" d="M0.5,0.5v24.2h47V0.5H0.5z M24,20.1c-4.1,0-7.5-3.4-7.5-7.5s3.4-7.5,7.5-7.5c4.1,0,7.5,3.4,7.5,7.5
		S28.1,20.1,24,20.1z"/>
	<polygon fill="#0DB89A" points="22.5,7.7 22.5,17.5 27.4,12.6 	"/>
</g>
</svg>
