<?xml version="1.0" encoding="utf-8"?>
<!-- Generator: Adobe Illustrator 18.0.0, SVG Export Plug-In . SVG Version: 6.00 Build 0)  -->
<!DOCTYPE svg PUBLIC "-//W3C//DTD SVG 1.1//EN" "http://www.w3.org/Graphics/SVG/1.1/DTD/svg11.dtd">
<svg version="1.1" id="Layer_1" xmlns="http://www.w3.org/2000/svg" xmlns:xlink="http://www.w3.org/1999/xlink" x="0px" y="0px"
	 viewBox="0 0 48 48" enable-background="new 0 0 48 48" xml:space="preserve">
<g>
	<circle fill="#F7A93B" cx="24" cy="14.8" r="6.8"/>
	<path fill="#F04B36" d="M37.6,16.7c0.1-0.9,1-2.5,0.9-3.4c-0.1-0.9-1.3-2.3-1.7-3.1c-0.3-0.8-0.3-2.7-0.8-3.4
		c-0.5-0.7-2.2-1.4-2.9-2c-0.7-0.6-1.5-2.2-2.3-2.6C30,1.8,28.1,2,27.3,1.8c-0.9-0.2-2.4-1.3-3.3-1.3c-0.9,0-2.4,1.1-3.3,1.3
		c-0.9,0.2-2.7,0-3.5,0.4c-0.8,0.4-1.7,2-2.3,2.6c-0.6,0.6-2.4,1.2-2.9,2c-0.5,0.7-0.5,2.6-0.8,3.4c-0.3,0.8-1.5,2.2-1.7,3.1
		c-0.1,0.9,0.8,2.5,0.9,3.4c0.1,0.9-0.3,2.7,0,3.5c0.3,0.8,1.8,1.9,2.3,2.6c0.5,0.7,0.9,2.5,1.6,3.1c0.7,0.6,2.5,0.8,3.3,1.2
		c0.8,0.4,2,1.8,2.9,2c0.8,0.2,2.6-0.4,3.5-0.4c0.9,0,2.6,0.7,3.5,0.4c0.9-0.2,2.1-1.6,2.9-2c0.8-0.4,2.6-0.6,3.3-1.2
		c0.7-0.6,1.1-2.4,1.6-3.1c0.5-0.7,2-1.8,2.3-2.6C37.9,19.4,37.4,17.5,37.6,16.7z M24,24.6c-5.4,0-9.8-4.4-9.8-9.8
		c0-5.4,4.4-9.8,9.8-9.8c5.4,0,9.8,4.4,9.8,9.8C33.8,20.2,29.4,24.6,24,24.6z"/>
	<path fill="#0DB89A" d="M23.1,31.2c-0.7,0.1-1.4,0.3-2.2,0.3c-0.3,0-0.7,0-0.9-0.1c-1-0.2-1.9-1-2.7-1.6c-0.2-0.2-0.6-0.5-0.7-0.6
		c-0.1-0.1-0.6-0.2-0.9-0.3c-0.3-0.1-0.6-0.2-0.9-0.3L7.3,43.2l6.9-3.1l1.5,7.4L24,31.4l0-0.4C23.9,31,23.4,31.1,23.1,31.2z"/>
	<path fill="#0DB89A" d="M33.2,28.6c-0.3,0.1-0.6,0.2-0.9,0.3c-0.3,0.1-0.8,0.2-0.9,0.3c-0.1,0.1-0.5,0.4-0.7,0.6
		c-0.8,0.7-1.6,1.4-2.7,1.6c-0.3,0.1-0.6,0.1-0.9,0.1c0,0,0,0,0,0c-0.7,0-1.5-0.2-2.2-0.3C24.6,31.1,24.1,31,24,31l0,0.4l8.3,16.1
		l1.5-7.4l6.9,3.1L33.2,28.6z"/>
</g>
</svg>
