<?xml version="1.0" encoding="utf-8"?>
<!-- Generator: Adobe Illustrator 18.0.0, SVG Export Plug-In . SVG Version: 6.00 Build 0)  -->
<!DOCTYPE svg PUBLIC "-//W3C//DTD SVG 1.1//EN" "http://www.w3.org/Graphics/SVG/1.1/DTD/svg11.dtd">
<svg version="1.1" id="Layer_1" xmlns="http://www.w3.org/2000/svg" xmlns:xlink="http://www.w3.org/1999/xlink" x="0px" y="0px"
	 viewBox="0 0 48 48" enable-background="new 0 0 48 48" xml:space="preserve">
<g>
	<g>
		<path fill="#F04B36" d="M32.2,47.5c-0.7,0-1.2-0.5-1.2-1.2c-0.5-25.4,4-44.7,4.1-44.9c0.2-0.6,0.8-1,1.4-0.9
			c0.6,0.2,1,0.8,0.9,1.4c0,0.2-4.5,19.2-4,44.3C33.4,46.9,32.9,47.5,32.2,47.5C32.3,47.5,32.2,47.5,32.2,47.5z"/>
	</g>
	<g>
		<path fill="#F04B36" d="M11.7,47.5c-0.7,0-1.2-0.5-1.2-1.2V25.8c0-0.7,0.5-1.2,1.2-1.2h21.2c0.7,0,1.2,0.5,1.2,1.2
			c0,0.7-0.5,1.2-1.2,1.2h-20v19.3C12.9,47,12.4,47.5,11.7,47.5z"/>
	</g>
	<g>
		<g>
			<path fill="#F04B36" d="M11.7,32.2c-0.7,0-1.2-0.4-1.2-1V14c0-0.6,0.5-1,1.2-1c0.7,0,1.2,0.4,1.2,1v17.1
				C12.9,31.7,12.4,32.2,11.7,32.2z"/>
		</g>
	</g>
	<g>
		<path fill="#E77528" d="M10.5,15.4H27c0.3,0,0.6-0.1,0.8-0.4c0.2-0.2,0.2-0.6,0.2-0.8L27,11.1c-0.1-0.4-0.5-0.7-0.9-0.7H13.2
			c-0.3,0-0.6,0.2-0.8,0.4l-1.7,2.6"/>
	</g>
	<g>
		<path fill="#F04B36" d="M32.2,42.2H11.7c-0.7,0-1.2-0.5-1.2-1.2s0.5-1.2,1.2-1.2h20.5c0.7,0,1.2,0.5,1.2,1.2S32.9,42.2,32.2,42.2z
			"/>
	</g>
</g>
</svg>
