<?xml version="1.0" encoding="utf-8"?>
<!-- Generator: Adobe Illustrator 18.0.0, SVG Export Plug-In . SVG Version: 6.00 Build 0)  -->
<!DOCTYPE svg PUBLIC "-//W3C//DTD SVG 1.1//EN" "http://www.w3.org/Graphics/SVG/1.1/DTD/svg11.dtd">
<svg version="1.1" id="Layer_1" xmlns="http://www.w3.org/2000/svg" xmlns:xlink="http://www.w3.org/1999/xlink" x="0px" y="0px"
	 viewBox="0 0 48 48" enable-background="new 0 0 48 48" xml:space="preserve">
<g>
	<polygon fill="#F04B36" points="18.7,24.2 0.6,34.7 1.4,46.4 13.1,47.5 23.7,29.2 	"/>
	<path fill="#F7A93B" d="M22.7,0.5c-0.1,1.4-0.1,2.8-0.2,4.3C22.4,4.9,22.4,5,22.4,5l-0.3,8.2l5,0.6l0.4-7.7
		c6.8,2,12.2,7.4,14.3,14.2l-7.6,0.4l0.7,5l7.8-0.3c0,0,0,0,0,0c1.6-0.1,3.1-0.1,4.7-0.2C46.8,11.8,36.1,1.1,22.7,0.5z"/>
	<polygon fill="#F04B36" points="20.5,23 24.8,27.3 32.9,25.7 32.2,20.9 27.2,15.9 22.1,15.2 	"/>
</g>
</svg>
