<?xml version="1.0" encoding="utf-8"?>
<!-- Generator: Adobe Illustrator 18.0.0, SVG Export Plug-In . SVG Version: 6.00 Build 0)  -->
<!DOCTYPE svg PUBLIC "-//W3C//DTD SVG 1.1//EN" "http://www.w3.org/Graphics/SVG/1.1/DTD/svg11.dtd">
<svg version="1.1" id="Layer_1" xmlns="http://www.w3.org/2000/svg" xmlns:xlink="http://www.w3.org/1999/xlink" x="0px" y="0px"
	 viewBox="0 0 48 48" enable-background="new 0 0 48 48" xml:space="preserve">
<g>
	<path fill="#4DA0D8" d="M38,0.5H10.4c-1.8,0-3.3,1.7-3.3,3.7v16.4c0,2,1.5,3.7,3.3,3.7H38c1.8,0,3.3-1.7,3.3-3.7V4.2
		C41.3,2.2,39.8,0.5,38,0.5z"/>
	<path fill="#06728D" d="M45.7,46.2l-6-19.5c-0.1-0.4-0.5-0.6-0.9-0.6H9.1c-0.4,0-0.7,0.3-0.9,0.6l-6,19.7c-0.1,0.3,0,0.6,0.1,0.8
		c0.2,0.2,0.4,0.4,0.7,0.4h41.8c0,0,0,0,0,0c0.5,0,0.9-0.4,0.9-0.9C45.8,46.4,45.7,46.3,45.7,46.2z M12.6,42.2h-2.5
		c-0.5,0-0.9-0.4-0.9-0.9s0.4-0.9,0.9-0.9h2.5c0.5,0,0.9,0.4,0.9,0.9S13.1,42.2,12.6,42.2z M13.6,37.7h-2.3c-0.5,0-0.9-0.4-0.9-0.9
		c0-0.5,0.4-0.9,0.9-0.9h2.3c0.5,0,0.9,0.4,0.9,0.9C14.5,37.2,14.1,37.7,13.6,37.7z M15,33.1h-2c-0.5,0-0.9-0.4-0.9-0.9
		c0-0.5,0.4-0.9,0.9-0.9h2c0.5,0,0.9,0.4,0.9,0.9C15.9,32.7,15.5,33.1,15,33.1z M21,42.2h-2.5c-0.5,0-0.9-0.4-0.9-0.9
		s0.4-0.9,0.9-0.9H21c0.5,0,0.9,0.4,0.9,0.9S21.5,42.2,21,42.2z M21.3,37.7H19c-0.5,0-0.9-0.4-0.9-0.9c0-0.5,0.4-0.9,0.9-0.9h2.3
		c0.5,0,0.9,0.4,0.9,0.9C22.2,37.2,21.8,37.7,21.3,37.7z M21.7,33.1h-2c-0.5,0-0.9-0.4-0.9-0.9c0-0.5,0.4-0.9,0.9-0.9h2
		c0.5,0,0.9,0.4,0.9,0.9C22.5,32.7,22.1,33.1,21.7,33.1z M25.4,32.2c0-0.5,0.4-0.9,0.9-0.9h2c0.5,0,0.9,0.4,0.9,0.9
		c0,0.5-0.4,0.9-0.9,0.9h-2C25.8,33.1,25.4,32.7,25.4,32.2z M25.8,36.8c0-0.5,0.4-0.9,0.9-0.9H29c0.5,0,0.9,0.4,0.9,0.9
		c0,0.5-0.4,0.9-0.9,0.9h-2.3C26.2,37.7,25.8,37.2,25.8,36.8z M29.5,42.2H27c-0.5,0-0.9-0.4-0.9-0.9s0.4-0.9,0.9-0.9h2.5
		c0.5,0,0.9,0.4,0.9,0.9S30,42.2,29.5,42.2z M32.1,32.2c0-0.5,0.4-0.9,0.9-0.9h2c0.5,0,0.9,0.4,0.9,0.9c0,0.5-0.4,0.9-0.9,0.9h-2
		C32.5,33.1,32.1,32.7,32.1,32.2z M33.5,36.8c0-0.5,0.4-0.9,0.9-0.9h2.3c0.5,0,0.9,0.4,0.9,0.9c0,0.5-0.4,0.9-0.9,0.9h-2.3
		C33.9,37.7,33.5,37.2,33.5,36.8z M37.9,42.2h-2.5c-0.5,0-0.9-0.4-0.9-0.9s0.4-0.9,0.9-0.9h2.5c0.5,0,0.9,0.4,0.9,0.9
		S38.4,42.2,37.9,42.2z"/>
</g>
</svg>
