<?xml version="1.0" encoding="utf-8"?>
<!-- Generator: Adobe Illustrator 18.0.0, SVG Export Plug-In . SVG Version: 6.00 Build 0)  -->
<!DOCTYPE svg PUBLIC "-//W3C//DTD SVG 1.1//EN" "http://www.w3.org/Graphics/SVG/1.1/DTD/svg11.dtd">
<svg version="1.1" id="Layer_1" xmlns="http://www.w3.org/2000/svg" xmlns:xlink="http://www.w3.org/1999/xlink" x="0px" y="0px"
	 viewBox="0 0 48 48" enable-background="new 0 0 48 48" xml:space="preserve">
<g>
	<path fill="#0DB89A" d="M38,2.5C37,3,36,3.6,34.9,4c-1.3,0.4-2.7,0.2-4.1,0.5c-1.7,0.3-3.3,1.3-4.4,2.7c-0.9,1.1-1.6,2.5-2.7,3.3
		c-0.7,0.4-1.5,0.6-2.3,0.9c-2.1,0.8-3.9,2.5-4.9,4.7c-0.5,1-0.8,2.1-1.4,3c-0.9,1.3-2.5,1.8-3.5,3c-1.1,1.1-1.6,2.7-2.1,4.3
		c-1,3.1-2,6.4-1.7,9.6c-0.9,0.8-1.7,1.7-1.9,1.9c-1.5,1.8-2.9,3.8-4.2,5.8c-0.5,0.7-0.3,1.8,0.4,2.3c0.3,0.2,0.6,0.3,0.9,0.3
		c0.5,0,0.9-0.2,1.2-0.7c1.2-1.9,2.6-3.8,4-5.5c0.8-0.9,1.6-1.8,2.5-2.6c0.2-0.1,0.3-0.1,0.5-0.2c2.4-1.1,5.1-0.9,7.6-1.9
		c0.8-0.4,1.7-1,1.9-1.9c0.1-0.6,0-1.2,0.1-1.7c0.3-1.1,1.6-1.4,2.6-1.9c0.5-0.2,0.9-0.6,1.3-1c0.5-0.5,0.8-1.2,0.8-1.9
		c-0.1-0.7-0.8-1.3-1.4-1.1c1.1-0.7,2.2-1.4,3.3-2c0.6-0.4,1.2-0.7,1.6-1.3c0.4-0.6,0.6-1.4,0.2-2c-0.1-0.2-0.2-0.4-0.2-0.5
		c0.1-0.1,0.2-0.2,0.3-0.3c2.8-1.1,5.7-2.2,8.5-3.3c1.5-0.6,3.3-1.4,3.8-3.1c-0.4-0.1-0.9-0.2-1.3-0.3c1.6-3.5,3.5-6.9,5.7-10
		C46,2.5,46,2.4,46.7,1.7C42.2-0.1,40.8,1.1,38,2.5z"/>
	<path fill="#06728D" d="M46.5,47.2h-45c-0.5,0-1-0.4-1-1c0-0.5,0.4-1,1-1h45c0.5,0,1,0.4,1,1C47.5,46.8,47.1,47.2,46.5,47.2z"/>
</g>
</svg>
