<?xml version="1.0" encoding="utf-8"?>
<!-- Generator: Adobe Illustrator 18.0.0, SVG Export Plug-In . SVG Version: 6.00 Build 0)  -->
<!DOCTYPE svg PUBLIC "-//W3C//DTD SVG 1.1//EN" "http://www.w3.org/Graphics/SVG/1.1/DTD/svg11.dtd">
<svg version="1.1" id="Layer_1" xmlns="http://www.w3.org/2000/svg" xmlns:xlink="http://www.w3.org/1999/xlink" x="0px" y="0px"
	 viewBox="0 0 48 48" enable-background="new 0 0 48 48" xml:space="preserve">
<g>
	<g>
		<path fill="#06728D" d="M37,47.5c-6.9,0-16-4.5-24-12.5C7.5,29.5,3.5,23.3,1.6,17.4C-0.3,11.3,0.3,6.3,3.3,3.3
			C6.5,0,12.2-0.4,18.8,2.1c0.5,0.2,0.7,0.7,0.6,1.2c-0.2,0.5-0.7,0.7-1.2,0.6C12.3,1.7,7.3,1.9,4.6,4.6c-2.5,2.5-2.9,6.8-1.2,12.2
			c1.8,5.6,5.7,11.6,10.9,16.8c10.7,10.7,23.7,15,29,9.7c2.5-2.5,2.9-6.8,1.2-12.2c-1.8-5.6-5.7-11.6-10.9-16.8
			c-3.6-3.6-7.6-6.6-11.6-8.7c-0.5-0.2-0.6-0.8-0.4-1.3C21.9,3.9,22.5,3.7,23,4c4.2,2.2,8.3,5.3,12,9c5.5,5.5,9.5,11.7,11.4,17.6
			c1.9,6.1,1.4,11.1-1.7,14.1C42.8,46.6,40.1,47.5,37,47.5z"/>
	</g>
	<g>
		<path fill="#06728D" d="M32,41.6c-0.1,0-0.1,0-0.2,0c-5-0.9-11-4.4-16-9.4C7,23.3,3.6,12.8,8.2,8.2c4.6-4.6,15.1-1.3,24,7.6
			c4.1,4.1,7.2,8.9,8.7,13.3c1.6,4.6,1.2,8.4-1.1,10.7c-0.6,0.6-1.3,1.1-2.2,1.4c-0.5,0.2-1,0-1.2-0.5c-0.2-0.5,0-1,0.5-1.2
			c0.6-0.2,1.1-0.6,1.6-1c3.7-3.7,0.2-13.5-7.6-21.3C23,9.3,13.3,5.8,9.5,9.5C5.8,13.2,9.3,23,17.1,30.8c4.8,4.7,10.4,8.1,15,8.9
			c0.5,0.1,0.9,0.6,0.8,1.1C32.8,41.3,32.4,41.6,32,41.6z"/>
	</g>
	<g>
		<path fill="#06728D" d="M31.3,35.7c-3.4,0-8.1-2.4-12.3-6.7c-2.1-2.1-3.8-4.3-5-6.6c-0.2-0.5-0.1-1,0.4-1.3c0.5-0.2,1-0.1,1.3,0.4
			c1.1,2.1,2.7,4.2,4.7,6.1c5.4,5.4,11.1,7.3,12.9,5.5c1.7-1.7-0.1-7.4-5.5-12.9c-5.4-5.4-11.1-7.3-12.9-5.5
			c-0.7,0.7-0.7,1.8-0.6,2.6c0.1,0.5-0.3,1-0.8,1.1c-0.5,0.1-1-0.3-1.1-0.8c-0.2-1.8,0.2-3.3,1.1-4.2c2.8-2.8,9.6-0.4,15.5,5.5
			c5.9,5.9,8.3,12.7,5.5,15.5C33.7,35.3,32.6,35.7,31.3,35.7z"/>
	</g>
	<path fill="#294E58" d="M26.5,21.5c-0.7-0.7-1.7-1.1-2.7-1.1c-0.9,0-1.8,0.4-2.4,1c-1.4,1.4-1.3,3.6,0.1,5.1
		c0.7,0.7,1.7,1.1,2.7,1.1c0.9,0,1.8-0.4,2.4-1c0.7-0.7,1-1.6,1-2.6C27.6,23.1,27.2,22.2,26.5,21.5z"/>
	<path fill="#E77528" d="M36.8,38.4c-1.2-1.2-3.2-1.2-4.3-0.1c-0.6,0.6-0.9,1.3-0.8,2.1c0,0.8,0.4,1.5,0.9,2.1
		c0.6,0.6,1.4,0.9,2.2,0.9c0.8,0,1.5-0.3,2-0.8c0.6-0.6,0.9-1.3,0.8-2.1C37.7,39.8,37.3,39,36.8,38.4z"/>
	<path fill="#F04B36" d="M22.4,1.4c-1.2-1.2-3.2-1.2-4.3-0.1c-0.6,0.6-0.9,1.3-0.8,2.1c0,0.8,0.4,1.5,0.9,2.1
		c0.6,0.6,1.4,0.9,2.2,0.9c0.8,0,1.5-0.3,2-0.8C23.7,4.5,23.6,2.6,22.4,1.4z"/>
	<path fill="#0DB89A" d="M16.1,17.8c-0.9-0.9-2.4-1.2-3.5-0.6c-0.3,0.1-0.5,0.3-0.7,0.5C11.3,18.3,11,19,11,19.8
		c0,0.8,0.4,1.5,0.9,2.1c0.6,0.6,1.4,0.9,2.2,0.9c0.3,0,0.5,0,0.8-0.1c0.5-0.1,0.9-0.4,1.2-0.7C17.4,20.9,17.3,19,16.1,17.8z"/>
</g>
</svg>
