<?xml version="1.0" encoding="utf-8"?>
<!-- Generator: Adobe Illustrator 18.0.0, SVG Export Plug-In . SVG Version: 6.00 Build 0)  -->
<!DOCTYPE svg PUBLIC "-//W3C//DTD SVG 1.1//EN" "http://www.w3.org/Graphics/SVG/1.1/DTD/svg11.dtd">
<svg version="1.1" id="Layer_1" xmlns="http://www.w3.org/2000/svg" xmlns:xlink="http://www.w3.org/1999/xlink" x="0px" y="0px"
	 viewBox="0 0 48 48" enable-background="new 0 0 48 48" xml:space="preserve">
<g>
	<path fill="#F7A93B" d="M17.2,14.6c2.8,0,5,2.3,5,5c0,0.3,0.1,0.7,0.3,0.9l1.3,0.3h15l3.6-13.5L15.1,0.5l-3.8,14.1H17.2z M17.3,7.1
		c0.1-0.4,0.5-0.6,0.9-0.5l18.4,4.6c0.4,0.1,0.7,0.5,0.5,0.9c-0.1,0.4-0.5,0.6-0.9,0.5L17.9,8C17.5,7.9,17.2,7.5,17.3,7.1z
		 M15.7,13.2c0.1-0.4,0.5-0.6,0.9-0.5l18.4,4.6c0.4,0.1,0.7,0.5,0.5,0.9c-0.1,0.4-0.5,0.6-0.9,0.5L16.3,14
		C15.9,13.9,15.6,13.5,15.7,13.2z"/>
	<path fill="#4DA0D8" d="M47,25.9c0-1.7-1.4-3.1-3-3.1H23.2c-1.7,0-3-1.4-3-3.1c0-1.7-1.4-3.1-3-3.1H4c-1.7,0-3,1.4-3,3.1v6.8v1.3
		v17.1c0,1.5,1.3,2.7,2.8,2.7h40.3c1.6,0,2.8-1.2,2.8-2.7V26.4c0,0,0,0,0,0h0V25.9z"/>
</g>
</svg>
