<?xml version="1.0" encoding="utf-8"?>
<!-- Generator: Adobe Illustrator 18.0.0, SVG Export Plug-In . SVG Version: 6.00 Build 0)  -->
<!DOCTYPE svg PUBLIC "-//W3C//DTD SVG 1.1//EN" "http://www.w3.org/Graphics/SVG/1.1/DTD/svg11.dtd">
<svg version="1.1" id="Layer_1" xmlns="http://www.w3.org/2000/svg" xmlns:xlink="http://www.w3.org/1999/xlink" x="0px" y="0px"
	 viewBox="0 0 48 48" enable-background="new 0 0 48 48" xml:space="preserve">
<g>
	<g>
		<path fill="#06728D" d="M15.9,47.5c-1,0-1.9-0.2-2.7-0.7c-5.4-3.1-4.9-15.5,1.1-28.2c5-10.6,12.4-18,17.8-18c1,0,1.9,0.2,2.7,0.7
			c5.4,3.1,4.9,15.5-1.1,28.2C28.7,40.1,21.4,47.5,15.9,47.5z M32.1,2.5c-4.7,0-11.4,7.1-16.1,16.9c-6,12.6-5.8,23.5-1.9,25.7
			c0.5,0.3,1.1,0.4,1.8,0.4c4.7,0,11.4-7.1,16.1-16.9c6-12.6,5.8-23.5,1.9-25.7C33.4,2.6,32.8,2.5,32.1,2.5z"/>
	</g>
	<g>
		<path fill="#06728D" d="M32.1,47.5L32.1,47.5c-5.5,0-12.8-7.4-17.8-18c-6-12.8-6.5-25.2-1.1-28.2c0.8-0.5,1.7-0.7,2.7-0.7
			c5.5,0,12.8,7.4,17.8,18c6,12.8,6.5,25.2,1.1,28.2C34,47.3,33.1,47.5,32.1,47.5z M15.9,2.5c-0.6,0-1.2,0.2-1.8,0.4
			c-3.9,2.2-4,13.1,1.9,25.7c4.6,9.8,11.4,16.9,16.1,16.9h0c0.6,0,1.2-0.2,1.8-0.4c3.9-2.2,4-13.1-1.9-25.7
			C27.3,9.6,20.6,2.5,15.9,2.5z"/>
	</g>
	<g>
		<path fill="#06728D" d="M24,35.9C10.8,35.9,0.5,30.7,0.5,24c0-6.7,10.3-11.9,23.5-11.9c13.2,0,23.5,5.2,23.5,11.9
			C47.5,30.7,37.2,35.9,24,35.9z M24,14C12.3,14,2.5,18.6,2.5,24c0,5.4,9.9,10,21.5,10c11.7,0,21.5-4.6,21.5-10
			C45.5,18.6,35.7,14,24,14z"/>
	</g>
	<circle fill="#E77528" cx="42.8" cy="17.6" r="3.3"/>
	<circle fill="#294E58" cx="24" cy="24" r="6.1"/>
	<circle fill="#F04B36" cx="9.7" cy="9" r="3.3"/>
	<circle fill="#0DB89A" cx="37.4" cy="39.6" r="3.3"/>
</g>
</svg>
