<?xml version="1.0" encoding="utf-8"?>
<!-- Generator: Adobe Illustrator 18.0.0, SVG Export Plug-In . SVG Version: 6.00 Build 0)  -->
<!DOCTYPE svg PUBLIC "-//W3C//DTD SVG 1.1//EN" "http://www.w3.org/Graphics/SVG/1.1/DTD/svg11.dtd">
<svg version="1.1" id="Layer_1" xmlns="http://www.w3.org/2000/svg" xmlns:xlink="http://www.w3.org/1999/xlink" x="0px" y="0px"
	 viewBox="0 0 48 48" enable-background="new 0 0 48 48" xml:space="preserve">
<g>
	<g>
		<ellipse fill="#F7A93B" cx="9.2" cy="27.3" rx="2.8" ry="2.9"/>
	</g>
	<g>
		<path fill="#74BDAF" d="M9.2,30.5c-3.7,0-6.7,3-6.7,6.7h13.4C15.9,33.6,12.9,30.5,9.2,30.5z"/>
	</g>
	<g>
		<ellipse fill="#F7A93B" cx="24.2" cy="27.3" rx="2.8" ry="2.9"/>
	</g>
	<g>
		<path fill="#89AA47" d="M24.2,30.5c-3.7,0-6.7,3-6.7,6.7H31C31,33.6,28,30.5,24.2,30.5z"/>
	</g>
	<g>
		<ellipse fill="#F7A93B" cx="24" cy="11.5" rx="2.8" ry="2.9"/>
	</g>
	<g>
		<path fill="#BF6C30" d="M24,14.7c-3.7,0-6.7,3-6.7,6.7h13.4C30.7,17.7,27.7,14.7,24,14.7z"/>
	</g>
	<g>
		<ellipse fill="#F7A93B" cx="39.3" cy="27.3" rx="2.8" ry="2.9"/>
	</g>
	<g>
		<path fill="#CC3736" d="M39.3,30.5c-3.7,0-6.7,3-6.7,6.7H46C46,33.6,43,30.5,39.3,30.5z"/>
	</g>
	<rect x="0.5" y="41.4" fill="#06728D" width="47" height="2.1"/>
	<polygon fill="#F7A93B" points="17.2,13.9 15,13.9 15,18.4 12,14 1.1,13.9 1.1,4.5 17.2,4.5 	"/>
</g>
</svg>
