<?xml version="1.0" encoding="utf-8"?>
<!-- Generator: Adobe Illustrator 18.0.0, SVG Export Plug-In . SVG Version: 6.00 Build 0)  -->
<!DOCTYPE svg PUBLIC "-//W3C//DTD SVG 1.1//EN" "http://www.w3.org/Graphics/SVG/1.1/DTD/svg11.dtd">
<svg version="1.1" id="Layer_1" xmlns="http://www.w3.org/2000/svg" xmlns:xlink="http://www.w3.org/1999/xlink" x="0px" y="0px"
	 viewBox="0 0 48 48" enable-background="new 0 0 48 48" xml:space="preserve">
<g>
	<path fill="#4DA0D8" d="M46.5,20.6h-45c-0.5,0-1-0.4-1-1c0-0.5,0.4-1,1-1h45c0.5,0,1,0.4,1,1C47.5,20.1,47.1,20.6,46.5,20.6z"/>
	<path fill="#4DA0D8" d="M46.5,35.2h-45c-0.5,0-1-0.4-1-1c0-0.5,0.4-1,1-1h45c0.5,0,1,0.4,1,1C47.5,34.8,47.1,35.2,46.5,35.2z"/>
	<path fill="#F7A93B" d="M12.6,14.2c2.1,0,3.7,0.4,4.9,1.3c1.2,0.9,1.7,2.2,1.7,3.9c0,1-0.3,1.9-0.9,2.7c-0.6,0.8-1.4,1.3-2.4,1.6
		c1.2,0.2,2.2,0.8,3,1.7c0.8,0.9,1.1,2,1.1,3.2c0,1.8-0.6,3.2-1.7,4.1c-1.2,1-2.7,1.4-4.6,1.4H4.5V33l2.2-0.2V15.6l-2.2-0.2v-1.2
		h2.2H12.6z M8.4,23.2H13c1.4,0,2.6-0.3,3.4-1c0.8-0.6,1.2-1.6,1.2-2.8c0-1.3-0.4-2.2-1.3-2.8c-0.8-0.6-2.1-1-3.7-1H8.4V23.2z
		 M8.4,24.6v8.2h5.3c1.5,0,2.6-0.4,3.5-1.1c0.8-0.7,1.3-1.7,1.3-3.1c0-1.2-0.4-2.2-1.1-3c-0.8-0.8-1.9-1.2-3.3-1.2H8.4z"/>
	<path fill="#F04B36" d="M38.6,27.2c0,2.2-0.5,4-1.5,5.3c-1,1.3-2.4,2-4.2,2c-1.1,0-2-0.2-2.8-0.7c-0.8-0.4-1.4-1.1-1.9-1.9L28,34.2
		h-1.4v-20L24.4,14v-1.2h3.9v8.9c0.5-0.8,1.1-1.5,1.9-1.9c0.8-0.5,1.7-0.7,2.7-0.7c1.8,0,3.2,0.7,4.2,2.1c1,1.4,1.5,3.3,1.5,5.7
		V27.2z M36.9,26.9c0-1.9-0.4-3.4-1.1-4.6c-0.7-1.2-1.8-1.8-3.2-1.8c-1.2,0-2.1,0.3-2.8,0.9c-0.7,0.6-1.2,1.3-1.6,2.2v6.7
		c0.4,0.9,0.9,1.5,1.6,2.1c0.7,0.5,1.6,0.8,2.7,0.8c1.4,0,2.5-0.5,3.2-1.6c0.7-1.1,1.1-2.5,1.1-4.3V26.9z"/>
</g>
</svg>
