<?xml version="1.0" encoding="utf-8"?>
<!-- Generator: Adobe Illustrator 18.0.0, SVG Export Plug-In . SVG Version: 6.00 Build 0)  -->
<!DOCTYPE svg PUBLIC "-//W3C//DTD SVG 1.1//EN" "http://www.w3.org/Graphics/SVG/1.1/DTD/svg11.dtd">
<svg version="1.1" id="Layer_1" xmlns="http://www.w3.org/2000/svg" xmlns:xlink="http://www.w3.org/1999/xlink" x="0px" y="0px"
	 viewBox="0 0 48 48" enable-background="new 0 0 48 48" xml:space="preserve">
<g>
	<path fill="#0DB89A" d="M24,0.5C11,0.5,0.5,11,0.5,24C0.5,37,11,47.5,24,47.5C37,47.5,47.5,37,47.5,24C47.5,11,37,0.5,24,0.5z
		 M15.5,24c0-4.7,3.8-8.5,8.5-8.5c4.7,0,8.5,3.8,8.5,8.5s-3.8,8.5-8.5,8.5C19.3,32.5,15.5,28.7,15.5,24z M25.2,43.7
		c-0.1,0-0.1,0-0.2,0c-0.5,0-0.9-0.3-1-0.8c-0.1-0.6,0.2-1.1,0.8-1.2c16.3-3.4,16.5-20.1,16.5-20.8c0-0.6,0.5-1,1-1h0
		c0.6,0,1,0.5,1,1C43.3,21.1,43.1,40,25.2,43.7z"/>
	<circle fill="#F04B36" cx="24" cy="24" r="6.1"/>
</g>
</svg>
