<?xml version="1.0" encoding="utf-8"?>
<!-- Generator: Adobe Illustrator 18.0.0, SVG Export Plug-In . SVG Version: 6.00 Build 0)  -->
<!DOCTYPE svg PUBLIC "-//W3C//DTD SVG 1.1//EN" "http://www.w3.org/Graphics/SVG/1.1/DTD/svg11.dtd">
<svg version="1.1" id="Layer_1" xmlns="http://www.w3.org/2000/svg" xmlns:xlink="http://www.w3.org/1999/xlink" x="0px" y="0px"
	 viewBox="0 0 48 48" enable-background="new 0 0 48 48" xml:space="preserve">
<g>
	<path fill="#F7A93B" d="M39.5,0.5h-31c-2,0-3.7,1.7-3.7,3.7v39.6c0,2,1.7,3.7,3.7,3.7h31c2,0,3.7-1.7,3.7-3.7V4.2
		C43.2,2.2,41.6,0.5,39.5,0.5z M16.8,42.4H8.9v-8.5h7.9V42.4z M16.8,28.3H8.9v-8.5h7.9V28.3z M16.8,14.1H8.9V5.6h7.9V14.1z
		 M39.1,41.7H21c-0.6,0-1-0.5-1-1c0-0.6,0.5-1,1-1h18.1c0.6,0,1,0.5,1,1C40.1,41.2,39.6,41.7,39.1,41.7z M39.1,36.7H21
		c-0.6,0-1-0.5-1-1c0-0.6,0.5-1,1-1h18.1c0.6,0,1,0.5,1,1C40.1,36.2,39.6,36.7,39.1,36.7z M39.1,27.5H21c-0.6,0-1-0.5-1-1
		c0-0.6,0.5-1,1-1h18.1c0.6,0,1,0.5,1,1C40.1,27.1,39.6,27.5,39.1,27.5z M39.1,22.5H21c-0.6,0-1-0.5-1-1c0-0.6,0.5-1,1-1h18.1
		c0.6,0,1,0.5,1,1C40.1,22.1,39.6,22.5,39.1,22.5z M39.1,13.3H21c-0.6,0-1-0.5-1-1c0-0.6,0.5-1,1-1h18.1c0.6,0,1,0.5,1,1
		C40.1,12.9,39.6,13.3,39.1,13.3z M39.1,8.4H21c-0.6,0-1-0.5-1-1c0-0.6,0.5-1,1-1h18.1c0.6,0,1,0.5,1,1C40.1,7.9,39.6,8.4,39.1,8.4z
		"/>
</g>
</svg>
