<?xml version="1.0" encoding="utf-8"?>
<!-- Generator: Adobe Illustrator 18.0.0, SVG Export Plug-In . SVG Version: 6.00 Build 0)  -->
<!DOCTYPE svg PUBLIC "-//W3C//DTD SVG 1.1//EN" "http://www.w3.org/Graphics/SVG/1.1/DTD/svg11.dtd">
<svg version="1.1" id="Layer_1" xmlns="http://www.w3.org/2000/svg" xmlns:xlink="http://www.w3.org/1999/xlink" x="0px" y="0px"
	 viewBox="0 0 48 48" enable-background="new 0 0 48 48" xml:space="preserve">
<g>
	<path fill="#0DB89A" d="M33,47.5C33,47.5,32.9,47.5,33,47.5c-0.7,0-1.2-0.4-1.4-1l-4.4-15.2l2.7-0.8l3.3,11.3l2.5-6.1
		c0.3-0.6,0.9-1,1.6-0.9l5.6,1l-7.5-10.2l2.3-1.7l9.7,13.1c0.3,0.5,0.4,1.1,0.1,1.6c-0.3,0.5-0.9,0.8-1.5,0.7l-8-1.4l-3.6,8.8
		C34.1,47.1,33.6,47.5,33,47.5z"/>
	<path fill="#0DB89A" d="M13.9,45.8c-0.1,0-0.1,0-0.2,0c-0.6-0.1-1.1-0.5-1.2-1.1l-1.9-8.5l-8.7-0.3c-0.6,0-1.1-0.4-1.3-0.9
		c-0.2-0.6,0-1.2,0.4-1.6l10.8-9.8l1.9,2.1l-8.2,7.4l6.3,0.2c0.7,0,1.2,0.5,1.3,1.1l1.3,5.8l5-9.7l2.5,1.3L15.1,45
		C14.9,45.5,14.4,45.8,13.9,45.8z"/>
	<path fill="#CFD0D1" d="M24.7,9.8c-3.5,0-6.4,2.8-6.4,6.3c0,3.5,2.9,6.3,6.4,6.3c3.5,0,6.4-2.8,6.4-6.3
		C31.1,12.7,28.2,9.8,24.7,9.8z"/>
	<path fill="#F04B36" d="M40,16.9c0.3-0.9,0.6-1.8,0.5-2.5c-0.1-0.7-0.6-1.5-1.1-2.3c-0.3-0.4-0.5-0.8-0.6-1.1
		c-0.1-0.2-0.2-0.7-0.2-1.2c-0.1-0.9-0.3-1.9-0.7-2.5c-0.4-0.6-1.3-1.1-2.1-1.5c-0.4-0.2-0.9-0.5-1.1-0.7c-0.2-0.2-0.5-0.6-0.8-1
		c-0.5-0.7-1.1-1.5-1.8-1.9c-0.7-0.3-1.6-0.4-2.6-0.4c-0.5,0-1,0-1.3-0.1c-0.3-0.1-0.7-0.3-1.2-0.5c-0.8-0.4-1.7-0.8-2.4-0.8
		c-0.7,0-1.5,0.4-2.3,0.8c-0.4,0.2-1,0.5-1.2,0.5c-0.3,0-0.7,0.1-1.2,0.1c-1,0-2,0.1-2.7,0.4c-0.7,0.4-1.3,1.2-1.9,2
		c-0.3,0.4-0.5,0.7-0.7,0.9c-0.2,0.2-0.7,0.5-1.1,0.7c-0.8,0.4-1.6,0.9-2,1.5c-0.4,0.6-0.6,1.6-0.7,2.5c-0.1,0.5-0.1,1-0.2,1.2
		c-0.1,0.2-0.4,0.7-0.6,1.1c-0.5,0.8-1,1.6-1.1,2.3c-0.1,0.8,0.2,1.7,0.5,2.5c0.2,0.4,0.3,0.9,0.4,1.2c0,0.3,0,0.8-0.1,1.2
		c-0.1,0.9-0.2,1.9,0.1,2.6c0.3,0.7,1,1.4,1.7,2c0.4,0.3,0.7,0.7,0.9,0.9c0.2,0.2,0.3,0.7,0.5,1.1c0.4,0.9,0.7,1.7,1.3,2.2
		c0.6,0.5,1.5,0.7,2.4,1c0.5,0.1,1,0.3,1.2,0.4c0.2,0.1,0.6,0.4,1,0.8c0.7,0.6,1.4,1.2,2.2,1.4c0.7,0.2,1.7,0,2.6-0.2
		c0.5-0.1,1-0.2,1.2-0.2s0.8,0.1,1.2,0.2c0.7,0.1,1.3,0.3,1.9,0.3c0.2,0,0.4,0,0.6-0.1c0.7-0.2,1.5-0.8,2.2-1.4
		c0.4-0.3,0.8-0.6,1-0.8c0.2-0.1,0.7-0.3,1.2-0.4c0.9-0.2,1.8-0.5,2.4-1c0.6-0.5,0.9-1.4,1.3-2.2c0.2-0.4,0.4-0.9,0.5-1.1
		c0.2-0.2,0.5-0.6,0.9-0.9c0.7-0.6,1.4-1.3,1.7-2c0.3-0.7,0.2-1.7,0.1-2.6c0-0.5-0.1-1-0.1-1.2C39.7,17.9,39.8,17.4,40,16.9z
		 M24.7,25.3c-5.1,0-9.2-4.1-9.2-9.2c0-5.1,4.1-9.2,9.2-9.2c5.1,0,9.3,4.1,9.3,9.2C33.9,21.2,29.8,25.3,24.7,25.3z"/>
</g>
</svg>
