<?xml version="1.0" encoding="utf-8"?>
<!-- Generator: Adobe Illustrator 18.0.0, SVG Export Plug-In . SVG Version: 6.00 Build 0)  -->
<!DOCTYPE svg PUBLIC "-//W3C//DTD SVG 1.1//EN" "http://www.w3.org/Graphics/SVG/1.1/DTD/svg11.dtd">
<svg version="1.1" id="Layer_1" xmlns="http://www.w3.org/2000/svg" xmlns:xlink="http://www.w3.org/1999/xlink" x="0px" y="0px"
	 viewBox="0 0 48 48" enable-background="new 0 0 48 48" xml:space="preserve">
<g>
	<path fill="#06728D" d="M17.6,6.7C16,7.9,15,9.5,15,11.2c0,3.6,4,6.5,9,6.5c5,0,9-2.9,9-6.5c0-1.8-1-3.4-2.6-4.5l2.9-4.2
		c0.4-0.6,0.2-1.3-0.3-1.7c-0.6-0.4-1.3-0.3-1.7,0.3l-3.1,4.5C27,5,25.5,4.7,24,4.7S21,5,19.8,5.5L16.7,1c-0.4-0.6-1.2-0.7-1.7-0.3
		c-0.6,0.4-0.7,1.2-0.3,1.7L17.6,6.7z"/>
	<path fill="#F04B36" d="M34.7,13.2c-1.1,3.8-5.4,6.6-10.7,6.6c-5.3,0-9.6-2.8-10.7-6.6c-3.9,3.5-6.4,9-6.4,15
		c0,10.7,7.6,19.3,17,19.3s17-8.6,17-19.3C41,22.1,38.6,16.7,34.7,13.2z M16,29.5c-1.6,0-2.9-1.3-2.9-2.9c0-1.6,1.3-2.9,2.9-2.9
		c1.6,0,2.9,1.3,2.9,2.9C18.9,28.3,17.6,29.5,16,29.5z M22.5,39.5c-1.4,0-2.6-1.1-2.6-2.6c0-1.4,1.1-2.6,2.6-2.6
		c1.4,0,2.6,1.1,2.6,2.6C25,38.4,23.9,39.5,22.5,39.5z M32.4,30.7c-1.5,0-2.7-1.2-2.7-2.7c0-1.5,1.2-2.7,2.7-2.7
		c1.5,0,2.7,1.2,2.7,2.7C35.2,29.4,34,30.7,32.4,30.7z"/>
</g>
</svg>
