<?xml version="1.0" encoding="utf-8"?>
<!-- Generator: Adobe Illustrator 18.0.0, SVG Export Plug-In . SVG Version: 6.00 Build 0)  -->
<!DOCTYPE svg PUBLIC "-//W3C//DTD SVG 1.1//EN" "http://www.w3.org/Graphics/SVG/1.1/DTD/svg11.dtd">
<svg version="1.1" id="Layer_1" xmlns="http://www.w3.org/2000/svg" xmlns:xlink="http://www.w3.org/1999/xlink" x="0px" y="0px"
	 viewBox="0 0 48 48" enable-background="new 0 0 48 48" xml:space="preserve">
<g>
	<g>
		<g>
			<rect x="19.2" y="38.1" fill="#06728D" width="9.7" height="7.9"/>
		</g>
	</g>
	<g>
		<g>
			<rect x="13.6" y="44.7" fill="#06728D" width="20.8" height="2.8"/>
		</g>
	</g>
	<g>
		<g>
			<path fill="#0DB89A" d="M44.1,0.5H3.9C2,0.5,0.5,2.1,0.5,4v32.8c0,1.9,1.5,3.5,3.4,3.5h40.2c1.9,0,3.4-1.6,3.4-3.5V4
				C47.5,2.1,46,0.5,44.1,0.5z M24,38.2c-0.7,0-1.2-0.6-1.2-1.2s0.5-1.2,1.2-1.2c0.7,0,1.2,0.6,1.2,1.2S24.7,38.2,24,38.2z M44,33.9
				H4V4.5H44V33.9z"/>
		</g>
	</g>
	<g>
		<path fill="#F04B36" d="M24.5,26.5c-2,0-3.6-0.7-4.8-2c-1.2-1.4-1.8-3.1-1.8-5.3v-0.6c0-2.1,0.6-3.8,1.8-5.2
			c1.2-1.4,2.7-2.1,4.3-2.1c1.9,0,3.4,0.6,4.4,1.8c1,1.2,1.5,2.8,1.5,4.8v1.7h-9.4l0,0.1c0,1.4,0.4,2.6,1.1,3.5
			c0.7,0.9,1.6,1.4,2.8,1.4c0.9,0,1.7-0.1,2.3-0.4c0.7-0.3,1.2-0.6,1.7-1.1l1,1.7c-0.5,0.5-1.2,0.9-2,1.3
			C26.7,26.4,25.7,26.5,24.5,26.5z M24.1,13.4c-0.9,0-1.6,0.4-2.3,1.1c-0.6,0.8-1,1.7-1.1,2.8l0,0.1h6.6v-0.4c0-1-0.3-1.9-0.8-2.6
			C26,13.8,25.2,13.4,24.1,13.4z"/>
	</g>
</g>
</svg>
