<?xml version="1.0" encoding="utf-8"?>
<!-- Generator: Adobe Illustrator 18.0.0, SVG Export Plug-In . SVG Version: 6.00 Build 0)  -->
<!DOCTYPE svg PUBLIC "-//W3C//DTD SVG 1.1//EN" "http://www.w3.org/Graphics/SVG/1.1/DTD/svg11.dtd">
<svg version="1.1" id="Layer_1" xmlns="http://www.w3.org/2000/svg" xmlns:xlink="http://www.w3.org/1999/xlink" x="0px" y="0px"
	 viewBox="0 0 48 48" enable-background="new 0 0 48 48" xml:space="preserve">
<g>
	<path fill="#CFD0D1" d="M33.4,11.6c0,6.1-4.2,13-9.4,13c-5.2,0-9.4-6.9-9.4-13c0-6.1,4.2-11.1,9.4-11.1
		C29.2,0.5,33.4,5.5,33.4,11.6z"/>
	<path fill="#F04B36" d="M23.5,47.5h0.9l0.6-14.7c-0.7,0.1-1.4,0.1-2.1,0L23.5,47.5z"/>
	<path fill="#F04B36" d="M30.1,31.4c0,0-1.1,0.6-2.9,1.1l-0.6,14.8c1.6-0.7,6.4-2.7,9.9-1.6l1.2-14.2H30.1z"/>
	<path fill="#F04B36" d="M20.8,32.5c-1-0.2-2-0.6-3-1.1h-7.5l1.3,14.2c0,0,6.8-0.1,9.8,1.3L20.8,32.5z"/>
	<g>
		<path fill="#4DA0D8" d="M18.3,29.2l0.5,0.2c0.8,0.4,1.6,0.7,2.5,0.9l0.9,0.2l0.9,0.1c0.3,0,0.6,0,0.8,0c0.3,0,0.6,0,0.9,0l1-0.1
			l0.9-0.2c1.5-0.4,2.4-0.9,2.4-0.9l0.5-0.3l0.6,0h7.4c-2-2.3-4.5-4-7.3-5.1c-1.8,1.6-3.9,2.6-6.2,2.6c-2.3,0-4.4-1-6.2-2.6
			c-2.9,1.1-5.4,2.8-7.3,5.1H18.3z"/>
	</g>
	<g>
		<path fill="#4DA0D8" d="M39.1,41H42c0-3.1-0.8-6-2.2-8.5L39.1,41z"/>
	</g>
	<g>
		<path fill="#4DA0D8" d="M8.2,32.5C6.8,35,6,37.9,6,41H9L8.2,32.5z"/>
	</g>
</g>
</svg>
