<?xml version="1.0" encoding="utf-8"?>
<!-- Generator: Adobe Illustrator 18.0.0, SVG Export Plug-In . SVG Version: 6.00 Build 0)  -->
<!DOCTYPE svg PUBLIC "-//W3C//DTD SVG 1.1//EN" "http://www.w3.org/Graphics/SVG/1.1/DTD/svg11.dtd">
<svg version="1.1" id="Layer_1" xmlns="http://www.w3.org/2000/svg" xmlns:xlink="http://www.w3.org/1999/xlink" x="0px" y="0px"
	 viewBox="0 0 48 48" enable-background="new 0 0 48 48" xml:space="preserve">
<g>
	<path fill="#294E58" d="M35.2,20.7c-0.5-3.6-1-7.1-1.6-10.7c-0.4-2.6-0.9-5.4-2.9-7.1C29.9,2.2,29,1.8,28,1.4
		c-1.1-0.5-2.3-0.9-3.6-0.9c-1.2,0-2.5,0.3-3.4,1.3c-0.1-0.4-0.5-0.5-0.9-0.5c-2.1-0.2-4.1,1.4-5,3.4c-0.9,2-0.9,4.2-1,6.4
		c-0.2,3.2-0.5,6.4-1.1,9.5c-0.3,1.7-0.7,3.6-2.2,4.7c1-0.1,1.9-0.9,2.7-1.4c2-1.2,4.7-1.3,6.8-0.2c0.6,0.3,1.1,0.7,1.7,0.9
		c1.2,0.5,2.6,0.4,3.8-0.2c1.2-0.6,2.2-1.8,3.5-1.8c0.8,0,1.5,0.5,2.2,0.9c1.7,1,3.4,1.8,5.3,2.4C35.8,24.5,35.5,22.6,35.2,20.7z
		 M30.3,16.3c-0.3,0.7-0.8,1.4-1.2,2c-1.1,1.6-1.8,3.5-3.5,4.3c-1.7,0.8-3.7,0.1-5-1.2c-1.3-1.2-2.1-3-2.8-4.6
		c-0.9-2.2-1.8-4.7-1.2-7c0.6,0.8,1.2,1.6,1.7,2.4c-0.1-1.4,0.7-2.9,1.9-3.6c1.5,0.4,2.7,1.6,4.2,2.2c1.7,0.8,3.9,0.7,5.3,2.1
		C30.4,13.8,30.7,15.1,30.3,16.3z"/>
	<g>
		<path fill="#0DB89A" d="M30.1,24.3c-1.7,1.6-3.8,2.6-6.1,2.6c-2.3,0-4.4-1-6.1-2.6c-2.3,0.8-4.3,2.1-6,3.8h24.3
			C34.4,26.5,32.4,25.2,30.1,24.3z"/>
	</g>
	<g>
		<path fill="#0DB89A" d="M41.7,40.9c0-2.4-0.5-4.7-1.4-6.8l-0.7,6.8H41.7z"/>
	</g>
	<g>
		<path fill="#0DB89A" d="M6.3,40.9h2.1L7.7,34C6.8,36.1,6.3,38.4,6.3,40.9z"/>
	</g>
	<g>
		<path fill="#E77528" d="M37.5,30.1h-27c-0.6,0-1.1,0.5-1,1.1l1.6,15.3c0.1,0.5,0.5,0.9,1,0.9h23.8c0.5,0,1-0.4,1-0.9l1.6-15.3
			C38.6,30.6,38.1,30.1,37.5,30.1z M34.7,45.7H13.3v-2.2h21.5V45.7z"/>
	</g>
</g>
</svg>
