<?xml version="1.0" encoding="utf-8"?>
<!-- Generator: Adobe Illustrator 18.0.0, SVG Export Plug-In . SVG Version: 6.00 Build 0)  -->
<!DOCTYPE svg PUBLIC "-//W3C//DTD SVG 1.1//EN" "http://www.w3.org/Graphics/SVG/1.1/DTD/svg11.dtd">
<svg version="1.1" id="Layer_1" xmlns="http://www.w3.org/2000/svg" xmlns:xlink="http://www.w3.org/1999/xlink" x="0px" y="0px"
	 viewBox="0 0 48 48" enable-background="new 0 0 48 48" xml:space="preserve">
<g>
	<path fill="#F7A93B" d="M13.1,8.5c2.2,0,4-1.8,4-4c0-2.2-1.8-4-4-4c-2.2,0-4,1.8-4,4C9.1,6.7,10.9,8.5,13.1,8.5L13.1,8.5z
		 M13.1,8.5"/>
	<path fill="#5C2D2D" d="M4,37.3h10.8v-2.8H4V37.3z M4,37.3"/>
	<path fill="#5C2D2D" d="M6.7,47.5v-13H4v13H6.7z M6.7,47.5"/>
	<path fill="#5C2D2D" d="M14.7,47.5v-13H12v13H14.7z M14.7,47.5"/>
	<polygon fill="#F04B36" points="33.2,47.5 33.2,23.9 43.7,23.9 43.7,20.1 18.2,20.1 18.2,23.9 28.7,23.9 28.7,47.5 	"/>
	<path fill="#E77528" d="M25.4,14.3c-0.1-0.1-0.2-0.1-0.3-0.1h-9.6c-0.6-2.1-2.6-3.7-4.9-3.7c-2.9,0-5.2,2.3-5.2,5.2V31h10.3l0,0
		h3.1l0,15.5c0,0.1,0,0.2,0.1,0.3c0.1,0.1,0.2,0.1,0.3,0.1l4.3,0c0.1,0,0.2,0,0.3-0.1c0.1-0.1,0.1-0.2,0.1-0.3l0-20.2
		c0-0.2-0.2-0.4-0.4-0.4h-7.8v-7.8l9.4,0c0.2,0,0.4-0.2,0.4-0.4l0-3C25.5,14.5,25.5,14.4,25.4,14.3z"/>
	<rect x="28.8" y="15" fill="#0DB89A" width="13.1" height="3.6"/>
	<rect x="25.5" y="10.1" fill="#1B3035" width="13.1" height="3.6"/>
	<rect x="28.8" y="5.5" fill="#F04B36" width="13.1" height="3.6"/>
	<rect x="31" y="0.5" fill="#0DB89A" width="13.1" height="3.6"/>
</g>
</svg>
