<?xml version="1.0" encoding="utf-8"?>
<!-- Generator: Adobe Illustrator 18.0.0, SVG Export Plug-In . SVG Version: 6.00 Build 0)  -->
<!DOCTYPE svg PUBLIC "-//W3C//DTD SVG 1.1//EN" "http://www.w3.org/Graphics/SVG/1.1/DTD/svg11.dtd">
<svg version="1.1" id="Layer_1" xmlns="http://www.w3.org/2000/svg" xmlns:xlink="http://www.w3.org/1999/xlink" x="0px" y="0px"
	 viewBox="0 0 48 48" enable-background="new 0 0 48 48" xml:space="preserve">
<g>
	<path fill="#F04B36" d="M4.4,5.1C4.6,4.5,4.8,3.8,5,3.2c0.4-0.9,1.1-1.5,2.1-1.8c2.6-0.7,6,0.2,7.9,2.1c-1.5,1.2-3,2.4-4.2,3.3
		C9.8,6,8.9,5.2,7.9,4.5C7.5,4.2,6.7,3.9,6.3,4.1c-0.4,0.2-0.7,1-0.6,1.5c0.3,2,0.6,4,1.1,6c0.4,1.7,0.4,1.7-0.6,3.5
		c-0.5-2.2-1.1-4.5-1.6-6.7C4.5,8.1,4.5,7.8,4.4,7.6C4.4,6.7,4.4,5.9,4.4,5.1z"/>
	<path fill="#F04B36" d="M43.6,7.4c-0.5,2-0.9,3.9-1.4,5.9c-0.1,0.6-0.4,1.1-0.6,1.7c-0.7-1.2-0.8-1.9-0.5-3.2
		c0.4-1.9,0.8-3.8,1.1-5.7c0.1-0.7,0.3-1.9-0.6-2.1c-0.6-0.2-1.5,0.4-2.1,0.8c-0.8,0.6-1.4,1.5-2,2.2c-1.5-1.2-3-2.4-4.6-3.6
		c1.4-1.3,3.1-2,5-2.3c0.5-0.1,1,0,1.4,0c2.6,0.1,3.6,1,4,3.6c0,0.2,0.1,0.3,0.2,0.4C43.6,6,43.6,6.7,43.6,7.4z"/>
	<path fill="#4DA0D8" d="M39.7,17.3c-1.1-3.4-2.6-6.6-5.2-9.2c-0.9-0.9-2-1.3-3.2-1.7C31,6.3,30.6,6,30.6,5.8
		c-0.4-3.1-2.5-4.7-5.3-5.1c-0.1,0-0.3-0.1-0.4-0.2h-2.3c-0.5,0.1-1,0.2-1.6,0.4c-2.3,0.7-3.6,2.2-4,4.7c0,0.3-0.2,0.8-0.4,0.8
		C13.8,7,12.4,9.1,11,11.2c-2.2,3.5-3.3,7.4-4.1,11.4C5.7,29,5.4,35.4,5.4,41.8c0,2.6,1.6,4.7,4.1,5.5c0,0,0,0,0,0
		c0.4,0.1,0.9,0.2,1.3,0.2h26.5c0.7,0,1.4-0.2,2-0.5c0.1-0.1,0.3-0.2,0.4-0.3c1.7-1.1,2.7-2.6,2.7-4.6
		C42.5,33.7,42.2,25.4,39.7,17.3z M23.5,2c1.8-0.1,3.7,1.3,3.8,3.7c-2.3,0-4.7,0-7,0C20.2,3.7,21.6,2.1,23.5,2z M11.1,18.6
		c1.1-3.6,2.9-6.6,6-8.8c4.8-3.4,10.7-3,15.1,1c3.2,3,4.8,6.7,5.4,11c0,0.1,0,0.2,0,0.4c-0.3,0-0.6,0-0.9,0.1c-0.8,0.1-1-0.3-1.1-1
		c-0.6-3.5-2-6.7-4.8-9.1c-4.4-3.9-10.6-3.5-14.5,0.9c-2,2.2-3.2,4.9-3.8,7.8c-0.3,1.5-0.3,1.5-2.1,1.3
		C10.6,20.9,10.8,19.7,11.1,18.6z M38,31.3c-0.6,3.8-1.6,7-3.1,9.8c-0.8,1.5-2.3,2.5-3.5,3.1c-1.2,0.6-2.6,1-4.2,1.1
		c-1.5,0.1-2.8,0.2-4,0.2c-2.7,0-5.1-0.3-7.3-1c-2.4-0.8-3.8-2.4-4.2-4.8c-0.2-1.2-0.5-2.4-0.8-3.6c-0.4-1.6-0.7-3.3-1-5
		c-0.4-2.2,0.3-3.6,0.9-4.4c0.6-0.7,1.7-1.6,3.7-1.6l1.1,0c0.7,0,3.7,0,3.7,0l2.6,0l2,0l5.3,0c1.2,0,2.5,0,3.7,0c0,0,0,0,0,0
		c1.7,0,3,0.6,3.9,1.6C37.7,27.5,38.4,28.9,38,31.3z"/>
	<path fill="#F04B36" d="M24.1,27.1c3,0,6,0,9.1,0c1.8,0,3.3,1,2.8,3.8c-0.5,3.3-1.4,6.4-2.9,9.2c-0.5,1-1.6,1.7-2.6,2.2
		c-1.1,0.5-2.3,0.8-3.5,0.9c-3.5,0.3-7,0.4-10.4-0.7c-1.4-0.5-2.5-1.3-2.9-3.2c-0.6-2.9-1.3-5.7-1.8-8.6c-0.4-2.3,0.6-3.6,2.6-3.6
		c1.6,0,3.2,0,4.8,0C21,27.1,22.5,27.1,24.1,27.1C24.1,27.1,24.1,27.1,24.1,27.1z"/>
</g>
</svg>
