<?xml version="1.0" encoding="utf-8"?>
<!-- Generator: Adobe Illustrator 18.0.0, SVG Export Plug-In . SVG Version: 6.00 Build 0)  -->
<!DOCTYPE svg PUBLIC "-//W3C//DTD SVG 1.1//EN" "http://www.w3.org/Graphics/SVG/1.1/DTD/svg11.dtd">
<svg version="1.1" id="Layer_1" xmlns="http://www.w3.org/2000/svg" xmlns:xlink="http://www.w3.org/1999/xlink" x="0px" y="0px"
	 viewBox="0 0 48 48" enable-background="new 0 0 48 48" xml:space="preserve">
<g>
	<path fill="#0DB89A" d="M6.4,0.5v47h35.2v-47H6.4z M24,6.1c2.2,0,4,1.8,4,4c0,2.2-1.8,4-4,4c-2.2,0-4-1.8-4-4
		C20,7.9,21.8,6.1,24,6.1z M24,14.7c5.2,0,9.5,4.2,9.5,9.5H14.5C14.5,18.9,18.8,14.7,24,14.7z M37.2,41.1H10.8c-0.6,0-1-0.5-1-1
		c0-0.6,0.5-1,1-1h26.3c0.6,0,1,0.5,1,1C38.2,40.7,37.7,41.1,37.2,41.1z M37.2,33.3H10.8c-0.6,0-1-0.5-1-1c0-0.6,0.5-1,1-1h26.3
		c0.6,0,1,0.5,1,1C38.2,32.8,37.7,33.3,37.2,33.3z"/>
</g>
</svg>
