<?xml version="1.0" encoding="utf-8"?>
<!-- Generator: Adobe Illustrator 18.0.0, SVG Export Plug-In . SVG Version: 6.00 Build 0)  -->
<!DOCTYPE svg PUBLIC "-//W3C//DTD SVG 1.1//EN" "http://www.w3.org/Graphics/SVG/1.1/DTD/svg11.dtd">
<svg version="1.1" id="Layer_1" xmlns="http://www.w3.org/2000/svg" xmlns:xlink="http://www.w3.org/1999/xlink" x="0px" y="0px"
	 viewBox="0 0 48 48" enable-background="new 0 0 48 48" xml:space="preserve">
<g>
	<path fill="#F7A93B" d="M33.3,11.5c0,6.1-4.2,13-9.3,13c-5.1,0-9.3-6.9-9.3-13s4.2-11,9.3-11C29.1,0.5,33.3,5.4,33.3,11.5z"/>
	<path fill="#F04B36" d="M30.2,24c-1.8,1.6-3.9,2.6-6.2,2.6c-2.3,0-4.4-1-6.2-2.6c-2.3,0.9-4.4,2.2-6.1,3.8h24.6
		C34.6,26.2,32.5,24.9,30.2,24z"/>
	<path fill="#F04B36" d="M41.9,40.8c0-2.5-0.5-4.8-1.4-6.9l-0.7,6.9H41.9z"/>
	<path fill="#F04B36" d="M6.1,40.8h2.2l-0.7-6.9C6.6,36,6.1,38.3,6.1,40.8z"/>
	<path fill="#06728D" d="M37.7,29.9H10.3c-0.6,0-1.1,0.5-1,1.1l1.7,15.5c0.1,0.5,0.5,0.9,1,0.9h24c0.5,0,1-0.4,1-0.9L38.7,31
		C38.8,30.4,38.3,29.9,37.7,29.9z M34.9,45.7H13.1v-2.2h21.7V45.7z"/>
</g>
</svg>
