<?xml version="1.0" encoding="utf-8"?>
<!-- Generator: Adobe Illustrator 18.0.0, SVG Export Plug-In . SVG Version: 6.00 Build 0)  -->
<!DOCTYPE svg PUBLIC "-//W3C//DTD SVG 1.1//EN" "http://www.w3.org/Graphics/SVG/1.1/DTD/svg11.dtd">
<svg version="1.1" id="Layer_1" xmlns="http://www.w3.org/2000/svg" xmlns:xlink="http://www.w3.org/1999/xlink" x="0px" y="0px"
	 viewBox="0 0 48 48" enable-background="new 0 0 48 48" xml:space="preserve">
<g>
	<path fill="#E77528" d="M40.9,10.2C40.1,8.3,39,6.4,37.5,5c-1.4-1.3-3.2-2.2-5-3.1c-1.4-0.7-11.7-4.1-19.2,2.7
		c-0.9,0.8-2,2.1-2.4,3.2c-0.8,2.5-0.1,5.2-0.9,7.7c-0.8,2.6-3.1,4.4-4.4,6.8c-0.5,0.8-0.7,2.1,0.1,2.5c0.6,0.3,1.4,0.1,1.8,0.6
		c0.4,0.6-0.2,1.3-0.3,2.1c-0.1,0.7,0.4,1.4,1,1.5c0,0.7-1.5,1.2-1,1.8c0.1,0.2,0.3,0.2,0.5,0.3c0.7,0.4,0.7,1.3,0.6,2
		c-0.1,0.7-0.4,1.5-0.2,2.2c0.4,1.1,1.7,1.4,2.8,1.6c1.4,0.2,2.8,0.5,4.3,0.7c1,0.2,2.2,0.5,2.6,1.4c0.1,0.3,0.1,0.7,0.1,1
		c0,2.4,0,4.8,0,7.2l3.9,0.3c1.9,0.1,3.9,0.2,5.9,0c-0.7-3.8-0.5-7.8,0.8-11.5c0.1-0.4,0.3-0.8,0.5-1.3c0.3-0.8,0.6-1.5,0.8-2.3
		c0.5-1.8,0.4-3.8,0.4-5.8c0-1,0-2.1-0.5-2.9c-0.1-0.2-0.2-0.4-0.3-0.6c0,0,0-0.1-0.1-0.1c-0.3,0.1-0.7,0.1-0.8-0.2
		c-0.4-1.3-0.9-2.7-2.1-3.3c-0.8-0.4-1.7-0.3-2.5-0.3c-1.3,0-2.8-0.1-3.8-1c-0.4-0.3-0.7-0.8-1.1-1c-0.6-0.4-1.4-0.4-2.1-0.5
		c-1.6-0.1-3.4-0.7-4.3-2.1c-0.8-1.4-0.4-3.3,0.5-4.7c1.7-2.9,4.8-4.7,8-5.9c1.6-0.6,3.3-1.1,5.1-1.1c2.6,0,5.1,1,7.5,1.9
		c0.6,0.2,2.5,1.9,2.8,2.4c1.8,3.4,2.4,7.4,1,10.9c-0.9,2.3-3.4,4.3-5.8,4.6c0.6,1.2,0.6,2.6,0.6,3.7c0,2.1,0.1,4.2-0.5,6.3
		c-0.2,0.9-0.5,1.7-0.8,2.5c-0.1,0.4-0.3,0.8-0.4,1.2c-1.1,3.3-1.4,7-0.7,10.5c1.1-0.2,2.3-0.6,3.3-1.1c0.3-0.1,0.6-0.3,0.7-0.5
		c0.2-0.3,0.2-0.6,0.2-0.9c0-1.7-0.1-3.4-0.1-5.1c0-1,0-2,0.2-2.9c0.7-2.6,3.1-4.3,4.8-6.4c2.3-2.7,3.5-6.1,3.7-9.6
		C42.9,17,42.2,13.5,40.9,10.2z"/>
</g>
</svg>
