<?xml version="1.0" encoding="utf-8"?>
<!-- Generator: Adobe Illustrator 18.0.0, SVG Export Plug-In . SVG Version: 6.00 Build 0)  -->
<!DOCTYPE svg PUBLIC "-//W3C//DTD SVG 1.1//EN" "http://www.w3.org/Graphics/SVG/1.1/DTD/svg11.dtd">
<svg version="1.1" id="Layer_1" xmlns="http://www.w3.org/2000/svg" xmlns:xlink="http://www.w3.org/1999/xlink" x="0px" y="0px"
	 viewBox="0 0 48 48" enable-background="new 0 0 48 48" xml:space="preserve">
<g>
	<path fill="#06728D" d="M6.7,47.5c-0.5,0-1-0.4-1-1v-45c0-0.5,0.4-1,1-1s1,0.4,1,1v45C7.6,47.1,7.2,47.5,6.7,47.5z"/>
	<path fill="#06728D" d="M41.3,47.5c-0.5,0-1-0.4-1-1v-45c0-0.5,0.4-1,1-1c0.5,0,1,0.4,1,1v45C42.3,47.1,41.9,47.5,41.3,47.5z"/>
	<path fill="#294E58" d="M46.5,47.5H36.2c-0.5,0-1-0.4-1-1c0-0.5,0.4-1,1-1h10.4c0.5,0,1,0.4,1,1C47.5,47.1,47.1,47.5,46.5,47.5z"/>
	<path fill="#294E58" d="M11.8,47.5H1.5c-0.5,0-1-0.4-1-1c0-0.5,0.4-1,1-1h10.4c0.5,0,1,0.4,1,1C12.8,47.1,12.4,47.5,11.8,47.5z"/>
	<path fill="#06728D" d="M41.3,15.6h-6.6v2h6.6c0.5,0,1-0.4,1-1C42.3,16,41.9,15.6,41.3,15.6z"/>
	<rect x="19.7" y="15.6" fill="#06728D" width="7.6" height="2"/>
	<path fill="#06728D" d="M12.3,15.6H6.7c-0.5,0-1,0.4-1,1c0,0.5,0.4,1,1,1h5.7V15.6z"/>
	<path fill="#F04B36" d="M19.6,8.7h-6.9c-0.5,0-1,0.4-1,1v13.8v14c0,2.4,2,4.4,4.4,4.4c2.4,0,4.4-2,4.4-4.4v-14V9.7
		C20.6,9.2,20.2,8.7,19.6,8.7z M15.3,39.3c-0.9,0-1.7-0.7-1.7-1.7s0.7-1.7,1.7-1.7c0.9,0,1.7,0.7,1.7,1.7S16.2,39.3,15.3,39.3z
		 M13.6,26.4c0-0.7,0.6-1.3,1.3-1.3s1.3,0.6,1.3,1.3s-0.6,1.3-1.3,1.3S13.6,27.1,13.6,26.4z M16.9,33.2c-0.9,0-1.7-0.8-1.7-1.7
		c0-0.9,0.8-1.7,1.7-1.7c0.9,0,1.7,0.8,1.7,1.7C18.6,32.5,17.9,33.2,16.9,33.2z M18.7,22.5h-5V10.7h5V22.5z"/>
	<path fill="#0DB89A" d="M34.2,8.7h-6.9c-0.5,0-1,0.4-1,1v13.8v14c0,2.4,2,4.4,4.4,4.4c2.4,0,4.4-2,4.4-4.4v-14V9.7
		C35.2,9.2,34.7,8.7,34.2,8.7z M29.8,39.3c-0.9,0-1.7-0.7-1.7-1.7s0.7-1.7,1.7-1.7s1.7,0.7,1.7,1.7S30.8,39.3,29.8,39.3z M28.2,26.4
		c0-0.7,0.6-1.3,1.3-1.3c0.7,0,1.3,0.6,1.3,1.3s-0.6,1.3-1.3,1.3C28.8,27.6,28.2,27.1,28.2,26.4z M31.5,33.2c-0.9,0-1.7-0.8-1.7-1.7
		c0-0.9,0.8-1.7,1.7-1.7c0.9,0,1.7,0.8,1.7,1.7C33.2,32.5,32.4,33.2,31.5,33.2z M33.2,22.5h-5V10.7h5V22.5z"/>
</g>
</svg>
