<?xml version="1.0" encoding="utf-8"?>
<!-- Generator: Adobe Illustrator 18.0.0, SVG Export Plug-In . SVG Version: 6.00 Build 0)  -->
<!DOCTYPE svg PUBLIC "-//W3C//DTD SVG 1.1//EN" "http://www.w3.org/Graphics/SVG/1.1/DTD/svg11.dtd">
<svg version="1.1" id="Layer_1" xmlns="http://www.w3.org/2000/svg" xmlns:xlink="http://www.w3.org/1999/xlink" x="0px" y="0px"
	 viewBox="0 0 48 48" enable-background="new 0 0 48 48" xml:space="preserve">
<g>
	<path fill="#3B8174" d="M20.4,45.2c-0.5,0-1-0.4-1-1c0-0.5,0.4-1,1-1C32.9,43.2,43,33.1,43,20.6c0-0.5,0.4-1,1-1c0.5,0,1,0.4,1,1
		C44.9,34.1,33.9,45.2,20.4,45.2z"/>
	<path fill="#06728D" d="M20,0.8C9.3,0.8,0.5,9.5,0.5,20.3C0.5,31,9.3,39.8,20,39.8c10.8,0,19.5-8.8,19.5-19.5
		C39.5,9.5,30.8,0.8,20,0.8z M8.6,25.2c0.2,0.5,0,1.1-0.5,1.3c-0.1,0.1-0.3,0.1-0.4,0.1c-0.4,0-0.7-0.2-0.9-0.6
		c-0.8-1.8-1.2-3.7-1.2-5.7c0-7.9,6.5-14.4,14.4-14.4c1.9,0,3.8,0.4,5.6,1.1c0.5,0.2,0.7,0.8,0.5,1.3c-0.2,0.5-0.8,0.7-1.3,0.5
		c-1.5-0.6-3.2-1-4.8-1c-6.9,0-12.5,5.6-12.5,12.5C7.6,22,7.9,23.6,8.6,25.2z M20,26.7c-3.6,0-6.5-2.9-6.5-6.5
		c0-3.6,2.9-6.5,6.5-6.5c3.6,0,6.5,2.9,6.5,6.5C26.5,23.8,23.6,26.7,20,26.7z"/>
	<path fill="#F04B36" d="M20.4,41.7h-5.9c-0.5,0-1,0.4-1,1v3.6c0,0.5,0.4,1,1,1h5.9c0.5,0,1-0.4,1-1v-3.6
		C21.4,42.2,20.9,41.7,20.4,41.7z"/>
	<path fill="#F04B36" d="M44,14.5c-1.9,0-3.5,1.6-3.5,3.5c0,1.9,1.6,3.5,3.5,3.5c1.9,0,3.5-1.6,3.5-3.5C47.5,16.1,45.9,14.5,44,14.5
		z"/>
</g>
</svg>
