<?xml version="1.0" encoding="utf-8"?>
<!-- Generator: Adobe Illustrator 18.0.0, SVG Export Plug-In . SVG Version: 6.00 Build 0)  -->
<!DOCTYPE svg PUBLIC "-//W3C//DTD SVG 1.1//EN" "http://www.w3.org/Graphics/SVG/1.1/DTD/svg11.dtd">
<svg version="1.1" id="Layer_1" xmlns="http://www.w3.org/2000/svg" xmlns:xlink="http://www.w3.org/1999/xlink" x="0px" y="0px"
	 viewBox="0 0 48 48" enable-background="new 0 0 48 48" xml:space="preserve">
<g>
	<path fill="#F7A93B" d="M17.7,47c0-2.4,0-4.8,0-7.2c0-0.3,0-0.7-0.1-1c-0.3-1-1.5-1.3-2.5-1.5c-1.4-0.2-2.8-0.5-4.3-0.7
		c-1.1-0.2-2.4-0.5-2.7-1.6c-0.2-0.7,0.1-1.5,0.2-2.2c0.2-0.7,0.1-1.6-0.6-2c-0.2-0.1-0.4-0.1-0.5-0.3c-0.4-0.6,1-1,1-1.8
		c-0.6-0.2-1.1-0.9-1-1.6c0.1-0.7,0.7-1.5,0.3-2.1c-0.4-0.5-1.3-0.3-1.8-0.6c-0.8-0.5-0.6-1.7-0.1-2.5c1.3-2.4,3.6-4.2,4.5-6.7
		c0.8-2.5,0.2-5.2,1-7.7c0.4-1.1,1.6-2.4,2.4-3.2c7.6-6.7,17.8-3.1,19.2-2.5c1.8,0.9,3.5,1.8,4.9,3.1c1.5,1.4,2.5,3.3,3.3,5.2
		c1.3,3.2,2,6.8,1.7,10.3c-0.3,3.5-1.5,6.9-3.8,9.6c-1.8,2-4.2,3.7-4.9,6.3c-0.2,0.9-0.2,1.9-0.2,2.9c0,1.7,0,3.4,0,5.1
		c0,0.3,0,0.7-0.2,0.9c-0.2,0.3-0.4,0.4-0.7,0.5c-3.5,1.5-7.5,1.6-11.3,1.3L17.7,47z"/>
</g>
</svg>
