<?xml version="1.0" encoding="utf-8"?>
<!-- Generator: Adobe Illustrator 18.0.0, SVG Export Plug-In . SVG Version: 6.00 Build 0)  -->
<!DOCTYPE svg PUBLIC "-//W3C//DTD SVG 1.1//EN" "http://www.w3.org/Graphics/SVG/1.1/DTD/svg11.dtd">
<svg version="1.1" id="Layer_1" xmlns="http://www.w3.org/2000/svg" xmlns:xlink="http://www.w3.org/1999/xlink" x="0px" y="0px"
	 viewBox="0 0 48 48" enable-background="new 0 0 48 48" xml:space="preserve">
<path fill="#06728D" d="M39.7,0.5H8.3C6.4,0.5,4.8,2.1,4.8,4v40c0,1.9,1.6,3.5,3.5,3.5h31.4c1.9,0,3.5-1.6,3.5-3.5V4
	C43.2,2.1,41.6,0.5,39.7,0.5z M24,45.4c-1.2,0-2.3-1-2.3-2.3c0-1.2,1-2.3,2.3-2.3c1.2,0,2.3,1,2.3,2.3C26.3,44.4,25.2,45.4,24,45.4z
	 M39.6,39.5H8.4V3.9h31.2V39.5z"/>
<g>
	<g>
		<path fill="#F7A93B" d="M34.1,25H13.9c-0.6,0-1-0.5-1-1c0-0.6,0.5-1,1-1h20.1c0.6,0,1,0.5,1,1C35.1,24.6,34.6,25,34.1,25z"/>
	</g>
</g>
<g>
	<g>
		<path fill="#F7A93B" d="M34.1,25H13.9c-0.6,0-1-0.5-1-1c0-0.6,0.5-1,1-1h20.1c0.6,0,1,0.5,1,1C35.1,24.6,34.6,25,34.1,25z"/>
	</g>
</g>
<g>
	<g>
		<path fill="#F7A93B" d="M34.1,25H13.9c-0.6,0-1-0.5-1-1c0-0.6,0.5-1,1-1h20.1c0.6,0,1,0.5,1,1C35.1,24.6,34.6,25,34.1,25z"/>
	</g>
</g>
<g>
	<g>
		<path fill="#F7A93B" d="M34.1,25H13.9c-0.6,0-1-0.5-1-1s0.5-1,1-1h20.1c0.6,0,1,0.5,1,1S34.6,25,34.1,25z"/>
	</g>
</g>
<g>
	<g>
		<path fill="#F7A93B" d="M34.1,25H13.9c-0.6,0-1-0.5-1-1c0-0.6,0.5-1,1-1h20.1c0.6,0,1,0.5,1,1C35.1,24.6,34.6,25,34.1,25z"/>
	</g>
</g>
</svg>
