<?xml version="1.0" encoding="utf-8"?>
<!-- Generator: Adobe Illustrator 18.0.0, SVG Export Plug-In . SVG Version: 6.00 Build 0)  -->
<!DOCTYPE svg PUBLIC "-//W3C//DTD SVG 1.1//EN" "http://www.w3.org/Graphics/SVG/1.1/DTD/svg11.dtd">
<svg version="1.1" id="Layer_1" xmlns="http://www.w3.org/2000/svg" xmlns:xlink="http://www.w3.org/1999/xlink" x="0px" y="0px"
	 viewBox="0 0 48 48" enable-background="new 0 0 48 48" xml:space="preserve">
<g>
	<polygon fill="#06728D" points="27.2,10.4 27.2,41 20.7,41 20.7,10.4 24,7 	"/>
	<polygon fill="#639FA5" points="43,16.1 23.8,18.2 4.9,16.1 4.9,14.4 43,14.4 	"/>
	<g>
		<g>
			<path fill="#E77528" d="M40.5,14.4v18.1c0,0.5,0.4,0.9,0.9,0.9c0.5,0,0.9-0.4,0.9-0.9V14.4H40.5z"/>
		</g>
	</g>
	<g>
		<g>
			<path fill="#E77528" d="M39.9,14.4C39.9,14.4,39.9,14.4,39.9,14.4l-4.4,16.5c-0.1,0.5,0.2,1,0.7,1.2c0.1,0,0.2,0,0.2,0
				c0.4,0,0.8-0.3,0.9-0.7l4.4-16.5c0-0.2,0-0.3,0-0.5H39.9z"/>
		</g>
	</g>
	<g>
		<g>
			<path fill="#E77528" d="M47.5,30.9l-4.4-16.5c0,0,0,0,0,0h-1.8c0,0.2-0.1,0.3,0,0.5l4.4,16.5c0.1,0.4,0.5,0.7,0.9,0.7
				c0.1,0,0.2,0,0.2,0C47.3,32,47.6,31.4,47.5,30.9z"/>
		</g>
	</g>
	<g>
		<g>
			<path fill="#E77528" d="M5.6,14.4v18.1c0,0.5,0.4,0.9,0.9,0.9s0.9-0.4,0.9-0.9V14.4H5.6z"/>
		</g>
	</g>
	<g>
		<g>
			<path fill="#E77528" d="M5,14.4C4.9,14.4,4.9,14.4,5,14.4L0.5,30.9c-0.1,0.5,0.2,1,0.7,1.2c0.1,0,0.2,0,0.2,0
				c0.4,0,0.8-0.3,0.9-0.7l4.4-16.5c0-0.2,0-0.3,0-0.5H5z"/>
		</g>
	</g>
	<g>
		<g>
			<path fill="#E77528" d="M12.5,30.9L8.1,14.4c0,0,0,0,0,0H6.3c0,0.2-0.1,0.3,0,0.5l4.4,16.5c0.1,0.4,0.5,0.7,0.9,0.7
				c0.1,0,0.2,0,0.2,0C12.3,32,12.6,31.4,12.5,30.9z"/>
		</g>
	</g>
	<g>
		<path fill="#F04B36" d="M35.5,31.1c0,2.1,2.7,3.7,6,3.7c3.3,0,6-1.7,6-3.7H35.5z"/>
	</g>
	<g>
		<path fill="#F04B36" d="M0.5,31.1c0,2.1,2.7,3.7,6,3.7c3.3,0,6-1.7,6-3.7H0.5z"/>
	</g>
	<rect x="15.9" y="39" fill="#294E58" width="16.1" height="2"/>
</g>
</svg>
