<?xml version="1.0" encoding="utf-8"?>
<!-- Generator: Adobe Illustrator 18.0.0, SVG Export Plug-In . SVG Version: 6.00 Build 0)  -->
<!DOCTYPE svg PUBLIC "-//W3C//DTD SVG 1.1//EN" "http://www.w3.org/Graphics/SVG/1.1/DTD/svg11.dtd">
<svg version="1.1" id="Layer_1" xmlns="http://www.w3.org/2000/svg" xmlns:xlink="http://www.w3.org/1999/xlink" x="0px" y="0px"
	 viewBox="0 0 48 48" enable-background="new 0 0 48 48" xml:space="preserve">
<g>
	<path fill="#294E58" d="M10.8,23.8c0.7-2.7,4-6.1,6.5-8c2.4-2,6.4-4.5,9.2-4.6l-3.8-4.8l3.8-5.8L10.2,6.8L0.5,21.4L7,18.9
		L10.8,23.8z"/>
	<g>
		<path fill="#F04B36" d="M27.6,4.1C27.3,4.3,27,4.2,26.7,4l-1.5-1.9c-0.2-0.3-0.2-0.6,0.1-0.9C25.6,1,26,1,26.2,1.3l1.5,1.9
			C27.9,3.5,27.9,3.9,27.6,4.1z"/>
	</g>
	<g>
		<path fill="#F04B36" d="M33.9,11.8c0.2,0,0.3-0.2,0.3-0.4c0-0.2-0.1-0.4-0.2-0.6c-0.6-0.9-1.2-1.8-1.9-2.6c0.6,0.6,1.1,1.3,1.6,2
			c0.2,0.3,0.3,0.5,0.6,0.7c0.3,0.1,0.7,0,0.7-0.3c-0.4-0.6-0.8-1.1-1.2-1.6C33,7.7,32,6.4,30.6,5.7c-0.5-0.3-1-0.5-1.2-0.9
			c-0.1-0.1-0.1-0.2-0.1-0.4c-0.2-0.5-0.6-0.9-1-1.3C28.2,3,28.1,2.9,28,2.8c-0.2-0.1-0.4,0-0.7,0.1c-0.5,0.2-1.1,0.6-1.1,1.1
			c0,0.2,0.1,0.5,0.2,0.7c0.3,0.6,0.8,1,1.4,1.3c0.3,0.2,0.7,0.3,0.9,0.5c0.4,0.4,0.5,1.1,0.6,1.7c0.2,1,0.5,1.9,1.1,2.8
			c0.3,0.5,0.7,1,1.3,1.3c0.2,0.1,0.6,0.2,0.7-0.1c0-0.1,0-0.3-0.1-0.4c-0.6-0.8-1.1-1.6-1.7-2.4c0.6,0.2,1,0.7,1.3,1.2
			c0.3,0.5,0.5,1.1,0.9,1.6c0.2-0.1,0.3-0.4,0.3-0.6c0-0.2-0.2-0.5-0.3-0.7c-0.5-0.8-0.9-1.5-1.4-2.3c0.9,0.7,1.6,1.6,2,2.6
			C33.5,11.5,33.7,11.8,33.9,11.8z"/>
	</g>
	<path fill="#4DA0D8" d="M30.5,13l0.1,0.1l-4.1,0.1c-1.7,0-5,1.7-8,4.1c-3,2.4-5.3,5.2-5.8,6.9l-0.8,3v20.2h35.5V13H30.5z
		 M29.8,38.7c-4.7,0-8.4-3.8-8.4-8.5c0-4.7,3.8-8.5,8.4-8.5c4.7,0,8.4,3.8,8.4,8.5C38.2,34.9,34.4,38.7,29.8,38.7z"/>
	<polygon fill="#F04B36" points="27.8,23.9 27.8,36.6 34.1,30.2 	"/>
</g>
</svg>
