<?xml version="1.0" encoding="utf-8"?>
<!-- Generator: Adobe Illustrator 18.0.0, SVG Export Plug-In . SVG Version: 6.00 Build 0)  -->
<!DOCTYPE svg PUBLIC "-//W3C//DTD SVG 1.1//EN" "http://www.w3.org/Graphics/SVG/1.1/DTD/svg11.dtd">
<svg version="1.1" id="Layer_1" xmlns="http://www.w3.org/2000/svg" xmlns:xlink="http://www.w3.org/1999/xlink" x="0px" y="0px"
	 viewBox="0 0 48 48" enable-background="new 0 0 48 48" xml:space="preserve">
<g>
	<g>
		<path fill="#F04B36" d="M24,47.5c-0.2,0-0.4-0.1-0.5-0.2c-0.2-0.1-0.3-0.4-0.3-0.6V22.2c0-0.4,0.3-0.7,0.7-0.7L41.8,19
			c0.2,0,0.4,0,0.6,0.2c0.2,0.1,0.3,0.4,0.3,0.6v24.5c0,0.4-0.3,0.7-0.6,0.7l-17.9,2.5C24.1,47.5,24,47.5,24,47.5z M24.8,22.9v23
			l16.3-2.3v-23L24.8,22.9z"/>
	</g>
	<ellipse fill="#F7A93B" cx="40.5" cy="32.6" rx="3.7" ry="4"/>
	<path fill="#294E58" d="M14.9,18.6c-0.7-2.1-1.1-4.2-0.5-6.3c0.7,1,1.5,2,2.2,3.1c-0.1-1.8,0.9-3.7,2.4-4.6c1.9,0.5,3.4,2,5.3,2.8
		c2.2,1,5,0.9,6.7,2.7c0.7,0.7,1.1,1.7,1.1,2.7l4.8-0.8c-0.3-1.8-0.5-3.7-0.8-5.5c-0.5-3.3-1.1-6.9-3.7-9c-1-0.8-2.2-1.4-3.4-1.9
		c-1.5-0.6-3-1.1-4.5-1.2c-1.6-0.1-3.2,0.4-4.3,1.6c-0.1-0.4-0.7-0.6-1.1-0.7c-2.7-0.3-5.2,1.8-6.3,4.3c-1.1,2.5-1.2,5.3-1.3,8.1
		c-0.1,1.4-0.2,2.7-0.3,4.1L14.9,18.6z"/>
	<g>
		<path fill="#F04B36" d="M24,47.5c0,0-0.1,0-0.1,0L6,45c-0.4-0.1-0.6-0.4-0.6-0.7V19.7c0-0.2,0.1-0.4,0.3-0.6C5.8,19,6,18.9,6.2,19
			l17.9,2.5c0.4,0.1,0.6,0.4,0.6,0.7v24.5c0,0.2-0.1,0.4-0.3,0.6C24.4,47.4,24.2,47.5,24,47.5z M6.9,43.6l16.3,2.3v-23L6.9,20.6
			V43.6z"/>
	</g>
	<ellipse fill="#F7A93B" cx="7.5" cy="32.6" rx="3.7" ry="4"/>
</g>
</svg>
