<?xml version="1.0" encoding="utf-8"?>
<!-- Generator: Adobe Illustrator 18.0.0, SVG Export Plug-In . SVG Version: 6.00 Build 0)  -->
<!DOCTYPE svg PUBLIC "-//W3C//DTD SVG 1.1//EN" "http://www.w3.org/Graphics/SVG/1.1/DTD/svg11.dtd">
<svg version="1.1" id="Layer_1" xmlns="http://www.w3.org/2000/svg" xmlns:xlink="http://www.w3.org/1999/xlink" x="0px" y="0px"
	 viewBox="0 0 48 48" enable-background="new 0 0 48 48" xml:space="preserve">
<g>
	<path fill="#294E58" d="M17.3,33.4c2.5-1.9,7.7-2.4,11.1-2.4c3.5,0,8.7,0.6,11.1,2.4v-6.8l7.3-2.3l-18.5-5.9L9.9,24.2l7.3,2.3V33.4
		z"/>
	<ellipse fill="#0DB89A" cx="28.4" cy="35.8" rx="11.1" ry="3.5"/>
	<path fill="#F04B36" d="M45.4,28c-0.4,0-0.7-0.3-0.7-0.7v-2.7c0-0.4,0.3-0.7,0.7-0.7c0.4,0,0.7,0.3,0.7,0.7v2.7
		C46,27.7,45.7,28,45.4,28z"/>
	<g>
		<path fill="#F7A93B" d="M15.6,37.2l-0.3,0.3v-1.6c0,0,0-0.1,0-0.1c0,0,0-0.1,0-0.1v-6.3c-0.7-0.5-1.3-1.2-1.7-1.9L3.2,24.2l10-3.2
			c1.1-2.2,3.4-3.8,6.1-3.8c1.2,0,2.3,0.3,3.2,0.8l5.9-1.9l9,2.9c-2.2-8-9.4-13.8-18.1-13.8C8.9,5.2,0.5,13.6,0.5,24
			c0,10.4,8.4,18.8,18.8,18.8c2.7,0,5.2-0.6,7.5-1.5C21.9,41,16.9,39.9,15.6,37.2z"/>
	</g>
	<g>
		<path fill="#F04B36" d="M45.5,39.1c0.2,0.1,0.5,0,0.6-0.2c0.1-0.2,0.2-0.4,0.2-0.6c0.1-1.2,0.2-2.4,0.1-3.6c0.1,1,0.1,1.9,0,2.9
			c0,0.3-0.1,0.7,0.1,1s0.6,0.5,0.8,0.3c0.1-0.7,0.1-1.5,0.1-2.2c0-1.7,0.1-3.5-0.6-5.1c-0.2-0.5-0.5-1.1-0.4-1.6
			c0-0.1,0.1-0.3,0.1-0.4c0.2-0.6,0.1-1.2,0-1.7c0-0.2,0-0.4-0.1-0.5c-0.1-0.2-0.4-0.3-0.7-0.4c-0.6-0.2-1.4-0.3-1.8,0.2
			c-0.2,0.2-0.2,0.5-0.3,0.7c-0.1,0.7,0,1.4,0.3,2.1c0.2,0.4,0.4,0.7,0.4,1.1c0.1,0.7-0.3,1.3-0.7,1.9c-0.5,1-0.9,2-1,3.1
			c-0.1,0.7,0,1.4,0.2,2c0.1,0.3,0.4,0.6,0.7,0.4c0.1-0.1,0.2-0.3,0.2-0.5c0.1-1.1,0.1-2.1,0.2-3.2c0.4,0.6,0.4,1.3,0.3,2
			c-0.1,0.7-0.3,1.3-0.3,2c0.3,0.1,0.5-0.1,0.7-0.4c0.1-0.2,0.2-0.5,0.2-0.8c0.1-1,0.3-1.9,0.4-2.9c0.3,1.2,0.3,2.4,0,3.6
			C45.4,38.6,45.3,38.9,45.5,39.1z"/>
	</g>
</g>
</svg>
