<?xml version="1.0" encoding="utf-8"?>
<!-- Generator: Adobe Illustrator 18.0.0, SVG Export Plug-In . SVG Version: 6.00 Build 0)  -->
<!DOCTYPE svg PUBLIC "-//W3C//DTD SVG 1.1//EN" "http://www.w3.org/Graphics/SVG/1.1/DTD/svg11.dtd">
<svg version="1.1" id="Layer_1" xmlns="http://www.w3.org/2000/svg" xmlns:xlink="http://www.w3.org/1999/xlink" x="0px" y="0px"
	 viewBox="0 0 48 48" enable-background="new 0 0 48 48" xml:space="preserve">
<g>
	<path fill="#F04B36" d="M42.8,8.5H29.4c0.3,0.8,0.5,1.6,0.6,2.4h10.2c2.6,0,4.7,2,4.7,4.4v24.2h-2.3V17.6c0-2.4-2.1-4.4-4.7-4.4
		h-8.2C28.8,15.9,26,18,22.7,18H13v25.1c0,2.4,2.1,4.4,4.7,4.4h20.1c2.6,0,4.7-2,4.7-4.4v-0.5h1.9l0-0.1c0,0,0,0,0,0.1
		c1.7-0.7,3-2.2,3-4.1V13C47.5,10.5,45.4,8.5,42.8,8.5z"/>
	<path fill="#0DB89A" d="M22.4,6.5h-2.3c0-3.3-2.8-6-6.2-6c-3.4,0-6.2,2.7-6.2,6H5.4c-2.7,0-4.9,2.1-4.9,4.7c0,2.6,2.2,4.7,4.9,4.7
		h17c2.7,0,4.9-2.1,4.9-4.7C27.3,8.6,25.1,6.5,22.4,6.5z"/>
	<path fill="#06728D" d="M1.5,16.3c0,0-0.3,2.8,4.9,5.2l1.2-2.2l3.9,6.5l-7.9,1.2l1.4-2.3C4.9,24.6-2,20.2,1.5,16.3z"/>
</g>
</svg>
