<?xml version="1.0" encoding="utf-8"?>
<!-- Generator: Adobe Illustrator 18.0.0, SVG Export Plug-In . SVG Version: 6.00 Build 0)  -->
<!DOCTYPE svg PUBLIC "-//W3C//DTD SVG 1.1//EN" "http://www.w3.org/Graphics/SVG/1.1/DTD/svg11.dtd">
<svg version="1.1" id="Layer_1" xmlns="http://www.w3.org/2000/svg" xmlns:xlink="http://www.w3.org/1999/xlink" x="0px" y="0px"
	 viewBox="0 0 48 48" enable-background="new 0 0 48 48" xml:space="preserve">
<g>
	<path fill="#F04B36" d="M0.5,29.4v-0.9l1.2-0.2v-8.2L0.5,20v-0.9h8v2.5H7.3l-0.1-1.4H3.1v3.4h4v1.1h-4v3.7h4.2l0.1-1.4h1.2v2.5H0.5
		z"/>
	<path fill="#F04B36" d="M17,23.6h-5.9v-1.2H17V23.6z M17,26.5h-5.9v-1.2H17V26.5z"/>
	<path fill="#F04B36" d="M29.4,21.1L29.4,21.1L26,29.4h-0.9l-3.4-8.3l0,0l0.1,4.2v3l1.2,0.2v0.9h-3.7v-0.9l1.2-0.2v-8.2L19.3,20
		v-0.9h1.2h1.8l3.3,8.4h0l3.3-8.4h3V20l-1.2,0.2v8.2l1.2,0.2v0.9h-3.7v-0.9l1.2-0.2v-3L29.4,21.1z"/>
	<path fill="#F04B36" d="M41.6,22.2h-1l-0.3-1.5c-0.2-0.2-0.5-0.4-0.8-0.5c-0.3-0.1-0.7-0.2-1.2-0.2c-1.1,0-1.9,0.4-2.5,1.2
		c-0.6,0.8-0.9,1.8-0.9,3v0.2c0,1.2,0.3,2.2,0.9,3c0.6,0.8,1.4,1.2,2.4,1.2c0.5,0,0.9-0.1,1.3-0.2c0.4-0.1,0.7-0.3,0.9-0.5l0.3-1.5
		h1v1.8c-0.3,0.4-0.7,0.7-1.3,1c-0.6,0.3-1.3,0.5-2.1,0.5c-1.3,0-2.5-0.5-3.3-1.5c-0.9-1-1.3-2.2-1.3-3.8v-0.1
		c0-1.5,0.4-2.8,1.3-3.8c0.8-1,2-1.5,3.3-1.5c0.8,0,1.5,0.2,2.1,0.5c0.6,0.3,1,0.6,1.3,1V22.2z"/>
	<path fill="#F04B36" d="M43.6,24.6V24l2-2.2c0.4-0.4,0.6-0.7,0.7-0.9c0.1-0.2,0.2-0.5,0.2-0.7c0-0.3-0.1-0.6-0.3-0.8
		c-0.2-0.2-0.4-0.3-0.7-0.3c-0.4,0-0.7,0.1-0.9,0.3c-0.2,0.2-0.3,0.5-0.3,0.9h-0.8l0,0c0-0.5,0.2-1,0.5-1.3c0.4-0.4,0.9-0.5,1.5-0.5
		c0.5,0,1,0.2,1.3,0.5c0.3,0.3,0.5,0.7,0.5,1.2c0,0.3-0.1,0.7-0.3,1c-0.2,0.3-0.5,0.7-0.8,1.1l-1.6,1.7l0,0h2.1l0.1-0.7h0.7v1.3
		H43.6z"/>
</g>
</svg>
