<?xml version="1.0" encoding="utf-8"?>
<!-- Generator: Adobe Illustrator 18.0.0, SVG Export Plug-In . SVG Version: 6.00 Build 0)  -->
<!DOCTYPE svg PUBLIC "-//W3C//DTD SVG 1.1//EN" "http://www.w3.org/Graphics/SVG/1.1/DTD/svg11.dtd">
<svg version="1.1" id="Layer_1" xmlns="http://www.w3.org/2000/svg" xmlns:xlink="http://www.w3.org/1999/xlink" x="0px" y="0px"
	 viewBox="0 0 48 48" enable-background="new 0 0 48 48" xml:space="preserve">
<g>
	<path fill="#E77528" d="M28.8,47.5c-1.8,0-4.2-1-7.3-3c-0.7-0.4-0.8-1.3-0.4-2c0.4-0.7,1.3-0.8,2-0.4c4,2.6,5.8,2.7,6,2.5
		c0.5-0.9-1.8-6.8-10.4-15.4C10.2,20.7,4.3,18.4,3.4,18.9c-0.5,0.9,1.8,6.8,10.4,15.4c0.3,0.3,0.6,0.6,0.9,0.9c0.6,0.5,0.6,1.4,0,2
		c-0.5,0.6-1.4,0.6-2,0c-0.3-0.3-0.6-0.6-1-0.9c-3.8-3.8-7-7.7-9-11.1c-2.4-4-2.8-6.8-1.4-8.3c3.6-3.6,13.9,4.8,19.4,10.3
		c5.5,5.5,13.9,15.8,10.4,19.4C30.6,47.2,29.8,47.5,28.8,47.5z"/>
	<path fill="#F04B36" d="M23.2,34.4c-1.2-1.2-2.8-1.8-4.5-1.8c-1.7,0-3.3,0.7-4.5,1.8c-2.5,2.5-2.5,6.4,0,8.9
		c1.2,1.2,2.8,1.8,4.5,1.8c1.4,0,2.7-0.5,3.8-1.3c0.1-0.1,0.2-0.1,0.2-0.2c0.1-0.1,0.3-0.2,0.4-0.4c1.2-1.2,1.8-2.8,1.8-4.5
		C25,37.1,24.4,35.6,23.2,34.4z"/>
	<path fill="#7C963B" d="M44,11.7c-0.4,0-0.7-0.1-1-0.4c-0.6-0.6-0.6-1.5,0-2C44.7,7.5,45.2,5.1,44,4c-1.2-1.2-3.6-0.7-5.3,1.1
		c-0.6,0.6-1.5,0.6-2,0c-0.6-0.6-0.6-1.5,0-2c2.9-2.9,7.1-3.3,9.3-1.1c2.3,2.3,1.8,6.5-1.1,9.3C44.7,11.6,44.4,11.7,44,11.7z"/>
	<path fill="#F7A93B" d="M46.4,15.1c-0.3-3.1-1.9-6.2-4.6-8.9c-3-3-6.5-4.6-9.9-4.6c-2.7,0-5.2,1-7.1,2.9c0,0-0.1,0.1-0.1,0.1
		C23.2,6.2,14.2,15,3.4,16.5c-0.4,0-0.6,0.3-0.8,0.7c-0.1,0.3,0,0.7,0.3,1c0.2,0.2,0.5,0.3,0.8,0.3c2.4,0,8.5,3.6,15.4,10.5
		c6.9,6.9,10.6,13.2,10.5,15.5c0,0.3,0.1,0.5,0.3,0.7l0,0c0.2,0.2,0.4,0.3,0.7,0.3c0.1,0,0.2,0,0.3-0.1c0.3-0.1,0.6-0.4,0.6-0.8
		c1.4-10.7,10.2-19.7,12-21.4c0,0,0.1-0.1,0.1-0.1C45.7,21,46.7,18.1,46.4,15.1z M35.9,9.8c-0.3,0.5-0.8,0.6-1.3,0.4
		c-0.8-0.4-3.5-0.4-6.3,2.5c-3.3,3.5-8.9,6.1-9.1,6.2c-0.1,0.1-0.3,0.1-0.4,0.1c-0.4,0-0.7-0.2-0.9-0.6c-0.2-0.5,0-1,0.5-1.3
		c0.1,0,5.5-2.5,8.5-5.7c3.4-3.6,7.1-3.7,8.6-2.9C35.9,8.8,36.1,9.3,35.9,9.8z"/>
</g>
</svg>
