<?xml version="1.0" encoding="utf-8"?>
<!-- Generator: Adobe Illustrator 18.0.0, SVG Export Plug-In . SVG Version: 6.00 Build 0)  -->
<!DOCTYPE svg PUBLIC "-//W3C//DTD SVG 1.1//EN" "http://www.w3.org/Graphics/SVG/1.1/DTD/svg11.dtd">
<svg version="1.1" id="Layer_1" xmlns="http://www.w3.org/2000/svg" xmlns:xlink="http://www.w3.org/1999/xlink" x="0px" y="0px"
	 viewBox="0 0 48 48" enable-background="new 0 0 48 48" xml:space="preserve">
<g>
	<path fill="#06728D" d="M32.3,9.4l-2-4.3c-0.3-0.6-0.9-1-1.5-1h-1.4c0.8-0.4,1.3-0.9,1.3-1.5c0-1.2-2.1-2.2-4.8-2.2
		c-2.6,0-4.8,1-4.8,2.2c0,0.6,0.5,1.1,1.3,1.5h-1.4c-0.7,0-1.3,0.4-1.5,1l-2,4.3c-0.5,1.1,0.3,2.4,1.5,2.4h13.6
		C32,11.8,32.8,10.6,32.3,9.4z"/>
	<g>
		<path fill="#F04B36" d="M24,20.1c-5.5,0-10,4.5-10,10s4.5,10,10,10c5.5,0,10-4.5,10-10S29.5,20.1,24,20.1z M22.3,33.7l-0.6-2.1
			h-2.4l-0.6,2.1h-1.9l2.5-8.3h2.5l2.6,8.3H22.3z M31.5,31h-2.6v2.7h-1.2V31h-2.6v-1.2h2.6v-2.7h1.2v2.7h2.6V31z"/>
	</g>
	<g>
		<path fill="#F04B36" d="M20.5,26.8L20.5,26.8c-0.1,0.5-0.3,1.1-0.4,1.6l-0.5,1.8h1.8l-0.5-1.8C20.7,27.9,20.6,27.3,20.5,26.8z"/>
	</g>
	<g>
		<path fill="#F7A93B" d="M38,7h-4.4l0.6,1.2c0.5,1.1,0.4,2.5-0.3,3.5c-0.7,1.1-1.8,1.7-3.1,1.7H17.2c-1.3,0-2.4-0.6-3.1-1.7
			c-0.7-1.1-0.8-2.4-0.3-3.5L14.4,7H10C8.4,7,7.2,8.2,7.2,9.6v35.2c0,1.4,1.3,2.6,2.8,2.6H38c1.5,0,2.8-1.2,2.8-2.6V9.6
			C40.8,8.2,39.6,7,38,7z M24,42.2c-6.7,0-12.1-5.4-12.1-12.1S17.3,18,24,18c6.7,0,12.1,5.4,12.1,12.1S30.7,42.2,24,42.2z"/>
	</g>
</g>
</svg>
