<?xml version="1.0" encoding="utf-8"?>
<!-- Generator: Adobe Illustrator 18.0.0, SVG Export Plug-In . SVG Version: 6.00 Build 0)  -->
<!DOCTYPE svg PUBLIC "-//W3C//DTD SVG 1.1//EN" "http://www.w3.org/Graphics/SVG/1.1/DTD/svg11.dtd">
<svg version="1.1" id="Layer_1" xmlns="http://www.w3.org/2000/svg" xmlns:xlink="http://www.w3.org/1999/xlink" x="0px" y="0px"
	 viewBox="0 0 48 48" enable-background="new 0 0 48 48" xml:space="preserve">
<g>
	<path fill="#CFD0D1" d="M14.3,19.2c0.3,0,0.6,0.1,0.9,0.2c0.6-1.7,1.4-3.7,2.9-5.1c0.4-0.4,0.9-0.7,1.5-1c-6.1-6.5-6.8-11.9-6.8-12
		c-0.1-0.5-0.5-0.9-1-0.9c-0.1,0-9.7,0.7-11.5,9.7c-0.1,0.4,0.1,0.9,0.6,1.1c0.1,0,5.6,2.6,11.9,8C13.3,19.2,13.8,19.1,14.3,19.2z"
		/>
	<path fill="#CFD0D1" d="M45.5,32.4c-1.2-1.3-5.4-4.1-9-0.8c-1.4,1.3-2.1,2.8-2.1,4.4c0,2,1.1,3.7,2.1,4.6c0.4,0.4,1,0.3,1.4-0.1
		c0.4-0.4,0.3-1-0.1-1.4c-0.7-0.6-1.4-1.8-1.4-3.2c0-1.1,0.5-2.1,1.5-3c2.8-2.6,6.2,0.6,6.3,0.7c1.4,1.5,1.7,3.3,1.6,4.5
		c-0.1,1.9-0.9,3.8-2.1,4.8c-2.4,2.1-4.9,2.9-7.5,2.2c-3.1-0.8-5.5-3.4-6.1-4.9c-0.2-0.4-0.3-0.9-0.5-1.3c-0.1-3.7,0.8-6.6,2.6-8.6
		c2.5-2.7,6.1-2.9,6.1-2.9c0.5,0,0.8-0.3,0.9-0.8c0.1-0.4-0.2-0.9-0.6-1.1c-6.2-2.6-10.9-5.5-14.5-8.3c-0.2-0.1-0.4-0.2-0.5-0.4
		c-0.6-0.5-1.2-1-1.7-1.5c-0.7,0.1-1.4,0.4-1.8,0.8c-1.1,1-1.6,2.5-2.2,4.2c-0.2,0.4-0.3,0.9-0.5,1.4c0.1,0.6,0.2,1.2,0.1,1.9
		c0,0,0,0,0,0.1c3.8,4.1,7.5,9.3,10.2,15.8c0,0,0,0,0,0c0.2,0.5,0.4,0.9,0.6,1.4c0.8,2,3.6,5.2,7.4,6.1c0.6,0.2,1.4,0.3,2.2,0.3
		c2,0,4.5-0.7,7.1-2.9c1.6-1.4,2.6-3.8,2.7-6.2C47.8,36.1,47,33.9,45.5,32.4z"/>
	<path fill="#F04B36" d="M17.7,33.7c-0.4,0-0.7-0.2-0.9-0.5c-0.2-0.3-0.4-0.7-0.5-1c-0.9-1.5-1.8-3.3-1.9-5.2c0-0.3,0-0.6,0.1-0.9
		l0.2-1l-0.9,0.5c-0.6,0.3-1.1,0.5-1.6,0.5c-0.2,0-0.3,0-0.5-0.1c-1-0.3-1.5-1.3-1.2-3c0.3-2.3,2-3.4,3.5-3.4c0.1,0,0.3,0,0.4,0
		c0.3,0,0.5,0.1,0.8,0.2l0.5,0.2l0.2-0.5c0.7-1.9,1.4-3.6,2.8-4.9c0.8-0.7,2.3-1.5,3.9-1.5c0.5,0,0.9,0.1,1.3,0.2
		c1.2,0.4,1.9,1.3,2.1,2.7c0.1,0.5-0.3,1-0.8,1.1c-0.1,0-0.1,0-0.2,0c-0.5,0-0.9-0.3-1-0.8c-0.1-0.8-0.6-1.1-0.9-1.2
		c-0.2-0.1-0.4-0.1-0.7-0.1c-0.9,0-1.9,0.4-2.6,1c-1.2,1.1-1.7,2.7-2.3,4.4c-0.2,0.4-0.3,0.9-0.5,1.3l-0.1,0.1l0,0.2
		c0.1,0.5,0.2,1.1,0.1,1.7c-0.1,0.6-0.2,1.1-0.4,1.5c-0.2,0.6-0.3,1-0.3,1.6c0,1.5,0.8,2.9,1.6,4.3c0.2,0.3,0.4,0.7,0.6,1
		c0.1,0.2,0.1,0.5,0.1,0.7c-0.1,0.2-0.2,0.4-0.5,0.6C18,33.6,17.8,33.7,17.7,33.7z M13.8,21.6c-0.6,0-1.4,0.4-1.5,1.7l-0.2,1.1
		l0.9-0.7c0.5-0.4,1-0.9,1.4-1.3l0.4-0.6l-0.7-0.2c-0.1,0-0.1,0-0.2,0C13.9,21.6,13.9,21.6,13.8,21.6z"/>
</g>
</svg>
