<?xml version="1.0" encoding="utf-8"?>
<!-- Generator: Adobe Illustrator 18.0.0, SVG Export Plug-In . SVG Version: 6.00 Build 0)  -->
<!DOCTYPE svg PUBLIC "-//W3C//DTD SVG 1.1//EN" "http://www.w3.org/Graphics/SVG/1.1/DTD/svg11.dtd">
<svg version="1.1" id="Layer_1" xmlns="http://www.w3.org/2000/svg" xmlns:xlink="http://www.w3.org/1999/xlink" x="0px" y="0px"
	 viewBox="0 0 48 48" enable-background="new 0 0 48 48" xml:space="preserve">
<g>
	<path fill="#4DA0D8" d="M24.3,47.5c-0.4,0-0.8-0.2-1.1-0.5c-0.5-0.6-0.4-1.5,0.2-2l18.8-14.7L27.3,14c-0.5-0.6-0.5-1.5,0.1-2
		c0.6-0.5,1.5-0.5,2,0.1l16,17.4c0.3,0.3,0.4,0.7,0.4,1.1c0,0.4-0.2,0.8-0.5,1l-20,15.7C24.9,47.4,24.6,47.5,24.3,47.5z"/>
	<path fill="#F04B36" d="M32.4,2.6l-0.5-0.5c-2.1-2.1-5.5-2.1-7.6,0l-5.4,5.4c1.8,0.7,3.5,1.8,4.9,3.2c1.4,1.4,2.5,3.1,3.2,4.9
		l5.4-5.4C34.5,8.1,34.5,4.7,32.4,2.6z"/>
	<path fill="#E8B944" d="M15.7,26.6l-0.7-0.7l-6.5-6.5l-0.7-0.7L7,18c-0.4,0.3-0.8,0.6-1.2,0.9c-2.6,2.6-2.6,6.9,0,9.6
		c1.3,1.3,3,2,4.8,2c1.7,0,3.5-0.7,4.8-2c0.4-0.4,0.7-0.7,0.9-1.2L15.7,26.6z"/>
	<path fill="#06728D" d="M26.4,16.2c-0.7-1.8-1.8-3.5-3.2-4.9c-1.4-1.4-3.1-2.5-4.9-3.2c-1.6-0.6-3.4-1-5.2-1
		C9.3,7.1,5.7,8.6,3,11.3c-0.4,0.4-0.4,1,0,1.3l4.8,4.8l0.7,0.7l0.7,0.7l6.5,6.5l0.7,0.7l0.7,0.7l4.8,4.8c0.2,0.2,0.4,0.3,0.7,0.3
		c0.2,0,0.5-0.1,0.7-0.3C27.3,27.4,28.4,21.3,26.4,16.2z"/>
	<path fill="#CFD0D1" d="M40.4,47.5H3.7c-0.8,0-1.4-0.6-1.4-1.4c0-0.8,0.6-1.4,1.4-1.4h36.8c0.8,0,1.4,0.6,1.4,1.4
		C41.8,46.9,41.2,47.5,40.4,47.5z"/>
</g>
</svg>
