<?xml version="1.0" encoding="utf-8"?>
<!-- Generator: Adobe Illustrator 18.0.0, SVG Export Plug-In . SVG Version: 6.00 Build 0)  -->
<!DOCTYPE svg PUBLIC "-//W3C//DTD SVG 1.1//EN" "http://www.w3.org/Graphics/SVG/1.1/DTD/svg11.dtd">
<svg version="1.1" id="Layer_1" xmlns="http://www.w3.org/2000/svg" xmlns:xlink="http://www.w3.org/1999/xlink" x="0px" y="0px"
	 viewBox="0 0 48 48" enable-background="new 0 0 48 48" xml:space="preserve">
<g>
	<polygon fill="#0DB89A" points="23,12.7 25,12.7 24,10.3 	"/>
	<path fill="#0DB89A" d="M30.2,0.5H17.8c-2.8,0-5.2,2.3-5.2,5.2v12.5c0,2.9,2.3,5.2,5.2,5.2h12.3c2.8,0,5.2-2.3,5.2-5.2V5.7
		C35.3,2.8,33,0.5,30.2,0.5z M29.2,18.6c-0.7,0.3-1.6,0-1.9-0.8l-1-2.3h-4.6l-1,2.3c-0.2,0.5-0.8,0.9-1.3,0.9c-0.2,0-0.4,0-0.6-0.1
		c-0.7-0.3-1.1-1.2-0.8-1.9l4.6-10.6c0.2-0.5,0.8-0.9,1.3-0.9c0.6,0,1.1,0.3,1.3,0.9l4.6,10.6C30.3,17.4,29.9,18.3,29.2,18.6z"/>
	<path fill="#F04B36" d="M42.3,24.5H30c-2.8,0-5.2,2.3-5.2,5.2v12.5c0,2.9,2.3,5.2,5.2,5.2h12.3c2.8,0,5.2-2.3,5.2-5.2V29.8
		C47.5,26.9,45.2,24.5,42.3,24.5z M36.6,40.5c1,0,1.9-0.6,2.5-1.6c0.4-0.7,1.3-0.9,2-0.4c0.7,0.4,0.9,1.3,0.4,2
		c-1.2,1.9-3,2.9-5,2.9c-3.4,0-6.3-3.3-6.3-7.4c0-4.1,2.8-7.4,6.3-7.4c2.1,0,4,1.2,5.2,3.2c0.4,0.7,0.2,1.6-0.5,2
		c-0.7,0.4-1.6,0.2-2-0.5c-0.6-1.1-1.6-1.7-2.6-1.7c-1.8,0-3.3,2-3.3,4.5C33.3,38.5,34.8,40.5,36.6,40.5z"/>
	<path fill="#4DA0D8" d="M12,37.1h-0.6H9.2v3.2H12c1.3,0,2.4-0.7,2.4-1.6C14.4,37.8,13.3,37.1,12,37.1z"/>
	<path fill="#4DA0D8" d="M13.3,33c0-0.6-0.8-1.2-1.9-1.2H9.2v2.4h2.2C12.5,34.2,13.3,33.5,13.3,33z"/>
	<path fill="#4DA0D8" d="M18,24.5H5.7c-2.8,0-5.2,2.3-5.2,5.2v12.5c0,2.9,2.3,5.2,5.2,5.2H18c2.8,0,5.2-2.3,5.2-5.2V29.8
		C23.1,26.9,20.8,24.5,18,24.5z M12,43.2H7.8c-0.8,0-1.5-0.7-1.5-1.5v-6.1v-5.3c0-0.8,0.7-1.5,1.5-1.5h3.7c2.6,0,4.8,1.8,4.8,4.1
		c0,0.8-0.3,1.6-0.8,2.3c1.1,0.8,1.9,2.1,1.9,3.4C17.3,41.2,14.9,43.2,12,43.2z"/>
</g>
</svg>
