<?xml version="1.0" encoding="utf-8"?>
<!-- Generator: Adobe Illustrator 18.0.0, SVG Export Plug-In . SVG Version: 6.00 Build 0)  -->
<!DOCTYPE svg PUBLIC "-//W3C//DTD SVG 1.1//EN" "http://www.w3.org/Graphics/SVG/1.1/DTD/svg11.dtd">
<svg version="1.1" id="Layer_1" xmlns="http://www.w3.org/2000/svg" xmlns:xlink="http://www.w3.org/1999/xlink" x="0px" y="0px"
	 viewBox="0 0 48 48" enable-background="new 0 0 48 48" xml:space="preserve">
<g>
	<path fill="#F04B36" d="M17.1,27c-0.1,0-0.1,0-0.2,0l-7.4-0.7c-0.6-0.1-1-0.4-1.2-1c-0.2-0.5,0-1.1,0.4-1.5l10.1-9
		c0.3-0.3,0.7-0.4,1.1-0.3L24,15c0.8,0.1,1.3,0.8,1.2,1.6c-0.1,0.8-0.8,1.3-1.6,1.2l-3.5-0.5L13,23.8l4.2,0.4
		c0.8,0.1,1.3,0.8,1.3,1.5C18.4,26.4,17.8,26.9,17.1,27z"/>
	<path fill="#F04B36" d="M24.4,39.8c-0.2,0-0.4,0-0.5-0.1c-0.5-0.2-0.9-0.7-0.9-1.2l-0.4-7.3c0-0.8,0.6-1.4,1.3-1.5
		c0.8,0,1.4,0.6,1.5,1.3l0.2,4.1l6.5-6.7l-0.3-3.4c-0.1-0.8,0.5-1.5,1.3-1.5c0.8-0.1,1.5,0.5,1.5,1.3l0.4,4c0,0.4-0.1,0.8-0.4,1.1
		l-9.2,9.4C25.1,39.7,24.8,39.8,24.4,39.8z"/>
	<path fill="#4DA0D8" d="M46.2,1.2C46,1,45.7,0.9,45.4,0.9C28.8,3.8,16.7,24.4,16.2,25.3c-0.2,0.4-0.1,0.9,0.2,1.2l6.1,5.7
		c0.2,0.2,0.4,0.3,0.7,0.3c0.1,0,0.3,0,0.4-0.1C42.4,22.8,46.5,2.2,46.5,2C46.5,1.7,46.5,1.4,46.2,1.2z M34.9,13l-9,10
		c-0.2,0.2-0.4,0.3-0.7,0.3c-0.2,0-0.5-0.1-0.6-0.2c-0.4-0.3-0.4-0.9-0.1-1.3l9-10c0.3-0.4,0.9-0.4,1.3-0.1
		C35.2,12,35.3,12.6,34.9,13z"/>
	<path fill="#0DB89A" d="M2.5,35.3c-0.3,0-0.7-0.2-0.8-0.5c-0.2-0.5-0.1-1,0.4-1.3L14.3,27c0.5-0.2,1-0.1,1.3,0.4
		c0.2,0.5,0.1,1-0.4,1.3L2.9,35.2C2.7,35.2,2.6,35.3,2.5,35.3z"/>
	<path fill="#0DB89A" d="M14.4,46.9c-0.2,0-0.3,0-0.5-0.1c-0.5-0.2-0.6-0.8-0.4-1.3l6.4-11.9c0.2-0.5,0.8-0.6,1.3-0.4
		c0.5,0.2,0.6,0.8,0.4,1.3l-6.4,11.9C15.1,46.7,14.8,46.9,14.4,46.9z"/>
	<path fill="#0DB89A" d="M9.2,46.1c-0.2,0-0.4-0.1-0.6-0.2c-0.4-0.3-0.5-0.9-0.2-1.3l6-8.7c0.3-0.4,0.9-0.5,1.3-0.2
		c0.4,0.3,0.5,0.9,0.2,1.3l-6,8.7C9.8,45.9,9.5,46.1,9.2,46.1z"/>
	<path fill="#0DB89A" d="M7.7,38.3c-0.3,0-0.6-0.1-0.8-0.4c-0.3-0.4-0.2-1,0.2-1.3l7.2-5.4c0.4-0.3,1-0.2,1.3,0.2
		c0.3,0.4,0.2,1-0.2,1.3l-7.2,5.4C8.1,38.2,7.9,38.3,7.7,38.3z"/>
</g>
</svg>
