<?xml version="1.0" encoding="utf-8"?>
<!-- Generator: Adobe Illustrator 18.0.0, SVG Export Plug-In . SVG Version: 6.00 Build 0)  -->
<!DOCTYPE svg PUBLIC "-//W3C//DTD SVG 1.1//EN" "http://www.w3.org/Graphics/SVG/1.1/DTD/svg11.dtd">
<svg version="1.1" id="Layer_1" xmlns="http://www.w3.org/2000/svg" xmlns:xlink="http://www.w3.org/1999/xlink" x="0px" y="0px"
	 viewBox="0 0 48 48" enable-background="new 0 0 48 48" xml:space="preserve">
<g>
	<path fill="#0DB89A" d="M45.9,15.6c-0.1-0.3-0.3-0.6-0.7-0.7l-14.4-4.4c0,0.2,0.1,0.4,0.1,0.6c0.1,0.4-0.1,0.8-0.4,1
		c-3.1,2-6.6,3-10.3,3c-2.4,0-4.4-0.4-5.7-0.8c-0.4-0.1-0.7-0.4-0.7-0.8c0-0.2,0-0.4,0-0.5L1,20.6c0,0,0,0,0,0c0,0,0,0,0,0
		c-0.1,0.1-0.1,0.1-0.2,0.2c0,0,0,0-0.1,0.1c-0.1,0.1-0.1,0.2-0.1,0.3c0,0,0,0,0,0c0,0.1,0,0.2,0,0.3c0,0,0,0.1,0,0.1
		c0,0.1,0.1,0.2,0.1,0.2c0,0,0,0,0,0.1c0.1,0.1,0.1,0.2,0.2,0.2c0.1,0,0.1,0.1,0.2,0.1c0.1,0.1,8.3,3.2,18.7,3.2
		c8.1,0,17.5-1.9,25.5-8.7c0.1-0.1,0.2-0.2,0.3-0.3C45.9,16.3,46,16,45.9,15.6z"/>
	<path fill="#E77528" d="M29.7,10.9c0-0.2-0.1-0.3-0.1-0.5c-0.8-3.2-3.8-5.5-7.1-5.5c-4.1,0-7.4,3.3-7.4,7.4c0,0.1,0,0.1,0,0.2
		c0,0.2,0,0.3,0,0.5c0,0.3,0.3,0.6,0.6,0.7c1.1,0.3,2.8,0.7,4.9,0.7c3.2,0,6.1-0.9,8.8-2.6C29.6,11.5,29.8,11.2,29.7,10.9z"/>
	<path fill="#06728D" d="M47.4,41.1l-7.7-15.9c2.7-3.1,4.9-6.1,5.7-7.2c-8,6.8-17.4,8.7-25.5,8.7c-10.3,0-18.5-3.1-18.7-3.2
		c-0.1,0-0.1-0.1-0.2-0.1c0,0,0,0,0,0c0.2,0.1,0.5,0.4,0.9,0.7c1.8,1.2,5.2,3.6,9.1,5.9L5.6,41.1c-0.3,0.7,0,1.6,0.7,1.9
		c0.2,0.1,0.4,0.1,0.6,0.1c0.5,0,1.1-0.3,1.3-0.8l5.2-11c0.8,0.4,1.5,0.8,2.3,1.2l1.1,0.5c3.8,1.7,6.7,2.5,8.9,2.5
		c0.6,0,1.2-0.1,1.7-0.2c2.1-0.6,4.6-2.4,7.8-5.5l0.9-0.9c0.5-0.5,1-1,1.4-1.5l7.2,14.8c0.2,0.5,0.8,0.8,1.3,0.8
		c0.2,0,0.4,0,0.6-0.1C47.4,42.7,47.7,41.8,47.4,41.1z"/>
</g>
</svg>
