<?xml version="1.0" encoding="utf-8"?>
<!-- Generator: Adobe Illustrator 18.0.0, SVG Export Plug-In . SVG Version: 6.00 Build 0)  -->
<!DOCTYPE svg PUBLIC "-//W3C//DTD SVG 1.1//EN" "http://www.w3.org/Graphics/SVG/1.1/DTD/svg11.dtd">
<svg version="1.1" id="Layer_1" xmlns="http://www.w3.org/2000/svg" xmlns:xlink="http://www.w3.org/1999/xlink" x="0px" y="0px"
	 viewBox="0 0 48 48" enable-background="new 0 0 48 48" xml:space="preserve">
<g>
	<path fill="#F04B36" d="M36.8,29.2c-0.6,0-1,0.4-1,1v7.5l-16.7,3l-16.7-3V16.3l2-0.7c0.5-0.2,0.8-0.8,0.6-1.3
		c-0.2-0.5-0.8-0.8-1.3-0.6l-2.6,1c-0.4,0.1-0.7,0.5-0.7,0.9v22.9c0,0.5,0.3,0.9,0.8,1L19,42.6c0.1,0,0.1,0,0.2,0c0,0,0,0,0,0h0h0
		l0,0c0.1,0,0.1,0,0.2,0L37,39.5c0.5-0.1,0.8-0.5,0.8-1v-8.3C37.8,29.6,37.3,29.2,36.8,29.2z"/>
	<path fill="#F7A93B" d="M21.6,17.7c0-2.7,0.8-5.2,2.1-7.3c0,0,0,0,0,0c-1.6,0.3-3.1,0.9-4.5,1.7C14.3,9.4,8.4,9.5,3.6,12.5
		c-0.3,0.2-0.5,0.5-0.5,0.8v23.6c0,0.4,0.2,0.7,0.5,0.9c0.3,0.2,0.7,0.2,1,0c4.3-2.7,9.7-2.7,13.9,0c0,0,0,0,0,0c0,0,0,0,0,0
		c0,0,0.1,0,0.1,0c0,0,0.1,0,0.1,0c0,0,0.1,0,0.1,0c0,0,0.1,0,0.1,0c0,0,0,0,0,0c0,0,0.1,0,0.1,0c0.1,0,0.1,0,0.2,0c0,0,0.1,0,0.1,0
		c0,0,0.1,0,0.1,0c0,0,0,0,0,0c0,0,0,0,0,0c4.4-2.7,9.6-2.7,13.9,0c0.2,0.1,0.3,0.2,0.5,0.2c0.2,0,0.3,0,0.5-0.1
		c0.3-0.2,0.5-0.5,0.5-0.9v-5.7c0,0,0,0,0,0C27.7,31.3,21.6,25.2,21.6,17.7z"/>
	<path fill="#010101" d="M24.2,9.7C24.2,9.7,24.2,9.7,24.2,9.7C24.2,9.7,24.2,9.7,24.2,9.7z"/>
	<path fill="#06728D" d="M39,14.9c0.3,0.4,0.5,0.9,0.6,1.4l7.6,1.3c0.1,0,0.2,0.1,0.3,0.1c0,0,0,0,0,0c0-3.1-1.2-6-3.1-8.2L39,14.9z
		"/>
	<path fill="#CFD0D1" d="M23.3,16.3l7.3,0.4c0.1-0.9,0.6-1.8,1.3-2.6c1.5-1.5,3.9-1.7,5.7-0.6L43,8.2c-2.1-1.8-4.9-2.8-7.8-2.8
		c-6.4,0-11.6,4.8-12.2,11C23.1,16.3,23.2,16.3,23.3,16.3z"/>
	<path fill="#06728D" d="M26.9,26.1l4.7-5.9c-0.4-0.5-0.6-1-0.8-1.5l-7.6-0.4c-0.1,0-0.2,0-0.3-0.1c0.1,3.3,1.6,6.3,3.8,8.4
		C26.7,26.4,26.8,26.2,26.9,26.1z"/>
	<circle fill="#4DA0D8" cx="35.2" cy="17.4" r="2.6"/>
	<path fill="#CFD0D1" d="M46.9,19.5l-7.3-1.2c-0.2,0.8-0.6,1.6-1.2,2.3c-1.4,1.4-3.6,1.7-5.3,0.8l-4.7,5.9c-0.1,0.2-0.3,0.2-0.5,0.3
		c2,1.5,4.5,2.4,7.3,2.4c6.2,0,11.3-4.6,12.2-10.5C47.2,19.5,47.1,19.5,46.9,19.5z"/>
</g>
</svg>
