<?xml version="1.0" encoding="utf-8"?>
<!-- Generator: Adobe Illustrator 18.0.0, SVG Export Plug-In . SVG Version: 6.00 Build 0)  -->
<!DOCTYPE svg PUBLIC "-//W3C//DTD SVG 1.1//EN" "http://www.w3.org/Graphics/SVG/1.1/DTD/svg11.dtd">
<svg version="1.1" id="Layer_1" xmlns="http://www.w3.org/2000/svg" xmlns:xlink="http://www.w3.org/1999/xlink" x="0px" y="0px"
	 viewBox="0 0 48 48" enable-background="new 0 0 48 48" xml:space="preserve">
<g>
	<g>
		<path fill="#4DA0D8" d="M24,44.5c-0.1,0-0.1,0-0.2,0l-22.5-4c-0.5-0.1-0.8-0.5-0.8-1V10.2c0-0.4,0.3-0.8,0.6-0.9l3.4-1.2
			C5,7.9,5.6,8.2,5.8,8.7c0.2,0.5-0.1,1.1-0.6,1.2l-2.7,1v27.8l21.7,3.9c0.5,0.1,0.9,0.6,0.8,1.1C24.9,44.1,24.5,44.5,24,44.5z"/>
		<path fill="#4DA0D8" d="M24,44.5c-0.5,0-0.9-0.3-1-0.8c-0.1-0.5,0.3-1,0.8-1.1l21.7-3.9V10.9l-2.7-1c-0.5-0.2-0.8-0.7-0.6-1.2
			c0.2-0.5,0.7-0.8,1.2-0.6l3.4,1.2c0.4,0.1,0.6,0.5,0.6,0.9v29.3c0,0.5-0.3,0.9-0.8,1l-22.5,4C24.1,44.5,24.1,44.5,24,44.5z"/>
	</g>
	<path fill="#F04B36" d="M43.7,6.5c-3.1-1.9-6.6-3-10.1-3c-3.3,0-6.6,0.9-9.6,2.7c-3-1.7-6.3-2.7-9.6-2.7c-3.5,0-7,1-10.1,3
		C4,6.7,3.9,7,3.9,7.3v30.2c0,0.4,0.2,0.7,0.5,0.8c0.3,0.2,0.7,0.2,1,0c2.8-1.7,5.9-2.7,9.1-2.7c3.1,0,6.3,0.9,9.1,2.7c0,0,0,0,0,0
		c0,0,0,0,0,0c0,0,0.1,0,0.1,0c0,0,0.1,0,0.1,0c0.1,0,0.1,0,0.2,0c0,0,0.1,0,0.1,0c0,0,0,0,0,0c0,0,0.1,0,0.1,0c0.1,0,0.1,0,0.2,0
		c0,0,0.1,0,0.1,0c0,0,0.1,0,0.1,0c0,0,0,0,0,0c0,0,0,0,0,0c2.8-1.7,5.9-2.7,9.1-2.7c3.1,0,6.3,0.9,9.1,2.7c0.2,0.1,0.3,0.1,0.5,0.1
		c0.2,0,0.3,0,0.5-0.1c0.3-0.2,0.5-0.5,0.5-0.8V7.3C44.1,7,44,6.7,43.7,6.5z"/>
</g>
</svg>
