<?xml version="1.0" encoding="utf-8"?>
<!-- Generator: Adobe Illustrator 18.0.0, SVG Export Plug-In . SVG Version: 6.00 Build 0)  -->
<!DOCTYPE svg PUBLIC "-//W3C//DTD SVG 1.1//EN" "http://www.w3.org/Graphics/SVG/1.1/DTD/svg11.dtd">
<svg version="1.1" id="Layer_1" xmlns="http://www.w3.org/2000/svg" xmlns:xlink="http://www.w3.org/1999/xlink" x="0px" y="0px"
	 viewBox="0 0 48 48" enable-background="new 0 0 48 48" xml:space="preserve">
<g>
	<path fill="#06728D" d="M35.9,0.9c-0.2-0.3-0.5-0.4-0.8-0.4h-5.5c-0.4,0-0.8,0.3-0.9,0.6L24,13.8L19.4,1.1
		c-0.1-0.4-0.5-0.6-0.9-0.6h-5.5c-0.3,0-0.6,0.2-0.8,0.4c-0.2,0.3-0.2,0.6-0.1,0.9L20,23.6c0.2,0.5,0.7,0.8,1.2,0.6
		c0.4-0.1,0.6-0.5,0.6-0.9h4.3c0,0.4,0.2,0.8,0.6,0.9c0.1,0,0.2,0.1,0.3,0.1c0.4,0,0.8-0.2,0.9-0.6L36,1.8
		C36.1,1.5,36.1,1.2,35.9,0.9z"/>
	<path fill="#F7A93B" d="M24,28.8c-3.1,0-5.7,2.5-5.7,5.7c0,3.1,2.6,5.7,5.7,5.7c3.1,0,5.7-2.5,5.7-5.7C29.7,31.3,27.1,28.8,24,28.8
		z"/>
	<path fill="#F04B36" d="M36.7,35.2c0.3-0.7,0.5-1.5,0.4-2.2c-0.1-0.7-0.5-1.3-0.9-2c-0.2-0.3-0.4-0.7-0.5-0.9
		c-0.1-0.2-0.1-0.6-0.2-1c-0.1-0.8-0.2-1.6-0.6-2.1c-0.4-0.5-1.1-0.9-1.8-1.3c-0.3-0.2-0.7-0.4-0.8-0.5c-0.1-0.1-0.4-0.5-0.6-0.8
		c-0.5-0.6-0.9-1.3-1.5-1.6c-0.6-0.3-1.4-0.3-2.2-0.3c-0.4,0-0.8,0-1-0.1c-0.2,0-0.6-0.2-0.9-0.4c-0.7-0.3-1.4-0.7-2.1-0.7
		c-0.6,0-1.3,0.3-2,0.7c-0.3,0.2-0.7,0.4-0.9,0.4c-0.2,0-0.6,0-0.9,0.1c-0.8,0-1.7,0.1-2.3,0.4c-0.6,0.3-1.1,1-1.6,1.7
		c-0.2,0.3-0.4,0.6-0.6,0.7c-0.1,0.1-0.5,0.4-0.9,0.5c-0.7,0.4-1.3,0.7-1.7,1.3c-0.4,0.5-0.5,1.3-0.6,2.1c-0.1,0.4-0.1,0.8-0.2,1
		c-0.1,0.2-0.3,0.5-0.5,0.9c-0.4,0.7-0.9,1.3-0.9,2c-0.1,0.7,0.2,1.4,0.4,2.2c0.1,0.3,0.3,0.7,0.3,0.9c0,0.2,0,0.6-0.1,1
		c-0.1,0.8-0.1,1.6,0.1,2.2c0.2,0.6,0.8,1.2,1.4,1.7c0.3,0.3,0.6,0.5,0.7,0.7c0.1,0.2,0.3,0.6,0.4,0.9c0.3,0.7,0.6,1.5,1.1,1.9
		c0.5,0.4,1.3,0.7,2,0.9c0.4,0.1,0.8,0.2,0.9,0.3c0.2,0.1,0.5,0.4,0.8,0.6c0.6,0.5,1.2,1,1.9,1.2c0.6,0.1,1.4,0,2.2-0.2
		c0.4-0.1,0.8-0.2,1-0.2c0.2,0,0.6,0.1,1,0.2c0.5,0.1,1.1,0.2,1.6,0.2c0.2,0,0.4,0,0.6-0.1c0.6-0.2,1.3-0.7,1.9-1.2
		c0.3-0.2,0.6-0.5,0.8-0.6c0.2-0.1,0.6-0.2,0.9-0.3c0.8-0.2,1.5-0.4,2-0.9c0.5-0.4,0.8-1.2,1.1-1.9c0.1-0.3,0.3-0.7,0.4-0.9
		c0.1-0.2,0.4-0.4,0.7-0.7c0.6-0.5,1.2-1.1,1.4-1.7c0.2-0.6,0.2-1.4,0.1-2.2c0-0.4-0.1-0.8-0.1-1C36.4,35.9,36.5,35.5,36.7,35.2z
		 M24,42.1c-4.2,0-7.6-3.4-7.6-7.6c0-4.2,3.4-7.6,7.6-7.6s7.6,3.4,7.6,7.6C31.6,38.7,28.2,42.1,24,42.1z"/>
</g>
</svg>
