<?xml version="1.0" encoding="utf-8"?>
<!-- Generator: Adobe Illustrator 18.0.0, SVG Export Plug-In . SVG Version: 6.00 Build 0)  -->
<!DOCTYPE svg PUBLIC "-//W3C//DTD SVG 1.1//EN" "http://www.w3.org/Graphics/SVG/1.1/DTD/svg11.dtd">
<svg version="1.1" id="Layer_1" xmlns="http://www.w3.org/2000/svg" xmlns:xlink="http://www.w3.org/1999/xlink" x="0px" y="0px"
	 viewBox="0 0 48 48" enable-background="new 0 0 48 48" xml:space="preserve">
<g>
	<path fill="#F04B36" d="M18,0.5H5.7c-2.8,0-5.2,2.3-5.2,5.2v12.5c0,2.9,2.3,5.2,5.2,5.2H18c2.8,0,5.2-2.3,5.2-5.2V5.7
		C23.1,2.8,20.8,0.5,18,0.5z M16.4,13H7.2c-0.5,0-1-0.4-1-1s0.4-1,1-1h9.3c0.5,0,1,0.4,1,1S17,13,16.4,13z"/>
	<path fill="#0DB89A" d="M18,24.5H5.7c-2.8,0-5.2,2.3-5.2,5.2v12.5c0,2.9,2.3,5.2,5.2,5.2H18c2.8,0,5.2-2.3,5.2-5.2V29.8
		C23.1,26.9,20.8,24.5,18,24.5z M16.4,39.3H7.2c-0.5,0-1-0.4-1-1s0.4-1,1-1h9.3c0.5,0,1,0.4,1,1S17,39.3,16.4,39.3z M16.4,34.7H7.2
		c-0.5,0-1-0.4-1-1c0-0.5,0.4-1,1-1h9.3c0.5,0,1,0.4,1,1C17.4,34.2,17,34.7,16.4,34.7z"/>
	<path fill="#06728D" d="M42.3,0.5H30c-2.8,0-5.2,2.3-5.2,5.2v12.5c0,2.9,2.3,5.2,5.2,5.2h12.3c2.8,0,5.2-2.3,5.2-5.2V5.7
		C47.5,2.8,45.2,0.5,42.3,0.5z M41.1,13h-3.9v3.9c0,0.5-0.4,1-1,1c-0.5,0-1-0.4-1-1V13h-3.9c-0.5,0-1-0.4-1-1s0.4-1,1-1h3.9V7.1
		c0-0.5,0.4-1,1-1c0.5,0,1,0.4,1,1V11h3.9c0.5,0,1,0.4,1,1S41.6,13,41.1,13z"/>
	<path fill="#4DA0D8" d="M42.3,24.5H30c-2.8,0-5.2,2.3-5.2,5.2v12.5c0,2.9,2.3,5.2,5.2,5.2h12.3c2.8,0,5.2-2.3,5.2-5.2V29.8
		C47.5,26.9,45.2,24.5,42.3,24.5z M40.3,38.8c0.4,0.4,0.4,1,0,1.4c-0.2,0.2-0.4,0.3-0.7,0.3c-0.2,0-0.5-0.1-0.7-0.3l-2.8-2.8
		l-2.8,2.8c-0.2,0.2-0.4,0.3-0.7,0.3c-0.2,0-0.5-0.1-0.7-0.3c-0.4-0.4-0.4-1,0-1.4l2.8-2.8L32,33.2c-0.4-0.4-0.4-1,0-1.4
		c0.4-0.4,1-0.4,1.4,0l2.8,2.8l2.8-2.8c0.4-0.4,1-0.4,1.4,0c0.4,0.4,0.4,1,0,1.4L37.6,36L40.3,38.8z"/>
</g>
</svg>
