<?xml version="1.0" encoding="utf-8"?>
<!-- Generator: Adobe Illustrator 18.0.0, SVG Export Plug-In . SVG Version: 6.00 Build 0)  -->
<!DOCTYPE svg PUBLIC "-//W3C//DTD SVG 1.1//EN" "http://www.w3.org/Graphics/SVG/1.1/DTD/svg11.dtd">
<svg version="1.1" id="Layer_1" xmlns="http://www.w3.org/2000/svg" xmlns:xlink="http://www.w3.org/1999/xlink" x="0px" y="0px"
	 viewBox="0 0 48 48" enable-background="new 0 0 48 48" xml:space="preserve">
<g>
	<path fill="#06728D" d="M10.7,33.1l-2.8-2.3c-9.8,12.4-7.4,14.9-6.4,15.8c0,0,0,0,0,0l2.7-2.7C4.3,42.7,5.7,39.4,10.7,33.1z"/>
	<path fill="#06728D" d="M30.9,7.8l2.2,2.9c6.3-4.9,9.5-6.3,10.7-6.5l2.7-2.7C45.7,0.5,43.2-1.9,30.9,7.8z"/>
	<path fill="#4DA0D8" d="M17.1,7.4C8,11.2,3.7,21.9,7.6,31.1c3.8,9.2,14.3,13.5,23.4,9.7S44.3,26.2,40.5,17
		C36.6,7.8,26.2,3.5,17.1,7.4z"/>
	<path fill="#06728D" d="M46.6,1.5l-2.7,2.7c0,0,0,0,0,0C43.6,6.6,38.6,15,26.7,26.9C14.9,38.7,6.5,43.6,4.2,43.9c0,0,0,0,0,0
		l-2.7,2.7c1.2,1.3,3.4,1,5.9,0c8-3.4,20.1-15.4,21.9-17.1C35,23.7,40,17.8,43.4,12.9C47.5,6.9,48.5,3.4,46.6,1.5
		C46.6,1.5,46.6,1.5,46.6,1.5z"/>
</g>
</svg>
