<?xml version="1.0" encoding="utf-8"?>
<!-- Generator: Adobe Illustrator 18.0.0, SVG Export Plug-In . SVG Version: 6.00 Build 0)  -->
<!DOCTYPE svg PUBLIC "-//W3C//DTD SVG 1.1//EN" "http://www.w3.org/Graphics/SVG/1.1/DTD/svg11.dtd">
<svg version="1.1" id="Layer_1" xmlns="http://www.w3.org/2000/svg" xmlns:xlink="http://www.w3.org/1999/xlink" x="0px" y="0px"
	 viewBox="0 0 48 48" enable-background="new 0 0 48 48" xml:space="preserve">
<g>
	<path fill="#294E58" d="M46.1,47.5c-0.4,0-0.7-0.1-1-0.4L32.2,34.3c-0.6-0.6-0.6-1.5,0-2c0.6-0.6,1.5-0.6,2,0L47.1,45
		c0.6,0.6,0.6,1.5,0,2C46.8,47.4,46.4,47.5,46.1,47.5z"/>
	<path fill="#F04B36" d="M33.9,6.2c-3.7-3.7-8.6-5.7-13.8-5.7c-5.2,0-10.1,2-13.8,5.7c-3.7,3.7-5.7,8.6-5.7,13.8
		c0,5.2,2,10.1,5.7,13.8c3.7,3.7,8.6,5.7,13.8,5.7c5.2,0,10.1-2,13.8-5.7c3.7-3.7,5.7-8.6,5.7-13.8C39.7,14.8,37.6,9.9,33.9,6.2z
		 M29.7,12.4c-0.6,0.6-1.5,0.6-2,0c-4.2-4.2-11.1-4.2-15.3,0c-1.7,1.7-2.7,3.8-3.1,6.1c-0.1,0.7-0.7,1.2-1.4,1.2c-0.1,0-0.1,0-0.2,0
		c-0.8-0.1-1.3-0.8-1.2-1.6c0.4-2.9,1.8-5.6,3.9-7.7c5.3-5.3,14-5.3,19.3,0C30.3,11,30.3,11.9,29.7,12.4z"/>
</g>
</svg>
