<?xml version="1.0" encoding="utf-8"?>
<!-- Generator: Adobe Illustrator 18.0.0, SVG Export Plug-In . SVG Version: 6.00 Build 0)  -->
<!DOCTYPE svg PUBLIC "-//W3C//DTD SVG 1.1//EN" "http://www.w3.org/Graphics/SVG/1.1/DTD/svg11.dtd">
<svg version="1.1" id="Layer_1" xmlns="http://www.w3.org/2000/svg" xmlns:xlink="http://www.w3.org/1999/xlink" x="0px" y="0px"
	 viewBox="0 0 48 48" enable-background="new 0 0 48 48" xml:space="preserve">
<g>
	<polygon fill="#E77528" points="14.2,13.9 1.4,24.3 10.3,35.2 4,40.4 27.3,43 29,19.9 23.1,24.8 	"/>
	<path fill="#0DB89A" d="M11.4,9.9h4.1h25.3c-1.2-0.9-2-2.5-2-4.2c0-1.7,0.8-3.3,2-4.2h4.3c0,0,0-0.2,0-0.5c0-0.3,0-0.5,0-0.5h-1.5
		h-6.9H15.2c-2.7,0-4.8,2.3-4.8,5.2c0,1.2,0.4,2.3,1.1,3.2V9.9z"/>
	<path fill="#4DA0D8" d="M40.9,10.9H15.6h-4.1v3.3l2.9-2.4l8.9,10.9l7.4-6.1l-2.1,27.9l-17.2-1.9v0.2V43c0,0,0.1,4.5,5,4.5h30.2
		V10.9H40.9z"/>
</g>
</svg>
