<?xml version="1.0" encoding="utf-8"?>
<!-- Generator: Adobe Illustrator 18.0.0, SVG Export Plug-In . SVG Version: 6.00 Build 0)  -->
<!DOCTYPE svg PUBLIC "-//W3C//DTD SVG 1.1//EN" "http://www.w3.org/Graphics/SVG/1.1/DTD/svg11.dtd">
<svg version="1.1" id="Layer_1" xmlns="http://www.w3.org/2000/svg" xmlns:xlink="http://www.w3.org/1999/xlink" x="0px" y="0px"
	 viewBox="0 0 48 48" enable-background="new 0 0 48 48" xml:space="preserve">
<g>
	<path fill="#010101" d="M12.5,47c-0.2,0-0.3-0.1-0.4-0.3l-1.2-4l-1.5,4C9.4,47,9.2,47.1,9,47.1c-0.2,0-0.4-0.1-0.4-0.3l-0.8-2.3
		L6,44.2c-0.2,0-0.3-0.1-0.4-0.3c-0.1-0.1,0-0.3,0-0.4l2.6-3.7L8,39.5c-0.5-0.4-0.8-0.9-1.1-1.4c-0.4-0.7-0.6-1.4-0.6-2.2
		c0-2.6,2-4.8,4.6-4.8c2.6,0,4.7,2.1,4.8,4.7c0,0.8-0.2,1.5-0.5,2.2c-0.3,0.6-0.7,1.1-1.3,1.6l-0.3,0.3l3.2,4.8
		c0.1,0.2,0.1,0.4,0,0.5c-0.1,0.1-0.2,0.2-0.4,0.2l0,0c0,0-0.1,0-0.1,0l-2.4-0.5l-1.1,1.9C12.8,46.9,12.7,47,12.5,47L12.5,47z
		 M12.6,41.6C12.3,41.7,12.9,41.6,12.6,41.6l-1.4-0.9L12.6,41.6L12.6,41.6c0.1-0.1-0.1-0.1,0.1-0.1C12.7,41.5,12.6,41.6,12.6,41.6
		L12.6,41.6L12.6,41.6L12.6,41.6z M9.1,42L9.1,42c0.2,0-0.3,0-0.2,0.1l0,0l1.5-0.5l-1.5,0.5l1.6-0.9l-1.6,0.9l-0.7-0.5
		c-0.2,0,0,0-0.2,0l1.2-1.3L9.1,42z"/>
	<path fill="#F04B36" d="M12.5,47c-0.2,0-0.3-0.1-0.4-0.3l-1.2-4l-1.5,4C9.4,47,9.2,47.1,9,47.1c-0.2,0-0.4-0.1-0.4-0.3l-0.8-2.3
		L6,44.2c-0.2,0-0.3-0.1-0.4-0.3c-0.1-0.1,0-0.3,0-0.4l2.6-3.7L8,39.5c-0.5-0.4-0.8-0.9-1.1-1.4c-0.4-0.7-0.6-1.4-0.6-2.2
		c0-2.6,2-4.8,4.6-4.8c2.6,0,4.7,2.1,4.8,4.7c0,0.8-0.2,1.5-0.5,2.2c-0.3,0.6-0.7,1.1-1.3,1.6l-0.3,0.3l3.2,4.8
		c0.1,0.2,0.1,0.4,0,0.5c-0.1,0.1-0.2,0.2-0.4,0.2l0,0c0,0-0.1,0-0.1,0l-2.4-0.5l-1.1,1.9C12.8,46.9,12.7,47,12.5,47L12.5,47z
		 M12.6,41.6C12.3,41.7,12.9,41.6,12.6,41.6l-1.4-0.9L12.6,41.6L12.6,41.6c0.1-0.1-0.1-0.1,0.1-0.1C12.7,41.5,12.6,41.6,12.6,41.6
		L12.6,41.6L12.6,41.6L12.6,41.6z M9.1,42L9.1,42c0.2,0-0.3,0-0.2,0.1l0,0l1.5-0.5l-1.5,0.5l1.6-0.9l-1.6,0.9l-0.7-0.5
		c-0.2,0,0,0-0.2,0l1.2-1.3L9.1,42z"/>
	<path fill="#F7A93B" d="M46,0.9L1.4,1.6c-0.5,0-1,0.4-0.9,1L1,37.5c0,0.5,0.4,1,1,0.9l4.2-0.1c-0.4-0.8-0.6-1.6-0.7-2.5
		c0-3,2.4-5.6,5.4-5.6c3,0,5.5,2.4,5.5,5.4c0,0.9-0.2,1.8-0.6,2.5l30.7-0.5c0.5,0,1-0.4,0.9-1L47,1.9C47,1.3,46.6,0.9,46,0.9z
		 M32.4,29.1l-16.5,0.3c-0.5,0-1-0.4-1-0.9c0-0.5,0.4-1,0.9-1l16.5-0.3c0.5,0,1,0.4,1,0.9C33.4,28.6,32.9,29.1,32.4,29.1z
		 M19.4,22.4l-0.1-9.7c0-0.5,0.4-1,0.9-1l7.4-0.1c0.5,0,1,0.4,1,0.9l0.1,9.7c0,0.5-0.4,1-0.9,1l-7.4,0.1
		C19.8,23.3,19.4,22.9,19.4,22.4z M38.9,14.1c-0.2,0.2-0.4,0.2-0.6,0.2c-0.3,0-0.5-0.1-0.7-0.3c-3.2-3.6-8.3-5.7-13.7-5.6
		c-5.3,0.1-10.4,2.3-13.5,5.9C10,14.8,9.4,14.8,9,14.5c-0.4-0.3-0.4-1-0.1-1.4c3.5-4.1,8.9-6.5,14.9-6.6c5.9-0.1,11.6,2.2,15.2,6.2
		C39.3,13.2,39.3,13.8,38.9,14.1z"/>
</g>
</svg>
