<?xml version="1.0" encoding="utf-8"?>
<!-- Generator: Adobe Illustrator 18.0.0, SVG Export Plug-In . SVG Version: 6.00 Build 0)  -->
<!DOCTYPE svg PUBLIC "-//W3C//DTD SVG 1.1//EN" "http://www.w3.org/Graphics/SVG/1.1/DTD/svg11.dtd">
<svg version="1.1" id="Layer_1" xmlns="http://www.w3.org/2000/svg" xmlns:xlink="http://www.w3.org/1999/xlink" x="0px" y="0px"
	 viewBox="0 0 48 48" enable-background="new 0 0 48 48" xml:space="preserve">
<g>
	<path fill="#0DB89A" d="M42,25.3c0.5,0.1,1-0.3,1.1-0.9c1-8.9-3.7-17.5-11.7-21.5c-3-1.5-6.2-2.3-9.5-2.3
		c-8.2,0-15.5,4.5-19.1,11.8c-2.5,5.1-3,10.9-1.1,16.3c1.8,5.4,5.6,9.8,10.7,12.3c3,1.5,6.2,2.3,9.5,2.3c1,0,2-0.1,3-0.2
		c0.5-0.1,0.9-0.5,0.8-1.1l-1.9-18.6L42,25.3z"/>
	<path fill="#F04B36" d="M47.3,27.9c-0.2-0.2-0.4-0.3-0.7-0.4l-19.4-1.9c-0.3,0-0.6,0.1-0.8,0.3c-0.2,0.2-0.3,0.5-0.3,0.8l2,19.8
		c0,0.3,0.2,0.5,0.4,0.7c0.2,0.1,0.4,0.2,0.6,0.2c0,0,0.1,0,0.1,0c7-1,13-5.3,16.1-11.6c1.1-2.2,1.8-4.6,2.1-7.1
		C47.5,28.4,47.4,28.1,47.3,27.9z"/>
</g>
</svg>
