<?xml version="1.0" encoding="utf-8"?>
<!-- Generator: Adobe Illustrator 18.0.0, SVG Export Plug-In . SVG Version: 6.00 Build 0)  -->
<!DOCTYPE svg PUBLIC "-//W3C//DTD SVG 1.1//EN" "http://www.w3.org/Graphics/SVG/1.1/DTD/svg11.dtd">
<svg version="1.1" id="Layer_1" xmlns="http://www.w3.org/2000/svg" xmlns:xlink="http://www.w3.org/1999/xlink" x="0px" y="0px"
	 viewBox="0 0 48 48" enable-background="new 0 0 48 48" xml:space="preserve">
<g>
	<path fill="#06728D" d="M24,27.2c2.7,0,5.2-0.2,7.6-0.7L24.1,0.8c0,0-0.1,0-0.1,0c-13,0-23.5,7-23.5,15.5v1.9
		C4.1,23.5,13.2,27.2,24,27.2z M21.9,3.7l5.7,21.2c0,0-4.4,0.6-8.4-0.6l-4-17.9C15.1,6.5,18.8,3.5,21.9,3.7z"/>
	<path fill="#06728D" d="M33.6,26.2c6.4-1.5,11.5-4.4,13.9-8v-1.9c0-8.1-9.4-14.7-21.3-15.4L33.6,26.2z"/>
	<path fill="#0DB89A" d="M24,29.5c-10,0-18.7-3.2-23.5-7.9l0,11.2h0.1C1.4,40.8,11.6,47.2,24,47.2c12.4,0,22.6-6.4,23.4-14.5h0.1
		V21.6C42.7,26.3,34,29.5,24,29.5z M27,42.9c-4.1,0-7.5-2.5-7.5-5.6c0-3.1,3.4-5.6,7.5-5.6s7.5,2.5,7.5,5.6
		C34.5,40.4,31.1,42.9,27,42.9z"/>
</g>
</svg>
