<?xml version="1.0" encoding="utf-8"?>
<!-- Generator: Adobe Illustrator 18.0.0, SVG Export Plug-In . SVG Version: 6.00 Build 0)  -->
<!DOCTYPE svg PUBLIC "-//W3C//DTD SVG 1.1//EN" "http://www.w3.org/Graphics/SVG/1.1/DTD/svg11.dtd">
<svg version="1.1" id="Layer_1" xmlns="http://www.w3.org/2000/svg" xmlns:xlink="http://www.w3.org/1999/xlink" x="0px" y="0px"
	 viewBox="0 0 48 48" enable-background="new 0 0 48 48" xml:space="preserve">
<g>
	<path fill="#F04B36" d="M22.3,27.4c-0.9-1.7-2.3-2.8-4-3.2c-1.7-0.5-3.7-0.1-5.4,1c-0.2-2-0.2-6.3,3.3-7.9c0.5-0.2,0.7-0.8,0.5-1.3
		c-0.2-0.5-0.8-0.7-1.3-0.5c-2.3,1.1-3.5,3-4,4.8c-0.9-1.8-3.2-4.4-8.9-2.4c0,0,3.1,7.8,8.5,4.6c-0.1,1-0.1,1.8,0,2.6
		c-1.7-1-3.6-1.3-5.3-0.9c-1.7,0.4-3,1.6-4,3.2C0.4,29.8,0.1,33,1,36.2c1.4,4.7,5.1,8.2,8.8,8.2c0.5,0,1.1-0.1,1.6-0.2
		c0.2-0.1,0.4-0.1,0.6-0.2c0.2,0.1,0.4,0.2,0.6,0.2c0.5,0.1,1.1,0.2,1.6,0.2c3.7,0,7.4-3.4,8.8-8.2C24,33,23.7,29.8,22.3,27.4z"/>
	<path fill="#0DB89A" d="M46.6,10.2c0-0.3-0.2-0.6-0.5-0.8c0,0-0.1-0.1-0.1-0.1c0,0-0.1,0-0.1,0c-0.1,0-0.2,0-0.2,0l-1.5,0
		C43,8.7,42.3,8,42,7.1c-0.5-1.6,0.3-3.4,0.8-4.3h3.8c0.5,0,0.9-0.4,0.9-0.9c0-0.5-0.4-0.9-0.9-0.9h-9.9c0,0,0,0,0,0L13.9,1
		c-3.7,0.3-4.6,3.2-4.6,4.6v1.7V11h37.3V10.2z"/>
	<path fill="#F7A93B" d="M9.3,11.8v5c0.8,0.4,1.4,0.9,1.9,1.4c0.8-1.6,2.1-2.9,3.8-3.7c0.3-0.1,0.5-0.2,0.8-0.2
		c0.7,0,1.4,0.4,1.7,1.1c0.4,0.9,0,2.1-0.9,2.5c-2.3,1.1-2.8,3.6-2.8,5.6c1-0.4,2-0.6,3-0.6c0.6,0,1.2,0.1,1.8,0.2
		c1.9,0.5,3.5,1.8,4.6,3.7c1.5,2.6,1.8,6.1,0.8,9.6c-1.5,5.1-5.6,8.8-9.7,8.8c-0.6,0-1.2-0.1-1.8-0.2c-0.1,0-0.2-0.1-0.4-0.1
		c-0.1,0-0.2,0.1-0.4,0.1c-0.3,0.1-0.6,0.1-0.9,0.2c1.3,1.3,3,1.8,4.7,1.8c0.2,0,0.3,0,0.3,0h29.9c0.5,0,0.9-0.4,0.9-1V11.8H9.3z"/>
</g>
</svg>
