<?xml version="1.0" encoding="utf-8"?>
<!-- Generator: Adobe Illustrator 18.0.0, SVG Export Plug-In . SVG Version: 6.00 Build 0)  -->
<!DOCTYPE svg PUBLIC "-//W3C//DTD SVG 1.1//EN" "http://www.w3.org/Graphics/SVG/1.1/DTD/svg11.dtd">
<svg version="1.1" id="Layer_1" xmlns="http://www.w3.org/2000/svg" xmlns:xlink="http://www.w3.org/1999/xlink" x="0px" y="0px"
	 viewBox="0 0 48 48" enable-background="new 0 0 48 48" xml:space="preserve">
<g>
	<path fill="#06728D" d="M42.8,10.4c0-0.5-0.4-0.9-0.8-0.9c-0.2,0-0.4,0-0.6,0.1c1.3-5.2-1-8.5-1.1-8.7c-0.3-0.4-0.8-0.5-1.2-0.3
		c-2.4,1-4.6,3.8-6.1,6.1c-0.1-0.1-0.2-0.2-0.3-0.3c-0.3-0.2-0.7-0.2-1,0.1c-3.3,2.4-5.3,5.8-6.4,8.5c-0.3-0.7-0.6-1.1-0.6-1.1
		c-0.2-0.2-0.4-0.4-0.7-0.4c-0.3,0-0.6,0.1-0.8,0.3c-2.2,2.3-3.6,6.6-4.3,9.4c-0.3-0.6-0.6-0.9-0.6-0.9c-0.2-0.2-0.5-0.4-0.8-0.4
		c-0.3,0-0.6,0.2-0.8,0.4c-4,5.6-2.2,10.6-1.6,12.1c-0.8,1.4-4.8,6.9-8.5,11.7c-0.3,0.3-0.3,0.8,0,1.2c0.2,0.3,0.5,0.4,0.8,0.4
		c0.1,0,0.2,0,0.3-0.1l6.9-2.4c0.2-0.1,0.4-0.2,0.5-0.4l3.9-5.9c5.7-0.1,9.1-3.2,9.3-3.4c0.3-0.3,0.4-0.8,0.1-1.2
		c-0.1-0.1-0.2-0.2-0.3-0.3c4.1-1.6,6.1-5.4,6.2-5.6c0.2-0.4,0.1-0.8-0.1-1.1c0,0-0.1-0.1-0.1-0.1c5.5-2.4,6.2-6.3,6.2-6.5
		c0.1-0.3-0.1-0.7-0.3-0.9C43,15.6,42.8,10.5,42.8,10.4z"/>
	<rect x="5.2" y="45.6" fill="#0DB89A" width="28" height="1.9"/>
</g>
</svg>
