<?xml version="1.0" encoding="utf-8"?>
<!-- Generator: Adobe Illustrator 18.0.0, SVG Export Plug-In . SVG Version: 6.00 Build 0)  -->
<!DOCTYPE svg PUBLIC "-//W3C//DTD SVG 1.1//EN" "http://www.w3.org/Graphics/SVG/1.1/DTD/svg11.dtd">
<svg version="1.1" id="Layer_1" xmlns="http://www.w3.org/2000/svg" xmlns:xlink="http://www.w3.org/1999/xlink" x="0px" y="0px"
	 viewBox="0 0 48 48" enable-background="new 0 0 48 48" xml:space="preserve">
<g>
	<path fill="#F7A93B" d="M37.8,34.6c0.2-0.3,0.4-0.5,0.6-0.8c0.2-0.3,0.4-0.7,0.6-1l0,0c2.8-3.5,4.3-7.9,4.3-12.5
		c0-10.8-8.4-19.7-18.8-19.7c-5.7,0-10.9,2.6-14.5,7.2C9.9,7.9,9.8,8,9.7,8.2C9.6,8.3,9.5,8.4,9.4,8.5c-1,1.4-2.3,5-2.3,6.2
		c-0.1,0.4-0.1,0.8-0.1,1.1c0,0.3,0,0.5,0,0.8c0,0.5,0,1,0,1.5c0,0.6,0.2,1,0.3,1.4c0.1,0.2,0.1,0.4,0.2,0.7c0.2,1,0.1,2.1-0.4,3.5
		l-0.3,0.8c-0.3,0.9-0.6,1.8-1,2.7c-0.1,0.2-0.2,0.4-0.4,0.7c-0.4,0.6-1,1.4-0.8,2.3c0.1,0.3,0.3,0.8,0.8,1.2
		c0.4,0.2,0.8,0.3,1.2,0.4c0.2,0,0.4,0.1,0.5,0.2c0,0.1,0,0.2,0,0.3c-0.1,0.3-0.1,0.8,0,1.2c0.1,0.3,0.3,0.5,0.5,0.7
		c-0.3,0.8-0.3,1.3,0.3,2c0.1,0.1,0.2,0.2,0.3,0.3c0.2,0.2,0.1,0.6,0,1.2c-0.1,0.7-0.3,1.5,0.1,2.4c0.8,1.7,2.9,1.9,4.2,2
		c0.2,0,0.4,0,0.6,0c0.7,0.1,1.6,0.1,2.6,0.1c0.5,0,1.1,0,1.6,0c0.3,0,0.6,0,0.9,0l2.2,4.7c0.2,0.3,0.5,0.6,0.9,0.6h20.2
		c0.4,0,0.7-0.2,0.9-0.6c0.2-0.3,0.1-0.8-0.2-1C42.1,45.8,37.4,40.4,37.8,34.6z M24.9,32.9c0,0.8-0.7,1.5-1.5,1.5
		c-0.8,0-1.5-0.7-1.5-1.5v-1.7c0-0.8,0.7-1.5,1.5-1.5c0.8,0,1.5,0.7,1.5,1.5V32.9z M29.7,20c-0.4,0.8-1.4,1.7-2.5,2.7
		c-0.6,0.5-1.4,1.3-1.6,1.6c-0.8,1.5-0.7,2.4-0.7,2.4c0.2,0.8-0.4,1.5-1.2,1.7c-0.1,0-0.2,0-0.3,0c-0.7,0-1.3-0.5-1.4-1.2
		c-0.1-0.3-0.3-1.9,1-4.4c0.3-0.6,1-1.3,2.1-2.3c0.7-0.6,1.7-1.6,2-2c1.2-2.1,1-3.9-0.6-4.9c-1.4-0.9-3.6-0.7-4.8,1.1
		c-0.4,0.7-1.3,0.9-2,0.4c-0.7-0.4-0.9-1.3-0.4-2c2.1-3.2,6.1-3.5,8.7-2C30.6,12.7,32,15.9,29.7,20z"/>
</g>
</svg>
