<?xml version="1.0" encoding="utf-8"?>
<!-- Generator: Adobe Illustrator 18.0.0, SVG Export Plug-In . SVG Version: 6.00 Build 0)  -->
<!DOCTYPE svg PUBLIC "-//W3C//DTD SVG 1.1//EN" "http://www.w3.org/Graphics/SVG/1.1/DTD/svg11.dtd">
<svg version="1.1" id="Layer_1" xmlns="http://www.w3.org/2000/svg" xmlns:xlink="http://www.w3.org/1999/xlink" x="0px" y="0px"
	 viewBox="0 0 48 48" enable-background="new 0 0 48 48" xml:space="preserve">
<g>
	<path fill="#CFD0D1" d="M34.2,47.5c-0.8,0-1.4-0.6-1.4-1.4c-0.5-25.2,4-44.3,4-44.5c0.2-0.8,0.9-1.2,1.7-1.1c0.8,0.2,1.2,1,1.1,1.7
		c0,0.2-4.5,19-4,43.8C35.6,46.8,35,47.5,34.2,47.5C34.2,47.5,34.2,47.5,34.2,47.5z"/>
	<path fill="#CFD0D1" d="M13.9,47.5c-0.8,0-1.4-0.6-1.4-1.4V25.8c0-0.8,0.6-1.4,1.4-1.4h21c0.8,0,1.4,0.6,1.4,1.4
		c0,0.8-0.6,1.4-1.4,1.4H15.3v18.9C15.3,46.9,14.7,47.5,13.9,47.5z"/>
	<path fill="#CFD0D1" d="M15,26.2c-0.6,0-1.1-0.3-1.3-0.9L8.5,12.6c-0.2-0.4-0.1-0.9,0.1-1.3c0.3-0.4,0.7-0.6,1.2-0.6h2.9
		c0.8,0,1.4,0.6,1.4,1.4c0,0.8-0.6,1.4-1.4,1.4H12l4.4,10.7c0.3,0.7-0.1,1.6-0.8,1.9C15.4,26.2,15.2,26.2,15,26.2z"/>
	<path fill="#CFD0D1" d="M34.1,42.2H13.9c-0.8,0-1.4-0.6-1.4-1.4c0-0.8,0.6-1.4,1.4-1.4h20.2c0.8,0,1.4,0.6,1.4,1.4
		C35.6,41.6,34.9,42.2,34.1,42.2z"/>
	<path fill="#F04B36" d="M28.7,10.7H13.1c-0.3,0-0.6,0.2-0.8,0.5c-0.2,0.3-0.2,0.7,0,1l2.8,6.1c0.2,0.3,0.5,0.6,0.9,0.6h12.8
		c0.5,0,0.9-0.5,0.9-1v-6.1C29.6,11.1,29.2,10.7,28.7,10.7z"/>
</g>
</svg>
