<?xml version="1.0" encoding="utf-8"?>
<!-- Generator: Adobe Illustrator 18.0.0, SVG Export Plug-In . SVG Version: 6.00 Build 0)  -->
<!DOCTYPE svg PUBLIC "-//W3C//DTD SVG 1.1//EN" "http://www.w3.org/Graphics/SVG/1.1/DTD/svg11.dtd">
<svg version="1.1" id="Layer_1" xmlns="http://www.w3.org/2000/svg" xmlns:xlink="http://www.w3.org/1999/xlink" x="0px" y="0px"
	 viewBox="0 0 48 48" enable-background="new 0 0 48 48" xml:space="preserve">
<g>
	<path fill="#ED9322" d="M43.8,29.7c-0.3,0-0.6-0.1-0.8-0.4c-2.6-3.7-0.3-8.2-0.2-8.4c0.3-0.5,0.8-0.7,1.3-0.4
		c0.5,0.3,0.7,0.8,0.4,1.3c0,0.1-1.9,3.6,0,6.4c0.3,0.4,0.2,1-0.2,1.3C44.2,29.7,44,29.7,43.8,29.7z"/>
	<path fill="#ED9322" d="M27.1,46.1c-0.3,0-0.6-0.1-0.8-0.4c-2.7-3.3-0.3-7.4-0.2-7.5c0.3-0.5,0.9-0.6,1.3-0.3
		c0.5,0.3,0.6,0.9,0.3,1.3c-0.1,0.1-1.8,3.1,0,5.3c0.3,0.4,0.3,1-0.2,1.4C27.5,46,27.3,46.1,27.1,46.1z"/>
	<path fill="#F04B36" d="M27.3,46.5c-0.1,0-0.3,0-0.4-0.1c0,0-15.9-6.9-22.5-9.7c-3.5-1.5-3.9-4-3.9-5.3c0.1-2.2,1.6-4.2,2.9-4.6
		c0.5-0.2,1.1,0.1,1.2,0.6C4.8,28,4.5,28.5,4,28.7c-0.5,0.2-1.5,1.4-1.6,2.9C2.4,33,3.3,34.2,5.2,35c5.9,2.5,19,8.2,21.9,9.4
		l17.1-17.4c0.4-0.4,1-0.4,1.4,0c0.4,0.4,0.4,1,0,1.4L28,46.2C27.8,46.4,27.6,46.5,27.3,46.5z"/>
	<path fill="#4DA0D8" d="M47.5,18.2c-0.1-0.3-0.3-0.6-0.6-0.7L24.4,9.4c-0.3-0.1-0.7-0.1-1,0.2l-2.7,2.3c0.9,2.7,1.1,5.4,0.5,7.9
		c-0.7,2.9-2.3,5-4.6,5.9c-0.8,0.3-1.7,0.5-2.5,0.5c-2.3,0-4.6-1.1-6.6-2.9L3.1,27c-0.3,0.2-0.4,0.5-0.3,0.9c0,0.3,0.3,0.6,0.6,0.7
		L26.7,39c0.1,0.1,0.3,0.1,0.4,0.1c0.3,0,0.5-0.1,0.7-0.3l19.4-19.7C47.5,18.9,47.5,18.6,47.5,18.2z"/>
	<path fill="#06728D" d="M33,7.9C29.2,8,25,6.9,22,5.1c-0.6-0.3-1.1-0.7-1.6-1.1c-1.3-0.9-2.7-1.9-4.4-2.3c-1-0.2-5.6-0.9-7.6,0.8
		C7.8,3.1,7.5,3.7,7.4,4.5C3.8,6.4,2.6,12,4.7,17.4c1.9,4.6,5.6,7.7,9.2,7.7c0.8,0,1.5-0.1,2.2-0.4c2-0.8,3.5-2.7,4.1-5.2
		c0.6-2.5,0.3-5.3-0.8-8c-1.9-4.6-5.6-7.7-9.2-7.7c-0.2,0-0.4,0-0.6,0c1.2-0.9,4.5-0.7,6-0.4c1.4,0.3,2.6,1.1,3.8,2
		c0.5,0.4,1.1,0.8,1.7,1.1c3.1,1.9,7.4,3,11.3,3c0.2,0,0.4,0,0.6,0c0.5,0,0.8-0.4,0.8-0.9C33.8,8.2,33.4,7.8,33,7.9z M10.5,8.1
		l1.5,3.6c0.2,0.4,0,0.9-0.5,1.1c-0.1,0-0.2,0.1-0.3,0.1c-0.3,0-0.7-0.2-0.8-0.5L8.9,8.7c-0.2-0.4,0-0.9,0.5-1.1
		C9.8,7.4,10.3,7.6,10.5,8.1z"/>
</g>
</svg>
