<?xml version="1.0" encoding="utf-8"?>
<!-- Generator: Adobe Illustrator 18.0.0, SVG Export Plug-In . SVG Version: 6.00 Build 0)  -->
<!DOCTYPE svg PUBLIC "-//W3C//DTD SVG 1.1//EN" "http://www.w3.org/Graphics/SVG/1.1/DTD/svg11.dtd">
<svg version="1.1" id="Layer_1" xmlns="http://www.w3.org/2000/svg" xmlns:xlink="http://www.w3.org/1999/xlink" x="0px" y="0px"
	 viewBox="0 0 48 48" enable-background="new 0 0 48 48" xml:space="preserve">
<g>
	<path fill="#0DB89A" d="M33.8,9.1c-0.5,0-0.9-0.4-1-0.9c-0.1-0.5,0.3-1,0.9-1.1l3.5-0.4c0.3-0.8,0.6-2.3,0.1-3.3
		c-0.2-0.5-0.6-0.9-1.1-1.1L6.7,3.2c-0.6,0-1-0.4-1-0.9c0-0.5,0.4-1,0.9-1l29.8-0.8c0.1,0,0.3,0,0.4,0.1c1.1,0.4,1.9,1.2,2.3,2.2
		c0.9,2.3-0.3,5.2-0.3,5.3c-0.1,0.3-0.4,0.5-0.8,0.6l-4.1,0.4C33.9,9.1,33.8,9.1,33.8,9.1z"/>
	<path fill="#0DB89A" d="M43.8,28.8c-0.7-1.1-1.4-2.4-2.1-3.9c-0.1-0.1-0.1-0.2-0.2-0.3c-0.7,0.8-1.5,1.4-2.4,1.8
		c-0.8,0.4-1.7,0.6-2.7,0.6l-0.2,0l-0.8,7c0,0.4-0.3,0.8-0.8,0.9c-0.1,0-0.2,0-0.3,0c-0.2,0-0.5-0.1-0.7-0.2c-0.1,0-0.1-0.1-0.2-0.2
		l-1.7-2.2l-2.3,0.8c-0.1,0-0.2,0.1-0.3,0.1c-0.2,0-0.5-0.1-0.7-0.2l-0.1-0.1c-0.3-0.3-0.4-0.8-0.2-1.2l1.5-3.6l-3.5,2
		c-0.2,0.1-0.3,0.1-0.5,0.1c-0.2,0-0.5-0.1-0.7-0.2c-0.4-0.3-0.5-0.8-0.3-1.2l1-2.7l-1.3-1.5c-0.2-0.3-0.3-0.7-0.2-1
		c0.1-0.4,0.4-0.6,0.8-0.7l5.2-1.4l0-0.1c-0.1-0.8-0.1-1.7,0.1-2.4c0.2-1,0.7-2,1.3-2.8c1.3-1.6,3.1-2.4,5.1-2.4c0.1,0,0.1,0,0.2,0
		c-1.4-3.4-2.3-5.9-2.3-5.9c-0.2-0.4-0.6-0.7-1-0.6L11,9.3c0.4-1.3,0.8-3.3,0.1-5.1C10.6,3,9.7,2.1,8.4,1.5C7,1,5.6,1.2,4.6,2.1
		c-2,1.7-2.7,5.3-2.2,7.9c0.7,3.4,4,10.3,7.2,16.9c2.8,5.7,6,12.3,6,13.9c0,3.2-2.5,4.8-2.6,4.9c-0.4,0.2-0.6,0.7-0.4,1.2
		c0.1,0.4,0.5,0.6,0.9,0.6c0.1,0,0.1,0,0.2,0l29.1-5.7c0.2,0,0.3-0.1,0.4-0.2C43.2,41.6,48.6,36.9,43.8,28.8z"/>
	<path fill="#F04B36" d="M29,32.2c-0.1-0.2-0.2-0.4-0.1-0.6l2-4.7l-4.6,2.7c-0.2,0.1-0.5,0.1-0.6-0.1c-0.2-0.2-0.3-0.4-0.2-0.6
		l1.1-2.8l-1.5-1.6C25,24.2,24.9,24,25,23.8c0.1-0.2,0.2-0.3,0.4-0.4l5.3-1.4l-0.1-0.5c-0.1-0.7-0.1-1.5,0-2.2
		c0.2-0.9,0.6-1.8,1.2-2.5c2-2.5,5.7-2.9,8.2-0.9c2.5,2,2.8,5.7,0.8,8.2c-0.6,0.7-1.3,1.3-2.2,1.7c-0.8,0.3-1.6,0.5-2.4,0.5l-0.5,0
		L35,33.5c0,0.2-0.2,0.4-0.4,0.5c-0.2,0.1-0.4,0-0.5-0.1l0,0c0,0-0.1-0.1-0.1-0.1l-1.9-2.3l-2.6,0.9C29.4,32.4,29.2,32.3,29,32.2
		L29,32.2z M33.4,27.1C33.1,27,33.7,27.3,33.4,27.1l-0.6-1.9L33.4,27.1L33.4,27.1c0.2-0.1,0-0.2,0.2-0.1
		C33.6,27.1,33.4,27.1,33.4,27.1L33.4,27.1L33.4,27.1L33.4,27.1z M29.7,24.7L29.7,24.7c0.1,0.2-0.3-0.3-0.3-0.1l0,0l1.8,0.7
		l-1.8-0.7l2.3,0.4l-2.3-0.4l-0.3-1c-0.2-0.2,0,0-0.2-0.2l2.1-0.3L29.7,24.7z"/>
</g>
</svg>
