<?xml version="1.0" encoding="utf-8"?>
<!-- Generator: Adobe Illustrator 18.0.0, SVG Export Plug-In . SVG Version: 6.00 Build 0)  -->
<!DOCTYPE svg PUBLIC "-//W3C//DTD SVG 1.1//EN" "http://www.w3.org/Graphics/SVG/1.1/DTD/svg11.dtd">
<svg version="1.1" id="Layer_1" xmlns="http://www.w3.org/2000/svg" xmlns:xlink="http://www.w3.org/1999/xlink" x="0px" y="0px"
	 viewBox="0 0 48 48" enable-background="new 0 0 48 48" xml:space="preserve">
<g>
	<rect x="0.5" y="14.2" fill="#0DB89A" width="14.7" height="2.3"/>
	<rect x="0.5" y="10" fill="#0DB89A" width="14.7" height="2.3"/>
	<path fill="#0DB89A" d="M0.5,39.4v7.1c0,0.5,0.4,1,1,1h12.8c0.5,0,1-0.4,1-1v-7.1H0.5z"/>
	<rect x="0.5" y="18.5" fill="#0DB89A" width="14.7" height="19"/>
	<path fill="#0DB89A" d="M15.2,8V1.5c0-0.5-0.4-1-1-1H1.5c-0.5,0-1,0.4-1,1V8H15.2z"/>
	<rect x="16.6" y="14.2" fill="#06728D" width="14.7" height="2.3"/>
	<rect x="16.6" y="10" fill="#06728D" width="14.7" height="2.3"/>
	<path fill="#06728D" d="M16.6,39.4v7.1c0,0.5,0.4,1,1,1h12.8c0.5,0,1-0.4,1-1v-7.1H16.6z"/>
	<rect x="16.6" y="18.5" fill="#06728D" width="14.7" height="19"/>
	<path fill="#06728D" d="M31.4,8V1.5c0-0.5-0.4-1-1-1H17.6c-0.5,0-1,0.4-1,1V8H31.4z"/>
	<rect x="32.8" y="14.2" fill="#E77528" width="14.7" height="2.3"/>
	<rect x="32.8" y="10" fill="#E77528" width="14.7" height="2.3"/>
	<path fill="#E77528" d="M32.8,39.4v7.1c0,0.5,0.4,1,1,1h12.8c0.5,0,1-0.4,1-1v-7.1H32.8z"/>
	<rect x="32.8" y="18.5" fill="#E77528" width="14.7" height="19"/>
	<path fill="#E77528" d="M47.5,8V1.5c0-0.5-0.4-1-1-1H33.7c-0.5,0-1,0.4-1,1V8H47.5z"/>
</g>
</svg>
