<?xml version="1.0" encoding="utf-8"?>
<!-- Generator: Adobe Illustrator 18.0.0, SVG Export Plug-In . SVG Version: 6.00 Build 0)  -->
<!DOCTYPE svg PUBLIC "-//W3C//DTD SVG 1.1//EN" "http://www.w3.org/Graphics/SVG/1.1/DTD/svg11.dtd">
<svg version="1.1" id="Layer_1" xmlns="http://www.w3.org/2000/svg" xmlns:xlink="http://www.w3.org/1999/xlink" x="0px" y="0px"
	 viewBox="0 0 48 48" enable-background="new 0 0 48 48" xml:space="preserve">
<g>
	<path fill="#06728D" d="M31.6,14.8L47,14.6c-0.1-0.1-0.1-0.2-0.2-0.3l-15-13.7c-0.1-0.1-0.3-0.2-0.4-0.2L31.6,14.8z"/>
	<path fill="#DFD3B9" d="M11.1,17.2c0.2,0,0.4,0,0.6,0.1c-0.6-1.1-1.7-2-2.9-2.3l0.3,17.4l10.1-4l-9.2-8.7c-0.6-0.6-0.7-1.6-0.1-2.2
		C10.3,17.3,10.7,17.2,11.1,17.2z"/>
	<path fill="#CFD0D1" d="M30.7,16.8c-0.5,0-1-0.4-1-1L29.5,0.4L9.6,0.7c-0.5,0-1,0.4-1,1l0.2,10.2c2.7,0.4,5,2.2,6,4.7
		c0.4,1.1,0.6,2.3,0.5,3.4c0,0.1,0,0.3-0.1,0.4l7.3,6.8l1.6-0.6c0.2-0.1,0.4-0.1,0.5-0.1c0.6,0,1.2,0.4,1.5,1c0.2,0.4,0.1,0.8,0,1.2
		c-0.2,0.4-0.5,0.7-0.9,0.8L25,29.6l6,5.7c0.6,0.6,0.7,1.6,0.1,2.2c-0.3,0.3-0.7,0.5-1.1,0.5c-0.4,0-0.8-0.1-1.1-0.4l-7.1-6.7
		L9.2,35.8l0.2,11c0,0.5,0.4,1,1,1l36.3-0.6c0.5,0,1-0.4,1-1l-0.5-29.7L30.7,16.8z"/>
	<path fill="#E77528" d="M3.9,24.7c-0.2,0-0.5-0.1-0.7-0.2c-0.8-0.7-1.5-1.6-1.9-2.7c-0.7-1.7-0.6-3.6,0.1-5.3
		c0.7-1.7,2.1-3,3.8-3.7c3.6-1.4,7.6,0.4,9,3.9c0.4,1,0.5,2.1,0.5,3.2c0,0.5-0.5,0.9-1.1,0.9c-0.5,0-0.9-0.5-0.9-1.1
		c0.1-0.8,0-1.5-0.3-2.3c-1-2.6-3.9-3.8-6.5-2.8c-2.6,1-3.8,3.9-2.8,6.5c0.3,0.7,0.7,1.4,1.3,1.9c0.4,0.4,0.4,1,0.1,1.4
		C4.4,24.6,4.1,24.7,3.9,24.7z"/>
	<path fill="#0DB89A" d="M3.2,47.8C3.2,47.8,3.1,47.8,3.2,47.8c-0.6,0-1-0.5-1-1L4,21.1c0-0.5,0.5-0.9,1-0.9c0.5,0,0.9,0.5,0.9,1
		L4.1,46.9C4.1,47.4,3.7,47.8,3.2,47.8z"/>
	<path fill="#0DB89A" d="M29.9,37.4c-0.2,0-0.5-0.1-0.7-0.3L10.5,19.4c-0.4-0.4-0.4-1,0-1.4c0.4-0.4,1-0.4,1.4,0l18.7,17.7
		c0.4,0.4,0.4,1,0,1.4C30.4,37.3,30.2,37.4,29.9,37.4z"/>
	<path fill="#F04B36" d="M5.7,14.7c-0.4,0-0.8-0.2-0.9-0.6L2.5,8.4C2.3,7.9,2.6,7.4,3.1,7.2C3.6,7,4.1,7.2,4.3,7.7l2.2,5.6
		c0.2,0.5-0.1,1.1-0.5,1.3C5.9,14.7,5.8,14.7,5.7,14.7z"/>
	<path fill="#F04B36" d="M1.4,38.1c-0.4,0-0.8-0.2-0.9-0.6C0.3,37,0.5,36.4,1,36.3l23.2-9.1c0.5-0.2,1.1,0.1,1.3,0.5
		c0.2,0.5-0.1,1.1-0.5,1.3L1.8,38.1C1.6,38.1,1.5,38.1,1.4,38.1z"/>
</g>
</svg>
