<?xml version="1.0" encoding="utf-8"?>
<!-- Generator: Adobe Illustrator 18.0.0, SVG Export Plug-In . SVG Version: 6.00 Build 0)  -->
<!DOCTYPE svg PUBLIC "-//W3C//DTD SVG 1.1//EN" "http://www.w3.org/Graphics/SVG/1.1/DTD/svg11.dtd">
<svg version="1.1" id="Layer_1" xmlns="http://www.w3.org/2000/svg" xmlns:xlink="http://www.w3.org/1999/xlink" x="0px" y="0px"
	 viewBox="0 0 48 48" enable-background="new 0 0 48 48" xml:space="preserve">
<g>
	<path fill="#06728D" d="M9.2,47.5c-2.6,0-4.8-0.7-6.4-2.3C-2.8,39.6,2.1,25.9,14,14c5.6-5.6,11.8-9.8,17.6-12
		c6-2.3,10.9-2,13.6,0.8c3,3,3.1,8.5,0.3,15c-0.2,0.5-0.8,0.7-1.3,0.5c-0.5-0.2-0.7-0.8-0.5-1.3c2.5-5.8,2.5-10.5,0.1-12.9
		C41.6,2,37.4,1.9,32.2,3.8C26.7,5.9,20.7,10,15.4,15.3C4.6,26.1-0.5,39.1,4.2,43.8c4.7,4.7,17.7-0.4,28.5-11.2
		c3.7-3.7,6.8-7.7,9.1-11.7c0.3-0.5,0.9-0.6,1.3-0.4c0.5,0.3,0.6,0.9,0.4,1.3C41.1,26,37.8,30.2,34,34C25.5,42.6,16,47.5,9.2,47.5z"
		/>
	<path fill="#06728D" d="M12.9,42c-2.1,0-3.8-0.6-5-1.8c-0.6-0.6-1-1.3-1.4-2.1c-0.2-0.5,0.1-1.1,0.6-1.2c0.5-0.2,1.1,0.1,1.2,0.6
		c0.2,0.6,0.5,1,0.9,1.4c3.5,3.5,13.2-0.4,21.2-8.4c8-8,11.9-17.7,8.4-21.2c-3.5-3.5-13.2,0.4-21.2,8.4c-4.9,4.9-8.4,10.5-9.4,15.1
		c-0.1,0.5-0.6,0.9-1.2,0.7c-0.5-0.1-0.9-0.6-0.7-1.2c1.1-4.9,4.8-10.9,9.9-16.1c9.1-9.1,19.6-12.7,23.9-8.4
		c4.4,4.4,0.7,14.9-8.4,23.9C25.3,38.3,18.1,42,12.9,42z"/>
	<path fill="#06728D" d="M16.5,36c-1.3,0-2.5-0.4-3.3-1.2c-2.9-2.9-0.4-9.9,5.7-15.9c2.1-2.1,4.4-3.9,6.7-5.1
		c0.5-0.3,1.1-0.1,1.3,0.4c0.3,0.5,0.1,1.1-0.4,1.3c-2.1,1.1-4.3,2.8-6.3,4.8c-5.5,5.5-7.4,11.4-5.7,13.2c1.8,1.8,7.6-0.1,13.2-5.7
		c5.5-5.5,7.4-11.4,5.7-13.2c-0.7-0.7-1.9-0.7-2.7-0.6c-0.5,0.1-1-0.3-1.1-0.8c-0.1-0.5,0.3-1,0.8-1.1c1.8-0.2,3.3,0.2,4.3,1.2
		c2.9,2.9,0.4,9.9-5.7,15.9C24.8,33.5,20,36,16.5,36z"/>
	<path fill="#E77528" d="M24.2,20.3c-1,0-2,0.4-2.7,1.1c-0.7,0.7-1.1,1.6-1.1,2.6c0,1,0.3,1.9,1,2.6c0.7,0.7,1.5,1,2.5,1
		c1,0,2-0.4,2.7-1.1c0.7-0.7,1.1-1.6,1.1-2.6c0-1-0.3-1.9-1-2.6C26,20.7,25.2,20.3,24.2,20.3z"/>
	<path fill="#4DA0D8" d="M5,32.8C4.4,33.4,4,34.2,4,35c0,0.8,0.3,1.6,0.8,2.2C5.4,37.7,6.1,38,6.9,38c0.8,0,1.7-0.3,2.3-1
		c0.6-0.6,0.9-1.4,1-2.2c0-0.8-0.3-1.6-0.8-2.2C8.2,31.6,6.1,31.6,5,32.8z"/>
	<path fill="#0DB89A" d="M45.9,17.3c-1.1-1.1-3.2-1.1-4.4,0.1c-1.2,1.2-1.3,3.2-0.1,4.4c0.5,0.5,1.3,0.8,2.1,0.8
		c0.8,0,1.7-0.3,2.3-1C47,20.4,47.1,18.5,45.9,17.3z"/>
	<path fill="#F04B36" d="M30.4,11.6c-1.1-1.1-3.2-1.1-4.4,0.1c-0.8,0.8-1.1,2-0.8,3.1c0.1,0.5,0.4,0.9,0.7,1.3
		c0.5,0.5,1.3,0.8,2.1,0.8c0.8,0,1.7-0.3,2.3-1c1-1,1.2-2.4,0.7-3.6C30.9,12,30.7,11.8,30.4,11.6z"/>
</g>
</svg>
