<?xml version="1.0" encoding="utf-8"?>
<!-- Generator: Adobe Illustrator 18.0.0, SVG Export Plug-In . SVG Version: 6.00 Build 0)  -->
<!DOCTYPE svg PUBLIC "-//W3C//DTD SVG 1.1//EN" "http://www.w3.org/Graphics/SVG/1.1/DTD/svg11.dtd">
<svg version="1.1" id="Layer_1" xmlns="http://www.w3.org/2000/svg" xmlns:xlink="http://www.w3.org/1999/xlink" x="0px" y="0px"
	 viewBox="0 0 48 48" enable-background="new 0 0 48 48" xml:space="preserve">
<g>
	<path fill="#CFD0D1" d="M44.4,46.2l-5.6-12.9c-0.1-0.3-0.4-0.5-0.8-0.5H10c-0.3,0-0.6,0.2-0.8,0.5l-5.7,13
		c-0.1,0.3-0.1,0.6,0.1,0.8c0.2,0.2,0.4,0.4,0.7,0.4h39.3c0,0,0,0,0,0c0.5,0,0.8-0.4,0.8-0.8C44.5,46.5,44.5,46.3,44.4,46.2z
		 M14.2,43.8H12c-0.5,0-0.8-0.4-0.8-0.8c0-0.5,0.4-0.8,0.8-0.8h2.2c0.5,0,0.8,0.4,0.8,0.8C15,43.4,14.7,43.8,14.2,43.8z M15.5,39.5
		h-1.9c-0.5,0-0.8-0.4-0.8-0.8c0-0.5,0.4-0.8,0.8-0.8h1.9c0.5,0,0.8,0.4,0.8,0.8C16.4,39.1,16,39.5,15.5,39.5z M21.4,43.8h-2.2
		c-0.5,0-0.8-0.4-0.8-0.8c0-0.5,0.4-0.8,0.8-0.8h2.2c0.5,0,0.8,0.4,0.8,0.8C22.3,43.4,21.9,43.8,21.4,43.8z M21.8,39.5h-1.9
		c-0.5,0-0.8-0.4-0.8-0.8c0-0.5,0.4-0.8,0.8-0.8h1.9c0.5,0,0.8,0.4,0.8,0.8C22.6,39.1,22.3,39.5,21.8,39.5z M25.4,38.6
		c0-0.5,0.4-0.8,0.8-0.8h1.9c0.5,0,0.8,0.4,0.8,0.8c0,0.5-0.4,0.8-0.8,0.8h-1.9C25.7,39.5,25.4,39.1,25.4,38.6z M28.7,43.8h-2.2
		c-0.5,0-0.8-0.4-0.8-0.8c0-0.5,0.4-0.8,0.8-0.8h2.2c0.5,0,0.8,0.4,0.8,0.8C29.5,43.4,29.2,43.8,28.7,43.8z M31.6,38.6
		c0-0.5,0.4-0.8,0.8-0.8h1.9c0.5,0,0.8,0.4,0.8,0.8c0,0.5-0.4,0.8-0.8,0.8h-1.9C32,39.5,31.6,39.1,31.6,38.6z M35.9,43.8h-2.2
		c-0.5,0-0.8-0.4-0.8-0.8c0-0.5,0.4-0.8,0.8-0.8h2.2c0.5,0,0.8,0.4,0.8,0.8C36.8,43.4,36.4,43.8,35.9,43.8z"/>
	<path fill="#06728D" d="M37.2,9.3h-0.8L31.9,25c-0.1,0.4-0.4,0.6-0.8,0.6c-0.1,0-0.2,0-0.2,0l-13.6-3.9c-0.2,0-1.4-0.5-2-1.5
		c-0.6-1-0.3-2.1-0.2-2.2l2.5-8.7h-6.3c-1.7,0-3.1,1.6-3.1,3.5v15.5c0,1.9,1.4,3.5,3.1,3.5h25.9c1.7,0,3.1-1.6,3.1-3.5V12.8
		C40.3,10.8,38.9,9.3,37.2,9.3z"/>
	<path fill="#010101" d="M16.7,19.4c0.2,0.3,0.8,0.6,1,0.7l12.8,3.6l4.1-14.4H19.3l-2.6,9.2C16.6,18.6,16.5,19.1,16.7,19.4z"/>
	<path fill="#F04B36" d="M35.8,4.2L23,0.6c-0.2-0.1-0.4-0.1-0.6-0.1c-0.9,0-1.7,0.6-2,1.5l-0.1,0.4c0,0.1,0,0.1,0,0.2l0,0.1l0,0
		l-4.3,15.1c0,0.1-0.3,1,0.2,1.8c0.5,0.8,1.5,1.2,1.7,1.2l13,3.7c0,0,0.1,0,0.1,0c0.2,0,0.3-0.1,0.4-0.3l4.5-15.7c0-0.1,0-0.2,0-0.3
		c-0.1-0.1-0.1-0.2-0.2-0.2l-0.6-0.2c-0.5-0.6-0.7-1.2-0.6-1.8C34.4,5.5,34.8,5,35,4.9L35.6,5c0,0,0.1,0,0.1,0
		c0.2,0,0.3-0.1,0.4-0.3C36.1,4.5,36,4.3,35.8,4.2z M33.8,7.6L21.9,4.2c-0.7-0.2-1.1-0.9-0.9-1.6l0.1-0.4c0.2-0.5,0.7-0.9,1.2-0.9
		c0.1,0,0.2,0,0.3,0l11.4,3.2c-0.3,0.3-0.5,0.8-0.6,1.4C33.4,6.5,33.5,7,33.8,7.6z"/>
</g>
</svg>
