<?xml version="1.0" encoding="utf-8"?>
<!-- Generator: Adobe Illustrator 18.0.0, SVG Export Plug-In . SVG Version: 6.00 Build 0)  -->
<!DOCTYPE svg PUBLIC "-//W3C//DTD SVG 1.1//EN" "http://www.w3.org/Graphics/SVG/1.1/DTD/svg11.dtd">
<svg version="1.1" id="Layer_1" xmlns="http://www.w3.org/2000/svg" xmlns:xlink="http://www.w3.org/1999/xlink" x="0px" y="0px"
	 viewBox="0 0 48 48" enable-background="new 0 0 48 48" xml:space="preserve">
<g>
	<path fill="#CFD0D1" d="M5.8,14.1v23.5c0,0.3,0.3,0.6,0.6,0.6h15.4c0.3,0,0.6-0.3,0.6-0.6v-3.5L15.8,31c-0.2-0.1-1.9-1-2.5-2.5
		c-0.6-1.5,0.1-3,0.2-3.2L19,13.5H6.3C6,13.5,5.8,13.7,5.8,14.1z"/>
	<path fill="#06728D" d="M24.4,37.6c0,1.4-1.2,2.6-2.6,2.6H6.3c-1.4,0-2.6-1.2-2.6-2.6V14.1c0-1.4,1.2-2.6,2.6-2.6h13.6l3.3-7.1H3.6
		c-1.7,0-3.1,1.4-3.1,3.1v36.6c0,1.7,1.4,3.1,3.1,3.1h20.9c1.7,0,3.1-1.4,3.1-3.1v-7.6L24.4,35V37.6z M15.8,44.2h-3.4
		c-0.6,0-1-0.4-1-1c0-0.6,0.4-1,1-1h3.4c0.6,0,1,0.4,1,1C16.8,43.7,16.3,44.2,15.8,44.2z"/>
	<path fill="#4DA0D8" d="M15.2,24.8c-0.1,0.1-0.7,1.5-0.1,2.9c0.5,1.3,2,2.1,2.2,2.2L34.6,38c0.1,0.1,0.3,0.1,0.4,0.1
		c0.3,0,0.7-0.2,0.8-0.5l9.5-20.3L23.7,6.6L15.2,24.8z"/>
	<path fill="#E77528" d="M47,9l-17.1-8c-1.6-0.8-3.6-0.1-4.3,1.6l-0.3,0.6c0,0.1-0.1,0.2-0.1,0.3c0,0-0.1,0.1-0.1,0.2l-0.9,1.9
		l21.6,10.6l0.3-0.7c0.2-0.4,0-1-0.4-1.2L45,14c-0.1-0.3-0.2-0.5-0.3-0.8l0.6-2.5c0.1-0.1,0.3-0.2,0.4-0.3l0.6,0.3
		c0.5,0.2,1,0,1.2-0.4C47.6,9.8,47.4,9.2,47,9z"/>
</g>
</svg>
