<?xml version="1.0" encoding="utf-8"?>
<!-- Generator: Adobe Illustrator 18.0.0, SVG Export Plug-In . SVG Version: 6.00 Build 0)  -->
<!DOCTYPE svg PUBLIC "-//W3C//DTD SVG 1.1//EN" "http://www.w3.org/Graphics/SVG/1.1/DTD/svg11.dtd">
<svg version="1.1" id="Layer_1" xmlns="http://www.w3.org/2000/svg" xmlns:xlink="http://www.w3.org/1999/xlink" x="0px" y="0px"
	 viewBox="0 0 48 48" enable-background="new 0 0 48 48" xml:space="preserve">
<g>
	<path fill="#06728D" d="M37.8,6.3h-2.9c0,0,0,0,0,0h-2.3c0,0,0,0,0,0h-2c0,0,0,0,0,0H28c0,0,0,0,0,0h-1.9c0,0,0,0,0,0h-3.9
		c0,0,0,0,0,0h-1.9c0,0,0,0,0,0h-2.6c0,0,0,0,0,0h-2c0,0,0,0,0,0h-2.3c0,0,0,0,0,0h-2.9c-1.8,0-3.3,1.7-3.3,3.7v16.4
		c0,2.1,1.5,3.7,3.3,3.7h27.3c1.8,0,3.3-1.7,3.3-3.7V10.1C41.2,8,39.7,6.3,37.8,6.3z M31.3,8.2c0.4,1.3,0.6,2.8,0.6,4.3h-3.4
		c0-1.3-0.1-2.8-0.2-4.3H31.3z M28.5,14.4h3.4c-0.1,1.5-0.3,3-0.6,4.3h-3C28.4,17.3,28.5,15.8,28.5,14.4z M17.1,8.2h3
		c-0.1,1.5-0.2,3-0.2,4.3h-3.4C16.5,11,16.8,9.6,17.1,8.2z M19.9,14.4c0,1.3,0.1,2.8,0.2,4.3h-3c-0.4-1.3-0.6-2.8-0.6-4.3H19.9z
		 M12.4,8.2h2.8c-0.3,1.4-0.5,2.8-0.6,4.3h-3.2C11.5,11,11.8,9.6,12.4,8.2z M11.4,14.4h3.2c0.1,1.5,0.3,3,0.6,4.3h-2.8
		C11.8,17.4,11.5,16,11.4,14.4z M13.5,20.6h2.3c0.6,1.6,1.4,3.1,2.3,4.3C16.2,23.9,14.6,22.4,13.5,20.6z M17.7,20.6h2.6
		c0.3,1.9,0.6,3.7,1.2,5C20,24.7,18.6,22.9,17.7,20.6z M24.2,26.5c-0.6-0.2-1.4-2.3-1.9-5.8h3.9C25.6,24.2,24.7,26.2,24.2,26.5z
		 M26.4,18.8H22c-0.1-1.3-0.2-2.8-0.2-4.3h4.8C26.6,16,26.5,17.5,26.4,18.8z M21.8,12.5c0-1.6,0.1-3,0.2-4.3h4.4
		c0.1,1.3,0.2,2.8,0.2,4.3H21.8z M26.8,25.7c0.5-1.4,0.9-3.2,1.2-5h2.6C29.7,22.9,28.4,24.7,26.8,25.7z M30.3,24.9
		c0.9-1.2,1.7-2.6,2.3-4.2h2.3C33.8,22.4,32.2,23.9,30.3,24.9z M35.9,18.8h-2.8c0.3-1.4,0.5-2.8,0.6-4.3H37
		C36.9,16,36.5,17.4,35.9,18.8z M33.8,12.5c-0.1-1.5-0.3-3-0.6-4.3h2.8c0.6,1.3,1,2.8,1.1,4.3H33.8z"/>
	<path fill="#4DA0D8" d="M24.2,0.5C24.2,0.5,24.2,0.5,24.2,0.5c-0.5,0.2-1.4,2.2-1.9,5.8h3.9C25.6,2.7,24.7,0.7,24.2,0.5z"/>
	<path fill="#010101" d="M26.1,6.3C26.1,6.3,26.1,6.3,26.1,6.3l-3.9,0c0,0,0,0,0,0H26.1z"/>
	<path fill="#4DA0D8" d="M26.8,1.3c0.5,1.4,0.9,3.2,1.2,5h2.6C29.7,4,28.4,2.3,26.8,1.3z"/>
	<path fill="#010101" d="M30.6,6.3C30.6,6.3,30.6,6.3,30.6,6.3l-2.6,0c0,0,0,0,0,0H30.6z"/>
	<path fill="#4DA0D8" d="M21.6,1.3c-1.6,1-2.9,2.7-3.8,5h2.6C20.6,4.4,21,2.7,21.6,1.3z"/>
	<path fill="#010101" d="M20.4,6.3C20.4,6.3,20.4,6.3,20.4,6.3l-2.6,0c0,0,0,0,0,0H20.4z"/>
	<path fill="#4DA0D8" d="M30.3,2.1c0.9,1.2,1.7,2.6,2.3,4.2h2.3C33.8,4.6,32.2,3.1,30.3,2.1z"/>
	<path fill="#010101" d="M34.9,6.3C34.9,6.3,34.9,6.3,34.9,6.3l-2.3,0c0,0,0,0,0,0H34.9z"/>
	<path fill="#4DA0D8" d="M18,2.1c-1.8,1-3.4,2.5-4.6,4.2h2.3C16.4,4.7,17.1,3.3,18,2.1z"/>
	<path fill="#010101" d="M15.8,6.3C15.8,6.3,15.8,6.3,15.8,6.3l-2.3,0c0,0,0,0,0,0H15.8z"/>
	<path fill="#E77528" d="M46.6,46l-6.2-13.7c-0.2-0.3-0.5-0.6-0.9-0.6h-31c-0.4,0-0.7,0.2-0.9,0.6L1.4,46.2
		c-0.1,0.3-0.1,0.6,0.1,0.9c0.2,0.3,0.5,0.4,0.8,0.4h43.6c0,0,0,0,0,0c0.5,0,0.9-0.4,0.9-0.9C46.7,46.4,46.7,46.2,46.6,46z
		 M13.7,42.8h-2.3c-0.5,0-0.9-0.4-0.9-0.9c0-0.5,0.4-0.9,0.9-0.9h2.3c0.5,0,0.9,0.4,0.9,0.9C14.6,42.4,14.2,42.8,13.7,42.8z
		 M15.1,38.3h-2c-0.5,0-0.9-0.4-0.9-0.9c0-0.5,0.4-0.9,0.9-0.9h2c0.5,0,0.9,0.4,0.9,0.9C16,37.9,15.6,38.3,15.1,38.3z M21.3,42.8H19
		c-0.5,0-0.9-0.4-0.9-0.9c0-0.5,0.4-0.9,0.9-0.9h2.3c0.5,0,0.9,0.4,0.9,0.9C22.2,42.4,21.8,42.8,21.3,42.8z M21.7,38.3h-2
		c-0.5,0-0.9-0.4-0.9-0.9c0-0.5,0.4-0.9,0.9-0.9h2c0.5,0,0.9,0.4,0.9,0.9C22.6,37.9,22.2,38.3,21.7,38.3z M25.4,37.3
		c0-0.5,0.4-0.9,0.9-0.9h2c0.5,0,0.9,0.4,0.9,0.9c0,0.5-0.4,0.9-0.9,0.9h-2C25.8,38.3,25.4,37.9,25.4,37.3z M28.9,42.8h-2.3
		c-0.5,0-0.9-0.4-0.9-0.9c0-0.5,0.4-0.9,0.9-0.9h2.3c0.5,0,0.9,0.4,0.9,0.9C29.9,42.4,29.5,42.8,28.9,42.8z M32,37.3
		c0-0.5,0.4-0.9,0.9-0.9h2c0.5,0,0.9,0.4,0.9,0.9c0,0.5-0.4,0.9-0.9,0.9h-2C32.4,38.3,32,37.9,32,37.3z M36.6,42.8h-2.3
		c-0.5,0-0.9-0.4-0.9-0.9c0-0.5,0.4-0.9,0.9-0.9h2.3c0.5,0,0.9,0.4,0.9,0.9C37.5,42.4,37.1,42.8,36.6,42.8z"/>
</g>
</svg>
