<?xml version="1.0" encoding="utf-8"?>
<!-- Generator: Adobe Illustrator 18.0.0, SVG Export Plug-In . SVG Version: 6.00 Build 0)  -->
<!DOCTYPE svg PUBLIC "-//W3C//DTD SVG 1.1//EN" "http://www.w3.org/Graphics/SVG/1.1/DTD/svg11.dtd">
<svg version="1.1" id="Layer_1" xmlns="http://www.w3.org/2000/svg" xmlns:xlink="http://www.w3.org/1999/xlink" x="0px" y="0px"
	 viewBox="0 0 48 48" enable-background="new 0 0 48 48" xml:space="preserve">
<g>
	<path fill="#F04B36" d="M37.4,4c-0.3-1.1-1.2-2.2-2.9-3.2l-0.6-0.4l-6.6,7.3h-6.4l-6.6-7.3l-0.6,0.4c-1.6,1-2.6,2-2.9,3.2
		c-0.2,1,0.1,1.6,0.2,1.7l5.4,5.5l0,0l4.5,6.9H27l4.4-6.5l0,0L37,5.9l0.1-0.1C37.2,5.7,37.6,5,37.4,4z M12.4,4.8
		c-0.1-0.3,0.1-1,1.5-2l5.5,6.1l-1.6,1.3L12.4,4.8z M35.6,4.8l-5.2,5.3l-1.7-1.3l5.4-6C35.5,3.8,35.7,4.5,35.6,4.8z"/>
	<polygon fill="#F04B36" points="27.2,19.2 20.7,19.2 15.2,39.9 23.9,47.5 32.8,40.1 	"/>
</g>
</svg>
