<?xml version="1.0" encoding="utf-8"?>
<!-- Generator: Adobe Illustrator 18.0.0, SVG Export Plug-In . SVG Version: 6.00 Build 0)  -->
<!DOCTYPE svg PUBLIC "-//W3C//DTD SVG 1.1//EN" "http://www.w3.org/Graphics/SVG/1.1/DTD/svg11.dtd">
<svg version="1.1" id="Layer_1" xmlns="http://www.w3.org/2000/svg" xmlns:xlink="http://www.w3.org/1999/xlink" x="0px" y="0px"
	 viewBox="0 0 48 48" enable-background="new 0 0 48 48" xml:space="preserve">
<g>
	<line fill="#010101" x1="11.7" y1="41.4" x2="10" y2="40.9"/>
	<path fill="#4DA0D8" d="M9.2,39.9l-1.6,3.3c-0.1,0.3-0.1,0.6,0.1,0.8c0.2,0.3,0.5,0.4,0.8,0.4h3.4c0.3,0,0.6-0.1,0.8-0.3l1.5-2.4"
		/>
	<path fill="#06728D" d="M23.5,34.4C26.9,29,34.3,5.7,34.7,4.7c0.1-0.4-0.1-0.9-0.6-1.1l-8.8-3.1c-0.4-0.1-0.8,0-1,0.2
		C21.8,3,9.7,25.6,8.3,28.2"/>
	<path fill="#010101" d="M10,29C10,29,10.1,29,10,29l11.8,4.6"/>
	<path fill="#F04B36" d="M23.2,35.2c-0.1-0.4-0.4-0.6-0.8-0.7c-2.1-0.2-10.3-3.8-13.2-5.1c-0.3-0.1-0.6-0.1-0.9,0
		c-0.3,0.1-0.5,0.3-0.5,0.6c-0.5,2.2,1.4,8.2,1.6,8.8c0.1,0.3,0.3,0.5,0.6,0.6l4,1.4c0.1,0,0.2,0.1,0.3,0.1c0.2,0,0.4,0,0.5-0.1
		l7.9-4.6C23.1,36,23.3,35.6,23.2,35.2z"/>
	<path fill="#4DA0D8" d="M46.5,47.5H1.5c-0.5,0-1-0.4-1-0.9c0-0.5,0.4-0.9,1-0.9h45.1c0.5,0,1,0.4,1,0.9
		C47.5,47.1,47.1,47.5,46.5,47.5z"/>
</g>
</svg>
