<?xml version="1.0" encoding="utf-8"?>
<!-- Generator: Adobe Illustrator 18.0.0, SVG Export Plug-In . SVG Version: 6.00 Build 0)  -->
<!DOCTYPE svg PUBLIC "-//W3C//DTD SVG 1.1//EN" "http://www.w3.org/Graphics/SVG/1.1/DTD/svg11.dtd">
<svg version="1.1" id="Layer_1" xmlns="http://www.w3.org/2000/svg" xmlns:xlink="http://www.w3.org/1999/xlink" x="0px" y="0px"
	 viewBox="0 0 48 48" enable-background="new 0 0 48 48" xml:space="preserve">
<g>
	<circle fill="#F7A93B" cx="18.8" cy="13.5" r="2.9"/>
	<path fill="#F04B36" d="M31.1,11.4l-0.4-0.3c-0.7-0.4-1.6-0.3-2,0.4l-5.2,7.8c-0.7-0.5-1.6-0.8-2.6-0.8c0,0-5.2-0.6-6.6,1.7
		l-6.3,9.4c-0.4,0.7-0.3,1.6,0.4,2l0.4,0.3c0.7,0.4,1.6,0.3,2-0.4l3-4.5v1.8v0v4.3v10.7c0,0.8,0.7,1.5,1.5,1.5h1.4
		c0.8,0,1.5-0.7,1.5-1.5V33.1h0.1h2.8H21v10.7c0,0.8,0.7,1.5,1.5,1.5h1.4c0.8,0,1.5-0.7,1.5-1.5V33.1v-4.3v0v-3v-3c0,0,0-0.1,0-0.1
		l6.2-9.3C31.9,12.7,31.7,11.8,31.1,11.4z"/>
	<path fill="#0DB89A" d="M41.6,2.7H6.4c-3.3,0-5.9,2.5-5.9,5.6v20.8c0,3.1,2.7,5.6,5.9,5.6H8h4.8v-4.6L11.6,32
		c-0.7,1.1-2.3,1.4-3.4,0.7l-0.4-0.3c-1.1-0.7-1.4-2.2-0.7-3.4l6.3-9.4c1.1-1.8,3.8-2.2,5.9-2.2c0.8,0,1.5,0.1,1.6,0.1
		c0.8,0,1.5,0.2,2.2,0.5l4.7-7c0.7-1.1,2.3-1.4,3.4-0.7l0.4,0.3c0.5,0.4,0.9,0.9,1,1.5c0.1,0.6,0,1.3-0.4,1.8L26.2,23v11.8h10.4h5
		c3.3,0,5.9-2.5,5.9-5.6V8.3C47.5,5.2,44.8,2.7,41.6,2.7z M18.8,17.4c-2.2,0-3.9-1.8-3.9-3.9s1.8-3.9,3.9-3.9c2.2,0,3.9,1.8,3.9,3.9
		S20.9,17.4,18.8,17.4z M36.1,8.5H11.9c-0.5,0-1-0.4-1-1c0-0.5,0.4-1,1-1h24.1c0.5,0,1,0.4,1,1C37,8.1,36.6,8.5,36.1,8.5z"/>
	<rect x="19" y="34.1" fill="#61A89A" width="1" height="0.6"/>
</g>
</svg>
