<?xml version="1.0" encoding="utf-8"?>
<!-- Generator: Adobe Illustrator 18.0.0, SVG Export Plug-In . SVG Version: 6.00 Build 0)  -->
<!DOCTYPE svg PUBLIC "-//W3C//DTD SVG 1.1//EN" "http://www.w3.org/Graphics/SVG/1.1/DTD/svg11.dtd">
<svg version="1.1" id="Layer_1" xmlns="http://www.w3.org/2000/svg" xmlns:xlink="http://www.w3.org/1999/xlink" x="0px" y="0px"
	 viewBox="0 0 48 48" enable-background="new 0 0 48 48" xml:space="preserve">
<g>
	<path fill="#F04B36" d="M6,31.4c0,3.1,2.3,5.6,5.1,5.6s5.1-2.5,5.1-5.6V0.5H6V31.4z"/>
	<path fill="#0DB89A" d="M18.9,31.4c0,3.1,2.3,5.6,5.1,5.6c2.8,0,5.1-2.5,5.1-5.6V0.5H18.9V31.4z"/>
	<path fill="#4DA0D8" d="M31.8,0.5v30.9c0,3.1,2.3,5.6,5.1,5.6c2.8,0,5.1-2.5,5.1-5.6V0.5H31.8z"/>
	<path fill="#06728D" d="M7,9.9H3.5c-0.5,0-1-0.4-1-1c0-0.5,0.4-1,1-1H7c0.5,0,1,0.4,1,1C7.9,9.5,7.5,9.9,7,9.9z"/>
	<path fill="#06728D" d="M44.5,9.9H41c-0.5,0-1-0.4-1-1c0-0.5,0.4-1,1-1h3.4c0.5,0,1,0.4,1,1C45.4,9.5,45,9.9,44.5,9.9z"/>
	<path fill="#06728D" d="M32.7,9.9h-4.6c-0.5,0-1-0.4-1-1c0-0.5,0.4-1,1-1h4.6c0.5,0,1,0.4,1,1C33.7,9.5,33.3,9.9,32.7,9.9z"/>
	<path fill="#06728D" d="M19.8,9.9h-4.6c-0.5,0-1-0.4-1-1c0-0.5,0.4-1,1-1h4.6c0.5,0,1,0.4,1,1C20.8,9.5,20.4,9.9,19.8,9.9z"/>
	<path fill="#06728D" d="M3.5,41.1c-0.5,0-1-0.4-1-1V4.8c0-0.5,0.4-1,1-1c0.5,0,1,0.4,1,1v35.3C4.5,40.7,4.1,41.1,3.5,41.1z"/>
	<path fill="#06728D" d="M44.5,41.1c-0.5,0-1-0.4-1-1V4.8c0-0.5,0.4-1,1-1c0.5,0,1,0.4,1,1v35.3C45.5,40.7,45,41.1,44.5,41.1z"/>
	<rect x="0.5" y="39.5" fill="#06728D" width="47" height="8"/>
</g>
</svg>
