<?xml version="1.0" encoding="utf-8"?>
<!-- Generator: Adobe Illustrator 18.0.0, SVG Export Plug-In . SVG Version: 6.00 Build 0)  -->
<!DOCTYPE svg PUBLIC "-//W3C//DTD SVG 1.1//EN" "http://www.w3.org/Graphics/SVG/1.1/DTD/svg11.dtd">
<svg version="1.1" id="Layer_1" xmlns="http://www.w3.org/2000/svg" xmlns:xlink="http://www.w3.org/1999/xlink" x="0px" y="0px"
	 viewBox="0 0 48 48" enable-background="new 0 0 48 48" xml:space="preserve">
<g>
	<path fill="#F7A93B" d="M9.7,42.1c-0.2,0-0.4-0.1-0.6-0.2C4.5,38,1.8,32.5,1.8,26.8c0-5.7,2.6-11.2,7.2-15.1c0.4-0.3,1-0.3,1.4,0.1
		c0.3,0.4,0.3,1-0.1,1.4c-4.2,3.5-6.5,8.4-6.5,13.6c0,5.1,2.4,10.1,6.5,13.6c0.4,0.3,0.5,1,0.1,1.4C10.2,41.9,10,42.1,9.7,42.1z"/>
	<path fill="#F7A93B" d="M38.3,42.1c-0.3,0-0.6-0.1-0.7-0.3c-0.3-0.4-0.3-1,0.1-1.4c4.2-3.5,6.5-8.4,6.5-13.6
		c0-5.1-2.4-10.1-6.5-13.6c-0.4-0.3-0.5-1-0.1-1.4c0.3-0.4,1-0.5,1.4-0.1c4.6,3.9,7.2,9.3,7.2,15.1c0,5.7-2.6,11.2-7.2,15.1
		C38.8,42,38.5,42.1,38.3,42.1z"/>
	<path fill="#F04B36" d="M32,7.8c-0.5,0-1-0.4-1-1c0-2.6-1.3-4.4-2.5-4.4h-9.2c-1.2,0-2.5,1.8-2.5,4.4c0,0.5-0.4,1-1,1
		c-0.5,0-1-0.4-1-1c0-3.5,1.9-6.3,4.4-6.3h9.2c2.5,0,4.4,2.8,4.4,6.3C33,7.3,32.6,7.8,32,7.8z"/>
	<path fill="#294E58" d="M25,27.7v5c0,0.5-0.4,1-1,1c-0.5,0-1-0.4-1-1v-5H8.7v12.7c0,3.9,3.2,7.1,7.1,7.1h16.5
		c3.9,0,7.1-3.2,7.1-7.1V27.7H25z"/>
	<path fill="#06728D" d="M23,25.8v-2.2c0-0.5,0.4-1,1-1c0.5,0,1,0.4,1,1v2.2h14.4V13.1c0-3.9-3.2-7.1-7.1-7.1H15.8
		c-3.9,0-7.1,3.2-7.1,7.1v12.7H23z M18.7,14.4h10.7c0.5,0,1,0.4,1,1c0,0.5-0.4,1-1,1H18.7c-0.5,0-1-0.4-1-1
		C17.7,14.8,18.1,14.4,18.7,14.4z"/>
</g>
</svg>
