<?xml version="1.0" encoding="utf-8"?>
<!-- Generator: Adobe Illustrator 18.0.0, SVG Export Plug-In . SVG Version: 6.00 Build 0)  -->
<!DOCTYPE svg PUBLIC "-//W3C//DTD SVG 1.1//EN" "http://www.w3.org/Graphics/SVG/1.1/DTD/svg11.dtd">
<svg version="1.1" id="Layer_1" xmlns="http://www.w3.org/2000/svg" xmlns:xlink="http://www.w3.org/1999/xlink" x="0px" y="0px"
	 viewBox="0 0 48 48" enable-background="new 0 0 48 48" xml:space="preserve">
<g>
	<polygon fill="#06728D" points="42.1,7.4 42.2,7.3 40.2,5.3 40.2,3.1 17.8,3.5 17.8,6.3 39.5,6 33.4,12.3 35.5,14.3 41.8,7.7 
		42.2,29.6 45,29.6 44.7,7.4 	"/>
	<path fill="#06728D" d="M40.5,31.2l-6,0.1l-0.2-13.4l-2.9,0l0.2,13.4l-13.5,0.2l0,2.9l13.5-0.2l0.1,6l2.3,0l-0.2,0.2l2.1,2l6.5-6.8
		l-2-1.9L40.5,31.2z M34.6,39.6l-0.1-5.5l5.4-0.1L34.6,39.6z"/>
	<path fill="#06728D" d="M7.6,14.4l0,2.4l6.2-0.1L14,30.1l2.9,0l-0.2-13.3l13.2-0.2l0-2.9l-13.2,0.2l-0.1-6l-2.7,0l0.2-0.2l-2.1-2
		l-6.5,6.7L7.6,14.4L7.6,14.4z M13.7,8.1l0.1,5.8L8,14L13.7,8.1z"/>
	<polygon fill="#06728D" points="14.3,36 12.2,34 6.4,40.1 6.1,18.5 3.2,18.5 3.6,40.8 6.2,40.7 8,42.5 8,42.5 8.1,44.9 30.3,44.6 
		30.3,41.7 8.4,42.1 	"/>
	<path fill="#F04B36" d="M32.7,11.2c-2.1,0-3.8,1.8-3.8,3.9c0,2.1,1.8,3.8,3.9,3.8c2.1,0,3.8-1.8,3.8-3.9
		C36.6,12.8,34.8,11.1,32.7,11.2z"/>
	<path fill="#294E58" d="M4.5,11.6c-2.1,0-3.8,1.8-3.8,3.9c0,2.1,1.8,3.8,3.9,3.8c2.1,0,3.8-1.8,3.8-3.9C8.4,13.3,6.7,11.6,4.5,11.6
		z"/>
	<path fill="#E77528" d="M33.1,39.3c-2.1,0-3.8,1.8-3.8,3.9c0,2.1,1.8,3.8,3.9,3.8c2.1,0,3.8-1.8,3.8-3.9
		C37,40.9,35.3,39.2,33.1,39.3z"/>
	<path fill="#0DB89A" d="M43.3,28.7c-2.1,0-3.8,1.8-3.8,3.9c0,2.1,1.8,3.8,3.9,3.8c2.1,0,3.8-1.8,3.8-3.9
		C47.2,30.3,45.5,28.6,43.3,28.7z"/>
	<path fill="#294E58" d="M43,8.3c2.1,0,3.8-1.8,3.8-3.9c0-2.1-1.8-3.8-3.9-3.8c-2.1,0-3.8,1.8-3.8,3.9C39.1,6.6,40.9,8.3,43,8.3z"/>
	<path fill="#E77528" d="M14.8,1c-2.1,0-3.8,1.8-3.8,3.9c0,2.1,1.8,3.8,3.9,3.8c2.1,0,3.8-1.8,3.8-3.9C18.6,2.7,16.9,1,14.8,1z"/>
	<path fill="#F04B36" d="M15.2,29.1c-2.1,0-3.8,1.8-3.8,3.9c0,2.1,1.8,3.8,3.9,3.8c2.1,0,3.8-1.8,3.8-3.9
		C19.1,30.8,17.3,29.1,15.2,29.1z"/>
	<path fill="#0DB89A" d="M5,39.7c-2.1,0-3.8,1.8-3.8,3.9c0,2.1,1.8,3.8,3.9,3.8c2.1,0,3.8-1.8,3.8-3.9C8.9,41.4,7.1,39.7,5,39.7z"/>
</g>
</svg>
