<?xml version="1.0" encoding="utf-8"?>
<!-- Generator: Adobe Illustrator 18.0.0, SVG Export Plug-In . SVG Version: 6.00 Build 0)  -->
<!DOCTYPE svg PUBLIC "-//W3C//DTD SVG 1.1//EN" "http://www.w3.org/Graphics/SVG/1.1/DTD/svg11.dtd">
<svg version="1.1" id="Layer_1" xmlns="http://www.w3.org/2000/svg" xmlns:xlink="http://www.w3.org/1999/xlink" x="0px" y="0px"
	 viewBox="0 0 48 48" enable-background="new 0 0 48 48" xml:space="preserve">
<g>
	<path fill="#E77528" d="M47.2,31.9L16.1,0.8c-0.4-0.4-1-0.4-1.4,0l-14,14c-0.2,0.2-0.3,0.4-0.3,0.7s0.1,0.5,0.3,0.7l31.1,31.1
		c0.2,0.2,0.4,0.3,0.7,0.3c0.2,0,0.5-0.1,0.7-0.3l14-14C47.6,32.8,47.6,32.2,47.2,31.9z M8,16.8c-0.2,0-0.5-0.1-0.7-0.3
		c-0.4-0.4-0.4-1,0-1.4l5.3-5.3c0.4-0.4,1-0.4,1.4,0c0.4,0.4,0.4,1,0,1.4l-5.3,5.3C8.5,16.7,8.3,16.8,8,16.8z M11.9,20.7
		c-0.2,0-0.5-0.1-0.7-0.3c-0.4-0.4-0.4-1,0-1.4l2.7-2.7c0.4-0.4,1-0.4,1.4,0c0.4,0.4,0.4,1,0,1.4l-2.7,2.7
		C12.4,20.6,12.2,20.7,11.9,20.7z M16.1,24.8c-0.2,0-0.5-0.1-0.7-0.3c-0.4-0.4-0.4-1,0-1.4l5.3-5.3c0.4-0.4,1-0.4,1.4,0
		c0.4,0.4,0.4,1,0,1.4l-5.3,5.3C16.6,24.7,16.3,24.8,16.1,24.8z M20,28.7c-0.2,0-0.5-0.1-0.7-0.3c-0.4-0.4-0.4-1,0-1.4l2.7-2.7
		c0.4-0.4,1-0.4,1.4,0c0.4,0.4,0.4,1,0,1.4l-2.7,2.7C20.5,28.6,20.2,28.7,20,28.7z M24.1,32.9c-0.2,0-0.5-0.1-0.7-0.3
		c-0.4-0.4-0.4-1,0-1.4l5.3-5.3c0.4-0.4,1-0.4,1.4,0c0.4,0.4,0.4,1,0,1.4l-5.3,5.3C24.6,32.8,24.4,32.9,24.1,32.9z M28,36.8
		c-0.2,0-0.5-0.1-0.7-0.3c-0.4-0.4-0.4-1,0-1.4l2.7-2.7c0.4-0.4,1-0.4,1.4,0c0.4,0.4,0.4,1,0,1.4l-2.7,2.7
		C28.5,36.7,28.3,36.8,28,36.8z M38.2,35.3l-5.3,5.3c-0.2,0.2-0.4,0.3-0.7,0.3c-0.2,0-0.5-0.1-0.7-0.3c-0.4-0.4-0.4-1,0-1.4l5.3-5.3
		c0.4-0.4,1-0.4,1.4,0C38.6,34.3,38.6,34.9,38.2,35.3z"/>
</g>
</svg>
