<?xml version="1.0" encoding="utf-8"?>
<!-- Generator: Adobe Illustrator 18.0.0, SVG Export Plug-In . SVG Version: 6.00 Build 0)  -->
<!DOCTYPE svg PUBLIC "-//W3C//DTD SVG 1.1//EN" "http://www.w3.org/Graphics/SVG/1.1/DTD/svg11.dtd">
<svg version="1.1" id="Layer_1" xmlns="http://www.w3.org/2000/svg" xmlns:xlink="http://www.w3.org/1999/xlink" x="0px" y="0px"
	 viewBox="0 0 48 48" enable-background="new 0 0 48 48" xml:space="preserve">
<g>
	<path fill="#F04B36" d="M29,30.1c-0.4,0-0.8-0.1-1-0.3c-1.2-1-2.4-1.4-3.7-1.4c-2.1,0-3.7,1.4-3.7,1.4c-0.5,0.5-1.5,0.5-2.1,0.1
		c-0.6-0.4-0.6-1.2-0.1-1.6c0.1-0.1,2.4-2.1,5.8-2.2c2.1,0,4.1,0.7,5.9,2.1c0.6,0.5,0.6,1.2,0,1.6C29.8,30,29.4,30.1,29,30.1z"/>
	<path fill="#06728D" d="M2.8,29.6c-0.2,0-0.3,0-0.5-0.1c-0.8-0.2-1.2-0.9-0.9-1.5l8.8-20.7c0.1-0.2,1.4-1.9,3.8-2.1
		c1.7-0.1,3.3,0.5,4.9,1.9c0.5,0.5,0.5,1.2-0.1,1.6c-0.6,0.4-1.5,0.4-2.1-0.1c-0.6-0.6-1.5-1.2-2.4-1.1c-0.8,0.1-1.4,0.7-1.6,0.9
		L4.2,28.8C4,29.3,3.4,29.6,2.8,29.6z"/>
	<path fill="#06728D" d="M45.1,29.6c-0.6,0-1.2-0.3-1.4-0.8L35,8.4c-0.2-0.2-0.8-0.8-1.6-0.9c-0.8-0.1-1.8,0.6-2.4,1.1
		c-0.5,0.5-1.5,0.5-2.1,0.1c-0.6-0.4-0.7-1.1-0.1-1.6c1.6-1.4,3.2-2,4.9-1.9c2.4,0.2,3.7,1.9,3.8,2.1l0.1,0.2l8.7,20.5
		c0.3,0.6-0.2,1.3-0.9,1.5C45.4,29.6,45.2,29.6,45.1,29.6z"/>
	<path fill="#4DA0D8" d="M10.8,23.8c-5.7,0-10.3,4.3-10.3,9.5c0,5.2,4.6,9.5,10.3,9.5c5.7,0,10.3-4.3,10.3-9.5
		C21.2,28.1,16.6,23.8,10.8,23.8z"/>
	<path fill="#4DA0D8" d="M37.2,23.8c-5.7,0-10.3,4.3-10.3,9.5c0,5.2,4.6,9.5,10.3,9.5c5.7,0,10.3-4.3,10.3-9.5
		C47.5,28.1,42.9,23.8,37.2,23.8z"/>
</g>
</svg>
