<?xml version="1.0" encoding="utf-8"?>
<!-- Generator: Adobe Illustrator 18.0.0, SVG Export Plug-In . SVG Version: 6.00 Build 0)  -->
<!DOCTYPE svg PUBLIC "-//W3C//DTD SVG 1.1//EN" "http://www.w3.org/Graphics/SVG/1.1/DTD/svg11.dtd">
<svg version="1.1" id="Layer_1" xmlns="http://www.w3.org/2000/svg" xmlns:xlink="http://www.w3.org/1999/xlink" x="0px" y="0px"
	 viewBox="0 0 48 48" enable-background="new 0 0 48 48" xml:space="preserve">
<g>
	<path fill="#F04B36" d="M12,43.4C12,43.4,12,43.4,12,43.4c-0.9,0-1.6-0.6-1.8-1.3L4.6,23.1H2.4c-1,0-1.9-0.8-1.9-1.9
		c0-1,0.8-1.9,1.9-1.9H6c0.8,0,1.6,0.5,1.8,1.3l4.3,14.7L22.4,5.9c0.3-0.7,1-1.3,1.8-1.3h21.5c1,0,1.9,0.8,1.9,1.9s-0.8,1.9-1.9,1.9
		H25.5L13.7,42.1C13.5,42.9,12.8,43.4,12,43.4z"/>
	<path fill="#E77528" d="M44.2,40.1H29c-0.8,0-1.5-0.5-1.8-1.3C27,38,27.3,37.2,28,36.7c9-6.1,12.6-10.2,12.6-14.5
		c0-1.6-0.5-2.8-1.4-3.4C36.8,17,32,18,30.4,18.5c-1,0.3-2-0.2-2.3-1.2c-0.3-1,0.2-2,1.2-2.3c0.8-0.3,7.9-2.4,12.1,0.7
		c1.3,1,2.9,2.9,2.9,6.4c0,5.3-3.6,9.7-9.4,14.2h9.3c1,0,1.9,0.8,1.9,1.9C46,39.3,45.2,40.1,44.2,40.1z"/>
</g>
</svg>
