<?xml version="1.0" encoding="utf-8"?>
<!-- Generator: Adobe Illustrator 18.0.0, SVG Export Plug-In . SVG Version: 6.00 Build 0)  -->
<!DOCTYPE svg PUBLIC "-//W3C//DTD SVG 1.1//EN" "http://www.w3.org/Graphics/SVG/1.1/DTD/svg11.dtd">
<svg version="1.1" id="Layer_1" xmlns="http://www.w3.org/2000/svg" xmlns:xlink="http://www.w3.org/1999/xlink" x="0px" y="0px"
	 viewBox="0 0 48 48" enable-background="new 0 0 48 48" xml:space="preserve">
<g>
	<path fill="#E77528" d="M21.7,21.7c-6.5,2.1-10.6,1.5-13,0.7v19.7c0,3,2.4,5.4,5.4,5.4h23.4c3,0,5.4-2.4,5.4-5.4V14.4
		C34,14.4,32.2,18.3,21.7,21.7z M22.1,28.5c0-2.6,2.1-4.7,4.7-4.7s4.7,2.1,4.7,4.7c0,2.6-2.1,4.7-4.7,4.7S22.1,31.1,22.1,28.5z
		 M31.3,40.7c-1.6,0-2.9-1.3-2.9-2.9c0-1.6,1.3-2.9,2.9-2.9s2.9,1.3,2.9,2.9C34.2,39.4,32.9,40.7,31.3,40.7z M33.8,26.9
		c-1.7,0-3-1.4-3-3c0-1.7,1.4-3,3-3c1.7,0,3,1.4,3,3C36.8,25.5,35.4,26.9,33.8,26.9z"/>
	<path fill="#F04B36" d="M37.5,0.6l-23.4,0c-0.1,0-1.4-0.1-2.9-0.1c-4.5,0-5.5,0.7-6,1.4C5.1,2.2,5,2.6,5.1,3.1
		c0.3,1.2,2.4,2.7,3.6,3.5v14.4c2.4,0.8,6.5,1.4,13-0.7C32.2,16.9,34,13,42.9,12.9V6C42.9,3,40.5,0.6,37.5,0.6z M20,19.4h-6.1
		c-0.5,0-0.9-0.4-0.9-0.9c0-0.5,0.4-0.9,0.9-0.9H20c0.5,0,0.9,0.4,0.9,0.9C20.9,19,20.5,19.4,20,19.4z M13,12.4
		c0-0.5,0.4-0.9,0.9-0.9h3c0.5,0,0.9,0.4,0.9,0.9c0,0.5-0.4,0.9-0.9,0.9h-3C13.4,13.3,13,12.9,13,12.4z M20,8.6h-6.1
		c-0.5,0-0.9-0.4-0.9-0.9c0-0.5,0.4-0.9,0.9-0.9H20c0.5,0,0.9,0.4,0.9,0.9C20.9,8.2,20.5,8.6,20,8.6z"/>
</g>
</svg>
