<?xml version="1.0" encoding="utf-8"?>
<!-- Generator: Adobe Illustrator 18.0.0, SVG Export Plug-In . SVG Version: 6.00 Build 0)  -->
<!DOCTYPE svg PUBLIC "-//W3C//DTD SVG 1.1//EN" "http://www.w3.org/Graphics/SVG/1.1/DTD/svg11.dtd">
<svg version="1.1" id="Layer_1" xmlns="http://www.w3.org/2000/svg" xmlns:xlink="http://www.w3.org/1999/xlink" x="0px" y="0px"
	 viewBox="0 0 48 48" enable-background="new 0 0 48 48" xml:space="preserve">
<g>
	<path fill="#F04B36" d="M11.6,9.5c-0.5,0-1-0.4-1-1V1.5c0-0.5,0.4-1,1-1c0.5,0,1,0.4,1,1v7.1C12.6,9.1,12.2,9.5,11.6,9.5z"/>
	<path fill="#F04B36" d="M19.9,9.5c-0.5,0-1-0.4-1-1V1.5c0-0.5,0.4-1,1-1c0.5,0,1,0.4,1,1v7.1C20.8,9.1,20.4,9.5,19.9,9.5z"/>
	<path fill="#F04B36" d="M28.1,9.5c-0.5,0-1-0.4-1-1V1.5c0-0.5,0.4-1,1-1c0.5,0,1,0.4,1,1v7.1C29.1,9.1,28.7,9.5,28.1,9.5z"/>
	<path fill="#F04B36" d="M36.4,9.5c-0.5,0-1-0.4-1-1V1.5c0-0.5,0.4-1,1-1c0.5,0,1,0.4,1,1v7.1C37.3,9.1,36.9,9.5,36.4,9.5z"/>
	<path fill="#06728D" d="M46.5,4h-7.3v4.5c0,1.6-1.3,2.9-2.9,2.9c-1.6,0-2.9-1.3-2.9-2.9V4H31v4.5c0,1.6-1.3,2.9-2.9,2.9
		c-1.6,0-2.9-1.3-2.9-2.9V4h-2.4v4.5c0,1.6-1.3,2.9-2.9,2.9c-1.6,0-2.9-1.3-2.9-2.9V4h-2.4v4.5c0,1.6-1.3,2.9-2.9,2.9
		c-1.6,0-2.9-1.3-2.9-2.9V4H1.5c-0.5,0-1,0.4-1,1v41.5c0,0.5,0.4,1,1,1h45.1c0.5,0,1-0.4,1-1V5C47.5,4.5,47.1,4,46.5,4z M37.1,40.8
		H10.9c-0.8,0-1.5-0.7-1.5-1.5c0-0.8,0.7-1.5,1.5-1.5h26.3c0.8,0,1.5,0.7,1.5,1.5C38.6,40.2,37.9,40.8,37.1,40.8z M37.1,33.8H10.9
		c-0.8,0-1.5-0.7-1.5-1.5c0-0.8,0.7-1.5,1.5-1.5h26.3c0.8,0,1.5,0.7,1.5,1.5C38.6,33.2,37.9,33.8,37.1,33.8z M37.1,26.8H10.9
		c-0.8,0-1.5-0.7-1.5-1.5c0-0.8,0.7-1.5,1.5-1.5h26.3c0.8,0,1.5,0.7,1.5,1.5C38.6,26.1,37.9,26.8,37.1,26.8z M37.1,19.8H10.9
		c-0.8,0-1.5-0.7-1.5-1.5c0-0.8,0.7-1.5,1.5-1.5h26.3c0.8,0,1.5,0.7,1.5,1.5C38.6,19.1,37.9,19.8,37.1,19.8z"/>
</g>
</svg>
