<?xml version="1.0" encoding="utf-8"?>
<!-- Generator: Adobe Illustrator 18.0.0, SVG Export Plug-In . SVG Version: 6.00 Build 0)  -->
<!DOCTYPE svg PUBLIC "-//W3C//DTD SVG 1.1//EN" "http://www.w3.org/Graphics/SVG/1.1/DTD/svg11.dtd">
<svg version="1.1" id="Layer_1" xmlns="http://www.w3.org/2000/svg" xmlns:xlink="http://www.w3.org/1999/xlink" x="0px" y="0px"
	 viewBox="0 0 48 48" enable-background="new 0 0 48 48" xml:space="preserve">
<g>
	<path fill="#E77528" d="M25.8,45.4c-0.5,0-0.9-0.3-1-0.8L22,29.8H4.5L2.4,44.5c-0.1,0.5-0.6,0.9-1.1,0.8c-0.5-0.1-0.9-0.6-0.8-1.1
		l2.2-15.6c0.1-0.5,0.5-0.8,1-0.8h19.1c0.5,0,0.9,0.3,1,0.8l3,15.6c0.1,0.5-0.2,1-0.8,1.1C25.9,45.4,25.9,45.4,25.8,45.4z"/>
	<path fill="#E77528" d="M46.5,34.5H33.6c-0.5,0-1-0.4-1-1c0-0.5,0.4-1,1-1h11.9V13.5c0-0.5,0.4-1,1-1c0.5,0,1,0.4,1,1v20
		C47.5,34.1,47.1,34.5,46.5,34.5z"/>
	<path fill="#E77528" d="M40.1,44.3c-0.5,0-1-0.4-1-1v-9.1c0-0.5,0.4-1,1-1c0.5,0,1,0.4,1,1v9.1C41,43.9,40.6,44.3,40.1,44.3z"/>
	<path fill="#E77528" d="M44.6,44.3h-9.3c-0.5,0-1-0.4-1-1c0-0.5,0.4-1,1-1h9.3c0.5,0,1,0.4,1,1C45.6,43.9,45.1,44.3,44.6,44.3z"/>
	<path fill="#F7A93B" d="M27.9,2.6c-2.7,0-4.8,2.2-4.8,4.8c0,2.7,2.2,4.8,4.8,4.8c2.7,0,4.8-2.2,4.8-4.8C32.8,4.8,30.6,2.6,27.9,2.6
		z"/>
	<path fill="#F04B36" d="M44,24.1l-5.5-10.5c-0.9-1.7-2.9-2.7-4.8-2.4c-1-0.2-2,0.1-2.7,0.8l-5.7,6.3l-7.4,1.2
		c-1.5,0.3-2.5,1.7-2.3,3.3c0.2,1.4,1.4,2.4,2.8,2.4c0.2,0,0.3,0,0.5,0l8.4-1.4c0.6-0.1,1.2-0.4,1.6-0.9l2.6-2.9l2.8,5.2h-5.9
		c-0.8,0-1.6,0.4-2.2,1.1c-0.5,0.7-0.7,1.5-0.6,2.3L28.1,42c0.3,1.3,1.4,2.3,2.7,2.3c0.2,0,0.4,0,0.6-0.1c1.5-0.3,2.5-1.8,2.2-3.3
		L31.6,31h7.4c0.7,0.1,1.3,0.1,1.9,0c0.5-0.1,1-0.3,1.4-0.6C44.4,29.1,45.1,26.3,44,24.1z"/>
	<path fill="#06728D" d="M21.9,27.5h-8.8c-0.4,0-0.7-0.2-0.9-0.5L6.4,15.7c-0.2-0.5-0.1-1.1,0.4-1.3c0.5-0.2,1.1-0.1,1.3,0.4
		l5.6,10.8h8.2c0.5,0,1,0.4,1,1S22.4,27.5,21.9,27.5z"/>
</g>
</svg>
