<?xml version="1.0" encoding="utf-8"?>
<!-- Generator: Adobe Illustrator 18.0.0, SVG Export Plug-In . SVG Version: 6.00 Build 0)  -->
<!DOCTYPE svg PUBLIC "-//W3C//DTD SVG 1.1//EN" "http://www.w3.org/Graphics/SVG/1.1/DTD/svg11.dtd">
<svg version="1.1" id="Layer_1" xmlns="http://www.w3.org/2000/svg" xmlns:xlink="http://www.w3.org/1999/xlink" x="0px" y="0px"
	 viewBox="0 0 48 48" enable-background="new 0 0 48 48" xml:space="preserve">
<g>
	<rect x="8.7" y="16.3" fill="#F04B36" width="7" height="23.9"/>
	<rect x="20.5" y="16.3" fill="#4DA0D8" width="7" height="23.9"/>
	<rect x="32.3" y="16.3" fill="#E77528" width="7" height="23.9"/>
	<path fill="#06728D" d="M42.1,43.5H5.9c-0.5,0-1-0.4-1-1c0-0.5,0.4-1,1-1h36.2c0.5,0,1,0.4,1,1C43.1,43.1,42.6,43.5,42.1,43.5z"/>
	<path fill="#06728D" d="M46.3,47.5H1.7c-0.5,0-1-0.4-1-1c0-0.5,0.4-1,1-1h44.6c0.5,0,1,0.4,1,1C47.3,47.1,46.8,47.5,46.3,47.5z"/>
	<path fill="#0DB89A" d="M47,12.7L24.5,0.6c-0.3-0.2-0.6-0.2-0.9,0L1,12.7c-0.4,0.2-0.6,0.7-0.5,1.1c0.1,0.4,0.5,0.7,0.9,0.7h45.1
		c0.4,0,0.8-0.3,0.9-0.7C47.6,13.4,47.4,13,47,12.7z"/>
</g>
</svg>
