<?xml version="1.0" encoding="utf-8"?>
<!-- Generator: Adobe Illustrator 18.0.0, SVG Export Plug-In . SVG Version: 6.00 Build 0)  -->
<!DOCTYPE svg PUBLIC "-//W3C//DTD SVG 1.1//EN" "http://www.w3.org/Graphics/SVG/1.1/DTD/svg11.dtd">
<svg version="1.1" id="Layer_1" xmlns="http://www.w3.org/2000/svg" xmlns:xlink="http://www.w3.org/1999/xlink" x="0px" y="0px"
	 viewBox="0 0 48 48" enable-background="new 0 0 48 48" xml:space="preserve">
<g>
	<path fill="#F04B36" d="M10.6,23.3c-3.3,0-7-2.9-9.1-7.5c-1.6-3.4-1.9-7-0.9-9.6c0.6-1.5,1.6-2.6,2.9-3.1C5.8,2.1,8.6,3,11.1,5.3
		l-2,2.1C7.5,5.9,5.8,5.3,4.6,5.7C4,6,3.6,6.5,3.3,7.2c-0.7,1.8-0.4,4.6,0.8,7.3c2,4.3,5.4,6.5,7.3,5.7c0.1-0.1,0.2-0.1,0.4-0.2
		l1.6,2.4c-0.3,0.2-0.6,0.3-0.9,0.5C11.9,23.2,11.3,23.3,10.6,23.3z"/>
	<path fill="#F04B36" d="M37.4,23.3c-0.7,0-1.3-0.1-1.9-0.4c-0.3-0.1-0.6-0.3-0.9-0.5l1.6-2.4c0.1,0.1,0.2,0.1,0.4,0.2
		c1.9,0.8,5.3-1.4,7.3-5.7c1.2-2.7,1.5-5.5,0.8-7.3C44.4,6.5,44,6,43.4,5.7c-1.2-0.5-2.9,0.2-4.5,1.7l-2-2.1
		c2.5-2.4,5.4-3.2,7.6-2.3c1.3,0.5,2.3,1.6,2.9,3.1c1,2.6,0.7,6.2-0.9,9.6C44.4,20.3,40.7,23.3,37.4,23.3z"/>
	<path fill="#06728D" d="M36.4,20.8c0.1-0.6,1.9-11.8,3.1-19.2l0.2-1.1H8.3l0.2,1.1c1.2,7.4,3.1,18.6,3.1,19.1
		c0,5.6,4.2,10.5,9.9,11.6v1.8c-6.2,1.1-10.7,6.3-10.7,12.4v1h26.5v-1c0-6.1-4.6-11.2-10.7-12.4v-1.8C32.2,31.2,36.4,26.4,36.4,20.8
		z"/>
	<ellipse fill="#F7A93B" cx="24" cy="14.3" rx="4.8" ry="7.5"/>
</g>
</svg>
