<?xml version="1.0" encoding="utf-8"?>
<!-- Generator: Adobe Illustrator 18.0.0, SVG Export Plug-In . SVG Version: 6.00 Build 0)  -->
<!DOCTYPE svg PUBLIC "-//W3C//DTD SVG 1.1//EN" "http://www.w3.org/Graphics/SVG/1.1/DTD/svg11.dtd">
<svg version="1.1" id="Layer_1" xmlns="http://www.w3.org/2000/svg" xmlns:xlink="http://www.w3.org/1999/xlink" x="0px" y="0px"
	 viewBox="0 0 48 48" enable-background="new 0 0 48 48" xml:space="preserve">
<g>
	<path fill="#06728D" d="M33,41.2c-0.5,0-1-0.4-1-1v-5.1c0-0.5,0.4-1,1-1c0.5,0,1,0.4,1,1v5.1C34,40.8,33.5,41.2,33,41.2z"/>
	<path fill="#06728D" d="M41.4,41.7H24.5c-0.5,0-1-0.4-1-1s0.4-1,1-1h16.9c0.5,0,1,0.4,1,1S42,41.7,41.4,41.7z"/>
	<path fill="#06728D" d="M44.8,16H21.2c-1.5,0-2.7,1.2-2.7,2.7v14.8c0,1.5,1.2,2.7,2.7,2.7h23.6c1.5,0,2.7-1.2,2.7-2.7V18.7
		C47.5,17.2,46.3,16,44.8,16z"/>
	<path fill="#0DB89A" d="M0.5,6.3v35.5h16.1V6.3H0.5z M12.3,36.1H4.6c-0.5,0-1-0.4-1-1c0-0.5,0.4-1,1-1h7.7c0.5,0,1,0.4,1,1
		C13.2,35.7,12.8,36.1,12.3,36.1z M12.3,32.3H4.6c-0.5,0-1-0.4-1-1c0-0.5,0.4-1,1-1h7.7c0.5,0,1,0.4,1,1
		C13.2,31.8,12.8,32.3,12.3,32.3z M12.3,28.4H4.6c-0.5,0-1-0.4-1-1c0-0.5,0.4-1,1-1h7.7c0.5,0,1,0.4,1,1
		C13.2,27.9,12.8,28.4,12.3,28.4z M12.3,12.7H4.6c-0.5,0-1-0.4-1-1c0-0.5,0.4-1,1-1h7.7c0.5,0,1,0.4,1,1
		C13.2,12.3,12.8,12.7,12.3,12.7z"/>
</g>
</svg>
