<?xml version="1.0" encoding="utf-8"?>
<!-- Generator: Adobe Illustrator 18.0.0, SVG Export Plug-In . SVG Version: 6.00 Build 0)  -->
<!DOCTYPE svg PUBLIC "-//W3C//DTD SVG 1.1//EN" "http://www.w3.org/Graphics/SVG/1.1/DTD/svg11.dtd">
<svg version="1.1" id="Layer_1" xmlns="http://www.w3.org/2000/svg" xmlns:xlink="http://www.w3.org/1999/xlink" x="0px" y="0px"
	 viewBox="0 0 48 48" enable-background="new 0 0 48 48" xml:space="preserve">
<g>
	<path fill="#4DA0D8" d="M28.3,17.3H8.6h-3c-2.8,0-5.1,2.3-5.1,5.1v16.2c0,2.8,2.3,5.1,5.1,5.1h12l2.8,2.3c1,0.9,2.2,1.5,3.6,1.5
		c1.4,0,2.6-0.5,3.6-1.5c2-1.9,5.4-5.2,5.8-7c0-0.1,0-0.3,0-0.4V22.4C33.4,19.6,31.1,17.3,28.3,17.3z M8.2,31.9
		c-2,0-3.7-1.7-3.7-3.7c0-2,1.6-3.7,3.7-3.7s3.7,1.7,3.7,3.7C11.9,30.2,10.2,31.9,8.2,31.9z M16.9,31.9c-2,0-3.7-1.7-3.7-3.7
		c0-2,1.6-3.7,3.7-3.7c2,0,3.7,1.7,3.7,3.7C20.6,30.2,19,31.9,16.9,31.9z M25.7,31.9c-2,0-3.7-1.7-3.7-3.7c0-2,1.6-3.7,3.7-3.7
		c2,0,3.7,1.7,3.7,3.7C29.4,30.2,27.7,31.9,25.7,31.9z"/>
	<path fill="#F04B36" d="M38.4,20.2c0-5.8-4.7-10.5-10.4-10.5c-4.6,0-8.7,3.2-10,7.6h4.8c0,0,0,0,0,0c1-1.9,3-3,5.1-3
		c3.3,0,5.9,2.7,5.9,5.9c0,0.6-0.1,1.3-0.3,1.9c0,0.1-0.1,0.2-0.2,0.3c0,0,0,0,0,0.1V29C36.5,27.1,38.4,23.8,38.4,20.2z"/>
	<path fill="#CE8931" d="M28,16.2c-1,0-2,0.4-2.7,1.1h3.1c1.2,0,2.4,0.5,3.2,1.2C30.9,17.1,29.5,16.2,28,16.2z"/>
	<path fill="#0DB89A" d="M28,0.5C18.3,0.5,10,7.7,8.6,17.3H16c1.3-5.5,6.3-9.5,12-9.5c6.8,0,12.3,5.6,12.3,12.4
		c0,4.6-2.5,8.7-6.5,10.9c-0.1,0.1-0.3,0.1-0.4,0.1v7.4c0,0.1,0,0.2,0,0.4c0.1,0,0.2,0,0.3,0c8.2-2.5,13.9-10.2,13.9-18.8
		C47.5,9.3,38.7,0.5,28,0.5z"/>
</g>
</svg>
