<?xml version="1.0" encoding="utf-8"?>
<!-- Generator: Adobe Illustrator 18.0.0, SVG Export Plug-In . SVG Version: 6.00 Build 0)  -->
<!DOCTYPE svg PUBLIC "-//W3C//DTD SVG 1.1//EN" "http://www.w3.org/Graphics/SVG/1.1/DTD/svg11.dtd">
<svg version="1.1" id="Layer_1" xmlns="http://www.w3.org/2000/svg" xmlns:xlink="http://www.w3.org/1999/xlink" x="0px" y="0px"
	 viewBox="0 0 48 48" enable-background="new 0 0 48 48" xml:space="preserve">
<g>
	<path fill="#F04B36" d="M41.3,31.5c-1.6,0-2.8,1.2-2.8,2.7c0,1.5,1.3,2.7,2.8,2.7c1.6,0,2.8-1.2,2.8-2.7
		C44.2,32.7,42.9,31.5,41.3,31.5z"/>
	<path fill="#0DB89A" d="M6.7,27.6l4.1-10.5c0.4-1,1.5-1.5,2.4-1.1c1,0.3,1.4,1.4,1.1,2.4L12.5,23l0.3,0.2l8.6-9.9
		c0.7-0.8,1.9-1,2.6-0.4c0.8,0.6,0.8,1.7,0.1,2.5l-8.7,10.1c0,0-0.1,0-0.1,0.1l0.4,0.4l3.5-4c0.7-0.8,1.9-1,2.7-0.4
		c0.8,0.6,0.8,1.7,0.1,2.5l-3.1,3.6h0.7l2.5-2.8c0.7-0.8,1.9-1,2.7-0.4c0.8,0.6,0.8,1.7,0.1,2.5l-0.6,0.7h0.9c0.6-0.3,1.2-0.3,1.7,0
		h16.9c1.8,0,3.2-1.4,3.2-3.1V3.6c0-1.7-1.5-3.1-3.2-3.1H9.1c-1.8,0-3.2,1.4-3.2,3.1v23.1C5.9,27.2,6.2,27.5,6.7,27.6L6.7,27.6
		C6.7,27.6,6.7,27.6,6.7,27.6z"/>
	<path fill="#F04B36" d="M46.5,28.8H27.7c0,0,0,0,0,0c0.1,0.5-0.1,1.1-0.5,1.5l-0.2,0.2c0.2,0.2,0.4,0.3,0.6,0.3h17.8v7.5H19.1
		c-0.7,0.4-1.6,0.8-2.5,1.2c0.1,0.4,0.5,0.7,0.9,0.7h29c0.5,0,1-0.4,1-1v-9.5C47.5,29.3,47.1,28.8,46.5,28.8z"/>
	<path fill="#F7A93B" d="M26.8,28.2c-0.3-0.2-0.6-0.3-0.8-0.3c-0.5,0-0.9,0.2-1.2,0.6l-3.1,3.7l-1.1-1l3.9-4.5
		c0.3-0.3,0.4-0.7,0.4-1.1c0-0.3-0.2-0.6-0.4-0.8c-0.3-0.2-0.6-0.3-0.8-0.3c-0.5,0-0.9,0.2-1.2,0.6l-3.7,4.2l-1.1-1l4-4.6
		c0.3-0.3,0.4-0.7,0.4-1.1c0-0.3-0.2-0.6-0.4-0.8c-0.3-0.2-0.6-0.3-0.8-0.3c-0.5,0-0.9,0.2-1.2,0.6l-3.8,4.4l-1.1-1.1l9.1-10.5
		c0.3-0.3,0.4-0.7,0.4-1.1c0-0.3-0.2-0.6-0.4-0.8C23.4,13,23.1,13,22.9,13c-0.5,0-0.9,0.2-1.2,0.6l-8.9,10.3l-0.9-0.7l2-5
		c0.1-0.4,0.1-0.7,0-1.1c-0.1-0.3-0.4-0.6-0.7-0.7c-0.7-0.2-1.5,0.2-1.8,0.9L6.5,29.5c-0.1,0.2-0.1,0.4-0.1,0.6l0,0.1l0,0.1
		c-0.5,2.3-0.3,3.7-0.2,4.3l0,0.2l7,5.4l0.2,0c5.1-1,8.5-4.3,8.8-4.6l4.7-5.4c0.3-0.3,0.4-0.7,0.4-1.1
		C27.2,28.7,27.1,28.4,26.8,28.2z"/>
	<polygon fill="#06728D" points="0.5,39.8 10.3,47.5 14.8,42.2 4.7,34.6 	"/>
</g>
</svg>
