<?xml version="1.0" encoding="utf-8"?>
<!-- Generator: Adobe Illustrator 18.0.0, SVG Export Plug-In . SVG Version: 6.00 Build 0)  -->
<!DOCTYPE svg PUBLIC "-//W3C//DTD SVG 1.1//EN" "http://www.w3.org/Graphics/SVG/1.1/DTD/svg11.dtd">
<svg version="1.1" id="Layer_1" xmlns="http://www.w3.org/2000/svg" xmlns:xlink="http://www.w3.org/1999/xlink" x="0px" y="0px"
	 viewBox="0 0 48 48" enable-background="new 0 0 48 48" xml:space="preserve">
<g>
	<path fill="#F04B36" d="M30.4,25.9c-0.4-0.2-0.8-0.1-1,0.2c-0.3,0.3-0.4,0.7-0.2,1l1.6,4.4l-6.3-2.8c-0.3-0.1-0.5-0.1-0.8,0
		l-6.3,2.8l1.6-4.4c0.1-0.4,0-0.8-0.2-1c-0.3-0.3-0.7-0.3-1-0.2C10.2,29.1,5.4,36.5,5.4,44.8c0,0.6,0,1.2,0.1,1.9
		c0,0.5,0.5,0.9,1,0.9h35.2c0.5,0,0.9-0.4,1-0.9c0.1-0.7,0.1-1.3,0.1-1.9C42.6,36.5,37.8,29.1,30.4,25.9z"/>
	<path fill="none" d="M13.9,18l0.2,0.4c-0.1-0.2-0.2-0.5-0.2-0.7C13.8,17.8,13.9,17.9,13.9,18z"/>
	<path fill="none" d="M15.2,14.5h1.5c0.2,0,0.3,0,0.5-0.1c0.5-0.3,0.9-0.6,1.2-1c0,0,0,0,0,0c0,0.2,0.1,0.4,0.2,0.6
		c0.2,0.3,0.5,0.6,0.9,0.6h0.1c0.4,0,0.8-0.3,0.9-0.7c0.1-0.4,0.8-1.8,1.5-3.2c0,0.7,0.1,1.3,0.2,1.7c0.4,1.1,1.3,1.6,1.9,1.8
		c0.4,0.2,0.9,0,1.2-0.4c0,0,0-0.1,0.1-0.1c0.3,0.1,0.6,0,0.8-0.1c0.1,0.1,0.2,0.1,0.3,0.2c0.9,0.5,3.9,0.6,6.3,0.7
		c0.5,0,1-0.4,1-0.9l-1.5,0.1l-6.1-0.7l-2.7-0.4l-1-3.4l-3,2.6l-1.7,1.7l-3.6,0.3C14.3,14,14.7,14.5,15.2,14.5z"/>
	<path fill="none" d="M19.5,11.6l3-2.6l1,3.4l2.7,0.4l6.1,0.7l1.5-0.1c0-0.5-0.4-1-0.9-1c-3-0.1-5.1-0.3-5.5-0.5c0,0,0,0-0.1-0.1
		c-0.2-0.1-0.6-0.5-1.3-0.4c-0.1,0-0.1,0-0.2,0.1c-0.1-0.1-0.3-0.2-0.5-0.2c-0.5-0.1-0.9,0.3-1,0.4c0,0-0.1,0.1-0.1,0.1
		c0,0,0-0.1,0-0.1C24,11.3,24,9.9,24,9c0.1-1.7,0.1-2.2-0.3-2.6c-0.2-0.2-0.5-0.3-0.7-0.3c-0.6,0-0.8,0.1-2.5,3.4
		c-0.1,0.1-0.2,0.3-0.2,0.5c0-0.1,0-0.2,0-0.4l0-0.3c0,0,0,0,0-0.1c0-0.5-0.4-1-1-1c0,0,0,0,0,0c-0.5,0-1,0.4-1,1v0
		c0,0.3-0.3,1-0.5,1.3l-0.1,0.3c-0.2,0.4-0.5,1-0.7,1.2c-0.1,0.1-0.3,0.3-0.5,0.4h-1.2c-0.5,0-1,0.4-1,1l3.6-0.3L19.5,11.6z"/>
	<path fill="#CE8931" d="M14.5,19.6L14,18.5C14.2,18.9,14.3,19.2,14.5,19.6z"/>
	<path fill="#06728D" d="M40.2,20c-0.1-0.2-0.2-0.3-0.3-0.5c0,0-0.1-0.1-0.1-0.1c0-0.1,0-0.2,0-0.3c0-0.1,0-0.2,0-0.3
		c-0.1-1.8-0.5-3.9-2-5.3c-0.1-0.1-0.3-0.2-0.4-0.4c-0.2-0.3-0.5-0.5-0.9-0.8c-0.3-0.2-0.6-0.4-0.9-0.5c-0.2-0.1-0.5-0.2-0.7-0.4
		c-0.1-0.1-0.3-0.2-0.4-0.4C33.6,4.9,29.2,0.5,24,0.5c-5.2,0-9.6,4.4-10.6,10.5c-0.1,0.2-0.3,0.3-0.4,0.4c-0.2,0.2-0.5,0.3-0.7,0.4
		c-0.3,0.2-0.6,0.3-0.9,0.5c-0.4,0.3-0.6,0.5-0.9,0.8c-0.1,0.1-0.2,0.3-0.4,0.4c-1.5,1.4-1.8,3.5-2,5.3c0,0.1,0,0.2,0,0.3
		c0,0.1,0,0.2,0,0.3c0,0,0,0.1-0.1,0.1C8,19.6,7.9,19.8,7.8,20c-0.2,0.5-0.6,1.9,0,2.8c0.4,0.6,1,0.9,1.8,0.9c0.2,0,0.4,0,0.5,0
		c0.1,0,0.2,0,0.4,0c0.5,0,1.2,0.3,1.8,0.5l0.4,0.1c0.2,0.1,0.3,0.1,0.5,0.1c0.2,0.1,0.4,0.1,0.6,0.2c0.3,0.1,0.6,0.1,0.9,0
		c0.3-0.1,0.4-0.4,0.5-0.7c0.2-1.3-0.3-2.6-0.7-3.8c-0.2-0.5-0.4-1-0.5-1.4c0-0.2-0.1-0.3-0.1-0.5l0,0c0,0-0.7-3.6,0.4-4.5
		c0-0.5,0.4-1,1-1h1.2c0.2-0.2,0.4-0.3,0.5-0.4c0.3-0.3,0.5-0.8,0.7-1.2l0.1-0.3c0.1-0.3,0.5-0.9,0.5-1.3v0c0-0.5,0.4-1,1-1
		c0,0,0,0,0,0c0.5,0,1,0.4,1,1c0,0,0,0,0,0.1l0,0.3c0,0.1,0,0.2,0,0.4c0.1-0.2,0.2-0.3,0.2-0.5c1.7-3.3,1.9-3.4,2.5-3.4
		c0.3,0,0.5,0.1,0.7,0.3C24.1,6.8,24.1,7.3,24,9c0,0.9-0.1,2.3,0.1,2.8c0,0,0,0.1,0,0.1c0,0,0.1-0.1,0.1-0.1c0.1-0.1,0.5-0.5,1-0.4
		c0.2,0,0.3,0.1,0.5,0.2c0.1,0,0.1,0,0.2-0.1c0.7-0.1,1.1,0.2,1.3,0.4c0,0,0.1,0.1,0.1,0.1c0.4,0.2,2.4,0.4,5.5,0.5
		c0.5,0,1,0.5,0.9,1c0,0,1.4,2.1,0.3,5.1c-0.1,0.5-0.3,0.9-0.5,1.4c-0.4,1.1-0.9,2.4-0.7,3.8c0,0.3,0.2,0.6,0.5,0.7
		c0.3,0.1,0.6,0.2,0.9,0c0.2-0.1,0.4-0.1,0.6-0.2c0.2,0,0.3-0.1,0.5-0.1l0.4-0.1c0.6-0.2,1.3-0.4,1.8-0.5c0.1,0,0.2,0,0.4,0
		c0.2,0,0.4,0,0.5,0c0.8,0,1.4-0.3,1.8-0.9C40.8,21.9,40.5,20.5,40.2,20z"/>
	<path fill="#F7A93B" d="M33.7,13.4c0,0.5-0.5,0.9-1,0.9c-2.4-0.1-5.4-0.2-6.3-0.7c-0.1-0.1-0.2-0.1-0.3-0.2
		c-0.2,0.1-0.5,0.2-0.8,0.1c0,0,0,0.1-0.1,0.1c-0.2,0.4-0.7,0.6-1.2,0.4c-0.7-0.2-1.6-0.7-1.9-1.8c-0.1-0.4-0.2-1-0.2-1.7
		c-0.7,1.4-1.4,2.8-1.5,3.2c-0.1,0.4-0.5,0.7-0.9,0.7h-0.1c-0.4,0-0.7-0.2-0.9-0.6c-0.1-0.2-0.1-0.4-0.2-0.6c0,0,0,0,0,0
		c-0.3,0.3-0.7,0.7-1.2,1c-0.2,0.1-0.3,0.1-0.5,0.1h-1.5c-0.5,0-1-0.4-1-1c-1.1,1-0.4,4.5-0.4,4.5l0,0c0-0.1,0-0.2-0.1-0.3
		c0.1,0.2,0.1,0.5,0.2,0.7l0.4,1.1c1.7,3.9,5.3,6.6,9.5,6.6c4.8,0,8.9-3.5,10.2-8.4c0,0.2-0.1,0.5-0.1,0.8
		C35.1,15.5,33.7,13.4,33.7,13.4z"/>
</g>
</svg>
