<?xml version="1.0" encoding="utf-8"?>
<!-- Generator: Adobe Illustrator 18.0.0, SVG Export Plug-In . SVG Version: 6.00 Build 0)  -->
<!DOCTYPE svg PUBLIC "-//W3C//DTD SVG 1.1//EN" "http://www.w3.org/Graphics/SVG/1.1/DTD/svg11.dtd">
<svg version="1.1" id="Layer_1" xmlns="http://www.w3.org/2000/svg" xmlns:xlink="http://www.w3.org/1999/xlink" x="0px" y="0px"
	 viewBox="0 0 48 48" enable-background="new 0 0 48 48" xml:space="preserve">
<g>
	<path fill="#CE8931" d="M34.3,9.3H13.7c-0.5,0-1-0.4-1-1V1.5c0-0.5,0.4-1,1-1h20.6c0.5,0,1,0.4,1,1v6.9C35.3,8.9,34.9,9.3,34.3,9.3
		z M14.7,7.4h18.7V2.4H14.7V7.4z"/>
	<path fill="#0DB89A" d="M34.3,27.8H13.7c-0.5,0-1,0.4-1,1v17.8c0,0.5,0.4,1,1,1h20.6c0.5,0,1-0.4,1-1V28.8
		C35.3,28.2,34.9,27.8,34.3,27.8z M29.4,43.1H18.6c-0.5,0-1-0.4-1-1c0-0.5,0.4-1,1-1h10.8c0.5,0,1,0.4,1,1
		C30.4,42.6,29.9,43.1,29.4,43.1z M29.4,38.6H18.6c-0.5,0-1-0.4-1-1c0-0.5,0.4-1,1-1h10.8c0.5,0,1,0.4,1,1
		C30.4,38.2,29.9,38.6,29.4,38.6z M29.4,34.2H18.6c-0.5,0-1-0.4-1-1c0-0.5,0.4-1,1-1h10.8c0.5,0,1,0.4,1,1
		C30.4,33.7,29.9,34.2,29.4,34.2z"/>
	<path fill="#06728D" d="M46.5,11.4h-8.2v-3c0-0.5-0.4-1-1-1H10.6c-0.5,0-1,0.4-1,1v3H1.5c-0.5,0-1,0.4-1,1v22.8c0,0.5,0.4,1,1,1
		h9.2c0.5,0,1-0.4,1-1v-5.4h24.8v5.4c0,0.5,0.4,1,1,1h9.2c0.5,0,1-0.4,1-1V12.3C47.5,11.8,47.1,11.4,46.5,11.4z M9.9,19H7.6
		c-0.5,0-1-0.4-1-1c0-0.5,0.4-1,1-1h2.3c0.5,0,1,0.4,1,1C10.9,18.5,10.4,19,9.9,19z M17,19h-2.3c-0.5,0-1-0.4-1-1c0-0.5,0.4-1,1-1
		H17c0.5,0,1,0.4,1,1C18,18.5,17.6,19,17,19z M24.2,19h-2.3c-0.5,0-1-0.4-1-1c0-0.5,0.4-1,1-1h2.3c0.5,0,1,0.4,1,1
		C25.1,18.5,24.7,19,24.2,19z"/>
</g>
</svg>
