<?xml version="1.0" encoding="utf-8"?>
<!-- Generator: Adobe Illustrator 18.0.0, SVG Export Plug-In . SVG Version: 6.00 Build 0)  -->
<!DOCTYPE svg PUBLIC "-//W3C//DTD SVG 1.1//EN" "http://www.w3.org/Graphics/SVG/1.1/DTD/svg11.dtd">
<svg version="1.1" id="Layer_1" xmlns="http://www.w3.org/2000/svg" xmlns:xlink="http://www.w3.org/1999/xlink" x="0px" y="0px"
	 viewBox="0 0 48 48" enable-background="new 0 0 48 48" xml:space="preserve">
<g>
	<path fill="#F04B36" d="M46.5,9.4H1.5c-0.5,0-1,0.4-1,1v31.4c0,0.5,0.4,1,1,1h45.1c0.5,0,1-0.4,1-1V10.3
		C47.5,9.8,47.1,9.4,46.5,9.4z M13.1,15.6c2.2,0,4,1.8,4,4c0,2.2-1.8,4-4,4c-2.2,0-4-1.8-4-4C9.1,17.4,10.9,15.6,13.1,15.6z
		 M19.4,36.1H6.8v-5.5c0-2.9,2.3-5.2,5.2-5.2h2.3c2.8,0,5.2,2.3,5.2,5.2V36.1z M40,33.4H25.4c-0.5,0-1-0.4-1-1c0-0.5,0.4-1,1-1H40
		c0.5,0,1,0.4,1,1C40.9,33,40.5,33.4,40,33.4z M40,27H25.4c-0.5,0-1-0.4-1-1c0-0.5,0.4-1,1-1H40c0.5,0,1,0.4,1,1
		C40.9,26.6,40.5,27,40,27z M40,20.6H25.4c-0.5,0-1-0.4-1-1c0-0.5,0.4-1,1-1H40c0.5,0,1,0.4,1,1C40.9,20.2,40.5,20.6,40,20.6z"/>
	<path fill="#294E58" d="M25.4,13.5c-0.5,0-1-0.4-1-0.8V6.1c0-0.5,0.4-0.8,1-0.8c0.5,0,1,0.4,1,0.8v6.5C26.4,13.1,26,13.5,25.4,13.5
		z"/>
</g>
</svg>
