<?xml version="1.0" encoding="utf-8"?>
<!-- Generator: Adobe Illustrator 18.0.0, SVG Export Plug-In . SVG Version: 6.00 Build 0)  -->
<!DOCTYPE svg PUBLIC "-//W3C//DTD SVG 1.1//EN" "http://www.w3.org/Graphics/SVG/1.1/DTD/svg11.dtd">
<svg version="1.1" id="Layer_1" xmlns="http://www.w3.org/2000/svg" xmlns:xlink="http://www.w3.org/1999/xlink" x="0px" y="0px"
	 viewBox="0 0 48 48" enable-background="new 0 0 48 48" xml:space="preserve">
<g>
	<path fill="#06728D" d="M44.4,0.5h-5.9v12.1H9.5V0.5H3.6c-1.7,0-3.1,1.4-3.1,3.1v40.8c0,1.7,1.4,3.1,3.1,3.1h40.8
		c1.7,0,3.1-1.4,3.1-3.1V3.6C47.5,1.9,46.1,0.5,44.4,0.5z M24,38.8c-6.2,0-11.3-5.1-11.3-11.3S17.8,16.2,24,16.2s11.3,5.1,11.3,11.3
		S30.2,38.8,24,38.8z"/>
	<rect x="11.4" y="0.5" fill="#4DA0D8" width="25.2" height="9.7"/>
	<circle fill="#0DB89A" cx="24" cy="27.6" r="8.5"/>
</g>
</svg>
