<?xml version="1.0" encoding="utf-8"?>
<!-- Generator: Adobe Illustrator 18.0.0, SVG Export Plug-In . SVG Version: 6.00 Build 0)  -->
<!DOCTYPE svg PUBLIC "-//W3C//DTD SVG 1.1//EN" "http://www.w3.org/Graphics/SVG/1.1/DTD/svg11.dtd">
<svg version="1.1" id="Layer_1" xmlns="http://www.w3.org/2000/svg" xmlns:xlink="http://www.w3.org/1999/xlink" x="0px" y="0px"
	 viewBox="0 0 48 48" enable-background="new 0 0 48 48" xml:space="preserve">
<g>
	<path fill="#E77528" d="M24,47.5l-0.3-0.1c-0.9-0.2-22.9-4.8-20.9-18.8c0.7-5.2,0.1-9.6-1.9-13L0.6,15l3.7-9.3l1,0.1
		c0,0,0.6,0,1.6,0c3.4,0,11.7-0.4,16.2-4.5L24,0.5l0.9,0.8c4.5,4,12.8,4.5,16.2,4.5c1,0,1.6,0,1.6,0l1-0.1l3.7,9.3l-0.3,0.6
		c-2,3.4-2.6,7.8-1.9,13c2,14-20,18.6-20.9,18.8L24,47.5z M3.7,14.8c2,3.9,2.7,8.7,1.9,14.2C4.1,39.7,21.6,44.1,24,44.6
		c2.4-0.6,19.9-4.9,18.4-15.6c-0.8-5.6-0.1-10.3,1.9-14.2l-2.4-6.2c-0.2,0-0.5,0-0.7,0c-3.5,0-11.8-0.4-17.1-4.4
		c-5.3,4-13.6,4.4-17.1,4.4c-0.3,0-0.5,0-0.7,0L3.7,14.8z"/>
	<path fill="#F7A93B" d="M40.7,14.7l-1.2-3.2l-0.6,0c-3.9-0.2-9.6-0.9-14.4-3.4L24,7.8l-0.4,0.2c-4.7,2.5-10.4,3.2-14.4,3.4l-0.6,0
		l-1.2,3.2L7.5,15c1.7,4.1,2.3,8.9,1.5,14.3c-0.3,1.8,0.2,3.5,1.4,5c1.1,1.5,2.9,2.8,5.3,4.1c3.1,1.6,6.4,2.6,8.1,3.1l0.2,0.1
		l0.2-0.1c1.7-0.4,5-1.4,8.1-3.1c2.4-1.3,4.1-2.6,5.3-4.1c1.2-1.6,1.7-3.2,1.4-5c-0.8-5.4-0.3-10.2,1.5-14.3L40.7,14.7z"/>
</g>
</svg>
