<?xml version="1.0" encoding="utf-8"?>
<!-- Generator: Adobe Illustrator 18.0.0, SVG Export Plug-In . SVG Version: 6.00 Build 0)  -->
<!DOCTYPE svg PUBLIC "-//W3C//DTD SVG 1.1//EN" "http://www.w3.org/Graphics/SVG/1.1/DTD/svg11.dtd">
<svg version="1.1" id="Layer_1" xmlns="http://www.w3.org/2000/svg" xmlns:xlink="http://www.w3.org/1999/xlink" x="0px" y="0px"
	 viewBox="0 0 48 48" enable-background="new 0 0 48 48" xml:space="preserve">
<g>
	<path fill="#4DA0D8" d="M16.3,11.9C16.3,11.9,16.3,11.9,16.3,11.9c-0.5,0-1-0.4-1-1c0-0.1,0.1-6.3,6.8-8.2c0.5-0.1,1,0.2,1.2,0.7
		c0.1,0.5-0.2,1.1-0.7,1.2c-5.3,1.5-5.4,6.1-5.4,6.3C17.2,11.5,16.8,11.9,16.3,11.9z"/>
	<path fill="#4DA0D8" d="M25.6,0.5c-2.3,0-4.1,1.1-4.1,2.7s1.8,2.7,4.1,2.7c2.3,0,4.1-1.1,4.1-2.7S27.9,0.5,25.6,0.5z"/>
	<path fill="#F04B36" d="M37.8,37.1h-2.1V11.4c0-0.5-0.4-1-1-1H13.3c-0.5,0-1,0.4-1,1v25.8h-2.1c-0.5,0-1,0.4-1,1v8.4
		c0,0.5,0.4,1,1,1h27.5c0.5,0,1-0.4,1-1v-8.4C38.7,37.6,38.3,37.1,37.8,37.1z M24,38.6c-3.3,0-5.8-4.8-5.8-11s2.6-11,5.8-11
		c3.3,0,5.8,4.8,5.8,11S27.3,38.6,24,38.6z"/>
</g>
</svg>
