<?xml version="1.0" encoding="utf-8"?>
<!-- Generator: Adobe Illustrator 18.0.0, SVG Export Plug-In . SVG Version: 6.00 Build 0)  -->
<!DOCTYPE svg PUBLIC "-//W3C//DTD SVG 1.1//EN" "http://www.w3.org/Graphics/SVG/1.1/DTD/svg11.dtd">
<svg version="1.1" id="Layer_1" xmlns="http://www.w3.org/2000/svg" xmlns:xlink="http://www.w3.org/1999/xlink" x="0px" y="0px"
	 viewBox="0 0 48 48" enable-background="new 0 0 48 48" xml:space="preserve">
<g>
	<path fill="#0DB89A" d="M41.7,22.4c-0.2,0-0.3,0-0.5-0.1c-0.8-0.3-1.2-1.1-0.9-1.8l2.5-7L13.6,3.9L9,16.9c-0.3,0.8-1.1,1.1-1.9,0.9
		C6.4,17.5,6,16.7,6.3,16l5.1-14.4c0.3-0.7,1.1-1.1,1.8-0.9l31.8,10.6c0.4,0.1,0.7,0.4,0.8,0.7c0.2,0.3,0.2,0.7,0.1,1.1L43,21.5
		C42.8,22,42.3,22.4,41.7,22.4z"/>
	<path fill="#0DB89A" d="M36.4,17.4c-0.2,0-0.3,0-0.5-0.1l-19.4-6.5c-0.8-0.3-1.2-1.1-0.9-1.8c0.3-0.8,1.1-1.2,1.8-0.9l19.4,6.5
		c0.8,0.3,1.2,1.1,0.9,1.8C37.5,17.1,37,17.4,36.4,17.4z"/>
	<path fill="#06728D" d="M43,20l-17.6,0.3l-1.6-1.9c-1.3-1.6-2.8-3.1-5.2-3l-14,0.2c-2.4,0-4.3,1.7-4.3,3.8l0.4,24.8
		c0,2,2,3.7,4.4,3.6l38.3-0.6c2.4,0,4.3-1.7,4.3-3.8l-0.3-19.8C47.4,21.6,45.4,20,43,20z"/>
</g>
</svg>
