<?xml version="1.0" encoding="utf-8"?>
<!-- Generator: Adobe Illustrator 18.0.0, SVG Export Plug-In . SVG Version: 6.00 Build 0)  -->
<!DOCTYPE svg PUBLIC "-//W3C//DTD SVG 1.1//EN" "http://www.w3.org/Graphics/SVG/1.1/DTD/svg11.dtd">
<svg version="1.1" id="Layer_1" xmlns="http://www.w3.org/2000/svg" xmlns:xlink="http://www.w3.org/1999/xlink" x="0px" y="0px"
	 viewBox="0 0 48 48" enable-background="new 0 0 48 48" xml:space="preserve">
<g>
	<path fill="#4DA0D8" d="M33.5,5.8c0-2.9-2.4-5.3-5.3-5.3c-2.9,0-5.3,2.4-5.3,5.3c0,1,0.3,2,0.9,2.9c1,1.5,2.6,2.4,4.4,2.4
		C31.1,11.1,33.5,8.7,33.5,5.8z"/>
	<path fill="#CFD0D1" d="M14.8,15.3c-0.3,0-0.7-0.2-0.9-0.5c-0.2-0.5-0.1-1.1,0.4-1.3L24.7,8C25.2,7.8,25.7,8,26,8.4
		c0.2,0.5,0.1,1.1-0.4,1.3l-10.3,5.4C15.1,15.2,15,15.3,14.8,15.3z"/>
	<path fill="#0DB89A" d="M16.7,18.7c0-4.5-3.6-8.1-8.1-8.1c-4.5,0-8.1,3.6-8.1,8.1c0,4.5,3.6,8.1,8.1,8.1
		C13.1,26.8,16.7,23.2,16.7,18.7z"/>
	<path fill="#CFD0D1" d="M27.2,26.8c-0.1,0-0.1,0-0.2,0L14.6,24c-0.5-0.1-0.9-0.6-0.7-1.2c0.1-0.5,0.6-0.8,1.2-0.7l12.4,2.8
		c0.5,0.1,0.9,0.6,0.7,1.2C28,26.5,27.6,26.8,27.2,26.8z"/>
	<path fill="#F04B36" d="M36.9,17.6c-5.9,0-10.6,4.8-10.6,10.6c0,5.9,4.8,10.6,10.6,10.6s10.6-4.8,10.6-10.6
		C47.5,22.3,42.7,17.6,36.9,17.6z"/>
	<path fill="#CFD0D1" d="M19.1,40.4c-0.3,0-0.7-0.2-0.9-0.5c-0.3-0.5-0.1-1.1,0.4-1.3l9.3-5.1c0.5-0.3,1.1-0.1,1.3,0.4
		c0.3,0.5,0.1,1.1-0.4,1.3l-9.3,5.1C19.4,40.3,19.2,40.4,19.1,40.4z"/>
	<path fill="#E77528" d="M14.1,35.7c-3.3,0-5.9,2.7-5.9,5.9c0,3.3,2.7,5.9,5.9,5.9c3.3,0,5.9-2.7,5.9-5.9
		C20,38.3,17.4,35.7,14.1,35.7z"/>
</g>
</svg>
