<?xml version="1.0" encoding="utf-8"?>
<!-- Generator: Adobe Illustrator 18.0.0, SVG Export Plug-In . SVG Version: 6.00 Build 0)  -->
<!DOCTYPE svg PUBLIC "-//W3C//DTD SVG 1.1//EN" "http://www.w3.org/Graphics/SVG/1.1/DTD/svg11.dtd">
<svg version="1.1" id="Layer_1" xmlns="http://www.w3.org/2000/svg" xmlns:xlink="http://www.w3.org/1999/xlink" x="0px" y="0px"
	 viewBox="0 0 48 48" enable-background="new 0 0 48 48" xml:space="preserve">
<g>
	<path fill="#0DB89A" d="M17.7,9.1l-6.4-3.7c-0.3-0.2-0.7-0.2-1,0C10,5.6,9.8,5.9,9.8,6.2l0,7.4c0,0.3,0.2,0.7,0.5,0.8
		c0.2,0.1,0.3,0.1,0.5,0.1c0.2,0,0.3,0,0.5-0.1l6.5-3.7c0.3-0.2,0.5-0.5,0.5-0.8C18.1,9.6,18,9.2,17.7,9.1z"/>
	<path fill="#4D9385" d="M15.8,23.4c-0.3,0-0.7-0.2-0.8-0.5l-5.1-8.8c-0.3-0.5-0.1-1.1,0.4-1.3c0.5-0.3,1.1-0.1,1.3,0.4l5.1,8.8
		c0.3,0.5,0.1,1.1-0.4,1.3C16.1,23.4,16,23.4,15.8,23.4z"/>
	<path fill="#0DB89A" d="M24.4,23.4c-0.3,0-0.7-0.2-0.8-0.5l-7.2-12.5c-0.3-0.5-0.1-1.1,0.4-1.3C17.2,8.8,17.8,9,18,9.5L25.2,22
		c0.3,0.5,0.1,1.1-0.4,1.3C24.7,23.4,24.6,23.4,24.4,23.4z"/>
	<path fill="#E77528" d="M34,23.4C34,23.4,33.9,23.4,34,23.4c-0.6-0.1-1-0.5-1-1.1l1.4-15.5c0.1-1.1-0.1-2.3-0.7-3.1
		c-0.5-0.8-1.2-1.2-1.9-1.3c-0.8-0.1-1.5,0.3-2.2,0.9c-0.7,0.7-1.1,1.8-1.2,2.9l-1.5,16.2c0,0.5-0.5,0.9-1.1,0.9
		c-0.5,0-0.9-0.5-0.9-1.1l1.5-16.2c0.1-1.6,0.8-3,1.8-4.1c1.1-1.1,2.4-1.7,3.7-1.6c1.4,0.1,2.6,0.9,3.4,2.2c0.8,1.2,1.1,2.8,1,4.3
		L35,22.6C34.9,23.1,34.5,23.4,34,23.4z"/>
	<path fill="#E77528" d="M30,22.9C30,22.9,30,22.9,30,22.9c-0.6,0-1-0.5-1-1l1.3-15.7c0-0.5,0.5-0.9,1-0.9c0.5,0,0.9,0.5,0.9,1
		L31,22C31,22.5,30.5,22.9,30,22.9z"/>
	<path fill="#06728D" d="M42.2,22.8c-0.7-0.8-1.8-1.3-3.2-1.3H9c-1.4,0-2.5,0.5-3.2,1.3c-0.5,0.6-0.6,1.4-0.5,2.1
		c0.4,1.7,1.9,3,3.4,3c0.4,0,1.2,0.7,1.5,1.9l2.2,11.9c0.2,0.9,0,1.4-0.1,1.6c-0.7,0-1.3,0.3-1.7,0.8c-0.3,0.4-0.5,1-0.3,1.6
		c0.3,1.4,2.6,1.9,4.5,1.9h18.5c1.9,0,4.1-0.5,4.5-1.9c0.1-0.6,0-1.1-0.3-1.6c-0.4-0.5-1-0.8-1.7-0.8c-0.1-0.2-0.3-0.7-0.1-1.6
		l2.2-11.9c0.2-1.2,1-1.9,1.5-1.9c1.5,0,3-1.3,3.4-3C42.9,24.2,42.7,23.4,42.2,22.8z"/>
</g>
</svg>
