<?xml version="1.0" encoding="utf-8"?>
<!-- Generator: Adobe Illustrator 18.0.0, SVG Export Plug-In . SVG Version: 6.00 Build 0)  -->
<!DOCTYPE svg PUBLIC "-//W3C//DTD SVG 1.1//EN" "http://www.w3.org/Graphics/SVG/1.1/DTD/svg11.dtd">
<svg version="1.1" id="Layer_1" xmlns="http://www.w3.org/2000/svg" xmlns:xlink="http://www.w3.org/1999/xlink" x="0px" y="0px"
	 viewBox="0 0 48 48" enable-background="new 0 0 48 48" xml:space="preserve">
<g>
	<polygon fill="#F04B36" points="25.8,23.3 26.1,24.4 27.1,23.8 27.1,29.1 28.4,29.1 28.4,22.4 27.4,22.4 	"/>
	<path fill="#0DB89A" d="M32.2,27.9c1.3-1.2,2.2-2.2,2.2-3.5c0-1-0.7-2-2.1-2c-0.7,0-1.4,0.2-1.9,0.7l-0.1,0.1l0.5,1L31,24
		c0.2-0.2,0.6-0.5,1.2-0.5c0.7,0,1,0.3,1,1c0,0.8-0.7,1.6-2.2,3.1l-0.7,0.7v0.9h4.4v-1.2L32.2,27.9L32.2,27.9z"/>
	<path fill="#E77528" d="M38.4,25.5c0.5-0.3,0.8-0.8,0.8-1.4c0-0.9-0.6-1.7-2-1.7c-0.7,0-1.4,0.3-1.8,0.5l-0.1,0.1l0.4,1.1l0.3-0.2
		c0.2-0.2,0.7-0.4,1.1-0.4c0.5,0,0.8,0.2,0.8,0.7c0,0.6-0.7,0.8-1.1,0.8H36v1.1h0.7c0.7,0,1.4,0.3,1.4,1c0,0.1,0,0.4-0.2,0.6
		c-0.2,0.2-0.5,0.3-0.9,0.3c-0.5,0-1.1-0.2-1.2-0.4l-0.3-0.2L35,28.6l0.2,0.1c0.3,0.2,1,0.5,1.7,0.5c1.7,0,2.5-1.1,2.5-2.1
		C39.4,26.4,39,25.8,38.4,25.5z"/>
	<path fill="#F04B36" d="M10.9,10.9l-2.3,6.9h1.4l0.7-2h1.9l0.7,2h1.4l-2.4-6.9H10.9z M12.2,14.7h-1.3l0.5-1.5
		c0-0.1,0.1-0.2,0.1-0.3c0,0.1,0.1,0.2,0.1,0.4L12.2,14.7z"/>
	<path fill="#0DB89A" d="M18.5,14.1c0.5-0.3,0.8-0.8,0.8-1.4c0-0.6-0.2-1-0.6-1.3c-0.4-0.4-1-0.5-1.9-0.5c-0.6,0-1.2,0.1-1.6,0.1
		l-0.2,0v6.7l0.2,0c0.2,0,0.7,0.1,1.3,0.1c1.1,0,1.9-0.2,2.4-0.7c0.4-0.4,0.6-0.9,0.6-1.5C19.5,14.9,19,14.4,18.5,14.1z M16.8,13.6
		h-0.5V12c0.1,0,0.3,0,0.5,0c1.2,0,1.2,0.6,1.2,0.8C17.9,13.3,17.5,13.6,16.8,13.6z M16.7,16.7c-0.2,0-0.3,0-0.5,0v-2h0.4
		c0.5,0,1.4,0.1,1.4,1C18.1,16.6,17.4,16.7,16.7,16.7z"/>
	<path fill="#E77528" d="M23.4,12c0.6,0,1,0.2,1.2,0.2l0.3,0.1l0.3-1.1L25,11.1c-0.2-0.1-0.7-0.3-1.6-0.3c-2.1,0-3.6,1.5-3.6,3.6
		c0,2.1,1.3,3.5,3.4,3.5c0.8,0,1.5-0.2,1.8-0.3l0.2-0.1l-0.3-1.1l-0.3,0.1c-0.3,0.1-0.8,0.2-1.2,0.2c-1.4,0-2.2-0.9-2.2-2.3
		C21.1,12.9,21.9,12,23.4,12z"/>
	<path fill="#06728D" d="M44.3,0.5H3.7C1.9,0.5,0.5,2,0.5,3.9v37c0,1.9,1.4,3.4,3.2,3.4h4.1v2.2c0,0.5,0.4,1,1,1h3.4
		c0.5,0,1-0.4,1-1v-2.2H35v2.2c0,0.5,0.4,1,1,1h3.4c0.5,0,1-0.4,1-1v-2.2h4.1c1.7,0,3.2-1.5,3.2-3.4v-37C47.5,2,46.1,0.5,44.3,0.5z
		 M43,33.5c0,0.5-0.4,1-1,1H5.9c-0.5,0-1-0.4-1-1v-27c0-0.5,0.4-1,1-1h36.1c0.5,0,1,0.4,1,1V33.5z"/>
</g>
</svg>
