<?xml version="1.0" encoding="utf-8"?>
<!-- Generator: Adobe Illustrator 18.0.0, SVG Export Plug-In . SVG Version: 6.00 Build 0)  -->
<!DOCTYPE svg PUBLIC "-//W3C//DTD SVG 1.1//EN" "http://www.w3.org/Graphics/SVG/1.1/DTD/svg11.dtd">
<svg version="1.1" id="Layer_1" xmlns="http://www.w3.org/2000/svg" xmlns:xlink="http://www.w3.org/1999/xlink" x="0px" y="0px"
	 viewBox="0 0 48 48" enable-background="new 0 0 48 48" xml:space="preserve">
<g>
	<path fill="#4DA0D8" d="M42.7,0.5H5.3c-1.7,0-3,1.4-3,3v41c0,1.7,1.4,3,3,3h37.3c1.7,0,3-1.4,3-3v-41C45.7,1.9,44.3,0.5,42.7,0.5z
		 M21.8,39.6c0,0.5-0.4,1-1,1H9.7c-0.5,0-1-0.4-1-1v-6.9c0-0.5,0.4-1,1-1h11.1c0.5,0,1,0.4,1,1V39.6z M21.8,27.5c0,0.5-0.4,1-1,1
		H9.7c-0.5,0-1-0.4-1-1v-6.9c0-0.5,0.4-1,1-1h11.1c0.5,0,1,0.4,1,1V27.5z M21.8,15.3c0,0.5-0.4,1-1,1H9.7c-0.5,0-1-0.4-1-1V8.4
		c0-0.5,0.4-1,1-1h11.1c0.5,0,1,0.4,1,1V15.3z M38.3,36.7h-13c-0.5,0-1-0.4-1-1c0-0.5,0.4-1,1-1h13c0.5,0,1,0.4,1,1
		C39.3,36.3,38.9,36.7,38.3,36.7z M38.3,24.5h-13c-0.5,0-1-0.4-1-1c0-0.5,0.4-1,1-1h13c0.5,0,1,0.4,1,1
		C39.3,24.1,38.9,24.5,38.3,24.5z M38.3,12.4h-13c-0.5,0-1-0.4-1-1s0.4-1,1-1h13c0.5,0,1,0.4,1,1S38.9,12.4,38.3,12.4z"/>
	<rect x="10.8" y="9.2" fill="#F04B36" width="8.6" height="5.1"/>
	<rect x="10.8" y="21.4" fill="#F7A93B" width="8.6" height="5.1"/>
	<rect x="10.8" y="33.5" fill="#E77528" width="8.6" height="5.1"/>
</g>
</svg>
