<?xml version="1.0" encoding="utf-8"?>
<!-- Generator: Adobe Illustrator 18.0.0, SVG Export Plug-In . SVG Version: 6.00 Build 0)  -->
<!DOCTYPE svg PUBLIC "-//W3C//DTD SVG 1.1//EN" "http://www.w3.org/Graphics/SVG/1.1/DTD/svg11.dtd">
<svg version="1.1" id="Layer_1" xmlns="http://www.w3.org/2000/svg" xmlns:xlink="http://www.w3.org/1999/xlink" x="0px" y="0px"
	 viewBox="0 0 48 48" enable-background="new 0 0 48 48" xml:space="preserve">
<g>
	<path fill="#294E58" d="M24,46c-0.8,0-1.5-0.7-1.5-1.5v-6.3c0-0.8,0.7-1.5,1.5-1.5s1.5,0.7,1.5,1.5v6.3C25.5,45.4,24.8,46,24,46z"
		/>
	<path fill="#294E58" d="M35.3,46H12.7c-0.8,0-1.5-0.7-1.5-1.5s0.7-1.5,1.5-1.5h22.5c0.8,0,1.5,0.7,1.5,1.5S36.1,46,35.3,46z"/>
	<path fill="#CFD0D1" d="M26.6,15.1c-0.7-0.7-1.6-1-2.7-1c-1.2,0-2.8,0.3-3.8,2.9c-0.2,0.5-0.3,1.1-0.4,1.6h8.5
		C28,17.5,27.6,16,26.6,15.1z"/>
	<path fill="#CFD0D1" d="M44.4,2H3.6C1.9,2,0.5,3.3,0.5,5.1v31.1c0,1.7,1.4,3.1,3.1,3.1h40.8c1.7,0,3.1-1.4,3.1-3.1V5.1
		C47.5,3.3,46.1,2,44.4,2z M30.7,28c-3.2,1.9-5.5,2-6.1,2c-0.1,0-0.1,0-0.2,0c0,0,0,0,0,0c-6.2,0-7.8-5.8-7.8-9.2c0-0.2,0-0.4,0-0.6
		c0-0.1,0-0.1,0-0.2c0-0.1,0-0.2,0-0.3c0.1-1,0.3-2.4,0.8-3.8c1.1-3.1,3.5-4.8,6.5-4.8c1.9,0,3.5,0.6,4.8,1.9c2.5,2.6,2.5,6.8,2.5,7
		c0,0.8-0.7,1.4-1.5,1.4H19.5c0.1,1.8,0.9,5.6,5,5.6c0.1,0,1.8,0,4.7-1.6c0.7-0.4,1.6-0.2,2,0.5C31.6,26.7,31.4,27.6,30.7,28z"/>
</g>
</svg>
