<?xml version="1.0" encoding="utf-8"?>
<!-- Generator: Adobe Illustrator 18.0.0, SVG Export Plug-In . SVG Version: 6.00 Build 0)  -->
<!DOCTYPE svg PUBLIC "-//W3C//DTD SVG 1.1//EN" "http://www.w3.org/Graphics/SVG/1.1/DTD/svg11.dtd">
<svg version="1.1" id="Layer_1" xmlns="http://www.w3.org/2000/svg" xmlns:xlink="http://www.w3.org/1999/xlink" x="0px" y="0px"
	 viewBox="0 0 48 48" enable-background="new 0 0 48 48" xml:space="preserve">
<g>
	<path fill="#E77528" d="M35.9,11.6c-0.8,0-1.5-0.6-1.5-1.3c0-3.9-4.7-7.1-10.5-7.1s-10.5,3.2-10.5,7.1c0,0.7-0.7,1.3-1.5,1.3
		c-0.8,0-1.5-0.6-1.5-1.3c0-5.4,6-9.7,13.4-9.7s13.4,4.4,13.4,9.7C37.4,11,36.7,11.6,35.9,11.6z"/>
	<path fill="#F04B36" d="M46.5,9.9H1.5c-0.5,0-1,0.4-1,0.9v2.8c0,0.5,0.4,0.9,1,0.9h45.1c0.5,0,1-0.4,1-0.9v-2.8
		C47.5,10.3,47.1,9.9,46.5,9.9z"/>
	<path fill="#F04B36" d="M46.5,43H1.5c-0.5,0-1,0.4-1,0.9v2.8c0,0.5,0.4,0.9,1,0.9h45.1c0.5,0,1-0.4,1-0.9v-2.8
		C47.5,43.4,47.1,43,46.5,43z"/>
	<path fill="#4DA0D8" d="M3.7,15.8v26.1h40.7V15.8H3.7z M36.9,27.9c-0.8,0-1.5-0.2-2.2-0.4l-2,3.2c0.8,0.9,1.2,2,1.2,3.2
		c0,2.8-2.5,5.1-5.6,5.1s-5.6-2.3-5.6-5.1c0-1.3,0.5-2.4,1.3-3.3l-5.4-4.9c-0.3,0.1-0.7,0.1-1.1,0.1c-0.3,0-0.6,0-0.9-0.1l-3.2,5.7
		c1.2,0.8,2,2.1,2,3.5c0,2.4-2.2,4.4-4.9,4.4c-2.7,0-4.9-2-4.9-4.4c0-2.4,2.2-4.4,4.9-4.4c0.4,0,0.8,0.1,1.1,0.1l3.2-5.7
		c-0.9-0.7-1.4-1.6-1.4-2.7c0-2,1.8-3.6,4-3.6s4,1.6,4,3.6c0,1-0.5,1.9-1.2,2.5l5.2,4.6c0.8-0.4,1.8-0.7,2.8-0.7
		c1.1,0,2.1,0.3,2.9,0.7l1.9-3c-0.9-0.9-1.5-2.1-1.5-3.4c0-2.6,2.4-4.8,5.3-4.8c2.9,0,5.3,2.2,5.3,4.8
		C42.3,25.7,39.9,27.9,36.9,27.9z"/>
</g>
</svg>
