<?xml version="1.0" encoding="utf-8"?>
<!-- Generator: Adobe Illustrator 18.0.0, SVG Export Plug-In . SVG Version: 6.00 Build 0)  -->
<!DOCTYPE svg PUBLIC "-//W3C//DTD SVG 1.1//EN" "http://www.w3.org/Graphics/SVG/1.1/DTD/svg11.dtd">
<svg version="1.1" id="Layer_1" xmlns="http://www.w3.org/2000/svg" xmlns:xlink="http://www.w3.org/1999/xlink" x="0px" y="0px"
	 viewBox="0 0 48 48" enable-background="new 0 0 48 48" xml:space="preserve">
<g>
	<path fill="#F04B36" d="M9.7,11.2c-0.5,0-1,0-1.4-0.1c-3.7-0.4-4.9-3.8-5.9-6.4C2.3,4.4,2.1,4,2,3.7c-0.2-0.5,0-1.1,0.6-1.3
		c0.5-0.2,1.1,0,1.3,0.6C4,3.3,4.2,3.6,4.3,4c1.1,2.9,2,4.9,4.3,5.1c1.3,0.2,2.8,0,4.2-0.3c2.2-0.6,3.1-1.6,4.7-3.3l0.6-0.6
		c2.1-2.3,4.2-4.4,7.6-4.4c0,0,0.1,0,0.1,0c1.6,0,3.2,0.5,4.4,1.3c1.5,1,2.4,2.6,2.3,4.3c0,0.6-0.5,1-1,1c-0.6,0-1-0.5-1-1
		c0-1.1-0.5-1.9-1.5-2.6c-0.9-0.6-2.1-1-3.3-1c0,0-0.1,0-0.1,0c-2.6,0-4.2,1.6-6.1,3.7l-0.5,0.6c-1.6,1.8-2.8,3.2-5.7,3.9
		C12.1,11,10.9,11.2,9.7,11.2z"/>
	<path fill="#06728D" d="M31.4,5.3c-6.6,0-12.2,5.8-14,13.8l5.2-6.4c0.9-1.1,2.3-1.3,3.3-0.5c1,0.8,1,2.3,0.2,3.3l-9.2,11.3
		c0,0.3,0.1,0.6,0.1,0.9l3-3.7c0.9-1.1,2.3-1.3,3.3-0.5c1,0.8,1,2.3,0.2,3.3l-4.6,5.6l0.5,0.5l4.1-5.1c0.9-1,2.3-1.3,3.3-0.5
		c1,0.8,1,2.3,0.2,3.3l-4.4,5.4l0.5,0.5l3.5-4.3c0.9-1,2.3-1.3,3.3-0.5c1,0.8,1,2.3,0.2,3.3L24.4,42c2.1,1.5,4.5,2.4,7,2.4
		c8.1,0,14.7-8.8,14.7-19.5C46.1,14,39.5,5.3,31.4,5.3z M32.5,19.8c0,0.6-0.5,1-1,1s-1-0.5-1-1v-6.9c0-0.6,0.5-1,1-1s1,0.5,1,1V19.8
		z"/>
	<path fill="#CFD0D1" d="M4.2,40.6C4,40,3.7,38.2,4.4,35.1l0-0.1l0-0.1c0-0.2,0-0.4,0.1-0.6l6-16c0.2-0.6,0.8-1,1.3-1
		c0.1,0,0.3,0,0.4,0.1c0.3,0.1,0.5,0.3,0.7,0.7c0.2,0.4,0.2,0.8,0,1.2l-2.5,6.8l1.7,1.4l11.3-13.8c0.3-0.4,0.7-0.6,1.2-0.6
		c0.2,0,0.5,0,0.7,0.2c0.2,0.2,0.4,0.5,0.4,0.8c0,0.4-0.1,0.8-0.4,1.1L14.5,28.2c0,0,0,0-0.1,0.1l-0.7,0.7l2,1.9l5-6.1
		c0.3-0.4,0.7-0.6,1.2-0.6c0.2,0,0.5,0,0.7,0.2c0.5,0.4,0.5,1.3,0,1.9l-5.2,6.3l1.9,1.9l4.8-5.9c0.3-0.4,0.7-0.6,1.2-0.6
		c0.2,0,0.5,0,0.7,0.2c0.5,0.4,0.5,1.3,0,1.9l-5,6.1l1.9,1.9l4.2-5.1c0.3-0.4,0.7-0.6,1.2-0.6c0.2,0,0.5,0,0.7,0.2
		c0.2,0.2,0.4,0.5,0.4,0.8c0,0.4-0.1,0.8-0.4,1.1l-5.7,6.9c-0.2,0.3-4.5,4.8-10.9,6L4.2,40.6z"/>
</g>
</svg>
