<?xml version="1.0" encoding="utf-8"?>
<!-- Generator: Adobe Illustrator 18.0.0, SVG Export Plug-In . SVG Version: 6.00 Build 0)  -->
<!DOCTYPE svg PUBLIC "-//W3C//DTD SVG 1.1//EN" "http://www.w3.org/Graphics/SVG/1.1/DTD/svg11.dtd">
<svg version="1.1" id="Layer_1" xmlns="http://www.w3.org/2000/svg" xmlns:xlink="http://www.w3.org/1999/xlink" x="0px" y="0px"
	 viewBox="0 0 48 48" enable-background="new 0 0 48 48" xml:space="preserve">
<g>
	<path fill="#F7A93B" d="M24,10.7c-6.6,0-11.9,5.3-11.9,11.9c0,4.7,4.8,9.1,5,9.3c0.6,0.5,1.1,1.6,1.1,2.4v3.3
		c0,1.6,1.3,2.8,2.8,2.8H27c1.6,0,2.8-1.3,2.8-2.8v-3.3c0-0.7,0.5-1.9,1.1-2.4c0.2-0.2,5-4.6,5-9.3C35.9,16.1,30.6,10.7,24,10.7z
		 M30.6,26.5c-0.2,0.3-0.5,0.5-0.8,0.5c-0.2,0-0.3,0-0.5-0.1c-0.5-0.3-0.6-0.9-0.3-1.3c3.1-5.1-1.5-8.7-2-9.1
		c-0.4-0.3-0.5-0.9-0.2-1.4c0.3-0.4,0.9-0.5,1.4-0.2C28.4,15.1,34.7,19.9,30.6,26.5z"/>
	<path fill="#06728D" d="M2.8,23.4c-0.5,0-0.9-0.3-1-0.8c-0.1-0.5,0.3-1,0.8-1.1l7.9-1.3c0.5-0.1,1,0.3,1.1,0.8
		c0.1,0.5-0.3,1-0.8,1.1L3,23.3C2.9,23.4,2.9,23.4,2.8,23.4z"/>
	<path fill="#06728D" d="M37.3,24.7c-0.5,0-0.9-0.3-1-0.8c-0.1-0.5,0.3-1,0.8-1.1l7.9-1.3c0.5-0.1,1,0.3,1.1,0.8
		c0.1,0.5-0.3,1-0.8,1.1l-7.9,1.3C37.4,24.7,37.3,24.7,37.3,24.7z"/>
	<path fill="#06728D" d="M25.4,10.3c-0.5,0-0.9-0.3-1-0.8L23,1.6c-0.1-0.5,0.3-1,0.8-1.1c0.5-0.1,1,0.3,1.1,0.8l1.4,7.8
		c0.1,0.5-0.3,1-0.8,1.1C25.5,10.3,25.4,10.3,25.4,10.3z"/>
	<path fill="#06728D" d="M15.6,13.2c-0.2,0-0.4-0.1-0.6-0.2L8.5,8.4C8,8.1,7.9,7.5,8.2,7c0.3-0.4,0.9-0.5,1.3-0.2l6.6,4.6
		c0.4,0.3,0.5,0.9,0.2,1.3C16.2,13,15.9,13.2,15.6,13.2z"/>
	<path fill="#06728D" d="M39,38.1c-0.2,0-0.4-0.1-0.6-0.2l-6.6-4.6c-0.4-0.3-0.5-0.9-0.2-1.3c0.3-0.4,0.9-0.5,1.3-0.2l6.6,4.6
		c0.4,0.3,0.5,0.9,0.2,1.3C39.6,38,39.3,38.1,39,38.1z"/>
	<path fill="#06728D" d="M34.3,15c-0.2,0-0.4-0.1-0.6-0.2c-0.4-0.3-0.5-0.9-0.2-1.4L38.2,7c0.3-0.4,0.9-0.5,1.4-0.2
		c0.4,0.3,0.5,0.9,0.2,1.4l-4.6,6.5C34.9,14.9,34.6,15,34.3,15z"/>
	<path fill="#06728D" d="M9,38.1c-0.2,0-0.4-0.1-0.6-0.2c-0.4-0.3-0.5-0.9-0.2-1.4l4.6-6.5c0.3-0.4,0.9-0.5,1.4-0.2
		c0.4,0.3,0.5,0.9,0.2,1.4l-4.6,6.5C9.6,38,9.3,38.1,9,38.1z"/>
	<path fill="#F04B36" d="M28.9,43.8h-9.6c-0.5,0-1-0.4-1-1s0.4-1,1-1h9.6c0.5,0,1,0.4,1,1S29.4,43.8,28.9,43.8z"/>
	<path fill="#F04B36" d="M28.9,47.5h-9.6c-0.5,0-1-0.4-1-1c0-0.5,0.4-1,1-1h9.6c0.5,0,1,0.4,1,1C29.9,47.1,29.4,47.5,28.9,47.5z"/>
</g>
</svg>
