<?xml version="1.0" encoding="utf-8"?>
<!-- Generator: Adobe Illustrator 18.0.0, SVG Export Plug-In . SVG Version: 6.00 Build 0)  -->
<!DOCTYPE svg PUBLIC "-//W3C//DTD SVG 1.1//EN" "http://www.w3.org/Graphics/SVG/1.1/DTD/svg11.dtd">
<svg version="1.1" id="Layer_1" xmlns="http://www.w3.org/2000/svg" xmlns:xlink="http://www.w3.org/1999/xlink" x="0px" y="0px"
	 viewBox="0 0 48 48" enable-background="new 0 0 48 48" xml:space="preserve">
<g>
	<path fill="#0DB89A" d="M45.9,2.1c-2.2-2.1-5.7-2.1-7.8,0c-1.1,1.1-5.7,6.6-8.7,11.1l0.8,0.5l3.7,3.6l0.5,0.8
		c4.7-2.9,10.4-7.3,11.5-8.4C48,7.5,48,4.1,45.9,2.1z"/>
	<path fill="#06728D" d="M30.5,16.6c-2-1.9-4.4-3.8-7.7-3.8c-2.3,0-4.8,1-7.3,3c-4.6,3.6-8.5,4.9-10.3,5.4l0,0
		c-1.2-1.1-3.1-1.3-4-0.3c-1,1-0.9,2.7,0.4,3.9l20.6,19.8c0.7,0.6,1.5,1,2.3,1c0.7,0,1.3-0.2,1.7-0.6c1-1,0.9-2.7-0.4-3.9l0,0
		c0.5-1.8,1.9-5.5,5.6-9.9C37.7,23.5,32.7,18.6,30.5,16.6z"/>
	<path fill="#F04B36" d="M19.3,44.1L7.7,32.8L7,32.2c-1.9,1.7-2.9,4-2.9,6.5c0,4.9,4.1,8.9,9.2,8.9c2.5,0,4.9-1,6.6-2.7L19.3,44.1z"
		/>
</g>
</svg>
