<?xml version="1.0" encoding="utf-8"?>
<!-- Generator: Adobe Illustrator 18.0.0, SVG Export Plug-In . SVG Version: 6.00 Build 0)  -->
<!DOCTYPE svg PUBLIC "-//W3C//DTD SVG 1.1//EN" "http://www.w3.org/Graphics/SVG/1.1/DTD/svg11.dtd">
<svg version="1.1" id="Layer_1" xmlns="http://www.w3.org/2000/svg" xmlns:xlink="http://www.w3.org/1999/xlink" x="0px" y="0px"
	 viewBox="0 0 48 48" enable-background="new 0 0 48 48" xml:space="preserve">
<g>
	<path fill="#0DB89A" d="M31.6,34.9c-0.4,0-0.7,0-1.1,0.1c-3.4,0.6-5.7,3.9-5.1,7.3c0.5,3,3.1,5.2,6.2,5.2h0c0.4,0,0.7,0,1.1-0.1
		c1.7-0.3,3.1-1.2,4.1-2.6c1-1.4,1.3-3,1-4.7C37.2,37.1,34.6,34.9,31.6,34.9z"/>
	<path fill="#0DB89A" d="M42.3,25.4c-0.4-0.1-0.7-0.1-1.1-0.1c-3,0-5.6,2.2-6.2,5.2c-0.6,3.4,1.7,6.7,5.1,7.3
		c0.4,0.1,0.7,0.1,1.1,0.1c3,0,5.6-2.2,6.2-5.2C48,29.3,45.7,26,42.3,25.4z"/>
	<path fill="#06728D" d="M26.7,32.3L26.7,32.3l4.4,0.8l2.2,0.3l-0.3-2.2l-0.8-4.4v0l-0.7-3.8l-1.2-6.7l-1.3-7.3
		C28.9,7.7,28,5.9,27,5l-4.3-4c-1-0.9-1.6-0.6-1.3,0.7l2.8,15.7l1.2,6.7l0.3,1.5L24,25.3l-6.7-1.2L1.7,21.3
		c-1.3-0.2-1.6,0.4-0.7,1.3L5,27c0.9,1,2.7,1.9,3.9,2.2l7.3,1.3l6.7,1.2L26.7,32.3L26.7,32.3z"/>
</g>
</svg>
