<?xml version="1.0" encoding="utf-8"?>
<!-- Generator: Adobe Illustrator 18.0.0, SVG Export Plug-In . SVG Version: 6.00 Build 0)  -->
<!DOCTYPE svg PUBLIC "-//W3C//DTD SVG 1.1//EN" "http://www.w3.org/Graphics/SVG/1.1/DTD/svg11.dtd">
<svg version="1.1" id="Layer_1" xmlns="http://www.w3.org/2000/svg" xmlns:xlink="http://www.w3.org/1999/xlink" x="0px" y="0px"
	 viewBox="0 0 48 48" enable-background="new 0 0 48 48" xml:space="preserve">
<g>
	<path fill="#06728D" d="M17.7,23.9c1.1,1.1,1.7,2.6,1.7,4.3s-0.7,3.2-1.7,4.3h12.7c-1.1-1.1-1.7-2.6-1.7-4.3s0.7-3.2,1.7-4.3H17.7z
		"/>
	<polygon fill="#06728D" points="40.5,12.8 43,6.9 4.7,6.9 7.9,12.8 	"/>
	<path fill="#F04B36" d="M13.1,23.9c-2.4,0-4.3,1.9-4.3,4.3s1.9,4.3,4.3,4.3c2.4,0,4.3-1.9,4.3-4.3S15.4,23.9,13.1,23.9z"/>
	<path fill="#F04B36" d="M34.9,23.9c-2.4,0-4.3,1.9-4.3,4.3s1.9,4.3,4.3,4.3c2.4,0,4.3-1.9,4.3-4.3S37.3,23.9,34.9,23.9z"/>
	<path fill="#0DB89A" d="M47,6.9h-1.8L42,14.2c-0.2,0.4-0.5,0.6-0.9,0.6H7.3c-0.4,0-0.7-0.2-0.9-0.5L2.6,7.2c0-0.1-0.1-0.2-0.1-0.3
		H1c-0.3,0-0.5,0.2-0.5,0.5v33.1c0,0.3,0.2,0.5,0.5,0.5h46c0.3,0,0.5-0.2,0.5-0.5V7.4C47.5,7.2,47.3,6.9,47,6.9z M34.9,34.6
		c-0.1,0-0.3,0-0.4,0c0,0-0.1,0-0.1,0H13.5c0,0-0.1,0-0.1,0c-0.1,0-0.2,0-0.4,0c-3.5,0-6.3-2.8-6.3-6.3s2.8-6.3,6.3-6.3
		c0.1,0,0.3,0,0.4,0c0,0,0.1,0,0.1,0h20.9c0,0,0.1,0,0.1,0c0.1,0,0.2,0,0.4,0c3.5,0,6.3,2.8,6.3,6.3S38.4,34.6,34.9,34.6z"/>
</g>
</svg>
