<?xml version="1.0" encoding="utf-8"?>
<!-- Generator: Adobe Illustrator 18.0.0, SVG Export Plug-In . SVG Version: 6.00 Build 0)  -->
<!DOCTYPE svg PUBLIC "-//W3C//DTD SVG 1.1//EN" "http://www.w3.org/Graphics/SVG/1.1/DTD/svg11.dtd">
<svg version="1.1" id="Layer_1" xmlns="http://www.w3.org/2000/svg" xmlns:xlink="http://www.w3.org/1999/xlink" x="0px" y="0px"
	 viewBox="0 0 48 48" enable-background="new 0 0 48 48" xml:space="preserve">
<g>
	<path fill="#F7A93B" d="M47,14.6h-5.4v-8c0-0.8-0.7-1.5-1.5-1.5H7.9C7,5.1,6.4,5.7,6.4,6.6v8H1c-0.3,0-0.5,0.2-0.5,0.5v27.3
		c0,0.3,0.2,0.5,0.5,0.5h46c0.3,0,0.5-0.2,0.5-0.5V15.1C47.5,14.8,47.3,14.6,47,14.6z M9.4,8.1h29.3v6.5h-5.7v-1.9
		c0-0.8-0.7-1.5-1.5-1.5c-0.8,0-1.5,0.7-1.5,1.5v1.9h-4.4v-1.9c0-0.8-0.7-1.5-1.5-1.5c-0.8,0-1.5,0.7-1.5,1.5v1.9h-4.4v-1.9
		c0-0.8-0.7-1.5-1.5-1.5c-0.8,0-1.5,0.7-1.5,1.5v1.9H9.4V8.1z M10,34.5c-2.1,0-3.7-1.7-3.7-3.7c0-2.1,1.7-3.7,3.7-3.7
		c2.1,0,3.7,1.7,3.7,3.7C13.7,32.8,12.1,34.5,10,34.5z M27.2,30.6h-6.5v-7h6.5V30.6z M38,34.5c-2.1,0-3.7-1.7-3.7-3.7
		c0-2.1,1.7-3.7,3.7-3.7c2.1,0,3.7,1.7,3.7,3.7C41.7,32.8,40.1,34.5,38,34.5z"/>
</g>
</svg>
