<?xml version="1.0" encoding="utf-8"?>
<!-- Generator: Adobe Illustrator 18.0.0, SVG Export Plug-In . SVG Version: 6.00 Build 0)  -->
<!DOCTYPE svg PUBLIC "-//W3C//DTD SVG 1.1//EN" "http://www.w3.org/Graphics/SVG/1.1/DTD/svg11.dtd">
<svg version="1.1" id="Layer_1" xmlns="http://www.w3.org/2000/svg" xmlns:xlink="http://www.w3.org/1999/xlink" x="0px" y="0px"
	 viewBox="0 0 48 48" enable-background="new 0 0 48 48" xml:space="preserve">
<g>
	<path fill="#CFD0D1" d="M39.2,23.7c0-0.8-0.6-1.5-1.4-1.5c-0.8,0-1.5,0.6-1.5,1.4C35.9,30.5,30.6,36,24,36
		c-6.6,0-11.9-5.5-12.2-12.5c0-0.8-0.7-1.4-1.5-1.4c-0.8,0-1.4,0.7-1.4,1.5c0.3,8.1,6.2,14.5,13.7,15.2v5.7h-5.9
		c-0.8,0-1.5,0.7-1.5,1.5c0,0.8,0.7,1.5,1.5,1.5h14.7c0.8,0,1.5-0.7,1.5-1.5c0-0.8-0.7-1.5-1.5-1.5h-5.9v-5.7
		C32.9,38.1,38.8,31.7,39.2,23.7z"/>
	<path fill="#06728D" d="M20.1,22.8c0,0.5-0.5,1-1.1,1h-3.8c0.5,4.4,4.2,7.9,8.7,7.9c4.5,0,8.2-3.4,8.7-7.9h-3.8
		c-0.6,0-1.1-0.4-1.1-1c0-0.5,0.5-1,1.1-1h3.9v-4.8h-3.9c-0.6,0-1.1-0.4-1.1-1c0-0.5,0.5-1,1.1-1h3.9v-4.8h-3.9
		c-0.6,0-1.1-0.4-1.1-1c0-0.5,0.5-1,1.1-1h3.8c-0.5-4.4-4.2-7.9-8.7-7.9c-4.5,0-8.2,3.4-8.7,7.9h3.8c0.6,0,1.1,0.4,1.1,1
		c0,0.5-0.5,1-1.1,1h-3.9v4.8h3.9c0.6,0,1.1,0.4,1.1,1c0,0.5-0.5,1-1.1,1h-3.9v4.8h3.9C19.7,21.8,20.1,22.3,20.1,22.8z"/>
</g>
</svg>
