<?xml version="1.0" encoding="utf-8"?>
<!-- Generator: Adobe Illustrator 18.0.0, SVG Export Plug-In . SVG Version: 6.00 Build 0)  -->
<!DOCTYPE svg PUBLIC "-//W3C//DTD SVG 1.1//EN" "http://www.w3.org/Graphics/SVG/1.1/DTD/svg11.dtd">
<svg version="1.1" id="Layer_1" xmlns="http://www.w3.org/2000/svg" xmlns:xlink="http://www.w3.org/1999/xlink" x="0px" y="0px"
	 viewBox="0 0 48 48" enable-background="new 0 0 48 48" xml:space="preserve">
<g>
	<path fill="#F04B36" d="M8.4,32.6H6.6V2.3c0-0.8-0.6-1.4-1.4-1.4c-0.8,0-1.4,0.6-1.4,1.4v30.4H1.9c-0.8,0-1.4,0.6-1.4,1.4
		c0,0.8,0.6,1.4,1.4,1.4h1.8v10.2c0,0.8,0.6,1.4,1.4,1.4c0.8,0,1.4-0.6,1.4-1.4V35.5h1.8c0.8,0,1.4-0.6,1.4-1.4
		C9.8,33.3,9.2,32.6,8.4,32.6z"/>
	<path fill="#06728D" d="M21,17.7h-1.8V2.3c0-0.8-0.6-1.4-1.4-1.4c-0.8,0-1.4,0.6-1.4,1.4v15.4h-1.8c-0.8,0-1.4,0.6-1.4,1.4
		c0,0.8,0.6,1.4,1.4,1.4h1.8v25.2c0,0.8,0.6,1.4,1.4,1.4c0.8,0,1.4-0.6,1.4-1.4V20.6H21c0.8,0,1.4-0.6,1.4-1.4
		C22.4,18.3,21.7,17.7,21,17.7z"/>
	<path fill="#0DB89A" d="M33.5,25.7h-1.8V2.3c0-0.8-0.6-1.4-1.4-1.4c-0.8,0-1.4,0.6-1.4,1.4v23.5H27c-0.8,0-1.4,0.6-1.4,1.4
		c0,0.8,0.6,1.4,1.4,1.4h1.8v17.2c0,0.8,0.6,1.4,1.4,1.4c0.8,0,1.4-0.6,1.4-1.4V28.6h1.8c0.8,0,1.4-0.6,1.4-1.4
		C34.9,26.4,34.3,25.7,33.5,25.7z"/>
	<path fill="#E77528" d="M46.1,5.1h-1.8V2.3c0-0.8-0.6-1.4-1.4-1.4c-0.8,0-1.4,0.6-1.4,1.4v2.8h-1.8c-0.8,0-1.4,0.6-1.4,1.4
		s0.6,1.4,1.4,1.4h1.8v37.8c0,0.8,0.6,1.4,1.4,1.4c0.8,0,1.4-0.6,1.4-1.4V7.9h1.8c0.8,0,1.4-0.6,1.4-1.4S46.9,5.1,46.1,5.1z"/>
</g>
</svg>
