<?xml version="1.0" encoding="utf-8"?>
<!-- Generator: Adobe Illustrator 18.0.0, SVG Export Plug-In . SVG Version: 6.00 Build 0)  -->
<!DOCTYPE svg PUBLIC "-//W3C//DTD SVG 1.1//EN" "http://www.w3.org/Graphics/SVG/1.1/DTD/svg11.dtd">
<svg version="1.1" id="Layer_1" xmlns="http://www.w3.org/2000/svg" xmlns:xlink="http://www.w3.org/1999/xlink" x="0px" y="0px"
	 viewBox="0 0 48 48" enable-background="new 0 0 48 48" xml:space="preserve">
<g>
	<path fill="#06728D" d="M36.9,8.9L21.5,24.3L20.2,23l-0.4,0.4l-0.3-0.3l0.3-0.3l-0.4-0.4l-1,1l0.4,0.4l0.3-0.3l0.3,0.3L19,24.3
		l1.3,1.3l-1.2,1.2l-1.3-1.3l-0.4,0.4l-0.3-0.3l0.3-0.3L17,24.8l-1,1l0.4,0.4l0.3-0.3l0.3,0.3l-0.4,0.4l1.3,1.3l-1.3,1.3L15.2,28
		l-0.4,0.4l-0.3-0.3l0.3-0.3l-0.4-0.4l-1,1l0.4,0.4l0.3-0.3l0.3,0.3L14,29.2l1.3,1.3l-8.6,8.6l0.7,0.7L2,45c0,0-1.3,0.2-1.5,0.6
		c-0.1,0.3,0.5,0.8,0.9,1c0.2,0.4,0.7,1,1,0.9C2.8,47.3,3,46,3,46l5.2-5.2l0.7,0.7l1.8-1.8c-0.1,1.3,0.4,2.6,1.4,3.6
		c1.8,1.8,4.9,1.8,6.8-0.1l4.5-4.5l1.2,1.2l1.2-1.2l-1.2-1.2l1.3-1.3l1.2,1.2l1.2-1.2l-1.2-1.2l1.2-1.2l1.2,1.2l1.2-1.2l-1.2-1.2
		l12.9-12.9c1.9-1.9,1.9-4.9,0.1-6.8c-1-1-2.3-1.4-3.6-1.4l0.2-0.2c5.1-2,8.4-0.6,8.4-0.6l-5-5l-0.1-0.1l-5-5
		C37.4,0.5,38.9,3.8,36.9,8.9z M19.9,40.3c-0.9,0.9-2.3,0.9-3.2,0c-0.9-0.9-0.9-2.3,0-3.2l2.6-2.6l3.2,3.2L19.9,40.3z M23.7,36.5
		l-3.2-3.2l1.3-1.3l3.2,3.2L23.7,36.5z M26.3,33.9l-3.2-3.2l1.2-1.2l3.2,3.2L26.3,33.9z M40.4,19.7L28.7,31.5l-3.2-3.2l11.8-11.8
		c0.9-0.9,2.3-0.9,3.2,0C41.3,17.4,41.3,18.8,40.4,19.7z"/>
</g>
</svg>
