<?xml version="1.0" encoding="utf-8"?>
<!-- Generator: Adobe Illustrator 18.0.0, SVG Export Plug-In . SVG Version: 6.00 Build 0)  -->
<!DOCTYPE svg PUBLIC "-//W3C//DTD SVG 1.1//EN" "http://www.w3.org/Graphics/SVG/1.1/DTD/svg11.dtd">
<svg version="1.1" id="Layer_1" xmlns="http://www.w3.org/2000/svg" xmlns:xlink="http://www.w3.org/1999/xlink" x="0px" y="0px"
	 viewBox="0 0 48 48" enable-background="new 0 0 48 48" xml:space="preserve">
<g>
	<path fill="#CFD0D1" d="M41.3,0.5H6.7c-0.5,0-1,0.4-1,1v45c0,0.5,0.4,1,1,1h34.6c0.5,0,1-0.4,1-1v-45C42.3,0.9,41.8,0.5,41.3,0.5z
		 M15.4,31c0-4.7,3.8-8.6,8.6-8.6s8.6,3.8,8.6,8.6s-3.8,8.6-8.6,8.6S15.4,35.7,15.4,31z M24,14.8c-1.8,0-3.2-1.4-3.2-3.2
		s1.4-3.2,3.2-3.2c1.8,0,3.2,1.4,3.2,3.2S25.8,14.8,24,14.8z"/>
</g>
</svg>
