<?xml version="1.0" encoding="utf-8"?>
<!-- Generator: Adobe Illustrator 18.0.0, SVG Export Plug-In . SVG Version: 6.00 Build 0)  -->
<!DOCTYPE svg PUBLIC "-//W3C//DTD SVG 1.1//EN" "http://www.w3.org/Graphics/SVG/1.1/DTD/svg11.dtd">
<svg version="1.1" id="Layer_1" xmlns="http://www.w3.org/2000/svg" xmlns:xlink="http://www.w3.org/1999/xlink" x="0px" y="0px"
	 viewBox="0 0 48 48" enable-background="new 0 0 48 48" xml:space="preserve">
<g>
	<path fill="#F04B36" d="M23.3,12.9c0.4-2.9-0.4-5.8-2.2-8.1c-2.1-2.7-5.3-4.3-8.7-4.3c-2.4,0-4.8,0.8-6.7,2.3
		c-2.3,1.8-3.8,4.4-4.2,7.3C1.2,13,2,15.8,3.8,18.2c2.1,2.7,5.3,4.3,8.7,4.3c2.4,0,4.8-0.8,6.7-2.3C21.4,18.3,22.9,15.8,23.3,12.9z"
		/>
	<path fill="#0DB89A" d="M45.1,37.2c-0.2-0.3-0.3-0.6-0.5-1c-0.2-0.5-0.8-0.7-1.3-0.5c-0.5,0.2-0.7,0.8-0.5,1.3
		c0.2,0.3,0.3,0.7,0.5,1c1.2,2.6,1.9,4.3,0.2,6c-0.9,1-1.8,1.4-2.6,1.4c-0.8,0-1.7-0.6-2.7-1.8l2.3-1.8c0.2-0.2,0.3-0.5,0.1-0.7
		L24.3,16.8c-0.9,1.9-2.2,3.6-3.9,5c-1.7,1.3-3.7,2.2-5.8,2.5l19.5,22c0.1,0.1,0.2,0.2,0.4,0.2c0.1,0,0.2,0,0.3-0.1l1.8-1.4
		c1,1.2,2.5,2.5,4.2,2.6c0.1,0,0.1,0,0.2,0c1.3,0,2.6-0.7,3.9-2C47.7,42.6,46.3,39.6,45.1,37.2z M24.8,27.7
		c-0.2,0.2-0.4,0.2-0.6,0.2c-0.3,0-0.6-0.1-0.8-0.4L21.2,25c-0.4-0.4-0.3-1.1,0.1-1.4c0.4-0.4,1.1-0.3,1.4,0.1l2.1,2.6
		C25.3,26.7,25.2,27.3,24.8,27.7z"/>
</g>
</svg>
