<?xml version="1.0" encoding="utf-8"?>
<!-- Generator: Adobe Illustrator 18.0.0, SVG Export Plug-In . SVG Version: 6.00 Build 0)  -->
<!DOCTYPE svg PUBLIC "-//W3C//DTD SVG 1.1//EN" "http://www.w3.org/Graphics/SVG/1.1/DTD/svg11.dtd">
<svg version="1.1" id="Layer_1" xmlns="http://www.w3.org/2000/svg" xmlns:xlink="http://www.w3.org/1999/xlink" x="0px" y="0px"
	 viewBox="0 0 48 48" enable-background="new 0 0 48 48" xml:space="preserve">
<g>
	<path fill="#F7A93B" d="M41.3,16.3V1c0-0.2-0.1-0.3-0.3-0.4c-0.2-0.1-0.4-0.1-0.6,0L18,12.8c-0.2,0.1-0.3,0.3-0.3,0.4v21.6
		c0,0.2,0.1,0.3,0.3,0.4l22.4,12.2c0.1,0.1,0.2,0.1,0.3,0.1c0.1,0,0.2,0,0.3-0.1c0.2-0.1,0.3-0.3,0.3-0.4V31.7
		c3.8-1.5,6.2-4.5,6.2-7.7C47.5,20.8,45.1,17.7,41.3,16.3z"/>
	<path fill="#E77528" d="M14.7,12.7H0.9c-0.2,0-0.4,0.2-0.4,0.5v21.6c0,0.3,0.2,0.5,0.4,0.5h13.8c0.2,0,0.4-0.2,0.4-0.5V13.2
		C15.2,12.9,15,12.7,14.7,12.7z"/>
</g>
</svg>
