<?xml version="1.0" encoding="utf-8"?>
<!-- Generator: Adobe Illustrator 18.0.0, SVG Export Plug-In . SVG Version: 6.00 Build 0)  -->
<!DOCTYPE svg PUBLIC "-//W3C//DTD SVG 1.1//EN" "http://www.w3.org/Graphics/SVG/1.1/DTD/svg11.dtd">
<svg version="1.1" id="Layer_1" xmlns="http://www.w3.org/2000/svg" xmlns:xlink="http://www.w3.org/1999/xlink" x="0px" y="0px"
	 viewBox="0 0 48 48" enable-background="new 0 0 48 48" xml:space="preserve">
<g>
	<path fill="#F04B36" d="M38.8,8.8l5.9-6.7c0.4-0.4,0.3-1-0.1-1.3c-0.4-0.3-1-0.3-1.4,0.1L30.4,15.2v1.3c0.3,0.2,0.6,0.4,0.9,0.6
		l2.9-3.3c3.5,1.8,5.8,5.8,5.8,10.2c0,4.6-2.6,8.8-6.4,10.5c-0.5,0.2-0.7,0.8-0.5,1.3c0.1,0.4,0.5,0.6,0.9,0.6c0.1,0,0.2,0,0.4-0.1
		C38.9,34.3,42,29.4,42,24c0-4.9-2.5-9.4-6.4-11.6l1.8-2.1c4.9,2.3,8.2,7.7,8.2,13.7c0,6.1-3.4,11.7-8.5,13.9
		c-0.5,0.2-0.7,0.8-0.5,1.3c0.1,0.4,0.5,0.6,0.9,0.6c0.1,0,0.2,0,0.4-0.1c5.8-2.5,9.7-8.8,9.7-15.7C47.5,17.5,44,11.5,38.8,8.8z"/>
	<path fill="#F7A93B" d="M29.7,46.8c0.1,0.1,0.2,0.1,0.3,0.1c0.1,0,0.1,0,0.2,0c0.2-0.1,0.3-0.3,0.3-0.4V31.5
		c2.5-1.5,4.1-4.3,4.1-7.5c0-2.8-1.2-5.3-3.2-6.9l-15.9,18L29.7,46.8z"/>
	<path fill="#F7A93B" d="M30.4,1.6c0-0.2-0.1-0.4-0.3-0.4c-0.2-0.1-0.3-0.1-0.5,0.1L15.1,13.1c-0.1,0.1-0.2,0.2-0.2,0.4v19.3
		l15.5-17.6V1.6z"/>
	<path fill="#0DB89A" d="M13.1,34.5v-21c0-0.3-0.2-0.5-0.5-0.5H1c-0.3,0-0.5,0.2-0.5,0.5v21C0.5,34.8,0.7,35,1,35h11.6
		C12.8,35,13.1,34.8,13.1,34.5z"/>
	<path fill="#F04B36" d="M14.9,34.5v-1.7L3.3,45.9c-0.4,0.4-0.3,1,0.1,1.3c0.2,0.2,0.4,0.2,0.6,0.2c0.3,0,0.5-0.1,0.7-0.3l10.6-12
		l-0.3-0.3C15,34.8,14.9,34.6,14.9,34.5z"/>
</g>
</svg>
