<?xml version="1.0" encoding="utf-8"?>
<!-- Generator: Adobe Illustrator 18.0.0, SVG Export Plug-In . SVG Version: 6.00 Build 0)  -->
<!DOCTYPE svg PUBLIC "-//W3C//DTD SVG 1.1//EN" "http://www.w3.org/Graphics/SVG/1.1/DTD/svg11.dtd">
<svg version="1.1" id="Layer_1" xmlns="http://www.w3.org/2000/svg" xmlns:xlink="http://www.w3.org/1999/xlink" x="0px" y="0px"
	 viewBox="0 0 48 48" enable-background="new 0 0 48 48" xml:space="preserve">
<g>
	<path fill="#CFD0D1" d="M6.1,23.5h13.7c0,0,0,0,0,0c0.3,0,0.5-0.2,0.5-0.5c0-0.1,0-0.1,0-0.2c-0.2-1.8,0.9-3.4,2.6-4
		c0.4-0.1,0.8-0.2,1.2-0.2c1.7,0,3.1,1.1,3.6,2.6c0.2,0.5,0.2,1.1,0.1,1.6c0,0.1,0,0.3,0.1,0.4c0.1,0.1,0.2,0.2,0.4,0.2h13.7
		c0.3,0,0.5-0.2,0.5-0.5c0.1-2.1-0.2-4.2-0.9-6.2C39.1,9.1,32,4,24,4c-1.9,0-3.8,0.3-5.7,0.9c-7.8,2.5-13,10-12.8,18.1
		C5.6,23.3,5.8,23.5,6.1,23.5z"/>
	<path fill="#294E58" d="M47,25.5H1c-0.3,0-0.5,0.2-0.5,0.5v17.6C0.5,43.8,0.7,44,1,44h46c0.3,0,0.5-0.2,0.5-0.5V26
		C47.5,25.7,47.3,25.5,47,25.5z M32.4,33.5H7c-0.6,0-1-0.4-1-1c0-0.6,0.4-1,1-1h25.5c0.6,0,1,0.4,1,1C33.4,33,33,33.5,32.4,33.5z
		 M39.4,39.5c-0.8,0-1.5-0.7-1.5-1.5c0-0.8,0.7-1.5,1.5-1.5c0.8,0,1.5,0.7,1.5,1.5C40.9,38.8,40.3,39.5,39.4,39.5z M39.4,33
		c-0.8,0-1.5-0.7-1.5-1.5c0-0.8,0.7-1.5,1.5-1.5c0.8,0,1.5,0.7,1.5,1.5C40.9,32.3,40.3,33,39.4,33z"/>
</g>
</svg>
