<?xml version="1.0" encoding="utf-8"?>
<!-- Generator: Adobe Illustrator 18.0.0, SVG Export Plug-In . SVG Version: 6.00 Build 0)  -->
<!DOCTYPE svg PUBLIC "-//W3C//DTD SVG 1.1//EN" "http://www.w3.org/Graphics/SVG/1.1/DTD/svg11.dtd">
<svg version="1.1" id="Layer_1" xmlns="http://www.w3.org/2000/svg" xmlns:xlink="http://www.w3.org/1999/xlink" x="0px" y="0px"
	 viewBox="0 0 48 48" enable-background="new 0 0 48 48" xml:space="preserve">
<g>
	<path fill="#CFD0D1" d="M46.1,44.5H1.9c-0.8,0-1.4,0.7-1.4,1.5c0,0.8,0.6,1.5,1.4,1.5h44.1c0.8,0,1.4-0.7,1.4-1.5
		C47.5,45.2,46.9,44.5,46.1,44.5z"/>
	<path fill="#06728D" d="M2.7,42.1h4c0.8,0,1.4-0.7,1.4-1.5c0-0.8-0.6-1.5-1.4-1.5h-4c-0.8,0-1.4,0.7-1.4,1.5
		C1.3,41.4,1.9,42.1,2.7,42.1z"/>
	<path fill="#E77528" d="M15.5,42h4c0.8,0,1.4-0.7,1.4-1.5c0-0.8-0.6-1.5-1.4-1.5h-4c-0.8,0-1.4,0.7-1.4,1.5
		C14.1,41.4,14.7,42,15.5,42z"/>
	<path fill="#0DB89A" d="M28.3,41.9h4c0.8,0,1.4-0.7,1.4-1.5S33.1,39,32.3,39h-4c-0.8,0-1.4,0.7-1.4,1.5S27.5,41.9,28.3,41.9z"/>
	<path fill="#F04B36" d="M41.1,41.9h4c0.8,0,1.4-0.7,1.4-1.5s-0.6-1.5-1.4-1.5h-4c-0.8,0-1.4,0.7-1.4,1.5S40.3,41.9,41.1,41.9z"/>
	<path fill="#E77528" d="M15.5,34.3h4c0.8,0,1.4-0.7,1.4-1.5c0-0.8-0.6-1.5-1.4-1.5h-4c-0.8,0-1.4,0.7-1.4,1.5
		C14.1,33.7,14.7,34.3,15.5,34.3z"/>
	<path fill="#E77528" d="M15.5,26.7h4c0.8,0,1.4-0.7,1.4-1.5c0-0.8-0.6-1.5-1.4-1.5h-4c-0.8,0-1.4,0.7-1.4,1.5
		C14.1,26,14.7,26.7,15.5,26.7z"/>
	<path fill="#E77528" d="M15.5,19h4c0.8,0,1.4-0.7,1.4-1.5S20.3,16,19.5,16h-4c-0.8,0-1.4,0.7-1.4,1.5S14.7,19,15.5,19z"/>
	<path fill="#E77528" d="M15.5,11.3h4c0.8,0,1.4-0.7,1.4-1.5c0-0.8-0.6-1.5-1.4-1.5h-4c-0.8,0-1.4,0.7-1.4,1.5
		C14.1,10.7,14.7,11.3,15.5,11.3z"/>
	<path fill="#0DB89A" d="M28.3,34.3h4c0.8,0,1.4-0.7,1.4-1.5c0-0.8-0.6-1.5-1.4-1.5h-4c-0.8,0-1.4,0.7-1.4,1.5
		C26.9,33.6,27.5,34.3,28.3,34.3z"/>
	<path fill="#F04B36" d="M41.1,34.2h4c0.8,0,1.4-0.7,1.4-1.5c0-0.8-0.6-1.5-1.4-1.5h-4c-0.8,0-1.4,0.7-1.4,1.5
		C39.6,33.5,40.3,34.2,41.1,34.2z"/>
	<path fill="#0DB89A" d="M28.3,26.6h4c0.8,0,1.4-0.7,1.4-1.5c0-0.8-0.6-1.5-1.4-1.5h-4c-0.8,0-1.4,0.7-1.4,1.5
		C26.9,25.9,27.5,26.6,28.3,26.6z"/>
	<path fill="#F04B36" d="M41.1,26.5h4c0.8,0,1.4-0.7,1.4-1.5c0-0.8-0.6-1.5-1.4-1.5h-4c-0.8,0-1.4,0.7-1.4,1.5
		C39.6,25.8,40.3,26.5,41.1,26.5z"/>
	<path fill="#0DB89A" d="M28.3,18.9h4c0.8,0,1.4-0.7,1.4-1.5c0-0.8-0.6-1.5-1.4-1.5h-4c-0.8,0-1.4,0.7-1.4,1.5
		C26.9,18.2,27.5,18.9,28.3,18.9z"/>
	<path fill="#F04B36" d="M41.1,18.8h4c0.8,0,1.4-0.7,1.4-1.5c0-0.8-0.6-1.5-1.4-1.5h-4c-0.8,0-1.4,0.7-1.4,1.5
		C39.6,18.2,40.3,18.8,41.1,18.8z"/>
	<path fill="#F04B36" d="M41.1,11.1h4c0.8,0,1.4-0.7,1.4-1.5c0-0.8-0.6-1.5-1.4-1.5h-4c-0.8,0-1.4,0.7-1.4,1.5
		C39.6,10.5,40.3,11.1,41.1,11.1z"/>
	<path fill="#F04B36" d="M41.1,3.5h4c0.8,0,1.4-0.7,1.4-1.5c0-0.8-0.6-1.5-1.4-1.5h-4c-0.8,0-1.4,0.7-1.4,1.5
		C39.6,2.8,40.3,3.5,41.1,3.5z"/>
</g>
</svg>
