<?xml version="1.0" encoding="utf-8"?>
<!-- Generator: Adobe Illustrator 18.0.0, SVG Export Plug-In . SVG Version: 6.00 Build 0)  -->
<!DOCTYPE svg PUBLIC "-//W3C//DTD SVG 1.1//EN" "http://www.w3.org/Graphics/SVG/1.1/DTD/svg11.dtd">
<svg version="1.1" id="Layer_1" xmlns="http://www.w3.org/2000/svg" xmlns:xlink="http://www.w3.org/1999/xlink" x="0px" y="0px"
	 viewBox="0 0 48 48" enable-background="new 0 0 48 48" xml:space="preserve">
<g>
	<path fill="#4DA0D8" d="M1.9,23c-0.8,0-1.4,0.6-1.4,1.4v21.6c0,0.8,0.6,1.4,1.4,1.4c0.8,0,1.4-0.6,1.4-1.4V24.5
		C3.4,23.7,2.7,23,1.9,23z"/>
	<path fill="#0DB89A" d="M8.2,20.7c-0.8,0-1.4,0.6-1.4,1.4v23.9c0,0.8,0.6,1.4,1.4,1.4c0.8,0,1.4-0.6,1.4-1.4V22.1
		C9.7,21.4,9,20.7,8.2,20.7z"/>
	<path fill="#294E58" d="M14.5,18.1c-0.8,0-1.4,0.6-1.4,1.4v26.5c0,0.8,0.6,1.4,1.4,1.4c0.8,0,1.4-0.6,1.4-1.4V19.6
		C16,18.8,15.3,18.1,14.5,18.1z"/>
	<path fill="#0DB89A" d="M20.8,15.3c-0.8,0-1.4,0.6-1.4,1.4v29.3c0,0.8,0.6,1.4,1.4,1.4c0.8,0,1.4-0.6,1.4-1.4V16.7
		C22.3,15.9,21.6,15.3,20.8,15.3z"/>
	<path fill="#E77528" d="M27.2,12.1c-0.8,0-1.4,0.6-1.4,1.4v32.5c0,0.8,0.6,1.4,1.4,1.4c0.8,0,1.4-0.6,1.4-1.4V13.6
		C28.6,12.8,27.9,12.1,27.2,12.1z"/>
	<path fill="#0DB89A" d="M33.5,8.6c-0.8,0-1.4,0.6-1.4,1.4v36c0,0.8,0.6,1.4,1.4,1.4c0.8,0,1.4-0.6,1.4-1.4v-36
		C34.9,9.3,34.2,8.6,33.5,8.6z"/>
	<path fill="#F04B36" d="M39.8,4.8c-0.8,0-1.4,0.6-1.4,1.4v39.8c0,0.8,0.6,1.4,1.4,1.4c0.8,0,1.4-0.6,1.4-1.4V6.2
		C41.2,5.4,40.6,4.8,39.8,4.8z"/>
	<path fill="#0DB89A" d="M46.1,0.5c-0.8,0-1.4,0.6-1.4,1.4v44.1c0,0.8,0.6,1.4,1.4,1.4c0.8,0,1.4-0.6,1.4-1.4V1.9
		C47.5,1.1,46.9,0.5,46.1,0.5z"/>
</g>
</svg>
