<?xml version="1.0" encoding="utf-8"?>
<!-- Generator: Adobe Illustrator 18.0.0, SVG Export Plug-In . SVG Version: 6.00 Build 0)  -->
<!DOCTYPE svg PUBLIC "-//W3C//DTD SVG 1.1//EN" "http://www.w3.org/Graphics/SVG/1.1/DTD/svg11.dtd">
<svg version="1.1" id="Layer_1" xmlns="http://www.w3.org/2000/svg" xmlns:xlink="http://www.w3.org/1999/xlink" x="0px" y="0px"
	 viewBox="0 0 48 48" enable-background="new 0 0 48 48" xml:space="preserve">
<g>
	<path fill="#F04B36" d="M38.2,7.6l4,3.4c0,0,0,0.1,0.1,0.1l4.6-2.2c0.4-0.1,0.7-0.5,0.7-0.9V1.5c0-0.3-0.2-0.6-0.4-0.8
		c-0.3-0.2-0.6-0.2-0.9-0.1l-45,15.2c-0.4,0.1-0.7,0.5-0.7,0.9v6.5v8.7h47v-8.7c0-0.5-0.4-1-1-1h-4.9c0,0.1,0,0.1,0,0.2l-2,4
		C39.4,26.8,39,27,38.7,27c-0.1,0-0.3,0-0.4-0.1c-0.5-0.2-0.7-0.8-0.5-1.3l1.6-3.3h-7.7c0,0.1,0,0.1,0,0.2l-2,4
		c-0.2,0.3-0.5,0.5-0.9,0.5c-0.1,0-0.3,0-0.4-0.1c-0.5-0.2-0.7-0.8-0.5-1.3l1.6-3.3H22c0,0.1,0,0.1,0,0.2l-2,4
		c-0.2,0.3-0.5,0.5-0.9,0.5c-0.1,0-0.3,0-0.4-0.1c-0.5-0.2-0.7-0.8-0.5-1.3l1.6-3.3h-7.7c0,0.1,0,0.1,0,0.2l-2,4
		C10,26.8,9.7,27,9.3,27c-0.1,0-0.3,0-0.4-0.1c-0.5-0.2-0.7-0.8-0.5-1.3l1.6-3.3H7.4l2.8-0.3l-3.3-2.8c-0.4-0.3-0.5-1-0.1-1.4
		c0.3-0.4,1-0.5,1.4-0.1l4,3.4c0.1,0,0.1,0.1,0.1,0.2l7.9-2.7l-3.3-2.8c-0.4-0.3-0.5-1-0.1-1.4c0.3-0.4,1-0.5,1.4-0.1l4,3.4
		c0,0,0.1,0.1,0.1,0.1l7.8-2.7l-3.3-2.8c-0.4-0.3-0.5-1-0.1-1.4c0.3-0.4,1-0.5,1.4-0.1l4,3.4c0,0,0.1,0.1,0.1,0.1l7.8-2.7l-3.2-2.7
		c-0.4-0.3-0.5-1-0.1-1.4C37.1,7.3,37.7,7.3,38.2,7.6z"/>
	<polygon fill="#F7A93B" points="23.5,34.7 23.5,33.9 0.5,33.9 0.5,40.7 23.5,40.7 	"/>
	<path fill="#F7A93B" d="M25.5,34.7v6.2v0.6h0c0,0,0,0.1,0,0.1c0,0.5-0.5,1-1.1,1H0.5v3.9c0,0.5,0.4,1,1,1h45c0.5,0,1-0.4,1-1V33.9
		h-22V34.7z"/>
</g>
</svg>
