<?xml version="1.0" encoding="utf-8"?>
<!-- Generator: Adobe Illustrator 18.0.0, SVG Export Plug-In . SVG Version: 6.00 Build 0)  -->
<!DOCTYPE svg PUBLIC "-//W3C//DTD SVG 1.1//EN" "http://www.w3.org/Graphics/SVG/1.1/DTD/svg11.dtd">
<svg version="1.1" id="Layer_1" xmlns="http://www.w3.org/2000/svg" xmlns:xlink="http://www.w3.org/1999/xlink" x="0px" y="0px"
	 viewBox="0 0 48 48" enable-background="new 0 0 48 48" xml:space="preserve">
<g>
	<path fill="#0DB89A" d="M40.2,30.3c-0.7-3.8-3.8-7.1-6.4-8.1c-1.4-0.5-3.7-0.6-5.8,0c-0.2-0.5-0.3-0.9-0.5-1.4
		c-0.6-1.5-1.1-3.1-1.6-4.6c1.1-1.9,2.1-3.8,2.8-5.8c0.4-0.9,2-5.7,0-8.2c-1-1.3-2.4-1.8-3.8-1.5c-1.7,0.4-3.2,2.1-3.4,3.9
		c-0.6,3.8,0.1,7.6,1.2,11.2c-0.2,0.3-0.4,0.7-0.6,1l-0.4,0.7c-0.8,1.4-1.9,2.6-3,3.9c-0.6,0.7-1.1,1.3-1.7,2
		c-2.1,2.7-3.1,5.6-2.7,8.4c0.3,2.7,1.8,5.1,4.3,7c2.9,2.3,4.9,2.4,7.8,2.5l0.9,0.1c0.3,0,0.5,0,0.8,0c-0.1,0.5-0.3,0.9-0.6,1.3
		c-0.9,1.1-2.4,1.8-3.9,1.8c-0.8,0-1.4,0.7-1.4,1.5c0,0.8,0.7,1.4,1.4,1.4c0,0,0,0,0,0c2.4-0.1,4.7-1.2,6.1-2.9
		c0.8-1,1.2-2.1,1.4-3.3c2.1-0.3,4-1.2,6.1-3C40.3,35.5,40.5,32.4,40.2,30.3z M24.3,5c0.1-0.6,0.7-1.4,1.3-1.6c0,0,0.1,0,0.1,0
		c0.1,0,0.4,0.1,0.6,0.4c0.7,0.9,0.3,3.5-0.5,5.5c-0.4,0.9-0.8,1.9-1.3,2.8C24.2,9.7,24,7.3,24.3,5z M27.4,38.6l-0.9-0.1
		c-2.7-0.2-4-0.2-6.2-1.9c-1.8-1.4-2.9-3.2-3.2-5.1c-0.2-2,0.5-4.2,2.1-6.3c0.5-0.6,1.1-1.3,1.6-1.9c1.1-1.2,2.1-2.5,3-3.9
		c0.3,0.8,0.6,1.6,0.8,2.3c0.2,0.5,0.4,1,0.6,1.5c-0.5,0.3-1,0.7-1.4,1.2c-1.1,1.4-1,3.1,0.2,4.7c0.5,0.6,1.4,0.8,2,0.3
		c0.6-0.5,0.8-1.4,0.3-2c-0.6-0.8-0.3-1-0.2-1.2c0,0,0,0,0.1-0.1c0.8,2.6,1.3,5.4,1.7,9.2c0,0.3,0.1,0.7,0.1,1.1
		c0.1,0.7,0.2,1.5,0.2,2.2C28,38.6,27.7,38.6,27.4,38.6z M35.2,36.1c-1.4,1.3-2.7,1.9-4.1,2.2c0-0.8-0.1-1.5-0.2-2.3
		c0-0.4-0.1-0.7-0.1-1c-0.3-2.9-0.7-6.4-1.9-10.2c1.4-0.3,2.9-0.3,3.8,0c1.6,0.6,4.1,3,4.6,5.9C37.7,32.8,37,34.6,35.2,36.1z"/>
	<path fill="#F04B36" d="M9.1,4.3h7.2c0.8,0,1.4-0.6,1.4-1.4c0-0.8-0.6-1.4-1.4-1.4H9.1C8.3,1.4,7.7,2,7.7,2.8
		C7.7,3.6,8.3,4.3,9.1,4.3z"/>
	<path fill="#F04B36" d="M9.1,11.5h7.2c0.8,0,1.4-0.6,1.4-1.4c0-0.8-0.6-1.4-1.4-1.4H9.1c-0.8,0-1.4,0.6-1.4,1.4
		C7.7,10.8,8.3,11.5,9.1,11.5z"/>
	<path fill="#F04B36" d="M17.8,17.2c0-0.8-0.6-1.4-1.4-1.4H9.1c-0.8,0-1.4,0.6-1.4,1.4c0,0.8,0.6,1.4,1.4,1.4h7.2
		C17.1,18.7,17.8,18,17.8,17.2z"/>
</g>
</svg>
