<?xml version="1.0" encoding="utf-8"?>
<!-- Generator: Adobe Illustrator 18.0.0, SVG Export Plug-In . SVG Version: 6.00 Build 0)  -->
<!DOCTYPE svg PUBLIC "-//W3C//DTD SVG 1.1//EN" "http://www.w3.org/Graphics/SVG/1.1/DTD/svg11.dtd">
<svg version="1.1" id="Layer_1" xmlns="http://www.w3.org/2000/svg" xmlns:xlink="http://www.w3.org/1999/xlink" x="0px" y="0px"
	 viewBox="0 0 48 48" enable-background="new 0 0 48 48" xml:space="preserve">
<g>
	<path fill="#F04B36" d="M35.9,6.7c-2.6-3.1-8.4-6.4-12.4-6.2c0,0,0,0,0,0c0,0-0.1,0-0.1,0C22.6,0.5,22,1.2,22,2v33.8
		c-1-0.5-2.3-0.8-3.7-0.8c-1.5,0-3.1,0.3-4.6,0.9c-2.2,0.8-4.1,2.1-5.3,3.6c-1.4,1.7-1.8,3.4-1.2,4.9c0.7,2,2.9,3.1,5.9,3.1h0
		c1.5,0,3.1-0.3,4.6-0.9c3.8-1.4,6.3-4,6.7-6.5c0.3-0.3,0.6-0.7,0.6-1.1V3.5c3,0.4,7,2.9,8.9,5.1c2.5,2.9,4.2,7,4.6,11
		c0.1,0.8,0.7,1.3,1.4,1.3c0,0,0.1,0,0.1,0c0.8-0.1,1.4-0.8,1.3-1.6C40.7,14.7,38.8,10,35.9,6.7z"/>
	<path fill="#0DB89A" d="M9.3,7.6h8.1c0.8,0,1.5-0.7,1.5-1.5s-0.7-1.5-1.5-1.5H9.3c-0.8,0-1.5,0.7-1.5,1.5S8.5,7.6,9.3,7.6z"/>
	<path fill="#0DB89A" d="M9.3,16h8.1c0.8,0,1.5-0.7,1.5-1.5c0-0.8-0.7-1.5-1.5-1.5H9.3c-0.8,0-1.5,0.7-1.5,1.5
		C7.9,15.3,8.5,16,9.3,16z"/>
	<path fill="#0DB89A" d="M9.3,24.4h8.1c0.8,0,1.5-0.7,1.5-1.5c0-0.8-0.7-1.5-1.5-1.5H9.3c-0.8,0-1.5,0.7-1.5,1.5
		C7.9,23.7,8.5,24.4,9.3,24.4z"/>
</g>
</svg>
