<?xml version="1.0" encoding="utf-8"?>
<!-- Generator: Adobe Illustrator 18.0.0, SVG Export Plug-In . SVG Version: 6.00 Build 0)  -->
<!DOCTYPE svg PUBLIC "-//W3C//DTD SVG 1.1//EN" "http://www.w3.org/Graphics/SVG/1.1/DTD/svg11.dtd">
<svg version="1.1" id="Layer_1" xmlns="http://www.w3.org/2000/svg" xmlns:xlink="http://www.w3.org/1999/xlink" x="0px" y="0px"
	 viewBox="0 0 48 48" enable-background="new 0 0 48 48" xml:space="preserve">
<g>
	<path fill="#F04B36" d="M1.9,0.5c-0.8,0-1.4,0.8-1.4,1.8v43.3c0,1,0.6,1.8,1.4,1.8c0.8,0,1.4-0.8,1.4-1.8V2.3
		C3.4,1.3,2.7,0.5,1.9,0.5z"/>
	<path fill="#CFD0D1" d="M9.3,0.5c-0.8,0-1.4,0.8-1.4,1.8v27c0,1,0.6,1.8,1.4,1.8s1.4-0.8,1.4-1.8v-27C10.7,1.3,10.1,0.5,9.3,0.5z"
		/>
	<path fill="#CFD0D1" d="M16.6,0.5c-0.8,0-1.4,0.8-1.4,1.8v43.3c0,1,0.6,1.8,1.4,1.8c0.8,0,1.4-0.8,1.4-1.8V2.3
		C18.1,1.3,17.4,0.5,16.6,0.5z"/>
	<path fill="#4DA0D8" d="M24,0.5c-0.8,0-1.4,0.8-1.4,1.8v27c0,1,0.6,1.8,1.4,1.8s1.4-0.8,1.4-1.8v-27C25.4,1.3,24.8,0.5,24,0.5z"/>
	<path fill="#CFD0D1" d="M31.4,0.5c-0.8,0-1.4,0.8-1.4,1.8v43.3c0,1,0.6,1.8,1.4,1.8c0.8,0,1.4-0.8,1.4-1.8V2.3
		C32.8,1.3,32.1,0.5,31.4,0.5z"/>
	<path fill="#CFD0D1" d="M38.7,0.5c-0.8,0-1.4,0.8-1.4,1.8v27c0,1,0.6,1.8,1.4,1.8s1.4-0.8,1.4-1.8v-27C40.1,1.3,39.5,0.5,38.7,0.5z
		"/>
	<path fill="#E77528" d="M46.1,0.5c-0.8,0-1.4,0.8-1.4,1.8v43.3c0,1,0.6,1.8,1.4,1.8c0.8,0,1.4-0.8,1.4-1.8V2.3
		C47.5,1.3,46.9,0.5,46.1,0.5z"/>
</g>
</svg>
