<?xml version="1.0" encoding="utf-8"?>
<!-- Generator: Adobe Illustrator 18.0.0, SVG Export Plug-In . SVG Version: 6.00 Build 0)  -->
<!DOCTYPE svg PUBLIC "-//W3C//DTD SVG 1.1//EN" "http://www.w3.org/Graphics/SVG/1.1/DTD/svg11.dtd">
<svg version="1.1" id="Layer_1" xmlns="http://www.w3.org/2000/svg" xmlns:xlink="http://www.w3.org/1999/xlink" x="0px" y="0px"
	 viewBox="0 0 48 48" enable-background="new 0 0 48 48" xml:space="preserve">
<g>
	<path fill="#F04B36" d="M30.6,30.6c-0.3-0.2-0.7-0.4-1.2-0.5c-0.5-0.1-1.1-0.2-1.9-0.2h-2v8.7h2c0.7,0,1.3,0,1.7-0.1
		c0.5-0.1,0.9-0.3,1.3-0.6c0.5-0.4,1-0.9,1.3-1.5c0.3-0.6,0.5-1.3,0.5-2.1c0-0.8-0.2-1.6-0.5-2.2C31.6,31.4,31.1,30.9,30.6,30.6z
		 M30.8,35.9c-0.2,0.5-0.5,0.8-0.9,1.1c-0.3,0.2-0.7,0.4-1.1,0.5c-0.4,0.1-0.8,0.1-1.3,0.1h-0.9v-6.7h0.9c0.5,0,1,0,1.3,0.1
		c0.3,0.1,0.7,0.2,1,0.4c0.4,0.3,0.8,0.6,1,1.1c0.2,0.5,0.3,1,0.3,1.7C31.1,34.9,31,35.4,30.8,35.9z"/>
	<polygon fill="#F04B36" points="36.3,37.1 33.9,29.9 32.7,29.9 35.6,38.5 36.9,38.5 39.8,29.9 38.7,29.9 	"/>
	<path fill="#CFD0D1" d="M23.5,40.6V27.8h4c1,0,1.8,0.1,2.4,0.2l-0.1-0.2h5.5l0.9,2.8l0.9-2.8h1.4h0c0,0,0-0.1,0.1-0.1
		c0.6-3.2,0.4-6.5-0.6-9.6c-2.6-8-10-13.4-18.4-13.4c-2,0-4,0.3-5.9,0.9C9,7.2,5,10.6,2.6,15.2C0.3,19.8-0.1,25,1.4,29.9
		c2.6,8,10,13.4,18.4,13.4c2,0,4-0.3,5.9-0.9c0.6-0.2,1.2-0.4,1.7-0.7c0.1,0,0.1-0.1,0.2-0.1l0.8-1.1c-0.3,0-0.6,0-1,0H23.5z
		 M9.6,18.3c-1.6,3.1-1.9,6.6-0.8,9.9c0.2,0.5-0.1,1.1-0.7,1.3c-0.1,0-0.2,0-0.3,0c-0.4,0-0.8-0.3-1-0.7C5.6,25,5.9,20.9,7.8,17.4
		c1.8-3.6,4.9-6.2,8.7-7.4c0.5-0.2,1.1,0.1,1.3,0.7c0.2,0.5-0.1,1.1-0.7,1.3C13.8,13,11.2,15.2,9.6,18.3z M21,27.8
		c-0.4,0.1-0.8,0.2-1.2,0.2c-1.7,0-3.3-1.1-3.8-2.8c-0.7-2.1,0.5-4.3,2.6-5c0.4-0.1,0.8-0.2,1.2-0.2c1.7,0,3.3,1.1,3.8,2.8
		C24.3,24.9,23.1,27.1,21,27.8z"/>
	<path fill="#CFD0D1" d="M28.8,33.1C28.7,33.1,28.7,33.1,28.8,33.1l-0.1,2.2c0,0,0.1,0,0.1,0c0.1-0.1,0.1-0.1,0.2-0.2
		c0-0.1,0.1-0.4,0.1-0.9c0-0.5-0.1-0.7-0.1-0.8C28.9,33.2,28.8,33.2,28.8,33.1z"/>
	<path fill="#F04B36" d="M47,32c-0.3-0.6-0.7-1.1-1.3-1.5c-0.3-0.2-0.7-0.4-1.2-0.5c-0.5-0.1-1.1-0.2-1.9-0.2h-2v8.7h2
		c0.7,0,1.3,0,1.7-0.1c0.5-0.1,0.9-0.3,1.3-0.6c0.5-0.4,1-0.9,1.3-1.5c0.3-0.6,0.5-1.3,0.5-2.1C47.5,33.4,47.3,32.6,47,32z M46,35.9
		c-0.2,0.5-0.5,0.8-0.9,1.1c-0.3,0.2-0.7,0.4-1.1,0.5c-0.4,0.1-0.8,0.1-1.3,0.1h-0.9v-6.7h0.9c0.5,0,1,0,1.3,0.1
		c0.3,0.1,0.7,0.2,1,0.4c0.4,0.3,0.8,0.6,1,1.1c0.2,0.5,0.3,1,0.3,1.7C46.3,34.9,46.2,35.4,46,35.9z"/>
</g>
</svg>
