<?xml version="1.0" encoding="utf-8"?>
<!-- Generator: Adobe Illustrator 18.0.0, SVG Export Plug-In . SVG Version: 6.00 Build 0)  -->
<!DOCTYPE svg PUBLIC "-//W3C//DTD SVG 1.1//EN" "http://www.w3.org/Graphics/SVG/1.1/DTD/svg11.dtd">
<svg version="1.1" id="Layer_1" xmlns="http://www.w3.org/2000/svg" xmlns:xlink="http://www.w3.org/1999/xlink" x="0px" y="0px"
	 viewBox="0 0 48 48" enable-background="new 0 0 48 48" xml:space="preserve">
<g>
	<path fill="#F7A93B" d="M46.1,2.9H16.4c-0.8,0-1.4,0.6-1.4,1.4v30c-0.9-0.4-2-0.6-3.2-0.6c-1.3,0-2.8,0.3-4.2,0.8
		c-4.3,1.6-6.9,5-5.9,7.8c0.7,1.8,2.7,2.8,5.4,2.8c1.3,0,2.8-0.3,4.2-0.8c3.3-1.2,5.6-3.6,6.1-5.8c0.3-0.3,0.6-0.7,0.6-1.1V17.7
		h26.8v7.8c-0.9-0.4-2-0.6-3.2-0.6c-1.3,0-2.8,0.3-4.2,0.8c-2,0.7-3.7,1.9-4.8,3.2c-1.2,1.5-1.6,3.1-1.1,4.5
		c0.7,1.8,2.7,2.8,5.4,2.8c1.3,0,2.8-0.3,4.2-0.8c3.2-1.2,5.5-3.4,6-5.5c0.4-0.3,0.6-0.7,0.6-1.2V4.3C47.5,3.5,46.9,2.9,46.1,2.9z"
		/>
	<path fill="#E77528" d="M1.9,11H9c0.8,0,1.4-0.6,1.4-1.4c0-0.8-0.6-1.4-1.4-1.4H1.9c-0.8,0-1.4,0.6-1.4,1.4C0.5,10.4,1.1,11,1.9,11
		z"/>
	<path fill="#E77528" d="M1.9,18.2H9c0.8,0,1.4-0.6,1.4-1.4c0-0.8-0.6-1.4-1.4-1.4H1.9c-0.8,0-1.4,0.6-1.4,1.4
		C0.5,17.5,1.1,18.2,1.9,18.2z"/>
	<path fill="#E77528" d="M9,25.3c0.8,0,1.4-0.6,1.4-1.4S9.8,22.4,9,22.4H1.9c-0.8,0-1.4,0.6-1.4,1.4s0.6,1.4,1.4,1.4H9z"/>
</g>
</svg>
