<?xml version="1.0" encoding="utf-8"?>
<!-- Generator: Adobe Illustrator 18.0.0, SVG Export Plug-In . SVG Version: 6.00 Build 0)  -->
<!DOCTYPE svg PUBLIC "-//W3C//DTD SVG 1.1//EN" "http://www.w3.org/Graphics/SVG/1.1/DTD/svg11.dtd">
<svg version="1.1" id="Layer_1" xmlns="http://www.w3.org/2000/svg" xmlns:xlink="http://www.w3.org/1999/xlink" x="0px" y="0px"
	 viewBox="0 0 48 48" enable-background="new 0 0 48 48" xml:space="preserve">
<g>
	<path fill="#F04B36" d="M46,2.4H15.7c-0.8,0-1.5,0.7-1.5,1.5v30.7c-0.9-0.4-2-0.7-3.3-0.7c-1.4,0-2.8,0.3-4.3,0.8
		c-4.4,1.6-7.1,5.1-6,7.9c0.7,1.8,2.7,2.9,5.5,2.9c1.4,0,2.8-0.3,4.3-0.8c3.4-1.3,5.8-3.6,6.2-6c0.3-0.3,0.6-0.7,0.6-1.1V17.5h27.4
		v8c-0.9-0.4-2-0.7-3.3-0.7c-1.4,0-2.8,0.3-4.3,0.8c-4.4,1.6-7.1,5.1-6,7.9c0.7,1.8,2.7,2.9,5.5,2.9c1.4,0,2.8-0.3,4.3-0.8
		c3.3-1.2,5.6-3.5,6.1-5.7c0.4-0.3,0.6-0.7,0.6-1.2v-25C47.5,3.1,46.8,2.4,46,2.4z"/>
</g>
</svg>
