<?xml version="1.0" encoding="utf-8"?>
<!-- Generator: Adobe Illustrator 18.0.0, SVG Export Plug-In . SVG Version: 6.00 Build 0)  -->
<!DOCTYPE svg PUBLIC "-//W3C//DTD SVG 1.1//EN" "http://www.w3.org/Graphics/SVG/1.1/DTD/svg11.dtd">
<svg version="1.1" id="Layer_1" xmlns="http://www.w3.org/2000/svg" xmlns:xlink="http://www.w3.org/1999/xlink" x="0px" y="0px"
	 viewBox="0 0 48 48" enable-background="new 0 0 48 48" xml:space="preserve">
<g>
	<path fill="#4DA0D8" d="M40.9,19.7c0-0.1,0-0.2,0-0.4c-0.1-1.3-0.4-2.6-0.8-3.9C36.3-1.7,23.3,0.6,23.3,0.6c0,0-0.1,0-0.1,0
		c-0.8,0-1.5,0.6-1.5,1.5v33.7c-1-0.5-2.3-0.8-3.7-0.8c-1.5,0-3.1,0.3-4.6,0.9c-2.2,0.8-4.1,2.1-5.3,3.6c-1.4,1.7-1.8,3.4-1.2,4.9
		c0.7,1.9,2.9,3.1,5.9,3.1h0c1.5,0,3.1-0.3,4.6-0.9c3.8-1.4,6.3-4,6.7-6.5c0.3-0.3,0.6-0.7,0.6-1.1V18.7c3,0.4,7,2.9,8.8,5
		c2.5,2.9,4.2,7,4.5,11c0.1,0.7,0.7,1.3,1.4,1.3c0,0,0.1,0,0.1,0c0.8-0.1,1.4-0.8,1.3-1.6C41.5,28.6,41.4,23.7,40.9,19.7z"/>
</g>
</svg>
