<?xml version="1.0" encoding="utf-8"?>
<!-- Generator: Adobe Illustrator 18.0.0, SVG Export Plug-In . SVG Version: 6.00 Build 0)  -->
<!DOCTYPE svg PUBLIC "-//W3C//DTD SVG 1.1//EN" "http://www.w3.org/Graphics/SVG/1.1/DTD/svg11.dtd">
<svg version="1.1" id="Layer_1" xmlns="http://www.w3.org/2000/svg" xmlns:xlink="http://www.w3.org/1999/xlink" x="0px" y="0px"
	 viewBox="0 0 48 48" enable-background="new 0 0 48 48" xml:space="preserve">
<g>
	<path fill="#F7A93B" d="M46.4,16.8c-0.8-2.6-2.1-4.9-3.6-7v11.4c0,0.5-0.4,0.9-0.9,1l-4.7,0.7c0,0-0.1,0-0.1,0
		c-0.5,0-0.9-0.4-1-0.9c-0.1-0.5,0.3-1.1,0.8-1.1l3.8-0.5V7.5c-4.3-4.4-10.3-7-16.7-7c-2.4,0-4.9,0.4-7.2,1.1
		C10.8,3.6,6,7.7,3.1,13.3c-2.9,5.6-3.4,11.9-1.5,17.9C4.8,41,13.8,47.5,24,47.5h0c2.4,0,4.9-0.4,7.2-1.1c6-1.9,10.8-6.1,13.7-11.6
		C47.8,29.1,48.3,22.8,46.4,16.8z M9.7,16.7c-2,3.8-2.3,8.2-1,12.3c0.2,0.5-0.1,1.1-0.6,1.3c-0.1,0-0.2,0-0.3,0
		c-0.4,0-0.8-0.3-1-0.7C5.3,24.9,5.7,20,7.9,15.8c2.2-4.3,5.9-7.5,10.5-9c0.5-0.2,1.1,0.1,1.3,0.6c0.2,0.5-0.1,1.1-0.6,1.3
		C15,10,11.7,12.8,9.7,16.7z M25.5,28.8C25,28.9,24.5,29,24,29c-2.2,0-4.1-1.4-4.8-3.5c-0.4-1.3-0.3-2.6,0.3-3.8
		c0.6-1.2,1.6-2.1,2.9-2.5c0.5-0.2,1-0.2,1.5-0.2c2.2,0,4.1,1.4,4.8,3.5C29.6,25.1,28.2,27.9,25.5,28.8z"/>
	<path fill="#E77528" d="M42.7,2.6c0-0.6-0.4-1-1-1s-1,0.4-1,1v5c0.7,0.7,1.4,1.5,2,2.3V2.6z"/>
</g>
</svg>
