<?xml version="1.0" encoding="utf-8"?>
<!-- Generator: Adobe Illustrator 18.0.0, SVG Export Plug-In . SVG Version: 6.00 Build 0)  -->
<!DOCTYPE svg PUBLIC "-//W3C//DTD SVG 1.1//EN" "http://www.w3.org/Graphics/SVG/1.1/DTD/svg11.dtd">
<svg version="1.1" id="Layer_1" xmlns="http://www.w3.org/2000/svg" xmlns:xlink="http://www.w3.org/1999/xlink" x="0px" y="0px"
	 viewBox="0 0 48 48" enable-background="new 0 0 48 48" xml:space="preserve">
<g>
	<path fill="#CFD0D1" d="M24,0.5C11,0.5,0.5,11,0.5,24C0.5,37,11,47.5,24,47.5S47.5,37,47.5,24C47.5,11,37,0.5,24,0.5z M24.1,6.6
		c1.9,0,3.5,1.6,3.5,3.5c0,1.9-1.6,3.5-3.5,3.5s-3.5-1.6-3.5-3.5C20.6,8.2,22.2,6.6,24.1,6.6z M7.2,20c0-1.9,1.6-3.5,3.5-3.5
		s3.5,1.6,3.5,3.5c0,1.9-1.6,3.5-3.5,3.5S7.2,21.9,7.2,20z M16.1,39.3c-1.9,0-3.5-1.6-3.5-3.5c0-1.9,1.6-3.5,3.5-3.5
		c1.9,0,3.5,1.6,3.5,3.5C19.6,37.7,18.1,39.3,16.1,39.3z M24,27.8c-2.1,0-3.8-1.7-3.8-3.8c0-2.1,1.7-3.8,3.8-3.8
		c2.1,0,3.8,1.7,3.8,3.8C27.8,26.1,26.1,27.8,24,27.8z M34.8,37.6c-1.9,0-3.5-1.6-3.5-3.5c0-1.9,1.6-3.5,3.5-3.5
		c1.9,0,3.5,1.6,3.5,3.5C38.3,36,36.7,37.6,34.8,37.6z M37.3,23.2c-1.9,0-3.5-1.6-3.5-3.5s1.6-3.5,3.5-3.5c1.9,0,3.5,1.6,3.5,3.5
		S39.2,23.2,37.3,23.2z"/>
</g>
</svg>
