<?xml version="1.0" encoding="utf-8"?>
<!-- Generator: Adobe Illustrator 18.0.0, SVG Export Plug-In . SVG Version: 6.00 Build 0)  -->
<!DOCTYPE svg PUBLIC "-//W3C//DTD SVG 1.1//EN" "http://www.w3.org/Graphics/SVG/1.1/DTD/svg11.dtd">
<svg version="1.1" id="Layer_1" xmlns="http://www.w3.org/2000/svg" xmlns:xlink="http://www.w3.org/1999/xlink" x="0px" y="0px"
	 viewBox="0 0 48 48" enable-background="new 0 0 48 48" xml:space="preserve">
<g>
	<path fill="#06728D" d="M27.3,16.9c-0.3,0-0.6-0.2-0.8-0.5c-0.3-0.5-0.2-1.2,0.3-1.5l3.5-2.6c-3.7-0.8-7.9-1-10.9-1
		c-1.9,0-4.3,0.1-6.8,0.4l4.8,5.3c0.4,0.4,0.4,1.1,0,1.6c-0.2,0.2-0.4,0.3-0.7,0.3c-0.2,0-0.5-0.1-0.7-0.3L10.1,12
		c-5,0.8-9.6,2.4-9.6,5.3c0,4.8,12.3,6,18.9,6s18.9-1.3,18.9-6c0-2-2.2-3.4-5.3-4.3l-5.1,3.8C27.7,16.9,27.5,16.9,27.3,16.9z"/>
	<path fill="#E77528" d="M47.3,1C47,0.5,46.4,0.3,46,0.7L30.3,12.3c0.9,0.2,1.8,0.4,2.7,0.7L47.1,2.5C47.5,2.2,47.6,1.5,47.3,1z"/>
	<path fill="#E77528" d="M3.1,1.3c-0.4-0.4-1-0.4-1.4,0c-0.4,0.4-0.4,1.1,0,1.6l8.4,9.2c0.8-0.1,1.7-0.2,2.5-0.3L3.1,1.3z"/>
	<path fill="#F04B36" d="M37,39.1V22.3c-4.9,3-14.1,3.3-17.6,3.3c-3.5,0-12.7-0.3-17.6-3.3v16.8c-0.8,0.7-1.3,1.5-1.3,2.4
		c0,4.8,12.3,6,18.9,6s18.9-1.3,18.9-6C38.2,40.6,37.8,39.8,37,39.1z"/>
</g>
</svg>
