<?xml version="1.0" encoding="utf-8"?>
<!-- Generator: Adobe Illustrator 18.0.0, SVG Export Plug-In . SVG Version: 6.00 Build 0)  -->
<!DOCTYPE svg PUBLIC "-//W3C//DTD SVG 1.1//EN" "http://www.w3.org/Graphics/SVG/1.1/DTD/svg11.dtd">
<svg version="1.1" id="Layer_1" xmlns="http://www.w3.org/2000/svg" xmlns:xlink="http://www.w3.org/1999/xlink" x="0px" y="0px"
	 viewBox="0 0 48 48" enable-background="new 0 0 48 48" xml:space="preserve">
<g>
	<path fill="#4DA0D8" d="M25.4,11c-0.4,0-0.8,0-1,0.1v3.1c0.2,0.1,0.5,0.1,0.8,0.1c1.2,0,2-0.6,2-1.7C27.3,11.5,26.6,11,25.4,11z"/>
	<path fill="#4DA0D8" d="M36.4,0.5H11.6c-3.2,0-5.9,2.6-5.9,5.9V33c0,0.3,0.1,0.5,0.3,0.7l13,13.5c0.2,0.2,0.4,0.3,0.7,0.3h16.7
		c3.2,0,5.9-2.6,5.9-5.9V6.4C42.3,3.1,39.6,0.5,36.4,0.5z M20.8,45.4L7.6,32.2l8.6,0.2c2.7,0.1,4.8,2.3,4.8,5L20.8,45.4z M20.9,18.2
		l-0.2-3.5c-0.1-1.1-0.1-2.4-0.1-3.4h0c-0.3,0.9-0.6,1.9-1,3l-1.4,3.8h-0.8l-1.3-3.8c-0.4-1.1-0.7-2.1-0.9-3.1h0
		c0,1-0.1,2.3-0.2,3.5l-0.2,3.4h-1l0.6-7.9h1.3l1.4,3.8c0.3,1,0.6,1.8,0.8,2.7h0c0.2-0.8,0.5-1.7,0.8-2.7l1.4-3.8h1.3l0.5,7.9H20.9z
		 M27.7,14.2c-0.5,0.6-1.4,0.9-2.4,0.9c-0.3,0-0.6,0-0.8-0.1v3.2h-1v-7.8c0.5-0.1,1.1-0.2,2-0.2c1,0,1.7,0.2,2.2,0.7
		c0.4,0.4,0.7,1,0.7,1.7C28.3,13.2,28.1,13.8,27.7,14.2z M31.3,18.3c-0.9,0-1.6-0.3-2-0.5l0.3-0.8c0.3,0.2,1,0.5,1.7,0.5
		c1.3,0,1.7-0.8,1.7-1.5c0-1.1-1-1.5-2-1.5h-0.6v-0.8H31c0.8,0,1.7-0.4,1.7-1.3c0-0.6-0.4-1.2-1.3-1.2c-0.6,0-1.2,0.3-1.5,0.5
		L29.6,11c0.4-0.3,1.2-0.6,2-0.6c1.5,0,2.2,0.9,2.2,1.8c0,0.8-0.5,1.5-1.4,1.8v0c0.9,0.2,1.7,0.9,1.7,2
		C34.1,17.2,33.1,18.3,31.3,18.3z"/>
</g>
</svg>
