<?xml version="1.0" encoding="utf-8"?>
<!-- Generator: Adobe Illustrator 18.0.0, SVG Export Plug-In . SVG Version: 6.00 Build 0)  -->
<!DOCTYPE svg PUBLIC "-//W3C//DTD SVG 1.1//EN" "http://www.w3.org/Graphics/SVG/1.1/DTD/svg11.dtd">
<svg version="1.1" id="Layer_1" xmlns="http://www.w3.org/2000/svg" xmlns:xlink="http://www.w3.org/1999/xlink" x="0px" y="0px"
	 viewBox="0 0 48 48" enable-background="new 0 0 48 48" xml:space="preserve">
<g>
	<path fill="#CFD0D1" d="M23.3,24.4c-0.5,0-1,0.1-1.5,0.3C21,25,20.4,25.4,20,25.8c-0.3,0.3-0.4,0.6-0.3,0.8
		c0.1,0.2,0.5,0.4,1.3,0.4c0.5,0,1-0.1,1.5-0.3c0.7-0.3,1.4-0.7,1.7-1.1c0.3-0.3,0.4-0.6,0.3-0.8C24.5,24.6,24,24.4,23.3,24.4z"/>
	<path fill="#CFD0D1" d="M36.4,0.5H11.6c-3.2,0-5.9,2.6-5.9,5.9V33c0,0.3,0.1,0.5,0.3,0.7l13,13.5c0.2,0.2,0.4,0.3,0.7,0.3h16.7
		c3.2,0,5.9-2.6,5.9-5.9V6.4C42.3,3.1,39.6,0.5,36.4,0.5z M20.8,45.4L7.6,32.2l8.6,0.2c2.7,0.1,4.8,2.3,4.8,5L20.8,45.4z M31.3,18
		c1.3,1.5,2.2,3.6,2.4,5.7c0.1,0.5-0.3,1-0.9,1.1c0,0-0.1,0-0.1,0c-0.5,0-0.9-0.4-1-0.9c-0.2-1.7-0.9-3.4-1.9-4.6
		c-0.7-0.8-2.1-1.7-3.3-2v7.5c0,0,0,0,0,0.1c0,0.7-0.2,1.4-0.8,2.1c-0.6,0.7-1.5,1.4-2.6,1.7C22.5,28.9,21.7,29,21,29
		c-1.5,0-2.7-0.6-3.1-1.7c-0.3-0.9-0.1-1.8,0.6-2.7c0.6-0.7,1.5-1.4,2.6-1.7c0.7-0.3,1.5-0.4,2.2-0.4c0.5,0,0.9,0.1,1.3,0.2V8.5
		c0-0.5,0.4-1,1-1c0,0,0,0,0,0c0,0,0,0,0,0c2.1-0.1,4.7,1.6,5.7,2.8c1.3,1.5,2.2,3.6,2.4,5.7c0.1,0.5-0.3,1-0.9,1.1c0,0-0.1,0-0.1,0
		c-0.5,0-0.9-0.4-1-0.9c-0.2-1.7-0.9-3.4-1.9-4.6c-0.7-0.8-2.1-1.7-3.3-2v5.6C28.4,15.5,30.4,16.9,31.3,18z"/>
</g>
</svg>
