<?xml version="1.0" encoding="utf-8"?>
<!-- Generator: Adobe Illustrator 18.0.0, SVG Export Plug-In . SVG Version: 6.00 Build 0)  -->
<!DOCTYPE svg PUBLIC "-//W3C//DTD SVG 1.1//EN" "http://www.w3.org/Graphics/SVG/1.1/DTD/svg11.dtd">
<svg version="1.1" id="Layer_1" xmlns="http://www.w3.org/2000/svg" xmlns:xlink="http://www.w3.org/1999/xlink" x="0px" y="0px"
	 viewBox="0 0 48 48" enable-background="new 0 0 48 48" xml:space="preserve">
<g>
	<path fill="#0DB89A" d="M44.7,34.2c0-5.8-4.9-10.6-11-10.6c-6.1,0-11,4.7-11,10.6c0,3.1,1.4,5.9,3.7,7.8c-1.5,0.8-2.7,2-3.3,3.4
		c-0.3,0.8,0.1,1.6,0.9,1.9c0.2,0.1,0.4,0.1,0.6,0.1c0.6,0,1.2-0.4,1.4-0.9c0.4-0.9,1.3-1.7,2.5-2.2c0.3-0.1,0.5-0.3,0.7-0.6
		c1.4,0.6,3,1,4.6,1c1.6,0,3.2-0.4,4.6-1c0.2,0.2,0.4,0.4,0.7,0.5c1.2,0.5,2.1,1.3,2.5,2.2c0.2,0.6,0.8,0.9,1.4,0.9
		c0.2,0,0.4,0,0.6-0.1c0.8-0.3,1.2-1.1,0.9-1.9c-0.6-1.4-1.7-2.6-3.3-3.4C43.3,40.1,44.7,37.3,44.7,34.2z M33.7,28.2
		c3.5,0,6.3,2.7,6.3,6c0,3.3-2.8,6-6.3,6c-3.5,0-6.3-2.7-6.3-6C27.3,30.9,30.2,28.2,33.7,28.2z"/>
	<path fill="#F04B36" d="M10,41.1V10.6c0.9,0.4,1.8,0.7,2.6,0.7c0.8,0,1.4-0.2,1.8-0.6c0.4-0.4,0.6-1,0.6-1.7c0-1.6-1.3-3.8-3.3-5.6
		C9.8,1.6,7.6,0.5,5.9,0.5c-0.8,0-1.4,0.2-1.8,0.6C2.7,2.6,3.8,5.7,6.7,8.4c0.1,0.1,0.1,0.1,0.2,0.2V41c-2.9,0.4-5.4,2.1-6.3,4.4
		c-0.3,0.8,0.1,1.6,0.9,1.9c0.2,0.1,0.4,0.1,0.6,0.1c0.6,0,1.2-0.4,1.4-0.9c0.7-1.6,2.7-2.7,5-2.7c2.3,0,4.3,1.1,5,2.7
		c0.3,0.8,1.2,1.1,2,0.8c0.8-0.3,1.2-1.1,0.9-1.9C15.4,43.2,12.9,41.5,10,41.1z"/>
	<path fill="#E77528" d="M29.5,17.4v-4.1c0-1.8-1.5-3.2-3.3-3.2h-6.1c-1.8,0-3.3,1.4-3.3,3.2v4.1c0,1.8,1.5,3.2,3.3,3.2h6.1
		C28,20.6,29.5,19.2,29.5,17.4z"/>
	<path fill="#E77528" d="M44.2,10.2h-6.1c-1.8,0-3.3,1.4-3.3,3.2v4.1c0,1.8,1.5,3.2,3.3,3.2h6.1c1.8,0,3.3-1.4,3.3-3.2v-4.1
		C47.5,11.6,46,10.2,44.2,10.2z"/>
</g>
</svg>
