<?xml version="1.0" encoding="utf-8"?>
<!-- Generator: Adobe Illustrator 18.0.0, SVG Export Plug-In . SVG Version: 6.00 Build 0)  -->
<!DOCTYPE svg PUBLIC "-//W3C//DTD SVG 1.1//EN" "http://www.w3.org/Graphics/SVG/1.1/DTD/svg11.dtd">
<svg version="1.1" id="Layer_1" xmlns="http://www.w3.org/2000/svg" xmlns:xlink="http://www.w3.org/1999/xlink" x="0px" y="0px"
	 viewBox="0 0 48 48" enable-background="new 0 0 48 48" xml:space="preserve">
<g>
	<path fill="#F04B36" d="M47.4,18.8L41.7,1.2c-0.2-0.5-0.7-0.8-1.2-0.6l-4.9,1.7C35.1,2.4,34.8,3,35,3.5l5.7,17.6
		c0.1,0.3,0.3,0.5,0.5,0.6c0.1,0.1,0.3,0.1,0.4,0.1c0.1,0,0.2,0,0.3-0.1l4.9-1.7C47.3,19.9,47.6,19.3,47.4,18.8z"/>
	<path fill="#F04B36" d="M20.4,40.7L3.9,33.3c-0.5-0.2-1.1,0-1.3,0.5l-2,4.9c-0.1,0.2-0.1,0.5,0,0.8c0.1,0.2,0.3,0.4,0.5,0.6
		l16.5,7.3c0.1,0.1,0.3,0.1,0.4,0.1c0.1,0,0.2,0,0.4-0.1c0.2-0.1,0.4-0.3,0.5-0.5l2-4.9C21.2,41.5,20.9,40.9,20.4,40.7z"/>
	<path fill="#4DA0D8" d="M20.6,34.4L7.3,27.7c-0.7-0.4-1.6-0.1-2,0.7c-0.4,0.8-0.1,1.7,0.7,2l13.3,6.7c0.2,0.1,0.4,0.2,0.6,0.2
		c0.5,0,1.1-0.3,1.3-0.9C21.6,35.6,21.3,34.7,20.6,34.4z"/>
	<path fill="#4DA0D8" d="M22.6,31.1l-12.3-8.4c-0.7-0.5-1.6-0.3-2,0.4c-0.4,0.7-0.3,1.6,0.4,2.1L21,33.7c0.3,0.2,0.5,0.3,0.8,0.3
		c0.5,0,0.9-0.2,1.2-0.7C23.5,32.5,23.3,31.6,22.6,31.1z"/>
	<path fill="#4DA0D8" d="M13.9,18.2c-0.6-0.6-1.5-0.5-2.1,0.1c-0.5,0.6-0.5,1.6,0.1,2.1l11.1,10c0.3,0.3,0.6,0.4,1,0.4
		c0.4,0,0.8-0.2,1.1-0.5c0.5-0.6,0.5-1.6-0.1-2.1L13.9,18.2z"/>
	<path fill="#4DA0D8" d="M18,14.2c-0.5-0.6-1.5-0.7-2.1-0.1c-0.6,0.6-0.7,1.5-0.1,2.1l9.8,11.4c0.3,0.3,0.7,0.5,1.1,0.5
		c0.3,0,0.7-0.1,1-0.4c0.6-0.6,0.7-1.5,0.1-2.1L18,14.2z"/>
	<path fill="#4DA0D8" d="M22.6,10.9c-0.5-0.7-1.4-0.9-2-0.4c-0.7,0.5-0.9,1.4-0.4,2.1l8.2,12.6c0.3,0.4,0.7,0.7,1.2,0.7
		c0.3,0,0.6-0.1,0.8-0.3c0.7-0.5,0.9-1.4,0.4-2.1L22.6,10.9z"/>
	<path fill="#4DA0D8" d="M27.5,8.1c-0.4-0.8-1.2-1.1-2-0.7c-0.7,0.4-1,1.3-0.7,2l6.6,13.6c0.3,0.5,0.8,0.8,1.3,0.8
		c0.2,0,0.4-0.1,0.7-0.2c0.7-0.4,1-1.3,0.7-2L27.5,8.1z"/>
	<path fill="#4DA0D8" d="M32.8,6.1c-0.3-0.8-1.1-1.2-1.9-0.9c-0.8,0.3-1.2,1.1-0.9,1.9l4.8,14.4c0.2,0.6,0.8,1,1.4,1
		c0.2,0,0.3,0,0.5-0.1c0.8-0.3,1.2-1.1,0.9-1.9L32.8,6.1z"/>
</g>
</svg>
