<?xml version="1.0" encoding="utf-8"?>
<!-- Generator: Adobe Illustrator 18.0.0, SVG Export Plug-In . SVG Version: 6.00 Build 0)  -->
<!DOCTYPE svg PUBLIC "-//W3C//DTD SVG 1.1//EN" "http://www.w3.org/Graphics/SVG/1.1/DTD/svg11.dtd">
<svg version="1.1" id="Layer_1" xmlns="http://www.w3.org/2000/svg" xmlns:xlink="http://www.w3.org/1999/xlink" x="0px" y="0px"
	 viewBox="0 0 48 48" enable-background="new 0 0 48 48" xml:space="preserve">
<g>
	<path fill="#0DB89A" d="M46.9,12.7c-1.7-7.3-6-12.7-9.9-12.1c-2,0.3-3.4,2-4.2,4.7c-0.7,2.6-0.6,5.9,0.2,9.4
		c1.6,6.9,5.6,12.2,9.4,12.2c0.2,0,0.4,0,0.6,0c2-0.3,3.4-2,4.2-4.7C47.7,19.5,47.6,16.1,46.9,12.7z"/>
	<path fill="#CFD0D1" d="M40.5,40.6h-3.2v-5.1c0-0.3-0.3-0.5-0.6-0.5H14.9c4.8-7.9,15.2-8.8,21.5-8.6c-2.9-2.6-5-7-6-11.4
		c-0.8-3.7-0.9-7.3-0.2-10.1c0.2-0.6,0.3-1.2,0.6-1.7C23.2,7.2,8.3,17.2,7.4,35H1.1c-0.4,0-0.6,0.2-0.6,0.5V47
		c0,0.3,0.3,0.5,0.6,0.5h35.5c0.4,0,0.6-0.2,0.6-0.5v-4.4h3.2c0.7,0,1.3-0.4,1.3-1S41.2,40.6,40.5,40.6z"/>
</g>
</svg>
