<?xml version="1.0" encoding="utf-8"?>
<!-- Generator: Adobe Illustrator 18.0.0, SVG Export Plug-In . SVG Version: 6.00 Build 0)  -->
<!DOCTYPE svg PUBLIC "-//W3C//DTD SVG 1.1//EN" "http://www.w3.org/Graphics/SVG/1.1/DTD/svg11.dtd">
<svg version="1.1" id="Layer_1" xmlns="http://www.w3.org/2000/svg" xmlns:xlink="http://www.w3.org/1999/xlink" x="0px" y="0px"
	 viewBox="0 0 48 48" enable-background="new 0 0 48 48" xml:space="preserve">
<g>
	<path fill="#E77528" d="M27.4,27.5c11-10.9,16.9-22.3,13.4-25.9c-1-1.1-2.7-1.4-5-0.8c-5.4,1.2-13.3,6.5-20.8,14
		C3.9,25.6-2,37,1.5,40.6c1,1.1,2.7,1.4,5,0.8C11.9,40.2,19.9,34.9,27.4,27.5z M19.5,19.4c3-3,6.2-4.7,7.2-3.7
		c0.9,0.9-0.8,4.2-3.8,7.2c-3,3-6.2,4.7-7.2,3.8C14.7,25.6,16.4,22.4,19.5,19.4z"/>
	<path fill="#F04B36" d="M46.6,8.4L44,5.3c-0.6,6.6-7.3,16.1-15.1,23.8c-7.9,7.8-16,13.2-21.9,14.5c-0.6,0.1-1.2,0.2-1.8,0.3
		l2.9,2.7c3.2,3.3,14.4-2.6,25.1-13.1C43.8,22.9,49.8,11.7,46.6,8.4z"/>
</g>
</svg>
