<?xml version="1.0" encoding="utf-8"?>
<!-- Generator: Adobe Illustrator 18.0.0, SVG Export Plug-In . SVG Version: 6.00 Build 0)  -->
<!DOCTYPE svg PUBLIC "-//W3C//DTD SVG 1.1//EN" "http://www.w3.org/Graphics/SVG/1.1/DTD/svg11.dtd">
<svg version="1.1" id="Layer_1" xmlns="http://www.w3.org/2000/svg" xmlns:xlink="http://www.w3.org/1999/xlink" x="0px" y="0px"
	 viewBox="0 0 48 48" enable-background="new 0 0 48 48" xml:space="preserve">
<g>
	<path fill="#06728D" d="M36,27.9c-0.3-0.1-0.6-0.2-0.9-0.2c-0.3-0.1-0.7-0.1-1-0.1c-0.7,0-1.4,0.1-2,0.4c-0.6,0.3-1.1,0.6-1.6,1.1
		c-0.4,0.5-0.8,1.1-1,1.8c-0.2,0.7-0.3,1.5-0.3,2.4c0,0.9,0.1,1.7,0.4,2.5c0.2,0.7,0.6,1.3,1,1.8c0.4,0.5,1,0.8,1.6,1.1
		c0.6,0.2,1.3,0.4,2,0.4c0.4,0,0.8,0,1.1-0.1c0.3-0.1,0.6-0.1,0.9-0.2c0.3-0.1,0.6-0.2,0.8-0.3c0.2-0.1,0.4-0.2,0.7-0.3v-1.7h-0.1
		c-0.1,0.1-0.3,0.3-0.5,0.4c-0.2,0.2-0.4,0.3-0.7,0.5c-0.3,0.2-0.6,0.3-1,0.4c-0.4,0.1-0.8,0.2-1.2,0.2c-0.5,0-0.9-0.1-1.3-0.3
		c-0.4-0.2-0.8-0.5-1.1-0.8c-0.3-0.4-0.6-0.8-0.7-1.4c-0.2-0.5-0.3-1.2-0.3-1.9c0-0.7,0.1-1.3,0.3-1.9c0.2-0.6,0.4-1,0.7-1.4
		c0.3-0.4,0.7-0.7,1.1-0.8c0.4-0.2,0.9-0.3,1.3-0.3c0.4,0,0.8,0,1.1,0.1c0.3,0.1,0.6,0.2,0.9,0.4c0.3,0.2,0.5,0.3,0.7,0.5
		c0.2,0.2,0.4,0.3,0.5,0.4h0.1v-1.8c-0.2-0.1-0.5-0.3-0.7-0.4C36.5,28.1,36.2,28,36,27.9z"/>
	<path fill="#CFD0D1" d="M31.3,40.6c-0.9-0.4-1.7-0.9-2.3-1.6c-0.6-0.7-1.1-1.5-1.5-2.5c-0.3-0.9-0.5-2-0.5-3.1
		c0-1.1,0.2-2.2,0.5-3.1c0.3-0.9,0.8-1.8,1.4-2.5c0.6-0.7,1.4-1.3,2.3-1.7c0.9-0.4,1.8-0.6,2.8-0.6c0.5,0,0.9,0,1.4,0.1
		c0.4,0.1,0.8,0.2,1.1,0.3c0.1,0,0.1,0,0.2,0.1v-0.2h4.6c0.6,0,1.2,0,1.7,0.1c0.1-0.6,0.1-1.2,0.1-1.9c0-11.8-9.5-21.3-21.3-21.3
		C10,2.7,0.5,12.2,0.5,24c0,11.8,9.5,21.3,21.3,21.3c4.8,0,9.1-1.6,12.7-4.2c-0.2,0-0.3,0-0.5,0C33.1,41.1,32.1,40.9,31.3,40.6z
		 M10,17.4C8.2,21,7.9,25,9.1,28.8c0.2,0.5-0.1,1.1-0.7,1.3c-0.1,0-0.2,0.1-0.3,0.1c-0.4,0-0.8-0.3-1-0.7c-1.4-4.3-1-8.9,1.1-12.9
		c2.1-4,5.6-7,9.9-8.4c0.5-0.2,1.1,0.1,1.3,0.7c0.2,0.5-0.1,1.1-0.7,1.3C14.9,11.3,11.8,13.9,10,17.4z M23.4,28.9
		c-2.7,0.9-5.6-0.6-6.5-3.3c-0.9-2.7,0.6-5.6,3.3-6.5c2.7-0.9,5.6,0.6,6.5,3.3C27.5,25.1,26.1,28,23.4,28.9z"/>
	<path fill="#06728D" d="M46.9,30.6c-0.4-0.8-0.9-1.4-1.6-1.9c-0.4-0.3-0.9-0.5-1.5-0.6c-0.6-0.2-1.4-0.2-2.4-0.2h-2.5v11h2.5
		c0.9,0,1.6-0.1,2.2-0.2c0.6-0.1,1.1-0.4,1.7-0.7c0.7-0.5,1.2-1.1,1.6-1.9c0.4-0.8,0.6-1.7,0.6-2.7C47.5,32.3,47.3,31.4,46.9,30.6z
		 M45.6,35.5c-0.3,0.6-0.6,1-1.1,1.4c-0.4,0.3-0.9,0.5-1.3,0.6c-0.5,0.1-1.1,0.2-1.7,0.2h-1.1v-8.5h1.1c0.7,0,1.2,0.1,1.7,0.2
		c0.4,0.1,0.9,0.3,1.2,0.5c0.6,0.3,1,0.8,1.2,1.4c0.3,0.6,0.4,1.3,0.4,2.2C46,34.2,45.8,34.9,45.6,35.5z"/>
</g>
</svg>
