<?xml version="1.0" encoding="utf-8"?>
<!-- Generator: Adobe Illustrator 18.0.0, SVG Export Plug-In . SVG Version: 6.00 Build 0)  -->
<!DOCTYPE svg PUBLIC "-//W3C//DTD SVG 1.1//EN" "http://www.w3.org/Graphics/SVG/1.1/DTD/svg11.dtd">
<svg version="1.1" id="Layer_1" xmlns="http://www.w3.org/2000/svg" xmlns:xlink="http://www.w3.org/1999/xlink" x="0px" y="0px"
	 viewBox="0 0 48 48" enable-background="new 0 0 48 48" xml:space="preserve">
<g>
	<path fill="#0DB89A" d="M33.7,1.3c-10.2-3.1-21,2.8-24.1,13.3c-0.9,3-1,6-0.6,8.8c-0.1,0.4-0.3,0.8-0.4,1.2c-0.8,2.1-1.5,4.3-1.4,7
		c0.1,1.7-0.1,2.2-1.2,3.3c-0.2,0.2-0.4,0.4-0.6,0.5c-0.8,0.7-1.7,1.6-2.4,2.6c-0.9,1.3-1.4,2.8-1.8,4.3c-0.1,0.5-0.3,1-0.4,1.5
		c-0.1,0.5-0.3,0.9-0.4,1.4c-0.3,0.9,0.2,1.9,1.1,2.2c0.9,0.3,1.8-0.2,2.1-1.2c0.1-0.5,0.3-1,0.4-1.4C4.7,43.1,5.2,41.3,6,40
		c0.5-0.7,1.1-1.3,1.8-2c0.2-0.2,0.4-0.4,0.6-0.6c1.9-1.8,2.4-3.3,2.3-6c0-0.8,0-1.6,0.2-2.3c2.3,4.7,6.4,8.5,11.7,10.2
		c10.2,3.1,21-2.8,24.1-13.3C49.7,15.5,43.9,4.5,33.7,1.3z M20.5,27.5c-0.5,1.6-2.1,2.5-3.6,2c-1.5-0.5-2.4-2.1-1.9-3.7
		c0.5-1.6,2.1-2.5,3.6-2C20.1,24.3,20.9,25.9,20.5,27.5z M23.5,12c-0.5,1.6-2.1,2.5-3.6,2c-1.5-0.5-2.4-2.1-1.9-3.7
		c0.5-1.6,2.1-2.5,3.6-2C23.1,8.7,24,10.4,23.5,12z M25.2,19.4c0.5-1.7,2.2-2.6,3.9-2.1c1.6,0.5,2.6,2.3,2.1,4
		c-0.5,1.7-2.2,2.6-3.9,2.1C25.6,22.9,24.7,21.1,25.2,19.4z M31.2,33c-0.5,1.6-2.1,2.5-3.6,2c-1.5-0.5-2.4-2.1-1.9-3.7
		c0.5-1.6,2.1-2.5,3.6-2C30.8,29.7,31.7,31.4,31.2,33z M33.6,13.4c-1.5-0.5-2.4-2.1-1.9-3.7c0.5-1.6,2.1-2.5,3.6-2
		c1.5,0.5,2.4,2.1,1.9,3.7C36.8,13,35.2,13.9,33.6,13.4z M41.8,24.6c-0.5,1.6-2.1,2.5-3.6,2c-1.5-0.5-2.4-2.1-1.9-3.7
		c0.5-1.6,2.1-2.5,3.6-2C41.4,21.4,42.3,23.1,41.8,24.6z"/>
</g>
</svg>
