<?xml version="1.0" encoding="utf-8"?>
<!-- Generator: Adobe Illustrator 18.0.0, SVG Export Plug-In . SVG Version: 6.00 Build 0)  -->
<!DOCTYPE svg PUBLIC "-//W3C//DTD SVG 1.1//EN" "http://www.w3.org/Graphics/SVG/1.1/DTD/svg11.dtd">
<svg version="1.1" id="Layer_1" xmlns="http://www.w3.org/2000/svg" xmlns:xlink="http://www.w3.org/1999/xlink" x="0px" y="0px"
	 viewBox="0 0 48 48" enable-background="new 0 0 48 48" xml:space="preserve">
<g>
	<path fill="#06728D" d="M44.9,9.9c-2.9-6-7.1-10-9.4-9c-1.2,0.6-1.6,2.5-1.3,5l0,0c0,0-1.5,4-9.5,10.2L24.2,15l-1.8,0.9l0.7,1.5
		c-0.9,0.7-1.9,1.4-2.9,2.1l-1-2l-1.8,0.9l1.1,2.2c-0.7,0.4-1.4,0.9-2.1,1.3l-1.2-2.5l-1.8,0.9l1.3,2.6c-1,0.6-2,1.2-3.1,1.8
		l-1.4-2.8l-1.8,0.9l1.4,2.9c-0.1,0-0.2,0.1-0.2,0.1l-1.2,0.6c-4.1,2-6.2,6.5-5.4,10.8L1.2,38c-0.2-0.2-0.4-0.2-0.5-0.2
		c-0.2,0.1-0.2,0.7,0,1.2c0.3,0.5,0.7,0.9,0.9,0.8c0.1-0.1,0.2-0.2,0.2-0.4l1.7-0.8c0.1,0.3,0.2,0.6,0.4,0.9l1,2.2
		c2.4,4.9,8.3,6.9,13.2,4.6l1.2-0.6l3.4-1.7l13.7-6.6c3.9-1.9,5.6-6.5,3.8-10.3c-1.8-3.8-6.5-5.3-10.4-3.4l-1.2,0.6l-1.5-3
		c4.4-1.6,9.1-2.9,12.5-2.3l0,0c2.3,3.1,4.8,4.8,6.4,4C48.4,21.8,47.8,16,44.9,9.9z M25.3,21.9l1.5,3.2l-3.2,1.5l-1.6-3.3
		C23.1,22.8,24.2,22.4,25.3,21.9z M20.3,24.1l1.6,3.4l-2.2,1.1l-1.6-3.3C18.7,24.9,19.5,24.5,20.3,24.1z M19.7,37.2
		c-0.9,0.4-2,0-2.5-1l-1.4-2.9l3.2-1.5l1.4,2.9C20.9,35.7,20.6,36.8,19.7,37.2z M14.6,27.1c0.4-0.2,1-0.5,1.7-0.9l1.6,3.3L14.7,31
		l-1.5-3.2L14.6,27.1L14.6,27.1z M11.4,28.7l1.5,3.2l-0.2,0.1l0.2,0.4l-5.7,2.8C7.2,32.6,8.8,30,11.4,28.7z M36.7,28.7
		c1.2,2.5-0.3,5.7-3.3,7.2l-14.9,7.2c-3.8,1.7-8.4-0.3-10.1-3.6L7.8,38c-0.2-0.4-0.4-0.9-0.5-1.3l6.2-3l0.3,0.6l0.2-0.1l1.4,2.9
		c1,2,3.2,2.8,5.1,1.9c1.9-0.9,2.6-3.2,1.6-5.2l-1.4-2.9l2.2-1.1l1.4,2.9c0.9,2,3.2,2.8,5.1,1.9c1.9-0.9,2.6-3.2,1.6-5.2l-1.4-2.9
		C32.6,25.6,35.6,26.4,36.7,28.7z M28,27.4l1.4,2.9c0.5,1,0.1,2.1-0.7,2.5c-0.9,0.4-2,0-2.5-1l-1.4-2.9L28,27.4z M45,20.5
		c-1.8,0.9-5.1-2.3-7.4-7c-2.3-4.7-2.7-9.3-0.9-10.1c1.8-0.9,5.1,2.3,7.4,7C46.3,15.1,46.7,19.6,45,20.5z"/>
</g>
</svg>
