<?xml version="1.0" encoding="utf-8"?>
<!-- Generator: Adobe Illustrator 18.0.0, SVG Export Plug-In . SVG Version: 6.00 Build 0)  -->
<!DOCTYPE svg PUBLIC "-//W3C//DTD SVG 1.1//EN" "http://www.w3.org/Graphics/SVG/1.1/DTD/svg11.dtd">
<svg version="1.1" id="Layer_1" xmlns="http://www.w3.org/2000/svg" xmlns:xlink="http://www.w3.org/1999/xlink" x="0px" y="0px"
	 viewBox="0 0 48 48" enable-background="new 0 0 48 48" xml:space="preserve">
<g>
	<path fill="#F04B36" d="M43.6,1.4C43.6,1.4,43.6,1.4,43.6,1.4L43.6,1.4l-14,12.4c0.2,0.2-0.1,0.7-0.5,1.1c-0.4,0.4-0.9,0.5-1.1,0.4
		l-3,2.6c0.2,0.2-0.1,0.7-0.5,1.1c-0.4,0.4-0.9,0.5-1.1,0.4l-3,2.6c0.2,0.2-0.1,0.7-0.5,1.1c-0.4,0.4-0.9,0.5-1.1,0.4l-3,2.6
		c0.2,0.2-0.1,0.7-0.5,1.1c-0.4,0.4-0.9,0.5-1.1,0.4l-3,2.6c0.2,0.2-0.1,0.7-0.5,1.1c-0.4,0.4-0.9,0.5-1.1,0.4l-6,5.3l-0.2,0.8
		c0,0,0,0,0,0c0.2,0.1-0.2,1.8-0.9,4c-0.7,2.1-1.4,3.8-1.5,3.8c0,0,0,0,0,0l-0.5,1.5L47.1,5.5l0,0c0,0,0.1,0,0.1-0.1
		c0.6-0.5,0.3-1.9-0.7-3C45.5,1.3,44.2,0.8,43.6,1.4z M46.7,4.9c-0.4,0.4-1.4,0-2.1-0.8c-0.7-0.8-1-1.8-0.5-2.2
		c0.4-0.4,1.4,0,2.1,0.8C46.9,3.5,47.2,4.5,46.7,4.9z"/>
</g>
</svg>
