<?xml version="1.0" encoding="utf-8"?>
<!-- Generator: Adobe Illustrator 18.0.0, SVG Export Plug-In . SVG Version: 6.00 Build 0)  -->
<!DOCTYPE svg PUBLIC "-//W3C//DTD SVG 1.1//EN" "http://www.w3.org/Graphics/SVG/1.1/DTD/svg11.dtd">
<svg version="1.1" id="Layer_1" xmlns="http://www.w3.org/2000/svg" xmlns:xlink="http://www.w3.org/1999/xlink" x="0px" y="0px"
	 viewBox="0 0 48 48" enable-background="new 0 0 48 48" xml:space="preserve">
<g>
	<path fill="#F7A93B" d="M38.2,1c-0.1,0.1-0.2,0.3-0.3,0.5l0,0c0,0,0,0,0,0c0,0,0,0.1-0.1,0.1c-0.4,1-2.9,6.6-6.4,10.4
		c-0.1,0.1-0.2,0.2-0.2,0.3l-4.1,3.9c0.1,0.2,0,0.7-0.4,1c-0.4,0.4-0.8,0.5-1,0.4L23,20c0.1,0.2,0,0.7-0.4,1c-0.4,0.4-0.8,0.5-1,0.4
		l-2.6,2.5c0.1,0.2,0,0.7-0.4,1c-0.4,0.4-0.8,0.5-1,0.4l-2.6,2.5c0.1,0.2,0,0.7-0.4,1c-0.4,0.4-0.8,0.5-1,0.4l-2.6,2.5
		c0.1,0.2,0,0.7-0.4,1c-0.4,0.4-0.8,0.5-1,0.4l-5.4,5.1l-0.2,0.7c0,0,0,0,0,0c0.2,0-0.1,1.7-0.7,3.7c-0.6,2-1.1,3.6-1.3,3.5
		c0,0,0,0,0,0l-0.4,1.4l33.3-31.7c0.1-0.1,0.2-0.1,0.2-0.2c4.1-3.4,10-5.6,10.8-5.9c0,0,0,0,0,0c0,0,0.1,0,0.1,0l0,0
		c0.2-0.1,0.3-0.2,0.5-0.3c1.2-1.1,0.3-3.9-1.9-6.2C42.1,0.8,39.3-0.2,38.2,1z M45.2,8.4c-0.9,0.8-3,0.1-4.6-1.7
		c-1.7-1.8-2.3-3.9-1.4-4.7c0.9-0.8,3-0.1,4.6,1.7C45.5,5.4,46.1,7.5,45.2,8.4z"/>
</g>
</svg>
