<?xml version="1.0" encoding="utf-8"?>
<!-- Generator: Adobe Illustrator 18.0.0, SVG Export Plug-In . SVG Version: 6.00 Build 0)  -->
<!DOCTYPE svg PUBLIC "-//W3C//DTD SVG 1.1//EN" "http://www.w3.org/Graphics/SVG/1.1/DTD/svg11.dtd">
<svg version="1.1" id="Layer_1" xmlns="http://www.w3.org/2000/svg" xmlns:xlink="http://www.w3.org/1999/xlink" x="0px" y="0px"
	 viewBox="0 0 48 48" enable-background="new 0 0 48 48" xml:space="preserve">
<g>
	<path fill="#F04B36" d="M2.2,15.9c1.1-2,2.5-3.8,4.1-5.4c-0.6-0.6-1.4-1-2.4-1C2,9.5,0.5,11,0.5,12.9C0.5,14.2,1.2,15.3,2.2,15.9z"
		/>
	<path fill="#F04B36" d="M15.3,5.1c-0.4-1.4-1.7-2.5-3.2-2.5c-1.9,0-3.4,1.5-3.4,3.4c0,0.7,0.2,1.4,0.6,1.9
		C11.1,6.7,13.1,5.8,15.3,5.1z"/>
	<path fill="#F04B36" d="M21.7,4.1c1.5,0,2.9,0.1,4.3,0.4C26,4.4,26,4.2,26,3.9c0-1.9-1.5-3.4-3.4-3.4c-1.9,0-3.4,1.5-3.4,3.4
		c0,0.1,0,0.2,0,0.3C20.1,4.2,20.9,4.1,21.7,4.1z"/>
	<path fill="#F04B36" d="M36.4,6.7c0-1.9-1.5-3.4-3.4-3.4c-1.5,0-2.8,1-3.2,2.4c2.1,0.8,4,1.9,5.7,3.3C36,8.4,36.4,7.6,36.4,6.7z"/>
	<path fill="#F04B36" d="M44.1,14.2c0-1.9-1.5-3.4-3.4-3.4c-0.9,0-1.8,0.4-2.4,1c1.5,1.7,2.7,3.6,3.6,5.7
		C43.2,16.9,44.1,15.7,44.1,14.2z"/>
	<path fill="#F04B36" d="M44.1,22.3c-0.2,0-0.4,0-0.6,0.1c0.3,1.4,0.4,2.8,0.4,4.3c0,0.8,0,1.7-0.1,2.5c0.1,0,0.2,0,0.3,0
		c1.9,0,3.4-1.5,3.4-3.4C47.5,23.9,46,22.3,44.1,22.3z"/>
	<path fill="#F04B36" d="M43,33.3c-0.7,2.2-1.6,4.3-2.9,6.1c0.5,0.3,1.1,0.5,1.8,0.5c1.9,0,3.4-1.5,3.4-3.4
		C45.2,35,44.3,33.7,43,33.3z"/>
	<path fill="#4DA0D8" d="M21.7,5.9c-11.3,0-20.5,9.3-20.5,20.8c0,11.5,9.2,20.8,20.5,20.8c11.3,0,20.5-9.3,20.5-20.8
		C42.2,15.2,33,5.9,21.7,5.9z M21.7,37.9c-6.1,0-11.1-5-11.1-11.2s5-11.2,11.1-11.2s11.1,5,11.1,11.2S27.8,37.9,21.7,37.9z"/>
</g>
</svg>
