<?xml version="1.0" encoding="utf-8"?>
<!-- Generator: Adobe Illustrator 18.0.0, SVG Export Plug-In . SVG Version: 6.00 Build 0)  -->
<!DOCTYPE svg PUBLIC "-//W3C//DTD SVG 1.1//EN" "http://www.w3.org/Graphics/SVG/1.1/DTD/svg11.dtd">
<svg version="1.1" id="Layer_1" xmlns="http://www.w3.org/2000/svg" xmlns:xlink="http://www.w3.org/1999/xlink" x="0px" y="0px"
	 viewBox="0 0 48 48" enable-background="new 0 0 48 48" xml:space="preserve">
<g>
	<path fill="#06728D" d="M10.7,13.4c3.5,0,6.4-2.9,6.4-6.4c0-3.6-2.9-6.4-6.4-6.4c-3.5,0-6.4,2.9-6.4,6.4
		C4.2,10.5,7.1,13.4,10.7,13.4z"/>
	<path fill="#06728D" d="M27.6,13.4c3.5,0,6.4-2.9,6.4-6.4c0-3.6-2.9-6.4-6.4-6.4c-3.5,0-6.4,2.9-6.4,6.4
		C21.2,10.5,24.1,13.4,27.6,13.4z"/>
	<path fill="#294E58" d="M30.6,16.4H7.8c-4,0-7.3,3.3-7.3,7.3v9.6c0,4,3.3,7.3,7.3,7.3h3.8V45h3.8v2.5h3.9V45H24v-4.5h6.6
		c4,0,7.3-3.3,7.3-7.3v-9.6C37.8,19.7,34.6,16.4,30.6,16.4z"/>
	<path fill="#CFD0D1" d="M47.3,19.3c-0.1-0.1-0.3-0.1-0.4,0l-7.2,2.9v12.6l7.2,2.9c0.1,0,0.1,0,0.2,0c0.1,0,0.2,0,0.3-0.1
		c0.1-0.1,0.2-0.2,0.2-0.4V19.7C47.5,19.5,47.4,19.4,47.3,19.3z"/>
</g>
</svg>
