<?xml version="1.0" encoding="utf-8"?>
<!-- Generator: Adobe Illustrator 18.0.0, SVG Export Plug-In . SVG Version: 6.00 Build 0)  -->
<!DOCTYPE svg PUBLIC "-//W3C//DTD SVG 1.1//EN" "http://www.w3.org/Graphics/SVG/1.1/DTD/svg11.dtd">
<svg version="1.1" id="Layer_1" xmlns="http://www.w3.org/2000/svg" xmlns:xlink="http://www.w3.org/1999/xlink" x="0px" y="0px"
	 viewBox="0 0 48 48" enable-background="new 0 0 48 48" xml:space="preserve">
<g>
	<path fill="#4DA0D8" d="M20.1,17.1c-6.7,2.1-10.3,9.3-8.2,15.9c2.1,6.7,9.3,10.3,15.9,8.2c6.7-2.1,10.3-9.3,8.2-15.9
		C33.9,18.7,26.8,15,20.1,17.1z M16.5,25.3c-1,2-1.2,4.3-0.5,6.4c0.2,0.5-0.1,1-0.6,1.2c-0.1,0-0.2,0-0.3,0c-0.4,0-0.8-0.3-0.9-0.7
		c-0.8-2.6-0.6-5.4,0.6-7.9c1.3-2.5,3.4-4.3,6-5.1c0.5-0.2,1,0.1,1.2,0.6c0.2,0.5-0.1,1-0.6,1.2C19.3,21.9,17.5,23.3,16.5,25.3z
		 M24.9,32.1c-1.6,0.5-3.3-0.4-3.8-2c-0.5-1.6,0.4-3.3,2-3.8c1.6-0.5,3.3,0.4,3.8,2C27.4,29.9,26.5,31.6,24.9,32.1z"/>
	<path fill="#F04B36" d="M24,6.1C11.1,6.1,0.5,16.7,0.5,29.6c0,0.4,0.2,0.7,0.4,1c0.3,0.3,0.6,0.4,1,0.4h4.8v2.1
		c0,0.8,0.6,1.4,1.4,1.4c0.8,0,1.4-0.6,1.4-1.4v-8.6c0-0.8-0.6-1.4-1.4-1.4c-0.8,0-1.4,0.6-1.4,1.4v3.6H3.4C4.2,17.5,13.1,9,24,9
		s19.8,8.5,20.6,19.2h-3v-3.6c0-0.8-0.6-1.4-1.4-1.4c-0.8,0-1.4,0.6-1.4,1.4v8.6c0,0.8,0.6,1.4,1.4,1.4c0.8,0,1.4-0.6,1.4-1.4v-2.1
		h4.5c0.4,0,0.7-0.2,1-0.4c0.3-0.3,0.4-0.6,0.4-1C47.5,16.7,36.9,6.1,24,6.1z"/>
</g>
</svg>
