<?xml version="1.0" encoding="utf-8"?>
<!-- Generator: Adobe Illustrator 18.0.0, SVG Export Plug-In . SVG Version: 6.00 Build 0)  -->
<!DOCTYPE svg PUBLIC "-//W3C//DTD SVG 1.1//EN" "http://www.w3.org/Graphics/SVG/1.1/DTD/svg11.dtd">
<svg version="1.1" id="Layer_1" xmlns="http://www.w3.org/2000/svg" xmlns:xlink="http://www.w3.org/1999/xlink" x="0px" y="0px"
	 viewBox="0 0 48 48" enable-background="new 0 0 48 48" xml:space="preserve">
<g>
	<path fill="#F7A93B" d="M43.1,21.9C36.2,15,35.2,8.8,36.4,5.5c0.4-1.2,1.2-1.9,2-2.1c0.8-0.2,1.9,0.4,2.9,1.4
		c0.6,0.6,1.6,0.7,2.3,0.1c0.7-0.5,0.7-1.4,0.1-2c-2.5-2.5-4.8-2.5-6-2.3c-2,0.4-3.6,1.8-4.4,4c-0.5,1.4-0.7,3.2-0.5,5.4H15.1
		c0.3-2.1,0.1-3.9-0.5-5.4c-0.8-2.2-2.4-3.6-4.4-4c-1.2-0.2-3.5-0.2-6,2.3c-0.6,0.6-0.5,1.5,0.1,2c0.7,0.5,1.7,0.5,2.3-0.1
		c1-1,2.1-1.5,2.9-1.4c0.8,0.1,1.5,0.9,2,2.1c1.2,3.3,0.2,9.6-6.7,16.4c-3.8,3.8-5,10.2-2.8,15.3c1.5,3.5,4.6,5.8,7.3,7.9
		c0.9,0.7,1.8,1.4,2.6,2c0.3,0.3,0.7,0.4,1.1,0.4c0,0,0.1,0,0.1,0c0,0,0,0,0,0h21.8c0.2,0,0.4-0.1,0.5-0.2c0.2-0.1,0.3-0.1,0.4-0.3
		c0.8-0.7,1.7-1.3,2.6-2c2.8-2.1,5.9-4.4,7.3-7.9C48.1,32.1,46.9,25.6,43.1,21.9z M19.5,44.7c0,0.5-0.5,0.9-1.1,0.9
		c-0.6,0-1.1-0.4-1.1-0.9V13.5c0-0.5,0.5-0.9,1.1-0.9c0.6,0,1.1,0.4,1.1,0.9V44.7z M24.7,44.7c0,0.5-0.5,0.9-1.1,0.9
		c-0.6,0-1.1-0.4-1.1-0.9V13.5c0-0.5,0.5-0.9,1.1-0.9c0.6,0,1.1,0.4,1.1,0.9V44.7z M29.9,44.7c0,0.5-0.5,0.9-1.1,0.9
		c-0.6,0-1.1-0.4-1.1-0.9V13.5c0-0.5,0.5-0.9,1.1-0.9c0.6,0,1.1,0.4,1.1,0.9V44.7z"/>
</g>
</svg>
