<?xml version="1.0" encoding="utf-8"?>
<!-- Generator: Adobe Illustrator 18.0.0, SVG Export Plug-In . SVG Version: 6.00 Build 0)  -->
<!DOCTYPE svg PUBLIC "-//W3C//DTD SVG 1.1//EN" "http://www.w3.org/Graphics/SVG/1.1/DTD/svg11.dtd">
<svg version="1.1" id="Layer_1" xmlns="http://www.w3.org/2000/svg" xmlns:xlink="http://www.w3.org/1999/xlink" x="0px" y="0px"
	 viewBox="0 0 48 48" enable-background="new 0 0 48 48" xml:space="preserve">
<g>
	<path fill="#F04B36" d="M39.4,14.7l-3,5.1l1.5,5.9c1.2-0.5,2.3-1.4,3-2.6c0.9-1.5,1.1-3.2,0.7-4.9C41.2,16.7,40.5,15.5,39.4,14.7z"
		/>
	<path fill="#F04B36" d="M29,21.1c0.4,1.7,1.4,3.2,3,4.2c1,0.6,2.1,0.9,3.3,0.9c0.2,0,0.5,0,0.7,0l-1.4-5.4L29,21.1z"/>
	<path fill="#F04B36" d="M10.8,26c0.6,0.2,1.3,0.3,1.9,0.3c1.1,0,2.2-0.3,3.2-0.9c1.2-0.7,2.2-1.8,2.7-3l-5.4-1.5L10.8,26z"/>
	<path fill="#F04B36" d="M37.7,13.7c-0.7-0.3-1.5-0.5-2.3-0.5c-2.3,0-4.4,1.2-5.6,3.2c-0.5,0.9-0.8,1.8-0.9,2.7l5.8-0.4L37.7,13.7z"
		/>
	<path fill="#0DB89A" d="M47,7.9H1c-0.3,0-0.5,0.2-0.5,0.5v31.3c0,0.3,0.2,0.5,0.5,0.5h46c0.3,0,0.5-0.2,0.5-0.5V8.4
		C47.5,8.1,47.3,7.9,47,7.9z M23,27.9c0-0.6,0.4-1,1-1c0.6,0,1,0.4,1,1v1.5c0,0.6-0.4,1-1,1c-0.6,0-1-0.4-1-1V27.9z M43,35.2
		c-0.7,0.8-1.7,1.2-2.8,1.2H7.9c-1.1,0-2.1-0.4-2.8-1.2c-0.7-0.8-1.1-1.8-1.1-2.8l0.2-11.7c0-0.1,0-0.1,0-0.2
		c-0.2-3.2,1.3-6.3,4.2-8c1.3-0.7,2.7-1.1,4.2-1.1c3,0,5.9,1.6,7.4,4.3c1.1,2,1.4,4.3,0.8,6.4c-0.6,2.2-2,4-4,5.1
		c-1.3,0.7-2.7,1.1-4.2,1.1c-2.6,0-5-1.2-6.6-3.2l-0.1,7.3c0,0.5,0.2,1,0.6,1.4c0.4,0.4,0.9,0.6,1.4,0.6h32.3c0.5,0,1-0.2,1.4-0.6
		c0.4-0.4,0.5-0.9,0.5-1.4l-0.3-7.3c-1.6,1.9-4,3-6.5,3c-1.5,0-3-0.4-4.3-1.2c-4-2.4-5.4-7.6-3-11.6c1.5-2.6,4.3-4.2,7.3-4.2
		c1.5,0,3,0.4,4.3,1.2c2,1.1,3.3,3,3.9,5.2c0.3,1.3,0.4,2.6,0.1,3.9l0.5,10.9C44.1,33.4,43.8,34.4,43,35.2z"/>
	<path fill="#F04B36" d="M19.1,20.5c0.1-1.3-0.1-2.7-0.8-3.9c-1.2-2-3.3-3.3-5.6-3.3c-0.8,0-1.6,0.2-2.3,0.4l2.9,5.1L19.1,20.5z"/>
	<path fill="#F04B36" d="M9,25.1l2.5-5.3l-2.9-5.1c-2.4,2-3.2,5.5-1.6,8.3C7.5,23.9,8.2,24.6,9,25.1z"/>
</g>
</svg>
