<?xml version="1.0" encoding="utf-8"?>
<!-- Generator: Adobe Illustrator 18.0.0, SVG Export Plug-In . SVG Version: 6.00 Build 0)  -->
<!DOCTYPE svg PUBLIC "-//W3C//DTD SVG 1.1//EN" "http://www.w3.org/Graphics/SVG/1.1/DTD/svg11.dtd">
<svg version="1.1" id="Layer_1" xmlns="http://www.w3.org/2000/svg" xmlns:xlink="http://www.w3.org/1999/xlink" x="0px" y="0px"
	 viewBox="0 0 48 48" enable-background="new 0 0 48 48" xml:space="preserve">
<g>
	<path fill="#E77528" d="M40.9,7.6c-4.5-4.8-9-7.9-10-6.9c-0.1,0.1-0.2,0.3-0.2,0.5l0,0c0,0,0,0,0,0c0,0.4,0.1,1.1,0.5,1.9
		c2.2,9-1.6,13.6-1.6,13.6L18.1,28.1L17.1,27l-0.4,0.4l-0.3-0.3l0.3-0.3l-0.3-0.3l-0.9,0.9l0.3,0.3l0.3-0.3l0.3,0.3L16,28.1l1.1,1.1
		l-1,1L15,29l-0.4,0.4l-0.3-0.3l0.3-0.3l-0.3-0.3l-0.9,0.9l0.3,0.3l0.3-0.3l0.3,0.3L14,30.1l1.1,1.1l-1.1,1.1l-1.1-1.1l-0.4,0.4
		l-0.3-0.3l0.3-0.3l-0.3-0.3l-0.9,0.9l0.3,0.3l0.3-0.3l0.3,0.3l-0.4,0.4l1.1,1.1l-7.3,7.2l0.6,0.6l-4.4,4.4c0,0-1.1,0.2-1.3,0.5
		c-0.1,0.2,0.4,0.6,0.7,0.8c0.2,0.3,0.6,0.9,0.8,0.7c0.3-0.2,0.5-1.3,0.5-1.3L7,41.8l0.6,0.6L9,40.9c-0.1,1.1,0.3,2.2,1.1,3
		c1.5,1.5,4.1,1.5,5.7-0.1l3.8-3.8l1,1l1-1l-1-1l1.1-1.1l1,1l1-1l-1-1l1-1l1,1l1-1l-1-1L35.7,24c1.6-1.6,1.6-4.1,0.1-5.7
		c-0.2-0.2-0.3-0.3-0.5-0.4c4-1.7,7.6-1.1,9.6-0.5c0.7,0.4,1.3,0.6,1.7,0.6c0,0,0,0,0,0l0,0c0.3,0,0.5,0,0.6-0.2
		C48.3,17,45.5,12.4,40.9,7.6z M16.8,41.4c-0.7,0.7-2,0.8-2.7,0c-0.7-0.7-0.7-1.9,0-2.7l2.1-2.1l2.7,2.6L16.8,41.4z M20,38.3
		l-2.7-2.6l1.1-1.1l2.7,2.6L20,38.3z M22.1,36.1l-2.7-2.6l1-1l2.7,2.6L22.1,36.1z M34.1,24.3l-9.9,9.9l-2.7-2.6l9.9-9.9
		c0.7-0.7,2-0.8,2.7,0C34.8,22.3,34.8,23.5,34.1,24.3z M45.8,16.3c-0.8,0.8-4.5-1.7-8.2-5.6c-3.7-3.9-6-7.7-5.2-8.4
		c0.8-0.8,4.5,1.7,8.2,5.6C44.3,11.8,46.6,15.6,45.8,16.3z"/>
</g>
</svg>
