<?xml version="1.0" encoding="utf-8"?>
<!-- Generator: Adobe Illustrator 18.0.0, SVG Export Plug-In . SVG Version: 6.00 Build 0)  -->
<!DOCTYPE svg PUBLIC "-//W3C//DTD SVG 1.1//EN" "http://www.w3.org/Graphics/SVG/1.1/DTD/svg11.dtd">
<svg version="1.1" id="Layer_1" xmlns="http://www.w3.org/2000/svg" xmlns:xlink="http://www.w3.org/1999/xlink" x="0px" y="0px"
	 viewBox="0 0 48 48" enable-background="new 0 0 48 48" xml:space="preserve">
<g>
	<path fill="#CFD0D1" d="M24,30c-0.3-2.9,0.6-5.8,2.7-8.4c0.5-0.6,1-1.2,1.5-1.8c0.9-1,1.7-2,2.3-3L31,16c-0.7-2.5-1-4.7-1-6.8
		c-4.6-2.9-10.5-3.9-16.1-2.1C3.7,10.3-1.8,21.1,1.4,31.2c3.2,10.1,14,15.6,24.1,12.4c1.9-0.6,3.6-1.5,5.1-2.5
		c0.2-0.8,0.8-1.5,1.6-1.9c-1.2-0.3-2.5-0.9-4-2.1C25.8,35.2,24.3,32.7,24,30z M8.2,19.5c-1.6,3.1-1.9,6.5-0.8,9.8
		c0.2,0.5-0.1,1.1-0.6,1.2c-0.1,0-0.2,0-0.3,0c-0.4,0-0.8-0.3-0.9-0.7c-1.2-3.8-0.9-7.8,0.9-11.3c1.8-3.5,4.9-6.1,8.7-7.4
		c0.5-0.2,1.1,0.1,1.2,0.6c0.2,0.5-0.1,1.1-0.6,1.2C12.4,14.1,9.8,16.4,8.2,19.5z M21,29.6c-2.3,0.8-4.9-0.5-5.6-2.9
		c-0.8-2.3,0.5-4.9,2.9-5.6c2.3-0.8,4.9,0.5,5.6,2.9C24.7,26.3,23.4,28.8,21,29.6z"/>
	<path fill="#06728D" d="M47.4,28.6c-0.5-3.1-3.1-5.9-5.3-6.7c-1.2-0.4-3.2-0.5-5,0c-0.2-0.5-0.3-0.9-0.5-1.4c-0.5-1.3-1-2.7-1.4-4
		c0.9-1.6,1.8-3.3,2.4-5c0.3-0.8,1.7-4.7,0.1-6.7c-0.8-1-1.9-1.4-3-1.2c-1.3,0.3-2.5,1.7-2.7,3.1c-0.5,3.2,0.1,6.4,1,9.5
		c-0.2,0.3-0.4,0.6-0.6,1l-0.4,0.6c-0.7,1.2-1.6,2.2-2.5,3.3c-0.5,0.6-1,1.1-1.4,1.7c-1.8,2.2-2.5,4.6-2.3,6.9
		c0.3,2.2,1.5,4.2,3.5,5.8c2.4,1.9,4,2,6.5,2.1l0.8,0c0.3,0,0.6,0,0.9,0c-0.1,0.6-0.3,1.1-0.7,1.5c-0.8,1-2.1,1.6-3.5,1.6
		c-0.5,0-1,0.5-1,1c0,0.5,0.5,1,1,1c0,0,0,0,0,0c2-0.1,3.8-1,5-2.4c0.7-0.8,1-1.8,1.1-2.8c1.8-0.2,3.4-1,5.2-2.5
		C47.5,32.8,47.7,30.3,47.4,28.6z M34,7c0.1-0.6,0.7-1.4,1.3-1.5c0,0,0.1,0,0.2,0c0.2,0,0.4,0.1,0.7,0.5c0.6,0.8,0.3,3.1-0.3,4.8
		c-0.4,1-0.8,2-1.4,3C33.9,11.5,33.7,9.2,34,7z M36.8,35.7l-0.8,0c-2.3-0.1-3.4-0.2-5.4-1.7c-1.6-1.2-2.6-2.8-2.8-4.5
		c-0.2-1.8,0.4-3.7,1.8-5.5c0.4-0.6,0.9-1.1,1.4-1.6c1-1.1,2-2.3,2.8-3.6l0-0.1c0.3,0.8,0.6,1.6,0.9,2.4c0.2,0.5,0.4,1,0.5,1.5
		c-0.5,0.3-0.9,0.6-1.2,1c-0.8,1.1-0.8,2.4,0.1,3.7c0.3,0.4,0.9,0.5,1.4,0.2c0.4-0.3,0.5-0.9,0.2-1.4c-0.6-0.8-0.3-1.1-0.2-1.3
		c0.1-0.1,0.2-0.2,0.3-0.3c0.8,2.4,1.2,4.8,1.5,8.2c0,0.3,0.1,0.6,0.1,0.9c0.1,0.7,0.2,1.4,0.2,2.1C37.5,35.7,37.1,35.7,36.8,35.7z
		 M43.6,33.6c-1.4,1.2-2.6,1.8-3.9,2c0-0.7-0.1-1.5-0.2-2.2c0-0.3-0.1-0.6-0.1-0.9c-0.3-3.6-0.8-6.2-1.7-8.7c0,0,0,0,0-0.1
		c1.3-0.3,2.8-0.4,3.6-0.1c1.4,0.5,3.6,2.7,4,5.2C45.8,30.7,45.1,32.2,43.6,33.6z"/>
</g>
</svg>
