<?xml version="1.0" encoding="utf-8"?>
<!-- Generator: Adobe Illustrator 18.0.0, SVG Export Plug-In . SVG Version: 6.00 Build 0)  -->
<!DOCTYPE svg PUBLIC "-//W3C//DTD SVG 1.1//EN" "http://www.w3.org/Graphics/SVG/1.1/DTD/svg11.dtd">
<svg version="1.1" id="Layer_1" xmlns="http://www.w3.org/2000/svg" xmlns:xlink="http://www.w3.org/1999/xlink" x="0px" y="0px"
	 viewBox="0 0 48 48" enable-background="new 0 0 48 48" xml:space="preserve">
<g>
	<path fill="#F04B36" d="M47.4,6.1c-0.1-0.2-0.1-0.4-0.3-0.6L43.4,1c-0.5-0.6-1.5-0.7-2.1-0.2c-0.6,0.5-0.7,1.5-0.2,2.1l2.8,3.4
		l-1.7,1.4l-1.5-1.8c-0.5-0.6-1.5-0.7-2.1-0.2C38,6.4,37.9,7.4,38.4,8l1.5,1.8L26.8,21.1c-0.5-0.3-1.1-0.5-1.9-0.6
		c-4.8-0.4-14.2,4.3-18.3,7.6c-5.5,4.4-7.7,10.6-4.9,14.2c1,1.3,2.6,2.1,4.6,2.3c3.2,0.3,7-1.1,10.3-3.7c3.6-2.8,11.7-11.9,11.7-17
		c0,0,0,0,0,0L47,7.8C47.5,7.4,47.6,6.7,47.4,6.1z M9.8,40.2c-0.2,0.1-0.4,0.2-0.7,0.2c-0.3,0-0.6-0.2-0.8-0.4L5.7,36
		c-0.3-0.5-0.2-1.1,0.3-1.4c0.5-0.3,1.1-0.2,1.4,0.3l2.7,3.9C10.4,39.3,10.3,39.9,9.8,40.2z"/>
	<path fill="#F7A93B" d="M17.9,42.5c-3.1,2.4-6.7,3.9-10,4.1c1.1,0.5,2.3,0.8,3.6,0.9c0,0,0,0,0,0c5,0.4,10.3-2.2,13.8-6.9
		c2.8-3.6,4.1-7.9,3.9-12.3C26.4,34.5,19.4,41.3,17.9,42.5z"/>
</g>
</svg>
