<?xml version="1.0" encoding="utf-8"?>
<!-- Generator: Adobe Illustrator 18.0.0, SVG Export Plug-In . SVG Version: 6.00 Build 0)  -->
<!DOCTYPE svg PUBLIC "-//W3C//DTD SVG 1.1//EN" "http://www.w3.org/Graphics/SVG/1.1/DTD/svg11.dtd">
<svg version="1.1" id="Layer_1" xmlns="http://www.w3.org/2000/svg" xmlns:xlink="http://www.w3.org/1999/xlink" x="0px" y="0px"
	 viewBox="0 0 48 48" enable-background="new 0 0 48 48" xml:space="preserve">
<g>
	<path fill="#294E58" d="M47.5,5.6c0-0.4-0.1-0.7-0.4-1L43.9,1c-0.5-0.6-1.5-0.6-2.1-0.1c-0.6,0.5-0.6,1.5-0.1,2L44,5.4l-2.1,1.8
		L40.8,6c-0.5-0.6-1.5-0.6-2.1-0.1c-0.6,0.5-0.6,1.5-0.1,2l1.1,1.2L22,25.1c-2.4-2-5.4-3.2-8.6-3.2c-3.2,0-6.3,1.2-8.7,3.3
		c-2.6,2.3-4.1,5.4-4.2,8.9c-0.2,3.4,1,6.7,3.3,9.2c2.5,2.7,6,4.2,9.6,4.2c3.2,0,6.3-1.2,8.7-3.3c2.6-2.3,4.1-5.5,4.2-8.9
		c0.1-2.9-0.7-5.8-2.4-8.1L47,6.6C47.3,6.3,47.5,5.9,47.5,5.6z M14.5,39.3c-0.2,0.2-0.4,0.3-0.7,0.3c-0.3,0-0.5-0.1-0.7-0.3
		l-4.3-4.6c-0.4-0.4-0.3-1,0.1-1.4c0.4-0.4,1-0.3,1.4,0.1l4.3,4.6C14.9,38.4,14.9,39,14.5,39.3z"/>
</g>
</svg>
