<?xml version="1.0" encoding="utf-8"?>
<!-- Generator: Adobe Illustrator 18.0.0, SVG Export Plug-In . SVG Version: 6.00 Build 0)  -->
<!DOCTYPE svg PUBLIC "-//W3C//DTD SVG 1.1//EN" "http://www.w3.org/Graphics/SVG/1.1/DTD/svg11.dtd">
<svg version="1.1" id="Layer_1" xmlns="http://www.w3.org/2000/svg" xmlns:xlink="http://www.w3.org/1999/xlink" x="0px" y="0px"
	 viewBox="0 0 48 48" enable-background="new 0 0 48 48" xml:space="preserve">
<g>
	<path fill="#F04B36" d="M32.5,1.1C32,0.4,31,0.3,30.4,0.8L1.1,24c-0.7,0.5-0.8,1.5-0.3,2.1c0.3,0.4,0.7,0.6,1.2,0.6
		c0.3,0,0.6-0.1,0.9-0.3L32.2,3.2C32.9,2.7,33,1.8,32.5,1.1z"/>
	<path fill="#F7A93B" d="M47.1,11.1l-2-2.3c0,0,0,0,0,0c0,0,0,0,0,0l-2-2.3c-0.5-0.6-1.5-0.7-2.1-0.2c-0.6,0.6-0.7,1.5-0.1,2.2
		l1,1.2L40.4,11l-1-1.2c-0.5-0.6-1.5-0.7-2.1-0.2c-0.6,0.6-0.7,1.5-0.1,2.2l1,1.2L26.4,23.4l-0.7-0.9c-0.9-1.1-2.2-1.7-3.7-1.7
		c-1.4,0-2.7,0.5-3.8,1.4l-0.1,0.1c-0.9,0.8-2.1,2.2-3.1,3.7c-3.2,0.5-7.1,2.3-8.8,3.7l-0.2,0.1c-2.8,2.3-3.2,6.4-1,9.2l4.8,6
		c1.2,1.5,3,2.4,4.9,2.4c0,0,0,0,0,0c1.5,0,3-0.5,4.1-1.5l0.2-0.1c1.8-1.5,4.7-5.6,5.7-9c1.4-0.6,2.6-1.4,3.4-2l0.1-0.1
		c1.2-1,1.9-2.3,2.2-3.7c0.3-1.5-0.1-2.8-0.9-3.9l-1.1-1.3l11.9-10.5l1,1.2c0.3,0.3,0.7,0.5,1.1,0.5c0.3,0,0.7-0.1,1-0.4
		c0.6-0.6,0.7-1.5,0.1-2.2l-1-1.2l1.5-1.3l1,1.2c0.3,0.3,0.7,0.5,1.1,0.5c0.3,0,0.7-0.1,1-0.4C47.6,12.7,47.7,11.7,47.1,11.1z
		 M14.3,39.6c-0.2,0.1-0.4,0.2-0.6,0.2c-0.3,0-0.6-0.1-0.8-0.4l-2.4-3.2c-0.3-0.4-0.3-1.1,0.2-1.4c0.4-0.3,1.1-0.3,1.4,0.2l2.4,3.2
		C14.8,38.6,14.7,39.3,14.3,39.6z"/>
</g>
</svg>
