<?xml version="1.0" encoding="utf-8"?>
<!-- Generator: Adobe Illustrator 18.0.0, SVG Export Plug-In . SVG Version: 6.00 Build 0)  -->
<!DOCTYPE svg PUBLIC "-//W3C//DTD SVG 1.1//EN" "http://www.w3.org/Graphics/SVG/1.1/DTD/svg11.dtd">
<svg version="1.1" id="Layer_1" xmlns="http://www.w3.org/2000/svg" xmlns:xlink="http://www.w3.org/1999/xlink" x="0px" y="0px"
	 viewBox="0 0 48 48" enable-background="new 0 0 48 48" xml:space="preserve">
<g>
	<path fill="#E77528" d="M47.1,5.9l-2.2-2.4l0,0c0,0,0,0,0,0L42.6,1C42,0.4,40.9,0.3,40.3,1c-0.7,0.6-0.7,1.7-0.1,2.4l1.1,1.2
		l-1.6,1.5l-1.1-1.2C38,4.2,37,4.2,36.3,4.8c-0.7,0.6-0.7,1.7-0.1,2.4l1.1,1.2L25,20.5l-0.9-1.1c-1-1.2-2.5-1.8-4.1-1.7
		c-1.5,0.1-2.9,0.7-4.1,1.8l-0.1,0.1c-1,0.9-2.2,2.5-3.2,4.2c-3.4,0.7-7.6,2.9-9.4,4.5l-0.2,0.1C0,31.2-0.3,35.8,2.2,38.8l5.5,6.4
		c1.4,1.6,3.4,2.4,5.5,2.3h0c1.6-0.1,3.2-0.7,4.4-1.9l0.2-0.1c1.9-1.7,4.9-6.3,5.8-10.2c1.5-0.8,2.8-1.7,3.6-2.4l0.1-0.1
		c1.2-1.1,2-2.6,2.2-4.2c0.2-1.6-0.2-3.1-1.2-4.3L27.2,23l12.5-12.2l1.1,1.2c0.3,0.4,0.8,0.5,1.3,0.5c0.4,0,0.8-0.2,1-0.5
		c0.7-0.6,0.7-1.7,0.1-2.4L42,8.5L43.6,7l1.1,1.2c0.3,0.4,0.8,0.5,1.3,0.5c0.4,0,0.8-0.2,1-0.5C47.6,7.6,47.7,6.6,47.1,5.9z
		 M12.4,39.5c-2.2,0.1-4.1-1.7-4.2-3.9c-0.1-2.3,1.6-4.2,3.8-4.3c2.2-0.1,4.1,1.7,4.2,3.9C16.3,37.5,14.6,39.4,12.4,39.5z
		 M22.8,29.2c-0.2,0.2-0.4,0.3-0.7,0.3c-0.3,0-0.6-0.1-0.9-0.4L19,26.5c-0.4-0.5-0.4-1.2,0.1-1.6c0.5-0.4,1.1-0.4,1.5,0.1l2.2,2.6
		C23.3,28.1,23.3,28.8,22.8,29.2z"/>
</g>
</svg>
