<?xml version="1.0" encoding="utf-8"?>
<!-- Generator: Adobe Illustrator 18.0.0, SVG Export Plug-In . SVG Version: 6.00 Build 0)  -->
<!DOCTYPE svg PUBLIC "-//W3C//DTD SVG 1.1//EN" "http://www.w3.org/Graphics/SVG/1.1/DTD/svg11.dtd">
<svg version="1.1" id="Layer_1" xmlns="http://www.w3.org/2000/svg" xmlns:xlink="http://www.w3.org/1999/xlink" x="0px" y="0px"
	 viewBox="0 0 48 48" enable-background="new 0 0 48 48" xml:space="preserve">
<g>
	<path fill="#4DA0D8" d="M36.1,20.6c-0.2,1.4,1.3,1.7,1.3,1.7c-1.9,5.3,2.5,11.2,2.5,11.2c3.3,7.8,1.1,6.2,1.1,6.2l-6.9-11.1
		l1.1-0.8l-0.9-1.1l-1,0.7l-0.7-1.1l1.1-0.8l-0.9-1.1l-1,0.7l-0.7-1.2l1-0.7l-0.9-1.1l-0.9,0.6l-0.7-1.1l1-0.7l-0.9-1.1l-0.9,0.7
		L17.4,1.9C13.2-2,9.6,3.5,9.6,3.5C8,7,4.2,8.4,4.2,8.4l0,0l-3.7,2.2l0.2,0.4l4.4-1.6c1.6,0.6,7.7-5.9,7.7-5.9c2.8-3,5.9,4,5.9,4
		l18.6,37.8c3.3,4.5,8.1,0.8,8.1,0.8c4.8-4.6,0.1-10,0.1-10c-3-3-2.9-8.4-2.9-8.4c0.9-2.8,3.9-3.8,3.9-3.8L36.1,20.6z"/>
</g>
</svg>
