<?xml version="1.0" encoding="utf-8"?>
<!-- Generator: Adobe Illustrator 18.0.0, SVG Export Plug-In . SVG Version: 6.00 Build 0)  -->
<!DOCTYPE svg PUBLIC "-//W3C//DTD SVG 1.1//EN" "http://www.w3.org/Graphics/SVG/1.1/DTD/svg11.dtd">
<svg version="1.1" id="Layer_1" xmlns="http://www.w3.org/2000/svg" xmlns:xlink="http://www.w3.org/1999/xlink" x="0px" y="0px"
	 viewBox="0 0 48 48" enable-background="new 0 0 48 48" xml:space="preserve">
<g>
	<path fill="#4DA0D8" d="M23,24.6c0-1.2-1-2.1-2.3-2.1H13c-1.2,0-2.3,0.9-2.3,2.1v12.8c0,1.2,1,2.1,2.3,2.1h7.7
		c1.2,0,2.3-0.9,2.3-2.1V24.6z"/>
	<path fill="#4DA0D8" d="M10.8,12.9c0,1,1,1.9,2.3,1.9h7.7c1.2,0,2.3-0.8,2.3-1.9V7.9c0-0.1,0-0.2,0.1-0.3H10.7
		c0.1,0.1,0.1,0.2,0.1,0.3V12.9z"/>
	<path fill="#06728D" d="M32.6,7.6h-2c0,0.1,0,0.1,0,0.2v3.5c0,0.4-0.3,0.7-0.8,0.7c-0.4,0-0.7-0.3-0.7-0.7V7.8c0-0.1,0-0.1,0-0.2
		h-4.8c0.1,0.1,0.1,0.2,0.1,0.3v4.9c0,1.8-1.7,3.3-3.8,3.3H13c-2.1,0-3.8-1.5-3.8-3.3V7.9c0-0.1,0-0.2,0.1-0.3H4.6
		c0,0.1,0,0.1,0,0.2v3.5c0,0.4-0.3,0.7-0.8,0.7c-0.4,0-0.8-0.3-0.8-0.7V7.8c0-0.1,0-0.1,0-0.2h-2c-0.4,0-0.7,0.3-0.7,0.7v31.4
		c0,0.4,0.3,0.7,0.7,0.7h2c0-0.1,0-0.1,0-0.2v-3.5c0-0.4,0.3-0.7,0.8-0.7c0.4,0,0.8,0.3,0.8,0.7v3.5c0,0.1,0,0.1,0,0.2h6.5
		c-1.1-0.6-1.8-1.7-1.8-3V24.6C9.3,22.6,11,21,13,21h7.7c2.1,0,3.8,1.6,3.8,3.5v12.8c0,1.3-0.7,2.4-1.8,3h6.5c0-0.1,0-0.1,0-0.2
		v-3.5c0-0.4,0.3-0.7,0.7-0.7c0.4,0,0.8,0.3,0.8,0.7v3.5c0,0.1,0,0.1,0,0.2h2c0.4,0,0.7-0.3,0.7-0.7V8.3C33.3,7.9,32.9,7.6,32.6,7.6
		z M4.6,30.6c0,0.4-0.3,0.7-0.8,0.7c-0.4,0-0.8-0.3-0.8-0.7v-3.5c0-0.4,0.3-0.7,0.8-0.7c0.4,0,0.8,0.3,0.8,0.7V30.6z M4.6,20.9
		c0,0.4-0.3,0.7-0.8,0.7c-0.4,0-0.8-0.3-0.8-0.7v-3.5c0-0.4,0.3-0.7,0.8-0.7c0.4,0,0.8,0.3,0.8,0.7V20.9z M30.6,30.6
		c0,0.4-0.3,0.7-0.8,0.7c-0.4,0-0.7-0.3-0.7-0.7v-3.5c0-0.4,0.3-0.7,0.7-0.7c0.4,0,0.8,0.3,0.8,0.7V30.6z M30.6,20.9
		c0,0.4-0.3,0.7-0.8,0.7c-0.4,0-0.7-0.3-0.7-0.7v-3.5c0-0.4,0.3-0.7,0.7-0.7c0.4,0,0.8,0.3,0.8,0.7V20.9z"/>
	<path fill="#0DB89A" d="M46.9,20.2c-1.7-5.2-6.5-8.6-11.9-8.6v10.1c1.1,0,2,0.6,2.4,1.6c0.4,1.3-0.3,2.6-1.5,3
		c-0.3,0.1-0.5,0.1-0.8,0.1v10.1c0,0,0.1,0,0.1,0c1.3,0,2.6-0.2,3.8-0.6c3.2-1,5.8-3.2,7.3-6.2C47.6,26.7,47.9,23.3,46.9,20.2z"/>
</g>
</svg>
