<?xml version="1.0" encoding="utf-8"?>
<!-- Generator: Adobe Illustrator 18.0.0, SVG Export Plug-In . SVG Version: 6.00 Build 0)  -->
<!DOCTYPE svg PUBLIC "-//W3C//DTD SVG 1.1//EN" "http://www.w3.org/Graphics/SVG/1.1/DTD/svg11.dtd">
<svg version="1.1" id="Layer_1" xmlns="http://www.w3.org/2000/svg" xmlns:xlink="http://www.w3.org/1999/xlink" x="0px" y="0px"
	 viewBox="0 0 48 48" enable-background="new 0 0 48 48" xml:space="preserve">
<g>
	<path fill="#06728D" d="M27.2,11.3c-1.3,0-2.6,0.2-3.9,0.6c-6.7,2.2-10.4,9.3-8.2,16c1.7,5.3,6.6,8.8,12.1,8.8
		c1.3,0,2.6-0.2,3.9-0.6c3.2-1,5.9-3.3,7.4-6.3c1.6-3,1.8-6.5,0.8-9.7C37.6,14.8,32.7,11.3,27.2,11.3z M19,19.8
		c-1.1,2.2-1.3,4.7-0.6,7c0.2,0.5-0.1,1.1-0.6,1.3c-0.1,0-0.2,0-0.3,0c-0.4,0-0.8-0.3-1-0.7c-0.9-2.9-0.7-5.9,0.7-8.6
		c1.4-2.7,3.7-4.6,6.5-5.6c0.5-0.2,1.1,0.1,1.3,0.6c0.2,0.5-0.1,1.1-0.6,1.3C22,16,20.1,17.6,19,19.8z M31,26
		c-0.5,1-1.4,1.8-2.5,2.1c-0.4,0.1-0.9,0.2-1.3,0.2c0,0,0,0,0,0c-1.9,0-3.5-1.2-4.1-3c-0.4-1.1-0.3-2.3,0.3-3.3
		c0.5-1,1.4-1.8,2.5-2.1c0.4-0.1,0.9-0.2,1.3-0.2c1.9,0,3.5,1.2,4.1,3C31.6,23.8,31.5,24.9,31,26z"/>
	<path fill="#F04B36" d="M27.2,21.7c-0.2,0-0.5,0-0.7,0.1c-0.6,0.2-1.1,0.6-1.3,1.1c-0.3,0.5-0.3,1.2-0.1,1.7
		c0.3,0.9,1.2,1.6,2.2,1.6c0,0,0,0,0,0c0.2,0,0.5,0,0.7-0.1c0.6-0.2,1.1-0.6,1.3-1.1c0.3-0.5,0.3-1.2,0.1-1.7
		C29,22.4,28.2,21.7,27.2,21.7z"/>
	<path fill="#FFD69A" d="M47,3.2H9v41.7h38c0.3,0,0.5-0.2,0.5-0.5V3.7C47.5,3.4,47.3,3.2,47,3.2z M40.3,30.7
		c-1.8,3.5-4.9,6.1-8.6,7.3c-1.5,0.5-3,0.7-4.5,0.7c0,0,0,0,0,0c-6.4,0-12.1-4.1-14-10.2c-2.5-7.7,1.8-16.1,9.5-18.6
		c1.5-0.5,3-0.7,4.5-0.7c6.4,0,12.1,4.1,14,10.2C42.4,23.2,42.1,27.2,40.3,30.7z"/>
	<path fill="#F04B36" d="M0.5,3.7v40.7c0,0.3,0.2,0.5,0.5,0.5h6V3.2H1C0.7,3.2,0.5,3.4,0.5,3.7z"/>
</g>
</svg>
