<?xml version="1.0" encoding="utf-8"?>
<!-- Generator: Adobe Illustrator 18.0.0, SVG Export Plug-In . SVG Version: 6.00 Build 0)  -->
<!DOCTYPE svg PUBLIC "-//W3C//DTD SVG 1.1//EN" "http://www.w3.org/Graphics/SVG/1.1/DTD/svg11.dtd">
<svg version="1.1" id="Layer_1" xmlns="http://www.w3.org/2000/svg" xmlns:xlink="http://www.w3.org/1999/xlink" x="0px" y="0px"
	 viewBox="0 0 48 48" enable-background="new 0 0 48 48" xml:space="preserve">
<g>
	<rect x="15.7" y="26.5" fill="#F04B36" width="9.4" height="9.3"/>
	<path fill="#F04B36" d="M34.1,20.5c-0.6-2.3-2.8-4.1-5-4.1H3.8c-1.1,0-2,0.4-2.6,1.2c-0.6,0.8-0.8,2-0.6,3.1L5.2,39
		c0.6,2.3,2.8,4.1,5,4.1h25.3c1.1,0,2-0.4,2.6-1.2c0.6-0.8,0.8-2,0.6-3.1L34.1,20.5z M29.2,35.8c0.6,0,1,0.4,1,1c0,0.6-0.4,1-1,1
		H11.7c-0.6,0-1-0.4-1-1c0-0.6,0.4-1,1-1h2v-9.3h-2c-0.6,0-1-0.4-1-1c0-0.6,0.4-1,1-1h17.4c0.6,0,1,0.4,1,1c0,0.6-0.4,1-1,1h-2v9.3
		H29.2z"/>
	<path fill="#F7A93B" d="M46.9,6.1c-0.6-0.8-1.5-1.2-2.6-1.2h-9.6c-2.2,0-4.5,1.8-5,4l-0.5,2H9.6c-1.1,0-2.1,0.4-2.7,1.2
		c-0.5,0.6-0.7,1.4-0.6,2.3H29c3.1,0,6.2,2.5,7,5.6l4,16.1l6.7-24.4c0-0.1,0-0.1,0-0.2l0.6-2.4C47.7,8,47.5,6.9,46.9,6.1z"/>
</g>
</svg>
