<?xml version="1.0" encoding="utf-8"?>
<!-- Generator: Adobe Illustrator 18.0.0, SVG Export Plug-In . SVG Version: 6.00 Build 0)  -->
<!DOCTYPE svg PUBLIC "-//W3C//DTD SVG 1.1//EN" "http://www.w3.org/Graphics/SVG/1.1/DTD/svg11.dtd">
<svg version="1.1" id="Layer_1" xmlns="http://www.w3.org/2000/svg" xmlns:xlink="http://www.w3.org/1999/xlink" x="0px" y="0px"
	 viewBox="0 0 48 48" enable-background="new 0 0 48 48" xml:space="preserve">
<g>
	<path fill="#0DB89A" d="M47,19.7h-4c-0.3,0-0.5,0.2-0.5,0.5v10.1c0,0.3,0.2,0.5,0.5,0.5h4c0.3,0,0.5-0.2,0.5-0.5V20.1
		C47.5,19.9,47.3,19.7,47,19.7z"/>
	<path fill="#E77528" d="M39.7,18.1h-34L22.2,5.4c0.6-0.5,0.7-1.3,0.3-2c-0.5-0.6-1.3-0.7-2-0.3L1.4,17.9c-0.1,0.1-0.2,0.2-0.2,0.2
		c-0.4,0.1-0.6,0.5-0.6,0.9v22.5c0,0.5,0.4,0.9,0.9,0.9h2.9v1.2c0,0.8,0.6,1.4,1.4,1.4s1.4-0.6,1.4-1.4v-1.2h27v1.2
		c0,0.8,0.6,1.4,1.4,1.4c0.8,0,1.4-0.6,1.4-1.4v-1.2h2.9c0.5,0,0.9-0.4,0.9-0.9V19C40.7,18.5,40.3,18.1,39.7,18.1z M10,36.1
		C10,36.6,9.5,37,9,37c-0.5,0-0.9-0.4-0.9-0.9v-5.8c0-0.5,0.4-0.9,0.9-0.9c0.5,0,0.9,0.4,0.9,0.9V36.1z M17.7,36.1
		c0,0.5-0.4,0.9-0.9,0.9c-0.5,0-0.9-0.4-0.9-0.9v-5.8c0-0.5,0.4-0.9,0.9-0.9c0.5,0,0.9,0.4,0.9,0.9V36.1z M25.4,36.1
		c0,0.5-0.4,0.9-0.9,0.9c-0.5,0-0.9-0.4-0.9-0.9v-5.8c0-0.5,0.4-0.9,0.9-0.9c0.5,0,0.9,0.4,0.9,0.9V36.1z M33.1,36.1
		c0,0.5-0.4,0.9-0.9,0.9c-0.5,0-0.9-0.4-0.9-0.9v-5.8c0-0.5,0.4-0.9,0.9-0.9c0.5,0,0.9,0.4,0.9,0.9V36.1z M36,27.2H5.1
		c-0.5,0-0.9-0.4-0.9-0.9c0-0.5,0.4-0.9,0.9-0.9H36c0.5,0,0.9,0.4,0.9,0.9C37,26.7,36.6,27.2,36,27.2z"/>
</g>
</svg>
