<?xml version="1.0" encoding="utf-8"?>
<!-- Generator: Adobe Illustrator 18.0.0, SVG Export Plug-In . SVG Version: 6.00 Build 0)  -->
<!DOCTYPE svg PUBLIC "-//W3C//DTD SVG 1.1//EN" "http://www.w3.org/Graphics/SVG/1.1/DTD/svg11.dtd">
<svg version="1.1" id="Layer_1" xmlns="http://www.w3.org/2000/svg" xmlns:xlink="http://www.w3.org/1999/xlink" x="0px" y="0px"
	 viewBox="0 0 48 48" enable-background="new 0 0 48 48" xml:space="preserve">
<g>
	<path fill="#CFD0D1" d="M43.1,18.4c0-0.1,0.1-0.1,0.1-0.2c0.1-0.7,0.2-1.3,0.2-1.9c0-0.4,0-0.8-0.1-1.2c0.6-0.2,1.1-0.7,1-1.2
		c-0.1-0.6-0.7-1-1.4-1C41,5.8,33.2,0.5,24,0.5c-9.2,0-17,5.3-18.9,12.4c-0.7,0-1.4,0.4-1.5,1c-0.1,0.6,0.4,1.1,1.1,1.2
		c0,0.4-0.1,0.8-0.1,1.2c0,0.6,0,1.3,0.2,1.9c0,0.1,0,0.2,0.1,0.2c-0.7,0.7-1.2,1.7-1.2,2.7c0,2.4,2.4,4.4,5.3,4.4c0,0,0.1,0,0.1,0
		c0.5,0,0.9-0.3,0.9-0.8v-7.2c0-0.4-0.4-0.7-0.9-0.8c0,0-0.1,0-0.1,0c-0.5,0-1.1,0.1-1.6,0.2c0-0.2,0-0.5,0-0.7c0-0.3,0-0.7,0.1-1
		c0.6-0.1,1.1-0.5,1.2-1c0.1-0.5-0.3-0.9-0.8-1.1C9.6,7.2,16.1,2.8,24,2.8c7.8,0,14.4,4.4,16.1,10.4c-0.6,0.2-0.9,0.7-0.9,1.2
		c0.1,0.5,0.6,0.9,1.3,1c0,0.3,0.1,0.6,0.1,1c0,0.2,0,0.5,0,0.7c-0.5-0.1-1-0.2-1.6-0.2c0,0-0.1,0-0.1,0c-0.5,0-0.9,0.3-0.9,0.8v7.2
		c0,0.4,0.4,0.7,0.9,0.8c0,0,0.1,0,0.1,0c3,0,5.4-2,5.4-4.4C44.4,20.1,43.9,19.2,43.1,18.4z"/>
	<path fill="#4DA0D8" d="M33.8,18.3c0-5.7-4.4-10.4-9.8-10.4c-5.4,0-9.8,4.7-9.8,10.4c0,5.7,4.4,10.4,9.8,10.4
		C29.4,28.7,33.8,24,33.8,18.3z"/>
	<path fill="#F04B36" d="M24,30.7c-10.7,0-20.2,6.1-23.4,15.1c-0.1,0.4-0.1,0.8,0.2,1.1c0.3,0.3,0.7,0.5,1.2,0.5h44.1
		c0.5,0,0.9-0.2,1.2-0.5c0.3-0.3,0.3-0.8,0.2-1.1C44.2,36.8,34.7,30.7,24,30.7z"/>
</g>
</svg>
