<?xml version="1.0" encoding="utf-8"?>
<!-- Generator: Adobe Illustrator 18.0.0, SVG Export Plug-In . SVG Version: 6.00 Build 0)  -->
<!DOCTYPE svg PUBLIC "-//W3C//DTD SVG 1.1//EN" "http://www.w3.org/Graphics/SVG/1.1/DTD/svg11.dtd">
<svg version="1.1" id="Layer_1" xmlns="http://www.w3.org/2000/svg" xmlns:xlink="http://www.w3.org/1999/xlink" x="0px" y="0px"
	 viewBox="0 0 48 48" enable-background="new 0 0 48 48" xml:space="preserve">
<g>
	<ellipse fill="#CFD0D1" cx="23.7" cy="7.5" rx="4.3" ry="4"/>
	<path fill="#4DA0D8" d="M0.5,29.1v18.4h47V29.1H0.5z M9.2,43.5c-3.1,0-5.6-2.3-5.6-5.2c0-2.9,2.5-5.2,5.6-5.2
		c3.1,0,5.6,2.3,5.6,5.2C14.8,41.2,12.3,43.5,9.2,43.5z M24,43.5c-3.1,0-5.6-2.3-5.6-5.2c0-2.9,2.5-5.2,5.6-5.2
		c3.1,0,5.6,2.3,5.6,5.2C29.6,41.2,27.1,43.5,24,43.5z M38.8,43.5c-3.1,0-5.6-2.3-5.6-5.2c0-2.9,2.5-5.2,5.6-5.2
		c3.1,0,5.6,2.3,5.6,5.2C44.4,41.2,41.9,43.5,38.8,43.5z"/>
	<ellipse fill="#F04B36" cx="38.8" cy="38.3" rx="2.6" ry="2.4"/>
	<ellipse fill="#F04B36" cx="24" cy="38.3" rx="2.6" ry="2.4"/>
	<ellipse fill="#F04B36" cx="9.2" cy="38.3" rx="2.6" ry="2.4"/>
	<ellipse fill="#E77528" cx="13.6" cy="24.3" rx="7.3" ry="2.6"/>
	<ellipse fill="#E77528" cx="33.7" cy="24.3" rx="7.3" ry="2.6"/>
	<path fill="#0DB89A" d="M44.4,24.7H42c-0.4,2.2-4.5,3.3-8.3,3.3c-2.8,0-5.7-0.5-7.2-1.7c-0.1-0.1-0.2-0.2-0.3-0.3
		C26.1,26,26,25.9,26,25.9c-0.1-0.1-0.2-0.2-0.2-0.3c-0.1-0.1-0.1-0.2-0.2-0.3c0-0.1-0.1-0.2-0.1-0.2c0-0.1-0.1-0.2-0.1-0.3
		c0-0.1-0.1-0.3-0.1-0.4c0-1.4,1.3-2.3,3.2-2.9v-5.5h1.3c0.6,0,1.1-0.3,1.5-0.7l3.4-4.1c0.2-0.3,0.4-0.7,0.4-1.1V2.2
		c0-1-0.8-1.7-1.9-1.7c-1,0-1.9,0.8-1.9,1.7v7.2l-2.5,3h-0.3h-9.6h-0.3c-0.3,0-0.6,0.1-0.9,0.2l-3,1.5l1.1-3.8
		c0.3-0.9-0.3-1.9-1.3-2.1c-1-0.2-2,0.3-2.3,1.2l-2.2,7.7c-0.2,0.7,0.1,1.4,0.7,1.8c0.3,0.2,0.7,0.4,1.1,0.4c0.3,0,0.6-0.1,0.9-0.2
		l6.2-3.1v5.5c1.8,0.6,3,1.5,3,2.8c0,0.1,0,0.3-0.1,0.4c0,0.1,0,0.2-0.1,0.3c0,0.1-0.1,0.2-0.1,0.2c-0.1,0.1-0.1,0.2-0.2,0.3
		c-0.1,0.1-0.1,0.2-0.2,0.3c-0.1,0.1-0.1,0.1-0.2,0.2c-0.1,0.1-0.2,0.2-0.3,0.3c-1.6,1.1-4.5,1.7-7.2,1.7c-3.9,0-8-1-8.3-3.3h-2
		l-2.3,3.8h45.8L44.4,24.7z"/>
</g>
</svg>
