<?xml version="1.0" encoding="utf-8"?>
<!-- Generator: Adobe Illustrator 18.0.0, SVG Export Plug-In . SVG Version: 6.00 Build 0)  -->
<!DOCTYPE svg PUBLIC "-//W3C//DTD SVG 1.1//EN" "http://www.w3.org/Graphics/SVG/1.1/DTD/svg11.dtd">
<svg version="1.1" id="Layer_1" xmlns="http://www.w3.org/2000/svg" xmlns:xlink="http://www.w3.org/1999/xlink" x="0px" y="0px"
	 viewBox="0 0 48 48" enable-background="new 0 0 48 48" xml:space="preserve">
<g>
	<path fill="#CFD0D1" d="M46.9,19.9c-1.8-5.5-6.9-9.2-12.7-9.2v10.7c1.1,0,2.2,0.7,2.5,1.8c0.4,1.3-0.3,2.8-1.7,3.2
		c-0.3,0.1-0.6,0.1-0.9,0.1v10.8c0,0,0.1,0,0.1,0c1.4,0,2.8-0.2,4.1-0.6c3.4-1.1,6.1-3.4,7.8-6.6C47.6,26.9,47.9,23.3,46.9,19.9z"/>
	<path fill="#294E58" d="M12.9,29.9c-0.5,0-1,0.1-1.5,0.3c-1.4,0.5-2,1.4-1.9,1.8c0.1,0.2,0.5,0.4,1.1,0.4c0.5,0,1-0.1,1.5-0.3
		c1.4-0.5,2-1.4,1.9-1.8C14,30.1,13.6,29.9,12.9,29.9z"/>
	<path fill="#294E58" d="M31.8,7.1H1c-0.3,0-0.5,0.2-0.5,0.5v32.8c0,0.3,0.2,0.5,0.5,0.5h30.8c0.3,0,0.5-0.2,0.5-0.5V7.6
		C32.3,7.3,32.1,7.1,31.8,7.1z M23.7,21.9c-0.5,0.2-1.1-0.1-1.3-0.7c-1.4-4.6-4.7-5.4-6.3-5.6v14.5c0,0,0,0,0,0
		c0.1,1.4-1.2,3-3.2,3.7c-0.7,0.3-1.5,0.4-2.1,0.4c-1.5,0-2.6-0.6-3-1.7c-0.6-1.6,0.7-3.5,3.1-4.3c0.7-0.3,1.5-0.4,2.1-0.4
		c0.4,0,0.8,0.1,1.2,0.1V14.7c0-0.5,0.4-0.9,0.9-1c0.1,0,6.9-0.7,9.3,7C24.5,21.2,24.2,21.7,23.7,21.9z"/>
</g>
</svg>
