<?xml version="1.0" encoding="utf-8"?>
<!-- Generator: Adobe Illustrator 18.0.0, SVG Export Plug-In . SVG Version: 6.00 Build 0)  -->
<!DOCTYPE svg PUBLIC "-//W3C//DTD SVG 1.1//EN" "http://www.w3.org/Graphics/SVG/1.1/DTD/svg11.dtd">
<svg version="1.1" id="Layer_1" xmlns="http://www.w3.org/2000/svg" xmlns:xlink="http://www.w3.org/1999/xlink" x="0px" y="0px"
	 viewBox="0 0 48 48" enable-background="new 0 0 48 48" xml:space="preserve">
<g>
	<polygon fill="#4DA0D8" points="17.6,31.7 14.7,47.5 33.3,47.5 30.4,31.7 	"/>
	<path fill="#0DB89A" d="M33.2,11c-2.9,0.4-5.7,0.6-7.5,0.6l3.8,17.7L33.2,11z"/>
	<path fill="#0DB89A" d="M18.6,30.2l3.8-18.6c-1.8-0.1-4.8-0.2-7.8-0.7L18.6,30.2z"/>
	<path fill="#06728D" d="M8.8,9.5c1.2,4.9,4.6,18.3,8.5,20.9h0.4l-4.2-19.6C11.8,10.4,10.2,10,8.8,9.5z"/>
	<path fill="#06728D" d="M24,11.6c-0.1,0-0.4,0-0.7,0l-3.8,18.8h4.1h0.6h4.4l-4-18.8C24.4,11.6,24.2,11.6,24,11.6z"/>
	<path fill="#06728D" d="M30.2,30.4h0.5c3.9-2.6,7.3-16,8.5-20.9c-1.5,0.6-3.3,1-5.1,1.3L30.2,30.4z"/>
	<path fill="#CFD0D1" d="M24,0.5c-9.7,0-17.5,2.1-17.5,4.6S14.3,9.7,24,9.7c9.7,0,17.5-2.1,17.5-4.6S33.7,0.5,24,0.5z M24,7
		c-5.8,0-10.4-0.9-10.4-1.9c0-1.1,4.7-1.9,10.4-1.9c5.8,0,10.4,0.9,10.4,1.9C34.4,6.2,29.8,7,24,7z"/>
</g>
</svg>
