<?xml version="1.0" encoding="utf-8"?>
<!-- Generator: Adobe Illustrator 18.0.0, SVG Export Plug-In . SVG Version: 6.00 Build 0)  -->
<!DOCTYPE svg PUBLIC "-//W3C//DTD SVG 1.1//EN" "http://www.w3.org/Graphics/SVG/1.1/DTD/svg11.dtd">
<svg version="1.1" id="Layer_1" xmlns="http://www.w3.org/2000/svg" xmlns:xlink="http://www.w3.org/1999/xlink" x="0px" y="0px"
	 viewBox="0 0 48 48" enable-background="new 0 0 48 48" xml:space="preserve">
<g>
	<path fill="#E77528" d="M46.9,37.4c-0.9-0.7-2.6-0.1-3.9,1.4c-0.7,0.8-1.1,1.7-1.2,2.5c-2.2,2.2-4.8,3.1-6.9,3.3
		c3-2.4,5-6.1,5-10.2c0-7.2-5.8-13-13-13c-2.4,0-4.7,0.7-6.6,1.8c0.6-7.5,6.1-12.3,9.5-14.6c2.3-0.9,3.7-2,3.7-3.1
		c0-2.8-7.3-5-16.4-5c-9,0-16.4,2.2-16.4,5c0,1.2,1.4,2.3,3.8,3.2c3.4,2.4,9,7.3,9.4,15v10.5l0,0c0,0.1,0,0.2,0,0.3
		c0,7.2,5.8,13,13,13c1,0,2-0.1,3-0.4c0.1,0,1.3,0.3,3,0.3c2.9,0,7.3-0.7,10.9-4.3c0.8-0.2,1.7-0.8,2.4-1.7
		C47.4,40,47.8,38.1,46.9,37.4z M37.4,34.5c0,1.3-0.3,2.6-0.7,3.8h-5.5v-5.1h6.1C37.4,33.6,37.4,34,37.4,34.5z M26.8,23.9
		c4.7,0,8.7,3,10.1,7.3h-5.6v-1.5h-0.6v-0.9h0.6v-0.5h-2v0.5h0.6v0.9h-0.6v1.5H27v-1.5h-0.6v-0.9H27v-0.5h-2v0.5h0.6v0.9H25v1.5
		h-2.2v-1.5h-0.6v-0.9h0.6v-0.5h-2v0.5h0.6v0.9h-0.6v1.5h-4C18.2,26.9,22.1,23.9,26.8,23.9z M29.2,33.1v5.1H27v-5.1H29.2z M25,33.1
		v5.1h-2.2v-5.1H25z M3.7,5.2c0-1.8,5.9-3.2,13.3-3.2c7.3,0,13.3,1.4,13.3,3.2c0,1.8-5.9,3.2-13.3,3.2C9.6,8.4,3.7,7,3.7,5.2z
		 M16.9,38.3c-0.4-1.2-0.7-2.4-0.7-3.8c0-0.5,0-0.9,0.1-1.4h4.5v5.1H16.9z M26.8,45.1c-3.7,0-7-1.9-8.9-4.8h2.9v1.5h2v-1.5H25v1.5h2
		v-1.5h2.2v1.5h2v-1.5h4.5C33.8,43.2,30.5,45.1,26.8,45.1z"/>
</g>
</svg>
