<?xml version="1.0" encoding="utf-8"?>
<!-- Generator: Adobe Illustrator 18.0.0, SVG Export Plug-In . SVG Version: 6.00 Build 0)  -->
<!DOCTYPE svg PUBLIC "-//W3C//DTD SVG 1.1//EN" "http://www.w3.org/Graphics/SVG/1.1/DTD/svg11.dtd">
<svg version="1.1" id="Layer_1" xmlns="http://www.w3.org/2000/svg" xmlns:xlink="http://www.w3.org/1999/xlink" x="0px" y="0px"
	 viewBox="0 0 48 48" enable-background="new 0 0 48 48" xml:space="preserve">
<g>
	<path fill="#4DA0D8" d="M36.3,13.6H11.7c-0.5,0-1,0.4-1,1v32c0,0.5,0.4,1,1,1h24.6c0.5,0,1-0.4,1-1v-32
		C37.3,14,36.8,13.6,36.3,13.6z M31,36.4c-0.2,0.1-0.4,0.1-0.7,0.1c-1.2,0-2.4-1.1-3-2.7C27,33,26.9,32.1,27,31.4H16.7
		c-0.5,0-1-0.4-1-1c0,0,0,0,0,0c-0.1-1.6,1.2-3.7,2.2-4.5c0.4-0.4,1-0.3,1.4,0.1c0.4,0.4,0.3,1-0.1,1.4c-0.5,0.4-1.1,1.3-1.3,2h3
		c0.3-1.4,1.3-2.9,2.1-3.5c0.4-0.4,1-0.3,1.4,0.1c0.4,0.4,0.3,1-0.1,1.4c-0.5,0.4-1.1,1.3-1.3,2h6.1c0,0,0,0,0.1,0c0,0,0.1,0,0.1,0
		c1.2,0,2.4,1.1,3,2.7C32.8,34.1,32.3,35.9,31,36.4z"/>
	<path fill="#4DA0D8" d="M29.1,31.4c-0.1,0.1-0.3,0.8,0,1.8c0.4,1,1,1.4,1.1,1.4h0c0.1-0.1,0.3-0.8,0-1.8
		C29.9,31.8,29.3,31.4,29.1,31.4z"/>
	<path fill="#294E58" d="M34.5,1.5c0-0.5-0.4-1-1-1H14.5c-0.5,0-1,0.4-1,1V12h21V1.5z M20.7,8.6c0,0.5-0.4,1-1,1c-0.5,0-1-0.4-1-1
		v-4c0-0.5,0.4-1,1-1c0.5,0,1,0.4,1,1V8.6z M29.3,8.9c0,0.5-0.4,1-1,1c-0.5,0-1-0.4-1-1V4.3c0-0.5,0.4-1,1-1c0.5,0,1,0.4,1,1V8.9z"
		/>
</g>
</svg>
