<?xml version="1.0" encoding="utf-8"?>
<!-- Generator: Adobe Illustrator 18.0.0, SVG Export Plug-In . SVG Version: 6.00 Build 0)  -->
<!DOCTYPE svg PUBLIC "-//W3C//DTD SVG 1.1//EN" "http://www.w3.org/Graphics/SVG/1.1/DTD/svg11.dtd">
<svg version="1.1" id="Layer_1" xmlns="http://www.w3.org/2000/svg" xmlns:xlink="http://www.w3.org/1999/xlink" x="0px" y="0px"
	 viewBox="0 0 48 48" enable-background="new 0 0 48 48" xml:space="preserve">
<g>
	<path fill="#F04B36" d="M47,5.3H1c-0.3,0-0.5,0.2-0.5,0.5v36.4c0,0.3,0.2,0.5,0.5,0.5h46c0.3,0,0.5-0.2,0.5-0.5V5.8
		C47.5,5.5,47.3,5.3,47,5.3z M33.2,11.8L30,22.9c0.2,2.2-0.2,4.5-1.3,6.5c-1.5,2.9-3.9,5-7,5.9c-1.2,0.4-2.4,0.6-3.7,0.6
		c-5.2,0-9.8-3.3-11.4-8.3c-1-3.1-0.7-6.3,0.7-9.2c1.5-2.9,3.9-5,7-5.9c1.2-0.4,2.4-0.6,3.7-0.6c4.8,0,9.1,2.8,11,7.1l2.3-7.9
		c0.2-0.5,0.7-0.8,1.2-0.7C33.1,10.7,33.4,11.2,33.2,11.8z M39,35.4c-0.8,0-1.5-0.7-1.5-1.5c0-0.8,0.7-1.5,1.5-1.5
		c0.8,0,1.5,0.7,1.5,1.5C40.5,34.7,39.8,35.4,39,35.4z M39,27.9c-0.8,0-1.5-0.7-1.5-1.5c0-0.8,0.7-1.5,1.5-1.5
		c0.8,0,1.5,0.7,1.5,1.5C40.5,27.2,39.8,27.9,39,27.9z M41.1,19.6h-4.2c-0.6,0-1-0.4-1-1c0-0.6,0.4-1,1-1h4.2c0.6,0,1,0.4,1,1
		C42.1,19.1,41.6,19.6,41.1,19.6z M41.1,13.6h-4.2c-0.6,0-1-0.4-1-1c0-0.6,0.4-1,1-1h4.2c0.6,0,1,0.4,1,1
		C42.1,13.1,41.6,13.6,41.1,13.6z"/>
	<path fill="#06728D" d="M17,15c-0.2-0.5-0.7-0.8-1.3-0.6c-2.6,0.8-4.7,2.7-6,5.1c-1.3,2.4-1.5,5.2-0.6,7.8c0.1,0.4,0.5,0.7,1,0.7
		c0.1,0,0.2,0,0.3,0c0.5-0.2,0.8-0.7,0.6-1.3c-0.7-2.1-0.5-4.3,0.5-6.3c1-2,2.7-3.4,4.8-4.1C16.9,16.1,17.2,15.5,17,15z"/>
	<circle fill="#E77528" cx="18.1" cy="24" r="3"/>
	<path fill="#06728D" d="M29,19.1l-1.5,5.1L24,25.9c-0.5,0.2-0.7,0.8-0.5,1.3c0.2,0.4,0.5,0.6,0.9,0.6c0.1,0,0.3,0,0.4-0.1l4-1.8
		c0.3-0.1,0.5-0.3,0.5-0.6l0.7-2.3c-0.1-0.9-0.2-1.8-0.5-2.6C29.3,19.9,29.2,19.5,29,19.1z"/>
</g>
</svg>
