<?xml version="1.0" encoding="utf-8"?>
<!-- Generator: Adobe Illustrator 18.0.0, SVG Export Plug-In . SVG Version: 6.00 Build 0)  -->
<!DOCTYPE svg PUBLIC "-//W3C//DTD SVG 1.1//EN" "http://www.w3.org/Graphics/SVG/1.1/DTD/svg11.dtd">
<svg version="1.1" id="Layer_1" xmlns="http://www.w3.org/2000/svg" xmlns:xlink="http://www.w3.org/1999/xlink" x="0px" y="0px"
	 viewBox="0 0 48 48" enable-background="new 0 0 48 48" xml:space="preserve">
<g>
	<path fill="#F04B36" d="M10.5,0.5C5,0.5,0.5,5.2,0.5,11c0,5.8,4.5,10.5,10,10.5c5.5,0,10-4.7,10-10.5C20.6,5.2,16.1,0.5,10.5,0.5z
		 M10.5,16.1c-2.7,0-4.9-2.3-4.9-5.2c0-2.8,2.2-5.2,4.9-5.2c2.7,0,4.9,2.3,4.9,5.2C15.5,13.8,13.3,16.1,10.5,16.1z"/>
	<path fill="#0DB89A" d="M42.7,22.5H26.4c-2.6,0-4.8,2-4.8,4.5v12.1c0,2.5,2.1,4.5,4.8,4.5h16.4c2.6,0,4.8-2,4.8-4.5V27
		C47.5,24.5,45.4,22.5,42.7,22.5z"/>
	<path fill="#E8B944" d="M10.5,23.6c-3.6,0-6.8-1.6-9-4.2v27c0,0.6,0.5,1.1,1,1.1h15.9c0.6,0,1-0.5,1-1.1v-27
		C17.3,22,14.1,23.6,10.5,23.6z M11.6,41c0,0.6-0.5,1.1-1,1.1c-0.6,0-1-0.5-1-1.1v-2.8c0-0.6,0.5-1.1,1-1.1c0.6,0,1,0.5,1,1.1V41z"
		/>
</g>
</svg>
