<?xml version="1.0" encoding="utf-8"?>
<!-- Generator: Adobe Illustrator 18.0.0, SVG Export Plug-In . SVG Version: 6.00 Build 0)  -->
<!DOCTYPE svg PUBLIC "-//W3C//DTD SVG 1.1//EN" "http://www.w3.org/Graphics/SVG/1.1/DTD/svg11.dtd">
<svg version="1.1" id="Layer_1" xmlns="http://www.w3.org/2000/svg" xmlns:xlink="http://www.w3.org/1999/xlink" x="0px" y="0px"
	 viewBox="0 0 48 48" enable-background="new 0 0 48 48" xml:space="preserve">
<g>
	<path fill="#E77528" d="M24,5.6c-9.7,0-17.5,7.9-17.5,17.5S14.3,40.7,24,40.7c9.7,0,17.5-7.9,17.5-17.5S33.7,5.6,24,5.6z M24,27.8
		c-2.6,0-4.6-2.1-4.6-4.6c0-2.6,2.1-4.6,4.6-4.6s4.6,2.1,4.6,4.6C28.6,25.7,26.6,27.8,24,27.8z"/>
	<path fill="#F04B36" d="M35.9,38.6c-3.3,2.6-7.4,4.1-11.9,4.1c-4.5,0-8.6-1.5-11.9-4.1L7.6,46c-0.2,0.3-0.2,0.7,0,1
		c0.2,0.3,0.5,0.5,0.9,0.5h31.3c0.4,0,0.7-0.2,0.9-0.5c0.2-0.3,0.2-0.7,0-1L35.9,38.6z"/>
	<path fill="#4DA0D8" d="M24,3.7c0.3,0,0.7,0,1,0V1.5c0-0.5-0.4-1-1-1c-0.5,0-1,0.4-1,1v2.2C23.3,3.7,23.7,3.7,24,3.7z"/>
</g>
</svg>
