<?xml version="1.0" encoding="utf-8"?>
<!-- Generator: Adobe Illustrator 18.0.0, SVG Export Plug-In . SVG Version: 6.00 Build 0)  -->
<!DOCTYPE svg PUBLIC "-//W3C//DTD SVG 1.1//EN" "http://www.w3.org/Graphics/SVG/1.1/DTD/svg11.dtd">
<svg version="1.1" id="Layer_1" xmlns="http://www.w3.org/2000/svg" xmlns:xlink="http://www.w3.org/1999/xlink" x="0px" y="0px"
	 viewBox="0 0 48 48" enable-background="new 0 0 48 48" xml:space="preserve">
<g>
	<path fill="#0DB89A" d="M13.2,0.5c-4.5,0-8.1,4.4-8.1,9.8c0,5.4,3.6,9.8,8.1,9.8s8.1-4.4,8.1-9.8C21.3,4.9,17.6,0.5,13.2,0.5z"/>
	<path fill="#0DB89A" d="M34.8,0.5c-4.5,0-8.1,4.4-8.1,9.8c0,5.4,3.6,9.8,8.1,9.8s8.1-4.4,8.1-9.8C42.9,4.9,39.3,0.5,34.8,0.5z"/>
	<path fill="#06728D" d="M9.1,21.1v25.4c0,0.5,0.4,1,1,1h6.3c0.5,0,1-0.4,1-1V21.1c-1.3,0.7-2.7,1.1-4.1,1.1S10.3,21.7,9.1,21.1z"/>
	<path fill="#06728D" d="M30.7,21.1v25.4c0,0.5,0.4,1,1,1H38c0.5,0,1-0.4,1-1V21.1c-1.3,0.7-2.7,1.1-4.1,1.1
		C33.3,22.1,31.9,21.7,30.7,21.1z"/>
</g>
</svg>
