<?xml version="1.0" encoding="utf-8"?>
<!-- Generator: Adobe Illustrator 18.0.0, SVG Export Plug-In . SVG Version: 6.00 Build 0)  -->
<!DOCTYPE svg PUBLIC "-//W3C//DTD SVG 1.1//EN" "http://www.w3.org/Graphics/SVG/1.1/DTD/svg11.dtd">
<svg version="1.1" id="Layer_1" xmlns="http://www.w3.org/2000/svg" xmlns:xlink="http://www.w3.org/1999/xlink" x="0px" y="0px"
	 viewBox="0 0 48 48" enable-background="new 0 0 48 48" xml:space="preserve">
<g>
	<path fill="#F7A93B" d="M42.6,5.2H5.4c-2.7,0-4.9,2.2-4.9,4.9v6.6c0,2.7,2.2,4.9,4.9,4.9h2.8v-3.3c0-0.5,0.4-1,1-1c0.5,0,1,0.4,1,1
		v3.3h5.5v-7.1c0-0.5,0.4-1,1-1c0.5,0,1,0.4,1,1v7.1H23v-3.3c0-0.5,0.4-1,1-1c0.5,0,1,0.4,1,1v3.3h5.5v-4.9c0-0.5,0.4-1,1-1
		c0.5,0,1,0.4,1,1v4.9h5.5v-6.2c0-0.5,0.4-1,1-1c0.5,0,1,0.4,1,1v6.2h2.8c2.7,0,4.9-2.2,4.9-4.9v-6.6C47.5,7.4,45.3,5.2,42.6,5.2z"
		/>
	<path fill="#F04B36" d="M42.6,26.7H5.4c-2.7,0-4.9,2.2-4.9,4.9v6.2c0,2.7,2.2,4.9,4.9,4.9h37.2c2.7,0,4.9-2.2,4.9-4.9v-6.2
		C47.5,28.9,45.3,26.7,42.6,26.7z M25.4,35.7H6c-0.5,0-1-0.4-1-1c0-0.5,0.4-1,1-1h19.3c0.5,0,1,0.4,1,1
		C26.4,35.3,25.9,35.7,25.4,35.7z M31.7,36.2c-0.8,0-1.5-0.7-1.5-1.5c0-0.8,0.7-1.5,1.5-1.5s1.5,0.7,1.5,1.5
		C33.1,35.6,32.5,36.2,31.7,36.2z M40.3,36.2c-0.8,0-1.5-0.7-1.5-1.5c0-0.8,0.7-1.5,1.5-1.5c0.8,0,1.5,0.7,1.5,1.5
		C41.8,35.6,41.1,36.2,40.3,36.2z"/>
</g>
</svg>
