<?xml version="1.0" encoding="utf-8"?>
<!-- Generator: Adobe Illustrator 18.0.0, SVG Export Plug-In . SVG Version: 6.00 Build 0)  -->
<!DOCTYPE svg PUBLIC "-//W3C//DTD SVG 1.1//EN" "http://www.w3.org/Graphics/SVG/1.1/DTD/svg11.dtd">
<svg version="1.1" id="Layer_1" xmlns="http://www.w3.org/2000/svg" xmlns:xlink="http://www.w3.org/1999/xlink" x="0px" y="0px"
	 viewBox="0 0 48 48" enable-background="new 0 0 48 48" xml:space="preserve">
<g>
	<path fill="#06728D" d="M43,28.5c-0.4-0.6-0.8-1.2-1.2-1.8c-0.5-0.7-1.4-0.9-2.1-0.4c-0.7,0.5-0.9,1.5-0.4,2.3
		c0.4,0.6,0.8,1.2,1.2,1.9c3.3,5.1,5.1,8.4,3.1,11.5c-0.9,1.4-1.9,2.2-2.9,2.3c-1.8,0.2-4.3-1.6-7.5-5.2c0,0-0.1,0-0.1-0.1
		c1.6-2.4,1.4-6-0.6-8.4L19.1,13.6c-0.2-0.2-0.5-0.3-0.7-0.1l-1.6,1.6L8.4,4.5L3.5,9.1l8.4,10.6l-1.7,1.7c-0.2,0.2-0.2,0.5,0,0.8
		L23.5,39c1.3,1.6,3.1,2.5,4.9,2.5h0c0.9,0,1.7-0.2,2.4-0.6c0.1,0.1,0.1,0.2,0.2,0.3c3.8,4.3,6.7,6.2,9.4,6.2c0.2,0,0.3,0,0.5,0
		c2-0.2,3.7-1.4,5.1-3.7C49.4,38.6,46,33.3,43,28.5z"/>
	<path fill="#E77528" d="M6.5,2.1c-0.8-1-2-1.6-3.1-1.6C2.7,0.5,2,0.8,1.5,1.3c-0.7,0.6-1,1.6-1,2.6c0,1,0.4,2,1.1,2.9l0.6,0.7
		l4.9-4.6L6.5,2.1z"/>
</g>
</svg>
