<?xml version="1.0" encoding="utf-8"?>
<!-- Generator: Adobe Illustrator 18.0.0, SVG Export Plug-In . SVG Version: 6.00 Build 0)  -->
<!DOCTYPE svg PUBLIC "-//W3C//DTD SVG 1.1//EN" "http://www.w3.org/Graphics/SVG/1.1/DTD/svg11.dtd">
<svg version="1.1" id="Layer_1" xmlns="http://www.w3.org/2000/svg" xmlns:xlink="http://www.w3.org/1999/xlink" x="0px" y="0px"
	 viewBox="0 0 48 48" enable-background="new 0 0 48 48" xml:space="preserve">
<g>
	<path fill="#F04B36" d="M47.2,15.3c-2.1-2.5-5.3-4.6-8.5-5.6c-2.2-0.7-6.4-0.8-9.3,0.3l-4.2-6.2c2-0.6,4.9-0.6,6.6-0.1
		c2.6,0.8,5.2,2.5,6.9,4.5C39,8.7,39.5,8.9,40,8.9c0.3,0,0.7-0.1,1-0.3c0.7-0.5,0.8-1.4,0.3-2.1C39.1,4,35.9,1.9,32.8,1
		C30.2,0.2,25,0.2,22.1,2c0,0,0,0-0.1,0c-0.7,0.4-1,1.3-0.5,2l13.1,19.3c-1.3,0.5-2.5,1.5-3.5,2.7c-1.1,1.3-1.8,2.8-2,4.1
		c-0.2,1.6,0.2,2.8,1.3,3.6c0.6,0.4,1.3,0.6,2.1,0.6c1.9,0,4.2-1.2,5.8-3.2c2.4-2.9,2.7-6.3,0.7-7.7c-0.3-0.2-0.6-0.3-0.9-0.4
		l-7.1-10.4c2-0.6,4.9-0.6,6.6-0.1c2.6,0.8,5.2,2.5,6.9,4.5c0.3,0.4,0.8,0.6,1.3,0.6c0.3,0,0.7-0.1,1-0.3
		C47.6,16.9,47.7,15.9,47.2,15.3z"/>
	<path fill="#F7A93B" d="M1,5.4c-0.3,0-0.5,0.2-0.5,0.5V47c0,0.3,0.2,0.5,0.5,0.5h27.1c0.3,0,0.5-0.2,0.5-0.5V34.9
		c-1.3-1.2-1.9-3-1.6-5c0.2-1.3,0.7-2.7,1.6-4v-7.8L20,5.4H1z M14.6,42.6c-1.6,0-2.9-1.2-2.9-2.7c0-1.5,1.3-2.7,2.9-2.7
		c1.6,0,2.9,1.2,2.9,2.7C17.5,41.4,16.2,42.6,14.6,42.6z M21.9,29.6H7.2V12.1h14.7V29.6z"/>
</g>
</svg>
