<?xml version="1.0" encoding="utf-8"?>
<!-- Generator: Adobe Illustrator 18.0.0, SVG Export Plug-In . SVG Version: 6.00 Build 0)  -->
<!DOCTYPE svg PUBLIC "-//W3C//DTD SVG 1.1//EN" "http://www.w3.org/Graphics/SVG/1.1/DTD/svg11.dtd">
<svg version="1.1" id="Layer_1" xmlns="http://www.w3.org/2000/svg" xmlns:xlink="http://www.w3.org/1999/xlink" x="0px" y="0px"
	 viewBox="0 0 48 48" enable-background="new 0 0 48 48" xml:space="preserve">
<g>
	<path fill="#06728D" d="M23.1,20.7l-1.8,1.8c-0.6,0.6-0.6,1.5,0,2.1c0.3,0.3,0.7,0.4,1.1,0.4c0.4,0,0.8-0.1,1.1-0.4l2.8-2.8
		c0.3-0.3,0.5-0.7,0.4-1.1c0-0.4-0.1-0.8-0.4-1.1l-2.8-2.8c-0.6-0.6-1.6-0.6-2.2,0c-0.6,0.6-0.6,1.5,0,2.1L23.1,20.7z"/>
	<path fill="#F7A93B" d="M44.6,33c-0.5-1.5-1.4-3.1-2.2-4.7c-1.2-2.2-2.9-4.2-4.7-5.7c-0.5-0.4-1-0.8-1.6-1.1V1
		c0-0.3-0.2-0.5-0.5-0.5H12.1c-0.3,0-0.5,0.2-0.5,0.5v20.5c-2.4,1.5-4.7,4-6.3,6.8c-0.9,1.6-1.8,3.3-2.3,4.8
		c-1.5,0.7-2.5,2.1-2.5,3.8c0,2.3,1.9,4.2,4.3,4.2c2.4,0,4.3-1.9,4.3-4.2c0-1.8-1.2-3.3-2.8-3.9c0.5-1.2,1.3-2.5,1.7-3.2
		c0.9-1.7,2.2-3.3,3.6-4.5V47c0,0.3,0.2,0.5,0.5,0.5h23.6c0.3,0,0.5-0.2,0.5-0.5V25.3c1.4,1.2,2.7,2.8,3.6,4.4
		c0.4,0.7,1.2,2.1,1.7,3.4C40,33.8,39,35.2,39,36.9c0,2.3,1.9,4.2,4.3,4.2c2.4,0,4.3-1.9,4.3-4.2C47.5,35.1,46.3,33.5,44.6,33z
		 M23.8,44.2c-2.2,0-4-1.8-4-4c0-2.2,1.8-4,4-4c2.2,0,4,1.8,4,4C27.9,42.4,26.1,44.2,23.8,44.2z M30.2,31.1H17.5V6.3h12.7V31.1z"/>
</g>
</svg>
