<?xml version="1.0" encoding="utf-8"?>
<!-- Generator: Adobe Illustrator 18.0.0, SVG Export Plug-In . SVG Version: 6.00 Build 0)  -->
<!DOCTYPE svg PUBLIC "-//W3C//DTD SVG 1.1//EN" "http://www.w3.org/Graphics/SVG/1.1/DTD/svg11.dtd">
<svg version="1.1" id="Layer_1" xmlns="http://www.w3.org/2000/svg" xmlns:xlink="http://www.w3.org/1999/xlink" x="0px" y="0px"
	 viewBox="0 0 48 48" enable-background="new 0 0 48 48" xml:space="preserve">
<g>
	<path fill="#0DB89A" d="M45.6,4.4L45.3,4c-1.8-2.2-4.5-3.5-7.4-3.5c-2,0-3.9,0.6-5.5,1.7l2.3,2.9C35,5.5,35,6.2,34.5,6.6
		c-0.2,0.1-0.4,0.2-0.7,0.2c-0.3,0-0.7-0.1-0.9-0.4l-2.3-2.9l-4,3l2.3,2.9c0.4,0.5,0.3,1.1-0.2,1.5c-0.2,0.1-0.4,0.2-0.7,0.2
		c-0.3,0-0.7-0.1-0.9-0.4l-2.3-2.9l-4,3l2.3,2.9c0.4,0.5,0.3,1.1-0.2,1.5c-0.2,0.1-0.4,0.2-0.7,0.2c-0.3,0-0.7-0.1-0.9-0.4l-2.3-2.9
		l-0.9,0.7c-2,1.5-3.2,3.6-3.5,6c-0.3,2.2,0.2,4.4,1.5,6.2l-6.4,4.3c-0.4,0.3-0.6,0.8-0.6,1.3c0,0,0,0,0,0v14H2
		c-0.8,0-1.5,0.7-1.5,1.5c0,0.8,0.7,1.5,1.5,1.5h17.2c0.8,0,1.5-0.7,1.5-1.5c0-0.8-0.7-1.5-1.5-1.5h-7.1V31.2l5.9-3.8
		c0,0,0.1-0.1,0.1-0.1c1.7,1.4,3.8,2.2,6.1,2.2c2.1,0,4.1-0.6,5.7-1.9l0.9-0.7L28.5,24c-0.4-0.5-0.3-1.1,0.2-1.5
		c0.5-0.4,1.2-0.3,1.5,0.2l2.3,2.9l4-3l-2.3-2.9c-0.4-0.5-0.3-1.1,0.2-1.5c0.5-0.4,1.2-0.3,1.5,0.2l2.3,2.9l4-3l-2.3-2.9
		c-0.4-0.5-0.3-1.1,0.2-1.5c0.5-0.4,1.2-0.3,1.5,0.2l2.3,2.9C48,13.8,48.6,8.3,45.6,4.4z"/>
</g>
</svg>
