<?xml version="1.0" encoding="utf-8"?>
<!-- Generator: Adobe Illustrator 18.0.0, SVG Export Plug-In . SVG Version: 6.00 Build 0)  -->
<!DOCTYPE svg PUBLIC "-//W3C//DTD SVG 1.1//EN" "http://www.w3.org/Graphics/SVG/1.1/DTD/svg11.dtd">
<svg version="1.1" id="Layer_1" xmlns="http://www.w3.org/2000/svg" xmlns:xlink="http://www.w3.org/1999/xlink" x="0px" y="0px"
	 viewBox="0 0 48 48" enable-background="new 0 0 48 48" xml:space="preserve">
<g>
	<path fill="#E77528" d="M0.5,13.2v21.6c0,0.3,0.2,0.5,0.5,0.5h5.9V12.7H1C0.7,12.7,0.5,12.9,0.5,13.2z"/>
	<path fill="#F7A93B" d="M17,5.8l-8,7c-0.1,0.1-0.2,0.2-0.2,0.4v21.6c0,0.2,0.1,0.3,0.2,0.4l7.9,6.7C15,37,14.1,30.5,14.1,24
		C14.1,17.4,15.1,10.7,17,5.8z"/>
	<path fill="#4DA0D8" d="M23.3,38.1c-0.5-3.4,2.3-6.4,6.5-7.1c0.5-0.1,1.1-0.1,1.6-0.1c0.5,0,1,0,1.4,0.1c0.3-2.2,0.4-4.6,0.4-7
		c0-13.2-3.8-23.5-8.6-23.5S16,10.8,16,24c0,13.2,3.8,23.5,8.6,23.5c1.9,0,3.7-1.6,5.2-4.6C26.3,42.9,23.7,41,23.3,38.1z M22.4,31.3
		c-0.4,0-0.8-0.3-0.9-0.8c-0.1-0.5,0.2-1.1,0.7-1.3c2.2-0.7,3.7-2.8,3.7-5.3c0-2.4-1.5-4.6-3.7-5.3c-0.5-0.2-0.8-0.7-0.7-1.3
		c0.1-0.5,0.7-0.9,1.2-0.7c3,0.9,5.1,3.9,5.1,7.2s-2.1,6.3-5.1,7.2C22.6,31.3,22.5,31.3,22.4,31.3z"/>
	<path fill="#0DB89A" d="M45.9,18.7c-1-1.9-3.7-4.8-6.3-5.2c0,0,0,0,0,0c0,0,0,0,0,0c-0.5-0.1-1,0.2-1.1,0.8l-3.7,19.5
		c-0.8-0.6-2-0.9-3.3-0.9c-0.4,0-0.9,0-1.3,0.1c-3.1,0.5-5.2,2.6-4.9,4.8c0.3,1.8,2.2,3.1,4.7,3.1c0.4,0,0.9,0,1.3-0.1
		c1.4-0.2,2.6-0.8,3.6-1.6c0.8-0.7,1.3-1.5,1.4-2.4c0,0,0-0.1,0-0.1l2.2-11.9c1.5,0.7,3.4,2.5,4.1,3.9c1,2,1.5,4.6,1.3,7
		c-0.1,0.6,0.3,1.1,0.9,1.1c0,0,0.1,0,0.1,0c0.5,0,0.9-0.4,1-0.9c0.3-2.8-0.3-5.9-1.5-8.2c-0.9-1.7-3.1-4.1-5.4-5l1.3-6.9
		c1.5,0.7,3.4,2.5,4.1,3.9c1,2,1.5,4.6,1.3,7c-0.1,0.6,0.3,1.1,0.9,1.1c0,0,0.1,0,0.1,0c0.5,0,0.9-0.4,1-0.9
		C47.7,24.1,47.1,21.1,45.9,18.7z"/>
</g>
</svg>
