<?xml version="1.0" encoding="utf-8"?>
<!-- Generator: Adobe Illustrator 18.0.0, SVG Export Plug-In . SVG Version: 6.00 Build 0)  -->
<!DOCTYPE svg PUBLIC "-//W3C//DTD SVG 1.1//EN" "http://www.w3.org/Graphics/SVG/1.1/DTD/svg11.dtd">
<svg version="1.1" id="Layer_1" xmlns="http://www.w3.org/2000/svg" xmlns:xlink="http://www.w3.org/1999/xlink" x="0px" y="0px"
	 viewBox="0 0 48 48" enable-background="new 0 0 48 48" xml:space="preserve">
<g>
	<path fill="#F04B36" d="M47.5,46.7L42.5,1c0-0.3-0.2-0.5-0.5-0.5H5C4.7,0.5,4.5,0.7,4.5,1l-4,45.9c0,0.2,0,0.3,0.1,0.4
		c0.1,0.1,0.2,0.2,0.4,0.2h46c0,0,0,0,0,0c0.3,0,0.5-0.2,0.5-0.5C47.5,46.9,47.5,46.8,47.5,46.7z M36.7,6.4c0.8,0,1.5,0.7,1.5,1.6
		s-0.7,1.6-1.5,1.6c-0.8,0-1.5-0.7-1.5-1.6S35.9,6.4,36.7,6.4z M10.7,6.4c0.8,0,1.5,0.7,1.5,1.6s-0.7,1.6-1.5,1.6
		C9.9,9.6,9.2,8.9,9.2,8S9.9,6.4,10.7,6.4z M14.9,35.2h-1.9v4.6c0,0.6-0.4,1.1-1,1.1c-0.6,0-1-0.5-1-1.1v-4.6H9.2
		c-0.6,0-1-0.5-1-1.1c0-0.6,0.4-1.1,1-1.1h1.9V18.6c0-0.6,0.4-1.1,1-1.1c0.6,0,1,0.5,1,1.1v14.5h1.9c0.6,0,1,0.5,1,1.1
		C15.9,34.8,15.5,35.2,14.9,35.2z M17.9,8c0-0.9,0.7-1.6,1.5-1.6c0.8,0,1.5,0.7,1.5,1.6s-0.7,1.6-1.5,1.6C18.5,9.6,17.9,8.9,17.9,8z
		 M26.1,27.9h-1.9v11.9c0,0.6-0.4,1.1-1,1.1c-0.6,0-1-0.5-1-1.1V27.9h-1.9c-0.6,0-1-0.5-1-1.1c0-0.6,0.4-1.1,1-1.1h1.9v-7.1
		c0-0.6,0.4-1.1,1-1.1c0.6,0,1,0.5,1,1.1v7.1h1.9c0.6,0,1,0.5,1,1.1C27.1,27.4,26.7,27.9,26.1,27.9z M28.1,9.6
		c-0.8,0-1.5-0.7-1.5-1.6s0.7-1.6,1.5-1.6c0.8,0,1.5,0.7,1.5,1.6S28.9,9.6,28.1,9.6z M37.3,31.9h-1.9v8c0,0.6-0.4,1.1-1,1.1
		c-0.6,0-1-0.5-1-1.1v-8h-1.9c-0.6,0-1-0.5-1-1.1c0-0.6,0.4-1.1,1-1.1h1.9V18.6c0-0.6,0.4-1.1,1-1.1c0.6,0,1,0.5,1,1.1v11.1h1.9
		c0.6,0,1,0.5,1,1.1C38.3,31.4,37.8,31.9,37.3,31.9z"/>
</g>
</svg>
