<?xml version="1.0" encoding="utf-8"?>
<!-- Generator: Adobe Illustrator 18.0.0, SVG Export Plug-In . SVG Version: 6.00 Build 0)  -->
<!DOCTYPE svg PUBLIC "-//W3C//DTD SVG 1.1//EN" "http://www.w3.org/Graphics/SVG/1.1/DTD/svg11.dtd">
<svg version="1.1" id="Layer_1" xmlns="http://www.w3.org/2000/svg" xmlns:xlink="http://www.w3.org/1999/xlink" x="0px" y="0px"
	 viewBox="0 0 48 48" enable-background="new 0 0 48 48" xml:space="preserve">
<g>
	<path fill="#E77528" d="M30.1,33.6H37c0.8,0,1.5-0.7,1.5-1.5c0-0.8-0.7-1.5-1.5-1.5h-6.9c-0.8,0-1.5,0.7-1.5,1.5
		C28.6,32.9,29.2,33.6,30.1,33.6z"/>
	<path fill="#294E58" d="M41.7,36.4H17.4V15.3c-1.2,0.6-2.5,0.9-3.9,0.9c-1.4,0-2.7-0.3-3.9-0.9v21.1H6.3c-3.2,0-5.8,2.6-5.8,5.8V47
		c0,0.3,0.2,0.5,0.5,0.5h46c0.3,0,0.5-0.2,0.5-0.5v-4.8C47.5,39,44.9,36.4,41.7,36.4z"/>
	<path fill="#F04B36" d="M13.5,14.2c3.8,0,6.9-3.1,6.9-6.9c0-3.8-3.1-6.9-6.9-6.9c-3.8,0-6.9,3.1-6.9,6.9
		C6.6,11.2,9.7,14.2,13.5,14.2z"/>
</g>
</svg>
