<?xml version="1.0" encoding="utf-8"?>
<!-- Generator: Adobe Illustrator 18.0.0, SVG Export Plug-In . SVG Version: 6.00 Build 0)  -->
<!DOCTYPE svg PUBLIC "-//W3C//DTD SVG 1.1//EN" "http://www.w3.org/Graphics/SVG/1.1/DTD/svg11.dtd">
<svg version="1.1" id="Layer_1" xmlns="http://www.w3.org/2000/svg" xmlns:xlink="http://www.w3.org/1999/xlink" x="0px" y="0px"
	 viewBox="0 0 48 48" enable-background="new 0 0 48 48" xml:space="preserve">
<g>
	<path fill="#F7A93B" d="M24.8,15.3c-1.7,0-3,1.4-3,3.2v11c0,1.8,1.4,3.2,3,3.2h18.4c1.7,0,3-1.4,3-3.2v-11c0-1.8-1.4-3.2-3-3.2
		H24.8z"/>
	<path fill="#F7A93B" d="M8.1,32.7c1.5,0,2.7-1.4,2.7-3.2v-11c0-1.8-1.2-3.2-2.7-3.2H1c-0.2,0-0.3-0.1-0.5-0.1v17.7
		c0.1-0.1,0.3-0.1,0.5-0.1H8.1z"/>
	<path fill="#0DB89A" d="M47.3,43.7h-5c-0.6,0-1-0.5-1-1.1c0-0.6,0.5-1.1,1-1.1h5c0.1,0,0.2,0,0.2,0.1v-9.3
		c-0.9,1.5-2.5,2.6-4.3,2.6H24.8c-2.8,0-5.1-2.4-5.1-5.4v-11c0-3,2.3-5.4,5.1-5.4h18.4c1.8,0,3.4,1,4.3,2.6V6.4
		c-0.1,0-0.2,0.1-0.2,0.1h-5c-0.6,0-1-0.5-1-1.1c0-0.6,0.5-1.1,1-1.1h5c0.1,0,0.2,0,0.2,0.1V1.5c0-0.6-0.4-1-0.9-1H1.4
		c-0.5,0-0.9,0.4-0.9,1v2.8c0.1,0,0.2-0.1,0.2-0.1h5c0.6,0,1,0.5,1,1.1c0,0.6-0.5,1.1-1,1.1h-5c-0.1,0-0.2,0-0.2-0.1v6.9
		c0.1-0.1,0.3-0.1,0.5-0.1h7.1c2.6,0,4.7,2.4,4.7,5.4v11c0,3-2.1,5.4-4.7,5.4H1c-0.2,0-0.3-0.1-0.5-0.1v6.9c0.1,0,0.2-0.1,0.2-0.1h5
		c0.6,0,1,0.5,1,1.1c0,0.6-0.5,1.1-1,1.1h-5c-0.1,0-0.2,0-0.2-0.1v2.8c0,0.6,0.4,1,0.9,1h45.1c0.5,0,0.9-0.4,0.9-1v-2.8
		C47.4,43.7,47.3,43.7,47.3,43.7z M28.4,4.3h5c0.6,0,1,0.5,1,1.1c0,0.6-0.5,1.1-1,1.1h-5c-0.6,0-1-0.5-1-1.1
		C27.4,4.8,27.8,4.3,28.4,4.3z M14.6,4.3h5c0.6,0,1,0.5,1,1.1c0,0.6-0.5,1.1-1,1.1h-5c-0.6,0-1-0.5-1-1.1C13.6,4.8,14,4.3,14.6,4.3z
		 M19.6,43.7h-5c-0.6,0-1-0.5-1-1.1c0-0.6,0.5-1.1,1-1.1h5c0.6,0,1,0.5,1,1.1C20.6,43.2,20.2,43.7,19.6,43.7z M33.4,43.7h-5
		c-0.6,0-1-0.5-1-1.1c0-0.6,0.5-1.1,1-1.1h5c0.6,0,1,0.5,1,1.1C34.4,43.2,34,43.7,33.4,43.7z"/>
</g>
</svg>
