<?xml version="1.0" encoding="utf-8"?>
<!-- Generator: Adobe Illustrator 18.0.0, SVG Export Plug-In . SVG Version: 6.00 Build 0)  -->
<!DOCTYPE svg PUBLIC "-//W3C//DTD SVG 1.1//EN" "http://www.w3.org/Graphics/SVG/1.1/DTD/svg11.dtd">
<svg version="1.1" id="Layer_1" xmlns="http://www.w3.org/2000/svg" xmlns:xlink="http://www.w3.org/1999/xlink" x="0px" y="0px"
	 viewBox="0 0 48 48" enable-background="new 0 0 48 48" xml:space="preserve">
<g>
	<path fill="#06728D" d="M44.1,24.2c-3.6-3-10.5-4.9-18.6-5.1l0-0.4c0-1,0-1.9,0-2.9c0-1.3-0.4-2.2-1-2.8c-1-0.9-2.3-0.8-3.5-0.6
		c-0.5,0.1-0.9,0.1-1.4,0.1c0,0,0,0,0,0h-0.5c-2.6,0-5.4,0-8-0.2c-3-0.2-5.1-1.1-5.4-2.2C5.5,9.7,5.4,9,5.6,8.7c0.6-0.9,3-1,4.4-1.1
		c0.5,0,1-0.1,1.4-0.1c0.8-0.1,1.5-0.2,2.3-0.2c3-0.3,6.1-0.6,9-1.3c0.5-0.1,0.9-0.2,1.4-0.3c1.9-0.3,4-0.7,5.8-2.4
		c0.6-0.6,0.7-1.6,0.1-2.2c-0.5-0.7-1.5-0.7-2.1-0.2c-1.1,1.1-2.6,1.3-4.3,1.6c-0.5,0.1-1,0.2-1.5,0.3c-2.8,0.6-5.8,0.9-8.7,1.2
		c-0.8,0.1-1.6,0.2-2.3,0.3c-0.4,0-0.8,0.1-1.2,0.1C7.5,4.5,4.6,4.7,3.2,6.8C2.5,8,2.3,9.4,2.8,11.1c0.9,3.3,4.9,4.2,8.1,4.5
		c2.8,0.2,5.5,0.2,8.2,0.2h0.5c0,0,0,0,0,0c0.6,0,1.2-0.1,1.7-0.2c0.4,0,0.9-0.1,1.2-0.1c0,0.1,0,0.2,0,0.4c0,0.9,0,1.9,0,2.8l0,0.4
		c-8.2,0.2-15.1,2.1-18.7,5.1c-2.7,2.3-3.7,9-3.3,14.2c0.2,2.5,0.9,6.8,3.4,8.2c0.7,0.4,1.5,0.6,2.3,0.6c2.8,0,5.8-2.3,9-4.8
		c3-2.4,6.1-4.8,8.8-4.8c2.5,0,5.1,2.3,7.7,4.7c2.8,2.6,5.8,5.2,9.1,5.2c1,0,2.1-0.3,3.1-0.8c2.5-1.4,3.2-5.5,3.4-7.9
		C47.9,33.4,46.8,26.5,44.1,24.2z M6.5,38.5c-0.7,0-1.3-0.6-1.3-1.4c0-0.8,0.6-1.4,1.3-1.4c0.7,0,1.3,0.6,1.3,1.4
		C7.8,37.9,7.3,38.5,6.5,38.5z M6.5,32.1c-0.7,0-1.3-0.6-1.3-1.4c0-0.8,0.6-1.4,1.3-1.4c0.7,0,1.3,0.6,1.3,1.4
		C7.8,31.5,7.3,32.1,6.5,32.1z M13.1,38.5c-0.7,0-1.3-0.6-1.3-1.4c0-0.8,0.6-1.4,1.3-1.4c0.7,0,1.3,0.6,1.3,1.4
		C14.4,37.9,13.8,38.5,13.1,38.5z M13.1,32.1c-0.7,0-1.3-0.6-1.3-1.4c0-0.8,0.6-1.4,1.3-1.4c0.7,0,1.3,0.6,1.3,1.4
		C14.4,31.5,13.8,32.1,13.1,32.1z M25.8,28.4h-3.7c-0.5,0-1-0.5-1-1.1c0-0.6,0.4-1.1,1-1.1h3.7c0.5,0,1,0.5,1,1.1
		C26.8,28,26.4,28.4,25.8,28.4z M42.7,35.9h-2.4v2.6c0,0.6-0.4,1.1-1,1.1c-0.5,0-1-0.5-1-1.1v-2.6h-2.4c-0.5,0-1-0.5-1-1.1
		c0-0.6,0.4-1.1,1-1.1h2.4v-2.6c0-0.6,0.4-1.1,1-1.1c0.5,0,1,0.5,1,1.1v2.6h2.4c0.5,0,1,0.5,1,1.1C43.7,35.5,43.2,35.9,42.7,35.9z"
		/>
</g>
</svg>
