<?xml version="1.0" encoding="utf-8"?>
<!-- Generator: Adobe Illustrator 18.0.0, SVG Export Plug-In . SVG Version: 6.00 Build 0)  -->
<!DOCTYPE svg PUBLIC "-//W3C//DTD SVG 1.1//EN" "http://www.w3.org/Graphics/SVG/1.1/DTD/svg11.dtd">
<svg version="1.1" id="Layer_1" xmlns="http://www.w3.org/2000/svg" xmlns:xlink="http://www.w3.org/1999/xlink" x="0px" y="0px"
	 viewBox="0 0 48 48" enable-background="new 0 0 48 48" xml:space="preserve">
<g>
	<path fill="#0DB89A" d="M46.1,0.5H1.9c-0.8,0-1.4,0.7-1.4,1.6s0.6,1.6,1.4,1.6h44.1c0.8,0,1.4-0.7,1.4-1.6S46.9,0.5,46.1,0.5z"/>
	<path fill="#F7A93B" d="M42.8,5.7H5.2c-0.5,0-1,0.5-1,1.1v25.1c0,2.9,2.2,5.3,4.8,5.3h8.1l-3.7,7.9c-0.4,0.8-0.1,1.7,0.6,2.1
		c0.2,0.1,0.4,0.2,0.7,0.2c0.5,0,1-0.3,1.3-0.9l4.2-8.9c0.1-0.2,0.1-0.4,0.1-0.6h7.4c0,0.2,0.1,0.4,0.1,0.6l4.2,8.9
		c0.3,0.5,0.8,0.9,1.3,0.9c0.2,0,0.5-0.1,0.7-0.2c0.7-0.4,1-1.4,0.6-2.1l-3.7-7.9h8.1c2.6,0,4.8-2.4,4.8-5.3V6.8
		C43.7,6.2,43.3,5.7,42.8,5.7z"/>
</g>
</svg>
