<?xml version="1.0" encoding="utf-8"?>
<!-- Generator: Adobe Illustrator 18.0.0, SVG Export Plug-In . SVG Version: 6.00 Build 0)  -->
<!DOCTYPE svg PUBLIC "-//W3C//DTD SVG 1.1//EN" "http://www.w3.org/Graphics/SVG/1.1/DTD/svg11.dtd">
<svg version="1.1" id="Layer_1" xmlns="http://www.w3.org/2000/svg" xmlns:xlink="http://www.w3.org/1999/xlink" x="0px" y="0px"
	 viewBox="0 0 48 48" enable-background="new 0 0 48 48" xml:space="preserve">
<g>
	<path fill="#F04B36" d="M30.4,13.4c-5.8,0-10.6,4.8-10.6,10.6c0,5.8,4.8,10.6,10.6,10.6C36.2,34.6,41,29.8,41,24
		C41,18.2,36.2,13.4,30.4,13.4z M30.4,29.3c-2.9,0-5.3-2.4-5.3-5.3c0-2.9,2.4-5.3,5.3-5.3c2.9,0,5.3,2.4,5.3,5.3
		C35.7,26.9,33.3,29.3,30.4,29.3z"/>
	<path fill="#0DB89A" d="M47,15.2h-7.7c2.3,2.3,3.6,5.4,3.6,8.8c0,3.4-1.4,6.6-3.6,8.8H47c0.3,0,0.5-0.2,0.5-0.5V15.7
		C47.5,15.4,47.3,15.2,47,15.2z"/>
	<path fill="#0DB89A" d="M21.4,15.2H1c-0.3,0-0.5,0.2-0.5,0.5v16.7c0,0.3,0.2,0.5,0.5,0.5h20.4c-2.3-2.3-3.6-5.4-3.6-8.8
		C17.8,20.6,19.2,17.4,21.4,15.2z M9,28.9c-0.8,0-1.5-0.7-1.5-1.5c0-0.8,0.7-1.5,1.5-1.5c0.8,0,1.5,0.7,1.5,1.5
		C10.5,28.2,9.9,28.9,9,28.9z M9,22.2c-0.8,0-1.5-0.7-1.5-1.5c0-0.8,0.7-1.5,1.5-1.5c0.8,0,1.5,0.7,1.5,1.5
		C10.5,21.5,9.9,22.2,9,22.2z"/>
</g>
</svg>
