<?xml version="1.0" encoding="utf-8"?>
<!-- Generator: Adobe Illustrator 18.0.0, SVG Export Plug-In . SVG Version: 6.00 Build 0)  -->
<!DOCTYPE svg PUBLIC "-//W3C//DTD SVG 1.1//EN" "http://www.w3.org/Graphics/SVG/1.1/DTD/svg11.dtd">
<svg version="1.1" id="Layer_1" xmlns="http://www.w3.org/2000/svg" xmlns:xlink="http://www.w3.org/1999/xlink" x="0px" y="0px"
	 viewBox="0 0 48 48" enable-background="new 0 0 48 48" xml:space="preserve">
<g>
	<path fill="#4DA0D8" d="M6,7.6h8.8c0.3,0,0.5-0.2,0.5-0.5V1c0-0.3-0.2-0.5-0.5-0.5H6C5.7,0.5,5.5,0.7,5.5,1v6.1
		C5.5,7.4,5.7,7.6,6,7.6z"/>
	<path fill="#F04B36" d="M18,42.3V15.9c0-1.4,1-2.5,2.2-2.7c-0.3-2-1.9-3.5-3.8-3.5h-12c-2.1,0-3.9,1.9-3.9,4.2v29.3
		c0,2.3,1.7,4.2,3.9,4.2h12c1.6,0,3-1.1,3.6-2.6C18.9,44.6,18,43.6,18,42.3z"/>
	<path fill="#06728D" d="M43.6,15.4H20.5c-0.3,0-0.5,0.2-0.5,0.5v26.3c0,0.3,0.2,0.5,0.5,0.5h10.9c2.1,0,3.9-1.9,3.9-4.2v-4.7
		c0-1.7,1.3-3.1,2.9-3.1h5.3c2.1,0,3.9-1.9,3.9-4.2v-7C47.5,17.3,45.8,15.4,43.6,15.4z M29,38.4h-4.6c-0.6,0-1-0.5-1-1.1
		c0-0.6,0.4-1.1,1-1.1H29c0.6,0,1,0.5,1,1.1C30,37.9,29.5,38.4,29,38.4z M29,22.4h-4.6c-0.6,0-1-0.5-1-1.1c0-0.6,0.4-1.1,1-1.1H29
		c0.6,0,1,0.5,1,1.1C30,21.9,29.5,22.4,29,22.4z M39.9,22.4h-4.6c-0.6,0-1-0.5-1-1.1c0-0.6,0.4-1.1,1-1.1h4.6c0.6,0,1,0.5,1,1.1
		C40.9,21.9,40.5,22.4,39.9,22.4z"/>
</g>
</svg>
