<?xml version="1.0" encoding="utf-8"?>
<!-- Generator: Adobe Illustrator 18.0.0, SVG Export Plug-In . SVG Version: 6.00 Build 0)  -->
<!DOCTYPE svg PUBLIC "-//W3C//DTD SVG 1.1//EN" "http://www.w3.org/Graphics/SVG/1.1/DTD/svg11.dtd">
<svg version="1.1" id="Layer_1" xmlns="http://www.w3.org/2000/svg" xmlns:xlink="http://www.w3.org/1999/xlink" x="0px" y="0px"
	 viewBox="0 0 48 48" enable-background="new 0 0 48 48" xml:space="preserve">
<g>
	<path fill="#294E58" d="M47,6.5H31.9c-0.3,0-0.5,0.2-0.5,0.5V41c0,0.3,0.2,0.5,0.5,0.5H47c0.3,0,0.5-0.2,0.5-0.5V7
		C47.5,6.7,47.3,6.5,47,6.5z M40.4,34.8c0,0.5-0.4,0.9-0.9,0.9c-0.5,0-0.9-0.4-0.9-0.9v-3.2c0-0.5,0.4-0.9,0.9-0.9
		c0.5,0,0.9,0.4,0.9,0.9V34.8z M43.5,13.7h-8.1c-0.5,0-0.9-0.4-0.9-0.9c0-0.5,0.4-0.9,0.9-0.9h8.1c0.5,0,0.9,0.4,0.9,0.9
		C44.4,13.2,44,13.7,43.5,13.7z"/>
	<path fill="#CFD0D1" d="M28.9,7.5H1C0.7,7.5,0.5,7.7,0.5,8v26.7c0,0.3,0.2,0.5,0.5,0.5h10.8c-0.1,0.4-0.3,1.1-0.6,1.4
		c-0.7,0.9-1.5,1.7-2,1.9c-0.2,0.1-0.3,0.2-0.4,0.3c-0.3,0.2-0.4,0.4-0.4,0.8c0,0.5,0.4,0.9,0.9,0.9h11c0.1,0,0.1,0,0.1,0
		c0.1,0,0.1,0,0.2,0c0.4,0,0.7-0.2,0.9-0.6c0.2-0.5-0.1-1-0.5-1.2c-0.5-0.2-1.3-1-2-1.9c-0.3-0.4-0.6-1.3-0.6-1.7h10.5
		c0.3,0,0.5-0.2,0.5-0.5V8C29.4,7.7,29.2,7.5,28.9,7.5z M15.8,32.5h-1.4c-0.5,0-0.9-0.4-0.9-0.9c0-0.5,0.4-0.9,0.9-0.9h1.4
		c0.5,0,0.9,0.4,0.9,0.9C16.8,32.1,16.3,32.5,15.8,32.5z M23.9,27.9H6.4V13.3h17.5V27.9z"/>
</g>
</svg>
