<?xml version="1.0" encoding="utf-8"?>
<!-- Generator: Adobe Illustrator 18.0.0, SVG Export Plug-In . SVG Version: 6.00 Build 0)  -->
<!DOCTYPE svg PUBLIC "-//W3C//DTD SVG 1.1//EN" "http://www.w3.org/Graphics/SVG/1.1/DTD/svg11.dtd">
<svg version="1.1" id="Layer_1" xmlns="http://www.w3.org/2000/svg" xmlns:xlink="http://www.w3.org/1999/xlink" x="0px" y="0px"
	 viewBox="0 0 48 48" enable-background="new 0 0 48 48" xml:space="preserve">
<g>
	<path fill="#E77528" d="M15.7,44.6h-5.5c-0.8,0-1.4,0.6-1.4,1.4c0,0.8,0.6,1.4,1.4,1.4h5.5c0.8,0,1.4-0.6,1.4-1.4
		C17.2,45.3,16.5,44.6,15.7,44.6z"/>
	<path fill="#E77528" d="M39.9,44.6h-5.5c-0.8,0-1.4,0.6-1.4,1.4c0,0.8,0.6,1.4,1.4,1.4h5.5c0.8,0,1.4-0.6,1.4-1.4
		C41.4,45.3,40.7,44.6,39.9,44.6z"/>
	<path fill="#F04B36" d="M27.4,12.5c0.8,0,1.4-0.6,1.4-1.4c0-4.2,3.4-7.7,7.7-7.7c0.8,0,1.4-0.6,1.4-1.4c0-0.8-0.6-1.4-1.4-1.4
		c-5.8,0-10.6,4.7-10.6,10.6C25.9,11.9,26.6,12.5,27.4,12.5z"/>
	<path fill="#F04B36" d="M30.3,12.9c0,0.8,0.6,1.4,1.4,1.4c0.8,0,1.4-0.6,1.4-1.4c0-2.6,2.1-4.7,4.7-4.7c0.8,0,1.4-0.6,1.4-1.4
		s-0.6-1.4-1.4-1.4C33.7,5.3,30.3,8.7,30.3,12.9z"/>
	<path fill="#F04B36" d="M3.4,12.5c0.8,0,1.4-0.6,1.4-1.4c0-4.2,3.4-7.7,7.7-7.7c0.8,0,1.4-0.6,1.4-1.4c0-0.8-0.6-1.4-1.4-1.4
		C6.7,0.5,2,5.2,2,11.1C2,11.9,2.6,12.5,3.4,12.5z"/>
	<path fill="#F04B36" d="M6.3,12.9c0,0.8,0.6,1.4,1.4,1.4c0.8,0,1.4-0.6,1.4-1.4c0-2.6,2.1-4.7,4.7-4.7c0.8,0,1.4-0.6,1.4-1.4
		s-0.6-1.4-1.4-1.4C9.8,5.3,6.3,8.7,6.3,12.9z"/>
	<path fill="#CFD0D1" d="M47,28.9h-8.7V12.6c0-0.8-0.6-1.4-1.4-1.4c-0.8,0-1.4,0.6-1.4,1.4v16.3H14.4V12.6c0-0.8-0.6-1.4-1.4-1.4
		c-0.8,0-1.4,0.6-1.4,1.4v16.3H1c-0.3,0-0.5,0.2-0.5,0.5v13.2c0,0.3,0.2,0.5,0.5,0.5h46c0.3,0,0.5-0.2,0.5-0.5V29.3
		C47.5,29.1,47.3,28.9,47,28.9z M20.8,37.5h-5.9c-0.5,0-1-0.4-1-1c0-0.5,0.4-1,1-1h5.9c0.5,0,1,0.4,1,1C21.8,37,21.4,37.5,20.8,37.5
		z M35.3,37.5h-5.9c-0.5,0-1-0.4-1-1c0-0.5,0.4-1,1-1h5.9c0.5,0,1,0.4,1,1C36.2,37,35.8,37.5,35.3,37.5z"/>
</g>
</svg>
