<?xml version="1.0" encoding="utf-8"?>
<!-- Generator: Adobe Illustrator 18.0.0, SVG Export Plug-In . SVG Version: 6.00 Build 0)  -->
<!DOCTYPE svg PUBLIC "-//W3C//DTD SVG 1.1//EN" "http://www.w3.org/Graphics/SVG/1.1/DTD/svg11.dtd">
<svg version="1.1" id="Layer_1" xmlns="http://www.w3.org/2000/svg" xmlns:xlink="http://www.w3.org/1999/xlink" x="0px" y="0px"
	 viewBox="0 0 48 48" enable-background="new 0 0 48 48" xml:space="preserve">
<g>
	<path fill="#0DB89A" d="M43,12.6h-7.1V1.5c0-0.5-0.4-1-1-1H13.3c-0.6,0-1,0.4-1,1v11.1H5c-2.5,0-4.5,2-4.5,4.5v15.2
		c0,2.5,2,4.5,4.5,4.5h4l0.6-4.6c0.2-1.2,1.2-2.1,2.5-2.1h23.7c1.2,0,2.3,0.9,2.5,2.1l0.6,4.6h4c2.5,0,4.5-2,4.5-4.5V17.1
		C47.5,14.6,45.5,12.6,43,12.6z M33.9,12.6H14.3V2.5h19.6V12.6z M40.2,20c-0.8,0-1.5-0.8-1.5-1.8c0-1,0.7-1.8,1.5-1.8
		c0.8,0,1.5,0.8,1.5,1.8C41.7,19.2,41,20,40.2,20z"/>
	<path fill="#F04B36" d="M35.9,32H12.1c-0.3,0-0.5,0.2-0.5,0.4l-2,14.5c0,0.1,0,0.3,0.1,0.4c0.1,0.1,0.2,0.2,0.4,0.2h27.8
		c0.1,0,0.3-0.1,0.4-0.2c0.1-0.1,0.1-0.3,0.1-0.4l-2-14.5C36.3,32.1,36.1,32,35.9,32z"/>
</g>
</svg>
