<?xml version="1.0" encoding="utf-8"?>
<!-- Generator: Adobe Illustrator 18.0.0, SVG Export Plug-In . SVG Version: 6.00 Build 0)  -->
<!DOCTYPE svg PUBLIC "-//W3C//DTD SVG 1.1//EN" "http://www.w3.org/Graphics/SVG/1.1/DTD/svg11.dtd">
<svg version="1.1" id="Layer_1" xmlns="http://www.w3.org/2000/svg" xmlns:xlink="http://www.w3.org/1999/xlink" x="0px" y="0px"
	 viewBox="0 0 48 48" enable-background="new 0 0 48 48" xml:space="preserve">
<g>
	<path fill="#4DA0D8" d="M47,0.5H1C0.7,0.5,0.5,0.7,0.5,1v36.2c0,0.3,0.2,0.5,0.5,0.5h14.7c0,1.2-0.3,4.7-2.6,7.2
		c-0.6,0.6-0.5,1.6,0.1,2.2c0.3,0.3,0.7,0.4,1,0.4c0.4,0,0.8-0.2,1.1-0.5c3-3.3,3.3-7.7,3.3-9.3h10.6c0,1.6,0.4,6,3.3,9.3
		c0.3,0.3,0.7,0.5,1.1,0.5c0.4,0,0.7-0.1,1-0.4c0.6-0.6,0.7-1.5,0.1-2.2c-2.2-2.5-2.5-6-2.6-7.2H47c0.3,0,0.5-0.2,0.5-0.5V1
		C47.5,0.7,47.3,0.5,47,0.5z M25.3,33.8h-2.6c-0.6,0-1-0.5-1-1c0-0.6,0.4-1,1-1h2.6c0.6,0,1,0.5,1,1C26.3,33.3,25.9,33.8,25.3,33.8z
		 M40.7,28.7H7.3v-22h33.5V28.7z"/>
</g>
</svg>
