<?xml version="1.0" encoding="utf-8"?>
<!-- Generator: Adobe Illustrator 18.0.0, SVG Export Plug-In . SVG Version: 6.00 Build 0)  -->
<!DOCTYPE svg PUBLIC "-//W3C//DTD SVG 1.1//EN" "http://www.w3.org/Graphics/SVG/1.1/DTD/svg11.dtd">
<svg version="1.1" id="Layer_1" xmlns="http://www.w3.org/2000/svg" xmlns:xlink="http://www.w3.org/1999/xlink" x="0px" y="0px"
	 viewBox="0 0 48 48" enable-background="new 0 0 48 48" xml:space="preserve">
<g>
	<path fill="#0DB89A" d="M21,20.4c-3.5,0-6.4,2.8-6.4,6.3c0,3.5,2.9,6.3,6.4,6.3s6.4-2.8,6.4-6.3C27.4,23.2,24.5,20.4,21,20.4z"/>
	<path fill="#E77528" d="M34.8,26v-5.7c0-1.4,1.1-2.4,2.5-2.4h4.2c-0.2-1.8-1.8-3.3-3.7-3.3H4.2c-2.1,0-3.7,1.6-3.7,3.6v16.8
		c0,2,1.7,3.6,3.7,3.6h33.6c2.1,0,3.7-1.6,3.7-3.6v-6.6h-4.2C35.9,28.5,34.8,27.4,34.8,26z M21,34.9c-4.6,0-8.4-3.7-8.4-8.2
		c0-4.5,3.8-8.2,8.4-8.2c4.6,0,8.4,3.7,8.4,8.2C29.4,31.2,25.6,34.9,21,34.9z"/>
	<path fill="#294E58" d="M47,19.9h-9.7c-0.3,0-0.5,0.2-0.5,0.5V26c0,0.3,0.2,0.5,0.5,0.5H47c0.3,0,0.5-0.2,0.5-0.5v-5.7
		C47.5,20.1,47.3,19.9,47,19.9z"/>
	<path fill="#F04B36" d="M5.9,12.2h4c0.8,0,1.5-0.7,1.5-1.5c0-0.8-0.7-1.5-1.5-1.5h-4c-0.8,0-1.5,0.7-1.5,1.5
		C4.4,11.6,5.1,12.2,5.9,12.2z"/>
</g>
</svg>
