<?xml version="1.0" encoding="utf-8"?>
<!-- Generator: Adobe Illustrator 18.0.0, SVG Export Plug-In . SVG Version: 6.00 Build 0)  -->
<!DOCTYPE svg PUBLIC "-//W3C//DTD SVG 1.1//EN" "http://www.w3.org/Graphics/SVG/1.1/DTD/svg11.dtd">
<svg version="1.1" id="Layer_1" xmlns="http://www.w3.org/2000/svg" xmlns:xlink="http://www.w3.org/1999/xlink" x="0px" y="0px"
	 viewBox="0 0 48 48" enable-background="new 0 0 48 48" xml:space="preserve">
<g>
	<path fill="#F7A93B" d="M40.1,11.5h4.5c0.8,0,1.5-0.7,1.5-1.5c0-0.8-0.7-1.5-1.5-1.5h-4.5c-0.8,0-1.5,0.7-1.5,1.5
		C38.6,10.8,39.3,11.5,40.1,11.5z"/>
	<path fill="#F04B36" d="M20.4,19.5c-3.9,0-7.1,3.2-7.1,7.1c0,3.9,3.2,7.1,7.1,7.1c3.9,0,7.1-3.2,7.1-7.1
		C27.5,22.7,24.3,19.5,20.4,19.5z"/>
	<path fill="#06728D" d="M45,14.2H33.6c-1,0-2.3-0.6-3-1.3l-2-2.1c-0.9-0.9-2.5-1.6-3.7-1.6h-7.8c-1.2,0-2.9,0.7-3.8,1.6l-2.1,2.1
		c-0.7,0.7-2.1,1.3-3,1.3H3c-1.4,0-2.5,1.1-2.5,2.5V37c0,1.4,1.1,2.5,2.5,2.5h42c1.4,0,2.5-1.1,2.5-2.5V16.7
		C47.5,15.3,46.4,14.2,45,14.2z M20.4,35.8c-5,0-9.1-4.1-9.1-9.1c0-5,4.1-9.1,9.1-9.1s9.1,4.1,9.1,9.1
		C29.5,31.7,25.4,35.8,20.4,35.8z"/>
</g>
</svg>
