<?xml version="1.0" encoding="utf-8"?>
<!-- Generator: Adobe Illustrator 18.0.0, SVG Export Plug-In . SVG Version: 6.00 Build 0)  -->
<!DOCTYPE svg PUBLIC "-//W3C//DTD SVG 1.1//EN" "http://www.w3.org/Graphics/SVG/1.1/DTD/svg11.dtd">
<svg version="1.1" id="Layer_1" xmlns="http://www.w3.org/2000/svg" xmlns:xlink="http://www.w3.org/1999/xlink" x="0px" y="0px"
	 viewBox="0 0 48 48" enable-background="new 0 0 48 48" xml:space="preserve">
<g>
	<path fill="#CFD0D1" d="M24.8,19.1c2.4,0.4,4.2,2.4,4.2,4.9c0,0.5-0.1,1-0.2,1.5L43,37.9c2.8-3.9,4.5-8.7,4.5-13.9
		C47.5,11,37,0.5,24,0.5c-1,0-2,0.1-3,0.2L24.8,19.1z"/>
	<path fill="#FFD69A" d="M20.8,20.2c0.6-0.5,1.3-0.9,2-1.1L19.1,1c-4.7,1-8.9,3.4-12.1,6.8L20.8,20.2z"/>
	<path fill="#FFD69A" d="M27.7,27.4c-0.7,0.7-1.5,1.2-2.5,1.5l5.4,17.7c4.3-1.3,8.1-3.7,11-7L27.7,27.4z"/>
	<path fill="#CFD0D1" d="M23,28.9c-2.3-0.5-4-2.5-4-4.9c0-0.7,0.2-1.4,0.5-2.1L5.5,9.5c-3.2,4-5,9-5,14.5C0.5,37,11,47.5,24,47.5
		c1.6,0,3.1-0.2,4.6-0.5L23,28.9z"/>
</g>
</svg>
