<?xml version="1.0" encoding="utf-8"?>
<!-- Generator: Adobe Illustrator 18.0.0, SVG Export Plug-In . SVG Version: 6.00 Build 0)  -->
<!DOCTYPE svg PUBLIC "-//W3C//DTD SVG 1.1//EN" "http://www.w3.org/Graphics/SVG/1.1/DTD/svg11.dtd">
<svg version="1.1" id="Layer_1" xmlns="http://www.w3.org/2000/svg" xmlns:xlink="http://www.w3.org/1999/xlink" x="0px" y="0px"
	 viewBox="0 0 48 48" enable-background="new 0 0 48 48" xml:space="preserve">
<g>
	<path fill="#F04B36" d="M47.3,3.5c-0.1-0.1-0.3-0.1-0.5-0.1l-7.4,3.2c-0.2,0.1-0.3,0.3-0.3,0.5v12c0,0.2,0.1,0.4,0.3,0.5l7.4,3.2
		c0.1,0,0.1,0,0.2,0c0.1,0,0.2,0,0.3-0.1c0.1-0.1,0.2-0.3,0.2-0.4V3.9C47.5,3.8,47.4,3.6,47.3,3.5z"/>
	<path fill="#0DB89A" d="M29.9,0.5H7.6c-3.9,0-7.1,3.4-7.1,7.7v10.1c0,4.2,3.2,7.7,7.1,7.7h7L7.5,45.4c-0.3,0.8,0.1,1.7,0.8,2
		c0.2,0.1,0.4,0.1,0.5,0.1c0.6,0,1.1-0.4,1.4-1l7.5-20.6c0,0,0,0,0,0h0.1c0,0,0,0,0,0l7.5,20.6c0.2,0.6,0.8,1,1.4,1
		c0.2,0,0.4,0,0.5-0.1c0.7-0.3,1.1-1.2,0.8-2l-7.1-19.5h9c3.9,0,7.1-3.4,7.1-7.7V8.2C37,3.9,33.8,0.5,29.9,0.5z"/>
</g>
</svg>
